<svg xmlns="http://www.w3.org/2000/svg" width="300" height="300" viewBox="0 0 300 300">
<path d="M 92.0 71.0 L 92.0 71.0 L 91.0 70.0 L 90.0 69.0 L 90.0 69.0 L 89.0 68.0 L 89.0 68.0 L 89.0 68.0 L 90.0 69.0 L 92.0 71.0 L 94.0 73.0 L 96.0 76.0 L 98.0 79.0 L 101.0 82.0 L 103.0 85.0 L 105.0 88.0 L 108.0 91.0 L 110.0 94.0 L 112.0 96.0 " stroke="black" fill="none" stroke-width="5.0" stroke-linecap="round" stroke-linejoin="round" />
<path d="M 72.0 108.0 L 71.0 108.0 L 70.0 108.0 L 69.0 108.0 L 68.0 108.0 L 68.0 108.0 L 68.0 108.0 L 68.0 108.0 L 69.0 108.0 L 70.0 108.0 L 73.0 108.0 L 77.0 108.0 L 82.0 108.0 L 88.0 108.0 L 95.0 108.0 L 101.0 108.0 L 108.0 108.0 L 115.0 108.0 L 120.0 109.0 L 126.0 110.0 " stroke="black" fill="none" stroke-width="5.0" stroke-linecap="round" stroke-linejoin="round" />
<path d="M 93.0 149.0 L 92.0 149.0 L 91.0 149.0 L 89.0 149.0 L 89.0 149.0 L 88.0 149.0 L 88.0 149.0 L 88.0 149.0 L 88.0 149.0 L 88.0 149.0 L 89.0 149.0 L 90.0 149.0 L 92.0 149.0 L 93.0 149.0 L 95.0 149.0 L 97.0 148.0 L 98.0 148.0 L 100.0 148.0 L 102.0 148.0 L 104.0 148.0 L 106.0 148.0 L 108.0 148.0 L 109.0 148.0 L 111.0 148.0 L 112.0 148.0 L 113.0 148.0 L 114.0 148.0 L 115.0 148.0 L 115.0 148.0 L 115.0 149.0 L 116.0 149.0 L 116.0 150.0 L 116.0 150.0 L 116.0 151.0 L 116.0 152.0 L 116.0 152.0 L 116.0 154.0 L 116.0 155.0 L 116.0 156.0 L 116.0 157.0 L 116.0 159.0 L 116.0 161.0 L 116.0 164.0 L 116.0 166.0 L 117.0 168.0 L 117.0 171.0 L 117.0 174.0 L 118.0 177.0 L 118.0 181.0 L 118.0 184.0 L 118.0 188.0 L 118.0 193.0 L 118.0 197.0 L 118.0 202.0 L 118.0 206.0 L 118.0 209.0 L 117.0 213.0 L 117.0 216.0 L 116.0 222.0 L 116.0 226.0 L 115.0 230.0 L 115.0 234.0 L 115.0 237.0 L 114.0 240.0 L 114.0 243.0 L 114.0 245.0 L 113.0 246.0 L 113.0 246.0 L 112.0 246.0 L 111.0 246.0 L 110.0 246.0 L 108.0 245.0 L 107.0 244.0 L 105.0 242.0 L 103.0 240.0 L 101.0 238.0 L 99.0 236.0 L 98.0 234.0 " stroke="black" fill="none" stroke-width="5.0" stroke-linecap="round" stroke-linejoin="round" />
<path d="M 92.0 118.0 L 92.0 118.0 L 92.0 118.0 L 92.0 118.0 L 92.0 118.0 L 92.0 118.0 L 92.0 118.0 L 93.0 118.0 L 93.0 118.0 L 93.0 119.0 L 93.0 121.0 L 93.0 123.0 L 94.0 127.0 L 94.0 132.0 L 94.0 139.0 L 94.0 146.0 L 94.0 153.0 L 94.0 161.0 L 93.0 168.0 L 91.0 176.0 L 89.0 185.0 L 87.0 193.0 L 85.0 201.0 L 81.0 209.0 L 78.0 216.0 L 75.0 224.0 L 71.0 232.0 L 68.0 237.0 L 65.0 241.0 L 64.0 243.0 L 63.0 244.0 " stroke="black" fill="none" stroke-width="5.0" stroke-linecap="round" stroke-linejoin="round" />
<path d="M 191.0 74.0 L 191.0 74.0 L 191.0 74.0 L 191.0 74.0 L 191.0 74.0 L 191.0 74.0 L 191.0 74.0 L 191.0 74.0 L 191.0 74.0 L 191.0 75.0 L 191.0 77.0 L 191.0 79.0 L 190.0 84.0 L 187.0 89.0 L 184.0 97.0 L 178.0 106.0 L 172.0 114.0 L 166.0 121.0 L 159.0 129.0 L 154.0 135.0 L 151.0 141.0 L 148.0 147.0 L 147.0 149.0 " stroke="black" fill="none" stroke-width="5.0" stroke-linecap="round" stroke-linejoin="round" />
<path d="M 188.0 94.0 L 188.0 94.0 L 187.0 94.0 L 187.0 94.0 L 187.0 94.0 L 186.0 94.0 L 186.0 94.0 L 186.0 94.0 L 187.0 95.0 L 188.0 96.0 L 190.0 97.0 L 192.0 99.0 L 194.0 102.0 L 197.0 105.0 L 201.0 108.0 L 205.0 111.0 L 210.0 115.0 L 216.0 119.0 L 222.0 122.0 L 226.0 124.0 L 230.0 127.0 L 233.0 128.0 L 234.0 130.0 L 235.0 131.0 L 235.0 132.0 " stroke="black" fill="none" stroke-width="5.0" stroke-linecap="round" stroke-linejoin="round" />
<path d="M 178.0 154.0 L 178.0 154.0 L 178.0 154.0 L 178.0 154.0 L 178.0 154.0 L 178.0 154.0 L 178.0 154.0 L 178.0 154.0 L 180.0 155.0 L 183.0 157.0 L 186.0 160.0 L 190.0 162.0 L 194.0 165.0 L 198.0 168.0 L 201.0 172.0 L 205.0 175.0 L 206.0 177.0 " stroke="black" fill="none" stroke-width="5.0" stroke-linecap="round" stroke-linejoin="round" />
<path d="M 160.0 205.0 L 160.0 205.0 L 160.0 205.0 L 160.0 205.0 L 160.0 205.0 L 160.0 205.0 L 159.0 205.0 L 159.0 206.0 L 160.0 206.0 L 162.0 207.0 L 165.0 209.0 L 170.0 211.0 L 176.0 213.0 L 183.0 216.0 L 190.0 219.0 L 196.0 223.0 L 202.0 226.0 L 207.0 229.0 L 210.0 231.0 L 213.0 234.0 L 215.0 236.0 L 215.0 237.0 " stroke="black" fill="none" stroke-width="5.0" stroke-linecap="round" stroke-linejoin="round" />
</svg>