<svg xmlns="http://www.w3.org/2000/svg" width="300" height="300" viewBox="0 0 300 300">
<path d="M 107.0 71.0 L 107.0 71.0 L 107.0 71.0 L 107.0 71.0 L 106.0 70.0 L 106.0 70.0 L 106.0 70.0 L 106.0 70.0 L 106.0 70.0 L 106.0 72.0 L 106.0 75.0 L 105.0 80.0 L 102.0 87.0 L 97.0 97.0 L 89.0 108.0 L 81.0 117.0 L 74.0 124.0 L 69.0 129.0 " stroke="black" fill="none" stroke-width="5.0" stroke-linecap="round" stroke-linejoin="round" />
<path d="M 101.0 98.0 L 100.0 98.0 L 99.0 97.0 L 99.0 97.0 L 99.0 96.0 L 99.0 96.0 L 100.0 96.0 L 102.0 96.0 L 105.0 96.0 L 110.0 96.0 L 117.0 96.0 L 127.0 96.0 L 139.0 96.0 L 151.0 96.0 L 164.0 96.0 L 179.0 95.0 L 192.0 95.0 L 203.0 94.0 L 212.0 94.0 L 220.0 94.0 L 227.0 94.0 L 231.0 95.0 L 232.0 96.0 " stroke="black" fill="none" stroke-width="5.0" stroke-linecap="round" stroke-linejoin="round" />
<path d="M 76.0 150.0 L 75.0 150.0 L 74.0 149.0 L 73.0 148.0 L 72.0 148.0 L 71.0 148.0 L 71.0 148.0 L 72.0 148.0 L 75.0 148.0 L 80.0 148.0 L 87.0 148.0 L 95.0 147.0 L 99.0 147.0 L 113.0 146.0 L 125.0 145.0 L 140.0 144.0 L 154.0 144.0 L 168.0 143.0 L 183.0 142.0 L 196.0 141.0 L 203.0 141.0 L 210.0 141.0 L 216.0 141.0 L 220.0 141.0 L 222.0 143.0 L 223.0 145.0 L 223.0 145.0 " stroke="black" fill="none" stroke-width="5.0" stroke-linecap="round" stroke-linejoin="round" />
<path d="M 98.0 130.0 L 98.0 130.0 L 97.0 129.0 L 97.0 128.0 L 97.0 128.0 L 96.0 128.0 L 96.0 130.0 L 96.0 133.0 L 96.0 139.0 L 96.0 146.0 L 96.0 154.0 L 96.0 162.0 L 97.0 171.0 L 98.0 180.0 L 99.0 187.0 L 100.0 192.0 L 101.0 196.0 L 101.0 196.0 " stroke="black" fill="none" stroke-width="5.0" stroke-linecap="round" stroke-linejoin="round" />
<path d="M 125.0 128.0 L 125.0 128.0 L 125.0 128.0 L 125.0 128.0 L 125.0 129.0 L 127.0 131.0 L 128.0 135.0 L 130.0 141.0 L 132.0 148.0 L 135.0 156.0 L 136.0 163.0 L 137.0 168.0 L 138.0 173.0 L 138.0 177.0 L 138.0 179.0 L 139.0 181.0 " stroke="black" fill="none" stroke-width="5.0" stroke-linecap="round" stroke-linejoin="round" />
<path d="M 166.0 129.0 L 166.0 128.0 L 165.0 127.0 L 164.0 127.0 L 164.0 127.0 L 163.0 129.0 L 163.0 132.0 L 163.0 137.0 L 163.0 143.0 L 163.0 150.0 L 164.0 157.0 L 164.0 163.0 L 165.0 170.0 L 166.0 176.0 L 168.0 181.0 L 169.0 183.0 " stroke="black" fill="none" stroke-width="5.0" stroke-linecap="round" stroke-linejoin="round" />
<path d="M 203.0 131.0 L 203.0 131.0 L 203.0 130.0 L 203.0 130.0 L 203.0 130.0 L 203.0 132.0 L 204.0 136.0 L 204.0 141.0 L 204.0 147.0 L 203.0 154.0 L 202.0 161.0 L 200.0 170.0 L 198.0 178.0 " stroke="black" fill="none" stroke-width="5.0" stroke-linecap="round" stroke-linejoin="round" />
<path d="M 62.0 198.0 L 62.0 198.0 L 63.0 197.0 L 64.0 197.0 L 65.0 196.0 L 68.0 196.0 L 73.0 195.0 L 83.0 195.0 L 96.0 193.0 L 108.0 192.0 L 121.0 192.0 L 138.0 191.0 L 153.0 190.0 L 167.0 190.0 L 183.0 190.0 L 196.0 190.0 L 207.0 191.0 L 218.0 191.0 L 228.0 191.0 L 235.0 192.0 L 239.0 193.0 L 240.0 194.0 " stroke="black" fill="none" stroke-width="5.0" stroke-linecap="round" stroke-linejoin="round" />
<path d="M 91.0 212.0 L 91.0 212.0 L 91.0 212.0 L 91.0 212.0 L 90.0 212.0 L 90.0 212.0 L 89.0 214.0 L 87.0 218.0 L 85.0 225.0 L 82.0 232.0 L 79.0 240.0 L 77.0 247.0 L 75.0 252.0 L 74.0 255.0 " stroke="black" fill="none" stroke-width="5.0" stroke-linecap="round" stroke-linejoin="round" />
<path d="M 127.0 214.0 L 127.0 214.0 L 126.0 214.0 L 126.0 214.0 L 126.0 215.0 L 126.0 217.0 L 126.0 220.0 L 126.0 224.0 L 126.0 229.0 L 126.0 234.0 L 125.0 239.0 L 125.0 245.0 L 125.0 247.0 " stroke="black" fill="none" stroke-width="5.0" stroke-linecap="round" stroke-linejoin="round" />
<path d="M 164.0 222.0 L 164.0 224.0 L 164.0 227.0 L 164.0 230.0 L 165.0 233.0 L 166.0 236.0 L 167.0 239.0 L 169.0 241.0 L 170.0 243.0 " stroke="black" fill="none" stroke-width="5.0" stroke-linecap="round" stroke-linejoin="round" />
<path d="M 211.0 215.0 L 210.0 215.0 L 208.0 215.0 L 206.0 215.0 L 206.0 215.0 L 206.0 216.0 L 207.0 218.0 L 209.0 221.0 L 213.0 226.0 L 218.0 230.0 L 223.0 235.0 L 228.0 239.0 L 232.0 244.0 L 234.0 247.0 " stroke="black" fill="none" stroke-width="5.0" stroke-linecap="round" stroke-linejoin="round" />
</svg>