<svg xmlns="http://www.w3.org/2000/svg" width="300" height="300" viewBox="0 0 300 300">
<path d="M 103.0 71.0 L 103.0 71.0 L 103.0 71.0 L 103.0 70.0 L 103.0 70.0 L 103.0 70.0 L 103.0 70.0 L 103.0 70.0 L 103.0 70.0 L 103.0 71.0 L 103.0 73.0 L 103.0 75.0 L 102.0 78.0 L 101.0 82.0 L 99.0 87.0 L 96.0 94.0 L 92.0 101.0 L 87.0 108.0 L 81.0 114.0 L 75.0 118.0 " stroke="black" fill="none" stroke-width="5.0" stroke-linecap="round" stroke-linejoin="round" />
<path d="M 102.0 97.0 L 102.0 97.0 L 102.0 97.0 L 101.0 97.0 L 101.0 97.0 L 101.0 97.0 L 100.0 97.0 L 100.0 97.0 L 100.0 97.0 L 100.0 97.0 L 101.0 97.0 L 101.0 97.0 L 102.0 98.0 L 104.0 98.0 L 105.0 98.0 L 107.0 98.0 L 108.0 99.0 L 110.0 99.0 L 112.0 99.0 L 114.0 99.0 L 116.0 99.0 L 118.0 99.0 L 120.0 99.0 L 122.0 99.0 L 124.0 99.0 L 127.0 99.0 L 129.0 99.0 L 132.0 99.0 L 134.0 99.0 L 137.0 99.0 L 139.0 99.0 L 141.0 99.0 L 143.0 99.0 L 145.0 99.0 L 147.0 99.0 L 148.0 99.0 L 150.0 99.0 L 152.0 99.0 L 153.0 99.0 L 155.0 98.0 L 156.0 98.0 L 158.0 98.0 L 160.0 98.0 L 162.0 98.0 L 165.0 98.0 L 168.0 98.0 L 172.0 98.0 L 176.0 98.0 L 180.0 98.0 L 183.0 98.0 L 187.0 98.0 L 190.0 98.0 L 193.0 98.0 L 196.0 98.0 L 198.0 98.0 L 201.0 97.0 L 203.0 97.0 L 205.0 97.0 L 207.0 97.0 L 209.0 97.0 L 211.0 97.0 " stroke="black" fill="none" stroke-width="5.0" stroke-linecap="round" stroke-linejoin="round" />
<path d="M 69.0 149.0 L 69.0 149.0 L 69.0 149.0 L 69.0 149.0 L 69.0 149.0 L 69.0 149.0 L 69.0 148.0 L 69.0 148.0 L 70.0 148.0 L 70.0 147.0 L 70.0 147.0 L 71.0 147.0 L 71.0 147.0 L 72.0 147.0 L 72.0 146.0 L 73.0 146.0 L 75.0 146.0 L 76.0 146.0 L 78.0 146.0 L 80.0 146.0 L 83.0 146.0 L 86.0 146.0 L 89.0 146.0 L 91.0 146.0 L 94.0 146.0 L 97.0 146.0 L 99.0 146.0 L 101.0 146.0 L 104.0 146.0 L 106.0 145.0 L 108.0 145.0 L 110.0 145.0 L 112.0 144.0 L 114.0 144.0 L 115.0 144.0 L 117.0 144.0 L 119.0 144.0 L 120.0 144.0 L 122.0 144.0 L 124.0 144.0 L 125.0 144.0 L 128.0 144.0 L 130.0 144.0 L 132.0 143.0 L 135.0 143.0 L 137.0 143.0 L 139.0 143.0 L 141.0 143.0 L 143.0 143.0 L 145.0 143.0 L 146.0 143.0 L 148.0 143.0 L 149.0 143.0 L 151.0 143.0 L 152.0 143.0 L 153.0 143.0 L 155.0 143.0 L 156.0 143.0 L 158.0 143.0 L 160.0 142.0 L 162.0 142.0 L 164.0 141.0 L 167.0 141.0 L 169.0 140.0 L 172.0 140.0 L 175.0 140.0 L 177.0 140.0 L 180.0 139.0 L 183.0 139.0 L 186.0 139.0 L 188.0 139.0 L 191.0 139.0 L 193.0 139.0 L 195.0 139.0 L 197.0 139.0 L 199.0 139.0 L 201.0 139.0 L 204.0 139.0 L 206.0 139.0 L 209.0 139.0 L 213.0 139.0 L 217.0 139.0 L 220.0 139.0 " stroke="black" fill="none" stroke-width="5.0" stroke-linecap="round" stroke-linejoin="round" />
<path d="M 94.0 123.0 L 94.0 123.0 L 94.0 123.0 L 93.0 123.0 L 93.0 122.0 L 93.0 122.0 L 92.0 122.0 L 92.0 123.0 L 92.0 124.0 L 93.0 127.0 L 93.0 130.0 L 94.0 135.0 L 95.0 142.0 L 96.0 149.0 L 96.0 157.0 L 97.0 165.0 L 97.0 174.0 L 97.0 181.0 L 97.0 188.0 L 97.0 194.0 L 97.0 196.0 L 97.0 197.0 " stroke="black" fill="none" stroke-width="5.0" stroke-linecap="round" stroke-linejoin="round" />
<path d="M 126.0 125.0 L 126.0 125.0 L 126.0 124.0 L 125.0 124.0 L 125.0 124.0 L 124.0 124.0 L 124.0 124.0 L 124.0 125.0 L 124.0 127.0 L 124.0 130.0 L 125.0 135.0 L 125.0 141.0 L 125.0 149.0 L 125.0 157.0 L 125.0 165.0 L 125.0 173.0 L 126.0 179.0 L 126.0 184.0 L 128.0 186.0 L 129.0 187.0 L 130.0 187.0 " stroke="black" fill="none" stroke-width="5.0" stroke-linecap="round" stroke-linejoin="round" />
<path d="M 158.0 125.0 L 158.0 125.0 L 159.0 125.0 L 160.0 125.0 L 160.0 125.0 L 161.0 126.0 L 161.0 126.0 L 162.0 128.0 L 162.0 130.0 L 163.0 133.0 L 163.0 138.0 L 164.0 144.0 L 164.0 152.0 L 163.0 161.0 L 161.0 170.0 L 160.0 178.0 L 160.0 184.0 L 160.0 190.0 L 160.0 192.0 L 160.0 192.0 " stroke="black" fill="none" stroke-width="5.0" stroke-linecap="round" stroke-linejoin="round" />
<path d="M 204.0 128.0 L 204.0 128.0 L 204.0 128.0 L 203.0 128.0 L 203.0 128.0 L 202.0 128.0 L 202.0 129.0 L 202.0 131.0 L 202.0 134.0 L 202.0 139.0 L 203.0 146.0 L 203.0 153.0 L 203.0 161.0 L 203.0 169.0 L 203.0 176.0 L 203.0 182.0 L 203.0 188.0 L 203.0 190.0 L 203.0 191.0 " stroke="black" fill="none" stroke-width="5.0" stroke-linecap="round" stroke-linejoin="round" />
<path d="M 63.0 198.0 L 63.0 198.0 L 63.0 198.0 L 63.0 198.0 L 62.0 198.0 L 62.0 198.0 L 62.0 197.0 L 62.0 197.0 L 62.0 197.0 L 62.0 197.0 L 64.0 197.0 L 66.0 197.0 L 69.0 197.0 L 73.0 197.0 L 79.0 197.0 L 87.0 197.0 L 96.0 196.0 L 105.0 196.0 L 114.0 196.0 L 124.0 195.0 L 135.0 195.0 L 146.0 195.0 L 155.0 195.0 L 163.0 195.0 L 171.0 195.0 L 181.0 195.0 L 189.0 195.0 L 195.0 195.0 L 200.0 195.0 L 204.0 195.0 L 209.0 195.0 L 214.0 195.0 L 218.0 195.0 L 221.0 196.0 L 224.0 197.0 L 227.0 198.0 L 228.0 199.0 " stroke="black" fill="none" stroke-width="5.0" stroke-linecap="round" stroke-linejoin="round" />
<path d="M 98.0 210.0 L 98.0 209.0 L 97.0 209.0 L 97.0 208.0 L 97.0 208.0 L 96.0 208.0 L 96.0 208.0 L 95.0 210.0 L 93.0 214.0 L 91.0 219.0 L 88.0 226.0 L 84.0 234.0 L 81.0 241.0 L 79.0 247.0 L 78.0 252.0 L 78.0 253.0 " stroke="black" fill="none" stroke-width="5.0" stroke-linecap="round" stroke-linejoin="round" />
<path d="M 126.0 212.0 L 126.0 212.0 L 126.0 212.0 L 126.0 212.0 L 126.0 212.0 L 126.0 213.0 L 126.0 214.0 L 126.0 217.0 L 126.0 221.0 L 126.0 226.0 L 126.0 232.0 L 126.0 239.0 L 126.0 245.0 L 126.0 251.0 " stroke="black" fill="none" stroke-width="5.0" stroke-linecap="round" stroke-linejoin="round" />
<path d="M 175.0 214.0 L 175.0 214.0 L 176.0 215.0 L 176.0 216.0 L 177.0 218.0 L 177.0 220.0 L 178.0 223.0 L 178.0 227.0 L 179.0 231.0 L 180.0 236.0 L 181.0 242.0 L 181.0 247.0 L 182.0 252.0 L 182.0 256.0 L 183.0 260.0 " stroke="black" fill="none" stroke-width="5.0" stroke-linecap="round" stroke-linejoin="round" />
<path d="M 208.0 219.0 L 208.0 218.0 L 208.0 218.0 L 208.0 217.0 L 208.0 217.0 L 208.0 217.0 L 208.0 218.0 L 208.0 221.0 L 210.0 225.0 L 212.0 230.0 L 215.0 235.0 L 218.0 240.0 L 222.0 246.0 L 226.0 252.0 L 229.0 257.0 L 231.0 260.0 " stroke="black" fill="none" stroke-width="5.0" stroke-linecap="round" stroke-linejoin="round" />
</svg>