<svg xmlns="http://www.w3.org/2000/svg" width="300" height="300" viewBox="0 0 300 300">
<path d="M 77.0 79.0 L 77.0 79.0 L 77.0 79.0 L 76.0 79.0 L 76.0 79.0 L 76.0 79.0 L 76.0 79.0 L 76.0 80.0 L 76.0 81.0 L 76.0 83.0 L 76.0 87.0 L 76.0 91.0 L 76.0 96.0 L 77.0 102.0 L 77.0 107.0 L 77.0 111.0 " stroke="black" fill="none" stroke-width="5.0" stroke-linecap="round" stroke-linejoin="round" />
<path d="M 74.0 81.0 L 74.0 81.0 L 74.0 81.0 L 74.0 81.0 L 74.0 81.0 L 74.0 81.0 L 74.0 81.0 L 74.0 81.0 L 74.0 81.0 L 74.0 81.0 L 74.0 81.0 L 74.0 81.0 L 74.0 81.0 L 74.0 81.0 L 74.0 81.0 L 75.0 81.0 L 76.0 81.0 L 77.0 81.0 L 78.0 81.0 L 79.0 81.0 L 80.0 81.0 L 82.0 81.0 L 83.0 81.0 L 84.0 81.0 L 85.0 81.0 L 86.0 81.0 L 87.0 81.0 L 89.0 81.0 L 90.0 81.0 L 91.0 81.0 L 92.0 81.0 L 93.0 81.0 L 94.0 81.0 L 95.0 81.0 L 97.0 81.0 L 98.0 81.0 L 99.0 81.0 L 100.0 81.0 L 101.0 81.0 L 102.0 81.0 L 103.0 81.0 L 104.0 81.0 L 105.0 81.0 L 106.0 81.0 L 107.0 80.0 L 108.0 80.0 L 109.0 80.0 L 110.0 80.0 L 110.0 80.0 L 111.0 80.0 L 112.0 80.0 L 113.0 80.0 L 114.0 79.0 L 115.0 79.0 L 116.0 79.0 L 117.0 79.0 L 118.0 79.0 L 119.0 78.0 L 120.0 78.0 L 121.0 78.0 L 123.0 78.0 L 124.0 78.0 L 125.0 78.0 L 126.0 78.0 L 127.0 78.0 L 128.0 78.0 L 129.0 78.0 L 130.0 78.0 L 131.0 78.0 L 133.0 78.0 L 134.0 78.0 L 135.0 78.0 L 135.0 78.0 L 137.0 78.0 L 137.0 78.0 L 138.0 78.0 L 139.0 78.0 L 140.0 78.0 L 141.0 78.0 L 142.0 78.0 L 143.0 78.0 L 144.0 78.0 L 145.0 79.0 L 146.0 79.0 L 147.0 79.0 L 148.0 79.0 L 149.0 79.0 L 150.0 79.0 L 150.0 79.0 L 151.0 79.0 L 152.0 79.0 L 153.0 79.0 L 154.0 79.0 L 155.0 79.0 L 156.0 79.0 L 157.0 79.0 L 158.0 79.0 L 159.0 79.0 L 160.0 79.0 L 161.0 79.0 L 162.0 79.0 L 164.0 79.0 L 165.0 79.0 L 167.0 79.0 L 168.0 79.0 L 170.0 79.0 L 172.0 79.0 L 174.0 79.0 L 175.0 79.0 L 177.0 79.0 L 179.0 79.0 L 180.0 80.0 L 182.0 80.0 L 184.0 80.0 L 185.0 80.0 L 187.0 80.0 L 189.0 80.0 L 190.0 80.0 L 191.0 80.0 L 192.0 80.0 L 193.0 80.0 L 194.0 80.0 L 195.0 80.0 L 196.0 80.0 L 197.0 80.0 L 198.0 80.0 L 199.0 80.0 L 200.0 80.0 L 202.0 80.0 L 203.0 80.0 L 204.0 80.0 L 206.0 80.0 L 207.0 80.0 L 208.0 81.0 L 209.0 81.0 L 210.0 81.0 L 211.0 81.0 L 212.0 82.0 L 213.0 82.0 L 214.0 82.0 L 215.0 82.0 L 216.0 82.0 L 217.0 82.0 L 217.0 83.0 L 218.0 83.0 L 219.0 83.0 L 219.0 83.0 L 220.0 83.0 L 220.0 83.0 L 221.0 83.0 L 221.0 83.0 L 221.0 83.0 L 221.0 83.0 L 222.0 83.0 L 222.0 83.0 L 222.0 84.0 L 222.0 84.0 L 222.0 84.0 L 222.0 84.0 L 222.0 84.0 L 222.0 85.0 L 222.0 86.0 L 222.0 87.0 L 222.0 88.0 L 221.0 90.0 L 221.0 92.0 L 221.0 95.0 L 220.0 99.0 L 219.0 102.0 L 219.0 106.0 L 218.0 109.0 L 217.0 112.0 L 216.0 115.0 L 215.0 116.0 L 214.0 117.0 " stroke="black" fill="none" stroke-width="5.0" stroke-linecap="round" stroke-linejoin="round" />
<path d="M 134.0 85.0 L 134.0 85.0 L 134.0 85.0 L 134.0 85.0 L 134.0 85.0 L 134.0 85.0 L 134.0 86.0 L 134.0 87.0 L 134.0 89.0 L 134.0 93.0 L 134.0 97.0 L 134.0 102.0 L 134.0 107.0 L 134.0 111.0 L 134.0 114.0 L 135.0 116.0 L 136.0 118.0 " stroke="black" fill="none" stroke-width="5.0" stroke-linecap="round" stroke-linejoin="round" />
<path d="M 173.0 82.0 L 173.0 82.0 L 173.0 83.0 L 172.0 83.0 L 172.0 84.0 L 172.0 84.0 L 171.0 86.0 L 171.0 87.0 L 171.0 90.0 L 171.0 94.0 L 170.0 98.0 L 170.0 103.0 L 170.0 108.0 L 170.0 112.0 L 169.0 116.0 " stroke="black" fill="none" stroke-width="5.0" stroke-linecap="round" stroke-linejoin="round" />
<path d="M 78.0 117.0 L 78.0 117.0 L 78.0 117.0 L 78.0 117.0 L 78.0 117.0 L 78.0 117.0 L 78.0 117.0 L 78.0 117.0 L 78.0 117.0 L 78.0 117.0 L 78.0 117.0 L 78.0 117.0 L 78.0 117.0 L 78.0 117.0 L 79.0 117.0 L 79.0 117.0 L 80.0 117.0 L 81.0 117.0 L 82.0 117.0 L 84.0 117.0 L 85.0 117.0 L 87.0 117.0 L 89.0 117.0 L 91.0 117.0 L 93.0 117.0 L 95.0 117.0 L 96.0 117.0 L 98.0 117.0 L 100.0 117.0 L 101.0 117.0 L 102.0 117.0 L 103.0 117.0 L 104.0 117.0 L 105.0 117.0 L 106.0 117.0 L 107.0 117.0 L 108.0 117.0 L 109.0 117.0 L 110.0 117.0 L 111.0 117.0 L 112.0 117.0 L 113.0 117.0 L 113.0 117.0 L 114.0 117.0 L 116.0 117.0 L 117.0 117.0 L 118.0 117.0 L 119.0 117.0 L 121.0 117.0 L 122.0 117.0 L 124.0 117.0 L 125.0 117.0 L 127.0 117.0 L 129.0 117.0 L 131.0 117.0 L 133.0 117.0 L 135.0 117.0 L 137.0 117.0 L 139.0 117.0 L 141.0 117.0 L 142.0 117.0 L 144.0 117.0 L 146.0 117.0 L 147.0 117.0 L 149.0 117.0 L 150.0 117.0 L 152.0 117.0 L 154.0 117.0 L 155.0 117.0 L 157.0 117.0 L 160.0 117.0 L 162.0 117.0 L 164.0 117.0 L 167.0 117.0 L 169.0 117.0 L 172.0 117.0 L 175.0 117.0 L 178.0 117.0 L 181.0 117.0 L 184.0 117.0 L 187.0 117.0 L 190.0 117.0 L 192.0 117.0 L 194.0 117.0 L 196.0 117.0 L 198.0 117.0 L 199.0 117.0 L 201.0 116.0 L 202.0 116.0 L 202.0 115.0 L 203.0 115.0 L 203.0 115.0 L 203.0 115.0 " stroke="black" fill="none" stroke-width="5.0" stroke-linecap="round" stroke-linejoin="round" />
<path d="M 113.0 114.0 L 113.0 114.0 L 113.0 114.0 L 113.0 114.0 L 113.0 113.0 L 113.0 113.0 L 113.0 113.0 L 113.0 113.0 L 113.0 113.0 L 113.0 114.0 L 112.0 116.0 L 111.0 119.0 L 110.0 123.0 L 108.0 127.0 L 106.0 133.0 L 103.0 139.0 L 98.0 146.0 L 93.0 152.0 L 87.0 157.0 L 80.0 162.0 L 74.0 165.0 L 69.0 167.0 L 67.0 168.0 L 65.0 168.0 " stroke="black" fill="none" stroke-width="5.0" stroke-linecap="round" stroke-linejoin="round" />
<path d="M 104.0 148.0 L 104.0 148.0 L 104.0 148.0 L 103.0 148.0 L 103.0 148.0 L 103.0 148.0 L 102.0 147.0 L 102.0 147.0 L 102.0 147.0 L 102.0 147.0 L 102.0 147.0 L 102.0 147.0 L 102.0 147.0 L 102.0 147.0 L 102.0 147.0 L 102.0 147.0 L 102.0 147.0 L 102.0 147.0 L 103.0 147.0 L 103.0 147.0 L 104.0 147.0 L 105.0 147.0 L 106.0 147.0 L 107.0 146.0 L 107.0 146.0 L 108.0 146.0 L 109.0 146.0 L 110.0 146.0 L 111.0 146.0 L 112.0 146.0 L 113.0 146.0 L 114.0 146.0 L 115.0 146.0 L 116.0 146.0 L 117.0 146.0 L 118.0 146.0 L 119.0 146.0 L 120.0 146.0 L 121.0 146.0 L 122.0 146.0 L 123.0 146.0 L 124.0 146.0 L 125.0 146.0 L 126.0 147.0 L 127.0 147.0 L 128.0 147.0 L 130.0 147.0 L 131.0 147.0 L 132.0 147.0 L 133.0 148.0 L 135.0 148.0 L 136.0 148.0 L 137.0 148.0 L 138.0 148.0 L 139.0 148.0 L 141.0 148.0 L 142.0 149.0 L 143.0 149.0 L 144.0 149.0 L 145.0 149.0 L 146.0 150.0 L 147.0 150.0 L 148.0 150.0 L 149.0 150.0 L 150.0 150.0 L 151.0 150.0 L 152.0 150.0 L 153.0 150.0 L 155.0 150.0 L 156.0 150.0 L 157.0 150.0 L 159.0 150.0 L 160.0 150.0 L 162.0 150.0 L 164.0 150.0 L 165.0 150.0 L 167.0 150.0 L 169.0 150.0 L 170.0 150.0 L 172.0 150.0 L 174.0 150.0 L 176.0 149.0 L 177.0 149.0 L 179.0 149.0 L 180.0 149.0 L 181.0 149.0 L 182.0 149.0 L 184.0 149.0 L 184.0 149.0 L 185.0 149.0 L 186.0 149.0 L 187.0 149.0 L 188.0 149.0 L 189.0 149.0 L 190.0 149.0 L 191.0 149.0 L 192.0 149.0 L 193.0 149.0 L 193.0 149.0 L 194.0 149.0 L 194.0 149.0 L 195.0 149.0 L 196.0 149.0 L 196.0 149.0 L 197.0 149.0 L 197.0 149.0 L 198.0 149.0 L 199.0 149.0 L 200.0 149.0 L 200.0 149.0 L 202.0 149.0 L 202.0 149.0 L 204.0 149.0 L 205.0 149.0 L 205.0 149.0 L 206.0 149.0 L 207.0 149.0 L 208.0 149.0 L 209.0 149.0 L 209.0 149.0 L 210.0 149.0 L 211.0 149.0 L 212.0 149.0 L 213.0 149.0 L 214.0 149.0 L 214.0 149.0 L 215.0 149.0 L 216.0 149.0 L 217.0 149.0 L 217.0 149.0 L 218.0 149.0 L 219.0 149.0 L 219.0 149.0 L 220.0 150.0 L 220.0 150.0 L 221.0 150.0 L 221.0 150.0 L 221.0 150.0 L 222.0 150.0 L 222.0 151.0 L 222.0 151.0 L 222.0 152.0 L 222.0 152.0 L 222.0 153.0 L 222.0 153.0 L 223.0 154.0 L 223.0 154.0 L 223.0 155.0 L 223.0 155.0 L 223.0 155.0 L 223.0 156.0 L 223.0 156.0 L 223.0 157.0 L 224.0 158.0 L 224.0 158.0 L 224.0 159.0 L 224.0 159.0 L 224.0 160.0 L 224.0 160.0 L 224.0 161.0 L 224.0 162.0 L 225.0 162.0 L 225.0 163.0 L 225.0 164.0 L 225.0 165.0 L 225.0 167.0 L 225.0 168.0 L 225.0 170.0 L 225.0 172.0 L 225.0 174.0 L 225.0 177.0 L 225.0 179.0 L 225.0 182.0 L 225.0 185.0 L 225.0 188.0 L 224.0 191.0 L 224.0 194.0 L 223.0 196.0 L 223.0 198.0 L 223.0 200.0 L 223.0 202.0 L 223.0 204.0 L 223.0 206.0 L 223.0 208.0 L 223.0 209.0 L 222.0 211.0 L 222.0 213.0 L 222.0 215.0 L 221.0 218.0 L 221.0 220.0 L 220.0 222.0 L 219.0 224.0 L 219.0 226.0 L 219.0 228.0 L 218.0 230.0 L 218.0 231.0 L 218.0 232.0 L 217.0 234.0 L 217.0 235.0 L 217.0 236.0 L 216.0 237.0 L 216.0 238.0 L 216.0 240.0 L 215.0 241.0 L 215.0 242.0 L 215.0 243.0 L 214.0 244.0 L 214.0 245.0 L 214.0 245.0 L 214.0 246.0 L 214.0 246.0 L 213.0 247.0 L 212.0 248.0 L 212.0 249.0 L 211.0 249.0 L 210.0 250.0 L 209.0 251.0 L 208.0 252.0 L 207.0 252.0 L 206.0 252.0 L 205.0 252.0 L 204.0 252.0 L 202.0 252.0 L 200.0 252.0 L 197.0 251.0 L 195.0 249.0 L 192.0 247.0 L 190.0 245.0 " stroke="black" fill="none" stroke-width="5.0" stroke-linecap="round" stroke-linejoin="round" />
<path d="M 96.0 177.0 L 96.0 177.0 L 96.0 177.0 L 96.0 177.0 L 96.0 177.0 L 96.0 178.0 L 96.0 179.0 L 96.0 181.0 L 96.0 184.0 L 96.0 188.0 L 96.0 192.0 L 96.0 196.0 L 96.0 200.0 L 97.0 204.0 L 97.0 207.0 L 98.0 207.0 " stroke="black" fill="none" stroke-width="5.0" stroke-linecap="round" stroke-linejoin="round" />
<path d="M 100.0 181.0 L 100.0 181.0 L 100.0 180.0 L 100.0 180.0 L 100.0 180.0 L 100.0 179.0 L 100.0 179.0 L 100.0 179.0 L 100.0 179.0 L 100.0 179.0 L 100.0 179.0 L 100.0 179.0 L 101.0 179.0 L 101.0 179.0 L 102.0 179.0 L 102.0 179.0 L 103.0 179.0 L 104.0 179.0 L 105.0 179.0 L 105.0 179.0 L 106.0 179.0 L 107.0 179.0 L 108.0 179.0 L 108.0 179.0 L 109.0 179.0 L 110.0 179.0 L 111.0 179.0 L 112.0 179.0 L 114.0 179.0 L 115.0 179.0 L 117.0 179.0 L 118.0 179.0 L 120.0 179.0 L 121.0 179.0 L 123.0 179.0 L 124.0 179.0 L 125.0 179.0 L 126.0 179.0 L 128.0 179.0 L 129.0 179.0 L 131.0 179.0 L 133.0 179.0 L 134.0 179.0 L 136.0 179.0 L 138.0 179.0 L 139.0 179.0 L 141.0 179.0 L 143.0 179.0 L 144.0 179.0 L 146.0 179.0 L 148.0 179.0 L 149.0 179.0 L 151.0 179.0 L 153.0 178.0 L 155.0 178.0 L 156.0 178.0 L 158.0 178.0 L 160.0 178.0 L 161.0 177.0 L 163.0 177.0 L 165.0 177.0 L 166.0 177.0 L 168.0 178.0 L 170.0 178.0 L 172.0 178.0 L 175.0 179.0 L 177.0 179.0 L 180.0 179.0 L 182.0 179.0 L 184.0 180.0 L 186.0 180.0 L 188.0 180.0 L 189.0 180.0 L 190.0 180.0 L 191.0 180.0 L 191.0 180.0 L 192.0 181.0 L 192.0 181.0 L 192.0 182.0 L 192.0 182.0 L 192.0 183.0 L 191.0 184.0 L 190.0 186.0 L 189.0 188.0 L 189.0 189.0 L 187.0 192.0 L 187.0 194.0 L 186.0 196.0 L 185.0 198.0 L 184.0 201.0 L 184.0 202.0 L 183.0 204.0 L 183.0 205.0 " stroke="black" fill="none" stroke-width="5.0" stroke-linecap="round" stroke-linejoin="round" />
<path d="M 106.0 205.0 L 106.0 205.0 L 105.0 205.0 L 105.0 205.0 L 104.0 205.0 L 104.0 205.0 L 104.0 205.0 L 104.0 205.0 L 105.0 205.0 L 106.0 205.0 L 108.0 205.0 L 112.0 205.0 L 116.0 205.0 L 123.0 205.0 L 131.0 204.0 L 141.0 204.0 L 150.0 203.0 L 158.0 202.0 L 165.0 201.0 L 172.0 201.0 L 177.0 201.0 L 179.0 201.0 L 180.0 201.0 " stroke="black" fill="none" stroke-width="5.0" stroke-linecap="round" stroke-linejoin="round" />
<path d="M 141.0 157.0 L 141.0 157.0 L 140.0 158.0 L 140.0 159.0 L 140.0 160.0 L 139.0 162.0 L 139.0 165.0 L 139.0 168.0 L 140.0 174.0 L 140.0 180.0 L 140.0 188.0 L 140.0 195.0 L 139.0 202.0 L 138.0 208.0 L 137.0 214.0 L 136.0 219.0 L 136.0 223.0 L 136.0 226.0 L 135.0 227.0 " stroke="black" fill="none" stroke-width="5.0" stroke-linecap="round" stroke-linejoin="round" />
<path d="M 101.0 235.0 L 101.0 235.0 L 101.0 235.0 L 101.0 235.0 L 100.0 235.0 L 100.0 235.0 L 100.0 235.0 L 99.0 236.0 L 99.0 236.0 L 100.0 236.0 L 101.0 236.0 L 104.0 236.0 L 107.0 236.0 L 113.0 236.0 L 119.0 235.0 L 128.0 234.0 L 138.0 233.0 L 147.0 232.0 L 155.0 231.0 L 162.0 230.0 L 168.0 229.0 L 173.0 228.0 L 177.0 228.0 L 179.0 228.0 " stroke="black" fill="none" stroke-width="5.0" stroke-linecap="round" stroke-linejoin="round" />
<path d="M 172.0 209.0 L 172.0 209.0 L 172.0 209.0 L 172.0 209.0 L 171.0 209.0 L 171.0 209.0 L 171.0 210.0 L 172.0 211.0 L 174.0 213.0 L 177.0 216.0 L 180.0 219.0 L 184.0 223.0 L 187.0 227.0 L 189.0 231.0 L 191.0 234.0 L 192.0 236.0 " stroke="black" fill="none" stroke-width="5.0" stroke-linecap="round" stroke-linejoin="round" />
</svg>