<svg xmlns="http://www.w3.org/2000/svg" width="300" height="300" viewBox="0 0 300 300">
<path d="M 82.0 85.0 L 82.0 85.0 L 82.0 85.0 L 82.0 85.0 L 81.0 85.0 L 81.0 85.0 L 81.0 85.0 L 81.0 85.0 L 81.0 85.0 L 81.0 85.0 L 81.0 86.0 L 82.0 87.0 L 82.0 88.0 L 82.0 89.0 L 82.0 92.0 L 82.0 95.0 L 82.0 99.0 L 82.0 104.0 L 82.0 108.0 L 82.0 113.0 L 82.0 117.0 L 81.0 122.0 L 80.0 126.0 L 80.0 130.0 L 79.0 134.0 L 78.0 139.0 L 77.0 143.0 L 77.0 148.0 L 76.0 153.0 L 75.0 156.0 L 74.0 160.0 L 73.0 163.0 L 72.0 166.0 L 71.0 169.0 L 70.0 171.0 L 70.0 174.0 L 69.0 176.0 L 68.0 178.0 L 68.0 180.0 L 68.0 181.0 L 67.0 182.0 L 66.0 183.0 L 66.0 184.0 L 65.0 185.0 L 65.0 185.0 L 64.0 186.0 L 64.0 186.0 L 64.0 187.0 L 63.0 187.0 L 63.0 188.0 L 63.0 188.0 L 63.0 188.0 L 63.0 188.0 L 63.0 188.0 L 63.0 188.0 L 63.0 188.0 L 63.0 188.0 L 63.0 188.0 L 64.0 188.0 L 64.0 189.0 L 64.0 189.0 L 65.0 189.0 L 66.0 189.0 L 67.0 190.0 L 68.0 190.0 L 69.0 191.0 L 71.0 192.0 L 74.0 194.0 L 77.0 195.0 L 81.0 198.0 L 86.0 202.0 L 92.0 205.0 L 97.0 209.0 L 101.0 214.0 L 105.0 218.0 L 107.0 221.0 L 108.0 223.0 L 109.0 224.0 L 109.0 225.0 L 110.0 225.0 " stroke="black" fill="none" stroke-width="5.0" stroke-linecap="round" stroke-linejoin="round" />
<path d="M 107.0 104.0 L 107.0 104.0 L 107.0 104.0 L 107.0 104.0 L 107.0 104.0 L 107.0 104.0 L 107.0 104.0 L 107.0 105.0 L 107.0 106.0 L 107.0 108.0 L 108.0 110.0 L 108.0 114.0 L 108.0 119.0 L 108.0 124.0 L 108.0 131.0 L 108.0 139.0 L 107.0 146.0 L 107.0 154.0 L 105.0 161.0 L 105.0 168.0 L 103.0 174.0 L 102.0 181.0 L 100.0 188.0 L 98.0 196.0 L 95.0 204.0 L 92.0 211.0 L 88.0 218.0 L 83.0 226.0 L 78.0 233.0 L 74.0 239.0 L 71.0 245.0 L 68.0 248.0 L 66.0 251.0 L 66.0 251.0 " stroke="black" fill="none" stroke-width="5.0" stroke-linecap="round" stroke-linejoin="round" />
<path d="M 63.0 122.0 L 62.0 122.0 L 61.0 122.0 L 61.0 122.0 L 60.0 122.0 L 60.0 122.0 L 59.0 122.0 L 59.0 122.0 L 60.0 122.0 L 61.0 122.0 L 63.0 122.0 L 66.0 121.0 L 71.0 121.0 L 77.0 120.0 L 84.0 119.0 L 92.0 119.0 L 100.0 119.0 L 108.0 119.0 L 114.0 119.0 L 120.0 119.0 L 123.0 119.0 " stroke="black" fill="none" stroke-width="5.0" stroke-linecap="round" stroke-linejoin="round" />
<path d="M 142.0 86.0 L 142.0 86.0 L 142.0 86.0 L 142.0 85.0 L 142.0 85.0 L 142.0 85.0 L 142.0 85.0 L 142.0 84.0 L 142.0 84.0 L 143.0 84.0 L 144.0 84.0 L 145.0 84.0 L 146.0 84.0 L 148.0 84.0 L 150.0 83.0 L 152.0 83.0 L 154.0 83.0 L 156.0 83.0 L 159.0 83.0 L 162.0 82.0 L 165.0 82.0 L 168.0 82.0 L 171.0 82.0 L 174.0 82.0 L 177.0 82.0 L 180.0 82.0 L 182.0 82.0 L 184.0 82.0 L 187.0 82.0 L 189.0 82.0 L 191.0 82.0 L 192.0 82.0 L 194.0 82.0 L 195.0 82.0 L 196.0 82.0 L 197.0 82.0 L 198.0 82.0 L 200.0 82.0 L 201.0 82.0 L 202.0 81.0 L 204.0 81.0 L 206.0 81.0 L 207.0 80.0 L 209.0 80.0 L 212.0 80.0 L 214.0 80.0 L 216.0 80.0 L 218.0 80.0 L 221.0 80.0 L 222.0 80.0 L 225.0 80.0 L 226.0 80.0 L 227.0 79.0 L 229.0 79.0 L 230.0 79.0 L 230.0 79.0 L 231.0 79.0 L 231.0 79.0 L 232.0 79.0 L 232.0 79.0 L 232.0 79.0 L 232.0 79.0 L 232.0 79.0 L 232.0 79.0 L 232.0 80.0 L 232.0 81.0 L 232.0 82.0 L 232.0 84.0 L 232.0 86.0 L 231.0 89.0 L 231.0 93.0 L 230.0 99.0 L 229.0 104.0 L 228.0 109.0 L 227.0 113.0 L 227.0 116.0 L 226.0 118.0 L 225.0 118.0 L 225.0 118.0 " stroke="black" fill="none" stroke-width="5.0" stroke-linecap="round" stroke-linejoin="round" />
<path d="M 183.0 85.0 L 183.0 85.0 L 182.0 85.0 L 182.0 85.0 L 181.0 85.0 L 181.0 85.0 L 180.0 85.0 L 180.0 87.0 L 180.0 89.0 L 180.0 92.0 L 180.0 96.0 L 180.0 100.0 L 180.0 104.0 L 180.0 107.0 L 180.0 110.0 " stroke="black" fill="none" stroke-width="5.0" stroke-linecap="round" stroke-linejoin="round" />
<path d="M 148.0 120.0 L 148.0 120.0 L 148.0 120.0 L 147.0 120.0 L 147.0 120.0 L 146.0 120.0 L 146.0 120.0 L 146.0 120.0 L 146.0 120.0 L 146.0 120.0 L 146.0 120.0 L 146.0 120.0 L 146.0 120.0 L 146.0 120.0 L 146.0 120.0 L 146.0 120.0 L 146.0 120.0 L 147.0 120.0 L 148.0 120.0 L 150.0 120.0 L 153.0 120.0 L 156.0 120.0 L 161.0 120.0 L 169.0 119.0 L 178.0 118.0 L 187.0 117.0 L 196.0 116.0 L 202.0 115.0 L 207.0 114.0 L 212.0 113.0 L 216.0 113.0 L 219.0 113.0 L 221.0 113.0 L 222.0 113.0 " stroke="black" fill="none" stroke-width="5.0" stroke-linecap="round" stroke-linejoin="round" />
<path d="M 147.0 96.0 L 147.0 96.0 L 147.0 95.0 L 147.0 95.0 L 147.0 94.0 L 147.0 94.0 L 147.0 94.0 L 147.0 94.0 L 147.0 94.0 L 147.0 95.0 L 147.0 96.0 L 147.0 98.0 L 147.0 100.0 L 147.0 103.0 L 147.0 107.0 L 147.0 111.0 L 146.0 116.0 L 146.0 121.0 L 146.0 128.0 L 145.0 136.0 L 145.0 144.0 L 145.0 153.0 L 144.0 162.0 L 143.0 169.0 L 142.0 175.0 L 140.0 181.0 L 138.0 187.0 L 135.0 193.0 L 132.0 199.0 L 128.0 205.0 L 125.0 211.0 L 121.0 217.0 L 118.0 222.0 L 116.0 227.0 L 115.0 229.0 " stroke="black" fill="none" stroke-width="5.0" stroke-linecap="round" stroke-linejoin="round" />
<path d="M 160.0 155.0 L 160.0 155.0 L 160.0 155.0 L 159.0 154.0 L 159.0 154.0 L 159.0 154.0 L 159.0 154.0 L 159.0 155.0 L 159.0 157.0 L 159.0 160.0 L 160.0 164.0 L 160.0 170.0 L 161.0 178.0 L 162.0 189.0 L 162.0 201.0 L 161.0 214.0 L 160.0 227.0 L 159.0 238.0 L 158.0 246.0 L 158.0 252.0 L 158.0 255.0 L 158.0 255.0 " stroke="black" fill="none" stroke-width="5.0" stroke-linecap="round" stroke-linejoin="round" />
<path d="M 165.0 152.0 L 164.0 152.0 L 164.0 152.0 L 163.0 152.0 L 163.0 152.0 L 163.0 152.0 L 163.0 152.0 L 163.0 152.0 L 163.0 152.0 L 163.0 152.0 L 163.0 152.0 L 163.0 152.0 L 163.0 152.0 L 164.0 152.0 L 165.0 152.0 L 166.0 152.0 L 168.0 152.0 L 169.0 152.0 L 171.0 152.0 L 172.0 152.0 L 174.0 152.0 L 176.0 152.0 L 178.0 152.0 L 180.0 152.0 L 182.0 152.0 L 183.0 152.0 L 185.0 152.0 L 187.0 152.0 L 189.0 152.0 L 191.0 152.0 L 193.0 151.0 L 194.0 151.0 L 195.0 151.0 L 197.0 151.0 L 198.0 150.0 L 200.0 150.0 L 202.0 150.0 L 204.0 150.0 L 205.0 150.0 L 208.0 149.0 L 210.0 149.0 L 212.0 149.0 L 214.0 149.0 L 217.0 149.0 L 219.0 149.0 L 222.0 149.0 L 224.0 149.0 L 226.0 149.0 L 228.0 150.0 L 230.0 150.0 L 231.0 150.0 L 232.0 151.0 L 233.0 152.0 L 233.0 153.0 L 233.0 154.0 L 233.0 155.0 L 233.0 156.0 L 234.0 157.0 L 234.0 158.0 L 234.0 160.0 L 234.0 162.0 L 234.0 164.0 L 234.0 167.0 L 234.0 171.0 L 234.0 176.0 L 234.0 181.0 L 234.0 188.0 L 234.0 195.0 L 234.0 201.0 L 234.0 207.0 L 234.0 213.0 L 234.0 218.0 L 234.0 225.0 L 234.0 231.0 L 234.0 237.0 L 234.0 243.0 L 234.0 247.0 L 233.0 250.0 L 232.0 251.0 L 231.0 251.0 " stroke="black" fill="none" stroke-width="5.0" stroke-linecap="round" stroke-linejoin="round" />
<path d="M 174.0 182.0 L 173.0 182.0 L 172.0 182.0 L 171.0 182.0 L 170.0 182.0 L 170.0 182.0 L 170.0 182.0 L 171.0 182.0 L 174.0 182.0 L 178.0 182.0 L 183.0 182.0 L 188.0 181.0 L 194.0 181.0 L 200.0 180.0 L 206.0 180.0 L 213.0 180.0 L 218.0 180.0 L 223.0 180.0 L 224.0 181.0 " stroke="black" fill="none" stroke-width="5.0" stroke-linecap="round" stroke-linejoin="round" />
<path d="M 172.0 211.0 L 170.0 211.0 L 168.0 211.0 L 167.0 210.0 L 166.0 210.0 L 166.0 210.0 L 167.0 210.0 L 169.0 210.0 L 172.0 210.0 L 176.0 210.0 L 182.0 210.0 L 184.0 210.0 L 192.0 210.0 L 198.0 210.0 L 204.0 210.0 L 210.0 210.0 L 218.0 210.0 L 221.0 210.0 " stroke="black" fill="none" stroke-width="5.0" stroke-linecap="round" stroke-linejoin="round" />
<path d="M 167.0 255.0 L 167.0 255.0 L 165.0 255.0 L 163.0 255.0 L 162.0 255.0 L 161.0 255.0 L 161.0 255.0 L 162.0 255.0 L 165.0 255.0 L 169.0 255.0 L 175.0 255.0 L 182.0 255.0 L 189.0 254.0 L 196.0 253.0 L 202.0 252.0 L 210.0 251.0 L 217.0 251.0 L 223.0 251.0 L 229.0 251.0 L 231.0 251.0 " stroke="black" fill="none" stroke-width="5.0" stroke-linecap="round" stroke-linejoin="round" />
</svg>