<svg xmlns="http://www.w3.org/2000/svg" width="300" height="300" viewBox="0 0 300 300">
<path d="M 108.0 69.0 L 108.0 69.0 L 108.0 68.0 L 108.0 68.0 L 108.0 67.0 L 108.0 67.0 L 108.0 67.0 L 108.0 67.0 L 108.0 67.0 L 107.0 67.0 L 107.0 68.0 L 106.0 70.0 L 105.0 74.0 L 103.0 78.0 L 101.0 83.0 L 97.0 89.0 L 93.0 96.0 L 86.0 103.0 L 79.0 111.0 L 73.0 116.0 L 67.0 120.0 L 62.0 124.0 L 59.0 126.0 L 57.0 127.0 " stroke="black" fill="none" stroke-width="5.0" stroke-linecap="round" stroke-linejoin="round" />
<path d="M 106.0 84.0 L 106.0 84.0 L 105.0 84.0 L 105.0 84.0 L 105.0 84.0 L 105.0 84.0 L 105.0 85.0 L 105.0 85.0 L 108.0 87.0 L 111.0 89.0 L 116.0 91.0 L 122.0 93.0 L 130.0 95.0 L 137.0 98.0 L 143.0 100.0 L 148.0 103.0 L 152.0 107.0 L 152.0 109.0 " stroke="black" fill="none" stroke-width="5.0" stroke-linecap="round" stroke-linejoin="round" />
<path d="M 78.0 126.0 L 78.0 126.0 L 75.0 126.0 L 74.0 126.0 L 73.0 126.0 L 72.0 126.0 L 72.0 126.0 L 72.0 126.0 L 74.0 126.0 L 77.0 126.0 L 82.0 126.0 L 88.0 126.0 L 92.0 126.0 L 101.0 127.0 L 108.0 127.0 L 114.0 127.0 L 121.0 127.0 L 128.0 128.0 L 132.0 128.0 " stroke="black" fill="none" stroke-width="5.0" stroke-linecap="round" stroke-linejoin="round" />
<path d="M 69.0 167.0 L 68.0 167.0 L 67.0 167.0 L 65.0 167.0 L 65.0 167.0 L 65.0 167.0 L 65.0 167.0 L 65.0 167.0 L 68.0 167.0 L 71.0 167.0 L 77.0 167.0 L 83.0 167.0 L 91.0 167.0 L 98.0 167.0 L 105.0 167.0 L 112.0 166.0 L 118.0 165.0 L 125.0 164.0 L 132.0 162.0 L 135.0 161.0 " stroke="black" fill="none" stroke-width="5.0" stroke-linecap="round" stroke-linejoin="round" />
<path d="M 99.0 141.0 L 99.0 141.0 L 99.0 140.0 L 99.0 140.0 L 99.0 139.0 L 99.0 139.0 L 99.0 139.0 L 100.0 139.0 L 100.0 141.0 L 101.0 144.0 L 102.0 148.0 L 103.0 153.0 L 103.0 159.0 L 104.0 167.0 L 104.0 178.0 L 104.0 189.0 L 104.0 201.0 L 104.0 211.0 L 104.0 220.0 L 104.0 228.0 L 103.0 232.0 L 103.0 235.0 L 103.0 235.0 " stroke="black" fill="none" stroke-width="5.0" stroke-linecap="round" stroke-linejoin="round" />
<path d="M 68.0 194.0 L 67.0 194.0 L 66.0 194.0 L 64.0 194.0 L 64.0 194.0 L 63.0 194.0 L 63.0 194.0 L 64.0 194.0 L 65.0 195.0 L 68.0 197.0 L 71.0 198.0 L 76.0 200.0 L 82.0 201.0 L 90.0 202.0 L 93.0 203.0 " stroke="black" fill="none" stroke-width="5.0" stroke-linecap="round" stroke-linejoin="round" />
<path d="M 131.0 186.0 L 130.0 186.0 L 130.0 185.0 L 129.0 185.0 L 128.0 184.0 L 127.0 184.0 L 127.0 184.0 L 126.0 184.0 L 126.0 185.0 L 125.0 187.0 L 124.0 189.0 L 123.0 192.0 L 122.0 196.0 L 120.0 200.0 L 118.0 205.0 L 115.0 211.0 L 112.0 216.0 L 110.0 222.0 " stroke="black" fill="none" stroke-width="5.0" stroke-linecap="round" stroke-linejoin="round" />
<path d="M 73.0 247.0 L 72.0 247.0 L 72.0 247.0 L 71.0 247.0 L 71.0 247.0 L 71.0 247.0 L 73.0 247.0 L 76.0 246.0 L 82.0 244.0 L 90.0 241.0 L 99.0 237.0 L 110.0 231.0 L 122.0 223.0 L 136.0 214.0 " stroke="black" fill="none" stroke-width="5.0" stroke-linecap="round" stroke-linejoin="round" />
<path d="M 163.0 88.0 L 163.0 88.0 L 163.0 88.0 L 162.0 88.0 L 162.0 88.0 L 162.0 88.0 L 162.0 88.0 L 162.0 87.0 L 161.0 87.0 L 161.0 87.0 L 161.0 87.0 L 161.0 87.0 L 161.0 87.0 L 161.0 87.0 L 161.0 87.0 L 161.0 87.0 L 162.0 87.0 L 163.0 87.0 L 164.0 87.0 L 165.0 88.0 L 167.0 88.0 L 169.0 88.0 L 171.0 88.0 L 174.0 88.0 L 176.0 88.0 L 179.0 88.0 L 182.0 88.0 L 184.0 88.0 L 186.0 88.0 L 188.0 88.0 L 190.0 88.0 L 192.0 88.0 L 194.0 88.0 L 195.0 88.0 L 196.0 88.0 L 198.0 88.0 L 199.0 88.0 L 200.0 88.0 L 202.0 88.0 L 203.0 87.0 L 205.0 87.0 L 206.0 87.0 L 208.0 87.0 L 209.0 87.0 L 211.0 87.0 L 212.0 87.0 L 214.0 87.0 L 216.0 87.0 L 218.0 86.0 L 219.0 86.0 L 221.0 86.0 L 223.0 86.0 L 224.0 86.0 L 226.0 85.0 L 227.0 85.0 L 229.0 85.0 L 230.0 85.0 L 231.0 84.0 L 232.0 84.0 L 233.0 84.0 L 234.0 84.0 L 234.0 84.0 L 235.0 83.0 L 235.0 83.0 L 236.0 83.0 L 236.0 83.0 L 236.0 83.0 L 236.0 83.0 L 237.0 83.0 L 237.0 83.0 L 237.0 83.0 L 237.0 83.0 L 237.0 83.0 L 237.0 83.0 L 237.0 83.0 L 237.0 83.0 L 237.0 84.0 L 237.0 84.0 L 237.0 85.0 L 237.0 85.0 L 237.0 86.0 L 237.0 87.0 L 237.0 88.0 L 237.0 90.0 L 237.0 91.0 L 237.0 93.0 L 237.0 95.0 L 237.0 97.0 L 237.0 100.0 L 237.0 102.0 L 237.0 104.0 L 237.0 106.0 L 237.0 109.0 L 237.0 111.0 L 237.0 113.0 L 237.0 115.0 L 237.0 117.0 L 236.0 119.0 L 236.0 121.0 L 236.0 124.0 L 235.0 126.0 L 235.0 128.0 L 234.0 130.0 L 234.0 133.0 L 234.0 135.0 L 233.0 137.0 L 233.0 140.0 L 232.0 142.0 L 232.0 145.0 L 232.0 147.0 L 231.0 149.0 L 231.0 152.0 L 230.0 154.0 L 230.0 156.0 L 229.0 158.0 L 228.0 159.0 L 227.0 161.0 L 226.0 163.0 L 226.0 164.0 L 225.0 165.0 L 224.0 167.0 L 223.0 168.0 L 221.0 170.0 L 220.0 171.0 L 219.0 172.0 L 217.0 174.0 L 216.0 175.0 L 214.0 177.0 L 213.0 178.0 L 211.0 180.0 L 210.0 182.0 L 209.0 184.0 L 207.0 186.0 L 205.0 187.0 L 204.0 189.0 L 202.0 191.0 L 201.0 192.0 L 199.0 194.0 L 198.0 196.0 L 196.0 197.0 L 195.0 198.0 L 194.0 200.0 L 192.0 202.0 L 191.0 203.0 L 189.0 205.0 L 188.0 207.0 L 186.0 209.0 L 184.0 211.0 L 181.0 213.0 L 178.0 215.0 L 175.0 218.0 L 171.0 221.0 L 167.0 223.0 L 163.0 227.0 L 159.0 229.0 L 155.0 232.0 L 152.0 234.0 L 150.0 236.0 L 148.0 237.0 L 146.0 238.0 L 146.0 238.0 " stroke="black" fill="none" stroke-width="5.0" stroke-linecap="round" stroke-linejoin="round" />
<path d="M 166.0 83.0 L 166.0 83.0 L 166.0 83.0 L 166.0 83.0 L 166.0 83.0 L 166.0 83.0 L 166.0 83.0 L 166.0 83.0 L 166.0 83.0 L 165.0 83.0 L 165.0 83.0 L 165.0 84.0 L 165.0 85.0 L 164.0 87.0 L 164.0 89.0 L 164.0 92.0 L 164.0 95.0 L 164.0 99.0 L 164.0 103.0 L 164.0 107.0 L 164.0 110.0 L 164.0 114.0 L 164.0 117.0 L 164.0 120.0 L 165.0 122.0 L 165.0 125.0 L 166.0 127.0 L 166.0 129.0 L 167.0 131.0 L 168.0 133.0 L 168.0 135.0 L 169.0 137.0 L 170.0 139.0 L 171.0 141.0 L 171.0 144.0 L 171.0 146.0 L 172.0 148.0 L 172.0 150.0 L 173.0 153.0 L 173.0 155.0 L 174.0 157.0 L 174.0 159.0 L 175.0 161.0 L 176.0 163.0 L 176.0 165.0 L 177.0 167.0 L 178.0 168.0 L 178.0 170.0 L 179.0 172.0 L 180.0 174.0 L 181.0 176.0 L 182.0 178.0 L 182.0 180.0 L 184.0 183.0 L 185.0 186.0 L 186.0 189.0 L 187.0 192.0 L 189.0 195.0 L 190.0 198.0 L 191.0 201.0 L 193.0 203.0 L 194.0 206.0 L 195.0 208.0 L 196.0 211.0 L 198.0 214.0 L 200.0 216.0 L 202.0 219.0 L 205.0 222.0 L 207.0 225.0 L 210.0 228.0 L 213.0 231.0 L 216.0 233.0 L 219.0 236.0 L 222.0 238.0 L 225.0 240.0 L 227.0 242.0 L 229.0 243.0 L 231.0 244.0 L 232.0 244.0 " stroke="black" fill="none" stroke-width="5.0" stroke-linecap="round" stroke-linejoin="round" />
<path d="M 189.0 109.0 L 189.0 109.0 L 189.0 109.0 L 189.0 109.0 L 188.0 109.0 L 188.0 110.0 L 188.0 111.0 L 189.0 113.0 L 190.0 116.0 L 192.0 120.0 L 195.0 125.0 L 199.0 131.0 L 203.0 138.0 L 208.0 145.0 L 213.0 152.0 L 219.0 156.0 L 224.0 159.0 " stroke="black" fill="none" stroke-width="5.0" stroke-linecap="round" stroke-linejoin="round" />
</svg>