<svg xmlns="http://www.w3.org/2000/svg" width="300" height="300" viewBox="0 0 300 300">
<path d="M 129.0 94.0 L 129.0 94.0 L 129.0 94.0 L 128.0 94.0 L 128.0 95.0 L 127.0 95.0 L 127.0 95.0 L 127.0 95.0 L 126.0 95.0 L 126.0 95.0 L 127.0 95.0 L 128.0 95.0 L 131.0 95.0 L 134.0 95.0 L 138.0 95.0 L 142.0 95.0 L 146.0 95.0 L 150.0 95.0 L 153.0 95.0 L 157.0 95.0 L 161.0 95.0 L 165.0 95.0 L 169.0 95.0 L 173.0 95.0 L 178.0 94.0 L 182.0 94.0 L 187.0 93.0 L 191.0 93.0 L 194.0 93.0 L 197.0 93.0 L 199.0 93.0 L 201.0 93.0 L 204.0 93.0 L 206.0 93.0 L 209.0 93.0 L 213.0 93.0 L 216.0 93.0 L 219.0 93.0 L 222.0 93.0 L 225.0 93.0 L 227.0 93.0 L 228.0 93.0 L 229.0 93.0 L 230.0 93.0 L 230.0 94.0 L 230.0 94.0 " stroke="black" fill="none" stroke-width="5.0" stroke-linecap="round" stroke-linejoin="round" />
<path d="M 137.0 125.0 L 137.0 125.0 L 137.0 124.0 L 137.0 123.0 L 136.0 122.0 L 135.0 121.0 L 135.0 121.0 L 134.0 121.0 L 134.0 121.0 L 133.0 122.0 L 133.0 124.0 L 133.0 127.0 L 132.0 132.0 L 132.0 138.0 L 132.0 144.0 L 132.0 151.0 L 132.0 157.0 L 132.0 163.0 L 133.0 168.0 L 133.0 171.0 L 133.0 173.0 L 133.0 174.0 " stroke="black" fill="none" stroke-width="5.0" stroke-linecap="round" stroke-linejoin="round" />
<path d="M 139.0 123.0 L 139.0 123.0 L 139.0 123.0 L 139.0 123.0 L 138.0 123.0 L 138.0 123.0 L 137.0 122.0 L 137.0 122.0 L 137.0 122.0 L 136.0 122.0 L 136.0 122.0 L 136.0 121.0 L 136.0 121.0 L 136.0 121.0 L 137.0 121.0 L 138.0 121.0 L 140.0 120.0 L 141.0 120.0 L 142.0 120.0 L 144.0 120.0 L 146.0 119.0 L 147.0 119.0 L 149.0 119.0 L 152.0 119.0 L 154.0 118.0 L 157.0 118.0 L 161.0 118.0 L 164.0 118.0 L 168.0 118.0 L 172.0 118.0 L 176.0 118.0 L 179.0 118.0 L 182.0 118.0 L 185.0 118.0 L 187.0 118.0 L 190.0 118.0 L 191.0 118.0 L 193.0 118.0 L 194.0 118.0 L 196.0 118.0 L 197.0 118.0 L 198.0 118.0 L 200.0 118.0 L 201.0 118.0 L 203.0 118.0 L 205.0 118.0 L 206.0 118.0 L 208.0 118.0 L 209.0 118.0 L 211.0 118.0 L 212.0 118.0 L 213.0 118.0 L 213.0 118.0 L 214.0 119.0 L 215.0 119.0 L 215.0 120.0 L 216.0 121.0 L 216.0 123.0 L 216.0 124.0 L 217.0 127.0 L 217.0 130.0 L 217.0 133.0 L 217.0 137.0 L 217.0 142.0 L 217.0 147.0 L 216.0 152.0 L 216.0 156.0 L 215.0 160.0 L 214.0 164.0 L 213.0 166.0 L 212.0 168.0 L 212.0 169.0 L 211.0 170.0 L 211.0 170.0 L 209.0 169.0 L 208.0 167.0 L 206.0 165.0 " stroke="black" fill="none" stroke-width="5.0" stroke-linecap="round" stroke-linejoin="round" />
<path d="M 148.0 142.0 L 148.0 142.0 L 146.0 141.0 L 145.0 140.0 L 144.0 140.0 L 143.0 139.0 L 142.0 139.0 L 142.0 139.0 L 142.0 139.0 L 142.0 139.0 L 143.0 139.0 L 145.0 140.0 L 148.0 141.0 L 152.0 142.0 L 159.0 142.0 L 167.0 143.0 L 177.0 143.0 L 187.0 143.0 L 194.0 143.0 L 200.0 143.0 L 205.0 142.0 L 208.0 141.0 L 209.0 141.0 L 209.0 143.0 L 207.0 145.0 " stroke="black" fill="none" stroke-width="5.0" stroke-linecap="round" stroke-linejoin="round" />
<path d="M 148.0 175.0 L 146.0 176.0 L 144.0 177.0 L 142.0 177.0 L 140.0 177.0 L 139.0 177.0 L 139.0 177.0 L 139.0 177.0 L 139.0 177.0 L 140.0 177.0 L 142.0 176.0 L 145.0 175.0 L 148.0 175.0 L 153.0 175.0 L 159.0 174.0 L 166.0 174.0 L 173.0 173.0 L 182.0 172.0 L 189.0 172.0 L 195.0 171.0 L 201.0 170.0 L 205.0 169.0 L 209.0 168.0 L 212.0 168.0 L 213.0 168.0 " stroke="black" fill="none" stroke-width="5.0" stroke-linecap="round" stroke-linejoin="round" />
<path d="M 130.0 198.0 L 129.0 198.0 L 127.0 198.0 L 125.0 197.0 L 124.0 197.0 L 122.0 197.0 L 121.0 197.0 L 121.0 197.0 L 120.0 197.0 L 120.0 197.0 L 120.0 197.0 L 121.0 197.0 L 122.0 197.0 L 124.0 197.0 L 126.0 196.0 L 129.0 196.0 L 133.0 196.0 L 137.0 196.0 L 142.0 196.0 L 147.0 196.0 L 152.0 195.0 L 159.0 195.0 L 167.0 194.0 L 175.0 193.0 L 183.0 192.0 L 190.0 192.0 L 196.0 191.0 L 200.0 191.0 L 205.0 191.0 L 210.0 192.0 L 216.0 193.0 L 222.0 193.0 L 227.0 194.0 L 232.0 194.0 L 235.0 194.0 L 237.0 194.0 " stroke="black" fill="none" stroke-width="5.0" stroke-linecap="round" stroke-linejoin="round" />
<path d="M 179.0 77.0 L 179.0 77.0 L 179.0 76.0 L 179.0 75.0 L 179.0 74.0 L 179.0 73.0 L 179.0 73.0 L 179.0 72.0 L 179.0 72.0 L 179.0 72.0 L 178.0 72.0 L 177.0 73.0 L 177.0 75.0 L 176.0 77.0 L 176.0 80.0 L 176.0 84.0 L 176.0 89.0 L 176.0 96.0 L 177.0 105.0 L 178.0 114.0 L 179.0 125.0 L 181.0 137.0 L 182.0 149.0 L 183.0 160.0 L 184.0 171.0 L 184.0 182.0 L 185.0 194.0 L 185.0 203.0 L 185.0 212.0 L 185.0 221.0 L 185.0 228.0 L 185.0 235.0 L 185.0 240.0 L 185.0 243.0 L 184.0 245.0 L 184.0 246.0 L 184.0 246.0 " stroke="black" fill="none" stroke-width="5.0" stroke-linecap="round" stroke-linejoin="round" />
<path d="M 75.0 68.0 L 75.0 67.0 L 75.0 66.0 L 75.0 66.0 L 74.0 66.0 L 73.0 66.0 L 72.0 66.0 L 72.0 67.0 L 71.0 69.0 L 71.0 71.0 L 72.0 73.0 L 74.0 76.0 L 76.0 78.0 L 79.0 81.0 L 84.0 84.0 L 88.0 87.0 L 92.0 91.0 " stroke="black" fill="none" stroke-width="5.0" stroke-linecap="round" stroke-linejoin="round" />
<path d="M 67.0 120.0 L 67.0 120.0 L 67.0 120.0 L 66.0 120.0 L 66.0 120.0 L 65.0 119.0 L 64.0 119.0 L 64.0 119.0 L 64.0 119.0 L 64.0 119.0 L 64.0 119.0 L 64.0 119.0 L 66.0 119.0 L 68.0 119.0 L 71.0 119.0 L 75.0 120.0 L 80.0 121.0 L 85.0 122.0 L 89.0 123.0 L 93.0 125.0 L 95.0 126.0 L 96.0 127.0 L 96.0 128.0 L 96.0 129.0 L 95.0 130.0 L 93.0 132.0 L 90.0 133.0 L 88.0 135.0 L 84.0 137.0 L 82.0 140.0 L 78.0 143.0 L 75.0 146.0 L 73.0 148.0 L 70.0 151.0 L 68.0 154.0 L 67.0 155.0 L 66.0 157.0 L 65.0 158.0 L 65.0 159.0 L 64.0 159.0 L 64.0 159.0 L 64.0 160.0 L 64.0 160.0 L 64.0 160.0 L 65.0 160.0 L 66.0 160.0 L 67.0 160.0 L 68.0 160.0 L 70.0 160.0 L 73.0 160.0 L 76.0 160.0 L 79.0 160.0 L 82.0 160.0 L 85.0 161.0 L 89.0 161.0 L 92.0 162.0 L 94.0 162.0 L 96.0 163.0 L 98.0 164.0 L 99.0 164.0 L 100.0 165.0 L 101.0 166.0 L 101.0 167.0 L 101.0 167.0 L 101.0 168.0 L 101.0 170.0 L 101.0 171.0 L 101.0 172.0 L 101.0 174.0 L 101.0 176.0 L 100.0 179.0 L 100.0 183.0 L 99.0 187.0 L 98.0 191.0 L 96.0 195.0 L 95.0 199.0 L 93.0 204.0 L 91.0 208.0 L 89.0 212.0 L 85.0 216.0 L 82.0 221.0 L 78.0 226.0 L 74.0 232.0 L 70.0 236.0 L 67.0 240.0 L 64.0 244.0 L 62.0 247.0 L 60.0 249.0 L 59.0 251.0 L 58.0 252.0 L 58.0 252.0 " stroke="black" fill="none" stroke-width="5.0" stroke-linecap="round" stroke-linejoin="round" />
<path d="M 91.0 216.0 L 91.0 216.0 L 91.0 216.0 L 91.0 216.0 L 91.0 216.0 L 91.0 217.0 L 91.0 217.0 L 91.0 217.0 L 91.0 217.0 L 91.0 217.0 L 91.0 217.0 L 91.0 218.0 L 91.0 218.0 L 91.0 218.0 L 91.0 218.0 L 91.0 219.0 L 91.0 219.0 L 91.0 219.0 L 92.0 220.0 L 92.0 220.0 L 92.0 221.0 L 92.0 221.0 L 93.0 222.0 L 93.0 223.0 L 93.0 223.0 L 94.0 224.0 L 94.0 224.0 L 95.0 225.0 L 95.0 225.0 L 96.0 226.0 L 96.0 226.0 L 97.0 227.0 L 97.0 227.0 L 98.0 228.0 L 98.0 229.0 L 99.0 229.0 L 100.0 230.0 L 100.0 230.0 L 101.0 231.0 L 101.0 232.0 L 102.0 232.0 L 103.0 233.0 L 103.0 233.0 L 104.0 234.0 L 104.0 234.0 L 105.0 234.0 L 105.0 235.0 L 106.0 235.0 L 106.0 235.0 L 107.0 236.0 L 107.0 236.0 L 108.0 236.0 L 108.0 237.0 L 109.0 237.0 L 110.0 238.0 L 110.0 238.0 L 111.0 239.0 L 112.0 239.0 L 113.0 240.0 L 114.0 240.0 L 116.0 241.0 L 117.0 241.0 L 119.0 242.0 L 120.0 242.0 L 122.0 243.0 L 124.0 243.0 L 126.0 243.0 L 128.0 244.0 L 130.0 244.0 L 132.0 244.0 L 134.0 245.0 L 136.0 245.0 L 137.0 245.0 L 139.0 245.0 L 141.0 245.0 L 143.0 245.0 L 144.0 246.0 L 146.0 246.0 L 147.0 246.0 L 148.0 247.0 L 149.0 247.0 L 150.0 247.0 L 152.0 247.0 L 152.0 247.0 L 153.0 248.0 L 155.0 248.0 L 156.0 248.0 L 157.0 248.0 L 158.0 248.0 L 159.0 248.0 L 161.0 248.0 L 163.0 248.0 L 164.0 248.0 L 166.0 248.0 L 168.0 248.0 L 169.0 248.0 L 171.0 248.0 L 174.0 248.0 L 176.0 248.0 L 178.0 248.0 L 181.0 248.0 L 183.0 248.0 L 185.0 248.0 L 188.0 248.0 L 190.0 248.0 L 192.0 248.0 L 194.0 248.0 L 196.0 248.0 L 198.0 248.0 L 200.0 248.0 L 202.0 248.0 L 204.0 248.0 L 206.0 248.0 L 209.0 248.0 L 211.0 248.0 L 214.0 248.0 L 217.0 248.0 L 219.0 248.0 L 223.0 248.0 L 225.0 247.0 L 228.0 246.0 L 231.0 245.0 L 233.0 245.0 L 235.0 244.0 L 236.0 244.0 " stroke="black" fill="none" stroke-width="5.0" stroke-linecap="round" stroke-linejoin="round" />
</svg>