<svg xmlns="http://www.w3.org/2000/svg" width="300" height="300" viewBox="0 0 300 300">
<path d="M 69.0 79.0 L 69.0 79.0 L 69.0 79.0 L 69.0 78.0 L 70.0 78.0 L 70.0 78.0 L 70.0 78.0 L 70.0 78.0 L 70.0 78.0 L 70.0 78.0 L 70.0 78.0 L 70.0 78.0 L 70.0 79.0 L 70.0 79.0 L 70.0 80.0 L 70.0 80.0 L 70.0 81.0 L 70.0 81.0 L 70.0 82.0 L 70.0 83.0 L 70.0 84.0 L 70.0 85.0 L 70.0 86.0 L 70.0 88.0 L 70.0 89.0 L 70.0 91.0 L 70.0 93.0 L 70.0 95.0 L 70.0 98.0 L 70.0 100.0 L 70.0 102.0 L 70.0 104.0 L 70.0 107.0 L 70.0 108.0 L 70.0 110.0 L 70.0 112.0 L 70.0 113.0 L 70.0 115.0 L 70.0 116.0 L 70.0 118.0 L 70.0 119.0 L 70.0 121.0 L 70.0 122.0 L 70.0 123.0 L 70.0 125.0 L 70.0 126.0 L 70.0 127.0 L 70.0 128.0 L 70.0 129.0 L 70.0 130.0 L 70.0 131.0 L 70.0 132.0 L 70.0 133.0 L 70.0 134.0 L 70.0 135.0 L 69.0 136.0 L 69.0 138.0 L 69.0 139.0 L 69.0 140.0 L 69.0 141.0 L 69.0 143.0 L 69.0 144.0 L 69.0 145.0 L 69.0 147.0 L 69.0 148.0 L 69.0 149.0 L 69.0 150.0 L 69.0 151.0 L 69.0 152.0 L 69.0 153.0 L 69.0 154.0 L 69.0 155.0 L 69.0 156.0 L 69.0 156.0 L 69.0 157.0 L 69.0 158.0 L 69.0 158.0 L 69.0 159.0 L 69.0 160.0 L 69.0 160.0 L 69.0 161.0 L 69.0 161.0 L 69.0 162.0 L 69.0 163.0 L 69.0 163.0 L 69.0 164.0 L 69.0 165.0 L 69.0 166.0 L 69.0 166.0 L 69.0 167.0 L 69.0 168.0 L 69.0 168.0 L 69.0 169.0 L 69.0 170.0 L 69.0 171.0 L 69.0 172.0 L 69.0 172.0 L 69.0 173.0 L 69.0 174.0 L 69.0 175.0 L 69.0 176.0 L 69.0 177.0 L 69.0 178.0 L 69.0 178.0 L 69.0 179.0 L 69.0 180.0 L 69.0 181.0 L 69.0 182.0 L 69.0 183.0 L 69.0 184.0 L 68.0 185.0 L 68.0 186.0 L 68.0 187.0 L 68.0 188.0 L 68.0 189.0 L 68.0 190.0 L 68.0 191.0 L 68.0 192.0 L 68.0 193.0 L 68.0 194.0 L 68.0 195.0 L 68.0 196.0 L 68.0 196.0 L 68.0 197.0 L 68.0 198.0 L 68.0 199.0 L 68.0 200.0 L 68.0 201.0 L 68.0 202.0 L 68.0 203.0 L 68.0 204.0 L 68.0 205.0 L 68.0 206.0 L 68.0 207.0 L 68.0 208.0 L 68.0 209.0 L 68.0 210.0 L 68.0 211.0 L 68.0 212.0 L 68.0 213.0 L 68.0 214.0 L 68.0 215.0 L 68.0 216.0 L 68.0 218.0 L 68.0 219.0 L 68.0 220.0 L 68.0 221.0 L 68.0 222.0 L 68.0 223.0 L 68.0 225.0 L 68.0 226.0 L 68.0 227.0 L 68.0 229.0 L 68.0 230.0 L 68.0 232.0 L 68.0 233.0 L 68.0 234.0 L 68.0 235.0 L 68.0 237.0 L 68.0 238.0 L 68.0 239.0 L 68.0 240.0 L 68.0 241.0 L 68.0 241.0 L 68.0 242.0 L 69.0 243.0 L 69.0 244.0 L 69.0 244.0 L 69.0 245.0 L 69.0 245.0 L 69.0 246.0 L 69.0 246.0 " stroke="black" fill="none" stroke-width="5.0" stroke-linecap="round" stroke-linejoin="round" />
<path d="M 74.0 79.0 L 74.0 79.0 L 74.0 79.0 L 74.0 79.0 L 74.0 79.0 L 74.0 79.0 L 74.0 79.0 L 74.0 79.0 L 74.0 79.0 L 74.0 79.0 L 74.0 79.0 L 74.0 79.0 L 74.0 79.0 L 74.0 79.0 L 74.0 79.0 L 74.0 79.0 L 75.0 79.0 L 75.0 79.0 L 76.0 79.0 L 76.0 79.0 L 77.0 79.0 L 78.0 79.0 L 78.0 79.0 L 79.0 79.0 L 79.0 79.0 L 80.0 79.0 L 80.0 79.0 L 81.0 79.0 L 82.0 79.0 L 82.0 79.0 L 83.0 79.0 L 84.0 79.0 L 85.0 79.0 L 85.0 79.0 L 86.0 79.0 L 87.0 79.0 L 87.0 79.0 L 88.0 79.0 L 88.0 79.0 L 89.0 79.0 L 89.0 79.0 L 90.0 79.0 L 90.0 79.0 L 91.0 79.0 L 91.0 79.0 L 91.0 79.0 L 92.0 79.0 L 92.0 79.0 L 93.0 79.0 L 93.0 79.0 L 93.0 79.0 L 94.0 79.0 L 94.0 79.0 L 94.0 79.0 L 95.0 79.0 L 95.0 79.0 L 96.0 79.0 L 96.0 79.0 L 97.0 79.0 L 97.0 79.0 L 98.0 79.0 L 98.0 79.0 L 99.0 79.0 L 99.0 79.0 L 100.0 79.0 L 100.0 79.0 L 100.0 79.0 L 101.0 79.0 L 101.0 79.0 L 102.0 79.0 L 102.0 79.0 L 103.0 79.0 L 103.0 79.0 L 104.0 79.0 L 104.0 79.0 L 104.0 79.0 L 105.0 79.0 L 105.0 79.0 L 106.0 79.0 L 106.0 79.0 L 107.0 79.0 L 107.0 79.0 L 107.0 79.0 L 108.0 79.0 L 108.0 79.0 L 108.0 79.0 L 109.0 79.0 L 109.0 79.0 L 110.0 79.0 L 110.0 79.0 L 110.0 79.0 L 111.0 79.0 L 111.0 79.0 L 111.0 79.0 L 112.0 79.0 L 112.0 79.0 L 113.0 78.0 L 113.0 78.0 L 113.0 78.0 L 114.0 78.0 L 114.0 78.0 L 115.0 78.0 L 115.0 78.0 L 116.0 78.0 L 116.0 78.0 L 116.0 78.0 L 117.0 78.0 L 117.0 78.0 L 118.0 78.0 L 118.0 78.0 L 118.0 78.0 L 119.0 78.0 L 119.0 78.0 L 120.0 78.0 L 120.0 78.0 L 121.0 78.0 L 121.0 78.0 L 122.0 78.0 L 123.0 78.0 L 123.0 78.0 L 124.0 78.0 L 125.0 78.0 L 125.0 78.0 L 126.0 78.0 L 127.0 78.0 L 128.0 78.0 L 129.0 78.0 L 130.0 78.0 L 130.0 78.0 L 131.0 78.0 L 131.0 78.0 L 132.0 78.0 L 132.0 78.0 L 132.0 78.0 L 133.0 78.0 L 133.0 79.0 L 133.0 79.0 L 133.0 79.0 L 133.0 79.0 L 133.0 79.0 L 133.0 79.0 L 133.0 80.0 L 133.0 80.0 L 133.0 80.0 L 133.0 81.0 L 133.0 82.0 L 133.0 82.0 L 133.0 83.0 L 133.0 84.0 L 133.0 85.0 L 133.0 86.0 L 133.0 88.0 L 133.0 89.0 L 133.0 91.0 L 133.0 93.0 L 133.0 95.0 L 133.0 98.0 L 133.0 100.0 L 132.0 103.0 L 132.0 105.0 L 132.0 108.0 L 132.0 110.0 L 132.0 112.0 L 132.0 115.0 L 132.0 116.0 L 132.0 118.0 L 132.0 120.0 L 132.0 121.0 L 132.0 122.0 L 132.0 124.0 L 132.0 125.0 L 132.0 126.0 L 132.0 128.0 L 132.0 129.0 L 132.0 130.0 L 132.0 131.0 L 132.0 133.0 L 132.0 134.0 L 132.0 135.0 L 132.0 136.0 L 132.0 137.0 L 132.0 138.0 L 132.0 139.0 L 132.0 139.0 L 132.0 139.0 L 132.0 139.0 L 132.0 139.0 L 132.0 139.0 L 131.0 138.0 L 131.0 137.0 " stroke="black" fill="none" stroke-width="5.0" stroke-linecap="round" stroke-linejoin="round" />
<path d="M 73.0 105.0 L 73.0 105.0 L 73.0 105.0 L 72.0 105.0 L 72.0 105.0 L 72.0 105.0 L 72.0 105.0 L 72.0 105.0 L 73.0 105.0 L 74.0 105.0 L 77.0 105.0 L 80.0 105.0 L 84.0 105.0 L 87.0 106.0 L 92.0 106.0 L 97.0 106.0 L 101.0 106.0 L 106.0 106.0 L 109.0 106.0 L 112.0 106.0 L 116.0 105.0 L 119.0 104.0 L 121.0 103.0 L 124.0 102.0 L 125.0 102.0 L 126.0 102.0 " stroke="black" fill="none" stroke-width="5.0" stroke-linecap="round" stroke-linejoin="round" />
<path d="M 78.0 130.0 L 78.0 130.0 L 78.0 130.0 L 78.0 130.0 L 78.0 130.0 L 78.0 130.0 L 78.0 130.0 L 78.0 130.0 L 78.0 130.0 L 78.0 130.0 L 78.0 130.0 L 79.0 130.0 L 81.0 130.0 L 83.0 130.0 L 86.0 130.0 L 90.0 130.0 L 94.0 130.0 L 99.0 130.0 L 103.0 130.0 L 107.0 130.0 L 110.0 130.0 L 113.0 129.0 L 115.0 129.0 L 117.0 128.0 L 120.0 128.0 L 121.0 128.0 L 122.0 128.0 L 124.0 128.0 L 125.0 128.0 L 125.0 128.0 L 126.0 128.0 L 127.0 128.0 " stroke="black" fill="none" stroke-width="5.0" stroke-linecap="round" stroke-linejoin="round" />
<path d="M 165.0 81.0 L 165.0 81.0 L 165.0 81.0 L 164.0 81.0 L 164.0 81.0 L 164.0 81.0 L 164.0 82.0 L 164.0 82.0 L 164.0 83.0 L 164.0 85.0 L 164.0 87.0 L 164.0 91.0 L 164.0 96.0 L 164.0 101.0 L 165.0 107.0 L 165.0 113.0 L 165.0 118.0 L 165.0 122.0 L 165.0 125.0 L 165.0 128.0 L 165.0 130.0 L 166.0 131.0 L 166.0 131.0 L 166.0 131.0 " stroke="black" fill="none" stroke-width="5.0" stroke-linecap="round" stroke-linejoin="round" />
<path d="M 169.0 79.0 L 169.0 79.0 L 168.0 79.0 L 168.0 79.0 L 167.0 79.0 L 167.0 79.0 L 167.0 79.0 L 167.0 79.0 L 166.0 79.0 L 166.0 79.0 L 166.0 79.0 L 166.0 79.0 L 166.0 79.0 L 167.0 79.0 L 167.0 79.0 L 168.0 79.0 L 168.0 79.0 L 169.0 79.0 L 169.0 79.0 L 170.0 79.0 L 171.0 79.0 L 172.0 79.0 L 173.0 79.0 L 174.0 79.0 L 175.0 79.0 L 177.0 79.0 L 178.0 79.0 L 179.0 79.0 L 180.0 79.0 L 181.0 79.0 L 182.0 79.0 L 184.0 79.0 L 185.0 79.0 L 186.0 79.0 L 187.0 79.0 L 188.0 79.0 L 188.0 79.0 L 189.0 79.0 L 190.0 79.0 L 191.0 79.0 L 191.0 79.0 L 192.0 79.0 L 193.0 79.0 L 193.0 78.0 L 194.0 78.0 L 194.0 78.0 L 195.0 78.0 L 196.0 78.0 L 196.0 78.0 L 197.0 78.0 L 197.0 78.0 L 198.0 78.0 L 198.0 78.0 L 199.0 78.0 L 199.0 78.0 L 200.0 78.0 L 200.0 78.0 L 201.0 78.0 L 202.0 78.0 L 202.0 78.0 L 203.0 78.0 L 204.0 78.0 L 205.0 78.0 L 205.0 78.0 L 206.0 78.0 L 207.0 78.0 L 208.0 78.0 L 209.0 78.0 L 211.0 78.0 L 212.0 78.0 L 213.0 78.0 L 214.0 78.0 L 216.0 78.0 L 217.0 78.0 L 219.0 78.0 L 220.0 78.0 L 221.0 78.0 L 222.0 78.0 L 223.0 78.0 L 224.0 78.0 L 225.0 79.0 L 226.0 79.0 L 227.0 79.0 L 228.0 79.0 L 229.0 79.0 L 230.0 79.0 L 231.0 79.0 L 231.0 79.0 L 232.0 79.0 L 232.0 79.0 L 233.0 79.0 L 233.0 79.0 L 234.0 79.0 L 234.0 79.0 L 234.0 79.0 L 234.0 79.0 L 235.0 80.0 L 235.0 80.0 L 235.0 80.0 L 235.0 81.0 L 235.0 81.0 L 235.0 82.0 L 235.0 83.0 L 235.0 84.0 L 235.0 85.0 L 235.0 86.0 L 235.0 87.0 L 235.0 89.0 L 234.0 91.0 L 234.0 93.0 L 234.0 95.0 L 234.0 97.0 L 233.0 99.0 L 233.0 102.0 L 233.0 105.0 L 233.0 107.0 L 233.0 110.0 L 233.0 113.0 L 233.0 115.0 L 233.0 118.0 L 232.0 121.0 L 232.0 123.0 L 232.0 126.0 L 232.0 128.0 L 232.0 130.0 L 232.0 132.0 L 232.0 134.0 L 232.0 137.0 L 232.0 139.0 L 232.0 142.0 L 232.0 144.0 L 232.0 147.0 L 232.0 150.0 L 232.0 152.0 L 231.0 154.0 L 231.0 156.0 L 231.0 158.0 L 231.0 160.0 L 231.0 162.0 L 230.0 164.0 L 230.0 166.0 L 230.0 167.0 L 230.0 169.0 L 230.0 171.0 L 230.0 173.0 L 230.0 175.0 L 230.0 177.0 L 230.0 180.0 L 230.0 182.0 L 230.0 185.0 L 230.0 187.0 L 230.0 190.0 L 230.0 192.0 L 230.0 194.0 L 230.0 196.0 L 230.0 198.0 L 230.0 200.0 L 230.0 202.0 L 230.0 204.0 L 230.0 206.0 L 230.0 207.0 L 230.0 209.0 L 230.0 211.0 L 230.0 213.0 L 230.0 214.0 L 230.0 216.0 L 230.0 217.0 L 229.0 218.0 L 229.0 219.0 L 229.0 221.0 L 229.0 222.0 L 229.0 223.0 L 229.0 224.0 L 229.0 226.0 L 228.0 227.0 L 228.0 229.0 L 228.0 230.0 L 228.0 231.0 L 228.0 233.0 L 228.0 234.0 L 228.0 235.0 L 228.0 237.0 L 228.0 238.0 L 228.0 240.0 L 228.0 241.0 L 228.0 242.0 L 228.0 244.0 L 228.0 245.0 L 228.0 246.0 L 228.0 247.0 L 228.0 248.0 L 228.0 249.0 L 228.0 250.0 L 228.0 252.0 L 228.0 253.0 L 228.0 254.0 L 228.0 254.0 L 228.0 255.0 L 228.0 256.0 L 228.0 256.0 L 228.0 256.0 L 228.0 256.0 L 228.0 256.0 L 228.0 256.0 L 228.0 256.0 L 227.0 256.0 L 226.0 255.0 L 225.0 255.0 L 224.0 254.0 L 223.0 253.0 L 221.0 252.0 L 219.0 251.0 L 216.0 249.0 L 213.0 248.0 L 210.0 246.0 L 207.0 244.0 L 204.0 242.0 L 201.0 240.0 " stroke="black" fill="none" stroke-width="5.0" stroke-linecap="round" stroke-linejoin="round" />
<path d="M 174.0 106.0 L 174.0 106.0 L 174.0 106.0 L 174.0 106.0 L 173.0 106.0 L 173.0 106.0 L 173.0 106.0 L 173.0 106.0 L 173.0 106.0 L 173.0 106.0 L 173.0 106.0 L 173.0 106.0 L 173.0 106.0 L 173.0 106.0 L 173.0 106.0 L 174.0 107.0 L 176.0 107.0 L 177.0 107.0 L 179.0 108.0 L 180.0 108.0 L 183.0 108.0 L 185.0 109.0 L 188.0 109.0 L 191.0 109.0 L 194.0 109.0 L 198.0 109.0 L 201.0 109.0 L 206.0 109.0 L 210.0 108.0 L 214.0 108.0 L 218.0 107.0 L 222.0 107.0 L 224.0 107.0 L 226.0 107.0 L 227.0 107.0 L 227.0 107.0 L 228.0 108.0 " stroke="black" fill="none" stroke-width="5.0" stroke-linecap="round" stroke-linejoin="round" />
<path d="M 172.0 131.0 L 172.0 131.0 L 171.0 131.0 L 171.0 131.0 L 171.0 131.0 L 170.0 131.0 L 170.0 132.0 L 170.0 132.0 L 170.0 132.0 L 171.0 132.0 L 172.0 132.0 L 175.0 132.0 L 178.0 132.0 L 182.0 132.0 L 187.0 132.0 L 191.0 132.0 L 197.0 132.0 L 202.0 131.0 L 208.0 130.0 L 213.0 129.0 L 218.0 128.0 L 221.0 128.0 L 224.0 128.0 L 225.0 128.0 L 225.0 128.0 " stroke="black" fill="none" stroke-width="5.0" stroke-linecap="round" stroke-linejoin="round" />
<path d="M 100.0 157.0 L 100.0 157.0 L 100.0 157.0 L 100.0 157.0 L 99.0 157.0 L 99.0 157.0 L 99.0 157.0 L 99.0 157.0 L 99.0 157.0 L 99.0 157.0 L 99.0 157.0 L 99.0 157.0 L 99.0 157.0 L 99.0 157.0 L 99.0 157.0 L 99.0 157.0 L 99.0 157.0 L 99.0 157.0 L 99.0 157.0 L 99.0 157.0 L 99.0 157.0 L 100.0 157.0 L 100.0 157.0 L 101.0 157.0 L 101.0 157.0 L 102.0 157.0 L 102.0 157.0 L 103.0 157.0 L 103.0 157.0 L 103.0 157.0 L 104.0 157.0 L 104.0 157.0 L 104.0 157.0 L 105.0 157.0 L 105.0 157.0 L 106.0 157.0 L 106.0 157.0 L 106.0 157.0 L 107.0 157.0 L 107.0 157.0 L 107.0 157.0 L 108.0 157.0 L 108.0 157.0 L 108.0 157.0 L 109.0 157.0 L 109.0 157.0 L 109.0 157.0 L 110.0 157.0 L 110.0 157.0 L 110.0 157.0 L 111.0 157.0 L 111.0 157.0 L 112.0 157.0 L 112.0 157.0 L 113.0 157.0 L 113.0 157.0 L 114.0 157.0 L 114.0 157.0 L 115.0 158.0 L 116.0 158.0 L 117.0 158.0 L 118.0 158.0 L 118.0 158.0 L 119.0 158.0 L 120.0 158.0 L 121.0 158.0 L 123.0 158.0 L 124.0 158.0 L 125.0 158.0 L 126.0 158.0 L 128.0 158.0 L 129.0 158.0 L 130.0 158.0 L 132.0 158.0 L 133.0 158.0 L 134.0 158.0 L 136.0 158.0 L 137.0 158.0 L 138.0 158.0 L 139.0 158.0 L 141.0 158.0 L 142.0 158.0 L 143.0 158.0 L 144.0 158.0 L 145.0 158.0 L 146.0 158.0 L 147.0 158.0 L 148.0 158.0 L 149.0 158.0 L 150.0 158.0 L 150.0 158.0 L 151.0 158.0 L 152.0 158.0 L 152.0 158.0 L 153.0 158.0 L 153.0 158.0 L 154.0 158.0 L 155.0 158.0 L 155.0 158.0 L 156.0 158.0 L 157.0 158.0 L 158.0 158.0 L 159.0 158.0 L 160.0 158.0 L 161.0 158.0 L 162.0 158.0 L 163.0 158.0 L 164.0 158.0 L 166.0 158.0 L 167.0 158.0 L 168.0 158.0 L 169.0 158.0 L 171.0 158.0 L 172.0 158.0 L 174.0 158.0 L 175.0 158.0 L 177.0 158.0 L 179.0 158.0 L 181.0 158.0 L 183.0 158.0 L 185.0 158.0 L 187.0 158.0 L 189.0 158.0 L 191.0 158.0 L 193.0 158.0 L 194.0 158.0 L 196.0 158.0 L 197.0 158.0 L 198.0 158.0 L 199.0 158.0 L 199.0 158.0 L 199.0 158.0 L 200.0 158.0 L 200.0 158.0 L 200.0 159.0 " stroke="black" fill="none" stroke-width="5.0" stroke-linecap="round" stroke-linejoin="round" />
<path d="M 120.0 165.0 L 120.0 165.0 L 120.0 165.0 L 120.0 166.0 L 120.0 167.0 L 120.0 168.0 L 120.0 170.0 L 120.0 173.0 L 120.0 177.0 L 120.0 182.0 L 120.0 188.0 L 120.0 194.0 L 120.0 200.0 L 120.0 207.0 L 119.0 211.0 L 119.0 215.0 L 119.0 219.0 L 120.0 220.0 " stroke="black" fill="none" stroke-width="5.0" stroke-linecap="round" stroke-linejoin="round" />
<path d="M 183.0 159.0 L 183.0 159.0 L 183.0 159.0 L 183.0 159.0 L 183.0 159.0 L 182.0 160.0 L 182.0 160.0 L 182.0 161.0 L 182.0 161.0 L 182.0 162.0 L 182.0 162.0 L 182.0 163.0 L 182.0 165.0 L 182.0 166.0 L 182.0 169.0 L 182.0 171.0 L 182.0 175.0 L 182.0 179.0 L 183.0 184.0 L 183.0 189.0 L 183.0 193.0 L 183.0 198.0 L 183.0 203.0 L 183.0 207.0 L 183.0 211.0 L 183.0 215.0 L 183.0 219.0 L 182.0 223.0 L 182.0 228.0 L 182.0 232.0 L 182.0 236.0 L 182.0 240.0 L 182.0 243.0 L 182.0 246.0 L 182.0 248.0 L 182.0 250.0 L 182.0 250.0 L 182.0 251.0 L 181.0 251.0 L 180.0 251.0 " stroke="black" fill="none" stroke-width="5.0" stroke-linecap="round" stroke-linejoin="round" />
<path d="M 135.0 178.0 L 135.0 178.0 L 134.0 178.0 L 133.0 178.0 L 132.0 177.0 L 132.0 177.0 L 131.0 177.0 L 130.0 177.0 L 130.0 177.0 L 130.0 177.0 L 130.0 177.0 L 130.0 178.0 L 130.0 178.0 L 131.0 178.0 L 132.0 179.0 L 134.0 179.0 L 137.0 180.0 L 140.0 180.0 L 143.0 180.0 L 146.0 180.0 L 149.0 180.0 L 153.0 180.0 L 157.0 180.0 L 162.0 180.0 L 167.0 180.0 L 171.0 179.0 L 176.0 179.0 L 179.0 179.0 L 181.0 179.0 L 183.0 180.0 L 184.0 181.0 L 185.0 182.0 L 186.0 183.0 " stroke="black" fill="none" stroke-width="5.0" stroke-linecap="round" stroke-linejoin="round" />
<path d="M 135.0 198.0 L 135.0 198.0 L 133.0 198.0 L 132.0 198.0 L 131.0 198.0 L 130.0 198.0 L 129.0 198.0 L 129.0 198.0 L 129.0 198.0 L 129.0 198.0 L 130.0 198.0 L 133.0 198.0 L 136.0 198.0 L 139.0 198.0 L 143.0 199.0 L 148.0 199.0 L 152.0 199.0 L 156.0 199.0 L 162.0 199.0 L 168.0 198.0 L 174.0 198.0 " stroke="black" fill="none" stroke-width="5.0" stroke-linecap="round" stroke-linejoin="round" />
<path d="M 99.0 220.0 L 99.0 220.0 L 99.0 220.0 L 99.0 220.0 L 99.0 220.0 L 99.0 220.0 L 99.0 220.0 L 99.0 220.0 L 99.0 220.0 L 99.0 220.0 L 99.0 220.0 L 99.0 220.0 L 99.0 220.0 L 99.0 221.0 L 99.0 221.0 L 100.0 221.0 L 101.0 221.0 L 101.0 221.0 L 102.0 221.0 L 103.0 221.0 L 105.0 221.0 L 106.0 221.0 L 107.0 222.0 L 108.0 222.0 L 109.0 222.0 L 110.0 222.0 L 112.0 222.0 L 113.0 222.0 L 114.0 222.0 L 116.0 222.0 L 117.0 222.0 L 118.0 222.0 L 119.0 222.0 L 120.0 222.0 L 122.0 222.0 L 123.0 222.0 L 124.0 222.0 L 125.0 222.0 L 126.0 222.0 L 128.0 222.0 L 129.0 222.0 L 131.0 222.0 L 132.0 222.0 L 133.0 222.0 L 135.0 222.0 L 136.0 223.0 L 138.0 223.0 L 139.0 223.0 L 140.0 223.0 L 141.0 223.0 L 143.0 224.0 L 144.0 224.0 L 145.0 224.0 L 146.0 224.0 L 147.0 224.0 L 148.0 225.0 L 149.0 225.0 L 151.0 225.0 L 152.0 225.0 L 152.0 225.0 L 154.0 225.0 L 155.0 225.0 L 156.0 225.0 L 157.0 224.0 L 159.0 224.0 L 160.0 224.0 L 162.0 223.0 L 164.0 223.0 L 166.0 223.0 L 169.0 222.0 L 171.0 222.0 L 174.0 222.0 L 177.0 221.0 L 180.0 221.0 L 183.0 221.0 L 185.0 221.0 L 187.0 221.0 L 189.0 221.0 L 191.0 221.0 L 193.0 221.0 L 194.0 221.0 L 195.0 221.0 L 196.0 221.0 L 196.0 221.0 L 196.0 221.0 L 197.0 221.0 L 197.0 221.0 L 197.0 221.0 L 197.0 221.0 L 198.0 221.0 L 198.0 221.0 L 198.0 221.0 " stroke="black" fill="none" stroke-width="5.0" stroke-linecap="round" stroke-linejoin="round" />
</svg>