<svg xmlns="http://www.w3.org/2000/svg" width="300" height="300" viewBox="0 0 300 300">
<path d="M 87.0 82.0 L 87.0 82.0 L 86.0 82.0 L 85.0 82.0 L 85.0 82.0 L 84.0 82.0 L 84.0 82.0 L 84.0 82.0 L 84.0 82.0 L 84.0 82.0 L 84.0 82.0 L 84.0 82.0 L 84.0 82.0 L 85.0 82.0 L 85.0 82.0 L 86.0 82.0 L 87.0 82.0 L 88.0 82.0 L 89.0 82.0 L 89.0 82.0 L 90.0 82.0 L 91.0 82.0 L 92.0 82.0 L 93.0 82.0 L 94.0 82.0 L 95.0 82.0 L 96.0 82.0 L 98.0 82.0 L 99.0 82.0 L 100.0 82.0 L 101.0 82.0 L 102.0 82.0 L 103.0 82.0 L 104.0 81.0 L 106.0 81.0 L 107.0 81.0 L 108.0 80.0 L 109.0 80.0 L 110.0 80.0 L 111.0 80.0 L 111.0 80.0 L 112.0 80.0 L 113.0 80.0 L 113.0 80.0 L 114.0 80.0 L 114.0 80.0 L 115.0 80.0 L 115.0 80.0 L 116.0 80.0 L 116.0 80.0 L 117.0 80.0 L 117.0 80.0 L 118.0 80.0 L 118.0 80.0 L 119.0 80.0 L 119.0 80.0 L 120.0 80.0 L 120.0 80.0 L 121.0 80.0 L 121.0 80.0 L 122.0 80.0 L 123.0 80.0 L 123.0 80.0 L 124.0 81.0 L 124.0 81.0 L 125.0 81.0 L 125.0 81.0 L 126.0 81.0 L 127.0 81.0 L 127.0 81.0 L 128.0 81.0 L 129.0 81.0 L 130.0 81.0 L 130.0 81.0 L 131.0 81.0 L 132.0 81.0 L 133.0 81.0 L 134.0 81.0 L 135.0 81.0 L 135.0 81.0 L 136.0 81.0 L 137.0 81.0 L 137.0 81.0 L 138.0 81.0 L 139.0 81.0 L 139.0 80.0 L 140.0 80.0 L 141.0 80.0 L 141.0 80.0 L 142.0 80.0 L 143.0 80.0 L 143.0 80.0 L 144.0 80.0 L 144.0 80.0 L 144.0 80.0 L 145.0 80.0 L 145.0 80.0 L 146.0 80.0 L 146.0 80.0 L 146.0 80.0 L 147.0 80.0 L 148.0 80.0 L 148.0 80.0 L 148.0 80.0 L 149.0 80.0 L 149.0 80.0 L 150.0 80.0 L 150.0 80.0 L 151.0 80.0 L 151.0 80.0 L 152.0 80.0 L 152.0 80.0 L 152.0 80.0 L 153.0 80.0 L 153.0 80.0 L 154.0 80.0 L 154.0 80.0 L 155.0 80.0 L 155.0 80.0 L 156.0 80.0 L 156.0 80.0 L 157.0 80.0 L 157.0 80.0 L 158.0 80.0 L 158.0 80.0 L 159.0 80.0 L 160.0 80.0 L 161.0 80.0 L 162.0 80.0 L 162.0 80.0 L 163.0 80.0 L 164.0 80.0 L 165.0 80.0 L 166.0 80.0 L 167.0 80.0 L 168.0 80.0 L 169.0 79.0 L 170.0 79.0 L 171.0 79.0 L 172.0 79.0 L 172.0 79.0 L 173.0 79.0 L 174.0 79.0 L 175.0 79.0 L 175.0 79.0 L 176.0 79.0 L 177.0 79.0 L 177.0 79.0 L 178.0 79.0 L 178.0 79.0 L 179.0 79.0 L 179.0 79.0 L 180.0 79.0 L 181.0 79.0 L 181.0 79.0 L 182.0 78.0 L 182.0 78.0 L 183.0 78.0 L 184.0 78.0 L 184.0 78.0 L 185.0 78.0 L 185.0 78.0 L 186.0 78.0 L 186.0 78.0 L 187.0 78.0 L 187.0 78.0 L 188.0 78.0 L 188.0 78.0 L 189.0 78.0 L 189.0 78.0 L 189.0 78.0 L 190.0 78.0 L 190.0 78.0 L 191.0 78.0 L 191.0 78.0 L 191.0 78.0 L 191.0 78.0 L 192.0 78.0 L 192.0 78.0 L 193.0 78.0 L 193.0 78.0 L 193.0 78.0 L 193.0 78.0 L 194.0 78.0 L 194.0 78.0 L 194.0 78.0 L 195.0 78.0 L 195.0 78.0 L 195.0 78.0 L 196.0 78.0 L 196.0 79.0 L 196.0 79.0 L 197.0 79.0 L 197.0 79.0 L 197.0 79.0 L 198.0 79.0 L 198.0 79.0 L 198.0 79.0 L 199.0 79.0 L 199.0 79.0 L 200.0 79.0 L 200.0 80.0 L 200.0 80.0 L 201.0 80.0 L 201.0 80.0 L 202.0 80.0 L 202.0 80.0 L 203.0 80.0 L 203.0 80.0 L 204.0 80.0 L 204.0 80.0 L 205.0 80.0 L 205.0 80.0 L 206.0 81.0 L 206.0 81.0 L 207.0 81.0 L 207.0 81.0 L 208.0 81.0 L 208.0 81.0 L 208.0 81.0 L 209.0 81.0 L 209.0 81.0 L 209.0 81.0 L 210.0 81.0 L 210.0 82.0 L 210.0 82.0 L 211.0 82.0 L 211.0 82.0 L 211.0 82.0 L 211.0 83.0 L 211.0 83.0 L 211.0 83.0 L 211.0 84.0 L 211.0 85.0 L 211.0 85.0 L 211.0 86.0 L 211.0 87.0 L 211.0 89.0 L 211.0 90.0 L 211.0 92.0 L 211.0 94.0 L 211.0 97.0 L 211.0 100.0 L 211.0 102.0 L 212.0 105.0 L 212.0 108.0 L 212.0 110.0 L 212.0 112.0 L 212.0 115.0 L 213.0 116.0 L 213.0 118.0 L 213.0 120.0 L 213.0 122.0 L 213.0 123.0 L 213.0 125.0 L 213.0 126.0 L 213.0 128.0 L 213.0 130.0 L 213.0 131.0 L 213.0 133.0 L 213.0 134.0 L 213.0 135.0 L 213.0 136.0 L 212.0 136.0 L 212.0 136.0 L 212.0 136.0 L 212.0 134.0 L 212.0 131.0 " stroke="black" fill="none" stroke-width="5.0" stroke-linecap="round" stroke-linejoin="round" />
<path d="M 61.0 108.0 L 61.0 108.0 L 61.0 108.0 L 60.0 108.0 L 60.0 108.0 L 60.0 108.0 L 59.0 108.0 L 59.0 108.0 L 59.0 108.0 L 59.0 108.0 L 59.0 108.0 L 59.0 108.0 L 59.0 108.0 L 59.0 108.0 L 59.0 108.0 L 59.0 108.0 L 60.0 108.0 L 60.0 108.0 L 61.0 108.0 L 62.0 108.0 L 62.0 108.0 L 63.0 108.0 L 65.0 108.0 L 66.0 108.0 L 67.0 108.0 L 68.0 108.0 L 70.0 108.0 L 71.0 108.0 L 72.0 108.0 L 73.0 108.0 L 75.0 108.0 L 76.0 108.0 L 77.0 108.0 L 79.0 108.0 L 80.0 108.0 L 82.0 108.0 L 83.0 108.0 L 84.0 108.0 L 86.0 108.0 L 87.0 109.0 L 89.0 109.0 L 90.0 109.0 L 91.0 109.0 L 92.0 109.0 L 93.0 109.0 L 94.0 109.0 L 95.0 109.0 L 97.0 109.0 L 98.0 109.0 L 99.0 109.0 L 100.0 109.0 L 101.0 109.0 L 102.0 109.0 L 103.0 109.0 L 104.0 109.0 L 105.0 108.0 L 106.0 108.0 L 106.0 108.0 L 107.0 108.0 L 108.0 108.0 L 108.0 107.0 L 109.0 107.0 L 110.0 107.0 L 110.0 107.0 L 111.0 107.0 L 111.0 107.0 L 112.0 107.0 L 112.0 107.0 L 112.0 107.0 L 113.0 107.0 L 114.0 107.0 L 114.0 107.0 L 115.0 107.0 L 116.0 107.0 L 117.0 107.0 L 117.0 107.0 L 118.0 107.0 L 119.0 107.0 L 120.0 107.0 L 121.0 107.0 L 122.0 107.0 L 123.0 107.0 L 124.0 107.0 L 125.0 107.0 L 126.0 107.0 L 127.0 107.0 L 128.0 107.0 L 129.0 107.0 L 130.0 107.0 L 131.0 107.0 L 132.0 107.0 L 133.0 107.0 L 134.0 107.0 L 135.0 107.0 L 136.0 107.0 L 137.0 107.0 L 138.0 107.0 L 139.0 107.0 L 141.0 107.0 L 142.0 107.0 L 143.0 107.0 L 144.0 107.0 L 145.0 107.0 L 146.0 107.0 L 147.0 107.0 L 148.0 107.0 L 149.0 107.0 L 150.0 107.0 L 151.0 106.0 L 152.0 106.0 L 153.0 106.0 L 154.0 106.0 L 155.0 106.0 L 156.0 106.0 L 157.0 106.0 L 158.0 106.0 L 159.0 106.0 L 160.0 105.0 L 161.0 105.0 L 162.0 105.0 L 163.0 105.0 L 164.0 105.0 L 165.0 105.0 L 166.0 105.0 L 167.0 105.0 L 168.0 105.0 L 168.0 105.0 L 169.0 105.0 L 170.0 105.0 L 170.0 105.0 L 171.0 105.0 L 171.0 105.0 L 172.0 104.0 L 173.0 104.0 L 173.0 104.0 L 174.0 104.0 L 174.0 104.0 L 175.0 104.0 L 176.0 104.0 L 176.0 104.0 L 177.0 104.0 L 178.0 104.0 L 178.0 104.0 L 179.0 104.0 L 180.0 104.0 L 180.0 104.0 L 181.0 104.0 L 181.0 104.0 L 182.0 104.0 L 183.0 104.0 L 183.0 104.0 L 184.0 104.0 L 185.0 104.0 L 185.0 104.0 L 186.0 104.0 L 187.0 104.0 L 187.0 104.0 L 188.0 104.0 L 189.0 104.0 L 189.0 104.0 L 190.0 104.0 L 191.0 104.0 L 191.0 104.0 L 192.0 104.0 L 193.0 104.0 L 193.0 104.0 L 194.0 104.0 L 194.0 104.0 L 195.0 104.0 L 196.0 104.0 L 197.0 104.0 L 197.0 104.0 L 198.0 104.0 L 199.0 104.0 L 200.0 104.0 L 200.0 104.0 L 201.0 104.0 L 202.0 104.0 L 202.0 104.0 L 203.0 104.0 L 204.0 104.0 L 205.0 104.0 L 206.0 104.0 L 207.0 104.0 L 208.0 104.0 L 209.0 104.0 L 210.0 104.0 L 211.0 104.0 L 212.0 104.0 L 213.0 104.0 L 214.0 104.0 L 216.0 104.0 L 217.0 104.0 L 218.0 104.0 L 219.0 104.0 L 221.0 104.0 L 222.0 104.0 L 223.0 104.0 L 224.0 104.0 L 225.0 104.0 L 227.0 104.0 L 228.0 104.0 L 229.0 104.0 L 230.0 104.0 L 231.0 104.0 L 232.0 104.0 L 233.0 104.0 L 234.0 104.0 L 235.0 104.0 L 235.0 105.0 L 236.0 105.0 L 237.0 105.0 L 238.0 105.0 L 238.0 105.0 L 239.0 106.0 L 239.0 106.0 L 240.0 106.0 L 240.0 106.0 L 241.0 106.0 L 241.0 106.0 L 242.0 106.0 L 242.0 106.0 L 243.0 106.0 L 243.0 106.0 L 243.0 106.0 " stroke="black" fill="none" stroke-width="5.0" stroke-linecap="round" stroke-linejoin="round" />
<path d="M 83.0 132.0 L 83.0 132.0 L 83.0 132.0 L 83.0 132.0 L 82.0 132.0 L 82.0 132.0 L 82.0 132.0 L 82.0 132.0 L 82.0 132.0 L 82.0 132.0 L 82.0 132.0 L 82.0 132.0 L 83.0 132.0 L 84.0 131.0 L 85.0 131.0 L 86.0 131.0 L 87.0 131.0 L 88.0 130.0 L 89.0 130.0 L 90.0 130.0 L 92.0 130.0 L 93.0 130.0 L 94.0 130.0 L 96.0 129.0 L 98.0 129.0 L 99.0 129.0 L 101.0 129.0 L 102.0 129.0 L 104.0 129.0 L 105.0 129.0 L 107.0 129.0 L 108.0 129.0 L 109.0 129.0 L 110.0 129.0 L 111.0 129.0 L 112.0 129.0 L 113.0 129.0 L 114.0 129.0 L 116.0 129.0 L 117.0 129.0 L 118.0 129.0 L 119.0 129.0 L 120.0 129.0 L 121.0 129.0 L 123.0 129.0 L 124.0 129.0 L 125.0 129.0 L 127.0 129.0 L 128.0 129.0 L 130.0 129.0 L 131.0 129.0 L 133.0 129.0 L 134.0 129.0 L 135.0 129.0 L 137.0 129.0 L 138.0 129.0 L 139.0 129.0 L 141.0 129.0 L 142.0 129.0 L 143.0 129.0 L 144.0 129.0 L 145.0 129.0 L 146.0 129.0 L 148.0 129.0 L 148.0 129.0 L 150.0 129.0 L 150.0 129.0 L 151.0 129.0 L 152.0 129.0 L 153.0 129.0 L 154.0 129.0 L 155.0 129.0 L 156.0 129.0 L 157.0 129.0 L 158.0 129.0 L 159.0 129.0 L 159.0 129.0 L 160.0 129.0 L 161.0 129.0 L 162.0 129.0 L 163.0 129.0 L 164.0 129.0 L 166.0 128.0 L 167.0 128.0 L 168.0 128.0 L 169.0 128.0 L 171.0 128.0 L 172.0 128.0 L 173.0 128.0 L 175.0 128.0 L 176.0 128.0 L 177.0 128.0 L 178.0 128.0 L 179.0 128.0 L 180.0 128.0 L 182.0 128.0 L 182.0 128.0 L 183.0 128.0 L 184.0 128.0 L 185.0 128.0 L 186.0 128.0 L 187.0 128.0 L 188.0 128.0 L 189.0 128.0 L 190.0 128.0 L 191.0 128.0 L 191.0 128.0 L 192.0 129.0 L 193.0 129.0 L 193.0 129.0 L 194.0 129.0 L 195.0 129.0 L 195.0 129.0 L 196.0 129.0 L 196.0 129.0 L 197.0 129.0 L 197.0 129.0 L 198.0 130.0 L 199.0 130.0 L 200.0 130.0 L 200.0 130.0 L 201.0 130.0 L 202.0 130.0 L 203.0 131.0 L 204.0 131.0 L 205.0 131.0 L 205.0 131.0 L 206.0 131.0 " stroke="black" fill="none" stroke-width="5.0" stroke-linecap="round" stroke-linejoin="round" />
<path d="M 146.0 69.0 L 146.0 69.0 L 146.0 69.0 L 146.0 69.0 L 146.0 70.0 L 145.0 71.0 L 145.0 71.0 L 145.0 71.0 L 145.0 72.0 L 145.0 72.0 L 145.0 72.0 L 146.0 72.0 L 146.0 72.0 L 146.0 72.0 L 147.0 73.0 L 147.0 73.0 L 147.0 74.0 L 148.0 76.0 L 148.0 77.0 L 148.0 78.0 L 148.0 80.0 L 148.0 82.0 L 148.0 84.0 L 148.0 86.0 L 149.0 89.0 L 149.0 91.0 L 149.0 94.0 L 149.0 97.0 L 150.0 101.0 L 150.0 104.0 L 150.0 107.0 L 150.0 110.0 L 150.0 113.0 L 150.0 115.0 L 150.0 118.0 L 150.0 120.0 L 150.0 121.0 L 150.0 123.0 L 150.0 125.0 L 150.0 126.0 L 150.0 127.0 L 150.0 129.0 L 150.0 130.0 L 150.0 132.0 L 150.0 133.0 L 150.0 135.0 L 150.0 136.0 L 150.0 138.0 L 150.0 139.0 L 150.0 141.0 L 150.0 142.0 L 150.0 144.0 L 150.0 145.0 L 150.0 146.0 L 150.0 148.0 L 150.0 149.0 L 150.0 150.0 L 150.0 151.0 L 150.0 152.0 L 150.0 153.0 L 150.0 153.0 L 150.0 154.0 L 150.0 154.0 L 150.0 154.0 L 151.0 154.0 " stroke="black" fill="none" stroke-width="5.0" stroke-linecap="round" stroke-linejoin="round" />
<path d="M 66.0 158.0 L 66.0 158.0 L 66.0 157.0 L 66.0 157.0 L 66.0 157.0 L 66.0 156.0 L 66.0 156.0 L 66.0 156.0 L 66.0 155.0 L 66.0 155.0 L 66.0 155.0 L 66.0 155.0 L 66.0 155.0 L 66.0 155.0 L 66.0 155.0 L 66.0 155.0 L 66.0 155.0 L 66.0 156.0 L 66.0 156.0 L 66.0 156.0 L 66.0 156.0 L 67.0 157.0 L 67.0 157.0 L 67.0 157.0 L 68.0 157.0 L 68.0 157.0 L 68.0 157.0 L 69.0 158.0 L 69.0 158.0 L 70.0 158.0 L 71.0 158.0 L 71.0 158.0 L 72.0 159.0 L 73.0 159.0 L 74.0 159.0 L 75.0 159.0 L 76.0 159.0 L 77.0 160.0 L 78.0 160.0 L 78.0 160.0 L 79.0 160.0 L 80.0 160.0 L 81.0 161.0 L 82.0 161.0 L 83.0 161.0 L 84.0 161.0 L 85.0 161.0 L 86.0 161.0 L 88.0 161.0 L 89.0 161.0 L 90.0 161.0 L 91.0 161.0 L 92.0 161.0 L 93.0 161.0 L 93.0 161.0 L 94.0 161.0 L 95.0 161.0 L 96.0 161.0 L 97.0 160.0 L 98.0 160.0 L 98.0 160.0 L 99.0 160.0 L 100.0 160.0 L 100.0 160.0 L 101.0 160.0 L 102.0 159.0 L 102.0 159.0 L 103.0 159.0 L 103.0 159.0 L 104.0 159.0 L 104.0 159.0 L 105.0 159.0 L 105.0 159.0 L 106.0 159.0 L 106.0 159.0 L 107.0 158.0 L 107.0 158.0 L 108.0 158.0 L 108.0 158.0 L 109.0 158.0 L 110.0 158.0 L 110.0 158.0 L 111.0 158.0 L 112.0 158.0 L 112.0 157.0 L 113.0 157.0 L 114.0 157.0 L 114.0 157.0 L 115.0 157.0 L 116.0 157.0 L 117.0 157.0 L 118.0 157.0 L 119.0 157.0 L 120.0 157.0 L 121.0 157.0 L 121.0 157.0 L 122.0 157.0 L 123.0 157.0 L 123.0 157.0 L 124.0 157.0 L 125.0 157.0 L 125.0 157.0 L 126.0 157.0 L 127.0 157.0 L 127.0 157.0 L 128.0 157.0 L 129.0 157.0 L 129.0 157.0 L 130.0 157.0 L 131.0 157.0 L 131.0 157.0 L 132.0 157.0 L 133.0 157.0 L 133.0 157.0 L 134.0 157.0 L 135.0 157.0 L 135.0 157.0 L 136.0 157.0 L 136.0 157.0 L 137.0 157.0 L 138.0 157.0 L 138.0 157.0 L 139.0 157.0 L 140.0 157.0 L 140.0 157.0 L 141.0 157.0 L 142.0 157.0 L 142.0 157.0 L 143.0 157.0 L 144.0 157.0 L 144.0 157.0 L 145.0 157.0 L 146.0 157.0 L 146.0 157.0 L 147.0 156.0 L 148.0 156.0 L 148.0 156.0 L 149.0 156.0 L 150.0 156.0 L 151.0 156.0 L 151.0 156.0 L 152.0 156.0 L 153.0 156.0 L 153.0 156.0 L 154.0 156.0 L 155.0 156.0 L 156.0 156.0 L 157.0 156.0 L 158.0 156.0 L 159.0 156.0 L 160.0 156.0 L 161.0 156.0 L 162.0 156.0 L 163.0 156.0 L 164.0 156.0 L 165.0 156.0 L 166.0 156.0 L 167.0 156.0 L 168.0 155.0 L 169.0 155.0 L 170.0 155.0 L 171.0 155.0 L 172.0 155.0 L 173.0 155.0 L 174.0 155.0 L 175.0 155.0 L 176.0 155.0 L 177.0 155.0 L 178.0 155.0 L 179.0 155.0 L 180.0 154.0 L 181.0 154.0 L 182.0 154.0 L 182.0 154.0 L 183.0 154.0 L 184.0 154.0 L 185.0 154.0 L 186.0 154.0 L 186.0 154.0 L 187.0 154.0 L 188.0 154.0 L 188.0 154.0 L 189.0 154.0 L 190.0 154.0 L 190.0 154.0 L 191.0 154.0 L 192.0 154.0 L 192.0 154.0 L 193.0 154.0 L 193.0 154.0 L 193.0 154.0 L 194.0 154.0 L 194.0 154.0 L 195.0 154.0 L 195.0 154.0 L 196.0 154.0 L 196.0 154.0 L 197.0 154.0 L 197.0 154.0 L 198.0 153.0 L 198.0 153.0 L 199.0 153.0 L 199.0 153.0 L 199.0 153.0 L 200.0 153.0 L 200.0 153.0 L 201.0 153.0 L 202.0 153.0 L 202.0 153.0 L 203.0 153.0 L 204.0 153.0 L 204.0 153.0 L 205.0 153.0 L 205.0 153.0 L 206.0 153.0 L 207.0 153.0 L 207.0 153.0 L 208.0 153.0 L 209.0 153.0 L 210.0 153.0 L 211.0 153.0 L 212.0 153.0 L 214.0 153.0 L 215.0 153.0 L 216.0 154.0 L 218.0 154.0 L 219.0 154.0 L 220.0 154.0 L 221.0 154.0 L 223.0 154.0 L 224.0 155.0 L 225.0 155.0 L 226.0 155.0 L 227.0 155.0 L 228.0 155.0 L 229.0 155.0 L 231.0 155.0 L 232.0 155.0 L 233.0 155.0 L 234.0 155.0 L 235.0 155.0 L 236.0 155.0 L 237.0 155.0 " stroke="black" fill="none" stroke-width="5.0" stroke-linecap="round" stroke-linejoin="round" />
<path d="M 89.0 166.0 L 89.0 166.0 L 89.0 166.0 L 89.0 166.0 L 88.0 166.0 L 88.0 167.0 L 87.0 167.0 L 87.0 168.0 L 86.0 169.0 L 85.0 170.0 L 84.0 172.0 L 82.0 175.0 L 81.0 178.0 L 79.0 182.0 L 78.0 185.0 L 76.0 188.0 L 76.0 191.0 L 76.0 193.0 " stroke="black" fill="none" stroke-width="5.0" stroke-linecap="round" stroke-linejoin="round" />
<path d="M 123.0 167.0 L 123.0 167.0 L 123.0 167.0 L 122.0 167.0 L 121.0 167.0 L 121.0 167.0 L 120.0 167.0 L 120.0 168.0 L 120.0 169.0 L 120.0 170.0 L 121.0 172.0 L 121.0 175.0 L 122.0 179.0 L 123.0 184.0 L 124.0 188.0 L 125.0 191.0 L 125.0 193.0 " stroke="black" fill="none" stroke-width="5.0" stroke-linecap="round" stroke-linejoin="round" />
<path d="M 162.0 171.0 L 162.0 171.0 L 162.0 171.0 L 162.0 171.0 L 162.0 172.0 L 162.0 173.0 L 162.0 174.0 L 162.0 176.0 L 164.0 178.0 L 166.0 181.0 L 168.0 183.0 L 171.0 186.0 L 173.0 189.0 " stroke="black" fill="none" stroke-width="5.0" stroke-linecap="round" stroke-linejoin="round" />
<path d="M 210.0 173.0 L 210.0 173.0 L 210.0 173.0 L 210.0 173.0 L 209.0 173.0 L 209.0 173.0 L 209.0 173.0 L 209.0 173.0 L 211.0 174.0 L 213.0 175.0 L 216.0 178.0 L 219.0 180.0 L 223.0 183.0 L 226.0 186.0 L 230.0 190.0 L 233.0 193.0 L 235.0 195.0 L 237.0 197.0 L 237.0 198.0 " stroke="black" fill="none" stroke-width="5.0" stroke-linecap="round" stroke-linejoin="round" />
<path d="M 87.0 204.0 L 87.0 204.0 L 87.0 204.0 L 86.0 204.0 L 86.0 204.0 L 86.0 204.0 L 85.0 204.0 L 85.0 204.0 L 85.0 204.0 L 85.0 204.0 L 86.0 206.0 L 87.0 208.0 L 87.0 211.0 L 88.0 215.0 L 88.0 220.0 L 88.0 226.0 L 89.0 232.0 L 89.0 237.0 L 89.0 241.0 L 89.0 243.0 L 89.0 245.0 L 89.0 245.0 " stroke="black" fill="none" stroke-width="5.0" stroke-linecap="round" stroke-linejoin="round" />
<path d="M 92.0 204.0 L 92.0 204.0 L 91.0 204.0 L 91.0 204.0 L 90.0 204.0 L 89.0 204.0 L 89.0 204.0 L 89.0 204.0 L 89.0 204.0 L 89.0 204.0 L 89.0 204.0 L 89.0 204.0 L 89.0 204.0 L 89.0 204.0 L 89.0 204.0 L 89.0 204.0 L 90.0 204.0 L 91.0 204.0 L 92.0 204.0 L 93.0 204.0 L 94.0 204.0 L 95.0 204.0 L 96.0 204.0 L 98.0 204.0 L 99.0 204.0 L 101.0 204.0 L 102.0 204.0 L 103.0 204.0 L 104.0 204.0 L 106.0 204.0 L 107.0 204.0 L 108.0 204.0 L 109.0 204.0 L 110.0 204.0 L 110.0 204.0 L 111.0 204.0 L 112.0 204.0 L 112.0 204.0 L 113.0 204.0 L 114.0 204.0 L 114.0 204.0 L 115.0 204.0 L 116.0 204.0 L 116.0 204.0 L 117.0 204.0 L 118.0 204.0 L 118.0 204.0 L 119.0 204.0 L 120.0 204.0 L 120.0 204.0 L 121.0 204.0 L 121.0 204.0 L 122.0 204.0 L 123.0 203.0 L 123.0 203.0 L 124.0 203.0 L 125.0 203.0 L 126.0 203.0 L 126.0 203.0 L 127.0 203.0 L 128.0 203.0 L 129.0 203.0 L 130.0 203.0 L 131.0 203.0 L 132.0 203.0 L 133.0 203.0 L 134.0 203.0 L 136.0 203.0 L 137.0 203.0 L 139.0 203.0 L 140.0 203.0 L 141.0 203.0 L 142.0 203.0 L 143.0 203.0 L 144.0 203.0 L 145.0 203.0 L 146.0 203.0 L 147.0 203.0 L 148.0 203.0 L 149.0 203.0 L 149.0 203.0 L 150.0 203.0 L 151.0 203.0 L 151.0 203.0 L 152.0 203.0 L 152.0 203.0 L 153.0 203.0 L 154.0 203.0 L 154.0 203.0 L 155.0 203.0 L 156.0 203.0 L 157.0 203.0 L 158.0 203.0 L 159.0 203.0 L 160.0 203.0 L 161.0 203.0 L 162.0 203.0 L 163.0 203.0 L 164.0 203.0 L 166.0 203.0 L 167.0 203.0 L 168.0 203.0 L 170.0 203.0 L 171.0 203.0 L 172.0 203.0 L 174.0 203.0 L 175.0 203.0 L 176.0 203.0 L 177.0 203.0 L 178.0 203.0 L 179.0 202.0 L 180.0 202.0 L 181.0 202.0 L 182.0 202.0 L 183.0 202.0 L 183.0 202.0 L 184.0 202.0 L 185.0 202.0 L 186.0 202.0 L 187.0 202.0 L 187.0 202.0 L 188.0 202.0 L 189.0 202.0 L 189.0 202.0 L 190.0 202.0 L 191.0 202.0 L 191.0 202.0 L 192.0 202.0 L 193.0 202.0 L 193.0 202.0 L 194.0 202.0 L 194.0 202.0 L 195.0 202.0 L 196.0 202.0 L 196.0 202.0 L 197.0 202.0 L 198.0 202.0 L 198.0 202.0 L 199.0 202.0 L 199.0 202.0 L 200.0 202.0 L 200.0 202.0 L 201.0 202.0 L 202.0 202.0 L 202.0 202.0 L 203.0 202.0 L 204.0 202.0 L 204.0 202.0 L 205.0 202.0 L 205.0 202.0 L 206.0 202.0 L 206.0 202.0 L 207.0 202.0 L 208.0 202.0 L 208.0 202.0 L 209.0 202.0 L 209.0 202.0 L 210.0 202.0 L 210.0 202.0 L 211.0 202.0 L 211.0 202.0 L 212.0 202.0 L 212.0 202.0 L 213.0 202.0 L 213.0 202.0 L 214.0 202.0 L 214.0 202.0 L 214.0 202.0 L 215.0 202.0 L 215.0 202.0 L 216.0 202.0 L 216.0 202.0 L 216.0 202.0 L 217.0 202.0 L 217.0 202.0 L 217.0 203.0 L 217.0 203.0 L 218.0 203.0 L 218.0 203.0 L 218.0 204.0 L 218.0 204.0 L 218.0 205.0 L 218.0 207.0 L 218.0 208.0 L 218.0 210.0 L 218.0 213.0 L 217.0 216.0 L 217.0 220.0 L 217.0 224.0 L 217.0 228.0 L 217.0 232.0 L 217.0 236.0 L 217.0 239.0 L 217.0 241.0 L 217.0 243.0 L 217.0 245.0 L 217.0 246.0 L 217.0 247.0 L 216.0 247.0 L 216.0 247.0 L 216.0 247.0 L 216.0 245.0 L 215.0 244.0 " stroke="black" fill="none" stroke-width="5.0" stroke-linecap="round" stroke-linejoin="round" />
<path d="M 132.0 206.0 L 132.0 206.0 L 132.0 206.0 L 132.0 206.0 L 132.0 205.0 L 132.0 205.0 L 132.0 205.0 L 132.0 204.0 L 133.0 204.0 L 133.0 204.0 L 133.0 204.0 L 134.0 206.0 L 134.0 209.0 L 134.0 213.0 L 135.0 218.0 L 135.0 224.0 L 135.0 230.0 L 135.0 236.0 L 135.0 241.0 L 136.0 243.0 L 136.0 245.0 L 136.0 246.0 L 137.0 246.0 L 138.0 245.0 " stroke="black" fill="none" stroke-width="5.0" stroke-linecap="round" stroke-linejoin="round" />
<path d="M 171.0 208.0 L 171.0 208.0 L 171.0 208.0 L 171.0 208.0 L 171.0 207.0 L 171.0 207.0 L 171.0 207.0 L 171.0 207.0 L 170.0 207.0 L 170.0 207.0 L 170.0 207.0 L 170.0 209.0 L 170.0 211.0 L 170.0 215.0 L 170.0 221.0 L 170.0 227.0 L 170.0 233.0 L 170.0 239.0 L 170.0 243.0 L 170.0 245.0 " stroke="black" fill="none" stroke-width="5.0" stroke-linecap="round" stroke-linejoin="round" />
<path d="M 60.0 245.0 L 60.0 245.0 L 60.0 245.0 L 60.0 245.0 L 60.0 245.0 L 60.0 245.0 L 60.0 245.0 L 60.0 245.0 L 60.0 245.0 L 60.0 245.0 L 60.0 245.0 L 60.0 245.0 L 60.0 245.0 L 60.0 245.0 L 60.0 244.0 L 61.0 244.0 L 61.0 244.0 L 62.0 244.0 L 62.0 244.0 L 63.0 244.0 L 64.0 244.0 L 64.0 244.0 L 65.0 244.0 L 66.0 244.0 L 67.0 244.0 L 69.0 244.0 L 70.0 244.0 L 71.0 244.0 L 72.0 244.0 L 73.0 244.0 L 74.0 244.0 L 75.0 244.0 L 76.0 244.0 L 77.0 244.0 L 78.0 244.0 L 78.0 244.0 L 79.0 244.0 L 80.0 244.0 L 81.0 244.0 L 82.0 244.0 L 82.0 244.0 L 83.0 244.0 L 84.0 244.0 L 85.0 244.0 L 87.0 244.0 L 88.0 244.0 L 89.0 244.0 L 90.0 244.0 L 92.0 244.0 L 93.0 244.0 L 94.0 244.0 L 95.0 244.0 L 97.0 244.0 L 98.0 244.0 L 99.0 244.0 L 100.0 244.0 L 101.0 244.0 L 102.0 244.0 L 103.0 244.0 L 104.0 244.0 L 104.0 244.0 L 105.0 244.0 L 106.0 244.0 L 106.0 244.0 L 107.0 244.0 L 107.0 244.0 L 108.0 244.0 L 108.0 244.0 L 109.0 244.0 L 109.0 244.0 L 110.0 244.0 L 111.0 244.0 L 111.0 244.0 L 112.0 244.0 L 112.0 244.0 L 113.0 243.0 L 113.0 243.0 L 114.0 243.0 L 115.0 243.0 L 115.0 243.0 L 116.0 243.0 L 117.0 243.0 L 118.0 243.0 L 118.0 243.0 L 119.0 243.0 L 120.0 242.0 L 121.0 242.0 L 122.0 242.0 L 123.0 242.0 L 123.0 242.0 L 124.0 242.0 L 125.0 242.0 L 126.0 242.0 L 127.0 242.0 L 128.0 242.0 L 129.0 242.0 L 130.0 243.0 L 131.0 243.0 L 132.0 243.0 L 133.0 243.0 L 134.0 243.0 L 135.0 243.0 L 136.0 243.0 L 137.0 243.0 L 138.0 243.0 L 139.0 243.0 L 140.0 243.0 L 141.0 243.0 L 142.0 243.0 L 143.0 243.0 L 144.0 243.0 L 144.0 243.0 L 145.0 243.0 L 146.0 243.0 L 147.0 243.0 L 148.0 243.0 L 149.0 243.0 L 150.0 243.0 L 150.0 243.0 L 151.0 243.0 L 152.0 243.0 L 153.0 243.0 L 154.0 243.0 L 154.0 243.0 L 155.0 243.0 L 156.0 243.0 L 157.0 243.0 L 158.0 242.0 L 159.0 242.0 L 160.0 242.0 L 161.0 242.0 L 163.0 242.0 L 164.0 242.0 L 165.0 242.0 L 167.0 242.0 L 168.0 242.0 L 170.0 242.0 L 172.0 242.0 L 173.0 242.0 L 175.0 242.0 L 177.0 241.0 L 178.0 241.0 L 180.0 241.0 L 181.0 241.0 L 182.0 241.0 L 183.0 241.0 L 184.0 241.0 L 185.0 241.0 L 185.0 241.0 L 186.0 241.0 L 186.0 241.0 L 187.0 240.0 L 187.0 240.0 L 188.0 240.0 L 188.0 240.0 L 189.0 240.0 L 189.0 240.0 L 190.0 240.0 L 190.0 240.0 L 191.0 240.0 L 191.0 240.0 L 192.0 240.0 L 192.0 240.0 L 193.0 240.0 L 193.0 240.0 L 193.0 240.0 L 194.0 240.0 L 194.0 241.0 L 195.0 241.0 L 195.0 241.0 L 196.0 241.0 L 196.0 241.0 L 196.0 241.0 L 197.0 241.0 L 197.0 241.0 L 198.0 242.0 L 199.0 242.0 L 199.0 242.0 L 200.0 242.0 L 200.0 242.0 L 201.0 242.0 L 202.0 242.0 L 202.0 242.0 L 203.0 242.0 L 204.0 242.0 L 204.0 242.0 L 205.0 242.0 L 206.0 243.0 L 207.0 243.0 L 207.0 243.0 L 208.0 243.0 L 209.0 243.0 L 210.0 243.0 L 211.0 243.0 L 212.0 243.0 L 212.0 243.0 L 213.0 243.0 L 214.0 243.0 L 215.0 243.0 L 216.0 243.0 L 217.0 243.0 L 218.0 243.0 L 219.0 243.0 L 220.0 243.0 L 221.0 243.0 L 222.0 243.0 L 223.0 243.0 L 223.0 243.0 L 224.0 243.0 L 225.0 243.0 L 226.0 243.0 L 227.0 243.0 L 227.0 243.0 L 228.0 243.0 L 229.0 243.0 L 229.0 243.0 L 230.0 243.0 L 230.0 243.0 L 231.0 244.0 L 231.0 244.0 L 232.0 244.0 L 232.0 244.0 L 233.0 244.0 L 233.0 244.0 L 234.0 244.0 L 234.0 244.0 L 235.0 244.0 L 235.0 245.0 L 236.0 245.0 L 236.0 245.0 L 237.0 245.0 L 237.0 245.0 L 238.0 245.0 L 238.0 245.0 L 239.0 245.0 L 240.0 245.0 L 241.0 245.0 L 241.0 245.0 L 242.0 245.0 L 243.0 245.0 L 244.0 245.0 L 244.0 245.0 L 245.0 245.0 L 246.0 245.0 L 247.0 245.0 L 247.0 245.0 L 248.0 245.0 L 249.0 245.0 L 249.0 245.0 L 250.0 245.0 L 250.0 245.0 L 251.0 245.0 L 251.0 245.0 L 251.0 245.0 L 252.0 245.0 L 252.0 245.0 L 252.0 245.0 L 252.0 245.0 L 252.0 245.0 L 252.0 245.0 L 252.0 245.0 " stroke="black" fill="none" stroke-width="5.0" stroke-linecap="round" stroke-linejoin="round" />
</svg>