<svg xmlns="http://www.w3.org/2000/svg" width="300" height="300" viewBox="0 0 300 300">
<path d="M 103.0 82.0 L 103.0 82.0 L 103.0 82.0 L 103.0 82.0 L 103.0 82.0 L 102.0 82.0 L 102.0 82.0 L 102.0 82.0 L 102.0 82.0 L 102.0 82.0 L 101.0 82.0 L 101.0 82.0 L 101.0 82.0 L 101.0 82.0 L 101.0 83.0 L 101.0 83.0 L 101.0 83.0 L 102.0 83.0 L 102.0 84.0 L 103.0 84.0 L 104.0 84.0 L 105.0 84.0 L 106.0 85.0 L 107.0 85.0 L 108.0 85.0 L 110.0 85.0 L 111.0 86.0 L 113.0 86.0 L 115.0 86.0 L 117.0 86.0 L 119.0 86.0 L 121.0 87.0 L 123.0 87.0 L 125.0 87.0 L 127.0 87.0 L 128.0 87.0 L 130.0 87.0 L 132.0 87.0 L 134.0 87.0 L 136.0 87.0 L 138.0 87.0 L 140.0 87.0 L 142.0 87.0 L 144.0 87.0 L 146.0 87.0 L 147.0 87.0 L 149.0 87.0 L 150.0 87.0 L 151.0 87.0 L 152.0 87.0 L 153.0 87.0 L 154.0 87.0 L 155.0 87.0 L 156.0 87.0 L 157.0 87.0 L 158.0 87.0 L 159.0 87.0 L 160.0 87.0 L 162.0 87.0 L 163.0 87.0 L 164.0 87.0 L 166.0 87.0 L 167.0 87.0 L 169.0 87.0 L 171.0 87.0 L 172.0 87.0 L 174.0 87.0 L 176.0 87.0 L 178.0 87.0 L 180.0 87.0 L 182.0 87.0 L 183.0 87.0 L 185.0 87.0 L 187.0 87.0 L 188.0 87.0 L 190.0 87.0 L 191.0 87.0 L 193.0 87.0 L 194.0 87.0 L 196.0 87.0 L 197.0 87.0 L 198.0 87.0 L 200.0 87.0 L 201.0 87.0 L 202.0 87.0 L 204.0 87.0 L 205.0 87.0 L 206.0 87.0 L 207.0 87.0 L 208.0 87.0 L 209.0 87.0 L 209.0 87.0 L 210.0 87.0 L 210.0 87.0 L 210.0 88.0 L 210.0 89.0 L 211.0 90.0 L 211.0 91.0 L 211.0 93.0 L 211.0 96.0 L 210.0 100.0 L 210.0 103.0 L 209.0 108.0 L 208.0 112.0 L 207.0 116.0 L 206.0 120.0 L 205.0 123.0 L 204.0 125.0 L 204.0 126.0 L 203.0 127.0 L 202.0 128.0 " stroke="black" fill="none" stroke-width="5.0" stroke-linecap="round" stroke-linejoin="round" />
<path d="M 75.0 108.0 L 75.0 108.0 L 75.0 107.0 L 75.0 107.0 L 76.0 107.0 L 76.0 106.0 L 76.0 106.0 L 76.0 106.0 L 77.0 105.0 L 77.0 105.0 L 78.0 105.0 L 78.0 105.0 L 79.0 104.0 L 81.0 104.0 L 82.0 104.0 L 84.0 104.0 L 87.0 104.0 L 89.0 104.0 L 92.0 105.0 L 95.0 105.0 L 98.0 106.0 L 101.0 106.0 L 104.0 107.0 L 106.0 107.0 L 108.0 107.0 L 111.0 107.0 L 113.0 107.0 L 116.0 107.0 L 119.0 107.0 L 123.0 107.0 L 126.0 107.0 L 131.0 107.0 L 135.0 107.0 L 139.0 107.0 L 143.0 107.0 L 147.0 107.0 L 150.0 107.0 L 153.0 106.0 L 156.0 106.0 L 159.0 106.0 L 163.0 105.0 L 167.0 105.0 L 172.0 105.0 L 178.0 105.0 L 183.0 104.0 L 188.0 104.0 L 192.0 104.0 L 195.0 104.0 L 198.0 104.0 L 200.0 104.0 L 202.0 104.0 L 205.0 103.0 L 208.0 103.0 L 210.0 103.0 L 212.0 103.0 L 215.0 102.0 L 217.0 102.0 L 218.0 102.0 L 219.0 102.0 L 220.0 102.0 L 220.0 102.0 L 220.0 102.0 " stroke="black" fill="none" stroke-width="5.0" stroke-linecap="round" stroke-linejoin="round" />
<path d="M 95.0 130.0 L 95.0 130.0 L 94.0 130.0 L 94.0 130.0 L 93.0 130.0 L 92.0 129.0 L 92.0 129.0 L 91.0 129.0 L 91.0 129.0 L 91.0 129.0 L 91.0 128.0 L 91.0 128.0 L 91.0 128.0 L 92.0 128.0 L 93.0 128.0 L 96.0 128.0 L 98.0 128.0 L 102.0 128.0 L 105.0 128.0 L 110.0 128.0 L 117.0 128.0 L 126.0 128.0 L 135.0 127.0 L 144.0 127.0 L 151.0 126.0 L 156.0 126.0 L 160.0 126.0 L 165.0 126.0 L 169.0 126.0 L 175.0 126.0 L 180.0 126.0 L 185.0 126.0 L 189.0 126.0 L 192.0 125.0 L 195.0 124.0 L 197.0 123.0 L 198.0 122.0 " stroke="black" fill="none" stroke-width="5.0" stroke-linecap="round" stroke-linejoin="round" />
<path d="M 150.0 74.0 L 150.0 73.0 L 150.0 72.0 L 150.0 71.0 L 150.0 70.0 L 149.0 70.0 L 149.0 70.0 L 149.0 69.0 L 149.0 69.0 L 149.0 71.0 L 149.0 73.0 L 149.0 77.0 L 149.0 81.0 L 149.0 87.0 L 149.0 94.0 L 149.0 102.0 L 148.0 111.0 L 148.0 120.0 L 147.0 129.0 L 147.0 137.0 L 146.0 143.0 L 146.0 148.0 L 146.0 151.0 L 146.0 151.0 L 146.0 151.0 " stroke="black" fill="none" stroke-width="5.0" stroke-linecap="round" stroke-linejoin="round" />
<path d="M 71.0 158.0 L 71.0 158.0 L 71.0 158.0 L 71.0 158.0 L 71.0 158.0 L 71.0 158.0 L 71.0 158.0 L 71.0 158.0 L 71.0 158.0 L 71.0 158.0 L 71.0 158.0 L 71.0 158.0 L 71.0 157.0 L 71.0 157.0 L 72.0 157.0 L 73.0 157.0 L 74.0 156.0 L 76.0 156.0 L 79.0 156.0 L 82.0 156.0 L 85.0 155.0 L 89.0 155.0 L 93.0 155.0 L 98.0 155.0 L 101.0 154.0 L 105.0 154.0 L 108.0 154.0 L 110.0 153.0 L 113.0 153.0 L 115.0 153.0 L 118.0 153.0 L 120.0 153.0 L 123.0 152.0 L 126.0 152.0 L 129.0 152.0 L 132.0 152.0 L 135.0 152.0 L 138.0 152.0 L 141.0 152.0 L 143.0 152.0 L 145.0 152.0 L 147.0 152.0 L 149.0 152.0 L 151.0 152.0 L 152.0 152.0 L 154.0 152.0 L 156.0 152.0 L 158.0 151.0 L 160.0 151.0 L 164.0 151.0 L 167.0 151.0 L 171.0 151.0 L 175.0 151.0 L 180.0 151.0 L 183.0 151.0 L 187.0 151.0 L 190.0 151.0 L 193.0 151.0 L 195.0 151.0 L 197.0 151.0 L 199.0 151.0 L 201.0 151.0 L 203.0 151.0 L 205.0 151.0 L 207.0 151.0 L 210.0 151.0 L 212.0 150.0 L 215.0 150.0 L 217.0 150.0 L 219.0 150.0 L 221.0 150.0 L 222.0 150.0 " stroke="black" fill="none" stroke-width="5.0" stroke-linecap="round" stroke-linejoin="round" />
<path d="M 100.0 166.0 L 100.0 166.0 L 100.0 166.0 L 99.0 166.0 L 99.0 165.0 L 99.0 165.0 L 98.0 165.0 L 98.0 165.0 L 97.0 165.0 L 96.0 166.0 L 96.0 168.0 L 94.0 171.0 L 93.0 175.0 L 91.0 179.0 L 89.0 184.0 L 87.0 188.0 L 87.0 191.0 " stroke="black" fill="none" stroke-width="5.0" stroke-linecap="round" stroke-linejoin="round" />
<path d="M 115.0 169.0 L 115.0 169.0 L 116.0 169.0 L 118.0 169.0 L 118.0 169.0 L 119.0 168.0 L 120.0 168.0 L 121.0 168.0 L 122.0 168.0 L 123.0 168.0 L 124.0 169.0 L 124.0 171.0 L 125.0 173.0 L 125.0 177.0 L 125.0 180.0 L 125.0 184.0 L 126.0 188.0 L 127.0 190.0 " stroke="black" fill="none" stroke-width="5.0" stroke-linecap="round" stroke-linejoin="round" />
<path d="M 162.0 166.0 L 162.0 166.0 L 162.0 167.0 L 161.0 167.0 L 161.0 168.0 L 160.0 168.0 L 160.0 169.0 L 160.0 170.0 L 160.0 171.0 L 161.0 172.0 L 162.0 174.0 L 164.0 176.0 L 166.0 178.0 L 168.0 181.0 L 170.0 184.0 L 172.0 185.0 " stroke="black" fill="none" stroke-width="5.0" stroke-linecap="round" stroke-linejoin="round" />
<path d="M 208.0 178.0 L 208.0 178.0 L 206.0 178.0 L 206.0 179.0 L 205.0 180.0 L 205.0 181.0 L 205.0 183.0 L 207.0 185.0 L 209.0 188.0 L 212.0 190.0 L 216.0 191.0 L 221.0 193.0 L 222.0 193.0 " stroke="black" fill="none" stroke-width="5.0" stroke-linecap="round" stroke-linejoin="round" />
<path d="M 92.0 203.0 L 92.0 203.0 L 92.0 202.0 L 91.0 202.0 L 91.0 202.0 L 91.0 201.0 L 90.0 201.0 L 90.0 201.0 L 90.0 202.0 L 91.0 203.0 L 92.0 206.0 L 93.0 209.0 L 94.0 213.0 L 95.0 218.0 L 96.0 223.0 L 96.0 228.0 L 97.0 233.0 L 98.0 236.0 L 99.0 238.0 " stroke="black" fill="none" stroke-width="5.0" stroke-linecap="round" stroke-linejoin="round" />
<path d="M 102.0 205.0 L 102.0 205.0 L 101.0 205.0 L 100.0 205.0 L 99.0 205.0 L 98.0 205.0 L 98.0 205.0 L 97.0 205.0 L 97.0 204.0 L 97.0 204.0 L 97.0 204.0 L 97.0 204.0 L 97.0 204.0 L 97.0 204.0 L 97.0 203.0 L 98.0 203.0 L 99.0 203.0 L 100.0 203.0 L 101.0 203.0 L 102.0 203.0 L 103.0 203.0 L 104.0 203.0 L 105.0 203.0 L 107.0 203.0 L 108.0 203.0 L 110.0 203.0 L 111.0 203.0 L 113.0 203.0 L 115.0 203.0 L 117.0 203.0 L 119.0 203.0 L 120.0 203.0 L 122.0 203.0 L 124.0 203.0 L 125.0 203.0 L 127.0 203.0 L 129.0 203.0 L 130.0 202.0 L 132.0 202.0 L 133.0 202.0 L 135.0 202.0 L 136.0 202.0 L 137.0 202.0 L 138.0 202.0 L 140.0 202.0 L 141.0 202.0 L 142.0 202.0 L 143.0 202.0 L 144.0 202.0 L 146.0 202.0 L 146.0 202.0 L 147.0 202.0 L 148.0 202.0 L 149.0 202.0 L 150.0 202.0 L 151.0 202.0 L 151.0 202.0 L 152.0 202.0 L 153.0 203.0 L 154.0 203.0 L 155.0 203.0 L 156.0 203.0 L 157.0 203.0 L 158.0 203.0 L 160.0 204.0 L 161.0 204.0 L 163.0 204.0 L 164.0 204.0 L 166.0 204.0 L 168.0 204.0 L 170.0 204.0 L 173.0 204.0 L 175.0 204.0 L 177.0 204.0 L 179.0 204.0 L 181.0 204.0 L 183.0 205.0 L 184.0 205.0 L 186.0 205.0 L 187.0 205.0 L 189.0 206.0 L 190.0 206.0 L 191.0 206.0 L 192.0 206.0 L 193.0 207.0 L 194.0 207.0 L 195.0 207.0 L 196.0 207.0 L 196.0 207.0 L 197.0 207.0 L 197.0 207.0 L 197.0 207.0 L 198.0 207.0 L 198.0 207.0 L 198.0 207.0 L 198.0 207.0 L 199.0 207.0 L 199.0 207.0 L 199.0 207.0 L 200.0 207.0 L 200.0 208.0 L 200.0 208.0 L 200.0 208.0 L 200.0 208.0 L 200.0 208.0 L 200.0 209.0 L 200.0 209.0 L 200.0 209.0 L 200.0 210.0 L 200.0 211.0 L 200.0 213.0 L 200.0 216.0 L 199.0 220.0 L 199.0 223.0 L 198.0 228.0 L 197.0 231.0 L 197.0 234.0 " stroke="black" fill="none" stroke-width="5.0" stroke-linecap="round" stroke-linejoin="round" />
<path d="M 128.0 208.0 L 128.0 208.0 L 128.0 207.0 L 128.0 207.0 L 128.0 207.0 L 128.0 206.0 L 128.0 206.0 L 128.0 206.0 L 128.0 206.0 L 129.0 207.0 L 129.0 208.0 L 130.0 211.0 L 130.0 215.0 L 130.0 219.0 L 130.0 224.0 L 130.0 229.0 L 131.0 233.0 L 132.0 236.0 L 134.0 237.0 L 137.0 237.0 " stroke="black" fill="none" stroke-width="5.0" stroke-linecap="round" stroke-linejoin="round" />
<path d="M 167.0 207.0 L 167.0 207.0 L 167.0 208.0 L 168.0 208.0 L 168.0 209.0 L 168.0 209.0 L 169.0 210.0 L 169.0 212.0 L 169.0 214.0 L 169.0 217.0 L 168.0 221.0 L 167.0 225.0 L 166.0 229.0 L 164.0 234.0 L 163.0 237.0 L 162.0 239.0 " stroke="black" fill="none" stroke-width="5.0" stroke-linecap="round" stroke-linejoin="round" />
<path d="M 73.0 244.0 L 73.0 244.0 L 73.0 244.0 L 73.0 244.0 L 73.0 244.0 L 73.0 244.0 L 73.0 244.0 L 73.0 244.0 L 73.0 244.0 L 73.0 244.0 L 74.0 243.0 L 76.0 243.0 L 79.0 243.0 L 83.0 243.0 L 90.0 243.0 L 98.0 243.0 L 108.0 243.0 L 120.0 244.0 L 133.0 244.0 L 146.0 244.0 L 157.0 244.0 L 165.0 244.0 L 174.0 244.0 L 183.0 244.0 L 190.0 244.0 L 195.0 244.0 L 200.0 244.0 L 205.0 244.0 L 211.0 244.0 L 218.0 244.0 L 223.0 244.0 L 229.0 244.0 L 233.0 244.0 L 236.0 244.0 L 238.0 244.0 L 239.0 244.0 L 240.0 244.0 L 241.0 244.0 L 241.0 244.0 L 241.0 245.0 L 241.0 246.0 " stroke="black" fill="none" stroke-width="5.0" stroke-linecap="round" stroke-linejoin="round" />
</svg>