<svg xmlns="http://www.w3.org/2000/svg" width="300" height="300" viewBox="0 0 300 300">
<path d="M 67.0 114.0 L 67.0 114.0 L 66.0 114.0 L 64.0 114.0 L 64.0 114.0 L 63.0 114.0 L 62.0 114.0 L 61.0 114.0 L 61.0 114.0 L 61.0 114.0 L 61.0 114.0 L 61.0 114.0 L 61.0 114.0 L 63.0 114.0 L 64.0 114.0 L 67.0 114.0 L 70.0 114.0 L 74.0 114.0 L 79.0 114.0 L 84.0 114.0 L 90.0 114.0 L 96.0 114.0 L 101.0 114.0 L 105.0 113.0 L 109.0 113.0 L 112.0 112.0 L 113.0 112.0 L 114.0 112.0 " stroke="black" fill="none" stroke-width="5.0" stroke-linecap="round" stroke-linejoin="round" />
<path d="M 90.0 74.0 L 90.0 74.0 L 90.0 74.0 L 90.0 74.0 L 90.0 74.0 L 91.0 74.0 L 91.0 74.0 L 91.0 74.0 L 91.0 74.0 L 91.0 74.0 L 91.0 74.0 L 91.0 74.0 L 91.0 75.0 L 91.0 75.0 L 91.0 76.0 L 91.0 77.0 L 91.0 78.0 L 91.0 80.0 L 91.0 82.0 L 91.0 85.0 L 91.0 88.0 L 90.0 92.0 L 90.0 95.0 L 89.0 99.0 L 89.0 103.0 L 88.0 106.0 L 88.0 109.0 L 88.0 112.0 L 88.0 115.0 L 88.0 118.0 L 88.0 120.0 L 88.0 123.0 L 88.0 126.0 L 87.0 128.0 L 87.0 131.0 L 87.0 134.0 L 87.0 137.0 L 87.0 140.0 L 87.0 143.0 L 87.0 146.0 L 87.0 149.0 L 87.0 151.0 L 87.0 154.0 L 87.0 156.0 L 87.0 158.0 L 87.0 160.0 L 87.0 162.0 L 87.0 164.0 L 87.0 167.0 L 87.0 169.0 L 87.0 171.0 L 87.0 174.0 L 87.0 176.0 L 87.0 179.0 L 87.0 181.0 L 87.0 184.0 L 87.0 187.0 L 87.0 189.0 L 87.0 192.0 L 87.0 195.0 L 87.0 198.0 L 87.0 201.0 L 87.0 204.0 L 87.0 206.0 L 87.0 210.0 L 87.0 212.0 L 87.0 215.0 L 87.0 218.0 L 87.0 221.0 L 87.0 225.0 L 87.0 228.0 L 87.0 231.0 L 87.0 234.0 L 87.0 238.0 L 87.0 240.0 L 87.0 243.0 L 87.0 246.0 L 87.0 248.0 L 87.0 250.0 L 87.0 251.0 L 87.0 252.0 L 87.0 253.0 L 87.0 253.0 L 88.0 253.0 L 88.0 252.0 " stroke="black" fill="none" stroke-width="5.0" stroke-linecap="round" stroke-linejoin="round" />
<path d="M 80.0 122.0 L 80.0 122.0 L 80.0 122.0 L 80.0 122.0 L 79.0 123.0 L 79.0 123.0 L 79.0 123.0 L 79.0 124.0 L 78.0 125.0 L 78.0 126.0 L 77.0 128.0 L 76.0 132.0 L 75.0 136.0 L 74.0 142.0 L 72.0 148.0 L 70.0 154.0 L 67.0 162.0 L 64.0 169.0 L 62.0 177.0 L 58.0 185.0 L 55.0 191.0 L 52.0 197.0 L 49.0 201.0 L 46.0 204.0 L 45.0 205.0 " stroke="black" fill="none" stroke-width="5.0" stroke-linecap="round" stroke-linejoin="round" />
<path d="M 88.0 129.0 L 88.0 129.0 L 87.0 129.0 L 87.0 129.0 L 86.0 129.0 L 86.0 129.0 L 86.0 129.0 L 86.0 130.0 L 88.0 132.0 L 90.0 135.0 L 92.0 138.0 L 95.0 143.0 L 98.0 147.0 L 101.0 152.0 L 104.0 156.0 L 107.0 159.0 L 108.0 161.0 " stroke="black" fill="none" stroke-width="5.0" stroke-linecap="round" stroke-linejoin="round" />
<path d="M 144.0 81.0 L 144.0 81.0 L 144.0 81.0 L 144.0 81.0 L 144.0 81.0 L 144.0 81.0 L 144.0 81.0 L 144.0 82.0 L 144.0 84.0 L 144.0 87.0 L 144.0 92.0 L 144.0 99.0 L 144.0 106.0 L 144.0 114.0 L 144.0 120.0 L 143.0 125.0 L 143.0 128.0 " stroke="black" fill="none" stroke-width="5.0" stroke-linecap="round" stroke-linejoin="round" />
<path d="M 144.0 87.0 L 144.0 87.0 L 144.0 87.0 L 143.0 87.0 L 143.0 87.0 L 142.0 87.0 L 142.0 87.0 L 142.0 87.0 L 142.0 87.0 L 142.0 86.0 L 142.0 86.0 L 142.0 86.0 L 142.0 86.0 L 143.0 86.0 L 144.0 86.0 L 144.0 86.0 L 145.0 86.0 L 146.0 86.0 L 147.0 86.0 L 148.0 86.0 L 149.0 86.0 L 150.0 86.0 L 151.0 86.0 L 152.0 86.0 L 153.0 86.0 L 153.0 85.0 L 154.0 85.0 L 155.0 85.0 L 156.0 85.0 L 157.0 85.0 L 158.0 85.0 L 159.0 85.0 L 160.0 85.0 L 161.0 85.0 L 162.0 85.0 L 164.0 84.0 L 165.0 84.0 L 166.0 84.0 L 167.0 84.0 L 168.0 84.0 L 169.0 84.0 L 170.0 84.0 L 171.0 84.0 L 172.0 84.0 L 173.0 84.0 L 174.0 84.0 L 175.0 84.0 L 176.0 84.0 L 177.0 84.0 L 177.0 84.0 L 178.0 84.0 L 179.0 84.0 L 179.0 84.0 L 180.0 84.0 L 181.0 84.0 L 181.0 84.0 L 182.0 84.0 L 183.0 84.0 L 183.0 84.0 L 184.0 84.0 L 185.0 84.0 L 186.0 84.0 L 186.0 84.0 L 187.0 84.0 L 188.0 84.0 L 189.0 84.0 L 189.0 84.0 L 190.0 84.0 L 191.0 84.0 L 191.0 84.0 L 192.0 84.0 L 192.0 84.0 L 193.0 84.0 L 193.0 84.0 L 194.0 84.0 L 195.0 84.0 L 195.0 84.0 L 196.0 84.0 L 196.0 84.0 L 197.0 84.0 L 198.0 84.0 L 198.0 84.0 L 199.0 84.0 L 199.0 84.0 L 200.0 84.0 L 200.0 84.0 L 201.0 84.0 L 202.0 84.0 L 202.0 84.0 L 203.0 84.0 L 204.0 84.0 L 205.0 85.0 L 206.0 85.0 L 206.0 85.0 L 207.0 85.0 L 208.0 85.0 L 209.0 85.0 L 210.0 85.0 L 211.0 85.0 L 212.0 86.0 L 213.0 86.0 L 214.0 86.0 L 215.0 86.0 L 216.0 86.0 L 217.0 87.0 L 218.0 87.0 L 219.0 87.0 L 221.0 87.0 L 221.0 87.0 L 222.0 87.0 L 223.0 87.0 L 224.0 87.0 L 224.0 87.0 L 225.0 87.0 L 225.0 87.0 L 225.0 87.0 L 225.0 87.0 L 225.0 88.0 L 225.0 88.0 L 225.0 89.0 L 225.0 90.0 L 225.0 91.0 L 225.0 93.0 L 225.0 96.0 L 224.0 99.0 L 223.0 102.0 L 222.0 106.0 L 222.0 110.0 L 221.0 114.0 L 220.0 118.0 L 220.0 121.0 L 220.0 124.0 L 219.0 126.0 L 219.0 127.0 L 219.0 128.0 L 219.0 128.0 L 219.0 128.0 L 219.0 128.0 L 219.0 128.0 " stroke="black" fill="none" stroke-width="5.0" stroke-linecap="round" stroke-linejoin="round" />
<path d="M 146.0 130.0 L 146.0 130.0 L 146.0 130.0 L 146.0 130.0 L 146.0 130.0 L 146.0 130.0 L 146.0 130.0 L 146.0 130.0 L 146.0 130.0 L 146.0 130.0 L 146.0 130.0 L 147.0 130.0 L 148.0 130.0 L 150.0 130.0 L 152.0 130.0 L 156.0 130.0 L 161.0 130.0 L 166.0 130.0 L 173.0 130.0 L 179.0 130.0 L 185.0 130.0 L 190.0 130.0 L 195.0 130.0 L 198.0 130.0 L 201.0 130.0 L 204.0 130.0 L 208.0 130.0 L 212.0 131.0 L 214.0 131.0 " stroke="black" fill="none" stroke-width="5.0" stroke-linecap="round" stroke-linejoin="round" />
<path d="M 119.0 108.0 L 119.0 108.0 L 119.0 108.0 L 119.0 108.0 L 119.0 107.0 L 119.0 107.0 L 119.0 107.0 L 119.0 106.0 L 119.0 106.0 L 119.0 106.0 L 119.0 106.0 L 119.0 106.0 L 119.0 105.0 L 119.0 105.0 L 119.0 105.0 L 119.0 105.0 L 120.0 105.0 L 121.0 105.0 L 122.0 105.0 L 123.0 105.0 L 124.0 105.0 L 125.0 105.0 L 126.0 105.0 L 128.0 105.0 L 129.0 106.0 L 130.0 106.0 L 132.0 106.0 L 133.0 106.0 L 134.0 106.0 L 135.0 106.0 L 136.0 107.0 L 138.0 107.0 L 139.0 107.0 L 140.0 107.0 L 142.0 107.0 L 143.0 107.0 L 144.0 107.0 L 146.0 107.0 L 147.0 107.0 L 148.0 107.0 L 149.0 107.0 L 150.0 107.0 L 152.0 107.0 L 153.0 107.0 L 154.0 107.0 L 155.0 106.0 L 156.0 106.0 L 157.0 106.0 L 158.0 106.0 L 160.0 106.0 L 161.0 106.0 L 163.0 106.0 L 165.0 106.0 L 168.0 106.0 L 170.0 106.0 L 173.0 106.0 L 176.0 106.0 L 178.0 106.0 L 181.0 106.0 L 184.0 106.0 L 187.0 106.0 L 189.0 106.0 L 192.0 106.0 L 194.0 106.0 L 195.0 106.0 L 197.0 106.0 L 199.0 106.0 L 200.0 106.0 L 202.0 106.0 L 204.0 106.0 L 206.0 106.0 L 208.0 106.0 L 210.0 106.0 L 212.0 106.0 L 214.0 106.0 L 216.0 106.0 L 219.0 106.0 L 221.0 106.0 L 224.0 106.0 L 226.0 106.0 L 228.0 106.0 L 230.0 106.0 L 232.0 106.0 L 234.0 106.0 L 235.0 106.0 L 235.0 107.0 " stroke="black" fill="none" stroke-width="5.0" stroke-linecap="round" stroke-linejoin="round" />
<path d="M 133.0 155.0 L 133.0 155.0 L 133.0 156.0 L 133.0 156.0 L 133.0 157.0 L 133.0 158.0 L 133.0 160.0 L 133.0 162.0 L 133.0 163.0 L 134.0 165.0 L 134.0 167.0 L 135.0 169.0 L 136.0 170.0 L 137.0 171.0 " stroke="black" fill="none" stroke-width="5.0" stroke-linecap="round" stroke-linejoin="round" />
<path d="M 136.0 151.0 L 136.0 151.0 L 136.0 151.0 L 135.0 151.0 L 135.0 151.0 L 134.0 151.0 L 134.0 151.0 L 134.0 151.0 L 133.0 151.0 L 133.0 151.0 L 133.0 151.0 L 133.0 151.0 L 133.0 151.0 L 133.0 151.0 L 133.0 151.0 L 133.0 151.0 L 134.0 151.0 L 135.0 151.0 L 135.0 151.0 L 136.0 151.0 L 137.0 151.0 L 137.0 151.0 L 138.0 151.0 L 139.0 150.0 L 140.0 150.0 L 141.0 150.0 L 142.0 150.0 L 143.0 150.0 L 144.0 150.0 L 145.0 150.0 L 146.0 149.0 L 147.0 149.0 L 148.0 149.0 L 149.0 149.0 L 150.0 149.0 L 151.0 149.0 L 152.0 149.0 L 153.0 149.0 L 155.0 149.0 L 156.0 149.0 L 157.0 149.0 L 158.0 149.0 L 160.0 150.0 L 161.0 150.0 L 162.0 150.0 L 163.0 150.0 L 164.0 150.0 L 165.0 150.0 L 166.0 150.0 L 167.0 150.0 L 169.0 150.0 L 170.0 150.0 L 171.0 150.0 L 173.0 150.0 L 175.0 150.0 L 177.0 150.0 L 179.0 150.0 L 181.0 150.0 L 183.0 150.0 L 185.0 150.0 L 187.0 150.0 L 188.0 150.0 L 190.0 150.0 L 191.0 150.0 L 192.0 150.0 L 193.0 150.0 L 194.0 150.0 L 195.0 150.0 L 196.0 150.0 L 198.0 150.0 L 199.0 150.0 L 200.0 150.0 L 202.0 150.0 L 203.0 150.0 L 205.0 150.0 L 207.0 150.0 L 209.0 150.0 L 211.0 150.0 L 214.0 150.0 L 216.0 150.0 L 218.0 150.0 L 221.0 150.0 L 223.0 150.0 L 225.0 150.0 L 227.0 150.0 L 228.0 150.0 L 230.0 150.0 L 231.0 150.0 L 232.0 150.0 L 232.0 150.0 L 233.0 150.0 L 233.0 150.0 L 234.0 150.0 L 234.0 150.0 L 234.0 150.0 L 234.0 150.0 L 234.0 150.0 L 234.0 151.0 L 234.0 151.0 L 234.0 152.0 L 234.0 153.0 L 234.0 154.0 L 234.0 155.0 L 234.0 157.0 L 233.0 159.0 L 233.0 162.0 L 232.0 164.0 L 232.0 167.0 L 231.0 169.0 L 231.0 170.0 " stroke="black" fill="none" stroke-width="5.0" stroke-linecap="round" stroke-linejoin="round" />
<path d="M 136.0 176.0 L 136.0 176.0 L 136.0 176.0 L 136.0 176.0 L 136.0 176.0 L 136.0 176.0 L 136.0 176.0 L 136.0 176.0 L 137.0 176.0 L 138.0 175.0 L 140.0 175.0 L 142.0 175.0 L 145.0 175.0 L 148.0 175.0 L 152.0 175.0 L 158.0 175.0 L 165.0 175.0 L 173.0 175.0 L 181.0 175.0 L 188.0 175.0 L 194.0 175.0 L 199.0 175.0 L 203.0 175.0 L 207.0 174.0 L 211.0 174.0 L 215.0 174.0 L 219.0 174.0 L 222.0 173.0 L 224.0 173.0 " stroke="black" fill="none" stroke-width="5.0" stroke-linecap="round" stroke-linejoin="round" />
<path d="M 182.0 66.0 L 182.0 66.0 L 182.0 66.0 L 182.0 66.0 L 182.0 66.0 L 182.0 66.0 L 182.0 66.0 L 182.0 67.0 L 182.0 69.0 L 183.0 72.0 L 183.0 76.0 L 183.0 81.0 L 183.0 86.0 L 183.0 92.0 L 183.0 98.0 L 183.0 104.0 L 183.0 110.0 L 184.0 115.0 L 184.0 120.0 L 184.0 125.0 L 185.0 130.0 L 185.0 135.0 L 185.0 141.0 L 185.0 147.0 L 185.0 152.0 L 185.0 157.0 L 185.0 163.0 L 185.0 167.0 L 185.0 171.0 L 185.0 174.0 L 185.0 176.0 L 186.0 178.0 L 186.0 179.0 L 187.0 179.0 L 187.0 179.0 " stroke="black" fill="none" stroke-width="5.0" stroke-linecap="round" stroke-linejoin="round" />
<path d="M 116.0 200.0 L 116.0 200.0 L 116.0 200.0 L 115.0 200.0 L 115.0 200.0 L 115.0 200.0 L 115.0 200.0 L 115.0 200.0 L 115.0 200.0 L 115.0 200.0 L 115.0 200.0 L 115.0 200.0 L 115.0 200.0 L 115.0 199.0 L 115.0 199.0 L 116.0 199.0 L 117.0 199.0 L 118.0 199.0 L 120.0 199.0 L 122.0 199.0 L 124.0 199.0 L 126.0 199.0 L 129.0 199.0 L 132.0 199.0 L 134.0 199.0 L 137.0 200.0 L 139.0 200.0 L 142.0 200.0 L 144.0 200.0 L 146.0 200.0 L 148.0 200.0 L 149.0 200.0 L 151.0 200.0 L 152.0 200.0 L 153.0 199.0 L 155.0 199.0 L 156.0 199.0 L 158.0 199.0 L 159.0 198.0 L 161.0 198.0 L 163.0 198.0 L 166.0 198.0 L 168.0 198.0 L 171.0 198.0 L 174.0 198.0 L 177.0 198.0 L 180.0 198.0 L 183.0 198.0 L 186.0 198.0 L 189.0 198.0 L 192.0 198.0 L 195.0 198.0 L 198.0 198.0 L 201.0 198.0 L 203.0 199.0 L 207.0 200.0 L 210.0 200.0 L 213.0 201.0 L 217.0 202.0 L 220.0 202.0 L 223.0 203.0 L 227.0 203.0 L 230.0 204.0 L 232.0 204.0 L 235.0 204.0 L 237.0 204.0 L 239.0 204.0 L 241.0 203.0 " stroke="black" fill="none" stroke-width="5.0" stroke-linecap="round" stroke-linejoin="round" />
<path d="M 167.0 184.0 L 167.0 184.0 L 167.0 183.0 L 167.0 183.0 L 167.0 182.0 L 167.0 182.0 L 167.0 182.0 L 167.0 182.0 L 167.0 182.0 L 167.0 182.0 L 167.0 183.0 L 166.0 185.0 L 164.0 187.0 L 162.0 189.0 L 160.0 193.0 L 158.0 196.0 L 155.0 200.0 L 152.0 204.0 L 150.0 207.0 L 148.0 210.0 L 146.0 212.0 L 145.0 213.0 L 144.0 215.0 L 143.0 215.0 L 143.0 215.0 L 142.0 215.0 L 142.0 215.0 L 142.0 215.0 L 142.0 215.0 L 142.0 215.0 L 142.0 215.0 L 142.0 215.0 L 142.0 215.0 L 142.0 215.0 L 142.0 215.0 L 143.0 215.0 L 144.0 215.0 L 144.0 215.0 L 146.0 216.0 L 147.0 216.0 L 149.0 218.0 L 151.0 220.0 L 154.0 222.0 L 159.0 225.0 L 164.0 229.0 L 171.0 233.0 L 178.0 237.0 L 185.0 239.0 L 191.0 242.0 L 195.0 244.0 L 198.0 245.0 L 201.0 246.0 L 205.0 248.0 L 209.0 249.0 L 214.0 250.0 L 219.0 251.0 L 223.0 251.0 L 227.0 252.0 " stroke="black" fill="none" stroke-width="5.0" stroke-linecap="round" stroke-linejoin="round" />
<path d="M 218.0 191.0 L 218.0 191.0 L 218.0 191.0 L 218.0 191.0 L 218.0 191.0 L 217.0 191.0 L 217.0 192.0 L 216.0 193.0 L 215.0 194.0 L 214.0 196.0 L 212.0 198.0 L 209.0 200.0 L 206.0 204.0 L 202.0 207.0 L 198.0 211.0 L 194.0 216.0 L 189.0 220.0 L 185.0 225.0 L 179.0 230.0 L 170.0 235.0 L 161.0 239.0 L 153.0 243.0 L 145.0 246.0 L 138.0 250.0 L 130.0 253.0 L 122.0 256.0 L 116.0 259.0 L 112.0 261.0 " stroke="black" fill="none" stroke-width="5.0" stroke-linecap="round" stroke-linejoin="round" />
</svg>