<svg xmlns="http://www.w3.org/2000/svg" width="300" height="300" viewBox="0 0 300 300">
<path d="M 73.0 76.0 L 73.0 76.0 L 72.0 76.0 L 71.0 75.0 L 71.0 75.0 L 70.0 74.0 L 69.0 74.0 L 69.0 74.0 L 69.0 74.0 L 69.0 74.0 L 69.0 74.0 L 69.0 74.0 L 70.0 74.0 L 72.0 75.0 L 74.0 76.0 L 78.0 77.0 L 82.0 78.0 L 86.0 80.0 L 91.0 81.0 L 95.0 83.0 L 99.0 85.0 L 103.0 86.0 L 105.0 88.0 L 106.0 89.0 " stroke="black" fill="none" stroke-width="5.0" stroke-linecap="round" stroke-linejoin="round" />
<path d="M 67.0 127.0 L 67.0 127.0 L 67.0 127.0 L 67.0 127.0 L 67.0 127.0 L 67.0 127.0 L 68.0 128.0 L 69.0 128.0 L 72.0 129.0 L 75.0 131.0 L 80.0 132.0 L 85.0 134.0 L 90.0 136.0 L 94.0 137.0 L 99.0 140.0 L 102.0 141.0 L 103.0 142.0 " stroke="black" fill="none" stroke-width="5.0" stroke-linecap="round" stroke-linejoin="round" />
<path d="M 68.0 244.0 L 68.0 244.0 L 68.0 244.0 L 68.0 244.0 L 68.0 244.0 L 68.0 243.0 L 68.0 242.0 L 68.0 240.0 L 69.0 236.0 L 71.0 230.0 L 73.0 223.0 L 78.0 214.0 L 83.0 205.0 L 90.0 195.0 L 96.0 185.0 L 102.0 173.0 L 104.0 168.0 " stroke="black" fill="none" stroke-width="5.0" stroke-linecap="round" stroke-linejoin="round" />
<path d="M 121.0 80.0 L 121.0 80.0 L 121.0 80.0 L 121.0 81.0 L 121.0 82.0 L 121.0 83.0 L 121.0 85.0 L 121.0 87.0 L 121.0 91.0 L 121.0 95.0 L 121.0 100.0 L 121.0 105.0 L 121.0 109.0 L 121.0 112.0 L 121.0 114.0 L 121.0 114.0 " stroke="black" fill="none" stroke-width="5.0" stroke-linecap="round" stroke-linejoin="round" />
<path d="M 123.0 80.0 L 123.0 80.0 L 122.0 80.0 L 121.0 80.0 L 121.0 80.0 L 120.0 80.0 L 120.0 80.0 L 120.0 80.0 L 120.0 80.0 L 120.0 80.0 L 120.0 80.0 L 120.0 80.0 L 120.0 80.0 L 120.0 80.0 L 120.0 80.0 L 121.0 80.0 L 121.0 80.0 L 122.0 80.0 L 122.0 80.0 L 123.0 80.0 L 124.0 80.0 L 124.0 80.0 L 125.0 80.0 L 126.0 80.0 L 127.0 80.0 L 128.0 79.0 L 129.0 79.0 L 130.0 79.0 L 131.0 79.0 L 132.0 79.0 L 133.0 79.0 L 134.0 79.0 L 135.0 79.0 L 136.0 79.0 L 137.0 79.0 L 138.0 79.0 L 139.0 79.0 L 140.0 79.0 L 141.0 79.0 L 141.0 79.0 L 142.0 79.0 L 143.0 79.0 L 144.0 79.0 L 145.0 79.0 L 145.0 79.0 L 146.0 79.0 L 147.0 79.0 L 148.0 79.0 L 149.0 79.0 L 149.0 79.0 L 150.0 79.0 L 151.0 79.0 L 152.0 78.0 L 152.0 78.0 L 153.0 78.0 L 154.0 78.0 L 154.0 78.0 L 155.0 77.0 L 155.0 77.0 L 156.0 77.0 L 157.0 77.0 L 157.0 77.0 L 158.0 77.0 L 159.0 76.0 L 160.0 76.0 L 160.0 76.0 L 161.0 76.0 L 162.0 76.0 L 163.0 75.0 L 165.0 75.0 L 166.0 75.0 L 167.0 75.0 L 169.0 75.0 L 171.0 75.0 L 172.0 75.0 L 174.0 75.0 L 176.0 75.0 L 177.0 75.0 L 179.0 74.0 L 181.0 74.0 L 182.0 74.0 L 183.0 74.0 L 185.0 74.0 L 186.0 74.0 L 187.0 74.0 L 188.0 73.0 L 189.0 73.0 L 190.0 73.0 L 191.0 73.0 L 192.0 73.0 L 193.0 73.0 L 193.0 73.0 L 194.0 73.0 L 195.0 73.0 L 195.0 73.0 L 196.0 73.0 L 196.0 73.0 L 197.0 73.0 L 198.0 73.0 L 198.0 73.0 L 199.0 73.0 L 200.0 73.0 L 200.0 73.0 L 201.0 73.0 L 202.0 73.0 L 202.0 73.0 L 203.0 73.0 L 204.0 73.0 L 205.0 73.0 L 206.0 73.0 L 206.0 73.0 L 207.0 73.0 L 208.0 73.0 L 209.0 73.0 L 210.0 73.0 L 211.0 73.0 L 212.0 73.0 L 213.0 74.0 L 214.0 74.0 L 215.0 74.0 L 216.0 74.0 L 217.0 74.0 L 218.0 74.0 L 219.0 74.0 L 219.0 74.0 L 220.0 74.0 L 221.0 75.0 L 222.0 75.0 L 223.0 75.0 L 224.0 75.0 L 225.0 75.0 L 226.0 75.0 L 227.0 75.0 L 227.0 75.0 L 228.0 75.0 L 228.0 75.0 L 229.0 75.0 L 229.0 76.0 L 230.0 76.0 L 230.0 76.0 L 230.0 76.0 L 231.0 76.0 L 231.0 76.0 L 231.0 77.0 L 231.0 77.0 L 231.0 77.0 L 231.0 78.0 L 231.0 78.0 L 231.0 79.0 L 231.0 80.0 L 231.0 81.0 L 231.0 83.0 L 231.0 85.0 L 231.0 88.0 L 231.0 92.0 L 230.0 96.0 L 230.0 100.0 L 229.0 104.0 L 229.0 107.0 L 228.0 109.0 L 228.0 110.0 L 228.0 110.0 L 228.0 110.0 " stroke="black" fill="none" stroke-width="5.0" stroke-linecap="round" stroke-linejoin="round" />
<path d="M 153.0 81.0 L 153.0 81.0 L 153.0 81.0 L 153.0 81.0 L 153.0 82.0 L 153.0 82.0 L 153.0 84.0 L 153.0 87.0 L 154.0 90.0 L 154.0 95.0 L 154.0 100.0 L 155.0 104.0 L 155.0 109.0 L 155.0 112.0 L 155.0 114.0 L 156.0 116.0 " stroke="black" fill="none" stroke-width="5.0" stroke-linecap="round" stroke-linejoin="round" />
<path d="M 189.0 78.0 L 189.0 78.0 L 189.0 78.0 L 189.0 78.0 L 189.0 78.0 L 189.0 78.0 L 189.0 78.0 L 189.0 79.0 L 189.0 79.0 L 190.0 80.0 L 190.0 82.0 L 190.0 84.0 L 191.0 87.0 L 191.0 91.0 L 191.0 96.0 L 191.0 101.0 L 191.0 105.0 L 191.0 109.0 L 191.0 111.0 " stroke="black" fill="none" stroke-width="5.0" stroke-linecap="round" stroke-linejoin="round" />
<path d="M 124.0 119.0 L 124.0 119.0 L 124.0 119.0 L 124.0 119.0 L 124.0 119.0 L 124.0 119.0 L 124.0 119.0 L 124.0 119.0 L 124.0 119.0 L 124.0 119.0 L 124.0 119.0 L 124.0 119.0 L 124.0 119.0 L 124.0 119.0 L 124.0 119.0 L 124.0 119.0 L 125.0 119.0 L 125.0 119.0 L 126.0 119.0 L 127.0 119.0 L 128.0 119.0 L 129.0 119.0 L 130.0 119.0 L 131.0 119.0 L 132.0 119.0 L 134.0 119.0 L 135.0 119.0 L 137.0 119.0 L 138.0 119.0 L 140.0 119.0 L 141.0 119.0 L 143.0 119.0 L 144.0 119.0 L 145.0 119.0 L 146.0 119.0 L 147.0 118.0 L 148.0 118.0 L 150.0 118.0 L 151.0 118.0 L 152.0 118.0 L 153.0 118.0 L 153.0 118.0 L 154.0 118.0 L 156.0 118.0 L 157.0 118.0 L 158.0 118.0 L 159.0 117.0 L 160.0 117.0 L 161.0 117.0 L 163.0 117.0 L 164.0 117.0 L 166.0 117.0 L 167.0 116.0 L 169.0 116.0 L 171.0 116.0 L 172.0 116.0 L 174.0 116.0 L 176.0 116.0 L 178.0 115.0 L 180.0 115.0 L 182.0 115.0 L 184.0 115.0 L 185.0 115.0 L 187.0 115.0 L 188.0 115.0 L 189.0 115.0 L 190.0 115.0 L 191.0 115.0 L 193.0 115.0 L 194.0 115.0 L 195.0 115.0 L 196.0 115.0 L 197.0 115.0 L 198.0 115.0 L 199.0 115.0 L 200.0 115.0 L 202.0 115.0 L 203.0 115.0 L 204.0 115.0 L 206.0 115.0 L 207.0 115.0 L 209.0 115.0 L 211.0 115.0 L 213.0 115.0 L 215.0 115.0 L 217.0 115.0 L 218.0 115.0 L 220.0 115.0 L 221.0 115.0 " stroke="black" fill="none" stroke-width="5.0" stroke-linecap="round" stroke-linejoin="round" />
<path d="M 123.0 136.0 L 123.0 136.0 L 123.0 136.0 L 123.0 136.0 L 123.0 136.0 L 123.0 136.0 L 123.0 135.0 L 123.0 135.0 L 123.0 135.0 L 123.0 135.0 L 123.0 135.0 L 123.0 135.0 L 123.0 135.0 L 123.0 135.0 L 124.0 135.0 L 125.0 135.0 L 126.0 135.0 L 127.0 135.0 L 128.0 135.0 L 130.0 135.0 L 132.0 135.0 L 133.0 135.0 L 135.0 135.0 L 136.0 135.0 L 138.0 135.0 L 139.0 135.0 L 141.0 135.0 L 142.0 135.0 L 144.0 135.0 L 145.0 135.0 L 146.0 135.0 L 147.0 135.0 L 149.0 135.0 L 150.0 135.0 L 151.0 135.0 L 152.0 135.0 L 153.0 134.0 L 154.0 134.0 L 155.0 134.0 L 156.0 134.0 L 157.0 134.0 L 158.0 134.0 L 159.0 134.0 L 160.0 134.0 L 161.0 134.0 L 162.0 134.0 L 164.0 133.0 L 165.0 133.0 L 166.0 133.0 L 167.0 133.0 L 169.0 133.0 L 170.0 133.0 L 172.0 133.0 L 174.0 133.0 L 175.0 133.0 L 177.0 133.0 L 179.0 133.0 L 181.0 133.0 L 183.0 133.0 L 184.0 133.0 L 186.0 133.0 L 188.0 133.0 L 189.0 133.0 L 191.0 133.0 L 192.0 133.0 L 194.0 133.0 L 195.0 133.0 L 196.0 133.0 L 198.0 133.0 L 199.0 133.0 L 201.0 133.0 L 202.0 133.0 L 204.0 133.0 L 206.0 133.0 L 208.0 133.0 L 210.0 133.0 L 212.0 133.0 L 214.0 133.0 L 215.0 133.0 L 217.0 133.0 L 219.0 133.0 L 220.0 133.0 L 221.0 132.0 L 222.0 132.0 " stroke="black" fill="none" stroke-width="5.0" stroke-linecap="round" stroke-linejoin="round" />
<path d="M 176.0 118.0 L 176.0 118.0 L 176.0 118.0 L 176.0 119.0 L 176.0 120.0 L 176.0 121.0 L 176.0 123.0 L 176.0 125.0 L 176.0 128.0 L 176.0 131.0 L 176.0 135.0 L 176.0 139.0 L 176.0 144.0 L 175.0 148.0 L 175.0 152.0 L 174.0 156.0 L 173.0 159.0 L 173.0 161.0 " stroke="black" fill="none" stroke-width="5.0" stroke-linecap="round" stroke-linejoin="round" />
<path d="M 110.0 168.0 L 110.0 168.0 L 110.0 168.0 L 109.0 168.0 L 109.0 168.0 L 109.0 168.0 L 109.0 168.0 L 108.0 168.0 L 108.0 168.0 L 108.0 168.0 L 108.0 168.0 L 108.0 168.0 L 108.0 168.0 L 107.0 168.0 L 107.0 168.0 L 107.0 168.0 L 107.0 168.0 L 107.0 168.0 L 107.0 168.0 L 107.0 168.0 L 107.0 168.0 L 107.0 168.0 L 108.0 168.0 L 108.0 168.0 L 108.0 168.0 L 108.0 168.0 L 109.0 168.0 L 109.0 168.0 L 109.0 168.0 L 110.0 168.0 L 110.0 168.0 L 110.0 168.0 L 111.0 168.0 L 111.0 168.0 L 112.0 168.0 L 112.0 168.0 L 113.0 168.0 L 113.0 168.0 L 114.0 168.0 L 115.0 168.0 L 115.0 168.0 L 116.0 169.0 L 117.0 169.0 L 118.0 169.0 L 118.0 169.0 L 119.0 169.0 L 120.0 169.0 L 120.0 169.0 L 121.0 169.0 L 122.0 169.0 L 122.0 169.0 L 123.0 169.0 L 124.0 169.0 L 124.0 169.0 L 125.0 169.0 L 125.0 169.0 L 126.0 169.0 L 126.0 169.0 L 127.0 169.0 L 128.0 169.0 L 128.0 169.0 L 129.0 169.0 L 129.0 169.0 L 130.0 168.0 L 131.0 168.0 L 131.0 168.0 L 132.0 168.0 L 133.0 168.0 L 133.0 168.0 L 134.0 167.0 L 135.0 167.0 L 135.0 167.0 L 136.0 167.0 L 137.0 167.0 L 137.0 167.0 L 138.0 166.0 L 139.0 166.0 L 139.0 166.0 L 140.0 166.0 L 141.0 166.0 L 141.0 166.0 L 142.0 166.0 L 143.0 166.0 L 143.0 166.0 L 144.0 166.0 L 145.0 166.0 L 145.0 166.0 L 146.0 166.0 L 146.0 166.0 L 147.0 166.0 L 147.0 166.0 L 148.0 166.0 L 148.0 166.0 L 149.0 166.0 L 150.0 167.0 L 150.0 167.0 L 150.0 167.0 L 151.0 167.0 L 152.0 167.0 L 152.0 167.0 L 153.0 167.0 L 153.0 167.0 L 154.0 167.0 L 155.0 167.0 L 155.0 168.0 L 156.0 168.0 L 157.0 168.0 L 158.0 168.0 L 158.0 168.0 L 159.0 168.0 L 160.0 168.0 L 162.0 168.0 L 163.0 168.0 L 164.0 168.0 L 165.0 168.0 L 167.0 168.0 L 168.0 168.0 L 169.0 168.0 L 171.0 168.0 L 173.0 168.0 L 175.0 168.0 L 176.0 168.0 L 178.0 168.0 L 179.0 167.0 L 181.0 167.0 L 182.0 167.0 L 184.0 167.0 L 185.0 167.0 L 186.0 167.0 L 187.0 167.0 L 189.0 167.0 L 190.0 167.0 L 191.0 167.0 L 192.0 167.0 L 193.0 167.0 L 194.0 167.0 L 194.0 167.0 L 195.0 167.0 L 196.0 167.0 L 197.0 167.0 L 198.0 167.0 L 198.0 167.0 L 199.0 167.0 L 200.0 167.0 L 201.0 167.0 L 202.0 167.0 L 203.0 167.0 L 204.0 167.0 L 205.0 167.0 L 206.0 167.0 L 207.0 167.0 L 209.0 167.0 L 210.0 167.0 L 212.0 167.0 L 215.0 167.0 L 217.0 167.0 L 219.0 167.0 L 222.0 167.0 L 224.0 167.0 L 226.0 167.0 L 228.0 167.0 L 230.0 167.0 L 231.0 167.0 L 233.0 167.0 L 234.0 166.0 L 235.0 166.0 L 236.0 166.0 L 236.0 166.0 " stroke="black" fill="none" stroke-width="5.0" stroke-linecap="round" stroke-linejoin="round" />
<path d="M 146.0 166.0 L 146.0 166.0 L 146.0 166.0 L 146.0 166.0 L 146.0 166.0 L 146.0 167.0 L 146.0 168.0 L 146.0 170.0 L 147.0 173.0 L 148.0 176.0 L 150.0 180.0 L 151.0 183.0 L 153.0 187.0 L 155.0 189.0 L 156.0 190.0 " stroke="black" fill="none" stroke-width="5.0" stroke-linecap="round" stroke-linejoin="round" />
<path d="M 208.0 169.0 L 208.0 169.0 L 208.0 169.0 L 208.0 169.0 L 208.0 169.0 L 208.0 169.0 L 208.0 169.0 L 208.0 169.0 L 208.0 170.0 L 207.0 170.0 L 206.0 172.0 L 204.0 174.0 L 202.0 177.0 L 200.0 180.0 L 198.0 184.0 L 196.0 188.0 " stroke="black" fill="none" stroke-width="5.0" stroke-linecap="round" stroke-linejoin="round" />
<path d="M 118.0 198.0 L 118.0 198.0 L 117.0 198.0 L 116.0 198.0 L 116.0 198.0 L 115.0 198.0 L 115.0 198.0 L 114.0 198.0 L 114.0 198.0 L 114.0 198.0 L 114.0 198.0 L 114.0 198.0 L 114.0 198.0 L 114.0 197.0 L 114.0 197.0 L 114.0 197.0 L 114.0 197.0 L 115.0 197.0 L 115.0 197.0 L 116.0 197.0 L 116.0 196.0 L 117.0 196.0 L 117.0 196.0 L 118.0 196.0 L 119.0 196.0 L 120.0 196.0 L 121.0 196.0 L 121.0 195.0 L 122.0 195.0 L 123.0 195.0 L 125.0 195.0 L 126.0 195.0 L 127.0 195.0 L 128.0 195.0 L 130.0 195.0 L 131.0 195.0 L 132.0 195.0 L 134.0 195.0 L 135.0 195.0 L 137.0 195.0 L 138.0 195.0 L 139.0 196.0 L 141.0 196.0 L 142.0 196.0 L 143.0 196.0 L 144.0 196.0 L 145.0 196.0 L 146.0 196.0 L 147.0 196.0 L 148.0 196.0 L 150.0 196.0 L 151.0 196.0 L 152.0 196.0 L 153.0 196.0 L 155.0 196.0 L 157.0 196.0 L 158.0 196.0 L 161.0 196.0 L 163.0 196.0 L 166.0 196.0 L 170.0 196.0 L 174.0 196.0 L 178.0 195.0 L 183.0 195.0 L 187.0 194.0 L 191.0 194.0 L 194.0 193.0 L 197.0 193.0 L 200.0 192.0 L 202.0 192.0 L 204.0 192.0 L 206.0 192.0 L 208.0 192.0 L 211.0 192.0 L 213.0 192.0 L 216.0 192.0 L 218.0 192.0 L 221.0 191.0 L 222.0 191.0 L 223.0 191.0 L 225.0 191.0 L 225.0 191.0 L 225.0 191.0 " stroke="black" fill="none" stroke-width="5.0" stroke-linecap="round" stroke-linejoin="round" />
<path d="M 107.0 226.0 L 107.0 226.0 L 107.0 226.0 L 107.0 226.0 L 107.0 226.0 L 107.0 226.0 L 107.0 226.0 L 107.0 227.0 L 107.0 227.0 L 107.0 227.0 L 107.0 227.0 L 107.0 227.0 L 107.0 227.0 L 107.0 227.0 L 108.0 227.0 L 108.0 227.0 L 109.0 227.0 L 110.0 227.0 L 110.0 227.0 L 111.0 227.0 L 112.0 227.0 L 114.0 227.0 L 115.0 227.0 L 116.0 227.0 L 118.0 227.0 L 120.0 227.0 L 121.0 227.0 L 123.0 227.0 L 125.0 227.0 L 126.0 227.0 L 128.0 227.0 L 130.0 227.0 L 132.0 227.0 L 134.0 227.0 L 136.0 227.0 L 138.0 227.0 L 140.0 227.0 L 141.0 227.0 L 143.0 227.0 L 145.0 227.0 L 147.0 227.0 L 148.0 227.0 L 150.0 227.0 L 151.0 227.0 L 152.0 227.0 L 153.0 227.0 L 154.0 227.0 L 155.0 227.0 L 156.0 227.0 L 157.0 227.0 L 158.0 227.0 L 159.0 227.0 L 161.0 227.0 L 162.0 227.0 L 164.0 227.0 L 166.0 227.0 L 167.0 227.0 L 169.0 226.0 L 171.0 226.0 L 172.0 226.0 L 174.0 226.0 L 176.0 226.0 L 177.0 226.0 L 179.0 226.0 L 180.0 226.0 L 182.0 226.0 L 183.0 226.0 L 184.0 225.0 L 186.0 225.0 L 187.0 225.0 L 188.0 225.0 L 189.0 225.0 L 191.0 225.0 L 192.0 225.0 L 193.0 225.0 L 194.0 225.0 L 195.0 225.0 L 196.0 225.0 L 198.0 226.0 L 199.0 226.0 L 200.0 226.0 L 202.0 226.0 L 203.0 227.0 L 205.0 227.0 L 207.0 227.0 L 208.0 227.0 L 210.0 228.0 L 213.0 228.0 L 215.0 228.0 L 218.0 228.0 L 220.0 228.0 L 223.0 228.0 L 225.0 228.0 L 227.0 228.0 L 229.0 228.0 L 231.0 228.0 L 233.0 228.0 L 234.0 227.0 L 235.0 227.0 L 236.0 227.0 L 236.0 226.0 L 237.0 226.0 L 237.0 226.0 L 237.0 226.0 " stroke="black" fill="none" stroke-width="5.0" stroke-linecap="round" stroke-linejoin="round" />
<path d="M 167.0 196.0 L 167.0 196.0 L 167.0 196.0 L 167.0 196.0 L 167.0 196.0 L 167.0 196.0 L 167.0 197.0 L 167.0 198.0 L 167.0 201.0 L 167.0 205.0 L 168.0 210.0 L 168.0 215.0 L 168.0 222.0 L 168.0 228.0 L 168.0 234.0 L 168.0 239.0 L 168.0 244.0 L 168.0 247.0 L 168.0 251.0 L 168.0 252.0 L 168.0 254.0 L 168.0 254.0 " stroke="black" fill="none" stroke-width="5.0" stroke-linecap="round" stroke-linejoin="round" />
</svg>