<svg xmlns="http://www.w3.org/2000/svg" width="300" height="300" viewBox="0 0 300 300">
<path d="M 110.0 71.0 L 110.0 71.0 L 110.0 70.0 L 110.0 70.0 L 109.0 70.0 L 109.0 70.0 L 109.0 70.0 L 109.0 70.0 L 109.0 72.0 L 110.0 74.0 L 110.0 77.0 L 111.0 81.0 L 111.0 84.0 L 111.0 89.0 L 112.0 94.0 L 112.0 99.0 L 112.0 103.0 L 112.0 107.0 L 112.0 110.0 " stroke="black" fill="none" stroke-width="5.0" stroke-linecap="round" stroke-linejoin="round" />
<path d="M 72.0 89.0 L 72.0 89.0 L 71.0 89.0 L 71.0 89.0 L 71.0 89.0 L 71.0 89.0 L 71.0 89.0 L 72.0 89.0 L 73.0 89.0 L 76.0 89.0 L 79.0 89.0 L 83.0 89.0 L 87.0 89.0 L 92.0 90.0 L 98.0 90.0 L 104.0 90.0 L 109.0 91.0 L 115.0 91.0 L 122.0 92.0 L 129.0 92.0 " stroke="black" fill="none" stroke-width="5.0" stroke-linecap="round" stroke-linejoin="round" />
<path d="M 161.0 90.0 L 161.0 90.0 L 160.0 90.0 L 159.0 90.0 L 158.0 90.0 L 158.0 90.0 L 157.0 90.0 L 157.0 90.0 L 157.0 90.0 L 157.0 90.0 L 157.0 90.0 L 158.0 90.0 L 161.0 90.0 L 165.0 90.0 L 171.0 90.0 L 177.0 90.0 L 183.0 90.0 L 189.0 90.0 L 195.0 90.0 L 200.0 89.0 L 205.0 88.0 L 210.0 88.0 L 213.0 87.0 L 216.0 87.0 L 218.0 87.0 " stroke="black" fill="none" stroke-width="5.0" stroke-linecap="round" stroke-linejoin="round" />
<path d="M 187.0 74.0 L 186.0 74.0 L 186.0 74.0 L 185.0 73.0 L 185.0 73.0 L 184.0 73.0 L 184.0 73.0 L 184.0 75.0 L 184.0 77.0 L 184.0 80.0 L 185.0 83.0 L 185.0 87.0 L 185.0 92.0 L 185.0 98.0 L 185.0 103.0 L 185.0 107.0 L 185.0 110.0 " stroke="black" fill="none" stroke-width="5.0" stroke-linecap="round" stroke-linejoin="round" />
<path d="M 78.0 127.0 L 78.0 127.0 L 78.0 127.0 L 77.0 127.0 L 77.0 127.0 L 77.0 127.0 L 77.0 127.0 L 77.0 128.0 L 79.0 129.0 L 82.0 130.0 L 86.0 132.0 L 90.0 133.0 L 95.0 135.0 L 99.0 137.0 L 103.0 139.0 L 107.0 141.0 L 108.0 142.0 " stroke="black" fill="none" stroke-width="5.0" stroke-linecap="round" stroke-linejoin="round" />
<path d="M 66.0 165.0 L 66.0 165.0 L 66.0 165.0 L 65.0 165.0 L 65.0 165.0 L 65.0 165.0 L 65.0 165.0 L 65.0 165.0 L 66.0 166.0 L 68.0 167.0 L 72.0 168.0 L 76.0 169.0 L 81.0 170.0 L 87.0 171.0 L 93.0 172.0 L 98.0 173.0 L 101.0 174.0 " stroke="black" fill="none" stroke-width="5.0" stroke-linecap="round" stroke-linejoin="round" />
<path d="M 77.0 240.0 L 77.0 240.0 L 76.0 240.0 L 76.0 240.0 L 76.0 240.0 L 76.0 240.0 L 76.0 239.0 L 76.0 239.0 L 78.0 237.0 L 81.0 234.0 L 86.0 229.0 L 93.0 223.0 L 101.0 214.0 L 109.0 204.0 L 116.0 195.0 L 120.0 191.0 " stroke="black" fill="none" stroke-width="5.0" stroke-linecap="round" stroke-linejoin="round" />
<path d="M 180.0 123.0 L 180.0 123.0 L 179.0 123.0 L 178.0 122.0 L 177.0 122.0 L 176.0 122.0 L 176.0 122.0 L 176.0 122.0 L 176.0 122.0 L 176.0 123.0 L 177.0 124.0 L 178.0 125.0 L 180.0 127.0 L 181.0 128.0 L 183.0 130.0 L 184.0 133.0 L 186.0 135.0 L 187.0 137.0 L 188.0 140.0 L 188.0 141.0 " stroke="black" fill="none" stroke-width="5.0" stroke-linecap="round" stroke-linejoin="round" />
<path d="M 127.0 148.0 L 127.0 148.0 L 126.0 148.0 L 126.0 148.0 L 126.0 147.0 L 125.0 147.0 L 125.0 147.0 L 125.0 147.0 L 125.0 147.0 L 126.0 147.0 L 128.0 147.0 L 131.0 147.0 L 134.0 147.0 L 138.0 147.0 L 142.0 147.0 L 146.0 147.0 L 151.0 147.0 L 157.0 147.0 L 162.0 147.0 L 169.0 147.0 L 177.0 146.0 L 183.0 145.0 L 189.0 144.0 L 193.0 144.0 L 196.0 144.0 L 198.0 143.0 L 200.0 143.0 L 201.0 143.0 L 202.0 144.0 L 204.0 145.0 L 205.0 145.0 L 205.0 146.0 " stroke="black" fill="none" stroke-width="5.0" stroke-linecap="round" stroke-linejoin="round" />
<path d="M 147.0 156.0 L 147.0 156.0 L 147.0 156.0 L 147.0 156.0 L 147.0 156.0 L 147.0 156.0 L 146.0 156.0 L 146.0 156.0 L 146.0 156.0 L 146.0 156.0 L 146.0 157.0 L 146.0 158.0 L 146.0 160.0 L 146.0 162.0 L 146.0 164.0 L 146.0 166.0 L 146.0 168.0 L 146.0 171.0 L 146.0 173.0 L 146.0 176.0 L 146.0 178.0 L 145.0 181.0 L 145.0 183.0 L 145.0 185.0 L 145.0 187.0 L 145.0 189.0 L 145.0 191.0 L 145.0 192.0 L 145.0 194.0 L 145.0 195.0 L 145.0 197.0 L 145.0 198.0 L 145.0 200.0 L 145.0 201.0 L 145.0 202.0 L 145.0 203.0 L 145.0 205.0 L 145.0 206.0 L 145.0 207.0 L 145.0 208.0 L 145.0 209.0 L 145.0 210.0 L 145.0 211.0 L 145.0 211.0 L 145.0 212.0 L 145.0 213.0 L 145.0 214.0 L 144.0 214.0 L 144.0 215.0 L 144.0 216.0 L 144.0 217.0 L 144.0 218.0 L 144.0 219.0 L 144.0 220.0 L 144.0 220.0 L 144.0 221.0 L 144.0 222.0 L 144.0 223.0 L 144.0 224.0 L 144.0 224.0 L 144.0 225.0 L 144.0 226.0 L 144.0 226.0 L 145.0 227.0 L 145.0 227.0 L 145.0 228.0 L 146.0 228.0 L 146.0 228.0 L 147.0 229.0 L 147.0 229.0 L 147.0 229.0 L 148.0 230.0 L 148.0 230.0 L 149.0 230.0 L 149.0 230.0 L 150.0 231.0 L 150.0 231.0 L 150.0 232.0 L 151.0 232.0 L 151.0 232.0 L 152.0 233.0 L 153.0 233.0 L 154.0 233.0 L 155.0 234.0 L 156.0 234.0 L 157.0 234.0 L 159.0 234.0 L 161.0 235.0 L 164.0 235.0 L 166.0 235.0 L 169.0 235.0 L 172.0 236.0 L 175.0 236.0 L 178.0 236.0 L 181.0 236.0 L 184.0 236.0 L 186.0 237.0 L 189.0 237.0 L 191.0 237.0 L 193.0 238.0 L 196.0 238.0 L 198.0 238.0 L 200.0 238.0 L 203.0 238.0 L 205.0 238.0 L 208.0 238.0 L 210.0 238.0 L 213.0 238.0 L 216.0 238.0 L 219.0 239.0 L 222.0 239.0 L 224.0 239.0 L 227.0 239.0 L 229.0 239.0 L 230.0 239.0 L 231.0 239.0 L 232.0 239.0 L 232.0 239.0 L 232.0 239.0 L 232.0 239.0 " stroke="black" fill="none" stroke-width="5.0" stroke-linecap="round" stroke-linejoin="round" />
</svg>