<svg xmlns="http://www.w3.org/2000/svg" width="300" height="300" viewBox="0 0 300 300">
<path d="M 62.0 115.0 L 62.0 115.0 L 62.0 115.0 L 62.0 115.0 L 61.0 115.0 L 61.0 115.0 L 61.0 115.0 L 61.0 115.0 L 61.0 115.0 L 60.0 115.0 L 60.0 115.0 L 60.0 115.0 L 60.0 115.0 L 60.0 115.0 L 60.0 115.0 L 60.0 115.0 L 60.0 115.0 L 60.0 115.0 L 60.0 115.0 L 60.0 115.0 L 61.0 115.0 L 61.0 116.0 L 61.0 116.0 L 62.0 116.0 L 62.0 116.0 L 62.0 116.0 L 63.0 116.0 L 63.0 116.0 L 64.0 116.0 L 64.0 116.0 L 65.0 116.0 L 66.0 116.0 L 66.0 116.0 L 67.0 116.0 L 68.0 116.0 L 69.0 116.0 L 70.0 116.0 L 71.0 116.0 L 72.0 116.0 L 73.0 116.0 L 75.0 116.0 L 76.0 116.0 L 77.0 116.0 L 79.0 116.0 L 81.0 116.0 L 83.0 116.0 L 85.0 116.0 L 87.0 116.0 L 89.0 116.0 L 92.0 116.0 L 94.0 116.0 L 97.0 116.0 L 99.0 116.0 L 102.0 116.0 L 104.0 116.0 L 106.0 116.0 L 108.0 116.0 L 110.0 116.0 L 112.0 116.0 L 113.0 115.0 L 115.0 115.0 L 116.0 115.0 L 117.0 114.0 L 118.0 114.0 L 118.0 113.0 L 119.0 113.0 L 119.0 113.0 " stroke="black" fill="none" stroke-width="5.0" stroke-linecap="round" stroke-linejoin="round" />
<path d="M 92.0 74.0 L 92.0 74.0 L 92.0 75.0 L 93.0 75.0 L 93.0 76.0 L 93.0 77.0 L 93.0 78.0 L 93.0 79.0 L 94.0 80.0 L 94.0 82.0 L 94.0 84.0 L 94.0 85.0 L 94.0 88.0 L 94.0 90.0 L 94.0 93.0 L 94.0 96.0 L 94.0 100.0 L 94.0 103.0 L 94.0 106.0 L 94.0 109.0 L 94.0 113.0 L 94.0 115.0 L 94.0 118.0 L 94.0 120.0 L 94.0 122.0 L 94.0 124.0 L 94.0 126.0 L 94.0 128.0 L 94.0 130.0 L 94.0 132.0 L 95.0 134.0 L 95.0 136.0 L 95.0 139.0 L 95.0 141.0 L 95.0 143.0 L 95.0 145.0 L 95.0 148.0 L 95.0 150.0 L 95.0 152.0 L 95.0 153.0 L 94.0 155.0 L 94.0 157.0 L 94.0 159.0 L 94.0 160.0 L 94.0 162.0 L 94.0 164.0 L 94.0 165.0 L 94.0 167.0 L 94.0 169.0 L 94.0 170.0 L 94.0 172.0 L 94.0 174.0 L 94.0 176.0 L 94.0 177.0 L 94.0 179.0 L 94.0 181.0 L 94.0 183.0 L 94.0 185.0 L 94.0 188.0 L 94.0 190.0 L 94.0 192.0 L 94.0 194.0 L 94.0 196.0 L 94.0 198.0 L 94.0 200.0 L 94.0 202.0 L 94.0 204.0 L 94.0 206.0 L 94.0 208.0 L 94.0 209.0 L 94.0 211.0 L 94.0 213.0 L 94.0 214.0 L 94.0 216.0 L 94.0 218.0 L 93.0 220.0 L 93.0 222.0 L 93.0 224.0 L 93.0 226.0 L 93.0 228.0 L 93.0 230.0 L 93.0 231.0 L 93.0 233.0 L 93.0 234.0 L 93.0 235.0 L 93.0 237.0 L 93.0 237.0 L 92.0 238.0 L 92.0 239.0 L 92.0 240.0 L 92.0 241.0 L 91.0 242.0 L 91.0 243.0 L 91.0 244.0 L 91.0 245.0 L 91.0 246.0 L 90.0 247.0 L 90.0 247.0 L 90.0 248.0 L 89.0 248.0 L 89.0 248.0 L 88.0 248.0 L 88.0 248.0 L 87.0 248.0 L 86.0 247.0 L 84.0 247.0 L 83.0 246.0 L 81.0 245.0 L 79.0 244.0 L 77.0 243.0 L 75.0 241.0 L 72.0 239.0 L 69.0 237.0 " stroke="black" fill="none" stroke-width="5.0" stroke-linecap="round" stroke-linejoin="round" />
<path d="M 62.0 185.0 L 62.0 185.0 L 62.0 185.0 L 62.0 185.0 L 62.0 185.0 L 61.0 186.0 L 61.0 186.0 L 61.0 186.0 L 61.0 186.0 L 62.0 186.0 L 64.0 185.0 L 68.0 183.0 L 72.0 181.0 L 79.0 178.0 L 88.0 173.0 L 96.0 169.0 L 104.0 165.0 L 109.0 162.0 L 113.0 160.0 L 115.0 159.0 L 116.0 159.0 L 117.0 159.0 " stroke="black" fill="none" stroke-width="5.0" stroke-linecap="round" stroke-linejoin="round" />
<path d="M 148.0 103.0 L 148.0 103.0 L 148.0 103.0 L 148.0 103.0 L 147.0 103.0 L 147.0 103.0 L 147.0 103.0 L 147.0 103.0 L 147.0 102.0 L 148.0 102.0 L 148.0 102.0 L 149.0 102.0 L 150.0 101.0 L 152.0 101.0 L 153.0 101.0 L 155.0 101.0 L 157.0 101.0 L 160.0 101.0 L 163.0 101.0 L 166.0 100.0 L 171.0 100.0 L 175.0 100.0 L 178.0 100.0 L 182.0 100.0 L 186.0 100.0 L 189.0 100.0 L 191.0 100.0 L 194.0 100.0 L 196.0 100.0 L 198.0 100.0 L 200.0 100.0 L 203.0 100.0 L 205.0 100.0 L 207.0 100.0 L 210.0 100.0 L 212.0 100.0 L 214.0 100.0 L 217.0 100.0 L 219.0 100.0 L 220.0 100.0 L 221.0 101.0 " stroke="black" fill="none" stroke-width="5.0" stroke-linecap="round" stroke-linejoin="round" />
<path d="M 147.0 80.0 L 147.0 80.0 L 147.0 80.0 L 147.0 80.0 L 147.0 80.0 L 147.0 80.0 L 147.0 80.0 L 147.0 81.0 L 147.0 82.0 L 147.0 83.0 L 147.0 85.0 L 147.0 88.0 L 147.0 91.0 L 147.0 94.0 L 147.0 98.0 L 147.0 102.0 L 147.0 105.0 L 147.0 109.0 L 147.0 112.0 L 147.0 115.0 L 147.0 117.0 L 147.0 120.0 L 147.0 122.0 L 147.0 124.0 L 147.0 126.0 L 147.0 127.0 L 147.0 129.0 L 147.0 130.0 L 147.0 131.0 L 147.0 132.0 L 148.0 133.0 L 148.0 134.0 L 148.0 134.0 L 148.0 135.0 L 149.0 135.0 L 149.0 136.0 L 149.0 137.0 L 150.0 137.0 L 150.0 138.0 L 150.0 139.0 L 150.0 139.0 L 151.0 140.0 L 151.0 140.0 L 152.0 141.0 L 152.0 141.0 L 152.0 141.0 L 153.0 142.0 L 153.0 142.0 L 153.0 142.0 L 154.0 143.0 L 154.0 143.0 L 155.0 143.0 L 156.0 143.0 L 157.0 144.0 L 158.0 144.0 L 159.0 144.0 L 160.0 144.0 L 162.0 144.0 L 164.0 144.0 L 166.0 144.0 L 168.0 144.0 L 170.0 144.0 L 173.0 144.0 L 176.0 144.0 L 178.0 144.0 L 181.0 144.0 L 184.0 144.0 L 186.0 144.0 L 188.0 144.0 L 190.0 144.0 L 191.0 144.0 L 193.0 144.0 L 194.0 144.0 L 196.0 144.0 L 197.0 143.0 L 198.0 143.0 L 200.0 143.0 L 201.0 143.0 L 203.0 143.0 L 205.0 143.0 L 206.0 142.0 L 208.0 142.0 L 210.0 142.0 L 212.0 142.0 L 214.0 142.0 L 216.0 142.0 L 218.0 142.0 L 220.0 142.0 L 221.0 143.0 L 223.0 143.0 L 225.0 143.0 L 226.0 143.0 L 228.0 143.0 L 229.0 143.0 L 230.0 143.0 L 231.0 143.0 L 232.0 143.0 L 233.0 143.0 L 233.0 143.0 L 234.0 143.0 L 234.0 143.0 " stroke="black" fill="none" stroke-width="5.0" stroke-linecap="round" stroke-linejoin="round" />
<path d="M 146.0 171.0 L 146.0 171.0 L 146.0 171.0 L 146.0 171.0 L 146.0 171.0 L 146.0 171.0 L 146.0 171.0 L 146.0 172.0 L 146.0 172.0 L 146.0 173.0 L 146.0 174.0 L 146.0 175.0 L 146.0 177.0 L 146.0 179.0 L 146.0 181.0 L 146.0 184.0 L 146.0 187.0 L 146.0 190.0 L 146.0 194.0 L 146.0 197.0 L 146.0 201.0 L 146.0 204.0 L 147.0 208.0 L 147.0 212.0 L 147.0 215.0 L 147.0 220.0 L 148.0 224.0 L 148.0 228.0 L 148.0 232.0 L 148.0 236.0 L 148.0 239.0 L 148.0 241.0 L 148.0 243.0 L 147.0 243.0 L 147.0 244.0 L 147.0 244.0 L 147.0 244.0 L 146.0 244.0 " stroke="black" fill="none" stroke-width="5.0" stroke-linecap="round" stroke-linejoin="round" />
<path d="M 149.0 173.0 L 149.0 173.0 L 149.0 173.0 L 149.0 173.0 L 149.0 173.0 L 149.0 172.0 L 149.0 172.0 L 149.0 172.0 L 149.0 172.0 L 149.0 171.0 L 149.0 171.0 L 149.0 171.0 L 149.0 171.0 L 149.0 171.0 L 149.0 171.0 L 149.0 171.0 L 149.0 171.0 L 149.0 171.0 L 149.0 171.0 L 150.0 171.0 L 150.0 171.0 L 150.0 171.0 L 151.0 171.0 L 152.0 171.0 L 152.0 171.0 L 153.0 171.0 L 154.0 171.0 L 155.0 171.0 L 156.0 172.0 L 157.0 172.0 L 158.0 172.0 L 159.0 172.0 L 161.0 172.0 L 162.0 172.0 L 163.0 172.0 L 165.0 172.0 L 166.0 172.0 L 167.0 172.0 L 169.0 172.0 L 170.0 172.0 L 171.0 172.0 L 172.0 172.0 L 173.0 172.0 L 174.0 172.0 L 175.0 172.0 L 175.0 172.0 L 177.0 172.0 L 177.0 172.0 L 178.0 172.0 L 179.0 172.0 L 180.0 172.0 L 181.0 172.0 L 182.0 172.0 L 183.0 172.0 L 184.0 172.0 L 185.0 172.0 L 186.0 172.0 L 187.0 172.0 L 188.0 171.0 L 189.0 171.0 L 189.0 171.0 L 190.0 171.0 L 191.0 171.0 L 192.0 171.0 L 192.0 171.0 L 193.0 171.0 L 194.0 171.0 L 194.0 171.0 L 195.0 171.0 L 195.0 171.0 L 196.0 171.0 L 197.0 171.0 L 197.0 170.0 L 198.0 170.0 L 199.0 170.0 L 199.0 170.0 L 200.0 170.0 L 201.0 170.0 L 202.0 170.0 L 203.0 170.0 L 203.0 170.0 L 204.0 170.0 L 205.0 170.0 L 206.0 170.0 L 207.0 170.0 L 208.0 170.0 L 209.0 170.0 L 210.0 170.0 L 211.0 170.0 L 212.0 170.0 L 213.0 170.0 L 214.0 170.0 L 215.0 171.0 L 216.0 171.0 L 217.0 171.0 L 218.0 171.0 L 218.0 171.0 L 219.0 171.0 L 220.0 172.0 L 221.0 172.0 L 221.0 172.0 L 222.0 172.0 L 223.0 172.0 L 223.0 172.0 L 223.0 173.0 L 224.0 173.0 L 224.0 173.0 L 224.0 173.0 L 224.0 173.0 L 225.0 174.0 L 225.0 174.0 L 225.0 175.0 L 225.0 176.0 L 225.0 177.0 L 225.0 178.0 L 225.0 180.0 L 225.0 182.0 L 225.0 184.0 L 225.0 186.0 L 225.0 188.0 L 225.0 191.0 L 225.0 194.0 L 225.0 197.0 L 225.0 200.0 L 225.0 204.0 L 225.0 207.0 L 225.0 210.0 L 225.0 213.0 L 225.0 216.0 L 225.0 218.0 L 225.0 221.0 L 225.0 223.0 L 225.0 225.0 L 225.0 227.0 L 225.0 230.0 L 225.0 232.0 L 224.0 234.0 L 224.0 237.0 L 224.0 239.0 L 224.0 242.0 L 223.0 244.0 L 223.0 245.0 L 223.0 247.0 L 222.0 248.0 L 222.0 248.0 L 222.0 248.0 " stroke="black" fill="none" stroke-width="5.0" stroke-linecap="round" stroke-linejoin="round" />
<path d="M 150.0 204.0 L 150.0 204.0 L 150.0 204.0 L 150.0 204.0 L 150.0 204.0 L 150.0 204.0 L 150.0 204.0 L 151.0 204.0 L 152.0 204.0 L 153.0 204.0 L 156.0 204.0 L 159.0 204.0 L 165.0 203.0 L 171.0 203.0 L 178.0 203.0 L 185.0 202.0 L 192.0 201.0 L 197.0 200.0 L 202.0 200.0 L 205.0 200.0 L 209.0 200.0 L 212.0 201.0 L 214.0 203.0 L 217.0 204.0 L 219.0 206.0 " stroke="black" fill="none" stroke-width="5.0" stroke-linecap="round" stroke-linejoin="round" />
<path d="M 149.0 245.0 L 149.0 245.0 L 149.0 245.0 L 149.0 245.0 L 149.0 245.0 L 149.0 245.0 L 150.0 245.0 L 150.0 245.0 L 152.0 245.0 L 154.0 245.0 L 158.0 245.0 L 163.0 245.0 L 170.0 244.0 L 178.0 244.0 L 185.0 244.0 L 192.0 243.0 L 197.0 243.0 L 202.0 243.0 L 206.0 243.0 L 209.0 242.0 L 212.0 242.0 L 215.0 242.0 L 217.0 242.0 L 218.0 242.0 L 218.0 242.0 " stroke="black" fill="none" stroke-width="5.0" stroke-linecap="round" stroke-linejoin="round" />
</svg>