<svg xmlns="http://www.w3.org/2000/svg" width="300" height="300" viewBox="0 0 300 300">
<path d="M 67.0 88.0 L 67.0 88.0 L 67.0 88.0 L 66.0 88.0 L 66.0 88.0 L 65.0 88.0 L 65.0 88.0 L 64.0 88.0 L 64.0 88.0 L 64.0 88.0 L 64.0 88.0 L 64.0 88.0 L 64.0 88.0 L 64.0 88.0 L 64.0 88.0 L 64.0 88.0 L 65.0 88.0 L 65.0 88.0 L 66.0 88.0 L 67.0 88.0 L 68.0 88.0 L 69.0 89.0 L 71.0 89.0 L 72.0 89.0 L 73.0 89.0 L 75.0 89.0 L 76.0 89.0 L 78.0 89.0 L 79.0 90.0 L 81.0 90.0 L 83.0 90.0 L 84.0 90.0 L 86.0 90.0 L 88.0 90.0 L 89.0 90.0 L 91.0 90.0 L 92.0 90.0 L 94.0 90.0 L 95.0 90.0 L 97.0 90.0 L 98.0 90.0 L 100.0 90.0 L 101.0 90.0 L 103.0 90.0 L 104.0 90.0 L 105.0 90.0 L 107.0 90.0 L 108.0 90.0 L 109.0 90.0 L 111.0 90.0 L 112.0 90.0 L 113.0 90.0 L 115.0 90.0 L 116.0 90.0 L 118.0 90.0 L 120.0 90.0 L 122.0 90.0 L 124.0 90.0 L 126.0 89.0 L 128.0 89.0 L 131.0 89.0 L 133.0 89.0 L 136.0 89.0 L 139.0 89.0 L 141.0 89.0 L 143.0 89.0 L 146.0 89.0 L 148.0 89.0 L 150.0 89.0 L 151.0 88.0 L 153.0 88.0 L 154.0 88.0 L 156.0 88.0 L 158.0 88.0 L 159.0 88.0 L 161.0 88.0 L 164.0 88.0 L 166.0 88.0 L 168.0 88.0 L 171.0 88.0 L 173.0 88.0 L 176.0 88.0 L 179.0 87.0 L 182.0 87.0 L 185.0 87.0 L 187.0 87.0 L 190.0 87.0 L 192.0 87.0 L 194.0 87.0 L 196.0 87.0 L 197.0 88.0 L 199.0 88.0 L 200.0 88.0 L 202.0 89.0 L 204.0 89.0 L 206.0 89.0 L 208.0 89.0 L 210.0 89.0 L 212.0 89.0 L 213.0 89.0 " stroke="black" fill="none" stroke-width="5.0" stroke-linecap="round" stroke-linejoin="round" />
<path d="M 82.0 160.0 L 82.0 160.0 L 82.0 160.0 L 82.0 160.0 L 81.0 160.0 L 81.0 160.0 L 81.0 160.0 L 81.0 160.0 L 81.0 160.0 L 81.0 160.0 L 81.0 160.0 L 81.0 160.0 L 81.0 160.0 L 82.0 160.0 L 83.0 160.0 L 85.0 160.0 L 87.0 160.0 L 89.0 160.0 L 91.0 159.0 L 93.0 159.0 L 96.0 159.0 L 98.0 159.0 L 101.0 158.0 L 103.0 158.0 L 105.0 158.0 L 107.0 158.0 L 108.0 158.0 L 109.0 158.0 L 111.0 158.0 L 112.0 157.0 L 113.0 157.0 L 114.0 157.0 L 116.0 157.0 L 117.0 157.0 L 119.0 157.0 L 120.0 157.0 L 121.0 157.0 L 123.0 157.0 L 124.0 157.0 L 126.0 157.0 L 128.0 157.0 L 129.0 156.0 L 131.0 156.0 L 133.0 156.0 L 135.0 156.0 L 137.0 156.0 L 139.0 155.0 L 141.0 155.0 L 143.0 155.0 L 145.0 155.0 L 146.0 155.0 L 148.0 155.0 L 149.0 155.0 L 150.0 155.0 L 152.0 155.0 L 153.0 155.0 L 154.0 155.0 L 155.0 155.0 L 156.0 155.0 L 157.0 155.0 L 159.0 155.0 L 160.0 155.0 L 162.0 155.0 L 163.0 155.0 L 165.0 155.0 L 167.0 155.0 L 169.0 154.0 L 172.0 154.0 L 174.0 154.0 L 176.0 154.0 L 179.0 154.0 L 181.0 154.0 L 184.0 154.0 L 186.0 154.0 L 188.0 154.0 L 191.0 154.0 L 193.0 154.0 L 195.0 154.0 L 198.0 154.0 L 200.0 154.0 L 203.0 153.0 L 205.0 153.0 L 208.0 153.0 L 210.0 153.0 L 212.0 153.0 L 213.0 153.0 L 215.0 153.0 L 215.0 153.0 " stroke="black" fill="none" stroke-width="5.0" stroke-linecap="round" stroke-linejoin="round" />
<path d="M 149.0 103.0 L 149.0 104.0 L 149.0 106.0 L 149.0 108.0 L 149.0 110.0 L 149.0 112.0 L 149.0 114.0 L 149.0 117.0 L 149.0 120.0 L 149.0 124.0 L 149.0 127.0 L 148.0 131.0 L 148.0 136.0 L 148.0 140.0 L 148.0 144.0 L 148.0 149.0 L 148.0 153.0 L 148.0 157.0 L 148.0 161.0 L 148.0 165.0 L 148.0 168.0 L 148.0 172.0 L 148.0 176.0 L 148.0 180.0 L 148.0 184.0 L 148.0 187.0 L 148.0 190.0 L 148.0 194.0 L 149.0 197.0 L 149.0 200.0 L 149.0 203.0 L 149.0 206.0 L 149.0 209.0 L 149.0 212.0 L 149.0 214.0 L 150.0 217.0 L 150.0 220.0 L 150.0 223.0 L 150.0 226.0 L 150.0 229.0 L 150.0 232.0 L 150.0 234.0 L 150.0 236.0 L 150.0 237.0 L 150.0 238.0 L 150.0 239.0 L 150.0 239.0 " stroke="black" fill="none" stroke-width="5.0" stroke-linecap="round" stroke-linejoin="round" />
<path d="M 62.0 242.0 L 62.0 242.0 L 62.0 242.0 L 62.0 242.0 L 62.0 242.0 L 62.0 242.0 L 62.0 242.0 L 62.0 242.0 L 62.0 242.0 L 62.0 242.0 L 62.0 242.0 L 63.0 242.0 L 64.0 242.0 L 65.0 242.0 L 66.0 242.0 L 68.0 242.0 L 70.0 242.0 L 72.0 242.0 L 74.0 242.0 L 77.0 242.0 L 80.0 242.0 L 83.0 242.0 L 87.0 242.0 L 90.0 242.0 L 92.0 242.0 L 95.0 242.0 L 97.0 242.0 L 99.0 242.0 L 101.0 242.0 L 103.0 242.0 L 105.0 242.0 L 106.0 242.0 L 108.0 242.0 L 110.0 242.0 L 112.0 242.0 L 114.0 242.0 L 116.0 242.0 L 118.0 242.0 L 120.0 242.0 L 123.0 242.0 L 126.0 241.0 L 129.0 241.0 L 132.0 241.0 L 135.0 241.0 L 137.0 241.0 L 140.0 240.0 L 142.0 240.0 L 144.0 240.0 L 146.0 240.0 L 148.0 240.0 L 149.0 240.0 L 151.0 240.0 L 152.0 240.0 L 153.0 240.0 L 155.0 240.0 L 156.0 240.0 L 157.0 240.0 L 159.0 240.0 L 160.0 240.0 L 162.0 240.0 L 164.0 240.0 L 166.0 240.0 L 167.0 240.0 L 169.0 240.0 L 172.0 240.0 L 174.0 240.0 L 176.0 240.0 L 178.0 240.0 L 181.0 240.0 L 183.0 240.0 L 185.0 240.0 L 187.0 239.0 L 189.0 239.0 L 191.0 239.0 L 193.0 239.0 L 194.0 238.0 L 196.0 238.0 L 197.0 238.0 L 198.0 238.0 L 199.0 237.0 L 200.0 237.0 L 202.0 237.0 L 203.0 237.0 L 204.0 237.0 L 206.0 237.0 L 207.0 237.0 L 209.0 237.0 L 210.0 237.0 L 212.0 237.0 L 214.0 237.0 L 216.0 237.0 L 218.0 237.0 L 220.0 237.0 L 222.0 237.0 L 224.0 237.0 L 226.0 237.0 L 227.0 237.0 L 229.0 237.0 L 231.0 238.0 L 232.0 238.0 L 234.0 238.0 L 235.0 238.0 L 237.0 239.0 L 238.0 239.0 L 239.0 239.0 L 240.0 239.0 L 241.0 240.0 L 242.0 240.0 L 242.0 240.0 L 243.0 240.0 L 243.0 240.0 L 243.0 240.0 " stroke="black" fill="none" stroke-width="5.0" stroke-linecap="round" stroke-linejoin="round" />
<path d="M 181.0 190.0 L 181.0 190.0 L 181.0 190.0 L 181.0 190.0 L 181.0 190.0 L 181.0 190.0 L 181.0 190.0 L 182.0 191.0 L 184.0 192.0 L 186.0 195.0 L 189.0 198.0 L 193.0 202.0 L 196.0 205.0 L 199.0 209.0 L 202.0 212.0 L 205.0 215.0 L 208.0 217.0 L 210.0 218.0 " stroke="black" fill="none" stroke-width="5.0" stroke-linecap="round" stroke-linejoin="round" />
</svg>