<svg xmlns="http://www.w3.org/2000/svg" width="300" height="300" viewBox="0 0 300 300">
<path d="M 146.0 84.0 L 146.0 84.0 L 145.0 83.0 L 144.0 82.0 L 143.0 82.0 L 143.0 82.0 L 143.0 82.0 L 143.0 82.0 L 143.0 84.0 L 143.0 86.0 L 144.0 90.0 L 145.0 95.0 L 145.0 101.0 L 146.0 108.0 L 147.0 117.0 L 147.0 128.0 L 147.0 140.0 L 147.0 153.0 L 147.0 168.0 L 147.0 181.0 L 147.0 195.0 L 147.0 207.0 L 147.0 216.0 L 147.0 224.0 L 147.0 231.0 L 147.0 236.0 L 146.0 239.0 L 146.0 240.0 L 146.0 239.0 " stroke="black" fill="none" stroke-width="5.0" stroke-linecap="round" stroke-linejoin="round" />
<path d="M 155.0 152.0 L 155.0 151.0 L 153.0 151.0 L 152.0 150.0 L 151.0 150.0 L 151.0 150.0 L 151.0 150.0 L 151.0 150.0 L 154.0 149.0 L 159.0 149.0 L 166.0 148.0 L 176.0 146.0 L 185.0 145.0 L 195.0 143.0 L 205.0 142.0 L 213.0 141.0 L 218.0 141.0 " stroke="black" fill="none" stroke-width="5.0" stroke-linecap="round" stroke-linejoin="round" />
<path d="M 58.0 239.0 L 58.0 239.0 L 58.0 238.0 L 58.0 237.0 L 58.0 237.0 L 58.0 237.0 L 60.0 237.0 L 62.0 237.0 L 65.0 237.0 L 71.0 238.0 L 80.0 239.0 L 93.0 239.0 L 106.0 240.0 L 119.0 240.0 L 136.0 240.0 L 152.0 240.0 L 165.0 240.0 L 179.0 240.0 L 193.0 239.0 L 201.0 239.0 L 209.0 239.0 L 217.0 239.0 L 222.0 240.0 L 225.0 241.0 L 228.0 241.0 L 229.0 242.0 L 230.0 242.0 L 231.0 242.0 " stroke="black" fill="none" stroke-width="5.0" stroke-linecap="round" stroke-linejoin="round" />
</svg>