<svg xmlns="http://www.w3.org/2000/svg" width="300" height="300" viewBox="0 0 300 300">
<path d="M 101.0 71.0 L 101.0 71.0 L 101.0 71.0 L 101.0 70.0 L 101.0 70.0 L 101.0 70.0 L 101.0 70.0 L 101.0 70.0 L 101.0 70.0 L 101.0 70.0 L 101.0 70.0 L 100.0 70.0 L 100.0 71.0 L 100.0 72.0 L 100.0 73.0 L 100.0 73.0 L 100.0 75.0 L 99.0 76.0 L 99.0 77.0 L 99.0 78.0 L 98.0 80.0 L 98.0 82.0 L 97.0 84.0 L 96.0 85.0 L 96.0 88.0 L 94.0 90.0 L 93.0 93.0 L 92.0 96.0 L 90.0 99.0 L 88.0 103.0 L 86.0 106.0 L 84.0 109.0 L 82.0 113.0 L 80.0 116.0 L 78.0 119.0 L 76.0 121.0 L 75.0 124.0 L 73.0 126.0 L 71.0 129.0 L 69.0 132.0 L 67.0 135.0 L 64.0 139.0 L 62.0 143.0 L 60.0 147.0 L 58.0 151.0 L 56.0 154.0 L 54.0 157.0 L 51.0 159.0 L 50.0 160.0 " stroke="black" fill="none" stroke-width="5.0" stroke-linecap="round" stroke-linejoin="round" />
<path d="M 85.0 112.0 L 85.0 112.0 L 85.0 112.0 L 85.0 112.0 L 85.0 112.0 L 85.0 112.0 L 85.0 113.0 L 85.0 113.0 L 85.0 114.0 L 85.0 115.0 L 85.0 117.0 L 85.0 119.0 L 85.0 122.0 L 84.0 126.0 L 84.0 130.0 L 84.0 136.0 L 84.0 142.0 L 84.0 148.0 L 84.0 154.0 L 84.0 159.0 L 84.0 164.0 L 84.0 168.0 L 85.0 173.0 L 85.0 178.0 L 85.0 183.0 L 86.0 186.0 L 86.0 195.0 L 87.0 201.0 L 87.0 206.0 L 87.0 211.0 L 88.0 215.0 L 88.0 219.0 L 88.0 223.0 L 88.0 227.0 L 88.0 231.0 L 88.0 233.0 L 88.0 235.0 L 88.0 236.0 " stroke="black" fill="none" stroke-width="5.0" stroke-linecap="round" stroke-linejoin="round" />
<path d="M 117.0 96.0 L 117.0 96.0 L 117.0 96.0 L 117.0 96.0 L 116.0 96.0 L 116.0 96.0 L 116.0 97.0 L 116.0 98.0 L 116.0 99.0 L 116.0 101.0 L 116.0 103.0 L 116.0 105.0 L 116.0 108.0 L 116.0 112.0 L 116.0 116.0 L 116.0 122.0 L 116.0 129.0 L 116.0 137.0 L 116.0 145.0 L 116.0 154.0 L 116.0 160.0 L 116.0 166.0 L 116.0 173.0 L 116.0 178.0 L 116.0 184.0 L 116.0 190.0 L 116.0 195.0 L 116.0 199.0 L 116.0 202.0 L 116.0 205.0 L 116.0 206.0 L 116.0 207.0 L 116.0 208.0 " stroke="black" fill="none" stroke-width="5.0" stroke-linecap="round" stroke-linejoin="round" />
<path d="M 170.0 74.0 L 170.0 74.0 L 170.0 73.0 L 169.0 73.0 L 169.0 73.0 L 169.0 72.0 L 169.0 72.0 L 169.0 72.0 L 169.0 72.0 L 168.0 73.0 L 168.0 75.0 L 166.0 78.0 L 165.0 82.0 L 163.0 86.0 L 160.0 92.0 L 157.0 99.0 L 154.0 105.0 L 151.0 112.0 L 149.0 117.0 L 146.0 121.0 L 144.0 124.0 L 143.0 126.0 L 141.0 126.0 L 141.0 126.0 " stroke="black" fill="none" stroke-width="5.0" stroke-linecap="round" stroke-linejoin="round" />
<path d="M 160.0 96.0 L 160.0 96.0 L 160.0 96.0 L 159.0 96.0 L 158.0 96.0 L 158.0 96.0 L 157.0 96.0 L 157.0 96.0 L 157.0 96.0 L 157.0 96.0 L 157.0 96.0 L 157.0 96.0 L 157.0 96.0 L 157.0 96.0 L 157.0 96.0 L 157.0 96.0 L 157.0 96.0 L 158.0 96.0 L 159.0 96.0 L 160.0 96.0 L 160.0 96.0 L 162.0 96.0 L 163.0 96.0 L 164.0 96.0 L 165.0 96.0 L 167.0 96.0 L 168.0 96.0 L 170.0 96.0 L 171.0 96.0 L 173.0 96.0 L 175.0 96.0 L 177.0 96.0 L 179.0 96.0 L 181.0 96.0 L 183.0 96.0 L 185.0 96.0 L 186.0 96.0 L 188.0 96.0 L 189.0 96.0 L 190.0 96.0 L 191.0 96.0 L 192.0 96.0 L 193.0 96.0 L 194.0 96.0 L 194.0 96.0 L 195.0 96.0 L 196.0 96.0 L 196.0 97.0 L 197.0 97.0 L 198.0 97.0 L 199.0 97.0 L 200.0 97.0 L 200.0 97.0 L 201.0 97.0 L 202.0 97.0 L 203.0 97.0 L 204.0 97.0 L 205.0 97.0 L 207.0 97.0 L 208.0 97.0 L 209.0 97.0 L 210.0 97.0 L 211.0 97.0 L 213.0 97.0 L 214.0 97.0 L 215.0 97.0 L 217.0 97.0 L 218.0 97.0 L 219.0 97.0 L 221.0 97.0 L 222.0 97.0 L 223.0 97.0 L 225.0 97.0 L 226.0 97.0 L 227.0 97.0 L 228.0 97.0 L 229.0 97.0 L 230.0 96.0 L 231.0 96.0 L 231.0 96.0 L 232.0 96.0 L 232.0 96.0 L 233.0 96.0 L 233.0 96.0 L 233.0 96.0 " stroke="black" fill="none" stroke-width="5.0" stroke-linecap="round" stroke-linejoin="round" />
<path d="M 217.0 97.0 L 217.0 97.0 L 217.0 97.0 L 218.0 97.0 L 218.0 97.0 L 218.0 97.0 L 218.0 97.0 L 218.0 97.0 L 218.0 98.0 L 218.0 98.0 L 217.0 98.0 L 216.0 99.0 L 216.0 100.0 L 215.0 101.0 L 214.0 102.0 L 213.0 103.0 L 212.0 105.0 L 210.0 106.0 L 209.0 108.0 L 207.0 110.0 L 206.0 112.0 L 204.0 113.0 L 202.0 115.0 L 201.0 117.0 L 199.0 118.0 L 197.0 120.0 L 196.0 121.0 L 194.0 123.0 L 193.0 125.0 L 191.0 126.0 L 189.0 128.0 L 188.0 129.0 L 186.0 131.0 L 184.0 133.0 L 181.0 134.0 L 179.0 136.0 L 176.0 138.0 L 173.0 139.0 L 170.0 141.0 L 167.0 143.0 L 164.0 145.0 L 162.0 147.0 L 159.0 148.0 L 157.0 150.0 L 155.0 151.0 L 153.0 152.0 L 151.0 153.0 L 149.0 154.0 L 148.0 155.0 L 146.0 155.0 L 144.0 155.0 L 143.0 155.0 " stroke="black" fill="none" stroke-width="5.0" stroke-linecap="round" stroke-linejoin="round" />
<path d="M 161.0 105.0 L 161.0 105.0 L 161.0 105.0 L 161.0 105.0 L 161.0 105.0 L 161.0 105.0 L 161.0 105.0 L 161.0 105.0 L 161.0 105.0 L 161.0 105.0 L 161.0 105.0 L 161.0 105.0 L 161.0 106.0 L 162.0 106.0 L 162.0 107.0 L 163.0 109.0 L 164.0 110.0 L 165.0 112.0 L 166.0 113.0 L 167.0 114.0 L 168.0 116.0 L 169.0 117.0 L 170.0 118.0 L 171.0 119.0 L 172.0 121.0 L 173.0 122.0 L 174.0 123.0 L 175.0 124.0 L 176.0 125.0 L 177.0 125.0 L 178.0 126.0 L 180.0 127.0 L 181.0 128.0 L 182.0 128.0 L 183.0 129.0 L 184.0 130.0 L 185.0 131.0 L 187.0 132.0 L 188.0 132.0 L 189.0 133.0 L 190.0 134.0 L 191.0 135.0 L 192.0 135.0 L 193.0 136.0 L 194.0 137.0 L 195.0 137.0 L 196.0 138.0 L 197.0 139.0 L 198.0 140.0 L 199.0 140.0 L 200.0 141.0 L 202.0 142.0 L 203.0 143.0 L 205.0 144.0 L 207.0 145.0 L 209.0 146.0 L 212.0 147.0 L 214.0 148.0 L 216.0 149.0 L 219.0 150.0 L 222.0 150.0 L 224.0 151.0 L 227.0 152.0 L 229.0 153.0 L 231.0 154.0 L 232.0 155.0 L 234.0 157.0 L 235.0 158.0 L 237.0 159.0 L 238.0 159.0 L 238.0 160.0 L 239.0 161.0 L 240.0 161.0 L 241.0 161.0 " stroke="black" fill="none" stroke-width="5.0" stroke-linecap="round" stroke-linejoin="round" />
<path d="M 193.0 161.0 L 193.0 161.0 L 193.0 161.0 L 193.0 161.0 L 193.0 161.0 L 193.0 160.0 L 193.0 160.0 L 193.0 160.0 L 193.0 160.0 L 193.0 160.0 L 191.0 161.0 L 189.0 162.0 L 186.0 164.0 L 183.0 167.0 L 178.0 170.0 L 173.0 173.0 L 167.0 176.0 L 161.0 180.0 L 156.0 182.0 L 152.0 185.0 L 150.0 187.0 L 149.0 187.0 " stroke="black" fill="none" stroke-width="5.0" stroke-linecap="round" stroke-linejoin="round" />
<path d="M 206.0 192.0 L 206.0 192.0 L 207.0 192.0 L 207.0 192.0 L 208.0 192.0 L 208.0 192.0 L 208.0 192.0 L 208.0 192.0 L 208.0 192.0 L 207.0 192.0 L 207.0 192.0 L 205.0 192.0 L 204.0 192.0 L 203.0 193.0 L 201.0 193.0 L 199.0 194.0 L 196.0 196.0 L 194.0 198.0 L 190.0 200.0 L 185.0 203.0 L 179.0 206.0 L 171.0 209.0 L 162.0 212.0 L 155.0 214.0 L 149.0 215.0 L 144.0 215.0 L 144.0 215.0 " stroke="black" fill="none" stroke-width="5.0" stroke-linecap="round" stroke-linejoin="round" />
<path d="M 230.0 215.0 L 230.0 215.0 L 230.0 215.0 L 230.0 215.0 L 230.0 214.0 L 230.0 214.0 L 230.0 214.0 L 230.0 214.0 L 230.0 214.0 L 230.0 214.0 L 230.0 215.0 L 229.0 216.0 L 227.0 217.0 L 226.0 219.0 L 224.0 220.0 L 222.0 222.0 L 220.0 224.0 L 217.0 226.0 L 214.0 228.0 L 210.0 230.0 L 206.0 232.0 L 202.0 234.0 L 198.0 236.0 L 194.0 238.0 L 191.0 240.0 L 187.0 242.0 L 183.0 243.0 L 179.0 245.0 L 173.0 246.0 L 167.0 247.0 L 161.0 248.0 L 155.0 249.0 L 149.0 249.0 L 145.0 249.0 L 140.0 249.0 L 136.0 249.0 L 133.0 248.0 " stroke="black" fill="none" stroke-width="5.0" stroke-linecap="round" stroke-linejoin="round" />
</svg>