<svg xmlns="http://www.w3.org/2000/svg" width="300" height="300" viewBox="0 0 300 300">
<path d="M 105.0 69.0 L 105.0 69.0 L 105.0 69.0 L 105.0 69.0 L 105.0 68.0 L 105.0 68.0 L 105.0 68.0 L 105.0 67.0 L 105.0 67.0 L 105.0 67.0 L 105.0 67.0 L 105.0 67.0 L 105.0 67.0 L 105.0 67.0 L 105.0 67.0 L 105.0 67.0 L 105.0 68.0 L 105.0 68.0 L 105.0 69.0 L 105.0 70.0 L 104.0 71.0 L 104.0 72.0 L 104.0 73.0 L 103.0 74.0 L 103.0 75.0 L 102.0 76.0 L 102.0 78.0 L 101.0 79.0 L 101.0 80.0 L 100.0 82.0 L 100.0 83.0 L 100.0 84.0 L 99.0 85.0 L 99.0 86.0 L 98.0 87.0 L 98.0 88.0 L 98.0 89.0 L 97.0 90.0 L 97.0 91.0 L 96.0 93.0 L 96.0 94.0 L 95.0 96.0 L 94.0 98.0 L 93.0 101.0 L 93.0 103.0 L 92.0 105.0 L 91.0 107.0 L 90.0 110.0 L 89.0 112.0 L 88.0 114.0 L 87.0 116.0 L 85.0 119.0 L 83.0 121.0 L 81.0 124.0 L 78.0 127.0 L 75.0 130.0 L 72.0 134.0 L 69.0 137.0 L 66.0 140.0 L 62.0 144.0 L 60.0 147.0 L 58.0 150.0 L 55.0 152.0 L 53.0 154.0 L 52.0 155.0 " stroke="black" fill="none" stroke-width="5.0" stroke-linecap="round" stroke-linejoin="round" />
<path d="M 86.0 121.0 L 86.0 121.0 L 86.0 121.0 L 86.0 121.0 L 85.0 122.0 L 85.0 122.0 L 85.0 123.0 L 85.0 123.0 L 85.0 124.0 L 84.0 125.0 L 84.0 126.0 L 84.0 128.0 L 84.0 129.0 L 84.0 132.0 L 84.0 134.0 L 84.0 138.0 L 84.0 142.0 L 84.0 146.0 L 84.0 150.0 L 84.0 154.0 L 83.0 158.0 L 83.0 161.0 L 82.0 164.0 L 82.0 167.0 L 81.0 169.0 L 81.0 171.0 L 81.0 174.0 L 81.0 176.0 L 81.0 179.0 L 81.0 181.0 L 81.0 184.0 L 81.0 187.0 L 80.0 190.0 L 80.0 193.0 L 80.0 196.0 L 80.0 198.0 L 80.0 201.0 L 80.0 204.0 L 80.0 207.0 L 80.0 210.0 L 80.0 214.0 L 79.0 217.0 L 79.0 221.0 L 79.0 225.0 L 79.0 230.0 L 79.0 234.0 L 79.0 239.0 L 79.0 243.0 L 79.0 246.0 L 79.0 250.0 L 79.0 251.0 " stroke="black" fill="none" stroke-width="5.0" stroke-linecap="round" stroke-linejoin="round" />
<path d="M 115.0 101.0 L 115.0 101.0 L 115.0 101.0 L 115.0 100.0 L 114.0 100.0 L 114.0 100.0 L 114.0 100.0 L 114.0 100.0 L 114.0 100.0 L 114.0 101.0 L 114.0 102.0 L 114.0 104.0 L 114.0 107.0 L 114.0 110.0 L 114.0 113.0 L 114.0 117.0 L 114.0 122.0 L 114.0 126.0 L 113.0 131.0 L 113.0 135.0 L 113.0 140.0 L 113.0 144.0 L 113.0 148.0 L 113.0 152.0 L 113.0 156.0 L 113.0 160.0 L 113.0 164.0 L 113.0 168.0 L 113.0 172.0 L 113.0 178.0 L 113.0 183.0 L 113.0 188.0 L 113.0 193.0 L 113.0 197.0 L 113.0 201.0 L 112.0 204.0 L 112.0 207.0 L 112.0 209.0 L 111.0 211.0 L 111.0 212.0 L 110.0 213.0 " stroke="black" fill="none" stroke-width="5.0" stroke-linecap="round" stroke-linejoin="round" />
<path d="M 166.0 75.0 L 166.0 75.0 L 167.0 74.0 L 167.0 74.0 L 167.0 73.0 L 168.0 73.0 L 168.0 72.0 L 168.0 72.0 L 168.0 71.0 L 168.0 71.0 L 168.0 71.0 L 168.0 71.0 L 168.0 72.0 L 168.0 74.0 L 167.0 76.0 L 166.0 78.0 L 165.0 81.0 L 163.0 85.0 L 161.0 89.0 L 158.0 95.0 L 155.0 101.0 L 152.0 107.0 L 149.0 113.0 L 146.0 118.0 L 142.0 122.0 L 139.0 126.0 L 137.0 127.0 L 136.0 127.0 " stroke="black" fill="none" stroke-width="5.0" stroke-linecap="round" stroke-linejoin="round" />
<path d="M 158.0 94.0 L 158.0 94.0 L 157.0 94.0 L 156.0 94.0 L 155.0 94.0 L 154.0 94.0 L 154.0 95.0 L 154.0 95.0 L 153.0 95.0 L 153.0 95.0 L 153.0 95.0 L 153.0 95.0 L 153.0 95.0 L 153.0 95.0 L 153.0 95.0 L 153.0 95.0 L 153.0 95.0 L 154.0 95.0 L 154.0 95.0 L 154.0 95.0 L 154.0 95.0 L 155.0 95.0 L 155.0 94.0 L 156.0 94.0 L 156.0 94.0 L 157.0 94.0 L 158.0 94.0 L 159.0 93.0 L 160.0 93.0 L 160.0 93.0 L 162.0 93.0 L 162.0 93.0 L 164.0 93.0 L 165.0 92.0 L 166.0 92.0 L 168.0 92.0 L 169.0 92.0 L 171.0 92.0 L 172.0 92.0 L 174.0 92.0 L 175.0 92.0 L 176.0 92.0 L 177.0 92.0 L 178.0 92.0 L 179.0 92.0 L 180.0 92.0 L 181.0 92.0 L 181.0 92.0 L 182.0 92.0 L 183.0 92.0 L 184.0 92.0 L 185.0 92.0 L 185.0 92.0 L 186.0 92.0 L 187.0 92.0 L 188.0 92.0 L 189.0 92.0 L 190.0 92.0 L 190.0 92.0 L 191.0 92.0 L 192.0 92.0 L 193.0 92.0 L 194.0 92.0 L 194.0 92.0 L 195.0 92.0 L 196.0 92.0 L 197.0 92.0 L 198.0 92.0 L 199.0 92.0 L 200.0 92.0 L 201.0 92.0 L 202.0 92.0 L 203.0 92.0 L 204.0 92.0 L 205.0 92.0 L 207.0 92.0 L 208.0 92.0 L 210.0 92.0 L 211.0 92.0 L 213.0 92.0 L 215.0 92.0 L 217.0 92.0 L 219.0 92.0 L 221.0 92.0 L 224.0 92.0 L 225.0 92.0 L 227.0 92.0 L 229.0 92.0 L 231.0 92.0 L 232.0 91.0 L 234.0 91.0 L 235.0 91.0 L 236.0 91.0 L 238.0 91.0 L 239.0 91.0 L 239.0 91.0 L 240.0 90.0 L 241.0 90.0 L 241.0 90.0 L 242.0 90.0 L 242.0 90.0 L 242.0 90.0 L 243.0 90.0 " stroke="black" fill="none" stroke-width="5.0" stroke-linecap="round" stroke-linejoin="round" />
<path d="M 223.0 96.0 L 223.0 96.0 L 223.0 96.0 L 223.0 96.0 L 223.0 96.0 L 223.0 95.0 L 223.0 95.0 L 222.0 95.0 L 222.0 95.0 L 222.0 96.0 L 221.0 96.0 L 221.0 97.0 L 220.0 98.0 L 219.0 100.0 L 218.0 101.0 L 216.0 102.0 L 214.0 104.0 L 213.0 106.0 L 211.0 107.0 L 208.0 109.0 L 206.0 111.0 L 204.0 112.0 L 202.0 114.0 L 200.0 115.0 L 199.0 116.0 L 198.0 117.0 L 197.0 118.0 L 196.0 119.0 L 195.0 120.0 L 194.0 121.0 L 193.0 121.0 L 192.0 123.0 L 192.0 123.0 L 191.0 124.0 L 190.0 126.0 L 189.0 127.0 L 188.0 128.0 L 187.0 129.0 L 186.0 130.0 L 185.0 130.0 L 184.0 132.0 L 182.0 132.0 L 181.0 133.0 L 180.0 134.0 L 179.0 135.0 L 177.0 136.0 L 176.0 137.0 L 174.0 138.0 L 172.0 139.0 L 171.0 140.0 L 169.0 141.0 L 168.0 142.0 L 166.0 143.0 L 164.0 144.0 L 163.0 145.0 L 161.0 146.0 L 160.0 147.0 L 158.0 148.0 L 157.0 150.0 L 155.0 150.0 L 153.0 151.0 L 152.0 152.0 L 151.0 153.0 L 149.0 154.0 L 148.0 154.0 L 146.0 155.0 L 145.0 155.0 L 143.0 156.0 L 142.0 156.0 L 141.0 156.0 " stroke="black" fill="none" stroke-width="5.0" stroke-linecap="round" stroke-linejoin="round" />
<path d="M 155.0 108.0 L 155.0 108.0 L 155.0 108.0 L 155.0 108.0 L 155.0 108.0 L 155.0 108.0 L 155.0 108.0 L 155.0 108.0 L 155.0 108.0 L 155.0 108.0 L 155.0 109.0 L 155.0 109.0 L 155.0 110.0 L 155.0 111.0 L 156.0 112.0 L 156.0 113.0 L 157.0 114.0 L 157.0 115.0 L 158.0 116.0 L 159.0 118.0 L 160.0 119.0 L 160.0 120.0 L 161.0 122.0 L 162.0 123.0 L 163.0 124.0 L 164.0 125.0 L 165.0 126.0 L 166.0 127.0 L 167.0 128.0 L 168.0 128.0 L 169.0 129.0 L 170.0 130.0 L 171.0 130.0 L 172.0 131.0 L 172.0 132.0 L 173.0 132.0 L 174.0 133.0 L 175.0 134.0 L 176.0 134.0 L 177.0 135.0 L 178.0 135.0 L 179.0 136.0 L 180.0 136.0 L 181.0 137.0 L 181.0 137.0 L 182.0 138.0 L 182.0 138.0 L 183.0 139.0 L 183.0 139.0 L 184.0 140.0 L 184.0 141.0 L 185.0 141.0 L 186.0 142.0 L 186.0 142.0 L 187.0 143.0 L 188.0 143.0 L 188.0 144.0 L 189.0 145.0 L 190.0 145.0 L 191.0 146.0 L 191.0 146.0 L 192.0 147.0 L 193.0 147.0 L 193.0 147.0 L 194.0 148.0 L 195.0 148.0 L 196.0 148.0 L 197.0 149.0 L 198.0 149.0 L 199.0 149.0 L 200.0 149.0 L 202.0 150.0 L 204.0 150.0 L 206.0 150.0 L 207.0 150.0 L 209.0 151.0 L 211.0 151.0 L 213.0 151.0 L 215.0 151.0 L 217.0 151.0 L 219.0 152.0 L 222.0 152.0 L 224.0 152.0 L 226.0 152.0 L 228.0 153.0 L 230.0 153.0 L 231.0 154.0 L 233.0 154.0 L 235.0 154.0 L 236.0 155.0 L 237.0 155.0 L 238.0 156.0 L 239.0 156.0 L 240.0 156.0 L 240.0 156.0 L 241.0 156.0 L 241.0 156.0 " stroke="black" fill="none" stroke-width="5.0" stroke-linecap="round" stroke-linejoin="round" />
<path d="M 194.0 164.0 L 194.0 164.0 L 194.0 164.0 L 194.0 165.0 L 194.0 165.0 L 194.0 166.0 L 193.0 166.0 L 193.0 166.0 L 192.0 166.0 L 191.0 167.0 L 190.0 168.0 L 188.0 169.0 L 185.0 170.0 L 181.0 173.0 L 177.0 175.0 L 172.0 179.0 L 166.0 183.0 L 162.0 186.0 L 158.0 188.0 L 154.0 190.0 L 151.0 191.0 L 150.0 192.0 L 148.0 192.0 " stroke="black" fill="none" stroke-width="5.0" stroke-linecap="round" stroke-linejoin="round" />
<path d="M 214.0 181.0 L 214.0 181.0 L 214.0 181.0 L 214.0 181.0 L 214.0 181.0 L 214.0 181.0 L 214.0 181.0 L 214.0 181.0 L 214.0 181.0 L 214.0 182.0 L 213.0 182.0 L 212.0 183.0 L 211.0 184.0 L 209.0 185.0 L 206.0 187.0 L 203.0 189.0 L 200.0 192.0 L 197.0 195.0 L 193.0 197.0 L 190.0 200.0 L 187.0 203.0 L 183.0 206.0 L 178.0 208.0 L 173.0 210.0 L 168.0 212.0 L 163.0 214.0 L 159.0 214.0 " stroke="black" fill="none" stroke-width="5.0" stroke-linecap="round" stroke-linejoin="round" />
<path d="M 232.0 209.0 L 232.0 209.0 L 232.0 209.0 L 232.0 209.0 L 232.0 209.0 L 232.0 210.0 L 232.0 210.0 L 231.0 210.0 L 231.0 211.0 L 230.0 211.0 L 230.0 211.0 L 229.0 212.0 L 228.0 212.0 L 227.0 213.0 L 226.0 213.0 L 224.0 214.0 L 222.0 215.0 L 219.0 217.0 L 216.0 219.0 L 212.0 221.0 L 208.0 223.0 L 204.0 225.0 L 200.0 228.0 L 196.0 230.0 L 193.0 233.0 L 190.0 235.0 L 187.0 237.0 L 183.0 239.0 L 179.0 240.0 L 175.0 242.0 L 169.0 243.0 L 164.0 245.0 L 158.0 246.0 L 153.0 247.0 L 150.0 248.0 L 147.0 249.0 L 144.0 249.0 L 142.0 250.0 L 141.0 250.0 " stroke="black" fill="none" stroke-width="5.0" stroke-linecap="round" stroke-linejoin="round" />
</svg>