<svg xmlns="http://www.w3.org/2000/svg" width="300" height="300" viewBox="0 0 300 300">
<path d="M 100.0 75.0 L 100.0 75.0 L 100.0 75.0 L 100.0 75.0 L 100.0 75.0 L 100.0 75.0 L 100.0 75.0 L 100.0 74.0 L 101.0 74.0 L 101.0 74.0 L 101.0 74.0 L 101.0 74.0 L 101.0 74.0 L 101.0 74.0 L 101.0 74.0 L 101.0 74.0 L 101.0 74.0 L 101.0 74.0 L 101.0 75.0 L 101.0 75.0 L 101.0 75.0 L 101.0 76.0 L 101.0 76.0 L 101.0 77.0 L 101.0 77.0 L 101.0 78.0 L 101.0 78.0 L 101.0 79.0 L 101.0 80.0 L 101.0 80.0 L 101.0 81.0 L 101.0 82.0 L 100.0 82.0 L 100.0 83.0 L 100.0 84.0 L 100.0 85.0 L 99.0 85.0 L 99.0 86.0 L 99.0 87.0 L 99.0 88.0 L 98.0 88.0 L 98.0 89.0 L 98.0 90.0 L 98.0 90.0 L 97.0 91.0 L 97.0 92.0 L 97.0 93.0 L 96.0 94.0 L 96.0 95.0 L 96.0 96.0 L 96.0 97.0 L 95.0 97.0 L 95.0 98.0 L 95.0 99.0 L 94.0 100.0 L 94.0 100.0 L 94.0 101.0 L 94.0 102.0 L 94.0 102.0 L 93.0 103.0 L 93.0 104.0 L 93.0 104.0 L 93.0 105.0 L 92.0 106.0 L 92.0 107.0 L 92.0 107.0 L 91.0 108.0 L 91.0 109.0 L 91.0 110.0 L 90.0 111.0 L 90.0 111.0 L 89.0 112.0 L 89.0 113.0 L 89.0 113.0 L 88.0 114.0 L 87.0 115.0 L 87.0 116.0 L 86.0 116.0 L 86.0 117.0 L 85.0 118.0 L 85.0 119.0 L 85.0 119.0 L 84.0 120.0 L 84.0 120.0 L 84.0 121.0 L 83.0 121.0 L 83.0 122.0 L 83.0 123.0 L 82.0 123.0 L 82.0 124.0 L 82.0 125.0 L 81.0 125.0 L 81.0 126.0 L 80.0 127.0 L 80.0 127.0 L 80.0 128.0 L 79.0 128.0 L 79.0 129.0 L 78.0 130.0 L 78.0 130.0 L 77.0 131.0 L 76.0 132.0 L 76.0 132.0 L 75.0 133.0 L 75.0 134.0 L 74.0 135.0 L 73.0 135.0 L 73.0 136.0 L 72.0 137.0 L 71.0 137.0 L 71.0 138.0 L 70.0 139.0 L 69.0 140.0 L 68.0 141.0 L 68.0 142.0 L 67.0 143.0 L 66.0 144.0 L 65.0 145.0 L 64.0 146.0 L 64.0 146.0 L 63.0 147.0 L 62.0 148.0 L 61.0 149.0 L 61.0 149.0 " stroke="black" fill="none" stroke-width="5.0" stroke-linecap="round" stroke-linejoin="round" />
<path d="M 84.0 122.0 L 84.0 122.0 L 84.0 122.0 L 84.0 122.0 L 84.0 122.0 L 84.0 122.0 L 84.0 122.0 L 84.0 122.0 L 84.0 123.0 L 84.0 123.0 L 84.0 124.0 L 84.0 125.0 L 84.0 125.0 L 84.0 126.0 L 84.0 127.0 L 84.0 129.0 L 84.0 130.0 L 84.0 131.0 L 83.0 132.0 L 83.0 134.0 L 83.0 136.0 L 83.0 138.0 L 82.0 140.0 L 82.0 142.0 L 82.0 143.0 L 82.0 145.0 L 82.0 146.0 L 82.0 147.0 L 82.0 148.0 L 82.0 150.0 L 82.0 151.0 L 82.0 152.0 L 82.0 153.0 L 82.0 154.0 L 82.0 155.0 L 82.0 156.0 L 82.0 157.0 L 82.0 157.0 L 82.0 158.0 L 83.0 159.0 L 83.0 160.0 L 83.0 160.0 L 83.0 161.0 L 83.0 162.0 L 83.0 162.0 L 83.0 163.0 L 83.0 164.0 L 83.0 165.0 L 83.0 166.0 L 83.0 166.0 L 83.0 167.0 L 83.0 168.0 L 83.0 169.0 L 83.0 169.0 L 83.0 170.0 L 83.0 171.0 L 82.0 172.0 L 82.0 173.0 L 82.0 174.0 L 82.0 175.0 L 82.0 176.0 L 82.0 177.0 L 82.0 178.0 L 82.0 179.0 L 82.0 180.0 L 82.0 181.0 L 82.0 182.0 L 82.0 183.0 L 82.0 184.0 L 82.0 185.0 L 82.0 186.0 L 82.0 187.0 L 82.0 188.0 L 82.0 189.0 L 82.0 190.0 L 82.0 191.0 L 82.0 192.0 L 82.0 192.0 L 82.0 193.0 L 82.0 194.0 L 82.0 195.0 L 82.0 196.0 L 82.0 196.0 L 82.0 197.0 L 82.0 198.0 L 82.0 200.0 L 82.0 200.0 L 82.0 202.0 L 82.0 202.0 L 82.0 203.0 L 81.0 204.0 L 81.0 205.0 L 81.0 206.0 L 81.0 207.0 L 80.0 207.0 L 80.0 208.0 L 80.0 209.0 L 80.0 210.0 L 80.0 211.0 L 80.0 212.0 L 80.0 212.0 L 80.0 213.0 L 80.0 214.0 L 80.0 215.0 L 80.0 215.0 L 80.0 216.0 L 80.0 217.0 L 80.0 218.0 L 80.0 219.0 L 80.0 219.0 L 80.0 220.0 L 80.0 221.0 L 80.0 222.0 L 80.0 223.0 L 80.0 223.0 L 80.0 224.0 L 80.0 225.0 L 80.0 226.0 L 80.0 227.0 L 80.0 228.0 L 80.0 229.0 L 80.0 230.0 L 80.0 231.0 L 80.0 231.0 L 80.0 232.0 L 80.0 233.0 L 80.0 234.0 L 80.0 235.0 L 80.0 235.0 L 80.0 236.0 L 80.0 237.0 L 80.0 238.0 L 80.0 238.0 L 80.0 239.0 L 80.0 240.0 L 80.0 240.0 L 80.0 241.0 L 80.0 242.0 L 80.0 242.0 L 80.0 243.0 L 80.0 244.0 L 80.0 244.0 L 80.0 245.0 L 80.0 246.0 L 80.0 246.0 L 80.0 247.0 L 80.0 247.0 L 80.0 248.0 L 80.0 248.0 L 80.0 249.0 L 80.0 249.0 L 80.0 249.0 L 80.0 249.0 " stroke="black" fill="none" stroke-width="5.0" stroke-linecap="round" stroke-linejoin="round" />
<path d="M 117.0 132.0 L 117.0 132.0 L 117.0 132.0 L 117.0 132.0 L 117.0 132.0 L 117.0 132.0 L 117.0 132.0 L 117.0 132.0 L 117.0 132.0 L 117.0 132.0 L 117.0 132.0 L 117.0 132.0 L 117.0 132.0 L 118.0 132.0 L 118.0 132.0 L 119.0 132.0 L 120.0 132.0 L 121.0 132.0 L 123.0 132.0 L 126.0 132.0 L 128.0 133.0 L 132.0 133.0 L 135.0 133.0 L 137.0 133.0 L 140.0 133.0 L 142.0 133.0 L 144.0 133.0 L 145.0 133.0 L 146.0 133.0 " stroke="black" fill="none" stroke-width="5.0" stroke-linecap="round" stroke-linejoin="round" />
<path d="M 112.0 105.0 L 112.0 105.0 L 112.0 105.0 L 112.0 104.0 L 112.0 104.0 L 113.0 104.0 L 113.0 103.0 L 113.0 103.0 L 113.0 103.0 L 113.0 103.0 L 113.0 103.0 L 113.0 103.0 L 114.0 103.0 L 114.0 103.0 L 114.0 103.0 L 114.0 104.0 L 114.0 105.0 L 114.0 107.0 L 114.0 108.0 L 114.0 110.0 L 114.0 112.0 L 114.0 114.0 L 114.0 116.0 L 114.0 118.0 L 114.0 120.0 L 114.0 122.0 L 114.0 124.0 L 114.0 126.0 L 114.0 128.0 L 114.0 129.0 L 114.0 131.0 L 114.0 133.0 L 114.0 134.0 L 114.0 136.0 L 114.0 138.0 L 114.0 140.0 L 114.0 141.0 L 114.0 143.0 L 114.0 145.0 L 114.0 147.0 L 114.0 148.0 L 114.0 149.0 L 114.0 150.0 L 114.0 152.0 L 114.0 153.0 L 114.0 154.0 L 114.0 155.0 L 114.0 156.0 L 114.0 157.0 L 114.0 158.0 L 114.0 160.0 L 114.0 161.0 L 114.0 162.0 L 114.0 163.0 L 114.0 164.0 L 114.0 165.0 L 113.0 166.0 L 113.0 166.0 L 113.0 167.0 L 113.0 168.0 L 113.0 169.0 L 113.0 170.0 L 113.0 171.0 L 113.0 172.0 L 113.0 173.0 L 113.0 174.0 L 113.0 175.0 L 113.0 176.0 L 113.0 178.0 L 112.0 179.0 L 112.0 180.0 L 112.0 181.0 L 112.0 182.0 L 112.0 183.0 L 112.0 184.0 L 112.0 185.0 L 112.0 186.0 L 112.0 187.0 L 112.0 188.0 L 112.0 189.0 L 112.0 190.0 L 112.0 190.0 L 112.0 191.0 L 112.0 192.0 L 112.0 193.0 L 112.0 194.0 L 112.0 195.0 L 112.0 195.0 L 112.0 196.0 L 112.0 197.0 L 112.0 197.0 L 112.0 198.0 L 112.0 199.0 L 112.0 199.0 L 112.0 200.0 L 112.0 200.0 L 112.0 201.0 L 112.0 202.0 L 112.0 202.0 L 112.0 203.0 L 112.0 203.0 L 112.0 204.0 L 112.0 204.0 L 112.0 205.0 L 112.0 205.0 L 112.0 206.0 L 112.0 206.0 L 112.0 206.0 L 112.0 207.0 L 112.0 207.0 L 112.0 208.0 L 112.0 208.0 L 112.0 209.0 L 112.0 209.0 L 112.0 209.0 L 112.0 209.0 L 112.0 210.0 L 112.0 210.0 L 112.0 210.0 L 112.0 210.0 L 112.0 211.0 L 112.0 211.0 L 112.0 211.0 L 112.0 211.0 L 112.0 211.0 L 112.0 211.0 L 112.0 212.0 L 112.0 212.0 L 112.0 212.0 L 112.0 212.0 L 112.0 212.0 L 112.0 212.0 L 112.0 212.0 L 112.0 212.0 L 112.0 212.0 L 112.0 212.0 L 112.0 212.0 L 112.0 212.0 L 112.0 212.0 L 113.0 212.0 L 113.0 212.0 L 114.0 212.0 L 114.0 211.0 L 116.0 209.0 L 117.0 208.0 L 119.0 206.0 L 122.0 203.0 L 126.0 200.0 L 130.0 197.0 L 135.0 192.0 L 140.0 186.0 L 144.0 179.0 L 149.0 171.0 " stroke="black" fill="none" stroke-width="5.0" stroke-linecap="round" stroke-linejoin="round" />
<path d="M 151.0 83.0 L 151.0 83.0 L 151.0 83.0 L 151.0 83.0 L 151.0 83.0 L 151.0 83.0 L 151.0 83.0 L 151.0 83.0 L 151.0 83.0 L 151.0 83.0 L 151.0 83.0 L 151.0 83.0 L 151.0 83.0 L 151.0 83.0 L 151.0 83.0 L 151.0 84.0 L 151.0 84.0 L 151.0 84.0 L 151.0 84.0 L 151.0 84.0 L 151.0 84.0 L 152.0 84.0 L 152.0 84.0 L 152.0 84.0 L 153.0 84.0 L 153.0 85.0 L 154.0 85.0 L 155.0 85.0 L 155.0 85.0 L 156.0 85.0 L 157.0 85.0 L 158.0 85.0 L 159.0 85.0 L 160.0 86.0 L 161.0 86.0 L 162.0 86.0 L 163.0 86.0 L 164.0 86.0 L 164.0 86.0 L 165.0 86.0 L 166.0 86.0 L 167.0 86.0 L 168.0 86.0 L 169.0 86.0 L 170.0 86.0 L 171.0 86.0 L 171.0 86.0 L 172.0 86.0 L 173.0 86.0 L 174.0 86.0 L 174.0 86.0 L 175.0 86.0 L 176.0 85.0 L 176.0 85.0 L 177.0 85.0 L 178.0 85.0 L 178.0 85.0 L 179.0 85.0 L 179.0 85.0 L 180.0 85.0 L 180.0 85.0 L 180.0 85.0 L 181.0 85.0 L 182.0 85.0 L 182.0 84.0 L 183.0 84.0 L 183.0 84.0 L 184.0 84.0 L 184.0 84.0 L 185.0 84.0 L 185.0 84.0 L 186.0 84.0 L 186.0 84.0 L 187.0 84.0 L 187.0 84.0 L 188.0 84.0 L 188.0 84.0 L 189.0 84.0 L 189.0 84.0 L 190.0 84.0 L 190.0 84.0 L 191.0 84.0 L 191.0 84.0 L 191.0 84.0 L 192.0 84.0 L 192.0 84.0 L 193.0 84.0 L 193.0 84.0 L 193.0 84.0 L 194.0 84.0 L 194.0 84.0 L 194.0 84.0 L 195.0 84.0 L 195.0 84.0 L 195.0 84.0 L 196.0 84.0 L 196.0 84.0 L 196.0 84.0 L 197.0 84.0 L 197.0 84.0 L 197.0 84.0 L 198.0 84.0 L 198.0 84.0 L 198.0 84.0 L 199.0 84.0 L 199.0 84.0 L 199.0 84.0 L 200.0 84.0 L 200.0 84.0 L 200.0 84.0 L 201.0 84.0 L 201.0 84.0 L 202.0 84.0 L 202.0 84.0 L 202.0 84.0 L 203.0 84.0 L 203.0 85.0 L 204.0 85.0 L 204.0 85.0 L 205.0 85.0 L 205.0 85.0 L 205.0 85.0 L 206.0 85.0 L 206.0 85.0 L 207.0 85.0 L 207.0 85.0 L 208.0 85.0 L 208.0 85.0 L 209.0 86.0 L 209.0 86.0 L 210.0 86.0 L 210.0 86.0 L 211.0 86.0 L 211.0 86.0 L 212.0 86.0 L 212.0 86.0 L 213.0 86.0 L 213.0 86.0 L 214.0 86.0 L 214.0 86.0 L 215.0 86.0 L 215.0 86.0 L 216.0 86.0 L 216.0 86.0 L 217.0 86.0 L 217.0 86.0 L 218.0 86.0 L 218.0 86.0 L 219.0 86.0 L 219.0 86.0 L 220.0 86.0 L 221.0 86.0 L 221.0 86.0 L 222.0 86.0 L 222.0 86.0 L 223.0 86.0 L 223.0 86.0 L 224.0 86.0 L 224.0 86.0 L 225.0 86.0 L 225.0 86.0 L 226.0 86.0 L 226.0 86.0 L 226.0 86.0 L 227.0 86.0 L 227.0 87.0 L 228.0 87.0 L 228.0 87.0 L 229.0 87.0 L 229.0 87.0 L 229.0 87.0 L 230.0 87.0 L 230.0 87.0 L 230.0 87.0 L 231.0 87.0 L 231.0 88.0 L 231.0 88.0 L 232.0 88.0 L 232.0 88.0 L 232.0 88.0 L 233.0 88.0 L 233.0 88.0 L 233.0 88.0 L 234.0 88.0 L 234.0 88.0 L 235.0 88.0 L 235.0 88.0 L 236.0 88.0 L 236.0 88.0 L 237.0 88.0 L 237.0 88.0 L 237.0 88.0 L 238.0 88.0 L 238.0 88.0 L 238.0 88.0 " stroke="black" fill="none" stroke-width="5.0" stroke-linecap="round" stroke-linejoin="round" />
<path d="M 197.0 89.0 L 197.0 89.0 L 197.0 89.0 L 197.0 89.0 L 197.0 89.0 L 198.0 89.0 L 198.0 90.0 L 198.0 90.0 L 198.0 90.0 L 198.0 90.0 L 198.0 90.0 L 198.0 90.0 L 198.0 91.0 L 198.0 91.0 L 198.0 91.0 L 197.0 93.0 L 197.0 94.0 L 196.0 96.0 L 195.0 99.0 L 193.0 102.0 L 192.0 105.0 L 191.0 108.0 L 190.0 111.0 L 190.0 112.0 " stroke="black" fill="none" stroke-width="5.0" stroke-linecap="round" stroke-linejoin="round" />
<path d="M 160.0 117.0 L 160.0 117.0 L 160.0 117.0 L 160.0 117.0 L 161.0 117.0 L 161.0 117.0 L 161.0 117.0 L 161.0 117.0 L 161.0 117.0 L 161.0 117.0 L 161.0 117.0 L 161.0 117.0 L 161.0 117.0 L 161.0 117.0 L 161.0 117.0 L 161.0 118.0 L 161.0 119.0 L 161.0 119.0 L 161.0 120.0 L 161.0 121.0 L 161.0 122.0 L 161.0 123.0 L 161.0 124.0 L 161.0 125.0 L 161.0 127.0 L 161.0 129.0 L 161.0 130.0 L 161.0 132.0 L 161.0 134.0 L 161.0 136.0 L 161.0 138.0 L 161.0 140.0 L 161.0 141.0 L 161.0 143.0 L 161.0 145.0 L 161.0 147.0 L 161.0 148.0 L 161.0 150.0 L 161.0 151.0 L 161.0 152.0 L 161.0 154.0 L 161.0 155.0 L 161.0 156.0 L 161.0 157.0 L 161.0 158.0 L 161.0 159.0 L 161.0 159.0 L 161.0 160.0 L 161.0 161.0 L 161.0 161.0 L 161.0 162.0 L 161.0 162.0 L 161.0 163.0 L 161.0 164.0 L 161.0 164.0 L 161.0 165.0 L 161.0 166.0 L 161.0 166.0 L 161.0 167.0 L 161.0 168.0 L 161.0 168.0 L 161.0 169.0 L 161.0 170.0 L 161.0 170.0 L 161.0 171.0 L 161.0 172.0 L 161.0 173.0 L 161.0 173.0 L 161.0 174.0 L 161.0 175.0 L 161.0 176.0 L 161.0 177.0 L 161.0 178.0 L 161.0 179.0 L 161.0 180.0 L 161.0 181.0 L 161.0 182.0 L 161.0 183.0 L 161.0 184.0 L 161.0 185.0 L 161.0 186.0 L 161.0 187.0 L 161.0 188.0 L 161.0 188.0 L 161.0 189.0 L 161.0 190.0 L 161.0 191.0 L 161.0 192.0 L 161.0 193.0 L 161.0 194.0 L 161.0 195.0 L 161.0 196.0 L 161.0 197.0 L 161.0 197.0 L 161.0 198.0 L 161.0 199.0 L 161.0 200.0 L 161.0 201.0 L 161.0 202.0 L 161.0 203.0 L 161.0 204.0 L 161.0 204.0 L 161.0 205.0 L 161.0 206.0 L 161.0 206.0 L 161.0 207.0 L 161.0 207.0 " stroke="black" fill="none" stroke-width="5.0" stroke-linecap="round" stroke-linejoin="round" />
<path d="M 164.0 116.0 L 164.0 116.0 L 164.0 115.0 L 164.0 115.0 L 164.0 115.0 L 164.0 114.0 L 164.0 114.0 L 164.0 114.0 L 164.0 114.0 L 164.0 114.0 L 164.0 114.0 L 164.0 114.0 L 164.0 114.0 L 164.0 114.0 L 164.0 114.0 L 165.0 114.0 L 166.0 114.0 L 166.0 114.0 L 167.0 114.0 L 168.0 114.0 L 169.0 114.0 L 170.0 114.0 L 171.0 114.0 L 172.0 114.0 L 173.0 114.0 L 174.0 114.0 L 175.0 115.0 L 176.0 115.0 L 177.0 115.0 L 178.0 115.0 L 178.0 115.0 L 179.0 115.0 L 180.0 115.0 L 181.0 115.0 L 182.0 115.0 L 183.0 115.0 L 184.0 115.0 L 185.0 115.0 L 185.0 115.0 L 186.0 115.0 L 187.0 115.0 L 188.0 115.0 L 189.0 115.0 L 189.0 115.0 L 190.0 115.0 L 191.0 115.0 L 191.0 115.0 L 192.0 115.0 L 192.0 115.0 L 193.0 114.0 L 193.0 114.0 L 194.0 114.0 L 194.0 114.0 L 194.0 114.0 L 195.0 114.0 L 195.0 114.0 L 196.0 114.0 L 196.0 113.0 L 197.0 113.0 L 197.0 113.0 L 198.0 113.0 L 198.0 113.0 L 198.0 113.0 L 199.0 113.0 L 199.0 113.0 L 199.0 113.0 L 200.0 113.0 L 200.0 113.0 L 200.0 113.0 L 201.0 113.0 L 201.0 113.0 L 202.0 113.0 L 202.0 113.0 L 202.0 113.0 L 203.0 113.0 L 203.0 113.0 L 204.0 113.0 L 204.0 113.0 L 205.0 113.0 L 205.0 113.0 L 205.0 113.0 L 206.0 113.0 L 207.0 113.0 L 207.0 113.0 L 208.0 113.0 L 208.0 113.0 L 209.0 113.0 L 209.0 113.0 L 210.0 113.0 L 211.0 113.0 L 211.0 113.0 L 212.0 113.0 L 213.0 113.0 L 214.0 113.0 L 215.0 113.0 L 215.0 113.0 L 216.0 113.0 L 217.0 114.0 L 217.0 114.0 L 218.0 114.0 L 219.0 114.0 L 219.0 114.0 L 220.0 114.0 L 221.0 114.0 L 221.0 114.0 L 222.0 114.0 L 223.0 114.0 L 223.0 114.0 L 224.0 114.0 L 224.0 114.0 L 225.0 114.0 L 225.0 114.0 L 226.0 114.0 L 226.0 114.0 L 227.0 114.0 L 227.0 114.0 L 228.0 114.0 L 228.0 114.0 L 229.0 114.0 L 229.0 114.0 L 230.0 114.0 L 230.0 114.0 L 231.0 114.0 L 231.0 114.0 L 232.0 114.0 L 232.0 114.0 L 233.0 114.0 L 233.0 114.0 L 234.0 114.0 L 234.0 114.0 L 234.0 114.0 L 235.0 114.0 L 235.0 114.0 L 235.0 114.0 L 236.0 114.0 L 236.0 114.0 L 236.0 114.0 L 236.0 115.0 L 236.0 115.0 L 236.0 115.0 L 236.0 115.0 L 236.0 115.0 L 236.0 116.0 L 236.0 116.0 L 236.0 116.0 L 236.0 117.0 L 236.0 117.0 L 236.0 118.0 L 236.0 119.0 L 236.0 120.0 L 236.0 121.0 L 236.0 122.0 L 236.0 124.0 L 236.0 126.0 L 235.0 127.0 L 235.0 129.0 L 235.0 131.0 L 235.0 134.0 L 235.0 136.0 L 235.0 138.0 L 234.0 140.0 L 234.0 142.0 L 234.0 144.0 L 234.0 146.0 L 234.0 148.0 L 234.0 150.0 L 234.0 152.0 L 234.0 154.0 L 234.0 156.0 L 234.0 157.0 L 234.0 159.0 L 234.0 161.0 L 234.0 162.0 L 234.0 163.0 L 234.0 165.0 L 234.0 166.0 L 234.0 167.0 L 234.0 168.0 L 234.0 169.0 L 234.0 170.0 L 234.0 171.0 L 234.0 173.0 L 234.0 174.0 L 233.0 176.0 L 233.0 178.0 L 233.0 180.0 L 233.0 182.0 L 233.0 184.0 L 233.0 185.0 L 233.0 187.0 L 233.0 188.0 L 233.0 189.0 L 233.0 190.0 L 233.0 191.0 L 233.0 192.0 L 233.0 194.0 L 233.0 195.0 L 233.0 197.0 L 233.0 198.0 L 233.0 200.0 L 233.0 201.0 L 233.0 203.0 L 233.0 204.0 L 233.0 206.0 L 233.0 208.0 L 233.0 209.0 L 233.0 211.0 L 233.0 213.0 L 233.0 214.0 L 233.0 215.0 L 233.0 217.0 L 233.0 218.0 L 233.0 219.0 L 233.0 220.0 L 233.0 220.0 " stroke="black" fill="none" stroke-width="5.0" stroke-linecap="round" stroke-linejoin="round" />
<path d="M 167.0 146.0 L 167.0 146.0 L 167.0 146.0 L 167.0 146.0 L 167.0 146.0 L 167.0 146.0 L 167.0 146.0 L 167.0 145.0 L 168.0 145.0 L 168.0 145.0 L 169.0 145.0 L 170.0 145.0 L 172.0 145.0 L 175.0 145.0 L 178.0 145.0 L 182.0 145.0 L 186.0 145.0 L 190.0 145.0 L 194.0 145.0 L 198.0 145.0 L 202.0 145.0 L 205.0 145.0 L 209.0 145.0 L 212.0 145.0 L 214.0 145.0 L 217.0 146.0 L 219.0 146.0 L 221.0 147.0 L 222.0 149.0 " stroke="black" fill="none" stroke-width="5.0" stroke-linecap="round" stroke-linejoin="round" />
<path d="M 171.0 178.0 L 171.0 178.0 L 171.0 178.0 L 171.0 177.0 L 171.0 177.0 L 171.0 177.0 L 171.0 176.0 L 171.0 176.0 L 171.0 176.0 L 171.0 176.0 L 171.0 175.0 L 172.0 175.0 L 173.0 175.0 L 175.0 175.0 L 177.0 175.0 L 180.0 175.0 L 184.0 175.0 L 188.0 175.0 L 192.0 175.0 L 196.0 175.0 L 200.0 175.0 L 204.0 175.0 L 208.0 175.0 L 212.0 175.0 L 216.0 175.0 L 219.0 175.0 L 223.0 175.0 L 226.0 175.0 " stroke="black" fill="none" stroke-width="5.0" stroke-linecap="round" stroke-linejoin="round" />
<path d="M 167.0 209.0 L 167.0 209.0 L 167.0 209.0 L 167.0 209.0 L 167.0 209.0 L 167.0 209.0 L 167.0 210.0 L 167.0 210.0 L 167.0 210.0 L 166.0 210.0 L 166.0 210.0 L 166.0 210.0 L 167.0 211.0 L 168.0 211.0 L 169.0 211.0 L 172.0 211.0 L 175.0 211.0 L 178.0 211.0 L 183.0 211.0 L 188.0 211.0 L 192.0 212.0 L 198.0 212.0 L 202.0 212.0 L 207.0 212.0 L 213.0 212.0 L 219.0 212.0 L 224.0 212.0 L 229.0 211.0 L 232.0 211.0 " stroke="black" fill="none" stroke-width="5.0" stroke-linecap="round" stroke-linejoin="round" />
<path d="M 187.0 226.0 L 187.0 226.0 L 186.0 226.0 L 186.0 226.0 L 185.0 226.0 L 184.0 227.0 L 183.0 227.0 L 181.0 228.0 L 179.0 230.0 L 176.0 231.0 L 172.0 233.0 L 167.0 235.0 L 162.0 238.0 L 157.0 241.0 L 153.0 244.0 L 150.0 247.0 L 148.0 249.0 " stroke="black" fill="none" stroke-width="5.0" stroke-linecap="round" stroke-linejoin="round" />
<path d="M 212.0 230.0 L 212.0 230.0 L 212.0 230.0 L 213.0 229.0 L 213.0 229.0 L 213.0 229.0 L 213.0 229.0 L 213.0 229.0 L 214.0 229.0 L 215.0 229.0 L 216.0 230.0 L 218.0 231.0 L 221.0 233.0 L 224.0 235.0 L 227.0 238.0 L 230.0 241.0 L 234.0 245.0 L 237.0 249.0 L 240.0 252.0 L 243.0 255.0 L 244.0 257.0 L 245.0 258.0 " stroke="black" fill="none" stroke-width="5.0" stroke-linecap="round" stroke-linejoin="round" />
</svg>