<svg xmlns="http://www.w3.org/2000/svg" width="300" height="300" viewBox="0 0 300 300">
<path d="M 64.0 87.0 L 64.0 87.0 L 64.0 87.0 L 64.0 86.0 L 64.0 86.0 L 64.0 85.0 L 63.0 85.0 L 63.0 85.0 L 63.0 84.0 L 63.0 84.0 L 62.0 84.0 L 62.0 84.0 L 62.0 84.0 L 61.0 84.0 L 61.0 85.0 L 61.0 85.0 L 61.0 85.0 L 61.0 86.0 L 61.0 86.0 L 61.0 86.0 L 62.0 87.0 L 63.0 87.0 L 64.0 87.0 L 66.0 87.0 L 69.0 87.0 L 72.0 87.0 L 75.0 87.0 L 79.0 87.0 L 83.0 86.0 L 86.0 85.0 L 88.0 85.0 " stroke="black" fill="none" stroke-width="5.0" stroke-linecap="round" stroke-linejoin="round" />
<path d="M 90.0 72.0 L 90.0 72.0 L 90.0 72.0 L 90.0 72.0 L 90.0 72.0 L 90.0 72.0 L 90.0 72.0 L 90.0 74.0 L 90.0 76.0 L 90.0 80.0 L 90.0 85.0 L 90.0 91.0 L 90.0 97.0 L 90.0 103.0 L 90.0 108.0 L 91.0 111.0 L 91.0 111.0 " stroke="black" fill="none" stroke-width="5.0" stroke-linecap="round" stroke-linejoin="round" />
<path d="M 120.0 84.0 L 120.0 84.0 L 119.0 84.0 L 118.0 84.0 L 117.0 84.0 L 116.0 84.0 L 115.0 84.0 L 114.0 84.0 L 113.0 84.0 L 113.0 84.0 L 112.0 84.0 L 112.0 84.0 L 112.0 84.0 L 113.0 84.0 L 114.0 84.0 L 116.0 84.0 L 119.0 84.0 L 121.0 84.0 L 124.0 84.0 L 128.0 84.0 L 131.0 84.0 L 134.0 84.0 L 137.0 84.0 L 140.0 84.0 L 142.0 83.0 L 144.0 83.0 L 145.0 83.0 L 146.0 83.0 " stroke="black" fill="none" stroke-width="5.0" stroke-linecap="round" stroke-linejoin="round" />
<path d="M 118.0 71.0 L 118.0 71.0 L 117.0 71.0 L 117.0 71.0 L 116.0 72.0 L 116.0 73.0 L 116.0 75.0 L 116.0 77.0 L 116.0 80.0 L 116.0 84.0 L 116.0 88.0 L 116.0 92.0 L 116.0 97.0 L 116.0 101.0 L 116.0 104.0 L 115.0 107.0 L 115.0 109.0 L 115.0 109.0 " stroke="black" fill="none" stroke-width="5.0" stroke-linecap="round" stroke-linejoin="round" />
<path d="M 68.0 116.0 L 68.0 116.0 L 68.0 116.0 L 68.0 116.0 L 68.0 116.0 L 67.0 117.0 L 67.0 117.0 L 67.0 117.0 L 67.0 118.0 L 67.0 119.0 L 67.0 121.0 L 68.0 124.0 L 68.0 127.0 L 69.0 130.0 L 69.0 133.0 L 70.0 136.0 L 70.0 138.0 L 70.0 139.0 L 70.0 139.0 L 71.0 139.0 L 72.0 137.0 L 72.0 135.0 " stroke="black" fill="none" stroke-width="5.0" stroke-linecap="round" stroke-linejoin="round" />
<path d="M 72.0 113.0 L 71.0 113.0 L 70.0 113.0 L 69.0 113.0 L 68.0 113.0 L 67.0 114.0 L 67.0 114.0 L 67.0 114.0 L 67.0 114.0 L 67.0 115.0 L 69.0 115.0 L 71.0 115.0 L 74.0 115.0 L 78.0 115.0 L 81.0 116.0 L 85.0 116.0 L 88.0 116.0 L 91.0 117.0 L 94.0 117.0 L 96.0 118.0 L 98.0 118.0 L 99.0 118.0 L 100.0 119.0 L 100.0 120.0 L 100.0 120.0 L 100.0 121.0 L 100.0 123.0 L 99.0 124.0 L 97.0 126.0 L 96.0 127.0 L 94.0 129.0 L 92.0 131.0 L 90.0 133.0 L 88.0 135.0 L 85.0 136.0 L 83.0 138.0 L 81.0 140.0 L 79.0 141.0 L 78.0 142.0 " stroke="black" fill="none" stroke-width="5.0" stroke-linecap="round" stroke-linejoin="round" />
<path d="M 73.0 140.0 L 73.0 140.0 L 73.0 140.0 L 72.0 140.0 L 71.0 140.0 L 71.0 140.0 L 71.0 140.0 L 70.0 140.0 L 70.0 140.0 L 70.0 140.0 L 70.0 140.0 L 71.0 140.0 L 73.0 140.0 L 76.0 140.0 L 81.0 139.0 L 86.0 138.0 L 91.0 137.0 L 94.0 136.0 " stroke="black" fill="none" stroke-width="5.0" stroke-linecap="round" stroke-linejoin="round" />
<path d="M 111.0 116.0 L 111.0 116.0 L 111.0 116.0 L 111.0 115.0 L 111.0 115.0 L 111.0 115.0 L 111.0 115.0 L 111.0 116.0 L 111.0 117.0 L 111.0 119.0 L 111.0 121.0 L 112.0 124.0 L 112.0 127.0 L 112.0 130.0 L 113.0 132.0 L 113.0 135.0 L 113.0 137.0 L 113.0 138.0 L 113.0 139.0 L 113.0 140.0 L 113.0 140.0 L 113.0 140.0 L 113.0 138.0 L 113.0 136.0 L 113.0 134.0 L 114.0 130.0 L 114.0 127.0 L 114.0 124.0 L 114.0 121.0 L 114.0 118.0 L 114.0 116.0 L 114.0 114.0 L 113.0 113.0 L 112.0 112.0 L 112.0 112.0 L 111.0 112.0 L 111.0 112.0 L 111.0 113.0 L 111.0 113.0 L 112.0 113.0 L 113.0 113.0 L 115.0 113.0 L 116.0 113.0 L 119.0 113.0 L 121.0 113.0 L 124.0 113.0 L 127.0 114.0 L 130.0 114.0 L 133.0 115.0 L 136.0 115.0 L 138.0 116.0 L 141.0 117.0 L 143.0 118.0 L 144.0 119.0 L 144.0 120.0 L 145.0 122.0 L 145.0 123.0 L 144.0 125.0 L 143.0 127.0 L 141.0 129.0 L 140.0 132.0 L 139.0 134.0 L 138.0 136.0 L 137.0 138.0 L 137.0 140.0 L 136.0 141.0 L 136.0 141.0 L 136.0 142.0 L 136.0 142.0 L 135.0 142.0 L 135.0 142.0 L 133.0 141.0 L 132.0 141.0 L 129.0 141.0 L 127.0 141.0 L 124.0 141.0 L 121.0 142.0 L 118.0 142.0 L 115.0 142.0 L 113.0 143.0 L 111.0 143.0 L 110.0 143.0 L 109.0 144.0 L 108.0 144.0 L 108.0 144.0 L 108.0 144.0 L 108.0 144.0 L 109.0 144.0 L 111.0 144.0 L 114.0 144.0 L 116.0 144.0 L 120.0 144.0 L 124.0 144.0 L 127.0 143.0 L 131.0 143.0 L 135.0 143.0 L 138.0 142.0 L 141.0 142.0 L 142.0 142.0 " stroke="black" fill="none" stroke-width="5.0" stroke-linecap="round" stroke-linejoin="round" />
<path d="M 89.0 150.0 L 89.0 150.0 L 89.0 150.0 L 89.0 150.0 L 89.0 149.0 L 89.0 149.0 L 89.0 149.0 L 89.0 149.0 L 89.0 149.0 L 89.0 149.0 L 89.0 149.0 L 89.0 150.0 L 88.0 151.0 L 87.0 153.0 L 86.0 155.0 L 84.0 158.0 L 83.0 160.0 L 81.0 163.0 L 79.0 166.0 L 77.0 169.0 L 74.0 173.0 L 71.0 177.0 L 68.0 181.0 L 65.0 186.0 L 62.0 190.0 L 60.0 193.0 L 57.0 196.0 L 56.0 197.0 L 55.0 197.0 L 55.0 197.0 " stroke="black" fill="none" stroke-width="5.0" stroke-linecap="round" stroke-linejoin="round" />
<path d="M 78.0 171.0 L 78.0 171.0 L 77.0 171.0 L 77.0 171.0 L 76.0 171.0 L 76.0 171.0 L 76.0 171.0 L 75.0 171.0 L 75.0 171.0 L 75.0 171.0 L 75.0 171.0 L 75.0 172.0 L 75.0 173.0 L 75.0 175.0 L 75.0 178.0 L 75.0 182.0 L 75.0 187.0 L 75.0 193.0 L 75.0 199.0 L 75.0 205.0 L 74.0 211.0 L 74.0 216.0 L 73.0 222.0 L 73.0 228.0 L 72.0 233.0 L 72.0 237.0 L 71.0 242.0 L 71.0 245.0 L 71.0 248.0 L 71.0 250.0 L 71.0 251.0 L 71.0 251.0 L 71.0 250.0 " stroke="black" fill="none" stroke-width="5.0" stroke-linecap="round" stroke-linejoin="round" />
<path d="M 108.0 152.0 L 108.0 152.0 L 108.0 152.0 L 107.0 152.0 L 107.0 153.0 L 107.0 154.0 L 106.0 155.0 L 106.0 156.0 L 106.0 157.0 L 107.0 157.0 L 108.0 158.0 L 110.0 159.0 L 111.0 160.0 L 113.0 161.0 L 115.0 162.0 L 117.0 163.0 L 119.0 164.0 L 120.0 166.0 L 120.0 167.0 L 120.0 169.0 " stroke="black" fill="none" stroke-width="5.0" stroke-linecap="round" stroke-linejoin="round" />
<path d="M 85.0 164.0 L 85.0 164.0 L 83.0 164.0 L 82.0 164.0 L 81.0 164.0 L 79.0 165.0 L 79.0 165.0 L 78.0 165.0 L 78.0 166.0 L 78.0 166.0 L 79.0 166.0 L 80.0 166.0 L 81.0 166.0 L 84.0 167.0 L 87.0 167.0 L 90.0 167.0 L 94.0 168.0 L 99.0 168.0 L 104.0 168.0 L 108.0 168.0 L 114.0 168.0 L 119.0 168.0 L 124.0 168.0 L 129.0 168.0 L 133.0 168.0 L 136.0 167.0 L 139.0 167.0 L 140.0 167.0 L 140.0 167.0 " stroke="black" fill="none" stroke-width="5.0" stroke-linecap="round" stroke-linejoin="round" />
<path d="M 96.0 184.0 L 96.0 184.0 L 94.0 184.0 L 93.0 184.0 L 91.0 185.0 L 90.0 185.0 L 89.0 186.0 L 88.0 186.0 L 87.0 187.0 L 86.0 187.0 L 86.0 188.0 L 86.0 188.0 L 87.0 188.0 L 89.0 188.0 L 91.0 188.0 L 95.0 189.0 L 99.0 189.0 L 102.0 189.0 L 106.0 189.0 L 110.0 189.0 L 114.0 189.0 L 118.0 189.0 L 122.0 189.0 L 125.0 189.0 L 128.0 188.0 L 131.0 188.0 L 132.0 188.0 L 132.0 189.0 L 132.0 190.0 L 130.0 192.0 L 127.0 194.0 L 124.0 197.0 L 120.0 198.0 " stroke="black" fill="none" stroke-width="5.0" stroke-linecap="round" stroke-linejoin="round" />
<path d="M 98.0 207.0 L 97.0 207.0 L 96.0 207.0 L 94.0 208.0 L 92.0 208.0 L 91.0 209.0 L 90.0 209.0 L 90.0 209.0 L 90.0 210.0 L 90.0 210.0 L 90.0 210.0 L 92.0 210.0 L 94.0 210.0 L 97.0 210.0 L 100.0 210.0 L 104.0 210.0 L 108.0 210.0 L 112.0 210.0 L 116.0 210.0 L 121.0 210.0 L 126.0 209.0 L 130.0 209.0 L 135.0 209.0 L 138.0 208.0 L 140.0 208.0 L 141.0 207.0 L 141.0 206.0 " stroke="black" fill="none" stroke-width="5.0" stroke-linecap="round" stroke-linejoin="round" />
<path d="M 118.0 172.0 L 118.0 172.0 L 117.0 173.0 L 117.0 174.0 L 116.0 174.0 L 116.0 175.0 L 115.0 176.0 L 115.0 177.0 L 114.0 179.0 L 114.0 181.0 L 114.0 184.0 L 114.0 188.0 L 114.0 192.0 L 114.0 198.0 L 114.0 203.0 L 114.0 209.0 L 113.0 216.0 L 113.0 222.0 L 112.0 228.0 L 111.0 233.0 L 111.0 236.0 L 110.0 237.0 L 110.0 238.0 L 109.0 238.0 " stroke="black" fill="none" stroke-width="5.0" stroke-linecap="round" stroke-linejoin="round" />
<path d="M 98.0 240.0 L 97.0 240.0 L 95.0 240.0 L 93.0 241.0 L 91.0 241.0 L 90.0 241.0 L 88.0 241.0 L 87.0 241.0 L 86.0 241.0 L 85.0 241.0 L 85.0 241.0 L 84.0 241.0 L 84.0 241.0 L 84.0 241.0 L 85.0 241.0 L 87.0 241.0 L 90.0 241.0 L 93.0 241.0 L 96.0 241.0 L 100.0 240.0 L 104.0 239.0 L 108.0 238.0 L 113.0 237.0 L 117.0 237.0 L 123.0 236.0 L 129.0 235.0 L 134.0 235.0 L 139.0 235.0 L 143.0 234.0 L 145.0 234.0 " stroke="black" fill="none" stroke-width="5.0" stroke-linecap="round" stroke-linejoin="round" />
<path d="M 166.0 86.0 L 166.0 86.0 L 166.0 85.0 L 166.0 85.0 L 167.0 84.0 L 167.0 84.0 L 167.0 84.0 L 168.0 84.0 L 168.0 85.0 L 168.0 87.0 L 168.0 90.0 L 168.0 94.0 L 169.0 99.0 L 169.0 104.0 L 169.0 109.0 L 169.0 115.0 L 169.0 121.0 L 168.0 127.0 L 168.0 133.0 L 168.0 139.0 L 168.0 146.0 L 168.0 153.0 L 168.0 158.0 L 168.0 163.0 L 168.0 167.0 L 168.0 171.0 L 168.0 174.0 L 168.0 177.0 L 168.0 180.0 L 168.0 182.0 L 168.0 183.0 L 168.0 184.0 L 168.0 184.0 L 168.0 184.0 " stroke="black" fill="none" stroke-width="5.0" stroke-linecap="round" stroke-linejoin="round" />
<path d="M 173.0 84.0 L 173.0 84.0 L 172.0 84.0 L 171.0 84.0 L 170.0 84.0 L 170.0 84.0 L 169.0 83.0 L 169.0 83.0 L 168.0 82.0 L 168.0 82.0 L 168.0 82.0 L 168.0 81.0 L 168.0 81.0 L 168.0 81.0 L 168.0 81.0 L 168.0 81.0 L 169.0 81.0 L 169.0 81.0 L 169.0 81.0 L 169.0 81.0 L 170.0 81.0 L 170.0 81.0 L 171.0 81.0 L 172.0 81.0 L 173.0 82.0 L 174.0 82.0 L 175.0 82.0 L 176.0 82.0 L 177.0 82.0 L 178.0 83.0 L 180.0 83.0 L 182.0 83.0 L 184.0 83.0 L 185.0 83.0 L 187.0 83.0 L 189.0 83.0 L 190.0 83.0 L 192.0 82.0 L 193.0 82.0 L 194.0 82.0 L 195.0 82.0 L 196.0 82.0 L 197.0 82.0 L 199.0 82.0 L 200.0 82.0 L 201.0 82.0 L 202.0 82.0 L 204.0 82.0 L 205.0 82.0 L 206.0 82.0 L 207.0 82.0 L 208.0 82.0 L 209.0 82.0 L 210.0 82.0 L 211.0 82.0 L 212.0 82.0 L 213.0 83.0 L 214.0 83.0 L 215.0 83.0 L 216.0 83.0 L 217.0 83.0 L 218.0 83.0 L 219.0 84.0 L 220.0 84.0 L 221.0 84.0 L 222.0 84.0 L 223.0 84.0 L 224.0 84.0 L 225.0 84.0 L 226.0 84.0 L 227.0 84.0 L 227.0 84.0 L 228.0 85.0 L 229.0 85.0 L 229.0 85.0 L 229.0 86.0 L 230.0 86.0 L 230.0 87.0 L 230.0 88.0 L 230.0 89.0 L 231.0 90.0 L 231.0 91.0 L 231.0 93.0 L 231.0 95.0 L 231.0 97.0 L 231.0 100.0 L 231.0 103.0 L 231.0 106.0 L 231.0 110.0 L 231.0 113.0 L 231.0 116.0 L 231.0 119.0 L 231.0 122.0 L 231.0 125.0 L 231.0 128.0 L 231.0 131.0 L 231.0 134.0 L 231.0 138.0 L 232.0 141.0 L 232.0 145.0 L 232.0 149.0 L 232.0 152.0 L 232.0 156.0 L 232.0 160.0 L 232.0 163.0 L 233.0 166.0 L 233.0 169.0 L 233.0 171.0 L 233.0 173.0 L 233.0 174.0 L 233.0 176.0 L 233.0 177.0 L 233.0 179.0 L 233.0 181.0 L 233.0 182.0 L 232.0 183.0 L 232.0 183.0 L 232.0 183.0 L 232.0 183.0 L 232.0 181.0 L 232.0 180.0 " stroke="black" fill="none" stroke-width="5.0" stroke-linecap="round" stroke-linejoin="round" />
<path d="M 178.0 114.0 L 178.0 114.0 L 178.0 114.0 L 177.0 114.0 L 177.0 114.0 L 177.0 114.0 L 176.0 114.0 L 176.0 114.0 L 176.0 114.0 L 177.0 115.0 L 180.0 116.0 L 183.0 116.0 L 187.0 116.0 L 192.0 116.0 L 197.0 116.0 L 203.0 114.0 L 209.0 114.0 L 215.0 113.0 L 220.0 113.0 L 223.0 113.0 L 225.0 113.0 L 226.0 113.0 " stroke="black" fill="none" stroke-width="5.0" stroke-linecap="round" stroke-linejoin="round" />
<path d="M 180.0 144.0 L 180.0 144.0 L 179.0 144.0 L 178.0 144.0 L 177.0 144.0 L 176.0 144.0 L 175.0 144.0 L 175.0 145.0 L 175.0 145.0 L 176.0 145.0 L 177.0 145.0 L 179.0 145.0 L 182.0 145.0 L 184.0 146.0 L 188.0 146.0 L 192.0 146.0 L 196.0 146.0 L 201.0 145.0 L 208.0 143.0 L 211.0 141.0 " stroke="black" fill="none" stroke-width="5.0" stroke-linecap="round" stroke-linejoin="round" />
<path d="M 168.0 180.0 L 167.0 180.0 L 166.0 180.0 L 165.0 180.0 L 164.0 180.0 L 163.0 180.0 L 163.0 180.0 L 163.0 180.0 L 164.0 180.0 L 167.0 180.0 L 171.0 181.0 L 175.0 181.0 L 180.0 181.0 L 186.0 181.0 L 191.0 181.0 L 197.0 181.0 L 203.0 181.0 L 209.0 179.0 L 215.0 178.0 L 220.0 177.0 L 224.0 175.0 L 227.0 175.0 L 228.0 175.0 " stroke="black" fill="none" stroke-width="5.0" stroke-linecap="round" stroke-linejoin="round" />
<path d="M 187.0 190.0 L 187.0 190.0 L 187.0 190.0 L 187.0 190.0 L 187.0 190.0 L 187.0 191.0 L 186.0 192.0 L 186.0 193.0 L 185.0 195.0 L 185.0 197.0 L 185.0 199.0 L 184.0 202.0 L 184.0 206.0 L 184.0 210.0 L 183.0 214.0 L 182.0 219.0 L 181.0 224.0 L 180.0 229.0 L 179.0 233.0 L 176.0 238.0 L 173.0 241.0 L 170.0 244.0 L 166.0 246.0 L 163.0 248.0 L 160.0 249.0 L 159.0 249.0 " stroke="black" fill="none" stroke-width="5.0" stroke-linecap="round" stroke-linejoin="round" />
<path d="M 204.0 190.0 L 204.0 190.0 L 203.0 190.0 L 202.0 191.0 L 201.0 191.0 L 201.0 192.0 L 200.0 193.0 L 200.0 194.0 L 200.0 195.0 L 200.0 196.0 L 201.0 198.0 L 201.0 200.0 L 201.0 203.0 L 201.0 206.0 L 201.0 209.0 L 201.0 213.0 L 201.0 217.0 L 201.0 221.0 L 201.0 225.0 L 201.0 228.0 L 201.0 232.0 L 201.0 234.0 L 200.0 237.0 L 200.0 239.0 L 200.0 241.0 L 200.0 243.0 L 199.0 244.0 L 199.0 245.0 L 199.0 246.0 L 199.0 247.0 L 199.0 247.0 L 199.0 247.0 L 199.0 248.0 L 199.0 248.0 L 199.0 249.0 L 200.0 249.0 L 200.0 250.0 L 201.0 250.0 L 202.0 251.0 L 203.0 251.0 L 204.0 251.0 L 206.0 252.0 L 207.0 252.0 L 209.0 252.0 L 211.0 252.0 L 214.0 252.0 L 217.0 252.0 L 220.0 252.0 L 223.0 252.0 L 226.0 252.0 L 229.0 253.0 L 231.0 253.0 L 234.0 253.0 L 236.0 253.0 L 237.0 254.0 L 238.0 254.0 L 239.0 254.0 L 240.0 254.0 L 240.0 253.0 L 240.0 253.0 L 240.0 252.0 L 240.0 252.0 L 240.0 251.0 L 240.0 250.0 L 240.0 248.0 L 240.0 246.0 L 240.0 243.0 L 239.0 240.0 L 239.0 236.0 L 239.0 231.0 L 239.0 229.0 " stroke="black" fill="none" stroke-width="5.0" stroke-linecap="round" stroke-linejoin="round" />
</svg>