<svg xmlns="http://www.w3.org/2000/svg" width="300" height="300" viewBox="0 0 300 300">
<path d="M 116.0 72.0 L 116.0 71.0 L 116.0 70.0 L 115.0 69.0 L 115.0 69.0 L 114.0 69.0 L 114.0 68.0 L 114.0 68.0 L 114.0 69.0 L 114.0 70.0 L 114.0 73.0 L 114.0 76.0 L 114.0 80.0 L 115.0 85.0 L 115.0 90.0 L 115.0 96.0 L 115.0 103.0 L 115.0 109.0 L 114.0 114.0 L 114.0 118.0 L 113.0 121.0 " stroke="black" fill="none" stroke-width="5.0" stroke-linecap="round" stroke-linejoin="round" />
<path d="M 76.0 95.0 L 76.0 95.0 L 74.0 95.0 L 73.0 96.0 L 72.0 96.0 L 72.0 96.0 L 71.0 96.0 L 71.0 96.0 L 71.0 96.0 L 73.0 96.0 L 74.0 96.0 L 77.0 96.0 L 81.0 96.0 L 85.0 96.0 L 90.0 97.0 L 96.0 97.0 L 101.0 97.0 L 106.0 97.0 L 111.0 97.0 L 116.0 97.0 L 121.0 97.0 L 126.0 97.0 L 131.0 97.0 " stroke="black" fill="none" stroke-width="5.0" stroke-linecap="round" stroke-linejoin="round" />
<path d="M 162.0 92.0 L 162.0 92.0 L 162.0 92.0 L 161.0 91.0 L 161.0 91.0 L 160.0 91.0 L 160.0 90.0 L 160.0 90.0 L 161.0 90.0 L 163.0 90.0 L 165.0 90.0 L 169.0 90.0 L 173.0 90.0 L 178.0 90.0 L 183.0 90.0 L 189.0 90.0 L 194.0 90.0 L 200.0 90.0 L 207.0 90.0 L 213.0 90.0 L 219.0 90.0 L 224.0 90.0 L 227.0 90.0 L 228.0 90.0 " stroke="black" fill="none" stroke-width="5.0" stroke-linecap="round" stroke-linejoin="round" />
<path d="M 187.0 79.0 L 187.0 79.0 L 186.0 79.0 L 186.0 79.0 L 185.0 79.0 L 185.0 80.0 L 185.0 81.0 L 185.0 83.0 L 185.0 87.0 L 186.0 92.0 L 187.0 98.0 L 187.0 105.0 L 187.0 112.0 L 186.0 119.0 L 185.0 124.0 " stroke="black" fill="none" stroke-width="5.0" stroke-linecap="round" stroke-linejoin="round" />
<path d="M 112.0 133.0 L 112.0 133.0 L 113.0 133.0 L 113.0 132.0 L 114.0 132.0 L 114.0 131.0 L 115.0 131.0 L 115.0 130.0 L 115.0 130.0 L 115.0 130.0 L 115.0 129.0 L 115.0 129.0 L 115.0 129.0 L 115.0 129.0 L 115.0 129.0 L 115.0 129.0 L 114.0 130.0 L 113.0 132.0 L 112.0 134.0 L 111.0 137.0 L 109.0 140.0 L 108.0 144.0 L 106.0 149.0 L 103.0 154.0 L 100.0 160.0 L 96.0 167.0 L 91.0 173.0 L 86.0 179.0 L 81.0 185.0 L 76.0 191.0 L 71.0 194.0 L 67.0 197.0 L 63.0 200.0 L 60.0 202.0 L 57.0 204.0 L 54.0 205.0 L 52.0 206.0 " stroke="black" fill="none" stroke-width="5.0" stroke-linecap="round" stroke-linejoin="round" />
<path d="M 102.0 163.0 L 102.0 163.0 L 101.0 163.0 L 101.0 163.0 L 101.0 163.0 L 100.0 163.0 L 100.0 163.0 L 100.0 164.0 L 100.0 165.0 L 100.0 168.0 L 100.0 171.0 L 100.0 176.0 L 100.0 182.0 L 100.0 189.0 L 100.0 198.0 L 100.0 206.0 L 100.0 215.0 L 100.0 224.0 L 100.0 232.0 L 99.0 239.0 L 98.0 246.0 L 98.0 249.0 " stroke="black" fill="none" stroke-width="5.0" stroke-linecap="round" stroke-linejoin="round" />
<path d="M 172.0 168.0 L 171.0 168.0 L 169.0 168.0 L 168.0 168.0 L 167.0 167.0 L 166.0 167.0 L 166.0 167.0 L 166.0 167.0 L 166.0 167.0 L 168.0 167.0 L 170.0 167.0 L 173.0 167.0 L 177.0 167.0 L 182.0 168.0 L 186.0 168.0 L 190.0 168.0 L 195.0 168.0 L 200.0 168.0 L 206.0 168.0 L 213.0 168.0 L 218.0 168.0 " stroke="black" fill="none" stroke-width="5.0" stroke-linecap="round" stroke-linejoin="round" />
<path d="M 164.0 137.0 L 164.0 137.0 L 164.0 137.0 L 164.0 138.0 L 164.0 138.0 L 164.0 139.0 L 164.0 141.0 L 164.0 143.0 L 164.0 145.0 L 164.0 148.0 L 163.0 151.0 L 163.0 154.0 L 163.0 157.0 L 163.0 160.0 L 163.0 163.0 L 163.0 166.0 L 163.0 170.0 L 164.0 172.0 L 164.0 175.0 L 164.0 178.0 L 165.0 181.0 L 165.0 185.0 L 165.0 188.0 L 165.0 191.0 L 165.0 194.0 L 165.0 197.0 L 164.0 200.0 L 164.0 202.0 L 164.0 205.0 L 164.0 207.0 L 163.0 210.0 L 163.0 213.0 L 162.0 215.0 L 162.0 217.0 L 162.0 220.0 L 162.0 221.0 L 161.0 223.0 L 161.0 225.0 L 161.0 226.0 L 161.0 228.0 L 161.0 229.0 L 161.0 230.0 L 161.0 231.0 L 161.0 232.0 L 161.0 233.0 L 161.0 234.0 L 162.0 234.0 L 162.0 235.0 L 162.0 236.0 L 162.0 236.0 L 162.0 237.0 L 162.0 238.0 L 162.0 238.0 L 162.0 239.0 L 162.0 240.0 L 162.0 240.0 L 162.0 241.0 L 163.0 241.0 L 163.0 242.0 L 163.0 242.0 L 163.0 243.0 L 163.0 243.0 L 164.0 243.0 L 164.0 244.0 L 164.0 244.0 L 164.0 245.0 L 164.0 245.0 L 165.0 245.0 L 165.0 246.0 L 166.0 246.0 L 167.0 247.0 L 168.0 247.0 L 169.0 248.0 L 170.0 248.0 L 172.0 248.0 L 173.0 248.0 L 175.0 248.0 L 178.0 248.0 L 180.0 248.0 L 182.0 248.0 L 184.0 249.0 L 187.0 249.0 L 189.0 249.0 L 191.0 249.0 L 194.0 250.0 L 196.0 250.0 L 198.0 250.0 L 201.0 250.0 L 204.0 250.0 L 207.0 250.0 L 210.0 250.0 L 214.0 250.0 L 217.0 250.0 L 221.0 249.0 L 224.0 248.0 L 227.0 248.0 L 229.0 247.0 L 231.0 247.0 L 232.0 246.0 L 233.0 245.0 L 234.0 245.0 L 234.0 244.0 L 235.0 243.0 L 235.0 243.0 L 235.0 242.0 L 235.0 241.0 L 235.0 240.0 L 235.0 239.0 L 235.0 237.0 L 235.0 235.0 L 235.0 232.0 L 235.0 229.0 L 235.0 225.0 L 235.0 222.0 L 235.0 218.0 L 235.0 216.0 " stroke="black" fill="none" stroke-width="5.0" stroke-linecap="round" stroke-linejoin="round" />
</svg>