<svg xmlns="http://www.w3.org/2000/svg" width="300" height="300" viewBox="0 0 300 300">
<path d="M 123.0 69.0 L 123.0 69.0 L 123.0 69.0 L 123.0 69.0 L 123.0 69.0 L 123.0 69.0 L 123.0 69.0 L 123.0 69.0 L 123.0 69.0 L 123.0 69.0 L 123.0 69.0 L 123.0 70.0 L 123.0 71.0 L 122.0 71.0 L 122.0 73.0 L 121.0 74.0 L 120.0 75.0 L 119.0 77.0 L 118.0 80.0 L 116.0 83.0 L 114.0 86.0 L 112.0 90.0 L 109.0 95.0 L 107.0 100.0 L 104.0 105.0 L 101.0 110.0 L 98.0 115.0 L 95.0 119.0 L 91.0 122.0 L 87.0 125.0 L 83.0 127.0 L 80.0 129.0 L 78.0 129.0 " stroke="black" fill="none" stroke-width="5.0" stroke-linecap="round" stroke-linejoin="round" />
<path d="M 115.0 90.0 L 115.0 90.0 L 115.0 90.0 L 114.0 90.0 L 114.0 90.0 L 114.0 90.0 L 113.0 89.0 L 113.0 89.0 L 113.0 89.0 L 113.0 89.0 L 113.0 89.0 L 113.0 88.0 L 113.0 88.0 L 114.0 88.0 L 115.0 88.0 L 117.0 88.0 L 119.0 88.0 L 121.0 88.0 L 124.0 88.0 L 127.0 88.0 L 130.0 88.0 L 134.0 88.0 L 137.0 88.0 L 141.0 88.0 L 144.0 88.0 L 147.0 88.0 L 149.0 88.0 L 152.0 88.0 L 154.0 88.0 L 156.0 88.0 L 158.0 88.0 L 160.0 88.0 L 161.0 88.0 L 163.0 88.0 L 165.0 88.0 L 166.0 88.0 L 168.0 88.0 L 169.0 88.0 L 170.0 88.0 L 172.0 88.0 L 173.0 88.0 L 174.0 88.0 L 175.0 88.0 L 176.0 88.0 L 177.0 88.0 L 179.0 88.0 L 180.0 88.0 L 181.0 88.0 L 182.0 89.0 L 183.0 89.0 L 183.0 89.0 L 184.0 89.0 L 184.0 89.0 L 184.0 89.0 L 184.0 89.0 L 184.0 90.0 L 184.0 90.0 L 184.0 91.0 L 183.0 92.0 L 182.0 93.0 L 180.0 95.0 L 179.0 97.0 L 177.0 100.0 L 174.0 103.0 L 171.0 107.0 L 168.0 111.0 L 165.0 115.0 L 163.0 118.0 L 162.0 121.0 L 161.0 122.0 " stroke="black" fill="none" stroke-width="5.0" stroke-linecap="round" stroke-linejoin="round" />
<path d="M 100.0 128.0 L 100.0 128.0 L 100.0 128.0 L 100.0 128.0 L 100.0 128.0 L 100.0 128.0 L 100.0 128.0 L 99.0 128.0 L 99.0 128.0 L 99.0 128.0 L 99.0 128.0 L 99.0 128.0 L 99.0 128.0 L 100.0 128.0 L 100.0 128.0 L 101.0 128.0 L 102.0 128.0 L 103.0 128.0 L 104.0 128.0 L 105.0 128.0 L 106.0 128.0 L 107.0 128.0 L 109.0 128.0 L 110.0 128.0 L 112.0 128.0 L 114.0 128.0 L 116.0 128.0 L 118.0 128.0 L 120.0 128.0 L 123.0 128.0 L 125.0 128.0 L 128.0 128.0 L 131.0 127.0 L 133.0 127.0 L 136.0 127.0 L 139.0 127.0 L 141.0 127.0 L 143.0 127.0 L 144.0 127.0 L 146.0 126.0 L 148.0 126.0 L 149.0 126.0 L 150.0 126.0 L 151.0 126.0 L 152.0 126.0 L 152.0 126.0 L 153.0 126.0 L 154.0 126.0 L 155.0 126.0 L 157.0 126.0 L 158.0 126.0 L 159.0 126.0 L 160.0 126.0 L 161.0 126.0 L 162.0 126.0 L 164.0 126.0 L 165.0 126.0 L 166.0 126.0 L 167.0 126.0 L 168.0 126.0 L 170.0 126.0 L 171.0 126.0 L 173.0 126.0 L 174.0 126.0 L 176.0 126.0 L 177.0 126.0 L 178.0 126.0 L 180.0 126.0 L 181.0 126.0 L 182.0 126.0 L 183.0 126.0 L 184.0 126.0 L 185.0 126.0 L 186.0 126.0 L 187.0 126.0 L 188.0 127.0 L 189.0 127.0 L 190.0 127.0 L 191.0 127.0 L 192.0 127.0 L 193.0 127.0 L 194.0 127.0 L 194.0 127.0 L 195.0 127.0 L 196.0 127.0 L 196.0 127.0 L 197.0 127.0 L 198.0 127.0 L 198.0 127.0 L 199.0 127.0 L 199.0 127.0 L 200.0 127.0 L 201.0 127.0 L 201.0 127.0 L 202.0 127.0 L 203.0 127.0 L 203.0 127.0 L 204.0 127.0 L 205.0 127.0 L 206.0 127.0 L 207.0 127.0 L 207.0 127.0 L 208.0 127.0 L 209.0 127.0 L 209.0 127.0 L 210.0 127.0 L 210.0 127.0 L 211.0 127.0 L 211.0 127.0 L 211.0 127.0 L 212.0 127.0 L 212.0 127.0 L 212.0 127.0 L 213.0 127.0 L 213.0 127.0 L 213.0 127.0 L 213.0 127.0 L 213.0 128.0 L 213.0 128.0 L 213.0 128.0 L 213.0 128.0 L 213.0 129.0 L 213.0 130.0 L 213.0 130.0 L 213.0 131.0 L 213.0 132.0 L 213.0 133.0 L 214.0 135.0 L 214.0 137.0 L 214.0 139.0 L 214.0 142.0 L 214.0 146.0 L 214.0 149.0 L 213.0 153.0 L 213.0 157.0 L 213.0 161.0 L 213.0 164.0 L 213.0 167.0 L 213.0 170.0 L 213.0 172.0 L 213.0 173.0 L 213.0 174.0 L 213.0 175.0 L 213.0 176.0 L 213.0 176.0 L 212.0 176.0 L 211.0 176.0 " stroke="black" fill="none" stroke-width="5.0" stroke-linecap="round" stroke-linejoin="round" />
<path d="M 156.0 134.0 L 156.0 134.0 L 156.0 133.0 L 156.0 132.0 L 155.0 132.0 L 155.0 131.0 L 155.0 131.0 L 155.0 131.0 L 155.0 131.0 L 155.0 132.0 L 155.0 134.0 L 155.0 137.0 L 155.0 140.0 L 155.0 144.0 L 156.0 148.0 L 156.0 152.0 L 157.0 156.0 L 157.0 160.0 L 157.0 164.0 L 157.0 167.0 L 157.0 170.0 L 157.0 172.0 L 157.0 173.0 " stroke="black" fill="none" stroke-width="5.0" stroke-linecap="round" stroke-linejoin="round" />
<path d="M 98.0 174.0 L 98.0 174.0 L 97.0 174.0 L 96.0 174.0 L 95.0 174.0 L 95.0 174.0 L 94.0 174.0 L 94.0 174.0 L 94.0 174.0 L 94.0 174.0 L 94.0 174.0 L 94.0 174.0 L 95.0 174.0 L 96.0 174.0 L 98.0 174.0 L 99.0 174.0 L 100.0 174.0 L 102.0 174.0 L 103.0 174.0 L 104.0 174.0 L 106.0 174.0 L 107.0 174.0 L 109.0 174.0 L 110.0 174.0 L 113.0 174.0 L 115.0 174.0 L 118.0 174.0 L 122.0 174.0 L 125.0 174.0 L 129.0 174.0 L 133.0 174.0 L 136.0 174.0 L 140.0 174.0 L 143.0 174.0 L 146.0 174.0 L 148.0 174.0 L 150.0 174.0 L 152.0 174.0 L 153.0 174.0 L 155.0 174.0 L 157.0 174.0 L 159.0 175.0 L 161.0 175.0 L 163.0 175.0 L 166.0 176.0 L 169.0 176.0 L 172.0 177.0 L 175.0 177.0 L 178.0 177.0 L 180.0 177.0 L 183.0 177.0 L 186.0 177.0 L 188.0 177.0 L 190.0 177.0 L 192.0 176.0 L 194.0 176.0 L 195.0 176.0 L 197.0 176.0 L 198.0 176.0 L 199.0 176.0 L 201.0 176.0 L 202.0 176.0 L 204.0 176.0 L 206.0 175.0 L 207.0 175.0 L 209.0 175.0 L 211.0 175.0 L 212.0 174.0 L 214.0 174.0 L 215.0 174.0 L 216.0 174.0 L 217.0 174.0 L 218.0 174.0 L 218.0 174.0 L 219.0 174.0 L 219.0 174.0 L 218.0 174.0 L 216.0 174.0 " stroke="black" fill="none" stroke-width="5.0" stroke-linecap="round" stroke-linejoin="round" />
<path d="M 96.0 128.0 L 96.0 128.0 L 95.0 128.0 L 95.0 128.0 L 95.0 127.0 L 95.0 127.0 L 94.0 127.0 L 94.0 127.0 L 94.0 127.0 L 94.0 127.0 L 94.0 128.0 L 94.0 129.0 L 94.0 130.0 L 95.0 132.0 L 95.0 134.0 L 96.0 136.0 L 96.0 139.0 L 97.0 141.0 L 97.0 144.0 L 97.0 146.0 L 98.0 149.0 L 98.0 151.0 L 98.0 154.0 L 98.0 155.0 L 98.0 157.0 L 99.0 159.0 L 99.0 161.0 L 99.0 163.0 L 99.0 164.0 L 99.0 166.0 L 99.0 168.0 L 99.0 169.0 L 99.0 171.0 L 99.0 173.0 L 99.0 174.0 L 100.0 176.0 L 100.0 177.0 L 100.0 179.0 L 100.0 181.0 L 100.0 182.0 L 100.0 184.0 L 100.0 186.0 L 101.0 187.0 L 101.0 189.0 L 101.0 191.0 L 101.0 192.0 L 101.0 193.0 L 101.0 194.0 L 101.0 195.0 L 101.0 197.0 L 101.0 198.0 L 101.0 199.0 L 101.0 200.0 L 101.0 201.0 L 101.0 202.0 L 101.0 203.0 L 100.0 204.0 L 100.0 205.0 L 100.0 206.0 L 100.0 207.0 L 100.0 209.0 L 100.0 210.0 L 100.0 211.0 L 100.0 212.0 L 100.0 213.0 L 100.0 214.0 L 100.0 215.0 L 100.0 216.0 L 100.0 218.0 L 100.0 219.0 L 100.0 220.0 L 100.0 221.0 L 100.0 222.0 L 100.0 223.0 L 100.0 224.0 L 100.0 225.0 L 100.0 226.0 L 100.0 227.0 L 100.0 228.0 L 100.0 229.0 L 100.0 230.0 L 101.0 231.0 L 101.0 232.0 L 101.0 233.0 L 101.0 234.0 L 101.0 235.0 L 101.0 236.0 L 101.0 237.0 L 101.0 238.0 L 102.0 238.0 L 102.0 239.0 L 102.0 239.0 L 102.0 240.0 L 103.0 240.0 L 103.0 241.0 L 103.0 241.0 L 104.0 241.0 L 104.0 242.0 L 104.0 242.0 L 105.0 243.0 L 105.0 243.0 L 105.0 243.0 L 106.0 243.0 L 106.0 244.0 L 107.0 244.0 L 107.0 244.0 L 108.0 245.0 L 108.0 245.0 L 109.0 245.0 L 109.0 245.0 L 110.0 245.0 L 111.0 246.0 L 111.0 246.0 L 112.0 246.0 L 114.0 246.0 L 115.0 247.0 L 117.0 247.0 L 118.0 247.0 L 120.0 247.0 L 123.0 247.0 L 125.0 247.0 L 128.0 247.0 L 130.0 247.0 L 133.0 247.0 L 135.0 247.0 L 138.0 247.0 L 140.0 247.0 L 142.0 247.0 L 144.0 247.0 L 146.0 247.0 L 148.0 247.0 L 151.0 247.0 L 153.0 247.0 L 155.0 247.0 L 158.0 247.0 L 161.0 247.0 L 164.0 247.0 L 167.0 247.0 L 169.0 247.0 L 172.0 247.0 L 174.0 247.0 L 176.0 247.0 L 178.0 247.0 L 180.0 247.0 L 182.0 247.0 L 184.0 247.0 L 185.0 247.0 L 187.0 247.0 L 188.0 247.0 L 190.0 247.0 L 191.0 247.0 L 192.0 247.0 L 193.0 247.0 L 194.0 247.0 L 196.0 247.0 L 197.0 247.0 L 198.0 247.0 L 199.0 247.0 L 200.0 247.0 L 200.0 247.0 L 202.0 247.0 L 203.0 247.0 L 204.0 247.0 L 205.0 247.0 L 206.0 247.0 L 207.0 246.0 L 209.0 246.0 L 210.0 246.0 L 211.0 246.0 L 212.0 246.0 L 214.0 246.0 L 215.0 246.0 L 216.0 246.0 L 217.0 246.0 L 218.0 246.0 L 220.0 246.0 L 221.0 246.0 L 222.0 246.0 L 223.0 246.0 L 223.0 245.0 L 224.0 245.0 L 224.0 245.0 L 225.0 245.0 L 225.0 245.0 L 225.0 245.0 L 226.0 245.0 L 226.0 245.0 L 227.0 245.0 L 227.0 245.0 L 227.0 245.0 L 228.0 245.0 L 228.0 245.0 L 228.0 245.0 L 229.0 244.0 L 229.0 244.0 L 229.0 244.0 L 229.0 244.0 L 230.0 243.0 L 230.0 243.0 L 230.0 242.0 L 231.0 241.0 L 231.0 239.0 L 232.0 237.0 L 232.0 233.0 L 233.0 229.0 L 234.0 223.0 L 235.0 218.0 L 235.0 212.0 L 236.0 207.0 L 236.0 203.0 L 235.0 200.0 " stroke="black" fill="none" stroke-width="5.0" stroke-linecap="round" stroke-linejoin="round" />
</svg>