<svg xmlns="http://www.w3.org/2000/svg" width="300" height="300" viewBox="0 0 300 300">
<path d="M 125.0 71.0 L 125.0 71.0 L 125.0 70.0 L 125.0 69.0 L 126.0 69.0 L 126.0 68.0 L 127.0 67.0 L 127.0 67.0 L 127.0 66.0 L 128.0 66.0 L 128.0 66.0 L 128.0 66.0 L 128.0 67.0 L 126.0 69.0 L 124.0 73.0 L 121.0 77.0 L 117.0 83.0 L 113.0 89.0 L 108.0 97.0 L 102.0 105.0 L 95.0 113.0 L 86.0 120.0 L 78.0 125.0 L 71.0 129.0 L 66.0 132.0 L 64.0 134.0 " stroke="black" fill="none" stroke-width="5.0" stroke-linecap="round" stroke-linejoin="round" />
<path d="M 116.0 93.0 L 116.0 93.0 L 115.0 94.0 L 114.0 94.0 L 113.0 95.0 L 112.0 95.0 L 112.0 95.0 L 112.0 95.0 L 112.0 95.0 L 112.0 95.0 L 113.0 95.0 L 114.0 94.0 L 116.0 94.0 L 119.0 94.0 L 122.0 94.0 L 126.0 93.0 L 130.0 93.0 L 135.0 93.0 L 141.0 93.0 L 146.0 93.0 L 152.0 93.0 L 157.0 93.0 L 162.0 93.0 L 167.0 92.0 L 171.0 92.0 L 175.0 92.0 L 179.0 91.0 L 181.0 91.0 L 182.0 92.0 L 183.0 92.0 L 183.0 93.0 L 183.0 95.0 L 181.0 98.0 L 179.0 101.0 L 176.0 104.0 L 172.0 109.0 L 169.0 112.0 L 166.0 115.0 L 163.0 118.0 L 161.0 120.0 " stroke="black" fill="none" stroke-width="5.0" stroke-linecap="round" stroke-linejoin="round" />
<path d="M 106.0 131.0 L 106.0 130.0 L 106.0 129.0 L 106.0 129.0 L 105.0 128.0 L 105.0 128.0 L 105.0 128.0 L 105.0 128.0 L 105.0 128.0 L 105.0 128.0 L 106.0 128.0 L 107.0 129.0 L 108.0 129.0 L 109.0 129.0 L 111.0 129.0 L 113.0 129.0 L 116.0 129.0 L 119.0 129.0 L 123.0 130.0 L 127.0 130.0 L 132.0 130.0 L 137.0 130.0 L 141.0 130.0 L 146.0 130.0 L 149.0 130.0 L 152.0 130.0 L 155.0 130.0 L 158.0 130.0 L 160.0 130.0 L 163.0 130.0 L 166.0 130.0 L 169.0 130.0 L 172.0 130.0 L 176.0 130.0 L 179.0 130.0 L 183.0 130.0 L 186.0 129.0 L 189.0 129.0 L 191.0 128.0 L 193.0 128.0 L 195.0 128.0 L 196.0 127.0 L 197.0 127.0 L 198.0 127.0 L 199.0 127.0 L 199.0 127.0 L 200.0 127.0 L 200.0 127.0 L 201.0 128.0 L 202.0 128.0 L 202.0 129.0 L 203.0 129.0 L 203.0 130.0 L 204.0 130.0 L 205.0 131.0 L 205.0 131.0 L 206.0 132.0 L 206.0 132.0 L 207.0 133.0 L 207.0 133.0 L 208.0 134.0 L 208.0 135.0 L 209.0 136.0 L 209.0 136.0 L 209.0 138.0 L 209.0 139.0 L 210.0 141.0 L 210.0 143.0 L 210.0 146.0 L 210.0 149.0 L 210.0 153.0 L 210.0 157.0 L 210.0 161.0 L 210.0 165.0 L 210.0 170.0 L 210.0 173.0 L 210.0 176.0 L 209.0 178.0 L 209.0 179.0 L 207.0 179.0 " stroke="black" fill="none" stroke-width="5.0" stroke-linecap="round" stroke-linejoin="round" />
<path d="M 160.0 140.0 L 160.0 140.0 L 159.0 140.0 L 159.0 140.0 L 158.0 140.0 L 158.0 140.0 L 157.0 142.0 L 157.0 144.0 L 157.0 148.0 L 157.0 151.0 L 157.0 155.0 L 157.0 160.0 L 157.0 164.0 L 157.0 167.0 L 156.0 171.0 L 155.0 173.0 L 154.0 175.0 " stroke="black" fill="none" stroke-width="5.0" stroke-linecap="round" stroke-linejoin="round" />
<path d="M 118.0 180.0 L 117.0 180.0 L 114.0 180.0 L 112.0 180.0 L 109.0 180.0 L 108.0 180.0 L 107.0 180.0 L 107.0 179.0 L 107.0 179.0 L 107.0 179.0 L 108.0 179.0 L 110.0 179.0 L 114.0 179.0 L 118.0 179.0 L 124.0 179.0 L 132.0 179.0 L 141.0 179.0 L 149.0 178.0 L 159.0 176.0 L 171.0 174.0 L 183.0 172.0 L 192.0 170.0 L 199.0 168.0 L 203.0 167.0 L 205.0 166.0 L 207.0 166.0 L 207.0 166.0 " stroke="black" fill="none" stroke-width="5.0" stroke-linecap="round" stroke-linejoin="round" />
<path d="M 105.0 132.0 L 105.0 132.0 L 105.0 132.0 L 104.0 132.0 L 104.0 132.0 L 103.0 132.0 L 103.0 132.0 L 103.0 133.0 L 103.0 134.0 L 103.0 135.0 L 103.0 136.0 L 103.0 138.0 L 103.0 140.0 L 103.0 143.0 L 103.0 146.0 L 103.0 149.0 L 103.0 152.0 L 103.0 155.0 L 103.0 158.0 L 102.0 161.0 L 102.0 164.0 L 101.0 168.0 L 101.0 171.0 L 101.0 173.0 L 101.0 176.0 L 100.0 178.0 L 100.0 180.0 L 100.0 183.0 L 100.0 185.0 L 100.0 188.0 L 100.0 191.0 L 99.0 193.0 L 99.0 195.0 L 99.0 197.0 L 99.0 199.0 L 99.0 201.0 L 98.0 202.0 L 98.0 204.0 L 98.0 205.0 L 98.0 207.0 L 98.0 208.0 L 98.0 210.0 L 98.0 211.0 L 98.0 213.0 L 98.0 214.0 L 98.0 215.0 L 98.0 216.0 L 98.0 217.0 L 98.0 219.0 L 97.0 220.0 L 97.0 221.0 L 97.0 222.0 L 97.0 224.0 L 97.0 225.0 L 97.0 226.0 L 97.0 227.0 L 97.0 228.0 L 97.0 229.0 L 97.0 230.0 L 98.0 230.0 L 98.0 231.0 L 98.0 232.0 L 99.0 232.0 L 99.0 232.0 L 100.0 233.0 L 100.0 233.0 L 101.0 234.0 L 102.0 234.0 L 102.0 234.0 L 103.0 235.0 L 104.0 235.0 L 105.0 235.0 L 106.0 235.0 L 107.0 235.0 L 108.0 235.0 L 109.0 235.0 L 110.0 235.0 L 111.0 235.0 L 112.0 235.0 L 114.0 235.0 L 115.0 235.0 L 116.0 235.0 L 118.0 235.0 L 119.0 235.0 L 121.0 235.0 L 123.0 235.0 L 125.0 236.0 L 126.0 236.0 L 128.0 236.0 L 129.0 236.0 L 131.0 236.0 L 133.0 236.0 L 134.0 237.0 L 136.0 237.0 L 138.0 237.0 L 139.0 237.0 L 141.0 237.0 L 143.0 238.0 L 144.0 238.0 L 145.0 238.0 L 146.0 238.0 L 148.0 239.0 L 149.0 239.0 L 150.0 239.0 L 151.0 239.0 L 152.0 239.0 L 153.0 239.0 L 154.0 239.0 L 155.0 239.0 L 156.0 239.0 L 157.0 239.0 L 158.0 239.0 L 159.0 239.0 L 160.0 239.0 L 162.0 240.0 L 163.0 240.0 L 164.0 240.0 L 166.0 240.0 L 167.0 240.0 L 169.0 240.0 L 170.0 240.0 L 172.0 240.0 L 174.0 240.0 L 176.0 240.0 L 178.0 240.0 L 179.0 240.0 L 181.0 240.0 L 183.0 240.0 L 184.0 240.0 L 186.0 241.0 L 188.0 241.0 L 189.0 241.0 L 190.0 241.0 L 192.0 241.0 L 193.0 241.0 L 194.0 241.0 L 195.0 241.0 L 196.0 241.0 L 198.0 241.0 L 199.0 241.0 L 200.0 241.0 L 202.0 241.0 L 203.0 241.0 L 204.0 241.0 L 205.0 241.0 L 206.0 241.0 L 208.0 242.0 L 209.0 242.0 L 210.0 242.0 L 211.0 242.0 L 212.0 242.0 L 214.0 242.0 L 215.0 242.0 L 216.0 242.0 L 217.0 242.0 L 218.0 242.0 L 219.0 241.0 L 219.0 241.0 L 220.0 240.0 L 221.0 239.0 L 222.0 238.0 L 222.0 236.0 L 223.0 234.0 L 223.0 230.0 L 223.0 224.0 L 224.0 217.0 L 224.0 210.0 L 224.0 207.0 " stroke="black" fill="none" stroke-width="5.0" stroke-linecap="round" stroke-linejoin="round" />
</svg>