<svg xmlns="http://www.w3.org/2000/svg" width="300" height="300" viewBox="0 0 300 300">
<path d="M 84.0 83.0 L 84.0 83.0 L 84.0 83.0 L 83.0 83.0 L 83.0 83.0 L 83.0 83.0 L 83.0 83.0 L 83.0 83.0 L 83.0 83.0 L 83.0 83.0 L 83.0 83.0 L 83.0 83.0 L 83.0 83.0 L 83.0 83.0 L 83.0 83.0 L 83.0 83.0 L 83.0 83.0 L 83.0 83.0 L 83.0 83.0 L 83.0 83.0 L 84.0 83.0 L 84.0 83.0 L 85.0 84.0 L 86.0 84.0 L 87.0 84.0 L 89.0 84.0 L 90.0 84.0 L 91.0 85.0 L 92.0 85.0 L 94.0 85.0 L 95.0 85.0 L 96.0 85.0 L 96.0 85.0 L 97.0 85.0 L 98.0 85.0 L 99.0 85.0 L 100.0 85.0 L 100.0 85.0 L 101.0 85.0 L 102.0 85.0 L 103.0 85.0 L 103.0 85.0 L 104.0 85.0 L 105.0 85.0 L 106.0 85.0 L 106.0 85.0 L 107.0 85.0 L 108.0 85.0 L 108.0 85.0 L 109.0 85.0 L 110.0 85.0 L 110.0 85.0 L 111.0 85.0 L 112.0 85.0 L 113.0 85.0 L 114.0 84.0 L 115.0 84.0 L 116.0 84.0 L 116.0 84.0 L 117.0 84.0 L 118.0 84.0 L 119.0 84.0 L 120.0 83.0 L 121.0 83.0 L 122.0 83.0 L 123.0 83.0 L 124.0 83.0 L 125.0 83.0 L 126.0 83.0 L 127.0 83.0 L 128.0 83.0 L 129.0 83.0 L 130.0 83.0 L 131.0 83.0 L 132.0 83.0 L 133.0 83.0 L 134.0 83.0 L 135.0 83.0 L 136.0 83.0 L 137.0 83.0 L 138.0 83.0 L 139.0 83.0 L 139.0 83.0 L 140.0 83.0 L 141.0 83.0 L 142.0 83.0 L 143.0 83.0 L 144.0 83.0 L 144.0 83.0 L 145.0 83.0 L 146.0 83.0 L 147.0 83.0 L 148.0 83.0 L 148.0 83.0 L 149.0 83.0 L 150.0 83.0 L 151.0 83.0 L 151.0 83.0 L 152.0 83.0 L 153.0 83.0 L 154.0 83.0 L 154.0 83.0 L 155.0 83.0 L 156.0 83.0 L 157.0 83.0 L 158.0 83.0 L 159.0 83.0 L 160.0 83.0 L 161.0 83.0 L 162.0 83.0 L 164.0 83.0 L 165.0 83.0 L 166.0 83.0 L 167.0 83.0 L 169.0 83.0 L 170.0 83.0 L 171.0 83.0 L 173.0 83.0 L 174.0 83.0 L 175.0 83.0 L 177.0 83.0 L 178.0 83.0 L 180.0 83.0 L 181.0 83.0 L 182.0 83.0 L 183.0 83.0 L 184.0 83.0 L 185.0 83.0 L 186.0 83.0 L 187.0 83.0 L 188.0 83.0 L 189.0 83.0 L 190.0 83.0 L 191.0 83.0 L 191.0 83.0 L 192.0 83.0 L 193.0 83.0 L 193.0 83.0 L 194.0 83.0 L 195.0 83.0 L 196.0 83.0 L 196.0 83.0 L 197.0 83.0 L 198.0 83.0 L 199.0 83.0 L 200.0 83.0 L 201.0 83.0 L 202.0 83.0 L 203.0 83.0 L 204.0 83.0 L 206.0 83.0 L 207.0 83.0 L 208.0 83.0 L 210.0 83.0 L 211.0 83.0 " stroke="black" fill="none" stroke-width="5.0" stroke-linecap="round" stroke-linejoin="round" />
<path d="M 158.0 89.0 L 158.0 89.0 L 158.0 90.0 L 158.0 91.0 L 158.0 93.0 L 158.0 96.0 L 158.0 99.0 L 158.0 104.0 L 158.0 109.0 L 158.0 114.0 L 158.0 118.0 L 158.0 122.0 L 158.0 124.0 L 158.0 126.0 L 158.0 127.0 " stroke="black" fill="none" stroke-width="5.0" stroke-linecap="round" stroke-linejoin="round" />
<path d="M 92.0 135.0 L 92.0 135.0 L 92.0 135.0 L 92.0 136.0 L 92.0 136.0 L 92.0 136.0 L 92.0 136.0 L 92.0 136.0 L 92.0 136.0 L 92.0 136.0 L 92.0 136.0 L 92.0 136.0 L 92.0 136.0 L 92.0 136.0 L 92.0 136.0 L 92.0 136.0 L 93.0 136.0 L 93.0 136.0 L 94.0 136.0 L 95.0 136.0 L 95.0 136.0 L 96.0 136.0 L 97.0 136.0 L 98.0 136.0 L 99.0 136.0 L 100.0 136.0 L 100.0 136.0 L 101.0 136.0 L 102.0 136.0 L 103.0 136.0 L 104.0 136.0 L 105.0 136.0 L 105.0 136.0 L 106.0 136.0 L 107.0 136.0 L 108.0 136.0 L 109.0 136.0 L 110.0 136.0 L 111.0 136.0 L 112.0 136.0 L 113.0 136.0 L 114.0 136.0 L 115.0 136.0 L 115.0 136.0 L 116.0 136.0 L 117.0 136.0 L 118.0 136.0 L 119.0 136.0 L 120.0 136.0 L 121.0 136.0 L 123.0 135.0 L 124.0 135.0 L 125.0 135.0 L 126.0 135.0 L 128.0 134.0 L 129.0 134.0 L 131.0 134.0 L 132.0 134.0 L 133.0 134.0 L 134.0 134.0 L 136.0 134.0 L 137.0 134.0 L 138.0 134.0 L 139.0 134.0 L 140.0 134.0 L 141.0 134.0 L 142.0 134.0 L 143.0 134.0 L 144.0 134.0 L 146.0 134.0 L 147.0 134.0 L 148.0 134.0 L 149.0 134.0 L 150.0 134.0 L 151.0 134.0 L 152.0 134.0 L 152.0 134.0 L 153.0 134.0 L 154.0 134.0 L 155.0 134.0 L 156.0 134.0 L 157.0 134.0 L 158.0 134.0 L 159.0 134.0 L 160.0 134.0 L 161.0 134.0 L 162.0 134.0 L 163.0 134.0 L 164.0 134.0 L 166.0 134.0 L 167.0 134.0 L 168.0 134.0 L 170.0 134.0 L 171.0 134.0 L 173.0 134.0 L 175.0 134.0 L 176.0 134.0 L 178.0 134.0 L 179.0 134.0 L 181.0 134.0 L 182.0 134.0 L 183.0 134.0 L 184.0 134.0 L 185.0 134.0 L 187.0 134.0 L 188.0 134.0 L 189.0 134.0 L 190.0 134.0 L 190.0 133.0 L 191.0 133.0 L 192.0 133.0 L 193.0 133.0 L 193.0 133.0 L 194.0 133.0 L 195.0 133.0 L 195.0 132.0 L 196.0 132.0 L 197.0 132.0 L 197.0 132.0 L 198.0 132.0 L 199.0 132.0 L 199.0 132.0 L 200.0 132.0 L 201.0 132.0 L 201.0 132.0 L 202.0 132.0 L 203.0 132.0 L 203.0 132.0 L 204.0 132.0 L 204.0 132.0 L 205.0 132.0 L 205.0 132.0 L 206.0 133.0 L 206.0 133.0 L 206.0 133.0 L 207.0 134.0 L 207.0 134.0 L 207.0 134.0 L 207.0 135.0 L 208.0 135.0 L 208.0 136.0 L 208.0 136.0 L 208.0 137.0 L 208.0 138.0 L 208.0 139.0 L 208.0 140.0 L 208.0 141.0 L 208.0 143.0 L 208.0 144.0 L 208.0 146.0 L 208.0 148.0 L 209.0 150.0 L 209.0 152.0 L 209.0 154.0 L 209.0 156.0 L 209.0 157.0 L 210.0 159.0 L 210.0 161.0 L 210.0 162.0 L 210.0 164.0 L 210.0 165.0 L 210.0 167.0 L 210.0 168.0 L 210.0 170.0 L 210.0 172.0 L 210.0 173.0 L 210.0 174.0 L 210.0 176.0 L 210.0 177.0 L 210.0 178.0 L 210.0 180.0 L 210.0 181.0 L 210.0 183.0 L 210.0 184.0 L 210.0 186.0 L 209.0 187.0 L 209.0 188.0 L 209.0 189.0 L 209.0 189.0 L 209.0 190.0 L 209.0 191.0 L 209.0 191.0 L 209.0 191.0 L 209.0 192.0 L 209.0 192.0 L 208.0 192.0 " stroke="black" fill="none" stroke-width="5.0" stroke-linecap="round" stroke-linejoin="round" />
<path d="M 92.0 190.0 L 92.0 190.0 L 92.0 190.0 L 92.0 190.0 L 92.0 190.0 L 92.0 190.0 L 92.0 190.0 L 92.0 190.0 L 92.0 190.0 L 92.0 190.0 L 92.0 190.0 L 92.0 190.0 L 92.0 190.0 L 93.0 190.0 L 93.0 190.0 L 94.0 190.0 L 95.0 190.0 L 96.0 190.0 L 97.0 190.0 L 98.0 190.0 L 100.0 190.0 L 101.0 190.0 L 103.0 190.0 L 104.0 190.0 L 105.0 190.0 L 107.0 190.0 L 108.0 190.0 L 109.0 190.0 L 110.0 190.0 L 111.0 190.0 L 113.0 190.0 L 114.0 190.0 L 116.0 190.0 L 117.0 190.0 L 119.0 190.0 L 120.0 190.0 L 122.0 190.0 L 123.0 190.0 L 124.0 190.0 L 126.0 190.0 L 127.0 190.0 L 128.0 190.0 L 130.0 190.0 L 131.0 190.0 L 132.0 190.0 L 133.0 191.0 L 135.0 191.0 L 136.0 191.0 L 137.0 191.0 L 138.0 191.0 L 140.0 191.0 L 141.0 192.0 L 142.0 192.0 L 143.0 192.0 L 144.0 192.0 L 145.0 193.0 L 146.0 193.0 L 147.0 193.0 L 148.0 193.0 L 149.0 193.0 L 150.0 193.0 L 151.0 193.0 L 152.0 193.0 L 153.0 193.0 L 154.0 193.0 L 155.0 193.0 L 155.0 193.0 L 156.0 194.0 L 157.0 194.0 L 158.0 194.0 L 159.0 194.0 L 160.0 194.0 L 162.0 194.0 L 163.0 194.0 L 164.0 194.0 L 166.0 194.0 L 167.0 194.0 L 169.0 194.0 L 170.0 194.0 L 171.0 194.0 L 173.0 194.0 L 175.0 194.0 L 176.0 194.0 L 178.0 194.0 L 180.0 194.0 L 181.0 194.0 L 183.0 194.0 L 184.0 193.0 L 186.0 193.0 L 187.0 193.0 L 188.0 193.0 L 190.0 193.0 L 191.0 193.0 L 192.0 193.0 L 193.0 193.0 L 194.0 193.0 L 195.0 193.0 L 196.0 192.0 L 197.0 192.0 L 197.0 192.0 L 198.0 192.0 L 200.0 192.0 L 201.0 192.0 L 202.0 192.0 L 203.0 192.0 L 204.0 192.0 L 206.0 192.0 L 207.0 192.0 L 208.0 192.0 L 210.0 191.0 L 211.0 191.0 L 212.0 191.0 L 212.0 191.0 " stroke="black" fill="none" stroke-width="5.0" stroke-linecap="round" stroke-linejoin="round" />
<path d="M 150.0 202.0 L 150.0 202.0 L 150.0 202.0 L 151.0 201.0 L 151.0 201.0 L 152.0 200.0 L 152.0 199.0 L 152.0 199.0 L 152.0 199.0 L 152.0 198.0 L 153.0 198.0 L 153.0 198.0 L 153.0 198.0 L 153.0 199.0 L 153.0 200.0 L 153.0 201.0 L 153.0 202.0 L 153.0 204.0 L 153.0 207.0 L 153.0 210.0 L 153.0 214.0 L 154.0 220.0 L 155.0 225.0 L 155.0 230.0 L 155.0 235.0 L 156.0 239.0 L 156.0 241.0 L 156.0 242.0 L 156.0 242.0 L 156.0 242.0 L 156.0 241.0 " stroke="black" fill="none" stroke-width="5.0" stroke-linecap="round" stroke-linejoin="round" />
<path d="M 86.0 83.0 L 86.0 83.0 L 86.0 83.0 L 85.0 83.0 L 85.0 83.0 L 85.0 83.0 L 84.0 83.0 L 84.0 83.0 L 84.0 83.0 L 84.0 84.0 L 84.0 84.0 L 84.0 85.0 L 84.0 86.0 L 84.0 88.0 L 84.0 90.0 L 84.0 93.0 L 84.0 96.0 L 84.0 99.0 L 84.0 103.0 L 84.0 106.0 L 84.0 109.0 L 84.0 112.0 L 84.0 114.0 L 83.0 117.0 L 83.0 120.0 L 83.0 122.0 L 83.0 125.0 L 82.0 128.0 L 82.0 130.0 L 81.0 132.0 L 81.0 135.0 L 81.0 137.0 L 81.0 139.0 L 81.0 142.0 L 81.0 144.0 L 81.0 146.0 L 81.0 149.0 L 81.0 151.0 L 81.0 153.0 L 81.0 155.0 L 81.0 157.0 L 81.0 159.0 L 81.0 162.0 L 81.0 164.0 L 81.0 166.0 L 81.0 169.0 L 81.0 170.0 L 81.0 172.0 L 81.0 174.0 L 81.0 175.0 L 81.0 177.0 L 81.0 178.0 L 81.0 179.0 L 81.0 181.0 L 81.0 183.0 L 81.0 184.0 L 81.0 186.0 L 81.0 188.0 L 81.0 189.0 L 81.0 190.0 L 80.0 192.0 L 80.0 193.0 L 80.0 194.0 L 80.0 195.0 L 80.0 196.0 L 80.0 196.0 L 80.0 197.0 L 80.0 198.0 L 79.0 199.0 L 79.0 200.0 L 79.0 201.0 L 79.0 202.0 L 79.0 204.0 L 79.0 205.0 L 78.0 206.0 L 78.0 207.0 L 78.0 208.0 L 78.0 209.0 L 78.0 211.0 L 78.0 212.0 L 78.0 213.0 L 78.0 214.0 L 78.0 215.0 L 78.0 216.0 L 77.0 218.0 L 77.0 219.0 L 77.0 220.0 L 77.0 222.0 L 77.0 223.0 L 77.0 224.0 L 77.0 225.0 L 77.0 226.0 L 77.0 227.0 L 77.0 228.0 L 77.0 229.0 L 77.0 230.0 L 77.0 231.0 L 77.0 232.0 L 76.0 233.0 L 76.0 234.0 L 76.0 235.0 L 76.0 235.0 L 76.0 236.0 L 76.0 237.0 L 76.0 237.0 L 76.0 238.0 L 76.0 238.0 L 76.0 239.0 L 76.0 239.0 L 76.0 240.0 L 76.0 240.0 L 76.0 241.0 L 76.0 241.0 L 76.0 241.0 L 76.0 241.0 L 76.0 241.0 L 76.0 241.0 L 76.0 241.0 L 76.0 241.0 L 76.0 241.0 L 76.0 241.0 L 76.0 241.0 L 76.0 241.0 L 76.0 241.0 L 76.0 241.0 L 76.0 241.0 L 76.0 241.0 L 76.0 241.0 L 76.0 241.0 L 76.0 241.0 L 76.0 241.0 L 77.0 241.0 L 77.0 241.0 L 77.0 241.0 L 78.0 241.0 L 78.0 241.0 L 79.0 241.0 L 80.0 241.0 L 80.0 241.0 L 81.0 241.0 L 82.0 241.0 L 83.0 241.0 L 84.0 241.0 L 85.0 241.0 L 87.0 241.0 L 88.0 241.0 L 89.0 241.0 L 90.0 241.0 L 91.0 241.0 L 92.0 241.0 L 93.0 241.0 L 94.0 241.0 L 95.0 241.0 L 96.0 241.0 L 97.0 242.0 L 97.0 242.0 L 98.0 242.0 L 99.0 242.0 L 100.0 242.0 L 100.0 242.0 L 101.0 242.0 L 102.0 242.0 L 102.0 242.0 L 103.0 242.0 L 104.0 242.0 L 104.0 242.0 L 105.0 242.0 L 105.0 242.0 L 106.0 243.0 L 106.0 243.0 L 107.0 243.0 L 107.0 243.0 L 108.0 243.0 L 108.0 243.0 L 109.0 243.0 L 109.0 243.0 L 110.0 244.0 L 110.0 244.0 L 111.0 244.0 L 111.0 244.0 L 112.0 245.0 L 112.0 245.0 L 113.0 245.0 L 113.0 245.0 L 114.0 245.0 L 114.0 246.0 L 115.0 246.0 L 116.0 246.0 L 116.0 246.0 L 117.0 246.0 L 118.0 246.0 L 119.0 247.0 L 119.0 247.0 L 120.0 247.0 L 121.0 247.0 L 122.0 247.0 L 123.0 247.0 L 124.0 247.0 L 125.0 247.0 L 126.0 247.0 L 127.0 247.0 L 128.0 247.0 L 129.0 247.0 L 131.0 247.0 L 132.0 247.0 L 133.0 247.0 L 134.0 247.0 L 135.0 246.0 L 136.0 246.0 L 137.0 246.0 L 138.0 246.0 L 139.0 246.0 L 140.0 245.0 L 141.0 245.0 L 142.0 245.0 L 143.0 245.0 L 144.0 245.0 L 145.0 245.0 L 146.0 245.0 L 147.0 245.0 L 148.0 245.0 L 149.0 245.0 L 150.0 245.0 L 150.0 245.0 L 151.0 245.0 L 152.0 245.0 L 152.0 245.0 L 153.0 245.0 L 154.0 245.0 L 155.0 245.0 L 155.0 245.0 L 156.0 245.0 L 157.0 245.0 L 158.0 245.0 L 159.0 245.0 L 160.0 245.0 L 160.0 245.0 L 162.0 245.0 L 162.0 246.0 L 164.0 246.0 L 165.0 246.0 L 166.0 246.0 L 167.0 246.0 L 169.0 246.0 L 170.0 246.0 L 171.0 246.0 L 173.0 246.0 L 174.0 246.0 L 176.0 246.0 L 177.0 246.0 L 178.0 246.0 L 179.0 246.0 L 180.0 246.0 L 182.0 246.0 L 183.0 246.0 L 184.0 246.0 L 185.0 246.0 L 186.0 246.0 L 187.0 246.0 L 188.0 246.0 L 189.0 246.0 L 190.0 246.0 L 191.0 246.0 L 192.0 246.0 L 193.0 246.0 L 193.0 246.0 L 194.0 246.0 L 195.0 246.0 L 196.0 246.0 L 196.0 246.0 L 197.0 246.0 L 198.0 246.0 L 198.0 246.0 L 199.0 246.0 L 200.0 246.0 L 201.0 246.0 L 202.0 246.0 L 202.0 246.0 L 203.0 247.0 L 204.0 247.0 L 205.0 247.0 L 206.0 247.0 L 207.0 247.0 L 208.0 247.0 L 209.0 247.0 L 210.0 247.0 L 211.0 247.0 L 212.0 247.0 L 213.0 247.0 L 214.0 247.0 L 215.0 247.0 L 216.0 247.0 L 217.0 247.0 L 218.0 247.0 L 219.0 247.0 L 221.0 247.0 L 222.0 247.0 L 223.0 247.0 L 224.0 247.0 L 225.0 247.0 L 226.0 247.0 L 227.0 247.0 L 229.0 247.0 L 230.0 247.0 L 230.0 247.0 L 231.0 247.0 L 232.0 247.0 L 233.0 247.0 L 233.0 248.0 L 234.0 248.0 L 234.0 248.0 L 235.0 248.0 " stroke="black" fill="none" stroke-width="5.0" stroke-linecap="round" stroke-linejoin="round" />
</svg>