<svg xmlns="http://www.w3.org/2000/svg" width="300" height="300" viewBox="0 0 300 300">
<path d="M 95.0 72.0 L 95.0 72.0 L 95.0 72.0 L 94.0 72.0 L 93.0 72.0 L 93.0 72.0 L 93.0 72.0 L 93.0 73.0 L 93.0 73.0 L 93.0 74.0 L 93.0 74.0 L 93.0 75.0 L 93.0 76.0 L 94.0 78.0 L 94.0 79.0 L 94.0 81.0 L 94.0 83.0 L 94.0 85.0 L 94.0 87.0 L 94.0 89.0 L 94.0 92.0 L 94.0 95.0 L 94.0 97.0 L 94.0 100.0 L 94.0 103.0 L 94.0 106.0 L 93.0 108.0 L 92.0 111.0 L 92.0 113.0 L 91.0 116.0 L 91.0 119.0 L 90.0 121.0 L 90.0 123.0 L 90.0 126.0 L 90.0 128.0 L 90.0 130.0 L 90.0 132.0 L 90.0 133.0 L 90.0 134.0 L 90.0 136.0 L 90.0 137.0 L 90.0 138.0 L 90.0 139.0 L 90.0 140.0 L 90.0 141.0 L 89.0 142.0 L 89.0 143.0 L 89.0 144.0 L 89.0 144.0 L 89.0 145.0 L 89.0 145.0 L 89.0 145.0 L 89.0 145.0 L 89.0 145.0 L 89.0 145.0 L 88.0 145.0 L 88.0 145.0 L 88.0 145.0 L 88.0 145.0 L 88.0 145.0 L 88.0 145.0 L 88.0 145.0 L 88.0 145.0 L 88.0 145.0 L 89.0 145.0 L 89.0 145.0 L 90.0 145.0 L 91.0 145.0 L 92.0 145.0 L 94.0 144.0 L 96.0 144.0 L 98.0 143.0 L 101.0 142.0 L 104.0 140.0 L 108.0 138.0 L 113.0 136.0 L 118.0 134.0 L 124.0 131.0 L 131.0 129.0 L 136.0 127.0 L 141.0 125.0 L 144.0 124.0 L 146.0 124.0 " stroke="black" fill="none" stroke-width="5.0" stroke-linecap="round" stroke-linejoin="round" />
<path d="M 100.0 96.0 L 99.0 97.0 L 98.0 97.0 L 98.0 97.0 L 97.0 98.0 L 97.0 98.0 L 97.0 98.0 L 97.0 98.0 L 97.0 98.0 L 98.0 98.0 L 100.0 98.0 L 101.0 98.0 L 102.0 98.0 L 103.0 98.0 L 105.0 98.0 L 108.0 98.0 L 111.0 98.0 L 115.0 98.0 L 120.0 97.0 L 126.0 97.0 L 132.0 96.0 L 137.0 96.0 L 142.0 96.0 L 144.0 96.0 L 146.0 96.0 " stroke="black" fill="none" stroke-width="5.0" stroke-linecap="round" stroke-linejoin="round" />
<path d="M 173.0 98.0 L 173.0 98.0 L 171.0 98.0 L 171.0 98.0 L 170.0 98.0 L 169.0 98.0 L 168.0 98.0 L 168.0 98.0 L 168.0 98.0 L 167.0 98.0 L 167.0 98.0 L 167.0 98.0 L 167.0 98.0 L 168.0 98.0 L 169.0 98.0 L 170.0 98.0 L 171.0 98.0 L 172.0 98.0 L 174.0 98.0 L 176.0 98.0 L 177.0 97.0 L 179.0 97.0 L 181.0 97.0 L 183.0 96.0 L 185.0 96.0 L 187.0 96.0 L 189.0 96.0 L 191.0 96.0 L 193.0 96.0 L 195.0 96.0 L 197.0 96.0 L 199.0 96.0 L 202.0 96.0 L 204.0 96.0 L 207.0 95.0 L 210.0 95.0 L 213.0 95.0 L 216.0 95.0 L 219.0 95.0 L 221.0 95.0 L 223.0 94.0 L 225.0 94.0 L 225.0 94.0 " stroke="black" fill="none" stroke-width="5.0" stroke-linecap="round" stroke-linejoin="round" />
<path d="M 162.0 75.0 L 162.0 75.0 L 162.0 75.0 L 162.0 75.0 L 162.0 75.0 L 162.0 75.0 L 162.0 75.0 L 162.0 75.0 L 163.0 75.0 L 163.0 75.0 L 163.0 75.0 L 163.0 75.0 L 164.0 75.0 L 164.0 75.0 L 164.0 75.0 L 165.0 76.0 L 165.0 77.0 L 165.0 78.0 L 165.0 79.0 L 165.0 81.0 L 165.0 83.0 L 165.0 85.0 L 165.0 88.0 L 165.0 91.0 L 165.0 93.0 L 165.0 97.0 L 164.0 100.0 L 164.0 102.0 L 164.0 105.0 L 163.0 108.0 L 163.0 110.0 L 162.0 113.0 L 162.0 115.0 L 161.0 118.0 L 161.0 120.0 L 160.0 122.0 L 160.0 124.0 L 160.0 126.0 L 160.0 127.0 L 160.0 128.0 L 160.0 128.0 L 160.0 129.0 L 160.0 130.0 L 160.0 130.0 L 160.0 131.0 L 161.0 132.0 L 161.0 133.0 L 161.0 134.0 L 162.0 135.0 L 162.0 136.0 L 162.0 137.0 L 162.0 138.0 L 163.0 139.0 L 163.0 139.0 L 163.0 140.0 L 164.0 141.0 L 164.0 142.0 L 165.0 142.0 L 165.0 143.0 L 165.0 143.0 L 166.0 144.0 L 166.0 144.0 L 167.0 145.0 L 168.0 145.0 L 169.0 145.0 L 170.0 146.0 L 171.0 146.0 L 172.0 146.0 L 173.0 146.0 L 174.0 146.0 L 176.0 147.0 L 177.0 147.0 L 178.0 147.0 L 179.0 147.0 L 181.0 147.0 L 182.0 147.0 L 183.0 147.0 L 185.0 148.0 L 186.0 148.0 L 187.0 148.0 L 188.0 148.0 L 190.0 148.0 L 191.0 148.0 L 193.0 149.0 L 194.0 149.0 L 195.0 149.0 L 197.0 149.0 L 198.0 149.0 L 200.0 150.0 L 201.0 150.0 L 202.0 150.0 L 204.0 150.0 L 206.0 150.0 L 207.0 150.0 L 209.0 150.0 L 211.0 150.0 L 213.0 150.0 L 215.0 150.0 L 217.0 150.0 L 219.0 150.0 L 221.0 150.0 L 223.0 150.0 L 225.0 150.0 L 227.0 150.0 L 229.0 150.0 L 230.0 149.0 L 231.0 149.0 L 231.0 148.0 L 232.0 148.0 L 232.0 148.0 L 232.0 147.0 L 232.0 147.0 L 232.0 146.0 L 232.0 146.0 L 232.0 145.0 L 232.0 144.0 L 232.0 143.0 L 232.0 141.0 L 232.0 140.0 L 232.0 137.0 L 232.0 135.0 L 232.0 132.0 L 232.0 129.0 L 232.0 126.0 L 232.0 125.0 " stroke="black" fill="none" stroke-width="5.0" stroke-linecap="round" stroke-linejoin="round" />
<path d="M 148.0 155.0 L 148.0 155.0 L 148.0 155.0 L 148.0 155.0 L 148.0 155.0 L 147.0 155.0 L 147.0 155.0 L 146.0 155.0 L 146.0 156.0 L 145.0 158.0 L 145.0 159.0 L 144.0 161.0 L 143.0 163.0 " stroke="black" fill="none" stroke-width="5.0" stroke-linecap="round" stroke-linejoin="round" />
<path d="M 100.0 173.0 L 100.0 173.0 L 100.0 173.0 L 100.0 173.0 L 99.0 173.0 L 99.0 173.0 L 99.0 173.0 L 98.0 173.0 L 98.0 173.0 L 98.0 173.0 L 98.0 174.0 L 98.0 175.0 L 98.0 176.0 L 98.0 177.0 L 98.0 179.0 L 98.0 181.0 L 99.0 184.0 L 99.0 187.0 L 99.0 189.0 L 99.0 191.0 L 99.0 195.0 L 99.0 200.0 L 100.0 205.0 L 100.0 210.0 L 100.0 215.0 L 100.0 221.0 L 100.0 227.0 L 100.0 232.0 L 100.0 237.0 L 100.0 240.0 L 100.0 242.0 L 101.0 243.0 " stroke="black" fill="none" stroke-width="5.0" stroke-linecap="round" stroke-linejoin="round" />
<path d="M 103.0 175.0 L 103.0 175.0 L 102.0 175.0 L 102.0 175.0 L 102.0 175.0 L 102.0 175.0 L 101.0 175.0 L 101.0 175.0 L 101.0 175.0 L 100.0 175.0 L 100.0 175.0 L 100.0 175.0 L 100.0 175.0 L 100.0 175.0 L 100.0 175.0 L 100.0 175.0 L 100.0 175.0 L 100.0 175.0 L 100.0 175.0 L 101.0 175.0 L 101.0 175.0 L 102.0 175.0 L 102.0 175.0 L 103.0 175.0 L 103.0 175.0 L 103.0 175.0 L 104.0 175.0 L 104.0 175.0 L 105.0 175.0 L 106.0 175.0 L 106.0 175.0 L 107.0 175.0 L 107.0 175.0 L 108.0 175.0 L 109.0 175.0 L 109.0 175.0 L 110.0 175.0 L 111.0 175.0 L 112.0 175.0 L 112.0 175.0 L 113.0 175.0 L 114.0 175.0 L 115.0 175.0 L 115.0 175.0 L 116.0 174.0 L 117.0 174.0 L 117.0 174.0 L 118.0 174.0 L 119.0 174.0 L 119.0 174.0 L 120.0 174.0 L 121.0 174.0 L 122.0 174.0 L 123.0 174.0 L 123.0 174.0 L 124.0 174.0 L 125.0 174.0 L 126.0 174.0 L 127.0 174.0 L 128.0 174.0 L 128.0 174.0 L 129.0 174.0 L 130.0 174.0 L 131.0 174.0 L 132.0 174.0 L 133.0 174.0 L 133.0 174.0 L 134.0 174.0 L 135.0 174.0 L 136.0 173.0 L 137.0 173.0 L 138.0 173.0 L 139.0 173.0 L 139.0 173.0 L 140.0 173.0 L 141.0 173.0 L 141.0 173.0 L 142.0 173.0 L 143.0 173.0 L 144.0 173.0 L 144.0 172.0 L 145.0 172.0 L 146.0 172.0 L 147.0 172.0 L 147.0 172.0 L 148.0 172.0 L 148.0 172.0 L 149.0 172.0 L 150.0 172.0 L 150.0 172.0 L 150.0 172.0 L 151.0 172.0 L 151.0 172.0 L 152.0 172.0 L 152.0 172.0 L 153.0 172.0 L 153.0 172.0 L 154.0 172.0 L 154.0 172.0 L 155.0 172.0 L 155.0 173.0 L 156.0 173.0 L 157.0 173.0 L 157.0 173.0 L 158.0 173.0 L 159.0 174.0 L 160.0 174.0 L 161.0 174.0 L 162.0 174.0 L 163.0 174.0 L 164.0 174.0 L 165.0 174.0 L 166.0 174.0 L 167.0 174.0 L 168.0 174.0 L 169.0 174.0 L 170.0 174.0 L 171.0 174.0 L 172.0 174.0 L 173.0 174.0 L 174.0 174.0 L 175.0 174.0 L 176.0 174.0 L 177.0 174.0 L 178.0 174.0 L 179.0 174.0 L 180.0 174.0 L 181.0 174.0 L 182.0 174.0 L 182.0 174.0 L 183.0 175.0 L 184.0 175.0 L 185.0 175.0 L 185.0 175.0 L 186.0 175.0 L 187.0 175.0 L 187.0 175.0 L 188.0 176.0 L 188.0 176.0 L 189.0 176.0 L 189.0 176.0 L 190.0 176.0 L 191.0 177.0 L 191.0 177.0 L 192.0 177.0 L 192.0 177.0 L 193.0 177.0 L 193.0 177.0 L 194.0 177.0 L 194.0 177.0 L 195.0 177.0 L 196.0 177.0 L 196.0 177.0 L 197.0 177.0 L 197.0 177.0 L 198.0 177.0 L 198.0 177.0 L 199.0 177.0 L 200.0 177.0 L 200.0 177.0 L 201.0 177.0 L 202.0 177.0 L 202.0 176.0 L 203.0 176.0 L 204.0 176.0 L 204.0 176.0 L 205.0 176.0 L 205.0 176.0 L 206.0 176.0 L 207.0 176.0 L 207.0 176.0 L 208.0 176.0 L 208.0 176.0 L 209.0 176.0 L 209.0 176.0 L 210.0 176.0 L 210.0 176.0 L 210.0 176.0 L 211.0 177.0 L 211.0 177.0 L 211.0 178.0 L 211.0 178.0 L 211.0 179.0 L 211.0 180.0 L 211.0 181.0 L 211.0 183.0 L 211.0 184.0 L 211.0 186.0 L 211.0 188.0 L 211.0 190.0 L 211.0 191.0 L 211.0 194.0 L 210.0 196.0 L 210.0 198.0 L 210.0 200.0 L 210.0 202.0 L 210.0 204.0 L 210.0 206.0 L 210.0 208.0 L 210.0 210.0 L 210.0 212.0 L 209.0 213.0 L 209.0 215.0 L 209.0 217.0 L 209.0 218.0 L 209.0 220.0 L 209.0 222.0 L 209.0 224.0 L 209.0 226.0 L 209.0 228.0 L 209.0 230.0 L 209.0 232.0 L 209.0 234.0 L 209.0 236.0 L 209.0 238.0 L 209.0 239.0 L 209.0 241.0 L 209.0 242.0 L 209.0 243.0 L 209.0 244.0 L 209.0 245.0 L 209.0 246.0 L 208.0 247.0 L 208.0 247.0 L 207.0 247.0 L 207.0 247.0 L 207.0 247.0 " stroke="black" fill="none" stroke-width="5.0" stroke-linecap="round" stroke-linejoin="round" />
<path d="M 104.0 208.0 L 104.0 208.0 L 104.0 208.0 L 104.0 208.0 L 103.0 208.0 L 103.0 208.0 L 103.0 208.0 L 102.0 208.0 L 102.0 208.0 L 102.0 208.0 L 102.0 208.0 L 102.0 208.0 L 102.0 208.0 L 102.0 208.0 L 102.0 208.0 L 102.0 207.0 L 103.0 207.0 L 103.0 207.0 L 104.0 207.0 L 104.0 207.0 L 105.0 206.0 L 106.0 206.0 L 107.0 206.0 L 107.0 206.0 L 108.0 206.0 L 108.0 206.0 L 109.0 206.0 L 110.0 206.0 L 110.0 206.0 L 111.0 206.0 L 112.0 205.0 L 112.0 205.0 L 113.0 205.0 L 114.0 205.0 L 114.0 205.0 L 115.0 205.0 L 115.0 205.0 L 116.0 205.0 L 117.0 205.0 L 117.0 205.0 L 118.0 205.0 L 119.0 205.0 L 119.0 205.0 L 120.0 205.0 L 120.0 205.0 L 121.0 205.0 L 122.0 205.0 L 122.0 205.0 L 123.0 205.0 L 124.0 205.0 L 124.0 205.0 L 125.0 205.0 L 126.0 205.0 L 126.0 205.0 L 127.0 205.0 L 128.0 205.0 L 129.0 205.0 L 130.0 205.0 L 130.0 205.0 L 131.0 205.0 L 132.0 206.0 L 133.0 206.0 L 133.0 206.0 L 134.0 206.0 L 135.0 206.0 L 136.0 206.0 L 136.0 206.0 L 137.0 206.0 L 138.0 206.0 L 139.0 206.0 L 140.0 206.0 L 140.0 206.0 L 141.0 206.0 L 142.0 206.0 L 143.0 206.0 L 143.0 206.0 L 144.0 206.0 L 145.0 206.0 L 146.0 206.0 L 146.0 206.0 L 147.0 206.0 L 148.0 206.0 L 148.0 206.0 L 149.0 207.0 L 149.0 207.0 L 150.0 207.0 L 150.0 207.0 L 151.0 207.0 L 151.0 207.0 L 152.0 207.0 L 152.0 207.0 L 153.0 207.0 L 154.0 207.0 L 155.0 208.0 L 155.0 208.0 L 156.0 208.0 L 157.0 208.0 L 158.0 208.0 L 159.0 209.0 L 160.0 209.0 L 162.0 209.0 L 163.0 209.0 L 164.0 209.0 L 166.0 209.0 L 168.0 209.0 L 170.0 209.0 L 172.0 209.0 L 173.0 209.0 L 175.0 209.0 L 177.0 209.0 L 179.0 209.0 L 181.0 209.0 L 182.0 209.0 L 184.0 209.0 L 185.0 209.0 L 187.0 209.0 L 188.0 209.0 L 189.0 209.0 L 190.0 209.0 L 191.0 209.0 L 192.0 209.0 L 193.0 209.0 L 194.0 209.0 L 195.0 209.0 L 196.0 209.0 L 196.0 209.0 L 197.0 209.0 L 198.0 209.0 L 199.0 209.0 L 200.0 209.0 L 200.0 209.0 L 201.0 209.0 L 202.0 209.0 L 203.0 209.0 " stroke="black" fill="none" stroke-width="5.0" stroke-linecap="round" stroke-linejoin="round" />
<path d="M 106.0 246.0 L 106.0 246.0 L 106.0 246.0 L 106.0 246.0 L 105.0 246.0 L 105.0 246.0 L 105.0 246.0 L 105.0 246.0 L 104.0 246.0 L 104.0 246.0 L 104.0 246.0 L 104.0 246.0 L 104.0 246.0 L 103.0 246.0 L 103.0 246.0 L 103.0 246.0 L 103.0 246.0 L 103.0 246.0 L 103.0 246.0 L 103.0 246.0 L 103.0 246.0 L 103.0 246.0 L 103.0 246.0 L 103.0 246.0 L 104.0 246.0 L 105.0 246.0 L 105.0 246.0 L 106.0 246.0 L 107.0 246.0 L 108.0 246.0 L 110.0 246.0 L 111.0 246.0 L 113.0 246.0 L 114.0 246.0 L 116.0 246.0 L 118.0 246.0 L 120.0 246.0 L 122.0 246.0 L 124.0 247.0 L 126.0 247.0 L 128.0 247.0 L 130.0 247.0 L 132.0 247.0 L 133.0 247.0 L 135.0 247.0 L 137.0 247.0 L 138.0 247.0 L 139.0 246.0 L 140.0 246.0 L 141.0 246.0 L 142.0 246.0 L 143.0 246.0 L 144.0 246.0 L 145.0 246.0 L 146.0 246.0 L 147.0 246.0 L 148.0 246.0 L 149.0 246.0 L 150.0 246.0 L 150.0 246.0 L 151.0 246.0 L 151.0 246.0 L 152.0 246.0 L 153.0 246.0 L 154.0 246.0 L 155.0 246.0 L 156.0 246.0 L 157.0 246.0 L 158.0 246.0 L 159.0 246.0 L 160.0 246.0 L 162.0 247.0 L 163.0 247.0 L 164.0 247.0 L 165.0 247.0 L 167.0 247.0 L 168.0 247.0 L 169.0 248.0 L 171.0 248.0 L 173.0 248.0 L 175.0 248.0 L 176.0 248.0 L 178.0 248.0 L 179.0 249.0 L 181.0 249.0 L 183.0 249.0 L 184.0 250.0 L 185.0 250.0 L 187.0 250.0 L 188.0 250.0 L 189.0 250.0 L 191.0 250.0 L 192.0 250.0 L 193.0 250.0 L 193.0 250.0 L 194.0 250.0 L 195.0 250.0 L 196.0 250.0 L 196.0 250.0 L 197.0 250.0 L 198.0 250.0 L 198.0 250.0 L 199.0 250.0 L 200.0 250.0 L 200.0 250.0 L 201.0 250.0 L 202.0 250.0 L 202.0 250.0 L 203.0 250.0 L 204.0 250.0 L 204.0 250.0 L 205.0 250.0 L 206.0 250.0 L 207.0 250.0 L 208.0 250.0 L 208.0 250.0 L 209.0 250.0 L 210.0 250.0 L 210.0 249.0 L 211.0 249.0 " stroke="black" fill="none" stroke-width="5.0" stroke-linecap="round" stroke-linejoin="round" />
</svg>