<svg xmlns="http://www.w3.org/2000/svg" width="300" height="300" viewBox="0 0 300 300">
<path d="M 68.0 97.0 L 68.0 97.0 L 68.0 96.0 L 68.0 96.0 L 68.0 96.0 L 68.0 96.0 L 68.0 96.0 L 68.0 96.0 L 68.0 97.0 L 68.0 98.0 L 68.0 100.0 L 68.0 103.0 L 68.0 106.0 L 69.0 111.0 L 69.0 116.0 L 69.0 123.0 L 69.0 133.0 L 69.0 144.0 L 69.0 155.0 L 68.0 165.0 L 67.0 172.0 L 66.0 179.0 L 66.0 186.0 L 66.0 191.0 L 66.0 196.0 L 66.0 200.0 L 66.0 202.0 " stroke="black" fill="none" stroke-width="5.0" stroke-linecap="round" stroke-linejoin="round" />
<path d="M 72.0 93.0 L 72.0 93.0 L 71.0 94.0 L 70.0 94.0 L 69.0 94.0 L 69.0 95.0 L 68.0 95.0 L 68.0 95.0 L 68.0 96.0 L 68.0 96.0 L 68.0 96.0 L 68.0 96.0 L 68.0 96.0 L 68.0 96.0 L 69.0 96.0 L 70.0 96.0 L 71.0 96.0 L 73.0 96.0 L 74.0 96.0 L 77.0 96.0 L 79.0 96.0 L 81.0 96.0 L 84.0 96.0 L 87.0 96.0 L 90.0 96.0 L 93.0 96.0 L 96.0 96.0 L 99.0 96.0 L 101.0 96.0 L 103.0 96.0 L 105.0 96.0 L 106.0 95.0 L 107.0 95.0 L 108.0 95.0 L 109.0 95.0 L 110.0 95.0 L 110.0 95.0 L 111.0 95.0 L 111.0 95.0 L 112.0 95.0 L 112.0 95.0 L 112.0 95.0 L 112.0 96.0 L 112.0 97.0 L 112.0 98.0 L 112.0 100.0 L 112.0 102.0 L 112.0 104.0 L 112.0 106.0 L 112.0 109.0 L 112.0 111.0 L 112.0 114.0 L 112.0 117.0 L 112.0 120.0 L 111.0 123.0 L 111.0 127.0 L 111.0 130.0 L 111.0 133.0 L 111.0 137.0 L 111.0 141.0 L 111.0 144.0 L 111.0 148.0 L 111.0 152.0 L 111.0 155.0 L 111.0 159.0 L 111.0 162.0 L 111.0 165.0 L 111.0 169.0 L 111.0 171.0 L 111.0 174.0 L 111.0 176.0 L 111.0 179.0 L 110.0 181.0 L 110.0 184.0 L 110.0 187.0 L 110.0 189.0 L 109.0 192.0 L 109.0 194.0 L 109.0 196.0 L 108.0 197.0 L 108.0 198.0 L 108.0 199.0 L 108.0 199.0 L 108.0 199.0 L 108.0 198.0 " stroke="black" fill="none" stroke-width="5.0" stroke-linecap="round" stroke-linejoin="round" />
<path d="M 66.0 201.0 L 66.0 201.0 L 66.0 201.0 L 66.0 201.0 L 66.0 201.0 L 66.0 200.0 L 66.0 200.0 L 66.0 199.0 L 66.0 199.0 L 68.0 198.0 L 70.0 198.0 L 74.0 198.0 L 78.0 197.0 L 84.0 197.0 L 91.0 197.0 L 98.0 197.0 L 103.0 197.0 L 108.0 197.0 L 112.0 198.0 " stroke="black" fill="none" stroke-width="5.0" stroke-linecap="round" stroke-linejoin="round" />
<path d="M 183.0 67.0 L 183.0 67.0 L 183.0 67.0 L 182.0 67.0 L 181.0 67.0 L 180.0 68.0 L 180.0 69.0 L 178.0 70.0 L 177.0 72.0 L 176.0 75.0 L 175.0 78.0 L 173.0 81.0 L 172.0 84.0 L 171.0 86.0 L 169.0 88.0 " stroke="black" fill="none" stroke-width="5.0" stroke-linecap="round" stroke-linejoin="round" />
<path d="M 147.0 93.0 L 147.0 93.0 L 146.0 93.0 L 146.0 93.0 L 145.0 93.0 L 145.0 94.0 L 145.0 94.0 L 144.0 94.0 L 144.0 94.0 L 144.0 94.0 L 144.0 94.0 L 144.0 94.0 L 144.0 94.0 L 144.0 94.0 L 144.0 94.0 L 145.0 94.0 L 146.0 94.0 L 147.0 93.0 L 149.0 93.0 L 150.0 92.0 L 152.0 92.0 L 154.0 91.0 L 157.0 91.0 L 160.0 91.0 L 162.0 90.0 L 166.0 90.0 L 168.0 90.0 L 171.0 90.0 L 173.0 90.0 L 176.0 90.0 L 178.0 90.0 L 180.0 90.0 L 182.0 90.0 L 184.0 90.0 L 185.0 90.0 L 187.0 90.0 L 188.0 90.0 L 189.0 90.0 L 190.0 90.0 L 191.0 90.0 L 191.0 90.0 L 192.0 90.0 L 192.0 90.0 L 193.0 90.0 L 194.0 90.0 L 194.0 90.0 L 195.0 90.0 L 195.0 91.0 L 196.0 91.0 L 196.0 91.0 L 197.0 91.0 L 198.0 91.0 L 198.0 91.0 L 199.0 91.0 L 200.0 91.0 L 201.0 91.0 L 202.0 91.0 L 202.0 91.0 L 203.0 91.0 L 204.0 91.0 L 205.0 91.0 L 206.0 91.0 L 207.0 91.0 L 208.0 91.0 L 209.0 91.0 L 210.0 91.0 L 210.0 91.0 L 211.0 91.0 L 212.0 91.0 L 213.0 91.0 L 214.0 91.0 L 215.0 92.0 L 215.0 92.0 L 216.0 92.0 L 216.0 92.0 L 217.0 93.0 L 217.0 93.0 L 218.0 93.0 L 218.0 93.0 L 218.0 94.0 L 219.0 94.0 L 219.0 95.0 L 219.0 95.0 L 219.0 96.0 L 219.0 97.0 L 219.0 99.0 L 219.0 100.0 L 219.0 103.0 L 219.0 106.0 L 219.0 109.0 L 219.0 112.0 L 219.0 116.0 L 219.0 120.0 L 219.0 125.0 L 219.0 130.0 L 219.0 134.0 L 219.0 137.0 L 219.0 140.0 L 219.0 141.0 L 219.0 141.0 " stroke="black" fill="none" stroke-width="5.0" stroke-linecap="round" stroke-linejoin="round" />
<path d="M 148.0 121.0 L 148.0 121.0 L 147.0 121.0 L 146.0 121.0 L 145.0 121.0 L 145.0 121.0 L 145.0 121.0 L 145.0 120.0 L 145.0 120.0 L 145.0 120.0 L 147.0 120.0 L 149.0 120.0 L 152.0 120.0 L 156.0 120.0 L 162.0 120.0 L 169.0 119.0 L 178.0 119.0 L 186.0 118.0 L 193.0 117.0 L 198.0 116.0 L 202.0 116.0 L 204.0 116.0 L 205.0 117.0 " stroke="black" fill="none" stroke-width="5.0" stroke-linecap="round" stroke-linejoin="round" />
<path d="M 150.0 143.0 L 150.0 143.0 L 149.0 144.0 L 148.0 145.0 L 147.0 145.0 L 147.0 145.0 L 146.0 145.0 L 146.0 145.0 L 146.0 145.0 L 147.0 145.0 L 149.0 145.0 L 152.0 145.0 L 156.0 145.0 L 162.0 145.0 L 169.0 145.0 L 177.0 145.0 L 185.0 145.0 L 192.0 145.0 L 198.0 145.0 L 202.0 145.0 L 205.0 145.0 L 209.0 145.0 L 210.0 145.0 " stroke="black" fill="none" stroke-width="5.0" stroke-linecap="round" stroke-linejoin="round" />
<path d="M 149.0 167.0 L 149.0 167.0 L 149.0 167.0 L 149.0 167.0 L 149.0 167.0 L 149.0 166.0 L 149.0 166.0 L 149.0 166.0 L 150.0 166.0 L 152.0 166.0 L 154.0 166.0 L 158.0 166.0 L 163.0 166.0 L 169.0 166.0 L 176.0 166.0 L 184.0 166.0 L 190.0 166.0 L 196.0 166.0 L 200.0 165.0 L 204.0 165.0 L 208.0 165.0 L 212.0 165.0 L 216.0 165.0 L 219.0 165.0 " stroke="black" fill="none" stroke-width="5.0" stroke-linecap="round" stroke-linejoin="round" />
<path d="M 148.0 97.0 L 148.0 97.0 L 148.0 97.0 L 148.0 97.0 L 148.0 97.0 L 148.0 98.0 L 148.0 99.0 L 148.0 100.0 L 148.0 102.0 L 148.0 104.0 L 148.0 107.0 L 148.0 110.0 L 148.0 113.0 L 147.0 117.0 L 147.0 121.0 L 146.0 125.0 L 146.0 129.0 L 145.0 133.0 L 145.0 137.0 L 144.0 143.0 L 144.0 147.0 L 144.0 152.0 L 144.0 157.0 L 144.0 160.0 L 143.0 163.0 L 143.0 166.0 L 143.0 168.0 L 142.0 170.0 L 142.0 171.0 L 142.0 172.0 L 142.0 173.0 L 142.0 174.0 L 142.0 175.0 L 142.0 176.0 L 142.0 177.0 L 142.0 178.0 L 142.0 179.0 L 142.0 180.0 L 142.0 181.0 L 142.0 182.0 L 142.0 184.0 L 142.0 184.0 L 141.0 185.0 L 141.0 186.0 L 141.0 187.0 L 141.0 188.0 L 141.0 188.0 L 141.0 189.0 L 141.0 189.0 L 140.0 190.0 L 140.0 190.0 L 140.0 191.0 L 140.0 191.0 L 140.0 191.0 L 140.0 192.0 L 140.0 192.0 L 140.0 192.0 L 140.0 192.0 L 140.0 192.0 L 140.0 192.0 L 140.0 192.0 L 140.0 192.0 L 141.0 192.0 L 141.0 192.0 L 142.0 192.0 L 142.0 192.0 L 143.0 192.0 L 144.0 192.0 L 144.0 192.0 L 146.0 192.0 L 147.0 192.0 L 148.0 192.0 L 149.0 192.0 L 151.0 192.0 L 153.0 191.0 L 154.0 191.0 L 157.0 191.0 L 159.0 191.0 L 161.0 191.0 L 164.0 191.0 L 167.0 191.0 L 169.0 191.0 L 172.0 191.0 L 175.0 191.0 L 177.0 191.0 L 180.0 191.0 L 182.0 191.0 L 184.0 191.0 L 186.0 191.0 L 187.0 191.0 L 189.0 191.0 L 190.0 191.0 L 191.0 191.0 L 192.0 191.0 L 193.0 191.0 L 194.0 191.0 L 195.0 191.0 L 196.0 191.0 L 197.0 191.0 L 198.0 191.0 L 199.0 191.0 L 201.0 191.0 L 202.0 191.0 L 204.0 191.0 L 205.0 191.0 L 207.0 191.0 L 209.0 191.0 L 210.0 190.0 L 212.0 190.0 L 214.0 190.0 L 216.0 190.0 L 217.0 189.0 L 219.0 189.0 L 220.0 189.0 L 221.0 189.0 L 223.0 188.0 L 224.0 188.0 L 225.0 188.0 L 226.0 187.0 L 226.0 187.0 L 227.0 187.0 L 228.0 187.0 L 228.0 187.0 L 228.0 187.0 L 229.0 187.0 L 229.0 187.0 L 229.0 187.0 L 230.0 187.0 L 230.0 188.0 L 230.0 188.0 L 230.0 189.0 L 230.0 189.0 L 230.0 190.0 L 230.0 191.0 L 230.0 193.0 L 230.0 194.0 L 230.0 196.0 L 230.0 198.0 L 230.0 200.0 L 230.0 203.0 L 230.0 206.0 L 229.0 210.0 L 229.0 213.0 L 228.0 217.0 L 227.0 221.0 L 226.0 225.0 L 225.0 229.0 L 224.0 233.0 L 223.0 238.0 L 223.0 241.0 L 222.0 245.0 L 221.0 247.0 L 220.0 249.0 L 220.0 250.0 L 219.0 251.0 L 219.0 251.0 L 218.0 252.0 L 218.0 252.0 L 217.0 252.0 L 216.0 253.0 L 214.0 254.0 L 213.0 255.0 L 211.0 256.0 L 210.0 256.0 L 208.0 257.0 L 206.0 257.0 L 203.0 257.0 L 200.0 256.0 L 197.0 254.0 L 194.0 251.0 L 193.0 250.0 " stroke="black" fill="none" stroke-width="5.0" stroke-linecap="round" stroke-linejoin="round" />
<path d="M 131.0 211.0 L 131.0 211.0 L 131.0 211.0 L 131.0 211.0 L 131.0 211.0 L 131.0 211.0 L 131.0 210.0 L 131.0 210.0 L 131.0 210.0 L 131.0 211.0 L 130.0 214.0 L 129.0 217.0 L 128.0 221.0 L 127.0 226.0 L 126.0 231.0 L 125.0 236.0 L 124.0 241.0 L 123.0 244.0 L 123.0 246.0 L 123.0 248.0 L 123.0 248.0 " stroke="black" fill="none" stroke-width="5.0" stroke-linecap="round" stroke-linejoin="round" />
<path d="M 145.0 218.0 L 145.0 217.0 L 145.0 217.0 L 145.0 216.0 L 145.0 216.0 L 145.0 216.0 L 145.0 216.0 L 145.0 216.0 L 145.0 218.0 L 145.0 221.0 L 145.0 224.0 L 145.0 228.0 L 145.0 232.0 L 145.0 236.0 L 145.0 240.0 L 145.0 243.0 L 145.0 246.0 L 145.0 247.0 L 145.0 247.0 " stroke="black" fill="none" stroke-width="5.0" stroke-linecap="round" stroke-linejoin="round" />
<path d="M 165.0 210.0 L 165.0 210.0 L 165.0 210.0 L 165.0 210.0 L 165.0 210.0 L 165.0 211.0 L 165.0 211.0 L 165.0 212.0 L 166.0 213.0 L 166.0 214.0 L 167.0 217.0 L 167.0 220.0 L 168.0 225.0 L 168.0 230.0 L 168.0 235.0 L 169.0 239.0 L 169.0 242.0 L 169.0 244.0 L 169.0 245.0 L 169.0 245.0 " stroke="black" fill="none" stroke-width="5.0" stroke-linecap="round" stroke-linejoin="round" />
<path d="M 188.0 212.0 L 188.0 212.0 L 188.0 211.0 L 189.0 211.0 L 189.0 210.0 L 189.0 210.0 L 190.0 210.0 L 191.0 209.0 L 191.0 209.0 L 192.0 209.0 L 193.0 210.0 L 193.0 212.0 L 194.0 214.0 L 196.0 218.0 L 197.0 222.0 L 198.0 226.0 L 200.0 230.0 L 201.0 233.0 L 203.0 235.0 L 204.0 236.0 L 205.0 237.0 L 205.0 237.0 " stroke="black" fill="none" stroke-width="5.0" stroke-linecap="round" stroke-linejoin="round" />
</svg>