<svg xmlns="http://www.w3.org/2000/svg" width="300" height="300" viewBox="0 0 300 300">
<path d="M 112.0 68.0 L 112.0 67.0 L 112.0 66.0 L 112.0 65.0 L 112.0 64.0 L 112.0 63.0 L 112.0 62.0 L 112.0 61.0 L 113.0 61.0 L 113.0 60.0 L 113.0 60.0 L 113.0 59.0 L 113.0 59.0 L 113.0 59.0 L 113.0 59.0 L 113.0 59.0 L 113.0 60.0 L 113.0 62.0 L 113.0 65.0 L 113.0 68.0 L 112.0 71.0 L 111.0 76.0 L 109.0 81.0 L 108.0 87.0 L 105.0 95.0 L 103.0 103.0 L 100.0 110.0 L 96.0 116.0 L 92.0 121.0 L 88.0 125.0 L 83.0 128.0 L 80.0 130.0 L 78.0 131.0 " stroke="black" fill="none" stroke-width="5.0" stroke-linecap="round" stroke-linejoin="round" />
<path d="M 107.0 98.0 L 107.0 98.0 L 106.0 98.0 L 105.0 98.0 L 104.0 98.0 L 103.0 99.0 L 102.0 100.0 L 102.0 100.0 L 101.0 101.0 L 101.0 101.0 L 102.0 101.0 L 104.0 101.0 L 107.0 101.0 L 111.0 101.0 L 117.0 101.0 L 123.0 101.0 L 130.0 100.0 L 139.0 100.0 L 146.0 100.0 L 152.0 100.0 L 159.0 100.0 L 166.0 101.0 L 175.0 101.0 L 184.0 101.0 L 191.0 100.0 L 196.0 99.0 L 200.0 98.0 L 202.0 98.0 L 204.0 98.0 L 205.0 98.0 L 206.0 98.0 L 207.0 98.0 L 208.0 99.0 " stroke="black" fill="none" stroke-width="5.0" stroke-linecap="round" stroke-linejoin="round" />
<path d="M 109.0 143.0 L 109.0 143.0 L 109.0 143.0 L 108.0 143.0 L 107.0 143.0 L 107.0 143.0 L 107.0 143.0 L 107.0 143.0 L 107.0 143.0 L 108.0 143.0 L 111.0 143.0 L 115.0 143.0 L 121.0 142.0 L 129.0 142.0 L 138.0 142.0 L 147.0 141.0 L 157.0 141.0 L 167.0 140.0 L 178.0 139.0 L 187.0 139.0 L 194.0 139.0 L 198.0 139.0 L 201.0 139.0 L 204.0 139.0 L 206.0 140.0 L 207.0 141.0 L 208.0 143.0 L 208.0 144.0 L 208.0 145.0 " stroke="black" fill="none" stroke-width="5.0" stroke-linecap="round" stroke-linejoin="round" />
<path d="M 105.0 148.0 L 105.0 148.0 L 105.0 147.0 L 104.0 146.0 L 104.0 146.0 L 104.0 145.0 L 103.0 145.0 L 103.0 145.0 L 103.0 145.0 L 103.0 146.0 L 103.0 147.0 L 102.0 150.0 L 102.0 154.0 L 102.0 159.0 L 102.0 164.0 L 102.0 171.0 L 102.0 178.0 L 103.0 185.0 L 103.0 190.0 L 103.0 195.0 L 103.0 197.0 L 104.0 198.0 " stroke="black" fill="none" stroke-width="5.0" stroke-linecap="round" stroke-linejoin="round" />
<path d="M 60.0 194.0 L 59.0 194.0 L 59.0 194.0 L 59.0 194.0 L 58.0 194.0 L 58.0 195.0 L 58.0 195.0 L 57.0 195.0 L 57.0 195.0 L 57.0 196.0 L 58.0 196.0 L 59.0 196.0 L 61.0 196.0 L 63.0 196.0 L 66.0 196.0 L 69.0 196.0 L 73.0 196.0 L 79.0 196.0 L 85.0 196.0 L 93.0 196.0 L 100.0 196.0 L 107.0 197.0 L 113.0 197.0 L 119.0 198.0 L 125.0 198.0 L 132.0 198.0 L 138.0 199.0 L 144.0 199.0 L 149.0 199.0 L 153.0 199.0 L 157.0 199.0 L 161.0 199.0 L 166.0 199.0 L 171.0 199.0 L 177.0 199.0 L 183.0 199.0 L 188.0 199.0 L 193.0 199.0 L 197.0 199.0 L 200.0 199.0 L 203.0 199.0 L 206.0 199.0 L 210.0 199.0 L 214.0 199.0 L 218.0 199.0 L 222.0 199.0 L 225.0 199.0 L 229.0 199.0 L 231.0 199.0 L 234.0 199.0 L 236.0 199.0 L 237.0 199.0 L 239.0 199.0 L 240.0 199.0 L 241.0 199.0 L 241.0 199.0 L 242.0 199.0 L 243.0 199.0 L 243.0 198.0 L 243.0 198.0 L 243.0 198.0 L 243.0 198.0 L 242.0 198.0 L 241.0 198.0 " stroke="black" fill="none" stroke-width="5.0" stroke-linecap="round" stroke-linejoin="round" />
<path d="M 162.0 105.0 L 162.0 105.0 L 162.0 105.0 L 162.0 105.0 L 162.0 105.0 L 161.0 105.0 L 161.0 105.0 L 161.0 105.0 L 161.0 105.0 L 161.0 106.0 L 161.0 107.0 L 161.0 109.0 L 161.0 113.0 L 161.0 117.0 L 161.0 123.0 L 161.0 130.0 L 162.0 139.0 L 162.0 148.0 L 162.0 158.0 L 162.0 168.0 L 161.0 177.0 L 161.0 188.0 L 160.0 198.0 L 160.0 207.0 L 159.0 215.0 L 158.0 222.0 L 158.0 229.0 L 157.0 235.0 L 156.0 240.0 L 156.0 243.0 L 155.0 245.0 L 155.0 246.0 L 155.0 247.0 L 155.0 247.0 L 155.0 246.0 L 155.0 245.0 " stroke="black" fill="none" stroke-width="5.0" stroke-linecap="round" stroke-linejoin="round" />
</svg>