<svg xmlns="http://www.w3.org/2000/svg" width="300" height="300" viewBox="0 0 300 300">
<path d="M 77.5 82.5 L 77.5 82.5 L 77.5 80.0 L 77.5 80.0 L 77.5 77.5 L 77.5 77.5 L 77.5 77.5 L 77.5 77.5 L 77.5 77.5 L 77.5 77.5 L 77.5 77.5 L 77.5 77.5 L 77.5 77.5 L 80.0 80.0 L 80.0 82.5 L 82.5 85.0 L 85.0 87.5 L 87.5 90.0 L 87.5 92.5 L 90.0 92.5 L 92.5 95.0 L 92.5 95.0 " stroke="black" fill="none" stroke-width="5.0" stroke-linecap="round" stroke-linejoin="round" />
<path d="M 62.5 110.0 L 62.5 110.0 L 62.5 110.0 L 62.5 107.5 L 62.5 107.5 L 62.5 107.5 L 62.5 107.5 L 60.0 107.5 L 60.0 107.5 L 60.0 107.5 L 60.0 107.5 L 60.0 105.0 L 60.0 105.0 L 60.0 105.0 L 62.5 105.0 L 67.5 105.0 L 75.0 105.0 L 82.5 105.0 L 92.5 105.0 L 102.5 105.0 L 115.0 105.0 L 125.0 105.0 L 135.0 105.0 L 140.0 105.0 " stroke="black" fill="none" stroke-width="5.0" stroke-linecap="round" stroke-linejoin="round" />
<path d="M 67.5 140.0 L 67.5 140.0 L 67.5 140.0 L 67.5 140.0 L 67.5 140.0 L 67.5 140.0 L 67.5 137.5 L 67.5 137.5 L 67.5 137.5 L 67.5 137.5 L 67.5 137.5 L 67.5 137.5 L 67.5 137.5 L 70.0 137.5 L 72.5 137.5 L 77.5 137.5 L 85.0 137.5 L 92.5 137.5 L 100.0 137.5 L 110.0 137.5 L 117.5 137.5 L 122.5 137.5 L 125.0 137.5 " stroke="black" fill="none" stroke-width="5.0" stroke-linecap="round" stroke-linejoin="round" />
<path d="M 75.0 162.5 L 75.0 162.5 L 72.5 162.5 L 72.5 162.5 L 70.0 162.5 L 70.0 162.5 L 67.5 162.5 L 65.0 162.5 L 65.0 162.5 L 65.0 162.5 L 62.5 162.5 L 62.5 162.5 L 62.5 162.5 L 65.0 162.5 L 67.5 162.5 L 72.5 160.0 L 80.0 160.0 L 90.0 160.0 L 100.0 160.0 L 110.0 160.0 L 117.5 160.0 L 122.5 160.0 L 127.5 162.5 " stroke="black" fill="none" stroke-width="5.0" stroke-linecap="round" stroke-linejoin="round" />
<path d="M 70.0 187.5 L 70.0 187.5 L 70.0 187.5 L 70.0 187.5 L 70.0 187.5 L 70.0 187.5 L 70.0 187.5 L 70.0 187.5 L 70.0 187.5 L 70.0 187.5 L 70.0 187.5 L 70.0 187.5 L 70.0 187.5 L 70.0 187.5 L 70.0 190.0 L 70.0 192.5 L 70.0 197.5 L 70.0 205.0 L 72.5 212.5 L 72.5 220.0 L 72.5 227.5 L 72.5 235.0 L 72.5 240.0 L 72.5 242.5 L 72.5 242.5 L 72.5 242.5 L 72.5 240.0 L 72.5 232.5 " stroke="black" fill="none" stroke-width="5.0" stroke-linecap="round" stroke-linejoin="round" />
<path d="M 77.5 190.0 L 77.5 190.0 L 77.5 187.5 L 77.5 187.5 L 77.5 187.5 L 77.5 187.5 L 77.5 187.5 L 77.5 185.0 L 77.5 185.0 L 77.5 185.0 L 77.5 185.0 L 77.5 185.0 L 80.0 185.0 L 82.5 185.0 L 85.0 185.0 L 90.0 185.0 L 95.0 185.0 L 100.0 185.0 L 105.0 185.0 L 107.5 185.0 L 110.0 187.5 L 112.5 190.0 L 115.0 190.0 L 115.0 192.5 L 115.0 197.5 L 115.0 200.0 L 115.0 205.0 L 115.0 210.0 L 115.0 217.5 L 112.5 222.5 L 112.5 227.5 L 112.5 232.5 L 110.0 235.0 L 110.0 237.5 L 107.5 237.5 L 107.5 240.0 L 105.0 240.0 " stroke="black" fill="none" stroke-width="5.0" stroke-linecap="round" stroke-linejoin="round" />
<path d="M 82.5 240.0 L 80.0 240.0 L 77.5 240.0 L 75.0 240.0 L 72.5 240.0 L 70.0 240.0 L 67.5 240.0 L 65.0 240.0 L 65.0 240.0 L 65.0 240.0 L 65.0 240.0 L 65.0 240.0 L 65.0 240.0 L 67.5 240.0 L 70.0 240.0 L 75.0 240.0 L 82.5 237.5 L 87.5 237.5 L 90.0 235.0 L 100.0 232.5 L 110.0 230.0 L 120.0 227.5 L 125.0 225.0 " stroke="black" fill="none" stroke-width="5.0" stroke-linecap="round" stroke-linejoin="round" />
<path d="M 165.0 77.5 L 165.0 77.5 L 165.0 77.5 L 165.0 77.5 L 165.0 77.5 L 165.0 77.5 L 162.5 75.0 L 162.5 75.0 L 162.5 75.0 L 162.5 75.0 L 162.5 75.0 L 162.5 75.0 L 162.5 75.0 L 162.5 75.0 L 162.5 75.0 L 162.5 77.5 L 162.5 80.0 L 165.0 82.5 L 170.0 85.0 L 172.5 87.5 L 177.5 92.5 L 180.0 95.0 L 185.0 97.5 L 185.0 97.5 " stroke="black" fill="none" stroke-width="5.0" stroke-linecap="round" stroke-linejoin="round" />
<path d="M 147.5 117.5 L 147.5 117.5 L 147.5 117.5 L 147.5 117.5 L 147.5 117.5 L 147.5 117.5 L 145.0 117.5 L 145.0 117.5 L 145.0 117.5 L 145.0 117.5 L 145.0 117.5 L 145.0 117.5 L 145.0 117.5 L 145.0 117.5 L 145.0 117.5 L 145.0 117.5 L 145.0 117.5 L 145.0 117.5 L 145.0 117.5 L 147.5 117.5 L 150.0 117.5 L 152.5 117.5 L 155.0 117.5 L 155.0 117.5 L 157.5 115.0 L 160.0 115.0 L 162.5 115.0 L 167.5 115.0 L 170.0 115.0 L 172.5 115.0 L 175.0 115.0 L 177.5 115.0 L 180.0 115.0 L 180.0 115.0 L 182.5 115.0 L 185.0 115.0 L 185.0 115.0 L 187.5 115.0 L 187.5 115.0 L 187.5 115.0 L 190.0 115.0 L 190.0 115.0 L 190.0 117.5 L 190.0 117.5 L 190.0 120.0 L 190.0 120.0 L 190.0 122.5 L 190.0 122.5 L 190.0 125.0 L 190.0 127.5 L 190.0 130.0 L 190.0 132.5 L 190.0 135.0 L 187.5 137.5 L 187.5 140.0 L 187.5 145.0 L 187.5 147.5 L 187.5 152.5 L 187.5 155.0 L 187.5 160.0 L 187.5 162.5 L 187.5 165.0 L 187.5 170.0 L 187.5 172.5 L 187.5 175.0 L 187.5 177.5 L 187.5 182.5 L 187.5 185.0 L 187.5 187.5 L 187.5 190.0 L 187.5 195.0 L 187.5 195.0 L 187.5 197.5 L 187.5 200.0 L 187.5 202.5 L 187.5 205.0 L 187.5 207.5 L 187.5 210.0 L 187.5 212.5 L 187.5 212.5 L 187.5 217.5 L 187.5 217.5 L 187.5 220.0 L 187.5 220.0 L 187.5 220.0 L 187.5 222.5 L 187.5 225.0 L 190.0 225.0 L 190.0 227.5 L 190.0 227.5 L 190.0 230.0 L 190.0 232.5 L 190.0 235.0 L 190.0 237.5 L 190.0 237.5 L 190.0 240.0 L 190.0 242.5 L 190.0 242.5 L 190.0 245.0 L 190.0 245.0 L 190.0 247.5 L 190.0 247.5 L 190.0 250.0 L 190.0 250.0 L 190.0 252.5 L 190.0 252.5 L 187.5 252.5 L 187.5 252.5 L 187.5 255.0 L 187.5 255.0 L 187.5 255.0 L 187.5 255.0 L 187.5 255.0 L 187.5 255.0 L 187.5 255.0 L 185.0 255.0 L 185.0 255.0 L 185.0 255.0 L 185.0 255.0 L 185.0 255.0 L 182.5 255.0 L 182.5 255.0 L 182.5 255.0 L 182.5 255.0 L 180.0 255.0 L 180.0 255.0 L 177.5 255.0 L 175.0 255.0 L 175.0 252.5 L 172.5 252.5 L 170.0 252.5 L 167.5 250.0 L 165.0 250.0 L 165.0 247.5 " stroke="black" fill="none" stroke-width="5.0" stroke-linecap="round" stroke-linejoin="round" />
<path d="M 145.0 162.5 L 145.0 162.5 L 145.0 162.5 L 142.5 162.5 L 142.5 165.0 L 140.0 165.0 L 140.0 165.0 L 140.0 165.0 L 140.0 165.0 L 140.0 165.0 L 140.0 165.0 L 140.0 165.0 L 140.0 162.5 L 142.5 162.5 L 145.0 162.5 L 145.0 162.5 L 147.5 162.5 L 150.0 162.5 L 152.5 162.5 L 155.0 162.5 L 157.5 162.5 L 157.5 162.5 L 160.0 162.5 L 160.0 162.5 L 162.5 162.5 L 162.5 165.0 L 162.5 165.0 L 162.5 167.5 L 162.5 170.0 L 162.5 172.5 L 162.5 172.5 L 162.5 177.5 L 160.0 177.5 L 160.0 180.0 L 160.0 182.5 L 157.5 185.0 L 157.5 187.5 L 155.0 192.5 L 155.0 197.5 L 152.5 202.5 L 150.0 207.5 L 147.5 212.5 L 145.0 217.5 L 142.5 225.0 L 140.0 230.0 L 137.5 235.0 L 135.0 237.5 L 135.0 240.0 L 135.0 240.0 L 135.0 237.5 " stroke="black" fill="none" stroke-width="5.0" stroke-linecap="round" stroke-linejoin="round" />
<path d="M 230.0 150.0 L 230.0 150.0 L 230.0 147.5 L 230.0 147.5 L 230.0 145.0 L 232.5 142.5 L 232.5 142.5 L 232.5 140.0 L 235.0 140.0 L 235.0 140.0 L 235.0 140.0 L 235.0 140.0 L 235.0 140.0 L 235.0 140.0 L 235.0 140.0 L 232.5 142.5 L 230.0 145.0 L 227.5 150.0 L 225.0 152.5 L 222.5 157.5 L 217.5 160.0 L 215.0 165.0 L 212.5 167.5 L 207.5 172.5 L 205.0 175.0 L 202.5 177.5 L 200.0 177.5 L 197.5 180.0 L 195.0 180.0 L 195.0 180.0 L 192.5 180.0 L 192.5 180.0 L 192.5 180.0 L 192.5 180.0 L 192.5 180.0 L 192.5 180.0 L 192.5 180.0 L 192.5 180.0 L 192.5 180.0 L 192.5 180.0 L 192.5 180.0 L 192.5 180.0 L 192.5 180.0 L 192.5 180.0 L 192.5 180.0 L 192.5 180.0 L 192.5 180.0 L 192.5 180.0 L 192.5 180.0 L 195.0 180.0 L 195.0 180.0 L 195.0 180.0 L 195.0 180.0 L 195.0 180.0 L 195.0 180.0 L 195.0 180.0 L 195.0 180.0 L 195.0 180.0 L 195.0 180.0 L 195.0 180.0 L 195.0 180.0 L 195.0 180.0 L 195.0 180.0 L 195.0 177.5 L 195.0 177.5 L 195.0 177.5 L 195.0 177.5 L 195.0 177.5 L 195.0 175.0 L 195.0 175.0 L 195.0 175.0 L 195.0 172.5 L 195.0 172.5 L 195.0 172.5 L 195.0 172.5 L 195.0 172.5 L 195.0 172.5 L 195.0 172.5 L 195.0 172.5 L 195.0 172.5 L 195.0 172.5 L 195.0 172.5 L 195.0 172.5 L 195.0 175.0 L 195.0 177.5 L 197.5 180.0 L 197.5 182.5 L 200.0 187.5 L 202.5 190.0 L 207.5 195.0 L 210.0 200.0 L 212.5 205.0 L 217.5 210.0 L 222.5 215.0 L 225.0 220.0 L 230.0 222.5 L 232.5 225.0 L 235.0 230.0 L 237.5 232.5 L 240.0 232.5 L 242.5 235.0 L 245.0 235.0 L 245.0 235.0 L 245.0 235.0 L 245.0 235.0 L 245.0 235.0 L 245.0 235.0 L 245.0 235.0 L 245.0 232.5 " stroke="black" fill="none" stroke-width="5.0" stroke-linecap="round" stroke-linejoin="round" />
</svg>