<svg xmlns="http://www.w3.org/2000/svg" width="300" height="300" viewBox="0 0 300 300">
<path d="M 73.0 88.0 L 73.0 88.0 L 73.0 89.0 L 72.0 89.0 L 72.0 90.0 L 72.0 90.0 L 72.0 91.0 L 72.0 92.0 L 72.0 92.0 L 72.0 94.0 L 72.0 95.0 L 72.0 97.0 L 72.0 99.0 L 72.0 100.0 L 72.0 101.0 L 72.0 103.0 L 72.0 106.0 L 73.0 109.0 L 73.0 112.0 L 73.0 116.0 L 73.0 119.0 L 73.0 122.0 L 73.0 126.0 L 73.0 130.0 L 73.0 133.0 L 73.0 137.0 L 72.0 141.0 L 72.0 144.0 L 72.0 148.0 L 72.0 151.0 L 72.0 154.0 L 72.0 157.0 L 72.0 160.0 L 72.0 162.0 L 72.0 165.0 L 72.0 167.0 L 72.0 170.0 L 72.0 172.0 L 72.0 174.0 L 72.0 177.0 L 72.0 179.0 L 72.0 182.0 L 72.0 185.0 L 72.0 188.0 L 72.0 191.0 L 72.0 194.0 L 72.0 197.0 L 72.0 200.0 L 72.0 203.0 L 72.0 206.0 L 72.0 208.0 L 72.0 210.0 L 71.0 213.0 L 71.0 215.0 L 71.0 218.0 L 71.0 221.0 L 70.0 224.0 L 70.0 228.0 L 70.0 232.0 L 70.0 235.0 L 70.0 237.0 L 70.0 240.0 L 70.0 242.0 L 70.0 242.0 L 70.0 243.0 L 70.0 243.0 " stroke="black" fill="none" stroke-width="5.0" stroke-linecap="round" stroke-linejoin="round" />
<path d="M 73.0 86.0 L 73.0 86.0 L 73.0 86.0 L 73.0 86.0 L 73.0 86.0 L 73.0 86.0 L 73.0 86.0 L 73.0 86.0 L 73.0 86.0 L 73.0 86.0 L 73.0 86.0 L 73.0 85.0 L 73.0 85.0 L 73.0 85.0 L 73.0 85.0 L 73.0 85.0 L 73.0 85.0 L 73.0 85.0 L 74.0 85.0 L 74.0 85.0 L 75.0 85.0 L 76.0 85.0 L 77.0 86.0 L 78.0 86.0 L 78.0 86.0 L 80.0 86.0 L 81.0 86.0 L 82.0 86.0 L 83.0 86.0 L 85.0 86.0 L 86.0 86.0 L 87.0 86.0 L 89.0 86.0 L 90.0 86.0 L 91.0 85.0 L 93.0 85.0 L 94.0 85.0 L 96.0 85.0 L 98.0 84.0 L 99.0 84.0 L 100.0 84.0 L 101.0 84.0 L 102.0 84.0 L 103.0 84.0 L 104.0 84.0 L 104.0 84.0 L 105.0 84.0 L 105.0 84.0 L 105.0 84.0 L 105.0 84.0 L 106.0 84.0 L 106.0 83.0 L 107.0 83.0 L 107.0 83.0 L 107.0 83.0 L 107.0 83.0 L 108.0 83.0 L 108.0 83.0 L 108.0 83.0 L 109.0 83.0 L 109.0 83.0 L 110.0 83.0 L 110.0 83.0 L 111.0 83.0 L 111.0 83.0 L 112.0 83.0 L 112.0 83.0 L 113.0 83.0 L 114.0 83.0 L 114.0 83.0 L 115.0 83.0 L 116.0 83.0 L 117.0 83.0 L 118.0 83.0 L 119.0 83.0 L 120.0 83.0 L 121.0 83.0 L 123.0 83.0 L 124.0 83.0 L 125.0 83.0 L 126.0 83.0 L 127.0 83.0 L 128.0 83.0 L 130.0 83.0 L 131.0 83.0 L 132.0 83.0 L 133.0 83.0 L 134.0 82.0 L 135.0 82.0 L 136.0 82.0 L 137.0 82.0 L 138.0 82.0 L 139.0 82.0 L 140.0 82.0 L 141.0 82.0 L 142.0 82.0 L 143.0 82.0 L 144.0 82.0 L 145.0 82.0 L 146.0 82.0 L 146.0 82.0 L 147.0 82.0 L 148.0 82.0 L 148.0 82.0 L 149.0 82.0 L 150.0 82.0 L 150.0 82.0 L 151.0 82.0 L 151.0 82.0 L 152.0 82.0 L 152.0 82.0 L 153.0 82.0 L 153.0 82.0 L 154.0 82.0 L 154.0 82.0 L 155.0 82.0 L 155.0 82.0 L 156.0 82.0 L 156.0 82.0 L 157.0 82.0 L 158.0 82.0 L 158.0 82.0 L 159.0 82.0 L 160.0 82.0 L 160.0 82.0 L 161.0 82.0 L 162.0 82.0 L 163.0 82.0 L 164.0 82.0 L 165.0 82.0 L 166.0 82.0 L 166.0 82.0 L 167.0 82.0 L 168.0 82.0 L 169.0 82.0 L 170.0 82.0 L 171.0 82.0 L 172.0 82.0 L 173.0 82.0 L 174.0 82.0 L 175.0 82.0 L 176.0 82.0 L 176.0 82.0 L 177.0 82.0 L 178.0 82.0 L 179.0 82.0 L 180.0 83.0 L 180.0 83.0 L 181.0 83.0 L 182.0 83.0 L 183.0 83.0 L 184.0 83.0 L 184.0 83.0 L 185.0 83.0 L 185.0 83.0 L 186.0 83.0 L 187.0 83.0 L 187.0 84.0 L 188.0 84.0 L 189.0 84.0 L 189.0 84.0 L 190.0 84.0 L 190.0 84.0 L 191.0 84.0 L 191.0 84.0 L 192.0 84.0 L 192.0 84.0 L 193.0 84.0 L 193.0 84.0 L 193.0 84.0 L 194.0 84.0 L 194.0 84.0 L 194.0 84.0 L 195.0 84.0 L 195.0 84.0 L 196.0 84.0 L 196.0 84.0 L 197.0 84.0 L 198.0 84.0 L 198.0 84.0 L 199.0 84.0 L 200.0 84.0 L 201.0 84.0 L 202.0 84.0 L 202.0 84.0 L 203.0 83.0 L 204.0 83.0 L 205.0 83.0 L 205.0 83.0 L 206.0 83.0 L 207.0 83.0 L 208.0 82.0 L 209.0 82.0 L 209.0 82.0 L 210.0 82.0 L 211.0 82.0 L 212.0 82.0 L 212.0 82.0 L 213.0 82.0 L 214.0 82.0 L 214.0 82.0 L 215.0 82.0 L 216.0 82.0 L 216.0 82.0 L 217.0 82.0 L 217.0 82.0 L 218.0 82.0 L 218.0 82.0 L 219.0 82.0 L 219.0 82.0 L 220.0 82.0 L 220.0 82.0 L 221.0 82.0 L 221.0 82.0 L 221.0 82.0 L 222.0 82.0 L 222.0 83.0 L 222.0 83.0 L 223.0 83.0 L 223.0 83.0 L 223.0 84.0 L 223.0 84.0 L 223.0 84.0 L 223.0 85.0 L 224.0 86.0 L 224.0 86.0 L 224.0 87.0 L 224.0 89.0 L 224.0 91.0 L 224.0 93.0 L 224.0 95.0 L 224.0 98.0 L 224.0 102.0 L 224.0 106.0 L 224.0 109.0 L 224.0 113.0 L 225.0 116.0 L 225.0 119.0 L 225.0 122.0 L 225.0 125.0 L 226.0 127.0 L 226.0 130.0 L 226.0 133.0 L 226.0 136.0 L 226.0 139.0 L 226.0 142.0 L 226.0 145.0 L 226.0 148.0 L 226.0 151.0 L 226.0 153.0 L 226.0 155.0 L 226.0 157.0 L 226.0 159.0 L 226.0 161.0 L 226.0 163.0 L 226.0 165.0 L 226.0 167.0 L 226.0 169.0 L 226.0 171.0 L 226.0 173.0 L 226.0 175.0 L 226.0 177.0 L 226.0 179.0 L 226.0 182.0 L 226.0 184.0 L 226.0 187.0 L 226.0 190.0 L 226.0 193.0 L 226.0 196.0 L 226.0 199.0 L 226.0 202.0 L 226.0 206.0 L 226.0 209.0 L 226.0 212.0 L 226.0 214.0 L 226.0 217.0 L 226.0 219.0 L 226.0 221.0 L 226.0 223.0 L 226.0 225.0 L 225.0 227.0 L 225.0 230.0 L 225.0 232.0 L 225.0 235.0 L 225.0 237.0 L 225.0 239.0 L 224.0 241.0 L 224.0 243.0 L 224.0 244.0 L 224.0 245.0 L 224.0 246.0 L 223.0 247.0 L 223.0 248.0 L 223.0 249.0 L 223.0 250.0 L 223.0 250.0 L 222.0 250.0 L 222.0 251.0 L 222.0 251.0 L 222.0 251.0 L 221.0 251.0 L 221.0 251.0 L 220.0 251.0 L 219.0 250.0 L 218.0 250.0 L 216.0 249.0 L 214.0 247.0 L 211.0 246.0 L 208.0 245.0 L 204.0 243.0 L 200.0 241.0 L 198.0 240.0 " stroke="black" fill="none" stroke-width="5.0" stroke-linecap="round" stroke-linejoin="round" />
<path d="M 111.0 106.0 L 111.0 106.0 L 111.0 105.0 L 111.0 105.0 L 111.0 104.0 L 111.0 104.0 L 111.0 104.0 L 112.0 104.0 L 113.0 106.0 L 114.0 109.0 L 116.0 113.0 L 119.0 117.0 L 122.0 121.0 L 126.0 125.0 L 129.0 129.0 L 132.0 133.0 L 135.0 136.0 L 137.0 138.0 " stroke="black" fill="none" stroke-width="5.0" stroke-linecap="round" stroke-linejoin="round" />
<path d="M 189.0 97.0 L 189.0 97.0 L 189.0 98.0 L 188.0 100.0 L 187.0 102.0 L 186.0 105.0 L 183.0 109.0 L 180.0 114.0 L 177.0 119.0 L 173.0 124.0 L 170.0 129.0 L 167.0 132.0 L 165.0 134.0 L 163.0 134.0 " stroke="black" fill="none" stroke-width="5.0" stroke-linecap="round" stroke-linejoin="round" />
<path d="M 95.0 141.0 L 95.0 141.0 L 95.0 141.0 L 95.0 141.0 L 95.0 141.0 L 94.0 141.0 L 94.0 141.0 L 94.0 141.0 L 94.0 141.0 L 94.0 141.0 L 94.0 141.0 L 94.0 141.0 L 95.0 141.0 L 96.0 141.0 L 96.0 141.0 L 97.0 141.0 L 98.0 141.0 L 99.0 141.0 L 100.0 142.0 L 101.0 142.0 L 103.0 142.0 L 104.0 142.0 L 105.0 142.0 L 106.0 142.0 L 107.0 142.0 L 108.0 142.0 L 109.0 142.0 L 110.0 142.0 L 111.0 142.0 L 112.0 142.0 L 112.0 142.0 L 113.0 142.0 L 114.0 142.0 L 116.0 142.0 L 117.0 142.0 L 118.0 142.0 L 119.0 142.0 L 121.0 142.0 L 122.0 141.0 L 124.0 141.0 L 125.0 141.0 L 127.0 141.0 L 129.0 141.0 L 131.0 141.0 L 133.0 141.0 L 136.0 141.0 L 138.0 141.0 L 141.0 141.0 L 144.0 141.0 L 146.0 141.0 L 148.0 141.0 L 151.0 140.0 L 153.0 140.0 L 155.0 140.0 L 157.0 139.0 L 159.0 139.0 L 162.0 139.0 L 165.0 138.0 L 168.0 138.0 L 171.0 138.0 L 174.0 137.0 L 178.0 137.0 L 181.0 137.0 L 185.0 137.0 L 188.0 137.0 L 191.0 137.0 L 194.0 137.0 L 196.0 137.0 L 198.0 137.0 L 200.0 137.0 L 202.0 136.0 L 203.0 135.0 L 205.0 134.0 " stroke="black" fill="none" stroke-width="5.0" stroke-linecap="round" stroke-linejoin="round" />
<path d="M 110.0 169.0 L 110.0 169.0 L 110.0 169.0 L 110.0 170.0 L 110.0 170.0 L 110.0 171.0 L 110.0 171.0 L 110.0 172.0 L 110.0 173.0 L 110.0 174.0 L 109.0 176.0 L 109.0 178.0 L 109.0 180.0 L 109.0 183.0 L 108.0 186.0 L 108.0 189.0 L 108.0 192.0 L 108.0 195.0 L 108.0 198.0 L 108.0 200.0 L 108.0 202.0 L 108.0 205.0 L 108.0 206.0 L 108.0 208.0 L 108.0 209.0 L 108.0 211.0 L 108.0 211.0 L 108.0 212.0 L 108.0 213.0 L 108.0 213.0 L 108.0 213.0 L 108.0 213.0 L 108.0 214.0 L 108.0 214.0 L 108.0 214.0 L 108.0 214.0 L 108.0 214.0 L 108.0 214.0 L 108.0 214.0 L 108.0 214.0 L 108.0 214.0 L 108.0 214.0 L 108.0 214.0 L 108.0 214.0 L 109.0 214.0 L 109.0 214.0 L 110.0 214.0 L 110.0 215.0 L 110.0 215.0 L 111.0 215.0 L 112.0 215.0 L 112.0 215.0 L 113.0 215.0 L 114.0 215.0 L 115.0 215.0 L 116.0 215.0 L 117.0 215.0 L 118.0 215.0 L 119.0 215.0 L 120.0 215.0 L 122.0 215.0 L 123.0 215.0 L 125.0 215.0 L 127.0 214.0 L 129.0 214.0 L 130.0 214.0 L 132.0 214.0 L 134.0 213.0 L 136.0 213.0 L 138.0 213.0 L 139.0 213.0 L 141.0 213.0 L 143.0 213.0 L 145.0 213.0 L 146.0 213.0 L 148.0 213.0 L 150.0 213.0 L 151.0 213.0 L 152.0 213.0 L 154.0 213.0 L 155.0 213.0 L 157.0 213.0 L 159.0 213.0 L 162.0 213.0 L 164.0 213.0 L 167.0 213.0 L 169.0 213.0 L 172.0 213.0 L 175.0 213.0 L 178.0 213.0 L 182.0 212.0 L 184.0 211.0 L 187.0 211.0 L 189.0 210.0 L 191.0 209.0 L 193.0 209.0 L 194.0 209.0 L 194.0 208.0 L 195.0 208.0 L 195.0 208.0 " stroke="black" fill="none" stroke-width="5.0" stroke-linecap="round" stroke-linejoin="round" />
<path d="M 147.0 145.0 L 147.0 145.0 L 147.0 145.0 L 147.0 145.0 L 147.0 146.0 L 147.0 146.0 L 147.0 147.0 L 147.0 149.0 L 147.0 152.0 L 147.0 157.0 L 146.0 164.0 L 146.0 173.0 L 145.0 184.0 L 145.0 194.0 L 144.0 203.0 L 144.0 210.0 L 144.0 214.0 L 145.0 216.0 L 146.0 216.0 " stroke="black" fill="none" stroke-width="5.0" stroke-linecap="round" stroke-linejoin="round" />
<path d="M 194.0 169.0 L 194.0 169.0 L 194.0 169.0 L 194.0 170.0 L 194.0 171.0 L 193.0 172.0 L 193.0 173.0 L 193.0 176.0 L 193.0 178.0 L 193.0 182.0 L 193.0 186.0 L 193.0 191.0 L 193.0 196.0 L 193.0 201.0 L 192.0 207.0 L 192.0 212.0 L 192.0 217.0 L 192.0 221.0 L 192.0 225.0 L 192.0 227.0 L 192.0 227.0 L 192.0 227.0 L 193.0 226.0 " stroke="black" fill="none" stroke-width="5.0" stroke-linecap="round" stroke-linejoin="round" />
</svg>