<svg xmlns="http://www.w3.org/2000/svg" width="300" height="300" viewBox="0 0 300 300">
<path d="M 149.0 111.0 L 149.0 111.0 L 148.0 111.0 L 148.0 111.0 L 147.0 111.0 L 147.0 111.0 L 146.0 111.0 L 146.0 111.0 L 145.0 111.0 L 145.0 111.0 L 145.0 111.0 L 144.0 111.0 L 144.0 112.0 L 144.0 113.0 L 144.0 114.0 L 144.0 115.0 L 144.0 116.0 L 144.0 117.0 L 145.0 118.0 L 146.0 118.0 L 147.0 119.0 L 148.0 119.0 L 150.0 118.0 L 151.0 117.0 L 151.0 116.0 L 152.0 115.0 L 152.0 114.0 L 152.0 112.0 L 152.0 111.0 L 152.0 110.0 L 151.0 110.0 L 150.0 109.0 L 149.0 109.0 L 148.0 109.0 L 147.0 110.0 L 147.0 111.0 L 146.0 112.0 L 146.0 114.0 L 146.0 115.0 L 146.0 117.0 L 147.0 118.0 L 148.0 118.0 L 149.0 118.0 L 151.0 118.0 L 152.0 118.0 L 154.0 117.0 L 155.0 116.0 L 156.0 114.0 L 156.0 113.0 L 156.0 111.0 L 156.0 110.0 L 155.0 109.0 L 154.0 108.0 L 153.0 107.0 L 151.0 107.0 L 150.0 107.0 L 149.0 107.0 L 148.0 107.0 L 147.0 108.0 L 146.0 110.0 L 146.0 112.0 L 146.0 114.0 L 146.0 116.0 L 146.0 118.0 L 147.0 119.0 L 149.0 120.0 L 150.0 120.0 L 152.0 120.0 L 153.0 120.0 L 155.0 119.0 L 156.0 118.0 L 157.0 116.0 L 157.0 114.0 L 157.0 113.0 L 157.0 112.0 L 156.0 110.0 L 155.0 109.0 L 153.0 109.0 L 152.0 108.0 L 150.0 108.0 L 149.0 108.0 L 148.0 108.0 L 147.0 109.0 L 146.0 111.0 L 146.0 112.0 L 146.0 114.0 L 146.0 115.0 L 146.0 117.0 L 146.0 118.0 L 148.0 119.0 L 149.0 119.0 L 150.0 119.0 L 152.0 119.0 L 154.0 118.0 L 155.0 117.0 L 156.0 116.0 L 156.0 114.0 L 157.0 113.0 L 157.0 112.0 L 157.0 111.0 L 156.0 110.0 L 155.0 109.0 L 153.0 109.0 L 152.0 108.0 L 150.0 108.0 L 149.0 108.0 L 148.0 108.0 L 147.0 109.0 L 147.0 111.0 L 147.0 112.0 L 147.0 114.0 L 147.0 115.0 L 147.0 116.0 L 148.0 117.0 L 149.0 118.0 L 150.0 118.0 L 151.0 118.0 L 152.0 117.0 L 152.0 116.0 L 153.0 114.0 L 153.0 113.0 L 153.0 111.0 L 153.0 110.0 L 153.0 109.0 L 153.0 108.0 L 152.0 107.0 L 151.0 107.0 L 150.0 107.0 L 148.0 107.0 L 147.0 107.0 L 146.0 108.0 L 145.0 110.0 L 144.0 113.0 L 143.0 115.0 L 143.0 118.0 L 143.0 121.0 L 143.0 123.0 L 144.0 124.0 L 146.0 125.0 L 148.0 125.0 L 150.0 125.0 L 152.0 124.0 L 153.0 122.0 L 155.0 120.0 L 155.0 118.0 L 155.0 116.0 L 155.0 114.0 L 155.0 113.0 L 154.0 111.0 L 153.0 111.0 L 151.0 110.0 L 150.0 109.0 L 149.0 109.0 L 147.0 109.0 L 146.0 110.0 L 146.0 111.0 L 145.0 112.0 L 145.0 114.0 L 145.0 116.0 L 145.0 117.0 L 145.0 119.0 L 146.0 119.0 L 148.0 120.0 L 149.0 120.0 L 150.0 120.0 L 151.0 119.0 L 152.0 118.0 L 153.0 116.0 L 154.0 114.0 L 154.0 113.0 L 154.0 111.0 L 154.0 110.0 L 153.0 109.0 L 152.0 107.0 L 151.0 106.0 L 149.0 105.0 L 148.0 105.0 L 147.0 105.0 L 146.0 105.0 L 145.0 106.0 L 144.0 108.0 L 144.0 111.0 L 144.0 114.0 L 144.0 117.0 L 145.0 119.0 L 147.0 120.0 L 148.0 121.0 L 150.0 122.0 L 152.0 122.0 L 154.0 121.0 L 155.0 120.0 L 156.0 118.0 L 156.0 116.0 L 156.0 114.0 L 156.0 112.0 L 156.0 111.0 L 155.0 109.0 L 153.0 108.0 L 152.0 107.0 L 150.0 106.0 L 149.0 106.0 L 147.0 106.0 L 146.0 106.0 L 145.0 106.0 L 144.0 107.0 L 143.0 109.0 L 143.0 111.0 L 142.0 113.0 L 142.0 114.0 L 143.0 116.0 L 143.0 117.0 L 144.0 117.0 L 146.0 118.0 L 147.0 118.0 L 148.0 117.0 L 149.0 116.0 L 150.0 114.0 L 151.0 113.0 L 151.0 111.0 L 151.0 109.0 L 151.0 108.0 L 151.0 107.0 L 150.0 106.0 L 149.0 106.0 L 147.0 105.0 L 146.0 105.0 L 145.0 106.0 L 144.0 108.0 L 144.0 109.0 L 144.0 111.0 L 144.0 113.0 L 144.0 114.0 L 144.0 116.0 L 144.0 117.0 L 145.0 118.0 L 146.0 118.0 L 146.0 118.0 L 147.0 118.0 L 148.0 118.0 L 148.0 117.0 L 148.0 116.0 L 148.0 116.0 L 147.0 115.0 L 147.0 114.0 L 146.0 113.0 L 145.0 113.0 L 145.0 112.0 L 145.0 112.0 L 144.0 112.0 " stroke="black" fill="none" stroke-width="5.0" stroke-linecap="round" stroke-linejoin="round" />
<path d="M 149.0 216.0 L 149.0 216.0 L 148.0 216.0 L 148.0 217.0 L 148.0 217.0 L 147.0 218.0 L 147.0 218.0 L 147.0 219.0 L 147.0 219.0 L 147.0 219.0 L 147.0 219.0 L 147.0 219.0 L 147.0 219.0 L 147.0 219.0 L 148.0 218.0 L 148.0 218.0 L 148.0 217.0 L 148.0 216.0 L 148.0 216.0 L 147.0 215.0 L 147.0 215.0 L 146.0 215.0 L 146.0 215.0 L 145.0 215.0 L 145.0 215.0 L 145.0 215.0 L 145.0 216.0 L 145.0 217.0 L 145.0 218.0 L 145.0 218.0 L 146.0 219.0 L 147.0 220.0 L 148.0 220.0 L 149.0 220.0 L 150.0 220.0 L 151.0 219.0 L 152.0 218.0 L 153.0 217.0 L 154.0 216.0 L 154.0 215.0 L 154.0 214.0 L 154.0 212.0 L 154.0 211.0 L 153.0 209.0 L 151.0 208.0 L 150.0 207.0 L 148.0 206.0 L 147.0 206.0 L 146.0 206.0 L 145.0 207.0 L 145.0 208.0 L 144.0 210.0 L 144.0 213.0 L 144.0 215.0 L 145.0 217.0 L 146.0 218.0 L 147.0 219.0 L 148.0 220.0 L 150.0 220.0 L 151.0 220.0 L 152.0 220.0 L 153.0 219.0 L 154.0 218.0 L 155.0 216.0 L 155.0 215.0 L 155.0 213.0 L 155.0 211.0 L 155.0 210.0 L 154.0 209.0 L 153.0 207.0 L 151.0 207.0 L 150.0 206.0 L 148.0 206.0 L 147.0 206.0 L 146.0 206.0 L 145.0 207.0 L 145.0 209.0 L 144.0 211.0 L 144.0 213.0 L 144.0 215.0 L 145.0 217.0 L 146.0 218.0 L 147.0 220.0 L 149.0 221.0 L 150.0 221.0 L 151.0 221.0 L 153.0 221.0 L 154.0 219.0 L 155.0 218.0 L 155.0 216.0 L 156.0 214.0 L 156.0 212.0 L 156.0 210.0 L 155.0 209.0 L 154.0 208.0 L 153.0 207.0 L 152.0 206.0 L 150.0 206.0 L 148.0 206.0 L 147.0 207.0 L 146.0 209.0 L 145.0 211.0 L 145.0 213.0 L 145.0 216.0 L 145.0 218.0 L 145.0 220.0 L 146.0 222.0 L 147.0 223.0 L 148.0 223.0 L 150.0 223.0 L 151.0 222.0 L 152.0 221.0 L 153.0 219.0 L 153.0 217.0 L 153.0 215.0 L 153.0 213.0 L 153.0 212.0 L 153.0 211.0 L 152.0 210.0 L 151.0 209.0 L 150.0 209.0 L 149.0 209.0 L 148.0 209.0 L 148.0 209.0 L 147.0 210.0 L 147.0 212.0 L 147.0 214.0 L 147.0 216.0 L 148.0 218.0 L 149.0 219.0 L 150.0 220.0 L 151.0 221.0 L 152.0 221.0 L 153.0 221.0 L 154.0 221.0 L 155.0 219.0 L 155.0 218.0 L 155.0 216.0 L 155.0 214.0 L 155.0 212.0 L 154.0 211.0 L 153.0 210.0 L 152.0 209.0 L 151.0 209.0 L 150.0 209.0 L 149.0 209.0 L 148.0 210.0 L 148.0 211.0 L 148.0 213.0 L 148.0 215.0 L 148.0 216.0 L 148.0 218.0 L 149.0 219.0 L 151.0 220.0 L 152.0 220.0 L 153.0 220.0 L 155.0 220.0 L 156.0 219.0 L 157.0 218.0 L 157.0 216.0 L 157.0 215.0 L 157.0 213.0 L 157.0 212.0 L 156.0 211.0 L 154.0 209.0 L 152.0 209.0 L 151.0 208.0 L 149.0 207.0 L 147.0 207.0 L 146.0 207.0 L 144.0 207.0 L 143.0 208.0 L 142.0 210.0 L 141.0 212.0 L 141.0 214.0 L 141.0 216.0 L 142.0 219.0 L 143.0 220.0 L 145.0 222.0 L 147.0 222.0 L 150.0 222.0 L 152.0 221.0 L 154.0 219.0 L 156.0 217.0 L 157.0 215.0 L 158.0 212.0 L 158.0 211.0 L 158.0 209.0 L 158.0 207.0 L 156.0 206.0 L 155.0 206.0 L 153.0 205.0 L 152.0 204.0 L 150.0 204.0 L 149.0 204.0 L 148.0 204.0 L 147.0 204.0 L 146.0 205.0 L 146.0 206.0 L 145.0 208.0 L 145.0 211.0 L 145.0 213.0 L 146.0 215.0 L 147.0 217.0 L 148.0 218.0 L 149.0 219.0 L 151.0 219.0 L 152.0 219.0 L 154.0 219.0 L 156.0 218.0 L 157.0 216.0 L 158.0 214.0 L 158.0 213.0 L 159.0 211.0 L 159.0 209.0 L 158.0 207.0 L 157.0 206.0 L 155.0 205.0 L 153.0 204.0 L 152.0 204.0 L 150.0 204.0 L 149.0 204.0 L 148.0 205.0 L 148.0 207.0 L 148.0 209.0 L 148.0 211.0 L 148.0 213.0 L 148.0 215.0 L 149.0 217.0 L 150.0 218.0 L 151.0 218.0 L 152.0 218.0 L 153.0 218.0 L 154.0 217.0 L 155.0 216.0 L 156.0 214.0 L 156.0 213.0 L 157.0 211.0 L 157.0 210.0 L 157.0 209.0 L 157.0 209.0 L 157.0 208.0 L 157.0 208.0 L 156.0 208.0 L 156.0 208.0 L 156.0 208.0 L 155.0 209.0 L 155.0 210.0 " stroke="black" fill="none" stroke-width="5.0" stroke-linecap="round" stroke-linejoin="round" />
</svg>