<svg xmlns="http://www.w3.org/2000/svg" width="300" height="300" viewBox="0 0 300 300">
<path d="M 68.0 84.0 L 68.0 84.0 L 68.0 84.0 L 68.0 84.0 L 68.0 84.0 L 68.0 84.0 L 68.0 84.0 L 68.0 84.0 L 68.0 84.0 L 68.0 84.0 L 68.0 84.0 L 68.0 84.0 L 68.0 84.0 L 68.0 84.0 L 68.0 84.0 L 68.0 84.0 L 68.0 83.0 L 68.0 83.0 L 68.0 83.0 L 69.0 83.0 L 69.0 83.0 L 69.0 83.0 L 69.0 83.0 L 70.0 83.0 L 70.0 83.0 L 71.0 83.0 L 72.0 83.0 L 72.0 83.0 L 73.0 83.0 L 74.0 83.0 L 75.0 83.0 L 76.0 83.0 L 77.0 83.0 L 78.0 83.0 L 79.0 84.0 L 80.0 84.0 L 81.0 84.0 L 82.0 84.0 L 82.0 84.0 L 83.0 84.0 L 84.0 84.0 L 85.0 84.0 L 86.0 84.0 L 87.0 84.0 L 87.0 84.0 L 88.0 84.0 L 89.0 85.0 L 90.0 85.0 L 91.0 85.0 L 91.0 85.0 L 92.0 85.0 L 93.0 85.0 L 93.0 85.0 L 94.0 85.0 L 95.0 85.0 L 95.0 86.0 L 96.0 86.0 L 97.0 86.0 L 97.0 86.0 L 98.0 86.0 L 99.0 86.0 L 99.0 86.0 L 100.0 86.0 L 101.0 86.0 L 101.0 86.0 L 102.0 86.0 L 103.0 86.0 L 103.0 86.0 L 104.0 86.0 L 105.0 86.0 L 105.0 86.0 L 106.0 86.0 L 107.0 86.0 L 108.0 86.0 L 109.0 86.0 L 110.0 86.0 L 112.0 85.0 L 113.0 85.0 L 114.0 85.0 L 116.0 85.0 L 117.0 85.0 L 119.0 84.0 L 121.0 84.0 L 122.0 84.0 L 124.0 84.0 L 125.0 84.0 L 126.0 84.0 " stroke="black" fill="none" stroke-width="5.0" stroke-linecap="round" stroke-linejoin="round" />
<path d="M 72.0 116.0 L 72.0 116.0 L 72.0 116.0 L 72.0 116.0 L 72.0 115.0 L 72.0 115.0 L 72.0 115.0 L 72.0 115.0 L 72.0 115.0 L 73.0 115.0 L 74.0 115.0 L 76.0 115.0 L 80.0 115.0 L 84.0 115.0 L 90.0 115.0 L 95.0 115.0 L 101.0 115.0 L 107.0 115.0 L 112.0 115.0 L 117.0 115.0 L 121.0 114.0 L 124.0 114.0 L 128.0 113.0 L 129.0 113.0 L 130.0 113.0 " stroke="black" fill="none" stroke-width="5.0" stroke-linecap="round" stroke-linejoin="round" />
<path d="M 101.0 94.0 L 101.0 94.0 L 101.0 94.0 L 100.0 94.0 L 100.0 94.0 L 100.0 94.0 L 99.0 95.0 L 99.0 96.0 L 98.0 99.0 L 98.0 102.0 L 98.0 106.0 L 98.0 111.0 L 98.0 116.0 L 98.0 121.0 L 98.0 126.0 L 98.0 131.0 L 98.0 135.0 L 97.0 138.0 L 97.0 141.0 L 97.0 142.0 " stroke="black" fill="none" stroke-width="5.0" stroke-linecap="round" stroke-linejoin="round" />
<path d="M 71.0 152.0 L 71.0 152.0 L 70.0 152.0 L 70.0 153.0 L 69.0 153.0 L 69.0 153.0 L 69.0 153.0 L 69.0 153.0 L 69.0 153.0 L 69.0 153.0 L 71.0 153.0 L 73.0 153.0 L 77.0 152.0 L 82.0 151.0 L 87.0 150.0 L 93.0 148.0 L 99.0 147.0 L 105.0 144.0 L 111.0 142.0 L 116.0 139.0 L 121.0 137.0 L 126.0 135.0 " stroke="black" fill="none" stroke-width="5.0" stroke-linecap="round" stroke-linejoin="round" />
<path d="M 195.0 71.0 L 195.0 71.0 L 195.0 71.0 L 195.0 71.0 L 195.0 71.0 L 195.0 70.0 L 195.0 70.0 L 195.0 70.0 L 195.0 70.0 L 195.0 71.0 L 195.0 72.0 L 194.0 73.0 L 193.0 75.0 L 191.0 78.0 L 189.0 80.0 L 187.0 83.0 L 185.0 85.0 L 184.0 86.0 " stroke="black" fill="none" stroke-width="5.0" stroke-linecap="round" stroke-linejoin="round" />
<path d="M 158.0 87.0 L 158.0 87.0 L 158.0 87.0 L 158.0 88.0 L 159.0 88.0 L 159.0 88.0 L 159.0 88.0 L 159.0 89.0 L 159.0 89.0 L 159.0 90.0 L 159.0 91.0 L 159.0 93.0 L 159.0 95.0 L 159.0 98.0 L 159.0 102.0 L 159.0 107.0 L 159.0 112.0 L 158.0 117.0 L 158.0 122.0 L 157.0 128.0 L 156.0 133.0 L 155.0 138.0 L 155.0 143.0 L 154.0 146.0 " stroke="black" fill="none" stroke-width="5.0" stroke-linecap="round" stroke-linejoin="round" />
<path d="M 164.0 87.0 L 164.0 87.0 L 164.0 87.0 L 164.0 88.0 L 164.0 88.0 L 164.0 88.0 L 164.0 89.0 L 164.0 89.0 L 163.0 89.0 L 163.0 89.0 L 163.0 89.0 L 163.0 90.0 L 163.0 90.0 L 163.0 90.0 L 163.0 90.0 L 163.0 90.0 L 163.0 90.0 L 163.0 90.0 L 163.0 90.0 L 164.0 90.0 L 164.0 90.0 L 165.0 90.0 L 165.0 90.0 L 166.0 90.0 L 167.0 90.0 L 168.0 90.0 L 169.0 90.0 L 170.0 89.0 L 171.0 89.0 L 173.0 89.0 L 174.0 89.0 L 175.0 89.0 L 176.0 89.0 L 177.0 89.0 L 178.0 89.0 L 180.0 89.0 L 181.0 89.0 L 182.0 89.0 L 182.0 89.0 L 183.0 88.0 L 184.0 88.0 L 185.0 88.0 L 185.0 88.0 L 185.0 88.0 L 186.0 88.0 L 186.0 88.0 L 187.0 88.0 L 187.0 88.0 L 187.0 88.0 L 187.0 88.0 L 188.0 88.0 L 188.0 88.0 L 188.0 88.0 L 189.0 88.0 L 189.0 88.0 L 189.0 88.0 L 190.0 88.0 L 190.0 88.0 L 191.0 88.0 L 191.0 88.0 L 191.0 88.0 L 192.0 88.0 L 192.0 88.0 L 193.0 88.0 L 193.0 88.0 L 193.0 88.0 L 194.0 88.0 L 194.0 88.0 L 194.0 88.0 L 195.0 88.0 L 195.0 88.0 L 196.0 88.0 L 196.0 88.0 L 197.0 88.0 L 198.0 88.0 L 198.0 88.0 L 199.0 88.0 L 200.0 88.0 L 200.0 88.0 L 201.0 88.0 L 202.0 87.0 L 203.0 87.0 L 204.0 87.0 L 205.0 87.0 L 206.0 87.0 L 207.0 87.0 L 208.0 87.0 L 209.0 87.0 L 209.0 87.0 L 210.0 87.0 L 211.0 87.0 L 211.0 87.0 L 212.0 87.0 L 212.0 87.0 L 213.0 87.0 L 214.0 87.0 L 214.0 87.0 L 214.0 87.0 L 215.0 87.0 L 215.0 87.0 L 216.0 87.0 L 216.0 87.0 L 216.0 87.0 L 216.0 87.0 L 217.0 88.0 L 217.0 88.0 L 217.0 88.0 L 217.0 88.0 L 218.0 89.0 L 218.0 89.0 L 218.0 89.0 L 218.0 90.0 L 218.0 90.0 L 219.0 91.0 L 219.0 91.0 L 219.0 92.0 L 219.0 93.0 L 219.0 93.0 L 220.0 94.0 L 220.0 95.0 L 220.0 96.0 L 220.0 97.0 L 220.0 99.0 L 220.0 101.0 L 220.0 103.0 L 220.0 106.0 L 220.0 109.0 L 220.0 113.0 L 220.0 116.0 L 220.0 120.0 L 220.0 124.0 L 220.0 128.0 L 219.0 132.0 L 219.0 136.0 L 219.0 139.0 L 219.0 142.0 L 219.0 145.0 L 219.0 147.0 L 219.0 147.0 L 219.0 148.0 L 219.0 148.0 L 219.0 148.0 L 219.0 148.0 L 218.0 148.0 " stroke="black" fill="none" stroke-width="5.0" stroke-linecap="round" stroke-linejoin="round" />
<path d="M 167.0 119.0 L 167.0 119.0 L 167.0 119.0 L 166.0 119.0 L 166.0 119.0 L 165.0 119.0 L 165.0 119.0 L 165.0 119.0 L 164.0 118.0 L 164.0 118.0 L 164.0 118.0 L 164.0 118.0 L 166.0 118.0 L 168.0 118.0 L 172.0 118.0 L 176.0 118.0 L 180.0 118.0 L 185.0 118.0 L 190.0 118.0 L 194.0 118.0 L 198.0 118.0 L 202.0 118.0 L 206.0 118.0 L 209.0 118.0 L 212.0 118.0 L 214.0 117.0 L 215.0 117.0 " stroke="black" fill="none" stroke-width="5.0" stroke-linecap="round" stroke-linejoin="round" />
<path d="M 161.0 149.0 L 161.0 149.0 L 161.0 148.0 L 161.0 148.0 L 161.0 148.0 L 161.0 148.0 L 161.0 147.0 L 161.0 147.0 L 162.0 147.0 L 163.0 147.0 L 164.0 147.0 L 167.0 147.0 L 170.0 147.0 L 175.0 147.0 L 180.0 147.0 L 185.0 147.0 L 190.0 147.0 L 194.0 147.0 L 198.0 147.0 L 202.0 147.0 L 205.0 148.0 L 208.0 148.0 L 211.0 148.0 L 213.0 148.0 L 214.0 148.0 " stroke="black" fill="none" stroke-width="5.0" stroke-linecap="round" stroke-linejoin="round" />
<path d="M 73.0 178.0 L 73.0 178.0 L 73.0 178.0 L 73.0 178.0 L 73.0 178.0 L 73.0 179.0 L 73.0 179.0 L 73.0 180.0 L 72.0 180.0 L 72.0 181.0 " stroke="black" fill="none" stroke-width="5.0" stroke-linecap="round" stroke-linejoin="round" />
<path d="M 67.0 180.0 L 67.0 180.0 L 67.0 180.0 L 67.0 180.0 L 67.0 180.0 L 67.0 180.0 L 67.0 180.0 L 66.0 180.0 L 66.0 180.0 L 66.0 180.0 L 66.0 180.0 L 66.0 180.0 L 67.0 180.0 L 67.0 180.0 L 68.0 180.0 L 69.0 180.0 L 71.0 180.0 L 72.0 179.0 L 73.0 179.0 L 75.0 179.0 L 77.0 179.0 L 79.0 178.0 L 81.0 178.0 L 83.0 178.0 L 84.0 178.0 L 86.0 177.0 L 87.0 177.0 L 89.0 177.0 L 90.0 177.0 L 91.0 177.0 L 92.0 177.0 L 93.0 177.0 L 94.0 177.0 L 95.0 177.0 L 96.0 177.0 L 97.0 177.0 L 98.0 177.0 L 99.0 177.0 L 100.0 177.0 L 101.0 177.0 L 101.0 177.0 L 102.0 177.0 L 103.0 177.0 L 103.0 177.0 L 104.0 177.0 L 105.0 177.0 L 105.0 177.0 L 106.0 177.0 L 106.0 177.0 L 107.0 177.0 L 107.0 177.0 L 108.0 177.0 L 108.0 177.0 L 109.0 177.0 L 109.0 177.0 L 110.0 177.0 L 110.0 177.0 L 111.0 177.0 L 112.0 177.0 L 112.0 177.0 L 113.0 177.0 L 113.0 177.0 L 114.0 177.0 L 114.0 177.0 L 115.0 177.0 L 116.0 177.0 L 116.0 177.0 L 117.0 177.0 L 118.0 177.0 L 118.0 177.0 L 119.0 177.0 L 120.0 177.0 L 121.0 177.0 L 122.0 177.0 L 123.0 177.0 L 123.0 177.0 L 125.0 177.0 L 125.0 177.0 L 126.0 177.0 L 128.0 177.0 L 129.0 177.0 L 130.0 177.0 L 131.0 177.0 L 132.0 177.0 L 133.0 177.0 L 134.0 177.0 L 135.0 177.0 L 136.0 177.0 L 137.0 177.0 L 138.0 177.0 L 139.0 177.0 L 140.0 177.0 L 141.0 177.0 L 142.0 177.0 L 143.0 177.0 L 144.0 177.0 L 144.0 177.0 L 145.0 177.0 L 146.0 177.0 L 147.0 177.0 L 147.0 177.0 L 148.0 177.0 L 149.0 177.0 L 149.0 177.0 L 150.0 177.0 L 150.0 177.0 L 151.0 177.0 L 151.0 177.0 L 151.0 177.0 L 152.0 177.0 L 152.0 177.0 L 153.0 177.0 L 153.0 177.0 L 153.0 177.0 L 154.0 177.0 L 154.0 177.0 L 155.0 177.0 L 155.0 177.0 L 155.0 177.0 L 156.0 177.0 L 156.0 177.0 L 157.0 177.0 L 157.0 177.0 L 158.0 177.0 L 159.0 177.0 L 159.0 177.0 L 160.0 177.0 L 160.0 177.0 L 161.0 177.0 L 162.0 177.0 L 162.0 177.0 L 163.0 177.0 L 164.0 177.0 L 165.0 177.0 L 166.0 177.0 L 168.0 177.0 L 169.0 177.0 L 171.0 177.0 L 172.0 177.0 L 173.0 177.0 L 175.0 177.0 L 176.0 177.0 L 177.0 177.0 L 178.0 177.0 L 180.0 177.0 L 181.0 177.0 L 182.0 177.0 L 183.0 177.0 L 184.0 177.0 L 185.0 177.0 L 186.0 177.0 L 187.0 177.0 L 188.0 177.0 L 189.0 177.0 L 190.0 177.0 L 191.0 178.0 L 192.0 178.0 L 193.0 178.0 L 194.0 178.0 L 195.0 178.0 L 196.0 178.0 L 197.0 179.0 L 198.0 179.0 L 199.0 179.0 L 201.0 179.0 L 202.0 179.0 L 203.0 179.0 L 205.0 179.0 L 207.0 179.0 L 210.0 179.0 L 213.0 179.0 L 216.0 178.0 L 219.0 177.0 L 222.0 177.0 L 224.0 177.0 L 225.0 177.0 L 225.0 178.0 L 225.0 179.0 " stroke="black" fill="none" stroke-width="5.0" stroke-linecap="round" stroke-linejoin="round" />
<path d="M 120.0 186.0 L 120.0 186.0 L 120.0 186.0 L 120.0 186.0 L 120.0 186.0 L 120.0 186.0 L 120.0 186.0 L 121.0 186.0 L 121.0 186.0 L 121.0 186.0 L 121.0 186.0 L 121.0 186.0 L 121.0 186.0 L 121.0 186.0 L 121.0 186.0 L 121.0 186.0 L 121.0 187.0 L 120.0 188.0 L 119.0 189.0 L 118.0 191.0 L 117.0 192.0 L 115.0 194.0 L 113.0 196.0 L 111.0 199.0 L 109.0 201.0 L 107.0 204.0 L 105.0 207.0 L 103.0 210.0 L 100.0 212.0 L 97.0 215.0 L 93.0 218.0 L 89.0 221.0 L 84.0 223.0 L 79.0 226.0 L 75.0 229.0 L 72.0 230.0 L 69.0 232.0 L 68.0 233.0 L 67.0 233.0 L 67.0 233.0 L 67.0 233.0 " stroke="black" fill="none" stroke-width="5.0" stroke-linecap="round" stroke-linejoin="round" />
<path d="M 107.0 207.0 L 107.0 207.0 L 107.0 207.0 L 107.0 207.0 L 107.0 207.0 L 107.0 207.0 L 107.0 207.0 L 107.0 207.0 L 107.0 208.0 L 107.0 210.0 L 107.0 213.0 L 107.0 218.0 L 107.0 224.0 L 107.0 231.0 L 107.0 237.0 L 107.0 242.0 L 107.0 246.0 L 107.0 248.0 L 107.0 249.0 L 107.0 249.0 " stroke="black" fill="none" stroke-width="5.0" stroke-linecap="round" stroke-linejoin="round" />
<path d="M 112.0 208.0 L 112.0 208.0 L 112.0 208.0 L 112.0 208.0 L 112.0 208.0 L 112.0 207.0 L 112.0 207.0 L 112.0 207.0 L 112.0 207.0 L 112.0 207.0 L 112.0 207.0 L 112.0 207.0 L 112.0 207.0 L 112.0 207.0 L 112.0 207.0 L 112.0 207.0 L 112.0 207.0 L 112.0 207.0 L 112.0 207.0 L 112.0 207.0 L 113.0 207.0 L 114.0 207.0 L 115.0 207.0 L 117.0 207.0 L 118.0 207.0 L 120.0 207.0 L 122.0 207.0 L 124.0 207.0 L 126.0 207.0 L 128.0 207.0 L 130.0 207.0 L 132.0 207.0 L 134.0 207.0 L 136.0 207.0 L 138.0 207.0 L 140.0 207.0 L 142.0 207.0 L 143.0 207.0 L 145.0 207.0 L 146.0 207.0 L 147.0 207.0 L 148.0 207.0 L 149.0 207.0 L 150.0 207.0 L 150.0 207.0 L 151.0 206.0 L 151.0 206.0 L 152.0 206.0 L 152.0 206.0 L 153.0 206.0 L 153.0 206.0 L 154.0 206.0 L 154.0 206.0 L 155.0 206.0 L 156.0 205.0 L 156.0 205.0 L 157.0 205.0 L 158.0 205.0 L 158.0 205.0 L 159.0 205.0 L 160.0 205.0 L 161.0 205.0 L 162.0 204.0 L 163.0 204.0 L 164.0 204.0 L 164.0 204.0 L 165.0 204.0 L 166.0 204.0 L 167.0 204.0 L 168.0 204.0 L 168.0 204.0 L 169.0 204.0 L 170.0 204.0 L 171.0 204.0 L 171.0 204.0 L 172.0 204.0 L 173.0 205.0 L 173.0 205.0 L 174.0 205.0 L 175.0 205.0 L 175.0 205.0 L 176.0 205.0 L 177.0 206.0 L 178.0 206.0 L 178.0 206.0 L 180.0 206.0 L 181.0 206.0 L 182.0 206.0 L 183.0 206.0 L 185.0 206.0 L 186.0 206.0 L 187.0 206.0 L 189.0 206.0 L 190.0 206.0 L 191.0 206.0 L 192.0 207.0 L 193.0 207.0 L 193.0 207.0 L 194.0 207.0 L 195.0 207.0 L 196.0 207.0 L 196.0 207.0 L 197.0 207.0 L 198.0 207.0 L 198.0 207.0 L 199.0 207.0 L 200.0 207.0 L 200.0 207.0 L 201.0 207.0 L 202.0 207.0 L 202.0 207.0 L 203.0 207.0 L 204.0 207.0 L 205.0 207.0 L 206.0 207.0 L 207.0 207.0 L 207.0 207.0 L 208.0 207.0 L 209.0 207.0 L 210.0 208.0 L 211.0 208.0 L 211.0 208.0 L 212.0 208.0 L 213.0 208.0 L 213.0 208.0 L 214.0 208.0 L 214.0 208.0 L 215.0 209.0 L 216.0 209.0 L 216.0 209.0 L 216.0 209.0 L 217.0 209.0 L 217.0 209.0 L 217.0 209.0 L 217.0 210.0 L 217.0 210.0 L 217.0 211.0 L 217.0 212.0 L 217.0 214.0 L 217.0 215.0 L 217.0 218.0 L 216.0 221.0 L 216.0 224.0 L 215.0 227.0 L 214.0 231.0 L 214.0 234.0 L 213.0 237.0 L 212.0 240.0 L 212.0 243.0 L 211.0 245.0 L 211.0 247.0 L 210.0 248.0 L 210.0 249.0 " stroke="black" fill="none" stroke-width="5.0" stroke-linecap="round" stroke-linejoin="round" />
<path d="M 108.0 246.0 L 108.0 246.0 L 108.0 246.0 L 108.0 246.0 L 108.0 246.0 L 108.0 246.0 L 108.0 246.0 L 107.0 246.0 L 107.0 246.0 L 107.0 246.0 L 107.0 246.0 L 107.0 246.0 L 107.0 246.0 L 108.0 246.0 L 109.0 246.0 L 110.0 246.0 L 111.0 246.0 L 113.0 246.0 L 114.0 245.0 L 116.0 245.0 L 118.0 245.0 L 119.0 245.0 L 120.0 245.0 L 122.0 245.0 L 123.0 245.0 L 124.0 245.0 L 125.0 245.0 L 127.0 245.0 L 128.0 245.0 L 130.0 245.0 L 131.0 245.0 L 133.0 245.0 L 135.0 245.0 L 136.0 245.0 L 138.0 245.0 L 139.0 245.0 L 141.0 245.0 L 142.0 245.0 L 144.0 245.0 L 146.0 245.0 L 148.0 245.0 L 150.0 245.0 L 152.0 245.0 L 155.0 245.0 L 157.0 245.0 L 160.0 245.0 L 163.0 245.0 L 166.0 245.0 L 169.0 245.0 L 173.0 245.0 L 176.0 245.0 L 179.0 245.0 L 182.0 245.0 L 185.0 245.0 L 187.0 245.0 L 190.0 245.0 L 193.0 245.0 L 194.0 245.0 L 196.0 245.0 L 198.0 245.0 L 200.0 245.0 L 201.0 245.0 L 203.0 244.0 L 204.0 244.0 L 205.0 244.0 L 206.0 244.0 L 207.0 244.0 L 207.0 244.0 " stroke="black" fill="none" stroke-width="5.0" stroke-linecap="round" stroke-linejoin="round" />
</svg>