<svg xmlns="http://www.w3.org/2000/svg" width="300" height="300" viewBox="0 0 300 300">
<path d="M 104.0 73.0 L 104.0 73.0 L 104.0 73.0 L 104.0 73.0 L 104.0 73.0 L 103.0 73.0 L 103.0 73.0 L 103.0 73.0 L 103.0 73.0 L 102.0 73.0 L 101.0 75.0 L 100.0 77.0 L 99.0 79.0 L 97.0 82.0 L 93.0 87.0 L 88.0 92.0 L 82.0 99.0 L 75.0 105.0 L 69.0 111.0 L 65.0 115.0 L 64.0 116.0 " stroke="black" fill="none" stroke-width="5.0" stroke-linecap="round" stroke-linejoin="round" />
<path d="M 106.0 119.0 L 106.0 119.0 L 106.0 119.0 L 106.0 119.0 L 106.0 118.0 L 106.0 118.0 L 106.0 118.0 L 106.0 117.0 L 106.0 117.0 L 106.0 117.0 L 106.0 117.0 L 106.0 117.0 L 106.0 118.0 L 105.0 119.0 L 104.0 121.0 L 103.0 123.0 L 102.0 126.0 L 100.0 129.0 L 98.0 133.0 L 94.0 138.0 L 90.0 144.0 L 85.0 150.0 L 80.0 156.0 L 75.0 161.0 L 71.0 166.0 L 68.0 169.0 L 65.0 171.0 L 63.0 173.0 L 62.0 174.0 " stroke="black" fill="none" stroke-width="5.0" stroke-linecap="round" stroke-linejoin="round" />
<path d="M 92.0 153.0 L 92.0 153.0 L 92.0 153.0 L 92.0 153.0 L 92.0 153.0 L 92.0 153.0 L 92.0 153.0 L 92.0 153.0 L 92.0 152.0 L 92.0 152.0 L 92.0 152.0 L 92.0 152.0 L 92.0 152.0 L 92.0 152.0 L 92.0 153.0 L 92.0 154.0 L 92.0 155.0 L 92.0 157.0 L 92.0 159.0 L 92.0 161.0 L 92.0 164.0 L 93.0 166.0 L 93.0 169.0 L 93.0 172.0 L 93.0 175.0 L 93.0 179.0 L 93.0 183.0 L 93.0 186.0 L 92.0 190.0 L 92.0 193.0 L 92.0 196.0 L 91.0 199.0 L 91.0 202.0 L 91.0 204.0 L 91.0 207.0 L 91.0 209.0 L 91.0 212.0 L 91.0 214.0 L 91.0 217.0 L 91.0 219.0 L 91.0 221.0 L 91.0 224.0 L 91.0 226.0 L 91.0 229.0 L 91.0 231.0 L 91.0 233.0 L 91.0 235.0 L 91.0 236.0 L 91.0 238.0 L 91.0 239.0 L 91.0 240.0 L 91.0 241.0 L 91.0 241.0 L 91.0 241.0 L 91.0 241.0 L 91.0 241.0 L 91.0 241.0 " stroke="black" fill="none" stroke-width="5.0" stroke-linecap="round" stroke-linejoin="round" />
<path d="M 171.0 78.0 L 171.0 78.0 L 172.0 78.0 L 172.0 78.0 L 173.0 77.0 L 173.0 77.0 L 173.0 77.0 L 173.0 77.0 L 173.0 77.0 L 174.0 77.0 L 174.0 77.0 L 174.0 77.0 L 174.0 77.0 L 173.0 77.0 L 173.0 77.0 L 171.0 78.0 L 170.0 79.0 L 168.0 81.0 L 166.0 82.0 L 164.0 85.0 L 161.0 87.0 L 159.0 89.0 L 156.0 92.0 L 154.0 95.0 L 152.0 97.0 L 150.0 100.0 L 149.0 102.0 L 148.0 103.0 L 146.0 105.0 L 145.0 107.0 L 143.0 108.0 L 142.0 109.0 L 141.0 110.0 L 140.0 111.0 L 139.0 111.0 L 138.0 111.0 L 137.0 112.0 L 137.0 112.0 L 137.0 112.0 L 136.0 112.0 L 136.0 112.0 L 136.0 112.0 L 136.0 113.0 L 135.0 113.0 L 135.0 113.0 L 135.0 113.0 L 135.0 113.0 L 135.0 114.0 L 135.0 114.0 L 134.0 114.0 L 134.0 114.0 L 134.0 114.0 L 134.0 115.0 L 134.0 115.0 L 134.0 115.0 L 134.0 115.0 L 134.0 115.0 L 134.0 116.0 L 135.0 116.0 L 135.0 116.0 L 135.0 116.0 L 136.0 116.0 L 137.0 116.0 L 137.0 116.0 L 138.0 117.0 L 139.0 117.0 L 141.0 117.0 L 142.0 117.0 L 143.0 117.0 L 145.0 117.0 L 147.0 117.0 L 149.0 117.0 L 151.0 117.0 L 154.0 117.0 L 157.0 117.0 L 160.0 117.0 L 162.0 117.0 L 164.0 117.0 L 166.0 117.0 L 167.0 117.0 L 168.0 117.0 L 168.0 117.0 L 169.0 117.0 L 169.0 117.0 L 170.0 117.0 " stroke="black" fill="none" stroke-width="5.0" stroke-linecap="round" stroke-linejoin="round" />
<path d="M 204.0 92.0 L 204.0 92.0 L 205.0 91.0 L 206.0 91.0 L 206.0 90.0 L 206.0 90.0 L 206.0 89.0 L 206.0 89.0 L 206.0 89.0 L 206.0 90.0 L 205.0 91.0 L 205.0 91.0 L 204.0 93.0 L 202.0 94.0 L 201.0 96.0 L 200.0 97.0 L 198.0 99.0 L 196.0 102.0 L 194.0 104.0 L 192.0 107.0 L 189.0 109.0 L 186.0 112.0 L 183.0 114.0 L 180.0 117.0 L 177.0 119.0 L 174.0 121.0 L 171.0 122.0 L 169.0 124.0 L 166.0 125.0 L 164.0 126.0 L 161.0 128.0 L 159.0 129.0 L 157.0 130.0 L 155.0 132.0 L 153.0 133.0 L 152.0 134.0 L 150.0 135.0 L 149.0 137.0 L 148.0 137.0 L 147.0 139.0 L 146.0 140.0 L 145.0 141.0 L 144.0 142.0 L 143.0 143.0 L 143.0 143.0 L 142.0 144.0 L 141.0 145.0 L 141.0 145.0 L 141.0 146.0 L 140.0 146.0 L 140.0 146.0 L 139.0 147.0 L 139.0 147.0 L 138.0 147.0 L 138.0 148.0 L 138.0 148.0 L 137.0 148.0 L 137.0 148.0 L 137.0 148.0 L 136.0 148.0 L 136.0 149.0 L 136.0 149.0 L 136.0 149.0 L 136.0 149.0 L 136.0 149.0 L 136.0 149.0 L 136.0 149.0 L 136.0 149.0 L 136.0 149.0 L 136.0 149.0 L 136.0 150.0 L 136.0 150.0 L 136.0 150.0 L 136.0 150.0 L 136.0 150.0 L 137.0 150.0 L 138.0 150.0 L 138.0 150.0 L 139.0 150.0 L 140.0 150.0 L 141.0 150.0 L 142.0 150.0 L 143.0 150.0 L 144.0 150.0 L 146.0 150.0 L 147.0 150.0 L 149.0 150.0 L 150.0 150.0 L 152.0 150.0 L 153.0 150.0 L 155.0 150.0 L 157.0 150.0 L 159.0 150.0 L 161.0 150.0 L 164.0 150.0 L 168.0 150.0 L 171.0 149.0 L 175.0 148.0 L 178.0 148.0 L 181.0 148.0 L 184.0 147.0 L 186.0 147.0 L 188.0 147.0 L 191.0 146.0 L 193.0 146.0 L 194.0 146.0 L 197.0 146.0 L 198.0 146.0 L 201.0 145.0 L 203.0 145.0 L 205.0 144.0 L 207.0 144.0 L 209.0 143.0 L 210.0 143.0 L 211.0 143.0 L 212.0 142.0 L 212.0 142.0 L 212.0 142.0 L 212.0 142.0 L 211.0 142.0 L 211.0 142.0 L 210.0 142.0 L 210.0 142.0 " stroke="black" fill="none" stroke-width="5.0" stroke-linecap="round" stroke-linejoin="round" />
<path d="M 204.0 128.0 L 204.0 128.0 L 204.0 128.0 L 204.0 128.0 L 204.0 128.0 L 204.0 128.0 L 203.0 128.0 L 203.0 128.0 L 203.0 128.0 L 202.0 128.0 L 202.0 128.0 L 202.0 128.0 L 202.0 128.0 L 202.0 128.0 L 202.0 128.0 L 202.0 128.0 L 202.0 129.0 L 202.0 129.0 L 203.0 130.0 L 204.0 131.0 L 206.0 132.0 L 208.0 133.0 L 210.0 134.0 L 213.0 136.0 L 216.0 137.0 L 218.0 139.0 L 221.0 140.0 L 223.0 141.0 L 225.0 143.0 L 227.0 144.0 L 228.0 146.0 L 230.0 147.0 L 231.0 149.0 L 231.0 150.0 L 232.0 152.0 L 232.0 153.0 L 233.0 154.0 L 233.0 155.0 L 233.0 155.0 L 234.0 155.0 L 234.0 155.0 L 235.0 155.0 " stroke="black" fill="none" stroke-width="5.0" stroke-linecap="round" stroke-linejoin="round" />
<path d="M 164.0 156.0 L 164.0 156.0 L 164.0 156.0 L 164.0 156.0 L 165.0 156.0 L 165.0 156.0 L 165.0 156.0 L 165.0 156.0 L 165.0 156.0 L 165.0 157.0 L 165.0 158.0 L 164.0 160.0 L 163.0 162.0 L 161.0 165.0 L 158.0 168.0 L 156.0 172.0 L 153.0 177.0 L 150.0 182.0 L 146.0 187.0 L 142.0 192.0 L 138.0 196.0 L 134.0 199.0 L 130.0 202.0 L 125.0 203.0 L 121.0 203.0 " stroke="black" fill="none" stroke-width="5.0" stroke-linecap="round" stroke-linejoin="round" />
<path d="M 158.0 174.0 L 158.0 174.0 L 158.0 174.0 L 157.0 174.0 L 157.0 175.0 L 156.0 175.0 L 156.0 175.0 L 155.0 175.0 L 155.0 175.0 L 155.0 176.0 L 155.0 176.0 L 155.0 176.0 L 155.0 176.0 L 155.0 176.0 L 155.0 176.0 L 155.0 176.0 L 156.0 176.0 L 157.0 176.0 L 158.0 176.0 L 160.0 176.0 L 162.0 177.0 L 164.0 177.0 L 166.0 177.0 L 169.0 177.0 L 173.0 177.0 L 176.0 177.0 L 179.0 177.0 L 182.0 176.0 L 185.0 176.0 L 187.0 176.0 L 189.0 176.0 L 190.0 176.0 L 192.0 176.0 L 193.0 176.0 L 194.0 176.0 L 195.0 176.0 L 196.0 176.0 L 197.0 176.0 L 198.0 177.0 L 200.0 177.0 L 201.0 177.0 L 202.0 177.0 L 203.0 177.0 L 204.0 177.0 L 205.0 177.0 L 206.0 177.0 L 207.0 177.0 L 209.0 177.0 L 210.0 178.0 L 211.0 178.0 L 212.0 178.0 L 213.0 178.0 L 214.0 178.0 L 215.0 178.0 L 217.0 178.0 L 218.0 178.0 L 218.0 178.0 L 219.0 178.0 L 220.0 178.0 L 221.0 178.0 L 222.0 178.0 L 222.0 178.0 L 223.0 178.0 L 223.0 178.0 L 223.0 178.0 L 224.0 178.0 L 224.0 179.0 L 224.0 179.0 L 224.0 179.0 L 224.0 179.0 L 224.0 180.0 L 223.0 180.0 L 223.0 181.0 L 222.0 182.0 L 221.0 183.0 L 220.0 184.0 L 218.0 185.0 L 216.0 186.0 L 214.0 188.0 L 213.0 189.0 L 211.0 191.0 L 209.0 193.0 L 206.0 194.0 L 204.0 196.0 L 202.0 197.0 L 200.0 199.0 L 198.0 200.0 L 196.0 202.0 L 195.0 203.0 L 194.0 204.0 L 193.0 205.0 L 192.0 206.0 L 191.0 207.0 L 190.0 208.0 L 189.0 209.0 L 188.0 209.0 L 187.0 211.0 L 186.0 211.0 L 185.0 212.0 L 183.0 213.0 L 182.0 214.0 L 180.0 215.0 L 179.0 216.0 L 177.0 216.0 L 175.0 217.0 L 173.0 218.0 L 172.0 219.0 L 170.0 220.0 L 168.0 221.0 L 166.0 222.0 L 165.0 223.0 L 163.0 224.0 L 162.0 225.0 L 160.0 226.0 L 159.0 227.0 L 157.0 228.0 L 156.0 229.0 L 155.0 230.0 L 154.0 230.0 L 153.0 231.0 L 152.0 232.0 L 152.0 232.0 L 151.0 233.0 L 150.0 234.0 L 149.0 234.0 L 148.0 235.0 L 148.0 235.0 L 147.0 236.0 L 146.0 237.0 L 144.0 237.0 L 143.0 238.0 L 142.0 238.0 L 141.0 239.0 L 139.0 240.0 L 137.0 240.0 L 135.0 241.0 L 134.0 241.0 L 132.0 241.0 L 130.0 241.0 L 128.0 241.0 L 128.0 241.0 " stroke="black" fill="none" stroke-width="5.0" stroke-linecap="round" stroke-linejoin="round" />
<path d="M 124.0 184.0 L 124.0 184.0 L 124.0 184.0 L 124.0 184.0 L 124.0 184.0 L 124.0 184.0 L 124.0 184.0 L 124.0 184.0 L 124.0 184.0 L 124.0 184.0 L 124.0 184.0 L 124.0 184.0 L 124.0 184.0 L 124.0 184.0 L 125.0 185.0 L 125.0 186.0 L 126.0 187.0 L 127.0 188.0 L 128.0 189.0 L 129.0 190.0 L 130.0 191.0 L 131.0 193.0 L 132.0 194.0 L 133.0 195.0 L 134.0 196.0 L 135.0 197.0 L 136.0 198.0 L 137.0 199.0 L 138.0 200.0 L 139.0 200.0 L 140.0 201.0 L 141.0 202.0 L 142.0 202.0 L 143.0 203.0 L 144.0 204.0 L 145.0 204.0 L 146.0 205.0 L 147.0 206.0 L 147.0 206.0 L 148.0 207.0 L 149.0 207.0 L 150.0 208.0 L 150.0 208.0 L 151.0 209.0 L 152.0 209.0 L 152.0 210.0 L 153.0 210.0 L 153.0 211.0 L 153.0 211.0 L 154.0 212.0 L 155.0 212.0 L 155.0 213.0 L 156.0 213.0 L 157.0 214.0 L 157.0 214.0 L 158.0 215.0 L 159.0 216.0 L 159.0 216.0 L 160.0 217.0 L 161.0 217.0 L 162.0 218.0 L 163.0 219.0 L 164.0 219.0 L 165.0 220.0 L 166.0 221.0 L 167.0 221.0 L 168.0 222.0 L 170.0 223.0 L 171.0 223.0 L 172.0 224.0 L 173.0 225.0 L 174.0 225.0 L 175.0 226.0 L 177.0 226.0 L 177.0 227.0 L 178.0 227.0 L 179.0 228.0 L 180.0 228.0 L 181.0 229.0 L 182.0 229.0 L 182.0 230.0 L 183.0 230.0 L 183.0 230.0 L 184.0 231.0 L 185.0 231.0 L 185.0 232.0 L 186.0 232.0 L 186.0 232.0 L 187.0 233.0 L 187.0 233.0 L 188.0 233.0 L 189.0 234.0 L 189.0 234.0 L 190.0 234.0 L 190.0 235.0 L 191.0 235.0 L 192.0 236.0 L 192.0 236.0 L 193.0 236.0 L 194.0 237.0 L 195.0 237.0 L 196.0 238.0 L 196.0 238.0 L 198.0 239.0 L 198.0 239.0 L 200.0 240.0 L 201.0 240.0 L 202.0 241.0 L 204.0 242.0 L 206.0 243.0 L 208.0 243.0 L 210.0 244.0 L 212.0 245.0 L 215.0 245.0 L 217.0 246.0 L 220.0 246.0 L 222.0 247.0 L 224.0 247.0 L 226.0 248.0 L 228.0 248.0 L 230.0 249.0 L 232.0 249.0 L 233.0 250.0 L 234.0 250.0 L 236.0 250.0 L 237.0 250.0 L 237.0 251.0 L 238.0 251.0 L 239.0 251.0 L 239.0 251.0 L 239.0 251.0 L 239.0 251.0 L 239.0 251.0 L 239.0 251.0 L 239.0 251.0 " stroke="black" fill="none" stroke-width="5.0" stroke-linecap="round" stroke-linejoin="round" />
</svg>