<svg xmlns="http://www.w3.org/2000/svg" width="300" height="300" viewBox="0 0 300 300">
<path d="M 71.0 82.0 L 71.0 82.0 L 71.0 83.0 L 71.0 84.0 L 71.0 84.0 L 71.0 85.0 L 71.0 85.0 L 71.0 86.0 L 71.0 87.0 L 71.0 87.0 L 71.0 88.0 L 71.0 89.0 L 72.0 91.0 L 72.0 92.0 L 72.0 94.0 L 72.0 95.0 L 72.0 98.0 L 73.0 100.0 L 73.0 102.0 L 73.0 105.0 L 73.0 107.0 L 73.0 110.0 L 73.0 112.0 L 73.0 114.0 L 73.0 117.0 L 73.0 119.0 L 73.0 121.0 L 73.0 123.0 L 72.0 125.0 L 72.0 127.0 L 72.0 128.0 L 72.0 129.0 L 72.0 130.0 L 72.0 131.0 L 72.0 133.0 L 72.0 134.0 L 72.0 135.0 L 72.0 137.0 L 72.0 139.0 L 72.0 140.0 L 72.0 142.0 L 72.0 144.0 L 72.0 145.0 L 72.0 147.0 L 72.0 149.0 L 72.0 150.0 L 72.0 152.0 L 72.0 153.0 L 72.0 155.0 L 72.0 156.0 L 72.0 158.0 L 72.0 160.0 L 72.0 161.0 L 73.0 163.0 L 73.0 164.0 L 73.0 166.0 L 73.0 167.0 L 73.0 169.0 L 73.0 170.0 L 73.0 171.0 L 73.0 173.0 L 73.0 174.0 L 73.0 176.0 L 73.0 177.0 L 73.0 179.0 L 73.0 180.0 L 73.0 182.0 L 73.0 183.0 L 74.0 185.0 L 74.0 187.0 L 74.0 188.0 L 74.0 190.0 L 74.0 191.0 L 74.0 193.0 L 74.0 195.0 L 73.0 196.0 L 73.0 198.0 L 73.0 199.0 L 73.0 201.0 L 73.0 202.0 L 73.0 203.0 L 73.0 205.0 L 73.0 206.0 L 73.0 207.0 L 73.0 209.0 L 73.0 210.0 L 73.0 212.0 L 73.0 213.0 L 73.0 215.0 L 73.0 216.0 L 72.0 218.0 L 72.0 220.0 L 72.0 222.0 L 72.0 224.0 L 72.0 226.0 L 72.0 229.0 L 72.0 231.0 L 72.0 234.0 L 72.0 237.0 L 72.0 240.0 L 72.0 242.0 L 72.0 245.0 L 73.0 247.0 L 73.0 248.0 L 73.0 248.0 L 73.0 248.0 " stroke="black" fill="none" stroke-width="5.0" stroke-linecap="round" stroke-linejoin="round" />
<path d="M 72.0 82.0 L 72.0 82.0 L 72.0 82.0 L 71.0 82.0 L 71.0 82.0 L 71.0 82.0 L 70.0 82.0 L 70.0 82.0 L 70.0 82.0 L 70.0 82.0 L 70.0 82.0 L 70.0 82.0 L 70.0 82.0 L 70.0 82.0 L 70.0 82.0 L 70.0 82.0 L 70.0 82.0 L 71.0 82.0 L 71.0 82.0 L 72.0 83.0 L 73.0 83.0 L 73.0 83.0 L 74.0 83.0 L 75.0 83.0 L 75.0 84.0 L 76.0 84.0 L 77.0 84.0 L 78.0 84.0 L 78.0 84.0 L 79.0 84.0 L 80.0 84.0 L 81.0 84.0 L 83.0 84.0 L 84.0 84.0 L 85.0 84.0 L 86.0 84.0 L 87.0 84.0 L 89.0 84.0 L 90.0 84.0 L 91.0 84.0 L 92.0 83.0 L 93.0 83.0 L 95.0 83.0 L 96.0 83.0 L 97.0 83.0 L 98.0 83.0 L 99.0 82.0 L 100.0 82.0 L 101.0 82.0 L 102.0 82.0 L 103.0 82.0 L 103.0 82.0 L 104.0 82.0 L 105.0 82.0 L 106.0 82.0 L 107.0 82.0 L 108.0 82.0 L 109.0 82.0 L 109.0 81.0 L 110.0 81.0 L 111.0 81.0 L 112.0 81.0 L 113.0 81.0 L 114.0 81.0 L 114.0 81.0 L 115.0 81.0 L 116.0 81.0 L 117.0 81.0 L 118.0 81.0 L 119.0 81.0 L 120.0 81.0 L 121.0 81.0 L 123.0 81.0 L 124.0 80.0 L 125.0 80.0 L 126.0 80.0 L 127.0 80.0 L 128.0 80.0 L 130.0 80.0 L 131.0 80.0 L 132.0 80.0 L 134.0 80.0 L 135.0 80.0 L 137.0 80.0 L 138.0 80.0 L 139.0 80.0 L 141.0 80.0 L 142.0 80.0 L 144.0 80.0 L 145.0 80.0 L 146.0 80.0 L 147.0 80.0 L 148.0 80.0 L 149.0 80.0 L 150.0 79.0 L 151.0 79.0 L 152.0 79.0 L 152.0 79.0 L 153.0 79.0 L 154.0 79.0 L 155.0 79.0 L 155.0 79.0 L 156.0 79.0 L 157.0 79.0 L 158.0 79.0 L 159.0 79.0 L 160.0 79.0 L 161.0 79.0 L 162.0 79.0 L 164.0 79.0 L 165.0 79.0 L 167.0 79.0 L 168.0 79.0 L 169.0 79.0 L 171.0 79.0 L 173.0 79.0 L 174.0 79.0 L 176.0 79.0 L 177.0 79.0 L 178.0 79.0 L 180.0 79.0 L 182.0 79.0 L 183.0 79.0 L 184.0 79.0 L 185.0 79.0 L 187.0 79.0 L 188.0 79.0 L 189.0 79.0 L 190.0 79.0 L 191.0 79.0 L 192.0 80.0 L 192.0 80.0 L 193.0 80.0 L 194.0 80.0 L 194.0 80.0 L 195.0 80.0 L 195.0 80.0 L 196.0 80.0 L 196.0 80.0 L 197.0 80.0 L 198.0 80.0 L 198.0 80.0 L 199.0 80.0 L 200.0 80.0 L 201.0 80.0 L 202.0 80.0 L 202.0 80.0 L 203.0 80.0 L 204.0 80.0 L 205.0 80.0 L 206.0 80.0 L 207.0 80.0 L 208.0 80.0 L 209.0 80.0 L 210.0 80.0 L 211.0 80.0 L 212.0 80.0 L 213.0 80.0 L 214.0 80.0 L 215.0 80.0 L 216.0 80.0 L 217.0 80.0 L 218.0 81.0 L 219.0 81.0 L 220.0 81.0 L 221.0 81.0 L 222.0 81.0 L 223.0 81.0 L 224.0 81.0 L 225.0 81.0 L 225.0 81.0 L 226.0 81.0 L 227.0 81.0 L 227.0 81.0 L 227.0 81.0 L 228.0 82.0 L 228.0 82.0 L 228.0 82.0 L 229.0 82.0 L 229.0 82.0 L 229.0 82.0 L 229.0 83.0 L 230.0 83.0 L 230.0 83.0 L 230.0 83.0 L 231.0 83.0 L 231.0 83.0 L 231.0 83.0 L 232.0 83.0 L 232.0 83.0 L 232.0 83.0 L 232.0 83.0 L 232.0 84.0 L 232.0 84.0 L 232.0 84.0 L 232.0 84.0 L 232.0 84.0 L 232.0 84.0 L 232.0 85.0 L 232.0 85.0 L 232.0 86.0 L 232.0 86.0 L 232.0 87.0 L 232.0 88.0 L 233.0 89.0 L 233.0 90.0 L 233.0 92.0 L 233.0 93.0 L 233.0 95.0 L 233.0 96.0 L 233.0 98.0 L 233.0 100.0 L 233.0 101.0 L 233.0 103.0 L 233.0 104.0 L 233.0 105.0 L 233.0 107.0 L 233.0 108.0 L 233.0 109.0 L 233.0 110.0 L 233.0 112.0 L 232.0 113.0 L 232.0 114.0 L 232.0 115.0 L 232.0 117.0 L 232.0 118.0 L 232.0 120.0 L 232.0 121.0 L 232.0 122.0 L 232.0 124.0 L 232.0 125.0 L 232.0 127.0 L 232.0 128.0 L 232.0 130.0 L 232.0 132.0 L 232.0 134.0 L 232.0 136.0 L 232.0 139.0 L 232.0 141.0 L 232.0 143.0 L 232.0 146.0 L 232.0 148.0 L 232.0 150.0 L 232.0 152.0 L 232.0 154.0 L 232.0 155.0 L 232.0 157.0 L 232.0 158.0 L 232.0 159.0 L 232.0 161.0 L 232.0 162.0 L 232.0 163.0 L 232.0 165.0 L 232.0 166.0 L 232.0 168.0 L 232.0 170.0 L 232.0 172.0 L 232.0 174.0 L 232.0 176.0 L 232.0 178.0 L 232.0 180.0 L 232.0 182.0 L 232.0 184.0 L 232.0 186.0 L 232.0 189.0 L 232.0 191.0 L 232.0 193.0 L 232.0 195.0 L 232.0 197.0 L 232.0 199.0 L 232.0 201.0 L 232.0 203.0 L 232.0 205.0 L 231.0 207.0 L 231.0 209.0 L 231.0 212.0 L 230.0 214.0 L 230.0 216.0 L 230.0 219.0 L 230.0 221.0 L 230.0 224.0 L 230.0 226.0 L 230.0 229.0 L 230.0 232.0 L 230.0 234.0 L 229.0 236.0 L 229.0 237.0 L 229.0 239.0 L 229.0 241.0 L 229.0 242.0 L 228.0 243.0 L 228.0 244.0 L 228.0 245.0 L 228.0 246.0 L 228.0 247.0 L 228.0 248.0 L 228.0 249.0 L 227.0 250.0 L 227.0 251.0 L 227.0 251.0 L 227.0 252.0 L 227.0 252.0 " stroke="black" fill="none" stroke-width="5.0" stroke-linecap="round" stroke-linejoin="round" />
<path d="M 116.0 104.0 L 116.0 104.0 L 116.0 103.0 L 116.0 103.0 L 116.0 103.0 L 116.0 102.0 L 116.0 102.0 L 116.0 102.0 L 115.0 103.0 L 115.0 104.0 L 115.0 106.0 L 115.0 109.0 L 115.0 111.0 L 115.0 114.0 L 116.0 117.0 L 116.0 119.0 L 116.0 121.0 L 117.0 123.0 L 117.0 124.0 L 117.0 124.0 " stroke="black" fill="none" stroke-width="5.0" stroke-linecap="round" stroke-linejoin="round" />
<path d="M 116.0 107.0 L 116.0 107.0 L 116.0 107.0 L 115.0 107.0 L 115.0 107.0 L 115.0 107.0 L 115.0 107.0 L 115.0 107.0 L 115.0 107.0 L 115.0 107.0 L 115.0 107.0 L 116.0 107.0 L 116.0 107.0 L 117.0 107.0 L 118.0 107.0 L 119.0 107.0 L 120.0 107.0 L 121.0 107.0 L 122.0 107.0 L 123.0 107.0 L 124.0 107.0 L 126.0 107.0 L 127.0 107.0 L 129.0 107.0 L 130.0 107.0 L 132.0 107.0 L 133.0 107.0 L 135.0 107.0 L 137.0 107.0 L 139.0 107.0 L 140.0 107.0 L 142.0 107.0 L 144.0 107.0 L 145.0 107.0 L 147.0 107.0 L 148.0 107.0 L 150.0 107.0 L 151.0 107.0 L 153.0 107.0 L 154.0 107.0 L 155.0 107.0 L 156.0 107.0 L 158.0 107.0 L 159.0 107.0 L 161.0 107.0 L 163.0 107.0 L 166.0 107.0 L 168.0 107.0 L 171.0 107.0 L 174.0 107.0 L 176.0 107.0 L 178.0 107.0 L 180.0 107.0 L 182.0 107.0 L 183.0 107.0 L 184.0 107.0 L 185.0 108.0 L 185.0 108.0 L 186.0 108.0 L 186.0 109.0 L 186.0 109.0 L 186.0 109.0 L 186.0 110.0 L 186.0 110.0 L 186.0 111.0 L 186.0 112.0 L 185.0 113.0 L 184.0 114.0 L 183.0 116.0 L 182.0 118.0 L 180.0 120.0 L 179.0 121.0 L 178.0 123.0 L 178.0 124.0 L 177.0 125.0 L 177.0 126.0 " stroke="black" fill="none" stroke-width="5.0" stroke-linecap="round" stroke-linejoin="round" />
<path d="M 114.0 128.0 L 114.0 128.0 L 113.0 128.0 L 113.0 128.0 L 112.0 127.0 L 112.0 127.0 L 112.0 127.0 L 112.0 127.0 L 112.0 127.0 L 112.0 127.0 L 113.0 127.0 L 116.0 127.0 L 120.0 127.0 L 125.0 127.0 L 131.0 127.0 L 138.0 127.0 L 145.0 127.0 L 152.0 127.0 L 158.0 126.0 L 164.0 125.0 L 168.0 125.0 L 171.0 124.0 L 173.0 124.0 L 173.0 124.0 L 173.0 125.0 L 173.0 125.0 " stroke="black" fill="none" stroke-width="5.0" stroke-linecap="round" stroke-linejoin="round" />
<path d="M 148.0 130.0 L 148.0 130.0 L 148.0 130.0 L 147.0 131.0 L 147.0 132.0 L 147.0 133.0 L 147.0 135.0 L 146.0 137.0 L 146.0 140.0 L 146.0 143.0 L 146.0 146.0 L 146.0 149.0 " stroke="black" fill="none" stroke-width="5.0" stroke-linecap="round" stroke-linejoin="round" />
<path d="M 90.0 148.0 L 89.0 148.0 L 89.0 148.0 L 88.0 148.0 L 88.0 148.0 L 87.0 148.0 L 87.0 148.0 L 87.0 148.0 L 86.0 148.0 L 86.0 148.0 L 86.0 148.0 L 86.0 148.0 L 86.0 148.0 L 86.0 147.0 L 87.0 147.0 L 88.0 147.0 L 89.0 147.0 L 90.0 147.0 L 91.0 147.0 L 92.0 147.0 L 93.0 147.0 L 94.0 147.0 L 96.0 147.0 L 97.0 147.0 L 98.0 147.0 L 100.0 147.0 L 101.0 147.0 L 102.0 147.0 L 103.0 147.0 L 105.0 147.0 L 106.0 147.0 L 107.0 147.0 L 108.0 147.0 L 109.0 146.0 L 110.0 146.0 L 112.0 146.0 L 113.0 146.0 L 114.0 145.0 L 116.0 145.0 L 118.0 144.0 L 120.0 144.0 L 122.0 144.0 L 124.0 144.0 L 126.0 143.0 L 129.0 143.0 L 131.0 143.0 L 134.0 143.0 L 137.0 143.0 L 139.0 143.0 L 142.0 143.0 L 145.0 143.0 L 147.0 143.0 L 150.0 143.0 L 152.0 143.0 L 154.0 143.0 L 156.0 143.0 L 158.0 144.0 L 160.0 144.0 L 163.0 145.0 L 167.0 145.0 L 171.0 145.0 L 175.0 146.0 L 180.0 146.0 L 185.0 146.0 L 189.0 146.0 L 193.0 146.0 L 196.0 146.0 L 199.0 146.0 L 203.0 146.0 L 205.0 146.0 L 207.0 145.0 L 210.0 145.0 L 212.0 145.0 L 213.0 145.0 L 213.0 145.0 L 213.0 145.0 " stroke="black" fill="none" stroke-width="5.0" stroke-linecap="round" stroke-linejoin="round" />
<path d="M 108.0 166.0 L 108.0 166.0 L 108.0 166.0 L 108.0 166.0 L 108.0 167.0 L 108.0 168.0 L 108.0 169.0 L 109.0 171.0 L 109.0 175.0 L 109.0 179.0 L 109.0 185.0 L 109.0 191.0 L 109.0 197.0 L 109.0 203.0 L 109.0 208.0 L 108.0 213.0 L 108.0 216.0 L 108.0 218.0 L 108.0 219.0 L 108.0 219.0 L 108.0 218.0 " stroke="black" fill="none" stroke-width="5.0" stroke-linecap="round" stroke-linejoin="round" />
<path d="M 112.0 168.0 L 112.0 168.0 L 112.0 168.0 L 112.0 167.0 L 112.0 167.0 L 112.0 167.0 L 112.0 166.0 L 111.0 166.0 L 111.0 166.0 L 111.0 166.0 L 111.0 166.0 L 111.0 166.0 L 111.0 166.0 L 111.0 166.0 L 111.0 166.0 L 111.0 166.0 L 111.0 166.0 L 111.0 166.0 L 112.0 166.0 L 112.0 166.0 L 113.0 166.0 L 114.0 166.0 L 114.0 166.0 L 115.0 166.0 L 116.0 166.0 L 117.0 166.0 L 118.0 166.0 L 119.0 166.0 L 121.0 167.0 L 122.0 167.0 L 123.0 167.0 L 124.0 167.0 L 126.0 167.0 L 127.0 167.0 L 129.0 167.0 L 130.0 167.0 L 132.0 167.0 L 134.0 167.0 L 136.0 167.0 L 137.0 167.0 L 139.0 167.0 L 141.0 167.0 L 142.0 167.0 L 144.0 167.0 L 145.0 167.0 L 147.0 167.0 L 148.0 167.0 L 149.0 167.0 L 150.0 167.0 L 152.0 167.0 L 153.0 167.0 L 154.0 167.0 L 155.0 167.0 L 156.0 167.0 L 158.0 167.0 L 159.0 167.0 L 161.0 167.0 L 162.0 167.0 L 164.0 166.0 L 166.0 166.0 L 168.0 166.0 L 170.0 166.0 L 172.0 166.0 L 174.0 166.0 L 176.0 166.0 L 178.0 166.0 L 179.0 166.0 L 181.0 166.0 L 182.0 166.0 L 183.0 166.0 L 185.0 166.0 L 186.0 166.0 L 186.0 166.0 L 187.0 166.0 L 188.0 166.0 L 189.0 166.0 L 189.0 167.0 L 190.0 167.0 L 190.0 167.0 L 190.0 167.0 L 191.0 168.0 L 191.0 168.0 L 191.0 168.0 L 191.0 169.0 L 191.0 170.0 L 191.0 171.0 L 191.0 172.0 L 191.0 173.0 L 191.0 176.0 L 191.0 179.0 L 191.0 182.0 L 191.0 187.0 L 191.0 191.0 L 191.0 196.0 L 191.0 200.0 L 190.0 203.0 L 190.0 207.0 L 189.0 210.0 L 189.0 212.0 L 188.0 214.0 L 188.0 215.0 L 188.0 216.0 L 188.0 216.0 " stroke="black" fill="none" stroke-width="5.0" stroke-linecap="round" stroke-linejoin="round" />
<path d="M 131.0 190.0 L 131.0 190.0 L 130.0 190.0 L 128.0 190.0 L 127.0 190.0 L 126.0 190.0 L 126.0 190.0 L 126.0 190.0 L 126.0 190.0 L 126.0 190.0 L 127.0 190.0 L 128.0 191.0 L 130.0 192.0 L 131.0 194.0 L 132.0 195.0 L 133.0 197.0 L 134.0 199.0 L 135.0 201.0 L 135.0 203.0 L 136.0 204.0 L 136.0 204.0 L 136.0 205.0 L 136.0 205.0 L 136.0 204.0 " stroke="black" fill="none" stroke-width="5.0" stroke-linecap="round" stroke-linejoin="round" />
<path d="M 133.0 189.0 L 133.0 188.0 L 132.0 187.0 L 132.0 187.0 L 131.0 186.0 L 131.0 186.0 L 130.0 185.0 L 130.0 185.0 L 130.0 185.0 L 129.0 184.0 L 129.0 184.0 L 129.0 184.0 L 129.0 184.0 L 130.0 184.0 L 131.0 184.0 L 133.0 183.0 L 135.0 183.0 L 137.0 183.0 L 140.0 183.0 L 144.0 183.0 L 147.0 182.0 L 151.0 182.0 L 155.0 181.0 L 160.0 181.0 L 164.0 181.0 L 166.0 181.0 L 169.0 181.0 L 170.0 181.0 L 170.0 182.0 L 171.0 184.0 L 171.0 186.0 L 170.0 188.0 L 169.0 190.0 L 167.0 192.0 L 166.0 194.0 L 164.0 196.0 L 163.0 198.0 L 161.0 200.0 L 159.0 202.0 L 158.0 203.0 L 156.0 204.0 L 154.0 204.0 L 153.0 204.0 " stroke="black" fill="none" stroke-width="5.0" stroke-linecap="round" stroke-linejoin="round" />
<path d="M 143.0 203.0 L 141.0 203.0 L 139.0 203.0 L 137.0 203.0 L 136.0 203.0 L 134.0 203.0 L 133.0 203.0 L 132.0 203.0 L 132.0 203.0 L 131.0 203.0 L 131.0 203.0 L 131.0 203.0 L 131.0 203.0 L 132.0 202.0 L 134.0 202.0 L 136.0 202.0 L 138.0 202.0 L 141.0 202.0 L 144.0 202.0 L 148.0 201.0 L 151.0 201.0 L 156.0 200.0 L 160.0 200.0 L 164.0 199.0 L 165.0 199.0 " stroke="black" fill="none" stroke-width="5.0" stroke-linecap="round" stroke-linejoin="round" />
<path d="M 113.0 218.0 L 113.0 218.0 L 113.0 218.0 L 113.0 218.0 L 113.0 218.0 L 113.0 218.0 L 113.0 218.0 L 113.0 218.0 L 113.0 218.0 L 113.0 218.0 L 114.0 218.0 L 116.0 218.0 L 119.0 218.0 L 123.0 217.0 L 129.0 216.0 L 136.0 216.0 L 143.0 215.0 L 149.0 214.0 L 154.0 214.0 L 160.0 214.0 L 165.0 214.0 L 170.0 214.0 L 175.0 214.0 L 180.0 214.0 L 184.0 214.0 L 188.0 214.0 L 190.0 214.0 " stroke="black" fill="none" stroke-width="5.0" stroke-linecap="round" stroke-linejoin="round" />
<path d="M 68.0 247.0 L 68.0 247.0 L 68.0 247.0 L 68.0 248.0 L 68.0 248.0 L 68.0 248.0 L 68.0 248.0 L 68.0 249.0 L 68.0 249.0 L 68.0 249.0 L 68.0 249.0 L 68.0 249.0 L 68.0 249.0 L 69.0 249.0 L 69.0 249.0 L 70.0 249.0 L 71.0 249.0 L 71.0 249.0 L 72.0 249.0 L 73.0 249.0 L 74.0 248.0 L 75.0 248.0 L 76.0 248.0 L 77.0 247.0 L 78.0 247.0 L 79.0 247.0 L 80.0 247.0 L 81.0 246.0 L 82.0 246.0 L 84.0 246.0 L 85.0 246.0 L 86.0 246.0 L 87.0 246.0 L 89.0 246.0 L 90.0 246.0 L 91.0 246.0 L 92.0 246.0 L 93.0 246.0 L 94.0 246.0 L 95.0 246.0 L 96.0 246.0 L 97.0 247.0 L 98.0 247.0 L 98.0 247.0 L 99.0 247.0 L 100.0 247.0 L 101.0 247.0 L 102.0 248.0 L 103.0 248.0 L 104.0 248.0 L 105.0 248.0 L 106.0 248.0 L 107.0 248.0 L 108.0 248.0 L 109.0 248.0 L 110.0 248.0 L 111.0 248.0 L 112.0 248.0 L 114.0 247.0 L 115.0 247.0 L 116.0 247.0 L 118.0 247.0 L 119.0 247.0 L 121.0 247.0 L 122.0 247.0 L 123.0 247.0 L 125.0 247.0 L 126.0 247.0 L 128.0 247.0 L 129.0 247.0 L 131.0 247.0 L 132.0 247.0 L 134.0 247.0 L 135.0 247.0 L 137.0 247.0 L 139.0 247.0 L 141.0 247.0 L 142.0 247.0 L 144.0 246.0 L 146.0 246.0 L 148.0 246.0 L 149.0 246.0 L 151.0 246.0 L 152.0 246.0 L 153.0 246.0 L 155.0 246.0 L 156.0 246.0 L 158.0 246.0 L 160.0 246.0 L 162.0 246.0 L 165.0 246.0 L 168.0 246.0 L 171.0 246.0 L 175.0 247.0 L 178.0 247.0 L 181.0 247.0 L 184.0 247.0 L 186.0 247.0 L 189.0 248.0 L 191.0 248.0 L 193.0 248.0 L 194.0 248.0 L 196.0 248.0 L 198.0 248.0 L 200.0 248.0 L 202.0 248.0 L 205.0 248.0 L 208.0 248.0 L 210.0 248.0 L 213.0 248.0 L 216.0 248.0 L 218.0 247.0 L 221.0 247.0 L 223.0 247.0 L 224.0 247.0 L 226.0 248.0 L 226.0 248.0 " stroke="black" fill="none" stroke-width="5.0" stroke-linecap="round" stroke-linejoin="round" />
</svg>