<svg xmlns="http://www.w3.org/2000/svg" width="300" height="300" viewBox="0 0 300 300">
<path d="M 94.0 83.0 L 94.0 83.0 L 94.0 83.0 L 94.0 83.0 L 94.0 83.0 L 94.0 83.0 L 94.0 83.0 L 94.0 83.0 L 94.0 84.0 L 94.0 84.0 L 94.0 85.0 L 94.0 86.0 L 94.0 87.0 L 94.0 88.0 L 94.0 90.0 L 94.0 93.0 L 94.0 95.0 L 94.0 99.0 L 94.0 103.0 L 94.0 107.0 L 94.0 112.0 L 94.0 116.0 L 94.0 120.0 L 93.0 125.0 L 93.0 128.0 L 93.0 132.0 L 93.0 136.0 L 93.0 139.0 L 93.0 142.0 L 93.0 145.0 L 93.0 148.0 L 93.0 150.0 L 93.0 153.0 L 93.0 155.0 L 93.0 157.0 L 93.0 159.0 L 93.0 161.0 L 93.0 163.0 L 93.0 165.0 L 93.0 167.0 L 93.0 169.0 L 93.0 171.0 L 93.0 172.0 L 93.0 174.0 L 93.0 176.0 L 93.0 177.0 L 93.0 178.0 L 92.0 180.0 L 92.0 180.0 L 92.0 181.0 L 92.0 182.0 L 92.0 182.0 L 92.0 182.0 " stroke="black" fill="none" stroke-width="5.0" stroke-linecap="round" stroke-linejoin="round" />
<path d="M 99.0 80.0 L 99.0 80.0 L 99.0 80.0 L 99.0 80.0 L 99.0 80.0 L 99.0 80.0 L 99.0 80.0 L 99.0 80.0 L 99.0 80.0 L 99.0 80.0 L 98.0 80.0 L 98.0 80.0 L 98.0 80.0 L 98.0 80.0 L 98.0 80.0 L 98.0 80.0 L 98.0 80.0 L 98.0 80.0 L 98.0 80.0 L 98.0 80.0 L 98.0 80.0 L 99.0 80.0 L 99.0 80.0 L 100.0 80.0 L 100.0 80.0 L 101.0 80.0 L 101.0 80.0 L 102.0 80.0 L 103.0 80.0 L 103.0 80.0 L 104.0 80.0 L 105.0 80.0 L 106.0 80.0 L 106.0 80.0 L 107.0 80.0 L 108.0 80.0 L 109.0 80.0 L 110.0 80.0 L 110.0 80.0 L 111.0 80.0 L 112.0 80.0 L 113.0 80.0 L 114.0 80.0 L 114.0 80.0 L 115.0 80.0 L 116.0 80.0 L 116.0 80.0 L 117.0 80.0 L 118.0 80.0 L 119.0 80.0 L 119.0 80.0 L 120.0 80.0 L 121.0 80.0 L 122.0 80.0 L 123.0 80.0 L 124.0 80.0 L 126.0 80.0 L 127.0 80.0 L 128.0 79.0 L 129.0 79.0 L 130.0 79.0 L 131.0 79.0 L 132.0 79.0 L 133.0 79.0 L 134.0 79.0 L 135.0 79.0 L 136.0 79.0 L 137.0 79.0 L 138.0 79.0 L 139.0 79.0 L 141.0 79.0 L 142.0 79.0 L 143.0 79.0 L 144.0 79.0 L 145.0 79.0 L 146.0 79.0 L 148.0 79.0 L 149.0 79.0 L 150.0 80.0 L 151.0 80.0 L 152.0 80.0 L 153.0 80.0 L 154.0 80.0 L 155.0 80.0 L 156.0 80.0 L 157.0 80.0 L 158.0 80.0 L 159.0 80.0 L 160.0 80.0 L 161.0 80.0 L 162.0 80.0 L 163.0 80.0 L 163.0 80.0 L 164.0 80.0 L 165.0 80.0 L 166.0 80.0 L 167.0 80.0 L 168.0 80.0 L 169.0 80.0 L 170.0 80.0 L 171.0 80.0 L 172.0 79.0 L 173.0 79.0 L 174.0 79.0 L 175.0 79.0 L 176.0 79.0 L 177.0 79.0 L 177.0 79.0 L 178.0 79.0 L 179.0 79.0 L 179.0 79.0 L 180.0 79.0 L 180.0 79.0 L 181.0 79.0 L 181.0 79.0 L 182.0 79.0 L 182.0 79.0 L 182.0 79.0 L 183.0 79.0 L 183.0 79.0 L 184.0 79.0 L 184.0 79.0 L 184.0 79.0 L 185.0 79.0 L 185.0 79.0 L 185.0 79.0 L 186.0 79.0 L 186.0 79.0 L 187.0 79.0 L 187.0 79.0 L 187.0 79.0 L 187.0 79.0 L 188.0 79.0 L 188.0 79.0 L 188.0 79.0 L 189.0 79.0 L 189.0 79.0 L 189.0 79.0 L 189.0 79.0 L 190.0 79.0 L 190.0 79.0 L 190.0 79.0 L 190.0 79.0 L 191.0 79.0 L 191.0 79.0 L 191.0 79.0 L 191.0 79.0 L 192.0 79.0 L 192.0 79.0 L 192.0 79.0 L 192.0 79.0 L 193.0 79.0 L 193.0 79.0 L 193.0 79.0 L 193.0 79.0 L 194.0 79.0 L 194.0 79.0 L 194.0 79.0 L 195.0 79.0 L 195.0 79.0 L 195.0 79.0 L 196.0 79.0 L 196.0 79.0 L 196.0 79.0 L 197.0 79.0 L 197.0 79.0 L 197.0 79.0 L 198.0 79.0 L 198.0 79.0 L 198.0 79.0 L 199.0 79.0 L 199.0 79.0 L 200.0 79.0 L 200.0 79.0 L 200.0 79.0 L 201.0 79.0 L 201.0 79.0 L 201.0 79.0 L 202.0 79.0 L 202.0 79.0 L 202.0 79.0 L 203.0 79.0 L 203.0 79.0 L 204.0 79.0 L 204.0 79.0 L 204.0 79.0 L 205.0 79.0 L 205.0 79.0 L 205.0 80.0 L 205.0 80.0 L 206.0 80.0 L 206.0 80.0 L 206.0 80.0 L 207.0 80.0 L 207.0 81.0 L 207.0 81.0 L 207.0 82.0 L 207.0 82.0 L 207.0 83.0 L 207.0 84.0 L 207.0 85.0 L 207.0 86.0 L 207.0 87.0 L 207.0 88.0 L 207.0 90.0 L 207.0 91.0 L 207.0 93.0 L 207.0 95.0 L 207.0 98.0 L 207.0 100.0 L 207.0 102.0 L 207.0 104.0 L 207.0 106.0 L 207.0 109.0 L 206.0 111.0 L 206.0 113.0 L 206.0 115.0 L 206.0 117.0 L 206.0 118.0 L 206.0 120.0 L 206.0 122.0 L 206.0 124.0 L 206.0 126.0 L 206.0 127.0 L 206.0 129.0 L 206.0 131.0 L 206.0 133.0 L 206.0 134.0 L 206.0 136.0 L 206.0 138.0 L 206.0 140.0 L 206.0 142.0 L 206.0 144.0 L 206.0 146.0 L 206.0 148.0 L 206.0 149.0 L 206.0 151.0 L 206.0 152.0 L 206.0 154.0 L 206.0 155.0 L 206.0 156.0 L 206.0 158.0 L 206.0 159.0 L 205.0 161.0 L 205.0 163.0 L 205.0 165.0 L 205.0 167.0 L 205.0 168.0 L 205.0 170.0 L 205.0 171.0 L 206.0 173.0 L 206.0 175.0 L 206.0 176.0 L 206.0 178.0 L 207.0 179.0 L 207.0 180.0 L 207.0 182.0 L 207.0 183.0 L 207.0 184.0 L 207.0 185.0 L 207.0 186.0 L 207.0 187.0 L 207.0 188.0 L 207.0 188.0 L 207.0 188.0 L 206.0 189.0 L 206.0 189.0 L 205.0 189.0 L 205.0 189.0 L 205.0 189.0 " stroke="black" fill="none" stroke-width="5.0" stroke-linecap="round" stroke-linejoin="round" />
<path d="M 105.0 114.0 L 105.0 114.0 L 105.0 114.0 L 105.0 113.0 L 105.0 113.0 L 105.0 113.0 L 105.0 113.0 L 105.0 113.0 L 105.0 113.0 L 105.0 113.0 L 105.0 112.0 L 105.0 112.0 L 105.0 112.0 L 105.0 112.0 L 105.0 112.0 L 105.0 112.0 L 106.0 112.0 L 106.0 112.0 L 106.0 112.0 L 107.0 112.0 L 107.0 112.0 L 108.0 112.0 L 108.0 113.0 L 109.0 113.0 L 110.0 113.0 L 110.0 113.0 L 111.0 113.0 L 112.0 114.0 L 113.0 114.0 L 114.0 114.0 L 115.0 114.0 L 116.0 114.0 L 117.0 114.0 L 118.0 114.0 L 118.0 114.0 L 119.0 114.0 L 120.0 114.0 L 121.0 114.0 L 122.0 115.0 L 123.0 115.0 L 125.0 115.0 L 126.0 115.0 L 127.0 115.0 L 128.0 115.0 L 129.0 115.0 L 130.0 115.0 L 131.0 115.0 L 132.0 115.0 L 133.0 115.0 L 135.0 115.0 L 136.0 115.0 L 137.0 115.0 L 138.0 115.0 L 139.0 115.0 L 140.0 115.0 L 141.0 115.0 L 142.0 115.0 L 143.0 115.0 L 144.0 115.0 L 145.0 115.0 L 146.0 115.0 L 147.0 115.0 L 148.0 115.0 L 148.0 115.0 L 149.0 115.0 L 150.0 115.0 L 151.0 115.0 L 151.0 115.0 L 152.0 115.0 L 153.0 115.0 L 154.0 115.0 L 154.0 115.0 L 155.0 115.0 L 156.0 115.0 L 157.0 115.0 L 158.0 115.0 L 159.0 115.0 L 160.0 115.0 L 161.0 115.0 L 163.0 115.0 L 164.0 115.0 L 165.0 115.0 L 166.0 115.0 L 168.0 115.0 L 169.0 115.0 L 170.0 115.0 L 172.0 115.0 L 173.0 115.0 L 174.0 115.0 L 175.0 115.0 L 176.0 115.0 L 177.0 115.0 L 178.0 115.0 L 179.0 115.0 L 180.0 115.0 L 181.0 115.0 L 182.0 115.0 L 182.0 115.0 L 183.0 115.0 L 184.0 115.0 L 185.0 115.0 L 186.0 115.0 L 186.0 115.0 L 187.0 115.0 L 188.0 115.0 L 189.0 115.0 L 190.0 115.0 L 190.0 115.0 L 191.0 115.0 L 192.0 115.0 L 193.0 115.0 L 194.0 115.0 L 194.0 115.0 L 195.0 115.0 L 196.0 115.0 L 196.0 115.0 L 197.0 115.0 L 198.0 115.0 L 199.0 116.0 L 200.0 116.0 L 200.0 116.0 L 201.0 116.0 L 202.0 116.0 L 203.0 116.0 L 204.0 116.0 L 204.0 116.0 " stroke="black" fill="none" stroke-width="5.0" stroke-linecap="round" stroke-linejoin="round" />
<path d="M 103.0 151.0 L 103.0 151.0 L 103.0 151.0 L 103.0 151.0 L 103.0 151.0 L 103.0 151.0 L 103.0 151.0 L 103.0 151.0 L 103.0 151.0 L 103.0 151.0 L 103.0 151.0 L 103.0 151.0 L 103.0 151.0 L 103.0 151.0 L 103.0 151.0 L 103.0 151.0 L 103.0 151.0 L 103.0 151.0 L 103.0 151.0 L 104.0 151.0 L 104.0 151.0 L 105.0 151.0 L 106.0 151.0 L 106.0 151.0 L 107.0 151.0 L 108.0 151.0 L 109.0 151.0 L 111.0 151.0 L 112.0 151.0 L 113.0 151.0 L 115.0 151.0 L 116.0 151.0 L 117.0 151.0 L 119.0 151.0 L 120.0 151.0 L 121.0 151.0 L 123.0 151.0 L 124.0 151.0 L 125.0 151.0 L 127.0 151.0 L 128.0 151.0 L 130.0 151.0 L 131.0 151.0 L 133.0 151.0 L 134.0 151.0 L 136.0 151.0 L 137.0 151.0 L 139.0 151.0 L 140.0 151.0 L 142.0 151.0 L 143.0 151.0 L 145.0 151.0 L 146.0 151.0 L 148.0 151.0 L 149.0 151.0 L 150.0 151.0 L 151.0 151.0 L 152.0 151.0 L 153.0 151.0 L 154.0 152.0 L 155.0 152.0 L 156.0 152.0 L 157.0 152.0 L 158.0 152.0 L 159.0 152.0 L 160.0 152.0 L 162.0 152.0 L 163.0 152.0 L 164.0 152.0 L 166.0 152.0 L 168.0 152.0 L 169.0 152.0 L 171.0 152.0 L 172.0 152.0 L 174.0 152.0 L 176.0 151.0 L 177.0 151.0 L 178.0 151.0 L 180.0 151.0 L 181.0 151.0 L 182.0 151.0 L 184.0 151.0 L 185.0 151.0 L 186.0 151.0 L 188.0 151.0 L 189.0 151.0 L 190.0 151.0 L 191.0 151.0 L 191.0 151.0 L 191.0 151.0 L 192.0 151.0 " stroke="black" fill="none" stroke-width="5.0" stroke-linecap="round" stroke-linejoin="round" />
<path d="M 98.0 187.0 L 98.0 187.0 L 98.0 187.0 L 98.0 187.0 L 98.0 186.0 L 99.0 186.0 L 99.0 186.0 L 99.0 186.0 L 99.0 186.0 L 99.0 186.0 L 99.0 186.0 L 100.0 186.0 L 100.0 186.0 L 100.0 186.0 L 101.0 186.0 L 101.0 186.0 L 102.0 186.0 L 102.0 187.0 L 103.0 187.0 L 104.0 187.0 L 105.0 187.0 L 105.0 187.0 L 106.0 188.0 L 107.0 188.0 L 108.0 188.0 L 109.0 188.0 L 111.0 188.0 L 112.0 188.0 L 113.0 188.0 L 115.0 188.0 L 116.0 188.0 L 118.0 188.0 L 119.0 188.0 L 121.0 188.0 L 122.0 188.0 L 124.0 187.0 L 126.0 187.0 L 128.0 187.0 L 130.0 187.0 L 131.0 186.0 L 133.0 186.0 L 135.0 186.0 L 137.0 186.0 L 139.0 186.0 L 141.0 186.0 L 143.0 186.0 L 144.0 186.0 L 146.0 186.0 L 147.0 186.0 L 148.0 186.0 L 150.0 186.0 L 151.0 186.0 L 152.0 186.0 L 153.0 186.0 L 154.0 186.0 L 154.0 186.0 L 155.0 186.0 L 156.0 186.0 L 157.0 186.0 L 158.0 186.0 L 158.0 186.0 L 159.0 186.0 L 160.0 186.0 L 161.0 186.0 L 162.0 186.0 L 163.0 186.0 L 164.0 185.0 L 165.0 185.0 L 166.0 185.0 L 167.0 185.0 L 168.0 184.0 L 169.0 184.0 L 170.0 184.0 L 171.0 184.0 L 172.0 184.0 L 173.0 184.0 L 174.0 184.0 L 176.0 184.0 L 177.0 184.0 L 178.0 184.0 L 179.0 184.0 L 180.0 185.0 L 181.0 185.0 L 182.0 185.0 L 184.0 186.0 L 185.0 186.0 L 186.0 186.0 L 187.0 186.0 L 188.0 187.0 L 189.0 187.0 L 190.0 187.0 L 191.0 187.0 L 192.0 187.0 L 193.0 187.0 L 193.0 187.0 L 194.0 187.0 L 195.0 187.0 L 196.0 187.0 L 197.0 187.0 L 198.0 187.0 L 198.0 187.0 L 199.0 187.0 L 199.0 187.0 " stroke="black" fill="none" stroke-width="5.0" stroke-linecap="round" stroke-linejoin="round" />
<path d="M 119.0 190.0 L 119.0 190.0 L 120.0 190.0 L 120.0 190.0 L 120.0 190.0 L 120.0 190.0 L 120.0 190.0 L 120.0 190.0 L 120.0 190.0 L 120.0 190.0 L 120.0 191.0 L 120.0 191.0 L 120.0 192.0 L 120.0 192.0 L 120.0 193.0 L 120.0 194.0 L 120.0 195.0 L 119.0 196.0 L 119.0 197.0 L 119.0 198.0 L 118.0 200.0 L 118.0 201.0 L 118.0 202.0 L 118.0 202.0 L 117.0 203.0 L 117.0 204.0 L 117.0 205.0 L 116.0 206.0 L 116.0 207.0 L 116.0 207.0 L 115.0 208.0 L 115.0 209.0 L 114.0 209.0 L 114.0 210.0 L 114.0 210.0 L 113.0 211.0 L 113.0 212.0 L 112.0 212.0 L 112.0 213.0 L 111.0 214.0 L 111.0 214.0 L 111.0 215.0 L 110.0 216.0 L 110.0 216.0 L 109.0 217.0 L 109.0 217.0 L 109.0 218.0 L 108.0 218.0 L 108.0 219.0 L 108.0 220.0 L 107.0 220.0 L 107.0 221.0 L 107.0 222.0 L 106.0 222.0 L 106.0 223.0 L 105.0 224.0 L 105.0 225.0 L 105.0 225.0 L 104.0 226.0 L 104.0 227.0 L 103.0 228.0 L 103.0 229.0 L 102.0 230.0 L 102.0 231.0 L 101.0 232.0 L 100.0 233.0 L 100.0 234.0 L 99.0 235.0 L 98.0 236.0 L 97.0 237.0 L 96.0 238.0 L 95.0 239.0 L 94.0 239.0 L 93.0 240.0 L 91.0 241.0 L 90.0 242.0 L 89.0 242.0 L 87.0 243.0 L 85.0 244.0 L 84.0 244.0 L 82.0 245.0 L 80.0 246.0 L 78.0 247.0 L 76.0 248.0 L 73.0 249.0 L 72.0 249.0 L 70.0 250.0 L 69.0 251.0 L 68.0 251.0 L 67.0 251.0 " stroke="black" fill="none" stroke-width="5.0" stroke-linecap="round" stroke-linejoin="round" />
<path d="M 174.0 191.0 L 174.0 191.0 L 175.0 191.0 L 175.0 190.0 L 176.0 190.0 L 176.0 189.0 L 176.0 189.0 L 176.0 189.0 L 176.0 189.0 L 176.0 189.0 L 176.0 189.0 L 176.0 189.0 L 176.0 190.0 L 175.0 191.0 L 175.0 192.0 L 175.0 193.0 L 174.0 195.0 L 174.0 196.0 L 174.0 197.0 L 174.0 199.0 L 174.0 200.0 L 173.0 202.0 L 173.0 203.0 L 173.0 204.0 L 173.0 206.0 L 173.0 207.0 L 173.0 208.0 L 173.0 210.0 L 173.0 211.0 L 173.0 212.0 L 173.0 214.0 L 173.0 215.0 L 173.0 216.0 L 173.0 218.0 L 173.0 220.0 L 172.0 221.0 L 172.0 223.0 L 172.0 225.0 L 172.0 226.0 L 172.0 228.0 L 172.0 229.0 L 172.0 230.0 L 173.0 231.0 L 173.0 232.0 L 173.0 233.0 L 173.0 234.0 L 173.0 236.0 L 173.0 237.0 L 173.0 238.0 L 173.0 239.0 L 173.0 239.0 L 173.0 240.0 L 173.0 241.0 L 173.0 242.0 L 174.0 243.0 L 174.0 243.0 L 174.0 244.0 L 174.0 245.0 L 174.0 246.0 L 174.0 247.0 L 174.0 247.0 L 174.0 248.0 L 175.0 248.0 L 175.0 249.0 L 175.0 250.0 L 176.0 250.0 L 176.0 250.0 L 177.0 251.0 L 177.0 251.0 L 178.0 251.0 L 179.0 252.0 L 180.0 252.0 L 181.0 252.0 L 182.0 252.0 L 183.0 252.0 L 184.0 252.0 L 185.0 252.0 L 187.0 252.0 L 188.0 252.0 L 189.0 251.0 L 190.0 251.0 L 191.0 251.0 L 192.0 251.0 L 193.0 251.0 L 194.0 251.0 L 195.0 251.0 L 196.0 251.0 L 196.0 251.0 L 197.0 251.0 L 198.0 251.0 L 199.0 250.0 L 200.0 250.0 L 201.0 250.0 L 202.0 250.0 L 203.0 250.0 L 204.0 250.0 L 206.0 250.0 L 207.0 250.0 L 208.0 249.0 L 210.0 249.0 L 211.0 249.0 L 213.0 249.0 L 214.0 249.0 L 216.0 249.0 L 217.0 249.0 L 219.0 249.0 L 221.0 249.0 L 222.0 249.0 L 224.0 249.0 L 226.0 249.0 L 227.0 249.0 L 229.0 249.0 L 230.0 249.0 L 232.0 249.0 L 233.0 249.0 L 234.0 249.0 L 235.0 249.0 L 236.0 249.0 L 237.0 248.0 L 237.0 248.0 L 237.0 247.0 L 238.0 247.0 L 238.0 246.0 L 238.0 245.0 L 238.0 244.0 L 238.0 244.0 L 238.0 243.0 L 238.0 242.0 L 238.0 240.0 L 238.0 239.0 L 238.0 238.0 L 238.0 236.0 L 238.0 234.0 L 238.0 232.0 L 237.0 230.0 L 237.0 229.0 " stroke="black" fill="none" stroke-width="5.0" stroke-linecap="round" stroke-linejoin="round" />
</svg>