<svg xmlns="http://www.w3.org/2000/svg" width="300" height="300" viewBox="0 0 300 300">
<path d="M 82.0 83.0 L 80.0 83.0 L 79.0 83.0 L 77.0 83.0 L 76.0 83.0 L 76.0 82.0 L 76.0 82.0 L 76.0 82.0 L 76.0 82.0 L 77.0 82.0 L 79.0 82.0 L 81.0 82.0 L 83.0 82.0 L 86.0 82.0 L 89.0 82.0 L 92.0 83.0 L 95.0 84.0 L 98.0 84.0 L 101.0 85.0 L 103.0 85.0 L 105.0 86.0 L 107.0 86.0 L 108.0 87.0 L 109.0 87.0 L 110.0 87.0 L 110.0 88.0 L 110.0 88.0 L 110.0 89.0 L 110.0 90.0 L 109.0 91.0 L 109.0 92.0 L 108.0 94.0 L 107.0 95.0 L 107.0 97.0 L 106.0 99.0 L 105.0 102.0 L 104.0 104.0 L 103.0 107.0 L 103.0 109.0 L 102.0 112.0 L 101.0 114.0 L 100.0 116.0 L 99.0 117.0 L 98.0 119.0 L 98.0 120.0 L 97.0 121.0 L 96.0 121.0 L 96.0 122.0 L 96.0 123.0 L 96.0 123.0 L 95.0 124.0 L 95.0 124.0 L 95.0 125.0 L 95.0 125.0 L 95.0 126.0 L 96.0 126.0 L 96.0 127.0 L 97.0 128.0 L 98.0 129.0 L 98.0 130.0 L 99.0 132.0 L 100.0 134.0 L 101.0 136.0 L 102.0 138.0 L 103.0 141.0 L 104.0 143.0 L 105.0 146.0 L 106.0 149.0 L 107.0 151.0 L 108.0 154.0 L 108.0 156.0 L 108.0 159.0 L 109.0 162.0 L 109.0 165.0 L 109.0 168.0 L 109.0 171.0 L 109.0 174.0 L 109.0 178.0 L 109.0 181.0 L 108.0 185.0 L 108.0 188.0 L 107.0 191.0 L 106.0 195.0 L 106.0 197.0 L 105.0 199.0 L 105.0 201.0 L 104.0 202.0 L 103.0 202.0 L 102.0 202.0 L 101.0 202.0 L 101.0 202.0 L 99.0 201.0 L 98.0 199.0 L 96.0 197.0 L 95.0 195.0 " stroke="black" fill="none" stroke-width="5.0" stroke-linecap="round" stroke-linejoin="round" />
<path d="M 69.0 84.0 L 69.0 84.0 L 69.0 85.0 L 68.0 86.0 L 68.0 88.0 L 68.0 90.0 L 68.0 94.0 L 68.0 98.0 L 68.0 104.0 L 69.0 111.0 L 69.0 118.0 L 70.0 126.0 L 70.0 134.0 L 71.0 143.0 L 72.0 153.0 L 72.0 161.0 L 73.0 169.0 L 74.0 179.0 L 74.0 189.0 L 74.0 199.0 L 74.0 208.0 L 74.0 215.0 L 74.0 222.0 L 74.0 228.0 L 74.0 233.0 L 74.0 237.0 L 74.0 240.0 L 74.0 241.0 " stroke="black" fill="none" stroke-width="5.0" stroke-linecap="round" stroke-linejoin="round" />
<path d="M 148.0 80.0 L 148.0 80.0 L 148.0 80.0 L 148.0 80.0 L 148.0 80.0 L 147.0 81.0 L 147.0 82.0 L 147.0 85.0 L 147.0 90.0 L 147.0 96.0 L 147.0 104.0 L 147.0 112.0 L 147.0 120.0 L 147.0 125.0 L 147.0 130.0 L 147.0 133.0 L 147.0 133.0 L 147.0 132.0 " stroke="black" fill="none" stroke-width="5.0" stroke-linecap="round" stroke-linejoin="round" />
<path d="M 150.0 83.0 L 150.0 83.0 L 150.0 83.0 L 149.0 82.0 L 149.0 82.0 L 149.0 82.0 L 148.0 82.0 L 148.0 82.0 L 148.0 81.0 L 148.0 81.0 L 148.0 81.0 L 148.0 81.0 L 149.0 81.0 L 150.0 81.0 L 151.0 81.0 L 153.0 81.0 L 155.0 81.0 L 157.0 81.0 L 160.0 81.0 L 163.0 81.0 L 167.0 81.0 L 171.0 81.0 L 175.0 81.0 L 179.0 81.0 L 183.0 81.0 L 186.0 81.0 L 188.0 81.0 L 190.0 81.0 L 192.0 81.0 L 194.0 81.0 L 195.0 81.0 L 196.0 81.0 L 197.0 82.0 L 198.0 82.0 L 200.0 82.0 L 201.0 82.0 L 203.0 82.0 L 204.0 82.0 L 206.0 82.0 L 207.0 82.0 L 209.0 82.0 L 210.0 82.0 L 212.0 82.0 L 213.0 82.0 L 214.0 83.0 L 215.0 83.0 L 216.0 83.0 L 217.0 83.0 L 218.0 84.0 L 218.0 84.0 L 219.0 84.0 L 219.0 85.0 L 220.0 85.0 L 220.0 86.0 L 220.0 87.0 L 221.0 88.0 L 221.0 90.0 L 221.0 93.0 L 221.0 97.0 L 220.0 101.0 L 219.0 107.0 L 218.0 112.0 L 217.0 117.0 L 216.0 121.0 L 215.0 125.0 L 214.0 128.0 L 214.0 130.0 L 214.0 132.0 L 214.0 132.0 L 213.0 133.0 L 212.0 133.0 L 211.0 133.0 L 210.0 133.0 L 207.0 132.0 L 204.0 131.0 " stroke="black" fill="none" stroke-width="5.0" stroke-linecap="round" stroke-linejoin="round" />
<path d="M 156.0 114.0 L 156.0 114.0 L 155.0 113.0 L 155.0 113.0 L 154.0 112.0 L 154.0 112.0 L 155.0 112.0 L 157.0 111.0 L 160.0 111.0 L 165.0 111.0 L 171.0 111.0 L 178.0 111.0 L 184.0 111.0 L 190.0 111.0 L 195.0 111.0 L 198.0 111.0 L 201.0 111.0 L 203.0 111.0 L 204.0 111.0 L 205.0 111.0 L 205.0 111.0 L 205.0 111.0 L 203.0 113.0 " stroke="black" fill="none" stroke-width="5.0" stroke-linecap="round" stroke-linejoin="round" />
<path d="M 163.0 130.0 L 162.0 130.0 L 158.0 131.0 L 156.0 132.0 L 154.0 132.0 L 153.0 133.0 L 153.0 133.0 L 153.0 133.0 L 153.0 133.0 L 155.0 133.0 L 156.0 134.0 L 159.0 134.0 L 163.0 134.0 L 167.0 134.0 L 172.0 135.0 L 178.0 135.0 L 184.0 135.0 L 189.0 135.0 L 194.0 134.0 L 199.0 134.0 " stroke="black" fill="none" stroke-width="5.0" stroke-linecap="round" stroke-linejoin="round" />
<path d="M 125.0 159.0 L 124.0 159.0 L 124.0 159.0 L 123.0 159.0 L 123.0 159.0 L 123.0 159.0 L 123.0 159.0 L 124.0 159.0 L 126.0 159.0 L 129.0 158.0 L 133.0 158.0 L 137.0 158.0 L 142.0 158.0 L 146.0 158.0 L 151.0 158.0 L 155.0 157.0 L 160.0 157.0 L 165.0 157.0 L 169.0 157.0 L 173.0 157.0 L 178.0 157.0 L 181.0 157.0 L 184.0 157.0 L 187.0 157.0 L 189.0 157.0 L 190.0 157.0 L 192.0 157.0 L 193.0 157.0 L 194.0 157.0 L 196.0 157.0 L 197.0 157.0 L 198.0 157.0 L 200.0 156.0 L 202.0 156.0 L 204.0 156.0 L 206.0 155.0 L 208.0 155.0 L 210.0 155.0 L 212.0 155.0 L 213.0 155.0 L 215.0 155.0 L 217.0 155.0 L 218.0 155.0 L 220.0 155.0 L 221.0 155.0 L 222.0 155.0 L 223.0 155.0 L 224.0 155.0 L 224.0 155.0 L 225.0 155.0 L 225.0 155.0 L 225.0 155.0 L 226.0 156.0 " stroke="black" fill="none" stroke-width="5.0" stroke-linecap="round" stroke-linejoin="round" />
<path d="M 162.0 158.0 L 162.0 158.0 L 161.0 158.0 L 160.0 158.0 L 159.0 158.0 L 158.0 158.0 L 158.0 158.0 L 157.0 158.0 L 157.0 159.0 L 156.0 160.0 L 156.0 161.0 L 155.0 163.0 L 154.0 164.0 L 154.0 167.0 L 153.0 169.0 L 152.0 172.0 L 150.0 175.0 L 149.0 179.0 L 147.0 183.0 L 144.0 187.0 L 141.0 191.0 L 138.0 195.0 L 133.0 199.0 L 127.0 203.0 L 122.0 206.0 L 117.0 208.0 L 114.0 210.0 L 112.0 210.0 " stroke="black" fill="none" stroke-width="5.0" stroke-linecap="round" stroke-linejoin="round" />
<path d="M 151.0 184.0 L 151.0 184.0 L 150.0 184.0 L 150.0 184.0 L 149.0 184.0 L 148.0 184.0 L 148.0 184.0 L 148.0 184.0 L 148.0 184.0 L 148.0 184.0 L 148.0 184.0 L 148.0 184.0 L 148.0 183.0 L 149.0 183.0 L 150.0 183.0 L 151.0 183.0 L 152.0 183.0 L 154.0 183.0 L 156.0 183.0 L 158.0 183.0 L 161.0 182.0 L 164.0 182.0 L 168.0 182.0 L 171.0 182.0 L 175.0 182.0 L 178.0 182.0 L 182.0 182.0 L 185.0 182.0 L 187.0 182.0 L 189.0 182.0 L 191.0 182.0 L 193.0 182.0 L 194.0 183.0 L 195.0 183.0 L 196.0 183.0 L 197.0 183.0 L 198.0 183.0 L 199.0 183.0 L 200.0 183.0 L 201.0 183.0 L 202.0 184.0 L 204.0 184.0 L 205.0 184.0 L 206.0 184.0 L 208.0 184.0 L 209.0 184.0 L 211.0 184.0 L 212.0 184.0 L 214.0 185.0 L 215.0 185.0 L 217.0 185.0 L 218.0 185.0 L 220.0 185.0 L 221.0 185.0 L 222.0 185.0 L 223.0 185.0 L 224.0 185.0 L 225.0 185.0 L 226.0 185.0 L 227.0 185.0 L 227.0 185.0 L 228.0 185.0 L 228.0 185.0 L 229.0 186.0 L 229.0 186.0 L 229.0 186.0 L 230.0 187.0 L 230.0 188.0 L 230.0 188.0 L 230.0 189.0 L 230.0 191.0 L 230.0 192.0 L 230.0 194.0 L 230.0 195.0 L 230.0 198.0 L 230.0 200.0 L 230.0 203.0 L 229.0 206.0 L 229.0 210.0 L 228.0 213.0 L 228.0 218.0 L 227.0 221.0 L 226.0 225.0 L 226.0 229.0 L 225.0 232.0 L 225.0 235.0 L 224.0 238.0 L 224.0 241.0 L 223.0 243.0 L 223.0 246.0 L 222.0 247.0 L 221.0 249.0 L 220.0 251.0 L 219.0 252.0 L 219.0 253.0 L 218.0 255.0 L 216.0 255.0 L 215.0 256.0 L 214.0 257.0 L 213.0 257.0 L 212.0 258.0 L 210.0 258.0 L 209.0 257.0 L 208.0 255.0 L 207.0 253.0 L 205.0 250.0 L 203.0 248.0 " stroke="black" fill="none" stroke-width="5.0" stroke-linecap="round" stroke-linejoin="round" />
<path d="M 176.0 186.0 L 176.0 186.0 L 174.0 186.0 L 173.0 186.0 L 173.0 187.0 L 172.0 187.0 L 171.0 189.0 L 170.0 190.0 L 169.0 193.0 L 167.0 196.0 L 165.0 201.0 L 163.0 206.0 L 159.0 211.0 L 156.0 217.0 L 153.0 223.0 L 149.0 228.0 L 146.0 233.0 L 144.0 236.0 L 141.0 238.0 L 140.0 238.0 " stroke="black" fill="none" stroke-width="5.0" stroke-linecap="round" stroke-linejoin="round" />
<path d="M 198.0 191.0 L 198.0 191.0 L 197.0 192.0 L 197.0 192.0 L 197.0 192.0 L 196.0 193.0 L 196.0 193.0 L 196.0 193.0 L 196.0 194.0 L 196.0 195.0 L 196.0 197.0 L 196.0 199.0 L 196.0 201.0 L 195.0 205.0 L 194.0 209.0 L 192.0 214.0 L 190.0 219.0 L 186.0 226.0 L 180.0 232.0 L 173.0 238.0 L 166.0 243.0 L 159.0 248.0 L 154.0 251.0 L 151.0 253.0 L 149.0 254.0 " stroke="black" fill="none" stroke-width="5.0" stroke-linecap="round" stroke-linejoin="round" />
</svg>