<svg xmlns="http://www.w3.org/2000/svg" width="300" height="300" viewBox="0 0 300 300">
<path d="M 65.0 116.0 L 65.0 116.0 L 64.0 116.0 L 64.0 115.0 L 63.0 115.0 L 63.0 114.0 L 62.0 114.0 L 62.0 114.0 L 62.0 114.0 L 62.0 114.0 L 62.0 114.0 L 62.0 114.0 L 63.0 114.0 L 65.0 114.0 L 69.0 114.0 L 73.0 114.0 L 80.0 114.0 L 88.0 114.0 L 96.0 114.0 L 104.0 114.0 L 110.0 114.0 L 114.0 114.0 L 117.0 114.0 L 119.0 114.0 L 121.0 114.0 L 121.0 114.0 " stroke="black" fill="none" stroke-width="5.0" stroke-linecap="round" stroke-linejoin="round" />
<path d="M 94.0 76.0 L 94.0 75.0 L 94.0 75.0 L 93.0 74.0 L 93.0 74.0 L 93.0 74.0 L 92.0 74.0 L 92.0 74.0 L 91.0 74.0 L 91.0 76.0 L 91.0 78.0 L 91.0 81.0 L 91.0 84.0 L 91.0 89.0 L 92.0 95.0 L 92.0 101.0 L 92.0 108.0 L 93.0 116.0 L 93.0 123.0 L 93.0 130.0 L 93.0 138.0 L 93.0 146.0 L 93.0 155.0 L 93.0 163.0 L 93.0 170.0 L 94.0 178.0 L 94.0 185.0 L 94.0 192.0 L 94.0 198.0 L 94.0 204.0 L 95.0 209.0 L 95.0 214.0 L 95.0 221.0 L 95.0 227.0 L 95.0 232.0 L 95.0 237.0 L 95.0 241.0 L 95.0 243.0 L 95.0 244.0 L 95.0 244.0 L 95.0 244.0 " stroke="black" fill="none" stroke-width="5.0" stroke-linecap="round" stroke-linejoin="round" />
<path d="M 92.0 130.0 L 92.0 130.0 L 92.0 129.0 L 92.0 128.0 L 92.0 128.0 L 92.0 127.0 L 92.0 127.0 L 92.0 126.0 L 92.0 126.0 L 92.0 125.0 L 92.0 125.0 L 92.0 125.0 L 92.0 125.0 L 92.0 125.0 L 92.0 125.0 L 92.0 125.0 L 92.0 127.0 L 91.0 130.0 L 90.0 134.0 L 89.0 138.0 L 87.0 144.0 L 84.0 150.0 L 81.0 157.0 L 78.0 164.0 L 74.0 172.0 L 71.0 179.0 L 68.0 186.0 L 65.0 191.0 L 63.0 196.0 L 62.0 198.0 L 61.0 199.0 " stroke="black" fill="none" stroke-width="5.0" stroke-linecap="round" stroke-linejoin="round" />
<path d="M 99.0 142.0 L 99.0 142.0 L 98.0 141.0 L 97.0 141.0 L 96.0 140.0 L 95.0 139.0 L 95.0 139.0 L 94.0 139.0 L 94.0 139.0 L 94.0 139.0 L 94.0 139.0 L 95.0 140.0 L 97.0 142.0 L 99.0 144.0 L 102.0 147.0 L 105.0 149.0 L 108.0 152.0 L 112.0 155.0 L 115.0 157.0 L 120.0 160.0 L 124.0 162.0 L 128.0 164.0 " stroke="black" fill="none" stroke-width="5.0" stroke-linecap="round" stroke-linejoin="round" />
<path d="M 151.0 110.0 L 151.0 109.0 L 150.0 108.0 L 149.0 107.0 L 148.0 107.0 L 148.0 106.0 L 147.0 106.0 L 147.0 105.0 L 147.0 105.0 L 147.0 105.0 L 147.0 105.0 L 149.0 105.0 L 150.0 105.0 L 153.0 106.0 L 156.0 107.0 L 161.0 107.0 L 168.0 108.0 L 176.0 109.0 L 185.0 109.0 L 193.0 109.0 L 201.0 109.0 L 208.0 108.0 L 215.0 107.0 L 222.0 105.0 L 227.0 104.0 L 230.0 104.0 L 231.0 103.0 L 232.0 103.0 L 231.0 103.0 " stroke="black" fill="none" stroke-width="5.0" stroke-linecap="round" stroke-linejoin="round" />
<path d="M 187.0 81.0 L 187.0 81.0 L 186.0 80.0 L 186.0 79.0 L 185.0 79.0 L 185.0 78.0 L 185.0 78.0 L 184.0 78.0 L 184.0 80.0 L 184.0 82.0 L 184.0 85.0 L 184.0 90.0 L 184.0 97.0 L 184.0 103.0 L 184.0 111.0 L 184.0 120.0 L 184.0 127.0 L 184.0 134.0 L 184.0 141.0 L 184.0 146.0 L 184.0 148.0 " stroke="black" fill="none" stroke-width="5.0" stroke-linecap="round" stroke-linejoin="round" />
<path d="M 154.0 153.0 L 154.0 153.0 L 154.0 153.0 L 154.0 152.0 L 154.0 152.0 L 154.0 152.0 L 154.0 151.0 L 154.0 151.0 L 153.0 151.0 L 153.0 151.0 L 153.0 151.0 L 153.0 151.0 L 153.0 151.0 L 153.0 151.0 L 153.0 151.0 L 153.0 151.0 L 154.0 151.0 L 156.0 151.0 L 158.0 152.0 L 161.0 152.0 L 166.0 153.0 L 171.0 153.0 L 177.0 153.0 L 182.0 153.0 L 188.0 153.0 L 192.0 153.0 L 196.0 153.0 L 199.0 153.0 L 202.0 152.0 L 204.0 152.0 L 207.0 152.0 L 209.0 152.0 L 211.0 152.0 L 213.0 152.0 L 215.0 152.0 L 217.0 152.0 L 218.0 152.0 L 219.0 152.0 L 220.0 152.0 L 221.0 152.0 L 221.0 152.0 L 221.0 153.0 L 221.0 153.0 L 221.0 153.0 L 221.0 153.0 L 221.0 154.0 L 221.0 154.0 L 221.0 154.0 L 221.0 155.0 L 221.0 155.0 L 220.0 156.0 L 219.0 157.0 L 219.0 158.0 L 218.0 159.0 L 217.0 160.0 L 217.0 161.0 L 216.0 163.0 L 215.0 164.0 L 214.0 166.0 L 213.0 168.0 L 212.0 170.0 L 211.0 171.0 L 209.0 174.0 L 208.0 176.0 L 206.0 178.0 L 205.0 182.0 L 203.0 185.0 L 200.0 188.0 L 198.0 192.0 L 196.0 195.0 L 193.0 198.0 L 191.0 202.0 L 188.0 205.0 L 185.0 207.0 L 182.0 211.0 L 178.0 214.0 L 173.0 217.0 L 168.0 220.0 L 164.0 223.0 L 160.0 227.0 L 156.0 230.0 L 153.0 232.0 L 150.0 235.0 L 148.0 237.0 L 146.0 238.0 L 143.0 240.0 L 140.0 241.0 L 137.0 242.0 L 134.0 243.0 L 131.0 244.0 L 130.0 244.0 " stroke="black" fill="none" stroke-width="5.0" stroke-linecap="round" stroke-linejoin="round" />
<path d="M 150.0 161.0 L 150.0 161.0 L 150.0 161.0 L 150.0 160.0 L 150.0 159.0 L 150.0 159.0 L 150.0 159.0 L 150.0 159.0 L 150.0 159.0 L 150.0 159.0 L 150.0 160.0 L 150.0 161.0 L 150.0 162.0 L 150.0 164.0 L 151.0 166.0 L 151.0 168.0 L 152.0 171.0 L 154.0 175.0 L 155.0 179.0 L 157.0 183.0 L 159.0 188.0 L 161.0 192.0 L 164.0 196.0 L 166.0 201.0 L 169.0 204.0 L 171.0 207.0 L 174.0 211.0 L 176.0 214.0 L 178.0 216.0 L 180.0 219.0 L 182.0 222.0 L 185.0 225.0 L 187.0 227.0 L 189.0 229.0 L 191.0 231.0 L 193.0 233.0 L 194.0 235.0 L 196.0 237.0 L 198.0 239.0 L 200.0 241.0 L 201.0 243.0 L 204.0 245.0 L 206.0 247.0 L 208.0 248.0 L 210.0 249.0 L 213.0 250.0 L 215.0 250.0 L 217.0 251.0 L 219.0 252.0 L 221.0 252.0 L 223.0 253.0 L 225.0 253.0 L 226.0 253.0 L 227.0 253.0 " stroke="black" fill="none" stroke-width="5.0" stroke-linecap="round" stroke-linejoin="round" />
</svg>