<svg xmlns="http://www.w3.org/2000/svg" width="300" height="300" viewBox="0 0 300 300">
<path d="M 65.0 84.0 L 65.0 84.0 L 65.0 84.0 L 64.0 84.0 L 64.0 84.0 L 64.0 84.0 L 64.0 84.0 L 64.0 84.0 L 64.0 85.0 L 64.0 86.0 L 64.0 88.0 L 65.0 91.0 L 66.0 95.0 L 68.0 99.0 L 69.0 104.0 L 71.0 108.0 L 73.0 113.0 L 75.0 116.0 L 76.0 119.0 L 78.0 122.0 " stroke="black" fill="none" stroke-width="5.0" stroke-linecap="round" stroke-linejoin="round" />
<path d="M 118.0 84.0 L 118.0 84.0 L 118.0 84.0 L 118.0 85.0 L 118.0 85.0 L 118.0 85.0 L 117.0 85.0 L 117.0 86.0 L 117.0 86.0 L 116.0 89.0 L 116.0 91.0 L 115.0 94.0 L 114.0 98.0 L 113.0 103.0 L 112.0 108.0 L 110.0 114.0 L 109.0 119.0 L 109.0 121.0 " stroke="black" fill="none" stroke-width="5.0" stroke-linecap="round" stroke-linejoin="round" />
<path d="M 66.0 140.0 L 66.0 140.0 L 66.0 140.0 L 66.0 140.0 L 66.0 140.0 L 65.0 141.0 L 65.0 141.0 L 65.0 141.0 L 65.0 141.0 L 65.0 141.0 L 65.0 141.0 L 65.0 141.0 L 65.0 142.0 L 65.0 142.0 L 66.0 142.0 L 67.0 143.0 L 70.0 143.0 L 74.0 143.0 L 79.0 143.0 L 85.0 143.0 L 93.0 143.0 L 100.0 143.0 L 106.0 142.0 L 110.0 141.0 L 115.0 140.0 L 117.0 140.0 L 120.0 140.0 L 122.0 140.0 L 124.0 141.0 L 124.0 142.0 L 124.0 143.0 " stroke="black" fill="none" stroke-width="5.0" stroke-linecap="round" stroke-linejoin="round" />
<path d="M 96.0 77.0 L 96.0 77.0 L 96.0 77.0 L 96.0 78.0 L 96.0 78.0 L 96.0 79.0 L 96.0 79.0 L 95.0 80.0 L 95.0 81.0 L 95.0 82.0 L 95.0 84.0 L 95.0 87.0 L 95.0 90.0 L 95.0 93.0 L 95.0 98.0 L 95.0 103.0 L 95.0 107.0 L 96.0 111.0 L 96.0 115.0 L 96.0 119.0 L 96.0 122.0 L 96.0 125.0 L 96.0 128.0 L 96.0 130.0 L 96.0 133.0 L 96.0 136.0 L 96.0 139.0 L 96.0 142.0 L 96.0 145.0 L 96.0 148.0 L 96.0 151.0 L 96.0 154.0 L 96.0 157.0 L 96.0 159.0 L 95.0 161.0 L 95.0 163.0 L 95.0 165.0 L 95.0 167.0 L 95.0 168.0 L 95.0 171.0 L 95.0 173.0 L 95.0 175.0 L 95.0 178.0 L 95.0 180.0 L 95.0 183.0 L 95.0 186.0 L 95.0 188.0 L 95.0 190.0 L 95.0 193.0 L 95.0 195.0 L 95.0 196.0 L 95.0 199.0 L 95.0 201.0 L 95.0 203.0 L 95.0 206.0 L 95.0 208.0 L 94.0 211.0 L 94.0 214.0 L 94.0 217.0 L 94.0 220.0 L 94.0 222.0 L 94.0 225.0 L 94.0 227.0 L 94.0 229.0 L 94.0 232.0 L 94.0 234.0 L 94.0 236.0 L 94.0 239.0 L 93.0 241.0 L 93.0 244.0 L 93.0 247.0 L 93.0 250.0 L 93.0 253.0 L 93.0 255.0 L 93.0 257.0 L 93.0 259.0 L 93.0 260.0 L 93.0 261.0 L 93.0 261.0 " stroke="black" fill="none" stroke-width="5.0" stroke-linecap="round" stroke-linejoin="round" />
<path d="M 78.0 170.0 L 78.0 170.0 L 78.0 170.0 L 77.0 170.0 L 77.0 170.0 L 77.0 170.0 L 76.0 170.0 L 76.0 171.0 L 75.0 172.0 L 74.0 174.0 L 73.0 178.0 L 71.0 182.0 L 69.0 189.0 L 67.0 195.0 L 65.0 201.0 L 63.0 207.0 L 62.0 211.0 L 61.0 215.0 " stroke="black" fill="none" stroke-width="5.0" stroke-linecap="round" stroke-linejoin="round" />
<path d="M 106.0 167.0 L 106.0 167.0 L 105.0 167.0 L 105.0 167.0 L 105.0 168.0 L 105.0 168.0 L 105.0 169.0 L 105.0 170.0 L 107.0 172.0 L 108.0 175.0 L 110.0 178.0 L 112.0 182.0 L 115.0 186.0 L 118.0 191.0 L 120.0 195.0 L 122.0 198.0 L 123.0 200.0 L 123.0 202.0 " stroke="black" fill="none" stroke-width="5.0" stroke-linecap="round" stroke-linejoin="round" />
<path d="M 143.0 89.0 L 143.0 89.0 L 143.0 89.0 L 143.0 89.0 L 143.0 89.0 L 143.0 89.0 L 143.0 89.0 L 143.0 89.0 L 143.0 90.0 L 143.0 90.0 L 143.0 90.0 L 143.0 90.0 L 143.0 90.0 L 143.0 90.0 L 143.0 90.0 L 144.0 90.0 L 145.0 90.0 L 146.0 90.0 L 147.0 91.0 L 148.0 91.0 L 149.0 91.0 L 150.0 91.0 L 151.0 91.0 L 152.0 91.0 L 153.0 91.0 L 154.0 91.0 L 155.0 91.0 L 156.0 91.0 L 158.0 91.0 L 159.0 91.0 L 160.0 91.0 L 161.0 91.0 L 163.0 91.0 L 164.0 91.0 L 166.0 91.0 L 168.0 91.0 L 169.0 91.0 L 170.0 91.0 L 172.0 91.0 L 173.0 91.0 L 174.0 91.0 L 175.0 90.0 L 176.0 90.0 L 177.0 90.0 L 178.0 90.0 L 178.0 90.0 L 179.0 90.0 L 180.0 90.0 L 181.0 90.0 L 182.0 90.0 L 183.0 90.0 L 184.0 90.0 L 184.0 90.0 L 185.0 90.0 L 185.0 90.0 L 186.0 90.0 L 187.0 90.0 L 187.0 90.0 L 188.0 90.0 L 189.0 90.0 L 189.0 90.0 L 190.0 90.0 L 191.0 90.0 L 191.0 90.0 L 192.0 90.0 L 193.0 90.0 L 193.0 90.0 L 194.0 90.0 L 195.0 90.0 L 196.0 90.0 L 196.0 90.0 L 197.0 90.0 L 198.0 90.0 L 199.0 90.0 L 200.0 90.0 L 201.0 90.0 L 202.0 90.0 L 204.0 90.0 L 205.0 90.0 L 206.0 90.0 L 207.0 90.0 L 209.0 90.0 L 211.0 91.0 L 213.0 91.0 L 215.0 91.0 L 217.0 91.0 L 219.0 91.0 L 222.0 91.0 L 224.0 91.0 L 227.0 91.0 L 229.0 91.0 L 231.0 91.0 L 233.0 91.0 L 234.0 91.0 L 235.0 91.0 L 235.0 91.0 L 236.0 91.0 L 236.0 91.0 " stroke="black" fill="none" stroke-width="5.0" stroke-linecap="round" stroke-linejoin="round" />
<path d="M 144.0 116.0 L 144.0 116.0 L 144.0 116.0 L 144.0 116.0 L 144.0 116.0 L 144.0 116.0 L 144.0 116.0 L 144.0 116.0 L 145.0 116.0 L 145.0 116.0 L 145.0 116.0 L 145.0 116.0 L 145.0 116.0 L 145.0 116.0 L 146.0 116.0 L 146.0 116.0 L 146.0 116.0 L 147.0 116.0 L 147.0 116.0 L 148.0 116.0 L 148.0 116.0 L 149.0 116.0 L 150.0 116.0 L 151.0 117.0 L 152.0 117.0 L 153.0 117.0 L 154.0 117.0 L 155.0 117.0 L 157.0 118.0 L 158.0 118.0 L 159.0 118.0 L 161.0 118.0 L 163.0 118.0 L 164.0 118.0 L 166.0 118.0 L 167.0 118.0 L 169.0 118.0 L 170.0 118.0 L 172.0 118.0 L 174.0 118.0 L 175.0 118.0 L 177.0 118.0 L 178.0 118.0 L 179.0 118.0 L 180.0 118.0 L 181.0 118.0 L 182.0 118.0 L 183.0 118.0 L 184.0 118.0 L 184.0 118.0 L 185.0 118.0 L 186.0 118.0 L 187.0 118.0 L 188.0 118.0 L 189.0 118.0 L 190.0 118.0 L 191.0 118.0 L 192.0 118.0 L 193.0 118.0 L 194.0 118.0 L 194.0 118.0 L 195.0 118.0 L 197.0 118.0 L 198.0 118.0 L 199.0 118.0 L 200.0 118.0 L 202.0 118.0 L 203.0 118.0 L 205.0 118.0 L 207.0 118.0 L 209.0 118.0 L 211.0 117.0 L 213.0 117.0 L 215.0 117.0 L 217.0 117.0 L 219.0 117.0 L 221.0 117.0 L 223.0 116.0 L 225.0 116.0 L 227.0 116.0 L 228.0 116.0 L 229.0 116.0 L 230.0 116.0 L 231.0 116.0 L 231.0 116.0 L 232.0 115.0 L 232.0 115.0 " stroke="black" fill="none" stroke-width="5.0" stroke-linecap="round" stroke-linejoin="round" />
<path d="M 189.0 72.0 L 189.0 72.0 L 189.0 72.0 L 189.0 72.0 L 189.0 73.0 L 189.0 73.0 L 189.0 74.0 L 189.0 75.0 L 189.0 76.0 L 189.0 78.0 L 189.0 80.0 L 189.0 83.0 L 189.0 86.0 L 189.0 91.0 L 189.0 96.0 L 189.0 102.0 L 189.0 108.0 L 189.0 114.0 L 188.0 120.0 L 187.0 124.0 L 187.0 127.0 L 186.0 130.0 L 186.0 131.0 L 186.0 132.0 L 186.0 132.0 L 186.0 132.0 L 186.0 131.0 " stroke="black" fill="none" stroke-width="5.0" stroke-linecap="round" stroke-linejoin="round" />
<path d="M 135.0 141.0 L 135.0 141.0 L 135.0 141.0 L 135.0 141.0 L 135.0 141.0 L 135.0 141.0 L 135.0 141.0 L 135.0 141.0 L 135.0 141.0 L 135.0 141.0 L 135.0 141.0 L 135.0 141.0 L 135.0 141.0 L 136.0 140.0 L 136.0 140.0 L 137.0 140.0 L 138.0 140.0 L 138.0 140.0 L 139.0 140.0 L 140.0 140.0 L 142.0 140.0 L 143.0 140.0 L 144.0 140.0 L 146.0 140.0 L 147.0 140.0 L 148.0 140.0 L 149.0 140.0 L 151.0 140.0 L 152.0 140.0 L 153.0 140.0 L 154.0 140.0 L 155.0 141.0 L 156.0 141.0 L 157.0 141.0 L 158.0 141.0 L 158.0 141.0 L 160.0 141.0 L 160.0 141.0 L 161.0 141.0 L 163.0 141.0 L 164.0 141.0 L 164.0 141.0 L 166.0 141.0 L 167.0 141.0 L 168.0 141.0 L 169.0 141.0 L 170.0 141.0 L 171.0 141.0 L 172.0 141.0 L 173.0 141.0 L 175.0 141.0 L 176.0 141.0 L 177.0 141.0 L 178.0 141.0 L 180.0 141.0 L 181.0 140.0 L 182.0 140.0 L 183.0 140.0 L 184.0 140.0 L 185.0 140.0 L 187.0 139.0 L 188.0 139.0 L 189.0 139.0 L 190.0 139.0 L 191.0 139.0 L 191.0 139.0 L 192.0 139.0 L 193.0 139.0 L 194.0 139.0 L 195.0 139.0 L 195.0 139.0 L 196.0 139.0 L 197.0 139.0 L 197.0 139.0 L 198.0 139.0 L 199.0 139.0 L 199.0 139.0 L 200.0 139.0 L 201.0 139.0 L 202.0 139.0 L 203.0 139.0 L 204.0 139.0 L 205.0 139.0 L 206.0 139.0 L 207.0 139.0 L 209.0 139.0 L 210.0 138.0 L 212.0 138.0 L 214.0 138.0 L 216.0 138.0 L 218.0 137.0 L 220.0 137.0 L 221.0 137.0 L 223.0 137.0 L 224.0 137.0 L 226.0 137.0 L 227.0 137.0 L 228.0 137.0 L 230.0 137.0 L 231.0 137.0 L 232.0 137.0 L 233.0 137.0 L 234.0 137.0 L 235.0 137.0 L 236.0 137.0 L 237.0 137.0 L 238.0 137.0 L 239.0 137.0 L 240.0 137.0 L 240.0 137.0 L 240.0 137.0 L 241.0 137.0 L 241.0 137.0 L 241.0 137.0 " stroke="black" fill="none" stroke-width="5.0" stroke-linecap="round" stroke-linejoin="round" />
<path d="M 146.0 162.0 L 146.0 162.0 L 146.0 162.0 L 146.0 162.0 L 146.0 162.0 L 146.0 163.0 L 146.0 163.0 L 146.0 163.0 L 146.0 163.0 L 146.0 164.0 L 146.0 164.0 L 146.0 164.0 L 146.0 165.0 L 147.0 166.0 L 147.0 167.0 L 147.0 168.0 L 147.0 169.0 L 148.0 170.0 L 148.0 172.0 L 148.0 173.0 L 148.0 175.0 L 148.0 178.0 L 149.0 180.0 L 149.0 182.0 L 149.0 184.0 L 149.0 186.0 L 149.0 188.0 L 149.0 190.0 L 149.0 191.0 L 149.0 193.0 L 149.0 194.0 L 149.0 196.0 L 149.0 197.0 L 149.0 199.0 L 149.0 200.0 L 149.0 201.0 L 149.0 203.0 L 149.0 204.0 L 149.0 205.0 L 149.0 206.0 L 149.0 207.0 L 149.0 208.0 L 149.0 210.0 L 149.0 211.0 L 149.0 212.0 L 148.0 214.0 L 148.0 215.0 L 148.0 216.0 L 148.0 218.0 L 148.0 219.0 L 148.0 220.0 L 148.0 222.0 L 147.0 223.0 L 147.0 224.0 L 147.0 226.0 L 147.0 227.0 L 146.0 229.0 L 146.0 230.0 L 146.0 232.0 L 146.0 233.0 L 145.0 234.0 L 145.0 236.0 L 145.0 237.0 L 144.0 239.0 L 144.0 240.0 L 144.0 241.0 L 143.0 243.0 L 143.0 245.0 L 142.0 247.0 L 141.0 249.0 L 140.0 251.0 L 139.0 253.0 L 138.0 255.0 L 137.0 257.0 L 137.0 258.0 L 136.0 259.0 L 136.0 259.0 L 136.0 259.0 " stroke="black" fill="none" stroke-width="5.0" stroke-linecap="round" stroke-linejoin="round" />
<path d="M 151.0 164.0 L 151.0 164.0 L 151.0 164.0 L 151.0 164.0 L 151.0 164.0 L 151.0 164.0 L 151.0 164.0 L 151.0 164.0 L 151.0 164.0 L 151.0 164.0 L 151.0 164.0 L 151.0 164.0 L 151.0 164.0 L 151.0 164.0 L 151.0 164.0 L 151.0 164.0 L 151.0 164.0 L 152.0 164.0 L 153.0 164.0 L 154.0 164.0 L 155.0 164.0 L 157.0 164.0 L 159.0 164.0 L 161.0 164.0 L 163.0 164.0 L 164.0 164.0 L 166.0 164.0 L 168.0 163.0 L 170.0 163.0 L 171.0 163.0 L 173.0 163.0 L 174.0 163.0 L 175.0 162.0 L 177.0 162.0 L 178.0 162.0 L 179.0 162.0 L 180.0 162.0 L 181.0 162.0 L 183.0 162.0 L 184.0 162.0 L 185.0 162.0 L 186.0 162.0 L 187.0 162.0 L 188.0 162.0 L 189.0 162.0 L 190.0 162.0 L 191.0 162.0 L 191.0 162.0 L 192.0 162.0 L 193.0 162.0 L 193.0 162.0 L 194.0 162.0 L 194.0 162.0 L 195.0 162.0 L 195.0 162.0 L 196.0 162.0 L 196.0 162.0 L 197.0 162.0 L 198.0 162.0 L 199.0 162.0 L 199.0 162.0 L 200.0 162.0 L 201.0 161.0 L 201.0 161.0 L 202.0 161.0 L 202.0 161.0 L 203.0 161.0 L 204.0 161.0 L 204.0 161.0 L 205.0 161.0 L 205.0 161.0 L 206.0 161.0 L 207.0 161.0 L 208.0 161.0 L 209.0 161.0 L 210.0 161.0 L 211.0 161.0 L 212.0 161.0 L 213.0 161.0 L 215.0 161.0 L 216.0 161.0 L 217.0 161.0 L 219.0 161.0 L 220.0 161.0 L 221.0 161.0 L 222.0 161.0 L 223.0 161.0 L 224.0 161.0 L 225.0 161.0 L 225.0 161.0 L 226.0 161.0 L 227.0 161.0 L 227.0 161.0 L 228.0 161.0 L 228.0 161.0 L 229.0 161.0 L 229.0 161.0 L 229.0 161.0 L 229.0 162.0 L 230.0 162.0 L 230.0 163.0 L 230.0 164.0 L 230.0 165.0 L 230.0 166.0 L 230.0 167.0 L 230.0 168.0 L 230.0 169.0 L 230.0 171.0 L 230.0 172.0 L 230.0 173.0 L 230.0 175.0 L 230.0 176.0 L 230.0 178.0 L 229.0 180.0 L 229.0 182.0 L 229.0 184.0 L 229.0 187.0 L 229.0 189.0 L 229.0 191.0 L 228.0 194.0 L 228.0 196.0 L 228.0 198.0 L 228.0 201.0 L 227.0 203.0 L 227.0 206.0 L 227.0 208.0 L 227.0 211.0 L 226.0 213.0 L 226.0 216.0 L 225.0 218.0 L 225.0 221.0 L 225.0 224.0 L 224.0 226.0 L 224.0 229.0 L 224.0 231.0 L 223.0 232.0 L 223.0 234.0 L 223.0 235.0 L 223.0 236.0 L 222.0 237.0 L 222.0 239.0 L 222.0 240.0 L 222.0 241.0 L 221.0 243.0 L 221.0 244.0 L 221.0 245.0 L 221.0 246.0 L 221.0 247.0 L 220.0 248.0 L 220.0 249.0 L 220.0 250.0 L 220.0 252.0 L 219.0 253.0 L 219.0 254.0 L 219.0 255.0 L 219.0 256.0 L 219.0 257.0 L 218.0 258.0 L 218.0 259.0 L 218.0 260.0 L 217.0 260.0 L 217.0 261.0 L 217.0 261.0 L 216.0 261.0 L 216.0 262.0 L 215.0 262.0 L 215.0 262.0 L 214.0 262.0 L 214.0 262.0 L 213.0 262.0 L 212.0 262.0 L 212.0 262.0 L 211.0 262.0 L 209.0 261.0 L 208.0 261.0 L 207.0 260.0 L 205.0 259.0 L 203.0 258.0 L 201.0 257.0 L 199.0 256.0 L 197.0 255.0 L 196.0 254.0 L 194.0 252.0 L 193.0 251.0 " stroke="black" fill="none" stroke-width="5.0" stroke-linecap="round" stroke-linejoin="round" />
<path d="M 160.0 189.0 L 160.0 189.0 L 160.0 189.0 L 159.0 189.0 L 158.0 189.0 L 157.0 189.0 L 157.0 189.0 L 156.0 189.0 L 156.0 189.0 L 156.0 189.0 L 156.0 189.0 L 156.0 189.0 L 156.0 189.0 L 158.0 190.0 L 159.0 190.0 L 162.0 190.0 L 165.0 191.0 L 170.0 191.0 L 174.0 191.0 L 180.0 191.0 L 185.0 191.0 L 191.0 191.0 L 195.0 191.0 L 200.0 191.0 L 203.0 190.0 L 206.0 190.0 L 209.0 189.0 L 211.0 189.0 L 213.0 189.0 L 214.0 189.0 L 215.0 190.0 L 215.0 191.0 L 215.0 192.0 L 215.0 193.0 " stroke="black" fill="none" stroke-width="5.0" stroke-linecap="round" stroke-linejoin="round" />
<path d="M 153.0 212.0 L 153.0 212.0 L 153.0 213.0 L 152.0 213.0 L 152.0 213.0 L 152.0 214.0 L 151.0 214.0 L 151.0 214.0 L 151.0 215.0 L 152.0 215.0 L 153.0 215.0 L 155.0 215.0 L 158.0 215.0 L 162.0 215.0 L 166.0 215.0 L 172.0 215.0 L 178.0 214.0 L 183.0 214.0 L 189.0 214.0 L 194.0 214.0 L 198.0 214.0 L 202.0 213.0 L 205.0 213.0 L 207.0 212.0 L 210.0 212.0 L 212.0 212.0 L 213.0 212.0 L 215.0 212.0 L 218.0 212.0 " stroke="black" fill="none" stroke-width="5.0" stroke-linecap="round" stroke-linejoin="round" />
</svg>