<svg xmlns="http://www.w3.org/2000/svg" width="300" height="300" viewBox="0 0 300 300">
<path d="M 103.0 77.0 L 103.0 77.0 L 103.0 77.0 L 103.0 76.0 L 102.0 76.0 L 102.0 75.0 L 102.0 75.0 L 102.0 75.0 L 102.0 74.0 L 102.0 74.0 L 102.0 74.0 L 102.0 74.0 L 102.0 74.0 L 102.0 74.0 L 102.0 75.0 L 102.0 77.0 L 102.0 79.0 L 102.0 82.0 L 102.0 85.0 L 102.0 90.0 L 101.0 95.0 L 100.0 100.0 L 99.0 106.0 L 97.0 112.0 L 94.0 117.0 L 91.0 123.0 L 87.0 128.0 L 83.0 132.0 L 79.0 138.0 L 75.0 142.0 L 73.0 146.0 L 71.0 148.0 " stroke="black" fill="none" stroke-width="5.0" stroke-linecap="round" stroke-linejoin="round" />
<path d="M 103.0 116.0 L 102.0 116.0 L 102.0 116.0 L 101.0 116.0 L 101.0 116.0 L 101.0 116.0 L 100.0 116.0 L 100.0 116.0 L 100.0 116.0 L 100.0 116.0 L 100.0 116.0 L 100.0 116.0 L 100.0 116.0 L 101.0 116.0 L 102.0 116.0 L 102.0 116.0 L 103.0 116.0 L 104.0 116.0 L 104.0 116.0 L 105.0 116.0 L 106.0 116.0 L 106.0 116.0 L 107.0 116.0 L 108.0 116.0 L 108.0 116.0 L 109.0 116.0 L 110.0 116.0 L 111.0 116.0 L 112.0 116.0 L 113.0 116.0 L 114.0 116.0 L 115.0 116.0 L 116.0 116.0 L 118.0 116.0 L 119.0 116.0 L 120.0 116.0 L 121.0 116.0 L 123.0 116.0 L 124.0 116.0 L 125.0 116.0 L 126.0 116.0 L 128.0 116.0 L 129.0 116.0 L 130.0 116.0 L 131.0 116.0 L 133.0 116.0 L 134.0 116.0 L 135.0 116.0 L 136.0 116.0 L 137.0 116.0 L 138.0 116.0 L 139.0 116.0 L 140.0 116.0 L 141.0 116.0 L 142.0 116.0 L 143.0 116.0 L 144.0 116.0 L 145.0 116.0 L 146.0 116.0 L 146.0 116.0 L 148.0 116.0 L 148.0 116.0 L 149.0 116.0 L 150.0 116.0 L 151.0 117.0 L 152.0 117.0 L 152.0 117.0 L 153.0 117.0 L 154.0 117.0 L 155.0 117.0 L 155.0 117.0 L 156.0 117.0 L 157.0 117.0 L 158.0 117.0 L 159.0 117.0 L 160.0 117.0 L 161.0 117.0 L 163.0 117.0 L 164.0 117.0 L 166.0 117.0 L 167.0 118.0 L 169.0 118.0 L 171.0 118.0 L 173.0 118.0 L 175.0 118.0 L 177.0 118.0 L 179.0 119.0 L 181.0 119.0 L 184.0 119.0 L 186.0 119.0 L 189.0 119.0 L 191.0 119.0 L 193.0 119.0 L 195.0 119.0 L 197.0 119.0 L 199.0 119.0 L 201.0 119.0 L 202.0 119.0 L 204.0 119.0 L 206.0 119.0 L 207.0 118.0 L 209.0 118.0 L 210.0 118.0 L 211.0 118.0 L 212.0 118.0 L 212.0 118.0 " stroke="black" fill="none" stroke-width="5.0" stroke-linecap="round" stroke-linejoin="round" />
<path d="M 93.0 172.0 L 93.0 172.0 L 93.0 172.0 L 93.0 172.0 L 93.0 172.0 L 93.0 172.0 L 93.0 172.0 L 93.0 172.0 L 93.0 172.0 L 93.0 172.0 L 93.0 172.0 L 93.0 172.0 L 94.0 172.0 L 95.0 172.0 L 96.0 172.0 L 98.0 172.0 L 100.0 172.0 L 101.0 172.0 L 103.0 172.0 L 106.0 172.0 L 108.0 172.0 L 110.0 172.0 L 112.0 172.0 L 114.0 172.0 L 117.0 172.0 L 119.0 172.0 L 122.0 172.0 L 125.0 172.0 L 127.0 172.0 L 130.0 172.0 L 133.0 172.0 L 135.0 172.0 L 137.0 172.0 L 139.0 172.0 L 141.0 172.0 L 143.0 172.0 L 145.0 172.0 L 146.0 172.0 L 148.0 171.0 L 149.0 171.0 L 150.0 171.0 L 152.0 171.0 L 153.0 171.0 L 154.0 171.0 L 155.0 171.0 L 156.0 171.0 L 158.0 171.0 L 159.0 171.0 L 161.0 171.0 L 163.0 171.0 L 165.0 171.0 L 167.0 171.0 L 170.0 171.0 L 172.0 171.0 L 175.0 171.0 L 177.0 171.0 L 180.0 171.0 L 182.0 171.0 L 184.0 171.0 L 186.0 171.0 L 188.0 171.0 L 190.0 172.0 L 192.0 172.0 L 193.0 173.0 L 195.0 173.0 L 196.0 173.0 L 198.0 174.0 L 200.0 174.0 L 201.0 174.0 L 203.0 174.0 L 205.0 174.0 L 207.0 173.0 L 208.0 173.0 L 210.0 173.0 L 210.0 173.0 " stroke="black" fill="none" stroke-width="5.0" stroke-linecap="round" stroke-linejoin="round" />
<path d="M 149.0 73.0 L 149.0 73.0 L 149.0 73.0 L 149.0 73.0 L 149.0 73.0 L 149.0 73.0 L 149.0 74.0 L 149.0 75.0 L 149.0 76.0 L 149.0 78.0 L 149.0 80.0 L 149.0 83.0 L 149.0 86.0 L 149.0 90.0 L 149.0 95.0 L 150.0 100.0 L 150.0 105.0 L 150.0 109.0 L 150.0 114.0 L 150.0 117.0 L 150.0 121.0 L 150.0 124.0 L 151.0 128.0 L 151.0 131.0 L 151.0 135.0 L 151.0 139.0 L 152.0 144.0 L 152.0 149.0 L 152.0 153.0 L 152.0 157.0 L 152.0 162.0 L 152.0 165.0 L 152.0 169.0 L 153.0 174.0 L 153.0 177.0 L 153.0 181.0 L 153.0 186.0 L 153.0 189.0 L 153.0 193.0 L 153.0 197.0 L 153.0 200.0 L 153.0 204.0 L 153.0 207.0 L 153.0 211.0 L 153.0 214.0 L 153.0 218.0 L 153.0 222.0 L 152.0 226.0 L 152.0 230.0 L 152.0 233.0 L 152.0 235.0 L 152.0 237.0 L 152.0 239.0 L 152.0 240.0 L 152.0 240.0 L 152.0 241.0 L 152.0 241.0 L 152.0 241.0 L 152.0 241.0 L 152.0 241.0 " stroke="black" fill="none" stroke-width="5.0" stroke-linecap="round" stroke-linejoin="round" />
<path d="M 66.0 243.0 L 66.0 243.0 L 66.0 243.0 L 66.0 243.0 L 66.0 243.0 L 66.0 243.0 L 66.0 243.0 L 66.0 243.0 L 66.0 243.0 L 66.0 243.0 L 66.0 243.0 L 66.0 243.0 L 66.0 242.0 L 67.0 242.0 L 67.0 242.0 L 68.0 242.0 L 68.0 242.0 L 69.0 242.0 L 70.0 242.0 L 71.0 242.0 L 72.0 242.0 L 73.0 242.0 L 74.0 242.0 L 76.0 242.0 L 77.0 242.0 L 78.0 242.0 L 79.0 243.0 L 80.0 243.0 L 82.0 243.0 L 83.0 243.0 L 84.0 244.0 L 85.0 244.0 L 86.0 244.0 L 88.0 244.0 L 89.0 244.0 L 90.0 244.0 L 91.0 244.0 L 92.0 244.0 L 94.0 244.0 L 95.0 244.0 L 96.0 244.0 L 97.0 244.0 L 98.0 244.0 L 100.0 244.0 L 101.0 244.0 L 102.0 244.0 L 103.0 244.0 L 104.0 244.0 L 105.0 243.0 L 106.0 243.0 L 107.0 243.0 L 108.0 243.0 L 110.0 243.0 L 111.0 243.0 L 112.0 243.0 L 113.0 243.0 L 114.0 243.0 L 115.0 243.0 L 116.0 243.0 L 117.0 243.0 L 118.0 243.0 L 120.0 243.0 L 121.0 243.0 L 122.0 243.0 L 124.0 244.0 L 125.0 244.0 L 126.0 244.0 L 128.0 244.0 L 130.0 245.0 L 131.0 245.0 L 133.0 245.0 L 135.0 245.0 L 138.0 245.0 L 140.0 245.0 L 142.0 245.0 L 144.0 244.0 L 146.0 244.0 L 148.0 244.0 L 149.0 244.0 L 151.0 243.0 L 152.0 243.0 L 153.0 243.0 L 154.0 243.0 L 155.0 242.0 L 156.0 242.0 L 157.0 242.0 L 158.0 242.0 L 160.0 242.0 L 161.0 242.0 L 162.0 242.0 L 163.0 242.0 L 164.0 242.0 L 165.0 242.0 L 167.0 242.0 L 168.0 242.0 L 169.0 242.0 L 171.0 242.0 L 173.0 243.0 L 174.0 243.0 L 176.0 243.0 L 177.0 243.0 L 179.0 243.0 L 180.0 244.0 L 181.0 244.0 L 183.0 244.0 L 184.0 244.0 L 186.0 244.0 L 187.0 244.0 L 189.0 244.0 L 190.0 245.0 L 192.0 245.0 L 193.0 245.0 L 195.0 245.0 L 196.0 245.0 L 197.0 246.0 L 199.0 246.0 L 201.0 246.0 L 202.0 246.0 L 205.0 246.0 L 207.0 246.0 L 209.0 247.0 L 211.0 247.0 L 213.0 247.0 L 216.0 247.0 L 218.0 247.0 L 220.0 247.0 L 222.0 247.0 L 224.0 247.0 L 226.0 247.0 L 228.0 246.0 L 230.0 246.0 L 231.0 246.0 L 232.0 246.0 L 233.0 246.0 L 233.0 246.0 L 233.0 246.0 L 233.0 246.0 L 233.0 246.0 L 233.0 246.0 " stroke="black" fill="none" stroke-width="5.0" stroke-linecap="round" stroke-linejoin="round" />
</svg>