<svg xmlns="http://www.w3.org/2000/svg" width="300" height="300" viewBox="0 0 300 300">
<path d="M 149.0 73.0 L 148.0 73.0 L 147.0 72.0 L 146.0 71.0 L 146.0 71.0 L 146.0 71.0 L 146.0 71.0 L 146.0 72.0 L 146.0 74.0 L 147.0 76.0 L 149.0 79.0 L 151.0 82.0 L 153.0 85.0 L 155.0 88.0 L 158.0 92.0 " stroke="black" fill="none" stroke-width="5.0" stroke-linecap="round" stroke-linejoin="round" />
<path d="M 75.0 111.0 L 75.0 111.0 L 75.0 111.0 L 75.0 111.0 L 75.0 111.0 L 75.0 111.0 L 75.0 111.0 L 75.0 111.0 L 75.0 111.0 L 75.0 111.0 L 75.0 111.0 L 75.0 111.0 L 76.0 111.0 L 76.0 111.0 L 77.0 111.0 L 79.0 111.0 L 80.0 111.0 L 82.0 111.0 L 84.0 111.0 L 86.0 111.0 L 89.0 111.0 L 91.0 111.0 L 93.0 111.0 L 95.0 111.0 L 98.0 111.0 L 100.0 111.0 L 101.0 111.0 L 103.0 111.0 L 105.0 111.0 L 106.0 111.0 L 108.0 111.0 L 109.0 111.0 L 110.0 111.0 L 111.0 111.0 L 112.0 111.0 L 113.0 111.0 L 115.0 111.0 L 116.0 111.0 L 117.0 111.0 L 119.0 111.0 L 121.0 111.0 L 123.0 111.0 L 125.0 111.0 L 127.0 111.0 L 130.0 111.0 L 132.0 111.0 L 135.0 111.0 L 138.0 111.0 L 141.0 111.0 L 143.0 111.0 L 146.0 111.0 L 148.0 111.0 L 150.0 110.0 L 152.0 110.0 L 154.0 110.0 L 156.0 110.0 L 159.0 110.0 L 161.0 110.0 L 164.0 110.0 L 168.0 110.0 L 171.0 110.0 L 175.0 110.0 L 179.0 110.0 L 182.0 110.0 L 185.0 110.0 L 188.0 110.0 L 191.0 110.0 L 193.0 110.0 L 195.0 110.0 L 196.0 110.0 L 198.0 110.0 L 200.0 109.0 L 201.0 109.0 L 202.0 109.0 L 204.0 109.0 " stroke="black" fill="none" stroke-width="5.0" stroke-linecap="round" stroke-linejoin="round" />
<path d="M 148.0 114.0 L 148.0 114.0 L 148.0 114.0 L 148.0 114.0 L 148.0 114.0 L 148.0 114.0 L 148.0 114.0 L 148.0 114.0 L 147.0 114.0 L 146.0 115.0 L 145.0 118.0 L 143.0 121.0 L 141.0 124.0 L 137.0 129.0 L 133.0 135.0 L 127.0 140.0 L 121.0 146.0 L 115.0 150.0 L 109.0 154.0 L 103.0 158.0 L 98.0 161.0 L 91.0 164.0 L 85.0 167.0 L 79.0 169.0 L 75.0 170.0 L 73.0 171.0 L 73.0 171.0 " stroke="black" fill="none" stroke-width="5.0" stroke-linecap="round" stroke-linejoin="round" />
<path d="M 111.0 151.0 L 111.0 151.0 L 110.0 151.0 L 110.0 151.0 L 109.0 152.0 L 109.0 152.0 L 108.0 153.0 L 108.0 154.0 L 108.0 155.0 L 108.0 157.0 L 108.0 159.0 L 108.0 162.0 L 109.0 165.0 L 109.0 168.0 L 109.0 173.0 L 109.0 178.0 L 109.0 184.0 L 109.0 190.0 L 108.0 195.0 L 108.0 200.0 L 108.0 205.0 L 107.0 209.0 L 107.0 213.0 L 107.0 217.0 L 107.0 220.0 L 106.0 225.0 L 106.0 230.0 L 106.0 234.0 L 106.0 237.0 L 106.0 241.0 L 106.0 243.0 L 106.0 245.0 L 106.0 246.0 L 106.0 247.0 L 106.0 248.0 L 106.0 249.0 L 106.0 250.0 L 106.0 251.0 L 107.0 252.0 L 107.0 252.0 L 107.0 252.0 L 107.0 253.0 L 107.0 253.0 L 107.0 253.0 L 107.0 253.0 L 108.0 253.0 L 108.0 252.0 L 109.0 251.0 L 111.0 249.0 L 113.0 247.0 L 117.0 245.0 L 122.0 241.0 L 128.0 237.0 L 136.0 232.0 L 144.0 227.0 L 151.0 220.0 L 159.0 213.0 L 162.0 210.0 " stroke="black" fill="none" stroke-width="5.0" stroke-linecap="round" stroke-linejoin="round" />
<path d="M 228.0 147.0 L 228.0 147.0 L 227.0 147.0 L 226.0 147.0 L 225.0 147.0 L 224.0 147.0 L 223.0 147.0 L 221.0 148.0 L 219.0 150.0 L 215.0 153.0 L 210.0 157.0 L 205.0 161.0 L 198.0 166.0 L 193.0 172.0 L 188.0 176.0 L 184.0 180.0 L 179.0 182.0 " stroke="black" fill="none" stroke-width="5.0" stroke-linecap="round" stroke-linejoin="round" />
<path d="M 157.0 125.0 L 157.0 125.0 L 157.0 125.0 L 156.0 125.0 L 156.0 125.0 L 156.0 125.0 L 156.0 125.0 L 156.0 125.0 L 156.0 125.0 L 156.0 125.0 L 156.0 127.0 L 156.0 128.0 L 157.0 130.0 L 157.0 133.0 L 158.0 137.0 L 159.0 141.0 L 160.0 146.0 L 162.0 150.0 L 163.0 154.0 L 165.0 158.0 L 166.0 162.0 L 168.0 166.0 L 169.0 169.0 L 171.0 172.0 L 173.0 175.0 L 175.0 179.0 L 177.0 183.0 L 179.0 186.0 L 180.0 190.0 L 182.0 194.0 L 183.0 197.0 L 185.0 200.0 L 186.0 203.0 L 188.0 206.0 L 189.0 209.0 L 191.0 212.0 L 193.0 214.0 L 195.0 217.0 L 196.0 220.0 L 198.0 223.0 L 201.0 226.0 L 203.0 229.0 L 205.0 233.0 L 208.0 236.0 L 210.0 239.0 L 213.0 242.0 L 215.0 244.0 L 218.0 246.0 L 220.0 247.0 L 223.0 248.0 L 225.0 250.0 L 227.0 250.0 L 229.0 251.0 L 231.0 251.0 L 233.0 252.0 " stroke="black" fill="none" stroke-width="5.0" stroke-linecap="round" stroke-linejoin="round" />
</svg>