<svg xmlns="http://www.w3.org/2000/svg" width="300" height="300" viewBox="0 0 300 300">
<path d="M 107.0 73.0 L 107.0 73.0 L 107.0 73.0 L 107.0 73.0 L 107.0 73.0 L 107.0 72.0 L 107.0 72.0 L 107.0 72.0 L 107.0 72.0 L 107.0 72.0 L 107.0 72.0 L 107.0 72.0 L 107.0 72.0 L 107.0 72.0 L 107.0 72.0 L 107.0 72.0 L 107.0 73.0 L 107.0 73.0 L 107.0 74.0 L 107.0 74.0 L 107.0 75.0 L 107.0 76.0 L 107.0 77.0 L 107.0 78.0 L 107.0 79.0 L 107.0 80.0 L 106.0 81.0 L 106.0 82.0 L 105.0 84.0 L 105.0 85.0 L 105.0 87.0 L 104.0 89.0 L 104.0 91.0 L 103.0 92.0 L 103.0 94.0 L 103.0 95.0 L 102.0 97.0 L 102.0 98.0 L 101.0 100.0 L 101.0 101.0 L 100.0 103.0 L 100.0 104.0 L 99.0 106.0 L 99.0 107.0 L 98.0 108.0 L 98.0 110.0 L 98.0 111.0 L 97.0 111.0 L 97.0 112.0 L 96.0 113.0 L 96.0 114.0 L 95.0 115.0 L 95.0 116.0 L 94.0 117.0 L 94.0 118.0 L 93.0 118.0 L 93.0 119.0 L 92.0 120.0 L 92.0 121.0 L 91.0 122.0 L 91.0 123.0 L 90.0 124.0 L 90.0 125.0 L 89.0 126.0 L 88.0 126.0 L 88.0 127.0 L 87.0 128.0 L 86.0 129.0 L 85.0 130.0 L 85.0 131.0 L 84.0 131.0 L 83.0 132.0 L 82.0 133.0 L 81.0 134.0 L 80.0 135.0 L 79.0 136.0 L 78.0 136.0 L 78.0 137.0 L 77.0 138.0 L 76.0 139.0 L 75.0 140.0 L 74.0 141.0 L 74.0 142.0 L 73.0 143.0 L 72.0 144.0 L 71.0 145.0 L 70.0 146.0 L 69.0 147.0 L 68.0 149.0 L 68.0 150.0 L 67.0 151.0 L 66.0 152.0 L 65.0 153.0 L 64.0 154.0 L 64.0 155.0 L 63.0 155.0 L 63.0 155.0 " stroke="black" fill="none" stroke-width="5.0" stroke-linecap="round" stroke-linejoin="round" />
<path d="M 93.0 125.0 L 93.0 125.0 L 93.0 125.0 L 93.0 124.0 L 93.0 124.0 L 93.0 124.0 L 94.0 124.0 L 94.0 124.0 L 94.0 124.0 L 94.0 124.0 L 94.0 125.0 L 94.0 126.0 L 94.0 127.0 L 94.0 128.0 L 94.0 129.0 L 94.0 130.0 L 94.0 132.0 L 94.0 133.0 L 94.0 135.0 L 94.0 138.0 L 94.0 140.0 L 94.0 143.0 L 94.0 145.0 L 94.0 147.0 L 94.0 149.0 L 94.0 151.0 L 94.0 153.0 L 94.0 155.0 L 94.0 157.0 L 94.0 158.0 L 94.0 159.0 L 94.0 161.0 L 94.0 162.0 L 94.0 163.0 L 95.0 165.0 L 95.0 166.0 L 95.0 167.0 L 95.0 169.0 L 95.0 170.0 L 95.0 172.0 L 96.0 173.0 L 96.0 174.0 L 96.0 175.0 L 96.0 177.0 L 96.0 178.0 L 96.0 180.0 L 96.0 181.0 L 96.0 183.0 L 96.0 184.0 L 96.0 186.0 L 96.0 188.0 L 96.0 190.0 L 96.0 191.0 L 96.0 193.0 L 96.0 194.0 L 96.0 196.0 L 96.0 197.0 L 96.0 198.0 L 96.0 199.0 L 96.0 200.0 L 96.0 202.0 L 96.0 203.0 L 96.0 204.0 L 96.0 206.0 L 96.0 207.0 L 96.0 209.0 L 96.0 211.0 L 97.0 213.0 L 97.0 214.0 L 97.0 216.0 L 97.0 218.0 L 97.0 220.0 L 97.0 222.0 L 97.0 224.0 L 97.0 226.0 L 97.0 228.0 L 97.0 230.0 L 97.0 231.0 L 97.0 233.0 L 97.0 234.0 L 97.0 236.0 L 97.0 237.0 L 97.0 238.0 L 97.0 239.0 L 97.0 240.0 L 97.0 241.0 L 97.0 241.0 L 97.0 242.0 L 96.0 242.0 L 96.0 242.0 L 96.0 242.0 L 96.0 242.0 L 96.0 242.0 L 96.0 242.0 L 96.0 241.0 " stroke="black" fill="none" stroke-width="5.0" stroke-linecap="round" stroke-linejoin="round" />
<path d="M 132.0 90.0 L 132.0 90.0 L 132.0 90.0 L 132.0 90.0 L 131.0 90.0 L 131.0 90.0 L 131.0 90.0 L 130.0 90.0 L 130.0 90.0 L 130.0 90.0 L 130.0 90.0 L 130.0 90.0 L 130.0 90.0 L 130.0 90.0 L 130.0 90.0 L 130.0 90.0 L 131.0 90.0 L 132.0 90.0 L 133.0 90.0 L 134.0 90.0 L 136.0 90.0 L 137.0 90.0 L 138.0 90.0 L 140.0 90.0 L 141.0 90.0 L 142.0 90.0 L 143.0 90.0 L 144.0 90.0 L 145.0 90.0 L 146.0 90.0 L 146.0 90.0 L 147.0 90.0 L 148.0 90.0 L 149.0 90.0 L 150.0 90.0 L 150.0 90.0 L 151.0 90.0 L 152.0 89.0 L 153.0 89.0 L 153.0 89.0 L 154.0 89.0 L 154.0 89.0 L 155.0 89.0 L 155.0 89.0 L 156.0 88.0 L 156.0 88.0 L 157.0 88.0 L 157.0 88.0 L 157.0 88.0 L 158.0 88.0 L 158.0 88.0 L 158.0 88.0 L 159.0 88.0 L 159.0 88.0 L 159.0 88.0 L 160.0 88.0 L 160.0 88.0 L 161.0 88.0 L 161.0 88.0 L 162.0 88.0 L 162.0 88.0 L 163.0 88.0 L 164.0 88.0 L 164.0 88.0 L 165.0 88.0 L 165.0 88.0 L 166.0 88.0 L 167.0 88.0 L 168.0 88.0 L 169.0 88.0 L 169.0 88.0 L 170.0 88.0 L 171.0 88.0 L 172.0 88.0 L 173.0 88.0 L 173.0 88.0 L 174.0 88.0 L 175.0 88.0 L 176.0 88.0 L 177.0 88.0 L 178.0 88.0 L 178.0 88.0 L 179.0 88.0 L 180.0 87.0 L 181.0 87.0 L 182.0 87.0 L 183.0 87.0 L 183.0 87.0 L 184.0 87.0 L 185.0 87.0 L 185.0 87.0 L 186.0 87.0 L 187.0 87.0 L 187.0 87.0 L 188.0 87.0 L 189.0 87.0 L 189.0 87.0 L 190.0 87.0 L 190.0 87.0 L 191.0 87.0 L 191.0 87.0 L 192.0 87.0 L 192.0 87.0 L 193.0 87.0 L 193.0 87.0 L 193.0 87.0 L 194.0 87.0 L 194.0 87.0 L 194.0 87.0 L 195.0 87.0 L 195.0 87.0 L 196.0 88.0 L 196.0 88.0 L 196.0 88.0 L 197.0 88.0 L 197.0 88.0 L 198.0 88.0 L 198.0 88.0 L 199.0 88.0 L 199.0 88.0 L 200.0 88.0 L 200.0 88.0 L 200.0 88.0 L 201.0 88.0 L 202.0 89.0 L 202.0 89.0 L 202.0 89.0 L 203.0 89.0 L 204.0 89.0 L 204.0 89.0 L 205.0 89.0 L 205.0 89.0 L 206.0 89.0 L 207.0 89.0 L 207.0 89.0 L 208.0 89.0 L 209.0 89.0 L 209.0 89.0 L 210.0 89.0 L 211.0 89.0 L 212.0 89.0 L 213.0 89.0 L 214.0 89.0 L 216.0 89.0 L 217.0 89.0 L 219.0 89.0 L 220.0 89.0 L 221.0 89.0 L 223.0 89.0 L 224.0 89.0 L 225.0 90.0 L 226.0 90.0 L 227.0 90.0 L 228.0 90.0 L 229.0 90.0 L 229.0 90.0 L 230.0 90.0 L 230.0 90.0 L 231.0 90.0 L 232.0 90.0 L 232.0 90.0 L 233.0 90.0 L 233.0 90.0 L 234.0 90.0 L 234.0 90.0 L 235.0 90.0 L 235.0 90.0 L 236.0 90.0 L 236.0 90.0 L 237.0 89.0 L 237.0 89.0 L 237.0 89.0 " stroke="black" fill="none" stroke-width="5.0" stroke-linecap="round" stroke-linejoin="round" />
<path d="M 133.0 142.0 L 133.0 142.0 L 133.0 143.0 L 133.0 143.0 L 132.0 144.0 L 132.0 144.0 L 132.0 145.0 L 132.0 146.0 L 132.0 148.0 L 132.0 150.0 L 131.0 152.0 L 131.0 154.0 L 131.0 158.0 L 131.0 161.0 L 131.0 165.0 L 131.0 169.0 L 132.0 173.0 L 132.0 178.0 L 132.0 182.0 L 132.0 186.0 L 132.0 190.0 L 132.0 193.0 L 132.0 194.0 L 132.0 195.0 L 133.0 195.0 L 134.0 193.0 L 135.0 191.0 " stroke="black" fill="none" stroke-width="5.0" stroke-linecap="round" stroke-linejoin="round" />
<path d="M 137.0 138.0 L 137.0 138.0 L 137.0 138.0 L 136.0 138.0 L 135.0 139.0 L 135.0 139.0 L 135.0 139.0 L 135.0 139.0 L 135.0 139.0 L 135.0 139.0 L 135.0 139.0 L 135.0 139.0 L 136.0 139.0 L 137.0 138.0 L 138.0 138.0 L 139.0 138.0 L 140.0 137.0 L 141.0 137.0 L 142.0 137.0 L 143.0 137.0 L 144.0 137.0 L 146.0 137.0 L 148.0 137.0 L 149.0 137.0 L 152.0 136.0 L 154.0 136.0 L 156.0 136.0 L 159.0 135.0 L 161.0 135.0 L 163.0 135.0 L 165.0 135.0 L 167.0 135.0 L 168.0 135.0 L 170.0 135.0 L 172.0 135.0 L 173.0 135.0 L 175.0 135.0 L 177.0 135.0 L 178.0 136.0 L 180.0 136.0 L 181.0 136.0 L 182.0 137.0 L 183.0 137.0 L 184.0 137.0 L 184.0 137.0 L 185.0 138.0 L 185.0 138.0 L 186.0 138.0 L 186.0 138.0 L 186.0 138.0 L 186.0 138.0 L 186.0 139.0 L 186.0 139.0 L 186.0 140.0 L 186.0 141.0 L 186.0 143.0 L 186.0 144.0 L 185.0 146.0 L 185.0 148.0 L 185.0 150.0 L 184.0 152.0 L 184.0 155.0 L 183.0 158.0 L 182.0 163.0 L 182.0 167.0 L 181.0 171.0 L 180.0 176.0 L 180.0 181.0 L 179.0 185.0 L 178.0 189.0 L 178.0 192.0 L 178.0 194.0 L 178.0 196.0 L 178.0 196.0 L 178.0 196.0 L 178.0 196.0 L 178.0 196.0 L 178.0 195.0 L 178.0 194.0 " stroke="black" fill="none" stroke-width="5.0" stroke-linecap="round" stroke-linejoin="round" />
<path d="M 135.0 196.0 L 135.0 196.0 L 134.0 196.0 L 133.0 196.0 L 133.0 196.0 L 132.0 196.0 L 132.0 196.0 L 132.0 196.0 L 132.0 196.0 L 132.0 196.0 L 134.0 196.0 L 136.0 196.0 L 139.0 196.0 L 143.0 196.0 L 147.0 196.0 L 151.0 196.0 L 157.0 196.0 L 163.0 195.0 L 171.0 194.0 L 177.0 192.0 L 183.0 191.0 L 185.0 191.0 " stroke="black" fill="none" stroke-width="5.0" stroke-linecap="round" stroke-linejoin="round" />
<path d="M 219.0 93.0 L 219.0 93.0 L 219.0 93.0 L 219.0 93.0 L 220.0 93.0 L 220.0 92.0 L 220.0 92.0 L 220.0 92.0 L 220.0 92.0 L 220.0 92.0 L 220.0 93.0 L 220.0 95.0 L 220.0 97.0 L 220.0 99.0 L 220.0 102.0 L 220.0 104.0 L 219.0 107.0 L 219.0 110.0 L 219.0 112.0 L 219.0 115.0 L 219.0 118.0 L 219.0 121.0 L 219.0 123.0 L 219.0 126.0 L 219.0 129.0 L 219.0 131.0 L 219.0 134.0 L 219.0 136.0 L 219.0 139.0 L 219.0 142.0 L 220.0 144.0 L 220.0 147.0 L 220.0 149.0 L 221.0 152.0 L 221.0 154.0 L 221.0 156.0 L 222.0 158.0 L 222.0 160.0 L 222.0 161.0 L 222.0 163.0 L 222.0 165.0 L 222.0 166.0 L 222.0 168.0 L 222.0 170.0 L 222.0 172.0 L 222.0 174.0 L 222.0 176.0 L 222.0 178.0 L 222.0 180.0 L 221.0 183.0 L 221.0 185.0 L 221.0 188.0 L 221.0 190.0 L 221.0 192.0 L 221.0 194.0 L 220.0 197.0 L 220.0 198.0 L 220.0 200.0 L 220.0 203.0 L 220.0 204.0 L 219.0 206.0 L 219.0 209.0 L 219.0 210.0 L 219.0 212.0 L 218.0 214.0 L 218.0 216.0 L 218.0 218.0 L 218.0 220.0 L 218.0 222.0 L 218.0 224.0 L 217.0 227.0 L 217.0 229.0 L 217.0 231.0 L 217.0 233.0 L 217.0 235.0 L 217.0 236.0 L 217.0 238.0 L 217.0 239.0 L 217.0 240.0 L 217.0 242.0 L 217.0 243.0 L 217.0 244.0 L 216.0 245.0 L 216.0 246.0 L 216.0 247.0 L 216.0 248.0 L 216.0 249.0 L 216.0 250.0 L 216.0 250.0 L 216.0 251.0 L 215.0 252.0 L 215.0 252.0 L 215.0 253.0 L 214.0 253.0 L 214.0 253.0 L 214.0 254.0 L 213.0 254.0 L 212.0 254.0 L 212.0 254.0 L 210.0 253.0 L 209.0 253.0 L 206.0 252.0 L 204.0 250.0 L 201.0 249.0 L 199.0 247.0 L 196.0 246.0 L 193.0 244.0 L 191.0 242.0 L 189.0 241.0 L 188.0 239.0 L 187.0 237.0 " stroke="black" fill="none" stroke-width="5.0" stroke-linecap="round" stroke-linejoin="round" />
</svg>