<svg xmlns="http://www.w3.org/2000/svg" width="300" height="300" viewBox="0 0 300 300">
<path d="M 70.0 89.0 L 69.0 89.0 L 68.0 89.0 L 68.0 89.0 L 67.0 89.0 L 67.0 89.0 L 66.0 88.0 L 66.0 88.0 L 66.0 88.0 L 66.0 88.0 L 66.0 88.0 L 67.0 87.0 L 68.0 87.0 L 69.0 87.0 L 70.0 86.0 L 72.0 85.0 L 73.0 85.0 L 75.0 85.0 L 78.0 84.0 L 80.0 84.0 L 83.0 83.0 L 88.0 82.0 L 93.0 81.0 L 98.0 79.0 L 104.0 77.0 L 109.0 75.0 L 113.0 72.0 L 118.0 69.0 L 122.0 67.0 L 126.0 64.0 L 129.0 62.0 L 132.0 61.0 " stroke="black" fill="none" stroke-width="5.0" stroke-linecap="round" stroke-linejoin="round" />
<path d="M 62.0 134.0 L 62.0 134.0 L 62.0 134.0 L 62.0 134.0 L 61.0 134.0 L 61.0 134.0 L 61.0 134.0 L 61.0 134.0 L 61.0 134.0 L 61.0 134.0 L 62.0 134.0 L 64.0 133.0 L 66.0 133.0 L 70.0 133.0 L 75.0 133.0 L 81.0 132.0 L 89.0 132.0 L 98.0 131.0 L 104.0 130.0 L 110.0 130.0 L 116.0 130.0 L 120.0 129.0 L 125.0 129.0 L 129.0 129.0 L 133.0 129.0 L 136.0 129.0 L 139.0 129.0 " stroke="black" fill="none" stroke-width="5.0" stroke-linecap="round" stroke-linejoin="round" />
<path d="M 104.0 84.0 L 104.0 84.0 L 104.0 84.0 L 104.0 84.0 L 104.0 84.0 L 104.0 84.0 L 104.0 84.0 L 104.0 85.0 L 104.0 85.0 L 104.0 85.0 L 104.0 86.0 L 104.0 87.0 L 104.0 89.0 L 104.0 91.0 L 104.0 93.0 L 104.0 96.0 L 104.0 100.0 L 104.0 103.0 L 104.0 107.0 L 104.0 110.0 L 104.0 114.0 L 104.0 117.0 L 104.0 120.0 L 104.0 123.0 L 104.0 126.0 L 104.0 128.0 L 104.0 131.0 L 104.0 133.0 L 104.0 136.0 L 104.0 138.0 L 104.0 141.0 L 104.0 144.0 L 104.0 146.0 L 104.0 149.0 L 104.0 152.0 L 104.0 155.0 L 104.0 158.0 L 104.0 160.0 L 104.0 163.0 L 104.0 165.0 L 104.0 168.0 L 104.0 170.0 L 104.0 173.0 L 104.0 176.0 L 104.0 179.0 L 104.0 183.0 L 104.0 187.0 L 104.0 190.0 L 104.0 193.0 L 104.0 197.0 L 104.0 200.0 L 104.0 203.0 L 104.0 206.0 L 104.0 209.0 L 104.0 212.0 L 103.0 215.0 L 103.0 218.0 L 103.0 222.0 L 103.0 226.0 L 103.0 230.0 L 103.0 234.0 L 103.0 238.0 L 103.0 241.0 L 103.0 243.0 L 103.0 246.0 L 102.0 247.0 L 102.0 248.0 L 102.0 249.0 L 102.0 249.0 L 102.0 249.0 L 102.0 249.0 L 102.0 249.0 L 102.0 249.0 L 102.0 249.0 L 102.0 247.0 L 102.0 246.0 L 102.0 243.0 " stroke="black" fill="none" stroke-width="5.0" stroke-linecap="round" stroke-linejoin="round" />
<path d="M 101.0 133.0 L 101.0 133.0 L 101.0 133.0 L 101.0 133.0 L 101.0 133.0 L 101.0 133.0 L 101.0 133.0 L 101.0 133.0 L 101.0 133.0 L 101.0 133.0 L 101.0 133.0 L 101.0 133.0 L 101.0 134.0 L 101.0 136.0 L 100.0 138.0 L 99.0 142.0 L 97.0 146.0 L 95.0 151.0 L 92.0 156.0 L 88.0 162.0 L 84.0 168.0 L 79.0 174.0 L 75.0 181.0 L 71.0 188.0 L 67.0 194.0 L 64.0 199.0 L 62.0 202.0 L 60.0 205.0 L 60.0 205.0 " stroke="black" fill="none" stroke-width="5.0" stroke-linecap="round" stroke-linejoin="round" />
<path d="M 106.0 148.0 L 106.0 148.0 L 106.0 148.0 L 106.0 148.0 L 106.0 147.0 L 105.0 147.0 L 105.0 147.0 L 105.0 147.0 L 105.0 147.0 L 105.0 148.0 L 106.0 150.0 L 107.0 152.0 L 109.0 154.0 L 111.0 157.0 L 114.0 160.0 L 117.0 163.0 L 121.0 167.0 L 125.0 170.0 L 129.0 172.0 L 133.0 174.0 " stroke="black" fill="none" stroke-width="5.0" stroke-linecap="round" stroke-linejoin="round" />
<path d="M 141.0 116.0 L 141.0 116.0 L 141.0 116.0 L 141.0 116.0 L 141.0 117.0 L 141.0 117.0 L 142.0 118.0 L 143.0 119.0 L 145.0 121.0 L 147.0 124.0 L 150.0 127.0 L 153.0 131.0 L 157.0 135.0 L 160.0 140.0 L 164.0 144.0 L 166.0 146.0 " stroke="black" fill="none" stroke-width="5.0" stroke-linecap="round" stroke-linejoin="round" />
<path d="M 231.0 111.0 L 231.0 111.0 L 231.0 111.0 L 231.0 111.0 L 231.0 112.0 L 231.0 112.0 L 231.0 114.0 L 230.0 116.0 L 228.0 120.0 L 225.0 126.0 L 222.0 132.0 L 218.0 139.0 L 215.0 145.0 L 213.0 147.0 " stroke="black" fill="none" stroke-width="5.0" stroke-linecap="round" stroke-linejoin="round" />
<path d="M 187.0 72.0 L 187.0 72.0 L 187.0 72.0 L 187.0 72.0 L 187.0 72.0 L 187.0 72.0 L 187.0 72.0 L 187.0 73.0 L 187.0 74.0 L 187.0 75.0 L 188.0 75.0 L 188.0 77.0 L 188.0 78.0 L 189.0 79.0 L 189.0 81.0 L 189.0 82.0 L 189.0 84.0 L 190.0 86.0 L 190.0 88.0 L 190.0 91.0 L 190.0 93.0 L 190.0 95.0 L 190.0 97.0 L 190.0 100.0 L 190.0 102.0 L 190.0 104.0 L 190.0 106.0 L 190.0 108.0 L 190.0 110.0 L 190.0 112.0 L 190.0 114.0 L 190.0 116.0 L 190.0 118.0 L 190.0 120.0 L 190.0 122.0 L 190.0 124.0 L 190.0 126.0 L 190.0 127.0 L 190.0 129.0 L 190.0 131.0 L 190.0 133.0 L 190.0 135.0 L 190.0 136.0 L 190.0 139.0 L 190.0 141.0 L 190.0 143.0 L 190.0 146.0 L 189.0 148.0 L 189.0 151.0 L 189.0 153.0 L 189.0 155.0 L 188.0 157.0 L 188.0 160.0 L 188.0 162.0 L 187.0 164.0 L 187.0 166.0 L 186.0 168.0 L 186.0 171.0 L 185.0 173.0 L 184.0 176.0 L 183.0 178.0 L 182.0 181.0 L 181.0 185.0 L 180.0 188.0 L 179.0 191.0 L 177.0 194.0 L 176.0 198.0 L 174.0 201.0 L 171.0 205.0 L 169.0 209.0 L 167.0 213.0 L 164.0 216.0 L 162.0 220.0 L 160.0 224.0 L 157.0 228.0 L 155.0 232.0 L 153.0 235.0 L 150.0 239.0 L 148.0 241.0 L 146.0 242.0 L 144.0 243.0 L 144.0 243.0 " stroke="black" fill="none" stroke-width="5.0" stroke-linecap="round" stroke-linejoin="round" />
<path d="M 187.0 164.0 L 187.0 164.0 L 187.0 164.0 L 187.0 163.0 L 187.0 163.0 L 187.0 163.0 L 187.0 163.0 L 187.0 163.0 L 187.0 163.0 L 187.0 163.0 L 187.0 164.0 L 188.0 166.0 L 189.0 168.0 L 190.0 170.0 L 191.0 173.0 L 192.0 177.0 L 193.0 181.0 L 194.0 186.0 L 196.0 190.0 L 197.0 194.0 L 199.0 198.0 L 200.0 202.0 L 202.0 205.0 L 203.0 207.0 L 205.0 210.0 L 207.0 212.0 L 209.0 214.0 L 211.0 216.0 L 213.0 218.0 L 215.0 221.0 L 217.0 223.0 L 219.0 226.0 L 221.0 228.0 L 222.0 231.0 L 224.0 233.0 L 225.0 234.0 L 227.0 236.0 L 228.0 238.0 L 229.0 240.0 L 230.0 242.0 L 231.0 243.0 L 232.0 244.0 L 232.0 245.0 L 233.0 246.0 L 234.0 247.0 L 234.0 248.0 L 235.0 248.0 L 235.0 249.0 L 236.0 249.0 L 237.0 250.0 L 237.0 250.0 L 238.0 250.0 L 239.0 250.0 L 239.0 250.0 L 240.0 250.0 " stroke="black" fill="none" stroke-width="5.0" stroke-linecap="round" stroke-linejoin="round" />
</svg>