<svg xmlns="http://www.w3.org/2000/svg" width="300" height="300" viewBox="0 0 300 300">
<path d="M 66.0 92.0 L 66.0 92.0 L 66.0 92.0 L 66.0 92.0 L 66.0 92.0 L 66.0 92.0 L 66.0 92.0 L 66.0 92.0 L 66.0 92.0 L 66.0 92.0 L 66.0 92.0 L 66.0 92.0 L 66.0 92.0 L 66.0 92.0 L 67.0 92.0 L 68.0 92.0 L 68.0 92.0 L 69.0 92.0 L 71.0 92.0 L 72.0 92.0 L 74.0 92.0 L 76.0 92.0 L 79.0 91.0 L 82.0 91.0 L 85.0 91.0 L 88.0 90.0 L 91.0 90.0 L 95.0 89.0 L 98.0 89.0 L 100.0 88.0 L 105.0 87.0 L 108.0 86.0 L 111.0 84.0 L 114.0 82.0 L 118.0 80.0 L 120.0 79.0 " stroke="black" fill="none" stroke-width="5.0" stroke-linecap="round" stroke-linejoin="round" />
<path d="M 65.0 134.0 L 65.0 134.0 L 65.0 134.0 L 65.0 134.0 L 65.0 133.0 L 65.0 133.0 L 65.0 133.0 L 65.0 132.0 L 65.0 132.0 L 65.0 132.0 L 65.0 132.0 L 65.0 132.0 L 65.0 132.0 L 65.0 132.0 L 65.0 132.0 L 65.0 132.0 L 66.0 132.0 L 66.0 132.0 L 67.0 132.0 L 68.0 132.0 L 69.0 132.0 L 71.0 132.0 L 73.0 132.0 L 75.0 132.0 L 78.0 133.0 L 81.0 133.0 L 84.0 133.0 L 88.0 134.0 L 92.0 134.0 L 97.0 134.0 L 101.0 134.0 L 104.0 134.0 L 108.0 134.0 L 112.0 134.0 L 115.0 133.0 L 118.0 133.0 L 121.0 133.0 L 124.0 132.0 L 127.0 132.0 L 130.0 131.0 L 131.0 131.0 " stroke="black" fill="none" stroke-width="5.0" stroke-linecap="round" stroke-linejoin="round" />
<path d="M 100.0 91.0 L 100.0 91.0 L 100.0 91.0 L 100.0 91.0 L 100.0 91.0 L 100.0 91.0 L 100.0 92.0 L 100.0 92.0 L 100.0 92.0 L 100.0 93.0 L 100.0 94.0 L 100.0 95.0 L 100.0 97.0 L 100.0 100.0 L 100.0 103.0 L 100.0 106.0 L 100.0 109.0 L 100.0 113.0 L 100.0 115.0 L 100.0 118.0 L 100.0 120.0 L 101.0 122.0 L 101.0 124.0 L 101.0 126.0 L 101.0 128.0 L 101.0 129.0 L 101.0 131.0 L 101.0 133.0 L 101.0 135.0 L 101.0 137.0 L 101.0 138.0 L 101.0 140.0 L 101.0 142.0 L 101.0 144.0 L 101.0 146.0 L 100.0 148.0 L 100.0 150.0 L 100.0 152.0 L 100.0 154.0 L 100.0 155.0 L 100.0 157.0 L 100.0 158.0 L 100.0 160.0 L 100.0 161.0 L 100.0 162.0 L 100.0 164.0 L 100.0 165.0 L 100.0 166.0 L 100.0 168.0 L 100.0 170.0 L 100.0 171.0 L 100.0 173.0 L 100.0 175.0 L 100.0 176.0 L 100.0 178.0 L 100.0 180.0 L 100.0 182.0 L 100.0 183.0 L 100.0 185.0 L 101.0 188.0 L 101.0 189.0 L 101.0 191.0 L 101.0 193.0 L 101.0 195.0 L 101.0 197.0 L 101.0 199.0 L 101.0 201.0 L 101.0 203.0 L 101.0 205.0 L 101.0 207.0 L 101.0 208.0 L 101.0 211.0 L 101.0 213.0 L 101.0 216.0 L 101.0 219.0 L 101.0 222.0 L 101.0 226.0 L 101.0 230.0 L 101.0 233.0 L 101.0 236.0 L 101.0 239.0 L 102.0 241.0 L 102.0 242.0 " stroke="black" fill="none" stroke-width="5.0" stroke-linecap="round" stroke-linejoin="round" />
<path d="M 97.0 141.0 L 97.0 141.0 L 97.0 141.0 L 97.0 141.0 L 96.0 141.0 L 96.0 142.0 L 96.0 142.0 L 95.0 143.0 L 95.0 143.0 L 94.0 145.0 L 94.0 146.0 L 93.0 149.0 L 92.0 152.0 L 91.0 156.0 L 90.0 161.0 L 88.0 166.0 L 86.0 171.0 L 83.0 177.0 L 80.0 183.0 L 77.0 189.0 L 74.0 194.0 L 71.0 199.0 L 68.0 203.0 L 65.0 206.0 L 63.0 209.0 L 62.0 211.0 L 61.0 212.0 " stroke="black" fill="none" stroke-width="5.0" stroke-linecap="round" stroke-linejoin="round" />
<path d="M 101.0 146.0 L 101.0 146.0 L 101.0 146.0 L 101.0 145.0 L 100.0 144.0 L 100.0 144.0 L 100.0 143.0 L 100.0 143.0 L 100.0 142.0 L 100.0 142.0 L 100.0 142.0 L 100.0 142.0 L 101.0 143.0 L 101.0 144.0 L 103.0 146.0 L 104.0 149.0 L 105.0 152.0 L 107.0 156.0 L 109.0 159.0 L 111.0 163.0 L 114.0 166.0 L 117.0 168.0 L 120.0 171.0 L 122.0 172.0 L 123.0 173.0 " stroke="black" fill="none" stroke-width="5.0" stroke-linecap="round" stroke-linejoin="round" />
<path d="M 143.0 118.0 L 143.0 118.0 L 143.0 117.0 L 143.0 117.0 L 143.0 117.0 L 143.0 116.0 L 142.0 116.0 L 142.0 116.0 L 142.0 116.0 L 142.0 116.0 L 142.0 117.0 L 143.0 119.0 L 144.0 122.0 L 146.0 126.0 L 147.0 129.0 L 149.0 133.0 L 151.0 137.0 L 153.0 141.0 L 154.0 144.0 L 156.0 146.0 L 157.0 148.0 " stroke="black" fill="none" stroke-width="5.0" stroke-linecap="round" stroke-linejoin="round" />
<path d="M 233.0 109.0 L 233.0 109.0 L 233.0 109.0 L 233.0 110.0 L 233.0 110.0 L 232.0 111.0 L 232.0 112.0 L 231.0 113.0 L 231.0 114.0 L 230.0 117.0 L 229.0 120.0 L 228.0 123.0 L 226.0 128.0 L 224.0 132.0 L 222.0 138.0 L 220.0 143.0 L 218.0 147.0 L 216.0 150.0 " stroke="black" fill="none" stroke-width="5.0" stroke-linecap="round" stroke-linejoin="round" />
<path d="M 187.0 75.0 L 187.0 75.0 L 187.0 75.0 L 187.0 75.0 L 187.0 75.0 L 187.0 75.0 L 187.0 76.0 L 187.0 76.0 L 187.0 76.0 L 187.0 76.0 L 187.0 76.0 L 187.0 77.0 L 187.0 77.0 L 187.0 78.0 L 187.0 78.0 L 187.0 79.0 L 187.0 80.0 L 187.0 82.0 L 187.0 83.0 L 188.0 85.0 L 188.0 86.0 L 188.0 88.0 L 189.0 90.0 L 189.0 92.0 L 189.0 94.0 L 189.0 96.0 L 189.0 98.0 L 189.0 101.0 L 189.0 103.0 L 189.0 105.0 L 189.0 107.0 L 189.0 109.0 L 189.0 111.0 L 189.0 112.0 L 189.0 114.0 L 189.0 115.0 L 190.0 117.0 L 190.0 118.0 L 190.0 119.0 L 190.0 120.0 L 190.0 121.0 L 190.0 122.0 L 190.0 124.0 L 190.0 125.0 L 190.0 126.0 L 190.0 127.0 L 190.0 128.0 L 190.0 130.0 L 190.0 131.0 L 190.0 132.0 L 190.0 133.0 L 190.0 134.0 L 190.0 136.0 L 191.0 137.0 L 191.0 138.0 L 191.0 139.0 L 191.0 140.0 L 191.0 142.0 L 191.0 143.0 L 191.0 144.0 L 191.0 146.0 L 191.0 147.0 L 191.0 148.0 L 191.0 149.0 L 191.0 150.0 L 191.0 152.0 L 191.0 153.0 L 191.0 154.0 L 191.0 155.0 L 190.0 156.0 L 190.0 157.0 L 190.0 158.0 L 190.0 160.0 L 189.0 161.0 L 189.0 162.0 L 189.0 163.0 L 189.0 164.0 L 189.0 165.0 L 188.0 167.0 L 188.0 168.0 L 188.0 169.0 L 187.0 170.0 L 187.0 171.0 L 187.0 172.0 L 186.0 173.0 L 186.0 175.0 L 186.0 176.0 L 185.0 177.0 L 185.0 179.0 L 184.0 180.0 L 184.0 182.0 L 183.0 184.0 L 182.0 186.0 L 181.0 188.0 L 181.0 189.0 L 180.0 191.0 L 179.0 192.0 L 178.0 194.0 L 178.0 195.0 L 177.0 197.0 L 177.0 198.0 L 176.0 199.0 L 175.0 201.0 L 175.0 202.0 L 174.0 203.0 L 174.0 204.0 L 173.0 205.0 L 173.0 206.0 L 172.0 207.0 L 172.0 208.0 L 171.0 209.0 L 170.0 210.0 L 169.0 211.0 L 169.0 212.0 L 168.0 214.0 L 167.0 215.0 L 166.0 216.0 L 165.0 217.0 L 164.0 219.0 L 163.0 220.0 L 162.0 222.0 L 160.0 224.0 L 159.0 226.0 L 158.0 228.0 L 156.0 230.0 L 155.0 232.0 L 153.0 235.0 L 152.0 237.0 L 150.0 238.0 L 149.0 240.0 L 148.0 241.0 L 147.0 242.0 L 146.0 242.0 " stroke="black" fill="none" stroke-width="5.0" stroke-linecap="round" stroke-linejoin="round" />
<path d="M 191.0 162.0 L 191.0 162.0 L 191.0 162.0 L 191.0 162.0 L 191.0 161.0 L 191.0 161.0 L 191.0 161.0 L 191.0 161.0 L 191.0 161.0 L 191.0 162.0 L 191.0 162.0 L 191.0 163.0 L 191.0 164.0 L 191.0 165.0 L 191.0 166.0 L 191.0 167.0 L 191.0 168.0 L 191.0 170.0 L 191.0 171.0 L 191.0 173.0 L 191.0 175.0 L 191.0 177.0 L 191.0 179.0 L 192.0 181.0 L 192.0 184.0 L 192.0 186.0 L 193.0 188.0 L 193.0 191.0 L 193.0 193.0 L 194.0 194.0 L 194.0 196.0 L 194.0 197.0 L 195.0 199.0 L 195.0 200.0 L 196.0 201.0 L 196.0 202.0 L 196.0 204.0 L 197.0 205.0 L 197.0 206.0 L 198.0 207.0 L 198.0 209.0 L 199.0 210.0 L 199.0 211.0 L 200.0 213.0 L 201.0 214.0 L 202.0 215.0 L 202.0 216.0 L 203.0 217.0 L 204.0 219.0 L 205.0 220.0 L 206.0 221.0 L 207.0 223.0 L 208.0 224.0 L 209.0 226.0 L 211.0 228.0 L 213.0 229.0 L 214.0 231.0 L 216.0 233.0 L 218.0 234.0 L 220.0 235.0 L 221.0 236.0 L 223.0 237.0 L 224.0 238.0 L 226.0 239.0 L 227.0 240.0 L 229.0 241.0 L 230.0 242.0 L 231.0 242.0 L 232.0 243.0 L 232.0 244.0 L 233.0 244.0 L 233.0 245.0 L 234.0 245.0 L 234.0 245.0 L 234.0 245.0 L 234.0 245.0 " stroke="black" fill="none" stroke-width="5.0" stroke-linecap="round" stroke-linejoin="round" />
</svg>