<svg xmlns="http://www.w3.org/2000/svg" width="300" height="300" viewBox="0 0 300 300">
<path d="M 73.0 85.0 L 73.0 85.0 L 72.0 85.0 L 71.0 85.0 L 70.0 85.0 L 69.0 85.0 L 69.0 85.0 L 69.0 85.0 L 69.0 84.0 L 69.0 84.0 L 71.0 84.0 L 75.0 83.0 L 80.0 82.0 L 86.0 81.0 L 93.0 80.0 L 101.0 79.0 L 108.0 77.0 L 117.0 75.0 L 125.0 73.0 L 134.0 71.0 L 141.0 70.0 " stroke="black" fill="none" stroke-width="5.0" stroke-linecap="round" stroke-linejoin="round" />
<path d="M 66.0 111.0 L 66.0 111.0 L 65.0 111.0 L 64.0 111.0 L 64.0 111.0 L 63.0 111.0 L 63.0 111.0 L 63.0 110.0 L 63.0 110.0 L 65.0 109.0 L 68.0 109.0 L 72.0 108.0 L 78.0 108.0 L 85.0 107.0 L 93.0 107.0 L 102.0 107.0 L 108.0 107.0 L 115.0 107.0 L 121.0 107.0 L 127.0 107.0 L 134.0 107.0 L 141.0 107.0 L 147.0 108.0 L 151.0 108.0 L 152.0 108.0 " stroke="black" fill="none" stroke-width="5.0" stroke-linecap="round" stroke-linejoin="round" />
<path d="M 68.0 134.0 L 68.0 136.0 L 68.0 138.0 L 68.0 142.0 L 68.0 146.0 L 68.0 151.0 L 68.0 158.0 L 68.0 164.0 L 68.0 171.0 L 67.0 177.0 L 67.0 182.0 L 67.0 185.0 L 67.0 187.0 L 67.0 187.0 " stroke="black" fill="none" stroke-width="5.0" stroke-linecap="round" stroke-linejoin="round" />
<path d="M 71.0 138.0 L 71.0 138.0 L 70.0 138.0 L 69.0 138.0 L 68.0 138.0 L 68.0 138.0 L 68.0 138.0 L 68.0 138.0 L 68.0 137.0 L 68.0 137.0 L 70.0 137.0 L 72.0 136.0 L 75.0 135.0 L 79.0 135.0 L 84.0 134.0 L 89.0 133.0 L 96.0 132.0 L 102.0 132.0 L 108.0 132.0 L 114.0 131.0 L 120.0 131.0 L 126.0 131.0 L 132.0 131.0 L 136.0 132.0 L 140.0 132.0 L 143.0 133.0 L 144.0 135.0 L 145.0 136.0 L 146.0 137.0 L 146.0 139.0 L 146.0 140.0 L 146.0 142.0 L 146.0 144.0 L 146.0 147.0 L 146.0 150.0 L 146.0 154.0 L 146.0 158.0 L 146.0 162.0 L 146.0 166.0 L 145.0 171.0 L 143.0 176.0 L 142.0 180.0 L 140.0 185.0 L 139.0 186.0 " stroke="black" fill="none" stroke-width="5.0" stroke-linecap="round" stroke-linejoin="round" />
<path d="M 76.0 159.0 L 76.0 159.0 L 75.0 159.0 L 73.0 159.0 L 73.0 159.0 L 73.0 159.0 L 73.0 159.0 L 75.0 159.0 L 78.0 159.0 L 84.0 158.0 L 90.0 158.0 L 97.0 157.0 L 105.0 157.0 L 112.0 156.0 L 119.0 156.0 L 127.0 155.0 L 134.0 155.0 L 139.0 155.0 L 143.0 156.0 L 144.0 157.0 " stroke="black" fill="none" stroke-width="5.0" stroke-linecap="round" stroke-linejoin="round" />
<path d="M 79.0 183.0 L 78.0 183.0 L 75.0 184.0 L 73.0 184.0 L 71.0 184.0 L 70.0 184.0 L 70.0 184.0 L 70.0 184.0 L 71.0 184.0 L 74.0 184.0 L 78.0 184.0 L 83.0 184.0 L 91.0 184.0 L 99.0 184.0 L 106.0 183.0 L 113.0 182.0 L 122.0 181.0 L 129.0 180.0 L 136.0 180.0 L 139.0 180.0 " stroke="black" fill="none" stroke-width="5.0" stroke-linecap="round" stroke-linejoin="round" />
<path d="M 68.0 212.0 L 66.0 212.0 L 64.0 212.0 L 63.0 213.0 L 62.0 213.0 L 62.0 213.0 L 62.0 213.0 L 63.0 213.0 L 67.0 213.0 L 72.0 212.0 L 79.0 211.0 L 87.0 210.0 L 95.0 209.0 L 104.0 208.0 L 111.0 207.0 L 117.0 207.0 L 123.0 207.0 L 128.0 207.0 L 134.0 206.0 L 137.0 206.0 " stroke="black" fill="none" stroke-width="5.0" stroke-linecap="round" stroke-linejoin="round" />
<path d="M 111.0 89.0 L 111.0 89.0 L 111.0 90.0 L 111.0 91.0 L 111.0 93.0 L 111.0 96.0 L 111.0 100.0 L 111.0 105.0 L 111.0 111.0 L 111.0 117.0 L 110.0 124.0 L 110.0 132.0 L 109.0 142.0 L 109.0 152.0 L 108.0 162.0 L 108.0 173.0 L 108.0 183.0 L 108.0 194.0 L 107.0 203.0 L 107.0 210.0 L 107.0 216.0 L 106.0 222.0 L 106.0 225.0 L 105.0 228.0 L 105.0 230.0 L 105.0 230.0 L 105.0 230.0 " stroke="black" fill="none" stroke-width="5.0" stroke-linecap="round" stroke-linejoin="round" />
<path d="M 69.0 243.0 L 69.0 243.0 L 68.0 243.0 L 68.0 243.0 L 67.0 243.0 L 67.0 243.0 L 66.0 243.0 L 66.0 243.0 L 67.0 243.0 L 69.0 242.0 L 72.0 241.0 L 77.0 240.0 L 83.0 238.0 L 92.0 236.0 L 102.0 232.0 L 112.0 227.0 L 123.0 222.0 L 136.0 217.0 L 146.0 213.0 L 149.0 211.0 " stroke="black" fill="none" stroke-width="5.0" stroke-linecap="round" stroke-linejoin="round" />
<path d="M 159.0 130.0 L 159.0 130.0 L 159.0 130.0 L 158.0 130.0 L 158.0 130.0 L 158.0 129.0 L 158.0 129.0 L 159.0 129.0 L 160.0 128.0 L 162.0 128.0 L 165.0 128.0 L 169.0 128.0 L 174.0 128.0 L 179.0 128.0 L 185.0 128.0 L 190.0 128.0 L 194.0 128.0 L 198.0 128.0 L 202.0 128.0 L 205.0 128.0 L 209.0 128.0 L 212.0 127.0 L 215.0 127.0 L 219.0 127.0 L 221.0 127.0 L 224.0 127.0 L 226.0 127.0 L 228.0 127.0 L 229.0 128.0 L 230.0 128.0 L 231.0 128.0 L 232.0 128.0 L 233.0 128.0 L 234.0 129.0 L 234.0 130.0 L 235.0 130.0 L 235.0 131.0 L 235.0 132.0 L 235.0 133.0 L 235.0 134.0 L 235.0 136.0 L 235.0 139.0 L 235.0 141.0 L 235.0 145.0 L 235.0 149.0 L 235.0 153.0 L 235.0 158.0 L 234.0 163.0 L 234.0 168.0 L 233.0 174.0 L 232.0 181.0 L 231.0 187.0 L 231.0 193.0 L 230.0 200.0 L 230.0 206.0 L 229.0 212.0 L 228.0 218.0 L 228.0 224.0 L 228.0 230.0 L 227.0 235.0 L 226.0 239.0 L 226.0 242.0 L 224.0 243.0 L 223.0 244.0 L 221.0 244.0 L 219.0 244.0 L 216.0 243.0 L 211.0 241.0 L 207.0 239.0 L 202.0 237.0 L 199.0 235.0 L 195.0 232.0 L 193.0 230.0 L 191.0 227.0 L 191.0 225.0 " stroke="black" fill="none" stroke-width="5.0" stroke-linecap="round" stroke-linejoin="round" />
<path d="M 191.0 80.0 L 191.0 80.0 L 191.0 81.0 L 191.0 82.0 L 191.0 84.0 L 191.0 85.0 L 191.0 88.0 L 191.0 91.0 L 191.0 96.0 L 192.0 102.0 L 192.0 108.0 L 193.0 116.0 L 193.0 123.0 L 193.0 131.0 L 194.0 141.0 L 194.0 150.0 L 194.0 159.0 L 193.0 168.0 L 192.0 175.0 L 190.0 184.0 L 188.0 193.0 L 186.0 200.0 L 183.0 207.0 L 179.0 214.0 L 174.0 221.0 L 169.0 228.0 L 164.0 234.0 L 159.0 239.0 L 154.0 244.0 L 151.0 247.0 L 149.0 249.0 L 147.0 251.0 " stroke="black" fill="none" stroke-width="5.0" stroke-linecap="round" stroke-linejoin="round" />
</svg>