<svg xmlns="http://www.w3.org/2000/svg" width="300" height="300" viewBox="0 0 300 300">
<path d="M 87.0 77.0 L 87.0 77.0 L 87.0 77.0 L 88.0 77.0 L 88.0 77.0 L 88.0 77.0 L 88.0 77.0 L 88.0 77.0 L 88.0 77.0 L 89.0 78.0 L 89.0 78.0 L 89.0 78.0 L 89.0 79.0 L 89.0 80.0 L 90.0 82.0 L 90.0 84.0 L 90.0 88.0 L 90.0 93.0 L 90.0 100.0 L 90.0 108.0 L 89.0 116.0 L 89.0 123.0 L 89.0 130.0 L 89.0 134.0 L 89.0 136.0 L 90.0 136.0 " stroke="black" fill="none" stroke-width="5.0" stroke-linecap="round" stroke-linejoin="round" />
<path d="M 96.0 77.0 L 96.0 77.0 L 96.0 77.0 L 96.0 77.0 L 95.0 77.0 L 95.0 77.0 L 95.0 77.0 L 95.0 77.0 L 94.0 77.0 L 94.0 77.0 L 94.0 77.0 L 93.0 77.0 L 93.0 77.0 L 93.0 77.0 L 93.0 77.0 L 92.0 77.0 L 92.0 77.0 L 92.0 77.0 L 91.0 77.0 L 91.0 77.0 L 91.0 77.0 L 91.0 77.0 L 91.0 77.0 L 91.0 77.0 L 91.0 77.0 L 91.0 77.0 L 91.0 77.0 L 91.0 77.0 L 91.0 77.0 L 92.0 77.0 L 93.0 77.0 L 94.0 77.0 L 95.0 77.0 L 96.0 77.0 L 97.0 77.0 L 99.0 77.0 L 100.0 77.0 L 101.0 77.0 L 102.0 77.0 L 103.0 77.0 L 104.0 77.0 L 105.0 77.0 L 106.0 77.0 L 107.0 77.0 L 108.0 77.0 L 108.0 77.0 L 109.0 77.0 L 110.0 77.0 L 110.0 77.0 L 111.0 77.0 L 112.0 77.0 L 112.0 77.0 L 113.0 77.0 L 113.0 77.0 L 114.0 77.0 L 114.0 77.0 L 115.0 77.0 L 116.0 77.0 L 117.0 77.0 L 117.0 77.0 L 118.0 77.0 L 119.0 77.0 L 120.0 77.0 L 121.0 77.0 L 122.0 77.0 L 123.0 77.0 L 124.0 77.0 L 125.0 77.0 L 126.0 77.0 L 127.0 77.0 L 128.0 77.0 L 129.0 77.0 L 130.0 77.0 L 132.0 77.0 L 133.0 77.0 L 134.0 77.0 L 135.0 77.0 L 136.0 77.0 L 137.0 77.0 L 139.0 77.0 L 140.0 77.0 L 141.0 77.0 L 142.0 77.0 L 143.0 77.0 L 144.0 77.0 L 145.0 77.0 L 146.0 77.0 L 147.0 77.0 L 148.0 77.0 L 149.0 77.0 L 150.0 77.0 L 150.0 77.0 L 151.0 77.0 L 152.0 77.0 L 152.0 77.0 L 153.0 77.0 L 153.0 77.0 L 154.0 77.0 L 154.0 77.0 L 155.0 77.0 L 155.0 77.0 L 156.0 77.0 L 157.0 77.0 L 157.0 77.0 L 158.0 77.0 L 159.0 77.0 L 159.0 77.0 L 160.0 77.0 L 161.0 77.0 L 162.0 77.0 L 162.0 77.0 L 163.0 77.0 L 164.0 77.0 L 165.0 77.0 L 166.0 77.0 L 166.0 77.0 L 167.0 77.0 L 168.0 77.0 L 169.0 78.0 L 170.0 78.0 L 171.0 78.0 L 172.0 78.0 L 173.0 78.0 L 174.0 78.0 L 175.0 78.0 L 176.0 78.0 L 177.0 78.0 L 178.0 78.0 L 178.0 78.0 L 180.0 78.0 L 180.0 78.0 L 181.0 78.0 L 182.0 78.0 L 183.0 78.0 L 184.0 78.0 L 184.0 78.0 L 185.0 78.0 L 186.0 78.0 L 187.0 78.0 L 188.0 78.0 L 189.0 78.0 L 189.0 78.0 L 190.0 78.0 L 191.0 78.0 L 192.0 78.0 L 192.0 78.0 L 193.0 78.0 L 194.0 78.0 L 194.0 78.0 L 195.0 78.0 L 195.0 78.0 L 196.0 78.0 L 197.0 78.0 L 197.0 78.0 L 198.0 78.0 L 198.0 78.0 L 199.0 78.0 L 199.0 78.0 L 200.0 78.0 L 200.0 78.0 L 201.0 78.0 L 202.0 78.0 L 202.0 78.0 L 203.0 79.0 L 204.0 79.0 L 204.0 79.0 L 205.0 79.0 L 205.0 79.0 L 206.0 80.0 L 206.0 80.0 L 207.0 80.0 L 207.0 80.0 L 208.0 80.0 L 208.0 81.0 L 209.0 81.0 L 209.0 81.0 L 209.0 81.0 L 209.0 81.0 L 210.0 81.0 L 210.0 82.0 L 210.0 82.0 L 210.0 82.0 L 210.0 82.0 L 210.0 83.0 L 210.0 83.0 L 210.0 83.0 L 210.0 84.0 L 210.0 85.0 L 210.0 86.0 L 210.0 87.0 L 210.0 89.0 L 210.0 91.0 L 210.0 93.0 L 210.0 95.0 L 210.0 98.0 L 210.0 101.0 L 211.0 105.0 L 211.0 108.0 L 211.0 111.0 L 212.0 114.0 L 212.0 117.0 L 212.0 119.0 L 212.0 121.0 L 212.0 123.0 L 212.0 124.0 L 212.0 126.0 L 212.0 127.0 L 212.0 128.0 L 212.0 129.0 L 212.0 130.0 L 212.0 131.0 L 212.0 132.0 L 212.0 132.0 L 212.0 133.0 L 212.0 133.0 L 212.0 134.0 L 212.0 134.0 L 212.0 134.0 L 212.0 133.0 L 212.0 132.0 " stroke="black" fill="none" stroke-width="5.0" stroke-linecap="round" stroke-linejoin="round" />
<path d="M 97.0 109.0 L 97.0 109.0 L 97.0 109.0 L 97.0 109.0 L 97.0 109.0 L 97.0 109.0 L 97.0 108.0 L 97.0 108.0 L 97.0 108.0 L 97.0 107.0 L 97.0 107.0 L 96.0 107.0 L 96.0 107.0 L 96.0 107.0 L 96.0 106.0 L 96.0 106.0 L 96.0 106.0 L 96.0 106.0 L 96.0 106.0 L 96.0 106.0 L 96.0 106.0 L 97.0 106.0 L 97.0 106.0 L 98.0 106.0 L 99.0 106.0 L 99.0 106.0 L 100.0 106.0 L 101.0 106.0 L 102.0 106.0 L 103.0 106.0 L 104.0 106.0 L 105.0 107.0 L 106.0 107.0 L 107.0 107.0 L 108.0 107.0 L 109.0 107.0 L 110.0 107.0 L 111.0 107.0 L 112.0 107.0 L 113.0 107.0 L 114.0 107.0 L 115.0 107.0 L 116.0 107.0 L 116.0 107.0 L 117.0 107.0 L 118.0 107.0 L 119.0 107.0 L 120.0 107.0 L 121.0 107.0 L 122.0 107.0 L 123.0 107.0 L 124.0 107.0 L 125.0 107.0 L 125.0 107.0 L 126.0 106.0 L 127.0 106.0 L 128.0 106.0 L 129.0 106.0 L 130.0 106.0 L 131.0 106.0 L 132.0 106.0 L 133.0 106.0 L 134.0 106.0 L 135.0 105.0 L 136.0 105.0 L 137.0 105.0 L 138.0 105.0 L 138.0 105.0 L 139.0 105.0 L 140.0 105.0 L 141.0 105.0 L 142.0 105.0 L 143.0 105.0 L 143.0 105.0 L 144.0 105.0 L 145.0 105.0 L 145.0 105.0 L 146.0 105.0 L 146.0 105.0 L 147.0 105.0 L 148.0 105.0 L 148.0 105.0 L 149.0 105.0 L 149.0 105.0 L 150.0 105.0 L 151.0 105.0 L 151.0 105.0 L 152.0 105.0 L 152.0 105.0 L 152.0 105.0 L 153.0 105.0 L 153.0 105.0 L 154.0 105.0 L 155.0 105.0 L 155.0 105.0 L 156.0 105.0 L 157.0 105.0 L 157.0 105.0 L 158.0 105.0 L 159.0 105.0 L 160.0 105.0 L 160.0 105.0 L 162.0 105.0 L 163.0 105.0 L 164.0 105.0 L 165.0 105.0 L 166.0 105.0 L 167.0 105.0 L 169.0 105.0 L 170.0 105.0 L 172.0 106.0 L 173.0 106.0 L 175.0 106.0 L 176.0 106.0 L 178.0 106.0 L 179.0 106.0 L 180.0 106.0 L 182.0 106.0 L 183.0 106.0 L 184.0 106.0 L 185.0 106.0 L 186.0 106.0 L 187.0 106.0 L 188.0 107.0 L 189.0 107.0 L 190.0 107.0 L 191.0 107.0 L 192.0 107.0 L 193.0 107.0 L 194.0 107.0 L 194.0 107.0 L 195.0 107.0 L 196.0 107.0 L 197.0 107.0 L 198.0 107.0 L 199.0 107.0 L 200.0 107.0 L 200.0 107.0 L 201.0 107.0 L 202.0 107.0 L 202.0 107.0 " stroke="black" fill="none" stroke-width="5.0" stroke-linecap="round" stroke-linejoin="round" />
<path d="M 91.0 135.0 L 91.0 135.0 L 91.0 135.0 L 91.0 135.0 L 90.0 135.0 L 90.0 135.0 L 90.0 135.0 L 90.0 135.0 L 90.0 135.0 L 89.0 135.0 L 89.0 135.0 L 89.0 135.0 L 89.0 135.0 L 89.0 135.0 L 89.0 135.0 L 88.0 135.0 L 88.0 135.0 L 88.0 135.0 L 88.0 135.0 L 88.0 135.0 L 88.0 135.0 L 88.0 135.0 L 88.0 135.0 L 88.0 136.0 L 88.0 136.0 L 88.0 136.0 L 88.0 136.0 L 89.0 136.0 L 89.0 136.0 L 90.0 136.0 L 91.0 136.0 L 91.0 136.0 L 92.0 136.0 L 93.0 136.0 L 93.0 136.0 L 94.0 136.0 L 95.0 136.0 L 95.0 136.0 L 96.0 136.0 L 97.0 136.0 L 98.0 136.0 L 99.0 136.0 L 99.0 136.0 L 100.0 136.0 L 101.0 136.0 L 101.0 136.0 L 102.0 136.0 L 103.0 136.0 L 103.0 136.0 L 104.0 135.0 L 105.0 135.0 L 105.0 135.0 L 106.0 135.0 L 106.0 135.0 L 107.0 135.0 L 107.0 135.0 L 108.0 135.0 L 108.0 135.0 L 109.0 135.0 L 110.0 135.0 L 110.0 135.0 L 111.0 135.0 L 111.0 134.0 L 112.0 134.0 L 113.0 134.0 L 113.0 134.0 L 114.0 134.0 L 114.0 134.0 L 115.0 134.0 L 116.0 134.0 L 116.0 134.0 L 117.0 134.0 L 118.0 134.0 L 118.0 134.0 L 119.0 134.0 L 120.0 134.0 L 121.0 134.0 L 121.0 134.0 L 122.0 134.0 L 123.0 134.0 L 124.0 134.0 L 124.0 134.0 L 125.0 134.0 L 126.0 134.0 L 127.0 134.0 L 128.0 134.0 L 129.0 134.0 L 130.0 134.0 L 131.0 134.0 L 132.0 134.0 L 133.0 134.0 L 134.0 134.0 L 135.0 134.0 L 136.0 134.0 L 137.0 134.0 L 138.0 134.0 L 139.0 134.0 L 140.0 134.0 L 141.0 134.0 L 143.0 134.0 L 144.0 134.0 L 144.0 134.0 L 146.0 134.0 L 147.0 134.0 L 148.0 134.0 L 148.0 134.0 L 149.0 134.0 L 150.0 135.0 L 151.0 135.0 L 152.0 135.0 L 153.0 135.0 L 153.0 135.0 L 154.0 135.0 L 155.0 135.0 L 156.0 136.0 L 157.0 136.0 L 157.0 136.0 L 158.0 136.0 L 159.0 136.0 L 160.0 136.0 L 161.0 136.0 L 162.0 136.0 L 163.0 136.0 L 164.0 136.0 L 165.0 136.0 L 166.0 136.0 L 167.0 136.0 L 168.0 136.0 L 169.0 136.0 L 171.0 136.0 L 172.0 136.0 L 174.0 136.0 L 175.0 136.0 L 176.0 136.0 L 178.0 136.0 L 179.0 136.0 L 181.0 136.0 L 182.0 136.0 L 184.0 136.0 L 185.0 136.0 L 187.0 136.0 L 188.0 136.0 L 190.0 136.0 L 191.0 136.0 L 192.0 136.0 L 193.0 136.0 L 194.0 136.0 L 196.0 136.0 L 196.0 136.0 L 198.0 136.0 L 199.0 136.0 L 200.0 136.0 L 201.0 136.0 L 202.0 136.0 L 204.0 136.0 L 205.0 136.0 L 207.0 136.0 L 208.0 136.0 L 210.0 135.0 L 212.0 135.0 L 213.0 134.0 L 214.0 133.0 L 215.0 133.0 L 216.0 133.0 " stroke="black" fill="none" stroke-width="5.0" stroke-linecap="round" stroke-linejoin="round" />
<path d="M 65.0 164.0 L 65.0 164.0 L 65.0 164.0 L 65.0 164.0 L 65.0 164.0 L 65.0 164.0 L 65.0 164.0 L 65.0 164.0 L 66.0 164.0 L 66.0 164.0 L 66.0 164.0 L 66.0 164.0 L 66.0 164.0 L 66.0 164.0 L 66.0 164.0 L 66.0 164.0 L 67.0 164.0 L 67.0 164.0 L 67.0 164.0 L 67.0 164.0 L 68.0 164.0 L 68.0 164.0 L 68.0 164.0 L 69.0 164.0 L 69.0 164.0 L 70.0 164.0 L 71.0 164.0 L 71.0 164.0 L 72.0 164.0 L 73.0 164.0 L 74.0 164.0 L 74.0 164.0 L 75.0 165.0 L 76.0 165.0 L 77.0 165.0 L 78.0 165.0 L 79.0 165.0 L 80.0 165.0 L 81.0 165.0 L 82.0 165.0 L 83.0 166.0 L 85.0 166.0 L 86.0 166.0 L 87.0 166.0 L 89.0 166.0 L 90.0 166.0 L 91.0 166.0 L 92.0 166.0 L 93.0 166.0 L 94.0 166.0 L 96.0 166.0 L 97.0 166.0 L 98.0 166.0 L 99.0 166.0 L 100.0 166.0 L 101.0 166.0 L 102.0 166.0 L 103.0 166.0 L 104.0 166.0 L 105.0 166.0 L 106.0 166.0 L 107.0 166.0 L 108.0 166.0 L 109.0 166.0 L 110.0 166.0 L 112.0 166.0 L 113.0 166.0 L 114.0 166.0 L 115.0 166.0 L 116.0 166.0 L 118.0 166.0 L 119.0 166.0 L 121.0 166.0 L 122.0 167.0 L 124.0 167.0 L 126.0 167.0 L 128.0 167.0 L 130.0 167.0 L 133.0 167.0 L 135.0 167.0 L 137.0 167.0 L 139.0 167.0 L 142.0 166.0 L 144.0 166.0 L 146.0 166.0 L 147.0 166.0 L 149.0 165.0 L 150.0 165.0 L 151.0 165.0 L 153.0 165.0 L 154.0 165.0 L 155.0 165.0 L 156.0 164.0 L 157.0 164.0 L 159.0 164.0 L 160.0 164.0 L 162.0 164.0 L 164.0 164.0 L 166.0 164.0 L 167.0 164.0 L 169.0 164.0 L 171.0 164.0 L 173.0 164.0 L 175.0 164.0 L 177.0 163.0 L 178.0 163.0 L 180.0 163.0 L 182.0 163.0 L 184.0 163.0 L 185.0 162.0 L 187.0 162.0 L 188.0 162.0 L 189.0 162.0 L 191.0 161.0 L 192.0 161.0 L 193.0 161.0 L 194.0 160.0 L 195.0 160.0 L 196.0 160.0 L 197.0 160.0 L 198.0 160.0 L 199.0 160.0 L 200.0 160.0 L 202.0 159.0 L 203.0 159.0 L 204.0 159.0 L 206.0 159.0 L 207.0 159.0 L 209.0 159.0 L 211.0 159.0 L 213.0 159.0 L 215.0 159.0 L 217.0 159.0 L 219.0 159.0 L 221.0 159.0 L 223.0 159.0 L 225.0 159.0 L 227.0 159.0 L 229.0 159.0 L 230.0 159.0 L 232.0 159.0 L 234.0 160.0 L 235.0 160.0 L 236.0 160.0 L 237.0 160.0 L 238.0 160.0 L 239.0 160.0 L 239.0 160.0 L 239.0 160.0 L 240.0 160.0 " stroke="black" fill="none" stroke-width="5.0" stroke-linecap="round" stroke-linejoin="round" />
<path d="M 152.0 172.0 L 152.0 172.0 L 152.0 171.0 L 152.0 170.0 L 152.0 170.0 L 152.0 170.0 L 152.0 169.0 L 152.0 169.0 L 152.0 169.0 L 152.0 169.0 L 152.0 169.0 L 152.0 170.0 L 152.0 171.0 L 152.0 172.0 L 152.0 174.0 L 152.0 177.0 L 152.0 181.0 L 152.0 186.0 L 152.0 191.0 L 152.0 198.0 L 152.0 205.0 L 152.0 212.0 L 152.0 218.0 L 152.0 224.0 L 151.0 228.0 L 151.0 231.0 L 151.0 234.0 L 151.0 234.0 L 151.0 234.0 L 151.0 234.0 L 151.0 234.0 L 151.0 234.0 " stroke="black" fill="none" stroke-width="5.0" stroke-linecap="round" stroke-linejoin="round" />
<path d="M 156.0 201.0 L 156.0 201.0 L 156.0 201.0 L 156.0 201.0 L 156.0 201.0 L 156.0 200.0 L 156.0 200.0 L 156.0 200.0 L 155.0 200.0 L 155.0 200.0 L 155.0 200.0 L 155.0 200.0 L 155.0 200.0 L 155.0 200.0 L 156.0 200.0 L 156.0 200.0 L 157.0 200.0 L 158.0 200.0 L 159.0 200.0 L 161.0 200.0 L 163.0 200.0 L 165.0 200.0 L 168.0 200.0 L 171.0 200.0 L 174.0 200.0 L 177.0 200.0 L 180.0 200.0 L 182.0 200.0 L 185.0 200.0 L 187.0 200.0 L 189.0 200.0 L 190.0 200.0 L 192.0 200.0 L 193.0 200.0 L 194.0 200.0 L 195.0 200.0 L 196.0 200.0 L 198.0 201.0 L 199.0 201.0 L 201.0 201.0 L 202.0 201.0 L 204.0 201.0 L 206.0 201.0 L 208.0 201.0 L 210.0 201.0 L 211.0 201.0 L 213.0 201.0 L 215.0 201.0 L 217.0 201.0 L 218.0 202.0 L 219.0 202.0 L 220.0 202.0 L 221.0 202.0 L 222.0 202.0 " stroke="black" fill="none" stroke-width="5.0" stroke-linecap="round" stroke-linejoin="round" />
<path d="M 103.0 182.0 L 103.0 182.0 L 103.0 182.0 L 103.0 182.0 L 103.0 182.0 L 103.0 182.0 L 103.0 182.0 L 103.0 182.0 L 103.0 182.0 L 103.0 182.0 L 103.0 182.0 L 103.0 181.0 L 103.0 181.0 L 103.0 181.0 L 103.0 181.0 L 103.0 181.0 L 103.0 181.0 L 103.0 181.0 L 103.0 181.0 L 103.0 181.0 L 103.0 182.0 L 103.0 182.0 L 103.0 184.0 L 103.0 185.0 L 102.0 188.0 L 102.0 190.0 L 101.0 194.0 L 100.0 197.0 L 99.0 201.0 L 98.0 204.0 L 97.0 208.0 L 95.0 211.0 L 93.0 215.0 L 91.0 218.0 L 89.0 221.0 L 86.0 225.0 L 82.0 229.0 L 79.0 232.0 L 76.0 236.0 L 73.0 239.0 L 70.0 242.0 L 68.0 245.0 L 66.0 248.0 L 64.0 250.0 L 64.0 252.0 " stroke="black" fill="none" stroke-width="5.0" stroke-linecap="round" stroke-linejoin="round" />
<path d="M 103.0 205.0 L 103.0 205.0 L 103.0 205.0 L 103.0 205.0 L 103.0 205.0 L 103.0 205.0 L 103.0 204.0 L 103.0 204.0 L 103.0 204.0 L 103.0 204.0 L 103.0 204.0 L 103.0 204.0 L 103.0 204.0 L 103.0 204.0 L 102.0 204.0 L 102.0 204.0 L 102.0 204.0 L 102.0 204.0 L 102.0 204.0 L 102.0 205.0 L 102.0 205.0 L 103.0 206.0 L 103.0 207.0 L 103.0 207.0 L 104.0 208.0 L 104.0 209.0 L 105.0 210.0 L 105.0 211.0 L 106.0 211.0 L 106.0 212.0 L 107.0 213.0 L 107.0 214.0 L 108.0 215.0 L 109.0 216.0 L 109.0 217.0 L 110.0 218.0 L 110.0 219.0 L 111.0 220.0 L 112.0 221.0 L 112.0 222.0 L 113.0 223.0 L 114.0 223.0 L 114.0 224.0 L 115.0 225.0 L 115.0 226.0 L 116.0 226.0 L 116.0 227.0 L 117.0 228.0 L 118.0 228.0 L 118.0 229.0 L 119.0 229.0 L 119.0 230.0 L 120.0 231.0 L 120.0 231.0 L 121.0 232.0 L 122.0 232.0 L 123.0 233.0 L 123.0 233.0 L 124.0 234.0 L 125.0 234.0 L 126.0 234.0 L 127.0 235.0 L 128.0 235.0 L 129.0 236.0 L 130.0 236.0 L 131.0 237.0 L 132.0 237.0 L 133.0 237.0 L 134.0 238.0 L 135.0 238.0 L 136.0 238.0 L 137.0 239.0 L 138.0 239.0 L 139.0 239.0 L 140.0 240.0 L 141.0 240.0 L 143.0 240.0 L 143.0 241.0 L 144.0 241.0 L 146.0 241.0 L 146.0 242.0 L 147.0 242.0 L 148.0 242.0 L 149.0 243.0 L 150.0 243.0 L 151.0 243.0 L 152.0 244.0 L 153.0 244.0 L 153.0 244.0 L 154.0 244.0 L 155.0 244.0 L 156.0 245.0 L 156.0 245.0 L 157.0 245.0 L 158.0 245.0 L 159.0 245.0 L 160.0 245.0 L 161.0 245.0 L 162.0 246.0 L 163.0 246.0 L 164.0 246.0 L 165.0 246.0 L 166.0 246.0 L 168.0 246.0 L 168.0 246.0 L 169.0 246.0 L 171.0 246.0 L 172.0 246.0 L 173.0 246.0 L 174.0 246.0 L 175.0 246.0 L 176.0 246.0 L 177.0 246.0 L 178.0 246.0 L 179.0 247.0 L 180.0 247.0 L 181.0 247.0 L 182.0 247.0 L 183.0 247.0 L 184.0 247.0 L 184.0 248.0 L 185.0 248.0 L 186.0 248.0 L 187.0 248.0 L 187.0 248.0 L 188.0 248.0 L 189.0 248.0 L 189.0 248.0 L 190.0 249.0 L 191.0 249.0 L 191.0 249.0 L 192.0 249.0 L 193.0 249.0 L 193.0 249.0 L 194.0 249.0 L 194.0 249.0 L 195.0 249.0 L 195.0 249.0 L 196.0 249.0 L 197.0 249.0 L 197.0 249.0 L 198.0 249.0 L 199.0 249.0 L 200.0 249.0 L 200.0 249.0 L 201.0 249.0 L 202.0 249.0 L 203.0 249.0 L 204.0 249.0 L 205.0 249.0 L 207.0 249.0 L 208.0 249.0 L 209.0 249.0 L 210.0 249.0 L 212.0 249.0 L 213.0 249.0 L 214.0 249.0 L 215.0 249.0 L 216.0 248.0 L 217.0 248.0 L 218.0 248.0 L 219.0 248.0 L 220.0 247.0 L 221.0 247.0 L 222.0 247.0 L 223.0 247.0 L 224.0 246.0 L 225.0 246.0 L 226.0 246.0 L 227.0 246.0 L 228.0 245.0 L 229.0 245.0 L 230.0 245.0 L 230.0 245.0 L 232.0 245.0 L 232.0 245.0 L 233.0 245.0 L 234.0 245.0 L 235.0 245.0 L 235.0 245.0 L 236.0 245.0 L 236.0 245.0 L 236.0 244.0 L 236.0 244.0 " stroke="black" fill="none" stroke-width="5.0" stroke-linecap="round" stroke-linejoin="round" />
</svg>