<svg xmlns="http://www.w3.org/2000/svg" width="300" height="300" viewBox="0 0 300 300">
<path d="M 206.0 68.0 L 206.0 68.0 L 205.0 68.0 L 205.0 68.0 L 205.0 68.0 L 205.0 69.0 L 204.0 69.0 L 204.0 69.0 L 204.0 69.0 L 204.0 70.0 L 203.0 70.0 L 203.0 71.0 L 202.0 73.0 L 202.0 74.0 L 201.0 76.0 L 200.0 78.0 L 199.0 81.0 L 198.0 83.0 L 197.0 86.0 L 196.0 89.0 L 195.0 92.0 L 194.0 95.0 L 193.0 98.0 L 193.0 101.0 L 192.0 105.0 L 191.0 107.0 L 190.0 110.0 L 189.0 112.0 L 188.0 114.0 L 187.0 116.0 L 186.0 118.0 L 185.0 119.0 L 184.0 121.0 L 183.0 123.0 L 181.0 124.0 L 180.0 126.0 L 178.0 128.0 L 177.0 130.0 L 176.0 132.0 L 174.0 135.0 L 173.0 136.0 L 172.0 138.0 L 171.0 141.0 L 170.0 142.0 L 169.0 144.0 L 168.0 146.0 L 167.0 148.0 L 166.0 150.0 L 164.0 152.0 L 164.0 154.0 L 162.0 155.0 L 161.0 157.0 L 160.0 158.0 L 160.0 159.0 L 159.0 160.0 L 159.0 161.0 L 158.0 161.0 L 158.0 162.0 L 158.0 162.0 L 158.0 163.0 L 158.0 163.0 L 158.0 163.0 L 158.0 163.0 L 158.0 163.0 L 158.0 163.0 L 158.0 163.0 L 158.0 163.0 L 158.0 163.0 L 158.0 163.0 L 158.0 163.0 L 158.0 163.0 L 158.0 163.0 L 158.0 163.0 L 158.0 163.0 L 158.0 163.0 L 158.0 163.0 L 158.0 163.0 L 158.0 163.0 L 158.0 163.0 L 158.0 163.0 L 158.0 163.0 L 158.0 164.0 L 159.0 165.0 L 160.0 166.0 L 161.0 167.0 L 162.0 169.0 L 164.0 171.0 L 166.0 173.0 L 168.0 176.0 L 171.0 180.0 L 175.0 185.0 L 178.0 189.0 L 180.0 193.0 L 183.0 197.0 L 185.0 200.0 L 186.0 203.0 L 188.0 205.0 L 188.0 207.0 L 189.0 210.0 L 190.0 212.0 L 191.0 214.0 L 192.0 217.0 L 193.0 221.0 L 194.0 224.0 L 195.0 228.0 L 196.0 232.0 L 197.0 234.0 L 198.0 237.0 L 199.0 239.0 L 200.0 240.0 L 200.0 241.0 L 201.0 243.0 L 202.0 244.0 L 202.0 245.0 L 203.0 247.0 L 204.0 248.0 L 205.0 250.0 L 205.0 251.0 L 206.0 252.0 L 206.0 253.0 L 207.0 254.0 L 207.0 254.0 L 207.0 254.0 L 207.0 253.0 " stroke="black" fill="none" stroke-width="6.0" stroke-linecap="round" stroke-linejoin="round" />
<path d="M 236.0 73.0 L 236.0 73.0 L 236.0 73.0 L 236.0 73.0 L 235.0 73.0 L 235.0 74.0 L 235.0 74.0 L 235.0 75.0 L 234.0 76.0 L 234.0 78.0 L 233.0 81.0 L 232.0 84.0 L 231.0 87.0 L 230.0 92.0 L 228.0 97.0 L 227.0 102.0 L 225.0 107.0 L 223.0 111.0 L 221.0 115.0 L 219.0 119.0 L 217.0 122.0 L 215.0 125.0 L 212.0 128.0 L 210.0 131.0 L 208.0 135.0 L 205.0 138.0 L 204.0 141.0 L 202.0 144.0 L 201.0 147.0 L 200.0 148.0 L 199.0 149.0 L 198.0 150.0 L 198.0 151.0 L 198.0 151.0 L 198.0 152.0 L 198.0 152.0 L 197.0 153.0 L 197.0 154.0 L 197.0 154.0 L 197.0 155.0 L 197.0 156.0 L 197.0 156.0 L 196.0 157.0 L 196.0 157.0 L 196.0 157.0 L 196.0 157.0 L 196.0 158.0 L 196.0 158.0 L 196.0 158.0 L 196.0 158.0 L 196.0 158.0 L 196.0 158.0 L 196.0 158.0 L 196.0 159.0 L 196.0 159.0 L 196.0 160.0 L 196.0 160.0 L 196.0 160.0 L 197.0 161.0 L 197.0 161.0 L 197.0 162.0 L 197.0 162.0 L 197.0 163.0 L 197.0 163.0 L 197.0 164.0 L 197.0 164.0 L 197.0 165.0 L 198.0 166.0 L 198.0 167.0 L 198.0 169.0 L 199.0 170.0 L 200.0 173.0 L 200.0 175.0 L 202.0 179.0 L 203.0 182.0 L 205.0 186.0 L 207.0 191.0 L 210.0 195.0 L 212.0 199.0 L 215.0 204.0 L 218.0 208.0 L 220.0 212.0 L 222.0 216.0 L 223.0 220.0 L 225.0 223.0 L 226.0 226.0 L 227.0 229.0 L 228.0 232.0 L 230.0 234.0 L 231.0 236.0 L 232.0 238.0 L 233.0 241.0 L 234.0 242.0 L 234.0 244.0 L 235.0 246.0 L 236.0 248.0 L 236.0 250.0 L 237.0 251.0 L 237.0 252.0 L 237.0 253.0 L 237.0 254.0 L 237.0 254.0 L 237.0 255.0 L 237.0 255.0 L 237.0 256.0 L 237.0 256.0 L 237.0 256.0 L 237.0 256.0 L 237.0 256.0 L 237.0 257.0 L 237.0 257.0 L 237.0 257.0 " stroke="black" fill="none" stroke-width="6.0" stroke-linecap="round" stroke-linejoin="round" />
</svg>