<svg xmlns="http://www.w3.org/2000/svg" width="300" height="300" viewBox="0 0 300 300">
<path d="M 206.0 67.0 L 206.0 67.0 L 206.0 67.0 L 206.0 67.0 L 206.0 68.0 L 206.0 68.0 L 206.0 68.0 L 206.0 68.0 L 206.0 68.0 L 206.0 68.0 L 206.0 68.0 L 206.0 68.0 L 206.0 68.0 L 206.0 68.0 L 206.0 68.0 L 206.0 69.0 L 205.0 69.0 L 205.0 70.0 L 205.0 70.0 L 205.0 71.0 L 204.0 72.0 L 204.0 73.0 L 203.0 75.0 L 203.0 76.0 L 202.0 78.0 L 201.0 80.0 L 201.0 82.0 L 200.0 83.0 L 199.0 85.0 L 199.0 87.0 L 198.0 89.0 L 198.0 90.0 L 197.0 92.0 L 197.0 93.0 L 196.0 95.0 L 196.0 97.0 L 195.0 99.0 L 194.0 101.0 L 194.0 103.0 L 193.0 105.0 L 193.0 107.0 L 192.0 109.0 L 191.0 111.0 L 191.0 112.0 L 190.0 114.0 L 189.0 116.0 L 189.0 117.0 L 188.0 119.0 L 188.0 120.0 L 187.0 121.0 L 186.0 123.0 L 185.0 124.0 L 185.0 126.0 L 184.0 127.0 L 183.0 129.0 L 182.0 130.0 L 181.0 132.0 L 180.0 133.0 L 180.0 135.0 L 178.0 136.0 L 178.0 137.0 L 177.0 139.0 L 175.0 140.0 L 174.0 142.0 L 173.0 143.0 L 172.0 145.0 L 171.0 146.0 L 170.0 148.0 L 169.0 149.0 L 168.0 151.0 L 167.0 152.0 L 166.0 154.0 L 166.0 155.0 L 165.0 156.0 L 164.0 157.0 L 164.0 158.0 L 164.0 158.0 L 163.0 159.0 L 163.0 160.0 L 162.0 160.0 L 162.0 161.0 L 162.0 161.0 L 162.0 161.0 L 161.0 161.0 L 161.0 161.0 L 161.0 161.0 L 161.0 161.0 L 161.0 161.0 L 161.0 161.0 L 161.0 161.0 L 161.0 161.0 L 161.0 161.0 L 160.0 161.0 L 160.0 161.0 L 160.0 162.0 L 160.0 162.0 L 160.0 162.0 L 160.0 162.0 L 160.0 162.0 L 160.0 162.0 L 160.0 162.0 L 160.0 162.0 L 160.0 162.0 L 160.0 163.0 L 160.0 163.0 L 160.0 163.0 L 160.0 164.0 L 160.0 164.0 L 160.0 165.0 L 160.0 165.0 L 161.0 166.0 L 161.0 167.0 L 162.0 168.0 L 162.0 169.0 L 163.0 171.0 L 164.0 173.0 L 166.0 176.0 L 168.0 180.0 L 170.0 183.0 L 172.0 187.0 L 174.0 190.0 L 176.0 193.0 L 178.0 197.0 L 180.0 200.0 L 182.0 202.0 L 184.0 206.0 L 185.0 209.0 L 187.0 212.0 L 188.0 216.0 L 190.0 220.0 L 191.0 225.0 L 192.0 229.0 L 193.0 233.0 L 193.0 236.0 L 194.0 238.0 L 194.0 240.0 L 194.0 241.0 L 195.0 242.0 L 195.0 243.0 L 195.0 243.0 " stroke="black" fill="none" stroke-width="5.0" stroke-linecap="round" stroke-linejoin="round" />
<path d="M 237.0 75.0 L 237.0 75.0 L 237.0 75.0 L 237.0 76.0 L 237.0 76.0 L 237.0 76.0 L 237.0 77.0 L 237.0 77.0 L 236.0 78.0 L 236.0 79.0 L 235.0 80.0 L 235.0 82.0 L 234.0 84.0 L 233.0 86.0 L 231.0 88.0 L 230.0 91.0 L 229.0 95.0 L 227.0 98.0 L 225.0 102.0 L 223.0 106.0 L 221.0 110.0 L 220.0 113.0 L 218.0 116.0 L 216.0 120.0 L 214.0 123.0 L 212.0 125.0 L 210.0 128.0 L 208.0 130.0 L 207.0 132.0 L 206.0 135.0 L 205.0 137.0 L 204.0 139.0 L 203.0 142.0 L 202.0 144.0 L 201.0 146.0 L 200.0 148.0 L 199.0 149.0 L 199.0 151.0 L 198.0 152.0 L 198.0 153.0 L 197.0 154.0 L 196.0 155.0 L 196.0 156.0 L 196.0 157.0 L 196.0 157.0 L 196.0 157.0 L 195.0 158.0 L 195.0 158.0 L 195.0 158.0 L 195.0 158.0 L 195.0 159.0 L 195.0 159.0 L 195.0 159.0 L 195.0 159.0 L 195.0 159.0 L 195.0 159.0 L 195.0 160.0 L 195.0 160.0 L 195.0 160.0 L 195.0 160.0 L 195.0 160.0 L 195.0 160.0 L 195.0 160.0 L 195.0 161.0 L 195.0 161.0 L 195.0 161.0 L 195.0 161.0 L 195.0 161.0 L 195.0 161.0 L 195.0 162.0 L 195.0 162.0 L 195.0 162.0 L 195.0 162.0 L 195.0 163.0 L 195.0 163.0 L 195.0 164.0 L 196.0 165.0 L 196.0 166.0 L 197.0 167.0 L 198.0 169.0 L 199.0 172.0 L 200.0 175.0 L 202.0 179.0 L 204.0 183.0 L 207.0 188.0 L 209.0 192.0 L 211.0 197.0 L 214.0 200.0 L 216.0 204.0 L 219.0 208.0 L 221.0 211.0 L 224.0 214.0 L 226.0 218.0 L 229.0 222.0 L 231.0 226.0 L 233.0 230.0 L 234.0 234.0 L 236.0 237.0 L 237.0 239.0 L 237.0 241.0 L 237.0 242.0 L 238.0 243.0 L 238.0 243.0 L 238.0 243.0 L 238.0 243.0 L 238.0 243.0 " stroke="black" fill="none" stroke-width="5.0" stroke-linecap="round" stroke-linejoin="round" />
</svg>