<svg xmlns="http://www.w3.org/2000/svg" width="300" height="300" viewBox="0 0 300 300">
<path d="M 202.0 68.0 L 202.0 68.0 L 202.0 68.0 L 202.0 68.0 L 202.0 68.0 L 202.0 68.0 L 202.0 68.0 L 202.0 68.0 L 202.0 68.0 L 202.0 68.0 L 202.0 68.0 L 202.0 69.0 L 202.0 69.0 L 202.0 71.0 L 202.0 72.0 L 201.0 74.0 L 200.0 76.0 L 200.0 78.0 L 199.0 81.0 L 198.0 83.0 L 198.0 85.0 L 197.0 88.0 L 196.0 90.0 L 196.0 92.0 L 195.0 95.0 L 195.0 97.0 L 194.0 99.0 L 193.0 102.0 L 193.0 104.0 L 192.0 106.0 L 192.0 108.0 L 191.0 110.0 L 191.0 112.0 L 190.0 114.0 L 189.0 116.0 L 188.0 118.0 L 188.0 120.0 L 187.0 121.0 L 186.0 123.0 L 185.0 125.0 L 184.0 127.0 L 183.0 129.0 L 182.0 131.0 L 181.0 133.0 L 179.0 136.0 L 178.0 138.0 L 177.0 141.0 L 175.0 143.0 L 174.0 146.0 L 172.0 148.0 L 171.0 150.0 L 169.0 152.0 L 167.0 154.0 L 166.0 156.0 L 164.0 158.0 L 163.0 159.0 L 162.0 160.0 L 160.0 162.0 L 159.0 163.0 L 158.0 164.0 L 157.0 165.0 L 156.0 165.0 L 156.0 166.0 L 155.0 166.0 L 155.0 166.0 L 155.0 166.0 L 155.0 166.0 L 155.0 166.0 L 155.0 166.0 L 155.0 166.0 L 155.0 166.0 L 155.0 166.0 L 155.0 166.0 L 155.0 166.0 L 155.0 166.0 L 155.0 166.0 L 156.0 166.0 L 156.0 166.0 L 156.0 166.0 L 156.0 166.0 L 156.0 166.0 L 156.0 166.0 L 157.0 166.0 L 157.0 167.0 L 158.0 167.0 L 158.0 168.0 L 159.0 170.0 L 161.0 171.0 L 162.0 173.0 L 164.0 176.0 L 166.0 179.0 L 169.0 182.0 L 172.0 186.0 L 175.0 190.0 L 178.0 194.0 L 181.0 198.0 L 184.0 202.0 L 187.0 205.0 L 189.0 209.0 L 191.0 212.0 L 192.0 215.0 L 193.0 218.0 L 194.0 221.0 L 195.0 224.0 L 196.0 228.0 L 197.0 232.0 L 198.0 235.0 L 199.0 238.0 L 200.0 241.0 L 201.0 243.0 L 201.0 244.0 L 202.0 245.0 L 202.0 245.0 L 202.0 245.0 " stroke="black" fill="none" stroke-width="5.0" stroke-linecap="round" stroke-linejoin="round" />
<path d="M 236.0 74.0 L 236.0 74.0 L 235.0 74.0 L 235.0 74.0 L 235.0 74.0 L 234.0 75.0 L 234.0 76.0 L 234.0 77.0 L 233.0 78.0 L 233.0 80.0 L 232.0 83.0 L 232.0 87.0 L 230.0 91.0 L 229.0 97.0 L 227.0 103.0 L 225.0 109.0 L 222.0 114.0 L 219.0 120.0 L 217.0 124.0 L 214.0 129.0 L 212.0 133.0 L 209.0 137.0 L 207.0 143.0 L 205.0 147.0 L 204.0 150.0 L 202.0 154.0 L 201.0 155.0 L 200.0 157.0 L 200.0 158.0 L 199.0 159.0 L 199.0 159.0 L 198.0 160.0 L 198.0 160.0 L 198.0 160.0 L 198.0 160.0 L 198.0 160.0 L 198.0 160.0 L 198.0 160.0 L 198.0 160.0 L 198.0 160.0 L 198.0 161.0 L 198.0 161.0 L 198.0 161.0 L 198.0 161.0 L 198.0 161.0 L 198.0 162.0 L 198.0 162.0 L 198.0 162.0 L 198.0 163.0 L 198.0 164.0 L 198.0 164.0 L 198.0 166.0 L 199.0 167.0 L 200.0 168.0 L 201.0 171.0 L 202.0 174.0 L 204.0 177.0 L 206.0 182.0 L 209.0 187.0 L 212.0 193.0 L 215.0 198.0 L 218.0 204.0 L 221.0 209.0 L 223.0 214.0 L 226.0 219.0 L 228.0 223.0 L 230.0 226.0 L 231.0 230.0 L 232.0 232.0 L 234.0 235.0 L 235.0 237.0 L 236.0 239.0 L 236.0 240.0 L 237.0 242.0 L 238.0 243.0 L 238.0 243.0 L 238.0 244.0 L 239.0 244.0 L 239.0 245.0 L 239.0 245.0 L 239.0 245.0 L 239.0 245.0 L 239.0 244.0 " stroke="black" fill="none" stroke-width="5.0" stroke-linecap="round" stroke-linejoin="round" />
</svg>