<svg xmlns="http://www.w3.org/2000/svg" width="300" height="300" viewBox="0 0 300 300">
<path d="M 69.0 81.0 L 69.0 81.0 L 69.0 81.0 L 69.0 81.0 L 69.0 81.0 L 69.0 81.0 L 69.0 81.0 L 69.0 81.0 L 69.0 81.0 L 69.0 81.0 L 69.0 81.0 L 69.0 83.0 L 69.0 84.0 L 69.0 87.0 L 69.0 90.0 L 70.0 95.0 L 70.0 100.0 L 70.0 106.0 L 70.0 111.0 L 70.0 117.0 L 70.0 121.0 L 70.0 124.0 L 70.0 126.0 " stroke="black" fill="none" stroke-width="5.0" stroke-linecap="round" stroke-linejoin="round" />
<path d="M 70.0 83.0 L 70.0 83.0 L 69.0 83.0 L 69.0 84.0 L 68.0 84.0 L 68.0 84.0 L 68.0 84.0 L 68.0 84.0 L 68.0 84.0 L 68.0 84.0 L 68.0 84.0 L 68.0 84.0 L 68.0 84.0 L 68.0 84.0 L 68.0 84.0 L 69.0 84.0 L 69.0 83.0 L 70.0 83.0 L 70.0 83.0 L 71.0 83.0 L 72.0 83.0 L 73.0 83.0 L 75.0 82.0 L 76.0 82.0 L 78.0 82.0 L 81.0 82.0 L 83.0 82.0 L 85.0 81.0 L 88.0 81.0 L 90.0 81.0 L 93.0 80.0 L 95.0 80.0 L 97.0 80.0 L 98.0 80.0 L 100.0 80.0 L 101.0 80.0 L 103.0 79.0 L 104.0 79.0 L 106.0 79.0 L 107.0 79.0 L 108.0 79.0 L 109.0 79.0 L 110.0 79.0 L 111.0 79.0 L 111.0 79.0 L 112.0 79.0 L 112.0 80.0 L 113.0 80.0 L 113.0 80.0 L 114.0 80.0 L 114.0 80.0 L 115.0 80.0 L 115.0 81.0 L 116.0 81.0 L 116.0 81.0 L 116.0 81.0 L 117.0 81.0 L 117.0 82.0 L 118.0 82.0 L 118.0 82.0 L 119.0 82.0 L 119.0 82.0 L 120.0 82.0 L 120.0 83.0 L 120.0 83.0 L 121.0 83.0 L 121.0 84.0 L 121.0 84.0 L 122.0 84.0 L 122.0 84.0 L 122.0 85.0 L 123.0 85.0 L 123.0 86.0 L 123.0 86.0 L 123.0 87.0 L 123.0 87.0 L 123.0 89.0 L 123.0 90.0 L 123.0 91.0 L 123.0 93.0 L 123.0 96.0 L 123.0 99.0 L 123.0 102.0 L 123.0 106.0 L 123.0 110.0 L 123.0 114.0 L 123.0 117.0 L 123.0 121.0 L 122.0 124.0 L 122.0 126.0 L 122.0 127.0 L 122.0 128.0 L 121.0 129.0 L 121.0 130.0 L 120.0 130.0 L 120.0 131.0 " stroke="black" fill="none" stroke-width="5.0" stroke-linecap="round" stroke-linejoin="round" />
<path d="M 94.0 107.0 L 94.0 107.0 L 94.0 107.0 L 94.0 107.0 L 94.0 107.0 L 94.0 107.0 L 94.0 107.0 L 94.0 107.0 L 95.0 107.0 L 97.0 107.0 L 100.0 107.0 L 103.0 107.0 L 107.0 107.0 L 110.0 107.0 L 112.0 106.0 " stroke="black" fill="none" stroke-width="5.0" stroke-linecap="round" stroke-linejoin="round" />
<path d="M 97.0 107.0 L 97.0 107.0 L 96.0 107.0 L 96.0 107.0 L 95.0 108.0 L 95.0 108.0 L 94.0 109.0 L 94.0 110.0 L 94.0 111.0 L 94.0 113.0 L 94.0 116.0 L 94.0 120.0 L 94.0 124.0 L 94.0 128.0 L 94.0 130.0 " stroke="black" fill="none" stroke-width="5.0" stroke-linecap="round" stroke-linejoin="round" />
<path d="M 58.0 137.0 L 58.0 137.0 L 58.0 137.0 L 58.0 137.0 L 58.0 138.0 L 58.0 138.0 L 58.0 139.0 L 58.0 140.0 L 58.0 142.0 L 58.0 144.0 L 58.0 147.0 L 58.0 150.0 L 58.0 154.0 L 58.0 157.0 L 59.0 160.0 L 59.0 162.0 L 60.0 164.0 L 60.0 165.0 " stroke="black" fill="none" stroke-width="5.0" stroke-linecap="round" stroke-linejoin="round" />
<path d="M 60.0 139.0 L 60.0 139.0 L 59.0 139.0 L 59.0 139.0 L 59.0 139.0 L 58.0 139.0 L 58.0 138.0 L 58.0 138.0 L 58.0 138.0 L 58.0 138.0 L 58.0 138.0 L 58.0 138.0 L 58.0 138.0 L 58.0 138.0 L 58.0 138.0 L 58.0 137.0 L 59.0 137.0 L 59.0 137.0 L 60.0 137.0 L 60.0 137.0 L 61.0 137.0 L 62.0 137.0 L 62.0 137.0 L 63.0 137.0 L 64.0 137.0 L 64.0 137.0 L 65.0 137.0 L 66.0 137.0 L 66.0 137.0 L 67.0 137.0 L 68.0 137.0 L 69.0 137.0 L 70.0 137.0 L 71.0 137.0 L 72.0 137.0 L 73.0 137.0 L 75.0 137.0 L 76.0 137.0 L 78.0 137.0 L 79.0 137.0 L 80.0 137.0 L 82.0 137.0 L 83.0 137.0 L 85.0 137.0 L 86.0 137.0 L 87.0 137.0 L 89.0 137.0 L 90.0 137.0 L 92.0 136.0 L 93.0 136.0 L 95.0 136.0 L 97.0 136.0 L 99.0 135.0 L 100.0 135.0 L 102.0 135.0 L 103.0 135.0 L 105.0 134.0 L 106.0 134.0 L 107.0 134.0 L 108.0 134.0 L 110.0 134.0 L 111.0 134.0 L 112.0 134.0 L 113.0 134.0 L 114.0 134.0 L 115.0 133.0 L 116.0 133.0 L 117.0 133.0 L 118.0 133.0 L 120.0 133.0 L 121.0 133.0 L 122.0 133.0 L 123.0 133.0 L 124.0 133.0 L 125.0 133.0 L 127.0 133.0 L 128.0 133.0 L 128.0 133.0 L 129.0 133.0 L 130.0 133.0 L 131.0 134.0 L 132.0 134.0 L 132.0 134.0 L 133.0 134.0 L 133.0 135.0 L 133.0 135.0 L 134.0 136.0 L 134.0 136.0 L 134.0 137.0 L 134.0 138.0 L 134.0 139.0 L 134.0 140.0 L 134.0 142.0 L 134.0 143.0 L 134.0 145.0 L 133.0 147.0 L 132.0 149.0 L 132.0 150.0 L 131.0 152.0 L 131.0 153.0 L 130.0 154.0 L 130.0 155.0 L 129.0 155.0 " stroke="black" fill="none" stroke-width="5.0" stroke-linecap="round" stroke-linejoin="round" />
<path d="M 79.0 164.0 L 79.0 164.0 L 79.0 164.0 L 79.0 164.0 L 79.0 164.0 L 79.0 164.0 L 79.0 164.0 L 79.0 164.0 L 79.0 164.0 L 79.0 164.0 L 79.0 165.0 L 79.0 165.0 L 79.0 166.0 L 79.0 166.0 L 79.0 167.0 L 79.0 169.0 L 79.0 170.0 L 79.0 172.0 L 79.0 173.0 L 80.0 175.0 L 80.0 177.0 L 80.0 179.0 L 80.0 182.0 L 80.0 184.0 L 80.0 186.0 L 80.0 188.0 L 80.0 190.0 L 80.0 191.0 L 80.0 193.0 L 80.0 195.0 L 80.0 196.0 L 80.0 198.0 L 80.0 200.0 L 80.0 201.0 L 80.0 202.0 L 80.0 204.0 L 79.0 205.0 L 79.0 206.0 L 79.0 207.0 L 78.0 209.0 L 78.0 210.0 L 78.0 211.0 L 78.0 212.0 L 77.0 213.0 L 77.0 215.0 L 77.0 216.0 L 76.0 217.0 L 76.0 219.0 L 75.0 221.0 L 74.0 222.0 L 74.0 224.0 L 73.0 226.0 L 72.0 228.0 L 71.0 230.0 L 71.0 232.0 L 70.0 234.0 L 69.0 236.0 L 68.0 238.0 L 67.0 239.0 L 66.0 241.0 L 66.0 242.0 L 65.0 243.0 L 65.0 243.0 " stroke="black" fill="none" stroke-width="5.0" stroke-linecap="round" stroke-linejoin="round" />
<path d="M 83.0 165.0 L 83.0 165.0 L 82.0 165.0 L 81.0 165.0 L 81.0 164.0 L 80.0 164.0 L 80.0 164.0 L 80.0 164.0 L 79.0 164.0 L 79.0 164.0 L 79.0 164.0 L 79.0 164.0 L 79.0 164.0 L 79.0 164.0 L 79.0 164.0 L 79.0 164.0 L 80.0 164.0 L 80.0 164.0 L 81.0 164.0 L 82.0 164.0 L 83.0 164.0 L 85.0 164.0 L 86.0 164.0 L 88.0 164.0 L 90.0 164.0 L 92.0 164.0 L 94.0 164.0 L 96.0 164.0 L 98.0 164.0 L 100.0 163.0 L 101.0 163.0 L 103.0 163.0 L 104.0 163.0 L 106.0 162.0 L 107.0 162.0 L 108.0 162.0 L 109.0 162.0 L 110.0 162.0 L 110.0 162.0 L 111.0 162.0 L 111.0 162.0 L 112.0 162.0 L 112.0 162.0 L 112.0 163.0 L 113.0 163.0 L 113.0 164.0 L 113.0 165.0 L 113.0 166.0 L 113.0 167.0 L 114.0 168.0 L 114.0 170.0 L 114.0 171.0 L 114.0 173.0 L 114.0 175.0 L 114.0 177.0 L 114.0 180.0 L 114.0 183.0 L 114.0 186.0 L 115.0 189.0 L 115.0 192.0 L 115.0 195.0 L 115.0 197.0 L 115.0 200.0 L 115.0 203.0 L 116.0 205.0 L 116.0 208.0 L 116.0 210.0 L 116.0 212.0 L 116.0 214.0 L 116.0 217.0 L 116.0 219.0 L 116.0 222.0 L 116.0 224.0 L 116.0 227.0 L 115.0 231.0 L 115.0 233.0 L 115.0 236.0 L 115.0 239.0 L 115.0 241.0 L 114.0 244.0 L 114.0 246.0 L 114.0 247.0 L 114.0 248.0 L 113.0 249.0 L 113.0 250.0 L 113.0 251.0 L 113.0 251.0 L 112.0 252.0 L 112.0 252.0 L 111.0 253.0 L 111.0 253.0 L 110.0 253.0 L 110.0 253.0 L 109.0 253.0 L 108.0 253.0 L 108.0 252.0 L 107.0 251.0 L 105.0 249.0 L 104.0 246.0 L 102.0 242.0 " stroke="black" fill="none" stroke-width="5.0" stroke-linecap="round" stroke-linejoin="round" />
<path d="M 85.0 192.0 L 85.0 192.0 L 85.0 191.0 L 84.0 191.0 L 84.0 191.0 L 84.0 191.0 L 84.0 191.0 L 84.0 191.0 L 85.0 191.0 L 87.0 191.0 L 88.0 191.0 L 91.0 192.0 L 93.0 193.0 L 95.0 194.0 L 98.0 196.0 L 100.0 197.0 L 101.0 197.0 " stroke="black" fill="none" stroke-width="5.0" stroke-linecap="round" stroke-linejoin="round" />
<path d="M 84.0 216.0 L 84.0 216.0 L 82.0 216.0 L 80.0 216.0 L 79.0 216.0 L 79.0 216.0 L 79.0 216.0 L 79.0 216.0 L 80.0 216.0 L 82.0 216.0 L 85.0 216.0 L 88.0 215.0 L 93.0 214.0 L 97.0 212.0 L 102.0 209.0 L 105.0 207.0 " stroke="black" fill="none" stroke-width="5.0" stroke-linecap="round" stroke-linejoin="round" />
<path d="M 151.0 92.0 L 151.0 92.0 L 151.0 92.0 L 151.0 92.0 L 151.0 92.0 L 151.0 92.0 L 151.0 92.0 L 151.0 94.0 L 151.0 97.0 L 152.0 102.0 L 152.0 108.0 L 152.0 114.0 L 152.0 120.0 L 152.0 126.0 L 152.0 130.0 L 152.0 134.0 L 152.0 136.0 L 153.0 137.0 " stroke="black" fill="none" stroke-width="5.0" stroke-linecap="round" stroke-linejoin="round" />
<path d="M 153.0 96.0 L 153.0 96.0 L 153.0 96.0 L 152.0 96.0 L 152.0 96.0 L 151.0 96.0 L 151.0 95.0 L 151.0 95.0 L 150.0 95.0 L 150.0 95.0 L 150.0 95.0 L 150.0 95.0 L 150.0 95.0 L 150.0 95.0 L 150.0 94.0 L 150.0 94.0 L 150.0 94.0 L 150.0 94.0 L 151.0 94.0 L 151.0 94.0 L 152.0 94.0 L 152.0 94.0 L 153.0 94.0 L 153.0 94.0 L 154.0 94.0 L 155.0 94.0 L 155.0 94.0 L 156.0 94.0 L 157.0 94.0 L 157.0 94.0 L 158.0 94.0 L 159.0 94.0 L 160.0 94.0 L 161.0 94.0 L 161.0 94.0 L 162.0 94.0 L 163.0 94.0 L 164.0 94.0 L 165.0 94.0 L 166.0 94.0 L 166.0 94.0 L 167.0 94.0 L 168.0 94.0 L 169.0 93.0 L 170.0 93.0 L 171.0 93.0 L 171.0 93.0 L 172.0 93.0 L 173.0 93.0 L 174.0 93.0 L 175.0 93.0 L 176.0 93.0 L 176.0 93.0 L 177.0 93.0 L 178.0 93.0 L 179.0 93.0 L 180.0 93.0 L 181.0 93.0 L 182.0 93.0 L 182.0 93.0 L 183.0 93.0 L 184.0 93.0 L 185.0 93.0 L 186.0 93.0 L 186.0 93.0 L 187.0 93.0 L 188.0 93.0 L 189.0 93.0 L 190.0 93.0 L 191.0 93.0 L 192.0 93.0 L 193.0 93.0 L 194.0 93.0 L 194.0 93.0 L 195.0 93.0 L 196.0 93.0 L 197.0 93.0 L 198.0 93.0 L 199.0 93.0 L 200.0 93.0 L 201.0 93.0 L 203.0 93.0 L 204.0 93.0 L 205.0 93.0 L 206.0 93.0 L 207.0 92.0 L 208.0 92.0 L 209.0 92.0 L 210.0 92.0 L 211.0 92.0 L 212.0 92.0 L 213.0 92.0 L 214.0 92.0 L 215.0 92.0 L 216.0 92.0 L 218.0 92.0 L 219.0 92.0 L 220.0 92.0 L 221.0 92.0 L 222.0 92.0 L 224.0 92.0 L 225.0 93.0 L 226.0 93.0 L 227.0 93.0 L 228.0 93.0 L 229.0 93.0 L 230.0 93.0 L 230.0 93.0 L 231.0 93.0 L 231.0 93.0 L 232.0 93.0 L 232.0 93.0 L 232.0 93.0 L 232.0 94.0 L 232.0 94.0 L 232.0 94.0 L 232.0 95.0 L 232.0 96.0 L 232.0 97.0 L 232.0 98.0 L 232.0 99.0 L 232.0 101.0 L 232.0 103.0 L 232.0 105.0 L 232.0 108.0 L 232.0 111.0 L 232.0 114.0 L 232.0 117.0 L 232.0 119.0 L 232.0 122.0 L 231.0 123.0 L 231.0 124.0 L 231.0 125.0 L 231.0 125.0 " stroke="black" fill="none" stroke-width="5.0" stroke-linecap="round" stroke-linejoin="round" />
<path d="M 158.0 115.0 L 158.0 115.0 L 157.0 115.0 L 157.0 115.0 L 156.0 115.0 L 156.0 115.0 L 155.0 115.0 L 155.0 115.0 L 155.0 115.0 L 155.0 115.0 L 155.0 115.0 L 155.0 115.0 L 155.0 115.0 L 156.0 115.0 L 158.0 115.0 L 159.0 115.0 L 162.0 115.0 L 165.0 115.0 L 169.0 115.0 L 174.0 115.0 L 180.0 114.0 L 187.0 114.0 L 192.0 113.0 L 198.0 112.0 L 203.0 112.0 L 207.0 111.0 L 212.0 110.0 L 216.0 109.0 L 220.0 109.0 L 224.0 109.0 L 226.0 108.0 L 228.0 108.0 L 229.0 108.0 L 230.0 108.0 L 230.0 108.0 L 230.0 109.0 " stroke="black" fill="none" stroke-width="5.0" stroke-linecap="round" stroke-linejoin="round" />
<path d="M 178.0 78.0 L 178.0 78.0 L 178.0 79.0 L 178.0 79.0 L 178.0 80.0 L 178.0 81.0 L 178.0 82.0 L 178.0 84.0 L 178.0 88.0 L 178.0 94.0 L 178.0 101.0 L 178.0 109.0 L 178.0 117.0 L 178.0 123.0 L 179.0 127.0 L 180.0 131.0 L 181.0 132.0 " stroke="black" fill="none" stroke-width="5.0" stroke-linecap="round" stroke-linejoin="round" />
<path d="M 200.0 78.0 L 200.0 78.0 L 200.0 78.0 L 199.0 79.0 L 199.0 79.0 L 199.0 80.0 L 198.0 81.0 L 198.0 83.0 L 198.0 85.0 L 198.0 89.0 L 198.0 94.0 L 198.0 100.0 L 199.0 107.0 L 199.0 114.0 L 199.0 120.0 L 199.0 125.0 L 199.0 129.0 L 199.0 132.0 L 199.0 134.0 L 198.0 135.0 " stroke="black" fill="none" stroke-width="5.0" stroke-linecap="round" stroke-linejoin="round" />
<path d="M 157.0 139.0 L 157.0 139.0 L 155.0 139.0 L 154.0 140.0 L 153.0 140.0 L 153.0 140.0 L 152.0 140.0 L 152.0 140.0 L 152.0 140.0 L 152.0 140.0 L 153.0 139.0 L 154.0 139.0 L 157.0 139.0 L 159.0 139.0 L 162.0 138.0 L 167.0 138.0 L 172.0 138.0 L 178.0 138.0 L 185.0 137.0 L 192.0 137.0 L 198.0 136.0 L 205.0 135.0 L 211.0 134.0 L 217.0 133.0 L 222.0 133.0 L 225.0 132.0 L 227.0 132.0 L 229.0 132.0 L 229.0 133.0 L 229.0 135.0 L 229.0 135.0 " stroke="black" fill="none" stroke-width="5.0" stroke-linecap="round" stroke-linejoin="round" />
<path d="M 144.0 163.0 L 144.0 163.0 L 144.0 163.0 L 144.0 163.0 L 143.0 163.0 L 143.0 163.0 L 143.0 163.0 L 143.0 163.0 L 143.0 163.0 L 143.0 163.0 L 143.0 163.0 L 143.0 163.0 L 143.0 163.0 L 143.0 163.0 L 143.0 163.0 L 143.0 163.0 L 143.0 163.0 L 143.0 163.0 L 144.0 163.0 L 145.0 163.0 L 146.0 163.0 L 147.0 163.0 L 148.0 163.0 L 150.0 163.0 L 151.0 163.0 L 153.0 163.0 L 154.0 163.0 L 155.0 163.0 L 157.0 163.0 L 158.0 163.0 L 160.0 163.0 L 162.0 163.0 L 164.0 163.0 L 165.0 163.0 L 168.0 163.0 L 170.0 163.0 L 173.0 163.0 L 176.0 163.0 L 178.0 163.0 L 181.0 163.0 L 184.0 163.0 L 186.0 162.0 L 189.0 162.0 L 191.0 161.0 L 192.0 161.0 L 194.0 161.0 L 195.0 160.0 L 196.0 160.0 L 197.0 160.0 L 198.0 160.0 L 199.0 160.0 L 200.0 160.0 L 202.0 160.0 L 203.0 160.0 L 204.0 160.0 L 206.0 160.0 L 207.0 160.0 L 209.0 160.0 L 211.0 160.0 L 213.0 160.0 L 216.0 160.0 L 219.0 160.0 L 221.0 160.0 L 224.0 160.0 L 226.0 160.0 L 229.0 160.0 L 231.0 160.0 L 233.0 160.0 L 235.0 160.0 L 236.0 160.0 L 237.0 160.0 L 238.0 160.0 L 239.0 160.0 " stroke="black" fill="none" stroke-width="5.0" stroke-linecap="round" stroke-linejoin="round" />
<path d="M 152.0 188.0 L 152.0 188.0 L 152.0 189.0 L 152.0 190.0 L 152.0 191.0 L 152.0 193.0 L 152.0 195.0 L 152.0 197.0 L 153.0 200.0 L 153.0 203.0 L 153.0 206.0 L 153.0 209.0 L 153.0 211.0 L 153.0 212.0 L 153.0 214.0 L 153.0 214.0 " stroke="black" fill="none" stroke-width="5.0" stroke-linecap="round" stroke-linejoin="round" />
<path d="M 153.0 188.0 L 152.0 188.0 L 152.0 188.0 L 151.0 188.0 L 150.0 188.0 L 150.0 188.0 L 150.0 188.0 L 149.0 188.0 L 149.0 188.0 L 149.0 188.0 L 149.0 188.0 L 149.0 188.0 L 149.0 188.0 L 149.0 188.0 L 149.0 188.0 L 149.0 188.0 L 149.0 188.0 L 150.0 188.0 L 151.0 188.0 L 151.0 188.0 L 152.0 188.0 L 153.0 188.0 L 154.0 189.0 L 155.0 189.0 L 157.0 189.0 L 158.0 189.0 L 160.0 189.0 L 161.0 189.0 L 163.0 189.0 L 166.0 189.0 L 168.0 189.0 L 170.0 189.0 L 173.0 189.0 L 176.0 189.0 L 178.0 189.0 L 181.0 189.0 L 183.0 189.0 L 185.0 189.0 L 188.0 189.0 L 190.0 188.0 L 191.0 188.0 L 193.0 188.0 L 194.0 188.0 L 196.0 188.0 L 197.0 188.0 L 198.0 188.0 L 200.0 188.0 L 201.0 188.0 L 202.0 188.0 L 203.0 188.0 L 205.0 188.0 L 207.0 188.0 L 208.0 188.0 L 210.0 189.0 L 212.0 189.0 L 214.0 189.0 L 216.0 189.0 L 218.0 190.0 L 220.0 190.0 L 222.0 190.0 L 224.0 190.0 L 225.0 190.0 L 227.0 190.0 L 227.0 191.0 L 228.0 191.0 L 229.0 191.0 L 229.0 192.0 L 229.0 193.0 L 229.0 194.0 L 229.0 195.0 L 229.0 197.0 L 229.0 198.0 L 228.0 200.0 L 228.0 202.0 L 227.0 204.0 L 227.0 206.0 L 226.0 207.0 L 225.0 208.0 L 224.0 210.0 " stroke="black" fill="none" stroke-width="5.0" stroke-linecap="round" stroke-linejoin="round" />
<path d="M 156.0 212.0 L 155.0 212.0 L 154.0 212.0 L 153.0 212.0 L 152.0 212.0 L 151.0 212.0 L 151.0 212.0 L 151.0 212.0 L 151.0 212.0 L 152.0 212.0 L 153.0 212.0 L 155.0 212.0 L 157.0 212.0 L 161.0 212.0 L 165.0 212.0 L 170.0 212.0 L 177.0 212.0 L 183.0 212.0 L 190.0 212.0 L 196.0 212.0 L 202.0 212.0 L 207.0 211.0 L 213.0 211.0 L 217.0 210.0 L 220.0 209.0 " stroke="black" fill="none" stroke-width="5.0" stroke-linecap="round" stroke-linejoin="round" />
<path d="M 155.0 221.0 L 155.0 221.0 L 155.0 221.0 L 154.0 222.0 L 153.0 222.0 L 153.0 222.0 L 153.0 222.0 L 153.0 223.0 L 154.0 224.0 L 155.0 225.0 L 157.0 226.0 L 159.0 228.0 L 162.0 230.0 L 164.0 232.0 L 166.0 235.0 L 168.0 237.0 L 171.0 239.0 L 173.0 241.0 L 176.0 243.0 L 178.0 244.0 L 179.0 245.0 " stroke="black" fill="none" stroke-width="5.0" stroke-linecap="round" stroke-linejoin="round" />
<path d="M 215.0 219.0 L 215.0 219.0 L 215.0 219.0 L 215.0 219.0 L 215.0 219.0 L 215.0 219.0 L 214.0 219.0 L 214.0 219.0 L 214.0 219.0 L 214.0 219.0 L 214.0 220.0 L 213.0 221.0 L 212.0 223.0 L 211.0 225.0 L 209.0 228.0 L 206.0 232.0 L 203.0 235.0 L 200.0 239.0 L 197.0 242.0 L 194.0 244.0 L 192.0 246.0 " stroke="black" fill="none" stroke-width="5.0" stroke-linecap="round" stroke-linejoin="round" />
<path d="M 147.0 250.0 L 147.0 250.0 L 145.0 250.0 L 144.0 250.0 L 143.0 250.0 L 143.0 250.0 L 142.0 250.0 L 141.0 251.0 L 141.0 251.0 L 141.0 251.0 L 141.0 251.0 L 141.0 251.0 L 141.0 251.0 L 143.0 251.0 L 144.0 251.0 L 146.0 251.0 L 149.0 251.0 L 153.0 251.0 L 158.0 251.0 L 165.0 251.0 L 173.0 251.0 L 182.0 251.0 L 190.0 250.0 L 197.0 250.0 L 203.0 250.0 L 208.0 250.0 L 213.0 249.0 L 218.0 249.0 L 222.0 249.0 L 226.0 248.0 L 229.0 248.0 L 231.0 248.0 L 233.0 248.0 L 234.0 248.0 L 234.0 248.0 L 235.0 248.0 L 235.0 248.0 L 235.0 249.0 " stroke="black" fill="none" stroke-width="5.0" stroke-linecap="round" stroke-linejoin="round" />
</svg>