<svg xmlns="http://www.w3.org/2000/svg" width="300" height="300" viewBox="0 0 300 300">
<path d="M 140.0 70.0 L 140.0 70.0 L 138.0 70.0 L 137.0 69.0 L 136.0 69.0 L 136.0 69.0 L 136.0 69.0 L 136.0 71.0 L 137.0 73.0 L 139.0 75.0 L 141.0 77.0 L 143.0 80.0 L 145.0 83.0 L 148.0 85.0 L 150.0 87.0 L 152.0 90.0 L 153.0 92.0 " stroke="black" fill="none" stroke-width="5.0" stroke-linecap="round" stroke-linejoin="round" />
<path d="M 71.0 89.0 L 71.0 89.0 L 71.0 89.0 L 71.0 89.0 L 70.0 89.0 L 70.0 89.0 L 70.0 89.0 L 70.0 90.0 L 70.0 92.0 L 70.0 96.0 L 70.0 102.0 L 70.0 107.0 L 69.0 113.0 L 69.0 115.0 " stroke="black" fill="none" stroke-width="5.0" stroke-linecap="round" stroke-linejoin="round" />
<path d="M 74.0 92.0 L 74.0 92.0 L 73.0 92.0 L 73.0 92.0 L 73.0 92.0 L 72.0 91.0 L 72.0 91.0 L 72.0 91.0 L 72.0 91.0 L 72.0 90.0 L 72.0 90.0 L 72.0 90.0 L 72.0 90.0 L 72.0 90.0 L 72.0 90.0 L 72.0 90.0 L 72.0 90.0 L 73.0 90.0 L 73.0 90.0 L 74.0 90.0 L 75.0 90.0 L 76.0 90.0 L 77.0 91.0 L 78.0 91.0 L 79.0 91.0 L 80.0 91.0 L 81.0 91.0 L 82.0 91.0 L 83.0 91.0 L 85.0 91.0 L 87.0 91.0 L 89.0 91.0 L 91.0 91.0 L 93.0 91.0 L 95.0 91.0 L 97.0 91.0 L 98.0 91.0 L 100.0 91.0 L 101.0 91.0 L 102.0 91.0 L 103.0 91.0 L 105.0 91.0 L 106.0 91.0 L 107.0 91.0 L 108.0 91.0 L 108.0 91.0 L 109.0 90.0 L 111.0 90.0 L 112.0 90.0 L 113.0 90.0 L 114.0 90.0 L 115.0 90.0 L 116.0 90.0 L 117.0 89.0 L 118.0 89.0 L 119.0 89.0 L 121.0 89.0 L 122.0 89.0 L 123.0 89.0 L 125.0 89.0 L 126.0 89.0 L 128.0 89.0 L 130.0 89.0 L 131.0 89.0 L 133.0 89.0 L 135.0 89.0 L 136.0 89.0 L 138.0 89.0 L 140.0 89.0 L 141.0 89.0 L 143.0 89.0 L 145.0 89.0 L 146.0 89.0 L 147.0 89.0 L 149.0 89.0 L 150.0 89.0 L 151.0 89.0 L 152.0 89.0 L 153.0 89.0 L 154.0 89.0 L 156.0 89.0 L 157.0 89.0 L 158.0 89.0 L 160.0 89.0 L 161.0 89.0 L 162.0 89.0 L 164.0 89.0 L 165.0 89.0 L 166.0 89.0 L 168.0 89.0 L 169.0 89.0 L 170.0 89.0 L 172.0 89.0 L 174.0 89.0 L 175.0 89.0 L 177.0 89.0 L 178.0 89.0 L 180.0 89.0 L 181.0 89.0 L 182.0 89.0 L 184.0 89.0 L 185.0 89.0 L 186.0 89.0 L 187.0 89.0 L 188.0 89.0 L 189.0 89.0 L 190.0 89.0 L 191.0 89.0 L 192.0 89.0 L 193.0 89.0 L 194.0 89.0 L 195.0 89.0 L 196.0 89.0 L 197.0 89.0 L 198.0 89.0 L 199.0 89.0 L 200.0 89.0 L 202.0 89.0 L 203.0 89.0 L 204.0 89.0 L 205.0 89.0 L 206.0 89.0 L 207.0 89.0 L 208.0 89.0 L 209.0 89.0 L 210.0 89.0 L 211.0 89.0 L 212.0 89.0 L 213.0 90.0 L 214.0 90.0 L 214.0 90.0 L 215.0 90.0 L 216.0 91.0 L 216.0 91.0 L 217.0 91.0 L 217.0 91.0 L 218.0 91.0 L 218.0 91.0 L 219.0 91.0 L 219.0 91.0 L 220.0 92.0 L 220.0 92.0 L 220.0 92.0 L 221.0 92.0 L 221.0 92.0 L 221.0 92.0 L 222.0 92.0 L 222.0 92.0 L 222.0 92.0 L 223.0 92.0 L 223.0 92.0 L 223.0 92.0 L 223.0 92.0 L 223.0 92.0 L 223.0 92.0 L 224.0 92.0 L 224.0 92.0 L 224.0 92.0 L 224.0 92.0 L 224.0 92.0 L 225.0 92.0 L 225.0 92.0 L 225.0 92.0 L 225.0 93.0 L 225.0 93.0 L 226.0 93.0 L 226.0 93.0 L 226.0 93.0 L 226.0 93.0 L 227.0 93.0 L 227.0 93.0 L 227.0 93.0 L 228.0 93.0 L 228.0 93.0 L 228.0 93.0 L 229.0 93.0 L 229.0 93.0 L 229.0 93.0 L 230.0 93.0 L 230.0 94.0 L 230.0 94.0 L 231.0 94.0 L 231.0 94.0 L 231.0 94.0 L 232.0 94.0 L 232.0 94.0 L 232.0 94.0 L 232.0 94.0 L 232.0 94.0 L 232.0 94.0 L 233.0 94.0 L 233.0 94.0 L 233.0 94.0 L 233.0 94.0 L 233.0 94.0 L 233.0 94.0 L 233.0 94.0 L 233.0 94.0 L 233.0 94.0 L 233.0 95.0 L 233.0 95.0 L 233.0 95.0 L 233.0 96.0 L 233.0 97.0 L 233.0 98.0 L 232.0 99.0 L 232.0 101.0 L 232.0 103.0 L 231.0 105.0 L 231.0 107.0 L 230.0 109.0 L 230.0 111.0 L 230.0 112.0 L 230.0 113.0 L 229.0 114.0 L 229.0 115.0 " stroke="black" fill="none" stroke-width="5.0" stroke-linecap="round" stroke-linejoin="round" />
<path d="M 101.0 111.0 L 101.0 111.0 L 101.0 112.0 L 101.0 113.0 L 101.0 114.0 L 101.0 115.0 L 101.0 115.0 L 101.0 117.0 L 101.0 118.0 L 102.0 119.0 L 102.0 121.0 L 102.0 122.0 L 102.0 124.0 L 102.0 125.0 L 102.0 127.0 L 101.0 129.0 L 101.0 131.0 L 100.0 133.0 L 99.0 135.0 L 98.0 137.0 L 98.0 139.0 L 97.0 141.0 L 96.0 142.0 L 96.0 144.0 L 95.0 145.0 L 94.0 147.0 L 94.0 148.0 L 94.0 149.0 L 93.0 149.0 L 93.0 150.0 L 93.0 150.0 L 93.0 151.0 L 93.0 151.0 L 93.0 151.0 L 93.0 151.0 L 93.0 151.0 L 93.0 151.0 L 93.0 151.0 L 93.0 151.0 L 94.0 151.0 L 94.0 151.0 L 94.0 151.0 L 94.0 151.0 L 95.0 151.0 L 95.0 151.0 L 95.0 151.0 L 95.0 151.0 L 96.0 151.0 L 96.0 151.0 L 96.0 151.0 L 97.0 151.0 L 97.0 151.0 L 98.0 151.0 L 98.0 151.0 L 99.0 151.0 L 99.0 151.0 L 100.0 151.0 L 100.0 151.0 L 101.0 151.0 L 102.0 151.0 L 102.0 151.0 L 103.0 151.0 L 104.0 151.0 L 105.0 151.0 L 105.0 151.0 L 106.0 151.0 L 107.0 151.0 L 108.0 151.0 L 108.0 151.0 L 109.0 151.0 L 110.0 151.0 L 111.0 151.0 L 112.0 151.0 L 113.0 151.0 L 114.0 151.0 L 115.0 151.0 L 116.0 151.0 L 117.0 151.0 L 118.0 151.0 L 120.0 151.0 L 121.0 151.0 L 123.0 151.0 L 124.0 150.0 L 126.0 150.0 L 127.0 150.0 L 128.0 150.0 L 130.0 150.0 L 131.0 150.0 L 133.0 150.0 L 134.0 150.0 L 135.0 150.0 L 137.0 150.0 L 138.0 149.0 L 139.0 149.0 L 141.0 149.0 L 142.0 149.0 L 143.0 149.0 L 144.0 149.0 L 145.0 149.0 L 146.0 149.0 L 147.0 149.0 L 148.0 149.0 L 149.0 149.0 L 149.0 149.0 L 150.0 149.0 L 151.0 149.0 L 151.0 149.0 L 152.0 149.0 L 152.0 149.0 L 153.0 149.0 L 153.0 149.0 L 154.0 149.0 L 154.0 149.0 L 155.0 149.0 L 156.0 149.0 L 156.0 149.0 L 157.0 149.0 L 158.0 149.0 L 159.0 149.0 L 160.0 149.0 L 161.0 148.0 L 162.0 148.0 L 163.0 148.0 L 164.0 148.0 L 166.0 148.0 L 167.0 148.0 L 168.0 148.0 L 170.0 148.0 L 171.0 148.0 L 173.0 148.0 L 175.0 148.0 L 176.0 148.0 L 178.0 148.0 L 179.0 148.0 L 181.0 148.0 L 182.0 148.0 L 184.0 148.0 L 185.0 148.0 L 187.0 148.0 L 188.0 148.0 L 189.0 148.0 L 190.0 148.0 L 192.0 148.0 L 193.0 148.0 L 194.0 148.0 L 195.0 148.0 L 195.0 148.0 L 196.0 148.0 L 197.0 149.0 L 198.0 149.0 L 198.0 149.0 " stroke="black" fill="none" stroke-width="5.0" stroke-linecap="round" stroke-linejoin="round" />
<path d="M 106.0 111.0 L 106.0 111.0 L 106.0 111.0 L 106.0 111.0 L 106.0 111.0 L 106.0 111.0 L 106.0 111.0 L 106.0 111.0 L 106.0 111.0 L 106.0 111.0 L 106.0 111.0 L 106.0 111.0 L 106.0 111.0 L 106.0 111.0 L 107.0 111.0 L 107.0 111.0 L 108.0 111.0 L 109.0 111.0 L 110.0 111.0 L 111.0 111.0 L 113.0 111.0 L 114.0 111.0 L 116.0 111.0 L 118.0 111.0 L 119.0 111.0 L 121.0 111.0 L 123.0 111.0 L 125.0 111.0 L 127.0 111.0 L 130.0 111.0 L 132.0 111.0 L 133.0 111.0 L 135.0 111.0 L 137.0 111.0 L 139.0 111.0 L 140.0 111.0 L 142.0 111.0 L 143.0 111.0 L 145.0 111.0 L 146.0 111.0 L 148.0 111.0 L 149.0 111.0 L 150.0 111.0 L 151.0 111.0 L 152.0 111.0 L 153.0 111.0 L 154.0 111.0 L 155.0 111.0 L 157.0 111.0 L 158.0 111.0 L 159.0 111.0 L 160.0 111.0 L 162.0 111.0 L 163.0 111.0 L 164.0 111.0 L 166.0 111.0 L 167.0 111.0 L 168.0 111.0 L 170.0 111.0 L 171.0 111.0 L 173.0 111.0 L 174.0 111.0 L 175.0 111.0 L 177.0 111.0 L 178.0 111.0 L 180.0 111.0 L 181.0 111.0 L 182.0 111.0 L 183.0 111.0 L 185.0 111.0 L 186.0 111.0 L 187.0 111.0 L 188.0 111.0 L 189.0 111.0 L 190.0 111.0 L 191.0 111.0 L 191.0 111.0 L 192.0 111.0 L 193.0 111.0 L 194.0 111.0 L 194.0 111.0 L 195.0 111.0 L 196.0 111.0 L 196.0 111.0 L 197.0 112.0 L 198.0 112.0 L 198.0 112.0 L 199.0 113.0 L 200.0 113.0 L 200.0 113.0 L 201.0 114.0 L 201.0 114.0 L 202.0 114.0 L 202.0 115.0 L 202.0 115.0 L 203.0 115.0 L 203.0 116.0 L 203.0 116.0 L 203.0 116.0 L 204.0 116.0 L 204.0 116.0 L 204.0 116.0 L 204.0 117.0 L 204.0 117.0 L 204.0 117.0 L 204.0 117.0 L 204.0 118.0 L 204.0 118.0 L 204.0 119.0 L 204.0 119.0 L 204.0 120.0 L 203.0 121.0 L 203.0 122.0 L 203.0 123.0 L 202.0 125.0 L 201.0 127.0 L 201.0 129.0 L 200.0 131.0 L 199.0 133.0 L 199.0 135.0 L 198.0 137.0 L 198.0 139.0 L 197.0 141.0 L 197.0 143.0 L 197.0 143.0 " stroke="black" fill="none" stroke-width="5.0" stroke-linecap="round" stroke-linejoin="round" />
<path d="M 64.0 130.0 L 64.0 130.0 L 64.0 130.0 L 64.0 130.0 L 64.0 130.0 L 64.0 130.0 L 64.0 130.0 L 64.0 130.0 L 64.0 130.0 L 64.0 130.0 L 64.0 130.0 L 64.0 130.0 L 64.0 130.0 L 64.0 130.0 L 64.0 130.0 L 64.0 130.0 L 65.0 130.0 L 65.0 130.0 L 66.0 130.0 L 66.0 130.0 L 67.0 130.0 L 68.0 130.0 L 69.0 131.0 L 70.0 131.0 L 71.0 131.0 L 72.0 131.0 L 73.0 132.0 L 74.0 132.0 L 76.0 132.0 L 77.0 132.0 L 78.0 132.0 L 79.0 132.0 L 80.0 132.0 L 82.0 132.0 L 83.0 132.0 L 84.0 132.0 L 85.0 132.0 L 86.0 132.0 L 87.0 132.0 L 88.0 132.0 L 89.0 132.0 L 90.0 132.0 L 91.0 132.0 L 92.0 132.0 L 92.0 132.0 L 93.0 132.0 L 94.0 132.0 L 95.0 132.0 L 96.0 132.0 L 96.0 132.0 L 97.0 132.0 L 98.0 132.0 L 98.0 132.0 L 99.0 132.0 L 100.0 132.0 L 100.0 132.0 L 101.0 132.0 L 102.0 132.0 L 103.0 132.0 L 103.0 132.0 L 104.0 132.0 L 105.0 132.0 L 105.0 132.0 L 106.0 132.0 L 107.0 132.0 L 108.0 132.0 L 108.0 132.0 L 109.0 132.0 L 110.0 132.0 L 111.0 132.0 L 111.0 132.0 L 112.0 132.0 L 113.0 132.0 L 114.0 132.0 L 114.0 132.0 L 115.0 132.0 L 116.0 132.0 L 117.0 132.0 L 118.0 132.0 L 119.0 132.0 L 120.0 132.0 L 121.0 132.0 L 123.0 132.0 L 124.0 132.0 L 125.0 132.0 L 127.0 132.0 L 128.0 132.0 L 130.0 132.0 L 132.0 132.0 L 133.0 132.0 L 134.0 132.0 L 136.0 132.0 L 137.0 132.0 L 139.0 132.0 L 140.0 132.0 L 141.0 132.0 L 142.0 132.0 L 143.0 132.0 L 144.0 132.0 L 146.0 132.0 L 147.0 132.0 L 148.0 132.0 L 148.0 132.0 L 149.0 132.0 L 150.0 132.0 L 150.0 132.0 L 151.0 132.0 L 152.0 132.0 L 152.0 132.0 L 153.0 132.0 L 154.0 132.0 L 154.0 132.0 L 155.0 132.0 L 156.0 132.0 L 156.0 132.0 L 157.0 132.0 L 158.0 132.0 L 159.0 132.0 L 160.0 132.0 L 160.0 132.0 L 161.0 132.0 L 162.0 132.0 L 163.0 132.0 L 164.0 132.0 L 165.0 132.0 L 166.0 132.0 L 167.0 132.0 L 169.0 132.0 L 170.0 132.0 L 171.0 132.0 L 173.0 132.0 L 174.0 132.0 L 176.0 132.0 L 178.0 132.0 L 179.0 132.0 L 181.0 132.0 L 183.0 132.0 L 184.0 132.0 L 186.0 132.0 L 187.0 132.0 L 189.0 132.0 L 190.0 132.0 L 191.0 132.0 L 193.0 132.0 L 194.0 132.0 L 195.0 132.0 L 196.0 131.0 L 197.0 131.0 L 198.0 131.0 L 199.0 131.0 L 200.0 131.0 L 201.0 131.0 L 202.0 131.0 L 202.0 131.0 L 204.0 131.0 L 204.0 131.0 L 205.0 131.0 L 207.0 131.0 L 208.0 131.0 L 209.0 131.0 L 210.0 131.0 L 211.0 131.0 L 212.0 131.0 L 213.0 131.0 L 214.0 131.0 L 214.0 131.0 L 216.0 131.0 L 217.0 132.0 L 218.0 132.0 L 219.0 132.0 L 220.0 132.0 L 221.0 132.0 L 222.0 132.0 L 223.0 133.0 L 224.0 133.0 L 225.0 133.0 L 225.0 133.0 L 226.0 133.0 L 227.0 133.0 L 228.0 133.0 L 229.0 133.0 L 229.0 133.0 L 230.0 133.0 L 231.0 133.0 L 232.0 133.0 L 233.0 133.0 L 234.0 133.0 L 235.0 133.0 L 235.0 133.0 L 236.0 133.0 L 237.0 133.0 L 238.0 133.0 L 239.0 133.0 L 239.0 133.0 L 240.0 133.0 L 240.0 133.0 L 240.0 133.0 " stroke="black" fill="none" stroke-width="5.0" stroke-linecap="round" stroke-linejoin="round" />
<path d="M 154.0 118.0 L 154.0 118.0 L 154.0 119.0 L 154.0 119.0 L 154.0 120.0 L 154.0 121.0 L 154.0 122.0 L 153.0 124.0 L 153.0 127.0 L 152.0 130.0 L 151.0 134.0 L 150.0 138.0 L 149.0 142.0 L 148.0 147.0 L 148.0 149.0 " stroke="black" fill="none" stroke-width="5.0" stroke-linecap="round" stroke-linejoin="round" />
<path d="M 95.0 168.0 L 95.0 168.0 L 95.0 168.0 L 95.0 168.0 L 95.0 168.0 L 95.0 168.0 L 96.0 169.0 L 96.0 169.0 L 96.0 169.0 L 96.0 170.0 L 96.0 172.0 L 96.0 174.0 L 96.0 178.0 L 96.0 182.0 L 96.0 188.0 L 96.0 194.0 L 95.0 199.0 L 95.0 205.0 L 95.0 209.0 L 94.0 213.0 L 94.0 215.0 L 94.0 216.0 L 94.0 217.0 L 94.0 216.0 " stroke="black" fill="none" stroke-width="5.0" stroke-linecap="round" stroke-linejoin="round" />
<path d="M 98.0 166.0 L 98.0 166.0 L 97.0 166.0 L 96.0 166.0 L 96.0 167.0 L 96.0 167.0 L 95.0 167.0 L 95.0 167.0 L 95.0 167.0 L 95.0 167.0 L 95.0 167.0 L 95.0 167.0 L 96.0 167.0 L 96.0 167.0 L 97.0 167.0 L 98.0 167.0 L 99.0 167.0 L 99.0 167.0 L 100.0 167.0 L 101.0 167.0 L 102.0 167.0 L 103.0 167.0 L 104.0 167.0 L 104.0 167.0 L 105.0 167.0 L 106.0 167.0 L 107.0 167.0 L 108.0 167.0 L 109.0 167.0 L 110.0 167.0 L 110.0 167.0 L 112.0 166.0 L 112.0 166.0 L 114.0 166.0 L 115.0 166.0 L 116.0 166.0 L 117.0 166.0 L 118.0 166.0 L 119.0 166.0 L 120.0 166.0 L 122.0 166.0 L 123.0 166.0 L 124.0 165.0 L 126.0 165.0 L 127.0 165.0 L 129.0 165.0 L 130.0 165.0 L 131.0 165.0 L 133.0 165.0 L 134.0 165.0 L 135.0 165.0 L 136.0 165.0 L 137.0 165.0 L 138.0 165.0 L 139.0 165.0 L 140.0 165.0 L 141.0 165.0 L 142.0 165.0 L 143.0 165.0 L 144.0 165.0 L 145.0 165.0 L 146.0 165.0 L 147.0 165.0 L 148.0 165.0 L 149.0 165.0 L 150.0 165.0 L 150.0 165.0 L 151.0 165.0 L 152.0 165.0 L 153.0 165.0 L 154.0 165.0 L 154.0 165.0 L 155.0 165.0 L 156.0 165.0 L 157.0 165.0 L 158.0 165.0 L 158.0 165.0 L 159.0 165.0 L 160.0 165.0 L 161.0 165.0 L 162.0 165.0 L 163.0 165.0 L 164.0 165.0 L 165.0 165.0 L 166.0 165.0 L 167.0 165.0 L 168.0 165.0 L 169.0 165.0 L 170.0 165.0 L 171.0 165.0 L 172.0 165.0 L 173.0 165.0 L 175.0 165.0 L 176.0 165.0 L 177.0 165.0 L 178.0 165.0 L 180.0 165.0 L 181.0 165.0 L 182.0 165.0 L 183.0 165.0 L 185.0 165.0 L 186.0 165.0 L 187.0 165.0 L 188.0 165.0 L 189.0 165.0 L 190.0 165.0 L 191.0 165.0 L 191.0 165.0 L 192.0 165.0 L 193.0 165.0 L 194.0 165.0 L 194.0 165.0 L 195.0 165.0 L 196.0 165.0 L 196.0 165.0 L 197.0 165.0 L 198.0 165.0 L 199.0 165.0 L 199.0 165.0 L 200.0 165.0 L 201.0 165.0 L 202.0 165.0 L 202.0 165.0 L 203.0 165.0 L 203.0 165.0 L 204.0 165.0 L 204.0 165.0 L 205.0 165.0 L 205.0 165.0 L 205.0 166.0 L 206.0 166.0 L 206.0 166.0 L 206.0 167.0 L 206.0 168.0 L 206.0 168.0 L 206.0 169.0 L 206.0 170.0 L 206.0 172.0 L 206.0 173.0 L 206.0 175.0 L 206.0 177.0 L 206.0 180.0 L 206.0 183.0 L 206.0 186.0 L 206.0 189.0 L 206.0 193.0 L 206.0 196.0 L 206.0 200.0 L 206.0 203.0 L 206.0 206.0 L 206.0 208.0 L 206.0 210.0 L 206.0 212.0 L 206.0 213.0 L 206.0 214.0 L 206.0 215.0 L 205.0 215.0 L 205.0 216.0 L 205.0 217.0 L 205.0 218.0 L 204.0 218.0 L 204.0 219.0 L 204.0 219.0 " stroke="black" fill="none" stroke-width="5.0" stroke-linecap="round" stroke-linejoin="round" />
<path d="M 103.0 189.0 L 103.0 189.0 L 103.0 189.0 L 103.0 189.0 L 103.0 188.0 L 103.0 188.0 L 103.0 188.0 L 103.0 188.0 L 103.0 188.0 L 103.0 187.0 L 103.0 187.0 L 103.0 187.0 L 103.0 187.0 L 104.0 187.0 L 104.0 187.0 L 105.0 187.0 L 106.0 187.0 L 107.0 187.0 L 108.0 187.0 L 109.0 187.0 L 111.0 187.0 L 112.0 187.0 L 114.0 187.0 L 116.0 187.0 L 118.0 187.0 L 119.0 187.0 L 121.0 187.0 L 124.0 187.0 L 126.0 187.0 L 128.0 187.0 L 131.0 187.0 L 133.0 187.0 L 136.0 187.0 L 139.0 187.0 L 141.0 187.0 L 144.0 187.0 L 146.0 187.0 L 148.0 187.0 L 149.0 187.0 L 151.0 187.0 L 152.0 187.0 L 153.0 187.0 L 155.0 187.0 L 156.0 187.0 L 158.0 187.0 L 160.0 187.0 L 162.0 186.0 L 164.0 186.0 L 166.0 186.0 L 169.0 186.0 L 171.0 186.0 L 173.0 186.0 L 176.0 186.0 L 178.0 186.0 L 181.0 186.0 L 183.0 187.0 L 186.0 187.0 L 188.0 187.0 L 189.0 187.0 L 191.0 187.0 L 191.0 188.0 L 192.0 188.0 L 192.0 188.0 L 193.0 189.0 " stroke="black" fill="none" stroke-width="5.0" stroke-linecap="round" stroke-linejoin="round" />
<path d="M 100.0 206.0 L 100.0 206.0 L 100.0 206.0 L 100.0 206.0 L 100.0 206.0 L 100.0 206.0 L 100.0 206.0 L 101.0 206.0 L 101.0 206.0 L 101.0 206.0 L 102.0 206.0 L 103.0 206.0 L 103.0 205.0 L 104.0 205.0 L 105.0 205.0 L 106.0 205.0 L 107.0 205.0 L 109.0 205.0 L 111.0 205.0 L 113.0 204.0 L 116.0 204.0 L 119.0 203.0 L 122.0 203.0 L 125.0 202.0 L 127.0 202.0 L 130.0 202.0 L 132.0 202.0 L 135.0 202.0 L 137.0 202.0 L 140.0 202.0 L 142.0 202.0 L 144.0 202.0 L 147.0 202.0 L 149.0 202.0 L 151.0 202.0 L 152.0 202.0 L 154.0 202.0 L 156.0 202.0 L 158.0 202.0 L 160.0 202.0 L 163.0 202.0 L 166.0 202.0 L 169.0 202.0 L 172.0 202.0 L 175.0 202.0 L 178.0 202.0 L 181.0 202.0 L 183.0 203.0 L 185.0 203.0 L 187.0 204.0 L 189.0 204.0 L 190.0 204.0 L 192.0 204.0 L 193.0 204.0 L 194.0 204.0 L 195.0 204.0 " stroke="black" fill="none" stroke-width="5.0" stroke-linecap="round" stroke-linejoin="round" />
<path d="M 91.0 226.0 L 91.0 226.0 L 91.0 226.0 L 91.0 226.0 L 91.0 226.0 L 92.0 226.0 L 92.0 226.0 L 93.0 226.0 L 93.0 226.0 L 94.0 226.0 L 95.0 226.0 L 96.0 226.0 L 97.0 226.0 L 98.0 226.0 L 99.0 226.0 L 100.0 226.0 L 101.0 226.0 L 102.0 225.0 L 103.0 225.0 L 104.0 225.0 L 105.0 225.0 L 107.0 225.0 L 108.0 225.0 L 109.0 225.0 L 110.0 225.0 L 111.0 225.0 L 112.0 225.0 L 113.0 225.0 L 115.0 225.0 L 116.0 225.0 L 117.0 225.0 L 119.0 225.0 L 120.0 225.0 L 122.0 225.0 L 124.0 225.0 L 126.0 225.0 L 128.0 225.0 L 130.0 225.0 L 132.0 225.0 L 134.0 225.0 L 135.0 225.0 L 137.0 225.0 L 139.0 225.0 L 140.0 225.0 L 142.0 225.0 L 143.0 225.0 L 145.0 225.0 L 146.0 225.0 L 148.0 225.0 L 149.0 224.0 L 151.0 224.0 L 152.0 224.0 L 153.0 224.0 L 155.0 224.0 L 156.0 224.0 L 157.0 224.0 L 159.0 224.0 L 161.0 224.0 L 162.0 224.0 L 164.0 224.0 L 167.0 224.0 L 169.0 224.0 L 171.0 224.0 L 174.0 225.0 L 177.0 225.0 L 180.0 225.0 L 183.0 226.0 L 185.0 226.0 L 187.0 226.0 L 190.0 226.0 L 191.0 226.0 L 192.0 226.0 L 193.0 226.0 L 194.0 226.0 L 195.0 226.0 L 196.0 226.0 L 196.0 226.0 L 197.0 225.0 L 198.0 224.0 L 199.0 223.0 L 199.0 222.0 " stroke="black" fill="none" stroke-width="5.0" stroke-linecap="round" stroke-linejoin="round" />
<path d="M 128.0 233.0 L 128.0 233.0 L 127.0 233.0 L 125.0 234.0 L 124.0 234.0 L 122.0 235.0 L 120.0 236.0 L 117.0 237.0 L 115.0 238.0 L 111.0 240.0 L 108.0 241.0 L 105.0 243.0 L 101.0 245.0 L 97.0 247.0 L 93.0 249.0 L 89.0 250.0 L 86.0 250.0 " stroke="black" fill="none" stroke-width="5.0" stroke-linecap="round" stroke-linejoin="round" />
<path d="M 173.0 238.0 L 173.0 238.0 L 173.0 239.0 L 172.0 239.0 L 172.0 239.0 L 172.0 240.0 L 172.0 240.0 L 172.0 240.0 L 173.0 240.0 L 175.0 240.0 L 177.0 240.0 L 179.0 240.0 L 182.0 240.0 L 184.0 240.0 L 187.0 241.0 L 190.0 242.0 L 193.0 243.0 L 196.0 245.0 L 199.0 246.0 L 202.0 248.0 L 206.0 249.0 L 209.0 251.0 L 212.0 252.0 L 215.0 253.0 L 217.0 254.0 L 219.0 254.0 L 220.0 255.0 L 220.0 255.0 L 221.0 255.0 L 221.0 255.0 " stroke="black" fill="none" stroke-width="5.0" stroke-linecap="round" stroke-linejoin="round" />
</svg>