<svg xmlns="http://www.w3.org/2000/svg" width="300" height="300" viewBox="0 0 300 300">
<path d="M 110.0 87.0 L 110.0 87.0 L 110.0 87.0 L 110.0 87.0 L 109.0 87.0 L 109.0 87.0 L 108.0 87.0 L 108.0 87.0 L 108.0 87.0 L 108.0 86.0 L 108.0 86.0 L 108.0 86.0 L 109.0 86.0 L 111.0 86.0 L 113.0 86.0 L 116.0 86.0 L 119.0 85.0 L 124.0 85.0 L 129.0 85.0 L 135.0 84.0 L 141.0 83.0 L 146.0 82.0 L 150.0 82.0 L 153.0 82.0 L 154.0 82.0 L 155.0 82.0 L 156.0 82.0 L 157.0 82.0 L 158.0 82.0 L 158.0 83.0 L 158.0 83.0 L 159.0 84.0 L 159.0 84.0 L 159.0 84.0 L 159.0 85.0 L 159.0 86.0 L 159.0 87.0 L 159.0 88.0 L 159.0 89.0 L 159.0 90.0 L 159.0 91.0 L 159.0 93.0 L 159.0 95.0 L 159.0 98.0 L 158.0 101.0 L 158.0 104.0 L 158.0 107.0 L 158.0 111.0 L 158.0 115.0 L 158.0 119.0 L 158.0 123.0 L 159.0 126.0 L 160.0 129.0 L 160.0 133.0 L 161.0 136.0 L 162.0 139.0 L 163.0 142.0 L 164.0 145.0 L 165.0 148.0 L 166.0 151.0 L 168.0 154.0 L 169.0 157.0 L 170.0 161.0 L 172.0 164.0 L 173.0 168.0 L 175.0 173.0 L 177.0 178.0 L 178.0 183.0 L 180.0 188.0 L 182.0 193.0 L 184.0 197.0 L 187.0 202.0 L 189.0 205.0 L 191.0 208.0 L 193.0 211.0 L 195.0 214.0 L 198.0 217.0 L 200.0 220.0 L 203.0 223.0 L 206.0 226.0 L 209.0 229.0 L 212.0 231.0 L 215.0 233.0 L 218.0 236.0 L 221.0 238.0 L 223.0 240.0 L 224.0 242.0 L 224.0 244.0 L 224.0 245.0 " stroke="black" fill="none" stroke-width="5.0" stroke-linecap="round" stroke-linejoin="round" />
<path d="M 148.0 130.0 L 148.0 130.0 L 148.0 130.0 L 148.0 130.0 L 148.0 130.0 L 148.0 130.0 L 148.0 130.0 L 148.0 133.0 L 148.0 137.0 L 147.0 143.0 L 145.0 151.0 L 142.0 160.0 L 137.0 170.0 L 131.0 182.0 L 125.0 192.0 L 118.0 201.0 L 111.0 211.0 L 105.0 218.0 L 99.0 226.0 L 91.0 234.0 L 83.0 239.0 L 75.0 243.0 L 69.0 246.0 " stroke="black" fill="none" stroke-width="5.0" stroke-linecap="round" stroke-linejoin="round" />
</svg>