<svg xmlns="http://www.w3.org/2000/svg" width="300" height="300" viewBox="0 0 300 300">
<path d="M 76.0 92.0 L 76.0 91.0 L 76.0 89.0 L 76.0 88.0 L 76.0 87.0 L 76.0 87.0 L 76.0 86.0 L 76.0 86.0 L 76.0 87.0 L 75.0 89.0 L 75.0 93.0 L 74.0 97.0 L 74.0 103.0 L 74.0 111.0 L 73.0 119.0 L 73.0 130.0 L 72.0 143.0 L 71.0 156.0 L 71.0 168.0 L 70.0 177.0 L 70.0 184.0 L 70.0 190.0 L 70.0 192.0 L 70.0 193.0 L 71.0 193.0 " stroke="black" fill="none" stroke-width="5.0" stroke-linecap="round" stroke-linejoin="round" />
<path d="M 78.0 87.0 L 77.0 87.0 L 76.0 87.0 L 75.0 87.0 L 75.0 87.0 L 74.0 87.0 L 74.0 87.0 L 74.0 87.0 L 75.0 87.0 L 76.0 87.0 L 78.0 86.0 L 81.0 86.0 L 84.0 86.0 L 88.0 85.0 L 91.0 85.0 L 96.0 85.0 L 100.0 85.0 L 103.0 84.0 L 107.0 84.0 L 109.0 84.0 L 112.0 84.0 L 114.0 84.0 L 116.0 84.0 L 117.0 84.0 L 119.0 85.0 L 120.0 86.0 L 121.0 87.0 L 122.0 89.0 L 123.0 90.0 L 124.0 93.0 L 125.0 96.0 L 126.0 99.0 L 126.0 103.0 L 127.0 107.0 L 128.0 112.0 L 128.0 117.0 L 128.0 123.0 L 128.0 130.0 L 129.0 138.0 L 129.0 148.0 L 129.0 156.0 L 129.0 163.0 L 129.0 169.0 L 129.0 174.0 L 128.0 177.0 L 128.0 180.0 L 127.0 182.0 L 126.0 183.0 L 125.0 185.0 L 123.0 186.0 " stroke="black" fill="none" stroke-width="5.0" stroke-linecap="round" stroke-linejoin="round" />
<path d="M 76.0 143.0 L 74.0 143.0 L 72.0 143.0 L 71.0 143.0 L 71.0 143.0 L 71.0 143.0 L 71.0 143.0 L 74.0 143.0 L 77.0 143.0 L 82.0 143.0 L 88.0 143.0 L 95.0 143.0 L 102.0 143.0 L 108.0 142.0 L 113.0 142.0 L 120.0 142.0 L 125.0 142.0 " stroke="black" fill="none" stroke-width="5.0" stroke-linecap="round" stroke-linejoin="round" />
<path d="M 73.0 193.0 L 72.0 193.0 L 70.0 193.0 L 69.0 193.0 L 68.0 193.0 L 67.0 194.0 L 67.0 194.0 L 67.0 194.0 L 69.0 194.0 L 73.0 194.0 L 79.0 194.0 L 86.0 193.0 L 94.0 191.0 L 103.0 189.0 L 111.0 185.0 L 116.0 183.0 " stroke="black" fill="none" stroke-width="5.0" stroke-linecap="round" stroke-linejoin="round" />
<path d="M 154.0 85.0 L 154.0 85.0 L 154.0 85.0 L 154.0 86.0 L 154.0 87.0 L 154.0 89.0 L 155.0 91.0 L 155.0 94.0 L 156.0 97.0 L 156.0 102.0 L 157.0 106.0 L 157.0 111.0 L 157.0 116.0 L 158.0 120.0 L 158.0 126.0 L 158.0 131.0 L 158.0 138.0 L 158.0 146.0 L 157.0 155.0 L 155.0 164.0 L 153.0 174.0 L 151.0 184.0 L 149.0 195.0 L 147.0 204.0 L 144.0 212.0 L 141.0 219.0 L 137.0 225.0 L 133.0 230.0 L 131.0 232.0 " stroke="black" fill="none" stroke-width="5.0" stroke-linecap="round" stroke-linejoin="round" />
<path d="M 158.0 84.0 L 158.0 84.0 L 158.0 84.0 L 158.0 84.0 L 157.0 84.0 L 157.0 83.0 L 157.0 83.0 L 157.0 83.0 L 157.0 83.0 L 157.0 83.0 L 157.0 83.0 L 157.0 83.0 L 157.0 83.0 L 158.0 83.0 L 160.0 83.0 L 162.0 83.0 L 165.0 83.0 L 168.0 83.0 L 172.0 83.0 L 176.0 83.0 L 180.0 83.0 L 185.0 83.0 L 189.0 83.0 L 193.0 83.0 L 196.0 82.0 L 198.0 82.0 L 201.0 81.0 L 203.0 81.0 L 205.0 80.0 L 207.0 80.0 L 209.0 80.0 L 211.0 80.0 L 212.0 80.0 L 214.0 80.0 L 215.0 80.0 L 217.0 81.0 L 218.0 81.0 L 220.0 81.0 L 221.0 81.0 L 223.0 81.0 L 224.0 82.0 L 225.0 82.0 L 226.0 82.0 L 227.0 82.0 L 227.0 83.0 L 228.0 83.0 L 228.0 83.0 L 229.0 84.0 L 229.0 84.0 L 229.0 85.0 L 230.0 85.0 L 230.0 87.0 L 230.0 88.0 L 230.0 89.0 L 230.0 91.0 L 230.0 94.0 L 230.0 97.0 L 230.0 100.0 L 230.0 104.0 L 230.0 107.0 L 230.0 111.0 L 230.0 114.0 L 230.0 117.0 L 230.0 121.0 L 230.0 124.0 L 230.0 128.0 L 230.0 132.0 L 230.0 137.0 L 230.0 142.0 L 230.0 147.0 L 230.0 152.0 L 230.0 157.0 L 230.0 162.0 L 230.0 166.0 L 230.0 170.0 L 230.0 175.0 L 230.0 179.0 L 230.0 183.0 L 230.0 188.0 L 229.0 192.0 L 229.0 196.0 L 229.0 200.0 L 229.0 203.0 L 229.0 207.0 L 229.0 211.0 L 229.0 214.0 L 229.0 218.0 L 229.0 223.0 L 229.0 227.0 L 229.0 231.0 L 228.0 235.0 L 228.0 238.0 L 227.0 241.0 L 227.0 244.0 L 226.0 246.0 L 226.0 248.0 L 225.0 250.0 L 224.0 250.0 L 223.0 251.0 L 223.0 252.0 L 221.0 252.0 L 219.0 252.0 L 216.0 252.0 L 213.0 251.0 L 209.0 249.0 L 205.0 245.0 L 202.0 241.0 " stroke="black" fill="none" stroke-width="5.0" stroke-linecap="round" stroke-linejoin="round" />
<path d="M 170.0 131.0 L 170.0 131.0 L 169.0 130.0 L 169.0 130.0 L 169.0 129.0 L 169.0 129.0 L 169.0 129.0 L 171.0 129.0 L 175.0 129.0 L 179.0 129.0 L 184.0 129.0 L 191.0 129.0 L 197.0 130.0 L 205.0 130.0 L 214.0 130.0 L 223.0 129.0 L 230.0 129.0 L 235.0 129.0 " stroke="black" fill="none" stroke-width="5.0" stroke-linecap="round" stroke-linejoin="round" />
<path d="M 162.0 175.0 L 161.0 175.0 L 160.0 175.0 L 159.0 176.0 L 159.0 176.0 L 159.0 176.0 L 159.0 176.0 L 161.0 176.0 L 164.0 176.0 L 170.0 176.0 L 177.0 176.0 L 184.0 175.0 L 191.0 174.0 L 199.0 173.0 L 206.0 172.0 L 214.0 172.0 L 221.0 172.0 L 226.0 173.0 " stroke="black" fill="none" stroke-width="5.0" stroke-linecap="round" stroke-linejoin="round" />
</svg>