<svg xmlns="http://www.w3.org/2000/svg" width="300" height="300" viewBox="0 0 300 300">
<path d="M 80.0 88.0 L 80.0 88.0 L 80.0 88.0 L 80.0 88.0 L 80.0 88.0 L 79.0 88.0 L 79.0 88.0 L 79.0 88.0 L 79.0 88.0 L 79.0 88.0 L 79.0 88.0 L 80.0 88.0 L 81.0 88.0 L 82.0 88.0 L 84.0 88.0 L 85.0 87.0 L 87.0 87.0 L 89.0 87.0 L 91.0 87.0 L 93.0 86.0 L 95.0 86.0 L 97.0 86.0 L 99.0 86.0 L 101.0 86.0 L 102.0 85.0 L 104.0 85.0 L 105.0 85.0 L 107.0 85.0 L 108.0 85.0 L 109.0 85.0 L 110.0 85.0 L 111.0 85.0 L 112.0 85.0 L 113.0 85.0 L 114.0 85.0 L 115.0 85.0 L 116.0 85.0 L 117.0 85.0 L 118.0 85.0 L 119.0 85.0 L 120.0 85.0 L 122.0 85.0 L 123.0 84.0 L 125.0 84.0 L 126.0 84.0 L 127.0 84.0 L 129.0 84.0 L 130.0 84.0 L 132.0 84.0 L 133.0 84.0 L 134.0 84.0 L 135.0 84.0 L 137.0 84.0 L 138.0 84.0 L 140.0 83.0 L 141.0 83.0 L 143.0 83.0 L 144.0 83.0 L 146.0 83.0 L 147.0 82.0 L 148.0 82.0 L 149.0 82.0 L 150.0 82.0 L 151.0 82.0 L 152.0 82.0 L 153.0 82.0 L 154.0 82.0 L 155.0 82.0 L 156.0 82.0 L 158.0 82.0 L 160.0 82.0 L 161.0 82.0 L 163.0 82.0 L 166.0 82.0 L 168.0 82.0 L 170.0 82.0 L 173.0 82.0 L 176.0 82.0 L 179.0 82.0 L 183.0 82.0 L 186.0 82.0 L 189.0 82.0 L 192.0 82.0 L 195.0 82.0 L 197.0 82.0 L 199.0 82.0 L 200.0 82.0 L 202.0 82.0 L 204.0 82.0 L 205.0 82.0 L 206.0 82.0 L 206.0 82.0 L 206.0 82.0 " stroke="black" fill="none" stroke-width="5.0" stroke-linecap="round" stroke-linejoin="round" />
<path d="M 90.0 115.0 L 90.0 115.0 L 91.0 115.0 L 91.0 115.0 L 92.0 115.0 L 93.0 115.0 L 94.0 115.0 L 95.0 115.0 L 97.0 115.0 L 98.0 115.0 L 101.0 115.0 L 103.0 115.0 L 105.0 115.0 L 107.0 115.0 L 110.0 114.0 L 113.0 114.0 L 116.0 114.0 L 120.0 113.0 L 125.0 113.0 L 130.0 112.0 L 135.0 112.0 L 139.0 112.0 L 144.0 111.0 L 147.0 111.0 L 150.0 111.0 L 153.0 111.0 L 155.0 111.0 L 157.0 111.0 L 160.0 112.0 L 163.0 112.0 L 168.0 113.0 L 174.0 113.0 L 181.0 113.0 L 187.0 112.0 L 193.0 111.0 L 197.0 109.0 L 200.0 108.0 L 202.0 108.0 L 203.0 108.0 L 203.0 108.0 L 203.0 109.0 " stroke="black" fill="none" stroke-width="5.0" stroke-linecap="round" stroke-linejoin="round" />
<path d="M 150.0 76.0 L 150.0 76.0 L 150.0 76.0 L 150.0 76.0 L 150.0 77.0 L 150.0 78.0 L 150.0 81.0 L 150.0 85.0 L 150.0 90.0 L 150.0 97.0 L 151.0 105.0 L 151.0 113.0 L 151.0 120.0 L 150.0 127.0 L 150.0 132.0 L 149.0 136.0 L 149.0 139.0 " stroke="black" fill="none" stroke-width="5.0" stroke-linecap="round" stroke-linejoin="round" />
<path d="M 69.0 139.0 L 69.0 139.0 L 69.0 139.0 L 69.0 139.0 L 69.0 139.0 L 69.0 139.0 L 69.0 139.0 L 69.0 139.0 L 69.0 139.0 L 70.0 139.0 L 70.0 139.0 L 71.0 139.0 L 72.0 139.0 L 74.0 139.0 L 76.0 139.0 L 78.0 139.0 L 80.0 139.0 L 83.0 139.0 L 86.0 139.0 L 89.0 139.0 L 93.0 139.0 L 96.0 139.0 L 99.0 139.0 L 102.0 138.0 L 104.0 138.0 L 106.0 137.0 L 108.0 137.0 L 109.0 137.0 L 111.0 137.0 L 112.0 136.0 L 113.0 136.0 L 115.0 136.0 L 116.0 136.0 L 118.0 135.0 L 120.0 135.0 L 121.0 135.0 L 123.0 135.0 L 125.0 135.0 L 127.0 135.0 L 130.0 135.0 L 133.0 135.0 L 135.0 134.0 L 138.0 134.0 L 141.0 134.0 L 143.0 134.0 L 145.0 134.0 L 147.0 134.0 L 149.0 134.0 L 150.0 134.0 L 152.0 134.0 L 153.0 134.0 L 155.0 134.0 L 157.0 134.0 L 159.0 133.0 L 161.0 133.0 L 164.0 133.0 L 167.0 133.0 L 170.0 133.0 L 173.0 133.0 L 176.0 133.0 L 179.0 133.0 L 183.0 133.0 L 186.0 133.0 L 189.0 133.0 L 191.0 133.0 L 193.0 133.0 L 195.0 133.0 L 197.0 133.0 L 199.0 133.0 L 201.0 133.0 L 203.0 133.0 L 205.0 133.0 L 208.0 133.0 L 211.0 133.0 L 214.0 133.0 L 217.0 133.0 L 220.0 133.0 L 222.0 133.0 L 224.0 133.0 L 226.0 133.0 L 227.0 133.0 " stroke="black" fill="none" stroke-width="5.0" stroke-linecap="round" stroke-linejoin="round" />
<path d="M 101.0 167.0 L 101.0 167.0 L 101.0 167.0 L 101.0 168.0 L 101.0 169.0 L 101.0 169.0 L 101.0 171.0 L 101.0 173.0 L 101.0 176.0 L 101.0 180.0 L 101.0 186.0 L 102.0 192.0 L 102.0 198.0 L 102.0 204.0 L 101.0 210.0 L 100.0 217.0 L 98.0 224.0 L 96.0 230.0 L 93.0 237.0 L 90.0 242.0 L 87.0 246.0 L 84.0 248.0 L 82.0 250.0 " stroke="black" fill="none" stroke-width="5.0" stroke-linecap="round" stroke-linejoin="round" />
<path d="M 104.0 168.0 L 104.0 168.0 L 104.0 168.0 L 104.0 168.0 L 104.0 168.0 L 104.0 168.0 L 104.0 168.0 L 104.0 168.0 L 104.0 168.0 L 104.0 168.0 L 105.0 168.0 L 106.0 168.0 L 107.0 167.0 L 109.0 167.0 L 111.0 167.0 L 114.0 167.0 L 116.0 166.0 L 119.0 166.0 L 123.0 166.0 L 126.0 166.0 L 129.0 165.0 L 132.0 165.0 L 135.0 165.0 L 137.0 165.0 L 140.0 165.0 L 143.0 164.0 L 145.0 164.0 L 147.0 164.0 L 149.0 164.0 L 151.0 164.0 L 153.0 164.0 L 155.0 164.0 L 157.0 164.0 L 159.0 164.0 L 161.0 163.0 L 164.0 163.0 L 166.0 163.0 L 168.0 163.0 L 171.0 163.0 L 173.0 163.0 L 175.0 163.0 L 178.0 163.0 L 180.0 163.0 L 182.0 163.0 L 184.0 163.0 L 186.0 163.0 L 188.0 163.0 L 189.0 163.0 L 191.0 163.0 L 192.0 163.0 L 192.0 163.0 L 193.0 163.0 L 194.0 163.0 L 194.0 163.0 L 195.0 164.0 L 195.0 164.0 L 196.0 164.0 L 196.0 164.0 L 196.0 165.0 L 197.0 165.0 L 197.0 166.0 L 198.0 166.0 L 198.0 167.0 L 198.0 168.0 L 198.0 169.0 L 199.0 170.0 L 199.0 171.0 L 199.0 172.0 L 199.0 173.0 L 200.0 175.0 L 200.0 177.0 L 200.0 178.0 L 200.0 181.0 L 200.0 184.0 L 200.0 187.0 L 200.0 191.0 L 200.0 196.0 L 200.0 200.0 L 199.0 206.0 L 198.0 211.0 L 198.0 216.0 L 197.0 222.0 L 197.0 227.0 L 196.0 231.0 L 196.0 236.0 L 195.0 240.0 L 194.0 243.0 L 194.0 246.0 L 193.0 248.0 L 193.0 248.0 L 192.0 249.0 L 192.0 249.0 L 190.0 249.0 L 188.0 249.0 L 186.0 249.0 L 183.0 249.0 L 179.0 249.0 L 176.0 249.0 L 173.0 248.0 L 170.0 248.0 L 168.0 247.0 " stroke="black" fill="none" stroke-width="5.0" stroke-linecap="round" stroke-linejoin="round" />
<path d="M 108.0 194.0 L 108.0 194.0 L 108.0 194.0 L 108.0 194.0 L 108.0 194.0 L 108.0 193.0 L 108.0 193.0 L 110.0 193.0 L 113.0 193.0 L 118.0 192.0 L 125.0 192.0 L 134.0 192.0 L 143.0 192.0 L 152.0 192.0 L 159.0 192.0 L 167.0 192.0 L 174.0 191.0 L 180.0 191.0 L 186.0 191.0 L 190.0 190.0 L 192.0 190.0 L 193.0 190.0 L 194.0 190.0 " stroke="black" fill="none" stroke-width="5.0" stroke-linecap="round" stroke-linejoin="round" />
<path d="M 113.0 220.0 L 113.0 220.0 L 112.0 220.0 L 111.0 220.0 L 111.0 220.0 L 111.0 220.0 L 111.0 220.0 L 111.0 220.0 L 114.0 220.0 L 118.0 219.0 L 124.0 219.0 L 132.0 219.0 L 141.0 218.0 L 149.0 218.0 L 157.0 217.0 L 166.0 216.0 L 174.0 215.0 L 181.0 213.0 L 188.0 212.0 L 192.0 212.0 L 194.0 212.0 " stroke="black" fill="none" stroke-width="5.0" stroke-linecap="round" stroke-linejoin="round" />
</svg>