<svg xmlns="http://www.w3.org/2000/svg" width="300" height="300" viewBox="0 0 300 300">
<path d="M 149.0 67.0 L 149.0 67.0 L 149.0 67.0 L 149.0 66.0 L 149.0 66.0 L 148.0 66.0 L 148.0 66.0 L 148.0 66.0 L 147.0 66.0 L 146.0 67.0 L 145.0 68.0 L 144.0 69.0 L 143.0 71.0 L 142.0 73.0 L 141.0 76.0 L 139.0 79.0 L 137.0 82.0 L 134.0 85.0 L 131.0 89.0 L 127.0 92.0 L 123.0 96.0 L 119.0 101.0 L 114.0 105.0 L 109.0 109.0 L 105.0 113.0 L 100.0 117.0 L 94.0 120.0 L 91.0 121.0 " stroke="black" fill="none" stroke-width="5.0" stroke-linecap="round" stroke-linejoin="round" />
<path d="M 136.0 88.0 L 135.0 88.0 L 134.0 88.0 L 133.0 88.0 L 132.0 88.0 L 132.0 88.0 L 131.0 88.0 L 131.0 88.0 L 131.0 88.0 L 131.0 88.0 L 131.0 88.0 L 131.0 88.0 L 132.0 88.0 L 134.0 88.0 L 135.0 88.0 L 138.0 88.0 L 140.0 88.0 L 143.0 88.0 L 145.0 88.0 L 148.0 88.0 L 151.0 88.0 L 154.0 88.0 L 157.0 88.0 L 161.0 88.0 L 166.0 88.0 L 170.0 88.0 L 174.0 88.0 L 179.0 87.0 L 182.0 87.0 L 185.0 87.0 L 187.0 87.0 L 189.0 87.0 L 191.0 87.0 L 192.0 87.0 L 193.0 87.0 L 193.0 87.0 L 194.0 87.0 L 195.0 87.0 L 195.0 88.0 L 196.0 88.0 L 196.0 88.0 L 196.0 88.0 L 197.0 88.0 L 197.0 88.0 L 198.0 89.0 L 198.0 89.0 L 199.0 89.0 L 199.0 89.0 L 200.0 89.0 L 200.0 89.0 L 200.0 89.0 L 201.0 89.0 L 201.0 89.0 L 201.0 89.0 L 201.0 89.0 L 201.0 90.0 L 201.0 90.0 L 201.0 90.0 L 201.0 90.0 L 201.0 91.0 L 201.0 91.0 L 201.0 92.0 L 200.0 93.0 L 199.0 95.0 L 198.0 97.0 L 196.0 99.0 L 194.0 102.0 L 192.0 104.0 L 190.0 107.0 L 187.0 111.0 L 183.0 114.0 L 179.0 117.0 L 174.0 120.0 L 168.0 123.0 L 163.0 126.0 L 157.0 128.0 L 152.0 131.0 L 147.0 134.0 L 142.0 137.0 L 136.0 140.0 L 130.0 143.0 L 122.0 146.0 L 115.0 148.0 L 109.0 150.0 L 104.0 152.0 L 100.0 154.0 L 95.0 155.0 L 90.0 157.0 L 85.0 157.0 " stroke="black" fill="none" stroke-width="5.0" stroke-linecap="round" stroke-linejoin="round" />
<path d="M 115.0 108.0 L 115.0 108.0 L 114.0 107.0 L 113.0 107.0 L 112.0 106.0 L 112.0 106.0 L 112.0 106.0 L 112.0 106.0 L 112.0 106.0 L 113.0 106.0 L 115.0 108.0 L 118.0 109.0 L 121.0 111.0 L 126.0 113.0 L 130.0 115.0 L 135.0 118.0 L 141.0 120.0 L 146.0 122.0 L 149.0 123.0 L 152.0 125.0 " stroke="black" fill="none" stroke-width="5.0" stroke-linecap="round" stroke-linejoin="round" />
<path d="M 185.0 142.0 L 185.0 142.0 L 184.0 142.0 L 184.0 142.0 L 183.0 142.0 L 183.0 142.0 L 182.0 142.0 L 182.0 142.0 L 182.0 142.0 L 181.0 143.0 L 181.0 144.0 L 180.0 146.0 L 179.0 149.0 L 177.0 151.0 L 175.0 155.0 L 172.0 158.0 L 169.0 161.0 L 164.0 165.0 L 160.0 169.0 L 155.0 173.0 L 151.0 177.0 L 147.0 181.0 L 142.0 185.0 L 136.0 189.0 L 130.0 193.0 L 123.0 196.0 L 116.0 198.0 L 111.0 201.0 L 107.0 202.0 L 105.0 203.0 " stroke="black" fill="none" stroke-width="5.0" stroke-linecap="round" stroke-linejoin="round" />
<path d="M 174.0 162.0 L 174.0 162.0 L 173.0 162.0 L 173.0 162.0 L 172.0 161.0 L 171.0 161.0 L 171.0 161.0 L 171.0 161.0 L 170.0 161.0 L 170.0 161.0 L 169.0 160.0 L 169.0 160.0 L 169.0 160.0 L 169.0 160.0 L 169.0 160.0 L 170.0 160.0 L 171.0 160.0 L 173.0 160.0 L 176.0 161.0 L 179.0 161.0 L 182.0 161.0 L 186.0 161.0 L 190.0 161.0 L 194.0 161.0 L 197.0 161.0 L 201.0 161.0 L 205.0 161.0 L 208.0 161.0 L 211.0 162.0 L 214.0 162.0 L 217.0 162.0 L 219.0 162.0 L 222.0 162.0 L 224.0 162.0 L 226.0 162.0 L 228.0 162.0 L 230.0 162.0 L 231.0 162.0 L 232.0 162.0 L 232.0 162.0 L 232.0 163.0 L 233.0 163.0 L 233.0 163.0 L 233.0 163.0 L 233.0 163.0 L 233.0 163.0 L 233.0 164.0 L 233.0 164.0 L 233.0 164.0 L 233.0 164.0 L 233.0 165.0 L 233.0 165.0 L 233.0 166.0 L 232.0 166.0 L 232.0 167.0 L 231.0 168.0 L 230.0 169.0 L 228.0 171.0 L 227.0 172.0 L 225.0 174.0 L 223.0 176.0 L 221.0 178.0 L 218.0 181.0 L 215.0 184.0 L 212.0 188.0 L 207.0 191.0 L 204.0 194.0 L 200.0 197.0 L 197.0 201.0 L 194.0 204.0 L 191.0 207.0 L 189.0 210.0 L 186.0 213.0 L 182.0 216.0 L 177.0 219.0 L 171.0 222.0 L 164.0 226.0 L 157.0 229.0 L 152.0 233.0 L 146.0 235.0 L 141.0 238.0 L 134.0 240.0 L 126.0 242.0 L 119.0 244.0 L 112.0 245.0 L 108.0 246.0 L 105.0 246.0 L 102.0 246.0 L 99.0 246.0 " stroke="black" fill="none" stroke-width="5.0" stroke-linecap="round" stroke-linejoin="round" />
<path d="M 142.0 185.0 L 142.0 184.0 L 142.0 184.0 L 141.0 184.0 L 141.0 183.0 L 141.0 183.0 L 140.0 183.0 L 140.0 183.0 L 140.0 183.0 L 141.0 184.0 L 143.0 186.0 L 145.0 188.0 L 148.0 191.0 L 151.0 193.0 L 155.0 196.0 L 160.0 199.0 L 166.0 202.0 L 172.0 204.0 L 175.0 206.0 L 182.0 209.0 L 184.0 210.0 " stroke="black" fill="none" stroke-width="5.0" stroke-linecap="round" stroke-linejoin="round" />
</svg>