<svg xmlns="http://www.w3.org/2000/svg" width="300" height="300" viewBox="0 0 300 300">
<path d="M 149.0 70.0 L 149.0 70.0 L 148.0 70.0 L 148.0 69.0 L 147.0 69.0 L 147.0 69.0 L 147.0 71.0 L 147.0 73.0 L 148.0 75.0 L 150.0 78.0 L 151.0 81.0 L 154.0 84.0 L 157.0 87.0 L 158.0 88.0 " stroke="black" fill="none" stroke-width="5.0" stroke-linecap="round" stroke-linejoin="round" />
<path d="M 65.0 98.0 L 65.0 98.0 L 64.0 98.0 L 64.0 98.0 L 64.0 98.0 L 64.0 98.0 L 64.0 98.0 L 64.0 98.0 L 65.0 97.0 L 68.0 97.0 L 72.0 96.0 L 77.0 96.0 L 84.0 96.0 L 93.0 95.0 L 101.0 95.0 L 110.0 94.0 L 118.0 93.0 L 128.0 93.0 L 138.0 93.0 L 148.0 93.0 L 155.0 93.0 L 163.0 93.0 L 173.0 94.0 L 183.0 94.0 L 192.0 95.0 L 200.0 95.0 L 206.0 95.0 L 214.0 95.0 L 223.0 95.0 L 229.0 95.0 L 234.0 95.0 L 237.0 95.0 L 238.0 96.0 L 238.0 97.0 L 238.0 99.0 L 238.0 100.0 " stroke="black" fill="none" stroke-width="5.0" stroke-linecap="round" stroke-linejoin="round" />
<path d="M 110.0 114.0 L 110.0 114.0 L 110.0 114.0 L 110.0 114.0 L 110.0 114.0 L 110.0 114.0 L 110.0 114.0 L 110.0 114.0 L 110.0 115.0 L 110.0 117.0 L 110.0 120.0 L 109.0 124.0 L 108.0 129.0 L 105.0 135.0 L 101.0 143.0 L 96.0 151.0 L 90.0 158.0 L 82.0 164.0 L 75.0 170.0 L 69.0 174.0 L 65.0 177.0 L 62.0 181.0 L 60.0 184.0 L 59.0 185.0 " stroke="black" fill="none" stroke-width="5.0" stroke-linecap="round" stroke-linejoin="round" />
<path d="M 95.0 156.0 L 95.0 156.0 L 95.0 155.0 L 95.0 154.0 L 95.0 153.0 L 95.0 152.0 L 96.0 152.0 L 96.0 152.0 L 97.0 153.0 L 98.0 154.0 L 98.0 157.0 L 99.0 161.0 L 100.0 167.0 L 100.0 174.0 L 100.0 183.0 L 100.0 193.0 L 100.0 204.0 L 98.0 218.0 L 97.0 230.0 L 95.0 240.0 L 94.0 248.0 L 93.0 251.0 L 93.0 253.0 L 93.0 253.0 " stroke="black" fill="none" stroke-width="5.0" stroke-linecap="round" stroke-linejoin="round" />
<path d="M 168.0 114.0 L 168.0 114.0 L 168.0 114.0 L 168.0 114.0 L 168.0 114.0 L 169.0 114.0 L 169.0 114.0 L 169.0 114.0 L 170.0 114.0 L 170.0 115.0 L 170.0 117.0 L 170.0 120.0 L 168.0 124.0 L 166.0 130.0 L 162.0 137.0 L 158.0 146.0 L 153.0 153.0 L 148.0 161.0 L 143.0 167.0 L 137.0 173.0 L 132.0 177.0 L 126.0 180.0 L 122.0 182.0 L 120.0 183.0 " stroke="black" fill="none" stroke-width="5.0" stroke-linecap="round" stroke-linejoin="round" />
<path d="M 165.0 133.0 L 165.0 133.0 L 165.0 133.0 L 164.0 133.0 L 164.0 132.0 L 164.0 132.0 L 163.0 132.0 L 163.0 132.0 L 163.0 132.0 L 163.0 132.0 L 164.0 132.0 L 165.0 132.0 L 165.0 133.0 L 166.0 133.0 L 168.0 133.0 L 169.0 134.0 L 170.0 134.0 L 171.0 134.0 L 172.0 135.0 L 173.0 135.0 L 175.0 135.0 L 176.0 135.0 L 178.0 135.0 L 179.0 136.0 L 181.0 136.0 L 182.0 136.0 L 184.0 136.0 L 185.0 136.0 L 187.0 136.0 L 188.0 136.0 L 189.0 136.0 L 190.0 136.0 L 191.0 136.0 L 192.0 136.0 L 193.0 136.0 L 194.0 136.0 L 194.0 136.0 L 195.0 136.0 L 196.0 136.0 L 196.0 136.0 L 197.0 136.0 L 197.0 136.0 L 198.0 136.0 L 199.0 136.0 L 199.0 136.0 L 200.0 136.0 L 201.0 136.0 L 201.0 136.0 L 202.0 136.0 L 203.0 137.0 L 204.0 137.0 L 205.0 137.0 L 206.0 137.0 L 207.0 137.0 L 208.0 138.0 L 209.0 138.0 L 210.0 138.0 L 211.0 139.0 L 213.0 139.0 L 214.0 139.0 L 215.0 139.0 L 217.0 139.0 L 218.0 139.0 L 219.0 139.0 L 220.0 139.0 L 221.0 139.0 L 222.0 139.0 L 223.0 139.0 L 224.0 139.0 L 225.0 139.0 L 226.0 139.0 L 226.0 139.0 L 226.0 139.0 L 227.0 139.0 L 227.0 139.0 L 227.0 139.0 L 227.0 139.0 L 227.0 140.0 L 227.0 140.0 L 227.0 140.0 L 227.0 140.0 L 227.0 141.0 L 227.0 141.0 L 227.0 141.0 L 227.0 142.0 L 227.0 142.0 L 227.0 143.0 L 226.0 143.0 L 226.0 144.0 L 226.0 145.0 L 225.0 146.0 L 225.0 146.0 L 224.0 147.0 L 224.0 148.0 L 223.0 149.0 L 223.0 150.0 L 223.0 150.0 L 222.0 151.0 L 222.0 152.0 L 222.0 152.0 L 221.0 153.0 L 221.0 153.0 L 221.0 154.0 L 221.0 154.0 L 220.0 155.0 L 220.0 156.0 L 220.0 156.0 L 219.0 157.0 L 219.0 158.0 L 218.0 158.0 L 218.0 159.0 L 217.0 160.0 L 217.0 161.0 L 216.0 161.0 L 216.0 162.0 L 215.0 163.0 L 214.0 164.0 L 214.0 164.0 L 213.0 165.0 L 212.0 166.0 L 212.0 167.0 L 211.0 168.0 L 211.0 169.0 L 210.0 170.0 L 209.0 171.0 L 209.0 172.0 L 208.0 172.0 L 208.0 173.0 L 207.0 174.0 L 207.0 175.0 L 206.0 176.0 L 205.0 177.0 L 205.0 178.0 L 204.0 179.0 L 204.0 180.0 L 203.0 181.0 L 202.0 182.0 L 202.0 183.0 L 201.0 184.0 L 200.0 185.0 L 200.0 186.0 L 199.0 187.0 L 199.0 188.0 L 198.0 189.0 L 198.0 189.0 L 197.0 190.0 L 197.0 191.0 L 197.0 192.0 L 196.0 193.0 L 196.0 193.0 L 196.0 194.0 L 195.0 195.0 L 195.0 195.0 L 194.0 196.0 L 194.0 196.0 L 193.0 197.0 L 193.0 197.0 L 192.0 198.0 L 191.0 199.0 L 191.0 200.0 L 190.0 200.0 L 189.0 201.0 L 189.0 202.0 L 188.0 203.0 L 187.0 204.0 L 186.0 204.0 L 185.0 205.0 L 184.0 206.0 L 182.0 207.0 L 181.0 208.0 L 179.0 209.0 L 178.0 210.0 L 176.0 211.0 L 175.0 212.0 L 173.0 213.0 L 172.0 214.0 L 170.0 215.0 L 169.0 216.0 L 168.0 216.0 L 166.0 217.0 L 165.0 218.0 L 164.0 219.0 L 163.0 220.0 L 161.0 221.0 L 160.0 223.0 L 159.0 224.0 L 158.0 225.0 L 157.0 227.0 L 156.0 228.0 L 155.0 229.0 L 154.0 230.0 L 153.0 231.0 L 152.0 232.0 L 151.0 233.0 L 150.0 233.0 L 149.0 234.0 L 148.0 235.0 L 147.0 236.0 L 146.0 237.0 L 145.0 237.0 L 144.0 238.0 L 142.0 239.0 L 140.0 241.0 L 137.0 242.0 L 135.0 243.0 L 131.0 244.0 L 128.0 245.0 L 125.0 246.0 L 122.0 246.0 L 120.0 247.0 L 118.0 247.0 " stroke="black" fill="none" stroke-width="5.0" stroke-linecap="round" stroke-linejoin="round" />
<path d="M 172.0 155.0 L 172.0 155.0 L 172.0 155.0 L 172.0 155.0 L 172.0 155.0 L 172.0 155.0 L 172.0 156.0 L 173.0 157.0 L 175.0 158.0 L 177.0 160.0 L 181.0 163.0 L 185.0 165.0 L 189.0 168.0 L 193.0 170.0 " stroke="black" fill="none" stroke-width="5.0" stroke-linecap="round" stroke-linejoin="round" />
<path d="M 143.0 175.0 L 143.0 175.0 L 143.0 175.0 L 143.0 175.0 L 143.0 175.0 L 143.0 176.0 L 143.0 177.0 L 143.0 178.0 L 143.0 179.0 L 144.0 181.0 L 144.0 183.0 L 145.0 185.0 L 146.0 187.0 L 147.0 189.0 L 148.0 192.0 L 149.0 194.0 L 151.0 197.0 L 152.0 199.0 L 154.0 202.0 L 155.0 204.0 L 157.0 207.0 L 159.0 209.0 L 162.0 211.0 L 164.0 214.0 L 166.0 216.0 L 169.0 218.0 L 171.0 220.0 L 173.0 223.0 L 176.0 225.0 L 178.0 227.0 L 181.0 229.0 L 183.0 231.0 L 185.0 233.0 L 187.0 234.0 L 189.0 235.0 L 191.0 236.0 L 192.0 237.0 L 194.0 239.0 L 196.0 240.0 L 198.0 242.0 L 200.0 244.0 L 202.0 245.0 L 205.0 246.0 L 208.0 247.0 L 212.0 248.0 L 215.0 249.0 L 219.0 250.0 L 223.0 250.0 L 226.0 251.0 L 229.0 251.0 L 231.0 251.0 L 232.0 252.0 L 234.0 252.0 L 234.0 252.0 L 234.0 252.0 " stroke="black" fill="none" stroke-width="5.0" stroke-linecap="round" stroke-linejoin="round" />
</svg>