<svg xmlns="http://www.w3.org/2000/svg" width="300" height="300" viewBox="0 0 300 300">
<path d="M 88.0 83.0 L 88.0 83.0 L 88.0 83.0 L 88.0 83.0 L 88.0 83.0 L 88.0 83.0 L 88.0 83.0 L 88.0 83.0 L 88.0 83.0 L 88.0 82.0 L 88.0 82.0 L 88.0 82.0 L 89.0 82.0 L 89.0 82.0 L 90.0 82.0 L 91.0 82.0 L 91.0 82.0 L 92.0 82.0 L 93.0 82.0 L 94.0 82.0 L 95.0 82.0 L 96.0 82.0 L 97.0 82.0 L 98.0 82.0 L 99.0 82.0 L 100.0 82.0 L 101.0 82.0 L 103.0 82.0 L 104.0 82.0 L 105.0 81.0 L 106.0 81.0 L 107.0 81.0 L 107.0 81.0 L 108.0 81.0 L 109.0 81.0 L 109.0 81.0 L 110.0 81.0 L 110.0 81.0 L 111.0 81.0 L 112.0 81.0 L 112.0 81.0 L 113.0 81.0 L 113.0 81.0 L 114.0 81.0 L 114.0 81.0 L 115.0 81.0 L 116.0 81.0 L 116.0 81.0 L 117.0 81.0 L 118.0 81.0 L 118.0 81.0 L 119.0 81.0 L 120.0 81.0 L 120.0 81.0 L 121.0 81.0 L 122.0 80.0 L 123.0 80.0 L 124.0 80.0 L 124.0 80.0 L 125.0 80.0 L 126.0 80.0 L 127.0 80.0 L 127.0 80.0 L 128.0 80.0 L 129.0 80.0 L 130.0 80.0 L 130.0 80.0 L 131.0 80.0 L 132.0 80.0 L 133.0 80.0 L 133.0 80.0 L 134.0 80.0 L 134.0 80.0 L 135.0 80.0 L 136.0 81.0 L 136.0 81.0 L 137.0 81.0 L 137.0 81.0 L 138.0 81.0 L 139.0 81.0 L 139.0 81.0 L 140.0 81.0 L 141.0 81.0 L 141.0 82.0 L 142.0 82.0 L 142.0 82.0 L 143.0 82.0 L 143.0 82.0 L 144.0 82.0 L 144.0 82.0 L 145.0 82.0 L 145.0 82.0 L 146.0 82.0 L 146.0 82.0 L 147.0 82.0 L 148.0 82.0 L 148.0 82.0 L 149.0 82.0 L 149.0 82.0 L 150.0 82.0 L 150.0 82.0 L 151.0 82.0 L 151.0 82.0 L 152.0 82.0 L 152.0 82.0 L 153.0 82.0 L 153.0 82.0 L 154.0 82.0 L 154.0 82.0 L 155.0 82.0 L 155.0 82.0 L 156.0 82.0 L 156.0 82.0 L 157.0 82.0 L 157.0 82.0 L 158.0 82.0 L 158.0 82.0 L 159.0 82.0 L 159.0 82.0 L 160.0 82.0 L 160.0 82.0 L 161.0 82.0 L 161.0 82.0 L 162.0 82.0 L 162.0 82.0 L 163.0 82.0 L 163.0 82.0 L 164.0 82.0 L 164.0 82.0 L 165.0 82.0 L 165.0 82.0 L 166.0 82.0 L 166.0 82.0 L 167.0 82.0 L 167.0 82.0 L 168.0 82.0 L 168.0 82.0 L 169.0 82.0 L 169.0 82.0 L 170.0 82.0 L 170.0 82.0 L 171.0 82.0 L 171.0 82.0 L 172.0 82.0 L 172.0 82.0 L 173.0 82.0 L 173.0 82.0 L 174.0 82.0 L 175.0 82.0 L 175.0 82.0 L 176.0 82.0 L 176.0 82.0 L 177.0 82.0 L 178.0 82.0 L 178.0 82.0 L 179.0 82.0 L 179.0 82.0 L 180.0 82.0 L 181.0 82.0 L 181.0 82.0 L 182.0 82.0 L 182.0 82.0 L 183.0 82.0 L 183.0 82.0 L 184.0 82.0 L 184.0 82.0 L 185.0 82.0 L 185.0 82.0 L 186.0 82.0 L 186.0 82.0 L 187.0 82.0 L 187.0 82.0 L 187.0 82.0 L 188.0 82.0 L 188.0 82.0 L 188.0 82.0 L 189.0 82.0 L 189.0 82.0 L 189.0 82.0 L 189.0 82.0 L 190.0 82.0 L 190.0 83.0 L 190.0 83.0 L 190.0 83.0 L 191.0 83.0 L 191.0 83.0 L 191.0 83.0 L 191.0 83.0 L 191.0 83.0 L 192.0 83.0 L 192.0 83.0 L 192.0 83.0 L 192.0 83.0 L 193.0 83.0 L 193.0 83.0 L 193.0 83.0 L 193.0 84.0 L 194.0 84.0 L 194.0 84.0 L 194.0 84.0 L 195.0 84.0 L 195.0 84.0 L 195.0 84.0 L 196.0 84.0 L 196.0 84.0 L 196.0 84.0 L 197.0 84.0 L 197.0 84.0 L 197.0 84.0 L 198.0 84.0 L 198.0 84.0 L 199.0 84.0 L 199.0 85.0 L 200.0 85.0 L 200.0 85.0 L 201.0 85.0 L 201.0 85.0 L 202.0 86.0 L 203.0 86.0 L 203.0 86.0 L 204.0 86.0 L 205.0 86.0 L 205.0 87.0 L 206.0 87.0 L 206.0 87.0 L 207.0 87.0 L 207.0 87.0 L 207.0 87.0 L 208.0 87.0 L 208.0 87.0 L 209.0 88.0 L 209.0 88.0 L 209.0 88.0 L 209.0 88.0 L 209.0 89.0 L 210.0 89.0 L 210.0 89.0 L 210.0 90.0 L 210.0 91.0 L 210.0 92.0 L 210.0 93.0 L 210.0 93.0 L 210.0 95.0 L 210.0 96.0 L 210.0 97.0 L 210.0 98.0 L 210.0 99.0 L 210.0 100.0 L 210.0 102.0 L 210.0 103.0 L 210.0 105.0 L 210.0 106.0 L 210.0 108.0 L 210.0 109.0 L 210.0 111.0 L 210.0 112.0 L 210.0 114.0 L 210.0 115.0 L 210.0 117.0 L 210.0 118.0 L 210.0 120.0 L 210.0 121.0 L 210.0 123.0 L 210.0 124.0 L 210.0 125.0 L 210.0 126.0 L 210.0 127.0 L 210.0 128.0 L 210.0 129.0 L 210.0 131.0 L 210.0 132.0 L 210.0 133.0 L 210.0 134.0 L 210.0 136.0 L 210.0 137.0 L 210.0 138.0 L 210.0 139.0 L 210.0 140.0 L 210.0 141.0 L 210.0 143.0 L 210.0 144.0 L 210.0 145.0 L 210.0 147.0 L 210.0 148.0 L 210.0 150.0 L 210.0 151.0 L 210.0 153.0 L 210.0 154.0 L 210.0 155.0 L 210.0 155.0 L 210.0 156.0 L 210.0 156.0 L 210.0 156.0 L 210.0 156.0 L 210.0 156.0 " stroke="black" fill="none" stroke-width="5.0" stroke-linecap="round" stroke-linejoin="round" />
<path d="M 64.0 118.0 L 64.0 118.0 L 64.0 118.0 L 64.0 117.0 L 64.0 117.0 L 64.0 116.0 L 64.0 116.0 L 64.0 116.0 L 64.0 116.0 L 64.0 116.0 L 64.0 116.0 L 64.0 116.0 L 64.0 116.0 L 65.0 116.0 L 65.0 117.0 L 65.0 117.0 L 66.0 118.0 L 66.0 118.0 L 66.0 119.0 L 67.0 119.0 L 68.0 120.0 L 68.0 120.0 L 69.0 121.0 L 70.0 121.0 L 71.0 122.0 L 72.0 122.0 L 73.0 122.0 L 75.0 122.0 L 76.0 122.0 L 78.0 122.0 L 80.0 122.0 L 82.0 122.0 L 83.0 122.0 L 85.0 122.0 L 87.0 122.0 L 89.0 122.0 L 91.0 122.0 L 93.0 122.0 L 95.0 122.0 L 97.0 122.0 L 98.0 122.0 L 100.0 122.0 L 101.0 122.0 L 102.0 122.0 L 103.0 122.0 L 104.0 122.0 L 105.0 121.0 L 106.0 121.0 L 107.0 121.0 L 107.0 121.0 L 108.0 121.0 L 109.0 121.0 L 109.0 121.0 L 110.0 121.0 L 111.0 121.0 L 111.0 121.0 L 112.0 120.0 L 112.0 120.0 L 113.0 120.0 L 114.0 120.0 L 115.0 120.0 L 116.0 120.0 L 117.0 120.0 L 118.0 120.0 L 119.0 119.0 L 121.0 119.0 L 122.0 119.0 L 124.0 119.0 L 125.0 119.0 L 127.0 118.0 L 128.0 118.0 L 130.0 118.0 L 132.0 118.0 L 134.0 118.0 L 135.0 117.0 L 137.0 117.0 L 138.0 117.0 L 140.0 117.0 L 141.0 116.0 L 142.0 116.0 L 143.0 116.0 L 144.0 116.0 L 145.0 116.0 L 146.0 116.0 L 147.0 116.0 L 147.0 116.0 L 148.0 116.0 L 149.0 116.0 L 149.0 116.0 L 150.0 115.0 L 151.0 115.0 L 151.0 115.0 L 152.0 115.0 L 152.0 115.0 L 153.0 115.0 L 154.0 115.0 L 154.0 115.0 L 155.0 115.0 L 156.0 115.0 L 157.0 115.0 L 157.0 115.0 L 158.0 115.0 L 159.0 115.0 L 160.0 115.0 L 161.0 116.0 L 162.0 116.0 L 162.0 116.0 L 163.0 116.0 L 164.0 116.0 L 165.0 116.0 L 166.0 116.0 L 167.0 116.0 L 167.0 116.0 L 168.0 116.0 L 169.0 116.0 L 170.0 116.0 L 171.0 116.0 L 172.0 116.0 L 173.0 116.0 L 174.0 116.0 L 175.0 116.0 L 175.0 116.0 L 176.0 116.0 L 177.0 116.0 L 178.0 117.0 L 179.0 117.0 L 179.0 117.0 L 180.0 117.0 L 181.0 117.0 L 182.0 117.0 L 182.0 117.0 L 183.0 117.0 L 184.0 117.0 L 184.0 117.0 L 185.0 117.0 L 186.0 117.0 L 186.0 117.0 L 187.0 117.0 L 188.0 117.0 L 188.0 117.0 L 189.0 117.0 L 189.0 117.0 L 190.0 117.0 L 190.0 117.0 L 191.0 117.0 L 191.0 117.0 L 192.0 117.0 L 192.0 117.0 L 193.0 117.0 L 193.0 117.0 L 194.0 117.0 L 194.0 117.0 L 194.0 117.0 L 195.0 117.0 L 195.0 117.0 L 196.0 117.0 L 196.0 117.0 L 197.0 117.0 L 197.0 117.0 L 198.0 117.0 L 198.0 117.0 L 199.0 117.0 L 200.0 117.0 L 200.0 117.0 L 201.0 117.0 L 202.0 117.0 L 203.0 117.0 L 204.0 117.0 L 205.0 117.0 L 206.0 117.0 L 207.0 118.0 L 208.0 118.0 L 209.0 118.0 L 210.0 118.0 L 210.0 118.0 L 211.0 118.0 L 212.0 118.0 L 213.0 118.0 L 214.0 118.0 L 215.0 118.0 L 216.0 118.0 L 217.0 118.0 L 218.0 118.0 L 219.0 118.0 L 220.0 118.0 L 221.0 118.0 L 222.0 118.0 L 223.0 118.0 L 224.0 118.0 L 225.0 119.0 L 226.0 119.0 L 227.0 119.0 L 228.0 119.0 L 229.0 119.0 L 229.0 120.0 L 230.0 120.0 L 231.0 120.0 L 232.0 120.0 L 232.0 120.0 L 233.0 121.0 L 233.0 121.0 L 234.0 121.0 L 234.0 121.0 L 235.0 121.0 L 236.0 121.0 L 236.0 121.0 L 237.0 121.0 L 237.0 121.0 " stroke="black" fill="none" stroke-width="5.0" stroke-linecap="round" stroke-linejoin="round" />
<path d="M 78.0 157.0 L 78.0 157.0 L 78.0 157.0 L 78.0 157.0 L 78.0 157.0 L 78.0 158.0 L 78.0 158.0 L 79.0 158.0 L 79.0 158.0 L 80.0 158.0 L 80.0 158.0 L 81.0 158.0 L 82.0 157.0 L 83.0 157.0 L 84.0 156.0 L 85.0 156.0 L 86.0 156.0 L 87.0 155.0 L 88.0 155.0 L 89.0 155.0 L 90.0 155.0 L 91.0 154.0 L 92.0 154.0 L 93.0 154.0 L 94.0 154.0 L 95.0 153.0 L 97.0 153.0 L 98.0 153.0 L 99.0 153.0 L 100.0 153.0 L 101.0 152.0 L 102.0 152.0 L 103.0 152.0 L 104.0 152.0 L 105.0 152.0 L 106.0 152.0 L 107.0 151.0 L 108.0 151.0 L 109.0 151.0 L 109.0 151.0 L 110.0 151.0 L 111.0 151.0 L 112.0 150.0 L 113.0 150.0 L 113.0 150.0 L 114.0 150.0 L 115.0 150.0 L 116.0 150.0 L 117.0 150.0 L 117.0 150.0 L 118.0 150.0 L 119.0 150.0 L 120.0 150.0 L 122.0 150.0 L 123.0 150.0 L 124.0 150.0 L 126.0 150.0 L 127.0 151.0 L 128.0 151.0 L 130.0 151.0 L 131.0 151.0 L 132.0 151.0 L 133.0 152.0 L 134.0 152.0 L 135.0 152.0 L 136.0 152.0 L 137.0 152.0 L 138.0 152.0 L 139.0 152.0 L 140.0 152.0 L 141.0 152.0 L 142.0 152.0 L 143.0 152.0 L 144.0 152.0 L 145.0 152.0 L 146.0 152.0 L 147.0 152.0 L 148.0 152.0 L 149.0 152.0 L 150.0 152.0 L 150.0 152.0 L 151.0 152.0 L 152.0 152.0 L 153.0 152.0 L 154.0 152.0 L 154.0 152.0 L 155.0 152.0 L 156.0 152.0 L 156.0 152.0 L 157.0 152.0 L 157.0 153.0 L 158.0 153.0 L 159.0 153.0 L 160.0 153.0 L 160.0 153.0 L 161.0 153.0 L 162.0 153.0 L 163.0 153.0 L 164.0 153.0 L 165.0 154.0 L 165.0 154.0 L 166.0 154.0 L 167.0 154.0 L 168.0 154.0 L 168.0 154.0 L 169.0 154.0 L 170.0 154.0 L 171.0 154.0 L 172.0 154.0 L 173.0 154.0 L 174.0 154.0 L 175.0 154.0 L 176.0 154.0 L 177.0 154.0 L 178.0 154.0 L 179.0 154.0 L 180.0 154.0 L 181.0 154.0 L 182.0 155.0 L 183.0 155.0 L 184.0 155.0 L 185.0 155.0 L 186.0 155.0 L 186.0 155.0 L 187.0 155.0 L 187.0 155.0 L 188.0 155.0 L 188.0 155.0 L 189.0 155.0 L 189.0 155.0 L 190.0 155.0 L 191.0 155.0 L 191.0 155.0 L 192.0 155.0 L 193.0 155.0 L 193.0 155.0 L 194.0 155.0 L 195.0 155.0 L 196.0 155.0 L 196.0 155.0 L 197.0 155.0 L 198.0 155.0 L 199.0 155.0 L 200.0 155.0 L 201.0 155.0 L 202.0 155.0 L 204.0 155.0 L 204.0 155.0 L 205.0 155.0 L 206.0 155.0 L 207.0 155.0 L 207.0 155.0 L 207.0 155.0 " stroke="black" fill="none" stroke-width="5.0" stroke-linecap="round" stroke-linejoin="round" />
<path d="M 141.0 90.0 L 141.0 90.0 L 141.0 90.0 L 141.0 91.0 L 141.0 92.0 L 141.0 92.0 L 140.0 93.0 L 140.0 94.0 L 140.0 95.0 L 140.0 97.0 L 140.0 99.0 L 139.0 101.0 L 139.0 103.0 L 139.0 106.0 L 139.0 108.0 L 139.0 111.0 L 138.0 113.0 L 138.0 115.0 L 138.0 118.0 L 137.0 120.0 L 137.0 121.0 L 137.0 124.0 L 136.0 125.0 L 136.0 127.0 L 135.0 129.0 L 134.0 131.0 L 134.0 133.0 L 133.0 135.0 L 132.0 137.0 L 131.0 138.0 L 130.0 140.0 L 129.0 142.0 L 128.0 144.0 L 126.0 146.0 L 125.0 148.0 L 124.0 150.0 L 123.0 152.0 L 122.0 153.0 L 121.0 155.0 L 120.0 156.0 L 119.0 157.0 L 119.0 159.0 L 118.0 160.0 L 117.0 161.0 L 116.0 162.0 L 115.0 164.0 L 114.0 165.0 L 113.0 167.0 L 112.0 168.0 L 110.0 170.0 L 109.0 171.0 L 108.0 173.0 L 107.0 175.0 L 106.0 177.0 L 105.0 178.0 L 104.0 180.0 L 103.0 182.0 L 102.0 184.0 L 101.0 185.0 L 101.0 187.0 L 100.0 188.0 L 99.0 189.0 L 98.0 191.0 L 96.0 192.0 L 95.0 193.0 L 94.0 194.0 L 93.0 195.0 L 92.0 196.0 L 91.0 197.0 L 89.0 198.0 L 88.0 200.0 L 87.0 201.0 L 85.0 202.0 L 83.0 203.0 L 82.0 204.0 L 80.0 206.0 L 78.0 207.0 L 76.0 209.0 L 74.0 210.0 L 73.0 212.0 L 71.0 213.0 L 69.0 215.0 L 68.0 217.0 L 66.0 218.0 L 65.0 219.0 L 64.0 220.0 L 64.0 221.0 " stroke="black" fill="none" stroke-width="5.0" stroke-linecap="round" stroke-linejoin="round" />
<path d="M 108.0 188.0 L 108.0 188.0 L 108.0 188.0 L 107.0 188.0 L 107.0 188.0 L 107.0 188.0 L 107.0 188.0 L 107.0 188.0 L 107.0 189.0 L 107.0 190.0 L 107.0 191.0 L 107.0 193.0 L 107.0 195.0 L 107.0 198.0 L 107.0 202.0 L 108.0 207.0 L 108.0 212.0 L 108.0 218.0 L 109.0 223.0 L 109.0 229.0 L 109.0 233.0 L 109.0 237.0 L 110.0 239.0 L 110.0 241.0 L 110.0 242.0 L 111.0 242.0 L 111.0 241.0 " stroke="black" fill="none" stroke-width="5.0" stroke-linecap="round" stroke-linejoin="round" />
<path d="M 110.0 188.0 L 110.0 188.0 L 110.0 188.0 L 110.0 188.0 L 110.0 188.0 L 110.0 188.0 L 109.0 188.0 L 109.0 188.0 L 109.0 188.0 L 109.0 188.0 L 109.0 188.0 L 109.0 188.0 L 109.0 188.0 L 110.0 188.0 L 111.0 188.0 L 112.0 188.0 L 113.0 188.0 L 115.0 188.0 L 117.0 188.0 L 119.0 188.0 L 122.0 188.0 L 125.0 187.0 L 128.0 187.0 L 131.0 187.0 L 133.0 187.0 L 135.0 187.0 L 137.0 187.0 L 139.0 187.0 L 140.0 187.0 L 142.0 187.0 L 143.0 187.0 L 144.0 187.0 L 145.0 187.0 L 146.0 187.0 L 147.0 187.0 L 148.0 187.0 L 149.0 187.0 L 150.0 187.0 L 150.0 187.0 L 151.0 187.0 L 151.0 187.0 L 152.0 187.0 L 152.0 187.0 L 153.0 187.0 L 153.0 187.0 L 154.0 187.0 L 155.0 187.0 L 155.0 187.0 L 156.0 188.0 L 157.0 188.0 L 157.0 188.0 L 158.0 188.0 L 159.0 188.0 L 160.0 188.0 L 161.0 188.0 L 162.0 188.0 L 163.0 188.0 L 164.0 188.0 L 165.0 189.0 L 166.0 189.0 L 167.0 189.0 L 168.0 189.0 L 170.0 189.0 L 171.0 189.0 L 173.0 189.0 L 175.0 189.0 L 177.0 189.0 L 179.0 189.0 L 181.0 189.0 L 182.0 189.0 L 184.0 189.0 L 185.0 189.0 L 186.0 189.0 L 187.0 189.0 L 188.0 189.0 L 189.0 189.0 L 190.0 189.0 L 191.0 189.0 L 192.0 189.0 L 193.0 189.0 L 193.0 189.0 L 194.0 189.0 L 194.0 189.0 L 195.0 189.0 L 195.0 189.0 L 195.0 189.0 L 196.0 189.0 L 196.0 189.0 L 197.0 190.0 L 197.0 190.0 L 198.0 190.0 L 198.0 190.0 L 198.0 190.0 L 199.0 190.0 L 199.0 191.0 L 200.0 191.0 L 200.0 191.0 L 201.0 191.0 L 202.0 191.0 L 202.0 191.0 L 203.0 191.0 L 204.0 191.0 L 205.0 191.0 L 205.0 191.0 L 206.0 191.0 L 207.0 191.0 L 208.0 191.0 L 209.0 192.0 L 209.0 192.0 L 210.0 192.0 L 211.0 192.0 L 212.0 192.0 L 212.0 192.0 L 213.0 192.0 L 213.0 192.0 L 214.0 192.0 L 214.0 192.0 L 215.0 192.0 L 215.0 192.0 L 216.0 193.0 L 216.0 193.0 L 216.0 193.0 L 216.0 194.0 L 216.0 195.0 L 216.0 195.0 L 216.0 196.0 L 216.0 197.0 L 216.0 199.0 L 216.0 200.0 L 216.0 202.0 L 216.0 204.0 L 216.0 206.0 L 216.0 208.0 L 216.0 211.0 L 216.0 213.0 L 216.0 215.0 L 216.0 218.0 L 216.0 220.0 L 217.0 223.0 L 217.0 226.0 L 217.0 229.0 L 217.0 232.0 L 217.0 235.0 L 217.0 237.0 L 217.0 240.0 L 217.0 242.0 L 217.0 243.0 L 217.0 244.0 L 217.0 244.0 L 216.0 245.0 L 216.0 245.0 L 216.0 245.0 L 216.0 244.0 L 216.0 244.0 L 215.0 243.0 " stroke="black" fill="none" stroke-width="5.0" stroke-linecap="round" stroke-linejoin="round" />
<path d="M 110.0 242.0 L 110.0 242.0 L 110.0 242.0 L 110.0 243.0 L 110.0 243.0 L 110.0 243.0 L 111.0 243.0 L 111.0 243.0 L 112.0 243.0 L 112.0 243.0 L 114.0 243.0 L 115.0 243.0 L 116.0 243.0 L 118.0 243.0 L 120.0 243.0 L 122.0 243.0 L 124.0 243.0 L 126.0 243.0 L 128.0 243.0 L 130.0 243.0 L 132.0 243.0 L 134.0 244.0 L 137.0 244.0 L 139.0 245.0 L 141.0 245.0 L 143.0 245.0 L 145.0 245.0 L 147.0 246.0 L 149.0 246.0 L 150.0 246.0 L 152.0 246.0 L 154.0 246.0 L 156.0 246.0 L 158.0 246.0 L 160.0 246.0 L 162.0 246.0 L 164.0 246.0 L 166.0 246.0 L 167.0 245.0 L 169.0 245.0 L 171.0 245.0 L 172.0 245.0 L 173.0 245.0 L 175.0 245.0 L 177.0 245.0 L 178.0 245.0 L 180.0 245.0 L 182.0 245.0 L 183.0 245.0 L 185.0 245.0 L 187.0 245.0 L 189.0 245.0 L 190.0 245.0 L 191.0 245.0 L 192.0 245.0 L 193.0 246.0 L 194.0 246.0 L 195.0 246.0 L 196.0 246.0 L 197.0 246.0 L 198.0 246.0 L 199.0 246.0 L 201.0 246.0 L 202.0 246.0 L 204.0 246.0 L 206.0 247.0 L 207.0 247.0 L 209.0 247.0 L 210.0 247.0 L 211.0 248.0 L 212.0 248.0 L 213.0 248.0 L 214.0 249.0 L 215.0 249.0 L 215.0 249.0 L 215.0 249.0 L 215.0 249.0 L 215.0 249.0 L 216.0 249.0 " stroke="black" fill="none" stroke-width="5.0" stroke-linecap="round" stroke-linejoin="round" />
</svg>