<svg xmlns="http://www.w3.org/2000/svg" width="300" height="300" viewBox="0 0 300 300">
<path d="M 92.0 80.0 L 92.0 80.0 L 92.0 80.0 L 92.0 80.0 L 92.0 80.0 L 92.0 80.0 L 92.0 80.0 L 92.0 80.0 L 92.0 80.0 L 92.0 80.0 L 92.0 80.0 L 91.0 80.0 L 91.0 80.0 L 91.0 80.0 L 91.0 80.0 L 91.0 80.0 L 91.0 80.0 L 91.0 80.0 L 91.0 80.0 L 91.0 80.0 L 91.0 80.0 L 91.0 80.0 L 91.0 80.0 L 91.0 80.0 L 92.0 80.0 L 92.0 80.0 L 92.0 79.0 L 93.0 79.0 L 93.0 79.0 L 93.0 79.0 L 94.0 79.0 L 94.0 79.0 L 94.0 79.0 L 95.0 79.0 L 95.0 79.0 L 96.0 79.0 L 96.0 79.0 L 97.0 79.0 L 97.0 79.0 L 98.0 79.0 L 98.0 79.0 L 98.0 79.0 L 99.0 79.0 L 99.0 79.0 L 99.0 79.0 L 100.0 79.0 L 100.0 79.0 L 101.0 79.0 L 101.0 79.0 L 101.0 79.0 L 102.0 79.0 L 102.0 79.0 L 103.0 79.0 L 103.0 79.0 L 103.0 79.0 L 104.0 79.0 L 104.0 79.0 L 104.0 79.0 L 105.0 79.0 L 105.0 79.0 L 106.0 79.0 L 106.0 79.0 L 107.0 79.0 L 107.0 79.0 L 107.0 79.0 L 108.0 79.0 L 108.0 79.0 L 109.0 79.0 L 109.0 79.0 L 110.0 79.0 L 110.0 79.0 L 110.0 79.0 L 111.0 79.0 L 111.0 79.0 L 112.0 79.0 L 112.0 79.0 L 113.0 79.0 L 113.0 79.0 L 114.0 79.0 L 114.0 79.0 L 115.0 79.0 L 116.0 79.0 L 116.0 79.0 L 117.0 79.0 L 118.0 79.0 L 118.0 79.0 L 119.0 79.0 L 120.0 79.0 L 121.0 78.0 L 121.0 78.0 L 122.0 78.0 L 123.0 78.0 L 123.0 78.0 L 124.0 78.0 L 125.0 78.0 L 126.0 78.0 L 126.0 77.0 L 127.0 77.0 L 128.0 77.0 L 128.0 77.0 L 129.0 77.0 L 130.0 77.0 L 130.0 77.0 L 131.0 77.0 L 132.0 77.0 L 132.0 77.0 L 133.0 77.0 L 133.0 77.0 L 134.0 77.0 L 134.0 77.0 L 135.0 77.0 L 135.0 77.0 L 136.0 77.0 L 136.0 77.0 L 137.0 77.0 L 137.0 77.0 L 138.0 77.0 L 138.0 77.0 L 139.0 77.0 L 140.0 77.0 L 140.0 77.0 L 141.0 77.0 L 142.0 77.0 L 143.0 77.0 L 143.0 77.0 L 144.0 77.0 L 144.0 77.0 L 145.0 77.0 L 146.0 77.0 L 146.0 77.0 L 147.0 77.0 L 147.0 77.0 L 148.0 77.0 L 148.0 77.0 L 149.0 77.0 L 150.0 77.0 L 150.0 77.0 L 150.0 77.0 L 151.0 77.0 L 151.0 77.0 L 152.0 77.0 L 152.0 77.0 L 152.0 77.0 L 153.0 77.0 L 153.0 77.0 L 153.0 77.0 L 154.0 77.0 L 154.0 77.0 L 155.0 77.0 L 155.0 78.0 L 155.0 78.0 L 156.0 78.0 L 156.0 78.0 L 156.0 78.0 L 157.0 78.0 L 157.0 78.0 L 157.0 78.0 L 158.0 78.0 L 158.0 78.0 L 159.0 78.0 L 159.0 78.0 L 159.0 78.0 L 160.0 78.0 L 160.0 78.0 L 161.0 78.0 L 161.0 78.0 L 162.0 78.0 L 162.0 78.0 L 163.0 78.0 L 163.0 78.0 L 164.0 78.0 L 164.0 78.0 L 165.0 78.0 L 165.0 78.0 L 166.0 78.0 L 166.0 78.0 L 167.0 78.0 L 168.0 78.0 L 168.0 78.0 L 169.0 78.0 L 169.0 78.0 L 170.0 78.0 L 171.0 78.0 L 171.0 78.0 L 172.0 78.0 L 173.0 78.0 L 173.0 78.0 L 174.0 78.0 L 175.0 78.0 L 175.0 79.0 L 176.0 79.0 L 176.0 79.0 L 177.0 79.0 L 178.0 79.0 L 178.0 79.0 L 179.0 79.0 L 179.0 79.0 L 180.0 79.0 L 181.0 79.0 L 181.0 79.0 L 182.0 79.0 L 182.0 79.0 L 183.0 79.0 L 184.0 79.0 L 184.0 79.0 L 185.0 79.0 L 185.0 79.0 L 186.0 79.0 L 186.0 79.0 L 187.0 79.0 L 187.0 79.0 L 188.0 79.0 L 188.0 79.0 L 189.0 79.0 L 189.0 79.0 L 190.0 79.0 L 190.0 79.0 L 190.0 79.0 L 191.0 79.0 L 191.0 79.0 L 191.0 80.0 L 191.0 80.0 L 191.0 80.0 L 192.0 80.0 L 192.0 80.0 L 192.0 80.0 L 192.0 80.0 L 192.0 80.0 L 193.0 80.0 L 193.0 80.0 L 193.0 80.0 L 193.0 80.0 L 193.0 80.0 L 194.0 80.0 L 194.0 80.0 L 194.0 80.0 L 194.0 80.0 L 195.0 80.0 L 195.0 80.0 L 195.0 80.0 L 195.0 80.0 L 196.0 80.0 L 196.0 80.0 L 196.0 80.0 L 196.0 80.0 L 197.0 80.0 L 197.0 80.0 L 197.0 80.0 L 198.0 80.0 L 198.0 80.0 L 198.0 80.0 L 199.0 80.0 L 199.0 80.0 L 200.0 80.0 L 200.0 80.0 L 200.0 80.0 L 201.0 80.0 L 201.0 80.0 L 202.0 80.0 L 202.0 80.0 L 202.0 80.0 L 203.0 80.0 L 203.0 80.0 L 204.0 80.0 L 204.0 80.0 L 204.0 80.0 L 205.0 80.0 L 205.0 80.0 L 205.0 80.0 L 206.0 80.0 L 206.0 80.0 L 206.0 80.0 L 207.0 80.0 L 207.0 80.0 L 207.0 80.0 L 208.0 80.0 L 208.0 80.0 L 208.0 80.0 L 209.0 80.0 L 209.0 80.0 L 209.0 80.0 L 210.0 80.0 L 210.0 80.0 L 210.0 80.0 L 211.0 80.0 L 211.0 80.0 L 211.0 80.0 L 212.0 80.0 L 212.0 80.0 L 212.0 80.0 L 213.0 80.0 L 213.0 80.0 L 213.0 80.0 L 214.0 80.0 L 214.0 80.0 L 214.0 80.0 L 214.0 80.0 L 214.0 80.0 L 215.0 81.0 L 215.0 81.0 L 215.0 81.0 L 215.0 82.0 L 215.0 82.0 L 215.0 83.0 L 215.0 83.0 L 215.0 84.0 L 215.0 85.0 L 215.0 86.0 L 215.0 87.0 L 215.0 88.0 L 215.0 89.0 L 215.0 90.0 L 215.0 91.0 L 215.0 92.0 L 215.0 93.0 L 215.0 95.0 L 215.0 96.0 L 215.0 97.0 L 215.0 99.0 L 215.0 100.0 L 215.0 101.0 L 215.0 102.0 L 215.0 104.0 L 215.0 105.0 L 215.0 106.0 L 215.0 107.0 L 215.0 108.0 L 215.0 109.0 L 215.0 111.0 L 215.0 112.0 L 215.0 113.0 L 215.0 114.0 L 215.0 115.0 L 215.0 117.0 L 215.0 118.0 L 215.0 119.0 L 215.0 120.0 L 215.0 121.0 L 215.0 122.0 L 215.0 124.0 L 215.0 125.0 L 215.0 126.0 L 215.0 127.0 L 215.0 128.0 L 215.0 129.0 L 215.0 131.0 L 215.0 132.0 L 215.0 133.0 L 215.0 134.0 L 214.0 136.0 L 214.0 137.0 L 214.0 138.0 L 214.0 140.0 L 214.0 141.0 L 214.0 142.0 L 214.0 143.0 L 214.0 144.0 L 213.0 145.0 L 213.0 146.0 L 213.0 147.0 L 213.0 148.0 L 213.0 149.0 L 213.0 150.0 L 213.0 150.0 L 213.0 151.0 L 213.0 152.0 L 212.0 152.0 L 212.0 153.0 L 212.0 153.0 L 212.0 154.0 L 212.0 154.0 L 212.0 154.0 L 212.0 154.0 L 212.0 154.0 L 212.0 154.0 L 212.0 154.0 L 212.0 153.0 L 212.0 152.0 L 212.0 152.0 " stroke="black" fill="none" stroke-width="5.0" stroke-linecap="round" stroke-linejoin="round" />
<path d="M 64.0 119.0 L 64.0 119.0 L 64.0 119.0 L 64.0 119.0 L 64.0 119.0 L 64.0 119.0 L 64.0 118.0 L 64.0 118.0 L 64.0 118.0 L 64.0 118.0 L 64.0 118.0 L 64.0 118.0 L 64.0 118.0 L 64.0 118.0 L 64.0 118.0 L 64.0 118.0 L 65.0 118.0 L 65.0 118.0 L 65.0 118.0 L 66.0 118.0 L 66.0 118.0 L 67.0 118.0 L 67.0 118.0 L 68.0 118.0 L 69.0 118.0 L 69.0 118.0 L 70.0 118.0 L 71.0 118.0 L 72.0 118.0 L 73.0 118.0 L 74.0 118.0 L 75.0 118.0 L 76.0 118.0 L 77.0 118.0 L 78.0 118.0 L 80.0 118.0 L 81.0 118.0 L 83.0 118.0 L 84.0 118.0 L 86.0 118.0 L 87.0 118.0 L 89.0 118.0 L 90.0 118.0 L 91.0 118.0 L 92.0 118.0 L 94.0 118.0 L 95.0 118.0 L 96.0 118.0 L 97.0 118.0 L 98.0 118.0 L 99.0 118.0 L 100.0 118.0 L 101.0 118.0 L 102.0 118.0 L 103.0 118.0 L 104.0 118.0 L 105.0 118.0 L 105.0 118.0 L 106.0 118.0 L 107.0 118.0 L 108.0 118.0 L 108.0 118.0 L 109.0 118.0 L 110.0 118.0 L 111.0 118.0 L 112.0 118.0 L 112.0 118.0 L 113.0 118.0 L 114.0 118.0 L 115.0 118.0 L 116.0 118.0 L 117.0 118.0 L 118.0 118.0 L 118.0 118.0 L 119.0 118.0 L 120.0 118.0 L 121.0 118.0 L 122.0 118.0 L 123.0 118.0 L 124.0 118.0 L 125.0 118.0 L 126.0 118.0 L 127.0 118.0 L 128.0 118.0 L 129.0 118.0 L 130.0 118.0 L 131.0 118.0 L 132.0 118.0 L 133.0 118.0 L 134.0 118.0 L 134.0 118.0 L 135.0 118.0 L 136.0 118.0 L 137.0 118.0 L 138.0 118.0 L 139.0 118.0 L 139.0 118.0 L 140.0 118.0 L 141.0 118.0 L 142.0 118.0 L 142.0 118.0 L 143.0 118.0 L 144.0 118.0 L 144.0 118.0 L 145.0 118.0 L 145.0 118.0 L 146.0 118.0 L 147.0 118.0 L 147.0 118.0 L 148.0 118.0 L 148.0 118.0 L 149.0 118.0 L 150.0 118.0 L 150.0 118.0 L 151.0 118.0 L 152.0 118.0 L 152.0 118.0 L 153.0 118.0 L 154.0 118.0 L 154.0 118.0 L 155.0 118.0 L 156.0 118.0 L 157.0 118.0 L 158.0 118.0 L 159.0 118.0 L 160.0 118.0 L 161.0 118.0 L 163.0 118.0 L 164.0 118.0 L 166.0 118.0 L 167.0 117.0 L 169.0 117.0 L 171.0 117.0 L 172.0 117.0 L 174.0 116.0 L 176.0 116.0 L 177.0 116.0 L 179.0 116.0 L 180.0 116.0 L 181.0 116.0 L 183.0 115.0 L 184.0 115.0 L 185.0 115.0 L 186.0 115.0 L 186.0 115.0 L 187.0 115.0 L 188.0 115.0 L 189.0 115.0 L 189.0 115.0 L 190.0 115.0 L 190.0 115.0 L 190.0 115.0 L 191.0 115.0 L 191.0 115.0 L 191.0 115.0 L 192.0 115.0 L 192.0 115.0 L 193.0 115.0 L 193.0 115.0 L 193.0 115.0 L 194.0 115.0 L 194.0 115.0 L 194.0 115.0 L 195.0 115.0 L 195.0 115.0 L 195.0 115.0 L 196.0 115.0 L 196.0 115.0 L 196.0 115.0 L 197.0 115.0 L 197.0 115.0 L 198.0 115.0 L 198.0 115.0 L 198.0 115.0 L 199.0 115.0 L 199.0 115.0 L 200.0 115.0 L 200.0 115.0 L 200.0 115.0 L 201.0 115.0 L 201.0 115.0 L 202.0 115.0 L 202.0 115.0 L 202.0 115.0 L 203.0 115.0 L 203.0 115.0 L 204.0 115.0 L 204.0 115.0 L 205.0 115.0 L 205.0 115.0 L 206.0 115.0 L 206.0 115.0 L 207.0 115.0 L 208.0 115.0 L 208.0 115.0 L 209.0 115.0 L 210.0 115.0 L 210.0 115.0 L 211.0 115.0 L 212.0 115.0 L 213.0 115.0 L 214.0 115.0 L 215.0 115.0 L 216.0 115.0 L 217.0 115.0 L 218.0 115.0 L 219.0 114.0 L 220.0 114.0 L 221.0 114.0 L 222.0 114.0 L 223.0 114.0 L 224.0 114.0 L 225.0 114.0 L 225.0 114.0 L 226.0 114.0 L 227.0 114.0 L 228.0 114.0 L 229.0 114.0 L 229.0 114.0 L 230.0 114.0 L 231.0 114.0 L 231.0 114.0 L 232.0 114.0 L 233.0 114.0 L 233.0 114.0 L 234.0 114.0 L 234.0 114.0 L 235.0 114.0 L 235.0 114.0 L 236.0 114.0 L 237.0 114.0 L 237.0 114.0 L 238.0 113.0 L 238.0 113.0 L 239.0 113.0 L 240.0 113.0 L 240.0 113.0 L 241.0 113.0 L 241.0 113.0 L 242.0 113.0 L 242.0 113.0 L 242.0 113.0 " stroke="black" fill="none" stroke-width="5.0" stroke-linecap="round" stroke-linejoin="round" />
<path d="M 84.0 157.0 L 84.0 157.0 L 84.0 157.0 L 84.0 157.0 L 84.0 157.0 L 85.0 156.0 L 85.0 156.0 L 85.0 156.0 L 86.0 156.0 L 86.0 156.0 L 87.0 156.0 L 87.0 156.0 L 88.0 156.0 L 89.0 156.0 L 90.0 156.0 L 91.0 156.0 L 91.0 156.0 L 93.0 156.0 L 94.0 156.0 L 95.0 156.0 L 96.0 156.0 L 97.0 156.0 L 98.0 156.0 L 100.0 156.0 L 101.0 156.0 L 102.0 156.0 L 103.0 156.0 L 105.0 156.0 L 106.0 156.0 L 107.0 156.0 L 109.0 156.0 L 110.0 156.0 L 112.0 156.0 L 113.0 156.0 L 115.0 156.0 L 116.0 156.0 L 118.0 156.0 L 119.0 156.0 L 121.0 156.0 L 123.0 156.0 L 124.0 156.0 L 126.0 156.0 L 128.0 156.0 L 129.0 156.0 L 131.0 156.0 L 132.0 156.0 L 133.0 157.0 L 135.0 157.0 L 136.0 157.0 L 137.0 157.0 L 138.0 158.0 L 139.0 158.0 L 139.0 158.0 L 140.0 158.0 L 141.0 158.0 L 142.0 158.0 L 142.0 159.0 L 143.0 159.0 L 144.0 159.0 L 144.0 159.0 L 145.0 159.0 L 146.0 159.0 L 146.0 159.0 L 147.0 159.0 L 147.0 159.0 L 148.0 159.0 L 149.0 159.0 L 149.0 159.0 L 150.0 159.0 L 151.0 159.0 L 152.0 159.0 L 152.0 159.0 L 153.0 159.0 L 153.0 159.0 L 154.0 159.0 L 155.0 159.0 L 155.0 159.0 L 156.0 159.0 L 157.0 159.0 L 158.0 159.0 L 158.0 159.0 L 159.0 159.0 L 160.0 159.0 L 161.0 159.0 L 161.0 159.0 L 162.0 159.0 L 163.0 159.0 L 164.0 159.0 L 164.0 159.0 L 165.0 159.0 L 166.0 159.0 L 167.0 159.0 L 168.0 159.0 L 169.0 159.0 L 170.0 159.0 L 171.0 159.0 L 172.0 159.0 L 173.0 158.0 L 175.0 158.0 L 176.0 158.0 L 177.0 158.0 L 178.0 158.0 L 179.0 158.0 L 180.0 158.0 L 181.0 158.0 L 182.0 158.0 L 183.0 158.0 L 184.0 158.0 L 185.0 158.0 L 186.0 158.0 L 187.0 158.0 L 188.0 158.0 L 189.0 158.0 L 190.0 158.0 L 191.0 158.0 L 191.0 158.0 L 192.0 157.0 L 193.0 157.0 L 194.0 157.0 L 194.0 157.0 L 195.0 157.0 L 196.0 157.0 L 197.0 157.0 L 197.0 157.0 L 198.0 157.0 L 199.0 156.0 L 200.0 156.0 L 201.0 156.0 L 202.0 156.0 L 203.0 156.0 L 204.0 156.0 L 205.0 155.0 L 207.0 155.0 L 208.0 155.0 L 209.0 154.0 L 210.0 154.0 L 211.0 154.0 L 212.0 153.0 L 213.0 153.0 L 213.0 153.0 " stroke="black" fill="none" stroke-width="5.0" stroke-linecap="round" stroke-linejoin="round" />
<path d="M 142.0 81.0 L 142.0 81.0 L 142.0 81.0 L 142.0 81.0 L 142.0 82.0 L 142.0 82.0 L 142.0 82.0 L 142.0 82.0 L 142.0 83.0 L 142.0 83.0 L 142.0 83.0 L 142.0 84.0 L 142.0 84.0 L 142.0 85.0 L 142.0 85.0 L 142.0 86.0 L 142.0 87.0 L 142.0 89.0 L 142.0 90.0 L 142.0 92.0 L 142.0 94.0 L 142.0 97.0 L 142.0 99.0 L 141.0 102.0 L 141.0 104.0 L 140.0 106.0 L 139.0 108.0 L 139.0 111.0 L 139.0 112.0 L 138.0 114.0 L 137.0 116.0 L 137.0 117.0 L 136.0 119.0 L 136.0 121.0 L 135.0 122.0 L 134.0 123.0 L 134.0 125.0 L 133.0 126.0 L 133.0 127.0 L 133.0 128.0 L 132.0 129.0 L 132.0 130.0 L 132.0 131.0 L 131.0 132.0 L 130.0 133.0 L 130.0 134.0 L 129.0 135.0 L 129.0 137.0 L 128.0 138.0 L 127.0 140.0 L 127.0 141.0 L 126.0 143.0 L 126.0 144.0 L 125.0 145.0 L 125.0 147.0 L 124.0 148.0 L 124.0 150.0 L 123.0 151.0 L 123.0 153.0 L 123.0 154.0 L 122.0 155.0 L 121.0 157.0 L 121.0 159.0 L 120.0 160.0 L 119.0 162.0 L 119.0 164.0 L 118.0 165.0 L 117.0 167.0 L 117.0 168.0 L 116.0 170.0 L 115.0 171.0 L 115.0 172.0 L 114.0 174.0 L 113.0 175.0 L 113.0 176.0 L 112.0 178.0 L 111.0 179.0 L 110.0 181.0 L 110.0 182.0 L 109.0 184.0 L 108.0 186.0 L 108.0 187.0 L 107.0 189.0 L 107.0 190.0 L 106.0 192.0 L 105.0 194.0 L 105.0 195.0 L 104.0 196.0 L 103.0 198.0 L 102.0 199.0 L 101.0 200.0 L 100.0 202.0 L 99.0 203.0 L 97.0 205.0 L 96.0 206.0 L 94.0 208.0 L 92.0 209.0 L 91.0 211.0 L 89.0 212.0 L 87.0 213.0 L 86.0 215.0 L 84.0 216.0 L 82.0 217.0 L 80.0 218.0 L 78.0 220.0 L 77.0 221.0 L 75.0 222.0 L 73.0 223.0 L 72.0 224.0 L 71.0 225.0 L 69.0 226.0 L 68.0 227.0 L 68.0 227.0 L 68.0 227.0 L 68.0 227.0 " stroke="black" fill="none" stroke-width="5.0" stroke-linecap="round" stroke-linejoin="round" />
<path d="M 109.0 192.0 L 109.0 192.0 L 109.0 192.0 L 109.0 192.0 L 109.0 192.0 L 108.0 193.0 L 108.0 193.0 L 108.0 193.0 L 108.0 194.0 L 107.0 195.0 L 107.0 195.0 L 107.0 196.0 L 107.0 198.0 L 107.0 199.0 L 107.0 201.0 L 107.0 204.0 L 107.0 206.0 L 107.0 210.0 L 107.0 213.0 L 107.0 217.0 L 107.0 222.0 L 107.0 226.0 L 107.0 231.0 L 107.0 235.0 L 107.0 238.0 L 107.0 241.0 L 107.0 244.0 L 107.0 245.0 L 107.0 246.0 L 107.0 247.0 L 107.0 247.0 L 107.0 247.0 L 107.0 246.0 L 108.0 245.0 " stroke="black" fill="none" stroke-width="5.0" stroke-linecap="round" stroke-linejoin="round" />
<path d="M 113.0 188.0 L 113.0 188.0 L 113.0 188.0 L 113.0 188.0 L 113.0 188.0 L 113.0 188.0 L 113.0 188.0 L 113.0 188.0 L 113.0 188.0 L 113.0 188.0 L 113.0 188.0 L 113.0 188.0 L 113.0 188.0 L 113.0 188.0 L 113.0 188.0 L 113.0 188.0 L 113.0 188.0 L 113.0 188.0 L 113.0 188.0 L 114.0 188.0 L 115.0 188.0 L 116.0 188.0 L 116.0 188.0 L 118.0 188.0 L 119.0 188.0 L 120.0 188.0 L 121.0 188.0 L 123.0 188.0 L 124.0 188.0 L 125.0 188.0 L 127.0 188.0 L 128.0 188.0 L 130.0 188.0 L 131.0 188.0 L 132.0 188.0 L 134.0 188.0 L 135.0 188.0 L 136.0 189.0 L 138.0 189.0 L 139.0 189.0 L 140.0 189.0 L 141.0 189.0 L 142.0 189.0 L 143.0 189.0 L 143.0 189.0 L 144.0 189.0 L 145.0 189.0 L 146.0 189.0 L 146.0 189.0 L 147.0 189.0 L 148.0 189.0 L 148.0 189.0 L 149.0 189.0 L 149.0 189.0 L 150.0 189.0 L 151.0 189.0 L 151.0 189.0 L 152.0 189.0 L 152.0 189.0 L 153.0 189.0 L 153.0 189.0 L 154.0 189.0 L 154.0 189.0 L 155.0 189.0 L 155.0 189.0 L 156.0 189.0 L 157.0 189.0 L 158.0 188.0 L 158.0 188.0 L 159.0 188.0 L 160.0 188.0 L 161.0 188.0 L 162.0 188.0 L 162.0 188.0 L 163.0 188.0 L 164.0 188.0 L 165.0 188.0 L 166.0 187.0 L 167.0 187.0 L 168.0 187.0 L 169.0 187.0 L 170.0 187.0 L 171.0 187.0 L 171.0 187.0 L 173.0 187.0 L 173.0 187.0 L 175.0 187.0 L 175.0 187.0 L 177.0 187.0 L 178.0 187.0 L 178.0 187.0 L 180.0 187.0 L 180.0 187.0 L 181.0 187.0 L 182.0 187.0 L 183.0 187.0 L 184.0 187.0 L 185.0 187.0 L 186.0 187.0 L 187.0 187.0 L 188.0 187.0 L 188.0 187.0 L 189.0 187.0 L 190.0 187.0 L 190.0 187.0 L 191.0 187.0 L 192.0 187.0 L 192.0 187.0 L 193.0 187.0 L 194.0 187.0 L 194.0 187.0 L 195.0 187.0 L 195.0 187.0 L 196.0 187.0 L 196.0 187.0 L 197.0 187.0 L 197.0 187.0 L 198.0 187.0 L 198.0 187.0 L 199.0 187.0 L 200.0 187.0 L 200.0 187.0 L 201.0 187.0 L 202.0 187.0 L 202.0 187.0 L 203.0 187.0 L 203.0 187.0 L 204.0 187.0 L 205.0 187.0 L 205.0 187.0 L 206.0 187.0 L 206.0 187.0 L 207.0 187.0 L 208.0 187.0 L 208.0 187.0 L 209.0 187.0 L 209.0 187.0 L 210.0 187.0 L 211.0 188.0 L 211.0 188.0 L 212.0 188.0 L 213.0 188.0 L 214.0 188.0 L 214.0 188.0 L 215.0 188.0 L 216.0 189.0 L 216.0 189.0 L 217.0 189.0 L 217.0 189.0 L 218.0 189.0 L 218.0 190.0 L 219.0 190.0 L 219.0 190.0 L 219.0 190.0 L 219.0 191.0 L 219.0 191.0 L 219.0 191.0 L 219.0 192.0 L 219.0 193.0 L 219.0 194.0 L 219.0 195.0 L 219.0 196.0 L 219.0 198.0 L 219.0 199.0 L 219.0 201.0 L 219.0 203.0 L 219.0 206.0 L 219.0 208.0 L 219.0 211.0 L 219.0 213.0 L 219.0 216.0 L 219.0 218.0 L 219.0 220.0 L 220.0 223.0 L 220.0 225.0 L 220.0 227.0 L 220.0 229.0 L 220.0 231.0 L 220.0 232.0 L 220.0 234.0 L 220.0 235.0 L 220.0 237.0 L 220.0 238.0 L 220.0 239.0 L 220.0 241.0 L 220.0 242.0 L 219.0 243.0 L 219.0 244.0 L 219.0 245.0 L 219.0 246.0 L 219.0 247.0 L 219.0 248.0 L 219.0 248.0 L 219.0 249.0 L 219.0 249.0 " stroke="black" fill="none" stroke-width="5.0" stroke-linecap="round" stroke-linejoin="round" />
<path d="M 111.0 241.0 L 111.0 241.0 L 111.0 241.0 L 111.0 241.0 L 111.0 241.0 L 111.0 241.0 L 111.0 241.0 L 111.0 241.0 L 111.0 241.0 L 111.0 241.0 L 111.0 241.0 L 111.0 242.0 L 111.0 242.0 L 111.0 242.0 L 111.0 242.0 L 111.0 242.0 L 112.0 242.0 L 112.0 242.0 L 113.0 242.0 L 114.0 242.0 L 116.0 242.0 L 118.0 242.0 L 120.0 242.0 L 122.0 242.0 L 124.0 242.0 L 126.0 242.0 L 128.0 242.0 L 130.0 242.0 L 133.0 242.0 L 134.0 242.0 L 136.0 242.0 L 138.0 242.0 L 139.0 242.0 L 141.0 242.0 L 142.0 242.0 L 143.0 242.0 L 144.0 242.0 L 146.0 242.0 L 147.0 242.0 L 147.0 242.0 L 148.0 242.0 L 149.0 242.0 L 150.0 242.0 L 151.0 242.0 L 152.0 242.0 L 152.0 242.0 L 153.0 242.0 L 154.0 243.0 L 155.0 243.0 L 156.0 243.0 L 157.0 243.0 L 158.0 243.0 L 158.0 243.0 L 160.0 243.0 L 160.0 243.0 L 162.0 243.0 L 163.0 243.0 L 164.0 243.0 L 165.0 243.0 L 166.0 243.0 L 168.0 243.0 L 169.0 243.0 L 170.0 243.0 L 172.0 243.0 L 173.0 243.0 L 174.0 243.0 L 176.0 243.0 L 177.0 243.0 L 178.0 243.0 L 179.0 243.0 L 180.0 242.0 L 181.0 242.0 L 182.0 242.0 L 183.0 242.0 L 183.0 242.0 L 184.0 242.0 L 185.0 242.0 L 185.0 242.0 L 186.0 242.0 L 186.0 242.0 L 187.0 242.0 L 187.0 242.0 L 188.0 242.0 L 188.0 242.0 L 189.0 242.0 L 189.0 242.0 L 190.0 242.0 L 190.0 242.0 L 191.0 242.0 L 191.0 243.0 L 192.0 243.0 L 192.0 243.0 L 193.0 243.0 L 193.0 244.0 L 194.0 244.0 L 195.0 244.0 L 195.0 244.0 L 196.0 244.0 L 197.0 245.0 L 198.0 245.0 L 198.0 245.0 L 199.0 245.0 L 200.0 245.0 L 201.0 245.0 L 201.0 245.0 L 202.0 245.0 L 203.0 245.0 L 204.0 246.0 L 205.0 246.0 L 206.0 246.0 L 207.0 246.0 L 207.0 246.0 L 208.0 246.0 L 209.0 246.0 L 210.0 246.0 L 211.0 246.0 L 211.0 246.0 L 212.0 245.0 " stroke="black" fill="none" stroke-width="5.0" stroke-linecap="round" stroke-linejoin="round" />
</svg>