<svg xmlns="http://www.w3.org/2000/svg" width="300" height="300" viewBox="0 0 300 300">
<path d="M 83.0 86.0 L 83.0 86.0 L 83.0 86.0 L 83.0 86.0 L 83.0 86.0 L 83.0 86.0 L 83.0 86.0 L 83.0 86.0 L 83.0 86.0 L 83.0 86.0 L 83.0 86.0 L 82.0 86.0 L 82.0 86.0 L 82.0 86.0 L 82.0 85.0 L 82.0 85.0 L 82.0 85.0 L 82.0 85.0 L 83.0 85.0 L 83.0 85.0 L 83.0 84.0 L 84.0 84.0 L 85.0 84.0 L 85.0 84.0 L 86.0 84.0 L 87.0 84.0 L 88.0 84.0 L 89.0 84.0 L 89.0 84.0 L 90.0 84.0 L 91.0 84.0 L 92.0 84.0 L 93.0 84.0 L 94.0 84.0 L 95.0 84.0 L 95.0 84.0 L 96.0 84.0 L 97.0 84.0 L 97.0 84.0 L 98.0 84.0 L 98.0 84.0 L 99.0 84.0 L 100.0 84.0 L 100.0 84.0 L 101.0 84.0 L 101.0 85.0 L 102.0 85.0 L 102.0 85.0 L 103.0 85.0 L 103.0 85.0 L 104.0 85.0 L 104.0 85.0 L 105.0 85.0 L 105.0 85.0 L 105.0 85.0 L 106.0 85.0 L 106.0 85.0 L 107.0 85.0 L 107.0 85.0 L 107.0 85.0 L 108.0 85.0 L 108.0 85.0 L 109.0 85.0 L 109.0 85.0 L 109.0 85.0 L 110.0 85.0 L 110.0 85.0 L 111.0 85.0 L 111.0 85.0 L 112.0 85.0 L 112.0 85.0 L 112.0 85.0 L 113.0 85.0 L 113.0 85.0 L 114.0 85.0 L 114.0 85.0 L 115.0 85.0 L 115.0 85.0 L 115.0 85.0 L 116.0 85.0 L 116.0 85.0 L 117.0 85.0 L 117.0 85.0 L 118.0 85.0 L 119.0 85.0 L 119.0 85.0 L 120.0 85.0 L 120.0 85.0 L 121.0 85.0 L 122.0 85.0 L 122.0 85.0 L 123.0 85.0 L 123.0 85.0 L 124.0 85.0 L 124.0 85.0 L 125.0 85.0 L 125.0 85.0 L 126.0 85.0 L 126.0 85.0 L 127.0 85.0 L 128.0 85.0 L 128.0 85.0 L 129.0 85.0 L 129.0 85.0 L 130.0 85.0 L 130.0 85.0 L 131.0 85.0 L 131.0 85.0 L 132.0 85.0 L 133.0 85.0 L 133.0 85.0 L 134.0 85.0 L 134.0 85.0 L 135.0 85.0 L 136.0 85.0 L 136.0 85.0 L 137.0 85.0 L 137.0 85.0 L 138.0 85.0 L 138.0 85.0 L 139.0 85.0 L 139.0 85.0 L 140.0 85.0 L 141.0 85.0 L 141.0 85.0 L 142.0 85.0 L 142.0 85.0 L 143.0 85.0 L 143.0 85.0 L 144.0 85.0 L 144.0 85.0 L 145.0 85.0 L 145.0 85.0 L 146.0 85.0 L 146.0 85.0 L 147.0 85.0 L 147.0 85.0 L 147.0 85.0 L 148.0 85.0 L 148.0 85.0 L 149.0 84.0 L 149.0 84.0 L 149.0 84.0 L 150.0 84.0 L 150.0 84.0 L 150.0 84.0 L 151.0 84.0 L 151.0 84.0 L 151.0 84.0 L 152.0 84.0 L 152.0 84.0 L 152.0 84.0 L 153.0 84.0 L 153.0 84.0 L 153.0 84.0 L 154.0 84.0 L 154.0 84.0 L 154.0 84.0 L 155.0 84.0 L 155.0 84.0 L 155.0 84.0 L 156.0 84.0 L 156.0 84.0 L 157.0 84.0 L 157.0 84.0 L 158.0 84.0 L 158.0 84.0 L 158.0 84.0 L 159.0 84.0 L 159.0 84.0 L 160.0 85.0 L 160.0 85.0 L 161.0 85.0 L 162.0 85.0 L 162.0 85.0 L 163.0 85.0 L 163.0 85.0 L 164.0 85.0 L 165.0 85.0 L 165.0 85.0 L 166.0 85.0 L 166.0 85.0 L 167.0 85.0 L 168.0 85.0 L 168.0 85.0 L 169.0 85.0 L 169.0 85.0 L 170.0 85.0 L 170.0 85.0 L 171.0 85.0 L 172.0 85.0 L 172.0 85.0 L 173.0 85.0 L 173.0 85.0 L 174.0 85.0 L 175.0 85.0 L 175.0 85.0 L 176.0 85.0 L 176.0 85.0 L 177.0 85.0 L 177.0 85.0 L 178.0 85.0 L 179.0 85.0 L 180.0 85.0 L 180.0 85.0 L 181.0 85.0 L 182.0 85.0 L 183.0 85.0 L 183.0 85.0 L 184.0 85.0 L 185.0 85.0 L 185.0 85.0 L 186.0 85.0 L 187.0 86.0 L 187.0 86.0 L 188.0 86.0 L 188.0 86.0 L 189.0 86.0 L 189.0 86.0 L 190.0 86.0 L 190.0 86.0 L 190.0 86.0 L 191.0 86.0 L 191.0 86.0 L 191.0 86.0 L 192.0 86.0 L 192.0 86.0 L 193.0 86.0 L 193.0 86.0 L 193.0 86.0 L 193.0 86.0 L 194.0 86.0 L 194.0 86.0 L 194.0 86.0 L 195.0 86.0 L 195.0 86.0 L 195.0 86.0 L 196.0 86.0 L 196.0 86.0 L 196.0 86.0 L 196.0 86.0 L 197.0 86.0 L 197.0 86.0 L 197.0 86.0 L 198.0 86.0 L 198.0 86.0 L 198.0 86.0 L 198.0 86.0 L 199.0 86.0 L 199.0 86.0 L 199.0 86.0 L 199.0 86.0 L 200.0 86.0 L 200.0 86.0 L 200.0 86.0 L 201.0 86.0 L 201.0 86.0 L 201.0 86.0 L 201.0 86.0 L 202.0 86.0 L 202.0 86.0 L 202.0 86.0 L 203.0 86.0 L 203.0 86.0 L 203.0 86.0 L 203.0 86.0 L 204.0 86.0 L 204.0 86.0 L 204.0 86.0 L 205.0 86.0 L 205.0 86.0 L 205.0 86.0 L 205.0 86.0 L 206.0 86.0 L 206.0 86.0 L 206.0 86.0 L 207.0 86.0 L 207.0 86.0 L 207.0 86.0 L 208.0 86.0 L 208.0 86.0 L 208.0 86.0 L 209.0 86.0 L 209.0 86.0 L 209.0 86.0 L 209.0 86.0 L 210.0 86.0 L 210.0 86.0 L 210.0 86.0 L 210.0 86.0 L 211.0 86.0 L 211.0 86.0 L 211.0 87.0 L 211.0 87.0 L 211.0 87.0 L 211.0 87.0 L 211.0 87.0 L 212.0 87.0 L 212.0 87.0 L 212.0 88.0 L 212.0 88.0 L 212.0 88.0 L 212.0 88.0 L 212.0 89.0 L 212.0 89.0 L 212.0 89.0 L 212.0 89.0 L 212.0 90.0 L 212.0 90.0 L 212.0 91.0 L 212.0 91.0 L 212.0 92.0 L 213.0 93.0 L 213.0 93.0 L 213.0 95.0 L 213.0 96.0 L 213.0 97.0 L 213.0 99.0 L 213.0 100.0 L 213.0 102.0 L 213.0 104.0 L 213.0 106.0 L 213.0 107.0 L 213.0 109.0 L 213.0 111.0 L 212.0 112.0 L 212.0 113.0 L 212.0 115.0 L 212.0 116.0 L 212.0 117.0 L 212.0 118.0 L 212.0 119.0 L 212.0 120.0 L 212.0 121.0 L 212.0 123.0 L 213.0 123.0 L 213.0 125.0 L 213.0 126.0 L 213.0 127.0 L 213.0 128.0 L 213.0 129.0 L 213.0 130.0 L 213.0 131.0 L 213.0 132.0 L 213.0 134.0 L 213.0 135.0 L 213.0 136.0 L 213.0 137.0 L 213.0 138.0 L 213.0 139.0 L 213.0 141.0 L 213.0 142.0 L 213.0 143.0 L 213.0 144.0 L 213.0 146.0 L 213.0 147.0 L 213.0 148.0 L 213.0 149.0 L 213.0 150.0 L 213.0 151.0 L 213.0 152.0 L 213.0 153.0 L 213.0 154.0 L 213.0 154.0 L 213.0 155.0 L 213.0 155.0 L 213.0 155.0 L 213.0 156.0 L 214.0 156.0 L 214.0 156.0 L 214.0 156.0 L 215.0 156.0 L 215.0 156.0 L 216.0 156.0 L 216.0 156.0 L 216.0 156.0 " stroke="black" fill="none" stroke-width="5.0" stroke-linecap="round" stroke-linejoin="round" />
<path d="M 63.0 122.0 L 63.0 122.0 L 63.0 122.0 L 63.0 122.0 L 63.0 122.0 L 63.0 122.0 L 63.0 122.0 L 63.0 122.0 L 63.0 122.0 L 63.0 122.0 L 63.0 122.0 L 63.0 122.0 L 63.0 122.0 L 63.0 122.0 L 63.0 121.0 L 63.0 121.0 L 63.0 121.0 L 63.0 121.0 L 63.0 121.0 L 63.0 121.0 L 63.0 121.0 L 63.0 121.0 L 64.0 121.0 L 64.0 121.0 L 64.0 121.0 L 65.0 121.0 L 65.0 121.0 L 66.0 121.0 L 66.0 121.0 L 67.0 121.0 L 67.0 121.0 L 68.0 121.0 L 68.0 121.0 L 69.0 121.0 L 69.0 121.0 L 70.0 121.0 L 71.0 121.0 L 71.0 121.0 L 72.0 121.0 L 73.0 121.0 L 74.0 121.0 L 74.0 121.0 L 75.0 121.0 L 76.0 122.0 L 77.0 122.0 L 79.0 122.0 L 80.0 122.0 L 81.0 122.0 L 82.0 122.0 L 83.0 122.0 L 84.0 122.0 L 86.0 122.0 L 87.0 122.0 L 88.0 122.0 L 89.0 122.0 L 90.0 122.0 L 91.0 122.0 L 92.0 122.0 L 93.0 122.0 L 94.0 122.0 L 95.0 122.0 L 96.0 122.0 L 97.0 122.0 L 98.0 122.0 L 99.0 122.0 L 100.0 122.0 L 101.0 122.0 L 102.0 122.0 L 103.0 122.0 L 103.0 122.0 L 104.0 122.0 L 105.0 122.0 L 105.0 122.0 L 106.0 122.0 L 107.0 122.0 L 107.0 122.0 L 108.0 122.0 L 108.0 122.0 L 109.0 122.0 L 110.0 122.0 L 110.0 122.0 L 111.0 122.0 L 112.0 122.0 L 113.0 122.0 L 114.0 122.0 L 115.0 122.0 L 116.0 122.0 L 117.0 122.0 L 118.0 122.0 L 118.0 122.0 L 119.0 122.0 L 121.0 122.0 L 121.0 122.0 L 123.0 122.0 L 124.0 122.0 L 125.0 122.0 L 126.0 122.0 L 127.0 122.0 L 129.0 122.0 L 130.0 122.0 L 131.0 122.0 L 132.0 122.0 L 133.0 122.0 L 134.0 122.0 L 135.0 122.0 L 136.0 122.0 L 137.0 122.0 L 138.0 122.0 L 139.0 122.0 L 140.0 122.0 L 140.0 122.0 L 141.0 122.0 L 142.0 122.0 L 142.0 122.0 L 143.0 122.0 L 144.0 122.0 L 144.0 122.0 L 145.0 122.0 L 146.0 122.0 L 146.0 122.0 L 147.0 122.0 L 147.0 122.0 L 148.0 122.0 L 149.0 122.0 L 149.0 122.0 L 150.0 122.0 L 150.0 122.0 L 150.0 122.0 L 151.0 122.0 L 152.0 122.0 L 152.0 122.0 L 152.0 122.0 L 153.0 122.0 L 153.0 122.0 L 154.0 122.0 L 154.0 122.0 L 155.0 122.0 L 155.0 122.0 L 156.0 122.0 L 156.0 122.0 L 157.0 122.0 L 157.0 122.0 L 158.0 122.0 L 158.0 122.0 L 159.0 122.0 L 160.0 122.0 L 160.0 122.0 L 161.0 122.0 L 162.0 122.0 L 162.0 122.0 L 163.0 122.0 L 163.0 122.0 L 164.0 122.0 L 165.0 122.0 L 165.0 122.0 L 166.0 122.0 L 167.0 122.0 L 168.0 122.0 L 168.0 122.0 L 169.0 122.0 L 169.0 122.0 L 170.0 122.0 L 171.0 122.0 L 172.0 122.0 L 172.0 122.0 L 173.0 122.0 L 174.0 122.0 L 174.0 122.0 L 175.0 122.0 L 176.0 122.0 L 176.0 122.0 L 177.0 122.0 L 178.0 122.0 L 178.0 122.0 L 179.0 122.0 L 179.0 122.0 L 180.0 122.0 L 180.0 122.0 L 181.0 122.0 L 182.0 122.0 L 182.0 122.0 L 183.0 122.0 L 183.0 122.0 L 184.0 122.0 L 185.0 122.0 L 185.0 122.0 L 186.0 122.0 L 186.0 122.0 L 187.0 122.0 L 187.0 122.0 L 188.0 122.0 L 188.0 122.0 L 189.0 122.0 L 189.0 122.0 L 190.0 122.0 L 191.0 122.0 L 191.0 122.0 L 191.0 122.0 L 192.0 122.0 L 192.0 122.0 L 193.0 122.0 L 193.0 122.0 L 194.0 122.0 L 194.0 122.0 L 194.0 122.0 L 195.0 122.0 L 195.0 122.0 L 195.0 122.0 L 196.0 122.0 L 196.0 122.0 L 196.0 122.0 L 196.0 122.0 L 197.0 122.0 L 197.0 121.0 L 197.0 121.0 L 198.0 121.0 L 198.0 121.0 L 198.0 121.0 L 198.0 121.0 L 199.0 121.0 L 199.0 121.0 L 200.0 121.0 L 200.0 121.0 L 200.0 121.0 L 201.0 121.0 L 201.0 121.0 L 201.0 121.0 L 202.0 121.0 L 202.0 121.0 L 202.0 121.0 L 203.0 121.0 L 203.0 121.0 L 204.0 121.0 L 204.0 121.0 L 204.0 121.0 L 205.0 121.0 L 205.0 121.0 L 205.0 121.0 L 206.0 121.0 L 206.0 121.0 L 207.0 121.0 L 207.0 121.0 L 208.0 121.0 L 209.0 121.0 L 209.0 121.0 L 210.0 121.0 L 210.0 121.0 L 211.0 120.0 L 211.0 120.0 L 212.0 120.0 L 212.0 120.0 L 213.0 120.0 L 214.0 120.0 L 214.0 120.0 L 215.0 120.0 L 215.0 120.0 L 216.0 120.0 L 216.0 120.0 L 217.0 120.0 L 217.0 120.0 L 218.0 120.0 L 219.0 120.0 L 219.0 120.0 L 220.0 120.0 L 220.0 120.0 L 221.0 120.0 L 221.0 120.0 L 222.0 120.0 L 223.0 120.0 L 223.0 120.0 L 224.0 120.0 L 224.0 120.0 L 225.0 120.0 L 226.0 120.0 L 226.0 120.0 L 227.0 120.0 L 227.0 120.0 L 228.0 120.0 L 228.0 120.0 L 229.0 120.0 L 229.0 120.0 L 230.0 120.0 L 230.0 120.0 L 231.0 120.0 L 231.0 120.0 L 232.0 120.0 L 232.0 120.0 L 232.0 120.0 L 233.0 120.0 L 234.0 120.0 L 234.0 120.0 L 235.0 120.0 L 235.0 120.0 L 236.0 120.0 L 236.0 120.0 L 237.0 120.0 L 237.0 120.0 L 238.0 120.0 L 238.0 120.0 L 239.0 120.0 L 239.0 120.0 L 240.0 120.0 L 240.0 120.0 L 240.0 120.0 L 241.0 120.0 L 241.0 120.0 L 241.0 120.0 L 242.0 120.0 L 242.0 120.0 L 242.0 120.0 " stroke="black" fill="none" stroke-width="5.0" stroke-linecap="round" stroke-linejoin="round" />
<path d="M 80.0 158.0 L 80.0 158.0 L 80.0 158.0 L 80.0 158.0 L 79.0 158.0 L 79.0 158.0 L 79.0 158.0 L 79.0 158.0 L 79.0 158.0 L 79.0 158.0 L 79.0 158.0 L 79.0 158.0 L 80.0 158.0 L 80.0 157.0 L 82.0 157.0 L 83.0 157.0 L 84.0 157.0 L 86.0 157.0 L 87.0 157.0 L 88.0 157.0 L 90.0 157.0 L 91.0 157.0 L 93.0 157.0 L 94.0 157.0 L 95.0 157.0 L 97.0 157.0 L 98.0 157.0 L 99.0 157.0 L 101.0 157.0 L 102.0 157.0 L 103.0 157.0 L 104.0 157.0 L 105.0 157.0 L 106.0 157.0 L 107.0 157.0 L 107.0 157.0 L 108.0 157.0 L 109.0 157.0 L 109.0 157.0 L 109.0 157.0 L 110.0 157.0 L 110.0 158.0 L 110.0 158.0 L 111.0 158.0 L 111.0 158.0 L 112.0 158.0 L 112.0 158.0 L 112.0 158.0 L 113.0 158.0 L 114.0 158.0 L 114.0 158.0 L 115.0 158.0 L 116.0 158.0 L 116.0 158.0 L 117.0 158.0 L 118.0 158.0 L 118.0 158.0 L 119.0 158.0 L 120.0 158.0 L 121.0 158.0 L 122.0 158.0 L 123.0 157.0 L 124.0 157.0 L 125.0 157.0 L 126.0 157.0 L 127.0 157.0 L 128.0 157.0 L 130.0 157.0 L 130.0 157.0 L 132.0 157.0 L 133.0 157.0 L 134.0 157.0 L 135.0 157.0 L 136.0 157.0 L 137.0 157.0 L 138.0 157.0 L 139.0 157.0 L 140.0 157.0 L 141.0 157.0 L 142.0 157.0 L 143.0 157.0 L 144.0 158.0 L 144.0 158.0 L 145.0 158.0 L 146.0 158.0 L 147.0 158.0 L 148.0 158.0 L 148.0 158.0 L 149.0 158.0 L 149.0 158.0 L 150.0 158.0 L 150.0 158.0 L 151.0 158.0 L 151.0 158.0 L 152.0 158.0 L 152.0 158.0 L 152.0 158.0 L 153.0 158.0 L 153.0 158.0 L 154.0 158.0 L 155.0 158.0 L 155.0 158.0 L 156.0 158.0 L 156.0 158.0 L 157.0 158.0 L 157.0 158.0 L 158.0 158.0 L 158.0 158.0 L 159.0 158.0 L 159.0 158.0 L 160.0 158.0 L 160.0 158.0 L 161.0 158.0 L 162.0 158.0 L 162.0 158.0 L 163.0 158.0 L 163.0 158.0 L 164.0 158.0 L 164.0 158.0 L 165.0 158.0 L 165.0 158.0 L 166.0 158.0 L 166.0 158.0 L 167.0 158.0 L 167.0 158.0 L 168.0 158.0 L 169.0 158.0 L 169.0 158.0 L 170.0 158.0 L 171.0 158.0 L 172.0 158.0 L 173.0 158.0 L 173.0 158.0 L 174.0 157.0 L 175.0 157.0 L 176.0 157.0 L 176.0 157.0 L 177.0 157.0 L 177.0 157.0 L 178.0 157.0 L 178.0 157.0 L 179.0 157.0 L 179.0 157.0 L 180.0 157.0 L 180.0 157.0 L 181.0 157.0 L 181.0 157.0 L 182.0 157.0 L 182.0 157.0 L 183.0 157.0 L 183.0 157.0 L 183.0 157.0 L 184.0 157.0 L 184.0 157.0 L 185.0 157.0 L 185.0 157.0 L 185.0 157.0 L 186.0 157.0 L 186.0 157.0 L 186.0 157.0 L 187.0 157.0 L 187.0 157.0 L 187.0 157.0 L 188.0 158.0 L 188.0 158.0 L 189.0 158.0 L 189.0 158.0 L 189.0 158.0 L 190.0 158.0 L 190.0 158.0 L 191.0 158.0 L 191.0 158.0 L 191.0 158.0 L 192.0 158.0 L 192.0 158.0 L 193.0 158.0 L 193.0 158.0 L 193.0 158.0 L 194.0 158.0 L 194.0 158.0 L 194.0 158.0 L 195.0 158.0 L 195.0 158.0 L 196.0 158.0 L 196.0 158.0 L 196.0 158.0 L 197.0 158.0 L 197.0 158.0 L 198.0 158.0 L 198.0 158.0 L 199.0 158.0 L 199.0 158.0 L 200.0 158.0 L 200.0 158.0 L 201.0 158.0 L 201.0 158.0 L 202.0 158.0 L 202.0 158.0 L 203.0 158.0 L 204.0 157.0 L 205.0 157.0 L 205.0 157.0 L 206.0 157.0 L 207.0 157.0 L 208.0 157.0 L 209.0 157.0 L 210.0 157.0 L 211.0 157.0 L 213.0 157.0 L 214.0 157.0 L 214.0 157.0 L 215.0 157.0 L 216.0 157.0 L 216.0 156.0 L 217.0 156.0 L 218.0 156.0 L 218.0 156.0 " stroke="black" fill="none" stroke-width="5.0" stroke-linecap="round" stroke-linejoin="round" />
<path d="M 140.0 92.0 L 140.0 92.0 L 140.0 92.0 L 140.0 92.0 L 140.0 92.0 L 140.0 92.0 L 140.0 92.0 L 140.0 92.0 L 140.0 92.0 L 139.0 92.0 L 139.0 92.0 L 139.0 93.0 L 139.0 94.0 L 139.0 95.0 L 139.0 97.0 L 139.0 98.0 L 139.0 100.0 L 139.0 102.0 L 139.0 104.0 L 139.0 106.0 L 139.0 108.0 L 139.0 110.0 L 139.0 112.0 L 138.0 113.0 L 138.0 115.0 L 137.0 116.0 L 137.0 118.0 L 137.0 119.0 L 136.0 120.0 L 136.0 121.0 L 135.0 122.0 L 135.0 123.0 L 135.0 124.0 L 135.0 125.0 L 134.0 126.0 L 134.0 127.0 L 134.0 129.0 L 134.0 130.0 L 134.0 131.0 L 133.0 132.0 L 133.0 133.0 L 133.0 134.0 L 133.0 136.0 L 132.0 137.0 L 132.0 138.0 L 131.0 139.0 L 131.0 140.0 L 130.0 141.0 L 130.0 143.0 L 130.0 144.0 L 129.0 145.0 L 129.0 146.0 L 128.0 147.0 L 127.0 148.0 L 126.0 149.0 L 126.0 150.0 L 125.0 152.0 L 124.0 153.0 L 124.0 154.0 L 123.0 155.0 L 122.0 156.0 L 122.0 157.0 L 121.0 158.0 L 121.0 159.0 L 121.0 160.0 L 120.0 161.0 L 119.0 162.0 L 119.0 163.0 L 118.0 164.0 L 117.0 165.0 L 116.0 166.0 L 116.0 167.0 L 114.0 169.0 L 114.0 170.0 L 112.0 172.0 L 111.0 173.0 L 110.0 175.0 L 109.0 177.0 L 108.0 178.0 L 108.0 180.0 L 107.0 182.0 L 106.0 184.0 L 105.0 185.0 L 104.0 187.0 L 103.0 189.0 L 102.0 190.0 L 101.0 192.0 L 100.0 194.0 L 99.0 196.0 L 97.0 197.0 L 96.0 199.0 L 94.0 200.0 L 92.0 202.0 L 90.0 204.0 L 88.0 205.0 L 87.0 206.0 L 84.0 207.0 L 82.0 209.0 L 80.0 210.0 L 78.0 211.0 L 76.0 213.0 L 74.0 214.0 L 71.0 216.0 L 69.0 218.0 L 68.0 219.0 L 66.0 221.0 L 65.0 222.0 L 64.0 222.0 L 63.0 223.0 L 63.0 223.0 L 62.0 223.0 " stroke="black" fill="none" stroke-width="5.0" stroke-linecap="round" stroke-linejoin="round" />
<path d="M 106.0 191.0 L 106.0 191.0 L 106.0 191.0 L 106.0 191.0 L 105.0 191.0 L 105.0 191.0 L 105.0 191.0 L 105.0 191.0 L 105.0 191.0 L 105.0 191.0 L 105.0 191.0 L 105.0 192.0 L 105.0 193.0 L 105.0 194.0 L 105.0 196.0 L 105.0 198.0 L 105.0 200.0 L 105.0 203.0 L 105.0 206.0 L 105.0 209.0 L 105.0 212.0 L 105.0 216.0 L 105.0 220.0 L 105.0 224.0 L 105.0 228.0 L 105.0 232.0 L 105.0 235.0 L 105.0 238.0 L 105.0 240.0 L 105.0 242.0 L 105.0 244.0 L 105.0 245.0 L 105.0 247.0 L 105.0 248.0 L 105.0 249.0 L 105.0 250.0 L 105.0 251.0 L 105.0 251.0 L 105.0 251.0 L 105.0 252.0 L 105.0 252.0 L 105.0 252.0 L 105.0 252.0 L 105.0 251.0 L 105.0 250.0 " stroke="black" fill="none" stroke-width="5.0" stroke-linecap="round" stroke-linejoin="round" />
<path d="M 107.0 189.0 L 107.0 189.0 L 106.0 189.0 L 105.0 189.0 L 105.0 189.0 L 104.0 188.0 L 104.0 188.0 L 104.0 188.0 L 104.0 188.0 L 104.0 188.0 L 104.0 188.0 L 105.0 188.0 L 105.0 188.0 L 106.0 188.0 L 106.0 188.0 L 107.0 188.0 L 107.0 188.0 L 108.0 188.0 L 109.0 188.0 L 110.0 188.0 L 112.0 188.0 L 114.0 188.0 L 116.0 188.0 L 119.0 188.0 L 121.0 188.0 L 123.0 188.0 L 126.0 188.0 L 128.0 188.0 L 129.0 188.0 L 131.0 188.0 L 133.0 188.0 L 134.0 188.0 L 136.0 188.0 L 137.0 188.0 L 139.0 188.0 L 140.0 188.0 L 142.0 189.0 L 143.0 189.0 L 144.0 189.0 L 145.0 189.0 L 146.0 189.0 L 147.0 189.0 L 148.0 189.0 L 148.0 189.0 L 149.0 189.0 L 149.0 189.0 L 150.0 189.0 L 150.0 189.0 L 151.0 189.0 L 152.0 189.0 L 152.0 189.0 L 153.0 189.0 L 154.0 189.0 L 154.0 189.0 L 155.0 189.0 L 156.0 189.0 L 156.0 189.0 L 157.0 189.0 L 158.0 189.0 L 159.0 189.0 L 159.0 189.0 L 160.0 189.0 L 161.0 189.0 L 162.0 189.0 L 163.0 189.0 L 164.0 189.0 L 164.0 189.0 L 165.0 189.0 L 166.0 189.0 L 167.0 189.0 L 168.0 189.0 L 169.0 189.0 L 170.0 189.0 L 171.0 189.0 L 172.0 189.0 L 173.0 189.0 L 175.0 189.0 L 176.0 189.0 L 177.0 189.0 L 178.0 189.0 L 179.0 189.0 L 180.0 189.0 L 181.0 189.0 L 182.0 189.0 L 183.0 189.0 L 184.0 189.0 L 184.0 189.0 L 185.0 189.0 L 186.0 189.0 L 187.0 189.0 L 188.0 189.0 L 188.0 189.0 L 189.0 189.0 L 190.0 189.0 L 191.0 189.0 L 191.0 189.0 L 192.0 189.0 L 192.0 189.0 L 193.0 189.0 L 193.0 189.0 L 194.0 189.0 L 194.0 189.0 L 195.0 189.0 L 195.0 189.0 L 196.0 189.0 L 196.0 189.0 L 197.0 189.0 L 197.0 189.0 L 198.0 189.0 L 198.0 189.0 L 199.0 189.0 L 199.0 189.0 L 200.0 189.0 L 200.0 189.0 L 200.0 189.0 L 201.0 189.0 L 202.0 189.0 L 202.0 189.0 L 203.0 189.0 L 203.0 189.0 L 204.0 189.0 L 204.0 189.0 L 205.0 189.0 L 205.0 189.0 L 206.0 189.0 L 206.0 189.0 L 206.0 189.0 L 207.0 189.0 L 207.0 189.0 L 208.0 189.0 L 208.0 190.0 L 208.0 190.0 L 209.0 190.0 L 209.0 190.0 L 209.0 190.0 L 209.0 190.0 L 210.0 191.0 L 210.0 191.0 L 210.0 191.0 L 210.0 191.0 L 211.0 191.0 L 211.0 192.0 L 211.0 192.0 L 211.0 193.0 L 212.0 193.0 L 212.0 194.0 L 212.0 195.0 L 212.0 195.0 L 212.0 196.0 L 212.0 197.0 L 213.0 198.0 L 213.0 199.0 L 213.0 200.0 L 213.0 200.0 L 213.0 201.0 L 213.0 202.0 L 213.0 203.0 L 213.0 205.0 L 213.0 206.0 L 213.0 207.0 L 214.0 208.0 L 214.0 209.0 L 214.0 210.0 L 214.0 211.0 L 214.0 212.0 L 214.0 213.0 L 214.0 215.0 L 214.0 216.0 L 214.0 218.0 L 214.0 219.0 L 214.0 221.0 L 214.0 222.0 L 214.0 224.0 L 214.0 226.0 L 214.0 228.0 L 214.0 230.0 L 213.0 231.0 L 213.0 233.0 L 213.0 235.0 L 213.0 236.0 L 213.0 238.0 L 213.0 239.0 L 213.0 241.0 L 213.0 242.0 L 213.0 243.0 L 213.0 244.0 L 213.0 246.0 L 213.0 247.0 L 213.0 247.0 L 212.0 248.0 L 212.0 249.0 L 212.0 249.0 L 212.0 249.0 L 212.0 249.0 " stroke="black" fill="none" stroke-width="5.0" stroke-linecap="round" stroke-linejoin="round" />
<path d="M 105.0 252.0 L 104.0 252.0 L 104.0 252.0 L 103.0 253.0 L 102.0 253.0 L 102.0 253.0 L 102.0 253.0 L 102.0 253.0 L 102.0 253.0 L 102.0 253.0 L 103.0 252.0 L 103.0 252.0 L 103.0 252.0 L 104.0 252.0 L 104.0 252.0 L 104.0 252.0 L 105.0 252.0 L 105.0 252.0 L 105.0 252.0 L 105.0 252.0 L 106.0 252.0 L 106.0 252.0 L 107.0 252.0 L 108.0 253.0 L 108.0 253.0 L 110.0 253.0 L 111.0 253.0 L 112.0 253.0 L 114.0 253.0 L 116.0 253.0 L 119.0 253.0 L 122.0 253.0 L 124.0 253.0 L 127.0 253.0 L 130.0 254.0 L 132.0 254.0 L 135.0 254.0 L 137.0 254.0 L 139.0 254.0 L 140.0 254.0 L 142.0 254.0 L 143.0 254.0 L 143.0 254.0 L 144.0 254.0 L 144.0 254.0 L 144.0 254.0 L 144.0 254.0 L 145.0 254.0 L 145.0 254.0 L 145.0 254.0 L 146.0 254.0 L 146.0 254.0 L 146.0 254.0 L 147.0 254.0 L 147.0 254.0 L 148.0 254.0 L 148.0 254.0 L 148.0 254.0 L 149.0 254.0 L 150.0 254.0 L 150.0 254.0 L 151.0 254.0 L 152.0 254.0 L 153.0 254.0 L 154.0 254.0 L 155.0 254.0 L 156.0 254.0 L 158.0 253.0 L 159.0 253.0 L 161.0 253.0 L 163.0 253.0 L 165.0 252.0 L 167.0 252.0 L 169.0 252.0 L 171.0 252.0 L 173.0 252.0 L 175.0 252.0 L 176.0 252.0 L 177.0 251.0 L 179.0 251.0 L 180.0 251.0 L 181.0 251.0 L 182.0 251.0 L 183.0 251.0 L 184.0 251.0 L 185.0 251.0 L 185.0 251.0 L 186.0 251.0 L 187.0 251.0 L 188.0 251.0 L 188.0 251.0 L 189.0 251.0 L 190.0 251.0 L 190.0 251.0 L 191.0 251.0 L 191.0 251.0 L 192.0 251.0 L 193.0 251.0 L 193.0 251.0 L 194.0 251.0 L 194.0 251.0 L 195.0 251.0 L 195.0 251.0 L 196.0 251.0 L 197.0 252.0 L 197.0 252.0 L 198.0 252.0 L 199.0 252.0 L 200.0 252.0 L 200.0 252.0 L 201.0 252.0 L 202.0 252.0 L 203.0 252.0 L 204.0 252.0 L 205.0 252.0 L 206.0 252.0 L 207.0 252.0 L 207.0 252.0 L 208.0 251.0 L 209.0 251.0 L 210.0 251.0 L 211.0 251.0 L 212.0 251.0 L 212.0 250.0 L 213.0 250.0 L 213.0 250.0 L 213.0 250.0 L 213.0 250.0 L 213.0 250.0 " stroke="black" fill="none" stroke-width="5.0" stroke-linecap="round" stroke-linejoin="round" />
</svg>