<svg xmlns="http://www.w3.org/2000/svg" width="300" height="300" viewBox="0 0 300 300">
<path d="M 112.0 106.0 L 112.0 105.0 L 112.0 103.0 L 112.0 102.0 L 112.0 102.0 L 112.0 101.0 L 112.0 101.0 L 112.0 102.0 L 112.0 103.0 L 112.0 105.0 L 111.0 108.0 L 110.0 111.0 L 109.0 115.0 L 108.0 119.0 L 107.0 123.0 L 105.0 128.0 L 102.0 135.0 L 99.0 143.0 L 95.0 150.0 L 91.0 156.0 L 88.0 161.0 L 85.0 163.0 L 84.0 165.0 L 83.0 165.0 L 83.0 165.0 L 83.0 165.0 L 83.0 164.0 L 84.0 164.0 L 85.0 163.0 L 87.0 163.0 L 89.0 162.0 L 91.0 161.0 L 94.0 160.0 L 97.0 158.0 L 101.0 157.0 L 105.0 155.0 L 108.0 152.0 L 112.0 150.0 L 117.0 147.0 L 120.0 144.0 L 124.0 142.0 L 127.0 140.0 L 128.0 138.0 L 129.0 138.0 L 129.0 138.0 L 129.0 138.0 L 129.0 138.0 L 128.0 138.0 L 128.0 137.0 L 127.0 137.0 L 127.0 137.0 L 126.0 137.0 L 125.0 137.0 L 124.0 138.0 L 123.0 139.0 L 122.0 141.0 L 120.0 144.0 L 118.0 147.0 L 116.0 150.0 L 114.0 154.0 L 112.0 159.0 L 109.0 164.0 L 106.0 171.0 L 104.0 177.0 L 102.0 183.0 L 100.0 190.0 L 98.0 195.0 L 96.0 200.0 L 94.0 204.0 L 92.0 207.0 L 91.0 209.0 L 90.0 211.0 L 89.0 212.0 L 89.0 213.0 L 88.0 214.0 L 88.0 214.0 L 88.0 214.0 L 88.0 214.0 L 89.0 214.0 L 90.0 214.0 L 91.0 213.0 L 93.0 213.0 L 95.0 212.0 L 97.0 211.0 L 99.0 210.0 L 101.0 209.0 L 104.0 207.0 L 107.0 206.0 L 109.0 204.0 L 112.0 202.0 L 114.0 200.0 L 117.0 198.0 L 119.0 195.0 L 120.0 194.0 L 121.0 192.0 L 122.0 191.0 L 123.0 190.0 L 123.0 190.0 L 123.0 189.0 L 124.0 189.0 L 125.0 189.0 L 126.0 190.0 L 128.0 191.0 L 130.0 192.0 L 133.0 194.0 L 135.0 196.0 L 138.0 199.0 L 140.0 202.0 L 142.0 205.0 L 144.0 208.0 L 145.0 209.0 " stroke="black" fill="none" stroke-width="5.0" stroke-linecap="round" stroke-linejoin="round" />
<path d="M 193.0 101.0 L 193.0 101.0 L 192.0 101.0 L 191.0 102.0 L 191.0 102.0 L 190.0 104.0 L 190.0 105.0 L 189.0 108.0 L 188.0 111.0 L 187.0 115.0 L 185.0 120.0 L 181.0 126.0 L 178.0 132.0 L 173.0 138.0 L 168.0 144.0 L 164.0 149.0 L 160.0 153.0 L 158.0 156.0 L 156.0 157.0 L 156.0 158.0 L 156.0 158.0 L 156.0 158.0 L 156.0 158.0 L 157.0 158.0 L 158.0 157.0 L 160.0 156.0 L 163.0 155.0 L 167.0 153.0 L 171.0 151.0 L 177.0 149.0 L 182.0 146.0 L 187.0 143.0 L 192.0 139.0 L 196.0 136.0 L 199.0 133.0 L 202.0 130.0 L 204.0 128.0 L 204.0 127.0 L 204.0 126.0 L 204.0 126.0 L 204.0 126.0 L 203.0 126.0 L 202.0 127.0 L 201.0 129.0 L 200.0 130.0 L 199.0 132.0 L 198.0 134.0 L 197.0 137.0 L 196.0 140.0 L 195.0 143.0 L 194.0 147.0 L 192.0 151.0 L 191.0 156.0 L 188.0 162.0 L 186.0 167.0 L 183.0 173.0 L 180.0 180.0 L 177.0 186.0 L 174.0 191.0 L 171.0 195.0 L 169.0 198.0 L 168.0 200.0 L 167.0 202.0 L 166.0 203.0 L 166.0 204.0 L 166.0 205.0 L 166.0 206.0 L 166.0 206.0 L 166.0 206.0 L 168.0 207.0 L 169.0 207.0 L 171.0 207.0 L 173.0 206.0 L 176.0 206.0 L 180.0 204.0 L 183.0 203.0 L 186.0 202.0 L 189.0 200.0 L 192.0 198.0 L 195.0 197.0 L 197.0 195.0 L 199.0 193.0 L 201.0 191.0 L 202.0 190.0 L 203.0 189.0 L 204.0 189.0 L 205.0 189.0 L 206.0 189.0 L 207.0 190.0 L 208.0 192.0 L 209.0 195.0 L 210.0 197.0 L 212.0 200.0 L 213.0 203.0 L 215.0 206.0 L 217.0 209.0 L 219.0 210.0 L 220.0 211.0 " stroke="black" fill="none" stroke-width="5.0" stroke-linecap="round" stroke-linejoin="round" />
<path d="M 155.0 88.0 L 155.0 88.0 L 154.0 89.0 L 154.0 89.0 L 154.0 92.0 L 154.0 95.0 L 154.0 100.0 L 154.0 108.0 L 154.0 116.0 L 154.0 126.0 L 154.0 138.0 L 154.0 150.0 L 154.0 163.0 L 154.0 177.0 L 154.0 191.0 L 154.0 202.0 L 154.0 212.0 L 154.0 218.0 L 154.0 222.0 L 154.0 226.0 L 154.0 227.0 " stroke="black" fill="none" stroke-width="5.0" stroke-linecap="round" stroke-linejoin="round" />
<path d="M 75.0 105.0 L 75.0 105.0 L 75.0 105.0 L 74.0 105.0 L 74.0 105.0 L 73.0 105.0 L 73.0 106.0 L 73.0 108.0 L 72.0 111.0 L 72.0 114.0 L 72.0 118.0 L 72.0 123.0 L 72.0 128.0 L 72.0 134.0 L 72.0 140.0 L 72.0 147.0 L 72.0 153.0 L 72.0 158.0 L 72.0 163.0 L 72.0 168.0 L 72.0 173.0 L 71.0 178.0 L 71.0 184.0 L 70.0 189.0 L 69.0 194.0 L 69.0 198.0 L 68.0 201.0 L 68.0 204.0 L 68.0 206.0 L 68.0 208.0 L 68.0 210.0 L 68.0 212.0 L 68.0 213.0 L 68.0 215.0 L 68.0 217.0 L 68.0 218.0 L 68.0 220.0 L 68.0 222.0 L 68.0 224.0 L 68.0 226.0 L 68.0 228.0 L 68.0 230.0 L 68.0 231.0 L 68.0 232.0 L 68.0 233.0 L 68.0 234.0 L 68.0 234.0 L 68.0 235.0 L 68.0 236.0 L 68.0 237.0 L 68.0 238.0 L 68.0 239.0 L 68.0 239.0 L 68.0 240.0 L 68.0 241.0 L 68.0 242.0 L 68.0 242.0 L 68.0 243.0 L 68.0 243.0 L 69.0 243.0 L 69.0 244.0 L 69.0 244.0 L 69.0 245.0 L 69.0 245.0 L 69.0 245.0 L 70.0 246.0 L 70.0 246.0 L 70.0 246.0 L 71.0 247.0 L 71.0 247.0 L 71.0 247.0 L 71.0 247.0 L 72.0 247.0 L 73.0 247.0 L 73.0 247.0 L 74.0 247.0 L 76.0 247.0 L 78.0 247.0 L 80.0 247.0 L 84.0 247.0 L 88.0 247.0 L 93.0 247.0 L 98.0 246.0 L 103.0 245.0 L 108.0 244.0 L 114.0 243.0 L 121.0 243.0 L 130.0 241.0 L 139.0 241.0 L 147.0 240.0 L 154.0 239.0 L 160.0 238.0 L 166.0 238.0 L 173.0 238.0 L 180.0 238.0 L 186.0 238.0 L 192.0 238.0 L 196.0 238.0 L 199.0 238.0 L 203.0 238.0 L 207.0 237.0 L 210.0 236.0 L 214.0 235.0 L 217.0 234.0 L 219.0 234.0 L 222.0 233.0 L 223.0 233.0 " stroke="black" fill="none" stroke-width="5.0" stroke-linecap="round" stroke-linejoin="round" />
<path d="M 232.0 105.0 L 232.0 105.0 L 231.0 105.0 L 230.0 104.0 L 230.0 104.0 L 229.0 104.0 L 229.0 105.0 L 229.0 108.0 L 229.0 112.0 L 230.0 117.0 L 231.0 124.0 L 231.0 133.0 L 232.0 146.0 L 232.0 159.0 L 232.0 174.0 L 232.0 191.0 L 232.0 204.0 L 232.0 216.0 L 232.0 228.0 L 232.0 237.0 L 232.0 243.0 L 232.0 248.0 L 232.0 251.0 L 232.0 252.0 L 232.0 253.0 " stroke="black" fill="none" stroke-width="5.0" stroke-linecap="round" stroke-linejoin="round" />
</svg>