<svg xmlns="http://www.w3.org/2000/svg" width="300" height="300" viewBox="0 0 300 300">
<path d="M 106.0 71.0 L 106.0 71.0 L 106.0 71.0 L 106.0 70.0 L 105.0 70.0 L 105.0 70.0 L 105.0 70.0 L 105.0 70.0 L 105.0 70.0 L 105.0 70.0 L 105.0 70.0 L 105.0 70.0 L 105.0 71.0 L 105.0 72.0 L 105.0 74.0 L 105.0 76.0 L 105.0 79.0 L 105.0 82.0 L 104.0 86.0 L 102.0 91.0 L 100.0 98.0 L 97.0 104.0 L 94.0 111.0 L 90.0 117.0 L 85.0 122.0 L 80.0 127.0 L 76.0 132.0 L 71.0 138.0 L 66.0 143.0 L 62.0 149.0 L 58.0 153.0 L 55.0 156.0 L 53.0 158.0 L 52.0 159.0 " stroke="black" fill="none" stroke-width="5.0" stroke-linecap="round" stroke-linejoin="round" />
<path d="M 87.0 124.0 L 87.0 124.0 L 87.0 124.0 L 87.0 124.0 L 87.0 124.0 L 87.0 124.0 L 87.0 124.0 L 87.0 124.0 L 87.0 124.0 L 87.0 124.0 L 87.0 126.0 L 87.0 128.0 L 87.0 131.0 L 87.0 136.0 L 87.0 142.0 L 87.0 149.0 L 86.0 157.0 L 86.0 167.0 L 86.0 177.0 L 86.0 188.0 L 86.0 199.0 L 86.0 209.0 L 86.0 218.0 L 85.0 228.0 L 85.0 236.0 L 84.0 242.0 L 84.0 247.0 L 84.0 250.0 L 84.0 252.0 L 84.0 252.0 L 84.0 252.0 " stroke="black" fill="none" stroke-width="5.0" stroke-linecap="round" stroke-linejoin="round" />
<path d="M 136.0 83.0 L 136.0 83.0 L 136.0 83.0 L 136.0 83.0 L 136.0 83.0 L 136.0 83.0 L 135.0 84.0 L 135.0 84.0 L 135.0 86.0 L 135.0 89.0 L 135.0 93.0 L 134.0 99.0 L 134.0 107.0 L 133.0 115.0 L 133.0 123.0 L 133.0 130.0 L 133.0 139.0 L 133.0 147.0 L 132.0 155.0 L 132.0 163.0 L 131.0 170.0 L 131.0 176.0 L 130.0 183.0 L 129.0 189.0 L 128.0 194.0 L 127.0 198.0 L 127.0 200.0 L 126.0 202.0 L 126.0 203.0 L 126.0 203.0 L 126.0 203.0 L 126.0 203.0 " stroke="black" fill="none" stroke-width="5.0" stroke-linecap="round" stroke-linejoin="round" />
<path d="M 112.0 211.0 L 112.0 211.0 L 112.0 211.0 L 111.0 211.0 L 111.0 211.0 L 111.0 211.0 L 111.0 212.0 L 111.0 212.0 L 111.0 212.0 L 111.0 212.0 L 111.0 212.0 L 112.0 211.0 L 114.0 210.0 L 118.0 209.0 L 123.0 206.0 L 130.0 203.0 L 137.0 199.0 L 145.0 195.0 L 152.0 189.0 L 158.0 184.0 L 165.0 178.0 L 170.0 174.0 " stroke="black" fill="none" stroke-width="5.0" stroke-linecap="round" stroke-linejoin="round" />
<path d="M 167.0 96.0 L 166.0 96.0 L 166.0 95.0 L 165.0 95.0 L 165.0 95.0 L 165.0 95.0 L 165.0 95.0 L 166.0 98.0 L 169.0 101.0 L 171.0 105.0 L 175.0 109.0 L 178.0 114.0 L 182.0 119.0 L 186.0 123.0 L 190.0 128.0 L 193.0 132.0 L 195.0 135.0 L 196.0 136.0 " stroke="black" fill="none" stroke-width="5.0" stroke-linecap="round" stroke-linejoin="round" />
<path d="M 225.0 81.0 L 225.0 81.0 L 225.0 81.0 L 225.0 81.0 L 225.0 81.0 L 225.0 81.0 L 225.0 81.0 L 225.0 81.0 L 225.0 82.0 L 225.0 83.0 L 226.0 84.0 L 226.0 85.0 L 226.0 87.0 L 226.0 89.0 L 227.0 92.0 L 227.0 95.0 L 227.0 100.0 L 227.0 104.0 L 227.0 108.0 L 227.0 113.0 L 226.0 117.0 L 226.0 121.0 L 225.0 125.0 L 223.0 129.0 L 222.0 133.0 L 220.0 137.0 L 219.0 141.0 L 218.0 145.0 L 216.0 150.0 L 215.0 153.0 L 214.0 157.0 L 212.0 161.0 L 210.0 165.0 L 209.0 168.0 L 207.0 173.0 L 205.0 177.0 L 204.0 181.0 L 202.0 186.0 L 200.0 190.0 L 198.0 194.0 L 196.0 198.0 L 195.0 202.0 L 193.0 206.0 L 191.0 209.0 L 189.0 213.0 L 187.0 215.0 L 184.0 218.0 L 180.0 221.0 L 175.0 225.0 L 170.0 228.0 L 165.0 232.0 L 160.0 235.0 L 155.0 238.0 L 152.0 240.0 L 150.0 241.0 L 149.0 243.0 L 148.0 243.0 L 148.0 243.0 " stroke="black" fill="none" stroke-width="5.0" stroke-linecap="round" stroke-linejoin="round" />
<path d="M 201.0 190.0 L 201.0 190.0 L 201.0 189.0 L 201.0 189.0 L 201.0 188.0 L 201.0 188.0 L 201.0 187.0 L 201.0 187.0 L 201.0 187.0 L 201.0 187.0 L 201.0 187.0 L 203.0 189.0 L 204.0 191.0 L 206.0 193.0 L 209.0 196.0 L 211.0 200.0 L 214.0 205.0 L 218.0 209.0 L 221.0 214.0 L 225.0 219.0 L 229.0 223.0 L 232.0 227.0 L 234.0 231.0 L 237.0 234.0 L 238.0 237.0 L 240.0 240.0 L 241.0 242.0 L 243.0 244.0 L 245.0 245.0 L 246.0 247.0 L 248.0 247.0 L 250.0 248.0 L 252.0 248.0 L 254.0 248.0 " stroke="black" fill="none" stroke-width="5.0" stroke-linecap="round" stroke-linejoin="round" />
</svg>