<svg xmlns="http://www.w3.org/2000/svg" width="300" height="300" viewBox="0 0 300 300">
<path d="M 152.0 71.0 L 152.0 71.0 L 151.0 70.0 L 150.0 70.0 L 150.0 70.0 L 149.0 70.0 L 149.0 70.0 L 149.0 71.0 L 149.0 73.0 L 149.0 75.0 L 149.0 78.0 L 149.0 81.0 L 149.0 85.0 L 149.0 89.0 L 148.0 94.0 L 148.0 99.0 L 148.0 103.0 L 148.0 107.0 " stroke="black" fill="none" stroke-width="5.0" stroke-linecap="round" stroke-linejoin="round" />
<path d="M 158.0 84.0 L 158.0 84.0 L 158.0 84.0 L 158.0 84.0 L 158.0 84.0 L 157.0 84.0 L 157.0 85.0 L 157.0 85.0 L 157.0 85.0 L 157.0 85.0 L 157.0 85.0 L 158.0 85.0 L 161.0 85.0 L 164.0 85.0 L 169.0 85.0 L 176.0 85.0 L 183.0 85.0 L 191.0 85.0 L 197.0 84.0 L 202.0 84.0 L 207.0 84.0 L 211.0 84.0 L 214.0 84.0 " stroke="black" fill="none" stroke-width="5.0" stroke-linecap="round" stroke-linejoin="round" />
<path d="M 86.0 112.0 L 86.0 112.0 L 85.0 112.0 L 85.0 112.0 L 84.0 112.0 L 84.0 112.0 L 84.0 112.0 L 84.0 112.0 L 84.0 112.0 L 84.0 112.0 L 84.0 112.0 L 85.0 111.0 L 86.0 111.0 L 86.0 111.0 L 87.0 111.0 L 88.0 111.0 L 89.0 111.0 L 91.0 111.0 L 92.0 111.0 L 93.0 111.0 L 95.0 111.0 L 97.0 111.0 L 98.0 111.0 L 100.0 112.0 L 101.0 112.0 L 102.0 112.0 L 103.0 112.0 L 104.0 112.0 L 105.0 112.0 L 105.0 112.0 L 106.0 113.0 L 106.0 113.0 L 107.0 113.0 L 108.0 113.0 L 108.0 113.0 L 109.0 113.0 L 109.0 113.0 L 110.0 113.0 L 111.0 113.0 L 112.0 113.0 L 112.0 113.0 L 113.0 113.0 L 114.0 113.0 L 115.0 113.0 L 116.0 113.0 L 117.0 113.0 L 118.0 113.0 L 119.0 113.0 L 120.0 112.0 L 121.0 112.0 L 122.0 112.0 L 123.0 112.0 L 124.0 112.0 L 125.0 112.0 L 126.0 112.0 L 128.0 112.0 L 129.0 112.0 L 131.0 111.0 L 132.0 111.0 L 134.0 111.0 L 136.0 111.0 L 137.0 110.0 L 139.0 110.0 L 140.0 110.0 L 141.0 110.0 L 142.0 110.0 L 143.0 110.0 L 144.0 110.0 L 145.0 110.0 L 146.0 110.0 L 147.0 110.0 L 148.0 110.0 L 148.0 110.0 L 149.0 110.0 L 150.0 110.0 L 150.0 110.0 L 151.0 110.0 L 151.0 110.0 L 152.0 110.0 L 152.0 110.0 L 153.0 110.0 L 153.0 110.0 L 154.0 110.0 L 155.0 110.0 L 155.0 110.0 L 156.0 110.0 L 157.0 110.0 L 157.0 110.0 L 158.0 110.0 L 159.0 110.0 L 160.0 110.0 L 161.0 109.0 L 162.0 109.0 L 162.0 109.0 L 164.0 109.0 L 165.0 109.0 L 166.0 109.0 L 167.0 108.0 L 168.0 108.0 L 169.0 108.0 L 170.0 108.0 L 171.0 108.0 L 172.0 108.0 L 173.0 107.0 L 175.0 107.0 L 176.0 107.0 L 177.0 107.0 L 178.0 107.0 L 179.0 107.0 L 180.0 107.0 L 181.0 107.0 L 182.0 106.0 L 183.0 106.0 L 184.0 106.0 L 185.0 106.0 L 186.0 106.0 L 186.0 106.0 L 187.0 106.0 L 188.0 106.0 L 189.0 106.0 L 189.0 106.0 L 190.0 106.0 L 191.0 106.0 L 191.0 106.0 L 192.0 106.0 L 193.0 106.0 L 193.0 106.0 L 194.0 106.0 L 195.0 106.0 L 196.0 106.0 L 196.0 106.0 L 197.0 106.0 L 198.0 106.0 L 199.0 106.0 L 200.0 106.0 L 200.0 106.0 L 201.0 106.0 L 202.0 106.0 L 203.0 106.0 L 204.0 106.0 L 205.0 106.0 L 206.0 106.0 L 207.0 106.0 L 209.0 106.0 L 210.0 106.0 L 211.0 106.0 L 212.0 106.0 L 214.0 106.0 L 215.0 106.0 L 216.0 106.0 L 217.0 106.0 L 218.0 106.0 L 220.0 106.0 L 221.0 106.0 L 222.0 106.0 L 223.0 106.0 L 224.0 106.0 L 225.0 106.0 L 226.0 106.0 L 227.0 106.0 L 228.0 106.0 L 229.0 106.0 L 229.0 106.0 L 230.0 106.0 L 231.0 106.0 L 231.0 106.0 L 231.0 106.0 L 232.0 106.0 L 232.0 106.0 L 232.0 106.0 L 232.0 106.0 L 232.0 106.0 L 232.0 106.0 L 232.0 106.0 L 232.0 106.0 L 232.0 107.0 L 232.0 108.0 L 231.0 109.0 L 230.0 110.0 L 229.0 112.0 L 228.0 114.0 L 226.0 116.0 L 224.0 119.0 L 222.0 121.0 L 220.0 124.0 L 218.0 127.0 L 215.0 130.0 L 212.0 132.0 L 208.0 135.0 " stroke="black" fill="none" stroke-width="5.0" stroke-linecap="round" stroke-linejoin="round" />
<path d="M 80.0 110.0 L 80.0 110.0 L 80.0 110.0 L 80.0 110.0 L 79.0 110.0 L 79.0 110.0 L 78.0 110.0 L 78.0 110.0 L 78.0 110.0 L 78.0 110.0 L 78.0 110.0 L 78.0 110.0 L 78.0 110.0 L 78.0 110.0 L 78.0 110.0 L 79.0 110.0 L 79.0 111.0 L 80.0 111.0 L 80.0 112.0 L 81.0 113.0 L 81.0 114.0 L 82.0 115.0 L 82.0 116.0 L 82.0 117.0 L 83.0 118.0 L 83.0 120.0 L 83.0 121.0 L 83.0 122.0 L 83.0 124.0 L 83.0 125.0 L 83.0 127.0 L 83.0 128.0 L 83.0 130.0 L 83.0 132.0 L 83.0 134.0 L 83.0 136.0 L 83.0 137.0 L 83.0 140.0 L 83.0 142.0 L 83.0 144.0 L 82.0 146.0 L 82.0 148.0 L 82.0 150.0 L 82.0 152.0 L 82.0 153.0 L 82.0 155.0 L 82.0 156.0 L 82.0 158.0 L 82.0 160.0 L 81.0 161.0 L 81.0 163.0 L 81.0 164.0 L 81.0 166.0 L 80.0 168.0 L 80.0 169.0 L 80.0 171.0 L 80.0 173.0 L 79.0 175.0 L 79.0 177.0 L 79.0 180.0 L 78.0 182.0 L 78.0 185.0 L 77.0 188.0 L 77.0 191.0 L 76.0 194.0 L 76.0 197.0 L 75.0 200.0 L 74.0 203.0 L 73.0 207.0 L 72.0 210.0 L 71.0 214.0 L 70.0 217.0 L 69.0 221.0 L 69.0 225.0 L 68.0 229.0 L 67.0 232.0 L 66.0 236.0 L 65.0 239.0 L 64.0 241.0 L 63.0 243.0 L 62.0 244.0 L 61.0 245.0 " stroke="black" fill="none" stroke-width="5.0" stroke-linecap="round" stroke-linejoin="round" />
<path d="M 112.0 139.0 L 112.0 139.0 L 112.0 139.0 L 112.0 139.0 L 112.0 139.0 L 112.0 139.0 L 112.0 139.0 L 112.0 139.0 L 114.0 139.0 L 116.0 139.0 L 120.0 139.0 L 125.0 138.0 L 131.0 138.0 L 138.0 138.0 L 144.0 138.0 L 151.0 138.0 L 157.0 138.0 L 163.0 138.0 L 170.0 138.0 L 177.0 138.0 L 183.0 138.0 L 187.0 137.0 L 191.0 136.0 L 193.0 136.0 " stroke="black" fill="none" stroke-width="5.0" stroke-linecap="round" stroke-linejoin="round" />
<path d="M 149.0 125.0 L 149.0 125.0 L 149.0 125.0 L 149.0 125.0 L 149.0 125.0 L 149.0 125.0 L 149.0 125.0 L 149.0 125.0 L 149.0 125.0 L 149.0 125.0 L 148.0 127.0 L 148.0 128.0 L 148.0 131.0 L 148.0 135.0 L 148.0 139.0 L 148.0 144.0 L 147.0 148.0 L 147.0 152.0 L 147.0 155.0 L 146.0 158.0 L 146.0 160.0 L 146.0 161.0 L 146.0 162.0 L 146.0 162.0 L 146.0 162.0 L 146.0 162.0 L 146.0 162.0 L 147.0 163.0 L 147.0 163.0 L 148.0 163.0 L 149.0 163.0 L 150.0 164.0 L 151.0 164.0 L 152.0 164.0 L 154.0 164.0 L 156.0 165.0 L 159.0 165.0 L 162.0 165.0 L 167.0 165.0 L 173.0 165.0 L 178.0 164.0 L 185.0 164.0 L 190.0 163.0 L 195.0 163.0 L 199.0 162.0 L 203.0 162.0 L 207.0 161.0 L 210.0 161.0 L 211.0 161.0 " stroke="black" fill="none" stroke-width="5.0" stroke-linecap="round" stroke-linejoin="round" />
<path d="M 115.0 165.0 L 115.0 165.0 L 116.0 165.0 L 117.0 164.0 L 118.0 164.0 L 118.0 163.0 L 119.0 163.0 L 119.0 163.0 L 119.0 163.0 L 119.0 164.0 L 119.0 165.0 L 118.0 167.0 L 116.0 170.0 L 114.0 174.0 L 111.0 179.0 L 108.0 185.0 L 105.0 191.0 L 101.0 195.0 L 98.0 200.0 L 96.0 202.0 L 94.0 203.0 L 94.0 203.0 " stroke="black" fill="none" stroke-width="5.0" stroke-linecap="round" stroke-linejoin="round" />
<path d="M 110.0 185.0 L 110.0 185.0 L 110.0 184.0 L 110.0 183.0 L 110.0 183.0 L 111.0 182.0 L 112.0 181.0 L 114.0 180.0 L 117.0 180.0 L 121.0 179.0 L 126.0 178.0 L 131.0 178.0 L 137.0 178.0 L 141.0 177.0 L 146.0 177.0 L 150.0 177.0 L 152.0 177.0 L 154.0 177.0 L 156.0 177.0 L 157.0 177.0 L 157.0 177.0 L 157.0 177.0 L 157.0 178.0 L 157.0 180.0 L 157.0 182.0 L 156.0 184.0 L 154.0 187.0 L 153.0 190.0 L 152.0 194.0 L 150.0 198.0 L 147.0 203.0 L 144.0 208.0 L 141.0 214.0 L 136.0 221.0 L 130.0 229.0 L 124.0 235.0 L 117.0 241.0 L 112.0 244.0 L 108.0 247.0 L 105.0 248.0 L 103.0 249.0 L 102.0 249.0 L 100.0 249.0 " stroke="black" fill="none" stroke-width="5.0" stroke-linecap="round" stroke-linejoin="round" />
<path d="M 108.0 197.0 L 108.0 197.0 L 108.0 197.0 L 108.0 198.0 L 108.0 198.0 L 108.0 199.0 L 108.0 199.0 L 108.0 200.0 L 108.0 201.0 L 108.0 201.0 L 108.0 202.0 L 108.0 204.0 L 108.0 205.0 L 109.0 206.0 L 110.0 208.0 L 110.0 209.0 L 111.0 211.0 L 112.0 213.0 L 113.0 214.0 L 114.0 216.0 L 116.0 218.0 L 118.0 220.0 L 120.0 221.0 L 122.0 223.0 L 125.0 225.0 L 127.0 227.0 L 130.0 229.0 L 133.0 231.0 L 136.0 233.0 L 139.0 234.0 L 142.0 236.0 L 144.0 237.0 L 147.0 238.0 L 150.0 239.0 L 153.0 240.0 L 157.0 241.0 L 161.0 242.0 L 165.0 243.0 L 171.0 244.0 L 177.0 244.0 L 182.0 245.0 L 187.0 245.0 L 191.0 245.0 L 195.0 245.0 L 198.0 245.0 L 201.0 245.0 L 204.0 246.0 L 207.0 247.0 L 211.0 247.0 L 215.0 247.0 L 219.0 248.0 L 223.0 248.0 L 227.0 248.0 L 231.0 248.0 L 232.0 248.0 " stroke="black" fill="none" stroke-width="5.0" stroke-linecap="round" stroke-linejoin="round" />
<path d="M 171.0 181.0 L 171.0 181.0 L 171.0 181.0 L 171.0 182.0 L 171.0 183.0 L 172.0 184.0 L 172.0 187.0 L 172.0 190.0 L 171.0 194.0 L 169.0 199.0 L 167.0 204.0 L 164.0 210.0 L 161.0 215.0 L 158.0 219.0 L 157.0 222.0 L 156.0 223.0 L 156.0 223.0 L 156.0 220.0 L 157.0 217.0 L 157.0 215.0 " stroke="black" fill="none" stroke-width="5.0" stroke-linecap="round" stroke-linejoin="round" />
<path d="M 173.0 193.0 L 173.0 192.0 L 174.0 191.0 L 174.0 190.0 L 175.0 190.0 L 175.0 189.0 L 176.0 188.0 L 177.0 188.0 L 179.0 187.0 L 180.0 187.0 L 182.0 186.0 L 184.0 186.0 L 187.0 186.0 L 189.0 186.0 L 192.0 186.0 L 194.0 186.0 L 196.0 186.0 L 199.0 186.0 L 201.0 186.0 L 203.0 187.0 L 205.0 188.0 L 206.0 188.0 L 207.0 189.0 L 208.0 190.0 L 209.0 192.0 L 209.0 193.0 L 209.0 195.0 L 209.0 197.0 L 209.0 200.0 L 209.0 202.0 L 208.0 205.0 L 206.0 208.0 L 205.0 211.0 L 204.0 214.0 L 204.0 216.0 L 204.0 218.0 L 204.0 220.0 L 204.0 221.0 L 204.0 223.0 L 205.0 224.0 L 207.0 225.0 L 209.0 226.0 L 211.0 227.0 L 213.0 227.0 L 216.0 228.0 L 219.0 229.0 L 222.0 229.0 L 226.0 229.0 L 229.0 229.0 L 232.0 228.0 L 235.0 226.0 L 237.0 224.0 L 238.0 222.0 L 240.0 220.0 L 240.0 218.0 L 241.0 216.0 L 241.0 216.0 " stroke="black" fill="none" stroke-width="5.0" stroke-linecap="round" stroke-linejoin="round" />
</svg>