<svg xmlns="http://www.w3.org/2000/svg" width="300" height="300" viewBox="0 0 300 300">
<path d="M 68.0 118.0 L 67.0 118.0 L 65.0 118.0 L 64.0 118.0 L 63.0 118.0 L 62.0 118.0 L 62.0 118.0 L 62.0 118.0 L 62.0 117.0 L 62.0 117.0 L 62.0 117.0 L 63.0 117.0 L 65.0 117.0 L 67.0 117.0 L 70.0 117.0 L 73.0 117.0 L 78.0 118.0 L 84.0 118.0 L 91.0 119.0 L 97.0 119.0 L 104.0 120.0 L 110.0 120.0 L 115.0 120.0 L 120.0 120.0 L 124.0 120.0 L 127.0 120.0 L 130.0 120.0 L 132.0 120.0 L 133.0 120.0 L 134.0 120.0 " stroke="black" fill="none" stroke-width="5.0" stroke-linecap="round" stroke-linejoin="round" />
<path d="M 100.0 72.0 L 100.0 72.0 L 100.0 72.0 L 100.0 72.0 L 100.0 71.0 L 100.0 71.0 L 100.0 71.0 L 100.0 71.0 L 100.0 71.0 L 100.0 72.0 L 99.0 74.0 L 99.0 76.0 L 99.0 79.0 L 99.0 83.0 L 99.0 87.0 L 99.0 93.0 L 99.0 99.0 L 99.0 106.0 L 100.0 112.0 L 100.0 119.0 L 100.0 125.0 L 101.0 131.0 L 101.0 137.0 L 101.0 143.0 L 101.0 149.0 L 101.0 155.0 L 101.0 160.0 L 101.0 165.0 L 101.0 170.0 L 101.0 175.0 L 101.0 180.0 L 101.0 187.0 L 101.0 194.0 L 101.0 200.0 L 101.0 208.0 L 101.0 215.0 L 101.0 223.0 L 101.0 231.0 L 101.0 237.0 L 101.0 242.0 L 101.0 245.0 L 101.0 246.0 L 101.0 247.0 L 101.0 247.0 L 102.0 245.0 " stroke="black" fill="none" stroke-width="5.0" stroke-linecap="round" stroke-linejoin="round" />
<path d="M 101.0 128.0 L 101.0 128.0 L 101.0 128.0 L 101.0 128.0 L 100.0 128.0 L 100.0 128.0 L 99.0 128.0 L 99.0 128.0 L 98.0 129.0 L 98.0 130.0 L 97.0 133.0 L 95.0 137.0 L 93.0 142.0 L 91.0 148.0 L 87.0 155.0 L 82.0 162.0 L 77.0 169.0 L 72.0 176.0 L 67.0 183.0 L 63.0 189.0 L 60.0 194.0 L 58.0 197.0 L 55.0 200.0 L 53.0 200.0 " stroke="black" fill="none" stroke-width="5.0" stroke-linecap="round" stroke-linejoin="round" />
<path d="M 100.0 152.0 L 100.0 152.0 L 99.0 152.0 L 99.0 152.0 L 99.0 152.0 L 99.0 152.0 L 100.0 152.0 L 102.0 154.0 L 104.0 156.0 L 107.0 159.0 L 111.0 163.0 L 115.0 166.0 L 120.0 170.0 L 126.0 173.0 " stroke="black" fill="none" stroke-width="5.0" stroke-linecap="round" stroke-linejoin="round" />
<path d="M 147.0 86.0 L 147.0 86.0 L 147.0 86.0 L 147.0 86.0 L 147.0 86.0 L 147.0 86.0 L 147.0 86.0 L 147.0 86.0 L 147.0 86.0 L 147.0 87.0 L 148.0 88.0 L 148.0 91.0 L 148.0 94.0 L 148.0 99.0 L 148.0 104.0 L 148.0 110.0 L 148.0 117.0 L 149.0 123.0 L 149.0 129.0 L 149.0 136.0 L 149.0 142.0 L 149.0 149.0 L 149.0 155.0 L 149.0 161.0 L 149.0 166.0 L 149.0 173.0 L 149.0 179.0 L 149.0 186.0 L 149.0 193.0 L 150.0 200.0 L 150.0 206.0 L 150.0 212.0 L 150.0 216.0 L 150.0 222.0 L 150.0 227.0 L 150.0 232.0 L 150.0 236.0 L 150.0 239.0 L 149.0 241.0 L 148.0 241.0 L 148.0 241.0 " stroke="black" fill="none" stroke-width="5.0" stroke-linecap="round" stroke-linejoin="round" />
<path d="M 154.0 86.0 L 154.0 86.0 L 153.0 85.0 L 153.0 85.0 L 152.0 85.0 L 151.0 85.0 L 151.0 84.0 L 150.0 84.0 L 150.0 84.0 L 150.0 83.0 L 150.0 83.0 L 150.0 83.0 L 150.0 83.0 L 150.0 83.0 L 150.0 83.0 L 151.0 83.0 L 152.0 83.0 L 153.0 83.0 L 155.0 82.0 L 157.0 82.0 L 159.0 82.0 L 162.0 82.0 L 164.0 81.0 L 167.0 81.0 L 170.0 81.0 L 174.0 81.0 L 177.0 80.0 L 181.0 80.0 L 184.0 80.0 L 187.0 80.0 L 190.0 80.0 L 192.0 80.0 L 194.0 80.0 L 196.0 80.0 L 197.0 80.0 L 198.0 80.0 L 200.0 79.0 L 201.0 79.0 L 203.0 79.0 L 205.0 79.0 L 206.0 79.0 L 208.0 79.0 L 210.0 79.0 L 212.0 79.0 L 214.0 79.0 L 216.0 79.0 L 218.0 79.0 L 220.0 79.0 L 222.0 79.0 L 223.0 79.0 L 225.0 79.0 L 227.0 79.0 L 228.0 79.0 L 230.0 79.0 L 231.0 79.0 L 232.0 79.0 L 233.0 79.0 L 234.0 79.0 L 235.0 79.0 L 235.0 79.0 L 235.0 79.0 L 236.0 79.0 L 236.0 79.0 L 236.0 79.0 L 236.0 79.0 L 236.0 80.0 L 237.0 80.0 L 237.0 81.0 L 237.0 82.0 L 237.0 83.0 L 237.0 84.0 L 237.0 86.0 L 237.0 88.0 L 237.0 91.0 L 237.0 94.0 L 237.0 98.0 L 237.0 102.0 L 237.0 107.0 L 237.0 111.0 L 236.0 115.0 L 236.0 119.0 L 236.0 123.0 L 236.0 127.0 L 236.0 131.0 L 236.0 135.0 L 236.0 139.0 L 236.0 144.0 L 236.0 150.0 L 236.0 155.0 L 236.0 160.0 L 236.0 165.0 L 235.0 170.0 L 235.0 174.0 L 235.0 178.0 L 235.0 183.0 L 235.0 187.0 L 235.0 192.0 L 234.0 196.0 L 234.0 200.0 L 234.0 204.0 L 234.0 207.0 L 234.0 211.0 L 234.0 216.0 L 234.0 221.0 L 234.0 226.0 L 234.0 231.0 L 234.0 235.0 L 234.0 238.0 L 234.0 241.0 L 233.0 244.0 L 233.0 246.0 L 233.0 248.0 L 233.0 250.0 L 233.0 252.0 L 233.0 253.0 L 232.0 254.0 L 232.0 254.0 L 232.0 254.0 L 232.0 253.0 L 232.0 252.0 " stroke="black" fill="none" stroke-width="5.0" stroke-linecap="round" stroke-linejoin="round" />
<path d="M 158.0 143.0 L 158.0 143.0 L 157.0 142.0 L 156.0 141.0 L 155.0 141.0 L 155.0 140.0 L 155.0 140.0 L 155.0 140.0 L 157.0 140.0 L 160.0 140.0 L 165.0 139.0 L 171.0 139.0 L 178.0 139.0 L 186.0 139.0 L 193.0 139.0 L 200.0 138.0 L 206.0 138.0 L 212.0 138.0 L 217.0 138.0 " stroke="black" fill="none" stroke-width="5.0" stroke-linecap="round" stroke-linejoin="round" />
<path d="M 159.0 184.0 L 157.0 184.0 L 156.0 184.0 L 155.0 184.0 L 154.0 184.0 L 154.0 184.0 L 155.0 184.0 L 157.0 184.0 L 160.0 184.0 L 165.0 184.0 L 171.0 183.0 L 177.0 183.0 L 185.0 182.0 L 191.0 181.0 L 199.0 180.0 L 208.0 178.0 L 217.0 177.0 L 221.0 177.0 " stroke="black" fill="none" stroke-width="5.0" stroke-linecap="round" stroke-linejoin="round" />
<path d="M 151.0 240.0 L 150.0 240.0 L 149.0 240.0 L 148.0 240.0 L 147.0 240.0 L 146.0 240.0 L 146.0 240.0 L 146.0 240.0 L 147.0 240.0 L 149.0 240.0 L 153.0 239.0 L 158.0 238.0 L 165.0 238.0 L 172.0 237.0 L 180.0 236.0 L 188.0 235.0 L 195.0 234.0 L 200.0 233.0 L 205.0 232.0 L 209.0 232.0 L 211.0 232.0 " stroke="black" fill="none" stroke-width="5.0" stroke-linecap="round" stroke-linejoin="round" />
</svg>