<svg xmlns="http://www.w3.org/2000/svg" width="300" height="300" viewBox="0 0 300 300">
<path d="M 73.0 92.0 L 72.0 91.0 L 72.0 91.0 L 71.0 90.0 L 71.0 90.0 L 71.0 89.0 L 71.0 89.0 L 71.0 89.0 L 71.0 89.0 L 72.0 89.0 L 74.0 89.0 L 77.0 90.0 L 82.0 90.0 L 87.0 90.0 L 93.0 90.0 L 99.0 90.0 L 105.0 90.0 L 111.0 89.0 L 116.0 88.0 L 122.0 87.0 " stroke="black" fill="none" stroke-width="5.0" stroke-linecap="round" stroke-linejoin="round" />
<path d="M 116.0 73.0 L 116.0 73.0 L 115.0 73.0 L 115.0 73.0 L 114.0 73.0 L 114.0 73.0 L 114.0 75.0 L 114.0 77.0 L 114.0 80.0 L 114.0 84.0 L 114.0 89.0 L 115.0 96.0 L 115.0 103.0 L 115.0 110.0 L 115.0 116.0 L 115.0 121.0 L 115.0 125.0 L 114.0 128.0 L 114.0 131.0 " stroke="black" fill="none" stroke-width="5.0" stroke-linecap="round" stroke-linejoin="round" />
<path d="M 74.0 145.0 L 74.0 145.0 L 72.0 145.0 L 71.0 146.0 L 69.0 146.0 L 69.0 146.0 L 68.0 147.0 L 68.0 147.0 L 70.0 147.0 L 73.0 146.0 L 77.0 144.0 L 83.0 141.0 L 91.0 138.0 L 99.0 135.0 L 108.0 131.0 L 118.0 127.0 L 128.0 124.0 L 138.0 121.0 L 143.0 120.0 " stroke="black" fill="none" stroke-width="5.0" stroke-linecap="round" stroke-linejoin="round" />
<path d="M 175.0 96.0 L 174.0 96.0 L 172.0 95.0 L 170.0 95.0 L 169.0 95.0 L 169.0 95.0 L 169.0 95.0 L 169.0 95.0 L 171.0 95.0 L 175.0 95.0 L 179.0 95.0 L 184.0 95.0 L 189.0 95.0 L 195.0 94.0 L 200.0 94.0 L 204.0 93.0 L 207.0 93.0 " stroke="black" fill="none" stroke-width="5.0" stroke-linecap="round" stroke-linejoin="round" />
<path d="M 169.0 79.0 L 169.0 79.0 L 168.0 79.0 L 166.0 80.0 L 166.0 81.0 L 165.0 82.0 L 164.0 84.0 L 164.0 85.0 L 163.0 87.0 L 163.0 90.0 L 163.0 93.0 L 163.0 97.0 L 163.0 101.0 L 162.0 105.0 L 162.0 108.0 L 161.0 112.0 L 161.0 116.0 L 160.0 119.0 L 160.0 122.0 L 159.0 124.0 L 159.0 126.0 L 159.0 128.0 L 159.0 129.0 L 159.0 130.0 L 159.0 131.0 L 159.0 132.0 L 160.0 132.0 L 161.0 133.0 L 161.0 134.0 L 162.0 134.0 L 163.0 135.0 L 164.0 135.0 L 166.0 135.0 L 168.0 136.0 L 170.0 136.0 L 173.0 136.0 L 177.0 137.0 L 181.0 137.0 L 185.0 137.0 L 190.0 137.0 L 194.0 137.0 L 198.0 137.0 L 203.0 137.0 L 207.0 137.0 L 212.0 136.0 L 218.0 136.0 L 223.0 136.0 L 227.0 135.0 L 231.0 135.0 L 234.0 135.0 L 235.0 135.0 L 235.0 135.0 L 235.0 134.0 L 235.0 134.0 L 234.0 133.0 L 233.0 131.0 L 232.0 130.0 L 230.0 128.0 L 227.0 126.0 " stroke="black" fill="none" stroke-width="5.0" stroke-linecap="round" stroke-linejoin="round" />
<path d="M 97.0 163.0 L 97.0 163.0 L 96.0 163.0 L 96.0 163.0 L 96.0 163.0 L 95.0 164.0 L 95.0 164.0 L 95.0 165.0 L 95.0 166.0 L 96.0 168.0 L 97.0 171.0 L 98.0 174.0 L 99.0 179.0 L 100.0 184.0 L 100.0 190.0 L 101.0 196.0 L 101.0 201.0 L 100.0 208.0 L 99.0 214.0 L 97.0 220.0 L 93.0 228.0 L 89.0 234.0 L 85.0 239.0 L 80.0 244.0 L 76.0 246.0 L 73.0 247.0 L 71.0 247.0 " stroke="black" fill="none" stroke-width="5.0" stroke-linecap="round" stroke-linejoin="round" />
<path d="M 101.0 160.0 L 101.0 160.0 L 101.0 160.0 L 101.0 160.0 L 100.0 161.0 L 100.0 161.0 L 100.0 161.0 L 100.0 161.0 L 100.0 161.0 L 100.0 161.0 L 100.0 161.0 L 100.0 161.0 L 100.0 161.0 L 100.0 161.0 L 101.0 161.0 L 102.0 161.0 L 102.0 161.0 L 103.0 161.0 L 104.0 161.0 L 105.0 160.0 L 106.0 160.0 L 108.0 160.0 L 110.0 160.0 L 112.0 160.0 L 114.0 159.0 L 116.0 159.0 L 119.0 159.0 L 122.0 159.0 L 125.0 158.0 L 128.0 158.0 L 131.0 158.0 L 134.0 157.0 L 138.0 157.0 L 141.0 157.0 L 143.0 157.0 L 145.0 156.0 L 147.0 156.0 L 149.0 156.0 L 150.0 155.0 L 152.0 155.0 L 153.0 155.0 L 154.0 155.0 L 155.0 155.0 L 155.0 155.0 L 156.0 155.0 L 157.0 155.0 L 159.0 155.0 L 160.0 155.0 L 161.0 155.0 L 162.0 155.0 L 164.0 155.0 L 165.0 155.0 L 167.0 155.0 L 168.0 155.0 L 170.0 155.0 L 171.0 155.0 L 173.0 155.0 L 175.0 154.0 L 176.0 154.0 L 178.0 154.0 L 180.0 154.0 L 182.0 154.0 L 183.0 153.0 L 185.0 153.0 L 186.0 153.0 L 188.0 153.0 L 189.0 153.0 L 190.0 153.0 L 191.0 153.0 L 192.0 153.0 L 193.0 153.0 L 194.0 153.0 L 195.0 153.0 L 196.0 153.0 L 196.0 153.0 L 197.0 153.0 L 197.0 153.0 L 198.0 153.0 L 198.0 153.0 L 198.0 153.0 L 199.0 153.0 L 199.0 153.0 L 200.0 153.0 L 200.0 154.0 L 200.0 154.0 L 201.0 154.0 L 201.0 154.0 L 202.0 155.0 L 202.0 155.0 L 202.0 156.0 L 202.0 157.0 L 203.0 159.0 L 203.0 160.0 L 203.0 162.0 L 204.0 164.0 L 204.0 166.0 L 205.0 169.0 L 205.0 171.0 L 206.0 174.0 L 206.0 176.0 L 206.0 179.0 L 207.0 181.0 L 207.0 184.0 L 207.0 186.0 L 207.0 188.0 L 207.0 191.0 L 207.0 194.0 L 207.0 196.0 L 207.0 200.0 L 206.0 203.0 L 206.0 206.0 L 206.0 210.0 L 206.0 213.0 L 206.0 217.0 L 206.0 221.0 L 206.0 224.0 L 205.0 228.0 L 204.0 233.0 L 203.0 236.0 L 202.0 240.0 L 202.0 243.0 L 201.0 245.0 L 200.0 247.0 L 200.0 248.0 L 199.0 250.0 L 199.0 251.0 L 199.0 252.0 L 199.0 253.0 L 199.0 254.0 L 198.0 254.0 L 198.0 255.0 L 198.0 255.0 L 197.0 255.0 L 196.0 255.0 L 195.0 255.0 L 193.0 255.0 L 192.0 255.0 L 190.0 254.0 L 188.0 252.0 L 185.0 250.0 L 182.0 248.0 L 180.0 246.0 " stroke="black" fill="none" stroke-width="5.0" stroke-linecap="round" stroke-linejoin="round" />
<path d="M 120.0 183.0 L 120.0 183.0 L 119.0 183.0 L 118.0 182.0 L 117.0 182.0 L 117.0 182.0 L 117.0 182.0 L 117.0 182.0 L 118.0 182.0 L 120.0 182.0 L 123.0 182.0 L 126.0 183.0 L 131.0 184.0 L 137.0 185.0 L 142.0 186.0 L 148.0 187.0 L 154.0 188.0 L 160.0 188.0 L 166.0 189.0 L 172.0 190.0 L 177.0 191.0 L 182.0 191.0 L 184.0 192.0 L 185.0 193.0 " stroke="black" fill="none" stroke-width="5.0" stroke-linecap="round" stroke-linejoin="round" />
<path d="M 120.0 219.0 L 119.0 219.0 L 116.0 219.0 L 114.0 219.0 L 112.0 219.0 L 112.0 220.0 L 112.0 220.0 L 112.0 220.0 L 112.0 220.0 L 114.0 220.0 L 116.0 220.0 L 119.0 220.0 L 124.0 219.0 L 130.0 218.0 L 136.0 217.0 L 143.0 215.0 L 150.0 214.0 L 157.0 211.0 L 168.0 208.0 L 178.0 205.0 L 187.0 202.0 L 194.0 199.0 L 197.0 198.0 L 198.0 198.0 L 198.0 198.0 " stroke="black" fill="none" stroke-width="5.0" stroke-linecap="round" stroke-linejoin="round" />
</svg>