<svg xmlns="http://www.w3.org/2000/svg" width="300" height="300" viewBox="0 0 300 300">
<path d="M 157.0 69.0 L 157.0 69.0 L 157.0 69.0 L 157.0 69.0 L 156.0 69.0 L 156.0 69.0 L 156.0 69.0 L 155.0 69.0 L 155.0 69.0 L 155.0 69.0 L 155.0 70.0 L 154.0 71.0 L 154.0 72.0 L 153.0 74.0 L 152.0 76.0 L 150.0 79.0 L 148.0 83.0 L 145.0 87.0 L 141.0 92.0 L 137.0 97.0 L 131.0 103.0 L 125.0 108.0 L 119.0 113.0 L 114.0 118.0 L 108.0 122.0 L 104.0 126.0 L 99.0 129.0 L 94.0 132.0 L 87.0 135.0 L 80.0 138.0 L 74.0 142.0 L 70.0 143.0 " stroke="black" fill="none" stroke-width="5.0" stroke-linecap="round" stroke-linejoin="round" />
<path d="M 154.0 88.0 L 153.0 88.0 L 153.0 88.0 L 152.0 88.0 L 152.0 88.0 L 151.0 87.0 L 151.0 87.0 L 151.0 87.0 L 151.0 87.0 L 151.0 88.0 L 152.0 89.0 L 154.0 91.0 L 156.0 93.0 L 159.0 95.0 L 162.0 98.0 L 167.0 101.0 L 173.0 104.0 L 180.0 107.0 L 186.0 110.0 L 192.0 114.0 L 197.0 117.0 L 201.0 121.0 L 207.0 125.0 L 212.0 129.0 L 218.0 133.0 L 225.0 137.0 L 230.0 139.0 L 236.0 141.0 L 240.0 142.0 L 244.0 143.0 L 248.0 144.0 L 250.0 144.0 " stroke="black" fill="none" stroke-width="5.0" stroke-linecap="round" stroke-linejoin="round" />
<path d="M 107.0 146.0 L 107.0 146.0 L 107.0 146.0 L 107.0 146.0 L 106.0 146.0 L 106.0 146.0 L 106.0 146.0 L 106.0 146.0 L 108.0 146.0 L 111.0 146.0 L 117.0 147.0 L 126.0 148.0 L 137.0 149.0 L 147.0 150.0 L 158.0 151.0 L 168.0 151.0 L 178.0 152.0 L 187.0 152.0 L 193.0 152.0 L 197.0 152.0 L 198.0 151.0 " stroke="black" fill="none" stroke-width="5.0" stroke-linecap="round" stroke-linejoin="round" />
<path d="M 97.0 181.0 L 97.0 181.0 L 96.0 180.0 L 96.0 179.0 L 95.0 179.0 L 95.0 179.0 L 95.0 179.0 L 95.0 179.0 L 95.0 180.0 L 96.0 182.0 L 97.0 185.0 L 98.0 189.0 L 99.0 194.0 L 100.0 200.0 L 101.0 207.0 L 102.0 216.0 L 102.0 225.0 L 103.0 234.0 L 104.0 240.0 L 105.0 244.0 L 106.0 245.0 L 107.0 245.0 " stroke="black" fill="none" stroke-width="5.0" stroke-linecap="round" stroke-linejoin="round" />
<path d="M 106.0 183.0 L 105.0 183.0 L 104.0 182.0 L 104.0 182.0 L 103.0 182.0 L 102.0 181.0 L 102.0 181.0 L 102.0 181.0 L 101.0 181.0 L 101.0 181.0 L 101.0 181.0 L 101.0 181.0 L 102.0 181.0 L 102.0 181.0 L 103.0 181.0 L 105.0 181.0 L 106.0 181.0 L 108.0 181.0 L 110.0 181.0 L 113.0 182.0 L 117.0 182.0 L 121.0 182.0 L 126.0 182.0 L 132.0 182.0 L 138.0 181.0 L 144.0 181.0 L 149.0 180.0 L 152.0 179.0 L 155.0 179.0 L 158.0 178.0 L 160.0 178.0 L 163.0 178.0 L 165.0 179.0 L 168.0 179.0 L 170.0 179.0 L 173.0 180.0 L 176.0 180.0 L 179.0 180.0 L 182.0 180.0 L 184.0 180.0 L 186.0 180.0 L 188.0 180.0 L 189.0 180.0 L 191.0 180.0 L 192.0 180.0 L 193.0 180.0 L 194.0 180.0 L 195.0 180.0 L 196.0 180.0 L 196.0 180.0 L 197.0 180.0 L 197.0 179.0 L 198.0 179.0 L 198.0 179.0 L 198.0 179.0 L 198.0 179.0 L 198.0 179.0 L 198.0 179.0 L 198.0 179.0 L 198.0 180.0 L 198.0 180.0 L 199.0 181.0 L 199.0 182.0 L 199.0 183.0 L 199.0 185.0 L 199.0 186.0 L 200.0 189.0 L 200.0 191.0 L 200.0 195.0 L 200.0 198.0 L 200.0 203.0 L 200.0 207.0 L 200.0 212.0 L 200.0 217.0 L 200.0 223.0 L 200.0 228.0 L 200.0 232.0 L 200.0 236.0 L 200.0 238.0 L 200.0 239.0 L 200.0 241.0 L 200.0 241.0 " stroke="black" fill="none" stroke-width="5.0" stroke-linecap="round" stroke-linejoin="round" />
<path d="M 109.0 244.0 L 109.0 244.0 L 108.0 244.0 L 107.0 244.0 L 106.0 244.0 L 106.0 244.0 L 106.0 244.0 L 106.0 244.0 L 106.0 244.0 L 107.0 243.0 L 110.0 243.0 L 114.0 243.0 L 121.0 243.0 L 129.0 242.0 L 137.0 242.0 L 146.0 242.0 L 154.0 242.0 L 162.0 242.0 L 169.0 242.0 L 177.0 242.0 L 184.0 242.0 L 190.0 242.0 L 194.0 241.0 L 198.0 239.0 L 199.0 239.0 " stroke="black" fill="none" stroke-width="5.0" stroke-linecap="round" stroke-linejoin="round" />
</svg>