<svg xmlns="http://www.w3.org/2000/svg" width="300" height="300" viewBox="0 0 300 300">
<path d="M 69.0 109.0 L 69.0 109.0 L 69.0 108.0 L 69.0 108.0 L 68.0 107.0 L 68.0 107.0 L 68.0 107.0 L 68.0 107.0 L 68.0 107.0 L 68.0 109.0 L 68.0 112.0 L 68.0 116.0 L 68.0 121.0 L 67.0 127.0 L 66.0 136.0 L 65.0 145.0 L 64.0 154.0 L 64.0 160.0 L 64.0 164.0 L 64.0 164.0 " stroke="black" fill="none" stroke-width="5.0" stroke-linecap="round" stroke-linejoin="round" />
<path d="M 85.0 76.0 L 85.0 76.0 L 85.0 77.0 L 85.0 77.0 L 84.0 78.0 L 84.0 79.0 L 84.0 80.0 L 84.0 81.0 L 84.0 82.0 L 84.0 83.0 L 85.0 85.0 L 85.0 86.0 L 86.0 88.0 L 86.0 91.0 L 87.0 93.0 L 87.0 97.0 L 88.0 101.0 L 88.0 105.0 L 89.0 109.0 L 89.0 113.0 L 89.0 116.0 L 89.0 119.0 L 90.0 123.0 L 90.0 125.0 L 90.0 128.0 L 90.0 131.0 L 90.0 134.0 L 90.0 138.0 L 90.0 142.0 L 90.0 146.0 L 89.0 150.0 L 89.0 154.0 L 89.0 157.0 L 89.0 160.0 L 89.0 163.0 L 89.0 166.0 L 89.0 168.0 L 89.0 171.0 L 89.0 174.0 L 89.0 177.0 L 89.0 181.0 L 89.0 185.0 L 89.0 188.0 L 89.0 192.0 L 89.0 195.0 L 89.0 198.0 L 89.0 201.0 L 89.0 204.0 L 88.0 207.0 L 88.0 210.0 L 88.0 213.0 L 88.0 216.0 L 88.0 220.0 L 88.0 223.0 L 89.0 227.0 L 89.0 231.0 L 89.0 235.0 L 89.0 238.0 L 89.0 241.0 L 89.0 244.0 L 89.0 246.0 L 89.0 248.0 L 89.0 249.0 L 89.0 250.0 L 89.0 252.0 L 89.0 252.0 L 89.0 252.0 " stroke="black" fill="none" stroke-width="5.0" stroke-linecap="round" stroke-linejoin="round" />
<path d="M 103.0 107.0 L 103.0 107.0 L 103.0 107.0 L 103.0 107.0 L 103.0 108.0 L 103.0 108.0 L 103.0 110.0 L 103.0 112.0 L 104.0 116.0 L 105.0 120.0 L 106.0 126.0 L 107.0 132.0 L 108.0 138.0 L 109.0 144.0 L 110.0 149.0 L 110.0 152.0 L 111.0 153.0 " stroke="black" fill="none" stroke-width="5.0" stroke-linecap="round" stroke-linejoin="round" />
<path d="M 142.0 85.0 L 142.0 85.0 L 142.0 85.0 L 142.0 85.0 L 141.0 85.0 L 141.0 85.0 L 141.0 85.0 L 141.0 85.0 L 141.0 85.0 L 141.0 85.0 L 141.0 88.0 L 141.0 91.0 L 141.0 97.0 L 142.0 105.0 L 142.0 114.0 L 142.0 124.0 L 142.0 134.0 L 141.0 144.0 L 140.0 152.0 L 139.0 157.0 L 139.0 159.0 L 138.0 160.0 L 138.0 160.0 " stroke="black" fill="none" stroke-width="5.0" stroke-linecap="round" stroke-linejoin="round" />
<path d="M 148.0 83.0 L 148.0 83.0 L 147.0 83.0 L 147.0 83.0 L 146.0 83.0 L 146.0 83.0 L 145.0 82.0 L 145.0 82.0 L 145.0 82.0 L 145.0 82.0 L 145.0 82.0 L 146.0 82.0 L 147.0 82.0 L 149.0 82.0 L 151.0 82.0 L 153.0 82.0 L 156.0 82.0 L 160.0 82.0 L 164.0 82.0 L 169.0 82.0 L 175.0 82.0 L 180.0 82.0 L 184.0 83.0 L 189.0 83.0 L 192.0 83.0 L 195.0 84.0 L 197.0 84.0 L 199.0 84.0 L 200.0 85.0 L 201.0 85.0 L 202.0 86.0 L 204.0 86.0 L 205.0 87.0 L 206.0 87.0 L 207.0 87.0 L 208.0 88.0 L 208.0 88.0 " stroke="black" fill="none" stroke-width="5.0" stroke-linecap="round" stroke-linejoin="round" />
<path d="M 151.0 109.0 L 151.0 109.0 L 150.0 109.0 L 150.0 109.0 L 150.0 109.0 L 150.0 109.0 L 150.0 109.0 L 150.0 109.0 L 151.0 109.0 L 154.0 109.0 L 157.0 109.0 L 162.0 109.0 L 169.0 109.0 L 176.0 109.0 L 183.0 109.0 L 189.0 109.0 L 194.0 110.0 L 197.0 110.0 L 199.0 111.0 L 200.0 112.0 " stroke="black" fill="none" stroke-width="5.0" stroke-linecap="round" stroke-linejoin="round" />
<path d="M 153.0 135.0 L 153.0 135.0 L 151.0 135.0 L 149.0 136.0 L 148.0 136.0 L 147.0 137.0 L 147.0 137.0 L 147.0 137.0 L 147.0 137.0 L 147.0 137.0 L 148.0 137.0 L 150.0 137.0 L 153.0 137.0 L 156.0 137.0 L 160.0 137.0 L 166.0 136.0 L 172.0 136.0 L 178.0 135.0 L 185.0 135.0 L 191.0 134.0 L 195.0 134.0 L 198.0 134.0 L 200.0 134.0 " stroke="black" fill="none" stroke-width="5.0" stroke-linecap="round" stroke-linejoin="round" />
<path d="M 112.0 168.0 L 112.0 168.0 L 112.0 168.0 L 112.0 168.0 L 112.0 168.0 L 112.0 168.0 L 112.0 168.0 L 112.0 168.0 L 112.0 168.0 L 112.0 168.0 L 112.0 168.0 L 113.0 168.0 L 114.0 168.0 L 116.0 168.0 L 118.0 168.0 L 122.0 168.0 L 126.0 168.0 L 131.0 168.0 L 137.0 168.0 L 142.0 168.0 L 148.0 168.0 L 152.0 167.0 L 156.0 166.0 L 159.0 165.0 L 162.0 165.0 L 164.0 165.0 L 167.0 165.0 L 169.0 165.0 L 172.0 165.0 L 175.0 165.0 L 178.0 166.0 L 180.0 166.0 L 183.0 166.0 L 186.0 166.0 L 188.0 167.0 L 190.0 167.0 L 193.0 167.0 L 194.0 167.0 L 196.0 167.0 L 197.0 168.0 L 198.0 168.0 L 200.0 168.0 L 201.0 168.0 L 203.0 168.0 L 205.0 168.0 L 207.0 168.0 L 210.0 168.0 L 212.0 168.0 L 215.0 168.0 L 218.0 168.0 L 220.0 168.0 L 222.0 168.0 L 224.0 168.0 L 225.0 168.0 L 226.0 168.0 L 227.0 168.0 L 227.0 168.0 L 227.0 168.0 " stroke="black" fill="none" stroke-width="5.0" stroke-linecap="round" stroke-linejoin="round" />
<path d="M 134.0 172.0 L 134.0 172.0 L 134.0 173.0 L 134.0 173.0 L 134.0 174.0 L 134.0 176.0 L 134.0 177.0 L 134.0 179.0 L 134.0 182.0 L 134.0 186.0 L 134.0 190.0 L 134.0 194.0 L 134.0 199.0 L 133.0 203.0 L 133.0 208.0 L 133.0 212.0 L 132.0 216.0 L 131.0 221.0 L 130.0 225.0 L 129.0 230.0 L 127.0 235.0 L 126.0 239.0 L 125.0 243.0 L 124.0 246.0 L 123.0 249.0 L 123.0 251.0 L 123.0 253.0 L 123.0 254.0 L 123.0 255.0 L 123.0 255.0 L 123.0 255.0 L 124.0 255.0 L 124.0 255.0 L 125.0 255.0 L 126.0 255.0 L 127.0 255.0 L 128.0 255.0 L 130.0 254.0 L 133.0 253.0 L 136.0 252.0 L 140.0 250.0 L 144.0 247.0 L 148.0 244.0 L 152.0 241.0 L 156.0 237.0 L 160.0 233.0 L 165.0 229.0 L 168.0 227.0 " stroke="black" fill="none" stroke-width="5.0" stroke-linecap="round" stroke-linejoin="round" />
<path d="M 217.0 194.0 L 217.0 194.0 L 216.0 194.0 L 216.0 194.0 L 215.0 194.0 L 213.0 194.0 L 212.0 195.0 L 210.0 195.0 L 208.0 196.0 L 205.0 198.0 L 202.0 200.0 L 198.0 202.0 L 195.0 204.0 L 192.0 206.0 L 189.0 208.0 L 187.0 209.0 " stroke="black" fill="none" stroke-width="5.0" stroke-linecap="round" stroke-linejoin="round" />
<path d="M 171.0 189.0 L 170.0 189.0 L 170.0 189.0 L 169.0 188.0 L 169.0 188.0 L 169.0 188.0 L 169.0 188.0 L 169.0 188.0 L 169.0 188.0 L 169.0 188.0 L 171.0 189.0 L 173.0 191.0 L 175.0 193.0 L 178.0 195.0 L 180.0 197.0 L 183.0 200.0 L 186.0 203.0 L 189.0 207.0 L 191.0 212.0 L 194.0 217.0 L 196.0 223.0 L 199.0 228.0 L 201.0 232.0 L 204.0 236.0 L 206.0 239.0 L 209.0 241.0 L 212.0 243.0 L 214.0 244.0 L 217.0 246.0 L 220.0 247.0 L 222.0 248.0 L 224.0 248.0 L 225.0 249.0 L 227.0 249.0 " stroke="black" fill="none" stroke-width="5.0" stroke-linecap="round" stroke-linejoin="round" />
</svg>