<svg xmlns="http://www.w3.org/2000/svg" width="300" height="300" viewBox="0 0 300 300">
<path d="M 148.0 66.0 L 148.0 66.0 L 147.0 66.0 L 147.0 66.0 L 146.0 67.0 L 146.0 68.0 L 146.0 70.0 L 146.0 73.0 L 147.0 77.0 L 148.0 81.0 L 150.0 85.0 L 152.0 89.0 L 154.0 92.0 L 154.0 94.0 " stroke="black" fill="none" stroke-width="5.0" stroke-linecap="round" stroke-linejoin="round" />
<path d="M 93.0 91.0 L 93.0 91.0 L 91.0 91.0 L 90.0 91.0 L 90.0 90.0 L 90.0 90.0 L 90.0 90.0 L 91.0 90.0 L 93.0 91.0 L 96.0 91.0 L 100.0 92.0 L 104.0 92.0 L 110.0 92.0 L 118.0 92.0 L 128.0 93.0 L 140.0 93.0 L 152.0 93.0 L 161.0 93.0 L 171.0 93.0 L 181.0 93.0 L 188.0 94.0 L 193.0 95.0 L 197.0 95.0 L 199.0 95.0 L 200.0 95.0 " stroke="black" fill="none" stroke-width="5.0" stroke-linecap="round" stroke-linejoin="round" />
<path d="M 117.0 98.0 L 116.0 98.0 L 115.0 98.0 L 114.0 98.0 L 113.0 98.0 L 113.0 98.0 L 113.0 99.0 L 114.0 101.0 L 115.0 103.0 L 117.0 105.0 L 119.0 107.0 L 122.0 110.0 L 124.0 113.0 L 126.0 115.0 L 129.0 118.0 " stroke="black" fill="none" stroke-width="5.0" stroke-linecap="round" stroke-linejoin="round" />
<path d="M 190.0 92.0 L 190.0 92.0 L 189.0 93.0 L 188.0 94.0 L 187.0 95.0 L 186.0 97.0 L 185.0 99.0 L 184.0 101.0 L 182.0 104.0 L 179.0 107.0 L 175.0 110.0 L 171.0 113.0 L 166.0 117.0 L 161.0 120.0 L 157.0 124.0 L 155.0 125.0 " stroke="black" fill="none" stroke-width="5.0" stroke-linecap="round" stroke-linejoin="round" />
<path d="M 71.0 123.0 L 71.0 123.0 L 70.0 123.0 L 69.0 123.0 L 69.0 123.0 L 69.0 123.0 L 69.0 123.0 L 70.0 123.0 L 72.0 123.0 L 75.0 123.0 L 80.0 124.0 L 87.0 124.0 L 95.0 124.0 L 104.0 124.0 L 113.0 124.0 L 125.0 124.0 L 139.0 124.0 L 151.0 124.0 L 162.0 123.0 L 175.0 122.0 L 187.0 121.0 L 196.0 121.0 L 203.0 121.0 L 208.0 121.0 L 214.0 121.0 L 220.0 123.0 L 224.0 124.0 L 227.0 126.0 L 228.0 127.0 " stroke="black" fill="none" stroke-width="5.0" stroke-linecap="round" stroke-linejoin="round" />
<path d="M 101.0 148.0 L 101.0 147.0 L 101.0 146.0 L 100.0 145.0 L 100.0 144.0 L 100.0 144.0 L 100.0 144.0 L 100.0 146.0 L 100.0 149.0 L 101.0 153.0 L 101.0 158.0 L 101.0 162.0 L 101.0 168.0 L 101.0 172.0 L 101.0 177.0 L 101.0 181.0 L 101.0 184.0 L 100.0 186.0 L 100.0 187.0 " stroke="black" fill="none" stroke-width="5.0" stroke-linecap="round" stroke-linejoin="round" />
<path d="M 108.0 147.0 L 108.0 147.0 L 108.0 147.0 L 107.0 147.0 L 107.0 146.0 L 107.0 146.0 L 107.0 146.0 L 106.0 146.0 L 106.0 146.0 L 106.0 146.0 L 106.0 146.0 L 107.0 146.0 L 107.0 146.0 L 108.0 146.0 L 109.0 146.0 L 111.0 147.0 L 112.0 147.0 L 114.0 147.0 L 116.0 148.0 L 119.0 148.0 L 121.0 148.0 L 124.0 148.0 L 128.0 148.0 L 131.0 148.0 L 135.0 148.0 L 138.0 148.0 L 141.0 148.0 L 144.0 148.0 L 147.0 148.0 L 150.0 148.0 L 151.0 148.0 L 153.0 148.0 L 155.0 148.0 L 156.0 148.0 L 157.0 148.0 L 159.0 148.0 L 160.0 148.0 L 161.0 148.0 L 163.0 148.0 L 164.0 148.0 L 166.0 148.0 L 168.0 148.0 L 169.0 148.0 L 171.0 148.0 L 173.0 148.0 L 175.0 148.0 L 177.0 148.0 L 179.0 148.0 L 182.0 148.0 L 184.0 148.0 L 186.0 148.0 L 188.0 148.0 L 190.0 148.0 L 191.0 148.0 L 192.0 148.0 L 194.0 148.0 L 194.0 148.0 L 195.0 149.0 L 196.0 149.0 L 196.0 150.0 L 197.0 150.0 L 198.0 150.0 L 198.0 150.0 L 198.0 151.0 L 199.0 151.0 L 199.0 151.0 L 200.0 152.0 L 200.0 152.0 L 200.0 153.0 L 200.0 154.0 L 201.0 155.0 L 201.0 156.0 L 201.0 158.0 L 201.0 161.0 L 201.0 163.0 L 201.0 167.0 L 201.0 171.0 L 201.0 176.0 L 201.0 180.0 L 201.0 184.0 L 201.0 188.0 L 201.0 190.0 L 201.0 191.0 L 201.0 191.0 L 200.0 191.0 " stroke="black" fill="none" stroke-width="5.0" stroke-linecap="round" stroke-linejoin="round" />
<path d="M 107.0 168.0 L 106.0 168.0 L 105.0 167.0 L 105.0 166.0 L 104.0 166.0 L 104.0 166.0 L 104.0 166.0 L 104.0 166.0 L 105.0 165.0 L 107.0 165.0 L 110.0 165.0 L 115.0 165.0 L 122.0 165.0 L 131.0 165.0 L 141.0 165.0 L 150.0 165.0 L 158.0 165.0 L 167.0 165.0 L 175.0 164.0 L 182.0 164.0 L 186.0 164.0 " stroke="black" fill="none" stroke-width="5.0" stroke-linecap="round" stroke-linejoin="round" />
<path d="M 110.0 198.0 L 110.0 198.0 L 108.0 198.0 L 107.0 198.0 L 106.0 198.0 L 105.0 198.0 L 105.0 198.0 L 105.0 198.0 L 105.0 198.0 L 105.0 198.0 L 106.0 197.0 L 109.0 197.0 L 112.0 197.0 L 116.0 197.0 L 122.0 197.0 L 130.0 198.0 L 138.0 198.0 L 146.0 198.0 L 154.0 198.0 L 162.0 198.0 L 169.0 198.0 L 177.0 198.0 L 183.0 198.0 L 187.0 198.0 L 189.0 198.0 " stroke="black" fill="none" stroke-width="5.0" stroke-linecap="round" stroke-linejoin="round" />
<path d="M 95.0 211.0 L 94.0 211.0 L 93.0 211.0 L 91.0 211.0 L 90.0 211.0 L 89.0 213.0 L 88.0 215.0 L 86.0 219.0 L 84.0 225.0 L 81.0 231.0 L 79.0 236.0 L 76.0 241.0 L 74.0 246.0 L 73.0 248.0 L 72.0 250.0 L 72.0 250.0 " stroke="black" fill="none" stroke-width="5.0" stroke-linecap="round" stroke-linejoin="round" />
<path d="M 111.0 215.0 L 111.0 215.0 L 111.0 215.0 L 111.0 215.0 L 111.0 215.0 L 111.0 215.0 L 111.0 215.0 L 111.0 215.0 L 111.0 215.0 L 111.0 215.0 L 111.0 215.0 L 111.0 215.0 L 111.0 215.0 L 111.0 216.0 L 111.0 218.0 L 111.0 219.0 L 111.0 221.0 L 111.0 224.0 L 111.0 227.0 L 111.0 230.0 L 111.0 233.0 L 111.0 236.0 L 111.0 238.0 L 111.0 240.0 L 111.0 242.0 L 111.0 244.0 L 111.0 245.0 L 111.0 246.0 L 111.0 247.0 L 111.0 247.0 L 111.0 247.0 L 111.0 247.0 L 111.0 247.0 L 112.0 248.0 L 112.0 248.0 L 113.0 248.0 L 115.0 248.0 L 116.0 248.0 L 118.0 248.0 L 120.0 248.0 L 123.0 248.0 L 125.0 248.0 L 129.0 249.0 L 133.0 249.0 L 138.0 249.0 L 143.0 249.0 L 148.0 249.0 L 152.0 249.0 L 156.0 249.0 L 161.0 250.0 L 166.0 250.0 L 172.0 250.0 L 177.0 250.0 L 182.0 249.0 L 186.0 249.0 L 189.0 248.0 L 191.0 247.0 L 192.0 246.0 L 192.0 245.0 L 192.0 244.0 L 192.0 243.0 L 192.0 242.0 L 191.0 240.0 L 190.0 238.0 L 189.0 236.0 L 187.0 234.0 L 186.0 233.0 " stroke="black" fill="none" stroke-width="5.0" stroke-linecap="round" stroke-linejoin="round" />
<path d="M 146.0 215.0 L 145.0 215.0 L 144.0 214.0 L 143.0 213.0 L 143.0 213.0 L 143.0 213.0 L 143.0 213.0 L 143.0 213.0 L 143.0 214.0 L 145.0 216.0 L 146.0 218.0 L 148.0 220.0 L 151.0 223.0 L 153.0 225.0 L 156.0 228.0 L 160.0 230.0 " stroke="black" fill="none" stroke-width="5.0" stroke-linecap="round" stroke-linejoin="round" />
<path d="M 199.0 211.0 L 199.0 211.0 L 198.0 211.0 L 198.0 210.0 L 198.0 210.0 L 198.0 210.0 L 198.0 210.0 L 200.0 212.0 L 202.0 214.0 L 205.0 218.0 L 209.0 222.0 L 212.0 227.0 L 215.0 232.0 L 219.0 238.0 L 222.0 244.0 " stroke="black" fill="none" stroke-width="5.0" stroke-linecap="round" stroke-linejoin="round" />
</svg>