<svg xmlns="http://www.w3.org/2000/svg" width="300" height="300" viewBox="0 0 300 300">
<path d="M 80.0 105.0 L 79.0 105.0 L 78.0 104.0 L 77.0 104.0 L 76.0 103.0 L 76.0 103.0 L 76.0 103.0 L 76.0 103.0 L 78.0 103.0 L 80.0 103.0 L 83.0 103.0 L 88.0 103.0 L 93.0 104.0 L 98.0 105.0 L 105.0 105.0 L 113.0 106.0 L 124.0 107.0 L 136.0 107.0 L 148.0 107.0 L 157.0 107.0 L 165.0 107.0 L 173.0 107.0 L 180.0 107.0 L 187.0 107.0 L 192.0 107.0 L 195.0 107.0 L 198.0 106.0 L 201.0 106.0 L 203.0 106.0 L 205.0 106.0 " stroke="black" fill="none" stroke-width="5.0" stroke-linecap="round" stroke-linejoin="round" />
<path d="M 127.0 79.0 L 126.0 79.0 L 126.0 79.0 L 125.0 79.0 L 124.0 79.0 L 124.0 79.0 L 124.0 80.0 L 124.0 81.0 L 124.0 83.0 L 124.0 85.0 L 124.0 88.0 L 124.0 92.0 L 124.0 98.0 L 124.0 104.0 L 123.0 110.0 L 119.0 117.0 L 115.0 125.0 L 111.0 132.0 L 106.0 141.0 L 101.0 149.0 L 95.0 156.0 L 88.0 162.0 L 80.0 168.0 L 73.0 172.0 L 68.0 175.0 L 64.0 177.0 " stroke="black" fill="none" stroke-width="5.0" stroke-linecap="round" stroke-linejoin="round" />
<path d="M 109.0 143.0 L 109.0 142.0 L 109.0 141.0 L 108.0 141.0 L 108.0 140.0 L 108.0 140.0 L 108.0 140.0 L 108.0 140.0 L 108.0 142.0 L 108.0 143.0 L 108.0 146.0 L 108.0 149.0 L 109.0 153.0 L 109.0 157.0 L 110.0 162.0 L 110.0 168.0 L 111.0 174.0 L 111.0 182.0 L 111.0 191.0 L 110.0 199.0 L 109.0 208.0 L 107.0 216.0 L 105.0 224.0 L 103.0 232.0 L 101.0 237.0 L 98.0 241.0 L 95.0 244.0 L 93.0 245.0 L 91.0 245.0 " stroke="black" fill="none" stroke-width="5.0" stroke-linecap="round" stroke-linejoin="round" />
<path d="M 118.0 138.0 L 118.0 138.0 L 118.0 138.0 L 118.0 138.0 L 118.0 137.0 L 118.0 137.0 L 118.0 136.0 L 118.0 136.0 L 118.0 136.0 L 118.0 135.0 L 118.0 135.0 L 119.0 135.0 L 120.0 135.0 L 121.0 134.0 L 124.0 134.0 L 128.0 134.0 L 132.0 134.0 L 137.0 134.0 L 143.0 134.0 L 148.0 134.0 L 152.0 134.0 L 157.0 134.0 L 160.0 134.0 L 164.0 134.0 L 168.0 134.0 L 172.0 134.0 L 176.0 133.0 L 179.0 133.0 L 182.0 133.0 L 186.0 133.0 L 188.0 133.0 L 191.0 132.0 L 193.0 132.0 L 194.0 132.0 L 196.0 132.0 L 198.0 132.0 L 199.0 131.0 L 201.0 131.0 L 203.0 131.0 L 204.0 131.0 L 206.0 131.0 L 207.0 131.0 L 209.0 131.0 L 210.0 131.0 L 210.0 131.0 L 211.0 131.0 L 212.0 131.0 L 212.0 132.0 L 212.0 132.0 L 213.0 133.0 L 213.0 133.0 L 213.0 134.0 L 213.0 136.0 L 213.0 137.0 L 213.0 139.0 L 213.0 142.0 L 213.0 145.0 L 212.0 148.0 L 212.0 151.0 L 211.0 155.0 L 211.0 159.0 L 210.0 164.0 L 209.0 169.0 L 209.0 173.0 L 208.0 178.0 L 207.0 184.0 L 207.0 189.0 L 206.0 194.0 L 206.0 199.0 L 205.0 203.0 L 205.0 207.0 L 204.0 211.0 L 203.0 215.0 L 202.0 219.0 L 201.0 224.0 L 200.0 228.0 L 199.0 233.0 L 198.0 238.0 L 197.0 242.0 L 196.0 245.0 L 196.0 248.0 L 195.0 250.0 L 195.0 252.0 L 194.0 253.0 L 194.0 255.0 L 194.0 256.0 L 194.0 258.0 L 193.0 259.0 L 193.0 260.0 L 192.0 261.0 L 191.0 261.0 L 190.0 261.0 L 188.0 262.0 L 186.0 262.0 L 183.0 261.0 L 179.0 259.0 L 174.0 255.0 L 169.0 252.0 L 163.0 247.0 L 158.0 242.0 " stroke="black" fill="none" stroke-width="5.0" stroke-linecap="round" stroke-linejoin="round" />
<path d="M 126.0 174.0 L 124.0 174.0 L 122.0 173.0 L 120.0 173.0 L 120.0 172.0 L 119.0 172.0 L 119.0 172.0 L 121.0 171.0 L 123.0 171.0 L 126.0 171.0 L 131.0 171.0 L 137.0 171.0 L 143.0 171.0 L 150.0 171.0 L 158.0 170.0 L 168.0 170.0 L 179.0 169.0 L 188.0 169.0 L 194.0 169.0 L 197.0 169.0 L 199.0 170.0 L 200.0 171.0 " stroke="black" fill="none" stroke-width="5.0" stroke-linecap="round" stroke-linejoin="round" />
<path d="M 126.0 208.0 L 123.0 208.0 L 121.0 208.0 L 119.0 208.0 L 119.0 207.0 L 118.0 207.0 L 118.0 206.0 L 119.0 206.0 L 122.0 205.0 L 125.0 204.0 L 130.0 204.0 L 136.0 204.0 L 142.0 203.0 L 148.0 203.0 L 155.0 202.0 L 163.0 202.0 L 172.0 201.0 L 182.0 200.0 L 191.0 200.0 L 197.0 199.0 " stroke="black" fill="none" stroke-width="5.0" stroke-linecap="round" stroke-linejoin="round" />
</svg>