<svg xmlns="http://www.w3.org/2000/svg" width="300" height="300" viewBox="0 0 300 300">
<path d="M 64.0 97.0 L 64.0 97.0 L 64.0 97.0 L 64.0 97.0 L 64.0 97.0 L 64.0 97.0 L 64.0 97.0 L 66.0 97.0 L 70.0 97.0 L 77.0 97.0 L 86.0 97.0 L 97.0 97.0 L 108.0 97.0 L 120.0 98.0 L 134.0 99.0 L 148.0 100.0 L 159.0 100.0 L 172.0 100.0 L 185.0 100.0 L 194.0 100.0 L 201.0 100.0 L 207.0 100.0 L 211.0 100.0 L 215.0 101.0 L 218.0 102.0 L 219.0 104.0 L 219.0 104.0 " stroke="black" fill="none" stroke-width="5.0" stroke-linecap="round" stroke-linejoin="round" />
<path d="M 134.0 77.0 L 134.0 76.0 L 133.0 76.0 L 133.0 75.0 L 133.0 75.0 L 133.0 75.0 L 133.0 75.0 L 133.0 75.0 L 133.0 77.0 L 132.0 80.0 L 131.0 84.0 L 129.0 89.0 L 127.0 96.0 L 123.0 104.0 L 119.0 112.0 L 114.0 120.0 L 109.0 128.0 L 103.0 137.0 L 97.0 145.0 L 88.0 153.0 L 78.0 160.0 L 70.0 166.0 L 64.0 170.0 L 61.0 173.0 L 59.0 175.0 " stroke="black" fill="none" stroke-width="5.0" stroke-linecap="round" stroke-linejoin="round" />
<path d="M 108.0 142.0 L 108.0 142.0 L 108.0 142.0 L 107.0 142.0 L 107.0 141.0 L 107.0 141.0 L 107.0 142.0 L 107.0 143.0 L 107.0 145.0 L 107.0 147.0 L 107.0 150.0 L 108.0 154.0 L 108.0 158.0 L 109.0 163.0 L 110.0 170.0 L 111.0 178.0 L 112.0 188.0 L 112.0 198.0 L 111.0 210.0 L 107.0 224.0 L 102.0 237.0 L 95.0 247.0 L 88.0 254.0 L 82.0 258.0 " stroke="black" fill="none" stroke-width="5.0" stroke-linecap="round" stroke-linejoin="round" />
<path d="M 110.0 143.0 L 110.0 143.0 L 109.0 143.0 L 108.0 143.0 L 107.0 143.0 L 107.0 143.0 L 107.0 143.0 L 107.0 143.0 L 107.0 143.0 L 107.0 143.0 L 109.0 143.0 L 111.0 143.0 L 115.0 143.0 L 119.0 143.0 L 126.0 143.0 L 133.0 142.0 L 142.0 142.0 L 149.0 141.0 L 156.0 141.0 L 164.0 141.0 L 171.0 141.0 L 178.0 141.0 L 186.0 141.0 L 192.0 141.0 L 196.0 141.0 L 200.0 141.0 L 202.0 141.0 L 205.0 141.0 L 208.0 141.0 L 210.0 141.0 L 211.0 142.0 L 212.0 142.0 L 213.0 143.0 L 214.0 144.0 L 214.0 144.0 L 214.0 145.0 L 215.0 146.0 L 215.0 147.0 L 215.0 149.0 L 215.0 151.0 L 215.0 153.0 L 215.0 155.0 L 215.0 158.0 L 215.0 162.0 L 215.0 165.0 L 215.0 169.0 L 215.0 174.0 L 215.0 180.0 L 214.0 187.0 L 213.0 195.0 L 212.0 203.0 L 211.0 211.0 L 209.0 219.0 L 208.0 227.0 L 206.0 234.0 L 205.0 240.0 L 204.0 243.0 L 204.0 245.0 L 203.0 247.0 L 202.0 248.0 L 201.0 248.0 L 199.0 249.0 L 198.0 250.0 L 196.0 251.0 L 195.0 252.0 L 193.0 252.0 L 191.0 253.0 L 190.0 253.0 L 188.0 253.0 L 187.0 251.0 L 185.0 250.0 " stroke="black" fill="none" stroke-width="5.0" stroke-linecap="round" stroke-linejoin="round" />
<path d="M 111.0 176.0 L 111.0 176.0 L 111.0 175.0 L 110.0 175.0 L 110.0 174.0 L 111.0 173.0 L 113.0 172.0 L 118.0 172.0 L 125.0 171.0 L 135.0 170.0 L 146.0 170.0 L 156.0 170.0 L 168.0 169.0 L 180.0 169.0 L 189.0 169.0 L 196.0 168.0 L 201.0 168.0 L 203.0 168.0 " stroke="black" fill="none" stroke-width="5.0" stroke-linecap="round" stroke-linejoin="round" />
<path d="M 124.0 205.0 L 121.0 205.0 L 118.0 205.0 L 116.0 205.0 L 115.0 205.0 L 115.0 205.0 L 115.0 205.0 L 117.0 205.0 L 120.0 205.0 L 126.0 205.0 L 133.0 205.0 L 142.0 205.0 L 150.0 204.0 L 162.0 204.0 L 175.0 202.0 L 189.0 201.0 L 200.0 199.0 L 209.0 199.0 " stroke="black" fill="none" stroke-width="5.0" stroke-linecap="round" stroke-linejoin="round" />
</svg>