<svg xmlns="http://www.w3.org/2000/svg" width="300" height="300" viewBox="0 0 300 300">
<path d="M 68.0 99.0 L 68.0 99.0 L 67.0 99.0 L 67.0 99.0 L 66.0 99.0 L 66.0 99.0 L 65.0 100.0 L 65.0 100.0 L 65.0 100.0 L 65.0 100.0 L 65.0 100.0 L 65.0 101.0 L 65.0 101.0 L 65.0 101.0 L 65.0 102.0 L 66.0 102.0 L 66.0 102.0 L 67.0 102.0 L 68.0 102.0 L 69.0 103.0 L 69.0 103.0 L 70.0 103.0 L 71.0 103.0 L 73.0 103.0 L 74.0 103.0 L 75.0 103.0 L 77.0 103.0 L 79.0 103.0 L 80.0 103.0 L 82.0 103.0 L 84.0 103.0 L 85.0 103.0 L 87.0 103.0 L 89.0 103.0 L 90.0 103.0 L 91.0 103.0 L 92.0 103.0 L 93.0 103.0 L 94.0 103.0 L 96.0 103.0 L 97.0 103.0 L 98.0 103.0 L 99.0 103.0 L 100.0 103.0 L 101.0 103.0 L 102.0 103.0 L 103.0 103.0 L 104.0 103.0 L 104.0 103.0 L 105.0 103.0 L 106.0 103.0 L 107.0 103.0 L 107.0 103.0 L 108.0 103.0 L 109.0 103.0 L 109.0 103.0 L 110.0 103.0 L 111.0 102.0 L 112.0 102.0 L 112.0 102.0 L 113.0 102.0 L 114.0 102.0 L 115.0 102.0 L 116.0 102.0 L 117.0 101.0 L 118.0 101.0 L 119.0 101.0 L 120.0 101.0 L 121.0 101.0 L 122.0 101.0 L 123.0 101.0 L 125.0 101.0 L 126.0 101.0 L 127.0 101.0 L 128.0 101.0 L 130.0 101.0 L 131.0 101.0 L 132.0 101.0 L 134.0 101.0 L 135.0 101.0 L 136.0 101.0 L 138.0 101.0 L 139.0 101.0 L 140.0 101.0 L 141.0 100.0 L 143.0 100.0 L 143.0 100.0 L 144.0 100.0 L 145.0 100.0 L 146.0 100.0 L 146.0 100.0 L 147.0 99.0 L 148.0 99.0 L 148.0 99.0 L 149.0 99.0 L 149.0 99.0 L 150.0 99.0 L 150.0 99.0 L 151.0 99.0 L 151.0 99.0 L 152.0 99.0 L 152.0 99.0 L 152.0 99.0 L 153.0 99.0 L 153.0 99.0 L 154.0 99.0 L 154.0 99.0 L 155.0 99.0 L 155.0 99.0 L 156.0 99.0 L 157.0 99.0 L 157.0 99.0 L 158.0 99.0 L 158.0 99.0 L 159.0 99.0 L 160.0 99.0 L 161.0 99.0 L 161.0 99.0 L 162.0 99.0 L 163.0 99.0 L 164.0 99.0 L 165.0 99.0 L 166.0 100.0 L 166.0 100.0 L 167.0 100.0 L 168.0 100.0 L 169.0 100.0 L 170.0 100.0 L 171.0 100.0 L 172.0 100.0 L 173.0 100.0 L 174.0 100.0 L 175.0 101.0 L 176.0 101.0 L 177.0 101.0 L 178.0 101.0 L 178.0 101.0 L 179.0 101.0 L 180.0 101.0 L 181.0 101.0 L 181.0 101.0 L 182.0 101.0 L 183.0 101.0 L 183.0 101.0 L 184.0 101.0 L 185.0 101.0 L 185.0 101.0 L 186.0 101.0 L 186.0 101.0 L 187.0 101.0 L 187.0 101.0 L 188.0 101.0 L 188.0 101.0 L 189.0 101.0 L 189.0 101.0 L 190.0 101.0 L 191.0 101.0 L 191.0 101.0 L 192.0 100.0 L 192.0 100.0 L 193.0 100.0 L 193.0 100.0 L 193.0 100.0 L 194.0 100.0 L 194.0 100.0 L 195.0 100.0 L 195.0 100.0 L 195.0 100.0 L 196.0 100.0 L 196.0 99.0 L 197.0 99.0 L 197.0 99.0 L 198.0 99.0 L 198.0 99.0 L 198.0 99.0 L 199.0 99.0 L 199.0 99.0 L 200.0 99.0 L 200.0 99.0 L 201.0 99.0 L 201.0 99.0 L 202.0 99.0 L 202.0 99.0 L 203.0 99.0 L 203.0 99.0 L 204.0 99.0 L 204.0 99.0 L 205.0 99.0 L 205.0 99.0 L 206.0 99.0 L 206.0 99.0 L 207.0 99.0 L 208.0 99.0 L 208.0 99.0 L 209.0 99.0 L 210.0 99.0 L 210.0 99.0 L 211.0 99.0 L 212.0 99.0 L 212.0 99.0 L 213.0 99.0 L 214.0 99.0 L 214.0 99.0 L 215.0 99.0 L 215.0 99.0 L 216.0 99.0 L 216.0 99.0 L 217.0 99.0 L 218.0 99.0 L 218.0 99.0 L 219.0 99.0 L 219.0 99.0 L 220.0 99.0 L 220.0 99.0 L 221.0 99.0 L 221.0 99.0 L 222.0 99.0 L 222.0 99.0 L 223.0 99.0 L 223.0 99.0 L 224.0 99.0 L 225.0 99.0 L 225.0 99.0 L 226.0 99.0 L 226.0 99.0 L 227.0 99.0 L 227.0 99.0 L 228.0 99.0 L 229.0 99.0 L 229.0 99.0 L 230.0 99.0 L 231.0 99.0 L 231.0 99.0 L 232.0 99.0 L 233.0 99.0 L 233.0 99.0 L 234.0 99.0 L 234.0 99.0 L 235.0 99.0 L 235.0 99.0 " stroke="black" fill="none" stroke-width="5.0" stroke-linecap="round" stroke-linejoin="round" />
<path d="M 136.0 72.0 L 136.0 72.0 L 136.0 72.0 L 136.0 72.0 L 136.0 71.0 L 136.0 71.0 L 135.0 71.0 L 135.0 71.0 L 135.0 71.0 L 135.0 71.0 L 135.0 71.0 L 135.0 71.0 L 135.0 71.0 L 135.0 71.0 L 135.0 71.0 L 135.0 71.0 L 135.0 71.0 L 135.0 72.0 L 135.0 73.0 L 135.0 75.0 L 135.0 76.0 L 134.0 78.0 L 133.0 80.0 L 133.0 82.0 L 133.0 84.0 L 132.0 85.0 L 132.0 87.0 L 131.0 89.0 L 130.0 90.0 L 130.0 92.0 L 129.0 93.0 L 128.0 95.0 L 127.0 96.0 L 126.0 98.0 L 125.0 100.0 L 124.0 102.0 L 123.0 103.0 L 123.0 105.0 L 122.0 107.0 L 121.0 108.0 L 120.0 110.0 L 120.0 111.0 L 119.0 112.0 L 118.0 114.0 L 118.0 115.0 L 117.0 116.0 L 116.0 118.0 L 116.0 119.0 L 115.0 120.0 L 114.0 121.0 L 113.0 123.0 L 113.0 124.0 L 112.0 125.0 L 112.0 126.0 L 111.0 127.0 L 111.0 128.0 L 110.0 129.0 L 110.0 130.0 L 110.0 131.0 L 109.0 132.0 L 109.0 133.0 L 108.0 134.0 L 108.0 136.0 L 107.0 137.0 L 107.0 138.0 L 107.0 139.0 L 106.0 140.0 L 106.0 141.0 L 105.0 142.0 L 105.0 143.0 L 104.0 144.0 L 104.0 145.0 L 104.0 146.0 L 103.0 146.0 L 103.0 147.0 L 102.0 148.0 L 101.0 149.0 L 101.0 150.0 L 100.0 151.0 L 99.0 151.0 L 98.0 152.0 L 98.0 153.0 L 97.0 153.0 L 97.0 154.0 L 96.0 154.0 L 96.0 154.0 L 96.0 155.0 L 95.0 155.0 L 95.0 155.0 L 94.0 156.0 L 94.0 156.0 L 94.0 157.0 L 93.0 157.0 L 93.0 158.0 L 92.0 159.0 L 91.0 159.0 L 91.0 159.0 L 90.0 160.0 L 90.0 161.0 L 89.0 161.0 L 88.0 162.0 L 88.0 162.0 L 87.0 163.0 L 86.0 163.0 L 86.0 164.0 L 85.0 164.0 L 84.0 165.0 L 83.0 166.0 L 82.0 166.0 L 81.0 167.0 L 80.0 168.0 L 79.0 169.0 L 77.0 170.0 L 76.0 170.0 L 75.0 171.0 L 74.0 172.0 L 73.0 172.0 L 72.0 173.0 L 71.0 174.0 L 70.0 174.0 L 69.0 175.0 L 68.0 175.0 L 68.0 176.0 L 67.0 177.0 L 66.0 177.0 L 66.0 178.0 L 66.0 178.0 L 65.0 178.0 L 65.0 178.0 " stroke="black" fill="none" stroke-width="5.0" stroke-linecap="round" stroke-linejoin="round" />
<path d="M 109.0 144.0 L 109.0 144.0 L 109.0 144.0 L 109.0 144.0 L 109.0 144.0 L 108.0 144.0 L 108.0 144.0 L 108.0 144.0 L 108.0 144.0 L 108.0 144.0 L 108.0 144.0 L 108.0 144.0 L 108.0 144.0 L 108.0 144.0 L 108.0 145.0 L 108.0 145.0 L 108.0 146.0 L 108.0 147.0 L 108.0 148.0 L 108.0 149.0 L 108.0 150.0 L 108.0 151.0 L 108.0 153.0 L 108.0 154.0 L 108.0 156.0 L 108.0 157.0 L 108.0 158.0 L 109.0 160.0 L 109.0 161.0 L 109.0 163.0 L 109.0 164.0 L 109.0 165.0 L 109.0 167.0 L 110.0 168.0 L 110.0 169.0 L 110.0 170.0 L 110.0 171.0 L 110.0 172.0 L 110.0 173.0 L 110.0 175.0 L 110.0 176.0 L 110.0 177.0 L 110.0 178.0 L 110.0 179.0 L 110.0 180.0 L 110.0 181.0 L 110.0 183.0 L 110.0 184.0 L 110.0 185.0 L 110.0 186.0 L 110.0 187.0 L 110.0 188.0 L 109.0 190.0 L 109.0 191.0 L 109.0 192.0 L 109.0 193.0 L 109.0 194.0 L 109.0 195.0 L 109.0 196.0 L 108.0 197.0 L 108.0 198.0 L 108.0 199.0 L 108.0 200.0 L 108.0 201.0 L 108.0 202.0 L 108.0 204.0 L 108.0 204.0 L 108.0 206.0 L 107.0 206.0 L 107.0 207.0 L 107.0 209.0 L 107.0 209.0 L 107.0 211.0 L 107.0 212.0 L 107.0 213.0 L 107.0 214.0 L 107.0 215.0 L 106.0 216.0 L 106.0 217.0 L 106.0 218.0 L 106.0 219.0 L 106.0 220.0 L 105.0 221.0 L 105.0 222.0 L 105.0 224.0 L 105.0 225.0 L 104.0 226.0 L 104.0 227.0 L 104.0 229.0 L 103.0 230.0 L 103.0 231.0 L 103.0 232.0 L 102.0 233.0 L 102.0 234.0 L 102.0 236.0 L 101.0 237.0 L 101.0 238.0 L 100.0 239.0 L 100.0 240.0 L 100.0 241.0 L 99.0 241.0 L 99.0 242.0 L 98.0 242.0 L 98.0 243.0 L 98.0 243.0 L 97.0 243.0 L 97.0 243.0 L 96.0 243.0 L 96.0 243.0 L 95.0 243.0 L 94.0 243.0 L 94.0 243.0 L 94.0 243.0 L 93.0 243.0 L 93.0 243.0 L 93.0 243.0 " stroke="black" fill="none" stroke-width="5.0" stroke-linecap="round" stroke-linejoin="round" />
<path d="M 111.0 135.0 L 111.0 135.0 L 111.0 135.0 L 111.0 135.0 L 111.0 135.0 L 111.0 135.0 L 111.0 135.0 L 111.0 135.0 L 111.0 135.0 L 111.0 135.0 L 111.0 135.0 L 111.0 135.0 L 112.0 135.0 L 112.0 135.0 L 112.0 135.0 L 112.0 135.0 L 112.0 135.0 L 112.0 135.0 L 112.0 135.0 L 112.0 135.0 L 113.0 135.0 L 113.0 135.0 L 113.0 135.0 L 114.0 135.0 L 114.0 135.0 L 115.0 135.0 L 116.0 135.0 L 116.0 135.0 L 117.0 135.0 L 118.0 135.0 L 119.0 135.0 L 120.0 135.0 L 121.0 135.0 L 123.0 135.0 L 124.0 135.0 L 125.0 135.0 L 126.0 135.0 L 127.0 135.0 L 128.0 136.0 L 129.0 136.0 L 130.0 136.0 L 131.0 136.0 L 132.0 136.0 L 133.0 136.0 L 134.0 136.0 L 135.0 136.0 L 136.0 136.0 L 137.0 136.0 L 137.0 136.0 L 138.0 136.0 L 139.0 136.0 L 140.0 136.0 L 141.0 136.0 L 142.0 136.0 L 142.0 136.0 L 143.0 136.0 L 144.0 136.0 L 144.0 136.0 L 145.0 136.0 L 146.0 136.0 L 146.0 136.0 L 147.0 136.0 L 147.0 136.0 L 148.0 136.0 L 148.0 136.0 L 148.0 136.0 L 149.0 136.0 L 149.0 136.0 L 149.0 136.0 L 150.0 136.0 L 150.0 136.0 L 150.0 136.0 L 151.0 136.0 L 151.0 136.0 L 151.0 136.0 L 152.0 136.0 L 152.0 136.0 L 152.0 136.0 L 153.0 136.0 L 153.0 136.0 L 154.0 136.0 L 154.0 136.0 L 155.0 136.0 L 155.0 136.0 L 156.0 136.0 L 156.0 136.0 L 157.0 136.0 L 157.0 136.0 L 158.0 136.0 L 159.0 136.0 L 159.0 136.0 L 160.0 136.0 L 161.0 136.0 L 162.0 136.0 L 162.0 136.0 L 163.0 136.0 L 164.0 136.0 L 164.0 136.0 L 165.0 136.0 L 166.0 136.0 L 167.0 136.0 L 168.0 136.0 L 168.0 135.0 L 169.0 135.0 L 170.0 135.0 L 170.0 135.0 L 171.0 135.0 L 172.0 135.0 L 172.0 135.0 L 173.0 135.0 L 174.0 135.0 L 174.0 135.0 L 175.0 135.0 L 176.0 135.0 L 176.0 135.0 L 177.0 135.0 L 177.0 135.0 L 178.0 135.0 L 179.0 135.0 L 179.0 135.0 L 180.0 135.0 L 180.0 135.0 L 181.0 135.0 L 181.0 135.0 L 182.0 135.0 L 182.0 135.0 L 182.0 135.0 L 183.0 135.0 L 183.0 135.0 L 184.0 135.0 L 184.0 135.0 L 185.0 135.0 L 185.0 135.0 L 185.0 135.0 L 186.0 135.0 L 186.0 136.0 L 187.0 136.0 L 187.0 136.0 L 187.0 136.0 L 188.0 136.0 L 188.0 136.0 L 189.0 136.0 L 189.0 136.0 L 189.0 136.0 L 189.0 136.0 L 190.0 136.0 L 190.0 136.0 L 190.0 136.0 L 191.0 136.0 L 191.0 136.0 L 191.0 136.0 L 192.0 136.0 L 192.0 136.0 L 192.0 136.0 L 193.0 136.0 L 193.0 136.0 L 193.0 136.0 L 193.0 136.0 L 194.0 136.0 L 194.0 136.0 L 194.0 136.0 L 194.0 136.0 L 195.0 136.0 L 195.0 136.0 L 195.0 136.0 L 195.0 136.0 L 195.0 136.0 L 196.0 136.0 L 196.0 136.0 L 196.0 136.0 L 196.0 136.0 L 197.0 136.0 L 197.0 136.0 L 197.0 136.0 L 198.0 136.0 L 198.0 136.0 L 198.0 136.0 L 199.0 136.0 L 199.0 136.0 L 200.0 136.0 L 200.0 136.0 L 200.0 136.0 L 201.0 136.0 L 201.0 136.0 L 202.0 136.0 L 202.0 136.0 L 203.0 136.0 L 204.0 136.0 L 204.0 136.0 L 205.0 136.0 L 205.0 136.0 L 206.0 137.0 L 206.0 137.0 L 207.0 137.0 L 207.0 137.0 L 207.0 137.0 L 208.0 137.0 L 208.0 137.0 L 208.0 138.0 L 209.0 138.0 L 209.0 138.0 L 209.0 139.0 L 209.0 139.0 L 209.0 140.0 L 209.0 141.0 L 209.0 143.0 L 209.0 144.0 L 209.0 147.0 L 209.0 149.0 L 208.0 152.0 L 208.0 154.0 L 208.0 157.0 L 208.0 160.0 L 207.0 162.0 L 207.0 165.0 L 207.0 167.0 L 207.0 169.0 L 207.0 171.0 L 206.0 172.0 L 206.0 174.0 L 206.0 176.0 L 206.0 178.0 L 206.0 180.0 L 206.0 183.0 L 205.0 185.0 L 205.0 187.0 L 205.0 189.0 L 205.0 191.0 L 205.0 193.0 L 205.0 195.0 L 205.0 196.0 L 205.0 197.0 L 205.0 198.0 L 205.0 199.0 L 205.0 200.0 L 205.0 201.0 L 205.0 202.0 L 205.0 203.0 L 205.0 204.0 L 205.0 205.0 L 205.0 207.0 L 204.0 208.0 L 204.0 210.0 L 204.0 211.0 L 204.0 213.0 L 203.0 214.0 L 203.0 216.0 L 203.0 217.0 L 203.0 218.0 L 203.0 220.0 L 203.0 221.0 L 203.0 222.0 L 203.0 223.0 L 203.0 225.0 L 203.0 226.0 L 202.0 227.0 L 202.0 229.0 L 202.0 230.0 L 202.0 232.0 L 202.0 233.0 L 202.0 234.0 L 202.0 235.0 L 202.0 236.0 L 202.0 237.0 L 202.0 238.0 L 202.0 239.0 L 202.0 240.0 L 201.0 241.0 L 201.0 242.0 L 201.0 243.0 L 201.0 244.0 L 201.0 244.0 L 201.0 245.0 L 201.0 246.0 L 200.0 246.0 L 200.0 247.0 L 200.0 247.0 L 200.0 248.0 L 200.0 248.0 L 200.0 248.0 L 200.0 249.0 L 200.0 249.0 L 200.0 249.0 L 199.0 250.0 L 199.0 250.0 L 199.0 250.0 L 199.0 250.0 L 199.0 251.0 L 199.0 251.0 L 199.0 251.0 L 199.0 252.0 L 199.0 252.0 L 199.0 252.0 L 198.0 252.0 L 198.0 252.0 L 198.0 252.0 L 198.0 252.0 L 198.0 252.0 L 197.0 252.0 L 197.0 252.0 L 197.0 252.0 L 196.0 252.0 L 196.0 251.0 L 195.0 251.0 L 194.0 251.0 L 194.0 250.0 L 193.0 250.0 L 192.0 250.0 L 190.0 249.0 L 189.0 249.0 L 187.0 249.0 L 185.0 248.0 L 184.0 248.0 L 181.0 248.0 L 179.0 247.0 L 177.0 246.0 L 175.0 246.0 L 173.0 245.0 L 172.0 244.0 L 170.0 243.0 L 168.0 243.0 L 168.0 242.0 L 167.0 241.0 L 167.0 241.0 " stroke="black" fill="none" stroke-width="5.0" stroke-linecap="round" stroke-linejoin="round" />
<path d="M 117.0 171.0 L 116.0 171.0 L 116.0 171.0 L 116.0 171.0 L 115.0 171.0 L 115.0 171.0 L 115.0 171.0 L 115.0 171.0 L 115.0 171.0 L 115.0 171.0 L 116.0 171.0 L 117.0 171.0 L 118.0 171.0 L 119.0 172.0 L 121.0 172.0 L 122.0 172.0 L 123.0 172.0 L 125.0 172.0 L 127.0 172.0 L 128.0 172.0 L 130.0 172.0 L 132.0 172.0 L 134.0 172.0 L 136.0 172.0 L 137.0 172.0 L 139.0 172.0 L 140.0 172.0 L 142.0 172.0 L 143.0 172.0 L 144.0 172.0 L 145.0 172.0 L 146.0 172.0 L 146.0 172.0 L 147.0 172.0 L 148.0 172.0 L 148.0 172.0 L 149.0 172.0 L 149.0 172.0 L 150.0 172.0 L 150.0 172.0 L 150.0 172.0 L 151.0 172.0 L 151.0 172.0 L 152.0 172.0 L 152.0 172.0 L 153.0 172.0 L 153.0 172.0 L 154.0 172.0 L 155.0 172.0 L 155.0 172.0 L 156.0 172.0 L 156.0 172.0 L 157.0 172.0 L 158.0 173.0 L 158.0 173.0 L 159.0 173.0 L 160.0 173.0 L 161.0 173.0 L 162.0 173.0 L 163.0 173.0 L 164.0 173.0 L 165.0 173.0 L 166.0 173.0 L 168.0 173.0 L 169.0 173.0 L 171.0 173.0 L 172.0 173.0 L 174.0 173.0 L 175.0 173.0 L 176.0 173.0 L 178.0 173.0 L 179.0 173.0 L 180.0 173.0 L 181.0 173.0 L 182.0 173.0 L 183.0 174.0 L 183.0 174.0 L 184.0 174.0 L 185.0 174.0 L 186.0 174.0 L 187.0 175.0 L 187.0 175.0 L 188.0 175.0 L 189.0 175.0 L 190.0 176.0 L 191.0 176.0 L 192.0 176.0 L 193.0 176.0 L 193.0 176.0 L 194.0 176.0 L 195.0 176.0 L 196.0 176.0 L 197.0 176.0 L 198.0 176.0 L 199.0 176.0 L 200.0 176.0 L 200.0 176.0 L 201.0 176.0 L 202.0 176.0 L 202.0 176.0 " stroke="black" fill="none" stroke-width="5.0" stroke-linecap="round" stroke-linejoin="round" />
<path d="M 114.0 207.0 L 114.0 207.0 L 114.0 207.0 L 114.0 207.0 L 113.0 207.0 L 113.0 207.0 L 112.0 207.0 L 112.0 207.0 L 112.0 207.0 L 112.0 207.0 L 112.0 207.0 L 112.0 207.0 L 112.0 207.0 L 112.0 207.0 L 113.0 207.0 L 114.0 206.0 L 115.0 206.0 L 117.0 206.0 L 118.0 206.0 L 120.0 205.0 L 121.0 205.0 L 123.0 205.0 L 125.0 205.0 L 128.0 205.0 L 130.0 205.0 L 132.0 205.0 L 134.0 204.0 L 136.0 204.0 L 138.0 204.0 L 139.0 204.0 L 141.0 204.0 L 142.0 204.0 L 144.0 204.0 L 145.0 204.0 L 146.0 204.0 L 147.0 204.0 L 148.0 204.0 L 148.0 204.0 L 149.0 204.0 L 150.0 204.0 L 150.0 204.0 L 151.0 204.0 L 152.0 204.0 L 152.0 204.0 L 153.0 204.0 L 153.0 204.0 L 154.0 204.0 L 155.0 204.0 L 155.0 204.0 L 156.0 204.0 L 157.0 204.0 L 157.0 204.0 L 158.0 204.0 L 158.0 204.0 L 159.0 204.0 L 160.0 204.0 L 160.0 204.0 L 161.0 204.0 L 162.0 204.0 L 162.0 204.0 L 163.0 204.0 L 164.0 204.0 L 164.0 204.0 L 165.0 204.0 L 166.0 204.0 L 167.0 204.0 L 167.0 205.0 L 168.0 205.0 L 169.0 205.0 L 170.0 205.0 L 171.0 205.0 L 171.0 205.0 L 173.0 206.0 L 173.0 206.0 L 174.0 206.0 L 176.0 206.0 L 177.0 206.0 L 178.0 206.0 L 179.0 206.0 L 180.0 206.0 L 181.0 206.0 L 182.0 206.0 L 184.0 206.0 L 185.0 206.0 L 186.0 206.0 L 187.0 206.0 L 188.0 206.0 L 189.0 206.0 L 190.0 206.0 L 191.0 206.0 L 192.0 206.0 L 193.0 206.0 L 193.0 206.0 L 194.0 206.0 L 195.0 206.0 L 195.0 206.0 L 196.0 206.0 L 197.0 206.0 L 198.0 206.0 L 198.0 206.0 L 199.0 206.0 L 200.0 206.0 L 201.0 206.0 L 202.0 206.0 L 203.0 205.0 L 204.0 205.0 L 204.0 205.0 L 205.0 205.0 L 206.0 204.0 L 206.0 204.0 L 207.0 204.0 L 207.0 204.0 L 207.0 204.0 L 207.0 204.0 L 207.0 204.0 L 207.0 204.0 " stroke="black" fill="none" stroke-width="5.0" stroke-linecap="round" stroke-linejoin="round" />
</svg>