<svg xmlns="http://www.w3.org/2000/svg" width="300" height="300" viewBox="0 0 300 300">
<path d="M 85.0 93.0 L 85.0 93.0 L 84.0 93.0 L 84.0 93.0 L 84.0 93.0 L 83.0 93.0 L 83.0 92.0 L 83.0 92.0 L 83.0 92.0 L 83.0 92.0 L 83.0 92.0 L 84.0 92.0 L 85.0 92.0 L 87.0 92.0 L 89.0 92.0 L 92.0 92.0 L 96.0 92.0 L 100.0 92.0 L 104.0 92.0 L 110.0 92.0 L 117.0 91.0 L 126.0 91.0 L 137.0 90.0 L 147.0 89.0 L 155.0 88.0 L 162.0 87.0 L 171.0 87.0 L 178.0 86.0 L 185.0 86.0 L 191.0 86.0 L 195.0 86.0 L 198.0 86.0 L 202.0 87.0 L 205.0 87.0 L 209.0 87.0 L 212.0 87.0 " stroke="black" fill="none" stroke-width="5.0" stroke-linecap="round" stroke-linejoin="round" />
<path d="M 67.0 158.0 L 67.0 158.0 L 67.0 158.0 L 67.0 158.0 L 67.0 158.0 L 67.0 158.0 L 67.0 158.0 L 67.0 158.0 L 67.0 158.0 L 67.0 158.0 L 67.0 157.0 L 68.0 157.0 L 70.0 157.0 L 72.0 157.0 L 75.0 156.0 L 78.0 156.0 L 80.0 156.0 L 82.0 156.0 L 86.0 156.0 L 90.0 156.0 L 94.0 156.0 L 98.0 156.0 L 101.0 156.0 L 104.0 155.0 L 107.0 155.0 L 108.0 155.0 L 110.0 155.0 L 112.0 155.0 L 113.0 155.0 L 115.0 155.0 L 117.0 155.0 L 119.0 155.0 L 122.0 155.0 L 125.0 155.0 L 128.0 155.0 L 132.0 155.0 L 135.0 155.0 L 139.0 155.0 L 143.0 155.0 L 145.0 154.0 L 148.0 154.0 L 150.0 154.0 L 152.0 153.0 L 153.0 153.0 L 155.0 153.0 L 156.0 153.0 L 157.0 153.0 L 159.0 153.0 L 160.0 153.0 L 163.0 153.0 L 165.0 153.0 L 168.0 153.0 L 171.0 152.0 L 174.0 152.0 L 177.0 152.0 L 180.0 152.0 L 184.0 152.0 L 186.0 152.0 L 189.0 152.0 L 192.0 152.0 L 195.0 152.0 L 197.0 152.0 L 200.0 151.0 L 204.0 151.0 L 207.0 151.0 L 211.0 151.0 L 216.0 150.0 L 220.0 150.0 L 225.0 150.0 L 228.0 150.0 L 231.0 149.0 L 235.0 149.0 " stroke="black" fill="none" stroke-width="5.0" stroke-linecap="round" stroke-linejoin="round" />
<path d="M 150.0 96.0 L 150.0 96.0 L 150.0 96.0 L 150.0 96.0 L 150.0 96.0 L 150.0 96.0 L 150.0 97.0 L 150.0 97.0 L 150.0 97.0 L 150.0 97.0 L 150.0 97.0 L 150.0 98.0 L 150.0 98.0 L 149.0 100.0 L 149.0 101.0 L 149.0 103.0 L 149.0 105.0 L 149.0 107.0 L 149.0 109.0 L 149.0 112.0 L 149.0 114.0 L 149.0 116.0 L 149.0 119.0 L 149.0 121.0 L 150.0 123.0 L 150.0 125.0 L 150.0 127.0 L 150.0 128.0 L 150.0 130.0 L 150.0 132.0 L 150.0 134.0 L 150.0 136.0 L 149.0 138.0 L 149.0 141.0 L 149.0 143.0 L 148.0 146.0 L 148.0 148.0 L 147.0 150.0 L 147.0 153.0 L 147.0 155.0 L 146.0 157.0 L 146.0 158.0 L 146.0 160.0 L 145.0 162.0 L 145.0 163.0 L 145.0 164.0 L 145.0 166.0 L 144.0 167.0 L 144.0 169.0 L 143.0 170.0 L 143.0 172.0 L 142.0 174.0 L 141.0 176.0 L 140.0 178.0 L 140.0 179.0 L 139.0 181.0 L 138.0 183.0 L 138.0 185.0 L 137.0 187.0 L 136.0 189.0 L 135.0 191.0 L 135.0 192.0 L 134.0 194.0 L 133.0 196.0 L 131.0 198.0 L 130.0 199.0 L 129.0 201.0 L 127.0 202.0 L 126.0 204.0 L 124.0 205.0 L 123.0 207.0 L 121.0 208.0 L 120.0 209.0 L 118.0 211.0 L 117.0 212.0 L 116.0 213.0 L 115.0 214.0 L 114.0 215.0 L 113.0 216.0 L 111.0 217.0 L 110.0 218.0 L 109.0 220.0 L 108.0 221.0 L 106.0 222.0 L 104.0 224.0 L 102.0 226.0 L 100.0 228.0 L 97.0 230.0 L 94.0 231.0 L 91.0 233.0 L 89.0 234.0 L 85.0 235.0 L 83.0 235.0 L 80.0 235.0 L 79.0 235.0 " stroke="black" fill="none" stroke-width="5.0" stroke-linecap="round" stroke-linejoin="round" />
<path d="M 148.0 161.0 L 148.0 161.0 L 148.0 161.0 L 148.0 161.0 L 148.0 161.0 L 148.0 161.0 L 147.0 161.0 L 147.0 161.0 L 147.0 161.0 L 147.0 161.0 L 147.0 161.0 L 147.0 162.0 L 147.0 162.0 L 148.0 163.0 L 148.0 164.0 L 149.0 166.0 L 149.0 167.0 L 150.0 168.0 L 151.0 170.0 L 151.0 171.0 L 152.0 173.0 L 152.0 174.0 L 153.0 176.0 L 153.0 178.0 L 154.0 179.0 L 155.0 181.0 L 155.0 183.0 L 156.0 184.0 L 157.0 186.0 L 157.0 188.0 L 158.0 189.0 L 158.0 191.0 L 159.0 192.0 L 159.0 194.0 L 160.0 195.0 L 160.0 196.0 L 161.0 197.0 L 162.0 198.0 L 162.0 199.0 L 163.0 200.0 L 164.0 201.0 L 165.0 202.0 L 166.0 202.0 L 166.0 203.0 L 167.0 204.0 L 168.0 204.0 L 169.0 205.0 L 170.0 206.0 L 171.0 206.0 L 172.0 207.0 L 173.0 208.0 L 173.0 209.0 L 174.0 209.0 L 175.0 211.0 L 176.0 211.0 L 177.0 213.0 L 178.0 214.0 L 180.0 214.0 L 181.0 216.0 L 182.0 216.0 L 183.0 217.0 L 184.0 218.0 L 186.0 219.0 L 187.0 220.0 L 188.0 220.0 L 189.0 221.0 L 190.0 222.0 L 191.0 223.0 L 191.0 224.0 L 192.0 225.0 L 192.0 226.0 L 193.0 227.0 L 194.0 228.0 L 194.0 229.0 L 195.0 230.0 L 196.0 230.0 L 196.0 232.0 L 197.0 232.0 L 198.0 233.0 L 198.0 234.0 L 199.0 235.0 L 200.0 236.0 L 202.0 237.0 L 203.0 237.0 L 204.0 238.0 L 206.0 239.0 L 207.0 240.0 L 209.0 240.0 L 211.0 241.0 L 213.0 242.0 L 215.0 243.0 L 217.0 243.0 L 219.0 244.0 L 221.0 245.0 L 223.0 245.0 L 224.0 246.0 L 226.0 247.0 L 227.0 247.0 L 229.0 247.0 L 230.0 248.0 L 231.0 248.0 L 232.0 248.0 L 234.0 249.0 L 235.0 249.0 L 236.0 249.0 L 237.0 249.0 L 238.0 250.0 " stroke="black" fill="none" stroke-width="5.0" stroke-linecap="round" stroke-linejoin="round" />
</svg>