<svg xmlns="http://www.w3.org/2000/svg" width="300" height="300" viewBox="0 0 300 300">
<path d="M 82.0 91.0 L 81.0 91.0 L 80.0 91.0 L 79.0 91.0 L 79.0 90.0 L 79.0 90.0 L 80.0 90.0 L 84.0 90.0 L 88.0 90.0 L 94.0 91.0 L 100.0 91.0 L 107.0 91.0 L 116.0 91.0 L 129.0 91.0 L 145.0 90.0 L 159.0 88.0 L 174.0 87.0 L 190.0 86.0 L 199.0 85.0 L 207.0 85.0 L 215.0 85.0 L 222.0 86.0 L 227.0 87.0 L 230.0 89.0 L 232.0 91.0 L 232.0 93.0 L 232.0 95.0 " stroke="black" fill="none" stroke-width="5.0" stroke-linecap="round" stroke-linejoin="round" />
<path d="M 71.0 153.0 L 70.0 153.0 L 68.0 153.0 L 67.0 153.0 L 67.0 152.0 L 66.0 152.0 L 66.0 152.0 L 67.0 152.0 L 70.0 152.0 L 74.0 152.0 L 80.0 152.0 L 87.0 152.0 L 96.0 152.0 L 106.0 152.0 L 117.0 152.0 L 132.0 151.0 L 149.0 150.0 L 162.0 148.0 L 176.0 147.0 L 190.0 146.0 L 199.0 145.0 L 205.0 144.0 L 211.0 144.0 L 215.0 144.0 L 218.0 145.0 L 220.0 146.0 L 220.0 148.0 " stroke="black" fill="none" stroke-width="5.0" stroke-linecap="round" stroke-linejoin="round" />
<path d="M 148.0 97.0 L 148.0 97.0 L 148.0 97.0 L 149.0 97.0 L 150.0 97.0 L 150.0 98.0 L 151.0 98.0 L 151.0 100.0 L 152.0 102.0 L 152.0 105.0 L 152.0 110.0 L 151.0 116.0 L 150.0 123.0 L 148.0 130.0 L 145.0 139.0 L 142.0 150.0 L 138.0 160.0 L 133.0 170.0 L 126.0 181.0 L 120.0 191.0 L 114.0 201.0 L 108.0 210.0 L 103.0 217.0 L 98.0 223.0 L 93.0 229.0 L 87.0 232.0 L 82.0 233.0 L 78.0 234.0 " stroke="black" fill="none" stroke-width="5.0" stroke-linecap="round" stroke-linejoin="round" />
<path d="M 143.0 164.0 L 143.0 164.0 L 143.0 164.0 L 143.0 163.0 L 143.0 163.0 L 143.0 163.0 L 143.0 163.0 L 144.0 163.0 L 145.0 164.0 L 147.0 167.0 L 149.0 170.0 L 152.0 174.0 L 156.0 181.0 L 161.0 188.0 L 168.0 195.0 L 177.0 204.0 L 185.0 211.0 L 192.0 219.0 L 197.0 227.0 L 202.0 233.0 L 208.0 238.0 L 215.0 241.0 L 223.0 241.0 L 229.0 242.0 L 234.0 242.0 L 237.0 241.0 " stroke="black" fill="none" stroke-width="5.0" stroke-linecap="round" stroke-linejoin="round" />
</svg>