<svg xmlns="http://www.w3.org/2000/svg" width="300" height="300" viewBox="0 0 300 300">
<path d="M 87.0 85.0 L 87.0 85.0 L 86.0 85.0 L 85.0 85.0 L 83.0 85.0 L 82.0 85.0 L 81.0 85.0 L 81.0 85.0 L 80.0 85.0 L 80.0 85.0 L 80.0 85.0 L 80.0 85.0 L 80.0 85.0 L 80.0 85.0 L 80.0 85.0 L 81.0 85.0 L 82.0 85.0 L 84.0 85.0 L 87.0 85.0 L 90.0 85.0 L 93.0 85.0 L 97.0 85.0 L 101.0 85.0 L 105.0 86.0 L 109.0 86.0 L 112.0 86.0 L 116.0 87.0 L 120.0 87.0 L 122.0 87.0 L 124.0 88.0 L 126.0 89.0 L 126.0 90.0 L 127.0 92.0 L 127.0 94.0 L 127.0 97.0 L 127.0 100.0 L 127.0 104.0 L 127.0 109.0 L 127.0 114.0 L 127.0 120.0 L 127.0 127.0 L 127.0 134.0 L 126.0 142.0 L 125.0 149.0 L 124.0 156.0 L 123.0 161.0 L 121.0 165.0 L 120.0 168.0 L 119.0 169.0 L 118.0 170.0 L 117.0 170.0 " stroke="black" fill="none" stroke-width="5.0" stroke-linecap="round" stroke-linejoin="round" />
<path d="M 80.0 127.0 L 78.0 127.0 L 76.0 127.0 L 74.0 127.0 L 73.0 127.0 L 73.0 127.0 L 73.0 127.0 L 76.0 127.0 L 80.0 127.0 L 86.0 128.0 L 93.0 128.0 L 100.0 128.0 L 106.0 128.0 L 113.0 128.0 L 120.0 128.0 L 127.0 128.0 " stroke="black" fill="none" stroke-width="5.0" stroke-linecap="round" stroke-linejoin="round" />
<path d="M 78.0 174.0 L 76.0 174.0 L 73.0 175.0 L 71.0 175.0 L 70.0 176.0 L 70.0 176.0 L 72.0 176.0 L 75.0 176.0 L 81.0 176.0 L 89.0 175.0 L 96.0 174.0 L 103.0 173.0 L 110.0 171.0 L 116.0 170.0 L 121.0 168.0 " stroke="black" fill="none" stroke-width="5.0" stroke-linecap="round" stroke-linejoin="round" />
<path d="M 78.0 91.0 L 78.0 91.0 L 78.0 91.0 L 78.0 91.0 L 78.0 92.0 L 78.0 94.0 L 78.0 98.0 L 77.0 103.0 L 77.0 108.0 L 77.0 114.0 L 77.0 120.0 L 77.0 127.0 L 76.0 134.0 L 76.0 141.0 L 75.0 150.0 L 75.0 158.0 L 74.0 166.0 L 74.0 173.0 L 73.0 180.0 L 73.0 187.0 L 72.0 194.0 L 71.0 201.0 L 71.0 206.0 L 70.0 211.0 L 70.0 216.0 L 69.0 221.0 L 69.0 225.0 L 69.0 229.0 L 69.0 232.0 L 68.0 234.0 L 68.0 236.0 L 67.0 238.0 L 67.0 239.0 L 67.0 241.0 L 66.0 242.0 L 66.0 242.0 L 66.0 243.0 L 66.0 243.0 L 66.0 243.0 L 66.0 242.0 L 67.0 241.0 L 68.0 240.0 L 68.0 239.0 L 69.0 238.0 L 70.0 237.0 L 72.0 236.0 L 75.0 234.0 L 78.0 233.0 L 84.0 230.0 L 91.0 226.0 L 98.0 222.0 L 104.0 217.0 L 108.0 213.0 L 111.0 209.0 L 113.0 206.0 L 113.0 205.0 L 113.0 204.0 L 113.0 204.0 L 112.0 204.0 L 112.0 204.0 L 111.0 204.0 L 111.0 204.0 " stroke="black" fill="none" stroke-width="5.0" stroke-linecap="round" stroke-linejoin="round" />
<path d="M 107.0 191.0 L 107.0 191.0 L 107.0 191.0 L 106.0 190.0 L 106.0 189.0 L 106.0 189.0 L 106.0 189.0 L 106.0 189.0 L 106.0 189.0 L 106.0 189.0 L 106.0 189.0 L 107.0 191.0 L 108.0 193.0 L 110.0 195.0 L 112.0 199.0 L 115.0 204.0 L 117.0 209.0 L 121.0 215.0 L 124.0 222.0 L 127.0 228.0 L 130.0 233.0 L 133.0 236.0 L 135.0 237.0 L 136.0 237.0 " stroke="black" fill="none" stroke-width="5.0" stroke-linecap="round" stroke-linejoin="round" />
<path d="M 159.0 88.0 L 159.0 88.0 L 157.0 88.0 L 156.0 88.0 L 155.0 87.0 L 154.0 87.0 L 154.0 87.0 L 153.0 87.0 L 153.0 86.0 L 153.0 86.0 L 153.0 86.0 L 155.0 86.0 L 157.0 86.0 L 161.0 86.0 L 167.0 86.0 L 174.0 86.0 L 182.0 85.0 L 191.0 85.0 L 201.0 84.0 L 211.0 82.0 L 220.0 82.0 L 227.0 81.0 L 232.0 81.0 " stroke="black" fill="none" stroke-width="5.0" stroke-linecap="round" stroke-linejoin="round" />
<path d="M 179.0 95.0 L 178.0 96.0 L 177.0 97.0 L 176.0 99.0 L 175.0 101.0 L 174.0 103.0 L 173.0 106.0 L 173.0 109.0 L 171.0 113.0 L 170.0 118.0 L 168.0 122.0 L 166.0 127.0 L 164.0 132.0 L 162.0 136.0 L 160.0 141.0 L 158.0 146.0 L 157.0 150.0 L 155.0 153.0 L 154.0 155.0 L 153.0 156.0 L 152.0 156.0 L 152.0 157.0 L 152.0 157.0 L 151.0 157.0 L 151.0 157.0 L 151.0 157.0 L 151.0 157.0 L 151.0 158.0 L 151.0 158.0 L 151.0 158.0 L 151.0 158.0 L 152.0 158.0 L 152.0 158.0 L 153.0 158.0 L 155.0 158.0 L 157.0 158.0 L 160.0 159.0 L 164.0 159.0 L 170.0 159.0 L 178.0 159.0 L 186.0 158.0 L 193.0 157.0 L 200.0 156.0 L 206.0 156.0 L 212.0 155.0 L 218.0 155.0 L 223.0 155.0 L 227.0 155.0 L 230.0 154.0 L 232.0 154.0 L 232.0 154.0 " stroke="black" fill="none" stroke-width="5.0" stroke-linecap="round" stroke-linejoin="round" />
<path d="M 200.0 99.0 L 200.0 99.0 L 200.0 98.0 L 200.0 98.0 L 200.0 98.0 L 200.0 98.0 L 199.0 98.0 L 199.0 98.0 L 199.0 100.0 L 199.0 102.0 L 199.0 105.0 L 199.0 108.0 L 199.0 113.0 L 199.0 117.0 L 199.0 123.0 L 199.0 130.0 L 198.0 138.0 L 197.0 147.0 L 196.0 157.0 L 194.0 166.0 L 192.0 174.0 L 189.0 183.0 L 186.0 191.0 L 182.0 198.0 L 178.0 205.0 L 172.0 211.0 L 167.0 216.0 L 161.0 223.0 L 157.0 229.0 L 153.0 233.0 L 151.0 236.0 L 150.0 236.0 " stroke="black" fill="none" stroke-width="5.0" stroke-linecap="round" stroke-linejoin="round" />
<path d="M 193.0 178.0 L 193.0 177.0 L 193.0 177.0 L 192.0 176.0 L 192.0 176.0 L 192.0 176.0 L 192.0 176.0 L 192.0 177.0 L 192.0 178.0 L 192.0 180.0 L 193.0 183.0 L 193.0 186.0 L 193.0 189.0 L 193.0 193.0 L 193.0 197.0 L 193.0 203.0 L 193.0 208.0 L 192.0 214.0 L 191.0 219.0 L 190.0 224.0 L 189.0 228.0 L 189.0 232.0 L 188.0 235.0 L 188.0 237.0 L 188.0 238.0 L 188.0 239.0 L 188.0 240.0 L 189.0 240.0 L 189.0 241.0 L 190.0 241.0 L 190.0 241.0 L 191.0 242.0 L 191.0 242.0 L 192.0 243.0 L 193.0 243.0 L 194.0 243.0 L 195.0 244.0 L 196.0 244.0 L 198.0 244.0 L 200.0 245.0 L 202.0 245.0 L 206.0 245.0 L 210.0 245.0 L 214.0 246.0 L 219.0 246.0 L 225.0 246.0 L 229.0 246.0 L 233.0 246.0 L 236.0 246.0 L 238.0 245.0 L 240.0 243.0 L 241.0 241.0 L 241.0 238.0 L 241.0 236.0 L 241.0 232.0 L 241.0 229.0 L 240.0 225.0 L 239.0 220.0 L 238.0 216.0 L 237.0 212.0 " stroke="black" fill="none" stroke-width="5.0" stroke-linecap="round" stroke-linejoin="round" />
</svg>