<svg xmlns="http://www.w3.org/2000/svg" width="300" height="300" viewBox="0 0 300 300">
<path d="M 75.0 74.0 L 75.0 74.0 L 75.0 74.0 L 75.0 74.0 L 75.0 74.0 L 76.0 74.0 L 76.0 74.0 L 76.0 74.0 L 76.0 74.0 L 76.0 74.0 L 76.0 74.0 L 76.0 74.0 L 76.0 74.0 L 76.0 74.0 L 77.0 75.0 L 77.0 76.0 L 77.0 78.0 L 77.0 80.0 L 77.0 83.0 L 77.0 87.0 L 76.0 91.0 L 76.0 96.0 L 75.0 101.0 L 74.0 106.0 L 73.0 111.0 L 71.0 114.0 L 70.0 118.0 L 68.0 121.0 L 67.0 124.0 L 65.0 127.0 L 64.0 128.0 L 63.0 130.0 " stroke="black" fill="none" stroke-width="5.0" stroke-linecap="round" stroke-linejoin="round" />
<path d="M 78.0 102.0 L 78.0 102.0 L 77.0 102.0 L 77.0 102.0 L 76.0 102.0 L 76.0 102.0 L 75.0 102.0 L 75.0 102.0 L 75.0 102.0 L 75.0 102.0 L 75.0 102.0 L 75.0 102.0 L 76.0 102.0 L 78.0 102.0 L 80.0 103.0 L 83.0 103.0 L 86.0 103.0 L 89.0 103.0 L 93.0 103.0 L 97.0 103.0 L 101.0 102.0 L 105.0 101.0 L 108.0 101.0 L 111.0 100.0 L 114.0 100.0 L 116.0 100.0 L 118.0 100.0 L 120.0 100.0 L 122.0 100.0 " stroke="black" fill="none" stroke-width="5.0" stroke-linecap="round" stroke-linejoin="round" />
<path d="M 61.0 155.0 L 61.0 155.0 L 61.0 155.0 L 61.0 154.0 L 61.0 154.0 L 61.0 154.0 L 60.0 153.0 L 60.0 153.0 L 60.0 153.0 L 60.0 153.0 L 60.0 152.0 L 60.0 152.0 L 60.0 152.0 L 60.0 152.0 L 60.0 152.0 L 60.0 152.0 L 61.0 152.0 L 61.0 152.0 L 62.0 152.0 L 62.0 152.0 L 62.0 152.0 L 63.0 152.0 L 64.0 152.0 L 64.0 152.0 L 65.0 152.0 L 65.0 152.0 L 66.0 152.0 L 66.0 152.0 L 67.0 152.0 L 68.0 152.0 L 68.0 152.0 L 69.0 152.0 L 69.0 153.0 L 70.0 153.0 L 70.0 153.0 L 71.0 153.0 L 71.0 153.0 L 72.0 153.0 L 73.0 153.0 L 73.0 153.0 L 74.0 153.0 L 74.0 154.0 L 75.0 154.0 L 75.0 154.0 L 76.0 154.0 L 77.0 154.0 L 77.0 154.0 L 78.0 154.0 L 79.0 154.0 L 79.0 154.0 L 80.0 154.0 L 81.0 154.0 L 82.0 154.0 L 83.0 154.0 L 84.0 154.0 L 85.0 154.0 L 86.0 154.0 L 87.0 154.0 L 87.0 154.0 L 89.0 154.0 L 89.0 154.0 L 90.0 154.0 L 91.0 154.0 L 92.0 154.0 L 93.0 154.0 L 94.0 154.0 L 94.0 154.0 L 95.0 154.0 L 96.0 153.0 L 97.0 153.0 L 98.0 153.0 L 99.0 153.0 L 99.0 153.0 L 100.0 153.0 L 101.0 153.0 L 101.0 153.0 L 102.0 153.0 L 103.0 153.0 L 103.0 153.0 L 103.0 153.0 L 104.0 153.0 L 104.0 153.0 L 105.0 153.0 L 105.0 153.0 L 106.0 153.0 L 106.0 153.0 L 106.0 153.0 L 107.0 153.0 L 107.0 153.0 L 107.0 153.0 L 108.0 153.0 L 108.0 153.0 L 108.0 153.0 L 109.0 153.0 L 109.0 153.0 L 110.0 153.0 L 110.0 153.0 L 110.0 153.0 L 111.0 153.0 L 112.0 153.0 L 112.0 153.0 L 113.0 153.0 L 113.0 153.0 L 114.0 153.0 L 115.0 153.0 L 115.0 153.0 L 116.0 153.0 L 117.0 153.0 L 117.0 153.0 L 118.0 153.0 L 119.0 153.0 L 120.0 153.0 L 121.0 153.0 L 122.0 153.0 L 123.0 153.0 L 124.0 153.0 L 124.0 153.0 L 125.0 153.0 L 125.0 153.0 L 126.0 153.0 L 126.0 153.0 L 126.0 153.0 L 126.0 153.0 " stroke="black" fill="none" stroke-width="5.0" stroke-linecap="round" stroke-linejoin="round" />
<path d="M 99.0 107.0 L 99.0 107.0 L 99.0 106.0 L 99.0 106.0 L 99.0 105.0 L 99.0 105.0 L 99.0 104.0 L 99.0 104.0 L 99.0 104.0 L 99.0 104.0 L 99.0 104.0 L 99.0 104.0 L 99.0 104.0 L 99.0 104.0 L 99.0 105.0 L 99.0 106.0 L 99.0 107.0 L 99.0 108.0 L 100.0 109.0 L 100.0 111.0 L 100.0 112.0 L 100.0 114.0 L 100.0 115.0 L 100.0 117.0 L 100.0 118.0 L 100.0 120.0 L 100.0 122.0 L 100.0 124.0 L 101.0 125.0 L 101.0 127.0 L 101.0 128.0 L 101.0 129.0 L 101.0 130.0 L 101.0 132.0 L 101.0 133.0 L 101.0 134.0 L 101.0 135.0 L 101.0 136.0 L 101.0 138.0 L 101.0 139.0 L 101.0 141.0 L 101.0 143.0 L 101.0 144.0 L 101.0 146.0 L 100.0 148.0 L 100.0 149.0 L 100.0 150.0 L 100.0 152.0 L 100.0 153.0 L 100.0 154.0 L 100.0 155.0 L 100.0 156.0 L 100.0 157.0 L 99.0 159.0 L 99.0 160.0 L 99.0 161.0 L 99.0 162.0 L 99.0 163.0 L 99.0 164.0 L 99.0 165.0 L 98.0 166.0 L 98.0 167.0 L 98.0 168.0 L 98.0 169.0 L 98.0 170.0 L 97.0 171.0 L 97.0 173.0 L 97.0 174.0 L 96.0 175.0 L 96.0 176.0 L 96.0 177.0 L 96.0 179.0 L 95.0 180.0 L 95.0 181.0 L 95.0 183.0 L 94.0 184.0 L 94.0 186.0 L 94.0 187.0 L 93.0 188.0 L 93.0 190.0 L 92.0 191.0 L 92.0 193.0 L 92.0 194.0 L 91.0 195.0 L 91.0 196.0 L 91.0 198.0 L 90.0 199.0 L 90.0 200.0 L 89.0 202.0 L 89.0 203.0 L 88.0 204.0 L 88.0 205.0 L 87.0 206.0 L 87.0 207.0 L 86.0 208.0 L 86.0 209.0 L 85.0 211.0 L 85.0 211.0 L 84.0 212.0 L 83.0 213.0 L 83.0 214.0 L 82.0 215.0 L 82.0 216.0 L 81.0 217.0 L 80.0 218.0 L 79.0 220.0 L 78.0 221.0 L 77.0 222.0 L 76.0 223.0 L 75.0 224.0 L 74.0 225.0 L 73.0 227.0 L 72.0 228.0 L 71.0 230.0 L 69.0 233.0 L 67.0 235.0 L 65.0 238.0 L 63.0 241.0 L 61.0 243.0 L 60.0 244.0 L 59.0 245.0 L 58.0 246.0 L 58.0 246.0 " stroke="black" fill="none" stroke-width="5.0" stroke-linecap="round" stroke-linejoin="round" />
<path d="M 97.0 186.0 L 97.0 186.0 L 96.0 186.0 L 96.0 186.0 L 96.0 185.0 L 95.0 185.0 L 95.0 185.0 L 95.0 185.0 L 95.0 185.0 L 95.0 185.0 L 96.0 186.0 L 96.0 186.0 L 97.0 187.0 L 98.0 189.0 L 99.0 190.0 L 100.0 192.0 L 102.0 193.0 L 103.0 196.0 L 105.0 198.0 L 107.0 201.0 L 109.0 204.0 L 111.0 206.0 L 112.0 208.0 L 114.0 210.0 L 115.0 211.0 L 116.0 212.0 L 117.0 212.0 L 118.0 212.0 L 118.0 213.0 L 118.0 213.0 L 119.0 213.0 " stroke="black" fill="none" stroke-width="5.0" stroke-linecap="round" stroke-linejoin="round" />
<path d="M 149.0 80.0 L 149.0 80.0 L 149.0 80.0 L 148.0 80.0 L 148.0 80.0 L 148.0 80.0 L 148.0 80.0 L 147.0 80.0 L 147.0 80.0 L 147.0 80.0 L 147.0 80.0 L 147.0 80.0 L 147.0 80.0 L 147.0 80.0 L 147.0 80.0 L 147.0 80.0 L 148.0 80.0 L 149.0 80.0 L 149.0 80.0 L 150.0 80.0 L 151.0 80.0 L 152.0 80.0 L 153.0 80.0 L 154.0 80.0 L 155.0 80.0 L 156.0 81.0 L 157.0 81.0 L 159.0 81.0 L 160.0 81.0 L 161.0 81.0 L 162.0 81.0 L 164.0 81.0 L 165.0 82.0 L 166.0 82.0 L 168.0 82.0 L 169.0 82.0 L 170.0 82.0 L 171.0 82.0 L 172.0 82.0 L 173.0 82.0 L 175.0 82.0 L 176.0 82.0 L 177.0 82.0 L 178.0 82.0 L 179.0 82.0 L 180.0 82.0 L 181.0 82.0 L 182.0 82.0 L 183.0 82.0 L 183.0 82.0 L 184.0 82.0 L 185.0 82.0 L 185.0 82.0 L 186.0 82.0 L 186.0 82.0 L 187.0 82.0 L 188.0 82.0 L 188.0 82.0 L 189.0 82.0 L 189.0 82.0 L 190.0 82.0 L 190.0 82.0 L 191.0 82.0 L 191.0 82.0 L 192.0 82.0 L 192.0 83.0 L 193.0 83.0 L 193.0 83.0 L 194.0 83.0 L 194.0 83.0 L 195.0 83.0 L 196.0 83.0 L 196.0 83.0 L 197.0 83.0 L 197.0 83.0 L 198.0 83.0 L 198.0 83.0 L 199.0 83.0 L 200.0 83.0 L 200.0 83.0 L 201.0 84.0 L 201.0 84.0 L 202.0 84.0 L 203.0 84.0 L 203.0 84.0 L 204.0 84.0 L 205.0 84.0 L 205.0 84.0 L 206.0 84.0 L 207.0 84.0 L 207.0 84.0 L 208.0 84.0 L 209.0 84.0 L 210.0 84.0 L 210.0 84.0 L 211.0 84.0 L 212.0 84.0 L 213.0 84.0 L 214.0 84.0 L 214.0 84.0 L 215.0 84.0 L 216.0 84.0 L 217.0 84.0 L 218.0 84.0 L 219.0 84.0 L 219.0 84.0 L 220.0 84.0 L 221.0 84.0 L 222.0 84.0 L 223.0 84.0 L 224.0 84.0 L 225.0 84.0 L 226.0 84.0 L 227.0 84.0 L 228.0 84.0 L 229.0 84.0 L 230.0 84.0 L 231.0 84.0 L 232.0 84.0 L 233.0 84.0 L 234.0 84.0 L 235.0 84.0 L 236.0 84.0 L 236.0 84.0 L 237.0 83.0 L 238.0 83.0 L 238.0 83.0 L 239.0 83.0 L 239.0 83.0 L 239.0 83.0 " stroke="black" fill="none" stroke-width="5.0" stroke-linecap="round" stroke-linejoin="round" />
<path d="M 151.0 120.0 L 151.0 120.0 L 151.0 120.0 L 151.0 120.0 L 151.0 120.0 L 151.0 120.0 L 151.0 120.0 L 151.0 120.0 L 151.0 120.0 L 151.0 120.0 L 151.0 120.0 L 151.0 120.0 L 151.0 120.0 L 151.0 120.0 L 151.0 121.0 L 151.0 123.0 L 151.0 125.0 L 151.0 127.0 L 151.0 130.0 L 152.0 134.0 L 152.0 138.0 L 152.0 142.0 L 152.0 146.0 L 152.0 150.0 L 152.0 153.0 L 152.0 157.0 L 152.0 159.0 L 152.0 161.0 L 152.0 164.0 L 152.0 165.0 L 152.0 166.0 L 152.0 168.0 L 152.0 168.0 L 152.0 168.0 L 152.0 169.0 L 152.0 169.0 L 152.0 169.0 L 152.0 169.0 L 152.0 169.0 L 152.0 169.0 L 152.0 169.0 " stroke="black" fill="none" stroke-width="5.0" stroke-linecap="round" stroke-linejoin="round" />
<path d="M 150.0 121.0 L 150.0 121.0 L 150.0 121.0 L 149.0 121.0 L 149.0 122.0 L 148.0 122.0 L 148.0 122.0 L 147.0 122.0 L 147.0 122.0 L 147.0 122.0 L 147.0 122.0 L 147.0 122.0 L 147.0 122.0 L 147.0 121.0 L 148.0 121.0 L 148.0 120.0 L 148.0 120.0 L 149.0 120.0 L 149.0 120.0 L 149.0 119.0 L 149.0 119.0 L 150.0 119.0 L 150.0 119.0 L 150.0 119.0 L 150.0 119.0 L 151.0 119.0 L 151.0 119.0 L 151.0 119.0 L 152.0 119.0 L 152.0 119.0 L 152.0 119.0 L 153.0 119.0 L 153.0 119.0 L 153.0 119.0 L 154.0 119.0 L 154.0 119.0 L 155.0 119.0 L 155.0 119.0 L 155.0 120.0 L 156.0 120.0 L 156.0 120.0 L 157.0 120.0 L 157.0 120.0 L 157.0 120.0 L 158.0 120.0 L 158.0 120.0 L 158.0 120.0 L 158.0 120.0 L 159.0 120.0 L 159.0 120.0 L 159.0 120.0 L 160.0 120.0 L 160.0 120.0 L 160.0 120.0 L 161.0 120.0 L 161.0 120.0 L 162.0 120.0 L 162.0 119.0 L 162.0 119.0 L 163.0 119.0 L 163.0 119.0 L 164.0 119.0 L 164.0 119.0 L 165.0 119.0 L 165.0 119.0 L 166.0 119.0 L 166.0 119.0 L 166.0 119.0 L 167.0 119.0 L 167.0 119.0 L 168.0 119.0 L 168.0 119.0 L 169.0 119.0 L 169.0 119.0 L 170.0 119.0 L 170.0 119.0 L 171.0 119.0 L 171.0 119.0 L 172.0 119.0 L 173.0 119.0 L 173.0 119.0 L 174.0 119.0 L 175.0 119.0 L 176.0 119.0 L 176.0 119.0 L 177.0 119.0 L 178.0 119.0 L 179.0 118.0 L 179.0 118.0 L 180.0 118.0 L 181.0 118.0 L 182.0 118.0 L 182.0 118.0 L 183.0 118.0 L 184.0 118.0 L 185.0 118.0 L 185.0 118.0 L 186.0 118.0 L 186.0 118.0 L 187.0 118.0 L 187.0 118.0 L 188.0 118.0 L 188.0 118.0 L 189.0 118.0 L 189.0 118.0 L 189.0 118.0 L 190.0 118.0 L 190.0 118.0 L 191.0 118.0 L 191.0 118.0 L 191.0 118.0 L 192.0 118.0 L 192.0 118.0 L 192.0 118.0 L 193.0 118.0 L 193.0 118.0 L 193.0 118.0 L 194.0 118.0 L 194.0 118.0 L 194.0 118.0 L 195.0 118.0 L 195.0 118.0 L 196.0 118.0 L 196.0 118.0 L 196.0 118.0 L 197.0 118.0 L 197.0 118.0 L 197.0 118.0 L 198.0 118.0 L 198.0 118.0 L 198.0 118.0 L 199.0 118.0 L 199.0 118.0 L 200.0 118.0 L 200.0 118.0 L 200.0 118.0 L 201.0 118.0 L 201.0 118.0 L 201.0 118.0 L 202.0 118.0 L 202.0 118.0 L 203.0 118.0 L 203.0 118.0 L 203.0 118.0 L 204.0 118.0 L 204.0 118.0 L 205.0 118.0 L 205.0 118.0 L 205.0 118.0 L 206.0 118.0 L 206.0 118.0 L 207.0 118.0 L 207.0 118.0 L 208.0 118.0 L 208.0 118.0 L 209.0 119.0 L 209.0 119.0 L 209.0 119.0 L 210.0 119.0 L 210.0 119.0 L 211.0 119.0 L 211.0 119.0 L 212.0 119.0 L 212.0 119.0 L 213.0 119.0 L 213.0 119.0 L 214.0 119.0 L 214.0 119.0 L 215.0 119.0 L 215.0 119.0 L 216.0 119.0 L 216.0 119.0 L 216.0 119.0 L 217.0 119.0 L 217.0 119.0 L 218.0 119.0 L 218.0 119.0 L 219.0 119.0 L 219.0 119.0 L 220.0 119.0 L 220.0 119.0 L 221.0 119.0 L 221.0 119.0 L 222.0 119.0 L 222.0 119.0 L 223.0 119.0 L 223.0 119.0 L 223.0 119.0 L 224.0 119.0 L 224.0 119.0 L 225.0 119.0 L 225.0 119.0 L 225.0 119.0 L 226.0 119.0 L 226.0 119.0 L 226.0 119.0 L 227.0 119.0 L 227.0 119.0 L 227.0 119.0 L 227.0 119.0 L 228.0 119.0 L 228.0 119.0 L 228.0 119.0 L 228.0 119.0 L 228.0 120.0 L 228.0 120.0 L 228.0 120.0 L 228.0 121.0 L 228.0 122.0 L 228.0 123.0 L 228.0 123.0 L 228.0 124.0 L 228.0 126.0 L 228.0 127.0 L 228.0 128.0 L 228.0 129.0 L 228.0 130.0 L 228.0 131.0 L 228.0 132.0 L 228.0 133.0 L 228.0 134.0 L 228.0 135.0 L 228.0 136.0 L 228.0 137.0 L 228.0 138.0 L 228.0 139.0 L 228.0 141.0 L 228.0 142.0 L 228.0 143.0 L 228.0 144.0 L 228.0 145.0 L 228.0 146.0 L 228.0 147.0 L 228.0 148.0 L 228.0 150.0 L 228.0 151.0 L 228.0 152.0 L 228.0 154.0 L 228.0 155.0 L 228.0 157.0 L 228.0 158.0 L 228.0 160.0 L 228.0 161.0 L 228.0 162.0 L 227.0 163.0 L 227.0 165.0 L 227.0 166.0 L 227.0 166.0 L 227.0 168.0 L 227.0 168.0 L 227.0 169.0 L 226.0 170.0 L 226.0 171.0 L 226.0 171.0 L 226.0 172.0 L 226.0 172.0 L 226.0 172.0 L 226.0 172.0 L 225.0 172.0 L 225.0 172.0 L 225.0 172.0 L 225.0 172.0 L 225.0 172.0 " stroke="black" fill="none" stroke-width="5.0" stroke-linecap="round" stroke-linejoin="round" />
<path d="M 153.0 168.0 L 153.0 168.0 L 153.0 168.0 L 152.0 168.0 L 152.0 168.0 L 152.0 168.0 L 151.0 169.0 L 151.0 169.0 L 151.0 169.0 L 151.0 169.0 L 151.0 169.0 L 151.0 169.0 L 151.0 169.0 L 152.0 169.0 L 152.0 169.0 L 153.0 169.0 L 154.0 169.0 L 155.0 169.0 L 155.0 169.0 L 156.0 169.0 L 157.0 169.0 L 158.0 169.0 L 159.0 169.0 L 160.0 169.0 L 162.0 169.0 L 163.0 170.0 L 164.0 170.0 L 165.0 170.0 L 167.0 170.0 L 168.0 170.0 L 169.0 170.0 L 170.0 170.0 L 172.0 170.0 L 173.0 170.0 L 175.0 170.0 L 176.0 170.0 L 177.0 170.0 L 179.0 170.0 L 180.0 170.0 L 181.0 170.0 L 182.0 170.0 L 183.0 170.0 L 184.0 170.0 L 185.0 170.0 L 186.0 170.0 L 187.0 170.0 L 187.0 170.0 L 188.0 170.0 L 189.0 170.0 L 189.0 170.0 L 190.0 170.0 L 190.0 170.0 L 191.0 170.0 L 191.0 170.0 L 192.0 171.0 L 192.0 171.0 L 193.0 171.0 L 193.0 171.0 L 194.0 171.0 L 194.0 171.0 L 194.0 171.0 L 195.0 171.0 L 195.0 171.0 L 196.0 171.0 L 196.0 171.0 L 197.0 171.0 L 198.0 171.0 L 198.0 171.0 L 199.0 171.0 L 199.0 171.0 L 200.0 171.0 L 200.0 171.0 L 201.0 171.0 L 202.0 171.0 L 202.0 171.0 L 203.0 171.0 L 203.0 171.0 L 204.0 171.0 L 205.0 171.0 L 205.0 171.0 L 206.0 171.0 L 206.0 171.0 L 207.0 171.0 L 208.0 171.0 L 208.0 171.0 L 209.0 171.0 L 209.0 171.0 L 210.0 171.0 L 210.0 171.0 L 211.0 171.0 L 211.0 170.0 L 212.0 170.0 L 212.0 170.0 L 212.0 170.0 L 213.0 170.0 L 213.0 170.0 L 214.0 170.0 L 214.0 170.0 L 215.0 170.0 L 215.0 170.0 L 216.0 170.0 L 217.0 170.0 L 218.0 170.0 L 218.0 170.0 L 219.0 170.0 L 220.0 170.0 L 221.0 170.0 L 221.0 170.0 L 222.0 170.0 L 223.0 170.0 L 224.0 170.0 L 224.0 170.0 L 225.0 170.0 L 225.0 170.0 L 225.0 170.0 " stroke="black" fill="none" stroke-width="5.0" stroke-linecap="round" stroke-linejoin="round" />
<path d="M 152.0 172.0 L 152.0 172.0 L 152.0 172.0 L 152.0 173.0 L 151.0 173.0 L 151.0 173.0 L 151.0 174.0 L 151.0 174.0 L 151.0 174.0 L 151.0 175.0 L 151.0 175.0 L 151.0 176.0 L 152.0 177.0 L 152.0 179.0 L 153.0 180.0 L 153.0 182.0 L 154.0 184.0 L 155.0 186.0 L 156.0 188.0 L 156.0 190.0 L 157.0 193.0 L 158.0 195.0 L 160.0 198.0 L 161.0 201.0 L 162.0 203.0 L 163.0 205.0 L 164.0 208.0 L 165.0 210.0 L 166.0 212.0 L 167.0 214.0 L 167.0 216.0 L 168.0 218.0 L 168.0 219.0 L 169.0 220.0 L 169.0 221.0 L 170.0 223.0 L 171.0 224.0 L 171.0 225.0 L 172.0 226.0 L 173.0 227.0 L 173.0 228.0 L 174.0 230.0 L 174.0 231.0 L 174.0 232.0 L 174.0 233.0 L 175.0 234.0 L 175.0 234.0 L 175.0 234.0 L 175.0 234.0 " stroke="black" fill="none" stroke-width="5.0" stroke-linecap="round" stroke-linejoin="round" />
<path d="M 222.0 178.0 L 222.0 178.0 L 222.0 178.0 L 222.0 178.0 L 222.0 178.0 L 222.0 177.0 L 222.0 177.0 L 222.0 177.0 L 222.0 177.0 L 222.0 177.0 L 222.0 177.0 L 222.0 178.0 L 222.0 179.0 L 221.0 181.0 L 221.0 183.0 L 220.0 186.0 L 218.0 189.0 L 217.0 193.0 L 215.0 198.0 L 213.0 203.0 L 212.0 207.0 L 210.0 212.0 L 208.0 215.0 L 206.0 218.0 L 205.0 222.0 L 204.0 224.0 L 203.0 226.0 L 202.0 228.0 L 201.0 230.0 L 201.0 230.0 L 201.0 231.0 " stroke="black" fill="none" stroke-width="5.0" stroke-linecap="round" stroke-linejoin="round" />
<path d="M 146.0 241.0 L 146.0 241.0 L 146.0 241.0 L 146.0 241.0 L 146.0 240.0 L 146.0 240.0 L 146.0 240.0 L 146.0 240.0 L 146.0 240.0 L 146.0 240.0 L 146.0 240.0 L 146.0 240.0 L 146.0 240.0 L 146.0 240.0 L 146.0 240.0 L 146.0 240.0 L 146.0 241.0 L 146.0 241.0 L 147.0 241.0 L 147.0 242.0 L 148.0 242.0 L 149.0 243.0 L 149.0 243.0 L 150.0 243.0 L 152.0 244.0 L 153.0 244.0 L 154.0 244.0 L 156.0 244.0 L 158.0 244.0 L 160.0 244.0 L 162.0 244.0 L 164.0 244.0 L 166.0 244.0 L 168.0 244.0 L 171.0 244.0 L 173.0 244.0 L 175.0 244.0 L 177.0 243.0 L 178.0 243.0 L 180.0 243.0 L 181.0 243.0 L 182.0 242.0 L 184.0 242.0 L 185.0 242.0 L 186.0 242.0 L 187.0 241.0 L 188.0 241.0 L 189.0 241.0 L 190.0 241.0 L 191.0 241.0 L 192.0 241.0 L 193.0 241.0 L 194.0 241.0 L 194.0 241.0 L 195.0 241.0 L 196.0 241.0 L 197.0 241.0 L 198.0 241.0 L 199.0 241.0 L 200.0 241.0 L 201.0 241.0 L 202.0 241.0 L 203.0 241.0 L 204.0 241.0 L 205.0 241.0 L 207.0 241.0 L 208.0 241.0 L 210.0 241.0 L 211.0 241.0 L 213.0 241.0 L 215.0 241.0 L 217.0 241.0 L 219.0 241.0 L 221.0 241.0 L 222.0 240.0 L 224.0 240.0 L 225.0 240.0 L 227.0 240.0 L 228.0 240.0 L 230.0 240.0 L 231.0 240.0 L 232.0 240.0 L 233.0 239.0 L 235.0 239.0 L 236.0 239.0 L 237.0 239.0 L 238.0 238.0 L 239.0 238.0 L 240.0 238.0 L 240.0 238.0 L 241.0 238.0 L 242.0 238.0 L 242.0 238.0 L 243.0 238.0 L 243.0 238.0 L 243.0 238.0 L 244.0 238.0 L 244.0 238.0 L 244.0 238.0 L 244.0 238.0 L 244.0 239.0 L 244.0 239.0 L 243.0 239.0 L 243.0 240.0 " stroke="black" fill="none" stroke-width="5.0" stroke-linecap="round" stroke-linejoin="round" />
</svg>