<svg xmlns="http://www.w3.org/2000/svg" width="300" height="300" viewBox="0 0 300 300">
<path d="M 153.0 138.0 L 153.0 138.0 L 153.0 138.0 L 152.0 139.0 L 152.0 140.0 L 152.0 141.0 L 152.0 142.0 L 152.0 144.0 L 152.0 147.0 L 152.0 152.0 L 152.0 157.0 L 153.0 164.0 L 153.0 173.0 L 154.0 185.0 L 154.0 197.0 L 154.0 208.0 L 154.0 218.0 L 154.0 227.0 L 154.0 233.0 L 154.0 237.0 L 155.0 237.0 L 155.0 236.0 " stroke="black" fill="none" stroke-width="5.0" stroke-linecap="round" stroke-linejoin="round" />
<path d="M 145.0 80.0 L 145.0 80.0 L 144.0 80.0 L 143.0 80.0 L 143.0 80.0 L 143.0 80.0 L 143.0 81.0 L 143.0 84.0 L 145.0 87.0 L 148.0 90.0 L 150.0 95.0 L 153.0 100.0 L 157.0 105.0 L 160.0 109.0 L 162.0 113.0 L 164.0 115.0 L 165.0 117.0 " stroke="black" fill="none" stroke-width="5.0" stroke-linecap="round" stroke-linejoin="round" />
</svg>