<svg xmlns="http://www.w3.org/2000/svg" width="300" height="300" viewBox="0 0 300 300">
<path d="M 103.0 84.0 L 103.0 84.0 L 103.0 84.0 L 102.0 84.0 L 102.0 83.0 L 102.0 83.0 L 102.0 84.0 L 102.0 86.0 L 102.0 91.0 L 102.0 97.0 L 103.0 105.0 L 103.0 114.0 L 103.0 125.0 L 103.0 136.0 L 103.0 147.0 L 103.0 158.0 L 102.0 164.0 L 102.0 169.0 L 102.0 172.0 L 102.0 173.0 " stroke="black" fill="none" stroke-width="5.0" stroke-linecap="round" stroke-linejoin="round" />
<path d="M 107.0 84.0 L 106.0 84.0 L 105.0 84.0 L 105.0 84.0 L 104.0 84.0 L 104.0 84.0 L 103.0 84.0 L 103.0 84.0 L 103.0 84.0 L 105.0 84.0 L 107.0 84.0 L 111.0 84.0 L 117.0 84.0 L 125.0 84.0 L 135.0 84.0 L 145.0 83.0 L 155.0 83.0 L 163.0 82.0 L 172.0 82.0 L 181.0 82.0 L 187.0 82.0 L 193.0 82.0 L 197.0 82.0 L 199.0 83.0 L 202.0 83.0 L 204.0 83.0 " stroke="black" fill="none" stroke-width="5.0" stroke-linecap="round" stroke-linejoin="round" />
<path d="M 111.0 117.0 L 111.0 117.0 L 111.0 116.0 L 111.0 116.0 L 111.0 116.0 L 111.0 115.0 L 111.0 115.0 L 112.0 115.0 L 115.0 115.0 L 120.0 115.0 L 128.0 115.0 L 137.0 116.0 L 148.0 116.0 L 159.0 116.0 L 171.0 115.0 L 184.0 114.0 L 192.0 114.0 L 197.0 114.0 L 200.0 114.0 L 201.0 115.0 " stroke="black" fill="none" stroke-width="5.0" stroke-linecap="round" stroke-linejoin="round" />
<path d="M 111.0 146.0 L 111.0 146.0 L 110.0 146.0 L 110.0 146.0 L 109.0 146.0 L 109.0 146.0 L 109.0 146.0 L 109.0 146.0 L 112.0 146.0 L 116.0 145.0 L 123.0 145.0 L 131.0 145.0 L 140.0 145.0 L 149.0 144.0 L 157.0 144.0 L 165.0 144.0 L 173.0 144.0 L 180.0 144.0 L 185.0 145.0 L 188.0 145.0 " stroke="black" fill="none" stroke-width="5.0" stroke-linecap="round" stroke-linejoin="round" />
<path d="M 65.0 172.0 L 65.0 172.0 L 65.0 172.0 L 65.0 172.0 L 65.0 172.0 L 65.0 172.0 L 65.0 171.0 L 65.0 171.0 L 66.0 171.0 L 67.0 170.0 L 70.0 170.0 L 73.0 170.0 L 79.0 169.0 L 85.0 169.0 L 93.0 168.0 L 101.0 168.0 L 108.0 168.0 L 115.0 168.0 L 123.0 167.0 L 131.0 167.0 L 139.0 167.0 L 148.0 167.0 L 155.0 167.0 L 161.0 167.0 L 168.0 167.0 L 175.0 167.0 L 182.0 167.0 L 189.0 167.0 L 194.0 167.0 L 197.0 167.0 L 201.0 167.0 L 205.0 167.0 L 209.0 167.0 L 213.0 166.0 L 216.0 166.0 L 219.0 165.0 L 221.0 165.0 L 222.0 165.0 L 222.0 166.0 " stroke="black" fill="none" stroke-width="5.0" stroke-linecap="round" stroke-linejoin="round" />
<path d="M 99.0 176.0 L 99.0 176.0 L 99.0 176.0 L 98.0 177.0 L 98.0 177.0 L 98.0 178.0 L 98.0 179.0 L 98.0 181.0 L 98.0 184.0 L 98.0 186.0 L 99.0 190.0 L 99.0 194.0 L 99.0 198.0 L 99.0 203.0 L 98.0 208.0 L 97.0 214.0 L 96.0 220.0 L 96.0 225.0 L 95.0 230.0 L 95.0 235.0 L 95.0 239.0 L 95.0 241.0 L 95.0 243.0 L 95.0 244.0 L 95.0 245.0 L 95.0 246.0 L 95.0 246.0 L 95.0 246.0 L 96.0 246.0 L 97.0 246.0 L 98.0 246.0 L 99.0 246.0 L 100.0 245.0 L 102.0 244.0 L 104.0 243.0 L 107.0 242.0 L 110.0 240.0 L 115.0 238.0 L 120.0 236.0 L 127.0 234.0 L 136.0 231.0 L 143.0 228.0 L 150.0 225.0 " stroke="black" fill="none" stroke-width="5.0" stroke-linecap="round" stroke-linejoin="round" />
<path d="M 208.0 188.0 L 208.0 188.0 L 208.0 188.0 L 208.0 188.0 L 208.0 188.0 L 208.0 188.0 L 208.0 188.0 L 207.0 189.0 L 205.0 190.0 L 202.0 192.0 L 199.0 195.0 L 194.0 199.0 L 188.0 204.0 L 182.0 208.0 L 175.0 212.0 L 168.0 214.0 L 163.0 215.0 " stroke="black" fill="none" stroke-width="5.0" stroke-linecap="round" stroke-linejoin="round" />
<path d="M 145.0 190.0 L 145.0 190.0 L 144.0 190.0 L 144.0 189.0 L 143.0 189.0 L 143.0 189.0 L 143.0 188.0 L 143.0 188.0 L 143.0 188.0 L 145.0 189.0 L 146.0 190.0 L 148.0 192.0 L 151.0 195.0 L 153.0 198.0 L 156.0 202.0 L 161.0 206.0 L 166.0 210.0 L 172.0 214.0 L 179.0 219.0 L 186.0 223.0 L 191.0 227.0 L 196.0 231.0 L 201.0 234.0 L 206.0 236.0 L 212.0 237.0 L 217.0 238.0 L 222.0 238.0 L 226.0 238.0 L 229.0 239.0 L 230.0 239.0 L 231.0 239.0 " stroke="black" fill="none" stroke-width="5.0" stroke-linecap="round" stroke-linejoin="round" />
</svg>