<svg xmlns="http://www.w3.org/2000/svg" width="300" height="300" viewBox="0 0 300 300">
<path d="M 88.0 85.0 L 88.0 85.0 L 88.0 85.0 L 88.0 85.0 L 88.0 85.0 L 88.0 85.0 L 88.0 85.0 L 88.0 85.0 L 88.0 85.0 L 88.0 85.0 L 88.0 85.0 L 88.0 85.0 L 88.0 85.0 L 88.0 85.0 L 88.0 85.0 L 88.0 86.0 L 88.0 87.0 L 88.0 88.0 L 88.0 88.0 L 88.0 89.0 L 89.0 90.0 L 89.0 91.0 L 89.0 93.0 L 89.0 94.0 L 89.0 95.0 L 89.0 96.0 L 89.0 98.0 L 90.0 99.0 L 90.0 100.0 L 90.0 102.0 L 90.0 103.0 L 90.0 104.0 L 90.0 106.0 L 90.0 107.0 L 90.0 109.0 L 90.0 110.0 L 91.0 111.0 L 91.0 113.0 L 91.0 114.0 L 91.0 115.0 L 91.0 116.0 L 91.0 117.0 L 91.0 118.0 L 91.0 119.0 L 91.0 120.0 L 91.0 121.0 L 91.0 122.0 L 91.0 123.0 L 91.0 124.0 L 91.0 125.0 L 91.0 126.0 L 91.0 126.0 L 91.0 127.0 L 91.0 128.0 L 91.0 129.0 L 91.0 130.0 L 91.0 131.0 L 91.0 132.0 L 91.0 133.0 L 91.0 135.0 L 91.0 136.0 L 91.0 137.0 L 91.0 138.0 L 91.0 139.0 L 91.0 141.0 L 91.0 142.0 L 91.0 143.0 L 91.0 145.0 L 91.0 146.0 L 91.0 147.0 L 91.0 148.0 L 91.0 149.0 L 91.0 150.0 L 90.0 152.0 L 90.0 153.0 L 90.0 154.0 L 90.0 155.0 L 90.0 156.0 L 90.0 157.0 L 90.0 158.0 L 90.0 159.0 L 90.0 160.0 L 89.0 161.0 L 89.0 162.0 L 89.0 163.0 L 89.0 164.0 L 89.0 165.0 L 89.0 166.0 L 88.0 167.0 L 88.0 168.0 L 88.0 170.0 L 88.0 171.0 L 87.0 172.0 L 87.0 173.0 L 87.0 175.0 L 87.0 176.0 L 86.0 177.0 L 86.0 178.0 L 86.0 179.0 L 86.0 180.0 L 85.0 181.0 L 85.0 182.0 L 85.0 183.0 L 85.0 185.0 L 85.0 186.0 L 85.0 187.0 L 84.0 188.0 L 84.0 189.0 L 84.0 190.0 L 84.0 191.0 L 84.0 192.0 L 83.0 192.0 L 83.0 193.0 L 83.0 194.0 L 83.0 194.0 L 83.0 195.0 L 82.0 196.0 L 82.0 196.0 L 82.0 197.0 L 82.0 198.0 L 81.0 198.0 L 81.0 199.0 L 81.0 200.0 L 81.0 200.0 L 81.0 201.0 L 81.0 202.0 L 80.0 203.0 L 80.0 204.0 L 80.0 204.0 L 80.0 205.0 L 79.0 206.0 L 79.0 207.0 L 79.0 208.0 L 78.0 209.0 L 78.0 210.0 L 78.0 211.0 L 77.0 212.0 L 77.0 213.0 L 76.0 214.0 L 76.0 215.0 L 75.0 216.0 L 75.0 217.0 L 74.0 218.0 L 74.0 219.0 L 74.0 220.0 L 73.0 221.0 L 73.0 222.0 L 73.0 223.0 L 73.0 224.0 L 73.0 224.0 L 73.0 225.0 L 73.0 225.0 L 73.0 226.0 L 73.0 226.0 L 73.0 227.0 L 73.0 227.0 L 73.0 227.0 L 73.0 228.0 L 72.0 228.0 L 72.0 228.0 L 72.0 229.0 L 72.0 229.0 L 72.0 230.0 L 72.0 230.0 L 71.0 231.0 L 71.0 231.0 L 71.0 232.0 L 71.0 233.0 L 71.0 233.0 L 70.0 234.0 L 70.0 235.0 L 70.0 235.0 L 69.0 236.0 L 69.0 237.0 L 68.0 238.0 L 68.0 239.0 L 67.0 240.0 L 67.0 241.0 L 67.0 242.0 L 66.0 243.0 L 66.0 244.0 L 66.0 244.0 L 66.0 245.0 L 66.0 246.0 L 65.0 246.0 L 65.0 247.0 L 65.0 247.0 L 65.0 248.0 L 65.0 248.0 L 65.0 248.0 L 65.0 248.0 L 65.0 248.0 L 65.0 248.0 L 65.0 248.0 " stroke="black" fill="none" stroke-width="5.0" stroke-linecap="round" stroke-linejoin="round" />
<path d="M 95.0 83.0 L 95.0 83.0 L 95.0 83.0 L 95.0 83.0 L 95.0 83.0 L 94.0 83.0 L 94.0 83.0 L 94.0 83.0 L 94.0 83.0 L 94.0 83.0 L 94.0 83.0 L 93.0 84.0 L 93.0 84.0 L 93.0 84.0 L 93.0 84.0 L 93.0 84.0 L 93.0 84.0 L 93.0 84.0 L 94.0 84.0 L 94.0 84.0 L 95.0 84.0 L 96.0 84.0 L 96.0 84.0 L 97.0 84.0 L 98.0 84.0 L 99.0 84.0 L 100.0 84.0 L 101.0 84.0 L 102.0 84.0 L 103.0 84.0 L 104.0 84.0 L 105.0 84.0 L 105.0 84.0 L 106.0 84.0 L 107.0 84.0 L 108.0 84.0 L 109.0 84.0 L 110.0 84.0 L 110.0 84.0 L 111.0 84.0 L 112.0 84.0 L 112.0 84.0 L 113.0 84.0 L 114.0 84.0 L 114.0 84.0 L 115.0 84.0 L 115.0 84.0 L 116.0 84.0 L 117.0 84.0 L 117.0 84.0 L 118.0 84.0 L 119.0 84.0 L 119.0 84.0 L 120.0 84.0 L 121.0 83.0 L 122.0 83.0 L 123.0 83.0 L 123.0 83.0 L 124.0 83.0 L 125.0 83.0 L 126.0 83.0 L 127.0 83.0 L 128.0 83.0 L 129.0 82.0 L 130.0 82.0 L 130.0 82.0 L 131.0 82.0 L 132.0 82.0 L 133.0 82.0 L 133.0 82.0 L 134.0 82.0 L 135.0 82.0 L 136.0 82.0 L 137.0 82.0 L 137.0 82.0 L 138.0 82.0 L 139.0 81.0 L 140.0 81.0 L 140.0 81.0 L 141.0 81.0 L 142.0 81.0 L 143.0 81.0 L 144.0 81.0 L 144.0 81.0 L 145.0 81.0 L 146.0 81.0 L 146.0 81.0 L 147.0 81.0 L 148.0 81.0 L 148.0 81.0 L 149.0 81.0 L 149.0 81.0 L 150.0 81.0 L 150.0 81.0 L 151.0 81.0 L 151.0 81.0 L 152.0 81.0 L 152.0 81.0 L 152.0 81.0 L 153.0 81.0 L 153.0 81.0 L 154.0 81.0 L 154.0 81.0 L 155.0 81.0 L 155.0 81.0 L 156.0 81.0 L 156.0 81.0 L 157.0 81.0 L 157.0 81.0 L 158.0 81.0 L 159.0 81.0 L 159.0 81.0 L 160.0 81.0 L 161.0 81.0 L 162.0 81.0 L 162.0 81.0 L 163.0 81.0 L 164.0 81.0 L 165.0 81.0 L 166.0 81.0 L 167.0 81.0 L 168.0 81.0 L 169.0 81.0 L 170.0 81.0 L 171.0 81.0 L 172.0 81.0 L 173.0 81.0 L 175.0 81.0 L 176.0 81.0 L 177.0 81.0 L 178.0 81.0 L 179.0 81.0 L 180.0 81.0 L 181.0 81.0 L 182.0 81.0 L 183.0 81.0 L 184.0 81.0 L 184.0 81.0 L 185.0 81.0 L 186.0 81.0 L 187.0 81.0 L 188.0 81.0 L 188.0 81.0 L 189.0 81.0 L 190.0 81.0 L 190.0 81.0 L 191.0 81.0 L 191.0 81.0 L 192.0 81.0 L 192.0 82.0 L 193.0 82.0 L 193.0 82.0 L 194.0 82.0 L 194.0 82.0 L 195.0 82.0 L 195.0 82.0 L 195.0 82.0 L 196.0 82.0 L 196.0 82.0 L 197.0 82.0 L 197.0 82.0 L 197.0 82.0 L 198.0 82.0 L 198.0 82.0 L 198.0 82.0 L 199.0 82.0 L 199.0 82.0 L 200.0 82.0 L 200.0 82.0 L 201.0 82.0 L 202.0 82.0 L 202.0 82.0 L 203.0 82.0 L 203.0 82.0 L 204.0 82.0 L 204.0 82.0 L 205.0 82.0 L 205.0 82.0 L 206.0 83.0 L 207.0 83.0 L 207.0 83.0 L 208.0 83.0 L 208.0 83.0 L 209.0 83.0 L 210.0 83.0 L 210.0 83.0 L 210.0 83.0 L 211.0 83.0 L 211.0 83.0 L 212.0 83.0 L 212.0 83.0 L 212.0 83.0 L 212.0 83.0 L 213.0 83.0 L 213.0 84.0 L 213.0 84.0 L 213.0 84.0 L 213.0 84.0 L 213.0 84.0 L 213.0 84.0 L 213.0 84.0 L 213.0 85.0 L 213.0 85.0 L 213.0 86.0 L 213.0 86.0 L 213.0 87.0 L 212.0 88.0 L 212.0 89.0 L 212.0 91.0 L 211.0 92.0 L 211.0 94.0 L 211.0 96.0 L 210.0 98.0 L 210.0 100.0 L 210.0 102.0 L 210.0 104.0 L 209.0 106.0 L 209.0 109.0 L 209.0 110.0 L 209.0 112.0 L 209.0 114.0 L 209.0 116.0 L 209.0 118.0 L 209.0 120.0 L 209.0 122.0 L 209.0 123.0 L 209.0 125.0 L 209.0 126.0 L 209.0 128.0 L 209.0 129.0 L 209.0 131.0 L 209.0 132.0 L 209.0 134.0 L 209.0 136.0 L 209.0 137.0 L 209.0 140.0 L 209.0 141.0 L 209.0 143.0 L 209.0 146.0 L 209.0 147.0 L 209.0 149.0 L 209.0 150.0 L 209.0 152.0 L 209.0 153.0 L 209.0 155.0 L 209.0 156.0 L 209.0 158.0 L 209.0 159.0 L 209.0 161.0 L 209.0 163.0 L 209.0 165.0 L 209.0 167.0 L 209.0 168.0 L 209.0 170.0 L 209.0 171.0 L 209.0 173.0 L 209.0 174.0 L 209.0 175.0 L 209.0 177.0 L 209.0 178.0 L 210.0 180.0 L 210.0 181.0 L 210.0 183.0 L 210.0 185.0 L 210.0 186.0 L 211.0 188.0 L 211.0 189.0 L 211.0 190.0 L 211.0 191.0 L 211.0 193.0 L 211.0 193.0 L 212.0 195.0 L 212.0 195.0 L 212.0 196.0 L 212.0 197.0 L 212.0 198.0 L 213.0 199.0 L 213.0 200.0 L 213.0 201.0 L 214.0 202.0 L 214.0 202.0 L 214.0 203.0 L 215.0 204.0 L 215.0 205.0 L 215.0 206.0 L 215.0 207.0 L 216.0 208.0 L 216.0 209.0 L 216.0 210.0 L 216.0 211.0 L 217.0 212.0 L 217.0 213.0 L 217.0 214.0 L 218.0 215.0 L 218.0 216.0 L 218.0 217.0 L 218.0 218.0 L 219.0 219.0 L 219.0 220.0 L 219.0 221.0 L 220.0 222.0 L 220.0 223.0 L 220.0 224.0 L 221.0 225.0 L 221.0 227.0 L 221.0 228.0 L 222.0 229.0 L 222.0 230.0 L 222.0 230.0 L 223.0 231.0 L 223.0 232.0 L 224.0 233.0 L 224.0 234.0 L 225.0 235.0 L 225.0 236.0 L 225.0 236.0 L 226.0 237.0 L 226.0 238.0 L 227.0 238.0 L 227.0 239.0 L 228.0 240.0 L 228.0 240.0 L 229.0 241.0 L 229.0 241.0 L 229.0 242.0 L 230.0 242.0 L 230.0 243.0 L 230.0 243.0 L 231.0 244.0 L 231.0 244.0 L 231.0 244.0 L 231.0 245.0 L 232.0 245.0 L 232.0 246.0 L 232.0 246.0 L 232.0 247.0 L 232.0 247.0 L 233.0 247.0 L 233.0 248.0 L 233.0 248.0 L 233.0 248.0 L 233.0 248.0 L 234.0 248.0 L 234.0 248.0 L 234.0 249.0 L 234.0 249.0 L 234.0 249.0 L 234.0 249.0 L 234.0 249.0 L 234.0 249.0 L 234.0 249.0 L 234.0 249.0 L 234.0 249.0 L 235.0 249.0 L 235.0 249.0 L 235.0 249.0 L 235.0 248.0 L 235.0 248.0 L 235.0 248.0 L 235.0 247.0 L 235.0 247.0 L 235.0 246.0 L 235.0 246.0 L 235.0 245.0 L 235.0 244.0 L 235.0 244.0 L 235.0 243.0 L 235.0 242.0 L 235.0 241.0 L 235.0 241.0 L 235.0 239.0 L 235.0 238.0 L 235.0 237.0 L 235.0 235.0 L 235.0 233.0 L 235.0 229.0 L 236.0 225.0 L 236.0 220.0 L 236.0 213.0 L 237.0 207.0 L 237.0 201.0 L 237.0 196.0 L 238.0 193.0 " stroke="black" fill="none" stroke-width="5.0" stroke-linecap="round" stroke-linejoin="round" />
<path d="M 107.0 111.0 L 107.0 111.0 L 107.0 111.0 L 107.0 111.0 L 107.0 111.0 L 107.0 111.0 L 106.0 111.0 L 106.0 111.0 L 106.0 111.0 L 106.0 111.0 L 106.0 111.0 L 106.0 111.0 L 106.0 111.0 L 106.0 111.0 L 106.0 111.0 L 106.0 111.0 L 106.0 111.0 L 107.0 111.0 L 108.0 111.0 L 108.0 110.0 L 109.0 110.0 L 110.0 110.0 L 111.0 110.0 L 112.0 110.0 L 112.0 110.0 L 113.0 110.0 L 114.0 110.0 L 115.0 110.0 L 116.0 110.0 L 117.0 110.0 L 118.0 110.0 L 119.0 110.0 L 119.0 110.0 L 120.0 110.0 L 121.0 110.0 L 122.0 110.0 L 123.0 110.0 L 123.0 110.0 L 124.0 110.0 L 125.0 110.0 L 126.0 110.0 L 127.0 110.0 L 128.0 110.0 L 129.0 110.0 L 130.0 110.0 L 131.0 110.0 L 132.0 110.0 L 133.0 110.0 L 134.0 110.0 L 135.0 110.0 L 137.0 111.0 L 138.0 111.0 L 139.0 111.0 L 140.0 111.0 L 141.0 111.0 L 142.0 111.0 L 143.0 111.0 L 144.0 111.0 L 145.0 111.0 L 146.0 111.0 L 147.0 111.0 L 148.0 111.0 L 149.0 111.0 L 150.0 111.0 L 150.0 111.0 L 151.0 111.0 L 152.0 111.0 L 152.0 111.0 L 153.0 111.0 L 154.0 111.0 L 155.0 111.0 L 155.0 111.0 L 156.0 111.0 L 157.0 111.0 L 158.0 111.0 L 159.0 111.0 L 160.0 110.0 L 161.0 110.0 L 161.0 110.0 L 162.0 110.0 L 163.0 110.0 L 164.0 110.0 L 165.0 110.0 L 166.0 110.0 L 167.0 110.0 L 168.0 110.0 L 169.0 110.0 L 170.0 110.0 L 171.0 110.0 L 173.0 110.0 L 174.0 110.0 L 176.0 110.0 L 178.0 110.0 L 180.0 110.0 L 181.0 110.0 L 183.0 109.0 L 185.0 109.0 L 186.0 109.0 L 188.0 108.0 L 189.0 108.0 L 190.0 107.0 L 191.0 107.0 " stroke="black" fill="none" stroke-width="5.0" stroke-linecap="round" stroke-linejoin="round" />
<path d="M 109.0 144.0 L 109.0 144.0 L 109.0 144.0 L 109.0 144.0 L 109.0 144.0 L 109.0 143.0 L 109.0 143.0 L 109.0 143.0 L 109.0 143.0 L 109.0 143.0 L 109.0 143.0 L 109.0 144.0 L 109.0 146.0 L 109.0 149.0 L 109.0 153.0 L 109.0 158.0 L 109.0 163.0 L 109.0 169.0 L 110.0 174.0 L 110.0 180.0 L 111.0 184.0 L 111.0 187.0 L 112.0 188.0 L 112.0 189.0 L 112.0 189.0 " stroke="black" fill="none" stroke-width="5.0" stroke-linecap="round" stroke-linejoin="round" />
<path d="M 110.0 144.0 L 110.0 144.0 L 110.0 144.0 L 110.0 144.0 L 109.0 144.0 L 109.0 144.0 L 108.0 144.0 L 108.0 144.0 L 108.0 144.0 L 108.0 144.0 L 108.0 143.0 L 108.0 143.0 L 108.0 143.0 L 108.0 143.0 L 108.0 143.0 L 108.0 143.0 L 109.0 142.0 L 110.0 142.0 L 111.0 142.0 L 112.0 142.0 L 113.0 141.0 L 114.0 141.0 L 115.0 141.0 L 117.0 141.0 L 118.0 141.0 L 119.0 141.0 L 121.0 141.0 L 122.0 141.0 L 123.0 141.0 L 124.0 141.0 L 125.0 141.0 L 126.0 141.0 L 127.0 141.0 L 128.0 141.0 L 128.0 141.0 L 129.0 141.0 L 130.0 141.0 L 130.0 141.0 L 131.0 141.0 L 132.0 141.0 L 132.0 141.0 L 133.0 141.0 L 133.0 142.0 L 134.0 142.0 L 135.0 142.0 L 135.0 142.0 L 135.0 142.0 L 136.0 142.0 L 136.0 142.0 L 136.0 142.0 L 137.0 142.0 L 137.0 142.0 L 138.0 142.0 L 138.0 142.0 L 139.0 142.0 L 139.0 142.0 L 140.0 142.0 L 140.0 142.0 L 141.0 142.0 L 142.0 142.0 L 142.0 142.0 L 143.0 142.0 L 144.0 142.0 L 144.0 142.0 L 145.0 142.0 L 146.0 141.0 L 146.0 141.0 L 147.0 141.0 L 148.0 141.0 L 148.0 141.0 L 149.0 141.0 L 149.0 141.0 L 150.0 141.0 L 151.0 140.0 L 151.0 140.0 L 152.0 140.0 L 152.0 140.0 L 153.0 140.0 L 153.0 140.0 L 154.0 140.0 L 154.0 140.0 L 155.0 140.0 L 155.0 140.0 L 156.0 140.0 L 156.0 140.0 L 157.0 140.0 L 157.0 140.0 L 158.0 140.0 L 159.0 140.0 L 159.0 140.0 L 160.0 140.0 L 161.0 140.0 L 161.0 140.0 L 162.0 140.0 L 163.0 140.0 L 163.0 140.0 L 164.0 140.0 L 165.0 140.0 L 165.0 140.0 L 166.0 140.0 L 166.0 140.0 L 167.0 140.0 L 168.0 140.0 L 168.0 140.0 L 169.0 140.0 L 170.0 140.0 L 170.0 140.0 L 171.0 140.0 L 172.0 140.0 L 173.0 140.0 L 173.0 140.0 L 174.0 140.0 L 175.0 140.0 L 175.0 140.0 L 176.0 140.0 L 177.0 140.0 L 178.0 140.0 L 178.0 140.0 L 179.0 140.0 L 180.0 140.0 L 181.0 140.0 L 181.0 140.0 L 182.0 140.0 L 183.0 140.0 L 184.0 140.0 L 184.0 140.0 L 185.0 140.0 L 185.0 140.0 L 186.0 140.0 L 187.0 140.0 L 187.0 140.0 L 188.0 140.0 L 189.0 140.0 L 189.0 140.0 L 190.0 140.0 L 190.0 140.0 L 191.0 140.0 L 191.0 140.0 L 191.0 140.0 L 191.0 140.0 L 192.0 140.0 L 192.0 140.0 L 192.0 141.0 L 192.0 141.0 L 192.0 142.0 L 192.0 143.0 L 191.0 144.0 L 191.0 146.0 L 191.0 148.0 L 190.0 150.0 L 190.0 152.0 L 189.0 155.0 L 189.0 157.0 L 189.0 159.0 L 188.0 161.0 L 188.0 164.0 L 188.0 166.0 L 188.0 168.0 L 187.0 170.0 L 187.0 172.0 L 187.0 174.0 L 187.0 176.0 L 187.0 178.0 L 187.0 179.0 L 187.0 181.0 L 187.0 182.0 L 187.0 183.0 L 186.0 185.0 L 186.0 186.0 L 186.0 187.0 L 185.0 188.0 L 185.0 189.0 L 185.0 191.0 L 184.0 192.0 L 184.0 193.0 L 184.0 193.0 L 184.0 194.0 L 183.0 194.0 L 183.0 194.0 L 183.0 194.0 L 183.0 194.0 L 183.0 194.0 " stroke="black" fill="none" stroke-width="5.0" stroke-linecap="round" stroke-linejoin="round" />
<path d="M 110.0 192.0 L 110.0 192.0 L 110.0 192.0 L 110.0 192.0 L 110.0 192.0 L 110.0 192.0 L 110.0 192.0 L 110.0 191.0 L 110.0 191.0 L 110.0 191.0 L 111.0 191.0 L 112.0 190.0 L 113.0 190.0 L 114.0 189.0 L 116.0 189.0 L 117.0 189.0 L 119.0 188.0 L 121.0 188.0 L 123.0 188.0 L 125.0 188.0 L 127.0 188.0 L 130.0 188.0 L 132.0 188.0 L 134.0 188.0 L 136.0 188.0 L 138.0 188.0 L 140.0 188.0 L 141.0 189.0 L 142.0 189.0 L 144.0 189.0 L 144.0 189.0 L 146.0 189.0 L 146.0 190.0 L 147.0 190.0 L 148.0 190.0 L 149.0 190.0 L 150.0 190.0 L 151.0 190.0 L 152.0 190.0 L 152.0 190.0 L 153.0 190.0 L 154.0 190.0 L 155.0 190.0 L 157.0 190.0 L 158.0 190.0 L 160.0 190.0 L 161.0 190.0 L 163.0 190.0 L 165.0 190.0 L 166.0 191.0 L 168.0 191.0 L 170.0 191.0 L 172.0 192.0 L 173.0 192.0 L 175.0 192.0 L 177.0 192.0 L 179.0 192.0 L 181.0 192.0 L 182.0 192.0 L 183.0 192.0 L 184.0 193.0 L 185.0 193.0 L 187.0 194.0 " stroke="black" fill="none" stroke-width="5.0" stroke-linecap="round" stroke-linejoin="round" />
<path d="M 145.0 115.0 L 145.0 115.0 L 145.0 115.0 L 145.0 115.0 L 145.0 115.0 L 145.0 115.0 L 145.0 115.0 L 145.0 115.0 L 145.0 115.0 L 145.0 115.0 L 145.0 115.0 L 145.0 115.0 L 145.0 116.0 L 146.0 116.0 L 146.0 117.0 L 146.0 118.0 L 146.0 120.0 L 146.0 122.0 L 146.0 124.0 L 146.0 126.0 L 146.0 129.0 L 146.0 132.0 L 146.0 135.0 L 146.0 138.0 L 146.0 141.0 L 147.0 145.0 L 147.0 148.0 L 147.0 151.0 L 147.0 154.0 L 147.0 156.0 L 147.0 159.0 L 147.0 161.0 L 147.0 163.0 L 147.0 165.0 L 147.0 167.0 L 147.0 168.0 L 147.0 170.0 L 147.0 172.0 L 147.0 174.0 L 147.0 175.0 L 147.0 177.0 L 147.0 179.0 L 147.0 181.0 L 147.0 183.0 L 147.0 186.0 L 147.0 188.0 L 147.0 190.0 L 147.0 192.0 L 147.0 194.0 L 147.0 196.0 L 147.0 198.0 L 147.0 200.0 L 147.0 201.0 L 147.0 203.0 L 147.0 205.0 L 147.0 206.0 L 147.0 208.0 L 147.0 210.0 L 147.0 212.0 L 147.0 214.0 L 147.0 215.0 L 147.0 217.0 L 147.0 219.0 L 147.0 220.0 L 147.0 222.0 L 147.0 223.0 L 147.0 225.0 L 147.0 226.0 L 147.0 227.0 L 147.0 228.0 L 147.0 229.0 L 147.0 230.0 L 147.0 230.0 L 147.0 231.0 L 146.0 231.0 L 146.0 231.0 L 146.0 231.0 L 146.0 231.0 L 146.0 231.0 L 146.0 231.0 L 146.0 230.0 L 146.0 230.0 " stroke="black" fill="none" stroke-width="5.0" stroke-linecap="round" stroke-linejoin="round" />
<path d="M 102.0 239.0 L 102.0 239.0 L 102.0 239.0 L 102.0 239.0 L 102.0 239.0 L 102.0 239.0 L 102.0 239.0 L 102.0 238.0 L 102.0 238.0 L 102.0 238.0 L 102.0 238.0 L 102.0 237.0 L 102.0 237.0 L 103.0 237.0 L 103.0 236.0 L 104.0 236.0 L 104.0 236.0 L 105.0 235.0 L 106.0 235.0 L 107.0 235.0 L 108.0 234.0 L 109.0 234.0 L 110.0 234.0 L 110.0 234.0 L 111.0 234.0 L 112.0 234.0 L 113.0 234.0 L 114.0 234.0 L 116.0 233.0 L 117.0 233.0 L 118.0 233.0 L 119.0 233.0 L 120.0 233.0 L 121.0 233.0 L 121.0 233.0 L 122.0 233.0 L 123.0 233.0 L 124.0 233.0 L 124.0 233.0 L 125.0 233.0 L 126.0 233.0 L 127.0 232.0 L 128.0 232.0 L 129.0 232.0 L 130.0 232.0 L 131.0 232.0 L 132.0 232.0 L 133.0 232.0 L 134.0 232.0 L 135.0 232.0 L 136.0 232.0 L 137.0 232.0 L 138.0 232.0 L 139.0 232.0 L 141.0 232.0 L 142.0 232.0 L 143.0 232.0 L 144.0 232.0 L 145.0 232.0 L 146.0 232.0 L 148.0 232.0 L 149.0 232.0 L 150.0 232.0 L 151.0 232.0 L 152.0 231.0 L 153.0 231.0 L 153.0 231.0 L 154.0 231.0 L 155.0 231.0 L 156.0 231.0 L 157.0 231.0 L 158.0 231.0 L 160.0 231.0 L 161.0 231.0 L 162.0 230.0 L 164.0 230.0 L 165.0 230.0 L 166.0 230.0 L 168.0 230.0 L 170.0 229.0 L 172.0 229.0 L 173.0 229.0 L 175.0 229.0 L 177.0 228.0 L 178.0 228.0 L 180.0 227.0 L 181.0 227.0 L 182.0 227.0 L 183.0 226.0 L 184.0 226.0 L 185.0 225.0 L 186.0 225.0 L 187.0 224.0 L 188.0 224.0 L 188.0 224.0 L 188.0 224.0 L 189.0 224.0 " stroke="black" fill="none" stroke-width="5.0" stroke-linecap="round" stroke-linejoin="round" />
<path d="M 181.0 210.0 L 181.0 210.0 L 181.0 209.0 L 181.0 208.0 L 181.0 208.0 L 181.0 207.0 L 181.0 207.0 L 181.0 206.0 L 181.0 206.0 L 181.0 206.0 L 181.0 206.0 L 181.0 206.0 L 181.0 207.0 L 181.0 208.0 L 181.0 209.0 L 182.0 210.0 L 183.0 212.0 L 184.0 214.0 L 185.0 217.0 L 186.0 220.0 L 187.0 224.0 L 189.0 228.0 L 190.0 232.0 L 192.0 236.0 L 193.0 239.0 L 194.0 242.0 L 195.0 244.0 L 196.0 246.0 L 197.0 247.0 L 198.0 248.0 L 198.0 249.0 L 199.0 250.0 L 199.0 251.0 L 199.0 251.0 L 199.0 252.0 L 200.0 253.0 L 200.0 253.0 L 200.0 254.0 L 200.0 254.0 L 200.0 254.0 " stroke="black" fill="none" stroke-width="5.0" stroke-linecap="round" stroke-linejoin="round" />
</svg>