<svg xmlns="http://www.w3.org/2000/svg" width="300" height="300" viewBox="0 0 300 300">
<path d="M 71.0 85.0 L 70.0 85.0 L 70.0 85.0 L 69.0 85.0 L 69.0 85.0 L 69.0 85.0 L 69.0 85.0 L 69.0 85.0 L 69.0 85.0 L 69.0 85.0 L 69.0 85.0 L 69.0 85.0 L 70.0 85.0 L 71.0 85.0 L 71.0 85.0 L 72.0 85.0 L 73.0 85.0 L 73.0 85.0 L 74.0 85.0 L 74.0 85.0 L 75.0 85.0 L 76.0 85.0 L 77.0 85.0 L 78.0 85.0 L 79.0 85.0 L 80.0 85.0 L 81.0 85.0 L 82.0 85.0 L 83.0 85.0 L 84.0 85.0 L 85.0 85.0 L 86.0 85.0 L 88.0 85.0 L 89.0 85.0 L 90.0 85.0 L 91.0 85.0 L 92.0 85.0 L 93.0 85.0 L 94.0 85.0 L 95.0 85.0 L 96.0 85.0 L 98.0 84.0 L 99.0 84.0 L 100.0 84.0 L 100.0 84.0 L 101.0 84.0 L 102.0 84.0 L 103.0 84.0 L 104.0 84.0 L 105.0 84.0 L 106.0 84.0 L 106.0 84.0 L 107.0 84.0 L 108.0 84.0 L 109.0 84.0 L 110.0 84.0 L 110.0 84.0 L 111.0 84.0 L 112.0 84.0 L 112.0 84.0 L 113.0 84.0 L 114.0 84.0 L 114.0 84.0 L 115.0 84.0 L 116.0 84.0 L 117.0 84.0 L 117.0 84.0 L 118.0 84.0 L 119.0 83.0 L 120.0 83.0 L 121.0 83.0 L 122.0 83.0 L 123.0 83.0 L 123.0 83.0 L 124.0 83.0 L 125.0 83.0 L 126.0 83.0 L 127.0 83.0 L 128.0 83.0 L 129.0 83.0 L 131.0 83.0 L 132.0 83.0 L 133.0 83.0 L 134.0 83.0 L 135.0 83.0 L 136.0 83.0 L 137.0 83.0 L 138.0 83.0 L 139.0 83.0 L 140.0 83.0 L 141.0 83.0 L 141.0 83.0 L 142.0 82.0 L 143.0 82.0 L 144.0 82.0 L 145.0 82.0 L 146.0 82.0 L 146.0 82.0 L 147.0 82.0 L 148.0 82.0 L 149.0 82.0 L 149.0 82.0 L 150.0 82.0 L 150.0 82.0 L 151.0 81.0 L 152.0 81.0 L 152.0 81.0 L 152.0 81.0 L 153.0 81.0 L 153.0 81.0 L 154.0 81.0 L 154.0 81.0 L 155.0 81.0 L 155.0 81.0 L 156.0 81.0 L 156.0 81.0 L 157.0 81.0 L 157.0 81.0 L 158.0 81.0 L 158.0 81.0 L 159.0 81.0 L 159.0 81.0 L 160.0 81.0 L 160.0 81.0 L 161.0 81.0 L 162.0 81.0 L 162.0 81.0 L 163.0 81.0 L 164.0 81.0 L 164.0 81.0 L 165.0 81.0 L 166.0 81.0 L 166.0 81.0 L 167.0 81.0 L 168.0 81.0 L 168.0 81.0 L 169.0 81.0 L 170.0 81.0 L 171.0 81.0 L 171.0 81.0 L 172.0 81.0 L 173.0 81.0 L 174.0 81.0 L 175.0 81.0 L 176.0 81.0 L 177.0 81.0 L 178.0 81.0 L 178.0 81.0 L 179.0 81.0 L 180.0 81.0 L 181.0 81.0 L 182.0 81.0 L 183.0 81.0 L 184.0 81.0 L 185.0 81.0 L 186.0 81.0 L 187.0 81.0 L 188.0 81.0 L 189.0 81.0 L 189.0 81.0 L 190.0 81.0 L 191.0 81.0 L 192.0 81.0 L 192.0 81.0 L 193.0 81.0 L 194.0 81.0 L 194.0 81.0 L 195.0 81.0 L 196.0 81.0 L 196.0 81.0 L 197.0 81.0 L 198.0 81.0 L 198.0 81.0 L 199.0 81.0 L 200.0 81.0 L 201.0 81.0 L 202.0 81.0 L 202.0 82.0 L 203.0 82.0 L 204.0 82.0 L 205.0 82.0 L 206.0 82.0 L 207.0 82.0 L 208.0 82.0 L 209.0 82.0 L 210.0 82.0 L 212.0 82.0 L 213.0 82.0 L 215.0 82.0 L 217.0 82.0 L 219.0 81.0 L 222.0 80.0 L 224.0 80.0 L 226.0 79.0 L 228.0 78.0 L 229.0 78.0 L 229.0 78.0 " stroke="black" fill="none" stroke-width="5.0" stroke-linecap="round" stroke-linejoin="round" />
<path d="M 154.0 84.0 L 154.0 84.0 L 154.0 84.0 L 154.0 84.0 L 154.0 84.0 L 154.0 84.0 L 154.0 83.0 L 154.0 83.0 L 154.0 83.0 L 154.0 83.0 L 154.0 83.0 L 154.0 83.0 L 154.0 83.0 L 154.0 83.0 L 154.0 83.0 L 154.0 83.0 L 154.0 83.0 L 154.0 83.0 L 154.0 83.0 L 154.0 84.0 L 154.0 85.0 L 153.0 86.0 L 153.0 88.0 L 153.0 90.0 L 153.0 92.0 L 153.0 95.0 L 153.0 98.0 L 153.0 101.0 L 152.0 105.0 L 152.0 108.0 L 152.0 111.0 L 152.0 114.0 L 152.0 116.0 L 152.0 118.0 L 152.0 121.0 L 152.0 122.0 L 152.0 124.0 L 152.0 126.0 L 152.0 128.0 L 152.0 129.0 L 152.0 131.0 L 152.0 132.0 L 152.0 133.0 L 152.0 135.0 L 151.0 136.0 L 151.0 137.0 L 151.0 138.0 L 151.0 140.0 L 151.0 141.0 L 151.0 142.0 L 151.0 143.0 L 151.0 144.0 L 151.0 144.0 L 151.0 145.0 L 151.0 145.0 L 151.0 145.0 L 151.0 145.0 L 151.0 145.0 " stroke="black" fill="none" stroke-width="5.0" stroke-linecap="round" stroke-linejoin="round" />
<path d="M 155.0 113.0 L 155.0 113.0 L 155.0 113.0 L 154.0 113.0 L 154.0 113.0 L 154.0 113.0 L 153.0 113.0 L 153.0 113.0 L 153.0 113.0 L 152.0 113.0 L 152.0 113.0 L 152.0 113.0 L 152.0 113.0 L 152.0 113.0 L 152.0 113.0 L 152.0 113.0 L 152.0 113.0 L 152.0 113.0 L 152.0 113.0 L 152.0 113.0 L 153.0 113.0 L 153.0 113.0 L 154.0 113.0 L 155.0 113.0 L 156.0 113.0 L 157.0 113.0 L 158.0 113.0 L 160.0 113.0 L 161.0 113.0 L 163.0 113.0 L 164.0 113.0 L 166.0 113.0 L 167.0 112.0 L 169.0 112.0 L 171.0 112.0 L 172.0 112.0 L 174.0 112.0 L 175.0 112.0 L 177.0 112.0 L 178.0 112.0 L 180.0 112.0 L 181.0 112.0 L 182.0 112.0 L 183.0 112.0 L 184.0 112.0 L 185.0 112.0 L 186.0 112.0 L 187.0 112.0 L 187.0 112.0 L 188.0 112.0 L 189.0 112.0 L 190.0 112.0 L 190.0 112.0 L 191.0 112.0 L 192.0 112.0 L 192.0 112.0 L 193.0 112.0 L 194.0 112.0 L 194.0 112.0 L 195.0 112.0 L 196.0 112.0 L 196.0 112.0 L 197.0 112.0 L 198.0 112.0 L 198.0 112.0 L 199.0 112.0 L 199.0 112.0 L 200.0 112.0 L 201.0 112.0 L 202.0 112.0 L 203.0 112.0 L 204.0 112.0 L 205.0 112.0 L 206.0 112.0 L 208.0 112.0 L 209.0 113.0 L 210.0 113.0 L 212.0 113.0 L 213.0 113.0 L 214.0 113.0 L 215.0 113.0 L 216.0 114.0 L 216.0 114.0 L 217.0 114.0 L 217.0 114.0 " stroke="black" fill="none" stroke-width="5.0" stroke-linecap="round" stroke-linejoin="round" />
<path d="M 99.0 107.0 L 99.0 107.0 L 99.0 107.0 L 99.0 107.0 L 99.0 107.0 L 99.0 107.0 L 99.0 108.0 L 99.0 108.0 L 99.0 109.0 L 99.0 110.0 L 99.0 111.0 L 99.0 113.0 L 99.0 116.0 L 98.0 120.0 L 98.0 123.0 L 98.0 127.0 L 98.0 130.0 L 97.0 133.0 L 97.0 136.0 L 97.0 138.0 L 97.0 139.0 " stroke="black" fill="none" stroke-width="5.0" stroke-linecap="round" stroke-linejoin="round" />
<path d="M 63.0 145.0 L 63.0 145.0 L 63.0 145.0 L 63.0 145.0 L 63.0 145.0 L 63.0 145.0 L 63.0 145.0 L 63.0 145.0 L 63.0 145.0 L 63.0 145.0 L 63.0 145.0 L 63.0 145.0 L 63.0 145.0 L 63.0 145.0 L 63.0 145.0 L 63.0 144.0 L 63.0 144.0 L 64.0 144.0 L 64.0 144.0 L 65.0 144.0 L 66.0 144.0 L 66.0 143.0 L 67.0 143.0 L 68.0 143.0 L 69.0 143.0 L 69.0 143.0 L 70.0 143.0 L 71.0 143.0 L 72.0 143.0 L 72.0 143.0 L 73.0 143.0 L 74.0 143.0 L 75.0 143.0 L 76.0 143.0 L 76.0 143.0 L 77.0 143.0 L 78.0 143.0 L 79.0 143.0 L 80.0 143.0 L 81.0 143.0 L 82.0 143.0 L 83.0 143.0 L 84.0 143.0 L 85.0 143.0 L 86.0 143.0 L 87.0 144.0 L 87.0 144.0 L 88.0 144.0 L 89.0 144.0 L 90.0 144.0 L 91.0 144.0 L 92.0 144.0 L 93.0 144.0 L 93.0 144.0 L 94.0 144.0 L 95.0 144.0 L 96.0 144.0 L 97.0 144.0 L 98.0 144.0 L 98.0 144.0 L 99.0 144.0 L 100.0 144.0 L 101.0 144.0 L 102.0 144.0 L 103.0 144.0 L 104.0 144.0 L 105.0 144.0 L 106.0 144.0 L 107.0 144.0 L 108.0 144.0 L 108.0 144.0 L 109.0 144.0 L 110.0 144.0 L 111.0 144.0 L 112.0 144.0 L 112.0 144.0 L 113.0 144.0 L 114.0 144.0 L 115.0 144.0 L 116.0 144.0 L 117.0 144.0 L 118.0 144.0 L 120.0 144.0 L 121.0 144.0 L 122.0 144.0 L 124.0 144.0 L 125.0 144.0 L 126.0 144.0 L 128.0 144.0 L 129.0 144.0 L 131.0 144.0 L 132.0 144.0 L 133.0 144.0 L 135.0 144.0 L 136.0 144.0 L 138.0 144.0 L 139.0 144.0 L 140.0 144.0 L 142.0 144.0 L 143.0 144.0 L 144.0 144.0 L 145.0 144.0 L 147.0 144.0 L 148.0 144.0 L 149.0 144.0 L 150.0 144.0 L 151.0 144.0 L 152.0 144.0 L 153.0 144.0 L 154.0 144.0 L 154.0 144.0 L 155.0 144.0 L 156.0 145.0 L 157.0 145.0 L 158.0 145.0 L 159.0 145.0 L 160.0 146.0 L 161.0 146.0 L 162.0 146.0 L 164.0 146.0 L 166.0 146.0 L 167.0 147.0 L 169.0 147.0 L 171.0 147.0 L 173.0 147.0 L 175.0 147.0 L 177.0 147.0 L 179.0 148.0 L 181.0 148.0 L 183.0 148.0 L 184.0 148.0 L 186.0 148.0 L 187.0 148.0 L 188.0 148.0 L 189.0 148.0 L 190.0 148.0 L 191.0 148.0 L 192.0 148.0 L 192.0 148.0 L 193.0 148.0 L 194.0 148.0 L 194.0 148.0 L 195.0 148.0 L 195.0 148.0 L 196.0 148.0 L 197.0 148.0 L 197.0 148.0 L 198.0 148.0 L 199.0 148.0 L 199.0 148.0 L 200.0 148.0 L 201.0 148.0 L 202.0 148.0 L 203.0 148.0 L 204.0 148.0 L 205.0 148.0 L 206.0 148.0 L 207.0 148.0 L 208.0 148.0 L 209.0 148.0 L 210.0 148.0 L 211.0 148.0 L 212.0 148.0 L 214.0 148.0 L 215.0 148.0 L 216.0 148.0 L 218.0 148.0 L 219.0 148.0 L 221.0 148.0 L 222.0 148.0 L 223.0 148.0 L 224.0 148.0 L 225.0 147.0 L 226.0 147.0 L 226.0 147.0 L 227.0 147.0 L 227.0 147.0 " stroke="black" fill="none" stroke-width="5.0" stroke-linecap="round" stroke-linejoin="round" />
<path d="M 103.0 169.0 L 103.0 169.0 L 103.0 169.0 L 103.0 169.0 L 103.0 169.0 L 103.0 169.0 L 103.0 169.0 L 103.0 169.0 L 103.0 169.0 L 103.0 169.0 L 103.0 169.0 L 103.0 169.0 L 103.0 169.0 L 103.0 169.0 L 103.0 169.0 L 104.0 169.0 L 104.0 169.0 L 105.0 169.0 L 105.0 169.0 L 106.0 169.0 L 107.0 169.0 L 108.0 169.0 L 108.0 169.0 L 109.0 169.0 L 110.0 169.0 L 112.0 169.0 L 113.0 169.0 L 114.0 169.0 L 115.0 169.0 L 116.0 169.0 L 117.0 169.0 L 118.0 170.0 L 120.0 170.0 L 121.0 170.0 L 123.0 170.0 L 124.0 170.0 L 126.0 170.0 L 127.0 170.0 L 129.0 170.0 L 130.0 170.0 L 132.0 170.0 L 133.0 171.0 L 135.0 171.0 L 136.0 171.0 L 138.0 171.0 L 139.0 171.0 L 140.0 171.0 L 141.0 171.0 L 143.0 171.0 L 144.0 171.0 L 145.0 171.0 L 146.0 171.0 L 147.0 171.0 L 148.0 171.0 L 149.0 171.0 L 150.0 171.0 L 150.0 171.0 L 151.0 171.0 L 152.0 171.0 L 153.0 171.0 L 153.0 171.0 L 154.0 171.0 L 155.0 171.0 L 155.0 171.0 L 156.0 171.0 L 157.0 171.0 L 157.0 171.0 L 158.0 171.0 L 159.0 171.0 L 160.0 171.0 L 160.0 171.0 L 161.0 171.0 L 162.0 171.0 L 163.0 171.0 L 164.0 171.0 L 165.0 171.0 L 166.0 171.0 L 167.0 171.0 L 168.0 171.0 L 169.0 171.0 L 169.0 171.0 L 170.0 171.0 L 172.0 171.0 L 173.0 171.0 L 173.0 171.0 L 175.0 171.0 L 175.0 171.0 L 176.0 171.0 L 177.0 171.0 L 178.0 171.0 L 179.0 171.0 L 180.0 171.0 L 181.0 171.0 L 182.0 171.0 L 183.0 171.0 L 184.0 171.0 L 184.0 171.0 L 185.0 172.0 L 186.0 172.0 L 187.0 172.0 L 187.0 172.0 L 188.0 172.0 L 189.0 172.0 L 190.0 172.0 L 191.0 173.0 L 191.0 173.0 L 192.0 173.0 L 193.0 173.0 L 193.0 173.0 L 194.0 173.0 L 195.0 173.0 L 195.0 173.0 L 196.0 173.0 L 196.0 173.0 L 197.0 173.0 L 197.0 173.0 L 198.0 173.0 L 198.0 173.0 L 198.0 172.0 L 199.0 172.0 L 199.0 172.0 L 200.0 172.0 L 200.0 172.0 L 201.0 172.0 L 201.0 172.0 L 202.0 172.0 L 202.0 172.0 L 203.0 172.0 L 204.0 172.0 L 204.0 172.0 L 205.0 172.0 L 206.0 172.0 L 207.0 172.0 L 207.0 172.0 L 208.0 172.0 L 209.0 172.0 L 210.0 172.0 L 211.0 172.0 L 212.0 172.0 L 212.0 172.0 L 213.0 172.0 L 214.0 172.0 L 215.0 172.0 L 216.0 172.0 L 216.0 172.0 " stroke="black" fill="none" stroke-width="5.0" stroke-linecap="round" stroke-linejoin="round" />
<path d="M 105.0 150.0 L 105.0 150.0 L 105.0 150.0 L 105.0 150.0 L 105.0 150.0 L 105.0 150.0 L 105.0 150.0 L 105.0 151.0 L 105.0 152.0 L 105.0 152.0 L 105.0 154.0 L 105.0 155.0 L 105.0 157.0 L 104.0 159.0 L 104.0 162.0 L 103.0 164.0 L 102.0 167.0 L 101.0 170.0 L 100.0 173.0 L 99.0 176.0 L 98.0 178.0 L 97.0 181.0 L 96.0 184.0 L 96.0 187.0 L 95.0 189.0 L 94.0 191.0 L 94.0 192.0 L 94.0 193.0 L 94.0 194.0 L 94.0 194.0 L 94.0 195.0 L 93.0 195.0 L 93.0 195.0 L 93.0 196.0 L 93.0 196.0 L 93.0 196.0 L 93.0 197.0 L 93.0 197.0 L 93.0 197.0 L 93.0 197.0 L 93.0 197.0 L 93.0 197.0 L 93.0 197.0 L 93.0 197.0 L 94.0 197.0 L 94.0 197.0 L 94.0 197.0 L 94.0 197.0 L 95.0 197.0 L 95.0 197.0 L 96.0 197.0 L 96.0 197.0 L 97.0 197.0 L 98.0 197.0 L 98.0 197.0 L 99.0 197.0 L 100.0 197.0 L 101.0 197.0 L 102.0 197.0 L 103.0 197.0 L 104.0 197.0 L 105.0 197.0 L 106.0 197.0 L 107.0 197.0 L 108.0 197.0 L 110.0 197.0 L 111.0 197.0 L 112.0 197.0 L 113.0 197.0 L 114.0 197.0 L 115.0 197.0 L 117.0 197.0 L 118.0 197.0 L 120.0 197.0 L 122.0 197.0 L 124.0 197.0 L 126.0 197.0 L 128.0 197.0 L 130.0 197.0 L 133.0 197.0 L 135.0 196.0 L 137.0 196.0 L 139.0 196.0 L 140.0 196.0 L 142.0 196.0 L 144.0 196.0 L 145.0 196.0 L 146.0 196.0 L 148.0 196.0 L 149.0 196.0 L 150.0 196.0 L 151.0 196.0 L 152.0 196.0 L 152.0 196.0 L 153.0 196.0 L 154.0 195.0 L 155.0 195.0 L 155.0 195.0 L 156.0 195.0 L 157.0 195.0 L 158.0 195.0 L 158.0 195.0 L 159.0 195.0 L 160.0 195.0 L 162.0 195.0 L 162.0 195.0 L 164.0 195.0 L 164.0 195.0 L 165.0 195.0 L 167.0 195.0 L 168.0 196.0 L 169.0 196.0 L 170.0 196.0 L 171.0 196.0 L 173.0 196.0 L 174.0 196.0 L 175.0 196.0 L 177.0 197.0 L 178.0 197.0 L 180.0 197.0 L 181.0 197.0 L 182.0 197.0 L 183.0 197.0 L 184.0 197.0 L 185.0 197.0 L 186.0 197.0 L 187.0 197.0 L 188.0 197.0 L 189.0 197.0 L 190.0 197.0 L 191.0 197.0 L 191.0 197.0 L 192.0 197.0 L 193.0 197.0 L 193.0 197.0 L 194.0 197.0 L 194.0 197.0 L 195.0 197.0 L 195.0 197.0 L 196.0 197.0 L 197.0 197.0 L 197.0 197.0 L 198.0 197.0 L 199.0 197.0 L 199.0 197.0 L 200.0 197.0 L 201.0 197.0 L 202.0 197.0 L 202.0 197.0 L 203.0 197.0 L 204.0 197.0 L 205.0 196.0 L 206.0 196.0 L 207.0 196.0 L 207.0 196.0 L 208.0 196.0 L 209.0 196.0 L 210.0 196.0 L 211.0 196.0 L 212.0 196.0 L 213.0 196.0 L 213.0 196.0 L 214.0 196.0 L 215.0 196.0 L 216.0 196.0 L 216.0 196.0 L 217.0 196.0 L 218.0 196.0 L 218.0 196.0 L 219.0 196.0 L 219.0 196.0 L 220.0 196.0 L 220.0 196.0 L 221.0 196.0 L 221.0 196.0 L 221.0 196.0 L 222.0 196.0 L 222.0 196.0 L 222.0 196.0 L 222.0 196.0 L 223.0 196.0 L 223.0 197.0 L 223.0 197.0 L 223.0 197.0 L 224.0 197.0 L 224.0 198.0 L 224.0 198.0 L 224.0 199.0 L 224.0 200.0 L 224.0 200.0 L 225.0 201.0 L 225.0 202.0 L 225.0 203.0 L 225.0 204.0 L 225.0 206.0 L 225.0 207.0 L 225.0 209.0 L 225.0 210.0 L 225.0 212.0 L 225.0 213.0 L 225.0 215.0 L 225.0 216.0 L 225.0 218.0 L 225.0 219.0 L 225.0 221.0 L 225.0 222.0 L 225.0 224.0 L 225.0 225.0 L 225.0 227.0 L 225.0 228.0 L 225.0 230.0 L 225.0 231.0 L 224.0 232.0 L 224.0 234.0 L 224.0 235.0 L 224.0 237.0 L 223.0 238.0 L 223.0 239.0 L 222.0 241.0 L 222.0 242.0 L 221.0 243.0 L 221.0 245.0 L 220.0 246.0 L 220.0 247.0 L 219.0 248.0 L 219.0 249.0 L 218.0 249.0 L 218.0 250.0 L 217.0 251.0 L 216.0 251.0 L 216.0 252.0 L 215.0 252.0 L 215.0 253.0 L 214.0 253.0 L 214.0 254.0 L 213.0 254.0 L 212.0 254.0 L 212.0 254.0 L 211.0 254.0 L 210.0 254.0 L 210.0 254.0 L 209.0 254.0 L 209.0 254.0 L 208.0 254.0 L 208.0 254.0 L 207.0 254.0 L 206.0 254.0 L 205.0 254.0 L 204.0 254.0 L 203.0 254.0 L 201.0 254.0 L 200.0 254.0 L 198.0 253.0 L 196.0 253.0 L 194.0 252.0 L 193.0 252.0 L 192.0 251.0 " stroke="black" fill="none" stroke-width="5.0" stroke-linecap="round" stroke-linejoin="round" />
<path d="M 80.0 217.0 L 80.0 217.0 L 80.0 217.0 L 80.0 217.0 L 81.0 217.0 L 81.0 217.0 L 81.0 218.0 L 81.0 220.0 L 80.0 224.0 L 79.0 228.0 L 78.0 233.0 L 77.0 238.0 L 76.0 243.0 L 76.0 247.0 L 75.0 250.0 L 74.0 253.0 L 74.0 253.0 " stroke="black" fill="none" stroke-width="5.0" stroke-linecap="round" stroke-linejoin="round" />
<path d="M 111.0 217.0 L 111.0 217.0 L 111.0 217.0 L 111.0 217.0 L 111.0 217.0 L 111.0 217.0 L 111.0 217.0 L 111.0 217.0 L 111.0 218.0 L 111.0 220.0 L 111.0 223.0 L 111.0 227.0 L 111.0 232.0 L 111.0 237.0 L 111.0 242.0 L 111.0 247.0 L 111.0 250.0 L 113.0 252.0 " stroke="black" fill="none" stroke-width="5.0" stroke-linecap="round" stroke-linejoin="round" />
<path d="M 147.0 214.0 L 147.0 214.0 L 147.0 215.0 L 146.0 216.0 L 146.0 216.0 L 145.0 218.0 L 145.0 219.0 L 145.0 221.0 L 145.0 224.0 L 146.0 227.0 L 146.0 230.0 L 146.0 234.0 L 147.0 238.0 L 147.0 241.0 L 147.0 244.0 " stroke="black" fill="none" stroke-width="5.0" stroke-linecap="round" stroke-linejoin="round" />
<path d="M 172.0 208.0 L 172.0 208.0 L 172.0 208.0 L 172.0 208.0 L 171.0 208.0 L 171.0 208.0 L 171.0 208.0 L 171.0 208.0 L 171.0 209.0 L 173.0 211.0 L 175.0 213.0 L 177.0 217.0 L 180.0 221.0 L 182.0 225.0 L 185.0 229.0 L 187.0 233.0 L 189.0 236.0 L 190.0 238.0 " stroke="black" fill="none" stroke-width="5.0" stroke-linecap="round" stroke-linejoin="round" />
</svg>