<svg xmlns="http://www.w3.org/2000/svg" width="300" height="300" viewBox="0 0 300 300">
<path d="M 117.0 84.0 L 117.0 84.0 L 116.0 84.0 L 115.0 84.0 L 115.0 84.0 L 114.0 84.0 L 114.0 84.0 L 114.0 84.0 L 114.0 84.0 L 114.0 85.0 L 114.0 87.0 L 113.0 91.0 L 112.0 97.0 L 110.0 105.0 L 106.0 114.0 L 102.0 123.0 L 97.0 132.0 L 90.0 141.0 L 84.0 148.0 L 78.0 153.0 L 75.0 156.0 " stroke="black" fill="none" stroke-width="5.0" stroke-linecap="round" stroke-linejoin="round" />
<path d="M 147.0 84.0 L 146.0 84.0 L 145.0 84.0 L 144.0 83.0 L 143.0 83.0 L 143.0 83.0 L 143.0 83.0 L 142.0 83.0 L 142.0 83.0 L 143.0 83.0 L 144.0 83.0 L 145.0 83.0 L 147.0 83.0 L 150.0 83.0 L 153.0 83.0 L 156.0 82.0 L 159.0 82.0 L 163.0 82.0 L 168.0 82.0 L 173.0 82.0 L 177.0 82.0 L 181.0 82.0 L 185.0 82.0 L 187.0 82.0 L 188.0 82.0 L 189.0 82.0 L 189.0 83.0 L 189.0 83.0 L 189.0 84.0 L 189.0 85.0 L 189.0 86.0 L 189.0 87.0 L 189.0 89.0 L 189.0 91.0 L 189.0 93.0 L 189.0 96.0 L 189.0 99.0 L 190.0 104.0 L 190.0 108.0 L 191.0 113.0 L 192.0 118.0 L 193.0 123.0 L 195.0 128.0 L 197.0 133.0 L 200.0 138.0 L 203.0 142.0 L 207.0 146.0 L 212.0 150.0 L 217.0 152.0 L 223.0 154.0 L 227.0 156.0 L 231.0 157.0 L 234.0 158.0 L 236.0 159.0 L 237.0 160.0 L 238.0 161.0 " stroke="black" fill="none" stroke-width="5.0" stroke-linecap="round" stroke-linejoin="round" />
<path d="M 147.0 156.0 L 147.0 155.0 L 147.0 155.0 L 146.0 154.0 L 146.0 153.0 L 146.0 153.0 L 146.0 153.0 L 146.0 153.0 L 146.0 154.0 L 145.0 155.0 L 145.0 158.0 L 144.0 161.0 L 143.0 165.0 L 141.0 169.0 L 139.0 175.0 L 136.0 181.0 L 132.0 189.0 L 128.0 196.0 L 125.0 202.0 L 121.0 207.0 L 118.0 212.0 L 116.0 216.0 L 113.0 219.0 L 111.0 222.0 L 109.0 225.0 L 108.0 227.0 L 107.0 228.0 L 107.0 229.0 L 106.0 230.0 L 106.0 231.0 L 105.0 231.0 L 105.0 232.0 L 105.0 232.0 L 104.0 233.0 L 104.0 233.0 L 104.0 233.0 L 104.0 233.0 L 104.0 233.0 L 104.0 233.0 L 105.0 233.0 L 106.0 233.0 L 107.0 233.0 L 108.0 233.0 L 109.0 233.0 L 111.0 233.0 L 114.0 233.0 L 119.0 233.0 L 125.0 233.0 L 134.0 232.0 L 143.0 230.0 L 153.0 228.0 L 162.0 226.0 L 171.0 224.0 L 180.0 222.0 L 187.0 220.0 L 192.0 219.0 L 194.0 218.0 L 195.0 218.0 L 195.0 218.0 L 195.0 218.0 L 195.0 218.0 L 195.0 218.0 " stroke="black" fill="none" stroke-width="5.0" stroke-linecap="round" stroke-linejoin="round" />
<path d="M 189.0 192.0 L 189.0 191.0 L 188.0 191.0 L 187.0 190.0 L 187.0 190.0 L 187.0 190.0 L 187.0 190.0 L 187.0 191.0 L 188.0 193.0 L 190.0 196.0 L 192.0 200.0 L 194.0 204.0 L 197.0 210.0 L 200.0 216.0 L 204.0 223.0 L 208.0 230.0 L 211.0 236.0 L 214.0 241.0 L 217.0 245.0 L 218.0 248.0 L 219.0 249.0 " stroke="black" fill="none" stroke-width="5.0" stroke-linecap="round" stroke-linejoin="round" />
</svg>