<svg xmlns="http://www.w3.org/2000/svg" width="300" height="300" viewBox="0 0 300 300">
<path d="M 75.0 77.0 L 75.0 77.0 L 74.0 77.0 L 74.0 77.0 L 73.0 76.0 L 73.0 76.0 L 73.0 76.0 L 73.0 76.0 L 73.0 76.0 L 73.0 76.0 L 75.0 76.0 L 77.0 77.0 L 80.0 78.0 L 83.0 80.0 L 87.0 82.0 L 90.0 84.0 L 94.0 86.0 L 99.0 88.0 L 103.0 90.0 L 106.0 91.0 L 107.0 93.0 " stroke="black" fill="none" stroke-width="5.0" stroke-linecap="round" stroke-linejoin="round" />
<path d="M 68.0 129.0 L 68.0 129.0 L 68.0 129.0 L 68.0 129.0 L 68.0 129.0 L 68.0 129.0 L 68.0 129.0 L 68.0 129.0 L 69.0 130.0 L 71.0 131.0 L 74.0 133.0 L 77.0 136.0 L 81.0 138.0 L 86.0 141.0 L 90.0 144.0 L 94.0 147.0 L 98.0 150.0 " stroke="black" fill="none" stroke-width="5.0" stroke-linecap="round" stroke-linejoin="round" />
<path d="M 72.0 243.0 L 72.0 243.0 L 72.0 243.0 L 72.0 243.0 L 72.0 243.0 L 73.0 243.0 L 73.0 243.0 L 73.0 243.0 L 73.0 242.0 L 73.0 241.0 L 74.0 239.0 L 75.0 235.0 L 78.0 230.0 L 83.0 222.0 L 89.0 212.0 L 97.0 202.0 L 100.0 197.0 " stroke="black" fill="none" stroke-width="5.0" stroke-linecap="round" stroke-linejoin="round" />
<path d="M 123.0 88.0 L 123.0 88.0 L 123.0 88.0 L 123.0 88.0 L 123.0 88.0 L 123.0 88.0 L 123.0 88.0 L 123.0 88.0 L 123.0 88.0 L 123.0 88.0 L 123.0 88.0 L 123.0 88.0 L 123.0 88.0 L 125.0 88.0 L 126.0 88.0 L 127.0 89.0 L 129.0 89.0 L 131.0 89.0 L 133.0 89.0 L 135.0 89.0 L 137.0 89.0 L 139.0 89.0 L 142.0 89.0 L 144.0 89.0 L 145.0 89.0 L 147.0 89.0 L 149.0 89.0 L 150.0 89.0 L 152.0 89.0 L 153.0 89.0 L 154.0 89.0 L 155.0 89.0 L 156.0 89.0 L 158.0 90.0 L 159.0 90.0 L 160.0 90.0 L 162.0 90.0 L 163.0 90.0 L 164.0 90.0 L 166.0 90.0 L 167.0 90.0 L 168.0 90.0 L 170.0 90.0 L 171.0 90.0 L 173.0 90.0 L 174.0 90.0 L 176.0 90.0 L 177.0 90.0 L 178.0 90.0 L 180.0 90.0 L 182.0 90.0 L 183.0 90.0 L 184.0 90.0 L 186.0 90.0 L 187.0 90.0 L 189.0 90.0 L 190.0 90.0 L 191.0 90.0 L 192.0 90.0 L 193.0 90.0 L 194.0 90.0 L 196.0 90.0 L 197.0 90.0 L 198.0 90.0 L 199.0 90.0 L 200.0 90.0 L 202.0 91.0 L 203.0 91.0 L 205.0 91.0 L 207.0 91.0 L 209.0 91.0 L 211.0 91.0 L 213.0 91.0 L 216.0 91.0 L 218.0 91.0 L 221.0 91.0 L 223.0 91.0 L 225.0 91.0 L 227.0 91.0 L 229.0 91.0 L 231.0 91.0 L 232.0 91.0 L 234.0 91.0 L 235.0 91.0 " stroke="black" fill="none" stroke-width="5.0" stroke-linecap="round" stroke-linejoin="round" />
<path d="M 131.0 133.0 L 131.0 133.0 L 131.0 133.0 L 131.0 132.0 L 131.0 132.0 L 132.0 132.0 L 132.0 132.0 L 132.0 132.0 L 132.0 132.0 L 133.0 132.0 L 133.0 132.0 L 133.0 132.0 L 133.0 134.0 L 133.0 136.0 L 134.0 140.0 L 134.0 143.0 L 134.0 148.0 L 134.0 153.0 L 134.0 158.0 L 135.0 164.0 L 135.0 169.0 L 135.0 173.0 L 135.0 178.0 L 136.0 181.0 L 136.0 183.0 L 136.0 185.0 L 136.0 186.0 L 136.0 187.0 L 137.0 187.0 " stroke="black" fill="none" stroke-width="5.0" stroke-linecap="round" stroke-linejoin="round" />
<path d="M 138.0 131.0 L 138.0 131.0 L 137.0 131.0 L 137.0 131.0 L 136.0 131.0 L 135.0 131.0 L 135.0 131.0 L 135.0 131.0 L 135.0 130.0 L 135.0 130.0 L 135.0 130.0 L 136.0 130.0 L 137.0 130.0 L 138.0 130.0 L 139.0 130.0 L 141.0 130.0 L 143.0 130.0 L 144.0 130.0 L 146.0 130.0 L 149.0 130.0 L 151.0 130.0 L 154.0 129.0 L 158.0 129.0 L 162.0 129.0 L 166.0 129.0 L 170.0 128.0 L 174.0 128.0 L 178.0 128.0 L 181.0 128.0 L 184.0 128.0 L 186.0 128.0 L 188.0 128.0 L 189.0 128.0 L 190.0 128.0 L 190.0 128.0 L 190.0 129.0 L 190.0 129.0 L 190.0 130.0 L 190.0 131.0 L 190.0 132.0 L 189.0 134.0 L 188.0 137.0 L 188.0 140.0 L 187.0 143.0 L 186.0 147.0 L 186.0 152.0 L 185.0 157.0 L 185.0 162.0 L 184.0 167.0 L 184.0 171.0 L 183.0 176.0 L 183.0 179.0 L 182.0 182.0 L 182.0 185.0 L 182.0 186.0 L 181.0 187.0 L 181.0 187.0 L 181.0 187.0 L 181.0 187.0 L 180.0 186.0 L 180.0 185.0 " stroke="black" fill="none" stroke-width="5.0" stroke-linecap="round" stroke-linejoin="round" />
<path d="M 137.0 190.0 L 137.0 190.0 L 136.0 191.0 L 135.0 191.0 L 134.0 191.0 L 134.0 191.0 L 134.0 191.0 L 134.0 191.0 L 136.0 191.0 L 137.0 191.0 L 140.0 191.0 L 143.0 191.0 L 146.0 191.0 L 149.0 190.0 L 153.0 190.0 L 158.0 189.0 L 163.0 188.0 L 170.0 187.0 L 178.0 185.0 " stroke="black" fill="none" stroke-width="5.0" stroke-linecap="round" stroke-linejoin="round" />
<path d="M 222.0 98.0 L 222.0 98.0 L 222.0 97.0 L 222.0 97.0 L 222.0 97.0 L 222.0 96.0 L 223.0 96.0 L 223.0 96.0 L 223.0 95.0 L 223.0 95.0 L 223.0 95.0 L 223.0 95.0 L 223.0 95.0 L 223.0 96.0 L 223.0 97.0 L 223.0 99.0 L 223.0 101.0 L 222.0 104.0 L 222.0 107.0 L 222.0 110.0 L 222.0 113.0 L 222.0 117.0 L 222.0 121.0 L 222.0 125.0 L 222.0 130.0 L 222.0 134.0 L 222.0 139.0 L 222.0 144.0 L 222.0 149.0 L 222.0 153.0 L 223.0 156.0 L 223.0 160.0 L 223.0 162.0 L 223.0 165.0 L 223.0 168.0 L 223.0 170.0 L 223.0 172.0 L 223.0 175.0 L 223.0 177.0 L 223.0 180.0 L 223.0 183.0 L 223.0 187.0 L 223.0 190.0 L 223.0 194.0 L 223.0 197.0 L 223.0 200.0 L 223.0 203.0 L 222.0 205.0 L 222.0 208.0 L 222.0 210.0 L 222.0 212.0 L 221.0 215.0 L 221.0 217.0 L 221.0 219.0 L 221.0 221.0 L 221.0 224.0 L 221.0 226.0 L 221.0 229.0 L 220.0 231.0 L 220.0 234.0 L 220.0 236.0 L 220.0 238.0 L 220.0 239.0 L 220.0 241.0 L 220.0 242.0 L 220.0 243.0 L 220.0 244.0 L 220.0 246.0 L 219.0 247.0 L 219.0 248.0 L 219.0 249.0 L 218.0 250.0 L 218.0 251.0 L 218.0 252.0 L 217.0 253.0 L 217.0 253.0 L 216.0 253.0 L 215.0 254.0 L 214.0 254.0 L 213.0 254.0 L 211.0 254.0 L 209.0 254.0 L 207.0 254.0 L 205.0 253.0 L 202.0 252.0 L 200.0 252.0 L 197.0 251.0 L 194.0 249.0 L 191.0 248.0 L 189.0 246.0 L 186.0 244.0 L 183.0 242.0 L 182.0 241.0 " stroke="black" fill="none" stroke-width="5.0" stroke-linecap="round" stroke-linejoin="round" />
</svg>