<svg xmlns="http://www.w3.org/2000/svg" width="300" height="300" viewBox="0 0 300 300">
<path d="M 149.0 75.0 L 148.0 75.0 L 147.0 75.0 L 146.0 74.0 L 146.0 74.0 L 145.0 74.0 L 145.0 75.0 L 145.0 77.0 L 145.0 80.0 L 146.0 83.0 L 148.0 87.0 L 150.0 91.0 L 152.0 95.0 " stroke="black" fill="none" stroke-width="5.0" stroke-linecap="round" stroke-linejoin="round" />
<path d="M 65.0 120.0 L 65.0 120.0 L 65.0 120.0 L 65.0 120.0 L 65.0 120.0 L 65.0 120.0 L 66.0 120.0 L 70.0 119.0 L 78.0 119.0 L 88.0 118.0 L 101.0 117.0 L 113.0 117.0 L 126.0 116.0 L 141.0 115.0 L 153.0 115.0 L 164.0 115.0 L 176.0 115.0 L 188.0 115.0 L 197.0 116.0 L 205.0 116.0 L 212.0 117.0 L 220.0 118.0 L 226.0 119.0 L 229.0 121.0 L 230.0 122.0 " stroke="black" fill="none" stroke-width="5.0" stroke-linecap="round" stroke-linejoin="round" />
<path d="M 134.0 162.0 L 133.0 162.0 L 132.0 162.0 L 131.0 162.0 L 130.0 162.0 L 129.0 162.0 L 129.0 162.0 L 129.0 162.0 L 129.0 163.0 L 131.0 163.0 L 133.0 163.0 L 136.0 163.0 L 139.0 164.0 L 143.0 164.0 L 148.0 164.0 L 152.0 164.0 L 157.0 164.0 L 163.0 164.0 L 170.0 163.0 L 177.0 163.0 L 183.0 163.0 L 188.0 163.0 L 191.0 163.0 L 193.0 164.0 L 194.0 164.0 L 194.0 165.0 L 195.0 166.0 L 195.0 167.0 L 195.0 168.0 L 196.0 169.0 L 196.0 170.0 L 196.0 171.0 L 197.0 172.0 L 197.0 173.0 L 198.0 175.0 L 198.0 177.0 L 198.0 178.0 L 198.0 181.0 L 198.0 184.0 L 198.0 186.0 L 198.0 189.0 L 199.0 191.0 L 199.0 194.0 L 199.0 197.0 L 199.0 200.0 L 199.0 204.0 L 199.0 207.0 L 199.0 212.0 L 198.0 217.0 L 197.0 223.0 L 196.0 230.0 L 195.0 236.0 L 193.0 241.0 L 192.0 246.0 L 191.0 250.0 L 189.0 253.0 L 187.0 255.0 L 186.0 256.0 L 184.0 257.0 L 181.0 257.0 L 179.0 257.0 L 175.0 257.0 L 170.0 255.0 L 166.0 253.0 L 160.0 251.0 L 155.0 248.0 L 151.0 244.0 " stroke="black" fill="none" stroke-width="5.0" stroke-linecap="round" stroke-linejoin="round" />
<path d="M 134.0 122.0 L 134.0 122.0 L 133.0 122.0 L 133.0 121.0 L 132.0 121.0 L 132.0 121.0 L 132.0 121.0 L 132.0 123.0 L 132.0 126.0 L 132.0 129.0 L 132.0 135.0 L 132.0 142.0 L 130.0 150.0 L 127.0 159.0 L 123.0 169.0 L 118.0 179.0 L 112.0 190.0 L 106.0 202.0 L 100.0 212.0 L 92.0 223.0 L 82.0 234.0 L 73.0 242.0 L 68.0 247.0 L 65.0 250.0 " stroke="black" fill="none" stroke-width="5.0" stroke-linecap="round" stroke-linejoin="round" />
</svg>