<svg xmlns="http://www.w3.org/2000/svg" width="300" height="300" viewBox="0 0 300 300">
<path d="M 80.0 97.0 L 80.0 97.0 L 80.0 97.0 L 80.0 97.0 L 80.0 97.0 L 80.0 97.0 L 80.0 97.0 L 80.0 97.0 L 80.0 97.0 L 80.0 97.0 L 80.0 97.0 L 80.0 98.0 L 81.0 99.0 L 81.0 101.0 L 81.0 102.0 L 81.0 105.0 L 82.0 107.0 L 82.0 110.0 L 82.0 112.0 L 82.0 115.0 L 82.0 117.0 L 82.0 120.0 L 82.0 123.0 L 82.0 125.0 L 82.0 127.0 L 82.0 130.0 L 82.0 132.0 L 82.0 134.0 L 82.0 136.0 L 82.0 138.0 L 82.0 140.0 L 82.0 142.0 L 82.0 144.0 L 82.0 146.0 L 82.0 148.0 L 82.0 151.0 L 82.0 153.0 L 82.0 155.0 L 82.0 157.0 L 82.0 158.0 L 82.0 160.0 L 82.0 161.0 L 81.0 162.0 L 81.0 164.0 L 81.0 165.0 L 81.0 166.0 L 81.0 167.0 L 81.0 169.0 L 81.0 170.0 L 81.0 171.0 L 81.0 173.0 L 81.0 174.0 L 81.0 175.0 L 81.0 177.0 L 81.0 178.0 L 81.0 180.0 L 81.0 181.0 L 81.0 183.0 L 81.0 184.0 L 81.0 186.0 L 81.0 188.0 L 81.0 190.0 L 81.0 191.0 L 81.0 193.0 L 82.0 194.0 L 82.0 196.0 L 82.0 197.0 L 82.0 199.0 L 82.0 200.0 L 82.0 201.0 L 82.0 203.0 L 82.0 204.0 L 82.0 206.0 L 82.0 208.0 L 83.0 210.0 L 83.0 211.0 L 83.0 213.0 L 84.0 215.0 L 84.0 216.0 L 84.0 218.0 L 84.0 219.0 L 84.0 220.0 L 84.0 221.0 L 83.0 222.0 L 83.0 224.0 L 82.0 226.0 L 82.0 227.0 L 82.0 229.0 L 82.0 230.0 L 82.0 230.0 L 82.0 230.0 L 82.0 230.0 " stroke="black" fill="none" stroke-width="5.0" stroke-linecap="round" stroke-linejoin="round" />
<path d="M 85.0 95.0 L 85.0 95.0 L 84.0 95.0 L 84.0 95.0 L 84.0 95.0 L 83.0 94.0 L 83.0 94.0 L 83.0 94.0 L 83.0 94.0 L 83.0 94.0 L 83.0 94.0 L 83.0 94.0 L 83.0 94.0 L 83.0 94.0 L 83.0 94.0 L 83.0 94.0 L 84.0 94.0 L 85.0 94.0 L 86.0 94.0 L 88.0 94.0 L 89.0 94.0 L 90.0 94.0 L 92.0 94.0 L 93.0 94.0 L 94.0 94.0 L 96.0 94.0 L 97.0 94.0 L 99.0 94.0 L 100.0 94.0 L 101.0 94.0 L 102.0 94.0 L 103.0 94.0 L 104.0 94.0 L 105.0 94.0 L 106.0 94.0 L 107.0 94.0 L 108.0 94.0 L 109.0 94.0 L 110.0 94.0 L 110.0 94.0 L 111.0 94.0 L 112.0 94.0 L 113.0 94.0 L 114.0 94.0 L 114.0 94.0 L 115.0 94.0 L 116.0 94.0 L 116.0 94.0 L 117.0 94.0 L 118.0 94.0 L 119.0 94.0 L 120.0 94.0 L 121.0 94.0 L 123.0 94.0 L 124.0 94.0 L 125.0 94.0 L 126.0 94.0 L 127.0 94.0 L 128.0 94.0 L 130.0 94.0 L 131.0 94.0 L 132.0 94.0 L 133.0 94.0 L 134.0 94.0 L 136.0 94.0 L 137.0 94.0 L 138.0 94.0 L 139.0 94.0 L 140.0 94.0 L 141.0 94.0 L 142.0 94.0 L 143.0 94.0 L 144.0 94.0 L 144.0 94.0 L 145.0 94.0 L 146.0 94.0 L 147.0 94.0 L 147.0 93.0 L 148.0 93.0 L 148.0 93.0 L 149.0 93.0 L 150.0 93.0 L 150.0 93.0 L 151.0 93.0 L 151.0 93.0 L 152.0 93.0 L 152.0 93.0 L 153.0 93.0 L 153.0 93.0 L 154.0 93.0 L 154.0 93.0 L 155.0 94.0 L 156.0 94.0 L 156.0 94.0 L 157.0 94.0 L 158.0 95.0 L 159.0 95.0 L 160.0 95.0 L 160.0 95.0 L 161.0 96.0 L 162.0 96.0 L 163.0 96.0 L 164.0 96.0 L 165.0 96.0 L 166.0 96.0 L 166.0 96.0 L 167.0 96.0 L 168.0 96.0 L 169.0 96.0 L 169.0 96.0 L 170.0 96.0 L 171.0 96.0 L 171.0 96.0 L 172.0 96.0 L 173.0 96.0 L 174.0 96.0 L 175.0 96.0 L 175.0 96.0 L 176.0 96.0 L 177.0 96.0 L 178.0 96.0 L 179.0 95.0 L 179.0 95.0 L 180.0 95.0 L 181.0 95.0 L 181.0 95.0 L 182.0 95.0 L 183.0 95.0 L 184.0 95.0 L 184.0 95.0 L 185.0 95.0 L 185.0 95.0 L 186.0 95.0 L 187.0 95.0 L 187.0 95.0 L 188.0 95.0 L 188.0 95.0 L 189.0 95.0 L 189.0 95.0 L 189.0 95.0 L 190.0 95.0 L 190.0 95.0 L 191.0 96.0 L 191.0 96.0 L 192.0 96.0 L 192.0 96.0 L 192.0 96.0 L 193.0 96.0 L 193.0 96.0 L 193.0 96.0 L 194.0 96.0 L 194.0 96.0 L 194.0 96.0 L 195.0 96.0 L 195.0 96.0 L 196.0 96.0 L 196.0 96.0 L 196.0 96.0 L 197.0 96.0 L 197.0 96.0 L 197.0 96.0 L 198.0 96.0 L 198.0 96.0 L 198.0 96.0 L 199.0 96.0 L 199.0 96.0 L 200.0 96.0 L 200.0 96.0 L 200.0 96.0 L 201.0 96.0 L 202.0 96.0 L 202.0 96.0 L 203.0 96.0 L 203.0 96.0 L 204.0 96.0 L 204.0 96.0 L 205.0 96.0 L 206.0 96.0 L 206.0 96.0 L 207.0 96.0 L 208.0 96.0 L 208.0 96.0 L 209.0 96.0 L 210.0 96.0 L 210.0 96.0 L 211.0 96.0 L 211.0 96.0 L 212.0 96.0 L 212.0 96.0 L 213.0 96.0 L 213.0 96.0 L 214.0 96.0 L 214.0 96.0 L 215.0 96.0 L 215.0 96.0 L 215.0 96.0 L 216.0 97.0 L 216.0 97.0 L 216.0 97.0 L 217.0 97.0 L 217.0 97.0 L 217.0 97.0 L 218.0 97.0 L 218.0 98.0 L 218.0 98.0 L 219.0 98.0 L 219.0 98.0 L 219.0 98.0 L 219.0 98.0 L 220.0 98.0 L 220.0 98.0 L 221.0 98.0 L 221.0 99.0 L 221.0 99.0 L 221.0 99.0 L 222.0 99.0 L 222.0 99.0 L 222.0 99.0 L 222.0 99.0 L 223.0 100.0 L 223.0 100.0 L 223.0 100.0 L 223.0 101.0 L 224.0 101.0 L 224.0 102.0 L 224.0 103.0 L 224.0 104.0 L 224.0 105.0 L 224.0 107.0 L 224.0 108.0 L 224.0 109.0 L 224.0 111.0 L 224.0 113.0 L 224.0 114.0 L 224.0 116.0 L 224.0 118.0 L 224.0 119.0 L 224.0 121.0 L 224.0 123.0 L 224.0 124.0 L 224.0 126.0 L 224.0 128.0 L 224.0 129.0 L 224.0 131.0 L 225.0 132.0 L 225.0 134.0 L 225.0 136.0 L 225.0 137.0 L 225.0 139.0 L 225.0 141.0 L 225.0 143.0 L 225.0 145.0 L 225.0 147.0 L 225.0 148.0 L 225.0 150.0 L 225.0 152.0 L 225.0 153.0 L 225.0 155.0 L 225.0 156.0 L 225.0 158.0 L 225.0 160.0 L 225.0 162.0 L 225.0 164.0 L 225.0 165.0 L 225.0 167.0 L 225.0 169.0 L 226.0 171.0 L 226.0 174.0 L 226.0 177.0 L 226.0 179.0 L 226.0 182.0 L 226.0 185.0 L 226.0 188.0 L 226.0 190.0 L 226.0 193.0 L 226.0 195.0 L 226.0 197.0 L 226.0 200.0 L 226.0 202.0 L 226.0 204.0 L 226.0 206.0 L 226.0 208.0 L 226.0 210.0 L 226.0 213.0 L 226.0 215.0 L 226.0 217.0 L 226.0 220.0 L 226.0 222.0 L 226.0 224.0 L 225.0 226.0 L 225.0 228.0 L 225.0 230.0 L 225.0 232.0 L 225.0 233.0 L 225.0 234.0 L 224.0 235.0 L 224.0 236.0 L 224.0 237.0 L 224.0 237.0 L 224.0 237.0 L 224.0 238.0 L 224.0 238.0 L 225.0 238.0 L 225.0 237.0 " stroke="black" fill="none" stroke-width="5.0" stroke-linecap="round" stroke-linejoin="round" />
<path d="M 84.0 160.0 L 84.0 160.0 L 84.0 160.0 L 84.0 160.0 L 85.0 160.0 L 85.0 160.0 L 85.0 161.0 L 86.0 161.0 L 86.0 161.0 L 87.0 161.0 L 87.0 161.0 L 88.0 161.0 L 89.0 161.0 L 90.0 162.0 L 91.0 162.0 L 92.0 162.0 L 94.0 162.0 L 95.0 163.0 L 97.0 163.0 L 98.0 163.0 L 100.0 163.0 L 102.0 163.0 L 104.0 163.0 L 105.0 163.0 L 107.0 163.0 L 108.0 163.0 L 110.0 163.0 L 111.0 163.0 L 113.0 163.0 L 114.0 163.0 L 116.0 163.0 L 118.0 163.0 L 119.0 163.0 L 121.0 163.0 L 123.0 163.0 L 125.0 163.0 L 126.0 163.0 L 129.0 163.0 L 131.0 163.0 L 133.0 163.0 L 135.0 163.0 L 137.0 163.0 L 139.0 163.0 L 141.0 162.0 L 142.0 162.0 L 144.0 162.0 L 145.0 162.0 L 147.0 162.0 L 148.0 162.0 L 149.0 162.0 L 150.0 162.0 L 151.0 162.0 L 152.0 162.0 L 152.0 162.0 L 153.0 162.0 L 154.0 162.0 L 155.0 162.0 L 156.0 162.0 L 157.0 162.0 L 158.0 162.0 L 159.0 162.0 L 160.0 162.0 L 161.0 162.0 L 162.0 162.0 L 164.0 162.0 L 165.0 162.0 L 166.0 162.0 L 168.0 162.0 L 169.0 162.0 L 170.0 162.0 L 172.0 162.0 L 173.0 162.0 L 175.0 162.0 L 177.0 161.0 L 178.0 161.0 L 180.0 161.0 L 182.0 161.0 L 183.0 161.0 L 185.0 161.0 L 187.0 161.0 L 188.0 161.0 L 190.0 160.0 L 191.0 160.0 L 193.0 160.0 L 194.0 160.0 L 195.0 160.0 L 196.0 160.0 L 198.0 160.0 L 199.0 160.0 L 201.0 160.0 L 202.0 160.0 L 204.0 160.0 L 205.0 161.0 L 206.0 161.0 L 208.0 161.0 L 209.0 161.0 L 210.0 162.0 L 211.0 162.0 L 212.0 162.0 L 213.0 162.0 L 214.0 162.0 L 215.0 163.0 L 216.0 163.0 L 217.0 163.0 L 219.0 163.0 " stroke="black" fill="none" stroke-width="5.0" stroke-linecap="round" stroke-linejoin="round" />
<path d="M 79.0 235.0 L 79.0 235.0 L 79.0 235.0 L 79.0 235.0 L 79.0 235.0 L 79.0 235.0 L 79.0 234.0 L 79.0 234.0 L 79.0 234.0 L 79.0 234.0 L 79.0 234.0 L 79.0 234.0 L 80.0 234.0 L 80.0 233.0 L 81.0 233.0 L 82.0 233.0 L 83.0 233.0 L 85.0 233.0 L 87.0 233.0 L 88.0 233.0 L 90.0 233.0 L 92.0 233.0 L 93.0 233.0 L 94.0 233.0 L 95.0 233.0 L 96.0 233.0 L 97.0 233.0 L 97.0 233.0 L 98.0 234.0 L 98.0 234.0 L 99.0 234.0 L 100.0 234.0 L 100.0 234.0 L 101.0 235.0 L 101.0 235.0 L 102.0 235.0 L 102.0 235.0 L 103.0 235.0 L 103.0 236.0 L 104.0 236.0 L 104.0 236.0 L 105.0 236.0 L 105.0 236.0 L 106.0 236.0 L 107.0 236.0 L 107.0 236.0 L 108.0 236.0 L 108.0 236.0 L 109.0 236.0 L 110.0 236.0 L 110.0 236.0 L 111.0 236.0 L 112.0 235.0 L 113.0 235.0 L 114.0 235.0 L 115.0 235.0 L 116.0 234.0 L 118.0 234.0 L 119.0 234.0 L 120.0 234.0 L 121.0 234.0 L 122.0 234.0 L 123.0 234.0 L 125.0 234.0 L 126.0 234.0 L 127.0 234.0 L 129.0 234.0 L 130.0 234.0 L 131.0 233.0 L 132.0 233.0 L 134.0 233.0 L 135.0 233.0 L 136.0 233.0 L 137.0 233.0 L 138.0 233.0 L 139.0 233.0 L 140.0 233.0 L 142.0 233.0 L 143.0 233.0 L 144.0 233.0 L 145.0 233.0 L 146.0 233.0 L 147.0 233.0 L 148.0 233.0 L 149.0 233.0 L 150.0 233.0 L 150.0 233.0 L 151.0 233.0 L 152.0 233.0 L 153.0 233.0 L 153.0 233.0 L 154.0 233.0 L 154.0 233.0 L 155.0 233.0 L 156.0 233.0 L 156.0 233.0 L 157.0 233.0 L 157.0 234.0 L 158.0 234.0 L 158.0 234.0 L 159.0 234.0 L 160.0 234.0 L 160.0 234.0 L 161.0 234.0 L 162.0 234.0 L 163.0 234.0 L 163.0 234.0 L 164.0 234.0 L 165.0 235.0 L 166.0 235.0 L 167.0 235.0 L 167.0 235.0 L 168.0 235.0 L 169.0 235.0 L 170.0 235.0 L 171.0 235.0 L 171.0 235.0 L 172.0 235.0 L 173.0 235.0 L 174.0 235.0 L 175.0 235.0 L 176.0 235.0 L 177.0 235.0 L 178.0 235.0 L 179.0 235.0 L 180.0 235.0 L 181.0 235.0 L 181.0 235.0 L 182.0 235.0 L 183.0 235.0 L 184.0 235.0 L 185.0 235.0 L 186.0 235.0 L 186.0 235.0 L 187.0 235.0 L 188.0 235.0 L 189.0 235.0 L 189.0 235.0 L 190.0 235.0 L 191.0 235.0 L 191.0 235.0 L 192.0 235.0 L 193.0 235.0 L 193.0 235.0 L 194.0 235.0 L 194.0 235.0 L 195.0 235.0 L 195.0 235.0 L 196.0 235.0 L 196.0 235.0 L 196.0 235.0 L 197.0 235.0 L 197.0 235.0 L 198.0 235.0 L 198.0 235.0 L 199.0 235.0 L 199.0 235.0 L 200.0 235.0 L 200.0 235.0 L 201.0 235.0 L 201.0 235.0 L 202.0 236.0 L 203.0 236.0 L 203.0 236.0 L 204.0 236.0 L 205.0 236.0 L 205.0 237.0 L 206.0 237.0 L 207.0 237.0 L 207.0 237.0 L 208.0 237.0 L 209.0 237.0 L 210.0 237.0 L 211.0 237.0 L 212.0 238.0 L 213.0 238.0 L 214.0 238.0 L 215.0 238.0 L 216.0 238.0 L 218.0 238.0 L 219.0 238.0 L 220.0 238.0 L 222.0 238.0 L 223.0 237.0 L 225.0 237.0 L 226.0 237.0 L 227.0 236.0 " stroke="black" fill="none" stroke-width="5.0" stroke-linecap="round" stroke-linejoin="round" />
</svg>