<svg xmlns="http://www.w3.org/2000/svg" width="300" height="300" viewBox="0 0 300 300">
<path d="M 74.0 75.0 L 74.0 75.0 L 74.0 75.0 L 73.0 74.0 L 73.0 74.0 L 73.0 74.0 L 73.0 74.0 L 73.0 74.0 L 73.0 74.0 L 73.0 74.0 L 74.0 74.0 L 76.0 75.0 L 79.0 77.0 L 82.0 78.0 L 85.0 80.0 L 89.0 82.0 L 92.0 84.0 L 96.0 87.0 L 100.0 89.0 L 103.0 91.0 L 105.0 93.0 L 108.0 95.0 " stroke="black" fill="none" stroke-width="5.0" stroke-linecap="round" stroke-linejoin="round" />
<path d="M 66.0 133.0 L 66.0 133.0 L 65.0 133.0 L 65.0 133.0 L 64.0 132.0 L 64.0 132.0 L 64.0 132.0 L 64.0 132.0 L 64.0 132.0 L 64.0 133.0 L 66.0 134.0 L 68.0 136.0 L 70.0 138.0 L 73.0 140.0 L 77.0 142.0 L 81.0 144.0 L 85.0 146.0 L 90.0 149.0 L 94.0 151.0 L 97.0 154.0 " stroke="black" fill="none" stroke-width="5.0" stroke-linecap="round" stroke-linejoin="round" />
<path d="M 69.0 245.0 L 69.0 245.0 L 69.0 245.0 L 68.0 245.0 L 68.0 245.0 L 68.0 245.0 L 68.0 244.0 L 68.0 243.0 L 68.0 242.0 L 69.0 239.0 L 71.0 235.0 L 74.0 228.0 L 80.0 218.0 L 86.0 208.0 L 94.0 196.0 L 98.0 189.0 " stroke="black" fill="none" stroke-width="5.0" stroke-linecap="round" stroke-linejoin="round" />
<path d="M 118.0 104.0 L 118.0 104.0 L 118.0 104.0 L 117.0 103.0 L 117.0 103.0 L 116.0 103.0 L 116.0 103.0 L 116.0 103.0 L 116.0 103.0 L 115.0 103.0 L 115.0 103.0 L 115.0 103.0 L 115.0 103.0 L 115.0 103.0 L 115.0 103.0 L 115.0 103.0 L 115.0 103.0 L 116.0 103.0 L 117.0 103.0 L 117.0 103.0 L 118.0 103.0 L 119.0 104.0 L 120.0 104.0 L 121.0 104.0 L 123.0 104.0 L 124.0 104.0 L 125.0 104.0 L 126.0 104.0 L 128.0 104.0 L 129.0 104.0 L 131.0 104.0 L 132.0 104.0 L 134.0 104.0 L 135.0 104.0 L 136.0 104.0 L 137.0 104.0 L 139.0 104.0 L 139.0 104.0 L 141.0 104.0 L 142.0 104.0 L 143.0 104.0 L 143.0 104.0 L 144.0 104.0 L 145.0 104.0 L 146.0 103.0 L 147.0 103.0 L 147.0 103.0 L 148.0 103.0 L 149.0 103.0 L 149.0 103.0 L 150.0 103.0 L 150.0 103.0 L 151.0 102.0 L 152.0 102.0 L 152.0 102.0 L 153.0 102.0 L 153.0 102.0 L 154.0 102.0 L 155.0 102.0 L 155.0 102.0 L 156.0 102.0 L 157.0 102.0 L 158.0 102.0 L 158.0 102.0 L 159.0 102.0 L 160.0 102.0 L 161.0 101.0 L 162.0 101.0 L 163.0 101.0 L 164.0 101.0 L 165.0 101.0 L 166.0 101.0 L 167.0 101.0 L 168.0 101.0 L 170.0 101.0 L 171.0 101.0 L 173.0 101.0 L 174.0 101.0 L 176.0 101.0 L 177.0 100.0 L 179.0 100.0 L 181.0 100.0 L 182.0 100.0 L 183.0 100.0 L 185.0 100.0 L 186.0 100.0 L 187.0 100.0 L 189.0 100.0 L 191.0 100.0 L 192.0 100.0 L 194.0 100.0 L 195.0 100.0 L 196.0 100.0 L 198.0 100.0 L 199.0 100.0 L 201.0 99.0 L 202.0 99.0 L 204.0 99.0 L 206.0 99.0 L 208.0 99.0 L 210.0 99.0 L 212.0 99.0 L 214.0 99.0 L 216.0 99.0 L 218.0 99.0 L 220.0 99.0 L 222.0 99.0 L 223.0 99.0 L 225.0 100.0 L 227.0 100.0 L 229.0 100.0 L 230.0 100.0 L 232.0 100.0 L 233.0 100.0 L 234.0 100.0 L 235.0 100.0 L 236.0 100.0 L 236.0 100.0 L 237.0 100.0 " stroke="black" fill="none" stroke-width="5.0" stroke-linecap="round" stroke-linejoin="round" />
<path d="M 179.0 77.0 L 179.0 77.0 L 179.0 77.0 L 178.0 77.0 L 178.0 77.0 L 177.0 77.0 L 177.0 77.0 L 177.0 77.0 L 176.0 77.0 L 176.0 77.0 L 175.0 77.0 L 175.0 78.0 L 174.0 79.0 L 174.0 80.0 L 173.0 82.0 L 172.0 83.0 L 171.0 85.0 L 170.0 86.0 L 169.0 88.0 L 168.0 90.0 L 166.0 92.0 L 165.0 94.0 L 164.0 96.0 L 162.0 98.0 L 160.0 100.0 L 159.0 103.0 L 158.0 105.0 L 157.0 107.0 L 155.0 109.0 L 155.0 111.0 L 153.0 113.0 L 153.0 114.0 L 152.0 116.0 L 151.0 118.0 L 150.0 119.0 L 150.0 121.0 L 149.0 123.0 L 148.0 124.0 L 147.0 126.0 L 146.0 128.0 L 145.0 130.0 L 144.0 131.0 L 143.0 133.0 L 142.0 135.0 L 141.0 136.0 L 139.0 138.0 L 138.0 139.0 L 137.0 141.0 L 135.0 143.0 L 134.0 144.0 L 133.0 145.0 L 132.0 146.0 L 131.0 147.0 L 130.0 148.0 L 130.0 149.0 L 129.0 149.0 L 128.0 150.0 L 127.0 151.0 L 127.0 151.0 L 127.0 151.0 L 126.0 152.0 L 126.0 152.0 L 126.0 152.0 L 126.0 152.0 L 126.0 152.0 L 126.0 152.0 L 126.0 152.0 L 126.0 152.0 L 127.0 152.0 L 127.0 152.0 L 128.0 152.0 L 129.0 152.0 L 130.0 152.0 L 131.0 152.0 L 132.0 151.0 L 133.0 151.0 L 135.0 151.0 L 137.0 151.0 L 139.0 150.0 L 141.0 150.0 L 143.0 150.0 L 145.0 149.0 L 148.0 149.0 L 151.0 148.0 L 154.0 147.0 L 157.0 147.0 L 161.0 146.0 L 165.0 145.0 L 169.0 144.0 L 173.0 144.0 L 177.0 143.0 L 180.0 143.0 L 183.0 143.0 L 186.0 142.0 L 189.0 142.0 L 191.0 141.0 L 193.0 141.0 L 195.0 141.0 L 196.0 140.0 L 198.0 140.0 L 199.0 139.0 L 200.0 139.0 L 202.0 139.0 L 203.0 139.0 L 204.0 139.0 L 205.0 139.0 L 206.0 138.0 L 207.0 138.0 L 209.0 137.0 L 209.0 137.0 L 210.0 137.0 " stroke="black" fill="none" stroke-width="5.0" stroke-linecap="round" stroke-linejoin="round" />
<path d="M 202.0 120.0 L 202.0 120.0 L 201.0 120.0 L 201.0 120.0 L 200.0 120.0 L 200.0 120.0 L 200.0 120.0 L 200.0 120.0 L 200.0 120.0 L 200.0 120.0 L 200.0 120.0 L 200.0 120.0 L 201.0 120.0 L 202.0 122.0 L 203.0 123.0 L 204.0 125.0 L 206.0 127.0 L 207.0 129.0 L 210.0 131.0 L 212.0 134.0 L 215.0 138.0 L 218.0 142.0 L 221.0 145.0 L 223.0 149.0 L 225.0 152.0 L 227.0 155.0 L 229.0 157.0 L 230.0 160.0 L 231.0 161.0 L 231.0 162.0 L 232.0 163.0 " stroke="black" fill="none" stroke-width="5.0" stroke-linecap="round" stroke-linejoin="round" />
<path d="M 137.0 168.0 L 137.0 168.0 L 137.0 168.0 L 137.0 168.0 L 137.0 168.0 L 137.0 167.0 L 137.0 167.0 L 137.0 167.0 L 137.0 167.0 L 137.0 167.0 L 137.0 167.0 L 137.0 168.0 L 137.0 169.0 L 138.0 170.0 L 138.0 171.0 L 138.0 173.0 L 138.0 175.0 L 139.0 177.0 L 139.0 180.0 L 139.0 183.0 L 140.0 186.0 L 140.0 190.0 L 140.0 193.0 L 140.0 197.0 L 140.0 201.0 L 140.0 204.0 L 140.0 208.0 L 140.0 212.0 L 139.0 215.0 L 139.0 218.0 L 138.0 222.0 L 137.0 226.0 L 136.0 229.0 L 135.0 233.0 L 133.0 236.0 L 132.0 239.0 L 130.0 242.0 L 128.0 244.0 L 126.0 246.0 L 124.0 248.0 L 123.0 248.0 L 121.0 249.0 L 121.0 249.0 " stroke="black" fill="none" stroke-width="5.0" stroke-linecap="round" stroke-linejoin="round" />
<path d="M 176.0 167.0 L 176.0 167.0 L 175.0 167.0 L 175.0 168.0 L 174.0 168.0 L 174.0 169.0 L 174.0 170.0 L 174.0 172.0 L 174.0 174.0 L 174.0 177.0 L 175.0 180.0 L 175.0 185.0 L 176.0 190.0 L 176.0 196.0 L 176.0 202.0 L 176.0 208.0 L 175.0 215.0 L 174.0 221.0 L 173.0 227.0 L 172.0 233.0 L 172.0 237.0 L 172.0 239.0 L 172.0 240.0 L 173.0 240.0 " stroke="black" fill="none" stroke-width="5.0" stroke-linecap="round" stroke-linejoin="round" />
<path d="M 206.0 173.0 L 206.0 173.0 L 206.0 173.0 L 206.0 173.0 L 206.0 173.0 L 206.0 172.0 L 206.0 172.0 L 206.0 172.0 L 206.0 172.0 L 206.0 172.0 L 206.0 172.0 L 206.0 173.0 L 206.0 175.0 L 206.0 177.0 L 206.0 180.0 L 206.0 183.0 L 207.0 187.0 L 207.0 190.0 L 207.0 194.0 L 207.0 198.0 L 207.0 201.0 L 207.0 205.0 L 207.0 209.0 L 207.0 212.0 L 207.0 215.0 L 207.0 219.0 L 207.0 223.0 L 207.0 227.0 L 206.0 231.0 L 206.0 234.0 L 206.0 237.0 L 206.0 239.0 L 206.0 240.0 L 206.0 241.0 L 206.0 242.0 L 206.0 243.0 L 207.0 243.0 L 207.0 244.0 L 207.0 244.0 L 208.0 245.0 L 208.0 245.0 L 209.0 246.0 L 209.0 246.0 L 210.0 247.0 L 210.0 247.0 L 211.0 248.0 L 212.0 248.0 L 213.0 248.0 L 215.0 249.0 L 216.0 249.0 L 218.0 249.0 L 220.0 250.0 L 222.0 250.0 L 224.0 250.0 L 227.0 250.0 L 229.0 250.0 L 231.0 250.0 L 233.0 250.0 L 235.0 250.0 L 237.0 250.0 L 238.0 250.0 L 239.0 250.0 L 240.0 250.0 L 241.0 250.0 L 242.0 250.0 L 242.0 250.0 L 243.0 250.0 L 243.0 250.0 L 243.0 250.0 " stroke="black" fill="none" stroke-width="5.0" stroke-linecap="round" stroke-linejoin="round" />
</svg>