<svg xmlns="http://www.w3.org/2000/svg" width="300" height="300" viewBox="0 0 300 300">
<path d="M 70.0 77.0 L 70.0 77.0 L 71.0 77.0 L 71.0 77.0 L 71.0 77.0 L 71.0 76.0 L 71.0 76.0 L 72.0 76.0 L 72.0 76.0 L 72.0 76.0 L 72.0 76.0 L 72.0 76.0 L 72.0 76.0 L 72.0 76.0 L 72.0 77.0 L 72.0 78.0 L 72.0 79.0 L 72.0 80.0 L 72.0 82.0 L 72.0 85.0 L 72.0 87.0 L 71.0 90.0 L 71.0 93.0 L 71.0 97.0 L 71.0 101.0 L 70.0 104.0 L 70.0 108.0 L 70.0 112.0 L 70.0 115.0 L 70.0 119.0 L 70.0 122.0 L 70.0 125.0 L 70.0 128.0 L 70.0 132.0 L 70.0 135.0 L 70.0 138.0 L 70.0 142.0 L 70.0 145.0 L 69.0 149.0 L 69.0 152.0 L 69.0 155.0 L 69.0 157.0 L 69.0 160.0 L 69.0 162.0 L 69.0 165.0 L 69.0 168.0 L 69.0 170.0 L 69.0 173.0 L 69.0 176.0 L 69.0 178.0 L 69.0 181.0 L 69.0 184.0 L 69.0 186.0 L 69.0 189.0 L 69.0 192.0 L 69.0 194.0 L 69.0 197.0 L 69.0 199.0 L 69.0 202.0 L 69.0 204.0 L 69.0 207.0 L 69.0 209.0 L 69.0 212.0 L 70.0 215.0 L 70.0 218.0 L 70.0 221.0 L 70.0 225.0 L 70.0 229.0 L 70.0 232.0 L 70.0 236.0 L 70.0 239.0 L 70.0 242.0 L 70.0 244.0 L 70.0 246.0 L 70.0 247.0 L 70.0 247.0 L 70.0 247.0 " stroke="black" fill="none" stroke-width="5.0" stroke-linecap="round" stroke-linejoin="round" />
<path d="M 77.0 79.0 L 77.0 79.0 L 76.0 79.0 L 76.0 79.0 L 75.0 79.0 L 74.0 79.0 L 74.0 79.0 L 73.0 79.0 L 73.0 79.0 L 73.0 78.0 L 73.0 78.0 L 73.0 78.0 L 73.0 78.0 L 73.0 78.0 L 73.0 78.0 L 73.0 78.0 L 74.0 78.0 L 74.0 78.0 L 75.0 78.0 L 76.0 78.0 L 76.0 78.0 L 77.0 78.0 L 78.0 78.0 L 79.0 78.0 L 81.0 78.0 L 82.0 78.0 L 83.0 78.0 L 85.0 78.0 L 87.0 78.0 L 89.0 78.0 L 90.0 78.0 L 92.0 78.0 L 94.0 78.0 L 96.0 78.0 L 97.0 78.0 L 99.0 78.0 L 100.0 78.0 L 102.0 78.0 L 103.0 79.0 L 105.0 79.0 L 106.0 79.0 L 107.0 79.0 L 108.0 79.0 L 109.0 79.0 L 110.0 79.0 L 112.0 79.0 L 113.0 79.0 L 114.0 79.0 L 115.0 79.0 L 117.0 80.0 L 118.0 80.0 L 119.0 80.0 L 121.0 80.0 L 123.0 81.0 L 124.0 81.0 L 126.0 81.0 L 127.0 81.0 L 129.0 81.0 L 130.0 81.0 L 131.0 82.0 L 132.0 82.0 L 133.0 82.0 L 133.0 82.0 L 134.0 83.0 L 134.0 83.0 L 134.0 83.0 L 134.0 84.0 L 134.0 84.0 L 134.0 85.0 L 134.0 86.0 L 134.0 87.0 L 134.0 87.0 L 134.0 89.0 L 134.0 91.0 L 134.0 93.0 L 134.0 96.0 L 134.0 99.0 L 134.0 103.0 L 134.0 107.0 L 133.0 112.0 L 133.0 117.0 L 133.0 121.0 L 133.0 126.0 L 132.0 130.0 L 132.0 133.0 L 132.0 136.0 L 131.0 137.0 L 131.0 137.0 L 130.0 136.0 " stroke="black" fill="none" stroke-width="5.0" stroke-linecap="round" stroke-linejoin="round" />
<path d="M 77.0 105.0 L 77.0 105.0 L 76.0 105.0 L 76.0 105.0 L 76.0 105.0 L 75.0 105.0 L 75.0 105.0 L 75.0 105.0 L 75.0 105.0 L 76.0 105.0 L 79.0 105.0 L 82.0 105.0 L 87.0 105.0 L 92.0 104.0 L 97.0 104.0 L 103.0 104.0 L 108.0 104.0 L 113.0 103.0 L 118.0 103.0 L 123.0 103.0 L 126.0 103.0 L 129.0 103.0 " stroke="black" fill="none" stroke-width="5.0" stroke-linecap="round" stroke-linejoin="round" />
<path d="M 73.0 135.0 L 73.0 135.0 L 73.0 135.0 L 73.0 135.0 L 72.0 135.0 L 72.0 135.0 L 72.0 135.0 L 74.0 135.0 L 76.0 134.0 L 80.0 134.0 L 85.0 134.0 L 91.0 134.0 L 97.0 134.0 L 103.0 133.0 L 109.0 133.0 L 116.0 132.0 L 118.0 131.0 " stroke="black" fill="none" stroke-width="5.0" stroke-linecap="round" stroke-linejoin="round" />
<path d="M 162.0 84.0 L 162.0 84.0 L 162.0 84.0 L 162.0 84.0 L 162.0 85.0 L 162.0 85.0 L 162.0 87.0 L 163.0 90.0 L 163.0 94.0 L 164.0 100.0 L 164.0 106.0 L 164.0 112.0 L 164.0 117.0 L 164.0 121.0 L 164.0 124.0 L 164.0 126.0 L 164.0 126.0 " stroke="black" fill="none" stroke-width="5.0" stroke-linecap="round" stroke-linejoin="round" />
<path d="M 164.0 82.0 L 163.0 82.0 L 162.0 82.0 L 162.0 82.0 L 161.0 82.0 L 161.0 82.0 L 160.0 82.0 L 160.0 82.0 L 160.0 82.0 L 160.0 82.0 L 160.0 82.0 L 160.0 82.0 L 160.0 82.0 L 160.0 82.0 L 161.0 82.0 L 161.0 82.0 L 162.0 82.0 L 163.0 82.0 L 164.0 82.0 L 166.0 82.0 L 168.0 82.0 L 169.0 82.0 L 171.0 82.0 L 173.0 82.0 L 175.0 82.0 L 176.0 82.0 L 178.0 82.0 L 180.0 82.0 L 182.0 82.0 L 183.0 81.0 L 185.0 81.0 L 186.0 81.0 L 188.0 81.0 L 189.0 81.0 L 190.0 81.0 L 191.0 81.0 L 193.0 81.0 L 194.0 81.0 L 195.0 81.0 L 196.0 81.0 L 197.0 81.0 L 198.0 81.0 L 199.0 81.0 L 200.0 81.0 L 202.0 81.0 L 203.0 81.0 L 204.0 81.0 L 206.0 81.0 L 207.0 81.0 L 209.0 81.0 L 211.0 81.0 L 212.0 81.0 L 214.0 81.0 L 216.0 81.0 L 217.0 81.0 L 218.0 81.0 L 220.0 81.0 L 221.0 81.0 L 222.0 81.0 L 224.0 82.0 L 225.0 82.0 L 226.0 82.0 L 227.0 82.0 L 228.0 82.0 L 229.0 82.0 L 230.0 82.0 L 230.0 82.0 L 231.0 83.0 L 232.0 83.0 L 232.0 83.0 L 232.0 83.0 L 233.0 83.0 L 233.0 84.0 L 233.0 84.0 L 233.0 84.0 L 233.0 85.0 L 233.0 85.0 L 233.0 86.0 L 233.0 87.0 L 233.0 88.0 L 233.0 89.0 L 233.0 90.0 L 233.0 92.0 L 233.0 94.0 L 233.0 96.0 L 233.0 99.0 L 233.0 102.0 L 233.0 105.0 L 233.0 108.0 L 233.0 111.0 L 233.0 114.0 L 233.0 117.0 L 233.0 120.0 L 233.0 122.0 L 233.0 125.0 L 233.0 128.0 L 233.0 130.0 L 233.0 133.0 L 233.0 136.0 L 233.0 139.0 L 233.0 143.0 L 233.0 146.0 L 233.0 150.0 L 233.0 153.0 L 233.0 157.0 L 233.0 159.0 L 233.0 162.0 L 233.0 164.0 L 233.0 167.0 L 233.0 169.0 L 233.0 171.0 L 233.0 173.0 L 233.0 176.0 L 233.0 178.0 L 233.0 181.0 L 233.0 184.0 L 233.0 188.0 L 233.0 191.0 L 233.0 194.0 L 233.0 197.0 L 233.0 200.0 L 233.0 202.0 L 233.0 205.0 L 233.0 207.0 L 233.0 209.0 L 233.0 211.0 L 233.0 213.0 L 233.0 215.0 L 232.0 217.0 L 232.0 219.0 L 232.0 221.0 L 232.0 224.0 L 232.0 226.0 L 232.0 229.0 L 232.0 231.0 L 232.0 233.0 L 232.0 235.0 L 232.0 237.0 L 231.0 239.0 L 231.0 241.0 L 231.0 243.0 L 231.0 245.0 L 230.0 246.0 L 230.0 248.0 L 230.0 250.0 L 230.0 251.0 L 229.0 252.0 L 229.0 253.0 L 229.0 254.0 L 228.0 255.0 L 228.0 255.0 L 227.0 255.0 L 227.0 255.0 L 226.0 255.0 L 225.0 255.0 L 224.0 254.0 L 223.0 254.0 L 222.0 253.0 L 220.0 252.0 L 219.0 251.0 L 217.0 249.0 L 214.0 247.0 L 211.0 244.0 " stroke="black" fill="none" stroke-width="5.0" stroke-linecap="round" stroke-linejoin="round" />
<path d="M 171.0 109.0 L 171.0 109.0 L 171.0 109.0 L 170.0 109.0 L 170.0 109.0 L 170.0 108.0 L 169.0 108.0 L 169.0 108.0 L 169.0 108.0 L 169.0 107.0 L 170.0 107.0 L 172.0 107.0 L 174.0 107.0 L 176.0 108.0 L 179.0 108.0 L 183.0 108.0 L 187.0 108.0 L 191.0 109.0 L 195.0 109.0 L 200.0 109.0 L 206.0 109.0 L 211.0 110.0 L 217.0 110.0 L 222.0 110.0 L 226.0 110.0 L 230.0 110.0 L 232.0 110.0 L 233.0 110.0 " stroke="black" fill="none" stroke-width="5.0" stroke-linecap="round" stroke-linejoin="round" />
<path d="M 165.0 136.0 L 165.0 136.0 L 165.0 136.0 L 164.0 136.0 L 164.0 136.0 L 164.0 136.0 L 164.0 136.0 L 164.0 136.0 L 165.0 136.0 L 168.0 136.0 L 172.0 136.0 L 177.0 136.0 L 183.0 136.0 L 189.0 136.0 L 196.0 135.0 L 202.0 134.0 L 209.0 134.0 L 215.0 133.0 L 220.0 133.0 " stroke="black" fill="none" stroke-width="5.0" stroke-linecap="round" stroke-linejoin="round" />
<path d="M 101.0 169.0 L 101.0 169.0 L 100.0 169.0 L 100.0 169.0 L 100.0 169.0 L 99.0 169.0 L 99.0 169.0 L 99.0 169.0 L 99.0 169.0 L 98.0 169.0 L 98.0 169.0 L 98.0 169.0 L 98.0 169.0 L 98.0 169.0 L 98.0 170.0 L 98.0 170.0 L 99.0 170.0 L 99.0 170.0 L 100.0 170.0 L 100.0 170.0 L 101.0 171.0 L 101.0 171.0 L 102.0 171.0 L 103.0 171.0 L 103.0 171.0 L 104.0 171.0 L 105.0 172.0 L 105.0 172.0 L 106.0 172.0 L 107.0 172.0 L 107.0 172.0 L 108.0 172.0 L 109.0 172.0 L 110.0 172.0 L 111.0 173.0 L 112.0 173.0 L 113.0 173.0 L 114.0 173.0 L 116.0 173.0 L 117.0 173.0 L 119.0 173.0 L 122.0 173.0 L 124.0 173.0 L 127.0 173.0 L 130.0 173.0 L 133.0 173.0 L 136.0 173.0 L 140.0 173.0 L 143.0 172.0 L 146.0 172.0 L 150.0 172.0 L 152.0 172.0 L 155.0 172.0 L 159.0 172.0 L 162.0 172.0 L 166.0 171.0 L 170.0 171.0 L 174.0 170.0 L 178.0 170.0 L 182.0 170.0 L 186.0 169.0 L 189.0 169.0 L 191.0 168.0 L 193.0 168.0 L 194.0 168.0 L 195.0 168.0 L 195.0 168.0 L 195.0 168.0 " stroke="black" fill="none" stroke-width="5.0" stroke-linecap="round" stroke-linejoin="round" />
<path d="M 148.0 152.0 L 148.0 152.0 L 148.0 154.0 L 148.0 155.0 L 148.0 157.0 L 148.0 159.0 L 148.0 162.0 L 148.0 165.0 L 148.0 168.0 L 148.0 173.0 L 148.0 179.0 L 148.0 185.0 L 148.0 193.0 L 148.0 200.0 L 147.0 207.0 L 146.0 217.0 L 146.0 225.0 L 145.0 234.0 L 145.0 240.0 L 144.0 243.0 L 144.0 245.0 " stroke="black" fill="none" stroke-width="5.0" stroke-linecap="round" stroke-linejoin="round" />
<path d="M 146.0 172.0 L 146.0 172.0 L 146.0 172.0 L 146.0 172.0 L 146.0 171.0 L 146.0 171.0 L 145.0 171.0 L 145.0 171.0 L 144.0 172.0 L 143.0 174.0 L 142.0 176.0 L 141.0 179.0 L 139.0 182.0 L 137.0 187.0 L 134.0 191.0 L 130.0 196.0 L 125.0 201.0 L 120.0 206.0 L 115.0 211.0 L 109.0 215.0 L 105.0 220.0 L 101.0 225.0 L 96.0 230.0 L 94.0 232.0 " stroke="black" fill="none" stroke-width="5.0" stroke-linecap="round" stroke-linejoin="round" />
<path d="M 149.0 184.0 L 149.0 184.0 L 148.0 184.0 L 148.0 184.0 L 147.0 184.0 L 147.0 184.0 L 147.0 184.0 L 147.0 184.0 L 147.0 184.0 L 147.0 184.0 L 148.0 184.0 L 149.0 185.0 L 151.0 187.0 L 153.0 189.0 L 156.0 192.0 L 159.0 195.0 L 163.0 198.0 L 168.0 202.0 L 174.0 206.0 L 179.0 210.0 L 184.0 213.0 L 188.0 216.0 L 191.0 219.0 L 193.0 221.0 L 194.0 223.0 L 196.0 225.0 L 196.0 226.0 " stroke="black" fill="none" stroke-width="5.0" stroke-linecap="round" stroke-linejoin="round" />
</svg>