<svg xmlns="http://www.w3.org/2000/svg" width="300" height="300" viewBox="0 0 300 300">
<path d="M 163.0 64.0 L 163.0 64.0 L 163.0 64.0 L 163.0 64.0 L 162.0 64.0 L 162.0 64.0 L 161.0 64.0 L 160.0 65.0 L 159.0 66.0 L 158.0 67.0 L 157.0 69.0 L 155.0 71.0 L 154.0 73.0 L 152.0 76.0 L 150.0 79.0 L 147.0 83.0 L 143.0 87.0 L 138.0 93.0 L 130.0 100.0 L 122.0 108.0 L 114.0 115.0 L 107.0 121.0 L 100.0 128.0 L 92.0 135.0 L 82.0 142.0 L 71.0 147.0 " stroke="black" fill="none" stroke-width="5.0" stroke-linecap="round" stroke-linejoin="round" />
<path d="M 153.0 84.0 L 153.0 84.0 L 152.0 83.0 L 151.0 83.0 L 150.0 83.0 L 149.0 83.0 L 149.0 83.0 L 149.0 83.0 L 149.0 83.0 L 149.0 83.0 L 149.0 84.0 L 150.0 85.0 L 152.0 86.0 L 155.0 88.0 L 159.0 90.0 L 165.0 92.0 L 172.0 95.0 L 181.0 99.0 L 189.0 103.0 L 197.0 106.0 L 204.0 110.0 L 211.0 113.0 L 217.0 115.0 L 224.0 118.0 L 228.0 122.0 L 231.0 125.0 L 233.0 130.0 L 234.0 134.0 L 234.0 136.0 " stroke="black" fill="none" stroke-width="5.0" stroke-linecap="round" stroke-linejoin="round" />
<path d="M 110.0 138.0 L 110.0 138.0 L 108.0 138.0 L 107.0 138.0 L 106.0 138.0 L 105.0 138.0 L 105.0 138.0 L 105.0 138.0 L 105.0 138.0 L 106.0 138.0 L 108.0 138.0 L 112.0 138.0 L 117.0 139.0 L 124.0 139.0 L 133.0 140.0 L 142.0 140.0 L 150.0 140.0 L 158.0 140.0 L 167.0 141.0 L 175.0 141.0 L 184.0 141.0 L 188.0 140.0 " stroke="black" fill="none" stroke-width="5.0" stroke-linecap="round" stroke-linejoin="round" />
<path d="M 82.0 175.0 L 81.0 175.0 L 80.0 175.0 L 80.0 175.0 L 79.0 175.0 L 79.0 175.0 L 81.0 176.0 L 84.0 176.0 L 89.0 177.0 L 95.0 177.0 L 102.0 177.0 L 109.0 177.0 L 118.0 177.0 L 132.0 175.0 L 145.0 174.0 L 157.0 173.0 L 169.0 173.0 L 180.0 173.0 L 189.0 173.0 L 197.0 173.0 L 202.0 173.0 L 206.0 173.0 L 211.0 173.0 L 216.0 173.0 L 219.0 173.0 L 221.0 173.0 " stroke="black" fill="none" stroke-width="5.0" stroke-linecap="round" stroke-linejoin="round" />
<path d="M 147.0 151.0 L 147.0 151.0 L 147.0 151.0 L 146.0 151.0 L 146.0 151.0 L 146.0 152.0 L 146.0 153.0 L 146.0 156.0 L 146.0 159.0 L 146.0 165.0 L 146.0 172.0 L 146.0 182.0 L 146.0 194.0 L 146.0 205.0 L 145.0 217.0 L 144.0 230.0 L 144.0 239.0 L 144.0 244.0 L 144.0 247.0 L 145.0 247.0 " stroke="black" fill="none" stroke-width="5.0" stroke-linecap="round" stroke-linejoin="round" />
<path d="M 96.0 201.0 L 96.0 201.0 L 95.0 200.0 L 95.0 199.0 L 95.0 199.0 L 95.0 199.0 L 96.0 199.0 L 98.0 200.0 L 100.0 201.0 L 103.0 204.0 L 107.0 206.0 L 110.0 209.0 L 115.0 212.0 L 120.0 215.0 L 127.0 218.0 " stroke="black" fill="none" stroke-width="5.0" stroke-linecap="round" stroke-linejoin="round" />
<path d="M 209.0 191.0 L 210.0 191.0 L 211.0 189.0 L 212.0 189.0 L 212.0 189.0 L 212.0 189.0 L 210.0 189.0 L 208.0 191.0 L 205.0 193.0 L 202.0 197.0 L 198.0 201.0 L 195.0 205.0 L 191.0 211.0 L 186.0 217.0 L 180.0 225.0 " stroke="black" fill="none" stroke-width="5.0" stroke-linecap="round" stroke-linejoin="round" />
<path d="M 70.0 242.0 L 70.0 242.0 L 71.0 242.0 L 73.0 242.0 L 75.0 242.0 L 79.0 242.0 L 84.0 242.0 L 91.0 242.0 L 98.0 242.0 L 107.0 242.0 L 115.0 243.0 L 125.0 243.0 L 138.0 244.0 L 149.0 244.0 L 159.0 245.0 L 172.0 245.0 L 185.0 245.0 L 196.0 245.0 L 206.0 245.0 L 215.0 245.0 L 224.0 245.0 L 232.0 245.0 L 236.0 246.0 L 238.0 248.0 L 239.0 250.0 L 239.0 252.0 " stroke="black" fill="none" stroke-width="5.0" stroke-linecap="round" stroke-linejoin="round" />
</svg>