<svg xmlns="http://www.w3.org/2000/svg" width="300" height="300" viewBox="0 0 300 300">
<path d="M 156.0 72.0 L 156.0 72.0 L 156.0 71.0 L 156.0 71.0 L 156.0 70.0 L 156.0 70.0 L 156.0 70.0 L 156.0 70.0 L 156.0 70.0 L 156.0 70.0 L 156.0 70.0 L 155.0 70.0 L 155.0 72.0 L 155.0 73.0 L 154.0 75.0 L 152.0 78.0 L 151.0 81.0 L 148.0 85.0 L 145.0 89.0 L 141.0 95.0 L 135.0 100.0 L 127.0 106.0 L 119.0 111.0 L 112.0 115.0 L 107.0 119.0 L 102.0 122.0 L 97.0 125.0 L 92.0 128.0 L 87.0 131.0 L 81.0 134.0 L 76.0 136.0 " stroke="black" fill="none" stroke-width="5.0" stroke-linecap="round" stroke-linejoin="round" />
<path d="M 153.0 86.0 L 153.0 86.0 L 153.0 86.0 L 153.0 85.0 L 152.0 85.0 L 152.0 85.0 L 152.0 85.0 L 152.0 85.0 L 152.0 85.0 L 152.0 85.0 L 152.0 85.0 L 154.0 87.0 L 157.0 88.0 L 161.0 91.0 L 166.0 94.0 L 173.0 97.0 L 180.0 101.0 L 187.0 105.0 L 194.0 109.0 L 200.0 112.0 L 206.0 115.0 L 211.0 117.0 L 215.0 118.0 L 218.0 119.0 L 221.0 120.0 L 223.0 121.0 L 227.0 122.0 L 231.0 124.0 L 233.0 126.0 L 234.0 128.0 L 235.0 131.0 L 235.0 132.0 " stroke="black" fill="none" stroke-width="5.0" stroke-linecap="round" stroke-linejoin="round" />
<path d="M 112.0 136.0 L 111.0 136.0 L 111.0 136.0 L 111.0 135.0 L 110.0 135.0 L 110.0 134.0 L 110.0 134.0 L 110.0 133.0 L 110.0 133.0 L 112.0 132.0 L 114.0 132.0 L 117.0 132.0 L 122.0 132.0 L 128.0 132.0 L 135.0 133.0 L 143.0 134.0 L 151.0 134.0 L 158.0 135.0 L 166.0 136.0 L 175.0 136.0 L 182.0 137.0 L 188.0 137.0 L 193.0 138.0 L 196.0 139.0 L 197.0 140.0 L 198.0 140.0 " stroke="black" fill="none" stroke-width="5.0" stroke-linecap="round" stroke-linejoin="round" />
<path d="M 92.0 178.0 L 92.0 178.0 L 91.0 178.0 L 91.0 178.0 L 90.0 178.0 L 90.0 178.0 L 90.0 178.0 L 90.0 178.0 L 90.0 177.0 L 91.0 177.0 L 93.0 177.0 L 96.0 177.0 L 99.0 177.0 L 102.0 177.0 L 106.0 177.0 L 110.0 177.0 L 115.0 177.0 L 121.0 177.0 L 129.0 177.0 L 137.0 177.0 L 144.0 177.0 L 152.0 177.0 L 158.0 177.0 L 165.0 177.0 L 174.0 177.0 L 181.0 176.0 L 187.0 176.0 L 193.0 175.0 L 197.0 175.0 L 200.0 175.0 L 202.0 175.0 L 205.0 175.0 L 207.0 175.0 L 209.0 176.0 L 210.0 177.0 L 211.0 178.0 L 212.0 179.0 " stroke="black" fill="none" stroke-width="5.0" stroke-linecap="round" stroke-linejoin="round" />
<path d="M 148.0 137.0 L 148.0 137.0 L 148.0 137.0 L 148.0 137.0 L 148.0 138.0 L 148.0 140.0 L 148.0 143.0 L 148.0 146.0 L 148.0 152.0 L 148.0 158.0 L 148.0 165.0 L 148.0 174.0 L 149.0 183.0 L 149.0 193.0 L 150.0 203.0 L 150.0 212.0 L 150.0 221.0 L 150.0 228.0 L 150.0 233.0 L 150.0 237.0 L 150.0 239.0 L 150.0 240.0 L 150.0 240.0 " stroke="black" fill="none" stroke-width="5.0" stroke-linecap="round" stroke-linejoin="round" />
<path d="M 97.0 203.0 L 97.0 203.0 L 96.0 203.0 L 96.0 203.0 L 95.0 203.0 L 95.0 202.0 L 95.0 202.0 L 96.0 203.0 L 98.0 204.0 L 100.0 205.0 L 103.0 207.0 L 106.0 210.0 L 108.0 212.0 L 112.0 215.0 L 115.0 218.0 L 119.0 222.0 L 121.0 223.0 " stroke="black" fill="none" stroke-width="5.0" stroke-linecap="round" stroke-linejoin="round" />
<path d="M 203.0 193.0 L 203.0 192.0 L 204.0 191.0 L 204.0 190.0 L 205.0 190.0 L 205.0 190.0 L 204.0 190.0 L 203.0 190.0 L 202.0 191.0 L 200.0 193.0 L 198.0 196.0 L 195.0 199.0 L 193.0 203.0 L 191.0 207.0 L 188.0 211.0 L 185.0 216.0 " stroke="black" fill="none" stroke-width="5.0" stroke-linecap="round" stroke-linejoin="round" />
<path d="M 76.0 241.0 L 76.0 241.0 L 75.0 241.0 L 74.0 241.0 L 74.0 240.0 L 74.0 240.0 L 74.0 240.0 L 74.0 240.0 L 75.0 240.0 L 78.0 240.0 L 82.0 240.0 L 87.0 240.0 L 93.0 240.0 L 99.0 239.0 L 106.0 239.0 L 113.0 239.0 L 121.0 239.0 L 130.0 239.0 L 140.0 240.0 L 149.0 240.0 L 156.0 241.0 L 163.0 241.0 L 170.0 241.0 L 178.0 242.0 L 184.0 242.0 L 190.0 243.0 L 194.0 244.0 L 197.0 244.0 L 201.0 245.0 L 204.0 245.0 L 208.0 245.0 L 213.0 245.0 L 217.0 245.0 L 222.0 245.0 L 225.0 245.0 L 228.0 245.0 L 230.0 245.0 " stroke="black" fill="none" stroke-width="5.0" stroke-linecap="round" stroke-linejoin="round" />
</svg>