<svg xmlns="http://www.w3.org/2000/svg" width="300" height="300" viewBox="0 0 300 300">
<path d="M 153.0 69.0 L 153.0 69.0 L 153.0 69.0 L 153.0 69.0 L 153.0 69.0 L 153.0 69.0 L 153.0 69.0 L 152.0 69.0 L 152.0 70.0 L 151.0 72.0 L 150.0 73.0 L 149.0 75.0 L 147.0 77.0 L 145.0 80.0 L 143.0 83.0 L 139.0 87.0 L 133.0 91.0 L 126.0 97.0 L 118.0 104.0 L 111.0 110.0 L 104.0 116.0 L 98.0 121.0 L 92.0 125.0 L 84.0 129.0 L 78.0 131.0 L 72.0 132.0 " stroke="black" fill="none" stroke-width="5.0" stroke-linecap="round" stroke-linejoin="round" />
<path d="M 149.0 86.0 L 149.0 86.0 L 149.0 86.0 L 149.0 86.0 L 149.0 86.0 L 149.0 86.0 L 149.0 86.0 L 149.0 86.0 L 149.0 86.0 L 149.0 86.0 L 149.0 86.0 L 149.0 86.0 L 149.0 86.0 L 149.0 86.0 L 149.0 86.0 L 149.0 86.0 L 149.0 86.0 L 149.0 86.0 L 149.0 86.0 L 149.0 86.0 L 150.0 86.0 L 150.0 86.0 L 150.0 87.0 L 151.0 87.0 L 151.0 87.0 L 152.0 88.0 L 152.0 89.0 L 153.0 89.0 L 153.0 90.0 L 154.0 91.0 L 155.0 91.0 L 156.0 92.0 L 156.0 93.0 L 157.0 94.0 L 158.0 95.0 L 159.0 95.0 L 160.0 96.0 L 161.0 97.0 L 162.0 97.0 L 163.0 98.0 L 164.0 98.0 L 164.0 99.0 L 165.0 100.0 L 166.0 100.0 L 167.0 101.0 L 167.0 102.0 L 168.0 102.0 L 169.0 103.0 L 170.0 103.0 L 171.0 104.0 L 172.0 104.0 L 173.0 105.0 L 173.0 105.0 L 174.0 106.0 L 175.0 106.0 L 176.0 107.0 L 177.0 107.0 L 178.0 108.0 L 179.0 108.0 L 180.0 108.0 L 181.0 109.0 L 182.0 109.0 L 183.0 109.0 L 184.0 110.0 L 185.0 110.0 L 185.0 111.0 L 186.0 111.0 L 187.0 111.0 L 188.0 112.0 L 189.0 112.0 L 190.0 113.0 L 190.0 113.0 L 191.0 113.0 L 192.0 114.0 L 192.0 114.0 L 193.0 114.0 L 194.0 115.0 L 194.0 115.0 L 195.0 115.0 L 195.0 116.0 L 196.0 116.0 L 197.0 116.0 L 197.0 117.0 L 198.0 117.0 L 199.0 117.0 L 200.0 118.0 L 201.0 118.0 L 202.0 118.0 L 203.0 119.0 L 204.0 119.0 L 206.0 119.0 L 207.0 120.0 L 209.0 120.0 L 210.0 121.0 L 212.0 121.0 L 213.0 122.0 L 215.0 122.0 L 217.0 123.0 L 218.0 123.0 L 220.0 124.0 L 222.0 124.0 L 224.0 125.0 L 226.0 126.0 L 227.0 126.0 L 229.0 127.0 L 231.0 128.0 L 233.0 128.0 L 235.0 129.0 L 236.0 129.0 L 238.0 130.0 L 239.0 130.0 L 241.0 130.0 L 243.0 130.0 L 244.0 130.0 L 245.0 131.0 L 246.0 131.0 L 247.0 131.0 L 247.0 132.0 " stroke="black" fill="none" stroke-width="5.0" stroke-linecap="round" stroke-linejoin="round" />
<path d="M 107.0 139.0 L 107.0 139.0 L 107.0 140.0 L 107.0 140.0 L 107.0 140.0 L 107.0 141.0 L 107.0 141.0 L 107.0 141.0 L 107.0 141.0 L 107.0 141.0 L 107.0 141.0 L 107.0 141.0 L 107.0 141.0 L 107.0 140.0 L 107.0 140.0 L 107.0 140.0 L 106.0 139.0 L 106.0 139.0 L 106.0 139.0 L 106.0 139.0 L 106.0 139.0 L 106.0 138.0 L 106.0 138.0 L 106.0 138.0 L 106.0 138.0 L 106.0 137.0 L 106.0 137.0 L 106.0 137.0 L 107.0 137.0 L 107.0 137.0 L 108.0 137.0 L 109.0 137.0 L 111.0 137.0 L 113.0 137.0 L 115.0 137.0 L 119.0 137.0 L 123.0 137.0 L 129.0 137.0 L 134.0 137.0 L 140.0 137.0 L 146.0 137.0 L 150.0 136.0 L 154.0 136.0 L 158.0 135.0 L 162.0 135.0 L 166.0 135.0 L 170.0 135.0 L 173.0 135.0 L 175.0 135.0 L 178.0 135.0 L 180.0 136.0 L 181.0 137.0 L 183.0 137.0 " stroke="black" fill="none" stroke-width="5.0" stroke-linecap="round" stroke-linejoin="round" />
<path d="M 76.0 179.0 L 76.0 179.0 L 78.0 179.0 L 78.0 179.0 L 79.0 179.0 L 79.0 179.0 L 80.0 179.0 L 80.0 179.0 L 80.0 179.0 L 81.0 179.0 L 82.0 179.0 L 82.0 178.0 L 83.0 178.0 L 84.0 178.0 L 85.0 177.0 L 87.0 177.0 L 88.0 177.0 L 89.0 176.0 L 91.0 176.0 L 92.0 176.0 L 94.0 176.0 L 95.0 176.0 L 96.0 176.0 L 98.0 176.0 L 99.0 176.0 L 100.0 176.0 L 102.0 176.0 L 103.0 176.0 L 104.0 176.0 L 105.0 176.0 L 106.0 176.0 L 107.0 176.0 L 107.0 176.0 L 108.0 176.0 L 109.0 176.0 L 110.0 176.0 L 110.0 176.0 L 111.0 176.0 L 112.0 177.0 L 113.0 177.0 L 114.0 177.0 L 114.0 177.0 L 115.0 177.0 L 116.0 178.0 L 117.0 178.0 L 118.0 178.0 L 119.0 178.0 L 120.0 178.0 L 121.0 178.0 L 123.0 178.0 L 124.0 178.0 L 125.0 178.0 L 127.0 178.0 L 129.0 178.0 L 131.0 178.0 L 133.0 178.0 L 135.0 178.0 L 137.0 178.0 L 139.0 178.0 L 141.0 178.0 L 143.0 178.0 L 145.0 178.0 L 146.0 177.0 L 148.0 177.0 L 150.0 177.0 L 151.0 177.0 L 153.0 177.0 L 154.0 177.0 L 156.0 177.0 L 157.0 177.0 L 158.0 177.0 L 160.0 177.0 L 161.0 177.0 L 163.0 177.0 L 164.0 177.0 L 166.0 177.0 L 168.0 177.0 L 171.0 177.0 L 173.0 177.0 L 175.0 177.0 L 178.0 177.0 L 180.0 176.0 L 182.0 176.0 L 184.0 176.0 L 186.0 176.0 L 188.0 176.0 L 190.0 176.0 L 191.0 176.0 L 193.0 176.0 L 194.0 176.0 L 195.0 176.0 L 196.0 176.0 L 198.0 176.0 L 199.0 176.0 L 200.0 176.0 L 202.0 176.0 L 203.0 176.0 L 205.0 176.0 L 207.0 176.0 L 209.0 176.0 L 211.0 176.0 L 213.0 176.0 L 215.0 176.0 L 217.0 176.0 L 219.0 176.0 L 221.0 176.0 L 223.0 176.0 L 224.0 176.0 L 226.0 176.0 L 228.0 176.0 L 229.0 175.0 L 230.0 175.0 L 231.0 174.0 " stroke="black" fill="none" stroke-width="5.0" stroke-linecap="round" stroke-linejoin="round" />
<path d="M 148.0 148.0 L 148.0 148.0 L 148.0 148.0 L 148.0 148.0 L 148.0 148.0 L 148.0 148.0 L 148.0 148.0 L 147.0 148.0 L 147.0 148.0 L 147.0 149.0 L 147.0 149.0 L 147.0 150.0 L 147.0 151.0 L 147.0 152.0 L 147.0 155.0 L 147.0 158.0 L 147.0 162.0 L 147.0 167.0 L 147.0 172.0 L 147.0 177.0 L 147.0 182.0 L 147.0 186.0 L 147.0 191.0 L 147.0 194.0 L 147.0 198.0 L 148.0 202.0 L 148.0 205.0 L 148.0 208.0 L 148.0 210.0 L 148.0 213.0 L 149.0 215.0 L 149.0 218.0 L 149.0 220.0 L 149.0 223.0 L 149.0 225.0 L 149.0 227.0 L 149.0 229.0 L 149.0 231.0 L 149.0 233.0 L 149.0 234.0 L 149.0 235.0 L 149.0 236.0 L 149.0 237.0 L 149.0 237.0 L 149.0 237.0 L 149.0 237.0 " stroke="black" fill="none" stroke-width="5.0" stroke-linecap="round" stroke-linejoin="round" />
<path d="M 102.0 204.0 L 102.0 204.0 L 102.0 203.0 L 102.0 202.0 L 103.0 202.0 L 103.0 201.0 L 103.0 201.0 L 103.0 201.0 L 103.0 201.0 L 104.0 202.0 L 104.0 203.0 L 105.0 206.0 L 106.0 209.0 L 107.0 213.0 L 108.0 217.0 L 110.0 221.0 L 112.0 226.0 L 113.0 228.0 " stroke="black" fill="none" stroke-width="5.0" stroke-linecap="round" stroke-linejoin="round" />
<path d="M 198.0 198.0 L 198.0 198.0 L 198.0 198.0 L 198.0 198.0 L 198.0 198.0 L 198.0 199.0 L 198.0 199.0 L 197.0 200.0 L 197.0 200.0 L 197.0 202.0 L 196.0 204.0 L 195.0 206.0 L 193.0 210.0 L 191.0 216.0 L 187.0 222.0 L 186.0 225.0 " stroke="black" fill="none" stroke-width="5.0" stroke-linecap="round" stroke-linejoin="round" />
<path d="M 71.0 243.0 L 71.0 243.0 L 72.0 243.0 L 72.0 243.0 L 72.0 243.0 L 72.0 243.0 L 72.0 243.0 L 72.0 243.0 L 72.0 243.0 L 72.0 243.0 L 72.0 243.0 L 72.0 243.0 L 73.0 243.0 L 73.0 243.0 L 74.0 243.0 L 75.0 243.0 L 76.0 243.0 L 76.0 244.0 L 77.0 244.0 L 78.0 244.0 L 79.0 244.0 L 80.0 244.0 L 81.0 244.0 L 83.0 244.0 L 84.0 244.0 L 85.0 244.0 L 87.0 244.0 L 89.0 244.0 L 90.0 244.0 L 91.0 244.0 L 93.0 244.0 L 94.0 244.0 L 95.0 244.0 L 96.0 244.0 L 97.0 244.0 L 98.0 244.0 L 99.0 244.0 L 100.0 244.0 L 101.0 244.0 L 102.0 244.0 L 103.0 244.0 L 104.0 244.0 L 105.0 244.0 L 106.0 244.0 L 107.0 245.0 L 108.0 245.0 L 108.0 245.0 L 109.0 245.0 L 110.0 245.0 L 111.0 245.0 L 112.0 245.0 L 114.0 245.0 L 114.0 245.0 L 116.0 245.0 L 117.0 245.0 L 118.0 245.0 L 119.0 245.0 L 120.0 245.0 L 122.0 245.0 L 123.0 245.0 L 125.0 245.0 L 127.0 245.0 L 129.0 245.0 L 131.0 244.0 L 133.0 244.0 L 134.0 244.0 L 136.0 244.0 L 138.0 244.0 L 139.0 244.0 L 141.0 244.0 L 143.0 244.0 L 144.0 244.0 L 146.0 244.0 L 147.0 244.0 L 149.0 244.0 L 150.0 244.0 L 151.0 244.0 L 152.0 244.0 L 153.0 244.0 L 154.0 244.0 L 155.0 244.0 L 156.0 244.0 L 157.0 244.0 L 158.0 244.0 L 160.0 244.0 L 161.0 244.0 L 162.0 244.0 L 164.0 244.0 L 165.0 244.0 L 167.0 244.0 L 168.0 244.0 L 169.0 244.0 L 171.0 244.0 L 173.0 244.0 L 174.0 244.0 L 175.0 244.0 L 177.0 244.0 L 178.0 244.0 L 179.0 244.0 L 180.0 244.0 L 180.0 244.0 L 181.0 244.0 L 182.0 243.0 L 184.0 243.0 L 185.0 243.0 L 186.0 243.0 L 188.0 243.0 L 189.0 243.0 L 191.0 242.0 L 192.0 242.0 L 193.0 242.0 L 194.0 242.0 L 195.0 242.0 L 196.0 242.0 L 197.0 242.0 L 198.0 242.0 L 199.0 242.0 L 200.0 242.0 L 201.0 242.0 L 202.0 242.0 L 204.0 242.0 L 205.0 242.0 L 207.0 242.0 L 209.0 242.0 L 211.0 243.0 L 213.0 243.0 L 215.0 243.0 L 217.0 244.0 L 219.0 244.0 L 221.0 244.0 L 223.0 244.0 L 225.0 244.0 L 227.0 244.0 L 229.0 244.0 L 231.0 244.0 L 232.0 244.0 L 233.0 244.0 L 234.0 244.0 L 234.0 244.0 " stroke="black" fill="none" stroke-width="5.0" stroke-linecap="round" stroke-linejoin="round" />
</svg>