<svg xmlns="http://www.w3.org/2000/svg" width="300" height="300" viewBox="0 0 300 300">
<path d="M 79.0 80.0 L 79.0 80.0 L 79.0 80.0 L 79.0 80.0 L 79.0 80.0 L 79.0 80.0 L 79.0 80.0 L 79.0 80.0 L 79.0 80.0 L 79.0 80.0 L 79.0 80.0 L 79.0 80.0 L 79.0 80.0 L 79.0 80.0 L 78.0 80.0 L 78.0 80.0 L 78.0 80.0 L 78.0 80.0 L 78.0 80.0 L 78.0 80.0 L 78.0 80.0 L 78.0 80.0 L 77.0 80.0 L 77.0 80.0 L 77.0 80.0 L 77.0 80.0 L 77.0 80.0 L 77.0 80.0 L 77.0 80.0 L 77.0 80.0 L 77.0 80.0 L 77.0 80.0 L 77.0 80.0 L 77.0 80.0 L 77.0 80.0 L 77.0 80.0 L 77.0 80.0 L 77.0 80.0 L 77.0 80.0 L 77.0 80.0 L 77.0 80.0 L 77.0 80.0 L 77.0 80.0 L 78.0 80.0 L 78.0 80.0 L 79.0 80.0 L 79.0 80.0 L 80.0 80.0 L 80.0 80.0 L 81.0 80.0 L 82.0 80.0 L 82.0 80.0 L 83.0 80.0 L 83.0 80.0 L 84.0 80.0 L 84.0 80.0 L 85.0 80.0 L 85.0 80.0 L 86.0 80.0 L 86.0 80.0 L 87.0 80.0 L 87.0 80.0 L 87.0 80.0 L 88.0 80.0 L 88.0 80.0 L 89.0 80.0 L 89.0 80.0 L 90.0 80.0 L 90.0 80.0 L 91.0 80.0 L 91.0 81.0 L 92.0 81.0 L 92.0 81.0 L 92.0 81.0 L 93.0 81.0 L 93.0 81.0 L 93.0 81.0 L 94.0 81.0 L 94.0 81.0 L 95.0 81.0 L 95.0 81.0 L 95.0 81.0 L 96.0 82.0 L 96.0 82.0 L 96.0 82.0 L 97.0 82.0 L 97.0 82.0 L 98.0 82.0 L 98.0 82.0 L 98.0 82.0 L 99.0 82.0 L 99.0 82.0 L 100.0 82.0 L 100.0 82.0 L 100.0 82.0 L 101.0 82.0 L 101.0 82.0 L 102.0 82.0 L 102.0 82.0 L 102.0 82.0 L 103.0 82.0 L 103.0 82.0 L 103.0 82.0 L 104.0 82.0 L 104.0 82.0 L 104.0 82.0 L 105.0 82.0 L 105.0 81.0 L 105.0 81.0 L 105.0 81.0 L 105.0 81.0 L 106.0 81.0 L 106.0 81.0 L 106.0 81.0 L 106.0 81.0 L 106.0 81.0 L 106.0 81.0 L 106.0 81.0 L 106.0 81.0 L 107.0 81.0 L 107.0 81.0 L 107.0 81.0 L 107.0 81.0 L 107.0 81.0 L 107.0 81.0 L 107.0 81.0 L 108.0 81.0 L 108.0 81.0 L 108.0 81.0 L 108.0 81.0 L 108.0 81.0 L 109.0 81.0 L 109.0 80.0 L 109.0 80.0 L 110.0 80.0 L 110.0 80.0 L 110.0 80.0 L 111.0 80.0 L 111.0 80.0 L 111.0 80.0 L 112.0 80.0 L 112.0 80.0 L 113.0 80.0 L 113.0 80.0 L 114.0 80.0 L 114.0 80.0 L 115.0 80.0 L 116.0 80.0 L 116.0 80.0 L 117.0 80.0 L 117.0 80.0 L 118.0 80.0 L 118.0 80.0 L 119.0 80.0 L 120.0 80.0 L 120.0 80.0 L 121.0 80.0 L 121.0 80.0 L 122.0 80.0 L 123.0 81.0 L 123.0 81.0 L 124.0 81.0 L 124.0 81.0 L 125.0 81.0 L 126.0 81.0 L 126.0 81.0 L 127.0 81.0 L 127.0 81.0 L 128.0 81.0 L 128.0 81.0 L 129.0 81.0 L 130.0 81.0 L 130.0 81.0 L 131.0 81.0 L 132.0 81.0 L 132.0 81.0 L 133.0 81.0 L 133.0 81.0 L 134.0 81.0 L 135.0 81.0 L 135.0 81.0 L 136.0 81.0 L 136.0 81.0 L 137.0 81.0 L 137.0 81.0 L 138.0 81.0 L 139.0 81.0 L 139.0 81.0 L 140.0 81.0 L 140.0 81.0 L 141.0 81.0 L 141.0 81.0 L 142.0 81.0 L 143.0 80.0 L 143.0 80.0 L 144.0 80.0 L 144.0 80.0 L 144.0 80.0 L 145.0 80.0 L 145.0 80.0 L 146.0 80.0 L 146.0 80.0 L 146.0 80.0 L 147.0 80.0 L 147.0 80.0 L 148.0 80.0 L 148.0 80.0 L 148.0 80.0 L 148.0 80.0 L 149.0 80.0 L 149.0 80.0 L 149.0 80.0 L 150.0 80.0 L 150.0 80.0 L 150.0 80.0 L 150.0 80.0 L 151.0 80.0 L 151.0 80.0 L 151.0 80.0 L 151.0 80.0 L 152.0 80.0 L 152.0 80.0 L 152.0 80.0 L 152.0 80.0 L 153.0 80.0 L 153.0 79.0 L 153.0 79.0 L 153.0 79.0 L 154.0 79.0 L 154.0 79.0 L 154.0 79.0 L 155.0 79.0 L 155.0 79.0 L 155.0 79.0 L 155.0 79.0 L 156.0 79.0 L 156.0 79.0 L 157.0 79.0 L 157.0 79.0 L 157.0 79.0 L 158.0 79.0 L 158.0 79.0 L 159.0 79.0 L 159.0 79.0 L 160.0 79.0 L 160.0 79.0 L 160.0 79.0 L 161.0 79.0 L 162.0 79.0 L 162.0 79.0 L 163.0 79.0 L 163.0 79.0 L 164.0 79.0 L 164.0 79.0 L 165.0 79.0 L 166.0 79.0 L 166.0 79.0 L 167.0 79.0 L 168.0 79.0 L 168.0 79.0 L 169.0 79.0 L 170.0 79.0 L 170.0 79.0 L 171.0 79.0 L 171.0 79.0 L 172.0 79.0 L 173.0 79.0 L 173.0 79.0 L 174.0 79.0 L 174.0 79.0 L 175.0 79.0 L 175.0 80.0 L 176.0 80.0 L 176.0 80.0 L 177.0 80.0 L 177.0 80.0 L 178.0 80.0 L 178.0 80.0 L 179.0 80.0 L 179.0 80.0 L 180.0 80.0 L 180.0 80.0 L 181.0 80.0 L 182.0 80.0 L 182.0 80.0 L 183.0 79.0 L 183.0 79.0 L 184.0 79.0 L 185.0 78.0 L 185.0 78.0 L 186.0 78.0 L 186.0 77.0 L 187.0 77.0 L 187.0 77.0 L 187.0 77.0 L 188.0 77.0 L 188.0 77.0 L 188.0 77.0 L 188.0 77.0 L 189.0 77.0 L 189.0 77.0 L 189.0 77.0 L 189.0 77.0 L 189.0 77.0 L 190.0 77.0 L 190.0 77.0 L 190.0 77.0 L 190.0 77.0 L 190.0 77.0 L 191.0 77.0 L 191.0 77.0 L 191.0 77.0 L 191.0 77.0 L 191.0 77.0 L 191.0 77.0 L 192.0 77.0 L 192.0 77.0 L 192.0 77.0 L 192.0 77.0 L 193.0 77.0 L 193.0 77.0 L 193.0 77.0 L 193.0 77.0 L 193.0 77.0 L 194.0 77.0 L 194.0 77.0 L 194.0 77.0 L 194.0 77.0 L 195.0 77.0 L 195.0 77.0 L 195.0 77.0 L 196.0 77.0 L 196.0 77.0 L 196.0 77.0 L 197.0 77.0 L 197.0 77.0 L 198.0 77.0 L 198.0 77.0 L 198.0 77.0 L 199.0 77.0 L 199.0 77.0 L 200.0 77.0 L 200.0 77.0 L 200.0 78.0 L 201.0 78.0 L 201.0 78.0 L 201.0 78.0 L 202.0 78.0 L 202.0 78.0 L 202.0 78.0 L 203.0 78.0 L 203.0 78.0 L 204.0 78.0 L 204.0 78.0 L 204.0 78.0 L 205.0 78.0 L 205.0 78.0 L 206.0 78.0 L 206.0 78.0 L 206.0 78.0 L 207.0 78.0 L 207.0 78.0 L 208.0 78.0 L 208.0 78.0 L 209.0 78.0 L 209.0 78.0 L 209.0 78.0 L 210.0 78.0 L 210.0 78.0 L 211.0 78.0 L 211.0 78.0 L 212.0 78.0 L 212.0 78.0 L 212.0 78.0 L 213.0 78.0 L 213.0 78.0 L 214.0 78.0 L 214.0 78.0 L 214.0 78.0 L 215.0 78.0 L 215.0 78.0 L 216.0 78.0 L 216.0 78.0 L 216.0 78.0 L 217.0 78.0 L 217.0 78.0 L 218.0 78.0 L 218.0 78.0 " stroke="black" fill="none" stroke-width="5.0" stroke-linecap="round" stroke-linejoin="round" />
<path d="M 68.0 104.0 L 68.0 104.0 L 68.0 104.0 L 68.0 103.0 L 68.0 103.0 L 68.0 103.0 L 67.0 102.0 L 67.0 102.0 L 67.0 102.0 L 67.0 102.0 L 67.0 103.0 L 67.0 105.0 L 67.0 107.0 L 67.0 110.0 L 67.0 114.0 L 67.0 118.0 L 67.0 122.0 L 67.0 126.0 L 68.0 129.0 " stroke="black" fill="none" stroke-width="5.0" stroke-linecap="round" stroke-linejoin="round" />
<path d="M 71.0 102.0 L 71.0 102.0 L 71.0 102.0 L 71.0 101.0 L 71.0 101.0 L 71.0 101.0 L 71.0 100.0 L 71.0 100.0 L 71.0 100.0 L 71.0 100.0 L 71.0 100.0 L 71.0 100.0 L 71.0 100.0 L 71.0 100.0 L 71.0 100.0 L 71.0 100.0 L 71.0 100.0 L 71.0 100.0 L 71.0 100.0 L 71.0 100.0 L 72.0 100.0 L 72.0 101.0 L 73.0 101.0 L 73.0 101.0 L 74.0 101.0 L 74.0 101.0 L 74.0 101.0 L 75.0 101.0 L 76.0 101.0 L 76.0 101.0 L 77.0 101.0 L 78.0 101.0 L 79.0 101.0 L 80.0 101.0 L 81.0 101.0 L 82.0 101.0 L 83.0 101.0 L 84.0 101.0 L 85.0 101.0 L 85.0 101.0 L 87.0 101.0 L 88.0 101.0 L 89.0 101.0 L 90.0 101.0 L 91.0 101.0 L 91.0 101.0 L 92.0 101.0 L 93.0 101.0 L 94.0 101.0 L 95.0 101.0 L 95.0 101.0 L 96.0 101.0 L 97.0 101.0 L 98.0 101.0 L 98.0 101.0 L 99.0 101.0 L 100.0 101.0 L 101.0 101.0 L 102.0 101.0 L 103.0 100.0 L 104.0 100.0 L 105.0 100.0 L 106.0 100.0 L 106.0 100.0 L 107.0 100.0 L 108.0 100.0 L 108.0 100.0 L 109.0 100.0 L 110.0 100.0 L 111.0 100.0 L 111.0 100.0 L 112.0 100.0 L 113.0 100.0 L 114.0 100.0 L 114.0 100.0 L 115.0 100.0 L 116.0 100.0 L 117.0 100.0 L 118.0 100.0 L 119.0 100.0 L 120.0 100.0 L 121.0 100.0 L 122.0 101.0 L 123.0 101.0 L 124.0 101.0 L 125.0 101.0 L 126.0 101.0 L 127.0 101.0 L 128.0 101.0 L 129.0 101.0 L 130.0 101.0 L 131.0 101.0 L 131.0 102.0 L 132.0 102.0 L 133.0 102.0 L 134.0 102.0 L 135.0 102.0 L 135.0 102.0 L 136.0 102.0 L 137.0 102.0 L 138.0 102.0 L 138.0 102.0 L 139.0 102.0 L 140.0 102.0 L 141.0 102.0 L 141.0 102.0 L 142.0 102.0 L 143.0 102.0 L 143.0 103.0 L 144.0 103.0 L 145.0 103.0 L 145.0 103.0 L 146.0 103.0 L 146.0 103.0 L 147.0 103.0 L 148.0 103.0 L 148.0 103.0 L 149.0 103.0 L 150.0 103.0 L 150.0 103.0 L 151.0 103.0 L 151.0 103.0 L 152.0 103.0 L 152.0 103.0 L 153.0 103.0 L 153.0 103.0 L 154.0 103.0 L 154.0 103.0 L 155.0 103.0 L 155.0 103.0 L 156.0 104.0 L 156.0 104.0 L 157.0 104.0 L 158.0 104.0 L 158.0 104.0 L 159.0 104.0 L 160.0 104.0 L 160.0 104.0 L 161.0 104.0 L 162.0 104.0 L 162.0 104.0 L 163.0 104.0 L 164.0 104.0 L 165.0 104.0 L 165.0 104.0 L 166.0 104.0 L 167.0 104.0 L 168.0 104.0 L 169.0 104.0 L 169.0 104.0 L 170.0 104.0 L 171.0 104.0 L 172.0 104.0 L 173.0 104.0 L 173.0 104.0 L 174.0 104.0 L 175.0 104.0 L 176.0 104.0 L 176.0 104.0 L 177.0 104.0 L 178.0 104.0 L 178.0 104.0 L 179.0 104.0 L 180.0 104.0 L 180.0 104.0 L 181.0 104.0 L 182.0 104.0 L 182.0 104.0 L 183.0 104.0 L 184.0 104.0 L 184.0 104.0 L 185.0 104.0 L 185.0 104.0 L 186.0 104.0 L 186.0 104.0 L 187.0 104.0 L 187.0 103.0 L 188.0 103.0 L 188.0 103.0 L 189.0 103.0 L 189.0 103.0 L 190.0 103.0 L 190.0 102.0 L 191.0 102.0 L 191.0 102.0 L 192.0 102.0 L 192.0 102.0 L 192.0 102.0 L 193.0 102.0 L 193.0 102.0 L 193.0 101.0 L 194.0 101.0 L 194.0 101.0 L 194.0 101.0 L 194.0 101.0 L 194.0 101.0 L 195.0 101.0 L 195.0 101.0 L 195.0 101.0 L 195.0 101.0 L 196.0 101.0 L 196.0 101.0 L 196.0 101.0 L 196.0 101.0 L 196.0 101.0 L 197.0 101.0 L 197.0 101.0 L 197.0 101.0 L 197.0 101.0 L 198.0 101.0 L 198.0 101.0 L 198.0 101.0 L 198.0 101.0 L 199.0 100.0 L 199.0 100.0 L 199.0 100.0 L 199.0 100.0 L 200.0 100.0 L 200.0 100.0 L 200.0 100.0 L 200.0 100.0 L 201.0 100.0 L 201.0 100.0 L 201.0 100.0 L 201.0 100.0 L 202.0 100.0 L 202.0 100.0 L 202.0 100.0 L 203.0 100.0 L 203.0 100.0 L 203.0 100.0 L 204.0 100.0 L 204.0 100.0 L 204.0 100.0 L 205.0 100.0 L 205.0 100.0 L 205.0 100.0 L 206.0 100.0 L 206.0 100.0 L 207.0 100.0 L 207.0 100.0 L 208.0 100.0 L 208.0 99.0 L 209.0 99.0 L 209.0 99.0 L 210.0 99.0 L 210.0 99.0 L 210.0 99.0 L 211.0 99.0 L 211.0 99.0 L 212.0 99.0 L 212.0 99.0 L 213.0 99.0 L 213.0 99.0 L 213.0 99.0 L 214.0 99.0 L 214.0 99.0 L 215.0 99.0 L 215.0 99.0 L 216.0 99.0 L 216.0 99.0 L 216.0 99.0 L 217.0 99.0 L 217.0 99.0 L 217.0 99.0 L 218.0 100.0 L 218.0 100.0 L 218.0 100.0 L 219.0 100.0 L 219.0 100.0 L 219.0 100.0 L 220.0 100.0 L 220.0 100.0 L 220.0 100.0 L 221.0 100.0 L 221.0 100.0 L 221.0 100.0 L 221.0 100.0 L 222.0 100.0 L 222.0 100.0 L 222.0 100.0 L 223.0 100.0 L 223.0 100.0 L 223.0 100.0 L 224.0 100.0 L 224.0 100.0 L 224.0 100.0 L 225.0 100.0 L 225.0 100.0 L 225.0 100.0 L 226.0 100.0 L 226.0 100.0 L 226.0 100.0 L 226.0 101.0 L 227.0 101.0 L 227.0 101.0 L 227.0 101.0 L 227.0 101.0 L 227.0 101.0 L 227.0 101.0 L 227.0 101.0 L 227.0 101.0 L 227.0 101.0 L 227.0 101.0 L 227.0 101.0 L 227.0 102.0 L 227.0 102.0 L 227.0 102.0 L 227.0 102.0 L 227.0 102.0 L 227.0 103.0 L 227.0 103.0 L 227.0 104.0 L 227.0 105.0 L 227.0 105.0 L 227.0 106.0 L 227.0 107.0 L 228.0 108.0 L 228.0 109.0 L 228.0 110.0 L 228.0 111.0 L 229.0 112.0 L 229.0 114.0 L 229.0 115.0 L 229.0 116.0 L 230.0 118.0 L 230.0 119.0 L 230.0 119.0 L 230.0 120.0 L 231.0 121.0 L 231.0 121.0 L 231.0 122.0 L 231.0 122.0 L 232.0 122.0 L 232.0 123.0 L 232.0 123.0 L 232.0 123.0 L 232.0 123.0 L 232.0 123.0 " stroke="black" fill="none" stroke-width="5.0" stroke-linecap="round" stroke-linejoin="round" />
<path d="M 150.0 84.0 L 150.0 84.0 L 150.0 84.0 L 150.0 84.0 L 150.0 84.0 L 150.0 84.0 L 150.0 84.0 L 150.0 84.0 L 150.0 85.0 L 150.0 85.0 L 150.0 86.0 L 150.0 87.0 L 150.0 88.0 L 150.0 90.0 L 150.0 91.0 L 150.0 94.0 L 150.0 96.0 L 150.0 99.0 L 150.0 102.0 L 150.0 105.0 L 150.0 107.0 L 150.0 110.0 L 150.0 112.0 L 150.0 114.0 L 150.0 116.0 L 150.0 117.0 L 150.0 119.0 L 151.0 121.0 L 151.0 122.0 L 151.0 124.0 L 151.0 125.0 L 151.0 126.0 L 151.0 127.0 L 151.0 128.0 L 151.0 129.0 L 151.0 130.0 L 151.0 131.0 L 151.0 132.0 L 151.0 133.0 L 151.0 134.0 L 151.0 136.0 L 151.0 137.0 L 151.0 139.0 L 151.0 140.0 L 151.0 142.0 L 151.0 144.0 L 151.0 145.0 L 151.0 146.0 L 151.0 147.0 L 151.0 149.0 L 151.0 150.0 L 151.0 151.0 L 151.0 152.0 L 151.0 153.0 L 151.0 154.0 L 151.0 155.0 L 151.0 155.0 L 151.0 156.0 L 151.0 157.0 L 151.0 157.0 L 151.0 158.0 L 151.0 158.0 L 151.0 158.0 L 151.0 158.0 L 151.0 158.0 L 151.0 157.0 L 151.0 157.0 " stroke="black" fill="none" stroke-width="5.0" stroke-linecap="round" stroke-linejoin="round" />
<path d="M 99.0 119.0 L 99.0 119.0 L 99.0 119.0 L 98.0 119.0 L 98.0 118.0 L 98.0 118.0 L 98.0 117.0 L 98.0 117.0 L 98.0 117.0 L 98.0 117.0 L 98.0 117.0 L 98.0 117.0 L 98.0 117.0 L 98.0 117.0 L 98.0 118.0 L 99.0 119.0 L 99.0 120.0 L 100.0 121.0 L 101.0 123.0 L 102.0 124.0 L 103.0 125.0 L 105.0 126.0 L 107.0 127.0 L 108.0 128.0 L 110.0 129.0 L 113.0 130.0 L 115.0 131.0 L 117.0 132.0 L 118.0 134.0 " stroke="black" fill="none" stroke-width="5.0" stroke-linecap="round" stroke-linejoin="round" />
<path d="M 96.0 161.0 L 96.0 161.0 L 96.0 160.0 L 96.0 160.0 L 96.0 160.0 L 96.0 159.0 L 96.0 159.0 L 97.0 159.0 L 98.0 158.0 L 99.0 158.0 L 101.0 157.0 L 103.0 157.0 L 107.0 156.0 L 111.0 154.0 L 116.0 152.0 L 122.0 148.0 L 128.0 144.0 L 131.0 142.0 " stroke="black" fill="none" stroke-width="5.0" stroke-linecap="round" stroke-linejoin="round" />
<path d="M 208.0 114.0 L 208.0 114.0 L 208.0 114.0 L 208.0 114.0 L 208.0 115.0 L 208.0 115.0 L 208.0 116.0 L 208.0 116.0 L 207.0 117.0 L 205.0 118.0 L 204.0 119.0 L 202.0 120.0 L 200.0 120.0 L 197.0 121.0 L 195.0 122.0 L 192.0 123.0 L 190.0 124.0 L 187.0 125.0 L 183.0 127.0 L 180.0 129.0 L 177.0 131.0 L 173.0 132.0 L 172.0 133.0 " stroke="black" fill="none" stroke-width="5.0" stroke-linecap="round" stroke-linejoin="round" />
<path d="M 178.0 140.0 L 178.0 140.0 L 178.0 140.0 L 178.0 140.0 L 177.0 140.0 L 177.0 140.0 L 177.0 140.0 L 177.0 140.0 L 177.0 140.0 L 178.0 140.0 L 179.0 140.0 L 181.0 141.0 L 183.0 142.0 L 186.0 143.0 L 188.0 144.0 L 191.0 145.0 L 194.0 147.0 L 197.0 148.0 L 200.0 150.0 L 203.0 152.0 L 205.0 154.0 L 208.0 155.0 L 210.0 156.0 L 212.0 156.0 L 214.0 157.0 " stroke="black" fill="none" stroke-width="5.0" stroke-linecap="round" stroke-linejoin="round" />
<path d="M 95.0 179.0 L 95.0 179.0 L 95.0 179.0 L 95.0 179.0 L 94.0 179.0 L 94.0 179.0 L 94.0 179.0 L 94.0 179.0 L 94.0 179.0 L 94.0 179.0 L 94.0 179.0 L 94.0 179.0 L 94.0 179.0 L 95.0 179.0 L 95.0 179.0 L 96.0 179.0 L 97.0 179.0 L 97.0 180.0 L 98.0 180.0 L 99.0 180.0 L 99.0 180.0 L 100.0 180.0 L 101.0 181.0 L 102.0 181.0 L 103.0 181.0 L 104.0 182.0 L 105.0 182.0 L 106.0 182.0 L 107.0 183.0 L 108.0 183.0 L 110.0 183.0 L 111.0 183.0 L 112.0 183.0 L 113.0 183.0 L 114.0 183.0 L 115.0 183.0 L 117.0 183.0 L 118.0 183.0 L 119.0 183.0 L 120.0 183.0 L 121.0 183.0 L 122.0 183.0 L 123.0 183.0 L 124.0 183.0 L 125.0 183.0 L 125.0 183.0 L 126.0 183.0 L 126.0 183.0 L 127.0 182.0 L 128.0 182.0 L 129.0 182.0 L 129.0 182.0 L 130.0 182.0 L 131.0 181.0 L 132.0 181.0 L 133.0 181.0 L 134.0 180.0 L 135.0 180.0 L 137.0 180.0 L 138.0 180.0 L 139.0 180.0 L 139.0 180.0 L 140.0 180.0 L 141.0 180.0 L 142.0 180.0 L 143.0 180.0 L 144.0 180.0 L 145.0 180.0 L 146.0 180.0 L 147.0 180.0 L 148.0 180.0 L 148.0 180.0 L 149.0 180.0 L 150.0 180.0 L 151.0 180.0 L 152.0 180.0 L 152.0 181.0 L 153.0 181.0 L 154.0 181.0 L 155.0 181.0 L 155.0 181.0 L 156.0 181.0 L 157.0 181.0 L 158.0 181.0 L 158.0 182.0 L 159.0 182.0 L 160.0 182.0 L 161.0 182.0 L 162.0 182.0 L 163.0 182.0 L 164.0 182.0 L 165.0 182.0 L 166.0 182.0 L 167.0 182.0 L 168.0 182.0 L 169.0 182.0 L 170.0 182.0 L 171.0 182.0 L 172.0 182.0 L 173.0 182.0 L 174.0 182.0 L 175.0 182.0 L 176.0 182.0 L 177.0 182.0 L 178.0 182.0 L 178.0 182.0 L 179.0 182.0 L 180.0 182.0 L 181.0 182.0 L 182.0 182.0 L 183.0 182.0 L 183.0 182.0 L 184.0 182.0 L 185.0 182.0 L 186.0 182.0 L 186.0 182.0 L 187.0 183.0 L 188.0 183.0 L 188.0 183.0 L 189.0 183.0 L 189.0 184.0 L 190.0 184.0 L 191.0 184.0 L 191.0 184.0 L 192.0 185.0 L 193.0 185.0 L 193.0 185.0 L 194.0 185.0 L 194.0 185.0 L 195.0 185.0 L 196.0 185.0 L 196.0 186.0 L 197.0 186.0 L 198.0 186.0 L 198.0 186.0 L 199.0 186.0 L 199.0 187.0 L 199.0 187.0 L 200.0 187.0 L 200.0 187.0 " stroke="black" fill="none" stroke-width="5.0" stroke-linecap="round" stroke-linejoin="round" />
<path d="M 64.0 209.0 L 64.0 209.0 L 64.0 209.0 L 64.0 209.0 L 64.0 209.0 L 64.0 209.0 L 64.0 209.0 L 64.0 209.0 L 64.0 209.0 L 64.0 209.0 L 64.0 209.0 L 65.0 209.0 L 65.0 209.0 L 66.0 209.0 L 67.0 209.0 L 68.0 209.0 L 69.0 209.0 L 70.0 209.0 L 71.0 209.0 L 73.0 209.0 L 75.0 209.0 L 76.0 209.0 L 78.0 209.0 L 80.0 209.0 L 81.0 209.0 L 83.0 209.0 L 84.0 209.0 L 86.0 209.0 L 87.0 209.0 L 89.0 209.0 L 90.0 209.0 L 91.0 209.0 L 93.0 209.0 L 94.0 209.0 L 95.0 209.0 L 96.0 208.0 L 97.0 208.0 L 98.0 208.0 L 98.0 208.0 L 99.0 207.0 L 100.0 207.0 L 100.0 207.0 L 101.0 207.0 L 102.0 207.0 L 102.0 207.0 L 103.0 207.0 L 103.0 207.0 L 104.0 207.0 L 105.0 207.0 L 105.0 207.0 L 106.0 207.0 L 106.0 206.0 L 107.0 206.0 L 107.0 206.0 L 108.0 206.0 L 108.0 206.0 L 109.0 206.0 L 109.0 206.0 L 109.0 206.0 L 110.0 206.0 L 110.0 206.0 L 111.0 206.0 L 111.0 206.0 L 112.0 206.0 L 112.0 206.0 L 113.0 206.0 L 113.0 206.0 L 114.0 206.0 L 114.0 206.0 L 115.0 206.0 L 115.0 206.0 L 116.0 206.0 L 116.0 206.0 L 117.0 206.0 L 118.0 206.0 L 118.0 206.0 L 119.0 206.0 L 120.0 207.0 L 120.0 207.0 L 121.0 207.0 L 122.0 207.0 L 122.0 207.0 L 123.0 207.0 L 124.0 207.0 L 125.0 207.0 L 125.0 207.0 L 126.0 207.0 L 127.0 207.0 L 128.0 207.0 L 129.0 207.0 L 130.0 207.0 L 130.0 207.0 L 131.0 207.0 L 132.0 207.0 L 133.0 207.0 L 134.0 207.0 L 135.0 208.0 L 136.0 208.0 L 137.0 208.0 L 138.0 208.0 L 139.0 208.0 L 140.0 208.0 L 141.0 208.0 L 142.0 208.0 L 143.0 208.0 L 144.0 208.0 L 145.0 208.0 L 146.0 208.0 L 147.0 208.0 L 147.0 208.0 L 148.0 208.0 L 148.0 208.0 L 149.0 208.0 L 150.0 208.0 L 150.0 208.0 L 151.0 208.0 L 151.0 208.0 L 152.0 208.0 L 152.0 208.0 L 152.0 208.0 L 153.0 208.0 L 153.0 208.0 L 154.0 208.0 L 154.0 208.0 L 155.0 208.0 L 155.0 208.0 L 156.0 208.0 L 156.0 207.0 L 157.0 207.0 L 157.0 207.0 L 158.0 207.0 L 158.0 207.0 L 159.0 207.0 L 160.0 207.0 L 160.0 207.0 L 161.0 207.0 L 162.0 206.0 L 163.0 206.0 L 163.0 206.0 L 164.0 206.0 L 165.0 206.0 L 166.0 206.0 L 166.0 206.0 L 167.0 206.0 L 168.0 206.0 L 169.0 206.0 L 169.0 206.0 L 170.0 206.0 L 171.0 206.0 L 172.0 206.0 L 173.0 206.0 L 173.0 206.0 L 174.0 206.0 L 175.0 206.0 L 176.0 206.0 L 177.0 206.0 L 177.0 207.0 L 178.0 207.0 L 179.0 207.0 L 180.0 207.0 L 180.0 207.0 L 181.0 207.0 L 182.0 207.0 L 183.0 207.0 L 184.0 207.0 L 184.0 207.0 L 185.0 207.0 L 186.0 207.0 L 186.0 207.0 L 187.0 207.0 L 188.0 207.0 L 188.0 207.0 L 189.0 207.0 L 189.0 207.0 L 190.0 207.0 L 190.0 207.0 L 191.0 207.0 L 191.0 207.0 L 192.0 207.0 L 192.0 207.0 L 193.0 207.0 L 193.0 207.0 L 193.0 207.0 L 194.0 207.0 L 194.0 207.0 L 195.0 207.0 L 195.0 207.0 L 196.0 207.0 L 196.0 207.0 L 196.0 207.0 L 197.0 207.0 L 198.0 207.0 L 198.0 207.0 L 198.0 207.0 L 199.0 207.0 L 200.0 207.0 L 200.0 207.0 L 201.0 207.0 L 202.0 207.0 L 202.0 207.0 L 203.0 207.0 L 204.0 207.0 L 205.0 207.0 L 206.0 207.0 L 207.0 208.0 L 208.0 208.0 L 209.0 208.0 L 210.0 208.0 L 211.0 208.0 L 212.0 208.0 L 213.0 208.0 L 215.0 208.0 L 216.0 208.0 L 217.0 209.0 L 218.0 209.0 L 219.0 209.0 L 220.0 209.0 L 222.0 209.0 L 223.0 209.0 L 224.0 209.0 L 225.0 209.0 L 226.0 209.0 L 227.0 209.0 L 228.0 209.0 L 229.0 209.0 L 230.0 209.0 L 231.0 209.0 L 232.0 209.0 L 233.0 209.0 L 233.0 209.0 L 234.0 209.0 L 235.0 209.0 L 236.0 209.0 L 237.0 209.0 L 237.0 209.0 L 238.0 208.0 L 238.0 208.0 L 239.0 208.0 L 239.0 208.0 L 239.0 208.0 L 239.0 208.0 L 239.0 208.0 L 239.0 208.0 L 239.0 208.0 L 239.0 208.0 L 239.0 208.0 " stroke="black" fill="none" stroke-width="5.0" stroke-linecap="round" stroke-linejoin="round" />
<path d="M 121.0 211.0 L 121.0 211.0 L 120.0 211.0 L 119.0 211.0 L 118.0 212.0 L 117.0 212.0 L 117.0 213.0 L 117.0 213.0 L 116.0 213.0 L 116.0 214.0 L 116.0 214.0 L 116.0 214.0 L 116.0 214.0 L 116.0 214.0 L 115.0 215.0 L 115.0 216.0 L 115.0 216.0 L 114.0 217.0 L 114.0 218.0 L 113.0 219.0 L 113.0 220.0 L 112.0 221.0 L 112.0 222.0 L 111.0 223.0 L 111.0 224.0 L 110.0 225.0 L 109.0 226.0 L 109.0 227.0 L 108.0 229.0 L 107.0 230.0 L 107.0 231.0 L 106.0 232.0 L 105.0 233.0 L 105.0 234.0 L 104.0 235.0 L 103.0 236.0 L 102.0 236.0 L 101.0 237.0 L 100.0 238.0 L 99.0 239.0 L 98.0 240.0 L 97.0 241.0 L 96.0 241.0 L 95.0 242.0 L 94.0 243.0 L 93.0 243.0 L 93.0 244.0 L 92.0 245.0 L 91.0 245.0 L 90.0 245.0 L 89.0 246.0 L 89.0 246.0 L 89.0 246.0 L 88.0 247.0 L 88.0 247.0 L 88.0 247.0 L 88.0 247.0 L 88.0 247.0 L 88.0 247.0 L 88.0 247.0 L 88.0 247.0 L 89.0 247.0 L 89.0 247.0 L 89.0 247.0 L 90.0 247.0 L 90.0 247.0 L 90.0 247.0 L 91.0 246.0 L 91.0 246.0 L 92.0 246.0 L 93.0 246.0 L 93.0 246.0 L 94.0 246.0 L 95.0 245.0 L 96.0 245.0 L 96.0 245.0 L 97.0 245.0 L 98.0 244.0 L 100.0 244.0 L 100.0 244.0 L 101.0 244.0 L 102.0 243.0 L 103.0 243.0 L 104.0 243.0 L 105.0 243.0 L 105.0 243.0 L 106.0 243.0 L 107.0 243.0 L 107.0 242.0 L 108.0 242.0 L 108.0 242.0 L 109.0 242.0 L 110.0 242.0 L 110.0 242.0 L 111.0 242.0 L 111.0 242.0 L 112.0 241.0 L 112.0 241.0 L 113.0 241.0 L 113.0 241.0 L 114.0 241.0 L 115.0 241.0 L 115.0 241.0 L 116.0 241.0 L 117.0 241.0 L 117.0 241.0 L 118.0 241.0 L 119.0 241.0 L 120.0 241.0 L 121.0 240.0 L 122.0 240.0 L 123.0 240.0 L 124.0 240.0 L 125.0 240.0 L 126.0 240.0 L 127.0 240.0 L 128.0 240.0 L 129.0 240.0 L 130.0 240.0 L 132.0 240.0 L 133.0 240.0 L 133.0 240.0 L 135.0 240.0 L 135.0 240.0 L 136.0 240.0 L 137.0 240.0 L 138.0 240.0 L 138.0 240.0 L 139.0 240.0 L 140.0 240.0 L 141.0 240.0 L 141.0 240.0 L 142.0 240.0 L 143.0 240.0 L 144.0 240.0 L 144.0 240.0 L 145.0 240.0 L 145.0 240.0 L 146.0 240.0 L 146.0 240.0 L 147.0 240.0 L 148.0 240.0 L 148.0 240.0 L 149.0 240.0 L 149.0 240.0 L 150.0 240.0 L 150.0 240.0 L 150.0 240.0 L 151.0 240.0 L 151.0 240.0 L 152.0 240.0 L 152.0 240.0 L 153.0 239.0 L 153.0 239.0 L 154.0 239.0 L 154.0 239.0 L 155.0 239.0 L 155.0 239.0 L 156.0 239.0 L 157.0 239.0 L 157.0 239.0 L 158.0 239.0 L 158.0 239.0 L 159.0 239.0 L 160.0 239.0 L 161.0 239.0 L 162.0 239.0 L 162.0 239.0 L 163.0 239.0 L 164.0 239.0 L 165.0 239.0 L 166.0 239.0 L 167.0 239.0 L 168.0 239.0 L 168.0 239.0 L 169.0 239.0 L 170.0 239.0 L 171.0 239.0 L 172.0 239.0 L 173.0 239.0 L 174.0 239.0 L 175.0 239.0 L 176.0 239.0 L 177.0 239.0 L 178.0 239.0 L 178.0 239.0 L 179.0 239.0 L 180.0 239.0 L 180.0 239.0 L 181.0 238.0 L 182.0 238.0 L 182.0 238.0 L 183.0 238.0 L 184.0 238.0 L 184.0 238.0 L 185.0 238.0 L 185.0 238.0 L 186.0 238.0 L 187.0 238.0 L 187.0 238.0 L 188.0 238.0 L 188.0 238.0 L 189.0 238.0 L 189.0 238.0 L 190.0 238.0 L 190.0 238.0 L 191.0 238.0 L 191.0 238.0 L 192.0 238.0 L 192.0 238.0 L 193.0 238.0 L 193.0 238.0 L 194.0 238.0 L 194.0 238.0 L 194.0 238.0 L 195.0 238.0 L 196.0 238.0 L 196.0 238.0 L 197.0 238.0 L 197.0 238.0 L 198.0 238.0 L 198.0 238.0 L 198.0 238.0 L 198.0 238.0 L 198.0 238.0 L 198.0 238.0 L 198.0 237.0 " stroke="black" fill="none" stroke-width="5.0" stroke-linecap="round" stroke-linejoin="round" />
<path d="M 185.0 217.0 L 185.0 217.0 L 185.0 217.0 L 185.0 217.0 L 184.0 217.0 L 184.0 217.0 L 184.0 217.0 L 184.0 217.0 L 184.0 217.0 L 184.0 217.0 L 184.0 217.0 L 184.0 217.0 L 184.0 218.0 L 184.0 218.0 L 184.0 218.0 L 184.0 219.0 L 184.0 219.0 L 184.0 220.0 L 184.0 220.0 L 184.0 221.0 L 185.0 221.0 L 185.0 222.0 L 185.0 223.0 L 186.0 223.0 L 186.0 223.0 L 187.0 224.0 L 187.0 224.0 L 187.0 225.0 L 188.0 225.0 L 188.0 226.0 L 189.0 226.0 L 189.0 227.0 L 190.0 227.0 L 190.0 228.0 L 191.0 228.0 L 191.0 229.0 L 191.0 229.0 L 192.0 230.0 L 192.0 230.0 L 192.0 230.0 L 193.0 231.0 L 193.0 231.0 L 193.0 232.0 L 194.0 232.0 L 194.0 232.0 L 194.0 233.0 L 194.0 233.0 L 195.0 234.0 L 195.0 234.0 L 195.0 235.0 L 195.0 235.0 L 196.0 236.0 L 196.0 236.0 L 196.0 237.0 L 196.0 237.0 L 197.0 238.0 L 197.0 238.0 L 197.0 239.0 L 197.0 239.0 L 198.0 240.0 L 198.0 240.0 L 198.0 241.0 L 199.0 241.0 L 199.0 241.0 L 200.0 242.0 L 200.0 242.0 L 201.0 243.0 L 201.0 243.0 L 202.0 243.0 L 202.0 244.0 L 203.0 244.0 L 204.0 244.0 L 204.0 245.0 L 205.0 245.0 L 205.0 245.0 L 206.0 246.0 L 207.0 246.0 L 207.0 247.0 L 208.0 247.0 L 208.0 247.0 L 209.0 248.0 L 209.0 248.0 L 210.0 249.0 L 210.0 249.0 L 211.0 250.0 L 211.0 250.0 L 212.0 251.0 L 212.0 251.0 L 213.0 252.0 L 214.0 253.0 L 214.0 254.0 L 215.0 255.0 L 215.0 256.0 L 216.0 257.0 L 217.0 258.0 L 218.0 259.0 L 218.0 259.0 L 219.0 260.0 L 219.0 260.0 " stroke="black" fill="none" stroke-width="5.0" stroke-linecap="round" stroke-linejoin="round" />
</svg>