<svg xmlns="http://www.w3.org/2000/svg" width="300" height="300" viewBox="0 0 300 300">
<path d="M 102.0 78.0 L 102.0 78.0 L 100.0 78.0 L 98.0 77.0 L 97.0 77.0 L 96.0 77.0 L 96.0 77.0 L 96.0 77.0 L 98.0 77.0 L 101.0 77.0 L 105.0 77.0 L 110.0 77.0 L 118.0 77.0 L 129.0 76.0 L 141.0 75.0 L 152.0 75.0 L 163.0 74.0 L 175.0 74.0 L 187.0 74.0 L 197.0 73.0 L 203.0 73.0 L 209.0 73.0 L 214.0 72.0 L 215.0 72.0 " stroke="black" fill="none" stroke-width="5.0" stroke-linecap="round" stroke-linejoin="round" />
<path d="M 83.0 104.0 L 82.0 104.0 L 81.0 103.0 L 80.0 103.0 L 79.0 105.0 L 77.0 109.0 L 76.0 114.0 L 75.0 120.0 L 74.0 128.0 L 73.0 134.0 L 72.0 139.0 L 72.0 143.0 L 72.0 144.0 " stroke="black" fill="none" stroke-width="5.0" stroke-linecap="round" stroke-linejoin="round" />
<path d="M 90.0 102.0 L 90.0 101.0 L 88.0 100.0 L 87.0 99.0 L 86.0 99.0 L 86.0 99.0 L 86.0 99.0 L 86.0 99.0 L 86.0 99.0 L 88.0 99.0 L 90.0 99.0 L 93.0 99.0 L 96.0 99.0 L 100.0 98.0 L 104.0 97.0 L 109.0 97.0 L 116.0 96.0 L 124.0 95.0 L 134.0 95.0 L 144.0 94.0 L 152.0 94.0 L 160.0 94.0 L 168.0 94.0 L 177.0 94.0 L 186.0 94.0 L 192.0 94.0 L 197.0 95.0 L 201.0 96.0 L 205.0 97.0 L 209.0 98.0 L 213.0 99.0 L 217.0 100.0 L 220.0 100.0 L 223.0 101.0 L 225.0 102.0 L 227.0 103.0 L 228.0 103.0 L 228.0 104.0 L 229.0 104.0 L 229.0 105.0 L 229.0 105.0 L 229.0 106.0 L 229.0 107.0 L 227.0 108.0 L 226.0 110.0 L 223.0 113.0 L 219.0 115.0 L 217.0 116.0 " stroke="black" fill="none" stroke-width="5.0" stroke-linecap="round" stroke-linejoin="round" />
<path d="M 152.0 84.0 L 152.0 84.0 L 152.0 84.0 L 152.0 84.0 L 151.0 84.0 L 151.0 85.0 L 151.0 88.0 L 151.0 93.0 L 151.0 99.0 L 152.0 106.0 L 153.0 114.0 L 153.0 123.0 L 154.0 131.0 L 154.0 140.0 L 154.0 148.0 L 154.0 154.0 L 153.0 159.0 L 152.0 162.0 L 152.0 163.0 " stroke="black" fill="none" stroke-width="5.0" stroke-linecap="round" stroke-linejoin="round" />
<path d="M 106.0 125.0 L 106.0 125.0 L 104.0 125.0 L 104.0 124.0 L 103.0 124.0 L 103.0 124.0 L 103.0 124.0 L 103.0 124.0 L 105.0 125.0 L 107.0 127.0 L 110.0 129.0 L 114.0 131.0 L 118.0 133.0 " stroke="black" fill="none" stroke-width="5.0" stroke-linecap="round" stroke-linejoin="round" />
<path d="M 105.0 151.0 L 105.0 151.0 L 103.0 151.0 L 100.0 152.0 L 98.0 152.0 L 98.0 152.0 L 98.0 152.0 L 99.0 152.0 L 102.0 152.0 L 108.0 150.0 L 116.0 147.0 L 127.0 143.0 " stroke="black" fill="none" stroke-width="5.0" stroke-linecap="round" stroke-linejoin="round" />
<path d="M 203.0 112.0 L 202.0 112.0 L 200.0 112.0 L 199.0 112.0 L 197.0 113.0 L 196.0 113.0 L 195.0 115.0 L 194.0 116.0 L 192.0 118.0 L 191.0 121.0 L 190.0 124.0 L 188.0 127.0 L 185.0 130.0 L 182.0 133.0 L 181.0 135.0 " stroke="black" fill="none" stroke-width="5.0" stroke-linecap="round" stroke-linejoin="round" />
<path d="M 172.0 138.0 L 172.0 139.0 L 172.0 139.0 L 172.0 140.0 L 172.0 141.0 L 174.0 141.0 L 176.0 142.0 L 179.0 144.0 L 182.0 145.0 L 187.0 146.0 L 192.0 146.0 L 197.0 147.0 L 202.0 147.0 L 207.0 148.0 L 208.0 148.0 " stroke="black" fill="none" stroke-width="5.0" stroke-linecap="round" stroke-linejoin="round" />
<path d="M 112.0 175.0 L 111.0 175.0 L 110.0 175.0 L 110.0 174.0 L 109.0 174.0 L 109.0 174.0 L 109.0 174.0 L 111.0 174.0 L 114.0 174.0 L 118.0 174.0 L 124.0 174.0 L 132.0 175.0 L 141.0 175.0 L 149.0 176.0 L 159.0 176.0 L 171.0 177.0 L 182.0 177.0 L 192.0 177.0 L 199.0 177.0 L 202.0 177.0 " stroke="black" fill="none" stroke-width="5.0" stroke-linecap="round" stroke-linejoin="round" />
<path d="M 93.0 205.0 L 92.0 205.0 L 91.0 204.0 L 90.0 204.0 L 89.0 204.0 L 89.0 204.0 L 90.0 204.0 L 92.0 203.0 L 96.0 203.0 L 101.0 203.0 L 106.0 203.0 L 114.0 202.0 L 126.0 202.0 L 139.0 201.0 L 153.0 201.0 L 167.0 201.0 L 180.0 201.0 L 191.0 201.0 L 199.0 201.0 L 204.0 201.0 L 209.0 202.0 L 213.0 202.0 " stroke="black" fill="none" stroke-width="5.0" stroke-linecap="round" stroke-linejoin="round" />
<path d="M 146.0 208.0 L 145.0 209.0 L 143.0 210.0 L 142.0 211.0 L 140.0 212.0 L 138.0 214.0 L 135.0 216.0 L 131.0 219.0 L 126.0 223.0 L 122.0 227.0 L 117.0 232.0 L 112.0 236.0 L 108.0 239.0 L 106.0 241.0 L 103.0 243.0 L 102.0 245.0 L 101.0 246.0 L 100.0 246.0 L 99.0 246.0 L 99.0 247.0 L 99.0 247.0 L 100.0 247.0 L 101.0 247.0 L 104.0 247.0 L 107.0 247.0 L 111.0 247.0 L 118.0 247.0 L 126.0 247.0 L 136.0 247.0 L 148.0 245.0 L 160.0 243.0 L 173.0 240.0 L 186.0 238.0 L 194.0 236.0 L 199.0 234.0 L 202.0 234.0 L 203.0 234.0 L 205.0 234.0 L 206.0 234.0 " stroke="black" fill="none" stroke-width="5.0" stroke-linecap="round" stroke-linejoin="round" />
<path d="M 196.0 217.0 L 196.0 217.0 L 194.0 216.0 L 193.0 215.0 L 193.0 215.0 L 193.0 215.0 L 193.0 215.0 L 193.0 215.0 L 194.0 217.0 L 197.0 219.0 L 200.0 223.0 L 204.0 227.0 L 208.0 231.0 L 213.0 236.0 L 219.0 241.0 L 225.0 246.0 L 230.0 251.0 L 233.0 255.0 L 236.0 260.0 " stroke="black" fill="none" stroke-width="5.0" stroke-linecap="round" stroke-linejoin="round" />
</svg>