<svg xmlns="http://www.w3.org/2000/svg" width="300" height="300" viewBox="0 0 300 300">
<path d="M 87.0 66.0 L 87.0 66.0 L 87.0 66.0 L 87.0 66.0 L 87.0 65.0 L 87.0 65.0 L 87.0 65.0 L 87.0 65.0 L 87.0 65.0 L 86.0 66.0 L 84.0 70.0 L 81.0 74.0 L 77.0 80.0 L 72.0 88.0 L 66.0 96.0 L 61.0 105.0 L 56.0 112.0 L 51.0 117.0 L 49.0 118.0 " stroke="black" fill="none" stroke-width="5.0" stroke-linecap="round" stroke-linejoin="round" />
<path d="M 97.0 111.0 L 97.0 111.0 L 97.0 110.0 L 97.0 110.0 L 96.0 109.0 L 96.0 109.0 L 96.0 110.0 L 95.0 112.0 L 93.0 114.0 L 91.0 118.0 L 89.0 123.0 L 85.0 128.0 L 80.0 135.0 L 75.0 143.0 L 69.0 151.0 L 64.0 158.0 L 59.0 164.0 L 54.0 169.0 L 49.0 173.0 L 45.0 176.0 L 43.0 177.0 L 42.0 177.0 " stroke="black" fill="none" stroke-width="5.0" stroke-linecap="round" stroke-linejoin="round" />
<path d="M 72.0 151.0 L 72.0 151.0 L 73.0 151.0 L 73.0 152.0 L 74.0 154.0 L 74.0 156.0 L 75.0 159.0 L 76.0 164.0 L 76.0 171.0 L 76.0 181.0 L 77.0 193.0 L 77.0 205.0 L 77.0 217.0 L 76.0 230.0 L 75.0 240.0 L 74.0 248.0 L 73.0 254.0 L 73.0 256.0 " stroke="black" fill="none" stroke-width="5.0" stroke-linecap="round" stroke-linejoin="round" />
<path d="M 115.0 91.0 L 115.0 91.0 L 115.0 90.0 L 114.0 90.0 L 114.0 89.0 L 113.0 89.0 L 113.0 89.0 L 113.0 90.0 L 113.0 92.0 L 113.0 95.0 L 113.0 99.0 L 112.0 104.0 L 112.0 109.0 L 111.0 113.0 L 110.0 118.0 L 109.0 122.0 L 109.0 125.0 L 109.0 127.0 L 108.0 129.0 L 108.0 129.0 L 108.0 129.0 L 108.0 129.0 L 109.0 129.0 L 109.0 129.0 L 110.0 129.0 L 111.0 129.0 L 113.0 128.0 L 116.0 128.0 L 119.0 128.0 L 124.0 127.0 L 130.0 126.0 L 137.0 125.0 L 143.0 124.0 L 148.0 123.0 L 152.0 122.0 L 155.0 122.0 L 156.0 121.0 L 157.0 121.0 L 157.0 121.0 " stroke="black" fill="none" stroke-width="5.0" stroke-linecap="round" stroke-linejoin="round" />
<path d="M 140.0 72.0 L 140.0 72.0 L 139.0 73.0 L 139.0 74.0 L 139.0 75.0 L 139.0 78.0 L 139.0 81.0 L 139.0 86.0 L 139.0 92.0 L 139.0 100.0 L 137.0 108.0 L 136.0 115.0 L 135.0 121.0 L 135.0 125.0 L 135.0 127.0 L 135.0 128.0 L 136.0 128.0 " stroke="black" fill="none" stroke-width="5.0" stroke-linecap="round" stroke-linejoin="round" />
<path d="M 162.0 94.0 L 162.0 95.0 L 162.0 96.0 L 161.0 97.0 L 161.0 99.0 L 161.0 102.0 L 160.0 105.0 L 160.0 109.0 L 160.0 114.0 L 159.0 119.0 L 159.0 124.0 L 158.0 129.0 " stroke="black" fill="none" stroke-width="5.0" stroke-linecap="round" stroke-linejoin="round" />
<path d="M 115.0 161.0 L 113.0 161.0 L 111.0 161.0 L 110.0 160.0 L 108.0 160.0 L 108.0 160.0 L 108.0 159.0 L 108.0 159.0 L 108.0 159.0 L 110.0 159.0 L 112.0 159.0 L 117.0 159.0 L 123.0 159.0 L 131.0 158.0 L 139.0 157.0 L 146.0 156.0 L 152.0 156.0 L 156.0 156.0 L 160.0 156.0 " stroke="black" fill="none" stroke-width="5.0" stroke-linecap="round" stroke-linejoin="round" />
<path d="M 128.0 174.0 L 128.0 174.0 L 127.0 174.0 L 127.0 173.0 L 127.0 173.0 L 126.0 172.0 L 126.0 172.0 L 126.0 173.0 L 126.0 175.0 L 125.0 178.0 L 125.0 182.0 L 124.0 188.0 L 122.0 195.0 L 119.0 202.0 L 116.0 210.0 L 113.0 218.0 L 110.0 225.0 L 108.0 232.0 L 106.0 236.0 L 106.0 238.0 L 106.0 238.0 " stroke="black" fill="none" stroke-width="5.0" stroke-linecap="round" stroke-linejoin="round" />
<path d="M 145.0 186.0 L 145.0 186.0 L 145.0 186.0 L 145.0 185.0 L 145.0 185.0 L 145.0 185.0 L 146.0 185.0 L 146.0 186.0 L 146.0 188.0 L 147.0 191.0 L 147.0 195.0 L 147.0 200.0 L 147.0 204.0 L 147.0 210.0 L 146.0 215.0 L 146.0 220.0 L 146.0 223.0 L 146.0 225.0 L 146.0 226.0 L 147.0 226.0 L 148.0 225.0 L 151.0 221.0 L 155.0 216.0 L 160.0 210.0 L 168.0 203.0 L 172.0 200.0 " stroke="black" fill="none" stroke-width="5.0" stroke-linecap="round" stroke-linejoin="round" />
<path d="M 201.0 86.0 L 201.0 86.0 L 201.0 85.0 L 201.0 85.0 L 201.0 85.0 L 201.0 84.0 L 201.0 84.0 L 201.0 84.0 L 201.0 85.0 L 202.0 87.0 L 202.0 90.0 L 202.0 95.0 L 202.0 100.0 L 200.0 108.0 L 198.0 116.0 L 194.0 126.0 L 189.0 138.0 L 184.0 148.0 L 179.0 156.0 L 176.0 161.0 L 174.0 163.0 L 174.0 163.0 " stroke="black" fill="none" stroke-width="5.0" stroke-linecap="round" stroke-linejoin="round" />
<path d="M 200.0 122.0 L 200.0 121.0 L 199.0 121.0 L 198.0 120.0 L 197.0 120.0 L 197.0 120.0 L 197.0 120.0 L 197.0 120.0 L 198.0 120.0 L 200.0 120.0 L 204.0 119.0 L 209.0 118.0 L 216.0 117.0 L 223.0 116.0 L 231.0 115.0 L 237.0 114.0 L 242.0 113.0 L 246.0 113.0 L 249.0 113.0 L 250.0 113.0 " stroke="black" fill="none" stroke-width="5.0" stroke-linecap="round" stroke-linejoin="round" />
<path d="M 231.0 120.0 L 231.0 120.0 L 231.0 120.0 L 230.0 120.0 L 230.0 120.0 L 229.0 120.0 L 229.0 120.0 L 229.0 120.0 L 229.0 120.0 L 229.0 120.0 L 229.0 121.0 L 229.0 123.0 L 229.0 125.0 L 229.0 128.0 L 229.0 133.0 L 229.0 138.0 L 228.0 144.0 L 227.0 150.0 L 226.0 157.0 L 224.0 163.0 L 222.0 170.0 L 220.0 177.0 L 218.0 184.0 L 216.0 191.0 L 213.0 198.0 L 210.0 204.0 L 207.0 210.0 L 203.0 216.0 L 200.0 222.0 L 196.0 228.0 L 193.0 234.0 L 189.0 239.0 L 186.0 243.0 L 182.0 246.0 L 180.0 247.0 " stroke="black" fill="none" stroke-width="5.0" stroke-linecap="round" stroke-linejoin="round" />
<path d="M 191.0 146.0 L 191.0 145.0 L 190.0 144.0 L 190.0 144.0 L 190.0 143.0 L 190.0 143.0 L 190.0 143.0 L 190.0 143.0 L 191.0 145.0 L 191.0 148.0 L 192.0 152.0 L 193.0 156.0 L 194.0 161.0 L 195.0 167.0 L 197.0 174.0 L 199.0 183.0 L 202.0 192.0 L 205.0 201.0 L 210.0 209.0 L 215.0 216.0 L 220.0 222.0 L 225.0 228.0 L 229.0 232.0 L 232.0 235.0 L 235.0 238.0 L 237.0 239.0 L 239.0 239.0 L 241.0 239.0 " stroke="black" fill="none" stroke-width="5.0" stroke-linecap="round" stroke-linejoin="round" />
</svg>