<svg xmlns="http://www.w3.org/2000/svg" width="300" height="300" viewBox="0 0 300 300">
<path d="M 89.0 71.0 L 89.0 71.0 L 89.0 71.0 L 89.0 71.0 L 89.0 71.0 L 89.0 71.0 L 88.0 71.0 L 88.0 71.0 L 88.0 71.0 L 88.0 71.0 L 88.0 72.0 L 87.0 72.0 L 87.0 73.0 L 87.0 74.0 L 86.0 75.0 L 85.0 76.0 L 85.0 78.0 L 83.0 80.0 L 82.0 83.0 L 81.0 86.0 L 79.0 89.0 L 77.0 93.0 L 75.0 96.0 L 73.0 100.0 L 71.0 104.0 L 69.0 107.0 L 67.0 110.0 L 64.0 113.0 L 63.0 115.0 L 61.0 117.0 L 59.0 119.0 L 57.0 120.0 L 56.0 121.0 L 56.0 122.0 " stroke="black" fill="none" stroke-width="5.0" stroke-linecap="round" stroke-linejoin="round" />
<path d="M 96.0 110.0 L 96.0 110.0 L 96.0 110.0 L 96.0 110.0 L 96.0 110.0 L 95.0 110.0 L 95.0 110.0 L 95.0 110.0 L 95.0 110.0 L 94.0 110.0 L 94.0 111.0 L 94.0 111.0 L 94.0 112.0 L 93.0 113.0 L 93.0 114.0 L 92.0 116.0 L 91.0 118.0 L 89.0 121.0 L 87.0 124.0 L 85.0 127.0 L 82.0 131.0 L 80.0 135.0 L 77.0 139.0 L 73.0 144.0 L 70.0 148.0 L 68.0 152.0 L 65.0 156.0 L 62.0 159.0 L 61.0 161.0 L 59.0 163.0 L 57.0 164.0 L 56.0 165.0 L 54.0 166.0 L 54.0 166.0 " stroke="black" fill="none" stroke-width="5.0" stroke-linecap="round" stroke-linejoin="round" />
<path d="M 80.0 137.0 L 80.0 136.0 L 80.0 135.0 L 80.0 134.0 L 80.0 134.0 L 80.0 134.0 L 80.0 134.0 L 80.0 134.0 L 80.0 135.0 L 80.0 137.0 L 80.0 140.0 L 80.0 142.0 L 80.0 145.0 L 80.0 149.0 L 80.0 152.0 L 80.0 155.0 L 80.0 160.0 L 80.0 164.0 L 80.0 170.0 L 80.0 176.0 L 80.0 183.0 L 79.0 190.0 L 78.0 197.0 L 78.0 202.0 L 77.0 208.0 L 77.0 213.0 L 77.0 218.0 L 76.0 222.0 L 76.0 227.0 L 76.0 231.0 L 75.0 234.0 L 75.0 238.0 L 75.0 240.0 L 75.0 243.0 L 75.0 246.0 L 75.0 248.0 L 75.0 250.0 L 75.0 253.0 L 75.0 254.0 L 75.0 255.0 L 75.0 256.0 L 74.0 256.0 L 74.0 256.0 L 74.0 256.0 " stroke="black" fill="none" stroke-width="5.0" stroke-linecap="round" stroke-linejoin="round" />
<path d="M 110.0 94.0 L 110.0 94.0 L 110.0 94.0 L 110.0 95.0 L 110.0 95.0 L 110.0 95.0 L 109.0 96.0 L 109.0 96.0 L 109.0 96.0 L 109.0 97.0 L 109.0 97.0 L 109.0 98.0 L 109.0 98.0 L 109.0 99.0 L 109.0 100.0 L 109.0 102.0 L 109.0 103.0 L 109.0 104.0 L 109.0 106.0 L 109.0 108.0 L 110.0 109.0 L 110.0 111.0 L 110.0 112.0 L 110.0 114.0 L 110.0 115.0 L 110.0 116.0 L 110.0 118.0 L 110.0 119.0 L 110.0 120.0 L 110.0 122.0 L 110.0 123.0 L 110.0 124.0 L 110.0 126.0 L 110.0 127.0 L 110.0 128.0 L 110.0 129.0 L 110.0 130.0 L 110.0 130.0 L 110.0 131.0 L 110.0 132.0 L 110.0 133.0 L 110.0 133.0 L 110.0 134.0 L 110.0 134.0 L 110.0 134.0 L 110.0 134.0 L 110.0 134.0 L 110.0 134.0 L 110.0 134.0 L 110.0 134.0 L 110.0 134.0 L 110.0 134.0 L 110.0 134.0 L 110.0 134.0 L 110.0 134.0 L 110.0 134.0 L 110.0 134.0 L 110.0 134.0 L 110.0 134.0 L 110.0 134.0 L 110.0 134.0 L 110.0 134.0 L 111.0 134.0 L 112.0 134.0 L 112.0 134.0 L 113.0 134.0 L 114.0 134.0 L 115.0 134.0 L 116.0 134.0 L 117.0 134.0 L 118.0 134.0 L 119.0 134.0 L 121.0 134.0 L 122.0 134.0 L 124.0 134.0 L 125.0 134.0 L 126.0 134.0 L 128.0 134.0 L 129.0 134.0 L 131.0 134.0 L 133.0 134.0 L 134.0 134.0 L 136.0 134.0 L 137.0 134.0 L 139.0 134.0 L 140.0 134.0 L 142.0 134.0 L 143.0 134.0 L 145.0 134.0 L 146.0 134.0 L 147.0 134.0 L 149.0 134.0 L 150.0 134.0 L 151.0 134.0 L 152.0 134.0 L 153.0 134.0 L 154.0 134.0 L 155.0 134.0 L 156.0 134.0 L 157.0 134.0 L 157.0 134.0 L 158.0 134.0 L 159.0 134.0 L 159.0 134.0 L 160.0 134.0 L 160.0 134.0 L 160.0 134.0 " stroke="black" fill="none" stroke-width="5.0" stroke-linecap="round" stroke-linejoin="round" />
<path d="M 137.0 72.0 L 137.0 72.0 L 137.0 72.0 L 136.0 72.0 L 136.0 72.0 L 136.0 72.0 L 136.0 72.0 L 136.0 73.0 L 136.0 74.0 L 136.0 75.0 L 136.0 78.0 L 136.0 81.0 L 136.0 85.0 L 137.0 90.0 L 137.0 97.0 L 137.0 103.0 L 137.0 109.0 L 137.0 115.0 L 137.0 119.0 L 136.0 122.0 L 136.0 125.0 L 136.0 126.0 L 136.0 127.0 L 137.0 127.0 L 138.0 127.0 " stroke="black" fill="none" stroke-width="5.0" stroke-linecap="round" stroke-linejoin="round" />
<path d="M 161.0 99.0 L 161.0 98.0 L 161.0 98.0 L 161.0 97.0 L 161.0 97.0 L 161.0 96.0 L 161.0 96.0 L 162.0 96.0 L 162.0 96.0 L 162.0 96.0 L 162.0 97.0 L 162.0 99.0 L 162.0 102.0 L 163.0 105.0 L 163.0 109.0 L 163.0 113.0 L 163.0 118.0 L 163.0 123.0 L 163.0 128.0 L 163.0 133.0 L 163.0 137.0 L 163.0 140.0 L 163.0 143.0 L 164.0 144.0 L 164.0 144.0 " stroke="black" fill="none" stroke-width="5.0" stroke-linecap="round" stroke-linejoin="round" />
<path d="M 112.0 155.0 L 112.0 155.0 L 111.0 155.0 L 111.0 155.0 L 111.0 155.0 L 110.0 155.0 L 110.0 155.0 L 110.0 155.0 L 110.0 155.0 L 110.0 155.0 L 110.0 155.0 L 110.0 156.0 L 110.0 156.0 L 110.0 156.0 L 111.0 156.0 L 113.0 156.0 L 115.0 156.0 L 118.0 156.0 L 121.0 156.0 L 125.0 156.0 L 130.0 156.0 L 135.0 156.0 L 140.0 156.0 L 144.0 156.0 L 148.0 156.0 L 151.0 156.0 L 153.0 156.0 L 155.0 156.0 L 156.0 156.0 L 157.0 156.0 L 157.0 157.0 L 157.0 157.0 L 157.0 158.0 " stroke="black" fill="none" stroke-width="5.0" stroke-linecap="round" stroke-linejoin="round" />
<path d="M 118.0 178.0 L 118.0 178.0 L 118.0 178.0 L 118.0 178.0 L 118.0 178.0 L 118.0 178.0 L 118.0 178.0 L 118.0 178.0 L 118.0 178.0 L 118.0 178.0 L 118.0 178.0 L 118.0 178.0 L 118.0 179.0 L 118.0 181.0 L 118.0 183.0 L 118.0 185.0 L 118.0 188.0 L 118.0 191.0 L 118.0 194.0 L 118.0 198.0 L 118.0 202.0 L 118.0 206.0 L 117.0 210.0 L 116.0 214.0 L 115.0 218.0 L 114.0 223.0 L 112.0 228.0 L 110.0 232.0 L 109.0 237.0 L 107.0 240.0 " stroke="black" fill="none" stroke-width="5.0" stroke-linecap="round" stroke-linejoin="round" />
<path d="M 153.0 175.0 L 153.0 175.0 L 153.0 175.0 L 153.0 175.0 L 153.0 175.0 L 153.0 176.0 L 153.0 176.0 L 153.0 177.0 L 153.0 177.0 L 153.0 178.0 L 153.0 179.0 L 153.0 180.0 L 153.0 182.0 L 153.0 184.0 L 153.0 187.0 L 153.0 189.0 L 152.0 193.0 L 152.0 196.0 L 152.0 199.0 L 151.0 202.0 L 151.0 205.0 L 151.0 208.0 L 151.0 211.0 L 150.0 213.0 L 150.0 215.0 L 150.0 217.0 L 150.0 218.0 L 150.0 220.0 L 150.0 221.0 L 150.0 222.0 L 150.0 223.0 L 150.0 225.0 L 150.0 225.0 L 150.0 226.0 L 150.0 226.0 L 150.0 226.0 L 150.0 226.0 L 150.0 226.0 L 150.0 226.0 L 150.0 226.0 L 150.0 226.0 L 151.0 226.0 L 151.0 226.0 L 151.0 225.0 L 151.0 225.0 L 152.0 224.0 L 152.0 224.0 L 153.0 223.0 L 153.0 222.0 L 155.0 220.0 L 156.0 219.0 L 158.0 216.0 L 161.0 213.0 L 164.0 210.0 L 168.0 206.0 L 173.0 202.0 L 177.0 199.0 L 179.0 198.0 " stroke="black" fill="none" stroke-width="5.0" stroke-linecap="round" stroke-linejoin="round" />
<path d="M 201.0 76.0 L 201.0 76.0 L 201.0 76.0 L 201.0 76.0 L 200.0 77.0 L 200.0 77.0 L 200.0 78.0 L 200.0 78.0 L 200.0 79.0 L 200.0 79.0 L 200.0 80.0 L 200.0 81.0 L 200.0 82.0 L 200.0 84.0 L 200.0 85.0 L 200.0 87.0 L 200.0 90.0 L 199.0 92.0 L 199.0 95.0 L 199.0 98.0 L 198.0 100.0 L 198.0 103.0 L 198.0 105.0 L 198.0 107.0 L 198.0 109.0 L 198.0 111.0 L 197.0 112.0 L 197.0 114.0 L 196.0 115.0 L 196.0 117.0 L 195.0 119.0 L 195.0 120.0 L 194.0 122.0 L 194.0 124.0 L 193.0 126.0 L 192.0 128.0 L 192.0 130.0 L 191.0 133.0 L 190.0 136.0 L 188.0 138.0 L 187.0 142.0 L 185.0 144.0 L 184.0 147.0 L 182.0 150.0 L 181.0 150.0 " stroke="black" fill="none" stroke-width="5.0" stroke-linecap="round" stroke-linejoin="round" />
<path d="M 197.0 114.0 L 197.0 114.0 L 197.0 114.0 L 197.0 114.0 L 197.0 114.0 L 197.0 113.0 L 197.0 113.0 L 197.0 113.0 L 197.0 113.0 L 197.0 113.0 L 197.0 113.0 L 196.0 113.0 L 196.0 113.0 L 196.0 113.0 L 196.0 113.0 L 196.0 113.0 L 196.0 113.0 L 196.0 113.0 L 196.0 113.0 L 196.0 113.0 L 196.0 114.0 L 196.0 114.0 L 196.0 114.0 L 196.0 114.0 L 197.0 114.0 L 198.0 114.0 L 199.0 115.0 L 200.0 115.0 L 202.0 115.0 L 204.0 115.0 L 206.0 115.0 L 208.0 115.0 L 210.0 115.0 L 212.0 115.0 L 215.0 115.0 L 217.0 115.0 L 220.0 115.0 L 222.0 115.0 L 224.0 115.0 L 226.0 115.0 L 228.0 115.0 L 230.0 115.0 L 231.0 115.0 L 232.0 115.0 L 234.0 115.0 L 235.0 115.0 L 236.0 115.0 L 237.0 115.0 L 238.0 115.0 L 238.0 115.0 L 239.0 115.0 L 240.0 115.0 L 240.0 115.0 L 241.0 115.0 L 242.0 115.0 L 243.0 115.0 L 244.0 114.0 L 244.0 114.0 L 244.0 114.0 " stroke="black" fill="none" stroke-width="5.0" stroke-linecap="round" stroke-linejoin="round" />
<path d="M 231.0 118.0 L 231.0 118.0 L 231.0 118.0 L 231.0 117.0 L 231.0 117.0 L 231.0 117.0 L 232.0 116.0 L 232.0 116.0 L 232.0 116.0 L 232.0 116.0 L 232.0 116.0 L 232.0 116.0 L 232.0 116.0 L 232.0 116.0 L 232.0 117.0 L 232.0 118.0 L 232.0 119.0 L 232.0 120.0 L 232.0 121.0 L 232.0 122.0 L 232.0 124.0 L 232.0 125.0 L 231.0 127.0 L 231.0 128.0 L 231.0 130.0 L 231.0 131.0 L 230.0 133.0 L 230.0 135.0 L 230.0 136.0 L 229.0 138.0 L 229.0 140.0 L 229.0 142.0 L 229.0 143.0 L 228.0 145.0 L 228.0 146.0 L 228.0 148.0 L 227.0 149.0 L 227.0 150.0 L 227.0 152.0 L 227.0 153.0 L 226.0 154.0 L 226.0 155.0 L 225.0 156.0 L 225.0 157.0 L 225.0 158.0 L 224.0 159.0 L 224.0 160.0 L 223.0 161.0 L 223.0 162.0 L 223.0 163.0 L 222.0 164.0 L 222.0 165.0 L 221.0 166.0 L 221.0 167.0 L 221.0 168.0 L 220.0 169.0 L 220.0 170.0 L 219.0 171.0 L 219.0 172.0 L 219.0 173.0 L 219.0 173.0 L 218.0 174.0 L 218.0 176.0 L 217.0 177.0 L 217.0 178.0 L 216.0 179.0 L 216.0 180.0 L 215.0 182.0 L 215.0 183.0 L 214.0 184.0 L 214.0 185.0 L 213.0 186.0 L 213.0 187.0 L 212.0 188.0 L 212.0 189.0 L 211.0 190.0 L 211.0 191.0 L 210.0 192.0 L 209.0 193.0 L 209.0 194.0 L 208.0 195.0 L 208.0 196.0 L 208.0 196.0 L 207.0 197.0 L 207.0 198.0 L 206.0 199.0 L 206.0 200.0 L 205.0 201.0 L 205.0 202.0 L 205.0 202.0 L 204.0 203.0 L 204.0 204.0 L 204.0 204.0 L 204.0 205.0 L 204.0 205.0 L 203.0 206.0 L 203.0 206.0 L 203.0 207.0 L 202.0 208.0 L 202.0 209.0 L 201.0 210.0 L 201.0 210.0 L 200.0 211.0 L 200.0 212.0 L 199.0 213.0 L 199.0 214.0 L 199.0 214.0 L 198.0 215.0 L 198.0 216.0 L 198.0 217.0 L 197.0 218.0 L 197.0 219.0 L 196.0 220.0 L 196.0 220.0 L 196.0 221.0 L 195.0 222.0 L 195.0 223.0 L 194.0 224.0 L 194.0 225.0 L 194.0 226.0 L 193.0 227.0 L 193.0 229.0 L 192.0 230.0 L 192.0 231.0 L 191.0 232.0 L 190.0 233.0 L 189.0 235.0 L 189.0 236.0 L 187.0 238.0 L 186.0 239.0 L 185.0 241.0 L 184.0 242.0 L 183.0 244.0 L 181.0 245.0 L 180.0 245.0 " stroke="black" fill="none" stroke-width="5.0" stroke-linecap="round" stroke-linejoin="round" />
<path d="M 194.0 137.0 L 194.0 137.0 L 194.0 137.0 L 194.0 138.0 L 194.0 138.0 L 194.0 139.0 L 194.0 140.0 L 194.0 141.0 L 194.0 142.0 L 194.0 144.0 L 194.0 145.0 L 194.0 147.0 L 194.0 149.0 L 194.0 152.0 L 194.0 154.0 L 194.0 156.0 L 194.0 158.0 L 194.0 161.0 L 194.0 163.0 L 194.0 165.0 L 194.0 168.0 L 194.0 170.0 L 194.0 172.0 L 194.0 174.0 L 194.0 177.0 L 195.0 179.0 L 195.0 181.0 L 195.0 183.0 L 195.0 185.0 L 195.0 187.0 L 196.0 189.0 L 196.0 190.0 L 196.0 192.0 L 197.0 194.0 L 197.0 195.0 L 198.0 197.0 L 198.0 199.0 L 199.0 200.0 L 199.0 202.0 L 200.0 203.0 L 201.0 205.0 L 201.0 206.0 L 202.0 207.0 L 202.0 208.0 L 203.0 209.0 L 204.0 210.0 L 204.0 211.0 L 204.0 212.0 L 205.0 213.0 L 205.0 214.0 L 206.0 215.0 L 207.0 216.0 L 208.0 218.0 L 208.0 219.0 L 209.0 220.0 L 210.0 222.0 L 211.0 223.0 L 212.0 225.0 L 213.0 226.0 L 214.0 228.0 L 215.0 229.0 L 216.0 230.0 L 217.0 232.0 L 218.0 233.0 L 219.0 233.0 L 220.0 234.0 L 221.0 235.0 L 222.0 236.0 L 223.0 236.0 L 224.0 237.0 L 224.0 237.0 L 225.0 238.0 L 226.0 239.0 L 227.0 239.0 L 227.0 240.0 L 228.0 240.0 L 228.0 241.0 L 229.0 241.0 L 229.0 242.0 L 230.0 242.0 L 230.0 242.0 L 230.0 242.0 L 230.0 242.0 L 230.0 243.0 L 230.0 243.0 L 231.0 243.0 L 231.0 243.0 L 231.0 243.0 L 231.0 242.0 L 231.0 242.0 L 231.0 241.0 " stroke="black" fill="none" stroke-width="5.0" stroke-linecap="round" stroke-linejoin="round" />
</svg>