<svg xmlns="http://www.w3.org/2000/svg" width="300" height="300" viewBox="0 0 300 300">
<path d="M 65.0 114.0 L 65.0 114.0 L 65.0 114.0 L 65.0 114.0 L 65.0 114.0 L 65.0 114.0 L 65.0 114.0 L 64.0 114.0 L 64.0 116.0 L 64.0 120.0 L 64.0 126.0 L 63.0 134.0 L 63.0 144.0 L 62.0 155.0 L 61.0 163.0 L 61.0 166.0 " stroke="black" fill="none" stroke-width="5.0" stroke-linecap="round" stroke-linejoin="round" />
<path d="M 88.0 72.0 L 88.0 72.0 L 87.0 72.0 L 87.0 72.0 L 87.0 72.0 L 86.0 72.0 L 86.0 72.0 L 86.0 73.0 L 86.0 73.0 L 86.0 73.0 L 86.0 74.0 L 86.0 75.0 L 87.0 75.0 L 87.0 76.0 L 87.0 78.0 L 87.0 79.0 L 87.0 80.0 L 87.0 82.0 L 87.0 84.0 L 87.0 86.0 L 87.0 88.0 L 87.0 91.0 L 88.0 93.0 L 88.0 96.0 L 88.0 98.0 L 88.0 100.0 L 88.0 103.0 L 88.0 105.0 L 88.0 107.0 L 88.0 109.0 L 88.0 111.0 L 88.0 113.0 L 88.0 115.0 L 88.0 117.0 L 88.0 119.0 L 88.0 121.0 L 87.0 123.0 L 87.0 124.0 L 87.0 126.0 L 87.0 127.0 L 87.0 128.0 L 87.0 129.0 L 87.0 130.0 L 87.0 132.0 L 87.0 134.0 L 87.0 135.0 L 87.0 137.0 L 87.0 139.0 L 87.0 141.0 L 87.0 142.0 L 87.0 144.0 L 87.0 146.0 L 87.0 148.0 L 87.0 150.0 L 87.0 152.0 L 87.0 154.0 L 87.0 156.0 L 87.0 158.0 L 87.0 159.0 L 86.0 162.0 L 86.0 163.0 L 86.0 165.0 L 85.0 167.0 L 85.0 169.0 L 85.0 171.0 L 85.0 173.0 L 84.0 175.0 L 84.0 178.0 L 84.0 182.0 L 84.0 185.0 L 84.0 189.0 L 84.0 193.0 L 84.0 196.0 L 84.0 199.0 L 84.0 202.0 L 84.0 205.0 L 84.0 207.0 L 84.0 211.0 L 84.0 214.0 L 84.0 217.0 L 84.0 222.0 L 84.0 225.0 L 84.0 229.0 L 84.0 233.0 L 84.0 236.0 L 83.0 239.0 L 83.0 241.0 L 83.0 241.0 " stroke="black" fill="none" stroke-width="5.0" stroke-linecap="round" stroke-linejoin="round" />
<path d="M 103.0 108.0 L 103.0 108.0 L 103.0 108.0 L 102.0 108.0 L 102.0 108.0 L 102.0 108.0 L 102.0 109.0 L 102.0 111.0 L 103.0 114.0 L 104.0 117.0 L 105.0 121.0 L 106.0 125.0 L 107.0 130.0 L 108.0 134.0 L 109.0 136.0 " stroke="black" fill="none" stroke-width="5.0" stroke-linecap="round" stroke-linejoin="round" />
<path d="M 163.0 64.0 L 163.0 64.0 L 163.0 64.0 L 163.0 64.0 L 163.0 64.0 L 164.0 64.0 L 165.0 64.0 L 166.0 65.0 L 168.0 68.0 L 171.0 71.0 L 173.0 74.0 L 175.0 77.0 L 177.0 80.0 L 178.0 81.0 " stroke="black" fill="none" stroke-width="5.0" stroke-linecap="round" stroke-linejoin="round" />
<path d="M 127.0 84.0 L 127.0 84.0 L 127.0 84.0 L 126.0 84.0 L 126.0 84.0 L 126.0 84.0 L 125.0 84.0 L 125.0 84.0 L 125.0 84.0 L 126.0 84.0 L 127.0 84.0 L 130.0 84.0 L 133.0 83.0 L 137.0 83.0 L 142.0 83.0 L 147.0 83.0 L 154.0 83.0 L 161.0 83.0 L 169.0 84.0 L 179.0 84.0 L 187.0 85.0 L 193.0 85.0 L 199.0 85.0 L 203.0 85.0 L 207.0 85.0 L 211.0 85.0 L 215.0 85.0 L 219.0 85.0 L 223.0 86.0 L 225.0 86.0 L 227.0 87.0 L 228.0 87.0 " stroke="black" fill="none" stroke-width="5.0" stroke-linecap="round" stroke-linejoin="round" />
<path d="M 127.0 119.0 L 127.0 120.0 L 127.0 121.0 L 127.0 123.0 L 127.0 125.0 L 127.0 127.0 L 127.0 129.0 L 128.0 131.0 L 128.0 134.0 L 129.0 135.0 L 129.0 136.0 " stroke="black" fill="none" stroke-width="5.0" stroke-linecap="round" stroke-linejoin="round" />
<path d="M 130.0 109.0 L 130.0 109.0 L 129.0 109.0 L 128.0 109.0 L 127.0 109.0 L 127.0 109.0 L 126.0 108.0 L 126.0 108.0 L 126.0 108.0 L 126.0 108.0 L 126.0 108.0 L 126.0 108.0 L 126.0 108.0 L 127.0 108.0 L 128.0 108.0 L 129.0 108.0 L 130.0 108.0 L 131.0 108.0 L 132.0 108.0 L 133.0 108.0 L 135.0 108.0 L 136.0 108.0 L 137.0 108.0 L 138.0 108.0 L 140.0 107.0 L 141.0 107.0 L 142.0 107.0 L 144.0 107.0 L 145.0 107.0 L 146.0 107.0 L 147.0 107.0 L 148.0 106.0 L 150.0 106.0 L 151.0 106.0 L 152.0 106.0 L 153.0 106.0 L 155.0 106.0 L 156.0 105.0 L 157.0 105.0 L 159.0 105.0 L 161.0 105.0 L 163.0 105.0 L 165.0 105.0 L 166.0 105.0 L 168.0 105.0 L 170.0 105.0 L 172.0 105.0 L 174.0 105.0 L 176.0 105.0 L 178.0 105.0 L 179.0 106.0 L 181.0 106.0 L 183.0 106.0 L 185.0 106.0 L 187.0 107.0 L 188.0 107.0 L 190.0 107.0 L 191.0 107.0 L 193.0 107.0 L 194.0 108.0 L 196.0 108.0 L 197.0 108.0 L 198.0 108.0 L 199.0 108.0 L 200.0 109.0 L 202.0 109.0 L 204.0 109.0 L 205.0 109.0 L 207.0 110.0 L 209.0 110.0 L 210.0 110.0 L 212.0 111.0 L 214.0 111.0 L 216.0 111.0 L 217.0 112.0 L 219.0 112.0 L 220.0 113.0 L 220.0 114.0 L 221.0 114.0 L 221.0 116.0 L 222.0 117.0 L 222.0 119.0 L 222.0 121.0 L 222.0 123.0 L 222.0 126.0 L 221.0 129.0 L 221.0 132.0 L 220.0 134.0 L 220.0 136.0 " stroke="black" fill="none" stroke-width="5.0" stroke-linecap="round" stroke-linejoin="round" />
<path d="M 160.0 112.0 L 160.0 112.0 L 160.0 112.0 L 160.0 112.0 L 160.0 112.0 L 160.0 113.0 L 160.0 115.0 L 161.0 118.0 L 161.0 123.0 L 161.0 127.0 L 161.0 132.0 L 161.0 136.0 L 161.0 139.0 L 162.0 139.0 " stroke="black" fill="none" stroke-width="5.0" stroke-linecap="round" stroke-linejoin="round" />
<path d="M 192.0 114.0 L 192.0 114.0 L 192.0 114.0 L 192.0 115.0 L 192.0 116.0 L 192.0 117.0 L 192.0 119.0 L 192.0 121.0 L 192.0 123.0 L 191.0 126.0 L 191.0 128.0 L 191.0 131.0 L 190.0 133.0 " stroke="black" fill="none" stroke-width="5.0" stroke-linecap="round" stroke-linejoin="round" />
<path d="M 133.0 144.0 L 131.0 144.0 L 129.0 144.0 L 128.0 144.0 L 127.0 144.0 L 127.0 144.0 L 127.0 143.0 L 128.0 143.0 L 131.0 142.0 L 134.0 141.0 L 139.0 141.0 L 144.0 140.0 L 149.0 139.0 L 155.0 139.0 L 161.0 139.0 L 170.0 139.0 L 178.0 139.0 L 187.0 139.0 L 194.0 140.0 L 200.0 141.0 L 204.0 141.0 L 210.0 141.0 L 215.0 141.0 L 220.0 141.0 L 224.0 141.0 L 226.0 141.0 " stroke="black" fill="none" stroke-width="5.0" stroke-linecap="round" stroke-linejoin="round" />
<path d="M 171.0 151.0 L 171.0 151.0 L 171.0 151.0 L 171.0 151.0 L 171.0 152.0 L 171.0 153.0 L 172.0 155.0 L 172.0 158.0 L 172.0 162.0 L 172.0 167.0 L 172.0 173.0 L 172.0 180.0 L 170.0 185.0 L 170.0 188.0 " stroke="black" fill="none" stroke-width="5.0" stroke-linecap="round" stroke-linejoin="round" />
<path d="M 137.0 161.0 L 136.0 161.0 L 134.0 161.0 L 132.0 160.0 L 130.0 160.0 L 130.0 160.0 L 130.0 160.0 L 130.0 160.0 L 131.0 160.0 L 133.0 161.0 L 135.0 161.0 L 138.0 163.0 L 141.0 164.0 L 143.0 165.0 L 146.0 166.0 L 148.0 168.0 L 149.0 168.0 " stroke="black" fill="none" stroke-width="5.0" stroke-linecap="round" stroke-linejoin="round" />
<path d="M 132.0 182.0 L 129.0 182.0 L 126.0 183.0 L 124.0 183.0 L 123.0 183.0 L 123.0 183.0 L 125.0 183.0 L 128.0 183.0 L 132.0 182.0 L 138.0 180.0 L 144.0 178.0 L 151.0 175.0 L 159.0 172.0 " stroke="black" fill="none" stroke-width="5.0" stroke-linecap="round" stroke-linejoin="round" />
<path d="M 228.0 155.0 L 228.0 155.0 L 227.0 155.0 L 226.0 156.0 L 225.0 156.0 L 225.0 156.0 L 224.0 156.0 L 224.0 156.0 L 223.0 157.0 L 221.0 157.0 L 220.0 158.0 L 217.0 159.0 L 213.0 161.0 L 209.0 164.0 L 204.0 166.0 L 200.0 169.0 " stroke="black" fill="none" stroke-width="5.0" stroke-linecap="round" stroke-linejoin="round" />
<path d="M 201.0 173.0 L 201.0 173.0 L 201.0 173.0 L 201.0 173.0 L 202.0 173.0 L 204.0 174.0 L 207.0 175.0 L 211.0 175.0 L 216.0 176.0 L 222.0 177.0 L 227.0 178.0 L 231.0 179.0 L 232.0 180.0 " stroke="black" fill="none" stroke-width="5.0" stroke-linecap="round" stroke-linejoin="round" />
<path d="M 171.0 198.0 L 171.0 198.0 L 171.0 198.0 L 171.0 198.0 L 171.0 198.0 L 170.0 198.0 L 169.0 199.0 L 168.0 200.0 L 165.0 201.0 L 161.0 202.0 L 157.0 205.0 L 153.0 207.0 L 148.0 209.0 L 143.0 213.0 L 137.0 215.0 L 131.0 218.0 L 128.0 220.0 " stroke="black" fill="none" stroke-width="5.0" stroke-linecap="round" stroke-linejoin="round" />
<path d="M 141.0 211.0 L 141.0 211.0 L 141.0 212.0 L 141.0 212.0 L 141.0 213.0 L 141.0 214.0 L 142.0 216.0 L 142.0 218.0 L 142.0 221.0 L 142.0 225.0 L 142.0 230.0 L 142.0 235.0 L 142.0 239.0 L 142.0 243.0 L 142.0 247.0 L 142.0 250.0 L 143.0 252.0 L 144.0 253.0 L 144.0 254.0 L 146.0 254.0 L 147.0 254.0 L 149.0 253.0 L 152.0 251.0 L 155.0 248.0 L 160.0 245.0 L 166.0 241.0 L 171.0 238.0 L 177.0 235.0 L 182.0 233.0 L 184.0 232.0 " stroke="black" fill="none" stroke-width="5.0" stroke-linecap="round" stroke-linejoin="round" />
<path d="M 225.0 204.0 L 225.0 204.0 L 224.0 204.0 L 223.0 204.0 L 222.0 205.0 L 220.0 205.0 L 218.0 206.0 L 215.0 207.0 L 213.0 208.0 L 210.0 210.0 L 206.0 212.0 L 203.0 214.0 L 199.0 216.0 L 195.0 219.0 L 193.0 221.0 L 191.0 221.0 " stroke="black" fill="none" stroke-width="5.0" stroke-linecap="round" stroke-linejoin="round" />
<path d="M 177.0 213.0 L 177.0 213.0 L 175.0 213.0 L 174.0 213.0 L 173.0 213.0 L 173.0 213.0 L 173.0 214.0 L 174.0 214.0 L 176.0 215.0 L 178.0 216.0 L 181.0 218.0 L 185.0 220.0 L 188.0 223.0 L 191.0 226.0 L 194.0 230.0 L 198.0 233.0 L 203.0 237.0 L 209.0 241.0 L 216.0 243.0 L 223.0 245.0 L 229.0 247.0 L 234.0 247.0 L 237.0 247.0 L 240.0 247.0 L 241.0 247.0 L 243.0 247.0 L 243.0 247.0 " stroke="black" fill="none" stroke-width="5.0" stroke-linecap="round" stroke-linejoin="round" />
</svg>