<svg xmlns="http://www.w3.org/2000/svg" width="300" height="300" viewBox="0 0 300 300">
<path d="M 72.0 83.0 L 72.0 83.0 L 72.0 83.0 L 72.0 83.0 L 72.0 82.0 L 72.0 82.0 L 72.0 82.0 L 72.0 82.0 L 73.0 82.0 L 75.0 84.0 L 78.0 85.0 L 81.0 87.0 L 85.0 89.0 L 89.0 91.0 L 94.0 94.0 L 98.0 96.0 L 99.0 97.0 " stroke="black" fill="none" stroke-width="5.0" stroke-linecap="round" stroke-linejoin="round" />
<path d="M 68.0 136.0 L 68.0 136.0 L 68.0 136.0 L 67.0 136.0 L 67.0 136.0 L 67.0 136.0 L 68.0 137.0 L 69.0 138.0 L 72.0 140.0 L 75.0 142.0 L 79.0 144.0 L 83.0 146.0 L 88.0 149.0 " stroke="black" fill="none" stroke-width="5.0" stroke-linecap="round" stroke-linejoin="round" />
<path d="M 68.0 245.0 L 68.0 245.0 L 68.0 245.0 L 68.0 245.0 L 68.0 245.0 L 68.0 245.0 L 68.0 243.0 L 69.0 239.0 L 72.0 233.0 L 77.0 223.0 L 84.0 210.0 L 92.0 197.0 L 96.0 190.0 " stroke="black" fill="none" stroke-width="5.0" stroke-linecap="round" stroke-linejoin="round" />
<path d="M 134.0 75.0 L 133.0 75.0 L 132.0 75.0 L 131.0 75.0 L 130.0 75.0 L 130.0 76.0 L 131.0 78.0 L 132.0 79.0 L 135.0 81.0 L 137.0 83.0 L 140.0 85.0 L 142.0 87.0 L 143.0 88.0 " stroke="black" fill="none" stroke-width="5.0" stroke-linecap="round" stroke-linejoin="round" />
<path d="M 113.0 110.0 L 112.0 110.0 L 111.0 110.0 L 109.0 110.0 L 108.0 110.0 L 108.0 110.0 L 107.0 110.0 L 107.0 110.0 L 107.0 110.0 L 107.0 110.0 L 109.0 111.0 L 112.0 111.0 L 116.0 111.0 L 122.0 111.0 L 128.0 110.0 L 135.0 110.0 L 142.0 109.0 L 148.0 108.0 L 153.0 108.0 L 156.0 108.0 L 157.0 109.0 " stroke="black" fill="none" stroke-width="5.0" stroke-linecap="round" stroke-linejoin="round" />
<path d="M 130.0 155.0 L 130.0 155.0 L 130.0 154.0 L 129.0 154.0 L 128.0 154.0 L 128.0 153.0 L 128.0 153.0 L 128.0 153.0 L 128.0 152.0 L 128.0 152.0 L 128.0 152.0 L 128.0 152.0 L 129.0 152.0 L 130.0 152.0 L 131.0 152.0 L 133.0 152.0 L 135.0 152.0 L 138.0 152.0 L 140.0 152.0 L 143.0 152.0 L 146.0 151.0 L 148.0 151.0 L 151.0 151.0 L 153.0 151.0 L 155.0 151.0 L 156.0 151.0 L 158.0 151.0 L 159.0 151.0 L 159.0 152.0 L 160.0 152.0 L 160.0 153.0 L 160.0 154.0 L 160.0 155.0 L 160.0 156.0 L 160.0 157.0 L 160.0 159.0 L 160.0 160.0 L 159.0 162.0 L 159.0 164.0 L 158.0 166.0 L 158.0 168.0 L 157.0 170.0 L 157.0 173.0 L 156.0 175.0 L 156.0 178.0 L 156.0 182.0 L 155.0 185.0 L 155.0 189.0 L 155.0 192.0 L 155.0 195.0 L 155.0 199.0 L 154.0 202.0 L 154.0 205.0 L 154.0 208.0 L 154.0 211.0 L 154.0 214.0 L 154.0 217.0 L 154.0 219.0 L 154.0 221.0 L 154.0 224.0 L 154.0 226.0 L 154.0 228.0 L 154.0 230.0 L 154.0 232.0 L 153.0 233.0 L 153.0 234.0 L 153.0 235.0 L 153.0 236.0 L 152.0 237.0 L 152.0 238.0 L 152.0 239.0 L 151.0 241.0 L 151.0 242.0 L 151.0 243.0 L 150.0 244.0 L 150.0 245.0 L 150.0 246.0 L 150.0 247.0 L 149.0 247.0 L 149.0 248.0 L 149.0 249.0 L 148.0 249.0 L 148.0 250.0 L 147.0 250.0 L 147.0 250.0 L 146.0 250.0 L 145.0 250.0 L 143.0 249.0 L 142.0 248.0 L 140.0 246.0 L 138.0 244.0 L 137.0 242.0 L 134.0 240.0 L 133.0 239.0 " stroke="black" fill="none" stroke-width="5.0" stroke-linecap="round" stroke-linejoin="round" />
<path d="M 131.0 118.0 L 131.0 118.0 L 131.0 118.0 L 131.0 118.0 L 131.0 118.0 L 131.0 119.0 L 131.0 119.0 L 131.0 120.0 L 131.0 121.0 L 131.0 122.0 L 131.0 124.0 L 131.0 127.0 L 130.0 131.0 L 130.0 136.0 L 129.0 142.0 L 128.0 148.0 L 128.0 155.0 L 127.0 161.0 L 126.0 166.0 L 125.0 172.0 L 125.0 178.0 L 124.0 184.0 L 123.0 191.0 L 121.0 197.0 L 120.0 203.0 L 118.0 209.0 L 116.0 213.0 L 114.0 218.0 L 112.0 222.0 L 110.0 227.0 L 108.0 231.0 L 107.0 236.0 L 105.0 239.0 L 103.0 243.0 L 101.0 247.0 L 100.0 249.0 L 98.0 250.0 " stroke="black" fill="none" stroke-width="5.0" stroke-linecap="round" stroke-linejoin="round" />
<path d="M 193.0 79.0 L 193.0 79.0 L 193.0 79.0 L 192.0 78.0 L 192.0 78.0 L 192.0 77.0 L 192.0 77.0 L 192.0 77.0 L 192.0 77.0 L 192.0 77.0 L 192.0 77.0 L 192.0 77.0 L 192.0 79.0 L 192.0 82.0 L 192.0 87.0 L 191.0 94.0 L 189.0 102.0 L 186.0 110.0 L 183.0 118.0 L 180.0 124.0 L 177.0 128.0 L 175.0 131.0 L 173.0 132.0 L 173.0 132.0 " stroke="black" fill="none" stroke-width="5.0" stroke-linecap="round" stroke-linejoin="round" />
<path d="M 191.0 102.0 L 191.0 102.0 L 190.0 102.0 L 189.0 102.0 L 189.0 102.0 L 188.0 102.0 L 188.0 102.0 L 188.0 102.0 L 189.0 102.0 L 191.0 102.0 L 193.0 102.0 L 195.0 101.0 L 198.0 101.0 L 202.0 100.0 L 206.0 100.0 L 211.0 100.0 L 217.0 100.0 L 223.0 100.0 L 229.0 100.0 L 234.0 100.0 L 237.0 100.0 L 239.0 100.0 L 240.0 101.0 " stroke="black" fill="none" stroke-width="5.0" stroke-linecap="round" stroke-linejoin="round" />
<path d="M 191.0 138.0 L 191.0 138.0 L 191.0 138.0 L 190.0 138.0 L 190.0 137.0 L 189.0 137.0 L 189.0 137.0 L 189.0 137.0 L 189.0 137.0 L 189.0 137.0 L 189.0 137.0 L 189.0 137.0 L 189.0 137.0 L 189.0 137.0 L 190.0 137.0 L 191.0 137.0 L 191.0 137.0 L 193.0 137.0 L 194.0 137.0 L 195.0 137.0 L 197.0 137.0 L 198.0 137.0 L 200.0 137.0 L 203.0 137.0 L 205.0 137.0 L 208.0 137.0 L 211.0 137.0 L 214.0 138.0 L 218.0 138.0 L 221.0 138.0 L 224.0 138.0 L 227.0 138.0 L 229.0 138.0 L 231.0 138.0 L 233.0 139.0 L 234.0 139.0 L 235.0 140.0 L 236.0 141.0 L 236.0 141.0 L 236.0 141.0 L 236.0 141.0 L 236.0 141.0 L 236.0 141.0 L 236.0 141.0 L 236.0 142.0 L 236.0 142.0 L 235.0 142.0 L 235.0 143.0 L 234.0 143.0 L 234.0 144.0 L 233.0 145.0 L 232.0 146.0 L 232.0 146.0 L 231.0 147.0 L 230.0 148.0 L 229.0 149.0 L 227.0 151.0 L 226.0 152.0 L 224.0 154.0 L 223.0 155.0 L 221.0 158.0 L 218.0 159.0 L 216.0 161.0 L 214.0 163.0 L 213.0 164.0 L 211.0 165.0 L 209.0 166.0 L 208.0 167.0 L 207.0 167.0 L 206.0 167.0 L 206.0 168.0 L 206.0 168.0 L 206.0 168.0 L 206.0 168.0 L 206.0 168.0 L 206.0 169.0 L 206.0 169.0 L 207.0 170.0 L 207.0 170.0 L 208.0 171.0 L 209.0 172.0 L 209.0 173.0 L 210.0 174.0 L 210.0 176.0 L 210.0 177.0 L 211.0 179.0 L 211.0 181.0 L 212.0 184.0 L 212.0 186.0 L 212.0 188.0 L 213.0 191.0 L 213.0 193.0 L 213.0 195.0 L 213.0 197.0 L 213.0 199.0 L 213.0 202.0 L 213.0 204.0 L 213.0 206.0 L 213.0 208.0 L 213.0 210.0 L 213.0 212.0 L 213.0 214.0 L 212.0 217.0 L 212.0 219.0 L 212.0 221.0 L 211.0 223.0 L 211.0 225.0 L 211.0 227.0 L 210.0 230.0 L 210.0 232.0 L 209.0 235.0 L 208.0 237.0 L 208.0 239.0 L 207.0 240.0 L 206.0 241.0 L 206.0 242.0 L 205.0 243.0 L 204.0 244.0 L 203.0 244.0 L 201.0 244.0 L 200.0 245.0 L 198.0 245.0 L 197.0 245.0 L 196.0 245.0 L 194.0 245.0 L 193.0 245.0 L 193.0 245.0 L 192.0 245.0 L 191.0 244.0 L 190.0 243.0 L 189.0 241.0 L 189.0 240.0 " stroke="black" fill="none" stroke-width="5.0" stroke-linecap="round" stroke-linejoin="round" />
<path d="M 184.0 185.0 L 184.0 185.0 L 183.0 185.0 L 183.0 185.0 L 182.0 185.0 L 182.0 185.0 L 182.0 185.0 L 183.0 186.0 L 185.0 186.0 L 187.0 186.0 L 189.0 186.0 L 191.0 186.0 L 194.0 186.0 L 198.0 186.0 L 203.0 186.0 L 209.0 186.0 L 216.0 187.0 L 223.0 187.0 L 229.0 187.0 L 234.0 188.0 L 237.0 188.0 L 240.0 188.0 L 241.0 188.0 L 243.0 188.0 L 243.0 188.0 L 244.0 188.0 L 244.0 188.0 " stroke="black" fill="none" stroke-width="5.0" stroke-linecap="round" stroke-linejoin="round" />
</svg>