<svg xmlns="http://www.w3.org/2000/svg" width="300" height="300" viewBox="0 0 300 300">
<path d="M 71.0 78.0 L 71.0 78.0 L 71.0 78.0 L 71.0 78.0 L 70.0 78.0 L 70.0 78.0 L 70.0 78.0 L 70.0 78.0 L 70.0 78.0 L 70.0 78.0 L 70.0 78.0 L 70.0 80.0 L 70.0 81.0 L 70.0 83.0 L 71.0 85.0 L 71.0 87.0 L 71.0 90.0 L 72.0 93.0 L 72.0 97.0 L 72.0 102.0 L 72.0 106.0 L 72.0 110.0 L 72.0 114.0 L 72.0 118.0 L 72.0 121.0 L 72.0 125.0 L 72.0 129.0 L 72.0 133.0 L 72.0 137.0 L 72.0 141.0 L 72.0 145.0 L 72.0 149.0 L 72.0 153.0 L 72.0 156.0 L 72.0 160.0 L 71.0 163.0 L 71.0 166.0 L 71.0 170.0 L 71.0 173.0 L 71.0 175.0 L 71.0 179.0 L 71.0 182.0 L 70.0 186.0 L 70.0 190.0 L 70.0 193.0 L 70.0 197.0 L 70.0 201.0 L 70.0 204.0 L 70.0 208.0 L 70.0 212.0 L 70.0 215.0 L 70.0 219.0 L 70.0 223.0 L 70.0 227.0 L 70.0 231.0 L 70.0 235.0 L 70.0 238.0 L 70.0 240.0 L 70.0 242.0 L 70.0 243.0 L 70.0 243.0 L 70.0 244.0 L 70.0 244.0 L 70.0 244.0 L 69.0 243.0 " stroke="black" fill="none" stroke-width="5.0" stroke-linecap="round" stroke-linejoin="round" />
<path d="M 82.0 79.0 L 82.0 79.0 L 81.0 79.0 L 80.0 79.0 L 80.0 79.0 L 80.0 79.0 L 79.0 79.0 L 79.0 79.0 L 79.0 79.0 L 80.0 79.0 L 82.0 79.0 L 83.0 79.0 L 85.0 79.0 L 88.0 79.0 L 91.0 79.0 L 93.0 79.0 L 96.0 79.0 L 99.0 79.0 L 102.0 79.0 L 104.0 80.0 L 107.0 80.0 L 110.0 80.0 L 112.0 80.0 L 115.0 81.0 L 117.0 81.0 L 119.0 81.0 L 121.0 82.0 L 123.0 82.0 L 125.0 82.0 L 126.0 82.0 L 126.0 82.0 L 127.0 83.0 L 128.0 83.0 L 128.0 83.0 L 129.0 83.0 L 129.0 84.0 L 130.0 84.0 L 130.0 84.0 L 130.0 85.0 L 130.0 86.0 L 131.0 87.0 L 131.0 88.0 L 131.0 90.0 L 131.0 92.0 L 131.0 95.0 L 131.0 99.0 L 131.0 104.0 L 131.0 109.0 L 131.0 114.0 L 130.0 119.0 L 130.0 124.0 L 130.0 128.0 L 129.0 131.0 L 129.0 133.0 L 129.0 135.0 L 129.0 136.0 L 129.0 136.0 L 128.0 136.0 L 128.0 136.0 " stroke="black" fill="none" stroke-width="5.0" stroke-linecap="round" stroke-linejoin="round" />
<path d="M 89.0 112.0 L 88.0 112.0 L 86.0 111.0 L 85.0 111.0 L 84.0 111.0 L 84.0 111.0 L 84.0 110.0 L 84.0 110.0 L 85.0 110.0 L 87.0 110.0 L 90.0 110.0 L 93.0 110.0 L 97.0 110.0 L 102.0 110.0 L 106.0 110.0 L 110.0 110.0 L 115.0 110.0 L 120.0 111.0 L 125.0 111.0 L 130.0 112.0 " stroke="black" fill="none" stroke-width="5.0" stroke-linecap="round" stroke-linejoin="round" />
<path d="M 85.0 139.0 L 84.0 139.0 L 81.0 139.0 L 79.0 139.0 L 78.0 139.0 L 78.0 139.0 L 78.0 139.0 L 79.0 139.0 L 81.0 139.0 L 85.0 139.0 L 89.0 139.0 L 95.0 138.0 L 101.0 137.0 L 107.0 136.0 L 113.0 135.0 L 121.0 134.0 L 125.0 133.0 " stroke="black" fill="none" stroke-width="5.0" stroke-linecap="round" stroke-linejoin="round" />
<path d="M 163.0 81.0 L 163.0 81.0 L 163.0 81.0 L 163.0 81.0 L 163.0 81.0 L 163.0 81.0 L 163.0 81.0 L 163.0 81.0 L 163.0 82.0 L 163.0 84.0 L 163.0 87.0 L 164.0 92.0 L 165.0 99.0 L 165.0 107.0 L 165.0 115.0 L 165.0 123.0 L 165.0 130.0 L 165.0 136.0 L 165.0 140.0 L 166.0 141.0 L 166.0 141.0 " stroke="black" fill="none" stroke-width="5.0" stroke-linecap="round" stroke-linejoin="round" />
<path d="M 173.0 80.0 L 173.0 80.0 L 172.0 80.0 L 171.0 80.0 L 170.0 80.0 L 170.0 80.0 L 169.0 79.0 L 169.0 79.0 L 169.0 79.0 L 169.0 78.0 L 169.0 78.0 L 170.0 78.0 L 171.0 77.0 L 172.0 77.0 L 173.0 77.0 L 174.0 77.0 L 175.0 77.0 L 177.0 77.0 L 178.0 77.0 L 180.0 77.0 L 181.0 77.0 L 183.0 77.0 L 185.0 77.0 L 187.0 77.0 L 189.0 77.0 L 191.0 77.0 L 193.0 77.0 L 194.0 77.0 L 196.0 77.0 L 197.0 77.0 L 199.0 77.0 L 200.0 77.0 L 202.0 77.0 L 204.0 77.0 L 206.0 77.0 L 207.0 77.0 L 209.0 77.0 L 211.0 77.0 L 213.0 77.0 L 216.0 77.0 L 217.0 77.0 L 219.0 77.0 L 221.0 76.0 L 223.0 76.0 L 225.0 76.0 L 226.0 76.0 L 228.0 76.0 L 229.0 76.0 L 230.0 76.0 L 231.0 76.0 L 232.0 76.0 L 232.0 76.0 L 233.0 76.0 L 233.0 76.0 L 234.0 76.0 L 234.0 76.0 L 234.0 77.0 L 235.0 77.0 L 235.0 77.0 L 235.0 78.0 L 235.0 78.0 L 235.0 79.0 L 235.0 81.0 L 235.0 82.0 L 235.0 85.0 L 235.0 88.0 L 235.0 92.0 L 235.0 96.0 L 235.0 101.0 L 234.0 106.0 L 234.0 111.0 L 233.0 115.0 L 233.0 120.0 L 233.0 125.0 L 233.0 129.0 L 232.0 134.0 L 232.0 138.0 L 232.0 142.0 L 231.0 146.0 L 231.0 150.0 L 231.0 152.0 L 231.0 156.0 L 231.0 158.0 L 231.0 161.0 L 231.0 164.0 L 231.0 166.0 L 231.0 169.0 L 231.0 172.0 L 231.0 175.0 L 231.0 178.0 L 231.0 181.0 L 230.0 184.0 L 230.0 187.0 L 230.0 190.0 L 230.0 193.0 L 230.0 196.0 L 230.0 198.0 L 230.0 201.0 L 230.0 203.0 L 230.0 206.0 L 230.0 209.0 L 230.0 211.0 L 230.0 214.0 L 230.0 217.0 L 230.0 219.0 L 230.0 221.0 L 230.0 223.0 L 230.0 225.0 L 230.0 228.0 L 230.0 230.0 L 230.0 233.0 L 230.0 235.0 L 230.0 238.0 L 230.0 240.0 L 229.0 242.0 L 229.0 243.0 L 229.0 244.0 L 229.0 246.0 L 229.0 247.0 L 229.0 248.0 L 229.0 250.0 L 228.0 251.0 L 228.0 252.0 L 228.0 254.0 L 228.0 255.0 L 227.0 256.0 L 227.0 258.0 L 227.0 259.0 L 227.0 260.0 L 226.0 260.0 L 226.0 261.0 L 226.0 261.0 L 225.0 261.0 L 224.0 261.0 L 222.0 260.0 L 220.0 259.0 L 217.0 257.0 L 214.0 255.0 L 210.0 253.0 L 207.0 251.0 L 203.0 248.0 L 200.0 246.0 " stroke="black" fill="none" stroke-width="5.0" stroke-linecap="round" stroke-linejoin="round" />
<path d="M 176.0 111.0 L 176.0 111.0 L 176.0 111.0 L 175.0 111.0 L 174.0 111.0 L 174.0 111.0 L 174.0 110.0 L 174.0 110.0 L 175.0 110.0 L 177.0 110.0 L 180.0 110.0 L 184.0 110.0 L 188.0 110.0 L 192.0 110.0 L 197.0 110.0 L 204.0 110.0 L 211.0 110.0 L 219.0 110.0 L 226.0 109.0 L 229.0 109.0 " stroke="black" fill="none" stroke-width="5.0" stroke-linecap="round" stroke-linejoin="round" />
<path d="M 176.0 143.0 L 175.0 143.0 L 171.0 144.0 L 168.0 144.0 L 167.0 145.0 L 167.0 145.0 L 167.0 145.0 L 168.0 145.0 L 171.0 145.0 L 175.0 145.0 L 180.0 145.0 L 185.0 144.0 L 191.0 143.0 L 197.0 142.0 L 203.0 141.0 L 211.0 140.0 L 218.0 139.0 L 221.0 139.0 " stroke="black" fill="none" stroke-width="5.0" stroke-linecap="round" stroke-linejoin="round" />
<path d="M 115.0 164.0 L 115.0 164.0 L 115.0 164.0 L 114.0 164.0 L 114.0 163.0 L 114.0 163.0 L 114.0 163.0 L 114.0 163.0 L 114.0 163.0 L 114.0 164.0 L 114.0 166.0 L 114.0 170.0 L 114.0 175.0 L 114.0 181.0 L 114.0 189.0 L 114.0 198.0 L 114.0 207.0 L 114.0 216.0 L 114.0 223.0 L 114.0 229.0 L 114.0 232.0 L 115.0 233.0 L 116.0 233.0 " stroke="black" fill="none" stroke-width="5.0" stroke-linecap="round" stroke-linejoin="round" />
<path d="M 122.0 167.0 L 121.0 167.0 L 120.0 167.0 L 119.0 167.0 L 118.0 167.0 L 117.0 167.0 L 117.0 167.0 L 116.0 167.0 L 116.0 167.0 L 116.0 166.0 L 116.0 166.0 L 117.0 165.0 L 118.0 165.0 L 119.0 165.0 L 120.0 164.0 L 121.0 164.0 L 123.0 164.0 L 125.0 164.0 L 127.0 164.0 L 130.0 164.0 L 133.0 164.0 L 136.0 164.0 L 140.0 164.0 L 143.0 164.0 L 146.0 164.0 L 149.0 164.0 L 152.0 164.0 L 154.0 164.0 L 157.0 164.0 L 159.0 164.0 L 161.0 164.0 L 164.0 164.0 L 165.0 164.0 L 167.0 165.0 L 168.0 165.0 L 169.0 165.0 L 169.0 166.0 L 170.0 167.0 L 170.0 168.0 L 171.0 169.0 L 171.0 170.0 L 171.0 171.0 L 172.0 173.0 L 172.0 175.0 L 173.0 177.0 L 173.0 180.0 L 173.0 184.0 L 174.0 188.0 L 174.0 193.0 L 174.0 199.0 L 174.0 204.0 L 173.0 210.0 L 173.0 216.0 L 172.0 221.0 L 172.0 226.0 L 171.0 230.0 L 171.0 234.0 L 171.0 236.0 L 171.0 237.0 L 171.0 238.0 L 170.0 238.0 L 169.0 238.0 " stroke="black" fill="none" stroke-width="5.0" stroke-linecap="round" stroke-linejoin="round" />
<path d="M 119.0 205.0 L 118.0 205.0 L 115.0 205.0 L 114.0 205.0 L 114.0 205.0 L 113.0 205.0 L 113.0 205.0 L 114.0 205.0 L 116.0 205.0 L 119.0 205.0 L 123.0 204.0 L 128.0 204.0 L 135.0 204.0 L 141.0 203.0 L 147.0 203.0 L 152.0 202.0 L 157.0 202.0 L 163.0 201.0 L 167.0 201.0 " stroke="black" fill="none" stroke-width="5.0" stroke-linecap="round" stroke-linejoin="round" />
<path d="M 120.0 243.0 L 118.0 243.0 L 116.0 243.0 L 114.0 244.0 L 112.0 244.0 L 112.0 244.0 L 112.0 244.0 L 112.0 245.0 L 112.0 245.0 L 115.0 245.0 L 118.0 245.0 L 123.0 245.0 L 130.0 244.0 L 136.0 244.0 L 143.0 242.0 L 149.0 241.0 L 155.0 239.0 L 160.0 238.0 L 166.0 237.0 " stroke="black" fill="none" stroke-width="5.0" stroke-linecap="round" stroke-linejoin="round" />
</svg>