<svg xmlns="http://www.w3.org/2000/svg" width="300" height="300" viewBox="0 0 300 300">
<path d="M 75.0 77.0 L 74.0 77.0 L 72.0 77.0 L 71.0 77.0 L 71.0 77.0 L 70.0 77.0 L 70.0 77.0 L 70.0 77.0 L 72.0 78.0 L 75.0 80.0 L 79.0 81.0 L 84.0 82.0 L 90.0 84.0 L 95.0 85.0 L 100.0 87.0 L 105.0 90.0 " stroke="black" fill="none" stroke-width="5.0" stroke-linecap="round" stroke-linejoin="round" />
<path d="M 68.0 129.0 L 68.0 129.0 L 67.0 129.0 L 67.0 129.0 L 67.0 129.0 L 67.0 129.0 L 67.0 130.0 L 69.0 131.0 L 72.0 133.0 L 76.0 135.0 L 82.0 137.0 L 88.0 140.0 L 95.0 143.0 " stroke="black" fill="none" stroke-width="5.0" stroke-linecap="round" stroke-linejoin="round" />
<path d="M 71.0 241.0 L 71.0 241.0 L 70.0 241.0 L 69.0 242.0 L 69.0 242.0 L 68.0 243.0 L 68.0 243.0 L 68.0 243.0 L 68.0 242.0 L 68.0 241.0 L 68.0 239.0 L 70.0 235.0 L 73.0 229.0 L 76.0 222.0 L 82.0 213.0 L 90.0 202.0 L 98.0 189.0 L 106.0 175.0 L 109.0 168.0 " stroke="black" fill="none" stroke-width="5.0" stroke-linecap="round" stroke-linejoin="round" />
<path d="M 132.0 88.0 L 132.0 88.0 L 132.0 88.0 L 132.0 88.0 L 132.0 88.0 L 132.0 88.0 L 132.0 88.0 L 132.0 88.0 L 132.0 88.0 L 132.0 88.0 L 134.0 88.0 L 136.0 88.0 L 139.0 87.0 L 142.0 87.0 L 146.0 86.0 L 151.0 85.0 L 157.0 84.0 L 165.0 82.0 L 174.0 80.0 L 182.0 78.0 L 189.0 75.0 L 196.0 73.0 L 200.0 71.0 L 203.0 70.0 L 206.0 69.0 L 208.0 69.0 L 209.0 69.0 L 210.0 69.0 L 211.0 70.0 L 211.0 70.0 " stroke="black" fill="none" stroke-width="5.0" stroke-linecap="round" stroke-linejoin="round" />
<path d="M 132.0 109.0 L 132.0 109.0 L 132.0 109.0 L 132.0 109.0 L 132.0 109.0 L 132.0 109.0 L 132.0 109.0 L 133.0 109.0 L 134.0 110.0 L 136.0 111.0 L 139.0 113.0 L 142.0 114.0 L 145.0 116.0 L 147.0 118.0 L 150.0 121.0 L 152.0 123.0 L 153.0 125.0 " stroke="black" fill="none" stroke-width="5.0" stroke-linecap="round" stroke-linejoin="round" />
<path d="M 174.0 92.0 L 173.0 92.0 L 172.0 92.0 L 172.0 93.0 L 171.0 93.0 L 171.0 95.0 L 172.0 97.0 L 173.0 100.0 L 174.0 103.0 L 176.0 107.0 L 178.0 111.0 L 179.0 114.0 L 181.0 118.0 L 182.0 121.0 L 183.0 123.0 " stroke="black" fill="none" stroke-width="5.0" stroke-linecap="round" stroke-linejoin="round" />
<path d="M 221.0 100.0 L 221.0 100.0 L 219.0 100.0 L 218.0 100.0 L 217.0 100.0 L 215.0 102.0 L 212.0 104.0 L 209.0 108.0 L 206.0 112.0 L 202.0 117.0 L 198.0 122.0 L 196.0 127.0 L 195.0 129.0 " stroke="black" fill="none" stroke-width="5.0" stroke-linecap="round" stroke-linejoin="round" />
<path d="M 146.0 148.0 L 146.0 148.0 L 145.0 148.0 L 144.0 148.0 L 143.0 148.0 L 143.0 148.0 L 142.0 148.0 L 142.0 148.0 L 142.0 147.0 L 142.0 147.0 L 142.0 147.0 L 142.0 146.0 L 143.0 146.0 L 144.0 146.0 L 146.0 145.0 L 147.0 145.0 L 149.0 145.0 L 151.0 145.0 L 153.0 145.0 L 156.0 145.0 L 160.0 144.0 L 164.0 144.0 L 170.0 143.0 L 177.0 142.0 L 183.0 141.0 L 189.0 140.0 L 194.0 139.0 L 197.0 138.0 L 200.0 138.0 L 202.0 138.0 L 204.0 138.0 L 205.0 138.0 L 206.0 138.0 L 207.0 139.0 L 208.0 140.0 L 208.0 140.0 L 208.0 141.0 L 208.0 141.0 L 208.0 142.0 L 208.0 142.0 L 208.0 143.0 L 208.0 143.0 L 207.0 144.0 L 206.0 144.0 L 205.0 145.0 L 203.0 146.0 L 202.0 147.0 L 200.0 149.0 L 199.0 150.0 L 197.0 152.0 L 196.0 154.0 L 194.0 156.0 L 192.0 158.0 L 190.0 160.0 L 188.0 162.0 L 186.0 164.0 L 183.0 167.0 L 180.0 169.0 L 178.0 171.0 L 175.0 173.0 L 172.0 175.0 L 171.0 175.0 L 169.0 176.0 L 168.0 177.0 L 167.0 178.0 L 166.0 178.0 L 166.0 179.0 L 166.0 179.0 L 166.0 179.0 L 166.0 179.0 L 166.0 179.0 L 166.0 179.0 L 166.0 179.0 L 167.0 180.0 L 168.0 180.0 L 169.0 181.0 L 170.0 181.0 L 171.0 182.0 L 172.0 183.0 L 173.0 185.0 L 174.0 186.0 L 176.0 188.0 L 177.0 190.0 L 178.0 193.0 L 179.0 196.0 L 180.0 199.0 L 180.0 203.0 L 180.0 207.0 L 180.0 211.0 L 180.0 216.0 L 180.0 221.0 L 179.0 226.0 L 178.0 231.0 L 176.0 235.0 L 175.0 239.0 L 172.0 242.0 L 171.0 245.0 L 169.0 247.0 L 166.0 249.0 L 165.0 251.0 L 163.0 253.0 L 161.0 255.0 L 159.0 255.0 L 158.0 256.0 L 157.0 256.0 L 156.0 256.0 L 155.0 255.0 L 153.0 252.0 L 153.0 249.0 L 151.0 245.0 L 150.0 241.0 L 149.0 236.0 L 148.0 234.0 " stroke="black" fill="none" stroke-width="5.0" stroke-linecap="round" stroke-linejoin="round" />
<path d="M 128.0 190.0 L 128.0 190.0 L 126.0 190.0 L 125.0 190.0 L 125.0 190.0 L 124.0 190.0 L 124.0 190.0 L 125.0 189.0 L 126.0 189.0 L 129.0 189.0 L 132.0 189.0 L 135.0 189.0 L 139.0 189.0 L 143.0 189.0 L 148.0 189.0 L 154.0 189.0 L 161.0 190.0 L 171.0 190.0 L 181.0 190.0 L 191.0 190.0 L 199.0 190.0 L 206.0 190.0 L 214.0 190.0 L 223.0 190.0 L 230.0 190.0 L 235.0 190.0 L 239.0 189.0 L 242.0 189.0 L 244.0 188.0 L 246.0 187.0 L 247.0 187.0 L 248.0 186.0 L 248.0 186.0 L 247.0 186.0 L 246.0 187.0 " stroke="black" fill="none" stroke-width="5.0" stroke-linecap="round" stroke-linejoin="round" />
</svg>