<svg xmlns="http://www.w3.org/2000/svg" width="300" height="300" viewBox="0 0 300 300">
<path d="M 63.0 101.0 L 63.0 101.0 L 63.0 101.0 L 62.0 101.0 L 62.0 100.0 L 61.0 100.0 L 61.0 100.0 L 61.0 100.0 L 61.0 100.0 L 61.0 100.0 L 61.0 100.0 L 61.0 100.0 L 61.0 100.0 L 61.0 100.0 L 61.0 100.0 L 61.0 100.0 L 62.0 100.0 L 63.0 100.0 L 63.0 100.0 L 64.0 100.0 L 65.0 100.0 L 66.0 100.0 L 67.0 100.0 L 68.0 100.0 L 69.0 100.0 L 70.0 100.0 L 72.0 100.0 L 73.0 100.0 L 74.0 100.0 L 76.0 100.0 L 77.0 100.0 L 79.0 100.0 L 80.0 100.0 L 82.0 100.0 L 83.0 100.0 L 85.0 100.0 L 87.0 100.0 L 88.0 99.0 L 89.0 99.0 L 90.0 99.0 L 91.0 99.0 L 93.0 99.0 L 94.0 99.0 L 94.0 98.0 L 96.0 98.0 L 97.0 98.0 L 98.0 98.0 L 99.0 98.0 L 100.0 98.0 L 101.0 98.0 L 102.0 98.0 L 103.0 98.0 L 104.0 98.0 L 105.0 98.0 L 106.0 98.0 L 107.0 98.0 L 108.0 98.0 L 109.0 98.0 L 110.0 98.0 L 110.0 98.0 L 111.0 98.0 L 112.0 98.0 L 113.0 98.0 L 114.0 98.0 L 115.0 98.0 L 117.0 98.0 L 118.0 97.0 L 119.0 97.0 L 121.0 97.0 L 123.0 97.0 L 125.0 97.0 L 127.0 97.0 L 130.0 96.0 L 132.0 96.0 L 135.0 96.0 L 137.0 96.0 L 139.0 96.0 L 141.0 96.0 L 143.0 96.0 L 144.0 96.0 L 146.0 96.0 L 147.0 96.0 " stroke="black" fill="none" stroke-width="5.0" stroke-linecap="round" stroke-linejoin="round" />
<path d="M 83.0 81.0 L 83.0 82.0 L 83.0 83.0 L 83.0 84.0 L 82.0 86.0 L 82.0 87.0 L 82.0 89.0 L 82.0 90.0 L 82.0 92.0 L 82.0 94.0 L 82.0 96.0 L 82.0 99.0 L 82.0 102.0 L 82.0 106.0 L 81.0 110.0 L 81.0 113.0 L 80.0 117.0 L 80.0 120.0 L 80.0 124.0 L 79.0 127.0 L 79.0 130.0 L 79.0 133.0 L 79.0 136.0 L 78.0 139.0 L 78.0 142.0 L 78.0 145.0 L 78.0 148.0 L 78.0 151.0 L 79.0 154.0 L 79.0 157.0 L 79.0 160.0 L 80.0 163.0 L 80.0 166.0 L 80.0 168.0 L 80.0 171.0 L 80.0 174.0 L 80.0 177.0 L 80.0 180.0 L 80.0 184.0 L 80.0 187.0 L 80.0 189.0 L 80.0 190.0 L 80.0 191.0 L 80.0 191.0 " stroke="black" fill="none" stroke-width="5.0" stroke-linecap="round" stroke-linejoin="round" />
<path d="M 137.0 73.0 L 137.0 73.0 L 137.0 73.0 L 137.0 73.0 L 137.0 73.0 L 137.0 74.0 L 137.0 75.0 L 137.0 76.0 L 137.0 77.0 L 137.0 79.0 L 136.0 82.0 L 136.0 84.0 L 136.0 87.0 L 136.0 91.0 L 135.0 94.0 L 135.0 99.0 L 134.0 103.0 L 134.0 108.0 L 133.0 112.0 L 133.0 117.0 L 133.0 121.0 L 132.0 125.0 L 132.0 128.0 L 132.0 132.0 L 131.0 136.0 L 131.0 140.0 L 131.0 145.0 L 131.0 150.0 L 131.0 155.0 L 131.0 160.0 L 131.0 164.0 L 131.0 168.0 L 131.0 171.0 L 131.0 175.0 L 130.0 179.0 L 130.0 184.0 L 130.0 188.0 L 130.0 193.0 L 130.0 197.0 L 130.0 200.0 L 130.0 202.0 " stroke="black" fill="none" stroke-width="5.0" stroke-linecap="round" stroke-linejoin="round" />
<path d="M 87.0 132.0 L 86.0 132.0 L 85.0 132.0 L 84.0 132.0 L 83.0 132.0 L 83.0 132.0 L 83.0 132.0 L 83.0 132.0 L 86.0 133.0 L 90.0 133.0 L 94.0 134.0 L 100.0 134.0 L 105.0 134.0 L 110.0 134.0 L 116.0 133.0 L 122.0 133.0 L 128.0 132.0 L 134.0 132.0 " stroke="black" fill="none" stroke-width="5.0" stroke-linecap="round" stroke-linejoin="round" />
<path d="M 85.0 166.0 L 85.0 166.0 L 83.0 166.0 L 82.0 166.0 L 82.0 166.0 L 82.0 166.0 L 82.0 166.0 L 83.0 166.0 L 87.0 166.0 L 91.0 166.0 L 96.0 166.0 L 100.0 166.0 L 105.0 166.0 L 110.0 166.0 L 116.0 166.0 L 123.0 166.0 L 129.0 165.0 " stroke="black" fill="none" stroke-width="5.0" stroke-linecap="round" stroke-linejoin="round" />
<path d="M 60.0 200.0 L 60.0 200.0 L 60.0 200.0 L 60.0 200.0 L 60.0 200.0 L 60.0 200.0 L 60.0 200.0 L 60.0 200.0 L 60.0 200.0 L 62.0 200.0 L 65.0 200.0 L 70.0 201.0 L 76.0 201.0 L 86.0 201.0 L 97.0 201.0 L 107.0 201.0 L 116.0 200.0 L 125.0 199.0 L 133.0 198.0 L 140.0 196.0 L 146.0 195.0 L 149.0 195.0 L 150.0 195.0 L 150.0 196.0 " stroke="black" fill="none" stroke-width="5.0" stroke-linecap="round" stroke-linejoin="round" />
<path d="M 92.0 213.0 L 92.0 213.0 L 92.0 213.0 L 92.0 213.0 L 91.0 213.0 L 91.0 213.0 L 91.0 213.0 L 90.0 213.0 L 89.0 215.0 L 88.0 217.0 L 86.0 221.0 L 83.0 226.0 L 80.0 232.0 L 76.0 238.0 L 73.0 242.0 L 71.0 246.0 L 69.0 248.0 L 69.0 248.0 " stroke="black" fill="none" stroke-width="5.0" stroke-linecap="round" stroke-linejoin="round" />
<path d="M 116.0 220.0 L 116.0 220.0 L 116.0 220.0 L 116.0 220.0 L 115.0 220.0 L 115.0 220.0 L 115.0 220.0 L 116.0 220.0 L 117.0 220.0 L 119.0 221.0 L 121.0 223.0 L 124.0 225.0 L 128.0 228.0 L 131.0 231.0 L 135.0 235.0 L 139.0 238.0 L 142.0 241.0 L 144.0 243.0 " stroke="black" fill="none" stroke-width="5.0" stroke-linecap="round" stroke-linejoin="round" />
<path d="M 172.0 83.0 L 172.0 83.0 L 172.0 83.0 L 172.0 83.0 L 173.0 83.0 L 173.0 83.0 L 173.0 84.0 L 173.0 84.0 L 173.0 85.0 L 173.0 86.0 L 174.0 88.0 L 174.0 89.0 L 174.0 91.0 L 174.0 93.0 L 174.0 95.0 L 174.0 97.0 L 174.0 99.0 L 175.0 102.0 L 175.0 104.0 L 175.0 107.0 L 175.0 110.0 L 175.0 113.0 L 175.0 115.0 L 175.0 119.0 L 175.0 121.0 L 175.0 124.0 L 175.0 128.0 L 175.0 130.0 L 175.0 133.0 L 175.0 136.0 L 175.0 139.0 L 175.0 141.0 L 174.0 144.0 L 174.0 147.0 L 174.0 150.0 L 174.0 153.0 L 174.0 155.0 L 173.0 158.0 L 173.0 161.0 L 173.0 164.0 L 172.0 167.0 L 172.0 170.0 L 172.0 172.0 L 171.0 175.0 L 171.0 177.0 L 171.0 180.0 L 171.0 183.0 L 170.0 186.0 L 170.0 188.0 L 170.0 191.0 L 169.0 193.0 L 169.0 196.0 L 169.0 198.0 L 168.0 201.0 L 168.0 204.0 L 167.0 207.0 L 167.0 210.0 L 166.0 213.0 L 165.0 216.0 L 164.0 220.0 L 163.0 223.0 L 162.0 227.0 L 160.0 232.0 L 159.0 235.0 L 157.0 238.0 L 155.0 241.0 L 154.0 244.0 L 152.0 246.0 L 151.0 247.0 L 150.0 248.0 " stroke="black" fill="none" stroke-width="5.0" stroke-linecap="round" stroke-linejoin="round" />
<path d="M 178.0 82.0 L 178.0 82.0 L 177.0 82.0 L 176.0 83.0 L 175.0 83.0 L 174.0 84.0 L 173.0 84.0 L 173.0 84.0 L 173.0 85.0 L 172.0 85.0 L 172.0 85.0 L 172.0 85.0 L 173.0 85.0 L 173.0 85.0 L 175.0 85.0 L 176.0 85.0 L 177.0 85.0 L 178.0 85.0 L 180.0 85.0 L 182.0 85.0 L 183.0 86.0 L 185.0 86.0 L 187.0 86.0 L 189.0 86.0 L 191.0 86.0 L 193.0 86.0 L 195.0 86.0 L 197.0 86.0 L 199.0 86.0 L 201.0 85.0 L 203.0 85.0 L 205.0 85.0 L 207.0 84.0 L 209.0 84.0 L 211.0 84.0 L 212.0 84.0 L 214.0 84.0 L 216.0 84.0 L 218.0 84.0 L 220.0 84.0 L 221.0 84.0 L 222.0 84.0 L 224.0 85.0 L 225.0 85.0 L 225.0 85.0 L 226.0 86.0 L 226.0 86.0 L 227.0 86.0 L 227.0 87.0 L 227.0 87.0 L 228.0 87.0 L 228.0 88.0 L 228.0 89.0 L 228.0 89.0 L 228.0 90.0 L 228.0 91.0 L 228.0 92.0 L 228.0 94.0 L 228.0 95.0 L 228.0 98.0 L 228.0 100.0 L 228.0 103.0 L 228.0 106.0 L 228.0 110.0 L 228.0 114.0 L 228.0 117.0 L 228.0 122.0 L 228.0 126.0 L 228.0 130.0 L 227.0 134.0 L 227.0 138.0 L 227.0 143.0 L 227.0 147.0 L 227.0 151.0 L 227.0 155.0 L 227.0 160.0 L 227.0 164.0 L 227.0 168.0 L 227.0 172.0 L 228.0 176.0 L 228.0 180.0 L 228.0 185.0 L 229.0 189.0 L 229.0 192.0 L 229.0 196.0 L 229.0 199.0 L 229.0 202.0 L 229.0 206.0 L 229.0 209.0 L 229.0 212.0 L 229.0 216.0 L 229.0 218.0 L 229.0 221.0 L 229.0 224.0 L 229.0 226.0 L 229.0 229.0 L 229.0 232.0 L 229.0 235.0 L 229.0 237.0 L 229.0 240.0 L 229.0 243.0 L 229.0 245.0 L 229.0 247.0 L 229.0 249.0 L 229.0 250.0 L 228.0 252.0 L 228.0 254.0 L 228.0 256.0 L 228.0 258.0 L 228.0 259.0 L 227.0 260.0 L 227.0 261.0 L 227.0 261.0 L 226.0 261.0 L 225.0 261.0 L 224.0 260.0 L 222.0 258.0 L 219.0 256.0 L 217.0 253.0 L 214.0 251.0 L 211.0 248.0 L 208.0 245.0 L 205.0 243.0 L 202.0 239.0 " stroke="black" fill="none" stroke-width="5.0" stroke-linecap="round" stroke-linejoin="round" />
<path d="M 182.0 130.0 L 182.0 130.0 L 181.0 130.0 L 180.0 130.0 L 180.0 130.0 L 179.0 130.0 L 179.0 130.0 L 179.0 130.0 L 179.0 131.0 L 180.0 131.0 L 182.0 131.0 L 185.0 132.0 L 188.0 132.0 L 192.0 132.0 L 196.0 133.0 L 200.0 133.0 L 205.0 133.0 L 211.0 133.0 L 215.0 134.0 L 220.0 134.0 L 224.0 135.0 L 225.0 136.0 " stroke="black" fill="none" stroke-width="5.0" stroke-linecap="round" stroke-linejoin="round" />
<path d="M 176.0 179.0 L 176.0 179.0 L 175.0 179.0 L 174.0 180.0 L 173.0 180.0 L 173.0 180.0 L 173.0 180.0 L 173.0 180.0 L 175.0 180.0 L 177.0 180.0 L 181.0 180.0 L 185.0 180.0 L 189.0 179.0 L 193.0 179.0 L 198.0 178.0 L 203.0 177.0 L 209.0 176.0 L 214.0 175.0 L 217.0 175.0 " stroke="black" fill="none" stroke-width="5.0" stroke-linecap="round" stroke-linejoin="round" />
</svg>