<svg xmlns="http://www.w3.org/2000/svg" width="300" height="300" viewBox="0 0 300 300">
<path d="M 105.0 64.0 L 105.0 64.0 L 105.0 64.0 L 105.0 63.0 L 105.0 63.0 L 105.0 63.0 L 105.0 64.0 L 104.0 66.0 L 103.0 69.0 L 102.0 73.0 L 100.0 77.0 L 96.0 83.0 L 92.0 89.0 L 86.0 95.0 L 80.0 102.0 L 74.0 107.0 L 70.0 110.0 L 67.0 112.0 " stroke="black" fill="none" stroke-width="5.0" stroke-linecap="round" stroke-linejoin="round" />
<path d="M 101.0 85.0 L 101.0 85.0 L 101.0 85.0 L 101.0 85.0 L 100.0 85.0 L 100.0 85.0 L 100.0 85.0 L 100.0 85.0 L 100.0 85.0 L 99.0 85.0 L 99.0 85.0 L 99.0 85.0 L 99.0 84.0 L 100.0 84.0 L 101.0 84.0 L 102.0 84.0 L 104.0 84.0 L 105.0 84.0 L 107.0 84.0 L 110.0 84.0 L 112.0 84.0 L 115.0 84.0 L 118.0 84.0 L 122.0 84.0 L 126.0 84.0 L 130.0 84.0 L 133.0 83.0 L 137.0 83.0 L 140.0 83.0 L 143.0 83.0 L 145.0 83.0 L 148.0 83.0 L 149.0 83.0 L 151.0 83.0 L 152.0 83.0 L 153.0 83.0 L 155.0 83.0 L 156.0 83.0 L 158.0 83.0 L 160.0 83.0 L 162.0 83.0 L 164.0 83.0 L 166.0 83.0 L 169.0 83.0 L 172.0 83.0 L 175.0 83.0 L 179.0 83.0 L 182.0 83.0 L 186.0 83.0 L 189.0 83.0 L 192.0 83.0 L 195.0 83.0 L 198.0 83.0 L 200.0 83.0 L 202.0 83.0 L 204.0 83.0 L 206.0 83.0 " stroke="black" fill="none" stroke-width="5.0" stroke-linecap="round" stroke-linejoin="round" />
<path d="M 72.0 129.0 L 72.0 129.0 L 72.0 129.0 L 72.0 129.0 L 72.0 129.0 L 72.0 128.0 L 72.0 128.0 L 73.0 128.0 L 73.0 128.0 L 74.0 128.0 L 75.0 127.0 L 77.0 127.0 L 79.0 127.0 L 81.0 127.0 L 83.0 127.0 L 86.0 127.0 L 89.0 127.0 L 92.0 127.0 L 95.0 127.0 L 98.0 127.0 L 101.0 127.0 L 104.0 127.0 L 106.0 127.0 L 108.0 127.0 L 110.0 126.0 L 111.0 126.0 L 113.0 126.0 L 115.0 126.0 L 116.0 126.0 L 118.0 126.0 L 120.0 126.0 L 123.0 126.0 L 125.0 126.0 L 128.0 126.0 L 132.0 126.0 L 136.0 126.0 L 139.0 126.0 L 143.0 126.0 L 146.0 126.0 L 149.0 126.0 L 152.0 126.0 L 155.0 126.0 L 158.0 125.0 L 160.0 125.0 L 164.0 125.0 L 167.0 124.0 L 170.0 124.0 L 174.0 124.0 L 177.0 124.0 L 181.0 124.0 L 184.0 124.0 L 187.0 124.0 L 190.0 124.0 L 192.0 124.0 L 194.0 124.0 L 196.0 124.0 L 198.0 124.0 L 199.0 124.0 L 201.0 124.0 L 203.0 125.0 L 205.0 125.0 L 207.0 125.0 L 210.0 125.0 L 212.0 126.0 L 214.0 126.0 L 216.0 126.0 " stroke="black" fill="none" stroke-width="5.0" stroke-linecap="round" stroke-linejoin="round" />
<path d="M 99.0 108.0 L 99.0 108.0 L 99.0 108.0 L 99.0 108.0 L 98.0 108.0 L 98.0 109.0 L 98.0 112.0 L 98.0 115.0 L 99.0 120.0 L 100.0 126.0 L 100.0 134.0 L 101.0 141.0 L 101.0 148.0 L 101.0 153.0 L 102.0 157.0 L 103.0 158.0 L 103.0 158.0 " stroke="black" fill="none" stroke-width="5.0" stroke-linecap="round" stroke-linejoin="round" />
<path d="M 136.0 111.0 L 136.0 111.0 L 135.0 112.0 L 135.0 113.0 L 134.0 114.0 L 134.0 115.0 L 134.0 117.0 L 134.0 120.0 L 134.0 124.0 L 134.0 128.0 L 134.0 133.0 L 135.0 139.0 L 135.0 143.0 L 137.0 147.0 L 138.0 148.0 " stroke="black" fill="none" stroke-width="5.0" stroke-linecap="round" stroke-linejoin="round" />
<path d="M 161.0 113.0 L 161.0 113.0 L 161.0 113.0 L 162.0 113.0 L 162.0 113.0 L 162.0 113.0 L 162.0 115.0 L 162.0 117.0 L 162.0 120.0 L 162.0 124.0 L 162.0 128.0 L 162.0 134.0 L 162.0 139.0 L 163.0 144.0 L 164.0 148.0 L 166.0 150.0 L 166.0 150.0 " stroke="black" fill="none" stroke-width="5.0" stroke-linecap="round" stroke-linejoin="round" />
<path d="M 200.0 113.0 L 200.0 113.0 L 201.0 112.0 L 201.0 112.0 L 202.0 111.0 L 202.0 111.0 L 202.0 111.0 L 203.0 111.0 L 203.0 111.0 L 203.0 111.0 L 203.0 111.0 L 203.0 113.0 L 203.0 116.0 L 202.0 119.0 L 201.0 123.0 L 200.0 128.0 L 199.0 133.0 L 199.0 139.0 L 198.0 144.0 L 198.0 149.0 L 198.0 152.0 " stroke="black" fill="none" stroke-width="5.0" stroke-linecap="round" stroke-linejoin="round" />
<path d="M 62.0 159.0 L 62.0 159.0 L 62.0 159.0 L 62.0 159.0 L 62.0 159.0 L 62.0 159.0 L 62.0 159.0 L 62.0 158.0 L 62.0 158.0 L 62.0 158.0 L 63.0 158.0 L 64.0 158.0 L 65.0 158.0 L 66.0 158.0 L 68.0 158.0 L 71.0 158.0 L 74.0 158.0 L 77.0 158.0 L 81.0 158.0 L 86.0 158.0 L 90.0 157.0 L 94.0 157.0 L 98.0 157.0 L 101.0 157.0 L 104.0 157.0 L 106.0 157.0 L 108.0 157.0 L 110.0 157.0 L 111.0 157.0 L 113.0 157.0 L 115.0 157.0 L 118.0 157.0 L 121.0 157.0 L 125.0 157.0 L 130.0 157.0 L 135.0 157.0 L 140.0 157.0 L 144.0 156.0 L 148.0 156.0 L 152.0 156.0 L 155.0 156.0 L 158.0 156.0 L 162.0 156.0 L 165.0 156.0 L 169.0 156.0 L 174.0 156.0 L 179.0 156.0 L 183.0 156.0 L 187.0 156.0 L 191.0 156.0 L 194.0 156.0 L 197.0 156.0 L 199.0 156.0 L 202.0 156.0 L 205.0 156.0 L 208.0 156.0 L 211.0 156.0 L 215.0 155.0 L 218.0 155.0 L 221.0 155.0 L 224.0 155.0 L 227.0 155.0 L 230.0 155.0 L 232.0 156.0 " stroke="black" fill="none" stroke-width="5.0" stroke-linecap="round" stroke-linejoin="round" />
<path d="M 107.0 163.0 L 107.0 163.0 L 106.0 163.0 L 106.0 163.0 L 106.0 163.0 L 106.0 163.0 L 106.0 163.0 L 105.0 163.0 L 105.0 163.0 L 105.0 164.0 L 105.0 166.0 L 105.0 168.0 L 104.0 172.0 L 103.0 176.0 L 101.0 181.0 L 98.0 187.0 L 94.0 193.0 L 89.0 197.0 L 84.0 202.0 L 78.0 205.0 L 73.0 208.0 L 69.0 210.0 L 67.0 211.0 " stroke="black" fill="none" stroke-width="5.0" stroke-linecap="round" stroke-linejoin="round" />
<path d="M 99.0 189.0 L 98.0 189.0 L 97.0 189.0 L 95.0 189.0 L 94.0 189.0 L 93.0 189.0 L 93.0 189.0 L 93.0 189.0 L 93.0 189.0 L 94.0 189.0 L 96.0 189.0 L 98.0 189.0 L 101.0 189.0 L 104.0 189.0 L 107.0 189.0 L 111.0 189.0 L 115.0 189.0 L 119.0 189.0 L 123.0 188.0 L 128.0 188.0 L 133.0 188.0 L 136.0 188.0 L 139.0 188.0 L 140.0 188.0 L 141.0 188.0 L 141.0 188.0 L 141.0 188.0 L 141.0 188.0 L 140.0 189.0 L 139.0 190.0 L 138.0 192.0 L 136.0 193.0 L 134.0 196.0 L 132.0 198.0 L 129.0 201.0 L 125.0 204.0 L 121.0 208.0 L 117.0 212.0 L 112.0 216.0 L 108.0 221.0 L 104.0 227.0 L 99.0 232.0 L 94.0 236.0 L 89.0 239.0 L 84.0 241.0 L 80.0 242.0 L 77.0 243.0 L 75.0 243.0 L 74.0 243.0 L 74.0 241.0 " stroke="black" fill="none" stroke-width="5.0" stroke-linecap="round" stroke-linejoin="round" />
<path d="M 83.0 210.0 L 83.0 210.0 L 83.0 209.0 L 82.0 209.0 L 82.0 209.0 L 83.0 209.0 L 86.0 209.0 L 89.0 209.0 L 93.0 210.0 L 98.0 212.0 L 102.0 214.0 L 107.0 217.0 L 111.0 219.0 L 116.0 222.0 L 122.0 224.0 L 128.0 225.0 L 132.0 225.0 " stroke="black" fill="none" stroke-width="5.0" stroke-linecap="round" stroke-linejoin="round" />
<path d="M 164.0 190.0 L 164.0 190.0 L 162.0 189.0 L 160.0 189.0 L 159.0 189.0 L 158.0 189.0 L 157.0 189.0 L 157.0 189.0 L 157.0 189.0 L 159.0 189.0 L 162.0 189.0 L 167.0 189.0 L 172.0 189.0 L 178.0 189.0 L 184.0 189.0 L 190.0 189.0 L 195.0 189.0 L 201.0 188.0 L 205.0 187.0 L 209.0 186.0 L 212.0 186.0 L 214.0 185.0 L 214.0 185.0 " stroke="black" fill="none" stroke-width="5.0" stroke-linecap="round" stroke-linejoin="round" />
<path d="M 163.0 195.0 L 163.0 195.0 L 162.0 195.0 L 160.0 195.0 L 160.0 196.0 L 159.0 196.0 L 158.0 197.0 L 158.0 198.0 L 158.0 199.0 L 158.0 201.0 L 157.0 203.0 L 157.0 205.0 L 157.0 207.0 L 157.0 209.0 L 156.0 211.0 L 156.0 213.0 L 155.0 215.0 L 155.0 217.0 L 154.0 218.0 L 154.0 219.0 L 154.0 220.0 L 154.0 221.0 L 154.0 221.0 L 154.0 222.0 L 155.0 223.0 L 156.0 223.0 L 157.0 224.0 L 159.0 224.0 L 161.0 225.0 L 163.0 226.0 L 166.0 226.0 L 170.0 226.0 L 175.0 226.0 L 181.0 226.0 L 187.0 225.0 L 192.0 224.0 L 197.0 222.0 L 203.0 221.0 L 208.0 220.0 L 213.0 219.0 L 218.0 218.0 L 222.0 218.0 L 224.0 218.0 L 226.0 218.0 L 227.0 220.0 L 228.0 221.0 " stroke="black" fill="none" stroke-width="5.0" stroke-linecap="round" stroke-linejoin="round" />
<path d="M 193.0 170.0 L 193.0 170.0 L 192.0 170.0 L 191.0 170.0 L 191.0 171.0 L 191.0 172.0 L 191.0 174.0 L 191.0 177.0 L 192.0 181.0 L 193.0 187.0 L 194.0 193.0 L 195.0 200.0 L 196.0 207.0 L 197.0 215.0 L 198.0 224.0 L 198.0 232.0 L 198.0 239.0 L 198.0 246.0 L 198.0 250.0 L 198.0 254.0 L 198.0 256.0 L 198.0 258.0 L 198.0 258.0 " stroke="black" fill="none" stroke-width="5.0" stroke-linecap="round" stroke-linejoin="round" />
</svg>