<svg xmlns="http://www.w3.org/2000/svg" width="300" height="300" viewBox="0 0 300 300">
<path d="M 74.0 105.0 L 74.0 105.0 L 74.0 104.0 L 74.0 104.0 L 74.0 104.0 L 74.0 104.0 L 74.0 104.0 L 76.0 104.0 L 80.0 104.0 L 85.0 104.0 L 91.0 104.0 L 98.0 103.0 L 106.0 101.0 L 114.0 98.0 L 124.0 96.0 L 134.0 93.0 L 144.0 91.0 L 153.0 88.0 L 158.0 87.0 L 164.0 85.0 L 172.0 83.0 L 178.0 81.0 L 184.0 79.0 L 190.0 77.0 L 193.0 75.0 L 195.0 73.0 L 197.0 71.0 L 199.0 70.0 L 200.0 70.0 L 202.0 69.0 L 202.0 69.0 " stroke="black" fill="none" stroke-width="5.0" stroke-linecap="round" stroke-linejoin="round" />
<path d="M 64.0 152.0 L 64.0 152.0 L 64.0 152.0 L 64.0 152.0 L 64.0 151.0 L 65.0 151.0 L 65.0 151.0 L 65.0 151.0 L 66.0 150.0 L 66.0 150.0 L 66.0 150.0 L 67.0 150.0 L 68.0 150.0 L 69.0 150.0 L 70.0 150.0 L 72.0 150.0 L 74.0 150.0 L 77.0 149.0 L 81.0 149.0 L 85.0 149.0 L 91.0 149.0 L 96.0 149.0 L 100.0 149.0 L 105.0 149.0 L 109.0 149.0 L 112.0 150.0 L 116.0 150.0 L 120.0 150.0 L 125.0 151.0 L 130.0 151.0 L 135.0 151.0 L 139.0 151.0 L 143.0 151.0 L 146.0 151.0 L 148.0 151.0 L 151.0 151.0 L 153.0 151.0 L 155.0 151.0 L 158.0 151.0 L 162.0 151.0 L 166.0 151.0 L 172.0 151.0 L 177.0 151.0 L 182.0 151.0 L 188.0 151.0 L 192.0 151.0 L 195.0 151.0 L 198.0 151.0 L 201.0 151.0 L 204.0 152.0 L 207.0 152.0 L 210.0 152.0 L 213.0 152.0 L 217.0 153.0 L 221.0 153.0 L 224.0 153.0 L 228.0 154.0 L 230.0 154.0 L 232.0 154.0 L 234.0 154.0 L 235.0 154.0 L 235.0 154.0 L 235.0 154.0 L 235.0 154.0 " stroke="black" fill="none" stroke-width="5.0" stroke-linecap="round" stroke-linejoin="round" />
<path d="M 149.0 96.0 L 149.0 96.0 L 149.0 97.0 L 149.0 97.0 L 149.0 98.0 L 149.0 99.0 L 149.0 100.0 L 149.0 101.0 L 149.0 102.0 L 150.0 104.0 L 150.0 106.0 L 150.0 108.0 L 151.0 110.0 L 151.0 112.0 L 152.0 114.0 L 152.0 116.0 L 153.0 118.0 L 153.0 120.0 L 153.0 122.0 L 153.0 124.0 L 153.0 126.0 L 153.0 128.0 L 153.0 129.0 L 153.0 131.0 L 153.0 133.0 L 153.0 135.0 L 153.0 136.0 L 154.0 138.0 L 154.0 140.0 L 154.0 142.0 L 154.0 144.0 L 154.0 147.0 L 154.0 149.0 L 154.0 151.0 L 154.0 153.0 L 154.0 155.0 L 153.0 157.0 L 153.0 159.0 L 153.0 161.0 L 153.0 163.0 L 153.0 165.0 L 153.0 166.0 L 153.0 168.0 L 153.0 170.0 L 153.0 172.0 L 153.0 173.0 L 153.0 175.0 L 153.0 177.0 L 153.0 179.0 L 153.0 181.0 L 153.0 183.0 L 154.0 185.0 L 154.0 188.0 L 154.0 189.0 L 154.0 192.0 L 154.0 194.0 L 154.0 196.0 L 154.0 197.0 L 154.0 199.0 L 154.0 201.0 L 154.0 202.0 L 154.0 204.0 L 154.0 206.0 L 154.0 207.0 L 154.0 209.0 L 154.0 210.0 L 154.0 212.0 L 154.0 213.0 L 154.0 215.0 L 154.0 216.0 L 154.0 218.0 L 154.0 220.0 L 154.0 223.0 L 154.0 225.0 L 154.0 228.0 L 154.0 230.0 L 154.0 232.0 L 154.0 234.0 L 154.0 236.0 L 154.0 237.0 L 154.0 239.0 L 154.0 240.0 L 154.0 241.0 L 154.0 241.0 L 154.0 242.0 L 154.0 242.0 L 154.0 242.0 L 154.0 242.0 L 154.0 242.0 L 154.0 242.0 L 154.0 242.0 L 154.0 242.0 L 154.0 242.0 L 154.0 241.0 " stroke="black" fill="none" stroke-width="5.0" stroke-linecap="round" stroke-linejoin="round" />
</svg>