<svg xmlns="http://www.w3.org/2000/svg" width="300" height="300" viewBox="0 0 300 300">
<path d="M 120.0 82.0 L 120.0 82.0 L 119.0 83.0 L 118.0 83.0 L 117.0 84.0 L 116.0 84.0 L 116.0 85.0 L 115.0 86.0 L 114.0 87.0 L 114.0 88.0 L 113.0 90.0 L 112.0 92.0 L 111.0 95.0 L 110.0 98.0 L 108.0 102.0 L 105.0 107.0 L 102.0 112.0 L 98.0 118.0 L 93.0 123.0 L 87.0 128.0 L 81.0 133.0 L 74.0 138.0 L 70.0 142.0 L 67.0 145.0 " stroke="black" fill="none" stroke-width="5.0" stroke-linecap="round" stroke-linejoin="round" />
<path d="M 158.0 78.0 L 158.0 78.0 L 157.0 78.0 L 157.0 78.0 L 156.0 78.0 L 156.0 78.0 L 155.0 78.0 L 155.0 78.0 L 155.0 78.0 L 155.0 78.0 L 155.0 78.0 L 155.0 78.0 L 155.0 78.0 L 156.0 78.0 L 158.0 78.0 L 160.0 78.0 L 162.0 78.0 L 165.0 78.0 L 168.0 78.0 L 170.0 78.0 L 173.0 78.0 L 176.0 78.0 L 178.0 78.0 L 180.0 78.0 L 181.0 78.0 L 182.0 78.0 L 183.0 78.0 L 184.0 78.0 L 184.0 78.0 L 184.0 79.0 L 184.0 79.0 L 184.0 80.0 L 184.0 80.0 L 184.0 81.0 L 184.0 82.0 L 184.0 83.0 L 184.0 84.0 L 184.0 85.0 L 184.0 86.0 L 184.0 88.0 L 184.0 89.0 L 184.0 90.0 L 185.0 91.0 L 185.0 92.0 L 186.0 94.0 L 187.0 95.0 L 187.0 96.0 L 188.0 97.0 L 189.0 99.0 L 191.0 100.0 L 192.0 101.0 L 193.0 103.0 L 194.0 104.0 L 195.0 106.0 L 197.0 107.0 L 198.0 108.0 L 199.0 109.0 L 200.0 111.0 L 201.0 112.0 L 202.0 113.0 L 204.0 114.0 L 205.0 115.0 L 206.0 116.0 L 208.0 117.0 L 209.0 118.0 L 210.0 119.0 L 212.0 120.0 L 213.0 121.0 L 215.0 122.0 L 217.0 123.0 L 218.0 124.0 L 220.0 125.0 L 222.0 127.0 L 224.0 129.0 L 226.0 130.0 L 228.0 132.0 L 230.0 134.0 L 232.0 136.0 L 234.0 137.0 L 236.0 139.0 L 238.0 140.0 L 240.0 142.0 L 241.0 143.0 L 242.0 143.0 L 243.0 144.0 L 244.0 145.0 L 244.0 145.0 L 244.0 146.0 " stroke="black" fill="none" stroke-width="5.0" stroke-linecap="round" stroke-linejoin="round" />
<path d="M 102.0 133.0 L 102.0 133.0 L 102.0 134.0 L 102.0 134.0 L 101.0 134.0 L 101.0 135.0 L 101.0 135.0 L 101.0 135.0 L 101.0 135.0 L 101.0 135.0 L 101.0 135.0 L 101.0 135.0 L 101.0 135.0 L 102.0 135.0 L 102.0 135.0 L 103.0 135.0 L 104.0 135.0 L 105.0 135.0 L 106.0 135.0 L 107.0 135.0 L 109.0 135.0 L 110.0 135.0 L 112.0 135.0 L 114.0 135.0 L 117.0 135.0 L 121.0 135.0 L 125.0 135.0 L 130.0 135.0 L 134.0 135.0 L 139.0 135.0 L 144.0 135.0 L 148.0 135.0 L 151.0 135.0 L 155.0 135.0 L 158.0 135.0 L 162.0 135.0 L 167.0 135.0 L 172.0 134.0 L 177.0 134.0 L 183.0 134.0 L 187.0 134.0 L 191.0 134.0 L 195.0 134.0 L 197.0 134.0 L 199.0 134.0 L 200.0 134.0 L 200.0 135.0 L 200.0 136.0 L 200.0 137.0 " stroke="black" fill="none" stroke-width="5.0" stroke-linecap="round" stroke-linejoin="round" />
<path d="M 123.0 138.0 L 123.0 138.0 L 123.0 138.0 L 123.0 137.0 L 123.0 137.0 L 123.0 137.0 L 123.0 136.0 L 123.0 136.0 L 123.0 136.0 L 123.0 136.0 L 123.0 136.0 L 123.0 137.0 L 123.0 138.0 L 124.0 139.0 L 124.0 140.0 L 124.0 142.0 L 124.0 143.0 L 124.0 145.0 L 123.0 148.0 L 122.0 150.0 L 120.0 154.0 L 118.0 157.0 L 116.0 161.0 L 114.0 165.0 L 113.0 168.0 L 112.0 172.0 L 111.0 174.0 L 110.0 177.0 L 109.0 179.0 L 108.0 181.0 L 108.0 183.0 L 107.0 184.0 L 107.0 185.0 L 106.0 186.0 L 106.0 186.0 L 106.0 186.0 L 106.0 187.0 L 106.0 187.0 L 106.0 187.0 L 106.0 187.0 L 106.0 187.0 L 106.0 187.0 L 106.0 187.0 L 106.0 187.0 L 106.0 187.0 L 106.0 187.0 L 106.0 187.0 L 106.0 187.0 L 106.0 187.0 L 107.0 187.0 L 107.0 187.0 L 107.0 187.0 L 107.0 187.0 L 108.0 187.0 L 108.0 187.0 L 108.0 187.0 L 109.0 187.0 L 110.0 187.0 L 110.0 187.0 L 111.0 187.0 L 112.0 187.0 L 114.0 187.0 L 115.0 187.0 L 117.0 187.0 L 119.0 187.0 L 121.0 187.0 L 123.0 187.0 L 125.0 187.0 L 127.0 187.0 L 130.0 186.0 L 132.0 186.0 L 134.0 186.0 L 136.0 186.0 L 138.0 186.0 L 140.0 186.0 L 141.0 186.0 L 143.0 186.0 L 144.0 186.0 L 145.0 186.0 L 147.0 186.0 L 148.0 186.0 L 148.0 186.0 L 149.0 186.0 L 150.0 186.0 L 151.0 186.0 L 152.0 186.0 L 152.0 186.0 L 153.0 186.0 L 154.0 186.0 L 155.0 186.0 L 156.0 186.0 L 158.0 187.0 L 159.0 187.0 L 161.0 187.0 L 163.0 187.0 L 165.0 187.0 L 166.0 187.0 L 168.0 187.0 L 170.0 187.0 L 171.0 187.0 L 173.0 188.0 L 174.0 188.0 L 176.0 188.0 L 177.0 188.0 L 178.0 188.0 L 179.0 188.0 L 180.0 189.0 L 182.0 189.0 L 182.0 189.0 L 184.0 189.0 L 185.0 189.0 L 185.0 189.0 L 186.0 189.0 L 187.0 189.0 L 188.0 189.0 L 188.0 190.0 L 189.0 190.0 L 189.0 190.0 L 190.0 190.0 L 191.0 191.0 L 191.0 191.0 L 191.0 191.0 L 192.0 191.0 L 192.0 191.0 L 193.0 192.0 L 193.0 192.0 L 193.0 192.0 L 193.0 192.0 L 194.0 192.0 L 194.0 192.0 L 194.0 192.0 L 194.0 192.0 L 194.0 192.0 L 194.0 192.0 L 194.0 193.0 L 194.0 193.0 L 194.0 193.0 L 194.0 193.0 L 194.0 193.0 L 194.0 194.0 L 194.0 194.0 L 194.0 195.0 L 194.0 195.0 L 194.0 196.0 L 194.0 197.0 L 194.0 198.0 L 194.0 199.0 L 194.0 200.0 L 194.0 202.0 L 194.0 204.0 L 194.0 206.0 L 194.0 208.0 L 194.0 210.0 L 194.0 212.0 L 193.0 214.0 L 193.0 216.0 L 193.0 218.0 L 193.0 220.0 L 192.0 222.0 L 192.0 224.0 L 191.0 227.0 L 191.0 229.0 L 191.0 231.0 L 190.0 233.0 L 190.0 234.0 L 190.0 236.0 L 189.0 238.0 L 189.0 239.0 L 188.0 241.0 L 188.0 242.0 L 187.0 243.0 L 187.0 244.0 L 187.0 245.0 L 186.0 245.0 L 186.0 246.0 L 185.0 246.0 L 185.0 247.0 L 184.0 247.0 L 184.0 247.0 L 183.0 247.0 L 182.0 247.0 L 181.0 247.0 L 180.0 247.0 L 179.0 248.0 L 177.0 248.0 L 175.0 248.0 L 172.0 248.0 L 169.0 248.0 L 166.0 248.0 L 162.0 248.0 L 157.0 248.0 L 154.0 248.0 L 151.0 248.0 L 148.0 247.0 L 146.0 247.0 L 144.0 246.0 L 143.0 245.0 L 143.0 245.0 L 142.0 245.0 L 142.0 244.0 L 142.0 244.0 " stroke="black" fill="none" stroke-width="5.0" stroke-linecap="round" stroke-linejoin="round" />
</svg>