<svg xmlns="http://www.w3.org/2000/svg" width="300" height="300" viewBox="0 0 300 300">
<path d="M 117.0 79.0 L 117.0 79.0 L 117.0 79.0 L 117.0 79.0 L 117.0 79.0 L 117.0 79.0 L 117.0 79.0 L 117.0 79.0 L 117.0 79.0 L 117.0 79.0 L 117.0 79.0 L 117.0 79.0 L 117.0 79.0 L 117.0 79.0 L 117.0 79.0 L 117.0 79.0 L 117.0 80.0 L 117.0 81.0 L 116.0 82.0 L 116.0 84.0 L 115.0 86.0 L 114.0 89.0 L 112.0 92.0 L 111.0 95.0 L 109.0 99.0 L 107.0 103.0 L 105.0 108.0 L 102.0 113.0 L 98.0 117.0 L 94.0 122.0 L 89.0 126.0 L 84.0 130.0 L 78.0 134.0 L 73.0 138.0 L 69.0 141.0 L 68.0 142.0 " stroke="black" fill="none" stroke-width="5.0" stroke-linecap="round" stroke-linejoin="round" />
<path d="M 154.0 78.0 L 154.0 78.0 L 154.0 78.0 L 154.0 78.0 L 154.0 78.0 L 154.0 78.0 L 154.0 78.0 L 154.0 78.0 L 154.0 78.0 L 153.0 78.0 L 153.0 78.0 L 153.0 78.0 L 153.0 78.0 L 153.0 78.0 L 154.0 78.0 L 155.0 78.0 L 156.0 78.0 L 157.0 78.0 L 158.0 78.0 L 160.0 78.0 L 162.0 78.0 L 165.0 77.0 L 168.0 77.0 L 170.0 77.0 L 173.0 77.0 L 176.0 77.0 L 178.0 77.0 L 180.0 77.0 L 181.0 77.0 L 182.0 77.0 L 182.0 77.0 L 183.0 77.0 L 183.0 77.0 L 183.0 77.0 L 183.0 77.0 L 183.0 78.0 L 183.0 78.0 L 183.0 78.0 L 183.0 78.0 L 183.0 78.0 L 183.0 79.0 L 183.0 79.0 L 183.0 79.0 L 183.0 80.0 L 183.0 80.0 L 184.0 81.0 L 184.0 81.0 L 184.0 82.0 L 185.0 83.0 L 185.0 84.0 L 186.0 84.0 L 186.0 85.0 L 187.0 86.0 L 188.0 87.0 L 188.0 88.0 L 189.0 89.0 L 190.0 91.0 L 191.0 92.0 L 191.0 93.0 L 192.0 94.0 L 192.0 95.0 L 193.0 96.0 L 193.0 97.0 L 194.0 98.0 L 194.0 99.0 L 195.0 101.0 L 195.0 102.0 L 196.0 103.0 L 196.0 104.0 L 196.0 105.0 L 197.0 106.0 L 197.0 107.0 L 198.0 108.0 L 198.0 108.0 L 199.0 109.0 L 199.0 110.0 L 200.0 111.0 L 201.0 111.0 L 201.0 112.0 L 202.0 113.0 L 202.0 113.0 L 203.0 114.0 L 203.0 114.0 L 204.0 115.0 L 205.0 116.0 L 205.0 116.0 L 206.0 117.0 L 207.0 118.0 L 207.0 118.0 L 208.0 119.0 L 209.0 120.0 L 209.0 120.0 L 210.0 121.0 L 211.0 121.0 L 211.0 122.0 L 212.0 123.0 L 213.0 123.0 L 213.0 124.0 L 214.0 124.0 L 215.0 125.0 L 216.0 125.0 L 216.0 126.0 L 217.0 127.0 L 218.0 127.0 L 219.0 128.0 L 220.0 128.0 L 220.0 129.0 L 221.0 129.0 L 222.0 130.0 L 223.0 130.0 L 224.0 131.0 L 225.0 132.0 L 225.0 132.0 L 227.0 133.0 L 228.0 134.0 L 229.0 135.0 L 230.0 136.0 L 231.0 137.0 L 233.0 138.0 L 234.0 139.0 L 236.0 140.0 L 237.0 141.0 L 238.0 142.0 L 239.0 142.0 L 241.0 143.0 L 241.0 143.0 " stroke="black" fill="none" stroke-width="5.0" stroke-linecap="round" stroke-linejoin="round" />
<path d="M 99.0 134.0 L 99.0 134.0 L 99.0 134.0 L 99.0 134.0 L 99.0 134.0 L 99.0 134.0 L 99.0 134.0 L 99.0 134.0 L 99.0 134.0 L 99.0 134.0 L 99.0 134.0 L 100.0 134.0 L 100.0 134.0 L 101.0 134.0 L 101.0 134.0 L 102.0 134.0 L 103.0 134.0 L 103.0 134.0 L 104.0 134.0 L 105.0 134.0 L 106.0 134.0 L 107.0 134.0 L 108.0 134.0 L 108.0 134.0 L 109.0 134.0 L 110.0 134.0 L 110.0 134.0 L 111.0 134.0 L 112.0 134.0 L 112.0 134.0 L 113.0 134.0 L 114.0 134.0 L 114.0 134.0 L 115.0 134.0 L 115.0 134.0 L 116.0 134.0 L 116.0 134.0 L 117.0 134.0 L 117.0 134.0 L 118.0 134.0 L 118.0 134.0 L 119.0 134.0 L 120.0 134.0 L 120.0 134.0 L 121.0 134.0 L 121.0 134.0 L 122.0 134.0 L 123.0 134.0 L 123.0 134.0 L 124.0 134.0 L 125.0 134.0 L 125.0 134.0 L 126.0 134.0 L 126.0 134.0 L 127.0 134.0 L 128.0 134.0 L 128.0 134.0 L 129.0 134.0 L 130.0 134.0 L 130.0 134.0 L 131.0 134.0 L 132.0 134.0 L 132.0 134.0 L 133.0 134.0 L 134.0 134.0 L 134.0 134.0 L 135.0 134.0 L 136.0 134.0 L 136.0 134.0 L 137.0 134.0 L 138.0 135.0 L 139.0 135.0 L 140.0 135.0 L 141.0 135.0 L 142.0 135.0 L 143.0 135.0 L 143.0 135.0 L 144.0 135.0 L 145.0 135.0 L 146.0 135.0 L 146.0 135.0 L 147.0 135.0 L 147.0 135.0 L 148.0 135.0 L 149.0 135.0 L 149.0 135.0 L 150.0 135.0 L 150.0 135.0 L 151.0 135.0 L 152.0 135.0 L 152.0 135.0 L 153.0 135.0 L 153.0 135.0 L 154.0 135.0 L 154.0 135.0 L 155.0 135.0 L 156.0 135.0 L 157.0 135.0 L 158.0 135.0 L 159.0 135.0 L 160.0 135.0 L 162.0 136.0 L 164.0 136.0 L 165.0 136.0 L 167.0 136.0 L 169.0 136.0 L 172.0 136.0 L 174.0 136.0 L 176.0 136.0 L 178.0 136.0 L 181.0 136.0 L 184.0 136.0 L 186.0 136.0 L 189.0 136.0 L 191.0 136.0 L 193.0 136.0 L 195.0 135.0 L 196.0 135.0 " stroke="black" fill="none" stroke-width="5.0" stroke-linecap="round" stroke-linejoin="round" />
<path d="M 122.0 140.0 L 122.0 140.0 L 122.0 140.0 L 122.0 141.0 L 122.0 141.0 L 121.0 141.0 L 121.0 142.0 L 120.0 143.0 L 120.0 145.0 L 119.0 146.0 L 118.0 148.0 L 117.0 150.0 L 116.0 153.0 L 115.0 155.0 L 114.0 158.0 L 113.0 160.0 L 112.0 163.0 L 111.0 165.0 L 111.0 167.0 L 110.0 168.0 L 109.0 170.0 L 109.0 171.0 L 109.0 172.0 L 108.0 173.0 L 108.0 174.0 L 108.0 175.0 L 108.0 175.0 L 107.0 176.0 L 107.0 177.0 L 107.0 178.0 L 107.0 178.0 L 107.0 179.0 L 107.0 179.0 L 107.0 179.0 L 107.0 179.0 L 107.0 179.0 L 107.0 179.0 L 107.0 179.0 L 107.0 179.0 L 107.0 179.0 L 107.0 179.0 L 107.0 179.0 L 108.0 179.0 L 108.0 179.0 L 108.0 179.0 L 109.0 179.0 L 109.0 179.0 L 110.0 179.0 L 110.0 179.0 L 111.0 179.0 L 112.0 179.0 L 113.0 179.0 L 114.0 179.0 L 115.0 179.0 L 116.0 179.0 L 118.0 179.0 L 119.0 179.0 L 121.0 179.0 L 122.0 179.0 L 124.0 179.0 L 125.0 179.0 L 127.0 179.0 L 128.0 179.0 L 130.0 179.0 L 131.0 179.0 L 133.0 179.0 L 134.0 179.0 L 135.0 179.0 L 137.0 179.0 L 138.0 179.0 L 139.0 179.0 L 141.0 179.0 L 142.0 179.0 L 143.0 179.0 L 144.0 179.0 L 146.0 179.0 L 147.0 179.0 L 148.0 178.0 L 149.0 178.0 L 150.0 178.0 L 151.0 178.0 L 152.0 178.0 L 153.0 177.0 L 153.0 177.0 L 154.0 177.0 L 155.0 177.0 L 156.0 177.0 L 157.0 177.0 L 157.0 177.0 L 158.0 177.0 L 159.0 177.0 L 160.0 177.0 L 161.0 177.0 L 162.0 177.0 L 163.0 177.0 L 164.0 177.0 L 165.0 177.0 L 167.0 177.0 L 168.0 177.0 L 169.0 177.0 L 171.0 177.0 L 172.0 177.0 L 173.0 177.0 L 175.0 178.0 L 176.0 178.0 L 177.0 178.0 L 179.0 178.0 L 180.0 178.0 L 181.0 178.0 L 183.0 178.0 L 184.0 178.0 L 185.0 179.0 L 186.0 179.0 L 188.0 179.0 L 189.0 179.0 L 190.0 179.0 L 191.0 179.0 L 192.0 179.0 L 193.0 179.0 L 194.0 179.0 L 195.0 179.0 L 195.0 179.0 L 196.0 179.0 L 196.0 180.0 L 197.0 180.0 L 198.0 180.0 L 198.0 181.0 L 198.0 181.0 L 198.0 181.0 L 198.0 182.0 L 199.0 182.0 L 199.0 182.0 L 199.0 183.0 L 199.0 183.0 L 199.0 184.0 L 199.0 185.0 L 199.0 186.0 L 198.0 188.0 L 198.0 189.0 L 197.0 191.0 L 197.0 193.0 L 196.0 195.0 L 195.0 198.0 L 194.0 200.0 L 194.0 202.0 L 193.0 205.0 L 192.0 207.0 L 192.0 210.0 L 191.0 213.0 L 190.0 216.0 L 189.0 218.0 L 188.0 221.0 L 187.0 224.0 L 186.0 227.0 L 185.0 229.0 L 184.0 231.0 L 183.0 232.0 L 182.0 234.0 L 182.0 235.0 L 181.0 237.0 L 180.0 238.0 L 180.0 239.0 L 179.0 240.0 L 178.0 241.0 L 177.0 242.0 L 176.0 244.0 L 175.0 245.0 L 174.0 247.0 L 173.0 248.0 L 172.0 249.0 L 171.0 250.0 L 170.0 250.0 L 169.0 251.0 L 169.0 251.0 L 168.0 252.0 L 167.0 252.0 L 166.0 252.0 L 165.0 252.0 L 164.0 252.0 L 163.0 252.0 L 161.0 252.0 L 160.0 252.0 L 158.0 252.0 L 156.0 251.0 L 154.0 250.0 L 152.0 249.0 L 150.0 249.0 L 148.0 248.0 L 146.0 248.0 L 144.0 247.0 L 142.0 247.0 L 140.0 246.0 L 139.0 245.0 L 137.0 245.0 L 136.0 243.0 " stroke="black" fill="none" stroke-width="5.0" stroke-linecap="round" stroke-linejoin="round" />
</svg>