<svg xmlns="http://www.w3.org/2000/svg" width="300" height="300" viewBox="0 0 300 300">
<path d="M 114.0 74.0 L 114.0 74.0 L 114.0 74.0 L 114.0 74.0 L 114.0 74.0 L 113.0 74.0 L 113.0 74.0 L 113.0 74.0 L 113.0 74.0 L 113.0 76.0 L 113.0 77.0 L 113.0 80.0 L 112.0 83.0 L 111.0 88.0 L 109.0 94.0 L 107.0 101.0 L 103.0 109.0 L 99.0 116.0 L 94.0 123.0 L 87.0 129.0 L 79.0 135.0 L 72.0 140.0 L 65.0 145.0 L 61.0 149.0 " stroke="black" fill="none" stroke-width="5.0" stroke-linecap="round" stroke-linejoin="round" />
<path d="M 154.0 77.0 L 154.0 77.0 L 154.0 77.0 L 153.0 77.0 L 152.0 77.0 L 152.0 77.0 L 152.0 77.0 L 152.0 77.0 L 152.0 77.0 L 152.0 77.0 L 152.0 77.0 L 153.0 76.0 L 154.0 76.0 L 156.0 76.0 L 158.0 75.0 L 160.0 75.0 L 162.0 75.0 L 164.0 74.0 L 167.0 74.0 L 169.0 74.0 L 172.0 73.0 L 175.0 73.0 L 178.0 73.0 L 180.0 73.0 L 182.0 73.0 L 183.0 73.0 L 184.0 73.0 L 185.0 73.0 L 185.0 74.0 L 185.0 75.0 L 186.0 76.0 L 186.0 77.0 L 186.0 77.0 L 186.0 78.0 L 187.0 79.0 L 187.0 80.0 L 187.0 81.0 L 187.0 83.0 L 188.0 84.0 L 188.0 85.0 L 188.0 87.0 L 189.0 88.0 L 189.0 90.0 L 190.0 92.0 L 191.0 93.0 L 192.0 95.0 L 193.0 97.0 L 194.0 99.0 L 196.0 101.0 L 197.0 103.0 L 198.0 105.0 L 200.0 107.0 L 202.0 110.0 L 204.0 112.0 L 206.0 114.0 L 208.0 116.0 L 211.0 118.0 L 214.0 121.0 L 217.0 124.0 L 221.0 126.0 L 225.0 130.0 L 228.0 132.0 L 230.0 135.0 L 233.0 138.0 L 235.0 140.0 L 237.0 142.0 L 238.0 144.0 L 239.0 146.0 L 239.0 146.0 " stroke="black" fill="none" stroke-width="5.0" stroke-linecap="round" stroke-linejoin="round" />
<path d="M 104.0 132.0 L 104.0 132.0 L 104.0 132.0 L 103.0 132.0 L 103.0 132.0 L 103.0 132.0 L 103.0 132.0 L 103.0 132.0 L 103.0 132.0 L 104.0 132.0 L 107.0 132.0 L 111.0 133.0 L 117.0 133.0 L 124.0 134.0 L 133.0 135.0 L 142.0 136.0 L 151.0 136.0 L 158.0 136.0 L 165.0 136.0 L 173.0 136.0 L 179.0 136.0 L 185.0 136.0 L 189.0 137.0 L 192.0 137.0 " stroke="black" fill="none" stroke-width="5.0" stroke-linecap="round" stroke-linejoin="round" />
<path d="M 126.0 143.0 L 126.0 143.0 L 126.0 143.0 L 126.0 143.0 L 125.0 144.0 L 125.0 144.0 L 125.0 146.0 L 124.0 147.0 L 123.0 150.0 L 122.0 153.0 L 120.0 157.0 L 117.0 161.0 L 115.0 166.0 L 112.0 170.0 L 110.0 173.0 L 108.0 177.0 L 107.0 179.0 L 106.0 180.0 L 106.0 181.0 L 106.0 181.0 L 106.0 181.0 L 106.0 180.0 L 106.0 180.0 L 106.0 179.0 L 106.0 179.0 L 106.0 179.0 L 106.0 179.0 L 106.0 179.0 L 107.0 179.0 L 107.0 179.0 L 108.0 179.0 L 108.0 179.0 L 109.0 179.0 L 110.0 179.0 L 112.0 179.0 L 113.0 179.0 L 116.0 179.0 L 118.0 179.0 L 121.0 179.0 L 124.0 179.0 L 128.0 179.0 L 132.0 179.0 L 136.0 179.0 L 140.0 179.0 L 143.0 179.0 L 147.0 179.0 L 150.0 179.0 L 152.0 179.0 L 155.0 179.0 L 157.0 179.0 L 159.0 179.0 L 161.0 179.0 L 164.0 179.0 L 167.0 179.0 L 170.0 179.0 L 173.0 179.0 L 175.0 179.0 L 179.0 179.0 L 181.0 179.0 L 184.0 179.0 L 186.0 179.0 L 188.0 179.0 L 190.0 180.0 L 191.0 180.0 L 193.0 180.0 L 194.0 180.0 L 195.0 180.0 L 196.0 180.0 L 197.0 180.0 L 198.0 180.0 L 199.0 180.0 L 200.0 180.0 L 200.0 180.0 L 201.0 180.0 L 202.0 181.0 L 203.0 181.0 L 203.0 181.0 L 203.0 181.0 L 204.0 182.0 L 204.0 182.0 L 204.0 182.0 L 204.0 183.0 L 204.0 184.0 L 204.0 185.0 L 204.0 186.0 L 204.0 188.0 L 203.0 190.0 L 202.0 193.0 L 201.0 196.0 L 200.0 200.0 L 199.0 205.0 L 198.0 210.0 L 197.0 215.0 L 195.0 221.0 L 194.0 227.0 L 193.0 232.0 L 192.0 237.0 L 191.0 241.0 L 190.0 243.0 L 188.0 246.0 L 187.0 247.0 L 185.0 247.0 L 184.0 248.0 L 182.0 248.0 L 181.0 248.0 L 179.0 248.0 L 177.0 248.0 L 174.0 248.0 L 171.0 247.0 L 166.0 246.0 L 161.0 245.0 L 156.0 243.0 L 152.0 241.0 L 148.0 239.0 L 145.0 237.0 L 144.0 236.0 " stroke="black" fill="none" stroke-width="5.0" stroke-linecap="round" stroke-linejoin="round" />
</svg>