<svg xmlns="http://www.w3.org/2000/svg" width="300" height="300" viewBox="0 0 300 300">
<path d="M 117.0 79.0 L 117.0 79.0 L 116.0 79.0 L 116.0 79.0 L 116.0 79.0 L 116.0 79.0 L 115.0 79.0 L 115.0 80.0 L 114.0 81.0 L 114.0 82.0 L 113.0 83.0 L 112.0 85.0 L 111.0 88.0 L 110.0 91.0 L 108.0 96.0 L 106.0 100.0 L 104.0 105.0 L 101.0 110.0 L 98.0 115.0 L 95.0 119.0 L 90.0 123.0 L 85.0 127.0 L 80.0 130.0 L 74.0 133.0 L 70.0 136.0 L 67.0 138.0 " stroke="black" fill="none" stroke-width="5.0" stroke-linecap="round" stroke-linejoin="round" />
<path d="M 154.0 79.0 L 154.0 79.0 L 153.0 79.0 L 153.0 79.0 L 153.0 79.0 L 153.0 79.0 L 152.0 79.0 L 152.0 79.0 L 152.0 79.0 L 152.0 79.0 L 152.0 79.0 L 152.0 79.0 L 152.0 79.0 L 152.0 79.0 L 153.0 79.0 L 154.0 79.0 L 156.0 79.0 L 158.0 79.0 L 161.0 78.0 L 164.0 78.0 L 168.0 77.0 L 171.0 77.0 L 175.0 76.0 L 179.0 75.0 L 181.0 75.0 L 184.0 75.0 L 185.0 75.0 L 186.0 75.0 L 186.0 75.0 L 186.0 75.0 L 186.0 75.0 L 187.0 75.0 L 187.0 75.0 L 187.0 75.0 L 187.0 76.0 L 187.0 76.0 L 187.0 77.0 L 187.0 77.0 L 187.0 78.0 L 187.0 79.0 L 187.0 80.0 L 187.0 81.0 L 188.0 82.0 L 188.0 84.0 L 189.0 85.0 L 189.0 86.0 L 190.0 88.0 L 190.0 90.0 L 191.0 92.0 L 192.0 94.0 L 193.0 96.0 L 194.0 98.0 L 195.0 100.0 L 196.0 102.0 L 197.0 103.0 L 198.0 105.0 L 200.0 106.0 L 201.0 108.0 L 203.0 110.0 L 205.0 111.0 L 206.0 113.0 L 209.0 114.0 L 211.0 116.0 L 213.0 117.0 L 215.0 118.0 L 218.0 119.0 L 220.0 120.0 L 222.0 122.0 L 224.0 123.0 L 227.0 125.0 L 229.0 127.0 L 231.0 128.0 L 232.0 130.0 L 234.0 132.0 L 235.0 133.0 L 236.0 135.0 L 237.0 136.0 L 238.0 136.0 L 238.0 137.0 L 239.0 137.0 L 239.0 137.0 L 239.0 137.0 " stroke="black" fill="none" stroke-width="5.0" stroke-linecap="round" stroke-linejoin="round" />
<path d="M 102.0 131.0 L 102.0 131.0 L 102.0 131.0 L 102.0 131.0 L 102.0 131.0 L 102.0 131.0 L 102.0 131.0 L 102.0 131.0 L 102.0 131.0 L 103.0 131.0 L 104.0 131.0 L 105.0 131.0 L 107.0 131.0 L 110.0 132.0 L 114.0 132.0 L 120.0 132.0 L 127.0 132.0 L 135.0 132.0 L 144.0 132.0 L 150.0 132.0 L 156.0 131.0 L 162.0 131.0 L 167.0 131.0 L 173.0 131.0 L 179.0 131.0 L 184.0 131.0 L 189.0 132.0 L 193.0 132.0 L 195.0 132.0 L 197.0 132.0 L 198.0 132.0 L 199.0 132.0 " stroke="black" fill="none" stroke-width="5.0" stroke-linecap="round" stroke-linejoin="round" />
<path d="M 119.0 140.0 L 119.0 140.0 L 119.0 140.0 L 119.0 141.0 L 119.0 141.0 L 119.0 142.0 L 119.0 143.0 L 119.0 144.0 L 119.0 146.0 L 119.0 147.0 L 118.0 149.0 L 117.0 151.0 L 116.0 154.0 L 115.0 157.0 L 114.0 160.0 L 113.0 163.0 L 111.0 165.0 L 110.0 168.0 L 109.0 171.0 L 108.0 173.0 L 107.0 175.0 L 107.0 177.0 L 106.0 178.0 L 106.0 179.0 L 106.0 180.0 L 106.0 180.0 L 106.0 180.0 L 106.0 180.0 L 106.0 180.0 L 106.0 180.0 L 107.0 180.0 L 107.0 180.0 L 107.0 180.0 L 107.0 180.0 L 108.0 180.0 L 108.0 180.0 L 109.0 180.0 L 110.0 180.0 L 111.0 180.0 L 112.0 180.0 L 114.0 180.0 L 116.0 180.0 L 118.0 180.0 L 121.0 180.0 L 125.0 180.0 L 128.0 180.0 L 132.0 179.0 L 135.0 178.0 L 139.0 178.0 L 142.0 178.0 L 145.0 177.0 L 147.0 177.0 L 149.0 177.0 L 151.0 177.0 L 153.0 177.0 L 154.0 177.0 L 155.0 177.0 L 157.0 177.0 L 158.0 177.0 L 160.0 177.0 L 162.0 177.0 L 164.0 177.0 L 165.0 177.0 L 167.0 177.0 L 168.0 177.0 L 170.0 177.0 L 172.0 177.0 L 173.0 177.0 L 175.0 177.0 L 177.0 177.0 L 178.0 177.0 L 180.0 177.0 L 182.0 177.0 L 184.0 177.0 L 185.0 177.0 L 187.0 177.0 L 188.0 177.0 L 190.0 177.0 L 191.0 177.0 L 192.0 177.0 L 193.0 177.0 L 195.0 177.0 L 196.0 177.0 L 197.0 177.0 L 198.0 176.0 L 200.0 176.0 L 201.0 176.0 L 202.0 175.0 L 203.0 175.0 L 204.0 175.0 L 205.0 175.0 L 206.0 175.0 L 206.0 175.0 L 207.0 175.0 L 207.0 175.0 L 207.0 175.0 L 207.0 175.0 L 207.0 175.0 L 207.0 175.0 L 207.0 176.0 L 207.0 176.0 L 207.0 177.0 L 207.0 177.0 L 207.0 178.0 L 206.0 180.0 L 206.0 181.0 L 205.0 183.0 L 204.0 185.0 L 203.0 187.0 L 202.0 190.0 L 201.0 192.0 L 200.0 195.0 L 199.0 197.0 L 198.0 200.0 L 197.0 203.0 L 196.0 206.0 L 195.0 209.0 L 194.0 212.0 L 193.0 216.0 L 192.0 219.0 L 190.0 223.0 L 189.0 227.0 L 188.0 230.0 L 186.0 234.0 L 185.0 236.0 L 184.0 238.0 L 183.0 240.0 L 182.0 241.0 L 181.0 241.0 L 181.0 242.0 L 180.0 242.0 L 179.0 243.0 L 178.0 243.0 L 177.0 244.0 L 175.0 245.0 L 173.0 245.0 L 172.0 246.0 L 169.0 246.0 L 167.0 246.0 L 165.0 246.0 L 162.0 246.0 L 159.0 246.0 L 155.0 245.0 L 152.0 244.0 L 148.0 243.0 L 145.0 241.0 L 142.0 239.0 L 139.0 238.0 L 137.0 236.0 L 135.0 235.0 L 132.0 234.0 " stroke="black" fill="none" stroke-width="5.0" stroke-linecap="round" stroke-linejoin="round" />
</svg>