<svg xmlns="http://www.w3.org/2000/svg" width="300" height="300" viewBox="0 0 300 300">
<path d="M 118.0 76.0 L 117.0 76.0 L 116.0 76.0 L 116.0 77.0 L 115.0 77.0 L 115.0 77.0 L 115.0 77.0 L 115.0 77.0 L 115.0 77.0 L 115.0 78.0 L 116.0 78.0 L 116.0 78.0 L 117.0 79.0 L 117.0 80.0 L 117.0 82.0 L 117.0 84.0 L 117.0 86.0 L 115.0 91.0 L 113.0 97.0 L 110.0 104.0 L 105.0 112.0 L 101.0 120.0 L 95.0 126.0 L 88.0 133.0 L 81.0 138.0 L 75.0 142.0 L 69.0 146.0 " stroke="black" fill="none" stroke-width="5.0" stroke-linecap="round" stroke-linejoin="round" />
<path d="M 160.0 76.0 L 160.0 76.0 L 160.0 76.0 L 159.0 76.0 L 159.0 76.0 L 159.0 76.0 L 158.0 76.0 L 158.0 76.0 L 158.0 76.0 L 158.0 76.0 L 158.0 76.0 L 158.0 76.0 L 158.0 76.0 L 159.0 76.0 L 160.0 76.0 L 162.0 76.0 L 163.0 75.0 L 165.0 75.0 L 166.0 75.0 L 168.0 75.0 L 170.0 75.0 L 171.0 75.0 L 173.0 75.0 L 174.0 75.0 L 175.0 75.0 L 177.0 75.0 L 178.0 75.0 L 178.0 75.0 L 179.0 75.0 L 180.0 75.0 L 180.0 75.0 L 180.0 75.0 L 180.0 76.0 L 180.0 76.0 L 180.0 76.0 L 180.0 77.0 L 180.0 78.0 L 181.0 78.0 L 181.0 79.0 L 181.0 80.0 L 181.0 82.0 L 182.0 83.0 L 182.0 84.0 L 183.0 85.0 L 183.0 87.0 L 184.0 88.0 L 184.0 89.0 L 185.0 90.0 L 185.0 91.0 L 186.0 92.0 L 187.0 93.0 L 187.0 94.0 L 188.0 95.0 L 189.0 96.0 L 189.0 97.0 L 190.0 98.0 L 191.0 99.0 L 191.0 100.0 L 192.0 102.0 L 192.0 103.0 L 193.0 103.0 L 193.0 104.0 L 194.0 105.0 L 194.0 106.0 L 195.0 107.0 L 196.0 108.0 L 196.0 108.0 L 197.0 109.0 L 198.0 110.0 L 198.0 111.0 L 199.0 111.0 L 200.0 112.0 L 200.0 113.0 L 201.0 114.0 L 202.0 115.0 L 203.0 115.0 L 204.0 116.0 L 205.0 117.0 L 207.0 118.0 L 208.0 120.0 L 210.0 121.0 L 212.0 122.0 L 215.0 123.0 L 217.0 125.0 L 220.0 126.0 L 222.0 127.0 L 225.0 129.0 L 227.0 130.0 L 229.0 131.0 L 231.0 133.0 L 233.0 134.0 L 234.0 135.0 L 235.0 136.0 L 236.0 137.0 L 237.0 137.0 " stroke="black" fill="none" stroke-width="5.0" stroke-linecap="round" stroke-linejoin="round" />
<path d="M 104.0 131.0 L 104.0 131.0 L 104.0 131.0 L 104.0 131.0 L 104.0 131.0 L 104.0 131.0 L 104.0 131.0 L 104.0 131.0 L 104.0 131.0 L 104.0 130.0 L 104.0 130.0 L 104.0 130.0 L 104.0 130.0 L 104.0 130.0 L 104.0 130.0 L 104.0 130.0 L 104.0 130.0 L 105.0 130.0 L 105.0 130.0 L 106.0 130.0 L 107.0 130.0 L 108.0 130.0 L 110.0 130.0 L 111.0 131.0 L 112.0 131.0 L 114.0 131.0 L 116.0 131.0 L 117.0 131.0 L 119.0 132.0 L 120.0 132.0 L 122.0 132.0 L 123.0 132.0 L 125.0 132.0 L 126.0 132.0 L 127.0 132.0 L 129.0 132.0 L 130.0 132.0 L 131.0 132.0 L 132.0 132.0 L 133.0 132.0 L 134.0 132.0 L 135.0 132.0 L 136.0 132.0 L 137.0 132.0 L 137.0 132.0 L 138.0 132.0 L 139.0 132.0 L 140.0 132.0 L 141.0 132.0 L 141.0 132.0 L 142.0 132.0 L 143.0 132.0 L 143.0 132.0 L 144.0 132.0 L 145.0 132.0 L 145.0 132.0 L 146.0 132.0 L 147.0 132.0 L 148.0 132.0 L 148.0 132.0 L 149.0 132.0 L 150.0 132.0 L 151.0 132.0 L 152.0 132.0 L 153.0 132.0 L 153.0 132.0 L 155.0 132.0 L 155.0 132.0 L 157.0 132.0 L 158.0 132.0 L 159.0 132.0 L 161.0 132.0 L 163.0 132.0 L 165.0 132.0 L 167.0 132.0 L 170.0 132.0 L 172.0 132.0 L 175.0 132.0 L 178.0 132.0 L 181.0 132.0 L 184.0 132.0 L 187.0 132.0 L 189.0 132.0 L 190.0 132.0 " stroke="black" fill="none" stroke-width="5.0" stroke-linecap="round" stroke-linejoin="round" />
<path d="M 121.0 139.0 L 121.0 139.0 L 121.0 140.0 L 120.0 141.0 L 120.0 143.0 L 120.0 144.0 L 119.0 145.0 L 119.0 147.0 L 119.0 149.0 L 118.0 151.0 L 117.0 153.0 L 116.0 155.0 L 115.0 158.0 L 114.0 161.0 L 113.0 164.0 L 112.0 167.0 L 111.0 170.0 L 110.0 172.0 L 109.0 174.0 L 108.0 176.0 L 108.0 177.0 L 107.0 178.0 L 107.0 179.0 L 107.0 180.0 L 106.0 181.0 L 106.0 181.0 L 106.0 182.0 L 106.0 182.0 L 106.0 182.0 L 106.0 182.0 L 106.0 182.0 L 106.0 182.0 L 106.0 182.0 L 106.0 182.0 L 106.0 182.0 L 106.0 182.0 L 107.0 182.0 L 107.0 182.0 L 107.0 182.0 L 108.0 182.0 L 108.0 182.0 L 109.0 182.0 L 109.0 182.0 L 110.0 182.0 L 111.0 182.0 L 111.0 182.0 L 112.0 182.0 L 113.0 182.0 L 114.0 182.0 L 116.0 182.0 L 117.0 182.0 L 118.0 182.0 L 120.0 182.0 L 121.0 182.0 L 123.0 182.0 L 125.0 183.0 L 127.0 183.0 L 128.0 183.0 L 130.0 184.0 L 132.0 184.0 L 134.0 184.0 L 135.0 184.0 L 137.0 184.0 L 138.0 184.0 L 139.0 184.0 L 141.0 184.0 L 142.0 184.0 L 143.0 184.0 L 145.0 184.0 L 146.0 183.0 L 148.0 183.0 L 149.0 183.0 L 151.0 183.0 L 152.0 182.0 L 154.0 182.0 L 155.0 182.0 L 158.0 182.0 L 160.0 182.0 L 162.0 182.0 L 165.0 182.0 L 167.0 182.0 L 170.0 182.0 L 174.0 182.0 L 177.0 182.0 L 180.0 182.0 L 184.0 182.0 L 186.0 182.0 L 189.0 182.0 L 191.0 182.0 L 193.0 183.0 L 194.0 184.0 L 195.0 184.0 L 196.0 185.0 L 196.0 185.0 L 197.0 185.0 L 197.0 186.0 L 198.0 186.0 L 198.0 186.0 L 199.0 186.0 L 199.0 186.0 L 200.0 187.0 L 200.0 187.0 L 201.0 187.0 L 201.0 187.0 L 201.0 187.0 L 202.0 187.0 L 202.0 188.0 L 202.0 188.0 L 202.0 188.0 L 202.0 189.0 L 202.0 189.0 L 202.0 190.0 L 202.0 191.0 L 202.0 191.0 L 202.0 193.0 L 202.0 194.0 L 202.0 195.0 L 201.0 197.0 L 200.0 199.0 L 199.0 202.0 L 198.0 205.0 L 197.0 208.0 L 196.0 211.0 L 195.0 214.0 L 194.0 217.0 L 194.0 221.0 L 193.0 224.0 L 192.0 228.0 L 191.0 231.0 L 191.0 234.0 L 190.0 237.0 L 189.0 239.0 L 188.0 241.0 L 187.0 243.0 L 187.0 244.0 L 185.0 246.0 L 184.0 248.0 L 183.0 250.0 L 182.0 252.0 L 180.0 253.0 L 179.0 255.0 L 178.0 255.0 L 177.0 256.0 L 177.0 257.0 L 175.0 257.0 L 174.0 257.0 L 172.0 257.0 L 170.0 257.0 L 168.0 257.0 L 165.0 257.0 L 162.0 256.0 L 158.0 256.0 L 154.0 255.0 L 151.0 254.0 L 147.0 253.0 L 144.0 252.0 L 141.0 251.0 L 138.0 250.0 L 136.0 249.0 " stroke="black" fill="none" stroke-width="5.0" stroke-linecap="round" stroke-linejoin="round" />
</svg>