<svg xmlns="http://www.w3.org/2000/svg" width="300" height="300" viewBox="0 0 300 300">
<path d="M 115.0 77.0 L 115.0 77.0 L 115.0 77.0 L 115.0 76.0 L 115.0 76.0 L 115.0 75.0 L 115.0 75.0 L 115.0 75.0 L 116.0 75.0 L 116.0 75.0 L 116.0 75.0 L 116.0 77.0 L 114.0 80.0 L 113.0 85.0 L 110.0 92.0 L 107.0 100.0 L 102.0 109.0 L 96.0 117.0 L 89.0 124.0 L 80.0 130.0 L 73.0 133.0 L 68.0 135.0 L 66.0 135.0 " stroke="black" fill="none" stroke-width="5.0" stroke-linecap="round" stroke-linejoin="round" />
<path d="M 154.0 77.0 L 154.0 77.0 L 154.0 77.0 L 153.0 77.0 L 153.0 77.0 L 153.0 77.0 L 152.0 77.0 L 152.0 77.0 L 152.0 77.0 L 152.0 77.0 L 152.0 77.0 L 152.0 77.0 L 152.0 77.0 L 152.0 77.0 L 153.0 77.0 L 155.0 77.0 L 157.0 77.0 L 159.0 77.0 L 163.0 77.0 L 166.0 77.0 L 170.0 76.0 L 174.0 76.0 L 178.0 76.0 L 181.0 76.0 L 184.0 76.0 L 186.0 76.0 L 187.0 76.0 L 188.0 76.0 L 188.0 76.0 L 188.0 76.0 L 188.0 77.0 L 188.0 77.0 L 188.0 78.0 L 188.0 79.0 L 188.0 80.0 L 188.0 81.0 L 188.0 82.0 L 188.0 83.0 L 188.0 84.0 L 188.0 85.0 L 188.0 87.0 L 188.0 88.0 L 189.0 90.0 L 189.0 92.0 L 190.0 94.0 L 191.0 96.0 L 191.0 97.0 L 193.0 102.0 L 194.0 103.0 L 195.0 105.0 L 196.0 107.0 L 197.0 109.0 L 198.0 110.0 L 199.0 112.0 L 201.0 113.0 L 202.0 114.0 L 204.0 115.0 L 206.0 116.0 L 207.0 117.0 L 210.0 118.0 L 212.0 119.0 L 214.0 120.0 L 217.0 122.0 L 219.0 123.0 L 222.0 125.0 L 224.0 126.0 L 227.0 128.0 L 229.0 130.0 L 231.0 132.0 L 233.0 134.0 L 235.0 136.0 L 238.0 139.0 L 239.0 140.0 L 241.0 142.0 L 243.0 143.0 L 244.0 144.0 L 245.0 145.0 L 245.0 146.0 " stroke="black" fill="none" stroke-width="5.0" stroke-linecap="round" stroke-linejoin="round" />
<path d="M 105.0 134.0 L 105.0 134.0 L 105.0 134.0 L 105.0 134.0 L 104.0 134.0 L 104.0 134.0 L 104.0 134.0 L 104.0 134.0 L 104.0 134.0 L 106.0 134.0 L 108.0 134.0 L 112.0 135.0 L 118.0 136.0 L 125.0 136.0 L 135.0 137.0 L 144.0 138.0 L 152.0 138.0 L 158.0 139.0 L 165.0 140.0 L 170.0 141.0 L 176.0 141.0 L 181.0 142.0 L 185.0 142.0 L 189.0 142.0 L 191.0 142.0 L 193.0 142.0 " stroke="black" fill="none" stroke-width="5.0" stroke-linecap="round" stroke-linejoin="round" />
<path d="M 125.0 146.0 L 125.0 146.0 L 124.0 146.0 L 124.0 146.0 L 124.0 146.0 L 123.0 146.0 L 123.0 146.0 L 123.0 147.0 L 122.0 149.0 L 121.0 151.0 L 121.0 154.0 L 120.0 158.0 L 119.0 161.0 L 117.0 165.0 L 116.0 169.0 L 115.0 173.0 L 114.0 176.0 L 113.0 179.0 L 112.0 181.0 L 112.0 182.0 L 111.0 183.0 L 111.0 184.0 L 111.0 184.0 L 111.0 184.0 L 111.0 184.0 L 111.0 184.0 L 111.0 184.0 L 111.0 184.0 L 111.0 184.0 L 112.0 184.0 L 112.0 184.0 L 113.0 183.0 L 114.0 183.0 L 116.0 183.0 L 117.0 183.0 L 120.0 183.0 L 122.0 183.0 L 125.0 183.0 L 129.0 182.0 L 133.0 182.0 L 136.0 182.0 L 140.0 182.0 L 143.0 182.0 L 147.0 182.0 L 150.0 182.0 L 152.0 182.0 L 155.0 182.0 L 158.0 182.0 L 161.0 182.0 L 164.0 182.0 L 167.0 182.0 L 170.0 182.0 L 173.0 182.0 L 177.0 182.0 L 180.0 182.0 L 184.0 182.0 L 187.0 182.0 L 190.0 182.0 L 193.0 182.0 L 195.0 182.0 L 196.0 182.0 L 198.0 182.0 L 199.0 182.0 L 201.0 182.0 L 202.0 182.0 L 204.0 182.0 L 205.0 182.0 L 206.0 182.0 L 208.0 182.0 L 209.0 182.0 L 209.0 182.0 L 210.0 182.0 L 210.0 183.0 L 211.0 183.0 L 211.0 184.0 L 211.0 185.0 L 211.0 186.0 L 210.0 187.0 L 210.0 189.0 L 209.0 191.0 L 208.0 194.0 L 207.0 197.0 L 205.0 200.0 L 203.0 205.0 L 201.0 210.0 L 199.0 215.0 L 196.0 221.0 L 194.0 226.0 L 192.0 231.0 L 190.0 236.0 L 187.0 240.0 L 185.0 243.0 L 183.0 246.0 L 181.0 248.0 L 178.0 250.0 L 176.0 251.0 L 173.0 251.0 L 170.0 252.0 L 167.0 252.0 L 164.0 252.0 L 161.0 252.0 L 158.0 251.0 L 156.0 250.0 L 153.0 249.0 L 151.0 248.0 L 149.0 246.0 L 146.0 245.0 L 144.0 243.0 L 142.0 242.0 L 139.0 241.0 L 137.0 239.0 L 135.0 237.0 " stroke="black" fill="none" stroke-width="5.0" stroke-linecap="round" stroke-linejoin="round" />
</svg>