<svg xmlns="http://www.w3.org/2000/svg" width="300" height="300" viewBox="0 0 300 300">
<path d="M 73.0 80.0 L 73.0 80.0 L 73.0 80.0 L 73.0 80.0 L 74.0 80.0 L 74.0 80.0 L 74.0 80.0 L 74.0 81.0 L 75.0 81.0 L 75.0 82.0 L 75.0 82.0 L 76.0 83.0 L 76.0 84.0 L 76.0 85.0 L 76.0 86.0 L 77.0 88.0 L 77.0 90.0 L 77.0 92.0 L 78.0 95.0 L 78.0 98.0 L 78.0 100.0 L 78.0 103.0 L 79.0 105.0 L 79.0 107.0 L 79.0 109.0 L 79.0 111.0 L 79.0 113.0 L 79.0 116.0 L 79.0 117.0 L 79.0 119.0 L 79.0 121.0 L 79.0 123.0 L 79.0 125.0 L 79.0 127.0 L 79.0 129.0 L 79.0 131.0 L 79.0 133.0 L 79.0 136.0 L 79.0 138.0 L 79.0 141.0 L 79.0 143.0 L 78.0 146.0 L 78.0 149.0 L 78.0 152.0 L 78.0 155.0 L 77.0 158.0 L 77.0 161.0 L 77.0 164.0 L 77.0 166.0 L 76.0 169.0 L 76.0 172.0 L 76.0 175.0 L 76.0 178.0 L 75.0 181.0 L 75.0 184.0 L 74.0 188.0 L 74.0 191.0 L 74.0 195.0 L 73.0 198.0 L 73.0 201.0 L 72.0 205.0 L 71.0 208.0 L 71.0 211.0 L 70.0 214.0 L 69.0 218.0 L 69.0 222.0 L 68.0 228.0 L 67.0 233.0 L 66.0 238.0 L 65.0 243.0 L 64.0 248.0 L 63.0 252.0 L 62.0 255.0 L 61.0 257.0 " stroke="black" fill="none" stroke-width="5.0" stroke-linecap="round" stroke-linejoin="round" />
<path d="M 78.0 78.0 L 78.0 78.0 L 78.0 78.0 L 78.0 78.0 L 78.0 78.0 L 78.0 78.0 L 78.0 78.0 L 78.0 78.0 L 78.0 78.0 L 77.0 78.0 L 77.0 78.0 L 77.0 79.0 L 77.0 79.0 L 78.0 79.0 L 78.0 79.0 L 79.0 79.0 L 80.0 79.0 L 81.0 79.0 L 83.0 79.0 L 84.0 79.0 L 86.0 79.0 L 88.0 79.0 L 90.0 79.0 L 92.0 79.0 L 95.0 79.0 L 97.0 79.0 L 99.0 79.0 L 101.0 79.0 L 103.0 79.0 L 105.0 79.0 L 107.0 79.0 L 108.0 79.0 L 110.0 79.0 L 112.0 79.0 L 113.0 79.0 L 114.0 79.0 L 116.0 79.0 L 117.0 79.0 L 118.0 80.0 L 119.0 80.0 L 120.0 80.0 L 120.0 80.0 L 121.0 81.0 L 121.0 81.0 L 121.0 82.0 L 121.0 82.0 L 121.0 83.0 L 121.0 84.0 L 121.0 84.0 L 121.0 85.0 L 121.0 86.0 L 121.0 88.0 L 121.0 89.0 L 121.0 91.0 L 121.0 94.0 L 121.0 96.0 L 121.0 99.0 L 121.0 103.0 L 121.0 106.0 L 121.0 109.0 L 121.0 113.0 L 121.0 116.0 L 121.0 119.0 L 121.0 122.0 L 121.0 125.0 L 121.0 127.0 L 121.0 130.0 L 121.0 132.0 L 121.0 135.0 L 121.0 138.0 L 121.0 141.0 L 121.0 143.0 L 120.0 146.0 L 120.0 149.0 L 120.0 151.0 L 120.0 153.0 L 120.0 155.0 L 119.0 157.0 L 119.0 159.0 L 119.0 161.0 L 119.0 162.0 L 119.0 164.0 L 119.0 166.0 L 119.0 168.0 L 119.0 170.0 L 119.0 172.0 L 119.0 174.0 L 119.0 176.0 L 119.0 178.0 L 119.0 180.0 L 119.0 182.0 L 119.0 184.0 L 119.0 186.0 L 119.0 189.0 L 119.0 191.0 L 119.0 193.0 L 119.0 195.0 L 119.0 197.0 L 119.0 199.0 L 118.0 201.0 L 118.0 203.0 L 118.0 205.0 L 118.0 207.0 L 118.0 209.0 L 118.0 211.0 L 118.0 214.0 L 118.0 216.0 L 118.0 218.0 L 118.0 221.0 L 118.0 224.0 L 118.0 226.0 L 118.0 229.0 L 118.0 232.0 L 118.0 235.0 L 118.0 238.0 L 118.0 241.0 L 118.0 243.0 L 118.0 246.0 L 118.0 249.0 L 118.0 252.0 L 118.0 255.0 L 118.0 257.0 L 118.0 260.0 L 118.0 262.0 L 118.0 264.0 L 117.0 265.0 L 117.0 266.0 L 117.0 266.0 L 117.0 266.0 L 116.0 266.0 L 116.0 266.0 L 115.0 266.0 L 114.0 265.0 L 113.0 264.0 L 112.0 262.0 L 110.0 259.0 L 108.0 256.0 L 105.0 252.0 L 102.0 247.0 L 99.0 242.0 " stroke="black" fill="none" stroke-width="5.0" stroke-linecap="round" stroke-linejoin="round" />
<path d="M 86.0 131.0 L 85.0 131.0 L 83.0 131.0 L 82.0 130.0 L 82.0 130.0 L 81.0 130.0 L 81.0 130.0 L 82.0 130.0 L 83.0 130.0 L 84.0 130.0 L 87.0 130.0 L 90.0 131.0 L 93.0 131.0 L 97.0 131.0 L 101.0 131.0 L 106.0 131.0 L 110.0 131.0 L 115.0 131.0 L 121.0 131.0 L 124.0 131.0 " stroke="black" fill="none" stroke-width="5.0" stroke-linecap="round" stroke-linejoin="round" />
<path d="M 83.0 177.0 L 83.0 177.0 L 83.0 177.0 L 83.0 177.0 L 83.0 177.0 L 83.0 177.0 L 84.0 176.0 L 86.0 175.0 L 89.0 175.0 L 94.0 174.0 L 99.0 173.0 L 104.0 172.0 L 110.0 171.0 L 114.0 171.0 " stroke="black" fill="none" stroke-width="5.0" stroke-linecap="round" stroke-linejoin="round" />
<path d="M 160.0 83.0 L 160.0 83.0 L 160.0 83.0 L 160.0 83.0 L 160.0 83.0 L 160.0 83.0 L 160.0 83.0 L 160.0 83.0 L 160.0 83.0 L 160.0 83.0 L 160.0 83.0 L 160.0 83.0 L 160.0 83.0 L 160.0 83.0 L 160.0 83.0 L 160.0 83.0 L 160.0 83.0 L 160.0 83.0 L 160.0 83.0 L 161.0 83.0 L 162.0 83.0 L 163.0 83.0 L 164.0 83.0 L 165.0 83.0 L 167.0 83.0 L 168.0 83.0 L 170.0 83.0 L 172.0 82.0 L 174.0 82.0 L 176.0 82.0 L 178.0 82.0 L 180.0 82.0 L 182.0 82.0 L 183.0 82.0 L 185.0 82.0 L 187.0 82.0 L 188.0 82.0 L 190.0 82.0 L 191.0 82.0 L 193.0 82.0 L 194.0 82.0 L 196.0 82.0 L 197.0 82.0 L 198.0 83.0 L 200.0 83.0 L 202.0 83.0 L 204.0 83.0 L 206.0 83.0 L 208.0 83.0 L 210.0 83.0 L 213.0 83.0 L 215.0 83.0 L 218.0 82.0 L 220.0 82.0 L 222.0 82.0 L 224.0 82.0 L 225.0 82.0 L 227.0 82.0 L 228.0 82.0 L 229.0 82.0 L 230.0 82.0 L 231.0 82.0 L 231.0 82.0 L 231.0 82.0 L 232.0 83.0 L 232.0 83.0 L 232.0 83.0 L 232.0 84.0 L 232.0 84.0 L 232.0 84.0 L 232.0 85.0 L 232.0 86.0 L 232.0 87.0 L 231.0 88.0 L 231.0 89.0 L 230.0 91.0 L 230.0 93.0 L 229.0 95.0 L 229.0 98.0 L 228.0 101.0 L 227.0 105.0 L 227.0 108.0 L 226.0 111.0 L 225.0 114.0 L 225.0 117.0 L 224.0 119.0 L 223.0 121.0 L 223.0 122.0 L 222.0 123.0 L 222.0 123.0 L 221.0 124.0 L 220.0 124.0 L 219.0 124.0 L 218.0 124.0 L 216.0 124.0 L 214.0 124.0 L 212.0 124.0 L 210.0 125.0 L 207.0 125.0 L 205.0 125.0 L 202.0 125.0 L 200.0 124.0 " stroke="black" fill="none" stroke-width="5.0" stroke-linecap="round" stroke-linejoin="round" />
<path d="M 157.0 84.0 L 157.0 84.0 L 157.0 85.0 L 157.0 85.0 L 157.0 86.0 L 157.0 87.0 L 157.0 89.0 L 157.0 91.0 L 157.0 93.0 L 157.0 96.0 L 157.0 100.0 L 157.0 104.0 L 157.0 108.0 L 157.0 112.0 L 157.0 115.0 L 157.0 119.0 L 157.0 122.0 L 157.0 125.0 L 157.0 128.0 L 157.0 130.0 L 157.0 133.0 L 158.0 136.0 L 158.0 138.0 L 158.0 141.0 L 158.0 143.0 L 158.0 146.0 L 159.0 149.0 L 159.0 151.0 L 159.0 153.0 L 159.0 155.0 L 159.0 157.0 L 159.0 158.0 L 159.0 160.0 L 159.0 162.0 L 159.0 163.0 L 158.0 165.0 L 158.0 167.0 L 158.0 169.0 L 158.0 171.0 L 158.0 173.0 L 158.0 175.0 L 158.0 177.0 L 157.0 180.0 L 157.0 182.0 L 157.0 185.0 L 157.0 187.0 L 157.0 190.0 L 157.0 193.0 L 157.0 195.0 L 157.0 198.0 L 157.0 201.0 L 157.0 203.0 L 157.0 206.0 L 157.0 209.0 L 157.0 211.0 L 157.0 214.0 L 157.0 218.0 L 157.0 221.0 L 157.0 224.0 L 157.0 228.0 L 157.0 231.0 L 157.0 234.0 L 157.0 237.0 L 156.0 239.0 L 156.0 241.0 L 156.0 244.0 L 155.0 245.0 L 155.0 246.0 " stroke="black" fill="none" stroke-width="5.0" stroke-linecap="round" stroke-linejoin="round" />
<path d="M 166.0 155.0 L 166.0 155.0 L 166.0 155.0 L 165.0 155.0 L 164.0 155.0 L 163.0 155.0 L 162.0 155.0 L 162.0 155.0 L 162.0 155.0 L 162.0 155.0 L 162.0 155.0 L 162.0 155.0 L 162.0 155.0 L 163.0 155.0 L 164.0 155.0 L 165.0 155.0 L 166.0 155.0 L 167.0 155.0 L 168.0 155.0 L 170.0 155.0 L 171.0 155.0 L 172.0 155.0 L 174.0 155.0 L 175.0 155.0 L 177.0 155.0 L 179.0 155.0 L 180.0 155.0 L 182.0 155.0 L 184.0 155.0 L 185.0 155.0 L 186.0 155.0 L 188.0 155.0 L 189.0 155.0 L 190.0 155.0 L 191.0 155.0 L 192.0 155.0 L 194.0 155.0 L 195.0 155.0 L 196.0 155.0 L 197.0 155.0 L 198.0 155.0 L 200.0 155.0 L 201.0 155.0 L 203.0 155.0 L 204.0 155.0 L 206.0 155.0 L 208.0 155.0 L 210.0 155.0 L 212.0 155.0 L 214.0 155.0 L 216.0 154.0 L 218.0 154.0 L 220.0 154.0 L 222.0 154.0 L 223.0 154.0 L 225.0 154.0 L 227.0 154.0 L 228.0 154.0 L 230.0 154.0 L 232.0 154.0 L 233.0 154.0 L 234.0 154.0 L 235.0 154.0 L 236.0 154.0 L 237.0 154.0 L 237.0 155.0 L 237.0 155.0 L 237.0 155.0 L 237.0 156.0 L 237.0 156.0 L 237.0 156.0 L 237.0 157.0 L 237.0 157.0 L 237.0 157.0 L 237.0 158.0 L 237.0 159.0 L 237.0 160.0 L 237.0 161.0 L 236.0 162.0 L 235.0 164.0 L 235.0 165.0 L 234.0 167.0 L 233.0 169.0 L 232.0 171.0 L 231.0 174.0 L 229.0 177.0 L 227.0 180.0 L 226.0 184.0 L 223.0 188.0 L 221.0 191.0 L 219.0 194.0 L 217.0 198.0 L 214.0 201.0 L 212.0 204.0 L 209.0 207.0 L 206.0 210.0 L 203.0 212.0 L 201.0 215.0 L 199.0 218.0 L 197.0 221.0 L 195.0 224.0 L 193.0 227.0 L 192.0 230.0 L 190.0 232.0 L 188.0 234.0 L 187.0 236.0 L 185.0 237.0 L 183.0 239.0 L 181.0 240.0 L 179.0 241.0 L 177.0 242.0 L 175.0 243.0 L 173.0 244.0 L 170.0 245.0 L 168.0 245.0 L 166.0 245.0 L 165.0 245.0 L 164.0 245.0 " stroke="black" fill="none" stroke-width="5.0" stroke-linecap="round" stroke-linejoin="round" />
<path d="M 169.0 152.0 L 169.0 152.0 L 168.0 152.0 L 168.0 152.0 L 168.0 151.0 L 168.0 151.0 L 168.0 151.0 L 168.0 151.0 L 168.0 151.0 L 168.0 151.0 L 169.0 152.0 L 170.0 153.0 L 171.0 155.0 L 172.0 157.0 L 172.0 159.0 L 173.0 161.0 L 174.0 163.0 L 175.0 166.0 L 175.0 168.0 L 176.0 171.0 L 177.0 174.0 L 178.0 177.0 L 179.0 180.0 L 179.0 183.0 L 180.0 186.0 L 181.0 188.0 L 182.0 191.0 L 183.0 193.0 L 184.0 195.0 L 185.0 197.0 L 185.0 198.0 L 186.0 200.0 L 187.0 202.0 L 188.0 204.0 L 189.0 205.0 L 190.0 207.0 L 191.0 209.0 L 192.0 211.0 L 193.0 213.0 L 194.0 215.0 L 195.0 217.0 L 196.0 220.0 L 197.0 223.0 L 198.0 225.0 L 200.0 228.0 L 202.0 231.0 L 203.0 234.0 L 205.0 237.0 L 208.0 239.0 L 211.0 241.0 L 214.0 244.0 L 217.0 246.0 L 220.0 248.0 L 224.0 250.0 L 227.0 253.0 L 230.0 255.0 L 232.0 257.0 L 235.0 258.0 L 236.0 259.0 L 237.0 260.0 L 238.0 260.0 L 238.0 260.0 " stroke="black" fill="none" stroke-width="5.0" stroke-linecap="round" stroke-linejoin="round" />
</svg>