<svg xmlns="http://www.w3.org/2000/svg" width="300" height="300" viewBox="0 0 300 300">
<path d="M 104.0 66.0 L 104.0 66.0 L 104.0 66.0 L 103.0 65.0 L 103.0 65.0 L 103.0 65.0 L 103.0 65.0 L 102.0 65.0 L 102.0 65.0 L 102.0 65.0 L 102.0 65.0 L 102.0 65.0 L 102.0 66.0 L 102.0 67.0 L 101.0 69.0 L 101.0 71.0 L 100.0 73.0 L 99.0 76.0 L 97.0 80.0 L 94.0 84.0 L 91.0 89.0 L 86.0 96.0 L 80.0 102.0 L 74.0 109.0 L 67.0 116.0 L 62.0 121.0 L 58.0 125.0 L 54.0 129.0 L 53.0 130.0 " stroke="black" fill="none" stroke-width="5.0" stroke-linecap="round" stroke-linejoin="round" />
<path d="M 108.0 112.0 L 108.0 112.0 L 108.0 112.0 L 108.0 111.0 L 108.0 111.0 L 108.0 111.0 L 108.0 110.0 L 108.0 110.0 L 108.0 110.0 L 108.0 110.0 L 108.0 111.0 L 107.0 112.0 L 107.0 113.0 L 106.0 114.0 L 105.0 116.0 L 104.0 119.0 L 102.0 121.0 L 100.0 125.0 L 98.0 128.0 L 95.0 133.0 L 91.0 138.0 L 86.0 143.0 L 81.0 149.0 L 75.0 155.0 L 69.0 160.0 L 65.0 164.0 L 62.0 168.0 L 59.0 171.0 L 58.0 172.0 L 56.0 174.0 L 56.0 174.0 " stroke="black" fill="none" stroke-width="5.0" stroke-linecap="round" stroke-linejoin="round" />
<path d="M 88.0 144.0 L 88.0 144.0 L 87.0 144.0 L 87.0 144.0 L 86.0 144.0 L 86.0 145.0 L 86.0 146.0 L 86.0 147.0 L 86.0 149.0 L 86.0 151.0 L 86.0 154.0 L 86.0 158.0 L 86.0 163.0 L 86.0 168.0 L 86.0 174.0 L 86.0 182.0 L 86.0 190.0 L 85.0 198.0 L 85.0 208.0 L 85.0 217.0 L 85.0 227.0 L 85.0 235.0 L 85.0 241.0 L 85.0 244.0 L 85.0 246.0 L 86.0 246.0 L 87.0 246.0 L 88.0 246.0 L 89.0 246.0 " stroke="black" fill="none" stroke-width="5.0" stroke-linecap="round" stroke-linejoin="round" />
<path d="M 150.0 78.0 L 150.0 78.0 L 150.0 78.0 L 150.0 78.0 L 150.0 78.0 L 150.0 78.0 L 149.0 78.0 L 149.0 78.0 L 149.0 79.0 L 149.0 80.0 L 149.0 81.0 L 148.0 83.0 L 148.0 86.0 L 148.0 90.0 L 147.0 96.0 L 145.0 102.0 L 143.0 109.0 L 141.0 116.0 L 139.0 122.0 L 136.0 128.0 L 133.0 133.0 L 130.0 137.0 L 127.0 141.0 L 125.0 144.0 L 123.0 146.0 L 122.0 147.0 " stroke="black" fill="none" stroke-width="5.0" stroke-linecap="round" stroke-linejoin="round" />
<path d="M 145.0 112.0 L 145.0 112.0 L 145.0 112.0 L 145.0 112.0 L 145.0 112.0 L 145.0 112.0 L 145.0 112.0 L 145.0 113.0 L 146.0 114.0 L 147.0 116.0 L 148.0 118.0 L 151.0 121.0 L 154.0 124.0 L 158.0 126.0 L 162.0 128.0 L 166.0 129.0 L 168.0 130.0 " stroke="black" fill="none" stroke-width="5.0" stroke-linecap="round" stroke-linejoin="round" />
<path d="M 204.0 73.0 L 204.0 73.0 L 204.0 73.0 L 204.0 73.0 L 204.0 73.0 L 203.0 73.0 L 203.0 73.0 L 203.0 73.0 L 203.0 73.0 L 203.0 73.0 L 203.0 73.0 L 203.0 73.0 L 203.0 74.0 L 204.0 75.0 L 204.0 77.0 L 204.0 78.0 L 205.0 81.0 L 205.0 84.0 L 205.0 87.0 L 205.0 91.0 L 204.0 95.0 L 202.0 101.0 L 201.0 106.0 L 199.0 111.0 L 196.0 117.0 L 194.0 122.0 L 192.0 127.0 L 189.0 132.0 L 187.0 136.0 L 184.0 140.0 L 182.0 143.0 L 181.0 144.0 " stroke="black" fill="none" stroke-width="5.0" stroke-linecap="round" stroke-linejoin="round" />
<path d="M 207.0 105.0 L 207.0 105.0 L 206.0 105.0 L 206.0 105.0 L 205.0 105.0 L 205.0 105.0 L 205.0 105.0 L 205.0 106.0 L 206.0 107.0 L 208.0 108.0 L 211.0 110.0 L 214.0 113.0 L 218.0 116.0 L 221.0 119.0 L 226.0 123.0 L 230.0 127.0 L 234.0 131.0 L 236.0 135.0 L 239.0 138.0 L 241.0 140.0 L 243.0 140.0 L 244.0 140.0 " stroke="black" fill="none" stroke-width="5.0" stroke-linecap="round" stroke-linejoin="round" />
<path d="M 181.0 156.0 L 181.0 156.0 L 181.0 156.0 L 181.0 156.0 L 182.0 156.0 L 182.0 157.0 L 182.0 157.0 L 182.0 157.0 L 182.0 158.0 L 182.0 159.0 L 182.0 162.0 L 182.0 165.0 L 181.0 169.0 L 180.0 174.0 L 180.0 181.0 L 179.0 188.0 L 179.0 195.0 L 179.0 201.0 L 179.0 207.0 L 180.0 213.0 L 180.0 218.0 L 180.0 223.0 L 180.0 227.0 L 180.0 230.0 L 181.0 233.0 " stroke="black" fill="none" stroke-width="5.0" stroke-linecap="round" stroke-linejoin="round" />
<path d="M 183.0 188.0 L 182.0 188.0 L 182.0 188.0 L 181.0 188.0 L 180.0 188.0 L 180.0 188.0 L 179.0 188.0 L 179.0 188.0 L 179.0 188.0 L 179.0 189.0 L 179.0 189.0 L 180.0 189.0 L 181.0 190.0 L 182.0 190.0 L 184.0 190.0 L 185.0 191.0 L 186.0 191.0 L 188.0 191.0 L 190.0 191.0 L 191.0 192.0 L 193.0 192.0 L 196.0 192.0 L 199.0 192.0 L 202.0 192.0 L 206.0 192.0 L 210.0 192.0 L 215.0 191.0 L 220.0 191.0 L 225.0 191.0 L 228.0 191.0 L 231.0 191.0 L 234.0 191.0 L 235.0 191.0 L 236.0 191.0 L 236.0 191.0 L 236.0 191.0 " stroke="black" fill="none" stroke-width="5.0" stroke-linecap="round" stroke-linejoin="round" />
<path d="M 141.0 169.0 L 141.0 169.0 L 141.0 169.0 L 141.0 170.0 L 141.0 170.0 L 141.0 170.0 L 140.0 171.0 L 140.0 171.0 L 140.0 172.0 L 140.0 172.0 L 140.0 173.0 L 140.0 174.0 L 140.0 176.0 L 140.0 178.0 L 140.0 180.0 L 140.0 184.0 L 139.0 188.0 L 139.0 192.0 L 137.0 197.0 L 136.0 202.0 L 135.0 206.0 L 134.0 210.0 L 133.0 214.0 L 132.0 217.0 L 131.0 221.0 L 130.0 225.0 L 128.0 229.0 L 127.0 234.0 L 125.0 237.0 L 123.0 240.0 L 121.0 244.0 L 119.0 247.0 L 117.0 250.0 L 114.0 254.0 L 112.0 258.0 L 111.0 261.0 " stroke="black" fill="none" stroke-width="5.0" stroke-linecap="round" stroke-linejoin="round" />
<path d="M 135.0 212.0 L 135.0 212.0 L 134.0 212.0 L 134.0 211.0 L 133.0 211.0 L 133.0 211.0 L 133.0 211.0 L 133.0 211.0 L 133.0 211.0 L 133.0 211.0 L 133.0 212.0 L 133.0 212.0 L 134.0 212.0 L 134.0 213.0 L 134.0 213.0 L 135.0 214.0 L 135.0 214.0 L 135.0 215.0 L 136.0 216.0 L 136.0 216.0 L 136.0 217.0 L 137.0 217.0 L 137.0 218.0 L 137.0 219.0 L 137.0 219.0 L 138.0 220.0 L 138.0 221.0 L 138.0 221.0 L 139.0 222.0 L 139.0 223.0 L 139.0 224.0 L 140.0 225.0 L 141.0 225.0 L 141.0 226.0 L 141.0 227.0 L 142.0 228.0 L 143.0 228.0 L 143.0 229.0 L 144.0 230.0 L 144.0 230.0 L 144.0 231.0 L 145.0 232.0 L 145.0 233.0 L 146.0 233.0 L 146.0 234.0 L 147.0 235.0 L 147.0 235.0 L 148.0 236.0 L 148.0 236.0 L 149.0 237.0 L 149.0 237.0 L 150.0 238.0 L 151.0 239.0 L 151.0 239.0 L 152.0 240.0 L 152.0 241.0 L 153.0 241.0 L 154.0 242.0 L 155.0 243.0 L 156.0 243.0 L 157.0 244.0 L 158.0 244.0 L 159.0 245.0 L 161.0 245.0 L 162.0 246.0 L 164.0 246.0 L 165.0 247.0 L 167.0 247.0 L 168.0 247.0 L 170.0 248.0 L 171.0 248.0 L 173.0 248.0 L 175.0 248.0 L 176.0 249.0 L 178.0 249.0 L 179.0 249.0 L 180.0 250.0 L 181.0 250.0 L 182.0 250.0 L 184.0 250.0 L 185.0 250.0 L 186.0 250.0 L 187.0 250.0 L 188.0 250.0 L 189.0 250.0 L 190.0 250.0 L 191.0 250.0 L 192.0 250.0 L 193.0 250.0 L 193.0 250.0 L 194.0 250.0 L 195.0 250.0 L 195.0 250.0 L 196.0 250.0 L 197.0 250.0 L 197.0 250.0 L 198.0 250.0 L 199.0 250.0 L 199.0 250.0 L 200.0 251.0 L 201.0 251.0 L 202.0 251.0 L 202.0 251.0 L 203.0 251.0 L 204.0 251.0 L 205.0 251.0 L 206.0 251.0 L 207.0 251.0 L 208.0 251.0 L 209.0 251.0 L 210.0 251.0 L 211.0 251.0 L 212.0 251.0 L 214.0 251.0 L 215.0 251.0 L 216.0 251.0 L 217.0 251.0 L 218.0 251.0 L 219.0 251.0 L 220.0 251.0 L 221.0 251.0 L 222.0 251.0 L 223.0 251.0 L 225.0 251.0 L 226.0 251.0 L 227.0 251.0 L 228.0 251.0 L 229.0 251.0 L 231.0 251.0 L 232.0 251.0 L 233.0 251.0 L 234.0 251.0 L 235.0 251.0 L 236.0 251.0 L 237.0 251.0 L 238.0 251.0 L 238.0 250.0 L 239.0 250.0 L 239.0 250.0 " stroke="black" fill="none" stroke-width="5.0" stroke-linecap="round" stroke-linejoin="round" />
</svg>