<svg xmlns="http://www.w3.org/2000/svg" width="300" height="300" viewBox="0 0 300 300">
<path d="M 80.0 80.0 L 80.0 80.0 L 80.0 80.0 L 80.0 80.0 L 80.0 80.0 L 80.0 81.0 L 80.0 81.0 L 80.0 81.0 L 80.0 81.0 L 80.0 81.0 L 80.0 81.0 L 81.0 81.0 L 83.0 81.0 L 87.0 81.0 L 92.0 81.0 L 97.0 81.0 L 103.0 80.0 L 109.0 78.0 L 114.0 77.0 L 119.0 75.0 L 125.0 73.0 L 129.0 72.0 L 132.0 71.0 L 135.0 70.0 L 137.0 70.0 L 138.0 70.0 L 139.0 70.0 " stroke="black" fill="none" stroke-width="5.0" stroke-linecap="round" stroke-linejoin="round" />
<path d="M 75.0 114.0 L 75.0 114.0 L 75.0 114.0 L 74.0 114.0 L 73.0 114.0 L 73.0 114.0 L 72.0 114.0 L 71.0 114.0 L 71.0 114.0 L 70.0 114.0 L 69.0 114.0 L 69.0 113.0 L 69.0 113.0 L 69.0 113.0 L 69.0 113.0 L 70.0 113.0 L 73.0 112.0 L 75.0 112.0 L 80.0 112.0 L 85.0 112.0 L 92.0 112.0 L 99.0 112.0 L 106.0 111.0 L 113.0 110.0 L 119.0 109.0 L 126.0 108.0 L 131.0 107.0 L 136.0 107.0 L 139.0 106.0 L 141.0 106.0 L 141.0 106.0 L 141.0 106.0 " stroke="black" fill="none" stroke-width="5.0" stroke-linecap="round" stroke-linejoin="round" />
<path d="M 108.0 84.0 L 108.0 84.0 L 108.0 84.0 L 108.0 84.0 L 108.0 85.0 L 108.0 86.0 L 108.0 88.0 L 108.0 91.0 L 108.0 97.0 L 108.0 105.0 L 109.0 114.0 L 109.0 122.0 L 109.0 132.0 L 109.0 141.0 L 109.0 150.0 L 108.0 158.0 L 108.0 164.0 L 108.0 168.0 L 107.0 171.0 L 107.0 173.0 L 107.0 173.0 L 107.0 173.0 " stroke="black" fill="none" stroke-width="5.0" stroke-linecap="round" stroke-linejoin="round" />
<path d="M 108.0 115.0 L 107.0 115.0 L 107.0 115.0 L 106.0 115.0 L 105.0 116.0 L 104.0 117.0 L 103.0 118.0 L 101.0 120.0 L 99.0 124.0 L 97.0 128.0 L 93.0 134.0 L 88.0 139.0 L 83.0 145.0 L 79.0 149.0 L 76.0 152.0 L 74.0 154.0 L 73.0 154.0 L 73.0 154.0 " stroke="black" fill="none" stroke-width="5.0" stroke-linecap="round" stroke-linejoin="round" />
<path d="M 107.0 124.0 L 108.0 124.0 L 108.0 124.0 L 109.0 124.0 L 111.0 124.0 L 113.0 125.0 L 117.0 127.0 L 121.0 130.0 L 125.0 133.0 L 130.0 136.0 L 134.0 140.0 L 138.0 143.0 L 140.0 144.0 " stroke="black" fill="none" stroke-width="5.0" stroke-linecap="round" stroke-linejoin="round" />
<path d="M 182.0 80.0 L 182.0 80.0 L 182.0 79.0 L 182.0 78.0 L 182.0 77.0 L 181.0 77.0 L 181.0 77.0 L 181.0 77.0 L 181.0 77.0 L 181.0 79.0 L 182.0 82.0 L 182.0 87.0 L 182.0 94.0 L 182.0 101.0 L 182.0 110.0 L 182.0 118.0 L 182.0 126.0 L 182.0 134.0 L 182.0 139.0 L 182.0 142.0 " stroke="black" fill="none" stroke-width="5.0" stroke-linecap="round" stroke-linejoin="round" />
<path d="M 223.0 75.0 L 223.0 74.0 L 223.0 73.0 L 223.0 73.0 L 223.0 72.0 L 223.0 72.0 L 223.0 72.0 L 223.0 71.0 L 223.0 71.0 L 223.0 71.0 L 223.0 72.0 L 223.0 73.0 L 224.0 75.0 L 224.0 79.0 L 224.0 83.0 L 225.0 88.0 L 225.0 94.0 L 225.0 102.0 L 225.0 109.0 L 225.0 116.0 L 225.0 123.0 L 225.0 130.0 L 225.0 135.0 L 225.0 141.0 L 225.0 146.0 L 225.0 149.0 L 225.0 152.0 L 225.0 153.0 L 225.0 154.0 L 225.0 156.0 L 224.0 157.0 L 224.0 158.0 L 223.0 160.0 L 223.0 161.0 L 222.0 162.0 L 221.0 163.0 L 221.0 163.0 L 220.0 163.0 L 218.0 163.0 L 217.0 163.0 L 215.0 163.0 L 212.0 162.0 L 210.0 160.0 L 207.0 159.0 L 203.0 157.0 L 200.0 156.0 " stroke="black" fill="none" stroke-width="5.0" stroke-linecap="round" stroke-linejoin="round" />
<path d="M 74.0 191.0 L 74.0 191.0 L 74.0 191.0 L 74.0 191.0 L 74.0 191.0 L 74.0 191.0 L 74.0 191.0 L 74.0 191.0 L 75.0 191.0 L 75.0 191.0 L 75.0 191.0 L 76.0 191.0 L 76.0 191.0 L 77.0 191.0 L 79.0 191.0 L 80.0 191.0 L 83.0 191.0 L 85.0 191.0 L 89.0 191.0 L 92.0 191.0 L 95.0 191.0 L 98.0 191.0 L 101.0 191.0 L 103.0 191.0 L 105.0 191.0 L 107.0 191.0 L 109.0 191.0 L 110.0 190.0 L 112.0 190.0 L 114.0 190.0 L 116.0 190.0 L 118.0 190.0 L 120.0 190.0 L 122.0 189.0 L 124.0 189.0 L 126.0 189.0 L 129.0 189.0 L 132.0 189.0 L 134.0 189.0 L 136.0 189.0 L 139.0 189.0 L 141.0 189.0 L 143.0 190.0 L 145.0 190.0 L 147.0 190.0 L 148.0 190.0 L 150.0 190.0 L 151.0 190.0 L 153.0 190.0 L 154.0 191.0 L 156.0 191.0 L 158.0 191.0 L 160.0 191.0 L 163.0 191.0 L 167.0 191.0 L 170.0 191.0 L 174.0 191.0 L 178.0 191.0 L 182.0 191.0 L 185.0 191.0 L 189.0 191.0 L 192.0 191.0 L 194.0 191.0 L 196.0 191.0 L 199.0 191.0 L 201.0 191.0 L 203.0 191.0 L 206.0 192.0 L 208.0 192.0 L 210.0 193.0 L 212.0 194.0 L 214.0 194.0 L 216.0 195.0 L 217.0 195.0 L 219.0 196.0 L 220.0 196.0 L 220.0 196.0 L 221.0 196.0 " stroke="black" fill="none" stroke-width="5.0" stroke-linecap="round" stroke-linejoin="round" />
<path d="M 151.0 166.0 L 151.0 166.0 L 151.0 167.0 L 151.0 167.0 L 151.0 168.0 L 152.0 170.0 L 152.0 173.0 L 152.0 177.0 L 153.0 182.0 L 153.0 189.0 L 153.0 197.0 L 153.0 205.0 L 153.0 213.0 L 153.0 222.0 L 153.0 230.0 L 153.0 236.0 L 153.0 240.0 L 153.0 242.0 L 153.0 244.0 L 153.0 244.0 L 153.0 244.0 L 154.0 244.0 " stroke="black" fill="none" stroke-width="5.0" stroke-linecap="round" stroke-linejoin="round" />
<path d="M 125.0 206.0 L 125.0 206.0 L 125.0 206.0 L 124.0 206.0 L 123.0 206.0 L 122.0 206.0 L 122.0 207.0 L 121.0 207.0 L 120.0 208.0 L 118.0 209.0 L 116.0 211.0 L 112.0 214.0 L 107.0 218.0 L 101.0 224.0 L 93.0 230.0 L 84.0 236.0 L 76.0 240.0 L 71.0 243.0 L 68.0 245.0 L 68.0 245.0 " stroke="black" fill="none" stroke-width="5.0" stroke-linecap="round" stroke-linejoin="round" />
<path d="M 180.0 208.0 L 179.0 208.0 L 178.0 208.0 L 178.0 208.0 L 177.0 208.0 L 177.0 208.0 L 177.0 208.0 L 178.0 209.0 L 180.0 210.0 L 182.0 212.0 L 185.0 214.0 L 188.0 216.0 L 192.0 219.0 L 196.0 221.0 L 201.0 224.0 L 206.0 226.0 L 212.0 228.0 L 218.0 230.0 L 223.0 232.0 L 228.0 234.0 L 232.0 236.0 L 234.0 237.0 L 236.0 238.0 L 237.0 238.0 L 237.0 239.0 " stroke="black" fill="none" stroke-width="5.0" stroke-linecap="round" stroke-linejoin="round" />
</svg>