<svg xmlns="http://www.w3.org/2000/svg" width="300" height="300" viewBox="0 0 300 300">
<path d="M 70.0 90.0 L 70.0 90.0 L 70.0 90.0 L 69.0 90.0 L 69.0 90.0 L 69.0 90.0 L 68.0 90.0 L 68.0 90.0 L 68.0 90.0 L 68.0 90.0 L 68.0 90.0 L 68.0 90.0 L 68.0 90.0 L 68.0 90.0 L 68.0 90.0 L 68.0 90.0 L 68.0 90.0 L 68.0 90.0 L 68.0 90.0 L 68.0 90.0 L 68.0 90.0 L 68.0 90.0 L 68.0 90.0 L 68.0 90.0 L 69.0 90.0 L 69.0 90.0 L 69.0 90.0 L 69.0 90.0 L 69.0 90.0 L 69.0 90.0 L 70.0 90.0 L 70.0 90.0 L 70.0 90.0 L 70.0 90.0 L 71.0 90.0 L 71.0 90.0 L 71.0 90.0 L 72.0 90.0 L 72.0 90.0 L 73.0 90.0 L 73.0 90.0 L 73.0 90.0 L 74.0 90.0 L 75.0 90.0 L 75.0 90.0 L 76.0 90.0 L 77.0 90.0 L 77.0 90.0 L 78.0 90.0 L 79.0 90.0 L 80.0 90.0 L 81.0 90.0 L 82.0 90.0 L 83.0 90.0 L 84.0 90.0 L 85.0 90.0 L 86.0 90.0 L 87.0 90.0 L 88.0 90.0 L 89.0 90.0 L 90.0 90.0 L 91.0 90.0 L 92.0 90.0 L 93.0 90.0 L 93.0 90.0 L 94.0 90.0 L 95.0 90.0 L 96.0 89.0 L 96.0 89.0 L 97.0 89.0 L 97.0 89.0 L 98.0 89.0 L 98.0 89.0 L 99.0 89.0 L 100.0 89.0 L 100.0 89.0 L 101.0 89.0 L 101.0 89.0 L 102.0 89.0 L 102.0 88.0 L 103.0 88.0 L 103.0 88.0 L 104.0 88.0 L 104.0 88.0 L 104.0 88.0 L 105.0 88.0 L 105.0 88.0 L 106.0 88.0 L 106.0 88.0 L 106.0 88.0 L 107.0 88.0 L 107.0 88.0 L 108.0 88.0 L 108.0 87.0 L 108.0 87.0 L 109.0 87.0 L 109.0 87.0 L 110.0 87.0 L 110.0 87.0 L 111.0 87.0 L 111.0 87.0 L 112.0 87.0 L 112.0 87.0 L 113.0 87.0 L 114.0 87.0 L 114.0 87.0 L 115.0 87.0 L 115.0 87.0 L 116.0 87.0 L 117.0 87.0 L 117.0 87.0 L 118.0 87.0 L 118.0 87.0 L 119.0 87.0 L 120.0 87.0 L 120.0 87.0 L 121.0 87.0 L 121.0 87.0 L 122.0 87.0 L 122.0 87.0 L 123.0 87.0 L 123.0 87.0 L 124.0 87.0 L 124.0 87.0 L 124.0 87.0 L 125.0 87.0 L 125.0 87.0 L 126.0 87.0 L 126.0 87.0 L 127.0 87.0 L 127.0 87.0 L 128.0 87.0 L 128.0 87.0 L 129.0 87.0 L 129.0 87.0 L 130.0 87.0 L 131.0 87.0 L 131.0 87.0 L 132.0 87.0 L 133.0 87.0 L 133.0 87.0 L 134.0 87.0 L 135.0 87.0 L 136.0 87.0 L 136.0 87.0 L 137.0 87.0 L 138.0 87.0 L 138.0 87.0 L 139.0 87.0 L 140.0 87.0 L 141.0 87.0 L 141.0 87.0 L 142.0 87.0 L 143.0 87.0 L 144.0 87.0 L 144.0 87.0 L 145.0 87.0 L 146.0 87.0 L 147.0 87.0 L 147.0 87.0 L 148.0 87.0 L 149.0 87.0 L 150.0 87.0 L 150.0 87.0 L 151.0 87.0 L 152.0 87.0 L 152.0 87.0 L 153.0 86.0 L 153.0 86.0 L 154.0 86.0 L 155.0 86.0 L 155.0 86.0 L 156.0 86.0 L 157.0 86.0 L 157.0 86.0 L 158.0 86.0 L 158.0 86.0 L 159.0 86.0 L 160.0 86.0 L 160.0 86.0 L 161.0 86.0 L 162.0 86.0 L 162.0 86.0 L 163.0 86.0 L 164.0 86.0 L 164.0 86.0 L 165.0 86.0 L 166.0 86.0 L 166.0 86.0 L 167.0 86.0 L 168.0 86.0 L 168.0 86.0 L 169.0 86.0 L 169.0 86.0 L 170.0 86.0 L 170.0 86.0 L 171.0 86.0 L 172.0 86.0 L 172.0 86.0 L 173.0 86.0 L 174.0 86.0 L 174.0 86.0 L 175.0 86.0 L 176.0 86.0 L 176.0 86.0 L 177.0 86.0 L 178.0 86.0 L 178.0 85.0 L 179.0 85.0 L 180.0 85.0 L 180.0 85.0 L 181.0 85.0 L 181.0 85.0 L 182.0 85.0 L 183.0 85.0 L 183.0 85.0 L 184.0 85.0 L 184.0 85.0 L 185.0 85.0 L 185.0 85.0 L 186.0 85.0 L 186.0 85.0 L 187.0 85.0 L 187.0 85.0 L 188.0 85.0 L 188.0 85.0 L 189.0 85.0 L 189.0 85.0 L 190.0 86.0 L 190.0 86.0 L 191.0 86.0 L 191.0 86.0 L 191.0 86.0 L 192.0 86.0 L 192.0 86.0 L 193.0 86.0 L 193.0 86.0 L 193.0 86.0 L 194.0 87.0 L 194.0 87.0 L 194.0 87.0 L 195.0 87.0 L 195.0 87.0 L 195.0 87.0 L 196.0 87.0 L 196.0 87.0 L 196.0 87.0 L 197.0 87.0 L 197.0 87.0 L 198.0 87.0 L 198.0 87.0 L 198.0 87.0 L 199.0 87.0 L 199.0 87.0 L 199.0 87.0 L 200.0 87.0 L 200.0 87.0 L 200.0 87.0 L 201.0 87.0 L 201.0 87.0 L 202.0 87.0 L 202.0 87.0 L 203.0 87.0 L 203.0 87.0 L 204.0 87.0 L 205.0 87.0 L 205.0 87.0 L 206.0 87.0 L 207.0 87.0 L 208.0 87.0 L 208.0 87.0 L 209.0 87.0 L 210.0 87.0 L 211.0 87.0 L 212.0 87.0 L 213.0 87.0 L 214.0 87.0 L 215.0 87.0 " stroke="black" fill="none" stroke-width="5.0" stroke-linecap="round" stroke-linejoin="round" />
<path d="M 77.0 119.0 L 77.0 119.0 L 77.0 119.0 L 77.0 119.0 L 77.0 119.0 L 77.0 119.0 L 77.0 119.0 L 77.0 118.0 L 77.0 118.0 L 77.0 118.0 L 77.0 118.0 L 77.0 118.0 L 77.0 118.0 L 77.0 118.0 L 77.0 118.0 L 77.0 118.0 L 77.0 118.0 L 77.0 118.0 L 77.0 118.0 L 77.0 118.0 L 78.0 118.0 L 78.0 118.0 L 78.0 118.0 L 78.0 118.0 L 79.0 118.0 L 79.0 118.0 L 79.0 118.0 L 80.0 118.0 L 80.0 118.0 L 80.0 118.0 L 81.0 119.0 L 82.0 119.0 L 83.0 119.0 L 83.0 119.0 L 84.0 119.0 L 85.0 119.0 L 86.0 119.0 L 87.0 119.0 L 88.0 119.0 L 89.0 119.0 L 90.0 119.0 L 91.0 119.0 L 93.0 119.0 L 93.0 119.0 L 94.0 119.0 L 96.0 119.0 L 96.0 119.0 L 97.0 119.0 L 98.0 119.0 L 99.0 119.0 L 99.0 119.0 L 100.0 119.0 L 100.0 119.0 L 101.0 119.0 L 101.0 119.0 L 102.0 119.0 L 103.0 119.0 L 103.0 118.0 L 104.0 118.0 L 104.0 118.0 L 105.0 118.0 L 105.0 118.0 L 106.0 117.0 L 106.0 117.0 L 107.0 117.0 L 107.0 117.0 L 108.0 117.0 L 108.0 117.0 L 109.0 117.0 L 109.0 117.0 L 110.0 117.0 L 110.0 117.0 L 111.0 117.0 L 111.0 117.0 L 112.0 117.0 L 112.0 117.0 L 113.0 117.0 L 114.0 117.0 L 114.0 117.0 L 115.0 117.0 L 116.0 117.0 L 117.0 117.0 L 118.0 117.0 L 119.0 117.0 L 120.0 117.0 L 121.0 117.0 L 123.0 117.0 L 124.0 117.0 L 125.0 117.0 L 126.0 117.0 L 127.0 117.0 L 128.0 117.0 L 129.0 117.0 L 130.0 117.0 L 131.0 117.0 L 132.0 117.0 L 133.0 117.0 L 134.0 117.0 L 134.0 117.0 L 135.0 117.0 L 136.0 117.0 L 137.0 117.0 L 138.0 117.0 L 139.0 117.0 L 139.0 117.0 L 140.0 117.0 L 141.0 117.0 L 142.0 117.0 L 143.0 117.0 L 143.0 117.0 L 144.0 117.0 L 145.0 117.0 L 145.0 117.0 L 146.0 117.0 L 147.0 117.0 L 147.0 117.0 L 148.0 117.0 L 148.0 117.0 L 149.0 117.0 L 149.0 117.0 L 150.0 117.0 L 150.0 117.0 L 151.0 117.0 L 152.0 117.0 L 152.0 117.0 L 153.0 117.0 L 153.0 117.0 L 154.0 117.0 L 154.0 117.0 L 155.0 116.0 L 155.0 116.0 L 156.0 116.0 L 157.0 116.0 L 158.0 116.0 L 158.0 116.0 L 159.0 116.0 L 160.0 116.0 L 160.0 116.0 L 161.0 116.0 L 162.0 116.0 L 163.0 116.0 L 163.0 116.0 L 164.0 116.0 L 165.0 116.0 L 166.0 116.0 L 167.0 116.0 L 168.0 116.0 L 169.0 116.0 L 170.0 116.0 L 171.0 116.0 L 172.0 116.0 L 173.0 116.0 L 174.0 116.0 L 175.0 116.0 L 176.0 116.0 L 177.0 116.0 L 178.0 116.0 L 179.0 116.0 L 180.0 116.0 L 181.0 116.0 L 181.0 116.0 L 182.0 116.0 L 183.0 116.0 L 184.0 116.0 L 185.0 116.0 L 185.0 116.0 L 186.0 116.0 L 187.0 116.0 L 187.0 116.0 L 188.0 116.0 L 189.0 116.0 L 189.0 116.0 L 190.0 116.0 L 191.0 116.0 L 191.0 116.0 L 192.0 116.0 L 192.0 116.0 L 193.0 116.0 L 193.0 116.0 L 194.0 116.0 L 194.0 116.0 L 194.0 116.0 L 195.0 116.0 L 195.0 116.0 L 196.0 116.0 L 196.0 116.0 L 197.0 116.0 L 197.0 116.0 L 198.0 116.0 L 198.0 116.0 L 199.0 116.0 L 199.0 116.0 L 200.0 116.0 L 201.0 116.0 L 201.0 116.0 L 202.0 116.0 L 203.0 116.0 L 203.0 116.0 L 204.0 116.0 L 205.0 116.0 L 206.0 116.0 L 207.0 116.0 L 209.0 116.0 L 210.0 116.0 L 211.0 116.0 " stroke="black" fill="none" stroke-width="5.0" stroke-linecap="round" stroke-linejoin="round" />
<path d="M 63.0 150.0 L 63.0 150.0 L 63.0 150.0 L 63.0 150.0 L 63.0 151.0 L 62.0 151.0 L 62.0 151.0 L 62.0 151.0 L 62.0 151.0 L 62.0 151.0 L 62.0 151.0 L 62.0 151.0 L 62.0 151.0 L 62.0 151.0 L 62.0 151.0 L 63.0 151.0 L 63.0 151.0 L 64.0 151.0 L 65.0 151.0 L 66.0 151.0 L 67.0 151.0 L 69.0 151.0 L 70.0 151.0 L 71.0 151.0 L 72.0 151.0 L 74.0 151.0 L 75.0 151.0 L 76.0 151.0 L 77.0 151.0 L 78.0 151.0 L 79.0 151.0 L 80.0 151.0 L 81.0 151.0 L 82.0 151.0 L 83.0 151.0 L 84.0 151.0 L 85.0 151.0 L 87.0 151.0 L 88.0 151.0 L 89.0 152.0 L 90.0 152.0 L 91.0 152.0 L 92.0 152.0 L 93.0 152.0 L 94.0 152.0 L 95.0 152.0 L 96.0 152.0 L 98.0 152.0 L 99.0 152.0 L 100.0 153.0 L 101.0 153.0 L 102.0 153.0 L 102.0 153.0 L 103.0 153.0 L 104.0 153.0 L 105.0 153.0 L 106.0 153.0 L 107.0 153.0 L 107.0 153.0 L 108.0 153.0 L 109.0 153.0 L 110.0 153.0 L 110.0 153.0 L 111.0 153.0 L 112.0 153.0 L 113.0 153.0 L 114.0 153.0 L 114.0 153.0 L 115.0 153.0 L 116.0 153.0 L 117.0 153.0 L 118.0 153.0 L 119.0 153.0 L 119.0 153.0 L 120.0 153.0 L 121.0 153.0 L 122.0 152.0 L 123.0 152.0 L 124.0 152.0 L 125.0 152.0 L 126.0 152.0 L 127.0 152.0 L 128.0 152.0 L 129.0 152.0 L 130.0 152.0 L 131.0 151.0 L 132.0 151.0 L 133.0 151.0 L 134.0 151.0 L 135.0 151.0 L 136.0 151.0 L 137.0 151.0 L 138.0 151.0 L 139.0 151.0 L 140.0 151.0 L 141.0 151.0 L 141.0 150.0 L 142.0 150.0 L 142.0 150.0 L 143.0 150.0 L 144.0 150.0 L 144.0 150.0 L 145.0 150.0 L 145.0 150.0 L 146.0 150.0 L 146.0 150.0 L 147.0 150.0 L 147.0 150.0 L 148.0 150.0 L 148.0 150.0 L 148.0 150.0 L 149.0 150.0 L 149.0 150.0 L 150.0 150.0 L 150.0 150.0 L 151.0 150.0 L 151.0 150.0 L 152.0 150.0 L 152.0 150.0 L 152.0 150.0 L 153.0 150.0 L 153.0 150.0 L 154.0 150.0 L 154.0 150.0 L 155.0 150.0 L 155.0 150.0 L 156.0 150.0 L 156.0 150.0 L 157.0 150.0 L 158.0 150.0 L 158.0 150.0 L 159.0 150.0 L 160.0 150.0 L 160.0 150.0 L 161.0 150.0 L 162.0 150.0 L 163.0 150.0 L 164.0 150.0 L 164.0 150.0 L 165.0 150.0 L 166.0 150.0 L 167.0 150.0 L 168.0 150.0 L 169.0 150.0 L 170.0 150.0 L 171.0 150.0 L 171.0 150.0 L 172.0 150.0 L 173.0 150.0 L 174.0 150.0 L 175.0 150.0 L 176.0 150.0 L 177.0 150.0 L 178.0 150.0 L 178.0 150.0 L 179.0 150.0 L 180.0 150.0 L 181.0 150.0 L 182.0 150.0 L 183.0 150.0 L 184.0 150.0 L 185.0 150.0 L 186.0 150.0 L 187.0 150.0 L 188.0 150.0 L 189.0 150.0 L 190.0 150.0 L 191.0 150.0 L 191.0 150.0 L 192.0 150.0 L 193.0 150.0 L 194.0 150.0 L 194.0 150.0 L 195.0 150.0 L 196.0 150.0 L 197.0 150.0 L 197.0 150.0 L 198.0 150.0 L 198.0 150.0 L 199.0 150.0 L 200.0 150.0 L 200.0 150.0 L 201.0 150.0 L 202.0 150.0 L 202.0 151.0 L 203.0 151.0 L 204.0 151.0 L 205.0 151.0 L 205.0 151.0 L 206.0 151.0 L 207.0 151.0 L 208.0 151.0 L 209.0 151.0 L 210.0 151.0 L 211.0 151.0 L 212.0 151.0 L 214.0 151.0 L 215.0 151.0 L 216.0 151.0 L 217.0 151.0 L 219.0 151.0 L 220.0 151.0 L 222.0 151.0 L 223.0 151.0 L 225.0 151.0 L 226.0 151.0 L 228.0 151.0 L 230.0 151.0 L 231.0 150.0 L 232.0 150.0 L 233.0 150.0 " stroke="black" fill="none" stroke-width="5.0" stroke-linecap="round" stroke-linejoin="round" />
<path d="M 147.0 67.0 L 147.0 67.0 L 147.0 67.0 L 147.0 67.0 L 147.0 68.0 L 147.0 68.0 L 147.0 68.0 L 147.0 68.0 L 146.0 68.0 L 146.0 69.0 L 146.0 69.0 L 146.0 69.0 L 146.0 70.0 L 146.0 71.0 L 146.0 72.0 L 146.0 73.0 L 146.0 75.0 L 146.0 76.0 L 146.0 78.0 L 146.0 80.0 L 146.0 82.0 L 146.0 83.0 L 146.0 85.0 L 146.0 87.0 L 146.0 89.0 L 146.0 91.0 L 146.0 93.0 L 145.0 95.0 L 145.0 97.0 L 144.0 99.0 L 144.0 102.0 L 143.0 104.0 L 143.0 106.0 L 142.0 108.0 L 141.0 110.0 L 140.0 111.0 L 139.0 113.0 L 138.0 115.0 L 137.0 117.0 L 136.0 118.0 L 136.0 120.0 L 135.0 121.0 L 134.0 122.0 L 133.0 124.0 L 132.0 125.0 L 132.0 126.0 L 131.0 128.0 L 130.0 130.0 L 129.0 131.0 L 128.0 133.0 L 127.0 135.0 L 127.0 136.0 L 126.0 138.0 L 125.0 140.0 L 125.0 141.0 L 124.0 143.0 L 123.0 144.0 L 123.0 146.0 L 122.0 147.0 L 121.0 149.0 L 121.0 150.0 L 120.0 152.0 L 119.0 153.0 L 118.0 154.0 L 117.0 156.0 L 117.0 157.0 L 116.0 159.0 L 115.0 160.0 L 114.0 162.0 L 114.0 163.0 L 113.0 164.0 L 112.0 165.0 L 112.0 166.0 L 111.0 167.0 L 111.0 168.0 L 110.0 169.0 L 110.0 170.0 L 109.0 171.0 L 108.0 171.0 L 108.0 172.0 L 107.0 173.0 L 106.0 174.0 L 105.0 175.0 L 105.0 176.0 L 104.0 177.0 L 103.0 178.0 L 102.0 180.0 L 101.0 181.0 L 100.0 182.0 L 98.0 184.0 L 97.0 186.0 L 95.0 187.0 L 93.0 189.0 L 91.0 191.0 L 89.0 193.0 L 87.0 195.0 L 85.0 197.0 L 82.0 198.0 L 80.0 200.0 L 78.0 201.0 L 76.0 202.0 L 74.0 203.0 L 72.0 204.0 L 69.0 205.0 L 68.0 206.0 L 67.0 206.0 " stroke="black" fill="none" stroke-width="5.0" stroke-linecap="round" stroke-linejoin="round" />
<path d="M 185.0 153.0 L 185.0 153.0 L 185.0 153.0 L 185.0 153.0 L 184.0 153.0 L 184.0 153.0 L 184.0 153.0 L 184.0 152.0 L 184.0 152.0 L 184.0 152.0 L 184.0 152.0 L 184.0 152.0 L 184.0 152.0 L 184.0 152.0 L 184.0 153.0 L 185.0 154.0 L 186.0 155.0 L 186.0 155.0 L 187.0 157.0 L 188.0 158.0 L 189.0 159.0 L 190.0 160.0 L 191.0 161.0 L 192.0 162.0 L 193.0 163.0 L 194.0 164.0 L 195.0 165.0 L 196.0 166.0 L 198.0 167.0 L 199.0 168.0 L 200.0 169.0 L 202.0 170.0 L 204.0 171.0 L 205.0 172.0 L 207.0 173.0 L 209.0 173.0 L 211.0 174.0 L 213.0 175.0 L 215.0 176.0 L 217.0 177.0 L 219.0 178.0 L 221.0 179.0 L 223.0 180.0 L 225.0 182.0 L 226.0 183.0 L 227.0 184.0 L 229.0 185.0 L 230.0 186.0 L 231.0 187.0 L 233.0 188.0 L 234.0 189.0 L 235.0 190.0 L 236.0 191.0 L 238.0 192.0 L 239.0 193.0 L 240.0 194.0 L 241.0 195.0 L 242.0 195.0 L 243.0 196.0 " stroke="black" fill="none" stroke-width="5.0" stroke-linecap="round" stroke-linejoin="round" />
<path d="M 106.0 179.0 L 106.0 179.0 L 106.0 180.0 L 106.0 180.0 L 106.0 180.0 L 106.0 180.0 L 106.0 181.0 L 106.0 182.0 L 106.0 182.0 L 106.0 184.0 L 106.0 186.0 L 106.0 189.0 L 107.0 193.0 L 107.0 198.0 L 107.0 204.0 L 107.0 210.0 L 107.0 217.0 L 107.0 225.0 L 107.0 231.0 L 107.0 236.0 L 107.0 241.0 L 107.0 244.0 L 107.0 247.0 L 107.0 249.0 L 107.0 250.0 L 107.0 251.0 L 107.0 252.0 " stroke="black" fill="none" stroke-width="5.0" stroke-linecap="round" stroke-linejoin="round" />
<path d="M 108.0 176.0 L 108.0 176.0 L 108.0 176.0 L 108.0 176.0 L 108.0 176.0 L 108.0 176.0 L 107.0 176.0 L 107.0 176.0 L 107.0 176.0 L 107.0 176.0 L 107.0 176.0 L 107.0 176.0 L 107.0 176.0 L 107.0 176.0 L 107.0 176.0 L 107.0 176.0 L 107.0 176.0 L 107.0 176.0 L 107.0 176.0 L 107.0 176.0 L 107.0 176.0 L 108.0 176.0 L 108.0 176.0 L 109.0 176.0 L 110.0 175.0 L 110.0 175.0 L 111.0 175.0 L 112.0 175.0 L 113.0 175.0 L 114.0 175.0 L 115.0 175.0 L 116.0 175.0 L 117.0 175.0 L 119.0 175.0 L 120.0 175.0 L 121.0 175.0 L 123.0 175.0 L 124.0 175.0 L 125.0 175.0 L 126.0 175.0 L 127.0 175.0 L 129.0 175.0 L 130.0 175.0 L 131.0 174.0 L 132.0 174.0 L 133.0 174.0 L 134.0 174.0 L 135.0 174.0 L 136.0 174.0 L 137.0 174.0 L 138.0 174.0 L 139.0 174.0 L 139.0 174.0 L 140.0 174.0 L 141.0 174.0 L 142.0 174.0 L 143.0 174.0 L 143.0 174.0 L 144.0 174.0 L 145.0 174.0 L 145.0 174.0 L 146.0 174.0 L 147.0 174.0 L 147.0 174.0 L 148.0 174.0 L 149.0 174.0 L 149.0 174.0 L 150.0 174.0 L 150.0 173.0 L 151.0 173.0 L 152.0 173.0 L 152.0 173.0 L 153.0 173.0 L 153.0 173.0 L 154.0 173.0 L 154.0 173.0 L 155.0 173.0 L 155.0 173.0 L 156.0 173.0 L 157.0 173.0 L 157.0 173.0 L 158.0 173.0 L 159.0 173.0 L 160.0 173.0 L 160.0 173.0 L 161.0 173.0 L 162.0 173.0 L 163.0 173.0 L 164.0 173.0 L 165.0 173.0 L 166.0 173.0 L 167.0 173.0 L 168.0 173.0 L 169.0 173.0 L 171.0 173.0 L 172.0 173.0 L 173.0 173.0 L 174.0 173.0 L 175.0 173.0 L 176.0 173.0 L 177.0 173.0 L 178.0 173.0 L 179.0 174.0 L 180.0 174.0 L 181.0 174.0 L 181.0 174.0 L 182.0 174.0 L 183.0 174.0 L 184.0 174.0 L 184.0 174.0 L 185.0 174.0 L 186.0 175.0 L 186.0 175.0 L 187.0 175.0 L 187.0 175.0 L 188.0 175.0 L 189.0 175.0 L 189.0 175.0 L 189.0 175.0 L 190.0 175.0 L 190.0 175.0 L 191.0 175.0 L 191.0 175.0 L 192.0 175.0 L 192.0 175.0 L 192.0 175.0 L 193.0 176.0 L 193.0 176.0 L 193.0 176.0 L 194.0 176.0 L 194.0 176.0 L 194.0 176.0 L 195.0 176.0 L 195.0 176.0 L 195.0 177.0 L 195.0 177.0 L 196.0 177.0 L 196.0 177.0 L 196.0 177.0 L 196.0 177.0 L 196.0 178.0 L 196.0 178.0 L 196.0 178.0 L 197.0 179.0 L 197.0 179.0 L 197.0 180.0 L 197.0 181.0 L 197.0 182.0 L 197.0 183.0 L 197.0 184.0 L 197.0 186.0 L 197.0 187.0 L 197.0 189.0 L 197.0 191.0 L 197.0 193.0 L 198.0 195.0 L 198.0 197.0 L 198.0 200.0 L 198.0 202.0 L 198.0 205.0 L 198.0 208.0 L 198.0 211.0 L 198.0 214.0 L 198.0 216.0 L 198.0 219.0 L 198.0 221.0 L 198.0 223.0 L 198.0 226.0 L 198.0 228.0 L 198.0 230.0 L 198.0 232.0 L 198.0 234.0 L 198.0 237.0 L 198.0 239.0 L 198.0 241.0 L 198.0 243.0 L 198.0 245.0 L 198.0 247.0 L 198.0 248.0 L 198.0 249.0 L 198.0 250.0 L 198.0 250.0 L 198.0 250.0 L 198.0 250.0 L 198.0 250.0 L 198.0 249.0 " stroke="black" fill="none" stroke-width="5.0" stroke-linecap="round" stroke-linejoin="round" />
<path d="M 110.0 207.0 L 110.0 207.0 L 110.0 207.0 L 110.0 207.0 L 110.0 207.0 L 110.0 207.0 L 110.0 207.0 L 110.0 207.0 L 110.0 207.0 L 110.0 207.0 L 110.0 207.0 L 110.0 207.0 L 110.0 207.0 L 110.0 207.0 L 111.0 207.0 L 112.0 207.0 L 112.0 207.0 L 113.0 207.0 L 115.0 207.0 L 116.0 207.0 L 118.0 207.0 L 119.0 207.0 L 121.0 207.0 L 123.0 207.0 L 125.0 206.0 L 127.0 206.0 L 129.0 206.0 L 131.0 206.0 L 132.0 206.0 L 133.0 206.0 L 135.0 206.0 L 137.0 206.0 L 138.0 206.0 L 140.0 206.0 L 141.0 206.0 L 142.0 206.0 L 144.0 206.0 L 145.0 206.0 L 146.0 206.0 L 147.0 206.0 L 148.0 206.0 L 149.0 206.0 L 150.0 206.0 L 151.0 206.0 L 152.0 206.0 L 153.0 206.0 L 155.0 206.0 L 156.0 206.0 L 157.0 206.0 L 159.0 206.0 L 161.0 206.0 L 163.0 206.0 L 165.0 206.0 L 167.0 207.0 L 169.0 207.0 L 171.0 207.0 L 174.0 208.0 L 177.0 208.0 L 179.0 209.0 L 181.0 209.0 L 184.0 209.0 L 187.0 209.0 L 189.0 209.0 L 191.0 208.0 " stroke="black" fill="none" stroke-width="5.0" stroke-linecap="round" stroke-linejoin="round" />
<path d="M 106.0 250.0 L 106.0 250.0 L 106.0 250.0 L 106.0 250.0 L 106.0 250.0 L 106.0 250.0 L 106.0 250.0 L 106.0 250.0 L 106.0 250.0 L 106.0 250.0 L 106.0 250.0 L 107.0 250.0 L 107.0 250.0 L 108.0 250.0 L 109.0 250.0 L 110.0 250.0 L 110.0 250.0 L 112.0 250.0 L 113.0 250.0 L 114.0 250.0 L 116.0 250.0 L 118.0 250.0 L 120.0 250.0 L 122.0 250.0 L 124.0 250.0 L 126.0 250.0 L 127.0 250.0 L 129.0 250.0 L 131.0 250.0 L 132.0 250.0 L 134.0 250.0 L 135.0 250.0 L 137.0 250.0 L 138.0 250.0 L 140.0 250.0 L 142.0 250.0 L 143.0 250.0 L 145.0 249.0 L 146.0 249.0 L 148.0 249.0 L 149.0 249.0 L 150.0 249.0 L 152.0 249.0 L 153.0 249.0 L 155.0 249.0 L 156.0 249.0 L 158.0 249.0 L 160.0 248.0 L 162.0 248.0 L 164.0 248.0 L 166.0 248.0 L 169.0 248.0 L 172.0 248.0 L 174.0 247.0 L 177.0 247.0 L 180.0 247.0 L 182.0 247.0 L 185.0 246.0 L 187.0 246.0 L 189.0 246.0 L 191.0 246.0 L 192.0 246.0 L 193.0 246.0 L 194.0 246.0 L 194.0 246.0 L 195.0 246.0 L 195.0 246.0 " stroke="black" fill="none" stroke-width="5.0" stroke-linecap="round" stroke-linejoin="round" />
</svg>