<svg xmlns="http://www.w3.org/2000/svg" width="300" height="300" viewBox="0 0 300 300">
<path d="M 66.0 94.0 L 66.0 94.0 L 66.0 94.0 L 66.0 94.0 L 65.0 93.0 L 65.0 93.0 L 64.0 93.0 L 64.0 93.0 L 64.0 93.0 L 64.0 93.0 L 63.0 93.0 L 63.0 93.0 L 63.0 93.0 L 63.0 93.0 L 63.0 93.0 L 63.0 93.0 L 64.0 93.0 L 64.0 93.0 L 64.0 93.0 L 64.0 93.0 L 65.0 93.0 L 65.0 93.0 L 66.0 93.0 L 66.0 93.0 L 67.0 93.0 L 67.0 93.0 L 68.0 94.0 L 68.0 94.0 L 69.0 94.0 L 69.0 94.0 L 70.0 94.0 L 71.0 94.0 L 71.0 94.0 L 72.0 94.0 L 72.0 94.0 L 73.0 95.0 L 73.0 95.0 L 74.0 95.0 L 74.0 95.0 L 75.0 95.0 L 76.0 95.0 L 76.0 95.0 L 77.0 95.0 L 77.0 95.0 L 78.0 95.0 L 78.0 95.0 L 79.0 95.0 L 80.0 95.0 L 80.0 95.0 L 80.0 95.0 L 81.0 95.0 L 82.0 95.0 L 82.0 95.0 L 82.0 95.0 L 83.0 95.0 L 83.0 95.0 L 84.0 95.0 L 84.0 95.0 L 85.0 95.0 L 85.0 95.0 L 86.0 95.0 L 87.0 95.0 L 87.0 95.0 L 88.0 95.0 L 89.0 95.0 L 89.0 95.0 L 90.0 95.0 L 91.0 95.0 L 91.0 95.0 L 92.0 95.0 L 93.0 95.0 L 94.0 95.0 L 94.0 95.0 L 95.0 95.0 L 96.0 95.0 L 97.0 95.0 L 98.0 95.0 L 98.0 95.0 L 99.0 95.0 L 100.0 95.0 L 101.0 95.0 L 102.0 95.0 L 103.0 94.0 L 104.0 94.0 L 105.0 94.0 L 106.0 94.0 L 107.0 94.0 L 107.0 94.0 L 108.0 94.0 L 109.0 94.0 L 109.0 94.0 L 110.0 94.0 L 111.0 94.0 L 111.0 94.0 L 112.0 94.0 L 112.0 94.0 L 113.0 94.0 L 114.0 94.0 L 114.0 94.0 L 115.0 94.0 L 115.0 94.0 L 116.0 94.0 L 117.0 94.0 L 117.0 94.0 L 118.0 94.0 L 118.0 94.0 L 119.0 94.0 L 120.0 94.0 L 120.0 94.0 L 121.0 94.0 L 122.0 94.0 L 122.0 94.0 L 123.0 94.0 L 124.0 93.0 L 124.0 93.0 L 125.0 93.0 L 125.0 93.0 L 126.0 93.0 L 127.0 93.0 L 127.0 93.0 L 128.0 93.0 L 129.0 93.0 L 130.0 93.0 L 130.0 93.0 L 131.0 93.0 L 132.0 93.0 L 132.0 93.0 L 133.0 93.0 L 133.0 93.0 L 134.0 93.0 L 135.0 93.0 L 135.0 93.0 L 136.0 93.0 L 136.0 93.0 L 137.0 93.0 L 137.0 93.0 L 138.0 93.0 L 138.0 93.0 L 139.0 93.0 L 139.0 93.0 L 139.0 93.0 L 140.0 94.0 L 141.0 94.0 L 141.0 94.0 L 142.0 94.0 L 142.0 94.0 L 143.0 94.0 L 143.0 94.0 L 144.0 94.0 L 144.0 94.0 L 145.0 94.0 L 145.0 94.0 L 146.0 93.0 L 146.0 93.0 L 146.0 93.0 L 147.0 93.0 L 148.0 93.0 L 148.0 93.0 L 148.0 93.0 L 149.0 93.0 L 149.0 93.0 L 150.0 93.0 L 150.0 93.0 L 151.0 93.0 L 151.0 93.0 L 152.0 92.0 L 152.0 92.0 L 153.0 92.0 L 153.0 92.0 L 154.0 92.0 L 154.0 92.0 L 155.0 92.0 L 156.0 92.0 L 156.0 92.0 L 157.0 92.0 L 158.0 92.0 L 158.0 92.0 L 159.0 92.0 L 160.0 92.0 L 161.0 92.0 L 161.0 92.0 L 162.0 92.0 L 163.0 92.0 L 163.0 92.0 L 164.0 92.0 L 165.0 92.0 L 166.0 92.0 L 166.0 92.0 L 167.0 92.0 L 168.0 92.0 L 168.0 92.0 L 169.0 92.0 L 169.0 92.0 L 170.0 93.0 L 171.0 93.0 L 172.0 93.0 L 172.0 93.0 L 173.0 93.0 L 174.0 93.0 L 175.0 94.0 L 175.0 94.0 L 176.0 94.0 L 177.0 94.0 L 177.0 94.0 L 178.0 94.0 L 179.0 95.0 L 180.0 95.0 L 180.0 95.0 L 181.0 95.0 L 182.0 95.0 L 183.0 95.0 L 184.0 95.0 L 184.0 95.0 L 185.0 95.0 L 186.0 95.0 L 187.0 95.0 L 187.0 95.0 L 188.0 95.0 L 189.0 94.0 L 189.0 94.0 L 190.0 94.0 L 190.0 94.0 L 191.0 93.0 L 192.0 93.0 L 192.0 93.0 L 193.0 93.0 L 193.0 93.0 L 194.0 93.0 L 194.0 93.0 L 195.0 93.0 L 195.0 93.0 L 196.0 93.0 L 196.0 93.0 L 197.0 93.0 L 197.0 93.0 L 198.0 93.0 L 199.0 93.0 L 199.0 93.0 L 200.0 93.0 L 201.0 93.0 L 202.0 93.0 L 202.0 92.0 L 203.0 92.0 L 204.0 92.0 L 204.0 92.0 L 205.0 92.0 L 206.0 92.0 L 206.0 92.0 L 207.0 92.0 L 208.0 92.0 L 208.0 92.0 L 209.0 92.0 L 209.0 92.0 L 210.0 92.0 L 210.0 92.0 L 211.0 92.0 L 212.0 92.0 L 212.0 92.0 L 213.0 92.0 L 213.0 92.0 L 214.0 92.0 L 214.0 92.0 L 215.0 92.0 L 215.0 92.0 L 216.0 93.0 L 217.0 93.0 L 217.0 93.0 L 218.0 93.0 L 218.0 93.0 L 219.0 93.0 L 219.0 93.0 L 220.0 93.0 L 221.0 93.0 L 221.0 93.0 L 222.0 93.0 L 223.0 93.0 L 223.0 93.0 L 224.0 94.0 L 224.0 94.0 L 225.0 94.0 L 226.0 94.0 L 227.0 94.0 L 227.0 94.0 L 228.0 94.0 L 229.0 94.0 L 230.0 94.0 L 231.0 94.0 L 231.0 94.0 L 232.0 94.0 L 233.0 94.0 L 234.0 94.0 L 234.0 94.0 L 235.0 94.0 L 236.0 94.0 L 236.0 94.0 L 237.0 94.0 L 237.0 94.0 L 237.0 94.0 L 237.0 94.0 L 237.0 94.0 " stroke="black" fill="none" stroke-width="5.0" stroke-linecap="round" stroke-linejoin="round" />
<path d="M 149.0 70.0 L 149.0 70.0 L 149.0 70.0 L 149.0 70.0 L 149.0 70.0 L 149.0 71.0 L 149.0 71.0 L 149.0 71.0 L 149.0 72.0 L 149.0 73.0 L 149.0 74.0 L 149.0 75.0 L 149.0 76.0 L 149.0 78.0 L 149.0 80.0 L 149.0 82.0 L 149.0 85.0 L 149.0 87.0 L 149.0 90.0 L 149.0 93.0 L 149.0 96.0 L 149.0 99.0 L 149.0 102.0 L 149.0 104.0 L 150.0 107.0 L 150.0 109.0 L 150.0 111.0 L 150.0 113.0 L 150.0 115.0 L 150.0 116.0 L 150.0 118.0 L 150.0 119.0 L 150.0 120.0 L 150.0 122.0 L 150.0 123.0 L 150.0 124.0 L 150.0 125.0 L 150.0 126.0 L 150.0 128.0 L 150.0 129.0 L 150.0 130.0 L 150.0 132.0 L 150.0 133.0 L 150.0 135.0 L 150.0 136.0 L 150.0 138.0 L 150.0 139.0 L 150.0 140.0 L 150.0 142.0 L 150.0 143.0 L 150.0 144.0 L 150.0 145.0 L 149.0 145.0 L 149.0 146.0 L 149.0 146.0 L 149.0 146.0 L 149.0 146.0 L 149.0 146.0 L 149.0 145.0 " stroke="black" fill="none" stroke-width="5.0" stroke-linecap="round" stroke-linejoin="round" />
<path d="M 146.0 97.0 L 146.0 97.0 L 146.0 97.0 L 146.0 98.0 L 146.0 98.0 L 146.0 98.0 L 146.0 98.0 L 146.0 98.0 L 146.0 99.0 L 146.0 99.0 L 146.0 99.0 L 146.0 100.0 L 146.0 100.0 L 146.0 101.0 L 145.0 101.0 L 145.0 102.0 L 144.0 103.0 L 143.0 103.0 L 142.0 104.0 L 141.0 105.0 L 140.0 107.0 L 139.0 108.0 L 138.0 109.0 L 137.0 110.0 L 135.0 111.0 L 134.0 112.0 L 133.0 113.0 L 132.0 114.0 L 130.0 115.0 L 129.0 116.0 L 127.0 117.0 L 126.0 118.0 L 124.0 119.0 L 123.0 120.0 L 121.0 121.0 L 119.0 121.0 L 118.0 122.0 L 116.0 123.0 L 115.0 124.0 L 113.0 125.0 L 112.0 126.0 L 111.0 127.0 L 110.0 128.0 L 109.0 128.0 L 108.0 129.0 L 107.0 129.0 L 107.0 130.0 L 106.0 130.0 L 105.0 131.0 L 105.0 132.0 L 104.0 132.0 L 103.0 133.0 L 102.0 134.0 L 101.0 134.0 L 100.0 135.0 L 99.0 136.0 L 98.0 137.0 L 96.0 137.0 L 95.0 138.0 L 93.0 139.0 L 92.0 141.0 L 90.0 142.0 L 88.0 143.0 L 85.0 144.0 L 83.0 145.0 L 80.0 146.0 L 78.0 147.0 L 75.0 147.0 L 73.0 148.0 L 71.0 149.0 L 69.0 149.0 L 67.0 150.0 L 66.0 150.0 L 66.0 150.0 L 66.0 150.0 " stroke="black" fill="none" stroke-width="5.0" stroke-linecap="round" stroke-linejoin="round" />
<path d="M 147.0 106.0 L 147.0 106.0 L 147.0 105.0 L 147.0 105.0 L 147.0 105.0 L 147.0 105.0 L 147.0 105.0 L 147.0 105.0 L 148.0 104.0 L 148.0 104.0 L 148.0 104.0 L 148.0 104.0 L 148.0 104.0 L 149.0 104.0 L 149.0 105.0 L 149.0 105.0 L 149.0 105.0 L 150.0 106.0 L 150.0 106.0 L 150.0 107.0 L 151.0 107.0 L 151.0 108.0 L 152.0 108.0 L 152.0 109.0 L 153.0 109.0 L 153.0 110.0 L 154.0 110.0 L 155.0 111.0 L 155.0 111.0 L 156.0 112.0 L 157.0 112.0 L 157.0 113.0 L 158.0 113.0 L 159.0 113.0 L 160.0 113.0 L 160.0 114.0 L 161.0 114.0 L 162.0 115.0 L 163.0 115.0 L 163.0 115.0 L 164.0 116.0 L 165.0 116.0 L 166.0 116.0 L 167.0 117.0 L 167.0 117.0 L 168.0 117.0 L 169.0 118.0 L 169.0 118.0 L 170.0 118.0 L 171.0 118.0 L 171.0 118.0 L 172.0 119.0 L 173.0 119.0 L 173.0 119.0 L 174.0 119.0 L 175.0 119.0 L 176.0 119.0 L 177.0 120.0 L 178.0 120.0 L 178.0 120.0 L 179.0 120.0 L 180.0 120.0 L 181.0 121.0 L 182.0 121.0 L 183.0 121.0 L 183.0 122.0 L 184.0 122.0 L 185.0 122.0 L 186.0 123.0 L 187.0 123.0 L 187.0 124.0 L 188.0 124.0 L 189.0 124.0 L 189.0 125.0 L 190.0 125.0 L 191.0 125.0 L 191.0 126.0 L 192.0 126.0 L 192.0 127.0 L 193.0 127.0 L 193.0 127.0 L 194.0 127.0 L 194.0 128.0 L 194.0 128.0 L 195.0 128.0 L 196.0 128.0 L 196.0 129.0 L 197.0 129.0 L 197.0 129.0 L 198.0 130.0 L 198.0 130.0 L 199.0 130.0 L 200.0 131.0 L 201.0 131.0 L 202.0 132.0 L 203.0 132.0 L 204.0 132.0 L 205.0 133.0 L 207.0 134.0 L 208.0 134.0 L 210.0 135.0 L 211.0 136.0 L 213.0 136.0 L 215.0 137.0 L 217.0 137.0 L 219.0 138.0 L 221.0 138.0 L 223.0 139.0 L 224.0 139.0 L 226.0 140.0 L 228.0 141.0 L 230.0 141.0 L 232.0 142.0 L 233.0 142.0 L 235.0 143.0 L 237.0 143.0 L 238.0 143.0 L 240.0 143.0 L 241.0 143.0 L 241.0 143.0 L 242.0 143.0 " stroke="black" fill="none" stroke-width="5.0" stroke-linecap="round" stroke-linejoin="round" />
<path d="M 103.0 158.0 L 103.0 158.0 L 103.0 158.0 L 103.0 158.0 L 103.0 158.0 L 103.0 158.0 L 103.0 158.0 L 102.0 158.0 L 102.0 158.0 L 102.0 158.0 L 102.0 158.0 L 102.0 158.0 L 103.0 158.0 L 103.0 158.0 L 104.0 158.0 L 105.0 158.0 L 106.0 158.0 L 107.0 158.0 L 107.0 158.0 L 108.0 158.0 L 109.0 158.0 L 110.0 158.0 L 112.0 158.0 L 113.0 158.0 L 114.0 158.0 L 116.0 158.0 L 117.0 158.0 L 119.0 159.0 L 120.0 159.0 L 122.0 159.0 L 123.0 159.0 L 125.0 159.0 L 127.0 159.0 L 128.0 159.0 L 130.0 160.0 L 131.0 160.0 L 133.0 160.0 L 134.0 160.0 L 136.0 160.0 L 137.0 160.0 L 138.0 160.0 L 140.0 160.0 L 141.0 160.0 L 142.0 160.0 L 143.0 160.0 L 144.0 160.0 L 145.0 160.0 L 146.0 160.0 L 147.0 160.0 L 148.0 160.0 L 148.0 160.0 L 149.0 160.0 L 150.0 160.0 L 150.0 160.0 L 151.0 160.0 L 151.0 160.0 L 152.0 160.0 L 152.0 160.0 L 153.0 160.0 L 153.0 160.0 L 154.0 160.0 L 154.0 160.0 L 155.0 160.0 L 155.0 160.0 L 155.0 160.0 L 156.0 160.0 L 157.0 160.0 L 157.0 160.0 L 158.0 160.0 L 159.0 160.0 L 159.0 160.0 L 160.0 160.0 L 161.0 160.0 L 161.0 160.0 L 162.0 160.0 L 163.0 160.0 L 164.0 160.0 L 165.0 160.0 L 166.0 160.0 L 167.0 160.0 L 168.0 160.0 L 169.0 160.0 L 170.0 159.0 L 171.0 159.0 L 172.0 159.0 L 173.0 159.0 L 174.0 159.0 L 175.0 159.0 L 176.0 159.0 L 177.0 159.0 L 177.0 159.0 L 178.0 159.0 L 179.0 159.0 L 179.0 159.0 L 180.0 159.0 L 180.0 159.0 L 181.0 158.0 L 181.0 158.0 L 182.0 158.0 L 182.0 158.0 L 183.0 158.0 L 183.0 158.0 L 184.0 158.0 L 184.0 158.0 L 185.0 158.0 L 185.0 158.0 L 186.0 158.0 L 186.0 158.0 L 187.0 158.0 L 187.0 158.0 L 188.0 158.0 L 189.0 158.0 L 189.0 158.0 L 190.0 158.0 L 191.0 158.0 L 191.0 158.0 L 192.0 158.0 L 192.0 158.0 L 192.0 159.0 L 193.0 159.0 L 193.0 159.0 L 193.0 159.0 L 193.0 159.0 L 193.0 159.0 L 193.0 159.0 L 193.0 159.0 L 193.0 159.0 L 193.0 159.0 L 193.0 159.0 L 193.0 159.0 L 193.0 159.0 L 193.0 159.0 L 193.0 160.0 L 192.0 160.0 L 192.0 160.0 L 191.0 161.0 L 191.0 161.0 L 190.0 162.0 L 189.0 162.0 L 189.0 163.0 L 188.0 164.0 L 187.0 165.0 L 186.0 166.0 L 185.0 166.0 L 184.0 167.0 L 184.0 168.0 L 183.0 169.0 L 182.0 169.0 L 180.0 170.0 L 179.0 171.0 L 178.0 172.0 L 176.0 172.0 L 174.0 173.0 L 172.0 174.0 L 170.0 175.0 L 168.0 176.0 L 166.0 177.0 L 163.0 178.0 L 161.0 179.0 L 159.0 180.0 L 157.0 181.0 L 155.0 182.0 L 153.0 183.0 L 151.0 184.0 L 150.0 185.0 L 148.0 185.0 L 147.0 186.0 L 146.0 187.0 L 145.0 187.0 L 145.0 188.0 L 144.0 188.0 L 144.0 188.0 L 144.0 188.0 L 143.0 188.0 L 143.0 189.0 L 143.0 189.0 L 142.0 189.0 L 142.0 189.0 L 142.0 189.0 L 142.0 189.0 L 142.0 189.0 L 142.0 189.0 L 142.0 189.0 L 142.0 190.0 L 142.0 190.0 L 142.0 190.0 L 142.0 190.0 L 142.0 191.0 L 143.0 191.0 L 143.0 191.0 L 144.0 192.0 L 144.0 192.0 L 144.0 193.0 L 145.0 193.0 L 145.0 194.0 L 145.0 194.0 L 146.0 195.0 L 146.0 195.0 L 146.0 196.0 L 146.0 197.0 L 147.0 197.0 L 147.0 198.0 L 147.0 199.0 L 148.0 200.0 L 148.0 201.0 L 148.0 202.0 L 148.0 204.0 L 149.0 205.0 L 149.0 207.0 L 149.0 208.0 L 149.0 210.0 L 150.0 211.0 L 150.0 213.0 L 150.0 214.0 L 150.0 215.0 L 150.0 217.0 L 150.0 218.0 L 150.0 219.0 L 150.0 221.0 L 150.0 222.0 L 151.0 224.0 L 151.0 225.0 L 151.0 227.0 L 151.0 228.0 L 151.0 230.0 L 151.0 231.0 L 151.0 232.0 L 151.0 234.0 L 151.0 235.0 L 151.0 236.0 L 151.0 237.0 L 151.0 238.0 L 151.0 239.0 L 151.0 240.0 L 150.0 241.0 L 150.0 242.0 L 150.0 243.0 L 150.0 244.0 L 149.0 245.0 L 149.0 246.0 L 149.0 247.0 L 148.0 248.0 L 148.0 249.0 L 148.0 250.0 L 147.0 251.0 L 147.0 252.0 L 146.0 253.0 L 146.0 254.0 L 146.0 255.0 L 145.0 256.0 L 145.0 257.0 L 144.0 257.0 L 144.0 258.0 L 144.0 258.0 L 143.0 259.0 L 143.0 259.0 L 142.0 259.0 L 142.0 259.0 L 141.0 259.0 L 141.0 259.0 L 140.0 259.0 L 140.0 259.0 L 139.0 259.0 L 138.0 258.0 L 138.0 258.0 L 137.0 257.0 L 136.0 257.0 L 135.0 256.0 L 134.0 256.0 L 133.0 255.0 L 131.0 254.0 L 130.0 253.0 L 128.0 252.0 L 127.0 252.0 L 125.0 251.0 L 124.0 250.0 L 122.0 249.0 L 121.0 249.0 L 119.0 248.0 L 118.0 247.0 L 117.0 247.0 " stroke="black" fill="none" stroke-width="5.0" stroke-linecap="round" stroke-linejoin="round" />
<path d="M 63.0 201.0 L 63.0 201.0 L 63.0 201.0 L 63.0 201.0 L 63.0 201.0 L 63.0 201.0 L 63.0 201.0 L 63.0 201.0 L 63.0 201.0 L 63.0 201.0 L 63.0 201.0 L 63.0 201.0 L 64.0 201.0 L 64.0 201.0 L 64.0 201.0 L 65.0 201.0 L 66.0 201.0 L 67.0 201.0 L 67.0 201.0 L 68.0 201.0 L 69.0 201.0 L 70.0 201.0 L 71.0 202.0 L 72.0 202.0 L 73.0 202.0 L 74.0 202.0 L 76.0 202.0 L 77.0 202.0 L 78.0 202.0 L 79.0 202.0 L 80.0 202.0 L 82.0 202.0 L 83.0 202.0 L 84.0 202.0 L 85.0 202.0 L 86.0 202.0 L 87.0 202.0 L 88.0 202.0 L 89.0 202.0 L 89.0 202.0 L 90.0 202.0 L 91.0 202.0 L 92.0 202.0 L 92.0 202.0 L 93.0 202.0 L 94.0 202.0 L 94.0 202.0 L 95.0 202.0 L 95.0 202.0 L 95.0 202.0 L 96.0 202.0 L 96.0 202.0 L 97.0 202.0 L 97.0 202.0 L 98.0 202.0 L 98.0 202.0 L 99.0 202.0 L 100.0 202.0 L 100.0 202.0 L 101.0 202.0 L 101.0 202.0 L 102.0 202.0 L 103.0 202.0 L 103.0 202.0 L 104.0 202.0 L 105.0 202.0 L 105.0 202.0 L 106.0 202.0 L 107.0 202.0 L 107.0 202.0 L 108.0 202.0 L 108.0 202.0 L 109.0 202.0 L 110.0 202.0 L 110.0 202.0 L 111.0 202.0 L 112.0 202.0 L 112.0 202.0 L 113.0 202.0 L 113.0 202.0 L 114.0 202.0 L 115.0 202.0 L 115.0 202.0 L 116.0 202.0 L 116.0 202.0 L 117.0 202.0 L 118.0 202.0 L 119.0 202.0 L 119.0 202.0 L 120.0 202.0 L 121.0 202.0 L 122.0 202.0 L 123.0 202.0 L 124.0 202.0 L 125.0 202.0 L 126.0 202.0 L 127.0 202.0 L 128.0 202.0 L 130.0 202.0 L 131.0 202.0 L 132.0 202.0 L 133.0 202.0 L 134.0 202.0 L 135.0 202.0 L 136.0 202.0 L 137.0 202.0 L 138.0 202.0 L 139.0 202.0 L 140.0 202.0 L 141.0 202.0 L 142.0 202.0 L 142.0 202.0 L 143.0 202.0 L 144.0 202.0 L 144.0 202.0 L 145.0 202.0 L 145.0 202.0 L 146.0 202.0 L 146.0 202.0 L 147.0 202.0 L 148.0 202.0 L 148.0 202.0 L 149.0 202.0 L 149.0 202.0 L 150.0 202.0 L 150.0 202.0 L 151.0 202.0 L 151.0 202.0 L 152.0 202.0 L 152.0 202.0 L 153.0 202.0 L 153.0 202.0 L 154.0 202.0 L 154.0 202.0 L 154.0 202.0 L 155.0 202.0 L 155.0 202.0 L 156.0 202.0 L 156.0 202.0 L 157.0 202.0 L 157.0 202.0 L 158.0 202.0 L 158.0 202.0 L 159.0 202.0 L 160.0 202.0 L 160.0 202.0 L 161.0 202.0 L 162.0 202.0 L 162.0 202.0 L 163.0 202.0 L 164.0 202.0 L 165.0 202.0 L 166.0 202.0 L 166.0 202.0 L 167.0 202.0 L 168.0 202.0 L 169.0 202.0 L 170.0 202.0 L 171.0 202.0 L 172.0 202.0 L 173.0 202.0 L 174.0 202.0 L 175.0 202.0 L 176.0 202.0 L 177.0 202.0 L 178.0 202.0 L 179.0 202.0 L 180.0 202.0 L 180.0 202.0 L 181.0 202.0 L 182.0 202.0 L 183.0 202.0 L 184.0 202.0 L 184.0 202.0 L 185.0 202.0 L 186.0 202.0 L 187.0 202.0 L 187.0 202.0 L 188.0 202.0 L 189.0 202.0 L 189.0 202.0 L 190.0 202.0 L 191.0 202.0 L 191.0 202.0 L 192.0 202.0 L 192.0 202.0 L 193.0 201.0 L 193.0 201.0 L 194.0 201.0 L 195.0 201.0 L 195.0 201.0 L 196.0 201.0 L 196.0 201.0 L 197.0 201.0 L 198.0 201.0 L 198.0 201.0 L 199.0 201.0 L 199.0 201.0 L 200.0 201.0 L 200.0 201.0 L 201.0 201.0 L 202.0 201.0 L 202.0 201.0 L 203.0 201.0 L 204.0 201.0 L 204.0 201.0 L 205.0 201.0 L 206.0 201.0 L 207.0 201.0 L 208.0 201.0 L 209.0 201.0 L 210.0 201.0 L 211.0 201.0 L 212.0 201.0 L 213.0 201.0 L 214.0 201.0 L 215.0 201.0 L 216.0 201.0 L 217.0 201.0 L 218.0 201.0 L 219.0 201.0 L 220.0 201.0 L 221.0 201.0 L 221.0 201.0 L 222.0 201.0 L 223.0 201.0 L 224.0 201.0 L 225.0 201.0 L 226.0 201.0 L 227.0 201.0 L 227.0 201.0 L 228.0 201.0 L 229.0 201.0 L 230.0 201.0 L 231.0 201.0 L 231.0 201.0 L 232.0 201.0 L 233.0 201.0 L 233.0 201.0 L 234.0 201.0 L 234.0 201.0 L 235.0 201.0 L 235.0 201.0 L 235.0 201.0 L 235.0 201.0 L 235.0 201.0 " stroke="black" fill="none" stroke-width="5.0" stroke-linecap="round" stroke-linejoin="round" />
</svg>