<svg xmlns="http://www.w3.org/2000/svg" width="300" height="300" viewBox="0 0 300 300">
<path d="M 95.0 80.0 L 95.0 80.0 L 95.0 80.0 L 94.0 80.0 L 94.0 80.0 L 93.0 80.0 L 93.0 80.0 L 93.0 80.0 L 93.0 80.0 L 93.0 80.0 L 93.0 80.0 L 93.0 80.0 L 93.0 80.0 L 93.0 80.0 L 93.0 80.0 L 93.0 80.0 L 93.0 80.0 L 93.0 80.0 L 93.0 80.0 L 94.0 80.0 L 94.0 80.0 L 95.0 80.0 L 96.0 80.0 L 96.0 80.0 L 97.0 80.0 L 98.0 81.0 L 98.0 81.0 L 99.0 81.0 L 100.0 81.0 L 100.0 81.0 L 101.0 81.0 L 101.0 81.0 L 102.0 81.0 L 103.0 81.0 L 103.0 81.0 L 104.0 81.0 L 104.0 81.0 L 105.0 81.0 L 105.0 81.0 L 106.0 81.0 L 106.0 81.0 L 107.0 81.0 L 107.0 81.0 L 108.0 81.0 L 108.0 81.0 L 109.0 81.0 L 109.0 81.0 L 110.0 81.0 L 110.0 81.0 L 110.0 81.0 L 111.0 81.0 L 111.0 81.0 L 112.0 81.0 L 112.0 81.0 L 112.0 81.0 L 113.0 81.0 L 113.0 81.0 L 113.0 81.0 L 114.0 81.0 L 114.0 81.0 L 114.0 81.0 L 115.0 81.0 L 115.0 81.0 L 115.0 81.0 L 116.0 81.0 L 116.0 81.0 L 117.0 81.0 L 117.0 81.0 L 118.0 81.0 L 118.0 81.0 L 118.0 81.0 L 119.0 81.0 L 119.0 81.0 L 120.0 81.0 L 121.0 81.0 L 121.0 81.0 L 122.0 81.0 L 123.0 81.0 L 124.0 81.0 L 125.0 81.0 L 125.0 81.0 L 126.0 81.0 L 127.0 81.0 L 127.0 81.0 L 128.0 80.0 L 129.0 80.0 L 129.0 80.0 L 130.0 80.0 L 131.0 80.0 L 131.0 80.0 L 132.0 80.0 L 133.0 80.0 L 133.0 80.0 L 133.0 80.0 L 134.0 80.0 L 134.0 80.0 L 135.0 80.0 L 135.0 80.0 L 135.0 80.0 L 135.0 80.0 L 135.0 80.0 L 135.0 80.0 L 135.0 80.0 L 136.0 80.0 L 136.0 80.0 L 136.0 80.0 L 136.0 80.0 L 136.0 80.0 L 137.0 80.0 L 137.0 80.0 L 137.0 80.0 L 137.0 80.0 L 138.0 80.0 L 138.0 80.0 L 139.0 80.0 L 139.0 80.0 L 139.0 80.0 L 140.0 80.0 L 140.0 80.0 L 141.0 80.0 L 141.0 80.0 L 142.0 80.0 L 142.0 80.0 L 143.0 80.0 L 143.0 80.0 L 143.0 80.0 L 144.0 80.0 L 144.0 80.0 L 145.0 80.0 L 145.0 80.0 L 146.0 80.0 L 146.0 80.0 L 147.0 80.0 L 147.0 80.0 L 147.0 80.0 L 148.0 80.0 L 148.0 80.0 L 149.0 80.0 L 149.0 80.0 L 149.0 80.0 L 150.0 80.0 L 150.0 80.0 L 150.0 80.0 L 151.0 80.0 L 151.0 80.0 L 152.0 80.0 L 152.0 80.0 L 152.0 80.0 L 153.0 80.0 L 153.0 80.0 L 154.0 80.0 L 154.0 80.0 L 155.0 80.0 L 155.0 80.0 L 156.0 80.0 L 156.0 80.0 L 157.0 80.0 L 157.0 80.0 L 158.0 80.0 L 159.0 80.0 L 159.0 80.0 L 160.0 80.0 L 161.0 80.0 L 161.0 80.0 L 162.0 80.0 L 163.0 80.0 L 164.0 80.0 L 164.0 80.0 L 165.0 80.0 L 166.0 80.0 L 166.0 80.0 L 167.0 80.0 L 167.0 80.0 L 168.0 80.0 L 168.0 80.0 L 169.0 80.0 L 169.0 80.0 L 170.0 80.0 L 171.0 81.0 L 171.0 81.0 L 171.0 81.0 L 172.0 81.0 L 173.0 81.0 L 173.0 82.0 L 173.0 82.0 L 174.0 82.0 L 174.0 82.0 L 175.0 82.0 L 175.0 82.0 L 176.0 82.0 L 176.0 82.0 L 177.0 82.0 L 177.0 82.0 L 178.0 82.0 L 178.0 82.0 L 179.0 82.0 L 179.0 82.0 L 180.0 82.0 L 180.0 82.0 L 181.0 82.0 L 182.0 82.0 L 182.0 82.0 L 183.0 82.0 L 183.0 82.0 L 184.0 81.0 L 185.0 81.0 L 185.0 81.0 L 186.0 81.0 L 186.0 81.0 L 187.0 81.0 L 187.0 81.0 L 187.0 81.0 L 188.0 81.0 L 188.0 81.0 L 189.0 81.0 L 189.0 81.0 L 190.0 81.0 L 190.0 81.0 L 191.0 81.0 L 191.0 81.0 L 191.0 81.0 L 192.0 81.0 L 192.0 81.0 L 192.0 81.0 L 193.0 81.0 L 193.0 81.0 L 193.0 81.0 L 194.0 81.0 L 194.0 81.0 L 194.0 81.0 L 195.0 81.0 L 195.0 81.0 L 196.0 81.0 L 196.0 82.0 L 196.0 82.0 L 197.0 82.0 L 197.0 82.0 L 197.0 82.0 L 198.0 82.0 L 198.0 82.0 L 198.0 82.0 L 199.0 82.0 L 199.0 82.0 L 199.0 82.0 L 200.0 82.0 L 200.0 82.0 L 200.0 82.0 L 200.0 82.0 L 200.0 82.0 L 200.0 82.0 L 200.0 82.0 L 200.0 83.0 L 200.0 83.0 L 200.0 83.0 L 200.0 83.0 L 199.0 83.0 L 199.0 83.0 L 198.0 83.0 L 198.0 83.0 L 198.0 84.0 L 197.0 84.0 L 196.0 84.0 L 196.0 84.0 L 195.0 84.0 L 195.0 85.0 L 194.0 85.0 L 194.0 85.0 L 193.0 85.0 L 193.0 85.0 L 192.0 86.0 L 192.0 86.0 L 191.0 86.0 L 190.0 86.0 L 190.0 87.0 L 189.0 87.0 L 188.0 87.0 L 187.0 88.0 L 187.0 88.0 L 186.0 89.0 L 185.0 89.0 L 185.0 90.0 L 184.0 90.0 L 183.0 91.0 L 182.0 91.0 L 182.0 92.0 L 181.0 93.0 L 180.0 93.0 L 179.0 94.0 L 178.0 95.0 L 177.0 95.0 L 176.0 96.0 L 175.0 96.0 L 174.0 97.0 L 173.0 98.0 L 172.0 98.0 L 171.0 99.0 L 170.0 100.0 L 168.0 101.0 L 167.0 102.0 L 166.0 102.0 L 164.0 103.0 L 163.0 104.0 L 162.0 105.0 L 161.0 105.0 L 160.0 106.0 L 160.0 106.0 L 159.0 106.0 L 158.0 107.0 L 158.0 107.0 L 157.0 107.0 L 157.0 107.0 L 156.0 108.0 L 156.0 108.0 L 155.0 108.0 L 155.0 109.0 L 155.0 109.0 L 154.0 109.0 L 154.0 109.0 L 154.0 109.0 L 154.0 110.0 L 153.0 110.0 L 153.0 110.0 L 153.0 110.0 L 153.0 110.0 L 153.0 110.0 L 152.0 111.0 L 152.0 111.0 L 152.0 111.0 L 152.0 111.0 L 151.0 111.0 L 151.0 111.0 L 151.0 112.0 L 150.0 112.0 L 150.0 112.0 L 150.0 112.0 L 150.0 112.0 L 150.0 112.0 L 149.0 112.0 L 149.0 113.0 L 149.0 113.0 L 149.0 113.0 L 148.0 113.0 L 148.0 113.0 L 148.0 113.0 L 148.0 113.0 L 148.0 113.0 L 148.0 114.0 L 147.0 114.0 L 147.0 114.0 L 147.0 114.0 L 147.0 114.0 L 147.0 114.0 L 147.0 114.0 L 147.0 114.0 L 147.0 114.0 L 147.0 114.0 L 147.0 115.0 L 147.0 115.0 L 147.0 115.0 L 147.0 115.0 L 147.0 115.0 L 147.0 116.0 L 147.0 116.0 L 147.0 116.0 L 147.0 117.0 L 147.0 117.0 L 147.0 118.0 L 148.0 118.0 L 148.0 118.0 L 148.0 119.0 L 148.0 119.0 L 148.0 120.0 L 148.0 120.0 L 148.0 121.0 L 148.0 122.0 L 149.0 122.0 L 149.0 123.0 L 149.0 124.0 L 149.0 125.0 L 149.0 125.0 L 149.0 126.0 L 149.0 127.0 L 149.0 128.0 L 149.0 129.0 L 149.0 130.0 L 149.0 130.0 L 149.0 131.0 L 149.0 132.0 L 150.0 133.0 L 150.0 134.0 L 150.0 135.0 L 150.0 136.0 L 151.0 137.0 L 151.0 138.0 L 151.0 139.0 L 152.0 141.0 L 152.0 142.0 L 152.0 143.0 L 152.0 144.0 L 153.0 145.0 L 153.0 146.0 L 153.0 148.0 L 153.0 149.0 L 154.0 150.0 L 154.0 151.0 L 154.0 152.0 L 155.0 153.0 L 155.0 155.0 L 155.0 156.0 L 155.0 157.0 L 156.0 158.0 L 156.0 159.0 L 156.0 160.0 L 156.0 161.0 L 156.0 162.0 L 156.0 163.0 L 156.0 164.0 L 157.0 166.0 L 157.0 166.0 L 157.0 168.0 L 157.0 169.0 L 157.0 170.0 L 157.0 171.0 L 157.0 172.0 L 157.0 173.0 L 157.0 175.0 L 157.0 176.0 L 157.0 177.0 L 157.0 179.0 L 157.0 180.0 L 157.0 182.0 L 157.0 184.0 L 157.0 185.0 L 157.0 187.0 L 157.0 189.0 L 157.0 190.0 L 157.0 192.0 L 157.0 194.0 L 158.0 195.0 L 158.0 196.0 L 158.0 198.0 L 158.0 199.0 L 158.0 201.0 L 158.0 203.0 L 157.0 204.0 L 157.0 206.0 L 157.0 207.0 L 156.0 209.0 L 156.0 211.0 L 156.0 212.0 L 155.0 214.0 L 155.0 215.0 L 155.0 216.0 L 155.0 218.0 L 154.0 219.0 L 154.0 221.0 L 154.0 222.0 L 154.0 224.0 L 153.0 226.0 L 153.0 227.0 L 153.0 229.0 L 153.0 231.0 L 153.0 232.0 L 153.0 233.0 L 152.0 235.0 L 152.0 236.0 L 152.0 237.0 L 152.0 238.0 L 152.0 239.0 L 151.0 241.0 L 151.0 242.0 L 151.0 243.0 L 150.0 245.0 L 150.0 246.0 L 150.0 247.0 L 150.0 247.0 L 150.0 248.0 L 149.0 248.0 L 149.0 249.0 L 149.0 250.0 L 149.0 250.0 L 149.0 251.0 L 148.0 251.0 L 148.0 252.0 L 148.0 253.0 L 148.0 253.0 L 147.0 254.0 L 147.0 254.0 L 147.0 254.0 L 147.0 254.0 L 147.0 254.0 L 147.0 255.0 L 146.0 255.0 L 146.0 255.0 L 146.0 255.0 L 146.0 255.0 L 145.0 255.0 L 145.0 255.0 L 145.0 255.0 L 144.0 255.0 L 144.0 255.0 L 144.0 255.0 L 143.0 255.0 L 143.0 254.0 L 143.0 254.0 L 142.0 254.0 L 142.0 254.0 L 141.0 254.0 L 140.0 253.0 L 140.0 253.0 L 139.0 253.0 L 138.0 253.0 L 137.0 252.0 L 136.0 252.0 L 135.0 252.0 L 133.0 251.0 L 132.0 251.0 L 130.0 250.0 L 129.0 250.0 L 127.0 249.0 L 125.0 249.0 L 124.0 248.0 L 123.0 247.0 L 121.0 247.0 L 120.0 246.0 L 119.0 246.0 L 118.0 246.0 L 117.0 245.0 " stroke="black" fill="none" stroke-width="5.0" stroke-linecap="round" stroke-linejoin="round" />
<path d="M 129.0 137.0 L 129.0 137.0 L 129.0 137.0 L 129.0 137.0 L 128.0 137.0 L 128.0 137.0 L 128.0 137.0 L 128.0 137.0 L 127.0 137.0 L 127.0 137.0 L 127.0 137.0 L 127.0 137.0 L 127.0 137.0 L 127.0 137.0 L 127.0 137.0 L 127.0 137.0 L 127.0 137.0 L 127.0 138.0 L 127.0 138.0 L 127.0 138.0 L 128.0 139.0 L 129.0 139.0 L 130.0 139.0 L 130.0 139.0 L 132.0 139.0 L 133.0 139.0 L 134.0 139.0 L 135.0 139.0 L 136.0 139.0 L 137.0 139.0 L 138.0 139.0 L 139.0 139.0 L 140.0 139.0 L 141.0 139.0 L 143.0 139.0 L 144.0 139.0 L 145.0 139.0 L 146.0 139.0 L 147.0 139.0 L 148.0 139.0 L 148.0 139.0 L 149.0 139.0 L 150.0 139.0 L 150.0 139.0 L 151.0 139.0 L 151.0 139.0 L 152.0 139.0 L 152.0 139.0 L 153.0 139.0 L 153.0 139.0 L 154.0 139.0 L 155.0 139.0 L 156.0 139.0 L 156.0 139.0 L 157.0 139.0 L 158.0 139.0 L 158.0 139.0 L 159.0 139.0 L 160.0 139.0 L 160.0 139.0 L 161.0 139.0 L 162.0 139.0 L 163.0 139.0 L 164.0 139.0 L 164.0 139.0 L 165.0 139.0 L 166.0 139.0 L 167.0 139.0 L 167.0 139.0 L 168.0 139.0 L 169.0 139.0 L 170.0 139.0 L 171.0 139.0 L 172.0 139.0 L 173.0 139.0 L 173.0 139.0 L 174.0 139.0 L 175.0 139.0 L 175.0 139.0 L 175.0 139.0 L 175.0 140.0 " stroke="black" fill="none" stroke-width="5.0" stroke-linecap="round" stroke-linejoin="round" />
<path d="M 119.0 172.0 L 119.0 172.0 L 119.0 173.0 L 119.0 174.0 L 118.0 174.0 L 118.0 175.0 L 118.0 175.0 L 118.0 175.0 L 118.0 175.0 L 118.0 175.0 L 118.0 175.0 L 118.0 175.0 L 119.0 175.0 L 120.0 175.0 L 121.0 174.0 L 122.0 174.0 L 122.0 174.0 L 123.0 174.0 L 124.0 174.0 L 125.0 174.0 L 125.0 174.0 L 126.0 174.0 L 127.0 174.0 L 128.0 174.0 L 129.0 174.0 L 130.0 174.0 L 131.0 174.0 L 132.0 174.0 L 133.0 174.0 L 133.0 174.0 L 134.0 174.0 L 135.0 174.0 L 135.0 174.0 L 136.0 174.0 L 137.0 174.0 L 137.0 174.0 L 138.0 174.0 L 138.0 174.0 L 139.0 174.0 L 139.0 174.0 L 140.0 174.0 L 140.0 174.0 L 141.0 174.0 L 141.0 174.0 L 141.0 175.0 L 142.0 175.0 L 142.0 175.0 L 142.0 175.0 L 143.0 175.0 L 143.0 175.0 L 143.0 175.0 L 143.0 175.0 L 144.0 175.0 L 144.0 175.0 L 144.0 175.0 L 144.0 175.0 L 145.0 175.0 L 145.0 175.0 L 145.0 175.0 L 146.0 175.0 L 146.0 175.0 L 146.0 175.0 L 147.0 175.0 L 147.0 175.0 L 147.0 175.0 L 148.0 175.0 L 148.0 174.0 L 148.0 174.0 L 149.0 174.0 L 149.0 174.0 L 149.0 174.0 L 150.0 174.0 L 150.0 174.0 L 150.0 174.0 L 151.0 173.0 L 151.0 173.0 L 151.0 173.0 L 152.0 173.0 L 152.0 173.0 L 152.0 173.0 L 153.0 173.0 L 153.0 173.0 L 153.0 173.0 L 154.0 173.0 L 154.0 173.0 L 154.0 173.0 L 155.0 173.0 L 155.0 173.0 L 155.0 173.0 L 155.0 173.0 L 156.0 173.0 L 156.0 173.0 L 156.0 172.0 L 157.0 172.0 L 157.0 172.0 L 157.0 172.0 L 158.0 172.0 L 158.0 172.0 L 158.0 172.0 L 159.0 172.0 L 159.0 172.0 L 160.0 172.0 L 160.0 172.0 L 160.0 172.0 L 161.0 172.0 L 161.0 172.0 L 162.0 172.0 L 162.0 172.0 L 163.0 172.0 L 163.0 172.0 L 164.0 172.0 L 164.0 172.0 L 164.0 172.0 L 165.0 172.0 L 165.0 172.0 L 166.0 172.0 L 166.0 172.0 L 167.0 172.0 L 168.0 172.0 L 168.0 172.0 L 169.0 172.0 L 169.0 172.0 L 170.0 172.0 L 171.0 172.0 L 171.0 172.0 L 172.0 172.0 L 172.0 172.0 L 173.0 172.0 L 173.0 172.0 L 174.0 172.0 L 175.0 172.0 L 175.0 172.0 L 176.0 172.0 L 177.0 172.0 L 178.0 172.0 L 178.0 172.0 L 179.0 172.0 L 179.0 172.0 " stroke="black" fill="none" stroke-width="5.0" stroke-linecap="round" stroke-linejoin="round" />
<path d="M 115.0 204.0 L 115.0 204.0 L 115.0 204.0 L 115.0 204.0 L 114.0 204.0 L 114.0 204.0 L 114.0 204.0 L 114.0 204.0 L 114.0 204.0 L 114.0 204.0 L 114.0 204.0 L 114.0 204.0 L 114.0 204.0 L 114.0 204.0 L 114.0 204.0 L 114.0 204.0 L 114.0 204.0 L 114.0 204.0 L 114.0 204.0 L 114.0 204.0 L 114.0 204.0 L 115.0 204.0 L 115.0 204.0 L 116.0 204.0 L 116.0 204.0 L 116.0 204.0 L 117.0 204.0 L 117.0 204.0 L 118.0 204.0 L 118.0 205.0 L 119.0 205.0 L 119.0 205.0 L 120.0 205.0 L 120.0 205.0 L 121.0 205.0 L 122.0 205.0 L 123.0 205.0 L 124.0 205.0 L 125.0 205.0 L 126.0 205.0 L 126.0 205.0 L 127.0 205.0 L 128.0 205.0 L 129.0 205.0 L 129.0 205.0 L 130.0 205.0 L 130.0 205.0 L 131.0 205.0 L 132.0 205.0 L 132.0 205.0 L 133.0 205.0 L 134.0 205.0 L 134.0 205.0 L 135.0 205.0 L 135.0 205.0 L 136.0 205.0 L 137.0 205.0 L 137.0 205.0 L 137.0 205.0 L 138.0 205.0 L 139.0 205.0 L 139.0 205.0 L 140.0 205.0 L 141.0 205.0 L 141.0 205.0 L 142.0 205.0 L 143.0 205.0 L 143.0 205.0 L 144.0 205.0 L 145.0 205.0 L 145.0 205.0 L 146.0 205.0 L 146.0 205.0 L 147.0 205.0 L 147.0 205.0 L 148.0 204.0 L 148.0 204.0 L 149.0 204.0 L 149.0 204.0 L 150.0 204.0 L 150.0 204.0 L 151.0 204.0 L 151.0 204.0 L 152.0 204.0 L 152.0 204.0 L 153.0 204.0 L 153.0 204.0 L 153.0 204.0 L 154.0 205.0 L 154.0 205.0 L 155.0 205.0 L 155.0 205.0 L 156.0 205.0 L 156.0 205.0 L 157.0 205.0 L 157.0 205.0 L 158.0 205.0 L 158.0 205.0 L 159.0 206.0 L 159.0 206.0 L 160.0 206.0 L 161.0 206.0 L 161.0 206.0 L 162.0 206.0 L 163.0 206.0 L 163.0 206.0 L 164.0 206.0 L 165.0 206.0 L 166.0 206.0 L 166.0 206.0 L 167.0 206.0 L 168.0 206.0 L 169.0 206.0 L 170.0 206.0 L 171.0 205.0 L 172.0 205.0 L 173.0 205.0 L 173.0 205.0 L 174.0 205.0 L 175.0 205.0 L 176.0 205.0 L 176.0 205.0 L 177.0 205.0 L 177.0 205.0 L 178.0 205.0 L 178.0 205.0 L 179.0 205.0 L 179.0 205.0 L 180.0 205.0 L 180.0 205.0 L 180.0 205.0 L 181.0 205.0 L 181.0 205.0 L 181.0 205.0 L 182.0 205.0 L 182.0 205.0 L 182.0 205.0 L 183.0 205.0 L 183.0 205.0 L 183.0 205.0 L 184.0 205.0 L 184.0 205.0 L 185.0 205.0 L 185.0 205.0 L 185.0 205.0 L 186.0 205.0 L 186.0 205.0 L 187.0 205.0 L 187.0 205.0 L 188.0 205.0 L 188.0 205.0 L 189.0 205.0 L 189.0 205.0 " stroke="black" fill="none" stroke-width="5.0" stroke-linecap="round" stroke-linejoin="round" />
<path d="M 68.0 127.0 L 68.0 127.0 L 67.0 127.0 L 67.0 128.0 L 66.0 128.0 L 66.0 128.0 L 65.0 128.0 L 65.0 128.0 L 65.0 128.0 L 65.0 128.0 L 65.0 128.0 L 65.0 128.0 L 65.0 128.0 L 65.0 128.0 L 66.0 128.0 L 66.0 128.0 L 66.0 128.0 L 67.0 128.0 L 67.0 128.0 L 68.0 128.0 L 68.0 128.0 L 69.0 128.0 L 69.0 128.0 L 70.0 128.0 L 71.0 128.0 L 72.0 128.0 L 73.0 128.0 L 74.0 128.0 L 75.0 128.0 L 76.0 128.0 L 77.0 128.0 L 78.0 128.0 L 79.0 128.0 L 80.0 128.0 L 81.0 128.0 L 82.0 128.0 L 83.0 128.0 L 85.0 128.0 L 86.0 128.0 L 88.0 128.0 L 89.0 128.0 L 90.0 128.0 L 91.0 128.0 L 92.0 128.0 L 93.0 128.0 L 94.0 128.0 L 95.0 128.0 L 96.0 128.0 L 97.0 128.0 L 98.0 128.0 L 99.0 128.0 L 100.0 128.0 L 100.0 128.0 L 101.0 128.0 L 102.0 128.0 L 102.0 128.0 L 103.0 128.0 L 103.0 128.0 L 103.0 128.0 L 104.0 129.0 L 104.0 129.0 L 104.0 129.0 L 105.0 129.0 L 105.0 129.0 L 105.0 129.0 L 106.0 129.0 L 106.0 129.0 L 106.0 129.0 L 106.0 129.0 L 106.0 129.0 L 106.0 129.0 L 106.0 130.0 L 107.0 130.0 L 107.0 130.0 L 107.0 130.0 L 107.0 130.0 L 107.0 130.0 L 107.0 130.0 L 107.0 131.0 L 107.0 131.0 L 107.0 131.0 L 107.0 131.0 L 107.0 132.0 L 107.0 132.0 L 107.0 132.0 L 107.0 132.0 L 107.0 133.0 L 107.0 133.0 L 107.0 134.0 L 107.0 134.0 L 107.0 135.0 L 107.0 136.0 L 106.0 137.0 L 106.0 138.0 L 106.0 140.0 L 106.0 141.0 L 105.0 142.0 L 105.0 144.0 L 105.0 145.0 L 105.0 147.0 L 104.0 148.0 L 104.0 150.0 L 104.0 152.0 L 103.0 153.0 L 103.0 155.0 L 103.0 156.0 L 103.0 157.0 L 102.0 159.0 L 102.0 160.0 L 102.0 161.0 L 101.0 162.0 L 101.0 164.0 L 101.0 165.0 L 101.0 166.0 L 100.0 167.0 L 100.0 169.0 L 99.0 170.0 L 99.0 171.0 L 98.0 172.0 L 98.0 173.0 L 97.0 175.0 L 97.0 176.0 L 96.0 177.0 L 96.0 178.0 L 96.0 179.0 L 95.0 180.0 L 94.0 182.0 L 94.0 183.0 L 93.0 185.0 L 93.0 186.0 L 92.0 187.0 L 92.0 188.0 L 91.0 189.0 L 91.0 190.0 L 91.0 191.0 L 91.0 192.0 L 90.0 193.0 L 90.0 193.0 L 90.0 194.0 L 90.0 195.0 L 89.0 196.0 L 89.0 196.0 L 89.0 197.0 L 88.0 198.0 L 88.0 198.0 L 87.0 199.0 L 87.0 200.0 L 86.0 201.0 L 85.0 202.0 L 85.0 203.0 L 83.0 204.0 L 82.0 206.0 L 81.0 207.0 L 80.0 209.0 L 79.0 210.0 L 78.0 212.0 L 77.0 213.0 L 77.0 213.0 L 76.0 214.0 L 76.0 215.0 L 76.0 215.0 L 76.0 215.0 L 75.0 216.0 L 75.0 216.0 L 75.0 217.0 L 75.0 218.0 L 75.0 218.0 L 74.0 219.0 L 74.0 219.0 L 74.0 220.0 L 74.0 220.0 L 74.0 220.0 L 74.0 220.0 L 73.0 221.0 L 73.0 221.0 L 73.0 221.0 L 72.0 222.0 L 71.0 223.0 L 71.0 223.0 L 70.0 224.0 L 70.0 224.0 L 69.0 225.0 L 69.0 225.0 L 68.0 226.0 L 68.0 226.0 L 68.0 226.0 L 67.0 227.0 L 67.0 227.0 L 67.0 227.0 L 67.0 227.0 L 67.0 227.0 L 67.0 227.0 " stroke="black" fill="none" stroke-width="5.0" stroke-linecap="round" stroke-linejoin="round" />
<path d="M 229.0 115.0 L 229.0 115.0 L 229.0 115.0 L 229.0 115.0 L 229.0 115.0 L 229.0 115.0 L 229.0 115.0 L 229.0 115.0 L 229.0 115.0 L 229.0 115.0 L 229.0 115.0 L 229.0 115.0 L 228.0 115.0 L 228.0 115.0 L 228.0 116.0 L 228.0 116.0 L 227.0 116.0 L 227.0 117.0 L 227.0 117.0 L 226.0 118.0 L 226.0 119.0 L 225.0 120.0 L 224.0 121.0 L 223.0 122.0 L 222.0 123.0 L 221.0 124.0 L 220.0 125.0 L 219.0 126.0 L 218.0 127.0 L 217.0 128.0 L 216.0 129.0 L 215.0 130.0 L 214.0 131.0 L 213.0 132.0 L 212.0 133.0 L 211.0 134.0 L 210.0 135.0 L 209.0 136.0 L 207.0 137.0 L 207.0 138.0 L 206.0 139.0 L 205.0 140.0 L 204.0 141.0 L 203.0 142.0 L 202.0 142.0 L 201.0 143.0 L 201.0 143.0 L 200.0 143.0 L 200.0 144.0 L 199.0 144.0 L 199.0 144.0 L 198.0 145.0 L 198.0 145.0 L 198.0 145.0 L 197.0 146.0 L 197.0 146.0 L 197.0 146.0 L 197.0 146.0 L 197.0 146.0 L 197.0 146.0 L 197.0 146.0 L 197.0 146.0 L 197.0 146.0 L 197.0 146.0 L 197.0 146.0 L 197.0 146.0 L 197.0 146.0 L 197.0 146.0 L 197.0 147.0 L 197.0 147.0 L 197.0 147.0 L 197.0 148.0 L 197.0 148.0 L 197.0 148.0 L 197.0 148.0 L 197.0 148.0 L 198.0 148.0 L 198.0 148.0 L 198.0 149.0 L 198.0 149.0 L 198.0 149.0 L 198.0 149.0 L 198.0 149.0 L 198.0 150.0 L 198.0 150.0 L 198.0 150.0 L 198.0 150.0 L 198.0 150.0 L 198.0 150.0 L 198.0 150.0 L 198.0 151.0 L 198.0 151.0 L 198.0 151.0 L 198.0 152.0 L 198.0 152.0 L 198.0 152.0 L 198.0 153.0 L 198.0 154.0 L 198.0 154.0 L 198.0 155.0 L 198.0 156.0 L 198.0 157.0 L 198.0 158.0 L 198.0 159.0 L 198.0 161.0 L 199.0 162.0 L 199.0 162.0 L 199.0 163.0 L 199.0 164.0 L 200.0 165.0 L 200.0 166.0 L 201.0 167.0 L 201.0 167.0 L 202.0 168.0 L 202.0 169.0 L 202.0 170.0 L 203.0 171.0 L 203.0 172.0 L 203.0 173.0 L 204.0 174.0 L 204.0 175.0 L 205.0 176.0 L 205.0 177.0 L 206.0 177.0 L 206.0 178.0 L 207.0 179.0 L 207.0 180.0 L 207.0 181.0 L 208.0 182.0 L 208.0 183.0 L 209.0 184.0 L 209.0 185.0 L 210.0 186.0 L 210.0 187.0 L 211.0 189.0 L 212.0 190.0 L 212.0 191.0 L 213.0 192.0 L 214.0 193.0 L 215.0 194.0 L 216.0 195.0 L 216.0 196.0 L 217.0 198.0 L 217.0 199.0 L 218.0 200.0 L 219.0 201.0 L 219.0 202.0 L 220.0 202.0 L 221.0 203.0 L 222.0 204.0 L 223.0 205.0 L 223.0 206.0 L 224.0 207.0 L 225.0 208.0 L 226.0 209.0 L 227.0 210.0 L 228.0 211.0 L 228.0 212.0 L 229.0 213.0 L 229.0 214.0 L 230.0 214.0 L 231.0 215.0 L 231.0 216.0 L 232.0 217.0 L 232.0 219.0 L 233.0 220.0 L 233.0 221.0 L 233.0 222.0 L 234.0 223.0 L 234.0 224.0 L 234.0 225.0 L 235.0 225.0 L 235.0 226.0 L 236.0 227.0 L 236.0 228.0 L 237.0 229.0 L 237.0 230.0 L 238.0 231.0 L 239.0 233.0 L 239.0 234.0 L 240.0 235.0 L 240.0 237.0 L 241.0 238.0 L 241.0 239.0 L 241.0 239.0 L 242.0 239.0 L 242.0 239.0 " stroke="black" fill="none" stroke-width="5.0" stroke-linecap="round" stroke-linejoin="round" />
</svg>