<svg xmlns="http://www.w3.org/2000/svg" width="300" height="300" viewBox="0 0 300 300">
<path d="M 82.0 89.0 L 82.0 89.0 L 82.0 89.0 L 81.0 89.0 L 81.0 89.0 L 81.0 90.0 L 81.0 90.0 L 81.0 91.0 L 81.0 92.0 L 81.0 93.0 L 82.0 95.0 L 83.0 96.0 L 83.0 98.0 L 84.0 100.0 L 84.0 102.0 L 85.0 105.0 L 85.0 108.0 L 85.0 112.0 L 85.0 115.0 L 85.0 119.0 L 85.0 123.0 L 85.0 127.0 L 85.0 131.0 L 86.0 135.0 L 86.0 139.0 L 86.0 144.0 L 85.0 149.0 L 84.0 155.0 L 83.0 160.0 L 82.0 165.0 L 81.0 170.0 L 80.0 175.0 L 80.0 180.0 L 79.0 186.0 L 78.0 191.0 L 77.0 196.0 L 76.0 202.0 L 74.0 207.0 L 73.0 212.0 L 71.0 218.0 L 69.0 225.0 L 67.0 231.0 L 65.0 236.0 L 63.0 242.0 L 61.0 245.0 L 60.0 248.0 L 59.0 249.0 " stroke="black" fill="none" stroke-width="5.0" stroke-linecap="round" stroke-linejoin="round" />
<path d="M 87.0 85.0 L 87.0 85.0 L 87.0 85.0 L 87.0 85.0 L 87.0 85.0 L 87.0 85.0 L 87.0 85.0 L 87.0 85.0 L 87.0 85.0 L 87.0 85.0 L 87.0 85.0 L 87.0 85.0 L 87.0 85.0 L 87.0 85.0 L 87.0 85.0 L 87.0 85.0 L 88.0 85.0 L 89.0 85.0 L 90.0 85.0 L 92.0 85.0 L 94.0 85.0 L 97.0 85.0 L 100.0 85.0 L 103.0 85.0 L 106.0 85.0 L 109.0 85.0 L 111.0 85.0 L 113.0 85.0 L 115.0 85.0 L 117.0 85.0 L 119.0 85.0 L 121.0 84.0 L 123.0 84.0 L 125.0 84.0 L 128.0 84.0 L 130.0 84.0 L 133.0 84.0 L 136.0 84.0 L 139.0 84.0 L 142.0 83.0 L 145.0 83.0 L 148.0 83.0 L 150.0 82.0 L 152.0 82.0 L 154.0 82.0 L 155.0 82.0 L 157.0 82.0 L 159.0 82.0 L 161.0 82.0 L 164.0 82.0 L 167.0 82.0 L 170.0 83.0 L 173.0 83.0 L 177.0 83.0 L 181.0 83.0 L 184.0 83.0 L 187.0 82.0 L 189.0 82.0 L 190.0 82.0 L 192.0 82.0 L 193.0 82.0 L 194.0 82.0 L 195.0 82.0 L 196.0 82.0 L 196.0 82.0 L 198.0 82.0 L 198.0 82.0 L 199.0 82.0 L 200.0 82.0 L 201.0 82.0 L 202.0 83.0 L 202.0 83.0 L 203.0 84.0 L 204.0 84.0 L 204.0 85.0 L 205.0 85.0 L 205.0 85.0 L 206.0 85.0 L 206.0 86.0 L 207.0 86.0 L 207.0 86.0 L 207.0 86.0 L 207.0 86.0 L 208.0 86.0 L 208.0 86.0 L 208.0 87.0 L 209.0 87.0 L 209.0 87.0 L 209.0 87.0 L 209.0 87.0 L 209.0 87.0 L 210.0 87.0 L 210.0 87.0 L 210.0 88.0 L 210.0 88.0 L 210.0 88.0 L 210.0 88.0 L 211.0 88.0 L 211.0 88.0 L 211.0 88.0 L 211.0 88.0 L 211.0 89.0 L 211.0 89.0 L 212.0 89.0 L 212.0 89.0 L 212.0 89.0 L 212.0 89.0 L 212.0 90.0 L 212.0 90.0 L 212.0 90.0 L 212.0 91.0 L 212.0 92.0 L 212.0 94.0 L 212.0 97.0 L 212.0 100.0 L 212.0 104.0 L 212.0 108.0 L 212.0 113.0 L 212.0 117.0 L 212.0 122.0 L 212.0 126.0 L 212.0 130.0 L 212.0 135.0 L 212.0 140.0 L 212.0 145.0 L 212.0 150.0 L 212.0 155.0 L 212.0 159.0 L 212.0 164.0 L 212.0 168.0 L 212.0 172.0 L 213.0 177.0 L 213.0 182.0 L 213.0 188.0 L 213.0 193.0 L 213.0 199.0 L 213.0 204.0 L 213.0 210.0 L 213.0 214.0 L 213.0 217.0 L 213.0 221.0 L 213.0 224.0 L 212.0 227.0 L 212.0 231.0 L 212.0 234.0 L 212.0 236.0 L 212.0 239.0 L 212.0 242.0 L 212.0 244.0 L 212.0 246.0 L 212.0 248.0 L 212.0 250.0 L 212.0 251.0 L 212.0 252.0 L 211.0 253.0 L 211.0 253.0 L 210.0 253.0 L 210.0 253.0 L 209.0 253.0 L 208.0 252.0 L 207.0 251.0 L 205.0 249.0 L 203.0 248.0 L 200.0 246.0 L 198.0 245.0 L 196.0 243.0 L 193.0 242.0 L 191.0 241.0 " stroke="black" fill="none" stroke-width="5.0" stroke-linecap="round" stroke-linejoin="round" />
<path d="M 107.0 121.0 L 106.0 121.0 L 105.0 121.0 L 104.0 121.0 L 104.0 121.0 L 104.0 120.0 L 104.0 120.0 L 105.0 119.0 L 108.0 119.0 L 113.0 118.0 L 119.0 117.0 L 128.0 117.0 L 138.0 117.0 L 147.0 116.0 L 157.0 116.0 L 166.0 116.0 L 176.0 115.0 L 185.0 115.0 L 191.0 114.0 L 194.0 114.0 L 197.0 114.0 L 197.0 114.0 L 198.0 114.0 L 198.0 114.0 " stroke="black" fill="none" stroke-width="5.0" stroke-linecap="round" stroke-linejoin="round" />
<path d="M 154.0 95.0 L 154.0 95.0 L 153.0 95.0 L 153.0 95.0 L 152.0 95.0 L 152.0 95.0 L 151.0 97.0 L 151.0 101.0 L 151.0 105.0 L 150.0 111.0 L 150.0 117.0 L 150.0 123.0 L 150.0 129.0 L 150.0 135.0 L 150.0 140.0 L 150.0 145.0 L 149.0 149.0 L 149.0 151.0 " stroke="black" fill="none" stroke-width="5.0" stroke-linecap="round" stroke-linejoin="round" />
<path d="M 105.0 153.0 L 104.0 153.0 L 103.0 153.0 L 101.0 152.0 L 100.0 152.0 L 99.0 152.0 L 99.0 152.0 L 98.0 152.0 L 98.0 152.0 L 100.0 152.0 L 102.0 152.0 L 105.0 152.0 L 109.0 151.0 L 116.0 151.0 L 125.0 151.0 L 135.0 151.0 L 147.0 151.0 L 159.0 151.0 L 172.0 150.0 L 185.0 149.0 L 196.0 148.0 L 203.0 146.0 L 211.0 144.0 L 218.0 143.0 L 223.0 143.0 L 226.0 144.0 L 226.0 145.0 " stroke="black" fill="none" stroke-width="5.0" stroke-linecap="round" stroke-linejoin="round" />
<path d="M 117.0 178.0 L 117.0 178.0 L 116.0 178.0 L 116.0 178.0 L 115.0 178.0 L 115.0 178.0 L 115.0 180.0 L 115.0 184.0 L 116.0 188.0 L 116.0 194.0 L 117.0 200.0 L 117.0 206.0 L 117.0 212.0 L 117.0 218.0 L 117.0 223.0 L 118.0 226.0 L 118.0 226.0 L 119.0 225.0 L 119.0 223.0 " stroke="black" fill="none" stroke-width="5.0" stroke-linecap="round" stroke-linejoin="round" />
<path d="M 115.0 189.0 L 115.0 189.0 L 114.0 189.0 L 113.0 188.0 L 113.0 188.0 L 113.0 188.0 L 113.0 187.0 L 114.0 187.0 L 117.0 186.0 L 121.0 185.0 L 127.0 184.0 L 134.0 183.0 L 142.0 182.0 L 150.0 181.0 L 157.0 180.0 L 165.0 179.0 L 172.0 178.0 L 179.0 177.0 L 184.0 177.0 L 187.0 178.0 L 190.0 178.0 L 191.0 180.0 L 191.0 181.0 L 191.0 183.0 L 191.0 185.0 L 191.0 188.0 L 191.0 191.0 L 190.0 195.0 L 188.0 198.0 L 187.0 202.0 L 185.0 205.0 L 182.0 209.0 L 180.0 212.0 L 178.0 215.0 L 175.0 217.0 L 173.0 219.0 " stroke="black" fill="none" stroke-width="5.0" stroke-linecap="round" stroke-linejoin="round" />
<path d="M 139.0 230.0 L 135.0 230.0 L 131.0 230.0 L 126.0 230.0 L 123.0 230.0 L 121.0 230.0 L 120.0 230.0 L 120.0 230.0 L 120.0 230.0 L 123.0 230.0 L 126.0 229.0 L 131.0 228.0 L 138.0 227.0 L 144.0 225.0 L 150.0 223.0 L 157.0 222.0 L 164.0 220.0 L 172.0 219.0 L 180.0 218.0 L 186.0 218.0 " stroke="black" fill="none" stroke-width="5.0" stroke-linecap="round" stroke-linejoin="round" />
</svg>