<svg xmlns="http://www.w3.org/2000/svg" width="300" height="300" viewBox="0 0 300 300">
<path d="M 101.0 71.0 L 101.0 71.0 L 101.0 71.0 L 101.0 70.0 L 101.0 69.0 L 101.0 69.0 L 101.0 69.0 L 101.0 69.0 L 101.0 69.0 L 101.0 69.0 L 101.0 69.0 L 101.0 70.0 L 101.0 71.0 L 100.0 72.0 L 99.0 73.0 L 98.0 75.0 L 97.0 76.0 L 96.0 78.0 L 93.0 81.0 L 91.0 83.0 L 88.0 86.0 L 84.0 90.0 L 81.0 93.0 L 77.0 97.0 L 74.0 101.0 L 71.0 104.0 L 68.0 108.0 L 65.0 111.0 L 63.0 113.0 L 62.0 116.0 L 60.0 118.0 L 60.0 119.0 " stroke="black" fill="none" stroke-width="5.0" stroke-linecap="round" stroke-linejoin="round" />
<path d="M 105.0 115.0 L 105.0 115.0 L 105.0 115.0 L 105.0 115.0 L 104.0 115.0 L 104.0 115.0 L 104.0 115.0 L 104.0 115.0 L 104.0 115.0 L 104.0 115.0 L 103.0 115.0 L 103.0 116.0 L 103.0 116.0 L 102.0 118.0 L 101.0 120.0 L 100.0 122.0 L 99.0 125.0 L 96.0 129.0 L 94.0 134.0 L 91.0 139.0 L 88.0 144.0 L 84.0 149.0 L 80.0 153.0 L 76.0 157.0 L 71.0 161.0 L 68.0 165.0 L 65.0 168.0 L 62.0 172.0 L 60.0 174.0 L 58.0 175.0 L 58.0 176.0 " stroke="black" fill="none" stroke-width="5.0" stroke-linecap="round" stroke-linejoin="round" />
<path d="M 89.0 146.0 L 89.0 146.0 L 89.0 146.0 L 89.0 146.0 L 89.0 146.0 L 89.0 146.0 L 89.0 146.0 L 89.0 146.0 L 89.0 147.0 L 89.0 148.0 L 89.0 149.0 L 89.0 151.0 L 89.0 153.0 L 89.0 156.0 L 89.0 159.0 L 89.0 164.0 L 90.0 168.0 L 90.0 174.0 L 90.0 181.0 L 91.0 189.0 L 91.0 196.0 L 91.0 204.0 L 91.0 209.0 L 91.0 214.0 L 91.0 220.0 L 91.0 225.0 L 91.0 230.0 L 90.0 236.0 L 90.0 239.0 L 90.0 243.0 L 90.0 246.0 L 90.0 248.0 L 90.0 250.0 L 90.0 252.0 L 90.0 252.0 " stroke="black" fill="none" stroke-width="5.0" stroke-linecap="round" stroke-linejoin="round" />
<path d="M 139.0 105.0 L 139.0 105.0 L 139.0 105.0 L 139.0 105.0 L 139.0 105.0 L 139.0 105.0 L 139.0 104.0 L 139.0 104.0 L 139.0 104.0 L 139.0 104.0 L 139.0 104.0 L 139.0 104.0 L 139.0 104.0 L 139.0 104.0 L 139.0 104.0 L 139.0 104.0 L 139.0 104.0 L 139.0 104.0 L 139.0 104.0 L 139.0 104.0 L 140.0 104.0 L 140.0 104.0 L 141.0 104.0 L 141.0 104.0 L 142.0 104.0 L 142.0 104.0 L 143.0 104.0 L 143.0 104.0 L 144.0 104.0 L 144.0 104.0 L 145.0 104.0 L 145.0 104.0 L 146.0 104.0 L 146.0 104.0 L 147.0 105.0 L 147.0 105.0 L 147.0 105.0 L 148.0 105.0 L 148.0 105.0 L 149.0 105.0 L 149.0 105.0 L 150.0 105.0 L 150.0 105.0 L 151.0 105.0 L 151.0 105.0 L 151.0 105.0 L 152.0 105.0 L 152.0 105.0 L 153.0 105.0 L 153.0 105.0 L 154.0 105.0 L 154.0 105.0 L 155.0 105.0 L 155.0 105.0 L 156.0 105.0 L 156.0 105.0 L 157.0 105.0 L 157.0 105.0 L 158.0 105.0 L 158.0 105.0 L 159.0 105.0 L 159.0 105.0 L 160.0 105.0 L 160.0 105.0 L 161.0 105.0 L 161.0 105.0 L 162.0 105.0 L 162.0 105.0 L 163.0 105.0 L 163.0 105.0 L 164.0 105.0 L 164.0 105.0 L 165.0 105.0 L 165.0 105.0 L 166.0 105.0 L 166.0 105.0 L 167.0 105.0 L 167.0 105.0 L 168.0 105.0 L 169.0 105.0 L 169.0 105.0 L 170.0 105.0 L 171.0 105.0 L 172.0 105.0 L 172.0 105.0 L 173.0 105.0 L 174.0 105.0 L 175.0 105.0 L 176.0 105.0 L 177.0 105.0 L 177.0 105.0 L 178.0 105.0 L 179.0 105.0 L 179.0 105.0 L 180.0 105.0 L 181.0 105.0 L 181.0 105.0 L 182.0 105.0 L 182.0 105.0 L 183.0 105.0 L 184.0 105.0 L 184.0 105.0 L 185.0 105.0 L 185.0 105.0 L 185.0 105.0 L 186.0 105.0 L 186.0 105.0 L 187.0 105.0 L 187.0 105.0 L 188.0 105.0 L 188.0 105.0 L 189.0 105.0 L 189.0 105.0 L 189.0 105.0 L 190.0 105.0 L 190.0 105.0 L 191.0 105.0 L 191.0 105.0 L 191.0 105.0 L 192.0 105.0 L 192.0 105.0 L 193.0 105.0 L 193.0 105.0 L 193.0 105.0 L 194.0 105.0 L 194.0 105.0 L 195.0 105.0 L 195.0 105.0 L 195.0 104.0 L 196.0 104.0 L 196.0 104.0 L 197.0 104.0 L 197.0 104.0 L 197.0 104.0 L 198.0 104.0 L 198.0 104.0 L 199.0 104.0 L 199.0 104.0 L 199.0 104.0 L 200.0 104.0 L 200.0 104.0 L 201.0 104.0 L 201.0 104.0 L 202.0 104.0 L 202.0 104.0 L 203.0 104.0 L 203.0 104.0 L 204.0 104.0 L 204.0 104.0 L 205.0 104.0 L 206.0 104.0 L 206.0 104.0 L 207.0 104.0 L 208.0 104.0 L 208.0 104.0 L 209.0 104.0 L 210.0 104.0 L 210.0 104.0 L 211.0 104.0 L 212.0 104.0 L 213.0 104.0 L 213.0 104.0 L 214.0 104.0 L 215.0 104.0 L 215.0 104.0 L 216.0 104.0 L 217.0 104.0 L 218.0 104.0 L 218.0 104.0 L 219.0 104.0 L 220.0 104.0 L 220.0 104.0 L 221.0 104.0 L 222.0 104.0 L 223.0 104.0 L 223.0 104.0 L 224.0 104.0 L 225.0 104.0 L 225.0 104.0 L 226.0 104.0 L 227.0 104.0 L 227.0 104.0 L 228.0 104.0 L 229.0 104.0 L 229.0 105.0 L 230.0 105.0 L 230.0 105.0 L 231.0 105.0 L 231.0 105.0 L 231.0 105.0 L 232.0 105.0 L 232.0 105.0 L 232.0 105.0 L 232.0 106.0 L 232.0 106.0 L 232.0 106.0 L 232.0 107.0 L 232.0 108.0 L 232.0 109.0 L 231.0 110.0 L 230.0 111.0 L 229.0 113.0 L 228.0 115.0 L 227.0 118.0 L 225.0 120.0 L 224.0 122.0 L 222.0 124.0 L 221.0 126.0 L 220.0 128.0 " stroke="black" fill="none" stroke-width="5.0" stroke-linecap="round" stroke-linejoin="round" />
<path d="M 137.0 107.0 L 137.0 107.0 L 137.0 107.0 L 137.0 107.0 L 137.0 108.0 L 137.0 108.0 L 137.0 109.0 L 137.0 109.0 L 137.0 110.0 L 138.0 111.0 L 138.0 113.0 L 138.0 114.0 L 138.0 116.0 L 139.0 118.0 L 139.0 120.0 L 139.0 122.0 L 139.0 124.0 L 139.0 126.0 L 139.0 128.0 L 139.0 130.0 L 139.0 132.0 L 139.0 133.0 L 140.0 135.0 L 140.0 137.0 L 140.0 139.0 L 140.0 140.0 L 141.0 142.0 L 141.0 144.0 L 141.0 146.0 L 141.0 149.0 L 141.0 151.0 L 141.0 153.0 L 140.0 155.0 L 140.0 157.0 L 140.0 159.0 L 139.0 161.0 L 139.0 162.0 L 139.0 164.0 L 139.0 165.0 L 139.0 167.0 L 139.0 168.0 L 139.0 170.0 L 138.0 172.0 L 138.0 174.0 L 138.0 176.0 L 138.0 178.0 L 137.0 180.0 L 137.0 182.0 L 137.0 184.0 L 136.0 186.0 L 136.0 188.0 L 135.0 190.0 L 135.0 192.0 L 134.0 194.0 L 134.0 196.0 L 133.0 198.0 L 133.0 200.0 L 132.0 202.0 L 131.0 204.0 L 131.0 206.0 L 130.0 207.0 L 129.0 209.0 L 128.0 211.0 L 127.0 213.0 L 126.0 214.0 L 125.0 217.0 L 124.0 219.0 L 123.0 221.0 L 122.0 224.0 L 120.0 227.0 L 119.0 230.0 L 118.0 233.0 L 117.0 235.0 L 116.0 237.0 L 114.0 239.0 L 113.0 241.0 L 112.0 243.0 L 111.0 244.0 " stroke="black" fill="none" stroke-width="5.0" stroke-linecap="round" stroke-linejoin="round" />
<path d="M 181.0 74.0 L 181.0 74.0 L 181.0 74.0 L 181.0 74.0 L 181.0 75.0 L 181.0 75.0 L 181.0 76.0 L 181.0 77.0 L 181.0 78.0 L 181.0 79.0 L 181.0 81.0 L 181.0 83.0 L 181.0 85.0 L 181.0 89.0 L 181.0 93.0 L 181.0 98.0 L 181.0 103.0 L 180.0 108.0 L 180.0 114.0 L 180.0 119.0 L 180.0 123.0 L 179.0 128.0 L 179.0 132.0 L 179.0 135.0 L 178.0 139.0 L 178.0 142.0 L 178.0 144.0 L 178.0 146.0 L 178.0 148.0 L 177.0 150.0 L 177.0 151.0 L 177.0 151.0 " stroke="black" fill="none" stroke-width="5.0" stroke-linecap="round" stroke-linejoin="round" />
<path d="M 153.0 156.0 L 153.0 156.0 L 153.0 156.0 L 153.0 156.0 L 152.0 156.0 L 152.0 156.0 L 152.0 156.0 L 152.0 157.0 L 152.0 157.0 L 152.0 157.0 L 152.0 157.0 L 152.0 157.0 L 152.0 157.0 L 152.0 157.0 L 152.0 157.0 L 152.0 157.0 L 153.0 157.0 L 153.0 157.0 L 154.0 157.0 L 155.0 157.0 L 156.0 157.0 L 157.0 157.0 L 159.0 157.0 L 160.0 157.0 L 162.0 157.0 L 164.0 157.0 L 166.0 157.0 L 168.0 157.0 L 170.0 157.0 L 172.0 157.0 L 174.0 156.0 L 176.0 156.0 L 178.0 156.0 L 179.0 156.0 L 181.0 156.0 L 182.0 156.0 L 184.0 156.0 L 185.0 156.0 L 186.0 155.0 L 187.0 155.0 L 188.0 155.0 L 189.0 155.0 L 189.0 155.0 L 190.0 155.0 L 191.0 155.0 L 191.0 155.0 L 192.0 155.0 L 192.0 155.0 L 193.0 155.0 L 193.0 155.0 L 194.0 155.0 L 195.0 155.0 L 196.0 155.0 L 196.0 155.0 L 197.0 155.0 L 198.0 155.0 L 199.0 155.0 L 200.0 155.0 L 201.0 155.0 L 202.0 155.0 L 202.0 155.0 L 203.0 155.0 L 204.0 155.0 L 205.0 155.0 L 206.0 155.0 L 207.0 155.0 L 209.0 155.0 L 209.0 155.0 L 210.0 155.0 L 212.0 155.0 L 212.0 155.0 L 214.0 155.0 L 214.0 155.0 L 215.0 155.0 L 216.0 155.0 L 217.0 155.0 L 218.0 155.0 L 219.0 155.0 L 220.0 155.0 L 221.0 155.0 L 221.0 155.0 L 222.0 155.0 L 222.0 155.0 L 223.0 155.0 L 223.0 155.0 L 223.0 155.0 L 223.0 155.0 L 223.0 156.0 L 223.0 156.0 L 223.0 156.0 L 223.0 157.0 L 223.0 157.0 L 223.0 157.0 L 223.0 157.0 L 223.0 158.0 L 223.0 158.0 L 223.0 159.0 L 223.0 159.0 L 222.0 160.0 L 222.0 161.0 L 221.0 162.0 L 221.0 162.0 L 220.0 164.0 L 220.0 165.0 L 219.0 166.0 L 218.0 167.0 L 218.0 168.0 L 217.0 169.0 L 216.0 170.0 L 216.0 171.0 L 215.0 172.0 L 214.0 173.0 L 213.0 175.0 L 211.0 176.0 L 210.0 178.0 L 209.0 179.0 L 208.0 181.0 L 207.0 182.0 L 205.0 184.0 L 204.0 185.0 L 203.0 186.0 L 202.0 188.0 L 201.0 189.0 L 200.0 190.0 L 199.0 192.0 L 198.0 193.0 L 197.0 194.0 L 196.0 195.0 L 195.0 197.0 L 195.0 198.0 L 194.0 199.0 L 194.0 200.0 L 193.0 200.0 L 193.0 201.0 L 193.0 202.0 L 192.0 203.0 L 192.0 204.0 L 191.0 205.0 L 191.0 206.0 L 190.0 207.0 L 190.0 208.0 L 189.0 209.0 L 189.0 209.0 L 189.0 210.0 L 188.0 211.0 L 188.0 212.0 L 187.0 213.0 L 186.0 213.0 L 186.0 214.0 L 185.0 215.0 L 184.0 216.0 L 184.0 217.0 L 183.0 218.0 L 182.0 218.0 L 182.0 219.0 L 181.0 220.0 L 180.0 221.0 L 180.0 221.0 L 179.0 222.0 L 178.0 223.0 L 177.0 224.0 L 176.0 225.0 L 176.0 226.0 L 175.0 226.0 L 174.0 227.0 L 173.0 228.0 L 172.0 229.0 L 171.0 230.0 L 170.0 230.0 L 169.0 231.0 L 168.0 232.0 L 167.0 232.0 L 166.0 233.0 L 164.0 234.0 L 163.0 234.0 L 162.0 235.0 L 160.0 236.0 L 159.0 237.0 L 158.0 237.0 L 157.0 238.0 L 156.0 239.0 L 155.0 239.0 L 153.0 240.0 L 152.0 240.0 L 151.0 241.0 L 150.0 242.0 L 149.0 242.0 L 148.0 242.0 L 147.0 242.0 " stroke="black" fill="none" stroke-width="5.0" stroke-linecap="round" stroke-linejoin="round" />
<path d="M 155.0 158.0 L 155.0 158.0 L 155.0 158.0 L 155.0 158.0 L 155.0 158.0 L 155.0 158.0 L 155.0 159.0 L 155.0 159.0 L 155.0 159.0 L 155.0 160.0 L 155.0 160.0 L 155.0 161.0 L 155.0 162.0 L 155.0 164.0 L 155.0 166.0 L 155.0 168.0 L 156.0 171.0 L 156.0 173.0 L 157.0 176.0 L 158.0 179.0 L 159.0 181.0 L 160.0 184.0 L 161.0 186.0 L 163.0 188.0 L 164.0 191.0 L 165.0 192.0 L 166.0 194.0 L 168.0 196.0 L 169.0 197.0 L 170.0 199.0 L 171.0 201.0 L 172.0 202.0 L 173.0 203.0 L 174.0 205.0 L 175.0 206.0 L 176.0 207.0 L 177.0 208.0 L 177.0 209.0 L 178.0 210.0 L 178.0 211.0 L 179.0 212.0 L 180.0 213.0 L 180.0 214.0 L 181.0 215.0 L 182.0 216.0 L 182.0 217.0 L 183.0 218.0 L 184.0 218.0 L 184.0 219.0 L 185.0 220.0 L 186.0 221.0 L 186.0 222.0 L 187.0 223.0 L 188.0 223.0 L 189.0 224.0 L 189.0 225.0 L 190.0 226.0 L 191.0 227.0 L 191.0 228.0 L 192.0 229.0 L 193.0 230.0 L 193.0 230.0 L 194.0 231.0 L 194.0 232.0 L 195.0 233.0 L 196.0 234.0 L 197.0 235.0 L 198.0 236.0 L 200.0 236.0 L 201.0 237.0 L 203.0 238.0 L 205.0 239.0 L 208.0 240.0 L 210.0 241.0 L 213.0 243.0 L 216.0 244.0 L 219.0 245.0 L 222.0 246.0 L 225.0 247.0 L 227.0 249.0 L 229.0 250.0 L 231.0 251.0 L 233.0 252.0 L 234.0 253.0 L 235.0 253.0 L 236.0 254.0 L 236.0 254.0 L 237.0 254.0 L 237.0 254.0 L 237.0 254.0 L 237.0 254.0 L 237.0 254.0 L 237.0 253.0 " stroke="black" fill="none" stroke-width="5.0" stroke-linecap="round" stroke-linejoin="round" />
</svg>