<svg xmlns="http://www.w3.org/2000/svg" width="300" height="300" viewBox="0 0 300 300">
<path d="M 105.0 69.0 L 105.0 69.0 L 105.0 69.0 L 105.0 69.0 L 104.0 70.0 L 104.0 71.0 L 104.0 73.0 L 104.0 74.0 L 104.0 77.0 L 104.0 80.0 L 104.0 83.0 L 104.0 88.0 L 105.0 93.0 L 105.0 98.0 L 106.0 104.0 L 107.0 108.0 L 107.0 112.0 L 108.0 115.0 " stroke="black" fill="none" stroke-width="5.0" stroke-linecap="round" stroke-linejoin="round" />
<path d="M 72.0 89.0 L 72.0 89.0 L 71.0 89.0 L 71.0 89.0 L 70.0 89.0 L 70.0 89.0 L 70.0 89.0 L 70.0 89.0 L 70.0 89.0 L 70.0 89.0 L 72.0 89.0 L 74.0 89.0 L 78.0 88.0 L 82.0 88.0 L 87.0 88.0 L 94.0 88.0 L 101.0 88.0 L 108.0 89.0 L 115.0 89.0 L 123.0 89.0 L 132.0 88.0 L 138.0 88.0 L 141.0 88.0 " stroke="black" fill="none" stroke-width="5.0" stroke-linecap="round" stroke-linejoin="round" />
<path d="M 164.0 92.0 L 164.0 92.0 L 163.0 92.0 L 162.0 92.0 L 162.0 92.0 L 161.0 92.0 L 161.0 92.0 L 161.0 92.0 L 161.0 91.0 L 161.0 91.0 L 162.0 91.0 L 164.0 91.0 L 166.0 91.0 L 169.0 91.0 L 173.0 91.0 L 177.0 91.0 L 181.0 91.0 L 186.0 91.0 L 190.0 91.0 L 195.0 91.0 L 199.0 91.0 L 203.0 91.0 L 207.0 91.0 L 210.0 91.0 L 214.0 91.0 L 216.0 91.0 L 219.0 91.0 L 220.0 91.0 L 220.0 91.0 " stroke="black" fill="none" stroke-width="5.0" stroke-linecap="round" stroke-linejoin="round" />
<path d="M 194.0 70.0 L 194.0 70.0 L 194.0 70.0 L 194.0 70.0 L 194.0 70.0 L 193.0 70.0 L 193.0 70.0 L 193.0 71.0 L 193.0 73.0 L 193.0 76.0 L 193.0 80.0 L 193.0 85.0 L 192.0 92.0 L 191.0 99.0 L 190.0 106.0 L 189.0 113.0 " stroke="black" fill="none" stroke-width="5.0" stroke-linecap="round" stroke-linejoin="round" />
<path d="M 148.0 119.0 L 148.0 119.0 L 148.0 118.0 L 147.0 117.0 L 147.0 117.0 L 147.0 116.0 L 147.0 116.0 L 147.0 116.0 L 147.0 117.0 L 147.0 119.0 L 148.0 121.0 L 149.0 125.0 L 150.0 129.0 L 152.0 133.0 L 153.0 137.0 L 155.0 141.0 L 156.0 142.0 " stroke="black" fill="none" stroke-width="5.0" stroke-linecap="round" stroke-linejoin="round" />
<path d="M 68.0 148.0 L 68.0 148.0 L 68.0 148.0 L 68.0 148.0 L 67.0 148.0 L 67.0 148.0 L 66.0 148.0 L 66.0 148.0 L 66.0 148.0 L 66.0 148.0 L 66.0 148.0 L 66.0 148.0 L 66.0 148.0 L 66.0 148.0 L 66.0 148.0 L 66.0 148.0 L 66.0 148.0 L 66.0 148.0 L 66.0 148.0 L 67.0 148.0 L 67.0 148.0 L 68.0 148.0 L 69.0 148.0 L 69.0 148.0 L 70.0 148.0 L 71.0 148.0 L 72.0 148.0 L 73.0 148.0 L 74.0 148.0 L 75.0 148.0 L 76.0 148.0 L 77.0 148.0 L 78.0 148.0 L 79.0 148.0 L 80.0 148.0 L 81.0 148.0 L 82.0 148.0 L 83.0 148.0 L 84.0 148.0 L 85.0 148.0 L 86.0 148.0 L 87.0 148.0 L 88.0 148.0 L 89.0 148.0 L 91.0 148.0 L 92.0 148.0 L 93.0 148.0 L 94.0 148.0 L 95.0 148.0 L 96.0 148.0 L 97.0 148.0 L 98.0 148.0 L 100.0 148.0 L 101.0 148.0 L 102.0 148.0 L 103.0 148.0 L 104.0 148.0 L 105.0 148.0 L 105.0 148.0 L 106.0 148.0 L 107.0 148.0 L 108.0 148.0 L 109.0 148.0 L 109.0 147.0 L 110.0 147.0 L 111.0 147.0 L 111.0 147.0 L 112.0 147.0 L 113.0 147.0 L 114.0 147.0 L 115.0 147.0 L 116.0 147.0 L 117.0 147.0 L 118.0 146.0 L 119.0 146.0 L 120.0 146.0 L 121.0 146.0 L 123.0 146.0 L 124.0 146.0 L 125.0 146.0 L 126.0 145.0 L 128.0 145.0 L 129.0 145.0 L 130.0 145.0 L 131.0 145.0 L 133.0 145.0 L 134.0 145.0 L 135.0 145.0 L 136.0 145.0 L 138.0 145.0 L 139.0 145.0 L 140.0 145.0 L 141.0 145.0 L 142.0 145.0 L 143.0 145.0 L 144.0 145.0 L 145.0 145.0 L 146.0 145.0 L 147.0 145.0 L 148.0 146.0 L 149.0 146.0 L 150.0 146.0 L 151.0 146.0 L 151.0 146.0 L 152.0 146.0 L 153.0 146.0 L 154.0 146.0 L 155.0 147.0 L 155.0 147.0 L 156.0 147.0 L 157.0 147.0 L 158.0 147.0 L 159.0 147.0 L 160.0 147.0 L 161.0 147.0 L 162.0 147.0 L 164.0 147.0 L 165.0 147.0 L 166.0 148.0 L 168.0 148.0 L 169.0 148.0 L 170.0 148.0 L 172.0 148.0 L 173.0 148.0 L 175.0 148.0 L 177.0 148.0 L 178.0 148.0 L 179.0 148.0 L 181.0 148.0 L 182.0 148.0 L 183.0 148.0 L 184.0 148.0 L 186.0 149.0 L 187.0 149.0 L 188.0 149.0 L 189.0 149.0 L 190.0 149.0 L 191.0 149.0 L 193.0 150.0 L 194.0 150.0 L 195.0 150.0 L 196.0 150.0 L 197.0 150.0 L 198.0 150.0 L 199.0 150.0 L 200.0 150.0 L 201.0 150.0 L 202.0 150.0 L 203.0 150.0 L 204.0 150.0 L 205.0 150.0 L 207.0 150.0 L 208.0 150.0 L 209.0 150.0 L 210.0 150.0 L 212.0 150.0 L 213.0 150.0 L 214.0 150.0 L 215.0 150.0 L 216.0 150.0 L 218.0 150.0 L 219.0 150.0 L 220.0 150.0 L 221.0 150.0 L 222.0 150.0 " stroke="black" fill="none" stroke-width="5.0" stroke-linecap="round" stroke-linejoin="round" />
<path d="M 136.0 183.0 L 136.0 183.0 L 135.0 183.0 L 135.0 184.0 L 135.0 184.0 L 135.0 184.0 L 134.0 184.0 L 134.0 184.0 L 134.0 184.0 L 134.0 185.0 L 135.0 185.0 L 136.0 185.0 L 137.0 185.0 L 138.0 185.0 L 140.0 185.0 L 142.0 185.0 L 143.0 185.0 L 145.0 185.0 L 147.0 185.0 L 149.0 185.0 L 151.0 185.0 L 154.0 185.0 L 157.0 185.0 L 160.0 185.0 L 163.0 185.0 L 166.0 185.0 L 170.0 185.0 L 173.0 185.0 L 176.0 185.0 L 178.0 185.0 L 181.0 185.0 L 184.0 185.0 L 186.0 185.0 L 188.0 185.0 L 189.0 184.0 L 191.0 184.0 L 192.0 184.0 L 193.0 184.0 L 194.0 184.0 L 195.0 184.0 L 196.0 184.0 L 196.0 184.0 L 197.0 185.0 L 198.0 185.0 L 199.0 185.0 L 200.0 185.0 L 200.0 186.0 L 201.0 186.0 L 202.0 186.0 L 202.0 186.0 L 202.0 186.0 L 203.0 187.0 L 203.0 187.0 L 204.0 187.0 L 204.0 188.0 L 204.0 188.0 L 204.0 188.0 L 204.0 189.0 L 205.0 190.0 L 205.0 190.0 L 205.0 191.0 L 205.0 192.0 L 205.0 193.0 L 205.0 194.0 L 205.0 195.0 L 205.0 197.0 L 205.0 199.0 L 204.0 201.0 L 204.0 204.0 L 203.0 207.0 L 202.0 210.0 L 202.0 214.0 L 201.0 219.0 L 200.0 223.0 L 199.0 227.0 L 198.0 231.0 L 198.0 235.0 L 197.0 238.0 L 196.0 241.0 L 195.0 243.0 L 194.0 246.0 L 192.0 248.0 L 191.0 250.0 L 190.0 253.0 L 189.0 255.0 L 188.0 256.0 L 187.0 258.0 L 187.0 259.0 L 186.0 259.0 L 185.0 260.0 L 184.0 260.0 L 183.0 260.0 L 182.0 260.0 L 180.0 260.0 L 178.0 259.0 L 176.0 258.0 L 173.0 257.0 L 169.0 254.0 L 166.0 252.0 L 161.0 249.0 " stroke="black" fill="none" stroke-width="5.0" stroke-linecap="round" stroke-linejoin="round" />
<path d="M 134.0 152.0 L 134.0 152.0 L 134.0 152.0 L 135.0 152.0 L 135.0 151.0 L 136.0 151.0 L 136.0 151.0 L 136.0 151.0 L 136.0 152.0 L 136.0 153.0 L 136.0 154.0 L 136.0 156.0 L 136.0 158.0 L 136.0 160.0 L 135.0 163.0 L 134.0 166.0 L 133.0 169.0 L 131.0 173.0 L 130.0 177.0 L 128.0 182.0 L 126.0 186.0 L 124.0 191.0 L 122.0 195.0 L 120.0 199.0 L 118.0 203.0 L 116.0 207.0 L 113.0 211.0 L 110.0 215.0 L 107.0 220.0 L 104.0 225.0 L 101.0 230.0 L 97.0 234.0 L 93.0 238.0 L 88.0 241.0 L 83.0 243.0 L 79.0 245.0 L 75.0 246.0 L 72.0 247.0 L 70.0 247.0 " stroke="black" fill="none" stroke-width="5.0" stroke-linecap="round" stroke-linejoin="round" />
</svg>