<svg xmlns="http://www.w3.org/2000/svg" width="300" height="300" viewBox="0 0 300 300">
<path d="M 92.0 84.0 L 91.0 84.0 L 91.0 83.0 L 90.0 82.0 L 90.0 81.0 L 90.0 81.0 L 90.0 81.0 L 90.0 81.0 L 90.0 81.0 L 91.0 82.0 L 93.0 84.0 L 94.0 87.0 L 97.0 90.0 L 100.0 93.0 L 102.0 97.0 L 105.0 100.0 L 108.0 104.0 L 111.0 107.0 L 113.0 110.0 " stroke="black" fill="none" stroke-width="5.0" stroke-linecap="round" stroke-linejoin="round" />
<path d="M 211.0 77.0 L 211.0 77.0 L 211.0 77.0 L 210.0 77.0 L 210.0 78.0 L 209.0 80.0 L 207.0 82.0 L 205.0 86.0 L 202.0 91.0 L 198.0 98.0 L 195.0 105.0 L 192.0 111.0 " stroke="black" fill="none" stroke-width="5.0" stroke-linecap="round" stroke-linejoin="round" />
<path d="M 90.0 138.0 L 90.0 138.0 L 89.0 138.0 L 89.0 138.0 L 88.0 138.0 L 88.0 138.0 L 87.0 138.0 L 87.0 138.0 L 87.0 138.0 L 87.0 138.0 L 87.0 138.0 L 87.0 138.0 L 88.0 138.0 L 89.0 138.0 L 91.0 138.0 L 92.0 138.0 L 94.0 138.0 L 96.0 138.0 L 98.0 138.0 L 100.0 138.0 L 102.0 138.0 L 104.0 138.0 L 106.0 138.0 L 108.0 138.0 L 110.0 138.0 L 113.0 138.0 L 115.0 138.0 L 117.0 138.0 L 120.0 138.0 L 122.0 138.0 L 125.0 138.0 L 128.0 138.0 L 131.0 139.0 L 134.0 139.0 L 137.0 139.0 L 140.0 139.0 L 142.0 139.0 L 145.0 139.0 L 148.0 139.0 L 150.0 139.0 L 152.0 139.0 L 153.0 139.0 L 155.0 139.0 L 157.0 139.0 L 159.0 139.0 L 161.0 139.0 L 166.0 138.0 L 169.0 138.0 L 172.0 138.0 L 175.0 138.0 L 178.0 138.0 L 181.0 138.0 L 184.0 138.0 L 186.0 138.0 L 189.0 139.0 L 191.0 139.0 L 194.0 139.0 L 196.0 139.0 L 198.0 139.0 L 200.0 139.0 L 202.0 139.0 L 204.0 139.0 L 206.0 139.0 L 210.0 139.0 L 212.0 139.0 L 213.0 139.0 " stroke="black" fill="none" stroke-width="5.0" stroke-linecap="round" stroke-linejoin="round" />
<path d="M 70.0 186.0 L 70.0 186.0 L 70.0 186.0 L 70.0 186.0 L 70.0 186.0 L 70.0 186.0 L 70.0 186.0 L 70.0 186.0 L 70.0 186.0 L 71.0 186.0 L 72.0 186.0 L 73.0 185.0 L 75.0 185.0 L 77.0 185.0 L 79.0 185.0 L 83.0 185.0 L 86.0 185.0 L 89.0 185.0 L 93.0 185.0 L 96.0 185.0 L 100.0 185.0 L 103.0 185.0 L 105.0 185.0 L 107.0 185.0 L 109.0 185.0 L 111.0 185.0 L 113.0 185.0 L 115.0 185.0 L 117.0 185.0 L 119.0 185.0 L 122.0 185.0 L 125.0 185.0 L 127.0 185.0 L 131.0 185.0 L 133.0 185.0 L 136.0 185.0 L 139.0 185.0 L 141.0 185.0 L 143.0 185.0 L 146.0 185.0 L 147.0 185.0 L 149.0 185.0 L 150.0 185.0 L 151.0 185.0 L 152.0 185.0 L 154.0 185.0 L 155.0 185.0 L 156.0 185.0 L 157.0 185.0 L 158.0 184.0 L 159.0 184.0 L 161.0 184.0 L 162.0 184.0 L 163.0 184.0 L 165.0 184.0 L 166.0 184.0 L 167.0 184.0 L 169.0 184.0 L 170.0 184.0 L 172.0 184.0 L 174.0 185.0 L 175.0 185.0 L 177.0 185.0 L 179.0 186.0 L 180.0 186.0 L 182.0 186.0 L 184.0 187.0 L 185.0 187.0 L 187.0 187.0 L 189.0 188.0 L 191.0 188.0 L 192.0 188.0 L 194.0 188.0 L 196.0 188.0 L 198.0 188.0 L 200.0 188.0 L 202.0 188.0 L 204.0 188.0 L 206.0 188.0 L 208.0 188.0 L 210.0 188.0 L 212.0 188.0 L 213.0 189.0 L 214.0 189.0 L 215.0 190.0 L 216.0 190.0 L 217.0 191.0 L 218.0 192.0 L 218.0 193.0 L 218.0 193.0 " stroke="black" fill="none" stroke-width="5.0" stroke-linecap="round" stroke-linejoin="round" />
<path d="M 151.0 70.0 L 151.0 70.0 L 151.0 70.0 L 151.0 70.0 L 151.0 70.0 L 151.0 70.0 L 151.0 70.0 L 151.0 70.0 L 151.0 71.0 L 151.0 73.0 L 151.0 76.0 L 151.0 80.0 L 151.0 86.0 L 152.0 93.0 L 152.0 102.0 L 152.0 111.0 L 152.0 120.0 L 152.0 129.0 L 153.0 138.0 L 153.0 148.0 L 153.0 157.0 L 154.0 166.0 L 154.0 174.0 L 154.0 182.0 L 155.0 190.0 L 155.0 197.0 L 155.0 204.0 L 155.0 211.0 L 155.0 216.0 L 155.0 223.0 L 155.0 230.0 L 155.0 236.0 L 155.0 241.0 L 154.0 245.0 L 154.0 249.0 L 153.0 252.0 L 153.0 254.0 L 153.0 255.0 L 153.0 256.0 L 153.0 256.0 L 153.0 256.0 L 154.0 253.0 " stroke="black" fill="none" stroke-width="5.0" stroke-linecap="round" stroke-linejoin="round" />
</svg>