<svg xmlns="http://www.w3.org/2000/svg" width="300" height="300" viewBox="0 0 300 300">
<path d="M 133.0 78.0 L 133.0 78.0 L 133.0 78.0 L 133.0 78.0 L 132.0 78.0 L 132.0 78.0 L 132.0 78.0 L 132.0 78.0 L 132.0 78.0 L 132.0 78.0 L 132.0 78.0 L 132.0 78.0 L 132.0 78.0 L 132.0 78.0 L 132.0 78.0 L 133.0 78.0 L 133.0 78.0 L 134.0 78.0 L 135.0 78.0 L 136.0 78.0 L 137.0 78.0 L 138.0 79.0 L 139.0 79.0 L 140.0 79.0 L 141.0 79.0 L 143.0 79.0 L 144.0 79.0 L 145.0 79.0 L 146.0 79.0 L 147.0 79.0 L 148.0 79.0 L 149.0 79.0 L 150.0 79.0 L 151.0 79.0 L 152.0 79.0 L 153.0 79.0 L 153.0 79.0 L 154.0 79.0 L 155.0 79.0 L 156.0 79.0 L 157.0 79.0 L 158.0 79.0 L 160.0 79.0 L 161.0 79.0 L 162.0 79.0 L 163.0 79.0 L 164.0 79.0 L 166.0 79.0 L 167.0 79.0 L 168.0 79.0 L 169.0 79.0 L 171.0 79.0 L 172.0 79.0 L 173.0 79.0 L 174.0 79.0 L 175.0 79.0 L 176.0 79.0 L 177.0 79.0 L 178.0 79.0 L 179.0 79.0 L 180.0 79.0 L 181.0 79.0 L 182.0 79.0 L 182.0 79.0 L 183.0 79.0 L 184.0 79.0 L 185.0 79.0 L 186.0 79.0 L 187.0 79.0 L 188.0 80.0 L 189.0 80.0 L 189.0 80.0 L 190.0 80.0 L 191.0 80.0 L 192.0 80.0 L 193.0 80.0 L 194.0 80.0 L 194.0 80.0 L 195.0 80.0 L 196.0 80.0 L 197.0 80.0 L 198.0 80.0 L 198.0 80.0 L 199.0 80.0 L 200.0 80.0 L 200.0 80.0 L 201.0 81.0 L 202.0 81.0 L 203.0 81.0 L 203.0 81.0 L 204.0 81.0 L 205.0 81.0 L 206.0 81.0 L 207.0 82.0 L 208.0 82.0 L 209.0 82.0 L 209.0 82.0 L 210.0 82.0 L 211.0 82.0 L 212.0 82.0 L 212.0 82.0 L 213.0 83.0 L 214.0 83.0 L 214.0 83.0 L 215.0 83.0 L 216.0 83.0 L 216.0 83.0 L 217.0 83.0 L 217.0 83.0 L 218.0 83.0 L 218.0 84.0 L 218.0 84.0 L 218.0 84.0 L 219.0 84.0 L 219.0 84.0 L 219.0 84.0 L 219.0 84.0 L 219.0 84.0 L 219.0 84.0 L 218.0 84.0 L 218.0 85.0 L 217.0 85.0 L 216.0 85.0 L 215.0 86.0 L 214.0 86.0 L 212.0 87.0 L 211.0 88.0 L 209.0 89.0 L 208.0 89.0 L 206.0 90.0 L 204.0 91.0 L 202.0 93.0 L 200.0 94.0 L 199.0 95.0 L 197.0 97.0 L 196.0 98.0 L 194.0 99.0 L 193.0 101.0 L 192.0 102.0 L 191.0 103.0 L 190.0 103.0 L 189.0 104.0 L 189.0 104.0 " stroke="black" fill="none" stroke-width="5.0" stroke-linecap="round" stroke-linejoin="round" />
<path d="M 153.0 101.0 L 153.0 101.0 L 153.0 101.0 L 153.0 101.0 L 153.0 101.0 L 153.0 101.0 L 153.0 101.0 L 153.0 101.0 L 153.0 101.0 L 153.0 101.0 L 153.0 101.0 L 154.0 101.0 L 156.0 101.0 L 158.0 101.0 L 160.0 102.0 L 164.0 104.0 L 168.0 105.0 L 173.0 107.0 L 178.0 109.0 L 183.0 110.0 L 187.0 111.0 L 190.0 112.0 L 193.0 113.0 L 195.0 114.0 L 196.0 115.0 L 197.0 115.0 L 197.0 116.0 " stroke="black" fill="none" stroke-width="5.0" stroke-linecap="round" stroke-linejoin="round" />
<path d="M 128.0 126.0 L 128.0 126.0 L 128.0 126.0 L 128.0 126.0 L 128.0 126.0 L 128.0 126.0 L 128.0 127.0 L 128.0 127.0 L 128.0 127.0 L 128.0 128.0 L 128.0 129.0 L 128.0 130.0 L 128.0 131.0 L 128.0 133.0 L 128.0 136.0 L 128.0 139.0 L 128.0 142.0 L 129.0 146.0 L 129.0 149.0 L 129.0 153.0 L 130.0 156.0 L 130.0 160.0 L 130.0 163.0 L 130.0 167.0 L 130.0 170.0 L 130.0 174.0 L 130.0 177.0 L 130.0 180.0 L 130.0 184.0 L 130.0 187.0 L 131.0 190.0 L 131.0 193.0 L 131.0 196.0 L 131.0 199.0 L 132.0 202.0 L 132.0 206.0 L 132.0 208.0 L 132.0 210.0 L 132.0 212.0 L 132.0 213.0 L 132.0 214.0 L 132.0 214.0 L 132.0 214.0 " stroke="black" fill="none" stroke-width="5.0" stroke-linecap="round" stroke-linejoin="round" />
<path d="M 133.0 126.0 L 133.0 126.0 L 132.0 126.0 L 132.0 126.0 L 132.0 126.0 L 131.0 126.0 L 131.0 126.0 L 131.0 126.0 L 131.0 126.0 L 131.0 126.0 L 131.0 126.0 L 132.0 126.0 L 132.0 126.0 L 133.0 126.0 L 134.0 126.0 L 135.0 126.0 L 136.0 126.0 L 137.0 126.0 L 138.0 126.0 L 139.0 126.0 L 140.0 126.0 L 141.0 126.0 L 142.0 126.0 L 143.0 126.0 L 144.0 126.0 L 145.0 126.0 L 146.0 126.0 L 147.0 126.0 L 148.0 126.0 L 149.0 126.0 L 150.0 126.0 L 151.0 126.0 L 153.0 126.0 L 154.0 126.0 L 155.0 126.0 L 156.0 126.0 L 157.0 126.0 L 158.0 126.0 L 159.0 126.0 L 160.0 126.0 L 161.0 126.0 L 162.0 126.0 L 163.0 126.0 L 164.0 126.0 L 165.0 126.0 L 166.0 126.0 L 168.0 126.0 L 169.0 126.0 L 170.0 126.0 L 171.0 126.0 L 172.0 126.0 L 174.0 126.0 L 175.0 126.0 L 176.0 126.0 L 177.0 125.0 L 178.0 125.0 L 179.0 125.0 L 180.0 125.0 L 181.0 125.0 L 183.0 125.0 L 184.0 125.0 L 184.0 125.0 L 185.0 125.0 L 187.0 124.0 L 187.0 124.0 L 189.0 124.0 L 189.0 124.0 L 190.0 124.0 L 191.0 124.0 L 192.0 124.0 L 193.0 124.0 L 194.0 124.0 L 195.0 124.0 L 196.0 124.0 L 196.0 124.0 L 197.0 124.0 L 198.0 124.0 L 198.0 124.0 L 199.0 124.0 L 200.0 124.0 L 200.0 124.0 L 201.0 124.0 L 202.0 124.0 L 203.0 124.0 L 203.0 124.0 L 204.0 124.0 L 205.0 124.0 L 206.0 124.0 L 206.0 124.0 L 207.0 124.0 L 208.0 124.0 L 209.0 124.0 L 210.0 124.0 L 211.0 124.0 L 212.0 124.0 L 213.0 124.0 L 214.0 124.0 L 215.0 124.0 L 216.0 124.0 L 217.0 124.0 L 218.0 124.0 L 219.0 124.0 L 219.0 124.0 L 220.0 124.0 L 221.0 124.0 L 222.0 124.0 L 223.0 124.0 L 224.0 124.0 L 225.0 124.0 L 226.0 124.0 L 227.0 124.0 L 227.0 124.0 L 228.0 124.0 L 229.0 124.0 L 229.0 124.0 L 230.0 124.0 L 230.0 124.0 L 230.0 124.0 L 231.0 124.0 L 231.0 124.0 L 231.0 124.0 L 231.0 125.0 L 232.0 125.0 L 232.0 125.0 L 232.0 126.0 L 232.0 127.0 L 232.0 128.0 L 232.0 128.0 L 232.0 129.0 L 232.0 130.0 L 232.0 132.0 L 232.0 133.0 L 232.0 135.0 L 232.0 137.0 L 232.0 139.0 L 232.0 141.0 L 232.0 144.0 L 232.0 147.0 L 232.0 149.0 L 232.0 152.0 L 232.0 154.0 L 232.0 156.0 L 232.0 158.0 L 232.0 160.0 L 232.0 162.0 L 233.0 164.0 L 233.0 166.0 L 233.0 168.0 L 233.0 170.0 L 233.0 173.0 L 233.0 175.0 L 233.0 177.0 L 233.0 179.0 L 233.0 181.0 L 233.0 183.0 L 233.0 186.0 L 233.0 188.0 L 233.0 190.0 L 233.0 192.0 L 233.0 194.0 L 233.0 196.0 L 232.0 198.0 L 232.0 200.0 L 232.0 202.0 L 232.0 204.0 L 232.0 206.0 L 231.0 208.0 L 231.0 209.0 L 231.0 211.0 L 231.0 212.0 L 231.0 213.0 L 231.0 214.0 L 230.0 215.0 L 230.0 216.0 L 230.0 217.0 L 230.0 217.0 L 230.0 218.0 L 230.0 219.0 L 229.0 219.0 L 229.0 219.0 L 229.0 220.0 L 229.0 220.0 L 229.0 220.0 L 228.0 220.0 L 228.0 220.0 L 227.0 220.0 L 227.0 220.0 L 226.0 220.0 L 225.0 220.0 L 225.0 220.0 L 224.0 220.0 L 223.0 220.0 L 222.0 220.0 L 220.0 220.0 L 218.0 219.0 L 215.0 218.0 L 211.0 216.0 L 209.0 214.0 " stroke="black" fill="none" stroke-width="5.0" stroke-linecap="round" stroke-linejoin="round" />
<path d="M 138.0 157.0 L 138.0 157.0 L 138.0 157.0 L 138.0 157.0 L 138.0 157.0 L 138.0 157.0 L 138.0 157.0 L 138.0 157.0 L 138.0 157.0 L 139.0 157.0 L 139.0 157.0 L 139.0 157.0 L 140.0 157.0 L 141.0 157.0 L 142.0 157.0 L 144.0 157.0 L 146.0 157.0 L 147.0 157.0 L 149.0 157.0 L 152.0 157.0 L 154.0 157.0 L 157.0 157.0 L 159.0 157.0 L 163.0 157.0 L 166.0 157.0 L 170.0 157.0 L 174.0 157.0 L 177.0 157.0 L 181.0 157.0 L 185.0 157.0 L 188.0 157.0 L 191.0 157.0 L 194.0 157.0 L 196.0 157.0 L 198.0 157.0 L 200.0 157.0 L 202.0 157.0 L 204.0 157.0 L 207.0 157.0 L 210.0 157.0 L 212.0 157.0 L 215.0 157.0 L 217.0 157.0 L 219.0 158.0 L 220.0 158.0 L 221.0 158.0 L 223.0 158.0 " stroke="black" fill="none" stroke-width="5.0" stroke-linecap="round" stroke-linejoin="round" />
<path d="M 140.0 186.0 L 140.0 186.0 L 140.0 186.0 L 141.0 187.0 L 141.0 187.0 L 142.0 187.0 L 143.0 188.0 L 144.0 188.0 L 145.0 188.0 L 147.0 188.0 L 148.0 187.0 L 151.0 187.0 L 154.0 187.0 L 157.0 186.0 L 161.0 186.0 L 166.0 186.0 L 171.0 185.0 L 176.0 185.0 L 182.0 185.0 L 187.0 185.0 L 191.0 184.0 L 196.0 184.0 L 199.0 184.0 L 202.0 184.0 L 205.0 184.0 L 209.0 184.0 L 212.0 184.0 L 215.0 184.0 L 217.0 184.0 L 219.0 184.0 L 221.0 184.0 L 222.0 184.0 L 222.0 184.0 L 223.0 184.0 " stroke="black" fill="none" stroke-width="5.0" stroke-linecap="round" stroke-linejoin="round" />
<path d="M 177.0 136.0 L 177.0 137.0 L 177.0 137.0 L 177.0 138.0 L 177.0 139.0 L 178.0 141.0 L 178.0 143.0 L 178.0 145.0 L 178.0 147.0 L 178.0 150.0 L 178.0 154.0 L 178.0 158.0 L 178.0 163.0 L 177.0 168.0 L 177.0 174.0 L 176.0 179.0 L 176.0 186.0 L 176.0 193.0 L 176.0 199.0 L 176.0 206.0 L 176.0 212.0 L 176.0 216.0 L 175.0 220.0 L 175.0 222.0 L 175.0 224.0 L 174.0 225.0 L 174.0 225.0 L 173.0 225.0 L 173.0 225.0 " stroke="black" fill="none" stroke-width="5.0" stroke-linecap="round" stroke-linejoin="round" />
<path d="M 69.0 76.0 L 69.0 76.0 L 68.0 76.0 L 68.0 76.0 L 67.0 76.0 L 67.0 76.0 L 66.0 76.0 L 66.0 76.0 L 66.0 76.0 L 66.0 76.0 L 66.0 77.0 L 67.0 78.0 L 68.0 79.0 L 69.0 80.0 L 71.0 82.0 L 73.0 85.0 L 75.0 88.0 L 77.0 91.0 L 79.0 94.0 L 82.0 98.0 L 84.0 101.0 L 86.0 104.0 L 88.0 106.0 L 90.0 108.0 L 92.0 109.0 " stroke="black" fill="none" stroke-width="5.0" stroke-linecap="round" stroke-linejoin="round" />
<path d="M 63.0 125.0 L 63.0 125.0 L 63.0 125.0 L 63.0 125.0 L 63.0 125.0 L 63.0 125.0 L 63.0 125.0 L 63.0 125.0 L 63.0 125.0 L 63.0 125.0 L 63.0 125.0 L 64.0 125.0 L 65.0 125.0 L 67.0 125.0 L 69.0 125.0 L 73.0 125.0 L 76.0 125.0 L 81.0 124.0 L 86.0 124.0 L 91.0 124.0 L 95.0 124.0 L 99.0 124.0 L 101.0 124.0 L 103.0 124.0 L 104.0 124.0 L 104.0 124.0 L 104.0 125.0 L 104.0 125.0 L 104.0 125.0 L 103.0 126.0 L 103.0 126.0 L 102.0 127.0 L 102.0 127.0 L 101.0 128.0 L 100.0 129.0 L 100.0 131.0 L 98.0 132.0 L 97.0 134.0 L 96.0 137.0 L 94.0 139.0 L 92.0 142.0 L 90.0 145.0 L 87.0 149.0 L 84.0 152.0 L 81.0 156.0 L 78.0 159.0 L 75.0 162.0 L 73.0 165.0 L 70.0 167.0 L 68.0 169.0 L 67.0 170.0 L 66.0 171.0 L 65.0 171.0 L 65.0 171.0 L 65.0 171.0 L 65.0 171.0 L 65.0 171.0 L 65.0 171.0 L 65.0 171.0 L 65.0 171.0 L 65.0 171.0 L 65.0 171.0 L 65.0 171.0 L 65.0 171.0 L 66.0 171.0 L 67.0 171.0 L 68.0 171.0 L 69.0 171.0 L 70.0 171.0 L 72.0 171.0 L 74.0 170.0 L 77.0 170.0 L 80.0 170.0 L 84.0 170.0 L 87.0 169.0 L 91.0 169.0 L 95.0 168.0 L 98.0 168.0 L 100.0 168.0 L 102.0 168.0 L 103.0 168.0 L 104.0 168.0 L 105.0 169.0 L 105.0 169.0 L 105.0 170.0 L 105.0 171.0 L 105.0 172.0 L 105.0 173.0 L 105.0 173.0 L 105.0 174.0 L 105.0 175.0 L 105.0 176.0 L 105.0 177.0 L 105.0 178.0 L 105.0 179.0 L 105.0 180.0 L 105.0 181.0 L 105.0 182.0 L 105.0 183.0 L 104.0 185.0 L 104.0 186.0 L 104.0 187.0 L 104.0 189.0 L 104.0 190.0 L 103.0 191.0 L 103.0 193.0 L 103.0 194.0 L 102.0 196.0 L 102.0 198.0 L 101.0 200.0 L 100.0 202.0 L 100.0 204.0 L 99.0 207.0 L 98.0 209.0 L 98.0 211.0 L 97.0 213.0 L 96.0 215.0 L 95.0 217.0 L 94.0 219.0 L 94.0 221.0 L 93.0 223.0 L 91.0 226.0 L 90.0 228.0 L 88.0 231.0 L 87.0 233.0 L 85.0 236.0 L 83.0 238.0 L 81.0 240.0 L 78.0 242.0 L 76.0 244.0 L 74.0 246.0 L 72.0 247.0 L 69.0 249.0 L 67.0 251.0 L 65.0 253.0 L 63.0 255.0 L 62.0 256.0 L 61.0 257.0 " stroke="black" fill="none" stroke-width="5.0" stroke-linecap="round" stroke-linejoin="round" />
<path d="M 90.0 224.0 L 90.0 224.0 L 90.0 225.0 L 89.0 225.0 L 89.0 225.0 L 89.0 226.0 L 89.0 226.0 L 89.0 227.0 L 89.0 227.0 L 89.0 227.0 L 89.0 228.0 L 90.0 228.0 L 90.0 229.0 L 91.0 229.0 L 92.0 230.0 L 92.0 230.0 L 93.0 231.0 L 94.0 231.0 L 94.0 232.0 L 95.0 232.0 L 96.0 233.0 L 96.0 234.0 L 97.0 234.0 L 98.0 235.0 L 98.0 236.0 L 99.0 236.0 L 100.0 237.0 L 100.0 237.0 L 101.0 238.0 L 101.0 238.0 L 102.0 239.0 L 103.0 239.0 L 103.0 240.0 L 104.0 240.0 L 104.0 241.0 L 105.0 241.0 L 105.0 242.0 L 106.0 242.0 L 107.0 243.0 L 107.0 243.0 L 108.0 243.0 L 109.0 244.0 L 109.0 244.0 L 110.0 244.0 L 111.0 245.0 L 112.0 245.0 L 113.0 245.0 L 113.0 246.0 L 114.0 246.0 L 115.0 246.0 L 116.0 246.0 L 117.0 247.0 L 119.0 247.0 L 120.0 247.0 L 121.0 247.0 L 123.0 247.0 L 124.0 247.0 L 125.0 247.0 L 127.0 247.0 L 129.0 248.0 L 130.0 248.0 L 132.0 248.0 L 134.0 248.0 L 135.0 249.0 L 137.0 249.0 L 139.0 249.0 L 141.0 249.0 L 143.0 249.0 L 144.0 249.0 L 146.0 249.0 L 147.0 249.0 L 149.0 249.0 L 150.0 249.0 L 151.0 249.0 L 152.0 249.0 L 153.0 249.0 L 154.0 249.0 L 155.0 249.0 L 156.0 249.0 L 158.0 249.0 L 159.0 249.0 L 160.0 249.0 L 162.0 249.0 L 163.0 249.0 L 165.0 249.0 L 167.0 249.0 L 168.0 249.0 L 170.0 249.0 L 172.0 249.0 L 174.0 249.0 L 175.0 249.0 L 177.0 249.0 L 179.0 249.0 L 180.0 249.0 L 182.0 249.0 L 183.0 249.0 L 185.0 249.0 L 186.0 249.0 L 188.0 249.0 L 189.0 249.0 L 190.0 249.0 L 191.0 249.0 L 192.0 249.0 L 193.0 249.0 L 194.0 249.0 L 195.0 249.0 L 196.0 249.0 L 196.0 249.0 L 197.0 249.0 L 198.0 248.0 L 199.0 248.0 L 199.0 248.0 L 200.0 248.0 L 201.0 248.0 L 202.0 248.0 L 203.0 248.0 L 204.0 248.0 L 205.0 248.0 L 206.0 248.0 L 207.0 248.0 L 208.0 248.0 L 209.0 248.0 L 210.0 248.0 L 211.0 248.0 L 212.0 248.0 L 213.0 248.0 L 214.0 248.0 L 215.0 248.0 L 216.0 248.0 L 217.0 247.0 L 218.0 247.0 L 219.0 247.0 L 220.0 247.0 L 221.0 247.0 L 222.0 247.0 L 223.0 247.0 L 224.0 246.0 L 224.0 246.0 L 225.0 246.0 L 226.0 246.0 L 227.0 246.0 " stroke="black" fill="none" stroke-width="5.0" stroke-linecap="round" stroke-linejoin="round" />
</svg>