<svg xmlns="http://www.w3.org/2000/svg" width="300" height="300" viewBox="0 0 300 300">
<path d="M 109.0 108.0 L 109.0 108.0 L 108.0 108.0 L 108.0 108.0 L 108.0 108.0 L 108.0 108.0 L 108.0 108.0 L 108.0 108.0 L 108.0 107.0 L 108.0 107.0 L 108.0 107.0 L 108.0 107.0 L 108.0 107.0 L 108.0 106.0 L 108.0 106.0 L 108.0 106.0 L 108.0 106.0 L 108.0 106.0 L 108.0 106.0 L 108.0 106.0 L 108.0 106.0 L 108.0 106.0 L 109.0 106.0 L 109.0 106.0 L 109.0 105.0 L 109.0 105.0 L 109.0 105.0 L 109.0 105.0 L 109.0 105.0 L 110.0 105.0 L 110.0 105.0 L 110.0 105.0 L 110.0 105.0 L 110.0 105.0 L 110.0 104.0 L 110.0 104.0 L 111.0 104.0 L 111.0 104.0 L 111.0 103.0 L 112.0 103.0 L 112.0 103.0 L 112.0 103.0 L 113.0 102.0 L 113.0 102.0 L 114.0 102.0 L 114.0 101.0 L 115.0 101.0 L 115.0 100.0 L 116.0 100.0 L 116.0 100.0 L 116.0 99.0 L 118.0 98.0 L 118.0 98.0 L 119.0 97.0 L 119.0 97.0 L 120.0 96.0 L 120.0 96.0 L 121.0 96.0 L 121.0 95.0 L 121.0 95.0 L 122.0 95.0 L 123.0 94.0 L 123.0 94.0 L 123.0 94.0 L 124.0 94.0 L 124.0 93.0 L 125.0 93.0 L 125.0 93.0 L 125.0 93.0 L 126.0 93.0 L 126.0 92.0 L 127.0 92.0 L 127.0 92.0 L 128.0 92.0 L 128.0 92.0 L 129.0 92.0 L 130.0 91.0 L 130.0 91.0 L 131.0 91.0 L 131.0 91.0 L 132.0 91.0 L 133.0 91.0 L 133.0 91.0 L 134.0 91.0 L 135.0 91.0 L 135.0 91.0 L 136.0 91.0 L 137.0 91.0 L 137.0 91.0 L 138.0 91.0 L 139.0 91.0 L 139.0 91.0 L 140.0 90.0 L 141.0 90.0 L 141.0 90.0 L 142.0 90.0 L 143.0 90.0 L 143.0 90.0 L 144.0 90.0 L 145.0 90.0 L 145.0 90.0 L 146.0 90.0 L 147.0 90.0 L 147.0 90.0 L 148.0 90.0 L 149.0 90.0 L 149.0 90.0 L 150.0 90.0 L 150.0 90.0 L 151.0 90.0 L 152.0 90.0 L 152.0 90.0 L 153.0 90.0 L 153.0 90.0 L 154.0 90.0 L 154.0 90.0 L 155.0 90.0 L 155.0 90.0 L 156.0 90.0 L 156.0 90.0 L 157.0 91.0 L 157.0 91.0 L 158.0 91.0 L 158.0 91.0 L 159.0 91.0 L 159.0 91.0 L 160.0 92.0 L 160.0 92.0 L 160.0 92.0 L 161.0 92.0 L 161.0 93.0 L 162.0 93.0 L 162.0 93.0 L 163.0 93.0 L 164.0 94.0 L 164.0 94.0 L 165.0 95.0 L 166.0 95.0 L 166.0 95.0 L 167.0 96.0 L 168.0 96.0 L 168.0 97.0 L 169.0 97.0 L 170.0 97.0 L 170.0 98.0 L 171.0 98.0 L 172.0 98.0 L 173.0 99.0 L 173.0 99.0 L 174.0 100.0 L 175.0 100.0 L 175.0 100.0 L 176.0 100.0 L 177.0 101.0 L 177.0 101.0 L 178.0 102.0 L 179.0 102.0 L 179.0 102.0 L 180.0 102.0 L 180.0 103.0 L 181.0 103.0 L 181.0 104.0 L 182.0 104.0 L 183.0 104.0 L 183.0 105.0 L 184.0 105.0 L 184.0 106.0 L 184.0 106.0 L 185.0 107.0 L 185.0 107.0 L 186.0 108.0 L 186.0 109.0 L 187.0 109.0 L 187.0 110.0 L 187.0 110.0 L 188.0 111.0 L 188.0 111.0 L 188.0 112.0 L 188.0 112.0 L 189.0 113.0 L 189.0 114.0 L 189.0 114.0 L 189.0 115.0 L 189.0 116.0 L 189.0 116.0 L 189.0 117.0 L 189.0 118.0 L 189.0 118.0 L 189.0 119.0 L 189.0 119.0 L 189.0 120.0 L 189.0 120.0 L 189.0 121.0 L 189.0 121.0 L 189.0 122.0 L 189.0 123.0 L 189.0 123.0 L 189.0 124.0 L 189.0 125.0 L 189.0 125.0 L 189.0 126.0 L 189.0 127.0 L 189.0 127.0 L 188.0 128.0 L 188.0 129.0 L 188.0 129.0 L 188.0 130.0 L 187.0 131.0 L 187.0 131.0 L 187.0 132.0 L 187.0 133.0 L 187.0 133.0 L 186.0 134.0 L 186.0 134.0 L 185.0 135.0 L 185.0 136.0 L 185.0 136.0 L 184.0 137.0 L 184.0 138.0 L 183.0 138.0 L 182.0 139.0 L 182.0 140.0 L 181.0 141.0 L 180.0 141.0 L 179.0 142.0 L 178.0 143.0 L 177.0 143.0 L 177.0 144.0 L 176.0 145.0 L 175.0 145.0 L 174.0 146.0 L 173.0 147.0 L 172.0 147.0 L 171.0 148.0 L 170.0 149.0 L 169.0 149.0 L 168.0 150.0 L 167.0 150.0 L 166.0 151.0 L 165.0 151.0 L 164.0 152.0 L 163.0 152.0 L 162.0 153.0 L 161.0 154.0 L 160.0 154.0 L 159.0 155.0 L 158.0 156.0 L 158.0 157.0 L 157.0 158.0 L 156.0 159.0 L 155.0 160.0 L 155.0 161.0 L 154.0 162.0 L 154.0 163.0 L 153.0 164.0 L 153.0 165.0 L 152.0 166.0 L 152.0 167.0 L 152.0 168.0 L 151.0 169.0 L 151.0 170.0 L 151.0 172.0 L 151.0 173.0 L 151.0 174.0 L 150.0 176.0 L 150.0 178.0 L 150.0 179.0 L 150.0 181.0 L 150.0 182.0 L 150.0 184.0 L 150.0 186.0 L 150.0 187.0 L 150.0 188.0 L 150.0 189.0 L 150.0 190.0 L 150.0 191.0 L 150.0 191.0 " stroke="black" fill="none" stroke-width="5.0" stroke-linecap="round" stroke-linejoin="round" />
<path d="M 152.0 223.0 L 152.0 223.0 L 152.0 223.0 L 152.0 223.0 L 152.0 222.0 L 152.0 222.0 L 152.0 222.0 L 151.0 222.0 L 151.0 222.0 L 150.0 222.0 L 150.0 222.0 L 149.0 223.0 L 149.0 224.0 L 149.0 225.0 L 148.0 227.0 L 148.0 228.0 L 148.0 229.0 L 148.0 230.0 L 148.0 231.0 L 149.0 232.0 L 149.0 233.0 L 150.0 233.0 L 151.0 233.0 L 152.0 233.0 L 152.0 232.0 L 153.0 231.0 L 153.0 230.0 L 153.0 229.0 L 153.0 227.0 L 153.0 226.0 L 152.0 225.0 L 151.0 224.0 L 150.0 224.0 L 150.0 223.0 L 149.0 223.0 L 148.0 223.0 L 147.0 224.0 L 147.0 226.0 L 147.0 228.0 L 147.0 230.0 L 147.0 232.0 L 147.0 234.0 L 147.0 235.0 L 148.0 236.0 L 149.0 236.0 L 150.0 236.0 L 151.0 235.0 L 152.0 233.0 L 153.0 231.0 L 154.0 229.0 L 154.0 226.0 L 154.0 225.0 L 154.0 223.0 L 154.0 221.0 L 152.0 221.0 L 151.0 220.0 L 150.0 220.0 L 148.0 220.0 L 147.0 221.0 L 146.0 223.0 L 146.0 225.0 L 146.0 227.0 L 145.0 229.0 L 145.0 231.0 L 145.0 232.0 L 146.0 234.0 L 146.0 234.0 L 147.0 235.0 L 148.0 235.0 L 150.0 235.0 L 151.0 233.0 L 152.0 232.0 L 152.0 230.0 L 153.0 229.0 L 153.0 227.0 L 153.0 226.0 L 153.0 225.0 L 153.0 224.0 L 152.0 223.0 L 151.0 222.0 L 150.0 222.0 L 149.0 222.0 L 148.0 222.0 L 147.0 223.0 L 146.0 224.0 L 146.0 225.0 L 146.0 227.0 L 145.0 228.0 L 145.0 229.0 L 145.0 230.0 L 146.0 231.0 L 146.0 231.0 L 147.0 232.0 L 148.0 232.0 L 149.0 231.0 L 150.0 230.0 L 150.0 229.0 L 151.0 228.0 L 151.0 226.0 L 151.0 225.0 L 151.0 224.0 L 150.0 223.0 L 149.0 222.0 L 148.0 222.0 L 147.0 222.0 L 146.0 222.0 L 145.0 223.0 L 144.0 225.0 L 144.0 227.0 L 144.0 229.0 L 144.0 230.0 L 144.0 232.0 L 144.0 233.0 L 146.0 234.0 L 147.0 234.0 L 148.0 234.0 L 150.0 234.0 L 151.0 234.0 L 151.0 233.0 L 152.0 232.0 L 152.0 231.0 L 152.0 230.0 L 152.0 229.0 L 152.0 228.0 L 151.0 227.0 L 150.0 226.0 L 149.0 226.0 L 148.0 225.0 L 147.0 225.0 L 146.0 225.0 L 146.0 225.0 L 145.0 226.0 L 145.0 227.0 L 145.0 229.0 L 145.0 230.0 L 145.0 232.0 L 145.0 233.0 L 146.0 233.0 L 147.0 234.0 L 148.0 234.0 L 149.0 233.0 L 150.0 232.0 L 152.0 230.0 L 152.0 228.0 L 153.0 225.0 L 153.0 223.0 L 153.0 221.0 L 153.0 220.0 L 152.0 220.0 L 151.0 220.0 L 150.0 220.0 L 149.0 221.0 L 147.0 223.0 L 147.0 224.0 L 146.0 226.0 L 146.0 228.0 L 146.0 229.0 L 146.0 230.0 L 146.0 231.0 L 146.0 231.0 L 147.0 232.0 L 148.0 232.0 L 149.0 232.0 L 150.0 231.0 L 151.0 230.0 L 151.0 229.0 L 151.0 228.0 L 152.0 227.0 L 152.0 226.0 L 152.0 224.0 L 151.0 223.0 L 151.0 222.0 L 150.0 221.0 L 149.0 221.0 L 148.0 221.0 L 147.0 221.0 L 147.0 222.0 L 146.0 223.0 L 146.0 225.0 L 146.0 227.0 L 146.0 228.0 L 146.0 230.0 L 147.0 231.0 L 148.0 231.0 L 149.0 232.0 L 150.0 232.0 L 151.0 232.0 L 152.0 232.0 L 152.0 231.0 L 153.0 230.0 L 153.0 229.0 L 153.0 227.0 L 153.0 226.0 L 152.0 225.0 L 151.0 224.0 L 150.0 224.0 L 149.0 224.0 L 148.0 224.0 L 147.0 224.0 L 146.0 224.0 L 145.0 225.0 L 145.0 226.0 L 145.0 228.0 L 145.0 230.0 L 145.0 231.0 L 146.0 232.0 L 147.0 233.0 L 149.0 234.0 L 150.0 234.0 L 151.0 234.0 L 152.0 234.0 L 153.0 234.0 L 153.0 233.0 L 154.0 232.0 L 154.0 231.0 L 154.0 230.0 L 154.0 230.0 L 153.0 229.0 L 153.0 228.0 L 152.0 227.0 L 151.0 227.0 L 151.0 227.0 L 150.0 226.0 L 150.0 226.0 L 149.0 226.0 L 149.0 227.0 L 149.0 227.0 L 149.0 228.0 L 149.0 229.0 L 149.0 230.0 L 149.0 230.0 L 150.0 231.0 L 150.0 231.0 L 150.0 232.0 L 151.0 232.0 L 151.0 232.0 L 152.0 232.0 L 152.0 232.0 " stroke="black" fill="none" stroke-width="5.0" stroke-linecap="round" stroke-linejoin="round" />
</svg>