<svg xmlns="http://www.w3.org/2000/svg" width="300" height="300" viewBox="0 0 300 300">
<path d="M 146.0 74.0 L 146.0 74.0 L 145.0 73.0 L 144.0 73.0 L 144.0 72.0 L 144.0 71.0 L 143.0 71.0 L 143.0 71.0 L 143.0 71.0 L 143.0 71.0 L 143.0 72.0 L 144.0 73.0 L 145.0 75.0 L 146.0 77.0 L 147.0 79.0 L 148.0 81.0 L 149.0 83.0 L 150.0 84.0 L 151.0 86.0 L 152.0 87.0 " stroke="black" fill="none" stroke-width="5.0" stroke-linecap="round" stroke-linejoin="round" />
<path d="M 73.0 94.0 L 73.0 94.0 L 73.0 94.0 L 73.0 93.0 L 73.0 93.0 L 73.0 93.0 L 73.0 93.0 L 74.0 95.0 L 74.0 98.0 L 74.0 101.0 L 74.0 105.0 L 74.0 110.0 L 74.0 114.0 L 74.0 118.0 L 74.0 121.0 L 74.0 123.0 " stroke="black" fill="none" stroke-width="5.0" stroke-linecap="round" stroke-linejoin="round" />
<path d="M 75.0 93.0 L 75.0 93.0 L 75.0 93.0 L 75.0 93.0 L 76.0 92.0 L 76.0 92.0 L 76.0 92.0 L 76.0 92.0 L 76.0 92.0 L 76.0 92.0 L 76.0 92.0 L 76.0 92.0 L 76.0 92.0 L 76.0 92.0 L 76.0 92.0 L 77.0 92.0 L 77.0 91.0 L 77.0 91.0 L 78.0 91.0 L 78.0 91.0 L 79.0 91.0 L 79.0 91.0 L 80.0 91.0 L 81.0 91.0 L 82.0 91.0 L 83.0 91.0 L 84.0 91.0 L 85.0 91.0 L 86.0 91.0 L 87.0 91.0 L 89.0 91.0 L 90.0 91.0 L 91.0 91.0 L 92.0 91.0 L 93.0 91.0 L 94.0 91.0 L 96.0 91.0 L 97.0 91.0 L 98.0 91.0 L 99.0 91.0 L 100.0 91.0 L 101.0 91.0 L 103.0 91.0 L 103.0 90.0 L 104.0 90.0 L 105.0 90.0 L 106.0 90.0 L 107.0 90.0 L 107.0 90.0 L 108.0 90.0 L 108.0 90.0 L 109.0 90.0 L 110.0 90.0 L 110.0 90.0 L 111.0 90.0 L 111.0 90.0 L 112.0 90.0 L 112.0 90.0 L 113.0 90.0 L 113.0 90.0 L 114.0 90.0 L 115.0 90.0 L 115.0 90.0 L 116.0 90.0 L 117.0 90.0 L 118.0 90.0 L 119.0 90.0 L 119.0 90.0 L 120.0 90.0 L 121.0 90.0 L 123.0 90.0 L 124.0 90.0 L 125.0 90.0 L 126.0 90.0 L 127.0 90.0 L 129.0 90.0 L 130.0 89.0 L 131.0 89.0 L 133.0 89.0 L 134.0 89.0 L 135.0 89.0 L 136.0 89.0 L 137.0 89.0 L 138.0 89.0 L 139.0 89.0 L 140.0 89.0 L 141.0 89.0 L 141.0 89.0 L 142.0 89.0 L 143.0 89.0 L 144.0 89.0 L 145.0 89.0 L 145.0 89.0 L 146.0 89.0 L 147.0 89.0 L 147.0 89.0 L 148.0 89.0 L 149.0 89.0 L 149.0 89.0 L 150.0 89.0 L 151.0 89.0 L 151.0 89.0 L 152.0 89.0 L 153.0 89.0 L 153.0 89.0 L 154.0 89.0 L 154.0 89.0 L 155.0 89.0 L 156.0 89.0 L 156.0 89.0 L 157.0 89.0 L 157.0 89.0 L 158.0 89.0 L 158.0 89.0 L 159.0 89.0 L 160.0 89.0 L 161.0 89.0 L 162.0 89.0 L 164.0 89.0 L 165.0 89.0 L 166.0 89.0 L 168.0 89.0 L 169.0 89.0 L 171.0 89.0 L 172.0 89.0 L 173.0 89.0 L 175.0 89.0 L 176.0 89.0 L 177.0 89.0 L 179.0 89.0 L 180.0 89.0 L 180.0 89.0 L 182.0 89.0 L 182.0 89.0 L 183.0 90.0 L 184.0 90.0 L 184.0 90.0 L 185.0 90.0 L 186.0 90.0 L 187.0 90.0 L 187.0 91.0 L 188.0 91.0 L 189.0 91.0 L 189.0 91.0 L 190.0 91.0 L 191.0 91.0 L 191.0 91.0 L 192.0 91.0 L 193.0 91.0 L 193.0 91.0 L 194.0 91.0 L 195.0 91.0 L 195.0 91.0 L 196.0 91.0 L 197.0 91.0 L 198.0 91.0 L 198.0 91.0 L 199.0 91.0 L 200.0 91.0 L 201.0 91.0 L 202.0 91.0 L 203.0 91.0 L 204.0 91.0 L 205.0 91.0 L 205.0 91.0 L 207.0 91.0 L 208.0 91.0 L 209.0 91.0 L 210.0 91.0 L 212.0 90.0 L 213.0 90.0 L 214.0 90.0 L 216.0 90.0 L 217.0 90.0 L 218.0 90.0 L 220.0 90.0 L 221.0 89.0 L 222.0 89.0 L 223.0 89.0 L 224.0 89.0 L 225.0 89.0 L 226.0 89.0 L 227.0 89.0 L 227.0 89.0 L 228.0 89.0 L 228.0 89.0 L 229.0 89.0 L 229.0 89.0 L 230.0 89.0 L 230.0 89.0 L 230.0 89.0 L 231.0 89.0 L 231.0 89.0 L 232.0 89.0 L 232.0 89.0 L 232.0 89.0 L 232.0 89.0 L 233.0 90.0 L 233.0 90.0 L 233.0 90.0 L 233.0 90.0 L 233.0 90.0 L 233.0 90.0 L 233.0 90.0 L 234.0 90.0 L 234.0 91.0 L 234.0 91.0 L 234.0 91.0 L 234.0 91.0 L 234.0 91.0 L 234.0 91.0 L 234.0 92.0 L 234.0 92.0 L 234.0 92.0 L 234.0 93.0 L 234.0 93.0 L 234.0 94.0 L 234.0 95.0 L 234.0 95.0 L 234.0 96.0 L 234.0 97.0 L 234.0 98.0 L 234.0 99.0 L 234.0 100.0 L 234.0 100.0 L 234.0 101.0 L 234.0 102.0 L 234.0 103.0 L 234.0 104.0 L 234.0 105.0 L 234.0 105.0 L 233.0 106.0 L 233.0 107.0 L 233.0 108.0 L 233.0 109.0 L 233.0 110.0 L 233.0 110.0 L 233.0 111.0 L 233.0 112.0 L 232.0 113.0 L 232.0 114.0 L 232.0 115.0 L 232.0 116.0 L 232.0 118.0 L 232.0 118.0 L 232.0 120.0 L 232.0 121.0 L 232.0 121.0 L 232.0 122.0 L 232.0 123.0 L 231.0 124.0 L 231.0 125.0 L 231.0 126.0 L 230.0 127.0 L 230.0 127.0 " stroke="black" fill="none" stroke-width="5.0" stroke-linecap="round" stroke-linejoin="round" />
<path d="M 102.0 127.0 L 102.0 127.0 L 102.0 127.0 L 102.0 126.0 L 102.0 126.0 L 102.0 125.0 L 102.0 125.0 L 102.0 125.0 L 102.0 125.0 L 102.0 127.0 L 102.0 129.0 L 102.0 132.0 L 102.0 137.0 L 102.0 141.0 L 102.0 145.0 L 102.0 150.0 L 102.0 153.0 L 102.0 156.0 L 102.0 158.0 L 103.0 159.0 L 103.0 159.0 L 103.0 159.0 L 104.0 159.0 " stroke="black" fill="none" stroke-width="5.0" stroke-linecap="round" stroke-linejoin="round" />
<path d="M 106.0 126.0 L 106.0 126.0 L 106.0 126.0 L 105.0 126.0 L 105.0 126.0 L 105.0 126.0 L 104.0 126.0 L 104.0 126.0 L 104.0 126.0 L 104.0 126.0 L 104.0 126.0 L 104.0 126.0 L 105.0 126.0 L 105.0 126.0 L 106.0 126.0 L 107.0 125.0 L 108.0 125.0 L 109.0 125.0 L 110.0 125.0 L 111.0 124.0 L 112.0 124.0 L 114.0 124.0 L 116.0 124.0 L 118.0 123.0 L 120.0 123.0 L 122.0 123.0 L 124.0 123.0 L 126.0 123.0 L 128.0 123.0 L 130.0 123.0 L 132.0 123.0 L 134.0 123.0 L 136.0 123.0 L 138.0 123.0 L 139.0 123.0 L 141.0 123.0 L 142.0 123.0 L 143.0 123.0 L 144.0 123.0 L 145.0 123.0 L 145.0 123.0 L 146.0 123.0 L 147.0 123.0 L 148.0 123.0 L 148.0 123.0 L 149.0 123.0 L 150.0 122.0 L 151.0 122.0 L 152.0 122.0 L 153.0 122.0 L 153.0 122.0 L 154.0 121.0 L 155.0 121.0 L 156.0 121.0 L 157.0 121.0 L 158.0 121.0 L 158.0 121.0 L 159.0 121.0 L 160.0 121.0 L 161.0 121.0 L 162.0 121.0 L 163.0 121.0 L 164.0 121.0 L 165.0 121.0 L 166.0 121.0 L 167.0 121.0 L 168.0 121.0 L 169.0 121.0 L 170.0 121.0 L 172.0 122.0 L 173.0 122.0 L 174.0 122.0 L 175.0 122.0 L 176.0 122.0 L 177.0 122.0 L 178.0 122.0 L 179.0 122.0 L 180.0 122.0 L 181.0 122.0 L 182.0 122.0 L 183.0 122.0 L 184.0 122.0 L 184.0 122.0 L 185.0 122.0 L 186.0 122.0 L 187.0 122.0 L 187.0 122.0 L 188.0 122.0 L 188.0 122.0 L 189.0 123.0 L 189.0 123.0 L 189.0 123.0 L 190.0 123.0 L 190.0 123.0 L 190.0 124.0 L 191.0 124.0 L 191.0 124.0 L 191.0 125.0 L 191.0 125.0 L 191.0 125.0 L 191.0 125.0 L 192.0 126.0 L 192.0 126.0 L 192.0 127.0 L 192.0 127.0 L 192.0 128.0 L 192.0 129.0 L 192.0 129.0 L 192.0 130.0 L 192.0 130.0 L 192.0 131.0 L 192.0 132.0 L 192.0 132.0 L 193.0 133.0 L 193.0 133.0 L 193.0 134.0 L 193.0 134.0 L 193.0 135.0 L 193.0 135.0 L 193.0 136.0 L 193.0 136.0 L 194.0 136.0 L 194.0 137.0 L 194.0 137.0 L 194.0 138.0 L 194.0 138.0 L 194.0 139.0 L 194.0 139.0 L 194.0 140.0 L 194.0 140.0 L 194.0 141.0 L 195.0 141.0 L 195.0 142.0 L 195.0 143.0 L 195.0 143.0 L 195.0 144.0 L 195.0 145.0 L 195.0 146.0 L 195.0 147.0 L 195.0 148.0 L 195.0 149.0 L 195.0 150.0 L 195.0 151.0 L 195.0 152.0 L 195.0 154.0 L 195.0 155.0 L 195.0 157.0 L 195.0 159.0 L 195.0 160.0 L 195.0 162.0 L 195.0 163.0 L 195.0 164.0 L 195.0 165.0 L 195.0 166.0 L 195.0 167.0 L 195.0 167.0 L 195.0 168.0 L 195.0 168.0 L 195.0 169.0 L 195.0 169.0 L 195.0 169.0 L 195.0 170.0 L 195.0 170.0 " stroke="black" fill="none" stroke-width="5.0" stroke-linecap="round" stroke-linejoin="round" />
<path d="M 102.0 165.0 L 102.0 165.0 L 102.0 165.0 L 102.0 165.0 L 102.0 165.0 L 102.0 165.0 L 102.0 166.0 L 102.0 166.0 L 102.0 166.0 L 102.0 166.0 L 102.0 166.0 L 102.0 166.0 L 102.0 166.0 L 102.0 167.0 L 102.0 167.0 L 103.0 167.0 L 104.0 167.0 L 104.0 167.0 L 105.0 167.0 L 106.0 167.0 L 108.0 167.0 L 109.0 168.0 L 111.0 168.0 L 113.0 168.0 L 116.0 168.0 L 119.0 168.0 L 122.0 168.0 L 125.0 168.0 L 128.0 168.0 L 131.0 168.0 L 134.0 168.0 L 137.0 168.0 L 139.0 168.0 L 141.0 168.0 L 143.0 168.0 L 144.0 168.0 L 146.0 168.0 L 148.0 168.0 L 149.0 168.0 L 150.0 168.0 L 152.0 168.0 L 153.0 168.0 L 155.0 168.0 L 156.0 168.0 L 158.0 168.0 L 160.0 168.0 L 162.0 168.0 L 164.0 168.0 L 166.0 168.0 L 169.0 168.0 L 171.0 168.0 L 174.0 167.0 L 177.0 167.0 L 179.0 167.0 L 182.0 167.0 L 184.0 166.0 L 185.0 166.0 L 187.0 166.0 L 189.0 166.0 L 190.0 165.0 L 191.0 165.0 L 191.0 165.0 L 191.0 164.0 L 191.0 164.0 L 191.0 164.0 L 191.0 164.0 " stroke="black" fill="none" stroke-width="5.0" stroke-linecap="round" stroke-linejoin="round" />
<path d="M 148.0 175.0 L 148.0 175.0 L 148.0 174.0 L 148.0 173.0 L 148.0 172.0 L 149.0 171.0 L 149.0 171.0 L 149.0 171.0 L 149.0 170.0 L 149.0 170.0 L 149.0 171.0 L 148.0 172.0 L 146.0 175.0 L 145.0 178.0 L 143.0 181.0 L 141.0 184.0 L 139.0 187.0 L 138.0 190.0 L 138.0 191.0 " stroke="black" fill="none" stroke-width="5.0" stroke-linecap="round" stroke-linejoin="round" />
<path d="M 90.0 199.0 L 90.0 199.0 L 90.0 199.0 L 89.0 199.0 L 89.0 199.0 L 89.0 199.0 L 89.0 200.0 L 88.0 200.0 L 88.0 200.0 L 88.0 201.0 L 88.0 202.0 L 88.0 203.0 L 88.0 204.0 L 88.0 205.0 L 89.0 207.0 L 89.0 209.0 L 90.0 210.0 L 91.0 213.0 L 91.0 215.0 L 92.0 218.0 L 93.0 221.0 L 93.0 225.0 L 94.0 228.0 L 94.0 231.0 L 94.0 235.0 L 94.0 237.0 L 95.0 239.0 L 95.0 241.0 L 95.0 242.0 L 95.0 243.0 L 95.0 244.0 L 95.0 244.0 L 96.0 244.0 L 96.0 244.0 L 96.0 244.0 L 97.0 243.0 " stroke="black" fill="none" stroke-width="5.0" stroke-linecap="round" stroke-linejoin="round" />
<path d="M 95.0 199.0 L 95.0 199.0 L 95.0 199.0 L 95.0 199.0 L 95.0 199.0 L 95.0 199.0 L 95.0 199.0 L 95.0 199.0 L 95.0 199.0 L 95.0 199.0 L 95.0 198.0 L 95.0 198.0 L 95.0 198.0 L 95.0 198.0 L 95.0 198.0 L 95.0 198.0 L 96.0 198.0 L 97.0 198.0 L 98.0 198.0 L 99.0 198.0 L 100.0 198.0 L 101.0 198.0 L 103.0 198.0 L 104.0 198.0 L 105.0 199.0 L 107.0 199.0 L 108.0 199.0 L 109.0 199.0 L 111.0 199.0 L 112.0 199.0 L 114.0 199.0 L 115.0 199.0 L 117.0 199.0 L 118.0 199.0 L 119.0 199.0 L 121.0 199.0 L 122.0 199.0 L 123.0 199.0 L 125.0 199.0 L 126.0 199.0 L 127.0 199.0 L 128.0 199.0 L 129.0 199.0 L 130.0 199.0 L 132.0 198.0 L 133.0 198.0 L 134.0 198.0 L 135.0 198.0 L 136.0 198.0 L 137.0 198.0 L 138.0 198.0 L 139.0 198.0 L 140.0 198.0 L 141.0 198.0 L 142.0 198.0 L 143.0 198.0 L 144.0 198.0 L 145.0 198.0 L 146.0 198.0 L 147.0 198.0 L 148.0 198.0 L 149.0 198.0 L 150.0 198.0 L 150.0 198.0 L 151.0 198.0 L 152.0 198.0 L 152.0 198.0 L 152.0 198.0 L 153.0 198.0 L 153.0 198.0 L 154.0 198.0 L 155.0 198.0 L 155.0 198.0 L 156.0 198.0 L 157.0 198.0 L 157.0 198.0 L 158.0 198.0 L 159.0 198.0 L 160.0 198.0 L 160.0 198.0 L 162.0 198.0 L 163.0 198.0 L 164.0 198.0 L 165.0 198.0 L 166.0 198.0 L 167.0 198.0 L 169.0 198.0 L 170.0 198.0 L 171.0 198.0 L 173.0 198.0 L 174.0 198.0 L 176.0 198.0 L 177.0 198.0 L 178.0 198.0 L 180.0 198.0 L 181.0 198.0 L 182.0 198.0 L 184.0 198.0 L 185.0 198.0 L 186.0 198.0 L 186.0 198.0 L 187.0 198.0 L 188.0 198.0 L 189.0 198.0 L 190.0 198.0 L 190.0 198.0 L 191.0 198.0 L 192.0 198.0 L 193.0 198.0 L 193.0 198.0 L 194.0 198.0 L 195.0 198.0 L 195.0 198.0 L 196.0 198.0 L 196.0 198.0 L 197.0 198.0 L 197.0 198.0 L 197.0 198.0 L 198.0 198.0 L 198.0 198.0 L 199.0 198.0 L 199.0 198.0 L 200.0 198.0 L 200.0 198.0 L 201.0 198.0 L 201.0 198.0 L 202.0 199.0 L 202.0 199.0 L 203.0 199.0 L 204.0 199.0 L 204.0 199.0 L 205.0 199.0 L 205.0 199.0 L 206.0 199.0 L 207.0 200.0 L 208.0 200.0 L 208.0 200.0 L 209.0 200.0 L 210.0 200.0 L 210.0 200.0 L 211.0 200.0 L 211.0 200.0 L 212.0 200.0 L 212.0 200.0 L 213.0 201.0 L 213.0 201.0 L 213.0 201.0 L 214.0 202.0 L 214.0 203.0 L 214.0 204.0 L 214.0 205.0 L 214.0 206.0 L 214.0 208.0 L 214.0 209.0 L 214.0 211.0 L 214.0 213.0 L 214.0 216.0 L 213.0 218.0 L 213.0 221.0 L 213.0 223.0 L 213.0 224.0 L 213.0 225.0 L 213.0 227.0 L 213.0 228.0 L 213.0 230.0 L 213.0 231.0 L 213.0 232.0 L 213.0 234.0 L 213.0 235.0 L 213.0 237.0 L 213.0 238.0 L 213.0 240.0 L 213.0 241.0 L 213.0 242.0 L 213.0 243.0 L 213.0 243.0 L 213.0 244.0 L 213.0 244.0 L 212.0 244.0 L 212.0 244.0 L 212.0 244.0 L 212.0 244.0 L 211.0 244.0 L 210.0 243.0 " stroke="black" fill="none" stroke-width="5.0" stroke-linecap="round" stroke-linejoin="round" />
<path d="M 97.0 242.0 L 97.0 242.0 L 97.0 242.0 L 97.0 242.0 L 97.0 242.0 L 97.0 242.0 L 97.0 242.0 L 97.0 242.0 L 97.0 242.0 L 97.0 242.0 L 98.0 242.0 L 98.0 242.0 L 98.0 242.0 L 98.0 242.0 L 99.0 242.0 L 100.0 242.0 L 101.0 242.0 L 102.0 242.0 L 103.0 243.0 L 104.0 243.0 L 106.0 243.0 L 107.0 243.0 L 109.0 243.0 L 110.0 243.0 L 112.0 243.0 L 113.0 243.0 L 115.0 243.0 L 116.0 243.0 L 118.0 243.0 L 120.0 243.0 L 121.0 243.0 L 123.0 243.0 L 124.0 243.0 L 126.0 242.0 L 128.0 242.0 L 129.0 242.0 L 131.0 242.0 L 133.0 242.0 L 135.0 242.0 L 136.0 241.0 L 137.0 241.0 L 139.0 241.0 L 140.0 241.0 L 141.0 241.0 L 142.0 241.0 L 143.0 241.0 L 144.0 241.0 L 145.0 241.0 L 146.0 241.0 L 147.0 241.0 L 148.0 241.0 L 149.0 241.0 L 150.0 241.0 L 151.0 241.0 L 152.0 241.0 L 153.0 241.0 L 154.0 241.0 L 155.0 241.0 L 156.0 241.0 L 157.0 242.0 L 158.0 242.0 L 159.0 242.0 L 161.0 242.0 L 162.0 242.0 L 163.0 242.0 L 165.0 242.0 L 167.0 242.0 L 169.0 242.0 L 171.0 242.0 L 173.0 242.0 L 175.0 242.0 L 177.0 242.0 L 179.0 242.0 L 181.0 242.0 L 183.0 242.0 L 185.0 242.0 L 186.0 242.0 L 188.0 242.0 L 190.0 242.0 L 191.0 242.0 L 192.0 242.0 L 193.0 242.0 L 194.0 242.0 L 195.0 241.0 L 196.0 241.0 L 196.0 241.0 L 197.0 241.0 L 198.0 241.0 L 198.0 241.0 L 199.0 241.0 L 200.0 241.0 L 200.0 242.0 L 201.0 242.0 L 202.0 242.0 L 203.0 242.0 L 204.0 242.0 L 204.0 242.0 L 205.0 242.0 L 205.0 242.0 L 205.0 242.0 L 205.0 243.0 L 205.0 243.0 L 205.0 243.0 L 205.0 243.0 L 205.0 243.0 " stroke="black" fill="none" stroke-width="5.0" stroke-linecap="round" stroke-linejoin="round" />
</svg>