<svg xmlns="http://www.w3.org/2000/svg" width="300" height="300" viewBox="0 0 300 300">
<path d="M 146.0 69.0 L 146.0 69.0 L 144.0 69.0 L 143.0 69.0 L 142.0 69.0 L 142.0 72.0 L 142.0 75.0 L 142.0 79.0 L 144.0 84.0 L 146.0 89.0 L 149.0 93.0 L 152.0 97.0 L 154.0 99.0 " stroke="black" fill="none" stroke-width="5.0" stroke-linecap="round" stroke-linejoin="round" />
<path d="M 79.0 105.0 L 78.0 105.0 L 77.0 105.0 L 76.0 105.0 L 75.0 105.0 L 75.0 105.0 L 75.0 105.0 L 77.0 105.0 L 80.0 105.0 L 84.0 105.0 L 89.0 105.0 L 95.0 105.0 L 100.0 105.0 L 107.0 105.0 L 116.0 106.0 L 128.0 106.0 L 142.0 106.0 L 155.0 105.0 L 169.0 104.0 L 184.0 103.0 L 195.0 103.0 L 203.0 102.0 L 212.0 102.0 L 219.0 103.0 L 225.0 105.0 L 230.0 107.0 L 233.0 108.0 L 234.0 110.0 " stroke="black" fill="none" stroke-width="5.0" stroke-linecap="round" stroke-linejoin="round" />
<path d="M 91.0 154.0 L 90.0 154.0 L 89.0 153.0 L 89.0 152.0 L 88.0 152.0 L 88.0 152.0 L 88.0 155.0 L 88.0 159.0 L 88.0 165.0 L 88.0 173.0 L 89.0 182.0 L 89.0 193.0 L 90.0 202.0 L 90.0 211.0 L 90.0 219.0 L 90.0 224.0 " stroke="black" fill="none" stroke-width="5.0" stroke-linecap="round" stroke-linejoin="round" />
<path d="M 93.0 154.0 L 93.0 154.0 L 92.0 153.0 L 91.0 153.0 L 91.0 152.0 L 91.0 152.0 L 91.0 152.0 L 91.0 152.0 L 91.0 152.0 L 93.0 152.0 L 94.0 152.0 L 95.0 152.0 L 97.0 152.0 L 98.0 152.0 L 100.0 152.0 L 102.0 152.0 L 104.0 152.0 L 106.0 152.0 L 108.0 152.0 L 110.0 152.0 L 113.0 152.0 L 116.0 152.0 L 119.0 152.0 L 123.0 152.0 L 127.0 152.0 L 131.0 152.0 L 135.0 152.0 L 139.0 152.0 L 143.0 152.0 L 147.0 152.0 L 149.0 152.0 L 151.0 151.0 L 154.0 151.0 L 155.0 151.0 L 157.0 151.0 L 160.0 151.0 L 162.0 151.0 L 164.0 150.0 L 168.0 150.0 L 171.0 150.0 L 174.0 150.0 L 178.0 150.0 L 181.0 150.0 L 184.0 150.0 L 185.0 150.0 L 190.0 150.0 L 192.0 150.0 L 195.0 149.0 L 196.0 149.0 L 198.0 149.0 L 200.0 149.0 L 202.0 148.0 L 203.0 148.0 L 205.0 148.0 L 207.0 148.0 L 209.0 148.0 L 212.0 148.0 L 213.0 147.0 L 215.0 147.0 L 217.0 147.0 L 218.0 147.0 L 219.0 147.0 L 221.0 147.0 L 221.0 147.0 L 222.0 147.0 L 222.0 148.0 L 223.0 148.0 L 223.0 149.0 L 223.0 150.0 L 223.0 152.0 L 223.0 154.0 L 223.0 156.0 L 223.0 159.0 L 223.0 163.0 L 222.0 168.0 L 221.0 173.0 L 220.0 180.0 L 219.0 188.0 L 217.0 195.0 L 216.0 202.0 L 214.0 210.0 L 213.0 216.0 L 212.0 222.0 L 211.0 227.0 L 210.0 229.0 L 209.0 231.0 L 208.0 231.0 L 207.0 231.0 L 205.0 229.0 L 202.0 226.0 L 200.0 222.0 L 197.0 218.0 L 196.0 215.0 " stroke="black" fill="none" stroke-width="5.0" stroke-linecap="round" stroke-linejoin="round" />
<path d="M 143.0 114.0 L 143.0 114.0 L 143.0 113.0 L 142.0 113.0 L 142.0 113.0 L 142.0 114.0 L 142.0 115.0 L 142.0 120.0 L 143.0 125.0 L 143.0 132.0 L 144.0 142.0 L 145.0 155.0 L 145.0 167.0 L 145.0 182.0 L 145.0 198.0 L 145.0 211.0 L 145.0 224.0 L 145.0 238.0 L 144.0 248.0 L 144.0 255.0 L 144.0 261.0 L 144.0 265.0 L 144.0 267.0 L 144.0 267.0 " stroke="black" fill="none" stroke-width="5.0" stroke-linecap="round" stroke-linejoin="round" />
</svg>