<svg xmlns="http://www.w3.org/2000/svg" width="300" height="300" viewBox="0 0 300 300">
<path d="M 67.0 89.0 L 67.0 89.0 L 67.0 89.0 L 67.0 89.0 L 67.0 89.0 L 67.0 89.0 L 67.0 89.0 L 67.0 89.0 L 67.0 89.0 L 67.0 89.0 L 67.0 89.0 L 67.0 89.0 L 67.0 89.0 L 67.0 89.0 L 67.0 89.0 L 67.0 89.0 L 67.0 89.0 L 67.0 89.0 L 67.0 89.0 L 68.0 89.0 L 68.0 89.0 L 68.0 88.0 L 68.0 88.0 L 68.0 88.0 L 69.0 88.0 L 69.0 88.0 L 69.0 88.0 L 69.0 88.0 L 70.0 88.0 L 70.0 88.0 L 70.0 88.0 L 71.0 88.0 L 71.0 88.0 L 72.0 88.0 L 72.0 88.0 L 73.0 88.0 L 73.0 88.0 L 73.0 88.0 L 74.0 88.0 L 74.0 88.0 L 75.0 88.0 L 75.0 88.0 L 76.0 88.0 L 76.0 88.0 L 77.0 88.0 L 77.0 88.0 L 78.0 88.0 L 78.0 88.0 L 79.0 88.0 L 79.0 88.0 L 80.0 88.0 L 80.0 88.0 L 81.0 88.0 L 82.0 88.0 L 82.0 88.0 L 83.0 88.0 L 83.0 88.0 L 84.0 88.0 L 85.0 88.0 L 85.0 88.0 L 86.0 88.0 L 87.0 88.0 L 87.0 88.0 L 88.0 88.0 L 89.0 88.0 L 89.0 88.0 L 90.0 88.0 L 91.0 88.0 L 91.0 88.0 L 92.0 87.0 L 93.0 87.0 L 93.0 87.0 L 94.0 87.0 L 95.0 87.0 L 96.0 87.0 L 96.0 87.0 L 97.0 87.0 L 98.0 87.0 L 98.0 87.0 L 99.0 86.0 L 100.0 86.0 L 100.0 86.0 L 101.0 86.0 L 101.0 86.0 L 101.0 86.0 L 102.0 86.0 L 102.0 86.0 L 103.0 86.0 L 103.0 86.0 L 103.0 86.0 L 104.0 86.0 L 104.0 86.0 L 105.0 86.0 L 105.0 86.0 L 105.0 86.0 L 106.0 86.0 L 106.0 86.0 L 107.0 86.0 L 107.0 86.0 L 108.0 86.0 L 108.0 86.0 L 109.0 86.0 L 109.0 86.0 L 110.0 86.0 L 111.0 86.0 L 111.0 86.0 L 112.0 86.0 L 112.0 86.0 L 113.0 86.0 L 114.0 86.0 L 114.0 86.0 L 115.0 86.0 L 116.0 86.0 L 116.0 86.0 L 117.0 86.0 L 118.0 86.0 L 119.0 86.0 L 120.0 86.0 L 120.0 86.0 L 121.0 86.0 L 122.0 86.0 L 123.0 86.0 L 123.0 86.0 L 124.0 86.0 L 125.0 86.0 L 126.0 86.0 L 127.0 86.0 L 128.0 86.0 L 128.0 86.0 L 129.0 86.0 L 130.0 86.0 L 131.0 86.0 L 132.0 86.0 L 133.0 87.0 L 134.0 87.0 L 135.0 87.0 L 136.0 87.0 L 136.0 87.0 L 137.0 87.0 L 138.0 87.0 L 139.0 87.0 L 140.0 87.0 L 141.0 87.0 L 142.0 87.0 L 143.0 87.0 L 143.0 87.0 L 144.0 87.0 L 145.0 87.0 L 146.0 87.0 L 146.0 87.0 L 147.0 87.0 L 147.0 87.0 L 148.0 87.0 L 149.0 87.0 L 149.0 87.0 L 150.0 87.0 L 150.0 87.0 L 150.0 87.0 L 151.0 87.0 L 151.0 87.0 L 152.0 87.0 L 152.0 87.0 L 152.0 86.0 L 153.0 86.0 L 153.0 86.0 L 153.0 86.0 L 154.0 86.0 L 154.0 86.0 L 154.0 86.0 L 155.0 86.0 L 155.0 86.0 L 155.0 86.0 L 156.0 86.0 L 156.0 86.0 L 157.0 86.0 L 157.0 86.0 L 158.0 86.0 L 158.0 86.0 L 159.0 86.0 L 159.0 86.0 L 160.0 86.0 L 160.0 86.0 L 161.0 86.0 L 161.0 86.0 L 162.0 86.0 L 162.0 86.0 L 163.0 87.0 L 164.0 87.0 L 164.0 87.0 L 165.0 87.0 L 166.0 87.0 L 166.0 87.0 L 167.0 87.0 L 168.0 87.0 L 168.0 87.0 L 169.0 87.0 L 169.0 87.0 L 170.0 87.0 L 171.0 87.0 L 171.0 87.0 L 172.0 87.0 L 172.0 87.0 L 173.0 87.0 L 173.0 87.0 L 174.0 87.0 L 175.0 87.0 L 175.0 87.0 L 176.0 87.0 L 177.0 87.0 L 177.0 87.0 L 178.0 87.0 L 178.0 87.0 L 179.0 87.0 L 179.0 87.0 L 179.0 87.0 L 180.0 87.0 L 180.0 87.0 L 181.0 87.0 L 181.0 87.0 L 182.0 87.0 L 182.0 87.0 L 183.0 87.0 L 183.0 87.0 L 184.0 87.0 L 184.0 87.0 L 185.0 87.0 L 185.0 87.0 L 186.0 87.0 L 186.0 87.0 L 187.0 87.0 L 187.0 87.0 L 187.0 87.0 L 188.0 86.0 L 188.0 86.0 L 189.0 86.0 L 189.0 86.0 L 190.0 86.0 L 190.0 86.0 L 191.0 86.0 L 191.0 86.0 L 192.0 86.0 L 192.0 86.0 L 193.0 86.0 L 193.0 86.0 L 193.0 86.0 L 194.0 86.0 L 194.0 86.0 L 194.0 86.0 L 195.0 86.0 L 195.0 86.0 L 196.0 86.0 L 196.0 86.0 L 196.0 86.0 L 197.0 86.0 L 197.0 86.0 L 198.0 86.0 L 198.0 86.0 L 198.0 86.0 L 199.0 86.0 L 199.0 86.0 L 199.0 86.0 L 200.0 86.0 L 200.0 86.0 L 200.0 86.0 L 201.0 86.0 L 201.0 86.0 L 202.0 86.0 L 202.0 86.0 L 202.0 86.0 L 203.0 86.0 L 203.0 86.0 L 204.0 86.0 L 204.0 86.0 L 205.0 86.0 L 205.0 86.0 L 205.0 86.0 L 206.0 86.0 L 207.0 86.0 L 207.0 86.0 L 208.0 86.0 L 208.0 86.0 L 209.0 86.0 L 209.0 86.0 L 210.0 86.0 L 210.0 86.0 L 211.0 86.0 L 212.0 86.0 L 213.0 86.0 L 214.0 86.0 L 214.0 86.0 L 215.0 86.0 L 216.0 86.0 L 217.0 86.0 L 218.0 86.0 L 219.0 86.0 L 219.0 86.0 L 220.0 86.0 L 221.0 86.0 L 221.0 86.0 L 222.0 86.0 L 223.0 86.0 L 223.0 86.0 L 224.0 86.0 L 225.0 86.0 L 226.0 86.0 L 226.0 86.0 L 227.0 86.0 L 228.0 86.0 L 229.0 86.0 L 229.0 87.0 L 230.0 87.0 L 231.0 87.0 L 231.0 87.0 L 232.0 87.0 L 233.0 87.0 L 233.0 87.0 L 234.0 87.0 L 235.0 87.0 L 235.0 87.0 L 236.0 86.0 L 236.0 86.0 L 236.0 86.0 L 237.0 86.0 L 237.0 86.0 " stroke="black" fill="none" stroke-width="5.0" stroke-linecap="round" stroke-linejoin="round" />
<path d="M 84.0 115.0 L 84.0 115.0 L 84.0 115.0 L 84.0 115.0 L 84.0 115.0 L 84.0 115.0 L 84.0 115.0 L 85.0 116.0 L 85.0 117.0 L 85.0 118.0 L 85.0 121.0 L 85.0 123.0 L 86.0 126.0 L 86.0 129.0 L 86.0 131.0 L 87.0 132.0 L 87.0 133.0 " stroke="black" fill="none" stroke-width="5.0" stroke-linecap="round" stroke-linejoin="round" />
<path d="M 89.0 111.0 L 89.0 111.0 L 89.0 111.0 L 88.0 111.0 L 87.0 111.0 L 87.0 111.0 L 87.0 111.0 L 87.0 111.0 L 87.0 111.0 L 87.0 111.0 L 87.0 111.0 L 87.0 111.0 L 87.0 111.0 L 87.0 111.0 L 88.0 111.0 L 89.0 111.0 L 90.0 111.0 L 91.0 111.0 L 92.0 111.0 L 93.0 111.0 L 94.0 111.0 L 94.0 111.0 L 95.0 111.0 L 96.0 112.0 L 97.0 112.0 L 98.0 112.0 L 99.0 112.0 L 100.0 112.0 L 101.0 112.0 L 102.0 112.0 L 102.0 112.0 L 103.0 112.0 L 104.0 112.0 L 105.0 112.0 L 105.0 112.0 L 106.0 112.0 L 107.0 112.0 L 107.0 112.0 L 108.0 111.0 L 108.0 111.0 L 109.0 111.0 L 109.0 111.0 L 110.0 111.0 L 110.0 111.0 L 110.0 111.0 L 111.0 111.0 L 111.0 111.0 L 112.0 111.0 L 112.0 111.0 L 112.0 111.0 L 113.0 111.0 L 113.0 111.0 L 114.0 111.0 L 114.0 111.0 L 115.0 111.0 L 115.0 111.0 L 116.0 111.0 L 116.0 111.0 L 117.0 111.0 L 117.0 111.0 L 118.0 111.0 L 118.0 112.0 L 119.0 112.0 L 120.0 112.0 L 120.0 112.0 L 121.0 112.0 L 122.0 112.0 L 123.0 112.0 L 123.0 112.0 L 124.0 113.0 L 125.0 113.0 L 126.0 113.0 L 127.0 113.0 L 128.0 113.0 L 129.0 113.0 L 130.0 113.0 L 131.0 113.0 L 132.0 113.0 L 133.0 113.0 L 133.0 113.0 L 134.0 113.0 L 135.0 113.0 L 136.0 113.0 L 137.0 113.0 L 138.0 113.0 L 139.0 113.0 L 139.0 113.0 L 140.0 113.0 L 141.0 113.0 L 142.0 113.0 L 143.0 113.0 L 144.0 113.0 L 144.0 113.0 L 145.0 113.0 L 146.0 113.0 L 146.0 113.0 L 147.0 113.0 L 148.0 113.0 L 148.0 113.0 L 149.0 113.0 L 149.0 113.0 L 150.0 113.0 L 151.0 113.0 L 151.0 113.0 L 152.0 114.0 L 152.0 114.0 L 152.0 114.0 L 153.0 114.0 L 153.0 114.0 L 154.0 114.0 L 154.0 114.0 L 155.0 114.0 L 155.0 114.0 L 156.0 114.0 L 156.0 114.0 L 157.0 114.0 L 157.0 114.0 L 158.0 114.0 L 159.0 114.0 L 159.0 114.0 L 160.0 114.0 L 161.0 114.0 L 161.0 114.0 L 162.0 114.0 L 163.0 114.0 L 164.0 114.0 L 164.0 114.0 L 165.0 114.0 L 166.0 114.0 L 167.0 114.0 L 168.0 114.0 L 169.0 114.0 L 170.0 114.0 L 171.0 114.0 L 171.0 114.0 L 173.0 114.0 L 173.0 114.0 L 174.0 114.0 L 175.0 114.0 L 176.0 114.0 L 177.0 114.0 L 178.0 114.0 L 179.0 114.0 L 180.0 114.0 L 181.0 114.0 L 182.0 114.0 L 182.0 114.0 L 183.0 114.0 L 184.0 114.0 L 185.0 114.0 L 185.0 114.0 L 186.0 114.0 L 187.0 114.0 L 187.0 114.0 L 188.0 114.0 L 189.0 114.0 L 189.0 114.0 L 190.0 114.0 L 190.0 114.0 L 191.0 114.0 L 191.0 114.0 L 192.0 114.0 L 192.0 114.0 L 192.0 114.0 L 193.0 114.0 L 193.0 114.0 L 194.0 114.0 L 194.0 114.0 L 194.0 114.0 L 195.0 114.0 L 195.0 114.0 L 196.0 114.0 L 196.0 114.0 L 197.0 114.0 L 197.0 114.0 L 198.0 114.0 L 198.0 114.0 L 199.0 114.0 L 199.0 114.0 L 200.0 114.0 L 200.0 114.0 L 201.0 114.0 L 201.0 114.0 L 202.0 114.0 L 202.0 114.0 L 203.0 114.0 L 204.0 114.0 L 204.0 114.0 L 205.0 114.0 L 206.0 114.0 L 206.0 114.0 L 207.0 114.0 L 207.0 114.0 L 208.0 114.0 L 209.0 114.0 L 209.0 114.0 L 209.0 114.0 L 210.0 114.0 L 210.0 114.0 L 210.0 114.0 L 211.0 114.0 L 211.0 114.0 L 211.0 114.0 L 211.0 114.0 L 211.0 115.0 L 211.0 115.0 L 211.0 116.0 L 211.0 117.0 L 211.0 118.0 L 211.0 120.0 L 211.0 121.0 L 211.0 122.0 L 211.0 124.0 L 211.0 125.0 L 211.0 126.0 L 211.0 128.0 L 211.0 129.0 L 211.0 130.0 L 211.0 131.0 L 211.0 132.0 L 211.0 133.0 L 211.0 133.0 L 211.0 134.0 " stroke="black" fill="none" stroke-width="5.0" stroke-linecap="round" stroke-linejoin="round" />
<path d="M 87.0 136.0 L 87.0 136.0 L 86.0 136.0 L 85.0 136.0 L 84.0 136.0 L 84.0 136.0 L 83.0 136.0 L 83.0 137.0 L 82.0 137.0 L 82.0 137.0 L 82.0 137.0 L 82.0 137.0 L 83.0 137.0 L 83.0 137.0 L 83.0 137.0 L 84.0 137.0 L 84.0 137.0 L 85.0 137.0 L 85.0 137.0 L 86.0 137.0 L 86.0 137.0 L 87.0 137.0 L 88.0 137.0 L 89.0 137.0 L 89.0 137.0 L 90.0 137.0 L 91.0 137.0 L 92.0 137.0 L 93.0 137.0 L 94.0 137.0 L 95.0 137.0 L 95.0 137.0 L 96.0 137.0 L 97.0 137.0 L 98.0 137.0 L 99.0 137.0 L 99.0 137.0 L 100.0 137.0 L 101.0 137.0 L 101.0 137.0 L 102.0 137.0 L 103.0 137.0 L 103.0 137.0 L 104.0 137.0 L 104.0 137.0 L 104.0 137.0 L 105.0 137.0 L 105.0 137.0 L 105.0 137.0 L 106.0 137.0 L 106.0 137.0 L 107.0 137.0 L 107.0 137.0 L 107.0 137.0 L 108.0 137.0 L 108.0 137.0 L 108.0 137.0 L 109.0 137.0 L 109.0 137.0 L 109.0 137.0 L 110.0 137.0 L 110.0 137.0 L 110.0 137.0 L 111.0 137.0 L 111.0 137.0 L 112.0 137.0 L 112.0 137.0 L 112.0 137.0 L 113.0 137.0 L 113.0 137.0 L 114.0 137.0 L 114.0 137.0 L 115.0 137.0 L 115.0 137.0 L 116.0 137.0 L 116.0 137.0 L 117.0 137.0 L 118.0 137.0 L 118.0 137.0 L 119.0 137.0 L 120.0 137.0 L 120.0 137.0 L 121.0 137.0 L 122.0 136.0 L 123.0 136.0 L 123.0 136.0 L 124.0 136.0 L 125.0 136.0 L 126.0 136.0 L 127.0 136.0 L 127.0 136.0 L 128.0 136.0 L 129.0 136.0 L 130.0 136.0 L 131.0 136.0 L 132.0 136.0 L 133.0 136.0 L 134.0 136.0 L 135.0 136.0 L 136.0 136.0 L 137.0 136.0 L 138.0 136.0 L 139.0 136.0 L 140.0 136.0 L 141.0 136.0 L 142.0 136.0 L 143.0 136.0 L 143.0 136.0 L 144.0 135.0 L 145.0 135.0 L 146.0 135.0 L 146.0 135.0 L 147.0 135.0 L 148.0 135.0 L 148.0 134.0 L 149.0 134.0 L 149.0 134.0 L 149.0 134.0 L 150.0 134.0 L 150.0 134.0 L 150.0 134.0 L 151.0 134.0 L 151.0 134.0 L 152.0 134.0 L 152.0 134.0 L 152.0 134.0 L 152.0 134.0 L 153.0 134.0 L 153.0 134.0 L 153.0 134.0 L 153.0 134.0 L 154.0 134.0 L 154.0 134.0 L 154.0 134.0 L 155.0 134.0 L 155.0 134.0 L 155.0 134.0 L 156.0 134.0 L 156.0 134.0 L 157.0 134.0 L 157.0 134.0 L 158.0 134.0 L 158.0 134.0 L 158.0 134.0 L 159.0 134.0 L 160.0 134.0 L 160.0 134.0 L 161.0 134.0 L 162.0 134.0 L 163.0 134.0 L 164.0 134.0 L 164.0 134.0 L 165.0 134.0 L 166.0 134.0 L 167.0 134.0 L 168.0 134.0 L 168.0 134.0 L 169.0 134.0 L 170.0 134.0 L 171.0 134.0 L 172.0 134.0 L 173.0 134.0 L 174.0 134.0 L 175.0 134.0 L 175.0 134.0 L 176.0 134.0 L 177.0 134.0 L 178.0 134.0 L 179.0 134.0 L 179.0 134.0 L 180.0 134.0 L 181.0 134.0 L 182.0 134.0 L 182.0 134.0 L 183.0 134.0 L 184.0 134.0 L 184.0 134.0 L 185.0 134.0 L 186.0 134.0 L 186.0 134.0 L 187.0 134.0 L 188.0 134.0 L 188.0 134.0 L 189.0 134.0 L 190.0 134.0 L 190.0 134.0 L 191.0 134.0 L 191.0 134.0 L 192.0 134.0 L 193.0 134.0 L 194.0 134.0 L 194.0 134.0 L 195.0 134.0 L 196.0 134.0 L 197.0 134.0 L 198.0 134.0 L 198.0 134.0 L 199.0 134.0 L 200.0 134.0 L 201.0 133.0 L 202.0 133.0 L 202.0 133.0 L 203.0 133.0 L 204.0 132.0 L 205.0 132.0 " stroke="black" fill="none" stroke-width="5.0" stroke-linecap="round" stroke-linejoin="round" />
<path d="M 80.0 162.0 L 80.0 162.0 L 80.0 162.0 L 79.0 162.0 L 79.0 162.0 L 79.0 163.0 L 79.0 163.0 L 79.0 163.0 L 79.0 163.0 L 79.0 163.0 L 80.0 163.0 L 80.0 163.0 L 81.0 163.0 L 82.0 163.0 L 83.0 163.0 L 84.0 163.0 L 85.0 163.0 L 86.0 163.0 L 87.0 163.0 L 88.0 163.0 L 90.0 163.0 L 91.0 163.0 L 93.0 162.0 L 94.0 162.0 L 96.0 162.0 L 97.0 162.0 L 99.0 162.0 L 100.0 162.0 L 101.0 162.0 L 103.0 162.0 L 103.0 162.0 L 105.0 162.0 L 105.0 162.0 L 106.0 162.0 L 107.0 162.0 L 108.0 162.0 L 109.0 162.0 L 109.0 162.0 L 110.0 162.0 L 110.0 162.0 L 111.0 162.0 L 112.0 161.0 L 112.0 161.0 L 112.0 161.0 L 113.0 161.0 L 114.0 161.0 L 114.0 161.0 L 115.0 161.0 L 115.0 161.0 L 116.0 161.0 L 117.0 161.0 L 118.0 161.0 L 118.0 161.0 L 119.0 161.0 L 120.0 161.0 L 121.0 161.0 L 122.0 161.0 L 123.0 161.0 L 123.0 161.0 L 124.0 161.0 L 125.0 161.0 L 126.0 161.0 L 127.0 161.0 L 128.0 161.0 L 130.0 161.0 L 131.0 161.0 L 132.0 161.0 L 133.0 161.0 L 134.0 161.0 L 135.0 161.0 L 136.0 161.0 L 137.0 161.0 L 138.0 161.0 L 138.0 161.0 L 139.0 161.0 L 140.0 161.0 L 141.0 161.0 L 142.0 161.0 L 142.0 161.0 L 143.0 161.0 L 144.0 161.0 L 145.0 161.0 L 145.0 161.0 L 146.0 161.0 L 146.0 161.0 L 147.0 161.0 L 148.0 161.0 L 148.0 161.0 L 149.0 161.0 L 149.0 161.0 L 150.0 161.0 L 150.0 161.0 L 151.0 161.0 L 151.0 161.0 L 152.0 161.0 L 152.0 161.0 L 153.0 161.0 L 153.0 161.0 L 154.0 161.0 L 155.0 162.0 L 155.0 162.0 L 156.0 162.0 L 156.0 162.0 L 157.0 162.0 L 157.0 162.0 L 158.0 162.0 L 158.0 162.0 L 159.0 162.0 L 160.0 162.0 L 160.0 162.0 L 161.0 162.0 L 161.0 162.0 L 162.0 162.0 L 163.0 162.0 L 163.0 162.0 L 164.0 162.0 L 165.0 163.0 L 166.0 163.0 L 166.0 163.0 L 167.0 163.0 L 168.0 163.0 L 169.0 163.0 L 169.0 163.0 L 170.0 163.0 L 171.0 163.0 L 172.0 163.0 L 173.0 163.0 L 173.0 163.0 L 174.0 163.0 L 175.0 163.0 L 176.0 163.0 L 177.0 163.0 L 177.0 163.0 L 178.0 163.0 L 178.0 163.0 L 179.0 163.0 L 180.0 163.0 L 180.0 163.0 L 181.0 163.0 L 181.0 163.0 L 182.0 163.0 L 182.0 163.0 L 183.0 163.0 L 183.0 163.0 L 184.0 163.0 L 184.0 163.0 L 185.0 163.0 L 185.0 163.0 L 186.0 163.0 L 186.0 163.0 L 187.0 163.0 L 187.0 163.0 L 187.0 163.0 L 188.0 163.0 L 188.0 163.0 L 189.0 163.0 L 189.0 163.0 L 190.0 163.0 L 190.0 163.0 L 191.0 163.0 L 191.0 163.0 L 192.0 163.0 L 192.0 163.0 L 192.0 163.0 L 193.0 163.0 L 193.0 163.0 L 194.0 163.0 L 194.0 163.0 L 195.0 163.0 L 195.0 163.0 L 196.0 163.0 L 196.0 163.0 L 197.0 163.0 L 197.0 163.0 L 198.0 163.0 L 198.0 163.0 L 198.0 163.0 L 199.0 163.0 L 199.0 163.0 L 200.0 163.0 L 200.0 163.0 L 201.0 163.0 L 201.0 163.0 L 202.0 163.0 L 202.0 163.0 L 202.0 163.0 L 203.0 163.0 L 203.0 163.0 L 204.0 163.0 L 204.0 163.0 L 204.0 163.0 L 205.0 163.0 L 205.0 163.0 L 206.0 163.0 L 206.0 163.0 L 206.0 163.0 L 207.0 163.0 L 207.0 163.0 L 208.0 163.0 L 208.0 163.0 L 209.0 163.0 L 209.0 163.0 L 210.0 163.0 L 210.0 163.0 L 211.0 163.0 L 212.0 164.0 L 212.0 164.0 L 213.0 164.0 L 213.0 164.0 L 214.0 164.0 L 214.0 164.0 L 215.0 164.0 L 215.0 164.0 L 216.0 165.0 L 216.0 165.0 L 216.0 165.0 L 217.0 165.0 L 217.0 165.0 L 217.0 166.0 L 217.0 166.0 L 218.0 167.0 L 218.0 168.0 L 218.0 169.0 L 218.0 170.0 L 218.0 171.0 L 218.0 173.0 L 218.0 175.0 L 218.0 177.0 L 217.0 180.0 L 217.0 183.0 L 217.0 186.0 L 216.0 188.0 L 216.0 190.0 L 216.0 192.0 L 216.0 193.0 L 216.0 195.0 L 216.0 196.0 L 216.0 197.0 L 216.0 198.0 L 216.0 199.0 L 216.0 200.0 L 216.0 201.0 L 216.0 202.0 L 216.0 203.0 L 216.0 204.0 L 216.0 206.0 L 216.0 207.0 L 216.0 208.0 L 216.0 210.0 L 216.0 211.0 L 216.0 212.0 L 216.0 213.0 L 216.0 214.0 L 216.0 215.0 L 216.0 216.0 L 216.0 218.0 L 216.0 219.0 L 216.0 220.0 L 216.0 221.0 L 216.0 221.0 L 216.0 222.0 L 216.0 223.0 L 216.0 223.0 L 216.0 224.0 L 216.0 224.0 L 217.0 224.0 L 217.0 224.0 L 217.0 224.0 L 217.0 224.0 L 217.0 224.0 " stroke="black" fill="none" stroke-width="5.0" stroke-linecap="round" stroke-linejoin="round" />
<path d="M 58.0 190.0 L 58.0 190.0 L 58.0 190.0 L 58.0 190.0 L 58.0 190.0 L 58.0 190.0 L 58.0 190.0 L 58.0 190.0 L 59.0 190.0 L 59.0 190.0 L 59.0 190.0 L 60.0 190.0 L 61.0 190.0 L 61.0 190.0 L 62.0 190.0 L 63.0 190.0 L 64.0 189.0 L 65.0 189.0 L 66.0 189.0 L 68.0 188.0 L 69.0 188.0 L 71.0 188.0 L 72.0 187.0 L 74.0 187.0 L 75.0 187.0 L 76.0 186.0 L 78.0 186.0 L 79.0 186.0 L 80.0 186.0 L 81.0 186.0 L 82.0 186.0 L 84.0 186.0 L 85.0 185.0 L 86.0 185.0 L 87.0 185.0 L 88.0 185.0 L 89.0 185.0 L 90.0 185.0 L 91.0 185.0 L 92.0 185.0 L 93.0 185.0 L 94.0 185.0 L 95.0 185.0 L 95.0 185.0 L 96.0 185.0 L 97.0 185.0 L 98.0 185.0 L 98.0 185.0 L 99.0 185.0 L 100.0 185.0 L 100.0 186.0 L 101.0 186.0 L 102.0 186.0 L 102.0 186.0 L 103.0 186.0 L 104.0 186.0 L 105.0 186.0 L 105.0 186.0 L 106.0 186.0 L 107.0 186.0 L 107.0 187.0 L 108.0 187.0 L 109.0 187.0 L 109.0 187.0 L 110.0 187.0 L 110.0 187.0 L 111.0 187.0 L 112.0 187.0 L 112.0 188.0 L 113.0 188.0 L 114.0 188.0 L 114.0 188.0 L 115.0 188.0 L 115.0 188.0 L 116.0 188.0 L 117.0 188.0 L 118.0 188.0 L 118.0 189.0 L 119.0 189.0 L 120.0 189.0 L 121.0 189.0 L 121.0 189.0 L 122.0 189.0 L 123.0 189.0 L 124.0 189.0 L 125.0 189.0 L 126.0 189.0 L 127.0 189.0 L 128.0 189.0 L 129.0 189.0 L 130.0 189.0 L 132.0 189.0 L 133.0 189.0 L 134.0 189.0 L 136.0 189.0 L 137.0 189.0 L 139.0 189.0 L 140.0 189.0 L 142.0 189.0 L 143.0 189.0 L 144.0 189.0 L 146.0 189.0 L 147.0 189.0 L 148.0 189.0 L 149.0 189.0 L 150.0 189.0 L 151.0 189.0 L 152.0 189.0 L 153.0 189.0 L 153.0 189.0 L 154.0 189.0 L 155.0 189.0 L 155.0 189.0 L 156.0 189.0 L 157.0 190.0 L 158.0 190.0 L 160.0 190.0 L 161.0 190.0 L 162.0 190.0 L 163.0 190.0 L 164.0 190.0 L 166.0 190.0 L 167.0 190.0 L 169.0 191.0 L 170.0 191.0 L 172.0 191.0 L 174.0 191.0 L 175.0 191.0 L 177.0 191.0 L 179.0 191.0 L 180.0 191.0 L 182.0 191.0 L 183.0 191.0 L 185.0 191.0 L 186.0 191.0 L 187.0 191.0 L 189.0 191.0 L 190.0 191.0 L 191.0 191.0 L 192.0 191.0 L 193.0 191.0 L 194.0 191.0 L 195.0 191.0 L 196.0 191.0 L 197.0 191.0 L 198.0 191.0 L 199.0 191.0 L 199.0 191.0 L 200.0 191.0 L 201.0 191.0 L 202.0 191.0 L 204.0 191.0 L 205.0 191.0 L 206.0 191.0 L 208.0 191.0 L 209.0 191.0 L 211.0 191.0 L 212.0 191.0 L 214.0 191.0 L 216.0 191.0 L 218.0 191.0 L 219.0 191.0 L 221.0 191.0 L 222.0 191.0 L 224.0 191.0 L 225.0 191.0 L 227.0 191.0 L 228.0 191.0 L 230.0 191.0 L 231.0 191.0 L 233.0 191.0 L 234.0 191.0 L 235.0 191.0 L 237.0 191.0 L 238.0 191.0 L 239.0 191.0 L 240.0 191.0 L 242.0 191.0 L 243.0 191.0 L 244.0 191.0 L 246.0 191.0 L 247.0 191.0 L 248.0 191.0 L 249.0 191.0 L 251.0 191.0 L 252.0 191.0 L 254.0 191.0 L 255.0 191.0 L 257.0 191.0 L 258.0 191.0 " stroke="black" fill="none" stroke-width="5.0" stroke-linecap="round" stroke-linejoin="round" />
<path d="M 77.0 218.0 L 77.0 218.0 L 77.0 218.0 L 77.0 218.0 L 77.0 218.0 L 78.0 218.0 L 78.0 218.0 L 79.0 218.0 L 80.0 217.0 L 82.0 217.0 L 83.0 217.0 L 85.0 217.0 L 87.0 217.0 L 89.0 217.0 L 90.0 217.0 L 91.0 217.0 L 93.0 217.0 L 94.0 217.0 L 95.0 217.0 L 97.0 217.0 L 98.0 217.0 L 99.0 217.0 L 100.0 217.0 L 101.0 217.0 L 103.0 217.0 L 104.0 217.0 L 105.0 217.0 L 106.0 217.0 L 107.0 217.0 L 108.0 217.0 L 109.0 217.0 L 110.0 217.0 L 111.0 217.0 L 112.0 217.0 L 114.0 217.0 L 115.0 217.0 L 116.0 217.0 L 118.0 218.0 L 119.0 218.0 L 121.0 218.0 L 122.0 218.0 L 124.0 218.0 L 126.0 218.0 L 128.0 218.0 L 130.0 218.0 L 132.0 218.0 L 134.0 218.0 L 136.0 218.0 L 138.0 218.0 L 140.0 218.0 L 142.0 218.0 L 144.0 218.0 L 146.0 218.0 L 147.0 218.0 L 148.0 218.0 L 150.0 218.0 L 151.0 218.0 L 152.0 218.0 L 153.0 218.0 L 153.0 218.0 L 154.0 219.0 L 155.0 219.0 L 156.0 219.0 L 157.0 219.0 L 157.0 219.0 L 158.0 219.0 L 159.0 219.0 L 160.0 219.0 L 161.0 219.0 L 162.0 219.0 L 163.0 219.0 L 164.0 219.0 L 165.0 219.0 L 166.0 219.0 L 167.0 219.0 L 168.0 219.0 L 170.0 219.0 L 171.0 219.0 L 172.0 219.0 L 174.0 219.0 L 175.0 220.0 L 177.0 220.0 L 178.0 220.0 L 179.0 220.0 L 181.0 221.0 L 182.0 221.0 L 184.0 221.0 L 186.0 221.0 L 187.0 222.0 L 189.0 222.0 L 190.0 222.0 L 191.0 222.0 L 192.0 222.0 L 193.0 222.0 L 194.0 222.0 L 194.0 223.0 L 195.0 223.0 L 196.0 223.0 L 197.0 224.0 L 198.0 224.0 L 198.0 224.0 L 199.0 224.0 L 200.0 224.0 L 201.0 224.0 L 202.0 224.0 L 203.0 224.0 L 204.0 224.0 L 205.0 224.0 L 207.0 224.0 L 208.0 224.0 L 209.0 224.0 L 211.0 223.0 L 213.0 223.0 L 215.0 223.0 L 217.0 222.0 L 219.0 222.0 L 220.0 222.0 L 222.0 221.0 L 222.0 221.0 " stroke="black" fill="none" stroke-width="5.0" stroke-linecap="round" stroke-linejoin="round" />
<path d="M 148.0 71.0 L 148.0 71.0 L 148.0 71.0 L 148.0 71.0 L 148.0 71.0 L 148.0 71.0 L 148.0 71.0 L 148.0 71.0 L 148.0 72.0 L 148.0 73.0 L 148.0 74.0 L 148.0 75.0 L 148.0 77.0 L 148.0 78.0 L 148.0 81.0 L 148.0 83.0 L 148.0 85.0 L 148.0 88.0 L 148.0 90.0 L 148.0 93.0 L 148.0 95.0 L 149.0 98.0 L 149.0 101.0 L 149.0 104.0 L 149.0 107.0 L 149.0 110.0 L 148.0 113.0 L 148.0 115.0 L 148.0 118.0 L 147.0 121.0 L 147.0 123.0 L 147.0 125.0 L 147.0 128.0 L 147.0 130.0 L 147.0 132.0 L 147.0 135.0 L 146.0 137.0 L 146.0 139.0 L 146.0 142.0 L 146.0 144.0 L 146.0 147.0 L 146.0 150.0 L 146.0 152.0 L 146.0 155.0 L 146.0 157.0 L 146.0 159.0 L 146.0 161.0 L 146.0 164.0 L 146.0 166.0 L 146.0 168.0 L 146.0 170.0 L 146.0 172.0 L 146.0 174.0 L 146.0 176.0 L 146.0 178.0 L 146.0 180.0 L 145.0 183.0 L 145.0 186.0 L 145.0 189.0 L 145.0 192.0 L 145.0 194.0 L 144.0 196.0 L 144.0 199.0 L 144.0 201.0 L 144.0 203.0 L 144.0 206.0 L 143.0 208.0 L 143.0 210.0 L 143.0 213.0 L 143.0 215.0 L 143.0 217.0 L 143.0 220.0 L 143.0 222.0 L 142.0 225.0 L 142.0 227.0 L 142.0 229.0 L 142.0 231.0 L 142.0 233.0 L 142.0 235.0 L 142.0 237.0 L 142.0 239.0 L 142.0 240.0 L 142.0 242.0 L 141.0 243.0 L 141.0 245.0 L 141.0 246.0 L 141.0 247.0 L 141.0 248.0 L 141.0 248.0 L 141.0 249.0 L 141.0 250.0 L 141.0 250.0 L 141.0 250.0 L 141.0 251.0 L 141.0 251.0 L 140.0 251.0 L 140.0 252.0 L 140.0 252.0 L 140.0 252.0 L 140.0 252.0 L 140.0 252.0 L 140.0 253.0 L 140.0 253.0 L 140.0 253.0 L 140.0 253.0 L 139.0 253.0 L 139.0 253.0 L 139.0 253.0 L 139.0 253.0 L 139.0 253.0 L 138.0 253.0 L 138.0 253.0 L 137.0 253.0 L 136.0 253.0 L 135.0 253.0 L 134.0 253.0 L 133.0 252.0 L 131.0 252.0 L 129.0 252.0 L 127.0 252.0 L 125.0 251.0 L 123.0 250.0 L 121.0 250.0 L 119.0 249.0 L 117.0 248.0 L 114.0 247.0 L 113.0 246.0 L 111.0 246.0 L 109.0 245.0 L 108.0 245.0 L 107.0 245.0 L 107.0 244.0 " stroke="black" fill="none" stroke-width="5.0" stroke-linecap="round" stroke-linejoin="round" />
</svg>