<svg xmlns="http://www.w3.org/2000/svg" width="300" height="300" viewBox="0 0 300 300">
<path d="M 65.0 84.0 L 65.0 84.0 L 65.0 84.0 L 65.0 84.0 L 64.0 84.0 L 64.0 84.0 L 64.0 84.0 L 64.0 84.0 L 64.0 84.0 L 64.0 84.0 L 64.0 84.0 L 64.0 84.0 L 64.0 84.0 L 64.0 84.0 L 64.0 84.0 L 64.0 84.0 L 64.0 84.0 L 65.0 83.0 L 65.0 83.0 L 66.0 83.0 L 66.0 83.0 L 67.0 83.0 L 67.0 83.0 L 68.0 83.0 L 69.0 83.0 L 69.0 83.0 L 70.0 83.0 L 70.0 83.0 L 71.0 83.0 L 72.0 83.0 L 72.0 83.0 L 73.0 83.0 L 74.0 83.0 L 75.0 84.0 L 75.0 84.0 L 76.0 84.0 L 77.0 84.0 L 78.0 84.0 L 79.0 84.0 L 80.0 84.0 L 81.0 84.0 L 82.0 84.0 L 84.0 84.0 L 86.0 84.0 L 87.0 84.0 L 89.0 84.0 L 91.0 84.0 L 92.0 84.0 L 94.0 84.0 L 95.0 83.0 L 96.0 83.0 L 97.0 83.0 L 98.0 83.0 L 99.0 83.0 L 100.0 83.0 L 100.0 83.0 L 101.0 83.0 L 101.0 83.0 L 102.0 83.0 L 103.0 83.0 L 103.0 83.0 L 104.0 83.0 L 104.0 83.0 L 105.0 83.0 L 105.0 83.0 L 106.0 83.0 L 106.0 83.0 L 107.0 83.0 L 107.0 83.0 L 107.0 83.0 L 108.0 83.0 L 108.0 83.0 L 108.0 83.0 L 109.0 83.0 L 109.0 83.0 L 110.0 83.0 L 110.0 83.0 L 111.0 83.0 L 112.0 83.0 L 112.0 83.0 L 113.0 83.0 L 114.0 83.0 L 115.0 83.0 L 116.0 82.0 L 116.0 82.0 L 117.0 82.0 L 118.0 82.0 L 119.0 82.0 L 120.0 82.0 L 121.0 81.0 L 122.0 81.0 L 123.0 81.0 L 124.0 81.0 L 124.0 81.0 L 125.0 81.0 L 126.0 81.0 L 127.0 81.0 L 128.0 81.0 L 129.0 81.0 L 129.0 81.0 L 130.0 81.0 L 131.0 81.0 L 131.0 81.0 L 132.0 81.0 L 133.0 81.0 L 133.0 81.0 L 134.0 81.0 L 135.0 81.0 L 135.0 81.0 L 136.0 82.0 L 136.0 82.0 L 137.0 82.0 L 138.0 82.0 L 138.0 82.0 L 139.0 82.0 L 139.0 82.0 L 140.0 82.0 L 140.0 83.0 L 141.0 83.0 L 141.0 83.0 L 142.0 83.0 L 142.0 83.0 L 143.0 83.0 L 143.0 83.0 L 144.0 83.0 L 144.0 83.0 L 145.0 83.0 L 145.0 83.0 L 146.0 83.0 L 146.0 83.0 L 147.0 83.0 L 147.0 83.0 L 148.0 83.0 L 148.0 83.0 L 149.0 83.0 L 149.0 83.0 L 150.0 83.0 L 150.0 83.0 L 151.0 83.0 L 151.0 83.0 L 152.0 83.0 L 152.0 83.0 L 153.0 84.0 L 153.0 84.0 L 154.0 84.0 L 154.0 84.0 L 155.0 84.0 L 155.0 84.0 L 156.0 84.0 L 157.0 84.0 L 157.0 84.0 L 158.0 84.0 L 159.0 84.0 L 159.0 84.0 L 160.0 84.0 L 161.0 84.0 L 161.0 84.0 L 162.0 84.0 L 163.0 84.0 L 164.0 84.0 L 164.0 84.0 L 165.0 84.0 L 166.0 84.0 L 167.0 84.0 L 168.0 84.0 L 168.0 84.0 L 169.0 84.0 L 170.0 84.0 L 171.0 84.0 L 172.0 84.0 L 172.0 85.0 L 173.0 85.0 L 174.0 85.0 L 175.0 85.0 L 176.0 85.0 L 177.0 85.0 L 178.0 85.0 L 178.0 85.0 L 179.0 85.0 L 180.0 85.0 L 181.0 85.0 L 181.0 85.0 L 182.0 85.0 L 183.0 85.0 L 184.0 85.0 L 184.0 85.0 L 185.0 85.0 L 186.0 85.0 L 186.0 85.0 L 187.0 85.0 L 188.0 85.0 L 188.0 85.0 L 189.0 85.0 L 190.0 85.0 L 190.0 85.0 L 191.0 85.0 L 192.0 85.0 L 192.0 85.0 L 193.0 85.0 L 194.0 85.0 L 194.0 85.0 L 195.0 85.0 L 196.0 85.0 L 196.0 85.0 L 197.0 85.0 L 197.0 85.0 L 198.0 85.0 L 199.0 85.0 L 199.0 85.0 L 200.0 85.0 L 201.0 85.0 L 201.0 85.0 L 202.0 85.0 L 203.0 85.0 L 203.0 85.0 L 204.0 85.0 L 205.0 85.0 L 205.0 85.0 L 206.0 85.0 L 207.0 85.0 L 207.0 85.0 L 208.0 85.0 L 209.0 85.0 L 210.0 85.0 L 210.0 85.0 L 211.0 85.0 L 212.0 85.0 L 213.0 85.0 L 214.0 85.0 L 214.0 85.0 L 215.0 85.0 L 215.0 85.0 L 216.0 85.0 L 217.0 85.0 L 218.0 85.0 L 219.0 86.0 L 221.0 86.0 L 222.0 86.0 L 223.0 86.0 L 224.0 86.0 L 225.0 86.0 L 226.0 86.0 L 227.0 86.0 L 228.0 86.0 L 229.0 86.0 L 230.0 86.0 L 231.0 86.0 L 231.0 86.0 L 232.0 86.0 " stroke="black" fill="none" stroke-width="5.0" stroke-linecap="round" stroke-linejoin="round" />
<path d="M 150.0 89.0 L 150.0 89.0 L 150.0 89.0 L 150.0 89.0 L 150.0 89.0 L 150.0 90.0 L 150.0 91.0 L 150.0 92.0 L 150.0 94.0 L 149.0 97.0 L 148.0 101.0 L 147.0 105.0 L 146.0 108.0 L 144.0 112.0 L 143.0 115.0 L 142.0 117.0 L 142.0 119.0 L 142.0 119.0 " stroke="black" fill="none" stroke-width="5.0" stroke-linecap="round" stroke-linejoin="round" />
<path d="M 75.0 131.0 L 75.0 131.0 L 75.0 131.0 L 75.0 131.0 L 75.0 132.0 L 75.0 133.0 L 75.0 133.0 L 75.0 134.0 L 75.0 136.0 L 75.0 137.0 L 75.0 139.0 L 75.0 141.0 L 75.0 143.0 L 75.0 146.0 L 75.0 149.0 L 75.0 152.0 L 75.0 155.0 L 75.0 158.0 L 75.0 161.0 L 75.0 164.0 L 75.0 167.0 L 74.0 170.0 L 74.0 173.0 L 74.0 175.0 L 74.0 178.0 L 74.0 180.0 L 74.0 183.0 L 74.0 186.0 L 74.0 189.0 L 74.0 191.0 L 74.0 194.0 L 74.0 196.0 L 74.0 198.0 L 74.0 200.0 L 74.0 202.0 L 74.0 204.0 L 74.0 206.0 L 74.0 208.0 L 74.0 209.0 L 74.0 211.0 L 74.0 214.0 L 74.0 216.0 L 74.0 219.0 L 74.0 222.0 L 74.0 225.0 L 74.0 229.0 L 74.0 232.0 L 74.0 236.0 L 75.0 239.0 L 75.0 241.0 L 75.0 243.0 L 75.0 243.0 L 75.0 243.0 " stroke="black" fill="none" stroke-width="5.0" stroke-linecap="round" stroke-linejoin="round" />
<path d="M 74.0 130.0 L 73.0 130.0 L 73.0 130.0 L 72.0 130.0 L 72.0 130.0 L 72.0 130.0 L 71.0 130.0 L 71.0 130.0 L 71.0 130.0 L 71.0 130.0 L 71.0 130.0 L 71.0 130.0 L 71.0 130.0 L 72.0 130.0 L 72.0 130.0 L 73.0 130.0 L 74.0 130.0 L 75.0 130.0 L 76.0 130.0 L 77.0 130.0 L 78.0 130.0 L 79.0 130.0 L 81.0 130.0 L 82.0 130.0 L 83.0 130.0 L 85.0 130.0 L 86.0 130.0 L 88.0 130.0 L 89.0 130.0 L 91.0 130.0 L 92.0 130.0 L 94.0 130.0 L 95.0 131.0 L 96.0 131.0 L 97.0 131.0 L 98.0 132.0 L 99.0 132.0 L 100.0 132.0 L 101.0 132.0 L 102.0 132.0 L 103.0 133.0 L 104.0 133.0 L 104.0 133.0 L 105.0 133.0 L 106.0 133.0 L 107.0 133.0 L 108.0 133.0 L 108.0 133.0 L 109.0 133.0 L 110.0 133.0 L 111.0 133.0 L 112.0 133.0 L 114.0 133.0 L 115.0 133.0 L 116.0 133.0 L 117.0 133.0 L 119.0 133.0 L 120.0 133.0 L 121.0 133.0 L 123.0 133.0 L 125.0 133.0 L 126.0 133.0 L 128.0 133.0 L 130.0 133.0 L 132.0 133.0 L 133.0 133.0 L 135.0 133.0 L 136.0 133.0 L 138.0 133.0 L 139.0 133.0 L 141.0 133.0 L 142.0 133.0 L 143.0 133.0 L 144.0 133.0 L 145.0 133.0 L 146.0 133.0 L 147.0 133.0 L 148.0 133.0 L 149.0 133.0 L 150.0 133.0 L 150.0 132.0 L 151.0 132.0 L 152.0 132.0 L 153.0 132.0 L 153.0 132.0 L 154.0 132.0 L 155.0 132.0 L 156.0 132.0 L 157.0 132.0 L 157.0 132.0 L 158.0 132.0 L 159.0 132.0 L 160.0 132.0 L 161.0 132.0 L 162.0 132.0 L 163.0 132.0 L 164.0 132.0 L 165.0 132.0 L 166.0 132.0 L 167.0 132.0 L 168.0 132.0 L 169.0 132.0 L 170.0 132.0 L 171.0 132.0 L 173.0 132.0 L 174.0 132.0 L 175.0 132.0 L 176.0 132.0 L 177.0 132.0 L 178.0 132.0 L 179.0 132.0 L 180.0 132.0 L 182.0 132.0 L 183.0 132.0 L 184.0 132.0 L 185.0 132.0 L 186.0 132.0 L 187.0 132.0 L 189.0 132.0 L 190.0 132.0 L 191.0 132.0 L 192.0 132.0 L 193.0 132.0 L 194.0 132.0 L 195.0 132.0 L 196.0 132.0 L 197.0 132.0 L 198.0 132.0 L 199.0 132.0 L 200.0 132.0 L 201.0 132.0 L 202.0 132.0 L 204.0 132.0 L 205.0 132.0 L 206.0 132.0 L 207.0 132.0 L 209.0 132.0 L 210.0 132.0 L 211.0 132.0 L 212.0 132.0 L 214.0 132.0 L 215.0 132.0 L 216.0 132.0 L 217.0 132.0 L 218.0 132.0 L 219.0 132.0 L 220.0 132.0 L 221.0 132.0 L 222.0 132.0 L 222.0 132.0 L 223.0 132.0 L 224.0 132.0 L 224.0 132.0 L 224.0 132.0 L 225.0 132.0 L 225.0 132.0 L 225.0 132.0 L 226.0 132.0 L 226.0 132.0 L 226.0 132.0 L 226.0 133.0 L 227.0 133.0 L 227.0 133.0 L 227.0 134.0 L 227.0 135.0 L 227.0 136.0 L 227.0 137.0 L 227.0 139.0 L 227.0 141.0 L 227.0 144.0 L 227.0 147.0 L 227.0 151.0 L 227.0 154.0 L 227.0 157.0 L 227.0 160.0 L 226.0 162.0 L 226.0 165.0 L 226.0 166.0 L 226.0 168.0 L 226.0 169.0 L 226.0 171.0 L 226.0 172.0 L 226.0 174.0 L 226.0 176.0 L 226.0 178.0 L 226.0 181.0 L 226.0 183.0 L 226.0 186.0 L 226.0 189.0 L 226.0 191.0 L 226.0 193.0 L 226.0 195.0 L 226.0 197.0 L 225.0 199.0 L 225.0 201.0 L 225.0 203.0 L 225.0 206.0 L 224.0 208.0 L 224.0 210.0 L 224.0 213.0 L 224.0 216.0 L 224.0 219.0 L 224.0 223.0 L 223.0 226.0 L 223.0 229.0 L 223.0 232.0 L 223.0 234.0 L 223.0 236.0 L 223.0 238.0 L 223.0 240.0 L 223.0 241.0 L 223.0 243.0 L 223.0 244.0 L 223.0 245.0 L 222.0 246.0 L 222.0 247.0 L 222.0 247.0 L 221.0 248.0 L 221.0 248.0 L 220.0 249.0 L 220.0 249.0 L 219.0 249.0 L 218.0 249.0 L 218.0 249.0 L 217.0 249.0 L 216.0 249.0 L 214.0 249.0 L 213.0 249.0 L 211.0 249.0 L 209.0 248.0 L 207.0 248.0 L 205.0 246.0 L 201.0 244.0 " stroke="black" fill="none" stroke-width="5.0" stroke-linecap="round" stroke-linejoin="round" />
<path d="M 124.0 140.0 L 124.0 140.0 L 124.0 141.0 L 124.0 142.0 L 124.0 144.0 L 125.0 146.0 L 125.0 149.0 L 125.0 152.0 L 125.0 157.0 L 125.0 164.0 L 124.0 171.0 L 123.0 179.0 L 123.0 188.0 L 123.0 195.0 L 122.0 203.0 L 122.0 209.0 L 122.0 216.0 L 122.0 223.0 L 122.0 229.0 L 122.0 236.0 L 123.0 241.0 L 124.0 243.0 L 125.0 244.0 " stroke="black" fill="none" stroke-width="5.0" stroke-linecap="round" stroke-linejoin="round" />
<path d="M 170.0 138.0 L 170.0 138.0 L 170.0 138.0 L 170.0 139.0 L 170.0 140.0 L 170.0 141.0 L 170.0 143.0 L 170.0 145.0 L 170.0 147.0 L 170.0 151.0 L 170.0 156.0 L 170.0 162.0 L 170.0 170.0 L 170.0 180.0 L 170.0 191.0 L 170.0 201.0 L 170.0 209.0 L 170.0 217.0 L 170.0 222.0 L 171.0 226.0 L 171.0 230.0 L 172.0 233.0 L 173.0 236.0 L 173.0 237.0 L 173.0 238.0 L 173.0 239.0 L 173.0 239.0 L 173.0 239.0 L 173.0 239.0 L 172.0 239.0 " stroke="black" fill="none" stroke-width="5.0" stroke-linecap="round" stroke-linejoin="round" />
</svg>