<svg xmlns="http://www.w3.org/2000/svg" width="300" height="300" viewBox="0 0 300 300">
<path d="M 63.0 89.0 L 63.0 89.0 L 63.0 89.0 L 62.0 88.0 L 62.0 87.0 L 62.0 87.0 L 62.0 87.0 L 62.0 86.0 L 62.0 86.0 L 63.0 86.0 L 65.0 86.0 L 67.0 86.0 L 70.0 86.0 L 73.0 86.0 L 77.0 86.0 L 82.0 86.0 L 87.0 86.0 L 93.0 86.0 L 98.0 86.0 L 103.0 86.0 L 108.0 86.0 L 112.0 87.0 L 117.0 87.0 L 123.0 87.0 L 130.0 87.0 L 137.0 88.0 L 145.0 88.0 L 150.0 88.0 L 155.0 88.0 L 160.0 88.0 L 165.0 88.0 L 169.0 88.0 L 174.0 88.0 L 178.0 88.0 L 182.0 88.0 L 185.0 88.0 L 188.0 88.0 L 190.0 88.0 L 192.0 88.0 L 194.0 88.0 L 196.0 88.0 L 198.0 88.0 L 200.0 88.0 L 202.0 88.0 L 205.0 88.0 L 207.0 87.0 L 210.0 87.0 L 213.0 87.0 L 215.0 87.0 L 217.0 87.0 L 219.0 87.0 L 220.0 87.0 L 221.0 87.0 " stroke="black" fill="none" stroke-width="5.0" stroke-linecap="round" stroke-linejoin="round" />
<path d="M 152.0 97.0 L 152.0 97.0 L 152.0 97.0 L 152.0 97.0 L 151.0 97.0 L 151.0 97.0 L 150.0 99.0 L 149.0 100.0 L 147.0 103.0 L 145.0 107.0 L 142.0 112.0 L 139.0 117.0 L 137.0 122.0 L 134.0 126.0 L 133.0 129.0 L 132.0 131.0 " stroke="black" fill="none" stroke-width="5.0" stroke-linecap="round" stroke-linejoin="round" />
<path d="M 77.0 135.0 L 77.0 135.0 L 77.0 135.0 L 77.0 135.0 L 77.0 135.0 L 77.0 136.0 L 77.0 137.0 L 77.0 138.0 L 77.0 140.0 L 77.0 143.0 L 77.0 148.0 L 77.0 154.0 L 77.0 161.0 L 77.0 170.0 L 77.0 182.0 L 77.0 193.0 L 77.0 203.0 L 76.0 212.0 L 76.0 219.0 L 76.0 224.0 L 76.0 228.0 L 76.0 230.0 L 77.0 231.0 L 78.0 231.0 L 79.0 231.0 " stroke="black" fill="none" stroke-width="5.0" stroke-linecap="round" stroke-linejoin="round" />
<path d="M 74.0 139.0 L 74.0 139.0 L 74.0 139.0 L 74.0 139.0 L 73.0 139.0 L 73.0 139.0 L 73.0 139.0 L 73.0 139.0 L 73.0 139.0 L 73.0 140.0 L 73.0 140.0 L 74.0 140.0 L 75.0 140.0 L 76.0 141.0 L 78.0 141.0 L 80.0 141.0 L 82.0 141.0 L 83.0 141.0 L 86.0 141.0 L 88.0 141.0 L 90.0 141.0 L 93.0 141.0 L 95.0 141.0 L 97.0 141.0 L 99.0 141.0 L 101.0 141.0 L 103.0 141.0 L 104.0 140.0 L 105.0 140.0 L 107.0 140.0 L 108.0 139.0 L 108.0 139.0 L 109.0 139.0 L 110.0 139.0 L 110.0 139.0 L 111.0 139.0 L 112.0 139.0 L 113.0 139.0 L 114.0 139.0 L 115.0 139.0 L 116.0 139.0 L 117.0 139.0 L 118.0 139.0 L 119.0 139.0 L 120.0 139.0 L 121.0 139.0 L 122.0 139.0 L 123.0 139.0 L 125.0 139.0 L 126.0 139.0 L 128.0 139.0 L 129.0 138.0 L 131.0 138.0 L 133.0 138.0 L 134.0 138.0 L 136.0 137.0 L 137.0 137.0 L 139.0 137.0 L 140.0 137.0 L 141.0 136.0 L 143.0 136.0 L 144.0 136.0 L 145.0 136.0 L 146.0 136.0 L 147.0 136.0 L 148.0 136.0 L 149.0 136.0 L 150.0 136.0 L 151.0 136.0 L 151.0 136.0 L 152.0 136.0 L 153.0 136.0 L 154.0 136.0 L 154.0 136.0 L 155.0 136.0 L 156.0 136.0 L 157.0 136.0 L 158.0 136.0 L 159.0 136.0 L 160.0 136.0 L 162.0 136.0 L 163.0 136.0 L 164.0 136.0 L 166.0 136.0 L 167.0 136.0 L 169.0 136.0 L 170.0 136.0 L 172.0 136.0 L 174.0 136.0 L 176.0 136.0 L 178.0 135.0 L 180.0 135.0 L 181.0 135.0 L 183.0 135.0 L 185.0 135.0 L 187.0 135.0 L 188.0 135.0 L 190.0 135.0 L 191.0 134.0 L 193.0 134.0 L 194.0 134.0 L 195.0 134.0 L 196.0 134.0 L 197.0 134.0 L 198.0 134.0 L 199.0 134.0 L 200.0 134.0 L 201.0 134.0 L 202.0 134.0 L 203.0 134.0 L 204.0 134.0 L 205.0 134.0 L 206.0 134.0 L 207.0 134.0 L 208.0 134.0 L 209.0 134.0 L 211.0 134.0 L 212.0 134.0 L 213.0 134.0 L 214.0 134.0 L 216.0 135.0 L 217.0 135.0 L 218.0 135.0 L 219.0 135.0 L 220.0 136.0 L 220.0 136.0 L 221.0 136.0 L 221.0 137.0 L 222.0 137.0 L 222.0 137.0 L 222.0 138.0 L 223.0 139.0 L 223.0 139.0 L 223.0 140.0 L 223.0 142.0 L 223.0 143.0 L 223.0 144.0 L 223.0 146.0 L 223.0 148.0 L 223.0 150.0 L 223.0 153.0 L 223.0 155.0 L 223.0 158.0 L 223.0 160.0 L 223.0 163.0 L 223.0 165.0 L 222.0 167.0 L 222.0 169.0 L 221.0 171.0 L 221.0 173.0 L 221.0 176.0 L 220.0 178.0 L 220.0 180.0 L 220.0 183.0 L 220.0 186.0 L 220.0 189.0 L 220.0 191.0 L 220.0 194.0 L 220.0 196.0 L 220.0 198.0 L 220.0 200.0 L 220.0 201.0 L 220.0 203.0 L 220.0 205.0 L 220.0 207.0 L 220.0 209.0 L 220.0 211.0 L 220.0 214.0 L 220.0 216.0 L 220.0 218.0 L 220.0 221.0 L 220.0 224.0 L 220.0 227.0 L 220.0 229.0 L 220.0 232.0 L 220.0 235.0 L 220.0 237.0 L 220.0 239.0 L 220.0 241.0 L 220.0 242.0 L 221.0 243.0 L 221.0 243.0 L 221.0 244.0 L 221.0 245.0 L 221.0 246.0 L 220.0 247.0 L 220.0 248.0 L 219.0 249.0 L 218.0 250.0 L 218.0 250.0 L 217.0 250.0 L 216.0 250.0 L 215.0 250.0 L 214.0 250.0 L 212.0 249.0 L 209.0 247.0 L 205.0 245.0 L 202.0 244.0 L 199.0 242.0 L 196.0 240.0 " stroke="black" fill="none" stroke-width="5.0" stroke-linecap="round" stroke-linejoin="round" />
<path d="M 123.0 144.0 L 123.0 144.0 L 123.0 144.0 L 124.0 144.0 L 124.0 144.0 L 124.0 145.0 L 124.0 148.0 L 125.0 151.0 L 125.0 156.0 L 125.0 163.0 L 125.0 172.0 L 125.0 183.0 L 125.0 195.0 L 125.0 206.0 L 125.0 216.0 L 125.0 226.0 L 126.0 233.0 L 128.0 238.0 L 129.0 241.0 L 130.0 243.0 L 131.0 243.0 " stroke="black" fill="none" stroke-width="5.0" stroke-linecap="round" stroke-linejoin="round" />
<path d="M 175.0 146.0 L 175.0 146.0 L 175.0 146.0 L 174.0 146.0 L 173.0 147.0 L 172.0 149.0 L 171.0 151.0 L 171.0 154.0 L 171.0 158.0 L 171.0 164.0 L 171.0 172.0 L 171.0 182.0 L 171.0 193.0 L 171.0 204.0 L 171.0 214.0 L 172.0 225.0 L 172.0 234.0 L 172.0 241.0 L 172.0 247.0 L 172.0 250.0 L 173.0 251.0 L 173.0 251.0 L 173.0 251.0 L 174.0 250.0 " stroke="black" fill="none" stroke-width="5.0" stroke-linecap="round" stroke-linejoin="round" />
</svg>