<svg xmlns="http://www.w3.org/2000/svg" width="300" height="300" viewBox="0 0 300 300">
<path d="M 71.0 84.0 L 71.0 84.0 L 70.0 84.0 L 69.0 84.0 L 69.0 84.0 L 68.0 84.0 L 68.0 84.0 L 68.0 84.0 L 68.0 84.0 L 68.0 84.0 L 68.0 84.0 L 68.0 84.0 L 68.0 84.0 L 69.0 84.0 L 70.0 84.0 L 72.0 84.0 L 73.0 84.0 L 75.0 84.0 L 76.0 84.0 L 78.0 84.0 L 80.0 84.0 L 82.0 84.0 L 84.0 84.0 L 87.0 84.0 L 89.0 84.0 L 91.0 85.0 L 94.0 85.0 L 96.0 85.0 L 99.0 85.0 L 101.0 85.0 L 103.0 85.0 L 106.0 85.0 L 108.0 85.0 L 109.0 85.0 L 111.0 85.0 L 113.0 85.0 L 115.0 85.0 L 116.0 85.0 L 119.0 85.0 L 120.0 85.0 L 123.0 85.0 L 125.0 85.0 L 127.0 85.0 L 130.0 85.0 L 132.0 85.0 L 135.0 85.0 L 137.0 85.0 L 139.0 85.0 L 141.0 85.0 L 143.0 85.0 L 145.0 85.0 L 146.0 85.0 L 148.0 85.0 L 149.0 86.0 L 150.0 86.0 L 152.0 86.0 L 153.0 87.0 L 154.0 87.0 L 156.0 87.0 L 157.0 88.0 L 159.0 88.0 L 160.0 88.0 L 162.0 88.0 L 164.0 89.0 L 166.0 89.0 L 168.0 89.0 L 171.0 89.0 L 173.0 89.0 L 176.0 89.0 L 178.0 89.0 L 181.0 89.0 L 183.0 89.0 L 185.0 88.0 L 187.0 88.0 L 188.0 88.0 L 190.0 88.0 L 192.0 88.0 L 194.0 88.0 L 196.0 88.0 L 198.0 89.0 L 200.0 89.0 L 202.0 89.0 L 205.0 89.0 L 207.0 89.0 L 209.0 89.0 L 212.0 89.0 L 214.0 90.0 L 216.0 90.0 L 219.0 90.0 L 221.0 90.0 L 223.0 91.0 L 225.0 91.0 L 226.0 91.0 L 228.0 91.0 L 229.0 91.0 L 230.0 92.0 L 231.0 92.0 L 232.0 92.0 " stroke="black" fill="none" stroke-width="5.0" stroke-linecap="round" stroke-linejoin="round" />
<path d="M 152.0 93.0 L 152.0 94.0 L 152.0 95.0 L 152.0 96.0 L 151.0 99.0 L 150.0 103.0 L 148.0 107.0 L 146.0 113.0 L 142.0 118.0 L 139.0 124.0 L 136.0 128.0 " stroke="black" fill="none" stroke-width="5.0" stroke-linecap="round" stroke-linejoin="round" />
<path d="M 74.0 133.0 L 74.0 133.0 L 74.0 133.0 L 73.0 133.0 L 73.0 133.0 L 72.0 134.0 L 72.0 135.0 L 72.0 137.0 L 72.0 140.0 L 72.0 144.0 L 72.0 148.0 L 72.0 154.0 L 72.0 159.0 L 72.0 166.0 L 71.0 174.0 L 71.0 182.0 L 70.0 191.0 L 70.0 200.0 L 70.0 208.0 L 70.0 216.0 L 70.0 224.0 L 70.0 230.0 L 70.0 234.0 L 70.0 238.0 L 70.0 239.0 " stroke="black" fill="none" stroke-width="5.0" stroke-linecap="round" stroke-linejoin="round" />
<path d="M 78.0 137.0 L 78.0 137.0 L 78.0 137.0 L 77.0 137.0 L 77.0 137.0 L 76.0 137.0 L 76.0 137.0 L 76.0 137.0 L 76.0 137.0 L 77.0 137.0 L 78.0 137.0 L 79.0 137.0 L 80.0 136.0 L 81.0 136.0 L 82.0 136.0 L 84.0 136.0 L 85.0 136.0 L 87.0 136.0 L 89.0 137.0 L 91.0 137.0 L 93.0 138.0 L 95.0 138.0 L 97.0 138.0 L 99.0 139.0 L 101.0 139.0 L 103.0 139.0 L 105.0 139.0 L 106.0 139.0 L 108.0 139.0 L 109.0 139.0 L 110.0 139.0 L 112.0 139.0 L 113.0 139.0 L 115.0 139.0 L 116.0 139.0 L 118.0 139.0 L 119.0 138.0 L 121.0 138.0 L 122.0 138.0 L 124.0 137.0 L 126.0 137.0 L 127.0 137.0 L 129.0 137.0 L 131.0 137.0 L 132.0 136.0 L 134.0 136.0 L 136.0 136.0 L 138.0 136.0 L 140.0 136.0 L 141.0 136.0 L 142.0 136.0 L 144.0 136.0 L 145.0 135.0 L 146.0 135.0 L 148.0 135.0 L 148.0 135.0 L 149.0 135.0 L 150.0 135.0 L 151.0 135.0 L 152.0 135.0 L 152.0 135.0 L 153.0 135.0 L 154.0 135.0 L 154.0 135.0 L 155.0 135.0 L 156.0 135.0 L 157.0 135.0 L 158.0 135.0 L 159.0 135.0 L 160.0 135.0 L 162.0 135.0 L 163.0 135.0 L 165.0 135.0 L 167.0 135.0 L 168.0 135.0 L 170.0 136.0 L 172.0 136.0 L 174.0 136.0 L 177.0 136.0 L 179.0 136.0 L 181.0 136.0 L 184.0 136.0 L 186.0 136.0 L 188.0 136.0 L 190.0 136.0 L 192.0 136.0 L 194.0 136.0 L 196.0 136.0 L 197.0 136.0 L 198.0 135.0 L 200.0 135.0 L 201.0 135.0 L 203.0 135.0 L 205.0 135.0 L 206.0 135.0 L 208.0 135.0 L 210.0 135.0 L 212.0 135.0 L 214.0 135.0 L 216.0 135.0 L 218.0 135.0 L 220.0 136.0 L 222.0 136.0 L 223.0 136.0 L 225.0 136.0 L 226.0 136.0 L 226.0 137.0 L 227.0 137.0 L 227.0 138.0 L 227.0 138.0 L 227.0 139.0 L 227.0 140.0 L 227.0 141.0 L 227.0 142.0 L 227.0 143.0 L 227.0 145.0 L 227.0 147.0 L 227.0 149.0 L 227.0 151.0 L 227.0 154.0 L 226.0 157.0 L 226.0 161.0 L 226.0 165.0 L 225.0 169.0 L 225.0 174.0 L 224.0 179.0 L 224.0 185.0 L 224.0 190.0 L 224.0 195.0 L 224.0 199.0 L 224.0 202.0 L 224.0 205.0 L 224.0 207.0 L 224.0 209.0 L 223.0 211.0 L 223.0 214.0 L 223.0 217.0 L 222.0 220.0 L 222.0 223.0 L 221.0 227.0 L 221.0 230.0 L 221.0 234.0 L 221.0 237.0 L 220.0 240.0 L 220.0 243.0 L 220.0 244.0 L 219.0 246.0 L 219.0 247.0 L 218.0 248.0 L 217.0 248.0 L 217.0 249.0 L 216.0 249.0 L 215.0 249.0 L 214.0 250.0 L 213.0 250.0 L 211.0 250.0 L 208.0 249.0 L 205.0 248.0 L 201.0 246.0 L 197.0 243.0 " stroke="black" fill="none" stroke-width="5.0" stroke-linecap="round" stroke-linejoin="round" />
<path d="M 123.0 144.0 L 123.0 144.0 L 123.0 144.0 L 123.0 144.0 L 123.0 144.0 L 124.0 144.0 L 124.0 144.0 L 124.0 146.0 L 124.0 149.0 L 125.0 155.0 L 125.0 163.0 L 125.0 175.0 L 124.0 188.0 L 124.0 202.0 L 124.0 215.0 L 124.0 226.0 L 124.0 235.0 L 124.0 242.0 L 124.0 246.0 L 124.0 247.0 " stroke="black" fill="none" stroke-width="5.0" stroke-linecap="round" stroke-linejoin="round" />
<path d="M 172.0 143.0 L 172.0 143.0 L 172.0 142.0 L 172.0 142.0 L 172.0 142.0 L 172.0 142.0 L 172.0 142.0 L 172.0 143.0 L 172.0 146.0 L 172.0 150.0 L 172.0 155.0 L 172.0 163.0 L 172.0 172.0 L 172.0 183.0 L 172.0 196.0 L 172.0 206.0 L 171.0 216.0 L 171.0 226.0 L 171.0 234.0 L 171.0 241.0 L 171.0 246.0 L 171.0 248.0 L 171.0 249.0 " stroke="black" fill="none" stroke-width="5.0" stroke-linecap="round" stroke-linejoin="round" />
</svg>