<svg xmlns="http://www.w3.org/2000/svg" width="300" height="300" viewBox="0 0 300 300">
<path d="M 71.0 87.0 L 71.0 87.0 L 71.0 87.0 L 70.0 87.0 L 70.0 87.0 L 69.0 87.0 L 69.0 87.0 L 69.0 87.0 L 69.0 87.0 L 69.0 87.0 L 69.0 87.0 L 69.0 87.0 L 69.0 87.0 L 69.0 87.0 L 69.0 87.0 L 70.0 87.0 L 70.0 87.0 L 71.0 87.0 L 72.0 87.0 L 73.0 87.0 L 74.0 87.0 L 75.0 87.0 L 76.0 88.0 L 77.0 88.0 L 79.0 88.0 L 80.0 88.0 L 82.0 88.0 L 84.0 88.0 L 87.0 88.0 L 89.0 88.0 L 91.0 88.0 L 93.0 89.0 L 95.0 89.0 L 98.0 89.0 L 100.0 89.0 L 101.0 89.0 L 103.0 89.0 L 105.0 89.0 L 107.0 89.0 L 108.0 89.0 L 109.0 89.0 L 110.0 89.0 L 112.0 89.0 L 113.0 89.0 L 114.0 89.0 L 115.0 89.0 L 116.0 89.0 L 118.0 89.0 L 119.0 89.0 L 121.0 89.0 L 123.0 89.0 L 124.0 89.0 L 126.0 89.0 L 128.0 89.0 L 130.0 89.0 L 132.0 89.0 L 133.0 89.0 L 135.0 89.0 L 137.0 89.0 L 139.0 89.0 L 140.0 89.0 L 142.0 89.0 L 143.0 89.0 L 145.0 89.0 L 146.0 89.0 L 148.0 89.0 L 149.0 89.0 L 150.0 89.0 L 152.0 89.0 L 153.0 89.0 L 154.0 89.0 L 155.0 89.0 L 156.0 89.0 L 157.0 89.0 L 159.0 89.0 L 160.0 89.0 L 162.0 89.0 L 164.0 89.0 L 166.0 90.0 L 168.0 90.0 L 170.0 90.0 L 173.0 90.0 L 175.0 90.0 L 178.0 91.0 L 181.0 91.0 L 183.0 91.0 L 186.0 92.0 L 189.0 92.0 L 191.0 92.0 L 193.0 92.0 L 196.0 92.0 L 198.0 92.0 L 201.0 92.0 L 204.0 92.0 L 207.0 92.0 L 210.0 92.0 L 214.0 92.0 L 218.0 92.0 L 221.0 91.0 L 226.0 91.0 L 229.0 91.0 L 232.0 90.0 L 235.0 90.0 L 237.0 90.0 L 238.0 90.0 L 238.0 90.0 L 238.0 91.0 " stroke="black" fill="none" stroke-width="5.0" stroke-linecap="round" stroke-linejoin="round" />
<path d="M 152.0 92.0 L 152.0 92.0 L 152.0 93.0 L 152.0 93.0 L 151.0 95.0 L 150.0 98.0 L 149.0 102.0 L 147.0 107.0 L 145.0 112.0 L 143.0 118.0 L 141.0 122.0 L 139.0 127.0 L 139.0 129.0 " stroke="black" fill="none" stroke-width="5.0" stroke-linecap="round" stroke-linejoin="round" />
<path d="M 77.0 133.0 L 77.0 133.0 L 77.0 133.0 L 77.0 133.0 L 77.0 133.0 L 77.0 134.0 L 77.0 134.0 L 77.0 136.0 L 76.0 139.0 L 76.0 143.0 L 76.0 149.0 L 76.0 156.0 L 75.0 165.0 L 75.0 175.0 L 75.0 185.0 L 75.0 195.0 L 75.0 205.0 L 75.0 211.0 L 74.0 216.0 L 74.0 220.0 L 74.0 223.0 L 74.0 224.0 L 74.0 224.0 " stroke="black" fill="none" stroke-width="5.0" stroke-linecap="round" stroke-linejoin="round" />
<path d="M 78.0 132.0 L 78.0 132.0 L 77.0 132.0 L 77.0 132.0 L 76.0 132.0 L 76.0 132.0 L 76.0 132.0 L 76.0 133.0 L 76.0 133.0 L 76.0 133.0 L 76.0 133.0 L 77.0 133.0 L 78.0 133.0 L 80.0 133.0 L 81.0 132.0 L 83.0 132.0 L 84.0 132.0 L 86.0 131.0 L 88.0 131.0 L 90.0 131.0 L 92.0 131.0 L 94.0 130.0 L 97.0 130.0 L 99.0 130.0 L 101.0 129.0 L 104.0 129.0 L 105.0 129.0 L 107.0 129.0 L 108.0 129.0 L 110.0 129.0 L 111.0 129.0 L 112.0 129.0 L 113.0 129.0 L 114.0 129.0 L 115.0 129.0 L 117.0 129.0 L 118.0 128.0 L 120.0 128.0 L 122.0 128.0 L 124.0 128.0 L 126.0 128.0 L 127.0 128.0 L 129.0 128.0 L 131.0 128.0 L 133.0 128.0 L 135.0 128.0 L 137.0 128.0 L 139.0 128.0 L 141.0 128.0 L 144.0 127.0 L 146.0 127.0 L 147.0 127.0 L 149.0 126.0 L 150.0 126.0 L 152.0 126.0 L 153.0 125.0 L 154.0 125.0 L 155.0 125.0 L 156.0 125.0 L 157.0 125.0 L 158.0 125.0 L 160.0 125.0 L 161.0 125.0 L 162.0 125.0 L 164.0 125.0 L 165.0 125.0 L 167.0 125.0 L 169.0 125.0 L 170.0 125.0 L 172.0 125.0 L 174.0 125.0 L 175.0 126.0 L 177.0 126.0 L 178.0 126.0 L 180.0 126.0 L 181.0 126.0 L 183.0 126.0 L 184.0 127.0 L 186.0 127.0 L 187.0 127.0 L 188.0 127.0 L 189.0 127.0 L 190.0 127.0 L 191.0 127.0 L 192.0 127.0 L 193.0 127.0 L 194.0 127.0 L 195.0 127.0 L 196.0 127.0 L 197.0 127.0 L 198.0 127.0 L 199.0 127.0 L 200.0 127.0 L 201.0 127.0 L 202.0 128.0 L 203.0 128.0 L 204.0 128.0 L 205.0 128.0 L 205.0 129.0 L 206.0 129.0 L 207.0 129.0 L 208.0 129.0 L 209.0 129.0 L 210.0 129.0 L 211.0 129.0 L 212.0 129.0 L 213.0 130.0 L 213.0 130.0 L 214.0 130.0 L 215.0 130.0 L 215.0 131.0 L 216.0 131.0 L 216.0 132.0 L 217.0 132.0 L 217.0 133.0 L 217.0 133.0 L 218.0 134.0 L 218.0 136.0 L 218.0 137.0 L 218.0 139.0 L 218.0 141.0 L 218.0 144.0 L 218.0 147.0 L 218.0 150.0 L 218.0 154.0 L 218.0 157.0 L 218.0 161.0 L 218.0 165.0 L 218.0 170.0 L 218.0 175.0 L 218.0 180.0 L 218.0 185.0 L 218.0 189.0 L 218.0 193.0 L 218.0 195.0 L 218.0 197.0 L 218.0 198.0 L 218.0 200.0 L 218.0 201.0 L 218.0 202.0 L 218.0 205.0 L 218.0 208.0 L 218.0 211.0 L 218.0 213.0 L 218.0 216.0 L 217.0 218.0 L 216.0 220.0 L 216.0 222.0 L 216.0 224.0 L 215.0 225.0 L 215.0 227.0 L 215.0 228.0 L 215.0 229.0 L 215.0 230.0 L 214.0 231.0 L 214.0 232.0 L 214.0 233.0 L 213.0 234.0 L 213.0 236.0 L 213.0 237.0 L 212.0 238.0 L 212.0 239.0 L 212.0 241.0 L 212.0 241.0 L 212.0 242.0 L 212.0 243.0 L 212.0 243.0 L 212.0 244.0 L 212.0 244.0 L 212.0 244.0 L 212.0 245.0 L 212.0 245.0 L 212.0 245.0 L 212.0 245.0 L 212.0 245.0 L 211.0 245.0 L 211.0 245.0 L 210.0 245.0 L 209.0 244.0 L 208.0 244.0 L 205.0 243.0 L 203.0 241.0 L 200.0 239.0 L 197.0 237.0 L 194.0 235.0 L 192.0 233.0 L 191.0 232.0 " stroke="black" fill="none" stroke-width="5.0" stroke-linecap="round" stroke-linejoin="round" />
<path d="M 124.0 134.0 L 124.0 134.0 L 123.0 134.0 L 123.0 134.0 L 122.0 134.0 L 121.0 134.0 L 121.0 135.0 L 121.0 136.0 L 121.0 139.0 L 121.0 143.0 L 122.0 150.0 L 122.0 158.0 L 123.0 168.0 L 123.0 180.0 L 123.0 193.0 L 123.0 204.0 L 123.0 215.0 L 122.0 223.0 L 122.0 229.0 L 122.0 234.0 L 122.0 235.0 L 122.0 235.0 " stroke="black" fill="none" stroke-width="5.0" stroke-linecap="round" stroke-linejoin="round" />
<path d="M 168.0 139.0 L 168.0 138.0 L 168.0 137.0 L 168.0 137.0 L 168.0 137.0 L 168.0 137.0 L 168.0 138.0 L 168.0 141.0 L 168.0 145.0 L 169.0 150.0 L 169.0 156.0 L 169.0 163.0 L 169.0 173.0 L 169.0 184.0 L 168.0 195.0 L 167.0 205.0 L 167.0 213.0 L 166.0 220.0 L 166.0 226.0 L 166.0 230.0 L 166.0 232.0 L 166.0 232.0 L 167.0 232.0 " stroke="black" fill="none" stroke-width="5.0" stroke-linecap="round" stroke-linejoin="round" />
</svg>