<svg xmlns="http://www.w3.org/2000/svg" width="300" height="300" viewBox="0 0 300 300">
<path d="M 78.0 81.0 L 78.0 81.0 L 78.0 81.0 L 79.0 81.0 L 81.0 82.0 L 85.0 82.0 L 91.0 83.0 L 99.0 83.0 L 107.0 84.0 L 118.0 84.0 L 132.0 85.0 L 146.0 85.0 L 158.0 85.0 L 172.0 85.0 L 185.0 85.0 L 195.0 85.0 L 203.0 85.0 L 208.0 84.0 L 213.0 84.0 L 218.0 84.0 L 221.0 85.0 L 223.0 85.0 L 225.0 86.0 " stroke="black" fill="none" stroke-width="5.0" stroke-linecap="round" stroke-linejoin="round" />
<path d="M 152.0 94.0 L 152.0 94.0 L 151.0 94.0 L 150.0 94.0 L 150.0 94.0 L 149.0 96.0 L 147.0 100.0 L 144.0 105.0 L 141.0 112.0 L 136.0 120.0 L 131.0 128.0 L 127.0 134.0 L 124.0 139.0 " stroke="black" fill="none" stroke-width="5.0" stroke-linecap="round" stroke-linejoin="round" />
<path d="M 75.0 140.0 L 75.0 140.0 L 75.0 140.0 L 75.0 140.0 L 75.0 140.0 L 74.0 140.0 L 74.0 140.0 L 74.0 142.0 L 74.0 146.0 L 74.0 150.0 L 74.0 157.0 L 74.0 165.0 L 74.0 175.0 L 74.0 187.0 L 74.0 199.0 L 73.0 211.0 L 73.0 223.0 L 72.0 232.0 L 71.0 239.0 L 70.0 244.0 L 70.0 244.0 " stroke="black" fill="none" stroke-width="5.0" stroke-linecap="round" stroke-linejoin="round" />
<path d="M 86.0 145.0 L 85.0 145.0 L 84.0 145.0 L 83.0 144.0 L 82.0 144.0 L 81.0 144.0 L 80.0 144.0 L 80.0 144.0 L 80.0 144.0 L 80.0 144.0 L 81.0 144.0 L 83.0 144.0 L 84.0 144.0 L 86.0 144.0 L 89.0 143.0 L 91.0 143.0 L 94.0 143.0 L 96.0 142.0 L 99.0 142.0 L 102.0 141.0 L 104.0 141.0 L 107.0 141.0 L 110.0 141.0 L 113.0 140.0 L 116.0 140.0 L 119.0 140.0 L 123.0 139.0 L 127.0 139.0 L 131.0 139.0 L 134.0 138.0 L 138.0 138.0 L 142.0 138.0 L 144.0 138.0 L 147.0 138.0 L 150.0 138.0 L 152.0 138.0 L 153.0 138.0 L 155.0 138.0 L 157.0 137.0 L 159.0 137.0 L 161.0 137.0 L 163.0 137.0 L 166.0 136.0 L 169.0 136.0 L 172.0 136.0 L 175.0 135.0 L 178.0 135.0 L 181.0 135.0 L 184.0 135.0 L 187.0 135.0 L 189.0 135.0 L 192.0 135.0 L 194.0 135.0 L 195.0 134.0 L 197.0 134.0 L 198.0 134.0 L 200.0 134.0 L 202.0 134.0 L 204.0 134.0 L 205.0 134.0 L 207.0 134.0 L 209.0 134.0 L 210.0 134.0 L 211.0 134.0 L 212.0 134.0 L 214.0 134.0 L 215.0 134.0 L 216.0 134.0 L 217.0 134.0 L 218.0 134.0 L 219.0 135.0 L 220.0 135.0 L 221.0 135.0 L 221.0 136.0 L 222.0 136.0 L 222.0 137.0 L 223.0 137.0 L 223.0 138.0 L 223.0 139.0 L 224.0 141.0 L 224.0 143.0 L 224.0 145.0 L 224.0 148.0 L 224.0 151.0 L 224.0 155.0 L 223.0 160.0 L 222.0 166.0 L 221.0 172.0 L 221.0 179.0 L 220.0 186.0 L 220.0 193.0 L 220.0 200.0 L 220.0 205.0 L 219.0 211.0 L 219.0 218.0 L 218.0 223.0 L 217.0 230.0 L 216.0 235.0 L 215.0 239.0 L 214.0 242.0 L 212.0 244.0 L 211.0 244.0 L 210.0 245.0 L 209.0 245.0 L 208.0 245.0 L 207.0 245.0 L 205.0 245.0 L 203.0 244.0 L 199.0 242.0 L 196.0 239.0 " stroke="black" fill="none" stroke-width="5.0" stroke-linecap="round" stroke-linejoin="round" />
<path d="M 118.0 154.0 L 118.0 154.0 L 117.0 153.0 L 117.0 152.0 L 116.0 151.0 L 116.0 151.0 L 116.0 151.0 L 116.0 151.0 L 116.0 152.0 L 117.0 155.0 L 118.0 159.0 L 120.0 164.0 L 121.0 171.0 L 121.0 180.0 L 122.0 191.0 L 122.0 200.0 L 122.0 209.0 L 122.0 218.0 L 122.0 224.0 L 123.0 228.0 L 123.0 229.0 " stroke="black" fill="none" stroke-width="5.0" stroke-linecap="round" stroke-linejoin="round" />
<path d="M 162.0 148.0 L 162.0 148.0 L 162.0 148.0 L 161.0 148.0 L 161.0 148.0 L 161.0 148.0 L 161.0 150.0 L 162.0 152.0 L 163.0 156.0 L 165.0 161.0 L 166.0 168.0 L 167.0 179.0 L 167.0 191.0 L 166.0 203.0 L 164.0 215.0 L 163.0 224.0 L 162.0 232.0 L 162.0 237.0 " stroke="black" fill="none" stroke-width="5.0" stroke-linecap="round" stroke-linejoin="round" />
</svg>