<svg xmlns="http://www.w3.org/2000/svg" width="300" height="300" viewBox="0 0 300 300">
<path d="M 60.0 87.5 L 60.0 87.5 L 60.0 87.5 L 60.0 87.5 L 60.0 87.5 L 60.0 87.5 L 60.0 87.5 L 60.0 85.0 L 60.0 85.0 L 60.0 85.0 L 60.0 85.0 L 62.5 85.0 L 62.5 85.0 L 62.5 85.0 L 62.5 85.0 L 62.5 85.0 L 62.5 85.0 L 65.0 85.0 L 65.0 85.0 L 65.0 85.0 L 65.0 85.0 L 67.5 85.0 L 67.5 85.0 L 67.5 85.0 L 70.0 82.5 L 70.0 82.5 L 72.5 82.5 L 72.5 82.5 L 75.0 82.5 L 75.0 82.5 L 77.5 82.5 L 80.0 82.5 L 80.0 82.5 L 82.5 82.5 L 85.0 82.5 L 87.5 82.5 L 90.0 82.5 L 90.0 82.5 L 92.5 82.5 L 95.0 82.5 L 97.5 82.5 L 100.0 82.5 L 102.5 82.5 L 105.0 82.5 L 107.5 82.5 L 110.0 82.5 L 112.5 82.5 L 112.5 82.5 L 115.0 82.5 L 117.5 82.5 L 117.5 82.5 L 120.0 82.5 L 122.5 82.5 L 122.5 82.5 L 125.0 80.0 L 125.0 80.0 L 127.5 80.0 L 130.0 80.0 L 130.0 80.0 L 132.5 80.0 L 132.5 80.0 L 135.0 80.0 L 135.0 80.0 L 137.5 80.0 L 137.5 80.0 L 140.0 80.0 L 140.0 80.0 L 142.5 80.0 L 142.5 80.0 L 145.0 80.0 L 145.0 80.0 L 145.0 80.0 L 147.5 80.0 L 147.5 80.0 L 147.5 80.0 L 150.0 80.0 L 150.0 80.0 L 150.0 80.0 L 152.5 80.0 L 152.5 80.0 L 155.0 80.0 L 155.0 80.0 L 155.0 80.0 L 157.5 80.0 L 157.5 80.0 L 157.5 80.0 L 160.0 80.0 L 160.0 80.0 L 162.5 80.0 L 162.5 80.0 L 162.5 80.0 L 162.5 80.0 L 165.0 80.0 L 165.0 80.0 L 167.5 80.0 L 167.5 80.0 L 167.5 80.0 L 170.0 80.0 L 170.0 80.0 L 170.0 80.0 L 172.5 80.0 L 172.5 80.0 L 172.5 80.0 L 175.0 80.0 L 175.0 80.0 L 177.5 80.0 L 177.5 80.0 L 177.5 80.0 L 180.0 80.0 L 180.0 80.0 L 182.5 80.0 L 182.5 80.0 L 185.0 80.0 L 185.0 80.0 L 185.0 80.0 L 187.5 80.0 L 187.5 80.0 L 187.5 80.0 L 190.0 80.0 L 190.0 80.0 L 190.0 80.0 L 192.5 80.0 L 192.5 80.0 L 195.0 80.0 L 195.0 80.0 L 195.0 80.0 L 197.5 80.0 L 197.5 80.0 L 197.5 80.0 L 200.0 80.0 L 202.5 80.0 L 202.5 80.0 L 205.0 80.0 L 205.0 80.0 L 207.5 80.0 L 207.5 80.0 L 210.0 80.0 L 212.5 80.0 L 212.5 80.0 L 215.0 80.0 L 215.0 80.0 L 217.5 80.0 L 217.5 80.0 L 220.0 80.0 L 222.5 80.0 L 222.5 80.0 L 225.0 82.5 L 225.0 82.5 L 227.5 82.5 L 230.0 82.5 L 230.0 82.5 L 232.5 82.5 L 232.5 82.5 L 235.0 82.5 L 235.0 82.5 L 237.5 82.5 L 237.5 82.5 L 237.5 82.5 L 240.0 82.5 L 240.0 82.5 L 240.0 82.5 " stroke="black" fill="none" stroke-width="5.0" stroke-linecap="round" stroke-linejoin="round" />
<path d="M 152.5 85.0 L 152.5 85.0 L 152.5 85.0 L 152.5 85.0 L 152.5 85.0 L 152.5 85.0 L 152.5 82.5 L 152.5 82.5 L 152.5 82.5 L 152.5 82.5 L 152.5 82.5 L 152.5 80.0 L 152.5 80.0 L 152.5 80.0 L 152.5 80.0 L 152.5 80.0 L 152.5 80.0 L 152.5 80.0 L 152.5 82.5 L 152.5 85.0 L 152.5 87.5 L 150.0 90.0 L 150.0 95.0 L 147.5 97.5 L 147.5 102.5 L 145.0 105.0 L 145.0 110.0 L 142.5 115.0 L 140.0 117.5 L 140.0 120.0 L 140.0 122.5 L 137.5 125.0 L 137.5 127.5 L 137.5 127.5 L 137.5 127.5 L 137.5 127.5 " stroke="black" fill="none" stroke-width="5.0" stroke-linecap="round" stroke-linejoin="round" />
<path d="M 72.5 142.5 L 72.5 142.5 L 72.5 142.5 L 75.0 142.5 L 75.0 142.5 L 75.0 140.0 L 75.0 140.0 L 77.5 140.0 L 77.5 140.0 L 77.5 137.5 L 77.5 137.5 L 77.5 137.5 L 77.5 135.0 L 77.5 135.0 L 80.0 132.5 L 80.0 132.5 L 80.0 132.5 L 80.0 130.0 L 80.0 130.0 L 80.0 130.0 L 80.0 127.5 L 80.0 127.5 L 80.0 127.5 L 80.0 127.5 L 80.0 127.5 L 80.0 130.0 L 80.0 132.5 L 80.0 135.0 L 80.0 137.5 L 80.0 140.0 L 80.0 145.0 L 80.0 147.5 L 80.0 150.0 L 80.0 155.0 L 80.0 157.5 L 80.0 160.0 L 80.0 165.0 L 80.0 167.5 L 80.0 172.5 L 77.5 177.5 L 77.5 180.0 L 77.5 185.0 L 77.5 187.5 L 77.5 190.0 L 77.5 192.5 L 77.5 195.0 L 77.5 197.5 L 77.5 200.0 L 77.5 202.5 L 77.5 202.5 L 77.5 205.0 L 77.5 207.5 L 77.5 210.0 L 77.5 212.5 L 77.5 215.0 L 77.5 217.5 L 77.5 217.5 L 77.5 220.0 L 77.5 222.5 L 77.5 225.0 L 77.5 227.5 L 77.5 227.5 L 77.5 230.0 L 77.5 232.5 L 77.5 232.5 L 77.5 235.0 L 77.5 235.0 L 77.5 237.5 L 77.5 240.0 L 77.5 240.0 L 77.5 240.0 L 77.5 242.5 L 77.5 242.5 L 77.5 242.5 L 77.5 245.0 L 77.5 245.0 L 77.5 245.0 L 77.5 242.5 L 77.5 240.0 L 77.5 237.5 " stroke="black" fill="none" stroke-width="5.0" stroke-linecap="round" stroke-linejoin="round" />
<path d="M 80.0 132.5 L 80.0 132.5 L 80.0 132.5 L 80.0 135.0 L 80.0 135.0 L 80.0 135.0 L 77.5 135.0 L 77.5 137.5 L 77.5 137.5 L 77.5 137.5 L 77.5 137.5 L 77.5 137.5 L 77.5 137.5 L 77.5 137.5 L 77.5 140.0 L 77.5 140.0 L 77.5 140.0 L 77.5 140.0 L 80.0 140.0 L 80.0 140.0 L 82.5 140.0 L 85.0 140.0 L 87.5 140.0 L 90.0 137.5 L 92.5 137.5 L 95.0 137.5 L 100.0 135.0 L 102.5 135.0 L 105.0 135.0 L 107.5 135.0 L 112.5 135.0 L 112.5 135.0 L 115.0 132.5 L 117.5 132.5 L 120.0 132.5 L 122.5 132.5 L 122.5 132.5 L 125.0 132.5 L 127.5 132.5 L 127.5 132.5 L 130.0 132.5 L 130.0 132.5 L 132.5 132.5 L 132.5 132.5 L 132.5 132.5 L 135.0 132.5 L 135.0 132.5 L 135.0 132.5 L 137.5 132.5 L 137.5 132.5 L 140.0 132.5 L 140.0 132.5 L 140.0 132.5 L 142.5 130.0 L 142.5 130.0 L 145.0 130.0 L 145.0 130.0 L 145.0 130.0 L 145.0 130.0 L 147.5 130.0 L 147.5 130.0 L 147.5 130.0 L 150.0 130.0 L 150.0 130.0 L 150.0 130.0 L 152.5 130.0 L 152.5 130.0 L 155.0 130.0 L 155.0 130.0 L 155.0 130.0 L 157.5 130.0 L 157.5 130.0 L 157.5 130.0 L 160.0 130.0 L 160.0 130.0 L 160.0 130.0 L 162.5 130.0 L 162.5 130.0 L 162.5 130.0 L 165.0 130.0 L 165.0 130.0 L 167.5 130.0 L 167.5 130.0 L 167.5 130.0 L 170.0 130.0 L 170.0 130.0 L 172.5 130.0 L 172.5 130.0 L 175.0 130.0 L 175.0 130.0 L 177.5 130.0 L 177.5 130.0 L 180.0 130.0 L 180.0 130.0 L 182.5 130.0 L 182.5 130.0 L 185.0 130.0 L 185.0 130.0 L 187.5 130.0 L 187.5 130.0 L 190.0 130.0 L 190.0 130.0 L 192.5 130.0 L 192.5 130.0 L 195.0 130.0 L 195.0 130.0 L 195.0 130.0 L 197.5 130.0 L 197.5 130.0 L 200.0 130.0 L 200.0 130.0 L 202.5 130.0 L 202.5 130.0 L 205.0 130.0 L 205.0 130.0 L 207.5 130.0 L 207.5 130.0 L 207.5 130.0 L 210.0 130.0 L 212.5 130.0 L 212.5 130.0 L 215.0 130.0 L 215.0 130.0 L 217.5 130.0 L 217.5 130.0 L 217.5 130.0 L 220.0 130.0 L 220.0 130.0 L 222.5 130.0 L 222.5 130.0 L 222.5 130.0 L 225.0 130.0 L 225.0 130.0 L 225.0 130.0 L 225.0 132.5 L 227.5 132.5 L 227.5 132.5 L 227.5 132.5 L 227.5 132.5 L 227.5 132.5 L 227.5 132.5 L 227.5 135.0 L 227.5 135.0 L 227.5 135.0 L 227.5 137.5 L 227.5 137.5 L 227.5 140.0 L 227.5 142.5 L 227.5 145.0 L 227.5 147.5 L 227.5 150.0 L 227.5 155.0 L 227.5 157.5 L 227.5 160.0 L 227.5 162.5 L 227.5 167.5 L 227.5 170.0 L 227.5 172.5 L 227.5 175.0 L 227.5 177.5 L 227.5 180.0 L 227.5 185.0 L 227.5 187.5 L 227.5 190.0 L 227.5 190.0 L 227.5 192.5 L 227.5 195.0 L 227.5 197.5 L 227.5 200.0 L 227.5 202.5 L 227.5 202.5 L 227.5 205.0 L 227.5 207.5 L 227.5 210.0 L 227.5 210.0 L 227.5 212.5 L 227.5 215.0 L 227.5 217.5 L 227.5 217.5 L 227.5 220.0 L 227.5 220.0 L 227.5 222.5 L 227.5 225.0 L 227.5 225.0 L 227.5 227.5 L 227.5 230.0 L 227.5 230.0 L 227.5 232.5 L 227.5 235.0 L 227.5 235.0 L 227.5 237.5 L 227.5 237.5 L 227.5 240.0 L 227.5 240.0 L 227.5 242.5 L 227.5 245.0 L 227.5 245.0 L 227.5 247.5 L 227.5 247.5 L 227.5 247.5 L 227.5 250.0 L 227.5 250.0 L 227.5 250.0 L 227.5 252.5 L 227.5 252.5 L 227.5 252.5 L 227.5 252.5 L 227.5 252.5 L 227.5 252.5 L 227.5 252.5 L 227.5 255.0 L 227.5 255.0 L 227.5 255.0 L 227.5 255.0 L 227.5 255.0 L 227.5 255.0 L 225.0 255.0 L 225.0 255.0 L 225.0 255.0 L 225.0 255.0 L 225.0 255.0 L 225.0 255.0 L 225.0 255.0 L 225.0 255.0 L 222.5 255.0 L 222.5 255.0 L 222.5 255.0 L 220.0 252.5 L 220.0 252.5 L 217.5 252.5 L 215.0 252.5 L 212.5 250.0 L 210.0 250.0 L 207.5 250.0 L 205.0 247.5 L 202.5 247.5 L 200.0 247.5 L 197.5 247.5 L 195.0 247.5 L 192.5 245.0 L 192.5 245.0 L 190.0 245.0 L 190.0 245.0 L 190.0 245.0 " stroke="black" fill="none" stroke-width="5.0" stroke-linecap="round" stroke-linejoin="round" />
<path d="M 130.0 140.0 L 130.0 140.0 L 130.0 140.0 L 130.0 140.0 L 130.0 140.0 L 130.0 140.0 L 127.5 140.0 L 127.5 140.0 L 127.5 140.0 L 127.5 140.0 L 127.5 140.0 L 127.5 140.0 L 127.5 145.0 L 127.5 147.5 L 127.5 152.5 L 127.5 157.5 L 127.5 162.5 L 127.5 167.5 L 127.5 177.5 L 127.5 182.5 L 127.5 190.0 L 127.5 200.0 L 127.5 205.0 L 127.5 212.5 L 127.5 220.0 L 127.5 227.5 L 127.5 235.0 L 127.5 240.0 L 127.5 245.0 L 127.5 247.5 L 127.5 250.0 L 127.5 250.0 L 127.5 247.5 L 127.5 245.0 " stroke="black" fill="none" stroke-width="5.0" stroke-linecap="round" stroke-linejoin="round" />
<path d="M 170.0 147.5 L 170.0 147.5 L 170.0 145.0 L 170.0 145.0 L 170.0 145.0 L 170.0 142.5 L 170.0 142.5 L 170.0 142.5 L 170.0 142.5 L 170.0 142.5 L 170.0 142.5 L 170.0 145.0 L 170.0 147.5 L 170.0 150.0 L 170.0 155.0 L 170.0 160.0 L 170.0 165.0 L 170.0 170.0 L 167.5 175.0 L 167.5 182.5 L 167.5 187.5 L 167.5 195.0 L 165.0 202.5 L 165.0 207.5 L 165.0 215.0 L 165.0 220.0 L 165.0 222.5 L 162.5 227.5 L 162.5 232.5 L 162.5 237.5 L 162.5 242.5 L 162.5 245.0 L 162.5 250.0 L 162.5 252.5 L 162.5 255.0 L 162.5 255.0 L 162.5 257.5 L 162.5 257.5 L 162.5 257.5 L 162.5 257.5 L 162.5 255.0 L 162.5 252.5 L 165.0 250.0 L 165.0 247.5 " stroke="black" fill="none" stroke-width="5.0" stroke-linecap="round" stroke-linejoin="round" />
</svg>