<svg xmlns="http://www.w3.org/2000/svg" width="300" height="300" viewBox="0 0 300 300">
<path d="M 61.0 100.0 L 61.0 100.0 L 60.0 100.0 L 60.0 100.0 L 59.0 100.0 L 59.0 100.0 L 59.0 100.0 L 58.0 100.0 L 58.0 100.0 L 58.0 100.0 L 58.0 100.0 L 58.0 100.0 L 58.0 100.0 L 58.0 100.0 L 58.0 100.0 L 58.0 100.0 L 58.0 100.0 L 58.0 100.0 L 59.0 100.0 L 59.0 101.0 L 60.0 101.0 L 60.0 101.0 L 61.0 101.0 L 62.0 101.0 L 62.0 101.0 L 63.0 101.0 L 64.0 101.0 L 65.0 101.0 L 65.0 101.0 L 66.0 101.0 L 67.0 101.0 L 68.0 101.0 L 68.0 101.0 L 69.0 101.0 L 70.0 101.0 L 71.0 102.0 L 71.0 102.0 L 72.0 102.0 L 73.0 102.0 L 74.0 102.0 L 74.0 102.0 L 75.0 102.0 L 76.0 102.0 L 77.0 102.0 L 78.0 102.0 L 79.0 102.0 L 80.0 102.0 L 81.0 102.0 L 83.0 102.0 L 84.0 102.0 L 86.0 102.0 L 88.0 102.0 L 90.0 102.0 L 92.0 102.0 L 93.0 102.0 L 95.0 102.0 L 97.0 102.0 L 99.0 102.0 L 100.0 102.0 L 102.0 102.0 L 104.0 102.0 L 105.0 102.0 L 107.0 102.0 L 108.0 102.0 L 109.0 102.0 L 111.0 102.0 L 112.0 102.0 L 114.0 102.0 L 116.0 103.0 L 118.0 103.0 L 120.0 104.0 L 123.0 104.0 L 126.0 104.0 L 130.0 105.0 L 134.0 105.0 L 137.0 105.0 L 141.0 105.0 L 144.0 105.0 L 146.0 105.0 L 148.0 105.0 L 150.0 105.0 L 151.0 105.0 L 152.0 105.0 L 153.0 105.0 L 153.0 105.0 L 153.0 105.0 " stroke="black" fill="none" stroke-width="5.0" stroke-linecap="round" stroke-linejoin="round" />
<path d="M 81.0 74.0 L 81.0 74.0 L 81.0 74.0 L 81.0 75.0 L 81.0 75.0 L 81.0 76.0 L 81.0 77.0 L 81.0 79.0 L 81.0 81.0 L 81.0 84.0 L 81.0 88.0 L 81.0 93.0 L 81.0 98.0 L 81.0 104.0 L 81.0 109.0 L 81.0 114.0 L 81.0 120.0 L 81.0 124.0 L 81.0 128.0 L 80.0 134.0 L 80.0 139.0 L 80.0 146.0 L 80.0 153.0 L 79.0 159.0 L 79.0 165.0 L 79.0 172.0 L 78.0 177.0 L 78.0 183.0 L 78.0 189.0 L 78.0 193.0 L 78.0 197.0 L 79.0 200.0 L 79.0 201.0 L 79.0 202.0 " stroke="black" fill="none" stroke-width="5.0" stroke-linecap="round" stroke-linejoin="round" />
<path d="M 133.0 73.0 L 133.0 73.0 L 133.0 73.0 L 133.0 73.0 L 133.0 74.0 L 133.0 74.0 L 133.0 75.0 L 133.0 77.0 L 133.0 79.0 L 133.0 82.0 L 133.0 86.0 L 133.0 91.0 L 133.0 97.0 L 133.0 104.0 L 133.0 110.0 L 133.0 117.0 L 133.0 124.0 L 133.0 131.0 L 133.0 139.0 L 133.0 147.0 L 133.0 151.0 L 133.0 162.0 L 133.0 168.0 L 132.0 173.0 L 132.0 179.0 L 132.0 184.0 L 132.0 188.0 L 132.0 193.0 L 132.0 196.0 L 132.0 199.0 L 132.0 200.0 L 133.0 201.0 " stroke="black" fill="none" stroke-width="5.0" stroke-linecap="round" stroke-linejoin="round" />
<path d="M 92.0 130.0 L 91.0 130.0 L 90.0 130.0 L 89.0 130.0 L 89.0 130.0 L 89.0 130.0 L 89.0 130.0 L 89.0 130.0 L 91.0 130.0 L 94.0 130.0 L 98.0 130.0 L 101.0 130.0 L 105.0 130.0 L 110.0 130.0 L 116.0 130.0 L 122.0 130.0 L 129.0 130.0 L 134.0 130.0 L 137.0 131.0 " stroke="black" fill="none" stroke-width="5.0" stroke-linecap="round" stroke-linejoin="round" />
<path d="M 91.0 162.0 L 89.0 162.0 L 88.0 162.0 L 86.0 162.0 L 85.0 163.0 L 85.0 163.0 L 85.0 163.0 L 85.0 163.0 L 86.0 163.0 L 87.0 163.0 L 90.0 163.0 L 93.0 163.0 L 97.0 163.0 L 101.0 163.0 L 105.0 163.0 L 109.0 163.0 L 114.0 163.0 L 120.0 164.0 L 124.0 164.0 " stroke="black" fill="none" stroke-width="5.0" stroke-linecap="round" stroke-linejoin="round" />
<path d="M 56.0 203.0 L 56.0 203.0 L 56.0 203.0 L 56.0 203.0 L 56.0 203.0 L 56.0 203.0 L 56.0 203.0 L 56.0 203.0 L 56.0 203.0 L 58.0 203.0 L 60.0 203.0 L 63.0 203.0 L 66.0 203.0 L 71.0 203.0 L 77.0 202.0 L 85.0 202.0 L 94.0 202.0 L 102.0 201.0 L 110.0 200.0 L 116.0 200.0 L 123.0 200.0 L 129.0 200.0 L 134.0 200.0 L 138.0 201.0 L 142.0 202.0 L 145.0 202.0 L 147.0 202.0 L 148.0 202.0 L 149.0 202.0 " stroke="black" fill="none" stroke-width="5.0" stroke-linecap="round" stroke-linejoin="round" />
<path d="M 92.0 221.0 L 92.0 221.0 L 92.0 221.0 L 92.0 221.0 L 92.0 221.0 L 92.0 221.0 L 92.0 223.0 L 90.0 225.0 L 88.0 229.0 L 85.0 234.0 L 81.0 240.0 L 78.0 245.0 L 74.0 250.0 L 71.0 254.0 L 70.0 256.0 " stroke="black" fill="none" stroke-width="5.0" stroke-linecap="round" stroke-linejoin="round" />
<path d="M 117.0 215.0 L 117.0 215.0 L 116.0 215.0 L 116.0 215.0 L 116.0 215.0 L 116.0 215.0 L 116.0 215.0 L 117.0 216.0 L 119.0 218.0 L 122.0 221.0 L 126.0 224.0 L 130.0 227.0 L 134.0 232.0 L 138.0 236.0 L 141.0 240.0 L 144.0 243.0 L 145.0 244.0 " stroke="black" fill="none" stroke-width="5.0" stroke-linecap="round" stroke-linejoin="round" />
<path d="M 227.0 74.0 L 227.0 74.0 L 227.0 74.0 L 227.0 74.0 L 227.0 74.0 L 227.0 74.0 L 227.0 74.0 L 226.0 74.0 L 226.0 74.0 L 225.0 75.0 L 224.0 75.0 L 223.0 75.0 L 220.0 76.0 L 218.0 77.0 L 214.0 79.0 L 210.0 81.0 L 205.0 83.0 L 200.0 85.0 L 196.0 88.0 L 192.0 90.0 L 189.0 92.0 L 185.0 94.0 L 182.0 96.0 L 179.0 97.0 L 176.0 98.0 L 174.0 99.0 L 171.0 100.0 L 169.0 101.0 L 168.0 101.0 L 167.0 102.0 L 167.0 102.0 L 167.0 102.0 L 167.0 102.0 L 167.0 103.0 L 168.0 103.0 L 169.0 104.0 L 169.0 105.0 L 170.0 106.0 L 171.0 107.0 L 171.0 108.0 L 172.0 109.0 L 172.0 110.0 L 173.0 111.0 L 173.0 113.0 L 173.0 115.0 L 173.0 116.0 L 174.0 118.0 L 174.0 121.0 L 175.0 123.0 L 175.0 126.0 L 175.0 129.0 L 176.0 132.0 L 176.0 136.0 L 176.0 139.0 L 176.0 143.0 L 176.0 147.0 L 176.0 151.0 L 176.0 155.0 L 176.0 159.0 L 176.0 163.0 L 176.0 166.0 L 175.0 170.0 L 174.0 174.0 L 174.0 177.0 L 173.0 181.0 L 172.0 184.0 L 170.0 190.0 L 169.0 194.0 L 167.0 199.0 L 164.0 204.0 L 161.0 209.0 L 158.0 216.0 L 155.0 223.0 L 152.0 230.0 L 149.0 237.0 L 148.0 241.0 L 147.0 243.0 L 146.0 243.0 " stroke="black" fill="none" stroke-width="5.0" stroke-linecap="round" stroke-linejoin="round" />
<path d="M 189.0 145.0 L 188.0 145.0 L 187.0 145.0 L 186.0 145.0 L 185.0 145.0 L 185.0 145.0 L 185.0 145.0 L 185.0 145.0 L 185.0 145.0 L 185.0 145.0 L 186.0 145.0 L 188.0 146.0 L 191.0 146.0 L 194.0 147.0 L 199.0 147.0 L 205.0 147.0 L 211.0 147.0 L 218.0 147.0 L 225.0 147.0 L 231.0 147.0 L 234.0 147.0 L 237.0 147.0 L 238.0 148.0 L 239.0 148.0 L 239.0 148.0 L 239.0 149.0 " stroke="black" fill="none" stroke-width="5.0" stroke-linecap="round" stroke-linejoin="round" />
<path d="M 207.0 157.0 L 207.0 158.0 L 207.0 160.0 L 207.0 162.0 L 208.0 164.0 L 208.0 167.0 L 208.0 171.0 L 208.0 177.0 L 208.0 184.0 L 208.0 193.0 L 208.0 202.0 L 208.0 210.0 L 208.0 218.0 L 208.0 227.0 L 208.0 235.0 L 208.0 243.0 L 208.0 248.0 L 209.0 252.0 L 209.0 255.0 L 210.0 258.0 L 210.0 261.0 L 210.0 265.0 " stroke="black" fill="none" stroke-width="5.0" stroke-linecap="round" stroke-linejoin="round" />
</svg>