<svg xmlns="http://www.w3.org/2000/svg" width="300" height="300" viewBox="0 0 300 300">
<path d="M 64.0 159.0 L 64.0 159.0 L 64.0 159.0 L 64.0 159.0 L 64.0 158.0 L 64.0 158.0 L 64.0 158.0 L 64.0 157.0 L 64.0 157.0 L 64.0 157.0 L 64.0 157.0 L 64.0 157.0 L 64.0 157.0 L 64.0 157.0 L 64.0 157.0 L 64.0 157.0 L 64.0 157.0 L 64.0 157.0 L 64.0 157.0 L 64.0 158.0 L 64.0 158.0 L 65.0 158.0 L 65.0 158.0 L 66.0 158.0 L 66.0 158.0 L 67.0 158.0 L 67.0 158.0 L 68.0 158.0 L 69.0 158.0 L 70.0 158.0 L 71.0 158.0 L 72.0 158.0 L 73.0 159.0 L 74.0 159.0 L 75.0 159.0 L 76.0 159.0 L 77.0 159.0 L 78.0 159.0 L 79.0 159.0 L 80.0 159.0 L 81.0 159.0 L 82.0 159.0 L 83.0 159.0 L 84.0 159.0 L 85.0 159.0 L 86.0 159.0 L 87.0 159.0 L 89.0 159.0 L 90.0 159.0 L 91.0 159.0 L 92.0 159.0 L 93.0 159.0 L 94.0 159.0 L 95.0 159.0 L 96.0 159.0 L 98.0 159.0 L 98.0 159.0 L 100.0 159.0 L 100.0 159.0 L 101.0 159.0 L 102.0 159.0 L 103.0 159.0 L 104.0 159.0 L 105.0 159.0 L 105.0 159.0 L 106.0 159.0 L 107.0 159.0 L 107.0 160.0 L 108.0 160.0 L 108.0 160.0 L 109.0 160.0 L 110.0 160.0 L 111.0 160.0 L 112.0 160.0 L 113.0 160.0 L 115.0 160.0 L 116.0 160.0 L 117.0 160.0 L 119.0 160.0 L 120.0 160.0 L 122.0 160.0 L 123.0 159.0 L 125.0 159.0 L 126.0 159.0 L 128.0 159.0 L 130.0 159.0 L 131.0 158.0 L 132.0 158.0 L 134.0 158.0 L 135.0 158.0 L 136.0 158.0 L 137.0 158.0 L 138.0 158.0 L 139.0 158.0 L 140.0 158.0 L 141.0 158.0 L 142.0 158.0 L 143.0 158.0 L 144.0 158.0 L 145.0 158.0 L 146.0 158.0 L 147.0 158.0 L 148.0 158.0 L 149.0 159.0 L 149.0 159.0 L 150.0 159.0 L 151.0 159.0 L 151.0 159.0 L 152.0 160.0 L 153.0 160.0 L 153.0 160.0 L 154.0 160.0 L 155.0 160.0 L 155.0 160.0 L 156.0 160.0 L 157.0 160.0 L 157.0 160.0 L 158.0 160.0 L 159.0 161.0 L 160.0 161.0 L 161.0 161.0 L 162.0 161.0 L 163.0 161.0 L 164.0 161.0 L 166.0 161.0 L 168.0 161.0 L 169.0 161.0 L 171.0 161.0 L 174.0 161.0 L 176.0 161.0 L 178.0 161.0 L 180.0 161.0 L 182.0 161.0 L 184.0 161.0 L 186.0 161.0 L 188.0 161.0 L 190.0 161.0 L 192.0 161.0 L 194.0 161.0 L 196.0 161.0 L 197.0 161.0 L 199.0 161.0 L 201.0 161.0 L 202.0 161.0 L 204.0 161.0 L 206.0 161.0 L 208.0 161.0 L 210.0 161.0 L 212.0 161.0 L 214.0 161.0 L 217.0 161.0 L 219.0 161.0 L 221.0 161.0 L 223.0 161.0 L 224.0 161.0 L 226.0 161.0 L 227.0 161.0 L 228.0 161.0 L 229.0 161.0 L 230.0 161.0 L 231.0 161.0 L 232.0 161.0 L 233.0 161.0 L 234.0 161.0 L 235.0 161.0 L 235.0 161.0 L 236.0 160.0 L 237.0 160.0 L 237.0 160.0 L 237.0 159.0 L 237.0 159.0 L 237.0 159.0 L 237.0 159.0 L 237.0 159.0 " stroke="black" fill="none" stroke-width="5.0" stroke-linecap="round" stroke-linejoin="round" />
</svg>