<svg xmlns="http://www.w3.org/2000/svg" width="300" height="300" viewBox="0 0 300 300">
<path d="M 68.0 84.0 L 68.0 84.0 L 67.0 84.0 L 67.0 84.0 L 67.0 84.0 L 66.0 84.0 L 66.0 84.0 L 66.0 84.0 L 66.0 84.0 L 66.0 84.0 L 66.0 84.0 L 66.0 84.0 L 66.0 84.0 L 66.0 84.0 L 66.0 84.0 L 67.0 84.0 L 67.0 84.0 L 67.0 84.0 L 68.0 84.0 L 68.0 84.0 L 68.0 84.0 L 69.0 84.0 L 69.0 84.0 L 70.0 84.0 L 70.0 84.0 L 71.0 84.0 L 71.0 84.0 L 72.0 84.0 L 73.0 84.0 L 74.0 84.0 L 75.0 84.0 L 75.0 84.0 L 76.0 84.0 L 77.0 84.0 L 78.0 84.0 L 79.0 84.0 L 80.0 84.0 L 80.0 84.0 L 81.0 84.0 L 82.0 85.0 L 83.0 85.0 L 84.0 85.0 L 85.0 85.0 L 86.0 85.0 L 87.0 85.0 L 87.0 85.0 L 88.0 86.0 L 89.0 86.0 L 90.0 86.0 L 91.0 86.0 L 92.0 86.0 L 93.0 86.0 L 93.0 86.0 L 94.0 86.0 L 95.0 86.0 L 96.0 86.0 L 96.0 86.0 L 97.0 86.0 L 98.0 86.0 L 99.0 86.0 L 100.0 86.0 L 101.0 86.0 L 101.0 86.0 L 102.0 86.0 L 103.0 86.0 L 104.0 86.0 L 104.0 86.0 L 106.0 86.0 L 106.0 86.0 L 107.0 86.0 L 108.0 86.0 L 108.0 86.0 L 109.0 86.0 L 109.0 86.0 L 110.0 86.0 L 110.0 86.0 L 111.0 86.0 L 112.0 86.0 L 112.0 86.0 L 113.0 86.0 L 114.0 86.0 L 115.0 86.0 L 116.0 86.0 L 116.0 86.0 L 117.0 85.0 L 118.0 85.0 L 119.0 85.0 L 120.0 85.0 L 121.0 85.0 L 121.0 85.0 L 123.0 85.0 L 124.0 85.0 L 125.0 85.0 L 126.0 85.0 L 127.0 85.0 L 128.0 85.0 L 129.0 85.0 L 130.0 85.0 L 131.0 85.0 L 132.0 85.0 L 133.0 85.0 L 134.0 85.0 L 135.0 85.0 L 136.0 85.0 L 137.0 85.0 L 138.0 85.0 L 139.0 85.0 L 140.0 85.0 L 141.0 85.0 L 142.0 85.0 L 143.0 85.0 L 143.0 85.0 L 144.0 85.0 L 145.0 85.0 L 145.0 85.0 L 146.0 85.0 L 146.0 86.0 L 147.0 86.0 L 148.0 86.0 L 148.0 86.0 L 149.0 86.0 L 149.0 86.0 L 150.0 86.0 L 150.0 86.0 L 151.0 86.0 L 151.0 86.0 L 152.0 86.0 L 152.0 86.0 L 153.0 87.0 L 153.0 87.0 L 154.0 87.0 L 154.0 87.0 L 155.0 87.0 L 155.0 87.0 L 156.0 87.0 L 156.0 87.0 L 157.0 87.0 L 157.0 87.0 L 158.0 87.0 L 158.0 87.0 L 159.0 87.0 L 160.0 87.0 L 161.0 87.0 L 161.0 87.0 L 162.0 87.0 L 163.0 87.0 L 164.0 87.0 L 164.0 87.0 L 165.0 87.0 L 166.0 87.0 L 167.0 87.0 L 168.0 87.0 L 170.0 86.0 L 171.0 86.0 L 172.0 86.0 L 173.0 86.0 L 173.0 86.0 L 174.0 86.0 L 175.0 86.0 L 176.0 86.0 L 177.0 86.0 L 178.0 86.0 L 178.0 86.0 L 179.0 86.0 L 180.0 86.0 L 180.0 86.0 L 181.0 86.0 L 182.0 86.0 L 183.0 86.0 L 183.0 86.0 L 184.0 86.0 L 185.0 86.0 L 185.0 86.0 L 186.0 86.0 L 186.0 86.0 L 187.0 86.0 L 188.0 86.0 L 188.0 86.0 L 189.0 86.0 L 189.0 86.0 L 190.0 86.0 L 191.0 86.0 L 191.0 86.0 L 192.0 86.0 L 192.0 86.0 L 193.0 86.0 L 193.0 86.0 L 193.0 86.0 L 194.0 86.0 L 194.0 86.0 L 194.0 86.0 L 195.0 86.0 L 195.0 86.0 L 195.0 86.0 L 196.0 86.0 L 196.0 86.0 L 197.0 86.0 L 197.0 86.0 L 197.0 86.0 L 198.0 86.0 L 198.0 86.0 L 199.0 86.0 L 199.0 86.0 L 200.0 86.0 L 200.0 86.0 L 201.0 86.0 L 202.0 86.0 L 202.0 86.0 L 203.0 86.0 L 204.0 86.0 L 204.0 86.0 L 205.0 86.0 L 206.0 86.0 L 206.0 86.0 L 207.0 86.0 L 208.0 86.0 L 209.0 86.0 L 210.0 86.0 L 210.0 86.0 L 211.0 86.0 L 212.0 86.0 L 214.0 86.0 L 215.0 86.0 L 216.0 86.0 L 217.0 86.0 L 218.0 86.0 L 219.0 86.0 L 220.0 86.0 L 221.0 86.0 L 222.0 86.0 L 223.0 86.0 L 224.0 86.0 L 225.0 86.0 L 226.0 86.0 L 227.0 86.0 L 228.0 86.0 L 229.0 85.0 L 230.0 85.0 L 231.0 85.0 L 232.0 85.0 L 232.0 85.0 L 232.0 85.0 L 233.0 85.0 L 233.0 85.0 L 233.0 85.0 L 233.0 85.0 L 233.0 86.0 " stroke="black" fill="none" stroke-width="5.0" stroke-linecap="round" stroke-linejoin="round" />
<path d="M 106.0 98.0 L 106.0 98.0 L 106.0 98.0 L 106.0 98.0 L 105.0 98.0 L 105.0 99.0 L 105.0 99.0 L 104.0 100.0 L 103.0 101.0 L 103.0 102.0 L 101.0 103.0 L 100.0 105.0 L 97.0 108.0 L 94.0 110.0 L 89.0 114.0 L 83.0 117.0 L 76.0 120.0 L 70.0 124.0 L 67.0 126.0 " stroke="black" fill="none" stroke-width="5.0" stroke-linecap="round" stroke-linejoin="round" />
<path d="M 192.0 98.0 L 192.0 98.0 L 192.0 98.0 L 192.0 97.0 L 191.0 97.0 L 191.0 96.0 L 191.0 96.0 L 191.0 96.0 L 191.0 96.0 L 191.0 96.0 L 192.0 97.0 L 193.0 98.0 L 195.0 100.0 L 197.0 102.0 L 199.0 104.0 L 202.0 106.0 L 206.0 108.0 L 211.0 111.0 L 216.0 113.0 L 220.0 115.0 L 225.0 116.0 L 229.0 118.0 L 231.0 118.0 L 233.0 119.0 L 234.0 120.0 L 235.0 120.0 L 235.0 120.0 L 235.0 120.0 " stroke="black" fill="none" stroke-width="5.0" stroke-linecap="round" stroke-linejoin="round" />
<path d="M 79.0 132.0 L 79.0 132.0 L 79.0 132.0 L 79.0 133.0 L 79.0 134.0 L 79.0 134.0 L 79.0 136.0 L 79.0 138.0 L 79.0 141.0 L 80.0 145.0 L 80.0 149.0 L 81.0 154.0 L 82.0 161.0 L 83.0 168.0 L 83.0 176.0 L 84.0 187.0 L 84.0 196.0 L 84.0 204.0 L 84.0 212.0 L 83.0 218.0 L 83.0 224.0 L 83.0 231.0 L 83.0 236.0 L 83.0 241.0 L 83.0 244.0 L 83.0 245.0 L 84.0 245.0 L 84.0 245.0 " stroke="black" fill="none" stroke-width="5.0" stroke-linecap="round" stroke-linejoin="round" />
<path d="M 86.0 128.0 L 85.0 128.0 L 85.0 128.0 L 84.0 128.0 L 84.0 128.0 L 84.0 128.0 L 84.0 128.0 L 84.0 128.0 L 84.0 128.0 L 84.0 128.0 L 84.0 128.0 L 84.0 128.0 L 84.0 128.0 L 84.0 128.0 L 85.0 128.0 L 86.0 128.0 L 86.0 128.0 L 87.0 128.0 L 88.0 128.0 L 89.0 127.0 L 90.0 127.0 L 91.0 127.0 L 93.0 127.0 L 94.0 127.0 L 95.0 127.0 L 97.0 127.0 L 98.0 127.0 L 100.0 127.0 L 101.0 127.0 L 102.0 127.0 L 104.0 127.0 L 105.0 128.0 L 106.0 128.0 L 107.0 128.0 L 108.0 128.0 L 108.0 128.0 L 109.0 128.0 L 110.0 128.0 L 110.0 128.0 L 111.0 128.0 L 112.0 128.0 L 112.0 128.0 L 113.0 128.0 L 114.0 128.0 L 115.0 128.0 L 116.0 127.0 L 117.0 127.0 L 118.0 127.0 L 119.0 127.0 L 120.0 127.0 L 121.0 126.0 L 122.0 126.0 L 123.0 126.0 L 125.0 126.0 L 126.0 125.0 L 127.0 125.0 L 128.0 125.0 L 130.0 125.0 L 131.0 125.0 L 133.0 125.0 L 134.0 124.0 L 135.0 124.0 L 136.0 124.0 L 138.0 124.0 L 139.0 124.0 L 140.0 124.0 L 141.0 124.0 L 142.0 124.0 L 143.0 124.0 L 144.0 124.0 L 145.0 124.0 L 146.0 124.0 L 147.0 124.0 L 147.0 124.0 L 148.0 124.0 L 149.0 124.0 L 150.0 124.0 L 150.0 124.0 L 151.0 124.0 L 152.0 124.0 L 152.0 124.0 L 153.0 124.0 L 154.0 124.0 L 155.0 124.0 L 155.0 124.0 L 156.0 124.0 L 157.0 124.0 L 158.0 124.0 L 159.0 124.0 L 160.0 124.0 L 162.0 124.0 L 163.0 124.0 L 164.0 124.0 L 165.0 124.0 L 167.0 124.0 L 168.0 124.0 L 169.0 124.0 L 171.0 124.0 L 172.0 124.0 L 174.0 124.0 L 175.0 124.0 L 177.0 124.0 L 178.0 123.0 L 179.0 123.0 L 180.0 123.0 L 181.0 123.0 L 182.0 123.0 L 183.0 123.0 L 185.0 123.0 L 185.0 123.0 L 186.0 123.0 L 187.0 123.0 L 188.0 123.0 L 189.0 123.0 L 190.0 123.0 L 191.0 123.0 L 192.0 123.0 L 193.0 123.0 L 194.0 123.0 L 195.0 123.0 L 196.0 123.0 L 197.0 123.0 L 198.0 124.0 L 199.0 124.0 L 199.0 124.0 L 200.0 124.0 L 201.0 125.0 L 202.0 125.0 L 203.0 125.0 L 204.0 125.0 L 205.0 126.0 L 206.0 126.0 L 207.0 126.0 L 209.0 126.0 L 210.0 126.0 L 211.0 126.0 L 212.0 126.0 L 213.0 126.0 L 215.0 127.0 L 216.0 127.0 L 217.0 127.0 L 218.0 127.0 L 219.0 127.0 L 220.0 127.0 L 221.0 127.0 L 222.0 127.0 L 223.0 127.0 L 224.0 127.0 L 224.0 127.0 L 225.0 127.0 L 225.0 127.0 L 225.0 127.0 L 226.0 128.0 L 226.0 128.0 L 226.0 128.0 L 226.0 129.0 L 227.0 129.0 L 227.0 130.0 L 227.0 131.0 L 227.0 132.0 L 227.0 133.0 L 227.0 134.0 L 227.0 136.0 L 227.0 138.0 L 227.0 140.0 L 227.0 142.0 L 227.0 144.0 L 227.0 147.0 L 226.0 149.0 L 226.0 151.0 L 226.0 154.0 L 226.0 156.0 L 226.0 159.0 L 225.0 161.0 L 225.0 164.0 L 225.0 166.0 L 225.0 169.0 L 225.0 171.0 L 225.0 173.0 L 225.0 176.0 L 225.0 178.0 L 225.0 181.0 L 225.0 184.0 L 225.0 187.0 L 225.0 189.0 L 225.0 191.0 L 225.0 194.0 L 225.0 196.0 L 225.0 197.0 L 225.0 199.0 L 225.0 200.0 L 226.0 202.0 L 226.0 204.0 L 226.0 205.0 L 226.0 207.0 L 226.0 209.0 L 225.0 211.0 L 225.0 213.0 L 224.0 216.0 L 224.0 218.0 L 224.0 220.0 L 224.0 223.0 L 223.0 225.0 L 223.0 227.0 L 223.0 229.0 L 223.0 231.0 L 223.0 233.0 L 223.0 235.0 L 222.0 237.0 L 222.0 239.0 L 222.0 241.0 L 222.0 243.0 L 222.0 244.0 L 222.0 246.0 L 222.0 247.0 L 221.0 248.0 L 221.0 249.0 L 221.0 250.0 L 221.0 251.0 L 221.0 251.0 L 221.0 252.0 L 220.0 252.0 L 220.0 252.0 L 220.0 252.0 L 219.0 253.0 L 219.0 253.0 L 218.0 253.0 L 218.0 253.0 L 217.0 253.0 L 216.0 253.0 L 214.0 253.0 L 213.0 253.0 L 211.0 252.0 L 209.0 252.0 L 206.0 250.0 L 203.0 249.0 L 200.0 247.0 L 197.0 244.0 " stroke="black" fill="none" stroke-width="5.0" stroke-linecap="round" stroke-linejoin="round" />
<path d="M 148.0 88.0 L 148.0 88.0 L 148.0 88.0 L 148.0 88.0 L 148.0 88.0 L 149.0 88.0 L 149.0 88.0 L 149.0 88.0 L 149.0 88.0 L 149.0 88.0 L 150.0 88.0 L 150.0 88.0 L 150.0 90.0 L 150.0 91.0 L 150.0 93.0 L 150.0 96.0 L 150.0 99.0 L 150.0 102.0 L 150.0 105.0 L 150.0 109.0 L 150.0 113.0 L 150.0 116.0 L 150.0 120.0 L 150.0 124.0 L 150.0 127.0 L 150.0 131.0 L 150.0 135.0 L 150.0 139.0 L 150.0 143.0 L 150.0 146.0 L 150.0 149.0 L 151.0 152.0 L 151.0 154.0 L 151.0 157.0 L 152.0 159.0 L 152.0 161.0 L 152.0 163.0 L 152.0 165.0 L 152.0 168.0 L 152.0 170.0 L 152.0 172.0 L 152.0 174.0 L 152.0 177.0 L 152.0 179.0 L 152.0 182.0 L 152.0 184.0 L 152.0 186.0 L 152.0 189.0 L 152.0 191.0 L 152.0 194.0 L 152.0 196.0 L 152.0 199.0 L 152.0 201.0 L 152.0 204.0 L 152.0 206.0 L 152.0 209.0 L 152.0 212.0 L 152.0 214.0 L 152.0 217.0 L 152.0 220.0 L 152.0 222.0 L 152.0 224.0 L 152.0 227.0 L 152.0 229.0 L 152.0 231.0 L 151.0 234.0 L 151.0 236.0 L 151.0 237.0 L 151.0 239.0 L 151.0 241.0 L 151.0 242.0 L 151.0 244.0 L 151.0 246.0 L 151.0 248.0 L 151.0 249.0 L 151.0 250.0 L 151.0 251.0 L 151.0 252.0 L 151.0 252.0 " stroke="black" fill="none" stroke-width="5.0" stroke-linecap="round" stroke-linejoin="round" />
<path d="M 102.0 149.0 L 101.0 149.0 L 100.0 148.0 L 99.0 148.0 L 98.0 148.0 L 98.0 147.0 L 98.0 147.0 L 98.0 147.0 L 98.0 147.0 L 98.0 147.0 L 98.0 147.0 L 99.0 148.0 L 101.0 149.0 L 103.0 151.0 L 105.0 153.0 L 107.0 155.0 L 110.0 158.0 L 113.0 160.0 L 116.0 163.0 L 120.0 165.0 L 123.0 168.0 L 125.0 170.0 L 127.0 171.0 L 128.0 172.0 L 130.0 172.0 L 130.0 172.0 " stroke="black" fill="none" stroke-width="5.0" stroke-linecap="round" stroke-linejoin="round" />
<path d="M 129.0 141.0 L 129.0 141.0 L 128.0 141.0 L 127.0 142.0 L 126.0 142.0 L 125.0 143.0 L 125.0 144.0 L 124.0 145.0 L 122.0 147.0 L 121.0 149.0 L 119.0 151.0 L 116.0 155.0 L 113.0 159.0 L 110.0 162.0 L 107.0 166.0 L 103.0 171.0 L 100.0 174.0 L 98.0 177.0 " stroke="black" fill="none" stroke-width="5.0" stroke-linecap="round" stroke-linejoin="round" />
<path d="M 101.0 194.0 L 101.0 194.0 L 101.0 194.0 L 101.0 194.0 L 101.0 194.0 L 101.0 194.0 L 101.0 195.0 L 103.0 196.0 L 105.0 198.0 L 107.0 200.0 L 111.0 203.0 L 115.0 206.0 L 120.0 210.0 L 125.0 214.0 L 130.0 217.0 L 135.0 221.0 L 138.0 224.0 L 140.0 226.0 L 140.0 226.0 " stroke="black" fill="none" stroke-width="5.0" stroke-linecap="round" stroke-linejoin="round" />
<path d="M 125.0 188.0 L 125.0 188.0 L 124.0 189.0 L 123.0 189.0 L 122.0 191.0 L 120.0 192.0 L 119.0 194.0 L 118.0 197.0 L 116.0 200.0 L 114.0 204.0 L 112.0 209.0 L 109.0 214.0 L 107.0 218.0 L 105.0 222.0 " stroke="black" fill="none" stroke-width="5.0" stroke-linecap="round" stroke-linejoin="round" />
<path d="M 168.0 151.0 L 168.0 151.0 L 167.0 151.0 L 166.0 150.0 L 166.0 150.0 L 166.0 150.0 L 166.0 150.0 L 166.0 150.0 L 168.0 150.0 L 170.0 151.0 L 172.0 153.0 L 175.0 155.0 L 178.0 158.0 L 181.0 160.0 L 185.0 162.0 L 188.0 165.0 L 191.0 167.0 L 194.0 170.0 L 196.0 172.0 L 198.0 173.0 L 200.0 175.0 L 200.0 175.0 L 200.0 176.0 L 200.0 176.0 L 200.0 176.0 L 199.0 176.0 " stroke="black" fill="none" stroke-width="5.0" stroke-linecap="round" stroke-linejoin="round" />
<path d="M 195.0 140.0 L 195.0 140.0 L 195.0 140.0 L 194.0 140.0 L 194.0 141.0 L 194.0 142.0 L 193.0 143.0 L 193.0 144.0 L 192.0 146.0 L 191.0 149.0 L 189.0 153.0 L 186.0 159.0 L 182.0 165.0 L 176.0 172.0 L 169.0 180.0 L 164.0 186.0 " stroke="black" fill="none" stroke-width="5.0" stroke-linecap="round" stroke-linejoin="round" />
<path d="M 170.0 197.0 L 170.0 197.0 L 170.0 197.0 L 170.0 197.0 L 170.0 198.0 L 171.0 198.0 L 173.0 199.0 L 175.0 200.0 L 179.0 202.0 L 183.0 205.0 L 188.0 209.0 L 192.0 212.0 L 195.0 216.0 L 198.0 220.0 L 201.0 223.0 L 202.0 226.0 L 204.0 229.0 L 204.0 231.0 L 205.0 231.0 L 205.0 231.0 L 203.0 230.0 L 202.0 228.0 " stroke="black" fill="none" stroke-width="5.0" stroke-linecap="round" stroke-linejoin="round" />
<path d="M 197.0 186.0 L 197.0 186.0 L 197.0 186.0 L 197.0 186.0 L 197.0 186.0 L 197.0 186.0 L 196.0 186.0 L 196.0 186.0 L 195.0 188.0 L 194.0 190.0 L 192.0 193.0 L 189.0 199.0 L 185.0 206.0 L 180.0 214.0 L 174.0 223.0 L 168.0 230.0 L 166.0 233.0 " stroke="black" fill="none" stroke-width="5.0" stroke-linecap="round" stroke-linejoin="round" />
</svg>