<svg xmlns="http://www.w3.org/2000/svg" width="300" height="300" viewBox="0 0 300 300">
<path d="M 152.0 142.0 L 152.0 142.0 L 152.0 142.0 L 151.0 142.0 L 151.0 142.0 L 150.0 142.0 L 150.0 142.0 L 149.0 142.0 L 149.0 142.0 L 149.0 142.0 L 148.0 142.0 L 148.0 142.0 L 148.0 142.0 L 148.0 142.0 L 148.0 142.0 L 148.0 143.0 L 148.0 144.0 L 148.0 145.0 L 148.0 146.0 L 149.0 147.0 L 150.0 148.0 L 150.0 148.0 L 152.0 148.0 L 153.0 148.0 L 154.0 148.0 L 155.0 147.0 L 156.0 145.0 L 156.0 144.0 L 156.0 142.0 L 156.0 141.0 L 156.0 139.0 L 154.0 138.0 L 153.0 137.0 L 152.0 137.0 L 151.0 137.0 L 150.0 137.0 L 149.0 138.0 L 148.0 140.0 L 147.0 143.0 L 147.0 145.0 L 147.0 147.0 L 147.0 149.0 L 147.0 150.0 L 148.0 151.0 L 150.0 151.0 L 151.0 151.0 L 153.0 150.0 L 154.0 149.0 L 155.0 147.0 L 156.0 144.0 L 156.0 142.0 L 156.0 140.0 L 156.0 139.0 L 155.0 137.0 L 154.0 136.0 L 153.0 135.0 L 152.0 134.0 L 150.0 134.0 L 149.0 134.0 L 148.0 136.0 L 147.0 140.0 L 146.0 144.0 L 146.0 148.0 L 146.0 152.0 L 146.0 154.0 L 146.0 157.0 L 148.0 158.0 L 150.0 158.0 L 151.0 158.0 L 153.0 156.0 L 154.0 154.0 L 155.0 152.0 L 155.0 149.0 L 155.0 147.0 L 155.0 145.0 L 152.0 141.0 L 151.0 139.0 L 149.0 138.0 L 148.0 137.0 L 148.0 137.0 L 147.0 138.0 L 146.0 139.0 L 146.0 141.0 L 146.0 144.0 L 146.0 147.0 L 146.0 149.0 L 146.0 151.0 L 147.0 153.0 L 148.0 154.0 L 150.0 155.0 L 151.0 155.0 L 152.0 155.0 L 153.0 154.0 L 154.0 153.0 L 155.0 151.0 L 155.0 149.0 L 155.0 147.0 L 155.0 145.0 L 154.0 143.0 L 153.0 141.0 L 152.0 139.0 L 150.0 137.0 L 149.0 136.0 L 148.0 136.0 L 146.0 136.0 L 145.0 136.0 L 144.0 137.0 L 144.0 139.0 L 144.0 142.0 L 144.0 145.0 L 144.0 147.0 L 145.0 149.0 L 146.0 151.0 L 148.0 152.0 L 150.0 152.0 L 152.0 152.0 L 154.0 151.0 L 155.0 149.0 L 156.0 147.0 L 156.0 145.0 L 156.0 143.0 L 156.0 141.0 L 155.0 139.0 L 153.0 138.0 L 152.0 137.0 L 150.0 136.0 L 148.0 136.0 L 147.0 136.0 L 145.0 136.0 L 144.0 137.0 L 144.0 139.0 L 143.0 142.0 L 143.0 144.0 L 143.0 146.0 L 143.0 148.0 L 144.0 149.0 L 145.0 150.0 L 146.0 150.0 L 147.0 150.0 L 148.0 150.0 L 149.0 149.0 L 150.0 148.0 L 150.0 146.0 L 150.0 145.0 L 150.0 144.0 L 150.0 142.0 L 148.0 141.0 L 147.0 140.0 L 146.0 139.0 L 145.0 138.0 L 144.0 138.0 L 143.0 138.0 L 142.0 138.0 L 142.0 140.0 L 141.0 142.0 L 141.0 144.0 L 141.0 146.0 L 142.0 148.0 L 143.0 151.0 L 144.0 152.0 L 146.0 153.0 L 148.0 154.0 L 150.0 154.0 L 152.0 154.0 L 154.0 153.0 L 156.0 151.0 L 157.0 149.0 L 157.0 146.0 L 157.0 144.0 L 157.0 142.0 L 156.0 140.0 L 154.0 138.0 L 153.0 137.0 L 151.0 136.0 L 150.0 135.0 L 148.0 135.0 L 147.0 135.0 L 146.0 135.0 L 145.0 137.0 L 144.0 140.0 L 144.0 143.0 L 144.0 146.0 L 144.0 148.0 L 144.0 151.0 L 146.0 152.0 L 148.0 153.0 L 150.0 154.0 L 152.0 154.0 L 154.0 153.0 L 156.0 152.0 L 157.0 150.0 L 159.0 148.0 L 159.0 146.0 L 159.0 144.0 L 159.0 143.0 L 159.0 141.0 L 159.0 140.0 L 158.0 139.0 L 158.0 139.0 L 157.0 138.0 L 157.0 138.0 L 157.0 138.0 L 157.0 138.0 L 157.0 138.0 L 157.0 138.0 L 157.0 138.0 L 157.0 139.0 L 157.0 139.0 L 157.0 139.0 L 157.0 140.0 L 157.0 140.0 L 157.0 140.0 L 157.0 141.0 L 157.0 141.0 L 157.0 141.0 L 157.0 142.0 L 157.0 142.0 L 157.0 143.0 L 157.0 143.0 L 157.0 144.0 L 158.0 144.0 L 158.0 145.0 L 158.0 146.0 L 158.0 147.0 L 158.0 148.0 L 159.0 149.0 L 159.0 151.0 L 159.0 152.0 L 160.0 154.0 L 160.0 156.0 L 161.0 158.0 L 161.0 160.0 L 161.0 162.0 L 161.0 164.0 L 161.0 166.0 L 160.0 168.0 L 159.0 171.0 L 158.0 173.0 L 156.0 176.0 L 154.0 179.0 L 152.0 182.0 L 149.0 186.0 L 146.0 189.0 L 145.0 191.0 " stroke="black" fill="none" stroke-width="5.0" stroke-linecap="round" stroke-linejoin="round" />
<path d="M 139.0 194.0 L 139.0 194.0 L 139.0 194.0 L 139.0 194.0 " stroke="black" fill="none" stroke-width="5.0" stroke-linecap="round" stroke-linejoin="round" />
</svg>