<svg xmlns="http://www.w3.org/2000/svg" width="300" height="300" viewBox="0 0 300 300">
<path d="M 150.0 147.0 L 150.0 147.0 L 150.0 146.0 L 150.0 146.0 L 150.0 145.0 L 150.0 145.0 L 150.0 144.0 L 150.0 144.0 L 150.0 144.0 L 150.0 144.0 L 150.0 144.0 L 150.0 143.0 L 150.0 143.0 L 150.0 143.0 L 150.0 143.0 L 150.0 143.0 L 150.0 143.0 L 149.0 144.0 L 149.0 144.0 L 149.0 145.0 L 149.0 145.0 L 149.0 146.0 L 149.0 146.0 L 149.0 147.0 L 149.0 147.0 L 149.0 148.0 L 149.0 148.0 L 149.0 148.0 L 149.0 148.0 L 149.0 148.0 L 149.0 148.0 L 149.0 148.0 L 149.0 148.0 L 149.0 147.0 L 149.0 147.0 L 149.0 146.0 L 148.0 146.0 L 148.0 145.0 L 147.0 145.0 L 147.0 145.0 L 146.0 145.0 L 146.0 145.0 L 146.0 145.0 L 146.0 146.0 L 146.0 147.0 L 147.0 147.0 L 148.0 148.0 L 149.0 148.0 L 150.0 149.0 L 151.0 149.0 L 152.0 149.0 L 153.0 148.0 L 154.0 147.0 L 154.0 146.0 L 154.0 145.0 L 154.0 143.0 L 154.0 142.0 L 153.0 140.0 L 152.0 139.0 L 150.0 139.0 L 149.0 138.0 L 148.0 138.0 L 147.0 138.0 L 146.0 139.0 L 146.0 141.0 L 145.0 143.0 L 145.0 145.0 L 145.0 147.0 L 146.0 148.0 L 147.0 150.0 L 149.0 150.0 L 151.0 150.0 L 153.0 150.0 L 155.0 150.0 L 156.0 149.0 L 158.0 147.0 L 158.0 145.0 L 158.0 143.0 L 158.0 141.0 L 158.0 139.0 L 156.0 138.0 L 154.0 137.0 L 153.0 136.0 L 151.0 135.0 L 149.0 135.0 L 148.0 135.0 L 146.0 136.0 L 145.0 137.0 L 144.0 140.0 L 144.0 143.0 L 144.0 146.0 L 144.0 148.0 L 145.0 151.0 L 146.0 152.0 L 148.0 154.0 L 150.0 154.0 L 153.0 154.0 L 155.0 154.0 L 157.0 152.0 L 159.0 150.0 L 160.0 148.0 L 160.0 146.0 L 160.0 143.0 L 160.0 141.0 L 158.0 140.0 L 157.0 138.0 L 155.0 137.0 L 153.0 136.0 L 152.0 136.0 L 150.0 136.0 L 149.0 136.0 L 148.0 136.0 L 147.0 138.0 L 147.0 141.0 L 146.0 143.0 L 146.0 146.0 L 146.0 149.0 L 147.0 151.0 L 148.0 153.0 L 149.0 154.0 L 151.0 155.0 L 153.0 155.0 L 155.0 154.0 L 157.0 153.0 L 158.0 152.0 L 159.0 150.0 L 160.0 148.0 L 160.0 146.0 L 160.0 145.0 L 159.0 144.0 L 158.0 143.0 L 158.0 142.0 L 157.0 141.0 L 156.0 141.0 L 156.0 141.0 L 156.0 141.0 L 155.0 141.0 L 155.0 141.0 L 155.0 141.0 L 155.0 141.0 L 155.0 142.0 L 155.0 143.0 L 155.0 143.0 L 155.0 144.0 L 156.0 144.0 L 156.0 145.0 L 156.0 145.0 L 157.0 146.0 L 157.0 147.0 L 157.0 147.0 L 158.0 148.0 L 158.0 149.0 L 158.0 150.0 L 158.0 151.0 L 158.0 153.0 L 158.0 155.0 L 158.0 158.0 L 158.0 161.0 L 158.0 165.0 L 158.0 169.0 L 157.0 173.0 L 155.0 177.0 L 154.0 181.0 L 152.0 185.0 L 149.0 187.0 L 147.0 189.0 L 144.0 190.0 L 142.0 189.0 L 141.0 189.0 " stroke="black" fill="none" stroke-width="5.0" stroke-linecap="round" stroke-linejoin="round" />
</svg>