<svg xmlns="http://www.w3.org/2000/svg" width="300" height="300" viewBox="0 0 300 300">
<path d="M 150.0 141.0 L 150.0 140.0 L 149.0 139.0 L 149.0 138.0 L 148.0 137.0 L 148.0 137.0 L 148.0 137.0 L 148.0 136.0 L 148.0 136.0 L 148.0 136.0 L 148.0 136.0 L 148.0 137.0 L 148.0 139.0 L 148.0 141.0 L 148.0 142.0 L 148.0 143.0 L 148.0 144.0 L 149.0 145.0 L 150.0 145.0 L 150.0 145.0 L 151.0 145.0 L 152.0 145.0 L 152.0 144.0 L 153.0 143.0 L 153.0 143.0 L 153.0 142.0 L 153.0 141.0 L 152.0 141.0 L 151.0 141.0 L 150.0 141.0 L 149.0 141.0 L 148.0 141.0 L 147.0 142.0 L 147.0 143.0 L 146.0 144.0 L 146.0 145.0 L 146.0 146.0 L 147.0 147.0 L 148.0 147.0 L 149.0 147.0 L 150.0 147.0 L 151.0 147.0 L 152.0 146.0 L 153.0 144.0 L 154.0 143.0 L 154.0 141.0 L 154.0 140.0 L 154.0 139.0 L 153.0 138.0 L 153.0 137.0 L 152.0 137.0 L 150.0 137.0 L 149.0 138.0 L 148.0 140.0 L 148.0 142.0 L 147.0 144.0 L 147.0 146.0 L 147.0 147.0 L 147.0 148.0 L 148.0 149.0 L 150.0 149.0 L 152.0 149.0 L 153.0 148.0 L 155.0 146.0 L 157.0 144.0 L 158.0 143.0 L 158.0 141.0 L 158.0 140.0 L 158.0 140.0 L 157.0 139.0 L 155.0 139.0 L 154.0 139.0 L 152.0 139.0 L 151.0 139.0 L 150.0 139.0 L 150.0 140.0 L 149.0 141.0 L 149.0 142.0 L 149.0 144.0 L 149.0 146.0 L 149.0 148.0 L 149.0 149.0 L 150.0 150.0 L 151.0 151.0 L 153.0 152.0 L 154.0 152.0 L 155.0 151.0 L 156.0 150.0 L 157.0 149.0 L 157.0 148.0 L 157.0 146.0 L 157.0 145.0 L 157.0 143.0 L 156.0 142.0 L 155.0 141.0 L 154.0 141.0 L 153.0 141.0 L 152.0 140.0 L 151.0 140.0 L 150.0 141.0 L 149.0 143.0 L 148.0 145.0 L 148.0 147.0 L 148.0 149.0 L 148.0 151.0 L 148.0 152.0 L 149.0 153.0 L 150.0 154.0 L 151.0 154.0 L 152.0 153.0 L 154.0 152.0 L 155.0 150.0 L 155.0 149.0 L 156.0 147.0 L 156.0 145.0 L 156.0 144.0 L 155.0 142.0 L 154.0 141.0 L 152.0 140.0 L 151.0 139.0 L 149.0 139.0 L 148.0 139.0 L 147.0 140.0 L 146.0 142.0 L 146.0 145.0 L 145.0 148.0 L 145.0 150.0 L 146.0 152.0 L 146.0 154.0 L 147.0 155.0 L 148.0 156.0 L 150.0 156.0 L 151.0 156.0 L 152.0 155.0 L 153.0 154.0 L 154.0 153.0 L 154.0 151.0 L 155.0 150.0 L 155.0 148.0 L 154.0 147.0 L 153.0 146.0 L 152.0 146.0 L 151.0 145.0 L 150.0 145.0 L 149.0 145.0 L 148.0 145.0 L 147.0 146.0 L 147.0 147.0 L 147.0 149.0 L 147.0 151.0 L 147.0 152.0 L 147.0 154.0 L 148.0 155.0 L 149.0 155.0 L 151.0 155.0 L 153.0 155.0 L 156.0 155.0 L 159.0 154.0 L 161.0 152.0 L 163.0 151.0 L 165.0 150.0 L 166.0 148.0 L 166.0 147.0 L 166.0 146.0 L 166.0 146.0 L 165.0 146.0 L 164.0 145.0 L 163.0 145.0 L 163.0 145.0 L 162.0 145.0 L 162.0 145.0 L 162.0 146.0 L 161.0 146.0 L 161.0 146.0 L 161.0 146.0 L 161.0 147.0 L 161.0 147.0 L 161.0 147.0 L 161.0 148.0 L 160.0 148.0 L 160.0 148.0 L 160.0 149.0 L 160.0 149.0 L 160.0 149.0 L 160.0 150.0 L 160.0 150.0 L 160.0 150.0 L 160.0 151.0 L 160.0 152.0 L 160.0 152.0 L 160.0 153.0 L 160.0 154.0 L 160.0 154.0 L 159.0 155.0 L 159.0 156.0 L 159.0 157.0 L 159.0 157.0 L 159.0 158.0 L 159.0 159.0 L 159.0 159.0 L 159.0 159.0 L 159.0 160.0 L 159.0 160.0 L 159.0 160.0 L 159.0 160.0 L 159.0 160.0 L 160.0 160.0 L 160.0 161.0 L 160.0 161.0 L 160.0 161.0 L 160.0 161.0 L 160.0 162.0 L 160.0 162.0 L 160.0 163.0 L 160.0 164.0 L 160.0 165.0 L 160.0 167.0 L 158.0 169.0 L 157.0 172.0 L 154.0 176.0 L 152.0 180.0 L 148.0 184.0 L 144.0 189.0 L 140.0 193.0 L 134.0 196.0 L 129.0 199.0 L 125.0 201.0 L 123.0 202.0 " stroke="black" fill="none" stroke-width="5.0" stroke-linecap="round" stroke-linejoin="round" />
</svg>