<svg xmlns="http://www.w3.org/2000/svg" width="300" height="300" viewBox="0 0 300 300">
<path d="M 149.0 139.0 L 149.0 139.0 L 149.0 138.0 L 148.0 138.0 L 148.0 138.0 L 147.0 137.0 L 147.0 137.0 L 147.0 137.0 L 146.0 137.0 L 146.0 137.0 L 146.0 137.0 L 146.0 137.0 L 146.0 137.0 L 146.0 138.0 L 146.0 139.0 L 146.0 140.0 L 147.0 142.0 L 148.0 143.0 L 148.0 144.0 L 149.0 145.0 L 150.0 145.0 L 151.0 145.0 L 152.0 145.0 L 153.0 145.0 L 153.0 144.0 L 153.0 142.0 L 153.0 141.0 L 153.0 140.0 L 151.0 139.0 L 150.0 138.0 L 149.0 138.0 L 147.0 138.0 L 146.0 138.0 L 145.0 139.0 L 145.0 140.0 L 144.0 142.0 L 144.0 144.0 L 144.0 146.0 L 145.0 147.0 L 146.0 149.0 L 147.0 150.0 L 148.0 150.0 L 150.0 150.0 L 151.0 150.0 L 152.0 149.0 L 152.0 148.0 L 153.0 146.0 L 153.0 145.0 L 153.0 143.0 L 153.0 141.0 L 152.0 140.0 L 152.0 139.0 L 151.0 137.0 L 150.0 137.0 L 149.0 137.0 L 148.0 137.0 L 147.0 138.0 L 147.0 139.0 L 146.0 142.0 L 146.0 144.0 L 146.0 146.0 L 146.0 147.0 L 147.0 148.0 L 149.0 149.0 L 150.0 149.0 L 152.0 149.0 L 154.0 148.0 L 156.0 146.0 L 157.0 144.0 L 158.0 142.0 L 158.0 140.0 L 158.0 139.0 L 158.0 137.0 L 158.0 136.0 L 156.0 135.0 L 155.0 135.0 L 153.0 135.0 L 152.0 135.0 L 151.0 136.0 L 150.0 138.0 L 149.0 140.0 L 149.0 143.0 L 149.0 145.0 L 149.0 147.0 L 149.0 149.0 L 150.0 151.0 L 151.0 151.0 L 153.0 152.0 L 155.0 152.0 L 156.0 152.0 L 158.0 151.0 L 159.0 149.0 L 160.0 148.0 L 161.0 147.0 L 161.0 146.0 L 161.0 145.0 L 161.0 144.0 L 161.0 144.0 L 161.0 144.0 L 161.0 143.0 L 161.0 143.0 L 161.0 143.0 L 161.0 143.0 L 161.0 143.0 L 161.0 143.0 L 161.0 143.0 L 161.0 143.0 L 161.0 143.0 L 161.0 144.0 L 161.0 144.0 L 161.0 144.0 L 161.0 144.0 L 161.0 144.0 L 161.0 145.0 L 161.0 146.0 L 161.0 147.0 L 162.0 149.0 L 162.0 150.0 L 162.0 153.0 L 162.0 156.0 L 162.0 160.0 L 160.0 164.0 L 158.0 168.0 L 155.0 173.0 L 152.0 178.0 L 149.0 182.0 L 146.0 186.0 L 143.0 190.0 L 139.0 192.0 L 136.0 194.0 " stroke="black" fill="none" stroke-width="5.0" stroke-linecap="round" stroke-linejoin="round" />
</svg>