<svg xmlns="http://www.w3.org/2000/svg" width="300" height="300" viewBox="0 0 300 300">
<path d="M 151.0 137.0 L 151.0 137.0 L 151.0 137.0 L 150.0 137.0 L 149.0 137.0 L 148.0 137.0 L 148.0 138.0 L 148.0 138.0 L 148.0 139.0 L 148.0 140.0 L 148.0 140.0 L 148.0 141.0 L 149.0 141.0 L 149.0 142.0 L 150.0 142.0 L 150.0 142.0 L 150.0 142.0 L 150.0 142.0 L 151.0 142.0 L 151.0 142.0 L 151.0 142.0 L 151.0 142.0 L 151.0 142.0 L 151.0 142.0 L 151.0 142.0 L 151.0 142.0 L 151.0 142.0 L 151.0 142.0 L 151.0 142.0 L 151.0 142.0 L 151.0 142.0 L 151.0 142.0 L 151.0 142.0 L 151.0 142.0 L 152.0 142.0 L 152.0 142.0 L 152.0 142.0 L 153.0 142.0 L 153.0 142.0 L 154.0 142.0 L 154.0 142.0 L 154.0 142.0 L 154.0 141.0 L 154.0 141.0 L 154.0 139.0 L 153.0 138.0 L 152.0 138.0 L 151.0 137.0 L 150.0 137.0 L 149.0 137.0 L 148.0 137.0 L 148.0 137.0 L 147.0 138.0 L 147.0 139.0 L 147.0 141.0 L 147.0 143.0 L 148.0 144.0 L 149.0 145.0 L 150.0 146.0 L 151.0 147.0 L 152.0 147.0 L 153.0 147.0 L 154.0 147.0 L 155.0 146.0 L 155.0 145.0 L 155.0 144.0 L 155.0 142.0 L 155.0 141.0 L 154.0 139.0 L 153.0 138.0 L 152.0 137.0 L 151.0 137.0 L 150.0 136.0 L 150.0 136.0 L 149.0 136.0 L 148.0 138.0 L 148.0 139.0 L 148.0 142.0 L 148.0 144.0 L 148.0 146.0 L 149.0 148.0 L 150.0 149.0 L 151.0 150.0 L 153.0 150.0 L 154.0 150.0 L 156.0 150.0 L 158.0 149.0 L 159.0 147.0 L 159.0 145.0 L 159.0 142.0 L 159.0 140.0 L 157.0 138.0 L 155.0 137.0 L 154.0 136.0 L 152.0 135.0 L 150.0 135.0 L 149.0 135.0 L 148.0 135.0 L 147.0 136.0 L 146.0 139.0 L 146.0 141.0 L 146.0 143.0 L 146.0 145.0 L 146.0 147.0 L 147.0 149.0 L 148.0 150.0 L 150.0 151.0 L 151.0 151.0 L 153.0 151.0 L 155.0 151.0 L 157.0 149.0 L 158.0 147.0 L 159.0 145.0 L 160.0 143.0 L 160.0 141.0 L 159.0 140.0 L 158.0 139.0 L 156.0 138.0 L 154.0 138.0 L 152.0 138.0 L 150.0 138.0 L 149.0 138.0 L 147.0 140.0 L 146.0 142.0 L 145.0 144.0 L 144.0 147.0 L 144.0 149.0 L 144.0 152.0 L 145.0 154.0 L 146.0 155.0 L 147.0 156.0 L 149.0 156.0 L 151.0 156.0 L 153.0 156.0 L 155.0 154.0 L 156.0 152.0 L 157.0 150.0 L 158.0 147.0 L 158.0 145.0 L 158.0 144.0 L 158.0 142.0 L 157.0 141.0 L 156.0 140.0 L 154.0 139.0 L 153.0 139.0 L 152.0 139.0 L 151.0 139.0 L 150.0 139.0 L 150.0 141.0 L 149.0 142.0 L 149.0 144.0 L 149.0 146.0 L 149.0 148.0 L 149.0 149.0 L 150.0 151.0 L 151.0 152.0 L 152.0 153.0 L 154.0 153.0 L 155.0 153.0 L 157.0 153.0 L 159.0 151.0 L 160.0 150.0 L 161.0 148.0 L 161.0 147.0 L 161.0 146.0 L 161.0 145.0 L 161.0 144.0 L 161.0 144.0 L 161.0 144.0 L 161.0 144.0 L 160.0 144.0 L 160.0 144.0 L 160.0 144.0 L 160.0 144.0 L 160.0 144.0 L 160.0 144.0 L 160.0 144.0 L 160.0 145.0 L 160.0 145.0 L 160.0 145.0 L 160.0 146.0 L 160.0 146.0 L 160.0 146.0 L 161.0 147.0 L 161.0 147.0 L 161.0 148.0 L 161.0 148.0 L 161.0 148.0 L 161.0 149.0 L 162.0 150.0 L 162.0 150.0 L 162.0 151.0 L 162.0 152.0 L 162.0 153.0 L 162.0 154.0 L 162.0 155.0 L 162.0 156.0 L 162.0 157.0 L 162.0 159.0 L 162.0 160.0 L 162.0 161.0 L 162.0 163.0 L 162.0 165.0 L 162.0 166.0 L 161.0 169.0 L 159.0 170.0 L 157.0 173.0 L 155.0 175.0 L 153.0 178.0 L 150.0 180.0 L 148.0 183.0 L 145.0 186.0 L 144.0 188.0 L 142.0 189.0 L 142.0 190.0 " stroke="black" fill="none" stroke-width="5.0" stroke-linecap="round" stroke-linejoin="round" />
</svg>