<svg xmlns="http://www.w3.org/2000/svg" width="300" height="300" viewBox="0 0 300 300">
<path d="M 152.0 137.0 L 152.0 137.0 L 152.0 137.0 L 151.0 137.0 L 151.0 137.0 L 151.0 137.0 L 150.0 137.0 L 150.0 137.0 L 150.0 137.0 L 149.0 137.0 L 149.0 137.0 L 149.0 137.0 L 149.0 137.0 L 148.0 137.0 L 148.0 137.0 L 148.0 137.0 L 148.0 138.0 L 148.0 139.0 L 149.0 141.0 L 149.0 142.0 L 150.0 143.0 L 151.0 144.0 L 152.0 144.0 L 153.0 144.0 L 154.0 144.0 L 155.0 143.0 L 155.0 142.0 L 156.0 141.0 L 156.0 139.0 L 156.0 138.0 L 156.0 137.0 L 155.0 137.0 L 154.0 136.0 L 153.0 136.0 L 152.0 136.0 L 152.0 137.0 L 151.0 138.0 L 150.0 139.0 L 150.0 141.0 L 150.0 142.0 L 150.0 144.0 L 150.0 145.0 L 150.0 146.0 L 150.0 147.0 L 151.0 147.0 L 152.0 147.0 L 153.0 147.0 L 154.0 146.0 L 155.0 145.0 L 155.0 144.0 L 155.0 142.0 L 155.0 140.0 L 155.0 139.0 L 155.0 138.0 L 154.0 137.0 L 153.0 137.0 L 152.0 137.0 L 151.0 137.0 L 150.0 137.0 L 149.0 139.0 L 148.0 141.0 L 147.0 143.0 L 146.0 145.0 L 146.0 147.0 L 146.0 149.0 L 146.0 151.0 L 147.0 152.0 L 148.0 152.0 L 150.0 152.0 L 152.0 152.0 L 154.0 151.0 L 155.0 149.0 L 157.0 147.0 L 158.0 145.0 L 158.0 143.0 L 158.0 142.0 L 158.0 140.0 L 156.0 139.0 L 155.0 139.0 L 153.0 138.0 L 151.0 138.0 L 149.0 138.0 L 148.0 138.0 L 146.0 139.0 L 145.0 141.0 L 144.0 142.0 L 144.0 144.0 L 144.0 146.0 L 144.0 147.0 L 144.0 148.0 L 144.0 149.0 L 145.0 149.0 L 147.0 149.0 L 148.0 149.0 L 150.0 149.0 L 151.0 148.0 L 152.0 147.0 L 153.0 146.0 L 153.0 145.0 L 153.0 144.0 L 153.0 142.0 L 153.0 141.0 L 152.0 139.0 L 151.0 138.0 L 150.0 137.0 L 149.0 137.0 L 147.0 137.0 L 146.0 137.0 L 146.0 139.0 L 145.0 141.0 L 145.0 144.0 L 145.0 147.0 L 146.0 149.0 L 147.0 151.0 L 148.0 152.0 L 150.0 153.0 L 152.0 153.0 L 153.0 153.0 L 155.0 151.0 L 156.0 150.0 L 157.0 148.0 L 158.0 146.0 L 158.0 145.0 L 158.0 144.0 L 158.0 143.0 L 158.0 143.0 L 157.0 142.0 L 157.0 142.0 L 155.0 141.0 L 154.0 141.0 L 153.0 141.0 L 152.0 141.0 L 151.0 142.0 L 151.0 143.0 L 150.0 145.0 L 150.0 147.0 L 150.0 150.0 L 150.0 152.0 L 150.0 153.0 L 151.0 155.0 L 153.0 155.0 L 154.0 156.0 L 156.0 156.0 L 158.0 155.0 L 160.0 153.0 L 162.0 151.0 L 163.0 148.0 L 163.0 145.0 L 164.0 143.0 L 164.0 141.0 L 163.0 139.0 L 161.0 138.0 L 160.0 137.0 L 158.0 136.0 L 157.0 136.0 L 155.0 136.0 L 154.0 137.0 L 153.0 138.0 L 153.0 140.0 L 152.0 143.0 L 152.0 146.0 L 152.0 148.0 L 152.0 150.0 L 152.0 152.0 L 153.0 153.0 L 155.0 154.0 L 156.0 154.0 L 158.0 154.0 L 160.0 153.0 L 161.0 151.0 L 162.0 149.0 L 163.0 147.0 L 163.0 145.0 L 163.0 143.0 L 163.0 142.0 L 161.0 140.0 L 160.0 139.0 L 158.0 138.0 L 156.0 137.0 L 154.0 137.0 L 153.0 137.0 L 151.0 137.0 L 150.0 138.0 L 149.0 140.0 L 149.0 142.0 L 148.0 144.0 L 148.0 146.0 L 148.0 148.0 L 149.0 149.0 L 150.0 150.0 L 152.0 151.0 L 154.0 151.0 L 156.0 150.0 L 158.0 149.0 L 160.0 147.0 L 161.0 145.0 L 161.0 143.0 L 162.0 141.0 L 162.0 139.0 L 161.0 138.0 L 159.0 137.0 L 157.0 136.0 L 156.0 135.0 L 155.0 135.0 L 153.0 135.0 L 153.0 135.0 L 152.0 136.0 L 152.0 139.0 L 152.0 142.0 L 152.0 144.0 L 152.0 147.0 L 153.0 149.0 L 154.0 150.0 L 155.0 152.0 L 156.0 152.0 L 157.0 153.0 L 158.0 153.0 L 159.0 153.0 L 160.0 153.0 L 161.0 153.0 L 161.0 152.0 L 162.0 152.0 L 163.0 151.0 L 163.0 151.0 L 164.0 150.0 L 164.0 150.0 L 164.0 149.0 L 165.0 149.0 L 165.0 149.0 L 165.0 148.0 L 165.0 148.0 L 165.0 148.0 L 165.0 148.0 L 165.0 148.0 L 165.0 148.0 L 165.0 148.0 L 165.0 148.0 L 165.0 148.0 L 165.0 148.0 L 165.0 149.0 L 165.0 150.0 L 165.0 151.0 L 165.0 153.0 L 164.0 155.0 L 164.0 157.0 L 163.0 160.0 L 161.0 163.0 L 159.0 166.0 L 157.0 170.0 L 155.0 175.0 L 153.0 179.0 L 150.0 183.0 L 147.0 187.0 L 144.0 190.0 L 142.0 192.0 L 139.0 194.0 L 138.0 194.0 L 137.0 194.0 " stroke="black" fill="none" stroke-width="5.0" stroke-linecap="round" stroke-linejoin="round" />
</svg>