<svg xmlns="http://www.w3.org/2000/svg" width="300" height="300" viewBox="0 0 300 300">
<path d="M 106.0 86.0 L 105.0 86.0 L 103.0 86.0 L 101.0 86.0 L 100.0 86.0 L 99.0 86.0 L 99.0 86.0 L 99.0 86.0 L 99.0 86.0 L 101.0 86.0 L 103.0 86.0 L 106.0 86.0 L 112.0 86.0 L 119.0 86.0 L 130.0 86.0 L 142.0 86.0 L 155.0 86.0 L 169.0 85.0 L 186.0 85.0 L 197.0 85.0 L 206.0 85.0 L 215.0 85.0 L 221.0 86.0 L 226.0 87.0 L 229.0 88.0 L 229.0 89.0 " stroke="black" fill="none" stroke-width="5.0" stroke-linecap="round" stroke-linejoin="round" />
<path d="M 167.0 94.0 L 167.0 94.0 L 167.0 94.0 L 166.0 94.0 L 166.0 94.0 L 165.0 94.0 L 164.0 94.0 L 164.0 95.0 L 163.0 96.0 L 162.0 99.0 L 160.0 103.0 L 158.0 107.0 L 155.0 113.0 L 151.0 120.0 L 145.0 128.0 L 138.0 136.0 L 129.0 146.0 L 118.0 156.0 L 109.0 164.0 L 102.0 171.0 L 95.0 178.0 L 87.0 183.0 L 78.0 188.0 L 71.0 192.0 L 68.0 192.0 " stroke="black" fill="none" stroke-width="5.0" stroke-linecap="round" stroke-linejoin="round" />
<path d="M 140.0 138.0 L 140.0 138.0 L 139.0 137.0 L 139.0 137.0 L 138.0 137.0 L 138.0 137.0 L 138.0 137.0 L 138.0 139.0 L 139.0 143.0 L 140.0 147.0 L 141.0 153.0 L 142.0 161.0 L 143.0 170.0 L 144.0 183.0 L 144.0 198.0 L 144.0 211.0 L 144.0 226.0 L 143.0 241.0 L 143.0 252.0 L 142.0 261.0 L 141.0 271.0 " stroke="black" fill="none" stroke-width="5.0" stroke-linecap="round" stroke-linejoin="round" />
<path d="M 148.0 133.0 L 148.0 133.0 L 146.0 133.0 L 145.0 133.0 L 144.0 133.0 L 144.0 133.0 L 144.0 133.0 L 144.0 133.0 L 146.0 135.0 L 149.0 137.0 L 153.0 140.0 L 160.0 144.0 L 168.0 149.0 L 178.0 155.0 L 187.0 162.0 L 195.0 168.0 L 202.0 174.0 L 208.0 179.0 L 215.0 183.0 L 222.0 186.0 L 228.0 188.0 L 233.0 189.0 L 234.0 190.0 " stroke="black" fill="none" stroke-width="5.0" stroke-linecap="round" stroke-linejoin="round" />
</svg>