<svg xmlns="http://www.w3.org/2000/svg" width="300" height="300" viewBox="0 0 300 300">
<path d="M 72.0 96.0 L 72.0 96.0 L 72.0 96.0 L 71.0 96.0 L 71.0 96.0 L 71.0 95.0 L 71.0 95.0 L 73.0 95.0 L 76.0 94.0 L 81.0 94.0 L 88.0 94.0 L 96.0 93.0 L 105.0 93.0 L 115.0 93.0 L 127.0 93.0 L 141.0 93.0 L 154.0 93.0 L 165.0 93.0 L 177.0 93.0 L 189.0 93.0 L 198.0 93.0 L 205.0 93.0 L 213.0 93.0 L 220.0 92.0 L 225.0 91.0 L 226.0 90.0 " stroke="black" fill="none" stroke-width="5.0" stroke-linecap="round" stroke-linejoin="round" />
<path d="M 164.0 95.0 L 164.0 95.0 L 163.0 94.0 L 163.0 93.0 L 162.0 93.0 L 161.0 93.0 L 160.0 94.0 L 159.0 96.0 L 158.0 100.0 L 156.0 104.0 L 154.0 109.0 L 152.0 114.0 L 150.0 120.0 L 148.0 125.0 L 144.0 132.0 L 139.0 139.0 L 132.0 147.0 L 123.0 154.0 L 113.0 161.0 L 105.0 167.0 L 96.0 173.0 L 86.0 180.0 L 76.0 187.0 L 68.0 192.0 L 64.0 195.0 L 62.0 197.0 L 61.0 198.0 " stroke="black" fill="none" stroke-width="5.0" stroke-linecap="round" stroke-linejoin="round" />
<path d="M 152.0 126.0 L 152.0 126.0 L 151.0 125.0 L 151.0 125.0 L 150.0 125.0 L 150.0 125.0 L 150.0 126.0 L 150.0 129.0 L 150.0 133.0 L 150.0 139.0 L 150.0 146.0 L 151.0 153.0 L 152.0 162.0 L 152.0 174.0 L 152.0 186.0 L 151.0 199.0 L 150.0 213.0 L 148.0 225.0 L 147.0 236.0 L 146.0 244.0 L 145.0 249.0 L 145.0 252.0 L 145.0 254.0 L 145.0 254.0 L 146.0 254.0 " stroke="black" fill="none" stroke-width="5.0" stroke-linecap="round" stroke-linejoin="round" />
<path d="M 160.0 137.0 L 160.0 136.0 L 158.0 134.0 L 158.0 133.0 L 157.0 133.0 L 157.0 133.0 L 157.0 133.0 L 157.0 133.0 L 157.0 134.0 L 158.0 135.0 L 160.0 136.0 L 162.0 137.0 L 165.0 139.0 L 169.0 141.0 L 174.0 144.0 L 179.0 146.0 L 185.0 149.0 L 191.0 153.0 L 196.0 156.0 L 201.0 161.0 L 206.0 165.0 L 211.0 169.0 L 216.0 174.0 L 221.0 178.0 L 224.0 182.0 L 227.0 186.0 L 230.0 189.0 L 232.0 191.0 L 233.0 193.0 L 233.0 193.0 " stroke="black" fill="none" stroke-width="5.0" stroke-linecap="round" stroke-linejoin="round" />
</svg>