<svg xmlns="http://www.w3.org/2000/svg" width="300" height="300" viewBox="0 0 300 300">
<path d="M 68.0 88.0 L 68.0 88.0 L 68.0 88.0 L 68.0 88.0 L 67.0 88.0 L 67.0 88.0 L 67.0 88.0 L 67.0 89.0 L 67.0 89.0 L 67.0 89.0 L 67.0 89.0 L 67.0 89.0 L 67.0 89.0 L 68.0 89.0 L 68.0 89.0 L 69.0 89.0 L 69.0 89.0 L 70.0 89.0 L 71.0 89.0 L 72.0 89.0 L 73.0 89.0 L 74.0 89.0 L 75.0 89.0 L 76.0 89.0 L 77.0 89.0 L 78.0 89.0 L 80.0 90.0 L 81.0 90.0 L 82.0 90.0 L 84.0 90.0 L 85.0 90.0 L 86.0 91.0 L 88.0 91.0 L 89.0 91.0 L 91.0 91.0 L 92.0 91.0 L 94.0 91.0 L 95.0 92.0 L 96.0 92.0 L 97.0 92.0 L 98.0 92.0 L 99.0 92.0 L 99.0 92.0 L 100.0 92.0 L 101.0 92.0 L 102.0 92.0 L 103.0 92.0 L 103.0 92.0 L 104.0 92.0 L 105.0 92.0 L 105.0 92.0 L 106.0 92.0 L 106.0 92.0 L 107.0 92.0 L 107.0 92.0 L 108.0 92.0 L 108.0 92.0 L 109.0 93.0 L 109.0 93.0 L 110.0 93.0 L 110.0 93.0 L 111.0 93.0 L 112.0 93.0 L 112.0 93.0 L 113.0 93.0 L 113.0 93.0 L 114.0 93.0 L 114.0 93.0 L 115.0 93.0 L 116.0 93.0 L 116.0 93.0 L 117.0 93.0 L 118.0 93.0 L 119.0 93.0 L 120.0 93.0 L 120.0 93.0 L 121.0 93.0 L 122.0 93.0 L 123.0 93.0 L 124.0 93.0 L 126.0 93.0 L 127.0 93.0 L 128.0 92.0 L 129.0 92.0 L 131.0 92.0 L 132.0 92.0 L 133.0 92.0 L 134.0 92.0 L 135.0 92.0 L 136.0 92.0 L 137.0 92.0 L 138.0 92.0 L 138.0 92.0 L 139.0 92.0 L 139.0 91.0 L 140.0 91.0 L 141.0 91.0 L 142.0 91.0 L 142.0 91.0 L 143.0 91.0 L 143.0 91.0 L 144.0 91.0 L 144.0 91.0 L 145.0 91.0 L 146.0 91.0 L 146.0 91.0 L 147.0 91.0 L 147.0 91.0 L 148.0 91.0 L 148.0 91.0 L 149.0 91.0 L 150.0 91.0 L 150.0 91.0 L 151.0 91.0 L 152.0 91.0 L 152.0 91.0 L 153.0 91.0 L 154.0 91.0 L 154.0 91.0 L 155.0 91.0 L 155.0 91.0 L 156.0 91.0 L 157.0 91.0 L 157.0 91.0 L 158.0 91.0 L 159.0 91.0 L 160.0 91.0 L 160.0 91.0 L 161.0 91.0 L 162.0 91.0 L 163.0 91.0 L 164.0 91.0 L 164.0 91.0 L 165.0 91.0 L 166.0 91.0 L 167.0 91.0 L 168.0 91.0 L 169.0 91.0 L 170.0 91.0 L 171.0 91.0 L 172.0 91.0 L 174.0 91.0 L 175.0 91.0 L 176.0 91.0 L 177.0 91.0 L 178.0 91.0 L 179.0 91.0 L 181.0 91.0 L 182.0 91.0 L 183.0 91.0 L 184.0 91.0 L 185.0 91.0 L 186.0 91.0 L 187.0 90.0 L 188.0 90.0 L 189.0 90.0 L 190.0 90.0 L 191.0 90.0 L 191.0 90.0 L 192.0 90.0 L 193.0 90.0 L 193.0 90.0 L 194.0 90.0 L 195.0 90.0 L 195.0 90.0 L 196.0 89.0 L 197.0 89.0 L 197.0 89.0 L 198.0 89.0 L 199.0 89.0 L 199.0 89.0 L 200.0 89.0 L 201.0 89.0 L 202.0 89.0 L 203.0 89.0 L 204.0 89.0 L 205.0 89.0 L 206.0 89.0 L 207.0 89.0 L 208.0 89.0 L 209.0 89.0 L 210.0 89.0 L 211.0 89.0 L 212.0 89.0 L 214.0 89.0 L 216.0 89.0 L 218.0 89.0 L 219.0 89.0 L 221.0 89.0 L 223.0 89.0 L 224.0 89.0 L 225.0 89.0 L 225.0 89.0 " stroke="black" fill="none" stroke-width="5.0" stroke-linecap="round" stroke-linejoin="round" />
<path d="M 159.0 92.0 L 159.0 92.0 L 159.0 92.0 L 159.0 92.0 L 159.0 92.0 L 159.0 92.0 L 159.0 92.0 L 159.0 92.0 L 159.0 92.0 L 159.0 92.0 L 159.0 92.0 L 159.0 92.0 L 159.0 92.0 L 159.0 93.0 L 159.0 93.0 L 159.0 93.0 L 159.0 93.0 L 159.0 93.0 L 159.0 93.0 L 159.0 93.0 L 159.0 93.0 L 159.0 93.0 L 159.0 93.0 L 159.0 93.0 L 159.0 93.0 L 159.0 93.0 L 159.0 92.0 L 159.0 92.0 L 159.0 92.0 L 159.0 92.0 L 159.0 91.0 L 159.0 91.0 L 159.0 91.0 L 159.0 91.0 L 160.0 91.0 L 160.0 91.0 L 160.0 91.0 L 160.0 91.0 L 160.0 91.0 L 160.0 90.0 L 160.0 90.0 L 160.0 90.0 L 160.0 90.0 L 160.0 90.0 L 160.0 90.0 L 160.0 91.0 L 160.0 91.0 L 160.0 92.0 L 160.0 92.0 L 159.0 93.0 L 159.0 94.0 L 158.0 96.0 L 158.0 97.0 L 157.0 98.0 L 157.0 100.0 L 156.0 101.0 L 156.0 103.0 L 155.0 104.0 L 155.0 105.0 L 154.0 106.0 L 153.0 107.0 L 153.0 108.0 L 152.0 109.0 L 152.0 110.0 L 151.0 111.0 L 151.0 112.0 L 150.0 113.0 L 150.0 113.0 L 150.0 114.0 L 149.0 114.0 L 149.0 115.0 L 149.0 115.0 L 149.0 116.0 L 148.0 116.0 L 148.0 117.0 L 147.0 118.0 L 147.0 119.0 L 146.0 120.0 L 146.0 121.0 L 145.0 121.0 L 145.0 122.0 L 145.0 123.0 L 144.0 124.0 L 144.0 124.0 L 143.0 125.0 L 143.0 125.0 L 143.0 126.0 L 142.0 127.0 L 142.0 127.0 L 141.0 128.0 L 141.0 129.0 L 140.0 129.0 L 140.0 130.0 L 139.0 131.0 L 138.0 131.0 L 138.0 132.0 L 137.0 133.0 L 136.0 134.0 L 135.0 135.0 L 134.0 136.0 L 133.0 136.0 L 132.0 137.0 L 131.0 138.0 L 130.0 139.0 L 129.0 140.0 L 128.0 141.0 L 126.0 142.0 L 125.0 143.0 L 124.0 144.0 L 123.0 145.0 L 121.0 146.0 L 120.0 146.0 L 119.0 147.0 L 118.0 148.0 L 118.0 149.0 L 117.0 149.0 L 116.0 150.0 L 115.0 151.0 L 114.0 152.0 L 113.0 153.0 L 113.0 153.0 L 112.0 154.0 L 111.0 155.0 L 110.0 155.0 L 110.0 156.0 L 109.0 156.0 L 109.0 157.0 L 108.0 157.0 L 107.0 158.0 L 107.0 159.0 L 106.0 159.0 L 105.0 160.0 L 105.0 161.0 L 104.0 161.0 L 104.0 162.0 L 103.0 163.0 L 102.0 163.0 L 102.0 164.0 L 101.0 165.0 L 100.0 166.0 L 99.0 166.0 L 99.0 167.0 L 98.0 168.0 L 97.0 169.0 L 96.0 170.0 L 95.0 170.0 L 94.0 171.0 L 93.0 172.0 L 92.0 173.0 L 91.0 174.0 L 90.0 174.0 L 89.0 175.0 L 89.0 175.0 L 88.0 176.0 L 88.0 176.0 L 87.0 177.0 L 86.0 177.0 L 85.0 178.0 L 84.0 178.0 L 83.0 179.0 L 82.0 180.0 L 81.0 181.0 L 79.0 182.0 L 78.0 183.0 L 76.0 185.0 L 74.0 186.0 L 73.0 187.0 " stroke="black" fill="none" stroke-width="5.0" stroke-linecap="round" stroke-linejoin="round" />
<path d="M 150.0 122.0 L 150.0 122.0 L 150.0 122.0 L 150.0 122.0 L 150.0 122.0 L 150.0 122.0 L 150.0 122.0 L 150.0 122.0 L 149.0 122.0 L 149.0 123.0 L 149.0 124.0 L 149.0 125.0 L 149.0 127.0 L 149.0 128.0 L 149.0 131.0 L 149.0 134.0 L 149.0 137.0 L 149.0 140.0 L 149.0 144.0 L 149.0 148.0 L 149.0 152.0 L 149.0 155.0 L 149.0 158.0 L 149.0 161.0 L 149.0 164.0 L 149.0 168.0 L 149.0 171.0 L 149.0 174.0 L 149.0 178.0 L 149.0 182.0 L 149.0 186.0 L 149.0 191.0 L 149.0 195.0 L 149.0 199.0 L 149.0 202.0 L 149.0 205.0 L 149.0 207.0 L 149.0 210.0 L 149.0 213.0 L 149.0 215.0 L 149.0 218.0 L 149.0 221.0 L 149.0 225.0 L 149.0 229.0 L 149.0 233.0 L 150.0 237.0 L 150.0 241.0 L 150.0 245.0 L 150.0 248.0 L 150.0 251.0 L 150.0 252.0 L 150.0 253.0 L 150.0 254.0 L 150.0 254.0 L 150.0 254.0 L 150.0 254.0 " stroke="black" fill="none" stroke-width="5.0" stroke-linecap="round" stroke-linejoin="round" />
<path d="M 152.0 121.0 L 152.0 121.0 L 152.0 121.0 L 151.0 121.0 L 151.0 121.0 L 151.0 121.0 L 151.0 121.0 L 151.0 121.0 L 151.0 121.0 L 151.0 121.0 L 151.0 121.0 L 151.0 121.0 L 151.0 121.0 L 151.0 121.0 L 152.0 121.0 L 152.0 121.0 L 152.0 122.0 L 152.0 122.0 L 153.0 123.0 L 153.0 123.0 L 153.0 124.0 L 154.0 124.0 L 154.0 125.0 L 155.0 125.0 L 155.0 125.0 L 155.0 126.0 L 156.0 126.0 L 156.0 127.0 L 157.0 127.0 L 157.0 127.0 L 157.0 127.0 L 158.0 128.0 L 158.0 128.0 L 159.0 128.0 L 159.0 129.0 L 160.0 129.0 L 160.0 129.0 L 161.0 130.0 L 162.0 130.0 L 162.0 130.0 L 163.0 131.0 L 163.0 131.0 L 164.0 132.0 L 165.0 132.0 L 165.0 133.0 L 166.0 134.0 L 167.0 134.0 L 167.0 135.0 L 168.0 136.0 L 169.0 136.0 L 169.0 137.0 L 170.0 138.0 L 171.0 138.0 L 171.0 139.0 L 172.0 140.0 L 173.0 140.0 L 173.0 141.0 L 174.0 142.0 L 174.0 142.0 L 175.0 143.0 L 175.0 143.0 L 176.0 144.0 L 177.0 144.0 L 177.0 145.0 L 178.0 146.0 L 178.0 146.0 L 179.0 147.0 L 180.0 147.0 L 180.0 147.0 L 181.0 148.0 L 181.0 148.0 L 182.0 149.0 L 183.0 149.0 L 183.0 149.0 L 184.0 149.0 L 184.0 150.0 L 185.0 150.0 L 185.0 150.0 L 185.0 150.0 L 186.0 151.0 L 187.0 151.0 L 187.0 151.0 L 187.0 152.0 L 188.0 152.0 L 188.0 152.0 L 189.0 152.0 L 189.0 153.0 L 190.0 153.0 L 190.0 153.0 L 191.0 154.0 L 191.0 154.0 L 192.0 154.0 L 192.0 155.0 L 193.0 155.0 L 193.0 156.0 L 194.0 156.0 L 194.0 157.0 L 194.0 157.0 L 195.0 158.0 L 195.0 158.0 L 196.0 159.0 L 196.0 159.0 L 196.0 159.0 L 196.0 160.0 L 197.0 160.0 L 197.0 161.0 L 197.0 161.0 L 198.0 161.0 L 198.0 162.0 L 198.0 162.0 L 199.0 162.0 L 199.0 163.0 L 200.0 163.0 L 200.0 163.0 L 200.0 164.0 L 201.0 164.0 L 201.0 164.0 L 201.0 164.0 L 202.0 165.0 L 202.0 165.0 L 203.0 165.0 L 203.0 166.0 L 203.0 166.0 L 204.0 166.0 L 204.0 167.0 L 205.0 167.0 L 205.0 168.0 L 205.0 168.0 L 206.0 169.0 L 206.0 169.0 L 207.0 170.0 L 207.0 170.0 L 208.0 171.0 L 208.0 171.0 L 209.0 172.0 L 210.0 172.0 L 210.0 173.0 L 210.0 173.0 L 211.0 174.0 L 212.0 174.0 L 212.0 175.0 L 212.0 175.0 L 213.0 176.0 L 214.0 176.0 L 214.0 177.0 L 215.0 177.0 L 215.0 177.0 L 216.0 178.0 L 216.0 178.0 L 217.0 179.0 L 218.0 179.0 L 218.0 180.0 L 219.0 180.0 L 219.0 181.0 L 220.0 181.0 L 221.0 181.0 L 222.0 182.0 L 222.0 182.0 L 223.0 183.0 L 224.0 183.0 L 225.0 184.0 L 226.0 184.0 L 227.0 185.0 L 227.0 185.0 L 228.0 186.0 L 229.0 186.0 L 230.0 187.0 L 230.0 187.0 L 231.0 187.0 L 231.0 188.0 L 232.0 188.0 L 232.0 188.0 L 233.0 189.0 L 233.0 189.0 L 233.0 189.0 L 233.0 190.0 L 233.0 190.0 L 233.0 190.0 L 233.0 190.0 L 233.0 190.0 L 233.0 190.0 " stroke="black" fill="none" stroke-width="5.0" stroke-linecap="round" stroke-linejoin="round" />
</svg>