<svg xmlns="http://www.w3.org/2000/svg" width="300" height="300" viewBox="0 0 300 300">
<path d="M 69.0 86.0 L 69.0 86.0 L 68.0 85.0 L 67.0 85.0 L 66.0 85.0 L 66.0 85.0 L 65.0 85.0 L 65.0 85.0 L 65.0 85.0 L 65.0 85.0 L 66.0 85.0 L 68.0 85.0 L 70.0 85.0 L 74.0 85.0 L 79.0 85.0 L 86.0 85.0 L 93.0 85.0 L 101.0 85.0 L 109.0 85.0 L 116.0 85.0 L 122.0 85.0 L 129.0 85.0 L 134.0 85.0 L 138.0 86.0 " stroke="black" fill="none" stroke-width="5.0" stroke-linecap="round" stroke-linejoin="round" />
<path d="M 81.0 93.0 L 81.0 93.0 L 80.0 93.0 L 80.0 94.0 L 80.0 95.0 L 79.0 97.0 L 79.0 99.0 L 79.0 102.0 L 79.0 105.0 L 79.0 110.0 L 79.0 116.0 L 79.0 123.0 L 80.0 132.0 L 80.0 145.0 L 80.0 158.0 L 79.0 171.0 L 78.0 184.0 L 78.0 194.0 L 77.0 200.0 L 77.0 205.0 L 78.0 206.0 " stroke="black" fill="none" stroke-width="5.0" stroke-linecap="round" stroke-linejoin="round" />
<path d="M 116.0 91.0 L 116.0 91.0 L 116.0 91.0 L 116.0 91.0 L 116.0 92.0 L 117.0 92.0 L 117.0 92.0 L 117.0 93.0 L 117.0 95.0 L 117.0 98.0 L 117.0 102.0 L 117.0 107.0 L 117.0 113.0 L 117.0 120.0 L 117.0 128.0 L 117.0 137.0 L 117.0 148.0 L 117.0 159.0 L 117.0 170.0 L 117.0 182.0 L 117.0 193.0 L 117.0 203.0 L 117.0 214.0 L 118.0 223.0 L 118.0 234.0 L 118.0 243.0 L 119.0 250.0 L 119.0 256.0 L 119.0 262.0 L 119.0 266.0 L 119.0 269.0 L 119.0 270.0 " stroke="black" fill="none" stroke-width="5.0" stroke-linecap="round" stroke-linejoin="round" />
<path d="M 81.0 133.0 L 80.0 133.0 L 78.0 133.0 L 77.0 133.0 L 76.0 133.0 L 75.0 133.0 L 75.0 133.0 L 75.0 133.0 L 77.0 133.0 L 82.0 133.0 L 87.0 133.0 L 93.0 133.0 L 100.0 132.0 L 105.0 132.0 L 110.0 131.0 L 115.0 131.0 L 117.0 131.0 " stroke="black" fill="none" stroke-width="5.0" stroke-linecap="round" stroke-linejoin="round" />
<path d="M 78.0 174.0 L 76.0 174.0 L 74.0 174.0 L 73.0 174.0 L 73.0 174.0 L 73.0 174.0 L 73.0 174.0 L 75.0 174.0 L 79.0 174.0 L 84.0 174.0 L 90.0 174.0 L 96.0 174.0 L 101.0 174.0 L 107.0 174.0 L 112.0 174.0 " stroke="black" fill="none" stroke-width="5.0" stroke-linecap="round" stroke-linejoin="round" />
<path d="M 63.0 215.0 L 62.0 215.0 L 61.0 216.0 L 61.0 216.0 L 61.0 217.0 L 61.0 217.0 L 62.0 217.0 L 64.0 216.0 L 68.0 214.0 L 74.0 213.0 L 83.0 210.0 L 93.0 207.0 L 102.0 204.0 L 111.0 202.0 L 115.0 200.0 " stroke="black" fill="none" stroke-width="5.0" stroke-linecap="round" stroke-linejoin="round" />
<path d="M 148.0 116.0 L 148.0 116.0 L 148.0 116.0 L 147.0 116.0 L 147.0 116.0 L 147.0 116.0 L 147.0 116.0 L 147.0 117.0 L 147.0 120.0 L 148.0 123.0 L 150.0 126.0 L 152.0 131.0 L 155.0 136.0 L 158.0 141.0 L 161.0 146.0 " stroke="black" fill="none" stroke-width="5.0" stroke-linecap="round" stroke-linejoin="round" />
<path d="M 236.0 112.0 L 236.0 112.0 L 236.0 112.0 L 236.0 111.0 L 236.0 111.0 L 236.0 111.0 L 236.0 112.0 L 235.0 114.0 L 233.0 119.0 L 231.0 124.0 L 228.0 130.0 L 225.0 138.0 L 222.0 145.0 L 219.0 151.0 L 216.0 156.0 " stroke="black" fill="none" stroke-width="5.0" stroke-linecap="round" stroke-linejoin="round" />
<path d="M 192.0 78.0 L 192.0 78.0 L 192.0 78.0 L 192.0 78.0 L 192.0 78.0 L 192.0 78.0 L 192.0 78.0 L 192.0 78.0 L 192.0 79.0 L 193.0 79.0 L 193.0 80.0 L 193.0 81.0 L 194.0 83.0 L 194.0 84.0 L 195.0 85.0 L 195.0 87.0 L 196.0 89.0 L 197.0 91.0 L 197.0 93.0 L 197.0 96.0 L 198.0 99.0 L 198.0 102.0 L 198.0 105.0 L 198.0 108.0 L 198.0 111.0 L 198.0 113.0 L 198.0 116.0 L 198.0 119.0 L 198.0 122.0 L 197.0 125.0 L 197.0 128.0 L 197.0 131.0 L 197.0 135.0 L 197.0 138.0 L 197.0 141.0 L 197.0 145.0 L 196.0 149.0 L 196.0 153.0 L 196.0 157.0 L 195.0 160.0 L 195.0 164.0 L 194.0 168.0 L 194.0 172.0 L 194.0 176.0 L 193.0 182.0 L 193.0 187.0 L 192.0 193.0 L 191.0 199.0 L 189.0 204.0 L 187.0 210.0 L 185.0 216.0 L 182.0 221.0 L 178.0 227.0 L 173.0 233.0 L 169.0 237.0 L 165.0 241.0 L 162.0 243.0 L 159.0 245.0 L 156.0 246.0 L 155.0 246.0 " stroke="black" fill="none" stroke-width="5.0" stroke-linecap="round" stroke-linejoin="round" />
<path d="M 191.0 186.0 L 191.0 186.0 L 191.0 186.0 L 191.0 185.0 L 191.0 185.0 L 191.0 185.0 L 191.0 185.0 L 191.0 185.0 L 191.0 186.0 L 191.0 188.0 L 192.0 191.0 L 193.0 195.0 L 194.0 199.0 L 196.0 204.0 L 198.0 211.0 L 201.0 217.0 L 204.0 224.0 L 207.0 230.0 L 210.0 234.0 L 213.0 238.0 L 216.0 241.0 L 219.0 243.0 L 221.0 244.0 L 223.0 246.0 L 225.0 247.0 L 226.0 248.0 L 227.0 249.0 L 228.0 250.0 L 229.0 250.0 L 230.0 250.0 L 230.0 250.0 " stroke="black" fill="none" stroke-width="5.0" stroke-linecap="round" stroke-linejoin="round" />
</svg>