<svg xmlns="http://www.w3.org/2000/svg" width="300" height="300" viewBox="0 0 300 300">
<path d="M 82.0 142.0 L 82.0 142.0 L 83.0 140.0 L 83.0 139.0 L 83.0 139.0 L 83.0 139.0 L 83.0 139.0 L 83.0 139.0 L 83.0 141.0 L 83.0 143.0 L 83.0 145.0 L 83.0 148.0 L 82.0 151.0 L 81.0 154.0 L 80.0 157.0 L 79.0 162.0 L 77.0 166.0 L 75.0 172.0 L 73.0 179.0 L 71.0 186.0 L 68.0 193.0 L 66.0 200.0 L 65.0 205.0 L 64.0 208.0 L 63.0 211.0 L 63.0 211.0 " stroke="black" fill="none" stroke-width="5.0" stroke-linecap="round" stroke-linejoin="round" />
<path d="M 114.0 126.0 L 114.0 126.0 L 114.0 126.0 L 115.0 126.0 L 115.0 126.0 L 115.0 126.0 L 116.0 127.0 L 116.0 127.0 L 116.0 127.0 L 116.0 127.0 L 117.0 128.0 L 117.0 129.0 L 117.0 130.0 L 118.0 132.0 L 118.0 135.0 L 118.0 138.0 L 118.0 142.0 L 118.0 146.0 L 118.0 151.0 L 118.0 155.0 L 118.0 159.0 L 118.0 164.0 L 118.0 167.0 L 118.0 171.0 L 118.0 175.0 L 118.0 177.0 L 118.0 180.0 L 118.0 184.0 L 118.0 186.0 L 118.0 189.0 L 118.0 192.0 L 118.0 194.0 L 118.0 196.0 L 117.0 199.0 L 117.0 201.0 L 117.0 203.0 L 117.0 205.0 L 117.0 206.0 L 117.0 208.0 L 117.0 210.0 L 117.0 212.0 L 117.0 213.0 L 117.0 215.0 L 117.0 217.0 L 117.0 219.0 L 117.0 221.0 L 117.0 222.0 L 117.0 224.0 L 118.0 226.0 L 118.0 227.0 L 118.0 229.0 L 118.0 231.0 L 118.0 232.0 L 118.0 233.0 L 118.0 234.0 L 118.0 236.0 L 118.0 237.0 L 119.0 238.0 L 119.0 239.0 L 119.0 239.0 L 119.0 240.0 L 119.0 241.0 L 120.0 241.0 L 120.0 242.0 L 120.0 242.0 L 121.0 243.0 L 121.0 243.0 L 122.0 244.0 L 122.0 244.0 L 123.0 244.0 L 124.0 245.0 L 125.0 245.0 L 126.0 245.0 L 127.0 245.0 L 128.0 245.0 L 130.0 245.0 L 131.0 245.0 L 132.0 245.0 L 134.0 245.0 L 136.0 245.0 L 137.0 245.0 L 139.0 245.0 L 141.0 245.0 L 143.0 245.0 L 145.0 245.0 L 146.0 245.0 L 148.0 245.0 L 150.0 245.0 L 151.0 245.0 L 153.0 245.0 L 154.0 246.0 L 155.0 246.0 L 157.0 246.0 L 158.0 247.0 L 160.0 247.0 L 161.0 247.0 L 163.0 247.0 L 165.0 247.0 L 167.0 247.0 L 170.0 247.0 L 172.0 247.0 L 175.0 247.0 L 178.0 247.0 L 180.0 247.0 L 182.0 247.0 L 184.0 247.0 L 186.0 247.0 L 187.0 247.0 L 189.0 247.0 L 190.0 247.0 L 191.0 247.0 L 192.0 247.0 L 193.0 247.0 L 194.0 247.0 L 195.0 247.0 L 195.0 247.0 L 196.0 246.0 L 196.0 246.0 L 197.0 246.0 L 197.0 246.0 L 197.0 245.0 L 198.0 245.0 L 198.0 245.0 L 198.0 244.0 L 198.0 244.0 L 199.0 243.0 L 199.0 243.0 L 199.0 242.0 L 199.0 241.0 L 199.0 240.0 L 199.0 239.0 L 199.0 237.0 L 199.0 234.0 L 199.0 231.0 L 199.0 227.0 L 199.0 222.0 L 199.0 218.0 L 199.0 213.0 L 199.0 209.0 " stroke="black" fill="none" stroke-width="5.0" stroke-linecap="round" stroke-linejoin="round" />
<path d="M 133.0 81.0 L 133.0 81.0 L 133.0 80.0 L 133.0 80.0 L 132.0 79.0 L 132.0 79.0 L 132.0 78.0 L 131.0 78.0 L 131.0 78.0 L 131.0 78.0 L 131.0 78.0 L 131.0 78.0 L 132.0 78.0 L 133.0 79.0 L 135.0 80.0 L 137.0 82.0 L 140.0 84.0 L 143.0 86.0 L 145.0 88.0 L 148.0 91.0 L 151.0 94.0 L 153.0 97.0 L 155.0 99.0 L 157.0 102.0 L 159.0 104.0 L 160.0 106.0 L 161.0 107.0 L 162.0 108.0 L 163.0 108.0 L 163.0 109.0 L 163.0 109.0 " stroke="black" fill="none" stroke-width="5.0" stroke-linecap="round" stroke-linejoin="round" />
<path d="M 212.0 141.0 L 212.0 141.0 L 212.0 140.0 L 211.0 139.0 L 211.0 139.0 L 211.0 139.0 L 210.0 139.0 L 210.0 139.0 L 210.0 141.0 L 211.0 143.0 L 213.0 146.0 L 214.0 150.0 L 216.0 155.0 L 218.0 160.0 L 220.0 167.0 L 222.0 175.0 L 225.0 185.0 L 227.0 194.0 L 228.0 200.0 L 230.0 206.0 L 231.0 210.0 L 231.0 212.0 L 232.0 213.0 L 232.0 213.0 L 232.0 213.0 " stroke="black" fill="none" stroke-width="5.0" stroke-linecap="round" stroke-linejoin="round" />
</svg>