<svg xmlns="http://www.w3.org/2000/svg" width="300" height="300" viewBox="0 0 300 300">
<path d="M 86.0 148.0 L 86.0 148.0 L 85.0 148.0 L 84.0 147.0 L 83.0 147.0 L 82.0 147.0 L 81.0 149.0 L 80.0 151.0 L 79.0 156.0 L 78.0 161.0 L 76.0 169.0 L 75.0 180.0 L 73.0 191.0 L 71.0 201.0 L 69.0 210.0 L 68.0 218.0 " stroke="black" fill="none" stroke-width="5.0" stroke-linecap="round" stroke-linejoin="round" />
<path d="M 117.0 132.0 L 117.0 132.0 L 117.0 132.0 L 117.0 132.0 L 117.0 132.0 L 117.0 133.0 L 117.0 134.0 L 117.0 135.0 L 117.0 138.0 L 116.0 140.0 L 116.0 144.0 L 115.0 147.0 L 115.0 151.0 L 115.0 155.0 L 115.0 158.0 L 115.0 162.0 L 115.0 166.0 L 115.0 169.0 L 115.0 173.0 L 115.0 177.0 L 115.0 180.0 L 115.0 184.0 L 115.0 188.0 L 115.0 191.0 L 115.0 194.0 L 115.0 197.0 L 115.0 200.0 L 115.0 202.0 L 115.0 204.0 L 115.0 206.0 L 115.0 208.0 L 115.0 210.0 L 115.0 212.0 L 115.0 214.0 L 114.0 216.0 L 114.0 218.0 L 114.0 219.0 L 114.0 221.0 L 114.0 222.0 L 114.0 224.0 L 114.0 225.0 L 114.0 227.0 L 114.0 228.0 L 114.0 229.0 L 114.0 231.0 L 114.0 232.0 L 114.0 233.0 L 114.0 233.0 L 114.0 234.0 L 115.0 235.0 L 115.0 235.0 L 115.0 235.0 L 116.0 236.0 L 116.0 236.0 L 117.0 236.0 L 117.0 236.0 L 118.0 236.0 L 118.0 236.0 L 119.0 236.0 L 120.0 236.0 L 121.0 236.0 L 122.0 237.0 L 124.0 237.0 L 125.0 237.0 L 127.0 237.0 L 129.0 237.0 L 131.0 237.0 L 134.0 237.0 L 136.0 237.0 L 138.0 237.0 L 141.0 237.0 L 143.0 237.0 L 145.0 237.0 L 148.0 237.0 L 150.0 237.0 L 152.0 238.0 L 154.0 238.0 L 156.0 238.0 L 158.0 238.0 L 161.0 238.0 L 163.0 238.0 L 166.0 238.0 L 169.0 237.0 L 172.0 237.0 L 174.0 237.0 L 177.0 236.0 L 179.0 236.0 L 181.0 236.0 L 183.0 235.0 L 185.0 235.0 L 186.0 235.0 L 187.0 234.0 L 189.0 234.0 L 190.0 233.0 L 190.0 233.0 L 191.0 232.0 L 191.0 232.0 L 192.0 232.0 L 192.0 232.0 L 192.0 232.0 L 193.0 231.0 L 193.0 231.0 L 193.0 231.0 L 193.0 230.0 L 193.0 230.0 L 193.0 229.0 L 193.0 228.0 L 193.0 227.0 L 193.0 226.0 L 193.0 223.0 L 193.0 220.0 L 193.0 216.0 L 192.0 212.0 L 191.0 207.0 L 191.0 202.0 L 191.0 200.0 " stroke="black" fill="none" stroke-width="5.0" stroke-linecap="round" stroke-linejoin="round" />
<path d="M 133.0 81.0 L 133.0 81.0 L 132.0 81.0 L 132.0 81.0 L 132.0 81.0 L 132.0 81.0 L 132.0 81.0 L 132.0 82.0 L 135.0 84.0 L 138.0 87.0 L 141.0 90.0 L 145.0 95.0 L 150.0 100.0 L 154.0 105.0 L 159.0 109.0 L 163.0 113.0 L 167.0 117.0 L 171.0 121.0 L 174.0 124.0 L 176.0 125.0 " stroke="black" fill="none" stroke-width="5.0" stroke-linecap="round" stroke-linejoin="round" />
<path d="M 209.0 140.0 L 209.0 140.0 L 209.0 140.0 L 209.0 139.0 L 209.0 139.0 L 209.0 139.0 L 210.0 140.0 L 211.0 143.0 L 213.0 146.0 L 216.0 151.0 L 218.0 157.0 L 221.0 164.0 L 225.0 171.0 L 227.0 178.0 L 230.0 184.0 L 232.0 191.0 L 234.0 196.0 L 235.0 200.0 L 236.0 204.0 L 237.0 205.0 L 237.0 206.0 " stroke="black" fill="none" stroke-width="5.0" stroke-linecap="round" stroke-linejoin="round" />
</svg>