<svg xmlns="http://www.w3.org/2000/svg" width="300" height="300" viewBox="0 0 300 300">
<path d="M 78.0 81.0 L 78.0 81.0 L 78.0 81.0 L 78.0 81.0 L 77.0 81.0 L 77.0 81.0 L 77.0 81.0 L 76.0 81.0 L 76.0 81.0 L 76.0 81.0 L 76.0 81.0 L 76.0 81.0 L 77.0 81.0 L 78.0 81.0 L 79.0 81.0 L 80.0 81.0 L 81.0 81.0 L 82.0 81.0 L 83.0 81.0 L 84.0 81.0 L 85.0 81.0 L 86.0 81.0 L 87.0 81.0 L 88.0 81.0 L 89.0 81.0 L 91.0 81.0 L 92.0 81.0 L 93.0 81.0 L 95.0 81.0 L 96.0 81.0 L 97.0 81.0 L 99.0 81.0 L 100.0 81.0 L 101.0 81.0 L 102.0 81.0 L 103.0 81.0 L 104.0 81.0 L 105.0 81.0 L 105.0 81.0 L 106.0 81.0 L 107.0 81.0 L 107.0 81.0 L 108.0 81.0 L 108.0 81.0 L 109.0 81.0 L 110.0 80.0 L 110.0 80.0 L 111.0 80.0 L 112.0 80.0 L 112.0 80.0 L 113.0 80.0 L 114.0 80.0 L 114.0 80.0 L 115.0 80.0 L 116.0 80.0 L 117.0 80.0 L 118.0 80.0 L 118.0 80.0 L 119.0 80.0 L 120.0 80.0 L 121.0 80.0 L 122.0 80.0 L 123.0 80.0 L 124.0 80.0 L 125.0 80.0 L 126.0 80.0 L 127.0 80.0 L 128.0 80.0 L 129.0 80.0 L 130.0 80.0 L 131.0 80.0 L 132.0 80.0 L 134.0 80.0 L 135.0 80.0 L 136.0 79.0 L 137.0 79.0 L 139.0 79.0 L 140.0 79.0 L 141.0 79.0 L 142.0 79.0 L 143.0 79.0 L 144.0 79.0 L 145.0 79.0 L 146.0 79.0 L 147.0 79.0 L 148.0 79.0 L 148.0 78.0 L 149.0 78.0 L 150.0 78.0 L 150.0 78.0 L 151.0 78.0 L 151.0 78.0 L 152.0 78.0 L 153.0 78.0 L 153.0 78.0 L 154.0 78.0 L 155.0 78.0 L 155.0 78.0 L 156.0 78.0 L 157.0 79.0 L 158.0 79.0 L 159.0 79.0 L 161.0 79.0 L 162.0 79.0 L 163.0 79.0 L 165.0 79.0 L 166.0 79.0 L 168.0 79.0 L 169.0 79.0 L 171.0 79.0 L 172.0 79.0 L 174.0 79.0 L 175.0 79.0 L 177.0 79.0 L 178.0 79.0 L 180.0 79.0 L 181.0 79.0 L 182.0 78.0 L 184.0 78.0 L 185.0 78.0 L 186.0 78.0 L 187.0 77.0 L 189.0 77.0 L 190.0 77.0 L 191.0 77.0 L 192.0 77.0 L 193.0 77.0 L 194.0 77.0 L 195.0 77.0 L 196.0 77.0 L 198.0 77.0 L 199.0 77.0 L 200.0 77.0 L 202.0 77.0 L 203.0 77.0 L 205.0 76.0 L 206.0 76.0 L 208.0 76.0 L 209.0 76.0 L 210.0 76.0 L 211.0 76.0 L 212.0 76.0 L 213.0 76.0 " stroke="black" fill="none" stroke-width="5.0" stroke-linecap="round" stroke-linejoin="round" />
<path d="M 69.0 101.0 L 69.0 101.0 L 69.0 101.0 L 69.0 101.0 L 69.0 101.0 L 69.0 101.0 L 69.0 102.0 L 70.0 103.0 L 70.0 105.0 L 71.0 109.0 L 71.0 113.0 L 71.0 117.0 L 71.0 123.0 L 71.0 127.0 L 71.0 129.0 L 72.0 131.0 L 72.0 131.0 " stroke="black" fill="none" stroke-width="5.0" stroke-linecap="round" stroke-linejoin="round" />
<path d="M 73.0 103.0 L 73.0 103.0 L 72.0 103.0 L 71.0 103.0 L 71.0 103.0 L 71.0 102.0 L 70.0 102.0 L 70.0 102.0 L 70.0 102.0 L 70.0 102.0 L 70.0 101.0 L 70.0 101.0 L 71.0 101.0 L 72.0 101.0 L 72.0 101.0 L 73.0 101.0 L 74.0 101.0 L 75.0 101.0 L 76.0 101.0 L 78.0 101.0 L 79.0 101.0 L 80.0 101.0 L 81.0 101.0 L 83.0 102.0 L 84.0 102.0 L 85.0 102.0 L 86.0 102.0 L 87.0 102.0 L 88.0 102.0 L 90.0 102.0 L 91.0 102.0 L 92.0 102.0 L 94.0 102.0 L 95.0 102.0 L 96.0 102.0 L 98.0 102.0 L 99.0 102.0 L 100.0 102.0 L 101.0 102.0 L 102.0 101.0 L 103.0 101.0 L 104.0 101.0 L 105.0 101.0 L 106.0 100.0 L 107.0 100.0 L 107.0 100.0 L 108.0 100.0 L 109.0 100.0 L 110.0 100.0 L 110.0 100.0 L 111.0 100.0 L 111.0 100.0 L 112.0 100.0 L 113.0 100.0 L 114.0 100.0 L 114.0 100.0 L 115.0 100.0 L 116.0 100.0 L 117.0 100.0 L 118.0 100.0 L 119.0 100.0 L 120.0 100.0 L 121.0 100.0 L 122.0 100.0 L 123.0 100.0 L 124.0 100.0 L 125.0 100.0 L 127.0 100.0 L 128.0 100.0 L 130.0 100.0 L 131.0 100.0 L 133.0 100.0 L 134.0 100.0 L 136.0 100.0 L 137.0 100.0 L 139.0 100.0 L 141.0 100.0 L 142.0 100.0 L 144.0 100.0 L 145.0 100.0 L 147.0 99.0 L 148.0 99.0 L 149.0 99.0 L 151.0 99.0 L 152.0 99.0 L 153.0 99.0 L 154.0 98.0 L 155.0 98.0 L 156.0 98.0 L 157.0 98.0 L 158.0 98.0 L 159.0 98.0 L 160.0 98.0 L 161.0 98.0 L 162.0 98.0 L 163.0 98.0 L 164.0 97.0 L 165.0 97.0 L 167.0 97.0 L 168.0 97.0 L 169.0 97.0 L 170.0 97.0 L 171.0 97.0 L 172.0 97.0 L 174.0 97.0 L 175.0 97.0 L 176.0 97.0 L 177.0 97.0 L 178.0 97.0 L 180.0 97.0 L 181.0 97.0 L 182.0 98.0 L 183.0 98.0 L 184.0 98.0 L 185.0 98.0 L 187.0 98.0 L 188.0 98.0 L 189.0 98.0 L 189.0 98.0 L 190.0 98.0 L 191.0 98.0 L 192.0 98.0 L 193.0 98.0 L 193.0 98.0 L 194.0 98.0 L 194.0 98.0 L 195.0 98.0 L 196.0 98.0 L 196.0 98.0 L 197.0 98.0 L 198.0 98.0 L 199.0 98.0 L 199.0 98.0 L 200.0 98.0 L 201.0 98.0 L 202.0 98.0 L 203.0 98.0 L 204.0 98.0 L 205.0 98.0 L 206.0 97.0 L 207.0 97.0 L 208.0 97.0 L 209.0 97.0 L 210.0 97.0 L 211.0 97.0 L 212.0 97.0 L 214.0 97.0 L 215.0 97.0 L 216.0 97.0 L 217.0 97.0 L 218.0 97.0 L 219.0 98.0 L 220.0 98.0 L 222.0 98.0 L 223.0 98.0 L 224.0 99.0 L 225.0 99.0 L 226.0 99.0 L 227.0 100.0 L 228.0 100.0 L 228.0 100.0 L 229.0 100.0 L 230.0 100.0 L 230.0 100.0 L 231.0 100.0 L 231.0 100.0 L 231.0 100.0 L 232.0 100.0 L 232.0 100.0 L 232.0 100.0 L 232.0 101.0 L 232.0 101.0 L 232.0 101.0 L 233.0 102.0 L 233.0 102.0 L 233.0 103.0 L 233.0 104.0 L 233.0 105.0 L 233.0 105.0 L 233.0 107.0 L 234.0 108.0 L 234.0 109.0 L 234.0 110.0 L 234.0 111.0 L 234.0 113.0 L 234.0 114.0 L 234.0 116.0 L 234.0 118.0 L 233.0 120.0 L 233.0 122.0 L 233.0 124.0 L 233.0 126.0 " stroke="black" fill="none" stroke-width="5.0" stroke-linecap="round" stroke-linejoin="round" />
<path d="M 148.0 79.0 L 148.0 79.0 L 148.0 79.0 L 148.0 79.0 L 148.0 79.0 L 148.0 79.0 L 148.0 79.0 L 148.0 80.0 L 148.0 82.0 L 149.0 84.0 L 150.0 88.0 L 151.0 92.0 L 152.0 98.0 L 153.0 104.0 L 154.0 110.0 L 154.0 117.0 L 154.0 122.0 L 154.0 126.0 L 154.0 130.0 L 154.0 132.0 L 153.0 133.0 L 153.0 134.0 " stroke="black" fill="none" stroke-width="5.0" stroke-linecap="round" stroke-linejoin="round" />
<path d="M 102.0 112.0 L 102.0 112.0 L 102.0 111.0 L 102.0 111.0 L 101.0 110.0 L 101.0 110.0 L 101.0 109.0 L 101.0 109.0 L 101.0 109.0 L 101.0 109.0 L 101.0 109.0 L 102.0 110.0 L 103.0 111.0 L 105.0 113.0 L 107.0 114.0 L 109.0 115.0 L 112.0 116.0 L 116.0 118.0 L 120.0 119.0 L 124.0 120.0 " stroke="black" fill="none" stroke-width="5.0" stroke-linecap="round" stroke-linejoin="round" />
<path d="M 99.0 141.0 L 97.0 141.0 L 96.0 141.0 L 94.0 140.0 L 93.0 140.0 L 93.0 140.0 L 93.0 140.0 L 93.0 140.0 L 94.0 140.0 L 96.0 139.0 L 98.0 139.0 L 101.0 139.0 L 104.0 138.0 L 108.0 137.0 L 113.0 136.0 L 119.0 135.0 L 127.0 134.0 " stroke="black" fill="none" stroke-width="5.0" stroke-linecap="round" stroke-linejoin="round" />
<path d="M 198.0 111.0 L 198.0 111.0 L 198.0 110.0 L 198.0 109.0 L 198.0 109.0 L 198.0 108.0 L 198.0 108.0 L 198.0 108.0 L 197.0 108.0 L 196.0 108.0 L 195.0 109.0 L 193.0 111.0 L 191.0 113.0 L 188.0 115.0 L 185.0 117.0 L 181.0 119.0 L 178.0 121.0 L 174.0 123.0 L 170.0 124.0 L 168.0 125.0 L 167.0 126.0 " stroke="black" fill="none" stroke-width="5.0" stroke-linecap="round" stroke-linejoin="round" />
<path d="M 164.0 127.0 L 163.0 127.0 L 163.0 127.0 L 163.0 127.0 L 163.0 127.0 L 163.0 127.0 L 163.0 127.0 L 165.0 128.0 L 169.0 128.0 L 174.0 129.0 L 179.0 130.0 L 185.0 130.0 L 191.0 131.0 L 195.0 132.0 L 200.0 133.0 L 204.0 134.0 L 206.0 136.0 L 207.0 136.0 " stroke="black" fill="none" stroke-width="5.0" stroke-linecap="round" stroke-linejoin="round" />
<path d="M 76.0 158.0 L 76.0 158.0 L 76.0 159.0 L 76.0 160.0 L 76.0 161.0 L 76.0 163.0 L 76.0 165.0 L 76.0 167.0 L 76.0 169.0 L 77.0 171.0 L 78.0 173.0 L 78.0 174.0 L 79.0 175.0 L 80.0 175.0 " stroke="black" fill="none" stroke-width="5.0" stroke-linecap="round" stroke-linejoin="round" />
<path d="M 80.0 156.0 L 80.0 156.0 L 79.0 156.0 L 78.0 156.0 L 77.0 156.0 L 76.0 155.0 L 76.0 155.0 L 76.0 155.0 L 76.0 155.0 L 77.0 155.0 L 79.0 155.0 L 82.0 155.0 L 86.0 155.0 L 90.0 156.0 L 95.0 156.0 L 99.0 156.0 L 103.0 156.0 L 107.0 156.0 L 110.0 157.0 L 113.0 158.0 L 115.0 159.0 L 116.0 160.0 L 116.0 161.0 L 116.0 162.0 L 116.0 163.0 L 115.0 165.0 L 114.0 166.0 L 112.0 167.0 L 110.0 169.0 L 108.0 170.0 L 106.0 171.0 L 104.0 173.0 L 102.0 174.0 L 99.0 175.0 L 96.0 175.0 L 94.0 176.0 L 91.0 177.0 L 89.0 177.0 L 86.0 177.0 L 85.0 177.0 L 85.0 177.0 L 84.0 177.0 L 84.0 177.0 L 85.0 177.0 L 87.0 176.0 L 90.0 176.0 L 93.0 175.0 L 97.0 174.0 L 101.0 174.0 L 105.0 173.0 L 109.0 172.0 " stroke="black" fill="none" stroke-width="5.0" stroke-linecap="round" stroke-linejoin="round" />
<path d="M 136.0 156.0 L 136.0 156.0 L 135.0 156.0 L 133.0 157.0 L 132.0 157.0 L 132.0 159.0 L 131.0 160.0 L 131.0 162.0 L 131.0 164.0 L 131.0 167.0 L 132.0 169.0 L 133.0 171.0 L 134.0 173.0 L 135.0 174.0 L 137.0 174.0 L 138.0 174.0 L 139.0 174.0 " stroke="black" fill="none" stroke-width="5.0" stroke-linecap="round" stroke-linejoin="round" />
<path d="M 138.0 158.0 L 137.0 157.0 L 136.0 156.0 L 135.0 155.0 L 135.0 154.0 L 135.0 154.0 L 135.0 153.0 L 136.0 153.0 L 137.0 153.0 L 139.0 153.0 L 141.0 153.0 L 144.0 153.0 L 146.0 154.0 L 149.0 155.0 L 152.0 155.0 L 154.0 156.0 L 158.0 156.0 L 160.0 157.0 L 163.0 157.0 L 166.0 158.0 L 167.0 159.0 L 168.0 160.0 L 169.0 161.0 L 169.0 163.0 L 168.0 164.0 L 166.0 166.0 L 163.0 168.0 L 160.0 170.0 L 157.0 173.0 L 155.0 174.0 L 153.0 176.0 L 150.0 177.0 L 149.0 178.0 " stroke="black" fill="none" stroke-width="5.0" stroke-linecap="round" stroke-linejoin="round" />
<path d="M 145.0 177.0 L 144.0 177.0 L 142.0 177.0 L 140.0 177.0 L 139.0 177.0 L 138.0 177.0 L 137.0 177.0 L 137.0 177.0 L 137.0 177.0 L 137.0 177.0 L 138.0 177.0 L 140.0 177.0 L 142.0 177.0 L 145.0 177.0 L 149.0 177.0 L 153.0 177.0 L 158.0 177.0 L 161.0 176.0 " stroke="black" fill="none" stroke-width="5.0" stroke-linecap="round" stroke-linejoin="round" />
<path d="M 190.0 155.0 L 189.0 155.0 L 188.0 154.0 L 187.0 154.0 L 185.0 154.0 L 185.0 154.0 L 185.0 154.0 L 184.0 155.0 L 184.0 157.0 L 184.0 159.0 L 185.0 161.0 L 185.0 164.0 L 186.0 167.0 L 187.0 169.0 L 187.0 171.0 L 188.0 173.0 L 189.0 175.0 L 189.0 175.0 L 190.0 175.0 " stroke="black" fill="none" stroke-width="5.0" stroke-linecap="round" stroke-linejoin="round" />
<path d="M 191.0 159.0 L 191.0 158.0 L 191.0 157.0 L 190.0 155.0 L 190.0 154.0 L 190.0 153.0 L 190.0 152.0 L 190.0 152.0 L 192.0 152.0 L 193.0 152.0 L 195.0 152.0 L 197.0 152.0 L 200.0 152.0 L 204.0 152.0 L 208.0 152.0 L 212.0 153.0 L 216.0 154.0 L 219.0 155.0 L 222.0 156.0 L 224.0 157.0 L 226.0 158.0 L 227.0 160.0 L 228.0 161.0 L 228.0 162.0 L 228.0 164.0 L 228.0 165.0 L 228.0 167.0 L 226.0 169.0 L 224.0 171.0 L 222.0 172.0 L 219.0 174.0 L 217.0 175.0 L 214.0 177.0 L 210.0 177.0 L 208.0 178.0 L 205.0 178.0 L 202.0 178.0 L 200.0 178.0 L 198.0 177.0 L 196.0 177.0 L 194.0 177.0 L 194.0 176.0 L 193.0 176.0 L 193.0 176.0 L 193.0 176.0 L 194.0 176.0 L 195.0 176.0 L 197.0 176.0 L 200.0 176.0 L 203.0 176.0 L 206.0 176.0 L 211.0 175.0 L 215.0 175.0 L 219.0 175.0 L 222.0 175.0 " stroke="black" fill="none" stroke-width="5.0" stroke-linecap="round" stroke-linejoin="round" />
<path d="M 70.0 194.0 L 70.0 194.0 L 69.0 195.0 L 69.0 195.0 L 69.0 195.0 L 69.0 195.0 L 68.0 196.0 L 68.0 196.0 L 68.0 196.0 L 68.0 196.0 L 68.0 196.0 L 69.0 196.0 L 69.0 196.0 L 70.0 196.0 L 70.0 196.0 L 71.0 196.0 L 71.0 196.0 L 72.0 196.0 L 73.0 196.0 L 74.0 196.0 L 75.0 196.0 L 76.0 196.0 L 78.0 196.0 L 80.0 196.0 L 82.0 196.0 L 84.0 196.0 L 86.0 196.0 L 88.0 196.0 L 90.0 196.0 L 92.0 196.0 L 94.0 196.0 L 96.0 196.0 L 98.0 195.0 L 100.0 195.0 L 102.0 195.0 L 104.0 195.0 L 105.0 195.0 L 107.0 195.0 L 108.0 195.0 L 109.0 194.0 L 110.0 194.0 L 112.0 194.0 L 113.0 194.0 L 114.0 194.0 L 116.0 194.0 L 118.0 194.0 L 120.0 194.0 L 122.0 194.0 L 125.0 194.0 L 128.0 194.0 L 131.0 194.0 L 134.0 194.0 L 137.0 194.0 L 140.0 194.0 L 143.0 194.0 L 145.0 194.0 L 148.0 194.0 L 150.0 194.0 L 153.0 193.0 L 155.0 193.0 L 157.0 193.0 L 160.0 192.0 L 163.0 192.0 L 166.0 192.0 L 169.0 192.0 L 173.0 192.0 L 178.0 191.0 L 182.0 191.0 L 187.0 191.0 L 191.0 191.0 L 195.0 190.0 L 199.0 190.0 L 203.0 190.0 L 206.0 190.0 L 210.0 190.0 L 214.0 189.0 L 218.0 189.0 L 222.0 189.0 L 225.0 188.0 L 226.0 188.0 L 228.0 188.0 L 228.0 188.0 " stroke="black" fill="none" stroke-width="5.0" stroke-linecap="round" stroke-linejoin="round" />
<path d="M 149.0 200.0 L 149.0 200.0 L 149.0 200.0 L 149.0 200.0 L 149.0 200.0 L 149.0 201.0 L 149.0 202.0 L 149.0 203.0 L 150.0 206.0 L 150.0 210.0 L 150.0 215.0 L 150.0 221.0 L 150.0 227.0 L 150.0 232.0 L 150.0 234.0 " stroke="black" fill="none" stroke-width="5.0" stroke-linecap="round" stroke-linejoin="round" />
<path d="M 116.0 203.0 L 116.0 203.0 L 116.0 203.0 L 115.0 203.0 L 115.0 203.0 L 114.0 203.0 L 114.0 203.0 L 114.0 203.0 L 113.0 204.0 L 112.0 206.0 L 110.0 208.0 L 108.0 211.0 L 106.0 214.0 L 103.0 218.0 L 100.0 222.0 L 96.0 226.0 L 92.0 230.0 L 88.0 233.0 L 85.0 235.0 L 84.0 235.0 " stroke="black" fill="none" stroke-width="5.0" stroke-linecap="round" stroke-linejoin="round" />
<path d="M 110.0 216.0 L 110.0 216.0 L 110.0 216.0 L 110.0 216.0 L 110.0 216.0 L 110.0 216.0 L 111.0 216.0 L 113.0 217.0 L 116.0 219.0 L 120.0 220.0 L 126.0 222.0 L 132.0 224.0 L 139.0 225.0 L 145.0 226.0 L 148.0 226.0 " stroke="black" fill="none" stroke-width="5.0" stroke-linecap="round" stroke-linejoin="round" />
<path d="M 191.0 200.0 L 191.0 200.0 L 191.0 200.0 L 191.0 199.0 L 191.0 199.0 L 191.0 199.0 L 191.0 199.0 L 191.0 199.0 L 191.0 199.0 L 190.0 200.0 L 188.0 202.0 L 186.0 206.0 L 182.0 209.0 L 177.0 214.0 L 171.0 219.0 L 166.0 224.0 L 161.0 228.0 L 158.0 231.0 L 157.0 232.0 L 157.0 232.0 " stroke="black" fill="none" stroke-width="5.0" stroke-linecap="round" stroke-linejoin="round" />
<path d="M 180.0 215.0 L 180.0 215.0 L 180.0 215.0 L 180.0 215.0 L 180.0 215.0 L 181.0 216.0 L 182.0 216.0 L 184.0 217.0 L 186.0 218.0 L 189.0 219.0 L 192.0 221.0 L 196.0 222.0 L 199.0 224.0 L 202.0 227.0 L 205.0 229.0 L 206.0 231.0 " stroke="black" fill="none" stroke-width="5.0" stroke-linecap="round" stroke-linejoin="round" />
<path d="M 58.0 246.0 L 58.0 246.0 L 58.0 246.0 L 58.0 246.0 L 58.0 246.0 L 58.0 246.0 L 59.0 246.0 L 59.0 246.0 L 60.0 246.0 L 61.0 246.0 L 62.0 246.0 L 63.0 246.0 L 64.0 246.0 L 65.0 246.0 L 66.0 246.0 L 67.0 246.0 L 68.0 246.0 L 69.0 246.0 L 70.0 246.0 L 71.0 246.0 L 73.0 246.0 L 74.0 246.0 L 76.0 246.0 L 78.0 246.0 L 80.0 246.0 L 82.0 246.0 L 84.0 246.0 L 85.0 246.0 L 87.0 246.0 L 89.0 246.0 L 91.0 246.0 L 92.0 246.0 L 94.0 246.0 L 96.0 246.0 L 98.0 246.0 L 100.0 246.0 L 101.0 246.0 L 103.0 246.0 L 104.0 246.0 L 105.0 246.0 L 107.0 246.0 L 108.0 246.0 L 109.0 246.0 L 110.0 246.0 L 112.0 246.0 L 113.0 246.0 L 114.0 245.0 L 116.0 245.0 L 118.0 245.0 L 120.0 245.0 L 121.0 245.0 L 123.0 244.0 L 125.0 244.0 L 126.0 244.0 L 128.0 244.0 L 130.0 244.0 L 132.0 244.0 L 133.0 244.0 L 135.0 244.0 L 136.0 244.0 L 138.0 244.0 L 139.0 244.0 L 141.0 243.0 L 142.0 243.0 L 143.0 243.0 L 145.0 243.0 L 146.0 242.0 L 147.0 242.0 L 148.0 242.0 L 149.0 242.0 L 149.0 241.0 L 150.0 241.0 L 150.0 241.0 L 151.0 241.0 L 151.0 241.0 L 152.0 241.0 L 152.0 241.0 L 153.0 241.0 L 153.0 241.0 L 154.0 241.0 L 154.0 241.0 L 155.0 241.0 L 155.0 241.0 L 156.0 241.0 L 157.0 241.0 L 157.0 241.0 L 158.0 241.0 L 158.0 242.0 L 159.0 242.0 L 160.0 242.0 L 161.0 242.0 L 162.0 242.0 L 163.0 242.0 L 164.0 242.0 L 164.0 242.0 L 166.0 242.0 L 167.0 242.0 L 168.0 242.0 L 169.0 242.0 L 170.0 242.0 L 171.0 242.0 L 173.0 242.0 L 174.0 242.0 L 176.0 242.0 L 177.0 242.0 L 179.0 242.0 L 180.0 242.0 L 182.0 242.0 L 183.0 242.0 L 184.0 242.0 L 186.0 242.0 L 187.0 242.0 L 188.0 242.0 L 190.0 242.0 L 191.0 242.0 L 192.0 242.0 L 193.0 242.0 L 194.0 242.0 L 195.0 242.0 L 196.0 242.0 L 197.0 242.0 L 197.0 242.0 L 198.0 242.0 L 199.0 242.0 L 200.0 241.0 L 202.0 241.0 L 203.0 241.0 L 205.0 240.0 L 207.0 240.0 L 209.0 239.0 L 211.0 239.0 L 214.0 239.0 L 216.0 239.0 L 218.0 239.0 L 220.0 238.0 L 223.0 238.0 L 225.0 238.0 L 227.0 238.0 L 229.0 237.0 L 231.0 237.0 L 233.0 237.0 L 235.0 237.0 L 236.0 237.0 L 238.0 237.0 L 239.0 237.0 L 240.0 237.0 L 241.0 237.0 L 241.0 237.0 L 242.0 237.0 L 243.0 237.0 L 243.0 237.0 L 244.0 237.0 L 244.0 237.0 L 244.0 237.0 " stroke="black" fill="none" stroke-width="5.0" stroke-linecap="round" stroke-linejoin="round" />
</svg>