<svg xmlns="http://www.w3.org/2000/svg" width="300" height="300" viewBox="0 0 300 300">
<path d="M 74.0 75.0 L 74.0 75.0 L 74.0 75.0 L 74.0 75.0 L 74.0 75.0 L 74.0 75.0 L 74.0 75.0 L 73.0 75.0 L 73.0 75.0 L 73.0 75.0 L 73.0 75.0 L 73.0 75.0 L 74.0 75.0 L 76.0 76.0 L 78.0 77.0 L 80.0 78.0 L 84.0 80.0 L 87.0 82.0 L 90.0 83.0 L 94.0 85.0 L 97.0 86.0 L 100.0 88.0 L 101.0 89.0 " stroke="black" fill="none" stroke-width="5.0" stroke-linecap="round" stroke-linejoin="round" />
<path d="M 66.0 133.0 L 66.0 132.0 L 66.0 131.0 L 66.0 131.0 L 66.0 130.0 L 66.0 130.0 L 66.0 129.0 L 66.0 129.0 L 66.0 129.0 L 66.0 129.0 L 67.0 129.0 L 68.0 129.0 L 70.0 130.0 L 72.0 131.0 L 74.0 133.0 L 77.0 135.0 L 81.0 137.0 L 85.0 138.0 L 88.0 140.0 L 92.0 141.0 L 96.0 142.0 " stroke="black" fill="none" stroke-width="5.0" stroke-linecap="round" stroke-linejoin="round" />
<path d="M 65.0 245.0 L 65.0 245.0 L 65.0 245.0 L 65.0 245.0 L 65.0 245.0 L 65.0 244.0 L 66.0 244.0 L 66.0 243.0 L 66.0 243.0 L 66.0 242.0 L 66.0 240.0 L 66.0 238.0 L 67.0 236.0 L 69.0 232.0 L 71.0 227.0 L 74.0 220.0 L 79.0 213.0 L 84.0 205.0 L 90.0 196.0 L 94.0 188.0 L 98.0 180.0 L 102.0 172.0 L 103.0 168.0 L 104.0 165.0 L 104.0 164.0 " stroke="black" fill="none" stroke-width="5.0" stroke-linecap="round" stroke-linejoin="round" />
<path d="M 156.0 70.0 L 156.0 70.0 L 157.0 70.0 L 157.0 69.0 L 158.0 68.0 L 158.0 68.0 L 158.0 67.0 L 159.0 67.0 L 159.0 67.0 L 159.0 67.0 L 159.0 67.0 L 159.0 67.0 L 159.0 67.0 L 159.0 68.0 L 158.0 69.0 L 158.0 70.0 L 158.0 72.0 L 157.0 73.0 L 157.0 75.0 L 156.0 77.0 L 155.0 79.0 L 154.0 82.0 L 153.0 85.0 L 151.0 88.0 L 150.0 92.0 L 148.0 96.0 L 145.0 101.0 L 143.0 106.0 L 139.0 111.0 L 135.0 115.0 L 131.0 119.0 L 126.0 123.0 L 121.0 127.0 L 116.0 129.0 " stroke="black" fill="none" stroke-width="5.0" stroke-linecap="round" stroke-linejoin="round" />
<path d="M 151.0 95.0 L 151.0 95.0 L 151.0 95.0 L 151.0 95.0 L 151.0 95.0 L 151.0 95.0 L 151.0 95.0 L 151.0 95.0 L 151.0 95.0 L 151.0 95.0 L 151.0 95.0 L 151.0 95.0 L 151.0 95.0 L 151.0 95.0 L 152.0 95.0 L 152.0 95.0 L 152.0 95.0 L 152.0 95.0 L 152.0 95.0 L 153.0 95.0 L 153.0 95.0 L 153.0 95.0 L 154.0 95.0 L 155.0 94.0 L 155.0 94.0 L 156.0 94.0 L 157.0 94.0 L 158.0 94.0 L 158.0 94.0 L 159.0 94.0 L 160.0 94.0 L 161.0 93.0 L 162.0 93.0 L 163.0 93.0 L 163.0 93.0 L 164.0 93.0 L 165.0 93.0 L 166.0 93.0 L 167.0 93.0 L 168.0 93.0 L 169.0 93.0 L 169.0 93.0 L 170.0 93.0 L 171.0 93.0 L 172.0 93.0 L 173.0 93.0 L 174.0 93.0 L 174.0 93.0 L 175.0 93.0 L 176.0 93.0 L 177.0 93.0 L 177.0 93.0 L 178.0 93.0 L 179.0 93.0 L 179.0 93.0 L 180.0 93.0 L 181.0 93.0 L 182.0 93.0 L 182.0 93.0 L 183.0 93.0 L 184.0 93.0 L 185.0 93.0 L 185.0 93.0 L 186.0 93.0 L 187.0 93.0 L 188.0 92.0 L 189.0 92.0 L 190.0 92.0 L 191.0 92.0 L 192.0 92.0 L 193.0 92.0 L 193.0 92.0 L 194.0 92.0 L 195.0 92.0 L 196.0 92.0 L 196.0 91.0 L 197.0 91.0 L 198.0 91.0 L 199.0 91.0 L 199.0 91.0 L 200.0 91.0 L 201.0 91.0 L 202.0 91.0 L 202.0 91.0 L 203.0 91.0 L 204.0 91.0 L 205.0 91.0 L 206.0 91.0 L 206.0 91.0 L 207.0 91.0 L 208.0 91.0 L 209.0 91.0 L 209.0 91.0 L 210.0 91.0 L 211.0 91.0 L 212.0 91.0 L 213.0 91.0 L 213.0 91.0 L 214.0 91.0 L 215.0 91.0 L 215.0 91.0 L 216.0 91.0 L 217.0 91.0 L 217.0 91.0 L 218.0 91.0 L 218.0 91.0 L 219.0 91.0 L 219.0 91.0 L 220.0 91.0 L 220.0 91.0 L 220.0 91.0 L 221.0 91.0 L 221.0 91.0 L 221.0 91.0 L 221.0 91.0 L 221.0 91.0 L 221.0 91.0 L 221.0 92.0 L 221.0 92.0 L 221.0 92.0 L 221.0 92.0 L 221.0 92.0 L 221.0 92.0 L 221.0 93.0 L 221.0 93.0 L 221.0 93.0 L 220.0 93.0 L 220.0 94.0 L 220.0 94.0 L 220.0 95.0 L 219.0 95.0 L 219.0 95.0 L 219.0 96.0 L 219.0 96.0 L 218.0 97.0 L 218.0 98.0 L 218.0 98.0 L 217.0 99.0 L 217.0 99.0 L 216.0 100.0 L 216.0 101.0 L 216.0 101.0 L 215.0 102.0 L 215.0 102.0 L 214.0 103.0 L 214.0 103.0 L 214.0 104.0 L 214.0 104.0 L 213.0 105.0 L 213.0 105.0 L 212.0 106.0 L 212.0 107.0 L 212.0 107.0 L 211.0 108.0 L 211.0 108.0 L 210.0 109.0 L 210.0 109.0 L 209.0 110.0 L 209.0 111.0 L 208.0 111.0 L 207.0 112.0 L 207.0 113.0 L 206.0 113.0 L 206.0 114.0 L 205.0 114.0 L 204.0 115.0 L 204.0 115.0 L 203.0 116.0 L 202.0 116.0 L 202.0 117.0 L 201.0 118.0 L 200.0 118.0 L 200.0 119.0 L 199.0 119.0 L 199.0 120.0 L 198.0 120.0 L 198.0 121.0 L 197.0 121.0 L 197.0 122.0 L 197.0 122.0 L 196.0 123.0 L 196.0 123.0 L 195.0 124.0 L 195.0 125.0 L 195.0 125.0 L 194.0 126.0 L 194.0 126.0 L 194.0 127.0 L 193.0 128.0 L 193.0 128.0 L 193.0 129.0 L 192.0 130.0 L 192.0 130.0 L 192.0 131.0 L 191.0 131.0 L 191.0 132.0 L 191.0 133.0 L 190.0 133.0 L 190.0 134.0 L 189.0 135.0 L 189.0 135.0 L 188.0 136.0 L 188.0 136.0 L 187.0 137.0 L 186.0 138.0 L 186.0 138.0 L 185.0 139.0 L 184.0 140.0 L 184.0 140.0 L 183.0 141.0 L 182.0 141.0 L 182.0 142.0 L 181.0 142.0 L 180.0 143.0 L 180.0 143.0 L 179.0 144.0 L 178.0 144.0 L 178.0 145.0 L 177.0 145.0 L 177.0 145.0 L 176.0 146.0 L 176.0 146.0 L 175.0 146.0 L 175.0 147.0 L 174.0 147.0 L 174.0 147.0 L 173.0 148.0 L 172.0 148.0 L 172.0 148.0 L 171.0 149.0 L 170.0 149.0 L 170.0 149.0 L 169.0 150.0 L 168.0 150.0 L 168.0 150.0 L 167.0 151.0 L 166.0 151.0 L 165.0 152.0 L 164.0 152.0 L 163.0 153.0 L 163.0 153.0 L 162.0 154.0 L 161.0 154.0 L 160.0 155.0 L 160.0 155.0 L 159.0 156.0 L 159.0 156.0 L 158.0 156.0 L 158.0 157.0 L 157.0 157.0 L 157.0 157.0 L 157.0 158.0 L 156.0 158.0 L 156.0 158.0 L 156.0 159.0 L 155.0 159.0 L 155.0 159.0 L 155.0 159.0 L 155.0 160.0 L 154.0 160.0 L 154.0 160.0 L 154.0 161.0 L 154.0 161.0 L 153.0 161.0 L 153.0 162.0 L 153.0 162.0 L 153.0 162.0 L 152.0 163.0 L 152.0 163.0 L 152.0 163.0 L 151.0 164.0 L 151.0 164.0 L 151.0 164.0 L 150.0 165.0 L 150.0 165.0 L 150.0 165.0 L 149.0 165.0 L 149.0 166.0 L 149.0 166.0 L 148.0 166.0 L 148.0 166.0 L 148.0 166.0 L 148.0 167.0 L 147.0 167.0 L 147.0 167.0 L 147.0 167.0 L 146.0 167.0 L 146.0 167.0 L 146.0 168.0 L 146.0 168.0 L 145.0 168.0 L 145.0 168.0 L 145.0 168.0 L 145.0 168.0 L 145.0 168.0 L 144.0 168.0 L 144.0 168.0 L 144.0 168.0 L 144.0 168.0 L 144.0 168.0 L 143.0 169.0 L 143.0 169.0 L 143.0 169.0 L 143.0 169.0 L 142.0 169.0 L 142.0 169.0 L 142.0 170.0 L 141.0 170.0 L 141.0 170.0 L 141.0 170.0 L 140.0 170.0 L 140.0 170.0 L 139.0 171.0 L 139.0 171.0 L 138.0 171.0 L 138.0 171.0 L 137.0 172.0 L 137.0 172.0 L 136.0 172.0 L 135.0 173.0 L 135.0 173.0 L 134.0 173.0 L 133.0 174.0 L 133.0 174.0 L 132.0 175.0 L 131.0 175.0 L 131.0 175.0 L 130.0 175.0 L 130.0 175.0 L 129.0 175.0 L 128.0 176.0 L 128.0 176.0 L 127.0 176.0 L 126.0 176.0 L 126.0 176.0 L 125.0 176.0 L 124.0 176.0 L 124.0 176.0 L 123.0 177.0 L 123.0 177.0 L 122.0 177.0 L 121.0 177.0 L 121.0 177.0 L 120.0 177.0 L 120.0 178.0 L 119.0 178.0 L 119.0 178.0 L 118.0 178.0 L 117.0 178.0 L 117.0 179.0 L 116.0 179.0 L 116.0 179.0 L 116.0 179.0 L 115.0 179.0 L 115.0 179.0 L 114.0 179.0 L 114.0 179.0 L 114.0 179.0 L 114.0 179.0 L 114.0 178.0 " stroke="black" fill="none" stroke-width="5.0" stroke-linecap="round" stroke-linejoin="round" />
<path d="M 148.0 106.0 L 148.0 105.0 L 148.0 104.0 L 148.0 103.0 L 148.0 102.0 L 148.0 101.0 L 148.0 101.0 L 148.0 101.0 L 148.0 101.0 L 148.0 101.0 L 147.0 101.0 L 147.0 101.0 L 147.0 102.0 L 147.0 103.0 L 147.0 103.0 L 147.0 105.0 L 147.0 106.0 L 147.0 107.0 L 147.0 108.0 L 148.0 109.0 L 148.0 110.0 L 149.0 111.0 L 149.0 113.0 L 150.0 114.0 L 150.0 115.0 L 151.0 116.0 L 151.0 117.0 L 152.0 118.0 L 153.0 120.0 L 153.0 121.0 L 154.0 122.0 L 155.0 123.0 L 156.0 125.0 L 157.0 126.0 L 157.0 127.0 L 158.0 128.0 L 158.0 129.0 L 159.0 130.0 L 160.0 131.0 L 160.0 131.0 L 161.0 132.0 L 162.0 132.0 L 162.0 133.0 L 163.0 134.0 L 163.0 134.0 L 164.0 135.0 L 164.0 136.0 L 165.0 136.0 L 165.0 137.0 L 166.0 138.0 L 166.0 139.0 L 167.0 139.0 L 168.0 140.0 L 168.0 141.0 L 169.0 142.0 L 170.0 143.0 L 170.0 144.0 L 171.0 144.0 L 172.0 146.0 L 173.0 146.0 L 174.0 147.0 L 175.0 148.0 L 176.0 149.0 L 177.0 150.0 L 178.0 150.0 L 179.0 151.0 L 180.0 152.0 L 181.0 153.0 L 182.0 154.0 L 183.0 154.0 L 184.0 155.0 L 185.0 156.0 L 186.0 157.0 L 187.0 158.0 L 188.0 159.0 L 189.0 159.0 L 190.0 160.0 L 191.0 161.0 L 192.0 162.0 L 193.0 163.0 L 194.0 163.0 L 195.0 164.0 L 196.0 165.0 L 196.0 166.0 L 197.0 166.0 L 198.0 167.0 L 200.0 168.0 L 201.0 169.0 L 202.0 169.0 L 203.0 170.0 L 204.0 170.0 L 206.0 171.0 L 207.0 171.0 L 209.0 171.0 L 210.0 171.0 L 211.0 171.0 L 213.0 172.0 L 214.0 172.0 L 216.0 172.0 L 217.0 172.0 L 219.0 173.0 L 221.0 173.0 L 223.0 173.0 L 225.0 174.0 L 227.0 174.0 L 228.0 175.0 L 230.0 176.0 L 232.0 177.0 L 233.0 177.0 L 235.0 178.0 L 236.0 178.0 L 237.0 179.0 L 237.0 179.0 L 238.0 180.0 L 238.0 180.0 L 239.0 180.0 L 239.0 180.0 L 239.0 180.0 L 239.0 180.0 L 240.0 180.0 L 240.0 181.0 " stroke="black" fill="none" stroke-width="5.0" stroke-linecap="round" stroke-linejoin="round" />
<path d="M 141.0 187.0 L 141.0 186.0 L 141.0 186.0 L 141.0 185.0 L 141.0 185.0 L 141.0 184.0 L 141.0 184.0 L 141.0 183.0 L 141.0 183.0 L 141.0 182.0 L 141.0 182.0 L 141.0 181.0 L 141.0 181.0 L 141.0 181.0 L 141.0 181.0 L 141.0 182.0 L 141.0 184.0 L 141.0 188.0 L 141.0 192.0 L 141.0 197.0 L 141.0 204.0 L 141.0 210.0 L 141.0 218.0 L 141.0 226.0 L 141.0 232.0 L 141.0 238.0 L 141.0 241.0 L 141.0 244.0 L 141.0 245.0 L 142.0 245.0 L 142.0 245.0 L 142.0 245.0 L 142.0 243.0 L 143.0 241.0 " stroke="black" fill="none" stroke-width="5.0" stroke-linecap="round" stroke-linejoin="round" />
<path d="M 146.0 186.0 L 146.0 186.0 L 146.0 186.0 L 146.0 186.0 L 146.0 186.0 L 146.0 185.0 L 145.0 185.0 L 145.0 185.0 L 145.0 185.0 L 145.0 185.0 L 145.0 185.0 L 145.0 185.0 L 145.0 185.0 L 145.0 185.0 L 145.0 185.0 L 145.0 185.0 L 145.0 185.0 L 145.0 185.0 L 145.0 185.0 L 146.0 185.0 L 146.0 185.0 L 147.0 185.0 L 148.0 185.0 L 148.0 185.0 L 149.0 185.0 L 150.0 185.0 L 151.0 185.0 L 152.0 185.0 L 153.0 185.0 L 154.0 185.0 L 155.0 185.0 L 156.0 185.0 L 157.0 185.0 L 158.0 185.0 L 159.0 185.0 L 160.0 185.0 L 161.0 185.0 L 162.0 185.0 L 164.0 185.0 L 165.0 185.0 L 166.0 185.0 L 168.0 184.0 L 169.0 184.0 L 170.0 184.0 L 171.0 184.0 L 172.0 184.0 L 174.0 184.0 L 175.0 184.0 L 176.0 184.0 L 177.0 184.0 L 178.0 184.0 L 179.0 184.0 L 180.0 184.0 L 181.0 184.0 L 182.0 184.0 L 183.0 184.0 L 184.0 185.0 L 185.0 185.0 L 186.0 185.0 L 187.0 185.0 L 187.0 185.0 L 188.0 185.0 L 189.0 185.0 L 190.0 185.0 L 190.0 185.0 L 191.0 185.0 L 192.0 185.0 L 192.0 185.0 L 193.0 185.0 L 194.0 185.0 L 194.0 185.0 L 195.0 185.0 L 196.0 185.0 L 197.0 185.0 L 197.0 185.0 L 198.0 185.0 L 199.0 185.0 L 199.0 185.0 L 200.0 185.0 L 201.0 185.0 L 202.0 185.0 L 202.0 185.0 L 203.0 185.0 L 204.0 186.0 L 205.0 186.0 L 206.0 186.0 L 207.0 186.0 L 209.0 186.0 L 210.0 187.0 L 211.0 187.0 L 212.0 187.0 L 213.0 187.0 L 214.0 188.0 L 214.0 188.0 L 215.0 188.0 L 216.0 188.0 L 216.0 188.0 L 217.0 188.0 L 217.0 189.0 L 218.0 189.0 L 218.0 189.0 L 218.0 189.0 L 218.0 189.0 L 219.0 189.0 L 219.0 189.0 L 219.0 189.0 L 219.0 189.0 L 219.0 190.0 L 219.0 190.0 L 219.0 190.0 L 219.0 191.0 L 219.0 191.0 L 219.0 192.0 L 219.0 193.0 L 219.0 195.0 L 219.0 197.0 L 219.0 199.0 L 218.0 202.0 L 218.0 206.0 L 217.0 210.0 L 216.0 213.0 L 216.0 217.0 L 215.0 221.0 L 215.0 224.0 L 214.0 228.0 L 214.0 230.0 L 214.0 233.0 L 214.0 235.0 L 213.0 237.0 L 213.0 238.0 L 212.0 240.0 L 212.0 241.0 L 212.0 241.0 L 211.0 242.0 L 211.0 242.0 L 211.0 243.0 L 211.0 243.0 L 210.0 243.0 " stroke="black" fill="none" stroke-width="5.0" stroke-linecap="round" stroke-linejoin="round" />
<path d="M 146.0 248.0 L 146.0 248.0 L 146.0 248.0 L 145.0 247.0 L 145.0 247.0 L 144.0 247.0 L 144.0 247.0 L 144.0 247.0 L 144.0 246.0 L 144.0 246.0 L 144.0 246.0 L 144.0 246.0 L 145.0 246.0 L 146.0 245.0 L 148.0 245.0 L 150.0 245.0 L 152.0 245.0 L 155.0 245.0 L 159.0 245.0 L 163.0 245.0 L 168.0 244.0 L 173.0 243.0 L 178.0 243.0 L 182.0 242.0 L 187.0 242.0 L 191.0 241.0 L 193.0 241.0 L 196.0 241.0 L 198.0 241.0 L 200.0 241.0 L 203.0 241.0 L 205.0 241.0 L 208.0 241.0 L 210.0 240.0 L 213.0 240.0 L 215.0 240.0 L 216.0 239.0 L 217.0 239.0 L 218.0 239.0 L 218.0 239.0 L 218.0 239.0 L 218.0 238.0 " stroke="black" fill="none" stroke-width="5.0" stroke-linecap="round" stroke-linejoin="round" />
</svg>