<svg xmlns="http://www.w3.org/2000/svg" width="300" height="300" viewBox="0 0 300 300">
<path d="M 65.0 92.0 L 65.0 92.0 L 65.0 92.0 L 65.0 92.0 L 64.0 92.0 L 64.0 92.0 L 64.0 92.0 L 64.0 93.0 L 64.0 93.0 L 64.0 93.0 L 64.0 93.0 L 64.0 93.0 L 65.0 94.0 L 65.0 94.0 L 66.0 94.0 L 67.0 94.0 L 68.0 95.0 L 69.0 95.0 L 69.0 95.0 L 71.0 95.0 L 72.0 95.0 L 73.0 96.0 L 74.0 96.0 L 76.0 96.0 L 78.0 96.0 L 80.0 96.0 L 81.0 96.0 L 83.0 96.0 L 85.0 96.0 L 86.0 96.0 L 88.0 96.0 L 90.0 96.0 L 91.0 96.0 L 93.0 96.0 L 94.0 96.0 L 96.0 96.0 L 98.0 96.0 L 99.0 96.0 L 101.0 96.0 L 102.0 96.0 L 104.0 96.0 L 105.0 96.0 L 107.0 96.0 L 108.0 96.0 L 110.0 96.0 L 112.0 96.0 L 114.0 96.0 L 116.0 96.0 L 118.0 96.0 L 121.0 95.0 L 124.0 95.0 L 126.0 95.0 L 129.0 95.0 L 131.0 95.0 L 133.0 95.0 L 134.0 95.0 " stroke="black" fill="none" stroke-width="5.0" stroke-linecap="round" stroke-linejoin="round" />
<path d="M 74.0 112.0 L 74.0 112.0 L 73.0 112.0 L 72.0 112.0 L 72.0 111.0 L 71.0 111.0 L 71.0 111.0 L 70.0 110.0 L 70.0 110.0 L 70.0 110.0 L 70.0 110.0 L 71.0 110.0 L 73.0 110.0 L 76.0 111.0 L 81.0 111.0 L 87.0 111.0 L 93.0 111.0 L 100.0 111.0 L 107.0 111.0 L 113.0 110.0 L 117.0 109.0 L 121.0 109.0 L 123.0 109.0 L 124.0 109.0 L 124.0 110.0 " stroke="black" fill="none" stroke-width="5.0" stroke-linecap="round" stroke-linejoin="round" />
<path d="M 102.0 76.0 L 102.0 76.0 L 102.0 76.0 L 101.0 75.0 L 101.0 75.0 L 101.0 75.0 L 101.0 75.0 L 101.0 75.0 L 101.0 76.0 L 101.0 78.0 L 101.0 80.0 L 101.0 84.0 L 101.0 88.0 L 101.0 94.0 L 102.0 100.0 L 102.0 107.0 L 102.0 113.0 L 102.0 119.0 L 101.0 123.0 L 101.0 127.0 L 100.0 131.0 L 100.0 134.0 L 99.0 135.0 L 99.0 136.0 " stroke="black" fill="none" stroke-width="5.0" stroke-linecap="round" stroke-linejoin="round" />
<path d="M 69.0 137.0 L 69.0 137.0 L 68.0 137.0 L 67.0 137.0 L 66.0 137.0 L 65.0 137.0 L 64.0 136.0 L 64.0 136.0 L 63.0 136.0 L 63.0 136.0 L 63.0 135.0 L 63.0 135.0 L 63.0 135.0 L 63.0 135.0 L 64.0 134.0 L 65.0 134.0 L 67.0 134.0 L 69.0 134.0 L 72.0 134.0 L 76.0 134.0 L 81.0 134.0 L 87.0 134.0 L 94.0 134.0 L 101.0 134.0 L 108.0 133.0 L 114.0 132.0 L 120.0 131.0 L 126.0 131.0 L 130.0 131.0 L 134.0 131.0 L 137.0 131.0 L 138.0 131.0 L 139.0 132.0 " stroke="black" fill="none" stroke-width="5.0" stroke-linecap="round" stroke-linejoin="round" />
<path d="M 71.0 164.0 L 71.0 164.0 L 71.0 164.0 L 71.0 164.0 L 71.0 164.0 L 70.0 164.0 L 70.0 164.0 L 70.0 164.0 L 70.0 164.0 L 70.0 164.0 L 70.0 164.0 L 70.0 165.0 L 71.0 165.0 L 71.0 166.0 L 71.0 167.0 L 72.0 168.0 L 72.0 169.0 L 72.0 171.0 L 73.0 173.0 L 73.0 175.0 L 73.0 177.0 L 74.0 180.0 L 74.0 183.0 L 74.0 186.0 L 74.0 189.0 L 74.0 191.0 L 74.0 194.0 L 74.0 196.0 L 74.0 199.0 L 74.0 202.0 L 74.0 204.0 L 74.0 206.0 L 73.0 209.0 L 73.0 211.0 L 73.0 214.0 L 73.0 217.0 L 73.0 219.0 L 73.0 222.0 L 73.0 225.0 L 72.0 228.0 L 72.0 231.0 L 71.0 234.0 L 70.0 237.0 L 69.0 240.0 L 68.0 244.0 L 66.0 246.0 L 66.0 247.0 L 64.0 250.0 " stroke="black" fill="none" stroke-width="5.0" stroke-linecap="round" stroke-linejoin="round" />
<path d="M 70.0 166.0 L 70.0 166.0 L 69.0 166.0 L 69.0 166.0 L 69.0 166.0 L 68.0 166.0 L 68.0 166.0 L 68.0 166.0 L 68.0 166.0 L 68.0 166.0 L 69.0 166.0 L 69.0 166.0 L 71.0 166.0 L 72.0 166.0 L 74.0 166.0 L 75.0 166.0 L 77.0 166.0 L 79.0 166.0 L 82.0 165.0 L 84.0 165.0 L 87.0 165.0 L 89.0 165.0 L 91.0 164.0 L 94.0 164.0 L 96.0 164.0 L 98.0 164.0 L 100.0 164.0 L 102.0 164.0 L 104.0 164.0 L 106.0 164.0 L 108.0 164.0 L 109.0 164.0 L 111.0 164.0 L 112.0 163.0 L 114.0 163.0 L 115.0 163.0 L 115.0 163.0 L 116.0 163.0 L 117.0 163.0 L 117.0 163.0 L 118.0 163.0 L 118.0 163.0 L 119.0 163.0 L 119.0 163.0 L 120.0 164.0 L 120.0 164.0 L 120.0 164.0 L 121.0 164.0 L 121.0 165.0 L 121.0 165.0 L 121.0 166.0 L 121.0 166.0 L 121.0 167.0 L 121.0 168.0 L 122.0 169.0 L 122.0 170.0 L 122.0 171.0 L 122.0 172.0 L 122.0 174.0 L 122.0 176.0 L 122.0 178.0 L 122.0 180.0 L 123.0 183.0 L 123.0 185.0 L 123.0 188.0 L 123.0 191.0 L 123.0 193.0 L 123.0 196.0 L 123.0 198.0 L 123.0 200.0 L 123.0 203.0 L 123.0 205.0 L 123.0 207.0 L 123.0 210.0 L 123.0 212.0 L 123.0 215.0 L 123.0 218.0 L 123.0 220.0 L 123.0 223.0 L 123.0 227.0 L 123.0 230.0 L 123.0 232.0 L 122.0 235.0 L 122.0 237.0 L 122.0 239.0 L 122.0 241.0 L 122.0 243.0 L 121.0 245.0 L 121.0 246.0 L 121.0 247.0 L 120.0 248.0 L 120.0 249.0 L 119.0 249.0 L 119.0 250.0 L 118.0 250.0 L 118.0 250.0 L 118.0 251.0 L 117.0 251.0 L 116.0 251.0 L 116.0 251.0 L 115.0 250.0 L 113.0 249.0 L 112.0 248.0 L 110.0 247.0 L 108.0 246.0 L 107.0 244.0 L 105.0 242.0 " stroke="black" fill="none" stroke-width="5.0" stroke-linecap="round" stroke-linejoin="round" />
<path d="M 84.0 190.0 L 84.0 190.0 L 84.0 190.0 L 84.0 190.0 L 84.0 190.0 L 84.0 190.0 L 84.0 190.0 L 84.0 190.0 L 84.0 190.0 L 85.0 190.0 L 88.0 190.0 L 92.0 189.0 L 96.0 189.0 L 101.0 189.0 L 106.0 189.0 L 112.0 189.0 L 118.0 189.0 L 124.0 189.0 " stroke="black" fill="none" stroke-width="5.0" stroke-linecap="round" stroke-linejoin="round" />
<path d="M 73.0 215.0 L 73.0 215.0 L 73.0 215.0 L 73.0 215.0 L 73.0 215.0 L 73.0 215.0 L 73.0 215.0 L 75.0 214.0 L 78.0 214.0 L 82.0 214.0 L 87.0 213.0 L 94.0 213.0 L 101.0 212.0 L 107.0 212.0 L 112.0 211.0 L 118.0 211.0 L 120.0 210.0 " stroke="black" fill="none" stroke-width="5.0" stroke-linecap="round" stroke-linejoin="round" />
<path d="M 154.0 89.0 L 154.0 89.0 L 154.0 89.0 L 154.0 89.0 L 154.0 89.0 L 154.0 89.0 L 154.0 89.0 L 154.0 89.0 L 154.0 89.0 L 154.0 89.0 L 154.0 89.0 L 154.0 89.0 L 154.0 89.0 L 155.0 89.0 L 155.0 89.0 L 156.0 89.0 L 157.0 89.0 L 157.0 89.0 L 159.0 89.0 L 160.0 89.0 L 162.0 89.0 L 163.0 89.0 L 165.0 89.0 L 168.0 89.0 L 170.0 89.0 L 173.0 89.0 L 175.0 89.0 L 178.0 88.0 L 181.0 88.0 L 183.0 88.0 L 186.0 87.0 L 188.0 87.0 L 191.0 86.0 L 193.0 86.0 L 195.0 85.0 L 196.0 85.0 L 198.0 84.0 L 201.0 83.0 L 203.0 83.0 L 205.0 82.0 L 208.0 82.0 L 211.0 81.0 L 215.0 81.0 L 219.0 80.0 L 223.0 79.0 L 226.0 78.0 L 230.0 77.0 L 231.0 77.0 " stroke="black" fill="none" stroke-width="5.0" stroke-linecap="round" stroke-linejoin="round" />
<path d="M 156.0 106.0 L 156.0 106.0 L 156.0 106.0 L 156.0 106.0 L 156.0 106.0 L 156.0 107.0 L 156.0 107.0 L 156.0 109.0 L 157.0 111.0 L 158.0 113.0 L 159.0 116.0 L 161.0 118.0 L 163.0 121.0 L 165.0 124.0 L 166.0 125.0 " stroke="black" fill="none" stroke-width="5.0" stroke-linecap="round" stroke-linejoin="round" />
<path d="M 184.0 99.0 L 184.0 99.0 L 184.0 99.0 L 184.0 99.0 L 184.0 100.0 L 184.0 101.0 L 185.0 102.0 L 186.0 103.0 L 187.0 105.0 L 188.0 107.0 L 190.0 109.0 L 191.0 112.0 L 191.0 114.0 L 193.0 117.0 L 193.0 118.0 " stroke="black" fill="none" stroke-width="5.0" stroke-linecap="round" stroke-linejoin="round" />
<path d="M 231.0 97.0 L 231.0 97.0 L 231.0 97.0 L 230.0 98.0 L 230.0 98.0 L 229.0 100.0 L 227.0 102.0 L 225.0 105.0 L 222.0 109.0 L 219.0 113.0 L 217.0 117.0 L 214.0 121.0 L 213.0 123.0 " stroke="black" fill="none" stroke-width="5.0" stroke-linecap="round" stroke-linejoin="round" />
<path d="M 163.0 133.0 L 163.0 133.0 L 163.0 133.0 L 163.0 133.0 L 162.0 132.0 L 162.0 132.0 L 162.0 132.0 L 162.0 131.0 L 162.0 131.0 L 162.0 131.0 L 161.0 131.0 L 161.0 131.0 L 161.0 131.0 L 161.0 131.0 L 161.0 131.0 L 161.0 131.0 L 161.0 131.0 L 161.0 131.0 L 161.0 131.0 L 161.0 131.0 L 161.0 131.0 L 162.0 131.0 L 162.0 131.0 L 162.0 131.0 L 163.0 131.0 L 163.0 132.0 L 164.0 132.0 L 164.0 132.0 L 165.0 132.0 L 166.0 132.0 L 167.0 132.0 L 168.0 132.0 L 169.0 132.0 L 170.0 132.0 L 171.0 132.0 L 173.0 133.0 L 174.0 133.0 L 176.0 133.0 L 178.0 133.0 L 179.0 133.0 L 181.0 133.0 L 183.0 133.0 L 185.0 133.0 L 187.0 133.0 L 188.0 132.0 L 190.0 132.0 L 191.0 132.0 L 193.0 132.0 L 194.0 132.0 L 195.0 132.0 L 196.0 131.0 L 198.0 131.0 L 199.0 131.0 L 200.0 131.0 L 201.0 130.0 L 203.0 130.0 L 204.0 130.0 L 205.0 130.0 L 207.0 129.0 L 209.0 129.0 L 210.0 129.0 L 212.0 129.0 L 213.0 129.0 L 215.0 129.0 L 217.0 129.0 L 218.0 129.0 L 219.0 129.0 L 221.0 129.0 L 222.0 129.0 L 224.0 129.0 L 225.0 129.0 L 226.0 129.0 L 227.0 129.0 L 228.0 129.0 L 229.0 129.0 L 229.0 129.0 L 230.0 129.0 L 230.0 129.0 L 230.0 129.0 L 231.0 129.0 L 231.0 129.0 L 231.0 129.0 L 231.0 130.0 L 231.0 130.0 L 231.0 131.0 L 231.0 131.0 L 230.0 132.0 L 230.0 133.0 L 230.0 134.0 L 230.0 135.0 L 229.0 136.0 L 229.0 137.0 L 229.0 139.0 L 229.0 141.0 L 228.0 144.0 L 228.0 146.0 L 228.0 149.0 L 227.0 152.0 L 227.0 155.0 L 227.0 158.0 L 227.0 161.0 L 227.0 164.0 L 227.0 167.0 L 227.0 171.0 L 227.0 175.0 L 227.0 178.0 L 227.0 183.0 L 227.0 186.0 L 227.0 190.0 L 227.0 193.0 L 227.0 195.0 L 227.0 196.0 L 227.0 198.0 L 226.0 198.0 L 226.0 199.0 L 225.0 199.0 L 224.0 199.0 L 224.0 199.0 " stroke="black" fill="none" stroke-width="5.0" stroke-linecap="round" stroke-linejoin="round" />
<path d="M 150.0 171.0 L 150.0 171.0 L 150.0 171.0 L 150.0 171.0 L 150.0 171.0 L 150.0 171.0 L 150.0 171.0 L 150.0 171.0 L 149.0 171.0 L 149.0 171.0 L 149.0 171.0 L 149.0 171.0 L 149.0 171.0 L 149.0 171.0 L 149.0 171.0 L 149.0 171.0 L 149.0 171.0 L 149.0 171.0 L 149.0 171.0 L 149.0 171.0 L 150.0 171.0 L 150.0 171.0 L 150.0 171.0 L 151.0 171.0 L 152.0 171.0 L 152.0 171.0 L 153.0 171.0 L 154.0 172.0 L 155.0 172.0 L 156.0 172.0 L 157.0 172.0 L 158.0 172.0 L 160.0 172.0 L 161.0 172.0 L 163.0 172.0 L 164.0 172.0 L 166.0 172.0 L 168.0 172.0 L 170.0 172.0 L 171.0 172.0 L 173.0 172.0 L 175.0 172.0 L 177.0 172.0 L 178.0 172.0 L 180.0 171.0 L 182.0 171.0 L 184.0 171.0 L 187.0 171.0 L 188.0 171.0 L 190.0 171.0 L 192.0 171.0 L 194.0 170.0 L 196.0 170.0 L 198.0 170.0 L 199.0 170.0 L 201.0 170.0 L 203.0 170.0 L 205.0 170.0 L 207.0 170.0 L 210.0 170.0 L 212.0 170.0 L 215.0 170.0 L 219.0 170.0 L 222.0 170.0 L 225.0 170.0 L 229.0 170.0 L 232.0 170.0 L 234.0 170.0 L 237.0 170.0 L 238.0 170.0 L 239.0 170.0 L 241.0 170.0 " stroke="black" fill="none" stroke-width="5.0" stroke-linecap="round" stroke-linejoin="round" />
<path d="M 157.0 200.0 L 157.0 200.0 L 157.0 200.0 L 157.0 200.0 L 157.0 200.0 L 157.0 200.0 L 157.0 200.0 L 156.0 200.0 L 156.0 200.0 L 156.0 200.0 L 156.0 200.0 L 156.0 200.0 L 156.0 200.0 L 156.0 200.0 L 156.0 200.0 L 157.0 200.0 L 158.0 200.0 L 160.0 201.0 L 161.0 201.0 L 164.0 201.0 L 166.0 201.0 L 169.0 201.0 L 173.0 201.0 L 176.0 201.0 L 180.0 202.0 L 184.0 202.0 L 187.0 202.0 L 190.0 202.0 L 194.0 202.0 L 197.0 202.0 L 200.0 202.0 L 204.0 202.0 L 207.0 201.0 L 210.0 201.0 L 215.0 200.0 L 218.0 200.0 L 222.0 199.0 L 225.0 199.0 L 227.0 198.0 L 229.0 198.0 L 229.0 198.0 L 230.0 198.0 " stroke="black" fill="none" stroke-width="5.0" stroke-linecap="round" stroke-linejoin="round" />
<path d="M 189.0 140.0 L 189.0 140.0 L 189.0 140.0 L 189.0 140.0 L 189.0 140.0 L 189.0 140.0 L 189.0 140.0 L 190.0 141.0 L 190.0 143.0 L 190.0 145.0 L 190.0 147.0 L 190.0 150.0 L 190.0 154.0 L 190.0 158.0 L 190.0 161.0 L 190.0 165.0 L 190.0 168.0 L 190.0 172.0 L 190.0 175.0 L 190.0 179.0 L 190.0 182.0 L 190.0 186.0 L 190.0 190.0 L 190.0 193.0 L 190.0 197.0 L 190.0 200.0 L 190.0 203.0 L 190.0 206.0 L 190.0 209.0 L 190.0 211.0 L 190.0 213.0 L 190.0 216.0 L 190.0 218.0 L 190.0 220.0 L 190.0 222.0 L 190.0 224.0 L 190.0 226.0 L 190.0 228.0 L 190.0 230.0 L 190.0 232.0 L 190.0 235.0 L 190.0 236.0 L 189.0 238.0 L 189.0 240.0 L 189.0 241.0 L 189.0 243.0 L 189.0 244.0 L 189.0 245.0 L 188.0 247.0 L 188.0 248.0 L 188.0 249.0 L 188.0 250.0 L 187.0 251.0 L 187.0 252.0 L 187.0 252.0 L 186.0 254.0 L 186.0 254.0 L 186.0 255.0 L 186.0 256.0 L 185.0 257.0 L 185.0 257.0 L 185.0 258.0 L 184.0 258.0 L 184.0 258.0 L 183.0 258.0 L 182.0 258.0 L 181.0 258.0 L 179.0 258.0 L 177.0 257.0 L 175.0 256.0 L 173.0 255.0 L 170.0 254.0 L 167.0 253.0 L 164.0 252.0 L 162.0 251.0 L 161.0 250.0 " stroke="black" fill="none" stroke-width="5.0" stroke-linecap="round" stroke-linejoin="round" />
</svg>