<svg xmlns="http://www.w3.org/2000/svg" width="300" height="300" viewBox="0 0 300 300">
<path d="M 65.0 118.0 L 65.0 118.0 L 65.0 118.0 L 64.0 118.0 L 64.0 118.0 L 64.0 118.0 L 64.0 117.0 L 64.0 117.0 L 64.0 117.0 L 64.0 117.0 L 64.0 117.0 L 64.0 117.0 L 64.0 117.0 L 64.0 117.0 L 65.0 117.0 L 66.0 118.0 L 68.0 118.0 L 69.0 118.0 L 71.0 118.0 L 72.0 118.0 L 74.0 118.0 L 76.0 119.0 L 77.0 119.0 L 79.0 119.0 L 81.0 119.0 L 83.0 120.0 L 85.0 120.0 L 87.0 120.0 L 89.0 120.0 L 91.0 120.0 L 93.0 120.0 L 95.0 120.0 L 97.0 120.0 L 99.0 120.0 L 100.0 120.0 L 102.0 120.0 L 103.0 120.0 L 105.0 120.0 L 106.0 120.0 L 107.0 120.0 L 108.0 120.0 L 109.0 120.0 L 110.0 120.0 L 112.0 120.0 L 112.0 120.0 L 114.0 120.0 L 115.0 120.0 L 116.0 120.0 L 117.0 120.0 L 118.0 120.0 L 120.0 120.0 L 121.0 120.0 L 123.0 120.0 L 124.0 120.0 L 126.0 120.0 L 128.0 120.0 L 130.0 120.0 L 132.0 120.0 L 134.0 120.0 L 135.0 120.0 L 137.0 120.0 L 139.0 120.0 L 140.0 120.0 L 141.0 120.0 L 141.0 120.0 " stroke="black" fill="none" stroke-width="5.0" stroke-linecap="round" stroke-linejoin="round" />
<path d="M 104.0 75.0 L 104.0 75.0 L 104.0 75.0 L 104.0 75.0 L 104.0 76.0 L 104.0 76.0 L 104.0 77.0 L 104.0 78.0 L 104.0 79.0 L 104.0 81.0 L 104.0 82.0 L 104.0 84.0 L 104.0 86.0 L 104.0 88.0 L 104.0 90.0 L 104.0 93.0 L 104.0 95.0 L 104.0 98.0 L 103.0 101.0 L 103.0 104.0 L 103.0 106.0 L 103.0 109.0 L 103.0 111.0 L 103.0 114.0 L 103.0 117.0 L 104.0 120.0 L 104.0 122.0 L 104.0 125.0 L 104.0 128.0 L 104.0 131.0 L 104.0 134.0 L 104.0 136.0 L 104.0 139.0 L 104.0 142.0 L 104.0 144.0 L 104.0 147.0 L 104.0 150.0 L 104.0 152.0 L 104.0 155.0 L 104.0 157.0 L 104.0 160.0 L 104.0 162.0 L 104.0 165.0 L 103.0 167.0 L 103.0 169.0 L 103.0 172.0 L 103.0 174.0 L 102.0 176.0 L 102.0 179.0 L 102.0 181.0 L 102.0 183.0 L 102.0 186.0 L 102.0 189.0 L 102.0 191.0 L 102.0 194.0 L 102.0 196.0 L 102.0 198.0 L 102.0 201.0 L 102.0 203.0 L 102.0 205.0 L 102.0 207.0 L 102.0 210.0 L 102.0 212.0 L 102.0 214.0 L 102.0 216.0 L 102.0 219.0 L 102.0 222.0 L 102.0 225.0 L 102.0 228.0 L 102.0 231.0 L 102.0 234.0 L 102.0 237.0 L 102.0 239.0 L 102.0 242.0 L 102.0 245.0 L 102.0 247.0 L 102.0 249.0 L 102.0 251.0 L 102.0 253.0 L 102.0 254.0 L 102.0 254.0 L 102.0 254.0 L 102.0 254.0 " stroke="black" fill="none" stroke-width="5.0" stroke-linecap="round" stroke-linejoin="round" />
<path d="M 104.0 125.0 L 104.0 125.0 L 104.0 125.0 L 104.0 125.0 L 104.0 125.0 L 103.0 125.0 L 103.0 125.0 L 103.0 125.0 L 103.0 125.0 L 103.0 125.0 L 103.0 126.0 L 102.0 127.0 L 102.0 128.0 L 102.0 130.0 L 101.0 132.0 L 100.0 135.0 L 98.0 138.0 L 96.0 143.0 L 94.0 148.0 L 91.0 152.0 L 88.0 157.0 L 85.0 161.0 L 83.0 165.0 L 81.0 168.0 L 79.0 171.0 L 77.0 173.0 L 76.0 176.0 L 74.0 179.0 L 73.0 182.0 L 71.0 184.0 L 69.0 188.0 L 68.0 191.0 L 66.0 194.0 L 64.0 197.0 L 63.0 200.0 L 61.0 203.0 L 60.0 205.0 L 59.0 207.0 L 59.0 207.0 " stroke="black" fill="none" stroke-width="5.0" stroke-linecap="round" stroke-linejoin="round" />
<path d="M 107.0 130.0 L 107.0 130.0 L 107.0 130.0 L 107.0 130.0 L 107.0 130.0 L 107.0 130.0 L 107.0 130.0 L 107.0 131.0 L 107.0 131.0 L 107.0 132.0 L 108.0 133.0 L 108.0 135.0 L 110.0 137.0 L 111.0 140.0 L 114.0 143.0 L 117.0 147.0 L 120.0 151.0 L 123.0 155.0 L 126.0 159.0 L 130.0 162.0 L 132.0 164.0 L 135.0 166.0 L 137.0 168.0 " stroke="black" fill="none" stroke-width="5.0" stroke-linecap="round" stroke-linejoin="round" />
<path d="M 156.0 120.0 L 156.0 120.0 L 156.0 120.0 L 155.0 120.0 L 155.0 120.0 L 154.0 120.0 L 154.0 120.0 L 153.0 120.0 L 153.0 120.0 L 153.0 120.0 L 153.0 120.0 L 153.0 120.0 L 153.0 120.0 L 153.0 120.0 L 154.0 120.0 L 155.0 120.0 L 156.0 120.0 L 157.0 120.0 L 159.0 120.0 L 161.0 120.0 L 163.0 120.0 L 165.0 120.0 L 167.0 120.0 L 170.0 120.0 L 173.0 120.0 L 176.0 120.0 L 179.0 120.0 L 181.0 120.0 L 184.0 119.0 L 186.0 119.0 L 188.0 119.0 L 189.0 119.0 L 191.0 119.0 L 191.0 119.0 L 192.0 119.0 L 193.0 119.0 L 194.0 119.0 L 194.0 119.0 L 195.0 119.0 L 195.0 119.0 L 196.0 119.0 L 197.0 119.0 L 198.0 119.0 L 198.0 119.0 L 200.0 119.0 L 201.0 119.0 L 202.0 119.0 L 203.0 119.0 L 204.0 119.0 L 205.0 119.0 L 207.0 119.0 L 208.0 119.0 L 210.0 118.0 L 211.0 118.0 L 212.0 118.0 L 214.0 118.0 L 215.0 118.0 L 217.0 118.0 L 218.0 118.0 L 219.0 118.0 L 221.0 118.0 L 222.0 118.0 L 223.0 118.0 L 224.0 118.0 L 225.0 118.0 L 226.0 118.0 L 227.0 118.0 L 228.0 118.0 L 228.0 118.0 " stroke="black" fill="none" stroke-width="5.0" stroke-linecap="round" stroke-linejoin="round" />
<path d="M 192.0 73.0 L 192.0 73.0 L 192.0 73.0 L 192.0 73.0 L 191.0 74.0 L 191.0 75.0 L 191.0 76.0 L 191.0 77.0 L 191.0 78.0 L 191.0 80.0 L 191.0 82.0 L 192.0 85.0 L 192.0 88.0 L 192.0 93.0 L 192.0 97.0 L 192.0 102.0 L 193.0 107.0 L 193.0 111.0 L 193.0 115.0 L 193.0 120.0 L 193.0 123.0 L 193.0 127.0 L 193.0 131.0 L 193.0 135.0 L 193.0 139.0 L 193.0 143.0 L 193.0 147.0 L 193.0 150.0 L 193.0 153.0 L 193.0 156.0 L 193.0 158.0 L 193.0 160.0 L 193.0 162.0 L 193.0 165.0 L 193.0 167.0 L 193.0 170.0 L 193.0 172.0 L 193.0 175.0 L 193.0 177.0 L 193.0 180.0 L 193.0 183.0 L 192.0 185.0 L 192.0 188.0 L 192.0 191.0 L 192.0 193.0 L 191.0 195.0 L 191.0 197.0 L 191.0 199.0 L 191.0 201.0 L 191.0 203.0 L 191.0 205.0 L 191.0 206.0 L 191.0 208.0 L 191.0 210.0 L 191.0 212.0 L 191.0 214.0 L 191.0 216.0 L 191.0 219.0 L 191.0 222.0 L 191.0 225.0 L 191.0 228.0 L 191.0 231.0 L 191.0 234.0 L 191.0 237.0 L 191.0 239.0 L 191.0 241.0 L 191.0 243.0 L 191.0 245.0 L 191.0 247.0 L 191.0 248.0 L 191.0 250.0 L 191.0 251.0 L 191.0 253.0 L 191.0 255.0 L 191.0 256.0 L 191.0 257.0 L 191.0 257.0 " stroke="black" fill="none" stroke-width="5.0" stroke-linecap="round" stroke-linejoin="round" />
<path d="M 193.0 123.0 L 193.0 123.0 L 193.0 123.0 L 193.0 123.0 L 193.0 123.0 L 192.0 124.0 L 192.0 124.0 L 192.0 124.0 L 192.0 125.0 L 192.0 126.0 L 191.0 127.0 L 191.0 128.0 L 191.0 130.0 L 190.0 132.0 L 189.0 136.0 L 188.0 139.0 L 187.0 144.0 L 185.0 149.0 L 184.0 154.0 L 182.0 159.0 L 179.0 164.0 L 177.0 168.0 L 174.0 173.0 L 171.0 177.0 L 168.0 181.0 L 165.0 186.0 L 162.0 190.0 L 159.0 194.0 L 156.0 198.0 L 152.0 202.0 L 150.0 205.0 L 148.0 208.0 L 146.0 211.0 L 145.0 213.0 L 144.0 215.0 L 143.0 216.0 " stroke="black" fill="none" stroke-width="5.0" stroke-linecap="round" stroke-linejoin="round" />
<path d="M 196.0 129.0 L 196.0 129.0 L 196.0 129.0 L 196.0 129.0 L 196.0 129.0 L 196.0 129.0 L 196.0 129.0 L 196.0 130.0 L 196.0 130.0 L 197.0 131.0 L 197.0 133.0 L 198.0 135.0 L 199.0 137.0 L 201.0 141.0 L 202.0 144.0 L 205.0 148.0 L 208.0 153.0 L 210.0 157.0 L 213.0 162.0 L 216.0 167.0 L 218.0 172.0 L 221.0 176.0 L 224.0 181.0 L 226.0 185.0 L 228.0 189.0 L 230.0 193.0 L 231.0 195.0 L 233.0 198.0 L 234.0 200.0 L 236.0 202.0 L 237.0 204.0 L 238.0 205.0 L 239.0 206.0 L 240.0 206.0 L 241.0 207.0 L 242.0 207.0 L 242.0 207.0 L 242.0 207.0 " stroke="black" fill="none" stroke-width="5.0" stroke-linecap="round" stroke-linejoin="round" />
</svg>