<svg xmlns="http://www.w3.org/2000/svg" width="300" height="300" viewBox="0 0 300 300">
<path d="M 62.0 118.0 L 62.0 118.0 L 62.0 118.0 L 62.0 118.0 L 62.0 118.0 L 62.0 118.0 L 62.0 118.0 L 62.0 118.0 L 62.0 118.0 L 62.0 118.0 L 62.0 118.0 L 62.0 118.0 L 61.0 118.0 L 61.0 118.0 L 61.0 118.0 L 61.0 118.0 L 61.0 118.0 L 61.0 118.0 L 61.0 118.0 L 61.0 118.0 L 61.0 118.0 L 61.0 118.0 L 61.0 118.0 L 61.0 118.0 L 61.0 118.0 L 61.0 118.0 L 61.0 118.0 L 62.0 117.0 L 62.0 117.0 L 62.0 117.0 L 62.0 117.0 L 63.0 117.0 L 63.0 117.0 L 64.0 117.0 L 64.0 117.0 L 64.0 117.0 L 65.0 117.0 L 66.0 117.0 L 66.0 117.0 L 67.0 117.0 L 68.0 116.0 L 68.0 116.0 L 69.0 116.0 L 69.0 116.0 L 70.0 116.0 L 71.0 116.0 L 71.0 116.0 L 72.0 116.0 L 73.0 116.0 L 73.0 115.0 L 74.0 115.0 L 74.0 115.0 L 75.0 115.0 L 75.0 115.0 L 76.0 115.0 L 76.0 115.0 L 77.0 115.0 L 78.0 115.0 L 78.0 115.0 L 78.0 115.0 L 79.0 115.0 L 80.0 115.0 L 80.0 115.0 L 81.0 115.0 L 81.0 115.0 L 82.0 115.0 L 82.0 115.0 L 82.0 115.0 L 83.0 115.0 L 83.0 115.0 L 84.0 115.0 L 84.0 115.0 L 85.0 115.0 L 85.0 115.0 L 86.0 115.0 L 86.0 115.0 L 87.0 115.0 L 88.0 115.0 L 88.0 115.0 L 89.0 115.0 L 89.0 115.0 L 90.0 115.0 L 91.0 115.0 L 91.0 115.0 L 92.0 115.0 L 92.0 115.0 L 93.0 115.0 L 93.0 115.0 L 94.0 115.0 L 95.0 115.0 L 95.0 115.0 L 96.0 115.0 L 96.0 115.0 L 97.0 115.0 L 98.0 115.0 L 98.0 115.0 L 99.0 115.0 L 99.0 115.0 L 100.0 115.0 L 100.0 115.0 L 101.0 115.0 L 101.0 115.0 L 102.0 115.0 L 103.0 115.0 L 103.0 115.0 L 104.0 115.0 L 104.0 115.0 L 105.0 115.0 L 106.0 115.0 L 106.0 115.0 L 107.0 115.0 L 108.0 115.0 L 108.0 115.0 L 109.0 115.0 L 110.0 115.0 L 111.0 114.0 L 112.0 114.0 L 113.0 114.0 L 114.0 114.0 L 115.0 113.0 L 116.0 113.0 L 117.0 112.0 L 118.0 112.0 L 118.0 111.0 " stroke="black" fill="none" stroke-width="5.0" stroke-linecap="round" stroke-linejoin="round" />
<path d="M 93.0 77.0 L 93.0 77.0 L 93.0 78.0 L 93.0 78.0 L 93.0 79.0 L 93.0 79.0 L 93.0 80.0 L 93.0 80.0 L 93.0 81.0 L 93.0 82.0 L 93.0 83.0 L 93.0 84.0 L 93.0 85.0 L 93.0 86.0 L 93.0 88.0 L 93.0 90.0 L 93.0 93.0 L 92.0 96.0 L 92.0 98.0 L 92.0 101.0 L 92.0 104.0 L 92.0 107.0 L 92.0 109.0 L 92.0 112.0 L 92.0 114.0 L 92.0 116.0 L 92.0 118.0 L 92.0 120.0 L 92.0 121.0 L 92.0 122.0 L 92.0 123.0 L 92.0 124.0 L 92.0 125.0 L 92.0 126.0 L 92.0 127.0 L 92.0 127.0 L 92.0 128.0 L 92.0 129.0 L 92.0 130.0 L 92.0 131.0 L 92.0 132.0 L 92.0 133.0 L 92.0 134.0 L 92.0 135.0 L 92.0 136.0 L 92.0 137.0 L 92.0 139.0 L 92.0 140.0 L 92.0 141.0 L 92.0 142.0 L 92.0 144.0 L 92.0 145.0 L 92.0 146.0 L 92.0 147.0 L 92.0 148.0 L 92.0 150.0 L 92.0 151.0 L 92.0 152.0 L 92.0 153.0 L 92.0 154.0 L 92.0 155.0 L 92.0 156.0 L 92.0 157.0 L 92.0 158.0 L 92.0 159.0 L 91.0 160.0 L 91.0 161.0 L 91.0 162.0 L 91.0 163.0 L 91.0 164.0 L 91.0 165.0 L 90.0 166.0 L 90.0 167.0 L 90.0 168.0 L 90.0 169.0 L 90.0 170.0 L 90.0 171.0 L 90.0 173.0 L 90.0 174.0 L 90.0 175.0 L 90.0 176.0 L 90.0 177.0 L 90.0 179.0 L 90.0 180.0 L 90.0 181.0 L 90.0 182.0 L 90.0 184.0 L 90.0 185.0 L 90.0 186.0 L 90.0 187.0 L 90.0 188.0 L 90.0 189.0 L 90.0 191.0 L 90.0 192.0 L 89.0 193.0 L 89.0 194.0 L 89.0 195.0 L 89.0 196.0 L 89.0 198.0 L 89.0 199.0 L 89.0 200.0 L 88.0 201.0 L 88.0 203.0 L 88.0 204.0 L 88.0 205.0 L 88.0 207.0 L 88.0 208.0 L 88.0 210.0 L 88.0 211.0 L 88.0 212.0 L 89.0 214.0 L 89.0 215.0 L 89.0 216.0 L 89.0 218.0 L 89.0 219.0 L 89.0 220.0 L 89.0 222.0 L 89.0 224.0 L 89.0 225.0 L 89.0 227.0 L 89.0 229.0 L 89.0 231.0 L 89.0 232.0 L 89.0 234.0 L 89.0 235.0 L 89.0 236.0 L 89.0 237.0 L 89.0 239.0 L 89.0 240.0 L 89.0 241.0 L 89.0 243.0 L 89.0 244.0 L 89.0 245.0 L 89.0 246.0 L 89.0 246.0 L 89.0 247.0 L 89.0 247.0 L 89.0 247.0 L 89.0 247.0 " stroke="black" fill="none" stroke-width="5.0" stroke-linecap="round" stroke-linejoin="round" />
<path d="M 92.0 121.0 L 92.0 121.0 L 92.0 121.0 L 92.0 121.0 L 92.0 121.0 L 92.0 121.0 L 92.0 121.0 L 92.0 121.0 L 92.0 121.0 L 92.0 121.0 L 92.0 121.0 L 92.0 121.0 L 92.0 122.0 L 92.0 123.0 L 91.0 124.0 L 90.0 126.0 L 89.0 129.0 L 87.0 132.0 L 86.0 136.0 L 84.0 140.0 L 82.0 144.0 L 80.0 148.0 L 79.0 152.0 L 77.0 157.0 L 76.0 160.0 L 74.0 164.0 L 72.0 167.0 L 70.0 171.0 L 68.0 175.0 L 66.0 179.0 L 64.0 183.0 L 62.0 188.0 L 60.0 193.0 L 58.0 196.0 L 57.0 198.0 L 57.0 198.0 L 57.0 198.0 " stroke="black" fill="none" stroke-width="5.0" stroke-linecap="round" stroke-linejoin="round" />
<path d="M 94.0 133.0 L 94.0 133.0 L 94.0 133.0 L 94.0 133.0 L 94.0 133.0 L 94.0 133.0 L 94.0 134.0 L 94.0 134.0 L 94.0 135.0 L 95.0 136.0 L 96.0 138.0 L 98.0 141.0 L 101.0 144.0 L 103.0 147.0 L 106.0 150.0 L 109.0 154.0 L 111.0 156.0 L 114.0 157.0 L 116.0 159.0 L 118.0 159.0 L 119.0 160.0 L 120.0 160.0 " stroke="black" fill="none" stroke-width="5.0" stroke-linecap="round" stroke-linejoin="round" />
<path d="M 141.0 85.0 L 141.0 85.0 L 141.0 85.0 L 141.0 85.0 L 141.0 86.0 L 141.0 86.0 L 141.0 86.0 L 141.0 87.0 L 141.0 87.0 L 141.0 88.0 L 141.0 89.0 L 141.0 90.0 L 141.0 92.0 L 141.0 94.0 L 141.0 96.0 L 141.0 99.0 L 141.0 102.0 L 141.0 105.0 L 141.0 108.0 L 141.0 111.0 L 141.0 113.0 L 141.0 116.0 L 141.0 118.0 L 141.0 120.0 L 141.0 121.0 L 141.0 123.0 L 141.0 124.0 L 142.0 125.0 L 142.0 126.0 L 142.0 127.0 L 142.0 129.0 L 142.0 130.0 L 142.0 131.0 L 142.0 133.0 L 142.0 134.0 L 142.0 135.0 L 142.0 137.0 L 142.0 138.0 L 142.0 139.0 L 142.0 141.0 L 142.0 142.0 L 142.0 143.0 L 142.0 145.0 L 142.0 146.0 L 142.0 147.0 L 142.0 149.0 L 142.0 150.0 L 142.0 151.0 L 142.0 153.0 L 142.0 154.0 L 142.0 155.0 L 142.0 156.0 L 142.0 158.0 L 142.0 159.0 L 142.0 160.0 L 142.0 161.0 L 142.0 162.0 L 142.0 164.0 L 142.0 165.0 L 142.0 166.0 L 142.0 167.0 L 142.0 168.0 L 142.0 169.0 L 142.0 171.0 L 142.0 172.0 L 142.0 173.0 L 142.0 174.0 L 142.0 175.0 L 142.0 176.0 L 142.0 178.0 L 142.0 179.0 L 142.0 180.0 L 142.0 182.0 L 142.0 183.0 L 142.0 184.0 L 142.0 185.0 L 142.0 187.0 L 142.0 188.0 L 142.0 189.0 L 142.0 190.0 L 142.0 191.0 L 142.0 193.0 L 142.0 194.0 L 142.0 195.0 L 142.0 196.0 L 142.0 197.0 L 142.0 198.0 L 142.0 199.0 L 141.0 200.0 L 141.0 201.0 L 141.0 202.0 L 141.0 203.0 L 141.0 204.0 L 141.0 205.0 L 141.0 206.0 L 141.0 207.0 L 141.0 209.0 L 141.0 210.0 L 141.0 211.0 L 141.0 212.0 L 140.0 213.0 L 140.0 214.0 L 140.0 215.0 L 140.0 216.0 L 140.0 217.0 L 140.0 218.0 L 140.0 219.0 L 140.0 220.0 L 140.0 221.0 L 140.0 222.0 L 140.0 223.0 L 140.0 224.0 L 140.0 225.0 L 140.0 226.0 L 140.0 227.0 L 140.0 228.0 L 140.0 229.0 L 140.0 230.0 L 140.0 231.0 L 140.0 232.0 L 140.0 233.0 L 140.0 234.0 L 140.0 235.0 L 140.0 236.0 L 140.0 237.0 L 140.0 238.0 L 140.0 239.0 L 140.0 241.0 L 140.0 242.0 L 140.0 243.0 L 140.0 244.0 L 140.0 244.0 L 140.0 245.0 L 140.0 246.0 L 140.0 246.0 L 140.0 246.0 " stroke="black" fill="none" stroke-width="5.0" stroke-linecap="round" stroke-linejoin="round" />
<path d="M 146.0 81.0 L 146.0 81.0 L 146.0 81.0 L 146.0 81.0 L 146.0 81.0 L 146.0 81.0 L 146.0 81.0 L 146.0 81.0 L 146.0 81.0 L 146.0 81.0 L 146.0 81.0 L 145.0 81.0 L 145.0 81.0 L 145.0 81.0 L 145.0 81.0 L 145.0 81.0 L 145.0 81.0 L 145.0 81.0 L 145.0 81.0 L 145.0 81.0 L 145.0 81.0 L 146.0 81.0 L 146.0 81.0 L 146.0 81.0 L 147.0 81.0 L 147.0 81.0 L 147.0 81.0 L 148.0 81.0 L 148.0 81.0 L 149.0 81.0 L 149.0 81.0 L 149.0 81.0 L 150.0 81.0 L 150.0 81.0 L 151.0 81.0 L 152.0 81.0 L 152.0 81.0 L 153.0 81.0 L 153.0 81.0 L 154.0 82.0 L 155.0 82.0 L 155.0 82.0 L 156.0 82.0 L 156.0 82.0 L 157.0 82.0 L 157.0 82.0 L 158.0 82.0 L 158.0 82.0 L 159.0 82.0 L 159.0 82.0 L 160.0 82.0 L 160.0 82.0 L 161.0 82.0 L 161.0 82.0 L 162.0 82.0 L 162.0 83.0 L 163.0 83.0 L 164.0 83.0 L 164.0 83.0 L 165.0 83.0 L 165.0 83.0 L 166.0 83.0 L 166.0 83.0 L 167.0 83.0 L 168.0 83.0 L 168.0 83.0 L 169.0 83.0 L 169.0 83.0 L 170.0 83.0 L 170.0 83.0 L 171.0 83.0 L 171.0 83.0 L 172.0 83.0 L 172.0 83.0 L 173.0 83.0 L 173.0 83.0 L 174.0 83.0 L 174.0 83.0 L 175.0 83.0 L 175.0 83.0 L 176.0 83.0 L 176.0 83.0 L 177.0 83.0 L 177.0 83.0 L 178.0 83.0 L 178.0 83.0 L 179.0 83.0 L 179.0 83.0 L 180.0 83.0 L 180.0 83.0 L 180.0 83.0 L 181.0 83.0 L 181.0 83.0 L 182.0 83.0 L 182.0 83.0 L 183.0 83.0 L 183.0 83.0 L 183.0 83.0 L 184.0 83.0 L 184.0 83.0 L 184.0 83.0 L 185.0 83.0 L 185.0 83.0 L 186.0 83.0 L 186.0 83.0 L 187.0 83.0 L 187.0 83.0 L 188.0 83.0 L 188.0 82.0 L 189.0 82.0 L 189.0 82.0 L 189.0 82.0 L 190.0 82.0 L 190.0 82.0 L 190.0 82.0 L 191.0 82.0 L 191.0 82.0 L 191.0 82.0 L 192.0 82.0 L 192.0 82.0 L 192.0 82.0 L 193.0 82.0 L 193.0 82.0 L 193.0 82.0 L 193.0 82.0 L 193.0 82.0 L 194.0 82.0 L 194.0 82.0 L 194.0 82.0 L 194.0 82.0 L 194.0 82.0 L 195.0 82.0 L 195.0 82.0 L 195.0 82.0 L 195.0 82.0 L 195.0 82.0 L 196.0 82.0 L 196.0 82.0 L 196.0 82.0 L 196.0 82.0 L 196.0 82.0 L 197.0 82.0 L 197.0 82.0 L 197.0 82.0 L 197.0 82.0 L 197.0 82.0 L 198.0 82.0 L 198.0 82.0 L 198.0 82.0 L 198.0 82.0 L 198.0 82.0 L 198.0 82.0 L 199.0 82.0 L 199.0 82.0 L 199.0 82.0 L 199.0 82.0 L 200.0 82.0 L 200.0 82.0 L 200.0 82.0 L 200.0 82.0 L 200.0 82.0 L 201.0 82.0 L 201.0 82.0 L 201.0 82.0 L 201.0 82.0 L 202.0 82.0 L 202.0 82.0 L 202.0 82.0 L 202.0 82.0 L 202.0 82.0 L 203.0 82.0 L 203.0 82.0 L 203.0 82.0 L 203.0 82.0 L 204.0 82.0 L 204.0 82.0 L 204.0 82.0 L 204.0 82.0 L 205.0 82.0 L 205.0 82.0 L 205.0 82.0 L 205.0 82.0 L 206.0 82.0 L 206.0 82.0 L 207.0 82.0 L 207.0 82.0 L 207.0 82.0 L 208.0 82.0 L 208.0 82.0 L 209.0 82.0 L 209.0 82.0 L 209.0 82.0 L 210.0 82.0 L 210.0 82.0 L 211.0 82.0 L 211.0 82.0 L 212.0 82.0 L 212.0 82.0 L 212.0 82.0 L 213.0 82.0 L 213.0 82.0 L 214.0 82.0 L 214.0 82.0 L 215.0 82.0 L 216.0 82.0 L 216.0 82.0 L 217.0 82.0 L 217.0 82.0 L 218.0 82.0 L 219.0 82.0 L 219.0 82.0 L 220.0 82.0 L 221.0 82.0 L 221.0 82.0 L 222.0 82.0 L 222.0 82.0 L 223.0 82.0 L 223.0 82.0 L 224.0 82.0 L 224.0 82.0 L 225.0 82.0 L 225.0 82.0 L 226.0 82.0 L 226.0 82.0 L 227.0 82.0 L 227.0 82.0 L 227.0 82.0 L 228.0 82.0 L 228.0 82.0 L 229.0 82.0 L 229.0 82.0 L 229.0 82.0 L 229.0 82.0 L 230.0 82.0 L 230.0 82.0 L 230.0 82.0 L 231.0 82.0 L 231.0 83.0 L 231.0 83.0 L 232.0 83.0 L 232.0 83.0 L 232.0 83.0 L 233.0 83.0 L 233.0 83.0 L 233.0 83.0 L 233.0 83.0 L 233.0 84.0 L 233.0 84.0 L 234.0 84.0 L 234.0 84.0 L 234.0 84.0 L 234.0 84.0 L 234.0 85.0 L 234.0 85.0 L 234.0 85.0 L 234.0 86.0 L 234.0 86.0 L 234.0 87.0 L 234.0 87.0 L 234.0 88.0 L 233.0 88.0 L 233.0 89.0 L 233.0 90.0 L 233.0 91.0 L 233.0 92.0 L 233.0 93.0 L 233.0 94.0 L 232.0 95.0 L 232.0 96.0 L 232.0 97.0 L 232.0 98.0 L 232.0 99.0 L 232.0 100.0 L 232.0 101.0 L 232.0 102.0 L 232.0 103.0 L 232.0 103.0 L 232.0 104.0 L 232.0 105.0 L 232.0 106.0 L 232.0 107.0 L 232.0 107.0 L 232.0 108.0 L 232.0 109.0 L 232.0 110.0 L 232.0 110.0 L 232.0 111.0 L 232.0 112.0 L 232.0 112.0 L 232.0 113.0 L 232.0 114.0 L 232.0 115.0 L 232.0 116.0 L 232.0 116.0 L 232.0 117.0 L 232.0 118.0 L 232.0 119.0 L 232.0 120.0 L 232.0 121.0 L 232.0 121.0 L 232.0 122.0 L 232.0 123.0 L 232.0 124.0 L 232.0 125.0 L 232.0 126.0 L 232.0 127.0 L 232.0 128.0 L 232.0 129.0 L 231.0 130.0 L 231.0 132.0 L 231.0 133.0 L 231.0 134.0 L 231.0 135.0 L 231.0 136.0 L 231.0 137.0 L 231.0 138.0 L 231.0 139.0 L 231.0 140.0 L 231.0 142.0 L 231.0 143.0 L 231.0 144.0 L 231.0 145.0 L 231.0 147.0 L 231.0 148.0 L 231.0 150.0 L 231.0 151.0 L 231.0 153.0 L 231.0 154.0 L 231.0 155.0 L 231.0 157.0 L 231.0 158.0 L 231.0 159.0 L 231.0 160.0 L 231.0 161.0 L 231.0 162.0 L 231.0 163.0 L 231.0 164.0 L 231.0 165.0 L 231.0 166.0 L 231.0 167.0 L 231.0 168.0 L 231.0 169.0 L 231.0 170.0 L 231.0 171.0 L 231.0 172.0 L 231.0 173.0 L 231.0 175.0 L 231.0 176.0 L 231.0 177.0 L 231.0 178.0 L 231.0 180.0 L 231.0 181.0 L 231.0 183.0 L 231.0 184.0 L 231.0 186.0 L 231.0 188.0 L 231.0 189.0 L 231.0 191.0 L 231.0 193.0 L 231.0 194.0 L 230.0 195.0 L 230.0 197.0 L 230.0 198.0 L 230.0 199.0 L 230.0 201.0 L 230.0 202.0 L 230.0 203.0 L 230.0 205.0 L 230.0 206.0 L 229.0 207.0 L 229.0 208.0 L 229.0 209.0 L 229.0 211.0 L 229.0 212.0 L 229.0 213.0 L 229.0 214.0 L 229.0 215.0 L 229.0 216.0 L 229.0 217.0 L 229.0 218.0 L 229.0 219.0 L 229.0 220.0 L 229.0 222.0 L 229.0 223.0 L 229.0 225.0 L 229.0 226.0 L 229.0 227.0 L 229.0 229.0 L 229.0 230.0 L 229.0 231.0 L 229.0 232.0 L 229.0 234.0 L 229.0 235.0 L 229.0 236.0 L 229.0 237.0 L 228.0 238.0 L 228.0 239.0 L 228.0 241.0 L 228.0 241.0 L 228.0 242.0 L 228.0 243.0 L 228.0 244.0 L 228.0 244.0 L 228.0 245.0 L 228.0 245.0 L 227.0 245.0 L 227.0 246.0 L 227.0 246.0 L 227.0 247.0 L 227.0 247.0 L 227.0 247.0 L 227.0 247.0 L 227.0 248.0 L 227.0 248.0 L 227.0 248.0 L 227.0 248.0 L 226.0 248.0 L 226.0 248.0 L 226.0 248.0 L 226.0 249.0 L 226.0 249.0 L 226.0 249.0 L 226.0 249.0 L 226.0 250.0 L 226.0 250.0 L 226.0 250.0 L 226.0 250.0 L 226.0 251.0 L 226.0 251.0 L 226.0 251.0 L 225.0 252.0 L 225.0 252.0 L 225.0 252.0 L 225.0 252.0 L 225.0 253.0 L 225.0 253.0 L 225.0 253.0 L 225.0 253.0 L 225.0 254.0 L 225.0 254.0 L 225.0 254.0 L 225.0 254.0 L 225.0 254.0 L 224.0 254.0 L 224.0 254.0 L 224.0 254.0 L 223.0 254.0 L 223.0 253.0 L 222.0 252.0 L 221.0 251.0 L 219.0 250.0 L 218.0 249.0 L 216.0 248.0 L 214.0 247.0 L 211.0 246.0 L 209.0 244.0 L 206.0 243.0 L 204.0 240.0 L 202.0 237.0 L 200.0 232.0 " stroke="black" fill="none" stroke-width="5.0" stroke-linecap="round" stroke-linejoin="round" />
<path d="M 159.0 118.0 L 159.0 118.0 L 159.0 118.0 L 160.0 118.0 L 160.0 118.0 L 160.0 118.0 L 160.0 118.0 L 160.0 118.0 L 160.0 118.0 L 160.0 118.0 L 160.0 118.0 L 161.0 118.0 L 162.0 118.0 L 164.0 118.0 L 167.0 118.0 L 171.0 118.0 L 176.0 118.0 L 181.0 118.0 L 186.0 118.0 L 191.0 118.0 L 196.0 118.0 L 199.0 118.0 L 203.0 118.0 L 206.0 118.0 L 208.0 118.0 L 210.0 117.0 L 212.0 117.0 " stroke="black" fill="none" stroke-width="5.0" stroke-linecap="round" stroke-linejoin="round" />
<path d="M 164.0 150.0 L 164.0 150.0 L 164.0 150.0 L 164.0 150.0 L 164.0 150.0 L 164.0 150.0 L 164.0 151.0 L 164.0 152.0 L 164.0 153.0 L 165.0 154.0 L 165.0 157.0 L 165.0 160.0 L 165.0 164.0 L 165.0 169.0 L 165.0 175.0 L 165.0 182.0 L 165.0 189.0 L 165.0 195.0 L 165.0 199.0 L 165.0 202.0 L 165.0 204.0 L 165.0 205.0 L 165.0 205.0 L 165.0 204.0 L 164.0 204.0 " stroke="black" fill="none" stroke-width="5.0" stroke-linecap="round" stroke-linejoin="round" />
<path d="M 168.0 150.0 L 167.0 150.0 L 165.0 150.0 L 164.0 150.0 L 164.0 150.0 L 163.0 150.0 L 162.0 150.0 L 162.0 150.0 L 162.0 150.0 L 162.0 150.0 L 162.0 150.0 L 163.0 150.0 L 164.0 150.0 L 164.0 150.0 L 165.0 150.0 L 166.0 150.0 L 168.0 150.0 L 169.0 150.0 L 171.0 149.0 L 172.0 149.0 L 174.0 149.0 L 177.0 149.0 L 179.0 148.0 L 181.0 148.0 L 183.0 148.0 L 185.0 148.0 L 187.0 148.0 L 189.0 148.0 L 191.0 148.0 L 193.0 148.0 L 194.0 148.0 L 195.0 148.0 L 196.0 148.0 L 197.0 148.0 L 198.0 148.0 L 199.0 147.0 L 200.0 147.0 L 200.0 147.0 L 201.0 147.0 L 201.0 147.0 L 202.0 147.0 L 202.0 147.0 L 203.0 147.0 L 204.0 147.0 L 205.0 147.0 L 205.0 147.0 L 206.0 147.0 L 207.0 147.0 L 207.0 147.0 L 208.0 147.0 L 208.0 147.0 L 208.0 147.0 L 208.0 148.0 L 209.0 148.0 L 209.0 148.0 L 209.0 148.0 L 209.0 149.0 L 209.0 150.0 L 209.0 150.0 L 209.0 151.0 L 209.0 152.0 L 209.0 154.0 L 209.0 155.0 L 209.0 157.0 L 208.0 160.0 L 208.0 163.0 L 208.0 166.0 L 208.0 170.0 L 208.0 173.0 L 208.0 177.0 L 207.0 180.0 L 207.0 184.0 L 207.0 186.0 L 207.0 189.0 L 207.0 191.0 L 207.0 192.0 L 207.0 193.0 L 207.0 194.0 L 206.0 195.0 L 206.0 195.0 L 206.0 196.0 L 206.0 197.0 L 205.0 198.0 L 205.0 199.0 L 205.0 200.0 L 205.0 200.0 L 205.0 201.0 L 205.0 202.0 L 205.0 202.0 L 205.0 202.0 " stroke="black" fill="none" stroke-width="5.0" stroke-linecap="round" stroke-linejoin="round" />
<path d="M 163.0 204.0 L 163.0 204.0 L 163.0 204.0 L 163.0 204.0 L 162.0 205.0 L 162.0 205.0 L 162.0 205.0 L 161.0 205.0 L 161.0 205.0 L 161.0 206.0 L 161.0 206.0 L 162.0 206.0 L 164.0 206.0 L 166.0 206.0 L 169.0 207.0 L 172.0 207.0 L 177.0 207.0 L 182.0 207.0 L 187.0 207.0 L 192.0 206.0 L 196.0 205.0 L 199.0 204.0 L 201.0 203.0 L 202.0 202.0 L 203.0 202.0 L 203.0 201.0 " stroke="black" fill="none" stroke-width="5.0" stroke-linecap="round" stroke-linejoin="round" />
</svg>