<svg xmlns="http://www.w3.org/2000/svg" width="300" height="300" viewBox="0 0 300 300">
<path d="M 80.0 82.0 L 79.0 82.0 L 78.0 82.0 L 78.0 82.0 L 77.0 82.0 L 77.0 81.0 L 76.0 81.0 L 76.0 81.0 L 76.0 81.0 L 76.0 81.0 L 76.0 81.0 L 77.0 81.0 L 78.0 81.0 L 80.0 81.0 L 82.0 81.0 L 84.0 81.0 L 87.0 81.0 L 89.0 81.0 L 92.0 81.0 L 94.0 81.0 L 98.0 81.0 L 100.0 81.0 L 103.0 81.0 L 105.0 81.0 L 108.0 81.0 L 110.0 81.0 L 112.0 81.0 L 115.0 81.0 L 118.0 81.0 L 121.0 81.0 L 124.0 81.0 L 128.0 81.0 L 132.0 81.0 L 135.0 81.0 L 139.0 80.0 L 143.0 80.0 L 146.0 80.0 L 149.0 79.0 L 152.0 78.0 L 155.0 78.0 L 158.0 77.0 L 162.0 77.0 L 165.0 76.0 L 169.0 76.0 L 174.0 75.0 L 178.0 75.0 L 182.0 74.0 L 186.0 74.0 L 189.0 73.0 L 192.0 73.0 L 194.0 73.0 L 196.0 72.0 L 198.0 72.0 L 200.0 71.0 L 202.0 71.0 L 203.0 71.0 L 204.0 71.0 " stroke="black" fill="none" stroke-width="5.0" stroke-linecap="round" stroke-linejoin="round" />
<path d="M 100.0 91.0 L 100.0 91.0 L 100.0 91.0 L 100.0 91.0 L 100.0 91.0 L 101.0 92.0 L 101.0 93.0 L 102.0 95.0 L 104.0 98.0 L 106.0 101.0 L 108.0 105.0 L 110.0 108.0 L 113.0 111.0 L 115.0 113.0 " stroke="black" fill="none" stroke-width="5.0" stroke-linecap="round" stroke-linejoin="round" />
<path d="M 137.0 90.0 L 137.0 90.0 L 137.0 89.0 L 137.0 88.0 L 137.0 88.0 L 137.0 88.0 L 138.0 88.0 L 140.0 89.0 L 141.0 90.0 L 143.0 92.0 L 145.0 94.0 L 147.0 97.0 L 149.0 100.0 L 151.0 103.0 " stroke="black" fill="none" stroke-width="5.0" stroke-linecap="round" stroke-linejoin="round" />
<path d="M 204.0 91.0 L 203.0 91.0 L 202.0 91.0 L 201.0 92.0 L 200.0 93.0 L 200.0 94.0 L 199.0 96.0 L 198.0 99.0 L 197.0 101.0 L 196.0 105.0 L 194.0 109.0 L 193.0 111.0 " stroke="black" fill="none" stroke-width="5.0" stroke-linecap="round" stroke-linejoin="round" />
<path d="M 69.0 122.0 L 69.0 122.0 L 69.0 122.0 L 69.0 121.0 L 69.0 121.0 L 69.0 121.0 L 69.0 122.0 L 69.0 124.0 L 69.0 127.0 L 69.0 131.0 L 69.0 136.0 L 69.0 141.0 L 69.0 144.0 L 69.0 148.0 L 69.0 150.0 " stroke="black" fill="none" stroke-width="5.0" stroke-linecap="round" stroke-linejoin="round" />
<path d="M 73.0 122.0 L 73.0 122.0 L 73.0 122.0 L 72.0 122.0 L 72.0 121.0 L 72.0 121.0 L 72.0 121.0 L 72.0 120.0 L 72.0 120.0 L 72.0 120.0 L 72.0 120.0 L 73.0 120.0 L 74.0 120.0 L 76.0 120.0 L 77.0 120.0 L 79.0 120.0 L 81.0 120.0 L 83.0 120.0 L 85.0 120.0 L 88.0 120.0 L 90.0 120.0 L 93.0 119.0 L 95.0 119.0 L 97.0 119.0 L 99.0 119.0 L 101.0 118.0 L 103.0 118.0 L 105.0 118.0 L 106.0 118.0 L 108.0 117.0 L 109.0 117.0 L 111.0 117.0 L 112.0 117.0 L 113.0 116.0 L 115.0 116.0 L 116.0 116.0 L 118.0 116.0 L 119.0 116.0 L 121.0 116.0 L 123.0 115.0 L 125.0 115.0 L 127.0 115.0 L 129.0 115.0 L 131.0 115.0 L 133.0 115.0 L 135.0 115.0 L 136.0 115.0 L 138.0 115.0 L 140.0 115.0 L 141.0 115.0 L 143.0 115.0 L 144.0 116.0 L 145.0 116.0 L 146.0 116.0 L 147.0 116.0 L 148.0 116.0 L 149.0 117.0 L 150.0 117.0 L 151.0 117.0 L 152.0 117.0 L 153.0 117.0 L 154.0 117.0 L 155.0 117.0 L 156.0 117.0 L 157.0 117.0 L 157.0 117.0 L 158.0 117.0 L 160.0 117.0 L 161.0 117.0 L 162.0 117.0 L 164.0 117.0 L 166.0 117.0 L 168.0 117.0 L 170.0 117.0 L 172.0 117.0 L 175.0 117.0 L 177.0 117.0 L 179.0 117.0 L 182.0 118.0 L 184.0 118.0 L 186.0 118.0 L 188.0 118.0 L 190.0 118.0 L 192.0 118.0 L 193.0 118.0 L 195.0 118.0 L 196.0 118.0 L 198.0 118.0 L 200.0 118.0 L 201.0 118.0 L 203.0 118.0 L 204.0 118.0 L 206.0 118.0 L 208.0 118.0 L 210.0 118.0 L 211.0 118.0 L 213.0 118.0 L 215.0 118.0 L 217.0 118.0 L 219.0 118.0 L 220.0 118.0 L 222.0 119.0 L 224.0 119.0 L 225.0 119.0 L 226.0 119.0 L 228.0 119.0 L 229.0 119.0 L 230.0 119.0 L 231.0 119.0 L 231.0 119.0 L 232.0 119.0 L 232.0 119.0 L 233.0 119.0 L 233.0 120.0 L 233.0 120.0 L 233.0 120.0 L 233.0 120.0 L 233.0 121.0 L 234.0 121.0 L 234.0 122.0 L 234.0 122.0 L 234.0 123.0 L 234.0 124.0 L 234.0 126.0 L 234.0 128.0 L 234.0 130.0 L 233.0 133.0 L 233.0 137.0 L 232.0 140.0 L 231.0 144.0 L 231.0 147.0 " stroke="black" fill="none" stroke-width="5.0" stroke-linecap="round" stroke-linejoin="round" />
<path d="M 103.0 139.0 L 103.0 139.0 L 103.0 139.0 L 103.0 139.0 L 102.0 139.0 L 102.0 140.0 L 102.0 141.0 L 102.0 142.0 L 102.0 145.0 L 101.0 148.0 L 99.0 152.0 L 97.0 157.0 L 94.0 161.0 L 91.0 166.0 L 88.0 170.0 L 85.0 173.0 L 83.0 176.0 L 82.0 177.0 L 82.0 177.0 " stroke="black" fill="none" stroke-width="5.0" stroke-linecap="round" stroke-linejoin="round" />
<path d="M 113.0 146.0 L 113.0 146.0 L 112.0 146.0 L 112.0 146.0 L 112.0 146.0 L 112.0 146.0 L 112.0 146.0 L 112.0 146.0 L 112.0 146.0 L 112.0 147.0 L 112.0 148.0 L 112.0 148.0 L 112.0 149.0 L 113.0 150.0 L 113.0 152.0 L 114.0 153.0 L 114.0 154.0 L 114.0 155.0 L 115.0 156.0 L 115.0 158.0 L 116.0 159.0 L 116.0 161.0 L 117.0 162.0 L 117.0 163.0 L 117.0 165.0 L 117.0 166.0 L 117.0 167.0 L 117.0 168.0 L 117.0 169.0 L 118.0 170.0 L 118.0 170.0 L 119.0 171.0 L 119.0 171.0 L 121.0 171.0 L 122.0 171.0 L 123.0 171.0 L 125.0 171.0 L 127.0 171.0 L 129.0 171.0 L 131.0 171.0 L 133.0 171.0 L 135.0 171.0 L 138.0 171.0 L 141.0 172.0 L 144.0 172.0 L 147.0 172.0 L 150.0 173.0 L 153.0 173.0 L 156.0 173.0 L 159.0 174.0 L 163.0 174.0 L 167.0 174.0 L 170.0 174.0 L 174.0 174.0 L 177.0 174.0 L 179.0 173.0 L 181.0 173.0 L 182.0 172.0 L 182.0 171.0 L 182.0 170.0 L 182.0 168.0 L 181.0 167.0 L 180.0 165.0 L 179.0 164.0 L 177.0 162.0 L 176.0 160.0 L 174.0 158.0 L 173.0 157.0 " stroke="black" fill="none" stroke-width="5.0" stroke-linecap="round" stroke-linejoin="round" />
<path d="M 140.0 134.0 L 140.0 134.0 L 138.0 134.0 L 137.0 134.0 L 137.0 133.0 L 137.0 133.0 L 138.0 133.0 L 140.0 134.0 L 142.0 136.0 L 144.0 138.0 L 147.0 139.0 L 150.0 141.0 L 153.0 143.0 L 156.0 145.0 L 161.0 147.0 L 166.0 149.0 L 169.0 150.0 " stroke="black" fill="none" stroke-width="5.0" stroke-linecap="round" stroke-linejoin="round" />
<path d="M 199.0 143.0 L 199.0 143.0 L 199.0 143.0 L 199.0 143.0 L 199.0 143.0 L 199.0 143.0 L 199.0 144.0 L 199.0 145.0 L 200.0 146.0 L 203.0 149.0 L 206.0 151.0 L 209.0 154.0 L 214.0 156.0 L 218.0 158.0 L 222.0 160.0 " stroke="black" fill="none" stroke-width="5.0" stroke-linecap="round" stroke-linejoin="round" />
<path d="M 127.0 173.0 L 128.0 173.0 L 129.0 173.0 L 130.0 173.0 L 131.0 173.0 L 132.0 173.0 L 132.0 173.0 L 132.0 173.0 L 133.0 173.0 L 133.0 173.0 L 133.0 173.0 L 132.0 174.0 L 130.0 176.0 L 127.0 179.0 L 124.0 182.0 L 120.0 186.0 L 115.0 191.0 L 111.0 196.0 L 106.0 200.0 L 101.0 205.0 L 95.0 209.0 L 90.0 211.0 L 86.0 213.0 L 83.0 214.0 " stroke="black" fill="none" stroke-width="5.0" stroke-linecap="round" stroke-linejoin="round" />
<path d="M 117.0 196.0 L 117.0 196.0 L 116.0 196.0 L 115.0 196.0 L 115.0 196.0 L 115.0 196.0 L 114.0 196.0 L 114.0 196.0 L 114.0 196.0 L 114.0 196.0 L 115.0 196.0 L 116.0 196.0 L 117.0 196.0 L 119.0 196.0 L 122.0 196.0 L 125.0 196.0 L 128.0 196.0 L 131.0 196.0 L 134.0 196.0 L 137.0 196.0 L 141.0 196.0 L 144.0 196.0 L 146.0 196.0 L 149.0 196.0 L 151.0 196.0 L 153.0 196.0 L 155.0 196.0 L 157.0 197.0 L 159.0 197.0 L 162.0 197.0 L 164.0 197.0 L 167.0 197.0 L 169.0 197.0 L 172.0 197.0 L 175.0 197.0 L 178.0 197.0 L 180.0 197.0 L 182.0 197.0 L 184.0 198.0 L 186.0 198.0 L 187.0 198.0 L 188.0 198.0 L 189.0 198.0 L 190.0 198.0 L 192.0 199.0 L 192.0 199.0 L 193.0 199.0 L 194.0 199.0 L 195.0 199.0 L 195.0 199.0 L 196.0 199.0 L 196.0 199.0 L 197.0 199.0 L 197.0 199.0 L 198.0 199.0 L 198.0 199.0 L 198.0 199.0 L 199.0 199.0 L 199.0 199.0 L 200.0 199.0 L 200.0 199.0 L 201.0 199.0 L 201.0 199.0 L 201.0 199.0 L 202.0 199.0 L 202.0 199.0 L 202.0 199.0 L 202.0 199.0 L 202.0 200.0 L 202.0 200.0 L 202.0 200.0 L 202.0 201.0 L 202.0 201.0 L 202.0 202.0 L 201.0 203.0 L 199.0 204.0 L 198.0 206.0 L 196.0 207.0 L 194.0 209.0 L 192.0 211.0 L 189.0 214.0 L 186.0 216.0 L 182.0 219.0 L 177.0 222.0 L 172.0 225.0 L 166.0 228.0 L 160.0 230.0 L 155.0 232.0 L 150.0 234.0 L 146.0 236.0 L 142.0 238.0 L 138.0 239.0 L 134.0 241.0 L 129.0 242.0 L 124.0 244.0 L 119.0 245.0 L 116.0 245.0 L 112.0 246.0 L 108.0 246.0 L 106.0 247.0 L 103.0 247.0 L 100.0 247.0 L 97.0 247.0 L 96.0 247.0 " stroke="black" fill="none" stroke-width="5.0" stroke-linecap="round" stroke-linejoin="round" />
<path d="M 89.0 190.0 L 89.0 190.0 L 88.0 190.0 L 88.0 190.0 L 88.0 190.0 L 87.0 190.0 L 87.0 190.0 L 87.0 189.0 L 87.0 189.0 L 87.0 189.0 L 87.0 189.0 L 87.0 189.0 L 88.0 190.0 L 89.0 190.0 L 91.0 191.0 L 92.0 192.0 L 94.0 193.0 L 96.0 195.0 L 98.0 196.0 L 99.0 197.0 L 101.0 198.0 L 103.0 200.0 L 105.0 201.0 L 107.0 202.0 L 108.0 203.0 L 110.0 204.0 L 111.0 205.0 L 113.0 206.0 L 115.0 207.0 L 116.0 208.0 L 118.0 209.0 L 119.0 210.0 L 121.0 211.0 L 122.0 211.0 L 124.0 212.0 L 125.0 213.0 L 127.0 214.0 L 129.0 215.0 L 131.0 216.0 L 133.0 216.0 L 134.0 217.0 L 136.0 218.0 L 138.0 219.0 L 140.0 220.0 L 141.0 220.0 L 143.0 221.0 L 144.0 221.0 L 145.0 222.0 L 147.0 222.0 L 148.0 223.0 L 149.0 223.0 L 150.0 224.0 L 151.0 224.0 L 152.0 225.0 L 153.0 225.0 L 154.0 226.0 L 155.0 226.0 L 156.0 227.0 L 157.0 227.0 L 158.0 228.0 L 158.0 229.0 L 160.0 229.0 L 161.0 230.0 L 162.0 230.0 L 163.0 231.0 L 165.0 232.0 L 166.0 233.0 L 168.0 234.0 L 170.0 235.0 L 172.0 236.0 L 174.0 236.0 L 177.0 237.0 L 179.0 238.0 L 182.0 239.0 L 185.0 240.0 L 187.0 241.0 L 190.0 241.0 L 192.0 242.0 L 194.0 243.0 L 196.0 244.0 L 199.0 245.0 L 201.0 245.0 L 203.0 246.0 L 206.0 247.0 L 209.0 247.0 L 213.0 248.0 L 217.0 248.0 L 221.0 249.0 L 225.0 249.0 L 228.0 250.0 L 231.0 251.0 L 233.0 251.0 L 235.0 252.0 L 237.0 252.0 L 238.0 253.0 L 239.0 253.0 L 239.0 254.0 L 240.0 254.0 L 241.0 254.0 L 241.0 254.0 " stroke="black" fill="none" stroke-width="5.0" stroke-linecap="round" stroke-linejoin="round" />
</svg>