<svg xmlns="http://www.w3.org/2000/svg" width="300" height="300" viewBox="0 0 300 300">
<path d="M 146.0 75.0 L 146.0 74.0 L 146.0 74.0 L 145.0 73.0 L 145.0 73.0 L 145.0 72.0 L 145.0 72.0 L 145.0 72.0 L 145.0 72.0 L 145.0 72.0 L 146.0 73.0 L 147.0 75.0 L 148.0 77.0 L 149.0 80.0 L 151.0 82.0 L 152.0 85.0 L 154.0 88.0 L 156.0 91.0 L 158.0 94.0 " stroke="black" fill="none" stroke-width="5.0" stroke-linecap="round" stroke-linejoin="round" />
<path d="M 75.0 114.0 L 75.0 114.0 L 75.0 114.0 L 75.0 114.0 L 75.0 114.0 L 75.0 114.0 L 75.0 114.0 L 75.0 114.0 L 75.0 114.0 L 75.0 114.0 L 75.0 114.0 L 75.0 113.0 L 76.0 113.0 L 76.0 113.0 L 77.0 113.0 L 78.0 113.0 L 79.0 113.0 L 81.0 113.0 L 82.0 113.0 L 84.0 113.0 L 86.0 113.0 L 88.0 113.0 L 90.0 113.0 L 92.0 113.0 L 94.0 113.0 L 95.0 113.0 L 97.0 113.0 L 98.0 113.0 L 99.0 113.0 L 100.0 113.0 L 101.0 113.0 L 103.0 113.0 L 103.0 113.0 L 104.0 113.0 L 105.0 113.0 L 106.0 113.0 L 107.0 113.0 L 108.0 113.0 L 108.0 113.0 L 109.0 113.0 L 110.0 113.0 L 111.0 113.0 L 112.0 113.0 L 113.0 113.0 L 114.0 113.0 L 114.0 113.0 L 116.0 113.0 L 117.0 113.0 L 118.0 113.0 L 119.0 113.0 L 121.0 113.0 L 122.0 113.0 L 123.0 113.0 L 125.0 113.0 L 126.0 113.0 L 128.0 113.0 L 129.0 113.0 L 131.0 113.0 L 133.0 113.0 L 134.0 113.0 L 136.0 113.0 L 138.0 113.0 L 140.0 113.0 L 141.0 113.0 L 143.0 113.0 L 144.0 113.0 L 146.0 113.0 L 147.0 113.0 L 149.0 113.0 L 150.0 113.0 L 151.0 113.0 L 152.0 113.0 L 153.0 113.0 L 154.0 113.0 L 155.0 113.0 L 156.0 113.0 L 157.0 113.0 L 158.0 113.0 L 159.0 113.0 L 160.0 113.0 L 161.0 113.0 L 162.0 113.0 L 163.0 113.0 L 164.0 113.0 L 166.0 113.0 L 167.0 113.0 L 168.0 113.0 L 169.0 113.0 L 170.0 113.0 L 171.0 113.0 L 172.0 113.0 L 173.0 113.0 L 174.0 113.0 L 175.0 113.0 L 177.0 113.0 L 178.0 113.0 L 179.0 113.0 L 180.0 113.0 L 181.0 114.0 L 182.0 114.0 L 183.0 114.0 L 184.0 114.0 L 184.0 114.0 L 185.0 114.0 L 186.0 114.0 L 187.0 114.0 L 188.0 114.0 L 189.0 114.0 L 190.0 114.0 L 192.0 114.0 L 193.0 114.0 L 194.0 114.0 L 195.0 114.0 L 196.0 114.0 L 197.0 114.0 L 198.0 114.0 L 199.0 114.0 L 200.0 114.0 L 201.0 114.0 L 202.0 114.0 L 203.0 114.0 L 204.0 114.0 L 205.0 114.0 L 206.0 114.0 L 207.0 114.0 L 209.0 114.0 L 210.0 114.0 L 211.0 114.0 L 212.0 114.0 L 212.0 114.0 L 213.0 114.0 L 214.0 114.0 L 214.0 114.0 L 214.0 114.0 L 214.0 114.0 L 215.0 114.0 L 215.0 114.0 L 215.0 114.0 L 215.0 115.0 L 215.0 115.0 L 215.0 115.0 L 214.0 115.0 L 214.0 116.0 L 214.0 116.0 L 213.0 117.0 L 212.0 118.0 L 212.0 118.0 L 211.0 119.0 L 210.0 120.0 L 210.0 121.0 L 209.0 122.0 L 208.0 123.0 L 207.0 123.0 L 206.0 125.0 L 205.0 126.0 L 204.0 127.0 L 203.0 128.0 L 202.0 129.0 L 201.0 131.0 L 200.0 132.0 L 199.0 134.0 L 198.0 135.0 L 197.0 136.0 L 196.0 137.0 L 195.0 138.0 L 194.0 140.0 L 193.0 141.0 L 192.0 142.0 L 192.0 143.0 L 191.0 145.0 L 190.0 146.0 L 189.0 147.0 L 188.0 149.0 L 187.0 150.0 L 186.0 151.0 L 184.0 152.0 L 183.0 154.0 L 182.0 155.0 L 181.0 156.0 L 180.0 157.0 L 179.0 158.0 L 177.0 159.0 L 176.0 160.0 L 175.0 161.0 L 174.0 162.0 L 173.0 162.0 L 172.0 163.0 L 170.0 164.0 L 169.0 165.0 L 168.0 166.0 L 167.0 167.0 L 166.0 168.0 L 165.0 169.0 L 164.0 170.0 L 163.0 171.0 L 162.0 172.0 L 161.0 172.0 L 160.0 173.0 L 160.0 174.0 L 158.0 175.0 L 158.0 176.0 L 157.0 177.0 L 156.0 178.0 L 155.0 179.0 L 154.0 180.0 L 153.0 181.0 L 152.0 182.0 L 151.0 183.0 L 151.0 184.0 L 150.0 185.0 L 149.0 186.0 L 148.0 187.0 L 148.0 188.0 L 147.0 188.0 L 146.0 189.0 L 146.0 190.0 L 145.0 190.0 L 144.0 191.0 L 143.0 192.0 L 143.0 192.0 L 142.0 193.0 L 141.0 193.0 L 140.0 194.0 L 139.0 195.0 L 138.0 196.0 L 137.0 196.0 L 135.0 197.0 L 134.0 198.0 L 133.0 199.0 L 132.0 199.0 L 131.0 200.0 L 130.0 201.0 L 129.0 202.0 L 128.0 202.0 L 127.0 203.0 L 126.0 204.0 L 126.0 204.0 L 125.0 205.0 L 124.0 205.0 L 124.0 206.0 L 123.0 206.0 L 122.0 207.0 L 122.0 207.0 L 121.0 208.0 L 120.0 208.0 L 120.0 208.0 L 119.0 209.0 L 118.0 209.0 L 118.0 209.0 L 117.0 210.0 L 116.0 210.0 L 116.0 210.0 L 115.0 211.0 L 114.0 211.0 L 114.0 212.0 L 113.0 212.0 L 112.0 212.0 L 112.0 213.0 L 111.0 213.0 L 111.0 213.0 L 110.0 213.0 L 110.0 214.0 L 110.0 214.0 " stroke="black" fill="none" stroke-width="5.0" stroke-linecap="round" stroke-linejoin="round" />
<path d="M 66.0 244.0 L 66.0 244.0 L 66.0 244.0 L 66.0 244.0 L 66.0 244.0 L 66.0 244.0 L 66.0 244.0 L 66.0 244.0 L 66.0 244.0 L 66.0 244.0 L 66.0 244.0 L 66.0 244.0 L 66.0 243.0 L 67.0 243.0 L 68.0 242.0 L 69.0 242.0 L 70.0 241.0 L 72.0 239.0 L 74.0 238.0 L 77.0 236.0 L 80.0 234.0 L 83.0 232.0 L 86.0 229.0 L 89.0 227.0 L 91.0 225.0 L 93.0 224.0 L 94.0 222.0 L 96.0 221.0 L 96.0 221.0 L 97.0 220.0 L 97.0 220.0 L 97.0 220.0 L 98.0 220.0 L 98.0 219.0 L 98.0 219.0 L 99.0 219.0 L 99.0 219.0 L 99.0 219.0 L 99.0 219.0 L 100.0 219.0 L 100.0 219.0 L 100.0 220.0 L 100.0 220.0 L 101.0 220.0 L 101.0 220.0 L 101.0 221.0 L 101.0 221.0 L 102.0 221.0 L 102.0 221.0 L 102.0 222.0 L 102.0 222.0 L 103.0 222.0 L 103.0 223.0 L 103.0 223.0 L 104.0 223.0 L 104.0 224.0 L 105.0 225.0 L 105.0 225.0 L 106.0 226.0 L 106.0 227.0 L 107.0 227.0 L 107.0 228.0 L 108.0 229.0 L 109.0 230.0 L 109.0 230.0 L 110.0 231.0 L 111.0 232.0 L 112.0 233.0 L 113.0 233.0 L 114.0 234.0 L 115.0 235.0 L 117.0 236.0 L 118.0 236.0 L 120.0 237.0 L 122.0 237.0 L 125.0 238.0 L 127.0 239.0 L 129.0 239.0 L 132.0 240.0 L 134.0 240.0 L 136.0 241.0 L 139.0 241.0 L 141.0 242.0 L 142.0 242.0 L 144.0 242.0 L 146.0 243.0 L 147.0 243.0 L 148.0 243.0 L 149.0 243.0 L 151.0 243.0 L 152.0 243.0 L 153.0 243.0 L 154.0 243.0 L 155.0 243.0 L 157.0 244.0 L 158.0 244.0 L 160.0 244.0 L 162.0 244.0 L 164.0 244.0 L 166.0 244.0 L 168.0 244.0 L 171.0 244.0 L 173.0 244.0 L 176.0 244.0 L 178.0 244.0 L 180.0 244.0 L 182.0 244.0 L 184.0 244.0 L 185.0 244.0 L 187.0 244.0 L 188.0 244.0 L 189.0 244.0 L 191.0 244.0 L 192.0 244.0 L 194.0 244.0 L 195.0 243.0 L 196.0 243.0 L 197.0 243.0 L 198.0 243.0 L 199.0 243.0 L 201.0 243.0 L 202.0 243.0 L 203.0 243.0 L 204.0 243.0 L 205.0 243.0 L 206.0 243.0 L 208.0 243.0 L 209.0 243.0 L 211.0 243.0 L 213.0 243.0 L 214.0 243.0 L 216.0 242.0 L 219.0 242.0 L 221.0 242.0 L 223.0 242.0 L 225.0 242.0 L 227.0 242.0 L 229.0 242.0 L 231.0 242.0 L 233.0 241.0 L 234.0 241.0 L 236.0 241.0 L 237.0 241.0 L 238.0 241.0 L 238.0 240.0 L 238.0 240.0 L 238.0 240.0 L 238.0 240.0 " stroke="black" fill="none" stroke-width="5.0" stroke-linecap="round" stroke-linejoin="round" />
</svg>