<svg xmlns="http://www.w3.org/2000/svg" width="300" height="300" viewBox="0 0 300 300">
<path d="M 141.0 76.0 L 139.0 75.0 L 137.0 75.0 L 136.0 75.0 L 136.0 75.0 L 136.0 75.0 L 137.0 78.0 L 140.0 80.0 L 143.0 84.0 L 146.0 88.0 L 149.0 92.0 L 152.0 97.0 L 154.0 99.0 " stroke="black" fill="none" stroke-width="5.0" stroke-linecap="round" stroke-linejoin="round" />
<path d="M 80.0 117.0 L 80.0 117.0 L 79.0 117.0 L 78.0 117.0 L 78.0 117.0 L 77.0 117.0 L 77.0 117.0 L 77.0 117.0 L 77.0 117.0 L 77.0 117.0 L 77.0 117.0 L 78.0 117.0 L 79.0 117.0 L 80.0 117.0 L 81.0 117.0 L 82.0 118.0 L 84.0 118.0 L 85.0 118.0 L 87.0 118.0 L 89.0 118.0 L 91.0 118.0 L 92.0 118.0 L 94.0 118.0 L 96.0 118.0 L 98.0 118.0 L 99.0 118.0 L 101.0 119.0 L 102.0 119.0 L 104.0 120.0 L 105.0 120.0 L 107.0 120.0 L 108.0 121.0 L 109.0 121.0 L 110.0 121.0 L 112.0 121.0 L 113.0 121.0 L 114.0 121.0 L 115.0 121.0 L 116.0 121.0 L 117.0 121.0 L 118.0 121.0 L 119.0 121.0 L 120.0 121.0 L 122.0 121.0 L 123.0 121.0 L 125.0 121.0 L 126.0 121.0 L 128.0 121.0 L 129.0 121.0 L 131.0 121.0 L 133.0 121.0 L 134.0 121.0 L 136.0 121.0 L 138.0 121.0 L 140.0 121.0 L 142.0 121.0 L 144.0 121.0 L 145.0 121.0 L 147.0 121.0 L 149.0 121.0 L 150.0 121.0 L 151.0 121.0 L 152.0 121.0 L 153.0 121.0 L 154.0 121.0 L 155.0 121.0 L 156.0 121.0 L 157.0 121.0 L 158.0 121.0 L 160.0 121.0 L 162.0 121.0 L 163.0 121.0 L 165.0 121.0 L 167.0 121.0 L 169.0 121.0 L 172.0 121.0 L 174.0 121.0 L 177.0 121.0 L 179.0 121.0 L 181.0 121.0 L 183.0 121.0 L 185.0 121.0 L 187.0 121.0 L 189.0 121.0 L 190.0 121.0 L 192.0 121.0 L 193.0 121.0 L 194.0 121.0 L 195.0 121.0 L 196.0 121.0 L 196.0 122.0 L 196.0 123.0 L 197.0 123.0 L 197.0 124.0 L 197.0 124.0 L 197.0 125.0 L 197.0 125.0 L 197.0 126.0 L 197.0 126.0 L 197.0 127.0 L 197.0 127.0 L 197.0 128.0 L 197.0 128.0 L 197.0 129.0 L 197.0 130.0 L 197.0 131.0 L 196.0 132.0 L 196.0 133.0 L 196.0 134.0 L 195.0 135.0 L 195.0 137.0 L 194.0 138.0 L 193.0 140.0 L 193.0 142.0 L 191.0 144.0 L 190.0 146.0 L 189.0 149.0 L 187.0 151.0 L 185.0 153.0 L 183.0 156.0 L 180.0 158.0 L 178.0 160.0 L 175.0 163.0 L 172.0 165.0 L 169.0 167.0 L 166.0 169.0 L 163.0 171.0 L 160.0 173.0 L 158.0 175.0 L 156.0 177.0 L 155.0 178.0 L 153.0 180.0 L 152.0 182.0 L 151.0 184.0 L 150.0 186.0 L 148.0 187.0 L 147.0 189.0 L 146.0 190.0 L 144.0 192.0 L 142.0 193.0 L 140.0 195.0 L 137.0 197.0 L 135.0 198.0 L 132.0 200.0 L 128.0 202.0 L 125.0 204.0 L 122.0 206.0 L 119.0 208.0 L 116.0 209.0 L 113.0 211.0 L 111.0 212.0 L 109.0 213.0 L 107.0 215.0 L 106.0 216.0 L 104.0 218.0 L 102.0 219.0 L 101.0 221.0 L 99.0 222.0 L 97.0 224.0 L 95.0 225.0 L 93.0 227.0 L 91.0 228.0 L 89.0 229.0 L 87.0 230.0 L 84.0 231.0 L 82.0 232.0 L 80.0 233.0 L 79.0 233.0 L 78.0 234.0 L 76.0 234.0 L 76.0 234.0 L 75.0 235.0 L 75.0 235.0 L 74.0 235.0 L 74.0 235.0 L 74.0 235.0 L 74.0 235.0 L 74.0 235.0 L 74.0 235.0 L 74.0 235.0 L 74.0 235.0 L 74.0 235.0 L 74.0 235.0 L 74.0 235.0 L 75.0 235.0 L 75.0 235.0 L 76.0 234.0 L 77.0 234.0 L 79.0 233.0 L 80.0 233.0 L 81.0 232.0 L 83.0 232.0 L 84.0 231.0 L 86.0 230.0 L 88.0 230.0 L 90.0 229.0 L 91.0 229.0 L 93.0 228.0 L 95.0 228.0 L 96.0 227.0 L 98.0 227.0 L 99.0 227.0 L 101.0 227.0 L 102.0 226.0 L 103.0 226.0 L 104.0 226.0 L 105.0 226.0 L 106.0 226.0 L 107.0 226.0 L 108.0 226.0 L 108.0 226.0 L 109.0 226.0 L 110.0 226.0 L 110.0 226.0 L 111.0 226.0 L 112.0 226.0 L 113.0 226.0 L 114.0 227.0 L 115.0 227.0 L 116.0 228.0 L 118.0 228.0 L 119.0 229.0 L 121.0 230.0 L 122.0 230.0 L 124.0 231.0 L 125.0 232.0 L 127.0 232.0 L 129.0 233.0 L 131.0 234.0 L 133.0 235.0 L 135.0 236.0 L 137.0 237.0 L 139.0 237.0 L 141.0 239.0 L 144.0 239.0 L 146.0 240.0 L 148.0 241.0 L 150.0 242.0 L 152.0 243.0 L 155.0 243.0 L 157.0 243.0 L 159.0 244.0 L 162.0 244.0 L 165.0 244.0 L 168.0 245.0 L 171.0 245.0 L 175.0 246.0 L 178.0 246.0 L 182.0 247.0 L 186.0 247.0 L 190.0 247.0 L 193.0 247.0 L 196.0 247.0 L 199.0 247.0 L 202.0 247.0 L 206.0 247.0 L 210.0 247.0 L 215.0 246.0 L 220.0 245.0 L 225.0 245.0 L 229.0 244.0 L 233.0 244.0 L 236.0 244.0 L 239.0 244.0 L 240.0 244.0 L 241.0 244.0 L 242.0 243.0 L 243.0 243.0 L 243.0 243.0 L 244.0 243.0 L 244.0 243.0 " stroke="black" fill="none" stroke-width="5.0" stroke-linecap="round" stroke-linejoin="round" />
</svg>