<svg xmlns="http://www.w3.org/2000/svg" width="300" height="300" viewBox="0 0 300 300">
<path d="M 109.0 71.0 L 109.0 71.0 L 108.0 70.0 L 108.0 69.0 L 108.0 69.0 L 108.0 68.0 L 108.0 68.0 L 108.0 68.0 L 108.0 68.0 L 108.0 69.0 L 108.0 71.0 L 108.0 73.0 L 108.0 76.0 L 108.0 80.0 L 108.0 84.0 L 108.0 88.0 L 107.0 93.0 L 107.0 98.0 L 106.0 101.0 L 106.0 102.0 " stroke="black" fill="none" stroke-width="5.0" stroke-linecap="round" stroke-linejoin="round" />
<path d="M 113.0 85.0 L 113.0 85.0 L 113.0 85.0 L 113.0 85.0 L 113.0 85.0 L 114.0 85.0 L 115.0 85.0 L 118.0 85.0 L 121.0 85.0 L 125.0 85.0 L 128.0 85.0 " stroke="black" fill="none" stroke-width="5.0" stroke-linecap="round" stroke-linejoin="round" />
<path d="M 94.0 90.0 L 94.0 90.0 L 94.0 90.0 L 94.0 90.0 L 94.0 91.0 L 93.0 92.0 L 92.0 94.0 L 89.0 97.0 L 86.0 101.0 L 82.0 106.0 L 78.0 110.0 L 73.0 115.0 L 69.0 118.0 L 67.0 121.0 L 65.0 122.0 L 64.0 123.0 " stroke="black" fill="none" stroke-width="5.0" stroke-linecap="round" stroke-linejoin="round" />
<path d="M 93.0 109.0 L 93.0 109.0 L 92.0 109.0 L 91.0 109.0 L 90.0 109.0 L 89.0 109.0 L 89.0 109.0 L 89.0 109.0 L 89.0 109.0 L 89.0 108.0 L 89.0 108.0 L 89.0 107.0 L 89.0 107.0 L 90.0 107.0 L 91.0 107.0 L 93.0 107.0 L 94.0 107.0 L 96.0 106.0 L 99.0 106.0 L 101.0 106.0 L 103.0 105.0 L 106.0 105.0 L 109.0 104.0 L 112.0 104.0 L 115.0 104.0 L 118.0 103.0 L 121.0 103.0 L 124.0 103.0 L 126.0 103.0 L 129.0 103.0 L 130.0 103.0 L 131.0 103.0 L 132.0 104.0 L 132.0 105.0 L 131.0 106.0 L 130.0 107.0 L 128.0 109.0 L 126.0 111.0 L 124.0 113.0 L 121.0 116.0 L 118.0 118.0 L 115.0 121.0 L 112.0 125.0 L 108.0 128.0 L 104.0 132.0 L 99.0 136.0 L 94.0 140.0 L 88.0 144.0 L 82.0 147.0 L 76.0 149.0 L 71.0 150.0 L 69.0 150.0 L 68.0 150.0 " stroke="black" fill="none" stroke-width="5.0" stroke-linecap="round" stroke-linejoin="round" />
<path d="M 82.0 116.0 L 82.0 116.0 L 82.0 116.0 L 82.0 116.0 L 82.0 116.0 L 82.0 116.0 L 84.0 116.0 L 86.0 118.0 L 89.0 120.0 L 93.0 122.0 L 98.0 125.0 L 102.0 127.0 L 107.0 129.0 L 112.0 130.0 " stroke="black" fill="none" stroke-width="5.0" stroke-linecap="round" stroke-linejoin="round" />
<path d="M 173.0 86.0 L 171.0 86.0 L 170.0 86.0 L 168.0 86.0 L 168.0 86.0 L 167.0 86.0 L 167.0 87.0 L 167.0 87.0 L 169.0 87.0 L 172.0 87.0 L 175.0 87.0 L 179.0 87.0 L 183.0 87.0 L 188.0 86.0 L 192.0 86.0 L 196.0 86.0 L 201.0 86.0 L 206.0 85.0 L 210.0 85.0 L 214.0 85.0 L 217.0 85.0 L 219.0 87.0 L 219.0 88.0 L 219.0 90.0 L 218.0 93.0 L 215.0 96.0 L 212.0 100.0 L 208.0 103.0 L 203.0 107.0 L 198.0 111.0 L 194.0 114.0 L 190.0 118.0 L 185.0 121.0 L 180.0 124.0 L 175.0 126.0 L 169.0 128.0 L 164.0 130.0 L 161.0 131.0 L 158.0 131.0 L 158.0 131.0 " stroke="black" fill="none" stroke-width="5.0" stroke-linecap="round" stroke-linejoin="round" />
<path d="M 175.0 99.0 L 175.0 99.0 L 175.0 99.0 L 175.0 99.0 L 175.0 99.0 L 175.0 99.0 L 177.0 99.0 L 180.0 101.0 L 184.0 103.0 L 189.0 106.0 L 194.0 110.0 L 201.0 115.0 L 207.0 120.0 L 214.0 125.0 L 220.0 130.0 L 225.0 133.0 L 229.0 136.0 L 231.0 137.0 L 233.0 137.0 " stroke="black" fill="none" stroke-width="5.0" stroke-linecap="round" stroke-linejoin="round" />
<path d="M 150.0 127.0 L 150.0 127.0 L 150.0 128.0 L 150.0 128.0 L 150.0 129.0 L 149.0 130.0 L 148.0 131.0 L 147.0 133.0 L 145.0 135.0 L 142.0 138.0 L 138.0 142.0 L 132.0 146.0 L 125.0 151.0 L 117.0 155.0 L 110.0 160.0 L 103.0 165.0 L 96.0 169.0 L 88.0 173.0 L 79.0 178.0 L 71.0 181.0 L 68.0 183.0 " stroke="black" fill="none" stroke-width="5.0" stroke-linecap="round" stroke-linejoin="round" />
<path d="M 153.0 139.0 L 152.0 139.0 L 152.0 138.0 L 151.0 138.0 L 151.0 137.0 L 150.0 137.0 L 150.0 137.0 L 150.0 137.0 L 150.0 137.0 L 151.0 137.0 L 152.0 137.0 L 154.0 138.0 L 156.0 139.0 L 158.0 141.0 L 162.0 142.0 L 166.0 144.0 L 171.0 146.0 L 177.0 148.0 L 184.0 151.0 L 189.0 153.0 L 195.0 156.0 L 199.0 159.0 L 204.0 161.0 L 209.0 164.0 L 213.0 166.0 L 218.0 168.0 L 222.0 170.0 L 225.0 172.0 L 228.0 173.0 L 229.0 174.0 " stroke="black" fill="none" stroke-width="5.0" stroke-linecap="round" stroke-linejoin="round" />
<path d="M 137.0 159.0 L 137.0 159.0 L 137.0 159.0 L 137.0 159.0 L 137.0 159.0 L 137.0 159.0 L 139.0 159.0 L 141.0 160.0 L 145.0 160.0 L 150.0 160.0 L 156.0 160.0 L 164.0 160.0 L 171.0 160.0 L 177.0 160.0 L 183.0 160.0 L 185.0 160.0 " stroke="black" fill="none" stroke-width="5.0" stroke-linecap="round" stroke-linejoin="round" />
<path d="M 109.0 173.0 L 109.0 173.0 L 109.0 173.0 L 109.0 173.0 L 109.0 173.0 L 109.0 173.0 L 109.0 173.0 L 109.0 173.0 L 109.0 173.0 L 109.0 173.0 L 109.0 173.0 L 108.0 173.0 L 108.0 173.0 L 108.0 173.0 L 108.0 173.0 L 108.0 173.0 L 108.0 173.0 L 109.0 173.0 L 109.0 173.0 L 109.0 173.0 L 110.0 173.0 L 110.0 173.0 L 111.0 173.0 L 112.0 173.0 L 113.0 173.0 L 113.0 173.0 L 114.0 173.0 L 115.0 173.0 L 116.0 173.0 L 117.0 172.0 L 118.0 172.0 L 119.0 172.0 L 120.0 172.0 L 122.0 172.0 L 123.0 171.0 L 124.0 171.0 L 125.0 171.0 L 126.0 171.0 L 127.0 171.0 L 128.0 171.0 L 129.0 171.0 L 130.0 171.0 L 132.0 171.0 L 133.0 171.0 L 134.0 171.0 L 135.0 171.0 L 136.0 171.0 L 136.0 171.0 L 137.0 171.0 L 138.0 171.0 L 139.0 171.0 L 139.0 171.0 L 140.0 171.0 L 141.0 171.0 L 141.0 171.0 L 142.0 171.0 L 142.0 171.0 L 143.0 171.0 L 144.0 171.0 L 144.0 171.0 L 145.0 171.0 L 145.0 171.0 L 146.0 171.0 L 147.0 171.0 L 147.0 171.0 L 148.0 171.0 L 148.0 171.0 L 149.0 171.0 L 149.0 171.0 L 150.0 171.0 L 150.0 171.0 L 151.0 171.0 L 151.0 171.0 L 152.0 171.0 L 152.0 171.0 L 153.0 171.0 L 153.0 171.0 L 154.0 171.0 L 155.0 171.0 L 156.0 171.0 L 157.0 171.0 L 158.0 170.0 L 158.0 170.0 L 159.0 170.0 L 160.0 170.0 L 161.0 170.0 L 162.0 170.0 L 163.0 170.0 L 164.0 170.0 L 165.0 170.0 L 166.0 170.0 L 166.0 170.0 L 167.0 170.0 L 168.0 170.0 L 168.0 170.0 L 169.0 170.0 L 170.0 170.0 L 170.0 170.0 L 171.0 170.0 L 172.0 170.0 L 172.0 170.0 L 173.0 170.0 L 174.0 170.0 L 175.0 171.0 L 175.0 171.0 L 176.0 171.0 L 177.0 171.0 L 177.0 171.0 L 178.0 171.0 L 179.0 171.0 L 179.0 171.0 L 180.0 171.0 L 181.0 172.0 L 181.0 172.0 L 182.0 172.0 L 183.0 172.0 L 184.0 172.0 L 184.0 172.0 L 185.0 172.0 L 186.0 173.0 L 187.0 173.0 L 187.0 173.0 L 188.0 173.0 L 189.0 173.0 L 189.0 173.0 L 190.0 173.0 L 191.0 173.0 L 191.0 173.0 L 192.0 174.0 L 192.0 174.0 L 193.0 174.0 L 193.0 174.0 L 193.0 174.0 L 194.0 174.0 L 194.0 175.0 L 194.0 175.0 L 194.0 175.0 L 195.0 175.0 L 195.0 175.0 L 195.0 175.0 L 195.0 175.0 L 195.0 176.0 L 195.0 176.0 L 196.0 177.0 L 196.0 178.0 L 196.0 180.0 L 196.0 183.0 L 196.0 187.0 L 195.0 192.0 L 195.0 196.0 L 194.0 201.0 L 194.0 204.0 L 194.0 207.0 L 193.0 208.0 " stroke="black" fill="none" stroke-width="5.0" stroke-linecap="round" stroke-linejoin="round" />
<path d="M 116.0 195.0 L 116.0 195.0 L 116.0 195.0 L 116.0 194.0 L 116.0 194.0 L 116.0 194.0 L 116.0 194.0 L 117.0 193.0 L 118.0 193.0 L 121.0 193.0 L 125.0 193.0 L 131.0 193.0 L 138.0 193.0 L 144.0 193.0 L 151.0 193.0 L 157.0 193.0 L 163.0 193.0 L 169.0 192.0 L 175.0 191.0 L 179.0 191.0 L 183.0 191.0 L 184.0 191.0 L 185.0 191.0 L 185.0 191.0 L 185.0 192.0 " stroke="black" fill="none" stroke-width="5.0" stroke-linecap="round" stroke-linejoin="round" />
<path d="M 118.0 212.0 L 116.0 212.0 L 114.0 212.0 L 113.0 212.0 L 112.0 212.0 L 112.0 213.0 L 112.0 213.0 L 113.0 213.0 L 115.0 213.0 L 119.0 213.0 L 124.0 213.0 L 130.0 213.0 L 137.0 213.0 L 145.0 213.0 L 151.0 213.0 L 158.0 212.0 L 165.0 211.0 L 170.0 210.0 L 175.0 210.0 L 179.0 209.0 L 181.0 209.0 L 181.0 209.0 " stroke="black" fill="none" stroke-width="5.0" stroke-linecap="round" stroke-linejoin="round" />
<path d="M 107.0 180.0 L 107.0 180.0 L 107.0 180.0 L 106.0 181.0 L 106.0 181.0 L 106.0 182.0 L 106.0 184.0 L 106.0 186.0 L 106.0 189.0 L 106.0 192.0 L 106.0 195.0 L 106.0 199.0 L 105.0 204.0 L 105.0 208.0 L 104.0 213.0 L 104.0 218.0 L 103.0 224.0 L 103.0 229.0 L 102.0 233.0 L 102.0 237.0 L 102.0 239.0 L 102.0 241.0 L 102.0 243.0 L 102.0 244.0 L 102.0 244.0 L 102.0 245.0 L 102.0 245.0 L 102.0 245.0 L 102.0 245.0 L 102.0 246.0 L 103.0 246.0 L 103.0 246.0 L 104.0 246.0 L 105.0 246.0 L 106.0 246.0 L 108.0 246.0 L 110.0 245.0 L 115.0 244.0 L 120.0 242.0 L 128.0 240.0 L 136.0 237.0 L 144.0 235.0 L 150.0 232.0 L 156.0 231.0 " stroke="black" fill="none" stroke-width="5.0" stroke-linecap="round" stroke-linejoin="round" />
<path d="M 210.0 213.0 L 210.0 213.0 L 209.0 213.0 L 208.0 213.0 L 208.0 213.0 L 207.0 214.0 L 207.0 214.0 L 206.0 215.0 L 204.0 216.0 L 203.0 218.0 L 200.0 220.0 L 197.0 223.0 L 193.0 227.0 L 188.0 231.0 L 182.0 235.0 L 180.0 237.0 " stroke="black" fill="none" stroke-width="5.0" stroke-linecap="round" stroke-linejoin="round" />
<path d="M 152.0 225.0 L 152.0 225.0 L 151.0 225.0 L 150.0 225.0 L 149.0 226.0 L 149.0 226.0 L 148.0 226.0 L 148.0 227.0 L 148.0 227.0 L 149.0 228.0 L 150.0 229.0 L 152.0 230.0 L 156.0 230.0 L 160.0 231.0 L 165.0 232.0 L 172.0 234.0 L 179.0 236.0 L 186.0 238.0 L 193.0 241.0 L 198.0 244.0 L 203.0 247.0 L 208.0 250.0 L 212.0 253.0 L 216.0 256.0 L 220.0 258.0 L 223.0 259.0 L 225.0 259.0 L 227.0 260.0 L 228.0 259.0 " stroke="black" fill="none" stroke-width="5.0" stroke-linecap="round" stroke-linejoin="round" />
</svg>