<svg xmlns="http://www.w3.org/2000/svg" width="300" height="300" viewBox="0 0 300 300">
<path d="M 98.0 81.0 L 98.0 81.0 L 98.0 81.0 L 98.0 81.0 L 98.0 81.0 L 98.0 81.0 L 98.0 82.0 L 98.0 82.0 L 98.0 82.0 L 98.0 82.0 L 98.0 82.0 L 98.0 82.0 L 98.0 82.0 L 98.0 82.0 L 98.0 83.0 L 98.0 83.0 L 98.0 83.0 L 98.0 84.0 L 98.0 84.0 L 98.0 85.0 L 98.0 85.0 L 98.0 86.0 L 98.0 87.0 L 98.0 88.0 L 98.0 90.0 L 98.0 91.0 L 99.0 93.0 L 99.0 95.0 L 99.0 97.0 L 99.0 99.0 L 99.0 101.0 L 99.0 103.0 L 99.0 105.0 L 99.0 107.0 L 99.0 109.0 L 99.0 111.0 L 99.0 112.0 L 99.0 114.0 L 99.0 115.0 L 99.0 116.0 L 99.0 118.0 L 99.0 119.0 L 99.0 120.0 L 99.0 121.0 L 99.0 123.0 L 99.0 124.0 L 99.0 125.0 L 99.0 126.0 L 99.0 127.0 L 99.0 128.0 L 99.0 130.0 L 99.0 131.0 L 99.0 133.0 L 99.0 134.0 L 99.0 136.0 L 99.0 137.0 L 99.0 139.0 L 99.0 140.0 L 99.0 142.0 L 99.0 143.0 L 99.0 145.0 L 98.0 146.0 L 98.0 147.0 L 98.0 148.0 L 98.0 150.0 L 98.0 151.0 L 98.0 152.0 L 98.0 154.0 L 98.0 155.0 L 97.0 156.0 L 97.0 157.0 L 97.0 159.0 L 97.0 160.0 L 96.0 161.0 L 96.0 162.0 L 96.0 163.0 L 96.0 164.0 L 96.0 165.0 L 95.0 166.0 L 95.0 167.0 L 95.0 168.0 L 95.0 170.0 L 95.0 171.0 L 94.0 172.0 L 94.0 173.0 L 94.0 174.0 L 94.0 175.0 L 94.0 176.0 L 94.0 177.0 L 94.0 178.0 L 93.0 179.0 L 93.0 180.0 L 93.0 182.0 L 93.0 183.0 L 93.0 184.0 L 93.0 185.0 L 92.0 186.0 L 92.0 187.0 L 92.0 188.0 L 92.0 189.0 L 92.0 190.0 L 92.0 191.0 L 91.0 192.0 L 91.0 193.0 L 91.0 194.0 L 91.0 194.0 L 90.0 195.0 L 90.0 195.0 L 90.0 196.0 L 89.0 197.0 L 89.0 197.0 L 89.0 198.0 L 88.0 199.0 L 88.0 200.0 L 87.0 200.0 L 87.0 201.0 L 86.0 202.0 L 86.0 202.0 L 86.0 203.0 L 85.0 204.0 L 85.0 205.0 L 84.0 205.0 L 84.0 206.0 L 83.0 207.0 L 83.0 208.0 L 83.0 209.0 L 82.0 209.0 L 82.0 210.0 L 81.0 211.0 L 81.0 212.0 L 81.0 212.0 L 80.0 213.0 L 80.0 214.0 L 80.0 214.0 L 79.0 215.0 L 79.0 216.0 L 78.0 217.0 L 78.0 218.0 L 78.0 218.0 L 77.0 219.0 L 77.0 220.0 L 76.0 221.0 L 76.0 221.0 L 76.0 222.0 L 75.0 223.0 L 75.0 223.0 L 74.0 224.0 L 74.0 225.0 L 73.0 226.0 L 73.0 227.0 L 72.0 227.0 L 72.0 228.0 L 71.0 229.0 L 71.0 230.0 L 71.0 231.0 L 70.0 232.0 L 70.0 233.0 L 69.0 234.0 L 69.0 235.0 L 68.0 236.0 L 68.0 237.0 L 67.0 238.0 L 67.0 238.0 L 66.0 239.0 L 66.0 240.0 L 65.0 241.0 L 64.0 241.0 L 64.0 242.0 L 63.0 243.0 L 63.0 243.0 " stroke="black" fill="none" stroke-width="5.0" stroke-linecap="round" stroke-linejoin="round" />
<path d="M 103.0 81.0 L 103.0 81.0 L 103.0 81.0 L 102.0 81.0 L 102.0 81.0 L 101.0 80.0 L 101.0 80.0 L 101.0 80.0 L 101.0 80.0 L 100.0 80.0 L 100.0 80.0 L 100.0 80.0 L 100.0 80.0 L 100.0 80.0 L 100.0 80.0 L 100.0 80.0 L 100.0 80.0 L 100.0 80.0 L 100.0 80.0 L 100.0 80.0 L 101.0 80.0 L 101.0 80.0 L 102.0 80.0 L 103.0 80.0 L 103.0 81.0 L 104.0 81.0 L 105.0 81.0 L 106.0 81.0 L 107.0 81.0 L 107.0 82.0 L 108.0 82.0 L 109.0 82.0 L 110.0 82.0 L 111.0 82.0 L 112.0 82.0 L 113.0 83.0 L 114.0 83.0 L 115.0 83.0 L 116.0 83.0 L 118.0 83.0 L 119.0 83.0 L 121.0 83.0 L 122.0 83.0 L 124.0 83.0 L 125.0 83.0 L 127.0 83.0 L 128.0 83.0 L 130.0 82.0 L 131.0 82.0 L 133.0 82.0 L 134.0 82.0 L 135.0 82.0 L 136.0 82.0 L 137.0 82.0 L 138.0 82.0 L 139.0 82.0 L 140.0 82.0 L 141.0 82.0 L 141.0 82.0 L 142.0 82.0 L 143.0 82.0 L 144.0 82.0 L 145.0 82.0 L 145.0 82.0 L 146.0 82.0 L 147.0 82.0 L 147.0 82.0 L 148.0 82.0 L 148.0 82.0 L 149.0 82.0 L 149.0 82.0 L 150.0 82.0 L 150.0 82.0 L 151.0 82.0 L 151.0 82.0 L 152.0 82.0 L 152.0 82.0 L 153.0 82.0 L 153.0 82.0 L 154.0 82.0 L 155.0 82.0 L 155.0 82.0 L 156.0 82.0 L 157.0 82.0 L 157.0 82.0 L 158.0 82.0 L 159.0 82.0 L 160.0 82.0 L 162.0 82.0 L 163.0 82.0 L 164.0 81.0 L 165.0 81.0 L 166.0 81.0 L 167.0 81.0 L 168.0 81.0 L 169.0 81.0 L 170.0 81.0 L 171.0 81.0 L 172.0 80.0 L 173.0 80.0 L 174.0 80.0 L 175.0 80.0 L 176.0 80.0 L 177.0 80.0 L 178.0 80.0 L 179.0 80.0 L 180.0 80.0 L 181.0 80.0 L 182.0 80.0 L 183.0 80.0 L 184.0 80.0 L 185.0 80.0 L 185.0 80.0 L 186.0 80.0 L 187.0 81.0 L 188.0 81.0 L 188.0 81.0 L 189.0 81.0 L 190.0 81.0 L 190.0 81.0 L 191.0 81.0 L 192.0 81.0 L 192.0 81.0 L 193.0 81.0 L 193.0 81.0 L 194.0 81.0 L 195.0 81.0 L 195.0 81.0 L 196.0 81.0 L 196.0 81.0 L 197.0 81.0 L 198.0 81.0 L 198.0 81.0 L 199.0 81.0 L 199.0 81.0 L 200.0 81.0 L 201.0 81.0 L 201.0 81.0 L 202.0 81.0 L 203.0 81.0 L 203.0 82.0 L 204.0 82.0 L 205.0 82.0 L 205.0 82.0 L 206.0 82.0 L 207.0 82.0 L 207.0 82.0 L 208.0 82.0 L 208.0 82.0 L 209.0 82.0 L 209.0 82.0 L 210.0 82.0 L 210.0 82.0 L 210.0 82.0 L 211.0 82.0 L 211.0 83.0 L 211.0 83.0 L 212.0 83.0 L 212.0 84.0 L 212.0 84.0 L 212.0 85.0 L 212.0 85.0 L 212.0 87.0 L 212.0 88.0 L 212.0 89.0 L 212.0 91.0 L 212.0 93.0 L 212.0 95.0 L 212.0 97.0 L 212.0 99.0 L 212.0 101.0 L 212.0 104.0 L 212.0 106.0 L 212.0 109.0 L 212.0 111.0 L 213.0 114.0 L 213.0 117.0 L 213.0 120.0 L 213.0 123.0 L 214.0 125.0 L 214.0 127.0 L 214.0 129.0 L 215.0 131.0 L 215.0 133.0 L 215.0 135.0 L 215.0 137.0 L 215.0 139.0 L 215.0 142.0 L 215.0 145.0 L 216.0 148.0 L 216.0 151.0 L 216.0 154.0 L 216.0 156.0 L 216.0 159.0 L 217.0 161.0 L 217.0 164.0 L 217.0 166.0 L 217.0 168.0 L 217.0 170.0 L 217.0 173.0 L 217.0 175.0 L 217.0 178.0 L 217.0 181.0 L 217.0 184.0 L 217.0 187.0 L 217.0 190.0 L 217.0 192.0 L 217.0 195.0 L 217.0 197.0 L 218.0 200.0 L 218.0 202.0 L 218.0 204.0 L 218.0 206.0 L 218.0 208.0 L 218.0 211.0 L 218.0 213.0 L 218.0 215.0 L 218.0 217.0 L 217.0 220.0 L 217.0 222.0 L 217.0 224.0 L 217.0 227.0 L 217.0 229.0 L 217.0 231.0 L 217.0 233.0 L 217.0 235.0 L 216.0 237.0 L 216.0 239.0 L 216.0 240.0 L 216.0 242.0 L 216.0 243.0 L 216.0 244.0 L 216.0 245.0 L 216.0 246.0 L 216.0 247.0 L 215.0 247.0 L 215.0 248.0 L 214.0 248.0 L 214.0 249.0 L 213.0 250.0 L 212.0 250.0 L 212.0 251.0 L 211.0 252.0 L 210.0 253.0 L 210.0 253.0 L 209.0 254.0 L 208.0 254.0 L 207.0 254.0 L 206.0 254.0 L 205.0 254.0 L 203.0 254.0 L 201.0 254.0 L 199.0 253.0 L 197.0 252.0 L 194.0 251.0 L 192.0 250.0 L 189.0 249.0 L 186.0 248.0 L 182.0 246.0 L 178.0 245.0 L 174.0 243.0 L 169.0 241.0 L 167.0 239.0 " stroke="black" fill="none" stroke-width="5.0" stroke-linecap="round" stroke-linejoin="round" />
<path d="M 107.0 130.0 L 107.0 130.0 L 107.0 129.0 L 107.0 129.0 L 107.0 129.0 L 107.0 128.0 L 106.0 128.0 L 106.0 128.0 L 106.0 128.0 L 106.0 128.0 L 106.0 128.0 L 106.0 128.0 L 106.0 128.0 L 106.0 128.0 L 106.0 128.0 L 106.0 128.0 L 107.0 128.0 L 108.0 128.0 L 109.0 128.0 L 110.0 128.0 L 111.0 128.0 L 112.0 128.0 L 114.0 128.0 L 116.0 128.0 L 118.0 128.0 L 120.0 128.0 L 122.0 128.0 L 125.0 128.0 L 128.0 128.0 L 130.0 128.0 L 133.0 128.0 L 136.0 128.0 L 138.0 128.0 L 140.0 128.0 L 143.0 128.0 L 144.0 128.0 L 146.0 128.0 L 148.0 128.0 L 149.0 128.0 L 150.0 128.0 L 151.0 128.0 L 152.0 128.0 L 153.0 128.0 L 154.0 128.0 L 155.0 128.0 L 156.0 129.0 L 157.0 129.0 L 158.0 129.0 L 159.0 129.0 L 161.0 129.0 L 163.0 129.0 L 164.0 129.0 L 166.0 129.0 L 169.0 130.0 L 171.0 130.0 L 174.0 130.0 L 177.0 130.0 L 179.0 131.0 L 182.0 131.0 L 185.0 131.0 L 187.0 131.0 L 190.0 131.0 L 192.0 131.0 L 194.0 131.0 L 195.0 131.0 L 197.0 131.0 L 198.0 131.0 L 200.0 131.0 L 201.0 131.0 L 202.0 131.0 L 203.0 131.0 L 204.0 131.0 L 205.0 130.0 L 206.0 130.0 L 206.0 130.0 L 206.0 130.0 " stroke="black" fill="none" stroke-width="5.0" stroke-linecap="round" stroke-linejoin="round" />
<path d="M 100.0 179.0 L 100.0 179.0 L 99.0 179.0 L 99.0 179.0 L 98.0 179.0 L 98.0 179.0 L 97.0 179.0 L 97.0 179.0 L 96.0 179.0 L 96.0 179.0 L 96.0 179.0 L 96.0 179.0 L 96.0 179.0 L 96.0 179.0 L 97.0 179.0 L 97.0 179.0 L 98.0 179.0 L 99.0 179.0 L 100.0 179.0 L 101.0 179.0 L 102.0 179.0 L 103.0 179.0 L 104.0 179.0 L 105.0 178.0 L 107.0 178.0 L 108.0 178.0 L 110.0 178.0 L 112.0 178.0 L 114.0 178.0 L 116.0 178.0 L 118.0 178.0 L 120.0 178.0 L 123.0 178.0 L 125.0 178.0 L 127.0 178.0 L 130.0 178.0 L 132.0 178.0 L 135.0 178.0 L 137.0 177.0 L 139.0 177.0 L 142.0 177.0 L 144.0 177.0 L 145.0 177.0 L 147.0 177.0 L 149.0 177.0 L 150.0 177.0 L 152.0 177.0 L 153.0 177.0 L 155.0 177.0 L 157.0 177.0 L 158.0 177.0 L 160.0 177.0 L 163.0 177.0 L 165.0 177.0 L 168.0 177.0 L 171.0 177.0 L 174.0 177.0 L 176.0 177.0 L 179.0 177.0 L 182.0 177.0 L 184.0 177.0 L 187.0 176.0 L 189.0 176.0 L 190.0 176.0 L 192.0 176.0 L 194.0 175.0 L 195.0 175.0 L 196.0 175.0 L 197.0 175.0 L 198.0 175.0 L 199.0 175.0 L 199.0 175.0 L 200.0 175.0 L 200.0 175.0 L 201.0 175.0 L 201.0 175.0 " stroke="black" fill="none" stroke-width="5.0" stroke-linecap="round" stroke-linejoin="round" />
</svg>