<svg xmlns="http://www.w3.org/2000/svg" width="300" height="300" viewBox="0 0 300 300">
<path d="M 103.0 78.0 L 103.0 78.0 L 103.0 78.0 L 103.0 78.0 L 103.0 78.0 L 103.0 78.0 L 102.0 77.0 L 102.0 77.0 L 102.0 77.0 L 102.0 77.0 L 102.0 77.0 L 102.0 78.0 L 102.0 79.0 L 102.0 80.0 L 102.0 81.0 L 102.0 82.0 L 102.0 83.0 L 102.0 85.0 L 102.0 86.0 L 103.0 88.0 L 103.0 90.0 L 103.0 93.0 L 103.0 95.0 L 103.0 98.0 L 103.0 100.0 L 103.0 103.0 L 103.0 106.0 L 103.0 108.0 L 104.0 111.0 L 104.0 113.0 L 104.0 115.0 L 104.0 118.0 L 104.0 120.0 L 104.0 122.0 L 104.0 124.0 L 104.0 127.0 L 104.0 129.0 L 104.0 132.0 L 104.0 134.0 L 104.0 136.0 L 104.0 139.0 L 104.0 142.0 L 104.0 144.0 L 104.0 147.0 L 104.0 149.0 L 103.0 152.0 L 103.0 154.0 L 103.0 157.0 L 103.0 159.0 L 102.0 161.0 L 102.0 163.0 L 102.0 165.0 L 102.0 168.0 L 101.0 170.0 L 101.0 172.0 L 101.0 175.0 L 100.0 177.0 L 100.0 180.0 L 100.0 183.0 L 99.0 186.0 L 99.0 189.0 L 98.0 192.0 L 97.0 195.0 L 96.0 197.0 L 96.0 200.0 L 95.0 203.0 L 94.0 205.0 L 92.0 208.0 L 91.0 211.0 L 89.0 214.0 L 87.0 218.0 L 85.0 222.0 L 82.0 226.0 L 79.0 231.0 L 76.0 235.0 L 73.0 239.0 L 70.0 243.0 L 68.0 246.0 L 66.0 248.0 L 64.0 250.0 L 63.0 251.0 " stroke="black" fill="none" stroke-width="5.0" stroke-linecap="round" stroke-linejoin="round" />
<path d="M 112.0 83.0 L 112.0 83.0 L 112.0 83.0 L 112.0 83.0 L 112.0 83.0 L 111.0 83.0 L 111.0 83.0 L 111.0 82.0 L 111.0 82.0 L 111.0 82.0 L 111.0 82.0 L 111.0 82.0 L 112.0 82.0 L 112.0 82.0 L 114.0 82.0 L 115.0 82.0 L 117.0 82.0 L 120.0 82.0 L 123.0 82.0 L 126.0 82.0 L 130.0 82.0 L 134.0 82.0 L 137.0 82.0 L 141.0 82.0 L 144.0 82.0 L 147.0 82.0 L 149.0 82.0 L 151.0 82.0 L 153.0 82.0 L 155.0 82.0 L 157.0 82.0 L 160.0 82.0 L 162.0 82.0 L 165.0 82.0 L 168.0 82.0 L 171.0 82.0 L 175.0 82.0 L 178.0 82.0 L 181.0 81.0 L 184.0 81.0 L 186.0 81.0 L 189.0 80.0 L 191.0 80.0 L 193.0 80.0 L 194.0 80.0 L 196.0 79.0 L 197.0 79.0 L 198.0 79.0 L 199.0 79.0 L 200.0 79.0 L 202.0 79.0 L 203.0 79.0 L 204.0 79.0 L 205.0 79.0 L 206.0 79.0 L 207.0 80.0 L 208.0 80.0 L 209.0 80.0 L 209.0 80.0 L 210.0 81.0 L 210.0 81.0 L 210.0 82.0 L 210.0 82.0 L 210.0 83.0 L 210.0 84.0 L 210.0 85.0 L 210.0 86.0 L 210.0 87.0 L 210.0 89.0 L 210.0 91.0 L 210.0 93.0 L 210.0 96.0 L 210.0 100.0 L 210.0 104.0 L 210.0 109.0 L 210.0 113.0 L 210.0 117.0 L 210.0 121.0 L 210.0 125.0 L 210.0 129.0 L 210.0 133.0 L 210.0 136.0 L 210.0 139.0 L 211.0 143.0 L 211.0 147.0 L 211.0 150.0 L 211.0 154.0 L 211.0 157.0 L 211.0 161.0 L 211.0 164.0 L 211.0 168.0 L 211.0 171.0 L 211.0 175.0 L 210.0 180.0 L 209.0 184.0 L 209.0 190.0 L 208.0 194.0 L 208.0 198.0 L 207.0 203.0 L 207.0 206.0 L 207.0 209.0 L 206.0 212.0 L 206.0 215.0 L 206.0 218.0 L 205.0 221.0 L 205.0 224.0 L 204.0 228.0 L 203.0 232.0 L 202.0 236.0 L 201.0 240.0 L 200.0 244.0 L 200.0 248.0 L 199.0 251.0 L 198.0 253.0 L 198.0 254.0 L 197.0 254.0 L 197.0 255.0 L 197.0 255.0 L 196.0 255.0 L 196.0 255.0 L 195.0 255.0 L 194.0 255.0 L 194.0 255.0 L 193.0 255.0 L 191.0 255.0 L 190.0 256.0 L 188.0 256.0 L 185.0 256.0 L 182.0 256.0 L 177.0 254.0 L 172.0 252.0 L 168.0 250.0 " stroke="black" fill="none" stroke-width="5.0" stroke-linecap="round" stroke-linejoin="round" />
<path d="M 111.0 140.0 L 111.0 140.0 L 110.0 139.0 L 109.0 139.0 L 109.0 138.0 L 109.0 138.0 L 109.0 137.0 L 109.0 137.0 L 110.0 137.0 L 112.0 137.0 L 114.0 137.0 L 119.0 137.0 L 124.0 137.0 L 131.0 137.0 L 139.0 137.0 L 148.0 137.0 L 156.0 137.0 L 165.0 136.0 L 175.0 136.0 L 183.0 135.0 L 190.0 135.0 L 195.0 135.0 L 197.0 135.0 L 199.0 135.0 L 200.0 135.0 " stroke="black" fill="none" stroke-width="5.0" stroke-linecap="round" stroke-linejoin="round" />
<path d="M 110.0 180.0 L 109.0 180.0 L 109.0 180.0 L 108.0 180.0 L 108.0 180.0 L 108.0 180.0 L 108.0 181.0 L 109.0 181.0 L 112.0 181.0 L 117.0 181.0 L 124.0 181.0 L 133.0 182.0 L 143.0 182.0 L 152.0 183.0 L 161.0 183.0 L 170.0 183.0 L 179.0 183.0 L 186.0 183.0 L 192.0 183.0 L 196.0 183.0 " stroke="black" fill="none" stroke-width="5.0" stroke-linecap="round" stroke-linejoin="round" />
</svg>