<svg xmlns="http://www.w3.org/2000/svg" width="300" height="300" viewBox="0 0 300 300">
<path d="M 96.0 87.0 L 96.0 87.0 L 94.0 87.0 L 94.0 87.0 L 93.0 87.0 L 93.0 87.0 L 92.0 87.0 L 92.0 87.0 L 92.0 87.0 L 92.0 87.0 L 93.0 87.0 L 93.0 88.0 L 94.0 89.0 L 95.0 90.0 L 95.0 92.0 L 96.0 94.0 L 97.0 97.0 L 97.0 100.0 L 98.0 103.0 L 98.0 107.0 L 98.0 111.0 L 98.0 114.0 L 98.0 118.0 L 99.0 121.0 L 99.0 124.0 L 99.0 128.0 L 99.0 131.0 L 100.0 135.0 L 100.0 139.0 L 100.0 144.0 L 100.0 148.0 L 100.0 153.0 L 99.0 157.0 L 99.0 161.0 L 98.0 165.0 L 98.0 169.0 L 97.0 173.0 L 97.0 177.0 L 96.0 182.0 L 95.0 186.0 L 95.0 191.0 L 94.0 196.0 L 93.0 200.0 L 92.0 204.0 L 91.0 208.0 L 89.0 212.0 L 88.0 216.0 L 85.0 220.0 L 83.0 225.0 L 80.0 231.0 L 77.0 236.0 L 75.0 241.0 L 72.0 244.0 L 70.0 248.0 L 69.0 249.0 L 68.0 249.0 " stroke="black" fill="none" stroke-width="5.0" stroke-linecap="round" stroke-linejoin="round" />
<path d="M 107.0 84.0 L 107.0 84.0 L 106.0 84.0 L 106.0 84.0 L 106.0 84.0 L 106.0 83.0 L 106.0 83.0 L 106.0 83.0 L 106.0 83.0 L 106.0 82.0 L 106.0 82.0 L 106.0 82.0 L 107.0 82.0 L 108.0 82.0 L 109.0 82.0 L 112.0 82.0 L 114.0 82.0 L 117.0 82.0 L 121.0 82.0 L 126.0 82.0 L 131.0 82.0 L 136.0 82.0 L 140.0 82.0 L 144.0 82.0 L 147.0 82.0 L 150.0 82.0 L 152.0 82.0 L 154.0 82.0 L 156.0 82.0 L 158.0 82.0 L 161.0 82.0 L 164.0 82.0 L 167.0 82.0 L 171.0 81.0 L 175.0 81.0 L 178.0 81.0 L 182.0 81.0 L 185.0 81.0 L 188.0 81.0 L 190.0 81.0 L 192.0 81.0 L 194.0 81.0 L 195.0 81.0 L 196.0 81.0 L 197.0 81.0 L 198.0 81.0 L 199.0 81.0 L 200.0 81.0 L 201.0 81.0 L 202.0 81.0 L 203.0 81.0 L 204.0 81.0 L 205.0 82.0 L 206.0 82.0 L 207.0 82.0 L 208.0 82.0 L 209.0 82.0 L 209.0 82.0 L 210.0 83.0 L 210.0 83.0 L 211.0 83.0 L 211.0 84.0 L 212.0 85.0 L 212.0 86.0 L 212.0 87.0 L 213.0 88.0 L 213.0 90.0 L 214.0 93.0 L 214.0 96.0 L 214.0 101.0 L 214.0 106.0 L 213.0 112.0 L 212.0 117.0 L 211.0 123.0 L 210.0 129.0 L 209.0 134.0 L 208.0 139.0 L 208.0 145.0 L 207.0 150.0 L 207.0 155.0 L 207.0 159.0 L 206.0 164.0 L 206.0 168.0 L 206.0 173.0 L 206.0 177.0 L 205.0 181.0 L 205.0 186.0 L 205.0 190.0 L 205.0 194.0 L 205.0 198.0 L 204.0 201.0 L 204.0 204.0 L 203.0 208.0 L 203.0 211.0 L 202.0 214.0 L 202.0 217.0 L 201.0 221.0 L 201.0 225.0 L 200.0 229.0 L 200.0 234.0 L 199.0 238.0 L 198.0 241.0 L 198.0 244.0 L 198.0 246.0 L 197.0 249.0 L 197.0 250.0 L 196.0 252.0 L 196.0 255.0 L 195.0 258.0 L 194.0 260.0 L 193.0 263.0 L 192.0 265.0 L 192.0 267.0 L 191.0 268.0 L 190.0 268.0 L 189.0 268.0 L 187.0 267.0 L 185.0 265.0 L 182.0 261.0 L 178.0 257.0 L 173.0 252.0 L 168.0 247.0 L 163.0 243.0 L 161.0 241.0 " stroke="black" fill="none" stroke-width="5.0" stroke-linecap="round" stroke-linejoin="round" />
<path d="M 113.0 134.0 L 112.0 134.0 L 111.0 133.0 L 109.0 132.0 L 108.0 131.0 L 108.0 131.0 L 108.0 131.0 L 108.0 131.0 L 109.0 131.0 L 111.0 132.0 L 114.0 132.0 L 119.0 133.0 L 125.0 133.0 L 133.0 133.0 L 142.0 133.0 L 150.0 132.0 L 160.0 131.0 L 169.0 130.0 L 178.0 130.0 L 187.0 129.0 L 193.0 129.0 L 197.0 129.0 L 200.0 129.0 L 202.0 130.0 L 204.0 131.0 " stroke="black" fill="none" stroke-width="5.0" stroke-linecap="round" stroke-linejoin="round" />
<path d="M 109.0 173.0 L 109.0 173.0 L 108.0 173.0 L 108.0 173.0 L 107.0 173.0 L 107.0 173.0 L 107.0 173.0 L 107.0 173.0 L 107.0 173.0 L 110.0 173.0 L 113.0 173.0 L 119.0 173.0 L 126.0 173.0 L 135.0 173.0 L 145.0 172.0 L 155.0 171.0 L 166.0 170.0 L 177.0 169.0 L 187.0 169.0 L 193.0 168.0 L 197.0 168.0 L 200.0 169.0 " stroke="black" fill="none" stroke-width="5.0" stroke-linecap="round" stroke-linejoin="round" />
</svg>