<svg xmlns="http://www.w3.org/2000/svg" width="300" height="300" viewBox="0 0 300 300">
<path d="M 102.0 70.0 L 102.0 70.0 L 101.0 70.0 L 100.0 70.0 L 100.0 70.0 L 99.0 70.0 L 99.0 71.0 L 98.0 72.0 L 98.0 73.0 L 97.0 75.0 L 96.0 77.0 L 95.0 80.0 L 93.0 84.0 L 89.0 89.0 L 85.0 95.0 L 79.0 102.0 L 72.0 109.0 L 67.0 115.0 L 62.0 120.0 " stroke="black" fill="none" stroke-width="5.0" stroke-linecap="round" stroke-linejoin="round" />
<path d="M 97.0 122.0 L 97.0 122.0 L 97.0 121.0 L 97.0 121.0 L 97.0 121.0 L 97.0 121.0 L 97.0 120.0 L 97.0 120.0 L 98.0 120.0 L 98.0 119.0 L 98.0 119.0 L 98.0 119.0 L 98.0 120.0 L 98.0 121.0 L 97.0 123.0 L 95.0 126.0 L 92.0 130.0 L 88.0 136.0 L 83.0 143.0 L 77.0 150.0 L 71.0 157.0 L 66.0 161.0 L 63.0 165.0 L 59.0 168.0 L 57.0 170.0 L 55.0 171.0 L 53.0 172.0 L 52.0 173.0 L 52.0 173.0 " stroke="black" fill="none" stroke-width="5.0" stroke-linecap="round" stroke-linejoin="round" />
<path d="M 86.0 143.0 L 85.0 143.0 L 84.0 143.0 L 83.0 143.0 L 82.0 143.0 L 82.0 144.0 L 82.0 145.0 L 82.0 147.0 L 82.0 150.0 L 84.0 153.0 L 85.0 158.0 L 87.0 164.0 L 88.0 171.0 L 89.0 181.0 L 90.0 192.0 L 90.0 206.0 L 90.0 219.0 L 90.0 234.0 L 90.0 247.0 L 89.0 255.0 L 89.0 260.0 L 89.0 261.0 " stroke="black" fill="none" stroke-width="5.0" stroke-linecap="round" stroke-linejoin="round" />
<path d="M 152.0 74.0 L 152.0 74.0 L 152.0 74.0 L 152.0 74.0 L 151.0 74.0 L 151.0 74.0 L 151.0 75.0 L 151.0 76.0 L 150.0 78.0 L 150.0 82.0 L 148.0 87.0 L 145.0 94.0 L 141.0 103.0 L 135.0 112.0 L 129.0 119.0 L 125.0 124.0 L 121.0 127.0 L 121.0 127.0 L 121.0 126.0 " stroke="black" fill="none" stroke-width="5.0" stroke-linecap="round" stroke-linejoin="round" />
<path d="M 144.0 93.0 L 143.0 93.0 L 142.0 93.0 L 142.0 93.0 L 141.0 93.0 L 141.0 93.0 L 141.0 93.0 L 141.0 93.0 L 141.0 93.0 L 142.0 93.0 L 144.0 93.0 L 147.0 93.0 L 149.0 93.0 L 152.0 93.0 L 156.0 93.0 L 160.0 93.0 L 165.0 93.0 L 171.0 93.0 L 178.0 93.0 L 186.0 94.0 L 192.0 94.0 L 197.0 94.0 L 203.0 94.0 L 208.0 94.0 L 213.0 94.0 L 219.0 94.0 L 223.0 94.0 L 226.0 94.0 L 229.0 94.0 L 230.0 94.0 L 232.0 94.0 L 233.0 95.0 " stroke="black" fill="none" stroke-width="5.0" stroke-linecap="round" stroke-linejoin="round" />
<path d="M 147.0 123.0 L 147.0 123.0 L 147.0 123.0 L 147.0 123.0 L 147.0 124.0 L 147.0 125.0 L 147.0 127.0 L 147.0 132.0 L 147.0 139.0 L 146.0 148.0 L 145.0 157.0 L 145.0 164.0 L 144.0 169.0 L 144.0 171.0 L 144.0 172.0 L 144.0 171.0 L 145.0 169.0 " stroke="black" fill="none" stroke-width="5.0" stroke-linecap="round" stroke-linejoin="round" />
<path d="M 147.0 124.0 L 147.0 124.0 L 147.0 123.0 L 146.0 123.0 L 146.0 123.0 L 146.0 122.0 L 146.0 121.0 L 146.0 121.0 L 146.0 120.0 L 147.0 119.0 L 148.0 118.0 L 149.0 117.0 L 151.0 117.0 L 152.0 116.0 L 154.0 116.0 L 157.0 116.0 L 160.0 115.0 L 164.0 115.0 L 168.0 115.0 L 174.0 115.0 L 179.0 115.0 L 184.0 115.0 L 188.0 115.0 L 192.0 115.0 L 195.0 116.0 L 197.0 116.0 L 200.0 117.0 L 201.0 117.0 L 203.0 118.0 L 205.0 119.0 L 207.0 119.0 L 208.0 120.0 L 210.0 121.0 L 212.0 121.0 L 214.0 122.0 L 215.0 122.0 L 217.0 123.0 L 218.0 124.0 L 219.0 125.0 L 220.0 126.0 L 221.0 127.0 L 222.0 128.0 L 222.0 130.0 L 222.0 133.0 L 222.0 136.0 L 222.0 140.0 L 222.0 144.0 L 221.0 150.0 L 220.0 155.0 L 219.0 159.0 L 217.0 164.0 L 216.0 167.0 L 214.0 169.0 L 212.0 171.0 " stroke="black" fill="none" stroke-width="5.0" stroke-linecap="round" stroke-linejoin="round" />
<path d="M 158.0 143.0 L 157.0 143.0 L 155.0 143.0 L 153.0 143.0 L 152.0 142.0 L 152.0 142.0 L 152.0 142.0 L 152.0 142.0 L 153.0 142.0 L 156.0 142.0 L 160.0 142.0 L 165.0 142.0 L 172.0 142.0 L 179.0 142.0 L 186.0 142.0 L 190.0 142.0 L 199.0 141.0 L 204.0 141.0 L 208.0 141.0 L 210.0 141.0 " stroke="black" fill="none" stroke-width="5.0" stroke-linecap="round" stroke-linejoin="round" />
<path d="M 148.0 173.0 L 147.0 173.0 L 146.0 174.0 L 146.0 174.0 L 146.0 174.0 L 146.0 174.0 L 147.0 174.0 L 150.0 174.0 L 154.0 174.0 L 161.0 174.0 L 169.0 174.0 L 178.0 173.0 L 187.0 172.0 L 195.0 170.0 L 200.0 170.0 L 204.0 170.0 " stroke="black" fill="none" stroke-width="5.0" stroke-linecap="round" stroke-linejoin="round" />
<path d="M 171.0 173.0 L 171.0 173.0 L 171.0 173.0 L 171.0 173.0 L 171.0 173.0 L 170.0 173.0 L 169.0 174.0 L 167.0 175.0 L 165.0 178.0 L 161.0 182.0 L 157.0 186.0 L 153.0 192.0 L 147.0 197.0 L 143.0 202.0 L 137.0 206.0 L 131.0 209.0 L 125.0 211.0 L 121.0 211.0 L 118.0 212.0 L 118.0 212.0 " stroke="black" fill="none" stroke-width="5.0" stroke-linecap="round" stroke-linejoin="round" />
<path d="M 157.0 192.0 L 157.0 192.0 L 157.0 192.0 L 156.0 192.0 L 155.0 192.0 L 155.0 192.0 L 154.0 192.0 L 154.0 192.0 L 154.0 192.0 L 154.0 192.0 L 154.0 192.0 L 156.0 192.0 L 157.0 193.0 L 159.0 193.0 L 162.0 193.0 L 165.0 193.0 L 169.0 193.0 L 174.0 193.0 L 179.0 192.0 L 184.0 192.0 L 190.0 192.0 L 194.0 191.0 L 198.0 191.0 L 203.0 190.0 L 206.0 190.0 L 210.0 190.0 L 213.0 190.0 L 215.0 191.0 L 216.0 192.0 L 217.0 194.0 L 217.0 195.0 L 217.0 197.0 L 215.0 199.0 L 213.0 201.0 L 211.0 203.0 L 208.0 206.0 L 204.0 208.0 L 201.0 211.0 L 197.0 214.0 L 194.0 217.0 L 190.0 220.0 L 184.0 225.0 L 178.0 229.0 L 170.0 234.0 L 161.0 239.0 L 154.0 242.0 L 148.0 245.0 L 144.0 247.0 L 140.0 248.0 L 135.0 248.0 L 131.0 248.0 " stroke="black" fill="none" stroke-width="5.0" stroke-linecap="round" stroke-linejoin="round" />
<path d="M 131.0 197.0 L 131.0 197.0 L 130.0 197.0 L 128.0 197.0 L 128.0 197.0 L 127.0 197.0 L 127.0 197.0 L 127.0 198.0 L 128.0 198.0 L 131.0 199.0 L 135.0 201.0 L 139.0 202.0 L 144.0 205.0 L 148.0 207.0 L 153.0 210.0 L 157.0 213.0 L 162.0 217.0 L 168.0 221.0 L 173.0 225.0 L 180.0 228.0 L 186.0 231.0 L 191.0 234.0 L 196.0 236.0 L 199.0 237.0 L 204.0 239.0 L 210.0 241.0 L 216.0 242.0 L 221.0 243.0 L 226.0 244.0 L 230.0 245.0 L 232.0 245.0 L 234.0 246.0 L 235.0 246.0 L 235.0 246.0 " stroke="black" fill="none" stroke-width="5.0" stroke-linecap="round" stroke-linejoin="round" />
</svg>