<svg xmlns="http://www.w3.org/2000/svg" width="300" height="300" viewBox="0 0 300 300">
<path d="M 90.0 90.0 L 90.0 90.0 L 89.0 89.0 L 88.0 88.0 L 88.0 88.0 L 87.0 87.0 L 87.0 87.0 L 87.0 87.0 L 87.0 88.0 L 87.0 91.0 L 87.0 95.0 L 87.0 100.0 L 87.0 107.0 L 87.0 114.0 L 85.0 122.0 L 83.0 131.0 L 82.0 138.0 L 80.0 145.0 L 80.0 150.0 L 80.0 152.0 L 80.0 152.0 " stroke="black" fill="none" stroke-width="5.0" stroke-linecap="round" stroke-linejoin="round" />
<path d="M 91.0 85.0 L 91.0 85.0 L 91.0 85.0 L 90.0 85.0 L 90.0 84.0 L 90.0 84.0 L 90.0 84.0 L 90.0 84.0 L 90.0 83.0 L 90.0 83.0 L 90.0 83.0 L 90.0 83.0 L 90.0 83.0 L 90.0 83.0 L 90.0 83.0 L 91.0 83.0 L 92.0 82.0 L 92.0 82.0 L 93.0 82.0 L 94.0 82.0 L 95.0 82.0 L 96.0 82.0 L 97.0 82.0 L 98.0 82.0 L 99.0 82.0 L 100.0 82.0 L 101.0 82.0 L 102.0 82.0 L 103.0 82.0 L 104.0 82.0 L 105.0 82.0 L 106.0 82.0 L 107.0 82.0 L 108.0 82.0 L 109.0 82.0 L 110.0 83.0 L 110.0 83.0 L 111.0 83.0 L 112.0 83.0 L 113.0 83.0 L 114.0 83.0 L 115.0 83.0 L 116.0 83.0 L 117.0 83.0 L 119.0 83.0 L 120.0 83.0 L 121.0 83.0 L 123.0 83.0 L 124.0 83.0 L 125.0 84.0 L 126.0 84.0 L 128.0 84.0 L 130.0 84.0 L 131.0 84.0 L 133.0 84.0 L 134.0 85.0 L 136.0 85.0 L 137.0 85.0 L 139.0 85.0 L 140.0 85.0 L 142.0 86.0 L 143.0 86.0 L 145.0 86.0 L 146.0 86.0 L 147.0 86.0 L 149.0 86.0 L 150.0 86.0 L 151.0 86.0 L 153.0 86.0 L 154.0 86.0 L 155.0 86.0 L 156.0 86.0 L 158.0 86.0 L 159.0 86.0 L 160.0 86.0 L 162.0 87.0 L 163.0 87.0 L 164.0 87.0 L 166.0 87.0 L 168.0 87.0 L 169.0 87.0 L 171.0 87.0 L 173.0 87.0 L 175.0 87.0 L 177.0 87.0 L 178.0 87.0 L 180.0 87.0 L 181.0 87.0 L 183.0 88.0 L 184.0 88.0 L 185.0 88.0 L 187.0 88.0 L 188.0 88.0 L 189.0 89.0 L 190.0 89.0 L 191.0 89.0 L 191.0 89.0 L 192.0 89.0 L 193.0 89.0 L 194.0 89.0 L 194.0 90.0 L 195.0 90.0 L 196.0 90.0 L 196.0 90.0 L 197.0 91.0 L 197.0 91.0 L 198.0 91.0 L 199.0 91.0 L 200.0 92.0 L 200.0 92.0 L 201.0 92.0 L 202.0 93.0 L 202.0 93.0 L 203.0 93.0 L 204.0 94.0 L 204.0 94.0 L 205.0 95.0 L 205.0 95.0 L 206.0 95.0 L 207.0 96.0 L 207.0 96.0 L 207.0 97.0 L 208.0 98.0 L 208.0 99.0 L 208.0 100.0 L 209.0 101.0 L 209.0 103.0 L 209.0 105.0 L 209.0 106.0 L 209.0 109.0 L 209.0 111.0 L 209.0 114.0 L 209.0 117.0 L 209.0 120.0 L 208.0 124.0 L 207.0 127.0 L 207.0 132.0 L 206.0 136.0 L 206.0 139.0 L 206.0 143.0 L 206.0 145.0 L 206.0 147.0 L 206.0 149.0 L 206.0 150.0 L 206.0 152.0 L 206.0 153.0 L 206.0 154.0 L 205.0 155.0 L 204.0 156.0 L 204.0 157.0 L 204.0 157.0 L 204.0 157.0 " stroke="black" fill="none" stroke-width="5.0" stroke-linecap="round" stroke-linejoin="round" />
<path d="M 82.0 156.0 L 82.0 156.0 L 82.0 156.0 L 82.0 156.0 L 82.0 156.0 L 82.0 156.0 L 82.0 156.0 L 84.0 156.0 L 86.0 156.0 L 89.0 156.0 L 91.0 156.0 L 94.0 156.0 L 97.0 155.0 L 100.0 155.0 L 103.0 155.0 L 105.0 155.0 L 108.0 155.0 L 111.0 155.0 L 114.0 155.0 L 118.0 155.0 L 122.0 156.0 L 127.0 156.0 L 131.0 156.0 L 136.0 156.0 L 140.0 156.0 L 144.0 156.0 L 147.0 156.0 L 150.0 156.0 L 152.0 156.0 L 155.0 157.0 L 157.0 157.0 L 160.0 157.0 L 163.0 157.0 L 166.0 157.0 L 170.0 157.0 L 174.0 157.0 L 177.0 157.0 L 180.0 158.0 L 184.0 158.0 L 186.0 158.0 L 189.0 159.0 L 191.0 159.0 L 193.0 159.0 L 194.0 159.0 L 194.0 159.0 L 195.0 159.0 L 195.0 159.0 L 195.0 160.0 L 195.0 160.0 " stroke="black" fill="none" stroke-width="5.0" stroke-linecap="round" stroke-linejoin="round" />
<path d="M 114.0 162.0 L 114.0 162.0 L 114.0 162.0 L 114.0 162.0 L 114.0 162.0 L 113.0 162.0 L 113.0 162.0 L 113.0 162.0 L 113.0 162.0 L 113.0 162.0 L 113.0 163.0 L 113.0 165.0 L 113.0 167.0 L 113.0 169.0 L 113.0 172.0 L 113.0 175.0 L 113.0 179.0 L 113.0 183.0 L 113.0 186.0 L 112.0 190.0 L 111.0 193.0 L 111.0 196.0 L 110.0 199.0 L 109.0 201.0 L 108.0 204.0 L 107.0 206.0 L 106.0 208.0 L 105.0 210.0 L 104.0 212.0 L 103.0 214.0 L 102.0 216.0 L 101.0 218.0 L 100.0 220.0 L 98.0 222.0 L 96.0 225.0 L 94.0 228.0 L 91.0 230.0 L 88.0 234.0 L 85.0 237.0 L 81.0 239.0 L 78.0 242.0 L 74.0 245.0 L 71.0 247.0 L 69.0 249.0 L 66.0 251.0 L 64.0 252.0 L 62.0 254.0 L 61.0 254.0 L 61.0 254.0 L 61.0 254.0 " stroke="black" fill="none" stroke-width="5.0" stroke-linecap="round" stroke-linejoin="round" />
<path d="M 175.0 165.0 L 175.0 165.0 L 175.0 165.0 L 175.0 165.0 L 175.0 165.0 L 175.0 165.0 L 175.0 165.0 L 175.0 165.0 L 175.0 166.0 L 175.0 166.0 L 175.0 167.0 L 175.0 169.0 L 175.0 171.0 L 174.0 173.0 L 173.0 177.0 L 172.0 180.0 L 171.0 184.0 L 171.0 188.0 L 170.0 191.0 L 170.0 193.0 L 170.0 196.0 L 169.0 198.0 L 169.0 200.0 L 169.0 202.0 L 169.0 204.0 L 169.0 206.0 L 169.0 208.0 L 169.0 210.0 L 169.0 212.0 L 169.0 214.0 L 169.0 215.0 L 169.0 217.0 L 169.0 219.0 L 169.0 220.0 L 169.0 222.0 L 169.0 223.0 L 169.0 225.0 L 169.0 226.0 L 169.0 228.0 L 169.0 230.0 L 169.0 231.0 L 169.0 233.0 L 169.0 234.0 L 169.0 235.0 L 169.0 236.0 L 169.0 237.0 L 169.0 238.0 L 169.0 239.0 L 169.0 240.0 L 170.0 240.0 L 170.0 241.0 L 171.0 242.0 L 171.0 242.0 L 172.0 243.0 L 173.0 243.0 L 174.0 243.0 L 175.0 244.0 L 176.0 244.0 L 178.0 244.0 L 179.0 245.0 L 181.0 245.0 L 182.0 245.0 L 184.0 246.0 L 186.0 246.0 L 188.0 246.0 L 190.0 246.0 L 192.0 247.0 L 193.0 247.0 L 195.0 247.0 L 196.0 247.0 L 198.0 248.0 L 199.0 248.0 L 201.0 248.0 L 203.0 248.0 L 205.0 248.0 L 206.0 249.0 L 208.0 249.0 L 211.0 249.0 L 213.0 250.0 L 215.0 250.0 L 217.0 250.0 L 219.0 251.0 L 221.0 251.0 L 223.0 251.0 L 225.0 251.0 L 226.0 251.0 L 228.0 251.0 L 229.0 250.0 L 229.0 249.0 L 230.0 248.0 L 230.0 247.0 L 231.0 247.0 L 231.0 245.0 L 231.0 244.0 L 232.0 243.0 L 232.0 241.0 L 232.0 239.0 L 233.0 237.0 L 233.0 234.0 L 233.0 232.0 L 234.0 229.0 L 234.0 226.0 L 234.0 222.0 L 234.0 219.0 L 235.0 215.0 L 235.0 211.0 " stroke="black" fill="none" stroke-width="5.0" stroke-linecap="round" stroke-linejoin="round" />
</svg>