<svg xmlns="http://www.w3.org/2000/svg" width="300" height="300" viewBox="0 0 300 300">
<path d="M 108.0 68.0 L 108.0 68.0 L 108.0 68.0 L 108.0 68.0 L 108.0 69.0 L 107.0 69.0 L 107.0 70.0 L 106.0 72.0 L 104.0 74.0 L 102.0 77.0 L 99.0 80.0 L 95.0 84.0 L 91.0 89.0 L 89.0 90.0 " stroke="black" fill="none" stroke-width="5.0" stroke-linecap="round" stroke-linejoin="round" />
<path d="M 79.0 92.0 L 79.0 92.0 L 79.0 92.0 L 78.0 91.0 L 78.0 91.0 L 78.0 91.0 L 78.0 91.0 L 78.0 91.0 L 78.0 91.0 L 78.0 91.0 L 79.0 93.0 L 79.0 96.0 L 79.0 99.0 L 80.0 103.0 L 80.0 108.0 L 80.0 114.0 L 80.0 121.0 L 80.0 128.0 L 79.0 137.0 L 78.0 146.0 L 76.0 154.0 L 73.0 162.0 L 70.0 170.0 L 67.0 175.0 L 65.0 181.0 L 63.0 185.0 L 62.0 188.0 " stroke="black" fill="none" stroke-width="5.0" stroke-linecap="round" stroke-linejoin="round" />
<path d="M 87.0 96.0 L 87.0 96.0 L 86.0 96.0 L 85.0 96.0 L 85.0 95.0 L 84.0 95.0 L 84.0 95.0 L 84.0 95.0 L 84.0 95.0 L 84.0 95.0 L 85.0 94.0 L 87.0 94.0 L 90.0 93.0 L 93.0 93.0 L 96.0 92.0 L 99.0 92.0 L 103.0 91.0 L 106.0 90.0 L 110.0 89.0 L 113.0 89.0 L 116.0 89.0 L 119.0 88.0 L 122.0 88.0 L 124.0 88.0 L 126.0 88.0 L 128.0 88.0 L 130.0 89.0 L 131.0 90.0 L 133.0 90.0 L 134.0 91.0 L 135.0 92.0 L 136.0 93.0 L 137.0 95.0 L 138.0 96.0 L 139.0 98.0 L 139.0 101.0 L 139.0 103.0 L 139.0 106.0 L 139.0 110.0 L 139.0 114.0 L 139.0 119.0 L 139.0 125.0 L 138.0 132.0 L 137.0 139.0 L 136.0 146.0 L 135.0 154.0 L 134.0 161.0 L 132.0 167.0 L 130.0 173.0 L 129.0 177.0 L 127.0 181.0 L 125.0 184.0 L 124.0 185.0 L 122.0 186.0 L 120.0 187.0 L 118.0 187.0 L 116.0 187.0 L 114.0 186.0 L 112.0 184.0 L 110.0 179.0 " stroke="black" fill="none" stroke-width="5.0" stroke-linecap="round" stroke-linejoin="round" />
<path d="M 104.0 105.0 L 104.0 104.0 L 103.0 104.0 L 103.0 103.0 L 103.0 103.0 L 103.0 103.0 L 103.0 103.0 L 104.0 104.0 L 106.0 105.0 L 108.0 107.0 L 110.0 109.0 L 112.0 111.0 L 115.0 114.0 L 117.0 117.0 " stroke="black" fill="none" stroke-width="5.0" stroke-linecap="round" stroke-linejoin="round" />
<path d="M 101.0 137.0 L 101.0 137.0 L 100.0 138.0 L 99.0 139.0 L 99.0 140.0 L 99.0 142.0 L 99.0 143.0 L 101.0 145.0 L 103.0 147.0 L 105.0 150.0 L 108.0 151.0 L 111.0 153.0 L 112.0 154.0 " stroke="black" fill="none" stroke-width="5.0" stroke-linecap="round" stroke-linejoin="round" />
<path d="M 64.0 134.0 L 64.0 134.0 L 64.0 134.0 L 63.0 134.0 L 63.0 134.0 L 63.0 134.0 L 64.0 134.0 L 66.0 134.0 L 71.0 134.0 L 77.0 134.0 L 86.0 134.0 L 97.0 133.0 L 107.0 132.0 L 117.0 130.0 L 128.0 129.0 L 137.0 128.0 L 144.0 128.0 " stroke="black" fill="none" stroke-width="5.0" stroke-linecap="round" stroke-linejoin="round" />
<path d="M 176.0 85.0 L 176.0 85.0 L 176.0 85.0 L 176.0 86.0 L 176.0 88.0 L 176.0 91.0 L 175.0 96.0 L 174.0 101.0 L 172.0 107.0 L 169.0 112.0 L 165.0 118.0 L 162.0 121.0 " stroke="black" fill="none" stroke-width="5.0" stroke-linecap="round" stroke-linejoin="round" />
<path d="M 178.0 86.0 L 178.0 86.0 L 177.0 85.0 L 177.0 84.0 L 177.0 84.0 L 177.0 84.0 L 178.0 83.0 L 181.0 82.0 L 184.0 82.0 L 187.0 82.0 L 191.0 81.0 L 195.0 81.0 L 199.0 82.0 L 203.0 83.0 L 206.0 85.0 L 209.0 87.0 L 211.0 89.0 L 213.0 91.0 L 214.0 94.0 L 214.0 96.0 L 213.0 98.0 L 212.0 100.0 L 211.0 102.0 L 209.0 103.0 L 208.0 105.0 L 207.0 106.0 L 207.0 107.0 L 206.0 107.0 L 206.0 108.0 L 207.0 108.0 L 210.0 108.0 L 213.0 108.0 L 217.0 108.0 L 222.0 107.0 L 227.0 107.0 L 231.0 107.0 L 233.0 107.0 " stroke="black" fill="none" stroke-width="5.0" stroke-linecap="round" stroke-linejoin="round" />
<path d="M 169.0 138.0 L 168.0 138.0 L 164.0 138.0 L 163.0 138.0 L 163.0 138.0 L 163.0 138.0 L 165.0 138.0 L 168.0 138.0 L 172.0 137.0 L 177.0 136.0 L 182.0 136.0 L 188.0 135.0 L 193.0 135.0 L 198.0 134.0 L 204.0 134.0 L 209.0 134.0 L 214.0 134.0 L 219.0 134.0 L 221.0 135.0 L 222.0 136.0 L 222.0 137.0 L 220.0 139.0 L 216.0 141.0 L 212.0 144.0 L 208.0 148.0 L 204.0 151.0 L 200.0 155.0 L 196.0 159.0 L 191.0 163.0 L 186.0 167.0 L 181.0 170.0 L 174.0 174.0 L 166.0 177.0 L 160.0 178.0 L 155.0 178.0 L 152.0 177.0 " stroke="black" fill="none" stroke-width="5.0" stroke-linecap="round" stroke-linejoin="round" />
<path d="M 158.0 147.0 L 158.0 147.0 L 158.0 146.0 L 159.0 145.0 L 161.0 145.0 L 163.0 145.0 L 166.0 146.0 L 171.0 148.0 L 177.0 150.0 L 184.0 154.0 L 191.0 157.0 L 198.0 161.0 L 205.0 165.0 L 213.0 168.0 L 221.0 171.0 L 229.0 173.0 L 234.0 175.0 L 237.0 176.0 " stroke="black" fill="none" stroke-width="5.0" stroke-linecap="round" stroke-linejoin="round" />
<path d="M 88.0 202.0 L 88.0 202.0 L 88.0 202.0 L 88.0 202.0 L 88.0 203.0 L 89.0 204.0 L 90.0 206.0 L 91.0 210.0 L 93.0 215.0 L 94.0 222.0 L 96.0 227.0 L 97.0 232.0 L 98.0 236.0 L 98.0 237.0 " stroke="black" fill="none" stroke-width="5.0" stroke-linecap="round" stroke-linejoin="round" />
<path d="M 90.0 204.0 L 90.0 204.0 L 90.0 204.0 L 90.0 204.0 L 89.0 204.0 L 89.0 204.0 L 89.0 204.0 L 89.0 204.0 L 89.0 204.0 L 89.0 203.0 L 91.0 203.0 L 92.0 203.0 L 94.0 203.0 L 96.0 202.0 L 98.0 202.0 L 101.0 202.0 L 106.0 202.0 L 111.0 202.0 L 119.0 202.0 L 130.0 201.0 L 140.0 201.0 L 149.0 201.0 L 157.0 201.0 L 163.0 201.0 L 170.0 201.0 L 178.0 201.0 L 185.0 201.0 L 190.0 202.0 L 195.0 203.0 L 198.0 204.0 L 202.0 205.0 L 206.0 205.0 L 210.0 206.0 L 214.0 206.0 L 218.0 206.0 L 220.0 206.0 L 221.0 206.0 L 222.0 206.0 L 222.0 206.0 L 222.0 206.0 L 222.0 207.0 L 221.0 208.0 L 220.0 209.0 L 218.0 211.0 L 216.0 214.0 L 213.0 217.0 L 210.0 221.0 L 208.0 226.0 L 205.0 231.0 L 203.0 236.0 L 201.0 241.0 L 200.0 244.0 L 199.0 247.0 L 198.0 248.0 " stroke="black" fill="none" stroke-width="5.0" stroke-linecap="round" stroke-linejoin="round" />
<path d="M 126.0 209.0 L 126.0 209.0 L 125.0 209.0 L 125.0 209.0 L 124.0 209.0 L 124.0 210.0 L 125.0 212.0 L 126.0 214.0 L 128.0 219.0 L 130.0 223.0 L 132.0 228.0 L 133.0 232.0 L 135.0 235.0 L 136.0 236.0 " stroke="black" fill="none" stroke-width="5.0" stroke-linecap="round" stroke-linejoin="round" />
<path d="M 169.0 209.0 L 169.0 209.0 L 168.0 209.0 L 168.0 209.0 L 168.0 209.0 L 168.0 210.0 L 168.0 211.0 L 167.0 214.0 L 167.0 217.0 L 166.0 222.0 L 164.0 227.0 L 162.0 233.0 L 160.0 237.0 " stroke="black" fill="none" stroke-width="5.0" stroke-linecap="round" stroke-linejoin="round" />
<path d="M 79.0 245.0 L 78.0 245.0 L 77.0 245.0 L 76.0 244.0 L 76.0 244.0 L 76.0 244.0 L 76.0 244.0 L 78.0 244.0 L 82.0 244.0 L 87.0 244.0 L 93.0 245.0 L 99.0 245.0 L 107.0 245.0 L 116.0 245.0 L 127.0 244.0 L 141.0 243.0 L 153.0 243.0 L 164.0 242.0 L 177.0 242.0 L 188.0 242.0 L 196.0 242.0 L 202.0 242.0 L 208.0 242.0 L 214.0 243.0 L 221.0 243.0 L 226.0 243.0 L 230.0 243.0 L 233.0 243.0 L 235.0 244.0 L 235.0 244.0 " stroke="black" fill="none" stroke-width="5.0" stroke-linecap="round" stroke-linejoin="round" />
</svg>