<svg xmlns="http://www.w3.org/2000/svg" width="300" height="300" viewBox="0 0 300 300">
<path d="M 110.0 67.0 L 110.0 67.0 L 110.0 67.0 L 110.0 67.0 L 110.0 67.0 L 110.0 67.0 L 111.0 68.0 L 111.0 69.0 L 111.0 70.0 L 111.0 72.0 L 111.0 74.0 L 111.0 75.0 L 111.0 78.0 L 109.0 80.0 L 107.0 84.0 L 104.0 89.0 L 100.0 95.0 L 95.0 101.0 L 90.0 108.0 L 85.0 114.0 L 81.0 118.0 L 77.0 121.0 L 76.0 121.0 L 75.0 121.0 " stroke="black" fill="none" stroke-width="5.0" stroke-linecap="round" stroke-linejoin="round" />
<path d="M 104.0 93.0 L 104.0 93.0 L 104.0 93.0 L 104.0 92.0 L 103.0 92.0 L 103.0 92.0 L 103.0 92.0 L 103.0 92.0 L 103.0 92.0 L 103.0 92.0 L 103.0 92.0 L 103.0 92.0 L 103.0 92.0 L 104.0 92.0 L 105.0 92.0 L 106.0 92.0 L 107.0 92.0 L 109.0 92.0 L 110.0 92.0 L 111.0 92.0 L 113.0 92.0 L 115.0 92.0 L 119.0 92.0 L 121.0 92.0 L 123.0 91.0 L 126.0 91.0 L 128.0 91.0 L 130.0 91.0 L 133.0 91.0 L 134.0 90.0 L 136.0 90.0 L 138.0 90.0 L 139.0 90.0 L 141.0 90.0 L 142.0 90.0 L 144.0 90.0 L 145.0 90.0 L 146.0 90.0 L 148.0 90.0 L 148.0 90.0 L 150.0 90.0 L 150.0 90.0 L 151.0 90.0 L 152.0 90.0 L 152.0 90.0 L 153.0 90.0 L 153.0 90.0 L 154.0 89.0 L 155.0 89.0 L 156.0 89.0 L 156.0 89.0 L 157.0 89.0 L 158.0 89.0 L 159.0 89.0 L 160.0 89.0 L 161.0 89.0 L 162.0 89.0 L 163.0 89.0 L 165.0 89.0 L 166.0 89.0 L 168.0 89.0 L 169.0 89.0 L 171.0 89.0 L 173.0 89.0 L 174.0 89.0 L 176.0 89.0 L 178.0 89.0 L 180.0 89.0 L 181.0 89.0 L 183.0 89.0 L 185.0 89.0 L 186.0 89.0 L 187.0 89.0 L 189.0 89.0 L 190.0 89.0 L 190.0 89.0 L 191.0 89.0 L 192.0 89.0 L 193.0 89.0 L 193.0 89.0 L 194.0 89.0 L 195.0 90.0 L 196.0 90.0 L 196.0 90.0 L 197.0 90.0 L 198.0 90.0 L 199.0 90.0 L 200.0 90.0 L 201.0 90.0 L 202.0 90.0 L 203.0 90.0 L 204.0 90.0 L 205.0 91.0 L 206.0 91.0 L 207.0 91.0 L 208.0 91.0 L 209.0 92.0 L 210.0 92.0 L 210.0 92.0 L 211.0 92.0 L 212.0 93.0 L 212.0 93.0 L 213.0 93.0 L 213.0 93.0 L 213.0 94.0 L 214.0 94.0 L 214.0 95.0 L 214.0 96.0 L 214.0 97.0 L 214.0 99.0 L 214.0 100.0 L 214.0 102.0 L 214.0 103.0 L 214.0 105.0 L 214.0 107.0 L 214.0 109.0 L 214.0 112.0 L 213.0 114.0 L 213.0 117.0 L 213.0 119.0 L 212.0 122.0 L 212.0 125.0 L 211.0 127.0 L 211.0 130.0 L 210.0 132.0 L 210.0 135.0 L 209.0 138.0 L 208.0 141.0 L 207.0 144.0 L 205.0 148.0 L 204.0 151.0 L 204.0 154.0 L 203.0 157.0 L 202.0 159.0 L 202.0 162.0 L 202.0 164.0 L 201.0 166.0 L 201.0 168.0 L 200.0 170.0 L 200.0 172.0 L 199.0 174.0 L 199.0 175.0 L 198.0 177.0 L 197.0 178.0 L 196.0 179.0 L 196.0 179.0 L 195.0 180.0 L 194.0 180.0 L 192.0 179.0 L 191.0 178.0 L 189.0 176.0 L 186.0 174.0 L 183.0 172.0 L 180.0 169.0 L 178.0 168.0 " stroke="black" fill="none" stroke-width="5.0" stroke-linecap="round" stroke-linejoin="round" />
<path d="M 139.0 100.0 L 139.0 100.0 L 139.0 100.0 L 139.0 100.0 L 138.0 100.0 L 138.0 101.0 L 137.0 102.0 L 137.0 103.0 L 137.0 105.0 L 137.0 107.0 L 136.0 110.0 L 135.0 113.0 L 133.0 118.0 L 130.0 122.0 L 128.0 124.0 L 120.0 133.0 L 115.0 139.0 L 110.0 145.0 L 105.0 150.0 L 102.0 154.0 L 100.0 156.0 L 98.0 157.0 L 98.0 157.0 L 98.0 157.0 " stroke="black" fill="none" stroke-width="5.0" stroke-linecap="round" stroke-linejoin="round" />
<path d="M 181.0 103.0 L 181.0 103.0 L 180.0 104.0 L 180.0 104.0 L 179.0 105.0 L 179.0 106.0 L 179.0 107.0 L 178.0 109.0 L 177.0 110.0 L 176.0 112.0 L 174.0 115.0 L 171.0 119.0 L 167.0 123.0 L 162.0 129.0 L 157.0 135.0 L 152.0 141.0 L 146.0 149.0 L 141.0 155.0 L 134.0 160.0 L 129.0 164.0 L 125.0 166.0 L 123.0 167.0 " stroke="black" fill="none" stroke-width="5.0" stroke-linecap="round" stroke-linejoin="round" />
<path d="M 92.0 193.0 L 92.0 193.0 L 92.0 193.0 L 92.0 193.0 L 92.0 193.0 L 92.0 193.0 L 92.0 193.0 L 91.0 195.0 L 89.0 198.0 L 87.0 202.0 L 83.0 207.0 L 79.0 213.0 L 74.0 222.0 L 69.0 231.0 L 65.0 240.0 L 62.0 247.0 L 61.0 253.0 " stroke="black" fill="none" stroke-width="5.0" stroke-linecap="round" stroke-linejoin="round" />
<path d="M 112.0 197.0 L 112.0 197.0 L 112.0 197.0 L 112.0 197.0 L 112.0 197.0 L 111.0 197.0 L 111.0 197.0 L 111.0 197.0 L 111.0 197.0 L 111.0 197.0 L 110.0 198.0 L 110.0 200.0 L 110.0 202.0 L 110.0 204.0 L 110.0 207.0 L 109.0 210.0 L 109.0 213.0 L 108.0 217.0 L 108.0 220.0 L 108.0 223.0 L 108.0 226.0 L 108.0 228.0 L 108.0 229.0 L 108.0 231.0 L 108.0 232.0 L 108.0 233.0 L 108.0 234.0 L 108.0 234.0 L 108.0 234.0 L 108.0 234.0 L 108.0 234.0 L 108.0 234.0 L 108.0 235.0 L 108.0 235.0 L 108.0 235.0 L 108.0 236.0 L 109.0 236.0 L 109.0 237.0 L 109.0 237.0 L 109.0 238.0 L 110.0 238.0 L 110.0 239.0 L 111.0 240.0 L 111.0 240.0 L 111.0 241.0 L 112.0 241.0 L 112.0 241.0 L 112.0 241.0 L 113.0 242.0 L 114.0 242.0 L 114.0 242.0 L 115.0 242.0 L 116.0 242.0 L 116.0 242.0 L 117.0 242.0 L 118.0 243.0 L 119.0 243.0 L 121.0 243.0 L 122.0 243.0 L 124.0 243.0 L 125.0 243.0 L 128.0 243.0 L 130.0 243.0 L 132.0 243.0 L 135.0 243.0 L 137.0 243.0 L 140.0 243.0 L 142.0 243.0 L 144.0 243.0 L 147.0 243.0 L 149.0 243.0 L 151.0 243.0 L 152.0 243.0 L 154.0 243.0 L 155.0 243.0 L 157.0 243.0 L 159.0 243.0 L 161.0 243.0 L 163.0 243.0 L 166.0 243.0 L 170.0 243.0 L 173.0 243.0 L 176.0 242.0 L 179.0 242.0 L 182.0 242.0 L 184.0 242.0 L 186.0 242.0 L 188.0 242.0 L 189.0 241.0 L 190.0 241.0 L 191.0 241.0 L 192.0 241.0 L 192.0 240.0 L 192.0 239.0 L 192.0 238.0 L 192.0 238.0 L 192.0 237.0 L 192.0 236.0 L 192.0 234.0 L 192.0 233.0 L 192.0 231.0 L 191.0 228.0 L 189.0 226.0 L 188.0 223.0 " stroke="black" fill="none" stroke-width="5.0" stroke-linecap="round" stroke-linejoin="round" />
<path d="M 144.0 195.0 L 144.0 195.0 L 144.0 195.0 L 144.0 195.0 L 144.0 195.0 L 144.0 195.0 L 144.0 195.0 L 144.0 196.0 L 146.0 197.0 L 147.0 199.0 L 149.0 202.0 L 150.0 205.0 L 152.0 208.0 L 155.0 212.0 L 157.0 215.0 L 158.0 217.0 " stroke="black" fill="none" stroke-width="5.0" stroke-linecap="round" stroke-linejoin="round" />
<path d="M 203.0 196.0 L 203.0 196.0 L 203.0 196.0 L 203.0 196.0 L 203.0 196.0 L 203.0 196.0 L 203.0 197.0 L 204.0 197.0 L 205.0 199.0 L 207.0 201.0 L 209.0 205.0 L 212.0 209.0 L 215.0 214.0 L 218.0 219.0 L 221.0 224.0 L 223.0 229.0 L 225.0 232.0 L 227.0 235.0 " stroke="black" fill="none" stroke-width="5.0" stroke-linecap="round" stroke-linejoin="round" />
</svg>