<svg xmlns="http://www.w3.org/2000/svg" width="300" height="300" viewBox="0 0 300 300">
<path d="M 68.0 118.0 L 67.0 118.0 L 65.0 118.0 L 64.0 118.0 L 63.0 119.0 L 62.0 119.0 L 62.0 119.0 L 62.0 119.0 L 62.0 119.0 L 64.0 119.0 L 66.0 118.0 L 70.0 118.0 L 75.0 117.0 L 82.0 116.0 L 89.0 115.0 L 96.0 115.0 L 103.0 114.0 L 110.0 114.0 L 116.0 113.0 " stroke="black" fill="none" stroke-width="5.0" stroke-linecap="round" stroke-linejoin="round" />
<path d="M 93.0 72.0 L 93.0 72.0 L 93.0 72.0 L 92.0 72.0 L 92.0 72.0 L 91.0 72.0 L 91.0 72.0 L 91.0 73.0 L 91.0 75.0 L 91.0 77.0 L 91.0 79.0 L 91.0 82.0 L 91.0 85.0 L 91.0 89.0 L 91.0 93.0 L 91.0 99.0 L 91.0 104.0 L 91.0 108.0 L 91.0 113.0 L 91.0 116.0 L 91.0 120.0 L 92.0 123.0 L 92.0 126.0 L 92.0 130.0 L 93.0 133.0 L 93.0 137.0 L 93.0 140.0 L 94.0 144.0 L 94.0 148.0 L 94.0 151.0 L 94.0 155.0 L 94.0 157.0 L 94.0 160.0 L 94.0 163.0 L 93.0 165.0 L 93.0 168.0 L 93.0 171.0 L 92.0 174.0 L 92.0 176.0 L 92.0 179.0 L 92.0 182.0 L 92.0 184.0 L 92.0 188.0 L 92.0 190.0 L 92.0 193.0 L 91.0 196.0 L 91.0 200.0 L 91.0 202.0 L 91.0 206.0 L 91.0 208.0 L 91.0 211.0 L 91.0 214.0 L 91.0 216.0 L 91.0 219.0 L 91.0 223.0 L 90.0 226.0 L 90.0 230.0 L 89.0 234.0 L 89.0 237.0 L 88.0 241.0 L 88.0 244.0 L 87.0 247.0 L 87.0 249.0 L 86.0 252.0 L 86.0 253.0 L 85.0 254.0 L 84.0 255.0 L 84.0 255.0 L 83.0 255.0 L 82.0 255.0 L 81.0 255.0 L 80.0 255.0 L 79.0 255.0 L 77.0 254.0 L 75.0 252.0 L 73.0 251.0 L 71.0 248.0 L 69.0 245.0 L 67.0 241.0 L 66.0 237.0 L 65.0 235.0 " stroke="black" fill="none" stroke-width="5.0" stroke-linecap="round" stroke-linejoin="round" />
<path d="M 63.0 192.0 L 62.0 191.0 L 60.0 191.0 L 60.0 191.0 L 59.0 190.0 L 59.0 190.0 L 59.0 189.0 L 60.0 188.0 L 63.0 186.0 L 69.0 183.0 L 78.0 178.0 L 91.0 171.0 L 105.0 163.0 " stroke="black" fill="none" stroke-width="5.0" stroke-linecap="round" stroke-linejoin="round" />
<path d="M 136.0 100.0 L 135.0 100.0 L 134.0 100.0 L 133.0 100.0 L 132.0 99.0 L 131.0 99.0 L 131.0 99.0 L 130.0 99.0 L 130.0 99.0 L 130.0 98.0 L 131.0 98.0 L 133.0 98.0 L 135.0 98.0 L 139.0 98.0 L 142.0 98.0 L 147.0 98.0 L 152.0 98.0 L 158.0 98.0 L 167.0 97.0 L 178.0 97.0 L 187.0 96.0 L 195.0 96.0 L 202.0 95.0 L 208.0 94.0 L 213.0 93.0 L 219.0 92.0 L 223.0 91.0 L 225.0 91.0 L 225.0 91.0 " stroke="black" fill="none" stroke-width="5.0" stroke-linecap="round" stroke-linejoin="round" />
<path d="M 173.0 77.0 L 173.0 77.0 L 172.0 77.0 L 171.0 77.0 L 171.0 77.0 L 170.0 77.0 L 170.0 77.0 L 169.0 77.0 L 169.0 78.0 L 169.0 80.0 L 168.0 82.0 L 167.0 86.0 L 166.0 91.0 L 162.0 99.0 L 157.0 108.0 L 152.0 117.0 L 146.0 126.0 L 140.0 132.0 L 135.0 136.0 L 131.0 139.0 L 127.0 139.0 L 125.0 139.0 L 123.0 139.0 " stroke="black" fill="none" stroke-width="5.0" stroke-linecap="round" stroke-linejoin="round" />
<path d="M 196.0 105.0 L 195.0 105.0 L 194.0 105.0 L 193.0 105.0 L 193.0 105.0 L 192.0 105.0 L 192.0 106.0 L 192.0 107.0 L 193.0 109.0 L 196.0 112.0 L 199.0 114.0 L 203.0 117.0 L 208.0 121.0 L 214.0 124.0 L 221.0 127.0 L 228.0 130.0 L 234.0 133.0 L 238.0 137.0 L 241.0 142.0 " stroke="black" fill="none" stroke-width="5.0" stroke-linecap="round" stroke-linejoin="round" />
<path d="M 137.0 153.0 L 137.0 153.0 L 136.0 153.0 L 135.0 153.0 L 135.0 153.0 L 135.0 153.0 L 135.0 153.0 L 135.0 155.0 L 135.0 158.0 L 135.0 162.0 L 135.0 167.0 L 135.0 174.0 L 135.0 182.0 L 135.0 190.0 L 135.0 198.0 L 134.0 204.0 L 134.0 208.0 L 134.0 210.0 L 134.0 210.0 L 136.0 210.0 " stroke="black" fill="none" stroke-width="5.0" stroke-linecap="round" stroke-linejoin="round" />
<path d="M 145.0 153.0 L 145.0 153.0 L 144.0 153.0 L 143.0 153.0 L 142.0 153.0 L 142.0 153.0 L 141.0 153.0 L 141.0 153.0 L 141.0 153.0 L 141.0 153.0 L 141.0 153.0 L 141.0 153.0 L 142.0 153.0 L 143.0 153.0 L 143.0 153.0 L 144.0 153.0 L 145.0 153.0 L 146.0 153.0 L 148.0 153.0 L 149.0 153.0 L 151.0 153.0 L 153.0 153.0 L 155.0 153.0 L 158.0 153.0 L 162.0 153.0 L 166.0 153.0 L 171.0 153.0 L 176.0 153.0 L 180.0 153.0 L 185.0 153.0 L 189.0 153.0 L 192.0 153.0 L 195.0 153.0 L 197.0 153.0 L 200.0 153.0 L 202.0 153.0 L 204.0 153.0 L 206.0 153.0 L 208.0 153.0 L 210.0 154.0 L 212.0 154.0 L 213.0 155.0 L 214.0 156.0 L 215.0 157.0 L 216.0 157.0 L 217.0 158.0 L 217.0 159.0 L 218.0 160.0 L 218.0 162.0 L 219.0 163.0 L 219.0 165.0 L 219.0 167.0 L 219.0 170.0 L 219.0 173.0 L 219.0 178.0 L 219.0 184.0 L 219.0 190.0 L 219.0 196.0 L 219.0 201.0 L 218.0 206.0 L 218.0 211.0 L 218.0 213.0 L 217.0 214.0 L 217.0 214.0 L 216.0 214.0 L 215.0 213.0 " stroke="black" fill="none" stroke-width="5.0" stroke-linecap="round" stroke-linejoin="round" />
<path d="M 149.0 179.0 L 148.0 179.0 L 147.0 178.0 L 145.0 178.0 L 144.0 177.0 L 144.0 177.0 L 143.0 177.0 L 143.0 176.0 L 144.0 176.0 L 146.0 176.0 L 149.0 176.0 L 155.0 176.0 L 162.0 176.0 L 172.0 176.0 L 182.0 176.0 L 192.0 175.0 L 199.0 174.0 L 204.0 173.0 L 208.0 172.0 L 209.0 172.0 " stroke="black" fill="none" stroke-width="5.0" stroke-linecap="round" stroke-linejoin="round" />
<path d="M 148.0 208.0 L 148.0 208.0 L 146.0 208.0 L 145.0 208.0 L 144.0 209.0 L 143.0 209.0 L 143.0 210.0 L 143.0 211.0 L 144.0 211.0 L 146.0 212.0 L 149.0 212.0 L 153.0 212.0 L 159.0 212.0 L 166.0 212.0 L 175.0 211.0 L 183.0 210.0 L 191.0 209.0 L 198.0 207.0 L 202.0 207.0 L 206.0 206.0 L 211.0 205.0 " stroke="black" fill="none" stroke-width="5.0" stroke-linecap="round" stroke-linejoin="round" />
<path d="M 182.0 138.0 L 182.0 138.0 L 182.0 138.0 L 182.0 137.0 L 182.0 137.0 L 182.0 136.0 L 182.0 136.0 L 182.0 135.0 L 182.0 135.0 L 182.0 135.0 L 182.0 135.0 L 182.0 135.0 L 182.0 136.0 L 182.0 137.0 L 182.0 140.0 L 182.0 143.0 L 181.0 146.0 L 181.0 151.0 L 180.0 155.0 L 180.0 159.0 L 179.0 164.0 L 179.0 169.0 L 179.0 173.0 L 179.0 178.0 L 179.0 181.0 L 179.0 185.0 L 179.0 189.0 L 179.0 193.0 L 179.0 196.0 L 179.0 200.0 L 179.0 203.0 L 179.0 206.0 L 178.0 209.0 L 178.0 212.0 L 178.0 214.0 L 178.0 217.0 L 177.0 219.0 L 177.0 220.0 L 177.0 222.0 L 177.0 224.0 L 177.0 225.0 L 177.0 227.0 L 177.0 229.0 L 177.0 230.0 L 177.0 231.0 L 177.0 232.0 L 177.0 233.0 L 177.0 234.0 L 177.0 234.0 L 177.0 235.0 L 177.0 235.0 L 177.0 236.0 L 177.0 236.0 L 177.0 236.0 L 177.0 237.0 L 177.0 237.0 L 177.0 237.0 L 177.0 237.0 L 178.0 237.0 L 178.0 238.0 L 179.0 238.0 L 180.0 238.0 L 181.0 238.0 L 182.0 238.0 L 183.0 238.0 L 184.0 239.0 L 185.0 239.0 L 186.0 239.0 L 188.0 239.0 L 189.0 239.0 L 190.0 239.0 L 191.0 240.0 L 193.0 240.0 L 194.0 240.0 L 195.0 240.0 L 197.0 240.0 L 199.0 240.0 L 201.0 241.0 L 203.0 241.0 L 206.0 241.0 L 209.0 241.0 L 212.0 242.0 L 216.0 242.0 L 220.0 242.0 L 224.0 242.0 L 228.0 242.0 L 232.0 242.0 L 235.0 242.0 L 238.0 242.0 L 240.0 241.0 L 242.0 241.0 L 243.0 241.0 L 244.0 241.0 L 245.0 240.0 L 245.0 240.0 L 245.0 240.0 L 245.0 240.0 " stroke="black" fill="none" stroke-width="5.0" stroke-linecap="round" stroke-linejoin="round" />
</svg>