<svg xmlns="http://www.w3.org/2000/svg" width="300" height="300" viewBox="0 0 300 300">
<path d="M 90.0 84.0 L 90.0 84.0 L 90.0 84.0 L 89.0 85.0 L 89.0 86.0 L 89.0 88.0 L 89.0 90.0 L 89.0 93.0 L 89.0 95.0 L 89.0 102.0 L 89.0 106.0 L 89.0 111.0 L 89.0 115.0 L 89.0 120.0 L 88.0 125.0 L 87.0 130.0 L 86.0 136.0 L 85.0 142.0 L 84.0 148.0 L 83.0 154.0 L 82.0 159.0 L 81.0 164.0 L 80.0 168.0 L 79.0 172.0 L 78.0 175.0 L 77.0 178.0 L 77.0 181.0 L 76.0 183.0 L 75.0 185.0 L 75.0 186.0 L 74.0 188.0 L 74.0 188.0 L 73.0 189.0 L 73.0 189.0 L 73.0 190.0 L 72.0 190.0 L 72.0 190.0 L 72.0 190.0 L 72.0 190.0 L 72.0 190.0 L 72.0 190.0 L 72.0 190.0 L 72.0 190.0 L 72.0 190.0 L 73.0 190.0 L 74.0 190.0 L 76.0 191.0 L 78.0 192.0 L 81.0 194.0 L 86.0 196.0 L 91.0 199.0 L 97.0 202.0 L 103.0 207.0 L 110.0 212.0 L 116.0 216.0 L 122.0 221.0 L 129.0 226.0 L 134.0 229.0 L 138.0 231.0 L 141.0 233.0 L 142.0 233.0 L 141.0 233.0 L 141.0 233.0 " stroke="black" fill="none" stroke-width="5.0" stroke-linecap="round" stroke-linejoin="round" />
<path d="M 135.0 103.0 L 135.0 103.0 L 134.0 102.0 L 134.0 102.0 L 134.0 102.0 L 134.0 102.0 L 134.0 102.0 L 134.0 103.0 L 134.0 104.0 L 134.0 106.0 L 134.0 108.0 L 135.0 112.0 L 135.0 115.0 L 136.0 120.0 L 136.0 126.0 L 136.0 134.0 L 134.0 143.0 L 132.0 152.0 L 128.0 161.0 L 125.0 170.0 L 121.0 178.0 L 117.0 186.0 L 114.0 193.0 L 110.0 200.0 L 106.0 206.0 L 103.0 211.0 L 98.0 217.0 L 93.0 223.0 L 86.0 228.0 L 79.0 232.0 L 74.0 235.0 L 70.0 237.0 L 68.0 238.0 " stroke="black" fill="none" stroke-width="5.0" stroke-linecap="round" stroke-linejoin="round" />
<path d="M 68.0 122.0 L 68.0 122.0 L 68.0 122.0 L 67.0 122.0 L 67.0 122.0 L 67.0 122.0 L 67.0 122.0 L 67.0 122.0 L 70.0 121.0 L 74.0 121.0 L 80.0 121.0 L 87.0 121.0 L 96.0 121.0 L 106.0 120.0 L 114.0 119.0 L 123.0 118.0 L 133.0 117.0 L 141.0 117.0 L 147.0 116.0 L 151.0 116.0 L 153.0 116.0 L 154.0 118.0 " stroke="black" fill="none" stroke-width="5.0" stroke-linecap="round" stroke-linejoin="round" />
<path d="M 164.0 103.0 L 164.0 103.0 L 164.0 104.0 L 164.0 105.0 L 163.0 106.0 L 163.0 108.0 L 162.0 111.0 L 162.0 116.0 L 162.0 123.0 L 162.0 132.0 L 162.0 142.0 L 163.0 154.0 L 163.0 167.0 L 163.0 181.0 L 163.0 196.0 L 163.0 211.0 L 164.0 222.0 L 164.0 232.0 L 164.0 235.0 " stroke="black" fill="none" stroke-width="5.0" stroke-linecap="round" stroke-linejoin="round" />
<path d="M 173.0 98.0 L 173.0 98.0 L 172.0 98.0 L 170.0 98.0 L 169.0 98.0 L 169.0 98.0 L 168.0 98.0 L 168.0 98.0 L 168.0 98.0 L 168.0 98.0 L 169.0 98.0 L 170.0 98.0 L 172.0 98.0 L 173.0 98.0 L 176.0 97.0 L 178.0 97.0 L 181.0 97.0 L 183.0 97.0 L 186.0 97.0 L 189.0 96.0 L 192.0 96.0 L 194.0 96.0 L 197.0 96.0 L 200.0 96.0 L 203.0 96.0 L 206.0 96.0 L 209.0 96.0 L 213.0 96.0 L 216.0 96.0 L 219.0 96.0 L 222.0 96.0 L 225.0 96.0 L 227.0 97.0 L 229.0 98.0 L 231.0 98.0 L 232.0 99.0 L 234.0 100.0 L 234.0 100.0 L 235.0 101.0 L 235.0 102.0 L 235.0 102.0 L 235.0 103.0 L 235.0 104.0 L 235.0 106.0 L 235.0 108.0 L 235.0 110.0 L 235.0 113.0 L 235.0 116.0 L 235.0 120.0 L 235.0 125.0 L 235.0 132.0 L 234.0 140.0 L 234.0 148.0 L 234.0 158.0 L 233.0 168.0 L 233.0 177.0 L 232.0 186.0 L 232.0 194.0 L 231.0 200.0 L 231.0 205.0 L 230.0 210.0 L 230.0 213.0 L 230.0 216.0 L 229.0 218.0 L 229.0 219.0 L 229.0 220.0 " stroke="black" fill="none" stroke-width="5.0" stroke-linecap="round" stroke-linejoin="round" />
<path d="M 168.0 231.0 L 167.0 231.0 L 165.0 231.0 L 164.0 231.0 L 163.0 231.0 L 162.0 230.0 L 162.0 230.0 L 162.0 230.0 L 163.0 230.0 L 165.0 230.0 L 168.0 230.0 L 172.0 230.0 L 177.0 230.0 L 183.0 230.0 L 189.0 230.0 L 196.0 230.0 L 202.0 230.0 L 210.0 230.0 L 217.0 229.0 L 224.0 229.0 L 230.0 229.0 L 234.0 229.0 " stroke="black" fill="none" stroke-width="5.0" stroke-linecap="round" stroke-linejoin="round" />
</svg>