<svg xmlns="http://www.w3.org/2000/svg" width="300" height="300" viewBox="0 0 300 300">
<path d="M 95.0 73.0 L 95.0 73.0 L 94.0 73.0 L 94.0 73.0 L 93.0 73.0 L 93.0 74.0 L 93.0 74.0 L 93.0 74.0 L 93.0 74.0 L 93.0 75.0 L 93.0 75.0 L 94.0 75.0 L 94.0 76.0 L 94.0 77.0 L 94.0 77.0 L 95.0 78.0 L 95.0 79.0 L 95.0 80.0 L 95.0 81.0 L 96.0 82.0 L 96.0 83.0 L 96.0 84.0 L 96.0 85.0 L 96.0 87.0 L 96.0 88.0 L 96.0 90.0 L 96.0 92.0 L 95.0 94.0 L 95.0 96.0 L 95.0 98.0 L 94.0 100.0 L 94.0 102.0 L 94.0 105.0 L 94.0 107.0 L 93.0 109.0 L 93.0 111.0 L 93.0 113.0 L 93.0 115.0 L 92.0 117.0 L 92.0 118.0 L 92.0 120.0 L 92.0 121.0 L 92.0 122.0 L 92.0 123.0 L 91.0 124.0 L 91.0 126.0 L 91.0 127.0 L 90.0 129.0 L 90.0 130.0 L 89.0 132.0 L 88.0 134.0 L 87.0 136.0 L 87.0 138.0 L 86.0 141.0 L 85.0 143.0 L 84.0 145.0 L 83.0 148.0 L 83.0 150.0 L 82.0 152.0 L 81.0 154.0 L 80.0 157.0 L 79.0 158.0 L 78.0 160.0 L 78.0 161.0 L 77.0 162.0 L 76.0 163.0 L 76.0 165.0 L 75.0 166.0 L 74.0 167.0 L 73.0 168.0 L 72.0 169.0 L 71.0 170.0 L 71.0 171.0 L 70.0 171.0 L 69.0 172.0 L 69.0 173.0 L 69.0 173.0 L 68.0 174.0 L 68.0 175.0 L 67.0 175.0 L 67.0 176.0 L 66.0 177.0 L 66.0 177.0 L 66.0 177.0 L 66.0 177.0 L 66.0 177.0 L 66.0 177.0 L 66.0 177.0 L 66.0 177.0 L 66.0 177.0 L 66.0 177.0 L 66.0 177.0 L 66.0 177.0 L 66.0 177.0 L 66.0 177.0 L 66.0 177.0 L 66.0 177.0 L 66.0 177.0 L 66.0 177.0 L 67.0 177.0 L 67.0 177.0 L 67.0 177.0 L 67.0 177.0 L 68.0 177.0 L 68.0 177.0 L 69.0 178.0 L 69.0 178.0 L 70.0 178.0 L 70.0 179.0 L 71.0 179.0 L 72.0 180.0 L 73.0 181.0 L 74.0 182.0 L 75.0 183.0 L 76.0 184.0 L 77.0 185.0 L 79.0 186.0 L 80.0 188.0 L 82.0 189.0 L 83.0 190.0 L 85.0 191.0 L 87.0 193.0 L 88.0 194.0 L 90.0 195.0 L 91.0 196.0 L 92.0 197.0 L 93.0 198.0 L 94.0 199.0 L 96.0 200.0 L 97.0 200.0 L 98.0 201.0 L 99.0 202.0 L 100.0 203.0 L 101.0 204.0 L 103.0 205.0 L 104.0 206.0 L 105.0 207.0 L 106.0 208.0 L 107.0 209.0 L 107.0 210.0 L 108.0 211.0 L 109.0 212.0 L 110.0 213.0 L 111.0 214.0 L 112.0 215.0 L 112.0 216.0 L 113.0 217.0 L 114.0 218.0 L 116.0 220.0 L 117.0 221.0 L 118.0 223.0 L 120.0 225.0 L 121.0 226.0 L 123.0 228.0 L 124.0 229.0 L 126.0 231.0 L 128.0 232.0 L 129.0 233.0 L 130.0 234.0 L 132.0 235.0 L 133.0 236.0 L 133.0 237.0 L 134.0 237.0 L 134.0 237.0 L 134.0 237.0 " stroke="black" fill="none" stroke-width="5.0" stroke-linecap="round" stroke-linejoin="round" />
<path d="M 134.0 95.0 L 134.0 95.0 L 134.0 95.0 L 134.0 95.0 L 133.0 95.0 L 133.0 95.0 L 133.0 95.0 L 133.0 95.0 L 133.0 95.0 L 133.0 95.0 L 133.0 95.0 L 133.0 95.0 L 133.0 96.0 L 133.0 97.0 L 133.0 99.0 L 134.0 100.0 L 134.0 102.0 L 135.0 103.0 L 135.0 105.0 L 135.0 107.0 L 136.0 110.0 L 136.0 112.0 L 136.0 115.0 L 136.0 118.0 L 136.0 120.0 L 137.0 123.0 L 137.0 125.0 L 137.0 127.0 L 137.0 130.0 L 137.0 132.0 L 137.0 134.0 L 137.0 136.0 L 137.0 138.0 L 137.0 139.0 L 136.0 141.0 L 136.0 143.0 L 136.0 145.0 L 136.0 147.0 L 135.0 149.0 L 135.0 150.0 L 135.0 152.0 L 135.0 154.0 L 134.0 155.0 L 134.0 156.0 L 133.0 158.0 L 133.0 159.0 L 133.0 161.0 L 132.0 162.0 L 131.0 164.0 L 131.0 166.0 L 130.0 168.0 L 128.0 170.0 L 128.0 172.0 L 126.0 174.0 L 126.0 176.0 L 125.0 178.0 L 124.0 180.0 L 123.0 182.0 L 122.0 184.0 L 121.0 186.0 L 120.0 188.0 L 119.0 190.0 L 118.0 192.0 L 116.0 194.0 L 115.0 196.0 L 114.0 198.0 L 113.0 200.0 L 112.0 202.0 L 111.0 204.0 L 110.0 206.0 L 109.0 208.0 L 107.0 210.0 L 106.0 212.0 L 105.0 214.0 L 104.0 217.0 L 102.0 220.0 L 101.0 222.0 L 99.0 225.0 L 97.0 227.0 L 96.0 229.0 L 94.0 232.0 L 92.0 234.0 L 90.0 235.0 L 87.0 237.0 L 85.0 239.0 L 83.0 240.0 L 80.0 242.0 L 77.0 243.0 L 74.0 245.0 L 71.0 247.0 L 69.0 249.0 L 67.0 250.0 L 65.0 251.0 L 64.0 252.0 L 64.0 252.0 " stroke="black" fill="none" stroke-width="5.0" stroke-linecap="round" stroke-linejoin="round" />
<path d="M 67.0 112.0 L 67.0 112.0 L 66.0 112.0 L 65.0 112.0 L 65.0 112.0 L 64.0 112.0 L 64.0 112.0 L 64.0 113.0 L 64.0 113.0 L 64.0 113.0 L 64.0 113.0 L 65.0 113.0 L 66.0 113.0 L 67.0 113.0 L 69.0 113.0 L 70.0 112.0 L 71.0 112.0 L 72.0 112.0 L 74.0 111.0 L 75.0 111.0 L 77.0 111.0 L 79.0 111.0 L 81.0 110.0 L 83.0 110.0 L 85.0 110.0 L 88.0 110.0 L 90.0 110.0 L 92.0 110.0 L 93.0 110.0 L 95.0 110.0 L 97.0 110.0 L 98.0 110.0 L 100.0 110.0 L 102.0 110.0 L 103.0 110.0 L 105.0 110.0 L 106.0 110.0 L 108.0 109.0 L 109.0 109.0 L 110.0 109.0 L 111.0 109.0 L 112.0 109.0 L 113.0 109.0 L 114.0 109.0 L 116.0 109.0 L 117.0 109.0 L 119.0 108.0 L 121.0 108.0 L 123.0 108.0 L 124.0 107.0 L 126.0 107.0 L 127.0 107.0 L 129.0 107.0 L 130.0 106.0 L 131.0 106.0 L 132.0 106.0 L 134.0 106.0 L 135.0 106.0 L 136.0 106.0 L 137.0 105.0 L 138.0 105.0 L 139.0 105.0 L 141.0 105.0 L 142.0 105.0 L 143.0 105.0 L 145.0 105.0 L 146.0 104.0 L 147.0 104.0 L 149.0 103.0 L 150.0 103.0 L 151.0 102.0 L 152.0 102.0 L 153.0 102.0 " stroke="black" fill="none" stroke-width="5.0" stroke-linecap="round" stroke-linejoin="round" />
<path d="M 162.0 97.0 L 162.0 97.0 L 162.0 97.0 L 161.0 97.0 L 161.0 97.0 L 161.0 97.0 L 160.0 97.0 L 160.0 97.0 L 160.0 97.0 L 160.0 97.0 L 160.0 97.0 L 161.0 98.0 L 161.0 99.0 L 161.0 100.0 L 162.0 101.0 L 162.0 103.0 L 162.0 104.0 L 162.0 106.0 L 162.0 108.0 L 163.0 111.0 L 163.0 113.0 L 163.0 116.0 L 164.0 118.0 L 164.0 121.0 L 164.0 123.0 L 164.0 126.0 L 164.0 128.0 L 164.0 130.0 L 165.0 133.0 L 165.0 135.0 L 165.0 137.0 L 165.0 140.0 L 166.0 142.0 L 166.0 144.0 L 166.0 146.0 L 166.0 148.0 L 166.0 149.0 L 166.0 151.0 L 166.0 153.0 L 166.0 154.0 L 166.0 156.0 L 166.0 157.0 L 166.0 159.0 L 166.0 160.0 L 166.0 162.0 L 166.0 163.0 L 166.0 165.0 L 166.0 166.0 L 165.0 168.0 L 165.0 169.0 L 165.0 171.0 L 165.0 172.0 L 165.0 174.0 L 165.0 176.0 L 165.0 178.0 L 165.0 180.0 L 165.0 182.0 L 165.0 185.0 L 165.0 187.0 L 165.0 189.0 L 165.0 191.0 L 165.0 194.0 L 165.0 196.0 L 164.0 198.0 L 164.0 199.0 L 164.0 201.0 L 164.0 202.0 L 164.0 204.0 L 164.0 206.0 L 164.0 207.0 L 164.0 209.0 L 164.0 210.0 L 164.0 212.0 L 164.0 214.0 L 164.0 215.0 L 164.0 217.0 L 164.0 219.0 L 164.0 221.0 L 164.0 223.0 L 164.0 225.0 L 164.0 226.0 L 164.0 227.0 L 164.0 229.0 L 164.0 230.0 L 164.0 230.0 L 164.0 231.0 L 164.0 232.0 L 164.0 232.0 L 164.0 232.0 L 164.0 231.0 L 164.0 230.0 " stroke="black" fill="none" stroke-width="5.0" stroke-linecap="round" stroke-linejoin="round" />
<path d="M 163.0 94.0 L 163.0 94.0 L 163.0 94.0 L 163.0 94.0 L 163.0 94.0 L 162.0 94.0 L 162.0 94.0 L 162.0 94.0 L 161.0 94.0 L 161.0 94.0 L 161.0 94.0 L 161.0 93.0 L 160.0 93.0 L 160.0 93.0 L 160.0 93.0 L 160.0 93.0 L 160.0 92.0 L 160.0 92.0 L 160.0 92.0 L 160.0 92.0 L 160.0 92.0 L 161.0 91.0 L 162.0 91.0 L 163.0 91.0 L 164.0 91.0 L 164.0 91.0 L 166.0 91.0 L 167.0 91.0 L 168.0 91.0 L 169.0 91.0 L 170.0 91.0 L 171.0 91.0 L 172.0 91.0 L 173.0 91.0 L 174.0 91.0 L 175.0 91.0 L 176.0 91.0 L 177.0 91.0 L 178.0 91.0 L 179.0 91.0 L 180.0 91.0 L 181.0 91.0 L 181.0 91.0 L 182.0 91.0 L 183.0 91.0 L 184.0 91.0 L 184.0 91.0 L 185.0 91.0 L 185.0 91.0 L 186.0 91.0 L 187.0 91.0 L 187.0 91.0 L 188.0 91.0 L 188.0 91.0 L 189.0 91.0 L 189.0 91.0 L 190.0 91.0 L 190.0 91.0 L 190.0 91.0 L 191.0 91.0 L 191.0 91.0 L 192.0 91.0 L 192.0 91.0 L 193.0 92.0 L 193.0 92.0 L 194.0 92.0 L 194.0 92.0 L 195.0 92.0 L 195.0 92.0 L 196.0 92.0 L 196.0 92.0 L 197.0 92.0 L 198.0 92.0 L 198.0 92.0 L 199.0 92.0 L 200.0 92.0 L 200.0 92.0 L 201.0 92.0 L 201.0 92.0 L 202.0 92.0 L 203.0 92.0 L 203.0 92.0 L 204.0 92.0 L 205.0 92.0 L 205.0 92.0 L 206.0 92.0 L 206.0 92.0 L 207.0 92.0 L 208.0 92.0 L 208.0 92.0 L 209.0 92.0 L 210.0 92.0 L 210.0 92.0 L 211.0 92.0 L 212.0 92.0 L 213.0 92.0 L 214.0 92.0 L 215.0 92.0 L 216.0 92.0 L 217.0 92.0 L 218.0 92.0 L 219.0 92.0 L 220.0 92.0 L 221.0 92.0 L 222.0 92.0 L 223.0 92.0 L 224.0 92.0 L 225.0 92.0 L 225.0 92.0 L 226.0 92.0 L 226.0 92.0 L 227.0 92.0 L 227.0 92.0 L 227.0 92.0 L 228.0 92.0 L 228.0 92.0 L 228.0 92.0 L 228.0 92.0 L 228.0 92.0 L 228.0 92.0 L 228.0 92.0 L 228.0 92.0 L 228.0 92.0 L 228.0 92.0 L 228.0 92.0 L 228.0 92.0 L 228.0 93.0 L 228.0 93.0 L 228.0 93.0 L 228.0 93.0 L 228.0 94.0 L 228.0 94.0 L 228.0 95.0 L 228.0 96.0 L 227.0 97.0 L 227.0 99.0 L 227.0 100.0 L 227.0 102.0 L 227.0 104.0 L 227.0 106.0 L 227.0 108.0 L 227.0 110.0 L 227.0 112.0 L 227.0 114.0 L 227.0 116.0 L 227.0 118.0 L 227.0 120.0 L 226.0 122.0 L 226.0 124.0 L 226.0 126.0 L 226.0 128.0 L 226.0 129.0 L 226.0 131.0 L 225.0 133.0 L 225.0 134.0 L 225.0 136.0 L 225.0 138.0 L 225.0 140.0 L 225.0 142.0 L 225.0 144.0 L 224.0 146.0 L 224.0 148.0 L 224.0 150.0 L 224.0 152.0 L 224.0 154.0 L 224.0 156.0 L 224.0 157.0 L 224.0 159.0 L 224.0 161.0 L 224.0 162.0 L 224.0 164.0 L 224.0 166.0 L 224.0 168.0 L 224.0 170.0 L 224.0 171.0 L 224.0 173.0 L 224.0 175.0 L 224.0 176.0 L 223.0 178.0 L 223.0 180.0 L 223.0 183.0 L 222.0 185.0 L 222.0 187.0 L 221.0 190.0 L 221.0 192.0 L 221.0 194.0 L 221.0 196.0 L 220.0 198.0 L 220.0 200.0 L 220.0 202.0 L 220.0 204.0 L 220.0 207.0 L 220.0 209.0 L 220.0 211.0 L 220.0 214.0 L 220.0 216.0 L 220.0 218.0 L 220.0 220.0 L 220.0 223.0 L 220.0 225.0 L 220.0 227.0 L 220.0 229.0 L 220.0 230.0 L 220.0 232.0 L 220.0 234.0 L 220.0 235.0 L 220.0 236.0 L 220.0 237.0 L 220.0 238.0 L 220.0 239.0 L 220.0 239.0 L 220.0 240.0 L 220.0 241.0 L 220.0 242.0 L 220.0 242.0 L 220.0 243.0 L 220.0 243.0 L 219.0 243.0 L 219.0 243.0 L 219.0 243.0 L 219.0 243.0 L 219.0 243.0 L 219.0 243.0 L 219.0 242.0 " stroke="black" fill="none" stroke-width="5.0" stroke-linecap="round" stroke-linejoin="round" />
<path d="M 162.0 236.0 L 162.0 236.0 L 162.0 236.0 L 161.0 236.0 L 161.0 236.0 L 161.0 236.0 L 160.0 236.0 L 160.0 236.0 L 160.0 236.0 L 160.0 237.0 L 160.0 237.0 L 161.0 237.0 L 162.0 237.0 L 163.0 238.0 L 165.0 238.0 L 166.0 239.0 L 168.0 239.0 L 171.0 240.0 L 173.0 240.0 L 175.0 240.0 L 178.0 241.0 L 181.0 241.0 L 183.0 241.0 L 185.0 241.0 L 188.0 242.0 L 190.0 242.0 L 191.0 242.0 L 193.0 242.0 L 194.0 243.0 L 196.0 243.0 L 197.0 243.0 L 198.0 243.0 L 199.0 244.0 L 200.0 244.0 L 202.0 244.0 L 203.0 244.0 L 205.0 245.0 L 206.0 245.0 L 207.0 245.0 L 209.0 245.0 L 210.0 245.0 L 211.0 245.0 L 212.0 245.0 L 214.0 245.0 L 214.0 245.0 L 215.0 245.0 L 216.0 245.0 L 217.0 244.0 L 217.0 244.0 L 218.0 244.0 L 218.0 244.0 L 218.0 244.0 L 218.0 244.0 L 218.0 244.0 " stroke="black" fill="none" stroke-width="5.0" stroke-linecap="round" stroke-linejoin="round" />
</svg>