<svg xmlns="http://www.w3.org/2000/svg" width="300" height="300" viewBox="0 0 300 300">
<path d="M 98.0 73.0 L 98.0 73.0 L 98.0 72.0 L 97.0 72.0 L 97.0 71.0 L 97.0 71.0 L 97.0 71.0 L 97.0 71.0 L 97.0 71.0 L 97.0 71.0 L 97.0 72.0 L 97.0 74.0 L 97.0 76.0 L 97.0 78.0 L 97.0 82.0 L 97.0 86.0 L 96.0 91.0 L 95.0 98.0 L 94.0 105.0 L 93.0 114.0 L 91.0 120.0 L 90.0 127.0 L 88.0 134.0 L 87.0 139.0 L 86.0 146.0 L 85.0 152.0 L 84.0 156.0 L 83.0 160.0 L 82.0 163.0 L 81.0 166.0 L 80.0 168.0 L 79.0 170.0 L 78.0 171.0 L 78.0 172.0 L 77.0 174.0 L 76.0 175.0 L 76.0 177.0 L 75.0 179.0 L 74.0 180.0 L 74.0 182.0 L 73.0 184.0 L 72.0 186.0 L 72.0 187.0 L 71.0 187.0 L 71.0 188.0 L 71.0 188.0 L 71.0 188.0 L 71.0 188.0 L 71.0 188.0 L 71.0 188.0 L 71.0 188.0 L 71.0 188.0 L 72.0 188.0 L 73.0 188.0 L 73.0 188.0 L 74.0 188.0 L 76.0 189.0 L 77.0 189.0 L 80.0 191.0 L 83.0 192.0 L 86.0 195.0 L 91.0 198.0 L 97.0 203.0 L 102.0 208.0 L 108.0 215.0 L 113.0 223.0 L 118.0 229.0 L 124.0 235.0 L 128.0 239.0 L 133.0 242.0 L 137.0 244.0 L 139.0 245.0 L 139.0 246.0 L 140.0 246.0 L 140.0 246.0 L 140.0 246.0 L 138.0 243.0 " stroke="black" fill="none" stroke-width="5.0" stroke-linecap="round" stroke-linejoin="round" />
<path d="M 135.0 97.0 L 135.0 98.0 L 135.0 99.0 L 135.0 101.0 L 135.0 102.0 L 135.0 104.0 L 135.0 105.0 L 135.0 107.0 L 135.0 110.0 L 135.0 114.0 L 135.0 120.0 L 135.0 127.0 L 135.0 137.0 L 133.0 150.0 L 130.0 164.0 L 127.0 177.0 L 122.0 191.0 L 117.0 204.0 L 112.0 214.0 L 108.0 223.0 L 103.0 232.0 L 99.0 238.0 L 93.0 243.0 L 87.0 247.0 L 81.0 249.0 " stroke="black" fill="none" stroke-width="5.0" stroke-linecap="round" stroke-linejoin="round" />
<path d="M 75.0 114.0 L 74.0 114.0 L 73.0 114.0 L 72.0 114.0 L 71.0 114.0 L 71.0 114.0 L 71.0 114.0 L 71.0 114.0 L 73.0 114.0 L 77.0 114.0 L 82.0 114.0 L 88.0 114.0 L 95.0 114.0 L 103.0 114.0 L 111.0 114.0 L 119.0 114.0 L 128.0 114.0 L 139.0 113.0 L 146.0 112.0 " stroke="black" fill="none" stroke-width="5.0" stroke-linecap="round" stroke-linejoin="round" />
<path d="M 167.0 98.0 L 166.0 98.0 L 165.0 98.0 L 164.0 97.0 L 164.0 97.0 L 164.0 98.0 L 164.0 100.0 L 164.0 104.0 L 164.0 109.0 L 164.0 115.0 L 164.0 124.0 L 165.0 136.0 L 165.0 150.0 L 165.0 165.0 L 165.0 180.0 L 165.0 195.0 L 165.0 208.0 L 164.0 218.0 L 164.0 227.0 L 164.0 235.0 L 164.0 239.0 L 165.0 241.0 L 166.0 242.0 " stroke="black" fill="none" stroke-width="5.0" stroke-linecap="round" stroke-linejoin="round" />
<path d="M 173.0 92.0 L 172.0 92.0 L 171.0 91.0 L 170.0 91.0 L 170.0 91.0 L 170.0 91.0 L 170.0 91.0 L 170.0 91.0 L 171.0 91.0 L 172.0 91.0 L 174.0 91.0 L 176.0 91.0 L 179.0 91.0 L 182.0 92.0 L 185.0 92.0 L 188.0 92.0 L 191.0 92.0 L 195.0 92.0 L 198.0 92.0 L 203.0 92.0 L 207.0 91.0 L 212.0 91.0 L 217.0 90.0 L 221.0 90.0 L 224.0 90.0 L 227.0 90.0 L 229.0 90.0 L 231.0 92.0 L 233.0 93.0 L 234.0 95.0 L 234.0 96.0 L 235.0 98.0 L 236.0 99.0 L 236.0 101.0 L 236.0 103.0 L 236.0 106.0 L 236.0 110.0 L 236.0 114.0 L 236.0 119.0 L 236.0 125.0 L 236.0 132.0 L 236.0 140.0 L 235.0 150.0 L 235.0 160.0 L 235.0 169.0 L 235.0 178.0 L 235.0 187.0 L 235.0 194.0 L 235.0 201.0 L 235.0 207.0 L 235.0 212.0 L 234.0 218.0 L 234.0 224.0 L 234.0 229.0 L 234.0 233.0 L 233.0 236.0 L 233.0 238.0 L 233.0 238.0 L 232.0 238.0 L 232.0 238.0 " stroke="black" fill="none" stroke-width="5.0" stroke-linecap="round" stroke-linejoin="round" />
<path d="M 166.0 226.0 L 165.0 226.0 L 162.0 227.0 L 160.0 227.0 L 159.0 228.0 L 159.0 228.0 L 159.0 228.0 L 161.0 228.0 L 165.0 228.0 L 170.0 227.0 L 177.0 227.0 L 183.0 226.0 L 190.0 225.0 L 196.0 224.0 L 202.0 224.0 L 210.0 223.0 L 217.0 223.0 L 223.0 222.0 L 227.0 222.0 L 232.0 222.0 " stroke="black" fill="none" stroke-width="5.0" stroke-linecap="round" stroke-linejoin="round" />
</svg>