<svg xmlns="http://www.w3.org/2000/svg" width="300" height="300" viewBox="0 0 300 300">
<path d="M 141.0 74.0 L 141.0 73.0 L 140.0 73.0 L 139.0 72.0 L 139.0 72.0 L 139.0 71.0 L 139.0 71.0 L 139.0 71.0 L 139.0 71.0 L 140.0 73.0 L 142.0 74.0 L 143.0 76.0 L 144.0 78.0 L 146.0 81.0 L 147.0 84.0 L 149.0 86.0 L 151.0 89.0 L 153.0 91.0 L 154.0 93.0 L 155.0 94.0 " stroke="black" fill="none" stroke-width="5.0" stroke-linecap="round" stroke-linejoin="round" />
<path d="M 70.0 98.0 L 70.0 99.0 L 70.0 99.0 L 70.0 100.0 L 70.0 101.0 L 70.0 103.0 L 70.0 105.0 L 70.0 107.0 L 70.0 111.0 L 70.0 114.0 L 70.0 117.0 L 70.0 119.0 L 71.0 121.0 L 71.0 122.0 " stroke="black" fill="none" stroke-width="5.0" stroke-linecap="round" stroke-linejoin="round" />
<path d="M 71.0 98.0 L 71.0 98.0 L 71.0 98.0 L 70.0 98.0 L 70.0 98.0 L 70.0 98.0 L 69.0 97.0 L 69.0 97.0 L 69.0 97.0 L 69.0 97.0 L 69.0 97.0 L 69.0 97.0 L 69.0 96.0 L 70.0 96.0 L 70.0 96.0 L 71.0 96.0 L 72.0 96.0 L 72.0 95.0 L 73.0 95.0 L 74.0 95.0 L 75.0 95.0 L 76.0 95.0 L 77.0 95.0 L 78.0 95.0 L 79.0 95.0 L 81.0 95.0 L 82.0 95.0 L 84.0 95.0 L 85.0 95.0 L 87.0 95.0 L 88.0 95.0 L 89.0 95.0 L 90.0 95.0 L 91.0 95.0 L 93.0 95.0 L 93.0 95.0 L 94.0 95.0 L 95.0 95.0 L 96.0 95.0 L 97.0 95.0 L 98.0 95.0 L 99.0 95.0 L 100.0 95.0 L 101.0 95.0 L 102.0 95.0 L 103.0 95.0 L 104.0 95.0 L 105.0 95.0 L 106.0 95.0 L 106.0 95.0 L 107.0 95.0 L 108.0 95.0 L 109.0 95.0 L 110.0 95.0 L 110.0 95.0 L 111.0 94.0 L 112.0 94.0 L 113.0 94.0 L 114.0 94.0 L 115.0 94.0 L 116.0 94.0 L 117.0 93.0 L 118.0 93.0 L 119.0 93.0 L 119.0 93.0 L 121.0 93.0 L 121.0 93.0 L 123.0 93.0 L 123.0 93.0 L 124.0 93.0 L 126.0 93.0 L 127.0 93.0 L 128.0 93.0 L 129.0 93.0 L 130.0 93.0 L 131.0 93.0 L 132.0 93.0 L 134.0 93.0 L 135.0 93.0 L 136.0 93.0 L 137.0 93.0 L 138.0 93.0 L 140.0 93.0 L 141.0 93.0 L 142.0 93.0 L 143.0 93.0 L 144.0 93.0 L 145.0 92.0 L 146.0 92.0 L 146.0 92.0 L 147.0 92.0 L 148.0 92.0 L 148.0 92.0 L 149.0 92.0 L 149.0 92.0 L 150.0 92.0 L 150.0 92.0 L 151.0 92.0 L 151.0 92.0 L 152.0 92.0 L 152.0 92.0 L 153.0 92.0 L 153.0 92.0 L 153.0 92.0 L 154.0 92.0 L 155.0 92.0 L 155.0 92.0 L 156.0 92.0 L 157.0 92.0 L 157.0 93.0 L 158.0 93.0 L 159.0 93.0 L 160.0 93.0 L 161.0 93.0 L 162.0 93.0 L 163.0 93.0 L 164.0 93.0 L 165.0 93.0 L 166.0 93.0 L 168.0 93.0 L 169.0 93.0 L 170.0 93.0 L 171.0 93.0 L 172.0 93.0 L 174.0 93.0 L 175.0 93.0 L 176.0 93.0 L 177.0 92.0 L 178.0 92.0 L 178.0 92.0 L 180.0 92.0 L 180.0 92.0 L 181.0 92.0 L 182.0 92.0 L 183.0 92.0 L 183.0 92.0 L 184.0 92.0 L 185.0 92.0 L 185.0 92.0 L 186.0 92.0 L 187.0 92.0 L 187.0 92.0 L 188.0 92.0 L 188.0 92.0 L 189.0 92.0 L 189.0 92.0 L 190.0 93.0 L 190.0 93.0 L 191.0 93.0 L 191.0 93.0 L 192.0 93.0 L 192.0 93.0 L 193.0 93.0 L 193.0 93.0 L 194.0 93.0 L 194.0 94.0 L 195.0 94.0 L 195.0 94.0 L 196.0 94.0 L 196.0 94.0 L 197.0 94.0 L 197.0 94.0 L 198.0 94.0 L 198.0 94.0 L 199.0 94.0 L 200.0 94.0 L 200.0 94.0 L 201.0 94.0 L 202.0 94.0 L 202.0 94.0 L 203.0 94.0 L 204.0 94.0 L 205.0 94.0 L 206.0 94.0 L 206.0 94.0 L 207.0 94.0 L 209.0 94.0 L 209.0 94.0 L 210.0 94.0 L 211.0 94.0 L 212.0 94.0 L 213.0 94.0 L 214.0 94.0 L 215.0 94.0 L 216.0 94.0 L 217.0 94.0 L 218.0 94.0 L 219.0 94.0 L 220.0 94.0 L 220.0 94.0 L 221.0 94.0 L 222.0 94.0 L 222.0 94.0 L 223.0 94.0 L 223.0 94.0 L 223.0 94.0 L 224.0 94.0 L 224.0 94.0 L 224.0 95.0 L 225.0 95.0 L 225.0 95.0 L 225.0 95.0 L 226.0 95.0 L 226.0 95.0 L 226.0 95.0 L 226.0 96.0 L 227.0 96.0 L 227.0 96.0 L 227.0 96.0 L 227.0 96.0 L 227.0 96.0 L 227.0 97.0 L 227.0 97.0 L 228.0 97.0 L 228.0 97.0 L 228.0 97.0 L 228.0 97.0 L 228.0 97.0 L 228.0 98.0 L 228.0 98.0 L 228.0 98.0 L 228.0 98.0 L 228.0 99.0 L 228.0 99.0 L 228.0 100.0 L 228.0 100.0 L 228.0 101.0 L 228.0 102.0 L 228.0 103.0 L 228.0 104.0 L 228.0 105.0 L 227.0 107.0 L 227.0 109.0 L 227.0 110.0 L 226.0 113.0 L 226.0 115.0 L 225.0 117.0 L 225.0 119.0 L 224.0 121.0 L 224.0 122.0 " stroke="black" fill="none" stroke-width="5.0" stroke-linecap="round" stroke-linejoin="round" />
<path d="M 130.0 98.0 L 130.0 98.0 L 130.0 97.0 L 130.0 97.0 L 130.0 96.0 L 130.0 96.0 L 130.0 96.0 L 130.0 96.0 L 130.0 96.0 L 130.0 96.0 L 130.0 96.0 L 130.0 96.0 L 130.0 97.0 L 130.0 99.0 L 130.0 101.0 L 130.0 103.0 L 130.0 106.0 L 130.0 109.0 L 130.0 112.0 L 129.0 116.0 L 128.0 119.0 L 127.0 122.0 L 126.0 125.0 L 125.0 129.0 L 123.0 132.0 L 122.0 135.0 L 120.0 138.0 L 118.0 142.0 L 116.0 145.0 L 114.0 148.0 L 111.0 151.0 L 109.0 153.0 L 107.0 155.0 L 104.0 158.0 L 102.0 160.0 L 99.0 161.0 L 96.0 162.0 L 94.0 163.0 L 93.0 163.0 " stroke="black" fill="none" stroke-width="5.0" stroke-linecap="round" stroke-linejoin="round" />
<path d="M 176.0 100.0 L 176.0 100.0 L 176.0 100.0 L 176.0 100.0 L 176.0 100.0 L 176.0 99.0 L 176.0 99.0 L 176.0 99.0 L 176.0 99.0 L 176.0 99.0 L 176.0 99.0 L 176.0 100.0 L 176.0 101.0 L 176.0 103.0 L 175.0 105.0 L 175.0 108.0 L 175.0 111.0 L 175.0 114.0 L 174.0 117.0 L 174.0 120.0 L 174.0 123.0 L 174.0 126.0 L 173.0 128.0 L 173.0 131.0 L 173.0 133.0 L 173.0 135.0 L 173.0 136.0 L 173.0 138.0 L 173.0 139.0 L 173.0 141.0 L 173.0 142.0 L 173.0 143.0 L 173.0 144.0 L 173.0 145.0 L 173.0 146.0 L 173.0 147.0 L 173.0 148.0 L 173.0 148.0 L 173.0 149.0 L 173.0 150.0 L 173.0 150.0 L 174.0 150.0 L 174.0 151.0 L 175.0 151.0 L 175.0 152.0 L 176.0 152.0 L 176.0 152.0 L 177.0 153.0 L 178.0 153.0 L 178.0 153.0 L 180.0 153.0 L 181.0 154.0 L 182.0 154.0 L 184.0 154.0 L 185.0 154.0 L 187.0 155.0 L 189.0 155.0 L 191.0 155.0 L 193.0 155.0 L 196.0 155.0 L 198.0 156.0 L 201.0 156.0 L 204.0 156.0 L 208.0 156.0 L 211.0 156.0 L 215.0 156.0 L 219.0 156.0 L 223.0 156.0 L 226.0 156.0 L 230.0 156.0 L 231.0 156.0 " stroke="black" fill="none" stroke-width="5.0" stroke-linecap="round" stroke-linejoin="round" />
<path d="M 92.0 187.0 L 92.0 187.0 L 92.0 187.0 L 92.0 187.0 L 92.0 186.0 L 92.0 186.0 L 92.0 186.0 L 92.0 186.0 L 92.0 186.0 L 92.0 186.0 L 93.0 186.0 L 93.0 186.0 L 94.0 186.0 L 95.0 186.0 L 96.0 186.0 L 98.0 187.0 L 99.0 187.0 L 101.0 188.0 L 102.0 188.0 L 104.0 188.0 L 105.0 188.0 L 106.0 188.0 L 108.0 188.0 L 109.0 188.0 L 110.0 188.0 L 111.0 188.0 L 113.0 188.0 L 114.0 188.0 L 115.0 188.0 L 116.0 188.0 L 118.0 188.0 L 119.0 188.0 L 120.0 188.0 L 122.0 188.0 L 123.0 188.0 L 125.0 188.0 L 126.0 188.0 L 128.0 188.0 L 130.0 188.0 L 131.0 188.0 L 133.0 188.0 L 134.0 189.0 L 135.0 189.0 L 137.0 189.0 L 138.0 189.0 L 139.0 189.0 L 141.0 190.0 L 142.0 190.0 L 143.0 190.0 L 145.0 190.0 L 146.0 190.0 L 147.0 190.0 L 149.0 190.0 L 150.0 190.0 L 151.0 190.0 L 152.0 190.0 L 153.0 190.0 L 155.0 190.0 L 156.0 190.0 L 157.0 190.0 L 159.0 190.0 L 160.0 190.0 L 162.0 190.0 L 164.0 190.0 L 167.0 190.0 L 169.0 190.0 L 172.0 190.0 L 174.0 190.0 L 177.0 190.0 L 179.0 190.0 L 182.0 190.0 L 184.0 190.0 L 186.0 190.0 L 188.0 190.0 L 190.0 190.0 L 191.0 190.0 L 193.0 190.0 L 194.0 190.0 L 195.0 190.0 L 195.0 190.0 L 196.0 190.0 " stroke="black" fill="none" stroke-width="5.0" stroke-linecap="round" stroke-linejoin="round" />
<path d="M 150.0 193.0 L 150.0 193.0 L 150.0 193.0 L 150.0 193.0 L 150.0 193.0 L 150.0 193.0 L 150.0 194.0 L 150.0 196.0 L 150.0 198.0 L 150.0 202.0 L 150.0 206.0 L 150.0 211.0 L 150.0 217.0 L 150.0 223.0 L 150.0 229.0 L 150.0 235.0 L 150.0 238.0 L 150.0 241.0 L 150.0 242.0 L 150.0 242.0 " stroke="black" fill="none" stroke-width="5.0" stroke-linecap="round" stroke-linejoin="round" />
<path d="M 66.0 251.0 L 66.0 251.0 L 66.0 251.0 L 66.0 251.0 L 65.0 251.0 L 65.0 251.0 L 65.0 251.0 L 64.0 251.0 L 64.0 251.0 L 64.0 251.0 L 64.0 251.0 L 64.0 251.0 L 64.0 251.0 L 65.0 251.0 L 66.0 251.0 L 66.0 250.0 L 67.0 250.0 L 68.0 250.0 L 69.0 250.0 L 70.0 249.0 L 71.0 249.0 L 72.0 249.0 L 73.0 249.0 L 75.0 249.0 L 76.0 249.0 L 77.0 249.0 L 79.0 249.0 L 80.0 249.0 L 82.0 249.0 L 83.0 249.0 L 85.0 249.0 L 87.0 249.0 L 89.0 249.0 L 90.0 249.0 L 92.0 249.0 L 94.0 249.0 L 95.0 249.0 L 97.0 250.0 L 98.0 250.0 L 99.0 250.0 L 101.0 250.0 L 102.0 250.0 L 103.0 250.0 L 104.0 250.0 L 105.0 250.0 L 106.0 250.0 L 107.0 250.0 L 108.0 250.0 L 108.0 250.0 L 109.0 250.0 L 110.0 250.0 L 111.0 250.0 L 112.0 250.0 L 113.0 250.0 L 114.0 250.0 L 115.0 250.0 L 116.0 250.0 L 118.0 250.0 L 119.0 250.0 L 121.0 250.0 L 123.0 250.0 L 125.0 250.0 L 127.0 250.0 L 129.0 250.0 L 132.0 250.0 L 135.0 250.0 L 137.0 250.0 L 139.0 250.0 L 142.0 250.0 L 143.0 250.0 L 145.0 250.0 L 147.0 250.0 L 148.0 250.0 L 149.0 250.0 L 149.0 250.0 L 150.0 250.0 L 151.0 250.0 L 151.0 250.0 L 152.0 250.0 L 152.0 249.0 L 153.0 249.0 L 154.0 249.0 L 154.0 249.0 L 155.0 249.0 L 156.0 249.0 L 157.0 249.0 L 158.0 249.0 L 159.0 248.0 L 160.0 248.0 L 161.0 248.0 L 162.0 248.0 L 164.0 248.0 L 165.0 248.0 L 166.0 248.0 L 168.0 248.0 L 169.0 248.0 L 171.0 248.0 L 173.0 248.0 L 175.0 248.0 L 177.0 248.0 L 180.0 248.0 L 182.0 248.0 L 185.0 248.0 L 187.0 248.0 L 190.0 248.0 L 193.0 248.0 L 195.0 248.0 L 198.0 248.0 L 200.0 248.0 L 203.0 248.0 L 206.0 248.0 L 208.0 248.0 L 211.0 248.0 L 214.0 248.0 L 216.0 248.0 L 219.0 248.0 L 222.0 248.0 L 224.0 248.0 L 227.0 248.0 L 229.0 248.0 L 231.0 248.0 L 233.0 248.0 L 235.0 247.0 L 237.0 247.0 L 237.0 247.0 L 238.0 247.0 L 239.0 247.0 L 239.0 247.0 " stroke="black" fill="none" stroke-width="5.0" stroke-linecap="round" stroke-linejoin="round" />
</svg>