<svg xmlns="http://www.w3.org/2000/svg" width="300" height="300" viewBox="0 0 300 300">
<path d="M 86.0 76.0 L 86.0 75.0 L 86.0 74.0 L 86.0 73.0 L 86.0 73.0 L 85.0 72.0 L 85.0 72.0 L 85.0 72.0 L 85.0 72.0 L 85.0 73.0 L 85.0 75.0 L 86.0 76.0 L 88.0 80.0 L 89.0 82.0 L 91.0 85.0 L 92.0 87.0 L 93.0 89.0 L 94.0 91.0 " stroke="black" fill="none" stroke-width="5.0" stroke-linecap="round" stroke-linejoin="round" />
<path d="M 66.0 99.0 L 66.0 99.0 L 66.0 98.0 L 66.0 97.0 L 66.0 97.0 L 65.0 96.0 L 65.0 96.0 L 65.0 95.0 L 65.0 95.0 L 65.0 95.0 L 65.0 95.0 L 66.0 95.0 L 68.0 95.0 L 71.0 96.0 L 75.0 97.0 L 81.0 98.0 L 88.0 99.0 L 95.0 99.0 L 102.0 99.0 L 107.0 99.0 L 110.0 99.0 L 113.0 99.0 L 115.0 100.0 L 115.0 100.0 " stroke="black" fill="none" stroke-width="5.0" stroke-linecap="round" stroke-linejoin="round" />
<path d="M 71.0 113.0 L 71.0 112.0 L 72.0 111.0 L 72.0 111.0 L 72.0 110.0 L 72.0 109.0 L 72.0 109.0 L 72.0 108.0 L 73.0 108.0 L 73.0 108.0 L 73.0 109.0 L 74.0 111.0 L 74.0 114.0 L 76.0 118.0 L 77.0 123.0 L 79.0 128.0 L 80.0 135.0 L 82.0 141.0 L 84.0 146.0 L 85.0 150.0 L 87.0 152.0 L 88.0 153.0 L 88.0 153.0 " stroke="black" fill="none" stroke-width="5.0" stroke-linecap="round" stroke-linejoin="round" />
<path d="M 109.0 112.0 L 109.0 112.0 L 109.0 111.0 L 109.0 110.0 L 109.0 109.0 L 109.0 109.0 L 109.0 109.0 L 108.0 109.0 L 108.0 110.0 L 108.0 112.0 L 107.0 115.0 L 106.0 118.0 L 105.0 122.0 L 104.0 127.0 L 102.0 132.0 L 101.0 137.0 L 99.0 143.0 L 98.0 148.0 L 96.0 152.0 L 95.0 155.0 L 94.0 157.0 L 93.0 158.0 L 93.0 158.0 " stroke="black" fill="none" stroke-width="5.0" stroke-linecap="round" stroke-linejoin="round" />
<path d="M 68.0 158.0 L 68.0 158.0 L 68.0 158.0 L 68.0 157.0 L 67.0 157.0 L 66.0 157.0 L 66.0 157.0 L 65.0 157.0 L 65.0 157.0 L 65.0 157.0 L 64.0 157.0 L 64.0 156.0 L 64.0 156.0 L 64.0 156.0 L 66.0 156.0 L 68.0 156.0 L 72.0 156.0 L 78.0 156.0 L 85.0 156.0 L 94.0 156.0 L 101.0 155.0 L 107.0 154.0 L 112.0 153.0 L 116.0 153.0 L 118.0 153.0 L 120.0 153.0 L 120.0 154.0 " stroke="black" fill="none" stroke-width="5.0" stroke-linecap="round" stroke-linejoin="round" />
<path d="M 66.0 192.0 L 66.0 192.0 L 66.0 191.0 L 65.0 191.0 L 64.0 191.0 L 63.0 191.0 L 63.0 191.0 L 63.0 191.0 L 62.0 191.0 L 62.0 191.0 L 63.0 191.0 L 64.0 191.0 L 67.0 192.0 L 71.0 193.0 L 76.0 193.0 L 82.0 194.0 L 89.0 194.0 L 97.0 194.0 L 103.0 194.0 L 108.0 193.0 L 113.0 192.0 L 115.0 190.0 L 116.0 189.0 L 116.0 189.0 L 116.0 189.0 " stroke="black" fill="none" stroke-width="5.0" stroke-linecap="round" stroke-linejoin="round" />
<path d="M 91.0 166.0 L 91.0 166.0 L 91.0 165.0 L 91.0 164.0 L 92.0 163.0 L 92.0 162.0 L 92.0 162.0 L 92.0 162.0 L 92.0 162.0 L 93.0 162.0 L 93.0 162.0 L 93.0 163.0 L 93.0 164.0 L 93.0 167.0 L 93.0 170.0 L 93.0 175.0 L 92.0 181.0 L 91.0 188.0 L 90.0 195.0 L 88.0 203.0 L 85.0 211.0 L 83.0 219.0 L 79.0 227.0 L 76.0 235.0 L 72.0 240.0 L 69.0 244.0 L 67.0 248.0 L 65.0 250.0 L 64.0 250.0 L 64.0 250.0 " stroke="black" fill="none" stroke-width="5.0" stroke-linecap="round" stroke-linejoin="round" />
<path d="M 140.0 135.0 L 140.0 135.0 L 140.0 134.0 L 139.0 133.0 L 139.0 133.0 L 139.0 132.0 L 138.0 132.0 L 138.0 132.0 L 138.0 132.0 L 139.0 133.0 L 139.0 135.0 L 141.0 138.0 L 142.0 141.0 L 143.0 144.0 L 144.0 148.0 L 145.0 151.0 L 146.0 155.0 L 148.0 158.0 L 148.0 160.0 " stroke="black" fill="none" stroke-width="5.0" stroke-linecap="round" stroke-linejoin="round" />
<path d="M 155.0 74.0 L 155.0 74.0 L 155.0 74.0 L 155.0 74.0 L 155.0 74.0 L 155.0 74.0 L 155.0 74.0 L 155.0 74.0 L 155.0 75.0 L 155.0 77.0 L 155.0 79.0 L 156.0 82.0 L 156.0 85.0 L 157.0 90.0 L 158.0 96.0 L 158.0 103.0 L 158.0 110.0 L 158.0 116.0 L 158.0 123.0 L 158.0 130.0 L 158.0 137.0 L 157.0 145.0 L 157.0 152.0 L 156.0 159.0 L 155.0 165.0 L 154.0 172.0 L 152.0 180.0 L 150.0 190.0 L 148.0 200.0 L 146.0 208.0 L 143.0 216.0 L 139.0 224.0 L 135.0 232.0 L 132.0 237.0 L 129.0 241.0 L 128.0 242.0 " stroke="black" fill="none" stroke-width="5.0" stroke-linecap="round" stroke-linejoin="round" />
<path d="M 200.0 73.0 L 200.0 73.0 L 200.0 72.0 L 201.0 71.0 L 201.0 70.0 L 201.0 70.0 L 201.0 70.0 L 202.0 70.0 L 202.0 71.0 L 203.0 73.0 L 205.0 76.0 L 206.0 79.0 L 207.0 82.0 L 208.0 86.0 L 209.0 89.0 L 209.0 92.0 L 209.0 95.0 L 209.0 96.0 " stroke="black" fill="none" stroke-width="5.0" stroke-linecap="round" stroke-linejoin="round" />
<path d="M 192.0 105.0 L 192.0 105.0 L 191.0 105.0 L 190.0 105.0 L 189.0 105.0 L 188.0 105.0 L 187.0 105.0 L 187.0 105.0 L 186.0 105.0 L 186.0 105.0 L 186.0 105.0 L 188.0 106.0 L 190.0 106.0 L 193.0 107.0 L 196.0 107.0 L 201.0 107.0 L 207.0 107.0 L 213.0 107.0 L 220.0 107.0 L 227.0 107.0 L 233.0 107.0 L 237.0 107.0 L 239.0 107.0 " stroke="black" fill="none" stroke-width="5.0" stroke-linecap="round" stroke-linejoin="round" />
<path d="M 194.0 114.0 L 194.0 114.0 L 194.0 113.0 L 194.0 113.0 L 194.0 112.0 L 193.0 112.0 L 193.0 112.0 L 193.0 113.0 L 193.0 114.0 L 193.0 117.0 L 194.0 120.0 L 194.0 124.0 L 195.0 129.0 L 196.0 134.0 L 197.0 140.0 L 199.0 145.0 L 200.0 149.0 " stroke="black" fill="none" stroke-width="5.0" stroke-linecap="round" stroke-linejoin="round" />
<path d="M 230.0 113.0 L 230.0 113.0 L 229.0 113.0 L 228.0 113.0 L 228.0 113.0 L 227.0 114.0 L 226.0 116.0 L 225.0 118.0 L 224.0 121.0 L 223.0 125.0 L 222.0 129.0 L 220.0 134.0 L 219.0 138.0 L 216.0 143.0 L 214.0 147.0 L 211.0 150.0 L 208.0 153.0 " stroke="black" fill="none" stroke-width="5.0" stroke-linecap="round" stroke-linejoin="round" />
<path d="M 192.0 156.0 L 191.0 156.0 L 190.0 156.0 L 188.0 156.0 L 187.0 155.0 L 185.0 155.0 L 184.0 155.0 L 182.0 155.0 L 181.0 155.0 L 180.0 155.0 L 180.0 155.0 L 179.0 155.0 L 179.0 155.0 L 180.0 155.0 L 183.0 156.0 L 186.0 156.0 L 191.0 156.0 L 196.0 156.0 L 203.0 156.0 L 211.0 154.0 L 220.0 153.0 L 229.0 151.0 L 235.0 151.0 L 240.0 151.0 L 243.0 151.0 L 244.0 152.0 L 244.0 153.0 " stroke="black" fill="none" stroke-width="5.0" stroke-linecap="round" stroke-linejoin="round" />
<path d="M 189.0 197.0 L 189.0 197.0 L 189.0 196.0 L 188.0 196.0 L 187.0 196.0 L 187.0 196.0 L 187.0 195.0 L 187.0 195.0 L 187.0 195.0 L 187.0 195.0 L 189.0 195.0 L 191.0 195.0 L 195.0 195.0 L 200.0 195.0 L 206.0 195.0 L 213.0 195.0 L 220.0 195.0 L 226.0 196.0 L 232.0 196.0 L 236.0 196.0 L 238.0 196.0 L 239.0 196.0 " stroke="black" fill="none" stroke-width="5.0" stroke-linecap="round" stroke-linejoin="round" />
<path d="M 208.0 154.0 L 208.0 153.0 L 210.0 150.0 L 210.0 148.0 L 210.0 147.0 L 210.0 147.0 L 210.0 148.0 L 210.0 150.0 L 210.0 152.0 L 210.0 155.0 L 210.0 159.0 L 209.0 163.0 L 208.0 168.0 L 207.0 173.0 L 206.0 181.0 L 205.0 189.0 L 205.0 200.0 L 204.0 210.0 L 204.0 220.0 L 204.0 231.0 L 204.0 240.0 L 204.0 248.0 L 204.0 255.0 L 205.0 261.0 L 206.0 264.0 " stroke="black" fill="none" stroke-width="5.0" stroke-linecap="round" stroke-linejoin="round" />
</svg>