<svg xmlns="http://www.w3.org/2000/svg" width="300" height="300" viewBox="0 0 300 300">
<path d="M 68.0 82.0 L 68.0 82.0 L 68.0 82.0 L 68.0 82.0 L 68.0 82.0 L 68.0 82.0 L 68.0 82.0 L 68.0 82.0 L 68.0 82.0 L 67.0 82.0 L 67.0 82.0 L 67.0 82.0 L 67.0 82.0 L 67.0 82.0 L 67.0 82.0 L 67.0 82.0 L 68.0 82.0 L 68.0 82.0 L 68.0 82.0 L 69.0 82.0 L 69.0 82.0 L 70.0 82.0 L 70.0 82.0 L 71.0 82.0 L 71.0 82.0 L 72.0 82.0 L 73.0 82.0 L 73.0 82.0 L 74.0 82.0 L 75.0 82.0 L 75.0 82.0 L 76.0 82.0 L 77.0 82.0 L 77.0 82.0 L 78.0 82.0 L 79.0 82.0 L 79.0 82.0 L 80.0 82.0 L 81.0 82.0 L 81.0 82.0 L 82.0 82.0 L 83.0 82.0 L 84.0 82.0 L 85.0 82.0 L 85.0 82.0 L 86.0 82.0 L 87.0 82.0 L 88.0 82.0 L 89.0 82.0 L 90.0 82.0 L 91.0 82.0 L 92.0 82.0 L 93.0 82.0 L 94.0 82.0 L 95.0 82.0 L 95.0 82.0 L 96.0 82.0 L 97.0 82.0 L 98.0 82.0 L 99.0 82.0 L 100.0 82.0 L 100.0 82.0 L 101.0 82.0 L 102.0 82.0 L 103.0 82.0 L 103.0 82.0 L 104.0 82.0 L 105.0 82.0 L 105.0 82.0 L 106.0 82.0 L 107.0 82.0 L 107.0 82.0 L 108.0 82.0 L 108.0 82.0 L 109.0 82.0 L 110.0 82.0 L 110.0 82.0 L 111.0 82.0 L 112.0 82.0 L 112.0 82.0 L 113.0 82.0 L 114.0 82.0 L 115.0 82.0 L 116.0 82.0 L 116.0 82.0 L 117.0 82.0 L 118.0 82.0 L 119.0 82.0 L 120.0 82.0 L 120.0 82.0 L 121.0 82.0 L 122.0 82.0 L 123.0 82.0 L 124.0 82.0 L 125.0 82.0 L 125.0 82.0 L 126.0 82.0 L 127.0 82.0 L 128.0 82.0 L 129.0 82.0 L 130.0 82.0 L 131.0 82.0 L 132.0 82.0 L 133.0 82.0 L 133.0 82.0 L 135.0 82.0 L 135.0 82.0 L 136.0 82.0 L 137.0 82.0 L 138.0 82.0 L 139.0 82.0 L 140.0 82.0 L 141.0 82.0 L 141.0 82.0 L 142.0 82.0 L 143.0 82.0 L 144.0 82.0 L 144.0 82.0 L 145.0 82.0 L 146.0 82.0 L 146.0 82.0 L 147.0 82.0 L 147.0 82.0 L 148.0 82.0 L 149.0 82.0 L 149.0 82.0 L 150.0 82.0 L 150.0 82.0 L 151.0 82.0 L 151.0 82.0 L 152.0 82.0 L 152.0 82.0 L 152.0 82.0 L 153.0 82.0 L 153.0 82.0 L 153.0 82.0 L 154.0 82.0 L 154.0 82.0 L 154.0 82.0 L 155.0 82.0 L 155.0 82.0 L 156.0 82.0 L 156.0 82.0 L 156.0 82.0 L 157.0 82.0 L 157.0 82.0 L 158.0 82.0 L 158.0 82.0 L 159.0 82.0 L 159.0 82.0 L 160.0 82.0 L 160.0 82.0 L 160.0 82.0 L 161.0 82.0 L 162.0 82.0 L 162.0 82.0 L 162.0 82.0 L 163.0 82.0 L 164.0 82.0 L 164.0 82.0 L 165.0 82.0 L 165.0 82.0 L 166.0 82.0 L 166.0 82.0 L 167.0 82.0 L 167.0 82.0 L 168.0 82.0 L 168.0 82.0 L 169.0 82.0 L 170.0 82.0 L 170.0 82.0 L 171.0 82.0 L 172.0 82.0 L 173.0 82.0 L 174.0 82.0 L 174.0 83.0 L 175.0 83.0 L 176.0 83.0 L 177.0 83.0 L 177.0 83.0 L 178.0 83.0 L 178.0 83.0 L 179.0 83.0 L 180.0 83.0 L 180.0 83.0 L 181.0 83.0 L 181.0 83.0 L 182.0 83.0 L 182.0 83.0 L 183.0 83.0 L 183.0 83.0 L 184.0 83.0 L 184.0 83.0 L 185.0 83.0 L 185.0 83.0 L 185.0 83.0 L 186.0 83.0 L 186.0 83.0 L 187.0 83.0 L 187.0 83.0 L 187.0 83.0 L 188.0 83.0 L 188.0 83.0 L 189.0 83.0 L 189.0 83.0 L 189.0 83.0 L 190.0 83.0 L 190.0 83.0 L 191.0 83.0 L 191.0 83.0 L 192.0 83.0 L 192.0 83.0 L 193.0 83.0 L 193.0 83.0 L 193.0 83.0 L 194.0 83.0 L 194.0 83.0 L 194.0 83.0 L 195.0 83.0 L 195.0 83.0 L 196.0 83.0 L 196.0 83.0 L 196.0 83.0 L 197.0 83.0 L 197.0 83.0 L 197.0 83.0 L 198.0 83.0 L 198.0 83.0 L 198.0 83.0 L 199.0 83.0 L 199.0 83.0 L 199.0 83.0 L 200.0 83.0 L 200.0 83.0 L 201.0 83.0 L 201.0 83.0 L 202.0 83.0 L 202.0 83.0 L 203.0 83.0 L 203.0 83.0 L 204.0 82.0 L 205.0 82.0 L 206.0 82.0 L 207.0 82.0 L 208.0 82.0 L 209.0 82.0 L 210.0 82.0 L 210.0 82.0 L 212.0 82.0 L 212.0 82.0 L 213.0 82.0 L 214.0 82.0 L 215.0 82.0 L 216.0 82.0 L 217.0 82.0 L 218.0 82.0 L 219.0 82.0 L 219.0 82.0 L 220.0 82.0 L 221.0 82.0 L 222.0 82.0 L 223.0 82.0 L 224.0 82.0 L 225.0 82.0 L 225.0 82.0 L 226.0 82.0 L 227.0 82.0 " stroke="black" fill="none" stroke-width="5.0" stroke-linecap="round" stroke-linejoin="round" />
<path d="M 79.0 116.0 L 79.0 116.0 L 79.0 116.0 L 79.0 116.0 L 79.0 116.0 L 79.0 116.0 L 80.0 116.0 L 80.0 116.0 L 80.0 118.0 L 80.0 120.0 L 80.0 123.0 L 80.0 128.0 L 80.0 134.0 L 80.0 140.0 L 81.0 145.0 L 81.0 150.0 L 81.0 153.0 L 82.0 155.0 L 82.0 156.0 L 82.0 156.0 " stroke="black" fill="none" stroke-width="5.0" stroke-linecap="round" stroke-linejoin="round" />
<path d="M 79.0 112.0 L 79.0 112.0 L 79.0 112.0 L 78.0 112.0 L 78.0 111.0 L 78.0 111.0 L 78.0 111.0 L 78.0 111.0 L 78.0 111.0 L 78.0 110.0 L 78.0 110.0 L 78.0 110.0 L 78.0 110.0 L 78.0 110.0 L 78.0 110.0 L 78.0 110.0 L 78.0 110.0 L 79.0 110.0 L 79.0 110.0 L 80.0 110.0 L 81.0 110.0 L 81.0 110.0 L 82.0 110.0 L 83.0 110.0 L 84.0 110.0 L 84.0 110.0 L 85.0 110.0 L 86.0 110.0 L 87.0 110.0 L 88.0 110.0 L 89.0 110.0 L 90.0 110.0 L 91.0 110.0 L 92.0 110.0 L 93.0 110.0 L 94.0 110.0 L 95.0 110.0 L 96.0 110.0 L 97.0 110.0 L 98.0 110.0 L 99.0 110.0 L 100.0 110.0 L 101.0 110.0 L 101.0 110.0 L 102.0 110.0 L 103.0 110.0 L 104.0 110.0 L 105.0 110.0 L 106.0 110.0 L 106.0 110.0 L 107.0 110.0 L 108.0 110.0 L 109.0 110.0 L 109.0 110.0 L 110.0 110.0 L 111.0 110.0 L 112.0 110.0 L 112.0 110.0 L 113.0 110.0 L 114.0 110.0 L 115.0 110.0 L 115.0 110.0 L 116.0 110.0 L 117.0 110.0 L 118.0 110.0 L 119.0 110.0 L 120.0 110.0 L 121.0 110.0 L 122.0 110.0 L 123.0 110.0 L 124.0 110.0 L 125.0 110.0 L 127.0 110.0 L 128.0 110.0 L 129.0 110.0 L 131.0 110.0 L 132.0 110.0 L 134.0 110.0 L 135.0 110.0 L 137.0 110.0 L 138.0 110.0 L 139.0 110.0 L 140.0 110.0 L 141.0 110.0 L 142.0 110.0 L 143.0 110.0 L 144.0 110.0 L 145.0 110.0 L 145.0 110.0 L 146.0 109.0 L 147.0 109.0 L 147.0 109.0 L 148.0 109.0 L 148.0 109.0 L 149.0 109.0 L 149.0 109.0 L 150.0 109.0 L 150.0 109.0 L 151.0 109.0 L 151.0 109.0 L 151.0 109.0 L 152.0 109.0 L 152.0 109.0 L 153.0 109.0 L 153.0 109.0 L 154.0 109.0 L 154.0 109.0 L 155.0 109.0 L 155.0 109.0 L 156.0 109.0 L 156.0 109.0 L 157.0 109.0 L 158.0 109.0 L 158.0 109.0 L 159.0 109.0 L 160.0 109.0 L 160.0 109.0 L 161.0 109.0 L 162.0 109.0 L 163.0 109.0 L 164.0 109.0 L 165.0 109.0 L 166.0 109.0 L 167.0 109.0 L 169.0 109.0 L 170.0 109.0 L 171.0 109.0 L 173.0 109.0 L 174.0 109.0 L 176.0 109.0 L 177.0 109.0 L 179.0 109.0 L 180.0 109.0 L 182.0 109.0 L 183.0 109.0 L 184.0 109.0 L 185.0 109.0 L 187.0 109.0 L 188.0 109.0 L 189.0 109.0 L 190.0 109.0 L 191.0 109.0 L 191.0 109.0 L 192.0 109.0 L 193.0 109.0 L 194.0 109.0 L 194.0 109.0 L 195.0 109.0 L 196.0 109.0 L 196.0 109.0 L 197.0 109.0 L 198.0 109.0 L 198.0 109.0 L 199.0 109.0 L 200.0 108.0 L 200.0 108.0 L 201.0 108.0 L 202.0 108.0 L 202.0 108.0 L 203.0 108.0 L 204.0 108.0 L 205.0 108.0 L 205.0 108.0 L 206.0 108.0 L 207.0 108.0 L 208.0 108.0 L 209.0 108.0 L 209.0 108.0 L 210.0 108.0 L 211.0 108.0 L 212.0 108.0 L 212.0 108.0 L 213.0 108.0 L 214.0 108.0 L 214.0 108.0 L 215.0 108.0 L 216.0 108.0 L 216.0 108.0 L 217.0 108.0 L 217.0 108.0 L 218.0 108.0 L 218.0 108.0 L 219.0 108.0 L 219.0 108.0 L 220.0 108.0 L 220.0 108.0 L 221.0 108.0 L 221.0 108.0 L 221.0 108.0 L 221.0 108.0 L 221.0 108.0 L 222.0 108.0 L 222.0 108.0 L 222.0 109.0 L 222.0 109.0 L 222.0 109.0 L 222.0 109.0 L 222.0 109.0 L 222.0 110.0 L 222.0 110.0 L 222.0 110.0 L 223.0 110.0 L 223.0 111.0 L 223.0 111.0 L 223.0 112.0 L 223.0 113.0 L 223.0 113.0 L 223.0 114.0 L 223.0 115.0 L 223.0 117.0 L 223.0 118.0 L 224.0 120.0 L 224.0 121.0 L 224.0 123.0 L 224.0 125.0 L 224.0 127.0 L 224.0 129.0 L 224.0 131.0 L 224.0 134.0 L 224.0 136.0 L 224.0 138.0 L 224.0 141.0 L 224.0 143.0 L 224.0 145.0 L 224.0 147.0 L 224.0 149.0 L 224.0 151.0 L 224.0 153.0 L 224.0 155.0 L 224.0 157.0 L 224.0 159.0 L 224.0 161.0 L 224.0 163.0 L 224.0 164.0 L 224.0 165.0 L 224.0 166.0 " stroke="black" fill="none" stroke-width="5.0" stroke-linecap="round" stroke-linejoin="round" />
<path d="M 120.0 88.0 L 120.0 88.0 L 120.0 88.0 L 120.0 88.0 L 120.0 88.0 L 120.0 88.0 L 120.0 88.0 L 120.0 89.0 L 121.0 89.0 L 121.0 91.0 L 121.0 93.0 L 121.0 96.0 L 121.0 99.0 L 122.0 103.0 L 122.0 108.0 L 122.0 113.0 L 123.0 118.0 L 123.0 123.0 L 123.0 128.0 L 123.0 133.0 L 123.0 138.0 L 123.0 142.0 L 123.0 146.0 L 123.0 149.0 L 123.0 151.0 L 123.0 152.0 L 123.0 152.0 L 123.0 152.0 L 124.0 152.0 L 125.0 152.0 " stroke="black" fill="none" stroke-width="5.0" stroke-linecap="round" stroke-linejoin="round" />
<path d="M 175.0 89.0 L 175.0 89.0 L 175.0 89.0 L 175.0 89.0 L 175.0 89.0 L 175.0 89.0 L 175.0 89.0 L 175.0 90.0 L 175.0 90.0 L 175.0 91.0 L 175.0 93.0 L 175.0 96.0 L 175.0 101.0 L 175.0 106.0 L 175.0 112.0 L 175.0 119.0 L 175.0 126.0 L 175.0 132.0 L 175.0 137.0 L 175.0 141.0 L 175.0 144.0 L 174.0 147.0 L 174.0 148.0 L 174.0 150.0 L 173.0 150.0 L 173.0 152.0 L 172.0 153.0 " stroke="black" fill="none" stroke-width="5.0" stroke-linecap="round" stroke-linejoin="round" />
<path d="M 79.0 158.0 L 79.0 158.0 L 79.0 158.0 L 79.0 158.0 L 79.0 158.0 L 79.0 158.0 L 79.0 158.0 L 79.0 158.0 L 79.0 158.0 L 79.0 158.0 L 79.0 158.0 L 79.0 158.0 L 79.0 158.0 L 80.0 158.0 L 80.0 158.0 L 81.0 158.0 L 81.0 158.0 L 82.0 158.0 L 83.0 158.0 L 85.0 158.0 L 86.0 158.0 L 88.0 158.0 L 89.0 158.0 L 91.0 158.0 L 93.0 158.0 L 94.0 158.0 L 96.0 158.0 L 97.0 158.0 L 98.0 158.0 L 100.0 158.0 L 101.0 158.0 L 102.0 158.0 L 103.0 158.0 L 104.0 158.0 L 105.0 157.0 L 105.0 157.0 L 106.0 157.0 L 107.0 157.0 L 108.0 157.0 L 108.0 157.0 L 109.0 157.0 L 109.0 157.0 L 110.0 157.0 L 110.0 157.0 L 111.0 157.0 L 112.0 157.0 L 112.0 157.0 L 113.0 157.0 L 114.0 157.0 L 114.0 157.0 L 115.0 157.0 L 116.0 157.0 L 117.0 157.0 L 118.0 157.0 L 119.0 157.0 L 120.0 157.0 L 121.0 157.0 L 122.0 157.0 L 123.0 157.0 L 124.0 157.0 L 125.0 157.0 L 127.0 157.0 L 128.0 156.0 L 129.0 156.0 L 131.0 156.0 L 132.0 156.0 L 133.0 156.0 L 135.0 156.0 L 136.0 156.0 L 137.0 156.0 L 138.0 156.0 L 140.0 156.0 L 141.0 156.0 L 142.0 155.0 L 143.0 155.0 L 144.0 155.0 L 145.0 155.0 L 146.0 155.0 L 147.0 155.0 L 148.0 155.0 L 148.0 155.0 L 149.0 155.0 L 150.0 155.0 L 151.0 155.0 L 152.0 155.0 L 152.0 155.0 L 153.0 155.0 L 154.0 155.0 L 155.0 155.0 L 156.0 155.0 L 157.0 155.0 L 157.0 155.0 L 158.0 155.0 L 159.0 156.0 L 160.0 156.0 L 161.0 156.0 L 162.0 156.0 L 163.0 156.0 L 164.0 156.0 L 166.0 156.0 L 167.0 156.0 L 168.0 156.0 L 169.0 156.0 L 170.0 156.0 L 171.0 156.0 L 172.0 156.0 L 174.0 156.0 L 175.0 156.0 L 176.0 156.0 L 177.0 156.0 L 178.0 156.0 L 180.0 156.0 L 181.0 156.0 L 182.0 156.0 L 183.0 156.0 L 184.0 156.0 L 185.0 156.0 L 186.0 157.0 L 187.0 157.0 L 188.0 157.0 L 189.0 157.0 L 190.0 157.0 L 191.0 157.0 L 191.0 157.0 L 192.0 157.0 L 193.0 157.0 L 194.0 157.0 L 194.0 157.0 L 195.0 157.0 L 196.0 157.0 L 197.0 157.0 L 198.0 157.0 L 199.0 157.0 L 200.0 157.0 L 201.0 157.0 L 202.0 157.0 L 203.0 157.0 L 204.0 157.0 L 205.0 157.0 L 206.0 157.0 L 207.0 157.0 L 208.0 157.0 L 209.0 157.0 L 211.0 157.0 L 212.0 156.0 L 213.0 156.0 L 214.0 156.0 " stroke="black" fill="none" stroke-width="5.0" stroke-linecap="round" stroke-linejoin="round" />
<path d="M 62.0 190.0 L 62.0 190.0 L 62.0 191.0 L 62.0 191.0 L 62.0 191.0 L 61.0 191.0 L 61.0 192.0 L 61.0 192.0 L 61.0 192.0 L 61.0 192.0 L 61.0 192.0 L 61.0 192.0 L 61.0 192.0 L 61.0 192.0 L 61.0 192.0 L 62.0 192.0 L 62.0 192.0 L 62.0 191.0 L 63.0 191.0 L 64.0 191.0 L 64.0 191.0 L 65.0 191.0 L 65.0 191.0 L 66.0 191.0 L 67.0 191.0 L 68.0 191.0 L 68.0 190.0 L 69.0 190.0 L 70.0 190.0 L 71.0 190.0 L 72.0 190.0 L 73.0 190.0 L 74.0 190.0 L 75.0 190.0 L 77.0 190.0 L 78.0 190.0 L 79.0 190.0 L 80.0 191.0 L 81.0 191.0 L 83.0 191.0 L 84.0 191.0 L 85.0 191.0 L 86.0 191.0 L 87.0 191.0 L 88.0 192.0 L 90.0 192.0 L 91.0 192.0 L 92.0 192.0 L 93.0 192.0 L 94.0 192.0 L 95.0 192.0 L 96.0 192.0 L 97.0 192.0 L 98.0 192.0 L 100.0 192.0 L 101.0 192.0 L 102.0 192.0 L 103.0 192.0 L 104.0 192.0 L 106.0 192.0 L 107.0 192.0 L 108.0 192.0 L 109.0 192.0 L 110.0 192.0 L 111.0 192.0 L 112.0 192.0 L 113.0 192.0 L 114.0 192.0 L 114.0 192.0 L 116.0 192.0 L 116.0 191.0 L 118.0 191.0 L 119.0 191.0 L 120.0 191.0 L 121.0 191.0 L 122.0 191.0 L 123.0 190.0 L 124.0 190.0 L 126.0 190.0 L 127.0 190.0 L 128.0 190.0 L 130.0 190.0 L 131.0 190.0 L 133.0 190.0 L 134.0 190.0 L 136.0 190.0 L 137.0 190.0 L 138.0 190.0 L 140.0 190.0 L 141.0 190.0 L 142.0 189.0 L 143.0 189.0 L 145.0 189.0 L 146.0 189.0 L 147.0 189.0 L 148.0 189.0 L 149.0 189.0 L 150.0 189.0 L 151.0 189.0 L 152.0 189.0 L 152.0 189.0 L 153.0 189.0 L 153.0 189.0 L 154.0 189.0 L 155.0 190.0 L 156.0 190.0 L 157.0 190.0 L 158.0 190.0 L 159.0 190.0 L 160.0 190.0 L 161.0 190.0 L 162.0 190.0 L 163.0 190.0 L 164.0 190.0 L 166.0 190.0 L 167.0 190.0 L 168.0 190.0 L 170.0 190.0 L 171.0 190.0 L 172.0 190.0 L 174.0 190.0 L 175.0 190.0 L 176.0 190.0 L 178.0 190.0 L 179.0 190.0 L 180.0 190.0 L 181.0 190.0 L 183.0 190.0 L 184.0 190.0 L 185.0 190.0 L 187.0 190.0 L 188.0 190.0 L 190.0 190.0 L 191.0 190.0 L 192.0 190.0 L 193.0 190.0 L 195.0 189.0 L 196.0 189.0 L 197.0 189.0 L 198.0 189.0 L 199.0 189.0 L 200.0 189.0 L 201.0 189.0 L 202.0 189.0 L 204.0 189.0 L 205.0 189.0 L 207.0 189.0 L 209.0 189.0 L 211.0 189.0 L 212.0 190.0 L 215.0 190.0 L 217.0 190.0 L 219.0 190.0 L 221.0 190.0 L 223.0 191.0 L 225.0 191.0 L 227.0 191.0 L 228.0 191.0 L 230.0 191.0 L 231.0 191.0 L 233.0 191.0 L 234.0 191.0 L 235.0 191.0 L 235.0 191.0 L 235.0 191.0 " stroke="black" fill="none" stroke-width="5.0" stroke-linecap="round" stroke-linejoin="round" />
<path d="M 129.0 168.0 L 129.0 168.0 L 129.0 168.0 L 129.0 168.0 L 129.0 168.0 L 129.0 168.0 L 129.0 168.0 L 129.0 168.0 L 129.0 168.0 L 129.0 169.0 L 129.0 169.0 L 129.0 169.0 L 129.0 170.0 L 129.0 170.0 L 128.0 171.0 L 127.0 173.0 L 125.0 176.0 L 123.0 179.0 L 121.0 183.0 L 119.0 187.0 L 117.0 190.0 L 115.0 194.0 L 113.0 196.0 L 111.0 199.0 L 110.0 201.0 L 108.0 202.0 L 107.0 203.0 L 106.0 205.0 L 105.0 206.0 L 104.0 207.0 L 103.0 208.0 L 103.0 209.0 L 103.0 209.0 L 102.0 209.0 L 102.0 210.0 L 101.0 210.0 L 101.0 210.0 L 101.0 211.0 L 100.0 211.0 L 100.0 211.0 L 100.0 211.0 L 100.0 211.0 L 100.0 211.0 L 100.0 211.0 L 100.0 211.0 L 100.0 211.0 L 100.0 211.0 L 100.0 211.0 L 100.0 211.0 L 100.0 211.0 L 100.0 211.0 L 100.0 211.0 L 101.0 211.0 L 101.0 211.0 L 101.0 211.0 L 102.0 211.0 L 103.0 211.0 L 103.0 212.0 L 104.0 212.0 L 105.0 212.0 L 106.0 213.0 L 108.0 213.0 L 109.0 214.0 L 111.0 215.0 L 112.0 215.0 L 114.0 216.0 L 117.0 217.0 L 119.0 217.0 L 121.0 218.0 L 124.0 218.0 L 126.0 219.0 L 129.0 219.0 L 131.0 219.0 L 133.0 220.0 L 136.0 220.0 L 138.0 220.0 L 140.0 220.0 L 143.0 221.0 L 145.0 221.0 L 147.0 221.0 L 148.0 222.0 L 150.0 222.0 L 152.0 222.0 L 153.0 223.0 L 154.0 223.0 L 155.0 223.0 L 155.0 223.0 L 156.0 224.0 L 157.0 224.0 L 158.0 224.0 L 160.0 225.0 L 161.0 225.0 L 162.0 225.0 L 164.0 226.0 L 166.0 226.0 L 167.0 226.0 L 169.0 227.0 L 171.0 227.0 L 173.0 227.0 L 175.0 227.0 L 177.0 228.0 L 179.0 228.0 L 182.0 228.0 L 184.0 229.0 L 186.0 229.0 L 188.0 229.0 L 190.0 230.0 L 191.0 230.0 L 193.0 230.0 L 195.0 231.0 L 196.0 231.0 L 198.0 232.0 L 199.0 232.0 L 201.0 233.0 L 202.0 233.0 L 204.0 234.0 L 206.0 234.0 L 208.0 235.0 L 210.0 235.0 L 212.0 236.0 L 215.0 236.0 L 217.0 237.0 L 219.0 237.0 L 221.0 238.0 L 223.0 238.0 L 225.0 239.0 L 226.0 239.0 L 228.0 239.0 L 228.0 239.0 L 229.0 239.0 L 229.0 239.0 L 229.0 239.0 L 229.0 239.0 L 229.0 239.0 " stroke="black" fill="none" stroke-width="5.0" stroke-linecap="round" stroke-linejoin="round" />
<path d="M 199.0 176.0 L 199.0 176.0 L 199.0 176.0 L 199.0 176.0 L 199.0 176.0 L 199.0 176.0 L 199.0 176.0 L 199.0 176.0 L 199.0 176.0 L 199.0 176.0 L 199.0 176.0 L 199.0 176.0 L 199.0 176.0 L 199.0 176.0 L 199.0 176.0 L 199.0 176.0 L 199.0 176.0 L 199.0 177.0 L 199.0 178.0 L 198.0 179.0 L 197.0 180.0 L 196.0 182.0 L 195.0 184.0 L 194.0 186.0 L 193.0 188.0 L 192.0 190.0 L 190.0 192.0 L 189.0 193.0 L 188.0 195.0 L 186.0 197.0 L 185.0 198.0 L 184.0 200.0 L 182.0 201.0 L 181.0 202.0 L 180.0 203.0 L 178.0 204.0 L 177.0 206.0 L 176.0 207.0 L 174.0 208.0 L 173.0 209.0 L 172.0 210.0 L 170.0 211.0 L 169.0 212.0 L 168.0 213.0 L 167.0 214.0 L 166.0 215.0 L 165.0 216.0 L 164.0 217.0 L 162.0 218.0 L 161.0 219.0 L 160.0 220.0 L 159.0 221.0 L 158.0 222.0 L 157.0 223.0 L 156.0 224.0 L 155.0 225.0 L 154.0 226.0 L 154.0 226.0 L 153.0 227.0 L 152.0 228.0 L 152.0 229.0 L 151.0 229.0 L 150.0 230.0 L 149.0 231.0 L 149.0 232.0 L 148.0 232.0 L 147.0 233.0 L 147.0 234.0 L 146.0 234.0 L 145.0 235.0 L 144.0 236.0 L 143.0 236.0 L 142.0 237.0 L 141.0 237.0 L 140.0 238.0 L 138.0 238.0 L 137.0 239.0 L 136.0 239.0 L 134.0 240.0 L 133.0 240.0 L 131.0 241.0 L 129.0 241.0 L 127.0 242.0 L 125.0 243.0 L 124.0 243.0 L 122.0 244.0 L 120.0 244.0 L 119.0 245.0 L 117.0 245.0 L 115.0 246.0 L 114.0 246.0 L 112.0 247.0 L 110.0 247.0 L 108.0 247.0 L 107.0 248.0 L 105.0 248.0 L 104.0 248.0 L 102.0 249.0 L 101.0 249.0 L 99.0 249.0 L 97.0 249.0 L 95.0 249.0 L 93.0 249.0 L 91.0 249.0 L 89.0 249.0 L 87.0 249.0 L 85.0 250.0 L 84.0 250.0 " stroke="black" fill="none" stroke-width="5.0" stroke-linecap="round" stroke-linejoin="round" />
</svg>