<svg xmlns="http://www.w3.org/2000/svg" width="300" height="300" viewBox="0 0 300 300">
<path d="M 96.0 72.0 L 95.0 72.0 L 94.0 72.0 L 93.0 72.0 L 93.0 73.0 L 92.0 73.0 L 91.0 75.0 L 90.0 77.0 L 89.0 80.0 L 86.0 84.0 L 84.0 89.0 L 80.0 95.0 L 75.0 103.0 L 70.0 111.0 L 66.0 117.0 L 62.0 124.0 L 59.0 128.0 L 56.0 132.0 L 53.0 135.0 L 52.0 136.0 " stroke="black" fill="none" stroke-width="5.0" stroke-linecap="round" stroke-linejoin="round" />
<path d="M 102.0 105.0 L 102.0 105.0 L 102.0 105.0 L 102.0 105.0 L 101.0 105.0 L 101.0 105.0 L 101.0 106.0 L 101.0 107.0 L 100.0 108.0 L 99.0 110.0 L 98.0 114.0 L 95.0 119.0 L 91.0 125.0 L 85.0 134.0 L 78.0 145.0 L 71.0 154.0 L 66.0 162.0 L 61.0 169.0 L 59.0 174.0 L 57.0 177.0 L 55.0 180.0 L 53.0 181.0 " stroke="black" fill="none" stroke-width="5.0" stroke-linecap="round" stroke-linejoin="round" />
<path d="M 85.0 140.0 L 85.0 140.0 L 84.0 140.0 L 83.0 141.0 L 83.0 142.0 L 82.0 143.0 L 82.0 144.0 L 82.0 147.0 L 82.0 151.0 L 83.0 156.0 L 84.0 164.0 L 85.0 173.0 L 85.0 186.0 L 85.0 200.0 L 85.0 212.0 L 84.0 224.0 L 83.0 235.0 L 82.0 242.0 L 81.0 247.0 L 81.0 249.0 L 81.0 249.0 " stroke="black" fill="none" stroke-width="5.0" stroke-linecap="round" stroke-linejoin="round" />
<path d="M 125.0 96.0 L 123.0 96.0 L 120.0 96.0 L 118.0 96.0 L 117.0 96.0 L 117.0 96.0 L 117.0 95.0 L 118.0 95.0 L 120.0 95.0 L 123.0 94.0 L 128.0 94.0 L 132.0 93.0 L 138.0 93.0 L 143.0 92.0 L 147.0 92.0 L 152.0 92.0 L 156.0 92.0 L 160.0 92.0 L 164.0 92.0 L 165.0 92.0 " stroke="black" fill="none" stroke-width="5.0" stroke-linecap="round" stroke-linejoin="round" />
<path d="M 148.0 79.0 L 147.0 80.0 L 146.0 81.0 L 145.0 82.0 L 144.0 85.0 L 144.0 88.0 L 144.0 94.0 L 144.0 100.0 L 144.0 107.0 L 144.0 114.0 L 144.0 121.0 L 144.0 127.0 L 144.0 131.0 L 144.0 136.0 L 143.0 140.0 L 142.0 143.0 L 142.0 144.0 " stroke="black" fill="none" stroke-width="5.0" stroke-linecap="round" stroke-linejoin="round" />
<path d="M 117.0 143.0 L 116.0 143.0 L 114.0 142.0 L 112.0 142.0 L 110.0 141.0 L 109.0 141.0 L 108.0 141.0 L 108.0 141.0 L 108.0 141.0 L 109.0 141.0 L 112.0 141.0 L 116.0 141.0 L 123.0 140.0 L 132.0 139.0 L 140.0 138.0 L 148.0 137.0 L 157.0 136.0 L 164.0 135.0 L 170.0 135.0 L 177.0 135.0 " stroke="black" fill="none" stroke-width="5.0" stroke-linecap="round" stroke-linejoin="round" />
<path d="M 116.0 184.0 L 114.0 185.0 L 112.0 186.0 L 110.0 187.0 L 109.0 187.0 L 109.0 187.0 L 109.0 187.0 L 110.0 187.0 L 113.0 187.0 L 117.0 186.0 L 123.0 185.0 L 129.0 184.0 L 137.0 183.0 L 143.0 182.0 L 150.0 181.0 L 157.0 180.0 L 163.0 178.0 L 168.0 177.0 L 171.0 176.0 " stroke="black" fill="none" stroke-width="5.0" stroke-linecap="round" stroke-linejoin="round" />
<path d="M 139.0 158.0 L 139.0 158.0 L 138.0 158.0 L 137.0 158.0 L 137.0 158.0 L 137.0 158.0 L 137.0 159.0 L 137.0 160.0 L 138.0 162.0 L 139.0 165.0 L 140.0 169.0 L 141.0 174.0 L 141.0 181.0 L 141.0 189.0 L 141.0 197.0 L 141.0 205.0 L 140.0 212.0 L 139.0 217.0 L 139.0 221.0 L 139.0 225.0 L 139.0 227.0 L 140.0 228.0 L 141.0 229.0 L 141.0 229.0 L 141.0 230.0 " stroke="black" fill="none" stroke-width="5.0" stroke-linecap="round" stroke-linejoin="round" />
<path d="M 123.0 236.0 L 122.0 236.0 L 120.0 236.0 L 118.0 236.0 L 116.0 236.0 L 114.0 236.0 L 113.0 236.0 L 112.0 236.0 L 112.0 236.0 L 112.0 236.0 L 113.0 235.0 L 116.0 234.0 L 120.0 233.0 L 126.0 231.0 L 134.0 227.0 L 142.0 223.0 L 152.0 218.0 L 162.0 212.0 L 168.0 208.0 " stroke="black" fill="none" stroke-width="5.0" stroke-linecap="round" stroke-linejoin="round" />
<path d="M 199.0 85.0 L 199.0 85.0 L 199.0 85.0 L 198.0 84.0 L 198.0 84.0 L 198.0 84.0 L 198.0 84.0 L 200.0 84.0 L 204.0 84.0 L 211.0 84.0 L 219.0 85.0 L 228.0 86.0 L 237.0 87.0 L 245.0 88.0 " stroke="black" fill="none" stroke-width="5.0" stroke-linecap="round" stroke-linejoin="round" />
<path d="M 195.0 140.0 L 194.0 140.0 L 193.0 139.0 L 192.0 139.0 L 191.0 139.0 L 191.0 139.0 L 191.0 139.0 L 192.0 139.0 L 194.0 139.0 L 198.0 139.0 L 205.0 139.0 L 214.0 137.0 L 224.0 136.0 L 233.0 135.0 L 241.0 133.0 L 245.0 132.0 L 249.0 132.0 L 250.0 132.0 " stroke="black" fill="none" stroke-width="5.0" stroke-linecap="round" stroke-linejoin="round" />
<path d="M 220.0 148.0 L 218.0 148.0 L 216.0 148.0 L 215.0 149.0 L 213.0 150.0 L 212.0 152.0 L 212.0 154.0 L 211.0 157.0 L 211.0 161.0 L 211.0 165.0 L 211.0 171.0 L 212.0 178.0 L 212.0 186.0 L 212.0 195.0 L 212.0 202.0 L 211.0 209.0 L 210.0 217.0 L 209.0 224.0 L 207.0 231.0 L 206.0 237.0 L 205.0 242.0 L 204.0 245.0 L 202.0 248.0 L 202.0 249.0 L 201.0 250.0 L 200.0 251.0 L 199.0 251.0 L 198.0 251.0 L 198.0 251.0 L 197.0 251.0 L 196.0 250.0 L 194.0 249.0 L 193.0 247.0 L 191.0 245.0 L 190.0 243.0 L 188.0 240.0 L 186.0 236.0 L 185.0 234.0 " stroke="black" fill="none" stroke-width="5.0" stroke-linecap="round" stroke-linejoin="round" />
</svg>