<svg xmlns="http://www.w3.org/2000/svg" width="300" height="300" viewBox="0 0 300 300">
<path d="M 98.0 85.0 L 98.0 85.0 L 98.0 85.0 L 98.0 84.0 L 99.0 83.0 L 99.0 83.0 L 99.0 82.0 L 99.0 82.0 L 99.0 82.0 L 99.0 83.0 L 99.0 85.0 L 98.0 87.0 L 96.0 91.0 L 94.0 95.0 L 90.0 101.0 L 86.0 107.0 L 81.0 113.0 L 75.0 119.0 L 71.0 125.0 L 67.0 130.0 L 64.0 133.0 L 63.0 136.0 L 62.0 138.0 L 62.0 139.0 L 61.0 139.0 L 61.0 139.0 L 61.0 139.0 L 61.0 139.0 L 62.0 139.0 L 63.0 138.0 L 64.0 138.0 L 66.0 137.0 L 68.0 136.0 L 71.0 135.0 L 75.0 133.0 L 80.0 131.0 L 87.0 129.0 L 93.0 127.0 L 99.0 125.0 L 104.0 123.0 L 108.0 122.0 " stroke="black" fill="none" stroke-width="5.0" stroke-linecap="round" stroke-linejoin="round" />
<path d="M 113.0 113.0 L 113.0 113.0 L 112.0 113.0 L 112.0 113.0 L 111.0 113.0 L 110.0 113.0 L 110.0 113.0 L 110.0 114.0 L 109.0 115.0 L 109.0 117.0 L 108.0 119.0 L 107.0 123.0 L 105.0 127.0 L 103.0 133.0 L 99.0 140.0 L 95.0 147.0 L 89.0 154.0 L 84.0 161.0 L 79.0 166.0 L 76.0 171.0 L 73.0 174.0 L 71.0 177.0 L 70.0 178.0 L 69.0 180.0 L 68.0 180.0 L 68.0 181.0 L 68.0 181.0 L 68.0 181.0 L 68.0 181.0 L 68.0 181.0 L 69.0 181.0 L 70.0 181.0 L 72.0 181.0 L 75.0 179.0 L 78.0 177.0 L 83.0 175.0 L 88.0 173.0 L 94.0 170.0 L 100.0 167.0 L 104.0 165.0 L 108.0 163.0 L 110.0 161.0 L 111.0 161.0 L 111.0 160.0 L 111.0 160.0 L 111.0 159.0 L 110.0 159.0 L 110.0 158.0 L 110.0 158.0 L 109.0 158.0 L 109.0 158.0 L 109.0 158.0 L 109.0 158.0 L 109.0 159.0 L 110.0 160.0 L 111.0 162.0 L 112.0 165.0 L 114.0 168.0 L 116.0 171.0 L 118.0 175.0 L 120.0 177.0 " stroke="black" fill="none" stroke-width="5.0" stroke-linecap="round" stroke-linejoin="round" />
<path d="M 65.0 207.0 L 65.0 207.0 L 65.0 207.0 L 65.0 207.0 L 65.0 207.0 L 65.0 208.0 L 65.0 210.0 L 65.0 214.0 L 65.0 221.0 L 65.0 228.0 L 65.0 235.0 L 65.0 241.0 L 65.0 246.0 L 65.0 248.0 L 65.0 249.0 " stroke="black" fill="none" stroke-width="5.0" stroke-linecap="round" stroke-linejoin="round" />
<path d="M 94.0 202.0 L 94.0 202.0 L 94.0 201.0 L 94.0 201.0 L 94.0 201.0 L 94.0 201.0 L 95.0 203.0 L 95.0 206.0 L 96.0 211.0 L 96.0 217.0 L 96.0 224.0 L 96.0 231.0 L 96.0 238.0 L 96.0 243.0 L 96.0 246.0 L 97.0 247.0 L 98.0 247.0 " stroke="black" fill="none" stroke-width="5.0" stroke-linecap="round" stroke-linejoin="round" />
<path d="M 110.0 201.0 L 110.0 201.0 L 110.0 200.0 L 110.0 200.0 L 110.0 199.0 L 110.0 199.0 L 111.0 200.0 L 112.0 202.0 L 113.0 205.0 L 115.0 209.0 L 116.0 213.0 L 118.0 218.0 L 119.0 223.0 L 121.0 228.0 " stroke="black" fill="none" stroke-width="5.0" stroke-linecap="round" stroke-linejoin="round" />
<path d="M 146.0 86.0 L 145.0 85.0 L 144.0 85.0 L 144.0 84.0 L 144.0 84.0 L 144.0 84.0 L 144.0 84.0 L 146.0 84.0 L 148.0 84.0 L 152.0 84.0 L 158.0 84.0 L 166.0 84.0 L 177.0 85.0 L 187.0 85.0 L 196.0 86.0 L 205.0 86.0 L 213.0 86.0 L 221.0 87.0 L 228.0 87.0 L 231.0 87.0 " stroke="black" fill="none" stroke-width="5.0" stroke-linecap="round" stroke-linejoin="round" />
<path d="M 159.0 113.0 L 159.0 113.0 L 158.0 113.0 L 158.0 113.0 L 157.0 114.0 L 156.0 115.0 L 154.0 117.0 L 153.0 120.0 L 152.0 123.0 L 150.0 127.0 L 148.0 130.0 L 147.0 135.0 L 145.0 139.0 L 144.0 143.0 L 144.0 147.0 L 144.0 150.0 L 144.0 152.0 L 144.0 154.0 L 145.0 155.0 L 147.0 157.0 L 149.0 158.0 L 151.0 160.0 L 154.0 161.0 L 157.0 162.0 L 160.0 163.0 L 164.0 163.0 L 166.0 163.0 " stroke="black" fill="none" stroke-width="5.0" stroke-linecap="round" stroke-linejoin="round" />
<path d="M 195.0 106.0 L 195.0 106.0 L 194.0 106.0 L 193.0 107.0 L 192.0 109.0 L 190.0 111.0 L 189.0 115.0 L 187.0 119.0 L 185.0 124.0 L 183.0 128.0 L 181.0 133.0 L 180.0 138.0 L 180.0 143.0 L 179.0 147.0 L 179.0 150.0 L 181.0 153.0 L 183.0 156.0 L 186.0 157.0 L 189.0 159.0 L 192.0 160.0 L 196.0 161.0 L 200.0 161.0 L 202.0 161.0 " stroke="black" fill="none" stroke-width="5.0" stroke-linecap="round" stroke-linejoin="round" />
<path d="M 230.0 105.0 L 230.0 105.0 L 229.0 106.0 L 228.0 106.0 L 227.0 107.0 L 225.0 109.0 L 225.0 111.0 L 224.0 114.0 L 223.0 117.0 L 222.0 120.0 L 222.0 123.0 L 221.0 126.0 L 220.0 129.0 L 219.0 132.0 L 218.0 135.0 L 217.0 137.0 L 217.0 139.0 L 217.0 141.0 L 217.0 143.0 L 218.0 145.0 L 220.0 147.0 L 223.0 148.0 L 227.0 150.0 L 231.0 151.0 L 234.0 151.0 L 238.0 152.0 L 241.0 153.0 " stroke="black" fill="none" stroke-width="5.0" stroke-linecap="round" stroke-linejoin="round" />
<path d="M 150.0 194.0 L 150.0 194.0 L 149.0 194.0 L 148.0 194.0 L 147.0 194.0 L 147.0 194.0 L 147.0 193.0 L 148.0 193.0 L 150.0 193.0 L 153.0 193.0 L 158.0 193.0 L 166.0 193.0 L 175.0 192.0 L 185.0 191.0 L 196.0 190.0 L 206.0 189.0 L 217.0 189.0 L 227.0 188.0 L 233.0 188.0 L 236.0 188.0 L 237.0 188.0 " stroke="black" fill="none" stroke-width="5.0" stroke-linecap="round" stroke-linejoin="round" />
<path d="M 193.0 200.0 L 191.0 201.0 L 190.0 203.0 L 189.0 206.0 L 189.0 208.0 L 189.0 211.0 L 189.0 214.0 L 189.0 218.0 L 190.0 222.0 L 190.0 227.0 L 190.0 231.0 L 189.0 236.0 L 188.0 239.0 " stroke="black" fill="none" stroke-width="5.0" stroke-linecap="round" stroke-linejoin="round" />
<path d="M 139.0 245.0 L 139.0 245.0 L 137.0 245.0 L 136.0 244.0 L 136.0 244.0 L 135.0 244.0 L 135.0 244.0 L 137.0 244.0 L 140.0 244.0 L 143.0 244.0 L 147.0 244.0 L 152.0 244.0 L 159.0 243.0 L 169.0 243.0 L 181.0 243.0 L 192.0 242.0 L 203.0 242.0 L 214.0 242.0 L 224.0 242.0 L 233.0 242.0 L 238.0 243.0 L 240.0 243.0 " stroke="black" fill="none" stroke-width="5.0" stroke-linecap="round" stroke-linejoin="round" />
</svg>