<svg xmlns="http://www.w3.org/2000/svg" width="300" height="300" viewBox="0 0 300 300">
<path d="M 98.0 68.0 L 98.0 68.0 L 99.0 68.0 L 99.0 68.0 L 100.0 68.0 L 100.0 69.0 L 101.0 71.0 L 101.0 73.0 L 100.0 77.0 L 98.0 82.0 L 93.0 88.0 L 87.0 96.0 L 79.0 105.0 L 72.0 113.0 L 66.0 119.0 L 62.0 125.0 L 60.0 126.0 " stroke="black" fill="none" stroke-width="5.0" stroke-linecap="round" stroke-linejoin="round" />
<path d="M 99.0 122.0 L 99.0 122.0 L 99.0 121.0 L 99.0 120.0 L 99.0 120.0 L 99.0 120.0 L 99.0 120.0 L 99.0 121.0 L 97.0 123.0 L 95.0 127.0 L 92.0 133.0 L 88.0 140.0 L 82.0 148.0 L 76.0 157.0 L 69.0 165.0 L 64.0 171.0 L 60.0 178.0 L 56.0 184.0 " stroke="black" fill="none" stroke-width="5.0" stroke-linecap="round" stroke-linejoin="round" />
<path d="M 89.0 147.0 L 89.0 147.0 L 88.0 146.0 L 88.0 146.0 L 87.0 146.0 L 87.0 146.0 L 87.0 147.0 L 87.0 149.0 L 88.0 154.0 L 89.0 160.0 L 90.0 168.0 L 90.0 179.0 L 90.0 193.0 L 90.0 207.0 L 90.0 222.0 L 89.0 237.0 L 88.0 247.0 L 88.0 253.0 " stroke="black" fill="none" stroke-width="5.0" stroke-linecap="round" stroke-linejoin="round" />
<path d="M 135.0 85.0 L 134.0 85.0 L 133.0 85.0 L 132.0 85.0 L 131.0 85.0 L 131.0 84.0 L 131.0 84.0 L 131.0 84.0 L 132.0 84.0 L 135.0 84.0 L 138.0 84.0 L 143.0 84.0 L 148.0 84.0 L 153.0 84.0 L 161.0 84.0 L 171.0 84.0 L 182.0 84.0 L 193.0 84.0 L 200.0 84.0 L 208.0 84.0 L 217.0 84.0 L 226.0 84.0 L 233.0 84.0 L 238.0 84.0 L 240.0 83.0 L 240.0 83.0 " stroke="black" fill="none" stroke-width="5.0" stroke-linecap="round" stroke-linejoin="round" />
<path d="M 186.0 68.0 L 186.0 68.0 L 185.0 68.0 L 185.0 68.0 L 184.0 68.0 L 183.0 68.0 L 182.0 70.0 L 180.0 73.0 L 178.0 77.0 L 175.0 83.0 L 172.0 90.0 L 169.0 98.0 L 167.0 104.0 L 165.0 110.0 " stroke="black" fill="none" stroke-width="5.0" stroke-linecap="round" stroke-linejoin="round" />
<path d="M 130.0 120.0 L 130.0 120.0 L 130.0 119.0 L 129.0 119.0 L 129.0 118.0 L 129.0 118.0 L 129.0 120.0 L 129.0 123.0 L 129.0 127.0 L 129.0 133.0 L 129.0 138.0 L 129.0 145.0 L 129.0 151.0 L 129.0 155.0 L 130.0 160.0 L 130.0 161.0 " stroke="black" fill="none" stroke-width="5.0" stroke-linecap="round" stroke-linejoin="round" />
<path d="M 131.0 120.0 L 131.0 120.0 L 131.0 120.0 L 131.0 119.0 L 130.0 119.0 L 130.0 118.0 L 130.0 118.0 L 130.0 117.0 L 130.0 117.0 L 130.0 116.0 L 132.0 116.0 L 134.0 116.0 L 136.0 116.0 L 139.0 115.0 L 143.0 115.0 L 146.0 115.0 L 151.0 115.0 L 156.0 115.0 L 162.0 115.0 L 170.0 115.0 L 179.0 115.0 L 187.0 115.0 L 194.0 114.0 L 200.0 114.0 L 205.0 114.0 L 210.0 114.0 L 215.0 115.0 L 220.0 116.0 L 224.0 117.0 L 228.0 118.0 L 230.0 119.0 L 232.0 120.0 L 234.0 121.0 L 234.0 122.0 L 235.0 122.0 L 235.0 123.0 L 235.0 124.0 L 235.0 125.0 L 235.0 126.0 L 235.0 127.0 L 235.0 129.0 L 233.0 132.0 L 232.0 134.0 L 230.0 137.0 L 227.0 141.0 L 225.0 144.0 L 222.0 148.0 " stroke="black" fill="none" stroke-width="5.0" stroke-linecap="round" stroke-linejoin="round" />
<path d="M 155.0 128.0 L 154.0 128.0 L 153.0 128.0 L 152.0 128.0 L 152.0 129.0 L 152.0 131.0 L 152.0 135.0 L 152.0 139.0 L 153.0 143.0 L 154.0 148.0 L 156.0 151.0 L 158.0 153.0 L 160.0 154.0 " stroke="black" fill="none" stroke-width="5.0" stroke-linecap="round" stroke-linejoin="round" />
<path d="M 192.0 120.0 L 191.0 121.0 L 190.0 122.0 L 189.0 124.0 L 188.0 126.0 L 187.0 131.0 L 186.0 136.0 L 185.0 142.0 L 184.0 149.0 L 184.0 154.0 L 183.0 158.0 L 183.0 161.0 L 182.0 162.0 L 182.0 163.0 " stroke="black" fill="none" stroke-width="5.0" stroke-linecap="round" stroke-linejoin="round" />
<path d="M 134.0 157.0 L 133.0 157.0 L 131.0 157.0 L 128.0 157.0 L 127.0 157.0 L 126.0 157.0 L 126.0 157.0 L 128.0 157.0 L 131.0 157.0 L 136.0 157.0 L 142.0 157.0 L 148.0 157.0 L 155.0 157.0 L 166.0 157.0 L 179.0 156.0 L 191.0 155.0 L 204.0 155.0 L 213.0 155.0 L 221.0 155.0 L 228.0 157.0 L 229.0 158.0 " stroke="black" fill="none" stroke-width="5.0" stroke-linecap="round" stroke-linejoin="round" />
<path d="M 136.0 180.0 L 134.0 179.0 L 133.0 178.0 L 132.0 178.0 L 131.0 178.0 L 131.0 178.0 L 131.0 178.0 L 133.0 178.0 L 137.0 178.0 L 141.0 178.0 L 147.0 178.0 L 153.0 178.0 L 162.0 178.0 L 175.0 178.0 L 188.0 177.0 L 200.0 177.0 L 213.0 175.0 L 223.0 175.0 L 231.0 175.0 L 236.0 175.0 L 237.0 176.0 " stroke="black" fill="none" stroke-width="5.0" stroke-linecap="round" stroke-linejoin="round" />
<path d="M 135.0 202.0 L 135.0 202.0 L 133.0 202.0 L 132.0 202.0 L 130.0 202.0 L 129.0 204.0 L 127.0 208.0 L 124.0 214.0 L 122.0 221.0 L 119.0 230.0 L 116.0 239.0 L 114.0 246.0 L 113.0 252.0 L 112.0 255.0 L 112.0 257.0 L 113.0 257.0 " stroke="black" fill="none" stroke-width="5.0" stroke-linecap="round" stroke-linejoin="round" />
<path d="M 147.0 214.0 L 146.0 214.0 L 145.0 214.0 L 144.0 214.0 L 144.0 215.0 L 143.0 216.0 L 143.0 217.0 L 143.0 219.0 L 143.0 221.0 L 143.0 224.0 L 144.0 227.0 L 144.0 229.0 L 144.0 233.0 L 145.0 235.0 L 145.0 238.0 L 145.0 240.0 L 146.0 242.0 L 146.0 243.0 L 147.0 245.0 L 147.0 245.0 L 148.0 245.0 L 149.0 246.0 L 151.0 246.0 L 152.0 246.0 L 154.0 246.0 L 157.0 246.0 L 161.0 246.0 L 166.0 246.0 L 171.0 246.0 L 178.0 246.0 L 185.0 246.0 L 191.0 246.0 L 196.0 246.0 L 201.0 246.0 L 205.0 246.0 L 209.0 246.0 L 214.0 246.0 L 216.0 245.0 L 218.0 245.0 L 220.0 243.0 L 220.0 242.0 L 220.0 241.0 L 220.0 239.0 L 218.0 237.0 L 216.0 235.0 L 213.0 232.0 L 211.0 228.0 " stroke="black" fill="none" stroke-width="5.0" stroke-linecap="round" stroke-linejoin="round" />
<path d="M 164.0 203.0 L 164.0 203.0 L 163.0 203.0 L 163.0 203.0 L 163.0 203.0 L 163.0 204.0 L 165.0 206.0 L 168.0 208.0 L 171.0 210.0 L 175.0 213.0 L 180.0 216.0 L 185.0 219.0 L 190.0 223.0 L 196.0 226.0 " stroke="black" fill="none" stroke-width="5.0" stroke-linecap="round" stroke-linejoin="round" />
<path d="M 227.0 210.0 L 227.0 210.0 L 226.0 209.0 L 226.0 209.0 L 226.0 209.0 L 227.0 210.0 L 228.0 212.0 L 230.0 214.0 L 232.0 217.0 L 235.0 220.0 L 237.0 224.0 L 240.0 228.0 L 243.0 233.0 " stroke="black" fill="none" stroke-width="5.0" stroke-linecap="round" stroke-linejoin="round" />
</svg>