<svg xmlns="http://www.w3.org/2000/svg" width="300" height="300" viewBox="0 0 300 300">
<path d="M 72.0 80.0 L 72.0 80.0 L 71.0 80.0 L 70.0 80.0 L 69.0 80.0 L 68.0 80.0 L 68.0 80.0 L 68.0 80.0 L 67.0 80.0 L 67.0 80.0 L 67.0 80.0 L 67.0 80.0 L 68.0 80.0 L 70.0 80.0 L 72.0 80.0 L 75.0 80.0 L 78.0 80.0 L 81.0 80.0 L 85.0 80.0 L 87.0 80.0 L 90.0 80.0 L 92.0 80.0 " stroke="black" fill="none" stroke-width="5.0" stroke-linecap="round" stroke-linejoin="round" />
<path d="M 92.0 69.0 L 92.0 69.0 L 91.0 69.0 L 91.0 69.0 L 90.0 68.0 L 90.0 68.0 L 90.0 68.0 L 90.0 68.0 L 90.0 68.0 L 91.0 68.0 L 92.0 69.0 L 92.0 71.0 L 93.0 74.0 L 93.0 76.0 L 94.0 79.0 L 94.0 82.0 L 94.0 84.0 " stroke="black" fill="none" stroke-width="5.0" stroke-linecap="round" stroke-linejoin="round" />
<path d="M 124.0 79.0 L 124.0 79.0 L 124.0 79.0 L 123.0 79.0 L 122.0 79.0 L 121.0 79.0 L 121.0 78.0 L 120.0 78.0 L 120.0 78.0 L 120.0 78.0 L 121.0 78.0 L 123.0 77.0 L 125.0 77.0 L 129.0 76.0 L 132.0 75.0 L 135.0 75.0 L 139.0 74.0 L 141.0 74.0 L 143.0 74.0 " stroke="black" fill="none" stroke-width="5.0" stroke-linecap="round" stroke-linejoin="round" />
<path d="M 127.0 69.0 L 127.0 69.0 L 126.0 69.0 L 125.0 69.0 L 125.0 69.0 L 124.0 69.0 L 123.0 69.0 L 123.0 71.0 L 122.0 73.0 L 121.0 76.0 L 120.0 79.0 L 119.0 83.0 L 118.0 86.0 " stroke="black" fill="none" stroke-width="5.0" stroke-linecap="round" stroke-linejoin="round" />
<path d="M 88.0 92.0 L 88.0 92.0 L 89.0 91.0 L 89.0 90.0 L 89.0 90.0 L 89.0 89.0 L 90.0 89.0 L 90.0 88.0 L 90.0 88.0 L 90.0 88.0 L 90.0 89.0 L 90.0 91.0 L 89.0 93.0 L 87.0 97.0 L 84.0 101.0 L 81.0 105.0 L 79.0 109.0 L 76.0 112.0 L 74.0 114.0 L 73.0 116.0 L 71.0 118.0 L 71.0 118.0 " stroke="black" fill="none" stroke-width="5.0" stroke-linecap="round" stroke-linejoin="round" />
<path d="M 81.0 107.0 L 81.0 107.0 L 81.0 106.0 L 81.0 105.0 L 81.0 105.0 L 81.0 104.0 L 81.0 104.0 L 81.0 104.0 L 81.0 103.0 L 82.0 103.0 L 83.0 103.0 L 84.0 103.0 L 85.0 103.0 L 87.0 103.0 L 89.0 103.0 L 91.0 103.0 L 93.0 102.0 L 95.0 102.0 L 97.0 102.0 L 99.0 102.0 L 101.0 102.0 L 103.0 102.0 L 105.0 102.0 L 107.0 102.0 L 109.0 101.0 L 111.0 101.0 L 113.0 100.0 L 115.0 100.0 L 118.0 100.0 L 120.0 99.0 L 123.0 99.0 L 126.0 98.0 L 128.0 98.0 L 131.0 98.0 L 133.0 98.0 L 135.0 98.0 L 136.0 98.0 L 137.0 98.0 L 139.0 98.0 L 139.0 98.0 L 140.0 98.0 L 141.0 99.0 L 141.0 99.0 L 142.0 99.0 L 142.0 100.0 L 143.0 100.0 L 143.0 100.0 L 143.0 101.0 L 143.0 101.0 L 143.0 102.0 L 143.0 103.0 L 143.0 104.0 L 143.0 106.0 L 143.0 108.0 L 142.0 110.0 L 142.0 113.0 L 141.0 116.0 L 140.0 120.0 L 139.0 124.0 L 139.0 128.0 L 137.0 132.0 L 136.0 136.0 L 135.0 139.0 L 134.0 142.0 L 133.0 144.0 L 132.0 145.0 L 130.0 145.0 L 129.0 146.0 L 127.0 145.0 L 125.0 144.0 L 123.0 143.0 L 121.0 141.0 L 118.0 139.0 L 115.0 137.0 " stroke="black" fill="none" stroke-width="5.0" stroke-linecap="round" stroke-linejoin="round" />
<path d="M 94.0 116.0 L 94.0 116.0 L 93.0 116.0 L 92.0 116.0 L 91.0 116.0 L 91.0 116.0 L 91.0 117.0 L 91.0 118.0 L 91.0 120.0 L 91.0 121.0 L 91.0 124.0 L 91.0 126.0 L 91.0 128.0 L 91.0 129.0 L 92.0 130.0 L 92.0 131.0 L 92.0 131.0 L 92.0 131.0 L 93.0 131.0 L 93.0 130.0 L 93.0 128.0 L 93.0 127.0 L 93.0 125.0 L 93.0 123.0 L 93.0 122.0 L 93.0 120.0 L 93.0 119.0 L 93.0 118.0 L 93.0 117.0 L 93.0 116.0 L 93.0 116.0 L 93.0 116.0 L 94.0 115.0 L 96.0 115.0 L 98.0 115.0 L 100.0 115.0 L 102.0 115.0 L 105.0 115.0 L 107.0 115.0 L 109.0 115.0 L 111.0 115.0 L 112.0 116.0 L 113.0 116.0 L 114.0 117.0 L 114.0 118.0 L 114.0 119.0 L 114.0 120.0 L 114.0 121.0 L 112.0 123.0 L 111.0 124.0 L 110.0 126.0 L 108.0 128.0 L 107.0 129.0 L 105.0 131.0 L 104.0 132.0 L 103.0 132.0 L 102.0 133.0 L 101.0 133.0 L 101.0 133.0 L 100.0 133.0 L 100.0 133.0 L 100.0 133.0 L 100.0 133.0 L 101.0 133.0 L 103.0 133.0 L 105.0 132.0 L 107.0 131.0 L 110.0 130.0 L 115.0 128.0 L 120.0 126.0 L 127.0 124.0 L 130.0 122.0 " stroke="black" fill="none" stroke-width="5.0" stroke-linecap="round" stroke-linejoin="round" />
<path d="M 177.0 76.0 L 177.0 76.0 L 177.0 76.0 L 178.0 76.0 L 178.0 75.0 L 178.0 75.0 L 178.0 75.0 L 177.0 76.0 L 176.0 78.0 L 174.0 80.0 L 171.0 84.0 L 169.0 88.0 L 166.0 92.0 L 162.0 98.0 L 159.0 103.0 L 157.0 107.0 L 155.0 110.0 L 154.0 112.0 L 154.0 112.0 L 154.0 112.0 L 156.0 110.0 L 157.0 108.0 L 159.0 106.0 L 160.0 104.0 L 162.0 102.0 L 163.0 101.0 L 164.0 99.0 L 165.0 98.0 L 166.0 97.0 L 167.0 97.0 L 168.0 96.0 L 169.0 95.0 L 171.0 95.0 L 173.0 95.0 L 176.0 94.0 L 180.0 94.0 L 184.0 94.0 L 187.0 94.0 L 191.0 94.0 L 194.0 94.0 L 198.0 94.0 L 202.0 94.0 L 206.0 93.0 L 210.0 92.0 L 215.0 91.0 L 219.0 91.0 L 222.0 90.0 L 225.0 90.0 L 225.0 90.0 L 226.0 90.0 L 226.0 91.0 L 225.0 92.0 L 224.0 93.0 L 223.0 94.0 L 222.0 95.0 " stroke="black" fill="none" stroke-width="5.0" stroke-linecap="round" stroke-linejoin="round" />
<path d="M 220.0 94.0 L 220.0 94.0 L 219.0 93.0 L 219.0 93.0 L 219.0 93.0 L 218.0 93.0 L 218.0 93.0 L 218.0 93.0 L 218.0 93.0 L 217.0 93.0 L 216.0 93.0 L 216.0 93.0 L 214.0 95.0 L 213.0 97.0 L 210.0 100.0 L 207.0 104.0 L 204.0 108.0 L 200.0 113.0 L 196.0 119.0 L 192.0 123.0 L 188.0 127.0 L 183.0 131.0 L 178.0 134.0 L 173.0 137.0 L 166.0 140.0 L 162.0 142.0 L 158.0 143.0 L 155.0 144.0 L 153.0 144.0 L 153.0 143.0 " stroke="black" fill="none" stroke-width="5.0" stroke-linecap="round" stroke-linejoin="round" />
<path d="M 171.0 108.0 L 171.0 108.0 L 171.0 108.0 L 171.0 108.0 L 171.0 107.0 L 171.0 107.0 L 171.0 107.0 L 173.0 107.0 L 175.0 107.0 L 177.0 109.0 L 181.0 110.0 L 184.0 113.0 L 188.0 115.0 L 192.0 118.0 L 196.0 122.0 L 199.0 125.0 L 202.0 128.0 L 206.0 131.0 L 210.0 133.0 L 213.0 134.0 L 217.0 136.0 L 221.0 136.0 L 224.0 136.0 " stroke="black" fill="none" stroke-width="5.0" stroke-linecap="round" stroke-linejoin="round" />
<path d="M 94.0 156.0 L 94.0 156.0 L 94.0 156.0 L 94.0 156.0 L 94.0 156.0 L 94.0 156.0 L 94.0 156.0 L 94.0 156.0 L 94.0 158.0 L 94.0 161.0 L 94.0 165.0 L 94.0 171.0 L 94.0 178.0 L 94.0 186.0 L 94.0 195.0 L 94.0 202.0 L 94.0 207.0 L 95.0 211.0 L 95.0 213.0 L 95.0 213.0 " stroke="black" fill="none" stroke-width="5.0" stroke-linecap="round" stroke-linejoin="round" />
<path d="M 101.0 156.0 L 101.0 156.0 L 101.0 156.0 L 100.0 156.0 L 100.0 156.0 L 99.0 156.0 L 99.0 156.0 L 98.0 156.0 L 98.0 156.0 L 98.0 156.0 L 98.0 156.0 L 98.0 156.0 L 98.0 156.0 L 98.0 156.0 L 99.0 156.0 L 99.0 156.0 L 100.0 156.0 L 101.0 156.0 L 101.0 156.0 L 102.0 156.0 L 103.0 156.0 L 104.0 156.0 L 105.0 156.0 L 106.0 156.0 L 107.0 156.0 L 108.0 156.0 L 110.0 156.0 L 111.0 156.0 L 113.0 156.0 L 115.0 156.0 L 117.0 156.0 L 119.0 156.0 L 121.0 156.0 L 123.0 156.0 L 125.0 156.0 L 126.0 156.0 L 128.0 156.0 L 130.0 156.0 L 131.0 156.0 L 133.0 156.0 L 135.0 156.0 L 136.0 156.0 L 138.0 156.0 L 140.0 156.0 L 142.0 156.0 L 144.0 156.0 L 146.0 156.0 L 148.0 156.0 L 149.0 156.0 L 150.0 156.0 L 152.0 156.0 L 153.0 156.0 L 153.0 156.0 L 155.0 156.0 L 156.0 156.0 L 157.0 155.0 L 159.0 155.0 L 160.0 155.0 L 162.0 155.0 L 164.0 155.0 L 166.0 155.0 L 168.0 155.0 L 171.0 155.0 L 173.0 155.0 L 176.0 155.0 L 179.0 155.0 L 182.0 155.0 L 185.0 155.0 L 188.0 155.0 L 190.0 155.0 L 192.0 155.0 L 194.0 155.0 L 196.0 155.0 L 197.0 155.0 L 199.0 155.0 L 200.0 155.0 L 201.0 155.0 L 202.0 155.0 L 203.0 155.0 L 204.0 155.0 L 205.0 155.0 L 206.0 156.0 L 207.0 156.0 L 208.0 156.0 " stroke="black" fill="none" stroke-width="5.0" stroke-linecap="round" stroke-linejoin="round" />
<path d="M 106.0 181.0 L 106.0 181.0 L 106.0 181.0 L 106.0 181.0 L 106.0 181.0 L 106.0 181.0 L 107.0 181.0 L 107.0 180.0 L 107.0 180.0 L 108.0 180.0 L 110.0 180.0 L 113.0 180.0 L 118.0 180.0 L 125.0 181.0 L 133.0 181.0 L 141.0 180.0 L 149.0 180.0 L 155.0 179.0 L 160.0 178.0 L 166.0 178.0 L 172.0 177.0 L 177.0 177.0 L 182.0 177.0 L 186.0 177.0 L 189.0 177.0 L 191.0 177.0 L 193.0 177.0 L 194.0 178.0 L 196.0 178.0 L 197.0 178.0 " stroke="black" fill="none" stroke-width="5.0" stroke-linecap="round" stroke-linejoin="round" />
<path d="M 109.0 198.0 L 109.0 198.0 L 108.0 198.0 L 107.0 198.0 L 106.0 198.0 L 106.0 198.0 L 105.0 198.0 L 105.0 198.0 L 105.0 198.0 L 105.0 198.0 L 105.0 198.0 L 107.0 198.0 L 110.0 198.0 L 114.0 198.0 L 119.0 198.0 L 126.0 198.0 L 134.0 198.0 L 142.0 198.0 L 149.0 198.0 L 156.0 198.0 L 164.0 197.0 L 172.0 195.0 L 179.0 194.0 L 185.0 192.0 L 190.0 191.0 L 192.0 191.0 L 193.0 191.0 L 193.0 193.0 " stroke="black" fill="none" stroke-width="5.0" stroke-linecap="round" stroke-linejoin="round" />
<path d="M 161.0 163.0 L 161.0 163.0 L 160.0 162.0 L 160.0 162.0 L 159.0 162.0 L 159.0 161.0 L 159.0 161.0 L 159.0 161.0 L 159.0 162.0 L 159.0 163.0 L 159.0 165.0 L 159.0 168.0 L 159.0 172.0 L 159.0 178.0 L 159.0 184.0 L 158.0 191.0 L 157.0 198.0 L 157.0 204.0 L 156.0 210.0 L 155.0 213.0 L 155.0 216.0 L 155.0 218.0 L 155.0 218.0 " stroke="black" fill="none" stroke-width="5.0" stroke-linecap="round" stroke-linejoin="round" />
<path d="M 103.0 216.0 L 102.0 216.0 L 101.0 216.0 L 101.0 216.0 L 100.0 216.0 L 100.0 216.0 L 99.0 216.0 L 99.0 216.0 L 99.0 216.0 L 99.0 216.0 L 99.0 216.0 L 99.0 216.0 L 99.0 216.0 L 100.0 216.0 L 101.0 216.0 L 102.0 216.0 L 104.0 216.0 L 105.0 216.0 L 107.0 216.0 L 109.0 216.0 L 111.0 216.0 L 113.0 216.0 L 116.0 216.0 L 120.0 216.0 L 123.0 216.0 L 127.0 216.0 L 132.0 216.0 L 135.0 216.0 L 139.0 216.0 L 143.0 216.0 L 146.0 216.0 L 148.0 216.0 L 151.0 216.0 L 152.0 216.0 L 154.0 216.0 L 156.0 216.0 L 158.0 216.0 L 159.0 216.0 L 161.0 216.0 L 163.0 216.0 L 165.0 216.0 L 167.0 216.0 L 169.0 216.0 L 171.0 216.0 L 173.0 216.0 L 176.0 216.0 L 178.0 216.0 L 180.0 215.0 L 182.0 215.0 L 184.0 215.0 L 186.0 215.0 L 187.0 215.0 L 188.0 215.0 L 189.0 215.0 L 191.0 215.0 L 192.0 215.0 L 193.0 215.0 L 194.0 215.0 L 195.0 215.0 L 196.0 215.0 L 197.0 215.0 L 198.0 214.0 L 200.0 214.0 L 201.0 214.0 L 202.0 214.0 L 203.0 214.0 L 204.0 214.0 L 204.0 214.0 L 205.0 213.0 L 206.0 213.0 L 207.0 213.0 L 208.0 213.0 L 208.0 213.0 L 209.0 213.0 L 210.0 213.0 L 210.0 213.0 L 210.0 214.0 L 211.0 214.0 L 211.0 214.0 L 212.0 214.0 L 212.0 215.0 L 212.0 215.0 L 213.0 215.0 L 213.0 216.0 L 213.0 216.0 L 213.0 217.0 L 214.0 217.0 L 214.0 218.0 L 214.0 218.0 L 214.0 219.0 L 214.0 220.0 L 214.0 220.0 L 214.0 221.0 L 214.0 222.0 L 214.0 224.0 L 214.0 226.0 L 214.0 228.0 L 213.0 230.0 L 213.0 233.0 L 212.0 236.0 L 212.0 239.0 L 211.0 243.0 L 210.0 246.0 L 210.0 249.0 L 209.0 252.0 L 208.0 255.0 L 208.0 257.0 L 207.0 259.0 L 206.0 261.0 L 205.0 262.0 L 205.0 263.0 L 204.0 263.0 L 202.0 263.0 L 201.0 263.0 L 199.0 263.0 L 198.0 262.0 L 196.0 261.0 L 194.0 260.0 L 191.0 259.0 L 189.0 257.0 " stroke="black" fill="none" stroke-width="5.0" stroke-linecap="round" stroke-linejoin="round" />
<path d="M 84.0 229.0 L 83.0 229.0 L 82.0 229.0 L 81.0 230.0 L 80.0 232.0 L 79.0 234.0 L 78.0 236.0 L 78.0 239.0 L 77.0 243.0 L 76.0 246.0 L 76.0 250.0 L 75.0 253.0 L 74.0 256.0 L 74.0 258.0 L 74.0 260.0 L 74.0 260.0 " stroke="black" fill="none" stroke-width="5.0" stroke-linecap="round" stroke-linejoin="round" />
<path d="M 111.0 232.0 L 111.0 232.0 L 110.0 232.0 L 109.0 232.0 L 108.0 232.0 L 108.0 233.0 L 108.0 234.0 L 108.0 235.0 L 108.0 236.0 L 108.0 238.0 L 109.0 240.0 L 109.0 242.0 L 110.0 245.0 L 110.0 247.0 L 111.0 249.0 L 112.0 251.0 L 113.0 251.0 " stroke="black" fill="none" stroke-width="5.0" stroke-linecap="round" stroke-linejoin="round" />
<path d="M 141.0 229.0 L 141.0 229.0 L 141.0 229.0 L 140.0 229.0 L 140.0 230.0 L 140.0 231.0 L 140.0 232.0 L 140.0 233.0 L 140.0 235.0 L 141.0 237.0 L 142.0 239.0 L 142.0 241.0 L 143.0 244.0 L 144.0 246.0 L 145.0 249.0 " stroke="black" fill="none" stroke-width="5.0" stroke-linecap="round" stroke-linejoin="round" />
<path d="M 174.0 232.0 L 174.0 232.0 L 173.0 232.0 L 173.0 232.0 L 173.0 232.0 L 173.0 233.0 L 173.0 233.0 L 174.0 234.0 L 176.0 235.0 L 178.0 236.0 L 180.0 238.0 L 182.0 239.0 L 184.0 240.0 L 186.0 242.0 L 188.0 243.0 " stroke="black" fill="none" stroke-width="5.0" stroke-linecap="round" stroke-linejoin="round" />
</svg>