<svg xmlns="http://www.w3.org/2000/svg" width="300" height="300" viewBox="0 0 300 300">
<path d="M 113.0 82.0 L 113.0 82.0 L 112.0 82.0 L 112.0 81.0 L 111.0 81.0 L 111.0 81.0 L 110.0 81.0 L 110.0 82.0 L 110.0 83.0 L 109.0 85.0 L 109.0 88.0 L 108.0 91.0 L 107.0 96.0 L 105.0 102.0 L 102.0 108.0 L 98.0 115.0 L 93.0 123.0 L 90.0 126.0 L 77.0 137.0 L 72.0 144.0 L 68.0 149.0 L 65.0 152.0 " stroke="black" fill="none" stroke-width="5.0" stroke-linecap="round" stroke-linejoin="round" />
<path d="M 144.0 81.0 L 144.0 81.0 L 143.0 81.0 L 143.0 81.0 L 143.0 80.0 L 143.0 80.0 L 143.0 80.0 L 143.0 80.0 L 143.0 80.0 L 143.0 80.0 L 143.0 80.0 L 144.0 80.0 L 144.0 80.0 L 145.0 80.0 L 146.0 80.0 L 146.0 80.0 L 147.0 80.0 L 148.0 81.0 L 150.0 81.0 L 151.0 81.0 L 152.0 81.0 L 154.0 81.0 L 157.0 81.0 L 159.0 81.0 L 162.0 81.0 L 165.0 81.0 L 168.0 81.0 L 171.0 81.0 L 174.0 81.0 L 177.0 81.0 L 180.0 81.0 L 182.0 81.0 L 185.0 81.0 L 186.0 81.0 L 188.0 81.0 L 189.0 81.0 L 189.0 81.0 L 190.0 81.0 L 190.0 81.0 L 190.0 81.0 L 190.0 82.0 L 190.0 82.0 L 190.0 82.0 L 190.0 82.0 L 190.0 83.0 L 189.0 84.0 L 189.0 85.0 L 189.0 85.0 L 189.0 86.0 L 189.0 87.0 L 189.0 89.0 L 189.0 90.0 L 190.0 92.0 L 190.0 95.0 L 191.0 97.0 L 191.0 100.0 L 192.0 102.0 L 193.0 105.0 L 195.0 108.0 L 196.0 110.0 L 198.0 113.0 L 200.0 115.0 L 203.0 118.0 L 206.0 120.0 L 209.0 123.0 L 213.0 126.0 L 217.0 128.0 L 221.0 131.0 L 225.0 134.0 L 228.0 137.0 L 231.0 142.0 L 234.0 145.0 L 236.0 148.0 L 238.0 151.0 L 239.0 153.0 L 240.0 155.0 L 242.0 156.0 L 243.0 156.0 L 243.0 156.0 L 243.0 154.0 L 243.0 154.0 " stroke="black" fill="none" stroke-width="5.0" stroke-linecap="round" stroke-linejoin="round" />
<path d="M 100.0 155.0 L 100.0 155.0 L 100.0 154.0 L 100.0 154.0 L 100.0 154.0 L 100.0 153.0 L 100.0 153.0 L 100.0 153.0 L 101.0 153.0 L 101.0 153.0 L 102.0 153.0 L 103.0 153.0 L 104.0 153.0 L 106.0 153.0 L 107.0 153.0 L 109.0 153.0 L 111.0 153.0 L 113.0 153.0 L 116.0 153.0 L 118.0 153.0 L 121.0 153.0 L 124.0 154.0 L 127.0 154.0 L 130.0 154.0 L 133.0 154.0 L 136.0 154.0 L 140.0 154.0 L 142.0 154.0 L 144.0 154.0 L 147.0 154.0 L 148.0 154.0 L 150.0 154.0 L 152.0 154.0 L 153.0 154.0 L 154.0 154.0 L 156.0 154.0 L 158.0 154.0 L 160.0 154.0 L 163.0 154.0 L 166.0 154.0 L 168.0 154.0 L 172.0 154.0 L 175.0 154.0 L 177.0 154.0 L 180.0 154.0 L 183.0 154.0 L 185.0 154.0 L 187.0 154.0 L 189.0 154.0 L 191.0 155.0 L 192.0 155.0 L 194.0 155.0 L 195.0 155.0 L 196.0 155.0 L 197.0 155.0 L 198.0 155.0 L 199.0 156.0 L 199.0 156.0 L 200.0 156.0 L 200.0 156.0 L 201.0 156.0 L 202.0 157.0 L 202.0 157.0 L 202.0 157.0 L 203.0 157.0 L 203.0 157.0 L 204.0 158.0 L 204.0 158.0 L 204.0 159.0 L 204.0 159.0 L 205.0 160.0 L 205.0 161.0 L 205.0 161.0 L 205.0 162.0 L 205.0 164.0 L 205.0 166.0 L 205.0 168.0 L 205.0 170.0 L 205.0 173.0 L 205.0 177.0 L 204.0 183.0 L 203.0 188.0 L 203.0 193.0 L 202.0 199.0 L 201.0 204.0 L 200.0 209.0 L 200.0 214.0 L 199.0 219.0 L 198.0 223.0 L 197.0 228.0 L 196.0 231.0 L 195.0 233.0 L 194.0 236.0 L 194.0 238.0 L 193.0 239.0 L 193.0 240.0 L 192.0 242.0 L 192.0 244.0 L 191.0 245.0 L 191.0 247.0 L 190.0 248.0 L 190.0 249.0 L 189.0 250.0 L 188.0 251.0 L 187.0 252.0 L 186.0 252.0 L 185.0 253.0 L 184.0 253.0 L 182.0 253.0 L 181.0 253.0 L 179.0 253.0 L 177.0 253.0 L 175.0 253.0 L 172.0 252.0 L 170.0 251.0 L 159.0 247.0 L 154.0 244.0 L 151.0 242.0 " stroke="black" fill="none" stroke-width="5.0" stroke-linecap="round" stroke-linejoin="round" />
<path d="M 138.0 164.0 L 138.0 163.0 L 138.0 161.0 L 139.0 161.0 L 139.0 160.0 L 140.0 160.0 L 140.0 160.0 L 140.0 160.0 L 140.0 160.0 L 140.0 161.0 L 140.0 162.0 L 140.0 163.0 L 140.0 164.0 L 140.0 166.0 L 139.0 168.0 L 139.0 171.0 L 138.0 175.0 L 137.0 179.0 L 135.0 184.0 L 133.0 189.0 L 130.0 196.0 L 127.0 202.0 L 123.0 208.0 L 119.0 214.0 L 115.0 220.0 L 113.0 223.0 L 107.0 232.0 L 104.0 237.0 L 100.0 242.0 L 95.0 246.0 L 91.0 249.0 L 86.0 252.0 L 82.0 253.0 L 80.0 253.0 " stroke="black" fill="none" stroke-width="5.0" stroke-linecap="round" stroke-linejoin="round" />
</svg>