<svg xmlns="http://www.w3.org/2000/svg" width="300" height="300" viewBox="0 0 300 300">
<path d="M 64.0 82.0 L 64.0 82.0 L 64.0 82.0 L 63.0 82.0 L 63.0 83.0 L 63.0 83.0 L 62.0 83.0 L 62.0 84.0 L 62.0 84.0 L 62.0 84.0 L 62.0 84.0 L 63.0 84.0 L 64.0 84.0 L 64.0 84.0 L 65.0 84.0 L 66.0 84.0 L 66.0 84.0 L 67.0 84.0 L 68.0 84.0 L 68.0 84.0 L 69.0 84.0 L 70.0 84.0 L 71.0 84.0 L 72.0 84.0 L 73.0 84.0 L 74.0 84.0 L 75.0 84.0 L 75.0 84.0 L 76.0 84.0 L 76.0 84.0 L 77.0 84.0 L 78.0 84.0 L 78.0 84.0 L 79.0 84.0 L 80.0 84.0 L 80.0 84.0 L 81.0 84.0 L 82.0 84.0 L 83.0 84.0 L 83.0 84.0 L 84.0 84.0 L 84.0 84.0 L 85.0 84.0 L 86.0 84.0 L 86.0 84.0 L 87.0 84.0 L 88.0 84.0 L 88.0 84.0 L 89.0 84.0 L 90.0 84.0 L 91.0 84.0 L 92.0 84.0 L 92.0 84.0 L 93.0 84.0 L 94.0 84.0 L 94.0 84.0 L 95.0 84.0 L 96.0 84.0 L 97.0 84.0 L 97.0 84.0 L 98.0 83.0 L 99.0 83.0 L 100.0 83.0 L 101.0 83.0 L 102.0 83.0 L 103.0 83.0 L 103.0 83.0 L 104.0 83.0 L 105.0 83.0 L 105.0 83.0 L 106.0 83.0 L 106.0 83.0 L 107.0 83.0 L 107.0 83.0 L 108.0 83.0 L 108.0 83.0 L 109.0 83.0 L 109.0 83.0 L 110.0 83.0 L 110.0 83.0 L 110.0 82.0 L 111.0 82.0 L 111.0 82.0 L 112.0 82.0 L 112.0 82.0 L 113.0 82.0 L 113.0 82.0 L 114.0 82.0 L 114.0 82.0 L 115.0 82.0 L 116.0 82.0 L 116.0 82.0 L 117.0 82.0 L 118.0 82.0 L 119.0 82.0 L 120.0 82.0 L 121.0 82.0 L 122.0 82.0 L 123.0 82.0 L 125.0 82.0 L 126.0 82.0 L 128.0 82.0 L 130.0 82.0 L 132.0 82.0 L 133.0 82.0 L 135.0 82.0 L 136.0 81.0 L 138.0 81.0 L 139.0 81.0 L 140.0 81.0 L 141.0 81.0 L 141.0 81.0 L 141.0 81.0 " stroke="black" fill="none" stroke-width="5.0" stroke-linecap="round" stroke-linejoin="round" />
<path d="M 105.0 70.0 L 105.0 70.0 L 104.0 70.0 L 103.0 70.0 L 103.0 70.0 L 103.0 70.0 L 103.0 71.0 L 103.0 72.0 L 103.0 73.0 L 103.0 75.0 L 103.0 77.0 L 104.0 80.0 L 104.0 83.0 L 104.0 87.0 L 104.0 90.0 L 104.0 93.0 L 104.0 96.0 L 104.0 98.0 " stroke="black" fill="none" stroke-width="5.0" stroke-linecap="round" stroke-linejoin="round" />
<path d="M 72.0 101.0 L 72.0 101.0 L 72.0 101.0 L 71.0 101.0 L 71.0 101.0 L 71.0 101.0 L 71.0 101.0 L 70.0 101.0 L 70.0 101.0 L 70.0 101.0 L 70.0 101.0 L 70.0 101.0 L 70.0 100.0 L 70.0 100.0 L 70.0 100.0 L 70.0 100.0 L 71.0 100.0 L 71.0 100.0 L 72.0 100.0 L 72.0 100.0 L 73.0 100.0 L 74.0 100.0 L 74.0 100.0 L 75.0 99.0 L 76.0 99.0 L 76.0 99.0 L 77.0 99.0 L 78.0 99.0 L 78.0 99.0 L 79.0 99.0 L 80.0 99.0 L 80.0 99.0 L 81.0 99.0 L 82.0 99.0 L 82.0 99.0 L 83.0 99.0 L 84.0 99.0 L 84.0 99.0 L 85.0 99.0 L 86.0 99.0 L 86.0 99.0 L 87.0 99.0 L 87.0 99.0 L 88.0 99.0 L 88.0 99.0 L 89.0 99.0 L 89.0 99.0 L 90.0 99.0 L 91.0 99.0 L 91.0 99.0 L 92.0 99.0 L 92.0 99.0 L 93.0 99.0 L 93.0 99.0 L 94.0 99.0 L 94.0 99.0 L 95.0 99.0 L 95.0 99.0 L 96.0 99.0 L 96.0 99.0 L 97.0 99.0 L 97.0 99.0 L 98.0 99.0 L 98.0 99.0 L 98.0 99.0 L 99.0 99.0 L 99.0 99.0 L 100.0 99.0 L 100.0 99.0 L 101.0 99.0 L 101.0 99.0 L 101.0 99.0 L 102.0 99.0 L 102.0 99.0 L 103.0 99.0 L 103.0 99.0 L 103.0 99.0 L 104.0 99.0 L 104.0 99.0 L 105.0 99.0 L 105.0 99.0 L 105.0 99.0 L 106.0 99.0 L 106.0 100.0 L 106.0 100.0 L 107.0 100.0 L 107.0 100.0 L 108.0 100.0 L 108.0 100.0 L 108.0 100.0 L 109.0 100.0 L 109.0 100.0 L 109.0 100.0 L 110.0 100.0 L 110.0 100.0 L 111.0 100.0 L 111.0 100.0 L 112.0 100.0 L 112.0 100.0 L 112.0 100.0 L 113.0 100.0 L 113.0 100.0 L 113.0 100.0 L 114.0 100.0 L 114.0 100.0 L 114.0 100.0 L 115.0 100.0 L 115.0 100.0 L 115.0 100.0 L 116.0 100.0 L 116.0 100.0 L 116.0 100.0 L 117.0 100.0 L 117.0 100.0 L 117.0 100.0 L 118.0 100.0 L 118.0 100.0 L 118.0 100.0 L 119.0 100.0 L 119.0 100.0 L 119.0 100.0 L 120.0 100.0 L 120.0 100.0 L 121.0 100.0 L 121.0 100.0 L 122.0 100.0 L 122.0 100.0 L 123.0 100.0 L 124.0 100.0 L 124.0 100.0 L 125.0 100.0 L 126.0 100.0 L 127.0 100.0 L 128.0 100.0 L 129.0 100.0 L 130.0 100.0 L 131.0 100.0 L 132.0 100.0 L 133.0 100.0 L 135.0 100.0 L 136.0 100.0 L 137.0 100.0 L 138.0 100.0 " stroke="black" fill="none" stroke-width="5.0" stroke-linecap="round" stroke-linejoin="round" />
<path d="M 77.0 118.0 L 77.0 118.0 L 76.0 118.0 L 76.0 118.0 L 75.0 119.0 L 75.0 119.0 L 75.0 119.0 L 75.0 119.0 L 75.0 119.0 L 76.0 119.0 L 76.0 119.0 L 77.0 118.0 L 78.0 118.0 L 78.0 118.0 L 79.0 118.0 L 80.0 118.0 L 80.0 118.0 L 81.0 118.0 L 82.0 118.0 L 82.0 118.0 L 83.0 118.0 L 84.0 118.0 L 85.0 118.0 L 85.0 118.0 L 86.0 118.0 L 87.0 118.0 L 88.0 118.0 L 89.0 118.0 L 90.0 118.0 L 91.0 118.0 L 91.0 118.0 L 92.0 118.0 L 93.0 118.0 L 93.0 118.0 L 94.0 118.0 L 95.0 118.0 L 95.0 118.0 L 96.0 118.0 L 97.0 118.0 L 97.0 118.0 L 98.0 118.0 L 99.0 117.0 L 99.0 117.0 L 100.0 117.0 L 100.0 117.0 L 100.0 117.0 L 101.0 117.0 L 101.0 117.0 L 101.0 117.0 L 102.0 117.0 L 102.0 117.0 L 102.0 117.0 L 103.0 117.0 L 103.0 117.0 L 103.0 117.0 L 103.0 117.0 L 103.0 117.0 L 104.0 117.0 L 104.0 117.0 L 104.0 117.0 L 105.0 117.0 L 105.0 117.0 L 105.0 117.0 L 106.0 117.0 L 106.0 117.0 L 106.0 117.0 L 107.0 117.0 L 107.0 117.0 L 107.0 117.0 L 108.0 117.0 L 108.0 117.0 L 108.0 117.0 L 109.0 117.0 L 109.0 116.0 L 110.0 116.0 L 110.0 116.0 L 111.0 116.0 L 111.0 116.0 L 112.0 116.0 L 112.0 116.0 L 113.0 116.0 L 113.0 116.0 L 114.0 116.0 L 114.0 116.0 L 114.0 116.0 L 115.0 116.0 L 115.0 116.0 L 116.0 116.0 L 116.0 116.0 L 117.0 116.0 L 117.0 115.0 L 118.0 115.0 L 118.0 115.0 L 119.0 115.0 L 119.0 115.0 L 120.0 115.0 L 120.0 115.0 L 121.0 115.0 L 121.0 115.0 L 122.0 115.0 L 123.0 115.0 L 123.0 115.0 L 124.0 115.0 L 125.0 115.0 L 125.0 115.0 L 126.0 115.0 L 127.0 115.0 L 127.0 115.0 L 128.0 115.0 L 129.0 115.0 L 129.0 115.0 L 130.0 115.0 L 130.0 115.0 L 131.0 115.0 L 131.0 115.0 L 132.0 115.0 L 132.0 115.0 L 133.0 115.0 L 133.0 115.0 L 133.0 116.0 L 134.0 116.0 L 134.0 116.0 L 134.0 116.0 L 135.0 116.0 L 135.0 116.0 L 135.0 116.0 L 135.0 116.0 L 135.0 116.0 L 135.0 116.0 L 136.0 116.0 L 136.0 116.0 L 136.0 117.0 L 136.0 117.0 L 136.0 117.0 L 136.0 118.0 L 136.0 118.0 L 136.0 118.0 L 136.0 119.0 L 136.0 119.0 L 136.0 120.0 L 136.0 121.0 L 136.0 122.0 L 136.0 124.0 L 135.0 126.0 L 135.0 127.0 L 134.0 129.0 L 134.0 131.0 L 133.0 133.0 L 133.0 134.0 L 133.0 135.0 L 133.0 136.0 L 133.0 136.0 L 133.0 136.0 L 133.0 136.0 " stroke="black" fill="none" stroke-width="5.0" stroke-linecap="round" stroke-linejoin="round" />
<path d="M 105.0 119.0 L 105.0 119.0 L 105.0 119.0 L 104.0 119.0 L 104.0 119.0 L 104.0 119.0 L 104.0 119.0 L 103.0 119.0 L 103.0 119.0 L 103.0 119.0 L 103.0 119.0 L 103.0 120.0 L 103.0 122.0 L 103.0 123.0 L 103.0 125.0 L 103.0 127.0 L 103.0 129.0 L 103.0 131.0 L 103.0 133.0 L 103.0 134.0 " stroke="black" fill="none" stroke-width="5.0" stroke-linecap="round" stroke-linejoin="round" />
<path d="M 74.0 138.0 L 74.0 138.0 L 74.0 138.0 L 74.0 138.0 L 74.0 138.0 L 73.0 138.0 L 73.0 138.0 L 73.0 138.0 L 73.0 138.0 L 73.0 138.0 L 73.0 138.0 L 73.0 138.0 L 73.0 138.0 L 73.0 138.0 L 73.0 138.0 L 73.0 138.0 L 74.0 138.0 L 74.0 138.0 L 75.0 138.0 L 75.0 138.0 L 76.0 138.0 L 76.0 138.0 L 77.0 138.0 L 78.0 138.0 L 79.0 138.0 L 80.0 138.0 L 81.0 138.0 L 82.0 138.0 L 83.0 138.0 L 83.0 138.0 L 84.0 138.0 L 85.0 138.0 L 86.0 138.0 L 87.0 138.0 L 87.0 138.0 L 88.0 138.0 L 89.0 138.0 L 89.0 138.0 L 90.0 138.0 L 91.0 138.0 L 91.0 138.0 L 92.0 138.0 L 92.0 138.0 L 93.0 138.0 L 94.0 138.0 L 94.0 138.0 L 95.0 138.0 L 96.0 138.0 L 96.0 138.0 L 97.0 138.0 L 98.0 138.0 L 98.0 138.0 L 99.0 138.0 L 100.0 138.0 L 100.0 138.0 L 101.0 138.0 L 102.0 138.0 L 103.0 137.0 L 103.0 137.0 L 104.0 137.0 L 105.0 137.0 L 106.0 137.0 L 106.0 137.0 L 107.0 137.0 L 108.0 137.0 L 109.0 137.0 L 110.0 137.0 L 110.0 136.0 L 111.0 136.0 L 112.0 136.0 L 114.0 136.0 L 115.0 136.0 L 116.0 136.0 L 117.0 136.0 L 118.0 136.0 L 119.0 136.0 L 120.0 136.0 L 121.0 136.0 L 121.0 136.0 L 123.0 136.0 L 124.0 136.0 L 126.0 136.0 L 127.0 136.0 L 129.0 135.0 L 130.0 135.0 L 131.0 134.0 " stroke="black" fill="none" stroke-width="5.0" stroke-linecap="round" stroke-linejoin="round" />
<path d="M 70.0 123.0 L 70.0 123.0 L 70.0 123.0 L 70.0 123.0 L 70.0 123.0 L 70.0 123.0 L 70.0 123.0 L 70.0 123.0 L 70.0 123.0 L 70.0 123.0 L 70.0 123.0 L 70.0 123.0 L 70.0 123.0 L 70.0 123.0 L 70.0 123.0 L 70.0 123.0 L 70.0 123.0 L 70.0 125.0 L 70.0 126.0 L 70.0 127.0 L 70.0 129.0 L 70.0 131.0 L 70.0 133.0 L 70.0 136.0 L 70.0 139.0 L 70.0 142.0 L 69.0 145.0 L 68.0 148.0 L 68.0 151.0 L 67.0 153.0 L 66.0 155.0 L 65.0 157.0 L 64.0 159.0 L 63.0 160.0 L 62.0 161.0 L 61.0 162.0 " stroke="black" fill="none" stroke-width="5.0" stroke-linecap="round" stroke-linejoin="round" />
<path d="M 172.0 78.0 L 172.0 78.0 L 171.0 78.0 L 171.0 79.0 L 170.0 80.0 L 169.0 80.0 L 169.0 81.0 L 169.0 81.0 L 169.0 82.0 L 168.0 83.0 L 168.0 84.0 L 168.0 85.0 L 167.0 87.0 L 167.0 89.0 L 165.0 92.0 L 164.0 95.0 L 162.0 99.0 L 160.0 103.0 L 158.0 106.0 L 157.0 108.0 L 156.0 109.0 " stroke="black" fill="none" stroke-width="5.0" stroke-linecap="round" stroke-linejoin="round" />
<path d="M 175.0 80.0 L 174.0 80.0 L 173.0 81.0 L 173.0 81.0 L 172.0 81.0 L 171.0 81.0 L 171.0 81.0 L 171.0 81.0 L 171.0 81.0 L 171.0 81.0 L 171.0 81.0 L 172.0 81.0 L 172.0 81.0 L 173.0 81.0 L 174.0 81.0 L 175.0 81.0 L 176.0 81.0 L 177.0 81.0 L 178.0 81.0 L 179.0 81.0 L 180.0 81.0 L 181.0 81.0 L 182.0 81.0 L 183.0 81.0 L 184.0 81.0 L 185.0 81.0 L 186.0 80.0 L 187.0 80.0 L 188.0 80.0 L 188.0 80.0 L 189.0 80.0 L 190.0 80.0 L 191.0 79.0 L 191.0 79.0 L 192.0 79.0 L 193.0 79.0 L 193.0 79.0 L 194.0 79.0 L 194.0 78.0 L 194.0 78.0 L 195.0 78.0 L 195.0 78.0 L 195.0 78.0 L 196.0 78.0 L 196.0 78.0 L 196.0 78.0 L 197.0 78.0 L 197.0 78.0 L 198.0 77.0 L 198.0 77.0 L 199.0 77.0 L 199.0 77.0 L 200.0 77.0 L 200.0 77.0 L 200.0 77.0 L 201.0 77.0 L 201.0 77.0 L 202.0 77.0 L 202.0 77.0 L 203.0 77.0 L 203.0 77.0 L 204.0 77.0 L 205.0 77.0 L 205.0 77.0 L 206.0 77.0 L 206.0 77.0 L 207.0 77.0 L 207.0 77.0 L 208.0 77.0 L 209.0 77.0 L 209.0 77.0 L 210.0 77.0 L 210.0 77.0 L 210.0 77.0 L 211.0 77.0 L 211.0 77.0 L 212.0 77.0 L 212.0 78.0 L 212.0 78.0 L 212.0 79.0 L 212.0 79.0 L 212.0 80.0 L 212.0 81.0 L 212.0 82.0 L 212.0 83.0 L 211.0 85.0 L 210.0 86.0 L 210.0 88.0 L 209.0 90.0 L 208.0 92.0 L 207.0 94.0 L 207.0 96.0 L 207.0 98.0 L 206.0 99.0 L 206.0 101.0 L 206.0 102.0 L 206.0 103.0 L 206.0 103.0 L 206.0 104.0 L 206.0 104.0 L 206.0 104.0 L 206.0 104.0 L 207.0 104.0 L 207.0 104.0 L 207.0 104.0 L 208.0 104.0 L 209.0 104.0 L 209.0 104.0 L 210.0 104.0 L 211.0 104.0 L 213.0 104.0 L 215.0 104.0 L 217.0 103.0 L 219.0 103.0 L 221.0 103.0 L 223.0 102.0 L 225.0 102.0 L 226.0 102.0 L 227.0 102.0 L 229.0 102.0 L 231.0 102.0 L 233.0 102.0 L 235.0 102.0 L 236.0 102.0 L 238.0 102.0 L 239.0 102.0 L 240.0 102.0 " stroke="black" fill="none" stroke-width="5.0" stroke-linecap="round" stroke-linejoin="round" />
<path d="M 163.0 117.0 L 163.0 117.0 L 163.0 117.0 L 163.0 116.0 L 163.0 116.0 L 163.0 116.0 L 163.0 116.0 L 163.0 116.0 L 163.0 116.0 L 163.0 115.0 L 163.0 115.0 L 163.0 115.0 L 163.0 115.0 L 163.0 115.0 L 164.0 115.0 L 164.0 115.0 L 165.0 115.0 L 166.0 115.0 L 166.0 115.0 L 167.0 115.0 L 168.0 115.0 L 168.0 115.0 L 169.0 115.0 L 170.0 115.0 L 170.0 115.0 L 171.0 115.0 L 171.0 115.0 L 172.0 115.0 L 173.0 115.0 L 173.0 115.0 L 174.0 115.0 L 175.0 115.0 L 175.0 115.0 L 176.0 115.0 L 177.0 115.0 L 177.0 115.0 L 178.0 115.0 L 179.0 115.0 L 180.0 115.0 L 180.0 115.0 L 181.0 115.0 L 182.0 115.0 L 182.0 115.0 L 183.0 115.0 L 184.0 115.0 L 184.0 115.0 L 185.0 115.0 L 185.0 115.0 L 186.0 115.0 L 186.0 115.0 L 187.0 115.0 L 187.0 115.0 L 188.0 115.0 L 188.0 115.0 L 188.0 115.0 L 189.0 115.0 L 189.0 115.0 L 189.0 115.0 L 190.0 115.0 L 190.0 115.0 L 191.0 115.0 L 191.0 115.0 L 191.0 115.0 L 192.0 115.0 L 192.0 115.0 L 192.0 115.0 L 193.0 115.0 L 193.0 115.0 L 193.0 115.0 L 194.0 115.0 L 194.0 115.0 L 194.0 115.0 L 195.0 115.0 L 195.0 115.0 L 195.0 115.0 L 196.0 115.0 L 196.0 115.0 L 196.0 115.0 L 197.0 115.0 L 197.0 115.0 L 198.0 115.0 L 198.0 115.0 L 199.0 115.0 L 199.0 115.0 L 200.0 115.0 L 201.0 115.0 L 201.0 114.0 L 202.0 114.0 L 202.0 114.0 L 203.0 114.0 L 204.0 114.0 L 204.0 114.0 L 205.0 114.0 L 205.0 114.0 L 206.0 114.0 L 207.0 114.0 L 207.0 114.0 L 208.0 114.0 L 209.0 114.0 L 209.0 114.0 L 210.0 114.0 L 211.0 114.0 L 211.0 114.0 L 212.0 114.0 L 212.0 114.0 L 213.0 114.0 L 214.0 114.0 L 215.0 114.0 L 215.0 114.0 L 216.0 114.0 L 217.0 114.0 L 218.0 114.0 L 218.0 114.0 L 219.0 114.0 L 220.0 114.0 L 220.0 114.0 L 221.0 114.0 L 221.0 114.0 L 221.0 115.0 L 222.0 115.0 L 222.0 115.0 L 222.0 115.0 L 222.0 115.0 L 222.0 115.0 L 222.0 115.0 L 222.0 116.0 L 222.0 116.0 L 222.0 116.0 L 222.0 116.0 L 222.0 116.0 L 222.0 116.0 L 221.0 116.0 L 221.0 117.0 L 220.0 117.0 L 220.0 117.0 L 219.0 117.0 L 218.0 118.0 L 217.0 118.0 L 216.0 119.0 L 215.0 120.0 L 214.0 120.0 L 213.0 121.0 L 211.0 122.0 L 210.0 122.0 L 209.0 123.0 L 207.0 124.0 L 206.0 125.0 L 205.0 126.0 L 204.0 127.0 L 202.0 128.0 L 201.0 129.0 L 200.0 130.0 L 199.0 131.0 L 198.0 132.0 L 197.0 134.0 L 196.0 135.0 L 195.0 136.0 L 194.0 137.0 L 193.0 138.0 L 192.0 139.0 L 191.0 140.0 L 190.0 141.0 L 189.0 143.0 L 188.0 144.0 L 187.0 145.0 L 186.0 146.0 L 185.0 147.0 L 183.0 148.0 L 182.0 148.0 L 180.0 149.0 L 178.0 150.0 L 177.0 150.0 L 175.0 151.0 L 172.0 152.0 L 170.0 153.0 L 167.0 154.0 L 165.0 155.0 L 162.0 156.0 L 160.0 156.0 L 158.0 157.0 L 157.0 157.0 L 157.0 157.0 " stroke="black" fill="none" stroke-width="5.0" stroke-linecap="round" stroke-linejoin="round" />
<path d="M 165.0 120.0 L 165.0 120.0 L 164.0 120.0 L 164.0 120.0 L 164.0 120.0 L 164.0 120.0 L 164.0 120.0 L 164.0 120.0 L 164.0 120.0 L 164.0 120.0 L 164.0 120.0 L 164.0 120.0 L 164.0 120.0 L 164.0 120.0 L 165.0 120.0 L 165.0 120.0 L 166.0 120.0 L 167.0 121.0 L 168.0 121.0 L 168.0 121.0 L 169.0 122.0 L 170.0 122.0 L 171.0 123.0 L 171.0 123.0 L 172.0 124.0 L 173.0 124.0 L 174.0 125.0 L 175.0 125.0 L 175.0 125.0 L 176.0 126.0 L 177.0 126.0 L 177.0 126.0 L 178.0 126.0 L 179.0 127.0 L 179.0 127.0 L 180.0 127.0 L 180.0 128.0 L 181.0 128.0 L 182.0 128.0 L 182.0 129.0 L 183.0 129.0 L 184.0 130.0 L 184.0 130.0 L 185.0 130.0 L 186.0 131.0 L 186.0 131.0 L 187.0 131.0 L 187.0 132.0 L 188.0 132.0 L 189.0 132.0 L 189.0 133.0 L 190.0 133.0 L 190.0 133.0 L 191.0 134.0 L 192.0 134.0 L 192.0 134.0 L 193.0 134.0 L 193.0 135.0 L 194.0 135.0 L 194.0 135.0 L 194.0 136.0 L 195.0 136.0 L 195.0 136.0 L 196.0 136.0 L 196.0 137.0 L 196.0 137.0 L 197.0 137.0 L 197.0 138.0 L 198.0 138.0 L 198.0 138.0 L 199.0 139.0 L 199.0 139.0 L 200.0 139.0 L 200.0 140.0 L 201.0 140.0 L 201.0 141.0 L 202.0 141.0 L 203.0 142.0 L 203.0 142.0 L 204.0 143.0 L 205.0 143.0 L 206.0 144.0 L 207.0 145.0 L 209.0 146.0 L 210.0 147.0 L 212.0 148.0 L 214.0 149.0 L 216.0 150.0 L 219.0 150.0 L 221.0 151.0 L 223.0 152.0 L 225.0 153.0 L 226.0 153.0 L 228.0 154.0 L 230.0 154.0 L 231.0 154.0 L 232.0 155.0 L 233.0 155.0 L 234.0 155.0 L 234.0 155.0 " stroke="black" fill="none" stroke-width="5.0" stroke-linecap="round" stroke-linejoin="round" />
<path d="M 73.0 169.0 L 73.0 169.0 L 73.0 169.0 L 73.0 168.0 L 73.0 168.0 L 73.0 168.0 L 73.0 168.0 L 73.0 167.0 L 73.0 167.0 L 73.0 167.0 L 73.0 167.0 L 73.0 167.0 L 74.0 167.0 L 74.0 167.0 L 74.0 167.0 L 74.0 167.0 L 75.0 167.0 L 75.0 167.0 L 76.0 167.0 L 76.0 167.0 L 76.0 167.0 L 77.0 167.0 L 78.0 167.0 L 78.0 167.0 L 79.0 167.0 L 80.0 168.0 L 80.0 168.0 L 81.0 168.0 L 81.0 168.0 L 82.0 168.0 L 82.0 168.0 L 83.0 168.0 L 84.0 168.0 L 85.0 168.0 L 86.0 168.0 L 87.0 168.0 L 87.0 168.0 L 88.0 168.0 L 89.0 168.0 L 90.0 168.0 L 91.0 168.0 L 91.0 168.0 L 92.0 168.0 L 93.0 168.0 L 93.0 168.0 L 94.0 168.0 L 95.0 169.0 L 95.0 169.0 L 96.0 169.0 L 97.0 169.0 L 97.0 169.0 L 98.0 169.0 L 98.0 169.0 L 99.0 169.0 L 100.0 169.0 L 100.0 169.0 L 101.0 169.0 L 101.0 169.0 L 102.0 169.0 L 102.0 169.0 L 103.0 169.0 L 103.0 169.0 L 104.0 169.0 L 105.0 169.0 L 105.0 169.0 L 106.0 169.0 L 106.0 169.0 L 107.0 169.0 L 107.0 169.0 L 108.0 169.0 L 108.0 169.0 L 109.0 169.0 L 110.0 169.0 L 110.0 169.0 L 111.0 169.0 L 112.0 168.0 L 112.0 168.0 L 113.0 168.0 L 114.0 168.0 L 114.0 168.0 L 115.0 167.0 L 116.0 167.0 L 116.0 167.0 L 117.0 167.0 L 118.0 166.0 L 118.0 166.0 L 119.0 166.0 L 120.0 166.0 L 120.0 166.0 L 121.0 166.0 L 122.0 166.0 L 123.0 166.0 L 123.0 166.0 L 124.0 166.0 L 125.0 166.0 L 126.0 166.0 L 126.0 166.0 L 127.0 166.0 L 128.0 166.0 L 129.0 166.0 L 129.0 166.0 L 130.0 166.0 L 131.0 166.0 L 132.0 166.0 L 132.0 166.0 L 133.0 166.0 L 134.0 166.0 L 135.0 167.0 L 136.0 167.0 L 136.0 167.0 L 137.0 167.0 L 138.0 167.0 L 139.0 167.0 L 139.0 167.0 L 140.0 167.0 L 141.0 167.0 L 142.0 167.0 L 142.0 167.0 L 143.0 167.0 L 144.0 167.0 L 145.0 167.0 L 145.0 167.0 L 146.0 167.0 L 147.0 166.0 L 148.0 166.0 L 148.0 166.0 L 149.0 166.0 L 149.0 166.0 L 150.0 166.0 L 150.0 165.0 L 151.0 165.0 L 152.0 165.0 L 152.0 165.0 L 153.0 165.0 L 153.0 165.0 L 153.0 165.0 L 154.0 165.0 L 154.0 165.0 L 155.0 165.0 L 155.0 165.0 L 156.0 165.0 L 156.0 165.0 L 157.0 165.0 L 157.0 165.0 L 158.0 165.0 L 158.0 165.0 L 158.0 165.0 L 159.0 165.0 L 159.0 165.0 L 160.0 165.0 L 160.0 165.0 L 161.0 165.0 L 161.0 165.0 L 162.0 165.0 L 162.0 165.0 L 163.0 165.0 L 163.0 165.0 L 164.0 165.0 L 164.0 165.0 L 165.0 165.0 L 165.0 165.0 L 166.0 165.0 L 166.0 165.0 L 167.0 165.0 L 168.0 165.0 L 168.0 165.0 L 169.0 165.0 L 169.0 165.0 L 170.0 165.0 L 171.0 165.0 L 171.0 165.0 L 172.0 165.0 L 173.0 165.0 L 173.0 166.0 L 174.0 166.0 L 175.0 166.0 L 175.0 166.0 L 176.0 166.0 L 177.0 166.0 L 177.0 166.0 L 178.0 166.0 L 179.0 166.0 L 179.0 166.0 L 180.0 166.0 L 181.0 166.0 L 181.0 166.0 L 182.0 166.0 L 183.0 166.0 L 184.0 166.0 L 184.0 166.0 L 185.0 166.0 L 186.0 166.0 L 186.0 166.0 L 187.0 166.0 L 187.0 166.0 L 188.0 166.0 L 189.0 166.0 L 189.0 166.0 L 190.0 166.0 L 191.0 166.0 L 192.0 166.0 L 192.0 166.0 L 193.0 166.0 L 194.0 166.0 L 195.0 166.0 L 196.0 166.0 L 196.0 166.0 L 197.0 166.0 L 198.0 166.0 L 199.0 166.0 L 200.0 166.0 L 201.0 166.0 L 201.0 166.0 L 202.0 166.0 L 203.0 166.0 L 204.0 166.0 L 205.0 165.0 L 206.0 165.0 L 206.0 165.0 L 207.0 165.0 L 208.0 165.0 L 209.0 165.0 L 210.0 165.0 L 211.0 165.0 L 212.0 165.0 L 212.0 165.0 L 214.0 165.0 L 214.0 165.0 L 216.0 165.0 L 217.0 165.0 L 218.0 165.0 L 219.0 165.0 L 220.0 165.0 L 221.0 165.0 L 222.0 165.0 L 224.0 165.0 L 225.0 165.0 L 226.0 165.0 L 227.0 166.0 L 229.0 166.0 L 230.0 166.0 L 231.0 166.0 L 231.0 166.0 " stroke="black" fill="none" stroke-width="5.0" stroke-linecap="round" stroke-linejoin="round" />
<path d="M 104.0 170.0 L 104.0 170.0 L 104.0 170.0 L 104.0 170.0 L 104.0 170.0 L 104.0 170.0 L 104.0 170.0 L 104.0 171.0 L 104.0 171.0 L 104.0 172.0 L 104.0 173.0 L 104.0 174.0 L 104.0 176.0 L 104.0 179.0 L 104.0 182.0 L 104.0 186.0 L 105.0 191.0 L 105.0 195.0 L 105.0 199.0 L 105.0 201.0 L 105.0 203.0 L 105.0 207.0 L 105.0 210.0 L 105.0 213.0 L 105.0 215.0 L 105.0 217.0 L 105.0 218.0 L 105.0 219.0 L 106.0 220.0 L 106.0 221.0 " stroke="black" fill="none" stroke-width="5.0" stroke-linecap="round" stroke-linejoin="round" />
<path d="M 200.0 172.0 L 200.0 172.0 L 200.0 172.0 L 200.0 172.0 L 200.0 173.0 L 200.0 174.0 L 200.0 174.0 L 200.0 175.0 L 200.0 175.0 L 200.0 175.0 L 200.0 176.0 L 200.0 177.0 L 200.0 178.0 L 200.0 179.0 L 200.0 181.0 L 200.0 183.0 L 200.0 185.0 L 200.0 186.0 L 200.0 188.0 L 200.0 191.0 L 200.0 194.0 L 200.0 197.0 L 200.0 200.0 L 200.0 203.0 L 200.0 206.0 L 200.0 209.0 L 200.0 212.0 L 200.0 215.0 L 200.0 217.0 L 200.0 221.0 L 200.0 223.0 L 200.0 226.0 L 200.0 229.0 L 200.0 232.0 L 200.0 234.0 L 200.0 237.0 L 200.0 239.0 L 200.0 242.0 L 200.0 244.0 L 201.0 246.0 L 201.0 248.0 L 201.0 251.0 L 201.0 253.0 L 201.0 255.0 L 201.0 257.0 L 201.0 258.0 L 201.0 259.0 L 201.0 261.0 L 201.0 261.0 L 201.0 262.0 L 201.0 262.0 L 201.0 262.0 L 201.0 261.0 " stroke="black" fill="none" stroke-width="5.0" stroke-linecap="round" stroke-linejoin="round" />
<path d="M 113.0 188.0 L 113.0 188.0 L 113.0 188.0 L 112.0 188.0 L 112.0 188.0 L 112.0 188.0 L 112.0 188.0 L 111.0 188.0 L 111.0 188.0 L 111.0 188.0 L 111.0 189.0 L 112.0 189.0 L 112.0 189.0 L 113.0 189.0 L 114.0 189.0 L 115.0 189.0 L 116.0 189.0 L 117.0 189.0 L 118.0 189.0 L 119.0 189.0 L 120.0 190.0 L 121.0 190.0 L 122.0 190.0 L 123.0 190.0 L 125.0 190.0 L 126.0 191.0 L 127.0 191.0 L 128.0 191.0 L 130.0 191.0 L 131.0 191.0 L 132.0 191.0 L 134.0 191.0 L 135.0 191.0 L 137.0 191.0 L 138.0 191.0 L 140.0 191.0 L 142.0 191.0 L 143.0 191.0 L 145.0 191.0 L 147.0 190.0 L 148.0 190.0 L 149.0 189.0 L 150.0 189.0 L 151.0 189.0 L 152.0 189.0 L 152.0 189.0 L 153.0 189.0 L 153.0 189.0 L 154.0 189.0 L 155.0 189.0 L 155.0 189.0 L 156.0 189.0 L 157.0 188.0 L 158.0 188.0 L 159.0 188.0 L 160.0 188.0 L 161.0 188.0 L 162.0 188.0 L 163.0 188.0 L 165.0 188.0 L 166.0 188.0 L 168.0 188.0 L 169.0 188.0 L 171.0 188.0 L 174.0 188.0 L 176.0 188.0 L 179.0 188.0 L 182.0 188.0 L 184.0 188.0 L 186.0 188.0 L 189.0 188.0 L 190.0 188.0 L 192.0 188.0 L 193.0 188.0 " stroke="black" fill="none" stroke-width="5.0" stroke-linecap="round" stroke-linejoin="round" />
<path d="M 108.0 209.0 L 108.0 209.0 L 108.0 209.0 L 108.0 209.0 L 108.0 209.0 L 107.0 209.0 L 107.0 209.0 L 107.0 209.0 L 107.0 209.0 L 107.0 209.0 L 107.0 209.0 L 107.0 208.0 L 108.0 208.0 L 108.0 208.0 L 109.0 208.0 L 109.0 208.0 L 110.0 208.0 L 110.0 208.0 L 111.0 208.0 L 112.0 208.0 L 112.0 208.0 L 113.0 208.0 L 114.0 208.0 L 114.0 208.0 L 115.0 208.0 L 116.0 208.0 L 116.0 208.0 L 117.0 208.0 L 118.0 208.0 L 118.0 208.0 L 119.0 208.0 L 120.0 208.0 L 121.0 208.0 L 121.0 208.0 L 122.0 208.0 L 123.0 208.0 L 124.0 208.0 L 125.0 208.0 L 126.0 208.0 L 127.0 208.0 L 128.0 208.0 L 130.0 208.0 L 130.0 208.0 L 131.0 208.0 L 133.0 208.0 L 134.0 208.0 L 136.0 208.0 L 138.0 208.0 L 139.0 208.0 L 141.0 208.0 L 142.0 208.0 L 144.0 208.0 L 144.0 208.0 L 145.0 208.0 L 146.0 208.0 L 147.0 208.0 L 148.0 208.0 L 148.0 208.0 L 149.0 208.0 L 150.0 208.0 L 151.0 207.0 L 151.0 207.0 L 152.0 207.0 L 153.0 207.0 L 154.0 207.0 L 155.0 207.0 L 156.0 207.0 L 156.0 208.0 L 157.0 208.0 L 159.0 208.0 L 160.0 209.0 L 161.0 209.0 L 162.0 209.0 L 164.0 209.0 L 166.0 209.0 L 168.0 209.0 L 170.0 209.0 L 173.0 209.0 L 176.0 209.0 L 178.0 209.0 L 181.0 209.0 L 184.0 209.0 L 187.0 208.0 L 189.0 207.0 L 190.0 207.0 L 191.0 206.0 L 191.0 206.0 " stroke="black" fill="none" stroke-width="5.0" stroke-linecap="round" stroke-linejoin="round" />
<path d="M 66.0 234.0 L 66.0 234.0 L 66.0 234.0 L 65.0 234.0 L 65.0 234.0 L 65.0 234.0 L 65.0 234.0 L 65.0 234.0 L 66.0 234.0 L 66.0 234.0 L 67.0 234.0 L 68.0 233.0 L 70.0 233.0 L 71.0 232.0 L 72.0 232.0 L 73.0 232.0 L 74.0 232.0 L 76.0 232.0 L 77.0 232.0 L 78.0 232.0 L 80.0 232.0 L 81.0 232.0 L 83.0 232.0 L 84.0 232.0 L 85.0 232.0 L 86.0 232.0 L 88.0 233.0 L 89.0 233.0 L 90.0 234.0 L 91.0 234.0 L 92.0 234.0 L 93.0 235.0 L 94.0 235.0 L 95.0 235.0 L 96.0 236.0 L 97.0 236.0 L 98.0 236.0 L 99.0 236.0 L 100.0 236.0 L 101.0 236.0 L 102.0 236.0 L 103.0 236.0 L 103.0 236.0 L 104.0 236.0 L 105.0 236.0 L 106.0 236.0 L 107.0 236.0 L 108.0 236.0 L 109.0 236.0 L 110.0 236.0 L 110.0 236.0 L 111.0 236.0 L 112.0 236.0 L 113.0 236.0 L 114.0 236.0 L 116.0 236.0 L 117.0 236.0 L 118.0 236.0 L 119.0 236.0 L 121.0 236.0 L 122.0 236.0 L 123.0 236.0 L 124.0 236.0 L 125.0 236.0 L 126.0 236.0 L 128.0 235.0 L 130.0 235.0 L 131.0 235.0 L 133.0 235.0 L 135.0 234.0 L 136.0 234.0 L 138.0 234.0 L 139.0 234.0 L 141.0 234.0 L 142.0 234.0 L 143.0 234.0 L 144.0 234.0 L 146.0 234.0 L 147.0 233.0 L 147.0 233.0 L 148.0 233.0 L 149.0 233.0 L 150.0 233.0 L 150.0 233.0 L 151.0 233.0 L 152.0 233.0 L 152.0 233.0 L 153.0 233.0 L 153.0 233.0 L 154.0 233.0 L 155.0 233.0 L 155.0 233.0 L 156.0 233.0 L 157.0 233.0 L 157.0 233.0 L 158.0 233.0 L 159.0 233.0 L 159.0 233.0 L 160.0 233.0 L 161.0 233.0 L 162.0 233.0 L 163.0 233.0 L 164.0 233.0 L 165.0 233.0 L 166.0 233.0 L 168.0 233.0 L 169.0 233.0 L 171.0 233.0 L 172.0 233.0 L 173.0 233.0 L 175.0 233.0 L 176.0 233.0 L 177.0 233.0 L 178.0 233.0 L 179.0 233.0 L 180.0 233.0 L 181.0 233.0 L 182.0 232.0 L 183.0 232.0 L 184.0 232.0 L 184.0 232.0 L 185.0 232.0 L 186.0 231.0 L 187.0 231.0 L 187.0 231.0 L 188.0 231.0 L 189.0 231.0 L 189.0 231.0 L 190.0 231.0 L 191.0 231.0 L 191.0 231.0 L 192.0 231.0 L 193.0 231.0 L 193.0 231.0 L 194.0 231.0 L 194.0 231.0 L 195.0 231.0 L 195.0 231.0 L 196.0 231.0 L 196.0 231.0 L 197.0 231.0 L 198.0 231.0 L 198.0 231.0 L 199.0 231.0 L 200.0 231.0 L 201.0 231.0 L 202.0 231.0 L 202.0 231.0 L 203.0 231.0 L 204.0 231.0 L 205.0 231.0 L 206.0 231.0 L 207.0 231.0 L 208.0 231.0 L 209.0 231.0 L 209.0 231.0 L 210.0 231.0 L 211.0 231.0 L 212.0 231.0 L 213.0 231.0 L 215.0 231.0 L 216.0 231.0 L 217.0 231.0 L 219.0 231.0 L 220.0 231.0 L 221.0 231.0 L 223.0 231.0 L 224.0 231.0 L 225.0 231.0 L 227.0 231.0 L 228.0 231.0 L 229.0 231.0 L 230.0 231.0 L 231.0 231.0 L 232.0 231.0 L 233.0 231.0 L 234.0 230.0 L 235.0 230.0 L 236.0 230.0 L 237.0 230.0 L 237.0 230.0 L 238.0 230.0 L 239.0 229.0 L 239.0 229.0 L 240.0 229.0 L 240.0 229.0 " stroke="black" fill="none" stroke-width="5.0" stroke-linecap="round" stroke-linejoin="round" />
</svg>