<svg xmlns="http://www.w3.org/2000/svg" width="300" height="300" viewBox="0 0 300 300">
<path d="M 100.0 66.0 L 100.0 66.0 L 100.0 66.0 L 99.0 66.0 L 99.0 66.0 L 98.0 66.0 L 98.0 66.0 L 98.0 66.0 L 98.0 67.0 L 98.0 68.0 L 98.0 70.0 L 99.0 72.0 L 100.0 74.0 L 101.0 76.0 L 102.0 78.0 L 103.0 80.0 " stroke="black" fill="none" stroke-width="5.0" stroke-linecap="round" stroke-linejoin="round" />
<path d="M 64.0 88.0 L 64.0 88.0 L 63.0 88.0 L 63.0 88.0 L 62.0 88.0 L 62.0 88.0 L 62.0 88.0 L 62.0 88.0 L 62.0 88.0 L 62.0 88.0 L 63.0 88.0 L 64.0 88.0 L 66.0 88.0 L 69.0 88.0 L 74.0 88.0 L 79.0 88.0 L 85.0 88.0 L 92.0 88.0 L 98.0 88.0 L 104.0 87.0 L 110.0 87.0 L 114.0 87.0 L 117.0 86.0 L 120.0 86.0 L 123.0 85.0 L 125.0 85.0 L 126.0 85.0 L 127.0 85.0 L 127.0 85.0 L 127.0 85.0 " stroke="black" fill="none" stroke-width="5.0" stroke-linecap="round" stroke-linejoin="round" />
<path d="M 74.0 95.0 L 74.0 95.0 L 74.0 95.0 L 74.0 95.0 L 74.0 95.0 L 74.0 95.0 L 75.0 96.0 L 76.0 97.0 L 76.0 99.0 L 78.0 102.0 L 80.0 105.0 L 82.0 108.0 L 84.0 112.0 L 86.0 115.0 L 89.0 118.0 L 91.0 120.0 L 93.0 122.0 " stroke="black" fill="none" stroke-width="5.0" stroke-linecap="round" stroke-linejoin="round" />
<path d="M 119.0 91.0 L 120.0 91.0 L 121.0 91.0 L 122.0 91.0 L 122.0 90.0 L 123.0 90.0 L 123.0 90.0 L 123.0 90.0 L 123.0 91.0 L 122.0 92.0 L 120.0 94.0 L 119.0 97.0 L 117.0 101.0 L 114.0 105.0 L 112.0 109.0 L 109.0 114.0 L 108.0 117.0 L 106.0 121.0 L 105.0 123.0 " stroke="black" fill="none" stroke-width="5.0" stroke-linecap="round" stroke-linejoin="round" />
<path d="M 63.0 130.0 L 63.0 130.0 L 63.0 130.0 L 63.0 130.0 L 62.0 130.0 L 62.0 130.0 L 62.0 130.0 L 62.0 130.0 L 62.0 130.0 L 62.0 130.0 L 62.0 130.0 L 62.0 130.0 L 64.0 130.0 L 66.0 130.0 L 69.0 130.0 L 73.0 130.0 L 78.0 130.0 L 85.0 130.0 L 92.0 130.0 L 99.0 129.0 L 106.0 128.0 L 111.0 127.0 L 116.0 126.0 L 120.0 125.0 L 124.0 125.0 L 127.0 124.0 L 131.0 124.0 L 133.0 124.0 L 135.0 124.0 L 136.0 124.0 L 136.0 125.0 L 136.0 125.0 L 136.0 126.0 L 135.0 126.0 " stroke="black" fill="none" stroke-width="5.0" stroke-linecap="round" stroke-linejoin="round" />
<path d="M 72.0 157.0 L 72.0 157.0 L 72.0 157.0 L 72.0 157.0 L 72.0 157.0 L 72.0 157.0 L 72.0 157.0 L 72.0 157.0 L 72.0 157.0 L 73.0 157.0 L 73.0 158.0 L 73.0 159.0 L 73.0 160.0 L 73.0 162.0 L 73.0 165.0 L 73.0 168.0 L 73.0 172.0 L 73.0 176.0 L 73.0 180.0 L 73.0 185.0 L 73.0 189.0 L 73.0 193.0 L 73.0 197.0 L 73.0 200.0 L 72.0 203.0 L 71.0 206.0 L 71.0 209.0 L 70.0 212.0 L 69.0 215.0 L 68.0 218.0 L 67.0 222.0 L 66.0 227.0 L 65.0 231.0 L 64.0 235.0 L 63.0 238.0 L 62.0 240.0 L 62.0 242.0 L 61.0 243.0 L 60.0 243.0 " stroke="black" fill="none" stroke-width="5.0" stroke-linecap="round" stroke-linejoin="round" />
<path d="M 78.0 156.0 L 78.0 156.0 L 77.0 156.0 L 77.0 156.0 L 76.0 156.0 L 75.0 156.0 L 75.0 157.0 L 74.0 157.0 L 74.0 157.0 L 74.0 157.0 L 74.0 157.0 L 74.0 157.0 L 74.0 158.0 L 75.0 158.0 L 76.0 158.0 L 77.0 158.0 L 79.0 158.0 L 80.0 158.0 L 82.0 158.0 L 84.0 158.0 L 86.0 158.0 L 88.0 157.0 L 90.0 157.0 L 92.0 157.0 L 93.0 157.0 L 95.0 157.0 L 96.0 157.0 L 97.0 157.0 L 98.0 157.0 L 99.0 157.0 L 100.0 157.0 L 100.0 157.0 L 101.0 157.0 L 102.0 157.0 L 102.0 157.0 L 103.0 157.0 L 104.0 157.0 L 104.0 157.0 L 105.0 157.0 L 106.0 157.0 L 107.0 157.0 L 107.0 157.0 L 108.0 157.0 L 109.0 157.0 L 109.0 157.0 L 110.0 157.0 L 111.0 157.0 L 112.0 157.0 L 113.0 156.0 L 114.0 156.0 L 115.0 156.0 L 116.0 156.0 L 117.0 156.0 L 119.0 156.0 L 120.0 156.0 L 122.0 156.0 L 123.0 156.0 L 125.0 156.0 L 127.0 156.0 L 128.0 156.0 L 130.0 156.0 L 131.0 155.0 L 132.0 155.0 L 133.0 155.0 L 134.0 155.0 L 135.0 155.0 L 135.0 155.0 L 136.0 155.0 L 136.0 155.0 L 136.0 156.0 L 137.0 156.0 L 137.0 157.0 L 137.0 158.0 L 137.0 159.0 L 137.0 160.0 L 137.0 161.0 L 137.0 163.0 L 137.0 165.0 L 136.0 167.0 L 136.0 170.0 L 136.0 173.0 L 135.0 176.0 L 135.0 180.0 L 135.0 184.0 L 135.0 188.0 L 135.0 191.0 L 135.0 195.0 L 135.0 198.0 L 135.0 202.0 L 135.0 205.0 L 135.0 208.0 L 134.0 211.0 L 134.0 213.0 L 134.0 216.0 L 134.0 219.0 L 134.0 222.0 L 134.0 225.0 L 133.0 228.0 L 133.0 231.0 L 133.0 233.0 L 133.0 236.0 L 133.0 238.0 L 133.0 240.0 L 132.0 242.0 L 132.0 244.0 L 131.0 246.0 L 131.0 248.0 L 131.0 250.0 L 130.0 251.0 L 130.0 253.0 L 130.0 254.0 L 129.0 255.0 L 129.0 255.0 L 128.0 256.0 L 128.0 256.0 L 127.0 257.0 L 127.0 257.0 L 126.0 257.0 L 125.0 257.0 L 124.0 257.0 L 123.0 257.0 L 121.0 257.0 L 120.0 257.0 L 118.0 257.0 L 116.0 256.0 L 115.0 254.0 L 113.0 252.0 L 110.0 250.0 L 108.0 247.0 L 106.0 244.0 L 105.0 243.0 " stroke="black" fill="none" stroke-width="5.0" stroke-linecap="round" stroke-linejoin="round" />
<path d="M 91.0 184.0 L 90.0 184.0 L 89.0 184.0 L 87.0 183.0 L 86.0 183.0 L 86.0 183.0 L 86.0 183.0 L 86.0 183.0 L 86.0 183.0 L 87.0 183.0 L 88.0 183.0 L 90.0 184.0 L 93.0 184.0 L 96.0 185.0 L 99.0 187.0 L 102.0 188.0 L 105.0 189.0 L 108.0 190.0 L 112.0 192.0 L 115.0 193.0 L 118.0 194.0 L 120.0 195.0 L 121.0 196.0 L 121.0 198.0 " stroke="black" fill="none" stroke-width="5.0" stroke-linecap="round" stroke-linejoin="round" />
<path d="M 83.0 223.0 L 82.0 223.0 L 80.0 223.0 L 79.0 223.0 L 77.0 224.0 L 77.0 224.0 L 76.0 224.0 L 76.0 224.0 L 77.0 223.0 L 79.0 222.0 L 82.0 221.0 L 85.0 220.0 L 89.0 218.0 L 94.0 217.0 L 99.0 215.0 L 104.0 212.0 L 110.0 209.0 L 116.0 206.0 L 122.0 202.0 L 129.0 197.0 " stroke="black" fill="none" stroke-width="5.0" stroke-linecap="round" stroke-linejoin="round" />
<path d="M 177.0 89.0 L 176.0 89.0 L 174.0 89.0 L 173.0 89.0 L 172.0 89.0 L 171.0 89.0 L 171.0 89.0 L 171.0 89.0 L 171.0 89.0 L 171.0 89.0 L 173.0 89.0 L 174.0 90.0 L 177.0 90.0 L 179.0 90.0 L 182.0 90.0 L 185.0 91.0 L 188.0 91.0 L 191.0 91.0 L 193.0 91.0 L 196.0 91.0 L 199.0 91.0 L 202.0 91.0 L 205.0 91.0 L 209.0 91.0 L 211.0 91.0 L 214.0 91.0 L 218.0 91.0 L 220.0 91.0 L 223.0 91.0 L 226.0 91.0 L 228.0 91.0 L 231.0 91.0 L 233.0 91.0 L 235.0 91.0 L 237.0 91.0 L 238.0 91.0 L 239.0 91.0 L 240.0 91.0 L 241.0 91.0 L 241.0 91.0 L 241.0 91.0 L 241.0 91.0 " stroke="black" fill="none" stroke-width="5.0" stroke-linecap="round" stroke-linejoin="round" />
<path d="M 169.0 74.0 L 169.0 74.0 L 169.0 74.0 L 169.0 74.0 L 169.0 75.0 L 169.0 75.0 L 169.0 76.0 L 169.0 77.0 L 169.0 78.0 L 169.0 79.0 L 169.0 81.0 L 169.0 83.0 L 169.0 85.0 L 169.0 87.0 L 169.0 90.0 L 169.0 92.0 L 169.0 95.0 L 169.0 97.0 L 169.0 100.0 L 169.0 102.0 L 169.0 104.0 L 169.0 106.0 L 169.0 108.0 L 170.0 109.0 L 170.0 110.0 L 170.0 111.0 L 170.0 112.0 L 170.0 113.0 L 170.0 114.0 L 170.0 115.0 L 170.0 116.0 L 171.0 117.0 L 171.0 118.0 L 171.0 118.0 L 171.0 119.0 L 171.0 120.0 L 171.0 120.0 L 171.0 121.0 L 171.0 121.0 L 171.0 122.0 L 171.0 122.0 L 171.0 123.0 L 171.0 123.0 L 171.0 123.0 L 171.0 123.0 L 171.0 123.0 L 171.0 123.0 L 171.0 123.0 L 171.0 123.0 L 171.0 123.0 L 171.0 123.0 L 172.0 123.0 L 172.0 123.0 L 173.0 123.0 L 174.0 123.0 L 176.0 123.0 L 177.0 123.0 L 178.0 123.0 L 180.0 123.0 L 182.0 123.0 L 184.0 123.0 L 186.0 123.0 L 188.0 123.0 L 190.0 123.0 L 192.0 123.0 L 193.0 123.0 L 195.0 123.0 L 196.0 123.0 L 197.0 123.0 L 198.0 123.0 L 200.0 123.0 L 201.0 123.0 L 202.0 123.0 L 204.0 123.0 L 205.0 123.0 L 206.0 123.0 L 208.0 123.0 L 209.0 123.0 L 211.0 123.0 L 213.0 123.0 L 215.0 123.0 L 216.0 123.0 L 218.0 123.0 L 220.0 123.0 L 221.0 123.0 L 223.0 123.0 L 224.0 123.0 L 225.0 123.0 L 226.0 123.0 L 227.0 123.0 L 227.0 123.0 L 228.0 123.0 L 228.0 123.0 L 228.0 123.0 L 228.0 124.0 L 228.0 124.0 L 228.0 125.0 L 228.0 125.0 L 228.0 125.0 L 228.0 126.0 L 228.0 127.0 L 228.0 128.0 L 228.0 129.0 L 227.0 130.0 L 227.0 131.0 L 226.0 133.0 L 225.0 135.0 L 225.0 137.0 L 224.0 139.0 L 224.0 141.0 L 223.0 143.0 L 223.0 145.0 L 222.0 147.0 L 222.0 148.0 L 221.0 150.0 L 220.0 151.0 L 219.0 152.0 L 218.0 153.0 L 217.0 154.0 L 216.0 155.0 L 215.0 155.0 L 214.0 155.0 L 212.0 155.0 L 210.0 155.0 L 208.0 155.0 L 206.0 155.0 L 203.0 155.0 L 200.0 155.0 L 198.0 155.0 L 195.0 155.0 L 193.0 155.0 L 191.0 155.0 L 189.0 154.0 L 188.0 154.0 L 186.0 154.0 L 185.0 154.0 L 183.0 154.0 L 181.0 153.0 L 180.0 153.0 L 178.0 153.0 L 177.0 153.0 L 176.0 153.0 L 175.0 153.0 L 174.0 153.0 L 174.0 153.0 L 173.0 153.0 L 172.0 153.0 L 171.0 154.0 L 170.0 154.0 L 170.0 154.0 L 169.0 154.0 L 169.0 154.0 L 168.0 154.0 L 168.0 154.0 L 167.0 154.0 L 167.0 155.0 L 167.0 155.0 L 166.0 155.0 L 166.0 155.0 L 166.0 156.0 L 166.0 156.0 L 166.0 156.0 L 166.0 157.0 L 166.0 157.0 L 166.0 157.0 L 166.0 157.0 L 166.0 158.0 L 166.0 158.0 L 166.0 158.0 L 166.0 159.0 L 166.0 159.0 L 166.0 159.0 L 166.0 159.0 L 167.0 160.0 L 167.0 160.0 L 167.0 160.0 L 167.0 161.0 L 168.0 161.0 L 168.0 162.0 L 168.0 162.0 L 168.0 163.0 L 169.0 164.0 L 169.0 165.0 L 169.0 166.0 L 170.0 168.0 L 170.0 169.0 L 171.0 170.0 L 171.0 172.0 L 171.0 174.0 L 171.0 175.0 L 171.0 178.0 L 171.0 180.0 L 171.0 182.0 L 171.0 185.0 L 171.0 187.0 L 171.0 190.0 L 171.0 192.0 L 171.0 194.0 L 171.0 196.0 L 171.0 199.0 L 171.0 201.0 L 171.0 203.0 L 171.0 205.0 L 171.0 206.0 L 171.0 208.0 L 171.0 210.0 L 171.0 212.0 L 171.0 213.0 L 171.0 215.0 L 171.0 217.0 L 171.0 218.0 L 171.0 220.0 L 171.0 221.0 L 171.0 223.0 L 171.0 225.0 L 171.0 226.0 L 171.0 228.0 L 171.0 229.0 L 171.0 230.0 L 171.0 231.0 L 171.0 232.0 L 171.0 233.0 L 171.0 234.0 L 171.0 235.0 L 171.0 236.0 L 171.0 237.0 L 171.0 237.0 L 171.0 238.0 L 171.0 239.0 L 171.0 239.0 L 171.0 240.0 L 171.0 240.0 L 171.0 241.0 L 172.0 241.0 L 172.0 241.0 L 172.0 241.0 L 172.0 242.0 L 172.0 242.0 L 172.0 242.0 L 173.0 242.0 L 173.0 243.0 L 173.0 243.0 L 174.0 243.0 L 174.0 244.0 L 174.0 244.0 L 175.0 244.0 L 175.0 244.0 L 176.0 245.0 L 176.0 245.0 L 177.0 245.0 L 177.0 245.0 L 178.0 245.0 L 179.0 245.0 L 179.0 245.0 L 180.0 245.0 L 181.0 245.0 L 182.0 246.0 L 182.0 246.0 L 183.0 246.0 L 184.0 246.0 L 185.0 246.0 L 186.0 246.0 L 187.0 246.0 L 188.0 246.0 L 189.0 246.0 L 191.0 246.0 L 192.0 247.0 L 194.0 247.0 L 195.0 247.0 L 197.0 247.0 L 199.0 247.0 L 201.0 248.0 L 202.0 248.0 L 204.0 248.0 L 206.0 248.0 L 208.0 248.0 L 209.0 248.0 L 211.0 249.0 L 213.0 249.0 L 215.0 249.0 L 218.0 249.0 L 220.0 249.0 L 222.0 249.0 L 225.0 250.0 L 227.0 250.0 L 229.0 250.0 L 231.0 250.0 L 232.0 250.0 L 233.0 250.0 L 234.0 250.0 L 235.0 250.0 L 235.0 249.0 L 235.0 249.0 L 236.0 248.0 L 236.0 248.0 L 236.0 247.0 L 236.0 247.0 L 236.0 246.0 L 236.0 245.0 L 235.0 245.0 L 235.0 244.0 L 235.0 244.0 L 235.0 243.0 L 234.0 241.0 L 234.0 240.0 L 234.0 237.0 L 233.0 236.0 " stroke="black" fill="none" stroke-width="5.0" stroke-linecap="round" stroke-linejoin="round" />
<path d="M 178.0 175.0 L 178.0 175.0 L 178.0 175.0 L 178.0 174.0 L 178.0 174.0 L 177.0 174.0 L 177.0 174.0 L 177.0 174.0 L 177.0 174.0 L 177.0 174.0 L 177.0 174.0 L 178.0 174.0 L 180.0 174.0 L 182.0 174.0 L 185.0 175.0 L 189.0 175.0 L 192.0 176.0 L 197.0 176.0 L 202.0 176.0 L 208.0 176.0 L 213.0 175.0 L 218.0 175.0 L 222.0 174.0 L 225.0 174.0 L 227.0 174.0 L 228.0 174.0 L 228.0 174.0 " stroke="black" fill="none" stroke-width="5.0" stroke-linecap="round" stroke-linejoin="round" />
<path d="M 176.0 197.0 L 176.0 197.0 L 176.0 197.0 L 175.0 197.0 L 174.0 197.0 L 174.0 197.0 L 174.0 197.0 L 174.0 197.0 L 175.0 197.0 L 177.0 197.0 L 180.0 197.0 L 184.0 197.0 L 188.0 197.0 L 192.0 197.0 L 196.0 196.0 L 202.0 196.0 L 207.0 196.0 L 213.0 196.0 L 219.0 196.0 L 223.0 196.0 L 225.0 196.0 " stroke="black" fill="none" stroke-width="5.0" stroke-linecap="round" stroke-linejoin="round" />
<path d="M 182.0 220.0 L 182.0 220.0 L 182.0 220.0 L 182.0 219.0 L 182.0 219.0 L 181.0 219.0 L 181.0 218.0 L 181.0 218.0 L 181.0 218.0 L 181.0 218.0 L 181.0 218.0 L 181.0 218.0 L 181.0 218.0 L 181.0 218.0 L 181.0 218.0 L 182.0 218.0 L 182.0 219.0 L 183.0 219.0 L 184.0 219.0 L 184.0 219.0 L 185.0 219.0 L 186.0 220.0 L 187.0 220.0 L 188.0 220.0 L 190.0 220.0 L 191.0 220.0 L 192.0 221.0 L 193.0 221.0 L 194.0 221.0 L 195.0 221.0 L 196.0 221.0 L 197.0 221.0 L 198.0 221.0 L 200.0 221.0 L 201.0 221.0 L 202.0 221.0 L 204.0 221.0 L 206.0 221.0 L 208.0 221.0 L 210.0 220.0 L 212.0 220.0 L 214.0 220.0 L 217.0 220.0 L 219.0 219.0 L 222.0 219.0 L 224.0 219.0 L 227.0 218.0 L 228.0 218.0 L 230.0 218.0 L 231.0 218.0 L 232.0 218.0 L 232.0 219.0 L 232.0 219.0 " stroke="black" fill="none" stroke-width="5.0" stroke-linecap="round" stroke-linejoin="round" />
</svg>