<svg xmlns="http://www.w3.org/2000/svg" width="300" height="300" viewBox="0 0 300 300">
<path d="M 99.0 69.0 L 99.0 68.0 L 98.0 67.0 L 97.0 66.0 L 96.0 65.0 L 96.0 64.0 L 96.0 64.0 L 96.0 64.0 L 96.0 64.0 L 97.0 64.0 L 98.0 66.0 L 99.0 69.0 L 101.0 72.0 L 102.0 76.0 L 103.0 79.0 L 105.0 83.0 L 106.0 86.0 L 107.0 89.0 L 108.0 90.0 " stroke="black" fill="none" stroke-width="5.0" stroke-linecap="round" stroke-linejoin="round" />
<path d="M 66.0 93.0 L 66.0 93.0 L 66.0 93.0 L 66.0 93.0 L 65.0 93.0 L 65.0 93.0 L 65.0 93.0 L 64.0 93.0 L 64.0 94.0 L 64.0 94.0 L 64.0 94.0 L 64.0 94.0 L 64.0 94.0 L 64.0 94.0 L 65.0 94.0 L 66.0 94.0 L 68.0 94.0 L 70.0 94.0 L 74.0 94.0 L 78.0 94.0 L 84.0 94.0 L 90.0 93.0 L 96.0 93.0 L 103.0 93.0 L 108.0 93.0 L 112.0 93.0 L 117.0 93.0 L 121.0 93.0 L 125.0 93.0 L 132.0 93.0 L 134.0 93.0 L 135.0 93.0 L 136.0 93.0 " stroke="black" fill="none" stroke-width="5.0" stroke-linecap="round" stroke-linejoin="round" />
<path d="M 81.0 103.0 L 81.0 103.0 L 81.0 103.0 L 81.0 103.0 L 81.0 103.0 L 82.0 104.0 L 82.0 104.0 L 83.0 106.0 L 84.0 108.0 L 85.0 110.0 L 86.0 113.0 L 88.0 117.0 L 90.0 121.0 L 91.0 124.0 L 93.0 127.0 L 95.0 128.0 L 96.0 129.0 " stroke="black" fill="none" stroke-width="5.0" stroke-linecap="round" stroke-linejoin="round" />
<path d="M 125.0 97.0 L 125.0 97.0 L 124.0 97.0 L 123.0 98.0 L 122.0 99.0 L 122.0 100.0 L 121.0 101.0 L 121.0 103.0 L 120.0 104.0 L 119.0 107.0 L 118.0 109.0 L 117.0 112.0 L 115.0 116.0 L 114.0 119.0 L 112.0 122.0 L 110.0 125.0 L 109.0 127.0 L 107.0 129.0 " stroke="black" fill="none" stroke-width="5.0" stroke-linecap="round" stroke-linejoin="round" />
<path d="M 60.0 134.0 L 60.0 134.0 L 59.0 134.0 L 59.0 134.0 L 59.0 133.0 L 59.0 133.0 L 59.0 133.0 L 58.0 133.0 L 58.0 133.0 L 58.0 133.0 L 58.0 133.0 L 58.0 133.0 L 58.0 133.0 L 58.0 133.0 L 58.0 133.0 L 58.0 133.0 L 58.0 133.0 L 59.0 134.0 L 59.0 134.0 L 60.0 134.0 L 60.0 134.0 L 61.0 135.0 L 61.0 135.0 L 62.0 135.0 L 62.0 135.0 L 63.0 136.0 L 63.0 136.0 L 64.0 136.0 L 64.0 136.0 L 65.0 136.0 L 65.0 136.0 L 66.0 136.0 L 67.0 136.0 L 67.0 136.0 L 68.0 136.0 L 69.0 136.0 L 69.0 136.0 L 70.0 137.0 L 71.0 137.0 L 72.0 137.0 L 73.0 137.0 L 73.0 137.0 L 74.0 137.0 L 75.0 137.0 L 76.0 137.0 L 77.0 137.0 L 78.0 137.0 L 80.0 137.0 L 81.0 137.0 L 82.0 137.0 L 84.0 136.0 L 86.0 136.0 L 88.0 136.0 L 89.0 136.0 L 91.0 136.0 L 93.0 136.0 L 95.0 136.0 L 97.0 136.0 L 99.0 136.0 L 101.0 136.0 L 103.0 136.0 L 104.0 136.0 L 106.0 136.0 L 107.0 136.0 L 109.0 136.0 L 110.0 136.0 L 112.0 136.0 L 114.0 136.0 L 115.0 136.0 L 117.0 136.0 L 120.0 136.0 L 122.0 136.0 L 125.0 136.0 L 128.0 136.0 L 130.0 136.0 L 133.0 136.0 L 135.0 136.0 L 137.0 136.0 L 139.0 136.0 L 140.0 136.0 L 140.0 136.0 L 141.0 136.0 L 141.0 136.0 " stroke="black" fill="none" stroke-width="5.0" stroke-linecap="round" stroke-linejoin="round" />
<path d="M 72.0 158.0 L 72.0 158.0 L 72.0 158.0 L 73.0 159.0 L 73.0 159.0 L 73.0 159.0 L 73.0 160.0 L 73.0 160.0 L 74.0 161.0 L 74.0 162.0 L 74.0 162.0 L 74.0 163.0 L 74.0 164.0 L 75.0 166.0 L 75.0 167.0 L 75.0 169.0 L 76.0 170.0 L 76.0 172.0 L 76.0 174.0 L 76.0 176.0 L 76.0 178.0 L 76.0 180.0 L 76.0 182.0 L 76.0 184.0 L 76.0 186.0 L 76.0 187.0 L 76.0 189.0 L 76.0 190.0 L 76.0 192.0 L 75.0 193.0 L 75.0 194.0 L 75.0 195.0 L 75.0 196.0 L 75.0 198.0 L 74.0 199.0 L 74.0 200.0 L 74.0 201.0 L 74.0 202.0 L 74.0 203.0 L 74.0 205.0 L 74.0 206.0 L 74.0 207.0 L 73.0 208.0 L 73.0 209.0 L 73.0 210.0 L 73.0 212.0 L 73.0 213.0 L 72.0 214.0 L 72.0 215.0 L 72.0 217.0 L 71.0 218.0 L 71.0 220.0 L 71.0 222.0 L 71.0 224.0 L 70.0 226.0 L 69.0 228.0 L 69.0 231.0 L 68.0 234.0 L 68.0 236.0 L 67.0 238.0 L 66.0 241.0 L 65.0 243.0 L 65.0 245.0 L 64.0 246.0 L 63.0 248.0 " stroke="black" fill="none" stroke-width="5.0" stroke-linecap="round" stroke-linejoin="round" />
<path d="M 75.0 161.0 L 75.0 161.0 L 75.0 161.0 L 75.0 161.0 L 75.0 161.0 L 75.0 161.0 L 74.0 161.0 L 74.0 161.0 L 74.0 161.0 L 74.0 161.0 L 74.0 161.0 L 74.0 161.0 L 74.0 161.0 L 74.0 161.0 L 75.0 161.0 L 75.0 161.0 L 76.0 161.0 L 77.0 161.0 L 78.0 161.0 L 79.0 160.0 L 80.0 160.0 L 81.0 160.0 L 82.0 160.0 L 83.0 160.0 L 84.0 160.0 L 85.0 160.0 L 86.0 160.0 L 87.0 160.0 L 89.0 160.0 L 90.0 160.0 L 91.0 160.0 L 92.0 160.0 L 93.0 160.0 L 94.0 160.0 L 96.0 160.0 L 97.0 160.0 L 98.0 160.0 L 100.0 159.0 L 101.0 159.0 L 102.0 159.0 L 103.0 159.0 L 104.0 159.0 L 105.0 159.0 L 106.0 159.0 L 107.0 159.0 L 108.0 159.0 L 109.0 159.0 L 110.0 159.0 L 111.0 158.0 L 112.0 158.0 L 113.0 158.0 L 113.0 158.0 L 114.0 158.0 L 115.0 157.0 L 116.0 157.0 L 117.0 157.0 L 117.0 157.0 L 118.0 157.0 L 119.0 157.0 L 120.0 157.0 L 121.0 157.0 L 122.0 157.0 L 123.0 157.0 L 124.0 157.0 L 125.0 157.0 L 126.0 157.0 L 127.0 157.0 L 128.0 157.0 L 129.0 157.0 L 130.0 157.0 L 131.0 157.0 L 132.0 157.0 L 133.0 158.0 L 133.0 158.0 L 134.0 158.0 L 135.0 158.0 L 135.0 159.0 L 135.0 159.0 L 136.0 159.0 L 136.0 160.0 L 136.0 160.0 L 137.0 161.0 L 137.0 162.0 L 137.0 163.0 L 137.0 164.0 L 137.0 165.0 L 137.0 166.0 L 137.0 168.0 L 137.0 170.0 L 137.0 172.0 L 137.0 174.0 L 137.0 177.0 L 137.0 180.0 L 137.0 184.0 L 137.0 189.0 L 137.0 193.0 L 137.0 197.0 L 137.0 202.0 L 137.0 205.0 L 137.0 208.0 L 137.0 211.0 L 137.0 213.0 L 137.0 216.0 L 137.0 218.0 L 137.0 221.0 L 137.0 224.0 L 137.0 228.0 L 137.0 231.0 L 137.0 234.0 L 137.0 238.0 L 136.0 240.0 L 136.0 243.0 L 135.0 245.0 L 135.0 247.0 L 134.0 249.0 L 133.0 251.0 L 133.0 253.0 L 132.0 255.0 L 131.0 257.0 L 130.0 258.0 L 130.0 260.0 L 129.0 261.0 L 128.0 262.0 L 127.0 262.0 L 126.0 262.0 L 124.0 262.0 L 122.0 261.0 L 120.0 259.0 L 118.0 257.0 L 115.0 255.0 L 112.0 252.0 L 110.0 250.0 L 108.0 247.0 L 107.0 246.0 " stroke="black" fill="none" stroke-width="5.0" stroke-linecap="round" stroke-linejoin="round" />
<path d="M 87.0 180.0 L 87.0 180.0 L 87.0 180.0 L 87.0 180.0 L 87.0 180.0 L 87.0 181.0 L 87.0 181.0 L 87.0 182.0 L 89.0 183.0 L 91.0 184.0 L 94.0 185.0 L 98.0 186.0 L 102.0 188.0 L 105.0 189.0 L 109.0 191.0 L 113.0 192.0 L 116.0 193.0 L 118.0 193.0 L 120.0 194.0 L 121.0 194.0 L 121.0 194.0 " stroke="black" fill="none" stroke-width="5.0" stroke-linecap="round" stroke-linejoin="round" />
<path d="M 87.0 214.0 L 87.0 214.0 L 85.0 214.0 L 84.0 214.0 L 83.0 214.0 L 83.0 214.0 L 83.0 214.0 L 83.0 214.0 L 84.0 214.0 L 86.0 214.0 L 90.0 213.0 L 94.0 211.0 L 99.0 208.0 L 105.0 206.0 L 111.0 202.0 L 119.0 199.0 L 128.0 195.0 L 135.0 191.0 " stroke="black" fill="none" stroke-width="5.0" stroke-linecap="round" stroke-linejoin="round" />
<path d="M 173.0 89.0 L 173.0 89.0 L 172.0 89.0 L 172.0 89.0 L 172.0 89.0 L 171.0 89.0 L 171.0 89.0 L 171.0 89.0 L 171.0 89.0 L 171.0 89.0 L 171.0 89.0 L 171.0 89.0 L 172.0 89.0 L 173.0 89.0 L 175.0 89.0 L 178.0 90.0 L 181.0 90.0 L 184.0 90.0 L 187.0 91.0 L 191.0 91.0 L 195.0 91.0 L 200.0 91.0 L 205.0 91.0 L 210.0 91.0 L 216.0 91.0 L 222.0 90.0 L 227.0 90.0 L 231.0 89.0 L 235.0 89.0 L 237.0 89.0 L 239.0 89.0 L 240.0 89.0 L 240.0 89.0 L 241.0 89.0 L 241.0 89.0 L 241.0 89.0 " stroke="black" fill="none" stroke-width="5.0" stroke-linecap="round" stroke-linejoin="round" />
<path d="M 168.0 75.0 L 168.0 75.0 L 168.0 75.0 L 168.0 75.0 L 168.0 75.0 L 168.0 75.0 L 168.0 76.0 L 168.0 76.0 L 168.0 77.0 L 168.0 77.0 L 168.0 78.0 L 168.0 80.0 L 168.0 81.0 L 169.0 83.0 L 169.0 86.0 L 170.0 88.0 L 170.0 91.0 L 170.0 94.0 L 170.0 96.0 L 170.0 100.0 L 170.0 102.0 L 170.0 104.0 L 170.0 107.0 L 169.0 108.0 L 169.0 110.0 L 168.0 111.0 L 168.0 113.0 L 167.0 113.0 L 167.0 114.0 L 167.0 115.0 L 167.0 115.0 L 167.0 115.0 L 167.0 116.0 L 167.0 116.0 L 167.0 116.0 L 167.0 116.0 L 167.0 116.0 L 167.0 116.0 L 167.0 116.0 L 167.0 116.0 L 167.0 116.0 L 167.0 117.0 L 167.0 117.0 L 168.0 117.0 L 168.0 117.0 L 168.0 117.0 L 168.0 117.0 L 168.0 117.0 L 168.0 117.0 L 168.0 118.0 L 169.0 118.0 L 169.0 118.0 L 169.0 118.0 L 169.0 118.0 L 169.0 118.0 L 169.0 118.0 L 170.0 118.0 L 170.0 118.0 L 170.0 118.0 L 171.0 118.0 L 171.0 118.0 L 172.0 118.0 L 172.0 118.0 L 173.0 118.0 L 174.0 118.0 L 176.0 118.0 L 177.0 118.0 L 178.0 118.0 L 180.0 118.0 L 182.0 118.0 L 184.0 118.0 L 186.0 118.0 L 188.0 118.0 L 190.0 118.0 L 192.0 118.0 L 193.0 118.0 L 195.0 118.0 L 196.0 118.0 L 198.0 118.0 L 199.0 118.0 L 200.0 118.0 L 201.0 118.0 L 202.0 118.0 L 204.0 118.0 L 205.0 118.0 L 206.0 118.0 L 207.0 118.0 L 209.0 118.0 L 210.0 118.0 L 211.0 118.0 L 213.0 118.0 L 214.0 117.0 L 215.0 117.0 L 217.0 117.0 L 218.0 117.0 L 219.0 117.0 L 221.0 117.0 L 222.0 117.0 L 223.0 117.0 L 225.0 117.0 L 226.0 117.0 L 227.0 117.0 L 229.0 117.0 L 230.0 117.0 L 230.0 117.0 L 231.0 117.0 L 232.0 117.0 L 232.0 117.0 L 233.0 117.0 L 233.0 117.0 L 233.0 117.0 L 233.0 118.0 L 233.0 118.0 L 233.0 118.0 L 233.0 119.0 L 233.0 120.0 L 233.0 120.0 L 233.0 121.0 L 233.0 122.0 L 233.0 123.0 L 233.0 123.0 L 233.0 125.0 L 233.0 125.0 L 233.0 127.0 L 233.0 128.0 L 233.0 129.0 L 233.0 130.0 L 232.0 132.0 L 232.0 133.0 L 232.0 135.0 L 232.0 136.0 L 232.0 138.0 L 232.0 139.0 L 232.0 141.0 L 231.0 142.0 L 231.0 143.0 L 231.0 144.0 L 230.0 145.0 L 230.0 145.0 L 230.0 146.0 L 229.0 146.0 L 229.0 147.0 L 228.0 147.0 L 227.0 147.0 L 226.0 147.0 L 224.0 147.0 L 223.0 147.0 L 221.0 147.0 L 219.0 147.0 L 216.0 147.0 L 214.0 147.0 L 211.0 147.0 L 209.0 147.0 L 207.0 148.0 L 204.0 148.0 L 202.0 148.0 L 200.0 148.0 L 197.0 148.0 L 196.0 148.0 L 194.0 148.0 L 193.0 148.0 L 191.0 148.0 L 190.0 148.0 L 189.0 148.0 L 188.0 148.0 L 186.0 148.0 L 185.0 148.0 L 184.0 148.0 L 182.0 148.0 L 180.0 148.0 L 179.0 148.0 L 177.0 148.0 L 175.0 148.0 L 174.0 148.0 L 172.0 148.0 L 170.0 148.0 L 169.0 148.0 L 167.0 148.0 L 166.0 148.0 L 165.0 148.0 L 164.0 148.0 L 164.0 148.0 L 163.0 148.0 L 163.0 148.0 L 163.0 148.0 L 163.0 148.0 L 163.0 148.0 L 163.0 148.0 L 163.0 148.0 L 163.0 149.0 L 163.0 149.0 L 163.0 149.0 L 163.0 150.0 L 163.0 150.0 L 163.0 151.0 L 163.0 152.0 L 164.0 153.0 L 164.0 153.0 L 164.0 154.0 L 164.0 155.0 L 165.0 156.0 L 165.0 157.0 L 165.0 158.0 L 165.0 159.0 L 165.0 160.0 L 166.0 161.0 L 166.0 162.0 L 166.0 163.0 L 166.0 165.0 L 166.0 166.0 L 166.0 167.0 L 166.0 169.0 L 166.0 170.0 L 166.0 171.0 L 166.0 173.0 L 166.0 174.0 L 167.0 175.0 L 167.0 177.0 L 167.0 178.0 L 167.0 180.0 L 167.0 181.0 L 167.0 183.0 L 167.0 185.0 L 167.0 187.0 L 167.0 189.0 L 167.0 191.0 L 166.0 192.0 L 166.0 194.0 L 166.0 195.0 L 166.0 197.0 L 166.0 198.0 L 165.0 200.0 L 165.0 201.0 L 165.0 202.0 L 165.0 203.0 L 165.0 204.0 L 165.0 206.0 L 165.0 207.0 L 165.0 208.0 L 165.0 209.0 L 165.0 211.0 L 165.0 212.0 L 165.0 213.0 L 165.0 214.0 L 165.0 216.0 L 165.0 217.0 L 165.0 218.0 L 165.0 219.0 L 165.0 220.0 L 165.0 221.0 L 165.0 223.0 L 165.0 224.0 L 165.0 225.0 L 165.0 226.0 L 165.0 227.0 L 165.0 229.0 L 165.0 230.0 L 165.0 231.0 L 165.0 232.0 L 165.0 233.0 L 165.0 234.0 L 165.0 235.0 L 165.0 236.0 L 165.0 236.0 L 165.0 237.0 L 165.0 238.0 L 166.0 239.0 L 166.0 239.0 L 166.0 240.0 L 166.0 240.0 L 166.0 241.0 L 166.0 241.0 L 167.0 242.0 L 167.0 242.0 L 167.0 243.0 L 167.0 243.0 L 167.0 243.0 L 168.0 244.0 L 168.0 244.0 L 168.0 245.0 L 168.0 245.0 L 168.0 245.0 L 169.0 246.0 L 169.0 246.0 L 169.0 246.0 L 169.0 246.0 L 169.0 247.0 L 169.0 247.0 L 170.0 247.0 L 170.0 247.0 L 170.0 247.0 L 170.0 247.0 L 170.0 248.0 L 170.0 248.0 L 171.0 248.0 L 171.0 248.0 L 171.0 248.0 L 171.0 248.0 L 172.0 248.0 L 172.0 248.0 L 172.0 249.0 L 173.0 249.0 L 173.0 249.0 L 173.0 249.0 L 174.0 249.0 L 174.0 249.0 L 174.0 250.0 L 175.0 250.0 L 175.0 250.0 L 176.0 250.0 L 177.0 250.0 L 177.0 250.0 L 178.0 250.0 L 178.0 250.0 L 179.0 251.0 L 181.0 251.0 L 182.0 251.0 L 183.0 251.0 L 185.0 251.0 L 186.0 251.0 L 188.0 251.0 L 189.0 251.0 L 191.0 251.0 L 192.0 251.0 L 194.0 251.0 L 195.0 251.0 L 196.0 251.0 L 198.0 251.0 L 200.0 251.0 L 201.0 250.0 L 203.0 250.0 L 205.0 250.0 L 206.0 250.0 L 207.0 249.0 L 209.0 249.0 L 211.0 249.0 L 212.0 249.0 L 214.0 248.0 L 216.0 248.0 L 217.0 248.0 L 219.0 248.0 L 221.0 247.0 L 223.0 247.0 L 225.0 247.0 L 227.0 247.0 L 229.0 247.0 L 231.0 246.0 L 232.0 246.0 L 234.0 246.0 L 235.0 246.0 L 236.0 245.0 L 236.0 245.0 L 237.0 245.0 L 237.0 245.0 L 238.0 245.0 L 238.0 245.0 L 239.0 245.0 L 239.0 245.0 L 239.0 244.0 L 239.0 244.0 L 239.0 244.0 L 239.0 244.0 L 239.0 243.0 L 239.0 243.0 L 239.0 243.0 L 239.0 243.0 L 239.0 242.0 L 239.0 241.0 L 238.0 240.0 L 238.0 238.0 L 237.0 235.0 " stroke="black" fill="none" stroke-width="5.0" stroke-linecap="round" stroke-linejoin="round" />
<path d="M 174.0 169.0 L 173.0 169.0 L 172.0 169.0 L 172.0 168.0 L 171.0 168.0 L 170.0 168.0 L 170.0 168.0 L 170.0 168.0 L 170.0 168.0 L 170.0 168.0 L 170.0 168.0 L 171.0 168.0 L 172.0 168.0 L 174.0 168.0 L 176.0 168.0 L 178.0 169.0 L 180.0 169.0 L 183.0 170.0 L 186.0 170.0 L 189.0 170.0 L 193.0 170.0 L 197.0 170.0 L 201.0 170.0 L 205.0 170.0 L 211.0 170.0 L 215.0 170.0 L 220.0 170.0 L 224.0 170.0 L 227.0 170.0 L 229.0 170.0 L 231.0 170.0 L 232.0 170.0 L 233.0 170.0 L 233.0 170.0 L 233.0 170.0 " stroke="black" fill="none" stroke-width="5.0" stroke-linecap="round" stroke-linejoin="round" />
<path d="M 176.0 194.0 L 176.0 194.0 L 175.0 194.0 L 175.0 194.0 L 174.0 193.0 L 174.0 193.0 L 173.0 193.0 L 173.0 193.0 L 173.0 193.0 L 173.0 193.0 L 173.0 193.0 L 174.0 193.0 L 175.0 193.0 L 177.0 193.0 L 180.0 193.0 L 183.0 193.0 L 186.0 193.0 L 190.0 193.0 L 194.0 193.0 L 198.0 193.0 L 202.0 193.0 L 207.0 193.0 L 211.0 193.0 L 216.0 193.0 L 220.0 193.0 L 224.0 193.0 L 227.0 193.0 L 228.0 193.0 " stroke="black" fill="none" stroke-width="5.0" stroke-linecap="round" stroke-linejoin="round" />
<path d="M 169.0 222.0 L 169.0 222.0 L 169.0 222.0 L 168.0 222.0 L 168.0 222.0 L 168.0 221.0 L 169.0 221.0 L 171.0 220.0 L 173.0 220.0 L 176.0 219.0 L 179.0 219.0 L 182.0 219.0 L 184.0 219.0 L 187.0 219.0 L 190.0 219.0 L 192.0 219.0 L 195.0 219.0 L 199.0 219.0 L 203.0 219.0 L 207.0 219.0 L 212.0 218.0 L 216.0 218.0 L 220.0 217.0 L 223.0 217.0 L 225.0 216.0 L 227.0 216.0 L 227.0 216.0 L 227.0 216.0 L 227.0 216.0 L 227.0 216.0 " stroke="black" fill="none" stroke-width="5.0" stroke-linecap="round" stroke-linejoin="round" />
</svg>