<svg xmlns="http://www.w3.org/2000/svg" width="300" height="300" viewBox="0 0 300 300">
<path d="M 74.375 75.625 L 74.375 75.625 L 74.375 75.625 L 74.375 75.625 L 74.375 75.625 L 74.375 76.25 L 74.375 76.25 L 74.375 76.25 L 74.375 76.25 L 75.0 76.875 L 75.625 77.5 L 76.875 78.125 L 79.375 80.0 L 82.5 81.875 L 86.25 85.0 L 90.0 88.125 L 93.75 91.25 L 95.625 93.75 L 97.5 95.625 L 98.75 97.5 L 99.375 98.75 L 100.0 99.375 L 100.625 100.0 L 100.625 100.625 L 101.25 100.625 L 101.25 101.25 L 101.25 101.25 L 101.25 101.25 L 100.625 101.25 L 100.0 101.25 " stroke="black" fill="none" stroke-width="5.0" stroke-linecap="round" stroke-linejoin="round" />
<path d="M 68.125 131.875 L 68.125 131.25 L 68.125 131.25 L 68.75 130.625 L 68.75 130.625 L 68.75 130.625 L 68.75 130.625 L 68.75 131.25 L 69.375 131.875 L 70.625 132.5 L 71.875 134.375 L 73.75 135.625 L 76.875 138.125 L 81.25 141.25 L 85.625 145.0 L 90.0 148.75 L 93.75 151.25 L 96.25 154.375 L 98.125 155.625 L 98.75 156.875 L 98.75 157.5 L 98.75 157.5 L 98.75 157.5 L 98.75 157.5 L 98.75 157.5 L 98.125 156.875 L 97.5 156.25 " stroke="black" fill="none" stroke-width="5.0" stroke-linecap="round" stroke-linejoin="round" />
<path d="M 69.375 243.75 L 69.375 243.75 L 69.375 244.375 L 69.375 244.375 L 69.375 244.375 L 69.375 245.0 L 69.375 245.0 L 69.375 245.0 L 69.375 245.625 L 69.375 245.625 L 69.375 245.0 L 70.0 244.375 L 70.625 242.5 L 71.875 240.625 L 73.75 237.5 L 76.25 233.75 L 79.375 228.75 L 83.125 221.875 L 86.875 215.0 L 90.625 208.75 L 93.125 203.125 L 95.0 198.75 L 96.25 195.0 L 96.875 191.875 L 97.5 189.375 L 98.125 188.125 L 98.75 187.5 L 98.75 186.875 L 99.375 186.25 L 99.375 186.25 L 99.375 185.625 L 99.375 185.625 L 99.375 185.625 L 98.75 185.625 " stroke="black" fill="none" stroke-width="5.0" stroke-linecap="round" stroke-linejoin="round" />
<path d="M 121.875 86.875 L 121.875 86.25 L 121.25 85.0 L 120.625 84.375 L 120.0 83.75 L 119.375 83.125 L 119.375 83.125 L 118.75 83.125 L 118.125 83.125 L 118.125 83.125 L 118.125 83.125 L 117.5 83.125 L 117.5 83.125 L 117.5 83.125 L 116.875 83.75 L 116.875 83.75 L 116.875 83.75 L 116.25 84.375 L 116.25 84.375 L 116.25 84.375 L 116.25 85.0 L 116.875 85.0 L 118.125 85.0 L 119.375 85.0 L 120.625 85.0 L 122.5 85.0 L 125.0 85.0 L 127.5 85.0 L 131.25 85.625 L 136.25 85.625 L 141.875 85.625 L 146.875 85.625 L 151.875 85.625 L 155.625 85.625 L 160.0 85.625 L 165.0 86.25 L 170.0 86.25 L 174.375 86.875 L 178.125 86.875 L 181.25 86.875 L 183.75 86.875 L 188.125 86.875 L 191.875 86.875 L 196.875 86.875 L 201.25 87.5 L 204.375 88.125 L 206.875 88.75 L 209.375 89.375 L 212.5 90.625 L 215.625 90.625 L 219.375 91.25 L 222.5 91.875 L 225.625 91.875 L 228.75 91.875 L 230.625 91.875 L 231.875 91.875 L 233.125 92.5 L 233.75 92.5 L 234.375 92.5 L 235.0 92.5 L 235.625 92.5 L 235.625 92.5 L 236.25 92.5 L 236.25 92.5 L 236.25 92.5 L 236.25 92.5 L 235.625 92.5 L 235.0 92.5 L 234.375 92.5 " stroke="black" fill="none" stroke-width="5.0" stroke-linecap="round" stroke-linejoin="round" />
<path d="M 146.25 73.125 L 146.25 72.5 L 146.25 71.875 L 146.25 71.25 L 146.25 71.25 L 146.25 70.625 L 146.25 70.625 L 145.625 71.25 L 145.625 71.875 L 145.625 73.125 L 145.0 75.0 L 144.375 76.875 L 143.75 78.75 L 143.125 81.25 L 141.875 84.375 L 140.625 86.875 L 138.75 90.625 L 137.5 94.375 L 135.625 97.5 L 134.375 100.625 L 133.125 103.125 L 132.5 105.0 L 131.875 106.25 L 131.875 106.875 L 131.875 107.5 L 132.5 107.5 L 133.75 107.5 L 135.0 108.125 L 136.25 108.125 L 138.125 108.125 L 140.0 108.125 L 141.875 108.75 L 143.75 108.75 L 145.625 108.75 L 146.875 109.375 L 148.75 109.375 L 150.625 109.375 L 152.5 110.0 L 155.0 110.0 L 158.125 110.0 L 161.25 110.0 L 165.625 110.0 L 169.375 110.625 L 172.5 110.625 L 176.25 110.625 L 178.75 111.25 L 181.25 111.25 L 183.75 111.25 L 186.875 111.875 L 190.625 111.875 L 195.0 112.5 L 199.375 112.5 L 202.5 112.5 L 205.625 112.5 L 207.5 112.5 L 208.75 111.875 L 210.625 111.25 L 211.25 111.25 L 211.875 111.25 L 212.5 110.625 L 212.5 110.625 L 212.5 110.625 L 212.5 110.625 L 212.5 110.625 L 212.5 110.625 L 212.5 110.625 L 211.875 110.0 " stroke="black" fill="none" stroke-width="5.0" stroke-linecap="round" stroke-linejoin="round" />
<path d="M 207.5 74.375 L 207.5 74.375 L 208.125 74.375 L 208.125 74.375 L 208.125 74.375 L 208.125 74.375 L 208.125 74.375 L 208.125 74.375 L 208.125 74.375 L 208.125 74.375 L 208.75 75.0 L 208.75 76.25 L 208.75 77.5 L 208.75 79.375 L 208.75 81.875 L 208.125 85.625 L 207.5 90.0 L 207.5 95.0 L 206.875 99.375 L 206.25 103.125 L 206.25 106.25 L 206.25 108.125 L 206.25 110.0 L 206.25 110.0 L 206.25 110.625 L 206.25 110.625 L 206.25 110.0 L 206.25 109.375 L 206.25 108.125 L 206.25 107.5 " stroke="black" fill="none" stroke-width="5.0" stroke-linecap="round" stroke-linejoin="round" />
<path d="M 131.25 132.5 L 131.25 132.5 L 131.25 132.5 L 131.25 131.875 L 131.25 131.875 L 131.25 131.875 L 131.25 131.875 L 131.25 131.875 L 130.625 132.5 L 130.625 133.125 L 130.0 134.375 L 130.0 135.625 L 129.375 138.125 L 128.75 140.625 L 128.125 144.375 L 127.5 148.125 L 126.875 151.25 L 126.25 155.0 L 126.25 157.5 L 126.25 160.0 L 126.25 161.25 L 126.25 162.5 L 126.25 162.5 L 126.875 163.125 L 126.875 163.125 L 127.5 162.5 L 128.125 161.25 L 128.125 160.0 L 128.125 159.375 " stroke="black" fill="none" stroke-width="5.0" stroke-linecap="round" stroke-linejoin="round" />
<path d="M 128.75 135.625 L 129.375 135.625 L 129.375 135.625 L 130.0 135.625 L 130.625 135.625 L 130.625 135.625 L 131.25 135.0 L 131.875 135.0 L 133.125 135.0 L 134.375 135.0 L 135.625 134.375 L 138.125 134.375 L 140.0 133.75 L 143.125 133.125 L 145.625 133.125 L 148.75 132.5 L 151.25 131.875 L 153.75 131.25 L 156.25 130.625 L 159.375 130.0 L 162.5 130.0 L 165.625 130.0 L 168.75 130.0 L 171.25 130.0 L 173.75 130.0 L 175.625 130.0 L 176.875 130.0 L 178.125 130.0 L 179.375 130.0 L 180.625 130.0 L 182.5 130.0 L 184.375 130.0 L 186.25 130.0 L 188.125 130.0 L 190.625 130.0 L 192.5 130.0 L 194.375 130.0 L 196.875 130.0 L 198.75 130.0 L 200.625 130.0 L 202.5 130.0 L 203.75 130.0 L 205.0 130.0 L 206.25 130.0 L 206.875 130.0 L 208.125 130.0 L 208.75 130.0 L 210.0 130.0 L 211.25 130.0 L 212.5 130.0 L 214.375 130.0 L 216.25 130.0 L 218.75 130.0 L 221.25 130.0 L 223.125 130.0 L 225.0 130.0 L 226.875 130.0 L 228.125 130.0 L 228.75 130.0 L 229.375 130.625 L 230.0 130.625 L 230.625 130.625 L 230.625 130.625 L 230.625 131.25 L 231.25 131.25 L 231.25 131.25 L 231.25 131.875 L 231.875 131.875 L 231.875 132.5 L 231.875 133.125 L 231.875 133.75 L 231.875 135.0 L 231.875 135.625 L 231.875 137.5 L 231.875 139.375 L 231.25 141.875 L 230.625 144.375 L 230.625 146.875 L 230.0 149.375 L 229.375 151.25 L 228.75 153.125 L 228.75 155.0 L 228.125 156.875 L 227.5 158.125 L 226.875 158.75 L 225.625 160.0 L 225.0 160.625 L 223.75 160.625 " stroke="black" fill="none" stroke-width="5.0" stroke-linecap="round" stroke-linejoin="round" />
<path d="M 126.875 156.875 L 126.875 156.875 L 126.875 156.875 L 127.5 156.875 L 127.5 156.875 L 127.5 156.875 L 128.125 156.875 L 128.75 156.875 L 129.375 156.875 L 130.625 157.5 L 133.125 157.5 L 135.625 158.125 L 139.375 158.125 L 143.125 158.75 L 146.875 158.75 L 150.625 159.375 L 154.375 159.375 L 158.125 159.375 L 162.5 159.375 L 167.5 159.375 L 171.875 159.375 L 175.625 159.375 L 179.375 159.375 L 181.875 160.0 L 184.375 160.0 L 187.5 160.625 L 190.0 160.625 L 193.125 161.25 L 196.25 161.25 L 199.375 161.875 L 201.25 161.875 L 203.125 161.875 L 205.0 161.875 L 206.25 162.5 L 208.125 162.5 L 209.375 162.5 L 210.625 162.5 L 211.25 162.5 L 213.75 162.5 L 215.625 162.5 L 216.875 162.5 L 218.75 161.875 L 220.0 161.875 L 221.25 161.875 L 222.5 161.875 L 223.75 161.875 L 225.0 161.875 L 225.625 162.5 L 226.25 162.5 L 227.5 162.5 L 228.125 162.5 L 228.75 162.5 L 229.375 162.5 L 229.375 162.5 L 230.0 162.5 L 230.0 162.5 L 230.0 162.5 L 230.625 162.5 L 230.625 162.5 L 230.625 162.5 L 230.625 162.5 " stroke="black" fill="none" stroke-width="5.0" stroke-linecap="round" stroke-linejoin="round" />
<path d="M 178.75 112.5 L 178.75 112.5 L 178.75 111.875 L 179.375 111.875 L 179.375 111.25 L 179.375 111.25 L 179.375 110.625 L 179.375 110.625 L 179.375 110.625 L 179.375 110.625 L 179.375 110.625 L 179.375 110.625 L 179.375 111.875 L 179.375 113.125 L 179.375 114.375 L 179.375 115.625 L 179.375 116.875 L 179.375 118.75 L 179.375 120.625 L 179.375 122.5 L 179.375 124.375 L 179.375 126.25 L 179.375 128.125 L 179.375 130.0 L 179.375 131.25 L 179.375 133.125 L 179.375 134.375 L 179.375 135.0 L 179.375 136.25 L 179.375 137.5 L 179.375 138.75 L 179.375 140.0 L 179.375 140.625 L 179.375 141.875 L 179.375 143.125 L 179.375 143.75 L 179.375 144.375 L 179.375 145.625 L 179.375 146.25 L 179.375 147.5 L 179.375 148.125 L 179.375 149.375 L 179.375 150.0 L 179.375 150.625 L 179.375 151.25 L 179.375 151.875 L 178.75 152.5 L 178.75 152.5 L 178.75 153.125 L 178.75 153.75 L 178.75 153.75 L 178.75 154.375 L 178.75 155.0 L 178.75 155.0 L 178.75 155.625 L 178.75 155.625 L 178.75 155.625 L 178.75 156.25 L 178.75 156.25 L 178.75 156.25 L 178.75 156.875 L 178.75 156.875 L 178.75 156.875 L 178.75 157.5 L 178.75 157.5 L 178.75 157.5 L 178.75 158.125 L 178.75 158.125 L 178.75 158.125 L 178.75 158.125 L 178.75 158.75 L 178.75 158.75 L 178.75 158.75 L 178.75 158.75 L 178.75 158.75 L 178.75 158.75 L 178.75 158.75 L 178.75 159.375 L 178.75 159.375 L 178.75 159.375 L 178.75 159.375 L 178.75 160.0 L 178.75 160.0 L 178.75 160.0 L 178.75 160.625 L 178.75 160.625 L 178.75 161.25 L 178.125 161.25 L 178.125 161.25 L 178.125 161.875 L 178.125 162.5 L 178.125 162.5 L 178.125 163.125 L 178.125 163.75 L 178.125 164.375 L 178.125 165.0 L 177.5 165.625 L 177.5 165.625 L 177.5 166.25 L 177.5 166.875 L 177.5 167.5 L 177.5 168.75 L 177.5 169.375 L 177.5 170.0 L 177.5 170.625 L 177.5 171.25 L 177.5 171.875 L 176.875 172.5 L 176.875 173.125 L 176.875 174.375 L 176.875 174.375 L 176.875 175.625 L 176.875 176.25 L 176.875 176.875 L 176.875 177.5 L 176.875 178.125 L 176.875 178.75 L 176.25 178.75 L 176.25 179.375 L 176.25 180.0 L 176.25 180.625 L 176.25 181.25 L 176.25 181.875 L 176.25 182.5 L 176.25 183.125 L 175.625 183.75 L 175.625 184.375 L 175.625 185.0 L 175.625 185.625 L 175.625 186.25 L 175.625 186.875 L 175.625 186.875 L 175.625 187.5 L 175.625 188.125 L 175.625 188.75 L 175.625 189.375 L 175.0 190.0 L 175.0 190.625 L 175.0 191.25 L 175.0 191.875 L 175.0 192.5 L 174.375 193.125 L 174.375 193.75 L 174.375 194.375 L 174.375 194.375 L 174.375 195.625 L 174.375 196.25 L 173.75 196.875 L 173.75 197.5 L 173.75 198.125 L 173.75 198.75 L 173.75 199.375 L 173.125 200.0 L 173.125 201.25 L 173.125 201.875 L 173.125 202.5 L 172.5 203.125 L 172.5 204.375 L 172.5 205.0 L 171.875 205.625 L 171.875 206.25 L 171.25 207.5 L 171.25 208.125 L 171.25 208.75 L 170.625 210.0 L 170.0 210.625 L 170.0 211.25 L 169.375 211.875 L 168.75 212.5 L 168.75 213.75 L 168.125 214.375 L 167.5 215.0 L 166.875 215.625 L 166.25 216.875 L 165.625 217.5 L 165.0 218.125 L 164.375 218.75 L 163.75 219.375 L 163.125 220.625 L 162.5 221.25 L 161.875 221.875 L 161.25 222.5 L 161.25 223.75 L 160.625 224.375 L 160.0 225.625 L 159.375 226.25 L 158.75 227.5 L 158.125 228.125 L 157.5 229.375 L 156.875 230.0 L 155.625 230.625 L 155.0 231.875 L 154.375 232.5 L 153.75 233.75 L 153.125 234.375 L 152.5 235.0 L 151.25 236.25 L 150.625 236.875 L 150.0 237.5 L 150.0 238.125 L 149.375 238.75 L 148.75 239.375 L 148.125 240.0 L 147.5 240.625 L 146.875 241.25 L 146.25 241.875 L 145.625 242.5 L 144.375 242.5 L 143.75 243.125 L 143.125 243.75 L 141.875 244.375 L 140.625 245.0 L 139.375 245.625 L 138.75 246.25 L 136.875 247.5 L 135.625 248.125 L 134.375 249.375 L 133.125 250.625 L 131.25 251.25 L 130.0 252.5 L 128.75 253.125 L 127.5 253.75 L 126.25 253.75 L 125.625 253.75 L 125.0 253.75 L 124.375 253.75 L 123.75 253.75 L 123.125 253.75 " stroke="black" fill="none" stroke-width="5.0" stroke-linecap="round" stroke-linejoin="round" />
<path d="M 125.625 183.75 L 125.625 183.75 L 125.625 183.75 L 125.625 183.75 L 125.625 183.75 L 126.25 184.375 L 126.25 184.375 L 126.875 184.375 L 127.5 184.375 L 128.75 184.375 L 130.625 184.375 L 133.75 184.375 L 136.875 184.375 L 140.0 184.375 L 143.75 184.375 L 146.875 183.75 L 149.375 183.75 L 152.5 183.75 L 155.0 183.75 L 158.75 183.75 L 162.5 183.75 L 166.25 183.75 L 169.375 184.375 L 172.5 184.375 L 175.0 185.0 L 176.875 185.0 L 178.125 185.0 L 179.375 185.0 L 180.0 185.0 L 181.25 185.0 L 182.5 185.0 L 183.75 184.375 L 185.625 184.375 L 186.875 184.375 L 188.125 184.375 L 190.0 184.375 L 191.875 184.375 L 193.75 184.375 L 195.625 184.375 L 197.5 184.375 L 199.375 184.375 L 200.625 184.375 L 201.875 184.375 L 203.125 183.75 L 205.0 183.75 L 205.625 183.75 L 207.5 183.75 L 208.75 183.75 L 210.625 183.75 L 211.875 184.375 L 213.75 184.375 L 215.625 184.375 L 216.875 185.0 L 218.125 185.625 L 219.375 185.625 L 220.0 186.25 L 220.625 186.25 L 220.625 186.25 L 220.625 186.25 L 220.625 186.25 L 220.625 186.25 L 220.0 186.25 L 218.75 185.625 L 218.125 185.625 " stroke="black" fill="none" stroke-width="5.0" stroke-linecap="round" stroke-linejoin="round" />
<path d="M 117.5 208.125 L 117.5 208.125 L 117.5 208.75 L 117.5 208.75 L 117.5 209.375 L 117.5 210.0 L 118.125 210.0 L 118.125 210.625 L 118.75 210.625 L 119.375 210.625 L 120.0 210.625 L 121.25 210.625 L 123.125 210.625 L 125.0 210.0 L 126.875 210.0 L 130.0 209.375 L 133.75 208.75 L 138.125 208.75 L 142.5 208.125 L 146.875 208.125 L 150.625 208.125 L 153.75 208.125 L 156.25 207.5 L 159.375 207.5 L 162.5 206.875 L 165.625 206.875 L 168.75 206.25 L 171.875 206.25 L 174.375 206.25 L 176.875 206.25 L 178.75 206.25 L 180.625 206.25 L 182.5 206.25 L 184.375 206.25 L 186.875 206.875 L 188.75 206.875 L 191.25 206.875 L 193.125 206.875 L 195.625 206.875 L 198.125 206.875 L 200.0 206.875 L 201.875 206.875 L 203.125 206.875 L 204.375 206.875 L 205.0 206.875 L 205.625 206.875 L 206.875 206.25 L 207.5 206.25 L 208.75 205.625 L 210.0 205.625 L 211.875 205.625 L 213.75 205.625 L 215.0 205.625 L 216.25 205.625 L 218.125 206.25 L 219.375 206.25 L 220.0 206.25 L 221.875 206.25 L 222.5 206.25 L 223.75 206.25 L 225.0 206.25 L 225.625 206.25 L 226.25 206.25 L 227.5 206.25 L 228.125 206.25 L 228.125 206.25 L 228.75 205.625 L 229.375 205.625 L 229.375 205.625 L 230.0 205.625 L 230.0 205.625 L 230.625 205.625 L 230.625 206.25 L 230.625 206.25 L 230.625 206.25 L 231.25 206.25 L 231.25 206.25 L 231.25 206.25 L 231.25 206.25 L 231.25 206.25 L 231.25 206.25 " stroke="black" fill="none" stroke-width="5.0" stroke-linecap="round" stroke-linejoin="round" />
<path d="M 185.625 223.75 L 186.25 223.75 L 186.875 223.75 L 188.125 223.75 L 188.75 223.75 L 189.375 224.375 L 190.625 224.375 L 191.875 224.375 L 193.125 225.0 L 195.625 225.0 L 197.5 225.625 L 199.375 226.25 L 201.875 226.875 L 204.375 228.125 L 206.875 230.0 L 210.0 231.875 L 213.125 233.75 L 216.25 236.25 L 220.0 238.75 L 223.75 240.625 L 226.875 241.875 L 229.375 243.75 L 231.25 245.0 L 232.5 246.875 L 233.75 248.75 L 235.0 250.625 L 235.625 251.25 L 236.875 252.5 L 238.125 252.5 L 239.375 253.125 L 241.25 253.125 L 241.875 253.125 L 243.125 253.125 L 243.75 253.75 L 244.375 253.75 L 244.375 254.375 L 245.0 254.375 L 245.0 254.375 L 245.0 254.375 L 245.0 254.375 L 244.375 254.375 L 242.5 254.375 " stroke="black" fill="none" stroke-width="5.0" stroke-linecap="round" stroke-linejoin="round" />
</svg>