<svg xmlns="http://www.w3.org/2000/svg" width="300" height="300" viewBox="0 0 300 300">
<path d="M 66.0 116.0 L 65.0 116.0 L 63.0 116.0 L 62.0 116.0 L 61.0 116.0 L 60.0 116.0 L 60.0 116.0 L 60.0 116.0 L 60.0 116.0 L 62.0 116.0 L 64.0 116.0 L 67.0 115.0 L 70.0 115.0 L 75.0 115.0 L 82.0 114.0 L 88.0 114.0 L 96.0 114.0 L 104.0 114.0 L 110.0 113.0 " stroke="black" fill="none" stroke-width="5.0" stroke-linecap="round" stroke-linejoin="round" />
<path d="M 88.0 78.0 L 87.0 78.0 L 87.0 78.0 L 86.0 78.0 L 86.0 78.0 L 86.0 78.0 L 86.0 79.0 L 86.0 81.0 L 87.0 83.0 L 87.0 86.0 L 88.0 90.0 L 89.0 95.0 L 89.0 100.0 L 90.0 105.0 L 90.0 111.0 L 90.0 116.0 L 90.0 121.0 L 90.0 126.0 L 90.0 131.0 L 90.0 136.0 L 89.0 142.0 L 89.0 148.0 L 89.0 153.0 L 89.0 158.0 L 89.0 162.0 L 89.0 165.0 L 90.0 169.0 L 90.0 172.0 L 90.0 175.0 L 90.0 178.0 L 90.0 182.0 L 90.0 186.0 L 90.0 191.0 L 90.0 194.0 L 90.0 198.0 L 90.0 202.0 L 89.0 204.0 L 89.0 207.0 L 89.0 210.0 L 89.0 213.0 L 89.0 215.0 L 89.0 219.0 L 89.0 222.0 L 89.0 230.0 L 89.0 233.0 L 89.0 236.0 L 89.0 239.0 L 89.0 241.0 L 89.0 243.0 L 89.0 246.0 L 89.0 247.0 L 89.0 249.0 L 88.0 250.0 L 88.0 251.0 L 87.0 251.0 L 87.0 252.0 L 86.0 252.0 L 85.0 252.0 L 83.0 252.0 L 82.0 252.0 L 81.0 252.0 L 79.0 251.0 L 77.0 250.0 L 76.0 250.0 L 74.0 248.0 L 72.0 247.0 L 71.0 246.0 L 69.0 244.0 L 68.0 241.0 L 67.0 237.0 " stroke="black" fill="none" stroke-width="5.0" stroke-linecap="round" stroke-linejoin="round" />
<path d="M 62.0 186.0 L 61.0 186.0 L 59.0 186.0 L 59.0 186.0 L 58.0 186.0 L 58.0 186.0 L 59.0 185.0 L 62.0 183.0 L 66.0 179.0 L 74.0 175.0 L 86.0 168.0 L 99.0 161.0 L 105.0 157.0 " stroke="black" fill="none" stroke-width="5.0" stroke-linecap="round" stroke-linejoin="round" />
<path d="M 178.0 78.0 L 178.0 78.0 L 178.0 78.0 L 178.0 77.0 L 178.0 77.0 L 178.0 77.0 L 178.0 77.0 L 178.0 78.0 L 180.0 80.0 L 181.0 81.0 L 183.0 82.0 L 186.0 84.0 L 188.0 85.0 " stroke="black" fill="none" stroke-width="5.0" stroke-linecap="round" stroke-linejoin="round" />
<path d="M 154.0 98.0 L 153.0 98.0 L 151.0 98.0 L 149.0 98.0 L 148.0 98.0 L 147.0 98.0 L 147.0 98.0 L 147.0 98.0 L 147.0 98.0 L 149.0 98.0 L 151.0 98.0 L 154.0 98.0 L 159.0 98.0 L 165.0 98.0 L 172.0 98.0 L 181.0 98.0 L 189.0 98.0 L 196.0 98.0 L 204.0 98.0 L 210.0 97.0 L 215.0 97.0 L 219.0 96.0 L 221.0 96.0 L 222.0 97.0 " stroke="black" fill="none" stroke-width="5.0" stroke-linecap="round" stroke-linejoin="round" />
<path d="M 163.0 107.0 L 161.0 107.0 L 159.0 107.0 L 158.0 108.0 L 158.0 109.0 L 158.0 110.0 L 159.0 111.0 L 161.0 113.0 L 163.0 115.0 L 166.0 117.0 L 169.0 120.0 L 172.0 122.0 L 175.0 125.0 L 179.0 127.0 L 182.0 129.0 " stroke="black" fill="none" stroke-width="5.0" stroke-linecap="round" stroke-linejoin="round" />
<path d="M 215.0 111.0 L 215.0 111.0 L 215.0 111.0 L 215.0 111.0 L 214.0 111.0 L 214.0 112.0 L 212.0 112.0 L 211.0 114.0 L 208.0 116.0 L 205.0 118.0 L 202.0 121.0 L 198.0 124.0 L 195.0 127.0 L 192.0 130.0 L 189.0 133.0 L 186.0 135.0 L 183.0 137.0 " stroke="black" fill="none" stroke-width="5.0" stroke-linecap="round" stroke-linejoin="round" />
<path d="M 138.0 145.0 L 137.0 144.0 L 136.0 144.0 L 134.0 143.0 L 133.0 143.0 L 133.0 143.0 L 132.0 143.0 L 132.0 143.0 L 132.0 143.0 L 134.0 143.0 L 136.0 143.0 L 139.0 143.0 L 144.0 143.0 L 148.0 143.0 L 154.0 143.0 L 162.0 142.0 L 173.0 141.0 L 184.0 141.0 L 194.0 140.0 L 202.0 140.0 L 208.0 140.0 L 215.0 140.0 L 221.0 141.0 L 225.0 143.0 L 229.0 146.0 L 231.0 148.0 L 232.0 150.0 L 233.0 150.0 " stroke="black" fill="none" stroke-width="5.0" stroke-linecap="round" stroke-linejoin="round" />
<path d="M 144.0 187.0 L 143.0 187.0 L 141.0 187.0 L 138.0 186.0 L 136.0 186.0 L 134.0 186.0 L 133.0 186.0 L 133.0 186.0 L 133.0 186.0 L 133.0 185.0 L 133.0 185.0 L 135.0 185.0 L 137.0 184.0 L 141.0 184.0 L 144.0 184.0 L 149.0 184.0 L 155.0 184.0 L 163.0 184.0 L 173.0 184.0 L 184.0 184.0 L 193.0 183.0 L 202.0 182.0 L 210.0 181.0 L 217.0 180.0 L 224.0 179.0 L 228.0 179.0 L 230.0 179.0 L 231.0 179.0 L 231.0 179.0 L 231.0 179.0 " stroke="black" fill="none" stroke-width="5.0" stroke-linecap="round" stroke-linejoin="round" />
<path d="M 178.0 154.0 L 178.0 154.0 L 178.0 154.0 L 177.0 154.0 L 176.0 154.0 L 176.0 154.0 L 175.0 155.0 L 174.0 157.0 L 173.0 160.0 L 171.0 164.0 L 169.0 168.0 L 167.0 173.0 L 164.0 178.0 L 161.0 184.0 L 158.0 188.0 L 156.0 192.0 L 153.0 195.0 L 152.0 197.0 L 151.0 198.0 L 151.0 199.0 L 151.0 199.0 L 151.0 200.0 L 151.0 200.0 L 152.0 200.0 L 153.0 201.0 L 154.0 202.0 L 156.0 203.0 L 158.0 204.0 L 161.0 205.0 L 164.0 207.0 L 169.0 209.0 L 174.0 211.0 L 180.0 213.0 L 187.0 216.0 L 193.0 219.0 L 198.0 222.0 L 203.0 225.0 L 208.0 228.0 L 212.0 229.0 L 217.0 231.0 L 221.0 231.0 L 223.0 231.0 L 225.0 231.0 " stroke="black" fill="none" stroke-width="5.0" stroke-linecap="round" stroke-linejoin="round" />
<path d="M 218.0 165.0 L 218.0 165.0 L 218.0 165.0 L 218.0 165.0 L 218.0 165.0 L 218.0 166.0 L 218.0 166.0 L 218.0 168.0 L 218.0 170.0 L 216.0 172.0 L 214.0 176.0 L 211.0 182.0 L 206.0 188.0 L 200.0 194.0 L 193.0 202.0 L 186.0 208.0 L 177.0 215.0 L 166.0 223.0 L 158.0 229.0 L 151.0 234.0 L 146.0 238.0 L 142.0 240.0 L 138.0 240.0 L 133.0 240.0 L 129.0 239.0 L 127.0 238.0 " stroke="black" fill="none" stroke-width="5.0" stroke-linecap="round" stroke-linejoin="round" />
</svg>