<svg xmlns="http://www.w3.org/2000/svg" width="300" height="300" viewBox="0 0 300 300">
<path d="M 151.0 71.0 L 151.0 71.0 L 151.0 70.0 L 151.0 69.0 L 151.0 69.0 L 151.0 68.0 L 151.0 68.0 L 151.0 67.0 L 151.0 67.0 L 151.0 67.0 L 151.0 67.0 L 150.0 67.0 L 150.0 69.0 L 149.0 70.0 L 148.0 73.0 L 146.0 76.0 L 144.0 80.0 L 142.0 84.0 L 139.0 89.0 L 137.0 93.0 L 136.0 95.0 " stroke="black" fill="none" stroke-width="5.0" stroke-linecap="round" stroke-linejoin="round" />
<path d="M 84.0 109.0 L 84.0 109.0 L 84.0 109.0 L 84.0 109.0 L 84.0 109.0 L 84.0 109.0 L 84.0 109.0 L 84.0 109.0 L 84.0 109.0 L 84.0 109.0 L 84.0 109.0 L 84.0 109.0 L 84.0 109.0 L 84.0 109.0 L 84.0 110.0 L 84.0 110.0 L 84.0 111.0 L 84.0 113.0 L 84.0 114.0 L 84.0 116.0 L 84.0 117.0 L 84.0 119.0 L 84.0 121.0 L 84.0 123.0 L 84.0 125.0 L 84.0 127.0 L 85.0 128.0 L 85.0 130.0 L 85.0 132.0 L 85.0 134.0 L 85.0 136.0 L 85.0 138.0 L 85.0 139.0 L 85.0 141.0 L 85.0 142.0 L 85.0 144.0 L 86.0 145.0 L 86.0 147.0 L 86.0 148.0 L 86.0 150.0 L 86.0 151.0 L 86.0 153.0 L 86.0 154.0 L 86.0 155.0 L 86.0 157.0 L 86.0 158.0 L 86.0 160.0 L 86.0 161.0 L 86.0 162.0 L 86.0 164.0 L 86.0 166.0 L 85.0 167.0 L 85.0 169.0 L 85.0 170.0 L 85.0 172.0 L 85.0 173.0 L 85.0 175.0 L 85.0 176.0 L 85.0 178.0 L 85.0 179.0 L 85.0 181.0 L 85.0 182.0 L 85.0 184.0 L 85.0 186.0 L 85.0 187.0 L 85.0 189.0 L 85.0 190.0 L 85.0 191.0 L 85.0 193.0 L 85.0 194.0 L 85.0 195.0 L 85.0 196.0 L 85.0 197.0 L 85.0 198.0 L 85.0 199.0 L 85.0 200.0 L 85.0 202.0 L 85.0 203.0 L 85.0 204.0 L 85.0 205.0 L 85.0 206.0 L 85.0 207.0 L 85.0 209.0 L 85.0 210.0 L 85.0 211.0 L 85.0 213.0 L 85.0 214.0 L 85.0 216.0 L 85.0 218.0 L 85.0 219.0 L 85.0 221.0 L 85.0 222.0 L 85.0 224.0 L 85.0 225.0 L 85.0 227.0 L 85.0 229.0 L 85.0 230.0 L 85.0 232.0 L 85.0 233.0 L 85.0 234.0 L 85.0 235.0 L 85.0 236.0 L 84.0 236.0 L 84.0 237.0 L 84.0 237.0 L 84.0 238.0 L 84.0 238.0 L 84.0 238.0 L 84.0 238.0 L 84.0 238.0 L 84.0 237.0 " stroke="black" fill="none" stroke-width="5.0" stroke-linecap="round" stroke-linejoin="round" />
<path d="M 89.0 108.0 L 89.0 108.0 L 89.0 108.0 L 89.0 108.0 L 89.0 107.0 L 89.0 107.0 L 89.0 107.0 L 89.0 107.0 L 89.0 107.0 L 89.0 106.0 L 88.0 106.0 L 88.0 106.0 L 88.0 106.0 L 88.0 106.0 L 88.0 106.0 L 88.0 107.0 L 89.0 107.0 L 89.0 107.0 L 90.0 107.0 L 90.0 108.0 L 91.0 108.0 L 91.0 108.0 L 92.0 109.0 L 93.0 109.0 L 94.0 109.0 L 95.0 109.0 L 96.0 110.0 L 97.0 110.0 L 98.0 110.0 L 99.0 110.0 L 100.0 110.0 L 101.0 110.0 L 102.0 110.0 L 103.0 110.0 L 104.0 110.0 L 105.0 110.0 L 105.0 110.0 L 106.0 110.0 L 107.0 110.0 L 107.0 111.0 L 108.0 111.0 L 108.0 111.0 L 109.0 111.0 L 110.0 111.0 L 110.0 111.0 L 111.0 111.0 L 111.0 111.0 L 112.0 111.0 L 112.0 111.0 L 113.0 111.0 L 113.0 111.0 L 114.0 111.0 L 115.0 111.0 L 115.0 111.0 L 116.0 111.0 L 116.0 111.0 L 117.0 111.0 L 118.0 111.0 L 118.0 111.0 L 119.0 111.0 L 120.0 111.0 L 121.0 111.0 L 121.0 111.0 L 122.0 111.0 L 123.0 111.0 L 124.0 111.0 L 125.0 111.0 L 126.0 110.0 L 126.0 110.0 L 127.0 110.0 L 128.0 110.0 L 130.0 110.0 L 131.0 110.0 L 132.0 110.0 L 133.0 110.0 L 134.0 110.0 L 135.0 110.0 L 136.0 109.0 L 137.0 109.0 L 138.0 109.0 L 139.0 109.0 L 140.0 109.0 L 141.0 109.0 L 142.0 109.0 L 143.0 109.0 L 144.0 109.0 L 145.0 109.0 L 146.0 109.0 L 147.0 109.0 L 147.0 109.0 L 148.0 109.0 L 149.0 109.0 L 149.0 109.0 L 150.0 109.0 L 150.0 109.0 L 151.0 109.0 L 152.0 109.0 L 152.0 109.0 L 153.0 109.0 L 153.0 109.0 L 154.0 109.0 L 154.0 109.0 L 155.0 109.0 L 156.0 109.0 L 156.0 109.0 L 157.0 109.0 L 158.0 109.0 L 158.0 109.0 L 159.0 109.0 L 160.0 109.0 L 161.0 109.0 L 162.0 109.0 L 163.0 109.0 L 163.0 109.0 L 164.0 109.0 L 166.0 109.0 L 166.0 109.0 L 168.0 109.0 L 169.0 109.0 L 170.0 109.0 L 171.0 109.0 L 173.0 109.0 L 174.0 109.0 L 175.0 109.0 L 177.0 109.0 L 178.0 109.0 L 179.0 109.0 L 180.0 109.0 L 181.0 109.0 L 182.0 109.0 L 183.0 109.0 L 184.0 109.0 L 185.0 109.0 L 186.0 109.0 L 187.0 109.0 L 188.0 109.0 L 188.0 109.0 L 189.0 109.0 L 189.0 109.0 L 190.0 109.0 L 191.0 109.0 L 191.0 109.0 L 192.0 109.0 L 192.0 109.0 L 193.0 109.0 L 193.0 109.0 L 193.0 109.0 L 194.0 109.0 L 194.0 109.0 L 195.0 109.0 L 195.0 109.0 L 196.0 109.0 L 196.0 109.0 L 197.0 109.0 L 198.0 109.0 L 198.0 109.0 L 199.0 109.0 L 199.0 109.0 L 200.0 109.0 L 201.0 109.0 L 201.0 109.0 L 202.0 109.0 L 203.0 109.0 L 204.0 109.0 L 204.0 109.0 L 205.0 109.0 L 206.0 109.0 L 206.0 109.0 L 207.0 109.0 L 207.0 109.0 L 208.0 109.0 L 208.0 109.0 L 209.0 109.0 L 209.0 110.0 L 209.0 110.0 L 210.0 110.0 L 210.0 110.0 L 210.0 110.0 L 210.0 110.0 L 210.0 111.0 L 210.0 111.0 L 210.0 111.0 L 210.0 112.0 L 210.0 113.0 L 210.0 114.0 L 210.0 114.0 L 210.0 116.0 L 210.0 117.0 L 210.0 118.0 L 210.0 120.0 L 210.0 122.0 L 210.0 124.0 L 210.0 126.0 L 209.0 128.0 L 209.0 131.0 L 209.0 134.0 L 209.0 137.0 L 209.0 139.0 L 208.0 143.0 L 208.0 145.0 L 208.0 148.0 L 208.0 150.0 L 208.0 153.0 L 208.0 155.0 L 208.0 157.0 L 208.0 160.0 L 208.0 162.0 L 208.0 164.0 L 208.0 166.0 L 208.0 168.0 L 208.0 170.0 L 208.0 172.0 L 208.0 174.0 L 208.0 177.0 L 208.0 179.0 L 208.0 181.0 L 208.0 184.0 L 208.0 186.0 L 208.0 188.0 L 208.0 191.0 L 208.0 193.0 L 208.0 195.0 L 208.0 197.0 L 208.0 199.0 L 208.0 201.0 L 208.0 203.0 L 208.0 204.0 L 208.0 206.0 L 208.0 208.0 L 208.0 210.0 L 208.0 212.0 L 208.0 214.0 L 207.0 216.0 L 207.0 218.0 L 207.0 220.0 L 207.0 222.0 L 207.0 224.0 L 207.0 226.0 L 207.0 228.0 L 206.0 230.0 L 206.0 232.0 L 206.0 234.0 L 206.0 235.0 L 206.0 237.0 L 206.0 238.0 L 206.0 239.0 L 206.0 240.0 L 206.0 241.0 L 206.0 241.0 L 206.0 241.0 L 206.0 241.0 L 207.0 241.0 L 207.0 241.0 L 207.0 241.0 L 207.0 241.0 L 207.0 240.0 " stroke="black" fill="none" stroke-width="5.0" stroke-linecap="round" stroke-linejoin="round" />
<path d="M 95.0 169.0 L 95.0 169.0 L 95.0 168.0 L 95.0 168.0 L 95.0 168.0 L 95.0 168.0 L 95.0 167.0 L 95.0 167.0 L 95.0 167.0 L 95.0 167.0 L 95.0 166.0 L 95.0 166.0 L 95.0 166.0 L 96.0 166.0 L 96.0 166.0 L 96.0 166.0 L 97.0 166.0 L 98.0 166.0 L 99.0 166.0 L 100.0 166.0 L 101.0 167.0 L 102.0 167.0 L 103.0 167.0 L 105.0 168.0 L 106.0 168.0 L 107.0 169.0 L 108.0 169.0 L 110.0 169.0 L 111.0 170.0 L 112.0 170.0 L 114.0 170.0 L 115.0 170.0 L 116.0 170.0 L 118.0 170.0 L 119.0 170.0 L 121.0 170.0 L 122.0 170.0 L 124.0 170.0 L 126.0 170.0 L 127.0 170.0 L 129.0 170.0 L 131.0 170.0 L 133.0 170.0 L 134.0 170.0 L 136.0 171.0 L 137.0 171.0 L 138.0 171.0 L 140.0 171.0 L 141.0 171.0 L 142.0 171.0 L 144.0 171.0 L 145.0 171.0 L 146.0 171.0 L 148.0 172.0 L 149.0 172.0 L 151.0 172.0 L 152.0 172.0 L 154.0 173.0 L 155.0 173.0 L 157.0 173.0 L 158.0 173.0 L 160.0 173.0 L 161.0 173.0 L 163.0 173.0 L 165.0 173.0 L 166.0 173.0 L 168.0 173.0 L 170.0 173.0 L 172.0 173.0 L 174.0 173.0 L 176.0 173.0 L 178.0 173.0 L 180.0 173.0 L 183.0 173.0 L 185.0 173.0 L 187.0 172.0 L 189.0 172.0 L 191.0 172.0 L 192.0 171.0 L 194.0 171.0 L 196.0 171.0 L 197.0 170.0 L 199.0 170.0 L 200.0 170.0 L 201.0 169.0 L 202.0 169.0 L 202.0 169.0 L 203.0 169.0 " stroke="black" fill="none" stroke-width="5.0" stroke-linecap="round" stroke-linejoin="round" />
<path d="M 89.0 240.0 L 89.0 240.0 L 89.0 240.0 L 89.0 240.0 L 89.0 240.0 L 89.0 239.0 L 89.0 239.0 L 90.0 239.0 L 90.0 238.0 L 91.0 238.0 L 91.0 238.0 L 92.0 238.0 L 93.0 238.0 L 95.0 238.0 L 96.0 238.0 L 98.0 238.0 L 100.0 238.0 L 102.0 238.0 L 104.0 238.0 L 106.0 238.0 L 107.0 238.0 L 109.0 238.0 L 110.0 238.0 L 112.0 238.0 L 113.0 238.0 L 114.0 238.0 L 116.0 238.0 L 118.0 238.0 L 119.0 238.0 L 121.0 238.0 L 123.0 238.0 L 125.0 238.0 L 127.0 238.0 L 129.0 238.0 L 131.0 238.0 L 133.0 238.0 L 134.0 238.0 L 136.0 238.0 L 138.0 238.0 L 140.0 238.0 L 142.0 238.0 L 144.0 238.0 L 145.0 239.0 L 147.0 239.0 L 148.0 239.0 L 150.0 239.0 L 151.0 239.0 L 153.0 239.0 L 154.0 239.0 L 155.0 239.0 L 156.0 239.0 L 157.0 239.0 L 159.0 239.0 L 160.0 239.0 L 162.0 239.0 L 163.0 239.0 L 165.0 239.0 L 167.0 239.0 L 169.0 239.0 L 171.0 239.0 L 173.0 239.0 L 175.0 239.0 L 177.0 239.0 L 179.0 239.0 L 181.0 239.0 L 183.0 239.0 L 184.0 238.0 L 185.0 238.0 L 187.0 238.0 L 188.0 238.0 L 190.0 238.0 L 191.0 238.0 L 192.0 238.0 L 194.0 238.0 L 195.0 238.0 L 196.0 238.0 L 197.0 238.0 L 198.0 238.0 L 198.0 238.0 L 199.0 238.0 L 200.0 238.0 L 200.0 238.0 L 200.0 238.0 L 201.0 238.0 L 201.0 238.0 L 202.0 238.0 L 202.0 238.0 L 202.0 238.0 " stroke="black" fill="none" stroke-width="5.0" stroke-linecap="round" stroke-linejoin="round" />
</svg>