<svg xmlns="http://www.w3.org/2000/svg" width="300" height="300" viewBox="0 0 300 300">
<path d="M 103.0 71.0 L 103.0 71.0 L 102.0 71.0 L 102.0 70.0 L 101.0 70.0 L 101.0 70.0 L 101.0 70.0 L 101.0 70.0 L 101.0 71.0 L 103.0 73.0 L 104.0 75.0 L 106.0 77.0 L 108.0 79.0 L 111.0 81.0 L 113.0 84.0 L 115.0 86.0 L 116.0 89.0 " stroke="black" fill="none" stroke-width="5.0" stroke-linecap="round" stroke-linejoin="round" />
<path d="M 72.0 100.0 L 71.0 100.0 L 70.0 100.0 L 68.0 100.0 L 67.0 100.0 L 67.0 100.0 L 66.0 100.0 L 66.0 100.0 L 66.0 101.0 L 67.0 101.0 L 69.0 101.0 L 73.0 101.0 L 79.0 100.0 L 87.0 99.0 L 96.0 98.0 L 103.0 98.0 L 111.0 97.0 L 118.0 97.0 L 124.0 97.0 L 128.0 98.0 L 132.0 99.0 L 134.0 100.0 " stroke="black" fill="none" stroke-width="5.0" stroke-linecap="round" stroke-linejoin="round" />
<path d="M 93.0 104.0 L 92.0 104.0 L 91.0 105.0 L 90.0 106.0 L 89.0 108.0 L 89.0 110.0 L 88.0 113.0 L 87.0 116.0 L 87.0 119.0 L 86.0 124.0 L 86.0 128.0 L 86.0 132.0 L 86.0 137.0 L 86.0 141.0 L 86.0 144.0 L 86.0 147.0 L 87.0 149.0 L 88.0 151.0 L 89.0 152.0 L 91.0 153.0 L 93.0 153.0 L 96.0 154.0 L 99.0 154.0 L 102.0 154.0 L 107.0 153.0 L 111.0 152.0 L 117.0 150.0 L 121.0 148.0 " stroke="black" fill="none" stroke-width="5.0" stroke-linecap="round" stroke-linejoin="round" />
<path d="M 189.0 68.0 L 189.0 68.0 L 189.0 68.0 L 189.0 69.0 L 189.0 70.0 L 188.0 72.0 L 186.0 75.0 L 183.0 79.0 L 179.0 84.0 L 174.0 90.0 L 167.0 97.0 L 162.0 103.0 L 157.0 108.0 L 154.0 111.0 L 152.0 113.0 L 152.0 113.0 L 152.0 113.0 L 152.0 112.0 " stroke="black" fill="none" stroke-width="5.0" stroke-linecap="round" stroke-linejoin="round" />
<path d="M 169.0 92.0 L 169.0 92.0 L 168.0 92.0 L 168.0 92.0 L 168.0 92.0 L 167.0 92.0 L 167.0 92.0 L 167.0 92.0 L 167.0 92.0 L 167.0 92.0 L 167.0 92.0 L 168.0 92.0 L 169.0 92.0 L 171.0 92.0 L 173.0 92.0 L 176.0 92.0 L 179.0 92.0 L 183.0 91.0 L 186.0 91.0 L 190.0 91.0 L 194.0 90.0 L 197.0 90.0 L 201.0 90.0 L 204.0 90.0 L 208.0 90.0 L 212.0 90.0 L 216.0 90.0 L 219.0 90.0 L 222.0 90.0 L 225.0 90.0 L 227.0 90.0 L 228.0 91.0 L 229.0 92.0 L 229.0 93.0 L 229.0 94.0 L 229.0 95.0 L 227.0 97.0 L 226.0 100.0 L 224.0 103.0 L 221.0 106.0 L 218.0 110.0 L 214.0 114.0 L 209.0 119.0 L 204.0 125.0 L 199.0 131.0 L 194.0 137.0 L 190.0 143.0 L 185.0 149.0 L 181.0 152.0 L 176.0 154.0 L 171.0 154.0 L 168.0 154.0 L 165.0 153.0 L 164.0 152.0 " stroke="black" fill="none" stroke-width="5.0" stroke-linecap="round" stroke-linejoin="round" />
<path d="M 180.0 105.0 L 179.0 105.0 L 178.0 104.0 L 177.0 104.0 L 177.0 104.0 L 177.0 104.0 L 178.0 104.0 L 179.0 104.0 L 182.0 105.0 L 184.0 106.0 L 187.0 107.0 L 190.0 109.0 L 192.0 110.0 L 195.0 111.0 L 197.0 113.0 L 200.0 114.0 L 202.0 116.0 L 203.0 116.0 " stroke="black" fill="none" stroke-width="5.0" stroke-linecap="round" stroke-linejoin="round" />
<path d="M 161.0 120.0 L 160.0 120.0 L 158.0 120.0 L 157.0 120.0 L 156.0 120.0 L 156.0 121.0 L 157.0 121.0 L 160.0 123.0 L 164.0 124.0 L 170.0 125.0 L 175.0 126.0 L 181.0 127.0 L 187.0 127.0 L 192.0 128.0 L 197.0 129.0 L 198.0 129.0 " stroke="black" fill="none" stroke-width="5.0" stroke-linecap="round" stroke-linejoin="round" />
<path d="M 96.0 183.0 L 96.0 183.0 L 96.0 184.0 L 96.0 185.0 L 96.0 185.0 L 96.0 186.0 L 96.0 186.0 L 97.0 186.0 L 99.0 186.0 L 101.0 186.0 L 105.0 186.0 L 109.0 185.0 L 114.0 185.0 L 122.0 184.0 L 131.0 184.0 L 141.0 183.0 L 149.0 183.0 L 157.0 182.0 L 164.0 181.0 L 171.0 180.0 L 179.0 180.0 L 185.0 179.0 L 190.0 179.0 L 194.0 179.0 L 196.0 179.0 L 197.0 180.0 L 197.0 182.0 " stroke="black" fill="none" stroke-width="5.0" stroke-linecap="round" stroke-linejoin="round" />
<path d="M 96.0 214.0 L 96.0 214.0 L 95.0 214.0 L 94.0 214.0 L 93.0 213.0 L 92.0 213.0 L 92.0 213.0 L 91.0 213.0 L 91.0 213.0 L 92.0 213.0 L 93.0 213.0 L 96.0 213.0 L 99.0 213.0 L 103.0 213.0 L 108.0 213.0 L 114.0 213.0 L 123.0 212.0 L 133.0 211.0 L 144.0 211.0 L 153.0 210.0 L 160.0 210.0 L 168.0 209.0 L 176.0 209.0 L 183.0 209.0 L 189.0 209.0 L 194.0 209.0 L 196.0 209.0 L 198.0 210.0 L 200.0 210.0 L 200.0 210.0 " stroke="black" fill="none" stroke-width="5.0" stroke-linecap="round" stroke-linejoin="round" />
<path d="M 149.0 197.0 L 149.0 197.0 L 148.0 197.0 L 148.0 197.0 L 147.0 197.0 L 147.0 197.0 L 147.0 199.0 L 147.0 202.0 L 147.0 206.0 L 148.0 211.0 L 148.0 218.0 L 148.0 226.0 L 148.0 235.0 L 148.0 242.0 L 147.0 248.0 L 145.0 253.0 L 144.0 256.0 L 143.0 259.0 " stroke="black" fill="none" stroke-width="5.0" stroke-linecap="round" stroke-linejoin="round" />
<path d="M 77.0 256.0 L 77.0 256.0 L 76.0 256.0 L 75.0 256.0 L 75.0 256.0 L 75.0 256.0 L 76.0 256.0 L 78.0 255.0 L 82.0 255.0 L 88.0 255.0 L 94.0 254.0 L 101.0 254.0 L 108.0 254.0 L 117.0 253.0 L 128.0 252.0 L 140.0 252.0 L 151.0 251.0 L 162.0 251.0 L 172.0 250.0 L 182.0 250.0 L 192.0 249.0 L 197.0 249.0 L 202.0 249.0 L 207.0 249.0 L 212.0 249.0 L 217.0 249.0 L 221.0 250.0 L 225.0 250.0 L 227.0 250.0 L 229.0 250.0 L 230.0 251.0 " stroke="black" fill="none" stroke-width="5.0" stroke-linecap="round" stroke-linejoin="round" />
</svg>