<svg xmlns="http://www.w3.org/2000/svg" width="300" height="300" viewBox="0 0 300 300">
<path d="M 112.0 65.0 L 112.0 64.0 L 111.0 63.0 L 111.0 62.0 L 110.0 62.0 L 110.0 62.0 L 110.0 62.0 L 110.0 64.0 L 110.0 67.0 L 111.0 70.0 L 112.0 74.0 L 112.0 78.0 L 113.0 82.0 L 114.0 87.0 L 114.0 91.0 L 114.0 96.0 L 114.0 100.0 " stroke="black" fill="none" stroke-width="5.0" stroke-linecap="round" stroke-linejoin="round" />
<path d="M 75.0 86.0 L 74.0 86.0 L 72.0 86.0 L 71.0 86.0 L 71.0 86.0 L 71.0 86.0 L 71.0 86.0 L 72.0 85.0 L 75.0 85.0 L 80.0 85.0 L 85.0 85.0 L 91.0 84.0 L 98.0 84.0 L 105.0 83.0 L 113.0 82.0 L 122.0 81.0 L 132.0 81.0 L 141.0 81.0 " stroke="black" fill="none" stroke-width="5.0" stroke-linecap="round" stroke-linejoin="round" />
<path d="M 162.0 84.0 L 162.0 84.0 L 162.0 84.0 L 162.0 85.0 L 162.0 85.0 L 162.0 85.0 L 162.0 85.0 L 163.0 85.0 L 165.0 85.0 L 169.0 85.0 L 173.0 85.0 L 179.0 85.0 L 185.0 85.0 L 192.0 85.0 L 198.0 85.0 L 205.0 84.0 L 212.0 84.0 L 219.0 84.0 L 225.0 84.0 L 229.0 84.0 L 232.0 84.0 L 233.0 85.0 " stroke="black" fill="none" stroke-width="5.0" stroke-linecap="round" stroke-linejoin="round" />
<path d="M 186.0 72.0 L 186.0 72.0 L 185.0 72.0 L 184.0 72.0 L 184.0 72.0 L 183.0 72.0 L 183.0 74.0 L 183.0 76.0 L 182.0 79.0 L 182.0 83.0 L 182.0 89.0 L 182.0 96.0 L 181.0 102.0 L 181.0 108.0 " stroke="black" fill="none" stroke-width="5.0" stroke-linecap="round" stroke-linejoin="round" />
<path d="M 92.0 117.0 L 92.0 117.0 L 92.0 117.0 L 91.0 116.0 L 91.0 116.0 L 91.0 116.0 L 91.0 116.0 L 91.0 116.0 L 91.0 117.0 L 92.0 119.0 L 93.0 123.0 L 93.0 128.0 L 94.0 135.0 L 95.0 142.0 L 96.0 148.0 L 97.0 154.0 L 97.0 157.0 L 98.0 158.0 " stroke="black" fill="none" stroke-width="5.0" stroke-linecap="round" stroke-linejoin="round" />
<path d="M 100.0 114.0 L 100.0 114.0 L 99.0 114.0 L 99.0 114.0 L 98.0 115.0 L 97.0 115.0 L 97.0 115.0 L 97.0 115.0 L 97.0 115.0 L 97.0 115.0 L 97.0 115.0 L 97.0 115.0 L 97.0 115.0 L 98.0 114.0 L 98.0 114.0 L 99.0 114.0 L 100.0 114.0 L 101.0 114.0 L 101.0 114.0 L 102.0 114.0 L 103.0 114.0 L 104.0 114.0 L 105.0 114.0 L 106.0 114.0 L 107.0 113.0 L 107.0 113.0 L 108.0 113.0 L 109.0 113.0 L 110.0 113.0 L 110.0 113.0 L 111.0 113.0 L 112.0 113.0 L 112.0 113.0 L 113.0 113.0 L 114.0 113.0 L 115.0 113.0 L 116.0 113.0 L 117.0 113.0 L 118.0 113.0 L 119.0 113.0 L 120.0 113.0 L 121.0 113.0 L 122.0 113.0 L 123.0 113.0 L 125.0 113.0 L 126.0 113.0 L 128.0 113.0 L 129.0 113.0 L 131.0 112.0 L 132.0 112.0 L 134.0 112.0 L 136.0 112.0 L 137.0 111.0 L 139.0 111.0 L 140.0 111.0 L 141.0 111.0 L 143.0 111.0 L 144.0 110.0 L 145.0 110.0 L 146.0 110.0 L 147.0 110.0 L 148.0 110.0 L 149.0 110.0 L 150.0 110.0 L 151.0 110.0 L 152.0 110.0 L 153.0 110.0 L 153.0 110.0 L 154.0 110.0 L 155.0 110.0 L 157.0 110.0 L 158.0 110.0 L 159.0 110.0 L 160.0 110.0 L 162.0 110.0 L 163.0 110.0 L 165.0 110.0 L 166.0 110.0 L 168.0 110.0 L 170.0 110.0 L 171.0 111.0 L 173.0 111.0 L 175.0 111.0 L 178.0 111.0 L 179.0 111.0 L 181.0 111.0 L 183.0 111.0 L 185.0 111.0 L 186.0 111.0 L 188.0 111.0 L 189.0 111.0 L 190.0 112.0 L 191.0 112.0 L 193.0 113.0 L 194.0 113.0 L 195.0 113.0 L 196.0 113.0 L 197.0 113.0 L 198.0 114.0 L 200.0 114.0 L 201.0 114.0 L 202.0 114.0 L 203.0 114.0 L 203.0 114.0 L 204.0 114.0 L 205.0 115.0 L 205.0 115.0 L 206.0 115.0 L 207.0 115.0 L 207.0 116.0 L 207.0 116.0 L 208.0 116.0 L 208.0 117.0 L 208.0 118.0 L 208.0 119.0 L 208.0 120.0 L 208.0 122.0 L 208.0 124.0 L 208.0 127.0 L 208.0 131.0 L 207.0 136.0 L 206.0 141.0 L 206.0 146.0 L 205.0 150.0 L 205.0 154.0 L 205.0 157.0 L 204.0 159.0 L 204.0 160.0 " stroke="black" fill="none" stroke-width="5.0" stroke-linecap="round" stroke-linejoin="round" />
<path d="M 105.0 134.0 L 105.0 134.0 L 105.0 134.0 L 105.0 134.0 L 105.0 134.0 L 105.0 134.0 L 105.0 134.0 L 105.0 134.0 L 105.0 134.0 L 105.0 134.0 L 105.0 134.0 L 105.0 134.0 L 106.0 134.0 L 107.0 135.0 L 108.0 135.0 L 110.0 135.0 L 112.0 135.0 L 115.0 136.0 L 119.0 136.0 L 123.0 136.0 L 127.0 136.0 L 132.0 137.0 L 136.0 137.0 L 140.0 137.0 L 144.0 137.0 L 148.0 137.0 L 151.0 137.0 L 153.0 137.0 L 155.0 137.0 L 158.0 137.0 L 160.0 137.0 L 162.0 137.0 L 165.0 138.0 L 168.0 138.0 L 171.0 138.0 L 175.0 138.0 L 179.0 138.0 L 182.0 138.0 L 186.0 138.0 L 189.0 138.0 L 192.0 137.0 L 194.0 137.0 L 196.0 137.0 L 197.0 137.0 L 198.0 137.0 L 198.0 137.0 L 199.0 137.0 L 199.0 138.0 " stroke="black" fill="none" stroke-width="5.0" stroke-linecap="round" stroke-linejoin="round" />
<path d="M 106.0 157.0 L 106.0 157.0 L 106.0 157.0 L 106.0 157.0 L 105.0 157.0 L 105.0 157.0 L 105.0 157.0 L 105.0 157.0 L 105.0 157.0 L 105.0 157.0 L 105.0 157.0 L 105.0 157.0 L 107.0 157.0 L 109.0 157.0 L 113.0 157.0 L 118.0 157.0 L 125.0 157.0 L 134.0 157.0 L 142.0 157.0 L 151.0 157.0 L 157.0 157.0 L 163.0 157.0 L 170.0 157.0 L 175.0 157.0 L 180.0 158.0 L 184.0 159.0 L 188.0 160.0 L 190.0 161.0 L 192.0 161.0 L 193.0 161.0 " stroke="black" fill="none" stroke-width="5.0" stroke-linecap="round" stroke-linejoin="round" />
<path d="M 58.0 184.0 L 58.0 184.0 L 58.0 184.0 L 58.0 183.0 L 58.0 183.0 L 59.0 183.0 L 59.0 182.0 L 59.0 182.0 L 60.0 182.0 L 60.0 182.0 L 61.0 182.0 L 62.0 181.0 L 62.0 181.0 L 63.0 181.0 L 64.0 181.0 L 65.0 181.0 L 66.0 181.0 L 68.0 182.0 L 70.0 182.0 L 72.0 182.0 L 74.0 183.0 L 77.0 183.0 L 80.0 183.0 L 82.0 184.0 L 84.0 184.0 L 87.0 184.0 L 89.0 184.0 L 91.0 184.0 L 93.0 184.0 L 95.0 184.0 L 97.0 184.0 L 99.0 184.0 L 101.0 184.0 L 103.0 184.0 L 105.0 184.0 L 107.0 184.0 L 108.0 184.0 L 110.0 184.0 L 111.0 184.0 L 112.0 183.0 L 114.0 183.0 L 116.0 182.0 L 117.0 182.0 L 119.0 182.0 L 121.0 182.0 L 122.0 181.0 L 124.0 181.0 L 126.0 181.0 L 129.0 181.0 L 131.0 181.0 L 133.0 181.0 L 136.0 181.0 L 138.0 181.0 L 141.0 181.0 L 143.0 181.0 L 145.0 181.0 L 147.0 181.0 L 149.0 181.0 L 151.0 181.0 L 152.0 181.0 L 154.0 181.0 L 155.0 181.0 L 157.0 181.0 L 159.0 181.0 L 161.0 182.0 L 164.0 182.0 L 167.0 183.0 L 170.0 183.0 L 174.0 183.0 L 179.0 183.0 L 183.0 183.0 L 188.0 183.0 L 192.0 182.0 L 195.0 182.0 L 199.0 182.0 L 203.0 182.0 L 206.0 182.0 L 210.0 182.0 L 214.0 183.0 L 218.0 183.0 L 222.0 184.0 L 225.0 184.0 L 228.0 184.0 " stroke="black" fill="none" stroke-width="5.0" stroke-linecap="round" stroke-linejoin="round" />
<path d="M 141.0 159.0 L 141.0 159.0 L 141.0 159.0 L 141.0 159.0 L 140.0 159.0 L 140.0 159.0 L 139.0 159.0 L 138.0 160.0 L 136.0 161.0 L 134.0 162.0 L 132.0 165.0 L 129.0 168.0 L 125.0 172.0 L 122.0 176.0 L 118.0 181.0 L 114.0 186.0 L 110.0 191.0 L 107.0 196.0 L 103.0 199.0 L 99.0 203.0 L 94.0 206.0 L 88.0 208.0 L 82.0 210.0 L 76.0 212.0 L 72.0 213.0 L 68.0 215.0 L 66.0 215.0 " stroke="black" fill="none" stroke-width="5.0" stroke-linecap="round" stroke-linejoin="round" />
<path d="M 189.0 192.0 L 189.0 192.0 L 189.0 192.0 L 188.0 191.0 L 188.0 191.0 L 188.0 190.0 L 188.0 190.0 L 188.0 190.0 L 188.0 191.0 L 189.0 191.0 L 190.0 193.0 L 192.0 194.0 L 194.0 196.0 L 197.0 198.0 L 200.0 200.0 L 204.0 203.0 L 208.0 206.0 L 214.0 208.0 L 219.0 210.0 L 224.0 212.0 L 228.0 213.0 L 232.0 213.0 " stroke="black" fill="none" stroke-width="5.0" stroke-linecap="round" stroke-linejoin="round" />
<path d="M 135.0 198.0 L 135.0 198.0 L 135.0 199.0 L 135.0 199.0 L 135.0 199.0 L 135.0 200.0 L 134.0 202.0 L 134.0 204.0 L 134.0 206.0 L 134.0 210.0 L 134.0 215.0 L 134.0 221.0 L 135.0 227.0 L 135.0 234.0 L 136.0 239.0 L 136.0 245.0 L 136.0 249.0 L 136.0 252.0 L 135.0 254.0 L 135.0 254.0 L 133.0 255.0 L 132.0 255.0 L 130.0 255.0 L 128.0 254.0 L 126.0 254.0 L 124.0 253.0 L 122.0 252.0 L 119.0 251.0 L 116.0 249.0 L 114.0 248.0 L 113.0 247.0 " stroke="black" fill="none" stroke-width="5.0" stroke-linecap="round" stroke-linejoin="round" />
<path d="M 110.0 216.0 L 110.0 216.0 L 110.0 216.0 L 110.0 216.0 L 110.0 215.0 L 110.0 215.0 L 110.0 215.0 L 109.0 215.0 L 109.0 217.0 L 108.0 220.0 L 106.0 225.0 L 104.0 230.0 L 102.0 235.0 L 100.0 240.0 L 98.0 245.0 L 96.0 249.0 " stroke="black" fill="none" stroke-width="5.0" stroke-linecap="round" stroke-linejoin="round" />
<path d="M 158.0 213.0 L 158.0 213.0 L 158.0 213.0 L 157.0 213.0 L 157.0 213.0 L 157.0 213.0 L 156.0 213.0 L 156.0 213.0 L 156.0 213.0 L 156.0 215.0 L 156.0 217.0 L 157.0 220.0 L 158.0 224.0 L 159.0 229.0 L 161.0 233.0 L 163.0 237.0 L 165.0 240.0 " stroke="black" fill="none" stroke-width="5.0" stroke-linecap="round" stroke-linejoin="round" />
<path d="M 188.0 205.0 L 188.0 205.0 L 188.0 205.0 L 188.0 205.0 L 188.0 205.0 L 188.0 205.0 L 188.0 206.0 L 188.0 207.0 L 189.0 209.0 L 191.0 212.0 L 192.0 216.0 L 194.0 222.0 L 197.0 228.0 L 199.0 235.0 L 201.0 241.0 L 203.0 246.0 " stroke="black" fill="none" stroke-width="5.0" stroke-linecap="round" stroke-linejoin="round" />
</svg>