<svg xmlns="http://www.w3.org/2000/svg" width="300" height="300" viewBox="0 0 300 300">
<path d="M 92.0 74.0 L 91.0 74.0 L 90.0 74.0 L 90.0 73.0 L 89.0 73.0 L 89.0 73.0 L 89.0 73.0 L 89.0 73.0 L 89.0 74.0 L 89.0 75.0 L 91.0 76.0 L 93.0 78.0 L 95.0 81.0 L 98.0 83.0 L 100.0 86.0 L 102.0 89.0 " stroke="black" fill="none" stroke-width="5.0" stroke-linecap="round" stroke-linejoin="round" />
<path d="M 64.0 110.0 L 64.0 110.0 L 63.0 110.0 L 61.0 110.0 L 60.0 110.0 L 59.0 109.0 L 58.0 109.0 L 58.0 109.0 L 58.0 109.0 L 58.0 109.0 L 58.0 109.0 L 59.0 109.0 L 61.0 108.0 L 64.0 108.0 L 68.0 108.0 L 73.0 108.0 L 80.0 108.0 L 88.0 109.0 L 97.0 109.0 L 105.0 109.0 L 112.0 109.0 L 117.0 109.0 L 121.0 111.0 L 124.0 113.0 " stroke="black" fill="none" stroke-width="5.0" stroke-linecap="round" stroke-linejoin="round" />
<path d="M 71.0 139.0 L 71.0 139.0 L 69.0 139.0 L 68.0 139.0 L 67.0 139.0 L 66.0 139.0 L 66.0 139.0 L 66.0 139.0 L 67.0 139.0 L 70.0 139.0 L 74.0 139.0 L 80.0 139.0 L 87.0 138.0 L 94.0 137.0 L 101.0 137.0 L 107.0 136.0 L 113.0 135.0 L 117.0 135.0 L 120.0 136.0 L 121.0 138.0 L 121.0 139.0 " stroke="black" fill="none" stroke-width="5.0" stroke-linecap="round" stroke-linejoin="round" />
<path d="M 74.0 162.0 L 73.0 162.0 L 70.0 162.0 L 68.0 163.0 L 67.0 164.0 L 67.0 164.0 L 66.0 164.0 L 66.0 164.0 L 67.0 164.0 L 68.0 164.0 L 69.0 164.0 L 72.0 163.0 L 75.0 162.0 L 78.0 162.0 L 82.0 162.0 L 87.0 162.0 L 92.0 162.0 L 97.0 162.0 L 103.0 162.0 L 108.0 163.0 L 113.0 163.0 " stroke="black" fill="none" stroke-width="5.0" stroke-linecap="round" stroke-linejoin="round" />
<path d="M 69.0 195.0 L 69.0 195.0 L 69.0 195.0 L 69.0 195.0 L 69.0 195.0 L 69.0 195.0 L 70.0 195.0 L 70.0 196.0 L 71.0 198.0 L 71.0 200.0 L 71.0 205.0 L 72.0 210.0 L 72.0 216.0 L 72.0 223.0 L 72.0 228.0 L 72.0 232.0 L 72.0 235.0 L 72.0 236.0 L 72.0 236.0 " stroke="black" fill="none" stroke-width="5.0" stroke-linecap="round" stroke-linejoin="round" />
<path d="M 75.0 193.0 L 75.0 193.0 L 74.0 193.0 L 73.0 193.0 L 73.0 193.0 L 73.0 192.0 L 73.0 192.0 L 73.0 192.0 L 73.0 191.0 L 74.0 191.0 L 76.0 191.0 L 77.0 190.0 L 80.0 190.0 L 82.0 189.0 L 86.0 188.0 L 89.0 188.0 L 93.0 187.0 L 98.0 187.0 L 102.0 187.0 L 105.0 187.0 L 109.0 187.0 L 112.0 187.0 L 114.0 187.0 L 117.0 188.0 L 119.0 188.0 L 120.0 189.0 L 121.0 189.0 L 122.0 189.0 L 122.0 190.0 L 122.0 190.0 L 122.0 191.0 L 122.0 192.0 L 121.0 194.0 L 120.0 195.0 L 120.0 197.0 L 119.0 199.0 L 119.0 201.0 L 119.0 204.0 L 118.0 207.0 L 118.0 211.0 L 117.0 215.0 L 116.0 220.0 L 115.0 225.0 L 114.0 230.0 L 113.0 235.0 L 112.0 237.0 L 112.0 239.0 L 111.0 240.0 " stroke="black" fill="none" stroke-width="5.0" stroke-linecap="round" stroke-linejoin="round" />
<path d="M 78.0 244.0 L 77.0 244.0 L 74.0 244.0 L 71.0 245.0 L 68.0 245.0 L 67.0 245.0 L 66.0 245.0 L 66.0 245.0 L 66.0 245.0 L 66.0 245.0 L 68.0 245.0 L 71.0 244.0 L 75.0 244.0 L 81.0 243.0 L 87.0 242.0 L 93.0 241.0 L 100.0 240.0 L 106.0 240.0 L 111.0 239.0 L 118.0 238.0 L 122.0 237.0 " stroke="black" fill="none" stroke-width="5.0" stroke-linecap="round" stroke-linejoin="round" />
<path d="M 152.0 86.0 L 152.0 86.0 L 152.0 86.0 L 152.0 86.0 L 152.0 86.0 L 152.0 86.0 L 153.0 86.0 L 153.0 86.0 L 153.0 86.0 L 153.0 86.0 L 154.0 87.0 L 154.0 89.0 L 155.0 91.0 L 155.0 95.0 L 156.0 98.0 L 157.0 102.0 L 157.0 106.0 L 158.0 111.0 L 158.0 115.0 L 158.0 119.0 L 159.0 123.0 L 159.0 126.0 L 159.0 129.0 L 159.0 131.0 L 159.0 134.0 L 159.0 136.0 L 159.0 138.0 L 159.0 141.0 L 159.0 143.0 L 159.0 146.0 L 159.0 149.0 L 159.0 152.0 L 159.0 155.0 L 159.0 157.0 L 159.0 159.0 L 159.0 162.0 L 158.0 164.0 L 158.0 166.0 L 158.0 169.0 L 157.0 171.0 L 157.0 173.0 L 157.0 176.0 L 157.0 179.0 L 157.0 182.0 L 156.0 185.0 L 156.0 188.0 L 156.0 191.0 L 156.0 194.0 L 155.0 196.0 L 155.0 198.0 L 154.0 201.0 L 154.0 204.0 L 153.0 206.0 L 152.0 209.0 L 152.0 212.0 L 151.0 214.0 L 151.0 218.0 L 150.0 221.0 L 150.0 224.0 L 149.0 228.0 L 148.0 232.0 L 147.0 237.0 L 145.0 243.0 L 143.0 248.0 L 141.0 252.0 L 140.0 256.0 L 138.0 259.0 L 137.0 260.0 L 136.0 260.0 " stroke="black" fill="none" stroke-width="5.0" stroke-linecap="round" stroke-linejoin="round" />
<path d="M 193.0 93.0 L 193.0 93.0 L 193.0 93.0 L 193.0 92.0 L 193.0 92.0 L 193.0 92.0 L 193.0 92.0 L 193.0 92.0 L 193.0 92.0 L 193.0 92.0 L 193.0 95.0 L 193.0 98.0 L 193.0 103.0 L 193.0 108.0 L 193.0 115.0 L 193.0 123.0 L 192.0 130.0 L 192.0 138.0 L 192.0 145.0 L 192.0 151.0 L 192.0 157.0 L 192.0 162.0 L 192.0 167.0 L 192.0 173.0 L 192.0 178.0 L 191.0 183.0 L 191.0 189.0 L 191.0 193.0 L 191.0 197.0 L 191.0 201.0 L 191.0 205.0 L 191.0 208.0 L 191.0 212.0 L 191.0 215.0 L 191.0 219.0 L 191.0 223.0 L 191.0 227.0 L 191.0 230.0 L 191.0 233.0 L 191.0 234.0 L 191.0 235.0 L 191.0 236.0 L 191.0 236.0 L 191.0 236.0 L 190.0 236.0 L 190.0 234.0 " stroke="black" fill="none" stroke-width="5.0" stroke-linecap="round" stroke-linejoin="round" />
<path d="M 233.0 79.0 L 233.0 79.0 L 233.0 79.0 L 233.0 80.0 L 233.0 80.0 L 233.0 81.0 L 233.0 82.0 L 233.0 83.0 L 233.0 85.0 L 233.0 87.0 L 233.0 90.0 L 233.0 94.0 L 233.0 98.0 L 233.0 103.0 L 233.0 108.0 L 233.0 113.0 L 233.0 119.0 L 233.0 124.0 L 233.0 129.0 L 233.0 134.0 L 233.0 141.0 L 233.0 146.0 L 234.0 151.0 L 234.0 157.0 L 234.0 161.0 L 234.0 165.0 L 234.0 170.0 L 234.0 173.0 L 234.0 177.0 L 234.0 181.0 L 234.0 185.0 L 234.0 189.0 L 233.0 193.0 L 233.0 197.0 L 233.0 200.0 L 233.0 204.0 L 232.0 207.0 L 232.0 210.0 L 232.0 214.0 L 232.0 216.0 L 231.0 219.0 L 231.0 223.0 L 231.0 226.0 L 231.0 229.0 L 231.0 233.0 L 231.0 236.0 L 231.0 239.0 L 231.0 242.0 L 231.0 244.0 L 231.0 246.0 L 231.0 249.0 L 231.0 250.0 L 231.0 252.0 L 231.0 255.0 L 231.0 257.0 L 231.0 259.0 L 231.0 261.0 L 231.0 264.0 L 231.0 266.0 L 231.0 268.0 L 231.0 270.0 L 231.0 271.0 L 231.0 272.0 L 231.0 273.0 L 231.0 274.0 L 231.0 274.0 L 231.0 274.0 L 231.0 274.0 L 231.0 273.0 L 231.0 272.0 " stroke="black" fill="none" stroke-width="5.0" stroke-linecap="round" stroke-linejoin="round" />
</svg>