<svg xmlns="http://www.w3.org/2000/svg" width="300" height="300" viewBox="0 0 300 300">
<path d="M 76.0 83.0 L 75.0 82.0 L 73.0 81.0 L 71.0 81.0 L 71.0 81.0 L 71.0 81.0 L 71.0 82.0 L 71.0 82.0 L 72.0 83.0 L 73.0 83.0 L 74.0 83.0 L 76.0 83.0 L 80.0 83.0 L 85.0 82.0 L 91.0 82.0 L 98.0 82.0 L 105.0 81.0 L 111.0 80.0 L 117.0 80.0 L 119.0 80.0 L 126.0 80.0 L 127.0 80.0 L 128.0 80.0 " stroke="black" fill="none" stroke-width="5.0" stroke-linecap="round" stroke-linejoin="round" />
<path d="M 107.0 86.0 L 106.0 85.0 L 106.0 84.0 L 105.0 84.0 L 104.0 84.0 L 103.0 84.0 L 103.0 84.0 L 102.0 85.0 L 102.0 87.0 L 101.0 90.0 L 101.0 96.0 L 101.0 102.0 L 101.0 108.0 L 100.0 114.0 L 100.0 117.0 L 100.0 121.0 " stroke="black" fill="none" stroke-width="5.0" stroke-linecap="round" stroke-linejoin="round" />
<path d="M 65.0 123.0 L 65.0 122.0 L 63.0 122.0 L 61.0 121.0 L 60.0 121.0 L 59.0 121.0 L 58.0 121.0 L 58.0 121.0 L 58.0 121.0 L 58.0 121.0 L 58.0 121.0 L 60.0 121.0 L 62.0 121.0 L 65.0 121.0 L 69.0 121.0 L 76.0 121.0 L 85.0 120.0 L 96.0 119.0 L 107.0 119.0 L 118.0 118.0 L 128.0 118.0 L 139.0 118.0 L 146.0 118.0 L 150.0 118.0 L 153.0 118.0 L 153.0 118.0 " stroke="black" fill="none" stroke-width="5.0" stroke-linecap="round" stroke-linejoin="round" />
<path d="M 80.0 130.0 L 80.0 130.0 L 79.0 129.0 L 79.0 128.0 L 78.0 128.0 L 78.0 128.0 L 78.0 129.0 L 78.0 131.0 L 78.0 134.0 L 79.0 143.0 L 79.0 150.0 L 80.0 156.0 L 80.0 163.0 L 80.0 170.0 L 80.0 178.0 L 80.0 183.0 L 79.0 197.0 L 79.0 201.0 " stroke="black" fill="none" stroke-width="5.0" stroke-linecap="round" stroke-linejoin="round" />
<path d="M 76.0 215.0 L 76.0 217.0 " stroke="black" fill="none" stroke-width="5.0" stroke-linecap="round" stroke-linejoin="round" />
<path d="M 128.0 126.0 L 128.0 126.0 L 128.0 126.0 L 127.0 125.0 L 127.0 125.0 L 127.0 125.0 L 127.0 125.0 L 127.0 125.0 L 127.0 126.0 L 128.0 128.0 L 128.0 131.0 L 129.0 136.0 L 130.0 142.0 L 131.0 149.0 L 131.0 159.0 L 131.0 169.0 L 130.0 186.0 L 129.0 197.0 L 128.0 207.0 L 127.0 217.0 L 127.0 228.0 L 127.0 234.0 L 127.0 240.0 L 127.0 244.0 L 127.0 246.0 L 128.0 246.0 L 128.0 245.0 L 128.0 242.0 " stroke="black" fill="none" stroke-width="5.0" stroke-linecap="round" stroke-linejoin="round" />
<path d="M 91.0 155.0 L 90.0 154.0 L 89.0 154.0 L 87.0 154.0 L 86.0 153.0 L 85.0 153.0 L 85.0 152.0 L 85.0 152.0 L 85.0 152.0 L 91.0 153.0 L 94.0 153.0 L 99.0 153.0 L 104.0 153.0 L 108.0 153.0 L 113.0 153.0 L 118.0 153.0 L 123.0 153.0 " stroke="black" fill="none" stroke-width="5.0" stroke-linecap="round" stroke-linejoin="round" />
<path d="M 84.0 186.0 L 82.0 186.0 L 80.0 186.0 L 78.0 185.0 L 78.0 185.0 L 78.0 185.0 L 79.0 185.0 L 82.0 185.0 L 86.0 185.0 L 91.0 184.0 L 96.0 184.0 L 101.0 183.0 L 107.0 182.0 L 111.0 182.0 L 116.0 182.0 L 121.0 181.0 " stroke="black" fill="none" stroke-width="5.0" stroke-linecap="round" stroke-linejoin="round" />
<path d="M 59.0 224.0 L 59.0 224.0 L 58.0 225.0 L 58.0 225.0 L 58.0 225.0 L 58.0 225.0 L 58.0 225.0 L 59.0 225.0 L 60.0 225.0 L 63.0 224.0 L 66.0 223.0 L 78.0 220.0 L 85.0 217.0 L 94.0 215.0 L 101.0 213.0 L 107.0 211.0 L 112.0 209.0 L 116.0 208.0 L 120.0 207.0 L 124.0 206.0 L 126.0 206.0 " stroke="black" fill="none" stroke-width="5.0" stroke-linecap="round" stroke-linejoin="round" />
<path d="M 190.0 75.0 L 190.0 75.0 L 190.0 74.0 L 190.0 73.0 L 190.0 72.0 L 190.0 72.0 L 190.0 72.0 L 190.0 72.0 L 189.0 73.0 L 189.0 75.0 L 188.0 78.0 L 187.0 83.0 L 184.0 90.0 L 181.0 98.0 L 176.0 108.0 L 170.0 119.0 L 163.0 128.0 L 157.0 137.0 L 151.0 146.0 L 149.0 152.0 L 146.0 156.0 L 145.0 159.0 L 144.0 159.0 L 144.0 159.0 L 144.0 159.0 " stroke="black" fill="none" stroke-width="5.0" stroke-linecap="round" stroke-linejoin="round" />
<path d="M 173.0 117.0 L 172.0 117.0 L 170.0 117.0 L 169.0 117.0 L 168.0 117.0 L 168.0 117.0 L 168.0 117.0 L 170.0 117.0 L 172.0 117.0 L 176.0 117.0 L 180.0 117.0 L 186.0 117.0 L 191.0 117.0 L 196.0 116.0 L 204.0 116.0 L 212.0 115.0 L 221.0 114.0 L 230.0 114.0 L 236.0 113.0 L 240.0 113.0 L 244.0 113.0 L 246.0 113.0 L 248.0 113.0 L 249.0 113.0 " stroke="black" fill="none" stroke-width="5.0" stroke-linecap="round" stroke-linejoin="round" />
<path d="M 229.0 120.0 L 228.0 120.0 L 227.0 120.0 L 226.0 120.0 L 225.0 120.0 L 225.0 121.0 L 224.0 121.0 L 224.0 123.0 L 224.0 125.0 L 223.0 127.0 L 223.0 130.0 L 223.0 134.0 L 222.0 140.0 L 220.0 147.0 L 218.0 154.0 L 214.0 162.0 L 210.0 170.0 L 205.0 178.0 L 199.0 188.0 L 195.0 196.0 L 190.0 204.0 L 184.0 211.0 L 177.0 218.0 L 168.0 225.0 L 159.0 232.0 L 153.0 237.0 L 150.0 239.0 L 148.0 241.0 L 147.0 241.0 " stroke="black" fill="none" stroke-width="5.0" stroke-linecap="round" stroke-linejoin="round" />
<path d="M 165.0 142.0 L 165.0 142.0 L 164.0 141.0 L 163.0 141.0 L 162.0 140.0 L 162.0 140.0 L 162.0 140.0 L 162.0 141.0 L 162.0 142.0 L 163.0 145.0 L 164.0 149.0 L 167.0 154.0 L 170.0 159.0 L 175.0 166.0 L 180.0 175.0 L 185.0 183.0 L 191.0 191.0 L 195.0 200.0 L 199.0 206.0 L 204.0 212.0 L 209.0 218.0 L 215.0 223.0 L 221.0 229.0 L 228.0 233.0 L 232.0 235.0 L 236.0 237.0 L 239.0 238.0 L 240.0 239.0 " stroke="black" fill="none" stroke-width="5.0" stroke-linecap="round" stroke-linejoin="round" />
</svg>