<svg xmlns="http://www.w3.org/2000/svg" width="300" height="300" viewBox="0 0 300 300">
<path d="M 74.0 89.0 L 74.0 89.0 L 74.0 89.0 L 73.0 90.0 L 73.0 90.0 L 73.0 90.0 L 73.0 90.0 L 72.0 91.0 L 72.0 91.0 L 72.0 91.0 L 72.0 91.0 L 72.0 91.0 L 72.0 91.0 L 73.0 91.0 L 73.0 91.0 L 74.0 91.0 L 75.0 91.0 L 75.0 91.0 L 76.0 91.0 L 77.0 91.0 L 78.0 91.0 L 80.0 91.0 L 81.0 91.0 L 83.0 91.0 L 85.0 91.0 L 87.0 91.0 L 89.0 91.0 L 91.0 91.0 L 93.0 91.0 L 95.0 91.0 L 96.0 91.0 L 98.0 91.0 L 99.0 91.0 L 101.0 91.0 L 102.0 91.0 L 103.0 91.0 L 104.0 91.0 L 105.0 91.0 L 106.0 91.0 L 108.0 91.0 L 109.0 91.0 L 110.0 91.0 L 111.0 91.0 L 112.0 90.0 L 113.0 90.0 L 114.0 90.0 L 115.0 89.0 L 116.0 89.0 L 117.0 89.0 L 118.0 89.0 L 119.0 89.0 L 120.0 89.0 L 121.0 89.0 L 122.0 89.0 L 123.0 89.0 L 125.0 89.0 L 126.0 89.0 L 127.0 89.0 L 128.0 89.0 L 130.0 89.0 L 131.0 89.0 L 133.0 89.0 L 134.0 89.0 L 136.0 89.0 L 137.0 89.0 L 139.0 89.0 L 141.0 89.0 L 142.0 89.0 L 143.0 89.0 L 145.0 89.0 L 146.0 89.0 L 147.0 89.0 L 149.0 89.0 L 150.0 89.0 L 151.0 89.0 L 152.0 89.0 L 153.0 89.0 L 153.0 89.0 L 154.0 89.0 L 155.0 89.0 L 156.0 89.0 L 157.0 89.0 L 158.0 89.0 L 159.0 89.0 L 160.0 89.0 L 161.0 89.0 L 161.0 89.0 L 162.0 89.0 L 163.0 89.0 L 164.0 89.0 L 166.0 89.0 L 166.0 89.0 L 167.0 89.0 L 169.0 89.0 L 169.0 89.0 L 171.0 88.0 L 172.0 88.0 L 173.0 88.0 L 174.0 88.0 L 175.0 88.0 L 176.0 88.0 L 177.0 88.0 L 178.0 88.0 L 179.0 88.0 L 180.0 88.0 L 181.0 88.0 L 182.0 88.0 L 183.0 88.0 L 184.0 88.0 L 184.0 88.0 L 185.0 88.0 L 186.0 88.0 L 187.0 88.0 L 187.0 88.0 L 188.0 88.0 L 189.0 88.0 L 189.0 88.0 L 190.0 88.0 L 191.0 88.0 L 191.0 88.0 L 192.0 88.0 L 192.0 88.0 L 193.0 88.0 L 193.0 88.0 L 194.0 88.0 L 194.0 88.0 L 195.0 88.0 L 195.0 88.0 L 195.0 88.0 L 196.0 88.0 L 196.0 88.0 L 197.0 88.0 L 197.0 88.0 L 198.0 88.0 L 198.0 88.0 L 199.0 88.0 L 199.0 88.0 L 200.0 88.0 L 200.0 88.0 L 201.0 88.0 L 201.0 88.0 L 202.0 88.0 L 202.0 88.0 L 203.0 89.0 L 203.0 89.0 L 204.0 89.0 L 204.0 89.0 L 205.0 89.0 L 206.0 89.0 L 206.0 89.0 L 207.0 89.0 L 208.0 89.0 L 209.0 89.0 L 210.0 89.0 L 211.0 89.0 L 212.0 89.0 L 214.0 89.0 L 215.0 89.0 L 216.0 89.0 L 217.0 89.0 L 219.0 89.0 L 220.0 89.0 L 221.0 89.0 L 221.0 89.0 L 222.0 89.0 L 223.0 88.0 L 223.0 88.0 L 224.0 88.0 L 224.0 88.0 L 224.0 88.0 " stroke="black" fill="none" stroke-width="5.0" stroke-linecap="round" stroke-linejoin="round" />
<path d="M 75.0 162.0 L 75.0 162.0 L 75.0 162.0 L 75.0 162.0 L 75.0 162.0 L 75.0 162.0 L 75.0 162.0 L 75.0 162.0 L 75.0 162.0 L 75.0 162.0 L 75.0 162.0 L 75.0 162.0 L 75.0 162.0 L 75.0 162.0 L 75.0 162.0 L 75.0 162.0 L 75.0 162.0 L 75.0 162.0 L 76.0 162.0 L 77.0 162.0 L 78.0 162.0 L 79.0 162.0 L 81.0 162.0 L 82.0 162.0 L 84.0 163.0 L 87.0 163.0 L 89.0 163.0 L 92.0 163.0 L 95.0 163.0 L 98.0 163.0 L 101.0 163.0 L 103.0 162.0 L 105.0 162.0 L 107.0 161.0 L 108.0 161.0 L 110.0 161.0 L 111.0 161.0 L 112.0 160.0 L 114.0 160.0 L 115.0 160.0 L 117.0 160.0 L 119.0 160.0 L 121.0 159.0 L 123.0 159.0 L 125.0 159.0 L 127.0 159.0 L 128.0 159.0 L 130.0 159.0 L 131.0 159.0 L 132.0 159.0 L 133.0 159.0 L 135.0 159.0 L 136.0 159.0 L 137.0 159.0 L 138.0 159.0 L 139.0 159.0 L 141.0 159.0 L 142.0 159.0 L 143.0 159.0 L 144.0 159.0 L 146.0 159.0 L 147.0 159.0 L 148.0 158.0 L 149.0 158.0 L 150.0 158.0 L 151.0 158.0 L 152.0 158.0 L 153.0 158.0 L 154.0 158.0 L 155.0 158.0 L 156.0 158.0 L 156.0 158.0 L 157.0 158.0 L 158.0 158.0 L 159.0 158.0 L 161.0 158.0 L 162.0 158.0 L 163.0 158.0 L 164.0 158.0 L 165.0 158.0 L 167.0 158.0 L 168.0 158.0 L 169.0 158.0 L 170.0 158.0 L 171.0 158.0 L 172.0 158.0 L 173.0 158.0 L 174.0 158.0 L 175.0 158.0 L 177.0 159.0 L 178.0 159.0 L 179.0 159.0 L 180.0 159.0 L 181.0 159.0 L 182.0 159.0 L 183.0 159.0 L 184.0 159.0 L 185.0 159.0 L 186.0 160.0 L 187.0 160.0 L 188.0 160.0 L 188.0 160.0 L 189.0 160.0 L 191.0 160.0 L 192.0 160.0 L 193.0 160.0 L 194.0 160.0 L 195.0 160.0 L 196.0 160.0 L 197.0 160.0 L 199.0 160.0 L 200.0 160.0 L 201.0 160.0 L 203.0 160.0 L 204.0 160.0 L 206.0 160.0 L 208.0 160.0 L 210.0 160.0 L 212.0 160.0 L 213.0 160.0 L 215.0 160.0 L 217.0 160.0 L 219.0 160.0 L 220.0 160.0 L 221.0 160.0 L 222.0 160.0 L 223.0 160.0 L 223.0 160.0 L 223.0 160.0 L 223.0 160.0 " stroke="black" fill="none" stroke-width="5.0" stroke-linecap="round" stroke-linejoin="round" />
<path d="M 149.0 101.0 L 149.0 101.0 L 149.0 100.0 L 149.0 99.0 L 149.0 98.0 L 149.0 98.0 L 149.0 97.0 L 149.0 97.0 L 149.0 97.0 L 149.0 97.0 L 149.0 98.0 L 149.0 99.0 L 149.0 101.0 L 149.0 103.0 L 149.0 105.0 L 149.0 107.0 L 150.0 110.0 L 150.0 112.0 L 150.0 114.0 L 150.0 116.0 L 150.0 119.0 L 151.0 121.0 L 151.0 124.0 L 151.0 126.0 L 151.0 129.0 L 151.0 132.0 L 151.0 134.0 L 152.0 137.0 L 152.0 140.0 L 152.0 143.0 L 152.0 146.0 L 152.0 148.0 L 152.0 151.0 L 152.0 154.0 L 152.0 156.0 L 152.0 158.0 L 151.0 160.0 L 151.0 162.0 L 151.0 164.0 L 151.0 166.0 L 151.0 167.0 L 150.0 169.0 L 150.0 171.0 L 150.0 173.0 L 150.0 175.0 L 150.0 177.0 L 150.0 180.0 L 150.0 182.0 L 150.0 185.0 L 149.0 187.0 L 149.0 189.0 L 149.0 191.0 L 149.0 193.0 L 149.0 195.0 L 149.0 197.0 L 149.0 199.0 L 149.0 201.0 L 149.0 203.0 L 149.0 204.0 L 149.0 206.0 L 149.0 208.0 L 149.0 209.0 L 149.0 211.0 L 149.0 212.0 L 149.0 213.0 L 149.0 214.0 L 149.0 216.0 L 149.0 217.0 L 149.0 218.0 L 148.0 220.0 L 148.0 221.0 L 148.0 223.0 L 148.0 224.0 L 148.0 226.0 L 148.0 227.0 L 148.0 229.0 L 148.0 230.0 L 148.0 231.0 L 148.0 231.0 L 148.0 232.0 L 148.0 232.0 L 148.0 232.0 L 148.0 232.0 L 148.0 232.0 L 148.0 233.0 L 148.0 233.0 L 148.0 233.0 L 149.0 233.0 L 149.0 233.0 L 149.0 233.0 L 149.0 233.0 L 149.0 232.0 L 150.0 232.0 L 150.0 231.0 L 150.0 230.0 L 150.0 229.0 L 150.0 229.0 " stroke="black" fill="none" stroke-width="5.0" stroke-linecap="round" stroke-linejoin="round" />
<path d="M 64.0 240.0 L 64.0 240.0 L 64.0 240.0 L 64.0 240.0 L 63.0 240.0 L 63.0 240.0 L 63.0 240.0 L 63.0 240.0 L 62.0 240.0 L 62.0 240.0 L 62.0 239.0 L 62.0 239.0 L 62.0 239.0 L 63.0 238.0 L 64.0 238.0 L 64.0 238.0 L 65.0 238.0 L 66.0 238.0 L 67.0 238.0 L 69.0 238.0 L 70.0 238.0 L 72.0 239.0 L 74.0 239.0 L 76.0 240.0 L 78.0 240.0 L 80.0 241.0 L 82.0 241.0 L 85.0 242.0 L 87.0 242.0 L 89.0 242.0 L 91.0 243.0 L 93.0 243.0 L 95.0 243.0 L 96.0 243.0 L 98.0 243.0 L 100.0 243.0 L 102.0 243.0 L 104.0 243.0 L 105.0 243.0 L 107.0 243.0 L 108.0 243.0 L 110.0 243.0 L 111.0 243.0 L 112.0 243.0 L 114.0 243.0 L 115.0 243.0 L 117.0 243.0 L 119.0 243.0 L 121.0 243.0 L 124.0 243.0 L 127.0 243.0 L 129.0 242.0 L 132.0 242.0 L 135.0 242.0 L 138.0 242.0 L 140.0 241.0 L 142.0 241.0 L 144.0 241.0 L 146.0 241.0 L 147.0 241.0 L 149.0 241.0 L 150.0 241.0 L 151.0 240.0 L 152.0 240.0 L 153.0 240.0 L 154.0 240.0 L 155.0 240.0 L 155.0 240.0 L 156.0 240.0 L 157.0 240.0 L 158.0 240.0 L 159.0 240.0 L 160.0 240.0 L 162.0 240.0 L 163.0 240.0 L 164.0 240.0 L 166.0 240.0 L 167.0 240.0 L 169.0 240.0 L 170.0 240.0 L 171.0 240.0 L 173.0 240.0 L 174.0 240.0 L 176.0 240.0 L 177.0 240.0 L 179.0 240.0 L 181.0 240.0 L 182.0 240.0 L 184.0 240.0 L 186.0 240.0 L 187.0 240.0 L 189.0 240.0 L 190.0 240.0 L 192.0 240.0 L 193.0 240.0 L 195.0 241.0 L 196.0 241.0 L 197.0 241.0 L 198.0 241.0 L 200.0 241.0 L 201.0 242.0 L 202.0 242.0 L 203.0 242.0 L 204.0 242.0 L 205.0 242.0 L 206.0 242.0 L 207.0 242.0 L 208.0 242.0 L 209.0 242.0 L 210.0 242.0 L 212.0 242.0 L 213.0 242.0 L 214.0 242.0 L 215.0 242.0 L 216.0 242.0 L 217.0 242.0 L 218.0 242.0 L 219.0 242.0 L 220.0 242.0 L 221.0 242.0 L 222.0 242.0 L 223.0 242.0 L 225.0 242.0 L 225.0 242.0 L 227.0 242.0 L 228.0 242.0 L 229.0 242.0 L 230.0 242.0 L 231.0 242.0 L 231.0 242.0 L 232.0 241.0 L 233.0 241.0 L 234.0 241.0 L 234.0 241.0 L 235.0 241.0 L 236.0 241.0 L 236.0 241.0 L 237.0 241.0 L 237.0 241.0 L 238.0 241.0 L 238.0 241.0 L 239.0 241.0 L 239.0 241.0 L 239.0 241.0 L 240.0 241.0 L 240.0 241.0 L 240.0 241.0 L 240.0 241.0 L 240.0 241.0 " stroke="black" fill="none" stroke-width="5.0" stroke-linecap="round" stroke-linejoin="round" />
</svg>