<svg xmlns="http://www.w3.org/2000/svg" width="300" height="300" viewBox="0 0 300 300">
<path d="M 91.0 95.0 L 91.0 95.0 L 91.0 95.0 L 90.0 95.0 L 90.0 95.0 L 90.0 95.0 L 90.0 94.0 L 91.0 94.0 L 94.0 94.0 L 97.0 93.0 L 101.0 92.0 L 106.0 92.0 L 113.0 91.0 L 122.0 91.0 L 133.0 90.0 L 144.0 90.0 L 153.0 89.0 L 161.0 88.0 L 169.0 87.0 L 178.0 86.0 L 185.0 85.0 L 191.0 84.0 L 195.0 83.0 L 197.0 82.0 L 198.0 82.0 L 200.0 82.0 L 200.0 83.0 " stroke="black" fill="none" stroke-width="5.0" stroke-linecap="round" stroke-linejoin="round" />
<path d="M 95.0 165.0 L 94.0 165.0 L 93.0 165.0 L 92.0 165.0 L 91.0 164.0 L 91.0 164.0 L 91.0 164.0 L 92.0 163.0 L 94.0 163.0 L 97.0 162.0 L 101.0 162.0 L 105.0 161.0 L 110.0 161.0 L 116.0 161.0 L 124.0 161.0 L 133.0 161.0 L 142.0 161.0 L 151.0 161.0 L 159.0 161.0 L 167.0 161.0 L 176.0 161.0 L 185.0 160.0 L 193.0 160.0 L 198.0 159.0 L 203.0 158.0 L 207.0 157.0 L 210.0 157.0 L 213.0 157.0 L 215.0 157.0 " stroke="black" fill="none" stroke-width="5.0" stroke-linecap="round" stroke-linejoin="round" />
<path d="M 154.0 97.0 L 154.0 97.0 L 153.0 97.0 L 152.0 97.0 L 152.0 98.0 L 151.0 98.0 L 151.0 99.0 L 151.0 101.0 L 151.0 103.0 L 151.0 105.0 L 151.0 109.0 L 151.0 113.0 L 151.0 118.0 L 151.0 123.0 L 152.0 128.0 L 152.0 134.0 L 152.0 140.0 L 152.0 147.0 L 152.0 153.0 L 151.0 159.0 L 151.0 164.0 L 151.0 168.0 L 150.0 173.0 L 150.0 177.0 L 150.0 181.0 L 150.0 185.0 L 150.0 189.0 L 150.0 193.0 L 150.0 196.0 L 149.0 200.0 L 149.0 203.0 L 149.0 206.0 L 148.0 210.0 L 148.0 213.0 L 147.0 216.0 L 147.0 219.0 L 146.0 221.0 L 146.0 223.0 L 146.0 224.0 L 146.0 224.0 " stroke="black" fill="none" stroke-width="5.0" stroke-linecap="round" stroke-linejoin="round" />
<path d="M 66.0 238.0 L 66.0 238.0 L 65.0 238.0 L 65.0 238.0 L 65.0 237.0 L 65.0 237.0 L 65.0 237.0 L 64.0 237.0 L 64.0 237.0 L 64.0 237.0 L 65.0 237.0 L 67.0 237.0 L 69.0 237.0 L 71.0 237.0 L 74.0 236.0 L 78.0 236.0 L 81.0 236.0 L 85.0 235.0 L 89.0 235.0 L 93.0 234.0 L 96.0 234.0 L 100.0 234.0 L 103.0 234.0 L 106.0 234.0 L 108.0 234.0 L 111.0 233.0 L 114.0 233.0 L 117.0 233.0 L 121.0 232.0 L 125.0 232.0 L 130.0 232.0 L 135.0 232.0 L 139.0 232.0 L 142.0 232.0 L 146.0 231.0 L 149.0 231.0 L 151.0 231.0 L 153.0 231.0 L 155.0 231.0 L 157.0 231.0 L 159.0 231.0 L 161.0 231.0 L 163.0 232.0 L 166.0 232.0 L 169.0 233.0 L 172.0 233.0 L 176.0 234.0 L 179.0 234.0 L 183.0 234.0 L 187.0 234.0 L 190.0 234.0 L 193.0 234.0 L 196.0 234.0 L 199.0 234.0 L 202.0 234.0 L 206.0 234.0 L 210.0 234.0 L 214.0 234.0 L 219.0 234.0 L 223.0 234.0 L 228.0 234.0 L 232.0 234.0 L 236.0 234.0 L 239.0 234.0 L 242.0 234.0 L 244.0 234.0 L 246.0 234.0 L 247.0 234.0 L 249.0 234.0 L 249.0 234.0 L 250.0 234.0 L 250.0 235.0 " stroke="black" fill="none" stroke-width="5.0" stroke-linecap="round" stroke-linejoin="round" />
</svg>