<svg xmlns="http://www.w3.org/2000/svg" width="300" height="300" viewBox="0 0 300 300">
<path d="M 73.0 86.0 L 73.0 86.0 L 73.0 86.0 L 73.0 86.0 L 73.0 86.0 L 73.0 86.0 L 73.0 86.0 L 73.0 86.0 L 73.0 87.0 L 73.0 87.0 L 73.0 87.0 L 73.0 87.0 L 73.0 87.0 L 73.0 87.0 L 73.0 87.0 L 73.0 87.0 L 73.0 87.0 L 74.0 87.0 L 74.0 87.0 L 75.0 87.0 L 76.0 87.0 L 78.0 87.0 L 79.0 87.0 L 80.0 87.0 L 82.0 87.0 L 83.0 87.0 L 85.0 87.0 L 86.0 87.0 L 88.0 87.0 L 89.0 87.0 L 91.0 87.0 L 92.0 87.0 L 93.0 86.0 L 94.0 86.0 L 96.0 86.0 L 97.0 86.0 L 98.0 86.0 L 99.0 86.0 L 100.0 86.0 L 101.0 86.0 L 102.0 86.0 L 103.0 86.0 L 104.0 86.0 L 105.0 86.0 L 105.0 86.0 L 106.0 86.0 L 107.0 86.0 L 107.0 86.0 L 108.0 86.0 L 108.0 86.0 L 109.0 86.0 L 110.0 86.0 L 110.0 86.0 L 111.0 86.0 L 112.0 86.0 L 113.0 86.0 L 114.0 86.0 L 115.0 86.0 L 116.0 85.0 L 117.0 85.0 L 118.0 85.0 L 119.0 85.0 L 120.0 85.0 L 121.0 85.0 L 122.0 85.0 L 123.0 85.0 L 125.0 85.0 L 126.0 84.0 L 127.0 84.0 L 128.0 84.0 L 129.0 84.0 L 130.0 84.0 L 131.0 84.0 L 132.0 84.0 L 133.0 84.0 L 133.0 84.0 L 134.0 84.0 L 135.0 84.0 L 136.0 84.0 L 136.0 84.0 L 137.0 84.0 L 137.0 84.0 L 138.0 84.0 L 138.0 84.0 L 139.0 84.0 L 139.0 84.0 L 139.0 84.0 L 140.0 84.0 L 140.0 84.0 L 141.0 84.0 L 141.0 84.0 L 142.0 84.0 L 143.0 84.0 L 143.0 84.0 L 144.0 84.0 L 144.0 84.0 L 145.0 84.0 L 146.0 84.0 L 146.0 84.0 L 147.0 84.0 L 148.0 84.0 L 148.0 84.0 L 149.0 85.0 L 149.0 85.0 L 150.0 85.0 L 150.0 85.0 L 151.0 85.0 L 151.0 85.0 L 152.0 85.0 L 152.0 85.0 L 152.0 85.0 L 153.0 85.0 L 154.0 85.0 L 154.0 85.0 L 155.0 85.0 L 155.0 85.0 L 156.0 85.0 L 157.0 85.0 L 157.0 85.0 L 158.0 85.0 L 158.0 85.0 L 159.0 85.0 L 159.0 85.0 L 160.0 85.0 L 161.0 85.0 L 161.0 85.0 L 162.0 85.0 L 163.0 85.0 L 163.0 85.0 L 164.0 85.0 L 165.0 85.0 L 165.0 85.0 L 166.0 86.0 L 167.0 86.0 L 167.0 86.0 L 168.0 86.0 L 169.0 86.0 L 169.0 86.0 L 170.0 86.0 L 171.0 86.0 L 172.0 86.0 L 173.0 86.0 L 173.0 86.0 L 174.0 86.0 L 175.0 87.0 L 176.0 87.0 L 177.0 87.0 L 177.0 87.0 L 178.0 87.0 L 179.0 87.0 L 180.0 87.0 L 180.0 87.0 L 181.0 87.0 L 182.0 87.0 L 182.0 87.0 L 183.0 87.0 L 183.0 87.0 L 184.0 88.0 L 184.0 88.0 L 185.0 88.0 L 185.0 88.0 L 186.0 88.0 L 186.0 88.0 L 187.0 88.0 L 187.0 88.0 L 187.0 88.0 L 188.0 88.0 L 188.0 88.0 L 188.0 88.0 L 189.0 88.0 L 189.0 88.0 L 190.0 88.0 L 190.0 88.0 L 190.0 88.0 L 191.0 88.0 L 191.0 88.0 L 192.0 88.0 L 192.0 88.0 L 193.0 88.0 L 193.0 88.0 L 193.0 88.0 L 194.0 88.0 L 194.0 88.0 L 195.0 88.0 L 196.0 88.0 L 196.0 88.0 L 197.0 88.0 L 197.0 88.0 L 198.0 88.0 L 199.0 88.0 L 199.0 88.0 L 200.0 88.0 L 201.0 88.0 L 201.0 88.0 L 202.0 88.0 L 202.0 88.0 L 203.0 88.0 L 204.0 88.0 L 204.0 88.0 L 205.0 88.0 L 205.0 88.0 L 206.0 88.0 L 207.0 88.0 L 207.0 88.0 L 208.0 88.0 L 208.0 88.0 L 209.0 88.0 L 209.0 88.0 L 210.0 88.0 L 211.0 88.0 L 211.0 88.0 L 212.0 88.0 L 213.0 88.0 L 214.0 88.0 L 214.0 88.0 L 215.0 88.0 L 216.0 88.0 L 217.0 88.0 L 217.0 88.0 L 218.0 88.0 L 219.0 88.0 L 219.0 88.0 L 220.0 88.0 L 221.0 88.0 L 222.0 88.0 L 222.0 88.0 L 223.0 88.0 L 223.0 88.0 L 224.0 88.0 L 225.0 88.0 L 225.0 88.0 L 225.0 88.0 L 226.0 88.0 L 226.0 88.0 L 226.0 88.0 L 226.0 88.0 L 226.0 88.0 L 226.0 88.0 " stroke="black" fill="none" stroke-width="5.0" stroke-linecap="round" stroke-linejoin="round" />
<path d="M 82.0 166.0 L 82.0 166.0 L 82.0 166.0 L 82.0 166.0 L 82.0 166.0 L 82.0 166.0 L 82.0 167.0 L 82.0 167.0 L 82.0 168.0 L 82.0 168.0 L 82.0 168.0 L 83.0 168.0 L 84.0 168.0 L 85.0 168.0 L 85.0 168.0 L 87.0 168.0 L 88.0 168.0 L 89.0 168.0 L 91.0 168.0 L 92.0 168.0 L 94.0 168.0 L 96.0 168.0 L 98.0 168.0 L 100.0 168.0 L 101.0 168.0 L 103.0 168.0 L 104.0 167.0 L 105.0 167.0 L 107.0 167.0 L 108.0 167.0 L 109.0 167.0 L 110.0 167.0 L 111.0 167.0 L 111.0 167.0 L 112.0 167.0 L 113.0 166.0 L 114.0 166.0 L 115.0 166.0 L 116.0 166.0 L 116.0 166.0 L 117.0 165.0 L 118.0 165.0 L 118.0 165.0 L 119.0 165.0 L 120.0 165.0 L 120.0 165.0 L 121.0 165.0 L 122.0 165.0 L 123.0 165.0 L 124.0 165.0 L 125.0 165.0 L 126.0 165.0 L 127.0 165.0 L 128.0 165.0 L 128.0 165.0 L 129.0 165.0 L 130.0 165.0 L 131.0 165.0 L 132.0 165.0 L 133.0 165.0 L 134.0 164.0 L 135.0 164.0 L 136.0 164.0 L 137.0 164.0 L 138.0 164.0 L 139.0 164.0 L 140.0 164.0 L 141.0 164.0 L 142.0 164.0 L 143.0 164.0 L 145.0 164.0 L 146.0 164.0 L 147.0 164.0 L 149.0 164.0 L 150.0 164.0 L 151.0 164.0 L 152.0 163.0 L 153.0 163.0 L 154.0 163.0 L 155.0 163.0 L 156.0 163.0 L 157.0 163.0 L 158.0 163.0 L 159.0 163.0 L 160.0 162.0 L 161.0 162.0 L 162.0 162.0 L 163.0 162.0 L 164.0 162.0 L 165.0 161.0 L 166.0 161.0 L 168.0 161.0 L 169.0 161.0 L 169.0 161.0 L 171.0 160.0 L 172.0 160.0 L 173.0 160.0 L 174.0 160.0 L 175.0 160.0 L 176.0 160.0 L 177.0 160.0 L 178.0 160.0 L 179.0 160.0 L 180.0 160.0 L 181.0 160.0 L 182.0 160.0 L 182.0 160.0 L 183.0 160.0 L 184.0 160.0 L 185.0 160.0 L 185.0 160.0 L 186.0 160.0 L 187.0 160.0 L 187.0 160.0 L 188.0 160.0 L 189.0 160.0 L 189.0 160.0 L 190.0 160.0 L 191.0 160.0 L 191.0 160.0 L 192.0 160.0 L 192.0 160.0 L 193.0 160.0 L 193.0 160.0 L 194.0 160.0 L 194.0 160.0 L 195.0 160.0 L 195.0 160.0 L 196.0 160.0 L 196.0 160.0 L 197.0 160.0 L 198.0 160.0 L 198.0 160.0 L 199.0 160.0 L 199.0 160.0 L 200.0 160.0 L 200.0 160.0 L 201.0 160.0 L 202.0 160.0 L 202.0 160.0 L 203.0 160.0 L 203.0 160.0 L 204.0 160.0 L 205.0 160.0 L 205.0 160.0 L 206.0 160.0 L 207.0 160.0 L 208.0 160.0 L 209.0 160.0 L 209.0 160.0 L 210.0 160.0 L 211.0 160.0 L 212.0 160.0 L 212.0 160.0 L 213.0 160.0 L 214.0 160.0 L 215.0 160.0 L 215.0 160.0 L 216.0 160.0 L 216.0 160.0 L 216.0 160.0 L 217.0 160.0 " stroke="black" fill="none" stroke-width="5.0" stroke-linecap="round" stroke-linejoin="round" />
<path d="M 148.0 92.0 L 148.0 92.0 L 148.0 92.0 L 148.0 92.0 L 148.0 92.0 L 148.0 92.0 L 148.0 93.0 L 148.0 93.0 L 148.0 94.0 L 148.0 95.0 L 148.0 96.0 L 148.0 98.0 L 148.0 101.0 L 148.0 104.0 L 148.0 107.0 L 148.0 110.0 L 148.0 113.0 L 148.0 116.0 L 148.0 119.0 L 148.0 122.0 L 148.0 125.0 L 148.0 127.0 L 148.0 129.0 L 148.0 132.0 L 148.0 135.0 L 148.0 137.0 L 148.0 140.0 L 148.0 142.0 L 148.0 144.0 L 148.0 147.0 L 148.0 149.0 L 148.0 150.0 L 148.0 152.0 L 148.0 154.0 L 148.0 155.0 L 148.0 156.0 L 148.0 158.0 L 148.0 159.0 L 148.0 161.0 L 148.0 162.0 L 148.0 164.0 L 148.0 165.0 L 148.0 167.0 L 148.0 168.0 L 148.0 170.0 L 148.0 171.0 L 148.0 173.0 L 148.0 174.0 L 147.0 175.0 L 147.0 177.0 L 147.0 179.0 L 147.0 180.0 L 147.0 182.0 L 147.0 184.0 L 147.0 186.0 L 147.0 188.0 L 147.0 189.0 L 147.0 191.0 L 147.0 192.0 L 147.0 194.0 L 147.0 195.0 L 147.0 196.0 L 146.0 198.0 L 146.0 199.0 L 146.0 201.0 L 146.0 202.0 L 146.0 204.0 L 146.0 205.0 L 146.0 207.0 L 146.0 209.0 L 146.0 210.0 L 145.0 211.0 L 145.0 213.0 L 145.0 214.0 L 145.0 215.0 L 145.0 216.0 L 145.0 217.0 L 145.0 219.0 L 145.0 220.0 L 144.0 221.0 L 144.0 222.0 L 144.0 223.0 L 144.0 225.0 L 144.0 226.0 L 144.0 227.0 L 144.0 228.0 L 144.0 229.0 L 144.0 230.0 L 144.0 231.0 L 144.0 232.0 L 144.0 233.0 L 144.0 233.0 L 144.0 234.0 L 144.0 235.0 L 144.0 235.0 L 144.0 236.0 L 144.0 236.0 L 144.0 237.0 L 144.0 237.0 L 144.0 238.0 L 144.0 238.0 L 144.0 239.0 L 144.0 239.0 L 144.0 240.0 L 144.0 240.0 L 144.0 240.0 L 144.0 241.0 L 144.0 241.0 L 144.0 241.0 L 144.0 241.0 L 144.0 241.0 L 144.0 241.0 L 144.0 241.0 L 144.0 241.0 " stroke="black" fill="none" stroke-width="5.0" stroke-linecap="round" stroke-linejoin="round" />
<path d="M 59.0 244.0 L 59.0 244.0 L 59.0 244.0 L 59.0 245.0 L 59.0 245.0 L 58.0 245.0 L 58.0 246.0 L 58.0 246.0 L 58.0 246.0 L 58.0 246.0 L 59.0 246.0 L 59.0 246.0 L 60.0 246.0 L 60.0 246.0 L 61.0 246.0 L 62.0 246.0 L 62.0 246.0 L 63.0 246.0 L 64.0 246.0 L 64.0 246.0 L 66.0 246.0 L 67.0 245.0 L 68.0 245.0 L 69.0 245.0 L 71.0 244.0 L 72.0 244.0 L 74.0 244.0 L 75.0 244.0 L 77.0 244.0 L 78.0 244.0 L 79.0 244.0 L 80.0 244.0 L 82.0 244.0 L 83.0 244.0 L 85.0 244.0 L 86.0 244.0 L 87.0 244.0 L 89.0 244.0 L 90.0 244.0 L 91.0 244.0 L 92.0 244.0 L 93.0 244.0 L 94.0 244.0 L 95.0 244.0 L 96.0 244.0 L 97.0 244.0 L 98.0 244.0 L 99.0 244.0 L 100.0 244.0 L 102.0 244.0 L 103.0 244.0 L 104.0 244.0 L 105.0 244.0 L 106.0 244.0 L 107.0 244.0 L 108.0 244.0 L 109.0 244.0 L 110.0 244.0 L 111.0 244.0 L 112.0 244.0 L 113.0 243.0 L 114.0 243.0 L 116.0 243.0 L 117.0 243.0 L 118.0 243.0 L 119.0 243.0 L 120.0 243.0 L 122.0 243.0 L 123.0 243.0 L 124.0 243.0 L 126.0 243.0 L 127.0 243.0 L 129.0 243.0 L 131.0 243.0 L 132.0 243.0 L 134.0 243.0 L 135.0 243.0 L 137.0 243.0 L 138.0 243.0 L 139.0 243.0 L 140.0 243.0 L 141.0 243.0 L 142.0 243.0 L 142.0 243.0 L 143.0 243.0 L 144.0 244.0 L 145.0 244.0 L 145.0 244.0 L 146.0 244.0 L 146.0 244.0 L 147.0 244.0 L 147.0 244.0 L 148.0 244.0 L 148.0 244.0 L 149.0 244.0 L 149.0 244.0 L 150.0 244.0 L 151.0 244.0 L 151.0 244.0 L 152.0 244.0 L 152.0 244.0 L 153.0 244.0 L 153.0 244.0 L 153.0 244.0 L 154.0 244.0 L 155.0 245.0 L 155.0 245.0 L 156.0 245.0 L 156.0 245.0 L 157.0 245.0 L 157.0 245.0 L 158.0 245.0 L 159.0 245.0 L 160.0 245.0 L 160.0 245.0 L 161.0 245.0 L 162.0 245.0 L 163.0 245.0 L 164.0 245.0 L 166.0 245.0 L 167.0 245.0 L 168.0 245.0 L 169.0 245.0 L 170.0 245.0 L 172.0 245.0 L 173.0 245.0 L 174.0 245.0 L 175.0 245.0 L 177.0 245.0 L 178.0 245.0 L 179.0 245.0 L 180.0 245.0 L 181.0 246.0 L 182.0 246.0 L 183.0 246.0 L 184.0 246.0 L 185.0 246.0 L 186.0 246.0 L 187.0 246.0 L 188.0 247.0 L 189.0 247.0 L 189.0 247.0 L 190.0 247.0 L 191.0 247.0 L 192.0 247.0 L 193.0 247.0 L 193.0 247.0 L 194.0 247.0 L 194.0 247.0 L 195.0 247.0 L 195.0 247.0 L 196.0 247.0 L 196.0 247.0 L 197.0 247.0 L 198.0 247.0 L 198.0 247.0 L 199.0 247.0 L 199.0 247.0 L 200.0 247.0 L 200.0 247.0 L 201.0 247.0 L 202.0 247.0 L 202.0 247.0 L 203.0 247.0 L 204.0 247.0 L 204.0 247.0 L 205.0 247.0 L 205.0 247.0 L 206.0 247.0 L 207.0 247.0 L 207.0 247.0 L 208.0 247.0 L 209.0 247.0 L 209.0 247.0 L 210.0 247.0 L 211.0 247.0 L 211.0 247.0 L 212.0 247.0 L 213.0 247.0 L 213.0 247.0 L 214.0 247.0 L 215.0 247.0 L 216.0 247.0 L 216.0 247.0 L 217.0 247.0 L 218.0 247.0 L 219.0 247.0 L 220.0 247.0 L 220.0 247.0 L 221.0 247.0 L 222.0 247.0 L 223.0 247.0 L 223.0 247.0 L 224.0 247.0 L 225.0 247.0 L 225.0 247.0 L 226.0 247.0 L 227.0 247.0 L 227.0 247.0 L 228.0 247.0 L 228.0 247.0 L 229.0 247.0 L 229.0 247.0 L 230.0 247.0 L 230.0 247.0 L 231.0 247.0 L 231.0 247.0 L 232.0 247.0 L 232.0 247.0 L 232.0 246.0 L 233.0 246.0 L 233.0 246.0 L 234.0 246.0 L 234.0 246.0 L 234.0 246.0 L 235.0 246.0 L 235.0 246.0 L 235.0 246.0 L 236.0 246.0 L 236.0 246.0 L 236.0 245.0 L 237.0 245.0 L 237.0 245.0 L 237.0 245.0 L 237.0 245.0 L 237.0 244.0 L 237.0 244.0 L 237.0 244.0 " stroke="black" fill="none" stroke-width="5.0" stroke-linecap="round" stroke-linejoin="round" />
</svg>