<svg xmlns="http://www.w3.org/2000/svg" width="300" height="300" viewBox="0 0 300 300">
<path d="M 73.0 88.0 L 73.0 88.0 L 73.0 88.0 L 72.0 88.0 L 72.0 88.0 L 71.0 88.0 L 71.0 88.0 L 71.0 88.0 L 70.0 88.0 L 70.0 88.0 L 70.0 88.0 L 70.0 88.0 L 70.0 88.0 L 70.0 88.0 L 70.0 88.0 L 71.0 88.0 L 71.0 88.0 L 72.0 88.0 L 72.0 88.0 L 73.0 88.0 L 73.0 88.0 L 74.0 88.0 L 75.0 88.0 L 75.0 88.0 L 76.0 88.0 L 77.0 88.0 L 77.0 88.0 L 78.0 88.0 L 79.0 88.0 L 80.0 88.0 L 80.0 88.0 L 81.0 88.0 L 82.0 88.0 L 82.0 88.0 L 83.0 88.0 L 84.0 88.0 L 84.0 88.0 L 85.0 88.0 L 86.0 88.0 L 86.0 88.0 L 87.0 88.0 L 88.0 88.0 L 89.0 88.0 L 89.0 88.0 L 90.0 88.0 L 91.0 88.0 L 91.0 88.0 L 92.0 88.0 L 92.0 88.0 L 93.0 88.0 L 93.0 88.0 L 94.0 88.0 L 94.0 88.0 L 95.0 88.0 L 96.0 88.0 L 96.0 88.0 L 97.0 88.0 L 98.0 88.0 L 98.0 89.0 L 99.0 89.0 L 99.0 89.0 L 100.0 89.0 L 100.0 89.0 L 101.0 89.0 L 102.0 89.0 L 102.0 89.0 L 103.0 89.0 L 103.0 89.0 L 104.0 89.0 L 104.0 89.0 L 105.0 89.0 L 105.0 89.0 L 106.0 89.0 L 106.0 89.0 L 107.0 89.0 L 107.0 89.0 L 108.0 89.0 L 108.0 89.0 L 109.0 89.0 L 110.0 89.0 L 110.0 89.0 L 111.0 89.0 L 111.0 89.0 L 112.0 89.0 L 113.0 89.0 L 113.0 89.0 L 114.0 89.0 L 114.0 89.0 L 115.0 89.0 L 116.0 89.0 L 117.0 89.0 L 117.0 89.0 L 118.0 89.0 L 119.0 89.0 L 120.0 89.0 L 121.0 89.0 L 121.0 89.0 L 122.0 89.0 L 123.0 89.0 L 124.0 89.0 L 124.0 89.0 L 125.0 89.0 L 126.0 89.0 L 127.0 89.0 L 128.0 89.0 L 129.0 89.0 L 130.0 89.0 L 131.0 89.0 L 132.0 89.0 L 133.0 89.0 L 134.0 89.0 L 135.0 89.0 L 136.0 89.0 L 137.0 89.0 L 138.0 89.0 L 139.0 89.0 L 139.0 89.0 L 140.0 89.0 L 141.0 89.0 L 142.0 89.0 L 143.0 89.0 L 143.0 89.0 L 144.0 89.0 L 144.0 89.0 L 145.0 89.0 L 146.0 89.0 L 146.0 89.0 L 147.0 89.0 L 147.0 89.0 L 148.0 89.0 L 148.0 89.0 L 149.0 89.0 L 149.0 89.0 L 150.0 89.0 L 150.0 89.0 L 150.0 89.0 L 151.0 89.0 L 151.0 89.0 L 152.0 89.0 L 152.0 89.0 L 152.0 89.0 L 153.0 89.0 L 153.0 89.0 L 154.0 89.0 L 154.0 89.0 L 154.0 89.0 L 155.0 89.0 L 155.0 89.0 L 156.0 89.0 L 156.0 89.0 L 157.0 89.0 L 157.0 89.0 L 158.0 89.0 L 158.0 89.0 L 159.0 89.0 L 159.0 89.0 L 160.0 89.0 L 161.0 89.0 L 161.0 89.0 L 162.0 89.0 L 163.0 89.0 L 164.0 89.0 L 164.0 89.0 L 165.0 89.0 L 166.0 89.0 L 167.0 89.0 L 168.0 89.0 L 168.0 89.0 L 169.0 89.0 L 170.0 89.0 L 171.0 89.0 L 172.0 89.0 L 173.0 89.0 L 173.0 89.0 L 174.0 89.0 L 175.0 89.0 L 176.0 89.0 L 177.0 89.0 L 178.0 89.0 L 178.0 89.0 L 179.0 89.0 L 180.0 89.0 L 181.0 89.0 L 181.0 89.0 L 182.0 89.0 L 183.0 89.0 L 183.0 89.0 L 184.0 89.0 L 185.0 89.0 L 185.0 89.0 L 186.0 89.0 L 186.0 89.0 L 187.0 89.0 L 187.0 89.0 L 188.0 89.0 L 188.0 89.0 L 189.0 89.0 L 189.0 89.0 L 190.0 89.0 L 190.0 89.0 L 191.0 89.0 L 191.0 89.0 L 191.0 89.0 L 192.0 89.0 L 192.0 89.0 L 192.0 89.0 L 193.0 89.0 L 193.0 89.0 L 193.0 89.0 L 194.0 89.0 L 194.0 89.0 L 194.0 89.0 L 195.0 89.0 L 195.0 89.0 L 196.0 89.0 L 196.0 89.0 L 197.0 89.0 L 197.0 89.0 L 198.0 89.0 L 198.0 89.0 L 199.0 89.0 L 199.0 89.0 L 200.0 89.0 L 200.0 89.0 L 201.0 89.0 L 201.0 89.0 L 202.0 89.0 L 202.0 89.0 L 202.0 89.0 L 203.0 89.0 L 203.0 89.0 L 204.0 89.0 L 204.0 89.0 L 205.0 89.0 L 205.0 89.0 L 205.0 89.0 L 206.0 89.0 L 207.0 89.0 L 207.0 89.0 L 207.0 89.0 L 208.0 89.0 L 209.0 89.0 L 209.0 89.0 L 210.0 89.0 L 210.0 89.0 L 211.0 89.0 L 212.0 89.0 L 212.0 89.0 L 213.0 89.0 L 214.0 89.0 L 215.0 89.0 L 216.0 89.0 L 217.0 89.0 L 217.0 89.0 L 218.0 89.0 L 218.0 89.0 " stroke="black" fill="none" stroke-width="5.0" stroke-linecap="round" stroke-linejoin="round" />
<path d="M 78.0 161.0 L 78.0 161.0 L 78.0 161.0 L 78.0 161.0 L 78.0 161.0 L 78.0 161.0 L 78.0 161.0 L 78.0 161.0 L 78.0 161.0 L 78.0 161.0 L 78.0 162.0 L 78.0 162.0 L 78.0 162.0 L 78.0 162.0 L 78.0 162.0 L 79.0 162.0 L 80.0 162.0 L 81.0 162.0 L 81.0 162.0 L 82.0 162.0 L 83.0 162.0 L 84.0 162.0 L 84.0 162.0 L 85.0 162.0 L 86.0 162.0 L 87.0 162.0 L 88.0 162.0 L 89.0 162.0 L 90.0 162.0 L 91.0 162.0 L 92.0 162.0 L 93.0 162.0 L 94.0 162.0 L 94.0 163.0 L 95.0 163.0 L 96.0 163.0 L 97.0 163.0 L 98.0 163.0 L 100.0 163.0 L 101.0 163.0 L 102.0 163.0 L 103.0 163.0 L 104.0 164.0 L 105.0 164.0 L 106.0 164.0 L 107.0 164.0 L 108.0 164.0 L 108.0 164.0 L 109.0 164.0 L 110.0 164.0 L 111.0 164.0 L 111.0 164.0 L 112.0 164.0 L 113.0 164.0 L 113.0 164.0 L 114.0 164.0 L 115.0 164.0 L 116.0 164.0 L 117.0 164.0 L 118.0 164.0 L 118.0 164.0 L 119.0 164.0 L 120.0 164.0 L 121.0 164.0 L 122.0 164.0 L 123.0 164.0 L 124.0 164.0 L 125.0 164.0 L 126.0 164.0 L 127.0 164.0 L 128.0 164.0 L 128.0 164.0 L 130.0 164.0 L 131.0 164.0 L 132.0 164.0 L 133.0 164.0 L 134.0 164.0 L 135.0 164.0 L 136.0 164.0 L 137.0 164.0 L 138.0 164.0 L 138.0 164.0 L 139.0 164.0 L 140.0 164.0 L 141.0 164.0 L 142.0 164.0 L 143.0 163.0 L 144.0 163.0 L 144.0 163.0 L 145.0 163.0 L 146.0 163.0 L 147.0 163.0 L 147.0 163.0 L 148.0 163.0 L 149.0 163.0 L 150.0 163.0 L 150.0 163.0 L 151.0 163.0 L 152.0 163.0 L 152.0 164.0 L 153.0 164.0 L 154.0 164.0 L 154.0 164.0 L 155.0 164.0 L 156.0 164.0 L 156.0 164.0 L 157.0 165.0 L 158.0 165.0 L 158.0 165.0 L 159.0 165.0 L 160.0 165.0 L 161.0 166.0 L 162.0 166.0 L 163.0 166.0 L 164.0 166.0 L 166.0 166.0 L 167.0 166.0 L 168.0 166.0 L 169.0 166.0 L 171.0 166.0 L 172.0 166.0 L 174.0 166.0 L 175.0 166.0 L 177.0 166.0 L 178.0 166.0 L 180.0 166.0 L 181.0 166.0 L 182.0 166.0 L 184.0 166.0 L 185.0 166.0 L 186.0 166.0 L 188.0 166.0 L 189.0 166.0 L 190.0 166.0 L 191.0 166.0 L 192.0 166.0 L 193.0 166.0 L 194.0 166.0 L 195.0 166.0 L 195.0 166.0 L 196.0 166.0 L 196.0 166.0 L 197.0 166.0 L 198.0 166.0 L 198.0 166.0 L 199.0 166.0 L 199.0 166.0 L 200.0 166.0 L 201.0 166.0 L 202.0 166.0 L 202.0 166.0 L 203.0 166.0 L 204.0 166.0 L 205.0 166.0 L 206.0 166.0 L 206.0 166.0 L 207.0 166.0 L 209.0 166.0 L 209.0 166.0 L 210.0 166.0 L 212.0 166.0 L 213.0 166.0 L 214.0 166.0 L 215.0 166.0 L 216.0 166.0 L 216.0 166.0 L 218.0 165.0 L 218.0 165.0 L 219.0 165.0 L 220.0 165.0 L 220.0 165.0 L 221.0 165.0 L 221.0 164.0 " stroke="black" fill="none" stroke-width="5.0" stroke-linecap="round" stroke-linejoin="round" />
<path d="M 145.0 93.0 L 145.0 93.0 L 145.0 94.0 L 146.0 94.0 L 146.0 95.0 L 146.0 96.0 L 146.0 98.0 L 147.0 100.0 L 147.0 102.0 L 147.0 103.0 L 147.0 105.0 L 147.0 107.0 L 147.0 109.0 L 147.0 111.0 L 147.0 113.0 L 147.0 115.0 L 147.0 118.0 L 147.0 120.0 L 147.0 123.0 L 147.0 125.0 L 147.0 128.0 L 148.0 132.0 L 148.0 136.0 L 148.0 139.0 L 148.0 143.0 L 148.0 147.0 L 148.0 151.0 L 148.0 154.0 L 148.0 157.0 L 148.0 160.0 L 148.0 163.0 L 148.0 166.0 L 148.0 168.0 L 147.0 171.0 L 147.0 174.0 L 147.0 177.0 L 147.0 180.0 L 146.0 183.0 L 146.0 186.0 L 146.0 189.0 L 146.0 193.0 L 146.0 195.0 L 146.0 198.0 L 146.0 200.0 L 146.0 202.0 L 146.0 204.0 L 146.0 206.0 L 146.0 208.0 L 146.0 210.0 L 146.0 212.0 L 146.0 213.0 L 146.0 215.0 L 146.0 217.0 L 146.0 219.0 L 146.0 221.0 L 146.0 223.0 L 146.0 224.0 L 146.0 226.0 L 146.0 229.0 L 146.0 231.0 L 146.0 233.0 L 146.0 235.0 L 147.0 237.0 L 147.0 238.0 L 147.0 238.0 L 147.0 238.0 L 147.0 238.0 L 147.0 238.0 L 147.0 237.0 L 147.0 236.0 L 148.0 235.0 " stroke="black" fill="none" stroke-width="5.0" stroke-linecap="round" stroke-linejoin="round" />
<path d="M 62.0 239.0 L 62.0 239.0 L 62.0 239.0 L 62.0 239.0 L 62.0 239.0 L 62.0 239.0 L 62.0 239.0 L 62.0 239.0 L 62.0 239.0 L 62.0 239.0 L 62.0 239.0 L 62.0 239.0 L 62.0 239.0 L 62.0 239.0 L 62.0 239.0 L 62.0 239.0 L 62.0 239.0 L 62.0 239.0 L 62.0 239.0 L 62.0 239.0 L 63.0 239.0 L 63.0 239.0 L 64.0 239.0 L 64.0 239.0 L 65.0 239.0 L 66.0 239.0 L 67.0 239.0 L 68.0 239.0 L 69.0 239.0 L 70.0 239.0 L 71.0 239.0 L 72.0 239.0 L 73.0 239.0 L 74.0 239.0 L 75.0 239.0 L 76.0 239.0 L 77.0 239.0 L 78.0 239.0 L 80.0 239.0 L 81.0 239.0 L 82.0 239.0 L 83.0 239.0 L 84.0 239.0 L 85.0 239.0 L 86.0 239.0 L 87.0 239.0 L 88.0 239.0 L 90.0 239.0 L 91.0 239.0 L 92.0 239.0 L 93.0 239.0 L 94.0 239.0 L 95.0 239.0 L 96.0 239.0 L 97.0 239.0 L 98.0 239.0 L 99.0 239.0 L 100.0 239.0 L 101.0 239.0 L 101.0 239.0 L 102.0 239.0 L 103.0 239.0 L 104.0 239.0 L 105.0 239.0 L 105.0 239.0 L 106.0 239.0 L 107.0 239.0 L 107.0 239.0 L 108.0 239.0 L 108.0 239.0 L 109.0 239.0 L 110.0 239.0 L 110.0 239.0 L 111.0 239.0 L 112.0 239.0 L 113.0 239.0 L 114.0 239.0 L 115.0 239.0 L 116.0 239.0 L 117.0 239.0 L 118.0 239.0 L 119.0 239.0 L 121.0 239.0 L 122.0 239.0 L 124.0 239.0 L 125.0 239.0 L 127.0 239.0 L 129.0 239.0 L 131.0 239.0 L 133.0 239.0 L 135.0 239.0 L 137.0 239.0 L 139.0 239.0 L 141.0 239.0 L 142.0 239.0 L 143.0 239.0 L 144.0 239.0 L 146.0 239.0 L 146.0 239.0 L 147.0 239.0 L 148.0 239.0 L 148.0 239.0 L 149.0 239.0 L 149.0 239.0 L 150.0 239.0 L 150.0 239.0 L 151.0 239.0 L 151.0 239.0 L 152.0 239.0 L 152.0 239.0 L 153.0 239.0 L 153.0 239.0 L 154.0 239.0 L 154.0 239.0 L 155.0 239.0 L 155.0 239.0 L 156.0 239.0 L 157.0 239.0 L 157.0 239.0 L 158.0 239.0 L 159.0 239.0 L 160.0 239.0 L 160.0 239.0 L 161.0 239.0 L 162.0 239.0 L 163.0 239.0 L 164.0 239.0 L 165.0 239.0 L 165.0 239.0 L 166.0 239.0 L 167.0 239.0 L 168.0 239.0 L 169.0 239.0 L 170.0 239.0 L 171.0 239.0 L 172.0 239.0 L 173.0 239.0 L 174.0 239.0 L 175.0 239.0 L 176.0 239.0 L 177.0 239.0 L 178.0 239.0 L 180.0 239.0 L 181.0 239.0 L 182.0 240.0 L 183.0 240.0 L 184.0 240.0 L 185.0 240.0 L 186.0 240.0 L 187.0 240.0 L 188.0 240.0 L 189.0 240.0 L 190.0 240.0 L 191.0 240.0 L 192.0 240.0 L 192.0 240.0 L 193.0 240.0 L 194.0 240.0 L 195.0 240.0 L 195.0 240.0 L 196.0 240.0 L 197.0 240.0 L 198.0 240.0 L 198.0 240.0 L 199.0 240.0 L 200.0 240.0 L 201.0 240.0 L 201.0 240.0 L 202.0 240.0 L 203.0 240.0 L 204.0 240.0 L 205.0 240.0 L 206.0 240.0 L 207.0 240.0 L 208.0 240.0 L 209.0 240.0 L 210.0 240.0 L 211.0 240.0 L 212.0 240.0 L 213.0 240.0 L 214.0 239.0 L 215.0 239.0 L 216.0 239.0 L 217.0 239.0 L 218.0 239.0 L 219.0 239.0 L 220.0 239.0 L 221.0 239.0 L 222.0 239.0 L 223.0 239.0 L 223.0 239.0 L 224.0 239.0 L 225.0 239.0 L 225.0 239.0 L 226.0 239.0 L 227.0 239.0 L 227.0 239.0 L 227.0 239.0 L 228.0 239.0 L 229.0 239.0 L 229.0 239.0 L 229.0 239.0 L 230.0 239.0 L 230.0 239.0 L 231.0 239.0 L 231.0 239.0 L 231.0 239.0 L 232.0 239.0 L 232.0 239.0 L 232.0 239.0 L 232.0 239.0 L 232.0 239.0 L 232.0 239.0 " stroke="black" fill="none" stroke-width="5.0" stroke-linecap="round" stroke-linejoin="round" />
</svg>