<svg xmlns="http://www.w3.org/2000/svg" width="300" height="300" viewBox="0 0 300 300">
<path d="M 85.0 96.0 L 85.0 96.0 L 88.0 96.0 L 91.0 96.0 L 95.0 96.0 L 101.0 95.0 L 108.0 95.0 L 118.0 95.0 L 132.0 95.0 L 147.0 95.0 L 159.0 96.0 L 171.0 98.0 L 184.0 100.0 L 193.0 101.0 L 198.0 102.0 L 203.0 104.0 L 205.0 105.0 L 207.0 107.0 L 208.0 109.0 L 208.0 110.0 " stroke="black" fill="none" stroke-width="5.0" stroke-linecap="round" stroke-linejoin="round" />
<path d="M 92.0 160.0 L 92.0 159.0 L 91.0 159.0 L 91.0 158.0 L 92.0 157.0 L 94.0 157.0 L 98.0 157.0 L 103.0 157.0 L 109.0 156.0 L 118.0 156.0 L 131.0 156.0 L 145.0 156.0 L 158.0 156.0 L 171.0 156.0 L 185.0 156.0 L 194.0 156.0 L 200.0 156.0 L 204.0 157.0 L 207.0 159.0 L 207.0 160.0 " stroke="black" fill="none" stroke-width="5.0" stroke-linecap="round" stroke-linejoin="round" />
<path d="M 68.0 234.0 L 68.0 234.0 L 68.0 233.0 L 68.0 232.0 L 68.0 231.0 L 69.0 231.0 L 71.0 230.0 L 75.0 230.0 L 82.0 230.0 L 92.0 230.0 L 103.0 231.0 L 115.0 231.0 L 129.0 232.0 L 145.0 233.0 L 158.0 234.0 L 170.0 234.0 L 182.0 235.0 L 193.0 235.0 L 199.0 235.0 L 203.0 235.0 L 208.0 235.0 L 212.0 235.0 L 215.0 235.0 L 218.0 235.0 L 219.0 235.0 " stroke="black" fill="none" stroke-width="5.0" stroke-linecap="round" stroke-linejoin="round" />
</svg>