<svg xmlns="http://www.w3.org/2000/svg" width="300" height="300" viewBox="0 0 300 300">
<path d="M 85.0 100.0 L 84.0 100.0 L 83.0 100.0 L 82.0 100.0 L 81.0 100.0 L 81.0 100.0 L 80.0 100.0 L 80.0 100.0 L 80.0 101.0 L 80.0 101.0 L 80.0 101.0 L 81.0 101.0 L 82.0 102.0 L 84.0 102.0 L 85.0 102.0 L 87.0 102.0 L 90.0 102.0 L 93.0 102.0 L 96.0 102.0 L 100.0 102.0 L 104.0 102.0 L 109.0 102.0 L 116.0 102.0 L 124.0 102.0 L 133.0 102.0 L 142.0 102.0 L 150.0 102.0 L 157.0 102.0 L 165.0 102.0 L 174.0 101.0 L 182.0 100.0 L 190.0 100.0 L 196.0 99.0 L 200.0 99.0 L 203.0 99.0 L 208.0 99.0 L 212.0 99.0 L 216.0 99.0 L 219.0 99.0 L 222.0 101.0 " stroke="black" fill="none" stroke-width="5.0" stroke-linecap="round" stroke-linejoin="round" />
<path d="M 97.0 152.0 L 97.0 152.0 L 97.0 152.0 L 97.0 152.0 L 96.0 152.0 L 96.0 152.0 L 96.0 152.0 L 96.0 152.0 L 96.0 152.0 L 96.0 152.0 L 96.0 152.0 L 96.0 152.0 L 96.0 152.0 L 96.0 152.0 L 96.0 152.0 L 96.0 151.0 L 97.0 151.0 L 98.0 151.0 L 99.0 151.0 L 100.0 150.0 L 101.0 150.0 L 103.0 150.0 L 104.0 150.0 L 106.0 150.0 L 108.0 150.0 L 110.0 150.0 L 112.0 150.0 L 114.0 150.0 L 116.0 150.0 L 118.0 150.0 L 120.0 150.0 L 122.0 150.0 L 125.0 150.0 L 127.0 150.0 L 129.0 150.0 L 131.0 150.0 L 133.0 150.0 L 136.0 150.0 L 138.0 150.0 L 141.0 150.0 L 143.0 150.0 L 145.0 150.0 L 148.0 150.0 L 150.0 149.0 L 152.0 148.0 L 153.0 148.0 L 155.0 147.0 L 156.0 147.0 L 157.0 147.0 L 159.0 147.0 L 160.0 147.0 L 161.0 147.0 L 163.0 147.0 L 164.0 147.0 L 166.0 147.0 L 168.0 148.0 L 170.0 148.0 L 171.0 149.0 L 174.0 149.0 L 175.0 149.0 L 177.0 150.0 L 179.0 150.0 L 181.0 150.0 L 183.0 150.0 L 184.0 150.0 L 186.0 150.0 L 187.0 150.0 L 189.0 150.0 L 191.0 150.0 L 192.0 150.0 L 193.0 150.0 L 194.0 150.0 L 196.0 150.0 L 197.0 150.0 L 198.0 150.0 L 198.0 150.0 L 199.0 150.0 L 199.0 150.0 L 200.0 150.0 L 200.0 150.0 L 200.0 150.0 L 201.0 150.0 L 201.0 150.0 L 201.0 150.0 L 201.0 150.0 L 201.0 150.0 L 201.0 150.0 L 201.0 151.0 L 201.0 151.0 L 201.0 152.0 L 201.0 153.0 L 201.0 154.0 L 201.0 155.0 L 201.0 157.0 L 201.0 160.0 L 201.0 163.0 L 200.0 167.0 L 199.0 172.0 L 199.0 178.0 L 198.0 185.0 L 197.0 192.0 L 196.0 198.0 L 196.0 202.0 L 195.0 207.0 L 195.0 211.0 L 194.0 214.0 L 193.0 218.0 L 193.0 221.0 L 192.0 224.0 L 191.0 227.0 L 190.0 229.0 L 190.0 229.0 " stroke="black" fill="none" stroke-width="5.0" stroke-linecap="round" stroke-linejoin="round" />
<path d="M 138.0 114.0 L 138.0 114.0 L 137.0 114.0 L 137.0 114.0 L 137.0 114.0 L 137.0 114.0 L 137.0 114.0 L 136.0 115.0 L 136.0 116.0 L 136.0 119.0 L 136.0 123.0 L 136.0 127.0 L 136.0 133.0 L 135.0 141.0 L 134.0 149.0 L 133.0 157.0 L 131.0 165.0 L 129.0 173.0 L 127.0 181.0 L 126.0 190.0 L 124.0 197.0 L 123.0 202.0 L 122.0 206.0 L 122.0 209.0 L 121.0 211.0 L 121.0 212.0 L 121.0 212.0 L 122.0 213.0 " stroke="black" fill="none" stroke-width="5.0" stroke-linecap="round" stroke-linejoin="round" />
<path d="M 66.0 238.0 L 66.0 238.0 L 66.0 238.0 L 66.0 238.0 L 66.0 238.0 L 65.0 238.0 L 65.0 237.0 L 65.0 237.0 L 65.0 237.0 L 65.0 237.0 L 65.0 237.0 L 66.0 237.0 L 67.0 237.0 L 68.0 237.0 L 69.0 237.0 L 70.0 237.0 L 71.0 237.0 L 73.0 237.0 L 74.0 237.0 L 76.0 237.0 L 78.0 237.0 L 80.0 237.0 L 82.0 237.0 L 84.0 237.0 L 87.0 237.0 L 89.0 237.0 L 91.0 238.0 L 93.0 238.0 L 95.0 238.0 L 97.0 238.0 L 99.0 238.0 L 100.0 238.0 L 102.0 238.0 L 103.0 238.0 L 104.0 238.0 L 105.0 238.0 L 106.0 238.0 L 107.0 238.0 L 108.0 238.0 L 109.0 238.0 L 110.0 238.0 L 111.0 238.0 L 113.0 238.0 L 114.0 238.0 L 116.0 238.0 L 118.0 238.0 L 119.0 238.0 L 121.0 238.0 L 124.0 238.0 L 126.0 238.0 L 129.0 238.0 L 132.0 238.0 L 135.0 238.0 L 138.0 238.0 L 141.0 238.0 L 143.0 238.0 L 145.0 238.0 L 147.0 238.0 L 149.0 238.0 L 151.0 239.0 L 152.0 239.0 L 153.0 239.0 L 155.0 239.0 L 156.0 239.0 L 157.0 239.0 L 159.0 239.0 L 160.0 239.0 L 162.0 239.0 L 164.0 239.0 L 166.0 239.0 L 168.0 239.0 L 170.0 239.0 L 173.0 239.0 L 175.0 239.0 L 178.0 239.0 L 181.0 239.0 L 183.0 239.0 L 186.0 239.0 L 189.0 239.0 L 191.0 239.0 L 193.0 239.0 L 195.0 239.0 L 197.0 239.0 L 199.0 239.0 L 201.0 239.0 L 203.0 239.0 L 206.0 239.0 L 209.0 239.0 L 212.0 239.0 L 215.0 239.0 L 219.0 239.0 L 223.0 239.0 L 226.0 238.0 L 229.0 237.0 L 231.0 236.0 L 232.0 236.0 L 234.0 236.0 L 234.0 236.0 " stroke="black" fill="none" stroke-width="5.0" stroke-linecap="round" stroke-linejoin="round" />
<path d="M 116.0 213.0 L 116.0 213.0 L 116.0 213.0 L 116.0 212.0 L 116.0 212.0 L 116.0 212.0 L 116.0 212.0 L 116.0 212.0 L 116.0 211.0 L 117.0 211.0 L 117.0 211.0 L 117.0 211.0 L 117.0 212.0 L 117.0 214.0 L 117.0 215.0 L 117.0 218.0 L 117.0 221.0 L 117.0 224.0 L 116.0 227.0 " stroke="black" fill="none" stroke-width="5.0" stroke-linecap="round" stroke-linejoin="round" />
</svg>