<svg xmlns="http://www.w3.org/2000/svg" width="300" height="300" viewBox="0 0 300 300">
<path d="M 94.0 95.0 L 93.0 95.0 L 91.0 94.0 L 90.0 94.0 L 89.0 94.0 L 88.0 94.0 L 88.0 94.0 L 88.0 94.0 L 89.0 94.0 L 90.0 94.0 L 93.0 94.0 L 96.0 94.0 L 100.0 94.0 L 103.0 94.0 L 107.0 94.0 L 112.0 95.0 L 119.0 95.0 L 129.0 95.0 L 141.0 95.0 L 153.0 94.0 L 165.0 94.0 L 178.0 93.0 L 189.0 93.0 L 194.0 93.0 " stroke="black" fill="none" stroke-width="5.0" stroke-linecap="round" stroke-linejoin="round" />
<path d="M 142.0 107.0 L 142.0 107.0 L 142.0 106.0 L 142.0 105.0 L 142.0 104.0 L 142.0 104.0 L 142.0 103.0 L 142.0 103.0 L 142.0 103.0 L 142.0 103.0 L 143.0 104.0 L 143.0 106.0 L 143.0 110.0 L 142.0 116.0 L 141.0 123.0 L 138.0 133.0 L 135.0 146.0 L 130.0 161.0 L 125.0 178.0 L 120.0 196.0 L 117.0 209.0 L 114.0 217.0 L 113.0 221.0 L 113.0 224.0 L 113.0 227.0 " stroke="black" fill="none" stroke-width="5.0" stroke-linecap="round" stroke-linejoin="round" />
<path d="M 100.0 157.0 L 100.0 157.0 L 99.0 157.0 L 98.0 157.0 L 98.0 157.0 L 97.0 157.0 L 97.0 157.0 L 97.0 157.0 L 97.0 157.0 L 98.0 157.0 L 100.0 157.0 L 101.0 157.0 L 103.0 157.0 L 105.0 157.0 L 107.0 157.0 L 110.0 157.0 L 113.0 158.0 L 116.0 158.0 L 120.0 158.0 L 125.0 158.0 L 131.0 158.0 L 138.0 158.0 L 144.0 158.0 L 149.0 158.0 L 154.0 158.0 L 158.0 158.0 L 162.0 159.0 L 167.0 159.0 L 172.0 159.0 L 177.0 159.0 L 182.0 159.0 L 186.0 159.0 L 189.0 159.0 L 192.0 159.0 L 194.0 159.0 L 195.0 159.0 L 196.0 159.0 L 196.0 159.0 L 197.0 160.0 L 198.0 161.0 L 198.0 161.0 L 198.0 162.0 L 198.0 162.0 L 199.0 162.0 L 199.0 163.0 L 199.0 164.0 L 199.0 164.0 L 200.0 164.0 L 200.0 165.0 L 200.0 166.0 L 200.0 168.0 L 200.0 171.0 L 199.0 175.0 L 198.0 181.0 L 197.0 188.0 L 196.0 195.0 L 194.0 202.0 L 193.0 210.0 L 193.0 215.0 L 192.0 220.0 L 192.0 225.0 L 191.0 228.0 " stroke="black" fill="none" stroke-width="5.0" stroke-linecap="round" stroke-linejoin="round" />
<path d="M 60.0 237.0 L 60.0 237.0 L 60.0 236.0 L 60.0 235.0 L 61.0 234.0 L 62.0 234.0 L 63.0 234.0 L 65.0 234.0 L 69.0 234.0 L 75.0 234.0 L 84.0 234.0 L 96.0 234.0 L 108.0 234.0 L 120.0 234.0 L 136.0 234.0 L 149.0 234.0 L 160.0 234.0 L 172.0 234.0 L 185.0 234.0 L 196.0 234.0 L 207.0 234.0 L 219.0 234.0 L 232.0 234.0 L 242.0 233.0 L 248.0 233.0 L 255.0 232.0 L 260.0 232.0 L 262.0 233.0 " stroke="black" fill="none" stroke-width="5.0" stroke-linecap="round" stroke-linejoin="round" />
</svg>