<svg xmlns="http://www.w3.org/2000/svg" width="300" height="300" viewBox="0 0 300 300">
<path d="M 115.0 70.0 L 115.0 70.0 L 115.0 70.0 L 115.0 70.0 L 115.0 69.0 L 115.0 69.0 L 115.0 69.0 L 115.0 69.0 L 115.0 70.0 L 115.0 72.0 L 115.0 75.0 L 114.0 79.0 L 112.0 85.0 L 110.0 92.0 L 108.0 101.0 L 105.0 110.0 L 100.0 119.0 L 95.0 126.0 L 89.0 134.0 L 81.0 143.0 L 74.0 150.0 L 68.0 158.0 L 62.0 165.0 L 59.0 170.0 L 57.0 173.0 L 55.0 175.0 L 55.0 175.0 " stroke="black" fill="none" stroke-width="5.0" stroke-linecap="round" stroke-linejoin="round" />
<path d="M 93.0 131.0 L 93.0 131.0 L 91.0 131.0 L 90.0 131.0 L 90.0 131.0 L 89.0 131.0 L 89.0 132.0 L 89.0 134.0 L 89.0 136.0 L 89.0 141.0 L 90.0 146.0 L 91.0 153.0 L 92.0 161.0 L 92.0 171.0 L 92.0 184.0 L 92.0 200.0 L 90.0 214.0 L 89.0 228.0 L 88.0 239.0 L 88.0 246.0 L 87.0 249.0 L 87.0 249.0 " stroke="black" fill="none" stroke-width="5.0" stroke-linecap="round" stroke-linejoin="round" />
<path d="M 145.0 110.0 L 144.0 110.0 L 143.0 110.0 L 142.0 109.0 L 142.0 109.0 L 142.0 109.0 L 142.0 109.0 L 142.0 109.0 L 144.0 109.0 L 146.0 109.0 L 149.0 110.0 L 153.0 110.0 L 158.0 111.0 L 165.0 111.0 L 176.0 111.0 L 186.0 111.0 L 196.0 110.0 L 207.0 109.0 L 215.0 109.0 L 223.0 109.0 L 230.0 109.0 L 234.0 110.0 " stroke="black" fill="none" stroke-width="5.0" stroke-linecap="round" stroke-linejoin="round" />
<path d="M 129.0 232.0 L 129.0 232.0 L 127.0 232.0 L 126.0 232.0 L 125.0 232.0 L 125.0 232.0 L 124.0 232.0 L 124.0 232.0 L 124.0 232.0 L 125.0 232.0 L 128.0 231.0 L 131.0 231.0 L 135.0 231.0 L 140.0 230.0 L 145.0 230.0 L 150.0 230.0 L 155.0 229.0 L 162.0 229.0 L 169.0 229.0 L 178.0 229.0 L 186.0 228.0 L 193.0 227.0 L 200.0 226.0 L 205.0 225.0 L 210.0 224.0 L 216.0 223.0 L 221.0 223.0 L 226.0 223.0 L 230.0 223.0 L 233.0 223.0 L 235.0 223.0 L 236.0 223.0 L 237.0 223.0 L 238.0 224.0 L 238.0 224.0 L 239.0 224.0 L 239.0 224.0 " stroke="black" fill="none" stroke-width="5.0" stroke-linecap="round" stroke-linejoin="round" />
</svg>