<svg xmlns="http://www.w3.org/2000/svg" width="300" height="300" viewBox="0 0 300 300">
<path d="M 139.0 71.0 L 139.0 70.0 L 138.0 68.0 L 137.0 66.0 L 137.0 66.0 L 136.0 65.0 L 136.0 65.0 L 136.0 65.0 L 138.0 66.0 L 139.0 68.0 L 142.0 70.0 L 144.0 73.0 L 146.0 76.0 L 149.0 79.0 L 151.0 82.0 L 153.0 85.0 L 155.0 89.0 L 157.0 93.0 L 157.0 95.0 " stroke="black" fill="none" stroke-width="5.0" stroke-linecap="round" stroke-linejoin="round" />
<path d="M 80.0 110.0 L 80.0 110.0 L 80.0 109.0 L 80.0 109.0 L 80.0 109.0 L 82.0 108.0 L 85.0 108.0 L 90.0 108.0 L 97.0 108.0 L 104.0 108.0 L 114.0 107.0 L 125.0 107.0 L 139.0 106.0 L 152.0 106.0 L 162.0 105.0 L 174.0 105.0 L 187.0 105.0 L 196.0 105.0 L 203.0 105.0 L 211.0 105.0 L 218.0 105.0 L 225.0 105.0 L 231.0 105.0 L 234.0 106.0 L 235.0 107.0 L 235.0 109.0 " stroke="black" fill="none" stroke-width="5.0" stroke-linecap="round" stroke-linejoin="round" />
<path d="M 144.0 123.0 L 144.0 123.0 L 143.0 123.0 L 143.0 123.0 L 142.0 123.0 L 141.0 123.0 L 140.0 123.0 L 139.0 124.0 L 138.0 126.0 L 135.0 128.0 L 132.0 132.0 L 128.0 136.0 L 124.0 142.0 L 118.0 147.0 L 114.0 152.0 L 110.0 156.0 L 106.0 160.0 L 104.0 162.0 L 102.0 164.0 L 101.0 166.0 L 99.0 167.0 L 98.0 168.0 L 97.0 168.0 L 97.0 169.0 L 97.0 169.0 L 97.0 169.0 L 97.0 169.0 L 97.0 169.0 L 97.0 169.0 L 98.0 169.0 L 99.0 169.0 L 101.0 169.0 L 102.0 169.0 L 104.0 169.0 L 107.0 169.0 L 110.0 169.0 L 113.0 169.0 L 119.0 169.0 L 127.0 168.0 L 136.0 166.0 L 146.0 164.0 L 153.0 162.0 L 158.0 162.0 L 163.0 161.0 L 165.0 161.0 L 165.0 161.0 " stroke="black" fill="none" stroke-width="5.0" stroke-linecap="round" stroke-linejoin="round" />
<path d="M 190.0 144.0 L 189.0 144.0 L 188.0 144.0 L 187.0 144.0 L 185.0 145.0 L 183.0 146.0 L 181.0 148.0 L 178.0 151.0 L 175.0 154.0 L 171.0 158.0 L 167.0 161.0 L 162.0 165.0 L 158.0 170.0 L 154.0 174.0 L 150.0 178.0 L 145.0 184.0 L 139.0 190.0 L 130.0 197.0 L 121.0 203.0 L 115.0 208.0 L 110.0 213.0 L 106.0 217.0 L 104.0 220.0 L 103.0 222.0 L 101.0 224.0 L 100.0 225.0 L 99.0 225.0 L 97.0 226.0 L 96.0 227.0 L 94.0 228.0 L 93.0 229.0 L 92.0 229.0 L 91.0 230.0 L 90.0 231.0 L 89.0 232.0 L 88.0 232.0 L 88.0 233.0 L 87.0 233.0 L 87.0 233.0 L 87.0 234.0 L 87.0 234.0 L 87.0 234.0 L 87.0 234.0 L 88.0 234.0 L 89.0 234.0 L 90.0 234.0 L 91.0 234.0 L 93.0 234.0 L 96.0 234.0 L 98.0 234.0 L 101.0 234.0 L 105.0 234.0 L 109.0 234.0 L 115.0 234.0 L 124.0 234.0 L 135.0 233.0 L 146.0 231.0 L 156.0 229.0 L 165.0 227.0 L 173.0 225.0 L 181.0 223.0 L 185.0 223.0 L 188.0 222.0 L 189.0 222.0 L 189.0 223.0 L 189.0 224.0 " stroke="black" fill="none" stroke-width="5.0" stroke-linecap="round" stroke-linejoin="round" />
<path d="M 194.0 196.0 L 194.0 196.0 L 193.0 196.0 L 192.0 196.0 L 191.0 196.0 L 191.0 196.0 L 191.0 196.0 L 191.0 198.0 L 191.0 200.0 L 193.0 202.0 L 196.0 206.0 L 199.0 209.0 L 203.0 214.0 L 207.0 218.0 L 211.0 223.0 L 216.0 228.0 L 220.0 232.0 L 223.0 235.0 L 227.0 238.0 L 229.0 240.0 L 231.0 241.0 L 232.0 243.0 L 233.0 243.0 L 233.0 243.0 " stroke="black" fill="none" stroke-width="5.0" stroke-linecap="round" stroke-linejoin="round" />
</svg>