<svg xmlns="http://www.w3.org/2000/svg" width="300" height="300" viewBox="0 0 300 300">
<path d="M 104.0 69.0 L 104.0 69.0 L 104.0 69.0 L 104.0 68.0 L 103.0 68.0 L 103.0 68.0 L 103.0 69.0 L 103.0 71.0 L 103.0 74.0 L 103.0 78.0 L 103.0 83.0 L 103.0 89.0 L 104.0 95.0 L 104.0 102.0 L 104.0 106.0 L 104.0 110.0 L 104.0 112.0 L 104.0 113.0 L 104.0 113.0 " stroke="black" fill="none" stroke-width="5.0" stroke-linecap="round" stroke-linejoin="round" />
<path d="M 79.0 93.0 L 79.0 93.0 L 78.0 93.0 L 76.0 93.0 L 75.0 93.0 L 74.0 93.0 L 73.0 93.0 L 72.0 93.0 L 71.0 93.0 L 71.0 93.0 L 71.0 93.0 L 71.0 92.0 L 71.0 92.0 L 71.0 92.0 L 72.0 92.0 L 74.0 92.0 L 76.0 92.0 L 80.0 92.0 L 84.0 92.0 L 89.0 92.0 L 94.0 92.0 L 100.0 92.0 L 105.0 92.0 L 111.0 91.0 L 116.0 90.0 L 121.0 90.0 L 126.0 90.0 L 130.0 90.0 " stroke="black" fill="none" stroke-width="5.0" stroke-linecap="round" stroke-linejoin="round" />
<path d="M 163.0 91.0 L 163.0 91.0 L 162.0 91.0 L 162.0 91.0 L 161.0 90.0 L 160.0 90.0 L 160.0 90.0 L 160.0 90.0 L 160.0 90.0 L 160.0 90.0 L 160.0 89.0 L 160.0 89.0 L 160.0 89.0 L 162.0 89.0 L 163.0 89.0 L 166.0 89.0 L 168.0 89.0 L 171.0 89.0 L 175.0 89.0 L 179.0 89.0 L 184.0 89.0 L 188.0 89.0 L 192.0 89.0 L 196.0 89.0 L 199.0 89.0 L 203.0 89.0 L 206.0 88.0 L 209.0 88.0 L 213.0 88.0 L 216.0 88.0 L 219.0 88.0 L 221.0 88.0 L 223.0 88.0 L 224.0 88.0 L 224.0 88.0 L 224.0 88.0 " stroke="black" fill="none" stroke-width="5.0" stroke-linecap="round" stroke-linejoin="round" />
<path d="M 196.0 73.0 L 195.0 73.0 L 195.0 72.0 L 194.0 72.0 L 194.0 71.0 L 193.0 71.0 L 193.0 71.0 L 193.0 71.0 L 193.0 72.0 L 193.0 73.0 L 193.0 76.0 L 193.0 78.0 L 193.0 82.0 L 193.0 86.0 L 193.0 91.0 L 193.0 97.0 L 194.0 104.0 L 194.0 110.0 " stroke="black" fill="none" stroke-width="5.0" stroke-linecap="round" stroke-linejoin="round" />
<path d="M 62.0 150.0 L 62.0 150.0 L 62.0 150.0 L 62.0 150.0 L 62.0 150.0 L 61.0 150.0 L 61.0 150.0 L 61.0 150.0 L 61.0 150.0 L 61.0 150.0 L 60.0 150.0 L 60.0 150.0 L 60.0 150.0 L 60.0 150.0 L 60.0 150.0 L 60.0 150.0 L 60.0 150.0 L 60.0 150.0 L 60.0 150.0 L 60.0 150.0 L 61.0 150.0 L 61.0 150.0 L 61.0 149.0 L 62.0 149.0 L 62.0 149.0 L 62.0 149.0 L 62.0 149.0 L 63.0 149.0 L 63.0 149.0 L 63.0 149.0 L 63.0 149.0 L 64.0 148.0 L 64.0 148.0 L 64.0 148.0 L 65.0 148.0 L 65.0 148.0 L 65.0 148.0 L 66.0 148.0 L 66.0 148.0 L 66.0 148.0 L 67.0 148.0 L 67.0 148.0 L 68.0 148.0 L 68.0 148.0 L 68.0 148.0 L 69.0 148.0 L 69.0 148.0 L 69.0 148.0 L 70.0 148.0 L 70.0 148.0 L 71.0 148.0 L 71.0 148.0 L 72.0 148.0 L 73.0 148.0 L 73.0 148.0 L 74.0 148.0 L 74.0 148.0 L 75.0 148.0 L 76.0 148.0 L 76.0 148.0 L 77.0 148.0 L 78.0 148.0 L 78.0 148.0 L 79.0 148.0 L 80.0 148.0 L 80.0 148.0 L 81.0 148.0 L 82.0 148.0 L 83.0 148.0 L 84.0 148.0 L 85.0 148.0 L 85.0 148.0 L 86.0 148.0 L 87.0 148.0 L 88.0 148.0 L 89.0 147.0 L 90.0 147.0 L 91.0 147.0 L 92.0 147.0 L 93.0 147.0 L 94.0 147.0 L 94.0 147.0 L 95.0 147.0 L 96.0 147.0 L 97.0 147.0 L 98.0 147.0 L 98.0 147.0 L 99.0 147.0 L 100.0 147.0 L 101.0 147.0 L 101.0 147.0 L 102.0 147.0 L 103.0 147.0 L 103.0 147.0 L 104.0 147.0 L 104.0 147.0 L 105.0 147.0 L 105.0 147.0 L 106.0 147.0 L 107.0 147.0 L 107.0 147.0 L 107.0 147.0 L 108.0 147.0 L 108.0 147.0 L 109.0 147.0 L 109.0 147.0 L 110.0 147.0 L 110.0 147.0 L 111.0 147.0 L 111.0 147.0 L 111.0 147.0 L 112.0 147.0 L 112.0 147.0 L 113.0 147.0 L 113.0 147.0 L 114.0 147.0 L 114.0 147.0 L 115.0 147.0 L 116.0 148.0 L 116.0 148.0 L 117.0 148.0 L 117.0 148.0 L 118.0 148.0 L 119.0 148.0 L 119.0 148.0 L 120.0 148.0 L 121.0 148.0 L 121.0 148.0 L 122.0 148.0 L 122.0 148.0 L 123.0 148.0 L 124.0 148.0 L 124.0 148.0 L 125.0 148.0 L 125.0 148.0 L 126.0 148.0 L 127.0 148.0 L 127.0 148.0 L 128.0 148.0 L 129.0 148.0 L 129.0 148.0 L 130.0 148.0 L 130.0 148.0 L 131.0 148.0 L 132.0 148.0 L 132.0 148.0 L 133.0 148.0 L 134.0 148.0 L 134.0 148.0 L 135.0 148.0 L 136.0 148.0 L 136.0 148.0 L 137.0 148.0 L 138.0 148.0 L 138.0 148.0 L 139.0 148.0 L 139.0 148.0 L 140.0 148.0 L 141.0 148.0 L 141.0 148.0 L 142.0 148.0 L 143.0 148.0 L 143.0 148.0 L 144.0 148.0 L 144.0 148.0 L 145.0 148.0 L 146.0 148.0 L 146.0 148.0 L 147.0 148.0 L 147.0 148.0 L 148.0 148.0 L 148.0 148.0 L 149.0 148.0 L 149.0 148.0 L 150.0 148.0 L 150.0 148.0 L 150.0 148.0 L 151.0 148.0 L 151.0 148.0 L 152.0 148.0 L 152.0 148.0 L 152.0 148.0 L 153.0 148.0 L 153.0 148.0 L 154.0 148.0 L 154.0 148.0 L 155.0 148.0 L 155.0 148.0 L 155.0 148.0 L 156.0 148.0 L 156.0 148.0 L 157.0 148.0 L 157.0 148.0 L 158.0 148.0 L 158.0 148.0 L 159.0 148.0 L 159.0 148.0 L 160.0 148.0 L 161.0 148.0 L 162.0 148.0 L 163.0 148.0 L 164.0 148.0 L 164.0 148.0 L 165.0 148.0 L 166.0 148.0 L 167.0 148.0 L 168.0 148.0 L 168.0 148.0 L 169.0 148.0 L 170.0 148.0 L 171.0 148.0 L 172.0 148.0 L 173.0 148.0 L 174.0 148.0 L 174.0 148.0 L 175.0 148.0 L 176.0 148.0 L 177.0 148.0 L 178.0 148.0 L 179.0 148.0 L 179.0 148.0 L 180.0 148.0 L 181.0 148.0 L 182.0 148.0 L 183.0 149.0 L 184.0 149.0 L 184.0 149.0 L 185.0 149.0 L 186.0 149.0 L 187.0 149.0 L 187.0 149.0 L 188.0 149.0 L 189.0 149.0 L 189.0 149.0 L 190.0 149.0 L 191.0 149.0 L 191.0 149.0 L 192.0 149.0 L 193.0 149.0 L 193.0 149.0 L 194.0 149.0 L 194.0 149.0 L 195.0 149.0 L 195.0 149.0 L 196.0 149.0 L 196.0 149.0 L 197.0 149.0 L 198.0 149.0 L 198.0 149.0 L 199.0 149.0 L 200.0 149.0 L 200.0 149.0 L 201.0 149.0 L 202.0 149.0 L 202.0 149.0 L 203.0 149.0 L 204.0 149.0 L 205.0 149.0 L 206.0 149.0 L 207.0 149.0 L 208.0 149.0 L 209.0 149.0 L 209.0 149.0 L 210.0 149.0 L 211.0 149.0 L 212.0 149.0 L 213.0 149.0 L 215.0 149.0 L 216.0 150.0 L 217.0 150.0 L 218.0 150.0 L 219.0 150.0 L 221.0 150.0 L 222.0 150.0 L 223.0 150.0 L 224.0 150.0 L 226.0 150.0 L 227.0 150.0 L 228.0 150.0 L 229.0 150.0 L 230.0 150.0 L 231.0 150.0 L 232.0 150.0 L 233.0 150.0 L 234.0 150.0 L 235.0 150.0 L 236.0 150.0 L 237.0 150.0 L 237.0 150.0 L 238.0 150.0 L 239.0 150.0 L 239.0 149.0 L 240.0 149.0 L 240.0 149.0 " stroke="black" fill="none" stroke-width="5.0" stroke-linecap="round" stroke-linejoin="round" />
<path d="M 136.0 122.0 L 136.0 122.0 L 136.0 122.0 L 136.0 122.0 L 136.0 122.0 L 136.0 123.0 L 136.0 123.0 L 136.0 123.0 L 136.0 123.0 L 136.0 123.0 L 136.0 123.0 L 136.0 124.0 L 136.0 124.0 L 136.0 124.0 L 136.0 124.0 L 136.0 125.0 L 136.0 125.0 L 136.0 126.0 L 136.0 127.0 L 136.0 127.0 L 135.0 128.0 L 135.0 129.0 L 135.0 129.0 L 135.0 130.0 L 134.0 131.0 L 134.0 132.0 L 134.0 133.0 L 133.0 134.0 L 133.0 135.0 L 133.0 136.0 L 133.0 137.0 L 132.0 138.0 L 132.0 139.0 L 132.0 139.0 L 131.0 141.0 L 131.0 142.0 L 130.0 143.0 L 130.0 144.0 L 129.0 145.0 L 129.0 146.0 L 128.0 147.0 L 128.0 148.0 L 127.0 149.0 L 127.0 150.0 L 126.0 151.0 L 125.0 152.0 L 125.0 153.0 L 124.0 154.0 L 123.0 154.0 L 123.0 155.0 L 122.0 156.0 L 121.0 157.0 L 121.0 158.0 L 120.0 159.0 L 119.0 160.0 L 118.0 161.0 L 118.0 162.0 L 117.0 162.0 L 116.0 163.0 L 116.0 164.0 L 115.0 165.0 L 114.0 166.0 L 113.0 167.0 L 113.0 168.0 L 112.0 169.0 L 112.0 170.0 L 111.0 170.0 L 110.0 171.0 L 110.0 172.0 L 109.0 173.0 L 108.0 174.0 L 108.0 175.0 L 107.0 176.0 L 107.0 177.0 L 106.0 178.0 L 106.0 179.0 L 105.0 180.0 L 105.0 182.0 L 104.0 183.0 L 104.0 184.0 L 103.0 185.0 L 103.0 186.0 L 102.0 186.0 L 101.0 187.0 L 101.0 188.0 L 100.0 189.0 L 99.0 190.0 L 98.0 191.0 L 97.0 191.0 L 96.0 192.0 L 96.0 193.0 L 95.0 193.0 L 94.0 194.0 L 93.0 194.0 L 92.0 195.0 L 91.0 196.0 L 91.0 196.0 L 90.0 197.0 L 89.0 197.0 L 88.0 198.0 L 87.0 199.0 L 87.0 199.0 L 86.0 200.0 L 85.0 200.0 L 84.0 201.0 L 83.0 202.0 L 82.0 202.0 L 81.0 203.0 L 81.0 204.0 L 80.0 204.0 L 79.0 205.0 L 79.0 205.0 L 78.0 206.0 L 77.0 206.0 L 77.0 207.0 L 76.0 207.0 L 75.0 207.0 L 74.0 208.0 L 74.0 208.0 L 73.0 209.0 L 72.0 209.0 L 72.0 209.0 L 71.0 210.0 L 70.0 210.0 L 70.0 211.0 L 69.0 211.0 L 69.0 211.0 L 68.0 211.0 L 68.0 212.0 L 68.0 212.0 L 67.0 212.0 L 67.0 212.0 L 66.0 213.0 L 66.0 213.0 L 66.0 213.0 L 65.0 213.0 L 65.0 213.0 L 65.0 213.0 " stroke="black" fill="none" stroke-width="5.0" stroke-linecap="round" stroke-linejoin="round" />
<path d="M 107.0 191.0 L 107.0 191.0 L 107.0 191.0 L 107.0 191.0 L 107.0 191.0 L 107.0 191.0 L 107.0 191.0 L 106.0 190.0 L 106.0 190.0 L 106.0 189.0 L 106.0 188.0 L 106.0 188.0 L 106.0 187.0 L 106.0 186.0 L 106.0 186.0 L 106.0 185.0 L 106.0 184.0 L 106.0 184.0 L 106.0 183.0 L 106.0 183.0 L 106.0 182.0 L 106.0 182.0 L 106.0 182.0 L 106.0 182.0 L 106.0 182.0 L 106.0 183.0 L 106.0 184.0 L 106.0 185.0 L 106.0 187.0 L 106.0 189.0 L 106.0 192.0 L 106.0 195.0 L 106.0 198.0 L 106.0 203.0 L 106.0 208.0 L 106.0 213.0 L 106.0 218.0 L 106.0 223.0 L 106.0 227.0 L 106.0 232.0 L 106.0 235.0 L 106.0 238.0 L 106.0 241.0 L 106.0 242.0 L 106.0 243.0 L 106.0 245.0 L 106.0 245.0 L 106.0 245.0 L 106.0 245.0 L 106.0 245.0 L 106.0 245.0 L 106.0 245.0 L 106.0 244.0 " stroke="black" fill="none" stroke-width="5.0" stroke-linecap="round" stroke-linejoin="round" />
<path d="M 108.0 180.0 L 108.0 180.0 L 108.0 180.0 L 108.0 180.0 L 107.0 180.0 L 107.0 181.0 L 107.0 181.0 L 106.0 181.0 L 106.0 181.0 L 106.0 181.0 L 106.0 181.0 L 106.0 181.0 L 106.0 181.0 L 106.0 182.0 L 106.0 182.0 L 106.0 182.0 L 106.0 182.0 L 106.0 182.0 L 107.0 182.0 L 107.0 182.0 L 107.0 182.0 L 108.0 182.0 L 108.0 182.0 L 109.0 182.0 L 110.0 182.0 L 110.0 182.0 L 111.0 182.0 L 111.0 182.0 L 112.0 182.0 L 113.0 181.0 L 113.0 181.0 L 114.0 181.0 L 115.0 181.0 L 116.0 181.0 L 116.0 181.0 L 117.0 181.0 L 118.0 181.0 L 119.0 181.0 L 120.0 181.0 L 121.0 181.0 L 121.0 181.0 L 122.0 181.0 L 123.0 181.0 L 124.0 181.0 L 125.0 181.0 L 126.0 181.0 L 126.0 181.0 L 127.0 181.0 L 128.0 181.0 L 129.0 181.0 L 130.0 181.0 L 131.0 181.0 L 132.0 181.0 L 133.0 181.0 L 134.0 181.0 L 134.0 180.0 L 135.0 180.0 L 136.0 180.0 L 137.0 180.0 L 138.0 180.0 L 139.0 180.0 L 139.0 180.0 L 140.0 180.0 L 141.0 180.0 L 142.0 180.0 L 142.0 180.0 L 143.0 180.0 L 144.0 180.0 L 144.0 180.0 L 145.0 180.0 L 145.0 180.0 L 146.0 180.0 L 146.0 180.0 L 147.0 180.0 L 147.0 180.0 L 148.0 180.0 L 148.0 180.0 L 149.0 180.0 L 149.0 180.0 L 150.0 180.0 L 150.0 180.0 L 151.0 180.0 L 151.0 180.0 L 152.0 180.0 L 152.0 180.0 L 153.0 180.0 L 153.0 180.0 L 154.0 180.0 L 154.0 180.0 L 155.0 180.0 L 155.0 180.0 L 156.0 180.0 L 156.0 180.0 L 157.0 180.0 L 158.0 180.0 L 158.0 180.0 L 159.0 180.0 L 159.0 180.0 L 160.0 180.0 L 161.0 180.0 L 161.0 180.0 L 162.0 180.0 L 163.0 180.0 L 163.0 180.0 L 164.0 180.0 L 165.0 180.0 L 165.0 180.0 L 166.0 180.0 L 167.0 180.0 L 168.0 180.0 L 169.0 180.0 L 169.0 180.0 L 170.0 180.0 L 171.0 180.0 L 172.0 180.0 L 173.0 180.0 L 174.0 180.0 L 175.0 180.0 L 175.0 180.0 L 176.0 180.0 L 177.0 180.0 L 178.0 180.0 L 179.0 180.0 L 180.0 180.0 L 181.0 180.0 L 181.0 180.0 L 182.0 180.0 L 183.0 180.0 L 184.0 180.0 L 184.0 180.0 L 185.0 180.0 L 186.0 180.0 L 186.0 180.0 L 187.0 180.0 L 188.0 180.0 L 188.0 180.0 L 189.0 180.0 L 189.0 180.0 L 190.0 180.0 L 191.0 180.0 L 191.0 180.0 L 191.0 180.0 L 192.0 180.0 L 192.0 180.0 L 193.0 180.0 L 193.0 180.0 L 194.0 180.0 L 194.0 180.0 L 194.0 180.0 L 195.0 180.0 L 195.0 180.0 L 195.0 180.0 L 196.0 180.0 L 196.0 180.0 L 197.0 180.0 L 197.0 180.0 L 197.0 180.0 L 198.0 180.0 L 198.0 180.0 L 199.0 180.0 L 199.0 180.0 L 200.0 180.0 L 200.0 180.0 L 201.0 180.0 L 201.0 180.0 L 202.0 180.0 L 202.0 180.0 L 203.0 180.0 L 203.0 180.0 L 204.0 180.0 L 204.0 180.0 L 205.0 180.0 L 205.0 180.0 L 206.0 180.0 L 207.0 180.0 L 207.0 180.0 L 208.0 180.0 L 208.0 180.0 L 209.0 180.0 L 209.0 180.0 L 210.0 181.0 L 210.0 181.0 L 211.0 181.0 L 211.0 181.0 L 212.0 181.0 L 212.0 181.0 L 212.0 182.0 L 213.0 182.0 L 213.0 182.0 L 214.0 182.0 L 214.0 182.0 L 214.0 183.0 L 215.0 183.0 L 215.0 183.0 L 215.0 184.0 L 216.0 184.0 L 216.0 184.0 L 216.0 184.0 L 217.0 185.0 L 217.0 185.0 L 217.0 185.0 L 218.0 185.0 L 218.0 186.0 L 218.0 186.0 L 218.0 186.0 L 219.0 187.0 L 219.0 187.0 L 219.0 188.0 L 219.0 188.0 L 219.0 188.0 L 219.0 189.0 L 219.0 189.0 L 219.0 189.0 L 219.0 190.0 L 219.0 190.0 L 220.0 191.0 L 220.0 191.0 L 220.0 191.0 L 220.0 192.0 L 220.0 192.0 L 220.0 193.0 L 220.0 193.0 L 220.0 194.0 L 220.0 195.0 L 220.0 196.0 L 220.0 196.0 L 220.0 197.0 L 220.0 198.0 L 220.0 199.0 L 220.0 200.0 L 220.0 201.0 L 220.0 202.0 L 220.0 203.0 L 220.0 204.0 L 220.0 205.0 L 220.0 206.0 L 220.0 208.0 L 220.0 209.0 L 220.0 210.0 L 220.0 211.0 L 220.0 213.0 L 220.0 214.0 L 220.0 215.0 L 220.0 217.0 L 220.0 218.0 L 220.0 220.0 L 220.0 221.0 L 220.0 222.0 L 220.0 223.0 L 220.0 225.0 L 220.0 226.0 L 220.0 227.0 L 220.0 229.0 L 220.0 230.0 L 220.0 232.0 L 220.0 233.0 L 220.0 234.0 L 220.0 235.0 L 220.0 236.0 L 220.0 237.0 L 220.0 238.0 L 220.0 239.0 L 220.0 240.0 L 220.0 241.0 L 220.0 242.0 L 220.0 242.0 L 220.0 243.0 L 220.0 243.0 L 220.0 244.0 L 220.0 245.0 L 220.0 245.0 L 220.0 245.0 L 220.0 246.0 L 220.0 246.0 L 220.0 247.0 L 220.0 247.0 L 220.0 247.0 L 220.0 247.0 L 220.0 248.0 L 220.0 248.0 L 220.0 248.0 L 220.0 248.0 L 220.0 248.0 L 220.0 248.0 L 219.0 248.0 L 219.0 248.0 L 219.0 248.0 L 219.0 248.0 " stroke="black" fill="none" stroke-width="5.0" stroke-linecap="round" stroke-linejoin="round" />
<path d="M 105.0 245.0 L 105.0 245.0 L 105.0 245.0 L 105.0 245.0 L 105.0 245.0 L 105.0 245.0 L 105.0 245.0 L 105.0 245.0 L 105.0 245.0 L 105.0 245.0 L 105.0 245.0 L 105.0 245.0 L 105.0 245.0 L 105.0 245.0 L 105.0 246.0 L 105.0 246.0 L 105.0 246.0 L 105.0 246.0 L 105.0 246.0 L 105.0 246.0 L 105.0 246.0 L 105.0 246.0 L 105.0 246.0 L 105.0 246.0 L 105.0 246.0 L 106.0 246.0 L 107.0 246.0 L 107.0 246.0 L 108.0 246.0 L 109.0 246.0 L 110.0 246.0 L 111.0 246.0 L 112.0 246.0 L 112.0 246.0 L 114.0 246.0 L 114.0 246.0 L 116.0 246.0 L 117.0 246.0 L 118.0 246.0 L 119.0 246.0 L 120.0 246.0 L 121.0 246.0 L 122.0 246.0 L 123.0 246.0 L 124.0 246.0 L 125.0 246.0 L 126.0 246.0 L 127.0 246.0 L 129.0 246.0 L 130.0 246.0 L 131.0 246.0 L 133.0 246.0 L 134.0 246.0 L 135.0 246.0 L 136.0 246.0 L 138.0 246.0 L 139.0 246.0 L 140.0 246.0 L 141.0 246.0 L 142.0 246.0 L 143.0 246.0 L 144.0 246.0 L 145.0 246.0 L 146.0 246.0 L 147.0 246.0 L 148.0 246.0 L 149.0 246.0 L 150.0 246.0 L 151.0 246.0 L 151.0 246.0 L 152.0 246.0 L 153.0 246.0 L 153.0 246.0 L 154.0 246.0 L 155.0 246.0 L 155.0 246.0 L 156.0 246.0 L 157.0 246.0 L 157.0 246.0 L 158.0 246.0 L 159.0 246.0 L 160.0 246.0 L 161.0 246.0 L 161.0 246.0 L 162.0 246.0 L 163.0 246.0 L 164.0 246.0 L 165.0 246.0 L 166.0 246.0 L 167.0 246.0 L 168.0 246.0 L 169.0 246.0 L 170.0 246.0 L 171.0 246.0 L 172.0 246.0 L 173.0 246.0 L 174.0 246.0 L 175.0 246.0 L 176.0 246.0 L 177.0 246.0 L 178.0 246.0 L 179.0 246.0 L 180.0 246.0 L 181.0 246.0 L 182.0 246.0 L 183.0 246.0 L 184.0 246.0 L 185.0 246.0 L 186.0 246.0 L 187.0 246.0 L 187.0 246.0 L 188.0 246.0 L 189.0 246.0 L 189.0 246.0 L 190.0 246.0 L 191.0 246.0 L 191.0 246.0 L 192.0 246.0 L 192.0 246.0 L 193.0 246.0 L 193.0 246.0 L 194.0 246.0 L 194.0 246.0 L 195.0 246.0 L 195.0 246.0 L 196.0 246.0 L 196.0 246.0 L 197.0 246.0 L 197.0 246.0 L 198.0 246.0 L 199.0 246.0 L 199.0 246.0 L 200.0 246.0 L 200.0 246.0 L 201.0 246.0 L 202.0 246.0 L 202.0 246.0 L 203.0 246.0 L 204.0 246.0 L 205.0 246.0 L 206.0 246.0 L 207.0 246.0 L 208.0 246.0 L 209.0 246.0 L 210.0 246.0 L 210.0 245.0 L 211.0 245.0 L 212.0 245.0 L 213.0 245.0 L 214.0 245.0 L 215.0 245.0 L 215.0 244.0 L 216.0 244.0 L 216.0 244.0 L 216.0 244.0 L 217.0 244.0 " stroke="black" fill="none" stroke-width="5.0" stroke-linecap="round" stroke-linejoin="round" />
</svg>