<svg xmlns="http://www.w3.org/2000/svg" width="300" height="300" viewBox="0 0 300 300">
<path d="M 105.0 72.0 L 105.0 72.0 L 104.0 72.0 L 104.0 72.0 L 103.0 72.0 L 103.0 72.0 L 103.0 72.0 L 103.0 73.0 L 103.0 73.0 L 103.0 74.0 L 103.0 75.0 L 104.0 77.0 L 104.0 79.0 L 105.0 83.0 L 105.0 87.0 L 106.0 93.0 L 106.0 100.0 L 106.0 106.0 L 107.0 113.0 L 107.0 118.0 L 107.0 121.0 " stroke="black" fill="none" stroke-width="5.0" stroke-linecap="round" stroke-linejoin="round" />
<path d="M 69.0 94.0 L 69.0 94.0 L 69.0 94.0 L 69.0 94.0 L 69.0 94.0 L 69.0 94.0 L 69.0 94.0 L 69.0 94.0 L 69.0 94.0 L 69.0 95.0 L 70.0 95.0 L 71.0 95.0 L 73.0 95.0 L 76.0 95.0 L 80.0 95.0 L 84.0 95.0 L 90.0 95.0 L 97.0 95.0 L 103.0 95.0 L 108.0 96.0 L 113.0 96.0 L 117.0 96.0 L 122.0 96.0 L 125.0 96.0 L 129.0 95.0 L 132.0 95.0 L 134.0 95.0 L 135.0 94.0 L 136.0 94.0 " stroke="black" fill="none" stroke-width="5.0" stroke-linecap="round" stroke-linejoin="round" />
<path d="M 154.0 93.0 L 154.0 93.0 L 154.0 93.0 L 154.0 93.0 L 153.0 93.0 L 153.0 93.0 L 153.0 93.0 L 153.0 93.0 L 153.0 93.0 L 153.0 93.0 L 153.0 93.0 L 153.0 93.0 L 153.0 93.0 L 153.0 93.0 L 153.0 93.0 L 153.0 93.0 L 153.0 93.0 L 154.0 93.0 L 154.0 93.0 L 155.0 93.0 L 155.0 93.0 L 156.0 93.0 L 157.0 93.0 L 157.0 93.0 L 158.0 94.0 L 159.0 94.0 L 160.0 94.0 L 161.0 94.0 L 162.0 94.0 L 163.0 94.0 L 164.0 94.0 L 165.0 94.0 L 166.0 94.0 L 168.0 94.0 L 169.0 94.0 L 171.0 95.0 L 172.0 95.0 L 174.0 95.0 L 176.0 95.0 L 177.0 95.0 L 179.0 95.0 L 181.0 95.0 L 183.0 95.0 L 185.0 95.0 L 187.0 95.0 L 189.0 95.0 L 191.0 95.0 L 193.0 94.0 L 194.0 94.0 L 196.0 94.0 L 198.0 93.0 L 199.0 93.0 L 201.0 93.0 L 203.0 92.0 L 204.0 92.0 L 206.0 92.0 L 209.0 92.0 L 211.0 92.0 L 214.0 92.0 L 217.0 92.0 L 220.0 92.0 L 223.0 92.0 L 226.0 92.0 L 229.0 92.0 L 231.0 92.0 L 233.0 92.0 L 234.0 92.0 L 234.0 92.0 L 235.0 92.0 " stroke="black" fill="none" stroke-width="5.0" stroke-linecap="round" stroke-linejoin="round" />
<path d="M 193.0 70.0 L 193.0 70.0 L 193.0 71.0 L 193.0 72.0 L 193.0 73.0 L 193.0 76.0 L 193.0 79.0 L 193.0 83.0 L 193.0 88.0 L 193.0 94.0 L 193.0 99.0 L 193.0 105.0 L 193.0 111.0 L 193.0 115.0 L 193.0 118.0 L 193.0 121.0 L 193.0 123.0 L 193.0 123.0 " stroke="black" fill="none" stroke-width="5.0" stroke-linecap="round" stroke-linejoin="round" />
<path d="M 62.0 143.0 L 62.0 143.0 L 62.0 143.0 L 62.0 143.0 L 62.0 143.0 L 61.0 143.0 L 61.0 143.0 L 61.0 144.0 L 61.0 144.0 L 61.0 144.0 L 61.0 144.0 L 61.0 144.0 L 61.0 145.0 L 61.0 145.0 L 61.0 145.0 L 61.0 145.0 L 61.0 146.0 L 62.0 146.0 L 62.0 146.0 L 63.0 146.0 L 63.0 146.0 L 64.0 146.0 L 65.0 147.0 L 66.0 147.0 L 66.0 147.0 L 67.0 147.0 L 68.0 147.0 L 69.0 147.0 L 71.0 147.0 L 72.0 147.0 L 73.0 147.0 L 74.0 147.0 L 75.0 147.0 L 76.0 146.0 L 77.0 146.0 L 78.0 146.0 L 79.0 146.0 L 80.0 146.0 L 81.0 146.0 L 82.0 146.0 L 83.0 146.0 L 85.0 146.0 L 86.0 146.0 L 88.0 146.0 L 89.0 146.0 L 91.0 146.0 L 92.0 146.0 L 94.0 146.0 L 95.0 146.0 L 96.0 146.0 L 97.0 146.0 L 99.0 146.0 L 100.0 146.0 L 101.0 146.0 L 101.0 146.0 L 102.0 146.0 L 103.0 146.0 L 104.0 146.0 L 105.0 146.0 L 105.0 146.0 L 106.0 146.0 L 107.0 146.0 L 107.0 146.0 L 108.0 146.0 L 108.0 146.0 L 109.0 146.0 L 110.0 146.0 L 110.0 146.0 L 111.0 146.0 L 112.0 145.0 L 112.0 145.0 L 113.0 145.0 L 114.0 145.0 L 115.0 145.0 L 116.0 145.0 L 117.0 145.0 L 118.0 145.0 L 118.0 145.0 L 119.0 145.0 L 120.0 145.0 L 121.0 145.0 L 122.0 145.0 L 123.0 145.0 L 124.0 145.0 L 125.0 145.0 L 126.0 145.0 L 128.0 145.0 L 129.0 145.0 L 130.0 145.0 L 132.0 145.0 L 133.0 145.0 L 134.0 145.0 L 135.0 144.0 L 136.0 144.0 L 138.0 144.0 L 139.0 144.0 L 140.0 144.0 L 141.0 144.0 L 143.0 144.0 L 143.0 144.0 L 144.0 144.0 L 146.0 144.0 L 146.0 144.0 L 147.0 144.0 L 148.0 144.0 L 149.0 144.0 L 150.0 144.0 L 151.0 144.0 L 151.0 144.0 L 152.0 144.0 L 153.0 144.0 L 153.0 144.0 L 154.0 144.0 L 155.0 144.0 L 155.0 144.0 L 156.0 143.0 L 156.0 143.0 L 157.0 143.0 L 158.0 143.0 L 158.0 143.0 L 159.0 143.0 L 160.0 143.0 L 161.0 143.0 L 161.0 143.0 L 162.0 143.0 L 163.0 143.0 L 164.0 143.0 L 165.0 143.0 L 166.0 143.0 L 167.0 143.0 L 168.0 143.0 L 168.0 143.0 L 169.0 143.0 L 170.0 143.0 L 171.0 143.0 L 172.0 143.0 L 173.0 143.0 L 174.0 143.0 L 175.0 143.0 L 177.0 143.0 L 178.0 143.0 L 178.0 143.0 L 179.0 143.0 L 180.0 144.0 L 181.0 144.0 L 182.0 144.0 L 183.0 144.0 L 184.0 144.0 L 185.0 144.0 L 186.0 144.0 L 187.0 144.0 L 188.0 144.0 L 189.0 144.0 L 190.0 144.0 L 191.0 145.0 L 192.0 145.0 L 192.0 145.0 L 193.0 145.0 L 194.0 145.0 L 194.0 145.0 L 195.0 145.0 L 196.0 145.0 L 196.0 146.0 L 197.0 146.0 L 197.0 146.0 L 198.0 146.0 L 199.0 146.0 L 200.0 146.0 L 200.0 146.0 L 201.0 146.0 L 202.0 146.0 L 203.0 146.0 L 204.0 146.0 L 204.0 146.0 L 205.0 146.0 L 206.0 146.0 L 207.0 146.0 L 207.0 146.0 L 208.0 146.0 L 209.0 146.0 L 210.0 146.0 L 210.0 146.0 L 211.0 146.0 L 212.0 146.0 L 212.0 146.0 L 213.0 146.0 L 214.0 146.0 L 214.0 146.0 L 215.0 146.0 L 216.0 146.0 L 217.0 146.0 L 218.0 146.0 L 219.0 146.0 L 220.0 146.0 L 221.0 146.0 L 222.0 146.0 L 223.0 146.0 L 224.0 146.0 L 225.0 146.0 L 227.0 146.0 L 228.0 146.0 L 229.0 146.0 L 230.0 147.0 L 231.0 147.0 L 232.0 148.0 L 233.0 148.0 L 234.0 148.0 L 235.0 149.0 L 235.0 149.0 L 236.0 149.0 L 237.0 149.0 L 237.0 149.0 " stroke="black" fill="none" stroke-width="5.0" stroke-linecap="round" stroke-linejoin="round" />
<path d="M 141.0 120.0 L 141.0 120.0 L 141.0 120.0 L 141.0 120.0 L 141.0 120.0 L 142.0 120.0 L 142.0 121.0 L 142.0 121.0 L 142.0 121.0 L 142.0 122.0 L 142.0 123.0 L 142.0 124.0 L 142.0 125.0 L 142.0 126.0 L 142.0 127.0 L 142.0 128.0 L 141.0 130.0 L 140.0 131.0 L 140.0 133.0 L 139.0 134.0 L 138.0 136.0 L 138.0 138.0 L 137.0 139.0 L 136.0 141.0 L 135.0 142.0 L 134.0 144.0 L 133.0 145.0 L 133.0 146.0 L 132.0 147.0 L 132.0 148.0 L 131.0 148.0 L 131.0 149.0 L 130.0 149.0 L 129.0 150.0 L 128.0 151.0 L 128.0 152.0 L 127.0 152.0 L 126.0 153.0 L 125.0 154.0 L 124.0 155.0 L 123.0 156.0 L 123.0 157.0 L 122.0 158.0 L 121.0 159.0 L 121.0 160.0 L 120.0 161.0 L 119.0 163.0 L 118.0 164.0 L 118.0 165.0 L 117.0 166.0 L 116.0 168.0 L 115.0 169.0 L 114.0 170.0 L 114.0 171.0 L 113.0 172.0 L 112.0 173.0 L 111.0 174.0 L 110.0 175.0 L 110.0 176.0 L 109.0 178.0 L 108.0 178.0 L 108.0 180.0 L 107.0 181.0 L 107.0 182.0 L 106.0 182.0 L 106.0 183.0 L 105.0 184.0 L 105.0 185.0 L 104.0 186.0 L 103.0 186.0 L 103.0 187.0 L 102.0 188.0 L 102.0 189.0 L 101.0 190.0 L 100.0 191.0 L 100.0 192.0 L 99.0 192.0 L 98.0 193.0 L 98.0 194.0 L 97.0 195.0 L 96.0 196.0 L 95.0 197.0 L 95.0 198.0 L 94.0 199.0 L 93.0 200.0 L 92.0 200.0 L 91.0 201.0 L 90.0 202.0 L 89.0 203.0 L 88.0 204.0 L 87.0 205.0 L 86.0 206.0 L 85.0 207.0 L 83.0 208.0 L 82.0 209.0 L 80.0 209.0 L 79.0 210.0 L 78.0 211.0 L 76.0 212.0 L 75.0 213.0 L 74.0 214.0 L 73.0 215.0 L 72.0 215.0 L 71.0 216.0 L 70.0 217.0 L 69.0 217.0 L 68.0 218.0 L 67.0 218.0 L 66.0 219.0 L 65.0 220.0 L 64.0 220.0 L 63.0 221.0 L 62.0 221.0 L 62.0 221.0 " stroke="black" fill="none" stroke-width="5.0" stroke-linecap="round" stroke-linejoin="round" />
<path d="M 108.0 184.0 L 108.0 184.0 L 108.0 184.0 L 108.0 184.0 L 108.0 184.0 L 108.0 184.0 L 108.0 184.0 L 108.0 184.0 L 108.0 185.0 L 108.0 186.0 L 107.0 187.0 L 107.0 189.0 L 107.0 191.0 L 107.0 194.0 L 107.0 198.0 L 107.0 202.0 L 106.0 208.0 L 106.0 214.0 L 106.0 221.0 L 106.0 228.0 L 106.0 235.0 L 106.0 240.0 L 106.0 243.0 L 106.0 247.0 L 106.0 248.0 L 106.0 249.0 L 106.0 249.0 L 106.0 249.0 " stroke="black" fill="none" stroke-width="5.0" stroke-linecap="round" stroke-linejoin="round" />
<path d="M 107.0 189.0 L 107.0 189.0 L 107.0 189.0 L 107.0 189.0 L 107.0 189.0 L 107.0 189.0 L 107.0 189.0 L 107.0 189.0 L 107.0 189.0 L 107.0 189.0 L 107.0 188.0 L 107.0 188.0 L 107.0 188.0 L 107.0 188.0 L 107.0 188.0 L 107.0 188.0 L 107.0 188.0 L 107.0 188.0 L 107.0 188.0 L 107.0 188.0 L 107.0 188.0 L 107.0 188.0 L 107.0 188.0 L 107.0 188.0 L 107.0 188.0 L 108.0 188.0 L 108.0 188.0 L 108.0 188.0 L 108.0 188.0 L 109.0 188.0 L 109.0 188.0 L 109.0 188.0 L 110.0 188.0 L 110.0 188.0 L 111.0 188.0 L 111.0 188.0 L 111.0 188.0 L 112.0 188.0 L 112.0 188.0 L 112.0 188.0 L 113.0 188.0 L 113.0 188.0 L 113.0 188.0 L 114.0 188.0 L 114.0 188.0 L 114.0 188.0 L 115.0 188.0 L 115.0 188.0 L 115.0 188.0 L 116.0 188.0 L 116.0 188.0 L 116.0 188.0 L 116.0 188.0 L 117.0 188.0 L 117.0 188.0 L 118.0 188.0 L 118.0 188.0 L 118.0 188.0 L 119.0 188.0 L 119.0 188.0 L 119.0 188.0 L 120.0 188.0 L 120.0 188.0 L 121.0 188.0 L 121.0 188.0 L 122.0 188.0 L 122.0 188.0 L 123.0 188.0 L 123.0 188.0 L 124.0 188.0 L 124.0 188.0 L 125.0 188.0 L 125.0 188.0 L 126.0 188.0 L 127.0 188.0 L 127.0 188.0 L 128.0 188.0 L 129.0 188.0 L 130.0 188.0 L 131.0 188.0 L 132.0 188.0 L 133.0 188.0 L 133.0 188.0 L 134.0 188.0 L 135.0 188.0 L 136.0 188.0 L 137.0 188.0 L 138.0 188.0 L 138.0 188.0 L 139.0 188.0 L 139.0 188.0 L 140.0 188.0 L 141.0 188.0 L 141.0 188.0 L 142.0 188.0 L 142.0 188.0 L 143.0 188.0 L 143.0 188.0 L 144.0 188.0 L 144.0 188.0 L 144.0 188.0 L 145.0 188.0 L 145.0 188.0 L 146.0 188.0 L 146.0 188.0 L 147.0 188.0 L 147.0 188.0 L 148.0 188.0 L 148.0 188.0 L 148.0 188.0 L 149.0 188.0 L 149.0 188.0 L 150.0 188.0 L 150.0 188.0 L 150.0 188.0 L 151.0 188.0 L 151.0 188.0 L 152.0 188.0 L 152.0 188.0 L 152.0 188.0 L 153.0 188.0 L 153.0 188.0 L 154.0 188.0 L 154.0 188.0 L 154.0 188.0 L 155.0 188.0 L 155.0 188.0 L 156.0 188.0 L 156.0 188.0 L 157.0 188.0 L 157.0 188.0 L 157.0 188.0 L 158.0 188.0 L 158.0 188.0 L 159.0 188.0 L 159.0 188.0 L 160.0 188.0 L 160.0 188.0 L 161.0 188.0 L 161.0 188.0 L 162.0 188.0 L 162.0 188.0 L 163.0 188.0 L 163.0 188.0 L 164.0 188.0 L 164.0 188.0 L 165.0 188.0 L 165.0 188.0 L 166.0 188.0 L 166.0 188.0 L 167.0 188.0 L 167.0 188.0 L 168.0 188.0 L 168.0 188.0 L 169.0 188.0 L 170.0 188.0 L 170.0 188.0 L 171.0 188.0 L 171.0 188.0 L 172.0 188.0 L 173.0 188.0 L 173.0 188.0 L 174.0 188.0 L 175.0 188.0 L 175.0 188.0 L 176.0 188.0 L 176.0 188.0 L 177.0 188.0 L 178.0 188.0 L 178.0 188.0 L 179.0 188.0 L 179.0 188.0 L 180.0 188.0 L 181.0 187.0 L 181.0 187.0 L 182.0 187.0 L 182.0 187.0 L 183.0 187.0 L 183.0 187.0 L 184.0 186.0 L 184.0 186.0 L 185.0 186.0 L 185.0 186.0 L 185.0 186.0 L 186.0 186.0 L 186.0 186.0 L 187.0 186.0 L 187.0 186.0 L 187.0 186.0 L 188.0 186.0 L 188.0 186.0 L 189.0 186.0 L 189.0 186.0 L 189.0 186.0 L 189.0 186.0 L 190.0 186.0 L 190.0 186.0 L 190.0 186.0 L 191.0 186.0 L 191.0 186.0 L 191.0 186.0 L 192.0 186.0 L 192.0 186.0 L 192.0 186.0 L 193.0 186.0 L 193.0 186.0 L 193.0 186.0 L 193.0 186.0 L 194.0 186.0 L 194.0 186.0 L 194.0 186.0 L 195.0 186.0 L 195.0 186.0 L 195.0 186.0 L 196.0 186.0 L 196.0 186.0 L 196.0 186.0 L 197.0 187.0 L 197.0 187.0 L 197.0 187.0 L 198.0 187.0 L 198.0 187.0 L 198.0 187.0 L 199.0 187.0 L 199.0 187.0 L 200.0 187.0 L 200.0 187.0 L 200.0 187.0 L 201.0 187.0 L 201.0 187.0 L 201.0 187.0 L 202.0 187.0 L 202.0 187.0 L 203.0 187.0 L 203.0 187.0 L 203.0 187.0 L 204.0 187.0 L 204.0 187.0 L 205.0 187.0 L 205.0 187.0 L 206.0 187.0 L 206.0 187.0 L 207.0 187.0 L 207.0 187.0 L 207.0 187.0 L 208.0 187.0 L 208.0 187.0 L 209.0 187.0 L 209.0 187.0 L 210.0 187.0 L 210.0 187.0 L 211.0 187.0 L 211.0 187.0 L 212.0 187.0 L 212.0 187.0 L 213.0 187.0 L 213.0 187.0 L 214.0 187.0 L 214.0 187.0 L 214.0 187.0 L 215.0 187.0 L 215.0 187.0 L 216.0 187.0 L 216.0 187.0 L 216.0 187.0 L 216.0 187.0 L 217.0 187.0 L 217.0 188.0 L 217.0 188.0 L 217.0 189.0 L 217.0 189.0 L 217.0 190.0 L 217.0 191.0 L 217.0 193.0 L 217.0 194.0 L 217.0 195.0 L 217.0 197.0 L 217.0 198.0 L 216.0 200.0 L 216.0 201.0 L 216.0 203.0 L 216.0 204.0 L 216.0 206.0 L 216.0 207.0 L 216.0 208.0 L 216.0 210.0 L 216.0 211.0 L 216.0 213.0 L 216.0 215.0 L 216.0 216.0 L 216.0 218.0 L 216.0 220.0 L 216.0 221.0 L 216.0 223.0 L 216.0 224.0 L 216.0 226.0 L 217.0 228.0 L 217.0 229.0 L 217.0 230.0 L 217.0 231.0 L 217.0 232.0 L 217.0 234.0 L 217.0 235.0 L 217.0 236.0 L 217.0 237.0 L 217.0 237.0 L 217.0 238.0 L 217.0 239.0 L 217.0 240.0 L 217.0 240.0 L 217.0 241.0 L 217.0 241.0 L 217.0 241.0 L 217.0 242.0 L 217.0 242.0 L 217.0 242.0 L 217.0 242.0 " stroke="black" fill="none" stroke-width="5.0" stroke-linecap="round" stroke-linejoin="round" />
<path d="M 107.0 248.0 L 107.0 248.0 L 107.0 248.0 L 107.0 248.0 L 107.0 248.0 L 107.0 248.0 L 107.0 248.0 L 107.0 247.0 L 107.0 247.0 L 107.0 247.0 L 107.0 247.0 L 107.0 247.0 L 107.0 247.0 L 107.0 247.0 L 107.0 247.0 L 107.0 247.0 L 108.0 247.0 L 108.0 247.0 L 109.0 247.0 L 109.0 246.0 L 110.0 246.0 L 111.0 246.0 L 112.0 246.0 L 114.0 246.0 L 115.0 246.0 L 116.0 246.0 L 118.0 246.0 L 119.0 246.0 L 120.0 246.0 L 122.0 246.0 L 123.0 246.0 L 124.0 246.0 L 126.0 246.0 L 127.0 246.0 L 128.0 246.0 L 129.0 246.0 L 131.0 246.0 L 132.0 246.0 L 133.0 246.0 L 134.0 246.0 L 136.0 246.0 L 137.0 246.0 L 139.0 246.0 L 140.0 246.0 L 142.0 246.0 L 143.0 246.0 L 144.0 246.0 L 146.0 245.0 L 147.0 245.0 L 148.0 245.0 L 149.0 245.0 L 150.0 245.0 L 150.0 245.0 L 151.0 245.0 L 152.0 245.0 L 152.0 244.0 L 153.0 244.0 L 154.0 244.0 L 154.0 244.0 L 155.0 244.0 L 156.0 244.0 L 157.0 243.0 L 158.0 243.0 L 159.0 243.0 L 160.0 243.0 L 161.0 243.0 L 162.0 243.0 L 163.0 243.0 L 164.0 243.0 L 165.0 243.0 L 167.0 243.0 L 168.0 243.0 L 169.0 243.0 L 171.0 243.0 L 172.0 243.0 L 174.0 243.0 L 176.0 243.0 L 178.0 243.0 L 179.0 243.0 L 181.0 243.0 L 182.0 243.0 L 184.0 243.0 L 185.0 243.0 L 186.0 243.0 L 187.0 243.0 L 188.0 243.0 L 189.0 243.0 L 190.0 243.0 L 191.0 243.0 L 192.0 243.0 L 192.0 243.0 L 193.0 243.0 L 194.0 243.0 L 194.0 243.0 L 195.0 243.0 L 196.0 243.0 L 197.0 243.0 L 197.0 243.0 L 198.0 244.0 L 199.0 244.0 L 200.0 244.0 L 201.0 244.0 L 202.0 244.0 L 203.0 244.0 L 204.0 244.0 L 205.0 244.0 L 206.0 244.0 L 207.0 244.0 L 209.0 244.0 L 210.0 244.0 L 212.0 244.0 L 214.0 244.0 L 215.0 244.0 L 217.0 243.0 L 219.0 243.0 L 220.0 242.0 L 221.0 242.0 L 223.0 241.0 L 223.0 241.0 L 224.0 240.0 L 224.0 240.0 " stroke="black" fill="none" stroke-width="5.0" stroke-linecap="round" stroke-linejoin="round" />
</svg>