<svg xmlns="http://www.w3.org/2000/svg" width="300" height="300" viewBox="0 0 300 300">
<path d="M 103.0 72.0 L 103.0 72.0 L 103.0 72.0 L 103.0 72.0 L 103.0 71.0 L 103.0 71.0 L 102.0 71.0 L 102.0 71.0 L 102.0 71.0 L 102.0 72.0 L 102.0 74.0 L 102.0 76.0 L 102.0 79.0 L 102.0 83.0 L 102.0 88.0 L 102.0 94.0 L 102.0 101.0 L 102.0 107.0 L 102.0 113.0 L 102.0 116.0 L 102.0 118.0 L 102.0 120.0 L 102.0 120.0 L 102.0 120.0 " stroke="black" fill="none" stroke-width="5.0" stroke-linecap="round" stroke-linejoin="round" />
<path d="M 67.0 93.0 L 67.0 93.0 L 67.0 93.0 L 67.0 93.0 L 67.0 93.0 L 67.0 93.0 L 67.0 93.0 L 67.0 93.0 L 67.0 93.0 L 67.0 93.0 L 67.0 93.0 L 67.0 92.0 L 67.0 92.0 L 67.0 92.0 L 68.0 92.0 L 69.0 92.0 L 70.0 91.0 L 71.0 91.0 L 73.0 91.0 L 75.0 91.0 L 78.0 91.0 L 81.0 91.0 L 85.0 91.0 L 89.0 91.0 L 93.0 91.0 L 97.0 91.0 L 101.0 91.0 L 104.0 90.0 L 108.0 90.0 L 110.0 90.0 L 113.0 89.0 L 116.0 89.0 L 119.0 88.0 L 121.0 88.0 L 124.0 87.0 L 126.0 87.0 L 128.0 87.0 L 130.0 87.0 L 132.0 87.0 L 133.0 88.0 " stroke="black" fill="none" stroke-width="5.0" stroke-linecap="round" stroke-linejoin="round" />
<path d="M 152.0 90.0 L 152.0 90.0 L 151.0 90.0 L 151.0 90.0 L 150.0 91.0 L 150.0 91.0 L 149.0 91.0 L 149.0 91.0 L 149.0 91.0 L 149.0 91.0 L 149.0 91.0 L 149.0 91.0 L 149.0 91.0 L 149.0 91.0 L 149.0 91.0 L 150.0 90.0 L 150.0 90.0 L 150.0 90.0 L 151.0 90.0 L 151.0 90.0 L 151.0 90.0 L 152.0 90.0 L 152.0 90.0 L 153.0 90.0 L 154.0 90.0 L 155.0 90.0 L 155.0 90.0 L 156.0 90.0 L 157.0 90.0 L 158.0 90.0 L 158.0 90.0 L 160.0 90.0 L 160.0 90.0 L 162.0 90.0 L 163.0 90.0 L 164.0 90.0 L 166.0 90.0 L 167.0 90.0 L 169.0 90.0 L 170.0 90.0 L 172.0 90.0 L 173.0 90.0 L 175.0 90.0 L 176.0 90.0 L 178.0 90.0 L 179.0 90.0 L 180.0 90.0 L 182.0 90.0 L 183.0 90.0 L 184.0 90.0 L 185.0 90.0 L 187.0 90.0 L 188.0 90.0 L 189.0 90.0 L 190.0 90.0 L 191.0 90.0 L 191.0 90.0 L 192.0 90.0 L 193.0 90.0 L 194.0 90.0 L 195.0 90.0 L 196.0 90.0 L 197.0 90.0 L 198.0 90.0 L 199.0 90.0 L 200.0 91.0 L 201.0 91.0 L 203.0 91.0 L 204.0 91.0 L 206.0 91.0 L 207.0 91.0 L 209.0 91.0 L 211.0 91.0 L 213.0 91.0 L 215.0 91.0 L 217.0 91.0 L 219.0 91.0 L 221.0 91.0 L 223.0 91.0 L 224.0 92.0 L 225.0 92.0 L 226.0 92.0 L 227.0 92.0 " stroke="black" fill="none" stroke-width="5.0" stroke-linecap="round" stroke-linejoin="round" />
<path d="M 193.0 72.0 L 193.0 72.0 L 193.0 72.0 L 193.0 73.0 L 193.0 74.0 L 193.0 75.0 L 193.0 76.0 L 193.0 77.0 L 193.0 80.0 L 194.0 83.0 L 194.0 87.0 L 194.0 92.0 L 194.0 97.0 L 194.0 103.0 L 194.0 107.0 L 194.0 111.0 L 194.0 113.0 L 194.0 113.0 " stroke="black" fill="none" stroke-width="5.0" stroke-linecap="round" stroke-linejoin="round" />
<path d="M 65.0 145.0 L 65.0 145.0 L 65.0 145.0 L 65.0 145.0 L 64.0 146.0 L 64.0 146.0 L 64.0 146.0 L 64.0 146.0 L 64.0 146.0 L 64.0 146.0 L 64.0 146.0 L 64.0 146.0 L 64.0 146.0 L 65.0 146.0 L 66.0 146.0 L 66.0 146.0 L 67.0 146.0 L 68.0 146.0 L 69.0 146.0 L 70.0 146.0 L 70.0 146.0 L 72.0 146.0 L 73.0 146.0 L 74.0 146.0 L 76.0 146.0 L 77.0 146.0 L 79.0 146.0 L 80.0 146.0 L 81.0 146.0 L 83.0 146.0 L 84.0 146.0 L 85.0 146.0 L 87.0 146.0 L 88.0 147.0 L 89.0 147.0 L 91.0 147.0 L 92.0 147.0 L 93.0 147.0 L 94.0 147.0 L 95.0 147.0 L 96.0 147.0 L 97.0 147.0 L 98.0 147.0 L 99.0 147.0 L 100.0 147.0 L 101.0 147.0 L 102.0 147.0 L 103.0 147.0 L 104.0 147.0 L 105.0 147.0 L 106.0 147.0 L 107.0 147.0 L 108.0 147.0 L 109.0 147.0 L 110.0 147.0 L 110.0 147.0 L 111.0 147.0 L 112.0 147.0 L 113.0 147.0 L 114.0 147.0 L 115.0 147.0 L 116.0 147.0 L 117.0 147.0 L 118.0 147.0 L 119.0 147.0 L 120.0 147.0 L 121.0 147.0 L 123.0 147.0 L 124.0 147.0 L 125.0 147.0 L 127.0 147.0 L 128.0 147.0 L 130.0 147.0 L 131.0 147.0 L 132.0 148.0 L 133.0 148.0 L 135.0 148.0 L 136.0 148.0 L 137.0 148.0 L 138.0 148.0 L 139.0 148.0 L 140.0 148.0 L 141.0 148.0 L 142.0 148.0 L 143.0 148.0 L 144.0 148.0 L 145.0 148.0 L 146.0 148.0 L 147.0 148.0 L 147.0 148.0 L 148.0 148.0 L 149.0 148.0 L 150.0 148.0 L 150.0 148.0 L 151.0 148.0 L 152.0 148.0 L 152.0 148.0 L 153.0 148.0 L 153.0 148.0 L 154.0 148.0 L 154.0 148.0 L 155.0 148.0 L 156.0 148.0 L 156.0 148.0 L 157.0 148.0 L 158.0 148.0 L 158.0 148.0 L 159.0 148.0 L 160.0 148.0 L 162.0 148.0 L 162.0 148.0 L 164.0 148.0 L 165.0 148.0 L 166.0 148.0 L 167.0 148.0 L 168.0 149.0 L 169.0 149.0 L 170.0 149.0 L 171.0 149.0 L 172.0 149.0 L 173.0 149.0 L 174.0 149.0 L 175.0 149.0 L 177.0 149.0 L 178.0 149.0 L 179.0 149.0 L 180.0 149.0 L 181.0 149.0 L 182.0 149.0 L 183.0 149.0 L 184.0 149.0 L 185.0 149.0 L 185.0 149.0 L 186.0 148.0 L 187.0 148.0 L 188.0 148.0 L 189.0 148.0 L 190.0 148.0 L 191.0 148.0 L 191.0 148.0 L 192.0 148.0 L 193.0 148.0 L 193.0 148.0 L 194.0 148.0 L 194.0 148.0 L 195.0 148.0 L 195.0 148.0 L 196.0 148.0 L 197.0 148.0 L 197.0 148.0 L 198.0 148.0 L 198.0 148.0 L 199.0 148.0 L 200.0 147.0 L 200.0 147.0 L 201.0 147.0 L 202.0 147.0 L 202.0 147.0 L 203.0 147.0 L 204.0 147.0 L 204.0 147.0 L 205.0 147.0 L 206.0 147.0 L 207.0 147.0 L 208.0 147.0 L 209.0 147.0 L 209.0 147.0 L 210.0 147.0 L 211.0 147.0 L 212.0 147.0 L 213.0 147.0 L 214.0 148.0 L 215.0 148.0 L 216.0 148.0 L 217.0 148.0 L 218.0 148.0 L 219.0 148.0 L 220.0 148.0 L 221.0 148.0 L 222.0 148.0 L 223.0 148.0 L 223.0 148.0 L 224.0 148.0 L 225.0 148.0 L 226.0 148.0 L 227.0 148.0 L 228.0 148.0 L 229.0 148.0 L 230.0 148.0 L 231.0 148.0 L 232.0 148.0 L 233.0 148.0 L 234.0 148.0 L 235.0 148.0 L 236.0 148.0 L 237.0 148.0 L 237.0 148.0 L 238.0 148.0 L 239.0 148.0 " stroke="black" fill="none" stroke-width="5.0" stroke-linecap="round" stroke-linejoin="round" />
<path d="M 143.0 122.0 L 143.0 122.0 L 143.0 122.0 L 143.0 123.0 L 143.0 123.0 L 142.0 123.0 L 142.0 123.0 L 142.0 124.0 L 142.0 124.0 L 142.0 124.0 L 142.0 124.0 L 142.0 125.0 L 142.0 125.0 L 142.0 125.0 L 142.0 126.0 L 141.0 126.0 L 141.0 127.0 L 141.0 128.0 L 141.0 129.0 L 141.0 131.0 L 140.0 133.0 L 140.0 134.0 L 139.0 136.0 L 139.0 138.0 L 139.0 140.0 L 138.0 142.0 L 137.0 144.0 L 137.0 146.0 L 136.0 148.0 L 135.0 149.0 L 135.0 151.0 L 134.0 152.0 L 133.0 154.0 L 132.0 155.0 L 131.0 156.0 L 130.0 157.0 L 129.0 159.0 L 128.0 160.0 L 127.0 161.0 L 126.0 162.0 L 125.0 164.0 L 124.0 165.0 L 123.0 166.0 L 122.0 167.0 L 121.0 169.0 L 120.0 170.0 L 119.0 171.0 L 118.0 172.0 L 117.0 174.0 L 115.0 175.0 L 114.0 176.0 L 114.0 177.0 L 113.0 179.0 L 112.0 180.0 L 111.0 181.0 L 110.0 183.0 L 109.0 184.0 L 108.0 185.0 L 107.0 187.0 L 106.0 189.0 L 105.0 190.0 L 104.0 191.0 L 103.0 193.0 L 103.0 194.0 L 101.0 196.0 L 100.0 197.0 L 99.0 198.0 L 98.0 199.0 L 97.0 200.0 L 95.0 201.0 L 94.0 203.0 L 92.0 204.0 L 91.0 205.0 L 89.0 206.0 L 87.0 207.0 L 85.0 209.0 L 83.0 210.0 L 81.0 211.0 L 79.0 212.0 L 76.0 214.0 L 74.0 215.0 L 72.0 216.0 L 70.0 218.0 L 68.0 219.0 L 66.0 221.0 L 64.0 222.0 L 62.0 223.0 L 61.0 224.0 L 60.0 225.0 L 59.0 225.0 L 59.0 225.0 " stroke="black" fill="none" stroke-width="5.0" stroke-linecap="round" stroke-linejoin="round" />
<path d="M 108.0 189.0 L 108.0 189.0 L 108.0 189.0 L 108.0 189.0 L 108.0 189.0 L 107.0 189.0 L 107.0 189.0 L 107.0 189.0 L 107.0 189.0 L 107.0 189.0 L 107.0 189.0 L 107.0 190.0 L 107.0 191.0 L 107.0 193.0 L 107.0 195.0 L 107.0 198.0 L 107.0 203.0 L 107.0 208.0 L 107.0 214.0 L 107.0 222.0 L 107.0 229.0 L 107.0 235.0 L 107.0 240.0 L 107.0 244.0 L 106.0 246.0 L 106.0 246.0 L 106.0 246.0 L 106.0 246.0 L 107.0 245.0 " stroke="black" fill="none" stroke-width="5.0" stroke-linecap="round" stroke-linejoin="round" />
<path d="M 111.0 188.0 L 111.0 188.0 L 111.0 188.0 L 110.0 188.0 L 110.0 187.0 L 110.0 187.0 L 109.0 187.0 L 109.0 187.0 L 109.0 187.0 L 109.0 186.0 L 109.0 186.0 L 109.0 186.0 L 109.0 186.0 L 109.0 186.0 L 109.0 186.0 L 109.0 186.0 L 109.0 186.0 L 110.0 186.0 L 110.0 186.0 L 110.0 186.0 L 111.0 186.0 L 112.0 186.0 L 112.0 186.0 L 113.0 186.0 L 114.0 186.0 L 115.0 186.0 L 116.0 186.0 L 117.0 186.0 L 118.0 186.0 L 119.0 186.0 L 121.0 186.0 L 122.0 186.0 L 123.0 186.0 L 125.0 186.0 L 126.0 186.0 L 127.0 186.0 L 129.0 185.0 L 130.0 185.0 L 132.0 185.0 L 133.0 185.0 L 134.0 185.0 L 135.0 185.0 L 137.0 185.0 L 138.0 184.0 L 139.0 184.0 L 140.0 184.0 L 141.0 184.0 L 142.0 184.0 L 143.0 184.0 L 144.0 184.0 L 145.0 184.0 L 146.0 184.0 L 147.0 184.0 L 148.0 184.0 L 149.0 184.0 L 150.0 184.0 L 150.0 184.0 L 151.0 184.0 L 152.0 184.0 L 153.0 184.0 L 154.0 184.0 L 154.0 184.0 L 155.0 184.0 L 156.0 183.0 L 157.0 183.0 L 158.0 183.0 L 159.0 183.0 L 160.0 183.0 L 161.0 183.0 L 162.0 183.0 L 164.0 183.0 L 165.0 183.0 L 166.0 183.0 L 167.0 183.0 L 168.0 183.0 L 169.0 183.0 L 171.0 183.0 L 172.0 183.0 L 173.0 183.0 L 174.0 183.0 L 176.0 183.0 L 177.0 183.0 L 178.0 183.0 L 179.0 183.0 L 180.0 183.0 L 181.0 183.0 L 182.0 183.0 L 182.0 183.0 L 183.0 184.0 L 184.0 184.0 L 185.0 184.0 L 186.0 184.0 L 187.0 184.0 L 188.0 184.0 L 189.0 184.0 L 190.0 184.0 L 190.0 184.0 L 191.0 184.0 L 192.0 185.0 L 193.0 185.0 L 193.0 185.0 L 194.0 185.0 L 194.0 185.0 L 195.0 185.0 L 196.0 185.0 L 196.0 185.0 L 197.0 185.0 L 197.0 185.0 L 198.0 185.0 L 198.0 185.0 L 199.0 185.0 L 200.0 185.0 L 200.0 185.0 L 201.0 185.0 L 202.0 185.0 L 202.0 185.0 L 203.0 185.0 L 204.0 186.0 L 205.0 186.0 L 206.0 186.0 L 206.0 186.0 L 207.0 186.0 L 208.0 186.0 L 209.0 186.0 L 210.0 186.0 L 211.0 186.0 L 212.0 186.0 L 212.0 186.0 L 213.0 187.0 L 214.0 187.0 L 214.0 187.0 L 215.0 187.0 L 215.0 187.0 L 215.0 187.0 L 216.0 187.0 L 216.0 188.0 L 216.0 188.0 L 216.0 188.0 L 216.0 189.0 L 216.0 189.0 L 216.0 190.0 L 216.0 191.0 L 216.0 192.0 L 216.0 193.0 L 216.0 194.0 L 216.0 196.0 L 216.0 197.0 L 216.0 199.0 L 216.0 201.0 L 216.0 204.0 L 216.0 206.0 L 216.0 209.0 L 216.0 212.0 L 216.0 214.0 L 216.0 217.0 L 216.0 221.0 L 216.0 224.0 L 216.0 227.0 L 216.0 230.0 L 216.0 232.0 L 216.0 234.0 L 216.0 236.0 L 216.0 238.0 L 216.0 239.0 L 216.0 240.0 L 216.0 241.0 L 216.0 242.0 L 216.0 243.0 L 216.0 244.0 L 216.0 244.0 L 217.0 245.0 L 217.0 245.0 L 217.0 245.0 " stroke="black" fill="none" stroke-width="5.0" stroke-linecap="round" stroke-linejoin="round" />
<path d="M 109.0 247.0 L 109.0 247.0 L 109.0 247.0 L 109.0 246.0 L 109.0 246.0 L 109.0 245.0 L 109.0 245.0 L 109.0 245.0 L 109.0 245.0 L 109.0 244.0 L 109.0 244.0 L 109.0 244.0 L 109.0 244.0 L 110.0 244.0 L 111.0 244.0 L 112.0 244.0 L 114.0 244.0 L 115.0 244.0 L 118.0 244.0 L 119.0 244.0 L 122.0 245.0 L 124.0 245.0 L 126.0 245.0 L 128.0 246.0 L 131.0 246.0 L 133.0 246.0 L 135.0 246.0 L 137.0 246.0 L 139.0 246.0 L 140.0 246.0 L 142.0 246.0 L 144.0 246.0 L 145.0 246.0 L 146.0 246.0 L 148.0 246.0 L 149.0 246.0 L 150.0 246.0 L 151.0 246.0 L 152.0 246.0 L 153.0 246.0 L 154.0 245.0 L 155.0 245.0 L 156.0 245.0 L 157.0 245.0 L 158.0 245.0 L 159.0 245.0 L 160.0 245.0 L 162.0 245.0 L 163.0 245.0 L 165.0 245.0 L 167.0 245.0 L 169.0 245.0 L 171.0 245.0 L 173.0 245.0 L 176.0 245.0 L 178.0 245.0 L 180.0 245.0 L 182.0 245.0 L 184.0 245.0 L 185.0 245.0 L 187.0 245.0 L 188.0 245.0 L 189.0 245.0 L 191.0 245.0 L 191.0 245.0 L 192.0 245.0 L 193.0 245.0 L 194.0 245.0 L 195.0 245.0 L 195.0 245.0 L 196.0 245.0 L 197.0 245.0 L 198.0 245.0 L 199.0 245.0 L 200.0 245.0 L 201.0 245.0 L 202.0 245.0 L 203.0 245.0 L 204.0 245.0 L 205.0 245.0 L 205.0 245.0 L 207.0 245.0 L 207.0 245.0 L 208.0 245.0 L 209.0 245.0 L 210.0 245.0 L 210.0 245.0 L 211.0 245.0 L 211.0 245.0 L 212.0 245.0 L 213.0 245.0 L 213.0 245.0 L 214.0 245.0 " stroke="black" fill="none" stroke-width="5.0" stroke-linecap="round" stroke-linejoin="round" />
</svg>