<svg xmlns="http://www.w3.org/2000/svg" width="300" height="300" viewBox="0 0 300 300">
<path d="M 106.0 71.0 L 106.0 71.0 L 106.0 71.0 L 105.0 71.0 L 105.0 72.0 L 104.0 73.0 L 104.0 75.0 L 104.0 78.0 L 104.0 81.0 L 105.0 86.0 L 106.0 91.0 L 107.0 96.0 L 107.0 102.0 L 107.0 107.0 L 107.0 112.0 L 107.0 116.0 L 107.0 118.0 " stroke="black" fill="none" stroke-width="5.0" stroke-linecap="round" stroke-linejoin="round" />
<path d="M 68.0 94.0 L 68.0 94.0 L 66.0 94.0 L 65.0 94.0 L 65.0 94.0 L 64.0 93.0 L 64.0 93.0 L 64.0 93.0 L 65.0 93.0 L 67.0 93.0 L 70.0 93.0 L 74.0 93.0 L 80.0 93.0 L 88.0 93.0 L 96.0 93.0 L 104.0 93.0 L 111.0 92.0 L 118.0 92.0 L 125.0 91.0 L 128.0 91.0 " stroke="black" fill="none" stroke-width="5.0" stroke-linecap="round" stroke-linejoin="round" />
<path d="M 159.0 97.0 L 158.0 97.0 L 157.0 97.0 L 156.0 97.0 L 155.0 97.0 L 155.0 97.0 L 155.0 97.0 L 155.0 97.0 L 158.0 97.0 L 161.0 97.0 L 166.0 97.0 L 171.0 97.0 L 177.0 97.0 L 184.0 97.0 L 190.0 97.0 L 196.0 96.0 L 203.0 96.0 L 209.0 96.0 L 214.0 95.0 L 219.0 94.0 L 223.0 94.0 L 225.0 94.0 L 226.0 94.0 " stroke="black" fill="none" stroke-width="5.0" stroke-linecap="round" stroke-linejoin="round" />
<path d="M 193.0 77.0 L 192.0 77.0 L 191.0 76.0 L 191.0 75.0 L 190.0 75.0 L 190.0 75.0 L 190.0 75.0 L 190.0 76.0 L 190.0 79.0 L 191.0 83.0 L 191.0 87.0 L 191.0 93.0 L 191.0 99.0 L 191.0 106.0 L 191.0 113.0 L 191.0 118.0 L 191.0 120.0 " stroke="black" fill="none" stroke-width="5.0" stroke-linecap="round" stroke-linejoin="round" />
<path d="M 62.0 147.0 L 62.0 147.0 L 61.0 147.0 L 61.0 147.0 L 60.0 147.0 L 60.0 147.0 L 60.0 147.0 L 59.0 147.0 L 59.0 147.0 L 59.0 147.0 L 59.0 147.0 L 60.0 146.0 L 60.0 146.0 L 61.0 146.0 L 62.0 145.0 L 63.0 145.0 L 63.0 145.0 L 64.0 145.0 L 65.0 145.0 L 66.0 145.0 L 67.0 145.0 L 68.0 145.0 L 69.0 145.0 L 71.0 144.0 L 72.0 144.0 L 74.0 144.0 L 76.0 144.0 L 77.0 144.0 L 79.0 144.0 L 80.0 144.0 L 82.0 144.0 L 84.0 144.0 L 85.0 144.0 L 87.0 144.0 L 88.0 144.0 L 90.0 144.0 L 91.0 144.0 L 92.0 144.0 L 94.0 144.0 L 95.0 144.0 L 96.0 144.0 L 97.0 144.0 L 98.0 145.0 L 99.0 145.0 L 100.0 145.0 L 101.0 145.0 L 102.0 145.0 L 103.0 145.0 L 104.0 146.0 L 105.0 146.0 L 107.0 146.0 L 108.0 146.0 L 109.0 146.0 L 110.0 146.0 L 111.0 146.0 L 112.0 146.0 L 114.0 146.0 L 115.0 146.0 L 117.0 146.0 L 118.0 146.0 L 120.0 146.0 L 122.0 146.0 L 124.0 146.0 L 126.0 146.0 L 128.0 146.0 L 131.0 146.0 L 133.0 146.0 L 135.0 146.0 L 137.0 145.0 L 139.0 145.0 L 141.0 145.0 L 143.0 145.0 L 144.0 144.0 L 146.0 144.0 L 147.0 144.0 L 149.0 144.0 L 150.0 144.0 L 152.0 143.0 L 153.0 143.0 L 155.0 143.0 L 156.0 143.0 L 158.0 143.0 L 160.0 143.0 L 161.0 143.0 L 163.0 143.0 L 166.0 143.0 L 169.0 143.0 L 172.0 143.0 L 175.0 143.0 L 179.0 143.0 L 183.0 143.0 L 187.0 143.0 L 190.0 143.0 L 194.0 143.0 L 197.0 143.0 L 200.0 143.0 L 203.0 143.0 L 206.0 143.0 L 210.0 143.0 L 214.0 143.0 L 217.0 143.0 L 221.0 143.0 L 225.0 143.0 L 228.0 143.0 L 230.0 143.0 L 232.0 143.0 L 233.0 143.0 L 234.0 143.0 L 234.0 143.0 L 234.0 144.0 L 234.0 145.0 " stroke="black" fill="none" stroke-width="5.0" stroke-linecap="round" stroke-linejoin="round" />
<path d="M 136.0 126.0 L 136.0 126.0 L 136.0 126.0 L 136.0 126.0 L 136.0 125.0 L 136.0 125.0 L 136.0 125.0 L 136.0 125.0 L 137.0 124.0 L 137.0 124.0 L 137.0 124.0 L 138.0 124.0 L 138.0 124.0 L 138.0 124.0 L 138.0 125.0 L 138.0 127.0 L 138.0 130.0 L 137.0 134.0 L 135.0 138.0 L 133.0 143.0 L 131.0 148.0 L 128.0 154.0 L 124.0 160.0 L 120.0 166.0 L 115.0 172.0 L 109.0 179.0 L 105.0 186.0 L 100.0 192.0 L 95.0 198.0 L 89.0 202.0 L 83.0 206.0 L 77.0 209.0 L 72.0 211.0 L 69.0 212.0 L 68.0 213.0 " stroke="black" fill="none" stroke-width="5.0" stroke-linecap="round" stroke-linejoin="round" />
<circle cx="107.0" cy="250.0" r="2.5" fill="black" />
<path d="M 107.0 195.0 L 107.0 195.0 L 107.0 195.0 L 107.0 194.0 L 107.0 194.0 L 107.0 193.0 L 107.0 193.0 L 107.0 193.0 L 107.0 193.0 L 107.0 193.0 L 107.0 193.0 L 107.0 193.0 L 107.0 194.0 L 107.0 197.0 L 107.0 201.0 L 107.0 206.0 L 107.0 213.0 L 107.0 220.0 L 107.0 229.0 L 107.0 235.0 L 106.0 241.0 L 106.0 245.0 L 106.0 247.0 L 106.0 247.0 L 107.0 247.0 " stroke="black" fill="none" stroke-width="5.0" stroke-linecap="round" stroke-linejoin="round" />
<path d="M 109.0 191.0 L 109.0 191.0 L 109.0 191.0 L 109.0 191.0 L 108.0 191.0 L 108.0 191.0 L 108.0 191.0 L 108.0 191.0 L 108.0 191.0 L 109.0 190.0 L 110.0 189.0 L 110.0 189.0 L 111.0 188.0 " stroke="black" fill="none" stroke-width="5.0" stroke-linecap="round" stroke-linejoin="round" />
<path d="M 115.0 187.0 L 116.0 187.0 L 118.0 187.0 L 119.0 186.0 L 120.0 186.0 L 122.0 186.0 L 123.0 185.0 L 124.0 185.0 L 125.0 185.0 L 126.0 185.0 L 127.0 185.0 L 128.0 185.0 L 128.0 185.0 L 129.0 185.0 L 130.0 185.0 L 131.0 185.0 L 131.0 185.0 L 132.0 185.0 L 133.0 185.0 L 133.0 185.0 L 134.0 185.0 L 135.0 185.0 L 135.0 185.0 L 136.0 185.0 L 137.0 185.0 L 138.0 185.0 L 139.0 185.0 L 139.0 185.0 L 140.0 185.0 L 141.0 185.0 L 142.0 185.0 L 143.0 185.0 L 143.0 185.0 L 144.0 185.0 L 145.0 184.0 L 146.0 184.0 L 146.0 184.0 L 147.0 184.0 L 148.0 184.0 L 149.0 184.0 L 149.0 184.0 L 150.0 184.0 L 151.0 184.0 L 151.0 183.0 L 152.0 183.0 L 153.0 183.0 L 153.0 183.0 L 154.0 183.0 L 155.0 183.0 L 155.0 183.0 L 156.0 183.0 L 157.0 183.0 L 158.0 183.0 L 159.0 183.0 L 160.0 183.0 L 161.0 183.0 L 162.0 183.0 L 163.0 183.0 L 165.0 183.0 L 166.0 183.0 L 168.0 183.0 L 169.0 183.0 L 171.0 183.0 L 173.0 183.0 L 175.0 183.0 L 177.0 183.0 L 178.0 183.0 L 180.0 183.0 L 182.0 183.0 L 183.0 183.0 L 185.0 183.0 L 186.0 183.0 L 188.0 183.0 L 189.0 183.0 L 190.0 183.0 L 191.0 183.0 L 192.0 183.0 L 193.0 183.0 L 194.0 183.0 L 194.0 183.0 L 195.0 183.0 L 196.0 184.0 L 197.0 184.0 L 197.0 184.0 L 198.0 184.0 L 199.0 184.0 L 199.0 185.0 L 200.0 185.0 L 201.0 185.0 L 202.0 185.0 L 203.0 185.0 L 203.0 185.0 L 204.0 185.0 L 205.0 186.0 L 206.0 186.0 L 207.0 186.0 L 208.0 186.0 L 209.0 186.0 L 210.0 186.0 L 211.0 186.0 L 212.0 186.0 L 213.0 186.0 L 214.0 186.0 L 215.0 186.0 L 216.0 186.0 L 216.0 187.0 L 217.0 187.0 L 217.0 187.0 L 217.0 188.0 L 217.0 189.0 L 217.0 190.0 L 217.0 191.0 L 217.0 192.0 L 217.0 195.0 L 217.0 197.0 L 217.0 200.0 L 217.0 204.0 L 217.0 209.0 L 216.0 213.0 L 216.0 218.0 L 216.0 222.0 L 216.0 226.0 L 216.0 229.0 L 216.0 231.0 L 216.0 233.0 L 216.0 233.0 L 215.0 234.0 L 215.0 234.0 " stroke="black" fill="none" stroke-width="5.0" stroke-linecap="round" stroke-linejoin="round" />
<path d="M 111.0 244.0 L 111.0 244.0 L 111.0 244.0 L 111.0 244.0 L 110.0 244.0 L 110.0 244.0 L 110.0 244.0 L 110.0 244.0 L 110.0 244.0 L 111.0 243.0 L 112.0 243.0 L 114.0 243.0 L 116.0 243.0 L 119.0 243.0 L 122.0 243.0 L 126.0 243.0 L 130.0 243.0 L 135.0 243.0 L 141.0 243.0 L 146.0 243.0 L 150.0 243.0 L 155.0 242.0 L 159.0 242.0 L 164.0 241.0 L 169.0 241.0 L 173.0 240.0 L 178.0 240.0 L 183.0 239.0 L 187.0 238.0 L 191.0 238.0 L 194.0 237.0 L 196.0 237.0 L 198.0 237.0 L 200.0 237.0 L 202.0 237.0 L 203.0 237.0 L 205.0 237.0 L 206.0 237.0 L 207.0 238.0 L 208.0 238.0 L 209.0 238.0 L 209.0 238.0 L 209.0 238.0 L 209.0 239.0 L 209.0 239.0 " stroke="black" fill="none" stroke-width="5.0" stroke-linecap="round" stroke-linejoin="round" />
</svg>