<svg xmlns="http://www.w3.org/2000/svg" width="300" height="300" viewBox="0 0 300 300">
<path d="M 118.0 96.0 L 117.0 96.0 L 117.0 96.0 L 116.0 96.0 L 115.0 96.0 L 115.0 97.0 L 114.0 97.0 L 114.0 97.0 L 113.0 97.0 L 113.0 97.0 L 113.0 97.0 L 113.0 97.0 L 113.0 97.0 L 113.0 97.0 L 114.0 97.0 L 114.0 97.0 L 115.0 96.0 L 116.0 96.0 L 116.0 96.0 L 117.0 96.0 L 118.0 96.0 L 119.0 96.0 L 120.0 96.0 L 121.0 96.0 L 122.0 96.0 L 123.0 96.0 L 123.0 96.0 L 124.0 96.0 L 125.0 96.0 L 126.0 96.0 L 127.0 96.0 L 128.0 96.0 L 129.0 96.0 L 130.0 96.0 L 131.0 96.0 L 132.0 96.0 L 133.0 96.0 L 133.0 96.0 L 134.0 96.0 L 135.0 96.0 L 136.0 96.0 L 137.0 96.0 L 138.0 96.0 L 139.0 96.0 L 140.0 96.0 L 141.0 95.0 L 141.0 95.0 L 142.0 95.0 L 143.0 95.0 L 144.0 95.0 L 144.0 95.0 L 145.0 95.0 L 146.0 95.0 L 146.0 95.0 L 147.0 95.0 L 148.0 95.0 L 148.0 95.0 L 149.0 95.0 L 149.0 95.0 L 150.0 95.0 L 150.0 95.0 L 151.0 95.0 L 151.0 95.0 L 152.0 95.0 L 152.0 95.0 L 153.0 95.0 L 153.0 95.0 L 154.0 95.0 L 154.0 95.0 L 155.0 95.0 L 155.0 95.0 L 156.0 95.0 L 157.0 95.0 L 158.0 95.0 L 158.0 95.0 L 159.0 96.0 L 160.0 96.0 L 160.0 96.0 L 161.0 96.0 L 162.0 97.0 L 163.0 97.0 L 164.0 97.0 L 165.0 98.0 L 165.0 98.0 L 166.0 98.0 L 167.0 99.0 L 168.0 99.0 L 169.0 99.0 L 170.0 100.0 L 171.0 100.0 L 171.0 100.0 L 172.0 100.0 L 173.0 101.0 L 174.0 101.0 L 175.0 101.0 L 175.0 102.0 L 176.0 102.0 L 177.0 102.0 L 178.0 103.0 L 178.0 103.0 L 179.0 103.0 L 180.0 104.0 L 180.0 104.0 L 181.0 105.0 L 181.0 105.0 L 182.0 106.0 L 183.0 106.0 L 183.0 107.0 L 184.0 107.0 L 185.0 108.0 L 185.0 109.0 L 186.0 109.0 L 187.0 110.0 L 187.0 111.0 L 188.0 111.0 L 189.0 112.0 L 189.0 113.0 L 189.0 113.0 L 190.0 114.0 L 190.0 114.0 L 190.0 115.0 L 191.0 115.0 L 191.0 116.0 L 191.0 116.0 L 191.0 117.0 L 191.0 117.0 L 192.0 118.0 L 192.0 118.0 L 192.0 119.0 L 192.0 120.0 L 192.0 121.0 L 192.0 121.0 L 192.0 122.0 L 193.0 123.0 L 193.0 123.0 L 193.0 124.0 L 193.0 125.0 L 193.0 126.0 L 193.0 127.0 L 194.0 127.0 L 194.0 128.0 L 194.0 129.0 L 194.0 129.0 L 194.0 130.0 L 194.0 131.0 L 194.0 132.0 L 194.0 132.0 L 194.0 133.0 L 194.0 134.0 L 194.0 135.0 L 194.0 135.0 L 194.0 136.0 L 194.0 137.0 L 194.0 137.0 L 194.0 138.0 L 194.0 139.0 L 194.0 139.0 L 194.0 140.0 L 194.0 141.0 L 194.0 142.0 L 194.0 142.0 L 194.0 143.0 L 194.0 144.0 L 194.0 145.0 L 194.0 146.0 L 194.0 146.0 L 194.0 147.0 L 194.0 148.0 L 193.0 148.0 L 193.0 149.0 L 193.0 150.0 L 192.0 150.0 L 192.0 151.0 L 191.0 152.0 L 191.0 152.0 L 190.0 153.0 L 190.0 154.0 L 189.0 154.0 L 189.0 155.0 L 188.0 155.0 L 188.0 156.0 L 187.0 156.0 L 187.0 157.0 L 186.0 157.0 L 185.0 158.0 L 185.0 158.0 L 184.0 159.0 L 183.0 159.0 L 182.0 160.0 L 182.0 160.0 L 181.0 160.0 L 180.0 161.0 L 179.0 161.0 L 178.0 162.0 L 177.0 162.0 L 176.0 162.0 L 175.0 163.0 L 174.0 163.0 L 173.0 163.0 L 171.0 164.0 L 170.0 164.0 L 169.0 164.0 L 168.0 165.0 L 167.0 165.0 L 165.0 166.0 L 164.0 166.0 L 162.0 166.0 L 161.0 167.0 L 159.0 167.0 L 158.0 168.0 L 156.0 168.0 L 155.0 169.0 L 154.0 169.0 L 152.0 170.0 L 151.0 170.0 L 150.0 170.0 L 149.0 171.0 L 149.0 171.0 L 148.0 171.0 L 147.0 171.0 L 146.0 171.0 L 146.0 171.0 L 145.0 171.0 L 144.0 171.0 L 143.0 171.0 L 141.0 170.0 L 140.0 170.0 L 138.0 170.0 L 137.0 170.0 L 135.0 170.0 L 133.0 170.0 L 131.0 170.0 L 129.0 169.0 L 127.0 169.0 L 125.0 169.0 L 123.0 169.0 L 122.0 168.0 L 120.0 168.0 L 119.0 167.0 " stroke="black" fill="none" stroke-width="5.0" stroke-linecap="round" stroke-linejoin="round" />
<path d="M 114.0 95.0 L 114.0 95.0 L 114.0 95.0 L 114.0 96.0 L 114.0 96.0 L 114.0 97.0 L 113.0 98.0 L 113.0 98.0 L 113.0 100.0 L 113.0 101.0 L 113.0 103.0 L 113.0 105.0 L 114.0 109.0 L 114.0 113.0 L 114.0 118.0 L 114.0 123.0 L 114.0 129.0 L 114.0 135.0 L 114.0 140.0 L 114.0 145.0 L 115.0 150.0 L 115.0 154.0 L 116.0 158.0 L 117.0 162.0 L 117.0 166.0 L 118.0 170.0 L 118.0 174.0 L 119.0 178.0 L 119.0 183.0 L 119.0 188.0 L 119.0 193.0 L 119.0 197.0 L 119.0 202.0 L 119.0 207.0 L 119.0 210.0 L 119.0 213.0 L 119.0 215.0 L 119.0 217.0 L 119.0 219.0 L 118.0 221.0 L 118.0 223.0 L 117.0 225.0 L 117.0 228.0 L 116.0 230.0 L 116.0 232.0 L 116.0 234.0 L 116.0 235.0 L 116.0 236.0 L 116.0 236.0 L 117.0 236.0 L 117.0 236.0 L 117.0 236.0 L 118.0 236.0 " stroke="black" fill="none" stroke-width="5.0" stroke-linecap="round" stroke-linejoin="round" />
</svg>