<svg xmlns="http://www.w3.org/2000/svg" width="300" height="300" viewBox="0 0 300 300">
<path d="M 137.0 83.0 L 137.0 83.0 L 137.0 83.0 L 137.0 83.0 L 137.0 83.0 L 136.0 83.0 L 136.0 83.0 L 136.0 84.0 L 135.0 84.0 L 135.0 84.0 L 134.0 85.0 L 133.0 85.0 L 133.0 86.0 L 132.0 86.0 L 131.0 87.0 L 130.0 88.0 L 130.0 88.0 L 129.0 89.0 L 129.0 90.0 L 128.0 90.0 L 128.0 91.0 L 127.0 92.0 L 127.0 93.0 L 126.0 93.0 L 126.0 94.0 L 125.0 95.0 L 125.0 97.0 L 124.0 98.0 L 124.0 99.0 L 123.0 101.0 L 123.0 102.0 L 123.0 103.0 L 122.0 104.0 L 122.0 105.0 L 122.0 107.0 L 122.0 107.0 L 121.0 109.0 L 121.0 110.0 L 121.0 111.0 L 121.0 112.0 L 121.0 113.0 L 121.0 114.0 L 120.0 116.0 L 120.0 117.0 L 120.0 118.0 L 120.0 120.0 L 120.0 121.0 L 120.0 122.0 L 120.0 123.0 L 120.0 123.0 L 121.0 124.0 L 121.0 125.0 L 122.0 126.0 L 122.0 127.0 L 123.0 128.0 L 123.0 129.0 L 124.0 130.0 L 124.0 131.0 L 125.0 132.0 L 125.0 133.0 L 126.0 134.0 L 127.0 134.0 L 127.0 135.0 L 128.0 136.0 L 129.0 136.0 L 130.0 137.0 L 131.0 138.0 L 132.0 138.0 L 132.0 139.0 L 133.0 139.0 L 134.0 140.0 L 135.0 141.0 L 135.0 141.0 L 136.0 142.0 L 136.0 142.0 L 137.0 143.0 L 138.0 144.0 L 138.0 144.0 L 139.0 144.0 L 139.0 145.0 L 140.0 145.0 L 141.0 146.0 L 141.0 146.0 L 142.0 146.0 L 143.0 146.0 L 143.0 147.0 L 144.0 147.0 L 144.0 147.0 L 145.0 147.0 L 145.0 147.0 L 146.0 147.0 L 146.0 147.0 L 147.0 147.0 L 148.0 148.0 L 148.0 148.0 L 149.0 148.0 L 149.0 148.0 L 150.0 148.0 L 150.0 148.0 L 151.0 148.0 L 151.0 148.0 L 152.0 148.0 L 153.0 148.0 L 153.0 148.0 L 154.0 148.0 L 155.0 148.0 L 156.0 147.0 L 157.0 147.0 L 158.0 146.0 L 158.0 146.0 L 159.0 145.0 L 160.0 145.0 L 161.0 144.0 L 162.0 143.0 L 163.0 143.0 L 164.0 142.0 L 165.0 142.0 L 165.0 141.0 L 166.0 140.0 L 167.0 140.0 L 168.0 139.0 L 168.0 138.0 L 169.0 138.0 L 170.0 137.0 L 171.0 136.0 L 171.0 135.0 L 172.0 134.0 L 173.0 133.0 L 173.0 132.0 L 174.0 132.0 L 174.0 131.0 L 175.0 130.0 L 175.0 129.0 L 176.0 128.0 L 177.0 127.0 L 177.0 125.0 L 178.0 124.0 L 178.0 123.0 L 179.0 122.0 L 179.0 121.0 L 179.0 120.0 L 179.0 119.0 L 180.0 118.0 L 180.0 117.0 L 180.0 116.0 L 180.0 115.0 L 180.0 113.0 L 180.0 112.0 L 180.0 111.0 L 180.0 110.0 L 180.0 108.0 L 180.0 107.0 L 180.0 106.0 L 180.0 105.0 L 180.0 103.0 L 179.0 102.0 L 179.0 100.0 L 178.0 99.0 L 178.0 97.0 L 178.0 95.0 L 177.0 94.0 L 177.0 93.0 L 177.0 91.0 L 176.0 90.0 L 176.0 89.0 L 175.0 88.0 L 175.0 87.0 L 174.0 86.0 L 173.0 85.0 L 173.0 84.0 L 172.0 84.0 L 171.0 83.0 L 171.0 82.0 L 170.0 82.0 L 169.0 81.0 L 169.0 80.0 L 168.0 80.0 L 167.0 79.0 L 166.0 79.0 L 165.0 78.0 L 164.0 78.0 L 163.0 78.0 L 162.0 77.0 L 161.0 77.0 L 160.0 77.0 L 159.0 76.0 L 158.0 76.0 L 157.0 76.0 L 156.0 76.0 L 155.0 75.0 L 153.0 75.0 L 152.0 75.0 L 151.0 75.0 L 150.0 75.0 L 149.0 75.0 L 148.0 75.0 L 146.0 75.0 L 145.0 75.0 L 143.0 75.0 L 142.0 75.0 L 141.0 76.0 L 139.0 77.0 L 138.0 77.0 L 137.0 78.0 L 135.0 79.0 L 134.0 79.0 L 134.0 80.0 L 133.0 81.0 L 132.0 82.0 L 132.0 83.0 L 131.0 84.0 L 131.0 85.0 " stroke="black" fill="none" stroke-width="5.0" stroke-linecap="round" stroke-linejoin="round" />
</svg>