<svg xmlns="http://www.w3.org/2000/svg" width="300" height="300" viewBox="0 0 300 300">
<path d="M 141.0 134.0 L 140.0 134.0 L 140.0 134.0 L 139.0 134.0 L 139.0 134.0 L 139.0 135.0 L 139.0 136.0 L 139.0 137.0 L 139.0 139.0 L 139.0 142.0 L 140.0 145.0 L 141.0 149.0 L 141.0 154.0 L 141.0 161.0 L 142.0 168.0 L 142.0 176.0 L 142.0 185.0 L 142.0 194.0 L 142.0 202.0 L 142.0 209.0 L 142.0 215.0 L 142.0 220.0 L 142.0 226.0 L 143.0 231.0 L 143.0 235.0 L 143.0 237.0 L 143.0 239.0 L 143.0 239.0 L 143.0 239.0 L 143.0 239.0 L 143.0 237.0 L 142.0 234.0 L 141.0 232.0 L 141.0 228.0 L 140.0 223.0 L 140.0 218.0 L 139.0 213.0 L 139.0 207.0 L 139.0 202.0 L 140.0 195.0 L 141.0 188.0 L 143.0 180.0 L 144.0 173.0 L 146.0 166.0 L 148.0 162.0 L 150.0 158.0 L 152.0 155.0 L 154.0 152.0 L 157.0 149.0 L 160.0 145.0 L 163.0 142.0 L 167.0 139.0 L 170.0 136.0 L 173.0 134.0 L 176.0 132.0 L 179.0 131.0 L 181.0 130.0 L 183.0 130.0 L 184.0 129.0 L 185.0 129.0 L 187.0 129.0 " stroke="black" fill="none" stroke-width="5.0" stroke-linecap="round" stroke-linejoin="round" />
</svg>