<svg xmlns="http://www.w3.org/2000/svg" width="300" height="300" viewBox="0 0 300 300">
<path d="M 125.0 74.0 L 125.0 74.0 L 125.0 74.0 L 124.0 74.0 L 124.0 74.0 L 123.0 73.0 L 123.0 73.0 L 123.0 73.0 L 123.0 72.0 L 123.0 71.0 L 124.0 70.0 L 125.0 69.0 L 126.0 68.0 L 127.0 67.0 L 128.0 66.0 L 130.0 65.0 L 132.0 64.0 L 133.0 64.0 L 135.0 63.0 L 138.0 62.0 L 141.0 62.0 L 143.0 61.0 L 146.0 61.0 L 149.0 61.0 L 152.0 61.0 L 154.0 61.0 L 155.0 61.0 L 157.0 61.0 L 158.0 62.0 L 159.0 64.0 L 160.0 65.0 L 160.0 67.0 L 161.0 69.0 L 161.0 71.0 L 161.0 73.0 L 161.0 76.0 L 161.0 78.0 L 161.0 81.0 L 161.0 84.0 L 161.0 86.0 L 161.0 88.0 L 160.0 91.0 L 159.0 93.0 L 159.0 95.0 L 158.0 98.0 L 157.0 101.0 L 156.0 103.0 L 155.0 106.0 L 153.0 109.0 L 152.0 111.0 L 151.0 113.0 L 149.0 116.0 L 148.0 118.0 L 146.0 120.0 L 144.0 122.0 L 142.0 123.0 L 139.0 125.0 L 137.0 127.0 L 134.0 128.0 L 131.0 130.0 L 128.0 132.0 L 126.0 133.0 L 124.0 134.0 L 122.0 135.0 L 121.0 135.0 L 120.0 135.0 L 120.0 135.0 L 119.0 135.0 L 119.0 135.0 L 119.0 135.0 L 118.0 135.0 L 118.0 135.0 L 118.0 135.0 L 118.0 135.0 L 118.0 135.0 L 118.0 135.0 L 118.0 135.0 L 119.0 136.0 L 120.0 136.0 L 121.0 136.0 L 123.0 136.0 L 126.0 136.0 L 129.0 136.0 L 133.0 136.0 L 137.0 136.0 L 142.0 136.0 L 147.0 136.0 L 152.0 136.0 L 157.0 136.0 L 163.0 135.0 L 168.0 134.0 L 173.0 134.0 L 177.0 134.0 L 180.0 133.0 L 182.0 133.0 L 183.0 133.0 " stroke="black" fill="none" stroke-width="5.0" stroke-linecap="round" stroke-linejoin="round" />
</svg>