<svg xmlns="http://www.w3.org/2000/svg" width="300" height="300" viewBox="0 0 300 300">
<path d="M 131.0 74.0 L 131.0 74.0 L 130.0 74.0 L 129.0 73.0 L 128.0 73.0 L 128.0 73.0 L 127.0 72.0 L 127.0 71.0 L 127.0 70.0 L 128.0 69.0 L 129.0 68.0 L 130.0 67.0 L 132.0 66.0 L 133.0 65.0 L 135.0 64.0 L 138.0 64.0 L 141.0 63.0 L 144.0 63.0 L 147.0 62.0 L 150.0 62.0 L 154.0 62.0 L 158.0 62.0 L 162.0 62.0 L 166.0 62.0 L 170.0 62.0 L 172.0 63.0 L 173.0 65.0 L 174.0 67.0 L 175.0 69.0 L 175.0 72.0 L 175.0 75.0 L 175.0 77.0 L 175.0 80.0 L 174.0 82.0 L 173.0 84.0 L 172.0 86.0 L 170.0 88.0 L 168.0 90.0 L 166.0 91.0 L 164.0 93.0 L 161.0 95.0 L 158.0 97.0 L 156.0 99.0 L 153.0 101.0 L 151.0 103.0 L 149.0 104.0 L 148.0 105.0 L 146.0 106.0 L 145.0 107.0 L 144.0 107.0 L 143.0 107.0 L 142.0 107.0 L 142.0 107.0 L 142.0 107.0 L 142.0 107.0 L 142.0 107.0 L 142.0 107.0 L 142.0 106.0 L 143.0 106.0 L 143.0 106.0 L 145.0 106.0 L 146.0 105.0 L 148.0 105.0 L 149.0 105.0 L 152.0 105.0 L 154.0 105.0 L 157.0 105.0 L 160.0 105.0 L 164.0 105.0 L 167.0 106.0 L 170.0 108.0 L 173.0 110.0 L 175.0 112.0 L 177.0 114.0 L 178.0 117.0 L 178.0 119.0 L 178.0 122.0 L 178.0 124.0 L 178.0 127.0 L 177.0 129.0 L 176.0 132.0 L 174.0 134.0 L 172.0 137.0 L 169.0 139.0 L 166.0 142.0 L 163.0 144.0 L 159.0 145.0 L 155.0 147.0 L 152.0 148.0 L 148.0 149.0 L 144.0 150.0 L 140.0 150.0 L 136.0 150.0 L 132.0 151.0 L 128.0 151.0 L 125.0 150.0 L 123.0 149.0 L 123.0 146.0 " stroke="black" fill="none" stroke-width="5.0" stroke-linecap="round" stroke-linejoin="round" />
</svg>