<svg xmlns="http://www.w3.org/2000/svg" width="300" height="300" viewBox="0 0 300 300">
<path d="M 111.0 89.0 L 111.0 89.0 L 110.0 89.0 L 110.0 89.0 L 110.0 89.0 L 109.0 89.0 L 109.0 91.0 L 109.0 95.0 L 109.0 100.0 L 109.0 107.0 L 109.0 114.0 L 109.0 123.0 L 109.0 133.0 L 109.0 145.0 L 109.0 157.0 L 109.0 169.0 L 109.0 181.0 L 109.0 194.0 L 109.0 204.0 L 109.0 212.0 L 109.0 219.0 L 109.0 224.0 L 109.0 228.0 L 109.0 231.0 " stroke="black" fill="none" stroke-width="5.0" stroke-linecap="round" stroke-linejoin="round" />
<path d="M 114.0 90.0 L 114.0 90.0 L 114.0 90.0 L 114.0 90.0 L 113.0 90.0 L 113.0 90.0 L 113.0 90.0 L 112.0 90.0 L 112.0 90.0 L 112.0 90.0 L 112.0 90.0 L 112.0 90.0 L 112.0 90.0 L 112.0 90.0 L 112.0 90.0 L 113.0 90.0 L 114.0 90.0 L 114.0 90.0 L 115.0 90.0 L 116.0 90.0 L 117.0 90.0 L 118.0 90.0 L 119.0 90.0 L 120.0 91.0 L 122.0 91.0 L 124.0 91.0 L 126.0 91.0 L 128.0 92.0 L 130.0 92.0 L 132.0 93.0 L 133.0 93.0 L 135.0 94.0 L 137.0 94.0 L 138.0 95.0 L 140.0 95.0 L 141.0 95.0 L 142.0 96.0 L 143.0 96.0 L 144.0 97.0 L 146.0 97.0 L 147.0 98.0 L 148.0 98.0 L 149.0 98.0 L 150.0 99.0 L 151.0 99.0 L 152.0 99.0 L 153.0 99.0 L 154.0 99.0 L 155.0 100.0 L 156.0 100.0 L 157.0 100.0 L 157.0 100.0 L 158.0 100.0 L 159.0 101.0 L 160.0 101.0 L 161.0 102.0 L 162.0 102.0 L 163.0 103.0 L 165.0 103.0 L 166.0 104.0 L 167.0 104.0 L 168.0 105.0 L 169.0 105.0 L 171.0 106.0 L 172.0 107.0 L 173.0 107.0 L 174.0 108.0 L 176.0 109.0 L 177.0 109.0 L 178.0 110.0 L 179.0 110.0 L 180.0 111.0 L 181.0 112.0 L 182.0 112.0 L 182.0 113.0 L 183.0 113.0 L 184.0 114.0 L 184.0 115.0 L 185.0 115.0 L 186.0 116.0 L 186.0 117.0 L 187.0 117.0 L 187.0 118.0 L 188.0 119.0 L 188.0 120.0 L 189.0 121.0 L 189.0 122.0 L 189.0 123.0 L 190.0 124.0 L 190.0 125.0 L 190.0 126.0 L 191.0 127.0 L 191.0 128.0 L 191.0 129.0 L 192.0 130.0 L 192.0 131.0 L 192.0 133.0 L 192.0 134.0 L 193.0 135.0 L 193.0 136.0 L 193.0 138.0 L 193.0 139.0 L 193.0 141.0 L 194.0 143.0 L 194.0 144.0 L 194.0 146.0 L 194.0 147.0 L 194.0 149.0 L 194.0 150.0 L 194.0 152.0 L 194.0 153.0 L 194.0 155.0 L 194.0 156.0 L 194.0 158.0 L 194.0 159.0 L 194.0 161.0 L 194.0 162.0 L 194.0 164.0 L 194.0 166.0 L 194.0 167.0 L 194.0 169.0 L 194.0 170.0 L 194.0 172.0 L 194.0 173.0 L 194.0 175.0 L 194.0 176.0 L 194.0 178.0 L 194.0 180.0 L 194.0 181.0 L 194.0 183.0 L 194.0 185.0 L 194.0 187.0 L 194.0 188.0 L 193.0 190.0 L 193.0 192.0 L 193.0 194.0 L 192.0 196.0 L 192.0 197.0 L 192.0 199.0 L 191.0 201.0 L 191.0 202.0 L 190.0 204.0 L 190.0 205.0 L 189.0 207.0 L 188.0 208.0 L 187.0 210.0 L 187.0 211.0 L 185.0 213.0 L 184.0 214.0 L 183.0 216.0 L 182.0 217.0 L 180.0 218.0 L 179.0 220.0 L 177.0 221.0 L 174.0 223.0 L 171.0 225.0 L 169.0 228.0 L 166.0 230.0 L 163.0 232.0 L 161.0 233.0 L 158.0 235.0 L 156.0 236.0 L 154.0 237.0 L 152.0 238.0 L 150.0 239.0 L 149.0 240.0 L 147.0 240.0 L 145.0 241.0 L 143.0 241.0 L 140.0 242.0 L 137.0 243.0 L 133.0 243.0 L 129.0 244.0 L 125.0 244.0 L 122.0 245.0 L 118.0 245.0 L 116.0 245.0 L 115.0 245.0 " stroke="black" fill="none" stroke-width="5.0" stroke-linecap="round" stroke-linejoin="round" />
</svg>