<svg xmlns="http://www.w3.org/2000/svg" width="300" height="300" viewBox="0 0 300 300">
<path d="M 109.0 94.0 L 109.0 94.0 L 109.0 93.0 L 108.0 92.0 L 108.0 92.0 L 108.0 91.0 L 108.0 91.0 L 108.0 91.0 L 108.0 91.0 L 108.0 93.0 L 109.0 96.0 L 111.0 100.0 L 113.0 105.0 L 115.0 110.0 L 118.0 115.0 L 122.0 120.0 L 127.0 126.0 L 132.0 132.0 L 136.0 137.0 L 140.0 143.0 L 144.0 149.0 L 146.0 153.0 L 148.0 157.0 L 149.0 161.0 L 150.0 163.0 L 151.0 164.0 L 152.0 165.0 L 152.0 165.0 " stroke="black" fill="none" stroke-width="5.0" stroke-linecap="round" stroke-linejoin="round" />
<path d="M 190.0 98.0 L 190.0 98.0 L 190.0 97.0 L 190.0 97.0 L 190.0 96.0 L 190.0 96.0 L 190.0 96.0 L 190.0 96.0 L 190.0 96.0 L 189.0 97.0 L 188.0 99.0 L 187.0 102.0 L 185.0 105.0 L 184.0 109.0 L 182.0 113.0 L 179.0 118.0 L 176.0 123.0 L 173.0 129.0 L 169.0 134.0 L 165.0 140.0 L 161.0 145.0 L 158.0 150.0 L 155.0 155.0 L 153.0 158.0 L 152.0 160.0 L 151.0 162.0 L 150.0 164.0 L 150.0 165.0 L 149.0 166.0 L 149.0 166.0 L 149.0 166.0 L 149.0 166.0 L 149.0 166.0 L 149.0 166.0 L 149.0 166.0 L 149.0 166.0 L 149.0 166.0 L 149.0 166.0 L 149.0 166.0 L 149.0 166.0 L 149.0 166.0 L 149.0 166.0 L 149.0 166.0 L 149.0 166.0 L 149.0 166.0 L 149.0 166.0 L 149.0 167.0 L 149.0 168.0 L 149.0 169.0 L 149.0 170.0 L 150.0 172.0 L 150.0 175.0 L 150.0 179.0 L 150.0 183.0 L 151.0 189.0 L 151.0 195.0 L 151.0 202.0 L 152.0 208.0 L 152.0 214.0 L 152.0 218.0 L 152.0 223.0 L 152.0 226.0 L 152.0 229.0 L 152.0 231.0 L 152.0 233.0 L 151.0 234.0 L 151.0 235.0 L 151.0 235.0 " stroke="black" fill="none" stroke-width="5.0" stroke-linecap="round" stroke-linejoin="round" />
</svg>