<svg xmlns="http://www.w3.org/2000/svg" width="300" height="300" viewBox="0 0 300 300">
<path d="M 131.0 87.0 L 131.0 87.0 L 131.0 87.0 L 131.0 87.0 L 131.0 87.0 L 131.0 87.0 L 131.0 87.0 L 131.0 87.0 L 131.0 87.0 L 131.0 87.0 L 131.0 88.0 L 131.0 88.0 L 131.0 90.0 L 131.0 93.0 L 131.0 96.0 L 131.0 101.0 L 131.0 107.0 L 131.0 112.0 L 131.0 117.0 L 131.0 121.0 " stroke="black" fill="none" stroke-width="5.0" stroke-linecap="round" stroke-linejoin="round" />
<path d="M 173.0 87.0 L 173.0 87.0 L 173.0 87.0 L 173.0 87.0 L 173.0 87.0 L 173.0 87.0 L 173.0 87.0 L 173.0 88.0 L 173.0 88.0 L 173.0 89.0 L 173.0 91.0 L 173.0 94.0 L 173.0 98.0 L 173.0 103.0 L 173.0 107.0 L 173.0 112.0 L 173.0 116.0 L 173.0 119.0 L 173.0 121.0 L 173.0 123.0 L 173.0 124.0 L 173.0 124.0 " stroke="black" fill="none" stroke-width="5.0" stroke-linecap="round" stroke-linejoin="round" />
</svg>