<svg xmlns="http://www.w3.org/2000/svg" width="300" height="300" viewBox="0 0 300 300">
<path d="M 106.0 97.0 L 106.0 96.0 L 105.0 95.0 L 105.0 94.0 L 105.0 94.0 L 105.0 93.0 L 105.0 93.0 L 105.0 95.0 L 105.0 97.0 L 105.0 101.0 L 105.0 106.0 L 105.0 112.0 L 105.0 119.0 L 104.0 128.0 L 104.0 141.0 L 104.0 154.0 L 104.0 167.0 L 104.0 181.0 L 104.0 193.0 L 104.0 203.0 L 105.0 212.0 L 105.0 218.0 L 105.0 223.0 L 105.0 228.0 L 106.0 232.0 " stroke="black" fill="none" stroke-width="5.0" stroke-linecap="round" stroke-linejoin="round" />
<path d="M 192.0 102.0 L 192.0 102.0 L 192.0 103.0 L 191.0 103.0 L 191.0 104.0 L 191.0 105.0 L 191.0 106.0 L 191.0 108.0 L 191.0 111.0 L 191.0 114.0 L 192.0 119.0 L 192.0 125.0 L 192.0 133.0 L 192.0 143.0 L 192.0 153.0 L 192.0 163.0 L 192.0 175.0 L 192.0 186.0 L 192.0 196.0 L 192.0 206.0 L 192.0 213.0 L 192.0 219.0 L 192.0 225.0 L 192.0 230.0 L 192.0 233.0 L 192.0 236.0 L 192.0 237.0 " stroke="black" fill="none" stroke-width="5.0" stroke-linecap="round" stroke-linejoin="round" />
<path d="M 106.0 166.0 L 106.0 166.0 L 105.0 166.0 L 104.0 166.0 L 103.0 166.0 L 103.0 166.0 L 102.0 166.0 L 102.0 165.0 L 102.0 165.0 L 104.0 165.0 L 105.0 164.0 L 107.0 164.0 L 109.0 164.0 L 112.0 163.0 L 115.0 163.0 L 119.0 163.0 L 123.0 162.0 L 128.0 162.0 L 134.0 161.0 L 140.0 161.0 L 145.0 160.0 L 150.0 160.0 L 154.0 159.0 L 157.0 159.0 L 160.0 159.0 L 163.0 159.0 L 166.0 159.0 L 168.0 159.0 L 169.0 159.0 L 171.0 159.0 L 173.0 159.0 L 175.0 159.0 L 176.0 159.0 " stroke="black" fill="none" stroke-width="5.0" stroke-linecap="round" stroke-linejoin="round" />
</svg>