<svg xmlns="http://www.w3.org/2000/svg" width="300" height="300" viewBox="0 0 300 300">
<path d="M 149.0 140.0 L 149.0 140.0 L 149.0 140.0 L 149.0 140.0 L 148.0 140.0 L 148.0 140.0 L 148.0 140.0 L 148.0 140.0 L 148.0 140.0 L 148.0 140.0 L 148.0 141.0 L 148.0 141.0 L 148.0 141.0 L 148.0 141.0 L 149.0 141.0 L 149.0 141.0 L 149.0 141.0 L 150.0 141.0 L 150.0 141.0 L 150.0 141.0 L 150.0 141.0 L 150.0 141.0 L 150.0 141.0 L 150.0 141.0 L 150.0 141.0 L 150.0 141.0 L 150.0 141.0 L 150.0 142.0 L 150.0 143.0 L 150.0 144.0 L 151.0 144.0 L 151.0 145.0 L 151.0 145.0 L 152.0 145.0 L 152.0 145.0 L 152.0 145.0 L 153.0 145.0 L 153.0 144.0 L 153.0 143.0 L 153.0 142.0 L 153.0 141.0 L 152.0 140.0 L 152.0 139.0 L 151.0 139.0 L 151.0 139.0 L 150.0 138.0 L 150.0 138.0 L 149.0 139.0 L 149.0 140.0 L 149.0 141.0 L 149.0 142.0 L 149.0 144.0 L 149.0 145.0 L 150.0 146.0 L 151.0 146.0 L 152.0 147.0 L 153.0 147.0 L 154.0 147.0 L 155.0 147.0 L 155.0 146.0 L 156.0 145.0 L 156.0 144.0 L 156.0 142.0 L 155.0 141.0 L 154.0 139.0 L 153.0 138.0 L 152.0 137.0 L 151.0 137.0 L 150.0 137.0 L 149.0 137.0 L 149.0 137.0 L 148.0 139.0 L 148.0 140.0 L 148.0 142.0 L 148.0 144.0 L 148.0 146.0 L 148.0 147.0 L 149.0 148.0 L 149.0 149.0 L 150.0 149.0 L 151.0 149.0 L 152.0 149.0 L 153.0 149.0 L 154.0 148.0 L 154.0 146.0 L 155.0 144.0 L 155.0 143.0 L 155.0 141.0 L 154.0 140.0 L 154.0 139.0 L 153.0 138.0 L 152.0 138.0 L 151.0 138.0 L 150.0 138.0 L 150.0 139.0 L 149.0 141.0 L 148.0 143.0 L 148.0 145.0 L 148.0 147.0 L 148.0 149.0 L 148.0 151.0 L 148.0 152.0 L 149.0 153.0 L 151.0 153.0 L 152.0 153.0 L 154.0 153.0 L 156.0 151.0 L 157.0 149.0 L 159.0 146.0 L 159.0 143.0 L 160.0 141.0 L 160.0 139.0 L 159.0 138.0 L 158.0 137.0 L 156.0 136.0 L 155.0 136.0 L 153.0 136.0 L 152.0 136.0 L 151.0 137.0 L 151.0 138.0 L 150.0 140.0 L 150.0 142.0 L 150.0 144.0 L 150.0 146.0 L 150.0 147.0 L 150.0 149.0 L 151.0 150.0 L 152.0 151.0 L 153.0 151.0 L 154.0 151.0 L 155.0 150.0 L 156.0 149.0 L 156.0 148.0 L 156.0 146.0 L 156.0 144.0 L 156.0 143.0 L 155.0 141.0 L 154.0 140.0 L 153.0 139.0 L 152.0 139.0 L 151.0 138.0 L 150.0 138.0 L 149.0 138.0 L 148.0 138.0 L 147.0 139.0 L 147.0 141.0 L 147.0 143.0 L 146.0 144.0 L 146.0 146.0 L 146.0 147.0 L 147.0 148.0 L 148.0 149.0 L 148.0 149.0 L 149.0 149.0 L 150.0 149.0 L 151.0 147.0 L 152.0 146.0 L 152.0 144.0 L 153.0 142.0 L 153.0 141.0 L 153.0 139.0 L 153.0 138.0 L 153.0 137.0 L 152.0 137.0 L 151.0 137.0 L 150.0 137.0 L 149.0 138.0 L 148.0 139.0 L 147.0 141.0 L 147.0 144.0 L 146.0 146.0 L 146.0 148.0 L 146.0 150.0 L 146.0 152.0 L 147.0 153.0 L 148.0 154.0 L 150.0 154.0 L 151.0 154.0 L 152.0 154.0 L 154.0 152.0 L 155.0 151.0 L 156.0 149.0 L 156.0 147.0 L 156.0 146.0 L 156.0 144.0 L 156.0 143.0 L 155.0 142.0 L 154.0 141.0 L 153.0 140.0 L 152.0 139.0 L 151.0 139.0 L 150.0 139.0 L 148.0 139.0 L 148.0 139.0 L 147.0 140.0 L 146.0 142.0 L 146.0 143.0 L 146.0 145.0 L 146.0 147.0 L 147.0 148.0 L 148.0 149.0 L 149.0 150.0 L 150.0 150.0 L 152.0 150.0 L 153.0 150.0 L 153.0 150.0 L 154.0 149.0 L 155.0 148.0 L 155.0 147.0 L 155.0 146.0 L 155.0 145.0 L 155.0 144.0 L 154.0 143.0 L 153.0 143.0 L 152.0 143.0 L 152.0 143.0 L 151.0 143.0 L 151.0 144.0 " stroke="black" fill="none" stroke-width="5.0" stroke-linecap="round" stroke-linejoin="round" />
<path d="M 151.0 227.0 L 151.0 227.0 L 151.0 227.0 L 151.0 227.0 L 151.0 227.0 L 150.0 227.0 L 150.0 227.0 L 150.0 227.0 L 150.0 227.0 L 150.0 227.0 L 150.0 228.0 L 150.0 229.0 L 150.0 230.0 L 150.0 231.0 L 151.0 232.0 L 152.0 232.0 L 153.0 233.0 L 154.0 233.0 L 155.0 232.0 L 155.0 231.0 L 155.0 229.0 L 155.0 227.0 L 155.0 225.0 L 155.0 224.0 L 154.0 222.0 L 153.0 221.0 L 152.0 221.0 L 150.0 220.0 L 150.0 220.0 L 149.0 221.0 L 148.0 222.0 L 148.0 224.0 L 147.0 226.0 L 147.0 228.0 L 147.0 229.0 L 147.0 231.0 L 148.0 232.0 L 149.0 232.0 L 150.0 233.0 L 152.0 233.0 L 153.0 232.0 L 155.0 230.0 L 156.0 228.0 L 157.0 226.0 L 157.0 223.0 L 157.0 221.0 L 157.0 219.0 L 155.0 218.0 L 154.0 217.0 L 152.0 216.0 L 151.0 216.0 L 149.0 216.0 L 148.0 217.0 L 146.0 219.0 L 146.0 221.0 L 145.0 224.0 L 145.0 226.0 L 145.0 229.0 L 145.0 231.0 L 145.0 233.0 L 146.0 234.0 L 148.0 235.0 L 150.0 235.0 L 151.0 235.0 L 153.0 234.0 L 154.0 232.0 L 155.0 230.0 L 156.0 228.0 L 156.0 225.0 L 156.0 223.0 L 156.0 221.0 L 155.0 220.0 L 154.0 219.0 L 152.0 218.0 L 151.0 218.0 L 150.0 218.0 L 149.0 218.0 L 148.0 219.0 L 148.0 221.0 L 148.0 224.0 L 148.0 227.0 L 148.0 229.0 L 148.0 231.0 L 148.0 232.0 L 149.0 234.0 L 150.0 234.0 L 151.0 234.0 L 152.0 234.0 L 153.0 233.0 L 154.0 232.0 L 154.0 230.0 L 155.0 228.0 L 155.0 227.0 L 155.0 225.0 L 155.0 224.0 L 155.0 223.0 L 155.0 223.0 L 155.0 223.0 L 155.0 223.0 L 154.0 223.0 L 154.0 224.0 L 153.0 225.0 L 153.0 226.0 L 153.0 227.0 L 152.0 228.0 L 152.0 229.0 L 152.0 230.0 L 152.0 230.0 L 152.0 230.0 L 152.0 230.0 L 152.0 230.0 L 152.0 230.0 L 152.0 230.0 L 152.0 230.0 L 152.0 229.0 L 152.0 229.0 L 152.0 228.0 L 152.0 228.0 L 152.0 227.0 L 152.0 227.0 L 152.0 227.0 L 152.0 227.0 L 152.0 227.0 L 153.0 227.0 L 153.0 228.0 L 153.0 228.0 L 153.0 229.0 L 153.0 229.0 L 154.0 229.0 L 154.0 229.0 L 154.0 229.0 L 154.0 229.0 L 155.0 229.0 L 155.0 229.0 L 155.0 229.0 L 155.0 229.0 L 155.0 229.0 L 155.0 229.0 L 155.0 229.0 L 155.0 229.0 L 156.0 229.0 L 156.0 229.0 L 156.0 229.0 L 156.0 229.0 L 156.0 228.0 L 156.0 228.0 L 156.0 228.0 L 156.0 228.0 L 156.0 228.0 L 156.0 228.0 L 156.0 228.0 L 157.0 227.0 L 157.0 227.0 L 157.0 227.0 L 157.0 227.0 L 157.0 227.0 L 157.0 227.0 L 157.0 227.0 L 157.0 227.0 L 157.0 227.0 L 157.0 227.0 L 157.0 227.0 L 157.0 227.0 L 157.0 227.0 L 157.0 228.0 L 157.0 228.0 L 157.0 229.0 L 157.0 229.0 L 157.0 230.0 L 158.0 231.0 L 158.0 232.0 L 158.0 233.0 L 158.0 234.0 L 159.0 235.0 L 159.0 237.0 L 159.0 238.0 L 159.0 240.0 L 159.0 241.0 L 159.0 243.0 L 159.0 244.0 L 159.0 246.0 L 159.0 247.0 L 158.0 249.0 L 158.0 250.0 L 157.0 252.0 L 156.0 254.0 L 154.0 256.0 L 153.0 258.0 L 152.0 260.0 L 150.0 262.0 L 149.0 263.0 L 148.0 263.0 L 146.0 264.0 " stroke="black" fill="none" stroke-width="5.0" stroke-linecap="round" stroke-linejoin="round" />
</svg>