<svg xmlns="http://www.w3.org/2000/svg" width="300" height="300" viewBox="0 0 300 300">
<path d="M 173.0 159.0 L 173.0 159.0 L 173.0 159.0 L 173.0 159.0 L 173.0 160.0 L 173.0 160.0 L 173.0 160.0 L 173.0 160.0 L 173.0 160.0 L 173.0 160.0 L 172.0 160.0 L 172.0 160.0 L 172.0 160.0 L 172.0 160.0 L 172.0 160.0 L 172.0 160.0 L 172.0 160.0 L 172.0 159.0 L 172.0 159.0 L 172.0 158.0 L 172.0 158.0 L 172.0 157.0 L 172.0 157.0 L 172.0 157.0 L 171.0 156.0 L 171.0 155.0 L 171.0 155.0 L 171.0 154.0 L 171.0 154.0 L 171.0 154.0 L 170.0 153.0 L 170.0 153.0 L 170.0 152.0 L 169.0 152.0 L 169.0 151.0 L 169.0 151.0 L 168.0 150.0 L 168.0 150.0 L 168.0 150.0 L 167.0 150.0 L 167.0 149.0 L 166.0 149.0 L 166.0 149.0 L 165.0 148.0 L 165.0 148.0 L 164.0 148.0 L 163.0 147.0 L 162.0 147.0 L 162.0 147.0 L 161.0 147.0 L 161.0 147.0 L 160.0 146.0 L 160.0 146.0 L 159.0 146.0 L 158.0 146.0 L 158.0 146.0 L 157.0 146.0 L 156.0 146.0 L 156.0 146.0 L 155.0 146.0 L 154.0 146.0 L 153.0 146.0 L 153.0 146.0 L 152.0 146.0 L 151.0 146.0 L 150.0 146.0 L 150.0 146.0 L 149.0 146.0 L 149.0 146.0 L 148.0 146.0 L 147.0 146.0 L 147.0 146.0 L 146.0 147.0 L 145.0 147.0 L 145.0 148.0 L 144.0 148.0 L 143.0 149.0 L 142.0 149.0 L 142.0 150.0 L 141.0 151.0 L 140.0 151.0 L 139.0 152.0 L 138.0 153.0 L 137.0 153.0 L 136.0 154.0 L 135.0 155.0 L 134.0 156.0 L 133.0 157.0 L 132.0 158.0 L 131.0 159.0 L 130.0 160.0 L 130.0 161.0 L 128.0 162.0 L 128.0 163.0 L 127.0 164.0 L 126.0 164.0 L 125.0 165.0 L 124.0 166.0 L 124.0 167.0 L 123.0 168.0 L 123.0 169.0 L 122.0 170.0 L 122.0 171.0 L 122.0 172.0 L 121.0 173.0 L 121.0 174.0 L 121.0 175.0 L 121.0 177.0 L 121.0 178.0 L 121.0 179.0 L 120.0 180.0 L 120.0 181.0 L 120.0 182.0 L 120.0 184.0 L 120.0 185.0 L 119.0 186.0 L 119.0 187.0 L 119.0 188.0 L 119.0 189.0 L 119.0 191.0 L 119.0 192.0 L 118.0 193.0 L 118.0 194.0 L 118.0 196.0 L 118.0 197.0 L 118.0 198.0 L 118.0 199.0 L 118.0 200.0 L 118.0 202.0 L 118.0 203.0 L 118.0 204.0 L 118.0 206.0 L 118.0 207.0 L 118.0 209.0 L 118.0 210.0 L 118.0 212.0 L 119.0 213.0 L 119.0 214.0 L 120.0 216.0 L 121.0 217.0 L 122.0 219.0 L 122.0 220.0 L 123.0 221.0 L 124.0 222.0 L 125.0 223.0 L 126.0 224.0 L 128.0 225.0 L 129.0 226.0 L 130.0 227.0 L 131.0 227.0 L 133.0 228.0 L 134.0 228.0 L 135.0 229.0 L 136.0 229.0 L 137.0 229.0 L 138.0 229.0 L 139.0 229.0 L 140.0 229.0 L 142.0 228.0 L 143.0 227.0 L 144.0 226.0 L 145.0 225.0 L 146.0 223.0 L 148.0 222.0 L 148.0 221.0 L 149.0 219.0 L 150.0 218.0 L 151.0 217.0 L 152.0 215.0 L 152.0 214.0 L 153.0 213.0 L 154.0 211.0 L 155.0 210.0 L 156.0 208.0 L 156.0 207.0 L 157.0 205.0 L 158.0 203.0 L 159.0 202.0 L 160.0 200.0 L 161.0 199.0 L 162.0 197.0 L 162.0 196.0 L 163.0 195.0 L 164.0 193.0 L 165.0 192.0 L 166.0 191.0 L 166.0 190.0 L 167.0 189.0 L 168.0 187.0 L 168.0 186.0 L 169.0 184.0 L 170.0 183.0 L 171.0 181.0 L 172.0 180.0 L 172.0 178.0 L 173.0 177.0 L 174.0 175.0 L 174.0 174.0 L 175.0 173.0 L 175.0 172.0 L 176.0 171.0 L 177.0 170.0 L 177.0 168.0 L 178.0 167.0 L 178.0 166.0 L 178.0 165.0 L 179.0 164.0 L 179.0 163.0 L 180.0 162.0 L 180.0 160.0 L 180.0 159.0 L 180.0 158.0 L 181.0 157.0 L 181.0 157.0 L 181.0 156.0 L 182.0 155.0 L 182.0 154.0 L 182.0 154.0 L 183.0 153.0 L 183.0 153.0 L 183.0 152.0 L 183.0 152.0 L 184.0 152.0 L 184.0 151.0 L 184.0 151.0 L 184.0 151.0 L 184.0 150.0 L 184.0 150.0 L 185.0 150.0 L 185.0 150.0 L 185.0 149.0 L 185.0 149.0 L 185.0 149.0 L 185.0 149.0 L 185.0 149.0 L 185.0 149.0 L 185.0 149.0 L 185.0 149.0 L 185.0 149.0 L 185.0 149.0 L 185.0 149.0 L 185.0 149.0 L 185.0 149.0 L 185.0 149.0 L 185.0 149.0 L 185.0 150.0 L 185.0 150.0 L 184.0 151.0 L 184.0 152.0 L 184.0 153.0 L 183.0 154.0 L 183.0 156.0 L 182.0 157.0 L 182.0 159.0 L 181.0 160.0 L 181.0 162.0 L 180.0 164.0 L 180.0 166.0 L 179.0 167.0 L 179.0 169.0 L 178.0 171.0 L 178.0 172.0 L 178.0 174.0 L 177.0 176.0 L 177.0 178.0 L 177.0 179.0 L 177.0 181.0 L 177.0 183.0 L 177.0 184.0 L 176.0 186.0 L 176.0 187.0 L 176.0 189.0 L 176.0 190.0 L 176.0 191.0 L 176.0 192.0 L 175.0 193.0 L 175.0 194.0 L 175.0 195.0 L 175.0 196.0 L 175.0 197.0 L 175.0 198.0 L 175.0 200.0 L 175.0 201.0 L 175.0 202.0 L 175.0 203.0 L 175.0 204.0 L 174.0 206.0 L 174.0 207.0 L 174.0 208.0 L 174.0 209.0 L 174.0 210.0 L 174.0 211.0 L 174.0 211.0 L 175.0 212.0 L 175.0 213.0 L 175.0 213.0 L 176.0 214.0 L 176.0 215.0 L 177.0 215.0 L 177.0 216.0 L 177.0 216.0 L 178.0 217.0 L 178.0 217.0 L 178.0 218.0 L 179.0 218.0 L 179.0 219.0 L 180.0 219.0 L 180.0 220.0 L 180.0 220.0 L 181.0 221.0 L 181.0 221.0 L 182.0 222.0 L 183.0 222.0 L 183.0 222.0 L 184.0 223.0 L 185.0 223.0 L 185.0 223.0 L 186.0 223.0 L 187.0 223.0 L 188.0 223.0 L 189.0 223.0 L 190.0 223.0 L 191.0 223.0 L 191.0 223.0 L 192.0 223.0 L 193.0 223.0 L 194.0 223.0 L 194.0 223.0 L 195.0 223.0 L 196.0 223.0 L 196.0 223.0 L 197.0 222.0 L 198.0 222.0 L 198.0 222.0 L 199.0 221.0 L 200.0 221.0 L 200.0 220.0 L 201.0 220.0 L 202.0 220.0 L 203.0 219.0 L 203.0 219.0 L 204.0 218.0 L 205.0 218.0 L 206.0 217.0 L 207.0 216.0 L 207.0 216.0 L 208.0 216.0 L 209.0 215.0 L 209.0 214.0 L 210.0 214.0 L 211.0 213.0 L 212.0 213.0 L 212.0 212.0 L 213.0 211.0 L 214.0 211.0 L 214.0 210.0 L 215.0 209.0 L 215.0 209.0 L 216.0 208.0 L 216.0 207.0 L 217.0 207.0 L 217.0 206.0 L 218.0 205.0 L 218.0 204.0 L 218.0 204.0 L 219.0 203.0 L 219.0 202.0 L 220.0 202.0 L 220.0 201.0 L 221.0 200.0 L 221.0 199.0 L 221.0 198.0 L 221.0 197.0 L 222.0 196.0 L 222.0 196.0 L 222.0 195.0 L 222.0 194.0 L 222.0 193.0 L 222.0 193.0 L 223.0 192.0 L 223.0 191.0 L 223.0 190.0 L 223.0 189.0 L 223.0 188.0 L 224.0 187.0 L 224.0 186.0 L 224.0 184.0 L 224.0 184.0 L 224.0 182.0 L 224.0 181.0 L 224.0 180.0 L 225.0 179.0 L 225.0 178.0 L 225.0 177.0 L 225.0 176.0 L 225.0 175.0 L 225.0 173.0 L 225.0 173.0 L 225.0 171.0 L 225.0 170.0 L 225.0 170.0 L 225.0 169.0 L 225.0 168.0 L 225.0 167.0 L 225.0 166.0 L 225.0 166.0 L 225.0 165.0 L 226.0 164.0 L 226.0 163.0 L 226.0 163.0 L 226.0 162.0 L 226.0 162.0 L 226.0 161.0 L 226.0 161.0 L 226.0 160.0 L 226.0 159.0 L 226.0 159.0 L 226.0 158.0 L 226.0 158.0 L 226.0 157.0 L 226.0 156.0 L 226.0 156.0 L 226.0 155.0 L 226.0 154.0 L 225.0 154.0 L 225.0 153.0 L 225.0 152.0 L 225.0 152.0 L 225.0 151.0 L 225.0 150.0 L 225.0 150.0 L 225.0 149.0 L 225.0 148.0 L 224.0 147.0 L 224.0 146.0 L 224.0 145.0 L 224.0 145.0 L 223.0 144.0 L 223.0 143.0 L 223.0 142.0 L 223.0 141.0 L 223.0 140.0 L 222.0 139.0 L 222.0 138.0 L 221.0 137.0 L 221.0 136.0 L 221.0 135.0 L 220.0 134.0 L 220.0 133.0 L 219.0 132.0 L 219.0 132.0 L 218.0 131.0 L 218.0 130.0 L 217.0 129.0 L 216.0 128.0 L 215.0 127.0 L 214.0 126.0 L 214.0 125.0 L 213.0 124.0 L 212.0 124.0 L 211.0 123.0 L 210.0 122.0 L 209.0 121.0 L 208.0 121.0 L 207.0 120.0 L 206.0 120.0 L 205.0 119.0 L 204.0 119.0 L 204.0 118.0 L 203.0 118.0 L 202.0 117.0 L 201.0 116.0 L 200.0 116.0 L 199.0 115.0 L 198.0 115.0 L 197.0 114.0 L 197.0 114.0 L 196.0 114.0 L 195.0 113.0 L 195.0 113.0 L 194.0 112.0 L 194.0 112.0 L 193.0 111.0 L 193.0 111.0 L 192.0 111.0 L 192.0 110.0 L 191.0 110.0 L 191.0 110.0 L 190.0 109.0 L 189.0 109.0 L 189.0 108.0 L 188.0 108.0 L 188.0 107.0 L 187.0 107.0 L 187.0 107.0 L 186.0 106.0 L 185.0 106.0 L 185.0 105.0 L 184.0 105.0 L 183.0 105.0 L 183.0 104.0 L 182.0 104.0 L 181.0 104.0 L 181.0 103.0 L 180.0 103.0 L 179.0 103.0 L 179.0 102.0 L 178.0 102.0 L 177.0 102.0 L 176.0 102.0 L 175.0 101.0 L 174.0 101.0 L 173.0 100.0 L 172.0 100.0 L 171.0 100.0 L 170.0 100.0 L 169.0 99.0 L 168.0 99.0 L 166.0 99.0 L 165.0 98.0 L 164.0 98.0 L 162.0 98.0 L 161.0 98.0 L 159.0 97.0 L 158.0 97.0 L 156.0 97.0 L 155.0 97.0 L 153.0 97.0 L 152.0 97.0 L 151.0 97.0 L 150.0 97.0 L 149.0 97.0 L 148.0 97.0 L 147.0 97.0 L 146.0 98.0 L 145.0 98.0 L 144.0 98.0 L 143.0 99.0 L 142.0 99.0 L 141.0 99.0 L 140.0 100.0 L 139.0 100.0 L 137.0 101.0 L 136.0 101.0 L 135.0 102.0 L 134.0 102.0 L 133.0 103.0 L 132.0 103.0 L 130.0 104.0 L 129.0 105.0 L 127.0 105.0 L 125.0 106.0 L 124.0 107.0 L 122.0 108.0 L 121.0 109.0 L 119.0 110.0 L 118.0 111.0 L 117.0 111.0 L 115.0 112.0 L 114.0 113.0 L 113.0 113.0 L 112.0 114.0 L 111.0 115.0 L 110.0 116.0 L 110.0 116.0 L 109.0 117.0 L 108.0 118.0 L 107.0 119.0 L 107.0 120.0 L 106.0 121.0 L 105.0 122.0 L 105.0 123.0 L 104.0 124.0 L 104.0 125.0 L 103.0 125.0 L 102.0 126.0 L 102.0 127.0 L 101.0 128.0 L 100.0 129.0 L 99.0 130.0 L 99.0 131.0 L 98.0 132.0 L 97.0 133.0 L 96.0 134.0 L 95.0 135.0 L 94.0 136.0 L 94.0 137.0 L 93.0 138.0 L 92.0 140.0 L 91.0 141.0 L 89.0 143.0 L 88.0 145.0 L 87.0 146.0 L 86.0 148.0 L 85.0 149.0 L 84.0 151.0 L 83.0 152.0 L 83.0 154.0 L 82.0 155.0 L 81.0 157.0 L 81.0 158.0 L 80.0 159.0 L 80.0 161.0 L 79.0 162.0 L 79.0 164.0 L 78.0 165.0 L 78.0 167.0 L 78.0 168.0 L 77.0 170.0 L 77.0 171.0 L 77.0 172.0 L 76.0 173.0 L 76.0 175.0 L 75.0 176.0 L 75.0 178.0 L 75.0 179.0 L 74.0 181.0 L 74.0 183.0 L 74.0 185.0 L 74.0 187.0 L 73.0 189.0 L 73.0 191.0 L 73.0 193.0 L 72.0 194.0 L 72.0 196.0 L 72.0 198.0 L 72.0 200.0 L 72.0 202.0 L 72.0 204.0 L 72.0 206.0 L 72.0 207.0 L 72.0 209.0 L 72.0 211.0 L 72.0 213.0 L 72.0 215.0 L 72.0 217.0 L 72.0 219.0 L 72.0 220.0 L 73.0 222.0 L 73.0 224.0 L 73.0 226.0 L 74.0 228.0 L 74.0 230.0 L 75.0 232.0 L 75.0 234.0 L 76.0 236.0 L 77.0 237.0 L 78.0 239.0 L 79.0 240.0 L 80.0 241.0 L 81.0 242.0 L 82.0 243.0 L 84.0 244.0 L 85.0 245.0 L 86.0 246.0 L 88.0 247.0 L 89.0 248.0 L 91.0 249.0 L 92.0 251.0 L 94.0 252.0 L 95.0 253.0 L 97.0 254.0 L 98.0 255.0 L 100.0 256.0 L 101.0 257.0 L 103.0 257.0 L 105.0 258.0 L 106.0 258.0 L 107.0 259.0 L 108.0 260.0 L 109.0 260.0 L 110.0 261.0 L 111.0 262.0 L 112.0 263.0 L 114.0 264.0 L 115.0 264.0 L 116.0 265.0 L 118.0 266.0 L 119.0 266.0 L 121.0 266.0 L 123.0 267.0 L 125.0 267.0 L 126.0 267.0 L 128.0 268.0 L 130.0 268.0 L 133.0 268.0 L 135.0 268.0 L 137.0 268.0 L 139.0 268.0 L 141.0 269.0 L 143.0 269.0 L 145.0 269.0 L 147.0 269.0 L 148.0 269.0 L 150.0 268.0 L 152.0 268.0 L 153.0 268.0 L 155.0 267.0 L 156.0 266.0 L 158.0 265.0 L 159.0 264.0 L 161.0 263.0 L 163.0 262.0 L 165.0 261.0 L 168.0 259.0 L 170.0 257.0 L 173.0 255.0 L 175.0 254.0 L 177.0 254.0 " stroke="black" fill="none" stroke-width="5.0" stroke-linecap="round" stroke-linejoin="round" />
</svg>