<svg xmlns="http://www.w3.org/2000/svg" width="300" height="300" viewBox="0 0 300 300">
<path d="M 123.0 138.0 L 123.0 138.0 L 123.0 138.0 L 123.0 138.0 L 123.0 138.0 L 123.0 137.0 L 123.0 137.0 L 124.0 137.0 L 125.0 137.0 L 126.0 137.0 L 128.0 137.0 L 131.0 137.0 L 135.0 136.0 L 139.0 136.0 L 143.0 136.0 L 147.0 136.0 L 151.0 136.0 L 155.0 135.0 L 158.0 135.0 L 162.0 135.0 L 166.0 135.0 L 169.0 135.0 L 172.0 135.0 L 175.0 135.0 L 177.0 135.0 L 179.0 135.0 L 180.0 136.0 L 181.0 136.0 L 181.0 136.0 L 181.0 137.0 L 181.0 137.0 L 181.0 137.0 L 180.0 138.0 L 180.0 139.0 L 179.0 140.0 L 178.0 141.0 L 178.0 142.0 L 177.0 143.0 L 176.0 144.0 L 176.0 145.0 L 175.0 147.0 L 173.0 148.0 L 172.0 150.0 L 170.0 152.0 L 168.0 155.0 L 166.0 158.0 L 164.0 161.0 L 161.0 165.0 L 158.0 169.0 L 156.0 173.0 L 153.0 177.0 L 151.0 182.0 L 148.0 188.0 L 146.0 192.0 L 144.0 197.0 L 141.0 202.0 L 137.0 206.0 L 134.0 209.0 L 131.0 213.0 L 128.0 216.0 L 125.0 218.0 L 123.0 221.0 L 121.0 222.0 L 120.0 224.0 L 118.0 225.0 L 118.0 226.0 L 117.0 227.0 L 116.0 227.0 L 116.0 227.0 L 116.0 228.0 L 115.0 228.0 L 115.0 228.0 L 115.0 228.0 L 115.0 228.0 L 115.0 228.0 L 115.0 228.0 L 116.0 228.0 L 116.0 228.0 L 118.0 228.0 L 119.0 228.0 L 122.0 228.0 L 125.0 228.0 L 129.0 228.0 L 134.0 228.0 L 139.0 228.0 L 146.0 227.0 L 151.0 226.0 L 157.0 225.0 L 163.0 224.0 L 169.0 223.0 L 175.0 222.0 L 180.0 221.0 L 184.0 221.0 L 187.0 221.0 L 189.0 221.0 L 190.0 221.0 L 190.0 222.0 " stroke="black" fill="none" stroke-width="5.0" stroke-linecap="round" stroke-linejoin="round" />
</svg>