<svg xmlns="http://www.w3.org/2000/svg" width="300" height="300" viewBox="0 0 300 300">
<path d="M 133.0 99.0 L 132.0 99.0 L 131.0 100.0 L 131.0 100.0 L 130.0 100.0 L 130.0 100.0 L 129.0 100.0 L 129.0 100.0 L 129.0 99.0 L 129.0 98.0 L 129.0 98.0 L 129.0 97.0 L 128.0 97.0 L 128.0 97.0 L 127.0 97.0 L 127.0 97.0 L 126.0 98.0 L 125.0 99.0 L 124.0 100.0 L 123.0 101.0 L 122.0 102.0 L 121.0 103.0 L 120.0 105.0 L 119.0 106.0 L 118.0 107.0 L 117.0 108.0 L 115.0 109.0 L 114.0 111.0 L 113.0 112.0 L 112.0 113.0 L 111.0 115.0 L 110.0 116.0 L 109.0 117.0 L 108.0 118.0 L 107.0 120.0 L 107.0 121.0 L 106.0 122.0 L 105.0 124.0 L 104.0 125.0 L 104.0 127.0 L 103.0 128.0 L 102.0 130.0 L 101.0 131.0 L 101.0 133.0 L 100.0 135.0 L 99.0 136.0 L 99.0 138.0 L 98.0 140.0 L 98.0 141.0 L 97.0 143.0 L 97.0 145.0 L 96.0 147.0 L 96.0 148.0 L 96.0 150.0 L 96.0 151.0 L 95.0 152.0 L 95.0 154.0 L 95.0 155.0 L 94.0 156.0 L 94.0 158.0 L 94.0 159.0 L 94.0 160.0 L 94.0 162.0 L 94.0 163.0 L 94.0 165.0 L 94.0 167.0 L 94.0 168.0 L 94.0 170.0 L 94.0 171.0 L 94.0 172.0 L 94.0 174.0 L 94.0 175.0 L 94.0 176.0 L 94.0 178.0 L 94.0 180.0 L 94.0 181.0 L 94.0 183.0 L 94.0 185.0 L 94.0 187.0 L 94.0 189.0 L 94.0 191.0 L 95.0 192.0 L 95.0 194.0 L 96.0 195.0 L 96.0 197.0 L 97.0 198.0 L 97.0 200.0 L 98.0 201.0 L 98.0 202.0 L 98.0 203.0 L 99.0 205.0 L 100.0 206.0 L 100.0 207.0 L 101.0 208.0 L 101.0 209.0 L 102.0 210.0 L 103.0 211.0 L 103.0 212.0 L 104.0 213.0 L 105.0 214.0 L 106.0 215.0 L 106.0 216.0 L 107.0 217.0 L 108.0 217.0 L 108.0 218.0 L 109.0 219.0 L 110.0 220.0 L 110.0 221.0 L 111.0 222.0 L 112.0 223.0 L 112.0 223.0 L 113.0 224.0 L 114.0 225.0 L 115.0 226.0 L 116.0 227.0 L 117.0 227.0 L 118.0 228.0 L 119.0 229.0 L 120.0 229.0 L 121.0 230.0 L 122.0 230.0 L 123.0 231.0 L 124.0 231.0 L 126.0 231.0 L 127.0 232.0 L 128.0 232.0 L 130.0 232.0 L 131.0 233.0 L 133.0 233.0 L 134.0 233.0 L 135.0 233.0 L 137.0 233.0 L 138.0 233.0 L 139.0 233.0 L 141.0 233.0 L 142.0 233.0 L 143.0 233.0 L 144.0 233.0 L 145.0 233.0 L 146.0 233.0 L 148.0 233.0 L 148.0 233.0 L 149.0 233.0 L 150.0 233.0 L 151.0 233.0 L 152.0 232.0 L 153.0 232.0 L 154.0 232.0 L 155.0 232.0 L 156.0 231.0 L 157.0 231.0 L 158.0 231.0 L 159.0 231.0 L 160.0 230.0 L 161.0 230.0 L 162.0 230.0 L 163.0 230.0 L 164.0 230.0 L 165.0 229.0 L 166.0 229.0 L 167.0 229.0 L 168.0 229.0 L 169.0 229.0 L 170.0 228.0 L 172.0 228.0 L 173.0 227.0 L 174.0 227.0 L 175.0 226.0 L 177.0 226.0 L 178.0 225.0 L 179.0 224.0 L 181.0 223.0 L 182.0 222.0 L 183.0 221.0 L 184.0 220.0 L 185.0 219.0 L 186.0 218.0 L 187.0 217.0 L 188.0 216.0 L 189.0 215.0 L 189.0 214.0 L 190.0 213.0 L 191.0 212.0 L 191.0 211.0 L 192.0 210.0 L 193.0 209.0 L 193.0 209.0 L 194.0 208.0 L 194.0 207.0 L 195.0 206.0 L 195.0 205.0 L 196.0 204.0 L 196.0 203.0 L 197.0 202.0 L 197.0 201.0 L 198.0 200.0 L 198.0 199.0 L 198.0 198.0 L 199.0 197.0 L 199.0 196.0 L 200.0 195.0 L 200.0 194.0 L 201.0 193.0 L 201.0 192.0 L 202.0 191.0 L 202.0 189.0 L 203.0 188.0 L 203.0 187.0 L 204.0 185.0 L 204.0 183.0 L 205.0 181.0 L 206.0 179.0 L 206.0 177.0 L 207.0 176.0 L 207.0 174.0 L 208.0 173.0 L 208.0 172.0 L 209.0 171.0 L 209.0 169.0 L 209.0 168.0 L 209.0 167.0 L 209.0 166.0 L 210.0 165.0 L 210.0 164.0 L 210.0 162.0 L 210.0 161.0 L 210.0 160.0 L 210.0 159.0 L 210.0 158.0 L 210.0 157.0 L 210.0 157.0 L 210.0 155.0 L 210.0 154.0 L 210.0 153.0 L 210.0 152.0 L 210.0 150.0 L 210.0 148.0 L 210.0 147.0 L 210.0 145.0 L 210.0 143.0 L 210.0 141.0 L 210.0 140.0 L 210.0 138.0 L 210.0 137.0 L 210.0 135.0 L 210.0 134.0 L 209.0 132.0 L 209.0 131.0 L 208.0 129.0 L 208.0 128.0 L 207.0 127.0 L 207.0 125.0 L 206.0 124.0 L 206.0 124.0 L 205.0 123.0 L 204.0 122.0 L 204.0 121.0 L 203.0 120.0 L 202.0 120.0 L 201.0 119.0 L 201.0 118.0 L 200.0 117.0 L 200.0 116.0 L 199.0 115.0 L 199.0 114.0 L 198.0 113.0 L 198.0 113.0 L 197.0 112.0 L 196.0 111.0 L 196.0 110.0 L 195.0 110.0 L 195.0 109.0 L 194.0 108.0 L 194.0 107.0 L 193.0 106.0 L 193.0 105.0 L 192.0 105.0 L 191.0 104.0 L 190.0 103.0 L 189.0 103.0 L 188.0 102.0 L 187.0 101.0 L 185.0 100.0 L 182.0 99.0 L 180.0 98.0 L 177.0 96.0 L 174.0 95.0 L 171.0 94.0 L 169.0 93.0 L 166.0 93.0 L 163.0 93.0 L 161.0 92.0 L 158.0 92.0 L 156.0 92.0 L 154.0 92.0 L 152.0 92.0 L 150.0 92.0 L 149.0 92.0 L 148.0 92.0 L 146.0 92.0 L 144.0 92.0 L 143.0 92.0 L 140.0 93.0 L 138.0 93.0 L 135.0 94.0 L 132.0 95.0 L 129.0 95.0 L 126.0 96.0 L 123.0 97.0 L 121.0 98.0 L 119.0 99.0 L 117.0 100.0 L 115.0 100.0 L 114.0 101.0 L 112.0 102.0 " stroke="black" fill="none" stroke-width="5.0" stroke-linecap="round" stroke-linejoin="round" />
<path d="M 152.0 236.0 L 152.0 236.0 L 151.0 236.0 L 151.0 236.0 L 151.0 237.0 L 151.0 237.0 L 150.0 237.0 L 150.0 237.0 L 150.0 238.0 L 150.0 238.0 L 150.0 239.0 L 150.0 239.0 L 150.0 240.0 L 150.0 241.0 L 150.0 242.0 L 150.0 243.0 L 150.0 245.0 L 150.0 246.0 L 150.0 248.0 L 151.0 249.0 L 152.0 251.0 L 152.0 252.0 L 153.0 253.0 L 154.0 254.0 L 154.0 255.0 L 155.0 256.0 L 156.0 257.0 L 157.0 258.0 L 157.0 259.0 L 158.0 260.0 L 159.0 261.0 L 160.0 261.0 L 161.0 262.0 L 162.0 263.0 L 163.0 263.0 L 165.0 264.0 L 166.0 264.0 L 168.0 265.0 L 170.0 265.0 L 172.0 265.0 L 174.0 266.0 L 177.0 266.0 L 180.0 267.0 L 182.0 267.0 L 185.0 268.0 L 188.0 268.0 L 191.0 268.0 L 193.0 268.0 L 196.0 268.0 L 198.0 268.0 L 200.0 268.0 L 202.0 268.0 L 204.0 267.0 L 205.0 267.0 L 207.0 266.0 L 207.0 266.0 " stroke="black" fill="none" stroke-width="5.0" stroke-linecap="round" stroke-linejoin="round" />
</svg>