<svg xmlns="http://www.w3.org/2000/svg" width="300" height="300" viewBox="0 0 300 300">
<path d="M 109.0 80.0 L 109.0 80.0 L 109.0 80.0 L 109.0 80.0 L 109.0 79.0 L 109.0 79.0 L 109.0 78.0 L 109.0 78.0 L 109.0 78.0 L 109.0 78.0 L 109.0 78.0 L 109.0 78.0 L 110.0 78.0 L 110.0 79.0 L 112.0 80.0 L 113.0 82.0 L 114.0 84.0 L 116.0 87.0 L 119.0 90.0 L 122.0 94.0 L 125.0 99.0 L 130.0 104.0 L 133.0 109.0 L 137.0 114.0 L 141.0 118.0 L 144.0 121.0 L 146.0 124.0 L 148.0 127.0 L 149.0 130.0 L 150.0 132.0 L 151.0 133.0 L 152.0 135.0 L 152.0 136.0 L 153.0 136.0 L 153.0 137.0 L 153.0 137.0 L 153.0 137.0 L 153.0 137.0 L 153.0 137.0 L 153.0 137.0 L 153.0 137.0 L 153.0 136.0 L 154.0 134.0 L 154.0 131.0 L 156.0 127.0 L 158.0 122.0 L 160.0 115.0 L 164.0 108.0 L 168.0 99.0 L 173.0 91.0 L 177.0 84.0 L 180.0 78.0 L 183.0 74.0 L 185.0 71.0 L 187.0 69.0 " stroke="black" fill="none" stroke-width="5.0" stroke-linecap="round" stroke-linejoin="round" />
</svg>