<svg xmlns="http://www.w3.org/2000/svg" width="300" height="300" viewBox="0 0 300 300">
<path d="M 120.0 95.0 L 118.0 95.0 L 117.0 95.0 L 115.0 95.0 L 114.0 95.0 L 113.0 95.0 L 113.0 95.0 L 113.0 95.0 L 113.0 95.0 L 113.0 95.0 L 114.0 95.0 L 116.0 95.0 L 119.0 95.0 L 123.0 95.0 L 128.0 95.0 L 134.0 95.0 L 140.0 95.0 L 146.0 95.0 L 153.0 95.0 L 159.0 96.0 L 167.0 96.0 L 175.0 97.0 L 182.0 97.0 L 188.0 97.0 L 193.0 97.0 L 194.0 97.0 " stroke="black" fill="none" stroke-width="5.0" stroke-linecap="round" stroke-linejoin="round" />
<path d="M 116.0 102.0 L 116.0 102.0 L 116.0 102.0 L 116.0 102.0 L 116.0 102.0 L 116.0 102.0 L 116.0 102.0 L 116.0 102.0 L 117.0 103.0 L 118.0 104.0 L 118.0 106.0 L 120.0 108.0 L 121.0 110.0 L 123.0 113.0 L 126.0 116.0 L 128.0 119.0 L 131.0 122.0 L 134.0 126.0 L 137.0 128.0 L 139.0 131.0 L 142.0 133.0 L 144.0 136.0 L 146.0 138.0 L 147.0 140.0 L 148.0 142.0 L 149.0 144.0 L 151.0 146.0 L 152.0 147.0 L 152.0 148.0 L 153.0 150.0 L 154.0 150.0 L 155.0 151.0 L 156.0 152.0 L 156.0 153.0 L 156.0 154.0 L 157.0 154.0 L 157.0 155.0 L 157.0 155.0 L 157.0 156.0 L 157.0 156.0 L 157.0 157.0 L 157.0 157.0 L 157.0 158.0 L 157.0 158.0 L 156.0 159.0 L 156.0 159.0 L 155.0 160.0 L 155.0 160.0 L 154.0 161.0 L 154.0 162.0 L 153.0 163.0 L 153.0 164.0 L 152.0 165.0 L 152.0 166.0 L 151.0 167.0 L 150.0 169.0 L 149.0 171.0 L 148.0 173.0 L 146.0 176.0 L 145.0 179.0 L 143.0 182.0 L 141.0 185.0 L 138.0 188.0 L 135.0 191.0 L 132.0 194.0 L 129.0 197.0 L 126.0 200.0 L 123.0 202.0 L 120.0 205.0 L 118.0 207.0 L 116.0 209.0 L 114.0 211.0 L 112.0 213.0 L 111.0 215.0 L 110.0 217.0 L 109.0 218.0 L 109.0 220.0 L 108.0 221.0 L 108.0 221.0 L 108.0 222.0 L 108.0 222.0 L 108.0 223.0 L 108.0 223.0 L 108.0 223.0 L 108.0 223.0 L 108.0 223.0 L 108.0 224.0 L 107.0 224.0 L 107.0 224.0 L 107.0 224.0 L 107.0 225.0 L 107.0 225.0 L 107.0 225.0 L 107.0 225.0 L 107.0 226.0 L 107.0 226.0 L 107.0 226.0 L 107.0 226.0 L 107.0 226.0 L 107.0 227.0 L 107.0 227.0 L 107.0 227.0 L 107.0 227.0 L 108.0 227.0 L 108.0 228.0 L 110.0 228.0 L 111.0 228.0 L 114.0 228.0 L 118.0 228.0 L 123.0 228.0 L 130.0 228.0 L 137.0 228.0 L 144.0 228.0 L 151.0 227.0 L 156.0 227.0 L 162.0 226.0 L 167.0 226.0 L 172.0 226.0 L 177.0 226.0 L 182.0 226.0 L 185.0 227.0 L 188.0 228.0 L 190.0 228.0 L 191.0 229.0 L 191.0 229.0 L 192.0 230.0 L 192.0 230.0 " stroke="black" fill="none" stroke-width="5.0" stroke-linecap="round" stroke-linejoin="round" />
</svg>