<svg xmlns="http://www.w3.org/2000/svg" width="300" height="300" viewBox="0 0 300 300">
<path d="M 149.0 255.0 L 149.0 255.0 L 149.0 255.0 L 149.0 255.0 L 148.0 256.0 L 148.0 256.0 L 148.0 256.0 L 147.0 256.0 L 147.0 257.0 L 147.0 257.0 L 147.0 257.0 L 147.0 258.0 L 147.0 259.0 L 147.0 261.0 L 147.0 262.0 L 147.0 264.0 L 147.0 266.0 L 147.0 268.0 L 147.0 270.0 L 147.0 272.0 L 147.0 274.0 L 148.0 275.0 L 148.0 276.0 L 148.0 277.0 L 148.0 277.0 L 148.0 278.0 L 149.0 278.0 L 149.0 278.0 L 149.0 279.0 L 150.0 279.0 L 150.0 279.0 L 151.0 280.0 L 151.0 280.0 L 152.0 281.0 L 152.0 281.0 L 153.0 281.0 L 153.0 281.0 L 154.0 281.0 L 155.0 281.0 L 155.0 281.0 L 156.0 281.0 L 157.0 281.0 L 158.0 281.0 L 159.0 281.0 L 160.0 281.0 L 162.0 281.0 L 164.0 279.0 L 167.0 278.0 L 171.0 276.0 L 174.0 274.0 L 176.0 273.0 " stroke="black" fill="none" stroke-width="5.0" stroke-linecap="round" stroke-linejoin="round" />
</svg>