<svg xmlns="http://www.w3.org/2000/svg" width="300" height="300" viewBox="0 0 300 300">
<path d="M 107.0 126.0 L 107.0 126.0 L 107.0 127.0 L 107.0 128.0 L 107.0 129.0 L 107.0 130.0 L 107.0 131.0 L 107.0 133.0 L 107.0 135.0 L 107.0 138.0 L 107.0 142.0 L 108.0 146.0 L 108.0 150.0 L 108.0 154.0 L 108.0 158.0 L 109.0 162.0 L 109.0 166.0 L 109.0 170.0 L 109.0 175.0 L 109.0 179.0 L 109.0 184.0 L 109.0 189.0 L 109.0 193.0 L 109.0 197.0 L 109.0 202.0 L 108.0 205.0 L 108.0 208.0 L 108.0 212.0 L 108.0 214.0 L 108.0 217.0 L 108.0 219.0 L 108.0 221.0 L 108.0 223.0 L 108.0 225.0 L 108.0 227.0 L 108.0 229.0 L 108.0 230.0 L 108.0 230.0 L 108.0 231.0 L 108.0 231.0 L 108.0 231.0 L 108.0 231.0 L 108.0 231.0 L 108.0 231.0 L 108.0 231.0 L 108.0 231.0 L 108.0 230.0 L 108.0 230.0 L 108.0 229.0 L 108.0 229.0 L 109.0 228.0 L 109.0 227.0 L 109.0 226.0 L 110.0 225.0 L 111.0 223.0 L 111.0 221.0 L 113.0 219.0 L 114.0 217.0 L 116.0 214.0 L 118.0 211.0 L 120.0 208.0 L 123.0 205.0 L 126.0 201.0 L 129.0 198.0 L 131.0 194.0 L 134.0 191.0 L 137.0 188.0 L 139.0 184.0 L 141.0 180.0 L 144.0 176.0 L 146.0 172.0 L 148.0 168.0 L 149.0 164.0 L 151.0 161.0 L 152.0 158.0 L 153.0 155.0 L 155.0 152.0 L 156.0 150.0 L 158.0 147.0 L 159.0 145.0 L 161.0 142.0 L 163.0 140.0 L 165.0 138.0 L 167.0 135.0 L 169.0 133.0 L 171.0 131.0 L 173.0 130.0 L 175.0 128.0 L 177.0 127.0 L 178.0 126.0 L 180.0 125.0 L 181.0 123.0 L 182.0 122.0 L 184.0 121.0 L 185.0 120.0 L 185.0 119.0 L 186.0 118.0 L 187.0 118.0 L 187.0 117.0 L 188.0 117.0 L 188.0 117.0 L 188.0 117.0 L 189.0 117.0 L 189.0 117.0 L 189.0 117.0 L 189.0 117.0 L 190.0 117.0 L 190.0 117.0 L 190.0 117.0 L 190.0 117.0 L 191.0 117.0 L 191.0 117.0 L 191.0 117.0 L 191.0 117.0 L 191.0 118.0 L 191.0 119.0 L 192.0 120.0 L 192.0 121.0 L 192.0 123.0 L 192.0 125.0 L 192.0 127.0 L 192.0 130.0 L 192.0 134.0 L 192.0 139.0 L 192.0 146.0 L 192.0 153.0 L 192.0 161.0 L 192.0 168.0 L 192.0 176.0 L 192.0 183.0 L 192.0 189.0 L 192.0 194.0 L 192.0 198.0 L 192.0 202.0 L 192.0 205.0 L 192.0 208.0 L 192.0 210.0 L 192.0 213.0 L 193.0 215.0 L 193.0 217.0 L 193.0 219.0 L 193.0 221.0 L 193.0 222.0 L 193.0 222.0 L 193.0 222.0 L 193.0 222.0 L 193.0 222.0 " stroke="black" fill="none" stroke-width="5.0" stroke-linecap="round" stroke-linejoin="round" />
</svg>