<svg xmlns="http://www.w3.org/2000/svg" width="300" height="300" viewBox="0 0 300 300">
<path d="M 125.0 125.0 L 125.0 125.0 L 124.0 125.0 L 123.0 126.0 L 122.0 127.0 L 122.0 129.0 L 122.0 133.0 L 122.0 138.0 L 123.0 144.0 L 124.0 150.0 L 125.0 158.0 L 125.0 167.0 L 125.0 177.0 L 125.0 189.0 L 125.0 202.0 L 125.0 215.0 L 125.0 229.0 L 126.0 242.0 L 126.0 253.0 L 127.0 264.0 L 127.0 273.0 L 127.0 280.0 L 127.0 285.0 L 127.0 287.0 L 126.0 287.0 " stroke="black" fill="none" stroke-width="5.0" stroke-linecap="round" stroke-linejoin="round" />
<path d="M 132.0 122.0 L 132.0 122.0 L 130.0 121.0 L 128.0 121.0 L 126.0 120.0 L 125.0 120.0 L 124.0 120.0 L 124.0 120.0 L 124.0 120.0 L 124.0 120.0 L 124.0 120.0 L 125.0 120.0 L 128.0 120.0 L 132.0 120.0 L 137.0 120.0 L 142.0 120.0 L 148.0 120.0 L 155.0 119.0 L 164.0 118.0 L 173.0 117.0 L 182.0 117.0 L 190.0 117.0 L 194.0 117.0 L 198.0 118.0 L 200.0 119.0 L 201.0 121.0 L 201.0 122.0 " stroke="black" fill="none" stroke-width="5.0" stroke-linecap="round" stroke-linejoin="round" />
<path d="M 140.0 186.0 L 140.0 186.0 L 140.0 186.0 L 140.0 186.0 L 139.0 186.0 L 139.0 186.0 L 139.0 185.0 L 139.0 185.0 L 139.0 185.0 L 139.0 185.0 L 139.0 185.0 L 140.0 184.0 L 142.0 184.0 L 143.0 184.0 L 145.0 184.0 L 148.0 184.0 L 150.0 184.0 L 153.0 184.0 L 156.0 184.0 L 160.0 184.0 L 164.0 184.0 L 168.0 184.0 L 173.0 184.0 L 177.0 184.0 L 181.0 184.0 L 184.0 184.0 L 187.0 184.0 L 189.0 184.0 L 191.0 184.0 L 192.0 184.0 L 193.0 185.0 L 193.0 185.0 L 194.0 185.0 L 194.0 186.0 L 194.0 186.0 L 194.0 186.0 L 194.0 187.0 L 194.0 187.0 L 194.0 188.0 L 193.0 189.0 L 193.0 191.0 L 193.0 192.0 L 193.0 194.0 L 193.0 196.0 L 193.0 199.0 L 193.0 202.0 L 193.0 205.0 L 193.0 209.0 L 193.0 212.0 L 193.0 215.0 L 193.0 219.0 L 193.0 222.0 L 193.0 224.0 L 193.0 225.0 L 193.0 226.0 L 194.0 226.0 " stroke="black" fill="none" stroke-width="5.0" stroke-linecap="round" stroke-linejoin="round" />
</svg>