<svg xmlns="http://www.w3.org/2000/svg" width="300" height="300" viewBox="0 0 300 300">
<path d="M 119.0 84.0 L 119.0 84.0 L 118.0 84.0 L 117.0 84.0 L 117.0 84.0 L 116.0 84.0 L 116.0 84.0 L 115.0 84.0 L 115.0 84.0 L 115.0 84.0 L 115.0 84.0 L 115.0 84.0 L 115.0 84.0 L 115.0 84.0 L 116.0 84.0 L 117.0 84.0 L 118.0 84.0 L 119.0 84.0 L 120.0 84.0 L 121.0 84.0 L 122.0 85.0 L 123.0 85.0 L 125.0 85.0 L 126.0 85.0 L 128.0 85.0 L 130.0 85.0 L 132.0 85.0 L 134.0 85.0 L 136.0 85.0 L 138.0 85.0 L 140.0 85.0 L 143.0 85.0 L 145.0 84.0 L 147.0 84.0 L 148.0 84.0 L 150.0 84.0 L 152.0 84.0 L 153.0 84.0 L 155.0 84.0 L 156.0 84.0 L 157.0 84.0 L 159.0 84.0 L 160.0 84.0 L 162.0 84.0 L 164.0 84.0 L 166.0 84.0 L 168.0 84.0 L 170.0 84.0 L 172.0 84.0 L 173.0 84.0 L 175.0 84.0 L 177.0 84.0 L 179.0 84.0 L 180.0 84.0 L 182.0 84.0 L 183.0 84.0 L 184.0 84.0 L 184.0 84.0 L 184.0 84.0 L 184.0 84.0 L 184.0 84.0 L 184.0 84.0 L 184.0 84.0 L 184.0 84.0 L 184.0 84.0 L 184.0 84.0 L 183.0 84.0 L 183.0 84.0 L 182.0 84.0 L 181.0 85.0 L 180.0 85.0 L 179.0 85.0 L 177.0 85.0 L 176.0 86.0 L 174.0 86.0 L 172.0 87.0 L 169.0 87.0 L 167.0 88.0 L 164.0 89.0 L 162.0 90.0 L 159.0 91.0 L 157.0 93.0 L 155.0 94.0 L 153.0 95.0 L 151.0 96.0 L 150.0 97.0 L 148.0 98.0 L 147.0 99.0 L 146.0 100.0 L 145.0 102.0 L 144.0 102.0 L 143.0 103.0 L 142.0 104.0 L 141.0 105.0 L 140.0 106.0 L 139.0 107.0 L 139.0 107.0 L 138.0 108.0 L 138.0 109.0 L 137.0 110.0 L 137.0 111.0 L 137.0 112.0 L 136.0 113.0 L 136.0 115.0 L 136.0 116.0 L 135.0 118.0 L 135.0 120.0 L 135.0 122.0 L 135.0 124.0 L 135.0 126.0 L 135.0 127.0 L 135.0 128.0 L 135.0 130.0 L 135.0 131.0 L 135.0 132.0 L 135.0 133.0 L 135.0 134.0 L 136.0 134.0 L 136.0 135.0 L 137.0 136.0 L 138.0 137.0 L 139.0 138.0 L 139.0 139.0 L 140.0 140.0 L 141.0 141.0 L 143.0 141.0 L 144.0 142.0 L 145.0 142.0 L 147.0 143.0 L 148.0 143.0 L 150.0 144.0 L 152.0 145.0 L 154.0 145.0 L 157.0 146.0 L 160.0 147.0 L 163.0 148.0 L 166.0 148.0 L 168.0 149.0 L 170.0 150.0 L 172.0 150.0 L 173.0 151.0 L 174.0 151.0 L 175.0 152.0 L 175.0 152.0 L 175.0 152.0 L 175.0 152.0 L 175.0 152.0 L 175.0 153.0 L 175.0 153.0 L 174.0 153.0 L 173.0 153.0 L 172.0 153.0 L 171.0 153.0 L 170.0 154.0 L 169.0 154.0 L 167.0 154.0 L 166.0 155.0 L 164.0 155.0 L 163.0 156.0 L 161.0 156.0 L 160.0 157.0 L 158.0 157.0 L 156.0 158.0 L 155.0 159.0 L 153.0 159.0 L 152.0 160.0 L 150.0 161.0 L 149.0 162.0 L 148.0 162.0 L 146.0 163.0 L 145.0 164.0 L 144.0 165.0 L 142.0 166.0 L 141.0 167.0 L 140.0 168.0 L 139.0 168.0 L 137.0 169.0 L 136.0 170.0 L 134.0 171.0 L 133.0 172.0 L 132.0 173.0 L 131.0 173.0 L 130.0 175.0 L 129.0 176.0 L 128.0 177.0 L 127.0 178.0 L 126.0 179.0 L 126.0 180.0 L 126.0 182.0 L 125.0 183.0 L 125.0 184.0 L 125.0 186.0 L 125.0 187.0 L 125.0 189.0 L 125.0 191.0 L 125.0 192.0 L 125.0 194.0 L 125.0 195.0 L 125.0 197.0 L 125.0 198.0 L 125.0 199.0 L 125.0 201.0 L 125.0 202.0 L 125.0 203.0 L 125.0 205.0 L 125.0 206.0 L 126.0 207.0 L 126.0 208.0 L 127.0 209.0 L 128.0 210.0 L 128.0 211.0 L 129.0 212.0 L 130.0 213.0 L 131.0 214.0 L 132.0 214.0 L 133.0 215.0 L 134.0 216.0 L 135.0 217.0 L 136.0 218.0 L 137.0 219.0 L 139.0 220.0 L 140.0 221.0 L 141.0 221.0 L 142.0 222.0 L 143.0 223.0 L 144.0 224.0 L 146.0 225.0 L 147.0 226.0 L 148.0 226.0 L 149.0 227.0 L 150.0 228.0 L 151.0 229.0 L 151.0 229.0 L 152.0 230.0 L 153.0 231.0 L 155.0 231.0 L 156.0 232.0 L 157.0 233.0 L 158.0 234.0 L 160.0 234.0 L 161.0 235.0 L 163.0 236.0 L 165.0 237.0 L 167.0 238.0 L 168.0 238.0 L 170.0 239.0 L 172.0 240.0 L 174.0 240.0 L 176.0 241.0 L 178.0 242.0 L 179.0 243.0 L 181.0 244.0 L 182.0 245.0 L 184.0 247.0 L 185.0 248.0 L 186.0 249.0 L 187.0 250.0 L 188.0 252.0 L 188.0 253.0 L 188.0 254.0 L 188.0 256.0 L 188.0 257.0 L 188.0 259.0 L 188.0 261.0 L 187.0 263.0 L 186.0 266.0 L 185.0 269.0 L 183.0 271.0 L 182.0 274.0 L 180.0 277.0 L 178.0 279.0 L 176.0 281.0 L 175.0 283.0 L 173.0 284.0 L 173.0 284.0 L 173.0 284.0 " stroke="black" fill="none" stroke-width="5.0" stroke-linecap="round" stroke-linejoin="round" />
</svg>