<svg xmlns="http://www.w3.org/2000/svg" width="300" height="300" viewBox="0 0 300 300">
<path d="M 110.0 75.0 L 109.0 75.0 L 108.0 75.0 L 107.0 75.0 L 107.0 75.0 L 106.0 75.0 L 106.0 75.0 L 106.0 77.0 L 106.0 79.0 L 106.0 83.0 L 107.0 87.0 L 108.0 92.0 L 109.0 98.0 L 110.0 103.0 L 110.0 108.0 L 111.0 112.0 L 111.0 113.0 " stroke="black" fill="none" stroke-width="5.0" stroke-linecap="round" stroke-linejoin="round" />
<path d="M 111.0 74.0 L 111.0 74.0 L 111.0 74.0 L 111.0 74.0 L 111.0 75.0 L 111.0 75.0 L 111.0 75.0 L 111.0 75.0 L 111.0 76.0 L 111.0 76.0 L 111.0 76.0 L 111.0 76.0 L 112.0 76.0 L 113.0 76.0 L 114.0 76.0 L 115.0 76.0 L 116.0 76.0 L 117.0 75.0 L 118.0 75.0 L 120.0 75.0 L 121.0 75.0 L 123.0 74.0 L 124.0 74.0 L 126.0 74.0 L 129.0 74.0 L 131.0 74.0 L 133.0 73.0 L 136.0 73.0 L 138.0 73.0 L 141.0 73.0 L 143.0 73.0 L 144.0 73.0 L 146.0 73.0 L 148.0 73.0 L 149.0 73.0 L 150.0 73.0 L 151.0 73.0 L 152.0 73.0 L 153.0 73.0 L 154.0 73.0 L 155.0 73.0 L 156.0 73.0 L 157.0 73.0 L 158.0 73.0 L 160.0 73.0 L 162.0 73.0 L 163.0 73.0 L 165.0 73.0 L 167.0 73.0 L 169.0 73.0 L 171.0 73.0 L 173.0 74.0 L 175.0 74.0 L 178.0 74.0 L 180.0 74.0 L 182.0 74.0 L 184.0 74.0 L 185.0 74.0 L 187.0 74.0 L 189.0 74.0 L 190.0 74.0 L 192.0 74.0 L 193.0 74.0 L 194.0 74.0 L 194.0 74.0 L 195.0 74.0 L 195.0 75.0 L 196.0 75.0 L 196.0 75.0 L 196.0 76.0 L 196.0 76.0 L 196.0 76.0 L 196.0 77.0 L 196.0 77.0 L 196.0 78.0 L 196.0 78.0 L 196.0 79.0 L 196.0 80.0 L 196.0 81.0 L 196.0 82.0 L 196.0 83.0 L 196.0 85.0 L 196.0 87.0 L 196.0 90.0 L 196.0 94.0 L 196.0 98.0 L 196.0 104.0 L 196.0 109.0 L 196.0 113.0 " stroke="black" fill="none" stroke-width="5.0" stroke-linecap="round" stroke-linejoin="round" />
<path d="M 149.0 80.0 L 149.0 80.0 L 149.0 80.0 L 149.0 80.0 L 149.0 80.0 L 149.0 80.0 L 149.0 81.0 L 149.0 83.0 L 150.0 86.0 L 150.0 91.0 L 150.0 96.0 L 150.0 103.0 L 150.0 111.0 L 150.0 118.0 L 150.0 126.0 L 150.0 135.0 L 149.0 144.0 L 149.0 154.0 L 149.0 163.0 L 148.0 171.0 L 148.0 178.0 L 148.0 184.0 L 148.0 190.0 L 148.0 195.0 L 148.0 200.0 L 148.0 205.0 L 148.0 209.0 L 148.0 212.0 L 148.0 214.0 L 148.0 215.0 L 148.0 216.0 L 148.0 217.0 L 148.0 217.0 L 148.0 216.0 L 148.0 215.0 " stroke="black" fill="none" stroke-width="5.0" stroke-linecap="round" stroke-linejoin="round" />
</svg>