<svg xmlns="http://www.w3.org/2000/svg" width="300" height="300" viewBox="0 0 300 300">
<path d="M 149.0 120.0 L 149.0 120.0 L 149.0 120.0 L 148.0 120.0 L 148.0 119.0 L 148.0 119.0 L 148.0 119.0 L 148.0 119.0 L 148.0 119.0 L 148.0 119.0 L 148.0 120.0 L 147.0 121.0 L 147.0 123.0 L 147.0 124.0 L 147.0 127.0 L 147.0 129.0 L 147.0 131.0 L 147.0 134.0 L 147.0 137.0 L 146.0 140.0 L 146.0 144.0 L 146.0 147.0 L 145.0 151.0 L 145.0 154.0 L 145.0 157.0 L 145.0 159.0 L 145.0 162.0 L 145.0 164.0 L 145.0 166.0 L 145.0 168.0 L 145.0 170.0 L 145.0 173.0 L 144.0 175.0 L 144.0 177.0 L 144.0 180.0 L 144.0 182.0 L 144.0 185.0 L 144.0 188.0 L 144.0 190.0 L 143.0 192.0 L 143.0 195.0 L 143.0 197.0 L 143.0 200.0 L 142.0 202.0 L 142.0 204.0 L 141.0 207.0 L 141.0 209.0 L 140.0 212.0 L 140.0 214.0 L 140.0 216.0 L 140.0 217.0 L 141.0 219.0 L 143.0 220.0 L 144.0 221.0 L 145.0 222.0 L 147.0 223.0 L 148.0 224.0 L 150.0 225.0 L 151.0 226.0 L 153.0 227.0 L 155.0 228.0 L 157.0 229.0 L 160.0 230.0 L 163.0 230.0 L 167.0 229.0 L 172.0 227.0 L 177.0 223.0 L 181.0 220.0 L 185.0 216.0 L 187.0 214.0 " stroke="black" fill="none" stroke-width="5.0" stroke-linecap="round" stroke-linejoin="round" />
<path d="M 123.0 82.0 L 123.0 82.0 L 123.0 82.0 L 123.0 83.0 L 123.0 83.0 L 123.0 83.0 L 123.0 83.0 L 123.0 84.0 L 123.0 84.0 L 123.0 84.0 L 123.0 84.0 L 124.0 85.0 L 124.0 85.0 L 125.0 85.0 L 125.0 85.0 L 125.0 85.0 L 125.0 85.0 L 126.0 86.0 L 126.0 86.0 L 126.0 86.0 L 126.0 86.0 L 126.0 86.0 L 126.0 86.0 L 126.0 86.0 L 126.0 86.0 L 126.0 86.0 L 126.0 86.0 L 125.0 86.0 L 124.0 86.0 L 123.0 86.0 L 123.0 87.0 L 122.0 88.0 L 122.0 89.0 L 122.0 90.0 L 122.0 91.0 L 122.0 92.0 L 123.0 92.0 L 125.0 92.0 L 126.0 92.0 L 126.0 92.0 L 127.0 91.0 L 127.0 90.0 L 127.0 90.0 L 127.0 89.0 L 127.0 88.0 L 127.0 87.0 L 126.0 87.0 L 126.0 86.0 L 125.0 85.0 L 125.0 85.0 L 124.0 84.0 L 124.0 84.0 L 123.0 84.0 L 123.0 84.0 L 122.0 84.0 L 122.0 84.0 L 122.0 84.0 L 122.0 84.0 L 122.0 85.0 L 122.0 86.0 L 122.0 86.0 L 123.0 87.0 L 124.0 87.0 L 124.0 87.0 L 125.0 87.0 L 126.0 87.0 L 126.0 87.0 L 126.0 87.0 L 127.0 87.0 L 127.0 87.0 L 127.0 87.0 L 127.0 87.0 L 127.0 87.0 L 127.0 87.0 " stroke="black" fill="none" stroke-width="5.0" stroke-linecap="round" stroke-linejoin="round" />
<path d="M 164.0 89.0 L 164.0 89.0 L 163.0 89.0 L 162.0 89.0 L 162.0 89.0 L 162.0 89.0 L 162.0 89.0 L 161.0 89.0 L 161.0 89.0 L 161.0 89.0 L 161.0 89.0 L 162.0 89.0 L 162.0 89.0 L 162.0 89.0 L 163.0 89.0 L 163.0 89.0 L 163.0 89.0 L 163.0 89.0 L 163.0 89.0 L 163.0 89.0 L 163.0 88.0 L 163.0 88.0 L 163.0 88.0 L 163.0 87.0 L 163.0 87.0 L 163.0 87.0 L 162.0 87.0 L 162.0 87.0 L 161.0 87.0 L 161.0 87.0 L 161.0 87.0 L 161.0 87.0 L 161.0 88.0 L 161.0 89.0 L 161.0 89.0 L 162.0 89.0 L 162.0 89.0 L 163.0 89.0 L 164.0 89.0 L 164.0 89.0 L 164.0 89.0 L 164.0 89.0 L 164.0 89.0 L 164.0 88.0 L 164.0 87.0 L 163.0 86.0 L 162.0 85.0 L 161.0 84.0 L 160.0 84.0 L 159.0 83.0 L 159.0 83.0 L 158.0 83.0 L 158.0 84.0 L 157.0 85.0 L 157.0 86.0 L 157.0 87.0 L 158.0 88.0 L 159.0 88.0 L 160.0 89.0 L 162.0 89.0 L 163.0 89.0 L 164.0 89.0 L 165.0 88.0 L 166.0 87.0 L 166.0 86.0 L 166.0 86.0 L 166.0 85.0 L 166.0 84.0 L 165.0 84.0 L 163.0 83.0 L 162.0 83.0 L 161.0 83.0 L 160.0 83.0 L 160.0 83.0 L 159.0 83.0 L 159.0 83.0 L 158.0 83.0 L 158.0 84.0 L 158.0 84.0 L 158.0 84.0 L 158.0 85.0 L 158.0 85.0 L 158.0 86.0 L 159.0 86.0 L 160.0 86.0 L 161.0 86.0 L 161.0 86.0 L 162.0 86.0 L 163.0 86.0 L 164.0 86.0 " stroke="black" fill="none" stroke-width="5.0" stroke-linecap="round" stroke-linejoin="round" />
</svg>