<svg xmlns="http://www.w3.org/2000/svg" width="300" height="300" viewBox="0 0 300 300">
<path d="M 160.0 65.0 L 160.0 65.0 L 160.0 64.0 L 159.0 63.0 L 159.0 63.0 L 159.0 62.0 L 159.0 62.0 L 159.0 63.0 L 159.0 65.0 L 159.0 68.0 L 158.0 72.0 L 157.0 77.0 L 155.0 82.0 L 154.0 86.0 L 153.0 89.0 " stroke="black" fill="none" stroke-width="5.0" stroke-linecap="round" stroke-linejoin="round" />
<path d="M 144.0 122.0 L 144.0 122.0 L 144.0 122.0 L 143.0 122.0 L 143.0 123.0 L 142.0 123.0 L 142.0 124.0 L 141.0 125.0 L 141.0 126.0 L 141.0 127.0 L 140.0 128.0 L 140.0 130.0 L 140.0 132.0 L 139.0 134.0 L 139.0 136.0 L 139.0 139.0 L 138.0 142.0 L 138.0 145.0 L 137.0 148.0 L 137.0 152.0 L 136.0 155.0 L 136.0 157.0 L 136.0 160.0 L 136.0 163.0 L 136.0 166.0 L 136.0 168.0 L 136.0 170.0 L 136.0 171.0 L 136.0 173.0 L 136.0 174.0 L 136.0 176.0 L 136.0 178.0 L 136.0 180.0 L 136.0 182.0 L 136.0 184.0 L 136.0 186.0 L 137.0 188.0 L 137.0 190.0 L 137.0 192.0 L 137.0 194.0 L 137.0 196.0 L 137.0 197.0 L 137.0 199.0 L 137.0 200.0 L 137.0 202.0 L 137.0 203.0 L 137.0 205.0 L 137.0 206.0 L 137.0 207.0 L 137.0 209.0 L 138.0 210.0 L 138.0 212.0 L 138.0 213.0 L 138.0 214.0 L 138.0 216.0 L 138.0 217.0 L 139.0 218.0 L 139.0 220.0 L 140.0 221.0 L 140.0 223.0 L 141.0 224.0 L 141.0 225.0 L 142.0 227.0 L 143.0 228.0 L 144.0 229.0 L 145.0 230.0 L 146.0 231.0 L 148.0 232.0 L 149.0 233.0 L 151.0 233.0 L 154.0 233.0 L 157.0 233.0 L 160.0 233.0 L 165.0 233.0 L 169.0 232.0 L 171.0 232.0 " stroke="black" fill="none" stroke-width="5.0" stroke-linecap="round" stroke-linejoin="round" />
</svg>