<svg xmlns="http://www.w3.org/2000/svg" width="300" height="300" viewBox="0 0 300 300">
<path d="M 149.0 98.0 L 149.0 98.0 L 149.0 98.0 L 148.0 98.0 L 148.0 98.0 L 148.0 97.0 L 148.0 97.0 L 147.0 97.0 L 147.0 97.0 L 147.0 97.0 L 146.0 98.0 L 146.0 100.0 L 145.0 102.0 L 144.0 105.0 L 143.0 109.0 L 141.0 115.0 L 138.0 122.0 L 134.0 131.0 L 129.0 142.0 L 124.0 153.0 L 118.0 163.0 L 113.0 174.0 L 110.0 184.0 L 107.0 193.0 L 105.0 202.0 L 103.0 209.0 L 101.0 214.0 L 99.0 219.0 L 96.0 223.0 L 95.0 225.0 L 93.0 227.0 L 93.0 229.0 " stroke="black" fill="none" stroke-width="5.0" stroke-linecap="round" stroke-linejoin="round" />
<path d="M 152.0 98.0 L 152.0 98.0 L 152.0 98.0 L 152.0 97.0 L 152.0 97.0 L 152.0 96.0 L 152.0 96.0 L 152.0 96.0 L 152.0 96.0 L 152.0 96.0 L 152.0 96.0 L 153.0 98.0 L 153.0 99.0 L 154.0 102.0 L 155.0 104.0 L 157.0 107.0 L 158.0 111.0 L 160.0 115.0 L 162.0 119.0 L 164.0 124.0 L 166.0 128.0 L 168.0 133.0 L 170.0 138.0 L 173.0 143.0 L 175.0 148.0 L 178.0 153.0 L 180.0 158.0 L 182.0 162.0 L 184.0 167.0 L 185.0 171.0 L 187.0 175.0 L 188.0 179.0 L 189.0 182.0 L 190.0 186.0 L 191.0 191.0 L 193.0 195.0 L 194.0 199.0 L 195.0 203.0 L 196.0 207.0 L 197.0 211.0 L 198.0 214.0 L 199.0 217.0 L 199.0 218.0 L 199.0 220.0 L 199.0 220.0 L 199.0 221.0 L 199.0 221.0 L 199.0 221.0 L 199.0 221.0 L 199.0 221.0 L 198.0 221.0 L 198.0 221.0 " stroke="black" fill="none" stroke-width="5.0" stroke-linecap="round" stroke-linejoin="round" />
<path d="M 95.0 230.0 L 95.0 230.0 L 95.0 229.0 L 95.0 229.0 L 95.0 229.0 L 95.0 228.0 L 94.0 228.0 L 94.0 227.0 L 94.0 227.0 L 94.0 227.0 L 94.0 227.0 L 94.0 227.0 L 94.0 227.0 L 94.0 227.0 L 94.0 227.0 L 94.0 227.0 L 95.0 227.0 L 95.0 227.0 L 96.0 227.0 L 96.0 227.0 L 97.0 227.0 L 97.0 227.0 L 98.0 227.0 L 99.0 227.0 L 99.0 227.0 L 100.0 228.0 L 101.0 228.0 L 101.0 228.0 L 102.0 228.0 L 102.0 229.0 L 103.0 229.0 L 104.0 229.0 L 104.0 229.0 L 105.0 229.0 L 106.0 229.0 L 106.0 229.0 L 107.0 229.0 L 107.0 229.0 L 108.0 229.0 L 109.0 229.0 L 110.0 230.0 L 110.0 230.0 L 111.0 230.0 L 112.0 230.0 L 113.0 230.0 L 114.0 230.0 L 115.0 230.0 L 117.0 230.0 L 118.0 230.0 L 120.0 230.0 L 123.0 230.0 L 125.0 230.0 L 127.0 230.0 L 130.0 230.0 L 133.0 230.0 L 136.0 230.0 L 139.0 230.0 L 142.0 230.0 L 144.0 230.0 L 147.0 230.0 L 150.0 230.0 L 152.0 230.0 L 154.0 230.0 L 155.0 229.0 L 157.0 229.0 L 158.0 229.0 L 160.0 229.0 L 162.0 229.0 L 164.0 229.0 L 166.0 230.0 L 168.0 230.0 L 172.0 230.0 L 175.0 230.0 L 178.0 230.0 L 182.0 230.0 L 185.0 230.0 L 188.0 230.0 L 191.0 230.0 L 193.0 230.0 L 195.0 230.0 L 196.0 230.0 L 197.0 230.0 L 198.0 230.0 L 199.0 231.0 L 200.0 231.0 L 200.0 231.0 L 201.0 231.0 L 201.0 232.0 L 201.0 232.0 L 202.0 232.0 " stroke="black" fill="none" stroke-width="5.0" stroke-linecap="round" stroke-linejoin="round" />
</svg>