<svg xmlns="http://www.w3.org/2000/svg" width="300" height="300" viewBox="0 0 300 300">
<path d="M 187.0 128.0 L 187.0 128.0 L 187.0 128.0 L 187.0 128.0 L 186.0 127.0 L 186.0 127.0 L 186.0 126.0 L 185.0 125.0 L 185.0 125.0 L 184.0 124.0 L 182.0 123.0 L 181.0 122.0 L 179.0 122.0 L 175.0 121.0 L 172.0 121.0 L 168.0 121.0 L 163.0 121.0 L 159.0 122.0 L 155.0 123.0 L 152.0 125.0 L 149.0 127.0 L 146.0 129.0 L 143.0 131.0 L 141.0 134.0 L 138.0 137.0 L 135.0 140.0 L 132.0 145.0 L 130.0 149.0 L 127.0 154.0 L 124.0 159.0 L 123.0 163.0 L 121.0 168.0 L 120.0 172.0 L 120.0 176.0 L 120.0 181.0 L 120.0 186.0 L 120.0 191.0 L 120.0 196.0 L 120.0 201.0 L 121.0 205.0 L 122.0 209.0 L 124.0 212.0 L 127.0 215.0 L 130.0 217.0 L 134.0 219.0 L 139.0 221.0 L 144.0 222.0 L 149.0 223.0 L 154.0 223.0 L 162.0 222.0 L 170.0 220.0 L 180.0 217.0 L 190.0 213.0 L 197.0 211.0 L 202.0 209.0 " stroke="black" fill="none" stroke-width="5.0" stroke-linecap="round" stroke-linejoin="round" />
</svg>