<svg xmlns="http://www.w3.org/2000/svg" width="300" height="300" viewBox="0 0 300 300">
<path d="M 156.0 66.0 L 156.0 66.0 L 156.0 66.0 L 156.0 66.0 L 156.0 66.0 L 156.0 66.0 L 156.0 66.0 L 156.0 66.0 L 155.0 66.0 L 155.0 68.0 L 154.0 70.0 L 153.0 73.0 L 152.0 76.0 L 151.0 80.0 L 149.0 85.0 L 148.0 89.0 L 147.0 92.0 L 146.0 94.0 L 146.0 95.0 L 146.0 95.0 " stroke="black" fill="none" stroke-width="5.0" stroke-linecap="round" stroke-linejoin="round" />
<path d="M 118.0 84.0 L 118.0 84.0 L 118.0 84.0 L 118.0 84.0 L 118.0 84.0 L 119.0 84.0 L 119.0 84.0 L 120.0 84.0 L 120.0 84.0 L 121.0 84.0 L 121.0 85.0 L 122.0 85.0 L 123.0 86.0 " stroke="black" fill="none" stroke-width="5.0" stroke-linecap="round" stroke-linejoin="round" />
<path d="M 175.0 85.0 L 174.0 85.0 L 174.0 85.0 L 173.0 85.0 L 173.0 85.0 L 173.0 85.0 L 172.0 85.0 L 172.0 85.0 L 172.0 85.0 L 173.0 85.0 L 173.0 86.0 L 174.0 86.0 L 175.0 87.0 L 176.0 88.0 L 178.0 89.0 L 179.0 90.0 L 180.0 91.0 L 181.0 91.0 " stroke="black" fill="none" stroke-width="5.0" stroke-linecap="round" stroke-linejoin="round" />
</svg>