<svg xmlns="http://www.w3.org/2000/svg" width="300" height="300" viewBox="0 0 300 300">
<path d="M 111.0 128.0 L 111.0 128.0 L 111.0 127.0 L 111.0 127.0 L 110.0 127.0 L 110.0 126.0 L 110.0 126.0 L 110.0 126.0 L 110.0 126.0 L 110.0 126.0 L 109.0 126.0 L 109.0 126.0 L 109.0 128.0 L 108.0 129.0 L 108.0 131.0 L 107.0 134.0 L 106.0 136.0 L 106.0 139.0 L 105.0 142.0 L 104.0 145.0 L 103.0 148.0 L 102.0 151.0 L 101.0 154.0 L 100.0 157.0 L 99.0 160.0 L 99.0 163.0 L 98.0 166.0 L 98.0 168.0 L 98.0 170.0 L 98.0 172.0 L 98.0 174.0 L 98.0 176.0 L 97.0 178.0 L 97.0 180.0 L 97.0 183.0 L 96.0 187.0 L 95.0 190.0 L 94.0 193.0 L 94.0 196.0 L 93.0 198.0 L 93.0 200.0 L 93.0 202.0 L 93.0 203.0 L 93.0 205.0 L 94.0 206.0 L 94.0 208.0 L 95.0 211.0 L 96.0 213.0 L 97.0 215.0 L 98.0 218.0 L 99.0 220.0 L 101.0 223.0 L 102.0 226.0 L 104.0 228.0 L 105.0 231.0 L 107.0 233.0 L 109.0 234.0 L 111.0 236.0 L 113.0 237.0 L 115.0 237.0 L 117.0 238.0 L 120.0 238.0 L 122.0 238.0 L 125.0 237.0 L 128.0 235.0 L 132.0 232.0 L 135.0 229.0 L 139.0 225.0 L 141.0 221.0 L 143.0 217.0 L 145.0 214.0 L 146.0 210.0 L 147.0 206.0 L 148.0 202.0 L 148.0 197.0 L 149.0 193.0 L 150.0 188.0 L 151.0 183.0 L 151.0 179.0 L 152.0 175.0 L 152.0 172.0 L 152.0 170.0 L 152.0 169.0 L 152.0 168.0 L 152.0 168.0 L 152.0 168.0 L 152.0 168.0 L 152.0 168.0 L 152.0 168.0 L 152.0 168.0 L 152.0 169.0 L 151.0 170.0 L 151.0 172.0 L 151.0 174.0 L 150.0 177.0 L 150.0 180.0 L 150.0 183.0 L 150.0 186.0 L 149.0 189.0 L 149.0 192.0 L 149.0 195.0 L 149.0 198.0 L 149.0 201.0 L 149.0 204.0 L 150.0 207.0 L 150.0 210.0 L 151.0 213.0 L 152.0 217.0 L 154.0 220.0 L 155.0 225.0 L 157.0 229.0 L 159.0 233.0 L 162.0 236.0 L 165.0 238.0 L 168.0 240.0 L 171.0 240.0 L 174.0 240.0 L 177.0 239.0 L 181.0 237.0 L 184.0 235.0 L 187.0 232.0 L 190.0 229.0 L 192.0 226.0 L 194.0 223.0 L 197.0 221.0 L 198.0 219.0 L 200.0 217.0 L 201.0 214.0 L 202.0 212.0 L 202.0 209.0 L 202.0 205.0 L 202.0 200.0 L 202.0 196.0 L 202.0 190.0 L 202.0 183.0 L 202.0 176.0 L 202.0 169.0 L 202.0 163.0 L 202.0 158.0 L 201.0 152.0 L 201.0 147.0 L 201.0 142.0 L 201.0 136.0 L 200.0 132.0 L 200.0 128.0 L 199.0 125.0 L 198.0 123.0 L 198.0 122.0 L 198.0 122.0 L 197.0 121.0 L 197.0 121.0 L 197.0 121.0 L 197.0 122.0 " stroke="black" fill="none" stroke-width="5.0" stroke-linecap="round" stroke-linejoin="round" />
</svg>