<svg xmlns="http://www.w3.org/2000/svg" width="300" height="300" viewBox="0 0 300 300">
<path d="M 104.0 175.0 L 104.0 175.0 L 104.0 175.0 L 104.0 175.0 L 103.0 175.0 L 103.0 175.0 L 103.0 175.0 L 103.0 176.0 L 103.0 177.0 L 104.0 178.0 L 104.0 180.0 L 105.0 181.0 L 106.0 183.0 L 107.0 184.0 " stroke="black" fill="none" stroke-width="5.0" stroke-linecap="round" stroke-linejoin="round" />
<path d="M 148.0 173.0 L 148.0 173.0 L 148.0 173.0 L 148.0 174.0 L 148.0 174.0 L 148.0 174.0 L 148.0 175.0 L 148.0 175.0 L 148.0 176.0 L 148.0 176.0 L 148.0 177.0 L 148.0 178.0 L 149.0 179.0 L 150.0 180.0 L 150.0 182.0 L 151.0 182.0 " stroke="black" fill="none" stroke-width="5.0" stroke-linecap="round" stroke-linejoin="round" />
<path d="M 194.0 173.0 L 194.0 173.0 L 194.0 173.0 L 194.0 173.0 L 194.0 173.0 L 194.0 172.0 L 193.0 172.0 L 193.0 172.0 L 193.0 172.0 L 193.0 173.0 L 193.0 174.0 L 193.0 176.0 L 194.0 177.0 L 194.0 179.0 L 195.0 180.0 L 196.0 182.0 L 196.0 183.0 L 197.0 184.0 L 197.0 185.0 " stroke="black" fill="none" stroke-width="5.0" stroke-linecap="round" stroke-linejoin="round" />
<path d="M 236.0 175.0 L 236.0 175.0 L 236.0 175.0 L 236.0 175.0 L 236.0 175.0 L 236.0 175.0 L 236.0 175.0 L 236.0 175.0 L 236.0 175.0 L 236.0 175.0 L 237.0 175.0 L 237.0 176.0 L 238.0 178.0 L 239.0 180.0 L 239.0 182.0 L 240.0 184.0 L 241.0 186.0 L 242.0 187.0 L 243.0 188.0 L 243.0 188.0 " stroke="black" fill="none" stroke-width="5.0" stroke-linecap="round" stroke-linejoin="round" />
</svg>