<svg xmlns="http://www.w3.org/2000/svg" width="300" height="300" viewBox="0 0 300 300">
<path d="M 104.0 61.0 L 104.0 61.0 L 104.0 61.0 L 103.0 61.0 L 103.0 61.0 L 103.0 60.0 L 103.0 60.0 L 103.0 60.0 L 102.0 60.0 L 102.0 60.0 L 102.0 60.0 L 102.0 60.0 L 102.0 60.0 L 102.0 60.0 L 102.0 60.0 L 102.0 60.0 L 102.0 60.0 L 102.0 60.0 L 102.0 60.0 L 102.0 60.0 L 102.0 60.0 L 102.0 60.0 L 103.0 60.0 L 104.0 60.0 L 105.0 60.0 L 105.0 60.0 L 106.0 60.0 L 107.0 60.0 L 108.0 60.0 L 109.0 60.0 L 110.0 60.0 L 111.0 60.0 L 112.0 61.0 L 113.0 61.0 L 114.0 61.0 L 115.0 61.0 L 116.0 62.0 L 117.0 62.0 L 118.0 62.0 L 119.0 62.0 L 120.0 62.0 L 121.0 62.0 L 122.0 63.0 L 123.0 63.0 L 124.0 63.0 L 125.0 63.0 L 126.0 63.0 L 127.0 63.0 L 128.0 63.0 L 129.0 63.0 L 130.0 63.0 L 131.0 63.0 L 132.0 63.0 L 133.0 63.0 L 134.0 63.0 L 135.0 63.0 L 135.0 63.0 L 136.0 63.0 L 137.0 63.0 L 138.0 63.0 L 139.0 63.0 L 140.0 63.0 L 141.0 63.0 L 141.0 63.0 L 142.0 63.0 L 143.0 63.0 L 143.0 63.0 L 144.0 63.0 L 145.0 63.0 L 145.0 63.0 L 146.0 62.0 L 147.0 62.0 L 147.0 62.0 L 148.0 62.0 L 148.0 62.0 L 149.0 62.0 L 149.0 62.0 L 150.0 62.0 L 150.0 62.0 L 151.0 62.0 L 151.0 62.0 L 152.0 62.0 L 152.0 62.0 L 153.0 62.0 L 153.0 62.0 L 154.0 62.0 L 154.0 62.0 L 155.0 62.0 L 156.0 62.0 L 156.0 62.0 L 157.0 62.0 L 158.0 62.0 L 158.0 62.0 L 159.0 62.0 L 160.0 62.0 L 161.0 62.0 L 162.0 62.0 L 163.0 62.0 L 164.0 62.0 L 166.0 62.0 L 167.0 62.0 L 169.0 62.0 L 170.0 62.0 L 172.0 62.0 L 174.0 62.0 L 176.0 62.0 L 178.0 62.0 L 180.0 62.0 L 181.0 62.0 L 183.0 62.0 L 184.0 62.0 L 185.0 62.0 L 187.0 62.0 L 188.0 62.0 L 189.0 62.0 L 190.0 62.0 L 191.0 62.0 L 192.0 62.0 L 192.0 62.0 L 193.0 62.0 L 193.0 62.0 L 194.0 62.0 L 194.0 62.0 " stroke="black" fill="none" stroke-width="5.0" stroke-linecap="round" stroke-linejoin="round" />
</svg>