<svg xmlns="http://www.w3.org/2000/svg" width="300" height="300" viewBox="0 0 300 300">
<path d="M 168.0 64.0 L 168.0 64.0 L 168.0 64.0 L 167.0 63.0 L 167.0 62.0 L 166.0 61.0 L 166.0 61.0 L 165.0 60.0 L 164.0 59.0 L 163.0 58.0 L 162.0 57.0 L 161.0 56.0 L 160.0 55.0 L 159.0 53.0 L 158.0 52.0 L 157.0 51.0 L 156.0 50.0 L 154.0 50.0 L 153.0 49.0 L 151.0 49.0 L 150.0 50.0 L 148.0 52.0 L 146.0 54.0 L 143.0 58.0 L 141.0 61.0 L 139.0 64.0 L 136.0 68.0 L 134.0 71.0 L 132.0 75.0 L 130.0 78.0 L 128.0 82.0 L 127.0 85.0 L 126.0 89.0 L 126.0 92.0 L 126.0 95.0 L 127.0 99.0 L 128.0 101.0 L 130.0 104.0 L 133.0 106.0 L 135.0 107.0 L 139.0 107.0 L 142.0 107.0 L 145.0 107.0 L 149.0 105.0 L 153.0 102.0 L 157.0 99.0 L 161.0 95.0 L 165.0 91.0 L 168.0 87.0 L 171.0 84.0 L 174.0 80.0 L 175.0 78.0 L 177.0 76.0 L 177.0 74.0 L 178.0 72.0 L 178.0 70.0 L 178.0 68.0 L 178.0 67.0 L 178.0 66.0 L 178.0 65.0 L 178.0 64.0 L 178.0 64.0 L 178.0 64.0 L 178.0 64.0 L 178.0 64.0 L 178.0 65.0 L 178.0 66.0 L 178.0 67.0 L 178.0 69.0 L 178.0 71.0 L 178.0 73.0 L 178.0 76.0 L 177.0 78.0 L 177.0 82.0 L 177.0 86.0 L 177.0 91.0 L 177.0 96.0 L 176.0 103.0 L 176.0 109.0 L 175.0 116.0 L 174.0 122.0 L 173.0 127.0 L 171.0 131.0 L 169.0 136.0 L 167.0 139.0 L 164.0 142.0 L 161.0 146.0 L 159.0 148.0 L 156.0 150.0 L 153.0 151.0 L 151.0 152.0 L 148.0 153.0 L 146.0 154.0 L 144.0 154.0 L 141.0 154.0 L 138.0 154.0 L 135.0 153.0 L 132.0 151.0 L 128.0 148.0 L 126.0 143.0 L 124.0 138.0 L 124.0 131.0 L 124.0 127.0 L 124.0 125.0 " stroke="black" fill="none" stroke-width="5.0" stroke-linecap="round" stroke-linejoin="round" />
</svg>