<svg xmlns="http://www.w3.org/2000/svg" width="300" height="300" viewBox="0 0 300 300">
<path d="M 97.0 156.0 L 97.0 156.0 L 97.0 156.0 L 96.0 156.0 L 96.0 156.0 L 96.0 156.0 L 95.0 156.0 L 95.0 155.0 L 95.0 155.0 L 95.0 154.0 L 95.0 154.0 L 95.0 153.0 L 95.0 153.0 L 95.0 153.0 L 95.0 153.0 L 95.0 153.0 L 96.0 153.0 L 97.0 154.0 L 98.0 156.0 L 99.0 158.0 L 100.0 160.0 L 101.0 162.0 L 102.0 164.0 L 103.0 166.0 L 104.0 167.0 L 105.0 168.0 L 106.0 169.0 L 107.0 170.0 L 107.0 170.0 " stroke="black" fill="none" stroke-width="5.0" stroke-linecap="round" stroke-linejoin="round" />
<path d="M 193.0 153.0 L 193.0 153.0 L 193.0 153.0 L 193.0 153.0 L 193.0 153.0 L 193.0 154.0 L 193.0 154.0 L 193.0 154.0 L 193.0 155.0 L 193.0 155.0 L 194.0 156.0 L 194.0 157.0 L 194.0 157.0 L 195.0 158.0 L 196.0 159.0 L 197.0 161.0 L 198.0 162.0 L 199.0 163.0 L 200.0 164.0 L 201.0 165.0 L 202.0 166.0 L 202.0 166.0 L 203.0 166.0 L 203.0 166.0 L 203.0 166.0 L 203.0 166.0 " stroke="black" fill="none" stroke-width="5.0" stroke-linecap="round" stroke-linejoin="round" />
</svg>