<svg xmlns="http://www.w3.org/2000/svg" width="300" height="300" viewBox="0 0 300 300">
<path d="M 166.0 52.0 L 166.0 52.0 L 164.0 52.0 L 163.0 52.0 L 162.0 52.0 L 160.0 52.0 L 159.0 52.0 L 157.0 53.0 L 156.0 53.0 L 154.0 54.0 L 153.0 55.0 L 152.0 55.0 L 151.0 56.0 L 150.0 57.0 L 148.0 57.0 L 147.0 58.0 L 145.0 60.0 L 143.0 61.0 L 141.0 63.0 L 139.0 66.0 L 136.0 68.0 L 134.0 71.0 L 132.0 73.0 L 131.0 76.0 L 130.0 78.0 L 128.0 81.0 L 127.0 84.0 L 125.0 86.0 L 123.0 90.0 L 121.0 94.0 L 120.0 98.0 L 118.0 103.0 L 117.0 108.0 L 117.0 111.0 L 117.0 115.0 L 118.0 118.0 L 119.0 121.0 L 121.0 123.0 L 123.0 126.0 L 126.0 128.0 L 129.0 130.0 L 133.0 132.0 L 138.0 133.0 L 142.0 134.0 L 147.0 135.0 L 151.0 135.0 L 154.0 134.0 L 158.0 133.0 L 162.0 130.0 L 165.0 127.0 L 168.0 123.0 L 171.0 119.0 L 173.0 115.0 L 175.0 110.0 L 176.0 106.0 L 176.0 102.0 L 176.0 97.0 L 175.0 93.0 L 174.0 90.0 L 172.0 88.0 L 170.0 86.0 L 167.0 85.0 L 164.0 84.0 L 161.0 83.0 L 158.0 82.0 L 154.0 82.0 L 151.0 81.0 L 148.0 81.0 L 145.0 82.0 L 142.0 84.0 L 139.0 85.0 L 137.0 87.0 L 135.0 89.0 L 134.0 91.0 L 134.0 92.0 " stroke="black" fill="none" stroke-width="5.0" stroke-linecap="round" stroke-linejoin="round" />
</svg>