<svg xmlns="http://www.w3.org/2000/svg" width="300" height="300" viewBox="0 0 300 300">
<path d="M 164.0 173.0 L 164.0 173.0 L 164.0 172.0 L 163.0 172.0 L 163.0 171.0 L 162.0 171.0 L 162.0 170.0 L 161.0 170.0 L 160.0 169.0 L 159.0 169.0 L 158.0 169.0 L 156.0 169.0 L 155.0 169.0 L 153.0 170.0 L 151.0 171.0 L 148.0 173.0 L 146.0 176.0 L 143.0 180.0 L 140.0 184.0 L 136.0 189.0 L 133.0 193.0 L 130.0 196.0 L 127.0 200.0 L 124.0 204.0 L 122.0 207.0 L 121.0 211.0 L 120.0 214.0 L 119.0 218.0 L 119.0 222.0 L 119.0 225.0 L 119.0 229.0 L 119.0 233.0 L 121.0 236.0 L 122.0 238.0 L 124.0 241.0 L 126.0 244.0 L 129.0 247.0 L 133.0 250.0 L 136.0 252.0 L 139.0 255.0 L 143.0 256.0 L 146.0 257.0 L 148.0 257.0 L 152.0 257.0 L 154.0 255.0 L 157.0 253.0 L 160.0 250.0 L 164.0 247.0 L 167.0 245.0 L 171.0 242.0 L 175.0 239.0 L 178.0 236.0 L 180.0 233.0 L 182.0 231.0 L 182.0 228.0 L 182.0 224.0 L 182.0 221.0 L 181.0 218.0 L 179.0 215.0 L 177.0 212.0 L 174.0 210.0 L 171.0 208.0 L 167.0 207.0 L 164.0 206.0 L 160.0 205.0 L 156.0 205.0 L 153.0 205.0 L 149.0 205.0 L 146.0 206.0 L 144.0 207.0 L 141.0 208.0 L 139.0 209.0 L 138.0 210.0 L 137.0 211.0 L 137.0 212.0 " stroke="black" fill="none" stroke-width="5.0" stroke-linecap="round" stroke-linejoin="round" />
</svg>