<svg xmlns="http://www.w3.org/2000/svg" width="300" height="300" viewBox="0 0 300 300">
<path d="M 117.0 93.0 L 116.0 94.0 L 116.0 97.0 L 116.0 101.0 L 116.0 105.0 L 116.0 109.0 L 116.0 115.0 L 116.0 120.0 L 117.0 127.0 L 117.0 136.0 L 117.0 146.0 L 118.0 156.0 L 119.0 168.0 L 119.0 179.0 L 120.0 191.0 L 120.0 203.0 L 121.0 213.0 L 121.0 221.0 L 121.0 230.0 L 121.0 235.0 L 121.0 238.0 L 121.0 238.0 " stroke="black" fill="none" stroke-width="5.0" stroke-linecap="round" stroke-linejoin="round" />
<path d="M 183.0 89.0 L 182.0 89.0 L 181.0 89.0 L 180.0 90.0 L 180.0 92.0 L 180.0 96.0 L 180.0 101.0 L 180.0 107.0 L 181.0 115.0 L 181.0 124.0 L 182.0 133.0 L 182.0 145.0 L 182.0 158.0 L 182.0 170.0 L 181.0 183.0 L 180.0 197.0 L 180.0 208.0 L 180.0 218.0 L 180.0 227.0 L 180.0 234.0 L 180.0 238.0 L 180.0 241.0 L 180.0 241.0 L 181.0 241.0 " stroke="black" fill="none" stroke-width="5.0" stroke-linecap="round" stroke-linejoin="round" />
</svg>