<svg xmlns="http://www.w3.org/2000/svg" width="300" height="300" viewBox="0 0 300 300">
<path d="M 62.0 144.0 L 62.0 144.0 L 62.0 142.0 L 62.0 140.0 L 62.0 138.0 L 62.0 137.0 L 62.0 136.0 L 62.0 136.0 L 63.0 136.0 L 63.0 137.0 L 64.0 140.0 L 65.0 144.0 L 66.0 149.0 L 68.0 154.0 L 70.0 161.0 L 73.0 168.0 L 76.0 176.0 L 80.0 185.0 L 85.0 195.0 L 89.0 203.0 L 93.0 211.0 L 95.0 217.0 L 97.0 221.0 L 98.0 225.0 L 99.0 229.0 L 100.0 230.0 L 100.0 231.0 L 100.0 231.0 L 100.0 231.0 L 101.0 230.0 L 101.0 227.0 L 102.0 223.0 L 102.0 218.0 L 104.0 212.0 L 105.0 206.0 L 107.0 199.0 L 109.0 190.0 L 111.0 180.0 L 114.0 170.0 L 118.0 161.0 L 122.0 154.0 L 126.0 149.0 L 129.0 145.0 L 132.0 142.0 L 134.0 139.0 " stroke="black" fill="none" stroke-width="5.0" stroke-linecap="round" stroke-linejoin="round" />
<path d="M 171.0 149.0 L 171.0 149.0 L 171.0 149.0 L 171.0 149.0 L 171.0 149.0 L 171.0 150.0 L 172.0 152.0 L 172.0 157.0 L 173.0 166.0 L 174.0 177.0 L 174.0 190.0 L 175.0 202.0 L 175.0 211.0 L 175.0 218.0 L 175.0 221.0 L 175.0 221.0 " stroke="black" fill="none" stroke-width="5.0" stroke-linecap="round" stroke-linejoin="round" />
<path d="M 164.0 82.0 L 164.0 82.0 L 163.0 82.0 L 163.0 82.0 L 163.0 82.0 L 164.0 84.0 L 166.0 87.0 L 170.0 92.0 L 174.0 98.0 L 178.0 103.0 L 183.0 109.0 L 187.0 115.0 L 188.0 117.0 " stroke="black" fill="none" stroke-width="5.0" stroke-linecap="round" stroke-linejoin="round" />
<path d="M 219.0 139.0 L 219.0 139.0 L 219.0 139.0 L 219.0 140.0 L 219.0 141.0 L 220.0 143.0 L 221.0 146.0 L 223.0 152.0 L 224.0 158.0 L 225.0 166.0 L 226.0 176.0 L 227.0 186.0 L 227.0 196.0 L 227.0 205.0 L 227.0 210.0 L 227.0 213.0 L 227.0 214.0 " stroke="black" fill="none" stroke-width="5.0" stroke-linecap="round" stroke-linejoin="round" />
<path d="M 214.0 78.0 L 213.0 78.0 L 212.0 78.0 L 211.0 78.0 L 211.0 79.0 L 211.0 81.0 L 214.0 83.0 L 217.0 87.0 L 222.0 90.0 L 226.0 94.0 L 231.0 99.0 L 235.0 102.0 L 238.0 106.0 L 241.0 110.0 " stroke="black" fill="none" stroke-width="5.0" stroke-linecap="round" stroke-linejoin="round" />
</svg>