<svg xmlns="http://www.w3.org/2000/svg" width="300" height="300" viewBox="0 0 300 300">
<path d="M 94.0 146.0 L 94.0 145.0 L 93.0 144.0 L 93.0 143.0 L 93.0 141.0 L 93.0 140.0 L 93.0 139.0 L 93.0 138.0 L 93.0 137.0 L 93.0 137.0 L 94.0 136.0 L 94.0 136.0 L 94.0 138.0 L 95.0 141.0 L 96.0 146.0 L 96.0 153.0 L 97.0 161.0 L 98.0 169.0 L 98.0 180.0 L 98.0 192.0 L 98.0 202.0 L 98.0 211.0 L 97.0 218.0 L 97.0 223.0 L 96.0 225.0 " stroke="black" fill="none" stroke-width="5.0" stroke-linecap="round" stroke-linejoin="round" />
<path d="M 149.0 143.0 L 149.0 143.0 L 148.0 143.0 L 148.0 142.0 L 148.0 142.0 L 147.0 142.0 L 147.0 143.0 L 147.0 145.0 L 148.0 148.0 L 148.0 153.0 L 149.0 160.0 L 149.0 168.0 L 149.0 180.0 L 149.0 193.0 L 149.0 205.0 L 149.0 217.0 L 148.0 225.0 L 148.0 230.0 " stroke="black" fill="none" stroke-width="5.0" stroke-linecap="round" stroke-linejoin="round" />
<path d="M 209.0 136.0 L 209.0 136.0 L 208.0 137.0 L 207.0 138.0 L 207.0 139.0 L 206.0 141.0 L 206.0 145.0 L 206.0 149.0 L 207.0 156.0 L 207.0 163.0 L 208.0 173.0 L 208.0 185.0 L 208.0 196.0 L 208.0 207.0 L 207.0 216.0 L 207.0 223.0 L 206.0 227.0 L 206.0 230.0 " stroke="black" fill="none" stroke-width="5.0" stroke-linecap="round" stroke-linejoin="round" />
<path d="M 86.0 83.0 L 85.0 83.0 L 84.0 83.0 L 83.0 83.0 L 83.0 83.0 L 83.0 83.0 L 83.0 85.0 L 85.0 88.0 L 88.0 92.0 L 91.0 96.0 L 94.0 100.0 L 97.0 105.0 L 100.0 109.0 L 102.0 112.0 L 103.0 113.0 " stroke="black" fill="none" stroke-width="5.0" stroke-linecap="round" stroke-linejoin="round" />
<path d="M 136.0 75.0 L 136.0 75.0 L 136.0 75.0 L 136.0 76.0 L 137.0 77.0 L 138.0 79.0 L 140.0 82.0 L 142.0 86.0 L 144.0 90.0 L 147.0 95.0 L 148.0 99.0 L 150.0 104.0 " stroke="black" fill="none" stroke-width="5.0" stroke-linecap="round" stroke-linejoin="round" />
<path d="M 193.0 82.0 L 193.0 82.0 L 193.0 83.0 L 193.0 84.0 L 193.0 86.0 L 193.0 88.0 L 194.0 91.0 L 195.0 94.0 L 197.0 98.0 L 199.0 103.0 L 201.0 107.0 L 204.0 111.0 L 205.0 114.0 L 207.0 116.0 " stroke="black" fill="none" stroke-width="5.0" stroke-linecap="round" stroke-linejoin="round" />
</svg>