<svg xmlns="http://www.w3.org/2000/svg" width="300" height="300" viewBox="0 0 300 300">
<path d="M 71.0 102.0 L 71.0 102.0 L 71.0 102.0 L 70.0 102.0 L 70.0 102.0 L 70.0 102.0 L 70.0 102.0 L 70.0 102.0 L 70.0 103.0 L 70.0 104.0 L 71.0 106.0 L 73.0 108.0 L 74.0 110.0 L 76.0 113.0 L 78.0 117.0 L 80.0 120.0 L 82.0 125.0 L 85.0 130.0 L 87.0 135.0 L 89.0 141.0 L 91.0 148.0 L 93.0 154.0 L 96.0 159.0 L 98.0 164.0 L 100.0 169.0 L 102.0 173.0 L 103.0 178.0 L 105.0 183.0 L 106.0 188.0 L 107.0 193.0 L 108.0 196.0 L 110.0 200.0 L 111.0 204.0 L 112.0 206.0 L 113.0 209.0 L 114.0 212.0 L 114.0 214.0 L 115.0 216.0 L 115.0 218.0 L 115.0 219.0 L 116.0 221.0 L 116.0 222.0 L 117.0 223.0 L 117.0 223.0 L 118.0 223.0 L 118.0 222.0 L 119.0 220.0 L 120.0 216.0 L 121.0 212.0 L 122.0 207.0 L 124.0 201.0 L 126.0 194.0 L 128.0 187.0 L 132.0 177.0 L 136.0 167.0 L 140.0 156.0 L 145.0 144.0 L 148.0 134.0 L 151.0 124.0 L 153.0 116.0 L 153.0 112.0 L 154.0 109.0 L 154.0 107.0 L 154.0 106.0 L 154.0 105.0 L 154.0 105.0 " stroke="black" fill="none" stroke-width="5.0" stroke-linecap="round" stroke-linejoin="round" />
<path d="M 205.0 101.0 L 205.0 101.0 L 205.0 102.0 L 206.0 103.0 L 206.0 105.0 L 207.0 108.0 L 207.0 112.0 L 207.0 117.0 L 207.0 123.0 L 207.0 131.0 L 207.0 140.0 L 207.0 149.0 L 207.0 159.0 L 206.0 168.0 L 206.0 177.0 L 206.0 186.0 L 206.0 195.0 L 206.0 202.0 L 206.0 208.0 L 206.0 214.0 L 206.0 219.0 L 206.0 224.0 L 206.0 229.0 L 206.0 232.0 L 206.0 235.0 L 206.0 237.0 L 206.0 237.0 L 206.0 238.0 L 206.0 238.0 L 206.0 238.0 L 207.0 238.0 " stroke="black" fill="none" stroke-width="5.0" stroke-linecap="round" stroke-linejoin="round" />
</svg>