<svg xmlns="http://www.w3.org/2000/svg" width="300" height="300" viewBox="0 0 300 300">
<path d="M 103.0 137.0 L 103.0 137.0 L 103.0 137.0 L 102.0 137.0 L 102.0 137.0 L 101.0 137.0 L 101.0 139.0 L 101.0 142.0 L 101.0 146.0 L 101.0 153.0 L 102.0 163.0 L 102.0 174.0 L 103.0 188.0 L 103.0 202.0 L 102.0 214.0 L 101.0 225.0 L 101.0 235.0 L 100.0 241.0 L 100.0 244.0 L 100.0 245.0 " stroke="black" fill="none" stroke-width="5.0" stroke-linecap="round" stroke-linejoin="round" />
<path d="M 92.0 80.0 L 92.0 80.0 L 91.0 80.0 L 90.0 80.0 L 90.0 80.0 L 90.0 80.0 L 92.0 82.0 L 94.0 86.0 L 98.0 91.0 L 102.0 96.0 L 105.0 102.0 L 109.0 107.0 L 111.0 110.0 " stroke="black" fill="none" stroke-width="5.0" stroke-linecap="round" stroke-linejoin="round" />
<path d="M 151.0 142.0 L 151.0 142.0 L 151.0 142.0 L 151.0 142.0 L 151.0 142.0 L 151.0 143.0 L 151.0 144.0 L 153.0 147.0 L 156.0 152.0 L 161.0 158.0 L 168.0 165.0 L 176.0 174.0 L 182.0 184.0 L 188.0 194.0 L 193.0 203.0 L 195.0 210.0 L 197.0 215.0 L 199.0 219.0 L 200.0 222.0 L 201.0 223.0 L 202.0 223.0 L 202.0 223.0 " stroke="black" fill="none" stroke-width="5.0" stroke-linecap="round" stroke-linejoin="round" />
<path d="M 202.0 134.0 L 202.0 134.0 L 202.0 134.0 L 201.0 133.0 L 201.0 133.0 L 200.0 134.0 L 199.0 136.0 L 197.0 141.0 L 195.0 148.0 L 192.0 158.0 L 187.0 169.0 L 182.0 181.0 L 175.0 195.0 L 167.0 207.0 L 160.0 217.0 L 153.0 228.0 L 148.0 237.0 L 146.0 243.0 L 144.0 247.0 " stroke="black" fill="none" stroke-width="5.0" stroke-linecap="round" stroke-linejoin="round" />
</svg>