<svg xmlns="http://www.w3.org/2000/svg" width="300" height="300" viewBox="0 0 300 300">
<path d="M 105.0 102.0 L 105.0 102.0 L 104.0 102.0 L 104.0 102.0 L 104.0 102.0 L 104.0 102.0 L 104.0 103.0 L 104.0 105.0 L 105.0 108.0 L 107.0 113.0 L 110.0 118.0 L 114.0 124.0 L 118.0 131.0 L 122.0 139.0 L 126.0 147.0 L 130.0 156.0 L 133.0 163.0 L 136.0 171.0 L 140.0 180.0 L 142.0 188.0 L 145.0 195.0 L 148.0 203.0 L 150.0 208.0 L 152.0 213.0 L 154.0 218.0 L 155.0 223.0 L 157.0 227.0 L 158.0 229.0 L 158.0 231.0 L 159.0 231.0 L 160.0 231.0 L 160.0 230.0 L 161.0 228.0 L 161.0 225.0 L 162.0 222.0 L 162.0 218.0 L 163.0 212.0 L 164.0 206.0 L 166.0 199.0 L 168.0 191.0 L 171.0 181.0 L 176.0 170.0 L 181.0 158.0 L 185.0 148.0 L 189.0 139.0 L 192.0 130.0 L 194.0 123.0 L 195.0 118.0 L 196.0 113.0 L 196.0 111.0 " stroke="black" fill="none" stroke-width="5.0" stroke-linecap="round" stroke-linejoin="round" />
</svg>