<svg xmlns="http://www.w3.org/2000/svg" width="300" height="300" viewBox="0 0 300 300">
<path d="M 71.0 222.0 L 71.0 222.0 L 71.0 222.0 L 70.0 221.0 L 70.0 221.0 L 69.0 220.0 L 69.0 220.0 L 69.0 220.0 L 69.0 220.0 L 69.0 220.0 L 69.0 220.0 L 69.0 221.0 L 69.0 222.0 L 71.0 224.0 L 72.0 226.0 L 73.0 228.0 L 74.0 229.0 L 76.0 231.0 L 77.0 232.0 " stroke="black" fill="none" stroke-width="5.0" stroke-linecap="round" stroke-linejoin="round" />
<path d="M 149.0 218.0 L 149.0 218.0 L 149.0 218.0 L 149.0 218.0 L 149.0 218.0 L 149.0 218.0 L 149.0 219.0 L 150.0 220.0 L 151.0 221.0 L 152.0 223.0 L 153.0 225.0 L 154.0 228.0 L 155.0 230.0 L 156.0 231.0 " stroke="black" fill="none" stroke-width="5.0" stroke-linecap="round" stroke-linejoin="round" />
<path d="M 225.0 220.0 L 225.0 220.0 L 225.0 220.0 L 225.0 220.0 L 224.0 220.0 L 224.0 220.0 L 224.0 220.0 L 225.0 221.0 L 226.0 223.0 L 227.0 224.0 L 229.0 226.0 L 230.0 227.0 L 231.0 229.0 L 232.0 230.0 L 234.0 232.0 " stroke="black" fill="none" stroke-width="5.0" stroke-linecap="round" stroke-linejoin="round" />
</svg>