<svg xmlns="http://www.w3.org/2000/svg" width="300" height="300" viewBox="0 0 300 300">
<path d="M 82.0 153.0 L 82.0 153.0 L 82.0 153.0 L 82.0 154.0 L 82.0 154.0 L 82.0 154.0 L 82.0 155.0 L 82.0 155.0 L 82.0 155.0 L 82.0 155.0 L 82.0 155.0 L 82.0 154.0 L 82.0 154.0 L 82.0 154.0 L 82.0 153.0 L 82.0 152.0 L 82.0 152.0 L 83.0 151.0 L 83.0 150.0 L 84.0 149.0 L 85.0 148.0 L 86.0 147.0 L 86.0 146.0 L 87.0 144.0 L 88.0 143.0 L 89.0 141.0 L 90.0 140.0 L 91.0 139.0 L 92.0 138.0 L 93.0 137.0 L 93.0 136.0 L 94.0 135.0 L 95.0 134.0 L 96.0 134.0 L 97.0 133.0 L 98.0 132.0 L 99.0 131.0 L 100.0 131.0 L 100.0 130.0 L 101.0 130.0 L 102.0 130.0 L 103.0 129.0 L 103.0 129.0 L 104.0 128.0 L 105.0 128.0 L 105.0 128.0 L 106.0 127.0 L 106.0 127.0 L 107.0 126.0 L 108.0 126.0 L 108.0 125.0 L 109.0 125.0 L 109.0 124.0 L 110.0 124.0 L 110.0 123.0 L 111.0 123.0 L 112.0 123.0 L 112.0 123.0 L 113.0 123.0 L 114.0 122.0 L 114.0 122.0 L 115.0 122.0 L 116.0 122.0 L 117.0 122.0 L 118.0 122.0 L 119.0 122.0 L 120.0 122.0 L 121.0 122.0 L 122.0 122.0 L 123.0 122.0 L 124.0 122.0 L 125.0 122.0 L 126.0 122.0 L 127.0 123.0 L 128.0 123.0 L 129.0 124.0 L 130.0 124.0 L 132.0 125.0 L 133.0 125.0 L 134.0 126.0 L 135.0 126.0 L 136.0 127.0 L 137.0 127.0 L 138.0 128.0 L 139.0 128.0 L 140.0 129.0 L 141.0 129.0 L 142.0 130.0 L 143.0 130.0 L 143.0 131.0 L 144.0 131.0 L 144.0 132.0 L 145.0 132.0 L 146.0 133.0 L 146.0 133.0 L 147.0 134.0 L 147.0 134.0 L 148.0 135.0 L 148.0 135.0 L 148.0 136.0 L 149.0 136.0 L 149.0 137.0 L 150.0 138.0 L 150.0 138.0 L 151.0 139.0 L 151.0 140.0 L 151.0 141.0 L 152.0 141.0 L 152.0 142.0 L 153.0 143.0 L 153.0 143.0 L 154.0 144.0 L 154.0 144.0 L 155.0 145.0 L 155.0 145.0 L 156.0 146.0 L 157.0 146.0 L 157.0 146.0 L 158.0 147.0 L 159.0 147.0 L 160.0 147.0 L 160.0 147.0 L 162.0 147.0 L 162.0 148.0 L 164.0 148.0 L 165.0 148.0 L 166.0 148.0 L 167.0 148.0 L 168.0 148.0 L 169.0 148.0 L 171.0 148.0 L 172.0 148.0 L 174.0 148.0 L 175.0 148.0 L 177.0 148.0 L 179.0 148.0 L 180.0 148.0 L 182.0 148.0 L 183.0 148.0 L 184.0 148.0 L 186.0 148.0 L 187.0 148.0 L 188.0 148.0 L 189.0 148.0 L 191.0 148.0 L 191.0 148.0 L 193.0 148.0 L 193.0 148.0 L 194.0 148.0 L 195.0 148.0 L 196.0 148.0 L 197.0 148.0 L 198.0 148.0 L 198.0 148.0 L 199.0 147.0 L 200.0 147.0 L 201.0 146.0 L 202.0 146.0 L 203.0 145.0 L 204.0 144.0 L 205.0 143.0 L 206.0 142.0 L 207.0 141.0 L 209.0 140.0 L 210.0 139.0 L 212.0 137.0 L 213.0 136.0 L 215.0 134.0 L 216.0 132.0 L 218.0 131.0 L 219.0 129.0 L 220.0 127.0 L 221.0 126.0 L 223.0 124.0 L 223.0 123.0 L 224.0 122.0 L 225.0 121.0 L 225.0 121.0 " stroke="black" fill="none" stroke-width="5.0" stroke-linecap="round" stroke-linejoin="round" />
<path d="M 80.0 200.0 L 80.0 200.0 L 80.0 200.0 L 80.0 200.0 L 80.0 199.0 L 80.0 199.0 L 80.0 199.0 L 80.0 199.0 L 80.0 199.0 L 80.0 198.0 L 80.0 198.0 L 80.0 198.0 L 80.0 198.0 L 80.0 197.0 L 80.0 197.0 L 80.0 196.0 L 80.0 196.0 L 80.0 195.0 L 80.0 195.0 L 81.0 194.0 L 82.0 193.0 L 83.0 193.0 L 83.0 192.0 L 85.0 191.0 L 86.0 190.0 L 87.0 189.0 L 88.0 188.0 L 89.0 188.0 L 90.0 187.0 L 91.0 186.0 L 92.0 186.0 L 93.0 184.0 L 94.0 183.0 L 95.0 182.0 L 96.0 181.0 L 97.0 180.0 L 98.0 179.0 L 99.0 179.0 L 100.0 178.0 L 101.0 177.0 L 102.0 177.0 L 103.0 177.0 L 103.0 176.0 L 104.0 176.0 L 105.0 175.0 L 106.0 175.0 L 107.0 175.0 L 107.0 174.0 L 108.0 174.0 L 109.0 174.0 L 109.0 174.0 L 110.0 173.0 L 111.0 173.0 L 112.0 173.0 L 113.0 173.0 L 114.0 173.0 L 115.0 173.0 L 116.0 173.0 L 117.0 173.0 L 119.0 173.0 L 120.0 173.0 L 121.0 173.0 L 123.0 174.0 L 124.0 174.0 L 125.0 174.0 L 126.0 175.0 L 127.0 175.0 L 128.0 176.0 L 129.0 176.0 L 130.0 177.0 L 131.0 178.0 L 132.0 178.0 L 133.0 179.0 L 134.0 180.0 L 135.0 181.0 L 136.0 182.0 L 137.0 183.0 L 138.0 183.0 L 139.0 184.0 L 139.0 185.0 L 140.0 186.0 L 141.0 187.0 L 142.0 187.0 L 143.0 188.0 L 144.0 189.0 L 145.0 189.0 L 146.0 190.0 L 147.0 190.0 L 148.0 191.0 L 149.0 191.0 L 150.0 192.0 L 151.0 192.0 L 152.0 193.0 L 152.0 193.0 L 153.0 193.0 L 154.0 194.0 L 154.0 194.0 L 155.0 194.0 L 156.0 195.0 L 157.0 195.0 L 158.0 195.0 L 159.0 196.0 L 160.0 196.0 L 162.0 196.0 L 163.0 196.0 L 164.0 196.0 L 165.0 197.0 L 166.0 197.0 L 167.0 197.0 L 168.0 197.0 L 169.0 197.0 L 171.0 197.0 L 172.0 197.0 L 173.0 197.0 L 175.0 197.0 L 177.0 198.0 L 178.0 198.0 L 179.0 198.0 L 180.0 198.0 L 182.0 198.0 L 183.0 198.0 L 184.0 198.0 L 185.0 198.0 L 187.0 198.0 L 188.0 198.0 L 189.0 198.0 L 190.0 198.0 L 191.0 198.0 L 192.0 198.0 L 193.0 198.0 L 194.0 198.0 L 194.0 198.0 L 195.0 198.0 L 196.0 197.0 L 196.0 197.0 L 197.0 197.0 L 198.0 196.0 L 198.0 195.0 L 199.0 195.0 L 200.0 194.0 L 201.0 193.0 L 202.0 191.0 L 203.0 190.0 L 204.0 189.0 L 205.0 188.0 L 206.0 186.0 L 208.0 185.0 L 209.0 183.0 L 211.0 181.0 L 213.0 178.0 L 215.0 176.0 L 217.0 173.0 L 219.0 171.0 " stroke="black" fill="none" stroke-width="5.0" stroke-linecap="round" stroke-linejoin="round" />
</svg>