<svg xmlns="http://www.w3.org/2000/svg" width="300" height="300" viewBox="0 0 300 300">
<path d="M 101.0 105.0 L 101.0 105.0 L 100.0 105.0 L 100.0 105.0 L 100.0 105.0 L 99.0 106.0 L 99.0 106.0 L 99.0 107.0 L 98.0 107.0 L 98.0 108.0 L 98.0 108.0 L 98.0 109.0 L 98.0 110.0 L 98.0 112.0 L 98.0 113.0 L 98.0 115.0 L 98.0 117.0 L 98.0 120.0 L 98.0 123.0 L 98.0 125.0 L 98.0 128.0 L 98.0 132.0 L 98.0 135.0 L 98.0 138.0 L 98.0 141.0 L 98.0 144.0 L 98.0 147.0 L 98.0 150.0 L 97.0 152.0 L 97.0 155.0 L 97.0 158.0 L 97.0 160.0 L 97.0 162.0 L 97.0 165.0 L 97.0 167.0 L 97.0 169.0 L 96.0 171.0 L 96.0 172.0 L 96.0 174.0 L 96.0 175.0 L 96.0 177.0 L 96.0 179.0 L 96.0 181.0 L 96.0 184.0 L 96.0 186.0 L 96.0 188.0 L 96.0 190.0 L 96.0 192.0 L 96.0 194.0 L 96.0 196.0 L 96.0 198.0 L 96.0 199.0 L 96.0 201.0 L 96.0 203.0 L 96.0 205.0 L 96.0 206.0 L 96.0 208.0 L 96.0 210.0 L 96.0 211.0 L 96.0 213.0 L 96.0 215.0 L 96.0 217.0 L 96.0 218.0 L 96.0 220.0 L 96.0 222.0 L 96.0 223.0 L 96.0 225.0 L 96.0 227.0 L 96.0 229.0 L 96.0 231.0 L 96.0 233.0 L 97.0 235.0 L 97.0 237.0 L 97.0 238.0 L 97.0 240.0 L 97.0 242.0 L 97.0 243.0 L 97.0 244.0 L 97.0 245.0 L 97.0 246.0 L 97.0 247.0 L 97.0 248.0 L 97.0 249.0 L 97.0 250.0 L 97.0 250.0 L 97.0 251.0 L 97.0 251.0 L 97.0 251.0 L 97.0 251.0 L 98.0 250.0 " stroke="black" fill="none" stroke-width="5.0" stroke-linecap="round" stroke-linejoin="round" />
<path d="M 101.0 104.0 L 101.0 104.0 L 101.0 104.0 L 101.0 104.0 L 101.0 104.0 L 101.0 104.0 L 100.0 103.0 L 100.0 103.0 L 100.0 103.0 L 100.0 103.0 L 100.0 103.0 L 100.0 103.0 L 100.0 103.0 L 100.0 103.0 L 100.0 103.0 L 100.0 103.0 L 100.0 103.0 L 100.0 103.0 L 100.0 103.0 L 100.0 103.0 L 100.0 103.0 L 100.0 103.0 L 101.0 103.0 L 101.0 104.0 L 101.0 104.0 L 102.0 104.0 L 102.0 104.0 L 103.0 105.0 L 103.0 105.0 L 103.0 105.0 L 104.0 105.0 L 104.0 105.0 L 104.0 106.0 L 105.0 106.0 L 105.0 106.0 L 106.0 106.0 L 106.0 106.0 L 107.0 106.0 L 107.0 106.0 L 107.0 106.0 L 108.0 106.0 L 108.0 106.0 L 109.0 106.0 L 109.0 106.0 L 110.0 106.0 L 111.0 106.0 L 111.0 106.0 L 112.0 107.0 L 112.0 107.0 L 113.0 107.0 L 114.0 107.0 L 114.0 107.0 L 115.0 107.0 L 116.0 107.0 L 116.0 107.0 L 117.0 107.0 L 118.0 107.0 L 118.0 107.0 L 119.0 107.0 L 120.0 107.0 L 121.0 107.0 L 121.0 107.0 L 122.0 107.0 L 123.0 107.0 L 124.0 107.0 L 125.0 107.0 L 126.0 107.0 L 126.0 107.0 L 127.0 107.0 L 128.0 107.0 L 129.0 107.0 L 130.0 107.0 L 130.0 107.0 L 131.0 107.0 L 132.0 107.0 L 133.0 107.0 L 134.0 107.0 L 135.0 107.0 L 135.0 107.0 L 136.0 106.0 L 137.0 106.0 L 138.0 106.0 L 139.0 106.0 L 139.0 106.0 L 140.0 106.0 L 141.0 106.0 L 141.0 105.0 L 142.0 105.0 L 143.0 105.0 L 143.0 105.0 L 144.0 105.0 L 144.0 105.0 L 145.0 105.0 L 145.0 105.0 L 146.0 105.0 L 146.0 105.0 L 146.0 105.0 L 147.0 104.0 L 147.0 104.0 L 148.0 104.0 L 148.0 104.0 L 149.0 104.0 L 149.0 104.0 L 150.0 104.0 L 150.0 104.0 L 150.0 104.0 L 151.0 104.0 L 151.0 104.0 L 152.0 104.0 L 152.0 104.0 L 152.0 104.0 L 153.0 104.0 L 153.0 104.0 L 154.0 104.0 L 154.0 104.0 L 154.0 104.0 L 155.0 104.0 L 155.0 104.0 L 156.0 104.0 L 156.0 104.0 L 157.0 104.0 L 157.0 104.0 L 158.0 104.0 L 158.0 104.0 L 159.0 104.0 L 159.0 104.0 L 160.0 104.0 L 160.0 104.0 L 161.0 104.0 L 162.0 104.0 L 162.0 104.0 L 163.0 104.0 L 164.0 104.0 L 164.0 104.0 L 165.0 104.0 L 166.0 104.0 L 167.0 104.0 L 168.0 104.0 L 169.0 104.0 L 170.0 104.0 L 171.0 104.0 L 172.0 104.0 L 173.0 104.0 L 173.0 104.0 L 174.0 104.0 L 175.0 104.0 L 176.0 104.0 L 177.0 104.0 L 178.0 104.0 L 178.0 104.0 L 179.0 104.0 L 180.0 104.0 L 181.0 105.0 L 181.0 105.0 L 182.0 105.0 L 182.0 105.0 L 183.0 105.0 L 184.0 105.0 L 184.0 105.0 L 184.0 105.0 L 185.0 105.0 L 185.0 106.0 L 185.0 106.0 L 186.0 106.0 L 186.0 106.0 L 187.0 106.0 L 187.0 106.0 L 187.0 106.0 L 187.0 106.0 L 188.0 106.0 L 188.0 106.0 L 188.0 106.0 L 188.0 106.0 L 188.0 106.0 L 189.0 106.0 L 189.0 106.0 L 189.0 106.0 L 189.0 106.0 L 189.0 106.0 L 189.0 106.0 L 190.0 107.0 L 190.0 107.0 L 190.0 107.0 L 190.0 107.0 L 190.0 107.0 L 191.0 107.0 L 191.0 107.0 L 191.0 108.0 L 191.0 108.0 L 191.0 108.0 L 191.0 108.0 L 192.0 108.0 L 192.0 108.0 L 192.0 108.0 L 192.0 108.0 L 192.0 109.0 L 192.0 109.0 L 192.0 109.0 L 193.0 109.0 L 193.0 109.0 L 193.0 109.0 L 193.0 109.0 L 193.0 109.0 L 193.0 110.0 L 193.0 110.0 L 193.0 110.0 L 193.0 110.0 L 193.0 111.0 L 193.0 111.0 L 193.0 111.0 L 193.0 112.0 L 193.0 113.0 L 193.0 114.0 L 193.0 115.0 L 193.0 116.0 L 193.0 117.0 L 193.0 119.0 L 193.0 121.0 L 193.0 122.0 L 193.0 124.0 L 193.0 126.0 L 193.0 128.0 L 193.0 130.0 L 193.0 132.0 L 193.0 134.0 L 193.0 136.0 L 193.0 138.0 L 193.0 140.0 L 193.0 142.0 L 193.0 144.0 L 193.0 146.0 L 193.0 148.0 L 193.0 150.0 L 193.0 152.0 L 193.0 153.0 L 193.0 155.0 L 193.0 156.0 L 193.0 158.0 L 193.0 160.0 L 193.0 161.0 L 193.0 163.0 L 193.0 164.0 L 193.0 166.0 L 193.0 168.0 L 193.0 169.0 L 193.0 170.0 L 193.0 171.0 L 193.0 173.0 L 193.0 174.0 L 193.0 175.0 L 193.0 177.0 L 193.0 178.0 L 193.0 180.0 L 193.0 181.0 L 193.0 183.0 L 193.0 185.0 L 193.0 187.0 L 193.0 189.0 L 193.0 190.0 L 193.0 192.0 L 193.0 193.0 L 193.0 195.0 L 193.0 196.0 L 193.0 197.0 L 193.0 199.0 L 193.0 200.0 L 193.0 202.0 L 193.0 203.0 L 193.0 204.0 L 193.0 206.0 L 193.0 207.0 L 193.0 209.0 L 193.0 210.0 L 193.0 211.0 L 193.0 213.0 L 193.0 214.0 L 193.0 215.0 L 193.0 216.0 L 193.0 217.0 L 193.0 219.0 L 193.0 220.0 L 193.0 221.0 L 193.0 222.0 L 193.0 224.0 L 193.0 225.0 L 193.0 227.0 L 193.0 228.0 L 193.0 229.0 L 193.0 231.0 L 193.0 232.0 L 193.0 233.0 L 193.0 234.0 L 193.0 236.0 L 193.0 237.0 L 193.0 238.0 L 193.0 239.0 L 193.0 240.0 L 193.0 241.0 L 193.0 242.0 L 193.0 243.0 L 193.0 244.0 L 193.0 245.0 L 193.0 246.0 L 193.0 247.0 L 193.0 248.0 L 193.0 248.0 L 193.0 249.0 L 193.0 250.0 L 193.0 251.0 L 193.0 251.0 L 193.0 252.0 L 193.0 253.0 L 193.0 253.0 L 193.0 254.0 L 193.0 255.0 L 193.0 255.0 L 193.0 256.0 L 193.0 256.0 L 193.0 256.0 L 193.0 257.0 L 193.0 257.0 L 193.0 257.0 L 193.0 257.0 L 193.0 257.0 L 193.0 257.0 L 193.0 257.0 L 193.0 257.0 L 193.0 258.0 L 193.0 258.0 L 193.0 258.0 L 193.0 258.0 L 193.0 259.0 L 193.0 259.0 L 193.0 259.0 L 193.0 259.0 L 193.0 259.0 L 193.0 259.0 L 193.0 259.0 L 193.0 259.0 L 193.0 259.0 L 193.0 259.0 " stroke="black" fill="none" stroke-width="5.0" stroke-linecap="round" stroke-linejoin="round" />
</svg>