<svg xmlns="http://www.w3.org/2000/svg" width="300" height="300" viewBox="0 0 300 300">
<path d="M 81.0 139.0 L 81.0 139.0 L 80.0 139.0 L 80.0 139.0 L 80.0 139.0 L 80.0 139.0 L 79.0 139.0 L 79.0 139.0 L 79.0 139.0 L 78.0 139.0 L 78.0 139.0 L 78.0 139.0 L 78.0 139.0 L 78.0 139.0 L 78.0 139.0 L 78.0 139.0 L 78.0 139.0 L 79.0 139.0 L 79.0 139.0 L 80.0 139.0 L 81.0 139.0 L 82.0 139.0 L 83.0 139.0 L 84.0 139.0 L 85.0 139.0 L 86.0 139.0 L 87.0 139.0 L 89.0 139.0 L 90.0 139.0 L 91.0 140.0 L 92.0 140.0 L 93.0 140.0 L 94.0 141.0 L 95.0 141.0 L 96.0 141.0 L 97.0 141.0 L 98.0 141.0 L 98.0 141.0 L 100.0 142.0 L 100.0 142.0 L 101.0 142.0 L 102.0 142.0 L 103.0 142.0 L 104.0 142.0 L 104.0 142.0 L 105.0 142.0 L 106.0 142.0 L 107.0 142.0 L 107.0 142.0 L 108.0 142.0 L 109.0 142.0 L 110.0 142.0 L 110.0 142.0 L 111.0 142.0 L 112.0 141.0 L 113.0 141.0 L 114.0 141.0 L 114.0 141.0 L 115.0 141.0 L 116.0 141.0 L 117.0 140.0 L 118.0 140.0 L 118.0 140.0 L 119.0 140.0 L 120.0 140.0 L 121.0 140.0 L 122.0 140.0 L 123.0 140.0 L 124.0 140.0 L 125.0 139.0 L 126.0 139.0 L 128.0 139.0 L 129.0 139.0 L 130.0 139.0 L 131.0 139.0 L 132.0 139.0 L 133.0 139.0 L 134.0 139.0 L 135.0 139.0 L 136.0 139.0 L 137.0 139.0 L 138.0 139.0 L 139.0 139.0 L 140.0 139.0 L 141.0 139.0 L 142.0 139.0 L 143.0 139.0 L 143.0 139.0 L 144.0 139.0 L 145.0 139.0 L 145.0 139.0 L 146.0 139.0 L 146.0 139.0 L 147.0 139.0 L 147.0 139.0 L 148.0 139.0 L 148.0 139.0 L 149.0 139.0 L 149.0 139.0 L 150.0 139.0 L 150.0 139.0 L 151.0 139.0 L 151.0 139.0 L 152.0 139.0 L 153.0 139.0 L 153.0 139.0 L 154.0 140.0 L 154.0 140.0 L 155.0 140.0 L 155.0 140.0 L 156.0 140.0 L 157.0 140.0 L 158.0 140.0 L 158.0 141.0 L 159.0 141.0 L 160.0 141.0 L 161.0 141.0 L 162.0 141.0 L 163.0 141.0 L 164.0 141.0 L 165.0 141.0 L 166.0 141.0 L 167.0 141.0 L 169.0 141.0 L 170.0 141.0 L 172.0 141.0 L 174.0 141.0 L 175.0 141.0 L 177.0 141.0 L 179.0 141.0 L 181.0 141.0 L 183.0 141.0 L 184.0 140.0 L 186.0 140.0 L 188.0 140.0 L 189.0 140.0 L 191.0 140.0 L 193.0 139.0 L 194.0 139.0 L 195.0 139.0 L 197.0 139.0 L 198.0 139.0 L 199.0 139.0 L 200.0 139.0 L 201.0 139.0 L 202.0 139.0 L 204.0 139.0 L 205.0 139.0 L 207.0 139.0 L 209.0 139.0 L 211.0 139.0 L 213.0 139.0 L 215.0 139.0 L 217.0 139.0 L 219.0 138.0 L 221.0 138.0 L 223.0 138.0 L 224.0 138.0 " stroke="black" fill="none" stroke-width="5.0" stroke-linecap="round" stroke-linejoin="round" />
<path d="M 76.0 182.0 L 76.0 182.0 L 76.0 182.0 L 75.0 183.0 L 75.0 183.0 L 75.0 183.0 L 74.0 184.0 L 74.0 184.0 L 74.0 184.0 L 74.0 184.0 L 74.0 185.0 L 74.0 185.0 L 74.0 185.0 L 74.0 185.0 L 74.0 185.0 L 75.0 185.0 L 76.0 185.0 L 77.0 185.0 L 78.0 185.0 L 79.0 185.0 L 80.0 185.0 L 81.0 185.0 L 82.0 185.0 L 83.0 185.0 L 84.0 185.0 L 85.0 185.0 L 87.0 185.0 L 88.0 185.0 L 90.0 185.0 L 91.0 185.0 L 93.0 185.0 L 94.0 185.0 L 95.0 185.0 L 96.0 185.0 L 97.0 185.0 L 98.0 185.0 L 100.0 185.0 L 101.0 185.0 L 102.0 185.0 L 104.0 185.0 L 105.0 185.0 L 106.0 185.0 L 107.0 185.0 L 109.0 185.0 L 110.0 185.0 L 111.0 185.0 L 112.0 185.0 L 113.0 185.0 L 115.0 185.0 L 116.0 185.0 L 118.0 185.0 L 119.0 185.0 L 120.0 185.0 L 122.0 185.0 L 124.0 184.0 L 126.0 184.0 L 128.0 184.0 L 130.0 184.0 L 133.0 184.0 L 135.0 183.0 L 138.0 183.0 L 140.0 183.0 L 143.0 182.0 L 145.0 182.0 L 148.0 182.0 L 150.0 182.0 L 151.0 182.0 L 153.0 182.0 L 155.0 182.0 L 156.0 181.0 L 158.0 181.0 L 160.0 181.0 L 162.0 180.0 L 164.0 180.0 L 166.0 180.0 L 168.0 180.0 L 170.0 179.0 L 173.0 179.0 L 175.0 179.0 L 177.0 179.0 L 179.0 179.0 L 180.0 179.0 L 182.0 179.0 L 184.0 179.0 L 185.0 179.0 L 186.0 179.0 L 187.0 179.0 L 188.0 179.0 L 189.0 179.0 L 191.0 179.0 L 192.0 180.0 L 193.0 180.0 L 194.0 180.0 L 195.0 181.0 L 196.0 181.0 L 197.0 181.0 L 198.0 181.0 L 199.0 181.0 L 201.0 182.0 L 202.0 182.0 L 204.0 182.0 L 205.0 182.0 L 207.0 183.0 L 209.0 183.0 L 210.0 183.0 L 212.0 184.0 L 214.0 184.0 L 216.0 184.0 L 218.0 185.0 L 221.0 185.0 L 223.0 185.0 L 225.0 186.0 L 226.0 186.0 L 228.0 186.0 L 229.0 186.0 " stroke="black" fill="none" stroke-width="5.0" stroke-linecap="round" stroke-linejoin="round" />
<path d="M 174.0 100.0 L 173.0 101.0 L 172.0 102.0 L 171.0 103.0 L 170.0 105.0 L 169.0 107.0 L 168.0 110.0 L 166.0 114.0 L 164.0 120.0 L 161.0 126.0 L 158.0 132.0 L 155.0 142.0 L 152.0 151.0 L 150.0 160.0 L 147.0 170.0 L 144.0 179.0 L 141.0 188.0 L 138.0 197.0 L 135.0 204.0 L 132.0 210.0 L 129.0 216.0 L 127.0 220.0 L 126.0 224.0 L 125.0 228.0 L 124.0 231.0 L 124.0 233.0 L 123.0 234.0 L 123.0 234.0 L 123.0 234.0 " stroke="black" fill="none" stroke-width="5.0" stroke-linecap="round" stroke-linejoin="round" />
</svg>