<svg xmlns="http://www.w3.org/2000/svg" width="300" height="300" viewBox="0 0 300 300">
<path d="M 183.0 71.0 L 183.0 71.0 L 183.0 71.0 L 183.0 71.0 L 183.0 71.0 L 183.0 71.0 L 182.0 71.0 L 182.0 71.0 L 182.0 70.0 L 182.0 70.0 L 182.0 70.0 L 181.0 70.0 L 181.0 70.0 L 180.0 70.0 L 180.0 70.0 L 179.0 70.0 L 178.0 70.0 L 177.0 70.0 L 176.0 70.0 L 175.0 70.0 L 173.0 71.0 L 172.0 71.0 L 171.0 72.0 L 170.0 72.0 L 168.0 73.0 L 167.0 74.0 L 166.0 74.0 L 165.0 75.0 L 164.0 76.0 L 163.0 76.0 L 161.0 77.0 L 160.0 78.0 L 159.0 78.0 L 158.0 79.0 L 157.0 80.0 L 157.0 81.0 L 156.0 82.0 L 155.0 83.0 L 155.0 84.0 L 155.0 85.0 L 154.0 86.0 L 154.0 87.0 L 154.0 89.0 L 153.0 90.0 L 153.0 92.0 L 153.0 93.0 L 153.0 95.0 L 153.0 97.0 L 153.0 98.0 L 153.0 100.0 L 153.0 102.0 L 153.0 103.0 L 152.0 105.0 L 152.0 106.0 L 152.0 108.0 L 152.0 109.0 L 152.0 110.0 L 152.0 111.0 L 151.0 112.0 L 151.0 113.0 L 151.0 114.0 L 151.0 114.0 L 151.0 115.0 L 151.0 116.0 L 151.0 117.0 L 151.0 118.0 L 151.0 119.0 L 151.0 121.0 L 151.0 122.0 L 151.0 123.0 L 151.0 124.0 L 151.0 125.0 L 151.0 126.0 L 151.0 127.0 L 150.0 128.0 L 150.0 129.0 L 150.0 130.0 L 150.0 131.0 L 150.0 132.0 L 150.0 133.0 L 150.0 134.0 L 150.0 135.0 L 150.0 137.0 L 150.0 138.0 L 150.0 139.0 L 150.0 141.0 L 150.0 142.0 L 150.0 144.0 L 150.0 145.0 L 150.0 147.0 L 150.0 148.0 L 150.0 150.0 L 150.0 152.0 L 150.0 153.0 L 150.0 155.0 L 150.0 156.0 L 150.0 157.0 L 150.0 159.0 L 150.0 160.0 L 150.0 161.0 L 150.0 162.0 L 150.0 163.0 L 150.0 165.0 L 150.0 166.0 L 150.0 168.0 L 150.0 169.0 L 150.0 170.0 L 150.0 172.0 L 150.0 173.0 L 151.0 174.0 L 151.0 175.0 L 151.0 177.0 L 151.0 178.0 L 151.0 179.0 L 151.0 180.0 L 152.0 181.0 L 152.0 182.0 L 152.0 184.0 L 152.0 185.0 L 152.0 186.0 L 152.0 187.0 L 152.0 189.0 L 152.0 190.0 L 152.0 191.0 L 152.0 192.0 L 152.0 193.0 L 152.0 195.0 L 152.0 196.0 L 152.0 197.0 L 152.0 198.0 L 152.0 199.0 L 152.0 200.0 L 152.0 202.0 L 152.0 203.0 L 152.0 204.0 L 152.0 206.0 L 152.0 207.0 L 152.0 208.0 L 152.0 209.0 L 151.0 210.0 L 151.0 211.0 L 151.0 212.0 L 151.0 213.0 L 151.0 214.0 L 151.0 216.0 L 151.0 217.0 L 150.0 218.0 L 150.0 219.0 L 150.0 220.0 L 150.0 221.0 L 150.0 222.0 L 149.0 224.0 L 149.0 225.0 L 149.0 226.0 L 149.0 227.0 L 148.0 229.0 L 148.0 230.0 L 148.0 232.0 L 147.0 233.0 L 147.0 235.0 L 146.0 236.0 L 146.0 237.0 L 145.0 239.0 L 144.0 240.0 L 144.0 241.0 L 143.0 243.0 L 142.0 244.0 L 142.0 245.0 L 141.0 246.0 L 140.0 247.0 L 140.0 248.0 L 139.0 248.0 L 139.0 249.0 L 138.0 250.0 L 137.0 250.0 L 137.0 251.0 L 136.0 251.0 L 135.0 251.0 L 135.0 252.0 L 134.0 252.0 L 133.0 253.0 L 132.0 253.0 L 131.0 253.0 L 130.0 254.0 L 129.0 254.0 L 128.0 254.0 L 127.0 255.0 L 126.0 255.0 L 125.0 255.0 L 124.0 255.0 L 123.0 255.0 L 122.0 255.0 L 121.0 255.0 L 121.0 255.0 L 120.0 256.0 L 120.0 256.0 L 119.0 256.0 L 119.0 255.0 " stroke="black" fill="none" stroke-width="5.0" stroke-linecap="round" stroke-linejoin="round" />
<path d="M 143.0 132.0 L 143.0 132.0 L 143.0 132.0 L 143.0 132.0 L 142.0 132.0 L 142.0 132.0 L 142.0 132.0 L 142.0 133.0 L 141.0 133.0 L 141.0 133.0 L 141.0 133.0 L 140.0 133.0 L 140.0 133.0 L 140.0 133.0 L 139.0 134.0 L 139.0 134.0 L 138.0 134.0 L 138.0 134.0 L 137.0 135.0 L 136.0 135.0 L 135.0 136.0 L 135.0 136.0 L 134.0 137.0 L 133.0 138.0 L 132.0 139.0 L 131.0 140.0 L 130.0 141.0 L 129.0 142.0 L 128.0 143.0 L 127.0 143.0 L 126.0 144.0 L 126.0 145.0 L 125.0 146.0 L 124.0 147.0 L 124.0 148.0 L 123.0 149.0 L 123.0 151.0 L 123.0 152.0 L 123.0 153.0 L 123.0 154.0 L 122.0 155.0 L 122.0 157.0 L 122.0 158.0 L 122.0 159.0 L 122.0 160.0 L 122.0 162.0 L 122.0 163.0 L 122.0 164.0 L 122.0 165.0 L 122.0 166.0 L 122.0 167.0 L 122.0 168.0 L 123.0 169.0 L 123.0 170.0 L 123.0 171.0 L 124.0 172.0 L 124.0 173.0 L 124.0 174.0 L 125.0 175.0 L 125.0 176.0 L 126.0 177.0 L 126.0 177.0 L 126.0 178.0 L 127.0 179.0 L 127.0 180.0 L 128.0 180.0 L 129.0 181.0 L 129.0 181.0 L 130.0 182.0 L 131.0 182.0 L 132.0 183.0 L 132.0 183.0 L 133.0 183.0 L 134.0 184.0 L 135.0 184.0 L 135.0 184.0 L 136.0 184.0 L 137.0 185.0 L 138.0 185.0 L 140.0 185.0 L 141.0 185.0 L 142.0 186.0 L 143.0 186.0 L 144.0 186.0 L 145.0 186.0 L 146.0 186.0 L 148.0 186.0 L 149.0 186.0 L 150.0 186.0 L 150.0 186.0 L 151.0 186.0 L 152.0 186.0 L 153.0 186.0 L 154.0 186.0 L 155.0 186.0 L 156.0 185.0 L 157.0 185.0 L 158.0 185.0 L 158.0 185.0 L 159.0 185.0 L 160.0 184.0 L 161.0 184.0 L 162.0 184.0 L 163.0 183.0 L 164.0 183.0 L 165.0 183.0 L 166.0 182.0 L 167.0 182.0 L 168.0 181.0 L 169.0 181.0 L 169.0 180.0 L 170.0 180.0 L 171.0 179.0 L 172.0 178.0 L 173.0 178.0 L 174.0 177.0 L 174.0 176.0 L 175.0 176.0 L 176.0 175.0 L 177.0 174.0 L 178.0 173.0 L 178.0 173.0 L 179.0 172.0 L 179.0 171.0 L 180.0 170.0 L 180.0 169.0 L 181.0 168.0 L 181.0 167.0 L 181.0 166.0 L 182.0 165.0 L 182.0 164.0 L 182.0 163.0 L 182.0 162.0 L 182.0 161.0 L 182.0 160.0 L 182.0 159.0 L 182.0 159.0 L 182.0 158.0 L 182.0 157.0 L 182.0 156.0 L 182.0 155.0 L 182.0 154.0 L 182.0 153.0 L 181.0 152.0 L 181.0 151.0 L 181.0 150.0 L 180.0 150.0 L 180.0 149.0 L 180.0 148.0 L 179.0 147.0 L 179.0 146.0 L 178.0 145.0 L 178.0 144.0 L 178.0 143.0 L 177.0 143.0 L 177.0 142.0 L 176.0 141.0 L 175.0 140.0 L 175.0 139.0 L 174.0 138.0 L 174.0 137.0 L 173.0 137.0 L 172.0 136.0 L 172.0 136.0 L 171.0 135.0 L 170.0 134.0 L 169.0 134.0 L 169.0 133.0 L 168.0 133.0 L 167.0 132.0 L 167.0 132.0 L 166.0 131.0 L 165.0 131.0 L 164.0 130.0 L 163.0 130.0 L 162.0 130.0 L 161.0 129.0 L 160.0 129.0 L 159.0 129.0 L 158.0 128.0 L 157.0 128.0 L 157.0 128.0 L 156.0 127.0 L 155.0 127.0 L 154.0 127.0 L 153.0 127.0 L 152.0 127.0 L 152.0 127.0 L 151.0 127.0 L 150.0 127.0 L 149.0 127.0 L 149.0 127.0 L 148.0 127.0 L 147.0 127.0 L 147.0 127.0 L 146.0 127.0 L 146.0 128.0 L 145.0 128.0 L 145.0 128.0 L 144.0 129.0 L 144.0 129.0 L 144.0 130.0 L 143.0 130.0 L 143.0 130.0 L 143.0 130.0 L 143.0 131.0 L 143.0 131.0 " stroke="black" fill="none" stroke-width="5.0" stroke-linecap="round" stroke-linejoin="round" />
</svg>