<svg xmlns="http://www.w3.org/2000/svg" width="300" height="300" viewBox="0 0 300 300">
<path d="M 143.0 75.0 L 143.0 75.0 L 143.0 75.0 L 143.0 75.0 L 142.0 75.0 L 142.0 75.0 L 142.0 75.0 L 142.0 75.0 L 141.0 75.0 L 141.0 75.0 L 141.0 76.0 L 141.0 76.0 L 141.0 76.0 L 140.0 76.0 L 140.0 76.0 L 140.0 76.0 L 140.0 76.0 L 139.0 76.0 L 139.0 76.0 L 139.0 76.0 L 139.0 76.0 L 138.0 76.0 L 138.0 76.0 L 138.0 76.0 L 137.0 76.0 L 137.0 76.0 L 137.0 76.0 L 137.0 77.0 L 136.0 77.0 L 136.0 77.0 L 136.0 77.0 L 135.0 77.0 L 135.0 77.0 L 135.0 77.0 L 134.0 77.0 L 134.0 77.0 L 134.0 77.0 L 133.0 77.0 L 133.0 77.0 L 133.0 78.0 L 132.0 78.0 L 132.0 78.0 L 132.0 78.0 L 131.0 78.0 L 131.0 78.0 L 130.0 78.0 L 130.0 78.0 L 130.0 79.0 L 129.0 79.0 L 129.0 79.0 L 128.0 79.0 L 128.0 79.0 L 128.0 79.0 L 127.0 79.0 L 127.0 79.0 L 126.0 80.0 L 126.0 80.0 L 125.0 80.0 L 125.0 80.0 L 125.0 80.0 L 124.0 80.0 L 124.0 80.0 L 124.0 80.0 L 123.0 80.0 L 123.0 80.0 L 122.0 80.0 L 122.0 81.0 L 122.0 81.0 L 121.0 81.0 L 121.0 81.0 L 121.0 81.0 L 120.0 81.0 L 120.0 81.0 L 120.0 81.0 L 119.0 81.0 L 119.0 81.0 L 119.0 81.0 L 118.0 82.0 L 118.0 82.0 L 118.0 82.0 L 118.0 82.0 L 117.0 82.0 L 117.0 82.0 L 116.0 82.0 L 116.0 82.0 L 116.0 82.0 L 116.0 82.0 L 115.0 83.0 L 115.0 83.0 L 115.0 83.0 L 114.0 83.0 L 114.0 83.0 L 114.0 83.0 L 114.0 83.0 L 113.0 84.0 L 113.0 84.0 L 113.0 84.0 L 112.0 84.0 L 112.0 84.0 L 112.0 84.0 L 112.0 84.0 L 111.0 85.0 L 111.0 85.0 L 111.0 85.0 L 110.0 85.0 L 110.0 85.0 L 110.0 85.0 L 110.0 85.0 L 109.0 86.0 L 109.0 86.0 L 109.0 86.0 L 109.0 86.0 L 108.0 86.0 L 108.0 87.0 L 108.0 87.0 L 108.0 87.0 L 108.0 87.0 L 107.0 87.0 L 107.0 87.0 L 107.0 88.0 L 107.0 88.0 L 107.0 88.0 L 106.0 88.0 L 106.0 88.0 L 106.0 89.0 L 106.0 89.0 L 106.0 89.0 L 105.0 89.0 L 105.0 89.0 L 105.0 90.0 L 105.0 90.0 L 105.0 90.0 L 104.0 90.0 L 104.0 91.0 L 104.0 91.0 L 104.0 91.0 L 104.0 91.0 L 103.0 92.0 L 103.0 92.0 L 103.0 92.0 L 103.0 93.0 L 102.0 93.0 L 102.0 93.0 L 102.0 94.0 L 102.0 94.0 L 101.0 94.0 L 101.0 95.0 L 101.0 95.0 L 101.0 96.0 L 100.0 96.0 L 100.0 96.0 L 100.0 97.0 L 100.0 97.0 L 99.0 98.0 L 99.0 98.0 L 98.0 98.0 L 98.0 99.0 L 98.0 99.0 L 97.0 100.0 L 97.0 100.0 L 96.0 101.0 L 96.0 101.0 L 96.0 102.0 L 95.0 102.0 L 95.0 102.0 L 94.0 103.0 L 94.0 103.0 L 94.0 103.0 L 93.0 104.0 L 93.0 104.0 L 93.0 105.0 L 93.0 105.0 L 92.0 105.0 L 92.0 106.0 L 92.0 106.0 L 91.0 106.0 L 91.0 107.0 L 91.0 107.0 L 90.0 107.0 L 90.0 108.0 L 90.0 108.0 L 89.0 108.0 L 89.0 109.0 L 89.0 109.0 L 88.0 109.0 L 88.0 109.0 L 88.0 110.0 L 87.0 110.0 L 87.0 110.0 L 87.0 111.0 L 87.0 111.0 L 86.0 111.0 L 86.0 112.0 L 86.0 112.0 L 85.0 112.0 L 85.0 113.0 L 84.0 113.0 L 84.0 113.0 L 84.0 114.0 L 83.0 114.0 L 83.0 114.0 L 83.0 114.0 L 82.0 115.0 L 82.0 115.0 L 82.0 116.0 L 81.0 116.0 L 81.0 116.0 L 81.0 117.0 L 80.0 117.0 L 80.0 118.0 L 80.0 118.0 L 79.0 118.0 L 79.0 119.0 L 79.0 119.0 L 78.0 120.0 L 78.0 120.0 L 78.0 120.0 L 78.0 121.0 L 77.0 121.0 L 77.0 121.0 L 77.0 122.0 L 77.0 122.0 L 76.0 122.0 L 76.0 123.0 L 76.0 123.0 L 76.0 123.0 L 76.0 124.0 L 75.0 124.0 L 75.0 124.0 L 75.0 125.0 L 75.0 125.0 L 75.0 125.0 L 74.0 125.0 L 74.0 126.0 L 74.0 126.0 L 74.0 126.0 L 74.0 127.0 L 73.0 127.0 L 73.0 127.0 L 73.0 128.0 L 73.0 128.0 L 73.0 128.0 L 72.0 128.0 L 72.0 129.0 L 72.0 129.0 L 72.0 130.0 L 71.0 130.0 L 71.0 130.0 L 71.0 131.0 L 71.0 131.0 L 71.0 131.0 L 71.0 132.0 L 71.0 132.0 L 70.0 132.0 L 70.0 133.0 L 70.0 133.0 L 70.0 134.0 L 70.0 134.0 L 70.0 134.0 L 69.0 135.0 L 69.0 135.0 L 69.0 136.0 L 69.0 136.0 L 69.0 136.0 L 69.0 137.0 L 69.0 137.0 L 69.0 138.0 L 69.0 138.0 L 68.0 138.0 L 68.0 139.0 L 68.0 139.0 L 68.0 140.0 L 68.0 140.0 L 68.0 141.0 L 68.0 141.0 L 68.0 142.0 L 68.0 142.0 L 68.0 143.0 L 68.0 143.0 L 68.0 143.0 L 68.0 144.0 L 67.0 144.0 L 67.0 145.0 L 67.0 145.0 L 67.0 146.0 L 67.0 146.0 L 67.0 146.0 L 67.0 147.0 L 67.0 147.0 L 67.0 148.0 L 67.0 148.0 L 67.0 148.0 L 66.0 149.0 L 66.0 149.0 L 66.0 150.0 L 66.0 150.0 L 66.0 150.0 L 66.0 151.0 L 66.0 151.0 L 66.0 152.0 L 66.0 152.0 L 66.0 152.0 L 66.0 153.0 L 66.0 153.0 L 66.0 154.0 L 66.0 154.0 L 66.0 154.0 L 66.0 155.0 L 65.0 155.0 L 65.0 155.0 L 65.0 156.0 L 65.0 156.0 L 65.0 156.0 L 65.0 157.0 L 65.0 157.0 L 65.0 157.0 L 65.0 158.0 L 65.0 158.0 L 65.0 159.0 L 65.0 159.0 L 65.0 159.0 L 65.0 160.0 L 65.0 160.0 L 65.0 160.0 L 65.0 161.0 L 65.0 161.0 L 65.0 161.0 L 65.0 162.0 L 65.0 162.0 L 65.0 162.0 L 65.0 163.0 L 65.0 163.0 L 65.0 164.0 L 65.0 164.0 L 65.0 164.0 L 65.0 165.0 L 65.0 165.0 L 65.0 166.0 L 65.0 166.0 L 65.0 167.0 L 65.0 167.0 L 65.0 167.0 L 65.0 168.0 L 65.0 168.0 L 65.0 169.0 L 65.0 169.0 L 65.0 170.0 L 65.0 170.0 L 65.0 171.0 L 65.0 171.0 L 65.0 171.0 L 65.0 172.0 L 65.0 172.0 L 65.0 173.0 L 65.0 173.0 L 65.0 174.0 L 65.0 174.0 L 65.0 174.0 L 65.0 175.0 L 65.0 175.0 L 65.0 176.0 L 65.0 176.0 L 65.0 176.0 L 65.0 177.0 L 65.0 177.0 L 65.0 178.0 L 65.0 178.0 L 65.0 178.0 L 65.0 179.0 L 65.0 179.0 L 65.0 180.0 L 65.0 180.0 L 65.0 180.0 L 66.0 181.0 L 66.0 181.0 L 66.0 182.0 L 66.0 182.0 L 66.0 182.0 L 66.0 183.0 L 66.0 183.0 L 66.0 184.0 L 66.0 184.0 L 66.0 185.0 L 66.0 185.0 L 67.0 185.0 L 67.0 186.0 L 67.0 186.0 L 67.0 186.0 L 67.0 187.0 L 67.0 187.0 L 67.0 188.0 L 68.0 188.0 L 68.0 189.0 L 68.0 189.0 L 68.0 189.0 L 68.0 190.0 L 68.0 190.0 L 69.0 191.0 L 69.0 191.0 L 69.0 191.0 L 69.0 192.0 L 69.0 192.0 L 69.0 193.0 L 70.0 193.0 L 70.0 193.0 L 70.0 194.0 L 70.0 194.0 L 70.0 194.0 L 71.0 195.0 L 71.0 195.0 L 71.0 196.0 L 71.0 196.0 L 72.0 196.0 L 72.0 197.0 L 72.0 197.0 L 72.0 198.0 L 73.0 198.0 L 73.0 198.0 L 73.0 199.0 L 74.0 199.0 L 74.0 199.0 L 74.0 200.0 L 74.0 200.0 L 75.0 201.0 L 75.0 201.0 L 75.0 201.0 L 75.0 202.0 L 76.0 202.0 L 76.0 202.0 L 76.0 203.0 L 76.0 203.0 L 77.0 204.0 L 77.0 204.0 L 77.0 204.0 L 78.0 205.0 L 78.0 205.0 L 78.0 206.0 L 78.0 206.0 L 79.0 206.0 L 79.0 207.0 L 79.0 207.0 L 80.0 208.0 L 80.0 208.0 L 80.0 208.0 L 80.0 209.0 L 81.0 209.0 L 81.0 209.0 L 81.0 210.0 L 82.0 210.0 L 82.0 211.0 L 82.0 211.0 L 82.0 211.0 L 83.0 212.0 L 83.0 212.0 L 83.0 213.0 L 84.0 213.0 L 84.0 213.0 L 84.0 214.0 L 85.0 214.0 L 85.0 214.0 L 85.0 215.0 L 86.0 215.0 L 86.0 216.0 L 86.0 216.0 L 87.0 216.0 L 87.0 216.0 L 87.0 217.0 L 88.0 217.0 L 88.0 218.0 L 88.0 218.0 L 89.0 218.0 L 89.0 218.0 L 89.0 219.0 L 90.0 219.0 L 90.0 220.0 L 90.0 220.0 L 91.0 220.0 L 91.0 220.0 L 91.0 221.0 L 92.0 221.0 L 92.0 221.0 L 92.0 221.0 L 93.0 222.0 L 93.0 222.0 L 93.0 222.0 L 93.0 222.0 L 94.0 223.0 L 94.0 223.0 L 94.0 223.0 L 95.0 223.0 L 95.0 223.0 L 95.0 224.0 L 96.0 224.0 L 96.0 224.0 L 96.0 224.0 L 97.0 225.0 L 97.0 225.0 L 97.0 225.0 L 98.0 225.0 L 98.0 225.0 L 98.0 226.0 L 98.0 226.0 L 99.0 226.0 L 99.0 226.0 L 99.0 226.0 L 100.0 227.0 L 100.0 227.0 L 100.0 227.0 L 100.0 227.0 L 101.0 227.0 L 101.0 227.0 L 101.0 228.0 L 101.0 228.0 L 102.0 228.0 L 102.0 228.0 L 102.0 228.0 L 103.0 229.0 L 103.0 229.0 L 103.0 229.0 L 104.0 229.0 L 104.0 229.0 L 104.0 229.0 L 105.0 230.0 L 105.0 230.0 L 105.0 230.0 L 106.0 230.0 L 106.0 231.0 L 106.0 231.0 L 107.0 231.0 L 107.0 231.0 L 107.0 232.0 L 108.0 232.0 L 108.0 232.0 L 108.0 232.0 L 108.0 233.0 L 109.0 233.0 L 109.0 233.0 L 109.0 233.0 L 110.0 233.0 L 110.0 234.0 L 110.0 234.0 L 110.0 234.0 L 111.0 234.0 L 111.0 234.0 L 111.0 234.0 L 111.0 235.0 L 112.0 235.0 L 112.0 235.0 L 112.0 235.0 L 112.0 235.0 L 113.0 235.0 L 113.0 236.0 L 113.0 236.0 L 113.0 236.0 L 114.0 236.0 L 114.0 236.0 L 114.0 236.0 L 114.0 236.0 L 115.0 237.0 L 115.0 237.0 L 115.0 237.0 L 116.0 237.0 L 116.0 237.0 L 116.0 237.0 L 117.0 237.0 L 117.0 238.0 L 117.0 238.0 L 118.0 238.0 L 118.0 238.0 L 118.0 238.0 L 118.0 238.0 L 119.0 239.0 L 119.0 239.0 L 119.0 239.0 L 119.0 239.0 L 120.0 239.0 L 120.0 239.0 L 120.0 239.0 L 121.0 239.0 L 121.0 240.0 L 121.0 240.0 L 122.0 240.0 L 122.0 240.0 L 122.0 240.0 L 123.0 240.0 L 123.0 240.0 L 123.0 240.0 L 124.0 241.0 L 124.0 241.0 L 124.0 241.0 L 125.0 241.0 L 125.0 241.0 L 126.0 241.0 L 126.0 241.0 L 127.0 242.0 L 127.0 242.0 L 128.0 242.0 L 128.0 242.0 L 128.0 242.0 L 129.0 243.0 L 129.0 243.0 L 130.0 243.0 L 130.0 243.0 L 131.0 243.0 L 131.0 243.0 L 132.0 243.0 L 132.0 243.0 L 132.0 243.0 L 133.0 243.0 L 133.0 243.0 L 134.0 244.0 L 134.0 244.0 L 135.0 244.0 L 135.0 244.0 L 135.0 244.0 L 136.0 244.0 L 136.0 244.0 L 136.0 244.0 L 137.0 244.0 L 137.0 244.0 L 138.0 244.0 L 138.0 244.0 L 138.0 244.0 L 139.0 244.0 L 139.0 244.0 L 139.0 244.0 L 140.0 244.0 L 140.0 244.0 L 140.0 244.0 L 141.0 244.0 L 141.0 244.0 L 142.0 244.0 L 142.0 244.0 L 142.0 244.0 L 143.0 244.0 L 143.0 244.0 L 143.0 244.0 L 144.0 244.0 L 144.0 244.0 L 144.0 244.0 L 145.0 244.0 L 145.0 244.0 L 146.0 244.0 L 146.0 244.0 L 146.0 244.0 L 147.0 244.0 L 147.0 244.0 L 147.0 244.0 L 148.0 244.0 L 148.0 244.0 L 148.0 244.0 L 149.0 244.0 L 149.0 244.0 L 149.0 244.0 L 150.0 244.0 L 150.0 244.0 L 150.0 244.0 L 150.0 244.0 L 150.0 244.0 L 151.0 244.0 L 151.0 244.0 L 151.0 244.0 L 151.0 244.0 L 151.0 244.0 L 152.0 244.0 L 152.0 244.0 L 152.0 244.0 L 152.0 244.0 L 152.0 244.0 L 152.0 244.0 L 153.0 244.0 L 153.0 244.0 L 153.0 244.0 L 153.0 244.0 L 153.0 244.0 L 154.0 244.0 L 154.0 244.0 L 154.0 244.0 L 154.0 244.0 L 155.0 244.0 L 155.0 244.0 L 155.0 244.0 L 155.0 244.0 L 156.0 244.0 L 156.0 244.0 L 156.0 244.0 L 156.0 244.0 L 157.0 244.0 L 157.0 244.0 L 157.0 244.0 L 158.0 244.0 L 158.0 244.0 L 158.0 244.0 L 159.0 244.0 L 159.0 244.0 L 159.0 244.0 L 160.0 244.0 L 160.0 244.0 L 161.0 244.0 L 161.0 244.0 L 161.0 244.0 L 162.0 244.0 L 162.0 244.0 L 163.0 244.0 L 163.0 244.0 L 164.0 243.0 L 164.0 243.0 L 165.0 243.0 L 165.0 243.0 L 166.0 243.0 L 166.0 243.0 L 167.0 243.0 L 167.0 242.0 L 168.0 242.0 L 168.0 242.0 L 169.0 242.0 L 169.0 242.0 L 170.0 241.0 L 170.0 241.0 L 171.0 241.0 L 171.0 241.0 L 172.0 241.0 L 172.0 241.0 L 173.0 240.0 L 174.0 240.0 L 174.0 240.0 L 175.0 240.0 L 175.0 240.0 L 176.0 239.0 L 176.0 239.0 L 177.0 239.0 L 177.0 239.0 L 178.0 239.0 L 178.0 238.0 L 179.0 238.0 L 179.0 238.0 L 180.0 238.0 L 180.0 237.0 L 181.0 237.0 L 181.0 237.0 L 181.0 237.0 L 182.0 237.0 L 182.0 237.0 L 182.0 236.0 L 183.0 236.0 L 183.0 236.0 L 183.0 236.0 L 184.0 236.0 L 184.0 235.0 L 184.0 235.0 L 185.0 235.0 L 185.0 235.0 L 185.0 235.0 L 186.0 234.0 L 186.0 234.0 L 186.0 234.0 L 187.0 234.0 L 187.0 234.0 L 187.0 233.0 L 188.0 233.0 L 188.0 233.0 L 188.0 233.0 L 189.0 233.0 L 189.0 232.0 L 189.0 232.0 L 189.0 232.0 L 190.0 232.0 L 190.0 232.0 L 190.0 232.0 L 191.0 231.0 L 191.0 231.0 L 191.0 231.0 L 191.0 230.0 L 192.0 230.0 L 192.0 230.0 L 192.0 230.0 L 193.0 229.0 L 193.0 229.0 L 193.0 229.0 L 193.0 229.0 L 194.0 229.0 L 194.0 228.0 L 194.0 228.0 L 195.0 228.0 L 195.0 227.0 L 195.0 227.0 L 196.0 227.0 L 196.0 227.0 L 196.0 226.0 L 196.0 226.0 L 197.0 226.0 L 197.0 226.0 L 197.0 225.0 L 198.0 225.0 L 198.0 225.0 L 198.0 225.0 L 198.0 225.0 L 199.0 225.0 L 199.0 224.0 L 199.0 224.0 L 199.0 224.0 L 200.0 223.0 L 200.0 223.0 L 200.0 223.0 L 201.0 222.0 L 201.0 222.0 L 201.0 222.0 L 202.0 221.0 L 202.0 221.0 L 202.0 220.0 L 203.0 220.0 L 203.0 219.0 L 204.0 218.0 L 204.0 218.0 L 205.0 218.0 L 205.0 217.0 L 205.0 216.0 L 206.0 216.0 L 206.0 216.0 L 207.0 215.0 L 207.0 215.0 L 207.0 214.0 L 208.0 214.0 L 208.0 213.0 L 209.0 213.0 L 209.0 213.0 L 209.0 212.0 L 210.0 212.0 L 210.0 212.0 L 210.0 211.0 L 211.0 211.0 L 211.0 211.0 L 212.0 211.0 L 212.0 210.0 L 212.0 210.0 L 213.0 209.0 L 213.0 209.0 L 213.0 209.0 L 214.0 209.0 L 214.0 208.0 L 214.0 208.0 L 215.0 207.0 L 215.0 207.0 L 216.0 207.0 L 216.0 206.0 L 216.0 206.0 L 217.0 206.0 L 217.0 205.0 L 217.0 205.0 L 218.0 204.0 L 218.0 204.0 L 219.0 203.0 L 219.0 203.0 L 219.0 202.0 L 220.0 202.0 L 220.0 202.0 L 220.0 201.0 L 221.0 201.0 L 221.0 200.0 L 221.0 200.0 L 221.0 200.0 L 222.0 199.0 L 222.0 199.0 L 222.0 198.0 L 223.0 198.0 L 223.0 197.0 L 223.0 197.0 L 224.0 196.0 L 224.0 196.0 L 224.0 196.0 L 224.0 195.0 L 225.0 195.0 L 225.0 194.0 L 225.0 194.0 L 225.0 194.0 L 226.0 193.0 L 226.0 193.0 L 226.0 193.0 L 226.0 192.0 L 226.0 192.0 L 227.0 191.0 L 227.0 191.0 L 227.0 191.0 L 227.0 190.0 L 227.0 190.0 L 227.0 189.0 L 228.0 189.0 L 228.0 189.0 L 228.0 188.0 L 228.0 188.0 L 228.0 187.0 L 229.0 187.0 L 229.0 186.0 L 229.0 186.0 L 229.0 185.0 L 229.0 185.0 L 229.0 184.0 L 230.0 184.0 L 230.0 183.0 L 230.0 183.0 L 230.0 182.0 L 230.0 182.0 L 230.0 181.0 L 230.0 181.0 L 231.0 180.0 L 231.0 180.0 L 231.0 179.0 L 231.0 179.0 L 231.0 178.0 L 231.0 177.0 L 231.0 177.0 L 231.0 176.0 L 231.0 176.0 L 231.0 175.0 L 231.0 174.0 L 231.0 174.0 L 231.0 173.0 L 231.0 173.0 L 231.0 172.0 L 231.0 172.0 L 232.0 171.0 L 232.0 171.0 L 232.0 170.0 L 232.0 170.0 L 232.0 169.0 L 232.0 169.0 L 232.0 168.0 L 232.0 168.0 L 232.0 167.0 L 232.0 166.0 L 232.0 166.0 L 232.0 166.0 L 232.0 165.0 L 232.0 164.0 L 233.0 164.0 L 233.0 164.0 L 233.0 163.0 L 233.0 163.0 L 233.0 162.0 L 233.0 162.0 L 233.0 161.0 L 233.0 161.0 L 233.0 161.0 L 233.0 160.0 L 233.0 160.0 L 233.0 160.0 L 233.0 159.0 L 233.0 159.0 L 233.0 159.0 L 233.0 158.0 L 233.0 158.0 L 233.0 157.0 L 233.0 157.0 L 233.0 157.0 L 233.0 156.0 L 234.0 156.0 L 234.0 155.0 L 234.0 155.0 L 234.0 154.0 L 234.0 154.0 L 234.0 154.0 L 234.0 153.0 L 234.0 153.0 L 234.0 152.0 L 234.0 152.0 L 234.0 152.0 L 234.0 151.0 L 234.0 151.0 L 234.0 150.0 L 234.0 150.0 L 234.0 150.0 L 234.0 149.0 L 235.0 149.0 L 235.0 148.0 L 235.0 148.0 L 235.0 147.0 L 235.0 147.0 L 235.0 146.0 L 235.0 146.0 L 235.0 146.0 L 235.0 145.0 L 235.0 144.0 L 235.0 144.0 L 235.0 143.0 L 235.0 143.0 L 235.0 142.0 L 235.0 142.0 L 235.0 141.0 L 235.0 141.0 L 235.0 140.0 L 235.0 139.0 L 235.0 139.0 L 235.0 138.0 L 235.0 138.0 L 235.0 137.0 L 235.0 137.0 L 235.0 136.0 L 235.0 136.0 L 235.0 135.0 L 235.0 134.0 L 235.0 134.0 L 235.0 133.0 L 235.0 133.0 L 235.0 132.0 L 235.0 132.0 L 235.0 131.0 L 235.0 131.0 L 235.0 130.0 L 235.0 130.0 L 235.0 129.0 L 235.0 129.0 L 235.0 128.0 L 235.0 128.0 L 235.0 128.0 L 235.0 127.0 L 235.0 127.0 L 234.0 127.0 L 234.0 126.0 L 234.0 126.0 L 234.0 125.0 L 234.0 125.0 L 234.0 125.0 L 234.0 124.0 L 234.0 124.0 L 234.0 123.0 L 234.0 123.0 L 234.0 123.0 L 234.0 122.0 L 233.0 122.0 L 233.0 122.0 L 233.0 121.0 L 233.0 121.0 L 233.0 121.0 L 233.0 120.0 L 233.0 120.0 L 232.0 120.0 L 232.0 119.0 L 232.0 119.0 L 232.0 118.0 L 232.0 118.0 L 231.0 118.0 L 231.0 118.0 L 231.0 117.0 L 231.0 117.0 L 230.0 116.0 L 230.0 116.0 L 230.0 116.0 L 230.0 116.0 L 230.0 115.0 L 229.0 115.0 L 229.0 114.0 L 229.0 114.0 L 229.0 114.0 L 228.0 114.0 L 228.0 113.0 L 228.0 113.0 L 227.0 113.0 L 227.0 112.0 L 227.0 112.0 L 227.0 111.0 L 226.0 111.0 L 226.0 111.0 L 226.0 110.0 L 226.0 110.0 L 225.0 110.0 L 225.0 109.0 L 225.0 109.0 L 225.0 109.0 L 225.0 108.0 L 224.0 108.0 L 224.0 108.0 L 224.0 107.0 L 223.0 107.0 L 223.0 107.0 L 223.0 106.0 L 223.0 106.0 L 223.0 106.0 L 222.0 105.0 L 222.0 105.0 L 222.0 105.0 L 221.0 105.0 L 221.0 104.0 L 220.0 104.0 L 220.0 104.0 L 219.0 104.0 L 219.0 103.0 L 219.0 103.0 L 218.0 103.0 L 218.0 103.0 L 218.0 102.0 L 217.0 102.0 L 217.0 102.0 L 216.0 102.0 L 216.0 102.0 L 215.0 101.0 L 215.0 101.0 L 215.0 101.0 L 214.0 101.0 L 214.0 100.0 L 214.0 100.0 L 213.0 100.0 L 213.0 100.0 L 212.0 100.0 L 212.0 99.0 L 212.0 99.0 L 211.0 99.0 L 211.0 98.0 L 211.0 98.0 L 210.0 98.0 L 210.0 98.0 L 210.0 97.0 L 209.0 97.0 L 209.0 97.0 L 209.0 96.0 L 209.0 96.0 L 208.0 96.0 L 208.0 95.0 L 208.0 95.0 L 207.0 95.0 L 207.0 94.0 L 207.0 94.0 L 207.0 94.0 L 207.0 94.0 L 206.0 93.0 L 206.0 93.0 L 206.0 93.0 L 206.0 92.0 L 205.0 92.0 L 205.0 92.0 L 205.0 91.0 L 205.0 91.0 L 205.0 91.0 L 204.0 91.0 L 204.0 90.0 L 204.0 90.0 L 204.0 90.0 L 203.0 90.0 L 203.0 89.0 L 203.0 89.0 L 202.0 89.0 L 202.0 89.0 L 202.0 89.0 L 202.0 89.0 L 201.0 89.0 L 201.0 88.0 L 201.0 88.0 L 200.0 88.0 L 200.0 88.0 L 200.0 88.0 L 199.0 88.0 L 199.0 88.0 L 199.0 88.0 L 199.0 87.0 L 198.0 87.0 L 198.0 87.0 L 198.0 87.0 L 197.0 87.0 L 197.0 87.0 L 197.0 87.0 L 196.0 87.0 L 196.0 86.0 L 196.0 86.0 L 196.0 86.0 L 195.0 86.0 L 195.0 86.0 L 195.0 86.0 L 194.0 85.0 L 194.0 85.0 L 194.0 85.0 L 194.0 85.0 L 194.0 85.0 L 193.0 84.0 L 193.0 84.0 L 193.0 84.0 L 193.0 84.0 L 193.0 84.0 L 193.0 84.0 L 192.0 83.0 L 192.0 83.0 L 192.0 83.0 L 192.0 83.0 L 192.0 83.0 L 191.0 83.0 L 191.0 82.0 L 191.0 82.0 L 191.0 82.0 L 191.0 82.0 L 191.0 82.0 L 190.0 82.0 L 190.0 82.0 L 190.0 82.0 L 190.0 82.0 L 189.0 82.0 L 189.0 82.0 L 189.0 81.0 L 189.0 81.0 L 189.0 81.0 L 188.0 81.0 L 188.0 81.0 L 188.0 81.0 L 187.0 81.0 L 187.0 81.0 L 187.0 81.0 L 187.0 81.0 L 186.0 81.0 L 186.0 81.0 L 186.0 81.0 L 185.0 80.0 L 185.0 80.0 L 185.0 80.0 L 184.0 80.0 L 184.0 80.0 L 184.0 80.0 L 183.0 80.0 L 183.0 80.0 L 182.0 80.0 L 182.0 80.0 L 182.0 80.0 L 181.0 80.0 L 181.0 80.0 L 180.0 80.0 L 180.0 80.0 L 180.0 79.0 L 179.0 79.0 L 179.0 79.0 L 178.0 79.0 L 178.0 79.0 L 177.0 79.0 L 177.0 79.0 L 177.0 79.0 L 176.0 79.0 L 176.0 79.0 L 175.0 79.0 L 175.0 79.0 L 175.0 79.0 L 174.0 79.0 L 174.0 79.0 L 173.0 79.0 L 173.0 79.0 L 172.0 78.0 L 172.0 78.0 L 171.0 78.0 L 171.0 78.0 L 170.0 78.0 L 170.0 78.0 L 169.0 78.0 L 169.0 78.0 L 168.0 78.0 L 168.0 78.0 L 167.0 78.0 L 167.0 78.0 L 166.0 78.0 L 166.0 78.0 L 165.0 78.0 L 165.0 78.0 L 164.0 78.0 L 164.0 78.0 L 163.0 78.0 L 163.0 78.0 L 162.0 78.0 L 162.0 78.0 L 161.0 78.0 L 161.0 78.0 L 160.0 78.0 L 160.0 78.0 L 159.0 78.0 L 159.0 78.0 L 158.0 78.0 L 158.0 78.0 L 157.0 78.0 L 157.0 78.0 L 157.0 78.0 L 156.0 78.0 L 155.0 78.0 L 155.0 78.0 L 155.0 78.0 L 154.0 78.0 L 154.0 78.0 L 153.0 78.0 L 153.0 78.0 L 153.0 78.0 L 153.0 78.0 L 152.0 78.0 L 152.0 78.0 L 152.0 78.0 L 152.0 78.0 L 151.0 78.0 L 151.0 78.0 L 151.0 78.0 L 151.0 78.0 L 151.0 78.0 L 150.0 78.0 L 150.0 78.0 L 150.0 78.0 L 150.0 78.0 L 150.0 78.0 L 149.0 78.0 L 149.0 78.0 L 149.0 78.0 L 149.0 78.0 L 149.0 78.0 L 148.0 78.0 L 148.0 78.0 L 148.0 78.0 L 148.0 78.0 L 147.0 78.0 L 147.0 78.0 L 147.0 78.0 L 147.0 78.0 L 146.0 78.0 L 146.0 78.0 L 146.0 78.0 L 146.0 78.0 L 145.0 78.0 L 145.0 78.0 L 145.0 78.0 L 144.0 78.0 L 144.0 78.0 L 144.0 78.0 L 144.0 78.0 L 143.0 78.0 L 143.0 78.0 L 143.0 78.0 L 142.0 78.0 L 142.0 78.0 L 142.0 78.0 L 141.0 78.0 L 141.0 78.0 L 141.0 78.0 L 141.0 78.0 L 140.0 78.0 L 140.0 78.0 L 140.0 78.0 L 140.0 79.0 L 140.0 79.0 L 139.0 79.0 L 139.0 79.0 L 139.0 79.0 L 139.0 79.0 L 139.0 79.0 L 139.0 79.0 L 139.0 79.0 L 139.0 79.0 L 139.0 79.0 L 139.0 79.0 L 139.0 79.0 L 139.0 79.0 L 139.0 79.0 L 140.0 79.0 L 140.0 79.0 L 140.0 79.0 L 141.0 79.0 L 141.0 79.0 L 141.0 79.0 L 141.0 79.0 L 142.0 79.0 L 142.0 79.0 L 142.0 79.0 L 143.0 79.0 L 143.0 79.0 L 143.0 79.0 L 144.0 79.0 L 144.0 79.0 L 144.0 79.0 L 144.0 79.0 L 145.0 79.0 L 145.0 79.0 L 145.0 79.0 L 146.0 79.0 L 146.0 79.0 L 146.0 79.0 L 146.0 79.0 L 147.0 79.0 L 147.0 79.0 L 147.0 79.0 L 148.0 79.0 L 148.0 79.0 L 148.0 79.0 L 148.0 79.0 L 149.0 79.0 L 149.0 79.0 L 149.0 79.0 L 150.0 79.0 L 150.0 79.0 L 150.0 78.0 L 150.0 78.0 L 151.0 78.0 L 151.0 78.0 L 151.0 78.0 L 152.0 78.0 L 152.0 78.0 L 152.0 78.0 L 152.0 78.0 L 153.0 78.0 L 153.0 78.0 L 153.0 78.0 L 154.0 78.0 L 154.0 78.0 L 155.0 78.0 L 155.0 79.0 L 156.0 79.0 L 156.0 79.0 L 157.0 80.0 L 158.0 80.0 L 159.0 81.0 L 160.0 81.0 L 160.0 82.0 L 162.0 83.0 L 163.0 84.0 L 164.0 84.0 L 165.0 85.0 L 166.0 85.0 L 167.0 86.0 L 168.0 86.0 L 169.0 87.0 L 170.0 87.0 L 171.0 87.0 L 171.0 88.0 L 172.0 88.0 L 173.0 88.0 L 174.0 88.0 L 175.0 89.0 L 176.0 89.0 L 177.0 89.0 L 178.0 89.0 L 179.0 89.0 L 180.0 90.0 L 181.0 90.0 L 182.0 90.0 L 183.0 90.0 L 184.0 90.0 L 185.0 91.0 L 186.0 91.0 L 187.0 91.0 L 188.0 92.0 L 189.0 92.0 L 190.0 92.0 L 191.0 93.0 L 192.0 93.0 L 193.0 94.0 L 193.0 94.0 L 194.0 95.0 L 195.0 95.0 L 195.0 96.0 L 196.0 97.0 L 197.0 97.0 L 197.0 98.0 L 198.0 99.0 L 199.0 100.0 L 199.0 101.0 L 200.0 102.0 L 201.0 102.0 L 201.0 103.0 L 202.0 103.0 L 202.0 104.0 L 202.0 104.0 L 202.0 104.0 L 202.0 104.0 L 202.0 104.0 L 202.0 104.0 L 201.0 104.0 L 200.0 103.0 L 199.0 102.0 L 198.0 101.0 L 196.0 100.0 L 194.0 99.0 L 193.0 98.0 L 191.0 97.0 L 190.0 96.0 L 189.0 95.0 L 188.0 95.0 L 187.0 94.0 L 187.0 94.0 L 186.0 93.0 L 186.0 93.0 L 186.0 93.0 L 187.0 94.0 L 187.0 95.0 L 189.0 96.0 L 190.0 97.0 L 192.0 99.0 L 194.0 100.0 L 196.0 102.0 L 198.0 103.0 L 200.0 105.0 L 202.0 106.0 L 204.0 107.0 L 205.0 108.0 L 207.0 109.0 L 207.0 109.0 L 207.0 109.0 L 207.0 109.0 L 207.0 109.0 L 206.0 108.0 L 204.0 106.0 L 202.0 104.0 L 200.0 102.0 L 198.0 100.0 L 196.0 98.0 L 194.0 97.0 L 193.0 95.0 L 192.0 94.0 L 191.0 93.0 L 191.0 93.0 L 191.0 93.0 L 191.0 93.0 L 192.0 95.0 L 193.0 97.0 L 194.0 99.0 L 196.0 102.0 L 198.0 105.0 L 200.0 108.0 L 203.0 111.0 L 205.0 115.0 L 208.0 118.0 L 210.0 121.0 L 212.0 123.0 L 214.0 124.0 L 214.0 125.0 L 214.0 125.0 L 214.0 125.0 L 214.0 124.0 L 212.0 122.0 L 210.0 120.0 L 207.0 118.0 L 205.0 116.0 L 203.0 114.0 L 200.0 111.0 L 198.0 109.0 L 197.0 108.0 L 195.0 106.0 L 194.0 105.0 L 194.0 105.0 L 194.0 105.0 L 194.0 105.0 L 194.0 105.0 L 196.0 106.0 L 197.0 107.0 L 199.0 109.0 L 201.0 110.0 L 202.0 111.0 L 204.0 112.0 L 205.0 112.0 L 206.0 113.0 L 207.0 113.0 L 207.0 113.0 L 207.0 113.0 L 207.0 112.0 L 205.0 111.0 L 203.0 109.0 L 200.0 107.0 L 196.0 105.0 L 193.0 104.0 L 189.0 103.0 L 185.0 101.0 L 180.0 101.0 L 176.0 100.0 L 172.0 100.0 L 168.0 99.0 L 165.0 99.0 L 162.0 99.0 L 160.0 98.0 L 158.0 98.0 L 157.0 98.0 L 157.0 98.0 L 157.0 98.0 L 157.0 98.0 L 157.0 98.0 L 158.0 98.0 L 158.0 99.0 L 159.0 99.0 L 160.0 99.0 L 162.0 99.0 L 163.0 99.0 L 165.0 99.0 L 166.0 99.0 L 167.0 99.0 L 168.0 99.0 L 169.0 99.0 L 169.0 98.0 L 169.0 98.0 L 169.0 97.0 L 167.0 96.0 L 164.0 95.0 L 161.0 94.0 L 157.0 93.0 L 153.0 92.0 L 150.0 92.0 L 146.0 92.0 L 143.0 91.0 L 140.0 91.0 L 138.0 91.0 L 137.0 91.0 L 137.0 91.0 L 137.0 91.0 L 137.0 92.0 L 139.0 93.0 L 141.0 94.0 L 144.0 95.0 L 147.0 95.0 L 149.0 96.0 L 152.0 96.0 L 155.0 96.0 L 158.0 96.0 L 161.0 96.0 L 164.0 95.0 L 166.0 94.0 L 166.0 93.0 L 167.0 92.0 L 166.0 91.0 L 164.0 90.0 L 161.0 89.0 L 158.0 89.0 L 154.0 88.0 L 150.0 88.0 L 147.0 88.0 L 144.0 88.0 L 141.0 88.0 L 140.0 89.0 L 139.0 90.0 L 138.0 90.0 L 138.0 91.0 L 139.0 92.0 L 141.0 93.0 L 143.0 93.0 L 146.0 93.0 L 149.0 93.0 L 153.0 93.0 L 156.0 93.0 L 160.0 92.0 L 163.0 91.0 L 165.0 90.0 L 167.0 89.0 L 167.0 88.0 L 167.0 87.0 L 164.0 87.0 L 161.0 86.0 L 157.0 86.0 L 154.0 85.0 L 151.0 85.0 L 148.0 85.0 L 146.0 85.0 L 144.0 85.0 L 142.0 85.0 L 140.0 85.0 L 139.0 85.0 L 139.0 86.0 L 139.0 87.0 L 139.0 87.0 L 141.0 88.0 L 143.0 89.0 L 146.0 89.0 L 149.0 90.0 L 152.0 90.0 L 155.0 90.0 L 158.0 90.0 L 161.0 89.0 L 163.0 88.0 L 165.0 87.0 L 166.0 87.0 L 167.0 86.0 L 167.0 85.0 L 167.0 84.0 L 166.0 84.0 L 165.0 83.0 L 164.0 83.0 L 163.0 83.0 L 162.0 83.0 L 160.0 83.0 L 159.0 83.0 L 159.0 83.0 L 158.0 83.0 L 157.0 83.0 L 157.0 83.0 L 156.0 83.0 L 156.0 83.0 L 156.0 83.0 L 156.0 83.0 L 156.0 83.0 L 156.0 83.0 L 156.0 83.0 L 156.0 83.0 L 156.0 83.0 L 156.0 83.0 L 156.0 83.0 L 156.0 83.0 L 156.0 83.0 L 156.0 83.0 L 156.0 83.0 L 156.0 83.0 L 157.0 83.0 L 157.0 83.0 L 157.0 83.0 L 157.0 83.0 L 157.0 84.0 L 157.0 84.0 L 157.0 84.0 L 158.0 84.0 L 158.0 84.0 L 158.0 84.0 L 158.0 84.0 L 159.0 84.0 L 159.0 84.0 L 160.0 84.0 L 160.0 84.0 L 160.0 84.0 L 161.0 84.0 L 162.0 84.0 L 162.0 84.0 L 163.0 84.0 L 164.0 84.0 L 165.0 84.0 L 166.0 84.0 L 167.0 85.0 L 168.0 85.0 L 169.0 85.0 L 169.0 85.0 L 170.0 85.0 L 171.0 85.0 L 172.0 85.0 L 172.0 85.0 L 172.0 85.0 L 173.0 85.0 L 173.0 85.0 L 173.0 85.0 L 173.0 85.0 L 173.0 85.0 L 173.0 85.0 L 173.0 85.0 L 173.0 85.0 L 173.0 85.0 L 173.0 85.0 L 173.0 85.0 L 173.0 85.0 L 173.0 85.0 L 172.0 84.0 L 172.0 84.0 L 172.0 84.0 L 171.0 84.0 L 171.0 83.0 L 171.0 83.0 L 171.0 83.0 L 171.0 82.0 L 171.0 82.0 L 170.0 82.0 L 170.0 82.0 L 170.0 82.0 L 170.0 82.0 L 170.0 82.0 L 170.0 82.0 L 170.0 82.0 L 170.0 82.0 L 169.0 82.0 L 169.0 82.0 L 169.0 82.0 L 169.0 82.0 L 169.0 82.0 L 169.0 82.0 L 168.0 82.0 L 168.0 82.0 L 168.0 82.0 L 168.0 82.0 L 168.0 82.0 L 167.0 82.0 L 167.0 82.0 L 167.0 82.0 L 166.0 82.0 L 166.0 82.0 L 166.0 81.0 L 165.0 81.0 L 165.0 81.0 L 165.0 81.0 L 164.0 81.0 L 164.0 81.0 L 164.0 81.0 L 163.0 81.0 L 163.0 81.0 L 162.0 81.0 L 162.0 80.0 L 162.0 80.0 L 161.0 80.0 L 161.0 80.0 L 160.0 80.0 L 160.0 80.0 L 160.0 80.0 L 159.0 80.0 L 159.0 80.0 L 158.0 79.0 L 158.0 79.0 L 158.0 79.0 L 157.0 79.0 L 157.0 79.0 L 156.0 79.0 L 156.0 79.0 L 155.0 79.0 L 155.0 79.0 L 154.0 79.0 L 154.0 79.0 L 153.0 79.0 L 153.0 79.0 L 153.0 79.0 L 152.0 79.0 L 152.0 79.0 L 152.0 79.0 L 151.0 79.0 L 151.0 79.0 L 151.0 79.0 L 150.0 79.0 L 150.0 79.0 L 150.0 78.0 L 150.0 78.0 L 149.0 78.0 L 149.0 78.0 L 149.0 78.0 L 148.0 78.0 L 148.0 78.0 L 148.0 78.0 L 148.0 78.0 L 147.0 78.0 L 147.0 78.0 L 147.0 78.0 L 146.0 78.0 L 146.0 78.0 L 146.0 78.0 L 145.0 78.0 L 145.0 78.0 L 144.0 78.0 L 144.0 78.0 L 144.0 78.0 L 143.0 78.0 L 143.0 78.0 L 143.0 78.0 L 143.0 78.0 L 142.0 78.0 L 142.0 78.0 L 142.0 78.0 L 141.0 78.0 L 141.0 78.0 L 141.0 79.0 L 141.0 79.0 L 140.0 79.0 L 140.0 79.0 L 140.0 79.0 L 140.0 79.0 L 139.0 79.0 L 139.0 79.0 L 139.0 79.0 L 139.0 79.0 L 139.0 79.0 L 138.0 79.0 L 138.0 80.0 L 138.0 80.0 L 138.0 80.0 L 138.0 80.0 L 138.0 80.0 L 138.0 80.0 L 138.0 80.0 L 139.0 80.0 L 139.0 80.0 L 140.0 80.0 L 141.0 80.0 L 142.0 80.0 L 143.0 80.0 L 145.0 80.0 L 146.0 80.0 L 148.0 80.0 L 150.0 80.0 L 152.0 80.0 L 155.0 80.0 L 157.0 80.0 L 159.0 80.0 L 161.0 80.0 L 163.0 80.0 L 164.0 80.0 L 166.0 80.0 L 167.0 80.0 L 169.0 80.0 L 170.0 81.0 L 171.0 81.0 L 173.0 81.0 L 174.0 82.0 L 175.0 82.0 L 175.0 82.0 L 176.0 82.0 L 176.0 82.0 L 176.0 82.0 L 176.0 82.0 L 176.0 82.0 L 176.0 82.0 L 176.0 82.0 L 176.0 82.0 L 176.0 82.0 L 176.0 82.0 L 176.0 82.0 L 176.0 82.0 L 176.0 82.0 L 176.0 82.0 L 175.0 81.0 L 175.0 81.0 L 175.0 80.0 L 174.0 80.0 L 173.0 80.0 L 173.0 79.0 L 172.0 79.0 L 171.0 78.0 L 171.0 78.0 L 170.0 78.0 L 170.0 78.0 L 169.0 77.0 L 169.0 77.0 L 168.0 77.0 L 168.0 77.0 L 167.0 77.0 L 167.0 77.0 L 166.0 77.0 L 166.0 77.0 L 166.0 77.0 L 165.0 77.0 L 165.0 77.0 L 165.0 77.0 L 165.0 77.0 L 165.0 77.0 L 164.0 77.0 L 164.0 77.0 L 164.0 77.0 L 164.0 77.0 L 163.0 77.0 L 163.0 77.0 L 163.0 77.0 L 162.0 77.0 L 162.0 77.0 L 162.0 77.0 L 162.0 77.0 L 161.0 77.0 L 161.0 77.0 L 161.0 77.0 L 160.0 77.0 L 160.0 77.0 L 160.0 77.0 L 159.0 77.0 L 159.0 77.0 L 159.0 77.0 L 159.0 77.0 L 158.0 77.0 L 158.0 77.0 L 158.0 77.0 L 158.0 77.0 L 157.0 77.0 L 157.0 77.0 L 157.0 77.0 L 156.0 77.0 L 156.0 77.0 L 156.0 77.0 L 155.0 77.0 L 155.0 77.0 L 155.0 77.0 L 155.0 77.0 L 154.0 77.0 L 154.0 77.0 L 154.0 77.0 L 153.0 77.0 L 153.0 77.0 L 153.0 77.0 L 153.0 77.0 L 153.0 77.0 L 152.0 77.0 L 152.0 77.0 L 152.0 77.0 L 152.0 77.0 L 152.0 77.0 L 152.0 78.0 L 152.0 78.0 L 151.0 78.0 L 151.0 78.0 L 151.0 78.0 L 151.0 78.0 L 151.0 78.0 L 151.0 78.0 L 151.0 78.0 L 150.0 78.0 L 150.0 78.0 L 150.0 78.0 L 150.0 78.0 L 150.0 78.0 L 150.0 78.0 L 150.0 78.0 L 150.0 78.0 L 150.0 78.0 L 149.0 78.0 L 149.0 78.0 L 149.0 78.0 L 149.0 78.0 L 149.0 78.0 L 148.0 78.0 L 148.0 78.0 L 148.0 78.0 L 148.0 78.0 L 147.0 78.0 L 147.0 78.0 L 147.0 78.0 L 147.0 78.0 L 146.0 78.0 L 146.0 78.0 L 145.0 78.0 L 145.0 78.0 L 144.0 78.0 L 143.0 78.0 L 143.0 79.0 L 142.0 79.0 L 141.0 79.0 L 140.0 79.0 L 139.0 79.0 L 138.0 79.0 L 137.0 79.0 L 136.0 80.0 L 135.0 80.0 L 134.0 80.0 L 133.0 80.0 L 132.0 81.0 L 131.0 81.0 L 131.0 81.0 L 130.0 81.0 L 129.0 81.0 L 128.0 81.0 L 127.0 82.0 L 127.0 82.0 L 126.0 82.0 L 126.0 82.0 L 126.0 82.0 L 126.0 82.0 L 125.0 82.0 L 125.0 82.0 L 125.0 82.0 L 125.0 82.0 L 126.0 82.0 L 126.0 82.0 L 127.0 82.0 L 128.0 82.0 L 129.0 82.0 L 131.0 82.0 L 132.0 82.0 L 133.0 82.0 L 135.0 82.0 L 136.0 82.0 L 137.0 82.0 L 138.0 82.0 L 139.0 81.0 L 140.0 81.0 L 141.0 81.0 L 142.0 81.0 L 143.0 81.0 L 143.0 81.0 L 144.0 81.0 L 144.0 81.0 L 144.0 81.0 L 145.0 81.0 L 145.0 81.0 L 145.0 81.0 L 146.0 81.0 L 146.0 81.0 L 146.0 81.0 L 146.0 81.0 L 146.0 81.0 L 147.0 81.0 L 147.0 81.0 L 147.0 81.0 L 147.0 81.0 L 148.0 81.0 L 148.0 81.0 L 148.0 81.0 L 148.0 81.0 L 149.0 81.0 L 149.0 81.0 L 150.0 81.0 L 150.0 81.0 L 150.0 81.0 L 151.0 81.0 L 151.0 81.0 L 151.0 81.0 L 151.0 81.0 L 152.0 81.0 L 152.0 81.0 L 152.0 81.0 L 152.0 81.0 L 152.0 81.0 L 151.0 81.0 L 150.0 81.0 L 148.0 81.0 L 146.0 81.0 L 144.0 82.0 L 141.0 82.0 L 138.0 83.0 L 136.0 84.0 L 133.0 85.0 L 131.0 85.0 L 129.0 86.0 L 127.0 87.0 L 125.0 87.0 L 124.0 88.0 L 122.0 89.0 L 121.0 90.0 L 120.0 90.0 L 119.0 91.0 L 119.0 92.0 L 118.0 93.0 L 118.0 93.0 L 118.0 94.0 L 118.0 94.0 L 118.0 95.0 L 118.0 95.0 L 119.0 95.0 L 121.0 95.0 L 122.0 95.0 L 124.0 94.0 L 125.0 92.0 L 127.0 91.0 L 128.0 90.0 L 129.0 89.0 L 129.0 88.0 L 130.0 87.0 L 130.0 87.0 L 130.0 86.0 L 129.0 86.0 L 127.0 86.0 L 126.0 86.0 L 124.0 86.0 L 122.0 87.0 L 121.0 88.0 L 119.0 89.0 L 118.0 91.0 L 117.0 92.0 L 116.0 93.0 L 116.0 94.0 L 116.0 96.0 L 116.0 96.0 L 116.0 97.0 L 116.0 98.0 L 116.0 98.0 L 117.0 98.0 L 118.0 98.0 L 119.0 98.0 L 120.0 97.0 L 120.0 96.0 L 121.0 96.0 L 121.0 95.0 L 121.0 94.0 L 121.0 94.0 L 121.0 93.0 L 121.0 93.0 L 120.0 93.0 L 119.0 93.0 L 118.0 93.0 L 116.0 93.0 L 115.0 93.0 L 114.0 93.0 L 112.0 93.0 L 112.0 94.0 L 111.0 95.0 L 110.0 96.0 L 110.0 96.0 L 110.0 97.0 L 110.0 98.0 L 112.0 98.0 L 113.0 98.0 L 115.0 98.0 L 117.0 98.0 L 120.0 98.0 L 121.0 98.0 L 123.0 97.0 L 124.0 97.0 L 125.0 96.0 L 125.0 95.0 L 126.0 95.0 L 126.0 95.0 L 125.0 94.0 L 123.0 94.0 L 121.0 94.0 L 119.0 95.0 L 116.0 96.0 L 114.0 98.0 L 111.0 100.0 L 109.0 103.0 L 107.0 105.0 L 106.0 107.0 L 106.0 108.0 L 106.0 109.0 L 106.0 109.0 L 108.0 109.0 L 110.0 109.0 L 113.0 108.0 L 116.0 107.0 L 119.0 105.0 L 123.0 103.0 L 126.0 101.0 L 128.0 99.0 L 130.0 98.0 L 131.0 96.0 L 132.0 95.0 L 132.0 94.0 L 131.0 94.0 L 129.0 94.0 L 127.0 94.0 L 125.0 94.0 L 124.0 95.0 L 122.0 96.0 L 121.0 97.0 L 120.0 98.0 L 119.0 99.0 L 119.0 100.0 L 119.0 101.0 L 119.0 103.0 L 120.0 104.0 L 124.0 106.0 L 128.0 107.0 L 133.0 109.0 L 139.0 111.0 L 144.0 111.0 L 149.0 111.0 L 153.0 110.0 L 155.0 109.0 L 157.0 107.0 L 157.0 105.0 L 157.0 103.0 L 157.0 102.0 L 157.0 101.0 L 155.0 100.0 L 153.0 99.0 L 150.0 99.0 L 147.0 99.0 L 143.0 99.0 L 140.0 100.0 L 138.0 101.0 L 135.0 102.0 L 134.0 103.0 L 134.0 105.0 L 134.0 106.0 L 135.0 107.0 L 138.0 108.0 L 142.0 109.0 L 146.0 109.0 L 150.0 109.0 L 155.0 109.0 L 161.0 109.0 L 167.0 108.0 L 174.0 106.0 L 179.0 104.0 L 183.0 102.0 L 186.0 100.0 L 186.0 99.0 L 186.0 98.0 L 184.0 97.0 L 181.0 96.0 L 177.0 95.0 L 173.0 95.0 L 169.0 94.0 L 165.0 94.0 L 160.0 94.0 L 157.0 94.0 L 154.0 94.0 L 152.0 95.0 L 152.0 96.0 L 151.0 97.0 L 151.0 98.0 L 153.0 100.0 L 155.0 101.0 L 158.0 103.0 L 161.0 104.0 L 166.0 104.0 L 171.0 104.0 L 175.0 104.0 L 180.0 104.0 L 184.0 103.0 L 187.0 102.0 L 189.0 101.0 L 190.0 100.0 L 190.0 99.0 L 190.0 98.0 L 187.0 98.0 L 184.0 97.0 L 180.0 97.0 L 175.0 96.0 L 171.0 96.0 L 166.0 95.0 L 162.0 95.0 L 159.0 95.0 L 157.0 95.0 L 156.0 96.0 L 156.0 97.0 L 157.0 99.0 L 159.0 101.0 L 162.0 102.0 L 166.0 103.0 L 171.0 104.0 L 175.0 104.0 L 179.0 104.0 L 184.0 104.0 L 187.0 103.0 L 190.0 102.0 L 192.0 100.0 L 192.0 99.0 L 192.0 97.0 L 192.0 96.0 L 190.0 95.0 L 187.0 94.0 L 183.0 93.0 L 178.0 93.0 L 173.0 92.0 L 167.0 92.0 L 162.0 92.0 L 157.0 92.0 L 153.0 92.0 L 150.0 92.0 L 147.0 92.0 L 145.0 93.0 L 144.0 94.0 L 143.0 95.0 L 142.0 96.0 L 141.0 97.0 L 140.0 98.0 L 139.0 99.0 L 139.0 99.0 L 139.0 100.0 L 139.0 101.0 L 139.0 101.0 L 139.0 101.0 L 139.0 102.0 L 140.0 102.0 L 140.0 102.0 L 140.0 102.0 L 140.0 102.0 L 140.0 102.0 L 139.0 102.0 L 138.0 102.0 L 136.0 102.0 L 135.0 102.0 L 133.0 103.0 L 132.0 103.0 L 131.0 103.0 L 131.0 103.0 L 130.0 103.0 L 130.0 103.0 L 130.0 103.0 L 130.0 103.0 L 130.0 103.0 L 130.0 103.0 L 131.0 103.0 L 133.0 103.0 L 135.0 103.0 L 137.0 103.0 L 139.0 103.0 L 142.0 102.0 L 144.0 101.0 L 146.0 100.0 L 148.0 99.0 L 150.0 98.0 L 151.0 97.0 L 152.0 97.0 L 152.0 97.0 L 153.0 97.0 L 153.0 97.0 L 153.0 97.0 L 153.0 97.0 L 153.0 97.0 L 152.0 97.0 L 152.0 98.0 L 152.0 98.0 L 152.0 98.0 L 152.0 98.0 L 152.0 98.0 L 152.0 98.0 L 152.0 98.0 L 152.0 98.0 L 152.0 98.0 L 152.0 98.0 L 152.0 98.0 L 152.0 98.0 L 152.0 98.0 L 152.0 98.0 L 152.0 98.0 L 152.0 98.0 L 153.0 98.0 L 154.0 98.0 L 155.0 98.0 L 156.0 98.0 L 157.0 97.0 L 159.0 97.0 L 161.0 97.0 L 164.0 96.0 L 167.0 96.0 L 169.0 96.0 L 172.0 95.0 L 175.0 95.0 L 177.0 95.0 L 179.0 95.0 L 180.0 95.0 L 181.0 95.0 L 182.0 95.0 L 183.0 95.0 L 183.0 95.0 L 183.0 95.0 L 184.0 95.0 L 184.0 95.0 L 184.0 95.0 L 184.0 95.0 L 184.0 95.0 L 184.0 95.0 L 184.0 95.0 L 183.0 94.0 L 183.0 94.0 L 183.0 94.0 L 182.0 93.0 L 182.0 93.0 L 182.0 93.0 L 182.0 92.0 L 181.0 92.0 L 181.0 91.0 L 180.0 91.0 L 180.0 91.0 L 180.0 90.0 L 179.0 90.0 L 179.0 89.0 L 178.0 89.0 L 178.0 89.0 L 178.0 88.0 L 177.0 88.0 L 177.0 87.0 L 176.0 87.0 L 176.0 86.0 L 175.0 86.0 L 175.0 86.0 L 175.0 85.0 L 174.0 85.0 L 174.0 85.0 L 174.0 85.0 L 173.0 85.0 L 173.0 85.0 L 173.0 85.0 L 172.0 84.0 L 172.0 84.0 L 172.0 84.0 L 171.0 84.0 L 171.0 84.0 L 171.0 84.0 L 171.0 84.0 L 170.0 84.0 L 170.0 84.0 L 170.0 84.0 L 170.0 84.0 L 169.0 84.0 L 169.0 84.0 L 169.0 84.0 L 168.0 84.0 L 168.0 84.0 L 168.0 84.0 L 168.0 84.0 L 167.0 84.0 L 167.0 84.0 L 167.0 84.0 L 166.0 84.0 L 166.0 84.0 L 166.0 84.0 L 165.0 84.0 L 165.0 83.0 L 165.0 83.0 L 165.0 83.0 L 164.0 83.0 L 164.0 83.0 L 164.0 83.0 L 163.0 83.0 L 163.0 83.0 L 162.0 83.0 L 162.0 82.0 L 161.0 82.0 L 161.0 82.0 L 160.0 82.0 L 160.0 82.0 L 159.0 82.0 L 159.0 82.0 L 158.0 82.0 L 158.0 82.0 L 157.0 82.0 L 157.0 82.0 L 157.0 82.0 L 156.0 82.0 L 156.0 82.0 L 155.0 82.0 L 155.0 82.0 L 155.0 82.0 L 154.0 81.0 L 154.0 81.0 L 154.0 81.0 L 153.0 81.0 L 153.0 81.0 L 152.0 81.0 L 152.0 81.0 L 152.0 81.0 L 151.0 81.0 L 151.0 81.0 L 151.0 81.0 L 150.0 81.0 L 150.0 80.0 L 150.0 80.0 L 149.0 80.0 L 149.0 80.0 L 148.0 80.0 L 148.0 80.0 L 147.0 80.0 L 147.0 80.0 L 146.0 80.0 L 146.0 80.0 L 145.0 80.0 L 145.0 80.0 L 144.0 80.0 L 144.0 80.0 L 144.0 80.0 L 143.0 80.0 L 143.0 80.0 L 143.0 80.0 L 143.0 80.0 L 143.0 80.0 L 143.0 80.0 L 143.0 80.0 L 143.0 80.0 L 143.0 80.0 L 144.0 80.0 L 144.0 80.0 L 145.0 80.0 L 146.0 80.0 L 147.0 80.0 L 148.0 80.0 L 149.0 80.0 L 150.0 80.0 L 151.0 80.0 L 152.0 80.0 L 153.0 80.0 L 154.0 80.0 L 155.0 80.0 L 156.0 81.0 L 157.0 81.0 L 158.0 81.0 L 159.0 81.0 L 160.0 81.0 L 162.0 81.0 L 163.0 81.0 L 164.0 81.0 L 166.0 81.0 L 167.0 81.0 L 168.0 81.0 L 169.0 81.0 L 171.0 81.0 L 172.0 81.0 L 173.0 81.0 L 174.0 81.0 L 175.0 81.0 L 177.0 81.0 L 177.0 81.0 L 178.0 81.0 L 179.0 81.0 L 180.0 81.0 L 180.0 81.0 L 181.0 81.0 L 181.0 81.0 L 181.0 81.0 L 182.0 81.0 L 182.0 81.0 L 182.0 81.0 L 182.0 81.0 L 182.0 81.0 L 182.0 81.0 L 182.0 81.0 L 182.0 81.0 L 181.0 81.0 L 181.0 81.0 L 181.0 81.0 L 180.0 81.0 L 180.0 81.0 L 180.0 80.0 L 179.0 80.0 L 179.0 80.0 L 178.0 80.0 L 178.0 79.0 L 177.0 79.0 L 177.0 79.0 L 176.0 78.0 L 176.0 78.0 L 175.0 78.0 L 175.0 78.0 L 174.0 78.0 L 174.0 78.0 L 173.0 77.0 L 173.0 77.0 L 172.0 77.0 L 172.0 77.0 L 171.0 77.0 L 171.0 77.0 L 170.0 77.0 L 170.0 77.0 L 169.0 77.0 L 169.0 77.0 L 168.0 77.0 L 168.0 77.0 L 167.0 77.0 L 167.0 77.0 L 167.0 77.0 L 166.0 77.0 L 166.0 77.0 L 166.0 77.0 L 165.0 77.0 L 165.0 77.0 L 164.0 77.0 L 164.0 77.0 L 164.0 77.0 L 163.0 77.0 L 163.0 77.0 L 162.0 77.0 L 162.0 77.0 L 162.0 77.0 L 161.0 77.0 L 161.0 77.0 L 161.0 77.0 L 160.0 77.0 L 160.0 77.0 L 159.0 77.0 L 159.0 77.0 L 158.0 77.0 L 158.0 77.0 L 158.0 77.0 L 157.0 77.0 L 157.0 77.0 L 157.0 77.0 L 157.0 77.0 L 156.0 77.0 L 156.0 77.0 L 156.0 77.0 L 156.0 77.0 L 156.0 77.0 L 155.0 77.0 L 155.0 77.0 L 155.0 77.0 L 155.0 77.0 L 155.0 77.0 L 155.0 77.0 L 155.0 77.0 L 155.0 77.0 L 155.0 77.0 L 154.0 77.0 L 154.0 77.0 L 154.0 77.0 L 154.0 77.0 L 154.0 77.0 L 154.0 77.0 L 153.0 77.0 L 153.0 77.0 L 153.0 77.0 L 153.0 77.0 L 153.0 77.0 L 153.0 77.0 L 152.0 77.0 L 152.0 77.0 L 152.0 77.0 L 152.0 77.0 L 152.0 77.0 L 151.0 77.0 L 151.0 77.0 L 151.0 77.0 L 151.0 77.0 L 150.0 77.0 L 150.0 77.0 L 150.0 77.0 L 150.0 77.0 L 150.0 77.0 L 149.0 77.0 L 149.0 77.0 L 149.0 77.0 L 148.0 77.0 L 148.0 77.0 L 148.0 77.0 L 148.0 77.0 L 147.0 77.0 L 147.0 77.0 L 147.0 77.0 L 146.0 77.0 L 146.0 77.0 L 146.0 77.0 L 145.0 77.0 L 145.0 77.0 L 145.0 77.0 L 144.0 77.0 L 144.0 77.0 L 143.0 77.0 L 143.0 77.0 L 142.0 78.0 L 142.0 78.0 L 141.0 78.0 L 141.0 78.0 L 140.0 78.0 L 140.0 78.0 L 139.0 78.0 L 139.0 79.0 L 138.0 79.0 L 138.0 79.0 L 137.0 79.0 L 137.0 79.0 L 136.0 79.0 L 136.0 79.0 L 135.0 80.0 L 135.0 80.0 L 134.0 80.0 L 134.0 80.0 L 134.0 80.0 L 133.0 80.0 L 133.0 80.0 L 133.0 80.0 L 132.0 80.0 L 132.0 80.0 L 132.0 80.0 L 132.0 80.0 L 132.0 80.0 L 132.0 80.0 L 132.0 80.0 L 132.0 80.0 L 132.0 80.0 L 132.0 80.0 L 132.0 80.0 L 132.0 80.0 L 133.0 80.0 L 133.0 80.0 L 133.0 80.0 L 134.0 80.0 L 134.0 80.0 L 135.0 80.0 L 135.0 80.0 L 136.0 80.0 L 137.0 80.0 L 137.0 80.0 L 138.0 80.0 L 138.0 80.0 L 139.0 80.0 L 139.0 80.0 L 140.0 80.0 L 141.0 80.0 L 141.0 80.0 L 141.0 80.0 L 142.0 80.0 L 142.0 80.0 L 143.0 80.0 L 143.0 80.0 L 143.0 80.0 L 144.0 80.0 L 144.0 80.0 L 144.0 80.0 L 144.0 80.0 L 145.0 80.0 L 145.0 80.0 L 145.0 80.0 L 146.0 80.0 L 146.0 80.0 L 146.0 80.0 L 147.0 80.0 L 147.0 80.0 L 147.0 80.0 L 148.0 80.0 L 148.0 80.0 L 149.0 80.0 L 150.0 80.0 L 150.0 80.0 L 151.0 80.0 L 151.0 80.0 L 152.0 80.0 L 152.0 81.0 L 152.0 81.0 L 153.0 81.0 L 153.0 81.0 L 153.0 82.0 L 154.0 82.0 L 154.0 82.0 L 154.0 82.0 L 154.0 83.0 L 154.0 83.0 " stroke="black" fill="none" stroke-width="10.0" stroke-linecap="round" stroke-linejoin="round" />
<path d="M 176.0 83.0 L 176.0 83.0 L 176.0 83.0 L 176.0 83.0 L 176.0 83.0 L 176.0 83.0 L 176.0 82.0 L 176.0 82.0 L 176.0 82.0 L 176.0 82.0 L 176.0 82.0 L 176.0 81.0 L 175.0 81.0 L 175.0 81.0 L 175.0 81.0 L 174.0 80.0 L 174.0 80.0 L 173.0 80.0 L 173.0 79.0 L 172.0 79.0 L 172.0 79.0 L 171.0 79.0 L 171.0 78.0 L 170.0 78.0 L 169.0 78.0 L 169.0 78.0 L 169.0 78.0 L 168.0 77.0 L 168.0 77.0 L 167.0 77.0 L 167.0 77.0 L 166.0 77.0 L 166.0 77.0 L 165.0 77.0 L 165.0 77.0 L 164.0 77.0 L 164.0 77.0 L 163.0 77.0 L 163.0 77.0 L 162.0 77.0 L 162.0 77.0 L 161.0 77.0 L 161.0 77.0 L 160.0 77.0 L 160.0 77.0 L 159.0 77.0 L 159.0 77.0 L 158.0 77.0 L 158.0 77.0 L 157.0 77.0 L 157.0 77.0 L 157.0 77.0 L 156.0 77.0 L 155.0 77.0 L 155.0 77.0 L 155.0 77.0 L 154.0 77.0 L 154.0 77.0 L 153.0 77.0 L 153.0 77.0 L 152.0 77.0 L 152.0 77.0 L 152.0 77.0 L 151.0 77.0 L 151.0 77.0 L 150.0 77.0 L 150.0 77.0 L 150.0 77.0 L 150.0 77.0 L 149.0 77.0 L 149.0 77.0 L 149.0 77.0 L 148.0 77.0 L 148.0 77.0 L 148.0 77.0 L 148.0 77.0 L 147.0 77.0 L 147.0 77.0 L 147.0 77.0 L 146.0 77.0 L 146.0 77.0 L 146.0 77.0 L 145.0 77.0 L 145.0 77.0 L 145.0 77.0 L 144.0 77.0 L 144.0 77.0 L 144.0 77.0 L 143.0 77.0 L 143.0 77.0 L 143.0 77.0 L 142.0 77.0 L 142.0 77.0 L 142.0 77.0 L 141.0 77.0 L 141.0 77.0 L 141.0 77.0 L 140.0 77.0 L 140.0 77.0 L 139.0 77.0 L 139.0 77.0 L 139.0 77.0 L 138.0 78.0 L 138.0 78.0 L 137.0 78.0 L 137.0 78.0 L 137.0 79.0 L 136.0 79.0 L 136.0 79.0 L 136.0 80.0 L 135.0 80.0 L 135.0 80.0 L 134.0 80.0 L 134.0 81.0 L 134.0 81.0 L 133.0 81.0 L 133.0 81.0 L 132.0 81.0 L 132.0 82.0 L 132.0 82.0 L 131.0 82.0 L 131.0 82.0 L 130.0 82.0 L 130.0 82.0 L 129.0 82.0 L 129.0 82.0 L 128.0 83.0 L 128.0 83.0 L 127.0 83.0 L 127.0 83.0 L 126.0 83.0 L 126.0 84.0 L 125.0 84.0 L 125.0 84.0 L 124.0 84.0 L 124.0 85.0 L 123.0 85.0 L 123.0 85.0 L 123.0 86.0 L 122.0 86.0 L 122.0 87.0 L 121.0 87.0 L 121.0 88.0 L 120.0 89.0 L 120.0 89.0 L 119.0 90.0 L 118.0 91.0 L 118.0 92.0 L 117.0 94.0 L 116.0 95.0 L 115.0 96.0 L 114.0 98.0 L 113.0 100.0 L 112.0 101.0 L 111.0 103.0 L 110.0 105.0 L 108.0 108.0 L 107.0 110.0 L 106.0 113.0 L 105.0 115.0 L 103.0 118.0 L 102.0 121.0 L 101.0 123.0 L 100.0 125.0 L 100.0 126.0 L 100.0 126.0 L 100.0 126.0 L 100.0 126.0 L 100.0 126.0 L 101.0 126.0 L 101.0 125.0 L 102.0 123.0 L 103.0 122.0 L 104.0 120.0 L 105.0 117.0 L 106.0 115.0 L 107.0 113.0 L 108.0 111.0 L 108.0 109.0 L 109.0 108.0 L 109.0 107.0 L 110.0 106.0 L 110.0 105.0 L 110.0 105.0 L 110.0 105.0 L 110.0 105.0 L 110.0 105.0 L 109.0 106.0 L 108.0 109.0 L 106.0 111.0 L 105.0 115.0 L 103.0 118.0 L 101.0 122.0 L 100.0 126.0 L 98.0 130.0 L 97.0 133.0 L 97.0 137.0 L 97.0 139.0 L 97.0 141.0 L 97.0 143.0 L 97.0 143.0 L 98.0 143.0 L 99.0 143.0 L 100.0 143.0 L 100.0 141.0 L 101.0 138.0 L 103.0 135.0 L 103.0 132.0 L 105.0 129.0 L 105.0 126.0 L 106.0 123.0 L 107.0 120.0 L 107.0 118.0 L 107.0 116.0 L 107.0 114.0 L 107.0 114.0 L 107.0 113.0 L 106.0 113.0 L 105.0 114.0 L 104.0 115.0 L 103.0 117.0 L 102.0 119.0 L 100.0 123.0 L 98.0 127.0 L 96.0 131.0 L 93.0 136.0 L 91.0 142.0 L 88.0 147.0 L 85.0 152.0 L 83.0 156.0 L 83.0 159.0 L 83.0 159.0 L 83.0 160.0 L 85.0 159.0 L 87.0 157.0 L 90.0 154.0 L 93.0 150.0 L 96.0 144.0 L 100.0 138.0 L 102.0 132.0 L 105.0 126.0 L 106.0 121.0 L 107.0 117.0 L 107.0 114.0 L 107.0 112.0 L 107.0 111.0 L 107.0 111.0 L 106.0 111.0 L 105.0 112.0 L 104.0 113.0 L 103.0 115.0 L 101.0 118.0 L 99.0 121.0 L 97.0 127.0 L 95.0 132.0 L 92.0 139.0 L 90.0 147.0 L 89.0 153.0 L 88.0 158.0 L 88.0 162.0 L 89.0 164.0 L 90.0 165.0 L 92.0 165.0 L 94.0 165.0 L 97.0 163.0 L 99.0 161.0 L 101.0 157.0 L 103.0 153.0 L 106.0 148.0 L 107.0 143.0 L 108.0 137.0 L 109.0 132.0 L 109.0 127.0 L 109.0 123.0 L 109.0 120.0 L 108.0 118.0 L 107.0 117.0 L 106.0 116.0 L 105.0 115.0 L 104.0 115.0 L 102.0 115.0 L 101.0 115.0 L 99.0 117.0 L 97.0 120.0 L 95.0 124.0 L 93.0 129.0 L 90.0 135.0 L 88.0 140.0 L 87.0 146.0 L 86.0 151.0 L 86.0 155.0 L 86.0 158.0 L 87.0 161.0 L 88.0 162.0 L 89.0 163.0 L 90.0 163.0 L 91.0 162.0 L 92.0 160.0 L 94.0 156.0 L 95.0 152.0 L 97.0 147.0 L 98.0 142.0 L 99.0 137.0 L 100.0 133.0 L 100.0 128.0 L 100.0 125.0 L 100.0 123.0 L 99.0 122.0 L 97.0 121.0 L 96.0 121.0 L 95.0 121.0 L 93.0 122.0 L 92.0 125.0 L 90.0 128.0 L 89.0 132.0 L 87.0 138.0 L 85.0 144.0 L 84.0 149.0 L 83.0 154.0 L 83.0 158.0 L 83.0 160.0 L 83.0 161.0 L 85.0 161.0 L 87.0 160.0 L 90.0 158.0 L 92.0 154.0 L 95.0 150.0 L 97.0 145.0 L 100.0 139.0 L 102.0 134.0 L 104.0 128.0 L 106.0 122.0 L 107.0 118.0 L 108.0 115.0 L 108.0 114.0 L 108.0 114.0 L 108.0 114.0 L 107.0 114.0 L 106.0 115.0 L 105.0 116.0 L 104.0 118.0 L 102.0 120.0 L 100.0 123.0 L 98.0 126.0 L 96.0 129.0 L 94.0 133.0 L 92.0 138.0 L 91.0 143.0 L 90.0 146.0 L 90.0 149.0 L 90.0 150.0 L 92.0 150.0 L 94.0 150.0 L 95.0 148.0 L 98.0 145.0 L 100.0 140.0 L 102.0 135.0 L 104.0 130.0 L 106.0 125.0 L 107.0 120.0 L 108.0 116.0 L 109.0 112.0 L 109.0 110.0 L 109.0 109.0 L 108.0 108.0 L 108.0 108.0 L 106.0 109.0 L 105.0 111.0 L 103.0 114.0 L 101.0 118.0 L 99.0 122.0 L 97.0 127.0 L 95.0 131.0 L 93.0 136.0 L 91.0 140.0 L 91.0 143.0 L 90.0 146.0 L 90.0 146.0 L 91.0 146.0 L 92.0 146.0 L 93.0 144.0 L 94.0 141.0 L 96.0 137.0 L 97.0 133.0 L 98.0 129.0 L 100.0 125.0 L 101.0 121.0 L 102.0 117.0 L 103.0 114.0 L 103.0 111.0 L 103.0 110.0 L 103.0 108.0 L 102.0 108.0 L 101.0 108.0 L 101.0 108.0 L 100.0 109.0 L 99.0 111.0 L 99.0 114.0 L 98.0 118.0 L 98.0 121.0 L 97.0 126.0 L 96.0 130.0 L 96.0 134.0 L 95.0 138.0 L 95.0 141.0 L 94.0 144.0 L 93.0 146.0 L 93.0 147.0 L 93.0 147.0 L 93.0 147.0 L 93.0 147.0 L 93.0 146.0 L 93.0 143.0 L 93.0 141.0 L 93.0 138.0 L 93.0 135.0 L 94.0 132.0 L 94.0 129.0 L 94.0 127.0 L 94.0 125.0 L 94.0 123.0 L 94.0 121.0 L 94.0 120.0 L 94.0 120.0 L 93.0 120.0 L 92.0 121.0 L 91.0 123.0 L 90.0 125.0 L 88.0 129.0 L 86.0 133.0 L 84.0 138.0 L 83.0 142.0 L 81.0 146.0 L 80.0 151.0 L 80.0 154.0 L 80.0 156.0 L 80.0 157.0 L 81.0 158.0 L 82.0 158.0 L 84.0 158.0 L 85.0 156.0 L 86.0 154.0 L 87.0 151.0 L 88.0 148.0 L 88.0 145.0 L 89.0 142.0 L 89.0 139.0 L 89.0 136.0 L 89.0 133.0 L 89.0 131.0 L 88.0 129.0 L 87.0 128.0 L 86.0 128.0 L 85.0 128.0 L 84.0 128.0 L 83.0 129.0 L 83.0 132.0 L 82.0 135.0 L 81.0 138.0 L 80.0 143.0 L 80.0 147.0 L 80.0 151.0 L 80.0 155.0 L 80.0 159.0 L 80.0 161.0 L 80.0 162.0 L 81.0 163.0 L 82.0 163.0 L 82.0 163.0 L 83.0 161.0 L 83.0 159.0 L 84.0 156.0 L 85.0 153.0 L 86.0 149.0 L 87.0 146.0 L 87.0 142.0 L 87.0 138.0 L 87.0 135.0 L 87.0 132.0 L 87.0 129.0 L 87.0 127.0 L 86.0 125.0 L 85.0 125.0 L 85.0 125.0 L 84.0 125.0 L 84.0 125.0 L 83.0 128.0 L 82.0 131.0 L 80.0 135.0 L 79.0 140.0 L 77.0 145.0 L 76.0 150.0 L 75.0 154.0 L 74.0 157.0 L 74.0 160.0 L 74.0 161.0 L 74.0 162.0 L 74.0 162.0 L 74.0 161.0 L 75.0 160.0 L 76.0 158.0 L 77.0 155.0 L 77.0 152.0 L 78.0 150.0 L 78.0 148.0 L 78.0 145.0 L 78.0 143.0 L 78.0 141.0 L 78.0 139.0 L 78.0 138.0 L 78.0 137.0 L 77.0 137.0 L 77.0 137.0 L 77.0 138.0 L 76.0 141.0 L 76.0 143.0 L 76.0 147.0 L 76.0 150.0 L 76.0 153.0 L 77.0 156.0 L 77.0 159.0 L 78.0 162.0 L 78.0 164.0 L 79.0 165.0 L 79.0 166.0 L 80.0 166.0 L 80.0 166.0 L 81.0 166.0 L 82.0 164.0 L 82.0 161.0 L 83.0 158.0 L 83.0 155.0 L 84.0 152.0 L 84.0 149.0 L 84.0 147.0 L 84.0 145.0 L 84.0 144.0 L 83.0 143.0 L 83.0 143.0 L 82.0 143.0 L 82.0 144.0 L 81.0 147.0 L 81.0 150.0 L 80.0 154.0 L 80.0 158.0 L 80.0 162.0 L 80.0 166.0 L 80.0 169.0 L 82.0 171.0 L 83.0 172.0 L 85.0 172.0 L 87.0 172.0 L 90.0 169.0 L 92.0 165.0 L 95.0 160.0 L 97.0 155.0 L 99.0 150.0 L 100.0 145.0 L 101.0 140.0 L 102.0 135.0 L 102.0 130.0 L 103.0 127.0 L 103.0 123.0 L 104.0 120.0 L 104.0 118.0 L 105.0 116.0 L 105.0 114.0 L 105.0 114.0 L 105.0 114.0 L 105.0 114.0 L 104.0 115.0 L 102.0 118.0 L 100.0 122.0 L 98.0 127.0 L 95.0 131.0 L 92.0 136.0 L 90.0 140.0 L 88.0 144.0 L 87.0 146.0 L 87.0 147.0 L 87.0 147.0 L 88.0 147.0 L 90.0 144.0 L 92.0 141.0 L 95.0 137.0 L 97.0 133.0 L 100.0 129.0 L 102.0 125.0 L 105.0 121.0 L 107.0 116.0 L 108.0 112.0 L 109.0 109.0 L 110.0 107.0 L 110.0 105.0 L 110.0 105.0 L 110.0 105.0 L 109.0 105.0 L 107.0 107.0 L 106.0 109.0 L 104.0 111.0 L 101.0 114.0 L 99.0 118.0 L 96.0 121.0 L 92.0 125.0 L 89.0 129.0 L 86.0 133.0 L 84.0 135.0 L 83.0 137.0 L 83.0 137.0 L 83.0 137.0 L 85.0 136.0 L 87.0 133.0 L 90.0 130.0 L 94.0 126.0 L 96.0 123.0 L 99.0 120.0 L 101.0 117.0 L 103.0 115.0 L 104.0 113.0 L 104.0 112.0 L 104.0 111.0 L 104.0 111.0 L 103.0 111.0 L 102.0 111.0 L 101.0 111.0 L 100.0 111.0 L 99.0 113.0 L 98.0 114.0 L 97.0 116.0 L 96.0 119.0 L 95.0 121.0 L 94.0 123.0 L 94.0 125.0 L 93.0 126.0 L 93.0 127.0 L 93.0 127.0 L 93.0 127.0 L 93.0 127.0 L 95.0 125.0 L 96.0 123.0 L 98.0 120.0 L 100.0 117.0 L 101.0 114.0 L 102.0 112.0 L 103.0 110.0 L 103.0 109.0 L 103.0 108.0 L 103.0 108.0 L 102.0 108.0 L 100.0 109.0 L 99.0 111.0 L 97.0 113.0 L 95.0 116.0 L 94.0 118.0 L 92.0 120.0 L 91.0 123.0 L 91.0 124.0 L 90.0 125.0 L 90.0 126.0 L 90.0 127.0 L 90.0 127.0 L 91.0 127.0 L 92.0 125.0 L 94.0 122.0 L 96.0 119.0 L 98.0 116.0 L 99.0 113.0 L 100.0 110.0 L 101.0 108.0 L 101.0 106.0 L 102.0 105.0 L 102.0 105.0 L 101.0 105.0 L 100.0 105.0 L 99.0 106.0 L 97.0 108.0 L 94.0 111.0 L 91.0 114.0 L 88.0 117.0 L 85.0 121.0 L 82.0 125.0 L 80.0 128.0 L 78.0 131.0 L 78.0 132.0 L 78.0 133.0 L 79.0 133.0 L 81.0 132.0 L 83.0 130.0 L 86.0 127.0 L 88.0 125.0 L 91.0 122.0 L 93.0 119.0 L 94.0 117.0 L 96.0 115.0 L 97.0 113.0 L 98.0 112.0 L 98.0 111.0 L 98.0 110.0 L 98.0 110.0 L 98.0 110.0 L 97.0 111.0 L 96.0 113.0 L 94.0 116.0 L 92.0 119.0 L 89.0 122.0 L 86.0 126.0 L 83.0 130.0 L 81.0 134.0 L 79.0 137.0 L 78.0 140.0 L 78.0 142.0 L 78.0 142.0 L 79.0 142.0 L 80.0 142.0 L 82.0 141.0 L 85.0 138.0 L 87.0 136.0 L 90.0 133.0 L 92.0 130.0 L 94.0 128.0 L 95.0 125.0 L 97.0 122.0 L 98.0 120.0 L 99.0 118.0 L 100.0 116.0 L 100.0 115.0 L 100.0 114.0 L 100.0 114.0 L 100.0 114.0 L 100.0 115.0 L 100.0 117.0 L 99.0 120.0 L 98.0 124.0 L 97.0 128.0 L 96.0 132.0 L 94.0 137.0 L 93.0 143.0 L 93.0 148.0 L 93.0 152.0 L 93.0 156.0 L 93.0 159.0 L 93.0 161.0 L 93.0 161.0 L 94.0 161.0 L 94.0 161.0 L 94.0 161.0 L 94.0 159.0 L 94.0 158.0 L 94.0 156.0 L 93.0 154.0 L 92.0 152.0 L 91.0 150.0 L 89.0 148.0 L 88.0 147.0 L 86.0 145.0 L 84.0 144.0 L 82.0 144.0 L 80.0 144.0 L 79.0 144.0 L 79.0 144.0 L 79.0 147.0 L 79.0 150.0 L 80.0 153.0 L 82.0 157.0 L 84.0 161.0 L 87.0 164.0 L 89.0 168.0 L 91.0 171.0 L 93.0 173.0 L 94.0 174.0 L 95.0 174.0 L 95.0 174.0 L 96.0 174.0 L 96.0 172.0 L 96.0 170.0 L 95.0 167.0 L 94.0 164.0 L 93.0 161.0 L 92.0 158.0 L 90.0 156.0 L 88.0 154.0 L 86.0 152.0 L 83.0 150.0 L 82.0 150.0 L 80.0 150.0 L 79.0 150.0 L 79.0 152.0 L 79.0 155.0 L 80.0 159.0 L 81.0 163.0 L 83.0 167.0 L 86.0 171.0 L 88.0 174.0 L 91.0 178.0 L 93.0 181.0 L 96.0 183.0 L 97.0 185.0 L 98.0 185.0 L 99.0 185.0 L 99.0 185.0 L 99.0 184.0 L 98.0 183.0 L 96.0 180.0 L 95.0 177.0 L 93.0 174.0 L 91.0 171.0 L 89.0 168.0 L 86.0 166.0 L 83.0 163.0 L 80.0 161.0 L 78.0 160.0 L 76.0 160.0 L 75.0 160.0 L 74.0 162.0 L 74.0 165.0 L 75.0 169.0 L 77.0 173.0 L 80.0 178.0 L 83.0 182.0 L 86.0 185.0 L 90.0 189.0 L 93.0 191.0 L 96.0 193.0 L 98.0 194.0 L 99.0 194.0 L 99.0 194.0 L 99.0 193.0 L 99.0 192.0 L 97.0 190.0 L 95.0 188.0 L 93.0 185.0 L 90.0 181.0 L 87.0 177.0 L 84.0 174.0 L 80.0 171.0 L 77.0 167.0 L 74.0 165.0 L 73.0 163.0 L 72.0 163.0 L 72.0 163.0 L 73.0 166.0 L 75.0 170.0 L 77.0 173.0 L 80.0 178.0 L 83.0 182.0 L 86.0 187.0 L 90.0 191.0 L 93.0 195.0 L 96.0 198.0 L 98.0 200.0 L 100.0 201.0 L 100.0 201.0 L 100.0 201.0 L 100.0 201.0 L 100.0 200.0 L 99.0 198.0 L 98.0 196.0 L 96.0 194.0 L 94.0 191.0 L 92.0 188.0 L 90.0 185.0 L 88.0 181.0 L 85.0 178.0 L 83.0 175.0 L 80.0 174.0 L 79.0 173.0 L 78.0 173.0 L 78.0 175.0 L 78.0 179.0 L 79.0 183.0 L 81.0 187.0 L 84.0 191.0 L 87.0 195.0 L 89.0 198.0 L 92.0 200.0 L 95.0 202.0 L 98.0 202.0 L 100.0 203.0 L 101.0 203.0 L 101.0 203.0 L 101.0 202.0 L 101.0 201.0 L 100.0 200.0 L 98.0 198.0 L 95.0 196.0 L 93.0 194.0 L 90.0 191.0 L 87.0 188.0 L 84.0 185.0 L 82.0 182.0 L 79.0 179.0 L 78.0 177.0 L 77.0 177.0 L 77.0 177.0 L 77.0 178.0 L 78.0 181.0 L 80.0 185.0 L 83.0 189.0 L 86.0 193.0 L 89.0 196.0 L 92.0 200.0 L 95.0 202.0 L 97.0 204.0 L 99.0 204.0 L 101.0 205.0 L 101.0 205.0 L 102.0 204.0 L 102.0 203.0 L 101.0 201.0 L 99.0 199.0 L 96.0 196.0 L 94.0 194.0 L 90.0 191.0 L 86.0 188.0 L 83.0 184.0 L 79.0 181.0 L 76.0 177.0 L 74.0 174.0 L 73.0 173.0 L 73.0 172.0 L 73.0 172.0 L 73.0 173.0 L 75.0 175.0 L 76.0 178.0 L 78.0 181.0 L 79.0 185.0 L 81.0 188.0 L 82.0 192.0 L 84.0 195.0 L 85.0 198.0 L 87.0 200.0 L 88.0 201.0 L 90.0 202.0 L 90.0 202.0 L 91.0 202.0 L 91.0 200.0 L 90.0 199.0 L 89.0 197.0 L 87.0 194.0 L 85.0 192.0 L 83.0 189.0 L 81.0 186.0 L 80.0 183.0 L 78.0 180.0 L 76.0 176.0 L 76.0 173.0 L 75.0 171.0 L 75.0 170.0 L 75.0 169.0 L 75.0 169.0 L 75.0 170.0 L 76.0 172.0 L 77.0 175.0 L 79.0 178.0 L 80.0 181.0 L 82.0 185.0 L 85.0 188.0 L 87.0 191.0 L 90.0 195.0 L 92.0 198.0 L 95.0 200.0 L 97.0 202.0 L 98.0 203.0 L 99.0 203.0 L 99.0 203.0 L 99.0 203.0 L 98.0 202.0 L 97.0 201.0 L 96.0 199.0 L 94.0 197.0 L 93.0 195.0 L 91.0 193.0 L 89.0 190.0 L 87.0 188.0 L 84.0 186.0 L 82.0 184.0 L 80.0 182.0 L 78.0 181.0 L 77.0 181.0 L 77.0 181.0 L 77.0 183.0 L 77.0 185.0 L 78.0 188.0 L 81.0 191.0 L 83.0 194.0 L 86.0 196.0 L 88.0 199.0 L 91.0 200.0 L 93.0 202.0 L 95.0 203.0 L 96.0 203.0 L 96.0 204.0 L 96.0 204.0 L 96.0 203.0 L 95.0 202.0 L 94.0 201.0 L 92.0 200.0 L 90.0 198.0 L 88.0 197.0 L 86.0 195.0 L 83.0 193.0 L 81.0 191.0 L 79.0 189.0 L 78.0 187.0 L 77.0 185.0 L 76.0 185.0 L 76.0 184.0 L 76.0 184.0 L 76.0 185.0 L 77.0 187.0 L 79.0 190.0 L 81.0 192.0 L 83.0 195.0 L 85.0 197.0 L 88.0 199.0 L 90.0 201.0 L 93.0 202.0 L 95.0 203.0 L 96.0 204.0 L 97.0 204.0 L 97.0 204.0 L 97.0 204.0 L 96.0 204.0 L 95.0 203.0 L 93.0 202.0 L 90.0 200.0 L 88.0 198.0 L 85.0 197.0 L 83.0 195.0 L 81.0 193.0 L 79.0 190.0 L 77.0 187.0 L 76.0 184.0 L 75.0 181.0 L 74.0 180.0 L 74.0 179.0 L 74.0 179.0 L 74.0 179.0 L 75.0 182.0 L 77.0 185.0 L 78.0 188.0 L 80.0 191.0 L 82.0 195.0 L 84.0 197.0 L 87.0 200.0 L 90.0 202.0 L 92.0 203.0 L 94.0 204.0 L 96.0 205.0 L 96.0 205.0 L 97.0 205.0 L 97.0 205.0 L 96.0 204.0 L 95.0 203.0 L 93.0 201.0 L 91.0 199.0 L 89.0 197.0 L 86.0 195.0 L 84.0 192.0 L 81.0 189.0 L 79.0 186.0 L 76.0 184.0 L 75.0 182.0 L 73.0 181.0 L 73.0 180.0 L 73.0 180.0 L 73.0 181.0 L 74.0 184.0 L 77.0 187.0 L 79.0 190.0 L 82.0 193.0 L 85.0 195.0 L 89.0 198.0 L 92.0 200.0 L 96.0 202.0 L 99.0 204.0 L 102.0 204.0 L 103.0 205.0 L 104.0 205.0 L 104.0 205.0 L 104.0 204.0 L 103.0 204.0 L 102.0 203.0 L 100.0 202.0 L 97.0 201.0 L 95.0 200.0 L 92.0 199.0 L 89.0 198.0 L 87.0 197.0 L 85.0 196.0 L 83.0 195.0 L 82.0 195.0 L 82.0 196.0 L 83.0 197.0 L 85.0 199.0 L 89.0 201.0 L 92.0 204.0 L 96.0 206.0 L 99.0 209.0 L 103.0 211.0 L 106.0 214.0 L 108.0 216.0 L 111.0 219.0 L 113.0 220.0 L 114.0 222.0 L 115.0 222.0 L 116.0 223.0 L 116.0 223.0 L 116.0 223.0 L 114.0 222.0 L 113.0 221.0 L 111.0 219.0 L 108.0 218.0 L 106.0 216.0 L 103.0 214.0 L 100.0 213.0 L 97.0 211.0 L 94.0 208.0 L 91.0 207.0 L 89.0 205.0 L 88.0 204.0 L 88.0 204.0 L 89.0 204.0 L 91.0 205.0 L 93.0 207.0 L 96.0 209.0 L 100.0 212.0 L 102.0 214.0 L 105.0 216.0 L 107.0 217.0 L 109.0 219.0 L 111.0 220.0 L 113.0 221.0 L 114.0 221.0 L 114.0 221.0 L 114.0 221.0 L 114.0 221.0 L 112.0 220.0 L 110.0 219.0 L 108.0 218.0 L 106.0 217.0 L 104.0 215.0 L 102.0 213.0 L 99.0 211.0 L 96.0 210.0 L 94.0 208.0 L 92.0 208.0 L 91.0 207.0 L 91.0 207.0 L 91.0 208.0 L 93.0 210.0 L 96.0 212.0 L 99.0 215.0 L 102.0 217.0 L 105.0 219.0 L 107.0 221.0 L 110.0 223.0 L 113.0 225.0 L 116.0 225.0 L 118.0 226.0 L 120.0 226.0 L 120.0 226.0 L 120.0 226.0 L 120.0 224.0 L 119.0 223.0 L 117.0 221.0 L 115.0 219.0 L 113.0 217.0 L 110.0 215.0 L 108.0 213.0 L 105.0 211.0 L 102.0 209.0 L 100.0 207.0 L 98.0 207.0 L 96.0 206.0 L 96.0 206.0 L 96.0 207.0 L 97.0 209.0 L 100.0 211.0 L 103.0 213.0 L 106.0 215.0 L 109.0 217.0 L 112.0 219.0 L 115.0 220.0 L 119.0 222.0 L 123.0 223.0 L 127.0 224.0 L 130.0 226.0 L 133.0 227.0 L 136.0 227.0 L 138.0 228.0 L 139.0 228.0 L 139.0 228.0 L 139.0 228.0 L 138.0 228.0 L 136.0 227.0 L 133.0 225.0 L 130.0 223.0 L 126.0 220.0 L 122.0 218.0 L 118.0 215.0 L 115.0 213.0 L 113.0 211.0 L 111.0 210.0 L 110.0 210.0 L 110.0 210.0 L 111.0 211.0 L 113.0 214.0 L 116.0 217.0 L 119.0 221.0 L 122.0 223.0 L 125.0 226.0 L 128.0 227.0 L 131.0 228.0 L 134.0 228.0 L 136.0 228.0 L 137.0 227.0 L 138.0 225.0 L 138.0 224.0 L 138.0 222.0 L 137.0 220.0 L 136.0 218.0 L 134.0 215.0 L 131.0 213.0 L 128.0 209.0 L 124.0 205.0 L 121.0 201.0 L 117.0 197.0 L 113.0 191.0 L 110.0 187.0 L 108.0 182.0 L 107.0 179.0 L 107.0 177.0 L 107.0 177.0 L 107.0 178.0 L 108.0 181.0 L 109.0 185.0 L 110.0 190.0 L 112.0 194.0 L 113.0 198.0 L 115.0 202.0 L 117.0 204.0 L 119.0 206.0 L 122.0 207.0 L 125.0 207.0 L 127.0 205.0 L 129.0 202.0 L 130.0 197.0 L 131.0 192.0 L 132.0 186.0 L 132.0 180.0 L 131.0 175.0 L 129.0 169.0 L 126.0 164.0 L 123.0 160.0 L 120.0 155.0 L 117.0 152.0 L 114.0 150.0 L 112.0 149.0 L 110.0 149.0 L 109.0 151.0 L 109.0 155.0 L 108.0 160.0 L 108.0 166.0 L 108.0 174.0 L 108.0 182.0 L 109.0 191.0 L 110.0 200.0 L 112.0 207.0 L 115.0 212.0 L 118.0 216.0 L 121.0 217.0 L 123.0 216.0 L 125.0 213.0 L 126.0 208.0 L 127.0 202.0 L 128.0 194.0 L 128.0 187.0 L 128.0 180.0 L 127.0 172.0 L 125.0 166.0 L 123.0 160.0 L 119.0 155.0 L 116.0 151.0 L 114.0 148.0 L 111.0 145.0 L 109.0 144.0 L 108.0 144.0 L 108.0 145.0 L 107.0 149.0 L 107.0 154.0 L 108.0 160.0 L 109.0 167.0 L 110.0 173.0 L 111.0 181.0 L 113.0 187.0 L 115.0 193.0 L 117.0 198.0 L 119.0 200.0 L 120.0 201.0 L 121.0 201.0 L 121.0 199.0 L 121.0 197.0 L 121.0 194.0 L 121.0 190.0 L 121.0 185.0 L 121.0 179.0 L 120.0 174.0 L 119.0 169.0 L 118.0 164.0 L 116.0 159.0 L 114.0 154.0 L 112.0 150.0 L 111.0 148.0 L 110.0 147.0 L 109.0 147.0 L 108.0 149.0 L 108.0 154.0 L 108.0 161.0 L 108.0 169.0 L 108.0 178.0 L 108.0 187.0 L 108.0 195.0 L 108.0 202.0 L 108.0 207.0 L 109.0 209.0 L 110.0 210.0 L 110.0 210.0 L 111.0 208.0 L 111.0 206.0 L 112.0 202.0 L 112.0 197.0 L 113.0 192.0 L 113.0 186.0 L 113.0 180.0 L 113.0 174.0 L 113.0 168.0 L 112.0 163.0 L 110.0 158.0 L 109.0 153.0 L 108.0 150.0 L 107.0 149.0 L 107.0 149.0 L 106.0 151.0 L 106.0 156.0 L 106.0 162.0 L 106.0 170.0 L 106.0 178.0 L 106.0 188.0 L 106.0 196.0 L 107.0 203.0 L 107.0 208.0 L 108.0 210.0 L 109.0 210.0 L 110.0 210.0 L 111.0 207.0 L 112.0 203.0 L 113.0 198.0 L 114.0 193.0 L 115.0 186.0 L 116.0 179.0 L 116.0 173.0 L 116.0 167.0 L 116.0 160.0 L 116.0 154.0 L 115.0 149.0 L 114.0 143.0 L 113.0 139.0 L 112.0 135.0 L 110.0 132.0 L 110.0 131.0 L 109.0 131.0 L 108.0 133.0 L 108.0 138.0 L 107.0 144.0 L 107.0 151.0 L 107.0 158.0 L 107.0 165.0 L 107.0 171.0 L 107.0 176.0 L 107.0 180.0 L 108.0 184.0 L 109.0 184.0 L 110.0 184.0 L 110.0 182.0 L 110.0 180.0 L 111.0 176.0 L 111.0 171.0 L 111.0 167.0 L 112.0 162.0 L 112.0 157.0 L 112.0 152.0 L 112.0 147.0 L 112.0 141.0 L 111.0 137.0 L 110.0 133.0 L 109.0 131.0 L 108.0 131.0 L 108.0 132.0 L 108.0 137.0 L 108.0 144.0 L 108.0 152.0 L 108.0 162.0 L 108.0 170.0 L 107.0 178.0 L 107.0 187.0 L 107.0 193.0 L 108.0 196.0 L 109.0 196.0 L 110.0 195.0 L 111.0 192.0 L 112.0 188.0 L 112.0 183.0 L 113.0 177.0 L 114.0 171.0 L 115.0 165.0 L 115.0 159.0 L 116.0 153.0 L 116.0 146.0 L 116.0 139.0 L 116.0 132.0 L 116.0 125.0 L 116.0 120.0 L 116.0 115.0 L 116.0 113.0 L 116.0 112.0 L 116.0 112.0 L 116.0 115.0 L 116.0 120.0 L 116.0 126.0 L 115.0 134.0 L 114.0 143.0 L 112.0 153.0 L 111.0 162.0 L 109.0 170.0 L 108.0 179.0 L 108.0 184.0 L 107.0 187.0 L 107.0 188.0 L 108.0 188.0 L 108.0 185.0 L 109.0 182.0 L 109.0 178.0 L 110.0 173.0 L 111.0 167.0 L 112.0 161.0 L 113.0 155.0 L 115.0 148.0 L 116.0 140.0 L 118.0 132.0 L 119.0 123.0 L 120.0 118.0 L 120.0 114.0 L 120.0 112.0 L 118.0 112.0 L 117.0 113.0 L 114.0 117.0 L 112.0 122.0 L 110.0 129.0 L 108.0 139.0 L 106.0 149.0 L 104.0 159.0 L 102.0 170.0 L 101.0 179.0 L 100.0 185.0 L 100.0 190.0 L 101.0 191.0 L 103.0 191.0 L 104.0 190.0 L 105.0 187.0 L 106.0 184.0 L 108.0 179.0 L 109.0 173.0 L 111.0 168.0 L 113.0 161.0 L 115.0 155.0 L 117.0 148.0 L 118.0 141.0 L 119.0 134.0 L 119.0 128.0 L 119.0 124.0 L 119.0 122.0 L 118.0 122.0 L 117.0 122.0 L 115.0 126.0 L 113.0 131.0 L 111.0 138.0 L 110.0 145.0 L 108.0 153.0 L 106.0 161.0 L 105.0 167.0 L 104.0 172.0 L 103.0 177.0 L 103.0 178.0 L 103.0 179.0 L 103.0 179.0 L 103.0 178.0 L 104.0 175.0 L 105.0 171.0 L 106.0 167.0 L 107.0 162.0 L 109.0 157.0 L 110.0 152.0 L 111.0 146.0 L 113.0 139.0 L 114.0 133.0 L 115.0 126.0 L 116.0 120.0 L 117.0 115.0 L 117.0 111.0 L 117.0 108.0 L 117.0 106.0 L 117.0 106.0 L 117.0 105.0 L 116.0 105.0 L 116.0 104.0 L 116.0 103.0 L 115.0 102.0 L 115.0 102.0 L 114.0 101.0 L 114.0 101.0 L 114.0 101.0 L 114.0 100.0 L 113.0 100.0 L 113.0 100.0 L 113.0 100.0 L 112.0 100.0 L 112.0 100.0 L 111.0 100.0 L 111.0 100.0 L 110.0 100.0 L 110.0 100.0 L 110.0 99.0 L 109.0 99.0 L 109.0 99.0 L 109.0 99.0 L 108.0 98.0 L 108.0 98.0 L 108.0 98.0 L 108.0 98.0 L 107.0 98.0 L 107.0 98.0 L 107.0 98.0 L 107.0 98.0 L 106.0 98.0 L 106.0 97.0 L 106.0 97.0 L 105.0 97.0 L 105.0 97.0 L 105.0 97.0 L 105.0 99.0 L 105.0 101.0 L 104.0 104.0 L 104.0 107.0 L 104.0 111.0 L 104.0 113.0 L 104.0 115.0 L 104.0 117.0 L 105.0 118.0 L 106.0 118.0 L 107.0 118.0 L 109.0 118.0 L 110.0 117.0 L 112.0 115.0 L 114.0 113.0 L 116.0 111.0 L 117.0 109.0 L 118.0 107.0 L 119.0 106.0 L 120.0 106.0 L 120.0 106.0 L 120.0 106.0 L 120.0 109.0 L 120.0 113.0 L 120.0 119.0 L 120.0 128.0 L 120.0 139.0 L 119.0 151.0 L 119.0 161.0 L 119.0 170.0 L 119.0 174.0 L 121.0 176.0 L 122.0 176.0 L 122.0 176.0 L 123.0 175.0 L 124.0 173.0 L 125.0 170.0 L 127.0 165.0 L 129.0 159.0 L 131.0 153.0 L 133.0 146.0 L 135.0 139.0 L 136.0 132.0 L 137.0 125.0 L 137.0 119.0 L 137.0 114.0 L 137.0 111.0 L 136.0 109.0 L 135.0 108.0 L 135.0 108.0 L 134.0 109.0 L 134.0 112.0 L 133.0 117.0 L 132.0 125.0 L 131.0 134.0 L 130.0 145.0 L 128.0 156.0 L 126.0 168.0 L 124.0 177.0 L 124.0 185.0 L 124.0 187.0 L 125.0 187.0 L 127.0 185.0 L 128.0 182.0 L 131.0 177.0 L 133.0 171.0 L 135.0 165.0 L 138.0 158.0 L 140.0 151.0 L 142.0 144.0 L 144.0 137.0 L 144.0 130.0 L 145.0 124.0 L 144.0 119.0 L 143.0 116.0 L 142.0 114.0 L 140.0 114.0 L 139.0 114.0 L 138.0 116.0 L 137.0 120.0 L 135.0 125.0 L 134.0 132.0 L 132.0 139.0 L 130.0 148.0 L 129.0 155.0 L 129.0 160.0 L 129.0 164.0 L 130.0 166.0 L 131.0 166.0 L 132.0 164.0 L 133.0 162.0 L 134.0 158.0 L 136.0 154.0 L 137.0 148.0 L 139.0 142.0 L 140.0 135.0 L 141.0 129.0 L 142.0 123.0 L 142.0 118.0 L 142.0 113.0 L 142.0 110.0 L 142.0 107.0 L 141.0 105.0 L 140.0 104.0 L 139.0 104.0 L 139.0 104.0 L 138.0 106.0 L 137.0 109.0 L 136.0 114.0 L 134.0 119.0 L 132.0 126.0 L 130.0 133.0 L 128.0 140.0 L 126.0 148.0 L 125.0 153.0 L 124.0 157.0 L 123.0 159.0 L 123.0 159.0 L 123.0 159.0 L 123.0 157.0 L 124.0 154.0 L 125.0 151.0 L 126.0 146.0 L 128.0 140.0 L 129.0 135.0 L 131.0 129.0 L 132.0 124.0 L 134.0 120.0 L 135.0 114.0 L 135.0 110.0 L 136.0 106.0 L 136.0 102.0 L 136.0 100.0 L 135.0 100.0 L 134.0 100.0 L 132.0 103.0 L 131.0 108.0 L 129.0 115.0 L 126.0 122.0 L 124.0 129.0 L 121.0 138.0 L 118.0 146.0 L 116.0 153.0 L 115.0 159.0 L 114.0 161.0 L 115.0 161.0 L 116.0 159.0 L 119.0 154.0 L 123.0 147.0 L 129.0 138.0 L 133.0 130.0 L 137.0 123.0 L 139.0 116.0 L 141.0 111.0 L 141.0 107.0 L 141.0 104.0 L 139.0 102.0 L 136.0 101.0 L 133.0 100.0 L 130.0 100.0 L 128.0 102.0 L 125.0 106.0 L 123.0 112.0 L 121.0 120.0 L 118.0 131.0 L 117.0 141.0 L 116.0 151.0 L 115.0 160.0 L 115.0 165.0 L 117.0 168.0 L 118.0 168.0 L 120.0 168.0 L 121.0 167.0 L 123.0 165.0 L 126.0 161.0 L 129.0 157.0 L 133.0 151.0 L 136.0 145.0 L 139.0 138.0 L 142.0 132.0 L 144.0 126.0 L 146.0 122.0 L 146.0 118.0 L 147.0 116.0 L 147.0 115.0 L 147.0 115.0 L 146.0 116.0 L 145.0 119.0 L 143.0 125.0 L 141.0 133.0 L 138.0 145.0 L 135.0 158.0 L 131.0 173.0 L 128.0 187.0 L 126.0 199.0 L 127.0 204.0 L 129.0 206.0 L 131.0 206.0 L 133.0 204.0 L 135.0 200.0 L 138.0 194.0 L 140.0 186.0 L 143.0 176.0 L 146.0 166.0 L 148.0 158.0 L 149.0 150.0 L 150.0 142.0 L 150.0 136.0 L 150.0 130.0 L 150.0 125.0 L 149.0 121.0 L 149.0 118.0 L 148.0 117.0 L 148.0 116.0 L 148.0 117.0 L 148.0 120.0 L 147.0 125.0 L 146.0 134.0 L 145.0 144.0 L 144.0 156.0 L 142.0 168.0 L 139.0 183.0 L 136.0 197.0 L 135.0 208.0 L 134.0 216.0 L 135.0 219.0 L 136.0 219.0 L 137.0 218.0 L 139.0 216.0 L 140.0 211.0 L 142.0 205.0 L 144.0 197.0 L 146.0 189.0 L 147.0 179.0 L 148.0 171.0 L 149.0 162.0 L 150.0 152.0 L 150.0 144.0 L 150.0 135.0 L 150.0 127.0 L 150.0 121.0 L 150.0 117.0 L 150.0 116.0 L 150.0 116.0 L 149.0 118.0 L 149.0 122.0 L 148.0 128.0 L 148.0 136.0 L 147.0 146.0 L 146.0 155.0 L 144.0 165.0 L 143.0 176.0 L 142.0 185.0 L 141.0 193.0 L 140.0 200.0 L 140.0 202.0 L 140.0 203.0 L 140.0 203.0 L 141.0 201.0 L 141.0 197.0 L 143.0 192.0 L 144.0 185.0 L 146.0 177.0 L 148.0 167.0 L 150.0 158.0 L 151.0 149.0 L 152.0 138.0 L 152.0 129.0 L 153.0 121.0 L 153.0 115.0 L 153.0 113.0 L 153.0 113.0 L 153.0 114.0 L 153.0 118.0 L 152.0 123.0 L 152.0 130.0 L 151.0 139.0 L 150.0 150.0 L 148.0 162.0 L 146.0 176.0 L 144.0 191.0 L 142.0 207.0 L 142.0 216.0 L 142.0 223.0 L 143.0 226.0 L 144.0 226.0 L 145.0 224.0 L 146.0 220.0 L 147.0 214.0 L 149.0 205.0 L 150.0 195.0 L 152.0 186.0 L 153.0 175.0 L 155.0 165.0 L 156.0 156.0 L 157.0 147.0 L 158.0 138.0 L 158.0 131.0 L 158.0 125.0 L 158.0 121.0 L 158.0 120.0 L 158.0 120.0 L 158.0 121.0 L 158.0 125.0 L 158.0 130.0 L 158.0 137.0 L 158.0 146.0 L 158.0 155.0 L 157.0 164.0 L 156.0 174.0 L 155.0 184.0 L 154.0 195.0 L 153.0 203.0 L 152.0 210.0 L 152.0 215.0 L 152.0 217.0 L 152.0 217.0 L 152.0 217.0 L 152.0 216.0 L 153.0 213.0 L 153.0 208.0 L 154.0 202.0 L 155.0 194.0 L 157.0 185.0 L 158.0 175.0 L 159.0 165.0 L 160.0 154.0 L 161.0 143.0 L 162.0 133.0 L 163.0 125.0 L 163.0 121.0 L 164.0 119.0 L 164.0 119.0 L 164.0 121.0 L 163.0 126.0 L 162.0 133.0 L 161.0 142.0 L 159.0 153.0 L 157.0 165.0 L 155.0 177.0 L 154.0 189.0 L 153.0 200.0 L 153.0 206.0 L 153.0 208.0 L 153.0 208.0 L 153.0 207.0 L 153.0 204.0 L 153.0 200.0 L 154.0 194.0 L 155.0 187.0 L 156.0 178.0 L 157.0 171.0 L 158.0 163.0 L 160.0 154.0 L 161.0 146.0 L 161.0 137.0 L 162.0 127.0 L 162.0 120.0 L 163.0 115.0 L 163.0 111.0 L 163.0 111.0 L 163.0 111.0 L 163.0 113.0 L 163.0 117.0 L 163.0 122.0 L 163.0 129.0 L 162.0 136.0 L 162.0 144.0 L 162.0 152.0 L 161.0 159.0 L 160.0 165.0 L 160.0 172.0 L 160.0 176.0 L 160.0 179.0 L 160.0 180.0 L 160.0 180.0 L 160.0 180.0 L 160.0 177.0 L 160.0 174.0 L 160.0 170.0 L 160.0 164.0 L 161.0 157.0 L 161.0 151.0 L 162.0 143.0 L 162.0 136.0 L 162.0 128.0 L 162.0 120.0 L 162.0 115.0 L 162.0 111.0 L 162.0 108.0 L 162.0 108.0 L 162.0 109.0 L 163.0 111.0 L 164.0 114.0 L 165.0 119.0 L 166.0 125.0 L 167.0 130.0 L 167.0 136.0 L 168.0 141.0 L 169.0 146.0 L 169.0 150.0 L 170.0 153.0 L 171.0 154.0 L 171.0 155.0 L 171.0 155.0 L 171.0 154.0 L 171.0 152.0 L 171.0 149.0 L 171.0 145.0 L 171.0 141.0 L 172.0 136.0 L 172.0 132.0 L 172.0 127.0 L 172.0 122.0 L 172.0 117.0 L 172.0 113.0 L 172.0 108.0 L 172.0 105.0 L 172.0 103.0 L 173.0 102.0 L 174.0 103.0 L 174.0 107.0 L 175.0 112.0 L 175.0 119.0 L 175.0 126.0 L 175.0 135.0 L 175.0 144.0 L 173.0 154.0 L 172.0 164.0 L 171.0 173.0 L 171.0 179.0 L 170.0 185.0 L 170.0 187.0 L 170.0 188.0 L 170.0 188.0 L 170.0 186.0 L 170.0 183.0 L 170.0 178.0 L 171.0 172.0 L 171.0 166.0 L 172.0 158.0 L 173.0 152.0 L 173.0 144.0 L 174.0 135.0 L 174.0 127.0 L 175.0 121.0 L 175.0 115.0 L 176.0 113.0 L 176.0 113.0 L 177.0 113.0 L 177.0 115.0 L 178.0 117.0 L 179.0 121.0 L 179.0 125.0 L 180.0 129.0 L 180.0 134.0 L 180.0 138.0 L 180.0 143.0 L 180.0 147.0 L 180.0 151.0 L 180.0 153.0 L 179.0 155.0 L 179.0 155.0 L 178.0 155.0 L 178.0 153.0 L 178.0 152.0 L 177.0 149.0 L 177.0 146.0 L 177.0 142.0 L 177.0 138.0 L 177.0 133.0 L 177.0 129.0 L 177.0 124.0 L 177.0 119.0 L 177.0 115.0 L 177.0 111.0 L 178.0 109.0 L 178.0 108.0 L 179.0 108.0 L 179.0 111.0 L 180.0 115.0 L 180.0 120.0 L 180.0 126.0 L 180.0 132.0 L 180.0 137.0 L 180.0 143.0 L 180.0 147.0 L 181.0 151.0 L 182.0 153.0 L 182.0 154.0 L 183.0 154.0 L 184.0 152.0 L 184.0 150.0 L 184.0 146.0 L 185.0 144.0 L 185.0 142.0 L 185.0 136.0 L 186.0 131.0 L 187.0 125.0 L 187.0 120.0 L 187.0 115.0 L 187.0 110.0 L 187.0 107.0 L 187.0 104.0 L 187.0 103.0 L 187.0 103.0 L 187.0 105.0 L 187.0 109.0 L 187.0 114.0 L 187.0 120.0 L 187.0 128.0 L 187.0 135.0 L 187.0 143.0 L 187.0 152.0 L 187.0 159.0 L 187.0 165.0 L 188.0 169.0 L 189.0 170.0 L 190.0 171.0 L 190.0 170.0 L 191.0 167.0 L 191.0 163.0 L 191.0 158.0 L 192.0 155.0 L 192.0 152.0 L 192.0 146.0 L 192.0 139.0 L 192.0 133.0 L 192.0 127.0 L 192.0 121.0 L 192.0 116.0 L 191.0 112.0 L 191.0 109.0 L 191.0 108.0 L 191.0 108.0 L 191.0 109.0 L 191.0 112.0 L 191.0 116.0 L 191.0 122.0 L 191.0 128.0 L 191.0 134.0 L 191.0 142.0 L 191.0 149.0 L 191.0 156.0 L 191.0 163.0 L 191.0 168.0 L 192.0 172.0 L 193.0 176.0 L 193.0 177.0 L 194.0 177.0 L 194.0 176.0 L 194.0 174.0 L 195.0 171.0 L 195.0 166.0 L 195.0 161.0 L 196.0 155.0 L 196.0 149.0 L 196.0 142.0 L 196.0 136.0 L 196.0 128.0 L 196.0 122.0 L 196.0 118.0 L 196.0 114.0 L 196.0 114.0 L 196.0 114.0 L 196.0 117.0 L 197.0 122.0 L 197.0 128.0 L 198.0 136.0 L 198.0 143.0 L 198.0 150.0 L 199.0 156.0 L 199.0 161.0 L 200.0 165.0 L 200.0 168.0 L 201.0 168.0 L 201.0 168.0 L 201.0 168.0 L 201.0 166.0 L 201.0 163.0 L 201.0 159.0 L 201.0 155.0 L 201.0 150.0 L 202.0 144.0 L 202.0 138.0 L 202.0 132.0 L 202.0 125.0 L 203.0 120.0 L 203.0 116.0 L 204.0 114.0 L 204.0 113.0 L 205.0 113.0 L 205.0 115.0 L 206.0 118.0 L 207.0 121.0 L 207.0 126.0 L 207.0 130.0 L 207.0 136.0 L 207.0 142.0 L 207.0 148.0 L 207.0 155.0 L 207.0 161.0 L 207.0 166.0 L 207.0 170.0 L 207.0 172.0 L 207.0 173.0 L 207.0 173.0 L 207.0 171.0 L 207.0 168.0 L 207.0 165.0 L 207.0 160.0 L 207.0 156.0 L 207.0 151.0 L 207.0 146.0 L 207.0 140.0 L 207.0 135.0 L 207.0 128.0 L 207.0 123.0 L 207.0 120.0 L 207.0 117.0 L 207.0 116.0 L 207.0 116.0 L 207.0 118.0 L 207.0 121.0 L 208.0 125.0 L 208.0 130.0 L 208.0 136.0 L 208.0 141.0 L 209.0 147.0 L 209.0 152.0 L 209.0 156.0 L 209.0 159.0 L 210.0 160.0 L 210.0 160.0 L 210.0 159.0 L 210.0 157.0 L 210.0 154.0 L 210.0 150.0 L 210.0 146.0 L 210.0 141.0 L 210.0 136.0 L 210.0 131.0 L 211.0 127.0 L 211.0 122.0 L 211.0 119.0 L 212.0 116.0 L 212.0 114.0 L 212.0 113.0 L 212.0 113.0 L 213.0 113.0 L 213.0 113.0 L 213.0 114.0 L 214.0 116.0 L 214.0 119.0 L 214.0 123.0 L 214.0 127.0 L 215.0 132.0 L 215.0 137.0 L 215.0 142.0 L 215.0 147.0 L 216.0 152.0 L 216.0 155.0 L 216.0 158.0 L 216.0 159.0 L 216.0 159.0 L 216.0 159.0 L 216.0 157.0 L 216.0 155.0 L 216.0 152.0 L 216.0 149.0 L 216.0 145.0 L 216.0 141.0 L 216.0 136.0 L 216.0 132.0 L 216.0 127.0 L 215.0 123.0 L 215.0 119.0 L 215.0 116.0 L 214.0 114.0 L 214.0 114.0 L 214.0 114.0 L 214.0 116.0 L 215.0 119.0 L 215.0 123.0 L 216.0 128.0 L 217.0 133.0 L 218.0 137.0 L 219.0 142.0 L 219.0 146.0 L 220.0 149.0 L 221.0 152.0 L 222.0 154.0 L 222.0 154.0 L 222.0 154.0 L 222.0 154.0 L 222.0 152.0 L 222.0 150.0 L 221.0 147.0 L 221.0 143.0 L 221.0 139.0 L 220.0 135.0 L 220.0 131.0 L 219.0 127.0 L 219.0 123.0 L 218.0 119.0 L 218.0 115.0 L 217.0 112.0 L 216.0 110.0 L 216.0 109.0 L 216.0 109.0 L 216.0 109.0 L 216.0 111.0 L 216.0 113.0 L 217.0 115.0 L 218.0 118.0 L 219.0 120.0 L 220.0 122.0 L 221.0 124.0 L 222.0 125.0 L 223.0 127.0 L 224.0 128.0 L 225.0 129.0 L 226.0 129.0 L 226.0 130.0 L 226.0 130.0 L 226.0 130.0 L 226.0 130.0 L 226.0 130.0 L 226.0 130.0 L 226.0 129.0 L 226.0 128.0 L 225.0 127.0 L 224.0 126.0 L 223.0 124.0 L 222.0 122.0 L 221.0 121.0 L 220.0 119.0 L 219.0 117.0 L 219.0 115.0 L 218.0 114.0 L 218.0 113.0 L 217.0 112.0 L 217.0 111.0 L 216.0 110.0 L 216.0 110.0 L 216.0 110.0 L 216.0 109.0 L 216.0 109.0 L 216.0 109.0 L 216.0 109.0 L 216.0 109.0 L 216.0 109.0 L 216.0 109.0 L 216.0 109.0 L 216.0 109.0 L 216.0 109.0 L 216.0 109.0 L 216.0 109.0 L 216.0 109.0 L 216.0 109.0 L 216.0 109.0 L 216.0 109.0 L 216.0 109.0 L 216.0 109.0 L 216.0 109.0 L 216.0 109.0 L 216.0 109.0 L 216.0 109.0 L 216.0 109.0 L 216.0 109.0 L 216.0 109.0 L 216.0 109.0 L 216.0 109.0 L 216.0 108.0 L 216.0 108.0 L 215.0 108.0 L 215.0 108.0 L 215.0 108.0 L 215.0 107.0 L 215.0 107.0 L 215.0 107.0 L 214.0 107.0 L 214.0 107.0 L 214.0 107.0 L 214.0 107.0 L 214.0 107.0 L 214.0 107.0 L 213.0 107.0 L 213.0 106.0 L 213.0 106.0 L 213.0 106.0 L 213.0 106.0 L 213.0 106.0 L 213.0 106.0 L 213.0 106.0 L 213.0 106.0 L 213.0 106.0 L 213.0 106.0 L 213.0 106.0 L 213.0 106.0 L 213.0 106.0 L 213.0 106.0 L 213.0 106.0 L 213.0 106.0 L 213.0 106.0 L 213.0 105.0 L 212.0 105.0 L 212.0 105.0 L 212.0 105.0 L 212.0 105.0 L 212.0 105.0 L 212.0 105.0 L 212.0 105.0 L 212.0 105.0 L 212.0 105.0 L 212.0 105.0 L 212.0 105.0 L 212.0 105.0 L 212.0 105.0 L 213.0 106.0 L 214.0 107.0 L 215.0 109.0 L 216.0 110.0 L 217.0 111.0 L 219.0 113.0 L 220.0 114.0 L 221.0 115.0 L 222.0 116.0 L 223.0 117.0 L 224.0 119.0 L 224.0 119.0 L 225.0 120.0 L 226.0 121.0 L 226.0 122.0 L 226.0 123.0 L 227.0 124.0 L 227.0 125.0 L 227.0 126.0 L 227.0 127.0 L 227.0 129.0 L 227.0 130.0 L 227.0 133.0 L 227.0 135.0 L 227.0 139.0 L 227.0 142.0 L 227.0 146.0 L 227.0 150.0 L 227.0 154.0 L 227.0 157.0 L 227.0 160.0 L 227.0 163.0 L 226.0 166.0 L 225.0 167.0 L 225.0 168.0 L 224.0 169.0 L 224.0 169.0 L 223.0 168.0 L 223.0 166.0 L 222.0 164.0 L 222.0 162.0 L 222.0 159.0 L 221.0 157.0 L 221.0 153.0 L 220.0 150.0 L 220.0 146.0 L 219.0 142.0 L 219.0 139.0 L 219.0 136.0 L 219.0 133.0 L 219.0 132.0 L 219.0 131.0 L 220.0 131.0 L 221.0 131.0 L 221.0 133.0 L 222.0 134.0 L 222.0 136.0 L 222.0 139.0 L 222.0 142.0 L 222.0 145.0 L 222.0 149.0 L 221.0 154.0 L 220.0 160.0 L 218.0 166.0 L 216.0 173.0 L 214.0 180.0 L 212.0 186.0 L 211.0 190.0 L 211.0 192.0 L 211.0 192.0 L 211.0 192.0 L 211.0 188.0 L 213.0 184.0 L 214.0 178.0 L 216.0 172.0 L 218.0 168.0 L 220.0 163.0 L 222.0 160.0 L 223.0 157.0 L 224.0 154.0 L 225.0 152.0 L 226.0 151.0 L 226.0 151.0 L 226.0 151.0 L 226.0 152.0 L 226.0 155.0 L 225.0 158.0 L 223.0 162.0 L 221.0 166.0 L 219.0 171.0 L 217.0 175.0 L 214.0 181.0 L 210.0 186.0 L 207.0 191.0 L 204.0 195.0 L 202.0 198.0 L 200.0 199.0 L 200.0 199.0 L 200.0 199.0 L 200.0 198.0 L 200.0 197.0 L 200.0 196.0 L 200.0 195.0 L 202.0 192.0 L 203.0 190.0 L 205.0 188.0 L 207.0 185.0 L 210.0 182.0 L 212.0 180.0 L 215.0 178.0 L 217.0 177.0 L 219.0 176.0 L 220.0 176.0 L 221.0 176.0 L 221.0 177.0 L 221.0 179.0 L 219.0 182.0 L 217.0 185.0 L 214.0 188.0 L 211.0 192.0 L 208.0 196.0 L 205.0 200.0 L 203.0 203.0 L 201.0 205.0 L 199.0 207.0 L 198.0 208.0 L 198.0 208.0 L 198.0 208.0 L 198.0 207.0 L 200.0 205.0 L 202.0 203.0 L 204.0 201.0 L 206.0 199.0 L 208.0 196.0 L 210.0 195.0 L 212.0 193.0 L 215.0 191.0 L 217.0 189.0 L 219.0 187.0 L 221.0 186.0 L 222.0 185.0 L 222.0 185.0 L 222.0 185.0 L 222.0 186.0 L 221.0 187.0 L 219.0 190.0 L 217.0 193.0 L 215.0 196.0 L 212.0 199.0 L 209.0 202.0 L 207.0 205.0 L 205.0 208.0 L 203.0 210.0 L 202.0 211.0 L 201.0 212.0 L 201.0 213.0 L 201.0 213.0 L 202.0 212.0 L 203.0 210.0 L 205.0 208.0 L 207.0 205.0 L 209.0 203.0 L 211.0 201.0 L 214.0 199.0 L 216.0 197.0 L 218.0 196.0 L 219.0 195.0 L 220.0 194.0 L 221.0 194.0 L 221.0 194.0 L 221.0 194.0 L 220.0 195.0 L 218.0 197.0 L 216.0 198.0 L 214.0 200.0 L 211.0 203.0 L 209.0 206.0 L 206.0 208.0 L 203.0 212.0 L 200.0 215.0 L 198.0 219.0 L 196.0 222.0 L 194.0 224.0 L 194.0 225.0 L 194.0 226.0 L 194.0 226.0 L 194.0 225.0 L 195.0 223.0 L 197.0 221.0 L 199.0 218.0 L 201.0 215.0 L 202.0 213.0 L 204.0 211.0 L 205.0 209.0 L 206.0 207.0 L 207.0 206.0 L 207.0 206.0 L 207.0 205.0 L 207.0 204.0 L 207.0 204.0 L 206.0 205.0 L 204.0 206.0 L 202.0 207.0 L 200.0 209.0 L 198.0 211.0 L 196.0 213.0 L 194.0 214.0 L 192.0 216.0 L 189.0 218.0 L 186.0 220.0 L 183.0 222.0 L 180.0 224.0 L 178.0 227.0 L 176.0 228.0 L 175.0 229.0 L 175.0 229.0 L 175.0 229.0 L 176.0 229.0 L 178.0 228.0 L 180.0 226.0 L 183.0 225.0 L 185.0 223.0 L 187.0 221.0 L 189.0 220.0 L 191.0 218.0 L 193.0 217.0 L 194.0 216.0 L 194.0 215.0 L 195.0 215.0 L 195.0 215.0 L 195.0 215.0 L 193.0 215.0 L 191.0 215.0 L 189.0 217.0 L 186.0 218.0 L 183.0 219.0 L 179.0 220.0 L 174.0 221.0 L 170.0 222.0 L 165.0 223.0 L 160.0 223.0 L 156.0 223.0 L 153.0 223.0 L 151.0 224.0 L 150.0 224.0 L 150.0 224.0 L 150.0 225.0 L 151.0 226.0 L 153.0 226.0 L 155.0 227.0 L 157.0 227.0 L 160.0 227.0 L 162.0 227.0 L 165.0 227.0 L 167.0 226.0 L 169.0 225.0 L 171.0 225.0 L 172.0 224.0 L 172.0 224.0 L 172.0 223.0 L 171.0 223.0 L 168.0 223.0 L 164.0 224.0 L 160.0 225.0 L 156.0 225.0 L 153.0 226.0 L 149.0 226.0 L 146.0 226.0 L 144.0 226.0 L 141.0 226.0 L 139.0 226.0 L 138.0 226.0 L 138.0 225.0 L 138.0 225.0 L 138.0 225.0 L 139.0 226.0 L 141.0 227.0 L 143.0 228.0 L 146.0 229.0 L 149.0 229.0 L 152.0 229.0 L 155.0 229.0 L 157.0 229.0 L 160.0 229.0 L 162.0 229.0 L 163.0 229.0 L 164.0 229.0 L 164.0 228.0 L 162.0 228.0 L 160.0 228.0 L 157.0 228.0 L 154.0 228.0 L 151.0 228.0 L 149.0 228.0 L 146.0 227.0 L 143.0 227.0 L 140.0 227.0 L 137.0 227.0 L 135.0 227.0 L 133.0 227.0 L 131.0 227.0 L 130.0 227.0 L 130.0 227.0 L 130.0 227.0 L 130.0 227.0 L 132.0 227.0 L 134.0 228.0 L 136.0 229.0 L 139.0 230.0 L 141.0 231.0 L 144.0 231.0 L 147.0 232.0 L 149.0 232.0 L 151.0 232.0 L 152.0 233.0 L 153.0 233.0 L 154.0 233.0 L 154.0 233.0 L 154.0 233.0 L 153.0 233.0 L 152.0 233.0 L 150.0 233.0 L 148.0 233.0 L 146.0 233.0 L 144.0 233.0 L 141.0 233.0 L 138.0 232.0 L 137.0 232.0 L 135.0 232.0 L 132.0 232.0 L 129.0 232.0 L 126.0 232.0 L 124.0 232.0 L 123.0 232.0 L 122.0 232.0 L 121.0 232.0 L 121.0 232.0 L 122.0 232.0 L 124.0 232.0 L 127.0 233.0 L 130.0 234.0 L 133.0 234.0 L 136.0 234.0 L 139.0 234.0 L 142.0 234.0 L 145.0 234.0 L 147.0 234.0 L 149.0 234.0 L 151.0 234.0 L 152.0 234.0 L 153.0 234.0 L 153.0 234.0 L 153.0 234.0 L 152.0 233.0 L 151.0 233.0 L 149.0 233.0 L 147.0 233.0 L 145.0 233.0 L 142.0 233.0 L 140.0 233.0 L 137.0 233.0 L 135.0 233.0 L 132.0 233.0 L 130.0 233.0 L 129.0 233.0 L 128.0 233.0 L 128.0 234.0 L 128.0 234.0 L 129.0 235.0 L 130.0 235.0 L 133.0 236.0 L 136.0 236.0 L 139.0 236.0 L 141.0 237.0 L 144.0 237.0 L 146.0 237.0 L 149.0 237.0 L 151.0 237.0 L 153.0 237.0 L 155.0 237.0 L 157.0 237.0 L 159.0 237.0 L 161.0 237.0 L 163.0 237.0 L 165.0 237.0 L 166.0 236.0 L 168.0 236.0 L 169.0 236.0 L 171.0 236.0 L 173.0 235.0 L 174.0 235.0 L 176.0 234.0 L 178.0 234.0 L 180.0 234.0 L 182.0 233.0 L 184.0 233.0 L 185.0 232.0 L 187.0 232.0 L 188.0 232.0 L 189.0 231.0 L 190.0 231.0 L 190.0 231.0 L 190.0 231.0 L 190.0 231.0 L 190.0 231.0 L 190.0 231.0 L 189.0 231.0 L 188.0 231.0 L 187.0 231.0 L 185.0 231.0 L 183.0 231.0 L 180.0 231.0 L 177.0 231.0 L 174.0 231.0 L 170.0 231.0 L 167.0 231.0 L 165.0 231.0 L 162.0 231.0 L 160.0 231.0 L 159.0 231.0 L 158.0 231.0 L 158.0 231.0 L 158.0 231.0 L 159.0 230.0 L 161.0 229.0 L 164.0 227.0 L 167.0 224.0 L 170.0 221.0 L 174.0 217.0 L 178.0 213.0 L 181.0 208.0 L 184.0 202.0 L 187.0 196.0 L 189.0 190.0 L 191.0 184.0 L 191.0 177.0 L 191.0 172.0 L 191.0 168.0 L 190.0 164.0 L 189.0 161.0 L 187.0 158.0 L 185.0 156.0 L 184.0 155.0 L 182.0 155.0 L 179.0 155.0 L 177.0 158.0 L 175.0 163.0 L 172.0 170.0 L 170.0 179.0 L 168.0 188.0 L 166.0 197.0 L 165.0 203.0 L 165.0 207.0 L 165.0 210.0 L 166.0 210.0 L 167.0 209.0 L 169.0 207.0 L 170.0 204.0 L 172.0 200.0 L 175.0 195.0 L 177.0 189.0 L 179.0 184.0 L 180.0 177.0 L 181.0 171.0 L 182.0 166.0 L 182.0 162.0 L 181.0 158.0 L 179.0 156.0 L 177.0 155.0 L 174.0 154.0 L 172.0 154.0 L 170.0 155.0 L 168.0 157.0 L 167.0 161.0 L 165.0 166.0 L 163.0 172.0 L 161.0 179.0 L 160.0 187.0 L 158.0 195.0 L 157.0 202.0 L 157.0 209.0 L 157.0 213.0 L 157.0 214.0 L 158.0 215.0 L 159.0 215.0 L 160.0 213.0 L 161.0 211.0 L 163.0 207.0 L 165.0 202.0 L 168.0 196.0 L 171.0 190.0 L 173.0 183.0 L 176.0 175.0 L 178.0 169.0 L 179.0 163.0 L 179.0 158.0 L 179.0 156.0 L 179.0 155.0 L 178.0 155.0 L 177.0 157.0 L 175.0 159.0 L 173.0 163.0 L 171.0 168.0 L 168.0 174.0 L 166.0 181.0 L 163.0 189.0 L 161.0 197.0 L 158.0 206.0 L 157.0 213.0 L 156.0 217.0 L 156.0 221.0 L 156.0 221.0 L 157.0 221.0 L 159.0 220.0 L 161.0 216.0 L 164.0 212.0 L 168.0 206.0 L 171.0 200.0 L 176.0 195.0 L 180.0 188.0 L 184.0 182.0 L 187.0 176.0 L 190.0 171.0 L 192.0 168.0 L 192.0 167.0 L 193.0 166.0 L 193.0 166.0 L 193.0 168.0 L 192.0 170.0 L 191.0 174.0 L 189.0 179.0 L 187.0 185.0 L 185.0 191.0 L 182.0 196.0 L 179.0 202.0 L 176.0 206.0 L 174.0 210.0 L 172.0 213.0 L 171.0 214.0 L 171.0 214.0 L 172.0 213.0 L 173.0 211.0 L 175.0 209.0 L 178.0 205.0 L 181.0 202.0 L 184.0 198.0 L 187.0 193.0 L 190.0 189.0 L 192.0 185.0 L 195.0 180.0 L 197.0 177.0 L 199.0 173.0 L 200.0 171.0 L 201.0 170.0 L 201.0 170.0 L 201.0 170.0 L 201.0 171.0 L 199.0 175.0 L 197.0 180.0 L 195.0 186.0 L 193.0 192.0 L 190.0 198.0 L 188.0 204.0 L 186.0 209.0 L 185.0 214.0 L 184.0 217.0 L 184.0 218.0 L 184.0 218.0 L 185.0 217.0 L 187.0 215.0 L 189.0 212.0 L 191.0 208.0 L 193.0 203.0 L 196.0 198.0 L 198.0 194.0 L 201.0 189.0 L 204.0 183.0 L 207.0 178.0 L 209.0 174.0 L 211.0 170.0 L 212.0 168.0 L 212.0 168.0 L 212.0 168.0 L 210.0 171.0 L 208.0 175.0 L 205.0 180.0 L 203.0 186.0 L 200.0 192.0 L 197.0 198.0 L 195.0 203.0 L 193.0 207.0 L 193.0 211.0 L 192.0 211.0 L 192.0 211.0 L 193.0 210.0 L 194.0 208.0 L 196.0 204.0 L 198.0 200.0 L 200.0 195.0 L 202.0 191.0 L 205.0 187.0 L 206.0 182.0 L 208.0 178.0 L 210.0 173.0 L 212.0 169.0 L 213.0 166.0 L 214.0 164.0 L 214.0 164.0 L 213.0 164.0 L 211.0 166.0 L 209.0 169.0 L 206.0 173.0 L 203.0 177.0 L 201.0 180.0 L 199.0 184.0 L 197.0 188.0 L 196.0 191.0 L 196.0 194.0 L 196.0 196.0 L 196.0 197.0 L 196.0 197.0 L 197.0 197.0 L 199.0 195.0 L 200.0 193.0 L 202.0 189.0 L 204.0 184.0 L 206.0 180.0 L 208.0 175.0 L 210.0 170.0 L 212.0 165.0 L 213.0 160.0 L 213.0 156.0 L 212.0 153.0 L 210.0 150.0 L 207.0 147.0 L 203.0 144.0 L 199.0 140.0 L 196.0 136.0 L 192.0 133.0 L 189.0 130.0 L 185.0 128.0 L 181.0 128.0 L 177.0 128.0 L 174.0 129.0 L 171.0 132.0 L 168.0 136.0 L 166.0 140.0 L 165.0 146.0 L 163.0 152.0 L 163.0 156.0 L 163.0 159.0 L 163.0 162.0 L 165.0 163.0 L 167.0 163.0 L 169.0 163.0 L 171.0 161.0 L 174.0 158.0 L 176.0 154.0 L 178.0 149.0 L 179.0 143.0 L 179.0 137.0 L 179.0 132.0 L 177.0 126.0 L 174.0 121.0 L 169.0 117.0 L 164.0 114.0 L 158.0 113.0 L 154.0 113.0 L 150.0 113.0 L 145.0 115.0 L 142.0 119.0 L 138.0 124.0 L 135.0 131.0 L 132.0 139.0 L 131.0 148.0 L 130.0 157.0 L 131.0 165.0 L 134.0 170.0 L 139.0 175.0 L 143.0 178.0 L 148.0 179.0 L 152.0 179.0 L 155.0 177.0 L 158.0 173.0 L 162.0 168.0 L 166.0 161.0 L 168.0 154.0 L 170.0 146.0 L 170.0 139.0 L 170.0 132.0 L 167.0 126.0 L 163.0 123.0 L 159.0 120.0 L 155.0 119.0 L 152.0 119.0 L 150.0 119.0 L 147.0 122.0 L 146.0 126.0 L 145.0 132.0 L 144.0 139.0 L 143.0 146.0 L 143.0 150.0 L 143.0 153.0 L 143.0 160.0 L 144.0 164.0 L 145.0 166.0 L 146.0 168.0 L 148.0 171.0 L 150.0 172.0 L 152.0 173.0 L 154.0 173.0 L 155.0 173.0 L 157.0 173.0 L 158.0 173.0 " stroke="black" fill="none" stroke-width="10.0" stroke-linecap="round" stroke-linejoin="round" />
</svg>