<svg xmlns="http://www.w3.org/2000/svg" width="300" height="300" viewBox="0 0 300 300">
<path d="M 51.0 65.0 L 51.0 65.0 L 51.0 66.0 L 50.0 66.0 L 50.0 67.0 L 50.0 68.0 L 49.0 69.0 L 49.0 69.0 L 49.0 71.0 L 49.0 72.0 L 49.0 73.0 L 49.0 74.0 L 50.0 75.0 L 50.0 76.0 L 50.0 77.0 L 51.0 79.0 L 51.0 80.0 L 51.0 81.0 L 51.0 82.0 L 51.0 84.0 L 51.0 86.0 L 51.0 88.0 L 51.0 90.0 L 51.0 92.0 L 51.0 95.0 L 51.0 98.0 L 51.0 100.0 L 51.0 103.0 L 51.0 106.0 L 51.0 108.0 L 51.0 111.0 L 51.0 113.0 L 51.0 116.0 L 51.0 118.0 L 51.0 120.0 L 51.0 122.0 L 51.0 124.0 L 51.0 126.0 L 51.0 128.0 L 51.0 129.0 L 51.0 131.0 L 51.0 133.0 L 51.0 135.0 L 51.0 137.0 L 51.0 139.0 L 51.0 141.0 L 51.0 143.0 L 51.0 146.0 L 51.0 148.0 L 51.0 150.0 L 51.0 152.0 L 51.0 154.0 L 51.0 156.0 L 51.0 158.0 L 51.0 160.0 L 51.0 161.0 L 51.0 163.0 L 51.0 165.0 L 51.0 166.0 L 51.0 168.0 L 51.0 170.0 L 51.0 172.0 L 51.0 174.0 L 51.0 176.0 L 51.0 178.0 L 51.0 180.0 L 50.0 182.0 L 50.0 184.0 L 50.0 186.0 L 50.0 188.0 L 50.0 190.0 L 50.0 191.0 L 50.0 193.0 L 50.0 195.0 L 50.0 196.0 L 49.0 198.0 L 49.0 199.0 L 49.0 201.0 L 49.0 202.0 L 48.0 204.0 L 48.0 205.0 L 48.0 206.0 L 48.0 207.0 L 48.0 209.0 L 48.0 210.0 L 48.0 211.0 L 48.0 213.0 L 48.0 214.0 L 48.0 215.0 L 47.0 217.0 L 47.0 218.0 L 47.0 220.0 L 47.0 221.0 L 47.0 222.0 L 47.0 224.0 L 47.0 226.0 L 47.0 227.0 L 47.0 229.0 L 47.0 230.0 L 47.0 232.0 L 47.0 233.0 L 47.0 234.0 L 47.0 236.0 L 47.0 237.0 L 47.0 238.0 L 47.0 239.0 L 47.0 240.0 L 47.0 241.0 L 47.0 242.0 L 47.0 243.0 L 47.0 243.0 L 47.0 244.0 L 47.0 245.0 L 46.0 246.0 L 46.0 247.0 L 46.0 247.0 L 46.0 248.0 L 46.0 249.0 L 46.0 250.0 L 46.0 250.0 L 46.0 251.0 L 46.0 252.0 L 46.0 252.0 L 46.0 253.0 L 46.0 253.0 L 46.0 254.0 L 45.0 254.0 L 45.0 255.0 L 45.0 255.0 L 45.0 256.0 L 45.0 256.0 L 45.0 256.0 L 45.0 257.0 L 45.0 257.0 L 45.0 257.0 L 45.0 258.0 L 45.0 258.0 L 45.0 258.0 L 45.0 259.0 L 45.0 259.0 L 45.0 259.0 L 45.0 259.0 L 45.0 259.0 L 45.0 259.0 L 45.0 260.0 L 45.0 260.0 L 45.0 260.0 L 45.0 261.0 L 44.0 261.0 L 44.0 261.0 L 44.0 262.0 L 44.0 262.0 L 44.0 262.0 L 44.0 263.0 L 44.0 263.0 L 44.0 263.0 L 44.0 263.0 L 44.0 263.0 L 44.0 264.0 L 44.0 264.0 L 44.0 264.0 L 44.0 264.0 L 44.0 264.0 L 44.0 264.0 L 44.0 265.0 L 44.0 265.0 L 45.0 265.0 L 45.0 265.0 L 45.0 265.0 L 45.0 265.0 L 45.0 265.0 L 45.0 265.0 L 45.0 265.0 L 46.0 265.0 L 46.0 265.0 L 46.0 265.0 L 46.0 265.0 L 46.0 265.0 L 46.0 265.0 L 46.0 265.0 L 46.0 265.0 L 46.0 265.0 L 46.0 265.0 L 46.0 265.0 L 46.0 265.0 L 46.0 265.0 L 46.0 265.0 L 47.0 265.0 L 47.0 265.0 L 47.0 265.0 L 47.0 265.0 L 47.0 265.0 L 47.0 265.0 L 47.0 265.0 L 48.0 265.0 L 48.0 265.0 L 48.0 265.0 L 48.0 265.0 L 49.0 265.0 L 49.0 265.0 L 49.0 265.0 L 49.0 265.0 L 50.0 264.0 L 50.0 264.0 L 51.0 264.0 L 51.0 264.0 L 52.0 264.0 L 52.0 264.0 L 53.0 264.0 L 53.0 264.0 L 54.0 264.0 L 55.0 264.0 L 55.0 264.0 L 56.0 264.0 L 56.0 264.0 L 57.0 265.0 L 58.0 265.0 L 58.0 265.0 L 59.0 265.0 L 60.0 265.0 L 60.0 266.0 L 61.0 266.0 L 61.0 266.0 L 62.0 266.0 L 62.0 266.0 L 63.0 267.0 L 64.0 267.0 L 64.0 267.0 L 65.0 267.0 L 66.0 267.0 L 66.0 267.0 L 67.0 267.0 L 68.0 267.0 L 69.0 267.0 L 70.0 267.0 L 71.0 267.0 L 72.0 267.0 L 73.0 267.0 L 74.0 267.0 L 75.0 267.0 L 77.0 267.0 L 78.0 267.0 L 80.0 266.0 L 81.0 266.0 L 82.0 266.0 L 84.0 266.0 L 85.0 266.0 L 86.0 266.0 L 88.0 266.0 L 89.0 266.0 L 91.0 266.0 L 92.0 266.0 L 93.0 266.0 L 94.0 266.0 L 96.0 266.0 L 97.0 266.0 L 98.0 266.0 L 99.0 266.0 L 100.0 266.0 L 101.0 266.0 L 102.0 266.0 L 103.0 266.0 L 104.0 266.0 L 105.0 266.0 L 106.0 266.0 L 107.0 266.0 L 108.0 266.0 L 108.0 266.0 L 109.0 266.0 L 110.0 266.0 L 111.0 266.0 L 112.0 266.0 L 112.0 266.0 L 113.0 266.0 L 114.0 265.0 L 114.0 265.0 L 115.0 265.0 L 116.0 265.0 L 117.0 265.0 L 118.0 265.0 L 119.0 264.0 L 120.0 264.0 L 121.0 264.0 L 122.0 264.0 L 124.0 264.0 L 125.0 263.0 L 126.0 263.0 L 127.0 263.0 L 128.0 263.0 L 130.0 263.0 L 131.0 263.0 L 133.0 263.0 L 134.0 263.0 L 135.0 263.0 L 136.0 263.0 L 137.0 262.0 L 138.0 262.0 L 139.0 262.0 L 140.0 262.0 L 141.0 262.0 L 142.0 262.0 L 142.0 262.0 L 143.0 262.0 L 144.0 262.0 L 145.0 262.0 L 146.0 262.0 L 147.0 262.0 L 147.0 262.0 L 148.0 262.0 L 148.0 262.0 L 149.0 262.0 L 149.0 262.0 L 150.0 262.0 L 150.0 262.0 L 151.0 262.0 L 152.0 262.0 L 152.0 262.0 L 153.0 262.0 L 153.0 262.0 L 154.0 262.0 L 154.0 262.0 L 155.0 262.0 L 155.0 262.0 L 156.0 262.0 L 157.0 262.0 L 158.0 262.0 L 158.0 262.0 L 159.0 262.0 L 160.0 262.0 L 161.0 262.0 L 162.0 262.0 L 163.0 262.0 L 164.0 262.0 L 165.0 262.0 L 166.0 262.0 L 168.0 262.0 L 169.0 262.0 L 170.0 262.0 L 171.0 262.0 L 172.0 262.0 L 174.0 261.0 L 175.0 261.0 L 176.0 261.0 L 177.0 261.0 L 178.0 261.0 L 179.0 261.0 L 180.0 261.0 L 182.0 261.0 L 182.0 261.0 L 184.0 261.0 L 184.0 261.0 L 185.0 261.0 L 186.0 261.0 L 187.0 261.0 L 188.0 261.0 L 189.0 261.0 L 190.0 261.0 L 190.0 261.0 L 191.0 261.0 L 192.0 261.0 L 192.0 261.0 L 193.0 261.0 L 193.0 261.0 L 194.0 261.0 L 194.0 261.0 L 195.0 261.0 L 195.0 261.0 L 196.0 261.0 L 196.0 261.0 L 196.0 261.0 L 197.0 261.0 L 197.0 261.0 L 198.0 261.0 L 198.0 261.0 L 198.0 261.0 L 199.0 261.0 L 199.0 261.0 L 200.0 261.0 L 200.0 261.0 L 201.0 261.0 L 201.0 261.0 L 202.0 261.0 L 202.0 261.0 L 203.0 261.0 L 204.0 261.0 L 204.0 261.0 L 205.0 260.0 L 206.0 260.0 L 206.0 260.0 L 207.0 260.0 L 208.0 260.0 L 209.0 260.0 L 209.0 260.0 L 210.0 260.0 L 211.0 260.0 L 212.0 260.0 L 213.0 260.0 L 214.0 260.0 L 215.0 260.0 L 216.0 260.0 L 217.0 260.0 L 218.0 260.0 L 219.0 260.0 L 220.0 260.0 L 221.0 260.0 L 221.0 260.0 L 222.0 260.0 L 223.0 260.0 L 223.0 260.0 L 223.0 260.0 " stroke="black" fill="none" stroke-width="5.0" stroke-linecap="round" stroke-linejoin="round" />
<path d="M 49.0 62.0 L 49.0 62.0 L 49.0 62.0 L 49.0 62.0 L 49.0 62.0 L 49.0 62.0 L 49.0 62.0 L 49.0 62.0 L 49.0 62.0 L 49.0 62.0 L 49.0 62.0 L 49.0 62.0 L 49.0 62.0 L 49.0 62.0 L 49.0 62.0 L 49.0 62.0 L 49.0 62.0 L 49.0 62.0 L 49.0 62.0 L 50.0 62.0 L 50.0 62.0 L 51.0 62.0 L 52.0 62.0 L 53.0 62.0 L 53.0 62.0 L 54.0 62.0 L 55.0 62.0 L 56.0 62.0 L 57.0 62.0 L 58.0 62.0 L 58.0 62.0 L 59.0 62.0 L 60.0 62.0 L 61.0 62.0 L 62.0 62.0 L 63.0 62.0 L 64.0 62.0 L 64.0 62.0 L 65.0 62.0 L 66.0 62.0 L 67.0 62.0 L 67.0 62.0 L 68.0 62.0 L 69.0 62.0 L 69.0 62.0 L 70.0 62.0 L 71.0 62.0 L 72.0 62.0 L 73.0 63.0 L 74.0 63.0 L 74.0 63.0 L 75.0 63.0 L 76.0 63.0 L 77.0 63.0 L 78.0 63.0 L 79.0 63.0 L 80.0 63.0 L 81.0 63.0 L 82.0 63.0 L 83.0 63.0 L 84.0 63.0 L 85.0 63.0 L 86.0 63.0 L 87.0 63.0 L 88.0 63.0 L 89.0 63.0 L 91.0 63.0 L 92.0 63.0 L 93.0 63.0 L 94.0 63.0 L 95.0 63.0 L 96.0 63.0 L 97.0 63.0 L 98.0 63.0 L 99.0 63.0 L 100.0 63.0 L 101.0 63.0 L 102.0 63.0 L 103.0 63.0 L 103.0 63.0 L 104.0 63.0 L 105.0 64.0 L 106.0 64.0 L 106.0 64.0 L 107.0 64.0 L 108.0 64.0 L 108.0 64.0 L 109.0 64.0 L 110.0 65.0 L 110.0 65.0 L 111.0 65.0 L 112.0 65.0 L 113.0 65.0 L 114.0 65.0 L 115.0 65.0 L 116.0 65.0 L 117.0 65.0 L 119.0 65.0 L 120.0 65.0 L 121.0 65.0 L 123.0 65.0 L 124.0 64.0 L 125.0 64.0 L 126.0 64.0 L 128.0 63.0 L 129.0 63.0 L 130.0 63.0 L 132.0 63.0 L 133.0 63.0 L 134.0 63.0 L 135.0 63.0 L 137.0 63.0 L 138.0 63.0 L 139.0 63.0 L 140.0 63.0 L 141.0 63.0 L 142.0 63.0 L 143.0 63.0 L 144.0 63.0 L 145.0 63.0 L 146.0 63.0 L 147.0 63.0 L 147.0 63.0 L 148.0 63.0 L 149.0 63.0 L 150.0 63.0 L 151.0 63.0 L 151.0 63.0 L 152.0 63.0 L 153.0 63.0 L 154.0 63.0 L 155.0 63.0 L 156.0 63.0 L 157.0 63.0 L 158.0 63.0 L 159.0 63.0 L 160.0 63.0 L 162.0 63.0 L 163.0 63.0 L 164.0 62.0 L 166.0 62.0 L 168.0 62.0 L 169.0 62.0 L 171.0 61.0 L 173.0 61.0 L 174.0 61.0 L 176.0 61.0 L 178.0 60.0 L 179.0 60.0 L 181.0 60.0 L 182.0 60.0 L 183.0 59.0 L 185.0 59.0 L 186.0 59.0 L 187.0 59.0 L 188.0 59.0 L 189.0 59.0 L 190.0 59.0 L 191.0 59.0 L 192.0 59.0 L 192.0 59.0 L 193.0 59.0 L 194.0 58.0 L 194.0 58.0 L 195.0 58.0 L 195.0 58.0 L 196.0 58.0 L 196.0 58.0 L 197.0 58.0 L 197.0 58.0 L 198.0 58.0 L 198.0 58.0 L 199.0 58.0 L 199.0 58.0 L 200.0 58.0 L 201.0 58.0 L 201.0 58.0 L 202.0 58.0 L 202.0 58.0 L 203.0 58.0 L 203.0 58.0 L 204.0 58.0 L 204.0 58.0 L 205.0 58.0 L 206.0 58.0 L 206.0 58.0 L 207.0 58.0 L 207.0 58.0 L 208.0 58.0 L 208.0 58.0 L 209.0 58.0 L 209.0 58.0 L 210.0 58.0 L 210.0 58.0 L 211.0 58.0 L 211.0 58.0 L 212.0 58.0 L 212.0 58.0 L 213.0 58.0 L 213.0 58.0 L 214.0 58.0 L 214.0 58.0 L 215.0 58.0 L 215.0 58.0 L 216.0 58.0 L 216.0 58.0 L 217.0 58.0 L 217.0 58.0 L 218.0 58.0 L 218.0 59.0 L 219.0 59.0 L 219.0 59.0 L 219.0 59.0 L 220.0 59.0 L 220.0 59.0 L 221.0 59.0 L 221.0 59.0 L 221.0 59.0 L 222.0 59.0 L 222.0 59.0 L 222.0 59.0 L 223.0 59.0 L 223.0 59.0 L 223.0 59.0 L 223.0 60.0 L 224.0 60.0 L 224.0 60.0 L 224.0 60.0 L 225.0 60.0 L 225.0 60.0 L 225.0 60.0 L 225.0 60.0 L 225.0 60.0 L 225.0 60.0 L 226.0 60.0 L 226.0 60.0 L 226.0 60.0 L 226.0 60.0 L 226.0 60.0 L 226.0 61.0 L 226.0 61.0 L 226.0 61.0 L 226.0 61.0 L 226.0 61.0 L 226.0 61.0 L 226.0 61.0 L 226.0 61.0 L 226.0 61.0 L 226.0 61.0 L 226.0 62.0 L 226.0 62.0 L 226.0 62.0 L 226.0 63.0 L 226.0 63.0 L 226.0 64.0 L 226.0 65.0 L 226.0 66.0 L 226.0 67.0 L 226.0 68.0 L 226.0 69.0 L 226.0 71.0 L 226.0 72.0 L 226.0 73.0 L 226.0 75.0 L 226.0 76.0 L 226.0 78.0 L 226.0 79.0 L 226.0 81.0 L 226.0 83.0 L 226.0 84.0 L 226.0 85.0 L 226.0 87.0 L 226.0 88.0 L 226.0 89.0 L 227.0 90.0 L 227.0 90.0 L 227.0 91.0 L 227.0 92.0 L 227.0 93.0 L 227.0 95.0 L 227.0 96.0 L 227.0 97.0 L 227.0 99.0 L 227.0 100.0 L 227.0 101.0 L 227.0 103.0 L 227.0 104.0 L 227.0 105.0 L 227.0 107.0 L 227.0 108.0 L 227.0 110.0 L 227.0 111.0 L 227.0 113.0 L 227.0 114.0 L 227.0 116.0 L 227.0 117.0 L 227.0 119.0 L 227.0 121.0 L 227.0 122.0 L 227.0 124.0 L 227.0 125.0 L 227.0 127.0 L 227.0 129.0 L 227.0 131.0 L 227.0 132.0 L 227.0 134.0 L 227.0 136.0 L 227.0 137.0 L 227.0 139.0 L 227.0 141.0 L 227.0 142.0 L 227.0 144.0 L 227.0 145.0 L 227.0 147.0 L 227.0 148.0 L 227.0 150.0 L 227.0 151.0 L 227.0 153.0 L 227.0 154.0 L 227.0 156.0 L 226.0 158.0 L 226.0 159.0 L 226.0 161.0 L 226.0 163.0 L 226.0 165.0 L 226.0 167.0 L 226.0 168.0 L 225.0 170.0 L 225.0 171.0 L 225.0 173.0 L 225.0 175.0 L 225.0 176.0 L 225.0 178.0 L 225.0 180.0 L 225.0 182.0 L 225.0 184.0 L 225.0 186.0 L 225.0 188.0 L 225.0 189.0 L 225.0 191.0 L 225.0 193.0 L 225.0 195.0 L 225.0 197.0 L 225.0 198.0 L 225.0 200.0 L 225.0 201.0 L 225.0 203.0 L 225.0 204.0 L 225.0 206.0 L 225.0 207.0 L 225.0 208.0 L 225.0 209.0 L 225.0 211.0 L 225.0 212.0 L 225.0 214.0 L 225.0 215.0 L 225.0 217.0 L 225.0 218.0 L 225.0 219.0 L 225.0 220.0 L 225.0 221.0 L 225.0 222.0 L 225.0 223.0 L 225.0 224.0 L 225.0 225.0 L 225.0 226.0 L 225.0 227.0 L 225.0 229.0 L 225.0 230.0 L 225.0 231.0 L 225.0 231.0 L 225.0 232.0 L 225.0 233.0 L 225.0 234.0 L 225.0 235.0 L 225.0 236.0 L 225.0 236.0 L 225.0 237.0 L 225.0 238.0 L 225.0 239.0 L 225.0 240.0 L 225.0 241.0 L 225.0 242.0 L 225.0 243.0 L 225.0 244.0 L 225.0 245.0 L 225.0 246.0 L 225.0 247.0 L 225.0 248.0 L 225.0 250.0 L 225.0 251.0 L 225.0 252.0 L 225.0 253.0 L 225.0 254.0 L 225.0 255.0 L 225.0 255.0 L 225.0 256.0 L 225.0 257.0 L 225.0 257.0 L 225.0 258.0 L 225.0 258.0 L 225.0 259.0 L 224.0 259.0 L 224.0 259.0 L 224.0 259.0 L 224.0 260.0 L 224.0 260.0 L 224.0 260.0 L 224.0 260.0 L 223.0 261.0 L 223.0 261.0 L 223.0 261.0 L 223.0 262.0 L 223.0 262.0 L 223.0 263.0 L 223.0 263.0 L 223.0 263.0 L 223.0 263.0 L 223.0 263.0 L 222.0 263.0 L 222.0 264.0 L 222.0 264.0 L 222.0 264.0 L 222.0 264.0 L 222.0 264.0 L 222.0 264.0 L 222.0 264.0 L 223.0 264.0 L 223.0 264.0 " stroke="black" fill="none" stroke-width="5.0" stroke-linecap="round" stroke-linejoin="round" />
<path d="M 133.0 128.0 L 131.0 128.0 L 129.0 128.0 L 128.0 128.0 L 127.0 130.0 L 127.0 134.0 L 127.0 141.0 L 127.0 150.0 L 126.0 160.0 L 126.0 169.0 L 125.0 178.0 L 124.0 187.0 L 124.0 192.0 L 124.0 195.0 L 123.0 197.0 L 123.0 197.0 L 123.0 197.0 L 123.0 195.0 L 123.0 192.0 L 123.0 187.0 L 123.0 179.0 L 123.0 171.0 L 123.0 164.0 L 122.0 156.0 L 122.0 148.0 L 121.0 141.0 L 120.0 133.0 L 119.0 128.0 L 118.0 126.0 L 118.0 125.0 L 117.0 127.0 L 117.0 133.0 L 117.0 142.0 L 117.0 151.0 L 116.0 160.0 L 116.0 169.0 L 116.0 177.0 L 116.0 184.0 L 115.0 191.0 L 115.0 194.0 L 115.0 196.0 L 115.0 196.0 L 115.0 195.0 L 116.0 193.0 L 116.0 188.0 L 117.0 181.0 L 118.0 173.0 L 120.0 164.0 L 121.0 155.0 L 122.0 145.0 L 122.0 134.0 L 122.0 125.0 L 122.0 117.0 L 121.0 112.0 L 120.0 112.0 L 118.0 113.0 L 116.0 117.0 L 114.0 123.0 L 113.0 131.0 L 111.0 143.0 L 109.0 155.0 L 108.0 167.0 L 107.0 183.0 L 107.0 196.0 L 106.0 206.0 L 106.0 213.0 L 106.0 214.0 L 107.0 214.0 L 107.0 213.0 L 107.0 210.0 L 108.0 206.0 L 108.0 199.0 L 108.0 192.0 L 108.0 183.0 L 108.0 174.0 L 107.0 166.0 L 107.0 159.0 L 105.0 151.0 L 103.0 146.0 L 101.0 141.0 L 98.0 136.0 L 96.0 134.0 L 94.0 134.0 L 93.0 134.0 L 93.0 137.0 L 93.0 143.0 L 93.0 150.0 L 93.0 157.0 L 93.0 165.0 L 93.0 173.0 L 94.0 180.0 L 94.0 187.0 L 94.0 193.0 L 94.0 196.0 L 93.0 197.0 L 93.0 197.0 L 93.0 197.0 L 92.0 194.0 L 92.0 191.0 L 92.0 186.0 L 92.0 180.0 L 92.0 172.0 L 93.0 166.0 L 93.0 158.0 L 94.0 150.0 L 95.0 141.0 L 95.0 131.0 L 96.0 123.0 L 96.0 118.0 L 96.0 116.0 L 96.0 116.0 L 96.0 119.0 L 96.0 125.0 L 95.0 133.0 L 94.0 143.0 L 93.0 153.0 L 91.0 163.0 L 91.0 173.0 L 90.0 183.0 L 90.0 194.0 L 90.0 200.0 L 90.0 205.0 L 90.0 207.0 L 90.0 207.0 L 90.0 206.0 L 90.0 204.0 L 90.0 200.0 L 90.0 195.0 L 90.0 189.0 L 91.0 182.0 L 91.0 174.0 L 91.0 166.0 L 92.0 158.0 L 92.0 150.0 L 93.0 141.0 L 93.0 134.0 L 94.0 129.0 L 95.0 127.0 L 95.0 127.0 L 95.0 131.0 L 96.0 138.0 L 96.0 147.0 L 96.0 156.0 L 96.0 167.0 L 95.0 177.0 L 95.0 188.0 L 95.0 199.0 L 95.0 206.0 L 95.0 210.0 L 96.0 212.0 L 97.0 212.0 L 99.0 209.0 L 101.0 205.0 L 102.0 199.0 L 104.0 191.0 L 107.0 180.0 L 108.0 170.0 L 111.0 160.0 L 113.0 150.0 L 115.0 140.0 L 117.0 131.0 L 119.0 123.0 L 120.0 120.0 L 121.0 119.0 L 121.0 120.0 L 121.0 125.0 L 121.0 134.0 L 119.0 146.0 L 118.0 158.0 L 116.0 170.0 L 115.0 184.0 L 114.0 196.0 L 114.0 205.0 L 114.0 210.0 L 116.0 210.0 L 117.0 207.0 L 119.0 202.0 L 121.0 194.0 L 123.0 185.0 L 126.0 175.0 L 128.0 166.0 L 130.0 157.0 L 131.0 149.0 L 132.0 141.0 L 133.0 133.0 L 133.0 126.0 L 134.0 122.0 L 134.0 121.0 L 134.0 121.0 L 134.0 125.0 L 134.0 133.0 L 133.0 144.0 L 132.0 156.0 L 132.0 168.0 L 131.0 182.0 L 130.0 194.0 L 130.0 203.0 L 130.0 210.0 L 131.0 212.0 L 132.0 212.0 L 134.0 210.0 L 135.0 207.0 L 136.0 202.0 L 138.0 196.0 L 140.0 188.0 L 142.0 179.0 L 144.0 169.0 L 146.0 159.0 L 147.0 150.0 L 148.0 139.0 L 149.0 129.0 L 150.0 121.0 L 151.0 114.0 L 152.0 112.0 L 152.0 112.0 L 152.0 116.0 L 152.0 121.0 L 152.0 131.0 L 152.0 144.0 L 151.0 157.0 L 150.0 170.0 L 148.0 185.0 L 147.0 198.0 L 147.0 207.0 L 147.0 213.0 L 147.0 215.0 L 147.0 215.0 L 148.0 213.0 L 149.0 210.0 L 150.0 204.0 L 151.0 197.0 L 153.0 189.0 L 154.0 179.0 L 156.0 169.0 L 158.0 159.0 L 160.0 148.0 L 162.0 136.0 L 164.0 126.0 L 166.0 118.0 L 167.0 112.0 L 168.0 110.0 L 168.0 110.0 L 168.0 113.0 L 168.0 120.0 L 168.0 129.0 L 166.0 141.0 L 165.0 154.0 L 164.0 165.0 L 163.0 177.0 L 163.0 188.0 L 163.0 196.0 L 164.0 203.0 L 166.0 204.0 L 167.0 204.0 L 168.0 202.0 L 169.0 198.0 L 170.0 192.0 L 172.0 184.0 L 173.0 174.0 L 175.0 165.0 L 177.0 154.0 L 179.0 145.0 L 180.0 134.0 L 182.0 124.0 L 182.0 116.0 L 183.0 111.0 L 184.0 109.0 L 184.0 109.0 L 184.0 114.0 L 184.0 122.0 L 183.0 133.0 L 181.0 147.0 L 179.0 162.0 L 178.0 176.0 L 176.0 189.0 L 175.0 201.0 L 175.0 207.0 L 176.0 209.0 L 178.0 209.0 L 180.0 207.0 L 182.0 203.0 L 184.0 196.0 L 186.0 188.0 L 187.0 179.0 L 189.0 168.0 L 190.0 160.0 L 191.0 151.0 L 191.0 142.0 L 192.0 133.0 L 192.0 125.0 L 193.0 117.0 L 193.0 114.0 L 193.0 112.0 L 194.0 112.0 L 194.0 115.0 L 194.0 120.0 L 194.0 128.0 L 194.0 138.0 L 194.0 149.0 L 193.0 161.0 L 193.0 171.0 L 192.0 182.0 L 191.0 193.0 L 191.0 199.0 L 191.0 201.0 L 191.0 201.0 L 191.0 200.0 L 192.0 196.0 L 193.0 190.0 L 194.0 182.0 L 195.0 173.0 L 196.0 164.0 L 197.0 156.0 L 198.0 147.0 L 200.0 137.0 L 201.0 129.0 L 202.0 123.0 L 202.0 120.0 L 202.0 120.0 L 202.0 122.0 L 201.0 128.0 L 200.0 137.0 L 199.0 147.0 L 198.0 158.0 L 197.0 168.0 L 197.0 179.0 L 197.0 191.0 L 197.0 202.0 L 197.0 211.0 L 197.0 219.0 L 197.0 223.0 L 197.0 225.0 L 197.0 225.0 L 197.0 223.0 L 197.0 217.0 L 198.0 208.0 L 198.0 199.0 L 199.0 189.0 L 199.0 178.0 L 199.0 169.0 L 199.0 161.0 L 198.0 153.0 L 196.0 149.0 L 194.0 146.0 L 192.0 145.0 L 191.0 146.0 L 189.0 148.0 L 188.0 152.0 L 187.0 157.0 L 186.0 163.0 L 185.0 169.0 L 184.0 176.0 L 183.0 183.0 L 181.0 191.0 L 179.0 197.0 L 176.0 202.0 L 173.0 206.0 L 170.0 208.0 L 167.0 209.0 L 164.0 209.0 L 161.0 209.0 L 158.0 208.0 L 156.0 206.0 L 153.0 204.0 L 151.0 202.0 L 148.0 201.0 L 145.0 199.0 L 142.0 199.0 L 138.0 199.0 L 135.0 200.0 L 133.0 202.0 L 131.0 206.0 L 130.0 209.0 L 130.0 213.0 L 131.0 217.0 L 133.0 220.0 L 136.0 222.0 L 140.0 223.0 L 144.0 224.0 L 148.0 224.0 L 151.0 224.0 L 153.0 223.0 L 154.0 222.0 L 155.0 221.0 L 155.0 220.0 L 153.0 220.0 L 149.0 219.0 L 144.0 219.0 L 139.0 219.0 L 132.0 220.0 L 125.0 220.0 L 117.0 220.0 L 110.0 219.0 L 105.0 218.0 L 101.0 217.0 L 98.0 216.0 L 95.0 216.0 L 93.0 216.0 L 91.0 218.0 L 91.0 220.0 L 91.0 223.0 L 94.0 225.0 L 98.0 228.0 L 102.0 230.0 L 107.0 232.0 L 113.0 233.0 L 119.0 233.0 L 127.0 233.0 L 135.0 231.0 L 142.0 229.0 L 146.0 227.0 L 148.0 226.0 L 148.0 226.0 L 145.0 226.0 L 140.0 226.0 L 133.0 227.0 L 125.0 228.0 L 118.0 230.0 L 111.0 231.0 L 105.0 232.0 L 100.0 232.0 L 95.0 232.0 L 90.0 232.0 L 87.0 232.0 L 85.0 232.0 L 84.0 233.0 L 85.0 235.0 L 88.0 237.0 L 94.0 239.0 L 99.0 240.0 L 105.0 241.0 L 112.0 241.0 L 119.0 241.0 L 126.0 238.0 L 135.0 234.0 L 140.0 230.0 L 143.0 226.0 L 144.0 224.0 L 143.0 223.0 L 139.0 223.0 L 133.0 223.0 L 126.0 224.0 L 119.0 226.0 L 113.0 228.0 L 107.0 229.0 L 102.0 231.0 L 97.0 233.0 L 94.0 234.0 L 91.0 236.0 L 90.0 237.0 L 90.0 237.0 L 91.0 238.0 L 95.0 238.0 L 98.0 239.0 L 103.0 239.0 L 107.0 239.0 L 112.0 239.0 L 117.0 239.0 L 124.0 238.0 L 131.0 237.0 L 139.0 235.0 L 146.0 232.0 L 151.0 230.0 L 155.0 227.0 L 157.0 225.0 L 158.0 224.0 L 158.0 224.0 L 158.0 224.0 L 156.0 224.0 L 154.0 225.0 L 152.0 226.0 L 150.0 228.0 L 147.0 229.0 L 145.0 231.0 L 142.0 232.0 L 140.0 233.0 L 138.0 234.0 L 137.0 235.0 L 137.0 235.0 L 137.0 236.0 L 139.0 236.0 L 143.0 237.0 L 147.0 238.0 L 152.0 238.0 L 157.0 239.0 L 164.0 239.0 L 171.0 238.0 L 179.0 236.0 L 185.0 233.0 L 189.0 230.0 L 191.0 227.0 L 192.0 224.0 L 192.0 223.0 L 190.0 222.0 L 188.0 222.0 L 186.0 221.0 L 183.0 221.0 L 180.0 221.0 L 176.0 221.0 L 173.0 221.0 L 169.0 221.0 L 166.0 221.0 L 164.0 222.0 L 163.0 223.0 L 163.0 224.0 L 163.0 226.0 L 166.0 227.0 L 169.0 229.0 L 173.0 231.0 L 178.0 232.0 L 182.0 233.0 L 187.0 233.0 L 192.0 232.0 L 195.0 230.0 L 198.0 227.0 L 200.0 223.0 L 200.0 220.0 L 200.0 217.0 L 199.0 214.0 L 197.0 213.0 L 193.0 212.0 L 189.0 212.0 L 185.0 212.0 L 180.0 213.0 L 174.0 214.0 L 170.0 215.0 L 167.0 217.0 L 166.0 220.0 L 165.0 222.0 L 166.0 225.0 L 169.0 228.0 L 172.0 229.0 L 177.0 230.0 L 182.0 231.0 L 186.0 231.0 L 189.0 230.0 L 192.0 228.0 L 193.0 227.0 L 194.0 225.0 L 194.0 224.0 L 193.0 224.0 L 190.0 223.0 L 188.0 223.0 L 184.0 223.0 L 181.0 223.0 L 177.0 224.0 L 173.0 224.0 L 168.0 225.0 L 163.0 227.0 L 159.0 228.0 L 155.0 230.0 L 152.0 231.0 L 150.0 233.0 L 150.0 234.0 L 149.0 235.0 L 149.0 236.0 L 150.0 236.0 L 151.0 236.0 L 152.0 236.0 L 153.0 236.0 L 154.0 236.0 L 157.0 236.0 L 159.0 236.0 L 163.0 236.0 L 167.0 236.0 L 171.0 236.0 L 176.0 235.0 L 180.0 235.0 L 183.0 234.0 L 185.0 234.0 L 186.0 233.0 L 186.0 233.0 L 185.0 233.0 L 183.0 232.0 L 180.0 232.0 L 177.0 231.0 L 173.0 231.0 L 169.0 230.0 L 164.0 228.0 L 160.0 226.0 L 155.0 224.0 L 150.0 221.0 L 145.0 216.0 L 141.0 212.0 L 136.0 207.0 L 132.0 203.0 L 127.0 199.0 L 123.0 196.0 L 119.0 194.0 L 116.0 192.0 L 113.0 190.0 L 111.0 187.0 L 109.0 184.0 L 108.0 178.0 L 108.0 173.0 L 108.0 167.0 L 108.0 161.0 L 108.0 156.0 L 108.0 151.0 L 108.0 146.0 L 106.0 143.0 L 105.0 140.0 L 103.0 138.0 L 101.0 137.0 L 99.0 137.0 L 97.0 136.0 L 95.0 137.0 L 94.0 139.0 L 92.0 142.0 L 91.0 147.0 L 90.0 154.0 L 89.0 162.0 L 88.0 170.0 L 88.0 178.0 L 87.0 187.0 L 87.0 193.0 L 87.0 197.0 L 87.0 200.0 L 87.0 200.0 L 87.0 200.0 L 87.0 197.0 L 87.0 194.0 L 87.0 189.0 L 86.0 181.0 L 86.0 174.0 L 85.0 166.0 L 85.0 158.0 L 83.0 150.0 L 82.0 142.0 L 80.0 133.0 L 78.0 127.0 L 77.0 122.0 L 77.0 118.0 L 76.0 116.0 L 76.0 116.0 L 76.0 116.0 L 76.0 118.0 L 77.0 123.0 L 77.0 130.0 L 77.0 137.0 L 77.0 146.0 L 77.0 156.0 L 76.0 165.0 L 76.0 174.0 L 76.0 184.0 L 75.0 191.0 L 75.0 197.0 L 75.0 200.0 L 76.0 201.0 L 76.0 201.0 L 77.0 199.0 L 77.0 196.0 L 78.0 191.0 L 79.0 184.0 L 80.0 176.0 L 81.0 167.0 L 82.0 158.0 L 82.0 150.0 L 83.0 140.0 L 83.0 131.0 L 83.0 124.0 L 82.0 119.0 L 80.0 116.0 L 79.0 115.0 L 77.0 115.0 L 76.0 118.0 L 75.0 122.0 L 74.0 128.0 L 73.0 136.0 L 73.0 145.0 L 73.0 154.0 L 73.0 164.0 L 73.0 173.0 L 74.0 183.0 L 75.0 193.0 L 76.0 200.0 L 76.0 205.0 L 76.0 209.0 L 77.0 210.0 L 77.0 210.0 L 77.0 210.0 L 77.0 208.0 L 77.0 204.0 L 77.0 199.0 L 77.0 193.0 L 77.0 186.0 L 78.0 176.0 L 78.0 168.0 L 78.0 159.0 L 79.0 150.0 L 79.0 143.0 L 80.0 138.0 L 80.0 135.0 L 80.0 135.0 L 79.0 139.0 L 78.0 145.0 L 78.0 152.0 L 77.0 160.0 L 77.0 168.0 L 77.0 177.0 L 77.0 185.0 L 77.0 195.0 L 77.0 203.0 L 77.0 210.0 L 77.0 217.0 L 78.0 221.0 L 78.0 223.0 L 79.0 225.0 L 79.0 225.0 L 79.0 225.0 L 80.0 224.0 L 80.0 222.0 L 80.0 219.0 L 80.0 215.0 L 80.0 210.0 L 80.0 205.0 L 81.0 199.0 L 81.0 194.0 L 81.0 189.0 L 82.0 184.0 L 82.0 180.0 L 82.0 179.0 L 82.0 179.0 L 82.0 182.0 L 82.0 188.0 L 82.0 194.0 L 81.0 200.0 L 81.0 206.0 L 80.0 213.0 L 80.0 217.0 L 80.0 222.0 L 80.0 225.0 L 80.0 227.0 L 80.0 228.0 L 80.0 228.0 L 80.0 227.0 L 80.0 225.0 L 81.0 222.0 L 82.0 218.0 L 82.0 214.0 L 83.0 210.0 L 83.0 207.0 L 83.0 204.0 L 84.0 201.0 L 84.0 200.0 L 84.0 199.0 L 84.0 200.0 L 84.0 202.0 L 84.0 206.0 L 83.0 210.0 L 83.0 213.0 L 83.0 216.0 L 84.0 218.0 L 85.0 218.0 " stroke="black" fill="none" stroke-width="20.0" stroke-linecap="round" stroke-linejoin="round" />
<path d="M 79.0 107.0 L 79.0 107.0 L 78.0 106.0 L 78.0 105.0 L 77.0 105.0 L 77.0 104.0 L 77.0 104.0 L 77.0 103.0 L 78.0 103.0 L 80.0 103.0 L 84.0 103.0 L 88.0 102.0 L 93.0 102.0 L 99.0 101.0 L 105.0 100.0 L 111.0 99.0 L 118.0 98.0 L 127.0 96.0 L 136.0 95.0 L 145.0 94.0 L 151.0 92.0 L 157.0 91.0 L 161.0 91.0 L 164.0 91.0 L 168.0 91.0 L 170.0 91.0 L 171.0 91.0 L 171.0 92.0 L 171.0 92.0 L 170.0 92.0 L 168.0 93.0 L 166.0 93.0 L 162.0 94.0 L 158.0 94.0 L 154.0 94.0 L 151.0 94.0 L 146.0 94.0 L 142.0 94.0 L 137.0 94.0 L 130.0 93.0 L 122.0 92.0 L 116.0 91.0 L 110.0 91.0 L 107.0 91.0 L 105.0 91.0 L 105.0 91.0 L 106.0 92.0 L 109.0 93.0 L 113.0 94.0 L 119.0 95.0 L 125.0 96.0 L 134.0 97.0 L 142.0 98.0 L 149.0 99.0 L 157.0 99.0 L 163.0 99.0 L 170.0 99.0 L 176.0 98.0 L 180.0 98.0 L 182.0 98.0 L 182.0 98.0 L 181.0 98.0 L 178.0 100.0 L 173.0 101.0 L 167.0 103.0 L 160.0 105.0 L 153.0 107.0 L 148.0 108.0 L 142.0 109.0 L 134.0 109.0 L 127.0 110.0 L 120.0 110.0 L 115.0 110.0 L 111.0 110.0 L 110.0 110.0 L 110.0 111.0 L 110.0 111.0 L 112.0 112.0 L 116.0 112.0 L 122.0 112.0 L 129.0 112.0 L 137.0 112.0 L 144.0 110.0 L 151.0 108.0 L 157.0 105.0 L 162.0 102.0 L 166.0 99.0 L 169.0 97.0 L 169.0 95.0 L 167.0 95.0 L 163.0 94.0 L 157.0 94.0 L 151.0 96.0 L 145.0 98.0 L 138.0 99.0 L 130.0 101.0 L 121.0 103.0 L 114.0 104.0 L 108.0 106.0 L 105.0 107.0 L 104.0 108.0 L 104.0 109.0 L 107.0 110.0 L 111.0 111.0 L 116.0 113.0 L 124.0 114.0 L 132.0 115.0 L 142.0 116.0 L 152.0 117.0 L 161.0 117.0 L 171.0 116.0 L 181.0 114.0 L 188.0 112.0 L 192.0 110.0 L 194.0 108.0 L 194.0 107.0 L 193.0 106.0 L 192.0 106.0 L 190.0 105.0 L 187.0 104.0 L 184.0 103.0 L 180.0 103.0 L 176.0 102.0 L 170.0 102.0 L 165.0 101.0 L 160.0 101.0 L 157.0 101.0 L 155.0 101.0 L 154.0 101.0 L 154.0 102.0 L 156.0 104.0 L 159.0 105.0 L 164.0 106.0 L 169.0 107.0 L 175.0 107.0 L 181.0 107.0 L 186.0 105.0 L 191.0 103.0 L 196.0 100.0 L 199.0 97.0 L 200.0 95.0 L 201.0 93.0 L 201.0 93.0 L 199.0 92.0 L 197.0 92.0 L 195.0 92.0 L 192.0 92.0 L 188.0 92.0 L 185.0 92.0 L 181.0 93.0 L 177.0 93.0 L 174.0 93.0 L 171.0 93.0 L 169.0 93.0 L 168.0 93.0 L 168.0 93.0 L 169.0 93.0 L 172.0 94.0 L 176.0 94.0 L 181.0 94.0 L 185.0 94.0 L 189.0 93.0 L 192.0 92.0 L 194.0 91.0 L 196.0 90.0 L 196.0 89.0 L 196.0 88.0 L 193.0 87.0 L 190.0 87.0 L 186.0 87.0 L 181.0 87.0 L 176.0 87.0 L 170.0 87.0 L 164.0 88.0 L 159.0 89.0 L 154.0 89.0 L 151.0 89.0 L 148.0 90.0 L 146.0 90.0 L 145.0 90.0 L 144.0 89.0 L 144.0 89.0 L 144.0 89.0 L 144.0 89.0 L 144.0 89.0 L 144.0 89.0 L 144.0 89.0 L 144.0 89.0 L 144.0 89.0 L 144.0 89.0 L 144.0 89.0 L 144.0 89.0 L 144.0 89.0 L 143.0 89.0 L 143.0 89.0 L 142.0 89.0 L 141.0 89.0 L 141.0 88.0 L 140.0 88.0 L 139.0 88.0 L 138.0 88.0 L 137.0 88.0 L 136.0 88.0 L 135.0 88.0 L 133.0 88.0 L 132.0 88.0 L 130.0 88.0 L 128.0 88.0 L 126.0 88.0 L 124.0 89.0 L 122.0 89.0 L 120.0 89.0 L 118.0 89.0 L 116.0 90.0 L 114.0 90.0 L 112.0 90.0 L 109.0 90.0 L 107.0 90.0 L 106.0 90.0 L 104.0 90.0 L 102.0 90.0 L 100.0 90.0 L 98.0 90.0 L 97.0 90.0 L 95.0 90.0 L 94.0 90.0 L 94.0 90.0 L 94.0 90.0 L 94.0 90.0 L 96.0 90.0 L 99.0 89.0 L 103.0 88.0 L 108.0 87.0 L 113.0 87.0 L 120.0 86.0 L 128.0 85.0 L 136.0 83.0 L 144.0 82.0 L 149.0 81.0 L 151.0 80.0 L 152.0 80.0 L 152.0 80.0 L 150.0 80.0 L 148.0 80.0 L 145.0 81.0 L 141.0 81.0 L 136.0 82.0 L 131.0 83.0 L 126.0 84.0 L 121.0 84.0 L 115.0 85.0 L 110.0 85.0 L 105.0 85.0 L 102.0 85.0 L 99.0 85.0 L 96.0 86.0 L 95.0 87.0 L 94.0 87.0 L 94.0 88.0 L 94.0 88.0 L 96.0 89.0 L 97.0 89.0 L 99.0 90.0 L 101.0 90.0 L 103.0 90.0 L 105.0 90.0 L 106.0 90.0 L 107.0 90.0 L 108.0 90.0 L 108.0 90.0 L 108.0 89.0 L 108.0 89.0 L 107.0 89.0 L 105.0 89.0 L 103.0 89.0 L 100.0 89.0 L 96.0 89.0 L 92.0 89.0 L 88.0 90.0 L 85.0 90.0 L 82.0 90.0 L 80.0 90.0 L 78.0 90.0 L 78.0 90.0 L 78.0 90.0 L 78.0 90.0 L 78.0 90.0 L 78.0 90.0 L 78.0 90.0 L 78.0 90.0 L 79.0 90.0 L 79.0 90.0 L 79.0 90.0 L 79.0 90.0 L 80.0 90.0 L 80.0 90.0 L 80.0 90.0 L 80.0 90.0 L 80.0 89.0 L 80.0 89.0 L 80.0 89.0 L 80.0 89.0 L 80.0 89.0 L 80.0 89.0 L 80.0 89.0 L 80.0 89.0 L 80.0 89.0 L 80.0 89.0 L 79.0 88.0 L 79.0 88.0 L 79.0 88.0 L 78.0 88.0 L 78.0 88.0 L 78.0 88.0 L 78.0 88.0 L 78.0 88.0 L 78.0 88.0 L 78.0 88.0 L 78.0 87.0 L 78.0 87.0 L 78.0 87.0 L 79.0 87.0 L 80.0 86.0 L 82.0 86.0 L 83.0 85.0 L 85.0 85.0 L 88.0 85.0 L 90.0 84.0 L 93.0 84.0 L 95.0 84.0 L 97.0 83.0 L 99.0 83.0 L 101.0 83.0 L 102.0 82.0 L 104.0 82.0 L 105.0 82.0 L 106.0 82.0 L 106.0 82.0 L 107.0 82.0 L 108.0 81.0 L 109.0 81.0 L 109.0 81.0 L 110.0 81.0 L 111.0 81.0 L 112.0 80.0 L 113.0 80.0 L 114.0 80.0 L 115.0 80.0 L 116.0 80.0 L 118.0 79.0 L 119.0 79.0 L 121.0 79.0 L 122.0 79.0 L 124.0 79.0 L 126.0 79.0 L 127.0 79.0 L 129.0 79.0 L 131.0 79.0 L 133.0 79.0 L 135.0 79.0 L 137.0 79.0 L 139.0 79.0 L 140.0 79.0 L 142.0 78.0 L 143.0 78.0 L 145.0 78.0 L 146.0 78.0 L 147.0 78.0 L 148.0 77.0 L 149.0 77.0 L 150.0 77.0 L 151.0 77.0 L 152.0 77.0 L 152.0 77.0 L 153.0 77.0 L 153.0 77.0 L 154.0 77.0 L 155.0 77.0 L 156.0 77.0 L 157.0 77.0 L 158.0 77.0 L 160.0 77.0 L 161.0 77.0 L 162.0 77.0 L 164.0 77.0 L 166.0 77.0 L 167.0 77.0 L 169.0 77.0 L 170.0 78.0 L 172.0 78.0 L 173.0 78.0 L 174.0 78.0 L 175.0 78.0 L 177.0 78.0 L 178.0 79.0 L 179.0 79.0 L 181.0 79.0 L 182.0 79.0 L 183.0 79.0 L 184.0 79.0 L 185.0 79.0 L 185.0 79.0 L 186.0 79.0 L 187.0 79.0 L 188.0 79.0 L 189.0 79.0 L 189.0 79.0 L 190.0 79.0 L 190.0 79.0 L 191.0 79.0 L 192.0 79.0 L 192.0 79.0 L 193.0 79.0 L 193.0 79.0 L 194.0 79.0 L 194.0 78.0 L 194.0 78.0 L 194.0 78.0 L 195.0 78.0 L 195.0 78.0 L 195.0 78.0 L 195.0 78.0 L 195.0 78.0 L 195.0 78.0 L 195.0 78.0 L 195.0 78.0 L 195.0 78.0 L 195.0 78.0 L 194.0 77.0 L 194.0 77.0 L 193.0 77.0 L 192.0 77.0 L 191.0 77.0 L 190.0 77.0 L 189.0 77.0 L 188.0 77.0 L 187.0 77.0 L 186.0 77.0 L 184.0 77.0 L 183.0 77.0 L 181.0 77.0 L 179.0 77.0 L 178.0 76.0 L 176.0 76.0 L 175.0 76.0 L 173.0 76.0 L 172.0 76.0 L 171.0 76.0 L 169.0 76.0 L 168.0 76.0 L 167.0 76.0 L 166.0 76.0 L 165.0 76.0 L 164.0 76.0 L 163.0 76.0 L 162.0 77.0 L 161.0 77.0 L 160.0 77.0 L 159.0 77.0 L 158.0 77.0 L 157.0 77.0 L 156.0 77.0 L 155.0 77.0 L 154.0 78.0 L 154.0 78.0 L 153.0 78.0 L 152.0 78.0 L 152.0 78.0 L 151.0 78.0 L 151.0 78.0 L 150.0 78.0 L 150.0 78.0 L 150.0 78.0 L 149.0 78.0 L 149.0 78.0 L 148.0 78.0 L 148.0 78.0 L 147.0 78.0 L 147.0 78.0 L 146.0 78.0 L 146.0 78.0 L 145.0 78.0 L 144.0 78.0 L 144.0 78.0 L 143.0 78.0 L 142.0 78.0 L 141.0 78.0 L 140.0 78.0 L 139.0 78.0 L 139.0 78.0 L 138.0 78.0 L 137.0 78.0 L 136.0 78.0 L 135.0 78.0 L 134.0 78.0 L 133.0 78.0 L 132.0 78.0 L 132.0 78.0 L 131.0 78.0 L 130.0 79.0 L 129.0 79.0 L 128.0 79.0 L 128.0 79.0 L 127.0 79.0 L 127.0 79.0 L 126.0 79.0 L 126.0 79.0 L 126.0 79.0 L 126.0 79.0 L 126.0 79.0 " stroke="black" fill="none" stroke-width="20.0" stroke-linecap="round" stroke-linejoin="round" />
<path d="M 67.0 156.0 L 67.0 156.0 L 67.0 156.0 L 67.0 156.0 L 66.0 157.0 L 66.0 159.0 L 66.0 161.0 L 66.0 165.0 L 66.0 171.0 L 66.0 178.0 L 67.0 186.0 L 67.0 195.0 L 67.0 203.0 L 66.0 210.0 L 66.0 216.0 L 65.0 222.0 L 64.0 227.0 L 64.0 230.0 L 64.0 233.0 L 64.0 233.0 L 64.0 233.0 L 64.0 232.0 L 64.0 229.0 L 64.0 224.0 L 65.0 218.0 L 66.0 213.0 L 67.0 208.0 L 67.0 202.0 L 68.0 198.0 L 68.0 194.0 L 69.0 190.0 L 69.0 188.0 L 69.0 187.0 L 69.0 186.0 L 69.0 186.0 L 69.0 187.0 L 69.0 188.0 L 69.0 191.0 L 69.0 194.0 L 69.0 197.0 L 69.0 200.0 L 69.0 204.0 L 69.0 207.0 L 68.0 210.0 L 68.0 214.0 L 68.0 217.0 L 68.0 221.0 L 67.0 224.0 L 67.0 227.0 L 66.0 229.0 L 66.0 231.0 L 66.0 231.0 L 66.0 231.0 L 66.0 231.0 L 66.0 229.0 L 66.0 225.0 L 66.0 221.0 L 66.0 216.0 L 67.0 211.0 L 67.0 207.0 L 68.0 203.0 L 69.0 200.0 L 69.0 197.0 L 69.0 196.0 L 70.0 196.0 L 70.0 197.0 L 70.0 200.0 L 70.0 204.0 L 69.0 208.0 L 69.0 213.0 L 69.0 218.0 L 69.0 223.0 L 68.0 229.0 L 68.0 234.0 L 68.0 237.0 L 68.0 240.0 L 68.0 241.0 L 68.0 241.0 L 68.0 241.0 L 68.0 240.0 L 68.0 239.0 L 68.0 237.0 L 68.0 235.0 L 68.0 233.0 L 68.0 231.0 L 68.0 229.0 L 68.0 227.0 L 68.0 226.0 L 68.0 225.0 L 68.0 224.0 L 69.0 223.0 L 69.0 223.0 L 69.0 223.0 L 69.0 225.0 L 69.0 226.0 L 69.0 229.0 L 69.0 231.0 L 69.0 233.0 L 69.0 234.0 L 69.0 236.0 L 69.0 238.0 L 69.0 239.0 L 69.0 240.0 L 68.0 241.0 L 68.0 242.0 L 68.0 242.0 L 68.0 243.0 L 68.0 244.0 L 68.0 244.0 L 67.0 244.0 L 67.0 245.0 L 67.0 245.0 L 67.0 245.0 L 67.0 245.0 L 67.0 245.0 L 67.0 245.0 L 67.0 244.0 L 67.0 244.0 L 67.0 244.0 L 67.0 243.0 L 67.0 243.0 L 67.0 243.0 L 67.0 243.0 L 67.0 243.0 L 67.0 243.0 L 67.0 244.0 L 67.0 244.0 L 68.0 244.0 L 68.0 245.0 L 68.0 245.0 L 68.0 245.0 L 69.0 245.0 L 69.0 246.0 L 69.0 246.0 L 69.0 246.0 L 70.0 247.0 L 70.0 247.0 L 71.0 247.0 L 71.0 247.0 L 71.0 248.0 L 72.0 248.0 L 73.0 248.0 L 73.0 248.0 L 74.0 248.0 L 74.0 248.0 L 75.0 248.0 L 76.0 248.0 L 77.0 248.0 L 78.0 248.0 L 80.0 248.0 L 81.0 248.0 L 83.0 248.0 L 84.0 248.0 L 86.0 248.0 L 87.0 248.0 L 89.0 248.0 L 90.0 248.0 L 91.0 247.0 L 92.0 247.0 L 93.0 247.0 L 94.0 247.0 L 95.0 247.0 L 96.0 247.0 L 96.0 247.0 L 97.0 247.0 L 98.0 247.0 L 99.0 247.0 L 100.0 247.0 L 100.0 247.0 L 101.0 247.0 L 101.0 247.0 L 102.0 247.0 L 103.0 247.0 L 103.0 247.0 L 103.0 247.0 L 104.0 247.0 L 104.0 247.0 L 105.0 247.0 L 105.0 247.0 L 106.0 247.0 L 106.0 247.0 L 107.0 247.0 L 107.0 247.0 L 108.0 247.0 L 109.0 247.0 L 109.0 247.0 L 110.0 247.0 L 110.0 247.0 L 111.0 247.0 L 112.0 247.0 L 112.0 247.0 L 113.0 247.0 L 114.0 247.0 L 115.0 247.0 L 115.0 247.0 L 116.0 247.0 L 117.0 247.0 L 118.0 246.0 L 119.0 246.0 L 120.0 246.0 L 121.0 246.0 L 121.0 246.0 L 122.0 246.0 L 123.0 246.0 L 123.0 246.0 L 124.0 246.0 L 125.0 247.0 L 125.0 247.0 L 126.0 247.0 L 126.0 247.0 L 127.0 247.0 L 127.0 247.0 L 128.0 248.0 L 128.0 248.0 L 129.0 248.0 L 129.0 248.0 L 130.0 248.0 L 130.0 248.0 L 131.0 248.0 L 131.0 248.0 L 132.0 248.0 L 132.0 248.0 L 133.0 248.0 L 134.0 248.0 L 135.0 248.0 L 135.0 248.0 L 136.0 248.0 L 137.0 248.0 L 138.0 248.0 L 138.0 248.0 L 139.0 248.0 L 140.0 248.0 L 140.0 248.0 L 141.0 248.0 L 142.0 248.0 L 142.0 248.0 L 143.0 248.0 L 144.0 248.0 L 144.0 248.0 L 145.0 248.0 L 146.0 248.0 L 146.0 248.0 L 147.0 248.0 L 147.0 248.0 L 148.0 248.0 L 148.0 248.0 L 149.0 248.0 L 149.0 248.0 L 150.0 248.0 L 150.0 248.0 L 150.0 248.0 L 151.0 248.0 L 151.0 248.0 L 152.0 248.0 L 152.0 248.0 L 152.0 248.0 L 153.0 248.0 L 153.0 248.0 L 153.0 248.0 L 154.0 248.0 L 154.0 249.0 L 155.0 249.0 L 155.0 249.0 L 155.0 249.0 L 156.0 249.0 L 157.0 249.0 L 157.0 249.0 L 158.0 249.0 L 158.0 249.0 L 159.0 249.0 L 159.0 249.0 L 160.0 250.0 L 160.0 250.0 L 161.0 250.0 L 162.0 250.0 L 162.0 250.0 L 163.0 250.0 L 164.0 250.0 L 165.0 250.0 L 165.0 250.0 L 166.0 250.0 L 167.0 250.0 L 168.0 250.0 L 169.0 250.0 L 170.0 250.0 L 171.0 250.0 L 172.0 250.0 L 173.0 250.0 L 173.0 250.0 L 174.0 250.0 L 175.0 250.0 L 176.0 250.0 L 177.0 250.0 L 177.0 250.0 L 178.0 250.0 L 179.0 250.0 L 180.0 250.0 L 180.0 250.0 L 181.0 250.0 L 182.0 250.0 L 182.0 250.0 L 183.0 250.0 L 184.0 250.0 L 184.0 250.0 L 185.0 250.0 L 185.0 250.0 L 186.0 250.0 L 186.0 250.0 L 186.0 250.0 L 187.0 250.0 L 187.0 250.0 L 188.0 250.0 L 188.0 250.0 L 188.0 250.0 L 189.0 250.0 L 189.0 250.0 L 189.0 250.0 L 189.0 250.0 L 189.0 250.0 L 190.0 249.0 L 190.0 249.0 L 190.0 249.0 L 190.0 249.0 L 190.0 249.0 L 191.0 249.0 L 191.0 249.0 L 191.0 249.0 L 191.0 249.0 L 191.0 249.0 L 192.0 249.0 L 192.0 249.0 L 192.0 249.0 L 192.0 249.0 L 193.0 249.0 L 193.0 249.0 L 193.0 248.0 L 193.0 248.0 L 193.0 248.0 L 194.0 248.0 L 194.0 248.0 L 194.0 248.0 L 194.0 248.0 L 194.0 248.0 L 194.0 248.0 L 195.0 248.0 L 195.0 248.0 L 195.0 248.0 L 195.0 248.0 L 195.0 248.0 L 196.0 248.0 L 196.0 248.0 L 196.0 248.0 L 196.0 248.0 L 196.0 248.0 L 196.0 248.0 L 196.0 248.0 L 196.0 248.0 L 197.0 247.0 L 197.0 247.0 L 197.0 247.0 L 197.0 247.0 L 197.0 247.0 L 197.0 247.0 L 197.0 247.0 L 197.0 247.0 L 198.0 247.0 L 198.0 247.0 L 198.0 247.0 L 198.0 247.0 L 198.0 247.0 L 198.0 247.0 L 198.0 247.0 L 198.0 247.0 L 199.0 247.0 L 199.0 247.0 L 199.0 247.0 L 199.0 247.0 L 199.0 247.0 L 200.0 247.0 L 200.0 247.0 L 200.0 247.0 L 200.0 247.0 L 200.0 247.0 L 200.0 247.0 L 201.0 247.0 L 201.0 247.0 L 201.0 247.0 L 201.0 247.0 L 201.0 247.0 L 201.0 247.0 L 202.0 247.0 L 202.0 247.0 L 202.0 247.0 L 202.0 247.0 L 202.0 246.0 L 202.0 246.0 L 202.0 245.0 L 202.0 245.0 L 202.0 244.0 L 202.0 243.0 L 202.0 242.0 L 202.0 241.0 L 202.0 241.0 L 202.0 240.0 L 202.0 239.0 L 202.0 238.0 L 203.0 237.0 L 203.0 236.0 L 203.0 235.0 L 203.0 234.0 L 203.0 233.0 L 203.0 232.0 L 203.0 232.0 L 203.0 231.0 L 204.0 230.0 L 204.0 229.0 L 204.0 228.0 L 204.0 227.0 L 204.0 227.0 L 204.0 226.0 L 204.0 225.0 L 204.0 224.0 L 204.0 223.0 L 205.0 222.0 L 205.0 221.0 L 205.0 220.0 L 205.0 219.0 L 205.0 218.0 L 205.0 217.0 L 205.0 216.0 L 205.0 214.0 L 205.0 213.0 L 205.0 211.0 L 205.0 210.0 L 205.0 209.0 L 205.0 207.0 L 205.0 206.0 L 205.0 205.0 L 205.0 204.0 L 205.0 202.0 L 205.0 201.0 L 205.0 200.0 L 205.0 198.0 L 205.0 197.0 L 205.0 196.0 L 205.0 195.0 L 205.0 193.0 L 205.0 192.0 L 205.0 191.0 L 206.0 190.0 L 206.0 189.0 L 206.0 188.0 L 206.0 187.0 L 206.0 185.0 L 206.0 184.0 L 206.0 182.0 L 206.0 181.0 L 206.0 179.0 L 206.0 177.0 L 206.0 176.0 L 206.0 174.0 L 206.0 173.0 L 206.0 172.0 L 207.0 170.0 L 207.0 169.0 L 207.0 167.0 L 207.0 166.0 L 207.0 164.0 L 207.0 163.0 L 208.0 161.0 L 208.0 160.0 L 208.0 158.0 L 208.0 157.0 L 208.0 155.0 L 208.0 154.0 L 208.0 152.0 L 208.0 151.0 L 208.0 149.0 L 208.0 148.0 L 209.0 147.0 L 209.0 146.0 L 209.0 145.0 L 209.0 144.0 L 209.0 143.0 L 209.0 142.0 L 209.0 142.0 L 209.0 141.0 L 209.0 140.0 L 209.0 139.0 L 209.0 138.0 L 209.0 136.0 L 209.0 135.0 L 210.0 133.0 L 210.0 132.0 L 210.0 131.0 L 210.0 130.0 L 210.0 129.0 L 211.0 128.0 L 211.0 127.0 L 211.0 126.0 L 211.0 125.0 L 211.0 124.0 L 211.0 123.0 L 211.0 122.0 L 211.0 121.0 L 211.0 120.0 L 211.0 120.0 L 211.0 118.0 L 211.0 118.0 L 211.0 117.0 L 211.0 116.0 L 211.0 115.0 L 211.0 114.0 L 212.0 113.0 L 212.0 113.0 L 212.0 112.0 L 212.0 111.0 L 212.0 110.0 L 212.0 109.0 L 212.0 109.0 L 212.0 108.0 L 212.0 107.0 L 212.0 106.0 L 213.0 106.0 L 213.0 105.0 L 213.0 104.0 L 213.0 103.0 L 213.0 102.0 L 213.0 102.0 L 213.0 101.0 L 213.0 100.0 L 213.0 99.0 L 213.0 98.0 L 213.0 96.0 L 213.0 95.0 L 213.0 94.0 L 213.0 93.0 L 213.0 92.0 L 213.0 92.0 L 213.0 91.0 L 213.0 90.0 L 213.0 89.0 L 213.0 89.0 L 212.0 88.0 L 212.0 87.0 L 212.0 87.0 L 212.0 86.0 L 211.0 85.0 L 211.0 85.0 L 211.0 85.0 L 211.0 84.0 L 210.0 84.0 L 210.0 84.0 L 210.0 83.0 L 210.0 83.0 L 210.0 83.0 L 210.0 82.0 L 210.0 82.0 L 210.0 82.0 L 210.0 82.0 L 210.0 82.0 L 210.0 81.0 L 210.0 81.0 L 209.0 81.0 L 209.0 80.0 L 209.0 80.0 L 209.0 79.0 L 209.0 79.0 L 209.0 78.0 L 209.0 78.0 L 209.0 78.0 L 209.0 77.0 L 209.0 77.0 L 209.0 76.0 L 209.0 76.0 L 209.0 76.0 L 209.0 75.0 L 209.0 75.0 L 209.0 75.0 L 209.0 74.0 L 208.0 74.0 L 208.0 74.0 L 208.0 74.0 L 208.0 74.0 L 207.0 74.0 L 207.0 74.0 L 207.0 74.0 L 206.0 73.0 L 206.0 73.0 L 205.0 73.0 L 205.0 73.0 L 205.0 73.0 L 204.0 73.0 L 204.0 73.0 L 203.0 73.0 L 203.0 73.0 L 202.0 72.0 L 202.0 72.0 L 202.0 72.0 L 201.0 72.0 L 201.0 72.0 L 200.0 71.0 L 200.0 71.0 L 199.0 71.0 L 199.0 71.0 L 198.0 71.0 L 198.0 71.0 L 197.0 71.0 L 196.0 71.0 L 196.0 71.0 L 196.0 71.0 L 195.0 71.0 L 195.0 71.0 L 194.0 71.0 L 194.0 71.0 L 193.0 71.0 L 193.0 71.0 L 192.0 71.0 L 192.0 71.0 L 191.0 71.0 L 191.0 71.0 L 190.0 71.0 L 190.0 71.0 L 189.0 71.0 L 189.0 71.0 L 188.0 71.0 L 187.0 71.0 L 187.0 71.0 L 186.0 71.0 L 185.0 71.0 L 185.0 71.0 L 184.0 71.0 L 183.0 71.0 L 182.0 71.0 L 182.0 71.0 L 181.0 71.0 L 180.0 71.0 L 179.0 71.0 L 178.0 71.0 L 177.0 72.0 L 176.0 72.0 L 175.0 72.0 L 174.0 72.0 L 173.0 72.0 L 172.0 72.0 L 171.0 73.0 L 170.0 73.0 L 169.0 73.0 L 168.0 73.0 L 167.0 73.0 L 166.0 73.0 L 165.0 73.0 L 165.0 73.0 L 164.0 73.0 L 163.0 73.0 L 162.0 73.0 L 162.0 73.0 L 161.0 73.0 L 160.0 73.0 L 159.0 73.0 L 158.0 73.0 L 158.0 73.0 L 157.0 73.0 L 156.0 73.0 L 156.0 73.0 L 155.0 74.0 L 154.0 74.0 L 154.0 74.0 L 153.0 74.0 L 153.0 74.0 L 152.0 74.0 L 152.0 74.0 L 152.0 74.0 L 151.0 74.0 L 150.0 74.0 L 150.0 74.0 L 150.0 74.0 L 149.0 74.0 L 148.0 74.0 L 148.0 74.0 L 148.0 74.0 L 147.0 74.0 L 147.0 74.0 L 147.0 74.0 L 146.0 74.0 L 146.0 74.0 L 145.0 74.0 L 145.0 74.0 L 144.0 74.0 L 144.0 74.0 L 143.0 74.0 L 143.0 74.0 L 142.0 74.0 L 142.0 74.0 L 141.0 74.0 L 140.0 74.0 L 139.0 74.0 L 139.0 74.0 L 138.0 74.0 L 137.0 74.0 L 135.0 75.0 L 134.0 75.0 L 133.0 75.0 L 132.0 75.0 L 131.0 76.0 L 130.0 76.0 L 128.0 76.0 L 127.0 76.0 L 126.0 77.0 L 125.0 77.0 L 124.0 77.0 L 123.0 77.0 L 121.0 78.0 L 120.0 78.0 L 119.0 78.0 L 117.0 79.0 L 116.0 79.0 L 114.0 79.0 L 113.0 79.0 L 112.0 80.0 L 111.0 80.0 L 110.0 80.0 L 109.0 80.0 L 108.0 80.0 L 107.0 80.0 L 106.0 81.0 L 105.0 81.0 L 105.0 82.0 L 104.0 82.0 L 103.0 82.0 L 103.0 83.0 L 102.0 83.0 L 102.0 83.0 L 101.0 83.0 L 100.0 84.0 L 100.0 84.0 L 99.0 84.0 L 98.0 84.0 L 97.0 84.0 L 96.0 85.0 L 95.0 85.0 L 94.0 85.0 L 93.0 85.0 L 92.0 85.0 L 91.0 86.0 L 90.0 86.0 L 89.0 86.0 L 88.0 86.0 L 87.0 86.0 L 86.0 86.0 L 85.0 87.0 L 83.0 87.0 L 82.0 87.0 L 81.0 87.0 L 80.0 87.0 L 79.0 87.0 L 78.0 87.0 L 77.0 87.0 L 76.0 87.0 L 75.0 87.0 L 74.0 87.0 L 74.0 87.0 L 73.0 87.0 L 73.0 87.0 L 72.0 87.0 L 72.0 87.0 L 71.0 87.0 L 71.0 87.0 L 71.0 86.0 L 70.0 86.0 L 70.0 86.0 L 70.0 86.0 L 70.0 86.0 L 70.0 86.0 L 69.0 85.0 L 69.0 85.0 L 69.0 85.0 L 69.0 85.0 L 69.0 85.0 L 69.0 85.0 L 69.0 85.0 L 69.0 85.0 L 69.0 86.0 L 69.0 87.0 L 69.0 89.0 L 70.0 91.0 L 70.0 93.0 L 71.0 95.0 L 71.0 97.0 L 71.0 100.0 L 71.0 102.0 L 71.0 104.0 L 71.0 107.0 L 71.0 109.0 L 71.0 110.0 L 71.0 112.0 L 71.0 113.0 L 71.0 115.0 L 71.0 116.0 L 71.0 118.0 L 71.0 119.0 L 71.0 120.0 L 71.0 121.0 L 71.0 123.0 L 70.0 124.0 L 70.0 125.0 L 70.0 127.0 L 70.0 128.0 L 70.0 130.0 L 70.0 131.0 L 70.0 133.0 L 70.0 135.0 L 70.0 137.0 L 69.0 139.0 L 69.0 141.0 L 69.0 143.0 L 69.0 144.0 L 69.0 145.0 L 69.0 145.0 L 69.0 145.0 L 69.0 145.0 L 69.0 143.0 L 69.0 141.0 L 69.0 139.0 L 69.0 137.0 L 69.0 134.0 L 69.0 132.0 L 69.0 130.0 L 69.0 128.0 L 69.0 126.0 L 69.0 124.0 L 69.0 121.0 L 69.0 120.0 L 69.0 118.0 L 69.0 116.0 L 69.0 114.0 L 69.0 113.0 L 69.0 111.0 L 69.0 110.0 L 69.0 108.0 L 69.0 107.0 L 69.0 106.0 L 69.0 104.0 L 68.0 103.0 L 68.0 102.0 L 68.0 101.0 L 68.0 99.0 L 68.0 99.0 L 68.0 98.0 L 68.0 97.0 L 68.0 96.0 L 68.0 96.0 L 68.0 95.0 L 68.0 94.0 L 68.0 93.0 L 68.0 92.0 L 68.0 91.0 L 68.0 90.0 L 68.0 89.0 L 68.0 88.0 L 68.0 88.0 L 68.0 87.0 L 68.0 87.0 L 68.0 86.0 L 68.0 86.0 L 68.0 86.0 L 68.0 85.0 L 68.0 85.0 L 68.0 85.0 L 67.0 84.0 L 67.0 84.0 L 67.0 84.0 L 67.0 84.0 L 67.0 83.0 L 67.0 83.0 L 67.0 83.0 L 67.0 82.0 L 67.0 82.0 L 67.0 82.0 L 67.0 82.0 L 67.0 82.0 L 67.0 82.0 L 67.0 82.0 L 67.0 82.0 L 67.0 81.0 L 67.0 81.0 L 67.0 81.0 L 67.0 81.0 L 67.0 80.0 L 67.0 80.0 L 66.0 80.0 L 66.0 80.0 L 66.0 80.0 L 66.0 80.0 L 66.0 79.0 L 66.0 79.0 L 66.0 79.0 L 66.0 78.0 L 66.0 78.0 L 66.0 78.0 L 66.0 78.0 L 66.0 77.0 L 66.0 77.0 L 66.0 77.0 L 66.0 77.0 L 66.0 77.0 L 66.0 76.0 L 66.0 76.0 L 66.0 76.0 L 66.0 76.0 L 66.0 76.0 " stroke="black" fill="none" stroke-width="20.0" stroke-linecap="round" stroke-linejoin="round" />
<path d="M 62.0 110.0 L 62.0 110.0 L 62.0 111.0 L 62.0 111.0 L 62.0 112.0 L 62.0 113.0 L 62.0 115.0 L 62.0 117.0 L 62.0 121.0 L 62.0 125.0 L 62.0 130.0 L 62.0 135.0 L 62.0 141.0 L 62.0 146.0 L 62.0 150.0 L 62.0 152.0 L 63.0 154.0 L 63.0 154.0 L 63.0 152.0 L 64.0 149.0 L 64.0 145.0 L 65.0 140.0 L 65.0 134.0 L 65.0 129.0 L 65.0 125.0 L 65.0 120.0 L 65.0 116.0 L 65.0 113.0 L 65.0 109.0 L 65.0 105.0 L 64.0 102.0 L 63.0 99.0 L 63.0 96.0 L 62.0 94.0 L 62.0 93.0 L 62.0 93.0 L 62.0 93.0 L 62.0 94.0 L 62.0 96.0 L 62.0 99.0 L 62.0 102.0 L 62.0 106.0 L 61.0 110.0 L 61.0 115.0 L 61.0 119.0 L 60.0 123.0 L 60.0 128.0 L 59.0 132.0 L 59.0 136.0 L 59.0 139.0 L 59.0 140.0 L 59.0 141.0 L 59.0 141.0 L 59.0 140.0 L 59.0 138.0 L 59.0 134.0 L 60.0 131.0 L 60.0 127.0 L 60.0 122.0 L 61.0 118.0 L 61.0 115.0 L 61.0 110.0 L 61.0 107.0 L 61.0 103.0 L 61.0 100.0 L 61.0 97.0 L 60.0 96.0 L 59.0 95.0 L 59.0 95.0 L 59.0 95.0 L 59.0 98.0 L 59.0 101.0 L 59.0 105.0 L 59.0 110.0 L 59.0 115.0 L 59.0 119.0 L 59.0 124.0 L 59.0 128.0 L 59.0 132.0 L 59.0 136.0 L 59.0 139.0 L 59.0 141.0 L 59.0 142.0 L 58.0 142.0 L 58.0 141.0 L 58.0 139.0 L 58.0 136.0 L 59.0 132.0 L 60.0 128.0 L 60.0 124.0 L 60.0 120.0 L 61.0 116.0 L 61.0 112.0 L 61.0 108.0 L 61.0 104.0 L 61.0 100.0 L 61.0 97.0 L 61.0 95.0 L 61.0 93.0 L 61.0 92.0 L 61.0 92.0 L 60.0 92.0 L 60.0 94.0 L 59.0 96.0 L 59.0 100.0 L 58.0 105.0 L 58.0 110.0 L 58.0 115.0 L 58.0 120.0 L 58.0 125.0 L 58.0 130.0 L 58.0 134.0 L 58.0 138.0 L 58.0 139.0 L 58.0 140.0 L 58.0 140.0 L 58.0 139.0 L 59.0 137.0 L 59.0 134.0 L 59.0 130.0 L 60.0 127.0 L 60.0 123.0 L 60.0 120.0 L 61.0 116.0 L 61.0 112.0 L 61.0 109.0 L 61.0 106.0 L 61.0 102.0 L 61.0 99.0 L 61.0 97.0 L 61.0 95.0 L 61.0 94.0 L 61.0 94.0 L 61.0 94.0 L 60.0 96.0 L 60.0 99.0 L 60.0 103.0 L 59.0 107.0 L 59.0 112.0 L 58.0 117.0 L 58.0 122.0 L 58.0 126.0 L 58.0 131.0 L 58.0 134.0 L 58.0 136.0 L 58.0 136.0 L 58.0 136.0 L 58.0 135.0 L 58.0 133.0 L 58.0 129.0 L 58.0 125.0 L 59.0 121.0 L 59.0 117.0 L 59.0 113.0 L 60.0 108.0 L 60.0 104.0 L 60.0 100.0 L 60.0 96.0 L 60.0 94.0 L 59.0 92.0 L 59.0 91.0 L 58.0 91.0 L 58.0 93.0 L 58.0 96.0 L 58.0 99.0 L 58.0 103.0 L 58.0 107.0 L 58.0 111.0 L 58.0 114.0 L 58.0 118.0 L 58.0 121.0 L 59.0 125.0 L 59.0 129.0 L 59.0 132.0 L 59.0 134.0 L 58.0 136.0 L 58.0 136.0 L 58.0 137.0 L 58.0 136.0 L 58.0 135.0 L 58.0 132.0 L 58.0 129.0 L 58.0 126.0 L 58.0 122.0 L 58.0 118.0 L 59.0 114.0 L 59.0 111.0 L 59.0 107.0 L 59.0 103.0 L 59.0 101.0 L 59.0 98.0 L 59.0 97.0 L 59.0 97.0 L 59.0 97.0 L 58.0 98.0 L 58.0 101.0 L 58.0 105.0 L 57.0 109.0 L 57.0 114.0 L 57.0 119.0 L 56.0 123.0 L 56.0 128.0 L 56.0 131.0 L 56.0 134.0 L 56.0 135.0 L 57.0 136.0 L 57.0 136.0 L 57.0 136.0 L 57.0 135.0 L 57.0 133.0 L 57.0 130.0 L 57.0 127.0 L 57.0 124.0 L 57.0 121.0 L 58.0 117.0 L 58.0 114.0 L 58.0 111.0 L 58.0 107.0 L 58.0 105.0 L 58.0 103.0 L 58.0 101.0 L 58.0 101.0 L 58.0 101.0 L 57.0 103.0 L 57.0 106.0 L 57.0 109.0 L 57.0 113.0 L 57.0 117.0 L 56.0 120.0 L 56.0 125.0 L 56.0 128.0 L 56.0 133.0 L 56.0 137.0 L 56.0 140.0 L 56.0 143.0 L 56.0 144.0 L 56.0 145.0 L 56.0 145.0 L 57.0 144.0 L 57.0 142.0 L 57.0 139.0 L 58.0 136.0 L 58.0 132.0 L 58.0 130.0 L 58.0 127.0 L 58.0 124.0 L 58.0 122.0 L 58.0 120.0 L 58.0 118.0 L 58.0 117.0 L 58.0 116.0 L 58.0 114.0 L 58.0 114.0 L 58.0 113.0 L 58.0 113.0 L 58.0 113.0 L 58.0 113.0 L 58.0 116.0 L 58.0 119.0 L 58.0 123.0 L 58.0 127.0 L 58.0 132.0 L 58.0 136.0 L 58.0 140.0 L 58.0 144.0 L 58.0 147.0 L 58.0 149.0 L 59.0 150.0 L 59.0 151.0 L 59.0 151.0 L 59.0 150.0 L 59.0 148.0 L 59.0 146.0 L 59.0 143.0 L 59.0 139.0 L 59.0 136.0 L 59.0 132.0 L 60.0 129.0 L 60.0 125.0 L 60.0 123.0 L 60.0 121.0 L 61.0 120.0 L 61.0 120.0 L 61.0 121.0 L 61.0 124.0 L 60.0 128.0 L 60.0 133.0 L 60.0 139.0 L 60.0 145.0 L 60.0 151.0 L 60.0 156.0 L 60.0 161.0 L 60.0 167.0 L 60.0 171.0 L 60.0 173.0 L 60.0 175.0 L 60.0 176.0 L 60.0 176.0 L 60.0 176.0 L 60.0 174.0 L 60.0 172.0 L 60.0 170.0 L 60.0 167.0 L 60.0 165.0 L 60.0 162.0 L 60.0 159.0 L 60.0 156.0 L 60.0 153.0 L 60.0 151.0 L 60.0 148.0 L 60.0 146.0 L 60.0 145.0 L 60.0 144.0 L 60.0 144.0 L 60.0 144.0 L 59.0 146.0 L 59.0 149.0 L 58.0 152.0 L 58.0 157.0 L 58.0 161.0 L 58.0 166.0 L 58.0 171.0 L 58.0 176.0 L 58.0 180.0 L 58.0 184.0 L 58.0 187.0 L 58.0 189.0 L 58.0 190.0 L 58.0 190.0 L 57.0 190.0 L 57.0 190.0 L 57.0 188.0 L 57.0 185.0 L 57.0 182.0 L 57.0 178.0 L 57.0 174.0 L 57.0 170.0 L 58.0 165.0 L 58.0 161.0 L 58.0 156.0 L 59.0 152.0 L 59.0 149.0 L 59.0 147.0 L 59.0 145.0 L 59.0 144.0 L 59.0 144.0 L 59.0 145.0 L 59.0 147.0 L 59.0 150.0 L 59.0 153.0 L 59.0 157.0 L 59.0 162.0 L 58.0 168.0 L 58.0 173.0 L 57.0 178.0 L 57.0 183.0 L 57.0 186.0 L 57.0 189.0 L 57.0 190.0 L 57.0 190.0 L 57.0 190.0 L 57.0 188.0 L 57.0 185.0 L 57.0 181.0 L 57.0 177.0 L 57.0 173.0 L 57.0 170.0 L 57.0 165.0 L 57.0 161.0 L 57.0 157.0 L 57.0 152.0 L 57.0 147.0 L 57.0 143.0 L 57.0 140.0 L 57.0 138.0 L 57.0 138.0 L 57.0 138.0 L 57.0 141.0 L 57.0 144.0 L 57.0 149.0 L 57.0 153.0 L 57.0 157.0 L 57.0 162.0 L 57.0 166.0 L 57.0 170.0 L 56.0 175.0 L 56.0 179.0 L 56.0 183.0 L 55.0 187.0 L 55.0 189.0 L 55.0 191.0 L 55.0 191.0 L 55.0 191.0 L 55.0 191.0 L 55.0 189.0 L 54.0 187.0 L 54.0 183.0 L 54.0 179.0 L 54.0 175.0 L 54.0 170.0 L 54.0 165.0 L 54.0 160.0 L 55.0 156.0 L 56.0 151.0 L 56.0 149.0 L 57.0 147.0 L 57.0 146.0 L 57.0 146.0 L 57.0 148.0 L 56.0 151.0 L 55.0 154.0 L 54.0 158.0 L 54.0 162.0 L 53.0 166.0 L 53.0 170.0 L 53.0 175.0 L 53.0 180.0 L 53.0 185.0 L 53.0 190.0 L 53.0 193.0 L 54.0 195.0 L 54.0 196.0 L 54.0 196.0 L 54.0 196.0 L 55.0 196.0 L 55.0 194.0 L 55.0 191.0 L 55.0 188.0 L 55.0 183.0 L 55.0 179.0 L 55.0 174.0 L 55.0 170.0 L 55.0 165.0 L 56.0 159.0 L 56.0 154.0 L 57.0 149.0 L 57.0 144.0 L 58.0 141.0 L 58.0 139.0 L 58.0 138.0 L 58.0 138.0 L 58.0 140.0 L 58.0 143.0 L 58.0 148.0 L 58.0 153.0 L 58.0 158.0 L 57.0 164.0 L 57.0 169.0 L 57.0 175.0 L 57.0 180.0 L 57.0 186.0 L 57.0 193.0 L 57.0 198.0 L 57.0 202.0 L 58.0 206.0 L 58.0 208.0 L 58.0 210.0 L 59.0 210.0 L 59.0 210.0 L 59.0 209.0 L 59.0 207.0 L 59.0 205.0 L 59.0 201.0 L 60.0 197.0 L 60.0 193.0 L 60.0 189.0 L 60.0 185.0 L 60.0 182.0 L 60.0 179.0 L 60.0 177.0 L 60.0 176.0 L 60.0 176.0 L 59.0 176.0 L 59.0 177.0 L 59.0 180.0 L 58.0 184.0 L 58.0 188.0 L 58.0 192.0 L 58.0 197.0 L 57.0 201.0 L 57.0 206.0 L 56.0 212.0 L 56.0 216.0 L 55.0 221.0 L 55.0 225.0 L 54.0 228.0 L 54.0 230.0 L 54.0 232.0 L 54.0 232.0 L 54.0 232.0 L 54.0 231.0 L 54.0 228.0 L 54.0 225.0 L 54.0 221.0 L 54.0 217.0 L 55.0 213.0 L 55.0 208.0 L 56.0 204.0 L 56.0 200.0 L 57.0 196.0 L 57.0 193.0 L 57.0 190.0 L 57.0 188.0 L 57.0 188.0 L 57.0 188.0 L 56.0 190.0 L 55.0 193.0 L 55.0 197.0 L 54.0 202.0 L 54.0 206.0 L 54.0 211.0 L 54.0 216.0 L 54.0 221.0 L 54.0 225.0 L 54.0 230.0 L 53.0 233.0 L 53.0 235.0 L 53.0 237.0 L 53.0 237.0 L 53.0 237.0 L 53.0 236.0 L 53.0 234.0 L 53.0 231.0 L 53.0 227.0 L 53.0 223.0 L 53.0 219.0 L 53.0 214.0 L 54.0 209.0 L 54.0 205.0 L 54.0 201.0 L 54.0 197.0 L 54.0 194.0 L 54.0 191.0 L 54.0 190.0 L 54.0 190.0 L 54.0 190.0 L 54.0 192.0 L 54.0 195.0 L 53.0 198.0 L 53.0 202.0 L 53.0 207.0 L 52.0 213.0 L 52.0 218.0 L 51.0 223.0 L 51.0 230.0 L 51.0 234.0 L 51.0 238.0 L 51.0 241.0 L 51.0 242.0 L 51.0 242.0 L 52.0 242.0 L 52.0 241.0 L 52.0 240.0 L 52.0 237.0 L 53.0 235.0 L 53.0 232.0 L 53.0 228.0 L 53.0 224.0 L 54.0 220.0 L 54.0 215.0 L 54.0 212.0 L 55.0 209.0 L 55.0 206.0 L 55.0 206.0 L 55.0 206.0 L 55.0 206.0 L 54.0 207.0 L 54.0 209.0 L 54.0 212.0 L 53.0 215.0 L 53.0 219.0 L 53.0 224.0 L 53.0 228.0 L 53.0 233.0 L 53.0 237.0 L 53.0 240.0 L 53.0 242.0 L 53.0 244.0 L 53.0 245.0 L 53.0 245.0 L 53.0 245.0 L 53.0 243.0 L 53.0 241.0 L 53.0 238.0 L 53.0 235.0 L 54.0 232.0 L 54.0 229.0 L 55.0 226.0 L 55.0 223.0 L 55.0 221.0 L 55.0 220.0 L 55.0 220.0 L 55.0 220.0 L 55.0 221.0 L 54.0 224.0 L 54.0 227.0 L 53.0 230.0 L 53.0 234.0 L 53.0 237.0 L 53.0 240.0 L 53.0 242.0 L 53.0 245.0 L 53.0 247.0 L 53.0 249.0 L 54.0 250.0 L 54.0 251.0 L 54.0 252.0 L 54.0 252.0 L 54.0 252.0 L 54.0 252.0 L 54.0 251.0 L 54.0 250.0 L 54.0 249.0 L 54.0 249.0 L 54.0 248.0 L 54.0 248.0 L 54.0 248.0 L 54.0 247.0 L 53.0 247.0 L 53.0 247.0 L 53.0 247.0 L 53.0 247.0 L 53.0 247.0 L 53.0 247.0 L 53.0 247.0 L 53.0 247.0 L 53.0 247.0 L 53.0 248.0 L 53.0 248.0 L 53.0 249.0 L 53.0 250.0 L 53.0 251.0 L 53.0 252.0 L 52.0 252.0 L 52.0 253.0 L 52.0 254.0 L 52.0 255.0 L 52.0 255.0 L 52.0 255.0 L 52.0 255.0 L 52.0 255.0 L 52.0 253.0 L 52.0 251.0 L 52.0 249.0 L 53.0 247.0 L 53.0 245.0 L 53.0 244.0 L 53.0 242.0 L 53.0 242.0 L 53.0 241.0 L 53.0 241.0 L 53.0 241.0 L 53.0 241.0 L 53.0 243.0 L 52.0 244.0 L 52.0 246.0 L 52.0 248.0 L 52.0 250.0 L 51.0 251.0 L 51.0 253.0 L 51.0 254.0 L 51.0 256.0 L 51.0 257.0 L 51.0 257.0 L 51.0 258.0 L 51.0 258.0 L 51.0 258.0 L 50.0 258.0 L 50.0 258.0 L 50.0 258.0 L 50.0 257.0 L 50.0 257.0 L 50.0 257.0 L 49.0 257.0 L 49.0 257.0 L 49.0 257.0 L 49.0 257.0 L 49.0 257.0 L 49.0 257.0 L 49.0 257.0 L 49.0 257.0 L 49.0 257.0 L 49.0 257.0 L 49.0 257.0 L 49.0 257.0 L 50.0 258.0 L 50.0 258.0 L 51.0 259.0 L 52.0 259.0 L 53.0 259.0 L 53.0 259.0 L 54.0 259.0 L 55.0 259.0 L 55.0 259.0 L 55.0 259.0 L 56.0 259.0 L 56.0 259.0 L 56.0 259.0 L 56.0 259.0 L 56.0 259.0 L 55.0 259.0 L 55.0 259.0 L 54.0 259.0 L 53.0 259.0 L 52.0 258.0 L 51.0 258.0 L 51.0 258.0 L 50.0 258.0 L 50.0 258.0 L 50.0 258.0 L 50.0 258.0 L 50.0 258.0 L 50.0 258.0 L 50.0 258.0 L 50.0 258.0 L 51.0 258.0 L 51.0 258.0 L 52.0 258.0 L 53.0 258.0 L 53.0 258.0 L 54.0 258.0 L 54.0 258.0 L 54.0 257.0 L 54.0 257.0 L 54.0 257.0 L 54.0 257.0 L 54.0 257.0 L 54.0 257.0 L 53.0 257.0 L 52.0 257.0 L 52.0 257.0 L 51.0 257.0 L 51.0 257.0 L 51.0 258.0 L 50.0 258.0 L 50.0 259.0 L 50.0 259.0 L 50.0 259.0 L 50.0 260.0 L 50.0 260.0 L 50.0 260.0 L 51.0 260.0 L 51.0 260.0 L 51.0 260.0 L 52.0 259.0 L 52.0 259.0 L 52.0 259.0 L 52.0 258.0 L 52.0 258.0 L 52.0 258.0 L 52.0 258.0 L 52.0 257.0 L 51.0 257.0 L 51.0 257.0 L 51.0 257.0 L 51.0 257.0 L 50.0 257.0 L 50.0 257.0 L 50.0 257.0 L 50.0 257.0 L 50.0 257.0 L 50.0 257.0 L 50.0 257.0 L 50.0 257.0 L 50.0 257.0 L 50.0 258.0 L 50.0 258.0 L 50.0 258.0 L 50.0 258.0 L 51.0 258.0 L 51.0 258.0 L 51.0 258.0 L 51.0 258.0 L 51.0 258.0 L 51.0 258.0 L 51.0 258.0 L 51.0 258.0 L 51.0 258.0 L 51.0 258.0 L 51.0 258.0 L 51.0 258.0 L 51.0 258.0 L 51.0 258.0 L 51.0 258.0 L 51.0 258.0 L 51.0 258.0 L 51.0 258.0 L 51.0 258.0 L 51.0 258.0 L 51.0 258.0 L 51.0 258.0 L 52.0 258.0 L 52.0 258.0 L 53.0 258.0 L 54.0 258.0 L 54.0 258.0 L 55.0 257.0 L 56.0 257.0 L 57.0 256.0 L 57.0 255.0 L 58.0 254.0 L 58.0 252.0 L 59.0 250.0 L 59.0 249.0 L 59.0 247.0 L 59.0 245.0 L 59.0 244.0 L 59.0 243.0 L 59.0 242.0 L 59.0 241.0 L 58.0 241.0 L 58.0 241.0 L 58.0 241.0 L 57.0 241.0 L 57.0 242.0 L 57.0 244.0 L 57.0 246.0 L 57.0 248.0 L 57.0 250.0 L 58.0 252.0 L 58.0 253.0 L 59.0 254.0 L 60.0 255.0 L 60.0 256.0 L 61.0 256.0 L 61.0 256.0 L 62.0 256.0 L 62.0 256.0 L 62.0 255.0 L 62.0 253.0 L 62.0 252.0 L 62.0 250.0 L 61.0 247.0 L 61.0 245.0 L 60.0 243.0 L 59.0 241.0 L 58.0 240.0 L 58.0 239.0 L 57.0 239.0 L 57.0 239.0 L 57.0 239.0 L 57.0 241.0 L 57.0 243.0 L 57.0 245.0 L 57.0 247.0 L 58.0 249.0 L 58.0 250.0 L 59.0 252.0 L 59.0 253.0 L 60.0 254.0 L 60.0 254.0 L 60.0 254.0 L 60.0 254.0 L 60.0 254.0 L 60.0 253.0 L 60.0 251.0 L 60.0 250.0 L 60.0 248.0 L 60.0 246.0 L 59.0 244.0 L 58.0 242.0 L 57.0 240.0 L 57.0 239.0 L 56.0 238.0 L 55.0 237.0 L 55.0 237.0 L 54.0 238.0 L 54.0 239.0 L 53.0 241.0 L 53.0 243.0 L 53.0 245.0 L 53.0 247.0 L 53.0 249.0 L 53.0 251.0 L 53.0 252.0 L 53.0 253.0 L 53.0 254.0 L 53.0 254.0 L 53.0 254.0 L 53.0 254.0 L 53.0 253.0 L 53.0 251.0 L 53.0 250.0 L 53.0 248.0 L 53.0 246.0 L 53.0 244.0 L 53.0 242.0 L 53.0 241.0 L 53.0 240.0 L 53.0 239.0 L 53.0 238.0 L 53.0 238.0 L 53.0 238.0 L 53.0 238.0 L 53.0 238.0 L 53.0 239.0 L 53.0 241.0 L 52.0 244.0 L 52.0 246.0 L 52.0 249.0 L 52.0 251.0 L 52.0 253.0 L 52.0 254.0 L 52.0 255.0 L 52.0 256.0 L 52.0 256.0 L 52.0 256.0 L 52.0 256.0 L 53.0 255.0 L 53.0 254.0 L 53.0 252.0 L 53.0 250.0 L 53.0 249.0 L 53.0 247.0 L 53.0 245.0 L 53.0 244.0 L 54.0 242.0 L 54.0 241.0 L 54.0 241.0 L 54.0 240.0 L 54.0 240.0 L 54.0 240.0 L 54.0 240.0 L 53.0 241.0 L 52.0 242.0 L 52.0 243.0 L 51.0 245.0 L 50.0 247.0 L 50.0 248.0 L 49.0 250.0 L 49.0 251.0 L 48.0 252.0 L 48.0 253.0 L 48.0 254.0 L 48.0 254.0 L 48.0 255.0 L 48.0 255.0 L 48.0 254.0 L 48.0 253.0 L 49.0 251.0 L 49.0 249.0 L 50.0 248.0 L 51.0 246.0 L 51.0 245.0 L 51.0 244.0 L 52.0 243.0 L 52.0 243.0 L 52.0 243.0 L 52.0 243.0 L 52.0 243.0 L 51.0 244.0 L 51.0 245.0 L 50.0 247.0 L 49.0 249.0 L 49.0 251.0 L 48.0 253.0 L 48.0 254.0 L 47.0 255.0 L 47.0 256.0 L 47.0 257.0 L 47.0 257.0 L 47.0 257.0 L 48.0 255.0 L 48.0 254.0 L 49.0 252.0 L 49.0 250.0 L 49.0 249.0 L 50.0 247.0 L 50.0 246.0 L 50.0 245.0 L 50.0 245.0 L 50.0 245.0 L 50.0 245.0 L 50.0 245.0 L 50.0 245.0 L 50.0 246.0 L 50.0 247.0 L 50.0 248.0 L 50.0 249.0 L 50.0 251.0 L 50.0 252.0 L 50.0 253.0 L 50.0 255.0 L 50.0 255.0 L 50.0 256.0 L 50.0 257.0 L 50.0 258.0 L 50.0 258.0 L 50.0 258.0 L 50.0 258.0 L 49.0 258.0 L 49.0 258.0 L 49.0 258.0 L 49.0 258.0 L 48.0 258.0 L 48.0 258.0 L 48.0 258.0 L 47.0 258.0 L 47.0 258.0 L 47.0 258.0 L 47.0 258.0 L 46.0 258.0 L 46.0 258.0 L 46.0 258.0 L 46.0 258.0 L 46.0 258.0 L 46.0 258.0 L 46.0 258.0 L 46.0 258.0 L 46.0 258.0 L 46.0 258.0 L 46.0 258.0 L 46.0 258.0 L 46.0 258.0 L 46.0 258.0 L 47.0 258.0 L 47.0 258.0 L 48.0 258.0 L 48.0 258.0 L 49.0 258.0 L 49.0 258.0 L 50.0 258.0 L 50.0 258.0 L 51.0 258.0 L 52.0 258.0 L 52.0 258.0 L 53.0 258.0 L 54.0 258.0 L 55.0 258.0 L 55.0 258.0 L 56.0 258.0 L 56.0 258.0 L 57.0 258.0 L 57.0 258.0 L 57.0 258.0 L 57.0 259.0 L 57.0 259.0 L 57.0 259.0 L 57.0 259.0 L 57.0 259.0 L 57.0 259.0 L 57.0 259.0 L 56.0 259.0 L 55.0 259.0 L 54.0 259.0 L 53.0 258.0 L 52.0 258.0 L 51.0 257.0 L 50.0 257.0 L 49.0 257.0 L 48.0 256.0 L 48.0 256.0 L 47.0 256.0 L 47.0 256.0 L 46.0 256.0 L 46.0 256.0 L 46.0 256.0 L 46.0 256.0 L 46.0 256.0 L 47.0 256.0 L 47.0 257.0 L 48.0 257.0 L 49.0 258.0 L 50.0 258.0 L 51.0 259.0 L 52.0 259.0 L 52.0 260.0 L 53.0 260.0 L 53.0 260.0 L 54.0 261.0 L 54.0 261.0 L 54.0 261.0 L 54.0 261.0 L 54.0 261.0 L 54.0 262.0 L 54.0 262.0 L 53.0 262.0 L 53.0 262.0 L 52.0 262.0 L 51.0 262.0 L 51.0 262.0 L 50.0 262.0 L 50.0 262.0 L 49.0 262.0 L 49.0 262.0 L 49.0 262.0 L 48.0 262.0 L 48.0 262.0 L 48.0 262.0 L 48.0 262.0 L 48.0 262.0 L 48.0 262.0 L 49.0 262.0 L 50.0 262.0 L 51.0 262.0 L 52.0 262.0 L 53.0 262.0 L 55.0 262.0 L 56.0 261.0 L 58.0 261.0 L 59.0 261.0 L 60.0 261.0 L 62.0 261.0 L 63.0 261.0 L 64.0 261.0 L 65.0 261.0 L 66.0 261.0 L 67.0 261.0 L 67.0 261.0 L 68.0 261.0 L 69.0 261.0 L 69.0 261.0 L 69.0 261.0 L 70.0 261.0 L 70.0 261.0 L 70.0 261.0 L 70.0 261.0 L 70.0 261.0 L 70.0 261.0 L 70.0 261.0 L 70.0 261.0 L 70.0 260.0 L 70.0 260.0 L 70.0 260.0 L 69.0 260.0 L 69.0 260.0 L 69.0 260.0 L 69.0 260.0 L 69.0 260.0 L 69.0 260.0 L 69.0 260.0 L 69.0 260.0 L 69.0 259.0 L 69.0 259.0 L 69.0 259.0 L 70.0 259.0 L 70.0 259.0 L 71.0 259.0 L 71.0 259.0 L 72.0 259.0 L 72.0 259.0 L 73.0 259.0 L 73.0 259.0 L 73.0 259.0 L 73.0 259.0 L 73.0 259.0 L 73.0 259.0 L 72.0 259.0 L 71.0 259.0 L 69.0 259.0 L 68.0 258.0 L 66.0 258.0 L 65.0 258.0 L 64.0 258.0 L 63.0 258.0 L 62.0 258.0 L 62.0 258.0 L 61.0 259.0 L 61.0 259.0 L 61.0 260.0 L 61.0 260.0 L 62.0 260.0 L 63.0 261.0 L 65.0 261.0 L 67.0 261.0 L 69.0 261.0 L 71.0 261.0 L 73.0 261.0 L 75.0 261.0 L 77.0 261.0 L 78.0 260.0 L 79.0 260.0 L 80.0 260.0 L 80.0 260.0 L 80.0 260.0 L 79.0 260.0 L 77.0 260.0 L 75.0 260.0 L 74.0 260.0 L 72.0 261.0 L 70.0 261.0 L 69.0 262.0 L 68.0 262.0 L 67.0 262.0 L 67.0 262.0 L 67.0 263.0 L 66.0 263.0 L 66.0 263.0 L 66.0 263.0 L 67.0 263.0 L 68.0 263.0 L 69.0 263.0 L 71.0 263.0 L 72.0 263.0 L 74.0 262.0 L 75.0 262.0 L 77.0 261.0 L 78.0 261.0 L 79.0 261.0 L 80.0 260.0 L 80.0 260.0 L 80.0 260.0 L 80.0 259.0 L 80.0 259.0 L 80.0 259.0 L 78.0 259.0 L 77.0 259.0 L 75.0 259.0 L 74.0 259.0 L 72.0 259.0 L 71.0 259.0 L 70.0 259.0 L 69.0 259.0 L 68.0 259.0 L 68.0 259.0 L 67.0 260.0 L 67.0 260.0 L 67.0 260.0 L 68.0 261.0 L 69.0 261.0 L 70.0 261.0 L 72.0 261.0 L 74.0 261.0 L 76.0 261.0 L 78.0 261.0 L 81.0 261.0 L 83.0 260.0 L 85.0 260.0 L 87.0 259.0 L 88.0 258.0 L 89.0 258.0 L 89.0 257.0 L 89.0 257.0 L 88.0 256.0 L 86.0 256.0 L 84.0 256.0 L 82.0 256.0 L 80.0 256.0 L 77.0 257.0 L 76.0 257.0 L 74.0 257.0 L 72.0 257.0 L 71.0 257.0 L 70.0 257.0 L 70.0 257.0 L 70.0 257.0 L 70.0 257.0 L 70.0 257.0 L 71.0 258.0 L 72.0 258.0 L 74.0 258.0 L 76.0 258.0 L 78.0 259.0 L 80.0 259.0 L 82.0 259.0 L 84.0 259.0 L 85.0 259.0 L 86.0 259.0 L 87.0 259.0 L 88.0 259.0 L 88.0 258.0 L 87.0 258.0 L 86.0 258.0 L 84.0 258.0 L 82.0 258.0 L 80.0 258.0 L 77.0 259.0 L 75.0 259.0 L 73.0 259.0 L 72.0 259.0 L 71.0 260.0 L 71.0 260.0 L 71.0 261.0 L 71.0 261.0 L 71.0 261.0 L 73.0 262.0 L 75.0 262.0 L 77.0 262.0 L 79.0 262.0 L 82.0 262.0 L 84.0 262.0 L 86.0 262.0 L 89.0 262.0 L 90.0 261.0 L 92.0 261.0 L 93.0 261.0 L 94.0 260.0 L 94.0 260.0 L 94.0 260.0 L 94.0 260.0 L 93.0 260.0 L 92.0 260.0 L 90.0 260.0 L 88.0 260.0 L 85.0 259.0 L 83.0 259.0 L 81.0 259.0 L 79.0 259.0 L 78.0 259.0 L 76.0 259.0 L 75.0 259.0 L 75.0 259.0 L 74.0 260.0 L 74.0 260.0 L 74.0 260.0 L 74.0 260.0 L 75.0 260.0 L 77.0 260.0 L 79.0 260.0 L 81.0 260.0 L 83.0 260.0 L 85.0 260.0 L 88.0 260.0 L 90.0 260.0 L 92.0 260.0 L 94.0 260.0 L 96.0 260.0 L 97.0 260.0 L 99.0 259.0 L 99.0 259.0 L 100.0 259.0 L 100.0 259.0 L 100.0 259.0 L 100.0 259.0 L 100.0 258.0 L 99.0 258.0 L 98.0 258.0 L 97.0 258.0 L 95.0 258.0 L 93.0 258.0 L 91.0 258.0 L 89.0 258.0 L 88.0 258.0 L 86.0 258.0 L 85.0 258.0 L 84.0 258.0 L 84.0 258.0 L 84.0 258.0 L 84.0 258.0 L 84.0 258.0 L 85.0 259.0 L 87.0 259.0 L 89.0 259.0 L 92.0 259.0 L 94.0 259.0 L 96.0 259.0 L 98.0 259.0 L 100.0 259.0 L 103.0 258.0 L 104.0 258.0 L 106.0 257.0 L 107.0 257.0 L 108.0 257.0 L 109.0 256.0 L 109.0 256.0 L 110.0 256.0 L 110.0 256.0 L 110.0 256.0 L 109.0 256.0 L 109.0 256.0 L 108.0 256.0 L 107.0 256.0 L 105.0 256.0 L 104.0 256.0 L 103.0 256.0 L 102.0 256.0 L 101.0 256.0 L 101.0 256.0 L 100.0 256.0 L 100.0 256.0 L 100.0 256.0 L 100.0 256.0 L 100.0 256.0 L 100.0 256.0 L 100.0 257.0 L 101.0 257.0 L 102.0 258.0 L 104.0 258.0 L 105.0 259.0 L 106.0 259.0 L 107.0 259.0 L 108.0 260.0 L 109.0 260.0 L 109.0 260.0 L 110.0 260.0 L 110.0 260.0 L 110.0 260.0 L 110.0 260.0 L 110.0 260.0 L 110.0 260.0 L 109.0 260.0 L 108.0 260.0 L 107.0 260.0 L 106.0 260.0 L 105.0 260.0 L 104.0 260.0 L 103.0 260.0 L 102.0 260.0 L 101.0 260.0 L 100.0 260.0 L 100.0 260.0 L 99.0 260.0 L 99.0 260.0 L 99.0 260.0 L 99.0 260.0 L 99.0 260.0 L 99.0 260.0 L 100.0 261.0 L 101.0 261.0 L 102.0 261.0 L 103.0 261.0 L 105.0 261.0 L 106.0 261.0 L 107.0 261.0 L 108.0 261.0 L 109.0 261.0 L 110.0 261.0 L 111.0 261.0 L 111.0 261.0 L 111.0 261.0 L 112.0 261.0 L 112.0 261.0 L 112.0 261.0 L 111.0 261.0 L 110.0 261.0 L 109.0 261.0 L 107.0 261.0 L 106.0 261.0 L 104.0 261.0 L 102.0 261.0 L 101.0 261.0 L 99.0 261.0 L 98.0 261.0 L 97.0 261.0 L 97.0 261.0 L 97.0 261.0 L 97.0 261.0 L 97.0 262.0 L 97.0 262.0 L 98.0 263.0 L 100.0 263.0 L 101.0 263.0 L 102.0 263.0 L 104.0 263.0 L 105.0 263.0 L 107.0 263.0 L 108.0 263.0 L 109.0 263.0 L 109.0 262.0 L 109.0 262.0 L 110.0 262.0 L 110.0 261.0 L 110.0 261.0 L 109.0 261.0 L 109.0 261.0 L 108.0 260.0 L 107.0 260.0 L 105.0 260.0 L 104.0 259.0 L 103.0 259.0 L 102.0 259.0 L 101.0 259.0 L 100.0 258.0 L 99.0 258.0 L 98.0 258.0 L 98.0 258.0 L 97.0 258.0 L 97.0 258.0 L 97.0 258.0 L 97.0 258.0 L 97.0 258.0 L 98.0 258.0 L 99.0 259.0 L 100.0 259.0 L 101.0 259.0 L 102.0 259.0 L 102.0 259.0 L 103.0 259.0 L 104.0 259.0 L 104.0 259.0 L 104.0 259.0 L 104.0 259.0 L 104.0 259.0 L 104.0 259.0 L 103.0 260.0 L 102.0 260.0 L 100.0 260.0 L 98.0 260.0 L 96.0 260.0 L 94.0 260.0 L 91.0 261.0 L 89.0 261.0 L 87.0 262.0 L 85.0 263.0 L 84.0 263.0 L 83.0 264.0 L 83.0 264.0 L 83.0 264.0 L 84.0 264.0 L 85.0 265.0 L 87.0 265.0 L 89.0 265.0 L 92.0 265.0 L 94.0 265.0 L 96.0 264.0 L 99.0 264.0 L 101.0 264.0 L 104.0 263.0 L 106.0 263.0 L 108.0 262.0 L 110.0 261.0 L 112.0 260.0 L 113.0 259.0 L 115.0 258.0 L 116.0 257.0 L 117.0 257.0 L 118.0 257.0 L 118.0 257.0 L 119.0 256.0 L 120.0 256.0 L 120.0 256.0 L 121.0 256.0 L 122.0 256.0 L 122.0 256.0 L 123.0 256.0 L 123.0 256.0 L 124.0 256.0 L 124.0 256.0 L 125.0 256.0 L 125.0 256.0 L 125.0 256.0 L 125.0 256.0 L 125.0 256.0 L 125.0 256.0 L 125.0 256.0 L 125.0 256.0 L 125.0 256.0 L 125.0 256.0 L 124.0 256.0 L 123.0 256.0 L 121.0 256.0 L 120.0 256.0 L 119.0 256.0 L 118.0 256.0 L 117.0 256.0 L 117.0 256.0 L 116.0 256.0 L 116.0 256.0 L 115.0 256.0 L 115.0 256.0 L 115.0 256.0 L 115.0 256.0 L 116.0 257.0 L 118.0 257.0 L 119.0 257.0 L 121.0 257.0 L 123.0 257.0 L 126.0 257.0 L 128.0 257.0 L 130.0 257.0 L 132.0 257.0 L 134.0 257.0 L 136.0 256.0 L 137.0 256.0 L 138.0 256.0 L 138.0 256.0 L 138.0 256.0 L 138.0 256.0 L 138.0 257.0 L 137.0 257.0 L 136.0 257.0 L 135.0 258.0 L 133.0 258.0 L 130.0 258.0 L 128.0 259.0 L 125.0 259.0 L 123.0 259.0 L 121.0 260.0 L 118.0 260.0 L 116.0 261.0 L 115.0 261.0 L 114.0 261.0 L 113.0 262.0 L 113.0 262.0 L 113.0 263.0 L 113.0 263.0 L 114.0 263.0 L 116.0 264.0 L 117.0 264.0 L 119.0 264.0 L 121.0 264.0 L 123.0 264.0 L 125.0 263.0 L 127.0 262.0 L 129.0 261.0 L 132.0 260.0 L 134.0 259.0 L 136.0 258.0 L 137.0 257.0 L 139.0 257.0 L 140.0 256.0 L 140.0 256.0 L 140.0 256.0 L 140.0 256.0 L 140.0 256.0 L 139.0 256.0 L 138.0 256.0 L 137.0 256.0 L 136.0 256.0 L 135.0 256.0 L 134.0 256.0 L 132.0 256.0 L 131.0 256.0 L 129.0 256.0 L 128.0 256.0 L 127.0 256.0 L 126.0 256.0 L 125.0 257.0 L 123.0 257.0 L 123.0 257.0 L 123.0 257.0 L 122.0 258.0 L 122.0 258.0 L 122.0 258.0 L 123.0 258.0 L 125.0 259.0 L 126.0 259.0 L 128.0 259.0 L 130.0 259.0 L 132.0 259.0 L 134.0 259.0 L 136.0 259.0 L 138.0 258.0 L 140.0 258.0 L 142.0 258.0 L 143.0 257.0 L 144.0 257.0 L 145.0 257.0 L 146.0 257.0 L 147.0 257.0 L 148.0 257.0 L 148.0 257.0 L 149.0 257.0 L 149.0 257.0 L 150.0 257.0 L 150.0 257.0 L 150.0 256.0 L 150.0 256.0 L 150.0 256.0 L 150.0 256.0 L 150.0 256.0 L 150.0 256.0 L 150.0 256.0 L 150.0 256.0 L 150.0 256.0 L 150.0 256.0 L 150.0 256.0 L 151.0 256.0 L 151.0 256.0 L 151.0 256.0 L 151.0 256.0 L 151.0 256.0 L 152.0 256.0 L 152.0 256.0 L 152.0 256.0 L 153.0 256.0 L 153.0 256.0 L 153.0 256.0 L 154.0 256.0 L 155.0 256.0 L 155.0 256.0 L 156.0 256.0 L 156.0 256.0 L 157.0 256.0 L 157.0 256.0 L 158.0 256.0 L 158.0 256.0 L 158.0 256.0 L 158.0 256.0 L 158.0 256.0 L 158.0 256.0 L 158.0 256.0 L 158.0 256.0 L 158.0 256.0 L 158.0 256.0 L 157.0 256.0 L 156.0 256.0 L 155.0 256.0 L 154.0 256.0 L 153.0 256.0 L 152.0 256.0 L 151.0 256.0 L 150.0 256.0 L 150.0 256.0 L 149.0 256.0 L 149.0 256.0 L 149.0 256.0 L 149.0 256.0 L 149.0 256.0 L 149.0 256.0 L 149.0 257.0 L 149.0 257.0 L 150.0 257.0 L 150.0 257.0 L 151.0 257.0 L 152.0 257.0 L 153.0 258.0 L 155.0 258.0 L 156.0 258.0 L 156.0 258.0 L 157.0 258.0 L 158.0 258.0 L 158.0 258.0 L 159.0 258.0 L 159.0 258.0 L 159.0 258.0 L 160.0 258.0 L 160.0 258.0 L 160.0 258.0 L 159.0 258.0 L 159.0 258.0 L 158.0 258.0 L 158.0 258.0 L 157.0 258.0 L 157.0 258.0 L 156.0 258.0 L 156.0 258.0 L 156.0 258.0 L 156.0 258.0 L 156.0 258.0 L 156.0 258.0 L 156.0 258.0 L 156.0 258.0 L 156.0 258.0 L 156.0 258.0 L 156.0 258.0 L 157.0 258.0 L 158.0 258.0 L 159.0 258.0 L 160.0 258.0 L 161.0 258.0 L 162.0 258.0 L 163.0 258.0 L 163.0 258.0 L 164.0 258.0 L 165.0 258.0 L 165.0 258.0 L 165.0 258.0 L 166.0 258.0 L 166.0 258.0 L 166.0 258.0 L 167.0 258.0 L 167.0 258.0 L 167.0 258.0 L 168.0 258.0 L 168.0 258.0 L 168.0 258.0 L 168.0 258.0 L 168.0 258.0 L 168.0 258.0 L 168.0 257.0 L 168.0 257.0 " stroke="black" fill="none" stroke-width="5.0" stroke-linecap="round" stroke-linejoin="round" />
<path d="M 216.0 161.0 L 216.0 161.0 L 216.0 162.0 L 216.0 163.0 L 217.0 164.0 L 217.0 167.0 L 217.0 170.0 L 217.0 176.0 L 217.0 183.0 L 216.0 191.0 L 216.0 199.0 L 215.0 206.0 L 215.0 211.0 L 214.0 215.0 L 214.0 217.0 L 214.0 217.0 L 215.0 217.0 L 215.0 215.0 L 216.0 212.0 L 217.0 208.0 L 218.0 205.0 L 219.0 201.0 L 220.0 196.0 L 221.0 192.0 L 221.0 187.0 L 222.0 182.0 L 222.0 176.0 L 222.0 170.0 L 222.0 164.0 L 222.0 158.0 L 223.0 153.0 L 223.0 148.0 L 223.0 144.0 L 224.0 142.0 L 224.0 141.0 L 224.0 141.0 L 224.0 143.0 L 225.0 146.0 L 225.0 150.0 L 225.0 155.0 L 225.0 160.0 L 225.0 166.0 L 225.0 171.0 L 225.0 177.0 L 224.0 184.0 L 224.0 190.0 L 223.0 196.0 L 222.0 200.0 L 222.0 203.0 L 222.0 204.0 L 222.0 204.0 L 222.0 203.0 L 222.0 200.0 L 222.0 198.0 L 222.0 195.0 L 222.0 191.0 L 222.0 188.0 L 222.0 184.0 L 222.0 179.0 L 222.0 175.0 L 222.0 171.0 L 223.0 167.0 L 223.0 164.0 L 223.0 160.0 L 223.0 157.0 L 223.0 155.0 L 223.0 153.0 L 223.0 151.0 L 223.0 150.0 L 223.0 149.0 L 223.0 148.0 L 223.0 147.0 L 223.0 146.0 L 223.0 145.0 L 223.0 144.0 L 223.0 144.0 L 223.0 143.0 L 223.0 142.0 L 223.0 141.0 L 223.0 140.0 L 223.0 140.0 L 223.0 139.0 L 223.0 139.0 L 223.0 139.0 L 223.0 138.0 L 223.0 137.0 L 223.0 137.0 L 223.0 136.0 L 223.0 136.0 L 223.0 135.0 L 223.0 134.0 L 223.0 134.0 L 223.0 133.0 L 223.0 133.0 L 223.0 132.0 L 223.0 132.0 L 223.0 131.0 L 223.0 131.0 L 223.0 130.0 L 223.0 130.0 L 223.0 129.0 L 223.0 129.0 L 222.0 128.0 L 222.0 128.0 L 222.0 128.0 L 222.0 128.0 L 222.0 129.0 L 222.0 131.0 L 222.0 134.0 L 222.0 137.0 L 222.0 142.0 L 222.0 145.0 L 221.0 149.0 L 221.0 153.0 L 221.0 155.0 L 221.0 157.0 L 221.0 158.0 L 221.0 158.0 L 221.0 158.0 L 221.0 157.0 L 221.0 155.0 L 221.0 152.0 L 222.0 149.0 L 222.0 145.0 L 222.0 142.0 L 223.0 138.0 L 223.0 135.0 L 223.0 131.0 L 223.0 128.0 L 223.0 125.0 L 223.0 121.0 L 223.0 119.0 L 223.0 117.0 L 223.0 116.0 L 223.0 115.0 L 223.0 115.0 L 223.0 115.0 L 223.0 115.0 L 223.0 117.0 L 223.0 119.0 L 223.0 121.0 L 223.0 125.0 L 223.0 128.0 L 223.0 132.0 L 223.0 137.0 L 223.0 143.0 L 223.0 149.0 L 222.0 155.0 L 222.0 161.0 L 221.0 166.0 L 221.0 170.0 L 221.0 173.0 L 221.0 175.0 L 221.0 175.0 L 221.0 175.0 L 221.0 175.0 L 221.0 173.0 L 221.0 172.0 L 221.0 170.0 L 221.0 168.0 L 221.0 165.0 L 221.0 163.0 L 221.0 161.0 L 221.0 158.0 L 221.0 155.0 L 221.0 153.0 L 221.0 150.0 L 222.0 147.0 L 222.0 144.0 L 223.0 141.0 L 223.0 139.0 L 223.0 137.0 L 223.0 137.0 L 223.0 137.0 L 223.0 139.0 L 223.0 143.0 L 222.0 147.0 L 222.0 152.0 L 221.0 157.0 L 221.0 161.0 L 221.0 165.0 L 220.0 169.0 L 220.0 171.0 L 220.0 174.0 L 220.0 175.0 L 220.0 175.0 L 220.0 175.0 L 220.0 174.0 L 220.0 172.0 L 220.0 170.0 L 220.0 167.0 L 220.0 164.0 L 220.0 161.0 L 220.0 158.0 L 220.0 155.0 L 220.0 152.0 L 220.0 149.0 L 219.0 146.0 L 219.0 144.0 L 219.0 142.0 L 219.0 141.0 L 219.0 140.0 L 219.0 140.0 L 219.0 141.0 L 219.0 143.0 L 219.0 146.0 L 219.0 149.0 L 219.0 153.0 L 219.0 158.0 L 219.0 163.0 L 219.0 167.0 L 219.0 172.0 L 219.0 175.0 L 219.0 177.0 L 219.0 179.0 L 219.0 179.0 L 219.0 179.0 L 219.0 177.0 L 219.0 174.0 L 220.0 171.0 L 220.0 167.0 L 220.0 164.0 L 220.0 161.0 L 220.0 158.0 L 220.0 156.0 L 220.0 153.0 L 220.0 150.0 L 220.0 148.0 L 220.0 147.0 L 220.0 146.0 L 220.0 146.0 L 221.0 146.0 L 221.0 149.0 L 221.0 152.0 L 222.0 156.0 L 222.0 161.0 L 222.0 166.0 L 222.0 171.0 L 222.0 177.0 L 222.0 184.0 L 221.0 190.0 L 221.0 197.0 L 220.0 202.0 L 219.0 206.0 L 218.0 209.0 L 218.0 211.0 L 218.0 211.0 L 218.0 211.0 L 218.0 211.0 L 218.0 210.0 L 218.0 209.0 L 218.0 207.0 L 218.0 205.0 L 218.0 202.0 L 218.0 200.0 L 219.0 197.0 L 219.0 194.0 L 220.0 192.0 L 220.0 190.0 L 220.0 189.0 L 221.0 188.0 L 221.0 188.0 L 221.0 189.0 L 221.0 192.0 L 221.0 196.0 L 221.0 200.0 L 221.0 204.0 L 221.0 208.0 L 221.0 213.0 L 221.0 218.0 L 221.0 222.0 L 221.0 225.0 L 221.0 228.0 L 221.0 229.0 L 221.0 230.0 L 221.0 230.0 L 221.0 230.0 L 221.0 229.0 L 221.0 226.0 L 221.0 223.0 L 221.0 220.0 L 221.0 216.0 L 221.0 213.0 L 221.0 209.0 L 221.0 206.0 L 221.0 203.0 L 221.0 200.0 L 221.0 198.0 L 221.0 198.0 L 221.0 197.0 L 221.0 197.0 L 221.0 198.0 L 221.0 200.0 L 221.0 203.0 L 221.0 206.0 L 221.0 209.0 L 221.0 213.0 L 221.0 216.0 L 221.0 220.0 L 220.0 223.0 L 220.0 226.0 L 220.0 229.0 L 220.0 230.0 L 220.0 231.0 L 220.0 232.0 L 220.0 232.0 L 220.0 232.0 L 220.0 231.0 L 220.0 231.0 L 220.0 229.0 L 220.0 229.0 " stroke="black" fill="none" stroke-width="5.0" stroke-linecap="round" stroke-linejoin="round" />
<path d="M 216.0 212.0 L 216.0 212.0 L 216.0 212.0 L 216.0 212.0 L 216.0 213.0 L 216.0 214.0 L 216.0 216.0 L 216.0 219.0 L 215.0 222.0 L 215.0 227.0 L 215.0 232.0 L 215.0 236.0 L 215.0 240.0 L 215.0 244.0 L 215.0 246.0 L 215.0 248.0 L 215.0 248.0 L 215.0 248.0 L 215.0 248.0 L 215.0 246.0 L 215.0 244.0 L 215.0 241.0 L 215.0 238.0 L 215.0 234.0 L 215.0 231.0 L 215.0 227.0 L 215.0 223.0 L 215.0 219.0 L 215.0 215.0 L 215.0 211.0 L 215.0 209.0 L 216.0 206.0 L 216.0 206.0 L 216.0 206.0 L 217.0 206.0 L 217.0 209.0 L 217.0 213.0 L 217.0 218.0 L 216.0 223.0 L 216.0 229.0 L 215.0 234.0 L 215.0 239.0 L 215.0 243.0 L 215.0 245.0 L 215.0 246.0 L 215.0 247.0 L 216.0 247.0 L 217.0 245.0 L 217.0 243.0 L 218.0 240.0 L 218.0 238.0 L 219.0 235.0 L 219.0 232.0 L 219.0 230.0 L 219.0 228.0 L 219.0 226.0 L 219.0 224.0 L 219.0 222.0 L 219.0 221.0 L 220.0 221.0 L 220.0 221.0 L 220.0 222.0 L 220.0 224.0 L 220.0 227.0 L 220.0 231.0 L 220.0 235.0 L 220.0 239.0 L 220.0 243.0 L 220.0 246.0 L 220.0 248.0 L 221.0 250.0 L 221.0 250.0 L 221.0 250.0 L 221.0 250.0 L 221.0 250.0 L 221.0 249.0 L 221.0 247.0 L 221.0 245.0 L 221.0 243.0 L 221.0 240.0 L 222.0 237.0 L 222.0 234.0 L 222.0 231.0 L 223.0 229.0 L 223.0 227.0 L 223.0 225.0 L 224.0 225.0 L 224.0 224.0 L 224.0 224.0 L 224.0 226.0 L 224.0 228.0 L 224.0 232.0 L 224.0 235.0 L 224.0 238.0 L 224.0 241.0 L 223.0 244.0 L 223.0 247.0 L 223.0 249.0 L 223.0 251.0 L 223.0 252.0 L 223.0 252.0 L 223.0 252.0 L 223.0 252.0 L 223.0 251.0 L 223.0 250.0 L 223.0 248.0 L 223.0 246.0 L 223.0 244.0 L 223.0 242.0 L 224.0 240.0 L 224.0 239.0 L 224.0 238.0 L 224.0 237.0 L 224.0 236.0 L 224.0 236.0 L 224.0 236.0 L 224.0 236.0 L 224.0 236.0 L 224.0 238.0 L 224.0 240.0 L 223.0 242.0 L 223.0 244.0 L 223.0 246.0 L 223.0 248.0 L 223.0 249.0 L 222.0 251.0 L 222.0 251.0 L 222.0 252.0 L 222.0 252.0 L 222.0 253.0 L 221.0 253.0 L 221.0 253.0 L 220.0 253.0 L 219.0 252.0 L 218.0 252.0 L 217.0 252.0 L 216.0 252.0 L 215.0 252.0 L 214.0 251.0 L 213.0 251.0 L 212.0 251.0 L 211.0 251.0 L 210.0 251.0 L 210.0 251.0 L 209.0 250.0 L 209.0 250.0 L 208.0 250.0 L 208.0 250.0 L 208.0 250.0 L 207.0 250.0 L 207.0 250.0 L 207.0 250.0 L 207.0 250.0 L 207.0 250.0 L 207.0 250.0 L 207.0 250.0 L 206.0 250.0 L 206.0 250.0 L 206.0 250.0 L 206.0 250.0 L 206.0 250.0 L 206.0 250.0 L 205.0 250.0 L 205.0 250.0 L 205.0 250.0 L 205.0 250.0 L 204.0 250.0 L 204.0 250.0 L 204.0 250.0 L 204.0 251.0 L 203.0 251.0 L 203.0 251.0 L 203.0 251.0 L 202.0 251.0 L 202.0 251.0 L 202.0 252.0 L 201.0 252.0 L 201.0 252.0 L 201.0 252.0 L 200.0 252.0 L 200.0 253.0 L 200.0 253.0 L 200.0 253.0 L 200.0 253.0 L 200.0 253.0 L 200.0 254.0 L 200.0 254.0 L 200.0 254.0 L 200.0 254.0 L 201.0 254.0 L 202.0 254.0 L 203.0 254.0 L 204.0 254.0 L 205.0 254.0 L 206.0 254.0 L 207.0 254.0 L 209.0 254.0 L 210.0 254.0 L 211.0 254.0 L 212.0 253.0 L 212.0 253.0 L 213.0 252.0 L 213.0 252.0 L 214.0 252.0 " stroke="black" fill="none" stroke-width="5.0" stroke-linecap="round" stroke-linejoin="round" />
<path d="M 196.0 255.0 L 196.0 255.0 L 196.0 255.0 L 196.0 255.0 L 196.0 255.0 L 196.0 255.0 L 196.0 255.0 L 196.0 255.0 L 196.0 255.0 L 196.0 255.0 L 196.0 255.0 L 196.0 255.0 L 196.0 255.0 L 196.0 255.0 L 196.0 255.0 L 196.0 256.0 L 195.0 256.0 L 195.0 256.0 L 195.0 256.0 L 195.0 256.0 L 195.0 257.0 L 195.0 257.0 L 195.0 257.0 L 195.0 257.0 L 195.0 257.0 L 195.0 257.0 L 195.0 257.0 L 195.0 257.0 L 195.0 257.0 L 196.0 258.0 L 196.0 258.0 L 196.0 258.0 L 197.0 258.0 L 198.0 258.0 L 198.0 258.0 L 199.0 258.0 L 199.0 258.0 L 200.0 258.0 L 201.0 258.0 L 202.0 258.0 L 202.0 258.0 L 203.0 257.0 L 204.0 257.0 L 204.0 257.0 L 205.0 257.0 L 205.0 256.0 L 205.0 256.0 L 206.0 256.0 L 206.0 256.0 L 207.0 255.0 L 207.0 255.0 L 208.0 255.0 L 208.0 255.0 L 208.0 255.0 L 209.0 254.0 L 209.0 254.0 L 209.0 254.0 L 210.0 254.0 L 210.0 254.0 L 210.0 254.0 L 210.0 254.0 L 211.0 254.0 L 211.0 254.0 L 211.0 254.0 L 211.0 254.0 L 212.0 254.0 L 212.0 254.0 L 212.0 254.0 L 212.0 254.0 L 213.0 254.0 L 213.0 254.0 L 213.0 254.0 L 214.0 254.0 L 214.0 254.0 L 215.0 254.0 L 215.0 254.0 L 216.0 254.0 L 217.0 254.0 L 218.0 254.0 L 218.0 254.0 L 219.0 254.0 L 220.0 254.0 L 220.0 254.0 L 221.0 254.0 L 221.0 254.0 L 222.0 254.0 L 222.0 254.0 L 222.0 254.0 L 222.0 254.0 L 222.0 254.0 L 222.0 254.0 L 222.0 254.0 L 221.0 254.0 L 220.0 254.0 L 219.0 254.0 L 217.0 254.0 L 216.0 254.0 L 215.0 254.0 L 214.0 254.0 L 213.0 254.0 L 212.0 254.0 L 211.0 254.0 L 211.0 254.0 L 210.0 254.0 L 210.0 254.0 L 210.0 255.0 L 210.0 255.0 L 210.0 255.0 L 210.0 255.0 L 210.0 255.0 L 212.0 256.0 L 213.0 256.0 L 215.0 256.0 L 216.0 256.0 L 218.0 256.0 L 219.0 256.0 L 219.0 256.0 L 220.0 255.0 L 220.0 255.0 L 220.0 255.0 L 220.0 255.0 L 220.0 255.0 L 219.0 255.0 L 217.0 255.0 L 216.0 255.0 L 214.0 255.0 L 212.0 255.0 L 211.0 255.0 L 210.0 255.0 L 209.0 255.0 L 209.0 255.0 L 209.0 255.0 L 208.0 255.0 L 208.0 255.0 L 208.0 255.0 L 209.0 255.0 L 210.0 255.0 L 211.0 255.0 L 212.0 255.0 L 213.0 255.0 L 215.0 255.0 L 216.0 255.0 L 218.0 255.0 L 219.0 255.0 L 220.0 255.0 L 220.0 255.0 L 221.0 255.0 L 221.0 254.0 L 222.0 254.0 L 222.0 254.0 L 222.0 253.0 L 222.0 252.0 L 221.0 251.0 L 220.0 250.0 L 219.0 249.0 L 217.0 247.0 L 215.0 246.0 L 214.0 244.0 L 212.0 243.0 L 211.0 241.0 L 210.0 241.0 L 209.0 240.0 L 209.0 240.0 L 209.0 240.0 L 209.0 241.0 L 209.0 242.0 L 210.0 243.0 L 211.0 245.0 L 212.0 247.0 L 214.0 248.0 L 215.0 249.0 L 216.0 250.0 L 216.0 251.0 L 217.0 252.0 L 217.0 252.0 L 218.0 253.0 L 218.0 253.0 L 218.0 253.0 L 218.0 252.0 L 218.0 251.0 L 218.0 250.0 L 218.0 248.0 L 217.0 246.0 L 216.0 244.0 L 216.0 242.0 L 215.0 240.0 L 214.0 239.0 L 213.0 238.0 L 212.0 237.0 L 212.0 237.0 L 211.0 237.0 L 211.0 237.0 L 211.0 239.0 L 211.0 241.0 L 211.0 243.0 L 211.0 244.0 L 211.0 246.0 L 212.0 247.0 L 212.0 248.0 L 213.0 248.0 L 213.0 249.0 L 214.0 249.0 L 214.0 249.0 L 214.0 249.0 L 214.0 249.0 L 214.0 248.0 L 214.0 247.0 L 214.0 246.0 L 214.0 244.0 L 213.0 242.0 L 212.0 240.0 L 211.0 238.0 L 211.0 236.0 L 210.0 235.0 L 210.0 233.0 L 210.0 232.0 L 210.0 232.0 L 210.0 231.0 L 210.0 231.0 L 210.0 231.0 L 211.0 231.0 L 212.0 231.0 L 212.0 231.0 L 213.0 231.0 L 213.0 231.0 " stroke="black" fill="none" stroke-width="5.0" stroke-linecap="round" stroke-linejoin="round" />
<path d="M 220.0 83.0 L 220.0 83.0 L 220.0 82.0 L 221.0 81.0 L 221.0 80.0 L 221.0 79.0 L 222.0 78.0 L 222.0 77.0 L 223.0 76.0 L 223.0 75.0 L 223.0 74.0 L 223.0 73.0 L 224.0 73.0 L 224.0 73.0 L 224.0 73.0 L 224.0 73.0 L 224.0 75.0 L 224.0 78.0 L 224.0 82.0 L 224.0 86.0 L 224.0 90.0 L 224.0 95.0 L 224.0 99.0 L 224.0 104.0 L 224.0 108.0 L 223.0 111.0 L 223.0 113.0 L 223.0 114.0 L 223.0 114.0 L 223.0 114.0 L 223.0 113.0 L 223.0 111.0 L 223.0 108.0 L 223.0 105.0 L 223.0 102.0 L 224.0 98.0 L 224.0 95.0 L 225.0 91.0 L 225.0 88.0 L 225.0 85.0 L 225.0 83.0 L 225.0 80.0 L 225.0 78.0 L 225.0 77.0 L 225.0 76.0 L 225.0 76.0 L 226.0 76.0 L 226.0 76.0 L 226.0 78.0 L 226.0 80.0 L 226.0 82.0 L 226.0 85.0 L 226.0 88.0 L 226.0 92.0 L 225.0 95.0 L 225.0 99.0 L 225.0 102.0 L 225.0 105.0 L 224.0 108.0 L 224.0 110.0 L 224.0 111.0 L 223.0 112.0 L 223.0 112.0 L 223.0 112.0 L 223.0 111.0 L 223.0 109.0 L 223.0 107.0 L 223.0 105.0 L 223.0 102.0 L 223.0 100.0 L 223.0 97.0 L 223.0 94.0 L 223.0 91.0 L 223.0 89.0 L 223.0 87.0 L 223.0 85.0 L 223.0 84.0 L 223.0 83.0 L 223.0 83.0 L 223.0 82.0 L 223.0 81.0 L 223.0 81.0 L 223.0 80.0 L 223.0 80.0 L 223.0 80.0 L 223.0 79.0 L 223.0 79.0 L 223.0 79.0 L 223.0 79.0 L 223.0 79.0 L 223.0 78.0 L 223.0 78.0 L 223.0 78.0 L 223.0 78.0 L 222.0 78.0 L 222.0 78.0 L 222.0 78.0 L 222.0 78.0 L 222.0 78.0 L 222.0 78.0 L 222.0 78.0 L 222.0 78.0 L 222.0 78.0 L 222.0 77.0 L 222.0 77.0 L 222.0 76.0 L 222.0 76.0 L 222.0 75.0 L 222.0 75.0 L 222.0 74.0 L 222.0 74.0 L 222.0 73.0 L 222.0 73.0 L 222.0 72.0 L 222.0 71.0 L 222.0 71.0 L 222.0 70.0 L 222.0 70.0 L 222.0 69.0 L 222.0 69.0 L 221.0 68.0 L 221.0 68.0 L 221.0 67.0 L 221.0 67.0 L 220.0 67.0 L 220.0 66.0 L 220.0 66.0 L 220.0 65.0 L 219.0 65.0 L 219.0 65.0 L 219.0 64.0 L 218.0 64.0 L 218.0 64.0 L 218.0 64.0 L 217.0 64.0 L 217.0 64.0 L 217.0 64.0 L 217.0 64.0 L 217.0 64.0 L 217.0 64.0 L 217.0 64.0 L 217.0 64.0 L 217.0 65.0 L 218.0 65.0 L 218.0 66.0 L 218.0 66.0 L 219.0 67.0 L 219.0 68.0 L 219.0 68.0 L 219.0 69.0 L 219.0 70.0 L 219.0 71.0 L 219.0 71.0 L 219.0 72.0 L 219.0 72.0 L 219.0 72.0 L 219.0 72.0 L 219.0 72.0 L 220.0 72.0 L 220.0 71.0 L 220.0 70.0 L 220.0 69.0 L 220.0 68.0 L 220.0 67.0 L 220.0 66.0 L 220.0 66.0 L 220.0 65.0 L 220.0 65.0 L 220.0 65.0 L 220.0 65.0 L 220.0 66.0 L 220.0 67.0 L 220.0 69.0 L 220.0 72.0 L 220.0 75.0 L 220.0 77.0 L 220.0 79.0 L 220.0 81.0 L 220.0 82.0 L 220.0 82.0 L 220.0 82.0 L 220.0 82.0 L 220.0 81.0 L 220.0 79.0 L 220.0 77.0 L 220.0 75.0 L 220.0 73.0 L 220.0 72.0 L 220.0 70.0 L 220.0 69.0 L 220.0 68.0 L 220.0 67.0 L 220.0 67.0 L 220.0 67.0 L 219.0 67.0 L 219.0 67.0 L 219.0 68.0 L 219.0 69.0 L 219.0 71.0 L 219.0 72.0 L 219.0 72.0 L 219.0 73.0 L 219.0 73.0 L 219.0 73.0 L 219.0 74.0 L 219.0 74.0 L 219.0 74.0 L 219.0 74.0 L 219.0 73.0 L 218.0 73.0 L 218.0 72.0 L 218.0 72.0 L 217.0 71.0 L 216.0 70.0 L 215.0 69.0 L 215.0 68.0 L 214.0 67.0 L 213.0 66.0 L 212.0 65.0 L 212.0 65.0 L 211.0 64.0 L 210.0 64.0 L 210.0 63.0 L 210.0 63.0 L 209.0 63.0 L 209.0 63.0 L 209.0 63.0 L 208.0 63.0 L 208.0 63.0 L 208.0 63.0 L 208.0 63.0 L 207.0 63.0 L 207.0 63.0 L 207.0 63.0 L 206.0 63.0 L 206.0 63.0 L 205.0 63.0 L 205.0 64.0 L 205.0 64.0 L 204.0 64.0 L 204.0 65.0 L 204.0 65.0 L 203.0 65.0 L 203.0 66.0 L 203.0 66.0 L 202.0 66.0 L 202.0 66.0 L 201.0 66.0 L 201.0 66.0 L 201.0 67.0 L 200.0 67.0 L 200.0 67.0 L 200.0 67.0 L 199.0 67.0 L 199.0 67.0 L 199.0 67.0 L 199.0 67.0 L 199.0 67.0 L 199.0 67.0 L 199.0 67.0 L 199.0 67.0 L 199.0 67.0 L 200.0 67.0 L 201.0 66.0 L 202.0 66.0 L 204.0 66.0 L 205.0 66.0 L 207.0 66.0 L 209.0 65.0 L 211.0 65.0 L 214.0 65.0 L 216.0 64.0 L 219.0 64.0 L 220.0 64.0 L 222.0 64.0 L 223.0 64.0 L 224.0 64.0 L 224.0 64.0 L 224.0 64.0 L 224.0 64.0 L 224.0 64.0 L 224.0 64.0 L 224.0 64.0 L 223.0 64.0 L 223.0 64.0 L 222.0 64.0 L 222.0 64.0 L 221.0 64.0 L 221.0 64.0 L 221.0 64.0 L 220.0 64.0 L 220.0 64.0 L 219.0 64.0 L 219.0 64.0 L 219.0 64.0 L 218.0 63.0 L 218.0 63.0 L 217.0 63.0 L 217.0 63.0 L 216.0 63.0 L 216.0 63.0 L 215.0 63.0 L 214.0 63.0 L 214.0 63.0 L 213.0 63.0 L 212.0 62.0 L 211.0 62.0 L 210.0 62.0 L 209.0 62.0 L 208.0 62.0 L 207.0 62.0 L 206.0 61.0 L 205.0 61.0 L 204.0 61.0 L 203.0 61.0 L 202.0 61.0 L 202.0 61.0 L 201.0 61.0 L 201.0 61.0 L 200.0 62.0 L 200.0 62.0 L 200.0 62.0 L 199.0 62.0 L 199.0 62.0 L 199.0 63.0 L 198.0 63.0 L 198.0 63.0 L 198.0 63.0 L 198.0 64.0 L 198.0 64.0 L 198.0 64.0 L 198.0 64.0 L 198.0 64.0 L 198.0 64.0 L 198.0 64.0 L 198.0 64.0 L 198.0 64.0 L 198.0 64.0 L 198.0 64.0 L 197.0 64.0 L 197.0 64.0 L 197.0 64.0 L 197.0 64.0 L 197.0 64.0 L 197.0 64.0 L 197.0 64.0 L 197.0 64.0 L 197.0 64.0 L 197.0 64.0 L 196.0 64.0 L 196.0 63.0 L 196.0 63.0 L 196.0 63.0 L 196.0 63.0 L 196.0 63.0 L 196.0 63.0 L 196.0 63.0 L 196.0 63.0 L 196.0 63.0 L 196.0 63.0 L 196.0 62.0 L 196.0 62.0 L 196.0 62.0 L 196.0 62.0 L 196.0 62.0 L 196.0 62.0 L 196.0 62.0 L 196.0 62.0 L 196.0 62.0 L 196.0 62.0 L 196.0 62.0 L 196.0 62.0 L 196.0 62.0 L 196.0 62.0 L 196.0 62.0 L 196.0 62.0 L 196.0 62.0 L 196.0 62.0 L 195.0 62.0 L 195.0 62.0 L 195.0 62.0 L 195.0 62.0 L 195.0 62.0 L 195.0 62.0 L 195.0 62.0 L 195.0 62.0 L 195.0 62.0 L 195.0 62.0 L 195.0 62.0 L 195.0 62.0 L 195.0 62.0 L 195.0 62.0 L 195.0 62.0 L 195.0 62.0 L 195.0 62.0 " stroke="black" fill="none" stroke-width="5.0" stroke-linecap="round" stroke-linejoin="round" />
<path d="M 62.0 82.0 L 62.0 82.0 L 62.0 81.0 L 61.0 81.0 L 60.0 80.0 L 60.0 80.0 L 60.0 79.0 L 59.0 78.0 L 59.0 78.0 L 58.0 78.0 L 58.0 78.0 L 58.0 78.0 L 58.0 78.0 L 58.0 79.0 L 58.0 82.0 L 59.0 85.0 L 59.0 89.0 L 59.0 94.0 L 59.0 100.0 L 59.0 106.0 L 59.0 111.0 L 59.0 116.0 L 58.0 118.0 L 58.0 120.0 L 58.0 120.0 L 58.0 120.0 L 57.0 119.0 L 57.0 116.0 L 57.0 114.0 L 57.0 110.0 L 57.0 107.0 L 57.0 104.0 L 57.0 100.0 L 57.0 97.0 L 57.0 93.0 L 57.0 90.0 L 57.0 87.0 L 57.0 85.0 L 57.0 83.0 L 57.0 82.0 L 57.0 81.0 L 56.0 81.0 L 56.0 81.0 L 56.0 83.0 L 56.0 85.0 L 56.0 87.0 L 57.0 91.0 L 57.0 95.0 L 57.0 98.0 L 57.0 102.0 L 57.0 105.0 L 57.0 108.0 L 57.0 110.0 L 57.0 111.0 L 57.0 111.0 L 57.0 111.0 L 57.0 111.0 L 57.0 109.0 L 57.0 107.0 L 57.0 104.0 L 57.0 101.0 L 57.0 98.0 L 57.0 95.0 L 57.0 92.0 L 57.0 89.0 L 57.0 87.0 L 57.0 86.0 L 57.0 86.0 L 57.0 85.0 L 57.0 86.0 L 57.0 87.0 L 57.0 90.0 L 57.0 94.0 L 57.0 98.0 L 57.0 102.0 L 57.0 107.0 L 57.0 111.0 L 57.0 116.0 L 57.0 119.0 L 56.0 123.0 L 56.0 125.0 L 56.0 127.0 L 55.0 127.0 L 55.0 127.0 L 55.0 126.0 L 55.0 124.0 L 55.0 122.0 L 55.0 119.0 L 55.0 117.0 L 56.0 113.0 L 56.0 111.0 L 56.0 108.0 L 57.0 104.0 L 57.0 101.0 L 57.0 98.0 L 57.0 95.0 L 57.0 93.0 L 57.0 92.0 L 57.0 91.0 L 57.0 91.0 L 57.0 91.0 L 57.0 93.0 L 57.0 95.0 L 57.0 98.0 L 57.0 102.0 L 57.0 105.0 L 57.0 108.0 L 56.0 111.0 L 56.0 113.0 L 56.0 114.0 L 56.0 115.0 L 56.0 115.0 L 56.0 115.0 L 56.0 114.0 L 56.0 111.0 L 56.0 108.0 L 56.0 105.0 L 57.0 102.0 L 57.0 99.0 L 57.0 96.0 L 57.0 93.0 L 57.0 91.0 L 57.0 89.0 L 57.0 87.0 L 57.0 85.0 L 57.0 84.0 L 57.0 83.0 L 57.0 83.0 L 57.0 83.0 L 57.0 83.0 L 57.0 86.0 L 57.0 89.0 L 57.0 92.0 L 57.0 96.0 L 57.0 100.0 L 57.0 102.0 L 57.0 104.0 L 57.0 106.0 L 57.0 107.0 L 57.0 107.0 L 57.0 107.0 L 57.0 105.0 L 57.0 103.0 L 57.0 101.0 L 57.0 98.0 L 57.0 95.0 L 57.0 92.0 L 58.0 89.0 L 58.0 87.0 L 58.0 85.0 L 58.0 83.0 L 58.0 82.0 L 58.0 81.0 L 58.0 81.0 L 58.0 81.0 L 58.0 83.0 L 58.0 85.0 L 58.0 88.0 L 58.0 92.0 L 57.0 95.0 L 57.0 98.0 L 57.0 100.0 L 57.0 103.0 L 56.0 104.0 L 56.0 105.0 L 56.0 106.0 L 56.0 106.0 L 56.0 106.0 L 56.0 104.0 L 56.0 102.0 L 56.0 100.0 L 56.0 98.0 L 56.0 95.0 L 56.0 92.0 L 56.0 90.0 L 56.0 87.0 L 56.0 85.0 L 56.0 83.0 L 56.0 81.0 L 55.0 80.0 L 55.0 80.0 L 55.0 80.0 L 54.0 82.0 L 54.0 84.0 L 54.0 88.0 L 54.0 92.0 L 54.0 96.0 L 54.0 100.0 L 54.0 104.0 L 54.0 107.0 L 55.0 109.0 L 55.0 111.0 L 55.0 111.0 L 56.0 112.0 L 56.0 112.0 L 56.0 112.0 L 56.0 111.0 L 56.0 109.0 L 56.0 108.0 L 56.0 106.0 L 56.0 104.0 L 56.0 103.0 L 56.0 100.0 L 56.0 98.0 L 56.0 96.0 L 56.0 95.0 L 56.0 93.0 L 56.0 92.0 L 56.0 92.0 L 56.0 91.0 L 56.0 91.0 L 56.0 93.0 L 56.0 95.0 L 56.0 98.0 L 56.0 101.0 L 56.0 104.0 L 56.0 107.0 L 57.0 111.0 L 57.0 114.0 L 57.0 118.0 L 57.0 120.0 L 57.0 124.0 L 58.0 126.0 L 58.0 129.0 L 58.0 131.0 L 58.0 134.0 L 58.0 136.0 L 58.0 138.0 L 58.0 140.0 L 58.0 142.0 L 58.0 143.0 L 58.0 144.0 L 58.0 144.0 L 58.0 144.0 L 58.0 144.0 L 58.0 143.0 L 58.0 142.0 L 58.0 141.0 L 58.0 140.0 L 58.0 139.0 L 58.0 139.0 L 58.0 138.0 L 58.0 138.0 L 58.0 138.0 L 58.0 138.0 L 58.0 138.0 L 58.0 138.0 L 58.0 138.0 L 58.0 139.0 L 58.0 140.0 L 58.0 142.0 L 58.0 144.0 L 58.0 146.0 L 58.0 148.0 L 58.0 151.0 L 58.0 153.0 L 58.0 155.0 L 58.0 157.0 L 58.0 158.0 L 58.0 158.0 L 58.0 159.0 L 58.0 159.0 L 58.0 159.0 L 58.0 159.0 L 58.0 158.0 L 58.0 156.0 L 58.0 154.0 L 57.0 152.0 L 57.0 150.0 L 57.0 147.0 L 57.0 144.0 L 57.0 141.0 L 57.0 137.0 L 56.0 135.0 L 56.0 132.0 L 56.0 131.0 L 56.0 130.0 L 56.0 130.0 L 56.0 130.0 L 56.0 132.0 L 56.0 135.0 L 56.0 138.0 L 56.0 141.0 L 56.0 144.0 L 56.0 147.0 L 56.0 149.0 L 56.0 151.0 L 56.0 153.0 L 56.0 154.0 L 56.0 155.0 L 56.0 155.0 L 56.0 155.0 L 56.0 155.0 L 56.0 155.0 L 56.0 153.0 L 56.0 152.0 L 56.0 150.0 L 56.0 148.0 L 56.0 146.0 L 56.0 144.0 L 56.0 142.0 L 56.0 140.0 L 56.0 139.0 L 56.0 138.0 L 56.0 137.0 L 56.0 137.0 L 56.0 137.0 L 56.0 138.0 L 56.0 140.0 L 56.0 143.0 L 56.0 145.0 L 56.0 148.0 L 56.0 150.0 L 56.0 152.0 L 56.0 153.0 L 56.0 155.0 L 56.0 155.0 L 56.0 156.0 L 56.0 156.0 L 56.0 156.0 L 56.0 156.0 L 56.0 155.0 L 56.0 154.0 L 56.0 152.0 L 55.0 151.0 L 55.0 149.0 L 55.0 146.0 L 55.0 144.0 L 55.0 141.0 L 55.0 138.0 L 55.0 136.0 L 55.0 134.0 L 55.0 133.0 L 55.0 133.0 L 55.0 133.0 L 55.0 135.0 L 55.0 138.0 L 55.0 141.0 L 55.0 144.0 L 55.0 147.0 L 55.0 150.0 L 56.0 152.0 L 56.0 154.0 L 56.0 155.0 L 57.0 156.0 L 57.0 157.0 L 57.0 157.0 L 57.0 157.0 L 57.0 156.0 L 58.0 155.0 L 58.0 153.0 L 58.0 151.0 L 58.0 148.0 L 59.0 146.0 L 59.0 143.0 L 60.0 140.0 L 60.0 136.0 L 61.0 133.0 L 61.0 130.0 L 62.0 126.0 L 62.0 123.0 L 63.0 120.0 L 63.0 116.0 L 64.0 114.0 L 64.0 112.0 L 65.0 109.0 L 65.0 108.0 L 66.0 106.0 L 66.0 105.0 L 66.0 104.0 L 67.0 103.0 L 67.0 101.0 L 67.0 100.0 L 67.0 98.0 L 67.0 96.0 L 67.0 94.0 L 67.0 92.0 L 67.0 90.0 L 67.0 89.0 L 67.0 87.0 L 67.0 86.0 L 67.0 85.0 L 67.0 84.0 L 67.0 83.0 L 67.0 82.0 L 67.0 81.0 L 67.0 80.0 L 67.0 79.0 L 67.0 78.0 L 67.0 77.0 L 67.0 76.0 L 67.0 75.0 L 67.0 74.0 L 66.0 74.0 L 66.0 74.0 L 66.0 73.0 L 66.0 73.0 L 66.0 73.0 L 65.0 73.0 L 65.0 73.0 L 65.0 72.0 L 65.0 72.0 L 64.0 72.0 L 64.0 71.0 L 64.0 71.0 L 64.0 71.0 L 64.0 71.0 L 63.0 70.0 L 63.0 70.0 L 63.0 70.0 L 63.0 70.0 L 62.0 70.0 L 62.0 69.0 L 62.0 69.0 L 62.0 69.0 L 62.0 69.0 L 61.0 69.0 L 61.0 69.0 L 61.0 69.0 L 61.0 69.0 L 61.0 69.0 L 60.0 69.0 L 60.0 69.0 L 60.0 69.0 L 60.0 69.0 L 60.0 69.0 L 60.0 69.0 L 60.0 69.0 L 60.0 69.0 L 60.0 69.0 L 60.0 70.0 L 61.0 70.0 L 62.0 70.0 L 62.0 70.0 L 63.0 71.0 L 64.0 71.0 L 64.0 71.0 L 65.0 71.0 L 65.0 71.0 L 65.0 71.0 L 66.0 71.0 L 66.0 71.0 L 66.0 71.0 L 66.0 71.0 L 66.0 71.0 L 65.0 70.0 L 65.0 70.0 L 64.0 70.0 L 63.0 69.0 L 62.0 69.0 L 61.0 69.0 L 60.0 69.0 L 59.0 69.0 L 58.0 69.0 L 57.0 69.0 L 56.0 69.0 L 56.0 69.0 L 56.0 69.0 L 56.0 69.0 L 56.0 69.0 L 56.0 69.0 L 57.0 70.0 L 58.0 70.0 L 59.0 70.0 L 61.0 70.0 L 62.0 70.0 L 64.0 70.0 L 66.0 70.0 L 68.0 70.0 L 70.0 70.0 L 72.0 70.0 L 73.0 70.0 L 75.0 69.0 L 76.0 69.0 L 76.0 69.0 L 77.0 68.0 L 77.0 68.0 L 77.0 68.0 L 77.0 68.0 L 76.0 68.0 L 74.0 68.0 L 73.0 68.0 L 72.0 68.0 L 70.0 68.0 L 69.0 68.0 L 68.0 68.0 L 67.0 68.0 L 66.0 68.0 L 66.0 68.0 L 65.0 68.0 L 65.0 68.0 L 64.0 68.0 L 64.0 68.0 L 64.0 68.0 L 64.0 68.0 L 65.0 68.0 L 66.0 69.0 L 68.0 69.0 L 70.0 70.0 L 72.0 70.0 L 75.0 71.0 L 78.0 71.0 L 81.0 71.0 L 85.0 71.0 L 88.0 71.0 L 91.0 71.0 L 93.0 71.0 L 94.0 71.0 L 95.0 71.0 L 95.0 71.0 L 95.0 71.0 L 95.0 70.0 L 94.0 70.0 L 93.0 70.0 L 91.0 69.0 L 89.0 69.0 L 87.0 69.0 L 85.0 68.0 L 83.0 67.0 L 80.0 67.0 L 79.0 67.0 L 77.0 66.0 L 75.0 66.0 L 74.0 66.0 L 74.0 66.0 L 74.0 67.0 L 74.0 68.0 L 75.0 69.0 L 76.0 70.0 L 78.0 71.0 L 81.0 72.0 L 83.0 73.0 L 86.0 73.0 L 90.0 74.0 L 93.0 74.0 L 96.0 74.0 L 98.0 74.0 L 100.0 74.0 L 101.0 73.0 L 102.0 73.0 L 102.0 72.0 L 102.0 72.0 L 101.0 72.0 L 99.0 71.0 L 97.0 71.0 L 94.0 71.0 L 92.0 71.0 L 90.0 70.0 L 87.0 70.0 L 85.0 70.0 L 84.0 70.0 L 82.0 70.0 L 81.0 70.0 L 80.0 70.0 L 80.0 70.0 L 80.0 70.0 L 80.0 70.0 L 82.0 70.0 L 84.0 71.0 L 87.0 71.0 L 90.0 71.0 L 93.0 71.0 L 96.0 71.0 L 99.0 70.0 L 101.0 70.0 L 103.0 69.0 L 105.0 68.0 L 107.0 68.0 L 107.0 67.0 L 107.0 67.0 L 107.0 67.0 L 107.0 66.0 L 107.0 66.0 L 106.0 66.0 L 105.0 66.0 L 104.0 66.0 L 103.0 66.0 L 102.0 67.0 L 102.0 67.0 L 101.0 67.0 L 101.0 67.0 L 101.0 68.0 L 101.0 68.0 L 101.0 68.0 L 101.0 69.0 L 101.0 69.0 L 101.0 70.0 L 102.0 70.0 L 103.0 71.0 L 105.0 71.0 L 106.0 71.0 L 108.0 71.0 L 110.0 71.0 L 111.0 71.0 L 113.0 71.0 L 114.0 71.0 L 115.0 71.0 L 116.0 71.0 L 117.0 70.0 L 117.0 70.0 L 118.0 70.0 L 118.0 70.0 L 118.0 70.0 L 118.0 70.0 L 117.0 70.0 L 116.0 70.0 L 115.0 70.0 L 114.0 70.0 L 113.0 69.0 L 112.0 69.0 L 110.0 69.0 L 109.0 69.0 L 108.0 69.0 L 108.0 68.0 L 107.0 68.0 L 106.0 68.0 L 106.0 68.0 L 105.0 68.0 L 105.0 68.0 L 105.0 68.0 L 105.0 68.0 L 105.0 68.0 L 105.0 68.0 L 105.0 68.0 L 105.0 68.0 L 106.0 68.0 L 106.0 68.0 L 106.0 68.0 L 106.0 68.0 L 106.0 68.0 L 106.0 68.0 L 106.0 68.0 L 106.0 68.0 L 106.0 68.0 L 105.0 68.0 L 105.0 68.0 L 104.0 68.0 L 103.0 68.0 L 103.0 68.0 L 101.0 68.0 L 100.0 68.0 L 99.0 68.0 L 97.0 68.0 L 96.0 68.0 L 95.0 69.0 L 94.0 69.0 L 94.0 69.0 L 93.0 70.0 L 93.0 71.0 L 93.0 71.0 L 94.0 71.0 L 96.0 72.0 L 98.0 72.0 L 100.0 72.0 L 101.0 72.0 L 104.0 72.0 L 106.0 72.0 L 108.0 71.0 L 110.0 70.0 L 112.0 70.0 L 113.0 69.0 L 114.0 69.0 L 115.0 68.0 L 115.0 68.0 L 115.0 68.0 L 115.0 68.0 L 115.0 68.0 L 113.0 68.0 L 112.0 68.0 L 111.0 68.0 L 109.0 67.0 L 108.0 67.0 L 107.0 67.0 L 105.0 66.0 L 104.0 66.0 L 103.0 66.0 L 102.0 66.0 L 102.0 66.0 L 101.0 66.0 L 101.0 66.0 L 101.0 66.0 L 102.0 67.0 L 103.0 67.0 L 105.0 68.0 L 106.0 68.0 L 108.0 69.0 L 109.0 69.0 L 111.0 69.0 L 112.0 69.0 L 113.0 69.0 L 113.0 69.0 L 114.0 69.0 L 114.0 69.0 L 114.0 69.0 L 113.0 69.0 L 112.0 69.0 L 111.0 69.0 L 109.0 69.0 L 108.0 69.0 L 106.0 69.0 L 104.0 69.0 L 103.0 69.0 L 102.0 69.0 L 101.0 69.0 L 100.0 69.0 L 99.0 70.0 L 99.0 70.0 L 99.0 71.0 L 99.0 72.0 L 99.0 72.0 L 100.0 73.0 L 101.0 73.0 L 103.0 74.0 L 104.0 74.0 L 105.0 74.0 L 106.0 74.0 L 107.0 74.0 L 107.0 74.0 L 107.0 74.0 L 107.0 73.0 L 106.0 73.0 L 105.0 73.0 L 103.0 72.0 L 101.0 72.0 L 98.0 72.0 L 95.0 71.0 L 92.0 71.0 L 89.0 71.0 L 86.0 71.0 L 83.0 71.0 L 81.0 71.0 L 80.0 72.0 L 79.0 72.0 L 79.0 72.0 L 79.0 73.0 L 80.0 73.0 L 83.0 74.0 L 86.0 74.0 L 89.0 75.0 L 92.0 75.0 L 95.0 75.0 L 97.0 75.0 L 98.0 75.0 L 99.0 75.0 L 100.0 75.0 L 100.0 75.0 L 100.0 74.0 L 99.0 74.0 L 97.0 74.0 L 95.0 73.0 L 92.0 73.0 L 89.0 73.0 L 85.0 73.0 L 82.0 73.0 L 78.0 73.0 L 75.0 73.0 L 72.0 74.0 L 71.0 74.0 L 69.0 75.0 L 69.0 75.0 L 69.0 75.0 L 69.0 76.0 L 71.0 76.0 L 73.0 76.0 L 76.0 76.0 L 79.0 76.0 L 82.0 76.0 L 84.0 76.0 L 86.0 76.0 L 88.0 75.0 L 89.0 75.0 L 90.0 75.0 L 90.0 75.0 L 89.0 74.0 L 88.0 74.0 L 86.0 74.0 L 83.0 73.0 L 81.0 73.0 L 79.0 73.0 L 76.0 73.0 L 75.0 73.0 L 73.0 73.0 L 71.0 73.0 L 70.0 73.0 L 69.0 73.0 L 69.0 73.0 L 68.0 74.0 L 68.0 75.0 L 68.0 77.0 L 69.0 78.0 L 70.0 79.0 L 72.0 80.0 L 74.0 80.0 L 76.0 81.0 L 78.0 81.0 L 80.0 81.0 L 82.0 81.0 L 83.0 81.0 L 84.0 80.0 L 85.0 80.0 L 85.0 80.0 L 85.0 80.0 L 85.0 79.0 L 85.0 79.0 L 85.0 79.0 L 85.0 79.0 L 85.0 79.0 L 85.0 79.0 L 84.0 79.0 L 84.0 79.0 L 83.0 78.0 L 83.0 78.0 L 83.0 78.0 L 83.0 78.0 " stroke="black" fill="none" stroke-width="5.0" stroke-linecap="round" stroke-linejoin="round" />
<path d="M 103.0 74.0 L 103.0 74.0 L 103.0 74.0 L 102.0 74.0 L 102.0 74.0 L 101.0 74.0 L 101.0 74.0 L 100.0 74.0 L 100.0 74.0 L 100.0 74.0 L 99.0 73.0 L 99.0 73.0 L 98.0 73.0 L 97.0 72.0 L 96.0 72.0 L 96.0 72.0 L 95.0 71.0 L 94.0 71.0 L 93.0 71.0 L 93.0 71.0 L 92.0 70.0 L 92.0 70.0 L 91.0 70.0 L 91.0 70.0 L 91.0 69.0 L 91.0 69.0 L 91.0 69.0 L 91.0 69.0 L 93.0 69.0 L 94.0 69.0 L 95.0 69.0 L 97.0 69.0 L 98.0 69.0 L 100.0 69.0 L 101.0 69.0 L 101.0 69.0 L 102.0 69.0 L 102.0 69.0 L 102.0 69.0 L 102.0 69.0 L 102.0 69.0 L 100.0 69.0 L 99.0 69.0 L 97.0 69.0 L 95.0 69.0 L 93.0 69.0 L 90.0 69.0 L 88.0 69.0 L 86.0 69.0 L 85.0 68.0 L 83.0 68.0 L 83.0 68.0 L 82.0 68.0 L 82.0 68.0 L 82.0 68.0 L 82.0 68.0 L 84.0 68.0 L 85.0 68.0 L 87.0 68.0 L 89.0 68.0 L 91.0 68.0 L 92.0 68.0 L 94.0 68.0 L 95.0 68.0 L 96.0 68.0 L 97.0 68.0 L 97.0 68.0 L 97.0 68.0 L 97.0 68.0 L 97.0 68.0 L 97.0 68.0 L 96.0 68.0 L 95.0 68.0 L 94.0 67.0 L 92.0 67.0 L 90.0 67.0 L 88.0 67.0 L 86.0 67.0 L 84.0 67.0 L 82.0 67.0 L 81.0 67.0 L 80.0 67.0 L 79.0 67.0 L 79.0 67.0 L 79.0 67.0 L 79.0 67.0 L 79.0 67.0 L 81.0 66.0 L 83.0 66.0 L 85.0 66.0 L 87.0 66.0 L 89.0 66.0 L 91.0 66.0 L 93.0 66.0 L 94.0 66.0 L 96.0 66.0 L 96.0 66.0 L 97.0 66.0 L 98.0 66.0 L 98.0 66.0 L 98.0 66.0 L 98.0 66.0 L 97.0 66.0 L 96.0 66.0 L 95.0 66.0 L 93.0 65.0 L 91.0 65.0 L 90.0 65.0 L 88.0 65.0 L 86.0 65.0 L 84.0 65.0 L 83.0 65.0 L 81.0 65.0 L 80.0 65.0 L 79.0 64.0 L 78.0 64.0 L 78.0 64.0 L 78.0 64.0 L 78.0 64.0 L 78.0 64.0 L 80.0 65.0 L 82.0 65.0 L 84.0 66.0 L 86.0 66.0 L 88.0 66.0 L 90.0 67.0 L 92.0 67.0 L 93.0 67.0 L 94.0 67.0 L 95.0 67.0 L 95.0 67.0 L 95.0 67.0 L 95.0 67.0 L 94.0 67.0 L 93.0 67.0 L 91.0 67.0 L 90.0 67.0 L 88.0 67.0 L 86.0 67.0 L 84.0 66.0 L 82.0 66.0 L 80.0 66.0 L 78.0 66.0 L 76.0 65.0 L 74.0 65.0 L 73.0 65.0 L 72.0 65.0 L 71.0 65.0 L 71.0 65.0 L 70.0 65.0 L 70.0 65.0 L 70.0 65.0 L 70.0 65.0 L 70.0 65.0 L 70.0 65.0 L 70.0 65.0 L 70.0 65.0 L 70.0 65.0 L 70.0 65.0 L 70.0 65.0 L 70.0 65.0 L 70.0 65.0 L 70.0 65.0 L 70.0 65.0 L 70.0 65.0 L 70.0 65.0 L 70.0 65.0 L 70.0 65.0 L 70.0 65.0 L 70.0 65.0 L 70.0 65.0 L 70.0 65.0 L 70.0 65.0 L 70.0 65.0 L 70.0 65.0 L 69.0 65.0 L 69.0 65.0 L 69.0 65.0 L 69.0 65.0 L 69.0 65.0 L 69.0 65.0 L 69.0 65.0 L 68.0 65.0 L 68.0 65.0 L 68.0 65.0 L 68.0 65.0 L 68.0 66.0 L 67.0 66.0 L 67.0 66.0 L 67.0 66.0 L 66.0 66.0 L 66.0 66.0 L 66.0 66.0 L 66.0 67.0 L 65.0 67.0 L 65.0 67.0 L 65.0 67.0 L 65.0 67.0 L 64.0 67.0 L 64.0 67.0 L 64.0 67.0 L 64.0 67.0 L 64.0 68.0 L 63.0 68.0 L 63.0 68.0 L 63.0 68.0 L 63.0 68.0 L 62.0 68.0 L 62.0 68.0 L 62.0 68.0 L 62.0 68.0 L 62.0 68.0 L 61.0 68.0 L 61.0 68.0 L 61.0 68.0 L 61.0 68.0 L 61.0 68.0 L 60.0 68.0 L 60.0 68.0 L 60.0 68.0 L 60.0 68.0 L 60.0 68.0 L 59.0 68.0 L 59.0 68.0 L 59.0 68.0 L 59.0 68.0 L 59.0 68.0 L 58.0 68.0 L 58.0 68.0 L 58.0 68.0 L 58.0 68.0 L 58.0 68.0 L 57.0 68.0 L 57.0 68.0 L 57.0 68.0 L 57.0 68.0 L 57.0 68.0 L 57.0 68.0 L 57.0 68.0 L 57.0 68.0 L 57.0 68.0 L 57.0 68.0 L 56.0 68.0 L 56.0 68.0 L 56.0 68.0 L 56.0 68.0 L 56.0 68.0 L 56.0 68.0 L 56.0 69.0 L 56.0 70.0 L 56.0 72.0 L 57.0 74.0 L 57.0 76.0 L 57.0 78.0 L 57.0 79.0 L 57.0 81.0 L 57.0 82.0 L 57.0 83.0 L 57.0 84.0 L 57.0 84.0 L 57.0 84.0 L 57.0 84.0 L 57.0 84.0 L 56.0 83.0 L 56.0 82.0 L 56.0 80.0 L 56.0 78.0 L 55.0 77.0 L 55.0 75.0 L 54.0 74.0 L 54.0 73.0 L 54.0 72.0 L 53.0 71.0 L 53.0 70.0 L 53.0 69.0 L 53.0 69.0 L 53.0 68.0 L 53.0 68.0 L 53.0 68.0 L 53.0 68.0 L 53.0 68.0 L 53.0 68.0 L 53.0 68.0 L 53.0 68.0 L 53.0 68.0 L 53.0 69.0 L 53.0 70.0 L 53.0 71.0 L 53.0 73.0 L 53.0 74.0 L 53.0 75.0 L 53.0 76.0 L 53.0 77.0 L 53.0 78.0 L 53.0 78.0 L 53.0 78.0 L 54.0 78.0 L 54.0 78.0 L 54.0 78.0 L 54.0 78.0 L 55.0 77.0 L 55.0 75.0 L 55.0 74.0 L 55.0 73.0 L 55.0 72.0 L 55.0 71.0 L 55.0 71.0 L 55.0 70.0 L 55.0 70.0 L 55.0 69.0 L 55.0 69.0 L 55.0 68.0 L 55.0 68.0 L 55.0 68.0 L 55.0 67.0 L 55.0 67.0 L 55.0 67.0 L 55.0 67.0 L 55.0 67.0 L 55.0 68.0 L 55.0 69.0 L 55.0 70.0 L 55.0 71.0 L 55.0 72.0 L 55.0 73.0 L 55.0 74.0 L 55.0 75.0 L 54.0 76.0 L 54.0 76.0 L 54.0 76.0 L 54.0 77.0 L 54.0 77.0 L 54.0 77.0 L 54.0 76.0 L 54.0 75.0 L 54.0 75.0 L 54.0 74.0 L 54.0 73.0 L 54.0 72.0 L 54.0 70.0 L 54.0 69.0 L 54.0 68.0 L 54.0 67.0 L 54.0 66.0 L 54.0 65.0 L 54.0 65.0 L 54.0 65.0 L 55.0 66.0 L 55.0 67.0 L 55.0 69.0 L 55.0 72.0 L 56.0 74.0 L 56.0 75.0 L 56.0 77.0 L 56.0 78.0 L 57.0 79.0 L 57.0 80.0 L 57.0 80.0 L 57.0 80.0 L 57.0 81.0 L 57.0 81.0 L 57.0 81.0 L 57.0 81.0 L 57.0 81.0 L 57.0 80.0 L 57.0 80.0 L 57.0 79.0 L 57.0 78.0 L 57.0 78.0 " stroke="black" fill="none" stroke-width="5.0" stroke-linecap="round" stroke-linejoin="round" />
<path d="M 68.0 74.0 L 68.0 74.0 L 68.0 74.0 L 68.0 74.0 L 68.0 73.0 L 68.0 73.0 L 68.0 73.0 L 68.0 72.0 L 68.0 72.0 L 68.0 71.0 L 68.0 71.0 L 68.0 71.0 L 68.0 70.0 L 68.0 70.0 L 68.0 70.0 L 68.0 69.0 L 68.0 69.0 L 68.0 69.0 L 68.0 69.0 L 68.0 69.0 L 67.0 69.0 L 67.0 68.0 L 66.0 68.0 L 66.0 68.0 L 65.0 68.0 L 64.0 68.0 L 64.0 68.0 L 63.0 68.0 L 63.0 68.0 L 63.0 68.0 L 62.0 68.0 L 62.0 68.0 L 62.0 68.0 L 62.0 68.0 L 62.0 67.0 L 62.0 67.0 L 62.0 67.0 L 62.0 66.0 L 62.0 66.0 L 62.0 66.0 L 62.0 66.0 L 62.0 66.0 L 62.0 66.0 L 62.0 66.0 L 63.0 66.0 L 63.0 66.0 L 64.0 66.0 L 64.0 66.0 L 65.0 66.0 L 65.0 66.0 L 66.0 66.0 L 66.0 66.0 L 66.0 66.0 L 66.0 66.0 L 66.0 66.0 L 66.0 67.0 L 66.0 67.0 L 66.0 67.0 L 65.0 67.0 L 64.0 67.0 L 64.0 67.0 L 63.0 67.0 L 63.0 67.0 L 63.0 67.0 L 62.0 67.0 L 62.0 67.0 L 62.0 67.0 L 61.0 67.0 L 61.0 67.0 L 61.0 67.0 L 61.0 67.0 L 61.0 67.0 L 61.0 67.0 L 61.0 67.0 L 61.0 67.0 L 61.0 67.0 L 61.0 67.0 L 62.0 67.0 L 62.0 67.0 L 63.0 67.0 L 63.0 67.0 L 63.0 67.0 L 64.0 67.0 L 64.0 67.0 L 64.0 67.0 L 64.0 67.0 L 64.0 66.0 L 64.0 66.0 L 64.0 66.0 L 64.0 66.0 L 64.0 66.0 L 64.0 65.0 L 63.0 65.0 L 62.0 65.0 L 62.0 65.0 L 61.0 65.0 L 61.0 65.0 L 61.0 65.0 L 60.0 65.0 L 60.0 65.0 L 60.0 65.0 L 60.0 65.0 L 60.0 65.0 L 60.0 65.0 L 60.0 65.0 L 60.0 65.0 L 61.0 65.0 L 61.0 65.0 L 62.0 65.0 L 62.0 65.0 L 62.0 65.0 L 62.0 66.0 L 62.0 66.0 L 63.0 66.0 L 63.0 66.0 L 63.0 66.0 L 63.0 66.0 L 63.0 66.0 L 63.0 66.0 L 63.0 66.0 L 63.0 66.0 L 63.0 66.0 L 63.0 66.0 L 62.0 66.0 L 62.0 65.0 L 61.0 65.0 L 61.0 65.0 L 61.0 65.0 L 60.0 65.0 L 60.0 65.0 L 60.0 65.0 L 60.0 65.0 L 60.0 65.0 L 60.0 65.0 L 60.0 65.0 L 60.0 65.0 L 60.0 65.0 L 60.0 64.0 L 60.0 64.0 L 61.0 64.0 L 61.0 64.0 L 61.0 64.0 L 62.0 64.0 L 62.0 64.0 L 62.0 64.0 L 62.0 64.0 L 62.0 64.0 L 62.0 64.0 L 62.0 64.0 L 62.0 64.0 L 63.0 64.0 L 63.0 64.0 L 63.0 64.0 L 63.0 64.0 L 63.0 64.0 L 63.0 64.0 L 63.0 64.0 L 63.0 64.0 L 63.0 64.0 L 63.0 64.0 L 63.0 64.0 L 63.0 64.0 L 63.0 64.0 L 63.0 64.0 L 63.0 64.0 L 63.0 64.0 " stroke="black" fill="none" stroke-width="5.0" stroke-linecap="round" stroke-linejoin="round" />
</svg>