<svg xmlns="http://www.w3.org/2000/svg" width="300" height="300" viewBox="0 0 300 300">
<path d="M 118.0 50.0 L 118.0 50.0 L 118.0 50.0 L 118.0 50.0 L 118.0 50.0 L 119.0 49.0 L 119.0 49.0 L 119.0 49.0 L 119.0 49.0 L 119.0 49.0 L 119.0 50.0 L 119.0 50.0 L 119.0 51.0 L 120.0 51.0 L 120.0 52.0 L 120.0 53.0 L 120.0 53.0 L 121.0 54.0 L 121.0 55.0 L 121.0 56.0 L 122.0 57.0 L 123.0 58.0 L 123.0 59.0 L 124.0 60.0 L 125.0 61.0 L 127.0 61.0 L 128.0 62.0 L 129.0 63.0 L 130.0 64.0 L 131.0 64.0 L 132.0 65.0 L 133.0 66.0 L 134.0 67.0 L 135.0 68.0 L 136.0 68.0 L 137.0 69.0 L 138.0 70.0 L 139.0 70.0 L 140.0 71.0 L 141.0 71.0 L 141.0 72.0 L 142.0 72.0 L 143.0 73.0 L 144.0 74.0 L 145.0 74.0 L 146.0 75.0 L 146.0 75.0 L 147.0 76.0 L 147.0 76.0 L 148.0 77.0 L 148.0 77.0 L 149.0 77.0 L 149.0 78.0 L 150.0 78.0 L 150.0 78.0 L 151.0 79.0 L 151.0 79.0 L 152.0 79.0 L 152.0 80.0 L 152.0 80.0 L 153.0 81.0 L 153.0 81.0 L 154.0 81.0 L 154.0 82.0 L 155.0 82.0 L 155.0 83.0 L 155.0 83.0 L 156.0 84.0 L 157.0 84.0 L 157.0 84.0 L 158.0 85.0 L 158.0 85.0 L 159.0 86.0 L 159.0 86.0 L 160.0 87.0 L 161.0 87.0 L 161.0 87.0 L 162.0 88.0 L 162.0 88.0 L 163.0 89.0 L 163.0 89.0 L 164.0 89.0 L 165.0 89.0 L 165.0 90.0 L 166.0 90.0 L 166.0 90.0 L 166.0 90.0 L 167.0 91.0 L 167.0 91.0 L 167.0 91.0 L 168.0 91.0 L 168.0 91.0 L 168.0 91.0 L 168.0 92.0 L 169.0 92.0 L 169.0 92.0 L 169.0 92.0 L 169.0 92.0 L 169.0 92.0 L 169.0 92.0 L 169.0 92.0 L 169.0 92.0 L 169.0 93.0 L 170.0 93.0 L 170.0 93.0 L 170.0 93.0 L 170.0 93.0 L 170.0 93.0 L 170.0 93.0 L 170.0 93.0 L 170.0 93.0 L 170.0 93.0 L 170.0 93.0 L 170.0 93.0 L 170.0 94.0 L 170.0 94.0 L 170.0 94.0 L 170.0 94.0 L 170.0 94.0 L 170.0 94.0 L 170.0 95.0 L 170.0 95.0 L 170.0 95.0 L 170.0 95.0 L 170.0 96.0 L 170.0 96.0 L 170.0 97.0 L 170.0 97.0 L 170.0 98.0 L 170.0 99.0 L 170.0 100.0 L 170.0 101.0 L 170.0 103.0 L 170.0 104.0 L 170.0 106.0 L 170.0 108.0 L 170.0 110.0 L 170.0 112.0 L 169.0 113.0 L 169.0 115.0 L 169.0 117.0 L 169.0 119.0 L 169.0 121.0 L 169.0 123.0 L 169.0 126.0 L 169.0 128.0 L 169.0 130.0 L 169.0 133.0 L 169.0 134.0 L 169.0 136.0 L 169.0 138.0 L 170.0 139.0 L 170.0 141.0 L 170.0 142.0 L 170.0 144.0 L 170.0 146.0 L 170.0 148.0 L 170.0 150.0 L 170.0 151.0 L 170.0 153.0 L 170.0 155.0 L 170.0 156.0 L 170.0 158.0 L 170.0 159.0 L 170.0 160.0 L 170.0 162.0 L 170.0 163.0 L 170.0 164.0 L 170.0 166.0 L 170.0 167.0 L 170.0 168.0 L 170.0 169.0 L 170.0 171.0 L 170.0 172.0 L 170.0 174.0 L 170.0 175.0 L 170.0 176.0 L 170.0 177.0 L 170.0 178.0 L 170.0 179.0 L 170.0 181.0 L 170.0 182.0 L 171.0 183.0 L 171.0 184.0 L 171.0 185.0 L 171.0 186.0 L 171.0 188.0 L 172.0 188.0 L 172.0 189.0 L 172.0 190.0 L 172.0 190.0 L 172.0 190.0 L 172.0 191.0 L 172.0 191.0 L 172.0 191.0 L 172.0 192.0 L 172.0 192.0 L 172.0 193.0 L 172.0 193.0 L 172.0 193.0 L 172.0 193.0 L 172.0 194.0 L 172.0 194.0 L 172.0 194.0 L 172.0 194.0 L 171.0 194.0 L 171.0 194.0 L 171.0 194.0 L 171.0 194.0 L 171.0 195.0 L 171.0 195.0 L 171.0 195.0 L 171.0 195.0 L 170.0 195.0 L 170.0 195.0 L 170.0 195.0 L 170.0 195.0 L 170.0 195.0 L 170.0 195.0 L 170.0 195.0 L 170.0 195.0 L 170.0 195.0 L 170.0 195.0 L 170.0 195.0 L 170.0 195.0 L 170.0 195.0 L 170.0 195.0 L 170.0 195.0 L 170.0 195.0 L 170.0 195.0 L 170.0 195.0 L 170.0 195.0 L 170.0 195.0 L 170.0 195.0 L 170.0 195.0 L 170.0 195.0 L 170.0 195.0 L 170.0 195.0 L 169.0 196.0 L 169.0 196.0 L 169.0 196.0 L 169.0 196.0 L 169.0 196.0 L 168.0 196.0 L 168.0 197.0 L 168.0 197.0 L 167.0 197.0 L 167.0 197.0 L 166.0 197.0 L 166.0 198.0 L 165.0 198.0 L 165.0 198.0 L 164.0 199.0 L 163.0 199.0 L 162.0 200.0 L 161.0 200.0 L 161.0 201.0 L 160.0 202.0 L 159.0 203.0 L 158.0 204.0 L 157.0 205.0 L 156.0 206.0 L 155.0 206.0 L 155.0 207.0 L 154.0 209.0 L 153.0 210.0 L 152.0 211.0 L 151.0 212.0 L 150.0 214.0 L 150.0 215.0 L 149.0 216.0 L 148.0 217.0 L 147.0 218.0 L 146.0 219.0 L 145.0 220.0 L 144.0 221.0 L 142.0 223.0 L 141.0 224.0 L 139.0 226.0 L 138.0 227.0 L 136.0 229.0 L 135.0 231.0 L 133.0 232.0 L 132.0 233.0 L 131.0 234.0 L 129.0 235.0 L 128.0 236.0 L 127.0 237.0 L 126.0 238.0 L 126.0 238.0 L 125.0 239.0 L 124.0 239.0 L 123.0 240.0 L 123.0 240.0 L 123.0 240.0 L 122.0 241.0 L 122.0 241.0 L 121.0 241.0 L 121.0 241.0 L 121.0 241.0 L 121.0 241.0 L 120.0 241.0 L 120.0 240.0 L 120.0 239.0 " stroke="black" fill="none" stroke-width="5.0" stroke-linecap="round" stroke-linejoin="round" />
<path d="M 139.0 76.0 L 139.0 76.0 L 139.0 76.0 L 139.0 77.0 L 139.0 77.0 L 139.0 77.0 L 139.0 77.0 L 139.0 77.0 L 139.0 78.0 L 139.0 78.0 L 139.0 78.0 L 139.0 78.0 L 139.0 78.0 L 139.0 79.0 L 139.0 79.0 L 139.0 79.0 L 139.0 80.0 L 139.0 80.0 L 139.0 81.0 L 139.0 81.0 L 139.0 82.0 L 140.0 83.0 L 140.0 85.0 L 140.0 86.0 L 140.0 88.0 L 140.0 89.0 L 141.0 91.0 L 141.0 93.0 L 141.0 96.0 L 141.0 98.0 L 141.0 101.0 L 141.0 103.0 L 141.0 106.0 L 141.0 109.0 L 141.0 111.0 L 141.0 114.0 L 141.0 116.0 L 141.0 118.0 L 141.0 120.0 L 141.0 122.0 L 141.0 123.0 L 141.0 125.0 L 141.0 127.0 L 141.0 128.0 L 141.0 130.0 L 141.0 131.0 L 141.0 133.0 L 141.0 134.0 L 141.0 136.0 L 141.0 138.0 L 141.0 140.0 L 141.0 142.0 L 141.0 144.0 L 141.0 145.0 L 141.0 148.0 L 141.0 149.0 L 141.0 151.0 L 141.0 153.0 L 141.0 155.0 L 141.0 157.0 L 141.0 158.0 L 141.0 160.0 L 141.0 161.0 L 141.0 163.0 L 141.0 165.0 L 140.0 166.0 L 140.0 168.0 L 140.0 169.0 L 140.0 171.0 L 140.0 172.0 L 140.0 173.0 L 140.0 175.0 L 140.0 177.0 L 140.0 178.0 L 140.0 179.0 L 140.0 181.0 L 140.0 183.0 L 140.0 184.0 L 140.0 186.0 L 140.0 187.0 L 140.0 189.0 L 141.0 190.0 L 141.0 191.0 L 141.0 193.0 L 141.0 194.0 L 141.0 195.0 L 141.0 196.0 L 141.0 197.0 L 141.0 198.0 L 141.0 199.0 L 141.0 200.0 L 141.0 201.0 L 141.0 202.0 L 141.0 203.0 L 141.0 204.0 L 141.0 205.0 L 141.0 206.0 L 141.0 206.0 L 141.0 207.0 L 141.0 208.0 L 141.0 208.0 L 141.0 209.0 L 141.0 209.0 L 141.0 210.0 L 141.0 210.0 L 141.0 211.0 L 141.0 211.0 L 141.0 211.0 L 141.0 211.0 L 141.0 211.0 L 141.0 211.0 L 141.0 211.0 L 141.0 212.0 L 141.0 212.0 L 141.0 212.0 L 141.0 212.0 L 141.0 212.0 L 141.0 213.0 L 141.0 213.0 L 141.0 213.0 L 141.0 214.0 L 141.0 214.0 L 141.0 214.0 L 141.0 215.0 L 141.0 215.0 L 141.0 215.0 L 141.0 216.0 L 141.0 216.0 L 141.0 216.0 L 141.0 216.0 L 141.0 217.0 L 141.0 217.0 L 141.0 218.0 L 141.0 218.0 L 141.0 218.0 L 141.0 219.0 L 141.0 219.0 L 141.0 219.0 L 141.0 219.0 L 141.0 220.0 L 141.0 220.0 L 141.0 220.0 L 141.0 220.0 L 141.0 220.0 L 141.0 220.0 L 141.0 220.0 L 141.0 220.0 L 141.0 220.0 L 141.0 220.0 L 141.0 220.0 L 141.0 220.0 L 141.0 220.0 L 141.0 220.0 L 141.0 220.0 L 141.0 220.0 L 141.0 220.0 " stroke="black" fill="none" stroke-width="10.0" stroke-linecap="round" stroke-linejoin="round" />
</svg>