<svg xmlns="http://www.w3.org/2000/svg" width="300" height="300" viewBox="0 0 300 300">
<path d="M 86.0 139.0 L 86.0 139.0 L 86.0 139.0 L 86.0 139.0 L 86.0 139.0 L 86.0 139.0 L 86.0 140.0 L 86.0 141.0 L 86.0 142.0 L 86.0 144.0 L 87.0 146.0 L 88.0 150.0 L 89.0 154.0 L 89.0 158.0 L 90.0 163.0 L 91.0 169.0 L 92.0 175.0 L 92.0 181.0 L 93.0 188.0 L 94.0 193.0 L 95.0 197.0 L 96.0 201.0 L 97.0 203.0 L 98.0 204.0 L 100.0 204.0 L 101.0 204.0 L 102.0 202.0 L 104.0 200.0 L 106.0 198.0 L 108.0 195.0 L 111.0 192.0 L 114.0 189.0 L 117.0 185.0 L 122.0 180.0 L 128.0 175.0 L 136.0 169.0 L 144.0 162.0 L 150.0 156.0 L 156.0 150.0 L 163.0 142.0 L 171.0 134.0 L 181.0 126.0 L 191.0 117.0 L 197.0 111.0 L 202.0 105.0 L 207.0 99.0 L 208.0 98.0 " stroke="black" fill="none" stroke-width="20.0" stroke-linecap="round" stroke-linejoin="round" />
</svg>