<svg xmlns="http://www.w3.org/2000/svg" width="300" height="300" viewBox="0 0 300 300">
<path d="M 107.0 107.0 L 107.0 107.0 L 107.0 107.0 L 107.0 107.0 L 107.0 107.0 L 107.0 107.0 L 107.0 107.0 L 107.0 107.0 L 107.0 107.0 L 107.0 107.0 L 107.0 107.0 L 107.0 107.0 L 107.0 107.0 L 107.0 107.0 L 107.0 107.0 L 107.0 107.0 L 107.0 107.0 L 107.0 107.0 L 107.0 108.0 L 107.0 108.0 L 107.0 109.0 L 107.0 110.0 L 107.0 110.0 L 107.0 111.0 L 107.0 112.0 L 107.0 113.0 L 107.0 114.0 L 107.0 114.0 L 107.0 115.0 L 107.0 116.0 L 107.0 117.0 L 107.0 118.0 L 107.0 118.0 L 107.0 119.0 L 107.0 120.0 L 107.0 120.0 L 107.0 121.0 L 107.0 121.0 L 107.0 122.0 L 107.0 123.0 L 107.0 123.0 L 107.0 124.0 L 107.0 125.0 L 107.0 126.0 L 107.0 126.0 L 107.0 127.0 L 107.0 128.0 L 107.0 128.0 L 107.0 129.0 L 106.0 129.0 L 106.0 130.0 L 106.0 131.0 L 106.0 131.0 L 106.0 132.0 L 106.0 132.0 L 106.0 133.0 L 106.0 134.0 L 106.0 135.0 L 106.0 135.0 L 106.0 136.0 L 106.0 137.0 L 106.0 137.0 L 106.0 138.0 L 106.0 138.0 L 105.0 139.0 L 105.0 140.0 L 105.0 140.0 L 105.0 141.0 L 105.0 142.0 L 105.0 142.0 L 105.0 143.0 L 105.0 144.0 L 105.0 144.0 L 105.0 145.0 L 105.0 145.0 L 105.0 146.0 L 105.0 146.0 L 105.0 147.0 L 105.0 147.0 L 105.0 148.0 L 105.0 148.0 L 105.0 149.0 L 105.0 149.0 L 104.0 149.0 L 104.0 150.0 L 104.0 150.0 L 104.0 150.0 L 104.0 151.0 L 104.0 151.0 L 104.0 152.0 L 104.0 152.0 L 104.0 152.0 L 104.0 152.0 L 104.0 153.0 L 104.0 153.0 L 104.0 153.0 L 104.0 153.0 L 104.0 153.0 L 104.0 154.0 L 104.0 154.0 L 104.0 154.0 L 104.0 154.0 L 104.0 154.0 L 104.0 154.0 L 104.0 154.0 L 104.0 154.0 L 104.0 154.0 L 104.0 154.0 L 104.0 154.0 L 104.0 154.0 L 104.0 154.0 L 104.0 154.0 L 104.0 154.0 L 104.0 154.0 L 104.0 154.0 L 104.0 154.0 L 104.0 154.0 L 104.0 154.0 L 104.0 154.0 L 104.0 154.0 L 104.0 154.0 L 104.0 154.0 L 104.0 154.0 L 104.0 154.0 L 104.0 154.0 L 104.0 154.0 L 104.0 154.0 L 104.0 154.0 L 104.0 154.0 L 104.0 154.0 L 104.0 154.0 L 104.0 154.0 L 104.0 154.0 L 104.0 154.0 L 104.0 154.0 L 104.0 154.0 L 104.0 154.0 L 104.0 154.0 L 104.0 154.0 L 104.0 154.0 L 104.0 153.0 L 104.0 153.0 L 105.0 153.0 L 105.0 153.0 L 105.0 153.0 L 105.0 153.0 L 105.0 152.0 L 105.0 152.0 L 106.0 152.0 L 106.0 152.0 L 106.0 151.0 L 106.0 151.0 L 107.0 151.0 L 107.0 150.0 L 107.0 150.0 L 107.0 149.0 L 108.0 149.0 L 108.0 149.0 L 108.0 148.0 L 109.0 148.0 L 109.0 147.0 L 109.0 147.0 L 110.0 147.0 L 110.0 146.0 L 110.0 146.0 L 110.0 146.0 L 111.0 145.0 L 111.0 145.0 L 111.0 144.0 L 112.0 144.0 L 112.0 144.0 L 112.0 143.0 L 113.0 143.0 L 113.0 143.0 L 113.0 142.0 L 113.0 142.0 L 114.0 142.0 L 114.0 141.0 L 114.0 141.0 L 114.0 141.0 L 115.0 141.0 L 115.0 140.0 L 115.0 140.0 L 115.0 140.0 L 116.0 139.0 L 116.0 139.0 L 116.0 139.0 L 116.0 138.0 L 117.0 138.0 L 117.0 138.0 L 117.0 138.0 L 117.0 138.0 L 117.0 138.0 L 117.0 138.0 L 117.0 138.0 L 117.0 138.0 L 117.0 138.0 L 117.0 138.0 L 117.0 138.0 L 117.0 138.0 L 117.0 138.0 L 117.0 138.0 L 117.0 138.0 L 117.0 138.0 L 117.0 138.0 L 117.0 138.0 L 117.0 139.0 L 117.0 139.0 L 117.0 139.0 L 117.0 139.0 L 117.0 139.0 L 117.0 139.0 L 117.0 139.0 L 117.0 140.0 L 117.0 140.0 L 117.0 140.0 L 118.0 140.0 L 118.0 140.0 L 118.0 140.0 L 118.0 141.0 L 118.0 141.0 L 118.0 141.0 L 118.0 141.0 L 118.0 141.0 L 118.0 142.0 L 118.0 142.0 L 119.0 142.0 L 119.0 142.0 L 119.0 143.0 L 119.0 143.0 L 119.0 143.0 L 120.0 143.0 L 120.0 144.0 L 120.0 144.0 L 121.0 144.0 L 121.0 145.0 L 121.0 145.0 L 121.0 145.0 L 122.0 146.0 L 122.0 146.0 L 123.0 146.0 L 123.0 147.0 L 123.0 147.0 L 124.0 147.0 L 124.0 148.0 L 125.0 148.0 L 125.0 148.0 L 126.0 149.0 L 126.0 149.0 L 126.0 150.0 L 127.0 150.0 L 127.0 150.0 L 128.0 151.0 L 128.0 151.0 L 129.0 151.0 L 129.0 152.0 L 130.0 152.0 L 130.0 152.0 L 130.0 153.0 L 131.0 153.0 L 131.0 153.0 L 132.0 154.0 L 132.0 154.0 L 133.0 154.0 L 133.0 155.0 L 134.0 155.0 L 134.0 155.0 L 134.0 156.0 L 135.0 156.0 L 135.0 156.0 L 136.0 157.0 L 136.0 157.0 L 137.0 157.0 L 137.0 158.0 L 137.0 158.0 L 138.0 159.0 L 138.0 159.0 L 139.0 159.0 L 139.0 160.0 L 139.0 160.0 L 140.0 160.0 L 140.0 161.0 L 141.0 161.0 L 141.0 161.0 L 141.0 162.0 L 142.0 162.0 L 142.0 162.0 L 142.0 163.0 L 143.0 163.0 L 143.0 163.0 L 143.0 164.0 L 144.0 164.0 L 144.0 164.0 L 144.0 164.0 L 145.0 165.0 L 145.0 165.0 L 145.0 165.0 L 146.0 166.0 L 146.0 166.0 L 146.0 166.0 L 146.0 167.0 L 147.0 167.0 L 147.0 167.0 L 147.0 167.0 L 147.0 168.0 L 148.0 168.0 L 148.0 168.0 L 148.0 168.0 L 148.0 169.0 L 148.0 169.0 L 149.0 169.0 L 149.0 169.0 L 149.0 170.0 L 149.0 170.0 L 149.0 170.0 L 149.0 171.0 L 150.0 171.0 L 150.0 171.0 L 150.0 171.0 L 150.0 172.0 L 150.0 172.0 L 150.0 172.0 L 151.0 172.0 L 151.0 173.0 L 151.0 173.0 L 151.0 173.0 L 151.0 173.0 L 152.0 174.0 L 152.0 174.0 L 152.0 174.0 L 152.0 175.0 L 152.0 175.0 L 153.0 175.0 L 153.0 176.0 L 153.0 176.0 L 153.0 176.0 L 153.0 176.0 L 153.0 177.0 L 154.0 177.0 L 154.0 177.0 L 154.0 178.0 L 154.0 178.0 L 155.0 178.0 L 155.0 178.0 L 155.0 179.0 L 155.0 179.0 L 155.0 179.0 L 156.0 180.0 L 156.0 180.0 L 156.0 180.0 L 156.0 180.0 L 157.0 181.0 L 157.0 181.0 L 157.0 182.0 L 157.0 182.0 L 157.0 182.0 L 158.0 182.0 L 158.0 183.0 L 158.0 183.0 L 158.0 184.0 L 159.0 184.0 L 159.0 184.0 L 159.0 184.0 L 159.0 185.0 L 160.0 185.0 L 160.0 185.0 L 160.0 186.0 L 160.0 186.0 L 161.0 186.0 L 161.0 187.0 L 161.0 187.0 L 161.0 187.0 L 162.0 187.0 L 162.0 188.0 L 162.0 188.0 L 162.0 188.0 L 163.0 188.0 L 163.0 189.0 L 163.0 189.0 L 164.0 189.0 L 164.0 189.0 L 164.0 190.0 L 164.0 190.0 L 165.0 190.0 L 165.0 190.0 L 165.0 191.0 L 165.0 191.0 L 166.0 191.0 L 166.0 191.0 L 166.0 191.0 L 166.0 192.0 L 167.0 192.0 L 167.0 192.0 L 167.0 192.0 L 167.0 192.0 L 167.0 193.0 L 168.0 193.0 L 168.0 193.0 L 168.0 193.0 L 168.0 193.0 L 168.0 193.0 L 169.0 194.0 L 169.0 194.0 L 169.0 194.0 L 169.0 194.0 L 169.0 194.0 L 170.0 194.0 L 170.0 195.0 L 170.0 195.0 L 170.0 195.0 L 170.0 195.0 L 171.0 195.0 L 171.0 195.0 L 171.0 195.0 L 171.0 195.0 L 171.0 195.0 L 171.0 196.0 L 171.0 196.0 L 172.0 196.0 L 172.0 196.0 L 172.0 196.0 L 172.0 196.0 L 172.0 196.0 L 173.0 196.0 L 173.0 196.0 L 173.0 197.0 L 173.0 197.0 L 173.0 197.0 L 173.0 197.0 L 174.0 197.0 L 174.0 197.0 L 174.0 197.0 L 174.0 197.0 L 174.0 197.0 L 174.0 197.0 L 174.0 197.0 L 175.0 197.0 L 175.0 197.0 L 175.0 197.0 L 175.0 197.0 L 175.0 197.0 L 175.0 197.0 L 175.0 197.0 L 175.0 197.0 L 175.0 196.0 " stroke="black" fill="none" stroke-width="6.0" stroke-linecap="round" stroke-linejoin="round" />
<path d="M 109.0 107.0 L 109.0 107.0 L 109.0 107.0 L 109.0 107.0 L 109.0 106.0 L 109.0 106.0 L 109.0 106.0 L 109.0 106.0 L 109.0 106.0 L 109.0 105.0 L 109.0 105.0 L 108.0 105.0 L 108.0 105.0 L 108.0 105.0 L 108.0 105.0 L 108.0 105.0 L 108.0 105.0 L 108.0 105.0 L 108.0 105.0 L 108.0 105.0 L 108.0 105.0 L 108.0 105.0 L 108.0 105.0 L 108.0 105.0 L 108.0 105.0 L 108.0 105.0 L 109.0 105.0 L 109.0 105.0 L 109.0 105.0 L 109.0 105.0 L 110.0 105.0 L 110.0 105.0 L 110.0 105.0 L 110.0 105.0 L 111.0 105.0 L 111.0 105.0 L 112.0 105.0 L 112.0 105.0 L 112.0 105.0 L 113.0 105.0 L 113.0 105.0 L 114.0 105.0 L 114.0 105.0 L 115.0 105.0 L 115.0 105.0 L 116.0 105.0 L 116.0 105.0 L 117.0 105.0 L 118.0 105.0 L 118.0 105.0 L 119.0 105.0 L 119.0 105.0 L 120.0 105.0 L 120.0 105.0 L 121.0 105.0 L 121.0 105.0 L 122.0 105.0 L 122.0 105.0 L 123.0 105.0 L 123.0 105.0 L 124.0 105.0 L 124.0 105.0 L 125.0 105.0 L 125.0 105.0 L 126.0 105.0 L 126.0 105.0 L 127.0 105.0 L 127.0 105.0 L 128.0 104.0 L 128.0 104.0 L 129.0 104.0 L 129.0 104.0 L 130.0 104.0 L 130.0 104.0 L 131.0 104.0 L 131.0 104.0 L 132.0 104.0 L 133.0 104.0 L 133.0 104.0 L 134.0 104.0 L 134.0 104.0 L 135.0 104.0 L 135.0 104.0 L 136.0 103.0 L 137.0 103.0 L 137.0 103.0 L 138.0 103.0 L 139.0 103.0 L 139.0 103.0 L 140.0 103.0 L 140.0 103.0 L 141.0 103.0 L 142.0 103.0 L 143.0 103.0 L 143.0 103.0 L 144.0 102.0 L 144.0 102.0 L 145.0 102.0 L 146.0 102.0 L 146.0 102.0 L 147.0 102.0 L 147.0 102.0 L 148.0 102.0 L 148.0 102.0 L 148.0 102.0 L 149.0 102.0 L 149.0 102.0 L 150.0 102.0 L 150.0 102.0 L 150.0 102.0 L 151.0 102.0 L 151.0 102.0 L 151.0 102.0 L 152.0 102.0 L 152.0 102.0 L 152.0 102.0 L 152.0 102.0 L 153.0 102.0 L 153.0 102.0 L 153.0 102.0 L 153.0 102.0 L 153.0 102.0 L 153.0 102.0 L 153.0 102.0 L 153.0 102.0 L 154.0 102.0 L 154.0 102.0 L 154.0 102.0 L 154.0 102.0 L 154.0 102.0 L 154.0 102.0 L 154.0 102.0 L 154.0 102.0 L 154.0 102.0 L 154.0 102.0 L 154.0 102.0 L 154.0 102.0 L 154.0 103.0 L 154.0 103.0 L 154.0 103.0 L 153.0 103.0 L 153.0 103.0 L 153.0 103.0 L 153.0 104.0 L 152.0 104.0 L 152.0 104.0 L 152.0 104.0 L 152.0 105.0 L 151.0 105.0 L 151.0 105.0 L 151.0 106.0 L 150.0 106.0 L 150.0 106.0 L 150.0 107.0 L 149.0 107.0 L 149.0 107.0 L 149.0 108.0 L 148.0 108.0 L 148.0 109.0 L 147.0 109.0 L 147.0 110.0 L 146.0 110.0 L 146.0 111.0 L 145.0 111.0 L 145.0 112.0 L 145.0 112.0 L 144.0 113.0 L 144.0 113.0 L 143.0 114.0 L 143.0 114.0 L 143.0 114.0 L 142.0 115.0 L 142.0 115.0 L 142.0 116.0 L 141.0 116.0 L 141.0 116.0 L 141.0 116.0 L 141.0 117.0 L 140.0 117.0 L 140.0 117.0 L 140.0 117.0 L 140.0 118.0 L 140.0 118.0 L 140.0 118.0 L 140.0 118.0 L 140.0 118.0 L 140.0 118.0 L 140.0 118.0 L 140.0 118.0 L 140.0 118.0 L 140.0 118.0 L 140.0 118.0 L 140.0 118.0 L 140.0 118.0 L 140.0 118.0 L 140.0 118.0 L 140.0 118.0 L 140.0 118.0 L 140.0 118.0 L 140.0 118.0 L 140.0 118.0 L 140.0 118.0 L 140.0 118.0 L 141.0 118.0 L 141.0 118.0 L 141.0 118.0 L 141.0 118.0 L 141.0 118.0 L 141.0 118.0 L 141.0 118.0 L 142.0 118.0 L 142.0 118.0 L 142.0 118.0 L 142.0 118.0 L 142.0 118.0 L 143.0 118.0 L 143.0 119.0 L 143.0 119.0 L 144.0 119.0 L 144.0 120.0 L 144.0 120.0 L 145.0 120.0 L 145.0 121.0 L 145.0 121.0 L 146.0 122.0 L 146.0 122.0 L 147.0 122.0 L 147.0 123.0 L 148.0 123.0 L 148.0 124.0 L 148.0 124.0 L 149.0 125.0 L 149.0 125.0 L 150.0 125.0 L 150.0 126.0 L 150.0 126.0 L 151.0 127.0 L 151.0 127.0 L 152.0 127.0 L 152.0 128.0 L 152.0 128.0 L 153.0 128.0 L 153.0 129.0 L 154.0 129.0 L 154.0 130.0 L 155.0 130.0 L 155.0 130.0 L 156.0 131.0 L 156.0 131.0 L 157.0 132.0 L 157.0 132.0 L 158.0 132.0 L 159.0 133.0 L 159.0 133.0 L 160.0 134.0 L 160.0 134.0 L 161.0 135.0 L 162.0 135.0 L 162.0 136.0 L 163.0 136.0 L 164.0 137.0 L 164.0 137.0 L 165.0 138.0 L 166.0 138.0 L 166.0 139.0 L 167.0 139.0 L 168.0 140.0 L 169.0 141.0 L 169.0 141.0 L 170.0 142.0 L 171.0 142.0 L 172.0 143.0 L 172.0 143.0 L 173.0 144.0 L 174.0 144.0 L 175.0 145.0 L 176.0 146.0 L 176.0 146.0 L 177.0 147.0 L 178.0 147.0 L 178.0 148.0 L 179.0 148.0 L 180.0 148.0 L 180.0 149.0 L 181.0 149.0 L 181.0 150.0 L 182.0 150.0 L 182.0 150.0 L 183.0 151.0 L 183.0 151.0 L 184.0 152.0 L 184.0 152.0 L 185.0 152.0 L 185.0 153.0 L 186.0 153.0 L 186.0 153.0 L 187.0 154.0 L 187.0 154.0 L 187.0 154.0 L 188.0 155.0 L 188.0 155.0 L 188.0 155.0 L 189.0 156.0 L 189.0 156.0 L 189.0 156.0 L 190.0 157.0 L 190.0 157.0 L 190.0 158.0 L 191.0 158.0 L 191.0 158.0 L 191.0 159.0 L 192.0 159.0 L 192.0 160.0 L 192.0 160.0 L 192.0 160.0 L 193.0 161.0 L 193.0 161.0 L 193.0 162.0 L 193.0 162.0 L 194.0 162.0 L 194.0 163.0 L 194.0 163.0 L 194.0 163.0 L 195.0 164.0 L 195.0 164.0 L 195.0 164.0 L 195.0 165.0 L 196.0 165.0 L 196.0 165.0 L 196.0 166.0 L 196.0 166.0 L 197.0 166.0 L 197.0 167.0 L 197.0 167.0 L 197.0 167.0 L 198.0 168.0 L 198.0 168.0 L 198.0 168.0 L 198.0 169.0 L 198.0 169.0 L 199.0 169.0 L 199.0 170.0 L 199.0 170.0 L 199.0 170.0 L 200.0 171.0 L 200.0 171.0 L 200.0 171.0 L 200.0 172.0 L 200.0 172.0 L 201.0 172.0 L 201.0 172.0 L 201.0 173.0 L 201.0 173.0 L 201.0 173.0 L 201.0 173.0 L 201.0 173.0 L 201.0 173.0 L 201.0 173.0 L 201.0 174.0 L 202.0 174.0 L 202.0 174.0 L 202.0 174.0 L 202.0 174.0 L 202.0 174.0 L 202.0 174.0 L 202.0 174.0 L 202.0 174.0 L 202.0 174.0 L 202.0 174.0 L 202.0 174.0 L 202.0 174.0 L 202.0 174.0 L 202.0 174.0 L 202.0 174.0 L 202.0 174.0 L 202.0 174.0 L 202.0 174.0 L 202.0 174.0 L 202.0 174.0 L 201.0 174.0 L 201.0 174.0 L 201.0 174.0 L 201.0 174.0 L 201.0 174.0 L 201.0 174.0 L 201.0 174.0 L 200.0 175.0 L 200.0 175.0 L 200.0 175.0 L 200.0 175.0 L 199.0 175.0 L 199.0 175.0 L 199.0 175.0 L 198.0 176.0 L 198.0 176.0 L 198.0 176.0 L 197.0 177.0 L 197.0 177.0 L 196.0 177.0 L 196.0 178.0 L 196.0 178.0 L 195.0 179.0 L 194.0 180.0 L 194.0 180.0 L 193.0 181.0 L 192.0 182.0 L 191.0 183.0 L 191.0 184.0 L 190.0 185.0 L 189.0 186.0 L 188.0 187.0 L 188.0 188.0 L 187.0 189.0 L 186.0 190.0 L 186.0 190.0 L 185.0 191.0 L 184.0 192.0 L 184.0 192.0 L 183.0 192.0 L 182.0 193.0 L 182.0 193.0 L 182.0 193.0 L 181.0 194.0 L 181.0 194.0 L 181.0 194.0 L 181.0 194.0 L 181.0 194.0 L 181.0 194.0 L 181.0 194.0 L 181.0 194.0 L 181.0 194.0 L 181.0 194.0 L 181.0 194.0 L 181.0 194.0 L 181.0 194.0 L 181.0 194.0 L 181.0 194.0 L 181.0 194.0 L 181.0 194.0 L 181.0 194.0 L 181.0 194.0 L 181.0 194.0 L 181.0 194.0 L 181.0 194.0 L 181.0 194.0 L 181.0 193.0 " stroke="black" fill="none" stroke-width="6.0" stroke-linecap="round" stroke-linejoin="round" />
<path d="M 179.0 197.0 L 179.0 197.0 L 179.0 197.0 L 179.0 197.0 L 179.0 197.0 L 180.0 197.0 L 180.0 196.0 L 180.0 196.0 L 180.0 195.0 L 180.0 195.0 L 181.0 194.0 L 181.0 194.0 L 181.0 193.0 L 182.0 193.0 L 182.0 192.0 L 183.0 192.0 L 184.0 191.0 L 184.0 190.0 L 185.0 189.0 L 186.0 188.0 L 187.0 187.0 " stroke="black" fill="none" stroke-width="6.0" stroke-linecap="round" stroke-linejoin="round" />
<path d="M 115.0 114.0 L 115.0 114.0 L 115.0 114.0 L 115.0 114.0 L 115.0 114.0 L 115.0 114.0 L 114.0 114.0 L 114.0 114.0 L 114.0 115.0 L 114.0 115.0 L 114.0 116.0 L 114.0 118.0 L 114.0 120.0 L 114.0 122.0 L 113.0 125.0 L 113.0 127.0 L 113.0 129.0 L 113.0 131.0 L 113.0 132.0 L 113.0 132.0 L 113.0 132.0 L 113.0 130.0 L 114.0 128.0 L 114.0 125.0 L 114.0 123.0 L 115.0 121.0 L 115.0 119.0 L 115.0 117.0 L 115.0 116.0 L 116.0 115.0 L 116.0 114.0 L 116.0 114.0 L 116.0 114.0 L 116.0 114.0 L 116.0 114.0 L 116.0 115.0 L 115.0 116.0 L 115.0 118.0 L 115.0 120.0 L 114.0 121.0 L 114.0 123.0 L 114.0 125.0 L 114.0 127.0 L 113.0 128.0 L 113.0 129.0 L 113.0 129.0 L 113.0 129.0 L 113.0 129.0 L 113.0 129.0 L 113.0 127.0 L 114.0 125.0 L 114.0 123.0 L 115.0 121.0 L 115.0 120.0 L 115.0 118.0 L 115.0 117.0 L 116.0 116.0 L 116.0 116.0 L 116.0 115.0 L 116.0 115.0 L 116.0 115.0 L 115.0 117.0 L 115.0 118.0 L 114.0 120.0 L 113.0 122.0 L 113.0 125.0 L 112.0 127.0 L 112.0 129.0 L 111.0 131.0 L 111.0 133.0 L 111.0 134.0 L 110.0 135.0 L 110.0 135.0 L 110.0 135.0 L 110.0 135.0 L 110.0 134.0 L 110.0 132.0 L 110.0 131.0 L 110.0 130.0 L 110.0 128.0 L 111.0 127.0 L 111.0 126.0 L 111.0 126.0 L 111.0 125.0 L 111.0 125.0 L 111.0 125.0 L 111.0 125.0 L 111.0 125.0 L 111.0 127.0 L 110.0 129.0 L 110.0 131.0 L 109.0 133.0 L 109.0 135.0 L 109.0 137.0 L 109.0 138.0 L 108.0 140.0 L 108.0 141.0 L 108.0 141.0 L 108.0 141.0 L 108.0 141.0 L 109.0 139.0 L 109.0 138.0 L 110.0 136.0 L 110.0 134.0 L 110.0 133.0 L 111.0 132.0 L 111.0 131.0 L 111.0 130.0 L 111.0 129.0 L 111.0 129.0 L 111.0 129.0 L 111.0 128.0 L 111.0 128.0 L 111.0 128.0 L 111.0 129.0 L 111.0 129.0 L 111.0 131.0 L 111.0 132.0 L 110.0 134.0 L 110.0 136.0 L 110.0 137.0 L 109.0 139.0 L 109.0 140.0 L 109.0 141.0 L 109.0 142.0 L 109.0 142.0 L 109.0 142.0 L 110.0 141.0 L 110.0 140.0 L 111.0 138.0 L 111.0 137.0 L 112.0 135.0 L 112.0 134.0 L 112.0 133.0 L 113.0 132.0 L 113.0 131.0 L 113.0 130.0 L 114.0 130.0 L 114.0 129.0 L 114.0 129.0 L 114.0 129.0 L 114.0 128.0 L 114.0 128.0 L 114.0 128.0 L 114.0 128.0 L 114.0 128.0 L 114.0 128.0 L 114.0 128.0 L 114.0 128.0 L 114.0 127.0 L 114.0 126.0 L 114.0 125.0 L 114.0 124.0 L 114.0 123.0 L 114.0 122.0 L 114.0 120.0 L 114.0 119.0 L 115.0 118.0 L 115.0 117.0 L 115.0 116.0 L 115.0 115.0 L 115.0 114.0 L 115.0 114.0 L 115.0 113.0 L 115.0 113.0 L 115.0 112.0 L 115.0 112.0 L 115.0 112.0 L 115.0 112.0 L 115.0 112.0 L 115.0 112.0 L 115.0 112.0 L 115.0 112.0 L 115.0 113.0 L 115.0 114.0 L 115.0 114.0 L 115.0 114.0 L 115.0 115.0 L 115.0 115.0 L 115.0 116.0 L 115.0 116.0 L 115.0 116.0 L 115.0 116.0 L 115.0 117.0 L 114.0 117.0 L 114.0 117.0 L 114.0 117.0 L 114.0 117.0 L 114.0 117.0 L 114.0 117.0 L 114.0 117.0 L 114.0 117.0 L 114.0 117.0 L 114.0 116.0 L 114.0 116.0 L 114.0 116.0 L 114.0 116.0 L 114.0 116.0 L 114.0 116.0 L 114.0 116.0 L 114.0 116.0 L 114.0 116.0 L 114.0 116.0 L 114.0 116.0 L 114.0 116.0 L 114.0 117.0 L 114.0 117.0 L 114.0 117.0 L 114.0 117.0 L 114.0 117.0 L 114.0 117.0 L 114.0 118.0 L 114.0 118.0 L 114.0 118.0 L 114.0 118.0 L 114.0 118.0 L 114.0 118.0 L 114.0 118.0 L 114.0 117.0 L 114.0 117.0 L 114.0 117.0 L 114.0 116.0 L 114.0 116.0 L 114.0 116.0 L 114.0 116.0 L 114.0 115.0 L 114.0 115.0 L 114.0 115.0 L 114.0 115.0 L 114.0 115.0 L 114.0 115.0 L 114.0 115.0 L 114.0 115.0 L 114.0 116.0 L 113.0 116.0 L 113.0 116.0 L 113.0 117.0 L 113.0 117.0 L 113.0 117.0 L 113.0 117.0 L 113.0 118.0 L 113.0 118.0 L 113.0 118.0 L 112.0 118.0 L 112.0 118.0 L 112.0 118.0 L 112.0 118.0 L 112.0 118.0 L 112.0 117.0 L 112.0 117.0 L 112.0 117.0 L 112.0 117.0 L 112.0 116.0 L 112.0 116.0 L 112.0 116.0 L 112.0 116.0 L 112.0 116.0 L 112.0 116.0 L 112.0 116.0 L 112.0 117.0 L 112.0 117.0 L 112.0 117.0 L 112.0 118.0 L 112.0 118.0 L 112.0 118.0 L 112.0 118.0 L 112.0 118.0 L 112.0 118.0 L 112.0 118.0 L 112.0 118.0 L 112.0 118.0 L 112.0 118.0 L 112.0 118.0 L 112.0 118.0 L 112.0 118.0 L 112.0 117.0 L 112.0 117.0 L 112.0 117.0 L 112.0 116.0 L 112.0 116.0 L 112.0 116.0 L 112.0 116.0 L 112.0 116.0 L 112.0 116.0 L 112.0 116.0 L 112.0 116.0 L 112.0 116.0 L 113.0 116.0 L 113.0 116.0 L 113.0 117.0 L 114.0 117.0 L 114.0 117.0 L 114.0 117.0 L 114.0 118.0 L 114.0 118.0 L 114.0 118.0 L 114.0 118.0 L 114.0 118.0 L 114.0 118.0 L 114.0 118.0 L 114.0 118.0 L 114.0 117.0 L 114.0 117.0 L 114.0 117.0 L 114.0 117.0 L 114.0 117.0 L 114.0 117.0 L 114.0 117.0 L 114.0 118.0 L 114.0 118.0 L 115.0 119.0 L 115.0 121.0 L 117.0 123.0 L 118.0 125.0 L 120.0 128.0 L 122.0 130.0 L 124.0 132.0 L 126.0 133.0 L 127.0 134.0 L 128.0 134.0 L 129.0 134.0 L 129.0 134.0 L 129.0 134.0 L 128.0 133.0 L 127.0 132.0 L 125.0 131.0 L 124.0 130.0 L 123.0 129.0 L 121.0 128.0 L 120.0 127.0 L 120.0 126.0 L 119.0 126.0 L 118.0 125.0 L 118.0 125.0 L 118.0 125.0 L 118.0 125.0 L 118.0 126.0 L 118.0 127.0 L 119.0 128.0 L 120.0 129.0 L 121.0 130.0 L 122.0 131.0 L 123.0 132.0 L 123.0 132.0 L 124.0 132.0 L 124.0 132.0 L 124.0 132.0 L 124.0 132.0 L 124.0 132.0 L 123.0 131.0 L 121.0 130.0 L 120.0 128.0 L 119.0 127.0 L 117.0 126.0 L 116.0 125.0 L 115.0 124.0 L 115.0 123.0 L 114.0 123.0 L 114.0 123.0 L 114.0 123.0 L 114.0 125.0 L 115.0 126.0 L 116.0 128.0 L 118.0 130.0 L 119.0 132.0 L 120.0 134.0 L 121.0 135.0 L 122.0 136.0 L 123.0 137.0 L 123.0 137.0 L 123.0 137.0 L 123.0 137.0 L 123.0 137.0 L 123.0 136.0 L 123.0 135.0 L 122.0 133.0 L 121.0 131.0 L 120.0 129.0 L 119.0 127.0 L 119.0 126.0 L 118.0 125.0 L 117.0 123.0 L 117.0 123.0 L 117.0 122.0 L 116.0 122.0 L 116.0 122.0 L 116.0 123.0 L 117.0 124.0 L 118.0 126.0 L 119.0 128.0 L 120.0 130.0 L 120.0 131.0 L 121.0 132.0 L 122.0 134.0 L 123.0 134.0 L 123.0 135.0 L 123.0 136.0 L 123.0 136.0 L 123.0 136.0 L 123.0 136.0 L 123.0 135.0 L 122.0 134.0 L 122.0 132.0 L 121.0 131.0 L 120.0 129.0 L 119.0 127.0 L 118.0 126.0 L 118.0 124.0 L 117.0 123.0 L 117.0 122.0 L 116.0 121.0 L 116.0 121.0 L 116.0 121.0 L 116.0 122.0 L 116.0 124.0 L 117.0 126.0 L 118.0 128.0 L 119.0 131.0 L 120.0 132.0 L 121.0 134.0 L 122.0 135.0 L 122.0 136.0 L 123.0 136.0 L 123.0 137.0 L 123.0 137.0 L 123.0 136.0 L 122.0 135.0 L 121.0 134.0 L 119.0 132.0 L 118.0 131.0 L 116.0 129.0 L 115.0 128.0 L 114.0 126.0 L 113.0 125.0 L 112.0 124.0 L 112.0 124.0 L 112.0 123.0 L 112.0 123.0 L 112.0 124.0 L 113.0 125.0 L 114.0 127.0 L 116.0 129.0 L 117.0 132.0 L 119.0 134.0 L 120.0 136.0 L 121.0 138.0 L 123.0 139.0 L 123.0 140.0 L 124.0 140.0 L 124.0 140.0 L 124.0 140.0 L 124.0 139.0 L 124.0 138.0 L 123.0 136.0 L 122.0 135.0 L 121.0 133.0 L 120.0 132.0 L 119.0 130.0 L 118.0 129.0 L 117.0 127.0 L 116.0 127.0 L 116.0 126.0 L 116.0 126.0 L 116.0 126.0 L 116.0 126.0 L 116.0 127.0 L 117.0 128.0 L 118.0 130.0 L 118.0 131.0 L 119.0 131.0 L 120.0 132.0 L 120.0 132.0 L 121.0 133.0 L 121.0 133.0 L 121.0 133.0 L 121.0 133.0 L 121.0 133.0 L 121.0 133.0 L 121.0 132.0 L 121.0 130.0 L 121.0 129.0 L 120.0 128.0 L 119.0 126.0 L 118.0 125.0 L 118.0 123.0 L 117.0 122.0 L 116.0 120.0 L 116.0 120.0 L 116.0 119.0 L 116.0 118.0 L 116.0 118.0 L 116.0 118.0 L 116.0 120.0 L 118.0 121.0 L 119.0 122.0 L 120.0 124.0 L 121.0 125.0 L 123.0 126.0 L 124.0 127.0 L 125.0 127.0 L 125.0 128.0 L 126.0 128.0 L 126.0 128.0 L 126.0 128.0 L 126.0 128.0 L 125.0 127.0 L 123.0 125.0 L 122.0 124.0 L 120.0 122.0 L 118.0 121.0 L 117.0 120.0 L 116.0 118.0 L 115.0 117.0 L 114.0 117.0 L 114.0 116.0 L 114.0 116.0 L 114.0 116.0 L 114.0 116.0 L 114.0 116.0 L 115.0 117.0 L 116.0 118.0 L 118.0 120.0 L 120.0 121.0 L 122.0 123.0 L 124.0 125.0 L 126.0 126.0 L 128.0 127.0 L 129.0 128.0 L 130.0 128.0 L 131.0 128.0 L 131.0 128.0 L 131.0 128.0 L 131.0 128.0 L 130.0 127.0 L 128.0 126.0 L 127.0 124.0 L 125.0 123.0 L 124.0 121.0 L 122.0 120.0 L 121.0 119.0 L 120.0 118.0 L 119.0 116.0 L 118.0 115.0 L 118.0 115.0 L 118.0 114.0 L 117.0 114.0 L 117.0 114.0 L 117.0 114.0 L 118.0 114.0 L 119.0 115.0 L 119.0 116.0 L 120.0 117.0 L 121.0 117.0 L 122.0 118.0 L 123.0 118.0 L 123.0 119.0 L 123.0 119.0 L 124.0 119.0 L 124.0 119.0 L 124.0 119.0 L 124.0 119.0 L 124.0 119.0 L 123.0 118.0 L 122.0 117.0 L 121.0 116.0 L 120.0 115.0 L 119.0 114.0 L 118.0 114.0 L 118.0 113.0 L 117.0 112.0 L 117.0 112.0 L 116.0 112.0 L 116.0 111.0 L 116.0 111.0 L 116.0 111.0 L 116.0 111.0 L 116.0 111.0 L 116.0 111.0 L 116.0 111.0 L 116.0 111.0 L 117.0 111.0 L 117.0 111.0 L 118.0 112.0 L 118.0 112.0 L 119.0 112.0 L 119.0 113.0 L 119.0 113.0 L 119.0 113.0 L 119.0 113.0 L 119.0 113.0 L 119.0 113.0 L 119.0 113.0 L 119.0 113.0 L 119.0 113.0 L 118.0 113.0 L 118.0 113.0 L 118.0 112.0 L 117.0 112.0 L 117.0 112.0 L 117.0 112.0 L 116.0 112.0 L 116.0 111.0 L 116.0 111.0 L 116.0 111.0 L 115.0 111.0 L 115.0 111.0 L 115.0 111.0 L 115.0 111.0 L 115.0 110.0 L 114.0 110.0 L 114.0 110.0 L 114.0 110.0 L 114.0 110.0 L 114.0 110.0 L 114.0 111.0 L 114.0 111.0 L 114.0 111.0 L 115.0 112.0 L 115.0 112.0 L 115.0 112.0 L 116.0 113.0 L 116.0 113.0 L 116.0 113.0 L 117.0 114.0 L 117.0 114.0 L 117.0 114.0 L 117.0 114.0 L 117.0 114.0 L 117.0 114.0 L 117.0 114.0 L 117.0 114.0 L 116.0 114.0 L 116.0 113.0 L 115.0 113.0 L 114.0 112.0 L 114.0 112.0 L 114.0 112.0 L 113.0 111.0 L 113.0 111.0 L 113.0 111.0 L 113.0 111.0 L 113.0 111.0 L 112.0 111.0 L 112.0 111.0 L 112.0 111.0 L 112.0 111.0 L 113.0 111.0 L 113.0 112.0 L 114.0 113.0 L 114.0 113.0 L 115.0 114.0 L 115.0 114.0 L 115.0 114.0 L 116.0 114.0 L 116.0 115.0 L 116.0 115.0 L 116.0 115.0 L 116.0 115.0 L 115.0 115.0 L 115.0 115.0 L 115.0 115.0 L 114.0 115.0 L 114.0 114.0 L 114.0 114.0 L 114.0 114.0 L 114.0 114.0 L 114.0 114.0 L 114.0 114.0 L 114.0 114.0 L 114.0 114.0 L 114.0 114.0 L 114.0 115.0 L 114.0 115.0 L 114.0 115.0 L 115.0 116.0 L 115.0 116.0 L 115.0 116.0 L 115.0 116.0 L 115.0 116.0 L 115.0 116.0 L 115.0 116.0 L 115.0 116.0 L 115.0 116.0 L 115.0 116.0 L 115.0 115.0 L 115.0 115.0 L 115.0 114.0 L 114.0 114.0 L 114.0 114.0 L 114.0 114.0 L 114.0 114.0 L 114.0 114.0 L 114.0 114.0 L 114.0 114.0 L 114.0 114.0 L 114.0 114.0 L 115.0 115.0 L 115.0 116.0 L 116.0 117.0 L 117.0 118.0 L 118.0 120.0 L 119.0 121.0 L 120.0 122.0 L 121.0 123.0 L 122.0 124.0 L 122.0 125.0 L 122.0 125.0 L 122.0 125.0 L 122.0 125.0 L 122.0 125.0 L 122.0 124.0 L 121.0 123.0 L 120.0 123.0 L 120.0 122.0 L 119.0 121.0 L 119.0 121.0 L 119.0 120.0 L 119.0 120.0 L 119.0 120.0 L 119.0 120.0 L 119.0 120.0 L 119.0 120.0 L 119.0 120.0 L 119.0 120.0 L 119.0 120.0 L 120.0 120.0 L 120.0 120.0 L 121.0 121.0 L 121.0 121.0 L 121.0 122.0 L 121.0 122.0 L 122.0 122.0 L 122.0 122.0 L 122.0 123.0 L 122.0 123.0 L 122.0 123.0 L 122.0 123.0 L 122.0 123.0 L 122.0 123.0 L 122.0 123.0 L 122.0 123.0 L 122.0 123.0 L 122.0 123.0 L 122.0 123.0 L 122.0 123.0 L 122.0 123.0 L 122.0 123.0 L 122.0 123.0 L 122.0 123.0 L 122.0 123.0 L 122.0 123.0 L 122.0 123.0 L 122.0 123.0 L 122.0 123.0 L 122.0 123.0 L 122.0 123.0 L 122.0 123.0 L 122.0 123.0 L 122.0 123.0 L 122.0 122.0 L 122.0 122.0 L 122.0 122.0 L 122.0 122.0 L 122.0 122.0 L 122.0 122.0 L 122.0 122.0 L 122.0 122.0 L 122.0 122.0 L 122.0 122.0 L 122.0 122.0 L 122.0 122.0 L 122.0 122.0 L 122.0 122.0 L 122.0 122.0 L 122.0 122.0 L 122.0 122.0 L 122.0 121.0 L 122.0 121.0 L 122.0 121.0 L 121.0 121.0 L 121.0 121.0 L 121.0 121.0 L 121.0 121.0 L 121.0 121.0 L 121.0 121.0 L 121.0 121.0 L 121.0 121.0 L 121.0 121.0 L 121.0 121.0 L 121.0 121.0 L 121.0 121.0 L 121.0 121.0 L 121.0 121.0 L 121.0 121.0 L 121.0 121.0 L 121.0 121.0 L 121.0 121.0 L 122.0 121.0 L 122.0 121.0 L 122.0 121.0 L 123.0 121.0 L 123.0 121.0 L 123.0 121.0 L 123.0 121.0 L 123.0 121.0 L 123.0 121.0 L 123.0 121.0 L 123.0 121.0 L 123.0 120.0 L 123.0 120.0 L 123.0 120.0 L 123.0 120.0 L 123.0 120.0 L 123.0 120.0 L 123.0 120.0 L 124.0 120.0 L 124.0 121.0 L 125.0 122.0 L 126.0 123.0 L 127.0 125.0 L 128.0 126.0 L 129.0 127.0 L 130.0 128.0 L 130.0 129.0 L 131.0 130.0 L 131.0 130.0 L 131.0 130.0 L 131.0 130.0 L 131.0 130.0 L 130.0 130.0 L 129.0 130.0 L 128.0 129.0 L 127.0 128.0 L 126.0 127.0 L 125.0 126.0 L 123.0 125.0 L 123.0 124.0 L 122.0 123.0 L 121.0 123.0 L 121.0 122.0 L 121.0 122.0 L 121.0 122.0 L 121.0 122.0 L 121.0 122.0 L 122.0 123.0 L 123.0 124.0 L 124.0 125.0 L 125.0 125.0 L 126.0 126.0 L 127.0 127.0 L 128.0 127.0 L 128.0 128.0 L 129.0 128.0 L 129.0 128.0 L 129.0 128.0 L 129.0 128.0 L 129.0 128.0 L 129.0 128.0 L 129.0 127.0 L 129.0 127.0 L 128.0 126.0 L 128.0 125.0 L 127.0 125.0 L 127.0 124.0 L 126.0 124.0 L 126.0 124.0 L 126.0 123.0 L 126.0 123.0 L 126.0 123.0 L 126.0 123.0 L 126.0 123.0 L 126.0 123.0 L 126.0 124.0 L 127.0 125.0 L 128.0 126.0 L 129.0 127.0 L 130.0 128.0 L 132.0 130.0 L 133.0 131.0 L 134.0 132.0 L 136.0 133.0 L 137.0 134.0 L 137.0 135.0 L 138.0 135.0 L 138.0 135.0 L 138.0 135.0 L 138.0 135.0 L 138.0 135.0 L 137.0 134.0 L 136.0 133.0 L 135.0 132.0 L 134.0 132.0 L 133.0 131.0 L 133.0 130.0 L 132.0 130.0 L 132.0 130.0 L 131.0 130.0 L 131.0 130.0 L 131.0 132.0 L 132.0 134.0 L 133.0 136.0 L 134.0 138.0 L 136.0 140.0 L 137.0 142.0 L 138.0 143.0 L 139.0 144.0 L 140.0 144.0 L 140.0 145.0 L 140.0 145.0 L 140.0 145.0 L 140.0 144.0 L 139.0 143.0 L 138.0 142.0 L 137.0 141.0 L 135.0 139.0 L 134.0 138.0 L 132.0 136.0 L 130.0 135.0 L 128.0 133.0 L 127.0 132.0 L 126.0 131.0 L 125.0 130.0 L 125.0 130.0 L 125.0 130.0 L 125.0 131.0 L 126.0 132.0 L 127.0 133.0 L 128.0 134.0 L 130.0 136.0 L 131.0 137.0 L 133.0 138.0 L 134.0 139.0 L 135.0 140.0 L 136.0 141.0 L 137.0 141.0 L 138.0 142.0 L 139.0 142.0 L 139.0 143.0 L 139.0 143.0 L 139.0 143.0 L 139.0 143.0 L 139.0 142.0 L 138.0 141.0 L 137.0 140.0 L 135.0 139.0 L 134.0 138.0 L 133.0 137.0 L 133.0 136.0 L 132.0 135.0 L 131.0 135.0 L 131.0 134.0 L 131.0 134.0 L 130.0 134.0 L 130.0 134.0 L 130.0 133.0 L 130.0 133.0 L 130.0 133.0 L 130.0 133.0 L 131.0 133.0 L 131.0 133.0 L 131.0 133.0 L 132.0 133.0 L 132.0 133.0 L 133.0 133.0 L 133.0 133.0 " stroke="black" fill="none" stroke-width="6.0" stroke-linecap="round" stroke-linejoin="round" />
<path d="M 129.0 140.0 L 129.0 140.0 L 129.0 140.0 L 129.0 140.0 L 129.0 140.0 L 130.0 141.0 L 131.0 142.0 L 133.0 143.0 L 136.0 146.0 L 139.0 148.0 L 143.0 150.0 L 145.0 152.0 L 147.0 153.0 L 148.0 154.0 L 149.0 154.0 L 149.0 154.0 L 149.0 154.0 L 148.0 153.0 L 147.0 152.0 L 145.0 151.0 L 143.0 149.0 L 141.0 148.0 L 139.0 146.0 L 136.0 144.0 L 134.0 143.0 L 132.0 141.0 L 130.0 140.0 L 129.0 139.0 L 128.0 138.0 L 128.0 138.0 L 128.0 138.0 L 130.0 140.0 L 133.0 143.0 L 135.0 145.0 L 138.0 147.0 L 141.0 149.0 L 144.0 151.0 L 146.0 152.0 L 148.0 153.0 L 149.0 153.0 L 149.0 153.0 L 149.0 153.0 L 149.0 153.0 L 148.0 152.0 L 146.0 150.0 L 144.0 149.0 L 141.0 147.0 L 138.0 145.0 L 136.0 143.0 L 133.0 141.0 L 130.0 139.0 L 128.0 137.0 L 127.0 136.0 L 126.0 136.0 L 126.0 136.0 L 127.0 137.0 L 129.0 140.0 L 132.0 142.0 L 135.0 144.0 L 138.0 147.0 L 140.0 148.0 L 142.0 150.0 L 145.0 151.0 L 146.0 152.0 L 147.0 152.0 L 148.0 153.0 L 148.0 153.0 L 148.0 153.0 L 148.0 152.0 L 146.0 151.0 L 144.0 150.0 L 142.0 149.0 L 139.0 148.0 L 137.0 146.0 L 134.0 145.0 L 131.0 143.0 L 129.0 142.0 L 127.0 141.0 L 126.0 141.0 L 126.0 140.0 L 126.0 141.0 L 127.0 142.0 L 129.0 144.0 L 132.0 146.0 L 135.0 148.0 L 138.0 150.0 L 141.0 151.0 L 143.0 153.0 L 145.0 154.0 L 147.0 155.0 L 148.0 155.0 L 148.0 155.0 L 148.0 155.0 L 148.0 155.0 L 147.0 155.0 L 146.0 155.0 L 144.0 154.0 L 142.0 153.0 L 140.0 152.0 L 137.0 151.0 L 135.0 149.0 L 132.0 148.0 L 130.0 146.0 L 128.0 145.0 L 126.0 144.0 L 125.0 144.0 L 125.0 143.0 L 126.0 144.0 L 128.0 145.0 L 131.0 147.0 L 134.0 150.0 L 137.0 152.0 L 141.0 155.0 L 144.0 157.0 L 148.0 159.0 L 150.0 160.0 L 153.0 162.0 L 154.0 162.0 L 155.0 162.0 L 155.0 162.0 L 155.0 162.0 L 155.0 162.0 L 153.0 161.0 L 152.0 160.0 L 150.0 159.0 L 148.0 157.0 L 146.0 156.0 L 144.0 154.0 L 141.0 152.0 L 139.0 150.0 L 137.0 148.0 L 135.0 146.0 L 134.0 145.0 L 134.0 144.0 L 134.0 144.0 L 134.0 144.0 L 135.0 144.0 L 137.0 146.0 L 140.0 148.0 L 143.0 150.0 L 146.0 153.0 L 148.0 155.0 L 150.0 157.0 L 153.0 159.0 L 154.0 161.0 L 156.0 162.0 L 157.0 164.0 L 157.0 164.0 L 157.0 164.0 L 157.0 164.0 L 156.0 164.0 L 155.0 163.0 L 153.0 162.0 L 152.0 161.0 L 150.0 159.0 L 148.0 157.0 L 146.0 155.0 L 145.0 153.0 L 143.0 150.0 L 142.0 148.0 L 141.0 147.0 L 141.0 146.0 L 141.0 146.0 L 141.0 146.0 L 142.0 146.0 L 143.0 148.0 L 145.0 150.0 L 147.0 152.0 L 149.0 155.0 L 151.0 158.0 L 153.0 161.0 L 156.0 164.0 L 158.0 168.0 L 160.0 170.0 L 161.0 172.0 L 162.0 172.0 L 162.0 172.0 L 162.0 172.0 L 161.0 171.0 L 159.0 169.0 L 157.0 166.0 L 155.0 164.0 L 153.0 162.0 L 151.0 159.0 L 149.0 157.0 L 147.0 155.0 L 145.0 152.0 L 144.0 151.0 L 143.0 149.0 L 143.0 149.0 L 143.0 149.0 L 145.0 151.0 L 147.0 154.0 L 150.0 157.0 L 152.0 160.0 L 154.0 163.0 L 157.0 165.0 L 159.0 168.0 L 161.0 170.0 L 162.0 171.0 L 164.0 172.0 L 164.0 172.0 L 164.0 172.0 L 164.0 172.0 L 163.0 172.0 L 161.0 171.0 L 159.0 169.0 L 158.0 168.0 L 156.0 166.0 L 154.0 164.0 L 152.0 162.0 L 150.0 160.0 L 149.0 157.0 L 148.0 156.0 L 148.0 155.0 L 148.0 154.0 L 148.0 154.0 L 148.0 154.0 L 149.0 155.0 L 151.0 157.0 L 152.0 159.0 L 154.0 160.0 L 155.0 162.0 L 156.0 163.0 L 158.0 165.0 L 159.0 166.0 L 160.0 167.0 L 161.0 169.0 L 162.0 170.0 L 162.0 171.0 L 163.0 172.0 L 163.0 173.0 L 163.0 173.0 L 163.0 173.0 L 163.0 173.0 L 163.0 173.0 L 162.0 172.0 L 160.0 171.0 L 159.0 169.0 L 158.0 168.0 L 156.0 166.0 L 155.0 165.0 L 154.0 163.0 L 153.0 162.0 L 152.0 161.0 L 152.0 160.0 L 151.0 159.0 L 151.0 159.0 L 151.0 159.0 L 151.0 159.0 L 151.0 159.0 L 152.0 160.0 L 154.0 161.0 L 155.0 163.0 L 157.0 166.0 L 159.0 168.0 L 161.0 170.0 L 162.0 172.0 L 164.0 174.0 L 165.0 176.0 L 166.0 177.0 L 166.0 177.0 L 166.0 178.0 L 166.0 178.0 L 166.0 178.0 L 165.0 177.0 L 164.0 176.0 L 162.0 175.0 L 161.0 174.0 L 159.0 172.0 L 157.0 170.0 L 155.0 168.0 L 154.0 166.0 L 153.0 165.0 L 152.0 164.0 L 151.0 162.0 L 151.0 162.0 L 151.0 162.0 L 152.0 163.0 L 153.0 165.0 L 155.0 167.0 L 157.0 169.0 L 159.0 172.0 L 161.0 174.0 L 164.0 177.0 L 166.0 179.0 L 168.0 181.0 L 169.0 183.0 L 170.0 184.0 L 171.0 185.0 L 171.0 185.0 L 171.0 185.0 L 171.0 185.0 L 169.0 184.0 L 168.0 183.0 L 166.0 181.0 L 163.0 179.0 L 161.0 177.0 L 159.0 175.0 L 157.0 173.0 L 156.0 171.0 L 155.0 169.0 L 153.0 167.0 L 153.0 167.0 L 153.0 166.0 L 153.0 166.0 L 154.0 167.0 L 155.0 170.0 L 157.0 172.0 L 159.0 175.0 L 162.0 178.0 L 164.0 180.0 L 166.0 183.0 L 169.0 185.0 L 171.0 186.0 L 172.0 187.0 L 172.0 187.0 L 173.0 187.0 L 173.0 187.0 L 172.0 187.0 L 171.0 186.0 L 169.0 184.0 L 166.0 183.0 L 164.0 180.0 L 162.0 178.0 L 159.0 176.0 L 157.0 173.0 L 155.0 170.0 L 153.0 168.0 L 152.0 166.0 L 151.0 165.0 L 151.0 165.0 L 151.0 165.0 L 153.0 166.0 L 155.0 168.0 L 157.0 171.0 L 160.0 173.0 L 162.0 176.0 L 164.0 178.0 L 166.0 179.0 L 167.0 180.0 L 168.0 181.0 L 169.0 181.0 L 169.0 181.0 L 168.0 180.0 L 166.0 178.0 L 164.0 176.0 L 162.0 174.0 L 159.0 172.0 L 157.0 169.0 L 155.0 167.0 L 153.0 164.0 L 151.0 162.0 L 149.0 159.0 L 148.0 157.0 L 147.0 156.0 L 147.0 155.0 L 147.0 155.0 L 147.0 155.0 L 148.0 157.0 L 149.0 158.0 L 151.0 160.0 L 152.0 162.0 L 154.0 164.0 L 155.0 166.0 L 157.0 167.0 L 158.0 168.0 L 158.0 169.0 L 159.0 170.0 L 159.0 170.0 L 159.0 170.0 L 159.0 170.0 L 157.0 169.0 L 156.0 167.0 L 154.0 165.0 L 152.0 164.0 L 151.0 162.0 L 149.0 160.0 L 147.0 158.0 L 146.0 157.0 L 145.0 156.0 L 145.0 155.0 L 145.0 155.0 L 145.0 155.0 L 146.0 156.0 L 148.0 157.0 L 149.0 159.0 L 152.0 161.0 L 154.0 163.0 L 156.0 165.0 L 158.0 167.0 L 160.0 168.0 L 163.0 170.0 L 164.0 171.0 L 166.0 172.0 L 166.0 172.0 L 167.0 173.0 L 167.0 173.0 L 166.0 173.0 L 165.0 172.0 L 163.0 171.0 L 161.0 170.0 L 159.0 169.0 L 157.0 167.0 L 155.0 166.0 L 154.0 165.0 L 153.0 164.0 L 152.0 163.0 L 152.0 162.0 L 152.0 162.0 L 152.0 163.0 L 154.0 165.0 L 156.0 167.0 L 159.0 169.0 L 162.0 171.0 L 164.0 174.0 L 167.0 177.0 L 170.0 179.0 L 173.0 182.0 L 176.0 185.0 L 177.0 187.0 L 178.0 188.0 L 179.0 189.0 L 179.0 189.0 L 179.0 189.0 L 178.0 189.0 L 176.0 189.0 L 174.0 188.0 L 172.0 186.0 L 171.0 185.0 L 169.0 184.0 L 167.0 182.0 L 166.0 181.0 L 165.0 180.0 L 164.0 179.0 L 164.0 178.0 L 164.0 178.0 L 164.0 178.0 L 166.0 180.0 L 169.0 182.0 L 171.0 184.0 L 174.0 185.0 L 176.0 187.0 L 178.0 188.0 L 180.0 189.0 L 180.0 189.0 L 181.0 190.0 L 181.0 190.0 L 181.0 190.0 L 181.0 190.0 L 180.0 190.0 L 178.0 190.0 L 176.0 189.0 L 174.0 188.0 L 171.0 186.0 L 169.0 184.0 L 167.0 182.0 L 165.0 181.0 L 164.0 179.0 L 163.0 178.0 L 163.0 178.0 L 163.0 178.0 L 163.0 179.0 L 165.0 181.0 L 167.0 182.0 L 169.0 184.0 L 170.0 185.0 L 172.0 187.0 L 173.0 188.0 L 174.0 189.0 L 175.0 189.0 L 176.0 190.0 L 177.0 190.0 L 177.0 190.0 L 177.0 190.0 L 177.0 190.0 L 176.0 190.0 L 175.0 189.0 L 174.0 189.0 L 172.0 188.0 L 171.0 187.0 L 169.0 186.0 L 168.0 185.0 L 167.0 185.0 L 167.0 184.0 L 166.0 184.0 L 166.0 184.0 L 166.0 184.0 L 167.0 185.0 L 168.0 186.0 L 170.0 187.0 L 171.0 188.0 L 173.0 189.0 L 174.0 190.0 L 175.0 191.0 L 176.0 191.0 L 176.0 192.0 L 177.0 192.0 L 177.0 192.0 L 177.0 192.0 L 177.0 191.0 L 176.0 191.0 L 175.0 190.0 L 174.0 189.0 L 173.0 188.0 L 171.0 187.0 L 171.0 187.0 L 170.0 186.0 L 169.0 186.0 L 169.0 186.0 L 169.0 186.0 L 169.0 186.0 L 170.0 186.0 L 171.0 186.0 L 172.0 186.0 L 173.0 187.0 L 174.0 188.0 L 175.0 188.0 L 176.0 188.0 L 176.0 189.0 L 176.0 189.0 L 177.0 189.0 L 177.0 189.0 L 177.0 189.0 L 176.0 188.0 L 174.0 187.0 L 173.0 186.0 L 171.0 183.0 L 169.0 181.0 L 166.0 178.0 L 164.0 176.0 L 163.0 173.0 L 161.0 172.0 L 161.0 170.0 L 160.0 170.0 L 160.0 170.0 L 161.0 170.0 L 163.0 170.0 L 165.0 171.0 L 167.0 173.0 L 169.0 175.0 L 171.0 176.0 L 174.0 178.0 L 176.0 179.0 L 177.0 180.0 L 178.0 180.0 L 179.0 180.0 L 179.0 180.0 L 179.0 180.0 L 177.0 178.0 L 175.0 176.0 L 172.0 173.0 L 169.0 171.0 L 165.0 167.0 L 162.0 164.0 L 159.0 161.0 L 156.0 157.0 L 154.0 154.0 L 152.0 152.0 L 152.0 151.0 L 152.0 151.0 L 152.0 151.0 L 153.0 152.0 L 155.0 154.0 L 157.0 157.0 L 160.0 160.0 L 162.0 162.0 L 165.0 165.0 L 168.0 168.0 L 170.0 170.0 L 173.0 172.0 L 175.0 173.0 L 177.0 174.0 L 177.0 175.0 L 177.0 175.0 L 177.0 174.0 L 176.0 173.0 L 174.0 172.0 L 172.0 170.0 L 169.0 169.0 L 167.0 167.0 L 164.0 164.0 L 161.0 162.0 L 158.0 159.0 L 155.0 156.0 L 153.0 152.0 L 151.0 149.0 L 150.0 147.0 L 150.0 146.0 L 150.0 146.0 L 150.0 146.0 L 152.0 148.0 L 154.0 151.0 L 157.0 154.0 L 159.0 157.0 L 162.0 159.0 L 165.0 162.0 L 168.0 164.0 L 170.0 166.0 L 172.0 167.0 L 173.0 168.0 L 174.0 168.0 L 174.0 168.0 L 173.0 167.0 L 171.0 165.0 L 168.0 162.0 L 165.0 160.0 L 162.0 158.0 L 159.0 155.0 L 156.0 152.0 L 153.0 148.0 L 150.0 143.0 L 147.0 138.0 L 145.0 134.0 L 143.0 130.0 L 142.0 128.0 L 142.0 128.0 L 142.0 128.0 L 142.0 128.0 L 143.0 129.0 L 145.0 132.0 L 147.0 134.0 L 149.0 137.0 L 151.0 140.0 L 153.0 143.0 L 155.0 145.0 L 157.0 148.0 L 158.0 150.0 L 159.0 151.0 L 159.0 151.0 L 159.0 151.0 L 159.0 151.0 L 158.0 150.0 L 156.0 148.0 L 154.0 146.0 L 152.0 143.0 L 150.0 140.0 L 148.0 138.0 L 145.0 134.0 L 143.0 131.0 L 140.0 128.0 L 137.0 124.0 L 134.0 122.0 L 133.0 120.0 L 132.0 119.0 L 132.0 118.0 L 133.0 118.0 L 135.0 120.0 L 137.0 123.0 L 140.0 125.0 L 143.0 128.0 L 145.0 131.0 L 147.0 133.0 L 149.0 135.0 L 150.0 137.0 L 151.0 138.0 L 152.0 139.0 L 152.0 139.0 L 152.0 139.0 L 152.0 139.0 L 150.0 138.0 L 149.0 137.0 L 147.0 135.0 L 145.0 133.0 L 143.0 131.0 L 140.0 129.0 L 138.0 127.0 L 135.0 125.0 L 133.0 122.0 L 131.0 121.0 L 130.0 120.0 L 129.0 119.0 L 129.0 119.0 L 130.0 120.0 L 132.0 122.0 L 135.0 124.0 L 138.0 127.0 L 142.0 130.0 L 144.0 133.0 L 147.0 136.0 L 150.0 139.0 L 152.0 141.0 L 153.0 143.0 L 155.0 144.0 L 155.0 145.0 L 155.0 145.0 L 155.0 145.0 L 154.0 145.0 L 152.0 144.0 L 151.0 143.0 L 149.0 142.0 L 147.0 140.0 L 144.0 138.0 L 142.0 136.0 L 139.0 134.0 L 136.0 131.0 L 134.0 129.0 L 132.0 127.0 L 130.0 126.0 L 130.0 125.0 L 130.0 125.0 L 131.0 126.0 L 134.0 129.0 L 138.0 132.0 L 141.0 136.0 L 144.0 139.0 L 147.0 142.0 L 150.0 145.0 L 152.0 147.0 L 154.0 149.0 L 155.0 150.0 L 156.0 150.0 L 156.0 150.0 L 156.0 150.0 L 155.0 149.0 L 153.0 148.0 L 152.0 146.0 L 150.0 145.0 L 147.0 143.0 L 145.0 141.0 L 142.0 138.0 L 139.0 136.0 L 136.0 133.0 L 133.0 131.0 L 132.0 129.0 L 130.0 128.0 L 130.0 127.0 L 131.0 127.0 L 134.0 129.0 L 137.0 132.0 L 140.0 135.0 L 144.0 138.0 L 147.0 141.0 L 150.0 144.0 L 152.0 146.0 L 155.0 148.0 L 156.0 150.0 L 158.0 151.0 L 158.0 151.0 L 158.0 151.0 L 158.0 151.0 L 157.0 150.0 L 156.0 148.0 L 154.0 146.0 L 152.0 144.0 L 150.0 141.0 L 148.0 139.0 L 146.0 136.0 L 143.0 133.0 L 141.0 130.0 L 139.0 128.0 L 138.0 126.0 L 137.0 125.0 L 137.0 125.0 L 137.0 125.0 L 140.0 127.0 L 142.0 130.0 L 145.0 133.0 L 148.0 136.0 L 150.0 139.0 L 152.0 142.0 L 155.0 144.0 L 157.0 146.0 L 158.0 148.0 L 160.0 149.0 L 160.0 150.0 L 160.0 150.0 L 160.0 150.0 L 160.0 149.0 L 158.0 148.0 L 156.0 146.0 L 154.0 144.0 L 152.0 143.0 L 150.0 141.0 L 148.0 139.0 L 146.0 137.0 L 144.0 134.0 L 142.0 132.0 L 141.0 130.0 L 140.0 129.0 L 140.0 128.0 L 140.0 128.0 L 140.0 128.0 L 142.0 129.0 L 144.0 131.0 L 147.0 133.0 L 149.0 136.0 L 151.0 138.0 L 153.0 140.0 L 155.0 142.0 L 157.0 144.0 L 159.0 146.0 L 161.0 147.0 L 162.0 147.0 L 162.0 148.0 L 162.0 148.0 L 162.0 148.0 L 160.0 147.0 L 158.0 146.0 L 157.0 145.0 L 154.0 143.0 L 152.0 141.0 L 150.0 139.0 L 148.0 137.0 L 146.0 134.0 L 145.0 132.0 L 143.0 129.0 L 142.0 128.0 L 142.0 127.0 L 142.0 127.0 L 142.0 127.0 L 144.0 128.0 L 146.0 130.0 L 148.0 133.0 L 150.0 135.0 L 152.0 138.0 L 154.0 140.0 L 156.0 142.0 L 158.0 144.0 L 160.0 145.0 L 161.0 146.0 L 162.0 147.0 L 163.0 147.0 L 163.0 147.0 L 163.0 147.0 L 161.0 146.0 L 159.0 145.0 L 157.0 143.0 L 155.0 141.0 L 153.0 139.0 L 151.0 137.0 L 150.0 134.0 L 148.0 132.0 L 146.0 129.0 L 145.0 127.0 L 145.0 126.0 L 144.0 125.0 L 144.0 125.0 L 144.0 125.0 L 146.0 125.0 L 147.0 127.0 L 149.0 129.0 L 151.0 131.0 L 153.0 133.0 L 155.0 135.0 L 157.0 138.0 L 159.0 140.0 L 161.0 142.0 L 163.0 144.0 L 164.0 145.0 L 165.0 146.0 L 165.0 147.0 L 165.0 147.0 L 164.0 147.0 L 163.0 147.0 L 161.0 146.0 L 159.0 145.0 L 157.0 144.0 L 155.0 142.0 L 153.0 140.0 L 151.0 138.0 L 149.0 136.0 L 147.0 133.0 L 145.0 131.0 L 144.0 128.0 L 143.0 127.0 L 142.0 125.0 L 142.0 125.0 L 142.0 125.0 L 142.0 125.0 L 143.0 125.0 L 145.0 127.0 L 147.0 128.0 L 149.0 130.0 L 151.0 132.0 L 153.0 134.0 L 155.0 135.0 L 156.0 136.0 L 157.0 137.0 L 158.0 138.0 L 158.0 138.0 L 158.0 138.0 L 158.0 138.0 L 156.0 138.0 L 155.0 137.0 L 153.0 136.0 L 151.0 135.0 L 149.0 133.0 L 147.0 132.0 L 145.0 130.0 L 143.0 128.0 L 141.0 126.0 L 138.0 124.0 L 136.0 122.0 L 135.0 121.0 L 134.0 121.0 L 134.0 120.0 L 134.0 120.0 L 136.0 122.0 L 138.0 124.0 L 141.0 126.0 L 143.0 129.0 L 146.0 132.0 L 148.0 134.0 L 151.0 137.0 L 153.0 139.0 L 155.0 142.0 L 157.0 144.0 L 158.0 145.0 L 158.0 146.0 L 158.0 146.0 L 158.0 146.0 L 157.0 146.0 L 155.0 146.0 L 154.0 145.0 L 152.0 144.0 L 150.0 143.0 L 149.0 141.0 L 147.0 140.0 L 145.0 138.0 L 143.0 136.0 L 141.0 134.0 L 140.0 133.0 L 139.0 132.0 L 139.0 132.0 L 139.0 132.0 L 140.0 133.0 L 142.0 136.0 L 145.0 139.0 L 147.0 142.0 L 150.0 145.0 L 152.0 148.0 L 155.0 151.0 L 157.0 153.0 L 160.0 154.0 L 162.0 156.0 L 163.0 157.0 L 163.0 157.0 L 164.0 157.0 L 164.0 157.0 L 162.0 157.0 L 160.0 156.0 L 158.0 155.0 L 156.0 154.0 L 154.0 152.0 L 152.0 150.0 L 150.0 148.0 L 148.0 146.0 L 146.0 144.0 L 145.0 142.0 L 144.0 140.0 L 144.0 139.0 L 144.0 139.0 L 145.0 140.0 L 147.0 142.0 L 149.0 145.0 L 151.0 148.0 L 154.0 150.0 L 156.0 153.0 L 159.0 155.0 L 161.0 157.0 L 163.0 158.0 L 165.0 159.0 L 165.0 160.0 L 165.0 160.0 L 165.0 160.0 L 165.0 159.0 L 163.0 158.0 L 161.0 157.0 L 159.0 155.0 L 157.0 154.0 L 155.0 152.0 L 153.0 150.0 L 151.0 147.0 L 149.0 144.0 L 148.0 142.0 L 147.0 140.0 L 146.0 139.0 L 146.0 138.0 L 146.0 138.0 L 148.0 140.0 L 150.0 143.0 L 152.0 146.0 L 155.0 149.0 L 158.0 152.0 L 161.0 154.0 L 165.0 157.0 L 168.0 160.0 L 172.0 162.0 L 175.0 164.0 L 177.0 165.0 L 178.0 166.0 L 179.0 166.0 L 179.0 166.0 L 178.0 166.0 L 176.0 165.0 L 173.0 163.0 L 170.0 161.0 L 167.0 159.0 L 164.0 157.0 L 161.0 155.0 L 158.0 153.0 L 155.0 150.0 L 153.0 148.0 L 152.0 145.0 L 152.0 144.0 L 152.0 143.0 L 152.0 143.0 L 153.0 143.0 L 155.0 144.0 L 157.0 147.0 L 160.0 149.0 L 163.0 151.0 L 166.0 153.0 L 169.0 155.0 L 172.0 158.0 L 175.0 160.0 L 178.0 162.0 L 180.0 164.0 L 182.0 166.0 L 183.0 166.0 L 184.0 167.0 L 184.0 167.0 L 183.0 167.0 L 181.0 165.0 L 179.0 164.0 L 176.0 162.0 L 173.0 159.0 L 169.0 157.0 L 167.0 154.0 L 164.0 152.0 L 161.0 149.0 L 158.0 146.0 L 157.0 143.0 L 156.0 142.0 L 156.0 141.0 L 156.0 141.0 L 157.0 142.0 L 160.0 144.0 L 162.0 146.0 L 165.0 149.0 L 167.0 151.0 L 170.0 153.0 L 173.0 155.0 L 175.0 157.0 L 177.0 159.0 L 179.0 161.0 L 181.0 162.0 L 182.0 163.0 L 182.0 163.0 L 182.0 163.0 L 182.0 163.0 L 181.0 162.0 L 180.0 161.0 L 177.0 160.0 L 175.0 158.0 L 172.0 156.0 L 170.0 154.0 L 168.0 152.0 L 166.0 150.0 L 164.0 149.0 L 163.0 147.0 L 162.0 147.0 L 162.0 146.0 L 162.0 146.0 L 163.0 146.0 L 165.0 147.0 L 168.0 148.0 L 170.0 150.0 L 173.0 152.0 L 175.0 154.0 L 178.0 156.0 L 180.0 159.0 L 183.0 161.0 L 185.0 164.0 L 187.0 166.0 L 189.0 168.0 L 190.0 169.0 L 190.0 169.0 L 190.0 169.0 L 190.0 169.0 L 190.0 168.0 L 189.0 167.0 L 187.0 165.0 L 185.0 164.0 L 183.0 162.0 L 181.0 160.0 L 178.0 158.0 L 176.0 155.0 L 173.0 153.0 L 171.0 151.0 L 169.0 149.0 L 167.0 147.0 L 167.0 147.0 L 167.0 146.0 L 167.0 146.0 L 168.0 147.0 L 171.0 149.0 L 173.0 151.0 L 175.0 153.0 L 178.0 155.0 L 180.0 157.0 L 182.0 158.0 L 184.0 161.0 L 186.0 162.0 L 188.0 164.0 L 190.0 166.0 L 191.0 168.0 L 191.0 168.0 L 191.0 169.0 L 191.0 169.0 L 191.0 169.0 L 190.0 169.0 L 189.0 167.0 L 187.0 166.0 L 186.0 164.0 L 184.0 162.0 L 182.0 161.0 L 180.0 158.0 L 178.0 157.0 L 177.0 155.0 L 176.0 153.0 L 175.0 152.0 L 175.0 151.0 L 175.0 151.0 L 175.0 151.0 L 177.0 152.0 L 179.0 154.0 L 181.0 155.0 L 183.0 157.0 L 185.0 159.0 L 187.0 161.0 L 188.0 163.0 L 190.0 165.0 L 191.0 166.0 L 192.0 168.0 L 193.0 169.0 L 193.0 170.0 L 194.0 170.0 L 194.0 170.0 L 194.0 170.0 L 193.0 170.0 L 192.0 169.0 L 190.0 168.0 L 189.0 166.0 L 187.0 164.0 L 185.0 163.0 L 184.0 161.0 L 183.0 159.0 L 182.0 158.0 L 181.0 157.0 L 181.0 156.0 L 181.0 156.0 L 181.0 156.0 L 182.0 157.0 L 184.0 158.0 L 185.0 160.0 L 187.0 162.0 L 189.0 163.0 L 190.0 165.0 L 191.0 166.0 L 192.0 168.0 L 192.0 168.0 L 193.0 169.0 L 193.0 170.0 L 193.0 170.0 L 193.0 170.0 L 193.0 170.0 L 192.0 169.0 L 191.0 168.0 L 190.0 166.0 L 189.0 165.0 L 187.0 163.0 L 186.0 162.0 L 185.0 161.0 L 184.0 159.0 L 183.0 159.0 L 182.0 158.0 L 182.0 158.0 L 182.0 158.0 L 182.0 159.0 L 183.0 161.0 L 184.0 163.0 L 186.0 165.0 L 187.0 167.0 L 188.0 168.0 L 189.0 170.0 L 189.0 170.0 L 190.0 171.0 L 190.0 171.0 L 190.0 171.0 L 189.0 171.0 L 188.0 171.0 L 187.0 171.0 L 185.0 170.0 L 183.0 169.0 L 182.0 168.0 L 180.0 168.0 L 179.0 167.0 L 178.0 166.0 L 178.0 166.0 L 178.0 166.0 L 178.0 166.0 L 178.0 166.0 L 179.0 166.0 L 180.0 166.0 L 182.0 167.0 L 183.0 168.0 L 184.0 168.0 L 185.0 169.0 L 186.0 170.0 L 187.0 170.0 L 187.0 171.0 L 187.0 171.0 L 188.0 172.0 L 188.0 173.0 L 187.0 175.0 L 187.0 176.0 L 185.0 177.0 L 184.0 179.0 L 183.0 180.0 L 182.0 181.0 L 181.0 182.0 L 181.0 183.0 L 181.0 183.0 L 181.0 183.0 L 181.0 183.0 L 182.0 182.0 L 183.0 181.0 L 184.0 180.0 L 185.0 178.0 L 187.0 177.0 L 188.0 176.0 L 189.0 175.0 L 190.0 174.0 L 191.0 174.0 L 191.0 173.0 L 192.0 173.0 L 192.0 173.0 L 192.0 172.0 L 192.0 172.0 L 192.0 172.0 L 191.0 173.0 L 189.0 174.0 L 188.0 175.0 L 187.0 176.0 L 186.0 178.0 L 186.0 179.0 L 185.0 180.0 L 185.0 181.0 L 185.0 181.0 L 185.0 182.0 L 185.0 182.0 L 185.0 182.0 L 186.0 182.0 L 187.0 181.0 L 188.0 180.0 L 189.0 178.0 L 190.0 177.0 L 191.0 176.0 L 192.0 175.0 L 193.0 174.0 L 193.0 173.0 L 194.0 173.0 L 194.0 173.0 L 194.0 173.0 L 194.0 173.0 L 193.0 173.0 L 192.0 174.0 L 191.0 175.0 L 190.0 177.0 L 188.0 178.0 L 187.0 180.0 L 186.0 181.0 L 185.0 182.0 L 185.0 183.0 L 185.0 184.0 L 184.0 184.0 L 184.0 184.0 L 184.0 184.0 L 185.0 184.0 L 186.0 184.0 L 187.0 183.0 L 188.0 181.0 L 189.0 180.0 L 190.0 179.0 L 191.0 178.0 L 192.0 177.0 L 193.0 176.0 L 193.0 175.0 L 194.0 175.0 L 194.0 174.0 L 194.0 174.0 L 194.0 174.0 L 193.0 175.0 L 192.0 175.0 L 191.0 177.0 L 189.0 178.0 L 188.0 180.0 L 186.0 181.0 L 185.0 182.0 L 184.0 183.0 L 184.0 184.0 L 183.0 185.0 L 183.0 186.0 L 182.0 186.0 L 182.0 186.0 L 182.0 186.0 L 183.0 186.0 L 184.0 185.0 L 185.0 184.0 L 186.0 182.0 L 188.0 181.0 L 189.0 179.0 L 190.0 178.0 L 191.0 177.0 L 192.0 176.0 L 193.0 175.0 L 194.0 174.0 L 194.0 174.0 L 195.0 173.0 L 195.0 173.0 L 195.0 173.0 L 194.0 173.0 L 193.0 174.0 L 191.0 175.0 L 190.0 176.0 L 188.0 177.0 L 187.0 179.0 L 185.0 180.0 L 184.0 181.0 L 183.0 182.0 L 182.0 183.0 L 182.0 184.0 L 181.0 184.0 L 181.0 185.0 L 181.0 185.0 L 182.0 184.0 L 183.0 183.0 L 184.0 181.0 L 186.0 179.0 L 187.0 177.0 L 189.0 175.0 L 190.0 173.0 L 191.0 171.0 L 192.0 170.0 L 193.0 169.0 L 193.0 168.0 L 193.0 168.0 L 193.0 168.0 L 192.0 168.0 L 191.0 168.0 L 189.0 168.0 L 188.0 169.0 L 186.0 170.0 L 185.0 171.0 L 184.0 172.0 L 183.0 173.0 L 183.0 174.0 L 183.0 175.0 L 183.0 176.0 L 183.0 177.0 L 183.0 177.0 L 184.0 177.0 L 185.0 178.0 L 186.0 178.0 L 187.0 177.0 L 188.0 176.0 L 189.0 175.0 L 190.0 174.0 L 190.0 173.0 L 190.0 172.0 L 190.0 171.0 L 190.0 170.0 L 189.0 170.0 L 188.0 169.0 L 187.0 169.0 L 186.0 169.0 L 185.0 169.0 L 184.0 169.0 L 183.0 169.0 L 183.0 170.0 L 183.0 171.0 L 183.0 172.0 L 184.0 173.0 L 184.0 173.0 L 185.0 174.0 L 186.0 174.0 L 187.0 174.0 L 187.0 174.0 L 188.0 174.0 L 189.0 174.0 L 189.0 173.0 L 189.0 173.0 L 189.0 172.0 L 189.0 171.0 L 188.0 170.0 L 187.0 170.0 L 186.0 170.0 L 185.0 170.0 L 184.0 170.0 L 184.0 170.0 L 183.0 170.0 L 183.0 170.0 L 183.0 170.0 L 183.0 170.0 L 183.0 170.0 L 183.0 170.0 L 183.0 170.0 L 183.0 170.0 L 183.0 170.0 L 183.0 170.0 L 183.0 170.0 L 183.0 170.0 L 183.0 169.0 L 182.0 168.0 L 181.0 167.0 L 180.0 166.0 L 179.0 166.0 L 178.0 165.0 L 178.0 164.0 L 177.0 164.0 L 177.0 164.0 L 176.0 163.0 L 176.0 163.0 L 176.0 163.0 L 176.0 163.0 L 175.0 163.0 L 175.0 163.0 L 175.0 163.0 L 175.0 163.0 L 174.0 163.0 L 174.0 162.0 L 173.0 162.0 L 173.0 162.0 L 172.0 162.0 L 171.0 162.0 L 171.0 162.0 L 170.0 161.0 L 170.0 161.0 L 169.0 161.0 L 169.0 161.0 L 168.0 160.0 L 167.0 160.0 L 166.0 159.0 L 165.0 159.0 L 164.0 158.0 L 163.0 157.0 L 162.0 156.0 L 160.0 155.0 L 159.0 155.0 L 158.0 154.0 L 157.0 153.0 L 156.0 152.0 L 155.0 151.0 L 154.0 150.0 L 153.0 148.0 L 152.0 147.0 L 151.0 146.0 L 150.0 145.0 L 150.0 144.0 L 149.0 143.0 L 149.0 143.0 L 149.0 142.0 L 148.0 142.0 L 148.0 142.0 L 148.0 141.0 L 148.0 141.0 L 147.0 141.0 L 147.0 140.0 L 146.0 140.0 L 146.0 139.0 L 146.0 139.0 L 145.0 138.0 L 145.0 138.0 L 144.0 137.0 L 144.0 136.0 L 143.0 136.0 L 142.0 135.0 L 141.0 134.0 L 141.0 133.0 L 140.0 132.0 L 139.0 132.0 L 139.0 131.0 L 139.0 131.0 L 139.0 131.0 L 139.0 131.0 L 140.0 133.0 L 142.0 135.0 L 145.0 137.0 L 148.0 141.0 L 150.0 144.0 L 154.0 148.0 L 158.0 152.0 L 162.0 156.0 L 167.0 161.0 L 172.0 164.0 L 175.0 167.0 L 178.0 168.0 L 180.0 169.0 L 180.0 170.0 L 180.0 170.0 L 180.0 169.0 L 179.0 169.0 L 178.0 168.0 L 176.0 167.0 L 175.0 165.0 L 173.0 164.0 L 172.0 163.0 L 170.0 161.0 L 169.0 160.0 L 169.0 159.0 L 168.0 159.0 L 168.0 158.0 L 168.0 158.0 L 169.0 158.0 L 171.0 159.0 L 173.0 161.0 L 176.0 163.0 L 178.0 165.0 L 180.0 167.0 L 181.0 168.0 L 183.0 169.0 L 184.0 170.0 L 184.0 171.0 L 185.0 172.0 L 185.0 173.0 L 185.0 173.0 L 185.0 173.0 L 185.0 173.0 L 185.0 173.0 L 184.0 172.0 L 183.0 171.0 L 181.0 170.0 L 180.0 168.0 L 178.0 167.0 L 176.0 165.0 L 174.0 163.0 L 173.0 161.0 L 171.0 160.0 L 170.0 159.0 L 169.0 158.0 L 169.0 158.0 L 169.0 158.0 L 169.0 158.0 L 169.0 159.0 L 170.0 159.0 L 171.0 160.0 L 171.0 160.0 L 171.0 161.0 L 171.0 161.0 L 171.0 161.0 L 171.0 161.0 L 171.0 161.0 L 170.0 161.0 L 169.0 160.0 L 168.0 159.0 L 167.0 158.0 L 165.0 157.0 L 163.0 155.0 L 161.0 154.0 L 159.0 152.0 L 157.0 150.0 L 155.0 148.0 L 154.0 147.0 L 153.0 146.0 L 152.0 145.0 L 152.0 144.0 L 151.0 144.0 L 151.0 144.0 L 151.0 144.0 L 150.0 144.0 L 150.0 143.0 L 150.0 143.0 L 150.0 143.0 L 149.0 142.0 L 149.0 141.0 L 148.0 141.0 L 148.0 140.0 L 147.0 139.0 L 147.0 139.0 L 146.0 138.0 L 146.0 138.0 L 146.0 137.0 L 146.0 137.0 L 145.0 136.0 L 145.0 136.0 L 145.0 135.0 L 144.0 135.0 L 144.0 134.0 L 144.0 134.0 L 143.0 133.0 L 143.0 133.0 L 142.0 132.0 L 142.0 132.0 L 142.0 132.0 L 141.0 131.0 L 141.0 131.0 L 140.0 130.0 L 140.0 130.0 L 139.0 129.0 L 139.0 128.0 L 138.0 128.0 L 138.0 127.0 L 137.0 126.0 L 137.0 126.0 L 136.0 125.0 L 136.0 125.0 L 135.0 124.0 L 135.0 124.0 L 135.0 123.0 L 134.0 123.0 L 134.0 123.0 L 133.0 122.0 L 133.0 122.0 L 133.0 121.0 L 132.0 121.0 L 132.0 120.0 L 132.0 120.0 L 132.0 120.0 L 131.0 119.0 L 131.0 119.0 L 131.0 119.0 L 131.0 118.0 L 130.0 118.0 L 130.0 118.0 L 130.0 117.0 L 129.0 117.0 L 129.0 117.0 L 129.0 116.0 L 128.0 116.0 L 128.0 116.0 L 128.0 115.0 L 127.0 115.0 L 127.0 115.0 L 127.0 114.0 L 127.0 114.0 L 126.0 114.0 L 126.0 114.0 L 126.0 114.0 L 126.0 113.0 L 126.0 113.0 L 126.0 113.0 L 125.0 113.0 L 125.0 112.0 L 125.0 112.0 L 125.0 112.0 L 124.0 111.0 L 124.0 111.0 L 124.0 111.0 L 124.0 111.0 L 124.0 111.0 L 124.0 110.0 L 124.0 110.0 L 123.0 110.0 L 123.0 110.0 L 123.0 109.0 L 123.0 109.0 L 123.0 109.0 L 123.0 109.0 L 123.0 109.0 L 123.0 109.0 L 123.0 109.0 L 123.0 109.0 L 123.0 109.0 L 124.0 109.0 L 125.0 109.0 L 126.0 109.0 L 127.0 109.0 L 128.0 109.0 L 130.0 109.0 L 132.0 109.0 L 134.0 109.0 L 135.0 109.0 L 137.0 109.0 L 138.0 109.0 L 139.0 109.0 L 140.0 109.0 L 141.0 109.0 L 141.0 109.0 L 141.0 109.0 L 141.0 109.0 L 140.0 109.0 L 139.0 109.0 L 137.0 109.0 L 136.0 109.0 L 134.0 109.0 L 132.0 109.0 L 131.0 109.0 L 129.0 109.0 L 128.0 109.0 L 126.0 109.0 L 125.0 109.0 L 124.0 109.0 L 123.0 109.0 L 123.0 109.0 L 123.0 109.0 L 122.0 109.0 L 122.0 109.0 L 122.0 110.0 L 123.0 110.0 L 125.0 110.0 L 126.0 110.0 L 128.0 110.0 L 130.0 110.0 L 132.0 110.0 L 134.0 110.0 L 135.0 110.0 L 137.0 110.0 L 138.0 110.0 L 139.0 110.0 L 139.0 110.0 L 140.0 110.0 L 140.0 110.0 L 140.0 110.0 L 140.0 110.0 L 139.0 110.0 L 137.0 110.0 L 136.0 110.0 L 134.0 110.0 L 132.0 110.0 L 130.0 110.0 L 129.0 109.0 L 127.0 109.0 L 126.0 109.0 L 125.0 109.0 L 124.0 109.0 L 123.0 109.0 L 123.0 109.0 L 123.0 109.0 L 123.0 109.0 L 124.0 109.0 L 125.0 110.0 L 127.0 110.0 L 129.0 111.0 L 131.0 111.0 L 133.0 111.0 L 134.0 111.0 L 136.0 111.0 L 138.0 111.0 L 140.0 111.0 L 141.0 111.0 L 143.0 111.0 L 144.0 111.0 L 145.0 111.0 L 146.0 111.0 L 146.0 111.0 L 147.0 111.0 L 147.0 111.0 L 147.0 111.0 L 147.0 110.0 L 147.0 110.0 L 147.0 110.0 L 147.0 110.0 L 147.0 110.0 L 147.0 110.0 L 147.0 110.0 L 147.0 110.0 L 147.0 110.0 L 146.0 110.0 L 146.0 110.0 L 146.0 110.0 L 146.0 110.0 L 146.0 110.0 L 146.0 110.0 L 146.0 110.0 L 146.0 110.0 L 145.0 110.0 L 145.0 110.0 L 145.0 110.0 L 145.0 110.0 L 145.0 110.0 L 145.0 110.0 L 145.0 110.0 L 145.0 110.0 L 145.0 110.0 L 145.0 109.0 L 145.0 109.0 L 145.0 109.0 L 145.0 109.0 L 145.0 109.0 L 146.0 109.0 L 146.0 109.0 L 146.0 108.0 L 146.0 108.0 L 146.0 108.0 L 146.0 108.0 L 146.0 108.0 L 146.0 108.0 L 146.0 108.0 L 146.0 108.0 L 146.0 108.0 L 146.0 108.0 L 146.0 108.0 L 146.0 108.0 L 145.0 108.0 L 145.0 109.0 L 144.0 109.0 L 143.0 110.0 L 142.0 111.0 L 141.0 112.0 L 140.0 113.0 L 139.0 114.0 L 137.0 116.0 L 137.0 117.0 L 136.0 118.0 L 135.0 119.0 L 135.0 120.0 L 135.0 121.0 L 135.0 121.0 L 135.0 121.0 L 135.0 121.0 L 135.0 121.0 L 135.0 121.0 L 136.0 121.0 L 137.0 120.0 L 138.0 119.0 L 139.0 118.0 L 141.0 117.0 L 141.0 116.0 L 142.0 114.0 L 143.0 114.0 L 143.0 113.0 L 144.0 112.0 L 144.0 112.0 L 144.0 112.0 L 144.0 111.0 L 144.0 111.0 L 144.0 111.0 L 144.0 111.0 L 144.0 111.0 L 143.0 112.0 L 143.0 113.0 L 142.0 114.0 L 142.0 116.0 L 142.0 117.0 L 141.0 118.0 L 141.0 119.0 L 141.0 119.0 L 141.0 120.0 L 141.0 120.0 L 141.0 120.0 L 141.0 120.0 L 141.0 120.0 L 141.0 120.0 L 141.0 120.0 L 141.0 119.0 L 141.0 118.0 L 141.0 117.0 L 140.0 116.0 L 140.0 115.0 L 139.0 114.0 L 139.0 113.0 L 139.0 113.0 L 139.0 113.0 L 138.0 112.0 L 138.0 112.0 L 138.0 112.0 L 138.0 112.0 L 138.0 112.0 L 138.0 112.0 L 138.0 112.0 L 138.0 113.0 L 138.0 113.0 L 138.0 113.0 L 138.0 113.0 L 138.0 114.0 L 138.0 114.0 L 138.0 114.0 L 137.0 114.0 L 137.0 114.0 L 136.0 114.0 L 135.0 114.0 L 135.0 114.0 L 134.0 114.0 L 134.0 114.0 L 134.0 114.0 L 134.0 114.0 L 134.0 114.0 L 134.0 114.0 L 134.0 115.0 L 135.0 116.0 L 137.0 118.0 L 138.0 120.0 L 140.0 121.0 L 142.0 123.0 L 143.0 125.0 L 144.0 126.0 L 145.0 127.0 L 145.0 127.0 L 146.0 127.0 L 146.0 127.0 L 146.0 127.0 L 145.0 127.0 L 144.0 126.0 L 143.0 125.0 L 142.0 124.0 L 141.0 123.0 L 140.0 122.0 L 139.0 121.0 L 137.0 120.0 L 136.0 119.0 L 135.0 118.0 L 134.0 117.0 L 133.0 117.0 L 133.0 117.0 L 133.0 117.0 L 133.0 117.0 L 134.0 117.0 L 135.0 119.0 L 137.0 120.0 L 139.0 121.0 L 140.0 123.0 L 142.0 124.0 L 143.0 124.0 L 144.0 125.0 L 144.0 125.0 L 145.0 126.0 L 145.0 126.0 L 145.0 126.0 L 144.0 126.0 L 143.0 125.0 L 142.0 125.0 L 141.0 124.0 L 140.0 123.0 L 138.0 122.0 L 137.0 121.0 L 136.0 120.0 L 135.0 119.0 L 134.0 118.0 L 133.0 118.0 L 133.0 118.0 L 133.0 118.0 L 133.0 118.0 L 135.0 120.0 L 136.0 121.0 L 138.0 123.0 L 140.0 124.0 L 141.0 125.0 L 143.0 126.0 L 144.0 127.0 L 145.0 127.0 L 145.0 127.0 L 146.0 127.0 L 146.0 127.0 L 146.0 127.0 L 145.0 127.0 L 144.0 126.0 L 143.0 125.0 L 141.0 124.0 L 140.0 123.0 L 138.0 122.0 L 137.0 121.0 L 135.0 120.0 L 134.0 119.0 L 133.0 118.0 L 132.0 118.0 L 132.0 118.0 L 132.0 118.0 L 133.0 118.0 L 135.0 120.0 L 137.0 122.0 L 139.0 124.0 L 141.0 126.0 L 143.0 127.0 L 145.0 128.0 L 147.0 129.0 L 148.0 130.0 L 148.0 131.0 L 149.0 131.0 L 149.0 131.0 L 149.0 131.0 L 148.0 131.0 L 148.0 130.0 L 146.0 129.0 L 145.0 128.0 L 144.0 127.0 L 142.0 126.0 L 141.0 125.0 L 140.0 124.0 L 139.0 123.0 L 138.0 122.0 L 137.0 122.0 L 137.0 122.0 L 137.0 122.0 L 137.0 122.0 L 139.0 123.0 L 140.0 125.0 L 143.0 127.0 L 144.0 129.0 L 146.0 131.0 L 148.0 133.0 L 150.0 135.0 L 151.0 137.0 L 152.0 138.0 L 152.0 139.0 L 152.0 139.0 L 152.0 139.0 L 152.0 140.0 L 152.0 140.0 L 152.0 140.0 L 152.0 140.0 " stroke="black" fill="none" stroke-width="6.0" stroke-linecap="round" stroke-linejoin="round" />
</svg>