<svg xmlns="http://www.w3.org/2000/svg" width="300" height="300" viewBox="0 0 300 300">
<path d="M 135.0 79.0 L 135.0 79.0 L 135.0 79.0 L 134.0 79.0 L 134.0 79.0 L 133.0 79.0 L 133.0 79.0 L 132.0 79.0 L 131.0 79.0 L 130.0 79.0 L 129.0 79.0 L 128.0 79.0 L 126.0 80.0 L 123.0 80.0 L 120.0 82.0 L 117.0 84.0 L 113.0 85.0 L 109.0 88.0 L 106.0 90.0 L 102.0 93.0 L 98.0 96.0 L 94.0 98.0 L 89.0 101.0 L 85.0 103.0 L 81.0 105.0 L 77.0 107.0 L 74.0 109.0 L 72.0 110.0 L 71.0 110.0 L 70.0 111.0 L 69.0 111.0 L 69.0 111.0 L 69.0 111.0 L 69.0 111.0 L 69.0 111.0 L 69.0 111.0 L 69.0 111.0 L 69.0 111.0 L 69.0 112.0 L 69.0 112.0 L 69.0 112.0 L 69.0 113.0 L 69.0 113.0 L 69.0 113.0 L 69.0 114.0 L 69.0 115.0 L 69.0 116.0 L 69.0 117.0 L 69.0 118.0 L 69.0 120.0 L 69.0 122.0 L 69.0 125.0 L 70.0 128.0 L 70.0 132.0 L 71.0 137.0 L 71.0 143.0 L 72.0 150.0 L 72.0 157.0 L 73.0 164.0 L 73.0 171.0 L 73.0 178.0 L 73.0 185.0 L 73.0 193.0 L 73.0 199.0 L 73.0 204.0 L 73.0 209.0 L 73.0 213.0 L 73.0 216.0 L 73.0 218.0 L 73.0 219.0 L 73.0 220.0 L 74.0 220.0 L 74.0 220.0 " stroke="black" fill="none" stroke-width="5.0" stroke-linecap="round" stroke-linejoin="round" />
<path d="M 85.0 166.0 L 84.0 166.0 L 82.0 166.0 L 80.0 166.0 L 80.0 165.0 L 79.0 165.0 L 79.0 165.0 L 79.0 165.0 L 81.0 165.0 L 83.0 166.0 L 87.0 166.0 L 91.0 166.0 L 96.0 167.0 L 102.0 167.0 L 108.0 167.0 L 117.0 166.0 L 122.0 165.0 " stroke="black" fill="none" stroke-width="5.0" stroke-linecap="round" stroke-linejoin="round" />
<path d="M 165.0 98.0 L 165.0 98.0 L 165.0 98.0 L 164.0 98.0 L 163.0 98.0 L 163.0 98.0 L 163.0 98.0 L 163.0 98.0 L 163.0 98.0 L 163.0 98.0 L 164.0 98.0 L 167.0 98.0 L 170.0 98.0 L 173.0 98.0 L 177.0 98.0 L 181.0 98.0 L 186.0 98.0 L 190.0 98.0 L 194.0 98.0 L 198.0 98.0 L 201.0 98.0 L 205.0 98.0 L 208.0 98.0 L 211.0 98.0 L 213.0 98.0 L 215.0 99.0 L 217.0 100.0 L 218.0 100.0 L 219.0 101.0 L 220.0 102.0 L 220.0 102.0 L 221.0 103.0 L 221.0 104.0 L 222.0 105.0 L 222.0 107.0 L 222.0 109.0 L 223.0 110.0 L 223.0 112.0 L 223.0 115.0 L 223.0 118.0 L 223.0 121.0 L 223.0 125.0 L 223.0 129.0 L 223.0 134.0 L 223.0 141.0 L 223.0 147.0 L 223.0 154.0 L 223.0 162.0 L 223.0 168.0 L 223.0 175.0 L 223.0 182.0 L 224.0 189.0 L 224.0 196.0 L 224.0 203.0 L 224.0 210.0 L 224.0 217.0 L 224.0 223.0 L 224.0 229.0 L 224.0 233.0 L 224.0 236.0 L 224.0 236.0 L 225.0 236.0 L 225.0 235.0 " stroke="black" fill="none" stroke-width="5.0" stroke-linecap="round" stroke-linejoin="round" />
<path d="M 161.0 164.0 L 161.0 164.0 L 160.0 163.0 L 159.0 163.0 L 159.0 163.0 L 159.0 163.0 L 159.0 163.0 L 161.0 163.0 L 165.0 163.0 L 170.0 163.0 L 177.0 163.0 L 184.0 163.0 L 191.0 163.0 L 198.0 163.0 L 206.0 163.0 L 212.0 163.0 L 218.0 163.0 L 221.0 163.0 " stroke="black" fill="none" stroke-width="5.0" stroke-linecap="round" stroke-linejoin="round" />
<path d="M 74.0 233.0 L 74.0 233.0 L 72.0 233.0 L 70.0 232.0 L 69.0 232.0 L 68.0 232.0 L 67.0 232.0 L 67.0 231.0 L 67.0 231.0 L 67.0 231.0 L 68.0 231.0 L 70.0 230.0 L 73.0 230.0 L 76.0 230.0 L 81.0 230.0 L 86.0 230.0 L 92.0 230.0 L 99.0 230.0 L 105.0 230.0 L 113.0 230.0 L 122.0 230.0 L 132.0 230.0 L 141.0 230.0 L 150.0 230.0 L 156.0 230.0 L 162.0 230.0 L 168.0 230.0 L 174.0 230.0 L 179.0 230.0 L 184.0 230.0 L 188.0 230.0 L 192.0 230.0 L 194.0 230.0 L 196.0 230.0 L 197.0 230.0 L 199.0 230.0 L 200.0 230.0 L 202.0 230.0 L 203.0 230.0 L 204.0 230.0 L 204.0 230.0 L 205.0 230.0 L 205.0 230.0 L 204.0 231.0 " stroke="black" fill="none" stroke-width="5.0" stroke-linecap="round" stroke-linejoin="round" />
</svg>