<svg xmlns="http://www.w3.org/2000/svg" width="300" height="300" viewBox="0 0 300 300">
<path d="M 118.0 80.0 L 118.0 80.0 L 118.0 80.0 L 118.0 80.0 L 118.0 79.0 L 118.0 79.0 L 118.0 79.0 L 118.0 79.0 L 118.0 79.0 L 119.0 80.0 L 120.0 82.0 L 121.0 84.0 L 121.0 87.0 L 122.0 91.0 L 123.0 95.0 L 123.0 101.0 L 124.0 108.0 L 124.0 115.0 L 124.0 122.0 L 124.0 130.0 L 124.0 139.0 L 124.0 148.0 L 124.0 156.0 L 124.0 164.0 L 124.0 172.0 L 125.0 181.0 L 126.0 191.0 L 126.0 200.0 L 127.0 209.0 L 128.0 217.0 L 129.0 224.0 L 129.0 230.0 L 130.0 235.0 L 130.0 238.0 L 130.0 239.0 L 130.0 240.0 L 130.0 240.0 " stroke="black" fill="none" stroke-width="5.0" stroke-linecap="round" stroke-linejoin="round" />
<path d="M 81.0 111.0 L 80.0 111.0 L 78.0 110.0 L 77.0 110.0 L 77.0 109.0 L 76.0 109.0 L 76.0 109.0 L 77.0 109.0 L 79.0 109.0 L 83.0 110.0 L 87.0 110.0 L 93.0 111.0 L 99.0 111.0 L 106.0 111.0 L 113.0 111.0 L 121.0 111.0 L 129.0 111.0 L 133.0 111.0 " stroke="black" fill="none" stroke-width="5.0" stroke-linecap="round" stroke-linejoin="round" />
<path d="M 81.0 156.0 L 79.0 156.0 L 77.0 156.0 L 75.0 156.0 L 74.0 156.0 L 74.0 156.0 L 74.0 156.0 L 75.0 156.0 L 78.0 156.0 L 82.0 156.0 L 88.0 156.0 L 94.0 155.0 L 101.0 155.0 L 107.0 154.0 L 114.0 154.0 L 121.0 154.0 L 124.0 154.0 " stroke="black" fill="none" stroke-width="5.0" stroke-linecap="round" stroke-linejoin="round" />
<path d="M 72.0 206.0 L 70.0 206.0 L 69.0 206.0 L 67.0 206.0 L 67.0 206.0 L 67.0 206.0 L 67.0 206.0 L 69.0 206.0 L 72.0 206.0 L 77.0 205.0 L 84.0 204.0 L 92.0 202.0 L 100.0 200.0 L 108.0 198.0 L 117.0 195.0 L 121.0 195.0 " stroke="black" fill="none" stroke-width="5.0" stroke-linecap="round" stroke-linejoin="round" />
<path d="M 177.0 79.0 L 177.0 79.0 L 176.0 79.0 L 175.0 79.0 L 175.0 79.0 L 174.0 79.0 L 174.0 80.0 L 174.0 83.0 L 174.0 88.0 L 174.0 94.0 L 175.0 103.0 L 177.0 113.0 L 178.0 124.0 L 179.0 136.0 L 179.0 149.0 L 180.0 163.0 L 180.0 175.0 L 180.0 189.0 L 180.0 203.0 L 179.0 214.0 L 179.0 223.0 L 178.0 231.0 L 178.0 234.0 L 178.0 234.0 L 178.0 234.0 " stroke="black" fill="none" stroke-width="5.0" stroke-linecap="round" stroke-linejoin="round" />
<path d="M 193.0 110.0 L 192.0 110.0 L 190.0 110.0 L 189.0 109.0 L 189.0 109.0 L 189.0 109.0 L 189.0 109.0 L 189.0 109.0 L 191.0 109.0 L 194.0 109.0 L 198.0 109.0 L 204.0 109.0 L 211.0 109.0 L 218.0 109.0 L 226.0 110.0 L 232.0 111.0 L 234.0 111.0 " stroke="black" fill="none" stroke-width="5.0" stroke-linecap="round" stroke-linejoin="round" />
<path d="M 188.0 153.0 L 188.0 153.0 L 187.0 153.0 L 186.0 153.0 L 186.0 152.0 L 186.0 152.0 L 187.0 152.0 L 189.0 151.0 L 192.0 151.0 L 196.0 150.0 L 202.0 150.0 L 208.0 150.0 L 215.0 149.0 L 223.0 149.0 L 230.0 149.0 L 234.0 150.0 " stroke="black" fill="none" stroke-width="5.0" stroke-linecap="round" stroke-linejoin="round" />
<path d="M 187.0 194.0 L 186.0 194.0 L 184.0 194.0 L 183.0 195.0 L 182.0 196.0 L 182.0 196.0 L 182.0 197.0 L 183.0 197.0 L 186.0 198.0 L 189.0 198.0 L 193.0 198.0 L 198.0 198.0 L 204.0 198.0 L 212.0 198.0 L 221.0 198.0 L 230.0 197.0 L 237.0 196.0 " stroke="black" fill="none" stroke-width="5.0" stroke-linecap="round" stroke-linejoin="round" />
<path d="M 64.0 246.0 L 64.0 246.0 L 63.0 246.0 L 62.0 246.0 L 61.0 245.0 L 61.0 245.0 L 61.0 245.0 L 61.0 245.0 L 62.0 245.0 L 64.0 245.0 L 68.0 245.0 L 74.0 245.0 L 82.0 245.0 L 92.0 245.0 L 103.0 245.0 L 115.0 245.0 L 128.0 245.0 L 143.0 245.0 L 155.0 245.0 L 165.0 245.0 L 177.0 245.0 L 189.0 245.0 L 196.0 245.0 L 202.0 245.0 L 208.0 245.0 L 214.0 245.0 L 219.0 245.0 L 223.0 245.0 L 226.0 246.0 L 228.0 246.0 L 230.0 246.0 L 230.0 246.0 " stroke="black" fill="none" stroke-width="5.0" stroke-linecap="round" stroke-linejoin="round" />
</svg>