<svg xmlns="http://www.w3.org/2000/svg" width="300" height="300" viewBox="0 0 300 300">
<path d="M 110.0 84.0 L 110.0 84.0 L 110.0 84.0 L 110.0 83.0 L 110.0 82.0 L 109.0 82.0 L 109.0 81.0 L 109.0 81.0 L 109.0 80.0 L 109.0 80.0 L 109.0 80.0 L 109.0 80.0 L 109.0 80.0 L 109.0 82.0 L 109.0 84.0 L 109.0 88.0 L 109.0 94.0 L 109.0 101.0 L 109.0 109.0 L 109.0 118.0 L 109.0 126.0 L 109.0 133.0 L 109.0 138.0 L 110.0 141.0 L 110.0 143.0 L 110.0 143.0 " stroke="black" fill="none" stroke-width="5.0" stroke-linecap="round" stroke-linejoin="round" />
<path d="M 112.0 75.0 L 112.0 75.0 L 112.0 75.0 L 112.0 75.0 L 112.0 75.0 L 111.0 75.0 L 111.0 75.0 L 111.0 74.0 L 110.0 74.0 L 110.0 74.0 L 110.0 74.0 L 110.0 74.0 L 110.0 74.0 L 110.0 74.0 L 110.0 74.0 L 111.0 74.0 L 111.0 74.0 L 112.0 74.0 L 112.0 74.0 L 113.0 74.0 L 114.0 74.0 L 115.0 74.0 L 116.0 74.0 L 118.0 74.0 L 119.0 74.0 L 120.0 74.0 L 122.0 74.0 L 124.0 74.0 L 125.0 74.0 L 127.0 74.0 L 129.0 74.0 L 131.0 74.0 L 133.0 74.0 L 135.0 74.0 L 136.0 74.0 L 138.0 74.0 L 140.0 73.0 L 141.0 73.0 L 143.0 73.0 L 145.0 73.0 L 146.0 73.0 L 148.0 73.0 L 149.0 73.0 L 150.0 73.0 L 152.0 73.0 L 153.0 73.0 L 153.0 73.0 L 154.0 73.0 L 155.0 73.0 L 156.0 73.0 L 157.0 73.0 L 157.0 73.0 L 158.0 73.0 L 159.0 73.0 L 160.0 73.0 L 161.0 73.0 L 162.0 72.0 L 164.0 72.0 L 165.0 72.0 L 166.0 72.0 L 168.0 72.0 L 169.0 72.0 L 170.0 72.0 L 171.0 72.0 L 173.0 72.0 L 174.0 72.0 L 175.0 72.0 L 177.0 72.0 L 178.0 72.0 L 179.0 72.0 L 180.0 72.0 L 181.0 72.0 L 182.0 72.0 L 183.0 72.0 L 184.0 72.0 L 185.0 72.0 L 185.0 72.0 L 186.0 73.0 L 186.0 73.0 L 187.0 73.0 L 187.0 73.0 L 187.0 74.0 L 187.0 74.0 L 187.0 75.0 L 187.0 75.0 L 187.0 76.0 L 187.0 77.0 L 188.0 79.0 L 188.0 80.0 L 188.0 82.0 L 188.0 84.0 L 188.0 88.0 L 188.0 92.0 L 189.0 98.0 L 189.0 103.0 L 189.0 109.0 L 189.0 114.0 L 189.0 119.0 L 189.0 123.0 L 188.0 127.0 L 188.0 131.0 L 188.0 133.0 L 188.0 136.0 L 188.0 138.0 L 188.0 139.0 L 188.0 141.0 L 188.0 143.0 L 187.0 144.0 L 187.0 145.0 L 187.0 146.0 L 187.0 146.0 " stroke="black" fill="none" stroke-width="5.0" stroke-linecap="round" stroke-linejoin="round" />
<path d="M 119.0 100.0 L 118.0 100.0 L 117.0 99.0 L 116.0 98.0 L 115.0 98.0 L 114.0 98.0 L 114.0 97.0 L 114.0 97.0 L 114.0 97.0 L 115.0 97.0 L 117.0 97.0 L 119.0 97.0 L 122.0 98.0 L 127.0 99.0 L 132.0 99.0 L 138.0 99.0 L 144.0 100.0 L 150.0 100.0 L 156.0 100.0 L 162.0 100.0 L 167.0 99.0 L 171.0 99.0 L 173.0 99.0 " stroke="black" fill="none" stroke-width="5.0" stroke-linecap="round" stroke-linejoin="round" />
<path d="M 118.0 121.0 L 118.0 121.0 L 116.0 121.0 L 114.0 121.0 L 113.0 121.0 L 112.0 121.0 L 111.0 121.0 L 111.0 121.0 L 111.0 121.0 L 111.0 121.0 L 113.0 121.0 L 116.0 121.0 L 121.0 121.0 L 127.0 121.0 L 134.0 121.0 L 140.0 120.0 L 147.0 120.0 L 153.0 120.0 L 159.0 119.0 L 165.0 119.0 L 170.0 119.0 L 173.0 119.0 " stroke="black" fill="none" stroke-width="5.0" stroke-linecap="round" stroke-linejoin="round" />
<path d="M 114.0 148.0 L 113.0 148.0 L 112.0 148.0 L 111.0 148.0 L 111.0 148.0 L 110.0 148.0 L 110.0 148.0 L 110.0 148.0 L 110.0 148.0 L 111.0 148.0 L 113.0 148.0 L 116.0 148.0 L 120.0 148.0 L 125.0 148.0 L 131.0 148.0 L 137.0 148.0 L 143.0 147.0 L 149.0 147.0 L 154.0 146.0 L 159.0 146.0 L 164.0 145.0 L 168.0 144.0 L 171.0 143.0 L 174.0 142.0 " stroke="black" fill="none" stroke-width="5.0" stroke-linecap="round" stroke-linejoin="round" />
<path d="M 75.0 98.0 L 75.0 98.0 L 75.0 98.0 L 76.0 97.0 L 76.0 97.0 L 76.0 97.0 L 76.0 96.0 L 76.0 96.0 L 76.0 96.0 L 76.0 96.0 L 76.0 96.0 L 76.0 98.0 L 76.0 99.0 L 76.0 102.0 L 76.0 104.0 L 76.0 107.0 L 76.0 110.0 L 76.0 113.0 L 76.0 117.0 L 76.0 120.0 L 75.0 124.0 L 75.0 128.0 L 74.0 131.0 L 74.0 135.0 L 73.0 139.0 L 73.0 143.0 L 72.0 147.0 L 72.0 151.0 L 71.0 154.0 L 71.0 157.0 L 71.0 160.0 L 71.0 162.0 L 71.0 163.0 L 71.0 165.0 L 71.0 166.0 L 71.0 166.0 L 71.0 167.0 L 71.0 168.0 L 71.0 168.0 L 71.0 169.0 L 71.0 170.0 L 71.0 170.0 L 71.0 171.0 L 72.0 171.0 L 72.0 171.0 L 72.0 172.0 L 72.0 172.0 L 73.0 172.0 L 73.0 172.0 L 73.0 172.0 L 73.0 172.0 L 73.0 172.0 L 74.0 172.0 L 74.0 172.0 L 75.0 172.0 L 75.0 172.0 L 76.0 172.0 L 77.0 172.0 L 78.0 171.0 L 79.0 171.0 L 80.0 171.0 L 82.0 171.0 L 84.0 170.0 L 87.0 170.0 L 89.0 170.0 L 92.0 169.0 L 94.0 169.0 L 97.0 169.0 L 100.0 168.0 L 103.0 168.0 L 105.0 168.0 L 107.0 167.0 L 110.0 167.0 L 112.0 167.0 L 114.0 166.0 L 116.0 166.0 L 118.0 166.0 L 120.0 166.0 L 122.0 166.0 L 124.0 166.0 L 126.0 166.0 L 128.0 166.0 L 130.0 166.0 L 131.0 166.0 L 133.0 166.0 L 134.0 166.0 L 135.0 166.0 L 135.0 166.0 L 136.0 166.0 L 137.0 166.0 L 137.0 166.0 L 137.0 166.0 L 137.0 166.0 L 137.0 166.0 L 137.0 166.0 L 137.0 166.0 L 137.0 166.0 L 137.0 166.0 L 137.0 166.0 L 137.0 167.0 L 137.0 168.0 L 137.0 169.0 L 137.0 170.0 L 137.0 172.0 L 136.0 175.0 L 136.0 180.0 L 136.0 184.0 L 135.0 190.0 L 135.0 196.0 L 134.0 202.0 L 134.0 208.0 L 133.0 213.0 L 133.0 217.0 L 132.0 221.0 L 132.0 226.0 L 132.0 230.0 L 131.0 235.0 L 131.0 239.0 L 131.0 243.0 L 130.0 245.0 L 130.0 248.0 L 130.0 249.0 L 130.0 249.0 L 130.0 250.0 L 130.0 250.0 L 130.0 250.0 " stroke="black" fill="none" stroke-width="5.0" stroke-linecap="round" stroke-linejoin="round" />
<path d="M 65.0 202.0 L 65.0 202.0 L 64.0 202.0 L 63.0 202.0 L 62.0 202.0 L 62.0 201.0 L 61.0 201.0 L 61.0 201.0 L 61.0 201.0 L 61.0 201.0 L 61.0 200.0 L 62.0 200.0 L 63.0 200.0 L 65.0 200.0 L 68.0 200.0 L 71.0 200.0 L 76.0 200.0 L 82.0 200.0 L 89.0 200.0 L 98.0 200.0 L 105.0 200.0 L 111.0 199.0 L 116.0 198.0 L 121.0 196.0 L 123.0 196.0 " stroke="black" fill="none" stroke-width="5.0" stroke-linecap="round" stroke-linejoin="round" />
<path d="M 89.0 209.0 L 89.0 209.0 L 89.0 208.0 L 89.0 207.0 L 88.0 207.0 L 88.0 207.0 L 88.0 207.0 L 88.0 207.0 L 88.0 207.0 L 88.0 209.0 L 88.0 212.0 L 88.0 216.0 L 87.0 222.0 L 86.0 227.0 L 83.0 234.0 L 81.0 240.0 L 78.0 246.0 L 76.0 250.0 L 74.0 253.0 L 74.0 254.0 " stroke="black" fill="none" stroke-width="5.0" stroke-linecap="round" stroke-linejoin="round" />
<path d="M 223.0 91.0 L 223.0 91.0 L 223.0 92.0 L 222.0 92.0 L 222.0 93.0 L 222.0 93.0 L 221.0 94.0 L 221.0 95.0 L 221.0 96.0 L 221.0 98.0 L 221.0 100.0 L 221.0 102.0 L 221.0 104.0 L 221.0 106.0 L 221.0 109.0 L 221.0 112.0 L 221.0 115.0 L 221.0 119.0 L 222.0 122.0 L 222.0 126.0 L 222.0 130.0 L 222.0 134.0 L 222.0 137.0 L 221.0 141.0 L 221.0 145.0 L 220.0 148.0 L 220.0 151.0 L 219.0 155.0 L 218.0 157.0 L 217.0 159.0 L 216.0 161.0 L 215.0 162.0 L 215.0 162.0 L 215.0 162.0 L 214.0 162.0 L 214.0 162.0 L 214.0 162.0 L 214.0 162.0 L 213.0 161.0 L 212.0 161.0 L 212.0 161.0 L 211.0 161.0 L 210.0 161.0 L 209.0 161.0 L 208.0 161.0 L 207.0 161.0 L 205.0 161.0 L 204.0 161.0 L 202.0 161.0 L 200.0 161.0 L 198.0 162.0 L 195.0 162.0 L 193.0 162.0 L 191.0 162.0 L 189.0 162.0 L 187.0 162.0 L 185.0 163.0 L 183.0 163.0 L 181.0 163.0 L 179.0 163.0 L 177.0 164.0 L 175.0 164.0 L 174.0 164.0 L 173.0 164.0 L 171.0 164.0 L 170.0 164.0 L 169.0 164.0 L 169.0 164.0 L 169.0 164.0 L 168.0 164.0 L 168.0 164.0 L 168.0 164.0 L 168.0 164.0 L 168.0 164.0 L 168.0 164.0 L 168.0 164.0 L 168.0 164.0 L 168.0 164.0 L 168.0 164.0 L 169.0 164.0 L 169.0 164.0 L 169.0 164.0 L 169.0 165.0 L 169.0 165.0 L 169.0 166.0 L 169.0 167.0 L 170.0 168.0 L 170.0 170.0 L 170.0 173.0 L 171.0 176.0 L 171.0 180.0 L 171.0 184.0 L 171.0 189.0 L 172.0 193.0 L 172.0 198.0 L 172.0 202.0 L 172.0 207.0 L 172.0 211.0 L 172.0 215.0 L 171.0 220.0 L 171.0 224.0 L 171.0 229.0 L 170.0 233.0 L 170.0 236.0 L 170.0 238.0 L 170.0 240.0 L 170.0 242.0 L 170.0 243.0 L 170.0 245.0 L 169.0 246.0 L 169.0 247.0 L 168.0 248.0 L 168.0 249.0 L 167.0 250.0 L 167.0 250.0 L 167.0 250.0 L 167.0 250.0 L 167.0 250.0 L 167.0 250.0 L 169.0 249.0 " stroke="black" fill="none" stroke-width="5.0" stroke-linecap="round" stroke-linejoin="round" />
<path d="M 180.0 202.0 L 180.0 202.0 L 179.0 202.0 L 177.0 202.0 L 176.0 202.0 L 175.0 201.0 L 175.0 201.0 L 174.0 201.0 L 174.0 201.0 L 174.0 201.0 L 174.0 201.0 L 175.0 201.0 L 176.0 201.0 L 178.0 201.0 L 180.0 201.0 L 183.0 201.0 L 186.0 201.0 L 189.0 201.0 L 191.0 201.0 L 195.0 200.0 L 198.0 200.0 L 202.0 200.0 L 207.0 200.0 L 211.0 199.0 L 215.0 199.0 L 218.0 199.0 L 221.0 199.0 L 223.0 199.0 L 224.0 199.0 L 225.0 199.0 L 225.0 200.0 L 225.0 200.0 L 226.0 201.0 L 226.0 201.0 L 226.0 201.0 L 226.0 202.0 L 226.0 202.0 L 226.0 202.0 L 226.0 202.0 L 226.0 203.0 L 226.0 203.0 L 226.0 204.0 L 226.0 205.0 L 226.0 207.0 L 226.0 209.0 L 225.0 211.0 L 225.0 215.0 L 225.0 219.0 L 224.0 225.0 L 224.0 230.0 L 224.0 236.0 L 224.0 241.0 L 224.0 246.0 L 225.0 250.0 L 225.0 253.0 L 225.0 255.0 L 226.0 257.0 L 226.0 259.0 L 226.0 259.0 L 226.0 260.0 L 226.0 260.0 L 226.0 260.0 L 226.0 260.0 " stroke="black" fill="none" stroke-width="5.0" stroke-linecap="round" stroke-linejoin="round" />
</svg>