<svg xmlns="http://www.w3.org/2000/svg" width="300" height="300" viewBox="0 0 300 300">
<path d="M 113.0 71.0 L 113.0 71.0 L 113.0 71.0 L 113.0 72.0 L 113.0 72.0 L 113.0 73.0 L 113.0 74.0 L 113.0 75.0 L 112.0 78.0 L 111.0 82.0 L 108.0 87.0 L 105.0 95.0 L 100.0 103.0 L 94.0 112.0 L 86.0 121.0 L 77.0 128.0 L 70.0 134.0 L 65.0 139.0 " stroke="black" fill="none" stroke-width="5.0" stroke-linecap="round" stroke-linejoin="round" />
<path d="M 187.0 75.0 L 187.0 75.0 L 187.0 75.0 L 186.0 75.0 L 186.0 75.0 L 186.0 75.0 L 186.0 76.0 L 187.0 78.0 L 189.0 81.0 L 192.0 84.0 L 195.0 88.0 L 200.0 93.0 L 206.0 98.0 L 212.0 102.0 L 219.0 107.0 L 226.0 111.0 L 230.0 115.0 " stroke="black" fill="none" stroke-width="5.0" stroke-linecap="round" stroke-linejoin="round" />
<path d="M 85.0 245.0 L 85.0 245.0 L 85.0 245.0 L 85.0 245.0 L 85.0 245.0 L 85.0 245.0 L 85.0 245.0 L 86.0 244.0 L 88.0 243.0 L 91.0 242.0 L 96.0 239.0 L 101.0 235.0 L 108.0 231.0 L 116.0 225.0 L 125.0 219.0 L 136.0 213.0 L 146.0 206.0 L 154.0 199.0 L 161.0 192.0 L 169.0 184.0 L 177.0 176.0 L 184.0 169.0 L 190.0 162.0 L 193.0 157.0 L 195.0 152.0 L 197.0 147.0 L 198.0 141.0 L 199.0 136.0 L 201.0 131.0 L 202.0 127.0 L 203.0 126.0 " stroke="black" fill="none" stroke-width="5.0" stroke-linecap="round" stroke-linejoin="round" />
<path d="M 107.0 131.0 L 107.0 131.0 L 106.0 132.0 L 105.0 134.0 L 105.0 137.0 L 104.0 140.0 L 104.0 143.0 L 104.0 147.0 L 104.0 151.0 L 104.0 154.0 L 105.0 157.0 L 107.0 160.0 L 108.0 163.0 L 110.0 167.0 L 113.0 170.0 L 116.0 174.0 L 119.0 179.0 L 124.0 185.0 L 129.0 190.0 L 136.0 195.0 L 143.0 199.0 L 149.0 202.0 L 155.0 206.0 L 161.0 209.0 L 168.0 213.0 L 175.0 218.0 L 182.0 223.0 L 189.0 228.0 L 194.0 234.0 L 198.0 238.0 L 203.0 242.0 L 208.0 245.0 L 213.0 248.0 L 219.0 250.0 L 225.0 251.0 L 229.0 252.0 L 233.0 252.0 " stroke="black" fill="none" stroke-width="5.0" stroke-linecap="round" stroke-linejoin="round" />
</svg>