<svg xmlns="http://www.w3.org/2000/svg" width="300" height="300" viewBox="0 0 300 300">
<path d="M 155.0 68.0 L 155.0 68.0 L 155.0 68.0 L 155.0 68.0 L 155.0 67.0 L 155.0 67.0 L 155.0 67.0 L 154.0 67.0 L 154.0 68.0 L 153.0 70.0 L 152.0 72.0 L 150.0 75.0 L 147.0 79.0 L 143.0 85.0 L 135.0 92.0 L 126.0 100.0 L 115.0 109.0 L 106.0 117.0 L 98.0 123.0 L 87.0 128.0 L 77.0 132.0 L 68.0 135.0 L 64.0 137.0 " stroke="black" fill="none" stroke-width="5.0" stroke-linecap="round" stroke-linejoin="round" />
<path d="M 148.0 88.0 L 148.0 88.0 L 148.0 88.0 L 147.0 87.0 L 147.0 87.0 L 146.0 87.0 L 146.0 87.0 L 146.0 87.0 L 148.0 87.0 L 150.0 89.0 L 154.0 91.0 L 158.0 94.0 L 165.0 97.0 L 173.0 101.0 L 183.0 105.0 L 191.0 109.0 L 199.0 114.0 L 206.0 118.0 L 214.0 123.0 L 222.0 127.0 L 228.0 131.0 L 233.0 134.0 L 235.0 136.0 " stroke="black" fill="none" stroke-width="5.0" stroke-linecap="round" stroke-linejoin="round" />
<path d="M 109.0 138.0 L 108.0 138.0 L 108.0 138.0 L 107.0 138.0 L 106.0 138.0 L 106.0 138.0 L 106.0 138.0 L 107.0 138.0 L 111.0 138.0 L 116.0 138.0 L 125.0 137.0 L 135.0 137.0 L 145.0 137.0 L 157.0 137.0 L 168.0 137.0 L 180.0 137.0 L 191.0 137.0 L 197.0 137.0 L 200.0 138.0 L 202.0 140.0 " stroke="black" fill="none" stroke-width="5.0" stroke-linecap="round" stroke-linejoin="round" />
<path d="M 83.0 182.0 L 82.0 182.0 L 80.0 182.0 L 79.0 182.0 L 78.0 181.0 L 78.0 181.0 L 78.0 181.0 L 78.0 180.0 L 80.0 180.0 L 84.0 180.0 L 89.0 179.0 L 94.0 179.0 L 101.0 178.0 L 107.0 178.0 L 116.0 177.0 L 127.0 177.0 L 139.0 177.0 L 151.0 177.0 L 162.0 177.0 L 173.0 177.0 L 185.0 177.0 L 195.0 177.0 L 200.0 176.0 L 205.0 175.0 L 209.0 174.0 L 212.0 173.0 L 212.0 173.0 " stroke="black" fill="none" stroke-width="5.0" stroke-linecap="round" stroke-linejoin="round" />
<path d="M 147.0 148.0 L 146.0 148.0 L 144.0 148.0 L 143.0 148.0 L 143.0 148.0 L 142.0 148.0 L 142.0 149.0 L 142.0 152.0 L 143.0 156.0 L 144.0 162.0 L 145.0 170.0 L 147.0 180.0 L 148.0 191.0 L 149.0 202.0 L 150.0 213.0 L 150.0 223.0 L 150.0 232.0 L 150.0 240.0 L 149.0 244.0 L 148.0 245.0 L 148.0 245.0 " stroke="black" fill="none" stroke-width="5.0" stroke-linecap="round" stroke-linejoin="round" />
<path d="M 97.0 205.0 L 97.0 205.0 L 95.0 205.0 L 94.0 204.0 L 94.0 204.0 L 94.0 204.0 L 94.0 204.0 L 97.0 204.0 L 100.0 206.0 L 103.0 207.0 L 106.0 209.0 L 110.0 211.0 L 115.0 214.0 L 122.0 217.0 L 126.0 219.0 " stroke="black" fill="none" stroke-width="5.0" stroke-linecap="round" stroke-linejoin="round" />
<path d="M 204.0 196.0 L 203.0 197.0 L 202.0 198.0 L 201.0 199.0 L 199.0 200.0 L 198.0 203.0 L 196.0 206.0 L 194.0 209.0 L 193.0 213.0 L 191.0 218.0 L 189.0 223.0 L 188.0 227.0 L 187.0 230.0 L 187.0 232.0 " stroke="black" fill="none" stroke-width="5.0" stroke-linecap="round" stroke-linejoin="round" />
<path d="M 68.0 241.0 L 68.0 241.0 L 68.0 241.0 L 68.0 241.0 L 68.0 241.0 L 68.0 241.0 L 68.0 241.0 L 71.0 241.0 L 75.0 241.0 L 83.0 241.0 L 93.0 241.0 L 104.0 241.0 L 118.0 241.0 L 132.0 241.0 L 147.0 241.0 L 158.0 241.0 L 169.0 242.0 L 180.0 242.0 L 191.0 242.0 L 198.0 243.0 L 205.0 243.0 L 213.0 243.0 L 220.0 244.0 L 226.0 244.0 L 230.0 245.0 L 233.0 245.0 L 235.0 245.0 L 236.0 245.0 " stroke="black" fill="none" stroke-width="5.0" stroke-linecap="round" stroke-linejoin="round" />
</svg>