<svg xmlns="http://www.w3.org/2000/svg" width="300" height="300" viewBox="0 0 300 300">
<path d="M 78.0 90.0 L 77.0 90.0 L 75.0 90.0 L 73.0 90.0 L 72.0 90.0 L 71.0 89.0 L 71.0 89.0 L 71.0 89.0 L 71.0 89.0 L 71.0 89.0 L 73.0 89.0 L 75.0 89.0 L 79.0 89.0 L 83.0 89.0 L 89.0 89.0 L 95.0 89.0 L 102.0 89.0 L 110.0 89.0 L 121.0 88.0 L 135.0 87.0 L 148.0 86.0 L 161.0 85.0 L 172.0 85.0 L 183.0 85.0 L 192.0 85.0 L 198.0 86.0 L 202.0 87.0 L 206.0 88.0 L 210.0 89.0 L 215.0 90.0 L 219.0 91.0 L 221.0 91.0 " stroke="black" fill="none" stroke-width="5.0" stroke-linecap="round" stroke-linejoin="round" />
<path d="M 91.0 128.0 L 91.0 128.0 L 90.0 127.0 L 89.0 126.0 L 89.0 126.0 L 88.0 125.0 L 88.0 125.0 L 88.0 125.0 L 89.0 127.0 L 90.0 128.0 L 92.0 134.0 L 93.0 140.0 L 94.0 147.0 L 94.0 154.0 L 94.0 162.0 L 93.0 169.0 L 92.0 174.0 L 91.0 178.0 L 90.0 182.0 L 90.0 182.0 " stroke="black" fill="none" stroke-width="5.0" stroke-linecap="round" stroke-linejoin="round" />
<path d="M 93.0 122.0 L 93.0 122.0 L 92.0 122.0 L 91.0 122.0 L 91.0 122.0 L 91.0 122.0 L 91.0 122.0 L 91.0 122.0 L 91.0 122.0 L 91.0 122.0 L 92.0 122.0 L 93.0 122.0 L 95.0 122.0 L 97.0 122.0 L 98.0 122.0 L 100.0 122.0 L 102.0 122.0 L 104.0 121.0 L 106.0 121.0 L 109.0 121.0 L 112.0 121.0 L 115.0 121.0 L 119.0 120.0 L 123.0 120.0 L 127.0 120.0 L 132.0 120.0 L 136.0 120.0 L 140.0 120.0 L 143.0 120.0 L 146.0 121.0 L 148.0 121.0 L 151.0 121.0 L 153.0 122.0 L 155.0 122.0 L 157.0 122.0 L 159.0 122.0 L 162.0 122.0 L 165.0 122.0 L 168.0 122.0 L 171.0 122.0 L 175.0 122.0 L 179.0 122.0 L 182.0 122.0 L 185.0 122.0 L 189.0 122.0 L 191.0 122.0 L 194.0 122.0 L 196.0 122.0 L 198.0 122.0 L 199.0 122.0 L 201.0 122.0 L 202.0 122.0 L 204.0 122.0 L 205.0 122.0 L 206.0 122.0 L 207.0 122.0 L 208.0 122.0 L 209.0 123.0 L 209.0 123.0 L 209.0 124.0 L 210.0 125.0 L 210.0 125.0 L 210.0 127.0 L 210.0 128.0 L 210.0 130.0 L 210.0 133.0 L 209.0 137.0 L 208.0 142.0 L 207.0 148.0 L 206.0 154.0 L 205.0 161.0 L 204.0 167.0 L 203.0 172.0 L 202.0 177.0 L 201.0 181.0 L 201.0 183.0 L 201.0 184.0 L 201.0 184.0 " stroke="black" fill="none" stroke-width="5.0" stroke-linecap="round" stroke-linejoin="round" />
<path d="M 104.0 153.0 L 103.0 153.0 L 102.0 152.0 L 101.0 152.0 L 101.0 152.0 L 101.0 151.0 L 101.0 151.0 L 101.0 151.0 L 103.0 151.0 L 106.0 151.0 L 110.0 151.0 L 117.0 151.0 L 125.0 152.0 L 137.0 152.0 L 148.0 152.0 L 158.0 152.0 L 169.0 151.0 L 179.0 151.0 L 186.0 151.0 L 191.0 151.0 L 194.0 151.0 " stroke="black" fill="none" stroke-width="5.0" stroke-linecap="round" stroke-linejoin="round" />
<path d="M 98.0 187.0 L 97.0 187.0 L 95.0 187.0 L 93.0 187.0 L 92.0 187.0 L 92.0 187.0 L 92.0 187.0 L 93.0 187.0 L 96.0 187.0 L 100.0 187.0 L 104.0 187.0 L 110.0 187.0 L 118.0 188.0 L 128.0 188.0 L 140.0 188.0 L 151.0 188.0 L 163.0 188.0 L 174.0 188.0 L 184.0 188.0 L 192.0 188.0 " stroke="black" fill="none" stroke-width="5.0" stroke-linecap="round" stroke-linejoin="round" />
<path d="M 70.0 216.0 L 70.0 216.0 L 70.0 216.0 L 70.0 216.0 L 69.0 216.0 L 69.0 216.0 L 71.0 216.0 L 74.0 217.0 L 80.0 218.0 L 88.0 218.0 L 98.0 219.0 L 109.0 219.0 L 123.0 219.0 L 139.0 219.0 L 154.0 219.0 L 167.0 218.0 L 181.0 218.0 L 193.0 219.0 L 201.0 219.0 L 208.0 219.0 L 215.0 219.0 L 222.0 219.0 L 228.0 219.0 L 231.0 219.0 L 232.0 219.0 " stroke="black" fill="none" stroke-width="5.0" stroke-linecap="round" stroke-linejoin="round" />
<path d="M 151.0 62.0 L 151.0 62.0 L 151.0 63.0 L 151.0 63.0 L 151.0 65.0 L 151.0 67.0 L 151.0 70.0 L 151.0 74.0 L 151.0 81.0 L 151.0 89.0 L 152.0 101.0 L 152.0 114.0 L 152.0 128.0 L 153.0 145.0 L 153.0 160.0 L 153.0 172.0 L 153.0 184.0 L 152.0 194.0 L 152.0 202.0 L 152.0 209.0 L 153.0 215.0 L 153.0 220.0 L 154.0 225.0 L 154.0 229.0 L 154.0 233.0 L 154.0 236.0 L 154.0 238.0 L 154.0 240.0 L 154.0 240.0 " stroke="black" fill="none" stroke-width="5.0" stroke-linecap="round" stroke-linejoin="round" />
<path d="M 151.0 233.0 L 151.0 233.0 L 151.0 233.0 L 151.0 232.0 L 151.0 232.0 L 151.0 231.0 L 151.0 230.0 L 151.0 230.0 L 151.0 229.0 L 151.0 229.0 L 151.0 228.0 L 151.0 227.0 L 151.0 227.0 L 151.0 227.0 L 151.0 226.0 L 151.0 226.0 L 151.0 226.0 L 151.0 226.0 L 151.0 226.0 L 151.0 226.0 L 151.0 226.0 L 151.0 226.0 L 151.0 227.0 L 151.0 227.0 L 151.0 229.0 L 151.0 230.0 L 151.0 231.0 L 151.0 233.0 L 151.0 236.0 L 151.0 238.0 L 151.0 241.0 L 151.0 244.0 L 151.0 247.0 L 151.0 250.0 L 151.0 252.0 L 151.0 254.0 L 151.0 255.0 L 151.0 256.0 L 151.0 256.0 " stroke="black" fill="none" stroke-width="5.0" stroke-linecap="round" stroke-linejoin="round" />
</svg>