<svg xmlns="http://www.w3.org/2000/svg" width="300" height="300" viewBox="0 0 300 300">
<path d="M 76.0 105.0 L 76.0 105.0 L 77.0 103.0 L 79.0 103.0 L 81.0 102.0 L 84.0 100.0 L 88.0 99.0 L 94.0 98.0 L 100.0 97.0 L 105.0 96.0 L 112.0 94.0 L 121.0 93.0 L 132.0 90.0 L 145.0 86.0 L 157.0 82.0 L 171.0 77.0 L 186.0 71.0 L 198.0 66.0 L 204.0 62.0 L 207.0 61.0 " stroke="black" fill="none" stroke-width="5.0" stroke-linecap="round" stroke-linejoin="round" />
<path d="M 83.0 151.0 L 83.0 151.0 L 83.0 150.0 L 83.0 150.0 L 83.0 149.0 L 83.0 148.0 L 87.0 146.0 L 92.0 145.0 L 99.0 143.0 L 107.0 140.0 L 118.0 138.0 L 132.0 135.0 L 147.0 132.0 L 161.0 130.0 L 177.0 128.0 L 193.0 126.0 L 206.0 124.0 L 218.0 123.0 L 229.0 122.0 L 233.0 121.0 " stroke="black" fill="none" stroke-width="5.0" stroke-linecap="round" stroke-linejoin="round" />
<path d="M 68.0 202.0 L 68.0 202.0 L 68.0 201.0 L 68.0 200.0 L 68.0 199.0 L 69.0 198.0 L 71.0 197.0 L 76.0 195.0 L 85.0 193.0 L 97.0 191.0 L 109.0 189.0 L 125.0 186.0 L 143.0 182.0 L 158.0 180.0 L 174.0 177.0 L 188.0 176.0 L 199.0 175.0 L 209.0 175.0 L 219.0 175.0 L 229.0 175.0 L 234.0 175.0 " stroke="black" fill="none" stroke-width="5.0" stroke-linecap="round" stroke-linejoin="round" />
<path d="M 146.0 91.0 L 146.0 90.0 L 146.0 90.0 L 146.0 89.0 L 146.0 88.0 L 147.0 88.0 L 147.0 87.0 L 147.0 87.0 L 147.0 87.0 L 147.0 87.0 L 147.0 87.0 L 147.0 87.0 L 146.0 87.0 L 146.0 87.0 L 146.0 87.0 L 146.0 88.0 L 146.0 89.0 L 146.0 91.0 L 146.0 93.0 L 146.0 95.0 L 146.0 98.0 L 146.0 101.0 L 146.0 104.0 L 146.0 108.0 L 145.0 112.0 L 145.0 115.0 L 145.0 119.0 L 145.0 122.0 L 145.0 125.0 L 145.0 128.0 L 144.0 132.0 L 144.0 135.0 L 144.0 138.0 L 144.0 142.0 L 143.0 146.0 L 143.0 150.0 L 142.0 154.0 L 142.0 157.0 L 141.0 160.0 L 141.0 163.0 L 141.0 165.0 L 141.0 167.0 L 141.0 169.0 L 140.0 171.0 L 140.0 172.0 L 140.0 175.0 L 140.0 177.0 L 140.0 180.0 L 139.0 183.0 L 139.0 185.0 L 139.0 188.0 L 139.0 191.0 L 139.0 193.0 L 138.0 195.0 L 138.0 197.0 L 138.0 199.0 L 137.0 200.0 L 137.0 202.0 L 137.0 204.0 L 137.0 206.0 L 137.0 208.0 L 137.0 209.0 L 137.0 211.0 L 137.0 213.0 L 137.0 214.0 L 137.0 216.0 L 137.0 217.0 L 137.0 218.0 L 137.0 220.0 L 137.0 222.0 L 137.0 223.0 L 137.0 225.0 L 137.0 227.0 L 137.0 228.0 L 137.0 230.0 L 137.0 231.0 L 137.0 232.0 L 138.0 233.0 L 138.0 235.0 L 138.0 236.0 L 138.0 236.0 L 139.0 237.0 L 139.0 238.0 L 139.0 238.0 L 140.0 239.0 L 140.0 239.0 L 140.0 240.0 L 141.0 240.0 L 141.0 240.0 L 142.0 241.0 L 142.0 241.0 L 143.0 241.0 L 143.0 241.0 L 144.0 241.0 L 145.0 241.0 L 145.0 241.0 L 146.0 242.0 L 147.0 242.0 L 148.0 242.0 L 148.0 242.0 L 149.0 242.0 L 150.0 242.0 L 151.0 242.0 L 151.0 242.0 L 152.0 242.0 L 153.0 242.0 L 154.0 242.0 L 155.0 242.0 L 156.0 242.0 L 157.0 242.0 L 158.0 242.0 L 159.0 242.0 L 161.0 242.0 L 163.0 242.0 L 165.0 243.0 L 167.0 243.0 L 169.0 243.0 L 171.0 243.0 L 174.0 243.0 L 177.0 243.0 L 180.0 243.0 L 183.0 243.0 L 185.0 243.0 L 189.0 243.0 L 191.0 243.0 L 194.0 243.0 L 196.0 243.0 L 199.0 243.0 L 201.0 243.0 L 204.0 243.0 L 208.0 242.0 L 211.0 242.0 L 215.0 242.0 L 218.0 241.0 L 221.0 241.0 L 224.0 241.0 L 226.0 241.0 L 228.0 241.0 L 230.0 241.0 L 231.0 241.0 L 232.0 241.0 L 233.0 241.0 L 233.0 241.0 L 234.0 241.0 L 234.0 241.0 L 234.0 240.0 L 234.0 239.0 L 234.0 238.0 L 234.0 236.0 L 233.0 235.0 L 233.0 233.0 L 232.0 230.0 L 232.0 227.0 L 232.0 225.0 " stroke="black" fill="none" stroke-width="5.0" stroke-linecap="round" stroke-linejoin="round" />
</svg>