<svg xmlns="http://www.w3.org/2000/svg" width="300" height="300" viewBox="0 0 300 300">
<path d="M 91.0 90.0 L 91.0 90.0 L 91.0 90.0 L 90.0 90.0 L 90.0 90.0 L 90.0 89.0 L 90.0 89.0 L 90.0 89.0 L 90.0 89.0 L 90.0 89.0 L 90.0 89.0 L 90.0 89.0 L 90.0 90.0 L 90.0 90.0 L 90.0 90.0 L 90.0 90.0 L 90.0 91.0 L 90.0 91.0 L 90.0 91.0 L 90.0 91.0 L 91.0 91.0 L 91.0 91.0 L 91.0 91.0 L 92.0 91.0 L 92.0 91.0 L 93.0 91.0 L 94.0 91.0 L 94.0 91.0 L 95.0 91.0 L 96.0 91.0 L 97.0 91.0 L 98.0 91.0 L 99.0 91.0 L 100.0 91.0 L 101.0 91.0 L 102.0 91.0 L 103.0 91.0 L 104.0 91.0 L 105.0 91.0 L 106.0 91.0 L 106.0 91.0 L 107.0 90.0 L 108.0 90.0 L 109.0 90.0 L 109.0 90.0 L 110.0 90.0 L 111.0 90.0 L 112.0 90.0 L 112.0 90.0 L 113.0 90.0 L 114.0 90.0 L 115.0 90.0 L 116.0 90.0 L 117.0 90.0 L 118.0 90.0 L 119.0 90.0 L 120.0 91.0 L 121.0 91.0 L 121.0 91.0 L 123.0 91.0 L 124.0 91.0 L 125.0 91.0 L 126.0 91.0 L 127.0 91.0 L 128.0 91.0 L 129.0 91.0 L 130.0 91.0 L 132.0 91.0 L 133.0 91.0 L 134.0 91.0 L 135.0 91.0 L 137.0 90.0 L 138.0 90.0 L 139.0 90.0 L 140.0 90.0 L 141.0 90.0 L 143.0 90.0 L 144.0 90.0 L 145.0 90.0 L 146.0 90.0 L 147.0 90.0 L 148.0 90.0 L 148.0 90.0 L 149.0 90.0 L 150.0 90.0 L 151.0 90.0 L 152.0 90.0 L 152.0 90.0 L 153.0 90.0 L 154.0 90.0 L 155.0 90.0 L 155.0 90.0 L 156.0 90.0 L 157.0 90.0 L 158.0 90.0 L 158.0 90.0 L 159.0 90.0 L 160.0 90.0 L 161.0 91.0 L 162.0 91.0 L 164.0 91.0 L 165.0 91.0 L 166.0 91.0 L 167.0 91.0 L 169.0 91.0 L 170.0 91.0 L 171.0 91.0 L 172.0 91.0 L 174.0 91.0 L 175.0 91.0 L 176.0 91.0 L 178.0 91.0 L 179.0 91.0 L 180.0 91.0 L 181.0 91.0 L 182.0 91.0 L 184.0 91.0 L 185.0 91.0 L 186.0 91.0 L 187.0 91.0 L 188.0 91.0 L 188.0 91.0 L 189.0 91.0 L 190.0 91.0 L 191.0 91.0 L 192.0 91.0 L 192.0 91.0 L 193.0 91.0 L 194.0 92.0 L 194.0 92.0 L 195.0 92.0 L 195.0 92.0 L 196.0 92.0 L 196.0 92.0 L 197.0 92.0 L 197.0 92.0 L 198.0 92.0 L 198.0 92.0 L 199.0 93.0 L 200.0 93.0 L 200.0 93.0 L 201.0 93.0 L 202.0 93.0 L 203.0 93.0 L 204.0 93.0 L 204.0 93.0 L 205.0 93.0 L 206.0 93.0 L 207.0 93.0 L 208.0 93.0 L 209.0 93.0 L 209.0 93.0 L 210.0 93.0 L 211.0 93.0 L 212.0 93.0 L 212.0 93.0 L 213.0 93.0 L 213.0 94.0 L 214.0 94.0 L 214.0 94.0 L 214.0 94.0 L 215.0 95.0 L 215.0 95.0 L 215.0 96.0 L 216.0 96.0 L 216.0 98.0 L 216.0 99.0 L 216.0 100.0 L 216.0 102.0 L 216.0 104.0 L 216.0 106.0 L 216.0 109.0 L 216.0 112.0 L 216.0 115.0 L 216.0 119.0 L 216.0 122.0 L 215.0 126.0 L 215.0 130.0 L 215.0 133.0 L 215.0 137.0 L 214.0 141.0 L 214.0 145.0 L 214.0 149.0 L 214.0 152.0 L 213.0 154.0 L 213.0 156.0 L 213.0 157.0 L 213.0 158.0 L 213.0 159.0 " stroke="black" fill="none" stroke-width="5.0" stroke-linecap="round" stroke-linejoin="round" />
<path d="M 61.0 121.0 L 61.0 121.0 L 61.0 121.0 L 61.0 121.0 L 61.0 121.0 L 61.0 122.0 L 61.0 122.0 L 61.0 122.0 L 61.0 122.0 L 61.0 122.0 L 61.0 122.0 L 61.0 123.0 L 61.0 123.0 L 62.0 123.0 L 62.0 123.0 L 63.0 123.0 L 63.0 123.0 L 64.0 123.0 L 65.0 123.0 L 66.0 123.0 L 67.0 123.0 L 68.0 123.0 L 70.0 123.0 L 71.0 123.0 L 73.0 123.0 L 74.0 123.0 L 76.0 123.0 L 78.0 123.0 L 80.0 123.0 L 81.0 123.0 L 83.0 123.0 L 85.0 123.0 L 87.0 123.0 L 88.0 122.0 L 90.0 122.0 L 91.0 122.0 L 93.0 122.0 L 94.0 122.0 L 96.0 121.0 L 98.0 121.0 L 99.0 121.0 L 101.0 121.0 L 102.0 121.0 L 103.0 121.0 L 104.0 121.0 L 105.0 121.0 L 106.0 121.0 L 107.0 121.0 L 108.0 121.0 L 109.0 121.0 L 110.0 121.0 L 111.0 121.0 L 112.0 121.0 L 113.0 121.0 L 114.0 121.0 L 115.0 121.0 L 117.0 121.0 L 118.0 121.0 L 120.0 121.0 L 121.0 121.0 L 123.0 121.0 L 125.0 121.0 L 127.0 121.0 L 129.0 121.0 L 130.0 121.0 L 133.0 121.0 L 135.0 121.0 L 136.0 121.0 L 138.0 121.0 L 140.0 121.0 L 142.0 121.0 L 144.0 121.0 L 145.0 121.0 L 147.0 121.0 L 148.0 121.0 L 149.0 121.0 L 150.0 120.0 L 151.0 120.0 L 152.0 120.0 L 153.0 120.0 L 154.0 120.0 L 155.0 120.0 L 157.0 120.0 L 158.0 120.0 L 160.0 120.0 L 162.0 120.0 L 164.0 120.0 L 167.0 120.0 L 169.0 120.0 L 172.0 120.0 L 175.0 120.0 L 177.0 120.0 L 180.0 120.0 L 183.0 120.0 L 185.0 120.0 L 188.0 121.0 L 191.0 121.0 L 193.0 121.0 L 196.0 121.0 L 198.0 121.0 L 201.0 121.0 L 204.0 120.0 L 208.0 120.0 L 213.0 120.0 L 218.0 119.0 L 223.0 119.0 L 228.0 119.0 L 232.0 119.0 L 235.0 119.0 L 238.0 119.0 L 240.0 119.0 L 241.0 119.0 L 243.0 119.0 L 244.0 120.0 " stroke="black" fill="none" stroke-width="5.0" stroke-linecap="round" stroke-linejoin="round" />
<path d="M 86.0 157.0 L 86.0 157.0 L 85.0 157.0 L 85.0 157.0 L 85.0 157.0 L 85.0 157.0 L 85.0 157.0 L 85.0 157.0 L 85.0 157.0 L 86.0 157.0 L 87.0 156.0 L 89.0 156.0 L 90.0 156.0 L 92.0 156.0 L 94.0 156.0 L 95.0 156.0 L 97.0 156.0 L 100.0 156.0 L 102.0 155.0 L 104.0 155.0 L 106.0 155.0 L 108.0 155.0 L 110.0 155.0 L 113.0 154.0 L 115.0 154.0 L 117.0 154.0 L 120.0 153.0 L 122.0 153.0 L 124.0 153.0 L 126.0 153.0 L 128.0 152.0 L 131.0 152.0 L 133.0 152.0 L 135.0 152.0 L 137.0 152.0 L 139.0 152.0 L 141.0 152.0 L 142.0 152.0 L 144.0 152.0 L 145.0 152.0 L 146.0 152.0 L 148.0 152.0 L 149.0 152.0 L 150.0 152.0 L 151.0 152.0 L 152.0 153.0 L 152.0 153.0 L 153.0 153.0 L 154.0 153.0 L 155.0 153.0 L 156.0 153.0 L 158.0 153.0 L 159.0 153.0 L 161.0 153.0 L 163.0 153.0 L 165.0 153.0 L 167.0 153.0 L 170.0 153.0 L 173.0 153.0 L 176.0 153.0 L 179.0 153.0 L 182.0 153.0 L 185.0 153.0 L 188.0 153.0 L 191.0 153.0 L 193.0 153.0 L 195.0 153.0 L 198.0 153.0 L 200.0 153.0 L 202.0 153.0 L 204.0 153.0 L 207.0 153.0 L 209.0 153.0 L 211.0 153.0 L 213.0 153.0 L 215.0 153.0 L 217.0 153.0 L 218.0 154.0 " stroke="black" fill="none" stroke-width="5.0" stroke-linecap="round" stroke-linejoin="round" />
<path d="M 81.0 185.0 L 81.0 185.0 L 81.0 185.0 L 81.0 185.0 L 81.0 185.0 L 81.0 185.0 L 81.0 185.0 L 82.0 184.0 L 83.0 184.0 L 84.0 184.0 L 85.0 184.0 L 87.0 183.0 L 89.0 183.0 L 92.0 183.0 L 94.0 183.0 L 97.0 182.0 L 99.0 182.0 L 102.0 182.0 L 104.0 181.0 L 107.0 181.0 L 109.0 180.0 L 111.0 180.0 L 113.0 180.0 L 115.0 179.0 L 117.0 179.0 L 120.0 179.0 L 122.0 179.0 L 124.0 179.0 L 127.0 178.0 L 130.0 178.0 L 132.0 178.0 L 135.0 178.0 L 139.0 178.0 L 141.0 177.0 L 145.0 177.0 L 147.0 177.0 L 150.0 177.0 L 152.0 177.0 L 154.0 177.0 L 155.0 177.0 L 157.0 177.0 L 159.0 177.0 L 160.0 177.0 L 162.0 177.0 L 164.0 177.0 L 166.0 177.0 L 167.0 176.0 L 169.0 176.0 L 171.0 176.0 L 173.0 176.0 L 174.0 176.0 L 176.0 176.0 L 178.0 176.0 L 180.0 176.0 L 182.0 176.0 L 184.0 176.0 L 186.0 176.0 L 188.0 176.0 L 190.0 176.0 L 192.0 176.0 L 193.0 177.0 L 195.0 177.0 L 197.0 177.0 L 198.0 178.0 L 200.0 178.0 L 202.0 178.0 L 203.0 179.0 L 205.0 179.0 L 207.0 179.0 L 209.0 179.0 L 211.0 179.0 L 212.0 180.0 " stroke="black" fill="none" stroke-width="5.0" stroke-linecap="round" stroke-linejoin="round" />
<path d="M 64.0 221.0 L 64.0 221.0 L 64.0 221.0 L 65.0 221.0 L 65.0 221.0 L 65.0 221.0 L 66.0 221.0 L 67.0 220.0 L 68.0 220.0 L 69.0 220.0 L 71.0 220.0 L 73.0 219.0 L 75.0 219.0 L 77.0 219.0 L 80.0 219.0 L 82.0 219.0 L 85.0 219.0 L 89.0 219.0 L 92.0 219.0 L 95.0 218.0 L 98.0 218.0 L 101.0 218.0 L 104.0 218.0 L 106.0 218.0 L 108.0 217.0 L 110.0 217.0 L 111.0 216.0 L 112.0 216.0 L 114.0 216.0 L 115.0 216.0 L 117.0 215.0 L 119.0 215.0 L 121.0 214.0 L 124.0 214.0 L 127.0 213.0 L 130.0 213.0 L 134.0 213.0 L 137.0 213.0 L 140.0 212.0 L 142.0 212.0 L 145.0 212.0 L 147.0 212.0 L 148.0 212.0 L 150.0 212.0 L 151.0 212.0 L 152.0 212.0 L 154.0 212.0 L 156.0 212.0 L 157.0 212.0 L 159.0 212.0 L 161.0 212.0 L 163.0 212.0 L 166.0 212.0 L 168.0 212.0 L 170.0 212.0 L 173.0 213.0 L 176.0 213.0 L 179.0 213.0 L 183.0 213.0 L 187.0 213.0 L 191.0 213.0 L 195.0 213.0 L 199.0 213.0 L 203.0 213.0 L 207.0 213.0 L 212.0 213.0 L 217.0 213.0 L 222.0 213.0 L 227.0 212.0 L 230.0 211.0 L 234.0 210.0 L 236.0 210.0 L 237.0 209.0 L 238.0 209.0 " stroke="black" fill="none" stroke-width="5.0" stroke-linecap="round" stroke-linejoin="round" />
<path d="M 148.0 71.0 L 148.0 71.0 L 148.0 71.0 L 148.0 71.0 L 148.0 71.0 L 147.0 71.0 L 147.0 71.0 L 147.0 72.0 L 147.0 73.0 L 147.0 75.0 L 147.0 78.0 L 147.0 82.0 L 147.0 88.0 L 147.0 96.0 L 147.0 105.0 L 147.0 114.0 L 147.0 123.0 L 147.0 131.0 L 147.0 140.0 L 147.0 148.0 L 148.0 156.0 L 148.0 164.0 L 148.0 171.0 L 148.0 179.0 L 149.0 188.0 L 149.0 195.0 L 149.0 203.0 L 150.0 209.0 L 150.0 215.0 L 150.0 220.0 L 150.0 226.0 L 150.0 231.0 L 150.0 235.0 L 150.0 239.0 L 150.0 242.0 L 150.0 244.0 L 149.0 246.0 L 149.0 247.0 L 149.0 248.0 L 149.0 248.0 L 149.0 248.0 L 149.0 248.0 " stroke="black" fill="none" stroke-width="5.0" stroke-linecap="round" stroke-linejoin="round" />
</svg>