<svg xmlns="http://www.w3.org/2000/svg" width="300" height="300" viewBox="0 0 300 300">
<path d="M 92.0 85.0 L 92.0 85.0 L 91.0 84.0 L 91.0 83.0 L 91.0 83.0 L 91.0 83.0 L 90.0 82.0 L 90.0 82.0 L 90.0 82.0 L 90.0 83.0 L 90.0 86.0 L 90.0 89.0 L 90.0 95.0 L 90.0 102.0 L 90.0 109.0 L 90.0 119.0 L 90.0 129.0 L 90.0 139.0 L 90.0 148.0 L 90.0 154.0 L 89.0 158.0 L 89.0 160.0 L 89.0 160.0 L 89.0 160.0 " stroke="black" fill="none" stroke-width="5.0" stroke-linecap="round" stroke-linejoin="round" />
<path d="M 94.0 80.0 L 94.0 80.0 L 94.0 80.0 L 93.0 80.0 L 93.0 80.0 L 92.0 80.0 L 92.0 80.0 L 91.0 80.0 L 91.0 80.0 L 91.0 80.0 L 91.0 80.0 L 91.0 80.0 L 91.0 80.0 L 91.0 80.0 L 92.0 80.0 L 93.0 80.0 L 93.0 80.0 L 94.0 80.0 L 95.0 80.0 L 96.0 80.0 L 97.0 80.0 L 98.0 80.0 L 99.0 80.0 L 100.0 80.0 L 102.0 80.0 L 103.0 80.0 L 104.0 80.0 L 106.0 80.0 L 107.0 80.0 L 108.0 80.0 L 110.0 80.0 L 111.0 80.0 L 112.0 80.0 L 114.0 80.0 L 115.0 80.0 L 117.0 80.0 L 118.0 80.0 L 120.0 80.0 L 121.0 80.0 L 123.0 80.0 L 125.0 80.0 L 127.0 80.0 L 129.0 80.0 L 131.0 80.0 L 133.0 80.0 L 136.0 80.0 L 138.0 80.0 L 140.0 80.0 L 142.0 80.0 L 143.0 80.0 L 144.0 80.0 L 146.0 80.0 L 147.0 80.0 L 148.0 80.0 L 149.0 80.0 L 150.0 80.0 L 151.0 80.0 L 152.0 80.0 L 153.0 80.0 L 153.0 80.0 L 154.0 80.0 L 155.0 80.0 L 156.0 80.0 L 157.0 80.0 L 157.0 80.0 L 158.0 80.0 L 159.0 80.0 L 160.0 80.0 L 161.0 80.0 L 163.0 80.0 L 164.0 79.0 L 165.0 79.0 L 166.0 79.0 L 167.0 79.0 L 168.0 79.0 L 169.0 79.0 L 171.0 79.0 L 172.0 79.0 L 173.0 79.0 L 174.0 79.0 L 175.0 79.0 L 177.0 79.0 L 178.0 79.0 L 179.0 79.0 L 180.0 79.0 L 181.0 79.0 L 182.0 79.0 L 184.0 79.0 L 185.0 79.0 L 186.0 79.0 L 187.0 80.0 L 188.0 80.0 L 189.0 80.0 L 190.0 80.0 L 191.0 80.0 L 192.0 80.0 L 193.0 80.0 L 194.0 80.0 L 194.0 81.0 L 195.0 81.0 L 196.0 81.0 L 196.0 81.0 L 197.0 81.0 L 198.0 82.0 L 198.0 82.0 L 199.0 82.0 L 199.0 82.0 L 200.0 82.0 L 201.0 82.0 L 201.0 82.0 L 202.0 83.0 L 203.0 83.0 L 204.0 83.0 L 204.0 83.0 L 205.0 83.0 L 206.0 83.0 L 206.0 83.0 L 207.0 83.0 L 208.0 83.0 L 209.0 83.0 L 210.0 83.0 L 210.0 83.0 L 211.0 83.0 L 212.0 83.0 L 213.0 83.0 L 213.0 83.0 L 214.0 83.0 L 215.0 83.0 L 215.0 83.0 L 216.0 84.0 L 217.0 84.0 L 217.0 84.0 L 218.0 84.0 L 218.0 84.0 L 219.0 84.0 L 219.0 84.0 L 219.0 84.0 L 219.0 84.0 L 220.0 84.0 L 220.0 84.0 L 220.0 85.0 L 220.0 85.0 L 220.0 86.0 L 220.0 87.0 L 220.0 88.0 L 220.0 89.0 L 220.0 91.0 L 220.0 94.0 L 220.0 96.0 L 220.0 99.0 L 220.0 103.0 L 220.0 107.0 L 220.0 111.0 L 220.0 116.0 L 220.0 121.0 L 220.0 126.0 L 219.0 132.0 L 219.0 137.0 L 219.0 142.0 L 219.0 147.0 L 219.0 150.0 L 219.0 153.0 L 219.0 157.0 L 219.0 159.0 L 219.0 162.0 L 219.0 164.0 " stroke="black" fill="none" stroke-width="5.0" stroke-linecap="round" stroke-linejoin="round" />
<path d="M 99.0 121.0 L 99.0 121.0 L 99.0 121.0 L 99.0 121.0 L 99.0 121.0 L 99.0 120.0 L 99.0 120.0 L 100.0 120.0 L 100.0 119.0 L 101.0 119.0 L 101.0 119.0 L 103.0 119.0 L 104.0 119.0 L 106.0 119.0 L 108.0 119.0 L 112.0 119.0 L 118.0 119.0 L 126.0 119.0 L 135.0 118.0 L 145.0 118.0 L 152.0 118.0 L 159.0 117.0 L 167.0 117.0 L 174.0 117.0 L 182.0 116.0 L 190.0 116.0 L 196.0 116.0 L 200.0 116.0 L 204.0 116.0 L 208.0 116.0 L 211.0 116.0 L 213.0 117.0 L 214.0 119.0 L 215.0 120.0 L 215.0 122.0 " stroke="black" fill="none" stroke-width="5.0" stroke-linecap="round" stroke-linejoin="round" />
<path d="M 94.0 160.0 L 93.0 160.0 L 92.0 160.0 L 91.0 160.0 L 90.0 160.0 L 90.0 160.0 L 90.0 160.0 L 90.0 160.0 L 92.0 160.0 L 94.0 160.0 L 98.0 160.0 L 102.0 160.0 L 107.0 159.0 L 114.0 159.0 L 123.0 158.0 L 133.0 157.0 L 145.0 157.0 L 155.0 156.0 L 163.0 155.0 L 172.0 155.0 L 181.0 155.0 L 187.0 155.0 L 192.0 156.0 L 195.0 158.0 L 198.0 160.0 L 200.0 161.0 " stroke="black" fill="none" stroke-width="5.0" stroke-linecap="round" stroke-linejoin="round" />
<path d="M 80.0 200.0 L 80.0 200.0 L 80.0 200.0 L 80.0 200.0 L 79.0 200.0 L 79.0 200.0 L 80.0 200.0 L 82.0 200.0 L 85.0 200.0 L 90.0 200.0 L 96.0 200.0 L 102.0 200.0 L 109.0 200.0 L 119.0 200.0 L 130.0 200.0 L 143.0 200.0 L 155.0 200.0 L 167.0 199.0 L 180.0 198.0 L 190.0 196.0 L 197.0 196.0 L 201.0 196.0 L 204.0 196.0 L 207.0 196.0 L 208.0 196.0 L 209.0 196.0 " stroke="black" fill="none" stroke-width="5.0" stroke-linecap="round" stroke-linejoin="round" />
<path d="M 153.0 90.0 L 153.0 90.0 L 153.0 90.0 L 153.0 90.0 L 153.0 90.0 L 153.0 90.0 L 153.0 91.0 L 153.0 91.0 L 153.0 92.0 L 153.0 93.0 L 153.0 94.0 L 153.0 95.0 L 152.0 96.0 L 152.0 98.0 L 152.0 100.0 L 152.0 102.0 L 152.0 105.0 L 152.0 108.0 L 152.0 112.0 L 152.0 116.0 L 152.0 121.0 L 152.0 126.0 L 152.0 131.0 L 152.0 136.0 L 152.0 141.0 L 152.0 147.0 L 152.0 153.0 L 152.0 158.0 L 152.0 164.0 L 152.0 169.0 L 152.0 175.0 L 152.0 180.0 L 152.0 186.0 L 152.0 190.0 L 152.0 195.0 L 152.0 199.0 L 152.0 202.0 L 152.0 206.0 L 152.0 208.0 L 152.0 211.0 L 152.0 214.0 L 152.0 217.0 L 152.0 220.0 L 152.0 223.0 L 152.0 226.0 L 152.0 229.0 L 152.0 232.0 L 151.0 234.0 L 151.0 235.0 L 151.0 237.0 L 151.0 237.0 L 151.0 238.0 L 151.0 239.0 L 151.0 239.0 L 151.0 240.0 L 151.0 241.0 L 151.0 241.0 L 151.0 241.0 L 151.0 242.0 L 151.0 242.0 L 151.0 243.0 " stroke="black" fill="none" stroke-width="5.0" stroke-linecap="round" stroke-linejoin="round" />
<path d="M 58.0 246.0 L 58.0 246.0 L 58.0 246.0 L 58.0 246.0 L 58.0 246.0 L 58.0 246.0 L 58.0 246.0 L 58.0 246.0 L 58.0 246.0 L 59.0 246.0 L 60.0 246.0 L 62.0 246.0 L 64.0 246.0 L 66.0 246.0 L 70.0 246.0 L 74.0 246.0 L 79.0 246.0 L 86.0 246.0 L 94.0 246.0 L 101.0 246.0 L 107.0 246.0 L 113.0 245.0 L 118.0 245.0 L 123.0 245.0 L 130.0 245.0 L 136.0 245.0 L 143.0 245.0 L 149.0 245.0 L 154.0 245.0 L 158.0 245.0 L 164.0 246.0 L 169.0 246.0 L 175.0 247.0 L 182.0 247.0 L 187.0 247.0 L 192.0 247.0 L 196.0 247.0 L 200.0 248.0 L 204.0 248.0 L 209.0 248.0 L 213.0 248.0 L 217.0 248.0 L 222.0 248.0 L 226.0 248.0 L 230.0 248.0 L 233.0 248.0 L 235.0 248.0 L 237.0 248.0 L 238.0 249.0 L 240.0 249.0 L 241.0 250.0 L 243.0 250.0 L 244.0 250.0 " stroke="black" fill="none" stroke-width="5.0" stroke-linecap="round" stroke-linejoin="round" />
</svg>