<svg xmlns="http://www.w3.org/2000/svg" width="300" height="300" viewBox="0 0 300 300">
<path d="M 82.0 152.0 L 82.0 152.0 L 82.0 152.0 L 81.0 152.0 L 80.0 152.0 L 80.0 151.0 L 80.0 151.0 L 79.0 151.0 L 79.0 151.0 L 78.0 151.0 L 78.0 152.0 L 78.0 154.0 L 77.0 157.0 L 76.0 162.0 L 75.0 167.0 L 73.0 174.0 L 71.0 183.0 L 69.0 191.0 L 66.0 199.0 L 65.0 202.0 " stroke="black" fill="none" stroke-width="5.0" stroke-linecap="round" stroke-linejoin="round" />
<path d="M 114.0 128.0 L 114.0 128.0 L 114.0 128.0 L 114.0 127.0 L 114.0 127.0 L 114.0 127.0 L 114.0 127.0 L 114.0 127.0 L 114.0 127.0 L 114.0 127.0 L 114.0 128.0 L 114.0 129.0 L 114.0 131.0 L 114.0 133.0 L 114.0 135.0 L 114.0 138.0 L 114.0 141.0 L 114.0 144.0 L 114.0 148.0 L 114.0 151.0 L 114.0 154.0 L 114.0 158.0 L 114.0 160.0 L 114.0 163.0 L 114.0 166.0 L 113.0 169.0 L 113.0 171.0 L 113.0 174.0 L 112.0 177.0 L 112.0 179.0 L 112.0 182.0 L 112.0 184.0 L 112.0 187.0 L 112.0 190.0 L 112.0 192.0 L 112.0 194.0 L 112.0 197.0 L 112.0 199.0 L 112.0 201.0 L 113.0 203.0 L 113.0 205.0 L 113.0 207.0 L 114.0 209.0 L 114.0 210.0 L 114.0 212.0 L 114.0 214.0 L 114.0 215.0 L 114.0 217.0 L 114.0 218.0 L 114.0 220.0 L 114.0 221.0 L 115.0 223.0 L 115.0 224.0 L 115.0 226.0 L 116.0 228.0 L 116.0 229.0 L 116.0 231.0 L 116.0 232.0 L 116.0 233.0 L 116.0 234.0 L 116.0 235.0 L 116.0 236.0 L 116.0 237.0 L 116.0 238.0 L 116.0 238.0 L 116.0 239.0 L 116.0 239.0 L 116.0 239.0 L 117.0 240.0 L 117.0 240.0 L 117.0 240.0 L 118.0 241.0 L 118.0 241.0 L 119.0 241.0 L 120.0 241.0 L 120.0 242.0 L 121.0 242.0 L 122.0 242.0 L 123.0 242.0 L 124.0 243.0 L 126.0 243.0 L 127.0 243.0 L 128.0 243.0 L 130.0 243.0 L 131.0 243.0 L 132.0 243.0 L 134.0 243.0 L 135.0 244.0 L 137.0 244.0 L 138.0 244.0 L 140.0 244.0 L 142.0 244.0 L 143.0 244.0 L 145.0 244.0 L 147.0 244.0 L 148.0 244.0 L 150.0 244.0 L 152.0 244.0 L 153.0 244.0 L 155.0 243.0 L 156.0 243.0 L 158.0 243.0 L 160.0 243.0 L 162.0 243.0 L 165.0 243.0 L 168.0 242.0 L 170.0 242.0 L 173.0 242.0 L 177.0 242.0 L 179.0 242.0 L 182.0 242.0 L 185.0 242.0 L 187.0 242.0 L 189.0 242.0 L 191.0 242.0 L 192.0 242.0 L 193.0 242.0 L 194.0 241.0 L 194.0 241.0 L 195.0 241.0 L 196.0 240.0 L 196.0 240.0 L 196.0 240.0 L 197.0 239.0 L 197.0 239.0 L 197.0 239.0 L 197.0 238.0 L 197.0 237.0 L 197.0 235.0 L 197.0 232.0 L 197.0 229.0 L 197.0 223.0 L 196.0 218.0 L 195.0 212.0 L 195.0 208.0 " stroke="black" fill="none" stroke-width="5.0" stroke-linecap="round" stroke-linejoin="round" />
<path d="M 128.0 79.0 L 128.0 79.0 L 128.0 79.0 L 128.0 79.0 L 128.0 79.0 L 128.0 79.0 L 128.0 79.0 L 129.0 79.0 L 130.0 80.0 L 133.0 82.0 L 137.0 85.0 L 141.0 89.0 L 145.0 93.0 L 150.0 99.0 L 153.0 103.0 L 157.0 107.0 L 160.0 111.0 L 163.0 113.0 L 166.0 116.0 " stroke="black" fill="none" stroke-width="5.0" stroke-linecap="round" stroke-linejoin="round" />
<path d="M 204.0 141.0 L 204.0 141.0 L 204.0 141.0 L 204.0 141.0 L 204.0 141.0 L 204.0 141.0 L 204.0 141.0 L 205.0 143.0 L 207.0 146.0 L 210.0 149.0 L 214.0 154.0 L 218.0 160.0 L 222.0 166.0 L 226.0 174.0 L 229.0 181.0 L 232.0 188.0 L 233.0 193.0 L 234.0 197.0 L 235.0 199.0 L 236.0 201.0 " stroke="black" fill="none" stroke-width="5.0" stroke-linecap="round" stroke-linejoin="round" />
</svg>