<svg xmlns="http://www.w3.org/2000/svg" width="300" height="300" viewBox="0 0 300 300">
<path d="M 112.0 67.0 L 112.0 67.0 L 112.0 67.0 L 112.0 66.0 L 111.0 66.0 L 111.0 66.0 L 111.0 66.0 L 111.0 67.0 L 110.0 68.0 L 110.0 70.0 L 110.0 73.0 L 110.0 76.0 L 109.0 80.0 L 108.0 85.0 L 106.0 92.0 L 103.0 100.0 L 99.0 109.0 L 94.0 117.0 L 87.0 124.0 L 80.0 132.0 L 74.0 138.0 L 68.0 145.0 L 64.0 151.0 L 62.0 155.0 L 60.0 158.0 L 59.0 159.0 " stroke="black" fill="none" stroke-width="5.0" stroke-linecap="round" stroke-linejoin="round" />
<path d="M 95.0 129.0 L 95.0 129.0 L 94.0 129.0 L 94.0 128.0 L 94.0 128.0 L 93.0 128.0 L 93.0 128.0 L 93.0 128.0 L 93.0 128.0 L 93.0 128.0 L 93.0 130.0 L 93.0 132.0 L 94.0 136.0 L 94.0 141.0 L 95.0 148.0 L 95.0 158.0 L 95.0 170.0 L 95.0 187.0 L 95.0 204.0 L 95.0 218.0 L 95.0 230.0 L 95.0 240.0 " stroke="black" fill="none" stroke-width="5.0" stroke-linecap="round" stroke-linejoin="round" />
<path d="M 155.0 77.0 L 155.0 77.0 L 154.0 77.0 L 153.0 76.0 L 153.0 76.0 L 153.0 76.0 L 153.0 76.0 L 153.0 77.0 L 155.0 78.0 L 157.0 80.0 L 160.0 82.0 L 164.0 84.0 L 167.0 86.0 L 171.0 89.0 L 175.0 91.0 L 179.0 94.0 L 183.0 97.0 " stroke="black" fill="none" stroke-width="5.0" stroke-linecap="round" stroke-linejoin="round" />
<path d="M 110.0 117.0 L 110.0 117.0 L 109.0 117.0 L 108.0 116.0 L 108.0 116.0 L 108.0 116.0 L 108.0 115.0 L 108.0 115.0 L 108.0 115.0 L 110.0 115.0 L 112.0 115.0 L 116.0 115.0 L 122.0 115.0 L 130.0 115.0 L 140.0 115.0 L 151.0 115.0 L 163.0 114.0 L 176.0 114.0 L 187.0 114.0 L 196.0 114.0 L 203.0 114.0 L 208.0 115.0 L 214.0 116.0 L 219.0 118.0 L 223.0 120.0 L 225.0 122.0 " stroke="black" fill="none" stroke-width="5.0" stroke-linecap="round" stroke-linejoin="round" />
<path d="M 112.0 158.0 L 111.0 158.0 L 110.0 157.0 L 109.0 157.0 L 108.0 157.0 L 107.0 156.0 L 107.0 156.0 L 106.0 156.0 L 106.0 155.0 L 106.0 155.0 L 108.0 155.0 L 110.0 155.0 L 114.0 155.0 L 120.0 155.0 L 128.0 155.0 L 137.0 155.0 L 147.0 155.0 L 157.0 156.0 L 168.0 156.0 L 181.0 155.0 L 191.0 155.0 L 198.0 154.0 L 203.0 153.0 L 207.0 153.0 L 209.0 153.0 L 211.0 153.0 " stroke="black" fill="none" stroke-width="5.0" stroke-linecap="round" stroke-linejoin="round" />
<path d="M 115.0 186.0 L 112.0 185.0 L 109.0 185.0 L 107.0 185.0 L 105.0 185.0 L 105.0 186.0 L 105.0 186.0 L 105.0 186.0 L 106.0 187.0 L 108.0 187.0 L 111.0 188.0 L 115.0 188.0 L 122.0 188.0 L 131.0 188.0 L 141.0 188.0 L 152.0 188.0 L 166.0 187.0 L 181.0 185.0 L 193.0 184.0 L 202.0 183.0 L 208.0 182.0 L 211.0 181.0 L 212.0 180.0 L 213.0 180.0 L 213.0 180.0 L 213.0 180.0 " stroke="black" fill="none" stroke-width="5.0" stroke-linecap="round" stroke-linejoin="round" />
<path d="M 172.0 125.0 L 172.0 123.0 L 170.0 122.0 L 169.0 121.0 L 169.0 120.0 L 169.0 120.0 L 169.0 120.0 L 169.0 120.0 L 169.0 121.0 L 170.0 123.0 L 170.0 127.0 L 171.0 133.0 L 172.0 142.0 L 172.0 151.0 L 172.0 163.0 L 172.0 176.0 L 172.0 190.0 L 172.0 202.0 L 172.0 213.0 L 172.0 219.0 L 172.0 225.0 L 172.0 230.0 L 173.0 232.0 L 173.0 233.0 L 174.0 234.0 L 175.0 234.0 " stroke="black" fill="none" stroke-width="5.0" stroke-linecap="round" stroke-linejoin="round" />
<path d="M 103.0 233.0 L 103.0 233.0 L 102.0 233.0 L 100.0 233.0 L 99.0 233.0 L 99.0 233.0 L 98.0 232.0 L 98.0 232.0 L 99.0 232.0 L 100.0 231.0 L 102.0 231.0 L 105.0 231.0 L 108.0 231.0 L 112.0 231.0 L 117.0 231.0 L 123.0 231.0 L 131.0 231.0 L 140.0 231.0 L 149.0 231.0 L 158.0 231.0 L 167.0 231.0 L 178.0 230.0 L 188.0 230.0 L 196.0 230.0 L 202.0 230.0 L 209.0 230.0 L 215.0 230.0 L 221.0 230.0 L 227.0 230.0 L 230.0 231.0 L 233.0 231.0 L 235.0 232.0 L 235.0 233.0 L 235.0 233.0 L 235.0 234.0 " stroke="black" fill="none" stroke-width="5.0" stroke-linecap="round" stroke-linejoin="round" />
</svg>