<svg xmlns="http://www.w3.org/2000/svg" width="300" height="300" viewBox="0 0 300 300">
<path d="M 84.0 109.0 L 84.0 109.0 L 84.0 109.0 L 84.0 109.0 L 83.0 109.0 L 83.0 109.0 L 83.0 109.0 L 82.0 109.0 L 82.0 110.0 L 82.0 112.0 L 82.0 115.0 L 82.0 119.0 L 82.0 125.0 L 82.0 133.0 L 83.0 143.0 L 83.0 155.0 L 83.0 168.0 L 83.0 182.0 L 83.0 194.0 L 83.0 204.0 L 83.0 212.0 L 84.0 216.0 L 84.0 220.0 L 85.0 222.0 L 86.0 223.0 L 87.0 223.0 L 88.0 223.0 " stroke="black" fill="none" stroke-width="5.0" stroke-linecap="round" stroke-linejoin="round" />
<path d="M 80.0 99.0 L 80.0 99.0 L 80.0 99.0 L 80.0 99.0 L 80.0 99.0 L 80.0 99.0 L 79.0 99.0 L 79.0 99.0 L 79.0 99.0 L 79.0 99.0 L 79.0 99.0 L 79.0 99.0 L 80.0 99.0 L 81.0 99.0 L 82.0 99.0 L 83.0 99.0 L 85.0 99.0 L 87.0 99.0 L 89.0 99.0 L 91.0 99.0 L 94.0 99.0 L 96.0 99.0 L 99.0 99.0 L 101.0 99.0 L 103.0 99.0 L 105.0 99.0 L 107.0 99.0 L 108.0 99.0 L 109.0 99.0 L 110.0 99.0 L 112.0 99.0 L 113.0 99.0 L 114.0 99.0 L 115.0 99.0 L 116.0 98.0 L 118.0 98.0 L 119.0 98.0 L 120.0 98.0 L 121.0 98.0 L 122.0 98.0 L 123.0 98.0 L 125.0 97.0 L 126.0 97.0 L 127.0 97.0 L 128.0 97.0 L 130.0 97.0 L 131.0 97.0 L 132.0 97.0 L 134.0 97.0 L 135.0 97.0 L 137.0 97.0 L 138.0 97.0 L 139.0 97.0 L 141.0 97.0 L 142.0 97.0 L 143.0 97.0 L 144.0 97.0 L 146.0 97.0 L 147.0 97.0 L 148.0 97.0 L 149.0 97.0 L 150.0 97.0 L 151.0 97.0 L 152.0 97.0 L 153.0 97.0 L 153.0 97.0 L 154.0 97.0 L 155.0 97.0 L 156.0 97.0 L 157.0 97.0 L 158.0 97.0 L 160.0 97.0 L 161.0 97.0 L 163.0 97.0 L 165.0 97.0 L 167.0 97.0 L 170.0 97.0 L 172.0 97.0 L 175.0 97.0 L 178.0 97.0 L 180.0 97.0 L 183.0 97.0 L 185.0 97.0 L 187.0 97.0 L 188.0 97.0 L 190.0 97.0 L 191.0 97.0 L 192.0 97.0 L 193.0 97.0 L 194.0 97.0 L 195.0 97.0 L 196.0 97.0 L 197.0 97.0 L 198.0 97.0 L 199.0 97.0 L 200.0 97.0 L 200.0 97.0 L 201.0 97.0 L 202.0 97.0 L 203.0 97.0 L 204.0 97.0 L 205.0 97.0 L 206.0 97.0 L 207.0 97.0 L 207.0 97.0 L 208.0 97.0 L 209.0 97.0 L 209.0 97.0 L 210.0 97.0 L 210.0 98.0 L 210.0 98.0 L 211.0 99.0 L 211.0 99.0 L 212.0 100.0 L 212.0 100.0 L 212.0 101.0 L 212.0 101.0 L 212.0 101.0 L 213.0 102.0 L 213.0 102.0 L 213.0 102.0 L 213.0 102.0 L 213.0 102.0 L 214.0 103.0 L 214.0 103.0 L 214.0 103.0 L 214.0 103.0 L 214.0 103.0 L 214.0 104.0 L 214.0 104.0 L 215.0 104.0 L 215.0 105.0 L 215.0 105.0 L 215.0 105.0 L 215.0 105.0 L 215.0 106.0 L 215.0 107.0 L 215.0 107.0 L 215.0 108.0 L 215.0 110.0 L 215.0 111.0 L 215.0 113.0 L 215.0 116.0 L 215.0 119.0 L 215.0 122.0 L 215.0 126.0 L 215.0 130.0 L 215.0 134.0 L 215.0 139.0 L 215.0 144.0 L 215.0 148.0 L 215.0 152.0 L 215.0 156.0 L 215.0 160.0 L 215.0 162.0 L 216.0 166.0 L 217.0 169.0 L 218.0 172.0 L 218.0 176.0 L 218.0 180.0 L 218.0 185.0 L 218.0 189.0 L 218.0 193.0 L 218.0 196.0 L 218.0 199.0 L 218.0 202.0 L 218.0 204.0 L 218.0 206.0 L 218.0 208.0 L 218.0 210.0 L 218.0 213.0 L 218.0 216.0 L 218.0 219.0 L 218.0 222.0 L 218.0 225.0 L 218.0 228.0 L 218.0 230.0 L 218.0 232.0 L 218.0 233.0 L 218.0 234.0 L 218.0 234.0 L 218.0 234.0 L 218.0 234.0 L 218.0 234.0 L 217.0 234.0 L 217.0 233.0 " stroke="black" fill="none" stroke-width="5.0" stroke-linecap="round" stroke-linejoin="round" />
<path d="M 123.0 107.0 L 123.0 107.0 L 123.0 106.0 L 123.0 106.0 L 123.0 105.0 L 123.0 105.0 L 123.0 105.0 L 123.0 105.0 L 123.0 105.0 L 123.0 105.0 L 124.0 107.0 L 124.0 109.0 L 125.0 113.0 L 125.0 117.0 L 126.0 123.0 L 126.0 130.0 L 126.0 140.0 L 126.0 151.0 L 126.0 162.0 L 126.0 173.0 L 126.0 185.0 L 125.0 195.0 L 125.0 205.0 L 125.0 214.0 L 124.0 222.0 L 124.0 230.0 L 124.0 237.0 L 124.0 240.0 L 124.0 242.0 L 124.0 242.0 L 125.0 242.0 " stroke="black" fill="none" stroke-width="5.0" stroke-linecap="round" stroke-linejoin="round" />
<path d="M 174.0 109.0 L 174.0 109.0 L 173.0 108.0 L 173.0 107.0 L 173.0 107.0 L 173.0 107.0 L 173.0 107.0 L 173.0 107.0 L 173.0 109.0 L 173.0 111.0 L 173.0 114.0 L 174.0 119.0 L 175.0 124.0 L 176.0 130.0 L 176.0 139.0 L 176.0 149.0 L 176.0 159.0 L 176.0 168.0 L 175.0 177.0 L 174.0 187.0 L 174.0 195.0 L 173.0 203.0 L 173.0 209.0 L 172.0 215.0 L 172.0 220.0 L 171.0 226.0 L 170.0 232.0 L 169.0 236.0 L 169.0 239.0 L 169.0 241.0 L 169.0 242.0 L 169.0 243.0 L 170.0 243.0 L 170.0 243.0 L 171.0 243.0 " stroke="black" fill="none" stroke-width="5.0" stroke-linecap="round" stroke-linejoin="round" />
<path d="M 62.0 241.0 L 62.0 241.0 L 62.0 241.0 L 61.0 240.0 L 61.0 240.0 L 61.0 239.0 L 62.0 239.0 L 64.0 239.0 L 66.0 238.0 L 70.0 238.0 L 76.0 238.0 L 83.0 238.0 L 93.0 238.0 L 103.0 238.0 L 112.0 238.0 L 123.0 238.0 L 137.0 238.0 L 150.0 238.0 L 163.0 238.0 L 177.0 238.0 L 189.0 237.0 L 198.0 237.0 L 204.0 237.0 L 210.0 237.0 L 216.0 237.0 L 221.0 237.0 L 226.0 237.0 L 230.0 237.0 L 232.0 238.0 L 233.0 239.0 " stroke="black" fill="none" stroke-width="5.0" stroke-linecap="round" stroke-linejoin="round" />
</svg>