<svg xmlns="http://www.w3.org/2000/svg" width="300" height="300" viewBox="0 0 300 300">
<path d="M 107.0 71.0 L 107.0 71.0 L 107.0 70.0 L 107.0 70.0 L 107.0 70.0 L 107.0 70.0 L 108.0 70.0 L 108.0 71.0 L 108.0 74.0 L 108.0 77.0 L 108.0 82.0 L 107.0 87.0 L 105.0 95.0 L 101.0 103.0 L 96.0 111.0 L 90.0 118.0 L 83.0 124.0 L 78.0 128.0 L 74.0 130.0 L 72.0 132.0 L 70.0 132.0 L 70.0 132.0 " stroke="black" fill="none" stroke-width="5.0" stroke-linecap="round" stroke-linejoin="round" />
<path d="M 107.0 106.0 L 107.0 106.0 L 105.0 106.0 L 104.0 106.0 L 104.0 106.0 L 103.0 106.0 L 103.0 106.0 L 103.0 106.0 L 103.0 106.0 L 105.0 106.0 L 107.0 106.0 L 110.0 106.0 L 114.0 106.0 L 119.0 106.0 L 125.0 106.0 L 133.0 106.0 L 141.0 105.0 L 149.0 105.0 L 156.0 104.0 L 164.0 103.0 L 173.0 103.0 L 181.0 103.0 L 188.0 103.0 L 194.0 104.0 L 197.0 105.0 L 200.0 106.0 L 202.0 107.0 L 204.0 108.0 L 204.0 109.0 " stroke="black" fill="none" stroke-width="5.0" stroke-linecap="round" stroke-linejoin="round" />
<path d="M 71.0 164.0 L 71.0 164.0 L 71.0 164.0 L 71.0 164.0 L 71.0 164.0 L 72.0 164.0 L 74.0 164.0 L 77.0 164.0 L 82.0 164.0 L 90.0 164.0 L 99.0 164.0 L 108.0 163.0 L 118.0 163.0 L 128.0 162.0 L 139.0 162.0 L 149.0 163.0 L 157.0 163.0 L 164.0 164.0 L 174.0 164.0 L 184.0 164.0 L 191.0 163.0 L 197.0 163.0 L 201.0 162.0 L 204.0 162.0 L 207.0 162.0 L 210.0 162.0 L 213.0 162.0 L 214.0 162.0 " stroke="black" fill="none" stroke-width="5.0" stroke-linecap="round" stroke-linejoin="round" />
<path d="M 147.0 111.0 L 147.0 111.0 L 147.0 110.0 L 147.0 110.0 L 146.0 110.0 L 146.0 110.0 L 146.0 110.0 L 146.0 111.0 L 146.0 113.0 L 146.0 115.0 L 146.0 119.0 L 146.0 123.0 L 146.0 127.0 L 146.0 134.0 L 146.0 141.0 L 145.0 148.0 L 144.0 155.0 L 142.0 163.0 L 140.0 170.0 L 137.0 176.0 L 134.0 183.0 L 130.0 189.0 L 125.0 195.0 L 120.0 201.0 L 116.0 205.0 L 112.0 209.0 L 108.0 214.0 L 104.0 218.0 L 99.0 224.0 L 92.0 230.0 L 85.0 234.0 " stroke="black" fill="none" stroke-width="5.0" stroke-linecap="round" stroke-linejoin="round" />
<path d="M 147.0 168.0 L 147.0 168.0 L 146.0 168.0 L 146.0 167.0 L 146.0 167.0 L 145.0 167.0 L 145.0 168.0 L 145.0 169.0 L 146.0 170.0 L 151.0 179.0 L 154.0 184.0 L 158.0 188.0 L 164.0 193.0 L 170.0 199.0 L 178.0 204.0 L 185.0 208.0 L 191.0 213.0 L 196.0 217.0 L 201.0 221.0 L 206.0 225.0 L 211.0 228.0 L 216.0 231.0 L 221.0 233.0 L 226.0 234.0 L 230.0 235.0 L 233.0 236.0 L 235.0 236.0 L 237.0 236.0 L 239.0 235.0 L 240.0 235.0 " stroke="black" fill="none" stroke-width="5.0" stroke-linecap="round" stroke-linejoin="round" />
</svg>