<svg xmlns="http://www.w3.org/2000/svg" width="300" height="300" viewBox="0 0 300 300">
<path d="M 108.0 86.0 L 108.0 86.0 L 108.0 86.0 L 108.0 86.0 L 108.0 86.0 L 108.0 86.0 L 108.0 87.0 L 108.0 87.0 L 108.0 88.0 L 108.0 89.0 L 108.0 90.0 L 108.0 92.0 L 108.0 94.0 L 108.0 97.0 L 108.0 100.0 L 108.0 103.0 L 108.0 107.0 L 108.0 110.0 L 108.0 113.0 L 108.0 116.0 L 108.0 119.0 L 108.0 122.0 L 108.0 124.0 L 108.0 127.0 L 108.0 129.0 L 107.0 132.0 L 107.0 135.0 L 107.0 137.0 L 107.0 140.0 L 107.0 143.0 L 107.0 146.0 L 106.0 149.0 L 106.0 151.0 L 106.0 154.0 L 105.0 156.0 L 105.0 158.0 L 105.0 160.0 L 105.0 162.0 L 104.0 165.0 L 104.0 167.0 L 104.0 169.0 L 104.0 171.0 L 103.0 173.0 L 103.0 176.0 L 103.0 178.0 L 102.0 181.0 L 102.0 183.0 L 101.0 186.0 L 101.0 189.0 L 101.0 191.0 L 100.0 194.0 L 100.0 196.0 L 100.0 198.0 L 99.0 201.0 L 99.0 203.0 L 98.0 205.0 L 98.0 207.0 L 97.0 209.0 L 97.0 211.0 L 96.0 213.0 L 96.0 215.0 L 95.0 217.0 L 94.0 220.0 L 93.0 223.0 L 92.0 226.0 L 90.0 229.0 L 89.0 232.0 L 88.0 236.0 L 86.0 239.0 L 84.0 241.0 L 82.0 244.0 L 80.0 246.0 L 78.0 249.0 L 76.0 251.0 L 73.0 254.0 L 71.0 257.0 L 70.0 259.0 L 69.0 260.0 " stroke="black" fill="none" stroke-width="5.0" stroke-linecap="round" stroke-linejoin="round" />
<path d="M 110.0 87.0 L 110.0 87.0 L 110.0 87.0 L 110.0 87.0 L 110.0 87.0 L 110.0 87.0 L 110.0 87.0 L 110.0 87.0 L 110.0 87.0 L 110.0 87.0 L 110.0 87.0 L 110.0 87.0 L 110.0 87.0 L 112.0 87.0 L 113.0 87.0 L 115.0 87.0 L 116.0 87.0 L 118.0 87.0 L 120.0 87.0 L 123.0 87.0 L 125.0 87.0 L 128.0 87.0 L 131.0 87.0 L 134.0 87.0 L 137.0 87.0 L 139.0 87.0 L 141.0 86.0 L 144.0 86.0 L 146.0 86.0 L 148.0 86.0 L 150.0 86.0 L 151.0 86.0 L 153.0 86.0 L 154.0 86.0 L 156.0 85.0 L 157.0 85.0 L 159.0 85.0 L 160.0 85.0 L 162.0 85.0 L 164.0 84.0 L 165.0 84.0 L 167.0 84.0 L 169.0 84.0 L 171.0 84.0 L 173.0 84.0 L 175.0 84.0 L 176.0 84.0 L 178.0 84.0 L 180.0 84.0 L 182.0 84.0 L 184.0 85.0 L 186.0 85.0 L 188.0 85.0 L 189.0 85.0 L 191.0 85.0 L 192.0 85.0 L 193.0 85.0 L 194.0 85.0 L 194.0 85.0 L 194.0 86.0 L 195.0 86.0 L 195.0 86.0 L 195.0 87.0 L 195.0 87.0 L 195.0 88.0 L 195.0 89.0 L 195.0 89.0 L 195.0 91.0 L 195.0 92.0 L 195.0 93.0 L 195.0 95.0 L 195.0 97.0 L 195.0 99.0 L 195.0 101.0 L 195.0 104.0 L 194.0 107.0 L 194.0 109.0 L 194.0 112.0 L 193.0 115.0 L 193.0 117.0 L 193.0 120.0 L 192.0 123.0 L 192.0 126.0 L 191.0 128.0 L 191.0 131.0 L 191.0 134.0 L 190.0 137.0 L 190.0 140.0 L 190.0 143.0 L 190.0 146.0 L 190.0 149.0 L 190.0 151.0 L 190.0 154.0 L 189.0 156.0 L 189.0 158.0 L 189.0 160.0 L 189.0 162.0 L 189.0 163.0 L 189.0 165.0 L 189.0 167.0 L 188.0 169.0 L 188.0 171.0 L 188.0 173.0 L 188.0 175.0 L 187.0 177.0 L 187.0 179.0 L 187.0 181.0 L 187.0 184.0 L 187.0 187.0 L 187.0 189.0 L 187.0 191.0 L 187.0 194.0 L 186.0 196.0 L 186.0 198.0 L 186.0 200.0 L 186.0 202.0 L 186.0 204.0 L 186.0 206.0 L 186.0 208.0 L 186.0 210.0 L 186.0 212.0 L 186.0 214.0 L 186.0 216.0 L 186.0 218.0 L 186.0 220.0 L 186.0 221.0 L 186.0 223.0 L 186.0 225.0 L 186.0 227.0 L 186.0 229.0 L 187.0 231.0 L 187.0 232.0 L 187.0 234.0 L 187.0 235.0 L 187.0 236.0 L 187.0 237.0 L 187.0 238.0 L 188.0 238.0 L 188.0 239.0 L 188.0 240.0 L 188.0 240.0 L 189.0 241.0 L 189.0 241.0 L 189.0 242.0 L 190.0 242.0 L 190.0 243.0 L 190.0 243.0 L 191.0 244.0 L 191.0 244.0 L 192.0 244.0 L 192.0 245.0 L 193.0 245.0 L 194.0 245.0 L 194.0 246.0 L 195.0 246.0 L 196.0 247.0 L 198.0 247.0 L 199.0 247.0 L 201.0 248.0 L 203.0 248.0 L 205.0 248.0 L 207.0 248.0 L 209.0 248.0 L 212.0 248.0 L 214.0 248.0 L 217.0 248.0 L 219.0 248.0 L 221.0 248.0 L 223.0 247.0 L 224.0 247.0 L 225.0 247.0 L 226.0 247.0 L 227.0 246.0 L 227.0 245.0 L 228.0 245.0 L 228.0 243.0 L 229.0 242.0 L 230.0 239.0 L 230.0 236.0 L 231.0 232.0 L 232.0 226.0 L 233.0 220.0 L 234.0 213.0 L 234.0 206.0 " stroke="black" fill="none" stroke-width="5.0" stroke-linecap="round" stroke-linejoin="round" />
</svg>