<svg xmlns="http://www.w3.org/2000/svg" width="300" height="300" viewBox="0 0 300 300">
<path d="M 102.0 85.0 L 102.0 85.0 L 101.0 85.0 L 100.0 84.0 L 100.0 84.0 L 100.0 84.0 L 100.0 84.0 L 101.0 84.0 L 103.0 84.0 L 107.0 84.0 L 112.0 84.0 L 119.0 84.0 L 129.0 85.0 L 141.0 85.0 L 152.0 85.0 L 165.0 85.0 L 180.0 85.0 L 193.0 85.0 L 202.0 84.0 L 211.0 84.0 L 219.0 84.0 L 225.0 84.0 L 229.0 84.0 L 230.0 86.0 " stroke="black" fill="none" stroke-width="5.0" stroke-linecap="round" stroke-linejoin="round" />
<path d="M 73.0 137.0 L 72.0 137.0 L 71.0 137.0 L 70.0 137.0 L 69.0 137.0 L 69.0 137.0 L 69.0 137.0 L 69.0 137.0 L 72.0 137.0 L 76.0 137.0 L 83.0 136.0 L 91.0 136.0 L 99.0 135.0 L 110.0 134.0 L 123.0 133.0 L 138.0 132.0 L 152.0 131.0 L 164.0 131.0 L 177.0 131.0 L 188.0 131.0 L 196.0 131.0 L 201.0 132.0 L 205.0 133.0 L 209.0 134.0 L 211.0 135.0 L 212.0 136.0 " stroke="black" fill="none" stroke-width="5.0" stroke-linecap="round" stroke-linejoin="round" />
<path d="M 145.0 148.0 L 145.0 148.0 L 144.0 148.0 L 144.0 148.0 L 144.0 148.0 L 144.0 148.0 L 144.0 150.0 L 144.0 154.0 L 145.0 158.0 L 147.0 164.0 L 148.0 172.0 L 149.0 184.0 L 149.0 196.0 L 149.0 208.0 L 149.0 219.0 L 149.0 230.0 L 149.0 238.0 L 149.0 243.0 L 150.0 246.0 L 150.0 246.0 L 150.0 246.0 " stroke="black" fill="none" stroke-width="5.0" stroke-linecap="round" stroke-linejoin="round" />
<path d="M 108.0 175.0 L 108.0 175.0 L 108.0 174.0 L 107.0 173.0 L 107.0 173.0 L 106.0 173.0 L 106.0 173.0 L 104.0 175.0 L 102.0 180.0 L 99.0 186.0 L 95.0 193.0 L 89.0 200.0 L 83.0 208.0 L 76.0 216.0 L 71.0 223.0 L 67.0 229.0 L 66.0 232.0 " stroke="black" fill="none" stroke-width="5.0" stroke-linecap="round" stroke-linejoin="round" />
<path d="M 198.0 174.0 L 198.0 174.0 L 197.0 173.0 L 197.0 172.0 L 196.0 172.0 L 196.0 172.0 L 196.0 172.0 L 197.0 173.0 L 199.0 175.0 L 202.0 178.0 L 206.0 182.0 L 210.0 187.0 L 216.0 193.0 L 222.0 200.0 L 227.0 208.0 L 233.0 216.0 L 236.0 224.0 L 239.0 231.0 L 241.0 236.0 L 242.0 239.0 L 243.0 240.0 " stroke="black" fill="none" stroke-width="5.0" stroke-linecap="round" stroke-linejoin="round" />
</svg>