<svg xmlns="http://www.w3.org/2000/svg" width="300" height="300" viewBox="0 0 300 300">
<path d="M 152.0 71.0 L 152.0 70.0 L 152.0 68.0 L 152.0 67.0 L 152.0 67.0 L 151.0 67.0 L 151.0 67.0 L 151.0 69.0 L 151.0 72.0 L 151.0 76.0 L 152.0 82.0 L 152.0 89.0 L 152.0 98.0 L 152.0 107.0 L 152.0 117.0 L 151.0 126.0 L 151.0 132.0 L 151.0 137.0 L 151.0 140.0 L 151.0 140.0 L 152.0 140.0 " stroke="black" fill="none" stroke-width="5.0" stroke-linecap="round" stroke-linejoin="round" />
<path d="M 160.0 103.0 L 160.0 103.0 L 160.0 103.0 L 159.0 103.0 L 158.0 102.0 L 158.0 102.0 L 158.0 102.0 L 159.0 102.0 L 161.0 101.0 L 165.0 101.0 L 170.0 100.0 L 175.0 100.0 L 181.0 100.0 L 188.0 100.0 L 194.0 100.0 L 201.0 100.0 L 208.0 100.0 L 216.0 100.0 " stroke="black" fill="none" stroke-width="5.0" stroke-linecap="round" stroke-linejoin="round" />
<path d="M 90.0 146.0 L 90.0 146.0 L 89.0 146.0 L 89.0 146.0 L 88.0 146.0 L 88.0 146.0 L 87.0 146.0 L 87.0 146.0 L 87.0 146.0 L 87.0 147.0 L 89.0 147.0 L 91.0 148.0 L 93.0 148.0 L 96.0 148.0 L 98.0 148.0 L 101.0 148.0 L 104.0 148.0 L 107.0 148.0 L 109.0 148.0 L 112.0 148.0 L 115.0 148.0 L 118.0 147.0 L 122.0 147.0 L 125.0 146.0 L 129.0 146.0 L 133.0 145.0 L 137.0 144.0 L 140.0 144.0 L 143.0 144.0 L 146.0 143.0 L 148.0 143.0 L 150.0 143.0 L 151.0 143.0 L 153.0 143.0 L 154.0 143.0 L 155.0 143.0 L 157.0 143.0 L 159.0 143.0 L 161.0 143.0 L 163.0 143.0 L 166.0 143.0 L 169.0 143.0 L 172.0 142.0 L 176.0 142.0 L 179.0 142.0 L 182.0 141.0 L 185.0 141.0 L 188.0 141.0 L 190.0 141.0 L 193.0 140.0 L 195.0 140.0 L 196.0 139.0 L 198.0 139.0 L 199.0 139.0 L 201.0 139.0 L 202.0 139.0 L 204.0 139.0 L 205.0 139.0 L 207.0 139.0 L 208.0 139.0 L 209.0 140.0 L 210.0 140.0 L 211.0 140.0 L 212.0 140.0 L 213.0 141.0 L 214.0 141.0 L 214.0 141.0 L 215.0 141.0 L 215.0 141.0 L 215.0 141.0 L 216.0 142.0 L 216.0 142.0 L 216.0 142.0 L 216.0 142.0 L 216.0 142.0 L 216.0 142.0 L 216.0 142.0 L 216.0 143.0 L 216.0 143.0 L 216.0 143.0 L 216.0 144.0 L 215.0 144.0 L 215.0 145.0 L 215.0 146.0 L 215.0 146.0 L 214.0 147.0 L 214.0 148.0 L 213.0 149.0 L 212.0 150.0 L 212.0 151.0 L 211.0 153.0 L 209.0 155.0 L 208.0 157.0 L 206.0 159.0 L 204.0 162.0 L 202.0 165.0 L 199.0 168.0 L 195.0 173.0 L 192.0 177.0 L 188.0 182.0 L 182.0 188.0 L 176.0 193.0 L 168.0 198.0 L 159.0 203.0 L 152.0 208.0 L 145.0 213.0 L 137.0 219.0 L 128.0 225.0 L 119.0 231.0 L 110.0 236.0 L 107.0 238.0 L 105.0 240.0 L 102.0 241.0 L 100.0 243.0 L 94.0 245.0 L 88.0 247.0 L 82.0 248.0 L 79.0 248.0 " stroke="black" fill="none" stroke-width="5.0" stroke-linecap="round" stroke-linejoin="round" />
<path d="M 96.0 158.0 L 96.0 158.0 L 96.0 158.0 L 95.0 157.0 L 95.0 157.0 L 94.0 157.0 L 94.0 157.0 L 94.0 157.0 L 94.0 157.0 L 95.0 158.0 L 96.0 160.0 L 97.0 161.0 L 98.0 163.0 L 100.0 166.0 L 101.0 168.0 L 103.0 171.0 L 105.0 174.0 L 107.0 178.0 L 110.0 182.0 L 112.0 187.0 L 115.0 192.0 L 119.0 196.0 L 122.0 201.0 L 126.0 204.0 L 132.0 208.0 L 137.0 211.0 L 142.0 213.0 L 147.0 214.0 L 151.0 216.0 L 155.0 217.0 L 159.0 218.0 L 165.0 220.0 L 172.0 221.0 L 180.0 224.0 L 186.0 226.0 L 192.0 229.0 L 197.0 232.0 L 201.0 234.0 L 205.0 236.0 L 211.0 238.0 L 217.0 239.0 L 223.0 240.0 L 229.0 240.0 L 233.0 241.0 L 236.0 241.0 L 239.0 241.0 L 241.0 241.0 L 242.0 241.0 " stroke="black" fill="none" stroke-width="5.0" stroke-linecap="round" stroke-linejoin="round" />
</svg>