<svg xmlns="http://www.w3.org/2000/svg" width="300" height="300" viewBox="0 0 300 300">
<path d="M 155.0 64.0 L 155.0 64.0 L 155.0 64.0 L 155.0 63.0 L 155.0 63.0 L 155.0 62.0 L 154.0 62.0 L 154.0 63.0 L 153.0 65.0 L 152.0 68.0 L 150.0 71.0 L 148.0 75.0 L 146.0 78.0 L 143.0 82.0 L 141.0 86.0 L 138.0 89.0 L 136.0 91.0 " stroke="black" fill="none" stroke-width="5.0" stroke-linecap="round" stroke-linejoin="round" />
<path d="M 99.0 102.0 L 99.0 102.0 L 99.0 102.0 L 99.0 102.0 L 99.0 102.0 L 99.0 102.0 L 99.0 101.0 L 99.0 101.0 L 99.0 101.0 L 99.0 102.0 L 99.0 103.0 L 99.0 105.0 L 99.0 107.0 L 99.0 110.0 L 100.0 114.0 L 100.0 119.0 L 101.0 124.0 L 101.0 130.0 L 102.0 138.0 L 102.0 146.0 L 102.0 154.0 L 102.0 161.0 L 102.0 168.0 L 101.0 174.0 L 100.0 181.0 L 98.0 189.0 L 95.0 197.0 L 92.0 204.0 L 87.0 211.0 L 83.0 217.0 L 79.0 222.0 L 75.0 227.0 L 72.0 230.0 L 70.0 233.0 " stroke="black" fill="none" stroke-width="5.0" stroke-linecap="round" stroke-linejoin="round" />
<path d="M 104.0 103.0 L 104.0 103.0 L 104.0 103.0 L 103.0 103.0 L 103.0 103.0 L 102.0 103.0 L 102.0 103.0 L 102.0 103.0 L 102.0 103.0 L 102.0 103.0 L 102.0 103.0 L 102.0 103.0 L 103.0 103.0 L 104.0 102.0 L 105.0 102.0 L 107.0 102.0 L 109.0 102.0 L 111.0 101.0 L 113.0 101.0 L 116.0 101.0 L 119.0 101.0 L 123.0 100.0 L 127.0 100.0 L 131.0 100.0 L 135.0 100.0 L 139.0 99.0 L 142.0 99.0 L 145.0 99.0 L 147.0 99.0 L 148.0 99.0 L 150.0 99.0 L 150.0 99.0 L 151.0 98.0 L 152.0 98.0 L 153.0 98.0 L 153.0 98.0 L 155.0 98.0 L 156.0 98.0 L 157.0 98.0 L 159.0 98.0 L 160.0 98.0 L 162.0 98.0 L 164.0 98.0 L 165.0 98.0 L 167.0 98.0 L 169.0 98.0 L 170.0 98.0 L 172.0 98.0 L 174.0 97.0 L 175.0 97.0 L 177.0 97.0 L 179.0 97.0 L 180.0 97.0 L 182.0 97.0 L 184.0 97.0 L 185.0 97.0 L 187.0 97.0 L 188.0 97.0 L 189.0 97.0 L 191.0 97.0 L 192.0 96.0 L 193.0 96.0 L 193.0 96.0 L 194.0 96.0 L 194.0 96.0 L 195.0 96.0 L 195.0 96.0 L 196.0 96.0 L 196.0 96.0 L 196.0 96.0 L 197.0 96.0 L 197.0 96.0 L 198.0 97.0 L 198.0 97.0 L 198.0 97.0 L 199.0 97.0 L 199.0 98.0 L 199.0 98.0 L 200.0 98.0 L 200.0 99.0 L 200.0 100.0 L 200.0 101.0 L 200.0 102.0 L 201.0 103.0 L 201.0 105.0 L 201.0 108.0 L 201.0 111.0 L 201.0 114.0 L 201.0 117.0 L 201.0 121.0 L 201.0 125.0 L 201.0 129.0 L 201.0 134.0 L 200.0 139.0 L 200.0 144.0 L 200.0 150.0 L 200.0 155.0 L 199.0 160.0 L 199.0 164.0 L 199.0 169.0 L 199.0 173.0 L 199.0 177.0 L 199.0 181.0 L 199.0 185.0 L 199.0 189.0 L 199.0 193.0 L 199.0 196.0 L 199.0 199.0 L 199.0 202.0 L 199.0 205.0 L 199.0 208.0 L 199.0 211.0 L 199.0 214.0 L 199.0 216.0 L 199.0 219.0 L 198.0 222.0 L 198.0 225.0 L 198.0 229.0 L 198.0 232.0 L 198.0 234.0 L 198.0 237.0 L 198.0 239.0 L 198.0 240.0 L 198.0 242.0 L 197.0 243.0 L 197.0 244.0 L 197.0 245.0 L 197.0 246.0 L 197.0 247.0 L 196.0 248.0 L 196.0 249.0 L 196.0 250.0 L 196.0 252.0 L 196.0 253.0 L 196.0 254.0 L 195.0 255.0 L 195.0 255.0 L 195.0 256.0 L 195.0 256.0 L 195.0 257.0 L 194.0 257.0 L 193.0 257.0 L 192.0 256.0 L 191.0 255.0 L 189.0 253.0 L 186.0 252.0 L 183.0 250.0 L 179.0 247.0 L 175.0 245.0 L 170.0 242.0 " stroke="black" fill="none" stroke-width="5.0" stroke-linecap="round" stroke-linejoin="round" />
<path d="M 137.0 116.0 L 137.0 115.0 L 136.0 115.0 L 136.0 114.0 L 136.0 114.0 L 136.0 114.0 L 137.0 115.0 L 139.0 117.0 L 141.0 120.0 L 143.0 123.0 L 146.0 126.0 L 148.0 130.0 L 151.0 134.0 L 154.0 139.0 L 158.0 144.0 L 161.0 148.0 L 165.0 152.0 L 168.0 155.0 L 170.0 157.0 " stroke="black" fill="none" stroke-width="5.0" stroke-linecap="round" stroke-linejoin="round" />
<path d="M 132.0 191.0 L 131.0 191.0 L 130.0 191.0 L 130.0 191.0 L 129.0 191.0 L 129.0 191.0 L 131.0 193.0 L 133.0 194.0 L 136.0 197.0 L 140.0 200.0 L 144.0 203.0 L 148.0 206.0 L 151.0 210.0 L 154.0 214.0 L 158.0 218.0 L 161.0 221.0 " stroke="black" fill="none" stroke-width="5.0" stroke-linecap="round" stroke-linejoin="round" />
<path d="M 60.0 166.0 L 60.0 166.0 L 59.0 166.0 L 58.0 167.0 L 58.0 167.0 L 58.0 167.0 L 58.0 167.0 L 59.0 167.0 L 62.0 167.0 L 66.0 167.0 L 71.0 166.0 L 79.0 165.0 L 88.0 164.0 L 99.0 163.0 L 110.0 162.0 L 121.0 161.0 L 135.0 160.0 L 148.0 159.0 L 159.0 159.0 L 170.0 158.0 L 183.0 158.0 L 193.0 158.0 L 200.0 158.0 L 208.0 158.0 L 215.0 158.0 L 222.0 159.0 L 229.0 159.0 L 232.0 160.0 L 234.0 160.0 L 235.0 161.0 L 235.0 161.0 " stroke="black" fill="none" stroke-width="5.0" stroke-linecap="round" stroke-linejoin="round" />
</svg>