<svg xmlns="http://www.w3.org/2000/svg" width="300" height="300" viewBox="0 0 300 300">
<path d="M 98.0 90.0 L 98.0 90.0 L 97.0 90.0 L 96.0 90.0 L 95.0 90.0 L 95.0 90.0 L 94.0 91.0 L 94.0 91.0 L 95.0 91.0 L 96.0 92.0 L 99.0 92.0 L 102.0 92.0 L 106.0 92.0 L 111.0 92.0 L 119.0 91.0 L 128.0 88.0 L 139.0 86.0 L 148.0 83.0 L 156.0 81.0 L 163.0 79.0 L 169.0 78.0 L 176.0 76.0 L 181.0 75.0 L 185.0 75.0 L 186.0 75.0 " stroke="black" fill="none" stroke-width="5.0" stroke-linecap="round" stroke-linejoin="round" />
<path d="M 77.0 123.0 L 77.0 123.0 L 75.0 123.0 L 74.0 123.0 L 74.0 123.0 L 73.0 123.0 L 73.0 123.0 L 74.0 123.0 L 76.0 123.0 L 79.0 123.0 L 85.0 123.0 L 91.0 123.0 L 98.0 123.0 L 105.0 122.0 L 115.0 122.0 L 127.0 121.0 L 142.0 120.0 L 155.0 120.0 L 167.0 119.0 L 180.0 119.0 L 192.0 118.0 L 198.0 118.0 L 204.0 118.0 L 209.0 118.0 L 214.0 119.0 L 218.0 120.0 L 221.0 121.0 L 223.0 122.0 L 225.0 123.0 " stroke="black" fill="none" stroke-width="5.0" stroke-linecap="round" stroke-linejoin="round" />
<path d="M 152.0 91.0 L 152.0 91.0 L 151.0 91.0 L 151.0 91.0 L 151.0 91.0 L 151.0 92.0 L 150.0 95.0 L 150.0 100.0 L 150.0 105.0 L 150.0 113.0 L 150.0 120.0 L 150.0 128.0 L 151.0 137.0 L 151.0 146.0 L 151.0 154.0 L 151.0 162.0 L 151.0 167.0 L 151.0 170.0 L 150.0 173.0 L 150.0 173.0 " stroke="black" fill="none" stroke-width="5.0" stroke-linecap="round" stroke-linejoin="round" />
<path d="M 142.0 125.0 L 142.0 125.0 L 142.0 124.0 L 142.0 123.0 L 142.0 123.0 L 142.0 122.0 L 142.0 122.0 L 142.0 122.0 L 142.0 122.0 L 142.0 122.0 L 141.0 122.0 L 140.0 123.0 L 138.0 125.0 L 134.0 128.0 L 130.0 132.0 L 124.0 137.0 L 118.0 142.0 L 111.0 148.0 L 104.0 154.0 L 97.0 158.0 L 88.0 162.0 L 79.0 166.0 L 72.0 168.0 L 67.0 170.0 L 64.0 171.0 L 63.0 171.0 " stroke="black" fill="none" stroke-width="5.0" stroke-linecap="round" stroke-linejoin="round" />
<path d="M 151.0 130.0 L 150.0 130.0 L 149.0 130.0 L 148.0 130.0 L 148.0 130.0 L 148.0 130.0 L 148.0 130.0 L 149.0 131.0 L 151.0 132.0 L 155.0 134.0 L 161.0 136.0 L 168.0 138.0 L 177.0 141.0 L 185.0 144.0 L 193.0 147.0 L 200.0 151.0 L 205.0 155.0 L 210.0 159.0 L 215.0 163.0 L 219.0 167.0 L 223.0 170.0 L 225.0 171.0 " stroke="black" fill="none" stroke-width="5.0" stroke-linecap="round" stroke-linejoin="round" />
<path d="M 104.0 183.0 L 104.0 183.0 L 104.0 182.0 L 104.0 182.0 L 104.0 181.0 L 104.0 181.0 L 104.0 181.0 L 104.0 183.0 L 104.0 186.0 L 104.0 189.0 L 104.0 194.0 L 104.0 198.0 L 104.0 204.0 L 104.0 210.0 L 104.0 216.0 L 104.0 223.0 L 104.0 228.0 L 104.0 233.0 L 104.0 237.0 L 104.0 239.0 L 104.0 239.0 " stroke="black" fill="none" stroke-width="5.0" stroke-linecap="round" stroke-linejoin="round" />
<path d="M 107.0 184.0 L 107.0 184.0 L 107.0 184.0 L 106.0 184.0 L 106.0 184.0 L 105.0 184.0 L 105.0 184.0 L 105.0 184.0 L 105.0 184.0 L 105.0 184.0 L 105.0 184.0 L 106.0 184.0 L 107.0 184.0 L 110.0 184.0 L 113.0 184.0 L 118.0 183.0 L 123.0 183.0 L 130.0 182.0 L 136.0 182.0 L 143.0 182.0 L 149.0 182.0 L 153.0 182.0 L 158.0 182.0 L 163.0 182.0 L 168.0 182.0 L 173.0 183.0 L 179.0 183.0 L 184.0 183.0 L 189.0 184.0 L 193.0 184.0 L 196.0 184.0 L 198.0 184.0 L 200.0 184.0 L 202.0 184.0 L 203.0 184.0 L 205.0 184.0 L 206.0 184.0 L 207.0 184.0 L 207.0 184.0 L 208.0 184.0 L 208.0 185.0 L 208.0 186.0 L 208.0 187.0 L 208.0 189.0 L 208.0 191.0 L 208.0 194.0 L 208.0 198.0 L 207.0 203.0 L 207.0 208.0 L 206.0 214.0 L 205.0 221.0 L 204.0 227.0 L 203.0 232.0 L 203.0 237.0 L 202.0 241.0 L 202.0 243.0 L 202.0 245.0 L 201.0 245.0 L 200.0 246.0 L 199.0 247.0 L 199.0 247.0 " stroke="black" fill="none" stroke-width="5.0" stroke-linecap="round" stroke-linejoin="round" />
<path d="M 113.0 210.0 L 113.0 210.0 L 112.0 209.0 L 111.0 209.0 L 111.0 209.0 L 111.0 208.0 L 112.0 208.0 L 115.0 208.0 L 121.0 208.0 L 130.0 208.0 L 140.0 207.0 L 150.0 207.0 L 160.0 207.0 L 170.0 207.0 L 180.0 207.0 L 188.0 207.0 L 193.0 207.0 L 196.0 209.0 L 197.0 209.0 " stroke="black" fill="none" stroke-width="5.0" stroke-linecap="round" stroke-linejoin="round" />
<path d="M 104.0 245.0 L 103.0 245.0 L 101.0 245.0 L 99.0 245.0 L 98.0 245.0 L 97.0 245.0 L 97.0 245.0 L 97.0 245.0 L 99.0 245.0 L 102.0 245.0 L 107.0 245.0 L 113.0 245.0 L 123.0 245.0 L 134.0 245.0 L 146.0 245.0 L 157.0 244.0 L 169.0 243.0 L 179.0 243.0 L 187.0 243.0 L 193.0 243.0 L 196.0 243.0 L 197.0 244.0 " stroke="black" fill="none" stroke-width="5.0" stroke-linecap="round" stroke-linejoin="round" />
</svg>