<svg xmlns="http://www.w3.org/2000/svg" width="300" height="300" viewBox="0 0 300 300">
<path d="M 95.0 96.0 L 94.0 96.0 L 92.0 96.0 L 91.0 95.0 L 90.0 95.0 L 90.0 95.0 L 90.0 95.0 L 90.0 95.0 L 91.0 95.0 L 94.0 95.0 L 97.0 94.0 L 100.0 94.0 L 104.0 94.0 L 110.0 93.0 L 117.0 93.0 L 126.0 93.0 L 139.0 92.0 L 149.0 91.0 L 159.0 91.0 L 169.0 90.0 L 177.0 90.0 L 184.0 90.0 L 190.0 91.0 L 193.0 92.0 L 195.0 93.0 L 196.0 93.0 L 197.0 93.0 L 198.0 93.0 L 198.0 93.0 " stroke="black" fill="none" stroke-width="5.0" stroke-linecap="round" stroke-linejoin="round" />
<path d="M 150.0 71.0 L 150.0 71.0 L 150.0 71.0 L 149.0 71.0 L 149.0 71.0 L 149.0 73.0 L 149.0 75.0 L 149.0 80.0 L 149.0 85.0 L 149.0 94.0 L 149.0 103.0 L 148.0 113.0 L 147.0 122.0 L 146.0 130.0 L 146.0 137.0 L 146.0 142.0 L 146.0 147.0 " stroke="black" fill="none" stroke-width="5.0" stroke-linecap="round" stroke-linejoin="round" />
<path d="M 68.0 152.0 L 68.0 152.0 L 67.0 152.0 L 67.0 152.0 L 66.0 152.0 L 66.0 152.0 L 66.0 152.0 L 67.0 152.0 L 69.0 151.0 L 73.0 151.0 L 78.0 150.0 L 86.0 150.0 L 94.0 149.0 L 104.0 148.0 L 115.0 148.0 L 128.0 148.0 L 142.0 148.0 L 154.0 148.0 L 165.0 148.0 L 178.0 148.0 L 189.0 148.0 L 196.0 147.0 L 202.0 147.0 L 205.0 147.0 L 209.0 147.0 L 212.0 148.0 L 214.0 150.0 L 214.0 152.0 " stroke="black" fill="none" stroke-width="5.0" stroke-linecap="round" stroke-linejoin="round" />
<path d="M 152.0 151.0 L 151.0 151.0 L 151.0 151.0 L 150.0 152.0 L 150.0 153.0 L 149.0 155.0 L 149.0 159.0 L 149.0 164.0 L 149.0 170.0 L 149.0 177.0 L 149.0 186.0 L 150.0 195.0 L 150.0 204.0 L 150.0 212.0 L 150.0 219.0 L 150.0 224.0 L 150.0 228.0 L 150.0 229.0 L 150.0 229.0 L 150.0 228.0 " stroke="black" fill="none" stroke-width="5.0" stroke-linecap="round" stroke-linejoin="round" />
<path d="M 158.0 190.0 L 158.0 190.0 L 158.0 190.0 L 157.0 190.0 L 157.0 190.0 L 157.0 190.0 L 158.0 190.0 L 162.0 190.0 L 168.0 189.0 L 175.0 189.0 L 183.0 188.0 L 191.0 186.0 L 198.0 185.0 L 204.0 184.0 L 207.0 184.0 L 210.0 184.0 L 210.0 185.0 " stroke="black" fill="none" stroke-width="5.0" stroke-linecap="round" stroke-linejoin="round" />
<path d="M 99.0 167.0 L 99.0 167.0 L 99.0 167.0 L 98.0 167.0 L 98.0 167.0 L 98.0 167.0 L 98.0 168.0 L 98.0 170.0 L 98.0 172.0 L 98.0 176.0 L 98.0 182.0 L 98.0 189.0 L 98.0 197.0 L 96.0 205.0 L 94.0 214.0 L 90.0 224.0 L 84.0 233.0 L 79.0 242.0 L 75.0 249.0 L 73.0 250.0 " stroke="black" fill="none" stroke-width="5.0" stroke-linecap="round" stroke-linejoin="round" />
<path d="M 101.0 212.0 L 101.0 212.0 L 100.0 212.0 L 99.0 212.0 L 99.0 212.0 L 98.0 212.0 L 98.0 212.0 L 98.0 212.0 L 98.0 212.0 L 100.0 213.0 L 101.0 214.0 L 103.0 215.0 L 105.0 217.0 L 107.0 219.0 L 110.0 222.0 L 114.0 225.0 L 119.0 228.0 L 125.0 231.0 L 132.0 234.0 L 139.0 236.0 L 146.0 238.0 L 152.0 240.0 L 158.0 241.0 L 165.0 242.0 L 174.0 243.0 L 182.0 243.0 L 191.0 244.0 L 196.0 245.0 L 201.0 246.0 L 205.0 247.0 L 210.0 248.0 L 216.0 248.0 L 221.0 249.0 L 225.0 250.0 L 229.0 250.0 L 233.0 250.0 " stroke="black" fill="none" stroke-width="5.0" stroke-linecap="round" stroke-linejoin="round" />
</svg>