<svg xmlns="http://www.w3.org/2000/svg" width="300" height="300" viewBox="0 0 300 300">
<path d="M 189.0 69.0 L 189.0 69.0 L 189.0 69.0 L 189.0 69.0 L 189.0 68.0 L 189.0 68.0 L 189.0 68.0 L 189.0 68.0 L 188.0 69.0 L 186.0 70.0 L 183.0 73.0 L 178.0 76.0 L 172.0 80.0 L 165.0 84.0 L 157.0 89.0 L 150.0 93.0 L 143.0 97.0 L 135.0 101.0 L 126.0 105.0 L 118.0 107.0 L 112.0 109.0 L 107.0 111.0 L 105.0 111.0 L 105.0 111.0 " stroke="black" fill="none" stroke-width="5.0" stroke-linecap="round" stroke-linejoin="round" />
<path d="M 113.0 119.0 L 113.0 119.0 L 112.0 119.0 L 112.0 119.0 L 111.0 118.0 L 111.0 118.0 L 111.0 118.0 L 111.0 119.0 L 111.0 120.0 L 112.0 122.0 L 115.0 124.0 L 118.0 127.0 L 122.0 129.0 L 127.0 132.0 L 132.0 135.0 L 136.0 137.0 L 141.0 139.0 " stroke="black" fill="none" stroke-width="5.0" stroke-linecap="round" stroke-linejoin="round" />
<path d="M 150.0 107.0 L 150.0 107.0 L 150.0 107.0 L 149.0 107.0 L 149.0 107.0 L 149.0 107.0 L 149.0 109.0 L 150.0 110.0 L 152.0 112.0 L 155.0 115.0 L 158.0 117.0 L 161.0 120.0 L 164.0 122.0 " stroke="black" fill="none" stroke-width="5.0" stroke-linecap="round" stroke-linejoin="round" />
<path d="M 196.0 109.0 L 196.0 109.0 L 196.0 109.0 L 196.0 109.0 L 195.0 110.0 L 194.0 110.0 L 193.0 112.0 L 192.0 113.0 L 189.0 115.0 L 185.0 118.0 L 180.0 122.0 L 173.0 125.0 L 165.0 130.0 L 157.0 134.0 L 150.0 139.0 L 142.0 145.0 L 131.0 151.0 L 118.0 156.0 L 108.0 160.0 L 100.0 164.0 L 97.0 165.0 " stroke="black" fill="none" stroke-width="5.0" stroke-linecap="round" stroke-linejoin="round" />
<path d="M 158.0 136.0 L 158.0 136.0 L 157.0 134.0 L 157.0 134.0 L 157.0 133.0 L 157.0 133.0 L 157.0 133.0 L 157.0 133.0 L 157.0 133.0 L 157.0 133.0 L 158.0 134.0 L 159.0 135.0 L 160.0 137.0 L 162.0 139.0 L 164.0 141.0 L 165.0 143.0 L 167.0 146.0 L 169.0 149.0 L 171.0 152.0 L 173.0 155.0 L 176.0 159.0 L 178.0 163.0 L 181.0 166.0 L 184.0 169.0 L 186.0 173.0 L 188.0 176.0 L 190.0 180.0 L 191.0 184.0 L 191.0 189.0 L 192.0 194.0 L 192.0 198.0 L 191.0 203.0 L 190.0 207.0 L 189.0 211.0 L 188.0 215.0 L 187.0 220.0 L 185.0 225.0 L 183.0 229.0 L 180.0 234.0 L 177.0 238.0 L 174.0 242.0 L 170.0 245.0 L 167.0 247.0 L 164.0 249.0 L 160.0 250.0 L 158.0 250.0 L 156.0 250.0 L 154.0 248.0 L 152.0 246.0 L 150.0 243.0 L 148.0 241.0 " stroke="black" fill="none" stroke-width="5.0" stroke-linecap="round" stroke-linejoin="round" />
<path d="M 180.0 153.0 L 180.0 153.0 L 179.0 153.0 L 178.0 153.0 L 177.0 153.0 L 176.0 154.0 L 174.0 155.0 L 171.0 157.0 L 166.0 160.0 L 160.0 164.0 L 154.0 168.0 L 148.0 172.0 L 140.0 176.0 L 130.0 181.0 L 120.0 186.0 L 110.0 190.0 L 103.0 194.0 L 98.0 196.0 L 94.0 198.0 L 91.0 199.0 L 90.0 200.0 " stroke="black" fill="none" stroke-width="5.0" stroke-linecap="round" stroke-linejoin="round" />
<path d="M 188.0 180.0 L 188.0 180.0 L 188.0 180.0 L 188.0 180.0 L 188.0 180.0 L 188.0 180.0 L 188.0 180.0 L 188.0 181.0 L 186.0 183.0 L 184.0 186.0 L 179.0 190.0 L 171.0 195.0 L 162.0 200.0 L 152.0 206.0 L 142.0 210.0 L 129.0 215.0 L 116.0 219.0 L 107.0 222.0 L 102.0 224.0 L 98.0 225.0 " stroke="black" fill="none" stroke-width="5.0" stroke-linecap="round" stroke-linejoin="round" />
</svg>