<svg xmlns="http://www.w3.org/2000/svg" width="300" height="300" viewBox="0 0 300 300">
<path d="M 84.0 87.0 L 83.0 87.0 L 80.0 87.0 L 78.0 86.0 L 76.0 86.0 L 75.0 86.0 L 75.0 86.0 L 75.0 86.0 L 75.0 85.0 L 77.0 85.0 L 80.0 85.0 L 84.0 85.0 L 89.0 85.0 L 95.0 85.0 L 101.0 84.0 L 109.0 84.0 L 118.0 83.0 L 131.0 83.0 L 144.0 82.0 L 155.0 82.0 L 166.0 81.0 L 178.0 81.0 L 188.0 81.0 L 195.0 81.0 L 201.0 81.0 L 205.0 81.0 L 209.0 81.0 L 212.0 82.0 L 215.0 82.0 L 216.0 83.0 " stroke="black" fill="none" stroke-width="5.0" stroke-linecap="round" stroke-linejoin="round" />
<path d="M 132.0 93.0 L 132.0 93.0 L 131.0 93.0 L 131.0 93.0 L 130.0 93.0 L 130.0 93.0 L 129.0 94.0 L 128.0 95.0 L 127.0 97.0 L 126.0 100.0 L 123.0 103.0 L 120.0 107.0 L 117.0 111.0 L 113.0 116.0 L 110.0 120.0 L 107.0 123.0 L 104.0 127.0 L 101.0 130.0 L 99.0 133.0 L 97.0 135.0 L 96.0 137.0 L 95.0 137.0 L 94.0 138.0 L 93.0 138.0 L 93.0 139.0 L 92.0 139.0 L 92.0 139.0 L 92.0 139.0 L 92.0 140.0 L 92.0 140.0 L 92.0 140.0 L 93.0 140.0 L 94.0 140.0 L 97.0 140.0 L 99.0 140.0 L 102.0 140.0 L 106.0 140.0 L 111.0 140.0 L 117.0 139.0 L 126.0 138.0 L 137.0 137.0 L 147.0 136.0 L 156.0 135.0 L 165.0 134.0 L 174.0 133.0 L 182.0 132.0 L 189.0 132.0 L 192.0 132.0 L 194.0 132.0 L 194.0 132.0 L 194.0 133.0 L 194.0 133.0 " stroke="black" fill="none" stroke-width="5.0" stroke-linecap="round" stroke-linejoin="round" />
<path d="M 181.0 114.0 L 181.0 114.0 L 180.0 114.0 L 179.0 113.0 L 179.0 113.0 L 179.0 113.0 L 179.0 113.0 L 180.0 114.0 L 183.0 116.0 L 186.0 118.0 L 189.0 121.0 L 192.0 123.0 L 195.0 126.0 L 199.0 130.0 L 203.0 133.0 L 207.0 137.0 L 211.0 142.0 L 214.0 146.0 " stroke="black" fill="none" stroke-width="5.0" stroke-linecap="round" stroke-linejoin="round" />
<path d="M 94.0 189.0 L 93.0 189.0 L 91.0 189.0 L 90.0 188.0 L 90.0 188.0 L 90.0 187.0 L 90.0 186.0 L 92.0 186.0 L 96.0 185.0 L 100.0 185.0 L 105.0 185.0 L 110.0 185.0 L 118.0 185.0 L 128.0 185.0 L 139.0 185.0 L 150.0 185.0 L 162.0 185.0 L 172.0 185.0 L 182.0 185.0 L 191.0 184.0 L 196.0 183.0 L 199.0 182.0 L 202.0 181.0 L 205.0 180.0 L 207.0 178.0 L 208.0 177.0 " stroke="black" fill="none" stroke-width="5.0" stroke-linecap="round" stroke-linejoin="round" />
<path d="M 155.0 158.0 L 154.0 158.0 L 153.0 157.0 L 153.0 157.0 L 152.0 157.0 L 152.0 157.0 L 151.0 159.0 L 151.0 162.0 L 151.0 166.0 L 151.0 173.0 L 151.0 181.0 L 151.0 190.0 L 150.0 200.0 L 150.0 210.0 L 150.0 218.0 L 149.0 225.0 L 148.0 231.0 L 148.0 234.0 L 148.0 237.0 L 147.0 238.0 L 147.0 238.0 " stroke="black" fill="none" stroke-width="5.0" stroke-linecap="round" stroke-linejoin="round" />
<path d="M 69.0 241.0 L 67.0 241.0 L 65.0 241.0 L 64.0 241.0 L 63.0 241.0 L 62.0 241.0 L 62.0 241.0 L 62.0 241.0 L 62.0 241.0 L 64.0 241.0 L 68.0 241.0 L 72.0 240.0 L 78.0 240.0 L 85.0 240.0 L 93.0 240.0 L 100.0 240.0 L 108.0 240.0 L 118.0 240.0 L 129.0 240.0 L 142.0 240.0 L 154.0 240.0 L 165.0 240.0 L 177.0 240.0 L 189.0 240.0 L 197.0 241.0 L 202.0 242.0 L 208.0 243.0 L 213.0 244.0 L 218.0 244.0 L 224.0 244.0 L 227.0 244.0 L 229.0 244.0 L 230.0 244.0 " stroke="black" fill="none" stroke-width="5.0" stroke-linecap="round" stroke-linejoin="round" />
</svg>