<svg xmlns="http://www.w3.org/2000/svg" width="300" height="300" viewBox="0 0 300 300">
<path d="M 74.0 88.0 L 73.0 88.0 L 71.0 89.0 L 70.0 89.0 L 69.0 89.0 L 69.0 89.0 L 70.0 89.0 L 73.0 89.0 L 77.0 89.0 L 82.0 89.0 L 89.0 89.0 L 96.0 89.0 L 104.0 89.0 L 113.0 89.0 L 125.0 89.0 L 138.0 89.0 L 151.0 89.0 L 163.0 90.0 L 176.0 90.0 L 190.0 90.0 L 200.0 90.0 L 209.0 91.0 L 220.0 91.0 L 230.0 91.0 L 237.0 90.0 L 243.0 89.0 L 246.0 89.0 L 246.0 88.0 L 246.0 88.0 " stroke="black" fill="none" stroke-width="5.0" stroke-linecap="round" stroke-linejoin="round" />
<path d="M 149.0 97.0 L 149.0 97.0 L 148.0 97.0 L 147.0 97.0 L 146.0 97.0 L 145.0 99.0 L 143.0 102.0 L 141.0 106.0 L 139.0 111.0 L 137.0 116.0 L 135.0 121.0 L 134.0 125.0 " stroke="black" fill="none" stroke-width="5.0" stroke-linecap="round" stroke-linejoin="round" />
<path d="M 80.0 135.0 L 80.0 136.0 L 80.0 138.0 L 80.0 141.0 L 80.0 144.0 L 80.0 148.0 L 80.0 153.0 L 80.0 159.0 L 80.0 167.0 L 79.0 177.0 L 79.0 189.0 L 78.0 202.0 L 77.0 215.0 L 76.0 226.0 L 76.0 235.0 L 75.0 241.0 L 75.0 243.0 L 75.0 244.0 " stroke="black" fill="none" stroke-width="5.0" stroke-linecap="round" stroke-linejoin="round" />
<path d="M 80.0 136.0 L 80.0 136.0 L 80.0 136.0 L 80.0 136.0 L 80.0 136.0 L 80.0 137.0 L 80.0 137.0 L 80.0 137.0 L 80.0 137.0 L 80.0 137.0 L 80.0 137.0 L 81.0 137.0 L 82.0 137.0 L 84.0 137.0 L 86.0 137.0 L 89.0 137.0 L 91.0 137.0 L 94.0 137.0 L 97.0 137.0 L 100.0 137.0 L 103.0 137.0 L 106.0 137.0 L 110.0 137.0 L 113.0 137.0 L 117.0 137.0 L 121.0 137.0 L 125.0 136.0 L 128.0 136.0 L 131.0 136.0 L 134.0 136.0 L 137.0 136.0 L 140.0 136.0 L 142.0 136.0 L 144.0 136.0 L 146.0 136.0 L 148.0 136.0 L 150.0 136.0 L 151.0 136.0 L 153.0 136.0 L 154.0 136.0 L 156.0 136.0 L 158.0 136.0 L 160.0 136.0 L 162.0 136.0 L 164.0 136.0 L 167.0 136.0 L 169.0 136.0 L 173.0 136.0 L 176.0 136.0 L 180.0 135.0 L 183.0 135.0 L 186.0 135.0 L 189.0 135.0 L 191.0 135.0 L 194.0 135.0 L 195.0 135.0 L 197.0 135.0 L 198.0 135.0 L 200.0 135.0 L 201.0 135.0 L 203.0 135.0 L 205.0 135.0 L 207.0 135.0 L 209.0 135.0 L 210.0 135.0 L 212.0 135.0 L 213.0 135.0 L 215.0 135.0 L 216.0 135.0 L 218.0 135.0 L 219.0 135.0 L 220.0 135.0 L 221.0 135.0 L 222.0 135.0 L 223.0 135.0 L 224.0 135.0 L 224.0 135.0 L 224.0 135.0 L 224.0 136.0 L 224.0 137.0 L 224.0 138.0 L 224.0 140.0 L 224.0 142.0 L 224.0 144.0 L 223.0 147.0 L 223.0 151.0 L 222.0 154.0 L 221.0 159.0 L 220.0 163.0 L 219.0 168.0 L 219.0 173.0 L 218.0 178.0 L 218.0 183.0 L 218.0 188.0 L 218.0 192.0 L 218.0 195.0 L 218.0 197.0 L 218.0 198.0 L 218.0 199.0 L 219.0 200.0 L 219.0 202.0 L 219.0 203.0 L 219.0 206.0 L 219.0 208.0 L 219.0 211.0 L 219.0 214.0 L 218.0 217.0 L 218.0 220.0 L 217.0 223.0 L 217.0 226.0 L 216.0 229.0 L 216.0 232.0 L 215.0 234.0 L 215.0 236.0 L 215.0 238.0 L 214.0 240.0 L 214.0 242.0 L 214.0 243.0 L 214.0 245.0 L 214.0 247.0 L 213.0 248.0 L 213.0 250.0 L 213.0 251.0 L 212.0 253.0 L 212.0 254.0 L 212.0 255.0 L 211.0 256.0 L 211.0 257.0 L 210.0 258.0 L 209.0 259.0 L 209.0 260.0 L 208.0 261.0 L 207.0 261.0 L 206.0 262.0 L 204.0 262.0 L 202.0 262.0 L 200.0 262.0 L 197.0 261.0 L 194.0 258.0 L 191.0 255.0 L 188.0 251.0 L 186.0 248.0 " stroke="black" fill="none" stroke-width="5.0" stroke-linecap="round" stroke-linejoin="round" />
<path d="M 121.0 134.0 L 121.0 134.0 L 121.0 134.0 L 121.0 135.0 L 121.0 137.0 L 121.0 140.0 L 123.0 146.0 L 124.0 153.0 L 125.0 161.0 L 126.0 171.0 L 126.0 184.0 L 126.0 197.0 L 125.0 209.0 L 124.0 219.0 L 124.0 228.0 L 124.0 234.0 L 124.0 239.0 L 125.0 240.0 L 126.0 240.0 L 126.0 240.0 " stroke="black" fill="none" stroke-width="5.0" stroke-linecap="round" stroke-linejoin="round" />
<path d="M 163.0 147.0 L 163.0 147.0 L 163.0 147.0 L 163.0 147.0 L 164.0 148.0 L 164.0 149.0 L 164.0 152.0 L 165.0 157.0 L 165.0 163.0 L 165.0 172.0 L 165.0 184.0 L 163.0 196.0 L 162.0 207.0 L 160.0 218.0 L 158.0 227.0 L 157.0 235.0 L 156.0 241.0 L 155.0 245.0 L 155.0 246.0 L 155.0 247.0 " stroke="black" fill="none" stroke-width="5.0" stroke-linecap="round" stroke-linejoin="round" />
</svg>