<svg xmlns="http://www.w3.org/2000/svg" width="300" height="300" viewBox="0 0 300 300">
<path d="M 74.0 87.0 L 74.0 87.0 L 72.0 87.0 L 71.0 87.0 L 70.0 87.0 L 69.0 88.0 L 69.0 88.0 L 69.0 89.0 L 69.0 89.0 L 69.0 89.0 L 71.0 90.0 L 73.0 90.0 L 76.0 90.0 L 79.0 90.0 L 83.0 90.0 L 88.0 89.0 L 92.0 89.0 L 97.0 89.0 L 102.0 89.0 L 106.0 88.0 L 110.0 88.0 L 113.0 88.0 L 116.0 88.0 L 119.0 88.0 L 121.0 88.0 L 122.0 88.0 L 123.0 89.0 L 123.0 89.0 L 123.0 90.0 L 122.0 91.0 L 121.0 92.0 L 119.0 94.0 L 118.0 95.0 L 117.0 97.0 L 115.0 99.0 L 114.0 102.0 L 112.0 105.0 L 110.0 107.0 L 108.0 111.0 L 107.0 114.0 L 105.0 117.0 L 103.0 120.0 L 101.0 123.0 L 99.0 127.0 L 96.0 130.0 L 94.0 132.0 L 91.0 135.0 L 89.0 137.0 L 87.0 139.0 L 84.0 141.0 L 82.0 143.0 L 80.0 144.0 L 79.0 146.0 L 78.0 147.0 L 77.0 147.0 L 77.0 148.0 L 77.0 148.0 L 77.0 148.0 L 77.0 148.0 L 78.0 148.0 L 78.0 148.0 L 79.0 148.0 L 81.0 148.0 L 82.0 148.0 L 84.0 148.0 L 87.0 148.0 L 89.0 148.0 L 93.0 148.0 L 96.0 148.0 L 100.0 147.0 L 104.0 147.0 L 108.0 146.0 L 111.0 145.0 L 114.0 145.0 L 118.0 145.0 L 120.0 145.0 L 121.0 145.0 L 122.0 145.0 L 123.0 145.0 L 123.0 146.0 L 123.0 146.0 L 123.0 147.0 L 123.0 148.0 L 124.0 149.0 L 124.0 149.0 L 124.0 150.0 L 124.0 151.0 L 124.0 152.0 L 123.0 153.0 L 123.0 155.0 L 122.0 156.0 L 121.0 158.0 L 120.0 161.0 L 119.0 163.0 L 118.0 166.0 L 116.0 169.0 L 115.0 172.0 L 113.0 176.0 L 112.0 180.0 L 110.0 186.0 L 108.0 191.0 L 105.0 198.0 L 102.0 204.0 L 98.0 211.0 L 93.0 218.0 L 87.0 225.0 L 80.0 231.0 L 73.0 237.0 L 69.0 241.0 L 65.0 244.0 L 62.0 246.0 " stroke="black" fill="none" stroke-width="5.0" stroke-linecap="round" stroke-linejoin="round" />
<path d="M 73.0 179.0 L 73.0 179.0 L 73.0 179.0 L 73.0 180.0 L 73.0 180.0 L 73.0 180.0 L 73.0 181.0 L 73.0 182.0 L 73.0 182.0 L 73.0 183.0 L 73.0 185.0 L 73.0 186.0 L 73.0 188.0 L 74.0 190.0 L 74.0 192.0 L 75.0 194.0 L 76.0 196.0 L 77.0 198.0 L 78.0 200.0 L 79.0 201.0 L 80.0 203.0 L 81.0 204.0 L 82.0 205.0 L 83.0 207.0 L 84.0 208.0 L 85.0 209.0 L 86.0 210.0 L 88.0 211.0 L 89.0 212.0 L 90.0 212.0 L 91.0 213.0 L 92.0 214.0 L 93.0 215.0 L 94.0 217.0 L 95.0 218.0 L 96.0 219.0 L 97.0 220.0 L 98.0 221.0 L 99.0 222.0 L 100.0 223.0 L 101.0 224.0 L 102.0 224.0 L 103.0 225.0 L 104.0 226.0 L 105.0 227.0 L 106.0 228.0 L 107.0 229.0 L 108.0 230.0 L 109.0 230.0 L 110.0 231.0 L 111.0 232.0 L 113.0 232.0 L 114.0 233.0 L 116.0 233.0 L 118.0 234.0 L 119.0 234.0 L 121.0 234.0 L 123.0 235.0 L 124.0 235.0 L 126.0 236.0 L 128.0 236.0 L 130.0 236.0 L 132.0 236.0 L 134.0 237.0 L 137.0 237.0 L 139.0 237.0 L 142.0 238.0 L 145.0 238.0 L 147.0 238.0 L 150.0 239.0 L 152.0 239.0 L 153.0 239.0 L 155.0 239.0 L 157.0 239.0 L 158.0 239.0 L 160.0 239.0 L 162.0 239.0 L 164.0 239.0 L 167.0 239.0 L 169.0 239.0 L 171.0 239.0 L 174.0 239.0 L 177.0 240.0 L 179.0 240.0 L 181.0 240.0 L 183.0 240.0 L 185.0 240.0 L 188.0 240.0 L 190.0 240.0 L 191.0 240.0 L 193.0 240.0 L 195.0 240.0 L 196.0 240.0 L 198.0 240.0 L 200.0 240.0 L 202.0 240.0 L 204.0 240.0 L 206.0 240.0 L 208.0 240.0 L 211.0 240.0 L 213.0 240.0 L 216.0 240.0 L 218.0 240.0 L 221.0 240.0 L 223.0 239.0 L 224.0 238.0 L 226.0 238.0 L 227.0 237.0 L 228.0 237.0 L 229.0 237.0 L 229.0 237.0 L 229.0 237.0 L 230.0 237.0 L 230.0 237.0 " stroke="black" fill="none" stroke-width="5.0" stroke-linecap="round" stroke-linejoin="round" />
</svg>