<svg xmlns="http://www.w3.org/2000/svg" width="300" height="300" viewBox="0 0 300 300">
<path d="M 82.0 86.0 L 81.0 86.0 L 80.0 86.0 L 80.0 86.0 L 79.0 86.0 L 79.0 86.0 L 79.0 86.0 L 80.0 86.0 L 82.0 86.0 L 85.0 86.0 L 90.0 86.0 L 96.0 86.0 L 101.0 87.0 L 109.0 87.0 L 118.0 87.0 L 128.0 88.0 L 140.0 88.0 L 151.0 88.0 L 161.0 88.0 L 171.0 88.0 L 181.0 89.0 L 189.0 89.0 L 196.0 89.0 L 200.0 89.0 L 203.0 90.0 L 205.0 91.0 L 207.0 92.0 L 208.0 94.0 L 208.0 94.0 " stroke="black" fill="none" stroke-width="5.0" stroke-linecap="round" stroke-linejoin="round" />
<path d="M 152.0 95.0 L 152.0 94.0 L 152.0 93.0 L 152.0 93.0 L 153.0 92.0 L 153.0 92.0 L 153.0 92.0 L 153.0 92.0 L 153.0 93.0 L 153.0 94.0 L 152.0 97.0 L 151.0 100.0 L 149.0 103.0 L 146.0 106.0 L 143.0 110.0 L 137.0 114.0 L 130.0 118.0 L 121.0 122.0 L 112.0 126.0 L 104.0 130.0 L 97.0 133.0 L 89.0 137.0 L 82.0 139.0 L 76.0 141.0 L 72.0 141.0 L 71.0 141.0 " stroke="black" fill="none" stroke-width="5.0" stroke-linecap="round" stroke-linejoin="round" />
<path d="M 131.0 123.0 L 131.0 123.0 L 130.0 123.0 L 130.0 123.0 L 129.0 123.0 L 129.0 122.0 L 129.0 122.0 L 129.0 122.0 L 129.0 122.0 L 129.0 122.0 L 130.0 122.0 L 132.0 123.0 L 133.0 124.0 L 135.0 125.0 L 137.0 127.0 L 140.0 129.0 L 142.0 131.0 L 144.0 134.0 L 147.0 137.0 L 149.0 141.0 L 151.0 145.0 L 152.0 149.0 L 154.0 153.0 L 155.0 156.0 L 156.0 160.0 L 157.0 164.0 L 158.0 168.0 L 160.0 171.0 L 161.0 175.0 L 162.0 179.0 L 163.0 183.0 L 164.0 188.0 L 165.0 192.0 L 166.0 196.0 L 166.0 200.0 L 166.0 203.0 L 166.0 206.0 L 165.0 210.0 L 163.0 214.0 L 162.0 218.0 L 159.0 224.0 L 157.0 230.0 L 155.0 235.0 L 153.0 241.0 L 151.0 245.0 L 149.0 248.0 L 147.0 251.0 L 146.0 254.0 L 144.0 256.0 L 141.0 258.0 L 138.0 259.0 L 135.0 260.0 L 133.0 260.0 L 130.0 260.0 L 127.0 259.0 L 124.0 256.0 L 122.0 254.0 L 119.0 250.0 " stroke="black" fill="none" stroke-width="5.0" stroke-linecap="round" stroke-linejoin="round" />
<path d="M 146.0 148.0 L 146.0 148.0 L 146.0 147.0 L 146.0 147.0 L 146.0 146.0 L 145.0 146.0 L 145.0 146.0 L 143.0 148.0 L 140.0 150.0 L 136.0 154.0 L 130.0 159.0 L 123.0 164.0 L 115.0 170.0 L 108.0 176.0 L 102.0 181.0 L 97.0 186.0 L 91.0 189.0 L 87.0 190.0 L 84.0 190.0 L 82.0 190.0 L 82.0 190.0 " stroke="black" fill="none" stroke-width="5.0" stroke-linecap="round" stroke-linejoin="round" />
<path d="M 155.0 169.0 L 155.0 169.0 L 155.0 169.0 L 155.0 169.0 L 155.0 169.0 L 155.0 169.0 L 154.0 170.0 L 154.0 171.0 L 153.0 173.0 L 152.0 176.0 L 149.0 181.0 L 144.0 187.0 L 136.0 194.0 L 126.0 201.0 L 115.0 208.0 L 106.0 214.0 L 99.0 219.0 L 92.0 222.0 L 86.0 225.0 L 82.0 225.0 " stroke="black" fill="none" stroke-width="5.0" stroke-linecap="round" stroke-linejoin="round" />
<path d="M 218.0 125.0 L 218.0 125.0 L 218.0 125.0 L 217.0 125.0 L 217.0 125.0 L 216.0 125.0 L 216.0 125.0 L 215.0 126.0 L 213.0 127.0 L 211.0 129.0 L 208.0 131.0 L 205.0 135.0 L 200.0 139.0 L 196.0 144.0 L 191.0 148.0 L 185.0 152.0 L 180.0 155.0 L 174.0 157.0 L 168.0 159.0 L 164.0 160.0 L 160.0 161.0 L 159.0 161.0 L 158.0 161.0 L 157.0 161.0 L 157.0 161.0 L 157.0 161.0 L 157.0 161.0 L 157.0 161.0 L 158.0 161.0 L 159.0 161.0 L 159.0 162.0 L 160.0 163.0 L 162.0 164.0 L 163.0 165.0 L 165.0 166.0 L 168.0 168.0 L 171.0 170.0 L 175.0 173.0 L 180.0 176.0 L 185.0 180.0 L 191.0 184.0 L 196.0 188.0 L 200.0 192.0 L 205.0 196.0 L 211.0 201.0 L 215.0 205.0 L 220.0 208.0 L 225.0 212.0 L 229.0 215.0 L 232.0 217.0 L 233.0 219.0 L 234.0 220.0 L 235.0 221.0 L 235.0 221.0 L 237.0 223.0 " stroke="black" fill="none" stroke-width="5.0" stroke-linecap="round" stroke-linejoin="round" />
</svg>