<svg xmlns="http://www.w3.org/2000/svg" width="300" height="300" viewBox="0 0 300 300">
<path d="M 99.0 94.0 L 98.0 94.0 L 98.0 94.0 L 97.0 93.0 L 96.0 93.0 L 96.0 93.0 L 96.0 92.0 L 96.0 92.0 L 96.0 92.0 L 96.0 92.0 L 96.0 92.0 L 96.0 92.0 L 97.0 92.0 L 98.0 91.0 L 98.0 91.0 L 99.0 91.0 L 100.0 91.0 L 102.0 91.0 L 103.0 91.0 L 104.0 91.0 L 106.0 91.0 L 108.0 91.0 L 110.0 91.0 L 112.0 91.0 L 114.0 91.0 L 117.0 90.0 L 120.0 90.0 L 123.0 90.0 L 126.0 90.0 L 129.0 90.0 L 133.0 90.0 L 136.0 90.0 L 139.0 90.0 L 142.0 90.0 L 145.0 90.0 L 148.0 90.0 L 150.0 90.0 L 153.0 90.0 L 155.0 90.0 L 158.0 90.0 L 160.0 90.0 L 163.0 90.0 L 167.0 90.0 L 170.0 90.0 L 173.0 90.0 L 177.0 90.0 L 181.0 90.0 L 184.0 90.0 L 187.0 91.0 L 190.0 91.0 L 192.0 92.0 L 194.0 92.0 L 196.0 93.0 L 197.0 93.0 L 198.0 93.0 L 199.0 94.0 L 201.0 94.0 L 202.0 94.0 L 203.0 94.0 L 204.0 94.0 L 205.0 95.0 L 205.0 95.0 L 206.0 95.0 L 206.0 95.0 L 207.0 95.0 L 207.0 95.0 L 207.0 96.0 L 207.0 96.0 L 207.0 97.0 L 207.0 99.0 L 206.0 101.0 L 205.0 104.0 L 204.0 107.0 L 203.0 110.0 L 202.0 112.0 L 200.0 115.0 L 199.0 116.0 " stroke="black" fill="none" stroke-width="5.0" stroke-linecap="round" stroke-linejoin="round" />
<path d="M 136.0 76.0 L 135.0 76.0 L 135.0 76.0 L 135.0 76.0 L 134.0 76.0 L 134.0 76.0 L 134.0 76.0 L 134.0 76.0 L 134.0 78.0 L 134.0 80.0 L 133.0 84.0 L 132.0 89.0 L 130.0 94.0 L 127.0 101.0 L 125.0 107.0 L 123.0 112.0 L 122.0 115.0 L 121.0 117.0 " stroke="black" fill="none" stroke-width="5.0" stroke-linecap="round" stroke-linejoin="round" />
<path d="M 73.0 122.0 L 73.0 122.0 L 72.0 122.0 L 71.0 122.0 L 71.0 122.0 L 70.0 122.0 L 70.0 122.0 L 70.0 122.0 L 71.0 122.0 L 73.0 121.0 L 76.0 121.0 L 80.0 121.0 L 85.0 121.0 L 91.0 121.0 L 97.0 121.0 L 105.0 121.0 L 112.0 121.0 L 121.0 121.0 L 133.0 121.0 L 143.0 121.0 L 153.0 121.0 L 162.0 120.0 L 173.0 120.0 L 185.0 119.0 L 194.0 119.0 L 200.0 119.0 L 205.0 120.0 L 210.0 121.0 L 215.0 122.0 L 220.0 123.0 L 225.0 124.0 L 228.0 125.0 L 231.0 125.0 L 234.0 125.0 L 234.0 125.0 " stroke="black" fill="none" stroke-width="5.0" stroke-linecap="round" stroke-linejoin="round" />
<path d="M 99.0 149.0 L 99.0 149.0 L 98.0 149.0 L 98.0 150.0 L 98.0 151.0 L 98.0 153.0 L 98.0 155.0 L 98.0 157.0 L 98.0 160.0 L 98.0 162.0 L 98.0 164.0 L 99.0 166.0 L 99.0 167.0 L 99.0 168.0 " stroke="black" fill="none" stroke-width="5.0" stroke-linecap="round" stroke-linejoin="round" />
<path d="M 95.0 145.0 L 95.0 145.0 L 95.0 145.0 L 95.0 145.0 L 95.0 145.0 L 95.0 145.0 L 95.0 144.0 L 95.0 144.0 L 95.0 144.0 L 95.0 144.0 L 96.0 144.0 L 97.0 143.0 L 98.0 143.0 L 100.0 143.0 L 101.0 143.0 L 103.0 143.0 L 105.0 143.0 L 107.0 143.0 L 108.0 143.0 L 110.0 143.0 L 112.0 143.0 L 114.0 143.0 L 116.0 143.0 L 118.0 143.0 L 120.0 143.0 L 121.0 143.0 L 123.0 143.0 L 125.0 143.0 L 126.0 143.0 L 128.0 143.0 L 130.0 143.0 L 132.0 143.0 L 134.0 143.0 L 135.0 143.0 L 137.0 142.0 L 140.0 142.0 L 141.0 142.0 L 143.0 142.0 L 145.0 142.0 L 147.0 141.0 L 149.0 141.0 L 151.0 141.0 L 152.0 141.0 L 153.0 140.0 L 155.0 140.0 L 156.0 140.0 L 158.0 140.0 L 160.0 140.0 L 161.0 140.0 L 164.0 140.0 L 166.0 140.0 L 169.0 140.0 L 172.0 140.0 L 176.0 140.0 L 179.0 140.0 L 183.0 140.0 L 187.0 140.0 L 190.0 140.0 L 192.0 140.0 L 195.0 140.0 L 197.0 141.0 L 199.0 141.0 L 201.0 141.0 L 203.0 142.0 L 204.0 142.0 L 206.0 143.0 L 207.0 143.0 L 208.0 143.0 L 208.0 144.0 L 208.0 144.0 L 208.0 145.0 L 208.0 146.0 L 207.0 148.0 L 206.0 149.0 L 205.0 151.0 L 204.0 153.0 L 202.0 155.0 L 201.0 157.0 L 200.0 159.0 L 200.0 160.0 L 198.0 162.0 L 198.0 164.0 " stroke="black" fill="none" stroke-width="5.0" stroke-linecap="round" stroke-linejoin="round" />
<path d="M 96.0 172.0 L 97.0 172.0 L 100.0 172.0 L 102.0 172.0 L 105.0 172.0 L 110.0 172.0 L 115.0 172.0 L 123.0 172.0 L 134.0 172.0 L 145.0 172.0 L 154.0 172.0 L 163.0 172.0 L 169.0 172.0 L 175.0 172.0 L 180.0 172.0 " stroke="black" fill="none" stroke-width="5.0" stroke-linecap="round" stroke-linejoin="round" />
<path d="M 76.0 197.0 L 76.0 197.0 L 75.0 197.0 L 75.0 197.0 L 74.0 197.0 L 74.0 197.0 L 74.0 197.0 L 74.0 197.0 L 75.0 197.0 L 78.0 197.0 L 81.0 197.0 L 85.0 197.0 L 91.0 197.0 L 98.0 197.0 L 105.0 197.0 L 114.0 197.0 L 124.0 196.0 L 135.0 196.0 L 146.0 195.0 L 155.0 195.0 L 162.0 195.0 L 169.0 194.0 L 177.0 194.0 L 183.0 193.0 L 188.0 193.0 L 191.0 193.0 L 193.0 194.0 L 193.0 194.0 L 194.0 195.0 L 194.0 196.0 L 193.0 196.0 " stroke="black" fill="none" stroke-width="5.0" stroke-linecap="round" stroke-linejoin="round" />
<path d="M 100.0 198.0 L 100.0 198.0 L 100.0 198.0 L 100.0 198.0 L 99.0 198.0 L 99.0 198.0 L 98.0 198.0 L 98.0 198.0 L 98.0 198.0 L 98.0 198.0 L 97.0 199.0 L 97.0 200.0 L 96.0 201.0 L 96.0 203.0 L 95.0 205.0 L 94.0 207.0 L 92.0 209.0 L 91.0 211.0 L 89.0 214.0 L 87.0 216.0 L 86.0 217.0 L 85.0 218.0 L 85.0 219.0 L 84.0 220.0 L 84.0 220.0 L 84.0 220.0 L 84.0 221.0 L 84.0 221.0 L 84.0 221.0 L 85.0 221.0 L 86.0 221.0 L 87.0 221.0 L 88.0 221.0 L 90.0 221.0 L 92.0 222.0 L 94.0 222.0 L 97.0 222.0 L 100.0 222.0 L 104.0 222.0 L 108.0 222.0 L 114.0 222.0 L 120.0 222.0 L 129.0 222.0 L 138.0 222.0 L 146.0 222.0 L 153.0 221.0 L 159.0 221.0 L 166.0 221.0 L 173.0 221.0 L 179.0 221.0 L 185.0 221.0 L 191.0 222.0 L 194.0 222.0 L 197.0 223.0 L 200.0 223.0 L 202.0 223.0 L 204.0 223.0 L 205.0 223.0 L 206.0 223.0 L 207.0 223.0 L 207.0 223.0 L 207.0 223.0 " stroke="black" fill="none" stroke-width="5.0" stroke-linecap="round" stroke-linejoin="round" />
<path d="M 165.0 185.0 L 164.0 185.0 L 163.0 185.0 L 162.0 185.0 L 162.0 185.0 L 161.0 185.0 L 161.0 185.0 L 161.0 186.0 L 161.0 188.0 L 161.0 190.0 L 161.0 194.0 L 162.0 198.0 L 163.0 203.0 L 163.0 209.0 L 164.0 216.0 L 164.0 224.0 L 164.0 233.0 L 164.0 240.0 L 164.0 246.0 L 164.0 251.0 L 164.0 254.0 L 164.0 256.0 L 164.0 257.0 L 165.0 257.0 L 165.0 257.0 " stroke="black" fill="none" stroke-width="5.0" stroke-linecap="round" stroke-linejoin="round" />
</svg>