<svg xmlns="http://www.w3.org/2000/svg" width="300" height="300" viewBox="0 0 300 300">
<path d="M 85.0 74.0 L 85.0 74.0 L 86.0 74.0 L 86.0 74.0 L 86.0 74.0 L 86.0 74.0 L 87.0 74.0 L 87.0 75.0 L 87.0 76.0 L 87.0 77.0 L 88.0 79.0 L 88.0 81.0 L 88.0 84.0 L 89.0 87.0 L 89.0 90.0 L 89.0 94.0 L 89.0 98.0 L 90.0 102.0 L 90.0 106.0 L 90.0 110.0 L 90.0 114.0 L 90.0 117.0 L 90.0 120.0 L 89.0 123.0 L 89.0 126.0 L 89.0 129.0 L 88.0 132.0 L 88.0 134.0 L 88.0 137.0 L 87.0 140.0 L 87.0 143.0 L 87.0 146.0 L 87.0 150.0 L 87.0 152.0 L 87.0 155.0 L 87.0 158.0 L 87.0 161.0 L 87.0 163.0 L 88.0 166.0 L 88.0 168.0 L 88.0 171.0 L 89.0 174.0 L 89.0 176.0 L 89.0 179.0 L 90.0 182.0 L 90.0 185.0 L 90.0 187.0 L 90.0 190.0 L 90.0 193.0 L 90.0 195.0 L 90.0 198.0 L 90.0 200.0 L 90.0 202.0 L 90.0 205.0 L 90.0 207.0 L 90.0 209.0 L 90.0 211.0 L 90.0 213.0 L 89.0 214.0 L 89.0 216.0 L 89.0 218.0 L 89.0 219.0 L 89.0 221.0 L 89.0 223.0 L 89.0 224.0 L 89.0 226.0 L 89.0 228.0 L 89.0 229.0 L 89.0 230.0 L 89.0 231.0 L 89.0 232.0 L 89.0 233.0 L 89.0 233.0 L 89.0 234.0 L 89.0 235.0 L 89.0 235.0 L 89.0 236.0 L 89.0 237.0 L 89.0 237.0 L 89.0 238.0 L 89.0 238.0 L 89.0 238.0 L 89.0 239.0 L 89.0 239.0 L 89.0 239.0 L 89.0 239.0 L 89.0 239.0 L 89.0 239.0 L 89.0 239.0 L 89.0 239.0 L 89.0 239.0 L 89.0 240.0 L 89.0 240.0 L 89.0 240.0 L 89.0 240.0 L 89.0 240.0 L 89.0 240.0 L 89.0 240.0 L 89.0 240.0 L 89.0 240.0 L 89.0 240.0 L 89.0 240.0 L 89.0 240.0 L 89.0 240.0 L 90.0 240.0 L 90.0 240.0 L 91.0 240.0 L 91.0 240.0 L 93.0 239.0 L 94.0 238.0 L 96.0 236.0 L 99.0 235.0 L 102.0 233.0 L 105.0 230.0 L 109.0 227.0 L 113.0 223.0 L 119.0 219.0 L 124.0 215.0 L 130.0 212.0 L 135.0 209.0 L 138.0 208.0 " stroke="black" fill="none" stroke-width="5.0" stroke-linecap="round" stroke-linejoin="round" />
<path d="M 96.0 141.0 L 96.0 141.0 L 96.0 141.0 L 96.0 141.0 L 95.0 141.0 L 95.0 141.0 L 96.0 141.0 L 98.0 141.0 L 100.0 141.0 L 104.0 140.0 L 108.0 140.0 L 113.0 139.0 L 120.0 138.0 L 128.0 137.0 L 136.0 135.0 L 141.0 134.0 " stroke="black" fill="none" stroke-width="5.0" stroke-linecap="round" stroke-linejoin="round" />
<path d="M 168.0 71.0 L 168.0 71.0 L 168.0 71.0 L 168.0 72.0 L 168.0 72.0 L 168.0 73.0 L 168.0 74.0 L 169.0 75.0 L 169.0 76.0 L 169.0 78.0 L 169.0 81.0 L 169.0 84.0 L 169.0 88.0 L 169.0 92.0 L 169.0 97.0 L 169.0 102.0 L 169.0 107.0 L 168.0 112.0 L 168.0 116.0 L 167.0 120.0 L 167.0 123.0 L 166.0 127.0 L 166.0 130.0 L 166.0 133.0 L 166.0 136.0 L 166.0 139.0 L 166.0 142.0 L 166.0 146.0 L 166.0 149.0 L 165.0 152.0 L 165.0 155.0 L 165.0 157.0 L 165.0 160.0 L 165.0 163.0 L 165.0 166.0 L 165.0 169.0 L 165.0 172.0 L 165.0 175.0 L 165.0 178.0 L 165.0 181.0 L 165.0 184.0 L 165.0 187.0 L 165.0 190.0 L 165.0 193.0 L 165.0 195.0 L 165.0 198.0 L 165.0 200.0 L 165.0 202.0 L 165.0 204.0 L 165.0 206.0 L 165.0 208.0 L 165.0 210.0 L 165.0 211.0 L 165.0 213.0 L 165.0 215.0 L 165.0 216.0 L 165.0 218.0 L 165.0 220.0 L 165.0 222.0 L 165.0 223.0 L 165.0 225.0 L 165.0 227.0 L 165.0 229.0 L 165.0 230.0 L 165.0 231.0 L 165.0 232.0 L 165.0 233.0 L 165.0 234.0 L 165.0 234.0 L 165.0 235.0 L 165.0 235.0 L 166.0 235.0 L 166.0 236.0 L 166.0 236.0 L 166.0 236.0 L 167.0 237.0 L 167.0 237.0 L 168.0 237.0 L 168.0 238.0 L 169.0 238.0 L 170.0 238.0 L 171.0 239.0 L 171.0 239.0 L 172.0 239.0 L 173.0 239.0 L 175.0 240.0 L 175.0 240.0 L 177.0 240.0 L 178.0 240.0 L 178.0 240.0 L 180.0 240.0 L 180.0 240.0 L 181.0 240.0 L 183.0 240.0 L 184.0 240.0 L 185.0 240.0 L 186.0 240.0 L 188.0 240.0 L 189.0 240.0 L 191.0 240.0 L 193.0 240.0 L 194.0 240.0 L 197.0 240.0 L 200.0 240.0 L 203.0 240.0 L 206.0 240.0 L 209.0 240.0 L 212.0 239.0 L 216.0 239.0 L 219.0 239.0 L 221.0 238.0 L 225.0 238.0 L 227.0 238.0 L 230.0 238.0 L 232.0 238.0 L 235.0 238.0 L 236.0 238.0 L 238.0 238.0 L 240.0 239.0 L 241.0 239.0 L 242.0 239.0 L 243.0 239.0 L 244.0 239.0 L 244.0 238.0 L 245.0 238.0 L 245.0 237.0 L 245.0 237.0 L 245.0 236.0 L 245.0 236.0 L 245.0 235.0 L 245.0 234.0 L 245.0 232.0 L 245.0 229.0 L 245.0 225.0 L 244.0 220.0 L 243.0 213.0 L 243.0 207.0 " stroke="black" fill="none" stroke-width="5.0" stroke-linecap="round" stroke-linejoin="round" />
<path d="M 170.0 135.0 L 170.0 135.0 L 170.0 135.0 L 170.0 135.0 L 170.0 135.0 L 171.0 135.0 L 171.0 135.0 L 173.0 135.0 L 176.0 135.0 L 180.0 135.0 L 185.0 136.0 L 190.0 136.0 L 195.0 136.0 L 201.0 136.0 L 207.0 136.0 L 212.0 135.0 L 217.0 134.0 L 222.0 134.0 L 226.0 134.0 " stroke="black" fill="none" stroke-width="5.0" stroke-linecap="round" stroke-linejoin="round" />
</svg>