<svg xmlns="http://www.w3.org/2000/svg" width="300" height="300" viewBox="0 0 300 300">
<path d="M 85.0 98.0 L 83.0 98.0 L 81.0 99.0 L 79.0 99.0 L 78.0 100.0 L 77.0 101.0 L 77.0 101.0 L 77.0 101.0 L 78.0 101.0 L 80.0 101.0 L 83.0 101.0 L 86.0 101.0 L 90.0 101.0 L 95.0 101.0 L 99.0 100.0 L 103.0 100.0 L 107.0 100.0 L 112.0 100.0 L 118.0 99.0 L 126.0 99.0 L 134.0 99.0 L 143.0 99.0 L 150.0 100.0 L 157.0 100.0 L 165.0 101.0 L 172.0 101.0 L 180.0 102.0 L 188.0 102.0 L 193.0 103.0 L 197.0 104.0 L 200.0 104.0 L 203.0 105.0 L 206.0 106.0 L 209.0 106.0 L 212.0 107.0 L 215.0 107.0 L 218.0 107.0 L 220.0 107.0 L 221.0 107.0 " stroke="black" fill="none" stroke-width="5.0" stroke-linecap="round" stroke-linejoin="round" />
<path d="M 151.0 101.0 L 151.0 101.0 L 151.0 102.0 L 151.0 103.0 L 150.0 104.0 L 150.0 107.0 L 150.0 110.0 L 150.0 114.0 L 150.0 120.0 L 150.0 126.0 L 149.0 135.0 L 149.0 144.0 L 148.0 154.0 L 148.0 165.0 L 148.0 175.0 L 147.0 184.0 L 147.0 192.0 L 147.0 198.0 L 147.0 202.0 L 147.0 205.0 L 147.0 207.0 L 147.0 208.0 L 147.0 209.0 L 147.0 209.0 " stroke="black" fill="none" stroke-width="5.0" stroke-linecap="round" stroke-linejoin="round" />
<path d="M 62.0 222.0 L 62.0 222.0 L 62.0 222.0 L 62.0 222.0 L 63.0 222.0 L 65.0 222.0 L 68.0 222.0 L 72.0 222.0 L 77.0 223.0 L 84.0 223.0 L 92.0 223.0 L 100.0 223.0 L 108.0 223.0 L 115.0 223.0 L 124.0 223.0 L 134.0 223.0 L 144.0 223.0 L 153.0 223.0 L 161.0 224.0 L 170.0 224.0 L 180.0 225.0 L 189.0 225.0 L 196.0 226.0 L 203.0 226.0 L 210.0 226.0 L 217.0 226.0 L 225.0 226.0 L 230.0 226.0 L 234.0 226.0 L 236.0 227.0 L 237.0 228.0 L 238.0 228.0 L 238.0 229.0 " stroke="black" fill="none" stroke-width="5.0" stroke-linecap="round" stroke-linejoin="round" />
</svg>