<svg xmlns="http://www.w3.org/2000/svg" width="300" height="300" viewBox="0 0 300 300">
<path d="M 143.0 73.0 L 142.0 73.0 L 141.0 72.0 L 139.0 71.0 L 139.0 71.0 L 138.0 71.0 L 138.0 71.0 L 139.0 72.0 L 141.0 74.0 L 144.0 77.0 L 146.0 79.0 L 149.0 82.0 L 152.0 85.0 L 156.0 88.0 L 159.0 91.0 L 162.0 95.0 L 165.0 99.0 " stroke="black" fill="none" stroke-width="5.0" stroke-linecap="round" stroke-linejoin="round" />
<path d="M 75.0 111.0 L 74.0 111.0 L 73.0 111.0 L 71.0 110.0 L 71.0 110.0 L 70.0 110.0 L 70.0 109.0 L 71.0 109.0 L 74.0 109.0 L 79.0 109.0 L 86.0 109.0 L 93.0 108.0 L 101.0 108.0 L 111.0 107.0 L 123.0 107.0 L 137.0 107.0 L 152.0 107.0 L 164.0 107.0 L 178.0 107.0 L 190.0 107.0 L 198.0 108.0 L 203.0 109.0 L 209.0 111.0 L 214.0 112.0 L 219.0 113.0 L 222.0 114.0 L 223.0 115.0 " stroke="black" fill="none" stroke-width="5.0" stroke-linecap="round" stroke-linejoin="round" />
<path d="M 107.0 142.0 L 107.0 142.0 L 105.0 141.0 L 105.0 141.0 L 104.0 140.0 L 103.0 140.0 L 103.0 139.0 L 103.0 139.0 L 104.0 139.0 L 105.0 139.0 L 108.0 139.0 L 112.0 139.0 L 118.0 138.0 L 127.0 137.0 L 139.0 136.0 L 151.0 134.0 L 164.0 133.0 L 177.0 133.0 L 187.0 133.0 L 194.0 133.0 L 197.0 133.0 L 198.0 134.0 L 199.0 136.0 " stroke="black" fill="none" stroke-width="5.0" stroke-linecap="round" stroke-linejoin="round" />
<path d="M 104.0 163.0 L 103.0 163.0 L 102.0 163.0 L 101.0 163.0 L 101.0 163.0 L 101.0 163.0 L 101.0 163.0 L 105.0 163.0 L 110.0 163.0 L 118.0 163.0 L 129.0 163.0 L 142.0 162.0 L 155.0 161.0 L 170.0 160.0 L 184.0 159.0 L 194.0 159.0 L 200.0 159.0 L 203.0 159.0 " stroke="black" fill="none" stroke-width="5.0" stroke-linecap="round" stroke-linejoin="round" />
<path d="M 90.0 210.0 L 90.0 210.0 L 89.0 210.0 L 89.0 210.0 L 89.0 210.0 L 89.0 212.0 L 90.0 214.0 L 91.0 217.0 L 93.0 222.0 L 95.0 227.0 L 96.0 233.0 L 98.0 237.0 L 99.0 242.0 L 100.0 244.0 L 101.0 246.0 L 102.0 246.0 L 102.0 246.0 " stroke="black" fill="none" stroke-width="5.0" stroke-linecap="round" stroke-linejoin="round" />
<path d="M 94.0 205.0 L 93.0 205.0 L 92.0 204.0 L 91.0 204.0 L 90.0 203.0 L 90.0 202.0 L 90.0 202.0 L 92.0 202.0 L 95.0 201.0 L 99.0 201.0 L 103.0 200.0 L 108.0 199.0 L 114.0 199.0 L 121.0 198.0 L 131.0 198.0 L 141.0 198.0 L 151.0 198.0 L 160.0 198.0 L 168.0 198.0 L 177.0 198.0 L 185.0 198.0 L 191.0 198.0 L 194.0 199.0 L 197.0 200.0 L 198.0 201.0 L 199.0 202.0 L 200.0 203.0 L 200.0 205.0 L 200.0 206.0 L 200.0 207.0 L 200.0 209.0 L 200.0 211.0 L 200.0 213.0 L 199.0 214.0 L 198.0 217.0 L 198.0 219.0 L 197.0 222.0 L 195.0 225.0 L 194.0 229.0 L 192.0 233.0 L 189.0 237.0 L 188.0 239.0 " stroke="black" fill="none" stroke-width="5.0" stroke-linecap="round" stroke-linejoin="round" />
<path d="M 113.0 243.0 L 112.0 243.0 L 110.0 243.0 L 109.0 243.0 L 108.0 243.0 L 107.0 243.0 L 107.0 243.0 L 108.0 243.0 L 110.0 243.0 L 113.0 243.0 L 117.0 243.0 L 124.0 243.0 L 133.0 243.0 L 142.0 244.0 L 152.0 244.0 L 162.0 244.0 L 173.0 243.0 L 184.0 243.0 L 191.0 242.0 L 196.0 242.0 L 199.0 242.0 L 200.0 242.0 " stroke="black" fill="none" stroke-width="5.0" stroke-linecap="round" stroke-linejoin="round" />
</svg>