<svg xmlns="http://www.w3.org/2000/svg" width="300" height="300" viewBox="0 0 300 300">
<path d="M 148.0 74.0 L 148.0 73.0 L 148.0 73.0 L 148.0 72.0 L 148.0 71.0 L 148.0 71.0 L 148.0 71.0 L 148.0 71.0 L 148.0 71.0 L 147.0 72.0 L 146.0 74.0 L 146.0 77.0 L 144.0 80.0 L 142.0 85.0 L 140.0 89.0 L 137.0 94.0 L 134.0 99.0 L 133.0 101.0 " stroke="black" fill="none" stroke-width="5.0" stroke-linecap="round" stroke-linejoin="round" />
<path d="M 88.0 114.0 L 88.0 114.0 L 88.0 114.0 L 88.0 115.0 L 88.0 115.0 L 87.0 115.0 L 87.0 116.0 L 87.0 117.0 L 87.0 118.0 L 87.0 121.0 L 87.0 126.0 L 87.0 132.0 L 87.0 141.0 L 87.0 152.0 L 87.0 165.0 L 87.0 179.0 L 87.0 193.0 L 87.0 207.0 L 87.0 216.0 L 87.0 224.0 L 87.0 230.0 L 87.0 234.0 L 87.0 235.0 L 87.0 236.0 " stroke="black" fill="none" stroke-width="5.0" stroke-linecap="round" stroke-linejoin="round" />
<path d="M 89.0 113.0 L 89.0 113.0 L 89.0 113.0 L 88.0 113.0 L 88.0 113.0 L 88.0 113.0 L 88.0 113.0 L 88.0 112.0 L 88.0 112.0 L 88.0 112.0 L 88.0 112.0 L 89.0 112.0 L 90.0 111.0 L 91.0 111.0 L 92.0 111.0 L 93.0 111.0 L 94.0 111.0 L 96.0 111.0 L 97.0 111.0 L 98.0 111.0 L 100.0 111.0 L 101.0 111.0 L 103.0 111.0 L 104.0 111.0 L 105.0 111.0 L 106.0 111.0 L 107.0 111.0 L 108.0 111.0 L 109.0 111.0 L 110.0 111.0 L 111.0 111.0 L 112.0 111.0 L 113.0 110.0 L 114.0 110.0 L 115.0 110.0 L 117.0 110.0 L 118.0 110.0 L 119.0 110.0 L 121.0 109.0 L 123.0 109.0 L 124.0 109.0 L 126.0 109.0 L 128.0 108.0 L 131.0 108.0 L 133.0 108.0 L 135.0 108.0 L 137.0 108.0 L 139.0 108.0 L 141.0 108.0 L 142.0 108.0 L 144.0 108.0 L 146.0 108.0 L 147.0 108.0 L 148.0 108.0 L 149.0 108.0 L 150.0 108.0 L 151.0 108.0 L 152.0 108.0 L 153.0 108.0 L 153.0 108.0 L 154.0 108.0 L 155.0 108.0 L 156.0 108.0 L 157.0 108.0 L 158.0 108.0 L 159.0 108.0 L 160.0 108.0 L 162.0 108.0 L 163.0 108.0 L 165.0 108.0 L 166.0 108.0 L 168.0 108.0 L 170.0 108.0 L 172.0 108.0 L 174.0 108.0 L 176.0 108.0 L 178.0 108.0 L 180.0 108.0 L 182.0 108.0 L 184.0 108.0 L 187.0 108.0 L 189.0 108.0 L 191.0 108.0 L 192.0 108.0 L 194.0 108.0 L 195.0 108.0 L 197.0 108.0 L 198.0 109.0 L 199.0 109.0 L 200.0 109.0 L 201.0 109.0 L 202.0 110.0 L 204.0 110.0 L 205.0 110.0 L 205.0 111.0 L 207.0 111.0 L 207.0 111.0 L 208.0 111.0 L 209.0 111.0 L 210.0 111.0 L 211.0 112.0 L 212.0 112.0 L 213.0 112.0 L 213.0 112.0 L 214.0 112.0 L 214.0 112.0 L 215.0 112.0 L 215.0 113.0 L 215.0 113.0 L 216.0 113.0 L 216.0 113.0 L 216.0 114.0 L 216.0 115.0 L 216.0 116.0 L 216.0 117.0 L 216.0 119.0 L 216.0 121.0 L 216.0 124.0 L 215.0 128.0 L 215.0 133.0 L 215.0 139.0 L 214.0 146.0 L 213.0 154.0 L 212.0 162.0 L 211.0 170.0 L 211.0 180.0 L 210.0 188.0 L 210.0 194.0 L 210.0 199.0 L 211.0 203.0 L 212.0 206.0 L 213.0 210.0 L 213.0 213.0 L 213.0 216.0 L 213.0 220.0 L 212.0 224.0 L 212.0 226.0 " stroke="black" fill="none" stroke-width="5.0" stroke-linecap="round" stroke-linejoin="round" />
<path d="M 101.0 166.0 L 101.0 166.0 L 101.0 166.0 L 102.0 167.0 L 103.0 167.0 L 105.0 167.0 L 108.0 168.0 L 112.0 168.0 L 118.0 168.0 L 127.0 167.0 L 137.0 166.0 L 146.0 165.0 L 155.0 164.0 L 162.0 163.0 L 170.0 163.0 L 178.0 162.0 L 184.0 162.0 L 189.0 162.0 L 193.0 162.0 L 196.0 163.0 L 198.0 163.0 L 199.0 164.0 L 200.0 164.0 " stroke="black" fill="none" stroke-width="5.0" stroke-linecap="round" stroke-linejoin="round" />
<path d="M 91.0 235.0 L 91.0 235.0 L 90.0 235.0 L 89.0 235.0 L 88.0 235.0 L 87.0 235.0 L 87.0 235.0 L 87.0 235.0 L 89.0 235.0 L 91.0 235.0 L 94.0 235.0 L 98.0 235.0 L 101.0 235.0 L 105.0 235.0 L 110.0 235.0 L 116.0 235.0 L 124.0 235.0 L 133.0 235.0 L 143.0 235.0 L 152.0 234.0 L 160.0 234.0 L 169.0 233.0 L 179.0 232.0 L 187.0 231.0 L 193.0 231.0 L 197.0 231.0 L 200.0 231.0 L 202.0 231.0 L 205.0 231.0 L 207.0 232.0 L 209.0 233.0 L 210.0 233.0 L 212.0 234.0 L 212.0 234.0 " stroke="black" fill="none" stroke-width="5.0" stroke-linecap="round" stroke-linejoin="round" />
</svg>