<svg xmlns="http://www.w3.org/2000/svg" width="300" height="300" viewBox="0 0 300 300">
<path d="M 146.0 72.0 L 145.0 72.0 L 144.0 72.0 L 144.0 72.0 L 143.0 72.0 L 143.0 72.0 L 143.0 73.0 L 143.0 75.0 L 144.0 77.0 L 146.0 79.0 L 147.0 81.0 L 149.0 84.0 L 150.0 87.0 " stroke="black" fill="none" stroke-width="5.0" stroke-linecap="round" stroke-linejoin="round" />
<path d="M 66.0 95.0 L 66.0 95.0 L 66.0 95.0 L 66.0 95.0 L 66.0 95.0 L 66.0 95.0 L 66.0 94.0 L 66.0 94.0 L 66.0 94.0 L 65.0 94.0 L 65.0 94.0 L 65.0 94.0 L 65.0 94.0 L 65.0 94.0 L 65.0 94.0 L 65.0 94.0 L 65.0 94.0 L 65.0 94.0 L 65.0 94.0 L 65.0 94.0 L 65.0 94.0 L 65.0 94.0 L 65.0 94.0 L 65.0 94.0 L 65.0 94.0 L 65.0 94.0 L 65.0 94.0 L 65.0 94.0 L 65.0 94.0 L 65.0 94.0 L 65.0 94.0 L 66.0 94.0 L 66.0 94.0 L 66.0 94.0 L 67.0 95.0 L 67.0 95.0 L 68.0 95.0 L 68.0 95.0 L 69.0 95.0 L 70.0 95.0 L 71.0 95.0 L 71.0 95.0 L 72.0 95.0 L 73.0 95.0 L 75.0 95.0 L 76.0 95.0 L 77.0 95.0 L 78.0 95.0 L 80.0 95.0 L 81.0 95.0 L 82.0 95.0 L 83.0 95.0 L 85.0 95.0 L 86.0 95.0 L 87.0 95.0 L 89.0 95.0 L 90.0 95.0 L 92.0 95.0 L 94.0 95.0 L 96.0 95.0 L 98.0 95.0 L 100.0 95.0 L 102.0 95.0 L 104.0 95.0 L 105.0 95.0 L 106.0 95.0 L 107.0 94.0 L 108.0 94.0 L 109.0 94.0 L 110.0 94.0 L 111.0 94.0 L 112.0 94.0 L 113.0 94.0 L 114.0 94.0 L 115.0 94.0 L 116.0 94.0 L 118.0 94.0 L 119.0 94.0 L 121.0 94.0 L 122.0 94.0 L 124.0 94.0 L 125.0 94.0 L 127.0 94.0 L 129.0 94.0 L 131.0 93.0 L 133.0 93.0 L 135.0 93.0 L 137.0 93.0 L 139.0 93.0 L 140.0 93.0 L 142.0 93.0 L 144.0 92.0 L 145.0 92.0 L 147.0 92.0 L 148.0 91.0 L 150.0 91.0 L 151.0 91.0 L 152.0 91.0 L 153.0 91.0 L 155.0 90.0 L 156.0 90.0 L 157.0 90.0 L 158.0 90.0 L 160.0 90.0 L 161.0 90.0 L 163.0 90.0 L 164.0 90.0 L 166.0 90.0 L 168.0 90.0 L 170.0 90.0 L 172.0 90.0 L 174.0 89.0 L 176.0 89.0 L 178.0 89.0 L 180.0 89.0 L 181.0 89.0 L 183.0 89.0 L 185.0 89.0 L 186.0 89.0 L 188.0 90.0 L 190.0 90.0 L 192.0 90.0 L 194.0 90.0 L 196.0 91.0 L 198.0 91.0 L 200.0 91.0 L 202.0 91.0 L 205.0 91.0 L 207.0 91.0 L 210.0 91.0 L 213.0 91.0 L 216.0 92.0 L 219.0 92.0 L 222.0 92.0 L 225.0 92.0 L 227.0 92.0 L 228.0 92.0 " stroke="black" fill="none" stroke-width="5.0" stroke-linecap="round" stroke-linejoin="round" />
<path d="M 125.0 108.0 L 125.0 108.0 L 124.0 107.0 L 124.0 107.0 L 123.0 107.0 L 123.0 107.0 L 123.0 107.0 L 123.0 107.0 L 125.0 108.0 L 126.0 110.0 L 129.0 111.0 L 132.0 113.0 L 134.0 114.0 L 137.0 115.0 L 140.0 117.0 L 142.0 118.0 L 145.0 119.0 L 147.0 120.0 L 149.0 121.0 " stroke="black" fill="none" stroke-width="5.0" stroke-linecap="round" stroke-linejoin="round" />
<path d="M 172.0 103.0 L 171.0 103.0 L 171.0 103.0 L 170.0 103.0 L 169.0 103.0 L 169.0 103.0 L 168.0 103.0 L 167.0 103.0 L 165.0 105.0 L 164.0 106.0 L 162.0 108.0 L 159.0 111.0 L 157.0 113.0 L 154.0 116.0 L 152.0 118.0 L 150.0 120.0 L 149.0 121.0 L 148.0 122.0 L 147.0 123.0 L 147.0 123.0 L 147.0 123.0 L 147.0 123.0 L 147.0 123.0 L 148.0 123.0 L 148.0 123.0 L 149.0 123.0 L 149.0 123.0 L 149.0 123.0 L 149.0 123.0 L 150.0 123.0 L 150.0 124.0 L 150.0 126.0 L 150.0 128.0 L 150.0 130.0 L 150.0 134.0 L 150.0 137.0 L 150.0 142.0 L 150.0 147.0 L 150.0 152.0 L 149.0 157.0 L 149.0 161.0 L 148.0 163.0 " stroke="black" fill="none" stroke-width="5.0" stroke-linecap="round" stroke-linejoin="round" />
<path d="M 71.0 121.0 L 71.0 121.0 L 71.0 121.0 L 70.0 121.0 L 69.0 121.0 L 69.0 121.0 L 68.0 121.0 L 68.0 121.0 L 68.0 121.0 L 68.0 121.0 L 68.0 121.0 L 68.0 121.0 L 70.0 122.0 L 73.0 122.0 L 75.0 122.0 L 79.0 122.0 L 84.0 122.0 L 88.0 121.0 L 93.0 121.0 L 98.0 121.0 L 102.0 120.0 L 105.0 120.0 L 107.0 120.0 L 108.0 119.0 L 109.0 119.0 L 110.0 119.0 L 110.0 119.0 L 110.0 119.0 L 111.0 120.0 L 111.0 121.0 L 111.0 122.0 L 111.0 123.0 L 111.0 125.0 L 111.0 126.0 L 111.0 129.0 L 111.0 131.0 L 111.0 135.0 L 111.0 139.0 L 111.0 144.0 L 111.0 148.0 L 112.0 153.0 L 112.0 156.0 L 112.0 158.0 L 112.0 160.0 L 112.0 161.0 L 111.0 162.0 L 111.0 163.0 L 110.0 163.0 L 109.0 163.0 L 108.0 163.0 L 107.0 163.0 L 106.0 163.0 L 105.0 163.0 L 104.0 162.0 L 103.0 160.0 L 102.0 159.0 " stroke="black" fill="none" stroke-width="5.0" stroke-linecap="round" stroke-linejoin="round" />
<path d="M 97.0 127.0 L 97.0 127.0 L 96.0 127.0 L 95.0 127.0 L 94.0 127.0 L 94.0 127.0 L 93.0 127.0 L 92.0 127.0 L 91.0 128.0 L 89.0 130.0 L 87.0 133.0 L 84.0 137.0 L 80.0 142.0 L 76.0 147.0 L 72.0 152.0 L 68.0 156.0 L 64.0 159.0 L 62.0 162.0 L 59.0 164.0 L 58.0 166.0 L 57.0 166.0 " stroke="black" fill="none" stroke-width="5.0" stroke-linecap="round" stroke-linejoin="round" />
<path d="M 218.0 111.0 L 217.0 111.0 L 215.0 111.0 L 214.0 111.0 L 213.0 111.0 L 211.0 111.0 L 210.0 111.0 L 209.0 112.0 L 208.0 113.0 L 206.0 113.0 L 205.0 114.0 L 203.0 115.0 L 200.0 116.0 L 198.0 118.0 L 196.0 119.0 L 194.0 121.0 L 191.0 122.0 L 189.0 123.0 L 188.0 124.0 L 186.0 125.0 L 185.0 126.0 L 185.0 127.0 L 184.0 127.0 L 184.0 127.0 L 184.0 127.0 L 184.0 127.0 L 184.0 127.0 L 185.0 127.0 L 185.0 127.0 L 186.0 127.0 L 186.0 128.0 L 186.0 128.0 L 186.0 129.0 L 187.0 129.0 L 187.0 130.0 L 187.0 131.0 L 187.0 132.0 L 187.0 134.0 L 187.0 136.0 L 187.0 138.0 L 187.0 141.0 L 186.0 143.0 L 186.0 146.0 L 186.0 149.0 L 185.0 152.0 L 185.0 154.0 L 185.0 156.0 L 184.0 158.0 L 184.0 159.0 L 184.0 159.0 L 184.0 160.0 L 184.0 160.0 L 184.0 160.0 L 184.0 160.0 L 184.0 160.0 L 184.0 160.0 L 184.0 160.0 L 184.0 160.0 L 185.0 160.0 L 186.0 160.0 L 187.0 159.0 L 189.0 158.0 L 192.0 157.0 L 194.0 155.0 L 198.0 153.0 L 201.0 151.0 L 204.0 148.0 L 206.0 147.0 " stroke="black" fill="none" stroke-width="5.0" stroke-linecap="round" stroke-linejoin="round" />
<path d="M 205.0 124.0 L 205.0 124.0 L 204.0 124.0 L 203.0 124.0 L 203.0 124.0 L 202.0 124.0 L 202.0 125.0 L 202.0 125.0 L 203.0 127.0 L 204.0 128.0 L 206.0 130.0 L 208.0 133.0 L 211.0 136.0 L 214.0 140.0 L 218.0 144.0 L 222.0 148.0 L 226.0 152.0 L 229.0 155.0 L 233.0 158.0 L 235.0 160.0 L 237.0 161.0 L 238.0 162.0 " stroke="black" fill="none" stroke-width="5.0" stroke-linecap="round" stroke-linejoin="round" />
<path d="M 96.0 184.0 L 96.0 184.0 L 96.0 184.0 L 96.0 184.0 L 96.0 184.0 L 96.0 183.0 L 96.0 183.0 L 96.0 183.0 L 96.0 183.0 L 96.0 183.0 L 97.0 184.0 L 97.0 185.0 L 97.0 187.0 L 98.0 189.0 L 98.0 192.0 L 98.0 195.0 L 98.0 199.0 L 97.0 205.0 L 96.0 210.0 L 93.0 216.0 L 90.0 223.0 L 87.0 229.0 L 83.0 235.0 L 80.0 239.0 L 77.0 241.0 L 75.0 243.0 L 73.0 244.0 L 73.0 244.0 " stroke="black" fill="none" stroke-width="5.0" stroke-linecap="round" stroke-linejoin="round" />
<path d="M 206.0 175.0 L 206.0 175.0 L 206.0 175.0 L 206.0 174.0 L 206.0 174.0 L 206.0 174.0 L 206.0 174.0 L 206.0 174.0 L 206.0 174.0 L 206.0 176.0 L 206.0 178.0 L 207.0 182.0 L 208.0 186.0 L 208.0 192.0 L 209.0 199.0 L 209.0 207.0 L 209.0 216.0 L 209.0 225.0 L 209.0 235.0 L 209.0 243.0 L 208.0 250.0 L 207.0 255.0 L 206.0 260.0 L 205.0 263.0 L 204.0 265.0 " stroke="black" fill="none" stroke-width="5.0" stroke-linecap="round" stroke-linejoin="round" />
<path d="M 120.0 188.0 L 119.0 188.0 L 118.0 188.0 L 117.0 188.0 L 116.0 188.0 L 115.0 187.0 L 115.0 187.0 L 115.0 187.0 L 115.0 187.0 L 116.0 187.0 L 118.0 187.0 L 121.0 187.0 L 125.0 188.0 L 130.0 188.0 L 136.0 189.0 L 143.0 189.0 L 150.0 189.0 L 158.0 189.0 L 167.0 189.0 L 177.0 189.0 L 185.0 189.0 L 191.0 189.0 L 195.0 189.0 L 198.0 189.0 L 199.0 189.0 L 199.0 190.0 " stroke="black" fill="none" stroke-width="5.0" stroke-linecap="round" stroke-linejoin="round" />
<path d="M 114.0 219.0 L 113.0 219.0 L 112.0 219.0 L 111.0 220.0 L 110.0 220.0 L 109.0 220.0 L 109.0 220.0 L 109.0 220.0 L 109.0 220.0 L 111.0 220.0 L 114.0 220.0 L 118.0 220.0 L 124.0 220.0 L 130.0 220.0 L 137.0 219.0 L 145.0 218.0 L 152.0 218.0 L 159.0 217.0 L 166.0 216.0 L 172.0 216.0 L 178.0 215.0 L 184.0 215.0 L 187.0 214.0 L 189.0 214.0 L 191.0 214.0 L 191.0 214.0 L 191.0 214.0 " stroke="black" fill="none" stroke-width="5.0" stroke-linecap="round" stroke-linejoin="round" />
</svg>