<svg xmlns="http://www.w3.org/2000/svg" width="300" height="300" viewBox="0 0 300 300">
<path d="M 104.0 97.0 L 104.0 97.0 L 103.0 97.0 L 102.0 97.0 L 101.0 97.0 L 101.0 97.0 L 101.0 96.0 L 101.0 96.0 L 102.0 96.0 L 104.0 96.0 L 107.0 96.0 L 111.0 96.0 L 116.0 96.0 L 124.0 97.0 L 133.0 98.0 L 142.0 98.0 L 151.0 99.0 L 161.0 99.0 L 169.0 100.0 L 178.0 102.0 L 182.0 103.0 " stroke="black" fill="none" stroke-width="5.0" stroke-linecap="round" stroke-linejoin="round" />
<path d="M 76.0 148.0 L 76.0 148.0 L 76.0 148.0 L 76.0 148.0 L 76.0 148.0 L 77.0 148.0 L 80.0 148.0 L 84.0 148.0 L 91.0 148.0 L 99.0 147.0 L 108.0 147.0 L 118.0 147.0 L 130.0 147.0 L 143.0 148.0 L 154.0 148.0 L 165.0 148.0 L 179.0 148.0 L 191.0 147.0 L 200.0 147.0 L 208.0 146.0 L 215.0 146.0 L 221.0 146.0 L 225.0 147.0 L 227.0 149.0 L 229.0 150.0 L 229.0 152.0 " stroke="black" fill="none" stroke-width="5.0" stroke-linecap="round" stroke-linejoin="round" />
<path d="M 153.0 160.0 L 153.0 160.0 L 153.0 160.0 L 152.0 160.0 L 152.0 160.0 L 152.0 160.0 L 152.0 160.0 L 152.0 161.0 L 152.0 163.0 L 152.0 165.0 L 152.0 169.0 L 152.0 175.0 L 152.0 183.0 L 152.0 192.0 L 150.0 200.0 L 147.0 209.0 L 142.0 218.0 L 135.0 226.0 L 127.0 233.0 L 119.0 238.0 L 112.0 241.0 L 108.0 241.0 L 106.0 241.0 " stroke="black" fill="none" stroke-width="5.0" stroke-linecap="round" stroke-linejoin="round" />
<path d="M 205.0 77.0 L 205.0 77.0 L 205.0 77.0 L 205.0 77.0 L 204.0 77.0 L 204.0 77.0 L 204.0 77.0 L 204.0 78.0 L 205.0 80.0 L 206.0 82.0 L 208.0 85.0 L 210.0 88.0 L 212.0 91.0 L 213.0 93.0 " stroke="black" fill="none" stroke-width="5.0" stroke-linecap="round" stroke-linejoin="round" />
<path d="M 229.0 76.0 L 229.0 76.0 L 229.0 76.0 L 229.0 76.0 L 229.0 76.0 L 228.0 76.0 L 228.0 77.0 L 229.0 78.0 L 230.0 80.0 L 231.0 83.0 L 232.0 87.0 L 234.0 91.0 L 235.0 93.0 " stroke="black" fill="none" stroke-width="5.0" stroke-linecap="round" stroke-linejoin="round" />
</svg>