<svg xmlns="http://www.w3.org/2000/svg" width="300" height="300" viewBox="0 0 300 300">
<path d="M 80.0 111.0 L 80.0 111.0 L 79.0 111.0 L 79.0 111.0 L 78.0 110.0 L 78.0 110.0 L 78.0 110.0 L 78.0 110.0 L 78.0 109.0 L 78.0 109.0 L 78.0 109.0 L 78.0 109.0 L 78.0 109.0 L 79.0 109.0 L 79.0 109.0 L 80.0 109.0 L 81.0 109.0 L 82.0 109.0 L 83.0 109.0 L 83.0 109.0 L 84.0 109.0 L 85.0 109.0 L 86.0 109.0 L 87.0 109.0 L 88.0 110.0 L 88.0 110.0 L 89.0 110.0 L 90.0 110.0 L 91.0 110.0 L 91.0 110.0 L 92.0 110.0 L 93.0 111.0 L 93.0 111.0 L 94.0 111.0 L 95.0 111.0 L 96.0 111.0 L 96.0 111.0 L 97.0 111.0 L 98.0 111.0 L 99.0 111.0 L 100.0 111.0 L 100.0 111.0 L 101.0 111.0 L 102.0 111.0 L 103.0 111.0 L 103.0 112.0 L 104.0 112.0 L 105.0 112.0 L 105.0 112.0 L 106.0 112.0 L 107.0 112.0 L 108.0 112.0 L 109.0 112.0 L 110.0 112.0 L 111.0 112.0 L 112.0 112.0 L 113.0 112.0 L 114.0 111.0 L 115.0 111.0 L 116.0 111.0 L 117.0 111.0 L 118.0 111.0 L 119.0 111.0 L 120.0 111.0 L 121.0 111.0 L 122.0 111.0 L 123.0 111.0 L 124.0 111.0 L 125.0 111.0 L 126.0 111.0 L 128.0 111.0 L 129.0 111.0 L 130.0 111.0 L 131.0 111.0 L 133.0 111.0 L 134.0 111.0 L 135.0 111.0 L 136.0 111.0 L 137.0 111.0 L 139.0 111.0 L 140.0 111.0 L 141.0 111.0 L 142.0 111.0 L 143.0 111.0 L 144.0 111.0 L 146.0 111.0 L 147.0 111.0 L 148.0 110.0 L 149.0 110.0 L 150.0 110.0 L 151.0 110.0 L 152.0 109.0 L 153.0 109.0 L 154.0 109.0 L 155.0 109.0 L 156.0 108.0 L 158.0 108.0 L 159.0 108.0 L 161.0 108.0 L 162.0 108.0 L 164.0 108.0 L 166.0 107.0 L 168.0 107.0 L 171.0 107.0 L 173.0 107.0 L 176.0 106.0 L 179.0 105.0 L 181.0 105.0 L 184.0 104.0 L 186.0 104.0 L 188.0 103.0 L 190.0 103.0 L 192.0 102.0 L 194.0 102.0 L 196.0 101.0 L 197.0 100.0 L 198.0 100.0 L 200.0 99.0 L 201.0 98.0 L 203.0 98.0 L 204.0 97.0 L 205.0 97.0 L 206.0 97.0 L 207.0 96.0 " stroke="black" fill="none" stroke-width="5.0" stroke-linecap="round" stroke-linejoin="round" />
<path d="M 140.0 83.0 L 140.0 83.0 L 139.0 84.0 L 138.0 84.0 L 138.0 85.0 L 137.0 86.0 L 136.0 87.0 L 136.0 88.0 L 135.0 90.0 L 135.0 91.0 L 135.0 93.0 L 135.0 94.0 L 135.0 96.0 L 135.0 98.0 L 135.0 100.0 L 135.0 102.0 L 134.0 104.0 L 134.0 107.0 L 134.0 109.0 L 133.0 112.0 L 133.0 114.0 L 132.0 116.0 L 132.0 118.0 L 131.0 120.0 L 131.0 122.0 L 130.0 124.0 L 130.0 125.0 L 129.0 127.0 L 129.0 128.0 L 128.0 129.0 L 128.0 130.0 L 128.0 132.0 L 127.0 134.0 L 127.0 135.0 L 126.0 137.0 L 126.0 139.0 L 126.0 141.0 L 125.0 143.0 L 125.0 145.0 L 125.0 146.0 L 125.0 148.0 L 125.0 149.0 L 125.0 150.0 L 125.0 152.0 L 125.0 153.0 L 125.0 155.0 L 125.0 156.0 L 125.0 157.0 L 125.0 159.0 L 125.0 160.0 L 125.0 162.0 L 125.0 163.0 L 125.0 164.0 L 125.0 166.0 L 125.0 167.0 L 125.0 168.0 L 125.0 170.0 L 125.0 171.0 L 125.0 172.0 L 125.0 174.0 L 125.0 175.0 L 125.0 177.0 L 125.0 178.0 L 125.0 180.0 L 125.0 182.0 L 125.0 184.0 L 125.0 186.0 L 126.0 188.0 L 126.0 190.0 L 126.0 192.0 L 126.0 195.0 L 127.0 197.0 L 127.0 200.0 L 128.0 202.0 L 128.0 204.0 L 129.0 206.0 L 130.0 208.0 L 131.0 210.0 L 132.0 212.0 L 132.0 213.0 L 133.0 215.0 L 134.0 217.0 L 135.0 218.0 L 137.0 221.0 L 138.0 223.0 L 139.0 225.0 L 141.0 228.0 L 142.0 230.0 L 143.0 232.0 L 143.0 233.0 L 144.0 234.0 L 145.0 236.0 L 145.0 236.0 L 146.0 237.0 L 146.0 237.0 L 147.0 237.0 " stroke="black" fill="none" stroke-width="5.0" stroke-linecap="round" stroke-linejoin="round" />
<path d="M 185.0 127.0 L 185.0 127.0 L 185.0 127.0 L 185.0 127.0 L 184.0 127.0 L 184.0 127.0 L 184.0 127.0 L 184.0 127.0 L 184.0 128.0 L 184.0 128.0 L 184.0 128.0 L 183.0 129.0 L 183.0 129.0 L 183.0 130.0 L 183.0 131.0 L 183.0 132.0 L 183.0 134.0 L 182.0 136.0 L 182.0 138.0 L 182.0 140.0 L 181.0 143.0 L 180.0 145.0 L 180.0 148.0 L 179.0 150.0 L 178.0 152.0 L 178.0 154.0 L 177.0 156.0 L 176.0 157.0 L 175.0 159.0 L 175.0 160.0 L 174.0 162.0 L 173.0 163.0 L 172.0 164.0 L 171.0 165.0 L 170.0 166.0 L 169.0 168.0 L 168.0 169.0 L 167.0 171.0 L 166.0 172.0 L 165.0 174.0 L 164.0 176.0 L 163.0 177.0 L 162.0 179.0 L 161.0 181.0 L 160.0 183.0 L 159.0 185.0 L 158.0 186.0 L 157.0 188.0 L 156.0 189.0 L 155.0 191.0 L 154.0 192.0 L 153.0 193.0 L 152.0 195.0 L 151.0 196.0 L 150.0 198.0 L 149.0 199.0 L 149.0 200.0 L 148.0 202.0 L 147.0 203.0 L 146.0 204.0 L 146.0 205.0 L 145.0 206.0 L 144.0 207.0 L 143.0 208.0 L 142.0 209.0 L 141.0 210.0 L 140.0 210.0 L 139.0 211.0 L 138.0 212.0 L 137.0 213.0 L 136.0 213.0 L 135.0 214.0 L 134.0 215.0 L 132.0 216.0 L 131.0 216.0 L 130.0 217.0 L 128.0 218.0 L 127.0 219.0 L 126.0 219.0 L 124.0 220.0 L 123.0 221.0 L 122.0 221.0 L 120.0 222.0 L 119.0 223.0 L 118.0 223.0 L 117.0 224.0 L 116.0 224.0 L 115.0 225.0 L 113.0 226.0 L 112.0 226.0 L 112.0 227.0 L 110.0 228.0 L 110.0 228.0 L 109.0 229.0 L 108.0 229.0 L 107.0 230.0 L 107.0 230.0 L 106.0 231.0 L 105.0 231.0 L 104.0 231.0 L 104.0 232.0 L 103.0 232.0 L 102.0 232.0 L 102.0 233.0 L 101.0 233.0 L 101.0 233.0 L 100.0 233.0 L 99.0 233.0 L 98.0 233.0 L 97.0 233.0 L 96.0 233.0 L 95.0 233.0 L 94.0 233.0 L 93.0 233.0 L 91.0 233.0 L 90.0 233.0 L 89.0 233.0 L 87.0 233.0 L 85.0 233.0 L 84.0 232.0 L 83.0 232.0 L 81.0 232.0 L 80.0 231.0 L 79.0 231.0 L 78.0 230.0 L 77.0 230.0 L 76.0 230.0 L 76.0 229.0 L 76.0 228.0 L 75.0 228.0 L 75.0 227.0 L 75.0 227.0 L 75.0 226.0 L 75.0 225.0 L 75.0 224.0 L 75.0 223.0 L 75.0 223.0 L 75.0 221.0 L 76.0 220.0 L 76.0 219.0 L 76.0 218.0 L 77.0 217.0 L 77.0 216.0 L 77.0 215.0 L 78.0 214.0 L 78.0 212.0 L 78.0 211.0 L 78.0 210.0 L 79.0 209.0 L 79.0 207.0 L 79.0 206.0 L 80.0 204.0 L 80.0 203.0 L 80.0 202.0 L 81.0 200.0 L 81.0 199.0 L 82.0 198.0 L 82.0 196.0 L 83.0 195.0 L 84.0 194.0 L 85.0 192.0 L 86.0 191.0 L 87.0 189.0 L 89.0 188.0 L 90.0 187.0 L 92.0 186.0 L 93.0 184.0 L 94.0 183.0 L 95.0 182.0 L 97.0 180.0 L 98.0 179.0 L 99.0 178.0 L 100.0 176.0 L 100.0 175.0 L 101.0 174.0 L 102.0 173.0 L 103.0 172.0 L 104.0 171.0 L 104.0 170.0 L 105.0 169.0 L 106.0 168.0 L 107.0 167.0 L 107.0 166.0 L 108.0 166.0 L 109.0 165.0 L 110.0 164.0 L 110.0 163.0 L 111.0 162.0 L 112.0 162.0 L 112.0 162.0 L 113.0 161.0 L 114.0 161.0 L 114.0 160.0 L 116.0 160.0 L 117.0 159.0 L 118.0 159.0 L 119.0 159.0 L 121.0 158.0 L 122.0 158.0 L 123.0 157.0 L 124.0 157.0 L 125.0 157.0 L 125.0 157.0 L 126.0 156.0 L 127.0 156.0 L 128.0 156.0 L 128.0 156.0 L 129.0 155.0 L 130.0 155.0 L 131.0 155.0 L 132.0 155.0 L 133.0 155.0 L 134.0 154.0 L 135.0 154.0 L 136.0 154.0 L 137.0 154.0 L 138.0 153.0 L 139.0 153.0 L 140.0 153.0 L 141.0 153.0 L 141.0 152.0 L 142.0 152.0 L 143.0 152.0 L 144.0 152.0 L 145.0 152.0 L 145.0 151.0 L 146.0 151.0 L 147.0 151.0 L 147.0 151.0 L 148.0 150.0 L 149.0 150.0 L 149.0 150.0 L 150.0 150.0 L 150.0 150.0 L 151.0 150.0 L 151.0 150.0 L 152.0 150.0 L 152.0 149.0 L 153.0 149.0 L 153.0 149.0 L 154.0 149.0 L 155.0 149.0 L 155.0 149.0 L 156.0 149.0 L 156.0 149.0 L 157.0 149.0 L 158.0 149.0 L 158.0 149.0 L 159.0 149.0 L 160.0 149.0 L 162.0 149.0 L 163.0 149.0 L 164.0 149.0 L 165.0 149.0 L 166.0 149.0 L 168.0 149.0 L 169.0 149.0 L 170.0 149.0 L 171.0 149.0 L 172.0 149.0 L 173.0 149.0 L 175.0 149.0 L 176.0 149.0 L 177.0 149.0 L 178.0 149.0 L 179.0 149.0 L 180.0 149.0 L 180.0 149.0 L 181.0 149.0 L 182.0 149.0 L 183.0 149.0 L 184.0 150.0 L 184.0 150.0 L 185.0 150.0 L 186.0 151.0 L 186.0 151.0 L 187.0 152.0 L 188.0 152.0 L 189.0 152.0 L 190.0 153.0 L 191.0 153.0 L 192.0 154.0 L 193.0 154.0 L 193.0 154.0 L 194.0 155.0 L 195.0 156.0 L 195.0 156.0 L 196.0 157.0 L 197.0 157.0 L 197.0 158.0 L 198.0 159.0 L 199.0 159.0 L 200.0 159.0 L 201.0 160.0 L 202.0 160.0 L 203.0 160.0 L 203.0 161.0 L 204.0 161.0 L 205.0 161.0 L 205.0 162.0 L 206.0 163.0 L 207.0 163.0 L 207.0 164.0 L 208.0 165.0 L 209.0 166.0 L 209.0 167.0 L 210.0 168.0 L 210.0 169.0 L 211.0 170.0 L 211.0 171.0 L 212.0 172.0 L 212.0 173.0 L 213.0 174.0 L 213.0 175.0 L 214.0 177.0 L 214.0 178.0 L 215.0 179.0 L 215.0 180.0 L 216.0 181.0 L 216.0 183.0 L 217.0 184.0 L 217.0 185.0 L 218.0 186.0 L 218.0 187.0 L 218.0 188.0 L 219.0 189.0 L 219.0 190.0 L 219.0 191.0 L 219.0 192.0 L 219.0 193.0 L 219.0 194.0 L 219.0 195.0 L 219.0 196.0 L 219.0 197.0 L 219.0 199.0 L 219.0 200.0 L 219.0 202.0 L 219.0 203.0 L 219.0 204.0 L 219.0 206.0 L 218.0 207.0 L 218.0 208.0 L 217.0 210.0 L 217.0 211.0 L 216.0 212.0 L 215.0 214.0 L 215.0 215.0 L 214.0 216.0 L 213.0 218.0 L 212.0 219.0 L 212.0 220.0 L 211.0 221.0 L 210.0 223.0 L 209.0 225.0 L 207.0 227.0 L 206.0 229.0 L 204.0 230.0 L 203.0 232.0 L 202.0 234.0 L 200.0 235.0 L 199.0 237.0 L 197.0 238.0 L 196.0 240.0 L 194.0 241.0 L 193.0 243.0 L 191.0 244.0 L 189.0 246.0 L 187.0 247.0 L 185.0 249.0 L 183.0 250.0 L 181.0 251.0 L 179.0 252.0 L 177.0 252.0 L 175.0 252.0 L 174.0 252.0 L 174.0 252.0 L 173.0 252.0 " stroke="black" fill="none" stroke-width="5.0" stroke-linecap="round" stroke-linejoin="round" />
</svg>