<svg xmlns="http://www.w3.org/2000/svg" width="300" height="300" viewBox="0 0 300 300">
<path d="M 56.0 79.0 L 56.0 79.0 L 55.0 79.0 L 55.0 79.0 L 54.0 79.0 L 54.0 79.0 L 54.0 80.0 L 56.0 82.0 L 57.0 84.0 L 60.0 87.0 L 62.0 91.0 L 65.0 95.0 L 67.0 99.0 L 70.0 103.0 L 72.0 107.0 L 73.0 110.0 L 75.0 113.0 L 75.0 113.0 " stroke="black" fill="none" stroke-width="5.0" stroke-linecap="round" stroke-linejoin="round" />
<path d="M 82.0 72.0 L 82.0 72.0 L 82.0 73.0 L 82.0 74.0 L 82.0 75.0 L 83.0 77.0 L 85.0 79.0 L 87.0 82.0 L 90.0 85.0 L 93.0 89.0 L 96.0 94.0 L 99.0 99.0 L 101.0 104.0 L 104.0 108.0 L 105.0 112.0 " stroke="black" fill="none" stroke-width="5.0" stroke-linecap="round" stroke-linejoin="round" />
</svg>