<svg xmlns="http://www.w3.org/2000/svg" width="300" height="300" viewBox="0 0 300 300">
<path d="M 86.0 102.0 L 84.0 101.0 L 83.0 99.0 L 82.0 98.0 L 81.0 98.0 L 81.0 98.0 L 81.0 97.0 L 81.0 97.0 L 82.0 97.0 L 84.0 98.0 L 87.0 101.0 L 89.0 104.0 L 92.0 108.0 L 95.0 113.0 L 98.0 118.0 L 101.0 123.0 L 104.0 128.0 L 106.0 134.0 L 108.0 139.0 L 110.0 144.0 L 112.0 147.0 L 113.0 148.0 " stroke="black" fill="none" stroke-width="5.0" stroke-linecap="round" stroke-linejoin="round" />
<path d="M 206.0 99.0 L 206.0 99.0 L 206.0 99.0 L 206.0 100.0 L 206.0 100.0 L 206.0 100.0 L 206.0 101.0 L 206.0 101.0 L 206.0 102.0 L 206.0 102.0 L 206.0 103.0 L 206.0 103.0 L 206.0 104.0 L 206.0 105.0 L 206.0 107.0 L 206.0 108.0 L 206.0 110.0 L 206.0 112.0 L 205.0 115.0 L 205.0 117.0 L 205.0 120.0 L 205.0 122.0 L 204.0 125.0 L 203.0 127.0 L 203.0 129.0 L 202.0 131.0 L 201.0 134.0 L 200.0 136.0 L 199.0 138.0 L 198.0 141.0 L 197.0 144.0 L 197.0 146.0 L 196.0 149.0 L 195.0 151.0 L 194.0 152.0 L 194.0 154.0 L 193.0 156.0 L 193.0 157.0 L 192.0 159.0 L 191.0 160.0 L 191.0 162.0 L 190.0 164.0 L 189.0 165.0 L 188.0 167.0 L 187.0 169.0 L 186.0 170.0 L 185.0 171.0 L 183.0 173.0 L 182.0 175.0 L 180.0 177.0 L 178.0 179.0 L 176.0 181.0 L 173.0 184.0 L 171.0 188.0 L 168.0 190.0 L 165.0 194.0 L 161.0 197.0 L 158.0 200.0 L 155.0 202.0 L 152.0 205.0 L 149.0 207.0 L 146.0 209.0 L 143.0 212.0 L 140.0 214.0 L 135.0 217.0 L 130.0 220.0 L 125.0 224.0 L 120.0 227.0 L 116.0 230.0 L 113.0 233.0 L 111.0 234.0 L 110.0 235.0 L 110.0 235.0 " stroke="black" fill="none" stroke-width="5.0" stroke-linecap="round" stroke-linejoin="round" />
</svg>