<svg xmlns="http://www.w3.org/2000/svg" width="300" height="300" viewBox="0 0 300 300">
<path d="M 93.0 161.0 L 93.0 161.0 L 92.0 161.0 L 92.0 161.0 L 92.0 161.0 L 91.0 161.0 L 91.0 161.0 L 91.0 161.0 L 91.0 161.0 L 91.0 161.0 L 91.0 160.0 L 92.0 160.0 L 92.0 159.0 L 93.0 159.0 L 93.0 159.0 L 93.0 159.0 L 94.0 158.0 L 94.0 158.0 L 95.0 157.0 L 96.0 157.0 L 97.0 157.0 L 98.0 156.0 L 99.0 156.0 L 100.0 155.0 L 101.0 155.0 L 102.0 155.0 L 103.0 154.0 L 104.0 154.0 L 105.0 154.0 L 105.0 153.0 L 106.0 153.0 L 107.0 153.0 L 108.0 152.0 L 109.0 152.0 L 109.0 151.0 L 110.0 151.0 L 111.0 150.0 L 112.0 150.0 L 113.0 149.0 L 114.0 149.0 L 114.0 148.0 L 115.0 148.0 L 116.0 147.0 L 117.0 147.0 L 118.0 146.0 L 119.0 146.0 L 120.0 145.0 L 121.0 145.0 L 123.0 144.0 L 124.0 144.0 L 125.0 143.0 L 127.0 143.0 L 128.0 142.0 L 130.0 142.0 L 132.0 141.0 L 133.0 141.0 L 135.0 140.0 L 136.0 140.0 L 138.0 140.0 L 139.0 139.0 L 141.0 139.0 L 142.0 139.0 L 144.0 139.0 L 145.0 138.0 L 146.0 138.0 L 147.0 137.0 L 149.0 137.0 L 150.0 137.0 L 150.0 136.0 L 151.0 136.0 L 152.0 136.0 L 153.0 136.0 L 154.0 136.0 L 154.0 136.0 L 155.0 136.0 L 156.0 136.0 L 157.0 136.0 L 158.0 136.0 L 160.0 136.0 L 161.0 136.0 L 163.0 136.0 L 165.0 136.0 L 167.0 136.0 L 169.0 136.0 L 171.0 136.0 L 174.0 136.0 L 176.0 136.0 L 178.0 136.0 L 180.0 136.0 L 182.0 136.0 L 183.0 136.0 L 185.0 136.0 L 186.0 137.0 L 188.0 137.0 L 189.0 138.0 L 190.0 138.0 L 191.0 139.0 L 192.0 140.0 L 193.0 141.0 L 194.0 141.0 L 194.0 142.0 L 195.0 143.0 L 196.0 143.0 L 196.0 144.0 L 197.0 145.0 L 198.0 146.0 L 198.0 147.0 L 199.0 148.0 L 200.0 149.0 L 200.0 150.0 L 201.0 151.0 L 202.0 152.0 L 203.0 153.0 L 204.0 154.0 L 205.0 155.0 L 205.0 156.0 L 206.0 157.0 L 207.0 159.0 L 208.0 160.0 L 208.0 161.0 L 209.0 162.0 L 209.0 164.0 L 210.0 165.0 L 210.0 166.0 L 210.0 168.0 L 210.0 170.0 L 211.0 171.0 L 211.0 173.0 L 211.0 175.0 L 211.0 177.0 L 211.0 179.0 L 211.0 181.0 L 211.0 183.0 L 210.0 186.0 L 210.0 188.0 L 209.0 190.0 L 208.0 192.0 L 207.0 194.0 L 205.0 197.0 L 204.0 199.0 L 202.0 201.0 L 201.0 204.0 L 199.0 206.0 L 197.0 208.0 L 196.0 210.0 L 194.0 212.0 L 193.0 213.0 L 191.0 214.0 L 190.0 215.0 L 188.0 216.0 L 185.0 217.0 L 182.0 219.0 L 178.0 220.0 L 173.0 223.0 L 168.0 225.0 L 163.0 227.0 L 158.0 230.0 L 154.0 231.0 L 150.0 232.0 L 147.0 233.0 L 144.0 233.0 L 141.0 234.0 L 138.0 234.0 L 135.0 234.0 L 132.0 234.0 L 131.0 234.0 " stroke="black" fill="none" stroke-width="5.0" stroke-linecap="round" stroke-linejoin="round" />
</svg>