<svg xmlns="http://www.w3.org/2000/svg" width="300" height="300" viewBox="0 0 300 300">
<path d="M 150.0 155.0 L 150.0 155.0 L 150.0 155.0 L 149.0 155.0 L 149.0 156.0 L 148.0 156.0 L 148.0 157.0 L 148.0 157.0 L 147.0 157.0 L 147.0 157.0 L 147.0 158.0 L 147.0 158.0 L 147.0 158.0 L 148.0 159.0 L 148.0 159.0 L 149.0 159.0 L 149.0 159.0 L 149.0 159.0 L 150.0 159.0 L 150.0 159.0 L 150.0 158.0 L 150.0 157.0 L 150.0 157.0 L 150.0 156.0 L 150.0 156.0 L 149.0 155.0 L 148.0 155.0 L 148.0 155.0 L 147.0 156.0 L 147.0 157.0 L 146.0 158.0 " stroke="black" fill="none" stroke-width="5.0" stroke-linecap="round" stroke-linejoin="round" />
<path d="M 155.0 160.0 L 155.0 160.0 L 156.0 159.0 L 156.0 158.0 L 157.0 157.0 L 157.0 156.0 L 157.0 154.0 L 156.0 153.0 L 154.0 152.0 L 153.0 151.0 L 152.0 151.0 L 150.0 151.0 L 149.0 151.0 L 148.0 151.0 L 146.0 152.0 L 145.0 154.0 L 145.0 156.0 L 145.0 159.0 L 145.0 162.0 L 145.0 164.0 L 146.0 166.0 L 147.0 167.0 L 148.0 168.0 L 150.0 168.0 L 152.0 168.0 L 154.0 167.0 L 155.0 166.0 L 156.0 164.0 L 156.0 162.0 L 156.0 160.0 L 156.0 158.0 L 155.0 157.0 L 154.0 155.0 L 152.0 154.0 L 151.0 154.0 L 149.0 154.0 L 148.0 154.0 L 147.0 154.0 L 145.0 155.0 L 144.0 157.0 L 144.0 159.0 L 144.0 161.0 L 144.0 164.0 L 144.0 166.0 L 145.0 167.0 L 147.0 169.0 L 149.0 169.0 L 151.0 169.0 L 153.0 169.0 L 155.0 168.0 L 156.0 166.0 L 157.0 164.0 L 157.0 162.0 L 157.0 160.0 L 157.0 158.0 L 156.0 157.0 L 154.0 155.0 L 153.0 154.0 L 152.0 154.0 L 150.0 154.0 L 149.0 154.0 L 148.0 154.0 L 147.0 156.0 L 147.0 158.0 L 146.0 160.0 L 146.0 162.0 L 146.0 165.0 L 146.0 166.0 L 147.0 168.0 L 149.0 169.0 L 150.0 169.0 L 151.0 169.0 L 153.0 169.0 L 153.0 168.0 L 154.0 166.0 L 154.0 165.0 L 154.0 163.0 L 154.0 162.0 L 154.0 160.0 L 153.0 159.0 L 152.0 158.0 L 151.0 157.0 L 150.0 157.0 L 149.0 157.0 L 148.0 157.0 L 147.0 157.0 L 146.0 159.0 L 146.0 161.0 L 146.0 162.0 L 146.0 164.0 L 146.0 166.0 L 147.0 166.0 L 149.0 167.0 L 150.0 167.0 L 151.0 167.0 L 153.0 167.0 L 154.0 166.0 L 154.0 165.0 L 155.0 164.0 L 155.0 163.0 L 155.0 162.0 L 154.0 161.0 L 153.0 161.0 L 152.0 160.0 L 152.0 160.0 L 150.0 160.0 L 150.0 161.0 L 149.0 162.0 L 148.0 163.0 L 148.0 164.0 L 148.0 166.0 L 148.0 167.0 L 148.0 168.0 L 148.0 168.0 L 148.0 168.0 L 149.0 168.0 L 150.0 168.0 L 151.0 167.0 L 152.0 166.0 L 152.0 165.0 L 153.0 164.0 L 153.0 162.0 L 153.0 162.0 L 153.0 161.0 L 153.0 160.0 L 153.0 160.0 L 152.0 159.0 L 152.0 159.0 L 151.0 159.0 L 151.0 160.0 L 151.0 161.0 L 151.0 162.0 L 151.0 163.0 L 151.0 164.0 L 151.0 165.0 L 151.0 165.0 L 152.0 166.0 L 152.0 166.0 L 152.0 166.0 L 152.0 166.0 L 152.0 166.0 L 152.0 166.0 L 152.0 166.0 L 152.0 165.0 L 152.0 164.0 L 152.0 163.0 L 151.0 162.0 L 151.0 162.0 L 151.0 162.0 L 150.0 162.0 L 150.0 162.0 L 150.0 162.0 L 150.0 162.0 L 150.0 162.0 L 150.0 163.0 L 151.0 163.0 L 152.0 164.0 L 153.0 164.0 L 153.0 164.0 L 154.0 164.0 L 155.0 164.0 L 155.0 163.0 L 156.0 162.0 L 156.0 161.0 L 156.0 160.0 L 155.0 159.0 L 154.0 158.0 L 153.0 158.0 L 152.0 157.0 L 150.0 157.0 L 149.0 157.0 L 148.0 158.0 L 148.0 159.0 L 147.0 161.0 L 147.0 163.0 L 147.0 164.0 L 147.0 166.0 L 148.0 167.0 L 149.0 168.0 L 150.0 169.0 L 152.0 169.0 L 154.0 169.0 L 156.0 168.0 L 158.0 166.0 L 159.0 165.0 L 160.0 164.0 L 160.0 162.0 L 160.0 161.0 L 160.0 159.0 L 158.0 158.0 L 157.0 157.0 L 155.0 157.0 L 154.0 156.0 L 152.0 156.0 L 151.0 156.0 L 149.0 156.0 L 148.0 156.0 L 147.0 158.0 L 146.0 160.0 L 146.0 162.0 L 146.0 164.0 L 146.0 166.0 L 146.0 168.0 L 146.0 170.0 L 148.0 171.0 L 150.0 172.0 L 152.0 172.0 L 154.0 172.0 L 156.0 172.0 L 158.0 171.0 L 160.0 169.0 L 161.0 167.0 L 161.0 166.0 L 161.0 164.0 L 161.0 162.0 L 159.0 161.0 L 157.0 159.0 L 155.0 158.0 L 153.0 157.0 L 151.0 156.0 L 149.0 156.0 L 148.0 156.0 L 146.0 156.0 L 145.0 157.0 L 144.0 159.0 L 144.0 162.0 L 143.0 164.0 L 143.0 167.0 L 143.0 169.0 L 144.0 171.0 L 145.0 172.0 L 147.0 173.0 L 150.0 173.0 L 152.0 173.0 L 154.0 171.0 L 156.0 170.0 L 158.0 167.0 L 159.0 165.0 L 159.0 163.0 L 159.0 161.0 L 158.0 159.0 L 157.0 157.0 L 155.0 156.0 L 153.0 155.0 L 152.0 154.0 L 151.0 154.0 L 150.0 154.0 L 149.0 154.0 L 148.0 154.0 L 147.0 156.0 L 147.0 158.0 L 147.0 161.0 L 147.0 163.0 L 147.0 164.0 L 147.0 166.0 L 148.0 167.0 L 149.0 168.0 L 151.0 168.0 L 152.0 168.0 L 153.0 168.0 L 155.0 167.0 L 156.0 166.0 L 157.0 164.0 L 157.0 163.0 L 157.0 161.0 L 157.0 160.0 L 156.0 158.0 L 154.0 157.0 L 152.0 156.0 L 151.0 156.0 L 149.0 156.0 L 147.0 156.0 L 145.0 156.0 L 144.0 158.0 L 143.0 160.0 L 142.0 163.0 L 142.0 165.0 L 142.0 168.0 L 142.0 170.0 L 144.0 171.0 L 146.0 173.0 L 148.0 173.0 L 150.0 173.0 L 152.0 173.0 L 154.0 172.0 L 156.0 171.0 L 157.0 169.0 L 157.0 167.0 L 157.0 164.0 L 157.0 162.0 L 157.0 161.0 L 155.0 159.0 L 154.0 157.0 L 152.0 155.0 L 151.0 154.0 L 150.0 153.0 L 149.0 153.0 L 148.0 153.0 L 147.0 153.0 L 146.0 154.0 L 145.0 156.0 L 145.0 159.0 L 145.0 162.0 L 145.0 164.0 L 145.0 167.0 L 145.0 169.0 L 146.0 171.0 L 147.0 172.0 L 149.0 172.0 L 150.0 172.0 L 152.0 172.0 L 153.0 170.0 L 155.0 168.0 L 156.0 166.0 L 156.0 164.0 L 156.0 161.0 L 156.0 159.0 L 156.0 157.0 L 154.0 155.0 L 153.0 154.0 L 150.0 153.0 L 148.0 152.0 L 146.0 152.0 L 144.0 153.0 L 142.0 155.0 L 141.0 158.0 L 140.0 161.0 L 140.0 164.0 L 140.0 167.0 L 141.0 169.0 L 143.0 171.0 L 145.0 172.0 L 147.0 172.0 L 149.0 172.0 L 151.0 172.0 L 153.0 171.0 L 154.0 169.0 L 155.0 167.0 L 155.0 165.0 L 155.0 163.0 L 155.0 161.0 L 154.0 160.0 L 152.0 158.0 L 150.0 157.0 L 147.0 156.0 L 144.0 155.0 L 142.0 154.0 L 140.0 154.0 L 139.0 155.0 L 137.0 156.0 L 136.0 159.0 L 136.0 161.0 L 136.0 164.0 L 137.0 167.0 L 138.0 170.0 L 141.0 171.0 L 143.0 173.0 L 146.0 173.0 L 149.0 173.0 L 151.0 173.0 L 152.0 172.0 L 153.0 170.0 L 153.0 169.0 L 153.0 166.0 L 153.0 165.0 L 153.0 163.0 L 152.0 161.0 L 151.0 160.0 L 150.0 159.0 L 149.0 159.0 L 147.0 159.0 L 146.0 159.0 L 145.0 159.0 L 144.0 160.0 L 143.0 162.0 L 143.0 164.0 L 143.0 165.0 L 143.0 167.0 L 143.0 168.0 L 144.0 169.0 L 145.0 169.0 L 147.0 170.0 L 148.0 170.0 L 149.0 170.0 L 150.0 169.0 L 151.0 168.0 L 152.0 167.0 L 152.0 166.0 L 152.0 164.0 L 152.0 163.0 L 152.0 162.0 L 152.0 162.0 L 151.0 161.0 L 151.0 161.0 L 150.0 161.0 L 150.0 161.0 L 150.0 161.0 L 149.0 161.0 L 149.0 161.0 L 149.0 162.0 L 149.0 162.0 " stroke="black" fill="none" stroke-width="5.0" stroke-linecap="round" stroke-linejoin="round" />
</svg>