<svg xmlns="http://www.w3.org/2000/svg" width="300" height="300" viewBox="0 0 300 300">
<path d="M 196.0 92.0 L 196.0 92.0 L 196.0 93.0 L 195.0 94.0 L 195.0 95.0 L 195.0 96.0 L 195.0 98.0 L 195.0 100.0 L 195.0 103.0 L 195.0 105.0 L 195.0 109.0 L 195.0 112.0 L 195.0 115.0 L 195.0 120.0 L 195.0 124.0 L 194.0 128.0 L 192.0 134.0 L 190.0 139.0 L 187.0 145.0 L 184.0 151.0 L 179.0 157.0 L 175.0 162.0 L 169.0 167.0 L 164.0 173.0 L 158.0 179.0 L 153.0 186.0 L 148.0 193.0 L 143.0 199.0 L 135.0 205.0 L 126.0 210.0 L 117.0 214.0 L 109.0 220.0 L 104.0 225.0 L 100.0 229.0 L 98.0 232.0 " stroke="black" fill="none" stroke-width="5.0" stroke-linecap="round" stroke-linejoin="round" />
</svg>