<svg xmlns="http://www.w3.org/2000/svg" width="300" height="300" viewBox="0 0 300 300">
<path d="M 142.0 94.0 L 142.0 94.0 L 142.0 94.0 L 142.0 94.0 L 142.0 94.0 L 142.0 94.0 L 142.0 94.0 L 142.0 94.0 L 142.0 94.0 L 142.0 94.0 L 142.0 95.0 L 141.0 96.0 L 141.0 97.0 L 141.0 99.0 L 140.0 102.0 L 139.0 105.0 L 139.0 109.0 L 138.0 113.0 L 136.0 117.0 L 135.0 121.0 L 133.0 125.0 L 132.0 129.0 L 130.0 134.0 L 128.0 138.0 L 126.0 142.0 L 124.0 147.0 L 123.0 151.0 L 123.0 154.0 L 122.0 157.0 L 122.0 159.0 L 121.0 162.0 L 121.0 164.0 L 120.0 167.0 L 118.0 170.0 L 117.0 174.0 L 115.0 177.0 L 114.0 180.0 L 113.0 184.0 L 112.0 187.0 L 111.0 190.0 L 110.0 193.0 L 110.0 195.0 L 109.0 196.0 L 108.0 199.0 L 108.0 200.0 L 107.0 202.0 L 106.0 205.0 L 106.0 206.0 L 105.0 208.0 L 104.0 211.0 L 103.0 213.0 L 102.0 215.0 L 101.0 217.0 L 100.0 219.0 L 100.0 221.0 L 99.0 222.0 L 98.0 224.0 L 97.0 225.0 L 96.0 227.0 L 95.0 228.0 L 94.0 229.0 L 94.0 230.0 L 93.0 230.0 L 93.0 230.0 L 93.0 231.0 L 92.0 231.0 L 92.0 231.0 L 92.0 231.0 L 91.0 231.0 L 91.0 231.0 L 91.0 231.0 L 91.0 231.0 L 91.0 231.0 L 91.0 231.0 L 91.0 231.0 L 91.0 231.0 L 91.0 231.0 L 92.0 231.0 L 92.0 231.0 L 93.0 231.0 L 94.0 231.0 L 95.0 231.0 L 96.0 231.0 L 98.0 231.0 L 99.0 230.0 L 101.0 230.0 L 104.0 229.0 L 107.0 227.0 L 111.0 226.0 L 116.0 224.0 L 121.0 222.0 L 128.0 221.0 L 134.0 219.0 L 141.0 218.0 L 148.0 217.0 L 153.0 216.0 L 159.0 214.0 L 165.0 213.0 L 171.0 211.0 L 177.0 210.0 L 183.0 209.0 L 188.0 209.0 L 192.0 208.0 L 195.0 208.0 L 198.0 207.0 L 200.0 207.0 L 202.0 206.0 L 204.0 204.0 L 206.0 203.0 L 208.0 202.0 L 209.0 201.0 L 209.0 200.0 L 209.0 200.0 L 209.0 200.0 " stroke="black" fill="none" stroke-width="5.0" stroke-linecap="round" stroke-linejoin="round" />
<path d="M 195.0 162.0 L 195.0 162.0 L 195.0 162.0 L 195.0 162.0 L 195.0 162.0 L 195.0 162.0 L 195.0 162.0 L 195.0 163.0 L 196.0 165.0 L 197.0 168.0 L 199.0 173.0 L 201.0 178.0 L 204.0 185.0 L 207.0 192.0 L 210.0 199.0 L 214.0 206.0 L 216.0 211.0 L 219.0 216.0 L 221.0 221.0 L 222.0 224.0 L 223.0 227.0 L 224.0 230.0 L 225.0 231.0 L 226.0 233.0 L 226.0 233.0 L 227.0 234.0 L 227.0 234.0 L 227.0 234.0 " stroke="black" fill="none" stroke-width="5.0" stroke-linecap="round" stroke-linejoin="round" />
</svg>