<svg xmlns="http://www.w3.org/2000/svg" width="300" height="300" viewBox="0 0 300 300">
<path d="M 117.0 89.0 L 117.0 89.0 L 117.0 89.0 L 117.0 90.0 L 117.0 91.0 L 117.0 94.0 L 118.0 98.0 L 118.0 104.0 L 119.0 112.0 L 119.0 122.0 L 119.0 134.0 L 119.0 148.0 L 118.0 162.0 L 117.0 177.0 L 116.0 193.0 L 115.0 206.0 L 115.0 218.0 L 115.0 229.0 L 115.0 235.0 L 116.0 238.0 L 116.0 238.0 " stroke="black" fill="none" stroke-width="5.0" stroke-linecap="round" stroke-linejoin="round" />
<path d="M 126.0 147.0 L 125.0 147.0 L 123.0 146.0 L 123.0 146.0 L 123.0 146.0 L 123.0 146.0 L 123.0 146.0 L 126.0 146.0 L 129.0 147.0 L 133.0 148.0 L 138.0 149.0 L 143.0 152.0 L 147.0 154.0 L 152.0 157.0 L 158.0 162.0 L 165.0 166.0 L 175.0 170.0 L 184.0 173.0 L 188.0 175.0 " stroke="black" fill="none" stroke-width="5.0" stroke-linecap="round" stroke-linejoin="round" />
<path d="M 183.0 95.0 L 183.0 95.0 L 183.0 95.0 L 183.0 95.0 L 183.0 96.0 L 183.0 96.0 L 184.0 98.0 L 185.0 100.0 L 187.0 104.0 L 190.0 108.0 L 193.0 111.0 L 197.0 115.0 L 201.0 118.0 L 202.0 119.0 " stroke="black" fill="none" stroke-width="5.0" stroke-linecap="round" stroke-linejoin="round" />
<path d="M 209.0 88.0 L 209.0 88.0 L 209.0 88.0 L 209.0 88.0 L 209.0 89.0 L 209.0 90.0 L 211.0 92.0 L 214.0 95.0 L 218.0 99.0 L 222.0 103.0 L 226.0 107.0 L 230.0 111.0 L 232.0 114.0 " stroke="black" fill="none" stroke-width="5.0" stroke-linecap="round" stroke-linejoin="round" />
</svg>