<svg xmlns="http://www.w3.org/2000/svg" width="300" height="300" viewBox="0 0 300 300">
<path d="M 77.0 118.0 L 77.0 118.0 L 76.0 118.0 L 75.0 119.0 L 74.0 119.0 L 74.0 120.0 L 74.0 120.0 L 74.0 120.0 L 74.0 120.0 L 75.0 120.0 L 76.0 120.0 L 77.0 120.0 L 78.0 120.0 L 78.0 120.0 L 79.0 120.0 L 80.0 120.0 L 81.0 120.0 L 82.0 120.0 L 83.0 120.0 L 84.0 120.0 L 85.0 120.0 L 87.0 120.0 L 89.0 120.0 L 91.0 120.0 L 93.0 121.0 L 95.0 121.0 L 97.0 121.0 L 99.0 121.0 L 101.0 121.0 L 103.0 121.0 L 105.0 121.0 L 106.0 121.0 L 108.0 121.0 L 109.0 121.0 L 111.0 121.0 L 112.0 121.0 L 114.0 121.0 L 115.0 121.0 L 117.0 120.0 L 119.0 120.0 L 121.0 120.0 L 123.0 119.0 L 126.0 119.0 L 128.0 119.0 L 131.0 118.0 L 134.0 118.0 L 138.0 118.0 L 141.0 117.0 L 144.0 117.0 L 147.0 117.0 L 150.0 116.0 L 152.0 115.0 L 155.0 115.0 L 157.0 114.0 L 159.0 113.0 L 162.0 111.0 L 165.0 110.0 L 167.0 109.0 " stroke="black" fill="none" stroke-width="5.0" stroke-linecap="round" stroke-linejoin="round" />
<path d="M 120.0 80.0 L 120.0 80.0 L 120.0 80.0 L 120.0 80.0 L 120.0 80.0 L 119.0 80.0 L 119.0 80.0 L 119.0 80.0 L 119.0 80.0 L 119.0 81.0 L 119.0 82.0 L 119.0 82.0 L 120.0 84.0 L 121.0 85.0 L 121.0 86.0 L 122.0 88.0 L 123.0 90.0 L 123.0 93.0 L 124.0 96.0 L 124.0 99.0 L 125.0 102.0 L 125.0 106.0 L 125.0 109.0 L 126.0 112.0 L 126.0 115.0 L 126.0 117.0 L 126.0 120.0 L 127.0 122.0 L 127.0 124.0 L 127.0 127.0 L 127.0 130.0 L 127.0 132.0 L 127.0 135.0 L 127.0 138.0 L 127.0 141.0 L 127.0 144.0 L 127.0 147.0 L 127.0 150.0 L 127.0 152.0 L 127.0 155.0 L 127.0 157.0 L 127.0 158.0 L 127.0 161.0 L 127.0 162.0 L 127.0 164.0 L 127.0 167.0 L 127.0 169.0 L 127.0 171.0 L 126.0 174.0 L 126.0 176.0 L 126.0 178.0 L 126.0 180.0 L 126.0 183.0 L 125.0 185.0 L 125.0 188.0 L 125.0 190.0 L 125.0 192.0 L 125.0 195.0 L 125.0 197.0 L 125.0 199.0 L 124.0 201.0 L 124.0 202.0 L 124.0 204.0 L 123.0 206.0 L 123.0 207.0 L 122.0 209.0 L 122.0 210.0 L 121.0 212.0 L 121.0 213.0 L 121.0 215.0 L 120.0 216.0 L 120.0 218.0 L 119.0 220.0 L 119.0 221.0 L 118.0 223.0 L 118.0 224.0 L 117.0 226.0 L 116.0 227.0 L 116.0 229.0 L 115.0 230.0 L 114.0 231.0 L 113.0 232.0 L 112.0 234.0 L 111.0 234.0 L 110.0 236.0 L 109.0 236.0 L 108.0 237.0 L 108.0 237.0 L 107.0 237.0 L 106.0 238.0 L 105.0 238.0 L 104.0 238.0 L 103.0 238.0 L 102.0 238.0 L 101.0 237.0 L 100.0 237.0 L 98.0 236.0 L 97.0 236.0 L 95.0 235.0 L 94.0 235.0 L 92.0 234.0 L 91.0 234.0 L 89.0 233.0 L 88.0 233.0 L 86.0 232.0 L 84.0 231.0 L 83.0 230.0 L 82.0 230.0 L 80.0 229.0 L 79.0 227.0 L 78.0 226.0 L 77.0 224.0 L 76.0 223.0 L 76.0 221.0 L 75.0 219.0 L 75.0 217.0 L 75.0 216.0 L 75.0 214.0 L 75.0 212.0 L 75.0 211.0 L 75.0 209.0 L 76.0 207.0 L 77.0 205.0 L 77.0 204.0 L 78.0 202.0 L 79.0 200.0 L 80.0 199.0 L 81.0 198.0 L 82.0 196.0 L 84.0 195.0 L 85.0 194.0 L 87.0 193.0 L 88.0 191.0 L 90.0 190.0 L 91.0 189.0 L 93.0 188.0 L 94.0 187.0 L 95.0 186.0 L 96.0 186.0 L 97.0 185.0 L 98.0 185.0 L 99.0 184.0 L 101.0 183.0 L 102.0 182.0 L 104.0 181.0 L 105.0 180.0 L 107.0 178.0 L 108.0 177.0 L 109.0 176.0 L 110.0 175.0 L 112.0 174.0 L 113.0 173.0 L 114.0 172.0 L 116.0 171.0 L 117.0 171.0 L 118.0 170.0 L 120.0 170.0 L 122.0 169.0 L 124.0 169.0 L 126.0 168.0 L 128.0 168.0 L 130.0 168.0 L 133.0 167.0 L 135.0 167.0 L 137.0 166.0 L 139.0 166.0 L 141.0 166.0 L 143.0 166.0 L 144.0 165.0 L 146.0 165.0 L 147.0 165.0 L 149.0 165.0 L 150.0 165.0 L 151.0 165.0 L 152.0 165.0 L 153.0 165.0 L 155.0 165.0 L 156.0 165.0 L 158.0 165.0 L 159.0 165.0 L 161.0 165.0 L 163.0 165.0 L 164.0 165.0 L 166.0 165.0 L 168.0 165.0 L 170.0 165.0 L 171.0 165.0 L 173.0 165.0 L 175.0 165.0 L 177.0 165.0 L 179.0 165.0 L 180.0 165.0 L 182.0 165.0 L 184.0 165.0 L 186.0 165.0 L 187.0 165.0 L 189.0 166.0 L 191.0 166.0 L 192.0 166.0 L 193.0 167.0 L 195.0 167.0 L 196.0 168.0 L 197.0 169.0 L 198.0 170.0 L 198.0 170.0 L 199.0 171.0 L 200.0 172.0 L 201.0 173.0 L 202.0 174.0 L 203.0 175.0 L 204.0 176.0 L 204.0 177.0 L 205.0 179.0 L 206.0 181.0 L 207.0 183.0 L 207.0 185.0 L 208.0 187.0 L 209.0 189.0 L 209.0 192.0 L 210.0 194.0 L 211.0 195.0 L 211.0 197.0 L 212.0 199.0 L 212.0 201.0 L 212.0 202.0 L 212.0 204.0 L 212.0 206.0 L 212.0 208.0 L 211.0 211.0 L 210.0 213.0 L 209.0 216.0 L 208.0 219.0 L 207.0 222.0 L 205.0 224.0 L 204.0 227.0 L 202.0 229.0 L 200.0 232.0 L 198.0 234.0 L 195.0 236.0 L 193.0 239.0 L 190.0 241.0 L 187.0 242.0 L 185.0 244.0 L 181.0 245.0 L 178.0 245.0 L 174.0 246.0 L 169.0 246.0 L 165.0 246.0 L 162.0 246.0 L 158.0 246.0 L 156.0 246.0 " stroke="black" fill="none" stroke-width="5.0" stroke-linecap="round" stroke-linejoin="round" />
<path d="M 200.0 102.0 L 200.0 102.0 L 199.0 102.0 L 199.0 101.0 L 198.0 101.0 L 198.0 101.0 L 198.0 101.0 L 199.0 102.0 L 200.0 104.0 L 203.0 106.0 L 207.0 109.0 L 212.0 111.0 L 216.0 114.0 L 222.0 117.0 L 227.0 119.0 L 232.0 122.0 L 236.0 125.0 L 239.0 127.0 L 240.0 130.0 L 241.0 132.0 L 242.0 134.0 " stroke="black" fill="none" stroke-width="5.0" stroke-linecap="round" stroke-linejoin="round" />
</svg>