<svg xmlns="http://www.w3.org/2000/svg" width="300" height="300" viewBox="0 0 300 300">
<path d="M 233.0 77.0 L 233.0 77.0 L 233.0 78.0 L 232.0 79.0 L 232.0 79.0 L 231.0 80.0 L 231.0 81.0 L 231.0 82.0 L 230.0 83.0 L 230.0 84.0 L 229.0 85.0 L 229.0 87.0 L 228.0 88.0 L 228.0 90.0 L 227.0 91.0 L 226.0 94.0 L 224.0 96.0 L 223.0 100.0 L 221.0 103.0 L 219.0 107.0 L 217.0 110.0 L 215.0 114.0 L 213.0 117.0 L 210.0 120.0 L 208.0 123.0 L 205.0 126.0 L 203.0 129.0 L 200.0 132.0 L 199.0 134.0 L 197.0 137.0 L 196.0 139.0 L 195.0 141.0 L 194.0 144.0 L 193.0 146.0 L 192.0 149.0 L 191.0 151.0 L 190.0 153.0 L 189.0 155.0 L 188.0 157.0 L 187.0 158.0 L 185.0 160.0 L 184.0 161.0 L 182.0 163.0 L 181.0 164.0 L 179.0 165.0 L 178.0 166.0 L 177.0 167.0 L 176.0 168.0 L 176.0 169.0 L 175.0 169.0 L 175.0 170.0 L 175.0 170.0 L 175.0 170.0 L 175.0 170.0 L 175.0 171.0 L 175.0 171.0 L 175.0 171.0 L 175.0 171.0 L 175.0 172.0 L 175.0 172.0 L 175.0 172.0 L 175.0 172.0 L 176.0 172.0 L 176.0 173.0 L 176.0 173.0 L 177.0 174.0 L 177.0 174.0 L 178.0 175.0 L 179.0 176.0 L 180.0 178.0 L 181.0 180.0 L 183.0 182.0 L 185.0 186.0 L 187.0 189.0 L 190.0 194.0 L 193.0 199.0 L 196.0 204.0 L 198.0 208.0 L 201.0 213.0 L 204.0 217.0 L 206.0 221.0 L 209.0 226.0 L 211.0 229.0 L 214.0 232.0 L 216.0 234.0 L 219.0 236.0 L 221.0 238.0 L 223.0 240.0 L 225.0 241.0 L 226.0 242.0 L 227.0 244.0 L 228.0 245.0 L 229.0 246.0 L 230.0 247.0 L 230.0 247.0 L 230.0 248.0 L 230.0 248.0 " stroke="black" fill="none" stroke-width="6.0" stroke-linecap="round" stroke-linejoin="round" />
</svg>