<svg xmlns="http://www.w3.org/2000/svg" width="300" height="300" viewBox="0 0 300 300">
<path d="M 87.0 102.0 L 87.0 102.0 L 87.0 102.0 L 87.0 101.0 L 87.0 101.0 L 86.0 101.0 L 86.0 100.0 L 86.0 100.0 L 86.0 100.0 L 86.0 101.0 L 86.0 102.0 L 86.0 103.0 L 85.0 104.0 L 85.0 106.0 L 85.0 107.0 L 85.0 109.0 L 84.0 111.0 L 84.0 114.0 L 84.0 116.0 L 84.0 119.0 L 84.0 122.0 L 84.0 125.0 L 84.0 128.0 L 84.0 131.0 L 84.0 134.0 L 84.0 137.0 L 84.0 139.0 L 84.0 142.0 L 84.0 145.0 L 84.0 147.0 L 84.0 150.0 L 84.0 152.0 L 84.0 155.0 L 84.0 157.0 L 85.0 159.0 L 85.0 162.0 L 85.0 164.0 L 86.0 166.0 L 86.0 168.0 L 87.0 170.0 L 87.0 171.0 L 88.0 173.0 L 88.0 175.0 L 89.0 177.0 L 89.0 179.0 L 89.0 181.0 L 90.0 183.0 L 90.0 185.0 L 91.0 188.0 L 91.0 190.0 L 92.0 192.0 L 93.0 195.0 L 93.0 197.0 L 94.0 199.0 L 95.0 202.0 L 95.0 204.0 L 96.0 206.0 L 97.0 208.0 L 99.0 209.0 L 100.0 211.0 L 101.0 213.0 L 102.0 214.0 L 103.0 216.0 L 104.0 217.0 L 105.0 218.0 L 106.0 219.0 L 107.0 219.0 L 107.0 220.0 L 108.0 221.0 L 108.0 221.0 L 108.0 222.0 L 109.0 223.0 L 110.0 224.0 L 110.0 225.0 L 111.0 226.0 L 112.0 227.0 L 113.0 228.0 L 114.0 229.0 L 114.0 230.0 L 115.0 231.0 L 116.0 231.0 L 118.0 232.0 L 119.0 232.0 L 120.0 232.0 L 121.0 232.0 L 122.0 232.0 L 123.0 232.0 L 124.0 232.0 L 125.0 232.0 L 126.0 231.0 L 126.0 231.0 L 127.0 230.0 L 128.0 230.0 L 129.0 230.0 L 130.0 229.0 L 130.0 229.0 L 131.0 228.0 L 132.0 228.0 L 132.0 227.0 L 133.0 226.0 L 134.0 225.0 L 134.0 223.0 L 135.0 221.0 L 137.0 218.0 L 138.0 215.0 L 140.0 210.0 L 143.0 205.0 L 146.0 198.0 L 148.0 192.0 L 151.0 185.0 L 154.0 178.0 " stroke="black" fill="none" stroke-width="5.0" stroke-linecap="round" stroke-linejoin="round" />
<path d="M 194.0 111.0 L 194.0 111.0 L 193.0 111.0 L 193.0 111.0 L 192.0 111.0 L 192.0 111.0 L 192.0 111.0 L 191.0 111.0 L 191.0 112.0 L 191.0 112.0 L 192.0 113.0 L 193.0 114.0 L 194.0 115.0 L 196.0 116.0 L 197.0 118.0 L 199.0 121.0 L 201.0 123.0 L 203.0 127.0 L 206.0 130.0 L 208.0 135.0 L 210.0 139.0 L 213.0 144.0 L 215.0 148.0 L 217.0 152.0 L 218.0 156.0 L 219.0 160.0 L 220.0 164.0 L 220.0 168.0 L 221.0 173.0 L 221.0 177.0 L 221.0 182.0 L 221.0 188.0 L 221.0 193.0 L 221.0 197.0 L 221.0 201.0 L 221.0 203.0 L 221.0 204.0 " stroke="black" fill="none" stroke-width="5.0" stroke-linecap="round" stroke-linejoin="round" />
</svg>