<svg xmlns="http://www.w3.org/2000/svg" width="300" height="300" viewBox="0 0 300 300">
<path d="M 89.0 109.0 L 89.0 109.0 L 89.0 109.0 L 89.0 109.0 L 88.0 109.0 L 88.0 109.0 L 88.0 109.0 L 88.0 109.0 L 88.0 109.0 L 88.0 109.0 L 88.0 109.0 L 88.0 109.0 L 89.0 109.0 L 89.0 109.0 L 90.0 109.0 L 91.0 109.0 L 92.0 109.0 L 93.0 109.0 L 94.0 109.0 L 95.0 109.0 L 96.0 109.0 L 97.0 109.0 L 98.0 109.0 L 99.0 109.0 L 100.0 109.0 L 100.0 109.0 L 101.0 109.0 L 102.0 109.0 L 103.0 109.0 L 104.0 109.0 L 105.0 109.0 L 106.0 109.0 L 106.0 109.0 L 107.0 109.0 L 108.0 109.0 L 108.0 109.0 L 109.0 109.0 L 110.0 109.0 L 110.0 109.0 L 111.0 109.0 L 112.0 109.0 L 113.0 109.0 L 114.0 109.0 L 114.0 109.0 L 116.0 109.0 L 117.0 109.0 L 118.0 109.0 L 119.0 109.0 L 120.0 109.0 L 122.0 109.0 L 123.0 109.0 L 125.0 109.0 L 126.0 109.0 L 128.0 108.0 L 129.0 108.0 L 131.0 108.0 L 132.0 108.0 L 134.0 108.0 L 135.0 108.0 L 137.0 108.0 L 139.0 108.0 L 140.0 108.0 L 141.0 108.0 L 143.0 108.0 L 144.0 108.0 L 145.0 108.0 L 147.0 108.0 L 148.0 108.0 L 149.0 107.0 L 150.0 107.0 L 151.0 107.0 L 152.0 107.0 L 153.0 107.0 L 154.0 107.0 L 155.0 107.0 L 156.0 107.0 L 157.0 107.0 L 158.0 106.0 L 160.0 106.0 L 161.0 106.0 L 163.0 106.0 L 164.0 106.0 L 166.0 106.0 L 168.0 105.0 L 170.0 105.0 L 171.0 105.0 L 173.0 105.0 L 175.0 105.0 L 177.0 105.0 L 178.0 105.0 L 180.0 105.0 L 181.0 105.0 L 182.0 105.0 L 183.0 105.0 L 184.0 105.0 L 186.0 105.0 L 187.0 105.0 L 188.0 105.0 L 189.0 105.0 L 189.0 105.0 L 190.0 105.0 L 191.0 105.0 L 191.0 105.0 L 192.0 105.0 L 192.0 105.0 L 192.0 105.0 L 193.0 105.0 L 193.0 105.0 L 193.0 106.0 L 193.0 106.0 L 194.0 106.0 L 194.0 106.0 L 194.0 106.0 L 194.0 106.0 L 195.0 106.0 L 195.0 107.0 L 195.0 107.0 L 195.0 107.0 L 195.0 107.0 L 195.0 107.0 L 195.0 107.0 L 196.0 107.0 L 196.0 107.0 L 196.0 107.0 L 196.0 107.0 L 196.0 107.0 L 196.0 107.0 L 196.0 107.0 L 196.0 108.0 L 196.0 108.0 L 196.0 108.0 L 196.0 108.0 L 196.0 108.0 L 197.0 108.0 L 197.0 108.0 L 197.0 108.0 L 197.0 108.0 L 197.0 108.0 L 197.0 108.0 L 197.0 108.0 L 197.0 108.0 L 197.0 108.0 L 197.0 108.0 L 197.0 109.0 L 197.0 109.0 L 197.0 109.0 L 197.0 109.0 L 197.0 109.0 L 197.0 110.0 L 197.0 110.0 L 197.0 111.0 L 197.0 111.0 L 196.0 112.0 L 196.0 113.0 L 196.0 114.0 L 195.0 115.0 L 195.0 116.0 L 194.0 117.0 L 194.0 119.0 L 194.0 120.0 L 193.0 121.0 L 193.0 122.0 L 192.0 123.0 L 192.0 124.0 L 191.0 125.0 L 191.0 126.0 L 190.0 127.0 L 190.0 128.0 L 189.0 129.0 L 189.0 130.0 L 188.0 131.0 L 187.0 132.0 L 187.0 133.0 L 186.0 134.0 L 185.0 135.0 L 184.0 136.0 L 184.0 138.0 L 183.0 139.0 L 182.0 140.0 L 181.0 142.0 L 180.0 144.0 L 179.0 145.0 L 177.0 147.0 L 176.0 148.0 L 175.0 150.0 L 173.0 152.0 L 172.0 153.0 L 170.0 155.0 L 169.0 156.0 L 167.0 158.0 L 166.0 159.0 L 164.0 161.0 L 163.0 162.0 L 162.0 163.0 L 160.0 165.0 L 159.0 166.0 L 158.0 168.0 L 157.0 169.0 L 156.0 171.0 L 154.0 172.0 L 153.0 174.0 L 152.0 175.0 L 152.0 176.0 L 151.0 178.0 L 150.0 179.0 L 150.0 181.0 L 149.0 182.0 L 148.0 184.0 L 147.0 185.0 L 146.0 187.0 L 145.0 188.0 L 144.0 189.0 L 143.0 191.0 L 142.0 192.0 L 140.0 194.0 L 139.0 195.0 L 137.0 196.0 L 136.0 197.0 L 134.0 198.0 L 133.0 200.0 L 132.0 201.0 L 130.0 202.0 L 128.0 203.0 L 127.0 204.0 L 125.0 205.0 L 123.0 206.0 L 122.0 207.0 L 120.0 208.0 L 119.0 209.0 L 118.0 211.0 L 116.0 212.0 L 114.0 213.0 L 113.0 214.0 L 111.0 216.0 L 109.0 217.0 L 108.0 219.0 L 106.0 221.0 L 104.0 223.0 L 103.0 225.0 L 101.0 227.0 L 99.0 228.0 L 97.0 229.0 L 95.0 231.0 L 92.0 232.0 L 90.0 233.0 L 87.0 234.0 L 84.0 235.0 L 81.0 236.0 L 78.0 237.0 L 76.0 238.0 " stroke="black" fill="none" stroke-width="5.0" stroke-linecap="round" stroke-linejoin="round" />
<path d="M 160.0 169.0 L 160.0 169.0 L 160.0 169.0 L 160.0 169.0 L 160.0 170.0 L 162.0 171.0 L 163.0 172.0 L 166.0 175.0 L 170.0 179.0 L 175.0 185.0 L 180.0 191.0 L 185.0 198.0 L 190.0 204.0 L 194.0 210.0 L 196.0 214.0 L 199.0 218.0 L 202.0 220.0 L 204.0 223.0 L 207.0 226.0 L 209.0 228.0 L 211.0 230.0 L 213.0 231.0 L 214.0 231.0 " stroke="black" fill="none" stroke-width="5.0" stroke-linecap="round" stroke-linejoin="round" />
<path d="M 200.0 76.0 L 200.0 76.0 L 200.0 76.0 L 199.0 77.0 L 199.0 78.0 L 199.0 80.0 L 199.0 82.0 L 200.0 85.0 L 202.0 90.0 L 205.0 95.0 L 207.0 100.0 L 209.0 105.0 L 211.0 109.0 " stroke="black" fill="none" stroke-width="5.0" stroke-linecap="round" stroke-linejoin="round" />
<path d="M 224.0 73.0 L 224.0 73.0 L 224.0 73.0 L 224.0 73.0 L 224.0 73.0 L 224.0 73.0 L 224.0 73.0 L 225.0 73.0 L 226.0 73.0 L 227.0 74.0 L 229.0 76.0 L 230.0 78.0 L 232.0 82.0 L 233.0 86.0 L 235.0 91.0 L 236.0 97.0 " stroke="black" fill="none" stroke-width="5.0" stroke-linecap="round" stroke-linejoin="round" />
</svg>