<svg xmlns="http://www.w3.org/2000/svg" width="300" height="300" viewBox="0 0 300 300">
<path d="M 82.0 122.0 L 82.0 122.0 L 82.0 122.0 L 82.0 122.0 L 82.0 122.0 L 83.0 122.0 L 83.0 122.0 L 84.0 122.0 L 85.0 122.0 L 86.0 122.0 L 87.0 122.0 L 89.0 122.0 L 91.0 122.0 L 92.0 122.0 L 94.0 122.0 L 96.0 122.0 L 99.0 122.0 L 101.0 122.0 L 104.0 122.0 L 107.0 122.0 L 109.0 122.0 L 112.0 122.0 L 116.0 122.0 L 119.0 122.0 L 124.0 122.0 L 129.0 123.0 L 136.0 123.0 L 143.0 123.0 L 148.0 123.0 L 154.0 123.0 L 160.0 123.0 L 167.0 123.0 L 174.0 122.0 L 183.0 122.0 L 190.0 121.0 L 196.0 121.0 L 202.0 120.0 L 207.0 120.0 L 212.0 120.0 L 218.0 120.0 L 223.0 120.0 L 226.0 121.0 L 229.0 122.0 L 231.0 123.0 L 232.0 125.0 L 232.0 127.0 " stroke="black" fill="none" stroke-width="5.0" stroke-linecap="round" stroke-linejoin="round" />
<path d="M 117.0 129.0 L 117.0 129.0 L 117.0 129.0 L 117.0 130.0 L 117.0 132.0 L 116.0 134.0 L 116.0 138.0 L 116.0 144.0 L 116.0 150.0 L 116.0 157.0 L 116.0 164.0 L 116.0 170.0 L 116.0 177.0 L 116.0 183.0 L 116.0 188.0 L 116.0 192.0 L 116.0 193.0 " stroke="black" fill="none" stroke-width="5.0" stroke-linecap="round" stroke-linejoin="round" />
<path d="M 70.0 194.0 L 70.0 194.0 L 70.0 194.0 L 70.0 194.0 L 70.0 194.0 L 70.0 194.0 L 70.0 194.0 L 70.0 195.0 L 71.0 195.0 L 73.0 195.0 L 75.0 195.0 L 79.0 196.0 L 84.0 196.0 L 90.0 196.0 L 98.0 197.0 L 104.0 197.0 L 112.0 197.0 L 120.0 197.0 L 129.0 196.0 L 140.0 195.0 L 150.0 195.0 L 158.0 195.0 L 167.0 195.0 L 178.0 195.0 L 187.0 196.0 L 194.0 196.0 L 200.0 197.0 L 204.0 197.0 L 208.0 197.0 L 213.0 197.0 L 218.0 197.0 L 223.0 197.0 L 228.0 197.0 L 230.0 197.0 L 233.0 197.0 " stroke="black" fill="none" stroke-width="5.0" stroke-linecap="round" stroke-linejoin="round" />
<path d="M 179.0 91.0 L 179.0 91.0 L 179.0 91.0 L 179.0 91.0 L 180.0 91.0 L 180.0 91.0 L 180.0 91.0 L 180.0 92.0 L 181.0 95.0 L 181.0 99.0 L 181.0 105.0 L 181.0 112.0 L 181.0 119.0 L 181.0 128.0 L 180.0 137.0 L 180.0 147.0 L 180.0 156.0 L 180.0 166.0 L 179.0 174.0 L 179.0 184.0 L 178.0 194.0 L 178.0 202.0 L 177.0 211.0 L 176.0 220.0 L 176.0 229.0 L 175.0 237.0 L 175.0 243.0 L 175.0 246.0 L 175.0 248.0 L 175.0 248.0 L 175.0 248.0 L 176.0 247.0 L 176.0 246.0 L 177.0 244.0 " stroke="black" fill="none" stroke-width="5.0" stroke-linecap="round" stroke-linejoin="round" />
</svg>