<svg xmlns="http://www.w3.org/2000/svg" width="300" height="300" viewBox="0 0 300 300">
<path d="M 103.0 78.0 L 103.0 78.0 L 103.0 78.0 L 102.0 78.0 L 102.0 78.0 L 102.0 77.0 L 102.0 77.0 L 102.0 77.0 L 102.0 77.0 L 102.0 77.0 L 103.0 77.0 L 105.0 78.0 L 108.0 79.0 L 112.0 80.0 L 116.0 81.0 L 123.0 83.0 L 131.0 84.0 L 139.0 86.0 L 147.0 88.0 L 153.0 89.0 L 158.0 91.0 L 164.0 92.0 L 169.0 93.0 L 174.0 93.0 L 179.0 94.0 L 183.0 95.0 L 185.0 96.0 L 186.0 97.0 " stroke="black" fill="none" stroke-width="5.0" stroke-linecap="round" stroke-linejoin="round" />
<path d="M 86.0 144.0 L 86.0 144.0 L 86.0 144.0 L 86.0 144.0 L 85.0 144.0 L 85.0 144.0 L 85.0 144.0 L 85.0 144.0 L 85.0 144.0 L 85.0 144.0 L 85.0 144.0 L 85.0 144.0 L 86.0 144.0 L 87.0 144.0 L 88.0 143.0 L 90.0 143.0 L 91.0 143.0 L 93.0 142.0 L 95.0 141.0 L 98.0 141.0 L 100.0 140.0 L 102.0 139.0 L 104.0 139.0 L 106.0 139.0 L 108.0 138.0 L 110.0 138.0 L 112.0 138.0 L 114.0 137.0 L 117.0 137.0 L 119.0 137.0 L 121.0 136.0 L 123.0 136.0 L 126.0 135.0 L 128.0 135.0 L 131.0 135.0 L 133.0 134.0 L 136.0 134.0 L 138.0 134.0 L 140.0 134.0 L 143.0 133.0 L 145.0 133.0 L 147.0 133.0 L 149.0 133.0 L 151.0 132.0 L 153.0 132.0 L 154.0 132.0 L 156.0 132.0 L 158.0 132.0 L 160.0 132.0 L 162.0 132.0 L 165.0 133.0 L 168.0 134.0 L 171.0 134.0 L 174.0 135.0 L 177.0 136.0 L 181.0 137.0 L 184.0 138.0 L 187.0 139.0 L 189.0 140.0 L 191.0 141.0 L 193.0 143.0 L 195.0 144.0 L 196.0 146.0 L 197.0 148.0 L 198.0 149.0 L 199.0 151.0 L 199.0 154.0 L 200.0 156.0 L 201.0 159.0 L 201.0 161.0 L 201.0 165.0 L 201.0 168.0 L 201.0 171.0 L 201.0 174.0 L 200.0 178.0 L 199.0 182.0 L 198.0 186.0 L 196.0 191.0 L 194.0 195.0 L 193.0 200.0 L 190.0 204.0 L 188.0 208.0 L 185.0 212.0 L 181.0 215.0 L 177.0 218.0 L 172.0 221.0 L 167.0 224.0 L 161.0 227.0 L 156.0 230.0 L 152.0 232.0 L 148.0 234.0 L 144.0 236.0 L 140.0 237.0 L 136.0 238.0 L 131.0 239.0 L 127.0 240.0 L 124.0 240.0 L 121.0 239.0 L 119.0 237.0 " stroke="black" fill="none" stroke-width="5.0" stroke-linecap="round" stroke-linejoin="round" />
<path d="M 199.0 107.0 L 199.0 107.0 L 199.0 107.0 L 199.0 107.0 L 200.0 108.0 L 200.0 109.0 L 202.0 111.0 L 203.0 113.0 L 205.0 115.0 L 207.0 118.0 L 209.0 121.0 L 211.0 123.0 L 212.0 125.0 L 214.0 127.0 L 215.0 127.0 L 216.0 127.0 " stroke="black" fill="none" stroke-width="5.0" stroke-linecap="round" stroke-linejoin="round" />
<path d="M 223.0 99.0 L 223.0 99.0 L 223.0 99.0 L 223.0 100.0 L 224.0 100.0 L 225.0 101.0 L 226.0 103.0 L 227.0 105.0 L 230.0 107.0 L 232.0 109.0 L 234.0 112.0 L 237.0 115.0 L 239.0 117.0 L 240.0 119.0 L 242.0 120.0 L 243.0 121.0 L 243.0 122.0 " stroke="black" fill="none" stroke-width="5.0" stroke-linecap="round" stroke-linejoin="round" />
</svg>