<svg xmlns="http://www.w3.org/2000/svg" width="300" height="300" viewBox="0 0 300 300">
<path d="M 77.0 120.0 L 77.0 120.0 L 76.0 120.0 L 75.0 120.0 L 74.0 120.0 L 74.0 120.0 L 74.0 120.0 L 74.0 120.0 L 74.0 120.0 L 75.0 120.0 L 77.0 120.0 L 79.0 120.0 L 82.0 120.0 L 86.0 120.0 L 90.0 120.0 L 94.0 120.0 L 99.0 120.0 L 104.0 120.0 L 109.0 120.0 L 114.0 119.0 L 121.0 118.0 L 128.0 117.0 L 136.0 116.0 L 144.0 114.0 L 150.0 113.0 L 153.0 112.0 L 156.0 111.0 L 159.0 110.0 L 162.0 109.0 L 163.0 109.0 " stroke="black" fill="none" stroke-width="5.0" stroke-linecap="round" stroke-linejoin="round" />
<path d="M 127.0 83.0 L 127.0 83.0 L 127.0 83.0 L 127.0 84.0 L 127.0 84.0 L 127.0 85.0 L 128.0 86.0 L 128.0 87.0 L 128.0 90.0 L 129.0 93.0 L 129.0 96.0 L 129.0 101.0 L 128.0 106.0 L 127.0 112.0 L 125.0 117.0 L 123.0 123.0 L 122.0 129.0 L 120.0 135.0 L 118.0 142.0 L 117.0 149.0 L 115.0 156.0 L 114.0 162.0 L 113.0 169.0 L 112.0 176.0 L 110.0 185.0 L 109.0 193.0 L 107.0 200.0 L 105.0 206.0 L 103.0 211.0 L 100.0 216.0 L 97.0 222.0 L 93.0 227.0 L 89.0 232.0 L 85.0 236.0 L 82.0 239.0 " stroke="black" fill="none" stroke-width="5.0" stroke-linecap="round" stroke-linejoin="round" />
<path d="M 169.0 147.0 L 167.0 147.0 L 165.0 147.0 L 163.0 147.0 L 162.0 147.0 L 161.0 147.0 L 161.0 147.0 L 161.0 147.0 L 163.0 147.0 L 165.0 147.0 L 168.0 147.0 L 173.0 147.0 L 178.0 147.0 L 183.0 147.0 L 189.0 147.0 L 194.0 147.0 L 199.0 147.0 L 204.0 147.0 L 209.0 147.0 L 214.0 147.0 L 218.0 147.0 L 219.0 148.0 " stroke="black" fill="none" stroke-width="5.0" stroke-linecap="round" stroke-linejoin="round" />
<path d="M 152.0 196.0 L 152.0 196.0 L 152.0 196.0 L 152.0 196.0 L 152.0 196.0 L 152.0 196.0 L 152.0 197.0 L 152.0 197.0 L 152.0 198.0 L 152.0 199.0 L 152.0 201.0 L 151.0 203.0 L 151.0 206.0 L 151.0 208.0 L 151.0 212.0 L 151.0 215.0 L 150.0 218.0 L 150.0 222.0 L 150.0 225.0 L 150.0 227.0 L 150.0 230.0 L 151.0 232.0 L 152.0 233.0 L 152.0 234.0 L 153.0 235.0 L 154.0 235.0 L 156.0 236.0 L 157.0 236.0 L 158.0 236.0 L 160.0 236.0 L 162.0 236.0 L 164.0 236.0 L 166.0 236.0 L 168.0 236.0 L 170.0 236.0 L 173.0 236.0 L 176.0 236.0 L 179.0 236.0 L 182.0 236.0 L 185.0 236.0 L 189.0 236.0 L 192.0 235.0 L 195.0 235.0 L 197.0 235.0 L 200.0 235.0 L 202.0 235.0 L 205.0 235.0 L 208.0 235.0 L 210.0 235.0 L 213.0 235.0 L 216.0 235.0 L 219.0 235.0 L 222.0 235.0 L 225.0 234.0 L 227.0 234.0 L 229.0 233.0 L 230.0 233.0 L 231.0 232.0 " stroke="black" fill="none" stroke-width="5.0" stroke-linecap="round" stroke-linejoin="round" />
</svg>