<svg xmlns="http://www.w3.org/2000/svg" width="300" height="300" viewBox="0 0 300 300">
<path d="M 82.0 85.0 L 82.0 85.0 L 82.0 85.0 L 82.0 84.0 L 81.0 84.0 L 81.0 83.0 L 81.0 83.0 L 81.0 83.0 L 81.0 83.0 L 81.0 84.0 L 81.0 85.0 L 80.0 86.0 L 80.0 87.0 L 80.0 89.0 L 80.0 91.0 L 80.0 92.0 L 79.0 94.0 L 79.0 96.0 L 79.0 98.0 L 79.0 101.0 L 78.0 104.0 L 78.0 106.0 L 77.0 109.0 L 77.0 112.0 L 76.0 115.0 L 76.0 118.0 L 75.0 121.0 L 75.0 124.0 L 75.0 127.0 L 74.0 130.0 L 74.0 133.0 L 74.0 136.0 L 73.0 140.0 L 73.0 143.0 L 73.0 146.0 L 72.0 149.0 L 72.0 152.0 L 72.0 154.0 L 72.0 157.0 L 72.0 159.0 L 72.0 161.0 L 72.0 164.0 L 72.0 166.0 L 72.0 168.0 L 72.0 171.0 L 71.0 173.0 L 71.0 175.0 L 71.0 177.0 L 71.0 180.0 L 71.0 182.0 L 71.0 185.0 L 71.0 188.0 L 71.0 191.0 L 71.0 194.0 L 71.0 196.0 L 71.0 199.0 L 71.0 202.0 L 71.0 204.0 L 72.0 206.0 L 72.0 208.0 L 72.0 209.0 L 72.0 211.0 L 72.0 213.0 L 73.0 214.0 L 73.0 215.0 L 73.0 217.0 L 73.0 218.0 L 74.0 220.0 L 74.0 223.0 L 75.0 225.0 L 75.0 227.0 L 76.0 230.0 L 77.0 231.0 L 78.0 233.0 L 78.0 234.0 L 79.0 235.0 L 80.0 236.0 L 80.0 236.0 L 80.0 236.0 L 81.0 237.0 L 81.0 237.0 L 81.0 237.0 L 81.0 237.0 L 81.0 237.0 L 81.0 237.0 L 81.0 237.0 L 81.0 237.0 L 81.0 237.0 L 81.0 237.0 L 81.0 237.0 L 81.0 237.0 L 82.0 237.0 L 82.0 236.0 L 82.0 235.0 L 82.0 234.0 L 82.0 233.0 L 82.0 232.0 L 82.0 230.0 L 82.0 228.0 L 83.0 226.0 L 83.0 223.0 L 83.0 220.0 L 84.0 217.0 L 84.0 214.0 L 85.0 210.0 L 86.0 207.0 L 87.0 204.0 L 88.0 200.0 L 90.0 197.0 L 91.0 194.0 L 93.0 191.0 L 95.0 187.0 L 97.0 184.0 L 99.0 181.0 L 100.0 178.0 L 101.0 175.0 L 102.0 173.0 L 103.0 171.0 L 104.0 170.0 L 105.0 168.0 L 105.0 167.0 " stroke="black" fill="none" stroke-width="5.0" stroke-linecap="round" stroke-linejoin="round" />
<path d="M 139.0 109.0 L 138.0 109.0 L 137.0 109.0 L 137.0 109.0 L 136.0 109.0 L 136.0 109.0 L 135.0 109.0 L 135.0 109.0 L 135.0 109.0 L 136.0 109.0 L 138.0 109.0 L 140.0 109.0 L 143.0 108.0 L 146.0 108.0 L 150.0 108.0 L 154.0 108.0 L 159.0 108.0 L 166.0 107.0 L 173.0 107.0 L 181.0 106.0 L 188.0 105.0 L 194.0 104.0 L 198.0 103.0 L 201.0 103.0 L 204.0 103.0 L 206.0 103.0 L 208.0 103.0 " stroke="black" fill="none" stroke-width="5.0" stroke-linecap="round" stroke-linejoin="round" />
<path d="M 140.0 163.0 L 140.0 163.0 L 140.0 163.0 L 140.0 163.0 L 139.0 163.0 L 139.0 163.0 L 139.0 162.0 L 139.0 162.0 L 140.0 162.0 L 141.0 162.0 L 143.0 161.0 L 146.0 161.0 L 149.0 161.0 L 153.0 160.0 L 158.0 159.0 L 165.0 159.0 L 173.0 157.0 L 182.0 156.0 L 189.0 154.0 L 195.0 153.0 L 200.0 152.0 L 203.0 151.0 L 206.0 150.0 L 210.0 150.0 L 213.0 150.0 L 216.0 149.0 L 219.0 149.0 L 221.0 149.0 L 222.0 149.0 " stroke="black" fill="none" stroke-width="5.0" stroke-linecap="round" stroke-linejoin="round" />
<path d="M 183.0 114.0 L 183.0 114.0 L 183.0 114.0 L 183.0 114.0 L 183.0 115.0 L 183.0 116.0 L 183.0 117.0 L 183.0 119.0 L 183.0 121.0 L 183.0 124.0 L 184.0 127.0 L 184.0 131.0 L 185.0 135.0 L 185.0 139.0 L 185.0 144.0 L 185.0 149.0 L 185.0 153.0 L 185.0 157.0 L 185.0 162.0 L 185.0 166.0 L 185.0 170.0 L 185.0 174.0 L 185.0 178.0 L 185.0 182.0 L 185.0 187.0 L 185.0 191.0 L 186.0 195.0 L 186.0 200.0 L 186.0 204.0 L 186.0 208.0 L 186.0 213.0 L 185.0 217.0 L 184.0 220.0 L 183.0 225.0 L 181.0 228.0 L 179.0 232.0 L 177.0 235.0 L 175.0 237.0 L 173.0 239.0 L 171.0 240.0 L 168.0 242.0 L 166.0 243.0 L 162.0 243.0 L 160.0 244.0 L 157.0 244.0 L 155.0 244.0 L 153.0 244.0 L 151.0 243.0 L 149.0 241.0 L 147.0 238.0 L 145.0 236.0 L 143.0 233.0 L 142.0 230.0 L 140.0 228.0 L 138.0 225.0 L 137.0 222.0 L 136.0 219.0 L 135.0 215.0 L 135.0 212.0 L 135.0 209.0 L 135.0 206.0 L 135.0 204.0 L 135.0 202.0 L 136.0 201.0 L 137.0 200.0 L 137.0 200.0 L 139.0 200.0 L 140.0 200.0 L 142.0 200.0 L 144.0 200.0 L 146.0 200.0 L 148.0 200.0 L 150.0 199.0 L 153.0 199.0 L 156.0 199.0 L 160.0 199.0 L 165.0 199.0 L 170.0 199.0 L 176.0 199.0 L 181.0 200.0 L 187.0 201.0 L 192.0 202.0 L 196.0 204.0 L 200.0 206.0 L 204.0 208.0 L 208.0 210.0 L 212.0 212.0 L 216.0 214.0 L 219.0 215.0 L 222.0 217.0 L 225.0 218.0 L 228.0 218.0 L 230.0 218.0 L 232.0 218.0 L 233.0 218.0 L 233.0 217.0 " stroke="black" fill="none" stroke-width="5.0" stroke-linecap="round" stroke-linejoin="round" />
<path d="M 211.0 81.0 L 211.0 81.0 L 211.0 81.0 L 211.0 82.0 L 211.0 82.0 L 211.0 83.0 L 212.0 84.0 L 213.0 87.0 L 214.0 90.0 L 216.0 94.0 L 218.0 98.0 L 219.0 103.0 L 220.0 107.0 L 221.0 109.0 L 222.0 110.0 " stroke="black" fill="none" stroke-width="5.0" stroke-linecap="round" stroke-linejoin="round" />
<path d="M 233.0 83.0 L 233.0 83.0 L 233.0 83.0 L 233.0 83.0 L 233.0 83.0 L 233.0 83.0 L 233.0 83.0 L 234.0 83.0 L 234.0 84.0 L 235.0 85.0 L 236.0 88.0 L 237.0 91.0 L 237.0 95.0 L 238.0 100.0 L 238.0 103.0 " stroke="black" fill="none" stroke-width="5.0" stroke-linecap="round" stroke-linejoin="round" />
</svg>