<svg xmlns="http://www.w3.org/2000/svg" width="300" height="300" viewBox="0 0 300 300">
<path d="M 69.0 110.0 L 69.0 110.0 L 69.0 110.0 L 69.0 110.0 L 69.0 110.0 L 69.0 110.0 L 69.0 110.0 L 69.0 110.0 L 69.0 110.0 L 69.0 110.0 L 69.0 110.0 L 69.0 110.0 L 69.0 110.0 L 69.0 110.0 L 70.0 110.0 L 71.0 110.0 L 71.0 110.0 L 73.0 110.0 L 74.0 110.0 L 75.0 110.0 L 77.0 110.0 L 79.0 110.0 L 80.0 110.0 L 82.0 110.0 L 84.0 110.0 L 86.0 110.0 L 88.0 110.0 L 90.0 110.0 L 92.0 109.0 L 94.0 109.0 L 95.0 109.0 L 97.0 109.0 L 99.0 108.0 L 101.0 108.0 L 103.0 108.0 L 105.0 107.0 L 107.0 107.0 L 109.0 106.0 L 111.0 106.0 L 112.0 106.0 L 114.0 105.0 L 116.0 105.0 L 118.0 104.0 L 120.0 104.0 L 122.0 103.0 L 124.0 103.0 L 125.0 102.0 L 127.0 102.0 L 129.0 102.0 L 130.0 102.0 L 132.0 101.0 L 134.0 101.0 L 135.0 101.0 L 136.0 101.0 L 137.0 101.0 L 138.0 101.0 L 139.0 101.0 L 139.0 100.0 L 139.0 100.0 L 139.0 100.0 L 139.0 100.0 L 139.0 100.0 L 139.0 100.0 L 139.0 100.0 L 139.0 100.0 L 139.0 100.0 L 139.0 100.0 L 138.0 100.0 L 138.0 100.0 L 137.0 101.0 L 137.0 101.0 L 137.0 101.0 L 136.0 101.0 L 136.0 102.0 L 135.0 102.0 L 134.0 103.0 L 133.0 103.0 L 132.0 104.0 L 131.0 104.0 L 130.0 105.0 L 129.0 106.0 L 127.0 107.0 L 126.0 108.0 L 124.0 109.0 L 123.0 110.0 L 121.0 111.0 L 120.0 112.0 L 118.0 113.0 L 117.0 114.0 L 116.0 115.0 L 115.0 116.0 L 114.0 117.0 L 113.0 118.0 L 112.0 119.0 L 111.0 120.0 L 110.0 121.0 L 109.0 122.0 L 109.0 123.0 L 108.0 125.0 L 107.0 126.0 L 106.0 127.0 L 105.0 129.0 L 105.0 130.0 L 104.0 131.0 L 103.0 132.0 L 103.0 134.0 L 102.0 135.0 L 101.0 137.0 L 100.0 139.0 L 100.0 141.0 L 99.0 143.0 L 98.0 145.0 L 96.0 147.0 L 95.0 149.0 L 94.0 151.0 L 94.0 152.0 L 93.0 154.0 L 92.0 155.0 L 92.0 157.0 L 91.0 158.0 L 90.0 160.0 L 90.0 161.0 L 89.0 163.0 L 88.0 164.0 L 88.0 166.0 L 87.0 167.0 L 87.0 169.0 L 86.0 171.0 L 85.0 173.0 L 85.0 174.0 L 85.0 176.0 L 84.0 178.0 L 84.0 180.0 L 84.0 182.0 L 84.0 184.0 L 84.0 186.0 L 84.0 188.0 L 84.0 190.0 L 84.0 192.0 L 84.0 194.0 L 84.0 195.0 L 84.0 197.0 L 84.0 198.0 L 85.0 200.0 L 85.0 201.0 L 85.0 203.0 L 86.0 204.0 L 86.0 205.0 L 87.0 206.0 L 88.0 208.0 L 88.0 209.0 L 89.0 210.0 L 90.0 212.0 L 90.0 213.0 L 91.0 214.0 L 92.0 215.0 L 93.0 216.0 L 93.0 217.0 L 94.0 218.0 L 95.0 220.0 L 96.0 221.0 L 96.0 222.0 L 97.0 223.0 L 98.0 225.0 L 99.0 226.0 L 100.0 227.0 L 101.0 228.0 L 102.0 230.0 L 103.0 231.0 L 104.0 232.0 L 105.0 232.0 L 106.0 233.0 L 107.0 234.0 L 107.0 235.0 L 108.0 236.0 L 109.0 236.0 L 109.0 237.0 L 110.0 237.0 L 111.0 238.0 L 112.0 239.0 L 113.0 239.0 L 114.0 240.0 L 115.0 240.0 L 116.0 241.0 L 117.0 241.0 L 118.0 242.0 L 119.0 242.0 L 121.0 242.0 L 122.0 243.0 L 123.0 243.0 L 125.0 243.0 L 126.0 243.0 L 128.0 244.0 L 129.0 244.0 L 131.0 244.0 L 133.0 244.0 L 135.0 244.0 L 136.0 245.0 L 138.0 245.0 L 139.0 245.0 L 141.0 245.0 L 142.0 245.0 L 144.0 245.0 L 145.0 245.0 L 146.0 245.0 L 147.0 245.0 L 148.0 244.0 L 149.0 244.0 L 149.0 244.0 L 150.0 243.0 L 151.0 243.0 L 152.0 242.0 L 152.0 242.0 L 153.0 241.0 L 153.0 240.0 L 154.0 239.0 L 155.0 239.0 L 155.0 238.0 L 156.0 237.0 L 156.0 236.0 L 157.0 236.0 L 158.0 235.0 L 158.0 234.0 L 159.0 234.0 L 160.0 233.0 L 161.0 233.0 L 161.0 232.0 L 162.0 231.0 L 163.0 231.0 L 164.0 230.0 L 165.0 229.0 L 165.0 228.0 L 166.0 227.0 L 167.0 226.0 L 168.0 225.0 L 168.0 224.0 L 169.0 223.0 L 170.0 221.0 L 171.0 220.0 L 171.0 218.0 L 172.0 217.0 L 173.0 216.0 L 173.0 214.0 L 174.0 213.0 L 175.0 212.0 L 176.0 211.0 L 176.0 209.0 L 177.0 208.0 L 178.0 207.0 L 178.0 205.0 L 179.0 204.0 L 180.0 203.0 L 180.0 202.0 L 181.0 200.0 L 181.0 199.0 L 182.0 198.0 L 182.0 196.0 L 183.0 195.0 L 184.0 194.0 L 184.0 193.0 L 185.0 191.0 L 185.0 189.0 L 186.0 187.0 L 186.0 185.0 L 187.0 183.0 L 187.0 181.0 L 188.0 179.0 L 188.0 177.0 L 188.0 175.0 L 189.0 173.0 L 189.0 171.0 L 189.0 169.0 L 190.0 167.0 L 190.0 166.0 L 190.0 164.0 L 190.0 162.0 L 191.0 160.0 L 191.0 158.0 L 191.0 156.0 L 191.0 155.0 L 191.0 153.0 L 191.0 152.0 L 192.0 150.0 L 192.0 149.0 L 192.0 148.0 L 192.0 147.0 L 192.0 145.0 L 193.0 144.0 L 193.0 143.0 L 193.0 141.0 L 193.0 140.0 L 193.0 138.0 L 194.0 137.0 L 194.0 135.0 L 194.0 133.0 L 194.0 131.0 L 194.0 129.0 L 194.0 127.0 L 194.0 125.0 L 194.0 123.0 L 194.0 122.0 L 194.0 120.0 L 194.0 119.0 L 194.0 117.0 L 194.0 116.0 L 194.0 114.0 L 194.0 113.0 L 194.0 111.0 L 194.0 109.0 L 194.0 108.0 L 194.0 107.0 L 194.0 105.0 L 194.0 104.0 L 194.0 102.0 L 194.0 101.0 L 194.0 100.0 L 194.0 99.0 L 194.0 98.0 L 194.0 97.0 L 194.0 96.0 L 194.0 96.0 L 194.0 95.0 L 194.0 95.0 L 194.0 95.0 L 194.0 95.0 L 194.0 95.0 L 194.0 95.0 L 194.0 95.0 L 194.0 95.0 L 194.0 95.0 L 194.0 95.0 L 194.0 95.0 L 194.0 95.0 L 194.0 96.0 L 194.0 96.0 L 194.0 97.0 L 194.0 98.0 L 194.0 99.0 L 194.0 100.0 L 194.0 101.0 L 194.0 102.0 L 194.0 103.0 L 194.0 104.0 L 194.0 105.0 L 194.0 106.0 L 194.0 108.0 L 194.0 109.0 L 194.0 111.0 L 194.0 113.0 L 194.0 114.0 L 194.0 116.0 L 194.0 117.0 L 195.0 119.0 L 195.0 120.0 L 195.0 122.0 L 195.0 123.0 L 196.0 125.0 L 196.0 127.0 L 196.0 128.0 L 197.0 130.0 L 197.0 132.0 L 198.0 133.0 L 198.0 135.0 L 199.0 137.0 L 199.0 138.0 L 200.0 140.0 L 200.0 141.0 L 201.0 143.0 L 202.0 145.0 L 202.0 147.0 L 203.0 149.0 L 204.0 151.0 L 205.0 153.0 L 206.0 155.0 L 207.0 157.0 L 208.0 158.0 L 209.0 160.0 L 210.0 161.0 L 211.0 163.0 L 213.0 164.0 L 214.0 165.0 L 216.0 167.0 L 217.0 168.0 L 219.0 170.0 L 221.0 172.0 L 223.0 174.0 L 225.0 176.0 L 226.0 179.0 L 227.0 181.0 L 228.0 183.0 L 229.0 184.0 L 229.0 184.0 " stroke="black" fill="none" stroke-width="5.0" stroke-linecap="round" stroke-linejoin="round" />
<path d="M 206.0 80.0 L 205.0 80.0 L 204.0 80.0 L 204.0 80.0 L 204.0 80.0 L 204.0 80.0 L 204.0 81.0 L 205.0 82.0 L 207.0 84.0 L 209.0 87.0 L 212.0 90.0 L 215.0 94.0 L 217.0 98.0 L 218.0 102.0 L 220.0 106.0 L 221.0 109.0 L 221.0 111.0 L 222.0 113.0 L 223.0 113.0 L 223.0 113.0 " stroke="black" fill="none" stroke-width="5.0" stroke-linecap="round" stroke-linejoin="round" />
<path d="M 226.0 81.0 L 226.0 81.0 L 226.0 81.0 L 226.0 81.0 L 225.0 81.0 L 225.0 81.0 L 225.0 82.0 L 226.0 83.0 L 227.0 84.0 L 229.0 86.0 L 230.0 88.0 L 232.0 91.0 L 234.0 94.0 L 235.0 97.0 L 236.0 100.0 L 237.0 102.0 " stroke="black" fill="none" stroke-width="5.0" stroke-linecap="round" stroke-linejoin="round" />
</svg>