<svg xmlns="http://www.w3.org/2000/svg" width="300" height="300" viewBox="0 0 300 300">
<path d="M 97.0 96.0 L 97.0 96.0 L 96.0 96.0 L 95.0 96.0 L 95.0 96.0 L 94.0 96.0 L 94.0 96.0 L 94.0 96.0 L 94.0 96.0 L 94.0 96.0 L 94.0 96.0 L 94.0 96.0 L 94.0 96.0 L 95.0 96.0 L 96.0 96.0 L 96.0 96.0 L 98.0 96.0 L 99.0 96.0 L 100.0 96.0 L 101.0 96.0 L 102.0 96.0 L 103.0 96.0 L 104.0 96.0 L 105.0 96.0 L 106.0 96.0 L 107.0 96.0 L 108.0 95.0 L 109.0 95.0 L 111.0 95.0 L 112.0 95.0 L 114.0 95.0 L 115.0 95.0 L 118.0 95.0 L 121.0 95.0 L 124.0 94.0 L 128.0 94.0 L 131.0 93.0 L 135.0 93.0 L 138.0 92.0 L 141.0 92.0 L 143.0 92.0 L 145.0 91.0 L 146.0 91.0 L 148.0 91.0 L 149.0 91.0 L 150.0 91.0 L 151.0 91.0 L 152.0 91.0 L 153.0 91.0 L 153.0 91.0 L 154.0 91.0 L 155.0 91.0 L 155.0 91.0 L 156.0 91.0 L 156.0 91.0 L 156.0 91.0 L 156.0 91.0 L 157.0 91.0 L 157.0 91.0 L 157.0 91.0 L 157.0 91.0 L 157.0 91.0 L 157.0 91.0 L 157.0 91.0 L 157.0 91.0 L 157.0 92.0 L 157.0 92.0 L 157.0 92.0 L 157.0 93.0 L 157.0 93.0 L 157.0 94.0 L 157.0 95.0 L 157.0 96.0 L 157.0 97.0 L 157.0 98.0 L 156.0 100.0 L 156.0 102.0 L 155.0 104.0 L 155.0 106.0 L 154.0 108.0 L 154.0 111.0 L 153.0 113.0 L 152.0 115.0 L 152.0 118.0 L 151.0 120.0 L 150.0 123.0 L 150.0 125.0 L 149.0 127.0 L 148.0 129.0 L 148.0 132.0 L 147.0 134.0 L 146.0 137.0 L 146.0 139.0 L 145.0 142.0 L 144.0 144.0 L 144.0 147.0 L 143.0 150.0 L 142.0 152.0 L 141.0 154.0 L 140.0 156.0 L 139.0 158.0 L 139.0 160.0 L 138.0 162.0 L 137.0 164.0 L 136.0 166.0 L 135.0 168.0 L 134.0 169.0 L 133.0 171.0 L 132.0 173.0 L 131.0 175.0 L 130.0 177.0 L 129.0 179.0 L 128.0 182.0 L 127.0 184.0 L 125.0 186.0 L 124.0 188.0 L 123.0 190.0 L 122.0 192.0 L 121.0 194.0 L 120.0 195.0 L 119.0 197.0 L 118.0 199.0 L 117.0 200.0 L 115.0 202.0 L 114.0 203.0 L 113.0 204.0 L 112.0 206.0 L 111.0 207.0 L 110.0 208.0 L 110.0 209.0 L 109.0 210.0 L 108.0 211.0 L 107.0 212.0 L 106.0 213.0 L 105.0 214.0 L 104.0 215.0 L 103.0 216.0 L 103.0 217.0 L 102.0 218.0 L 101.0 219.0 L 100.0 219.0 L 99.0 220.0 L 98.0 221.0 L 97.0 222.0 L 95.0 222.0 L 94.0 223.0 L 93.0 223.0 L 92.0 224.0 L 91.0 224.0 L 90.0 224.0 L 89.0 225.0 L 87.0 225.0 L 86.0 225.0 L 85.0 225.0 L 83.0 225.0 L 82.0 225.0 L 80.0 225.0 L 79.0 225.0 L 78.0 224.0 L 76.0 223.0 L 75.0 223.0 L 74.0 222.0 L 73.0 221.0 L 73.0 221.0 L 72.0 220.0 L 72.0 219.0 L 71.0 218.0 L 71.0 217.0 L 71.0 216.0 L 71.0 214.0 L 71.0 213.0 L 71.0 211.0 L 71.0 209.0 L 71.0 207.0 L 71.0 205.0 L 72.0 203.0 L 72.0 201.0 L 72.0 199.0 L 73.0 197.0 L 73.0 196.0 L 74.0 194.0 L 75.0 192.0 L 76.0 190.0 L 76.0 188.0 L 78.0 186.0 L 79.0 184.0 L 80.0 181.0 L 81.0 179.0 L 82.0 177.0 L 84.0 175.0 L 85.0 173.0 L 87.0 171.0 L 89.0 169.0 L 90.0 168.0 L 92.0 166.0 L 93.0 165.0 L 95.0 163.0 L 96.0 162.0 L 98.0 161.0 L 100.0 160.0 L 101.0 158.0 L 102.0 157.0 L 103.0 156.0 L 105.0 155.0 L 106.0 154.0 L 107.0 153.0 L 108.0 152.0 L 109.0 151.0 L 110.0 150.0 L 111.0 149.0 L 112.0 148.0 L 113.0 148.0 L 114.0 147.0 L 115.0 146.0 L 117.0 146.0 L 118.0 145.0 L 119.0 144.0 L 121.0 143.0 L 122.0 143.0 L 124.0 142.0 L 125.0 141.0 L 127.0 141.0 L 129.0 140.0 L 130.0 139.0 L 132.0 139.0 L 134.0 138.0 L 136.0 137.0 L 138.0 137.0 L 139.0 136.0 L 141.0 136.0 L 142.0 135.0 L 143.0 135.0 L 144.0 135.0 L 145.0 134.0 L 145.0 134.0 L 146.0 134.0 L 146.0 134.0 L 147.0 134.0 L 148.0 134.0 L 148.0 134.0 L 149.0 134.0 L 150.0 133.0 L 150.0 133.0 L 151.0 133.0 L 152.0 133.0 L 152.0 133.0 L 153.0 133.0 L 154.0 133.0 L 155.0 133.0 L 155.0 133.0 L 156.0 133.0 L 157.0 133.0 L 158.0 133.0 L 159.0 133.0 L 160.0 133.0 L 160.0 133.0 L 161.0 133.0 L 162.0 133.0 L 163.0 133.0 L 164.0 133.0 L 166.0 133.0 L 167.0 133.0 L 168.0 133.0 L 169.0 133.0 L 170.0 133.0 L 171.0 133.0 L 173.0 133.0 L 174.0 133.0 L 175.0 133.0 L 177.0 133.0 L 178.0 134.0 L 179.0 134.0 L 180.0 134.0 L 181.0 134.0 L 182.0 135.0 L 183.0 135.0 L 184.0 135.0 L 185.0 135.0 L 186.0 136.0 L 187.0 136.0 L 188.0 136.0 L 188.0 137.0 L 189.0 137.0 L 190.0 138.0 L 190.0 138.0 L 191.0 139.0 L 192.0 139.0 L 192.0 139.0 L 193.0 140.0 L 193.0 140.0 L 194.0 141.0 L 194.0 141.0 L 195.0 141.0 L 196.0 142.0 L 196.0 142.0 L 197.0 143.0 L 197.0 143.0 L 198.0 144.0 L 198.0 144.0 L 199.0 144.0 L 200.0 145.0 L 201.0 145.0 L 201.0 146.0 L 202.0 146.0 L 203.0 147.0 L 204.0 147.0 L 205.0 148.0 L 206.0 148.0 L 207.0 149.0 L 208.0 150.0 L 209.0 150.0 L 210.0 151.0 L 211.0 152.0 L 212.0 152.0 L 213.0 153.0 L 214.0 154.0 L 215.0 154.0 L 216.0 155.0 L 217.0 156.0 L 218.0 157.0 L 219.0 158.0 L 219.0 159.0 L 220.0 160.0 L 221.0 162.0 L 222.0 163.0 L 222.0 164.0 L 222.0 165.0 L 223.0 166.0 L 223.0 167.0 L 223.0 168.0 L 223.0 169.0 L 223.0 170.0 L 223.0 171.0 L 223.0 173.0 L 223.0 174.0 L 223.0 176.0 L 223.0 177.0 L 223.0 179.0 L 223.0 181.0 L 223.0 183.0 L 223.0 185.0 L 223.0 188.0 L 223.0 190.0 L 223.0 192.0 L 223.0 194.0 L 222.0 196.0 L 222.0 198.0 L 222.0 200.0 L 222.0 202.0 L 221.0 204.0 L 221.0 205.0 L 221.0 207.0 L 220.0 209.0 L 219.0 210.0 L 219.0 212.0 L 218.0 214.0 L 217.0 216.0 L 216.0 218.0 L 216.0 220.0 L 215.0 222.0 L 214.0 224.0 L 213.0 226.0 L 212.0 228.0 L 211.0 229.0 L 210.0 230.0 L 209.0 231.0 L 208.0 232.0 L 207.0 233.0 L 206.0 234.0 L 205.0 235.0 L 203.0 236.0 L 202.0 237.0 L 200.0 238.0 L 199.0 238.0 L 197.0 239.0 L 196.0 239.0 L 195.0 240.0 L 193.0 240.0 L 192.0 240.0 L 191.0 241.0 L 189.0 241.0 L 187.0 241.0 L 185.0 242.0 L 184.0 242.0 L 181.0 243.0 L 179.0 243.0 L 178.0 244.0 L 176.0 244.0 L 174.0 244.0 L 173.0 244.0 L 171.0 244.0 L 169.0 244.0 L 168.0 243.0 L 166.0 242.0 L 164.0 242.0 L 162.0 241.0 L 159.0 240.0 L 158.0 240.0 L 156.0 239.0 L 154.0 238.0 L 153.0 238.0 L 152.0 237.0 L 151.0 236.0 L 150.0 235.0 L 149.0 234.0 L 148.0 233.0 L 147.0 232.0 L 146.0 231.0 L 145.0 229.0 L 145.0 228.0 L 144.0 227.0 L 144.0 225.0 L 143.0 224.0 L 143.0 223.0 L 143.0 221.0 L 143.0 220.0 L 143.0 218.0 L 143.0 216.0 L 143.0 215.0 L 144.0 214.0 L 145.0 213.0 L 145.0 212.0 L 146.0 211.0 L 148.0 210.0 L 149.0 209.0 L 150.0 209.0 L 152.0 208.0 L 153.0 208.0 L 155.0 207.0 L 156.0 207.0 L 158.0 206.0 L 161.0 206.0 L 163.0 206.0 L 165.0 206.0 L 168.0 206.0 L 170.0 206.0 L 172.0 206.0 L 175.0 207.0 L 177.0 207.0 L 180.0 208.0 L 182.0 209.0 L 184.0 209.0 L 185.0 211.0 L 187.0 211.0 L 189.0 213.0 L 190.0 214.0 L 191.0 215.0 L 192.0 217.0 L 193.0 218.0 L 193.0 220.0 L 194.0 221.0 L 194.0 222.0 L 194.0 223.0 L 194.0 225.0 L 194.0 226.0 L 194.0 227.0 L 194.0 228.0 L 194.0 229.0 L 194.0 230.0 L 194.0 231.0 L 194.0 232.0 L 194.0 232.0 L 194.0 233.0 L 194.0 233.0 L 194.0 233.0 L 194.0 233.0 " stroke="black" fill="none" stroke-width="5.0" stroke-linecap="round" stroke-linejoin="round" />
</svg>