<svg xmlns="http://www.w3.org/2000/svg" width="300" height="300" viewBox="0 0 300 300">
<path d="M 68.0 125.0 L 68.0 125.0 L 68.0 125.0 L 68.0 125.0 L 68.0 125.0 L 67.0 125.0 L 67.0 125.0 L 67.0 125.0 L 67.0 125.0 L 67.0 125.0 L 67.0 125.0 L 67.0 125.0 L 67.0 125.0 L 67.0 125.0 L 67.0 125.0 L 67.0 125.0 L 67.0 125.0 L 67.0 125.0 L 67.0 125.0 L 68.0 125.0 L 68.0 125.0 L 69.0 125.0 L 70.0 125.0 L 71.0 125.0 L 71.0 124.0 L 72.0 124.0 L 73.0 124.0 L 74.0 123.0 L 75.0 123.0 L 76.0 123.0 L 77.0 122.0 L 78.0 122.0 L 79.0 122.0 L 80.0 121.0 L 82.0 121.0 L 83.0 121.0 L 85.0 120.0 L 86.0 120.0 L 88.0 120.0 L 89.0 120.0 L 91.0 120.0 L 92.0 120.0 L 94.0 120.0 L 95.0 119.0 L 97.0 119.0 L 99.0 119.0 L 101.0 119.0 L 102.0 119.0 L 104.0 119.0 L 105.0 118.0 L 106.0 118.0 L 107.0 118.0 L 108.0 118.0 L 109.0 118.0 L 110.0 118.0 L 110.0 117.0 L 111.0 117.0 L 111.0 117.0 L 111.0 117.0 L 111.0 117.0 L 111.0 117.0 L 111.0 117.0 L 111.0 117.0 L 111.0 117.0 L 111.0 117.0 L 111.0 118.0 L 111.0 118.0 L 111.0 118.0 L 111.0 118.0 L 111.0 118.0 L 111.0 118.0 L 111.0 119.0 L 111.0 119.0 L 111.0 119.0 L 111.0 120.0 L 111.0 120.0 L 111.0 121.0 L 111.0 121.0 L 111.0 122.0 L 110.0 122.0 L 110.0 123.0 L 110.0 124.0 L 110.0 125.0 L 109.0 126.0 L 109.0 127.0 L 108.0 128.0 L 108.0 129.0 L 108.0 130.0 L 107.0 131.0 L 107.0 133.0 L 106.0 134.0 L 106.0 136.0 L 105.0 138.0 L 104.0 140.0 L 104.0 142.0 L 103.0 144.0 L 103.0 146.0 L 102.0 148.0 L 101.0 150.0 L 100.0 152.0 L 100.0 154.0 L 99.0 156.0 L 98.0 157.0 L 97.0 159.0 L 96.0 161.0 L 95.0 163.0 L 94.0 164.0 L 93.0 166.0 L 91.0 167.0 L 90.0 169.0 L 89.0 171.0 L 88.0 172.0 L 87.0 174.0 L 86.0 175.0 L 85.0 177.0 L 84.0 179.0 L 83.0 180.0 L 82.0 182.0 L 81.0 184.0 L 80.0 186.0 L 79.0 188.0 L 78.0 189.0 L 77.0 191.0 L 76.0 193.0 L 75.0 194.0 L 74.0 196.0 L 73.0 197.0 L 73.0 199.0 L 72.0 200.0 L 71.0 201.0 L 71.0 202.0 L 70.0 203.0 L 70.0 204.0 L 69.0 205.0 L 69.0 205.0 L 69.0 206.0 L 69.0 206.0 L 68.0 207.0 L 68.0 207.0 L 68.0 207.0 L 68.0 207.0 L 68.0 207.0 L 68.0 207.0 L 68.0 207.0 L 68.0 207.0 L 68.0 208.0 L 68.0 208.0 L 68.0 208.0 L 68.0 208.0 L 68.0 209.0 L 68.0 209.0 L 68.0 209.0 L 67.0 210.0 L 67.0 210.0 L 67.0 210.0 L 67.0 210.0 L 67.0 211.0 L 67.0 211.0 L 67.0 211.0 L 67.0 211.0 L 67.0 211.0 L 67.0 211.0 L 67.0 211.0 L 67.0 211.0 L 67.0 211.0 L 67.0 211.0 L 67.0 211.0 L 67.0 211.0 L 67.0 210.0 L 67.0 210.0 L 67.0 209.0 L 68.0 208.0 L 69.0 207.0 L 69.0 205.0 L 70.0 204.0 L 71.0 203.0 L 72.0 202.0 L 73.0 200.0 L 74.0 199.0 L 75.0 198.0 L 76.0 197.0 L 77.0 196.0 L 78.0 195.0 L 78.0 193.0 L 80.0 192.0 L 81.0 191.0 L 82.0 190.0 L 83.0 189.0 L 84.0 188.0 L 85.0 187.0 L 86.0 186.0 L 88.0 185.0 L 89.0 184.0 L 90.0 183.0 L 91.0 182.0 L 92.0 180.0 L 93.0 179.0 L 94.0 178.0 L 95.0 177.0 L 97.0 176.0 L 98.0 175.0 L 99.0 174.0 L 100.0 173.0 L 101.0 172.0 L 102.0 171.0 L 103.0 170.0 L 104.0 169.0 L 105.0 168.0 L 106.0 167.0 L 107.0 166.0 L 107.0 165.0 L 108.0 164.0 L 109.0 164.0 L 109.0 163.0 L 110.0 162.0 L 111.0 162.0 L 112.0 161.0 L 113.0 160.0 L 114.0 160.0 L 115.0 159.0 L 116.0 158.0 L 117.0 158.0 L 118.0 157.0 L 119.0 156.0 L 121.0 156.0 L 122.0 155.0 L 123.0 155.0 L 124.0 154.0 L 125.0 153.0 L 127.0 152.0 L 128.0 152.0 L 130.0 151.0 L 131.0 150.0 L 132.0 150.0 L 134.0 149.0 L 135.0 148.0 L 137.0 148.0 L 138.0 147.0 L 139.0 146.0 L 140.0 146.0 L 141.0 145.0 L 142.0 144.0 L 143.0 144.0 L 144.0 143.0 L 145.0 143.0 L 146.0 142.0 L 147.0 142.0 L 148.0 141.0 L 148.0 141.0 L 149.0 140.0 L 150.0 140.0 L 150.0 139.0 L 151.0 139.0 L 152.0 139.0 L 152.0 138.0 L 153.0 138.0 L 154.0 137.0 L 154.0 137.0 L 155.0 136.0 L 156.0 136.0 L 156.0 136.0 L 157.0 135.0 L 158.0 135.0 L 159.0 134.0 L 160.0 134.0 L 160.0 134.0 L 161.0 133.0 L 162.0 133.0 L 164.0 133.0 L 165.0 132.0 L 166.0 132.0 L 167.0 132.0 L 168.0 132.0 L 169.0 132.0 L 170.0 131.0 L 171.0 131.0 L 172.0 131.0 L 173.0 131.0 L 174.0 131.0 L 175.0 131.0 L 177.0 131.0 L 178.0 131.0 L 179.0 131.0 L 180.0 131.0 L 181.0 130.0 L 182.0 130.0 L 183.0 130.0 L 184.0 130.0 L 185.0 130.0 L 186.0 130.0 L 187.0 130.0 L 188.0 130.0 L 188.0 130.0 L 189.0 130.0 L 190.0 130.0 L 190.0 130.0 L 191.0 130.0 L 191.0 130.0 L 192.0 130.0 L 193.0 130.0 L 193.0 130.0 L 194.0 131.0 L 194.0 131.0 L 195.0 131.0 L 195.0 132.0 L 196.0 132.0 L 196.0 132.0 L 197.0 133.0 L 198.0 133.0 L 198.0 133.0 L 199.0 134.0 L 200.0 134.0 L 200.0 135.0 L 201.0 135.0 L 202.0 136.0 L 203.0 137.0 L 203.0 137.0 L 204.0 138.0 L 205.0 139.0 L 206.0 140.0 L 207.0 141.0 L 207.0 142.0 L 208.0 143.0 L 209.0 144.0 L 210.0 145.0 L 211.0 147.0 L 211.0 148.0 L 212.0 150.0 L 213.0 152.0 L 214.0 153.0 L 214.0 155.0 L 215.0 157.0 L 215.0 159.0 L 216.0 160.0 L 216.0 162.0 L 216.0 163.0 L 216.0 165.0 L 217.0 166.0 L 217.0 168.0 L 217.0 170.0 L 217.0 172.0 L 217.0 174.0 L 217.0 176.0 L 217.0 179.0 L 217.0 181.0 L 217.0 184.0 L 217.0 187.0 L 217.0 189.0 L 217.0 191.0 L 216.0 194.0 L 216.0 196.0 L 215.0 199.0 L 215.0 201.0 L 214.0 204.0 L 213.0 206.0 L 212.0 209.0 L 210.0 211.0 L 209.0 214.0 L 208.0 217.0 L 207.0 219.0 L 205.0 222.0 L 204.0 225.0 L 202.0 227.0 L 200.0 230.0 L 199.0 232.0 L 197.0 234.0 L 196.0 236.0 L 194.0 238.0 L 192.0 240.0 L 191.0 241.0 L 189.0 242.0 L 187.0 243.0 L 185.0 243.0 L 182.0 243.0 L 179.0 242.0 L 175.0 241.0 L 171.0 239.0 L 168.0 237.0 L 165.0 235.0 L 162.0 233.0 L 160.0 231.0 L 158.0 229.0 L 157.0 227.0 L 155.0 224.0 L 155.0 221.0 L 154.0 218.0 L 154.0 215.0 L 154.0 212.0 L 154.0 209.0 L 154.0 207.0 L 155.0 206.0 L 156.0 204.0 L 156.0 202.0 L 157.0 201.0 L 158.0 200.0 L 160.0 200.0 L 161.0 199.0 L 163.0 199.0 L 166.0 198.0 L 168.0 198.0 L 172.0 198.0 L 176.0 198.0 L 180.0 198.0 L 184.0 198.0 L 188.0 198.0 L 191.0 198.0 L 194.0 199.0 L 197.0 200.0 L 200.0 200.0 L 204.0 201.0 L 207.0 201.0 L 211.0 201.0 L 215.0 201.0 L 219.0 201.0 L 222.0 201.0 L 226.0 201.0 L 229.0 202.0 L 231.0 203.0 L 234.0 205.0 L 236.0 207.0 L 237.0 209.0 L 239.0 211.0 L 239.0 213.0 L 240.0 215.0 L 241.0 216.0 L 241.0 217.0 L 241.0 217.0 L 241.0 217.0 " stroke="black" fill="none" stroke-width="5.0" stroke-linecap="round" stroke-linejoin="round" />
<path d="M 118.0 78.0 L 118.0 78.0 L 118.0 78.0 L 118.0 78.0 L 118.0 78.0 L 118.0 78.0 L 118.0 78.0 L 118.0 78.0 L 118.0 78.0 L 118.0 78.0 L 118.0 78.0 L 118.0 78.0 L 118.0 79.0 L 118.0 81.0 L 117.0 83.0 L 117.0 87.0 L 117.0 91.0 L 116.0 98.0 L 115.0 105.0 L 115.0 112.0 L 114.0 119.0 L 114.0 126.0 L 114.0 133.0 L 114.0 141.0 L 114.0 148.0 L 114.0 156.0 L 114.0 163.0 L 114.0 168.0 L 114.0 174.0 L 114.0 181.0 L 114.0 187.0 L 114.0 194.0 L 114.0 200.0 L 114.0 206.0 L 114.0 211.0 L 114.0 217.0 L 114.0 222.0 L 114.0 227.0 L 114.0 232.0 L 114.0 235.0 L 114.0 238.0 L 115.0 240.0 L 115.0 241.0 L 115.0 241.0 L 116.0 241.0 " stroke="black" fill="none" stroke-width="5.0" stroke-linecap="round" stroke-linejoin="round" />
</svg>