<svg xmlns="http://www.w3.org/2000/svg" width="300" height="300" viewBox="0 0 300 300">
<path d="M 90.0 111.0 L 90.0 111.0 L 89.0 111.0 L 89.0 111.0 L 88.0 111.0 L 88.0 111.0 L 88.0 111.0 L 88.0 111.0 L 88.0 111.0 L 89.0 111.0 L 91.0 111.0 L 94.0 111.0 L 97.0 111.0 L 100.0 111.0 L 103.0 111.0 L 106.0 111.0 L 109.0 111.0 L 113.0 111.0 L 117.0 111.0 L 122.0 111.0 L 129.0 111.0 L 135.0 111.0 L 141.0 111.0 L 147.0 111.0 L 151.0 111.0 L 154.0 110.0 L 158.0 110.0 L 161.0 110.0 L 164.0 110.0 L 169.0 110.0 L 173.0 110.0 L 178.0 110.0 L 184.0 110.0 L 188.0 110.0 L 192.0 110.0 L 196.0 110.0 L 198.0 110.0 L 200.0 110.0 L 202.0 110.0 L 203.0 109.0 L 204.0 109.0 L 204.0 109.0 L 205.0 109.0 L 205.0 109.0 " stroke="black" fill="none" stroke-width="5.0" stroke-linecap="round" stroke-linejoin="round" />
<path d="M 94.0 163.0 L 94.0 163.0 L 94.0 163.0 L 94.0 163.0 L 94.0 163.0 L 94.0 163.0 L 94.0 163.0 L 94.0 163.0 L 95.0 163.0 L 97.0 163.0 L 100.0 162.0 L 104.0 162.0 L 110.0 162.0 L 117.0 161.0 L 128.0 160.0 L 138.0 159.0 L 148.0 157.0 L 157.0 156.0 L 164.0 156.0 L 172.0 155.0 L 181.0 154.0 L 188.0 154.0 L 194.0 153.0 L 198.0 152.0 L 201.0 152.0 L 203.0 152.0 L 206.0 152.0 " stroke="black" fill="none" stroke-width="5.0" stroke-linecap="round" stroke-linejoin="round" />
<path d="M 205.0 113.0 L 205.0 113.0 L 205.0 113.0 L 205.0 113.0 L 205.0 113.0 L 204.0 113.0 L 204.0 113.0 L 204.0 114.0 L 204.0 115.0 L 204.0 117.0 L 203.0 119.0 L 203.0 122.0 L 203.0 126.0 L 202.0 131.0 L 202.0 137.0 L 201.0 143.0 L 200.0 149.0 L 198.0 155.0 L 197.0 160.0 L 195.0 165.0 L 193.0 170.0 L 191.0 173.0 L 189.0 177.0 L 186.0 182.0 L 182.0 187.0 L 177.0 191.0 L 170.0 197.0 L 163.0 201.0 L 156.0 206.0 L 150.0 211.0 L 145.0 216.0 L 139.0 221.0 L 131.0 226.0 L 123.0 231.0 L 116.0 235.0 L 110.0 239.0 L 107.0 241.0 L 106.0 241.0 " stroke="black" fill="none" stroke-width="5.0" stroke-linecap="round" stroke-linejoin="round" />
<path d="M 197.0 74.0 L 197.0 74.0 L 197.0 74.0 L 197.0 74.0 L 196.0 74.0 L 196.0 74.0 L 196.0 74.0 L 196.0 75.0 L 196.0 76.0 L 196.0 77.0 L 196.0 79.0 L 196.0 81.0 L 196.0 83.0 L 197.0 86.0 L 198.0 88.0 L 199.0 91.0 L 200.0 92.0 " stroke="black" fill="none" stroke-width="5.0" stroke-linecap="round" stroke-linejoin="round" />
<path d="M 219.0 72.0 L 219.0 72.0 L 219.0 72.0 L 219.0 72.0 L 219.0 72.0 L 220.0 74.0 L 222.0 76.0 L 224.0 79.0 L 227.0 83.0 L 229.0 86.0 L 232.0 90.0 L 235.0 95.0 " stroke="black" fill="none" stroke-width="5.0" stroke-linecap="round" stroke-linejoin="round" />
</svg>