<svg xmlns="http://www.w3.org/2000/svg" width="300" height="300" viewBox="0 0 300 300">
<path d="M 98.0 121.0 L 98.0 121.0 L 97.0 121.0 L 95.0 121.0 L 94.0 121.0 L 93.0 121.0 L 93.0 121.0 L 93.0 121.0 L 93.0 120.0 L 93.0 120.0 L 93.0 119.0 L 94.0 119.0 L 96.0 118.0 L 98.0 118.0 L 100.0 118.0 L 102.0 117.0 L 105.0 117.0 L 107.0 117.0 L 110.0 117.0 L 114.0 117.0 L 118.0 117.0 L 123.0 117.0 L 128.0 117.0 L 133.0 117.0 L 139.0 117.0 L 144.0 117.0 L 148.0 117.0 L 152.0 117.0 L 155.0 117.0 L 158.0 117.0 L 162.0 117.0 L 165.0 117.0 L 169.0 117.0 L 174.0 117.0 L 178.0 117.0 L 182.0 117.0 L 186.0 117.0 L 189.0 118.0 L 191.0 118.0 L 194.0 119.0 L 195.0 119.0 L 196.0 120.0 L 198.0 120.0 L 198.0 121.0 L 198.0 121.0 L 199.0 122.0 L 199.0 123.0 L 199.0 123.0 L 199.0 124.0 L 199.0 125.0 L 199.0 126.0 L 199.0 127.0 L 199.0 128.0 L 199.0 129.0 L 199.0 131.0 L 198.0 134.0 L 198.0 137.0 L 196.0 142.0 L 195.0 147.0 L 194.0 153.0 L 193.0 161.0 L 192.0 168.0 L 191.0 176.0 L 189.0 185.0 L 188.0 193.0 L 187.0 200.0 L 186.0 206.0 L 185.0 210.0 L 184.0 213.0 L 184.0 216.0 L 183.0 218.0 L 183.0 219.0 L 182.0 219.0 " stroke="black" fill="none" stroke-width="5.0" stroke-linecap="round" stroke-linejoin="round" />
<path d="M 74.0 224.0 L 73.0 224.0 L 72.0 224.0 L 71.0 224.0 L 71.0 224.0 L 71.0 224.0 L 71.0 224.0 L 73.0 224.0 L 77.0 224.0 L 82.0 224.0 L 89.0 224.0 L 97.0 223.0 L 105.0 222.0 L 115.0 220.0 L 128.0 219.0 L 141.0 217.0 L 153.0 216.0 L 163.0 216.0 L 173.0 216.0 L 184.0 216.0 L 193.0 216.0 L 198.0 216.0 L 202.0 217.0 L 208.0 218.0 L 212.0 219.0 L 218.0 220.0 L 223.0 220.0 L 226.0 221.0 L 229.0 221.0 L 231.0 222.0 L 231.0 222.0 L 232.0 223.0 " stroke="black" fill="none" stroke-width="5.0" stroke-linecap="round" stroke-linejoin="round" />
</svg>