<svg xmlns="http://www.w3.org/2000/svg" width="300" height="300" viewBox="0 0 300 300">
<path d="M 71.0 95.0 L 71.0 95.0 L 71.0 95.0 L 72.0 94.0 L 72.0 94.0 L 73.0 94.0 L 74.0 94.0 L 77.0 93.0 L 81.0 93.0 L 88.0 92.0 L 95.0 91.0 L 103.0 91.0 L 111.0 90.0 L 120.0 89.0 L 131.0 89.0 L 143.0 88.0 L 152.0 88.0 L 160.0 88.0 L 171.0 88.0 L 181.0 88.0 L 190.0 88.0 L 198.0 88.0 L 202.0 88.0 L 207.0 88.0 L 212.0 90.0 L 217.0 91.0 L 222.0 92.0 L 225.0 93.0 " stroke="black" fill="none" stroke-width="5.0" stroke-linecap="round" stroke-linejoin="round" />
<path d="M 152.0 90.0 L 152.0 90.0 L 152.0 90.0 L 151.0 90.0 L 151.0 90.0 L 150.0 90.0 L 150.0 93.0 L 150.0 97.0 L 150.0 103.0 L 151.0 110.0 L 151.0 118.0 L 152.0 127.0 L 152.0 139.0 L 152.0 150.0 L 152.0 163.0 L 152.0 178.0 L 152.0 193.0 L 152.0 207.0 L 152.0 220.0 L 151.0 229.0 L 151.0 236.0 L 151.0 241.0 L 151.0 243.0 L 151.0 244.0 " stroke="black" fill="none" stroke-width="5.0" stroke-linecap="round" stroke-linejoin="round" />
</svg>