<svg xmlns="http://www.w3.org/2000/svg" width="300" height="300" viewBox="0 0 300 300">
<path d="M 89.0 100.0 L 89.0 100.0 L 89.0 100.0 L 89.0 100.0 L 89.0 100.0 L 89.0 100.0 L 89.0 101.0 L 89.0 101.0 L 88.0 101.0 L 88.0 101.0 L 88.0 102.0 L 88.0 102.0 L 88.0 102.0 L 88.0 102.0 L 88.0 102.0 L 89.0 102.0 L 89.0 102.0 L 90.0 102.0 L 91.0 102.0 L 91.0 102.0 L 92.0 102.0 L 93.0 102.0 L 94.0 102.0 L 95.0 102.0 L 96.0 102.0 L 98.0 102.0 L 99.0 102.0 L 100.0 102.0 L 101.0 102.0 L 102.0 102.0 L 103.0 102.0 L 105.0 102.0 L 105.0 102.0 L 106.0 102.0 L 107.0 102.0 L 108.0 102.0 L 109.0 102.0 L 109.0 102.0 L 110.0 102.0 L 111.0 102.0 L 112.0 102.0 L 112.0 102.0 L 113.0 102.0 L 114.0 103.0 L 115.0 103.0 L 116.0 103.0 L 116.0 103.0 L 117.0 103.0 L 118.0 103.0 L 119.0 103.0 L 120.0 103.0 L 121.0 103.0 L 122.0 103.0 L 123.0 103.0 L 124.0 103.0 L 125.0 103.0 L 126.0 103.0 L 127.0 103.0 L 129.0 103.0 L 130.0 103.0 L 132.0 103.0 L 133.0 103.0 L 134.0 103.0 L 136.0 103.0 L 137.0 102.0 L 138.0 102.0 L 140.0 102.0 L 141.0 102.0 L 142.0 102.0 L 143.0 102.0 L 144.0 102.0 L 145.0 102.0 L 146.0 102.0 L 147.0 102.0 L 148.0 102.0 L 149.0 102.0 L 150.0 102.0 L 150.0 102.0 L 151.0 102.0 L 152.0 102.0 L 152.0 102.0 L 153.0 102.0 L 153.0 102.0 L 154.0 102.0 L 155.0 102.0 L 155.0 102.0 L 156.0 102.0 L 157.0 102.0 L 158.0 102.0 L 159.0 102.0 L 160.0 102.0 L 161.0 102.0 L 161.0 102.0 L 162.0 102.0 L 163.0 102.0 L 164.0 102.0 L 165.0 102.0 L 166.0 102.0 L 168.0 102.0 L 169.0 102.0 L 170.0 102.0 L 172.0 101.0 L 173.0 101.0 L 175.0 101.0 L 176.0 100.0 L 177.0 100.0 L 179.0 100.0 L 180.0 100.0 L 181.0 100.0 L 182.0 99.0 L 183.0 99.0 L 184.0 99.0 L 185.0 99.0 L 187.0 99.0 L 187.0 99.0 L 189.0 99.0 L 189.0 99.0 L 190.0 99.0 L 191.0 99.0 L 192.0 98.0 L 192.0 98.0 L 193.0 98.0 L 194.0 98.0 L 194.0 98.0 L 195.0 98.0 L 195.0 98.0 L 196.0 98.0 L 196.0 98.0 L 197.0 98.0 L 198.0 98.0 L 198.0 98.0 L 199.0 98.0 L 199.0 98.0 L 200.0 98.0 L 200.0 98.0 L 201.0 98.0 L 202.0 97.0 L 202.0 97.0 L 203.0 97.0 L 203.0 97.0 L 204.0 97.0 L 204.0 97.0 L 205.0 97.0 L 205.0 97.0 L 206.0 97.0 L 207.0 97.0 L 207.0 97.0 L 207.0 97.0 L 208.0 97.0 L 208.0 97.0 L 209.0 97.0 L 209.0 98.0 L 209.0 98.0 L 209.0 98.0 L 210.0 98.0 L 210.0 98.0 L 210.0 98.0 L 210.0 98.0 L 210.0 98.0 L 210.0 98.0 L 210.0 99.0 L 210.0 99.0 L 211.0 99.0 L 211.0 99.0 L 211.0 99.0 L 211.0 99.0 L 211.0 99.0 L 211.0 99.0 L 211.0 99.0 L 211.0 99.0 L 211.0 99.0 L 211.0 99.0 L 211.0 99.0 L 211.0 99.0 L 211.0 99.0 L 211.0 100.0 L 211.0 100.0 L 211.0 100.0 L 211.0 100.0 L 212.0 100.0 L 212.0 101.0 L 212.0 101.0 L 212.0 101.0 L 212.0 102.0 L 212.0 102.0 L 212.0 102.0 L 212.0 103.0 L 212.0 103.0 L 212.0 104.0 L 212.0 105.0 L 212.0 105.0 L 212.0 106.0 L 212.0 107.0 L 211.0 108.0 L 211.0 108.0 L 211.0 109.0 L 210.0 109.0 L 210.0 110.0 L 210.0 111.0 L 210.0 111.0 L 210.0 112.0 L 209.0 113.0 L 209.0 113.0 L 209.0 114.0 L 209.0 114.0 L 208.0 115.0 L 208.0 116.0 L 208.0 116.0 L 207.0 117.0 L 207.0 118.0 L 207.0 118.0 L 207.0 119.0 L 206.0 119.0 L 206.0 120.0 L 205.0 121.0 L 205.0 121.0 L 205.0 122.0 L 204.0 123.0 L 204.0 124.0 L 203.0 125.0 L 203.0 125.0 L 202.0 126.0 L 202.0 127.0 L 201.0 128.0 L 201.0 129.0 L 200.0 130.0 L 200.0 131.0 L 199.0 132.0 L 198.0 132.0 L 198.0 133.0 L 197.0 134.0 L 197.0 135.0 L 196.0 137.0 L 195.0 138.0 L 195.0 139.0 L 194.0 140.0 L 194.0 141.0 L 193.0 142.0 L 193.0 143.0 L 192.0 145.0 L 192.0 146.0 L 191.0 147.0 L 191.0 148.0 L 190.0 149.0 L 189.0 150.0 L 189.0 151.0 L 188.0 152.0 L 188.0 152.0 L 187.0 153.0 L 187.0 154.0 L 186.0 155.0 L 185.0 156.0 L 184.0 157.0 L 183.0 158.0 L 182.0 159.0 L 181.0 160.0 L 180.0 161.0 L 180.0 161.0 L 179.0 162.0 L 178.0 163.0 L 177.0 164.0 L 176.0 165.0 L 175.0 166.0 L 174.0 167.0 L 173.0 168.0 L 171.0 169.0 L 170.0 170.0 L 169.0 171.0 L 168.0 172.0 L 166.0 173.0 L 165.0 174.0 L 164.0 175.0 L 163.0 175.0 L 162.0 176.0 L 161.0 177.0 L 160.0 178.0 L 160.0 179.0 L 159.0 179.0 L 158.0 180.0 L 157.0 181.0 L 157.0 182.0 L 156.0 182.0 L 155.0 183.0 L 154.0 184.0 L 154.0 185.0 L 153.0 186.0 L 153.0 187.0 L 152.0 188.0 L 152.0 189.0 L 151.0 189.0 L 151.0 190.0 L 150.0 191.0 L 150.0 192.0 L 149.0 192.0 L 149.0 193.0 L 148.0 193.0 L 148.0 194.0 L 147.0 195.0 L 147.0 195.0 L 146.0 196.0 L 146.0 196.0 L 145.0 197.0 L 145.0 197.0 L 144.0 198.0 L 143.0 198.0 L 143.0 199.0 L 142.0 200.0 L 141.0 200.0 L 140.0 201.0 L 139.0 202.0 L 138.0 203.0 L 137.0 203.0 L 136.0 204.0 L 135.0 205.0 L 134.0 206.0 L 133.0 207.0 L 132.0 207.0 L 130.0 208.0 L 128.0 209.0 L 127.0 210.0 L 125.0 211.0 L 124.0 211.0 L 122.0 212.0 L 120.0 213.0 L 119.0 214.0 L 117.0 215.0 L 116.0 216.0 L 114.0 217.0 L 113.0 218.0 L 112.0 219.0 L 110.0 220.0 L 109.0 222.0 L 107.0 223.0 L 106.0 225.0 L 105.0 227.0 L 103.0 229.0 L 101.0 231.0 L 100.0 232.0 L 99.0 234.0 L 97.0 235.0 L 95.0 236.0 L 93.0 237.0 L 91.0 239.0 L 89.0 240.0 L 86.0 241.0 L 83.0 241.0 L 81.0 242.0 L 79.0 243.0 L 76.0 243.0 L 75.0 243.0 " stroke="black" fill="none" stroke-width="5.0" stroke-linecap="round" stroke-linejoin="round" />
<path d="M 102.0 136.0 L 102.0 136.0 L 102.0 136.0 L 102.0 135.0 L 102.0 135.0 L 103.0 135.0 L 103.0 135.0 L 105.0 135.0 L 106.0 136.0 L 108.0 138.0 L 111.0 141.0 L 115.0 144.0 L 120.0 149.0 L 125.0 153.0 L 131.0 159.0 L 137.0 164.0 L 144.0 169.0 L 149.0 175.0 L 155.0 181.0 L 159.0 187.0 L 165.0 193.0 L 172.0 200.0 L 178.0 204.0 L 184.0 209.0 L 189.0 213.0 L 193.0 217.0 L 196.0 220.0 L 198.0 224.0 L 201.0 227.0 L 203.0 229.0 L 206.0 232.0 L 208.0 233.0 L 209.0 234.0 L 210.0 235.0 L 210.0 236.0 L 210.0 236.0 " stroke="black" fill="none" stroke-width="5.0" stroke-linecap="round" stroke-linejoin="round" />
</svg>