<svg xmlns="http://www.w3.org/2000/svg" width="300" height="300" viewBox="0 0 300 300">
<path d="M 112.0 133.0 L 112.0 133.0 L 111.0 133.0 L 110.0 133.0 L 110.0 132.0 L 109.0 132.0 L 109.0 132.0 L 109.0 132.0 L 109.0 132.0 L 110.0 132.0 L 112.0 132.0 L 115.0 133.0 L 120.0 133.0 L 126.0 134.0 L 133.0 134.0 L 141.0 134.0 L 149.0 134.0 L 156.0 134.0 L 164.0 134.0 L 173.0 134.0 L 182.0 134.0 L 189.0 134.0 L 195.0 135.0 L 199.0 136.0 L 202.0 138.0 L 205.0 139.0 L 207.0 141.0 L 210.0 142.0 L 212.0 143.0 L 213.0 144.0 L 213.0 145.0 L 213.0 146.0 L 213.0 147.0 L 211.0 149.0 L 209.0 151.0 L 207.0 154.0 L 204.0 157.0 L 201.0 160.0 L 198.0 163.0 L 195.0 166.0 L 193.0 169.0 L 190.0 173.0 L 187.0 177.0 L 184.0 182.0 L 179.0 187.0 L 172.0 194.0 L 164.0 201.0 L 157.0 207.0 L 150.0 213.0 L 144.0 220.0 L 137.0 226.0 L 130.0 232.0 L 121.0 237.0 L 114.0 240.0 L 109.0 243.0 L 106.0 245.0 L 104.0 245.0 L 103.0 246.0 L 102.0 246.0 " stroke="black" fill="none" stroke-width="5.0" stroke-linecap="round" stroke-linejoin="round" />
<path d="M 119.0 169.0 L 118.0 169.0 L 117.0 169.0 L 117.0 169.0 L 117.0 169.0 L 117.0 169.0 L 119.0 171.0 L 121.0 174.0 L 126.0 178.0 L 132.0 183.0 L 138.0 189.0 L 145.0 195.0 L 153.0 202.0 L 161.0 207.0 L 171.0 213.0 L 183.0 218.0 L 191.0 222.0 L 203.0 231.0 L 207.0 233.0 L 210.0 234.0 " stroke="black" fill="none" stroke-width="5.0" stroke-linecap="round" stroke-linejoin="round" />
</svg>