<svg xmlns="http://www.w3.org/2000/svg" width="300" height="300" viewBox="0 0 300 300">
<path d="M 63.0 121.0 L 63.0 121.0 L 63.0 121.0 L 63.0 121.0 L 63.0 121.0 L 63.0 121.0 L 65.0 120.0 L 67.0 120.0 L 70.0 119.0 L 74.0 119.0 L 80.0 118.0 L 86.0 118.0 L 93.0 118.0 L 99.0 118.0 L 106.0 118.0 L 112.0 118.0 L 119.0 117.0 L 128.0 117.0 L 138.0 117.0 L 147.0 117.0 L 156.0 116.0 L 164.0 116.0 L 171.0 116.0 L 180.0 116.0 L 187.0 117.0 L 194.0 117.0 L 200.0 118.0 L 205.0 119.0 L 211.0 120.0 L 219.0 120.0 L 226.0 120.0 L 232.0 120.0 L 236.0 120.0 L 239.0 120.0 L 241.0 120.0 L 242.0 119.0 " stroke="black" fill="none" stroke-width="5.0" stroke-linecap="round" stroke-linejoin="round" />
<path d="M 148.0 76.0 L 148.0 76.0 L 148.0 76.0 L 148.0 76.0 L 148.0 76.0 L 148.0 76.0 L 147.0 76.0 L 147.0 76.0 L 147.0 76.0 L 147.0 76.0 L 147.0 77.0 L 147.0 78.0 L 147.0 80.0 L 147.0 82.0 L 147.0 84.0 L 147.0 88.0 L 146.0 92.0 L 145.0 97.0 L 144.0 103.0 L 143.0 108.0 L 141.0 113.0 L 140.0 117.0 L 138.0 121.0 L 136.0 125.0 L 134.0 130.0 L 132.0 134.0 L 129.0 138.0 L 125.0 144.0 L 123.0 149.0 L 120.0 154.0 L 118.0 158.0 L 117.0 161.0 L 117.0 164.0 L 116.0 166.0 L 116.0 167.0 L 116.0 168.0 L 116.0 170.0 L 116.0 171.0 L 116.0 172.0 L 114.0 174.0 L 113.0 175.0 L 112.0 177.0 L 111.0 179.0 L 110.0 181.0 L 109.0 182.0 L 108.0 184.0 L 108.0 185.0 L 108.0 185.0 L 107.0 186.0 L 107.0 186.0 L 107.0 186.0 L 107.0 186.0 L 107.0 186.0 L 107.0 186.0 L 107.0 186.0 L 107.0 185.0 L 108.0 185.0 L 108.0 185.0 L 108.0 185.0 L 108.0 185.0 L 109.0 184.0 L 110.0 184.0 L 111.0 184.0 L 112.0 184.0 L 114.0 184.0 L 116.0 183.0 L 119.0 183.0 L 122.0 183.0 L 127.0 183.0 L 133.0 182.0 L 139.0 181.0 L 145.0 180.0 L 151.0 179.0 L 155.0 177.0 L 160.0 176.0 L 165.0 175.0 L 170.0 175.0 L 176.0 174.0 L 181.0 174.0 L 185.0 173.0 L 189.0 173.0 L 192.0 173.0 L 193.0 173.0 L 196.0 173.0 L 197.0 173.0 L 198.0 173.0 L 199.0 173.0 L 200.0 173.0 L 201.0 173.0 L 202.0 173.0 L 203.0 174.0 L 203.0 174.0 L 203.0 174.0 L 203.0 174.0 L 203.0 174.0 L 203.0 175.0 L 203.0 175.0 L 203.0 175.0 L 202.0 176.0 L 202.0 176.0 L 201.0 177.0 L 200.0 178.0 L 199.0 180.0 L 198.0 182.0 L 198.0 185.0 L 196.0 188.0 L 195.0 192.0 L 194.0 196.0 L 192.0 202.0 L 190.0 208.0 L 187.0 216.0 L 183.0 226.0 L 178.0 235.0 L 176.0 239.0 L 169.0 249.0 L 166.0 252.0 L 164.0 255.0 L 163.0 256.0 L 163.0 257.0 " stroke="black" fill="none" stroke-width="5.0" stroke-linecap="round" stroke-linejoin="round" />
</svg>