<svg xmlns="http://www.w3.org/2000/svg" width="300" height="300" viewBox="0 0 300 300">
<path d="M 149.0 88.0 L 149.0 88.0 L 149.0 88.0 L 149.0 87.0 L 149.0 87.0 L 149.0 87.0 L 149.0 87.0 L 149.0 87.0 L 149.0 87.0 L 149.0 87.0 L 148.0 87.0 L 148.0 88.0 L 148.0 89.0 L 147.0 91.0 L 147.0 94.0 L 146.0 97.0 L 146.0 102.0 L 145.0 106.0 L 143.0 111.0 L 142.0 116.0 L 141.0 120.0 L 139.0 124.0 L 138.0 128.0 L 136.0 132.0 L 134.0 136.0 L 133.0 140.0 L 131.0 144.0 L 129.0 148.0 L 127.0 152.0 L 125.0 155.0 L 123.0 158.0 L 121.0 161.0 L 119.0 163.0 L 117.0 166.0 L 115.0 169.0 L 114.0 172.0 L 112.0 176.0 L 110.0 181.0 L 109.0 185.0 L 108.0 190.0 L 107.0 194.0 L 106.0 197.0 L 105.0 200.0 L 104.0 202.0 L 103.0 204.0 L 101.0 207.0 L 100.0 209.0 L 99.0 212.0 L 98.0 214.0 L 96.0 217.0 L 95.0 220.0 L 94.0 222.0 L 93.0 223.0 L 93.0 224.0 L 92.0 225.0 L 92.0 225.0 L 92.0 225.0 L 92.0 225.0 L 92.0 225.0 L 92.0 225.0 L 92.0 225.0 L 92.0 225.0 L 92.0 225.0 L 93.0 225.0 L 93.0 225.0 L 93.0 225.0 L 94.0 225.0 L 95.0 225.0 L 96.0 225.0 L 97.0 224.0 L 99.0 224.0 L 100.0 224.0 L 102.0 223.0 L 105.0 222.0 L 108.0 221.0 L 112.0 220.0 L 118.0 218.0 L 125.0 216.0 L 134.0 213.0 L 144.0 211.0 L 151.0 209.0 L 159.0 206.0 L 167.0 204.0 L 176.0 203.0 L 184.0 202.0 L 190.0 200.0 L 194.0 200.0 L 196.0 200.0 L 197.0 200.0 L 198.0 200.0 L 199.0 200.0 " stroke="black" fill="none" stroke-width="5.0" stroke-linecap="round" stroke-linejoin="round" />
<path d="M 187.0 172.0 L 187.0 172.0 L 187.0 171.0 L 187.0 171.0 L 187.0 170.0 L 187.0 170.0 L 187.0 170.0 L 187.0 170.0 L 187.0 170.0 L 188.0 171.0 L 189.0 173.0 L 190.0 175.0 L 192.0 178.0 L 194.0 182.0 L 196.0 187.0 L 198.0 193.0 L 201.0 199.0 L 204.0 206.0 L 208.0 214.0 L 210.0 222.0 L 213.0 229.0 L 215.0 234.0 L 218.0 236.0 L 219.0 237.0 L 221.0 237.0 L 223.0 237.0 " stroke="black" fill="none" stroke-width="5.0" stroke-linecap="round" stroke-linejoin="round" />
</svg>