<svg xmlns="http://www.w3.org/2000/svg" width="300" height="300" viewBox="0 0 300 300">
<path d="M 111.0 76.0 L 111.0 76.0 L 111.0 76.0 L 111.0 75.0 L 111.0 75.0 L 111.0 75.0 L 111.0 75.0 L 111.0 77.0 L 111.0 79.0 L 111.0 81.0 L 111.0 85.0 L 110.0 88.0 L 109.0 93.0 L 108.0 98.0 L 107.0 103.0 L 106.0 108.0 L 105.0 113.0 L 103.0 117.0 L 102.0 121.0 L 101.0 125.0 L 100.0 127.0 L 99.0 130.0 L 98.0 131.0 L 98.0 132.0 L 97.0 133.0 L 96.0 133.0 L 96.0 133.0 L 95.0 133.0 L 95.0 134.0 L 94.0 134.0 L 94.0 134.0 L 94.0 134.0 L 94.0 134.0 L 94.0 134.0 L 94.0 134.0 L 95.0 134.0 L 96.0 134.0 L 97.0 134.0 L 97.0 134.0 L 98.0 134.0 L 99.0 134.0 L 100.0 134.0 L 101.0 134.0 L 101.0 134.0 L 102.0 134.0 L 103.0 134.0 L 105.0 133.0 L 106.0 133.0 L 107.0 133.0 L 109.0 133.0 L 110.0 133.0 L 112.0 133.0 L 114.0 132.0 L 117.0 132.0 L 119.0 132.0 L 123.0 132.0 L 126.0 131.0 L 130.0 131.0 L 133.0 130.0 L 137.0 130.0 L 140.0 129.0 L 143.0 129.0 L 146.0 128.0 L 148.0 128.0 L 150.0 128.0 L 152.0 127.0 L 153.0 127.0 L 154.0 127.0 L 156.0 127.0 L 157.0 127.0 L 159.0 127.0 L 161.0 127.0 L 163.0 127.0 L 165.0 127.0 L 167.0 127.0 L 170.0 127.0 L 173.0 126.0 L 175.0 126.0 L 178.0 126.0 L 180.0 126.0 L 183.0 126.0 L 185.0 126.0 L 187.0 126.0 L 189.0 126.0 L 191.0 126.0 L 193.0 127.0 L 194.0 127.0 L 196.0 127.0 L 197.0 127.0 L 198.0 127.0 L 200.0 127.0 L 201.0 127.0 L 202.0 127.0 L 203.0 127.0 L 204.0 127.0 L 204.0 127.0 L 205.0 128.0 L 205.0 128.0 L 206.0 128.0 L 206.0 129.0 L 206.0 129.0 L 206.0 130.0 L 206.0 131.0 L 206.0 132.0 L 206.0 133.0 L 206.0 135.0 L 206.0 137.0 L 205.0 140.0 L 205.0 143.0 L 204.0 146.0 L 204.0 150.0 L 203.0 154.0 L 202.0 159.0 L 201.0 163.0 L 201.0 168.0 L 200.0 173.0 L 199.0 178.0 L 198.0 184.0 L 198.0 190.0 L 197.0 195.0 L 197.0 199.0 L 196.0 204.0 L 195.0 206.0 L 195.0 209.0 L 194.0 212.0 L 194.0 214.0 L 193.0 217.0 L 192.0 221.0 L 191.0 224.0 L 190.0 228.0 L 189.0 232.0 L 188.0 235.0 L 187.0 237.0 L 186.0 240.0 L 185.0 242.0 L 184.0 244.0 L 182.0 246.0 L 181.0 247.0 L 179.0 248.0 L 177.0 249.0 L 175.0 250.0 L 173.0 251.0 L 171.0 251.0 L 168.0 251.0 L 166.0 251.0 L 162.0 251.0 L 159.0 250.0 L 156.0 249.0 L 152.0 247.0 L 148.0 246.0 L 144.0 245.0 L 140.0 244.0 L 137.0 243.0 L 135.0 243.0 L 134.0 242.0 " stroke="black" fill="none" stroke-width="5.0" stroke-linecap="round" stroke-linejoin="round" />
</svg>