<svg xmlns="http://www.w3.org/2000/svg" width="300" height="300" viewBox="0 0 300 300">
<path d="M 82.0 100.0 L 82.0 100.0 L 82.0 100.0 L 82.0 100.0 L 82.0 100.0 L 83.0 100.0 L 85.0 100.0 L 88.0 100.0 L 92.0 100.0 L 98.0 100.0 L 104.0 100.0 L 110.0 100.0 L 117.0 100.0 L 126.0 99.0 L 134.0 99.0 L 142.0 99.0 L 150.0 99.0 L 155.0 99.0 L 160.0 99.0 L 166.0 99.0 L 173.0 99.0 L 180.0 99.0 L 187.0 99.0 L 193.0 99.0 L 197.0 99.0 L 201.0 99.0 L 204.0 99.0 L 207.0 99.0 L 210.0 100.0 " stroke="black" fill="none" stroke-width="5.0" stroke-linecap="round" stroke-linejoin="round" />
<path d="M 76.0 99.0 L 76.0 99.0 L 76.0 100.0 L 76.0 100.0 L 76.0 101.0 L 76.0 102.0 L 76.0 103.0 L 77.0 104.0 L 77.0 105.0 L 77.0 107.0 L 77.0 109.0 L 77.0 111.0 L 77.0 113.0 L 77.0 116.0 L 77.0 119.0 L 77.0 122.0 L 77.0 125.0 L 77.0 128.0 L 77.0 130.0 L 76.0 134.0 L 76.0 136.0 L 76.0 139.0 L 75.0 142.0 L 75.0 145.0 L 74.0 148.0 L 74.0 151.0 L 74.0 153.0 L 73.0 156.0 L 73.0 158.0 L 73.0 160.0 L 73.0 161.0 L 73.0 163.0 L 73.0 165.0 L 73.0 166.0 L 73.0 168.0 L 73.0 170.0 L 73.0 172.0 L 73.0 174.0 L 73.0 176.0 L 73.0 178.0 L 73.0 180.0 L 73.0 182.0 L 73.0 184.0 L 73.0 186.0 L 73.0 188.0 L 73.0 190.0 L 73.0 193.0 L 73.0 194.0 L 73.0 196.0 L 73.0 198.0 L 73.0 200.0 L 73.0 202.0 L 73.0 204.0 L 73.0 205.0 L 73.0 207.0 L 73.0 208.0 L 74.0 210.0 L 74.0 211.0 L 75.0 213.0 L 75.0 214.0 L 76.0 215.0 L 76.0 217.0 L 77.0 217.0 L 78.0 218.0 L 78.0 219.0 L 79.0 220.0 L 79.0 221.0 L 79.0 222.0 L 80.0 223.0 L 80.0 224.0 L 80.0 225.0 L 81.0 226.0 L 81.0 227.0 L 82.0 227.0 L 83.0 228.0 L 83.0 229.0 L 85.0 229.0 L 86.0 230.0 L 87.0 230.0 L 88.0 231.0 L 90.0 232.0 L 91.0 232.0 L 93.0 232.0 L 94.0 233.0 L 96.0 233.0 L 98.0 233.0 L 100.0 233.0 L 102.0 233.0 L 104.0 233.0 L 107.0 233.0 L 109.0 233.0 L 111.0 234.0 L 113.0 234.0 L 116.0 234.0 L 119.0 234.0 L 122.0 234.0 L 125.0 235.0 L 129.0 235.0 L 133.0 235.0 L 137.0 235.0 L 141.0 236.0 L 144.0 236.0 L 147.0 236.0 L 150.0 237.0 L 153.0 237.0 L 154.0 238.0 L 157.0 238.0 L 158.0 238.0 L 160.0 238.0 L 163.0 239.0 L 166.0 239.0 L 168.0 239.0 L 172.0 239.0 L 175.0 239.0 L 178.0 239.0 L 182.0 239.0 L 186.0 239.0 L 189.0 239.0 L 192.0 239.0 L 194.0 239.0 L 196.0 239.0 L 199.0 239.0 L 200.0 239.0 L 202.0 238.0 L 203.0 238.0 L 204.0 238.0 L 205.0 238.0 L 206.0 238.0 L 206.0 239.0 L 207.0 240.0 " stroke="black" fill="none" stroke-width="5.0" stroke-linecap="round" stroke-linejoin="round" />
</svg>