<svg xmlns="http://www.w3.org/2000/svg" width="300" height="300" viewBox="0 0 300 300">
<path d="M 85.0 89.0 L 85.0 89.0 L 84.0 89.0 L 83.0 89.0 L 83.0 88.0 L 82.0 88.0 L 82.0 88.0 L 82.0 88.0 L 83.0 89.0 L 85.0 91.0 L 87.0 94.0 L 90.0 97.0 L 94.0 101.0 L 99.0 105.0 L 103.0 109.0 L 109.0 113.0 L 115.0 117.0 L 121.0 121.0 L 128.0 124.0 L 134.0 127.0 L 139.0 130.0 L 143.0 132.0 L 145.0 134.0 L 147.0 136.0 L 148.0 137.0 " stroke="black" fill="none" stroke-width="5.0" stroke-linecap="round" stroke-linejoin="round" />
<path d="M 206.0 90.0 L 206.0 90.0 L 206.0 90.0 L 205.0 91.0 L 204.0 92.0 L 204.0 93.0 L 202.0 94.0 L 201.0 96.0 L 200.0 98.0 L 198.0 101.0 L 196.0 104.0 L 193.0 107.0 L 191.0 111.0 L 187.0 115.0 L 184.0 118.0 L 180.0 122.0 L 176.0 125.0 L 171.0 128.0 L 167.0 131.0 L 163.0 132.0 L 160.0 134.0 L 157.0 136.0 L 155.0 137.0 L 154.0 137.0 L 153.0 138.0 L 152.0 139.0 L 152.0 139.0 L 152.0 140.0 L 152.0 140.0 L 152.0 140.0 L 152.0 141.0 L 152.0 141.0 L 152.0 141.0 L 152.0 142.0 L 152.0 142.0 L 152.0 142.0 L 152.0 143.0 L 152.0 143.0 L 152.0 144.0 L 152.0 145.0 L 152.0 146.0 L 151.0 146.0 L 151.0 147.0 L 151.0 149.0 L 151.0 150.0 L 151.0 152.0 L 151.0 154.0 L 151.0 157.0 L 151.0 161.0 L 151.0 165.0 L 151.0 170.0 L 151.0 176.0 L 151.0 182.0 L 151.0 189.0 L 151.0 196.0 L 151.0 203.0 L 151.0 209.0 L 150.0 216.0 L 149.0 222.0 L 149.0 229.0 L 148.0 237.0 L 148.0 242.0 L 147.0 247.0 L 147.0 250.0 L 147.0 252.0 L 147.0 252.0 L 147.0 252.0 L 147.0 252.0 L 147.0 252.0 L 147.0 252.0 " stroke="black" fill="none" stroke-width="5.0" stroke-linecap="round" stroke-linejoin="round" />
</svg>