<svg xmlns="http://www.w3.org/2000/svg" width="300" height="300" viewBox="0 0 300 300">
<path d="M 93.0 91.0 L 93.0 91.0 L 93.0 91.0 L 94.0 90.0 L 94.0 90.0 L 95.0 90.0 L 96.0 89.0 L 97.0 89.0 L 100.0 89.0 L 102.0 90.0 L 106.0 90.0 L 112.0 91.0 L 119.0 91.0 L 130.0 91.0 L 142.0 91.0 L 152.0 91.0 L 162.0 91.0 L 174.0 91.0 L 184.0 91.0 L 192.0 91.0 L 199.0 91.0 L 203.0 91.0 L 208.0 91.0 L 213.0 91.0 L 217.0 91.0 L 220.0 91.0 L 223.0 92.0 L 223.0 92.0 " stroke="black" fill="none" stroke-width="5.0" stroke-linecap="round" stroke-linejoin="round" />
<path d="M 111.0 98.0 L 111.0 98.0 L 111.0 98.0 L 111.0 98.0 L 110.0 98.0 L 110.0 98.0 L 110.0 98.0 L 110.0 99.0 L 109.0 100.0 L 109.0 101.0 L 109.0 103.0 L 108.0 105.0 L 108.0 108.0 L 108.0 111.0 L 108.0 114.0 L 107.0 118.0 L 106.0 121.0 L 105.0 125.0 L 104.0 128.0 L 102.0 132.0 L 101.0 136.0 L 99.0 140.0 L 98.0 143.0 L 96.0 147.0 L 95.0 150.0 L 94.0 152.0 L 94.0 154.0 L 93.0 155.0 L 93.0 156.0 L 93.0 156.0 L 93.0 157.0 L 93.0 157.0 L 93.0 157.0 L 93.0 157.0 L 93.0 157.0 L 93.0 157.0 L 93.0 157.0 L 93.0 157.0 L 93.0 157.0 L 93.0 157.0 L 93.0 157.0 L 93.0 157.0 L 93.0 157.0 L 94.0 157.0 L 94.0 157.0 L 95.0 157.0 L 96.0 158.0 L 97.0 158.0 L 98.0 158.0 L 100.0 158.0 L 101.0 159.0 L 103.0 159.0 L 104.0 159.0 L 106.0 159.0 L 108.0 159.0 L 110.0 159.0 L 111.0 160.0 L 114.0 160.0 L 116.0 160.0 L 120.0 160.0 L 123.0 161.0 L 128.0 161.0 L 132.0 161.0 L 138.0 161.0 L 142.0 161.0 L 147.0 161.0 L 151.0 161.0 L 154.0 161.0 L 156.0 161.0 L 159.0 161.0 L 162.0 161.0 L 165.0 161.0 L 168.0 161.0 L 171.0 161.0 L 174.0 161.0 L 178.0 161.0 L 181.0 161.0 L 184.0 161.0 L 187.0 161.0 L 189.0 161.0 L 191.0 162.0 L 193.0 162.0 L 194.0 162.0 L 195.0 163.0 L 197.0 163.0 L 198.0 163.0 L 199.0 163.0 L 200.0 163.0 L 201.0 163.0 L 202.0 163.0 L 203.0 163.0 L 204.0 163.0 L 205.0 163.0 L 206.0 163.0 L 206.0 163.0 L 207.0 163.0 L 208.0 163.0 L 209.0 163.0 L 209.0 163.0 L 210.0 163.0 L 210.0 163.0 L 211.0 163.0 L 211.0 163.0 L 211.0 164.0 L 211.0 164.0 L 211.0 164.0 L 211.0 164.0 L 212.0 165.0 L 212.0 165.0 L 212.0 166.0 L 212.0 166.0 L 212.0 166.0 L 212.0 167.0 L 212.0 167.0 L 212.0 168.0 L 212.0 168.0 L 212.0 169.0 L 212.0 170.0 L 212.0 171.0 L 212.0 173.0 L 211.0 175.0 L 210.0 179.0 L 209.0 183.0 L 208.0 188.0 L 206.0 194.0 L 204.0 202.0 L 202.0 210.0 L 200.0 219.0 L 197.0 229.0 L 195.0 238.0 L 194.0 244.0 L 193.0 246.0 L 193.0 246.0 L 193.0 244.0 " stroke="black" fill="none" stroke-width="5.0" stroke-linecap="round" stroke-linejoin="round" />
<path d="M 155.0 100.0 L 155.0 101.0 L 155.0 102.0 L 155.0 103.0 L 154.0 105.0 L 154.0 106.0 L 154.0 107.0 L 154.0 108.0 L 153.0 109.0 L 153.0 111.0 L 153.0 112.0 L 152.0 114.0 L 152.0 116.0 L 152.0 118.0 L 152.0 121.0 L 152.0 123.0 L 152.0 126.0 L 152.0 129.0 L 152.0 132.0 L 152.0 136.0 L 152.0 140.0 L 151.0 144.0 L 151.0 149.0 L 150.0 154.0 L 149.0 158.0 L 148.0 162.0 L 147.0 165.0 L 146.0 169.0 L 145.0 172.0 L 143.0 175.0 L 141.0 179.0 L 138.0 183.0 L 135.0 187.0 L 132.0 192.0 L 127.0 197.0 L 123.0 201.0 L 118.0 205.0 L 114.0 210.0 L 110.0 214.0 L 107.0 218.0 L 104.0 223.0 L 101.0 227.0 L 97.0 231.0 L 93.0 235.0 L 89.0 238.0 L 86.0 240.0 " stroke="black" fill="none" stroke-width="5.0" stroke-linecap="round" stroke-linejoin="round" />
</svg>