<svg xmlns="http://www.w3.org/2000/svg" width="300" height="300" viewBox="0 0 300 300">
<path d="M 146.0 67.0 L 146.0 67.0 L 145.0 66.0 L 144.0 65.0 L 144.0 65.0 L 144.0 65.0 L 144.0 67.0 L 144.0 69.0 L 145.0 73.0 L 147.0 76.0 L 148.0 80.0 L 151.0 84.0 L 152.0 85.0 " stroke="black" fill="none" stroke-width="5.0" stroke-linecap="round" stroke-linejoin="round" />
<path d="M 72.0 96.0 L 72.0 96.0 L 72.0 95.0 L 72.0 95.0 L 72.0 95.0 L 73.0 94.0 L 75.0 94.0 L 80.0 94.0 L 88.0 94.0 L 97.0 93.0 L 107.0 92.0 L 117.0 91.0 L 129.0 90.0 L 141.0 89.0 L 152.0 89.0 L 162.0 89.0 L 177.0 89.0 L 191.0 89.0 L 202.0 89.0 L 215.0 89.0 L 226.0 91.0 L 233.0 93.0 L 237.0 95.0 L 238.0 96.0 " stroke="black" fill="none" stroke-width="5.0" stroke-linecap="round" stroke-linejoin="round" />
<path d="M 102.0 119.0 L 102.0 119.0 L 102.0 119.0 L 101.0 118.0 L 101.0 118.0 L 101.0 118.0 L 101.0 119.0 L 101.0 120.0 L 101.0 125.0 L 101.0 129.0 L 102.0 134.0 L 103.0 139.0 L 104.0 144.0 L 106.0 148.0 L 107.0 152.0 " stroke="black" fill="none" stroke-width="5.0" stroke-linecap="round" stroke-linejoin="round" />
<path d="M 106.0 119.0 L 106.0 119.0 L 106.0 118.0 L 105.0 118.0 L 105.0 117.0 L 105.0 117.0 L 106.0 116.0 L 108.0 116.0 L 112.0 115.0 L 119.0 115.0 L 130.0 114.0 L 142.0 114.0 L 153.0 114.0 L 166.0 114.0 L 179.0 113.0 L 191.0 113.0 L 200.0 113.0 L 207.0 113.0 L 212.0 113.0 L 217.0 115.0 L 219.0 117.0 L 220.0 119.0 L 220.0 122.0 L 218.0 125.0 L 216.0 127.0 L 212.0 130.0 L 208.0 133.0 L 204.0 136.0 L 199.0 139.0 L 196.0 142.0 L 194.0 144.0 " stroke="black" fill="none" stroke-width="5.0" stroke-linecap="round" stroke-linejoin="round" />
<path d="M 110.0 158.0 L 109.0 158.0 L 106.0 158.0 L 105.0 158.0 L 104.0 157.0 L 104.0 157.0 L 104.0 157.0 L 106.0 157.0 L 109.0 156.0 L 116.0 155.0 L 125.0 155.0 L 137.0 154.0 L 148.0 153.0 L 159.0 152.0 L 173.0 151.0 L 185.0 150.0 L 194.0 150.0 L 200.0 150.0 L 202.0 150.0 " stroke="black" fill="none" stroke-width="5.0" stroke-linecap="round" stroke-linejoin="round" />
<path d="M 91.0 173.0 L 90.0 173.0 L 89.0 173.0 L 87.0 173.0 L 86.0 173.0 L 85.0 173.0 L 85.0 173.0 L 85.0 173.0 L 87.0 172.0 L 90.0 172.0 L 94.0 171.0 L 99.0 171.0 L 104.0 170.0 L 110.0 170.0 L 118.0 169.0 L 128.0 169.0 L 140.0 169.0 L 153.0 169.0 L 164.0 169.0 L 176.0 170.0 L 188.0 170.0 L 195.0 169.0 L 199.0 169.0 L 201.0 168.0 L 202.0 168.0 L 202.0 168.0 L 202.0 168.0 L 202.0 168.0 L 200.0 168.0 L 198.0 168.0 L 196.0 169.0 L 194.0 170.0 L 191.0 172.0 L 189.0 174.0 L 185.0 177.0 L 181.0 179.0 L 176.0 182.0 L 171.0 185.0 L 164.0 189.0 L 157.0 192.0 L 152.0 194.0 L 147.0 196.0 L 144.0 198.0 L 142.0 199.0 L 141.0 199.0 L 141.0 199.0 L 141.0 199.0 L 141.0 199.0 L 143.0 199.0 L 144.0 199.0 L 145.0 200.0 L 147.0 200.0 L 149.0 201.0 L 151.0 203.0 L 153.0 204.0 L 155.0 206.0 L 157.0 208.0 L 160.0 210.0 L 162.0 213.0 L 164.0 216.0 L 164.0 220.0 L 164.0 226.0 L 163.0 233.0 L 160.0 240.0 L 157.0 247.0 L 153.0 255.0 L 150.0 260.0 L 147.0 265.0 L 143.0 268.0 L 140.0 270.0 L 137.0 270.0 L 133.0 268.0 L 130.0 266.0 L 126.0 262.0 L 122.0 257.0 L 119.0 254.0 " stroke="black" fill="none" stroke-width="5.0" stroke-linecap="round" stroke-linejoin="round" />
<path d="M 58.0 217.0 L 58.0 217.0 L 58.0 217.0 L 58.0 217.0 L 58.0 217.0 L 59.0 216.0 L 63.0 215.0 L 69.0 214.0 L 81.0 213.0 L 95.0 213.0 L 111.0 213.0 L 130.0 213.0 L 147.0 213.0 L 161.0 214.0 L 178.0 214.0 L 193.0 214.0 L 206.0 213.0 L 221.0 212.0 L 234.0 211.0 L 242.0 210.0 L 250.0 210.0 L 255.0 210.0 L 257.0 210.0 " stroke="black" fill="none" stroke-width="5.0" stroke-linecap="round" stroke-linejoin="round" />
</svg>