<svg xmlns="http://www.w3.org/2000/svg" width="300" height="300" viewBox="0 0 300 300">
<path d="M 98.0 88.0 L 98.0 88.0 L 98.0 88.0 L 98.0 88.0 L 98.0 88.0 L 98.0 88.0 L 98.0 88.0 L 98.0 88.0 L 98.0 88.0 L 98.0 88.0 L 98.0 88.0 L 98.0 89.0 L 98.0 89.0 L 98.0 89.0 L 98.0 90.0 L 98.0 91.0 L 99.0 93.0 L 99.0 94.0 L 99.0 96.0 L 100.0 98.0 L 100.0 100.0 L 100.0 102.0 L 100.0 105.0 L 100.0 107.0 L 100.0 109.0 L 100.0 112.0 L 100.0 114.0 L 100.0 116.0 L 100.0 117.0 L 100.0 119.0 L 100.0 121.0 L 100.0 122.0 L 100.0 123.0 L 100.0 125.0 L 100.0 126.0 L 100.0 127.0 L 100.0 129.0 L 100.0 130.0 L 100.0 132.0 L 100.0 134.0 L 101.0 135.0 L 101.0 137.0 L 101.0 139.0 L 101.0 141.0 L 101.0 143.0 L 101.0 144.0 L 102.0 146.0 L 102.0 148.0 L 102.0 150.0 L 102.0 152.0 L 102.0 154.0 L 102.0 155.0 L 102.0 157.0 L 102.0 159.0 L 101.0 160.0 L 101.0 162.0 L 101.0 163.0 L 101.0 164.0 L 101.0 166.0 L 101.0 167.0 L 101.0 169.0 L 100.0 170.0 L 100.0 171.0 L 100.0 173.0 L 100.0 175.0 L 100.0 176.0 L 99.0 178.0 L 99.0 180.0 L 99.0 181.0 L 98.0 183.0 L 98.0 185.0 L 98.0 187.0 L 97.0 189.0 L 97.0 191.0 L 96.0 192.0 L 96.0 194.0 L 95.0 196.0 L 95.0 197.0 L 94.0 198.0 L 94.0 200.0 L 93.0 201.0 L 92.0 204.0 L 92.0 205.0 L 91.0 206.0 L 90.0 208.0 L 90.0 209.0 L 89.0 211.0 L 88.0 212.0 L 88.0 213.0 L 87.0 214.0 L 86.0 216.0 L 86.0 217.0 L 85.0 218.0 L 84.0 220.0 L 83.0 221.0 L 81.0 223.0 L 80.0 225.0 L 79.0 227.0 L 77.0 229.0 L 76.0 231.0 L 74.0 233.0 L 73.0 234.0 L 71.0 236.0 L 69.0 238.0 L 68.0 239.0 L 66.0 240.0 L 66.0 240.0 " stroke="black" fill="none" stroke-width="5.0" stroke-linecap="round" stroke-linejoin="round" />
<path d="M 104.0 87.0 L 104.0 87.0 L 104.0 87.0 L 104.0 87.0 L 104.0 87.0 L 104.0 88.0 L 103.0 88.0 L 103.0 88.0 L 103.0 88.0 L 103.0 88.0 L 103.0 88.0 L 103.0 88.0 L 103.0 88.0 L 103.0 88.0 L 103.0 88.0 L 103.0 88.0 L 104.0 88.0 L 104.0 88.0 L 105.0 88.0 L 105.0 88.0 L 105.0 88.0 L 106.0 88.0 L 106.0 88.0 L 107.0 88.0 L 107.0 88.0 L 108.0 87.0 L 108.0 87.0 L 109.0 87.0 L 110.0 87.0 L 110.0 87.0 L 111.0 87.0 L 112.0 87.0 L 112.0 87.0 L 113.0 87.0 L 114.0 87.0 L 115.0 87.0 L 116.0 87.0 L 117.0 87.0 L 118.0 87.0 L 119.0 87.0 L 121.0 87.0 L 122.0 87.0 L 123.0 87.0 L 125.0 87.0 L 126.0 87.0 L 127.0 87.0 L 129.0 87.0 L 130.0 87.0 L 131.0 87.0 L 133.0 87.0 L 134.0 87.0 L 135.0 87.0 L 136.0 87.0 L 137.0 87.0 L 139.0 87.0 L 140.0 87.0 L 141.0 87.0 L 142.0 87.0 L 144.0 87.0 L 145.0 87.0 L 146.0 87.0 L 147.0 87.0 L 148.0 87.0 L 149.0 87.0 L 150.0 87.0 L 151.0 87.0 L 152.0 87.0 L 152.0 87.0 L 153.0 87.0 L 153.0 87.0 L 154.0 87.0 L 154.0 87.0 L 155.0 87.0 L 155.0 87.0 L 156.0 87.0 L 157.0 87.0 L 157.0 87.0 L 158.0 87.0 L 158.0 87.0 L 159.0 87.0 L 160.0 87.0 L 160.0 87.0 L 161.0 87.0 L 161.0 87.0 L 162.0 87.0 L 163.0 87.0 L 164.0 87.0 L 164.0 87.0 L 165.0 87.0 L 166.0 87.0 L 167.0 87.0 L 168.0 87.0 L 168.0 87.0 L 169.0 87.0 L 170.0 87.0 L 171.0 87.0 L 172.0 87.0 L 173.0 87.0 L 174.0 87.0 L 175.0 87.0 L 176.0 87.0 L 177.0 87.0 L 177.0 87.0 L 178.0 87.0 L 179.0 87.0 L 180.0 87.0 L 180.0 87.0 L 181.0 87.0 L 182.0 87.0 L 183.0 87.0 L 184.0 87.0 L 184.0 87.0 L 185.0 87.0 L 186.0 87.0 L 186.0 87.0 L 187.0 87.0 L 187.0 87.0 L 188.0 87.0 L 189.0 87.0 L 189.0 87.0 L 190.0 87.0 L 190.0 87.0 L 191.0 87.0 L 191.0 87.0 L 192.0 87.0 L 192.0 87.0 L 193.0 87.0 L 193.0 87.0 L 193.0 87.0 L 194.0 87.0 L 194.0 87.0 L 194.0 87.0 L 195.0 87.0 L 195.0 87.0 L 195.0 87.0 L 196.0 87.0 L 196.0 87.0 L 196.0 87.0 L 196.0 87.0 L 197.0 87.0 L 197.0 87.0 L 197.0 87.0 L 197.0 87.0 L 198.0 87.0 L 198.0 87.0 L 198.0 87.0 L 198.0 87.0 L 199.0 87.0 L 199.0 87.0 L 199.0 87.0 L 199.0 88.0 L 200.0 88.0 L 200.0 88.0 L 200.0 88.0 L 200.0 88.0 L 201.0 88.0 L 201.0 88.0 L 201.0 88.0 L 202.0 88.0 L 202.0 89.0 L 202.0 89.0 L 202.0 89.0 L 203.0 89.0 L 203.0 89.0 L 203.0 89.0 L 203.0 89.0 L 204.0 89.0 L 204.0 90.0 L 204.0 90.0 L 204.0 90.0 L 204.0 90.0 L 204.0 91.0 L 204.0 91.0 L 204.0 92.0 L 204.0 93.0 L 204.0 94.0 L 204.0 95.0 L 204.0 96.0 L 204.0 98.0 L 204.0 99.0 L 204.0 101.0 L 204.0 102.0 L 204.0 104.0 L 204.0 106.0 L 204.0 107.0 L 204.0 109.0 L 204.0 111.0 L 203.0 113.0 L 203.0 114.0 L 203.0 116.0 L 203.0 117.0 L 203.0 119.0 L 203.0 120.0 L 203.0 121.0 L 203.0 122.0 L 203.0 123.0 L 203.0 124.0 L 203.0 126.0 L 203.0 127.0 L 203.0 129.0 L 203.0 130.0 L 203.0 132.0 L 203.0 133.0 L 203.0 135.0 L 203.0 136.0 L 203.0 138.0 L 202.0 139.0 L 202.0 141.0 L 202.0 143.0 L 202.0 144.0 L 202.0 146.0 L 202.0 148.0 L 202.0 150.0 L 202.0 152.0 L 202.0 154.0 L 202.0 155.0 L 202.0 157.0 L 202.0 159.0 L 202.0 161.0 L 201.0 162.0 L 201.0 164.0 L 201.0 165.0 L 201.0 166.0 L 201.0 167.0 L 200.0 168.0 L 200.0 170.0 L 200.0 171.0 L 200.0 172.0 L 200.0 173.0 L 200.0 174.0 L 200.0 175.0 L 200.0 177.0 L 200.0 178.0 L 200.0 179.0 L 200.0 180.0 L 200.0 181.0 L 200.0 182.0 L 200.0 183.0 L 200.0 185.0 L 200.0 186.0 L 200.0 187.0 L 200.0 188.0 L 200.0 189.0 L 200.0 191.0 L 200.0 192.0 L 200.0 193.0 L 200.0 194.0 L 200.0 195.0 L 200.0 196.0 L 200.0 197.0 L 200.0 198.0 L 200.0 199.0 L 200.0 200.0 L 200.0 201.0 L 200.0 202.0 L 200.0 202.0 L 200.0 203.0 L 200.0 204.0 L 200.0 205.0 L 200.0 206.0 L 200.0 207.0 L 200.0 208.0 L 200.0 209.0 L 200.0 209.0 L 200.0 210.0 L 200.0 211.0 L 200.0 212.0 L 200.0 213.0 L 199.0 214.0 L 199.0 216.0 L 199.0 217.0 L 199.0 218.0 L 199.0 219.0 L 199.0 221.0 L 198.0 222.0 L 198.0 223.0 L 198.0 225.0 L 198.0 226.0 L 198.0 227.0 L 198.0 229.0 L 198.0 230.0 L 198.0 231.0 L 198.0 232.0 L 198.0 233.0 L 197.0 234.0 L 197.0 235.0 L 197.0 236.0 L 197.0 237.0 L 197.0 237.0 L 197.0 238.0 L 197.0 239.0 L 197.0 239.0 L 197.0 240.0 L 197.0 240.0 L 197.0 241.0 L 197.0 241.0 L 197.0 242.0 L 196.0 242.0 L 196.0 242.0 L 196.0 243.0 L 196.0 243.0 L 196.0 243.0 L 196.0 244.0 L 196.0 244.0 L 196.0 244.0 L 196.0 245.0 L 196.0 245.0 L 196.0 245.0 L 196.0 246.0 L 196.0 246.0 L 196.0 246.0 L 196.0 246.0 L 196.0 246.0 L 196.0 246.0 L 196.0 246.0 L 196.0 247.0 L 196.0 247.0 L 196.0 247.0 L 196.0 247.0 L 196.0 247.0 L 196.0 247.0 L 196.0 247.0 L 196.0 247.0 L 196.0 247.0 L 196.0 247.0 L 196.0 247.0 L 195.0 247.0 L 195.0 247.0 L 195.0 247.0 L 195.0 247.0 L 195.0 247.0 L 195.0 247.0 L 195.0 248.0 L 195.0 248.0 L 195.0 248.0 L 195.0 248.0 L 195.0 248.0 L 195.0 248.0 L 195.0 248.0 L 195.0 248.0 L 194.0 248.0 L 194.0 248.0 L 194.0 248.0 L 194.0 248.0 L 194.0 249.0 L 194.0 249.0 L 194.0 249.0 L 194.0 249.0 L 194.0 249.0 L 194.0 249.0 L 194.0 249.0 L 194.0 249.0 L 194.0 249.0 L 193.0 249.0 L 193.0 249.0 L 193.0 249.0 L 193.0 249.0 L 193.0 249.0 L 192.0 249.0 L 192.0 249.0 L 192.0 248.0 L 191.0 248.0 L 191.0 248.0 L 190.0 248.0 L 190.0 248.0 L 189.0 248.0 L 188.0 248.0 L 187.0 248.0 L 186.0 247.0 L 185.0 247.0 L 183.0 247.0 L 182.0 247.0 L 180.0 246.0 L 178.0 246.0 L 176.0 246.0 L 174.0 246.0 L 172.0 246.0 L 170.0 245.0 L 168.0 245.0 L 166.0 244.0 L 165.0 244.0 L 164.0 243.0 L 163.0 241.0 L 163.0 240.0 " stroke="black" fill="none" stroke-width="5.0" stroke-linecap="round" stroke-linejoin="round" />
<path d="M 136.0 114.0 L 136.0 114.0 L 136.0 114.0 L 136.0 114.0 L 136.0 114.0 L 136.0 114.0 L 136.0 114.0 L 136.0 114.0 L 136.0 114.0 L 137.0 114.0 L 139.0 116.0 L 140.0 117.0 L 143.0 119.0 L 146.0 121.0 L 149.0 124.0 L 152.0 127.0 L 156.0 130.0 L 159.0 132.0 L 163.0 135.0 L 166.0 137.0 L 166.0 137.0 " stroke="black" fill="none" stroke-width="5.0" stroke-linecap="round" stroke-linejoin="round" />
<path d="M 66.0 163.0 L 66.0 163.0 L 66.0 163.0 L 66.0 162.0 L 66.0 162.0 L 66.0 162.0 L 66.0 162.0 L 66.0 162.0 L 66.0 161.0 L 66.0 161.0 L 66.0 161.0 L 66.0 161.0 L 67.0 161.0 L 68.0 161.0 L 69.0 160.0 L 70.0 160.0 L 72.0 160.0 L 74.0 159.0 L 77.0 159.0 L 80.0 158.0 L 83.0 158.0 L 85.0 158.0 L 88.0 158.0 L 90.0 158.0 L 92.0 158.0 L 94.0 158.0 L 96.0 158.0 L 97.0 158.0 L 98.0 158.0 L 99.0 158.0 L 100.0 158.0 L 101.0 158.0 L 102.0 158.0 L 103.0 158.0 L 103.0 158.0 L 104.0 158.0 L 105.0 158.0 L 106.0 158.0 L 106.0 158.0 L 107.0 158.0 L 108.0 158.0 L 109.0 158.0 L 110.0 159.0 L 111.0 159.0 L 112.0 159.0 L 113.0 159.0 L 114.0 159.0 L 116.0 159.0 L 117.0 159.0 L 119.0 159.0 L 120.0 159.0 L 122.0 159.0 L 124.0 159.0 L 125.0 160.0 L 127.0 160.0 L 128.0 160.0 L 130.0 160.0 L 132.0 160.0 L 133.0 160.0 L 135.0 160.0 L 136.0 160.0 L 137.0 161.0 L 139.0 161.0 L 141.0 161.0 L 142.0 161.0 L 143.0 161.0 L 144.0 161.0 L 146.0 161.0 L 147.0 161.0 L 148.0 161.0 L 149.0 161.0 L 150.0 161.0 L 150.0 160.0 L 151.0 160.0 L 152.0 160.0 L 153.0 160.0 L 154.0 160.0 L 155.0 160.0 L 156.0 160.0 L 157.0 160.0 L 158.0 160.0 L 160.0 160.0 L 161.0 160.0 L 163.0 160.0 L 166.0 160.0 L 168.0 160.0 L 171.0 160.0 L 174.0 160.0 L 176.0 160.0 L 178.0 160.0 L 180.0 160.0 L 182.0 160.0 L 184.0 160.0 L 185.0 160.0 L 187.0 160.0 L 188.0 160.0 L 190.0 160.0 L 191.0 160.0 L 192.0 160.0 L 193.0 160.0 L 194.0 160.0 L 194.0 161.0 L 195.0 161.0 L 196.0 161.0 L 196.0 161.0 L 197.0 161.0 L 198.0 161.0 L 198.0 161.0 L 199.0 161.0 L 200.0 161.0 L 200.0 161.0 L 201.0 162.0 L 202.0 162.0 L 203.0 162.0 L 205.0 162.0 L 206.0 162.0 L 207.0 162.0 L 209.0 162.0 L 210.0 162.0 L 211.0 162.0 L 213.0 162.0 L 214.0 162.0 L 215.0 162.0 L 217.0 162.0 L 218.0 162.0 L 219.0 162.0 L 221.0 162.0 L 222.0 162.0 L 224.0 162.0 L 225.0 162.0 L 227.0 162.0 L 228.0 163.0 L 229.0 163.0 L 230.0 163.0 L 231.0 163.0 L 232.0 163.0 L 233.0 163.0 L 234.0 163.0 L 235.0 163.0 L 236.0 163.0 L 236.0 163.0 L 237.0 163.0 L 238.0 163.0 L 238.0 163.0 L 239.0 163.0 L 239.0 163.0 L 240.0 163.0 L 240.0 163.0 L 241.0 164.0 L 241.0 164.0 " stroke="black" fill="none" stroke-width="5.0" stroke-linecap="round" stroke-linejoin="round" />
</svg>