<svg xmlns="http://www.w3.org/2000/svg" width="300" height="300" viewBox="0 0 300 300">
<path d="M 107.0 74.0 L 107.0 74.0 L 107.0 74.0 L 107.0 74.0 L 107.0 74.0 L 107.0 75.0 L 107.0 75.0 L 107.0 75.0 L 107.0 75.0 L 108.0 75.0 L 108.0 76.0 L 108.0 77.0 L 108.0 78.0 L 108.0 80.0 L 107.0 82.0 L 105.0 87.0 L 103.0 92.0 L 100.0 99.0 L 95.0 107.0 L 89.0 114.0 L 83.0 122.0 L 76.0 128.0 L 71.0 134.0 L 66.0 140.0 L 62.0 146.0 L 59.0 151.0 L 57.0 154.0 L 56.0 156.0 " stroke="black" fill="none" stroke-width="5.0" stroke-linecap="round" stroke-linejoin="round" />
<path d="M 91.0 118.0 L 91.0 118.0 L 91.0 118.0 L 91.0 118.0 L 91.0 117.0 L 91.0 117.0 L 91.0 117.0 L 91.0 117.0 L 91.0 117.0 L 91.0 117.0 L 91.0 118.0 L 91.0 120.0 L 91.0 122.0 L 91.0 126.0 L 90.0 130.0 L 90.0 136.0 L 90.0 144.0 L 90.0 152.0 L 90.0 160.0 L 90.0 168.0 L 90.0 176.0 L 89.0 186.0 L 89.0 195.0 L 88.0 203.0 L 88.0 210.0 L 88.0 216.0 L 88.0 221.0 L 88.0 227.0 L 88.0 232.0 L 88.0 236.0 L 87.0 240.0 L 87.0 242.0 L 87.0 243.0 " stroke="black" fill="none" stroke-width="5.0" stroke-linecap="round" stroke-linejoin="round" />
<path d="M 131.0 128.0 L 131.0 128.0 L 131.0 128.0 L 131.0 127.0 L 131.0 127.0 L 131.0 127.0 L 131.0 126.0 L 131.0 126.0 L 130.0 126.0 L 130.0 126.0 L 130.0 126.0 L 130.0 127.0 L 130.0 128.0 L 130.0 130.0 L 130.0 132.0 L 130.0 134.0 L 130.0 137.0 L 130.0 141.0 L 130.0 145.0 L 130.0 148.0 L 130.0 152.0 L 130.0 156.0 L 130.0 159.0 L 130.0 162.0 L 130.0 165.0 L 130.0 168.0 L 130.0 171.0 L 130.0 173.0 L 130.0 176.0 L 130.0 178.0 L 130.0 181.0 L 130.0 183.0 L 131.0 186.0 L 131.0 188.0 L 131.0 190.0 L 131.0 192.0 L 131.0 195.0 L 131.0 196.0 L 131.0 198.0 L 131.0 200.0 L 131.0 202.0 L 131.0 203.0 L 131.0 205.0 L 131.0 206.0 L 131.0 207.0 L 131.0 209.0 L 131.0 210.0 L 131.0 211.0 L 131.0 212.0 L 131.0 214.0 L 131.0 215.0 L 131.0 216.0 L 131.0 218.0 L 131.0 219.0 L 131.0 221.0 L 131.0 222.0 L 131.0 224.0 L 131.0 225.0 L 131.0 227.0 L 131.0 228.0 L 131.0 229.0 L 131.0 230.0 L 131.0 231.0 L 131.0 231.0 L 131.0 232.0 L 132.0 232.0 L 132.0 233.0 L 132.0 233.0 L 132.0 233.0 L 132.0 234.0 L 132.0 234.0 L 132.0 234.0 L 133.0 234.0 L 133.0 234.0 L 133.0 234.0 L 133.0 234.0 L 134.0 234.0 L 134.0 234.0 L 134.0 234.0 L 135.0 234.0 L 135.0 233.0 L 136.0 233.0 L 136.0 233.0 L 137.0 232.0 L 137.0 232.0 L 138.0 232.0 L 139.0 232.0 L 140.0 231.0 L 141.0 231.0 L 142.0 231.0 L 142.0 230.0 L 143.0 230.0 L 144.0 230.0 L 145.0 229.0 L 145.0 229.0 L 146.0 229.0 L 146.0 229.0 L 147.0 229.0 L 148.0 229.0 L 148.0 229.0 L 149.0 229.0 L 149.0 229.0 L 150.0 229.0 L 150.0 229.0 L 151.0 229.0 L 151.0 229.0 L 152.0 229.0 L 152.0 229.0 L 153.0 229.0 L 153.0 229.0 L 154.0 229.0 L 155.0 229.0 L 155.0 229.0 L 156.0 229.0 L 156.0 229.0 L 157.0 229.0 L 158.0 229.0 L 159.0 229.0 L 159.0 229.0 L 160.0 229.0 L 162.0 230.0 L 163.0 230.0 L 165.0 230.0 L 166.0 230.0 L 168.0 230.0 L 170.0 230.0 L 173.0 230.0 L 175.0 230.0 L 177.0 230.0 L 179.0 230.0 L 181.0 230.0 L 182.0 230.0 L 184.0 230.0 L 186.0 230.0 L 187.0 230.0 L 189.0 230.0 L 190.0 230.0 L 192.0 230.0 L 193.0 230.0 L 194.0 230.0 L 196.0 230.0 L 197.0 230.0 L 198.0 230.0 L 199.0 230.0 L 201.0 231.0 L 202.0 231.0 L 204.0 231.0 L 205.0 231.0 L 207.0 231.0 L 209.0 231.0 L 210.0 232.0 L 212.0 232.0 L 214.0 232.0 L 216.0 232.0 L 217.0 232.0 L 218.0 232.0 L 219.0 233.0 L 219.0 233.0 L 219.0 233.0 " stroke="black" fill="none" stroke-width="5.0" stroke-linecap="round" stroke-linejoin="round" />
<path d="M 178.0 82.0 L 178.0 82.0 L 178.0 82.0 L 178.0 83.0 L 178.0 84.0 L 178.0 85.0 L 177.0 86.0 L 177.0 87.0 L 177.0 90.0 L 177.0 93.0 L 178.0 96.0 L 178.0 102.0 L 178.0 108.0 L 178.0 114.0 L 178.0 121.0 L 178.0 128.0 L 178.0 135.0 L 178.0 142.0 L 178.0 149.0 L 178.0 155.0 L 178.0 161.0 L 178.0 166.0 L 178.0 170.0 L 178.0 174.0 L 178.0 178.0 L 178.0 183.0 L 178.0 187.0 L 178.0 192.0 L 177.0 195.0 L 177.0 199.0 L 177.0 203.0 L 176.0 206.0 L 176.0 209.0 L 176.0 212.0 L 176.0 215.0 L 176.0 218.0 L 176.0 221.0 L 176.0 223.0 L 176.0 224.0 L 176.0 225.0 L 176.0 225.0 L 177.0 225.0 " stroke="black" fill="none" stroke-width="5.0" stroke-linecap="round" stroke-linejoin="round" />
<path d="M 228.0 127.0 L 228.0 127.0 L 228.0 127.0 L 228.0 127.0 L 228.0 127.0 L 227.0 127.0 L 227.0 127.0 L 227.0 128.0 L 227.0 128.0 L 227.0 129.0 L 227.0 130.0 L 227.0 132.0 L 228.0 135.0 L 228.0 138.0 L 228.0 143.0 L 228.0 147.0 L 228.0 153.0 L 228.0 158.0 L 228.0 163.0 L 228.0 169.0 L 227.0 173.0 L 227.0 179.0 L 227.0 184.0 L 226.0 189.0 L 226.0 194.0 L 225.0 199.0 L 225.0 203.0 L 225.0 207.0 L 225.0 210.0 L 225.0 213.0 L 225.0 217.0 L 225.0 221.0 L 225.0 225.0 L 225.0 229.0 L 226.0 234.0 L 226.0 237.0 L 227.0 241.0 L 227.0 245.0 L 227.0 248.0 L 227.0 250.0 L 227.0 253.0 L 227.0 255.0 L 227.0 256.0 L 227.0 258.0 L 227.0 259.0 L 227.0 260.0 L 227.0 260.0 L 227.0 260.0 " stroke="black" fill="none" stroke-width="5.0" stroke-linecap="round" stroke-linejoin="round" />
</svg>