<svg xmlns="http://www.w3.org/2000/svg" width="300" height="300" viewBox="0 0 300 300">
<path d="M 75.0 125.0 L 74.0 125.0 L 73.0 125.0 L 72.0 125.0 L 71.0 125.0 L 71.0 125.0 L 70.0 125.0 L 70.0 125.0 L 70.0 125.0 L 70.0 125.0 L 70.0 125.0 L 71.0 125.0 L 71.0 125.0 L 73.0 125.0 L 74.0 125.0 L 75.0 125.0 L 77.0 124.0 L 78.0 124.0 L 79.0 124.0 L 81.0 124.0 L 83.0 124.0 L 85.0 124.0 L 87.0 124.0 L 89.0 124.0 L 92.0 124.0 L 94.0 124.0 L 96.0 124.0 L 98.0 124.0 L 100.0 124.0 L 102.0 124.0 L 103.0 124.0 L 105.0 124.0 L 106.0 124.0 L 107.0 124.0 L 108.0 124.0 L 109.0 124.0 L 110.0 123.0 L 111.0 123.0 L 111.0 123.0 L 112.0 123.0 L 113.0 123.0 L 114.0 123.0 L 115.0 122.0 L 116.0 122.0 L 117.0 122.0 L 118.0 122.0 L 119.0 122.0 L 120.0 122.0 L 122.0 122.0 L 124.0 122.0 L 125.0 122.0 L 127.0 122.0 L 129.0 122.0 L 131.0 122.0 L 133.0 122.0 L 134.0 122.0 L 136.0 122.0 L 138.0 122.0 L 139.0 122.0 L 141.0 122.0 L 143.0 122.0 L 145.0 122.0 L 146.0 122.0 L 147.0 122.0 L 149.0 122.0 L 150.0 123.0 L 151.0 123.0 L 152.0 123.0 L 152.0 123.0 L 153.0 123.0 L 154.0 123.0 L 155.0 123.0 L 156.0 123.0 L 157.0 123.0 L 157.0 124.0 L 159.0 124.0 L 160.0 124.0 L 161.0 124.0 L 162.0 124.0 L 163.0 124.0 L 165.0 125.0 L 166.0 125.0 L 168.0 125.0 L 169.0 125.0 L 171.0 125.0 L 172.0 125.0 L 174.0 125.0 L 176.0 125.0 L 177.0 125.0 L 179.0 125.0 L 181.0 125.0 L 182.0 125.0 L 184.0 125.0 L 186.0 125.0 L 187.0 125.0 L 189.0 125.0 L 190.0 125.0 L 192.0 125.0 L 193.0 125.0 L 195.0 125.0 L 196.0 125.0 L 197.0 125.0 L 199.0 125.0 L 201.0 125.0 L 203.0 125.0 L 205.0 125.0 L 207.0 125.0 L 210.0 126.0 L 212.0 126.0 L 216.0 126.0 L 219.0 126.0 L 222.0 126.0 L 226.0 126.0 L 229.0 126.0 L 231.0 125.0 L 234.0 125.0 L 235.0 124.0 L 237.0 124.0 L 237.0 124.0 L 238.0 125.0 " stroke="black" fill="none" stroke-width="5.0" stroke-linecap="round" stroke-linejoin="round" />
<path d="M 153.0 81.0 L 153.0 82.0 L 153.0 82.0 L 153.0 83.0 L 153.0 84.0 L 153.0 86.0 L 153.0 87.0 L 153.0 90.0 L 153.0 95.0 L 153.0 100.0 L 153.0 107.0 L 153.0 115.0 L 153.0 123.0 L 153.0 131.0 L 153.0 139.0 L 153.0 147.0 L 153.0 154.0 L 153.0 160.0 L 152.0 165.0 L 152.0 169.0 L 152.0 172.0 L 152.0 175.0 L 152.0 177.0 L 152.0 179.0 L 152.0 180.0 L 153.0 181.0 L 153.0 181.0 " stroke="black" fill="none" stroke-width="5.0" stroke-linecap="round" stroke-linejoin="round" />
<path d="M 198.0 89.0 L 198.0 89.0 L 197.0 89.0 L 197.0 89.0 L 196.0 89.0 L 196.0 89.0 L 196.0 89.0 L 196.0 89.0 L 196.0 89.0 L 196.0 89.0 L 196.0 90.0 L 196.0 91.0 L 196.0 94.0 L 196.0 99.0 L 196.0 105.0 L 196.0 113.0 L 196.0 121.0 L 196.0 129.0 L 197.0 137.0 L 197.0 146.0 L 197.0 153.0 L 197.0 159.0 L 198.0 165.0 L 198.0 169.0 L 198.0 171.0 L 198.0 173.0 L 198.0 174.0 " stroke="black" fill="none" stroke-width="5.0" stroke-linecap="round" stroke-linejoin="round" />
<path d="M 154.0 179.0 L 152.0 179.0 L 151.0 179.0 L 149.0 179.0 L 148.0 179.0 L 147.0 180.0 L 146.0 180.0 L 145.0 181.0 L 145.0 181.0 L 145.0 181.0 L 145.0 181.0 L 146.0 181.0 L 148.0 181.0 L 151.0 181.0 L 155.0 181.0 L 160.0 181.0 L 167.0 180.0 L 174.0 179.0 L 181.0 179.0 L 189.0 178.0 L 195.0 177.0 L 200.0 177.0 L 203.0 176.0 " stroke="black" fill="none" stroke-width="5.0" stroke-linecap="round" stroke-linejoin="round" />
<path d="M 101.0 79.0 L 101.0 79.0 L 101.0 79.0 L 100.0 80.0 L 100.0 80.0 L 100.0 81.0 L 100.0 82.0 L 100.0 84.0 L 100.0 86.0 L 100.0 90.0 L 100.0 93.0 L 100.0 98.0 L 100.0 103.0 L 100.0 108.0 L 100.0 114.0 L 99.0 120.0 L 99.0 125.0 L 99.0 130.0 L 98.0 135.0 L 98.0 139.0 L 98.0 143.0 L 98.0 148.0 L 98.0 151.0 L 98.0 154.0 L 98.0 157.0 L 98.0 160.0 L 98.0 163.0 L 98.0 166.0 L 98.0 168.0 L 98.0 171.0 L 98.0 174.0 L 98.0 176.0 L 98.0 178.0 L 98.0 181.0 L 98.0 184.0 L 98.0 186.0 L 98.0 189.0 L 98.0 191.0 L 98.0 193.0 L 98.0 195.0 L 98.0 197.0 L 98.0 198.0 L 98.0 200.0 L 98.0 201.0 L 98.0 203.0 L 98.0 205.0 L 98.0 206.0 L 98.0 207.0 L 98.0 209.0 L 97.0 211.0 L 97.0 212.0 L 97.0 214.0 L 97.0 216.0 L 97.0 217.0 L 97.0 219.0 L 97.0 221.0 L 97.0 222.0 L 97.0 223.0 L 97.0 225.0 L 97.0 226.0 L 97.0 227.0 L 97.0 228.0 L 97.0 229.0 L 97.0 230.0 L 97.0 230.0 L 97.0 231.0 L 97.0 231.0 L 97.0 232.0 L 98.0 232.0 L 98.0 233.0 L 98.0 233.0 L 98.0 233.0 L 98.0 234.0 L 99.0 234.0 L 100.0 234.0 L 100.0 234.0 L 101.0 235.0 L 102.0 235.0 L 103.0 235.0 L 104.0 236.0 L 105.0 236.0 L 106.0 236.0 L 107.0 237.0 L 109.0 237.0 L 110.0 237.0 L 112.0 237.0 L 113.0 238.0 L 115.0 238.0 L 117.0 238.0 L 119.0 239.0 L 122.0 239.0 L 125.0 239.0 L 127.0 239.0 L 130.0 239.0 L 132.0 239.0 L 135.0 239.0 L 137.0 239.0 L 139.0 239.0 L 141.0 239.0 L 142.0 239.0 L 144.0 239.0 L 145.0 239.0 L 147.0 239.0 L 148.0 239.0 L 149.0 239.0 L 150.0 239.0 L 152.0 239.0 L 153.0 239.0 L 154.0 239.0 L 155.0 239.0 L 156.0 239.0 L 157.0 239.0 L 159.0 238.0 L 160.0 238.0 L 162.0 238.0 L 163.0 238.0 L 165.0 238.0 L 167.0 238.0 L 169.0 237.0 L 171.0 237.0 L 173.0 237.0 L 175.0 237.0 L 177.0 237.0 L 179.0 237.0 L 181.0 237.0 L 183.0 237.0 L 185.0 237.0 L 187.0 236.0 L 189.0 236.0 L 190.0 236.0 L 191.0 236.0 L 193.0 236.0 L 194.0 236.0 L 195.0 236.0 L 196.0 236.0 L 197.0 236.0 L 198.0 236.0 L 200.0 236.0 L 201.0 236.0 L 202.0 236.0 L 203.0 236.0 L 205.0 236.0 L 206.0 236.0 L 207.0 236.0 L 209.0 236.0 L 210.0 236.0 L 212.0 236.0 L 214.0 236.0 L 215.0 236.0 L 217.0 236.0 L 219.0 237.0 L 221.0 237.0 L 223.0 237.0 L 225.0 237.0 L 227.0 237.0 L 229.0 237.0 L 230.0 237.0 L 232.0 237.0 L 234.0 237.0 L 235.0 238.0 L 236.0 238.0 L 237.0 238.0 L 238.0 239.0 L 239.0 239.0 L 240.0 239.0 L 241.0 240.0 L 241.0 241.0 L 241.0 241.0 " stroke="black" fill="none" stroke-width="5.0" stroke-linecap="round" stroke-linejoin="round" />
</svg>