<svg xmlns="http://www.w3.org/2000/svg" width="300" height="300" viewBox="0 0 300 300">
<path d="M 116.0 74.0 L 116.0 74.0 L 116.0 73.0 L 116.0 73.0 L 116.0 72.0 L 116.0 72.0 L 116.0 72.0 L 116.0 72.0 L 116.0 73.0 L 115.0 76.0 L 114.0 80.0 L 112.0 85.0 L 110.0 91.0 L 107.0 100.0 L 103.0 108.0 L 97.0 118.0 L 90.0 127.0 L 83.0 134.0 L 76.0 141.0 L 70.0 148.0 L 65.0 154.0 L 62.0 158.0 L 60.0 162.0 L 58.0 163.0 " stroke="black" fill="none" stroke-width="5.0" stroke-linecap="round" stroke-linejoin="round" />
<path d="M 93.0 129.0 L 93.0 129.0 L 93.0 129.0 L 93.0 129.0 L 93.0 129.0 L 93.0 129.0 L 93.0 129.0 L 93.0 129.0 L 93.0 129.0 L 93.0 129.0 L 93.0 129.0 L 93.0 130.0 L 93.0 132.0 L 93.0 135.0 L 93.0 138.0 L 94.0 142.0 L 94.0 146.0 L 94.0 151.0 L 94.0 156.0 L 94.0 161.0 L 93.0 166.0 L 93.0 171.0 L 93.0 175.0 L 92.0 179.0 L 92.0 183.0 L 92.0 187.0 L 92.0 191.0 L 92.0 194.0 L 93.0 196.0 L 93.0 199.0 L 93.0 202.0 L 93.0 204.0 L 93.0 207.0 L 93.0 209.0 L 93.0 211.0 L 93.0 213.0 L 93.0 215.0 L 94.0 217.0 L 94.0 219.0 L 94.0 221.0 L 94.0 223.0 L 94.0 226.0 L 95.0 228.0 L 95.0 231.0 L 95.0 233.0 L 95.0 235.0 L 95.0 237.0 L 95.0 238.0 L 95.0 240.0 L 95.0 241.0 L 95.0 241.0 L 95.0 242.0 L 95.0 243.0 L 95.0 244.0 L 95.0 244.0 L 95.0 245.0 L 95.0 245.0 L 95.0 246.0 L 95.0 246.0 " stroke="black" fill="none" stroke-width="5.0" stroke-linecap="round" stroke-linejoin="round" />
<path d="M 158.0 80.0 L 158.0 80.0 L 158.0 79.0 L 158.0 79.0 L 158.0 78.0 L 158.0 78.0 L 158.0 78.0 L 158.0 78.0 L 158.0 78.0 L 158.0 79.0 L 158.0 82.0 L 157.0 86.0 L 156.0 93.0 L 153.0 102.0 L 150.0 112.0 L 146.0 123.0 L 141.0 134.0 L 137.0 144.0 L 132.0 153.0 L 128.0 157.0 L 125.0 160.0 " stroke="black" fill="none" stroke-width="5.0" stroke-linecap="round" stroke-linejoin="round" />
<path d="M 157.0 110.0 L 157.0 110.0 L 157.0 110.0 L 157.0 110.0 L 156.0 110.0 L 156.0 110.0 L 156.0 110.0 L 156.0 110.0 L 156.0 110.0 L 156.0 110.0 L 156.0 110.0 L 156.0 110.0 L 156.0 109.0 L 156.0 109.0 L 157.0 109.0 L 159.0 109.0 L 161.0 109.0 L 165.0 109.0 L 169.0 108.0 L 176.0 107.0 L 183.0 107.0 L 190.0 106.0 L 196.0 105.0 L 200.0 104.0 L 205.0 104.0 L 209.0 104.0 L 212.0 103.0 L 217.0 103.0 L 221.0 103.0 L 225.0 103.0 L 230.0 103.0 L 233.0 103.0 L 235.0 103.0 L 237.0 103.0 L 239.0 102.0 L 240.0 102.0 L 240.0 102.0 " stroke="black" fill="none" stroke-width="5.0" stroke-linecap="round" stroke-linejoin="round" />
<path d="M 181.0 112.0 L 181.0 112.0 L 180.0 112.0 L 178.0 113.0 L 178.0 113.0 L 177.0 114.0 L 176.0 115.0 L 176.0 116.0 L 176.0 117.0 L 176.0 119.0 L 176.0 120.0 L 176.0 122.0 L 176.0 125.0 L 176.0 127.0 L 175.0 130.0 L 175.0 134.0 L 175.0 138.0 L 174.0 143.0 L 174.0 149.0 L 174.0 154.0 L 174.0 159.0 L 174.0 165.0 L 173.0 171.0 L 173.0 176.0 L 173.0 182.0 L 172.0 189.0 L 172.0 195.0 L 171.0 201.0 L 171.0 206.0 L 171.0 209.0 L 171.0 212.0 L 171.0 215.0 L 171.0 218.0 L 171.0 221.0 L 171.0 226.0 L 170.0 230.0 L 169.0 235.0 L 169.0 239.0 L 169.0 243.0 L 169.0 246.0 L 169.0 249.0 L 169.0 252.0 L 169.0 254.0 L 169.0 257.0 L 169.0 259.0 L 168.0 260.0 L 168.0 262.0 " stroke="black" fill="none" stroke-width="5.0" stroke-linecap="round" stroke-linejoin="round" />
<path d="M 188.0 156.0 L 188.0 156.0 L 186.0 156.0 L 185.0 155.0 L 184.0 155.0 L 183.0 155.0 L 183.0 155.0 L 183.0 155.0 L 184.0 154.0 L 185.0 154.0 L 187.0 154.0 L 190.0 154.0 L 193.0 153.0 L 196.0 153.0 L 199.0 153.0 L 203.0 153.0 L 207.0 153.0 L 212.0 153.0 L 218.0 153.0 L 223.0 153.0 L 227.0 153.0 L 229.0 153.0 " stroke="black" fill="none" stroke-width="5.0" stroke-linecap="round" stroke-linejoin="round" />
<path d="M 180.0 193.0 L 180.0 193.0 L 178.0 193.0 L 177.0 193.0 L 176.0 194.0 L 175.0 194.0 L 175.0 194.0 L 174.0 195.0 L 175.0 195.0 L 177.0 196.0 L 180.0 196.0 L 184.0 196.0 L 189.0 196.0 L 194.0 196.0 L 199.0 196.0 L 204.0 196.0 L 209.0 195.0 L 215.0 195.0 L 221.0 195.0 L 226.0 195.0 L 230.0 195.0 L 234.0 195.0 L 236.0 195.0 L 238.0 196.0 L 239.0 197.0 L 239.0 198.0 " stroke="black" fill="none" stroke-width="5.0" stroke-linecap="round" stroke-linejoin="round" />
</svg>