<svg xmlns="http://www.w3.org/2000/svg" width="300" height="300" viewBox="0 0 300 300">
<path d="M 102.0 76.0 L 102.0 76.0 L 102.0 76.0 L 102.0 75.0 L 102.0 75.0 L 101.0 75.0 L 101.0 75.0 L 101.0 75.0 L 100.0 75.0 L 100.0 77.0 L 100.0 80.0 L 99.0 84.0 L 98.0 88.0 L 96.0 94.0 L 94.0 102.0 L 91.0 110.0 L 87.0 118.0 L 81.0 127.0 L 76.0 134.0 L 71.0 142.0 L 67.0 149.0 L 63.0 154.0 L 60.0 158.0 L 57.0 161.0 L 54.0 162.0 L 51.0 163.0 L 49.0 164.0 L 49.0 164.0 " stroke="black" fill="none" stroke-width="5.0" stroke-linecap="round" stroke-linejoin="round" />
<path d="M 78.0 129.0 L 78.0 129.0 L 78.0 128.0 L 78.0 128.0 L 77.0 127.0 L 77.0 127.0 L 77.0 127.0 L 77.0 127.0 L 77.0 128.0 L 78.0 129.0 L 78.0 132.0 L 78.0 135.0 L 78.0 139.0 L 79.0 144.0 L 79.0 151.0 L 79.0 158.0 L 79.0 166.0 L 79.0 177.0 L 79.0 187.0 L 78.0 197.0 L 78.0 208.0 L 78.0 217.0 L 77.0 226.0 L 76.0 235.0 L 75.0 241.0 L 74.0 246.0 L 74.0 249.0 L 73.0 252.0 L 73.0 254.0 L 73.0 255.0 L 73.0 255.0 " stroke="black" fill="none" stroke-width="5.0" stroke-linecap="round" stroke-linejoin="round" />
<path d="M 144.0 87.0 L 144.0 87.0 L 143.0 87.0 L 143.0 87.0 L 142.0 87.0 L 142.0 87.0 L 141.0 88.0 L 141.0 90.0 L 141.0 94.0 L 141.0 100.0 L 141.0 107.0 L 141.0 115.0 L 141.0 123.0 L 141.0 130.0 L 140.0 137.0 L 139.0 143.0 L 138.0 147.0 L 137.0 149.0 L 137.0 149.0 L 137.0 149.0 L 137.0 147.0 L 138.0 146.0 " stroke="black" fill="none" stroke-width="5.0" stroke-linecap="round" stroke-linejoin="round" />
<path d="M 148.0 108.0 L 148.0 107.0 L 148.0 106.0 L 147.0 105.0 L 147.0 104.0 L 147.0 103.0 L 147.0 103.0 L 149.0 102.0 L 150.0 102.0 L 152.0 102.0 L 155.0 102.0 L 157.0 102.0 L 160.0 102.0 " stroke="black" fill="none" stroke-width="5.0" stroke-linecap="round" stroke-linejoin="round" />
<path d="M 112.0 149.0 L 111.0 149.0 L 110.0 149.0 L 109.0 149.0 L 108.0 149.0 L 108.0 149.0 L 108.0 149.0 L 109.0 149.0 L 111.0 149.0 L 114.0 149.0 L 120.0 148.0 L 127.0 148.0 L 134.0 147.0 L 143.0 146.0 L 150.0 145.0 L 156.0 144.0 L 161.0 144.0 L 166.0 143.0 L 169.0 143.0 L 170.0 142.0 " stroke="black" fill="none" stroke-width="5.0" stroke-linecap="round" stroke-linejoin="round" />
<path d="M 151.0 153.0 L 151.0 153.0 L 150.0 153.0 L 149.0 154.0 L 148.0 154.0 L 148.0 155.0 L 147.0 156.0 L 147.0 157.0 L 147.0 159.0 L 147.0 161.0 L 147.0 164.0 L 147.0 168.0 L 146.0 173.0 L 146.0 179.0 L 146.0 186.0 L 145.0 193.0 L 145.0 200.0 L 145.0 207.0 L 145.0 213.0 L 145.0 220.0 L 145.0 226.0 L 145.0 232.0 L 145.0 237.0 L 144.0 241.0 L 144.0 243.0 L 143.0 244.0 L 143.0 246.0 L 142.0 247.0 L 141.0 248.0 L 141.0 249.0 L 140.0 250.0 L 140.0 251.0 L 139.0 252.0 L 139.0 252.0 L 138.0 252.0 L 138.0 252.0 L 138.0 252.0 L 137.0 252.0 L 136.0 251.0 L 136.0 250.0 L 134.0 249.0 L 133.0 248.0 L 130.0 246.0 L 128.0 245.0 L 124.0 243.0 L 121.0 241.0 L 118.0 238.0 " stroke="black" fill="none" stroke-width="5.0" stroke-linecap="round" stroke-linejoin="round" />
<path d="M 124.0 173.0 L 123.0 173.0 L 122.0 173.0 L 121.0 173.0 L 120.0 173.0 L 119.0 174.0 L 119.0 177.0 L 118.0 181.0 L 117.0 187.0 L 116.0 193.0 L 114.0 200.0 L 111.0 207.0 L 108.0 214.0 L 105.0 221.0 L 103.0 226.0 L 102.0 231.0 L 101.0 233.0 " stroke="black" fill="none" stroke-width="5.0" stroke-linecap="round" stroke-linejoin="round" />
<path d="M 167.0 175.0 L 167.0 174.0 L 167.0 174.0 L 167.0 173.0 L 167.0 172.0 L 168.0 172.0 L 169.0 172.0 L 170.0 172.0 L 172.0 175.0 L 174.0 179.0 L 176.0 184.0 L 178.0 189.0 L 181.0 194.0 L 183.0 199.0 L 186.0 202.0 L 187.0 203.0 " stroke="black" fill="none" stroke-width="5.0" stroke-linecap="round" stroke-linejoin="round" />
<path d="M 193.0 99.0 L 192.0 99.0 L 190.0 99.0 L 189.0 98.0 L 188.0 98.0 L 187.0 98.0 L 187.0 97.0 L 187.0 97.0 L 187.0 97.0 L 187.0 97.0 L 188.0 97.0 L 190.0 97.0 L 192.0 97.0 L 194.0 97.0 L 198.0 96.0 L 203.0 95.0 L 209.0 94.0 L 215.0 93.0 L 221.0 92.0 L 227.0 91.0 L 231.0 90.0 L 234.0 90.0 L 235.0 90.0 L 235.0 92.0 L 235.0 94.0 L 235.0 96.0 L 234.0 99.0 L 233.0 102.0 L 232.0 105.0 L 232.0 108.0 L 231.0 113.0 L 230.0 117.0 L 229.0 121.0 L 227.0 127.0 L 226.0 133.0 L 224.0 140.0 L 222.0 148.0 L 220.0 156.0 L 217.0 164.0 L 214.0 173.0 L 211.0 181.0 L 207.0 189.0 L 204.0 196.0 L 201.0 202.0 L 198.0 207.0 L 195.0 211.0 L 193.0 215.0 L 190.0 219.0 L 187.0 223.0 L 185.0 225.0 L 183.0 227.0 L 181.0 227.0 L 180.0 227.0 L 180.0 225.0 " stroke="black" fill="none" stroke-width="5.0" stroke-linecap="round" stroke-linejoin="round" />
<path d="M 192.0 105.0 L 192.0 105.0 L 192.0 103.0 L 191.0 102.0 L 191.0 102.0 L 191.0 102.0 L 191.0 102.0 L 191.0 103.0 L 191.0 106.0 L 191.0 109.0 L 191.0 114.0 L 192.0 121.0 L 193.0 129.0 L 194.0 141.0 L 196.0 154.0 L 198.0 167.0 L 200.0 179.0 L 203.0 191.0 L 205.0 201.0 L 209.0 207.0 L 214.0 213.0 L 219.0 218.0 L 224.0 223.0 L 229.0 228.0 L 234.0 233.0 L 237.0 237.0 L 240.0 241.0 L 242.0 244.0 L 244.0 246.0 L 246.0 248.0 L 247.0 249.0 L 247.0 249.0 " stroke="black" fill="none" stroke-width="5.0" stroke-linecap="round" stroke-linejoin="round" />
</svg>