<svg xmlns="http://www.w3.org/2000/svg" width="300" height="300" viewBox="0 0 300 300">
<path d="M 107.0 75.0 L 107.0 74.0 L 107.0 72.0 L 107.0 71.0 L 107.0 70.0 L 107.0 69.0 L 107.0 69.0 L 107.0 69.0 L 107.0 69.0 L 107.0 69.0 L 107.0 70.0 L 107.0 72.0 L 107.0 74.0 L 107.0 76.0 L 107.0 79.0 L 107.0 82.0 L 107.0 85.0 L 107.0 88.0 L 106.0 93.0 L 104.0 99.0 L 101.0 106.0 L 96.0 114.0 L 90.0 122.0 L 83.0 129.0 L 75.0 136.0 L 68.0 143.0 L 63.0 148.0 L 59.0 153.0 L 56.0 156.0 L 53.0 158.0 L 51.0 160.0 " stroke="black" fill="none" stroke-width="5.0" stroke-linecap="round" stroke-linejoin="round" />
<path d="M 86.0 131.0 L 86.0 130.0 L 86.0 129.0 L 86.0 128.0 L 86.0 128.0 L 86.0 128.0 L 86.0 128.0 L 86.0 130.0 L 87.0 133.0 L 87.0 137.0 L 88.0 142.0 L 89.0 149.0 L 90.0 158.0 L 90.0 170.0 L 90.0 184.0 L 90.0 201.0 L 89.0 214.0 L 88.0 226.0 L 88.0 237.0 L 88.0 243.0 L 88.0 247.0 L 88.0 248.0 " stroke="black" fill="none" stroke-width="5.0" stroke-linecap="round" stroke-linejoin="round" />
<path d="M 130.0 85.0 L 130.0 85.0 L 130.0 85.0 L 130.0 85.0 L 130.0 85.0 L 129.0 85.0 L 129.0 85.0 L 129.0 85.0 L 129.0 85.0 L 129.0 85.0 L 129.0 85.0 L 130.0 85.0 L 130.0 85.0 L 131.0 85.0 L 132.0 85.0 L 132.0 85.0 L 133.0 85.0 L 134.0 85.0 L 135.0 85.0 L 136.0 85.0 L 137.0 85.0 L 138.0 85.0 L 139.0 85.0 L 140.0 85.0 L 141.0 85.0 L 143.0 85.0 L 144.0 85.0 L 145.0 85.0 L 146.0 85.0 L 147.0 85.0 L 148.0 85.0 L 149.0 85.0 L 150.0 85.0 L 151.0 85.0 L 152.0 85.0 L 153.0 85.0 L 154.0 85.0 L 155.0 85.0 L 156.0 85.0 L 158.0 85.0 L 159.0 85.0 L 161.0 85.0 L 163.0 85.0 L 165.0 85.0 L 167.0 85.0 L 169.0 85.0 L 171.0 85.0 L 173.0 85.0 L 174.0 85.0 L 176.0 84.0 L 178.0 84.0 L 179.0 84.0 L 181.0 84.0 L 183.0 84.0 L 184.0 84.0 L 185.0 84.0 L 187.0 84.0 L 188.0 84.0 L 189.0 84.0 L 190.0 84.0 L 191.0 84.0 L 192.0 84.0 L 193.0 84.0 L 194.0 84.0 L 195.0 84.0 L 196.0 84.0 L 197.0 84.0 L 198.0 84.0 L 198.0 84.0 L 199.0 84.0 L 200.0 84.0 L 202.0 84.0 L 203.0 84.0 L 204.0 84.0 L 205.0 84.0 L 206.0 84.0 L 208.0 84.0 L 209.0 84.0 L 210.0 84.0 L 211.0 84.0 L 213.0 84.0 L 214.0 84.0 L 215.0 84.0 L 216.0 84.0 L 217.0 84.0 L 218.0 84.0 L 219.0 84.0 L 220.0 83.0 L 221.0 83.0 L 222.0 83.0 L 223.0 83.0 L 224.0 83.0 L 225.0 83.0 L 226.0 83.0 L 226.0 83.0 L 227.0 83.0 L 227.0 83.0 L 228.0 83.0 L 228.0 83.0 L 229.0 83.0 L 229.0 83.0 L 229.0 83.0 L 229.0 83.0 L 229.0 83.0 L 230.0 84.0 L 230.0 84.0 L 230.0 84.0 L 230.0 85.0 L 230.0 85.0 L 230.0 86.0 L 230.0 88.0 L 230.0 89.0 L 230.0 91.0 L 230.0 93.0 L 230.0 95.0 L 230.0 98.0 L 230.0 102.0 L 230.0 105.0 L 230.0 109.0 L 230.0 112.0 L 230.0 115.0 L 230.0 118.0 L 230.0 122.0 L 230.0 125.0 L 230.0 128.0 L 230.0 131.0 L 230.0 134.0 L 230.0 137.0 L 230.0 141.0 L 230.0 145.0 L 230.0 149.0 L 231.0 153.0 L 231.0 157.0 L 231.0 160.0 L 231.0 164.0 L 231.0 167.0 L 231.0 170.0 L 231.0 174.0 L 231.0 177.0 L 231.0 180.0 L 231.0 184.0 L 231.0 188.0 L 231.0 192.0 L 231.0 195.0 L 231.0 198.0 L 231.0 201.0 L 231.0 205.0 L 231.0 207.0 L 230.0 210.0 L 230.0 213.0 L 230.0 216.0 L 230.0 219.0 L 230.0 221.0 L 229.0 224.0 L 229.0 227.0 L 229.0 230.0 L 229.0 233.0 L 229.0 236.0 L 229.0 239.0 L 228.0 242.0 L 228.0 245.0 L 227.0 248.0 L 227.0 250.0 L 226.0 251.0 L 226.0 252.0 L 225.0 253.0 L 225.0 253.0 L 224.0 253.0 L 223.0 253.0 L 222.0 253.0 L 221.0 254.0 L 220.0 254.0 L 218.0 254.0 L 216.0 254.0 L 214.0 254.0 L 212.0 252.0 L 209.0 250.0 L 205.0 248.0 L 201.0 244.0 " stroke="black" fill="none" stroke-width="5.0" stroke-linecap="round" stroke-linejoin="round" />
<path d="M 135.0 122.0 L 135.0 122.0 L 134.0 121.0 L 133.0 121.0 L 132.0 120.0 L 132.0 120.0 L 132.0 120.0 L 132.0 120.0 L 133.0 120.0 L 135.0 121.0 L 138.0 122.0 L 142.0 122.0 L 146.0 123.0 L 150.0 123.0 L 156.0 124.0 L 165.0 124.0 L 175.0 124.0 L 186.0 123.0 L 194.0 122.0 L 200.0 122.0 L 205.0 122.0 L 207.0 122.0 L 208.0 124.0 " stroke="black" fill="none" stroke-width="5.0" stroke-linecap="round" stroke-linejoin="round" />
<path d="M 136.0 156.0 L 136.0 155.0 L 135.0 155.0 L 135.0 155.0 L 134.0 155.0 L 134.0 155.0 L 134.0 156.0 L 134.0 159.0 L 135.0 163.0 L 135.0 168.0 L 136.0 175.0 L 137.0 183.0 L 137.0 191.0 L 138.0 198.0 L 138.0 204.0 L 139.0 208.0 L 139.0 210.0 L 139.0 211.0 L 139.0 211.0 " stroke="black" fill="none" stroke-width="5.0" stroke-linecap="round" stroke-linejoin="round" />
<path d="M 140.0 156.0 L 140.0 156.0 L 139.0 156.0 L 139.0 156.0 L 138.0 156.0 L 138.0 156.0 L 138.0 156.0 L 138.0 156.0 L 140.0 156.0 L 143.0 155.0 L 146.0 155.0 L 149.0 155.0 L 154.0 154.0 L 160.0 154.0 L 166.0 154.0 L 174.0 154.0 L 181.0 154.0 L 187.0 155.0 L 191.0 156.0 L 194.0 157.0 L 196.0 158.0 L 196.0 160.0 L 196.0 161.0 L 196.0 163.0 L 196.0 165.0 L 196.0 168.0 L 195.0 171.0 L 194.0 176.0 L 192.0 181.0 L 189.0 187.0 L 187.0 192.0 L 184.0 197.0 L 181.0 201.0 L 179.0 204.0 L 176.0 207.0 " stroke="black" fill="none" stroke-width="5.0" stroke-linecap="round" stroke-linejoin="round" />
<path d="M 146.0 209.0 L 145.0 209.0 L 143.0 209.0 L 141.0 209.0 L 139.0 209.0 L 138.0 209.0 L 137.0 209.0 L 137.0 209.0 L 138.0 209.0 L 140.0 209.0 L 143.0 209.0 L 147.0 209.0 L 152.0 209.0 L 157.0 208.0 L 164.0 208.0 L 172.0 207.0 L 180.0 207.0 L 187.0 207.0 L 191.0 207.0 " stroke="black" fill="none" stroke-width="5.0" stroke-linecap="round" stroke-linejoin="round" />
</svg>