<svg xmlns="http://www.w3.org/2000/svg" width="300" height="300" viewBox="0 0 300 300">
<path d="M 97.0 78.0 L 97.0 78.0 L 97.0 78.0 L 96.0 78.0 L 96.0 78.0 L 95.0 77.0 L 95.0 77.0 L 95.0 77.0 L 95.0 77.0 L 95.0 77.0 L 95.0 78.0 L 95.0 79.0 L 95.0 80.0 L 95.0 81.0 L 96.0 83.0 L 96.0 85.0 L 96.0 89.0 L 96.0 93.0 L 96.0 98.0 L 96.0 105.0 L 94.0 111.0 L 92.0 117.0 L 89.0 123.0 L 86.0 128.0 L 83.0 134.0 L 78.0 139.0 L 74.0 144.0 L 70.0 149.0 L 66.0 153.0 L 63.0 157.0 L 60.0 159.0 L 58.0 161.0 L 57.0 162.0 " stroke="black" fill="none" stroke-width="5.0" stroke-linecap="round" stroke-linejoin="round" />
<path d="M 90.0 128.0 L 90.0 128.0 L 90.0 128.0 L 90.0 128.0 L 90.0 128.0 L 90.0 128.0 L 90.0 127.0 L 89.0 127.0 L 89.0 127.0 L 89.0 128.0 L 89.0 130.0 L 89.0 134.0 L 89.0 138.0 L 89.0 143.0 L 89.0 150.0 L 89.0 157.0 L 89.0 165.0 L 89.0 174.0 L 89.0 184.0 L 88.0 193.0 L 88.0 202.0 L 87.0 210.0 L 87.0 216.0 L 87.0 222.0 L 86.0 229.0 L 86.0 234.0 L 86.0 238.0 L 86.0 241.0 L 86.0 243.0 L 86.0 244.0 L 86.0 245.0 L 86.0 245.0 L 86.0 245.0 " stroke="black" fill="none" stroke-width="5.0" stroke-linecap="round" stroke-linejoin="round" />
<path d="M 182.0 67.0 L 181.0 67.0 L 180.0 67.0 L 179.0 66.0 L 178.0 66.0 L 177.0 66.0 L 177.0 66.0 L 177.0 66.0 L 177.0 68.0 L 178.0 70.0 L 180.0 72.0 L 181.0 75.0 L 183.0 77.0 L 184.0 80.0 L 186.0 83.0 L 187.0 85.0 " stroke="black" fill="none" stroke-width="5.0" stroke-linecap="round" stroke-linejoin="round" />
<path d="M 135.0 92.0 L 134.0 92.0 L 133.0 92.0 L 132.0 92.0 L 130.0 92.0 L 129.0 92.0 L 129.0 91.0 L 129.0 91.0 L 129.0 91.0 L 129.0 91.0 L 130.0 91.0 L 132.0 91.0 L 134.0 91.0 L 137.0 91.0 L 139.0 91.0 L 142.0 91.0 L 146.0 91.0 L 149.0 91.0 L 154.0 91.0 L 161.0 91.0 L 169.0 91.0 L 179.0 91.0 L 189.0 91.0 L 196.0 90.0 L 202.0 90.0 L 207.0 89.0 L 211.0 89.0 L 213.0 89.0 L 216.0 91.0 L 216.0 92.0 L 217.0 93.0 " stroke="black" fill="none" stroke-width="5.0" stroke-linecap="round" stroke-linejoin="round" />
<path d="M 124.0 96.0 L 124.0 96.0 L 123.0 96.0 L 122.0 96.0 L 122.0 96.0 L 121.0 96.0 L 121.0 96.0 L 121.0 97.0 L 121.0 98.0 L 121.0 99.0 L 121.0 101.0 L 122.0 103.0 L 123.0 106.0 L 123.0 109.0 L 124.0 113.0 L 125.0 116.0 L 125.0 120.0 L 125.0 124.0 L 126.0 128.0 L 126.0 132.0 L 126.0 136.0 L 126.0 141.0 L 126.0 146.0 L 126.0 150.0 L 126.0 154.0 L 125.0 159.0 L 124.0 162.0 L 123.0 166.0 L 122.0 170.0 L 122.0 174.0 L 121.0 178.0 L 120.0 182.0 L 120.0 188.0 L 119.0 193.0 L 118.0 199.0 L 117.0 204.0 L 116.0 210.0 L 115.0 215.0 L 114.0 220.0 L 113.0 225.0 L 112.0 230.0 L 111.0 235.0 L 110.0 240.0 L 108.0 243.0 L 107.0 247.0 L 105.0 249.0 " stroke="black" fill="none" stroke-width="5.0" stroke-linecap="round" stroke-linejoin="round" />
<path d="M 165.0 113.0 L 165.0 113.0 L 165.0 111.0 L 165.0 110.0 L 165.0 109.0 L 166.0 108.0 L 166.0 107.0 L 166.0 107.0 L 166.0 107.0 L 166.0 107.0 L 166.0 107.0 L 166.0 109.0 L 165.0 111.0 L 164.0 114.0 L 163.0 118.0 L 161.0 123.0 L 160.0 128.0 L 158.0 134.0 L 155.0 141.0 L 152.0 149.0 L 149.0 156.0 L 146.0 162.0 L 142.0 168.0 L 138.0 173.0 L 134.0 177.0 L 131.0 180.0 L 128.0 183.0 L 126.0 184.0 L 125.0 184.0 " stroke="black" fill="none" stroke-width="5.0" stroke-linecap="round" stroke-linejoin="round" />
<path d="M 153.0 143.0 L 153.0 143.0 L 153.0 143.0 L 152.0 143.0 L 152.0 142.0 L 152.0 142.0 L 151.0 142.0 L 151.0 143.0 L 151.0 144.0 L 151.0 146.0 L 151.0 149.0 L 151.0 153.0 L 152.0 158.0 L 152.0 165.0 L 152.0 174.0 L 152.0 185.0 L 152.0 197.0 L 151.0 207.0 L 151.0 217.0 L 150.0 226.0 L 150.0 233.0 L 149.0 237.0 L 149.0 240.0 L 149.0 240.0 " stroke="black" fill="none" stroke-width="5.0" stroke-linecap="round" stroke-linejoin="round" />
<path d="M 188.0 143.0 L 188.0 143.0 L 188.0 143.0 L 187.0 143.0 L 187.0 143.0 L 187.0 143.0 L 187.0 143.0 L 186.0 143.0 L 186.0 142.0 L 186.0 142.0 L 186.0 142.0 L 186.0 142.0 L 186.0 142.0 L 187.0 142.0 L 188.0 142.0 L 189.0 142.0 L 191.0 142.0 L 194.0 143.0 L 199.0 143.0 L 204.0 144.0 L 211.0 144.0 L 219.0 144.0 L 227.0 144.0 L 233.0 143.0 L 237.0 142.0 L 241.0 141.0 L 242.0 140.0 L 242.0 140.0 L 242.0 140.0 L 242.0 140.0 " stroke="black" fill="none" stroke-width="5.0" stroke-linecap="round" stroke-linejoin="round" />
<path d="M 224.0 116.0 L 224.0 116.0 L 223.0 116.0 L 222.0 116.0 L 221.0 116.0 L 221.0 116.0 L 221.0 116.0 L 221.0 117.0 L 221.0 118.0 L 221.0 119.0 L 221.0 121.0 L 221.0 123.0 L 221.0 127.0 L 221.0 131.0 L 222.0 135.0 L 222.0 141.0 L 222.0 146.0 L 222.0 151.0 L 222.0 156.0 L 222.0 161.0 L 222.0 165.0 L 221.0 169.0 L 221.0 173.0 L 220.0 177.0 L 220.0 181.0 L 219.0 185.0 L 219.0 188.0 L 219.0 192.0 L 218.0 195.0 L 218.0 198.0 L 218.0 201.0 L 218.0 203.0 L 218.0 206.0 L 218.0 208.0 L 219.0 211.0 L 219.0 213.0 L 219.0 216.0 L 219.0 219.0 L 219.0 222.0 L 219.0 226.0 L 219.0 229.0 L 219.0 232.0 L 218.0 235.0 L 218.0 237.0 L 218.0 239.0 L 217.0 241.0 L 217.0 243.0 L 217.0 244.0 L 216.0 245.0 L 216.0 247.0 L 215.0 248.0 L 215.0 250.0 L 214.0 251.0 L 214.0 252.0 L 213.0 253.0 L 213.0 254.0 L 212.0 255.0 L 212.0 256.0 L 211.0 256.0 L 211.0 256.0 L 210.0 256.0 L 209.0 256.0 L 208.0 256.0 L 206.0 256.0 L 205.0 255.0 L 203.0 253.0 L 200.0 251.0 L 198.0 249.0 L 196.0 246.0 L 194.0 244.0 " stroke="black" fill="none" stroke-width="5.0" stroke-linecap="round" stroke-linejoin="round" />
<path d="M 185.0 178.0 L 185.0 178.0 L 184.0 177.0 L 184.0 176.0 L 184.0 175.0 L 183.0 175.0 L 183.0 175.0 L 183.0 174.0 L 184.0 174.0 L 185.0 176.0 L 187.0 178.0 L 190.0 182.0 L 193.0 186.0 L 196.0 190.0 L 199.0 195.0 L 203.0 199.0 L 206.0 203.0 L 210.0 206.0 " stroke="black" fill="none" stroke-width="5.0" stroke-linecap="round" stroke-linejoin="round" />
</svg>