<svg xmlns="http://www.w3.org/2000/svg" width="300" height="300" viewBox="0 0 300 300">
<path d="M 107.0 73.0 L 107.0 73.0 L 107.0 73.0 L 107.0 73.0 L 107.0 73.0 L 107.0 73.0 L 107.0 73.0 L 107.0 73.0 L 108.0 73.0 L 108.0 73.0 L 108.0 73.0 L 108.0 73.0 L 108.0 73.0 L 108.0 73.0 L 108.0 74.0 L 108.0 74.0 L 108.0 75.0 L 108.0 77.0 L 107.0 78.0 L 107.0 81.0 L 106.0 84.0 L 104.0 87.0 L 102.0 92.0 L 100.0 97.0 L 96.0 103.0 L 93.0 109.0 L 89.0 115.0 L 85.0 121.0 L 80.0 127.0 L 76.0 132.0 L 71.0 137.0 L 68.0 141.0 L 64.0 146.0 L 61.0 150.0 L 59.0 153.0 L 56.0 155.0 " stroke="black" fill="none" stroke-width="5.0" stroke-linecap="round" stroke-linejoin="round" />
<path d="M 94.0 116.0 L 94.0 116.0 L 93.0 116.0 L 93.0 116.0 L 93.0 116.0 L 93.0 116.0 L 92.0 116.0 L 92.0 116.0 L 92.0 116.0 L 92.0 116.0 L 92.0 118.0 L 92.0 119.0 L 92.0 121.0 L 92.0 124.0 L 92.0 128.0 L 92.0 132.0 L 92.0 138.0 L 92.0 144.0 L 93.0 151.0 L 93.0 158.0 L 93.0 165.0 L 93.0 172.0 L 93.0 179.0 L 93.0 187.0 L 93.0 194.0 L 93.0 200.0 L 93.0 207.0 L 93.0 213.0 L 93.0 218.0 L 93.0 224.0 L 93.0 230.0 L 93.0 234.0 L 92.0 237.0 L 91.0 240.0 L 90.0 242.0 L 89.0 243.0 L 89.0 245.0 L 89.0 246.0 L 89.0 246.0 L 89.0 247.0 " stroke="black" fill="none" stroke-width="5.0" stroke-linecap="round" stroke-linejoin="round" />
<path d="M 115.0 116.0 L 115.0 116.0 L 115.0 116.0 L 114.0 116.0 L 114.0 116.0 L 113.0 116.0 L 113.0 116.0 L 112.0 116.0 L 112.0 116.0 L 112.0 116.0 L 112.0 116.0 L 112.0 117.0 L 112.0 117.0 L 112.0 117.0 L 112.0 117.0 L 112.0 118.0 L 113.0 118.0 L 114.0 118.0 L 116.0 118.0 L 117.0 118.0 L 119.0 118.0 L 121.0 119.0 L 123.0 119.0 L 125.0 119.0 L 128.0 119.0 L 131.0 119.0 L 133.0 119.0 L 136.0 119.0 L 139.0 119.0 L 142.0 119.0 L 144.0 119.0 L 146.0 119.0 L 148.0 119.0 L 150.0 118.0 L 152.0 118.0 L 153.0 118.0 L 154.0 117.0 L 155.0 117.0 L 156.0 117.0 L 157.0 117.0 L 158.0 117.0 L 160.0 117.0 L 161.0 117.0 L 162.0 117.0 L 164.0 117.0 L 165.0 116.0 L 167.0 116.0 L 169.0 116.0 L 170.0 116.0 L 172.0 116.0 L 173.0 116.0 L 175.0 115.0 L 177.0 115.0 L 178.0 115.0 L 179.0 115.0 L 181.0 115.0 L 182.0 115.0 L 183.0 115.0 L 185.0 115.0 L 186.0 115.0 L 187.0 115.0 L 188.0 115.0 L 189.0 115.0 L 190.0 115.0 L 191.0 115.0 L 191.0 115.0 L 192.0 115.0 L 193.0 115.0 L 193.0 115.0 L 194.0 115.0 L 195.0 115.0 L 196.0 115.0 L 196.0 115.0 L 197.0 116.0 L 198.0 116.0 L 199.0 116.0 L 200.0 116.0 L 201.0 116.0 L 202.0 116.0 L 203.0 116.0 L 204.0 116.0 L 206.0 116.0 L 207.0 116.0 L 208.0 116.0 L 210.0 116.0 L 211.0 116.0 L 213.0 116.0 L 214.0 116.0 L 216.0 116.0 L 218.0 116.0 L 220.0 116.0 L 222.0 116.0 L 224.0 116.0 L 226.0 116.0 L 228.0 116.0 L 230.0 115.0 L 232.0 115.0 L 233.0 114.0 L 235.0 114.0 L 236.0 114.0 L 237.0 113.0 L 237.0 113.0 L 238.0 113.0 L 238.0 113.0 L 238.0 113.0 L 238.0 113.0 " stroke="black" fill="none" stroke-width="5.0" stroke-linecap="round" stroke-linejoin="round" />
<path d="M 164.0 80.0 L 164.0 80.0 L 164.0 80.0 L 164.0 80.0 L 164.0 80.0 L 164.0 80.0 L 164.0 81.0 L 164.0 81.0 L 164.0 82.0 L 164.0 83.0 L 164.0 84.0 L 164.0 86.0 L 164.0 89.0 L 164.0 92.0 L 164.0 95.0 L 163.0 99.0 L 163.0 103.0 L 162.0 107.0 L 161.0 111.0 L 160.0 115.0 L 159.0 118.0 L 158.0 122.0 L 157.0 125.0 L 157.0 127.0 L 156.0 130.0 L 155.0 132.0 L 155.0 135.0 L 154.0 139.0 L 153.0 143.0 L 152.0 146.0 L 152.0 149.0 L 151.0 153.0 L 150.0 155.0 L 150.0 158.0 L 149.0 161.0 L 149.0 163.0 L 148.0 165.0 L 147.0 167.0 L 146.0 170.0 L 146.0 172.0 L 145.0 175.0 L 144.0 177.0 L 143.0 180.0 L 141.0 184.0 L 140.0 188.0 L 139.0 191.0 L 138.0 194.0 L 136.0 197.0 L 135.0 200.0 L 133.0 202.0 L 130.0 205.0 L 127.0 207.0 L 124.0 210.0 L 121.0 213.0 L 118.0 215.0 L 115.0 218.0 L 113.0 220.0 L 111.0 222.0 L 110.0 223.0 " stroke="black" fill="none" stroke-width="5.0" stroke-linecap="round" stroke-linejoin="round" />
<path d="M 156.0 166.0 L 156.0 166.0 L 156.0 166.0 L 155.0 166.0 L 155.0 167.0 L 154.0 167.0 L 154.0 167.0 L 153.0 167.0 L 153.0 167.0 L 153.0 167.0 L 153.0 167.0 L 153.0 167.0 L 154.0 167.0 L 155.0 167.0 L 157.0 167.0 L 158.0 167.0 L 160.0 167.0 L 163.0 167.0 L 166.0 167.0 L 171.0 167.0 L 176.0 167.0 L 181.0 167.0 L 186.0 167.0 L 191.0 166.0 L 195.0 166.0 L 199.0 165.0 L 202.0 165.0 L 205.0 164.0 L 207.0 164.0 L 210.0 164.0 L 213.0 164.0 L 216.0 164.0 L 219.0 164.0 L 222.0 164.0 L 225.0 164.0 L 227.0 163.0 L 230.0 163.0 L 232.0 163.0 L 233.0 163.0 L 234.0 163.0 L 235.0 163.0 L 235.0 163.0 L 235.0 163.0 L 235.0 163.0 " stroke="black" fill="none" stroke-width="5.0" stroke-linecap="round" stroke-linejoin="round" />
<path d="M 195.0 173.0 L 195.0 173.0 L 195.0 173.0 L 195.0 173.0 L 195.0 172.0 L 195.0 172.0 L 194.0 172.0 L 194.0 172.0 L 194.0 172.0 L 194.0 172.0 L 194.0 172.0 L 194.0 173.0 L 194.0 174.0 L 194.0 175.0 L 194.0 176.0 L 194.0 178.0 L 194.0 180.0 L 194.0 182.0 L 194.0 186.0 L 194.0 189.0 L 194.0 193.0 L 193.0 197.0 L 193.0 201.0 L 192.0 205.0 L 192.0 210.0 L 192.0 214.0 L 191.0 218.0 L 191.0 222.0 L 191.0 226.0 L 191.0 230.0 L 191.0 234.0 L 191.0 236.0 L 191.0 238.0 L 191.0 240.0 L 191.0 240.0 L 191.0 240.0 L 191.0 240.0 " stroke="black" fill="none" stroke-width="5.0" stroke-linecap="round" stroke-linejoin="round" />
<path d="M 153.0 239.0 L 153.0 239.0 L 152.0 239.0 L 151.0 239.0 L 150.0 240.0 L 149.0 240.0 L 148.0 240.0 L 147.0 241.0 L 146.0 241.0 L 146.0 241.0 L 146.0 242.0 L 146.0 242.0 L 146.0 242.0 L 146.0 242.0 L 146.0 243.0 L 146.0 243.0 L 146.0 243.0 L 147.0 243.0 L 148.0 244.0 L 150.0 244.0 L 152.0 244.0 L 154.0 244.0 L 157.0 244.0 L 162.0 244.0 L 168.0 244.0 L 176.0 244.0 L 185.0 244.0 L 192.0 244.0 L 200.0 243.0 L 207.0 242.0 L 214.0 241.0 L 221.0 240.0 L 227.0 240.0 L 232.0 239.0 L 235.0 239.0 L 238.0 240.0 L 239.0 240.0 L 240.0 241.0 L 241.0 242.0 L 241.0 242.0 L 242.0 243.0 L 242.0 243.0 L 242.0 244.0 " stroke="black" fill="none" stroke-width="5.0" stroke-linecap="round" stroke-linejoin="round" />
</svg>