<svg xmlns="http://www.w3.org/2000/svg" width="300" height="300" viewBox="0 0 300 300">
<path d="M 107.0 75.0 L 107.0 75.0 L 107.0 75.0 L 107.0 76.0 L 107.0 76.0 L 107.0 76.0 L 106.0 76.0 L 106.0 77.0 L 106.0 77.0 L 106.0 77.0 L 106.0 77.0 L 106.0 78.0 L 106.0 78.0 L 106.0 79.0 L 106.0 80.0 L 106.0 81.0 L 106.0 82.0 L 106.0 83.0 L 106.0 85.0 L 105.0 86.0 L 105.0 87.0 L 105.0 89.0 L 105.0 90.0 L 105.0 92.0 L 104.0 94.0 L 104.0 96.0 L 103.0 97.0 L 103.0 99.0 L 102.0 101.0 L 101.0 103.0 L 101.0 104.0 L 100.0 106.0 L 99.0 107.0 L 99.0 109.0 L 98.0 110.0 L 97.0 111.0 L 96.0 113.0 L 95.0 114.0 L 94.0 116.0 L 93.0 118.0 L 93.0 119.0 L 92.0 120.0 L 91.0 122.0 L 90.0 123.0 L 89.0 124.0 L 87.0 126.0 L 85.0 127.0 L 84.0 129.0 L 81.0 131.0 L 79.0 134.0 L 76.0 137.0 L 72.0 141.0 L 69.0 145.0 L 66.0 148.0 L 63.0 152.0 L 61.0 154.0 L 60.0 154.0 L 58.0 155.0 L 58.0 155.0 " stroke="black" fill="none" stroke-width="5.0" stroke-linecap="round" stroke-linejoin="round" />
<path d="M 91.0 124.0 L 91.0 124.0 L 91.0 124.0 L 91.0 124.0 L 91.0 124.0 L 91.0 124.0 L 91.0 124.0 L 91.0 124.0 L 91.0 124.0 L 91.0 124.0 L 91.0 125.0 L 91.0 125.0 L 91.0 126.0 L 91.0 128.0 L 91.0 130.0 L 91.0 133.0 L 91.0 137.0 L 91.0 141.0 L 91.0 144.0 L 91.0 148.0 L 91.0 152.0 L 91.0 155.0 L 91.0 157.0 L 91.0 160.0 L 91.0 162.0 L 91.0 164.0 L 91.0 166.0 L 91.0 168.0 L 91.0 170.0 L 91.0 173.0 L 91.0 175.0 L 91.0 178.0 L 91.0 181.0 L 91.0 184.0 L 91.0 186.0 L 91.0 189.0 L 91.0 191.0 L 92.0 193.0 L 92.0 195.0 L 92.0 197.0 L 92.0 198.0 L 92.0 200.0 L 92.0 201.0 L 92.0 203.0 L 92.0 204.0 L 92.0 205.0 L 92.0 206.0 L 92.0 207.0 L 92.0 208.0 L 92.0 209.0 L 92.0 211.0 L 91.0 212.0 L 91.0 214.0 L 91.0 215.0 L 91.0 216.0 L 91.0 218.0 L 91.0 220.0 L 91.0 221.0 L 91.0 223.0 L 91.0 225.0 L 91.0 226.0 L 91.0 228.0 L 91.0 229.0 L 91.0 231.0 L 91.0 233.0 L 91.0 234.0 L 91.0 235.0 L 91.0 237.0 L 92.0 238.0 L 92.0 240.0 L 92.0 241.0 L 92.0 243.0 L 92.0 244.0 L 92.0 245.0 L 92.0 247.0 L 92.0 247.0 L 92.0 247.0 L 93.0 245.0 L 94.0 244.0 " stroke="black" fill="none" stroke-width="5.0" stroke-linecap="round" stroke-linejoin="round" />
<path d="M 137.0 89.0 L 137.0 89.0 L 137.0 90.0 L 136.0 90.0 L 136.0 91.0 L 136.0 91.0 L 136.0 92.0 L 136.0 93.0 L 136.0 95.0 L 136.0 97.0 L 136.0 100.0 L 136.0 104.0 L 136.0 109.0 L 136.0 115.0 L 136.0 121.0 L 135.0 127.0 L 135.0 133.0 L 135.0 138.0 L 135.0 142.0 L 135.0 145.0 L 135.0 146.0 L 135.0 146.0 L 135.0 146.0 L 135.0 146.0 " stroke="black" fill="none" stroke-width="5.0" stroke-linecap="round" stroke-linejoin="round" />
<path d="M 143.0 88.0 L 143.0 88.0 L 142.0 87.0 L 142.0 87.0 L 141.0 87.0 L 141.0 86.0 L 141.0 86.0 L 140.0 86.0 L 140.0 86.0 L 140.0 86.0 L 140.0 86.0 L 140.0 86.0 L 141.0 86.0 L 141.0 86.0 L 142.0 86.0 L 143.0 86.0 L 143.0 86.0 L 144.0 86.0 L 145.0 86.0 L 145.0 86.0 L 146.0 86.0 L 147.0 86.0 L 148.0 86.0 L 149.0 86.0 L 150.0 86.0 L 151.0 86.0 L 152.0 86.0 L 153.0 86.0 L 154.0 86.0 L 155.0 86.0 L 156.0 86.0 L 157.0 87.0 L 158.0 87.0 L 159.0 87.0 L 160.0 87.0 L 161.0 87.0 L 162.0 87.0 L 163.0 87.0 L 164.0 87.0 L 165.0 87.0 L 166.0 87.0 L 167.0 87.0 L 168.0 87.0 L 169.0 87.0 L 170.0 87.0 L 171.0 87.0 L 172.0 87.0 L 174.0 87.0 L 175.0 87.0 L 176.0 87.0 L 177.0 87.0 L 178.0 87.0 L 179.0 87.0 L 180.0 87.0 L 181.0 87.0 L 182.0 87.0 L 184.0 87.0 L 184.0 87.0 L 185.0 87.0 L 186.0 87.0 L 187.0 87.0 L 188.0 87.0 L 189.0 87.0 L 189.0 87.0 L 190.0 87.0 L 191.0 87.0 L 192.0 87.0 L 192.0 87.0 L 193.0 87.0 L 194.0 87.0 L 194.0 87.0 L 195.0 87.0 L 196.0 87.0 L 196.0 87.0 L 197.0 87.0 L 198.0 87.0 L 198.0 87.0 L 199.0 87.0 L 200.0 87.0 L 200.0 87.0 L 201.0 87.0 L 202.0 87.0 L 203.0 87.0 L 204.0 87.0 L 205.0 87.0 L 205.0 87.0 L 207.0 87.0 L 208.0 87.0 L 209.0 87.0 L 209.0 87.0 L 210.0 87.0 L 211.0 87.0 L 212.0 87.0 L 212.0 87.0 L 213.0 87.0 L 214.0 87.0 L 214.0 87.0 L 215.0 87.0 L 216.0 87.0 L 216.0 87.0 L 216.0 87.0 L 217.0 87.0 L 217.0 87.0 L 217.0 87.0 L 218.0 88.0 L 218.0 88.0 L 218.0 89.0 L 218.0 90.0 L 218.0 91.0 L 218.0 93.0 L 218.0 94.0 L 218.0 97.0 L 218.0 100.0 L 218.0 103.0 L 219.0 106.0 L 219.0 110.0 L 219.0 113.0 L 219.0 117.0 L 219.0 120.0 L 219.0 124.0 L 219.0 127.0 L 219.0 130.0 L 219.0 132.0 L 219.0 134.0 L 219.0 136.0 L 219.0 137.0 L 219.0 138.0 L 219.0 139.0 L 219.0 139.0 L 218.0 139.0 L 218.0 138.0 " stroke="black" fill="none" stroke-width="5.0" stroke-linecap="round" stroke-linejoin="round" />
<path d="M 143.0 148.0 L 142.0 148.0 L 141.0 148.0 L 141.0 148.0 L 140.0 147.0 L 140.0 147.0 L 139.0 147.0 L 139.0 147.0 L 139.0 146.0 L 139.0 146.0 L 139.0 146.0 L 140.0 146.0 L 141.0 146.0 L 142.0 146.0 L 143.0 146.0 L 145.0 146.0 L 146.0 146.0 L 148.0 146.0 L 150.0 146.0 L 152.0 146.0 L 154.0 146.0 L 157.0 146.0 L 161.0 145.0 L 165.0 145.0 L 169.0 145.0 L 174.0 145.0 L 178.0 145.0 L 182.0 145.0 L 186.0 144.0 L 189.0 144.0 L 192.0 144.0 L 194.0 144.0 L 196.0 144.0 L 197.0 144.0 L 198.0 144.0 L 200.0 144.0 L 202.0 144.0 L 204.0 144.0 L 205.0 144.0 L 207.0 144.0 L 209.0 144.0 L 210.0 144.0 L 211.0 144.0 L 212.0 144.0 L 212.0 145.0 L 212.0 147.0 L 211.0 148.0 " stroke="black" fill="none" stroke-width="5.0" stroke-linecap="round" stroke-linejoin="round" />
<path d="M 185.0 154.0 L 185.0 153.0 L 184.0 153.0 L 183.0 152.0 L 183.0 152.0 L 182.0 152.0 L 182.0 152.0 L 182.0 152.0 L 181.0 152.0 L 181.0 152.0 L 181.0 152.0 L 180.0 154.0 L 179.0 156.0 L 178.0 159.0 L 176.0 162.0 L 174.0 166.0 L 172.0 169.0 L 169.0 172.0 L 167.0 175.0 " stroke="black" fill="none" stroke-width="5.0" stroke-linecap="round" stroke-linejoin="round" />
<path d="M 131.0 186.0 L 131.0 185.0 L 131.0 184.0 L 131.0 184.0 L 131.0 183.0 L 131.0 183.0 L 131.0 183.0 L 131.0 183.0 L 131.0 184.0 L 131.0 185.0 L 131.0 187.0 L 131.0 189.0 L 131.0 192.0 L 132.0 195.0 L 132.0 199.0 L 132.0 203.0 L 132.0 208.0 L 132.0 213.0 L 132.0 219.0 L 132.0 225.0 L 132.0 230.0 L 131.0 234.0 L 131.0 237.0 L 131.0 238.0 L 131.0 238.0 L 131.0 238.0 L 132.0 236.0 " stroke="black" fill="none" stroke-width="5.0" stroke-linecap="round" stroke-linejoin="round" />
<path d="M 135.0 185.0 L 134.0 185.0 L 133.0 185.0 L 132.0 185.0 L 131.0 185.0 L 131.0 185.0 L 131.0 185.0 L 131.0 185.0 L 131.0 185.0 L 132.0 184.0 L 133.0 184.0 L 134.0 184.0 L 135.0 183.0 L 136.0 183.0 L 137.0 183.0 L 138.0 183.0 L 139.0 182.0 L 140.0 182.0 L 142.0 182.0 L 143.0 182.0 L 144.0 181.0 L 145.0 181.0 L 147.0 181.0 L 148.0 181.0 L 149.0 180.0 L 150.0 180.0 L 151.0 180.0 L 152.0 180.0 L 152.0 180.0 L 153.0 180.0 L 154.0 180.0 L 154.0 180.0 L 155.0 180.0 L 156.0 180.0 L 157.0 180.0 L 158.0 180.0 L 159.0 180.0 L 160.0 180.0 L 161.0 180.0 L 162.0 180.0 L 162.0 180.0 L 163.0 180.0 L 164.0 180.0 L 165.0 180.0 L 166.0 180.0 L 167.0 180.0 L 168.0 180.0 L 169.0 180.0 L 170.0 180.0 L 172.0 180.0 L 173.0 180.0 L 174.0 180.0 L 175.0 180.0 L 176.0 179.0 L 178.0 179.0 L 179.0 179.0 L 180.0 179.0 L 182.0 179.0 L 183.0 179.0 L 184.0 179.0 L 185.0 179.0 L 186.0 179.0 L 187.0 179.0 L 188.0 179.0 L 189.0 179.0 L 190.0 179.0 L 191.0 179.0 L 192.0 178.0 L 193.0 178.0 L 194.0 178.0 L 195.0 178.0 L 196.0 178.0 L 197.0 178.0 L 198.0 178.0 L 199.0 178.0 L 200.0 177.0 L 201.0 177.0 L 202.0 177.0 L 204.0 177.0 L 205.0 177.0 L 207.0 176.0 L 208.0 176.0 L 210.0 176.0 L 212.0 175.0 L 214.0 175.0 L 215.0 175.0 L 217.0 175.0 L 219.0 175.0 L 221.0 175.0 L 222.0 175.0 L 224.0 175.0 L 225.0 175.0 L 227.0 175.0 L 228.0 175.0 L 229.0 175.0 L 229.0 175.0 L 230.0 175.0 L 231.0 175.0 L 231.0 175.0 L 232.0 176.0 L 232.0 176.0 L 232.0 176.0 L 233.0 177.0 L 233.0 177.0 L 233.0 178.0 L 233.0 179.0 L 233.0 180.0 L 233.0 181.0 L 233.0 182.0 L 233.0 184.0 L 233.0 186.0 L 233.0 189.0 L 233.0 192.0 L 233.0 195.0 L 233.0 199.0 L 233.0 204.0 L 233.0 208.0 L 233.0 213.0 L 233.0 216.0 L 233.0 221.0 L 233.0 225.0 L 233.0 229.0 L 233.0 233.0 L 233.0 236.0 L 233.0 237.0 L 233.0 238.0 L 233.0 239.0 L 232.0 239.0 L 232.0 239.0 " stroke="black" fill="none" stroke-width="5.0" stroke-linecap="round" stroke-linejoin="round" />
<path d="M 135.0 242.0 L 135.0 242.0 L 133.0 242.0 L 132.0 242.0 L 131.0 242.0 L 130.0 242.0 L 130.0 242.0 L 130.0 242.0 L 130.0 242.0 L 130.0 242.0 L 131.0 242.0 L 133.0 242.0 L 135.0 242.0 L 138.0 242.0 L 141.0 242.0 L 145.0 242.0 L 148.0 242.0 L 152.0 242.0 L 156.0 242.0 L 162.0 243.0 L 169.0 243.0 L 177.0 243.0 L 184.0 243.0 L 190.0 243.0 L 195.0 242.0 L 200.0 242.0 L 204.0 242.0 L 208.0 242.0 L 213.0 241.0 L 217.0 241.0 L 220.0 241.0 L 223.0 241.0 L 224.0 241.0 L 225.0 240.0 L 225.0 240.0 L 225.0 240.0 L 225.0 240.0 L 225.0 240.0 L 225.0 240.0 " stroke="black" fill="none" stroke-width="5.0" stroke-linecap="round" stroke-linejoin="round" />
</svg>