<svg xmlns="http://www.w3.org/2000/svg" width="300" height="300" viewBox="0 0 300 300">
<path d="M 106.0 73.0 L 106.0 73.0 L 106.0 73.0 L 106.0 73.0 L 106.0 73.0 L 106.0 72.0 L 106.0 72.0 L 106.0 72.0 L 106.0 73.0 L 106.0 74.0 L 106.0 76.0 L 105.0 78.0 L 104.0 81.0 L 102.0 85.0 L 99.0 92.0 L 94.0 100.0 L 88.0 110.0 L 80.0 121.0 L 73.0 130.0 L 67.0 140.0 L 62.0 149.0 L 59.0 156.0 L 55.0 161.0 L 51.0 165.0 L 48.0 168.0 L 44.0 169.0 " stroke="black" fill="none" stroke-width="5.0" stroke-linecap="round" stroke-linejoin="round" />
<path d="M 84.0 122.0 L 84.0 122.0 L 84.0 121.0 L 83.0 121.0 L 83.0 120.0 L 83.0 120.0 L 83.0 120.0 L 83.0 121.0 L 83.0 123.0 L 83.0 127.0 L 83.0 132.0 L 84.0 139.0 L 85.0 148.0 L 86.0 159.0 L 87.0 171.0 L 87.0 186.0 L 87.0 202.0 L 85.0 216.0 L 83.0 229.0 L 82.0 242.0 L 80.0 248.0 L 79.0 253.0 L 78.0 257.0 L 78.0 258.0 L 77.0 258.0 " stroke="black" fill="none" stroke-width="5.0" stroke-linecap="round" stroke-linejoin="round" />
<path d="M 135.0 89.0 L 135.0 89.0 L 134.0 89.0 L 133.0 89.0 L 133.0 89.0 L 132.0 92.0 L 132.0 96.0 L 132.0 102.0 L 133.0 110.0 L 134.0 118.0 L 134.0 126.0 L 134.0 135.0 L 134.0 142.0 L 133.0 148.0 L 133.0 153.0 L 133.0 154.0 " stroke="black" fill="none" stroke-width="5.0" stroke-linecap="round" stroke-linejoin="round" />
<path d="M 137.0 86.0 L 136.0 86.0 L 135.0 86.0 L 134.0 86.0 L 133.0 86.0 L 132.0 86.0 L 131.0 85.0 L 130.0 85.0 L 130.0 85.0 L 130.0 85.0 L 130.0 85.0 L 130.0 85.0 L 130.0 84.0 L 132.0 84.0 L 134.0 84.0 L 136.0 84.0 L 139.0 83.0 L 143.0 83.0 L 146.0 83.0 L 151.0 82.0 L 156.0 82.0 L 162.0 81.0 L 170.0 80.0 L 178.0 80.0 L 185.0 80.0 L 191.0 79.0 L 195.0 79.0 L 198.0 79.0 L 200.0 80.0 L 201.0 80.0 L 203.0 81.0 L 204.0 83.0 L 206.0 84.0 L 208.0 86.0 L 209.0 87.0 L 210.0 89.0 L 211.0 91.0 L 212.0 94.0 L 213.0 96.0 L 213.0 100.0 L 213.0 104.0 L 213.0 109.0 L 213.0 115.0 L 211.0 121.0 L 210.0 127.0 L 208.0 134.0 L 206.0 141.0 L 205.0 146.0 L 204.0 151.0 L 203.0 154.0 L 202.0 155.0 L 201.0 155.0 L 199.0 154.0 L 198.0 153.0 " stroke="black" fill="none" stroke-width="5.0" stroke-linecap="round" stroke-linejoin="round" />
<path d="M 148.0 115.0 L 147.0 115.0 L 146.0 115.0 L 145.0 115.0 L 144.0 115.0 L 144.0 115.0 L 144.0 115.0 L 144.0 114.0 L 147.0 114.0 L 150.0 114.0 L 155.0 114.0 L 162.0 114.0 L 171.0 114.0 L 181.0 114.0 L 190.0 114.0 L 197.0 114.0 L 202.0 114.0 L 205.0 115.0 " stroke="black" fill="none" stroke-width="5.0" stroke-linecap="round" stroke-linejoin="round" />
<path d="M 146.0 155.0 L 145.0 155.0 L 142.0 155.0 L 141.0 155.0 L 139.0 155.0 L 139.0 155.0 L 139.0 155.0 L 140.0 155.0 L 143.0 155.0 L 146.0 155.0 L 151.0 155.0 L 157.0 155.0 L 165.0 154.0 L 173.0 154.0 L 182.0 153.0 L 190.0 152.0 L 196.0 151.0 L 202.0 151.0 L 205.0 150.0 " stroke="black" fill="none" stroke-width="5.0" stroke-linecap="round" stroke-linejoin="round" />
<path d="M 123.0 177.0 L 123.0 177.0 L 123.0 176.0 L 123.0 176.0 L 123.0 176.0 L 124.0 176.0 L 124.0 176.0 L 125.0 180.0 L 126.0 186.0 L 127.0 193.0 L 127.0 202.0 L 127.0 212.0 L 127.0 222.0 L 126.0 232.0 L 126.0 241.0 L 125.0 246.0 L 125.0 250.0 L 125.0 250.0 " stroke="black" fill="none" stroke-width="5.0" stroke-linecap="round" stroke-linejoin="round" />
<path d="M 129.0 180.0 L 129.0 180.0 L 128.0 179.0 L 128.0 179.0 L 127.0 178.0 L 127.0 178.0 L 127.0 178.0 L 127.0 178.0 L 127.0 177.0 L 127.0 177.0 L 128.0 177.0 L 129.0 177.0 L 130.0 177.0 L 132.0 177.0 L 133.0 177.0 L 135.0 177.0 L 137.0 178.0 L 138.0 178.0 L 140.0 178.0 L 142.0 178.0 L 144.0 178.0 L 146.0 178.0 L 148.0 178.0 L 150.0 178.0 L 152.0 178.0 L 154.0 178.0 L 156.0 178.0 L 158.0 178.0 L 160.0 178.0 L 162.0 178.0 L 165.0 178.0 L 167.0 178.0 L 169.0 178.0 L 172.0 178.0 L 174.0 178.0 L 176.0 178.0 L 179.0 178.0 L 181.0 178.0 L 184.0 178.0 L 186.0 178.0 L 188.0 178.0 L 190.0 178.0 L 192.0 178.0 L 193.0 178.0 L 194.0 178.0 L 195.0 178.0 L 196.0 178.0 L 197.0 178.0 L 198.0 178.0 L 199.0 178.0 L 200.0 178.0 L 202.0 178.0 L 203.0 178.0 L 205.0 178.0 L 206.0 178.0 L 207.0 178.0 L 209.0 178.0 L 210.0 178.0 L 211.0 178.0 L 212.0 178.0 L 213.0 178.0 L 214.0 178.0 L 215.0 178.0 L 216.0 178.0 L 217.0 178.0 L 218.0 178.0 L 219.0 178.0 L 219.0 178.0 L 220.0 178.0 L 221.0 178.0 L 221.0 179.0 L 221.0 179.0 L 222.0 180.0 L 222.0 181.0 L 222.0 182.0 L 222.0 184.0 L 222.0 187.0 L 222.0 189.0 L 222.0 193.0 L 222.0 198.0 L 222.0 204.0 L 222.0 210.0 L 221.0 218.0 L 219.0 226.0 L 217.0 235.0 L 216.0 240.0 L 215.0 244.0 L 214.0 246.0 L 214.0 246.0 L 214.0 244.0 L 214.0 241.0 " stroke="black" fill="none" stroke-width="5.0" stroke-linecap="round" stroke-linejoin="round" />
<path d="M 143.0 205.0 L 141.0 205.0 L 139.0 205.0 L 138.0 205.0 L 138.0 204.0 L 138.0 204.0 L 138.0 204.0 L 139.0 204.0 L 142.0 204.0 L 145.0 204.0 L 148.0 204.0 L 153.0 205.0 L 159.0 205.0 L 167.0 205.0 L 176.0 205.0 L 185.0 205.0 L 193.0 204.0 L 200.0 203.0 L 205.0 203.0 L 208.0 202.0 L 211.0 202.0 L 212.0 202.0 L 212.0 203.0 L 210.0 204.0 " stroke="black" fill="none" stroke-width="5.0" stroke-linecap="round" stroke-linejoin="round" />
<path d="M 145.0 247.0 L 144.0 247.0 L 142.0 248.0 L 139.0 249.0 L 137.0 250.0 L 135.0 250.0 L 135.0 251.0 L 134.0 251.0 L 134.0 252.0 L 136.0 252.0 L 138.0 252.0 L 142.0 253.0 L 146.0 253.0 L 151.0 253.0 L 157.0 253.0 L 164.0 253.0 L 174.0 252.0 L 183.0 251.0 L 193.0 250.0 L 201.0 249.0 L 209.0 248.0 L 216.0 247.0 L 222.0 245.0 L 226.0 245.0 L 228.0 245.0 " stroke="black" fill="none" stroke-width="5.0" stroke-linecap="round" stroke-linejoin="round" />
</svg>