<svg xmlns="http://www.w3.org/2000/svg" width="300" height="300" viewBox="0 0 300 300">
<path d="M 100.0 74.0 L 100.0 74.0 L 100.0 74.0 L 100.0 73.0 L 100.0 73.0 L 100.0 73.0 L 100.0 73.0 L 100.0 73.0 L 100.0 73.0 L 99.0 73.0 L 99.0 74.0 L 99.0 75.0 L 98.0 77.0 L 97.0 80.0 L 96.0 83.0 L 94.0 87.0 L 93.0 92.0 L 91.0 98.0 L 88.0 104.0 L 85.0 110.0 L 82.0 116.0 L 79.0 121.0 L 76.0 126.0 L 73.0 131.0 L 69.0 137.0 L 66.0 143.0 L 64.0 149.0 L 60.0 155.0 L 58.0 159.0 L 55.0 162.0 L 52.0 165.0 L 51.0 166.0 " stroke="black" fill="none" stroke-width="5.0" stroke-linecap="round" stroke-linejoin="round" />
<path d="M 81.0 113.0 L 81.0 113.0 L 81.0 113.0 L 81.0 113.0 L 81.0 113.0 L 81.0 113.0 L 81.0 113.0 L 81.0 113.0 L 81.0 114.0 L 81.0 116.0 L 81.0 119.0 L 81.0 122.0 L 82.0 126.0 L 83.0 132.0 L 83.0 139.0 L 84.0 147.0 L 84.0 152.0 L 84.0 164.0 L 84.0 172.0 L 84.0 180.0 L 84.0 188.0 L 84.0 196.0 L 84.0 203.0 L 84.0 209.0 L 84.0 215.0 L 84.0 220.0 L 83.0 226.0 L 83.0 231.0 L 83.0 235.0 L 83.0 238.0 L 83.0 241.0 L 84.0 242.0 L 84.0 243.0 L 84.0 243.0 L 84.0 243.0 " stroke="black" fill="none" stroke-width="5.0" stroke-linecap="round" stroke-linejoin="round" />
<path d="M 140.0 134.0 L 140.0 134.0 L 140.0 134.0 L 140.0 134.0 L 140.0 134.0 L 140.0 134.0 L 139.0 134.0 L 139.0 134.0 L 138.0 134.0 L 136.0 135.0 L 135.0 135.0 L 132.0 136.0 L 130.0 137.0 L 127.0 138.0 L 123.0 139.0 L 120.0 139.0 L 117.0 140.0 " stroke="black" fill="none" stroke-width="5.0" stroke-linecap="round" stroke-linejoin="round" />
<path d="M 119.0 105.0 L 119.0 105.0 L 118.0 105.0 L 117.0 105.0 L 116.0 105.0 L 116.0 105.0 L 116.0 105.0 L 116.0 106.0 L 116.0 107.0 L 116.0 109.0 L 116.0 112.0 L 116.0 114.0 L 116.0 118.0 L 116.0 122.0 L 116.0 126.0 L 116.0 130.0 L 116.0 135.0 L 116.0 140.0 L 115.0 145.0 L 115.0 150.0 L 115.0 154.0 L 115.0 157.0 L 115.0 161.0 L 115.0 164.0 L 115.0 167.0 L 115.0 170.0 L 115.0 172.0 L 115.0 175.0 L 115.0 178.0 L 114.0 181.0 L 114.0 184.0 L 114.0 188.0 L 113.0 190.0 L 113.0 193.0 L 113.0 195.0 L 113.0 197.0 L 113.0 198.0 L 113.0 200.0 L 113.0 201.0 L 113.0 202.0 L 113.0 203.0 L 113.0 204.0 L 113.0 204.0 L 113.0 205.0 L 113.0 206.0 L 113.0 206.0 L 113.0 206.0 L 113.0 207.0 L 113.0 207.0 L 113.0 208.0 L 113.0 208.0 L 113.0 208.0 L 112.0 209.0 L 112.0 209.0 L 112.0 209.0 L 112.0 209.0 L 112.0 209.0 L 112.0 209.0 L 113.0 209.0 L 114.0 209.0 L 115.0 209.0 L 117.0 207.0 L 120.0 205.0 L 123.0 202.0 L 128.0 198.0 L 133.0 194.0 L 138.0 190.0 L 144.0 185.0 " stroke="black" fill="none" stroke-width="5.0" stroke-linecap="round" stroke-linejoin="round" />
<path d="M 155.0 83.0 L 155.0 83.0 L 154.0 83.0 L 153.0 83.0 L 153.0 84.0 L 152.0 84.0 L 152.0 84.0 L 152.0 84.0 L 151.0 84.0 L 151.0 84.0 L 151.0 84.0 L 152.0 84.0 L 152.0 84.0 L 154.0 84.0 L 156.0 84.0 L 159.0 84.0 L 163.0 84.0 L 169.0 84.0 L 175.0 84.0 L 182.0 84.0 L 190.0 84.0 L 196.0 84.0 L 202.0 83.0 L 207.0 83.0 L 213.0 82.0 L 218.0 82.0 L 223.0 82.0 L 226.0 82.0 L 229.0 82.0 L 231.0 82.0 L 232.0 82.0 L 232.0 82.0 " stroke="black" fill="none" stroke-width="5.0" stroke-linecap="round" stroke-linejoin="round" />
<path d="M 200.0 86.0 L 200.0 86.0 L 199.0 86.0 L 198.0 86.0 L 198.0 86.0 L 197.0 87.0 L 196.0 88.0 L 195.0 89.0 L 194.0 91.0 L 193.0 94.0 L 191.0 98.0 L 189.0 102.0 L 187.0 107.0 L 185.0 110.0 L 184.0 111.0 " stroke="black" fill="none" stroke-width="5.0" stroke-linecap="round" stroke-linejoin="round" />
<path d="M 160.0 116.0 L 160.0 116.0 L 159.0 116.0 L 159.0 116.0 L 158.0 116.0 L 158.0 116.0 L 158.0 116.0 L 158.0 116.0 L 158.0 116.0 L 158.0 116.0 L 158.0 117.0 L 158.0 119.0 L 158.0 120.0 L 158.0 123.0 L 158.0 125.0 L 159.0 128.0 L 159.0 132.0 L 159.0 136.0 L 159.0 140.0 L 159.0 145.0 L 159.0 150.0 L 160.0 155.0 L 160.0 161.0 L 160.0 165.0 L 160.0 170.0 L 160.0 174.0 L 159.0 178.0 L 158.0 182.0 L 158.0 187.0 L 158.0 191.0 L 157.0 194.0 L 157.0 198.0 L 157.0 201.0 L 157.0 204.0 L 157.0 206.0 L 156.0 208.0 L 156.0 209.0 L 156.0 210.0 L 156.0 210.0 " stroke="black" fill="none" stroke-width="5.0" stroke-linecap="round" stroke-linejoin="round" />
<path d="M 169.0 118.0 L 169.0 118.0 L 168.0 118.0 L 167.0 118.0 L 166.0 118.0 L 165.0 118.0 L 165.0 118.0 L 165.0 118.0 L 165.0 118.0 L 165.0 118.0 L 166.0 118.0 L 167.0 118.0 L 168.0 118.0 L 170.0 118.0 L 172.0 118.0 L 174.0 118.0 L 176.0 118.0 L 178.0 118.0 L 181.0 118.0 L 184.0 118.0 L 187.0 118.0 L 190.0 118.0 L 193.0 118.0 L 196.0 117.0 L 199.0 117.0 L 202.0 116.0 L 205.0 116.0 L 208.0 115.0 L 211.0 115.0 L 214.0 115.0 L 216.0 114.0 L 219.0 114.0 L 221.0 114.0 L 223.0 114.0 L 224.0 114.0 L 226.0 114.0 L 227.0 114.0 L 228.0 115.0 L 229.0 115.0 L 230.0 115.0 L 231.0 115.0 L 232.0 116.0 L 232.0 116.0 L 232.0 116.0 L 233.0 117.0 L 233.0 117.0 L 233.0 118.0 L 233.0 119.0 L 233.0 120.0 L 233.0 121.0 L 233.0 123.0 L 233.0 124.0 L 233.0 126.0 L 233.0 128.0 L 233.0 131.0 L 233.0 134.0 L 233.0 139.0 L 233.0 144.0 L 233.0 150.0 L 233.0 156.0 L 233.0 162.0 L 232.0 167.0 L 232.0 173.0 L 232.0 178.0 L 232.0 183.0 L 232.0 188.0 L 232.0 191.0 L 231.0 195.0 L 231.0 198.0 L 231.0 200.0 L 231.0 202.0 L 231.0 204.0 L 231.0 206.0 L 231.0 207.0 L 230.0 209.0 L 230.0 209.0 L 230.0 210.0 L 230.0 210.0 L 230.0 210.0 L 229.0 210.0 " stroke="black" fill="none" stroke-width="5.0" stroke-linecap="round" stroke-linejoin="round" />
<path d="M 175.0 143.0 L 173.0 143.0 L 171.0 143.0 L 169.0 144.0 L 168.0 144.0 L 167.0 145.0 L 167.0 145.0 L 167.0 146.0 L 169.0 146.0 L 172.0 146.0 L 176.0 145.0 L 180.0 144.0 L 186.0 143.0 L 191.0 142.0 L 195.0 141.0 L 200.0 140.0 L 205.0 139.0 L 210.0 139.0 L 215.0 139.0 L 219.0 139.0 L 223.0 141.0 " stroke="black" fill="none" stroke-width="5.0" stroke-linecap="round" stroke-linejoin="round" />
<path d="M 173.0 172.0 L 172.0 172.0 L 169.0 172.0 L 168.0 173.0 L 167.0 173.0 L 166.0 173.0 L 166.0 174.0 L 166.0 174.0 L 168.0 174.0 L 171.0 174.0 L 174.0 173.0 L 179.0 173.0 L 183.0 172.0 L 188.0 172.0 L 192.0 172.0 L 197.0 171.0 L 202.0 171.0 L 207.0 171.0 L 213.0 171.0 L 219.0 171.0 L 224.0 171.0 " stroke="black" fill="none" stroke-width="5.0" stroke-linecap="round" stroke-linejoin="round" />
<path d="M 161.0 214.0 L 160.0 214.0 L 158.0 214.0 L 157.0 215.0 L 157.0 215.0 L 157.0 215.0 L 157.0 215.0 L 159.0 215.0 L 162.0 214.0 L 166.0 213.0 L 170.0 213.0 L 176.0 212.0 L 182.0 211.0 L 188.0 211.0 L 194.0 210.0 L 200.0 209.0 L 206.0 209.0 L 213.0 208.0 L 219.0 208.0 L 225.0 207.0 L 228.0 207.0 " stroke="black" fill="none" stroke-width="5.0" stroke-linecap="round" stroke-linejoin="round" />
<path d="M 189.0 229.0 L 189.0 229.0 L 190.0 229.0 L 190.0 228.0 L 190.0 228.0 L 191.0 228.0 L 191.0 227.0 L 191.0 227.0 L 191.0 227.0 L 190.0 227.0 L 188.0 228.0 L 185.0 230.0 L 182.0 231.0 L 177.0 233.0 L 171.0 236.0 L 164.0 239.0 L 158.0 241.0 L 152.0 244.0 L 148.0 247.0 L 146.0 248.0 " stroke="black" fill="none" stroke-width="5.0" stroke-linecap="round" stroke-linejoin="round" />
<path d="M 210.0 226.0 L 209.0 226.0 L 208.0 226.0 L 207.0 226.0 L 206.0 226.0 L 206.0 226.0 L 206.0 226.0 L 206.0 227.0 L 208.0 228.0 L 210.0 229.0 L 214.0 231.0 L 218.0 234.0 L 223.0 237.0 L 228.0 240.0 L 232.0 243.0 L 236.0 246.0 L 239.0 249.0 L 242.0 250.0 L 244.0 251.0 " stroke="black" fill="none" stroke-width="5.0" stroke-linecap="round" stroke-linejoin="round" />
</svg>