<svg xmlns="http://www.w3.org/2000/svg" width="300" height="300" viewBox="0 0 300 300">
<path d="M 71.0 118.0 L 71.0 118.0 L 70.0 118.0 L 70.0 118.0 L 69.0 118.0 L 69.0 118.0 L 69.0 118.0 L 69.0 118.0 L 69.0 118.0 L 69.0 118.0 L 69.0 118.0 L 69.0 118.0 L 69.0 118.0 L 70.0 118.0 L 70.0 118.0 L 71.0 118.0 L 72.0 119.0 L 73.0 119.0 L 74.0 119.0 L 75.0 120.0 L 76.0 120.0 L 77.0 120.0 L 78.0 120.0 L 80.0 120.0 L 81.0 121.0 L 82.0 121.0 L 83.0 121.0 L 85.0 121.0 L 86.0 121.0 L 87.0 121.0 L 89.0 121.0 L 90.0 121.0 L 91.0 122.0 L 93.0 122.0 L 94.0 122.0 L 95.0 122.0 L 96.0 122.0 L 98.0 122.0 L 99.0 122.0 L 100.0 122.0 L 101.0 122.0 L 102.0 122.0 L 103.0 122.0 L 104.0 122.0 L 105.0 122.0 L 106.0 122.0 L 107.0 122.0 L 108.0 122.0 L 109.0 122.0 L 110.0 122.0 L 111.0 122.0 L 112.0 121.0 L 114.0 121.0 L 115.0 121.0 L 116.0 121.0 L 117.0 120.0 L 118.0 120.0 L 119.0 120.0 L 121.0 119.0 L 122.0 119.0 L 123.0 119.0 L 124.0 119.0 L 126.0 119.0 L 127.0 119.0 L 129.0 119.0 L 130.0 119.0 L 132.0 119.0 L 133.0 119.0 L 135.0 119.0 L 136.0 119.0 L 138.0 119.0 L 139.0 119.0 L 140.0 119.0 L 141.0 119.0 L 143.0 119.0 L 144.0 120.0 L 145.0 120.0 L 146.0 120.0 L 146.0 120.0 L 147.0 120.0 L 148.0 120.0 L 149.0 120.0 L 150.0 120.0 L 150.0 120.0 L 151.0 120.0 L 152.0 120.0 L 152.0 120.0 L 153.0 120.0 L 154.0 120.0 L 155.0 120.0 L 155.0 120.0 L 156.0 120.0 L 157.0 120.0 L 158.0 120.0 L 159.0 120.0 L 160.0 120.0 L 162.0 120.0 L 163.0 120.0 L 165.0 120.0 L 166.0 120.0 L 168.0 120.0 L 170.0 120.0 L 172.0 120.0 L 174.0 120.0 L 176.0 120.0 L 178.0 120.0 L 180.0 120.0 L 182.0 119.0 L 184.0 119.0 L 186.0 119.0 L 188.0 119.0 L 189.0 119.0 L 191.0 119.0 L 193.0 119.0 L 194.0 119.0 L 196.0 120.0 L 197.0 120.0 L 198.0 120.0 L 200.0 121.0 L 202.0 121.0 L 204.0 121.0 L 206.0 122.0 L 209.0 122.0 L 211.0 123.0 L 214.0 123.0 L 217.0 123.0 L 220.0 123.0 L 223.0 123.0 L 225.0 123.0 L 226.0 123.0 L 228.0 123.0 L 229.0 123.0 L 229.0 123.0 " stroke="black" fill="none" stroke-width="5.0" stroke-linecap="round" stroke-linejoin="round" />
<path d="M 110.0 81.0 L 110.0 81.0 L 110.0 81.0 L 110.0 81.0 L 110.0 81.0 L 110.0 81.0 L 111.0 81.0 L 111.0 81.0 L 111.0 81.0 L 111.0 82.0 L 111.0 83.0 L 112.0 84.0 L 112.0 85.0 L 112.0 87.0 L 112.0 90.0 L 112.0 93.0 L 112.0 98.0 L 112.0 102.0 L 112.0 108.0 L 112.0 113.0 L 112.0 118.0 L 112.0 124.0 L 112.0 129.0 L 113.0 135.0 L 113.0 141.0 L 113.0 148.0 L 113.0 154.0 L 114.0 160.0 L 114.0 164.0 L 114.0 168.0 L 115.0 172.0 L 115.0 174.0 L 116.0 175.0 L 116.0 176.0 L 117.0 176.0 L 118.0 174.0 L 119.0 171.0 " stroke="black" fill="none" stroke-width="5.0" stroke-linecap="round" stroke-linejoin="round" />
<path d="M 191.0 82.0 L 191.0 82.0 L 190.0 82.0 L 190.0 82.0 L 189.0 82.0 L 189.0 82.0 L 189.0 82.0 L 188.0 83.0 L 188.0 84.0 L 188.0 85.0 L 188.0 88.0 L 189.0 91.0 L 189.0 95.0 L 190.0 100.0 L 191.0 105.0 L 191.0 110.0 L 191.0 116.0 L 192.0 122.0 L 192.0 128.0 L 192.0 133.0 L 192.0 140.0 L 192.0 146.0 L 192.0 152.0 L 191.0 158.0 L 191.0 161.0 L 191.0 164.0 L 191.0 165.0 L 191.0 166.0 L 191.0 166.0 L 191.0 166.0 L 191.0 167.0 L 192.0 167.0 L 192.0 168.0 L 192.0 168.0 L 193.0 168.0 " stroke="black" fill="none" stroke-width="5.0" stroke-linecap="round" stroke-linejoin="round" />
<path d="M 65.0 182.0 L 65.0 182.0 L 65.0 182.0 L 64.0 182.0 L 64.0 182.0 L 64.0 182.0 L 64.0 182.0 L 64.0 181.0 L 64.0 181.0 L 64.0 181.0 L 64.0 181.0 L 64.0 181.0 L 64.0 181.0 L 64.0 181.0 L 64.0 181.0 L 65.0 181.0 L 66.0 181.0 L 68.0 181.0 L 69.0 181.0 L 71.0 181.0 L 73.0 181.0 L 75.0 181.0 L 77.0 181.0 L 79.0 181.0 L 81.0 181.0 L 83.0 181.0 L 86.0 181.0 L 87.0 181.0 L 89.0 181.0 L 91.0 182.0 L 93.0 182.0 L 94.0 182.0 L 96.0 182.0 L 97.0 182.0 L 98.0 183.0 L 99.0 183.0 L 100.0 183.0 L 101.0 183.0 L 102.0 184.0 L 103.0 184.0 L 103.0 184.0 L 104.0 184.0 L 105.0 184.0 L 106.0 184.0 L 107.0 185.0 L 107.0 185.0 L 108.0 185.0 L 109.0 185.0 L 110.0 185.0 L 111.0 185.0 L 112.0 185.0 L 113.0 185.0 L 114.0 185.0 L 115.0 185.0 L 116.0 185.0 L 117.0 185.0 L 119.0 185.0 L 120.0 185.0 L 121.0 185.0 L 122.0 185.0 L 123.0 185.0 L 124.0 185.0 L 125.0 185.0 L 126.0 185.0 L 127.0 185.0 L 128.0 185.0 L 129.0 185.0 L 130.0 185.0 L 132.0 185.0 L 133.0 185.0 L 134.0 185.0 L 136.0 185.0 L 137.0 185.0 L 139.0 185.0 L 140.0 185.0 L 141.0 185.0 L 143.0 185.0 L 144.0 185.0 L 145.0 185.0 L 146.0 185.0 L 147.0 185.0 L 148.0 184.0 L 149.0 184.0 L 150.0 184.0 L 151.0 184.0 L 152.0 184.0 L 153.0 184.0 L 153.0 184.0 L 154.0 184.0 L 155.0 184.0 L 156.0 183.0 L 157.0 183.0 L 158.0 183.0 L 160.0 183.0 L 161.0 182.0 L 162.0 182.0 L 164.0 182.0 L 165.0 182.0 L 167.0 181.0 L 168.0 181.0 L 169.0 181.0 L 171.0 181.0 L 173.0 181.0 L 174.0 180.0 L 176.0 180.0 L 178.0 180.0 L 179.0 180.0 L 181.0 180.0 L 183.0 180.0 L 184.0 180.0 L 186.0 180.0 L 187.0 180.0 L 189.0 181.0 L 190.0 181.0 L 191.0 181.0 L 193.0 182.0 L 194.0 182.0 L 195.0 182.0 L 196.0 182.0 L 197.0 183.0 L 198.0 183.0 L 199.0 183.0 L 201.0 184.0 L 202.0 184.0 L 203.0 184.0 L 205.0 184.0 L 206.0 184.0 L 208.0 184.0 L 210.0 184.0 L 211.0 184.0 L 213.0 184.0 L 215.0 184.0 L 216.0 184.0 L 218.0 184.0 L 220.0 184.0 L 221.0 184.0 L 223.0 184.0 L 225.0 184.0 L 227.0 184.0 L 228.0 184.0 L 230.0 185.0 L 231.0 185.0 L 232.0 185.0 L 233.0 185.0 L 233.0 185.0 L 234.0 186.0 L 234.0 187.0 " stroke="black" fill="none" stroke-width="5.0" stroke-linecap="round" stroke-linejoin="round" />
<path d="M 121.0 216.0 L 121.0 216.0 L 121.0 216.0 L 121.0 215.0 L 121.0 215.0 L 121.0 215.0 L 121.0 215.0 L 121.0 215.0 L 120.0 215.0 L 119.0 215.0 L 117.0 217.0 L 114.0 220.0 L 109.0 225.0 L 104.0 231.0 L 98.0 237.0 L 91.0 243.0 L 85.0 248.0 L 81.0 252.0 L 78.0 253.0 " stroke="black" fill="none" stroke-width="5.0" stroke-linecap="round" stroke-linejoin="round" />
<path d="M 183.0 210.0 L 183.0 210.0 L 182.0 210.0 L 181.0 209.0 L 181.0 209.0 L 180.0 209.0 L 180.0 209.0 L 180.0 209.0 L 181.0 209.0 L 183.0 210.0 L 185.0 212.0 L 187.0 214.0 L 189.0 216.0 L 192.0 219.0 L 196.0 223.0 L 199.0 226.0 L 204.0 231.0 L 209.0 235.0 L 215.0 240.0 L 220.0 244.0 L 225.0 248.0 L 229.0 251.0 L 232.0 253.0 L 234.0 255.0 L 234.0 257.0 L 235.0 257.0 " stroke="black" fill="none" stroke-width="5.0" stroke-linecap="round" stroke-linejoin="round" />
</svg>