<svg xmlns="http://www.w3.org/2000/svg" width="300" height="300" viewBox="0 0 300 300">
<path d="M 79.0 99.0 L 79.0 99.0 L 79.0 99.0 L 79.0 100.0 L 79.0 100.0 L 79.0 100.0 L 79.0 100.0 L 80.0 100.0 L 80.0 101.0 L 81.0 101.0 L 82.0 101.0 L 83.0 101.0 L 85.0 101.0 L 86.0 101.0 L 89.0 101.0 L 91.0 101.0 L 94.0 101.0 L 97.0 101.0 L 100.0 100.0 L 103.0 100.0 L 106.0 99.0 L 108.0 99.0 L 110.0 98.0 L 113.0 98.0 L 114.0 97.0 L 116.0 97.0 L 117.0 97.0 L 119.0 97.0 L 120.0 97.0 L 121.0 97.0 L 122.0 97.0 L 124.0 97.0 L 126.0 97.0 L 128.0 97.0 L 130.0 97.0 L 132.0 97.0 L 134.0 97.0 L 137.0 97.0 L 139.0 97.0 L 141.0 96.0 L 142.0 96.0 L 144.0 96.0 L 146.0 96.0 L 147.0 96.0 L 149.0 96.0 L 150.0 96.0 L 151.0 96.0 L 153.0 96.0 L 154.0 96.0 L 154.0 96.0 L 155.0 96.0 L 156.0 96.0 L 157.0 96.0 L 158.0 96.0 L 159.0 96.0 L 160.0 96.0 L 160.0 96.0 L 161.0 96.0 L 162.0 96.0 L 163.0 96.0 L 164.0 96.0 L 165.0 96.0 L 167.0 96.0 L 168.0 96.0 L 169.0 96.0 L 171.0 96.0 L 172.0 96.0 L 173.0 96.0 L 175.0 96.0 L 176.0 96.0 L 178.0 96.0 L 180.0 96.0 L 183.0 96.0 L 184.0 96.0 L 186.0 96.0 L 187.0 95.0 L 189.0 95.0 L 190.0 95.0 L 191.0 95.0 L 193.0 95.0 L 194.0 95.0 L 195.0 95.0 L 196.0 95.0 L 197.0 95.0 L 198.0 95.0 L 198.0 95.0 L 199.0 95.0 L 200.0 95.0 L 201.0 95.0 L 201.0 96.0 L 202.0 96.0 L 203.0 96.0 L 204.0 97.0 L 205.0 97.0 L 206.0 97.0 L 207.0 98.0 L 208.0 98.0 L 209.0 98.0 L 211.0 98.0 L 212.0 98.0 L 213.0 98.0 L 214.0 98.0 L 216.0 98.0 L 217.0 98.0 L 218.0 98.0 L 219.0 98.0 L 220.0 98.0 L 221.0 98.0 L 221.0 98.0 L 221.0 98.0 L 221.0 98.0 " stroke="black" fill="none" stroke-width="5.0" stroke-linecap="round" stroke-linejoin="round" />
<path d="M 152.0 78.0 L 152.0 78.0 L 152.0 78.0 L 151.0 78.0 L 151.0 78.0 L 151.0 78.0 L 151.0 78.0 L 151.0 78.0 L 151.0 80.0 L 151.0 83.0 L 151.0 87.0 L 151.0 92.0 L 151.0 99.0 L 151.0 106.0 L 151.0 111.0 L 151.0 114.0 " stroke="black" fill="none" stroke-width="5.0" stroke-linecap="round" stroke-linejoin="round" />
<path d="M 95.0 138.0 L 95.0 138.0 L 95.0 138.0 L 95.0 137.0 L 95.0 137.0 L 95.0 137.0 L 95.0 136.0 L 95.0 136.0 L 95.0 137.0 L 95.0 139.0 L 95.0 143.0 L 95.0 148.0 L 95.0 154.0 L 95.0 161.0 L 96.0 168.0 L 97.0 174.0 L 98.0 179.0 L 99.0 181.0 L 101.0 181.0 L 102.0 180.0 " stroke="black" fill="none" stroke-width="5.0" stroke-linecap="round" stroke-linejoin="round" />
<path d="M 106.0 134.0 L 106.0 134.0 L 106.0 134.0 L 106.0 134.0 L 105.0 133.0 L 105.0 133.0 L 105.0 133.0 L 105.0 133.0 L 106.0 132.0 L 106.0 132.0 L 108.0 132.0 L 110.0 131.0 L 112.0 130.0 L 115.0 129.0 L 119.0 128.0 L 123.0 128.0 L 129.0 127.0 L 135.0 126.0 L 141.0 126.0 L 147.0 126.0 L 152.0 126.0 L 156.0 125.0 L 159.0 125.0 L 162.0 125.0 L 165.0 125.0 L 169.0 126.0 L 172.0 126.0 L 176.0 126.0 L 180.0 127.0 L 184.0 127.0 L 187.0 127.0 L 190.0 128.0 L 193.0 128.0 L 196.0 128.0 L 198.0 128.0 L 200.0 128.0 L 201.0 128.0 L 203.0 128.0 L 204.0 128.0 L 206.0 129.0 L 207.0 129.0 L 208.0 129.0 L 209.0 130.0 L 210.0 130.0 L 211.0 130.0 L 212.0 131.0 L 212.0 132.0 L 212.0 132.0 L 212.0 133.0 L 212.0 135.0 L 212.0 137.0 L 211.0 139.0 L 210.0 143.0 L 209.0 146.0 L 208.0 149.0 L 207.0 153.0 L 206.0 156.0 L 206.0 159.0 L 205.0 162.0 L 203.0 164.0 " stroke="black" fill="none" stroke-width="5.0" stroke-linecap="round" stroke-linejoin="round" />
<path d="M 109.0 182.0 L 109.0 182.0 L 108.0 182.0 L 107.0 182.0 L 107.0 182.0 L 106.0 182.0 L 106.0 182.0 L 107.0 181.0 L 108.0 181.0 L 110.0 180.0 L 114.0 179.0 L 119.0 178.0 L 125.0 178.0 L 133.0 177.0 L 142.0 176.0 L 151.0 175.0 L 158.0 174.0 L 166.0 173.0 L 173.0 172.0 L 180.0 171.0 L 187.0 170.0 L 192.0 170.0 L 195.0 170.0 L 198.0 170.0 L 199.0 170.0 L 200.0 170.0 L 200.0 170.0 L 200.0 170.0 " stroke="black" fill="none" stroke-width="5.0" stroke-linecap="round" stroke-linejoin="round" />
<path d="M 127.0 185.0 L 127.0 185.0 L 126.0 185.0 L 126.0 185.0 L 126.0 185.0 L 126.0 184.0 L 126.0 184.0 L 126.0 184.0 L 126.0 184.0 L 126.0 185.0 L 126.0 186.0 L 126.0 187.0 L 126.0 189.0 L 126.0 192.0 L 125.0 196.0 L 123.0 200.0 L 121.0 206.0 L 118.0 212.0 L 115.0 218.0 L 113.0 225.0 L 110.0 232.0 L 107.0 237.0 L 104.0 241.0 L 99.0 244.0 L 93.0 247.0 L 86.0 249.0 L 80.0 250.0 L 75.0 251.0 L 73.0 251.0 " stroke="black" fill="none" stroke-width="5.0" stroke-linecap="round" stroke-linejoin="round" />
<path d="M 167.0 180.0 L 167.0 180.0 L 167.0 180.0 L 167.0 179.0 L 167.0 179.0 L 167.0 178.0 L 167.0 178.0 L 167.0 178.0 L 167.0 178.0 L 167.0 178.0 L 167.0 178.0 L 167.0 180.0 L 167.0 181.0 L 167.0 183.0 L 167.0 186.0 L 167.0 188.0 L 167.0 190.0 L 167.0 193.0 L 167.0 195.0 L 167.0 197.0 L 167.0 200.0 L 167.0 203.0 L 166.0 205.0 L 166.0 208.0 L 166.0 210.0 L 166.0 212.0 L 166.0 214.0 L 166.0 216.0 L 166.0 217.0 L 166.0 219.0 L 166.0 220.0 L 166.0 221.0 L 166.0 222.0 L 166.0 224.0 L 166.0 225.0 L 166.0 226.0 L 166.0 227.0 L 166.0 228.0 L 166.0 230.0 L 166.0 231.0 L 166.0 232.0 L 166.0 233.0 L 166.0 234.0 L 166.0 235.0 L 166.0 236.0 L 166.0 236.0 L 166.0 237.0 L 166.0 238.0 L 166.0 239.0 L 166.0 239.0 L 166.0 240.0 L 166.0 241.0 L 166.0 241.0 L 166.0 242.0 L 166.0 242.0 L 166.0 243.0 L 167.0 243.0 L 167.0 244.0 L 167.0 244.0 L 167.0 245.0 L 168.0 245.0 L 168.0 246.0 L 169.0 246.0 L 169.0 247.0 L 170.0 247.0 L 170.0 247.0 L 171.0 247.0 L 172.0 248.0 L 172.0 248.0 L 173.0 248.0 L 174.0 248.0 L 175.0 248.0 L 176.0 248.0 L 178.0 249.0 L 179.0 249.0 L 181.0 249.0 L 183.0 249.0 L 185.0 249.0 L 187.0 250.0 L 190.0 250.0 L 192.0 250.0 L 194.0 250.0 L 196.0 250.0 L 197.0 250.0 L 199.0 250.0 L 200.0 250.0 L 201.0 250.0 L 203.0 250.0 L 204.0 250.0 L 206.0 250.0 L 207.0 250.0 L 209.0 250.0 L 211.0 250.0 L 213.0 250.0 L 215.0 250.0 L 217.0 250.0 L 219.0 250.0 L 221.0 250.0 L 222.0 250.0 L 223.0 250.0 L 225.0 250.0 L 226.0 250.0 L 228.0 250.0 L 229.0 250.0 L 230.0 250.0 L 231.0 250.0 L 232.0 249.0 L 232.0 249.0 L 233.0 248.0 L 234.0 248.0 L 234.0 247.0 L 235.0 245.0 L 236.0 244.0 L 236.0 242.0 L 237.0 240.0 L 237.0 237.0 L 237.0 234.0 L 238.0 230.0 L 238.0 225.0 L 238.0 222.0 " stroke="black" fill="none" stroke-width="5.0" stroke-linecap="round" stroke-linejoin="round" />
</svg>