<svg xmlns="http://www.w3.org/2000/svg" width="300" height="300" viewBox="0 0 300 300">
<path d="M 149.0 71.0 L 149.0 71.0 L 149.0 70.0 L 149.0 70.0 L 149.0 69.0 L 149.0 69.0 L 149.0 69.0 L 149.0 69.0 L 149.0 71.0 L 149.0 74.0 L 149.0 78.0 L 149.0 83.0 L 149.0 92.0 L 149.0 102.0 L 149.0 114.0 L 149.0 126.0 L 149.0 130.0 L 149.0 142.0 L 149.0 147.0 L 149.0 149.0 L 149.0 150.0 " stroke="black" fill="none" stroke-width="5.0" stroke-linecap="round" stroke-linejoin="round" />
<path d="M 92.0 85.0 L 92.0 85.0 L 91.0 85.0 L 90.0 85.0 L 89.0 84.0 L 89.0 84.0 L 88.0 84.0 L 88.0 86.0 L 89.0 88.0 L 90.0 92.0 L 93.0 97.0 L 96.0 103.0 L 100.0 109.0 L 103.0 115.0 L 106.0 120.0 L 109.0 124.0 L 110.0 126.0 " stroke="black" fill="none" stroke-width="5.0" stroke-linecap="round" stroke-linejoin="round" />
<path d="M 213.0 81.0 L 213.0 81.0 L 212.0 80.0 L 211.0 80.0 L 209.0 80.0 L 208.0 80.0 L 207.0 82.0 L 205.0 84.0 L 204.0 89.0 L 201.0 95.0 L 199.0 103.0 L 197.0 111.0 L 195.0 119.0 L 193.0 125.0 L 192.0 128.0 " stroke="black" fill="none" stroke-width="5.0" stroke-linecap="round" stroke-linejoin="round" />
<path d="M 75.0 155.0 L 74.0 155.0 L 72.0 155.0 L 70.0 155.0 L 69.0 155.0 L 69.0 155.0 L 70.0 155.0 L 73.0 155.0 L 77.0 155.0 L 83.0 154.0 L 91.0 154.0 L 99.0 154.0 L 107.0 154.0 L 117.0 154.0 L 130.0 154.0 L 144.0 154.0 L 157.0 154.0 L 171.0 153.0 L 188.0 152.0 L 201.0 151.0 L 212.0 150.0 L 223.0 150.0 L 231.0 150.0 L 235.0 150.0 L 238.0 152.0 L 239.0 154.0 L 239.0 156.0 L 239.0 157.0 " stroke="black" fill="none" stroke-width="5.0" stroke-linecap="round" stroke-linejoin="round" />
<path d="M 120.0 160.0 L 120.0 160.0 L 120.0 160.0 L 120.0 160.0 L 120.0 160.0 L 120.0 160.0 L 120.0 160.0 L 120.0 160.0 L 120.0 160.0 L 121.0 161.0 L 122.0 162.0 L 122.0 164.0 L 122.0 167.0 L 122.0 172.0 L 121.0 180.0 L 117.0 190.0 L 113.0 201.0 L 109.0 211.0 L 104.0 221.0 L 99.0 231.0 L 92.0 239.0 L 83.0 246.0 L 75.0 251.0 L 68.0 254.0 L 66.0 256.0 " stroke="black" fill="none" stroke-width="5.0" stroke-linecap="round" stroke-linejoin="round" />
<path d="M 178.0 161.0 L 178.0 161.0 L 177.0 161.0 L 177.0 161.0 L 176.0 161.0 L 175.0 161.0 L 175.0 161.0 L 174.0 162.0 L 174.0 163.0 L 174.0 165.0 L 173.0 167.0 L 173.0 170.0 L 173.0 175.0 L 173.0 180.0 L 172.0 186.0 L 172.0 193.0 L 171.0 200.0 L 171.0 206.0 L 170.0 211.0 L 170.0 216.0 L 169.0 220.0 L 169.0 224.0 L 169.0 228.0 L 169.0 232.0 L 169.0 235.0 L 169.0 237.0 L 169.0 240.0 L 170.0 242.0 L 170.0 244.0 L 171.0 245.0 L 172.0 246.0 L 173.0 247.0 L 175.0 248.0 L 176.0 248.0 L 177.0 249.0 L 179.0 250.0 L 180.0 250.0 L 181.0 251.0 L 183.0 252.0 L 184.0 252.0 L 186.0 253.0 L 188.0 253.0 L 190.0 254.0 L 192.0 254.0 L 195.0 254.0 L 198.0 254.0 L 202.0 254.0 L 208.0 254.0 L 213.0 253.0 L 219.0 253.0 L 226.0 252.0 L 230.0 251.0 L 235.0 251.0 L 237.0 250.0 L 239.0 250.0 L 240.0 249.0 L 241.0 248.0 L 241.0 247.0 L 242.0 246.0 L 242.0 245.0 L 242.0 244.0 L 242.0 242.0 L 242.0 240.0 L 242.0 238.0 L 242.0 235.0 L 242.0 231.0 L 242.0 225.0 L 242.0 219.0 L 243.0 213.0 L 244.0 207.0 " stroke="black" fill="none" stroke-width="5.0" stroke-linecap="round" stroke-linejoin="round" />
</svg>