<svg xmlns="http://www.w3.org/2000/svg" width="300" height="300" viewBox="0 0 300 300">
<path d="M 100.0 75.0 L 100.0 75.0 L 100.0 75.0 L 100.0 74.0 L 100.0 74.0 L 100.0 74.0 L 100.0 73.0 L 100.0 73.0 L 100.0 73.0 L 100.0 73.0 L 100.0 73.0 L 100.0 73.0 L 100.0 73.0 L 100.0 74.0 L 99.0 76.0 L 98.0 79.0 L 96.0 83.0 L 94.0 87.0 L 91.0 93.0 L 88.0 100.0 L 85.0 107.0 L 82.0 113.0 L 78.0 120.0 L 75.0 126.0 L 72.0 132.0 L 68.0 139.0 L 65.0 146.0 L 62.0 153.0 L 58.0 159.0 L 55.0 163.0 L 52.0 167.0 L 48.0 170.0 L 45.0 171.0 " stroke="black" fill="none" stroke-width="5.0" stroke-linecap="round" stroke-linejoin="round" />
<path d="M 78.0 123.0 L 78.0 123.0 L 78.0 123.0 L 77.0 123.0 L 77.0 124.0 L 76.0 124.0 L 76.0 125.0 L 76.0 127.0 L 76.0 130.0 L 77.0 134.0 L 77.0 139.0 L 78.0 145.0 L 78.0 151.0 L 78.0 159.0 L 78.0 166.0 L 78.0 175.0 L 78.0 187.0 L 78.0 197.0 L 78.0 208.0 L 77.0 218.0 L 77.0 228.0 L 77.0 237.0 L 77.0 245.0 L 77.0 251.0 L 77.0 255.0 L 77.0 259.0 L 77.0 260.0 " stroke="black" fill="none" stroke-width="5.0" stroke-linecap="round" stroke-linejoin="round" />
<path d="M 118.0 82.0 L 118.0 82.0 L 117.0 81.0 L 117.0 81.0 L 116.0 80.0 L 116.0 80.0 L 116.0 80.0 L 116.0 80.0 L 116.0 82.0 L 117.0 83.0 L 118.0 86.0 L 119.0 89.0 L 120.0 93.0 L 120.0 96.0 L 121.0 100.0 L 121.0 104.0 L 121.0 106.0 L 122.0 108.0 L 122.0 109.0 " stroke="black" fill="none" stroke-width="5.0" stroke-linecap="round" stroke-linejoin="round" />
<path d="M 120.0 81.0 L 119.0 81.0 L 118.0 81.0 L 117.0 80.0 L 117.0 80.0 L 117.0 80.0 L 117.0 80.0 L 117.0 80.0 L 119.0 80.0 L 122.0 80.0 L 125.0 80.0 L 129.0 80.0 L 133.0 80.0 L 138.0 80.0 L 143.0 80.0 L 147.0 80.0 L 151.0 80.0 L 154.0 80.0 L 157.0 80.0 L 159.0 81.0 L 160.0 83.0 L 161.0 84.0 L 161.0 85.0 L 161.0 87.0 L 161.0 89.0 L 161.0 91.0 L 159.0 93.0 L 158.0 95.0 L 156.0 97.0 L 154.0 100.0 L 153.0 102.0 L 150.0 105.0 L 150.0 106.0 " stroke="black" fill="none" stroke-width="5.0" stroke-linecap="round" stroke-linejoin="round" />
<path d="M 128.0 117.0 L 126.0 117.0 L 124.0 117.0 L 123.0 117.0 L 122.0 116.0 L 121.0 116.0 L 120.0 115.0 L 120.0 115.0 L 120.0 114.0 L 121.0 114.0 L 122.0 114.0 L 124.0 113.0 L 127.0 113.0 L 131.0 113.0 L 136.0 113.0 L 140.0 113.0 L 145.0 112.0 L 149.0 111.0 L 154.0 110.0 L 160.0 109.0 L 167.0 108.0 L 171.0 107.0 " stroke="black" fill="none" stroke-width="5.0" stroke-linecap="round" stroke-linejoin="round" />
<path d="M 186.0 81.0 L 186.0 81.0 L 186.0 81.0 L 185.0 81.0 L 185.0 82.0 L 185.0 83.0 L 185.0 85.0 L 185.0 88.0 L 186.0 92.0 L 188.0 95.0 L 189.0 99.0 L 190.0 102.0 L 191.0 104.0 L 192.0 106.0 L 193.0 107.0 L 193.0 107.0 " stroke="black" fill="none" stroke-width="5.0" stroke-linecap="round" stroke-linejoin="round" />
<path d="M 189.0 80.0 L 189.0 80.0 L 189.0 80.0 L 189.0 80.0 L 189.0 80.0 L 189.0 79.0 L 188.0 79.0 L 188.0 79.0 L 188.0 79.0 L 188.0 79.0 L 189.0 79.0 L 189.0 79.0 L 191.0 79.0 L 193.0 79.0 L 196.0 79.0 L 199.0 79.0 L 204.0 78.0 L 209.0 78.0 L 215.0 78.0 L 221.0 78.0 L 225.0 78.0 L 229.0 78.0 L 231.0 78.0 L 233.0 79.0 L 233.0 80.0 L 233.0 81.0 L 233.0 83.0 L 233.0 84.0 L 232.0 86.0 L 232.0 88.0 L 231.0 90.0 L 231.0 91.0 L 231.0 93.0 L 231.0 95.0 L 231.0 96.0 L 230.0 98.0 L 230.0 99.0 " stroke="black" fill="none" stroke-width="5.0" stroke-linecap="round" stroke-linejoin="round" />
<path d="M 194.0 111.0 L 194.0 111.0 L 194.0 111.0 L 193.0 111.0 L 192.0 111.0 L 191.0 111.0 L 191.0 111.0 L 191.0 110.0 L 191.0 110.0 L 191.0 110.0 L 193.0 110.0 L 196.0 110.0 L 199.0 110.0 L 204.0 110.0 L 209.0 110.0 L 216.0 110.0 L 222.0 110.0 " stroke="black" fill="none" stroke-width="5.0" stroke-linecap="round" stroke-linejoin="round" />
<path d="M 118.0 129.0 L 118.0 129.0 L 118.0 129.0 L 118.0 129.0 L 118.0 129.0 L 118.0 129.0 L 118.0 129.0 L 118.0 129.0 L 117.0 129.0 L 117.0 129.0 L 117.0 129.0 L 117.0 129.0 L 117.0 129.0 L 118.0 129.0 L 118.0 129.0 L 120.0 129.0 L 121.0 129.0 L 123.0 129.0 L 125.0 129.0 L 127.0 129.0 L 129.0 129.0 L 131.0 129.0 L 133.0 129.0 L 134.0 129.0 L 136.0 129.0 L 138.0 129.0 L 139.0 129.0 L 141.0 129.0 L 142.0 129.0 L 143.0 129.0 L 144.0 129.0 L 146.0 129.0 L 147.0 129.0 L 147.0 129.0 L 148.0 129.0 L 149.0 129.0 L 150.0 128.0 L 151.0 128.0 L 151.0 128.0 L 152.0 128.0 L 153.0 128.0 L 153.0 128.0 L 154.0 128.0 L 155.0 128.0 L 156.0 128.0 L 157.0 128.0 L 158.0 128.0 L 159.0 128.0 L 160.0 128.0 L 161.0 128.0 L 162.0 128.0 L 164.0 128.0 L 165.0 128.0 L 167.0 128.0 L 168.0 128.0 L 170.0 128.0 L 172.0 128.0 L 173.0 128.0 L 176.0 128.0 L 178.0 128.0 L 180.0 128.0 L 182.0 128.0 L 184.0 128.0 L 185.0 128.0 L 187.0 128.0 L 189.0 128.0 L 190.0 128.0 L 192.0 128.0 L 194.0 128.0 L 196.0 129.0 L 198.0 129.0 L 200.0 129.0 L 203.0 129.0 L 207.0 129.0 L 211.0 129.0 L 215.0 129.0 L 220.0 129.0 L 224.0 129.0 L 228.0 129.0 L 231.0 129.0 L 234.0 129.0 " stroke="black" fill="none" stroke-width="5.0" stroke-linecap="round" stroke-linejoin="round" />
<path d="M 112.0 130.0 L 112.0 130.0 L 112.0 130.0 L 112.0 130.0 L 112.0 130.0 L 112.0 130.0 L 112.0 130.0 L 112.0 130.0 L 113.0 130.0 L 113.0 130.0 L 113.0 131.0 L 113.0 131.0 L 113.0 132.0 L 114.0 133.0 L 114.0 134.0 L 114.0 136.0 L 114.0 138.0 L 114.0 141.0 L 114.0 144.0 L 114.0 147.0 L 114.0 150.0 L 114.0 153.0 L 115.0 156.0 L 115.0 158.0 L 115.0 160.0 L 115.0 163.0 L 115.0 165.0 L 115.0 167.0 L 115.0 170.0 L 115.0 172.0 L 115.0 175.0 L 115.0 178.0 L 114.0 181.0 L 114.0 184.0 L 114.0 188.0 L 114.0 191.0 L 114.0 195.0 L 114.0 198.0 L 113.0 202.0 L 113.0 205.0 L 112.0 210.0 L 111.0 214.0 L 109.0 219.0 L 108.0 226.0 L 106.0 232.0 L 104.0 237.0 L 102.0 243.0 L 100.0 248.0 L 97.0 253.0 L 95.0 257.0 L 93.0 259.0 L 92.0 260.0 L 92.0 260.0 " stroke="black" fill="none" stroke-width="5.0" stroke-linecap="round" stroke-linejoin="round" />
<path d="M 139.0 149.0 L 139.0 149.0 L 139.0 149.0 L 138.0 148.0 L 138.0 148.0 L 138.0 148.0 L 138.0 148.0 L 138.0 148.0 L 139.0 148.0 L 141.0 148.0 L 144.0 148.0 L 147.0 148.0 L 150.0 148.0 L 155.0 148.0 L 160.0 148.0 L 165.0 148.0 L 170.0 148.0 L 173.0 148.0 L 176.0 148.0 L 177.0 148.0 L 177.0 148.0 L 177.0 148.0 L 174.0 149.0 " stroke="black" fill="none" stroke-width="5.0" stroke-linecap="round" stroke-linejoin="round" />
<path d="M 160.0 149.0 L 159.0 149.0 L 158.0 149.0 L 158.0 149.0 L 157.0 149.0 L 156.0 149.0 L 156.0 151.0 L 155.0 153.0 L 155.0 155.0 L 154.0 158.0 L 154.0 162.0 L 154.0 165.0 L 154.0 168.0 L 154.0 170.0 L 154.0 171.0 " stroke="black" fill="none" stroke-width="5.0" stroke-linecap="round" stroke-linejoin="round" />
<path d="M 130.0 172.0 L 128.0 172.0 L 126.0 171.0 L 124.0 171.0 L 123.0 171.0 L 122.0 171.0 L 121.0 171.0 L 121.0 171.0 L 121.0 171.0 L 122.0 171.0 L 123.0 171.0 L 126.0 171.0 L 130.0 171.0 L 134.0 170.0 L 140.0 170.0 L 145.0 169.0 L 150.0 169.0 L 155.0 168.0 L 160.0 168.0 L 164.0 168.0 L 169.0 168.0 L 173.0 168.0 L 177.0 168.0 L 181.0 168.0 L 183.0 168.0 L 184.0 168.0 " stroke="black" fill="none" stroke-width="5.0" stroke-linecap="round" stroke-linejoin="round" />
<path d="M 146.0 178.0 L 146.0 178.0 L 145.0 178.0 L 144.0 178.0 L 144.0 178.0 L 143.0 178.0 L 143.0 178.0 L 143.0 179.0 L 142.0 181.0 L 142.0 184.0 L 142.0 188.0 L 142.0 193.0 L 142.0 199.0 L 142.0 205.0 L 141.0 212.0 L 141.0 219.0 L 140.0 225.0 L 140.0 228.0 L 139.0 235.0 L 140.0 236.0 L 141.0 236.0 " stroke="black" fill="none" stroke-width="5.0" stroke-linecap="round" stroke-linejoin="round" />
<path d="M 179.0 171.0 L 179.0 171.0 L 179.0 171.0 L 178.0 171.0 L 178.0 172.0 L 177.0 172.0 L 177.0 173.0 L 177.0 174.0 L 177.0 175.0 L 177.0 177.0 L 177.0 180.0 L 178.0 184.0 L 179.0 188.0 L 179.0 194.0 L 179.0 201.0 L 179.0 209.0 L 178.0 217.0 L 177.0 226.0 L 176.0 233.0 L 175.0 239.0 L 175.0 243.0 L 175.0 246.0 L 175.0 248.0 L 175.0 249.0 L 175.0 249.0 L 176.0 249.0 L 176.0 249.0 " stroke="black" fill="none" stroke-width="5.0" stroke-linecap="round" stroke-linejoin="round" />
<path d="M 147.0 195.0 L 147.0 195.0 L 146.0 194.0 L 145.0 194.0 L 145.0 194.0 L 144.0 194.0 L 144.0 194.0 L 144.0 194.0 L 144.0 194.0 L 145.0 194.0 L 146.0 194.0 L 148.0 194.0 L 151.0 194.0 L 155.0 194.0 L 159.0 194.0 L 164.0 194.0 L 169.0 194.0 " stroke="black" fill="none" stroke-width="5.0" stroke-linecap="round" stroke-linejoin="round" />
<path d="M 145.0 214.0 L 145.0 214.0 L 145.0 214.0 L 144.0 214.0 L 144.0 214.0 L 144.0 214.0 L 144.0 214.0 L 144.0 214.0 L 145.0 214.0 L 147.0 214.0 L 149.0 214.0 L 152.0 213.0 L 156.0 213.0 L 161.0 213.0 L 164.0 213.0 " stroke="black" fill="none" stroke-width="5.0" stroke-linecap="round" stroke-linejoin="round" />
<path d="M 129.0 243.0 L 128.0 243.0 L 127.0 244.0 L 127.0 244.0 L 126.0 244.0 L 127.0 244.0 L 129.0 244.0 L 132.0 244.0 L 137.0 243.0 L 142.0 241.0 L 147.0 239.0 L 153.0 236.0 L 162.0 231.0 L 173.0 225.0 L 178.0 221.0 " stroke="black" fill="none" stroke-width="5.0" stroke-linecap="round" stroke-linejoin="round" />
<path d="M 203.0 149.0 L 203.0 149.0 L 203.0 149.0 L 203.0 149.0 L 203.0 149.0 L 203.0 149.0 L 203.0 149.0 L 204.0 149.0 L 204.0 150.0 L 204.0 152.0 L 204.0 155.0 L 202.0 159.0 L 200.0 165.0 L 197.0 172.0 L 195.0 179.0 L 192.0 186.0 L 190.0 192.0 L 189.0 195.0 L 188.0 196.0 L 188.0 196.0 L 188.0 196.0 " stroke="black" fill="none" stroke-width="5.0" stroke-linecap="round" stroke-linejoin="round" />
<path d="M 200.0 170.0 L 200.0 170.0 L 200.0 170.0 L 199.0 170.0 " stroke="black" fill="none" stroke-width="5.0" stroke-linecap="round" stroke-linejoin="round" />
<path d="M 211.0 170.0 L 216.0 170.0 L 221.0 170.0 L 226.0 170.0 L 232.0 170.0 L 236.0 169.0 L 239.0 169.0 L 242.0 168.0 L 244.0 168.0 L 245.0 168.0 L 246.0 168.0 L 246.0 169.0 " stroke="black" fill="none" stroke-width="5.0" stroke-linecap="round" stroke-linejoin="round" />
<path d="M 232.0 176.0 L 231.0 176.0 L 231.0 177.0 L 230.0 177.0 L 229.0 178.0 L 229.0 179.0 L 229.0 181.0 L 229.0 182.0 L 229.0 185.0 L 228.0 188.0 L 228.0 191.0 L 227.0 195.0 L 226.0 200.0 L 224.0 204.0 L 221.0 210.0 L 217.0 216.0 L 213.0 222.0 L 208.0 229.0 L 203.0 236.0 L 199.0 240.0 L 195.0 245.0 L 192.0 248.0 L 189.0 250.0 L 187.0 252.0 L 185.0 253.0 L 185.0 253.0 L 185.0 252.0 " stroke="black" fill="none" stroke-width="5.0" stroke-linecap="round" stroke-linejoin="round" />
<path d="M 196.0 194.0 L 196.0 194.0 L 196.0 193.0 L 196.0 192.0 L 196.0 191.0 L 196.0 191.0 L 196.0 190.0 L 196.0 190.0 L 196.0 190.0 L 196.0 190.0 L 196.0 190.0 L 197.0 190.0 L 198.0 191.0 L 200.0 193.0 L 201.0 195.0 L 204.0 198.0 L 207.0 201.0 L 210.0 206.0 L 214.0 211.0 L 218.0 218.0 L 223.0 225.0 L 227.0 232.0 L 231.0 237.0 L 234.0 241.0 L 236.0 243.0 L 238.0 244.0 L 240.0 244.0 L 242.0 244.0 L 243.0 244.0 L 243.0 243.0 L 244.0 242.0 " stroke="black" fill="none" stroke-width="5.0" stroke-linecap="round" stroke-linejoin="round" />
<path d="M 200.0 168.0 L 200.0 168.0 L 200.0 168.0 L 199.0 168.0 L 199.0 168.0 L 199.0 168.0 L 199.0 168.0 L 199.0 168.0 L 200.0 168.0 L 203.0 168.0 L 207.0 168.0 L 211.0 168.0 L 216.0 168.0 L 222.0 168.0 L 227.0 168.0 " stroke="black" fill="none" stroke-width="5.0" stroke-linecap="round" stroke-linejoin="round" />
</svg>