<svg xmlns="http://www.w3.org/2000/svg" width="300" height="300" viewBox="0 0 300 300">
<path d="M 108.0 82.0 L 108.0 82.0 L 107.0 82.0 L 107.0 82.0 L 106.0 82.0 L 105.0 82.0 L 105.0 82.0 L 105.0 82.0 L 104.0 82.0 L 104.0 82.0 L 104.0 82.0 L 104.0 82.0 L 104.0 82.0 L 104.0 82.0 L 104.0 82.0 L 105.0 82.0 L 105.0 82.0 L 107.0 82.0 L 108.0 82.0 L 109.0 82.0 L 111.0 82.0 L 113.0 82.0 L 116.0 82.0 L 119.0 82.0 L 123.0 82.0 L 127.0 82.0 L 131.0 81.0 L 135.0 81.0 L 139.0 81.0 L 142.0 81.0 L 144.0 81.0 L 146.0 81.0 L 147.0 81.0 L 148.0 81.0 L 149.0 81.0 L 150.0 82.0 L 151.0 82.0 L 151.0 82.0 L 152.0 82.0 L 152.0 82.0 L 152.0 82.0 L 153.0 82.0 L 153.0 82.0 L 153.0 82.0 L 153.0 82.0 L 153.0 82.0 L 153.0 82.0 L 154.0 82.0 L 154.0 82.0 L 154.0 82.0 L 154.0 82.0 L 154.0 82.0 L 154.0 82.0 L 154.0 82.0 L 154.0 82.0 L 154.0 82.0 L 154.0 83.0 L 154.0 83.0 L 154.0 83.0 L 154.0 83.0 L 154.0 83.0 L 154.0 84.0 L 154.0 84.0 L 154.0 84.0 L 154.0 85.0 L 154.0 85.0 L 154.0 86.0 L 155.0 87.0 L 155.0 88.0 L 155.0 89.0 L 156.0 91.0 L 156.0 92.0 L 157.0 93.0 L 158.0 95.0 L 159.0 96.0 L 160.0 98.0 L 161.0 99.0 L 162.0 101.0 L 163.0 102.0 L 164.0 103.0 L 166.0 104.0 L 167.0 105.0 L 168.0 106.0 L 170.0 107.0 L 171.0 108.0 L 172.0 109.0 L 174.0 110.0 L 175.0 111.0 L 176.0 112.0 L 178.0 113.0 L 179.0 114.0 L 181.0 114.0 L 182.0 116.0 L 183.0 117.0 L 185.0 118.0 L 186.0 119.0 L 188.0 120.0 L 189.0 121.0 L 190.0 122.0 L 192.0 123.0 L 193.0 123.0 L 194.0 125.0 L 195.0 125.0 L 196.0 126.0 L 197.0 127.0 L 198.0 128.0 L 200.0 129.0 L 201.0 130.0 L 203.0 131.0 L 206.0 132.0 L 209.0 132.0 L 212.0 133.0 L 216.0 134.0 L 220.0 134.0 L 224.0 135.0 L 227.0 135.0 L 230.0 136.0 L 231.0 137.0 L 231.0 138.0 L 231.0 139.0 L 230.0 141.0 " stroke="black" fill="none" stroke-width="5.0" stroke-linecap="round" stroke-linejoin="round" />
<path d="M 146.0 83.0 L 146.0 83.0 L 146.0 83.0 L 147.0 83.0 L 147.0 82.0 L 147.0 82.0 L 148.0 82.0 L 148.0 82.0 L 148.0 82.0 L 148.0 82.0 L 148.0 83.0 L 147.0 84.0 L 146.0 86.0 L 144.0 89.0 L 140.0 93.0 L 136.0 98.0 L 130.0 103.0 L 124.0 109.0 L 117.0 115.0 L 110.0 120.0 L 104.0 125.0 L 98.0 130.0 L 91.0 135.0 L 83.0 139.0 L 75.0 143.0 L 70.0 146.0 L 67.0 148.0 L 66.0 149.0 " stroke="black" fill="none" stroke-width="5.0" stroke-linecap="round" stroke-linejoin="round" />
<path d="M 124.0 153.0 L 124.0 153.0 L 123.0 153.0 L 122.0 153.0 L 121.0 153.0 L 121.0 153.0 " stroke="black" fill="none" stroke-width="5.0" stroke-linecap="round" stroke-linejoin="round" />
<path d="M 114.0 152.0 L 114.0 152.0 L 112.0 152.0 L 111.0 152.0 L 110.0 152.0 L 109.0 152.0 L 108.0 152.0 L 108.0 152.0 L 108.0 151.0 L 108.0 151.0 L 108.0 151.0 L 108.0 151.0 L 110.0 151.0 L 112.0 151.0 L 115.0 151.0 L 119.0 151.0 L 125.0 151.0 L 133.0 152.0 L 141.0 152.0 L 150.0 152.0 L 160.0 152.0 L 169.0 152.0 L 178.0 152.0 L 187.0 152.0 L 192.0 152.0 L 196.0 152.0 L 199.0 152.0 L 200.0 152.0 L 201.0 153.0 L 202.0 154.0 " stroke="black" fill="none" stroke-width="5.0" stroke-linecap="round" stroke-linejoin="round" />
<path d="M 105.0 198.0 L 105.0 198.0 L 103.0 198.0 L 103.0 198.0 L 102.0 198.0 L 101.0 198.0 L 101.0 198.0 L 100.0 198.0 L 100.0 198.0 L 100.0 199.0 L 102.0 199.0 L 104.0 200.0 L 107.0 200.0 L 111.0 200.0 L 117.0 200.0 L 125.0 200.0 L 134.0 200.0 L 145.0 200.0 L 155.0 199.0 L 165.0 198.0 L 175.0 198.0 L 184.0 197.0 L 191.0 196.0 L 194.0 196.0 L 196.0 196.0 L 197.0 196.0 L 197.0 197.0 L 197.0 198.0 " stroke="black" fill="none" stroke-width="5.0" stroke-linecap="round" stroke-linejoin="round" />
<path d="M 152.0 161.0 L 152.0 160.0 L 152.0 159.0 L 151.0 158.0 L 151.0 157.0 L 151.0 157.0 L 151.0 157.0 L 151.0 158.0 L 151.0 161.0 L 152.0 165.0 L 152.0 170.0 L 152.0 176.0 L 152.0 183.0 L 151.0 192.0 L 151.0 202.0 L 150.0 212.0 L 149.0 222.0 L 149.0 230.0 L 149.0 237.0 L 149.0 241.0 L 149.0 243.0 L 150.0 245.0 L 150.0 245.0 " stroke="black" fill="none" stroke-width="5.0" stroke-linecap="round" stroke-linejoin="round" />
<path d="M 69.0 247.0 L 69.0 247.0 L 68.0 247.0 L 68.0 247.0 L 68.0 247.0 L 68.0 247.0 L 68.0 247.0 L 71.0 247.0 L 76.0 247.0 L 83.0 246.0 L 91.0 245.0 L 101.0 244.0 L 111.0 243.0 L 123.0 242.0 L 137.0 241.0 L 150.0 241.0 L 160.0 240.0 L 171.0 240.0 L 181.0 240.0 L 190.0 240.0 L 198.0 241.0 L 206.0 241.0 L 214.0 241.0 L 222.0 241.0 L 229.0 241.0 L 234.0 241.0 L 237.0 241.0 " stroke="black" fill="none" stroke-width="5.0" stroke-linecap="round" stroke-linejoin="round" />
</svg>