<svg xmlns="http://www.w3.org/2000/svg" width="300" height="300" viewBox="0 0 300 300">
<path d="M 68.0 85.0 L 68.0 85.0 L 67.0 85.0 L 66.0 85.0 L 66.0 85.0 L 65.0 85.0 L 65.0 85.0 L 65.0 85.0 L 65.0 85.0 L 65.0 85.0 L 66.0 85.0 L 68.0 85.0 L 71.0 85.0 L 75.0 85.0 L 79.0 86.0 L 84.0 86.0 L 90.0 87.0 L 95.0 88.0 L 101.0 88.0 L 105.0 89.0 L 109.0 89.0 L 114.0 89.0 L 118.0 89.0 L 122.0 89.0 L 126.0 89.0 L 131.0 88.0 L 135.0 88.0 L 139.0 87.0 L 141.0 87.0 L 143.0 86.0 L 145.0 86.0 L 145.0 86.0 L 145.0 86.0 L 145.0 86.0 L 144.0 86.0 L 143.0 87.0 L 142.0 88.0 " stroke="black" fill="none" stroke-width="5.0" stroke-linecap="round" stroke-linejoin="round" />
<path d="M 106.0 94.0 L 106.0 94.0 L 106.0 94.0 L 105.0 94.0 L 105.0 94.0 L 105.0 94.0 L 105.0 94.0 L 105.0 94.0 L 104.0 94.0 L 104.0 95.0 L 104.0 97.0 L 103.0 99.0 L 103.0 103.0 L 102.0 107.0 L 100.0 111.0 L 100.0 114.0 L 97.0 122.0 L 94.0 128.0 L 91.0 134.0 L 88.0 141.0 L 85.0 147.0 L 81.0 153.0 L 77.0 159.0 L 74.0 164.0 L 71.0 169.0 L 68.0 174.0 L 66.0 178.0 L 65.0 182.0 L 64.0 185.0 L 63.0 187.0 " stroke="black" fill="none" stroke-width="5.0" stroke-linecap="round" stroke-linejoin="round" />
<path d="M 99.0 132.0 L 99.0 132.0 L 97.0 132.0 L 96.0 132.0 L 96.0 132.0 L 95.0 132.0 L 95.0 132.0 L 95.0 131.0 L 95.0 131.0 L 95.0 130.0 L 95.0 130.0 L 96.0 130.0 L 97.0 129.0 L 98.0 129.0 L 99.0 129.0 L 100.0 129.0 L 101.0 129.0 L 102.0 129.0 L 104.0 129.0 L 105.0 129.0 L 107.0 129.0 L 108.0 129.0 L 110.0 130.0 L 112.0 130.0 L 113.0 130.0 L 116.0 130.0 L 118.0 130.0 L 120.0 130.0 L 123.0 130.0 L 126.0 130.0 L 129.0 130.0 L 132.0 130.0 L 135.0 131.0 L 138.0 131.0 L 140.0 131.0 L 142.0 131.0 L 144.0 131.0 L 145.0 131.0 L 147.0 131.0 L 148.0 131.0 L 149.0 131.0 L 150.0 131.0 L 151.0 131.0 L 151.0 131.0 L 152.0 131.0 L 152.0 131.0 L 152.0 132.0 L 153.0 132.0 L 153.0 132.0 L 153.0 132.0 L 153.0 133.0 L 153.0 133.0 L 153.0 134.0 L 153.0 134.0 L 153.0 135.0 L 153.0 136.0 L 152.0 136.0 L 152.0 137.0 L 152.0 138.0 L 151.0 139.0 L 151.0 141.0 L 150.0 142.0 L 150.0 144.0 L 149.0 146.0 L 148.0 148.0 L 147.0 151.0 L 147.0 153.0 L 146.0 155.0 L 145.0 158.0 L 144.0 161.0 L 142.0 164.0 L 140.0 167.0 L 138.0 171.0 L 136.0 175.0 L 133.0 180.0 L 130.0 185.0 L 126.0 189.0 L 123.0 194.0 L 119.0 198.0 L 116.0 202.0 L 112.0 206.0 L 109.0 209.0 L 107.0 213.0 L 104.0 217.0 L 102.0 220.0 L 99.0 223.0 L 96.0 227.0 L 93.0 231.0 L 89.0 234.0 L 85.0 237.0 L 82.0 239.0 L 80.0 241.0 L 77.0 243.0 L 76.0 244.0 L 75.0 244.0 L 75.0 244.0 " stroke="black" fill="none" stroke-width="5.0" stroke-linecap="round" stroke-linejoin="round" />
<path d="M 84.0 162.0 L 84.0 161.0 L 83.0 161.0 L 82.0 160.0 L 82.0 160.0 L 81.0 159.0 L 80.0 159.0 L 80.0 158.0 L 80.0 158.0 L 80.0 158.0 L 80.0 158.0 L 81.0 158.0 L 83.0 158.0 L 85.0 159.0 L 86.0 160.0 L 91.0 163.0 L 95.0 165.0 L 99.0 168.0 L 103.0 170.0 L 107.0 173.0 L 111.0 175.0 L 114.0 178.0 L 117.0 180.0 L 120.0 182.0 L 121.0 184.0 L 123.0 185.0 L 123.0 186.0 L 124.0 186.0 " stroke="black" fill="none" stroke-width="5.0" stroke-linecap="round" stroke-linejoin="round" />
<path d="M 176.0 100.0 L 176.0 100.0 L 176.0 100.0 L 176.0 100.0 L 176.0 99.0 L 177.0 99.0 L 177.0 99.0 L 177.0 99.0 L 177.0 98.0 L 177.0 98.0 L 177.0 98.0 L 177.0 98.0 L 177.0 99.0 L 177.0 100.0 L 177.0 102.0 L 177.0 105.0 L 178.0 109.0 L 178.0 114.0 L 178.0 120.0 L 179.0 127.0 L 179.0 135.0 L 179.0 144.0 L 179.0 153.0 L 179.0 160.0 L 179.0 167.0 L 179.0 173.0 L 179.0 178.0 L 180.0 184.0 L 181.0 189.0 L 182.0 192.0 L 182.0 195.0 L 183.0 196.0 L 183.0 197.0 L 183.0 198.0 L 183.0 198.0 L 183.0 197.0 " stroke="black" fill="none" stroke-width="5.0" stroke-linecap="round" stroke-linejoin="round" />
<path d="M 232.0 80.0 L 232.0 80.0 L 232.0 79.0 L 231.0 79.0 L 231.0 78.0 L 231.0 78.0 L 231.0 78.0 L 231.0 78.0 L 231.0 78.0 L 231.0 78.0 L 231.0 78.0 L 231.0 78.0 L 231.0 79.0 L 231.0 81.0 L 231.0 82.0 L 231.0 84.0 L 231.0 86.0 L 231.0 89.0 L 231.0 93.0 L 231.0 97.0 L 231.0 102.0 L 231.0 107.0 L 231.0 112.0 L 231.0 117.0 L 231.0 120.0 L 231.0 124.0 L 231.0 128.0 L 231.0 131.0 L 231.0 134.0 L 231.0 138.0 L 231.0 141.0 L 231.0 146.0 L 231.0 149.0 L 232.0 153.0 L 232.0 156.0 L 232.0 159.0 L 232.0 161.0 L 232.0 164.0 L 232.0 167.0 L 232.0 169.0 L 232.0 172.0 L 232.0 175.0 L 232.0 178.0 L 232.0 181.0 L 232.0 184.0 L 232.0 188.0 L 232.0 191.0 L 232.0 194.0 L 232.0 196.0 L 232.0 199.0 L 232.0 201.0 L 232.0 203.0 L 232.0 206.0 L 232.0 208.0 L 232.0 210.0 L 232.0 212.0 L 232.0 214.0 L 232.0 217.0 L 232.0 219.0 L 232.0 222.0 L 232.0 224.0 L 232.0 227.0 L 231.0 229.0 L 231.0 232.0 L 231.0 234.0 L 231.0 236.0 L 231.0 238.0 L 231.0 240.0 L 231.0 242.0 L 230.0 243.0 L 230.0 245.0 L 230.0 246.0 L 230.0 247.0 L 230.0 248.0 L 230.0 248.0 L 230.0 249.0 L 230.0 250.0 L 229.0 250.0 L 229.0 251.0 L 229.0 251.0 L 229.0 251.0 L 228.0 252.0 L 228.0 252.0 L 227.0 253.0 L 227.0 253.0 L 227.0 253.0 L 227.0 253.0 L 226.0 253.0 L 226.0 253.0 L 226.0 253.0 L 225.0 253.0 L 225.0 254.0 L 224.0 254.0 L 223.0 254.0 L 223.0 254.0 L 223.0 254.0 L 222.0 254.0 L 221.0 254.0 L 221.0 254.0 L 220.0 254.0 L 219.0 254.0 L 218.0 254.0 L 217.0 254.0 L 216.0 254.0 L 214.0 254.0 L 213.0 253.0 L 211.0 253.0 L 210.0 253.0 L 208.0 252.0 L 206.0 252.0 L 204.0 252.0 L 202.0 252.0 L 200.0 252.0 L 198.0 252.0 L 196.0 252.0 L 194.0 252.0 L 192.0 252.0 L 190.0 252.0 L 189.0 252.0 L 187.0 252.0 L 186.0 253.0 L 185.0 253.0 L 185.0 253.0 " stroke="black" fill="none" stroke-width="5.0" stroke-linecap="round" stroke-linejoin="round" />
</svg>