<svg xmlns="http://www.w3.org/2000/svg" width="300" height="300" viewBox="0 0 300 300">
<path d="M 66.0 88.0 L 66.0 88.0 L 66.0 88.0 L 66.0 88.0 L 66.0 88.0 L 65.0 88.0 L 65.0 88.0 L 65.0 88.0 L 65.0 88.0 L 65.0 88.0 L 65.0 88.0 L 65.0 88.0 L 65.0 88.0 L 65.0 88.0 L 65.0 88.0 L 65.0 88.0 L 65.0 88.0 L 65.0 88.0 L 65.0 89.0 L 66.0 89.0 L 66.0 89.0 L 67.0 89.0 L 68.0 89.0 L 68.0 89.0 L 69.0 89.0 L 70.0 89.0 L 70.0 89.0 L 71.0 89.0 L 72.0 89.0 L 73.0 89.0 L 73.0 89.0 L 74.0 89.0 L 75.0 89.0 L 76.0 89.0 L 76.0 89.0 L 77.0 89.0 L 78.0 89.0 L 78.0 89.0 L 79.0 89.0 L 80.0 89.0 L 80.0 89.0 L 81.0 89.0 L 82.0 89.0 L 82.0 89.0 L 83.0 89.0 L 84.0 89.0 L 84.0 89.0 L 85.0 89.0 L 86.0 89.0 L 87.0 89.0 L 88.0 89.0 L 89.0 89.0 L 89.0 89.0 L 90.0 89.0 L 91.0 89.0 L 92.0 89.0 L 93.0 89.0 L 94.0 89.0 L 96.0 89.0 L 97.0 89.0 L 98.0 89.0 L 99.0 89.0 L 100.0 89.0 L 100.0 89.0 L 101.0 89.0 L 102.0 89.0 L 103.0 89.0 L 103.0 89.0 L 104.0 89.0 L 104.0 89.0 L 105.0 89.0 L 105.0 89.0 L 106.0 89.0 L 106.0 89.0 L 107.0 89.0 L 107.0 89.0 L 107.0 89.0 L 108.0 89.0 L 108.0 89.0 L 109.0 89.0 L 109.0 89.0 L 110.0 89.0 L 110.0 89.0 L 111.0 89.0 L 111.0 89.0 L 112.0 89.0 L 112.0 89.0 L 113.0 89.0 L 114.0 89.0 L 114.0 89.0 L 115.0 89.0 L 115.0 89.0 L 116.0 89.0 L 116.0 89.0 L 117.0 89.0 L 118.0 89.0 L 118.0 89.0 L 119.0 89.0 L 119.0 89.0 L 120.0 89.0 L 121.0 89.0 L 122.0 89.0 L 122.0 89.0 L 123.0 89.0 L 124.0 89.0 L 125.0 90.0 L 126.0 90.0 L 127.0 90.0 L 128.0 90.0 L 128.0 90.0 L 129.0 90.0 L 130.0 90.0 L 131.0 90.0 L 132.0 90.0 L 132.0 90.0 L 133.0 90.0 L 133.0 90.0 L 134.0 90.0 L 134.0 90.0 L 135.0 90.0 L 135.0 90.0 L 136.0 90.0 L 136.0 90.0 L 137.0 90.0 L 137.0 90.0 L 138.0 90.0 L 138.0 90.0 L 139.0 90.0 L 139.0 90.0 L 140.0 90.0 L 140.0 90.0 L 141.0 91.0 L 141.0 91.0 L 141.0 91.0 L 141.0 91.0 L 142.0 91.0 L 142.0 91.0 L 142.0 92.0 L 142.0 92.0 L 143.0 92.0 L 143.0 93.0 L 143.0 93.0 L 143.0 94.0 L 143.0 95.0 L 143.0 95.0 L 143.0 96.0 L 143.0 97.0 L 143.0 99.0 L 143.0 100.0 L 143.0 102.0 L 143.0 103.0 L 143.0 105.0 L 143.0 107.0 L 143.0 108.0 L 143.0 110.0 L 143.0 111.0 L 143.0 113.0 L 143.0 115.0 L 143.0 116.0 L 143.0 117.0 L 143.0 119.0 L 143.0 120.0 L 143.0 121.0 L 143.0 122.0 L 143.0 123.0 L 143.0 124.0 L 143.0 126.0 L 143.0 127.0 L 143.0 128.0 L 143.0 129.0 L 143.0 130.0 L 143.0 131.0 L 143.0 132.0 L 142.0 133.0 L 142.0 134.0 L 142.0 135.0 L 142.0 136.0 L 142.0 137.0 L 141.0 138.0 L 141.0 139.0 L 141.0 140.0 L 141.0 141.0 L 140.0 142.0 L 140.0 143.0 L 140.0 144.0 L 139.0 145.0 L 139.0 146.0 L 138.0 147.0 L 138.0 147.0 L 137.0 148.0 L 137.0 149.0 L 136.0 150.0 L 136.0 151.0 L 135.0 151.0 L 135.0 152.0 L 134.0 152.0 L 134.0 152.0 L 133.0 152.0 L 133.0 152.0 L 132.0 153.0 L 132.0 153.0 L 131.0 153.0 L 130.0 153.0 L 129.0 153.0 L 128.0 153.0 L 126.0 153.0 L 125.0 152.0 L 123.0 152.0 L 120.0 152.0 L 118.0 151.0 L 115.0 151.0 L 112.0 150.0 L 109.0 149.0 L 108.0 149.0 " stroke="black" fill="none" stroke-width="5.0" stroke-linecap="round" stroke-linejoin="round" />
<path d="M 100.0 100.0 L 100.0 100.0 L 100.0 99.0 L 101.0 99.0 L 101.0 98.0 L 101.0 98.0 L 101.0 98.0 L 101.0 98.0 L 101.0 98.0 L 101.0 98.0 L 101.0 99.0 L 101.0 100.0 L 101.0 102.0 L 100.0 104.0 L 100.0 107.0 L 99.0 110.0 L 97.0 114.0 L 95.0 118.0 L 93.0 123.0 L 89.0 128.0 L 85.0 133.0 L 79.0 139.0 L 74.0 144.0 L 69.0 149.0 L 64.0 154.0 L 61.0 157.0 L 58.0 160.0 L 55.0 162.0 " stroke="black" fill="none" stroke-width="5.0" stroke-linecap="round" stroke-linejoin="round" />
<path d="M 74.0 174.0 L 74.0 174.0 L 74.0 174.0 L 73.0 174.0 L 73.0 174.0 L 73.0 174.0 L 73.0 174.0 L 73.0 174.0 L 73.0 174.0 L 73.0 175.0 L 73.0 176.0 L 73.0 178.0 L 73.0 181.0 L 73.0 185.0 L 73.0 189.0 L 73.0 195.0 L 72.0 201.0 L 71.0 208.0 L 70.0 215.0 L 69.0 223.0 L 68.0 230.0 L 68.0 236.0 L 68.0 240.0 L 68.0 243.0 L 68.0 244.0 L 68.0 244.0 " stroke="black" fill="none" stroke-width="5.0" stroke-linecap="round" stroke-linejoin="round" />
<path d="M 83.0 171.0 L 83.0 171.0 L 82.0 171.0 L 82.0 171.0 L 81.0 171.0 L 80.0 171.0 L 80.0 171.0 L 80.0 171.0 L 80.0 171.0 L 79.0 171.0 L 79.0 171.0 L 79.0 171.0 L 79.0 171.0 L 80.0 171.0 L 80.0 171.0 L 81.0 171.0 L 81.0 171.0 L 82.0 171.0 L 83.0 171.0 L 85.0 171.0 L 86.0 171.0 L 88.0 171.0 L 89.0 171.0 L 91.0 171.0 L 93.0 171.0 L 95.0 171.0 L 97.0 171.0 L 99.0 171.0 L 101.0 171.0 L 103.0 171.0 L 105.0 171.0 L 107.0 171.0 L 108.0 171.0 L 110.0 171.0 L 111.0 171.0 L 113.0 171.0 L 114.0 171.0 L 116.0 171.0 L 117.0 171.0 L 118.0 171.0 L 119.0 171.0 L 121.0 171.0 L 122.0 171.0 L 123.0 171.0 L 125.0 171.0 L 126.0 172.0 L 127.0 172.0 L 128.0 172.0 L 129.0 172.0 L 130.0 172.0 L 131.0 173.0 L 132.0 173.0 L 133.0 173.0 L 133.0 173.0 L 134.0 173.0 L 134.0 174.0 L 135.0 174.0 L 135.0 175.0 L 135.0 175.0 L 136.0 176.0 L 136.0 177.0 L 136.0 179.0 L 136.0 181.0 L 136.0 183.0 L 136.0 186.0 L 136.0 190.0 L 136.0 194.0 L 135.0 198.0 L 135.0 202.0 L 135.0 206.0 L 135.0 210.0 L 135.0 213.0 L 134.0 215.0 L 134.0 218.0 L 134.0 219.0 L 133.0 221.0 L 133.0 223.0 L 132.0 225.0 L 131.0 227.0 L 130.0 228.0 L 128.0 229.0 L 127.0 229.0 " stroke="black" fill="none" stroke-width="5.0" stroke-linecap="round" stroke-linejoin="round" />
<path d="M 70.0 238.0 L 70.0 238.0 L 69.0 238.0 L 68.0 238.0 L 68.0 238.0 L 68.0 237.0 L 67.0 237.0 L 67.0 237.0 L 67.0 237.0 L 68.0 237.0 L 69.0 237.0 L 71.0 237.0 L 74.0 237.0 L 79.0 237.0 L 84.0 237.0 L 91.0 236.0 L 97.0 236.0 L 104.0 235.0 L 110.0 235.0 L 114.0 234.0 L 119.0 234.0 L 123.0 233.0 L 126.0 233.0 L 130.0 232.0 L 132.0 232.0 L 133.0 232.0 " stroke="black" fill="none" stroke-width="5.0" stroke-linecap="round" stroke-linejoin="round" />
<path d="M 159.0 120.0 L 159.0 120.0 L 159.0 120.0 L 159.0 120.0 L 159.0 120.0 L 159.0 120.0 L 158.0 120.0 L 158.0 120.0 L 158.0 120.0 L 158.0 120.0 L 158.0 120.0 L 159.0 120.0 L 160.0 120.0 L 161.0 120.0 L 162.0 120.0 L 164.0 120.0 L 166.0 120.0 L 168.0 120.0 L 169.0 120.0 L 171.0 120.0 L 173.0 120.0 L 175.0 120.0 L 176.0 120.0 L 177.0 120.0 L 179.0 120.0 L 180.0 120.0 L 182.0 120.0 L 183.0 120.0 L 184.0 120.0 L 186.0 120.0 L 187.0 120.0 L 188.0 120.0 L 190.0 120.0 L 191.0 120.0 L 192.0 120.0 L 193.0 120.0 L 194.0 120.0 L 195.0 120.0 L 196.0 120.0 L 197.0 120.0 L 198.0 120.0 L 199.0 120.0 L 200.0 120.0 L 201.0 120.0 L 203.0 120.0 L 204.0 120.0 L 205.0 120.0 L 206.0 120.0 L 207.0 120.0 L 208.0 120.0 L 210.0 120.0 L 211.0 120.0 L 212.0 120.0 L 213.0 120.0 L 215.0 120.0 L 216.0 120.0 L 217.0 120.0 L 218.0 120.0 L 219.0 120.0 L 220.0 120.0 L 221.0 120.0 L 222.0 120.0 L 223.0 120.0 L 224.0 120.0 L 225.0 120.0 L 226.0 120.0 L 227.0 120.0 L 228.0 119.0 L 229.0 119.0 L 229.0 119.0 L 230.0 119.0 L 231.0 119.0 L 232.0 119.0 L 232.0 119.0 L 233.0 119.0 L 233.0 119.0 L 234.0 119.0 L 234.0 119.0 L 235.0 119.0 L 235.0 119.0 L 236.0 119.0 L 236.0 119.0 L 236.0 119.0 L 237.0 119.0 L 237.0 119.0 L 237.0 119.0 L 237.0 119.0 L 237.0 120.0 L 237.0 120.0 L 237.0 120.0 L 237.0 121.0 L 237.0 121.0 L 237.0 122.0 L 237.0 123.0 L 237.0 124.0 L 237.0 126.0 L 237.0 127.0 L 237.0 129.0 L 237.0 132.0 L 237.0 134.0 L 237.0 137.0 L 237.0 140.0 L 237.0 143.0 L 237.0 145.0 L 237.0 148.0 L 237.0 149.0 L 237.0 151.0 L 237.0 153.0 L 237.0 154.0 L 237.0 156.0 L 237.0 158.0 L 237.0 159.0 L 237.0 161.0 L 237.0 163.0 L 237.0 165.0 L 237.0 166.0 L 237.0 168.0 L 237.0 169.0 L 237.0 171.0 L 237.0 173.0 L 237.0 174.0 L 237.0 176.0 L 237.0 178.0 L 237.0 180.0 L 236.0 182.0 L 236.0 185.0 L 236.0 187.0 L 235.0 189.0 L 235.0 191.0 L 235.0 193.0 L 235.0 195.0 L 234.0 197.0 L 234.0 198.0 L 234.0 200.0 L 234.0 202.0 L 233.0 203.0 L 233.0 205.0 L 233.0 206.0 L 232.0 208.0 L 232.0 209.0 L 232.0 211.0 L 232.0 213.0 L 232.0 214.0 L 231.0 216.0 L 231.0 217.0 L 231.0 219.0 L 231.0 220.0 L 231.0 222.0 L 230.0 224.0 L 230.0 226.0 L 230.0 228.0 L 230.0 229.0 L 229.0 231.0 L 229.0 233.0 L 229.0 234.0 L 229.0 236.0 L 228.0 237.0 L 228.0 238.0 L 227.0 240.0 L 227.0 241.0 L 227.0 242.0 L 226.0 243.0 L 225.0 244.0 L 225.0 245.0 L 224.0 246.0 L 224.0 247.0 L 223.0 247.0 L 222.0 248.0 L 222.0 249.0 L 221.0 250.0 L 221.0 250.0 L 221.0 250.0 L 220.0 251.0 L 219.0 251.0 L 218.0 251.0 L 217.0 251.0 L 215.0 251.0 L 213.0 251.0 L 211.0 251.0 L 208.0 250.0 L 205.0 249.0 L 202.0 247.0 L 198.0 245.0 L 195.0 243.0 L 192.0 240.0 L 189.0 236.0 L 188.0 234.0 " stroke="black" fill="none" stroke-width="5.0" stroke-linecap="round" stroke-linejoin="round" />
<path d="M 190.0 75.0 L 190.0 75.0 L 190.0 75.0 L 190.0 75.0 L 190.0 75.0 L 190.0 75.0 L 190.0 75.0 L 190.0 76.0 L 190.0 76.0 L 190.0 76.0 L 190.0 76.0 L 190.0 77.0 L 190.0 78.0 L 190.0 79.0 L 190.0 80.0 L 190.0 82.0 L 190.0 84.0 L 190.0 87.0 L 190.0 90.0 L 190.0 94.0 L 190.0 97.0 L 190.0 101.0 L 190.0 104.0 L 190.0 107.0 L 190.0 110.0 L 190.0 113.0 L 189.0 116.0 L 189.0 119.0 L 189.0 121.0 L 189.0 124.0 L 189.0 126.0 L 189.0 128.0 L 189.0 130.0 L 189.0 132.0 L 189.0 135.0 L 189.0 137.0 L 189.0 139.0 L 189.0 141.0 L 189.0 143.0 L 189.0 145.0 L 189.0 147.0 L 189.0 149.0 L 189.0 151.0 L 189.0 152.0 L 189.0 154.0 L 189.0 156.0 L 189.0 157.0 L 188.0 159.0 L 188.0 160.0 L 188.0 162.0 L 188.0 163.0 L 187.0 164.0 L 187.0 166.0 L 187.0 167.0 L 186.0 168.0 L 185.0 170.0 L 185.0 171.0 L 185.0 172.0 L 184.0 173.0 L 184.0 175.0 L 184.0 176.0 L 183.0 177.0 L 183.0 178.0 L 183.0 180.0 L 183.0 182.0 L 182.0 183.0 L 182.0 185.0 L 182.0 186.0 L 182.0 188.0 L 181.0 189.0 L 181.0 191.0 L 180.0 192.0 L 180.0 194.0 L 179.0 195.0 L 179.0 196.0 L 178.0 198.0 L 178.0 199.0 L 177.0 200.0 L 177.0 201.0 L 176.0 203.0 L 175.0 204.0 L 175.0 205.0 L 174.0 206.0 L 173.0 208.0 L 172.0 209.0 L 171.0 211.0 L 170.0 212.0 L 170.0 214.0 L 169.0 216.0 L 168.0 217.0 L 167.0 219.0 L 167.0 221.0 L 166.0 223.0 L 165.0 225.0 L 164.0 227.0 L 164.0 229.0 L 163.0 231.0 L 162.0 232.0 L 161.0 234.0 L 160.0 236.0 L 159.0 238.0 L 157.0 240.0 L 156.0 242.0 L 154.0 243.0 L 153.0 245.0 L 152.0 246.0 " stroke="black" fill="none" stroke-width="5.0" stroke-linecap="round" stroke-linejoin="round" />
</svg>