<svg xmlns="http://www.w3.org/2000/svg" width="300" height="300" viewBox="0 0 300 300">
<path d="M 67.0 130.0 L 67.0 130.0 L 66.0 130.0 L 65.0 129.0 L 64.0 129.0 L 64.0 129.0 L 64.0 129.0 L 64.0 129.0 L 64.0 129.0 L 64.0 129.0 L 66.0 129.0 L 69.0 129.0 L 72.0 129.0 L 78.0 129.0 L 85.0 129.0 L 93.0 129.0 L 102.0 128.0 L 109.0 127.0 L 114.0 126.0 L 120.0 125.0 L 123.0 125.0 " stroke="black" fill="none" stroke-width="5.0" stroke-linecap="round" stroke-linejoin="round" />
<path d="M 91.0 74.0 L 91.0 74.0 L 91.0 74.0 L 91.0 74.0 L 91.0 74.0 L 91.0 74.0 L 91.0 74.0 L 91.0 74.0 L 91.0 75.0 L 91.0 75.0 L 91.0 77.0 L 92.0 78.0 L 92.0 81.0 L 93.0 84.0 L 93.0 89.0 L 93.0 94.0 L 93.0 100.0 L 93.0 105.0 L 93.0 111.0 L 93.0 116.0 L 93.0 120.0 L 94.0 123.0 L 94.0 127.0 L 94.0 130.0 L 94.0 133.0 L 94.0 137.0 L 94.0 142.0 L 94.0 146.0 L 93.0 151.0 L 93.0 155.0 L 93.0 159.0 L 93.0 162.0 L 93.0 166.0 L 93.0 170.0 L 92.0 174.0 L 92.0 177.0 L 92.0 182.0 L 91.0 187.0 L 91.0 192.0 L 91.0 196.0 L 91.0 201.0 L 91.0 205.0 L 90.0 209.0 L 90.0 213.0 L 90.0 217.0 L 90.0 220.0 L 90.0 225.0 L 90.0 229.0 L 90.0 233.0 L 90.0 236.0 L 90.0 239.0 L 89.0 241.0 L 89.0 244.0 L 89.0 245.0 L 88.0 247.0 L 88.0 247.0 L 88.0 248.0 " stroke="black" fill="none" stroke-width="5.0" stroke-linecap="round" stroke-linejoin="round" />
<path d="M 137.0 95.0 L 137.0 94.0 L 137.0 94.0 L 137.0 94.0 L 136.0 93.0 L 136.0 93.0 L 136.0 93.0 L 136.0 93.0 L 136.0 93.0 L 137.0 93.0 L 139.0 93.0 L 141.0 93.0 L 143.0 92.0 L 145.0 92.0 L 148.0 92.0 L 151.0 92.0 L 155.0 92.0 L 159.0 92.0 L 164.0 92.0 L 170.0 92.0 L 175.0 93.0 L 182.0 93.0 L 187.0 93.0 L 192.0 93.0 L 197.0 93.0 L 200.0 92.0 L 203.0 92.0 L 206.0 92.0 L 208.0 92.0 L 210.0 93.0 L 213.0 93.0 L 214.0 94.0 L 216.0 94.0 L 217.0 94.0 L 218.0 94.0 L 218.0 94.0 " stroke="black" fill="none" stroke-width="5.0" stroke-linecap="round" stroke-linejoin="round" />
<path d="M 141.0 120.0 L 141.0 120.0 L 141.0 120.0 L 140.0 120.0 L 140.0 120.0 L 139.0 121.0 L 139.0 122.0 L 139.0 124.0 L 138.0 127.0 L 138.0 132.0 L 138.0 139.0 L 138.0 147.0 L 138.0 155.0 L 138.0 163.0 L 138.0 170.0 L 138.0 174.0 L 138.0 177.0 L 138.0 178.0 L 138.0 178.0 " stroke="black" fill="none" stroke-width="5.0" stroke-linecap="round" stroke-linejoin="round" />
<path d="M 141.0 119.0 L 141.0 119.0 L 140.0 119.0 L 140.0 119.0 L 140.0 119.0 L 140.0 118.0 L 140.0 118.0 L 139.0 118.0 L 139.0 118.0 L 139.0 118.0 L 139.0 118.0 L 139.0 118.0 L 140.0 118.0 L 140.0 118.0 L 141.0 118.0 L 141.0 118.0 L 142.0 118.0 L 142.0 118.0 L 143.0 118.0 L 143.0 118.0 L 144.0 118.0 L 144.0 118.0 L 145.0 118.0 L 146.0 118.0 L 146.0 118.0 L 147.0 118.0 L 148.0 118.0 L 148.0 118.0 L 149.0 118.0 L 150.0 118.0 L 151.0 118.0 L 151.0 118.0 L 152.0 118.0 L 153.0 118.0 L 154.0 118.0 L 155.0 118.0 L 156.0 118.0 L 157.0 118.0 L 159.0 118.0 L 160.0 118.0 L 162.0 118.0 L 164.0 117.0 L 166.0 117.0 L 168.0 117.0 L 170.0 116.0 L 172.0 116.0 L 174.0 116.0 L 176.0 116.0 L 178.0 115.0 L 180.0 115.0 L 182.0 115.0 L 184.0 115.0 L 185.0 115.0 L 187.0 115.0 L 189.0 115.0 L 190.0 115.0 L 192.0 115.0 L 193.0 115.0 L 195.0 115.0 L 196.0 115.0 L 197.0 114.0 L 198.0 114.0 L 199.0 114.0 L 200.0 114.0 L 201.0 114.0 L 202.0 114.0 L 203.0 114.0 L 204.0 114.0 L 205.0 114.0 L 207.0 114.0 L 208.0 114.0 L 210.0 114.0 L 212.0 114.0 L 214.0 114.0 L 216.0 114.0 L 218.0 114.0 L 220.0 114.0 L 221.0 114.0 L 223.0 114.0 L 224.0 114.0 L 225.0 114.0 L 225.0 115.0 L 226.0 115.0 L 226.0 116.0 L 227.0 116.0 L 227.0 117.0 L 227.0 118.0 L 228.0 118.0 L 228.0 119.0 L 228.0 120.0 L 228.0 122.0 L 228.0 123.0 L 228.0 125.0 L 228.0 128.0 L 227.0 130.0 L 227.0 134.0 L 226.0 139.0 L 226.0 143.0 L 226.0 148.0 L 225.0 153.0 L 225.0 158.0 L 225.0 162.0 L 225.0 166.0 L 225.0 168.0 L 224.0 171.0 L 224.0 173.0 L 223.0 174.0 L 223.0 175.0 L 222.0 176.0 L 221.0 177.0 L 221.0 178.0 L 219.0 178.0 L 218.0 179.0 L 217.0 179.0 L 216.0 179.0 L 214.0 179.0 L 213.0 178.0 L 211.0 176.0 L 210.0 175.0 " stroke="black" fill="none" stroke-width="5.0" stroke-linecap="round" stroke-linejoin="round" />
<path d="M 149.0 142.0 L 149.0 141.0 L 149.0 140.0 L 148.0 140.0 L 148.0 139.0 L 148.0 139.0 L 148.0 139.0 L 148.0 139.0 L 149.0 139.0 L 150.0 139.0 L 152.0 139.0 L 156.0 139.0 L 160.0 139.0 L 168.0 139.0 L 177.0 139.0 L 185.0 139.0 L 194.0 139.0 L 199.0 138.0 L 203.0 137.0 L 206.0 137.0 L 207.0 137.0 L 207.0 138.0 L 207.0 139.0 L 207.0 141.0 " stroke="black" fill="none" stroke-width="5.0" stroke-linecap="round" stroke-linejoin="round" />
<path d="M 158.0 162.0 L 155.0 162.0 L 152.0 162.0 L 151.0 163.0 L 150.0 163.0 L 149.0 164.0 L 149.0 164.0 L 149.0 164.0 L 151.0 165.0 L 153.0 165.0 L 157.0 165.0 L 163.0 165.0 L 171.0 164.0 L 179.0 163.0 L 187.0 162.0 L 193.0 161.0 L 200.0 159.0 L 205.0 159.0 L 210.0 158.0 L 214.0 158.0 " stroke="black" fill="none" stroke-width="5.0" stroke-linecap="round" stroke-linejoin="round" />
<path d="M 183.0 78.0 L 183.0 78.0 L 182.0 78.0 L 181.0 78.0 L 181.0 78.0 L 181.0 79.0 L 181.0 80.0 L 181.0 82.0 L 181.0 85.0 L 181.0 90.0 L 182.0 97.0 L 183.0 105.0 L 183.0 114.0 L 183.0 123.0 L 183.0 134.0 L 183.0 144.0 L 181.0 154.0 L 180.0 162.0 L 179.0 166.0 L 178.0 169.0 L 178.0 171.0 L 178.0 171.0 L 178.0 171.0 " stroke="black" fill="none" stroke-width="5.0" stroke-linecap="round" stroke-linejoin="round" />
<path d="M 201.0 75.0 L 201.0 75.0 L 201.0 75.0 L 201.0 75.0 L 201.0 75.0 L 201.0 75.0 L 201.0 76.0 L 203.0 78.0 L 206.0 79.0 L 209.0 81.0 L 213.0 83.0 L 218.0 86.0 L 222.0 87.0 L 226.0 89.0 L 230.0 91.0 " stroke="black" fill="none" stroke-width="5.0" stroke-linecap="round" stroke-linejoin="round" />
<path d="M 121.0 202.0 L 121.0 202.0 L 120.0 202.0 L 120.0 202.0 L 119.0 202.0 L 119.0 202.0 L 118.0 202.0 L 118.0 202.0 L 118.0 202.0 L 118.0 202.0 L 118.0 202.0 L 118.0 202.0 L 118.0 202.0 L 119.0 202.0 L 119.0 202.0 L 120.0 202.0 L 121.0 202.0 L 122.0 202.0 L 123.0 202.0 L 125.0 202.0 L 126.0 202.0 L 128.0 202.0 L 129.0 202.0 L 131.0 202.0 L 133.0 202.0 L 135.0 201.0 L 137.0 201.0 L 139.0 200.0 L 141.0 200.0 L 143.0 200.0 L 144.0 200.0 L 146.0 200.0 L 147.0 199.0 L 148.0 199.0 L 149.0 199.0 L 150.0 199.0 L 151.0 199.0 L 152.0 199.0 L 153.0 199.0 L 154.0 199.0 L 155.0 199.0 L 155.0 199.0 L 156.0 199.0 L 157.0 199.0 L 158.0 199.0 L 158.0 199.0 L 159.0 199.0 L 160.0 199.0 L 161.0 199.0 L 163.0 199.0 L 164.0 199.0 L 165.0 199.0 L 167.0 199.0 L 168.0 199.0 L 170.0 199.0 L 171.0 199.0 L 173.0 199.0 L 175.0 199.0 L 177.0 199.0 L 179.0 199.0 L 182.0 199.0 L 184.0 199.0 L 186.0 199.0 L 188.0 199.0 L 190.0 199.0 L 192.0 200.0 L 194.0 200.0 L 196.0 200.0 L 198.0 200.0 L 199.0 200.0 L 201.0 201.0 L 203.0 201.0 L 205.0 201.0 L 207.0 201.0 L 209.0 201.0 L 212.0 201.0 L 214.0 201.0 L 216.0 201.0 L 219.0 201.0 L 221.0 201.0 L 223.0 201.0 L 225.0 201.0 L 226.0 201.0 L 227.0 201.0 L 228.0 202.0 L 229.0 202.0 L 229.0 202.0 L 230.0 202.0 " stroke="black" fill="none" stroke-width="5.0" stroke-linecap="round" stroke-linejoin="round" />
<path d="M 200.0 188.0 L 200.0 188.0 L 200.0 188.0 L 200.0 188.0 L 200.0 188.0 L 200.0 188.0 L 200.0 188.0 L 200.0 189.0 L 200.0 190.0 L 200.0 191.0 L 200.0 194.0 L 200.0 197.0 L 200.0 201.0 L 200.0 206.0 L 200.0 212.0 L 200.0 219.0 L 200.0 227.0 L 200.0 235.0 L 200.0 241.0 L 199.0 245.0 L 199.0 250.0 L 199.0 252.0 L 199.0 254.0 L 198.0 255.0 L 198.0 255.0 L 198.0 255.0 L 197.0 255.0 L 196.0 255.0 L 195.0 255.0 L 194.0 255.0 L 193.0 255.0 L 192.0 255.0 L 190.0 255.0 L 189.0 255.0 L 187.0 255.0 L 185.0 255.0 L 182.0 254.0 L 180.0 253.0 L 177.0 251.0 L 173.0 248.0 L 172.0 247.0 " stroke="black" fill="none" stroke-width="5.0" stroke-linecap="round" stroke-linejoin="round" />
<path d="M 144.0 216.0 L 144.0 216.0 L 143.0 216.0 L 142.0 215.0 L 142.0 215.0 L 142.0 215.0 L 142.0 215.0 L 142.0 215.0 L 143.0 215.0 L 145.0 215.0 L 148.0 216.0 L 151.0 218.0 L 155.0 219.0 L 159.0 221.0 L 165.0 224.0 L 172.0 226.0 L 178.0 228.0 L 184.0 230.0 L 189.0 232.0 L 192.0 233.0 " stroke="black" fill="none" stroke-width="5.0" stroke-linecap="round" stroke-linejoin="round" />
</svg>