<svg xmlns="http://www.w3.org/2000/svg" width="300" height="300" viewBox="0 0 300 300">
<path d="M 81.0 83.0 L 81.0 83.0 L 80.0 83.0 L 80.0 84.0 L 79.0 84.0 L 78.0 84.0 L 78.0 84.0 L 78.0 84.0 L 77.0 84.0 L 77.0 84.0 L 77.0 84.0 L 77.0 84.0 L 77.0 84.0 L 77.0 83.0 L 78.0 83.0 L 78.0 83.0 L 79.0 82.0 L 79.0 82.0 L 80.0 82.0 L 81.0 82.0 L 82.0 82.0 L 83.0 82.0 L 84.0 82.0 L 85.0 82.0 L 86.0 82.0 L 87.0 82.0 L 87.0 82.0 L 88.0 82.0 L 89.0 82.0 L 90.0 82.0 L 91.0 82.0 L 92.0 82.0 L 93.0 82.0 L 94.0 82.0 L 95.0 82.0 L 96.0 82.0 L 97.0 82.0 L 98.0 82.0 L 99.0 82.0 L 100.0 82.0 L 101.0 82.0 L 101.0 82.0 L 103.0 82.0 L 103.0 82.0 L 104.0 82.0 L 105.0 82.0 L 105.0 82.0 L 106.0 82.0 L 107.0 82.0 L 107.0 82.0 L 107.0 82.0 L 108.0 82.0 L 108.0 82.0 L 108.0 82.0 L 109.0 82.0 L 109.0 82.0 L 109.0 82.0 L 110.0 82.0 L 110.0 82.0 L 110.0 82.0 L 111.0 83.0 L 111.0 83.0 L 112.0 83.0 L 112.0 83.0 L 112.0 83.0 L 113.0 83.0 L 113.0 83.0 L 114.0 83.0 L 114.0 83.0 L 114.0 83.0 L 115.0 83.0 L 115.0 83.0 L 116.0 83.0 L 116.0 83.0 L 117.0 83.0 L 118.0 84.0 L 118.0 84.0 L 119.0 84.0 L 119.0 84.0 L 120.0 84.0 L 121.0 84.0 L 121.0 84.0 L 122.0 84.0 L 123.0 84.0 L 123.0 84.0 L 124.0 84.0 L 125.0 84.0 L 126.0 84.0 L 127.0 84.0 L 127.0 84.0 L 128.0 84.0 L 129.0 84.0 L 130.0 84.0 L 131.0 84.0 L 132.0 84.0 L 133.0 84.0 L 134.0 84.0 L 134.0 84.0 L 135.0 84.0 L 136.0 84.0 L 136.0 84.0 L 137.0 84.0 L 138.0 84.0 L 138.0 84.0 L 139.0 84.0 L 139.0 84.0 L 140.0 84.0 L 141.0 84.0 L 141.0 84.0 L 142.0 84.0 L 142.0 84.0 L 143.0 84.0 L 143.0 84.0 L 144.0 84.0 L 144.0 84.0 L 145.0 84.0 L 145.0 84.0 L 145.0 85.0 L 146.0 85.0 L 146.0 85.0 L 146.0 85.0 L 146.0 85.0 L 146.0 86.0 L 146.0 86.0 L 146.0 87.0 L 146.0 88.0 L 146.0 89.0 L 146.0 90.0 L 146.0 91.0 L 146.0 93.0 L 146.0 96.0 L 145.0 98.0 L 145.0 101.0 L 144.0 104.0 L 144.0 107.0 L 144.0 110.0 L 143.0 113.0 L 143.0 116.0 L 143.0 118.0 L 143.0 120.0 L 143.0 122.0 L 143.0 124.0 L 143.0 126.0 L 143.0 127.0 L 143.0 129.0 L 143.0 130.0 L 143.0 132.0 L 143.0 134.0 L 143.0 135.0 L 143.0 137.0 L 143.0 139.0 L 143.0 141.0 L 143.0 144.0 L 143.0 146.0 L 142.0 148.0 L 142.0 150.0 L 142.0 151.0 L 142.0 153.0 L 142.0 154.0 L 141.0 155.0 L 141.0 156.0 L 141.0 157.0 L 141.0 158.0 L 141.0 159.0 L 141.0 160.0 L 141.0 161.0 L 141.0 162.0 L 141.0 163.0 L 141.0 165.0 L 141.0 166.0 L 141.0 167.0 L 141.0 168.0 L 141.0 169.0 L 141.0 170.0 L 141.0 170.0 L 141.0 171.0 L 141.0 171.0 L 141.0 171.0 L 141.0 171.0 L 142.0 169.0 " stroke="black" fill="none" stroke-width="5.0" stroke-linecap="round" stroke-linejoin="round" />
<path d="M 81.0 125.0 L 81.0 125.0 L 81.0 125.0 L 80.0 125.0 L 79.0 125.0 L 79.0 124.0 L 78.0 124.0 L 78.0 124.0 L 78.0 124.0 L 77.0 124.0 L 77.0 123.0 L 77.0 123.0 L 77.0 123.0 L 77.0 123.0 L 77.0 123.0 L 77.0 123.0 L 77.0 123.0 L 79.0 123.0 L 80.0 123.0 L 83.0 123.0 L 87.0 123.0 L 91.0 123.0 L 95.0 123.0 L 100.0 123.0 L 105.0 123.0 L 110.0 123.0 L 115.0 123.0 L 120.0 122.0 L 124.0 122.0 L 128.0 122.0 L 132.0 122.0 L 134.0 122.0 L 136.0 122.0 L 137.0 123.0 L 137.0 124.0 " stroke="black" fill="none" stroke-width="5.0" stroke-linecap="round" stroke-linejoin="round" />
<path d="M 77.0 163.0 L 77.0 163.0 L 76.0 163.0 L 75.0 163.0 L 74.0 163.0 L 74.0 163.0 L 73.0 163.0 L 73.0 163.0 L 73.0 163.0 L 74.0 163.0 L 75.0 163.0 L 77.0 163.0 L 79.0 164.0 L 83.0 164.0 L 87.0 165.0 L 92.0 165.0 L 97.0 166.0 L 102.0 166.0 L 107.0 166.0 L 112.0 166.0 L 117.0 166.0 L 122.0 166.0 L 127.0 166.0 L 132.0 166.0 L 137.0 165.0 L 141.0 165.0 L 143.0 165.0 " stroke="black" fill="none" stroke-width="5.0" stroke-linecap="round" stroke-linejoin="round" />
<path d="M 76.0 87.0 L 76.0 87.0 L 76.0 87.0 L 76.0 87.0 L 76.0 87.0 L 76.0 87.0 L 76.0 87.0 L 76.0 87.0 L 76.0 87.0 L 76.0 87.0 L 76.0 87.0 L 76.0 87.0 L 76.0 87.0 L 76.0 88.0 L 76.0 88.0 L 76.0 89.0 L 76.0 90.0 L 76.0 92.0 L 76.0 93.0 L 76.0 95.0 L 76.0 97.0 L 76.0 100.0 L 76.0 102.0 L 76.0 104.0 L 76.0 105.0 L 76.0 107.0 L 76.0 108.0 L 76.0 109.0 L 76.0 111.0 L 76.0 112.0 L 76.0 113.0 L 76.0 114.0 L 76.0 115.0 L 76.0 116.0 L 76.0 117.0 L 75.0 118.0 L 75.0 119.0 L 75.0 120.0 L 75.0 121.0 L 75.0 122.0 L 75.0 123.0 L 75.0 124.0 L 74.0 125.0 L 74.0 126.0 L 74.0 127.0 L 74.0 127.0 L 74.0 128.0 L 74.0 129.0 L 74.0 130.0 L 74.0 131.0 L 74.0 132.0 L 74.0 132.0 L 74.0 133.0 L 74.0 134.0 L 74.0 136.0 L 74.0 137.0 L 74.0 138.0 L 74.0 139.0 L 74.0 140.0 L 74.0 142.0 L 74.0 143.0 L 74.0 144.0 L 74.0 145.0 L 74.0 147.0 L 74.0 148.0 L 74.0 149.0 L 74.0 150.0 L 74.0 152.0 L 74.0 153.0 L 74.0 154.0 L 74.0 155.0 L 74.0 156.0 L 74.0 157.0 L 73.0 158.0 L 73.0 158.0 L 73.0 159.0 L 73.0 160.0 L 73.0 160.0 L 73.0 161.0 L 73.0 162.0 L 73.0 163.0 L 73.0 164.0 L 73.0 164.0 L 73.0 165.0 L 73.0 166.0 L 73.0 167.0 L 73.0 168.0 L 73.0 168.0 L 73.0 169.0 L 73.0 170.0 L 73.0 171.0 L 73.0 171.0 L 73.0 172.0 L 73.0 173.0 L 73.0 173.0 L 73.0 174.0 L 73.0 175.0 L 73.0 176.0 L 73.0 176.0 L 73.0 177.0 L 73.0 178.0 L 73.0 179.0 L 73.0 180.0 L 73.0 181.0 L 73.0 181.0 L 73.0 182.0 L 73.0 183.0 L 73.0 184.0 L 73.0 185.0 L 73.0 186.0 L 73.0 186.0 L 73.0 187.0 L 73.0 188.0 L 73.0 189.0 L 73.0 190.0 L 73.0 190.0 L 73.0 191.0 L 73.0 192.0 L 73.0 193.0 L 73.0 194.0 L 73.0 195.0 L 73.0 196.0 L 73.0 197.0 L 73.0 198.0 L 73.0 199.0 L 73.0 200.0 L 73.0 202.0 L 73.0 203.0 L 73.0 204.0 L 73.0 204.0 L 73.0 205.0 L 73.0 206.0 L 73.0 207.0 L 73.0 207.0 L 73.0 208.0 L 73.0 209.0 L 73.0 209.0 L 73.0 210.0 L 73.0 211.0 L 73.0 211.0 L 73.0 212.0 L 73.0 212.0 L 73.0 213.0 L 73.0 213.0 L 73.0 214.0 L 73.0 214.0 L 73.0 215.0 L 73.0 215.0 L 73.0 216.0 L 73.0 217.0 L 73.0 217.0 L 73.0 218.0 L 72.0 219.0 L 72.0 219.0 L 72.0 220.0 L 72.0 220.0 L 72.0 221.0 L 72.0 222.0 L 72.0 222.0 L 72.0 223.0 L 72.0 224.0 L 72.0 225.0 L 72.0 226.0 L 72.0 227.0 L 72.0 228.0 L 72.0 229.0 L 72.0 229.0 L 72.0 230.0 L 72.0 231.0 L 72.0 232.0 L 72.0 232.0 L 72.0 233.0 L 72.0 233.0 L 72.0 234.0 L 72.0 235.0 L 72.0 235.0 L 72.0 236.0 L 72.0 236.0 L 72.0 237.0 L 72.0 238.0 L 72.0 238.0 L 72.0 239.0 L 72.0 239.0 L 72.0 240.0 L 72.0 241.0 L 72.0 241.0 L 72.0 241.0 L 72.0 242.0 L 72.0 242.0 L 72.0 242.0 L 72.0 243.0 L 72.0 243.0 L 72.0 243.0 L 72.0 243.0 L 72.0 243.0 L 72.0 243.0 L 72.0 243.0 L 72.0 243.0 L 72.0 243.0 L 72.0 243.0 L 72.0 243.0 L 72.0 243.0 L 72.0 243.0 L 72.0 243.0 L 72.0 243.0 L 72.0 243.0 L 72.0 243.0 L 72.0 243.0 L 72.0 243.0 L 72.0 243.0 L 72.0 243.0 L 72.0 243.0 L 72.0 243.0 L 73.0 243.0 L 73.0 243.0 L 73.0 243.0 L 73.0 243.0 L 74.0 243.0 L 74.0 243.0 L 74.0 243.0 L 74.0 243.0 L 75.0 243.0 L 75.0 243.0 L 75.0 242.0 L 75.0 242.0 L 76.0 242.0 L 76.0 242.0 L 77.0 242.0 L 77.0 241.0 L 77.0 241.0 L 78.0 241.0 L 78.0 241.0 L 79.0 241.0 L 79.0 241.0 L 79.0 240.0 L 80.0 240.0 L 80.0 240.0 L 81.0 240.0 L 81.0 239.0 L 81.0 239.0 L 82.0 239.0 L 82.0 239.0 L 83.0 238.0 L 83.0 238.0 L 84.0 238.0 L 84.0 237.0 L 85.0 237.0 L 85.0 237.0 L 86.0 237.0 L 86.0 237.0 L 87.0 236.0 L 87.0 236.0 L 88.0 236.0 L 89.0 236.0 L 89.0 236.0 L 90.0 236.0 L 91.0 235.0 L 92.0 235.0 L 93.0 235.0 L 93.0 235.0 L 94.0 235.0 L 95.0 234.0 L 95.0 234.0 L 96.0 234.0 L 96.0 234.0 L 97.0 234.0 L 98.0 233.0 L 98.0 233.0 L 98.0 233.0 L 99.0 233.0 L 100.0 233.0 L 100.0 232.0 L 100.0 232.0 L 101.0 232.0 L 101.0 232.0 L 102.0 232.0 L 102.0 232.0 L 103.0 232.0 L 103.0 232.0 L 103.0 232.0 L 104.0 232.0 L 104.0 232.0 L 104.0 232.0 L 105.0 232.0 L 105.0 232.0 L 106.0 232.0 L 106.0 231.0 L 106.0 231.0 L 107.0 231.0 L 107.0 231.0 L 107.0 231.0 L 108.0 231.0 L 108.0 231.0 L 108.0 231.0 L 108.0 230.0 L 109.0 230.0 L 109.0 230.0 L 109.0 230.0 L 110.0 230.0 L 110.0 230.0 L 110.0 230.0 L 110.0 230.0 L 110.0 230.0 L 111.0 230.0 L 111.0 230.0 L 111.0 230.0 L 111.0 230.0 L 111.0 229.0 L 111.0 229.0 L 111.0 229.0 L 112.0 229.0 L 112.0 229.0 L 112.0 229.0 L 112.0 229.0 L 112.0 228.0 L 112.0 228.0 L 112.0 228.0 L 113.0 228.0 L 113.0 227.0 L 113.0 227.0 L 113.0 227.0 L 113.0 227.0 L 114.0 227.0 L 114.0 227.0 L 114.0 226.0 L 114.0 226.0 L 115.0 226.0 L 115.0 226.0 L 115.0 226.0 L 115.0 226.0 L 116.0 226.0 L 116.0 226.0 L 116.0 226.0 L 117.0 226.0 L 117.0 226.0 L 117.0 226.0 L 118.0 226.0 L 118.0 226.0 L 118.0 226.0 L 119.0 226.0 L 119.0 226.0 L 119.0 226.0 L 120.0 226.0 L 120.0 225.0 L 120.0 225.0 L 121.0 225.0 L 121.0 225.0 L 121.0 225.0 L 122.0 224.0 L 122.0 224.0 L 122.0 224.0 " stroke="black" fill="none" stroke-width="5.0" stroke-linecap="round" stroke-linejoin="round" />
<path d="M 117.0 194.0 L 117.0 194.0 L 117.0 195.0 L 116.0 196.0 L 116.0 197.0 L 116.0 198.0 L 116.0 199.0 L 116.0 200.0 L 117.0 202.0 L 119.0 204.0 L 121.0 207.0 L 123.0 211.0 L 126.0 215.0 L 128.0 219.0 L 131.0 224.0 L 133.0 228.0 L 135.0 232.0 L 136.0 235.0 L 137.0 237.0 L 138.0 239.0 L 138.0 239.0 L 138.0 239.0 L 138.0 239.0 L 139.0 240.0 L 139.0 240.0 L 139.0 241.0 L 139.0 241.0 L 139.0 241.0 " stroke="black" fill="none" stroke-width="5.0" stroke-linecap="round" stroke-linejoin="round" />
<path d="M 180.0 87.0 L 180.0 87.0 L 180.0 87.0 L 179.0 87.0 L 179.0 87.0 L 178.0 86.0 L 178.0 86.0 L 177.0 86.0 L 177.0 86.0 L 177.0 86.0 L 177.0 86.0 L 177.0 86.0 L 177.0 86.0 L 177.0 86.0 L 177.0 86.0 L 178.0 86.0 L 179.0 86.0 L 179.0 86.0 L 180.0 86.0 L 181.0 86.0 L 182.0 86.0 L 182.0 86.0 L 183.0 86.0 L 184.0 86.0 L 184.0 86.0 L 185.0 86.0 L 185.0 86.0 L 186.0 86.0 L 187.0 86.0 L 187.0 87.0 L 188.0 87.0 L 189.0 87.0 L 189.0 87.0 L 190.0 87.0 L 190.0 87.0 L 191.0 87.0 L 191.0 87.0 L 192.0 87.0 L 192.0 87.0 L 193.0 87.0 L 193.0 88.0 L 194.0 88.0 L 194.0 88.0 L 194.0 88.0 L 195.0 88.0 L 195.0 88.0 L 196.0 88.0 L 196.0 88.0 L 196.0 88.0 L 197.0 88.0 L 197.0 88.0 L 197.0 88.0 L 198.0 88.0 L 198.0 88.0 L 199.0 88.0 L 199.0 88.0 L 200.0 88.0 L 200.0 88.0 L 201.0 88.0 L 201.0 88.0 L 202.0 88.0 L 203.0 88.0 L 203.0 88.0 L 204.0 88.0 L 205.0 88.0 L 205.0 88.0 L 206.0 88.0 L 207.0 88.0 L 208.0 88.0 L 209.0 88.0 L 210.0 88.0 L 210.0 88.0 L 212.0 88.0 L 213.0 88.0 L 214.0 88.0 L 214.0 88.0 L 216.0 88.0 L 216.0 88.0 L 217.0 88.0 L 218.0 88.0 L 219.0 88.0 L 220.0 88.0 L 221.0 88.0 L 222.0 88.0 L 223.0 87.0 L 223.0 87.0 L 224.0 87.0 L 225.0 87.0 L 226.0 87.0 L 226.0 87.0 L 227.0 87.0 L 227.0 87.0 L 228.0 87.0 L 228.0 87.0 L 229.0 87.0 L 229.0 87.0 L 229.0 87.0 L 230.0 87.0 L 230.0 87.0 L 230.0 87.0 L 230.0 87.0 L 230.0 87.0 L 230.0 88.0 L 230.0 88.0 L 230.0 89.0 L 230.0 90.0 L 229.0 91.0 L 229.0 93.0 L 228.0 95.0 L 228.0 97.0 L 227.0 99.0 L 227.0 102.0 L 227.0 105.0 L 226.0 107.0 L 226.0 110.0 L 226.0 113.0 L 225.0 115.0 L 225.0 117.0 L 225.0 119.0 L 225.0 121.0 L 225.0 122.0 L 225.0 123.0 L 225.0 125.0 L 225.0 127.0 L 225.0 129.0 L 225.0 131.0 L 225.0 134.0 L 226.0 137.0 L 226.0 140.0 L 226.0 143.0 L 226.0 147.0 L 226.0 150.0 L 226.0 152.0 L 226.0 155.0 L 226.0 157.0 L 225.0 159.0 L 225.0 161.0 L 225.0 163.0 L 225.0 165.0 L 225.0 166.0 L 224.0 168.0 L 224.0 170.0 L 224.0 171.0 L 224.0 173.0 L 224.0 175.0 L 224.0 176.0 L 224.0 178.0 L 224.0 180.0 L 224.0 182.0 L 224.0 183.0 L 224.0 185.0 L 224.0 187.0 L 224.0 188.0 L 224.0 189.0 L 224.0 191.0 L 223.0 192.0 L 223.0 193.0 L 223.0 194.0 L 223.0 195.0 L 223.0 196.0 L 223.0 196.0 L 223.0 197.0 L 223.0 198.0 L 223.0 199.0 L 223.0 200.0 L 223.0 201.0 L 222.0 202.0 L 222.0 202.0 L 222.0 203.0 L 222.0 204.0 L 222.0 204.0 L 222.0 205.0 L 222.0 205.0 L 222.0 206.0 L 222.0 206.0 L 222.0 207.0 L 222.0 207.0 L 221.0 207.0 L 221.0 208.0 L 221.0 208.0 L 221.0 209.0 L 221.0 209.0 L 221.0 210.0 L 221.0 210.0 L 221.0 210.0 L 221.0 210.0 L 221.0 210.0 L 220.0 211.0 L 220.0 211.0 L 220.0 211.0 L 220.0 211.0 L 219.0 211.0 L 219.0 211.0 L 218.0 211.0 L 217.0 210.0 L 216.0 210.0 L 215.0 209.0 L 214.0 208.0 L 212.0 207.0 L 210.0 206.0 L 209.0 205.0 L 207.0 204.0 L 204.0 202.0 L 202.0 201.0 L 201.0 200.0 L 199.0 198.0 L 198.0 195.0 L 197.0 194.0 " stroke="black" fill="none" stroke-width="5.0" stroke-linecap="round" stroke-linejoin="round" />
<path d="M 180.0 85.0 L 180.0 85.0 L 180.0 85.0 L 180.0 85.0 L 180.0 85.0 L 180.0 86.0 L 180.0 86.0 L 181.0 86.0 L 181.0 86.0 L 181.0 87.0 L 181.0 87.0 L 181.0 87.0 L 181.0 87.0 L 181.0 87.0 L 181.0 88.0 L 181.0 88.0 L 181.0 88.0 L 181.0 89.0 L 181.0 90.0 L 181.0 91.0 L 181.0 93.0 L 181.0 95.0 L 181.0 98.0 L 181.0 100.0 L 181.0 103.0 L 181.0 106.0 L 181.0 109.0 L 181.0 112.0 L 181.0 114.0 L 181.0 117.0 L 181.0 119.0 L 181.0 121.0 L 181.0 123.0 L 181.0 126.0 L 181.0 128.0 L 181.0 130.0 L 181.0 133.0 L 181.0 135.0 L 182.0 136.0 L 182.0 138.0 L 182.0 140.0 L 182.0 142.0 L 182.0 144.0 L 182.0 145.0 L 182.0 147.0 L 182.0 149.0 L 182.0 151.0 L 182.0 153.0 L 182.0 155.0 L 183.0 156.0 L 183.0 158.0 L 183.0 160.0 L 183.0 161.0 L 183.0 162.0 L 183.0 164.0 L 183.0 165.0 L 183.0 166.0 L 183.0 168.0 L 183.0 170.0 L 183.0 171.0 L 183.0 173.0 L 183.0 175.0 L 183.0 176.0 L 183.0 178.0 L 183.0 179.0 L 183.0 181.0 L 183.0 183.0 L 183.0 185.0 L 183.0 187.0 L 183.0 189.0 L 183.0 191.0 L 183.0 193.0 L 184.0 195.0 L 184.0 197.0 L 184.0 198.0 L 184.0 200.0 L 184.0 200.0 L 184.0 201.0 L 184.0 202.0 L 184.0 203.0 L 184.0 204.0 L 184.0 205.0 L 184.0 207.0 L 184.0 208.0 L 184.0 209.0 L 184.0 210.0 L 184.0 211.0 L 184.0 212.0 L 184.0 213.0 L 184.0 214.0 L 183.0 215.0 L 183.0 216.0 L 183.0 216.0 L 183.0 218.0 L 182.0 219.0 L 182.0 220.0 L 182.0 222.0 L 182.0 223.0 L 182.0 225.0 L 182.0 226.0 L 182.0 228.0 L 183.0 229.0 L 183.0 231.0 L 183.0 232.0 L 183.0 233.0 L 183.0 234.0 L 183.0 235.0 L 183.0 236.0 L 183.0 237.0 L 183.0 238.0 L 183.0 239.0 L 183.0 241.0 L 182.0 241.0 L 182.0 242.0 L 182.0 243.0 L 182.0 244.0 L 182.0 244.0 L 182.0 245.0 L 182.0 245.0 L 182.0 246.0 L 182.0 247.0 L 181.0 247.0 L 181.0 248.0 L 181.0 249.0 L 181.0 249.0 L 181.0 250.0 L 181.0 251.0 L 181.0 251.0 L 180.0 252.0 L 180.0 253.0 L 180.0 253.0 L 180.0 254.0 L 180.0 255.0 L 180.0 255.0 L 180.0 256.0 L 180.0 257.0 L 180.0 257.0 L 180.0 258.0 L 180.0 258.0 L 180.0 259.0 L 180.0 259.0 L 180.0 260.0 L 180.0 261.0 L 180.0 261.0 L 180.0 261.0 L 180.0 262.0 L 180.0 262.0 L 180.0 262.0 L 180.0 262.0 L 180.0 262.0 L 180.0 262.0 " stroke="black" fill="none" stroke-width="5.0" stroke-linecap="round" stroke-linejoin="round" />
</svg>