<svg xmlns="http://www.w3.org/2000/svg" width="300" height="300" viewBox="0 0 300 300">
<path d="M 149.0 71.0 L 149.0 71.0 L 149.0 71.0 L 149.0 70.0 L 149.0 70.0 L 149.0 69.0 L 149.0 69.0 L 149.0 69.0 L 149.0 69.0 L 149.0 69.0 L 149.0 69.0 L 149.0 69.0 L 149.0 69.0 L 148.0 70.0 L 147.0 71.0 L 145.0 73.0 L 143.0 75.0 L 140.0 78.0 L 137.0 81.0 L 134.0 84.0 L 133.0 85.0 " stroke="black" fill="none" stroke-width="5.0" stroke-linecap="round" stroke-linejoin="round" />
<path d="M 92.0 93.0 L 92.0 93.0 L 92.0 92.0 L 92.0 92.0 L 92.0 91.0 L 93.0 91.0 L 93.0 91.0 L 93.0 91.0 L 93.0 91.0 L 93.0 91.0 L 93.0 92.0 L 92.0 93.0 L 92.0 94.0 L 92.0 96.0 L 91.0 98.0 L 91.0 101.0 L 91.0 104.0 L 91.0 109.0 L 90.0 113.0 L 90.0 119.0 L 89.0 125.0 L 89.0 131.0 L 89.0 137.0 L 88.0 142.0 L 88.0 146.0 L 88.0 149.0 L 88.0 152.0 L 88.0 155.0 L 89.0 157.0 L 89.0 159.0 L 89.0 159.0 L 89.0 160.0 L 89.0 160.0 L 90.0 160.0 L 90.0 160.0 L 90.0 159.0 " stroke="black" fill="none" stroke-width="5.0" stroke-linecap="round" stroke-linejoin="round" />
<path d="M 95.0 91.0 L 95.0 91.0 L 95.0 91.0 L 94.0 91.0 L 94.0 91.0 L 94.0 91.0 L 93.0 92.0 L 93.0 92.0 L 93.0 92.0 L 93.0 92.0 L 94.0 92.0 L 94.0 92.0 L 94.0 92.0 L 95.0 92.0 L 96.0 92.0 L 96.0 92.0 L 97.0 92.0 L 97.0 92.0 L 98.0 92.0 L 98.0 92.0 L 99.0 93.0 L 100.0 93.0 L 101.0 93.0 L 102.0 93.0 L 103.0 93.0 L 104.0 93.0 L 105.0 93.0 L 106.0 93.0 L 107.0 93.0 L 107.0 93.0 L 108.0 92.0 L 109.0 92.0 L 109.0 92.0 L 110.0 92.0 L 111.0 92.0 L 111.0 92.0 L 112.0 92.0 L 112.0 92.0 L 113.0 92.0 L 114.0 92.0 L 115.0 92.0 L 115.0 92.0 L 116.0 92.0 L 117.0 92.0 L 117.0 92.0 L 118.0 92.0 L 119.0 92.0 L 119.0 92.0 L 120.0 92.0 L 121.0 92.0 L 121.0 92.0 L 122.0 92.0 L 123.0 92.0 L 124.0 92.0 L 125.0 92.0 L 125.0 92.0 L 126.0 92.0 L 127.0 92.0 L 128.0 92.0 L 128.0 91.0 L 129.0 91.0 L 130.0 91.0 L 131.0 91.0 L 132.0 91.0 L 132.0 91.0 L 133.0 91.0 L 134.0 91.0 L 135.0 91.0 L 136.0 91.0 L 137.0 91.0 L 138.0 91.0 L 138.0 91.0 L 139.0 91.0 L 140.0 91.0 L 141.0 91.0 L 142.0 91.0 L 142.0 91.0 L 143.0 91.0 L 144.0 91.0 L 145.0 91.0 L 145.0 91.0 L 146.0 91.0 L 147.0 91.0 L 148.0 91.0 L 148.0 91.0 L 149.0 91.0 L 150.0 91.0 L 150.0 91.0 L 151.0 91.0 L 151.0 91.0 L 152.0 91.0 L 152.0 91.0 L 153.0 91.0 L 154.0 91.0 L 154.0 90.0 L 155.0 90.0 L 155.0 90.0 L 156.0 90.0 L 157.0 90.0 L 157.0 90.0 L 158.0 90.0 L 158.0 90.0 L 159.0 89.0 L 160.0 89.0 L 160.0 89.0 L 161.0 89.0 L 162.0 89.0 L 162.0 89.0 L 163.0 89.0 L 164.0 89.0 L 164.0 89.0 L 165.0 89.0 L 166.0 89.0 L 166.0 89.0 L 167.0 89.0 L 168.0 89.0 L 169.0 89.0 L 169.0 89.0 L 170.0 89.0 L 171.0 89.0 L 172.0 89.0 L 172.0 89.0 L 173.0 89.0 L 174.0 89.0 L 175.0 89.0 L 176.0 89.0 L 176.0 89.0 L 177.0 89.0 L 178.0 89.0 L 178.0 89.0 L 179.0 89.0 L 180.0 89.0 L 180.0 89.0 L 181.0 89.0 L 182.0 89.0 L 182.0 89.0 L 183.0 89.0 L 183.0 89.0 L 184.0 89.0 L 185.0 89.0 L 185.0 89.0 L 186.0 89.0 L 186.0 89.0 L 187.0 89.0 L 188.0 89.0 L 188.0 89.0 L 189.0 89.0 L 189.0 89.0 L 190.0 89.0 L 190.0 89.0 L 190.0 89.0 L 191.0 89.0 L 191.0 89.0 L 192.0 89.0 L 192.0 89.0 L 193.0 89.0 L 193.0 89.0 L 193.0 89.0 L 194.0 89.0 L 194.0 89.0 L 194.0 89.0 L 195.0 89.0 L 195.0 89.0 L 196.0 89.0 L 196.0 89.0 L 196.0 89.0 L 197.0 89.0 L 197.0 89.0 L 197.0 89.0 L 198.0 89.0 L 198.0 89.0 L 198.0 89.0 L 199.0 89.0 L 199.0 89.0 L 199.0 89.0 L 200.0 89.0 L 200.0 89.0 L 201.0 89.0 L 201.0 89.0 L 201.0 89.0 L 202.0 89.0 L 202.0 89.0 L 203.0 89.0 L 203.0 89.0 L 204.0 89.0 L 204.0 89.0 L 204.0 89.0 L 205.0 89.0 L 205.0 89.0 L 206.0 89.0 L 206.0 89.0 L 207.0 90.0 L 207.0 90.0 L 207.0 90.0 L 208.0 90.0 L 209.0 90.0 L 209.0 90.0 L 209.0 90.0 L 210.0 90.0 L 210.0 90.0 L 210.0 90.0 L 211.0 91.0 L 211.0 91.0 L 212.0 91.0 L 212.0 91.0 L 212.0 91.0 L 213.0 91.0 L 213.0 92.0 L 213.0 92.0 L 213.0 92.0 L 214.0 93.0 L 214.0 93.0 L 214.0 94.0 L 214.0 94.0 L 214.0 95.0 L 214.0 96.0 L 214.0 97.0 L 214.0 98.0 L 214.0 99.0 L 215.0 100.0 L 215.0 101.0 L 215.0 102.0 L 215.0 104.0 L 215.0 105.0 L 215.0 106.0 L 215.0 108.0 L 215.0 109.0 L 215.0 111.0 L 216.0 112.0 L 216.0 113.0 L 216.0 114.0 L 216.0 116.0 L 216.0 117.0 L 216.0 118.0 L 216.0 119.0 L 216.0 120.0 L 216.0 121.0 L 216.0 122.0 L 216.0 123.0 L 216.0 124.0 L 216.0 125.0 L 215.0 126.0 L 215.0 128.0 L 215.0 129.0 L 215.0 130.0 L 215.0 131.0 L 215.0 133.0 L 215.0 134.0 L 215.0 135.0 L 215.0 137.0 L 215.0 138.0 L 215.0 139.0 L 215.0 141.0 L 215.0 143.0 L 215.0 145.0 L 215.0 147.0 L 215.0 148.0 L 215.0 150.0 L 215.0 152.0 L 215.0 154.0 L 215.0 155.0 L 216.0 157.0 L 216.0 159.0 L 216.0 160.0 L 216.0 162.0 L 216.0 164.0 L 217.0 165.0 L 217.0 166.0 L 217.0 168.0 L 217.0 168.0 L 217.0 170.0 L 217.0 170.0 L 217.0 170.0 L 217.0 171.0 L 217.0 171.0 L 217.0 171.0 L 217.0 170.0 " stroke="black" fill="none" stroke-width="5.0" stroke-linecap="round" stroke-linejoin="round" />
<path d="M 100.0 130.0 L 100.0 130.0 L 100.0 130.0 L 100.0 130.0 L 100.0 130.0 L 100.0 130.0 L 100.0 130.0 L 100.0 130.0 L 100.0 130.0 L 100.0 130.0 L 100.0 130.0 L 100.0 130.0 L 100.0 130.0 L 100.0 130.0 L 101.0 130.0 L 102.0 130.0 L 102.0 130.0 L 103.0 130.0 L 105.0 130.0 L 106.0 130.0 L 107.0 130.0 L 108.0 131.0 L 109.0 131.0 L 111.0 131.0 L 112.0 131.0 L 114.0 131.0 L 116.0 131.0 L 118.0 131.0 L 119.0 131.0 L 121.0 131.0 L 123.0 131.0 L 125.0 131.0 L 126.0 131.0 L 128.0 131.0 L 130.0 131.0 L 132.0 131.0 L 133.0 131.0 L 135.0 131.0 L 137.0 131.0 L 138.0 131.0 L 140.0 131.0 L 141.0 131.0 L 142.0 131.0 L 143.0 131.0 L 144.0 131.0 L 145.0 131.0 L 146.0 130.0 L 146.0 130.0 L 147.0 130.0 L 148.0 130.0 L 149.0 129.0 L 149.0 129.0 L 150.0 129.0 L 151.0 129.0 L 152.0 128.0 L 152.0 128.0 L 153.0 128.0 L 154.0 128.0 L 155.0 128.0 L 156.0 128.0 L 157.0 128.0 L 158.0 128.0 L 159.0 128.0 L 160.0 127.0 L 162.0 127.0 L 163.0 127.0 L 164.0 127.0 L 165.0 127.0 L 167.0 127.0 L 168.0 127.0 L 170.0 127.0 L 172.0 127.0 L 174.0 127.0 L 176.0 127.0 L 178.0 127.0 L 180.0 127.0 L 182.0 127.0 L 184.0 127.0 L 186.0 127.0 L 187.0 127.0 L 189.0 127.0 L 190.0 127.0 L 191.0 127.0 L 192.0 127.0 L 194.0 127.0 L 194.0 127.0 L 196.0 127.0 L 197.0 127.0 L 197.0 127.0 L 198.0 127.0 L 199.0 127.0 L 200.0 127.0 L 201.0 127.0 L 202.0 127.0 L 202.0 127.0 L 203.0 126.0 L 204.0 126.0 L 204.0 126.0 " stroke="black" fill="none" stroke-width="5.0" stroke-linecap="round" stroke-linejoin="round" />
<path d="M 94.0 164.0 L 94.0 164.0 L 94.0 164.0 L 94.0 164.0 L 94.0 163.0 L 94.0 163.0 L 94.0 163.0 L 94.0 163.0 L 94.0 163.0 L 94.0 163.0 L 94.0 163.0 L 94.0 163.0 L 95.0 163.0 L 95.0 163.0 L 95.0 163.0 L 96.0 163.0 L 97.0 163.0 L 98.0 163.0 L 99.0 163.0 L 100.0 163.0 L 101.0 163.0 L 102.0 163.0 L 103.0 163.0 L 104.0 164.0 L 105.0 164.0 L 107.0 164.0 L 108.0 164.0 L 109.0 164.0 L 110.0 165.0 L 111.0 165.0 L 113.0 165.0 L 114.0 165.0 L 115.0 165.0 L 117.0 165.0 L 118.0 165.0 L 119.0 165.0 L 120.0 165.0 L 122.0 165.0 L 123.0 165.0 L 124.0 165.0 L 126.0 165.0 L 127.0 165.0 L 129.0 165.0 L 131.0 165.0 L 132.0 165.0 L 134.0 165.0 L 135.0 165.0 L 137.0 165.0 L 138.0 164.0 L 140.0 164.0 L 142.0 164.0 L 143.0 164.0 L 145.0 164.0 L 146.0 164.0 L 148.0 164.0 L 150.0 164.0 L 151.0 164.0 L 152.0 164.0 L 153.0 164.0 L 154.0 164.0 L 155.0 164.0 L 156.0 164.0 L 157.0 164.0 L 158.0 164.0 L 159.0 164.0 L 160.0 164.0 L 161.0 164.0 L 162.0 164.0 L 164.0 164.0 L 165.0 164.0 L 167.0 164.0 L 169.0 164.0 L 170.0 164.0 L 172.0 164.0 L 173.0 164.0 L 175.0 164.0 L 176.0 164.0 L 178.0 164.0 L 179.0 164.0 L 180.0 164.0 L 181.0 164.0 L 183.0 164.0 L 184.0 164.0 L 185.0 164.0 L 186.0 164.0 L 188.0 164.0 L 189.0 164.0 L 191.0 164.0 L 192.0 164.0 L 193.0 164.0 L 195.0 164.0 L 196.0 164.0 L 197.0 164.0 L 199.0 163.0 L 200.0 163.0 L 202.0 163.0 L 204.0 162.0 L 205.0 162.0 L 207.0 161.0 L 208.0 161.0 L 210.0 160.0 L 211.0 160.0 L 212.0 160.0 L 213.0 159.0 L 214.0 159.0 L 214.0 159.0 " stroke="black" fill="none" stroke-width="5.0" stroke-linecap="round" stroke-linejoin="round" />
<path d="M 150.0 99.0 L 150.0 99.0 L 150.0 99.0 L 150.0 99.0 L 150.0 99.0 L 150.0 99.0 L 150.0 99.0 L 150.0 99.0 L 150.0 99.0 L 150.0 100.0 L 150.0 100.0 L 150.0 100.0 L 150.0 100.0 L 150.0 101.0 L 150.0 101.0 L 150.0 102.0 L 150.0 103.0 L 150.0 104.0 L 150.0 105.0 L 150.0 107.0 L 150.0 109.0 L 150.0 111.0 L 150.0 112.0 L 150.0 114.0 L 150.0 116.0 L 150.0 117.0 L 150.0 119.0 L 150.0 120.0 L 150.0 122.0 L 150.0 123.0 L 150.0 125.0 L 150.0 126.0 L 150.0 127.0 L 150.0 128.0 L 150.0 129.0 L 150.0 130.0 L 150.0 131.0 L 150.0 132.0 L 150.0 133.0 L 150.0 134.0 L 150.0 135.0 L 150.0 137.0 L 150.0 138.0 L 149.0 139.0 L 149.0 140.0 L 149.0 142.0 L 149.0 143.0 L 149.0 144.0 L 148.0 145.0 L 148.0 147.0 L 148.0 148.0 L 148.0 149.0 L 147.0 150.0 L 147.0 152.0 L 146.0 153.0 L 146.0 154.0 L 146.0 155.0 L 145.0 156.0 L 145.0 157.0 L 144.0 158.0 L 144.0 159.0 L 143.0 160.0 L 143.0 161.0 L 142.0 161.0 L 142.0 162.0 L 141.0 163.0 L 141.0 164.0 L 141.0 164.0 L 140.0 165.0 L 140.0 165.0 L 139.0 166.0 L 139.0 167.0 L 139.0 167.0 L 138.0 168.0 L 137.0 169.0 L 137.0 170.0 L 136.0 170.0 L 136.0 171.0 L 135.0 172.0 L 134.0 173.0 L 134.0 173.0 L 133.0 174.0 L 133.0 175.0 L 132.0 176.0 L 131.0 177.0 L 131.0 177.0 L 130.0 178.0 L 129.0 179.0 L 128.0 180.0 L 127.0 181.0 L 126.0 182.0 L 125.0 183.0 L 125.0 184.0 L 123.0 185.0 L 122.0 186.0 L 121.0 186.0 L 121.0 187.0 L 120.0 188.0 L 119.0 188.0 L 118.0 189.0 L 117.0 189.0 L 116.0 190.0 L 115.0 190.0 L 114.0 190.0 L 114.0 191.0 L 113.0 191.0 L 112.0 191.0 L 111.0 192.0 L 111.0 192.0 L 110.0 193.0 L 109.0 193.0 L 109.0 193.0 L 108.0 194.0 L 107.0 194.0 L 106.0 195.0 L 105.0 195.0 L 104.0 196.0 L 103.0 196.0 L 102.0 197.0 L 101.0 198.0 L 99.0 198.0 L 98.0 199.0 L 96.0 199.0 L 95.0 200.0 L 93.0 200.0 L 92.0 201.0 L 91.0 201.0 " stroke="black" fill="none" stroke-width="5.0" stroke-linecap="round" stroke-linejoin="round" />
<path d="M 67.0 213.0 L 67.0 213.0 L 68.0 213.0 L 68.0 213.0 L 68.0 213.0 L 69.0 213.0 L 69.0 213.0 L 69.0 213.0 L 69.0 213.0 L 70.0 213.0 L 71.0 213.0 L 71.0 213.0 L 72.0 213.0 L 73.0 213.0 L 74.0 213.0 L 75.0 213.0 L 76.0 212.0 L 77.0 212.0 L 79.0 212.0 L 80.0 212.0 L 82.0 212.0 L 83.0 212.0 L 85.0 212.0 L 87.0 212.0 L 89.0 212.0 L 91.0 212.0 L 93.0 212.0 L 94.0 212.0 L 96.0 212.0 L 98.0 212.0 L 100.0 212.0 L 101.0 212.0 L 103.0 212.0 L 104.0 212.0 L 105.0 212.0 L 106.0 212.0 L 107.0 212.0 L 108.0 212.0 L 108.0 212.0 L 109.0 212.0 L 110.0 212.0 L 111.0 212.0 L 112.0 212.0 L 112.0 212.0 L 113.0 212.0 L 114.0 211.0 L 115.0 211.0 L 115.0 211.0 L 116.0 211.0 L 117.0 211.0 L 118.0 211.0 L 119.0 211.0 L 120.0 211.0 L 120.0 211.0 L 121.0 211.0 L 122.0 211.0 L 123.0 210.0 L 124.0 210.0 L 125.0 210.0 L 126.0 210.0 L 127.0 210.0 L 128.0 210.0 L 129.0 210.0 L 131.0 210.0 L 132.0 210.0 L 133.0 209.0 L 135.0 209.0 L 136.0 209.0 L 137.0 209.0 L 138.0 209.0 L 139.0 209.0 L 140.0 209.0 L 141.0 209.0 L 142.0 209.0 L 143.0 209.0 L 144.0 209.0 L 145.0 209.0 L 145.0 209.0 L 146.0 209.0 L 147.0 209.0 L 148.0 209.0 L 148.0 209.0 L 149.0 209.0 L 150.0 209.0 L 151.0 210.0 L 151.0 210.0 L 152.0 210.0 L 152.0 210.0 L 153.0 210.0 L 154.0 210.0 L 154.0 210.0 L 155.0 210.0 L 156.0 210.0 L 157.0 211.0 L 157.0 211.0 L 158.0 211.0 L 159.0 211.0 L 160.0 211.0 L 162.0 211.0 L 163.0 211.0 L 164.0 211.0 L 165.0 211.0 L 166.0 211.0 L 168.0 211.0 L 169.0 211.0 L 171.0 211.0 L 172.0 211.0 L 174.0 211.0 L 175.0 211.0 L 177.0 211.0 L 179.0 211.0 L 180.0 211.0 L 182.0 211.0 L 184.0 211.0 L 185.0 211.0 L 186.0 210.0 L 188.0 210.0 L 189.0 210.0 L 190.0 210.0 L 191.0 210.0 L 192.0 210.0 L 193.0 210.0 L 194.0 210.0 L 195.0 210.0 L 196.0 210.0 L 197.0 210.0 L 198.0 210.0 L 199.0 210.0 L 200.0 210.0 L 200.0 210.0 L 202.0 210.0 L 203.0 210.0 L 204.0 210.0 L 205.0 210.0 L 207.0 210.0 L 208.0 210.0 L 210.0 210.0 L 212.0 210.0 L 214.0 210.0 L 216.0 210.0 L 218.0 210.0 L 219.0 210.0 L 221.0 210.0 L 223.0 210.0 L 225.0 210.0 L 227.0 210.0 L 228.0 210.0 L 229.0 210.0 L 231.0 211.0 L 232.0 211.0 L 234.0 212.0 L 235.0 212.0 L 236.0 212.0 L 237.0 213.0 L 238.0 213.0 L 239.0 213.0 L 239.0 213.0 L 240.0 213.0 " stroke="black" fill="none" stroke-width="5.0" stroke-linecap="round" stroke-linejoin="round" />
<path d="M 173.0 172.0 L 173.0 172.0 L 173.0 172.0 L 173.0 172.0 L 174.0 172.0 L 174.0 172.0 L 174.0 172.0 L 174.0 172.0 L 174.0 173.0 L 174.0 175.0 L 174.0 177.0 L 173.0 180.0 L 173.0 183.0 L 173.0 187.0 L 172.0 191.0 L 172.0 196.0 L 172.0 200.0 L 171.0 205.0 L 171.0 209.0 L 171.0 214.0 L 171.0 219.0 L 171.0 224.0 L 171.0 230.0 L 171.0 235.0 L 170.0 239.0 L 170.0 242.0 L 170.0 245.0 L 170.0 247.0 L 169.0 249.0 L 169.0 251.0 L 169.0 252.0 L 168.0 254.0 L 168.0 254.0 L 168.0 255.0 L 168.0 255.0 " stroke="black" fill="none" stroke-width="5.0" stroke-linecap="round" stroke-linejoin="round" />
</svg>