<svg xmlns="http://www.w3.org/2000/svg" width="300" height="300" viewBox="0 0 300 300">
<path d="M 65.0 154.0 L 64.0 154.0 L 63.0 154.0 L 62.0 153.0 L 61.0 153.0 L 61.0 153.0 L 61.0 153.0 L 62.0 152.0 L 64.0 152.0 L 67.0 152.0 L 71.0 152.0 L 77.0 152.0 L 86.0 152.0 L 96.0 152.0 L 108.0 153.0 L 123.0 154.0 L 141.0 154.0 L 155.0 155.0 L 168.0 155.0 L 183.0 155.0 L 193.0 155.0 L 200.0 155.0 L 208.0 155.0 L 215.0 155.0 L 222.0 155.0 L 230.0 155.0 L 234.0 155.0 L 237.0 155.0 L 238.0 156.0 " stroke="black" fill="none" stroke-width="5.0" stroke-linecap="round" stroke-linejoin="round" />
<path d="M 91.0 77.0 L 91.0 77.0 L 91.0 77.0 L 90.0 77.0 L 90.0 77.0 L 89.0 77.0 L 89.0 77.0 L 88.0 77.0 L 88.0 78.0 L 88.0 79.0 L 88.0 80.0 L 88.0 82.0 L 88.0 83.0 L 89.0 86.0 L 89.0 88.0 L 90.0 92.0 L 90.0 95.0 L 91.0 99.0 L 91.0 103.0 L 91.0 107.0 L 92.0 111.0 L 92.0 114.0 L 93.0 116.0 L 94.0 119.0 L 94.0 121.0 L 95.0 124.0 L 95.0 127.0 L 95.0 131.0 L 95.0 134.0 L 95.0 139.0 L 94.0 144.0 L 94.0 148.0 L 93.0 153.0 L 93.0 157.0 L 93.0 160.0 L 93.0 164.0 L 93.0 167.0 L 93.0 170.0 L 92.0 174.0 L 92.0 179.0 L 91.0 184.0 L 90.0 190.0 L 88.0 197.0 L 87.0 204.0 L 85.0 210.0 L 83.0 217.0 L 81.0 223.0 L 79.0 228.0 L 77.0 232.0 L 76.0 234.0 L 76.0 235.0 " stroke="black" fill="none" stroke-width="5.0" stroke-linecap="round" stroke-linejoin="round" />
<path d="M 128.0 82.0 L 128.0 83.0 L 128.0 85.0 L 128.0 87.0 L 128.0 90.0 L 128.0 95.0 L 128.0 103.0 L 129.0 111.0 L 129.0 121.0 L 129.0 132.0 L 129.0 145.0 L 129.0 157.0 L 129.0 171.0 L 129.0 184.0 L 129.0 198.0 L 129.0 211.0 L 128.0 223.0 L 128.0 234.0 L 127.0 243.0 L 126.0 248.0 L 125.0 251.0 L 125.0 252.0 " stroke="black" fill="none" stroke-width="5.0" stroke-linecap="round" stroke-linejoin="round" />
<path d="M 163.0 86.0 L 163.0 86.0 L 163.0 86.0 L 163.0 86.0 L 163.0 86.0 L 163.0 87.0 L 163.0 89.0 L 164.0 93.0 L 165.0 100.0 L 166.0 109.0 L 167.0 120.0 L 168.0 132.0 L 168.0 148.0 L 168.0 162.0 L 168.0 176.0 L 167.0 192.0 L 167.0 204.0 L 166.0 214.0 L 166.0 225.0 L 166.0 233.0 L 166.0 240.0 L 166.0 244.0 L 167.0 246.0 L 167.0 246.0 " stroke="black" fill="none" stroke-width="5.0" stroke-linecap="round" stroke-linejoin="round" />
<path d="M 209.0 80.0 L 209.0 80.0 L 208.0 80.0 L 207.0 81.0 L 207.0 82.0 L 207.0 83.0 L 207.0 86.0 L 207.0 92.0 L 208.0 99.0 L 209.0 108.0 L 210.0 119.0 L 211.0 132.0 L 212.0 147.0 L 212.0 162.0 L 211.0 178.0 L 210.0 193.0 L 209.0 206.0 L 209.0 217.0 L 209.0 226.0 L 209.0 234.0 L 209.0 241.0 L 209.0 245.0 L 209.0 248.0 L 210.0 250.0 L 210.0 251.0 L 210.0 251.0 L 210.0 251.0 L 210.0 251.0 L 210.0 250.0 " stroke="black" fill="none" stroke-width="5.0" stroke-linecap="round" stroke-linejoin="round" />
</svg>