<svg xmlns="http://www.w3.org/2000/svg" width="300" height="300" viewBox="0 0 300 300">
<path d="M 84.0 111.0 L 84.0 111.0 L 84.0 111.0 L 84.0 111.0 L 84.0 111.0 L 83.0 111.0 L 83.0 111.0 L 83.0 110.0 L 83.0 110.0 L 82.0 110.0 L 82.0 110.0 L 82.0 110.0 L 82.0 110.0 L 82.0 110.0 L 82.0 110.0 L 82.0 110.0 L 83.0 110.0 L 83.0 110.0 L 84.0 110.0 L 85.0 110.0 L 86.0 110.0 L 87.0 110.0 L 88.0 110.0 L 89.0 110.0 L 91.0 110.0 L 92.0 110.0 L 93.0 110.0 L 95.0 111.0 L 96.0 111.0 L 97.0 111.0 L 99.0 111.0 L 100.0 111.0 L 101.0 111.0 L 102.0 111.0 L 103.0 111.0 L 104.0 111.0 L 105.0 111.0 L 106.0 111.0 L 107.0 111.0 L 108.0 111.0 L 109.0 111.0 L 109.0 111.0 L 110.0 111.0 L 111.0 111.0 L 112.0 111.0 L 112.0 111.0 L 113.0 111.0 L 113.0 111.0 L 114.0 111.0 L 115.0 111.0 L 115.0 111.0 L 116.0 111.0 L 117.0 111.0 L 118.0 111.0 L 118.0 111.0 L 119.0 111.0 L 120.0 111.0 L 121.0 111.0 L 123.0 111.0 L 124.0 111.0 L 125.0 111.0 L 127.0 111.0 L 129.0 110.0 L 130.0 110.0 L 132.0 110.0 L 133.0 109.0 L 135.0 109.0 L 136.0 109.0 L 137.0 109.0 L 138.0 109.0 L 139.0 109.0 L 140.0 109.0 L 141.0 109.0 L 142.0 109.0 L 143.0 109.0 L 144.0 109.0 L 145.0 109.0 L 146.0 108.0 L 147.0 108.0 L 147.0 108.0 L 148.0 108.0 L 148.0 108.0 L 149.0 108.0 L 149.0 108.0 L 150.0 108.0 L 150.0 108.0 L 150.0 108.0 L 151.0 108.0 L 151.0 108.0 L 152.0 108.0 L 152.0 107.0 L 153.0 107.0 L 153.0 107.0 L 153.0 107.0 L 154.0 107.0 L 154.0 107.0 L 155.0 107.0 L 156.0 107.0 L 156.0 107.0 L 157.0 107.0 L 157.0 107.0 L 158.0 107.0 L 159.0 107.0 L 160.0 107.0 L 160.0 107.0 L 161.0 106.0 L 162.0 106.0 L 163.0 106.0 L 164.0 106.0 L 164.0 106.0 L 165.0 106.0 L 166.0 106.0 L 167.0 106.0 L 168.0 106.0 L 168.0 106.0 L 169.0 106.0 L 170.0 105.0 L 171.0 105.0 L 172.0 105.0 L 173.0 105.0 L 174.0 105.0 L 175.0 105.0 L 175.0 105.0 L 176.0 105.0 L 177.0 105.0 L 178.0 105.0 L 179.0 105.0 L 180.0 105.0 L 181.0 105.0 L 182.0 105.0 L 182.0 105.0 L 183.0 105.0 L 184.0 105.0 L 185.0 105.0 L 186.0 105.0 L 186.0 105.0 L 187.0 105.0 L 188.0 105.0 L 189.0 105.0 L 189.0 105.0 L 190.0 105.0 L 190.0 105.0 L 191.0 105.0 L 191.0 105.0 L 192.0 105.0 L 193.0 105.0 L 193.0 105.0 L 194.0 105.0 L 194.0 105.0 L 194.0 105.0 L 195.0 105.0 L 196.0 105.0 L 196.0 105.0 L 197.0 105.0 L 197.0 105.0 L 198.0 105.0 L 198.0 105.0 L 199.0 105.0 L 200.0 105.0 L 201.0 105.0 L 201.0 105.0 L 202.0 105.0 L 203.0 106.0 L 204.0 106.0 L 205.0 106.0 L 206.0 106.0 L 207.0 106.0 L 208.0 107.0 L 209.0 107.0 L 210.0 107.0 L 211.0 107.0 L 212.0 107.0 L 213.0 107.0 L 213.0 107.0 " stroke="black" fill="none" stroke-width="5.0" stroke-linecap="round" stroke-linejoin="round" />
<path d="M 151.0 78.0 L 151.0 78.0 L 151.0 78.0 L 151.0 77.0 L 151.0 77.0 L 151.0 77.0 L 151.0 77.0 L 151.0 77.0 L 151.0 77.0 L 151.0 78.0 L 151.0 79.0 L 151.0 81.0 L 151.0 84.0 L 151.0 89.0 L 150.0 96.0 L 150.0 103.0 L 150.0 111.0 L 149.0 119.0 L 149.0 126.0 L 149.0 133.0 L 149.0 139.0 L 149.0 144.0 L 149.0 148.0 L 149.0 152.0 L 149.0 154.0 L 149.0 155.0 " stroke="black" fill="none" stroke-width="5.0" stroke-linecap="round" stroke-linejoin="round" />
<path d="M 67.0 163.0 L 67.0 163.0 L 67.0 163.0 L 67.0 163.0 L 68.0 163.0 L 68.0 162.0 L 68.0 162.0 L 69.0 162.0 L 69.0 162.0 L 69.0 161.0 L 69.0 161.0 L 70.0 161.0 L 70.0 161.0 L 71.0 161.0 L 71.0 161.0 L 72.0 161.0 L 73.0 161.0 L 73.0 161.0 L 74.0 161.0 L 75.0 161.0 L 76.0 161.0 L 78.0 161.0 L 79.0 161.0 L 81.0 161.0 L 83.0 161.0 L 85.0 161.0 L 87.0 161.0 L 90.0 161.0 L 92.0 162.0 L 94.0 162.0 L 96.0 162.0 L 98.0 162.0 L 99.0 162.0 L 101.0 162.0 L 103.0 162.0 L 104.0 162.0 L 105.0 162.0 L 107.0 162.0 L 108.0 162.0 L 109.0 162.0 L 110.0 162.0 L 111.0 162.0 L 112.0 162.0 L 113.0 162.0 L 114.0 162.0 L 115.0 162.0 L 116.0 162.0 L 117.0 162.0 L 118.0 162.0 L 119.0 162.0 L 121.0 162.0 L 122.0 162.0 L 124.0 162.0 L 126.0 162.0 L 127.0 162.0 L 129.0 162.0 L 131.0 162.0 L 133.0 162.0 L 135.0 162.0 L 137.0 162.0 L 139.0 161.0 L 141.0 161.0 L 143.0 161.0 L 144.0 161.0 L 146.0 161.0 L 148.0 161.0 L 149.0 161.0 L 150.0 161.0 L 151.0 161.0 L 152.0 161.0 L 152.0 161.0 L 153.0 161.0 L 154.0 161.0 L 155.0 161.0 L 155.0 161.0 L 156.0 161.0 L 157.0 161.0 L 158.0 160.0 L 160.0 160.0 L 161.0 160.0 L 162.0 160.0 L 164.0 160.0 L 165.0 159.0 L 166.0 159.0 L 167.0 159.0 L 169.0 159.0 L 170.0 159.0 L 171.0 159.0 L 173.0 159.0 L 174.0 159.0 L 176.0 159.0 L 177.0 159.0 L 178.0 159.0 L 180.0 159.0 L 181.0 159.0 L 182.0 159.0 L 184.0 159.0 L 185.0 159.0 L 186.0 159.0 L 187.0 159.0 L 188.0 159.0 L 189.0 159.0 L 190.0 159.0 L 191.0 159.0 L 192.0 159.0 L 192.0 159.0 L 193.0 160.0 L 193.0 160.0 L 194.0 160.0 L 194.0 160.0 L 195.0 160.0 L 195.0 160.0 L 196.0 160.0 L 197.0 160.0 L 197.0 160.0 L 198.0 160.0 L 198.0 160.0 L 199.0 160.0 L 199.0 160.0 L 200.0 160.0 L 201.0 160.0 L 202.0 160.0 L 202.0 160.0 L 203.0 160.0 L 204.0 160.0 L 205.0 160.0 L 206.0 160.0 L 207.0 160.0 L 209.0 160.0 L 210.0 160.0 L 211.0 161.0 L 213.0 161.0 L 214.0 161.0 L 216.0 161.0 L 217.0 161.0 L 219.0 161.0 L 220.0 161.0 L 222.0 161.0 L 223.0 161.0 L 225.0 161.0 L 226.0 161.0 L 227.0 161.0 L 229.0 161.0 L 230.0 161.0 L 231.0 161.0 L 232.0 161.0 L 233.0 160.0 L 233.0 160.0 " stroke="black" fill="none" stroke-width="5.0" stroke-linecap="round" stroke-linejoin="round" />
<path d="M 134.0 169.0 L 134.0 169.0 L 135.0 169.0 L 135.0 169.0 L 135.0 169.0 L 136.0 169.0 L 136.0 169.0 L 136.0 169.0 L 136.0 169.0 L 136.0 169.0 L 136.0 169.0 L 136.0 170.0 L 136.0 170.0 L 136.0 170.0 L 135.0 170.0 L 134.0 171.0 L 133.0 172.0 L 132.0 173.0 L 130.0 175.0 L 129.0 177.0 L 126.0 180.0 L 124.0 183.0 L 122.0 186.0 L 119.0 190.0 L 117.0 194.0 L 115.0 197.0 L 114.0 199.0 L 113.0 202.0 L 112.0 204.0 L 111.0 205.0 L 110.0 207.0 L 108.0 209.0 L 107.0 211.0 L 106.0 213.0 L 104.0 216.0 L 103.0 218.0 L 101.0 221.0 L 100.0 224.0 L 98.0 227.0 L 96.0 230.0 L 95.0 232.0 L 93.0 234.0 L 92.0 236.0 L 90.0 237.0 L 89.0 239.0 L 87.0 240.0 L 86.0 241.0 L 85.0 242.0 L 83.0 243.0 L 82.0 244.0 L 81.0 245.0 L 80.0 246.0 L 79.0 247.0 L 78.0 248.0 L 77.0 248.0 L 77.0 249.0 L 77.0 249.0 L 77.0 249.0 L 77.0 249.0 L 77.0 249.0 L 77.0 249.0 L 78.0 249.0 L 79.0 249.0 L 80.0 249.0 L 81.0 249.0 L 82.0 249.0 L 84.0 249.0 L 86.0 249.0 L 87.0 248.0 L 89.0 248.0 L 92.0 248.0 L 94.0 247.0 L 97.0 247.0 L 99.0 246.0 L 102.0 246.0 L 104.0 245.0 L 107.0 245.0 L 109.0 244.0 L 112.0 243.0 L 114.0 243.0 L 117.0 242.0 L 119.0 242.0 L 123.0 241.0 L 126.0 241.0 L 129.0 240.0 L 132.0 240.0 L 136.0 239.0 L 138.0 239.0 L 141.0 239.0 L 144.0 238.0 L 146.0 238.0 L 148.0 238.0 L 150.0 237.0 L 152.0 237.0 L 153.0 237.0 L 155.0 236.0 L 157.0 236.0 L 158.0 236.0 L 161.0 236.0 L 163.0 236.0 L 165.0 236.0 L 167.0 236.0 L 170.0 236.0 L 172.0 236.0 L 174.0 236.0 L 177.0 235.0 L 179.0 235.0 L 181.0 235.0 L 183.0 235.0 L 185.0 234.0 L 187.0 234.0 L 188.0 233.0 L 190.0 233.0 L 191.0 232.0 L 192.0 232.0 L 193.0 231.0 L 194.0 231.0 L 194.0 230.0 L 195.0 230.0 L 195.0 230.0 L 195.0 230.0 L 196.0 230.0 L 196.0 230.0 L 196.0 230.0 " stroke="black" fill="none" stroke-width="5.0" stroke-linecap="round" stroke-linejoin="round" />
<path d="M 189.0 192.0 L 189.0 192.0 L 189.0 191.0 L 189.0 191.0 L 188.0 190.0 L 188.0 189.0 L 187.0 189.0 L 187.0 189.0 L 187.0 188.0 L 187.0 188.0 L 187.0 188.0 L 187.0 189.0 L 187.0 190.0 L 188.0 192.0 L 189.0 194.0 L 190.0 197.0 L 192.0 201.0 L 193.0 205.0 L 195.0 209.0 L 198.0 215.0 L 200.0 221.0 L 203.0 228.0 L 206.0 233.0 L 208.0 237.0 L 210.0 240.0 L 212.0 242.0 L 213.0 243.0 L 214.0 243.0 L 215.0 244.0 L 216.0 244.0 L 216.0 244.0 L 216.0 245.0 L 216.0 246.0 " stroke="black" fill="none" stroke-width="5.0" stroke-linecap="round" stroke-linejoin="round" />
</svg>