<svg xmlns="http://www.w3.org/2000/svg" width="300" height="300" viewBox="0 0 300 300">
<path d="M 85.0 82.0 L 85.0 82.0 L 85.0 82.0 L 85.0 82.0 L 85.0 82.0 L 85.0 82.0 L 85.0 82.0 L 85.0 81.0 L 85.0 81.0 L 85.0 81.0 L 85.0 81.0 L 85.0 81.0 L 85.0 81.0 L 85.0 81.0 L 85.0 81.0 L 85.0 81.0 L 85.0 81.0 L 85.0 81.0 L 85.0 80.0 L 85.0 80.0 L 86.0 80.0 L 87.0 80.0 L 87.0 80.0 L 88.0 80.0 L 89.0 80.0 L 90.0 80.0 L 91.0 80.0 L 92.0 80.0 L 93.0 80.0 L 93.0 80.0 L 94.0 80.0 L 95.0 80.0 L 96.0 80.0 L 96.0 80.0 L 97.0 80.0 L 98.0 80.0 L 98.0 80.0 L 99.0 80.0 L 99.0 80.0 L 100.0 80.0 L 100.0 80.0 L 101.0 80.0 L 101.0 80.0 L 102.0 80.0 L 102.0 80.0 L 103.0 80.0 L 103.0 80.0 L 104.0 80.0 L 104.0 80.0 L 105.0 80.0 L 105.0 80.0 L 105.0 80.0 L 106.0 80.0 L 107.0 80.0 L 107.0 80.0 L 108.0 80.0 L 108.0 80.0 L 109.0 80.0 L 110.0 80.0 L 110.0 80.0 L 111.0 80.0 L 112.0 80.0 L 113.0 80.0 L 114.0 79.0 L 115.0 79.0 L 117.0 79.0 L 118.0 79.0 L 120.0 79.0 L 122.0 78.0 L 123.0 78.0 L 125.0 78.0 L 127.0 78.0 L 128.0 77.0 L 130.0 77.0 L 131.0 77.0 L 132.0 77.0 L 133.0 77.0 L 134.0 77.0 L 135.0 77.0 L 136.0 77.0 L 137.0 77.0 L 138.0 77.0 L 139.0 77.0 L 140.0 77.0 L 141.0 77.0 L 142.0 77.0 L 142.0 77.0 L 143.0 77.0 L 144.0 77.0 L 145.0 77.0 L 145.0 77.0 L 146.0 77.0 L 147.0 77.0 L 148.0 77.0 L 148.0 77.0 L 149.0 77.0 L 150.0 77.0 L 150.0 77.0 L 151.0 77.0 L 152.0 77.0 L 152.0 77.0 L 153.0 77.0 L 153.0 77.0 L 154.0 77.0 L 154.0 77.0 L 155.0 77.0 L 155.0 77.0 L 156.0 77.0 L 156.0 77.0 L 157.0 77.0 L 157.0 77.0 L 158.0 77.0 L 158.0 77.0 L 159.0 77.0 L 159.0 77.0 L 160.0 77.0 L 161.0 77.0 L 161.0 77.0 L 162.0 77.0 L 162.0 77.0 L 163.0 77.0 L 164.0 77.0 L 164.0 77.0 L 165.0 77.0 L 166.0 78.0 L 166.0 78.0 L 167.0 78.0 L 168.0 78.0 L 168.0 78.0 L 169.0 78.0 L 170.0 78.0 L 170.0 78.0 L 171.0 78.0 L 172.0 78.0 L 173.0 78.0 L 173.0 78.0 L 174.0 78.0 L 175.0 78.0 L 176.0 78.0 L 177.0 78.0 L 178.0 78.0 L 178.0 78.0 L 179.0 78.0 L 180.0 78.0 L 180.0 78.0 L 181.0 78.0 L 182.0 78.0 L 182.0 79.0 L 183.0 79.0 L 184.0 79.0 L 184.0 79.0 L 185.0 79.0 L 185.0 79.0 L 186.0 79.0 L 187.0 79.0 L 187.0 79.0 L 188.0 79.0 L 188.0 79.0 L 189.0 79.0 L 189.0 79.0 L 190.0 80.0 L 190.0 80.0 L 191.0 80.0 L 191.0 80.0 L 192.0 80.0 L 192.0 80.0 L 193.0 80.0 L 193.0 80.0 L 193.0 80.0 L 194.0 80.0 L 194.0 80.0 L 194.0 80.0 L 195.0 80.0 L 195.0 80.0 L 195.0 80.0 L 196.0 80.0 L 196.0 80.0 L 197.0 80.0 L 197.0 80.0 L 198.0 80.0 L 198.0 80.0 L 198.0 80.0 L 199.0 80.0 L 200.0 80.0 L 200.0 80.0 L 201.0 80.0 L 201.0 80.0 L 202.0 80.0 L 203.0 80.0 L 203.0 80.0 L 204.0 80.0 L 204.0 80.0 L 205.0 80.0 L 206.0 80.0 L 206.0 80.0 L 207.0 80.0 L 208.0 80.0 L 209.0 80.0 L 209.0 80.0 L 210.0 80.0 L 211.0 80.0 L 212.0 80.0 L 212.0 80.0 L 213.0 80.0 L 214.0 80.0 L 214.0 80.0 L 215.0 80.0 L 216.0 80.0 L 217.0 80.0 L 218.0 80.0 L 218.0 80.0 L 219.0 80.0 L 220.0 80.0 L 221.0 80.0 L 222.0 80.0 L 223.0 80.0 L 223.0 80.0 L 224.0 80.0 L 225.0 80.0 L 225.0 80.0 L 226.0 79.0 L 227.0 79.0 L 228.0 79.0 L 229.0 79.0 L 229.0 79.0 L 230.0 79.0 L 230.0 79.0 L 231.0 79.0 L 231.0 79.0 L 232.0 79.0 L 232.0 79.0 L 232.0 79.0 " stroke="black" fill="none" stroke-width="5.0" stroke-linecap="round" stroke-linejoin="round" />
<path d="M 76.0 79.0 L 76.0 79.0 L 76.0 79.0 L 76.0 79.0 L 76.0 79.0 L 76.0 79.0 L 76.0 79.0 L 76.0 80.0 L 76.0 80.0 L 76.0 81.0 L 76.0 82.0 L 76.0 83.0 L 76.0 84.0 L 76.0 86.0 L 77.0 88.0 L 77.0 90.0 L 77.0 93.0 L 77.0 95.0 L 77.0 98.0 L 77.0 101.0 L 77.0 104.0 L 77.0 107.0 L 77.0 109.0 L 77.0 112.0 L 77.0 114.0 L 77.0 116.0 L 77.0 118.0 L 77.0 120.0 L 77.0 121.0 L 77.0 123.0 L 77.0 125.0 L 77.0 126.0 L 77.0 128.0 L 77.0 130.0 L 77.0 131.0 L 77.0 133.0 L 77.0 134.0 L 77.0 136.0 L 77.0 138.0 L 77.0 140.0 L 77.0 143.0 L 77.0 145.0 L 76.0 147.0 L 76.0 150.0 L 76.0 152.0 L 76.0 154.0 L 76.0 157.0 L 75.0 159.0 L 75.0 161.0 L 75.0 163.0 L 75.0 165.0 L 75.0 168.0 L 74.0 170.0 L 74.0 172.0 L 74.0 175.0 L 74.0 177.0 L 74.0 180.0 L 74.0 184.0 L 74.0 187.0 L 74.0 191.0 L 74.0 195.0 L 74.0 199.0 L 74.0 203.0 L 74.0 206.0 L 74.0 210.0 L 74.0 213.0 L 73.0 216.0 L 71.0 220.0 L 70.0 224.0 L 68.0 228.0 L 66.0 233.0 L 64.0 237.0 L 62.0 242.0 L 60.0 245.0 L 59.0 249.0 L 58.0 252.0 " stroke="black" fill="none" stroke-width="5.0" stroke-linecap="round" stroke-linejoin="round" />
<path d="M 106.0 108.0 L 106.0 108.0 L 106.0 108.0 L 106.0 108.0 L 105.0 108.0 L 105.0 109.0 L 105.0 109.0 L 105.0 111.0 L 105.0 114.0 L 105.0 117.0 L 105.0 122.0 L 105.0 126.0 L 105.0 131.0 L 105.0 136.0 L 105.0 140.0 L 105.0 143.0 L 105.0 144.0 L 105.0 144.0 L 105.0 144.0 L 105.0 144.0 " stroke="black" fill="none" stroke-width="5.0" stroke-linecap="round" stroke-linejoin="round" />
<path d="M 106.0 111.0 L 105.0 111.0 L 105.0 110.0 L 104.0 110.0 L 103.0 110.0 L 103.0 109.0 L 103.0 109.0 L 103.0 109.0 L 104.0 109.0 L 104.0 108.0 L 105.0 108.0 L 107.0 108.0 L 108.0 107.0 L 110.0 107.0 L 112.0 106.0 L 115.0 106.0 L 118.0 106.0 L 122.0 105.0 L 127.0 104.0 L 132.0 104.0 L 137.0 103.0 L 141.0 102.0 L 145.0 102.0 L 147.0 102.0 L 150.0 102.0 L 151.0 102.0 L 152.0 103.0 L 152.0 104.0 L 153.0 105.0 L 153.0 106.0 L 153.0 108.0 L 153.0 110.0 L 153.0 112.0 L 153.0 115.0 L 153.0 118.0 L 153.0 122.0 L 153.0 126.0 L 153.0 131.0 L 152.0 135.0 L 152.0 140.0 L 152.0 144.0 L 151.0 147.0 L 151.0 147.0 " stroke="black" fill="none" stroke-width="5.0" stroke-linecap="round" stroke-linejoin="round" />
<path d="M 112.0 124.0 L 111.0 124.0 L 110.0 124.0 L 109.0 125.0 L 109.0 125.0 L 109.0 125.0 L 109.0 125.0 L 110.0 125.0 L 112.0 125.0 L 115.0 125.0 L 119.0 125.0 L 125.0 125.0 L 130.0 124.0 L 136.0 124.0 L 141.0 123.0 L 144.0 123.0 " stroke="black" fill="none" stroke-width="5.0" stroke-linecap="round" stroke-linejoin="round" />
<path d="M 114.0 144.0 L 112.0 144.0 L 110.0 145.0 L 108.0 145.0 L 108.0 146.0 L 107.0 146.0 L 107.0 146.0 L 108.0 146.0 L 110.0 146.0 L 113.0 146.0 L 117.0 145.0 L 123.0 144.0 L 129.0 143.0 L 135.0 142.0 L 138.0 141.0 " stroke="black" fill="none" stroke-width="5.0" stroke-linecap="round" stroke-linejoin="round" />
<path d="M 95.0 177.0 L 95.0 177.0 L 95.0 177.0 L 95.0 177.0 L 95.0 178.0 L 96.0 179.0 L 96.0 180.0 L 97.0 181.0 L 97.0 183.0 L 98.0 185.0 L 99.0 187.0 L 99.0 190.0 L 100.0 194.0 L 100.0 198.0 L 100.0 203.0 L 100.0 209.0 L 100.0 216.0 L 99.0 222.0 L 97.0 230.0 L 96.0 235.0 L 95.0 239.0 L 94.0 242.0 L 93.0 242.0 " stroke="black" fill="none" stroke-width="5.0" stroke-linecap="round" stroke-linejoin="round" />
<path d="M 104.0 171.0 L 104.0 171.0 L 104.0 171.0 L 104.0 171.0 L 104.0 171.0 L 104.0 171.0 L 104.0 171.0 L 104.0 171.0 L 104.0 171.0 L 104.0 171.0 L 105.0 171.0 L 106.0 170.0 L 108.0 170.0 L 110.0 170.0 L 113.0 169.0 L 116.0 169.0 L 120.0 168.0 L 124.0 167.0 L 129.0 166.0 L 133.0 165.0 L 136.0 165.0 L 139.0 164.0 L 141.0 164.0 L 144.0 163.0 L 146.0 163.0 L 148.0 163.0 L 149.0 162.0 L 151.0 162.0 L 152.0 162.0 L 153.0 162.0 L 154.0 162.0 L 155.0 162.0 L 155.0 162.0 L 155.0 163.0 L 155.0 164.0 L 155.0 166.0 L 155.0 168.0 L 155.0 170.0 L 155.0 173.0 L 155.0 176.0 L 155.0 180.0 L 155.0 184.0 L 155.0 189.0 L 154.0 195.0 L 154.0 201.0 L 154.0 206.0 L 154.0 213.0 L 154.0 218.0 L 153.0 224.0 L 153.0 229.0 L 153.0 233.0 L 152.0 235.0 L 152.0 237.0 L 152.0 237.0 L 151.0 237.0 L 151.0 237.0 L 150.0 237.0 L 150.0 236.0 L 149.0 236.0 L 148.0 235.0 L 147.0 234.0 L 145.0 233.0 " stroke="black" fill="none" stroke-width="5.0" stroke-linecap="round" stroke-linejoin="round" />
<path d="M 116.0 189.0 L 116.0 189.0 L 115.0 189.0 L 114.0 189.0 L 114.0 189.0 L 113.0 189.0 L 113.0 189.0 L 113.0 189.0 L 113.0 189.0 L 115.0 189.0 L 118.0 189.0 L 121.0 189.0 L 125.0 190.0 L 129.0 191.0 L 133.0 191.0 L 137.0 192.0 L 140.0 193.0 L 143.0 195.0 L 144.0 197.0 L 144.0 200.0 L 144.0 202.0 L 142.0 206.0 " stroke="black" fill="none" stroke-width="5.0" stroke-linecap="round" stroke-linejoin="round" />
<path d="M 117.0 221.0 L 115.0 221.0 L 112.0 222.0 L 110.0 222.0 L 109.0 223.0 L 108.0 223.0 L 108.0 223.0 L 108.0 223.0 L 108.0 223.0 L 109.0 222.0 L 112.0 220.0 L 116.0 218.0 L 121.0 215.0 L 127.0 211.0 L 135.0 208.0 L 142.0 204.0 L 145.0 202.0 " stroke="black" fill="none" stroke-width="5.0" stroke-linecap="round" stroke-linejoin="round" />
<path d="M 187.0 151.0 L 185.0 151.0 L 184.0 151.0 L 182.0 151.0 L 181.0 151.0 L 181.0 151.0 L 181.0 151.0 L 181.0 151.0 L 182.0 151.0 L 184.0 151.0 L 186.0 151.0 L 189.0 151.0 L 193.0 151.0 L 198.0 151.0 L 204.0 151.0 L 211.0 151.0 L 219.0 151.0 L 228.0 150.0 L 235.0 148.0 L 240.0 146.0 " stroke="black" fill="none" stroke-width="5.0" stroke-linecap="round" stroke-linejoin="round" />
<path d="M 211.0 103.0 L 210.0 103.0 L 210.0 104.0 L 210.0 104.0 L 209.0 105.0 L 209.0 106.0 L 209.0 107.0 L 209.0 109.0 L 209.0 111.0 L 209.0 114.0 L 209.0 118.0 L 209.0 123.0 L 209.0 129.0 L 208.0 136.0 L 207.0 144.0 L 206.0 152.0 L 206.0 160.0 L 205.0 167.0 L 204.0 174.0 L 203.0 182.0 L 201.0 190.0 L 200.0 197.0 L 198.0 204.0 L 196.0 211.0 L 194.0 216.0 L 191.0 222.0 L 189.0 228.0 L 187.0 232.0 L 184.0 235.0 L 181.0 237.0 L 179.0 237.0 L 178.0 237.0 " stroke="black" fill="none" stroke-width="5.0" stroke-linecap="round" stroke-linejoin="round" />
<path d="M 209.0 162.0 L 209.0 162.0 L 208.0 161.0 L 207.0 161.0 L 207.0 160.0 L 207.0 160.0 L 207.0 159.0 L 206.0 159.0 L 206.0 160.0 L 206.0 162.0 L 206.0 164.0 L 206.0 168.0 L 206.0 173.0 L 207.0 179.0 L 209.0 187.0 L 210.0 194.0 L 213.0 202.0 L 217.0 210.0 L 220.0 216.0 L 224.0 223.0 L 228.0 230.0 L 231.0 235.0 L 233.0 239.0 L 236.0 242.0 L 238.0 244.0 L 239.0 245.0 L 241.0 246.0 L 243.0 246.0 L 243.0 245.0 " stroke="black" fill="none" stroke-width="5.0" stroke-linecap="round" stroke-linejoin="round" />
<path d="M 223.0 113.0 L 223.0 113.0 L 223.0 113.0 L 222.0 113.0 L 222.0 113.0 L 222.0 113.0 L 222.0 113.0 L 223.0 114.0 L 224.0 116.0 L 227.0 119.0 L 229.0 122.0 L 231.0 126.0 L 233.0 129.0 L 235.0 133.0 L 236.0 134.0 " stroke="black" fill="none" stroke-width="5.0" stroke-linecap="round" stroke-linejoin="round" />
</svg>