<svg xmlns="http://www.w3.org/2000/svg" width="300" height="300" viewBox="0 0 300 300">
<path d="M 83.0 82.0 L 82.0 82.0 L 82.0 80.0 L 82.0 80.0 L 82.0 79.0 L 82.0 79.0 L 82.0 79.0 L 82.0 79.0 L 83.0 79.0 L 84.0 81.0 L 85.0 82.0 L 86.0 85.0 L 87.0 89.0 L 89.0 93.0 L 89.0 99.0 L 90.0 106.0 L 90.0 114.0 L 90.0 124.0 L 89.0 137.0 L 87.0 151.0 L 83.0 166.0 L 80.0 180.0 L 76.0 195.0 L 72.0 207.0 L 68.0 216.0 L 65.0 224.0 L 63.0 231.0 L 62.0 235.0 L 60.0 237.0 L 59.0 238.0 L 59.0 238.0 " stroke="black" fill="none" stroke-width="5.0" stroke-linecap="round" stroke-linejoin="round" />
<path d="M 94.0 78.0 L 93.0 78.0 L 92.0 78.0 L 90.0 78.0 L 88.0 78.0 L 86.0 78.0 L 85.0 78.0 L 84.0 78.0 L 83.0 78.0 L 83.0 78.0 L 83.0 78.0 L 83.0 78.0 L 84.0 78.0 L 85.0 78.0 L 87.0 78.0 L 89.0 78.0 L 92.0 78.0 L 94.0 78.0 L 97.0 78.0 L 99.0 77.0 L 102.0 77.0 L 105.0 77.0 L 107.0 76.0 L 110.0 76.0 L 113.0 76.0 L 117.0 75.0 L 120.0 75.0 L 124.0 75.0 L 128.0 75.0 L 133.0 75.0 L 137.0 75.0 L 141.0 75.0 L 144.0 75.0 L 147.0 75.0 L 149.0 75.0 L 151.0 75.0 L 153.0 75.0 L 154.0 75.0 L 155.0 75.0 L 156.0 75.0 L 157.0 75.0 L 158.0 75.0 L 160.0 75.0 L 161.0 75.0 L 162.0 75.0 L 164.0 75.0 L 166.0 75.0 L 168.0 75.0 L 169.0 75.0 L 172.0 75.0 L 174.0 75.0 L 175.0 75.0 L 177.0 75.0 L 179.0 75.0 L 180.0 75.0 L 182.0 75.0 L 183.0 75.0 L 185.0 75.0 L 186.0 75.0 L 187.0 75.0 L 188.0 75.0 L 190.0 75.0 L 191.0 75.0 L 192.0 75.0 L 193.0 75.0 L 194.0 75.0 L 195.0 75.0 L 196.0 75.0 L 198.0 75.0 L 199.0 75.0 L 200.0 75.0 L 201.0 75.0 L 203.0 75.0 L 205.0 75.0 L 206.0 75.0 L 208.0 75.0 L 210.0 75.0 L 211.0 74.0 L 213.0 74.0 L 214.0 74.0 L 216.0 74.0 L 217.0 74.0 L 218.0 74.0 L 219.0 74.0 L 220.0 74.0 L 221.0 74.0 L 221.0 74.0 L 222.0 75.0 L 222.0 75.0 L 223.0 75.0 L 223.0 76.0 L 223.0 77.0 L 223.0 77.0 L 223.0 78.0 L 224.0 80.0 L 224.0 81.0 L 224.0 83.0 L 224.0 85.0 L 224.0 88.0 L 224.0 91.0 L 224.0 95.0 L 224.0 98.0 L 223.0 103.0 L 223.0 107.0 L 223.0 112.0 L 223.0 116.0 L 223.0 121.0 L 223.0 125.0 L 223.0 130.0 L 223.0 136.0 L 223.0 141.0 L 223.0 147.0 L 223.0 154.0 L 223.0 159.0 L 224.0 164.0 L 224.0 169.0 L 224.0 173.0 L 224.0 177.0 L 224.0 182.0 L 224.0 186.0 L 224.0 189.0 L 224.0 193.0 L 225.0 195.0 L 225.0 198.0 L 225.0 201.0 L 225.0 203.0 L 225.0 206.0 L 225.0 208.0 L 225.0 210.0 L 225.0 212.0 L 225.0 215.0 L 225.0 217.0 L 225.0 220.0 L 225.0 222.0 L 224.0 225.0 L 224.0 227.0 L 223.0 229.0 L 223.0 231.0 L 222.0 233.0 L 222.0 234.0 L 222.0 235.0 L 221.0 236.0 L 221.0 237.0 L 221.0 237.0 L 220.0 238.0 L 220.0 239.0 L 220.0 239.0 L 219.0 239.0 L 219.0 240.0 L 218.0 240.0 L 218.0 240.0 L 217.0 241.0 L 217.0 241.0 L 216.0 241.0 L 215.0 241.0 L 215.0 241.0 L 214.0 242.0 L 213.0 242.0 L 212.0 243.0 L 211.0 244.0 L 210.0 244.0 L 209.0 245.0 L 207.0 245.0 L 205.0 246.0 L 203.0 246.0 L 200.0 247.0 L 197.0 247.0 " stroke="black" fill="none" stroke-width="5.0" stroke-linecap="round" stroke-linejoin="round" />
<path d="M 109.0 117.0 L 108.0 117.0 L 106.0 117.0 L 105.0 117.0 L 104.0 117.0 L 103.0 117.0 L 102.0 117.0 L 102.0 117.0 L 102.0 117.0 L 104.0 117.0 L 106.0 117.0 L 110.0 118.0 L 116.0 118.0 L 124.0 118.0 L 133.0 118.0 L 144.0 118.0 L 154.0 118.0 L 165.0 117.0 L 175.0 116.0 L 183.0 115.0 L 189.0 115.0 L 193.0 115.0 L 194.0 115.0 L 195.0 115.0 L 195.0 116.0 L 195.0 116.0 " stroke="black" fill="none" stroke-width="5.0" stroke-linecap="round" stroke-linejoin="round" />
<path d="M 152.0 93.0 L 151.0 93.0 L 150.0 93.0 L 150.0 93.0 L 149.0 94.0 L 149.0 95.0 L 149.0 98.0 L 149.0 101.0 L 150.0 107.0 L 150.0 113.0 L 150.0 121.0 L 150.0 129.0 L 150.0 137.0 L 149.0 144.0 L 148.0 150.0 L 147.0 154.0 L 146.0 155.0 L 145.0 156.0 " stroke="black" fill="none" stroke-width="5.0" stroke-linecap="round" stroke-linejoin="round" />
<path d="M 110.0 148.0 L 108.0 148.0 L 105.0 148.0 L 102.0 148.0 L 100.0 148.0 L 98.0 149.0 L 96.0 150.0 L 96.0 150.0 L 95.0 150.0 L 95.0 150.0 L 96.0 150.0 L 99.0 150.0 L 101.0 150.0 L 105.0 149.0 L 108.0 149.0 L 114.0 148.0 L 121.0 147.0 L 130.0 146.0 L 140.0 145.0 L 150.0 143.0 L 160.0 142.0 L 171.0 141.0 L 180.0 140.0 L 188.0 140.0 L 194.0 140.0 L 198.0 141.0 L 200.0 141.0 L 202.0 141.0 L 204.0 142.0 L 205.0 142.0 L 206.0 142.0 " stroke="black" fill="none" stroke-width="5.0" stroke-linecap="round" stroke-linejoin="round" />
<path d="M 119.0 187.0 L 118.0 185.0 L 117.0 184.0 L 117.0 182.0 L 116.0 181.0 L 116.0 181.0 L 116.0 180.0 L 116.0 180.0 L 117.0 181.0 L 118.0 183.0 L 118.0 186.0 L 119.0 190.0 L 120.0 195.0 L 120.0 200.0 L 120.0 205.0 L 120.0 211.0 L 120.0 216.0 L 120.0 220.0 L 120.0 224.0 L 120.0 226.0 L 119.0 226.0 L 119.0 225.0 L 119.0 223.0 L 119.0 221.0 " stroke="black" fill="none" stroke-width="5.0" stroke-linecap="round" stroke-linejoin="round" />
<path d="M 116.0 190.0 L 116.0 189.0 L 115.0 187.0 L 114.0 185.0 L 114.0 183.0 L 113.0 182.0 L 113.0 181.0 L 113.0 181.0 L 114.0 180.0 L 116.0 180.0 L 118.0 180.0 L 122.0 179.0 L 127.0 179.0 L 133.0 178.0 L 141.0 178.0 L 148.0 177.0 L 156.0 176.0 L 164.0 174.0 L 173.0 173.0 L 181.0 172.0 L 188.0 171.0 L 192.0 171.0 L 195.0 171.0 L 196.0 171.0 L 196.0 173.0 L 196.0 175.0 L 196.0 177.0 L 196.0 181.0 L 194.0 185.0 L 193.0 189.0 L 191.0 194.0 L 188.0 199.0 L 185.0 203.0 L 181.0 207.0 L 178.0 210.0 L 175.0 212.0 L 172.0 213.0 L 168.0 214.0 L 164.0 215.0 " stroke="black" fill="none" stroke-width="5.0" stroke-linecap="round" stroke-linejoin="round" />
<path d="M 137.0 216.0 L 135.0 216.0 L 129.0 216.0 L 125.0 217.0 L 121.0 218.0 L 118.0 218.0 L 117.0 219.0 L 116.0 219.0 L 116.0 219.0 L 116.0 219.0 L 118.0 219.0 L 121.0 219.0 L 126.0 219.0 L 132.0 218.0 L 140.0 217.0 L 147.0 216.0 L 153.0 214.0 L 161.0 213.0 L 169.0 211.0 L 177.0 210.0 L 185.0 209.0 L 190.0 208.0 L 193.0 208.0 L 195.0 208.0 L 195.0 208.0 L 195.0 209.0 " stroke="black" fill="none" stroke-width="5.0" stroke-linecap="round" stroke-linejoin="round" />
</svg>