<svg xmlns="http://www.w3.org/2000/svg" width="300" height="300" viewBox="0 0 300 300">
<path d="M 69.0 99.0 L 69.0 99.0 L 69.0 99.0 L 69.0 99.0 L 69.0 99.0 L 69.0 99.0 L 68.0 99.0 L 68.0 99.0 L 68.0 99.0 L 68.0 99.0 L 68.0 99.0 L 68.0 100.0 L 68.0 101.0 L 68.0 102.0 L 68.0 103.0 L 68.0 105.0 L 68.0 108.0 L 68.0 110.0 L 68.0 113.0 L 68.0 117.0 L 68.0 120.0 L 68.0 124.0 L 68.0 128.0 L 68.0 132.0 L 68.0 136.0 L 68.0 141.0 L 68.0 145.0 L 68.0 149.0 L 68.0 153.0 L 68.0 157.0 L 68.0 161.0 L 68.0 165.0 L 68.0 168.0 L 68.0 172.0 L 68.0 177.0 L 68.0 181.0 L 68.0 187.0 L 68.0 193.0 L 68.0 198.0 L 68.0 203.0 L 68.0 207.0 L 68.0 208.0 " stroke="black" fill="none" stroke-width="5.0" stroke-linecap="round" stroke-linejoin="round" />
<path d="M 69.0 96.0 L 69.0 96.0 L 69.0 96.0 L 69.0 96.0 L 69.0 96.0 L 68.0 96.0 L 68.0 96.0 L 68.0 96.0 L 67.0 96.0 L 67.0 95.0 L 67.0 95.0 L 67.0 95.0 L 67.0 95.0 L 67.0 95.0 L 67.0 95.0 L 67.0 95.0 L 67.0 95.0 L 68.0 95.0 L 69.0 95.0 L 70.0 94.0 L 72.0 94.0 L 74.0 94.0 L 75.0 94.0 L 77.0 94.0 L 79.0 94.0 L 81.0 94.0 L 83.0 94.0 L 85.0 94.0 L 87.0 94.0 L 89.0 94.0 L 91.0 94.0 L 94.0 94.0 L 96.0 94.0 L 98.0 94.0 L 100.0 94.0 L 102.0 94.0 L 103.0 94.0 L 104.0 94.0 L 105.0 94.0 L 106.0 95.0 L 107.0 95.0 L 107.0 95.0 L 107.0 95.0 L 108.0 96.0 L 108.0 96.0 L 108.0 96.0 L 108.0 96.0 L 108.0 97.0 L 108.0 97.0 L 108.0 98.0 L 108.0 99.0 L 108.0 99.0 L 108.0 100.0 L 108.0 101.0 L 108.0 102.0 L 108.0 103.0 L 108.0 105.0 L 108.0 107.0 L 108.0 108.0 L 108.0 110.0 L 108.0 112.0 L 108.0 114.0 L 108.0 116.0 L 108.0 118.0 L 108.0 121.0 L 108.0 124.0 L 108.0 127.0 L 108.0 131.0 L 108.0 135.0 L 108.0 139.0 L 107.0 143.0 L 107.0 147.0 L 107.0 151.0 L 107.0 154.0 L 107.0 158.0 L 107.0 161.0 L 107.0 164.0 L 107.0 168.0 L 107.0 170.0 L 107.0 173.0 L 107.0 176.0 L 107.0 179.0 L 107.0 181.0 L 107.0 184.0 L 107.0 187.0 L 107.0 189.0 L 107.0 191.0 L 107.0 193.0 L 107.0 195.0 L 107.0 196.0 L 107.0 197.0 L 107.0 197.0 L 107.0 198.0 L 107.0 198.0 L 107.0 198.0 L 107.0 197.0 " stroke="black" fill="none" stroke-width="5.0" stroke-linecap="round" stroke-linejoin="round" />
<path d="M 72.0 197.0 L 72.0 197.0 L 71.0 197.0 L 71.0 197.0 L 70.0 197.0 L 69.0 197.0 L 69.0 197.0 L 69.0 197.0 L 69.0 197.0 L 71.0 197.0 L 74.0 197.0 L 77.0 197.0 L 81.0 197.0 L 86.0 197.0 L 91.0 196.0 L 97.0 196.0 L 102.0 196.0 L 107.0 196.0 L 111.0 196.0 " stroke="black" fill="none" stroke-width="5.0" stroke-linecap="round" stroke-linejoin="round" />
<path d="M 140.0 143.0 L 140.0 143.0 L 139.0 143.0 L 139.0 142.0 L 138.0 142.0 L 137.0 142.0 L 137.0 142.0 L 136.0 142.0 L 136.0 142.0 L 136.0 142.0 L 136.0 142.0 L 136.0 142.0 L 136.0 142.0 L 136.0 142.0 L 137.0 142.0 L 138.0 142.0 L 139.0 142.0 L 141.0 142.0 L 143.0 142.0 L 145.0 142.0 L 147.0 142.0 L 149.0 142.0 L 152.0 141.0 L 154.0 141.0 L 156.0 141.0 L 159.0 141.0 L 162.0 140.0 L 164.0 140.0 L 168.0 140.0 L 170.0 140.0 L 173.0 140.0 L 177.0 140.0 L 179.0 140.0 L 182.0 140.0 L 185.0 140.0 L 187.0 140.0 L 189.0 140.0 L 191.0 141.0 L 192.0 141.0 L 194.0 141.0 L 195.0 142.0 L 196.0 142.0 L 197.0 142.0 L 199.0 142.0 L 200.0 142.0 L 202.0 142.0 L 204.0 142.0 L 206.0 142.0 L 209.0 142.0 L 212.0 143.0 L 214.0 143.0 L 217.0 143.0 L 220.0 143.0 L 223.0 143.0 L 225.0 143.0 L 227.0 143.0 L 229.0 143.0 L 231.0 143.0 L 232.0 143.0 L 233.0 143.0 L 234.0 143.0 L 234.0 143.0 L 235.0 143.0 L 235.0 144.0 L 235.0 144.0 L 235.0 145.0 L 235.0 145.0 " stroke="black" fill="none" stroke-width="5.0" stroke-linecap="round" stroke-linejoin="round" />
<path d="M 183.0 79.0 L 183.0 79.0 L 183.0 79.0 L 183.0 79.0 L 183.0 79.0 L 183.0 79.0 L 183.0 79.0 L 183.0 79.0 L 183.0 79.0 L 183.0 80.0 L 183.0 81.0 L 183.0 84.0 L 183.0 87.0 L 183.0 91.0 L 183.0 96.0 L 183.0 102.0 L 184.0 108.0 L 184.0 113.0 L 184.0 117.0 L 184.0 121.0 L 184.0 125.0 L 185.0 128.0 L 185.0 132.0 L 185.0 136.0 L 185.0 139.0 L 185.0 143.0 L 185.0 147.0 L 185.0 150.0 L 185.0 153.0 L 185.0 156.0 L 185.0 159.0 L 185.0 162.0 L 185.0 164.0 L 185.0 167.0 L 185.0 170.0 L 186.0 173.0 L 186.0 176.0 L 186.0 179.0 L 186.0 181.0 L 186.0 184.0 L 186.0 187.0 L 186.0 189.0 L 186.0 192.0 L 186.0 195.0 L 186.0 197.0 L 186.0 199.0 L 186.0 202.0 L 186.0 204.0 L 186.0 207.0 L 186.0 210.0 L 186.0 212.0 L 186.0 215.0 L 187.0 218.0 L 187.0 220.0 L 187.0 222.0 L 187.0 224.0 L 187.0 226.0 L 187.0 227.0 L 187.0 228.0 L 187.0 228.0 L 187.0 229.0 L 187.0 229.0 L 187.0 229.0 L 187.0 229.0 " stroke="black" fill="none" stroke-width="5.0" stroke-linecap="round" stroke-linejoin="round" />
<path d="M 127.0 241.0 L 127.0 241.0 L 127.0 241.0 L 127.0 241.0 L 126.0 241.0 L 126.0 241.0 L 125.0 241.0 L 125.0 240.0 L 125.0 240.0 L 125.0 240.0 L 125.0 240.0 L 125.0 240.0 L 125.0 240.0 L 124.0 240.0 L 124.0 240.0 " stroke="black" fill="none" stroke-width="5.0" stroke-linecap="round" stroke-linejoin="round" />
<path d="M 120.0 241.0 L 120.0 241.0 L 119.0 241.0 L 118.0 241.0 L 118.0 241.0 L 117.0 241.0 L 116.0 241.0 L 116.0 241.0 L 116.0 241.0 L 116.0 241.0 L 116.0 241.0 L 116.0 241.0 L 117.0 241.0 L 118.0 241.0 L 119.0 241.0 L 120.0 241.0 L 121.0 241.0 L 123.0 241.0 L 124.0 241.0 L 126.0 241.0 L 128.0 241.0 L 131.0 241.0 L 134.0 241.0 L 137.0 241.0 L 141.0 241.0 L 144.0 241.0 L 146.0 241.0 L 149.0 241.0 L 152.0 241.0 L 154.0 241.0 L 157.0 240.0 L 160.0 240.0 L 163.0 240.0 L 166.0 240.0 L 170.0 239.0 L 173.0 239.0 L 178.0 239.0 L 181.0 239.0 L 185.0 239.0 L 189.0 239.0 L 192.0 239.0 L 194.0 239.0 L 198.0 239.0 L 200.0 239.0 L 203.0 239.0 L 206.0 239.0 L 210.0 239.0 L 214.0 239.0 L 218.0 239.0 L 222.0 239.0 L 225.0 239.0 L 229.0 239.0 L 231.0 239.0 L 233.0 239.0 L 235.0 239.0 L 236.0 239.0 L 237.0 239.0 L 238.0 239.0 L 238.0 239.0 L 238.0 239.0 L 239.0 240.0 L 239.0 240.0 " stroke="black" fill="none" stroke-width="5.0" stroke-linecap="round" stroke-linejoin="round" />
</svg>