<svg xmlns="http://www.w3.org/2000/svg" width="300" height="300" viewBox="0 0 300 300">
<path d="M 93.0 86.0 L 93.0 86.0 L 93.0 86.0 L 93.0 86.0 L 92.0 86.0 L 92.0 86.0 L 92.0 86.0 L 92.0 86.0 L 92.0 86.0 L 92.0 86.0 L 92.0 87.0 L 92.0 89.0 L 92.0 93.0 L 92.0 98.0 L 93.0 104.0 L 93.0 112.0 L 93.0 121.0 L 93.0 130.0 L 92.0 139.0 L 92.0 146.0 " stroke="black" fill="none" stroke-width="5.0" stroke-linecap="round" stroke-linejoin="round" />
<path d="M 96.0 85.0 L 96.0 85.0 L 96.0 85.0 L 96.0 85.0 L 95.0 85.0 L 95.0 85.0 L 95.0 85.0 L 95.0 85.0 L 95.0 85.0 L 95.0 85.0 L 94.0 85.0 L 94.0 85.0 L 94.0 85.0 L 94.0 85.0 L 94.0 85.0 L 95.0 85.0 L 95.0 85.0 L 96.0 85.0 L 96.0 85.0 L 97.0 85.0 L 98.0 85.0 L 98.0 85.0 L 99.0 85.0 L 100.0 85.0 L 101.0 85.0 L 102.0 84.0 L 103.0 84.0 L 103.0 84.0 L 104.0 84.0 L 105.0 84.0 L 105.0 84.0 L 106.0 84.0 L 107.0 84.0 L 107.0 84.0 L 108.0 83.0 L 108.0 83.0 L 109.0 83.0 L 110.0 83.0 L 110.0 83.0 L 111.0 83.0 L 112.0 83.0 L 112.0 83.0 L 113.0 83.0 L 114.0 83.0 L 114.0 83.0 L 115.0 83.0 L 116.0 83.0 L 117.0 83.0 L 117.0 83.0 L 118.0 83.0 L 119.0 83.0 L 120.0 83.0 L 121.0 83.0 L 122.0 83.0 L 123.0 83.0 L 124.0 83.0 L 125.0 83.0 L 126.0 83.0 L 127.0 83.0 L 128.0 83.0 L 129.0 83.0 L 130.0 82.0 L 132.0 82.0 L 133.0 82.0 L 134.0 82.0 L 135.0 82.0 L 136.0 82.0 L 137.0 82.0 L 139.0 82.0 L 140.0 82.0 L 141.0 82.0 L 142.0 82.0 L 143.0 82.0 L 144.0 82.0 L 145.0 82.0 L 146.0 82.0 L 147.0 82.0 L 147.0 82.0 L 148.0 82.0 L 149.0 82.0 L 150.0 82.0 L 150.0 82.0 L 151.0 82.0 L 152.0 82.0 L 152.0 82.0 L 153.0 82.0 L 153.0 82.0 L 154.0 82.0 L 154.0 82.0 L 155.0 82.0 L 155.0 82.0 L 156.0 82.0 L 157.0 82.0 L 157.0 82.0 L 158.0 82.0 L 159.0 83.0 L 160.0 83.0 L 160.0 83.0 L 161.0 83.0 L 162.0 83.0 L 164.0 83.0 L 165.0 83.0 L 166.0 83.0 L 168.0 83.0 L 169.0 83.0 L 170.0 83.0 L 172.0 83.0 L 173.0 83.0 L 175.0 83.0 L 176.0 83.0 L 177.0 83.0 L 179.0 83.0 L 180.0 83.0 L 181.0 83.0 L 182.0 84.0 L 183.0 84.0 L 184.0 84.0 L 185.0 84.0 L 186.0 84.0 L 187.0 84.0 L 187.0 84.0 L 188.0 84.0 L 189.0 84.0 L 190.0 84.0 L 190.0 84.0 L 191.0 84.0 L 192.0 84.0 L 193.0 84.0 L 193.0 84.0 L 194.0 84.0 L 194.0 84.0 L 195.0 84.0 L 195.0 84.0 L 196.0 84.0 L 196.0 84.0 L 196.0 84.0 L 196.0 84.0 L 197.0 84.0 L 197.0 84.0 L 197.0 84.0 L 197.0 84.0 L 197.0 84.0 L 197.0 84.0 L 197.0 85.0 L 197.0 85.0 L 198.0 85.0 L 198.0 86.0 L 198.0 86.0 L 198.0 87.0 L 198.0 88.0 L 198.0 89.0 L 199.0 91.0 L 199.0 93.0 L 199.0 95.0 L 199.0 97.0 L 199.0 100.0 L 199.0 102.0 L 200.0 105.0 L 200.0 108.0 L 200.0 110.0 L 200.0 113.0 L 200.0 115.0 L 200.0 117.0 L 201.0 119.0 L 201.0 121.0 L 201.0 122.0 L 201.0 124.0 L 201.0 125.0 L 201.0 126.0 L 201.0 126.0 L 201.0 126.0 L 201.0 127.0 L 202.0 127.0 L 202.0 127.0 L 202.0 127.0 L 202.0 127.0 L 202.0 127.0 L 202.0 127.0 L 202.0 127.0 " stroke="black" fill="none" stroke-width="5.0" stroke-linecap="round" stroke-linejoin="round" />
<path d="M 97.0 140.0 L 97.0 140.0 L 97.0 140.0 L 97.0 140.0 L 96.0 140.0 L 96.0 140.0 L 96.0 140.0 L 96.0 140.0 L 96.0 140.0 L 96.0 140.0 L 96.0 140.0 L 96.0 140.0 L 96.0 140.0 L 96.0 140.0 L 96.0 140.0 L 96.0 140.0 L 97.0 140.0 L 97.0 139.0 L 98.0 139.0 L 98.0 139.0 L 99.0 139.0 L 100.0 139.0 L 101.0 139.0 L 102.0 139.0 L 103.0 139.0 L 103.0 139.0 L 104.0 139.0 L 105.0 139.0 L 106.0 138.0 L 107.0 138.0 L 107.0 138.0 L 108.0 138.0 L 108.0 138.0 L 109.0 138.0 L 110.0 138.0 L 110.0 138.0 L 111.0 138.0 L 112.0 138.0 L 113.0 138.0 L 113.0 138.0 L 114.0 138.0 L 115.0 138.0 L 116.0 138.0 L 117.0 138.0 L 118.0 138.0 L 119.0 138.0 L 120.0 138.0 L 122.0 138.0 L 123.0 138.0 L 124.0 138.0 L 125.0 138.0 L 126.0 138.0 L 128.0 138.0 L 129.0 137.0 L 131.0 137.0 L 132.0 137.0 L 134.0 137.0 L 136.0 136.0 L 137.0 136.0 L 139.0 136.0 L 141.0 136.0 L 142.0 136.0 L 144.0 136.0 L 145.0 136.0 L 146.0 135.0 L 148.0 135.0 L 148.0 135.0 L 150.0 135.0 L 151.0 135.0 L 151.0 135.0 L 152.0 135.0 L 153.0 135.0 L 154.0 135.0 L 155.0 135.0 L 157.0 135.0 L 158.0 135.0 L 160.0 135.0 L 162.0 135.0 L 164.0 134.0 L 166.0 134.0 L 168.0 134.0 L 171.0 134.0 L 173.0 134.0 L 176.0 134.0 L 179.0 133.0 L 181.0 133.0 L 184.0 133.0 L 187.0 133.0 L 189.0 133.0 L 191.0 133.0 L 193.0 133.0 L 195.0 133.0 L 197.0 132.0 L 198.0 132.0 L 200.0 131.0 L 201.0 131.0 L 203.0 130.0 " stroke="black" fill="none" stroke-width="5.0" stroke-linecap="round" stroke-linejoin="round" />
<path d="M 76.0 169.0 L 76.0 169.0 L 76.0 169.0 L 76.0 169.0 L 76.0 169.0 L 76.0 169.0 L 76.0 169.0 L 76.0 169.0 L 76.0 169.0 L 76.0 169.0 L 77.0 169.0 L 77.0 169.0 L 78.0 169.0 L 78.0 169.0 L 79.0 169.0 L 79.0 169.0 L 80.0 169.0 L 81.0 169.0 L 83.0 169.0 L 84.0 169.0 L 86.0 168.0 L 87.0 168.0 L 89.0 168.0 L 90.0 168.0 L 92.0 168.0 L 93.0 168.0 L 95.0 168.0 L 96.0 168.0 L 97.0 167.0 L 98.0 167.0 L 99.0 167.0 L 100.0 167.0 L 101.0 167.0 L 102.0 167.0 L 103.0 167.0 L 104.0 167.0 L 104.0 167.0 L 105.0 167.0 L 106.0 167.0 L 106.0 167.0 L 107.0 167.0 L 108.0 167.0 L 109.0 167.0 L 109.0 167.0 L 110.0 167.0 L 111.0 167.0 L 112.0 167.0 L 113.0 167.0 L 114.0 167.0 L 115.0 167.0 L 116.0 167.0 L 117.0 167.0 L 118.0 167.0 L 120.0 167.0 L 121.0 167.0 L 122.0 167.0 L 124.0 167.0 L 126.0 167.0 L 127.0 167.0 L 130.0 167.0 L 132.0 166.0 L 133.0 166.0 L 135.0 166.0 L 137.0 166.0 L 138.0 166.0 L 140.0 166.0 L 141.0 166.0 L 142.0 166.0 L 143.0 166.0 L 144.0 165.0 L 145.0 165.0 L 146.0 165.0 L 147.0 165.0 L 148.0 165.0 L 149.0 165.0 L 150.0 165.0 L 150.0 165.0 L 151.0 165.0 L 152.0 165.0 L 153.0 165.0 L 154.0 164.0 L 155.0 164.0 L 156.0 164.0 L 157.0 164.0 L 159.0 164.0 L 160.0 164.0 L 162.0 164.0 L 164.0 164.0 L 167.0 164.0 L 170.0 164.0 L 173.0 164.0 L 176.0 164.0 L 179.0 164.0 L 183.0 164.0 L 186.0 164.0 L 189.0 163.0 L 192.0 163.0 L 194.0 163.0 L 196.0 162.0 L 197.0 161.0 L 199.0 161.0 L 200.0 160.0 L 200.0 160.0 " stroke="black" fill="none" stroke-width="5.0" stroke-linecap="round" stroke-linejoin="round" />
<path d="M 79.0 205.0 L 79.0 205.0 L 79.0 205.0 L 80.0 205.0 L 80.0 205.0 L 80.0 205.0 L 80.0 205.0 L 80.0 205.0 L 81.0 205.0 L 81.0 205.0 L 82.0 205.0 L 83.0 205.0 L 83.0 205.0 L 84.0 205.0 L 85.0 205.0 L 87.0 205.0 L 88.0 205.0 L 89.0 205.0 L 91.0 205.0 L 92.0 205.0 L 94.0 205.0 L 95.0 205.0 L 97.0 205.0 L 98.0 205.0 L 100.0 205.0 L 102.0 205.0 L 103.0 205.0 L 105.0 205.0 L 107.0 205.0 L 108.0 205.0 L 110.0 204.0 L 111.0 204.0 L 113.0 204.0 L 115.0 204.0 L 117.0 204.0 L 119.0 203.0 L 122.0 203.0 L 125.0 202.0 L 126.0 202.0 L 131.0 201.0 L 133.0 201.0 L 135.0 201.0 L 138.0 200.0 L 140.0 200.0 L 142.0 200.0 L 144.0 200.0 L 145.0 199.0 L 146.0 199.0 L 148.0 199.0 L 149.0 199.0 L 150.0 199.0 L 152.0 199.0 L 153.0 199.0 L 154.0 199.0 L 156.0 199.0 L 158.0 199.0 L 161.0 199.0 L 164.0 198.0 L 167.0 198.0 L 170.0 198.0 L 173.0 198.0 L 176.0 198.0 L 178.0 198.0 L 180.0 197.0 L 182.0 197.0 L 184.0 197.0 L 186.0 197.0 L 187.0 197.0 L 189.0 197.0 L 190.0 197.0 L 191.0 197.0 L 193.0 197.0 L 194.0 197.0 L 195.0 197.0 L 197.0 197.0 L 198.0 197.0 L 200.0 197.0 L 201.0 197.0 L 203.0 197.0 L 205.0 197.0 L 207.0 198.0 L 209.0 198.0 L 210.0 198.0 L 212.0 198.0 L 213.0 198.0 L 214.0 198.0 L 216.0 198.0 L 217.0 198.0 L 218.0 198.0 L 218.0 198.0 L 219.0 199.0 L 219.0 199.0 L 219.0 199.0 L 219.0 199.0 L 219.0 199.0 L 219.0 199.0 " stroke="black" fill="none" stroke-width="5.0" stroke-linecap="round" stroke-linejoin="round" />
<path d="M 151.0 169.0 L 151.0 169.0 L 151.0 170.0 L 150.0 170.0 L 150.0 171.0 L 150.0 173.0 L 150.0 174.0 L 150.0 176.0 L 150.0 178.0 L 150.0 181.0 L 150.0 185.0 L 150.0 189.0 L 150.0 195.0 L 150.0 200.0 L 150.0 206.0 L 150.0 213.0 L 150.0 219.0 L 150.0 225.0 L 150.0 231.0 L 149.0 237.0 L 149.0 240.0 L 149.0 244.0 L 148.0 246.0 L 148.0 248.0 L 148.0 248.0 L 148.0 248.0 " stroke="black" fill="none" stroke-width="5.0" stroke-linecap="round" stroke-linejoin="round" />
<path d="M 63.0 247.0 L 63.0 247.0 L 63.0 247.0 L 63.0 248.0 L 63.0 248.0 L 63.0 249.0 L 63.0 249.0 L 63.0 249.0 L 63.0 250.0 L 63.0 250.0 L 64.0 250.0 L 64.0 250.0 L 64.0 250.0 L 64.0 250.0 L 65.0 250.0 L 65.0 250.0 L 66.0 250.0 L 66.0 250.0 L 67.0 250.0 L 68.0 250.0 L 69.0 250.0 L 70.0 250.0 L 72.0 250.0 L 73.0 250.0 L 75.0 250.0 L 77.0 250.0 L 78.0 251.0 L 80.0 251.0 L 82.0 251.0 L 83.0 251.0 L 85.0 251.0 L 87.0 251.0 L 88.0 252.0 L 90.0 252.0 L 92.0 252.0 L 94.0 252.0 L 95.0 252.0 L 97.0 252.0 L 99.0 252.0 L 101.0 252.0 L 102.0 252.0 L 103.0 252.0 L 105.0 252.0 L 106.0 252.0 L 107.0 252.0 L 108.0 252.0 L 109.0 252.0 L 110.0 252.0 L 111.0 252.0 L 112.0 252.0 L 113.0 252.0 L 115.0 252.0 L 116.0 252.0 L 117.0 252.0 L 119.0 252.0 L 121.0 252.0 L 122.0 251.0 L 124.0 251.0 L 126.0 251.0 L 127.0 251.0 L 129.0 250.0 L 132.0 250.0 L 133.0 250.0 L 135.0 249.0 L 137.0 249.0 L 139.0 249.0 L 141.0 249.0 L 143.0 249.0 L 145.0 248.0 L 147.0 248.0 L 148.0 248.0 L 150.0 248.0 L 151.0 248.0 L 153.0 248.0 L 154.0 248.0 L 155.0 248.0 L 156.0 248.0 L 157.0 248.0 L 159.0 248.0 L 160.0 248.0 L 162.0 248.0 L 163.0 248.0 L 165.0 248.0 L 166.0 248.0 L 168.0 248.0 L 170.0 247.0 L 172.0 247.0 L 174.0 247.0 L 176.0 247.0 L 178.0 247.0 L 180.0 247.0 L 182.0 247.0 L 183.0 247.0 L 185.0 247.0 L 187.0 247.0 L 188.0 247.0 L 189.0 247.0 L 191.0 247.0 L 192.0 247.0 L 193.0 247.0 L 195.0 248.0 L 196.0 248.0 L 197.0 248.0 L 199.0 248.0 L 200.0 248.0 L 202.0 249.0 L 204.0 249.0 L 205.0 249.0 L 207.0 249.0 L 209.0 250.0 L 210.0 250.0 L 212.0 250.0 L 214.0 250.0 L 216.0 250.0 L 218.0 250.0 L 220.0 250.0 L 222.0 250.0 L 225.0 250.0 L 227.0 250.0 L 228.0 250.0 L 230.0 250.0 L 231.0 249.0 L 232.0 249.0 L 232.0 249.0 L 232.0 249.0 L 232.0 249.0 " stroke="black" fill="none" stroke-width="5.0" stroke-linecap="round" stroke-linejoin="round" />
</svg>