<svg xmlns="http://www.w3.org/2000/svg" width="300" height="300" viewBox="0 0 300 300">
<path d="M 106.0 88.0 L 106.0 88.0 L 105.0 88.0 L 104.0 88.0 L 103.0 89.0 L 103.0 91.0 L 103.0 94.0 L 103.0 99.0 L 103.0 104.0 L 104.0 111.0 L 104.0 117.0 L 104.0 122.0 L 104.0 126.0 L 104.0 128.0 " stroke="black" fill="none" stroke-width="5.0" stroke-linecap="round" stroke-linejoin="round" />
<path d="M 106.0 85.0 L 106.0 85.0 L 105.0 85.0 L 104.0 85.0 L 104.0 85.0 L 103.0 85.0 L 103.0 85.0 L 102.0 85.0 L 102.0 85.0 L 101.0 85.0 L 101.0 85.0 L 101.0 85.0 L 101.0 85.0 L 101.0 85.0 L 102.0 85.0 L 103.0 85.0 L 104.0 85.0 L 106.0 85.0 L 107.0 85.0 L 109.0 85.0 L 110.0 85.0 L 112.0 85.0 L 115.0 85.0 L 117.0 85.0 L 120.0 85.0 L 123.0 85.0 L 126.0 85.0 L 129.0 85.0 L 132.0 85.0 L 135.0 85.0 L 137.0 85.0 L 140.0 85.0 L 143.0 85.0 L 145.0 85.0 L 147.0 85.0 L 149.0 85.0 L 151.0 85.0 L 152.0 85.0 L 154.0 85.0 L 155.0 85.0 L 157.0 85.0 L 158.0 85.0 L 160.0 85.0 L 161.0 85.0 L 163.0 85.0 L 164.0 85.0 L 166.0 85.0 L 168.0 85.0 L 170.0 86.0 L 172.0 86.0 L 174.0 86.0 L 176.0 86.0 L 178.0 87.0 L 180.0 87.0 L 182.0 87.0 L 184.0 88.0 L 186.0 88.0 L 187.0 88.0 L 188.0 88.0 L 189.0 88.0 L 190.0 88.0 L 191.0 89.0 L 191.0 89.0 L 192.0 89.0 L 192.0 89.0 L 193.0 89.0 L 193.0 90.0 L 193.0 90.0 L 194.0 90.0 L 194.0 90.0 L 194.0 90.0 L 195.0 90.0 L 195.0 90.0 L 195.0 91.0 L 196.0 91.0 L 196.0 93.0 L 196.0 95.0 L 195.0 98.0 L 194.0 102.0 L 193.0 107.0 L 192.0 113.0 L 191.0 119.0 L 190.0 124.0 L 189.0 128.0 L 189.0 131.0 L 189.0 132.0 L 189.0 133.0 L 189.0 133.0 L 189.0 132.0 " stroke="black" fill="none" stroke-width="5.0" stroke-linecap="round" stroke-linejoin="round" />
<path d="M 104.0 135.0 L 103.0 135.0 L 102.0 135.0 L 101.0 136.0 L 100.0 136.0 L 100.0 136.0 L 100.0 136.0 L 101.0 135.0 L 103.0 134.0 L 106.0 134.0 L 109.0 134.0 L 114.0 134.0 L 120.0 134.0 L 127.0 134.0 L 136.0 134.0 L 145.0 134.0 L 153.0 134.0 L 160.0 134.0 L 166.0 134.0 L 171.0 133.0 L 175.0 133.0 L 178.0 133.0 L 181.0 133.0 L 183.0 133.0 L 184.0 133.0 " stroke="black" fill="none" stroke-width="5.0" stroke-linecap="round" stroke-linejoin="round" />
<path d="M 68.0 180.0 L 68.0 180.0 L 68.0 180.0 L 68.0 181.0 L 68.0 182.0 L 68.0 184.0 L 68.0 186.0 L 68.0 189.0 L 68.0 193.0 L 69.0 199.0 L 69.0 205.0 L 70.0 212.0 L 70.0 220.0 L 70.0 229.0 L 69.0 236.0 L 69.0 242.0 " stroke="black" fill="none" stroke-width="5.0" stroke-linecap="round" stroke-linejoin="round" />
<path d="M 71.0 176.0 L 71.0 176.0 L 71.0 176.0 L 70.0 176.0 L 70.0 176.0 L 69.0 176.0 L 69.0 176.0 L 69.0 177.0 L 69.0 177.0 L 68.0 177.0 L 68.0 177.0 L 68.0 177.0 L 68.0 177.0 L 68.0 177.0 L 68.0 177.0 L 68.0 177.0 L 68.0 176.0 L 68.0 176.0 L 69.0 176.0 L 69.0 175.0 L 70.0 175.0 L 71.0 175.0 L 72.0 175.0 L 74.0 174.0 L 75.0 174.0 L 76.0 174.0 L 78.0 174.0 L 79.0 174.0 L 81.0 174.0 L 82.0 174.0 L 84.0 174.0 L 85.0 174.0 L 87.0 174.0 L 88.0 174.0 L 89.0 174.0 L 91.0 174.0 L 92.0 174.0 L 93.0 174.0 L 94.0 174.0 L 95.0 174.0 L 96.0 174.0 L 97.0 174.0 L 99.0 174.0 L 100.0 174.0 L 101.0 174.0 L 102.0 174.0 L 102.0 174.0 L 103.0 174.0 L 104.0 174.0 L 104.0 174.0 L 105.0 174.0 L 105.0 174.0 L 106.0 174.0 L 106.0 174.0 L 107.0 174.0 L 107.0 174.0 L 108.0 175.0 L 109.0 175.0 L 109.0 175.0 L 110.0 175.0 L 111.0 175.0 L 112.0 176.0 L 113.0 176.0 L 113.0 176.0 L 114.0 176.0 L 115.0 176.0 L 116.0 177.0 L 117.0 177.0 L 118.0 177.0 L 120.0 177.0 L 121.0 177.0 L 122.0 177.0 L 123.0 177.0 L 125.0 177.0 L 126.0 177.0 L 127.0 177.0 L 128.0 177.0 L 129.0 177.0 L 130.0 178.0 L 131.0 178.0 L 131.0 178.0 L 132.0 179.0 L 132.0 180.0 L 133.0 180.0 L 133.0 181.0 L 133.0 182.0 L 133.0 183.0 L 133.0 184.0 L 133.0 185.0 L 133.0 186.0 L 133.0 187.0 L 133.0 188.0 L 133.0 189.0 L 133.0 191.0 L 133.0 193.0 L 133.0 195.0 L 133.0 197.0 L 133.0 199.0 L 132.0 202.0 L 132.0 204.0 L 132.0 207.0 L 131.0 211.0 L 131.0 214.0 L 130.0 219.0 L 129.0 225.0 L 128.0 230.0 L 128.0 236.0 L 127.0 240.0 L 127.0 243.0 L 127.0 246.0 L 127.0 247.0 L 127.0 248.0 L 128.0 248.0 L 128.0 248.0 L 129.0 247.0 L 129.0 247.0 " stroke="black" fill="none" stroke-width="5.0" stroke-linecap="round" stroke-linejoin="round" />
<path d="M 72.0 245.0 L 72.0 245.0 L 71.0 246.0 L 71.0 246.0 L 70.0 246.0 L 70.0 246.0 L 70.0 246.0 L 70.0 246.0 L 71.0 246.0 L 73.0 246.0 L 76.0 246.0 L 81.0 246.0 L 87.0 247.0 L 94.0 248.0 L 101.0 249.0 L 109.0 250.0 L 118.0 250.0 L 125.0 250.0 L 132.0 250.0 L 139.0 248.0 L 143.0 247.0 " stroke="black" fill="none" stroke-width="5.0" stroke-linecap="round" stroke-linejoin="round" />
<path d="M 167.0 177.0 L 167.0 177.0 L 167.0 177.0 L 167.0 177.0 L 167.0 178.0 L 166.0 181.0 L 166.0 184.0 L 166.0 190.0 L 166.0 197.0 L 166.0 205.0 L 166.0 215.0 L 166.0 225.0 L 166.0 233.0 L 166.0 240.0 L 166.0 244.0 L 165.0 245.0 L 166.0 244.0 L 167.0 242.0 " stroke="black" fill="none" stroke-width="5.0" stroke-linecap="round" stroke-linejoin="round" />
<path d="M 180.0 173.0 L 179.0 173.0 L 177.0 173.0 L 176.0 173.0 L 175.0 173.0 L 174.0 173.0 L 173.0 173.0 L 172.0 173.0 L 172.0 174.0 L 171.0 174.0 L 171.0 174.0 L 171.0 174.0 L 171.0 174.0 L 172.0 174.0 L 173.0 174.0 L 174.0 174.0 L 176.0 174.0 L 178.0 174.0 L 180.0 174.0 L 182.0 173.0 L 184.0 173.0 L 185.0 173.0 L 187.0 173.0 L 189.0 173.0 L 191.0 172.0 L 193.0 172.0 L 194.0 172.0 L 196.0 172.0 L 198.0 172.0 L 200.0 172.0 L 202.0 172.0 L 204.0 172.0 L 206.0 172.0 L 208.0 172.0 L 210.0 173.0 L 213.0 173.0 L 215.0 174.0 L 217.0 174.0 L 220.0 175.0 L 223.0 175.0 L 225.0 175.0 L 227.0 175.0 L 230.0 176.0 L 232.0 176.0 L 234.0 176.0 L 235.0 177.0 L 236.0 177.0 L 238.0 178.0 L 239.0 178.0 L 239.0 179.0 L 240.0 179.0 L 240.0 180.0 L 241.0 180.0 L 241.0 180.0 L 241.0 181.0 L 241.0 181.0 L 241.0 183.0 L 241.0 184.0 L 240.0 187.0 L 239.0 189.0 L 238.0 193.0 L 237.0 196.0 L 236.0 200.0 L 235.0 205.0 L 234.0 211.0 L 233.0 218.0 L 232.0 225.0 L 231.0 233.0 L 230.0 239.0 L 230.0 243.0 L 230.0 245.0 L 230.0 246.0 L 230.0 246.0 L 230.0 246.0 L 230.0 245.0 " stroke="black" fill="none" stroke-width="5.0" stroke-linecap="round" stroke-linejoin="round" />
<path d="M 171.0 243.0 L 168.0 243.0 L 166.0 243.0 L 164.0 243.0 L 163.0 243.0 L 162.0 243.0 L 162.0 243.0 L 162.0 243.0 L 162.0 243.0 L 162.0 243.0 L 165.0 243.0 L 168.0 243.0 L 173.0 243.0 L 178.0 244.0 L 185.0 244.0 L 191.0 244.0 L 197.0 245.0 L 204.0 245.0 L 212.0 245.0 L 218.0 245.0 L 224.0 245.0 L 227.0 245.0 L 229.0 245.0 L 229.0 245.0 L 229.0 246.0 L 229.0 246.0 L 228.0 246.0 " stroke="black" fill="none" stroke-width="5.0" stroke-linecap="round" stroke-linejoin="round" />
</svg>