<svg xmlns="http://www.w3.org/2000/svg" width="300" height="300" viewBox="0 0 300 300">
<path d="M 69.0 130.0 L 69.0 130.0 L 70.0 130.0 L 70.0 130.0 L 71.0 130.0 L 71.0 130.0 L 71.0 130.0 L 71.0 130.0 L 71.0 130.0 L 72.0 130.0 L 72.0 130.0 L 73.0 130.0 L 74.0 130.0 L 76.0 129.0 L 79.0 128.0 L 82.0 126.0 L 87.0 124.0 L 92.0 122.0 L 97.0 120.0 L 102.0 117.0 L 106.0 114.0 L 110.0 112.0 L 112.0 109.0 L 115.0 107.0 L 117.0 106.0 L 119.0 104.0 L 121.0 103.0 L 124.0 101.0 L 127.0 99.0 L 130.0 97.0 L 133.0 94.0 L 137.0 91.0 L 140.0 89.0 L 143.0 86.0 L 146.0 83.0 L 148.0 80.0 L 151.0 78.0 L 152.0 76.0 L 154.0 74.0 L 155.0 73.0 L 156.0 72.0 L 157.0 70.0 L 158.0 69.0 " stroke="black" fill="none" stroke-width="5.0" stroke-linecap="round" stroke-linejoin="round" />
<path d="M 151.0 81.0 L 151.0 81.0 L 151.0 81.0 L 151.0 81.0 L 151.0 80.0 L 151.0 80.0 L 151.0 80.0 L 151.0 80.0 L 151.0 80.0 L 151.0 79.0 L 151.0 79.0 L 151.0 79.0 L 151.0 79.0 L 151.0 79.0 L 151.0 79.0 L 151.0 79.0 L 151.0 79.0 L 151.0 79.0 L 151.0 80.0 L 152.0 80.0 L 152.0 81.0 L 152.0 82.0 L 152.0 82.0 L 153.0 83.0 L 153.0 84.0 L 153.0 85.0 L 154.0 85.0 L 154.0 86.0 L 155.0 87.0 L 155.0 88.0 L 155.0 89.0 L 156.0 89.0 L 156.0 90.0 L 157.0 91.0 L 157.0 91.0 L 158.0 92.0 L 158.0 93.0 L 159.0 93.0 L 159.0 94.0 L 160.0 95.0 L 161.0 95.0 L 161.0 96.0 L 162.0 96.0 L 162.0 97.0 L 163.0 98.0 L 164.0 98.0 L 165.0 99.0 L 165.0 100.0 L 166.0 100.0 L 167.0 101.0 L 168.0 102.0 L 168.0 102.0 L 169.0 102.0 L 169.0 103.0 L 170.0 103.0 L 171.0 103.0 L 171.0 104.0 L 172.0 104.0 L 173.0 104.0 L 173.0 105.0 L 174.0 105.0 L 175.0 105.0 L 175.0 105.0 L 176.0 106.0 L 177.0 106.0 L 178.0 106.0 L 178.0 107.0 L 179.0 107.0 L 180.0 107.0 L 180.0 108.0 L 181.0 108.0 L 182.0 109.0 L 182.0 109.0 L 183.0 109.0 L 184.0 110.0 L 184.0 110.0 L 185.0 111.0 L 186.0 111.0 L 186.0 111.0 L 187.0 112.0 L 188.0 112.0 L 188.0 113.0 L 189.0 113.0 L 190.0 114.0 L 190.0 114.0 L 191.0 115.0 L 192.0 115.0 L 192.0 116.0 L 193.0 116.0 L 193.0 117.0 L 194.0 117.0 L 194.0 117.0 L 195.0 118.0 L 195.0 118.0 L 196.0 118.0 L 196.0 118.0 L 197.0 119.0 L 197.0 119.0 L 198.0 119.0 L 198.0 120.0 L 199.0 120.0 L 199.0 120.0 L 200.0 120.0 L 200.0 121.0 L 201.0 121.0 L 201.0 121.0 L 202.0 121.0 L 202.0 122.0 L 203.0 122.0 L 203.0 122.0 L 204.0 122.0 L 205.0 123.0 L 205.0 123.0 L 206.0 123.0 L 207.0 123.0 L 208.0 123.0 L 209.0 124.0 L 209.0 124.0 L 210.0 124.0 L 211.0 125.0 L 212.0 125.0 L 213.0 125.0 L 214.0 126.0 L 215.0 126.0 L 216.0 126.0 L 217.0 127.0 L 218.0 127.0 L 219.0 127.0 L 221.0 128.0 L 222.0 128.0 L 223.0 128.0 L 224.0 129.0 L 225.0 129.0 L 227.0 129.0 L 228.0 130.0 L 229.0 130.0 L 230.0 130.0 L 231.0 131.0 L 232.0 131.0 L 232.0 132.0 L 233.0 132.0 L 234.0 133.0 L 234.0 133.0 " stroke="black" fill="none" stroke-width="5.0" stroke-linecap="round" stroke-linejoin="round" />
<path d="M 118.0 128.0 L 118.0 128.0 L 118.0 128.0 L 118.0 128.0 L 117.0 128.0 L 117.0 128.0 L 117.0 128.0 L 116.0 128.0 L 116.0 128.0 L 116.0 128.0 L 116.0 128.0 L 116.0 128.0 L 116.0 128.0 L 116.0 128.0 L 118.0 128.0 L 120.0 128.0 L 123.0 129.0 L 128.0 129.0 L 133.0 130.0 L 139.0 130.0 L 145.0 130.0 L 150.0 130.0 L 155.0 130.0 L 158.0 130.0 L 162.0 129.0 L 166.0 129.0 L 169.0 129.0 L 172.0 129.0 L 175.0 130.0 L 178.0 130.0 L 181.0 130.0 L 183.0 130.0 L 185.0 130.0 L 186.0 130.0 L 187.0 130.0 L 187.0 130.0 " stroke="black" fill="none" stroke-width="5.0" stroke-linecap="round" stroke-linejoin="round" />
<path d="M 84.0 163.0 L 84.0 163.0 L 84.0 163.0 L 84.0 163.0 L 84.0 162.0 L 84.0 162.0 L 84.0 162.0 L 84.0 162.0 L 84.0 161.0 L 84.0 161.0 L 84.0 161.0 L 84.0 161.0 L 84.0 162.0 L 84.0 164.0 L 84.0 166.0 L 84.0 171.0 L 83.0 174.0 L 83.0 184.0 L 82.0 193.0 L 82.0 200.0 L 82.0 207.0 L 82.0 212.0 L 82.0 214.0 " stroke="black" fill="none" stroke-width="5.0" stroke-linecap="round" stroke-linejoin="round" />
<path d="M 88.0 162.0 L 88.0 162.0 L 88.0 162.0 L 88.0 162.0 L 88.0 162.0 L 88.0 162.0 L 87.0 162.0 L 87.0 162.0 L 87.0 162.0 L 87.0 162.0 L 87.0 162.0 L 87.0 161.0 L 87.0 161.0 L 87.0 161.0 L 87.0 161.0 L 87.0 161.0 L 88.0 161.0 L 89.0 161.0 L 90.0 161.0 L 91.0 161.0 L 93.0 161.0 L 94.0 161.0 L 96.0 161.0 L 98.0 161.0 L 99.0 161.0 L 100.0 161.0 L 102.0 161.0 L 103.0 161.0 L 104.0 161.0 L 105.0 161.0 L 106.0 161.0 L 107.0 161.0 L 107.0 160.0 L 108.0 160.0 L 109.0 160.0 L 110.0 160.0 L 110.0 160.0 L 111.0 160.0 L 112.0 160.0 L 113.0 159.0 L 113.0 159.0 L 114.0 159.0 L 115.0 159.0 L 116.0 159.0 L 117.0 158.0 L 118.0 158.0 L 119.0 158.0 L 119.0 157.0 L 120.0 157.0 L 121.0 157.0 L 122.0 157.0 L 122.0 157.0 L 123.0 157.0 L 124.0 157.0 L 124.0 157.0 L 125.0 157.0 L 126.0 157.0 L 126.0 157.0 L 127.0 157.0 L 128.0 157.0 L 128.0 157.0 L 129.0 157.0 L 129.0 157.0 L 129.0 157.0 L 130.0 157.0 L 130.0 157.0 L 130.0 157.0 L 131.0 157.0 L 131.0 157.0 L 131.0 157.0 L 131.0 157.0 L 131.0 157.0 L 131.0 157.0 L 131.0 157.0 L 131.0 157.0 L 131.0 158.0 L 131.0 158.0 L 131.0 159.0 L 131.0 160.0 L 131.0 161.0 L 131.0 163.0 L 130.0 165.0 L 130.0 167.0 L 130.0 170.0 L 130.0 173.0 L 129.0 175.0 L 129.0 178.0 L 129.0 182.0 L 128.0 185.0 L 128.0 188.0 L 128.0 191.0 L 128.0 194.0 L 127.0 197.0 L 127.0 200.0 L 126.0 202.0 L 126.0 204.0 L 126.0 206.0 L 126.0 208.0 L 126.0 209.0 L 126.0 211.0 L 126.0 212.0 L 126.0 213.0 L 126.0 213.0 L 126.0 214.0 L 126.0 214.0 L 126.0 215.0 L 126.0 215.0 L 126.0 215.0 L 126.0 215.0 L 126.0 216.0 L 125.0 216.0 L 125.0 216.0 L 124.0 216.0 L 124.0 216.0 L 123.0 216.0 L 123.0 216.0 L 123.0 216.0 L 122.0 216.0 L 122.0 216.0 " stroke="black" fill="none" stroke-width="5.0" stroke-linecap="round" stroke-linejoin="round" />
<path d="M 83.0 222.0 L 83.0 222.0 L 83.0 221.0 L 82.0 221.0 L 82.0 220.0 L 81.0 220.0 L 80.0 220.0 L 80.0 220.0 L 79.0 220.0 L 79.0 220.0 L 79.0 220.0 L 79.0 220.0 L 79.0 220.0 L 80.0 220.0 L 81.0 220.0 L 83.0 220.0 L 86.0 220.0 L 89.0 220.0 L 93.0 220.0 L 97.0 220.0 L 102.0 220.0 L 107.0 220.0 L 111.0 219.0 L 115.0 218.0 L 119.0 217.0 L 123.0 216.0 L 126.0 215.0 L 127.0 214.0 " stroke="black" fill="none" stroke-width="5.0" stroke-linecap="round" stroke-linejoin="round" />
<path d="M 166.0 161.0 L 166.0 161.0 L 166.0 161.0 L 166.0 161.0 L 166.0 161.0 L 166.0 161.0 L 166.0 161.0 L 166.0 161.0 L 166.0 161.0 L 166.0 161.0 L 166.0 161.0 L 166.0 161.0 L 166.0 161.0 L 166.0 161.0 L 167.0 161.0 L 168.0 161.0 L 168.0 161.0 L 169.0 161.0 L 170.0 161.0 L 171.0 161.0 L 173.0 161.0 L 174.0 161.0 L 176.0 161.0 L 177.0 161.0 L 179.0 161.0 L 180.0 160.0 L 182.0 160.0 L 184.0 160.0 L 185.0 160.0 L 187.0 159.0 L 188.0 159.0 L 190.0 159.0 L 191.0 159.0 L 192.0 159.0 L 192.0 158.0 L 193.0 158.0 L 194.0 158.0 L 194.0 158.0 L 195.0 158.0 L 196.0 158.0 L 197.0 157.0 L 197.0 157.0 L 198.0 157.0 L 198.0 157.0 L 199.0 157.0 L 199.0 157.0 L 200.0 157.0 L 200.0 157.0 L 200.0 157.0 L 201.0 157.0 L 201.0 157.0 L 201.0 157.0 L 201.0 157.0 L 202.0 157.0 L 202.0 157.0 L 202.0 157.0 L 203.0 157.0 L 203.0 157.0 L 204.0 157.0 L 204.0 157.0 L 204.0 157.0 L 205.0 157.0 L 205.0 157.0 L 206.0 157.0 L 206.0 157.0 L 207.0 157.0 L 207.0 157.0 L 207.0 157.0 L 208.0 157.0 L 208.0 157.0 L 209.0 157.0 L 209.0 157.0 L 210.0 157.0 L 211.0 157.0 L 211.0 157.0 L 212.0 157.0 L 212.0 157.0 L 213.0 157.0 L 214.0 157.0 L 214.0 158.0 L 215.0 158.0 L 215.0 158.0 L 215.0 158.0 L 216.0 158.0 L 216.0 158.0 L 217.0 158.0 L 217.0 159.0 L 217.0 159.0 L 217.0 159.0 L 217.0 160.0 L 217.0 160.0 L 218.0 161.0 L 218.0 161.0 L 218.0 162.0 L 218.0 163.0 L 218.0 164.0 L 218.0 165.0 L 218.0 166.0 L 218.0 168.0 L 218.0 169.0 L 218.0 171.0 L 218.0 172.0 L 218.0 173.0 L 218.0 175.0 L 218.0 176.0 L 218.0 177.0 L 218.0 179.0 L 218.0 180.0 L 218.0 181.0 L 218.0 183.0 L 218.0 184.0 L 218.0 186.0 L 218.0 187.0 L 218.0 188.0 L 218.0 190.0 L 218.0 191.0 L 218.0 192.0 L 218.0 194.0 L 218.0 195.0 L 218.0 196.0 L 218.0 197.0 L 218.0 199.0 L 217.0 200.0 L 217.0 201.0 L 217.0 202.0 L 217.0 204.0 L 217.0 205.0 L 216.0 206.0 L 216.0 207.0 L 216.0 208.0 L 216.0 209.0 L 216.0 211.0 L 216.0 212.0 L 215.0 213.0 L 215.0 214.0 L 215.0 215.0 L 215.0 216.0 L 215.0 216.0 L 215.0 217.0 L 215.0 218.0 L 215.0 219.0 L 215.0 219.0 L 215.0 220.0 L 215.0 220.0 L 215.0 220.0 L 215.0 221.0 L 214.0 221.0 L 214.0 221.0 L 214.0 221.0 L 213.0 221.0 L 213.0 221.0 L 213.0 221.0 L 212.0 221.0 L 212.0 221.0 L 211.0 221.0 L 211.0 221.0 L 210.0 221.0 L 209.0 221.0 L 207.0 221.0 L 206.0 221.0 L 204.0 221.0 L 203.0 221.0 L 201.0 221.0 L 199.0 221.0 L 198.0 221.0 L 196.0 221.0 " stroke="black" fill="none" stroke-width="5.0" stroke-linecap="round" stroke-linejoin="round" />
<path d="M 165.0 160.0 L 165.0 160.0 L 166.0 160.0 L 166.0 160.0 L 167.0 160.0 L 167.0 160.0 L 167.0 160.0 L 168.0 160.0 L 168.0 161.0 L 168.0 162.0 L 168.0 163.0 L 168.0 165.0 L 168.0 169.0 L 168.0 173.0 L 168.0 178.0 L 168.0 185.0 L 168.0 193.0 L 168.0 201.0 L 168.0 210.0 L 166.0 218.0 L 166.0 227.0 L 165.0 235.0 L 164.0 241.0 L 164.0 245.0 L 164.0 248.0 L 164.0 250.0 L 164.0 251.0 L 164.0 252.0 L 164.0 253.0 L 164.0 254.0 L 164.0 255.0 L 163.0 256.0 L 163.0 257.0 " stroke="black" fill="none" stroke-width="5.0" stroke-linecap="round" stroke-linejoin="round" />
</svg>