<svg xmlns="http://www.w3.org/2000/svg" width="300" height="300" viewBox="0 0 300 300">
<path d="M 138.0 77.0 L 138.0 77.0 L 138.0 77.0 L 138.0 77.0 L 138.0 77.0 L 138.0 78.0 L 138.0 78.0 L 138.0 78.0 L 138.0 78.0 L 138.0 78.0 L 138.0 78.0 L 138.0 78.0 L 138.0 78.0 L 138.0 78.0 L 137.0 78.0 L 137.0 78.0 L 137.0 78.0 L 136.0 78.0 L 136.0 78.0 L 135.0 78.0 L 135.0 78.0 L 134.0 78.0 L 134.0 78.0 L 133.0 78.0 L 132.0 78.0 L 132.0 78.0 L 131.0 78.0 L 130.0 78.0 L 129.0 79.0 L 128.0 79.0 L 127.0 79.0 L 127.0 79.0 L 126.0 80.0 L 125.0 80.0 L 124.0 80.0 L 123.0 81.0 L 122.0 81.0 L 121.0 82.0 L 120.0 82.0 L 119.0 83.0 L 118.0 83.0 L 117.0 84.0 L 116.0 84.0 L 115.0 84.0 L 114.0 85.0 L 113.0 85.0 L 112.0 85.0 L 111.0 86.0 L 110.0 86.0 L 110.0 86.0 L 108.0 87.0 L 108.0 87.0 L 107.0 87.0 L 106.0 88.0 L 105.0 88.0 L 104.0 88.0 L 103.0 89.0 L 102.0 89.0 L 101.0 89.0 L 100.0 90.0 L 99.0 90.0 L 98.0 90.0 L 96.0 91.0 L 94.0 91.0 L 92.0 91.0 L 90.0 92.0 L 87.0 92.0 L 84.0 93.0 L 81.0 93.0 L 78.0 94.0 L 75.0 94.0 L 72.0 95.0 L 69.0 95.0 L 67.0 95.0 L 64.0 96.0 L 62.0 96.0 L 60.0 97.0 L 58.0 97.0 " stroke="black" fill="none" stroke-width="5.0" stroke-linecap="round" stroke-linejoin="round" />
<path d="M 66.0 131.0 L 66.0 131.0 L 66.0 131.0 L 66.0 131.0 L 66.0 131.0 L 66.0 131.0 L 66.0 131.0 L 66.0 131.0 L 66.0 131.0 L 66.0 131.0 L 66.0 131.0 L 66.0 131.0 L 66.0 131.0 L 66.0 131.0 L 67.0 131.0 L 68.0 131.0 L 71.0 131.0 L 75.0 131.0 L 81.0 131.0 L 89.0 131.0 L 98.0 130.0 L 105.0 129.0 L 112.0 128.0 L 119.0 127.0 L 125.0 126.0 L 130.0 126.0 L 135.0 126.0 L 138.0 126.0 L 142.0 126.0 L 144.0 126.0 " stroke="black" fill="none" stroke-width="5.0" stroke-linecap="round" stroke-linejoin="round" />
<path d="M 109.0 89.0 L 109.0 89.0 L 109.0 89.0 L 108.0 89.0 L 108.0 90.0 L 108.0 91.0 L 108.0 91.0 L 108.0 92.0 L 108.0 93.0 L 107.0 95.0 L 107.0 97.0 L 107.0 100.0 L 107.0 104.0 L 107.0 107.0 L 107.0 111.0 L 107.0 115.0 L 107.0 119.0 L 107.0 122.0 L 107.0 126.0 L 107.0 129.0 L 107.0 133.0 L 107.0 137.0 L 107.0 141.0 L 106.0 145.0 L 106.0 149.0 L 106.0 153.0 L 105.0 157.0 L 105.0 160.0 L 105.0 163.0 L 105.0 166.0 L 105.0 168.0 L 105.0 170.0 L 105.0 173.0 L 105.0 175.0 L 105.0 178.0 L 105.0 181.0 L 105.0 184.0 L 105.0 186.0 L 105.0 189.0 L 105.0 192.0 L 105.0 194.0 L 104.0 196.0 L 104.0 198.0 L 104.0 200.0 L 104.0 202.0 L 104.0 204.0 L 104.0 206.0 L 104.0 208.0 L 104.0 210.0 L 104.0 212.0 L 104.0 215.0 L 104.0 217.0 L 104.0 220.0 L 104.0 222.0 L 104.0 225.0 L 104.0 228.0 L 104.0 230.0 L 104.0 233.0 L 104.0 236.0 L 104.0 239.0 L 104.0 241.0 L 104.0 244.0 L 104.0 247.0 L 104.0 249.0 L 105.0 252.0 L 105.0 254.0 L 105.0 256.0 L 105.0 257.0 L 105.0 258.0 L 105.0 258.0 " stroke="black" fill="none" stroke-width="5.0" stroke-linecap="round" stroke-linejoin="round" />
<path d="M 105.0 136.0 L 105.0 136.0 L 105.0 136.0 L 105.0 135.0 L 105.0 134.0 L 105.0 134.0 L 105.0 133.0 L 105.0 133.0 L 105.0 133.0 L 105.0 133.0 L 105.0 133.0 L 105.0 135.0 L 105.0 136.0 L 105.0 137.0 L 104.0 139.0 L 103.0 142.0 L 102.0 146.0 L 101.0 150.0 L 99.0 155.0 L 96.0 160.0 L 94.0 166.0 L 90.0 172.0 L 87.0 178.0 L 83.0 184.0 L 79.0 189.0 L 76.0 193.0 L 73.0 197.0 L 70.0 200.0 L 67.0 203.0 L 65.0 206.0 L 62.0 209.0 L 61.0 211.0 L 59.0 212.0 L 59.0 213.0 " stroke="black" fill="none" stroke-width="5.0" stroke-linecap="round" stroke-linejoin="round" />
<path d="M 110.0 155.0 L 110.0 155.0 L 110.0 154.0 L 110.0 153.0 L 110.0 152.0 L 109.0 151.0 L 109.0 151.0 L 109.0 150.0 L 109.0 150.0 L 109.0 150.0 L 109.0 150.0 L 109.0 150.0 L 110.0 150.0 L 111.0 151.0 L 112.0 153.0 L 114.0 155.0 L 116.0 157.0 L 119.0 160.0 L 123.0 163.0 L 126.0 167.0 L 130.0 171.0 L 134.0 175.0 L 138.0 179.0 L 141.0 182.0 L 143.0 185.0 L 144.0 186.0 L 145.0 187.0 L 145.0 187.0 " stroke="black" fill="none" stroke-width="5.0" stroke-linecap="round" stroke-linejoin="round" />
<path d="M 165.0 96.0 L 165.0 96.0 L 165.0 95.0 L 166.0 95.0 L 166.0 94.0 L 166.0 94.0 L 166.0 94.0 L 166.0 94.0 L 166.0 94.0 L 166.0 95.0 L 166.0 96.0 L 166.0 98.0 L 166.0 99.0 L 166.0 101.0 L 166.0 103.0 L 166.0 106.0 L 166.0 109.0 L 166.0 112.0 L 166.0 116.0 L 165.0 119.0 L 165.0 123.0 L 165.0 127.0 L 165.0 130.0 L 165.0 134.0 L 165.0 138.0 L 165.0 142.0 L 165.0 146.0 L 164.0 150.0 L 164.0 153.0 L 164.0 156.0 L 164.0 159.0 L 164.0 162.0 L 164.0 164.0 L 164.0 166.0 L 164.0 168.0 L 164.0 170.0 L 164.0 173.0 L 164.0 175.0 L 164.0 177.0 L 164.0 179.0 L 164.0 182.0 L 164.0 184.0 L 164.0 187.0 L 164.0 189.0 L 164.0 191.0 L 164.0 193.0 L 164.0 195.0 L 164.0 196.0 L 164.0 198.0 L 164.0 199.0 L 164.0 201.0 L 164.0 202.0 L 164.0 204.0 L 164.0 205.0 L 164.0 206.0 L 164.0 207.0 L 164.0 209.0 L 164.0 210.0 L 164.0 212.0 L 164.0 213.0 L 164.0 214.0 L 164.0 216.0 L 164.0 218.0 L 164.0 220.0 L 164.0 222.0 L 164.0 224.0 L 164.0 226.0 L 164.0 228.0 L 164.0 230.0 L 164.0 232.0 L 164.0 234.0 L 164.0 235.0 L 164.0 237.0 L 164.0 238.0 L 164.0 239.0 L 164.0 240.0 L 164.0 241.0 L 164.0 241.0 L 164.0 241.0 " stroke="black" fill="none" stroke-width="5.0" stroke-linecap="round" stroke-linejoin="round" />
<path d="M 168.0 92.0 L 168.0 92.0 L 168.0 92.0 L 168.0 92.0 L 168.0 92.0 L 168.0 92.0 L 168.0 92.0 L 168.0 93.0 L 168.0 93.0 L 168.0 93.0 L 168.0 93.0 L 168.0 93.0 L 168.0 93.0 L 168.0 93.0 L 169.0 93.0 L 169.0 93.0 L 171.0 93.0 L 172.0 93.0 L 174.0 93.0 L 175.0 93.0 L 177.0 93.0 L 179.0 93.0 L 180.0 93.0 L 182.0 93.0 L 184.0 93.0 L 185.0 93.0 L 187.0 93.0 L 188.0 93.0 L 189.0 93.0 L 190.0 93.0 L 192.0 93.0 L 193.0 93.0 L 193.0 93.0 L 194.0 93.0 L 195.0 93.0 L 196.0 93.0 L 197.0 93.0 L 197.0 92.0 L 198.0 92.0 L 199.0 92.0 L 199.0 92.0 L 200.0 92.0 L 201.0 92.0 L 201.0 92.0 L 202.0 92.0 L 203.0 92.0 L 204.0 92.0 L 204.0 92.0 L 205.0 92.0 L 206.0 92.0 L 206.0 92.0 L 207.0 92.0 L 208.0 92.0 L 209.0 92.0 L 209.0 92.0 L 210.0 92.0 L 211.0 92.0 L 212.0 92.0 L 213.0 92.0 L 214.0 92.0 L 215.0 92.0 L 216.0 92.0 L 217.0 92.0 L 218.0 92.0 L 219.0 92.0 L 219.0 92.0 L 220.0 92.0 L 221.0 92.0 L 222.0 92.0 L 222.0 92.0 L 223.0 92.0 L 223.0 92.0 L 224.0 92.0 L 224.0 92.0 L 224.0 92.0 L 225.0 92.0 L 225.0 92.0 L 225.0 92.0 L 225.0 93.0 L 225.0 93.0 L 226.0 93.0 L 226.0 94.0 L 226.0 95.0 L 226.0 96.0 L 226.0 97.0 L 226.0 98.0 L 226.0 100.0 L 226.0 101.0 L 226.0 103.0 L 226.0 105.0 L 226.0 107.0 L 226.0 108.0 L 225.0 110.0 L 225.0 113.0 L 225.0 114.0 L 225.0 117.0 L 225.0 119.0 L 225.0 121.0 L 225.0 123.0 L 225.0 125.0 L 225.0 127.0 L 225.0 128.0 L 225.0 130.0 L 225.0 131.0 L 225.0 132.0 L 225.0 134.0 L 225.0 135.0 L 225.0 137.0 L 225.0 138.0 L 225.0 140.0 L 225.0 141.0 L 225.0 143.0 L 225.0 145.0 L 225.0 147.0 L 225.0 149.0 L 225.0 151.0 L 224.0 152.0 L 224.0 154.0 L 224.0 156.0 L 224.0 157.0 L 224.0 159.0 L 224.0 160.0 L 224.0 162.0 L 223.0 164.0 L 223.0 165.0 L 223.0 167.0 L 223.0 169.0 L 223.0 171.0 L 223.0 173.0 L 223.0 175.0 L 223.0 177.0 L 223.0 179.0 L 223.0 181.0 L 223.0 183.0 L 223.0 186.0 L 223.0 188.0 L 223.0 190.0 L 223.0 192.0 L 223.0 195.0 L 223.0 197.0 L 222.0 198.0 L 222.0 201.0 L 222.0 202.0 L 222.0 204.0 L 222.0 206.0 L 222.0 207.0 L 222.0 209.0 L 222.0 210.0 L 222.0 211.0 L 222.0 213.0 L 221.0 214.0 L 221.0 215.0 L 221.0 216.0 L 221.0 217.0 L 221.0 218.0 L 221.0 220.0 L 221.0 221.0 L 221.0 223.0 L 221.0 224.0 L 221.0 226.0 L 221.0 227.0 L 221.0 228.0 L 221.0 230.0 L 221.0 231.0 L 221.0 232.0 L 221.0 233.0 L 221.0 234.0 L 221.0 235.0 L 221.0 236.0 L 221.0 237.0 L 221.0 237.0 L 221.0 238.0 L 221.0 238.0 L 221.0 238.0 L 221.0 239.0 L 221.0 239.0 L 221.0 239.0 L 221.0 240.0 L 221.0 240.0 L 221.0 240.0 L 221.0 240.0 L 221.0 240.0 L 221.0 240.0 " stroke="black" fill="none" stroke-width="5.0" stroke-linecap="round" stroke-linejoin="round" />
<path d="M 167.0 238.0 L 167.0 238.0 L 167.0 237.0 L 167.0 237.0 L 168.0 237.0 L 168.0 237.0 L 168.0 237.0 L 168.0 237.0 L 169.0 237.0 L 170.0 237.0 L 171.0 238.0 L 172.0 238.0 L 174.0 239.0 L 175.0 239.0 L 177.0 239.0 L 179.0 240.0 L 182.0 240.0 L 184.0 240.0 L 187.0 241.0 L 190.0 241.0 L 193.0 241.0 L 196.0 241.0 L 199.0 241.0 L 202.0 240.0 L 205.0 240.0 L 209.0 239.0 L 212.0 239.0 L 215.0 238.0 L 218.0 238.0 L 220.0 238.0 L 221.0 238.0 L 222.0 238.0 L 223.0 238.0 L 223.0 238.0 L 223.0 238.0 L 223.0 238.0 L 222.0 238.0 L 220.0 238.0 " stroke="black" fill="none" stroke-width="5.0" stroke-linecap="round" stroke-linejoin="round" />
</svg>