<svg xmlns="http://www.w3.org/2000/svg" width="300" height="300" viewBox="0 0 300 300">
<path d="M 71.0 85.0 L 71.0 85.0 L 71.0 84.0 L 71.0 84.0 L 71.0 84.0 L 72.0 84.0 L 72.0 84.0 L 72.0 84.0 L 72.0 84.0 L 72.0 85.0 L 72.0 86.0 L 73.0 88.0 L 73.0 90.0 L 73.0 92.0 L 73.0 94.0 L 73.0 97.0 L 73.0 100.0 L 73.0 104.0 L 73.0 107.0 L 73.0 111.0 L 72.0 115.0 L 72.0 119.0 L 72.0 123.0 L 71.0 127.0 L 71.0 130.0 L 71.0 133.0 L 71.0 137.0 L 71.0 141.0 L 71.0 144.0 L 71.0 148.0 L 71.0 151.0 L 71.0 154.0 L 72.0 157.0 L 72.0 160.0 L 72.0 162.0 L 72.0 165.0 L 72.0 167.0 L 72.0 168.0 L 72.0 170.0 L 72.0 172.0 L 72.0 173.0 L 72.0 175.0 L 72.0 177.0 L 72.0 180.0 L 72.0 183.0 L 72.0 186.0 L 72.0 188.0 L 71.0 191.0 L 71.0 193.0 L 71.0 195.0 L 71.0 197.0 L 71.0 198.0 L 71.0 200.0 L 71.0 201.0 L 71.0 203.0 L 71.0 205.0 L 71.0 207.0 L 71.0 209.0 L 71.0 211.0 L 71.0 214.0 L 72.0 216.0 L 72.0 218.0 L 72.0 220.0 L 72.0 223.0 L 72.0 225.0 L 72.0 227.0 L 72.0 229.0 L 72.0 231.0 L 72.0 232.0 L 72.0 234.0 L 72.0 235.0 L 72.0 237.0 L 71.0 238.0 L 71.0 239.0 L 71.0 240.0 L 71.0 240.0 L 70.0 241.0 " stroke="black" fill="none" stroke-width="5.0" stroke-linecap="round" stroke-linejoin="round" />
<path d="M 72.0 82.0 L 72.0 82.0 L 72.0 82.0 L 71.0 82.0 L 71.0 82.0 L 70.0 82.0 L 69.0 82.0 L 69.0 82.0 L 68.0 82.0 L 68.0 82.0 L 68.0 82.0 L 68.0 82.0 L 68.0 82.0 L 68.0 82.0 L 68.0 82.0 L 68.0 82.0 L 68.0 82.0 L 68.0 82.0 L 68.0 82.0 L 69.0 82.0 L 71.0 82.0 L 72.0 82.0 L 73.0 81.0 L 75.0 81.0 L 77.0 81.0 L 78.0 81.0 L 80.0 81.0 L 82.0 81.0 L 83.0 81.0 L 85.0 81.0 L 86.0 81.0 L 87.0 81.0 L 89.0 81.0 L 90.0 81.0 L 91.0 81.0 L 92.0 81.0 L 94.0 81.0 L 94.0 81.0 L 95.0 81.0 L 96.0 81.0 L 97.0 81.0 L 98.0 80.0 L 99.0 80.0 L 100.0 80.0 L 101.0 80.0 L 103.0 79.0 L 104.0 79.0 L 105.0 79.0 L 105.0 79.0 L 106.0 78.0 L 107.0 78.0 L 108.0 78.0 L 108.0 78.0 L 109.0 78.0 L 109.0 78.0 L 110.0 78.0 L 110.0 78.0 L 111.0 78.0 L 111.0 78.0 L 112.0 78.0 L 112.0 78.0 L 113.0 78.0 L 113.0 78.0 L 114.0 78.0 L 114.0 78.0 L 115.0 78.0 L 116.0 78.0 L 116.0 78.0 L 117.0 78.0 L 118.0 78.0 L 119.0 78.0 L 120.0 78.0 L 121.0 78.0 L 122.0 78.0 L 122.0 78.0 L 123.0 78.0 L 124.0 78.0 L 125.0 78.0 L 126.0 78.0 L 126.0 78.0 L 127.0 78.0 L 128.0 78.0 L 129.0 78.0 L 130.0 78.0 L 131.0 78.0 L 131.0 78.0 L 132.0 78.0 L 133.0 78.0 L 133.0 78.0 L 134.0 78.0 L 135.0 78.0 L 136.0 78.0 L 137.0 78.0 L 138.0 78.0 L 138.0 78.0 L 139.0 78.0 L 140.0 78.0 L 141.0 78.0 L 142.0 78.0 L 143.0 78.0 L 143.0 78.0 L 144.0 78.0 L 145.0 78.0 L 145.0 78.0 L 146.0 78.0 L 147.0 78.0 L 147.0 78.0 L 148.0 78.0 L 149.0 78.0 L 149.0 78.0 L 150.0 78.0 L 150.0 78.0 L 151.0 78.0 L 151.0 78.0 L 152.0 78.0 L 152.0 78.0 L 153.0 78.0 L 153.0 78.0 L 154.0 79.0 L 154.0 79.0 L 154.0 79.0 L 155.0 79.0 L 155.0 79.0 L 156.0 79.0 L 156.0 79.0 L 157.0 80.0 L 157.0 80.0 L 158.0 80.0 L 158.0 80.0 L 159.0 80.0 L 160.0 80.0 L 161.0 80.0 L 162.0 80.0 L 162.0 80.0 L 163.0 80.0 L 164.0 80.0 L 165.0 80.0 L 165.0 80.0 L 166.0 80.0 L 167.0 80.0 L 168.0 80.0 L 169.0 80.0 L 170.0 80.0 L 171.0 80.0 L 171.0 80.0 L 172.0 80.0 L 173.0 80.0 L 174.0 80.0 L 175.0 80.0 L 175.0 80.0 L 176.0 80.0 L 177.0 80.0 L 177.0 80.0 L 178.0 80.0 L 179.0 80.0 L 180.0 80.0 L 180.0 80.0 L 181.0 81.0 L 182.0 81.0 L 182.0 81.0 L 183.0 81.0 L 183.0 81.0 L 184.0 81.0 L 185.0 81.0 L 185.0 81.0 L 186.0 81.0 L 186.0 81.0 L 187.0 81.0 L 187.0 81.0 L 188.0 81.0 L 188.0 81.0 L 189.0 81.0 L 189.0 81.0 L 190.0 81.0 L 190.0 81.0 L 190.0 81.0 L 191.0 81.0 L 191.0 81.0 L 191.0 81.0 L 192.0 81.0 L 192.0 81.0 L 192.0 81.0 L 193.0 81.0 L 193.0 81.0 L 193.0 81.0 L 194.0 81.0 L 194.0 81.0 L 194.0 81.0 L 195.0 81.0 L 195.0 81.0 L 196.0 81.0 L 196.0 81.0 L 196.0 81.0 L 197.0 81.0 L 197.0 81.0 L 197.0 81.0 L 198.0 81.0 L 198.0 81.0 L 198.0 81.0 L 199.0 81.0 L 199.0 81.0 L 199.0 81.0 L 200.0 81.0 L 200.0 81.0 L 200.0 81.0 L 201.0 81.0 L 201.0 81.0 L 202.0 81.0 L 202.0 81.0 L 203.0 81.0 L 203.0 81.0 L 204.0 81.0 L 205.0 81.0 L 206.0 81.0 L 207.0 81.0 L 208.0 81.0 L 209.0 81.0 L 211.0 81.0 L 212.0 81.0 L 214.0 81.0 L 216.0 81.0 L 218.0 81.0 L 220.0 81.0 L 221.0 81.0 L 223.0 81.0 L 224.0 81.0 L 225.0 80.0 L 226.0 80.0 L 227.0 80.0 L 228.0 80.0 L 228.0 80.0 L 229.0 80.0 L 229.0 80.0 L 229.0 80.0 L 229.0 80.0 L 230.0 80.0 L 230.0 80.0 L 230.0 80.0 L 230.0 80.0 L 230.0 80.0 L 230.0 80.0 L 230.0 80.0 L 230.0 80.0 L 230.0 80.0 L 230.0 80.0 L 230.0 80.0 L 230.0 80.0 L 230.0 80.0 L 230.0 80.0 L 230.0 80.0 L 230.0 80.0 L 230.0 81.0 L 231.0 81.0 L 231.0 81.0 L 231.0 82.0 L 231.0 82.0 L 231.0 83.0 L 231.0 84.0 L 231.0 86.0 L 231.0 87.0 L 231.0 89.0 L 231.0 91.0 L 231.0 93.0 L 231.0 96.0 L 231.0 98.0 L 231.0 100.0 L 231.0 102.0 L 231.0 103.0 L 231.0 105.0 L 231.0 107.0 L 231.0 109.0 L 231.0 110.0 L 231.0 112.0 L 231.0 114.0 L 231.0 115.0 L 231.0 117.0 L 231.0 118.0 L 231.0 119.0 L 231.0 120.0 L 231.0 122.0 L 231.0 123.0 L 231.0 124.0 L 231.0 125.0 L 231.0 127.0 L 231.0 129.0 L 231.0 131.0 L 231.0 133.0 L 231.0 135.0 L 231.0 138.0 L 231.0 140.0 L 231.0 142.0 L 231.0 144.0 L 231.0 146.0 L 231.0 147.0 L 231.0 149.0 L 231.0 150.0 L 231.0 152.0 L 231.0 154.0 L 231.0 155.0 L 231.0 155.0 L 231.0 157.0 L 231.0 159.0 L 231.0 161.0 L 231.0 163.0 L 231.0 164.0 L 231.0 165.0 L 231.0 166.0 L 231.0 166.0 L 231.0 167.0 L 232.0 167.0 L 232.0 168.0 L 232.0 168.0 L 232.0 169.0 L 232.0 170.0 L 232.0 171.0 L 232.0 172.0 L 232.0 173.0 L 232.0 174.0 L 232.0 175.0 L 232.0 177.0 L 232.0 178.0 L 232.0 180.0 L 232.0 181.0 L 232.0 182.0 L 231.0 184.0 L 231.0 186.0 L 231.0 188.0 L 231.0 191.0 L 231.0 193.0 L 231.0 195.0 L 231.0 197.0 L 231.0 199.0 L 231.0 201.0 L 231.0 204.0 L 231.0 206.0 L 231.0 208.0 L 231.0 210.0 L 231.0 211.0 L 231.0 213.0 L 231.0 215.0 L 231.0 216.0 L 231.0 218.0 L 231.0 219.0 L 231.0 220.0 L 231.0 221.0 L 231.0 223.0 L 231.0 224.0 L 231.0 226.0 L 231.0 227.0 L 231.0 228.0 L 231.0 230.0 L 231.0 231.0 L 232.0 232.0 L 232.0 233.0 L 232.0 234.0 L 232.0 235.0 L 232.0 236.0 L 232.0 236.0 L 232.0 237.0 L 232.0 238.0 L 233.0 239.0 L 233.0 240.0 L 233.0 241.0 L 233.0 242.0 L 233.0 242.0 L 233.0 243.0 L 233.0 243.0 L 233.0 244.0 L 233.0 244.0 L 233.0 244.0 L 233.0 245.0 L 233.0 245.0 L 233.0 246.0 L 233.0 246.0 L 233.0 246.0 L 233.0 247.0 L 233.0 247.0 L 233.0 247.0 L 233.0 247.0 L 233.0 246.0 L 233.0 245.0 " stroke="black" fill="none" stroke-width="5.0" stroke-linecap="round" stroke-linejoin="round" />
<path d="M 107.0 113.0 L 107.0 113.0 L 107.0 113.0 L 107.0 113.0 L 106.0 114.0 L 106.0 114.0 L 106.0 114.0 L 106.0 114.0 L 106.0 114.0 L 106.0 114.0 L 106.0 114.0 L 106.0 114.0 L 107.0 114.0 L 107.0 114.0 L 108.0 114.0 L 110.0 114.0 L 111.0 114.0 L 112.0 113.0 L 114.0 113.0 L 115.0 113.0 L 117.0 113.0 L 119.0 113.0 L 121.0 113.0 L 124.0 112.0 L 126.0 112.0 L 128.0 112.0 L 130.0 112.0 L 132.0 112.0 L 134.0 111.0 L 136.0 111.0 L 137.0 111.0 L 138.0 111.0 L 139.0 111.0 L 140.0 111.0 L 141.0 111.0 L 143.0 111.0 L 143.0 111.0 L 144.0 111.0 L 145.0 111.0 L 146.0 111.0 L 147.0 111.0 L 148.0 111.0 L 148.0 111.0 L 149.0 111.0 L 150.0 111.0 L 151.0 111.0 L 151.0 111.0 L 152.0 111.0 L 153.0 111.0 L 153.0 111.0 L 154.0 111.0 L 155.0 111.0 L 155.0 111.0 L 156.0 111.0 L 157.0 111.0 L 158.0 111.0 L 159.0 111.0 L 159.0 111.0 L 160.0 111.0 L 161.0 111.0 L 162.0 111.0 L 163.0 111.0 L 165.0 111.0 L 166.0 111.0 L 168.0 111.0 L 170.0 111.0 L 172.0 111.0 L 174.0 110.0 L 176.0 110.0 L 178.0 110.0 L 179.0 110.0 L 181.0 110.0 L 182.0 110.0 L 184.0 109.0 L 185.0 109.0 L 186.0 109.0 L 187.0 109.0 L 188.0 109.0 L 189.0 109.0 L 190.0 108.0 L 191.0 108.0 L 191.0 108.0 L 191.0 108.0 L 191.0 108.0 " stroke="black" fill="none" stroke-width="5.0" stroke-linecap="round" stroke-linejoin="round" />
<path d="M 148.0 97.0 L 148.0 97.0 L 148.0 97.0 L 148.0 97.0 L 148.0 97.0 L 148.0 97.0 L 148.0 97.0 L 148.0 97.0 L 148.0 98.0 L 148.0 100.0 L 148.0 103.0 L 148.0 107.0 L 148.0 112.0 L 147.0 117.0 L 147.0 122.0 L 147.0 127.0 L 147.0 131.0 L 147.0 134.0 L 147.0 135.0 " stroke="black" fill="none" stroke-width="5.0" stroke-linecap="round" stroke-linejoin="round" />
<path d="M 93.0 137.0 L 93.0 137.0 L 93.0 137.0 L 93.0 137.0 L 93.0 137.0 L 93.0 137.0 L 93.0 137.0 L 93.0 137.0 L 93.0 137.0 L 93.0 137.0 L 93.0 137.0 L 93.0 137.0 L 93.0 137.0 L 94.0 137.0 L 95.0 137.0 L 96.0 137.0 L 96.0 136.0 L 97.0 136.0 L 98.0 136.0 L 100.0 136.0 L 101.0 136.0 L 102.0 136.0 L 104.0 136.0 L 105.0 136.0 L 107.0 136.0 L 108.0 136.0 L 110.0 136.0 L 111.0 136.0 L 112.0 136.0 L 114.0 136.0 L 115.0 136.0 L 116.0 136.0 L 117.0 136.0 L 119.0 136.0 L 120.0 136.0 L 121.0 136.0 L 123.0 136.0 L 124.0 136.0 L 125.0 136.0 L 127.0 136.0 L 129.0 136.0 L 130.0 136.0 L 132.0 136.0 L 134.0 136.0 L 135.0 135.0 L 137.0 135.0 L 138.0 135.0 L 140.0 134.0 L 141.0 134.0 L 142.0 133.0 L 144.0 133.0 L 145.0 133.0 L 146.0 132.0 L 147.0 132.0 L 148.0 132.0 L 149.0 132.0 L 149.0 132.0 L 150.0 132.0 L 151.0 132.0 L 151.0 132.0 L 152.0 132.0 L 153.0 132.0 L 153.0 132.0 L 154.0 132.0 L 155.0 132.0 L 155.0 132.0 L 156.0 132.0 L 157.0 132.0 L 157.0 132.0 L 158.0 132.0 L 159.0 132.0 L 160.0 132.0 L 160.0 132.0 L 161.0 132.0 L 162.0 132.0 L 163.0 132.0 L 164.0 132.0 L 165.0 132.0 L 166.0 132.0 L 167.0 132.0 L 168.0 132.0 L 169.0 132.0 L 170.0 132.0 L 171.0 132.0 L 172.0 131.0 L 173.0 131.0 L 175.0 131.0 L 176.0 131.0 L 178.0 131.0 L 179.0 131.0 L 181.0 131.0 L 183.0 131.0 L 185.0 131.0 L 188.0 131.0 L 190.0 131.0 L 192.0 131.0 L 194.0 131.0 L 195.0 131.0 L 196.0 130.0 L 198.0 130.0 L 199.0 130.0 L 200.0 130.0 L 201.0 130.0 L 202.0 129.0 L 203.0 129.0 L 204.0 129.0 L 204.0 129.0 L 205.0 129.0 L 205.0 129.0 L 206.0 129.0 L 206.0 129.0 L 206.0 130.0 L 206.0 130.0 " stroke="black" fill="none" stroke-width="5.0" stroke-linecap="round" stroke-linejoin="round" />
<path d="M 107.0 155.0 L 107.0 155.0 L 107.0 155.0 L 107.0 155.0 L 107.0 155.0 L 107.0 154.0 L 107.0 154.0 L 107.0 154.0 L 107.0 154.0 L 107.0 154.0 L 107.0 155.0 L 107.0 157.0 L 107.0 158.0 L 107.0 161.0 L 107.0 163.0 L 107.0 166.0 L 107.0 169.0 L 107.0 172.0 L 107.0 174.0 L 108.0 175.0 L 108.0 175.0 L 108.0 175.0 " stroke="black" fill="none" stroke-width="5.0" stroke-linecap="round" stroke-linejoin="round" />
<path d="M 109.0 152.0 L 109.0 152.0 L 109.0 152.0 L 108.0 152.0 L 108.0 152.0 L 108.0 152.0 L 108.0 152.0 L 108.0 153.0 L 108.0 153.0 L 108.0 153.0 L 108.0 153.0 L 108.0 153.0 L 108.0 153.0 L 108.0 153.0 L 109.0 153.0 L 109.0 153.0 L 110.0 153.0 L 111.0 152.0 L 111.0 152.0 L 112.0 152.0 L 113.0 152.0 L 114.0 152.0 L 116.0 152.0 L 117.0 152.0 L 119.0 151.0 L 121.0 151.0 L 122.0 151.0 L 124.0 151.0 L 126.0 151.0 L 127.0 151.0 L 129.0 151.0 L 130.0 151.0 L 131.0 151.0 L 133.0 151.0 L 134.0 151.0 L 136.0 151.0 L 137.0 151.0 L 138.0 151.0 L 139.0 151.0 L 141.0 151.0 L 142.0 151.0 L 143.0 151.0 L 143.0 151.0 L 144.0 151.0 L 145.0 151.0 L 145.0 151.0 L 146.0 151.0 L 146.0 151.0 L 146.0 150.0 L 147.0 150.0 L 147.0 150.0 L 148.0 150.0 L 148.0 150.0 L 148.0 150.0 L 149.0 150.0 L 149.0 150.0 L 150.0 150.0 L 150.0 150.0 L 150.0 150.0 L 151.0 150.0 L 151.0 150.0 L 152.0 150.0 L 152.0 150.0 L 153.0 150.0 L 153.0 150.0 L 154.0 150.0 L 155.0 150.0 L 156.0 150.0 L 157.0 150.0 L 157.0 150.0 L 158.0 150.0 L 159.0 150.0 L 160.0 150.0 L 160.0 150.0 L 161.0 150.0 L 162.0 150.0 L 162.0 150.0 L 163.0 150.0 L 163.0 150.0 L 164.0 150.0 L 165.0 150.0 L 165.0 150.0 L 166.0 150.0 L 167.0 150.0 L 167.0 150.0 L 168.0 150.0 L 168.0 150.0 L 169.0 150.0 L 170.0 150.0 L 171.0 150.0 L 171.0 150.0 L 172.0 150.0 L 173.0 150.0 L 173.0 150.0 L 174.0 150.0 L 175.0 150.0 L 176.0 150.0 L 177.0 150.0 L 177.0 150.0 L 178.0 150.0 L 179.0 150.0 L 180.0 150.0 L 180.0 150.0 L 181.0 150.0 L 182.0 150.0 L 182.0 150.0 L 183.0 150.0 L 184.0 150.0 L 184.0 150.0 L 185.0 150.0 L 185.0 150.0 L 186.0 150.0 L 186.0 150.0 L 186.0 150.0 L 187.0 150.0 L 187.0 150.0 L 188.0 151.0 L 188.0 151.0 L 188.0 151.0 L 189.0 151.0 L 189.0 151.0 L 189.0 151.0 L 190.0 151.0 L 190.0 151.0 L 190.0 151.0 L 190.0 151.0 L 190.0 151.0 L 190.0 151.0 L 191.0 151.0 L 191.0 152.0 L 191.0 152.0 L 191.0 152.0 L 191.0 152.0 L 191.0 152.0 L 191.0 152.0 L 191.0 153.0 L 191.0 153.0 L 191.0 154.0 L 191.0 155.0 L 191.0 156.0 L 191.0 158.0 L 191.0 159.0 L 191.0 161.0 L 191.0 163.0 L 190.0 164.0 L 190.0 166.0 L 190.0 167.0 L 190.0 168.0 L 190.0 169.0 L 190.0 170.0 " stroke="black" fill="none" stroke-width="5.0" stroke-linecap="round" stroke-linejoin="round" />
<path d="M 108.0 173.0 L 108.0 173.0 L 108.0 173.0 L 108.0 173.0 L 108.0 173.0 L 108.0 173.0 L 108.0 173.0 L 108.0 173.0 L 108.0 173.0 L 108.0 173.0 L 108.0 173.0 L 109.0 173.0 L 109.0 173.0 L 110.0 173.0 L 111.0 173.0 L 112.0 174.0 L 113.0 174.0 L 115.0 174.0 L 117.0 174.0 L 119.0 174.0 L 121.0 174.0 L 124.0 174.0 L 126.0 174.0 L 128.0 174.0 L 130.0 174.0 L 132.0 174.0 L 134.0 174.0 L 136.0 174.0 L 138.0 173.0 L 139.0 173.0 L 141.0 173.0 L 142.0 173.0 L 143.0 173.0 L 144.0 173.0 L 145.0 172.0 L 146.0 172.0 L 147.0 172.0 L 147.0 172.0 L 148.0 172.0 L 149.0 172.0 L 149.0 172.0 L 150.0 172.0 L 151.0 172.0 L 151.0 172.0 L 152.0 172.0 L 152.0 172.0 L 153.0 172.0 L 153.0 172.0 L 154.0 172.0 L 154.0 172.0 L 155.0 172.0 L 155.0 172.0 L 156.0 172.0 L 157.0 172.0 L 157.0 172.0 L 158.0 172.0 L 158.0 172.0 L 159.0 172.0 L 160.0 172.0 L 160.0 172.0 L 161.0 172.0 L 162.0 172.0 L 163.0 172.0 L 164.0 172.0 L 164.0 172.0 L 165.0 172.0 L 166.0 171.0 L 167.0 171.0 L 168.0 171.0 L 169.0 171.0 L 170.0 171.0 L 171.0 171.0 L 171.0 171.0 L 172.0 171.0 L 173.0 171.0 L 174.0 171.0 L 175.0 171.0 L 176.0 171.0 L 177.0 171.0 L 178.0 171.0 L 179.0 171.0 L 180.0 171.0 L 180.0 171.0 L 181.0 171.0 L 182.0 171.0 L 183.0 171.0 L 183.0 171.0 L 184.0 171.0 L 184.0 171.0 L 185.0 171.0 L 185.0 171.0 L 186.0 171.0 L 187.0 170.0 L 187.0 170.0 L 187.0 170.0 L 188.0 170.0 L 188.0 170.0 L 188.0 170.0 L 189.0 170.0 L 189.0 170.0 L 189.0 170.0 L 189.0 170.0 L 189.0 170.0 L 189.0 170.0 " stroke="black" fill="none" stroke-width="5.0" stroke-linecap="round" stroke-linejoin="round" />
<path d="M 139.0 176.0 L 139.0 176.0 L 140.0 176.0 L 140.0 176.0 L 141.0 176.0 L 141.0 176.0 L 141.0 176.0 L 141.0 177.0 L 142.0 177.0 L 142.0 177.0 L 142.0 178.0 L 142.0 178.0 L 142.0 178.0 L 142.0 178.0 L 142.0 178.0 L 142.0 179.0 L 142.0 179.0 L 141.0 179.0 L 140.0 180.0 L 139.0 180.0 L 138.0 181.0 L 137.0 182.0 L 135.0 183.0 L 133.0 184.0 L 131.0 186.0 L 128.0 188.0 L 125.0 189.0 L 122.0 191.0 L 119.0 193.0 L 115.0 195.0 L 112.0 197.0 L 109.0 198.0 L 106.0 200.0 L 103.0 202.0 L 101.0 203.0 L 99.0 204.0 L 96.0 204.0 L 95.0 204.0 " stroke="black" fill="none" stroke-width="5.0" stroke-linecap="round" stroke-linejoin="round" />
<path d="M 116.0 193.0 L 116.0 193.0 L 116.0 193.0 L 116.0 193.0 L 116.0 193.0 L 116.0 193.0 L 116.0 193.0 L 116.0 193.0 L 116.0 193.0 L 116.0 193.0 L 116.0 193.0 L 116.0 194.0 L 116.0 195.0 L 116.0 196.0 L 116.0 198.0 L 117.0 200.0 L 117.0 203.0 L 117.0 206.0 L 117.0 209.0 L 117.0 212.0 L 117.0 215.0 L 117.0 217.0 L 117.0 219.0 L 117.0 221.0 L 117.0 222.0 L 117.0 222.0 L 117.0 223.0 L 117.0 223.0 L 117.0 223.0 L 117.0 222.0 L 118.0 221.0 L 119.0 220.0 L 121.0 218.0 L 124.0 216.0 L 127.0 215.0 L 130.0 214.0 L 134.0 212.0 L 138.0 211.0 L 143.0 210.0 L 146.0 208.0 L 150.0 207.0 " stroke="black" fill="none" stroke-width="5.0" stroke-linecap="round" stroke-linejoin="round" />
<path d="M 196.0 187.0 L 196.0 187.0 L 196.0 188.0 L 195.0 188.0 L 195.0 188.0 L 195.0 189.0 L 195.0 189.0 L 195.0 189.0 L 194.0 190.0 L 194.0 190.0 L 194.0 191.0 L 193.0 191.0 L 191.0 193.0 L 188.0 194.0 L 185.0 196.0 L 180.0 198.0 " stroke="black" fill="none" stroke-width="5.0" stroke-linecap="round" stroke-linejoin="round" />
<path d="M 155.0 189.0 L 155.0 189.0 L 155.0 189.0 L 155.0 189.0 L 155.0 189.0 L 154.0 189.0 L 154.0 189.0 L 154.0 188.0 L 154.0 188.0 L 154.0 188.0 L 154.0 188.0 L 154.0 188.0 L 154.0 188.0 L 154.0 188.0 L 154.0 188.0 L 154.0 188.0 L 154.0 188.0 L 154.0 188.0 L 154.0 189.0 L 154.0 189.0 L 154.0 190.0 L 154.0 191.0 L 155.0 191.0 L 155.0 192.0 L 156.0 192.0 L 156.0 193.0 L 157.0 194.0 L 157.0 195.0 L 158.0 195.0 L 159.0 196.0 L 160.0 198.0 L 161.0 199.0 L 162.0 200.0 L 164.0 201.0 L 165.0 202.0 L 166.0 203.0 L 168.0 204.0 L 169.0 205.0 L 171.0 206.0 L 172.0 207.0 L 174.0 208.0 L 175.0 209.0 L 177.0 210.0 L 178.0 210.0 L 179.0 211.0 L 181.0 212.0 L 182.0 212.0 L 184.0 213.0 L 185.0 213.0 L 187.0 214.0 L 188.0 214.0 L 189.0 215.0 L 190.0 216.0 L 191.0 216.0 L 192.0 217.0 L 194.0 218.0 L 195.0 218.0 L 196.0 219.0 L 197.0 219.0 L 198.0 220.0 L 199.0 220.0 L 200.0 221.0 L 201.0 221.0 L 201.0 222.0 L 202.0 222.0 L 202.0 222.0 L 203.0 222.0 L 203.0 223.0 L 203.0 223.0 L 203.0 223.0 L 203.0 223.0 L 203.0 223.0 L 203.0 223.0 L 203.0 224.0 " stroke="black" fill="none" stroke-width="5.0" stroke-linecap="round" stroke-linejoin="round" />
<path d="M 68.0 243.0 L 68.0 243.0 L 68.0 243.0 L 68.0 243.0 L 67.0 243.0 L 67.0 243.0 L 66.0 243.0 L 66.0 243.0 L 66.0 243.0 L 66.0 243.0 L 66.0 243.0 L 66.0 243.0 L 66.0 242.0 L 66.0 242.0 L 67.0 242.0 L 68.0 242.0 L 69.0 242.0 L 70.0 242.0 L 71.0 242.0 L 72.0 242.0 L 73.0 242.0 L 74.0 242.0 L 75.0 242.0 L 76.0 242.0 L 77.0 242.0 L 78.0 242.0 L 80.0 242.0 L 81.0 243.0 L 82.0 243.0 L 83.0 243.0 L 85.0 243.0 L 86.0 243.0 L 87.0 244.0 L 89.0 244.0 L 90.0 244.0 L 91.0 244.0 L 93.0 244.0 L 94.0 244.0 L 95.0 245.0 L 96.0 245.0 L 97.0 245.0 L 98.0 245.0 L 99.0 245.0 L 100.0 245.0 L 101.0 245.0 L 101.0 245.0 L 102.0 245.0 L 103.0 245.0 L 104.0 246.0 L 105.0 246.0 L 106.0 246.0 L 107.0 246.0 L 107.0 246.0 L 108.0 246.0 L 109.0 246.0 L 110.0 246.0 L 111.0 246.0 L 112.0 246.0 L 113.0 246.0 L 114.0 246.0 L 115.0 246.0 L 116.0 246.0 L 117.0 246.0 L 118.0 245.0 L 118.0 245.0 L 119.0 245.0 L 120.0 245.0 L 121.0 245.0 L 122.0 244.0 L 123.0 244.0 L 124.0 244.0 L 125.0 244.0 L 125.0 244.0 L 126.0 244.0 L 127.0 244.0 L 128.0 244.0 L 129.0 244.0 L 130.0 244.0 L 131.0 244.0 L 132.0 244.0 L 132.0 244.0 L 133.0 244.0 L 134.0 244.0 L 135.0 244.0 L 136.0 244.0 L 136.0 244.0 L 137.0 244.0 L 138.0 244.0 L 139.0 244.0 L 140.0 244.0 L 140.0 244.0 L 141.0 244.0 L 142.0 244.0 L 142.0 244.0 L 143.0 244.0 L 143.0 244.0 L 144.0 244.0 L 144.0 244.0 L 145.0 243.0 L 145.0 243.0 L 145.0 243.0 L 146.0 243.0 L 146.0 243.0 L 147.0 243.0 L 147.0 243.0 L 148.0 243.0 L 148.0 243.0 L 149.0 243.0 L 149.0 243.0 L 150.0 243.0 L 150.0 243.0 L 150.0 243.0 L 151.0 243.0 L 151.0 243.0 L 152.0 243.0 L 152.0 243.0 L 153.0 243.0 L 153.0 243.0 L 154.0 243.0 L 154.0 243.0 L 155.0 243.0 L 155.0 243.0 L 156.0 243.0 L 156.0 243.0 L 157.0 244.0 L 158.0 244.0 L 158.0 244.0 L 159.0 244.0 L 160.0 244.0 L 160.0 244.0 L 161.0 244.0 L 162.0 244.0 L 162.0 244.0 L 163.0 244.0 L 164.0 244.0 L 165.0 244.0 L 166.0 244.0 L 167.0 245.0 L 168.0 245.0 L 169.0 245.0 L 169.0 245.0 L 170.0 245.0 L 171.0 245.0 L 172.0 245.0 L 173.0 245.0 L 174.0 245.0 L 175.0 245.0 L 175.0 245.0 L 176.0 245.0 L 177.0 245.0 L 178.0 245.0 L 179.0 245.0 L 179.0 245.0 L 180.0 245.0 L 181.0 245.0 L 182.0 245.0 L 182.0 245.0 L 183.0 245.0 L 183.0 245.0 L 184.0 245.0 L 185.0 245.0 L 185.0 245.0 L 186.0 245.0 L 187.0 245.0 L 187.0 245.0 L 188.0 245.0 L 188.0 245.0 L 189.0 245.0 L 189.0 245.0 L 190.0 245.0 L 190.0 245.0 L 191.0 245.0 L 191.0 245.0 L 192.0 245.0 L 192.0 245.0 L 193.0 245.0 L 193.0 245.0 L 193.0 245.0 L 194.0 245.0 L 194.0 245.0 L 194.0 245.0 L 195.0 245.0 L 195.0 245.0 L 195.0 245.0 L 196.0 245.0 L 196.0 245.0 L 197.0 245.0 L 197.0 245.0 L 197.0 245.0 L 198.0 245.0 L 198.0 245.0 L 198.0 245.0 L 199.0 245.0 L 199.0 245.0 L 200.0 245.0 L 200.0 245.0 L 200.0 245.0 L 201.0 245.0 L 201.0 245.0 L 202.0 245.0 L 202.0 245.0 L 203.0 245.0 L 203.0 245.0 L 204.0 245.0 L 204.0 245.0 L 205.0 245.0 L 205.0 245.0 L 206.0 245.0 L 207.0 245.0 L 207.0 245.0 L 208.0 245.0 L 208.0 245.0 L 209.0 245.0 L 209.0 245.0 L 210.0 245.0 L 210.0 245.0 L 211.0 245.0 L 211.0 245.0 L 212.0 245.0 L 212.0 245.0 L 213.0 245.0 L 214.0 245.0 L 214.0 245.0 L 215.0 245.0 L 215.0 245.0 L 216.0 245.0 L 216.0 245.0 L 217.0 245.0 L 218.0 245.0 L 218.0 245.0 L 219.0 245.0 L 219.0 245.0 L 220.0 245.0 L 220.0 244.0 L 221.0 244.0 L 221.0 244.0 L 221.0 244.0 L 222.0 244.0 L 222.0 244.0 L 223.0 244.0 L 223.0 244.0 L 223.0 244.0 L 224.0 244.0 L 224.0 244.0 L 224.0 244.0 L 224.0 244.0 " stroke="black" fill="none" stroke-width="5.0" stroke-linecap="round" stroke-linejoin="round" />
</svg>