<svg xmlns="http://www.w3.org/2000/svg" width="300" height="300" viewBox="0 0 300 300">
<path d="M 68.0 111.0 L 68.0 111.0 L 67.0 110.0 L 66.0 109.0 L 65.0 109.0 L 64.0 108.0 L 63.0 108.0 L 62.0 108.0 L 61.0 108.0 L 60.0 108.0 L 60.0 108.0 L 60.0 107.0 L 62.0 107.0 L 65.0 106.0 L 70.0 105.0 L 78.0 104.0 L 87.0 103.0 L 99.0 102.0 L 110.0 102.0 L 121.0 102.0 L 136.0 102.0 L 148.0 103.0 L 158.0 103.0 L 169.0 102.0 L 180.0 102.0 L 189.0 101.0 L 197.0 100.0 L 202.0 100.0 L 206.0 100.0 L 211.0 100.0 L 215.0 101.0 L 218.0 101.0 L 221.0 102.0 L 223.0 102.0 L 225.0 102.0 L 227.0 102.0 L 227.0 102.0 L 228.0 102.0 L 228.0 101.0 " stroke="black" fill="none" stroke-width="5.0" stroke-linecap="round" stroke-linejoin="round" />
<path d="M 130.0 84.0 L 131.0 84.0 L 132.0 84.0 L 133.0 84.0 L 134.0 84.0 L 134.0 84.0 L 135.0 85.0 L 136.0 85.0 L 136.0 87.0 L 136.0 89.0 L 136.0 91.0 L 134.0 96.0 L 130.0 102.0 L 126.0 109.0 L 121.0 118.0 L 115.0 127.0 L 109.0 139.0 L 104.0 150.0 L 97.0 160.0 L 89.0 169.0 L 81.0 175.0 L 73.0 181.0 L 67.0 184.0 L 65.0 185.0 " stroke="black" fill="none" stroke-width="5.0" stroke-linecap="round" stroke-linejoin="round" />
<path d="M 99.0 167.0 L 99.0 166.0 L 99.0 166.0 L 99.0 165.0 L 99.0 165.0 L 99.0 164.0 L 99.0 164.0 L 98.0 164.0 L 98.0 164.0 L 98.0 164.0 L 97.0 165.0 L 97.0 168.0 L 97.0 173.0 L 96.0 180.0 L 96.0 189.0 L 96.0 199.0 L 96.0 211.0 L 95.0 223.0 L 95.0 236.0 L 95.0 246.0 L 95.0 253.0 L 95.0 257.0 L 96.0 257.0 " stroke="black" fill="none" stroke-width="5.0" stroke-linecap="round" stroke-linejoin="round" />
<path d="M 134.0 176.0 L 134.0 176.0 L 133.0 175.0 L 132.0 175.0 L 130.0 175.0 L 128.0 175.0 L 127.0 174.0 L 126.0 174.0 L 125.0 173.0 L 125.0 173.0 L 125.0 173.0 L 125.0 173.0 L 126.0 173.0 L 128.0 173.0 L 130.0 173.0 L 134.0 173.0 L 138.0 174.0 L 142.0 175.0 L 147.0 176.0 L 153.0 176.0 L 160.0 176.0 L 170.0 176.0 L 182.0 176.0 L 192.0 175.0 L 202.0 173.0 L 211.0 171.0 L 219.0 170.0 L 227.0 169.0 L 230.0 168.0 L 231.0 168.0 L 232.0 168.0 L 232.0 168.0 L 231.0 168.0 " stroke="black" fill="none" stroke-width="5.0" stroke-linecap="round" stroke-linejoin="round" />
<path d="M 175.0 142.0 L 175.0 142.0 L 176.0 140.0 L 177.0 139.0 L 177.0 138.0 L 177.0 137.0 L 178.0 137.0 L 178.0 137.0 L 178.0 137.0 L 178.0 138.0 L 179.0 140.0 L 179.0 144.0 L 179.0 148.0 L 178.0 153.0 L 178.0 159.0 L 177.0 167.0 L 176.0 176.0 L 174.0 188.0 L 173.0 200.0 L 172.0 212.0 L 171.0 222.0 L 170.0 231.0 L 170.0 237.0 L 169.0 241.0 L 169.0 243.0 L 168.0 243.0 L 168.0 243.0 L 168.0 243.0 L 169.0 242.0 L 169.0 241.0 " stroke="black" fill="none" stroke-width="5.0" stroke-linecap="round" stroke-linejoin="round" />
<path d="M 138.0 232.0 L 138.0 232.0 L 137.0 232.0 L 135.0 232.0 L 134.0 232.0 L 132.0 233.0 L 130.0 233.0 L 129.0 234.0 L 128.0 234.0 L 127.0 234.0 L 126.0 235.0 L 126.0 235.0 L 126.0 235.0 L 128.0 235.0 L 130.0 235.0 L 133.0 235.0 L 138.0 236.0 L 142.0 237.0 L 146.0 237.0 L 151.0 238.0 L 157.0 239.0 L 165.0 240.0 L 176.0 240.0 L 185.0 241.0 L 194.0 241.0 L 202.0 241.0 L 209.0 242.0 L 217.0 242.0 L 225.0 243.0 L 232.0 243.0 L 237.0 243.0 L 241.0 244.0 L 243.0 244.0 L 244.0 244.0 L 244.0 244.0 L 245.0 244.0 L 245.0 244.0 L 245.0 244.0 L 244.0 244.0 L 242.0 244.0 L 241.0 244.0 " stroke="black" fill="none" stroke-width="5.0" stroke-linecap="round" stroke-linejoin="round" />
</svg>