<svg xmlns="http://www.w3.org/2000/svg" width="300" height="300" viewBox="0 0 300 300">
<path d="M 66.5 128.0 L 66.5 128.0 L 66.5 128.0 L 66.5 128.0 L 66.5 128.0 L 66.0 128.0 L 66.0 127.5 L 66.0 127.5 L 66.0 127.5 L 66.0 127.5 L 66.0 127.5 L 66.0 127.5 L 67.0 127.5 L 68.0 127.5 L 69.5 127.5 L 72.0 128.0 L 74.5 128.0 L 78.0 128.5 L 81.0 128.5 L 84.0 128.5 L 87.0 128.5 L 90.0 128.5 L 92.5 128.0 L 95.5 128.0 L 99.0 127.5 L 104.0 127.5 L 106.0 127.5 L 107.5 127.5 L 109.0 127.5 L 110.0 128.0 L 111.5 128.0 L 113.0 128.0 L 114.5 128.0 L 115.5 128.5 L 116.5 128.5 L 117.5 128.5 L 117.5 128.5 L 117.5 128.5 L 117.5 128.5 " stroke="black" fill="none" stroke-width="5.0" stroke-linecap="round" stroke-linejoin="round" />
<path d="M 87.5 84.5 L 87.5 84.5 L 87.5 84.5 L 87.5 84.5 L 87.5 84.5 L 87.5 84.5 L 87.5 84.5 L 87.5 84.5 L 87.5 84.5 L 87.5 85.0 L 87.5 86.0 L 87.5 87.0 L 87.5 88.5 L 87.5 90.0 L 87.5 92.0 L 87.5 94.5 L 87.5 97.0 L 87.5 99.5 L 87.5 102.5 L 87.5 105.5 L 87.5 108.5 L 87.5 111.5 L 87.5 113.5 L 87.5 116.0 L 87.5 118.5 L 87.5 120.5 L 87.5 123.0 L 87.5 125.5 L 87.5 128.0 L 87.5 130.5 L 87.5 132.5 L 87.5 134.5 L 87.5 136.5 L 87.5 138.5 L 88.0 140.0 L 88.0 141.5 L 88.0 143.5 L 88.0 145.5 L 88.5 148.0 L 88.5 150.0 L 88.5 152.0 L 88.5 154.0 L 88.5 156.0 L 88.5 158.0 L 88.5 159.5 L 88.5 161.5 L 88.0 163.0 L 88.0 165.0 L 88.0 167.0 L 88.0 168.5 L 88.0 170.0 L 88.0 172.0 L 88.0 173.5 L 88.5 174.5 L 88.5 176.0 L 88.5 177.5 L 88.5 178.5 L 88.5 180.0 L 88.5 181.5 L 88.5 182.5 L 88.5 184.0 L 88.5 185.5 L 88.5 187.0 L 88.5 188.5 L 88.5 189.5 L 88.5 190.5 L 88.5 192.0 L 88.5 192.5 L 88.5 193.5 L 88.5 194.0 L 88.5 195.0 L 88.5 195.5 L 88.5 196.5 L 88.5 197.0 L 88.5 197.5 L 88.5 198.5 L 88.5 199.0 L 88.5 199.5 L 88.5 200.5 L 88.5 201.0 L 88.5 201.5 L 88.5 202.0 L 88.5 202.5 L 88.5 202.5 L 88.5 203.0 L 88.5 203.0 L 88.5 203.0 L 88.5 202.5 " stroke="black" fill="none" stroke-width="5.0" stroke-linecap="round" stroke-linejoin="round" />
<path d="M 71.0 215.0 L 71.0 215.0 L 71.0 215.5 L 70.5 215.5 L 70.5 215.5 L 70.0 216.0 L 69.5 216.0 L 69.5 216.0 L 69.5 216.0 L 69.5 216.0 L 69.5 215.5 L 69.5 215.0 L 70.0 214.5 L 71.0 214.0 L 72.5 213.5 L 74.5 212.5 L 77.5 211.0 L 81.0 209.0 L 85.0 206.5 L 89.5 203.5 L 95.0 200.5 L 100.5 197.5 L 106.0 194.5 L 109.0 192.0 L 112.0 190.0 L 115.0 187.5 L 117.5 185.5 L 120.0 183.5 L 122.0 182.0 " stroke="black" fill="none" stroke-width="5.0" stroke-linecap="round" stroke-linejoin="round" />
<path d="M 127.5 157.0 L 127.0 157.0 L 126.5 157.5 L 126.0 158.0 L 125.0 158.5 L 124.5 158.5 L 124.0 158.5 L 124.0 158.5 L 124.0 158.5 L 124.0 158.5 L 124.5 158.0 L 125.5 157.5 L 126.5 157.0 L 128.0 156.5 L 129.5 155.5 L 131.0 155.0 L 133.5 154.0 L 136.5 153.0 L 140.5 151.5 L 145.0 150.0 L 149.0 148.0 L 153.5 146.0 L 157.0 144.0 L 161.5 142.0 L 166.0 140.0 L 169.5 139.0 L 172.0 137.5 L 174.5 136.5 L 176.0 135.5 L 178.5 134.0 L 181.5 133.0 L 184.5 131.5 L 187.0 130.5 L 189.5 129.5 L 191.5 128.0 L 192.5 127.0 L 194.0 126.5 L 194.5 125.5 L 195.5 125.0 L 196.5 124.5 L 197.0 124.0 L 198.0 123.0 L 199.5 122.0 L 200.5 121.0 L 202.0 120.0 L 203.5 119.0 L 205.0 118.5 L 206.0 118.0 L 207.0 117.5 L 207.5 117.5 L 208.5 117.0 L 209.0 117.0 L 209.5 116.5 L 210.0 116.0 L 211.0 115.5 L 212.0 115.0 L 213.0 114.5 L 213.5 114.0 L 214.5 114.0 L 215.0 113.5 L 215.5 113.0 L 216.0 113.0 L 216.0 112.5 L 216.5 112.5 L 217.0 112.5 L 217.5 112.0 L 218.0 111.5 L 218.5 111.5 L 219.0 111.0 L 220.0 110.5 L 220.5 110.5 L 221.0 110.0 L 221.5 110.0 L 222.0 109.5 L 223.0 109.5 L 223.5 109.5 L 224.0 109.5 L 224.5 109.5 L 225.5 109.5 L 226.0 109.0 L 226.5 109.0 L 227.5 109.0 L 228.0 109.0 L 228.5 108.5 L 229.0 108.5 L 229.0 108.5 L 229.5 108.5 L 229.5 108.5 L 230.0 108.5 L 230.0 108.5 L 230.5 108.5 L 230.5 108.5 L 231.0 108.5 L 231.0 108.5 L 231.5 108.5 L 231.5 109.0 L 231.5 109.0 L 231.5 109.0 L 231.5 109.0 L 231.5 109.5 L 231.5 110.0 L 231.5 111.0 L 231.5 111.5 L 231.5 113.0 L 231.0 114.5 L 230.5 116.5 L 230.5 119.5 L 230.0 122.5 L 229.5 126.5 L 229.0 130.0 L 229.0 133.0 L 228.5 137.0 L 228.0 140.0 L 227.5 143.5 L 227.5 148.0 L 227.0 151.5 L 226.5 155.0 L 226.5 158.0 L 226.5 160.5 L 226.0 162.0 L 226.0 163.5 L 225.5 164.5 L 225.0 166.0 L 224.5 168.0 L 224.0 169.5 L 223.5 171.5 L 223.0 174.0 L 222.5 176.0 L 222.0 178.0 L 221.5 180.0 L 221.0 181.5 L 221.0 183.0 L 221.0 185.0 L 220.5 186.5 L 220.5 188.0 L 220.5 190.0 L 220.5 191.5 L 220.5 192.5 L 220.5 193.0 L 220.5 193.5 L 220.0 193.5 L 220.0 193.5 L 220.0 193.5 L 220.0 193.5 L 220.0 193.5 " stroke="black" fill="none" stroke-width="5.0" stroke-linecap="round" stroke-linejoin="round" />
<path d="M 186.0 75.0 L 186.0 75.0 L 186.0 75.0 L 186.0 75.5 L 186.0 75.5 L 185.5 76.0 L 185.5 76.5 L 185.0 77.0 L 184.5 78.0 L 184.5 79.5 L 184.5 81.5 L 184.0 84.0 L 184.0 86.5 L 184.0 89.5 L 184.5 93.0 L 185.5 96.5 L 186.0 100.0 L 186.0 104.0 L 186.5 108.0 L 186.5 112.0 L 186.5 116.5 L 186.5 120.5 L 186.5 124.5 L 186.5 129.5 L 186.5 133.0 L 186.5 136.0 L 186.5 139.0 L 186.5 141.5 L 186.5 144.5 L 186.5 148.5 L 186.0 151.5 L 186.0 154.5 L 186.0 157.5 L 186.0 160.0 L 186.0 162.5 L 186.5 165.5 L 186.5 168.0 L 187.0 170.5 L 187.5 173.0 L 187.5 175.0 L 187.5 176.5 L 187.5 178.0 L 187.5 179.5 L 187.0 181.5 L 187.0 183.5 L 186.5 185.5 L 186.5 187.5 L 186.0 189.5 L 186.0 191.5 L 186.0 192.5 L 186.0 194.0 L 186.0 195.0 L 186.0 196.0 L 186.0 197.0 L 186.0 197.5 L 186.0 198.5 L 186.0 199.0 L 186.0 199.0 L 186.0 199.0 L 186.0 199.0 " stroke="black" fill="none" stroke-width="5.0" stroke-linecap="round" stroke-linejoin="round" />
<path d="M 146.5 89.0 L 146.5 89.0 L 146.5 89.0 L 146.5 88.5 L 146.5 88.0 L 146.5 88.0 L 146.5 88.0 L 146.5 88.0 L 146.5 88.5 L 146.0 89.0 L 146.0 90.0 L 146.0 91.0 L 146.0 92.0 L 146.0 93.5 L 146.0 95.0 L 146.0 97.0 L 146.0 99.5 L 146.0 103.0 L 146.0 106.5 L 146.0 110.5 L 146.0 114.0 L 146.0 116.5 L 146.0 118.5 L 146.5 121.0 L 146.5 123.0 L 146.5 125.0 L 146.5 127.5 L 146.5 130.0 L 146.5 132.5 L 146.5 134.5 L 146.5 136.5 L 146.5 138.5 L 147.0 140.5 L 147.0 142.5 L 147.0 144.5 L 147.0 146.5 L 147.5 148.0 L 147.5 150.0 L 147.5 152.0 L 147.5 153.5 L 147.5 155.0 L 147.5 157.0 L 147.5 158.5 L 147.5 160.0 L 147.5 161.5 L 147.5 163.0 L 147.5 164.5 L 147.5 166.5 L 147.5 168.0 L 147.5 169.5 L 147.5 171.0 L 147.5 172.5 L 147.5 174.0 L 147.0 175.5 L 147.0 176.5 L 147.0 178.0 L 147.0 179.0 L 147.0 180.0 L 147.0 181.0 L 147.0 182.5 L 147.0 183.5 L 147.0 185.0 L 146.5 186.5 L 146.5 188.5 L 146.5 190.0 L 146.5 191.5 L 146.0 193.0 L 146.0 194.0 L 146.0 195.5 L 146.0 197.0 L 146.0 198.0 L 145.5 199.0 L 145.5 200.0 L 145.5 201.0 L 145.5 202.0 L 145.5 203.0 L 145.5 204.0 L 145.5 205.0 L 145.5 206.5 L 145.5 207.5 L 145.5 209.0 L 145.5 210.0 L 145.5 211.5 L 145.5 213.0 L 145.5 214.0 L 145.5 215.0 L 145.5 216.0 L 145.5 217.0 L 145.5 217.5 L 145.5 218.5 L 145.5 219.0 L 145.5 220.0 L 145.5 220.5 L 145.5 221.0 L 145.5 222.0 L 145.5 222.5 L 145.5 223.0 L 145.5 223.5 L 145.5 224.0 L 145.5 225.0 L 145.5 225.5 L 145.5 226.0 L 145.5 227.0 L 145.5 227.5 L 145.5 228.5 L 145.5 229.0 L 145.5 230.0 L 145.5 230.5 L 146.0 231.0 L 146.0 231.5 L 146.0 232.0 L 146.5 233.0 L 146.5 233.5 L 147.0 234.0 L 147.0 234.5 L 147.5 235.5 L 147.5 236.0 L 148.0 236.5 L 148.0 237.5 L 148.5 238.0 L 149.0 238.5 L 149.0 239.0 L 149.5 239.5 L 150.0 240.0 L 150.5 240.0 L 151.0 240.5 L 151.0 241.0 L 151.5 241.5 L 152.0 242.5 L 152.5 243.0 L 153.0 243.5 L 153.5 244.0 L 153.5 244.0 L 154.0 244.5 L 155.0 245.0 L 155.5 245.0 L 156.5 245.0 L 158.0 245.5 L 159.0 245.5 L 160.5 245.5 L 162.5 246.0 L 164.0 246.0 L 166.0 246.0 L 168.0 246.0 L 170.0 246.0 L 171.5 246.0 L 173.0 246.0 L 174.5 246.5 L 176.0 246.5 L 178.0 246.5 L 180.0 246.5 L 181.5 246.5 L 184.0 247.0 L 186.0 247.0 L 188.0 247.0 L 190.0 247.5 L 192.0 247.5 L 193.5 247.5 L 195.0 247.5 L 196.0 247.5 L 197.0 247.5 L 199.0 247.5 L 200.5 247.5 L 202.0 247.5 L 204.0 247.5 L 205.5 247.5 L 207.5 247.5 L 209.5 247.5 L 210.5 247.5 L 212.0 247.5 L 213.0 247.5 L 214.0 247.5 L 214.5 247.5 L 215.0 247.0 L 215.5 247.0 L 216.0 246.5 L 216.0 246.5 L 216.5 246.0 L 217.0 245.5 L 217.5 245.5 L 218.0 245.0 L 218.5 245.0 L 219.0 244.5 L 219.5 244.0 L 220.0 244.0 L 220.5 243.5 L 221.0 243.0 L 221.5 243.0 L 222.0 243.0 L 222.5 243.0 L 223.0 242.5 L 224.0 242.5 L 224.5 242.5 L 225.0 242.5 L 225.5 242.0 L 226.5 242.0 L 227.0 241.5 L 227.5 241.5 L 228.0 241.0 L 228.5 240.5 L 229.0 240.5 L 229.5 240.0 L 229.5 240.0 L 230.0 239.5 L 230.5 239.5 L 230.5 239.5 L 231.0 239.0 L 231.5 239.0 L 231.5 238.5 L 232.0 238.5 L 232.5 238.0 L 232.5 238.0 L 233.0 237.5 L 233.0 237.0 L 233.5 236.5 L 233.5 236.0 L 234.0 235.5 L 234.0 234.5 L 234.0 233.0 L 234.5 231.5 L 234.5 230.0 L 234.5 228.0 L 235.0 225.5 L 235.0 223.5 L 235.0 221.5 L 235.0 219.5 L 235.5 217.5 L 235.5 215.5 L 235.5 214.5 L 235.5 213.0 L 235.5 212.5 " stroke="black" fill="none" stroke-width="5.0" stroke-linecap="round" stroke-linejoin="round" />
</svg>