<svg xmlns="http://www.w3.org/2000/svg" width="300" height="300" viewBox="0 0 300 300">
<path d="M 68.0 124.0 L 68.0 124.0 L 67.0 124.0 L 66.0 124.0 L 65.0 124.0 L 65.0 124.0 L 65.0 124.0 L 64.0 124.0 L 64.0 124.0 L 64.0 124.0 L 64.0 124.0 L 64.0 124.0 L 64.0 124.0 L 65.0 124.0 L 67.0 124.0 L 69.0 124.0 L 71.0 124.0 L 75.0 124.0 L 79.0 124.0 L 83.0 124.0 L 89.0 124.0 L 94.0 124.0 L 99.0 124.0 L 103.0 123.0 L 106.0 123.0 L 108.0 123.0 L 109.0 123.0 L 109.0 123.0 " stroke="black" fill="none" stroke-width="5.0" stroke-linecap="round" stroke-linejoin="round" />
<path d="M 88.0 83.0 L 88.0 83.0 L 88.0 84.0 L 88.0 84.0 L 87.0 85.0 L 87.0 85.0 L 87.0 86.0 L 87.0 87.0 L 87.0 89.0 L 87.0 90.0 L 87.0 91.0 L 87.0 93.0 L 87.0 94.0 L 87.0 95.0 L 87.0 97.0 L 87.0 99.0 L 87.0 101.0 L 87.0 103.0 L 87.0 105.0 L 87.0 107.0 L 87.0 109.0 L 87.0 110.0 L 87.0 112.0 L 87.0 114.0 L 87.0 115.0 L 87.0 117.0 L 87.0 119.0 L 87.0 120.0 L 87.0 122.0 L 87.0 123.0 L 87.0 125.0 L 87.0 126.0 L 87.0 128.0 L 87.0 129.0 L 87.0 130.0 L 87.0 132.0 L 87.0 134.0 L 87.0 135.0 L 87.0 137.0 L 87.0 138.0 L 87.0 140.0 L 88.0 141.0 L 88.0 143.0 L 88.0 144.0 L 88.0 146.0 L 88.0 148.0 L 88.0 150.0 L 88.0 151.0 L 88.0 153.0 L 88.0 155.0 L 89.0 157.0 L 89.0 159.0 L 89.0 161.0 L 89.0 162.0 L 89.0 164.0 L 89.0 166.0 L 89.0 168.0 L 89.0 169.0 L 89.0 171.0 L 89.0 173.0 L 89.0 174.0 L 89.0 176.0 L 89.0 178.0 L 89.0 180.0 L 89.0 181.0 L 89.0 183.0 L 89.0 185.0 L 89.0 187.0 L 89.0 189.0 L 88.0 191.0 L 88.0 192.0 L 88.0 193.0 L 87.0 194.0 L 87.0 195.0 L 87.0 196.0 L 87.0 197.0 L 87.0 198.0 L 87.0 198.0 L 87.0 199.0 L 87.0 199.0 L 87.0 199.0 L 87.0 200.0 L 87.0 200.0 " stroke="black" fill="none" stroke-width="5.0" stroke-linecap="round" stroke-linejoin="round" />
<path d="M 65.0 211.0 L 65.0 211.0 L 64.0 212.0 L 63.0 213.0 L 63.0 213.0 L 62.0 213.0 L 62.0 214.0 L 62.0 214.0 L 62.0 214.0 L 63.0 214.0 L 64.0 213.0 L 65.0 212.0 L 67.0 211.0 L 69.0 209.0 L 72.0 207.0 L 76.0 205.0 L 81.0 202.0 L 87.0 199.0 L 93.0 196.0 L 99.0 193.0 L 104.0 190.0 L 108.0 188.0 L 110.0 185.0 L 113.0 182.0 " stroke="black" fill="none" stroke-width="5.0" stroke-linecap="round" stroke-linejoin="round" />
<path d="M 177.0 77.0 L 177.0 77.0 L 176.0 77.0 L 176.0 77.0 L 176.0 77.0 L 175.0 77.0 L 175.0 77.0 L 174.0 77.0 L 174.0 77.0 L 173.0 77.0 L 172.0 78.0 L 171.0 78.0 L 170.0 80.0 L 169.0 81.0 L 167.0 83.0 L 165.0 85.0 L 163.0 88.0 L 161.0 91.0 L 159.0 95.0 L 156.0 98.0 L 154.0 102.0 L 153.0 105.0 L 151.0 108.0 L 150.0 110.0 L 148.0 113.0 L 147.0 114.0 L 146.0 116.0 L 145.0 118.0 L 144.0 118.0 L 143.0 120.0 L 142.0 120.0 L 141.0 121.0 L 140.0 121.0 L 140.0 122.0 L 139.0 122.0 L 139.0 122.0 L 139.0 123.0 L 139.0 123.0 L 139.0 123.0 L 139.0 123.0 L 139.0 123.0 L 139.0 123.0 L 139.0 123.0 L 139.0 123.0 L 140.0 123.0 L 141.0 123.0 L 142.0 123.0 L 143.0 123.0 L 144.0 123.0 L 145.0 123.0 L 147.0 123.0 L 148.0 122.0 L 150.0 122.0 L 152.0 121.0 L 155.0 121.0 L 158.0 121.0 L 161.0 120.0 L 165.0 120.0 L 168.0 119.0 L 173.0 119.0 L 177.0 118.0 L 181.0 118.0 L 184.0 118.0 L 188.0 117.0 L 190.0 117.0 L 193.0 116.0 L 195.0 116.0 L 196.0 116.0 L 198.0 115.0 L 199.0 115.0 L 201.0 114.0 L 202.0 114.0 L 204.0 114.0 L 205.0 114.0 L 205.0 114.0 L 206.0 114.0 L 207.0 114.0 L 207.0 114.0 L 207.0 114.0 L 207.0 114.0 L 207.0 114.0 L 207.0 114.0 " stroke="black" fill="none" stroke-width="5.0" stroke-linecap="round" stroke-linejoin="round" />
<path d="M 203.0 86.0 L 203.0 86.0 L 203.0 86.0 L 203.0 86.0 L 203.0 85.0 L 203.0 85.0 L 203.0 85.0 L 203.0 85.0 L 203.0 85.0 L 203.0 85.0 L 204.0 85.0 L 204.0 85.0 L 205.0 86.0 L 205.0 87.0 L 206.0 89.0 L 208.0 92.0 L 209.0 95.0 L 211.0 98.0 L 213.0 102.0 L 216.0 105.0 L 218.0 109.0 L 221.0 112.0 L 223.0 114.0 L 225.0 116.0 L 227.0 118.0 L 229.0 119.0 L 229.0 120.0 L 230.0 121.0 L 230.0 121.0 L 230.0 122.0 L 229.0 123.0 L 229.0 123.0 " stroke="black" fill="none" stroke-width="5.0" stroke-linecap="round" stroke-linejoin="round" />
<path d="M 153.0 132.0 L 153.0 132.0 L 153.0 132.0 L 153.0 132.0 L 153.0 132.0 L 153.0 132.0 L 153.0 132.0 L 153.0 132.0 L 153.0 132.0 L 152.0 133.0 L 152.0 133.0 L 152.0 134.0 L 152.0 136.0 L 152.0 138.0 L 151.0 141.0 L 150.0 144.0 L 149.0 148.0 L 148.0 152.0 L 146.0 156.0 L 144.0 161.0 L 141.0 165.0 L 139.0 168.0 L 136.0 170.0 L 134.0 171.0 L 133.0 171.0 " stroke="black" fill="none" stroke-width="5.0" stroke-linecap="round" stroke-linejoin="round" />
<path d="M 152.0 152.0 L 152.0 152.0 L 152.0 152.0 L 152.0 152.0 L 152.0 152.0 L 151.0 152.0 L 151.0 152.0 L 151.0 152.0 L 151.0 152.0 L 151.0 152.0 L 151.0 152.0 L 151.0 152.0 L 151.0 152.0 L 151.0 152.0 L 152.0 152.0 L 153.0 152.0 L 153.0 152.0 L 155.0 152.0 L 156.0 152.0 L 157.0 152.0 L 159.0 152.0 L 161.0 152.0 L 163.0 152.0 L 166.0 152.0 L 168.0 151.0 L 171.0 151.0 L 173.0 151.0 L 176.0 151.0 L 178.0 151.0 L 180.0 151.0 L 182.0 150.0 L 184.0 150.0 L 185.0 150.0 L 187.0 150.0 L 188.0 150.0 L 189.0 150.0 L 191.0 150.0 L 192.0 150.0 L 193.0 150.0 L 194.0 150.0 L 196.0 150.0 L 197.0 150.0 L 198.0 150.0 L 199.0 150.0 L 200.0 150.0 L 201.0 150.0 L 202.0 150.0 L 202.0 150.0 L 203.0 150.0 L 204.0 150.0 L 205.0 150.0 L 206.0 150.0 L 207.0 150.0 L 209.0 150.0 L 210.0 150.0 L 211.0 150.0 L 212.0 150.0 L 214.0 150.0 L 215.0 150.0 L 216.0 150.0 L 217.0 150.0 L 218.0 150.0 L 219.0 150.0 L 219.0 150.0 L 220.0 150.0 " stroke="black" fill="none" stroke-width="5.0" stroke-linecap="round" stroke-linejoin="round" />
<path d="M 125.0 195.0 L 125.0 195.0 L 125.0 195.0 L 125.0 195.0 L 125.0 195.0 L 125.0 195.0 L 125.0 195.0 L 125.0 195.0 L 125.0 195.0 L 126.0 195.0 L 126.0 195.0 L 126.0 195.0 L 127.0 195.0 L 127.0 195.0 L 128.0 195.0 L 128.0 195.0 L 129.0 195.0 L 130.0 195.0 L 131.0 195.0 L 132.0 195.0 L 134.0 195.0 L 135.0 195.0 L 136.0 195.0 L 137.0 195.0 L 139.0 195.0 L 140.0 195.0 L 141.0 195.0 L 142.0 195.0 L 143.0 195.0 L 144.0 195.0 L 144.0 195.0 L 145.0 195.0 L 146.0 195.0 L 147.0 195.0 L 148.0 195.0 L 148.0 195.0 L 149.0 195.0 L 150.0 195.0 L 150.0 195.0 L 151.0 195.0 L 152.0 195.0 L 152.0 195.0 L 153.0 195.0 L 154.0 195.0 L 155.0 195.0 L 155.0 195.0 L 156.0 195.0 L 157.0 195.0 L 158.0 195.0 L 158.0 195.0 L 159.0 195.0 L 160.0 195.0 L 161.0 195.0 L 162.0 195.0 L 162.0 195.0 L 163.0 195.0 L 164.0 195.0 L 165.0 195.0 L 166.0 195.0 L 167.0 195.0 L 167.0 195.0 L 168.0 195.0 L 169.0 195.0 L 170.0 195.0 L 171.0 195.0 L 172.0 195.0 L 173.0 194.0 L 174.0 194.0 L 175.0 194.0 L 177.0 194.0 L 177.0 194.0 L 178.0 194.0 L 179.0 194.0 L 180.0 194.0 L 181.0 194.0 L 182.0 194.0 L 183.0 194.0 L 184.0 194.0 L 185.0 194.0 L 186.0 194.0 L 187.0 193.0 L 188.0 193.0 L 188.0 193.0 L 189.0 193.0 L 190.0 193.0 L 191.0 193.0 L 191.0 193.0 L 192.0 193.0 L 193.0 193.0 L 193.0 193.0 L 194.0 193.0 L 195.0 193.0 L 195.0 193.0 L 196.0 193.0 L 197.0 193.0 L 198.0 193.0 L 198.0 193.0 L 199.0 192.0 L 200.0 192.0 L 200.0 192.0 L 201.0 192.0 L 202.0 192.0 L 203.0 192.0 L 203.0 191.0 L 204.0 191.0 L 205.0 191.0 L 206.0 191.0 L 207.0 191.0 L 208.0 191.0 L 210.0 191.0 L 211.0 191.0 L 212.0 191.0 L 213.0 190.0 L 215.0 190.0 L 216.0 190.0 L 218.0 190.0 L 219.0 190.0 L 220.0 190.0 L 222.0 190.0 L 223.0 190.0 L 224.0 190.0 L 226.0 190.0 L 227.0 191.0 L 229.0 191.0 L 230.0 191.0 L 232.0 191.0 L 233.0 191.0 L 234.0 191.0 L 235.0 191.0 L 235.0 191.0 L 236.0 191.0 L 236.0 191.0 L 237.0 191.0 L 238.0 191.0 L 239.0 191.0 " stroke="black" fill="none" stroke-width="5.0" stroke-linecap="round" stroke-linejoin="round" />
<path d="M 182.0 157.0 L 182.0 157.0 L 182.0 157.0 L 182.0 157.0 L 181.0 157.0 L 181.0 157.0 L 181.0 157.0 L 181.0 157.0 L 181.0 158.0 L 181.0 158.0 L 181.0 159.0 L 181.0 160.0 L 181.0 161.0 L 182.0 162.0 L 182.0 163.0 L 182.0 165.0 L 182.0 166.0 L 182.0 168.0 L 182.0 169.0 L 182.0 170.0 L 182.0 172.0 L 182.0 173.0 L 182.0 174.0 L 182.0 176.0 L 181.0 177.0 L 181.0 178.0 L 180.0 180.0 L 180.0 181.0 L 179.0 182.0 L 179.0 183.0 L 179.0 184.0 L 178.0 185.0 L 178.0 186.0 L 178.0 187.0 L 178.0 188.0 L 178.0 188.0 L 178.0 189.0 L 178.0 190.0 L 178.0 191.0 L 177.0 192.0 L 177.0 192.0 L 177.0 193.0 L 177.0 194.0 L 177.0 195.0 L 177.0 196.0 L 176.0 197.0 L 176.0 197.0 L 176.0 198.0 L 175.0 199.0 L 175.0 200.0 L 175.0 201.0 L 174.0 202.0 L 174.0 203.0 L 173.0 204.0 L 173.0 205.0 L 172.0 206.0 L 172.0 207.0 L 171.0 207.0 L 171.0 208.0 L 171.0 209.0 L 170.0 210.0 L 170.0 210.0 L 169.0 211.0 L 169.0 212.0 L 169.0 213.0 L 168.0 213.0 L 168.0 214.0 L 167.0 215.0 L 167.0 216.0 L 166.0 216.0 L 166.0 217.0 L 165.0 218.0 L 165.0 219.0 L 164.0 220.0 L 164.0 221.0 L 163.0 221.0 L 162.0 222.0 L 162.0 223.0 L 161.0 224.0 L 160.0 225.0 L 160.0 226.0 L 159.0 227.0 L 158.0 228.0 L 157.0 229.0 L 157.0 230.0 L 156.0 231.0 L 155.0 232.0 L 154.0 233.0 L 153.0 235.0 L 152.0 236.0 L 151.0 237.0 L 150.0 238.0 L 149.0 240.0 L 148.0 241.0 L 146.0 243.0 L 145.0 244.0 L 143.0 246.0 L 142.0 247.0 L 140.0 248.0 L 139.0 249.0 L 137.0 249.0 L 136.0 250.0 L 134.0 250.0 L 133.0 250.0 L 131.0 250.0 " stroke="black" fill="none" stroke-width="5.0" stroke-linecap="round" stroke-linejoin="round" />
<path d="M 195.0 215.0 L 195.0 215.0 L 195.0 215.0 L 195.0 215.0 L 195.0 215.0 L 195.0 215.0 L 195.0 215.0 L 195.0 215.0 L 195.0 215.0 L 195.0 215.0 L 195.0 215.0 L 195.0 215.0 L 196.0 216.0 L 196.0 216.0 L 197.0 217.0 L 199.0 218.0 L 201.0 220.0 L 203.0 221.0 L 205.0 224.0 L 209.0 226.0 L 212.0 229.0 L 215.0 232.0 L 219.0 234.0 L 222.0 236.0 L 225.0 238.0 L 228.0 240.0 L 230.0 241.0 L 232.0 242.0 L 233.0 244.0 L 234.0 245.0 L 235.0 246.0 L 236.0 247.0 L 237.0 248.0 L 237.0 249.0 L 238.0 250.0 L 238.0 250.0 L 238.0 250.0 L 238.0 250.0 L 238.0 250.0 " stroke="black" fill="none" stroke-width="5.0" stroke-linecap="round" stroke-linejoin="round" />
</svg>