<svg xmlns="http://www.w3.org/2000/svg" width="300" height="300" viewBox="0 0 300 300">
<path d="M 71.0 96.0 L 70.0 96.0 L 69.0 95.0 L 68.0 95.0 L 66.0 95.0 L 66.0 94.0 L 65.0 94.0 L 65.0 94.0 L 65.0 94.0 L 65.0 94.0 L 65.0 95.0 L 67.0 96.0 L 69.0 96.0 L 72.0 97.0 L 77.0 97.0 L 82.0 97.0 L 89.0 97.0 L 96.0 97.0 L 103.0 96.0 L 109.0 95.0 L 114.0 93.0 L 119.0 92.0 L 123.0 91.0 L 126.0 91.0 L 129.0 91.0 L 130.0 91.0 L 130.0 93.0 L 130.0 94.0 " stroke="black" fill="none" stroke-width="5.0" stroke-linecap="round" stroke-linejoin="round" />
<path d="M 107.0 72.0 L 107.0 72.0 L 106.0 72.0 L 105.0 72.0 L 104.0 72.0 L 103.0 73.0 L 103.0 74.0 L 103.0 75.0 L 103.0 77.0 L 103.0 80.0 L 103.0 84.0 L 104.0 88.0 L 104.0 94.0 L 104.0 100.0 L 104.0 106.0 L 104.0 111.0 L 104.0 116.0 L 104.0 120.0 L 103.0 122.0 L 103.0 123.0 L 102.0 124.0 " stroke="black" fill="none" stroke-width="5.0" stroke-linecap="round" stroke-linejoin="round" />
<path d="M 68.0 127.0 L 68.0 127.0 L 66.0 127.0 L 64.0 126.0 L 62.0 126.0 L 60.0 126.0 L 60.0 125.0 L 59.0 125.0 L 58.0 125.0 L 58.0 125.0 L 58.0 125.0 L 59.0 125.0 L 60.0 125.0 L 62.0 125.0 L 64.0 125.0 L 68.0 125.0 L 73.0 125.0 L 81.0 124.0 L 89.0 123.0 L 99.0 122.0 L 108.0 121.0 L 115.0 121.0 L 122.0 120.0 L 128.0 120.0 L 133.0 120.0 L 138.0 120.0 L 141.0 120.0 L 143.0 120.0 L 144.0 120.0 L 145.0 120.0 L 145.0 120.0 L 145.0 120.0 " stroke="black" fill="none" stroke-width="5.0" stroke-linecap="round" stroke-linejoin="round" />
<path d="M 84.0 138.0 L 83.0 138.0 L 82.0 138.0 L 81.0 137.0 L 80.0 137.0 L 79.0 137.0 L 79.0 137.0 L 79.0 139.0 L 80.0 141.0 L 82.0 143.0 L 84.0 146.0 L 87.0 149.0 L 90.0 153.0 L 93.0 156.0 L 96.0 159.0 L 98.0 162.0 L 100.0 163.0 " stroke="black" fill="none" stroke-width="5.0" stroke-linecap="round" stroke-linejoin="round" />
<path d="M 133.0 132.0 L 133.0 132.0 L 133.0 131.0 L 133.0 130.0 L 133.0 129.0 L 133.0 129.0 L 133.0 129.0 L 133.0 128.0 L 132.0 128.0 L 131.0 129.0 L 129.0 131.0 L 126.0 135.0 L 123.0 139.0 L 119.0 144.0 L 115.0 150.0 L 112.0 155.0 L 109.0 159.0 L 107.0 163.0 L 106.0 164.0 " stroke="black" fill="none" stroke-width="5.0" stroke-linecap="round" stroke-linejoin="round" />
<path d="M 69.0 173.0 L 69.0 173.0 L 68.0 173.0 L 67.0 173.0 L 66.0 173.0 L 66.0 173.0 L 66.0 173.0 L 66.0 173.0 L 68.0 173.0 L 72.0 173.0 L 77.0 173.0 L 84.0 173.0 L 91.0 173.0 L 99.0 173.0 L 106.0 172.0 L 113.0 172.0 L 119.0 171.0 L 125.0 171.0 L 131.0 171.0 " stroke="black" fill="none" stroke-width="5.0" stroke-linecap="round" stroke-linejoin="round" />
<path d="M 67.0 204.0 L 66.0 204.0 L 66.0 204.0 L 65.0 204.0 L 65.0 204.0 L 65.0 203.0 L 64.0 203.0 L 64.0 203.0 L 64.0 203.0 L 64.0 203.0 L 66.0 203.0 L 69.0 204.0 L 74.0 204.0 L 82.0 204.0 L 91.0 204.0 L 101.0 203.0 L 109.0 202.0 L 117.0 201.0 L 124.0 200.0 L 131.0 199.0 L 136.0 199.0 L 140.0 198.0 L 143.0 198.0 " stroke="black" fill="none" stroke-width="5.0" stroke-linecap="round" stroke-linejoin="round" />
<path d="M 105.0 178.0 L 104.0 178.0 L 103.0 178.0 L 102.0 180.0 L 101.0 181.0 L 101.0 183.0 L 100.0 186.0 L 100.0 189.0 L 101.0 193.0 L 101.0 198.0 L 102.0 203.0 L 102.0 210.0 L 103.0 219.0 L 103.0 229.0 L 102.0 239.0 L 102.0 249.0 L 101.0 256.0 L 101.0 261.0 L 101.0 263.0 " stroke="black" fill="none" stroke-width="5.0" stroke-linecap="round" stroke-linejoin="round" />
<path d="M 158.0 118.0 L 158.0 118.0 L 157.0 118.0 L 156.0 118.0 L 155.0 118.0 L 154.0 117.0 L 154.0 117.0 L 154.0 117.0 L 153.0 117.0 L 153.0 116.0 L 153.0 116.0 L 153.0 116.0 L 153.0 116.0 L 154.0 116.0 L 155.0 116.0 L 156.0 116.0 L 158.0 116.0 L 160.0 116.0 L 162.0 116.0 L 164.0 117.0 L 166.0 117.0 L 168.0 117.0 L 170.0 117.0 L 173.0 118.0 L 176.0 118.0 L 178.0 118.0 L 181.0 118.0 L 184.0 118.0 L 187.0 118.0 L 190.0 118.0 L 192.0 118.0 L 195.0 117.0 L 197.0 116.0 L 199.0 116.0 L 201.0 116.0 L 203.0 115.0 L 205.0 115.0 L 207.0 115.0 L 208.0 115.0 L 209.0 115.0 L 210.0 115.0 L 211.0 115.0 L 212.0 115.0 L 213.0 115.0 L 213.0 115.0 L 214.0 115.0 L 214.0 115.0 L 214.0 116.0 L 215.0 116.0 L 215.0 117.0 L 215.0 118.0 L 215.0 119.0 L 215.0 120.0 L 215.0 121.0 L 214.0 123.0 L 214.0 125.0 L 213.0 127.0 L 212.0 129.0 L 212.0 131.0 L 212.0 134.0 L 211.0 137.0 L 211.0 141.0 L 211.0 145.0 L 211.0 149.0 L 211.0 153.0 L 211.0 157.0 L 210.0 161.0 L 210.0 165.0 L 210.0 168.0 L 210.0 171.0 L 210.0 174.0 L 210.0 177.0 L 210.0 179.0 L 210.0 182.0 L 210.0 185.0 L 210.0 188.0 L 210.0 191.0 L 210.0 193.0 L 211.0 196.0 L 211.0 198.0 L 211.0 201.0 L 211.0 203.0 L 212.0 206.0 L 212.0 209.0 L 212.0 211.0 L 212.0 214.0 L 213.0 217.0 L 213.0 219.0 L 214.0 223.0 L 214.0 226.0 L 214.0 229.0 L 215.0 232.0 L 216.0 235.0 L 217.0 237.0 L 218.0 239.0 L 219.0 240.0 L 220.0 242.0 L 220.0 243.0 L 221.0 244.0 L 222.0 245.0 L 223.0 246.0 L 223.0 247.0 L 224.0 248.0 L 225.0 248.0 L 226.0 249.0 L 226.0 250.0 L 227.0 251.0 L 228.0 251.0 L 229.0 252.0 L 230.0 252.0 L 230.0 252.0 L 231.0 252.0 L 232.0 252.0 L 232.0 252.0 L 233.0 252.0 L 234.0 251.0 L 234.0 250.0 L 235.0 250.0 L 235.0 249.0 L 236.0 248.0 L 236.0 247.0 L 237.0 245.0 L 238.0 243.0 L 238.0 241.0 L 239.0 236.0 L 240.0 230.0 L 241.0 221.0 " stroke="black" fill="none" stroke-width="5.0" stroke-linecap="round" stroke-linejoin="round" />
<path d="M 181.0 79.0 L 181.0 79.0 L 181.0 79.0 L 181.0 79.0 L 181.0 79.0 L 181.0 79.0 L 181.0 79.0 L 181.0 79.0 L 182.0 80.0 L 182.0 81.0 L 182.0 83.0 L 183.0 86.0 L 184.0 90.0 L 184.0 95.0 L 185.0 100.0 L 185.0 106.0 L 185.0 111.0 L 185.0 117.0 L 185.0 121.0 L 184.0 126.0 L 184.0 130.0 L 183.0 134.0 L 182.0 138.0 L 182.0 142.0 L 181.0 146.0 L 180.0 151.0 L 179.0 155.0 L 178.0 159.0 L 177.0 162.0 L 175.0 166.0 L 174.0 170.0 L 173.0 175.0 L 172.0 180.0 L 171.0 185.0 L 171.0 190.0 L 170.0 195.0 L 169.0 200.0 L 167.0 204.0 L 165.0 209.0 L 163.0 214.0 L 161.0 218.0 L 158.0 223.0 L 155.0 227.0 L 153.0 232.0 L 150.0 236.0 L 148.0 238.0 L 147.0 240.0 L 145.0 242.0 L 143.0 242.0 L 143.0 242.0 " stroke="black" fill="none" stroke-width="5.0" stroke-linecap="round" stroke-linejoin="round" />
<path d="M 153.0 159.0 L 153.0 159.0 L 152.0 159.0 L 151.0 159.0 L 150.0 158.0 L 150.0 158.0 L 150.0 158.0 L 150.0 158.0 L 150.0 158.0 L 151.0 160.0 L 153.0 162.0 L 156.0 165.0 L 160.0 168.0 L 164.0 173.0 L 170.0 177.0 L 177.0 183.0 L 183.0 189.0 L 189.0 193.0 L 194.0 198.0 L 197.0 201.0 L 198.0 204.0 L 200.0 206.0 L 200.0 207.0 L 200.0 209.0 L 200.0 209.0 " stroke="black" fill="none" stroke-width="5.0" stroke-linecap="round" stroke-linejoin="round" />
</svg>