<svg xmlns="http://www.w3.org/2000/svg" width="300" height="300" viewBox="0 0 300 300">
<path d="M 68.0 120.0 L 68.0 120.0 L 67.0 120.0 L 67.0 120.0 L 66.0 120.0 L 65.0 121.0 L 65.0 121.0 L 64.0 121.0 L 64.0 121.0 L 64.0 121.0 L 63.0 121.0 L 63.0 121.0 L 63.0 120.0 L 63.0 120.0 L 63.0 120.0 L 63.0 120.0 L 63.0 120.0 L 63.0 120.0 L 63.0 120.0 L 64.0 120.0 L 64.0 120.0 L 65.0 120.0 L 67.0 120.0 L 69.0 120.0 L 73.0 120.0 L 76.0 120.0 L 81.0 120.0 L 86.0 120.0 L 91.0 120.0 L 96.0 120.0 L 101.0 120.0 L 104.0 120.0 L 106.0 120.0 " stroke="black" fill="none" stroke-width="5.0" stroke-linecap="round" stroke-linejoin="round" />
<path d="M 83.0 83.0 L 83.0 83.0 L 83.0 83.0 L 83.0 84.0 L 83.0 84.0 L 83.0 84.0 L 83.0 84.0 L 83.0 85.0 L 83.0 85.0 L 83.0 86.0 L 83.0 87.0 L 83.0 88.0 L 83.0 89.0 L 83.0 91.0 L 83.0 93.0 L 83.0 95.0 L 83.0 98.0 L 83.0 102.0 L 83.0 106.0 L 83.0 109.0 L 83.0 113.0 L 83.0 117.0 L 83.0 121.0 L 83.0 124.0 L 83.0 128.0 L 83.0 130.0 L 83.0 133.0 L 83.0 136.0 L 83.0 139.0 L 83.0 141.0 L 83.0 144.0 L 83.0 147.0 L 83.0 150.0 L 83.0 152.0 L 83.0 155.0 L 83.0 157.0 L 83.0 159.0 L 83.0 161.0 L 82.0 163.0 L 82.0 165.0 L 82.0 167.0 L 82.0 169.0 L 82.0 171.0 L 82.0 173.0 L 82.0 175.0 L 81.0 177.0 L 81.0 179.0 L 81.0 182.0 L 81.0 184.0 L 81.0 186.0 L 81.0 188.0 L 81.0 190.0 L 81.0 192.0 L 81.0 193.0 L 81.0 195.0 L 81.0 196.0 L 81.0 198.0 L 81.0 199.0 L 81.0 200.0 L 82.0 200.0 L 82.0 201.0 L 82.0 201.0 L 82.0 202.0 L 82.0 202.0 L 82.0 203.0 L 82.0 203.0 L 83.0 203.0 L 83.0 203.0 " stroke="black" fill="none" stroke-width="5.0" stroke-linecap="round" stroke-linejoin="round" />
<path d="M 64.0 218.0 L 64.0 218.0 L 64.0 219.0 L 64.0 219.0 L 63.0 219.0 L 63.0 220.0 L 63.0 220.0 L 62.0 220.0 L 62.0 220.0 L 62.0 220.0 L 62.0 219.0 L 63.0 218.0 L 64.0 217.0 L 66.0 215.0 L 68.0 213.0 L 72.0 210.0 L 78.0 206.0 L 86.0 201.0 L 95.0 195.0 L 103.0 188.0 " stroke="black" fill="none" stroke-width="5.0" stroke-linecap="round" stroke-linejoin="round" />
<path d="M 116.0 102.0 L 116.0 102.0 L 116.0 102.0 L 116.0 102.0 L 116.0 102.0 L 116.0 102.0 L 116.0 102.0 L 116.0 102.0 L 115.0 103.0 L 115.0 103.0 L 115.0 103.0 L 115.0 103.0 L 115.0 103.0 L 115.0 103.0 L 115.0 103.0 L 115.0 103.0 L 115.0 103.0 L 115.0 103.0 L 115.0 103.0 L 115.0 103.0 L 115.0 103.0 L 116.0 103.0 L 116.0 103.0 L 117.0 103.0 L 118.0 103.0 L 119.0 103.0 L 119.0 103.0 L 120.0 103.0 L 121.0 103.0 L 123.0 103.0 L 123.0 103.0 L 125.0 103.0 L 126.0 103.0 L 127.0 103.0 L 128.0 103.0 L 130.0 102.0 L 131.0 102.0 L 132.0 102.0 L 134.0 102.0 L 135.0 102.0 L 136.0 102.0 L 137.0 102.0 L 138.0 102.0 L 139.0 102.0 L 140.0 102.0 L 141.0 102.0 L 142.0 102.0 L 143.0 102.0 L 144.0 102.0 L 145.0 102.0 L 146.0 102.0 L 147.0 102.0 L 147.0 102.0 L 148.0 102.0 L 149.0 102.0 L 149.0 102.0 L 150.0 102.0 L 151.0 102.0 L 151.0 102.0 L 152.0 101.0 L 152.0 101.0 L 153.0 101.0 L 153.0 101.0 L 154.0 101.0 L 154.0 101.0 L 155.0 101.0 L 156.0 101.0 L 157.0 101.0 L 157.0 101.0 L 158.0 101.0 L 159.0 101.0 L 160.0 101.0 L 161.0 101.0 L 162.0 101.0 L 163.0 101.0 L 164.0 101.0 L 165.0 101.0 L 166.0 101.0 L 167.0 101.0 L 168.0 101.0 L 170.0 101.0 L 171.0 101.0 L 172.0 101.0 L 173.0 101.0 L 175.0 101.0 L 176.0 101.0 L 178.0 101.0 L 179.0 101.0 L 181.0 101.0 L 182.0 101.0 L 184.0 101.0 L 185.0 101.0 L 187.0 101.0 L 188.0 101.0 L 189.0 101.0 L 191.0 101.0 L 192.0 101.0 L 193.0 101.0 L 194.0 101.0 L 195.0 101.0 L 196.0 101.0 L 198.0 101.0 L 198.0 101.0 L 199.0 101.0 L 201.0 100.0 L 202.0 100.0 L 203.0 100.0 L 204.0 100.0 L 205.0 100.0 L 207.0 100.0 L 208.0 100.0 L 209.0 100.0 L 211.0 100.0 L 212.0 100.0 L 214.0 100.0 L 215.0 100.0 L 217.0 100.0 L 219.0 100.0 L 221.0 101.0 L 223.0 101.0 L 225.0 101.0 L 227.0 101.0 L 229.0 101.0 L 231.0 102.0 L 232.0 102.0 L 233.0 102.0 " stroke="black" fill="none" stroke-width="5.0" stroke-linecap="round" stroke-linejoin="round" />
<path d="M 124.0 139.0 L 124.0 139.0 L 124.0 138.0 L 124.0 138.0 L 124.0 137.0 L 124.0 137.0 L 124.0 136.0 L 124.0 136.0 L 124.0 136.0 L 124.0 138.0 L 124.0 141.0 L 124.0 145.0 L 124.0 150.0 L 124.0 155.0 L 124.0 161.0 L 124.0 167.0 L 125.0 172.0 L 125.0 177.0 L 125.0 181.0 L 125.0 184.0 L 126.0 186.0 L 126.0 186.0 L 126.0 186.0 " stroke="black" fill="none" stroke-width="5.0" stroke-linecap="round" stroke-linejoin="round" />
<path d="M 128.0 138.0 L 128.0 138.0 L 127.0 138.0 L 126.0 138.0 L 125.0 138.0 L 124.0 138.0 L 124.0 138.0 L 124.0 138.0 L 124.0 138.0 L 124.0 138.0 L 125.0 138.0 L 126.0 138.0 L 128.0 138.0 L 130.0 138.0 L 133.0 138.0 L 136.0 138.0 L 139.0 139.0 L 142.0 139.0 L 146.0 139.0 L 149.0 139.0 L 152.0 139.0 L 155.0 139.0 L 158.0 139.0 L 161.0 139.0 L 163.0 139.0 L 165.0 139.0 L 166.0 140.0 L 167.0 141.0 L 168.0 142.0 L 168.0 143.0 L 168.0 144.0 L 168.0 145.0 L 167.0 146.0 L 167.0 148.0 L 167.0 150.0 L 166.0 151.0 L 166.0 154.0 L 166.0 156.0 L 166.0 158.0 L 166.0 161.0 L 166.0 164.0 L 165.0 168.0 L 165.0 171.0 L 164.0 174.0 L 164.0 177.0 L 163.0 180.0 " stroke="black" fill="none" stroke-width="5.0" stroke-linecap="round" stroke-linejoin="round" />
<path d="M 130.0 187.0 L 130.0 187.0 L 128.0 187.0 L 127.0 187.0 L 125.0 188.0 L 125.0 188.0 L 124.0 188.0 L 124.0 188.0 L 124.0 188.0 L 124.0 188.0 L 124.0 188.0 L 125.0 188.0 L 127.0 188.0 L 129.0 188.0 L 132.0 188.0 L 135.0 188.0 L 139.0 188.0 L 144.0 188.0 L 148.0 188.0 L 153.0 188.0 L 158.0 187.0 L 164.0 187.0 " stroke="black" fill="none" stroke-width="5.0" stroke-linecap="round" stroke-linejoin="round" />
<path d="M 119.0 226.0 L 119.0 225.0 L 120.0 225.0 L 120.0 224.0 L 121.0 224.0 L 123.0 223.0 L 126.0 222.0 L 129.0 220.0 L 134.0 219.0 L 141.0 217.0 L 146.0 215.0 L 152.0 212.0 L 160.0 209.0 L 167.0 206.0 L 175.0 203.0 L 180.0 202.0 " stroke="black" fill="none" stroke-width="5.0" stroke-linecap="round" stroke-linejoin="round" />
<path d="M 191.0 71.0 L 191.0 71.0 L 191.0 71.0 L 191.0 71.0 L 191.0 71.0 L 191.0 72.0 L 191.0 72.0 L 191.0 73.0 L 190.0 74.0 L 190.0 75.0 L 190.0 76.0 L 190.0 77.0 L 190.0 78.0 L 190.0 79.0 L 190.0 81.0 L 190.0 82.0 L 190.0 84.0 L 190.0 86.0 L 189.0 88.0 L 189.0 91.0 L 189.0 93.0 L 189.0 96.0 L 189.0 99.0 L 189.0 102.0 L 189.0 105.0 L 188.0 108.0 L 188.0 110.0 L 188.0 113.0 L 188.0 115.0 L 188.0 117.0 L 187.0 119.0 L 187.0 120.0 L 187.0 122.0 L 187.0 124.0 L 187.0 125.0 L 187.0 127.0 L 187.0 128.0 L 187.0 130.0 L 187.0 131.0 L 187.0 133.0 L 187.0 134.0 L 187.0 136.0 L 187.0 137.0 L 188.0 139.0 L 188.0 141.0 L 188.0 143.0 L 189.0 144.0 L 189.0 146.0 L 189.0 148.0 L 189.0 149.0 L 190.0 151.0 L 190.0 152.0 L 190.0 154.0 L 190.0 155.0 L 190.0 157.0 L 190.0 158.0 L 190.0 159.0 L 191.0 161.0 L 191.0 162.0 L 191.0 163.0 L 191.0 164.0 L 191.0 166.0 L 191.0 167.0 L 191.0 168.0 L 191.0 170.0 L 192.0 171.0 L 192.0 172.0 L 192.0 174.0 L 192.0 175.0 L 192.0 177.0 L 193.0 178.0 L 193.0 180.0 L 193.0 181.0 L 193.0 183.0 L 193.0 184.0 L 193.0 186.0 L 194.0 188.0 L 194.0 190.0 L 194.0 191.0 L 194.0 193.0 L 195.0 195.0 L 195.0 197.0 L 196.0 199.0 L 196.0 200.0 L 196.0 202.0 L 197.0 203.0 L 197.0 205.0 L 198.0 207.0 L 198.0 208.0 L 199.0 210.0 L 200.0 212.0 L 200.0 213.0 L 201.0 215.0 L 202.0 216.0 L 203.0 218.0 L 204.0 220.0 L 205.0 221.0 L 206.0 223.0 L 207.0 225.0 L 208.0 228.0 L 209.0 230.0 L 210.0 232.0 L 211.0 233.0 L 212.0 234.0 L 213.0 236.0 L 214.0 237.0 L 214.0 238.0 L 215.0 239.0 L 216.0 240.0 L 216.0 240.0 L 217.0 241.0 L 217.0 242.0 L 218.0 242.0 L 219.0 243.0 L 220.0 244.0 L 221.0 245.0 L 221.0 246.0 L 222.0 247.0 L 223.0 248.0 L 224.0 248.0 L 224.0 249.0 L 225.0 249.0 L 225.0 249.0 L 225.0 249.0 L 226.0 250.0 L 226.0 250.0 L 226.0 250.0 L 227.0 250.0 L 227.0 251.0 L 227.0 251.0 L 227.0 251.0 L 228.0 251.0 L 228.0 252.0 L 228.0 252.0 L 228.0 252.0 L 229.0 252.0 L 229.0 252.0 L 229.0 252.0 L 229.0 252.0 L 230.0 252.0 L 230.0 252.0 L 231.0 252.0 L 231.0 253.0 L 231.0 253.0 L 232.0 253.0 L 232.0 253.0 L 233.0 253.0 L 233.0 252.0 L 234.0 250.0 L 234.0 248.0 L 235.0 245.0 L 235.0 241.0 L 236.0 235.0 L 237.0 227.0 " stroke="black" fill="none" stroke-width="5.0" stroke-linecap="round" stroke-linejoin="round" />
<path d="M 211.0 67.0 L 211.0 67.0 L 211.0 67.0 L 211.0 67.0 L 211.0 67.0 L 211.0 67.0 L 212.0 67.0 L 213.0 68.0 L 214.0 69.0 L 217.0 70.0 L 220.0 72.0 L 224.0 74.0 L 229.0 77.0 L 232.0 79.0 L 235.0 82.0 L 238.0 85.0 L 239.0 87.0 " stroke="black" fill="none" stroke-width="5.0" stroke-linecap="round" stroke-linejoin="round" />
<path d="M 230.0 134.0 L 230.0 134.0 L 230.0 134.0 L 230.0 135.0 L 230.0 136.0 L 230.0 137.0 L 230.0 138.0 L 229.0 140.0 L 229.0 141.0 L 229.0 143.0 L 228.0 145.0 L 228.0 148.0 L 227.0 150.0 L 226.0 153.0 L 226.0 155.0 L 225.0 158.0 L 224.0 161.0 L 223.0 164.0 L 221.0 166.0 L 220.0 169.0 L 219.0 172.0 L 218.0 174.0 L 216.0 177.0 L 215.0 180.0 L 214.0 183.0 L 213.0 186.0 L 212.0 189.0 L 210.0 191.0 L 209.0 194.0 L 207.0 197.0 L 206.0 200.0 L 204.0 202.0 L 203.0 205.0 L 202.0 207.0 L 200.0 210.0 L 199.0 212.0 L 198.0 215.0 L 196.0 218.0 L 195.0 220.0 L 193.0 223.0 L 192.0 226.0 L 190.0 228.0 L 188.0 231.0 L 185.0 235.0 L 182.0 238.0 L 179.0 241.0 L 175.0 244.0 L 171.0 247.0 L 168.0 249.0 L 165.0 251.0 " stroke="black" fill="none" stroke-width="5.0" stroke-linecap="round" stroke-linejoin="round" />
</svg>