<svg xmlns="http://www.w3.org/2000/svg" width="300" height="300" viewBox="0 0 300 300">
<path d="M 70.0 91.0 L 70.0 91.0 L 69.0 91.0 L 67.0 91.0 L 66.0 91.0 L 65.0 91.0 L 65.0 91.0 L 64.0 90.0 L 64.0 90.0 L 65.0 90.0 L 67.0 90.0 L 70.0 90.0 L 74.0 90.0 L 80.0 90.0 L 87.0 89.0 L 94.0 89.0 L 101.0 89.0 L 106.0 89.0 " stroke="black" fill="none" stroke-width="5.0" stroke-linecap="round" stroke-linejoin="round" />
<path d="M 66.0 131.0 L 66.0 131.0 L 64.0 131.0 L 63.0 131.0 L 61.0 131.0 L 61.0 131.0 L 60.0 131.0 L 60.0 131.0 L 60.0 131.0 L 61.0 131.0 L 62.0 131.0 L 66.0 132.0 L 70.0 132.0 L 78.0 132.0 L 87.0 130.0 L 97.0 129.0 L 107.0 126.0 L 111.0 125.0 " stroke="black" fill="none" stroke-width="5.0" stroke-linecap="round" stroke-linejoin="round" />
<path d="M 156.0 71.0 L 156.0 71.0 L 155.0 71.0 L 155.0 70.0 L 154.0 70.0 L 154.0 70.0 L 153.0 70.0 L 152.0 71.0 L 151.0 73.0 L 150.0 77.0 L 148.0 82.0 L 144.0 88.0 L 140.0 96.0 L 136.0 103.0 L 133.0 109.0 L 132.0 111.0 " stroke="black" fill="none" stroke-width="5.0" stroke-linecap="round" stroke-linejoin="round" />
<path d="M 155.0 90.0 L 155.0 90.0 L 154.0 90.0 L 154.0 90.0 L 154.0 90.0 L 153.0 90.0 L 153.0 90.0 L 153.0 90.0 L 153.0 90.0 L 153.0 90.0 L 153.0 90.0 L 153.0 90.0 L 153.0 89.0 L 153.0 89.0 L 153.0 89.0 L 153.0 89.0 L 153.0 89.0 L 154.0 89.0 L 155.0 89.0 L 156.0 89.0 L 157.0 89.0 L 159.0 89.0 L 161.0 89.0 L 163.0 89.0 L 166.0 89.0 L 169.0 89.0 L 172.0 89.0 L 176.0 89.0 L 179.0 90.0 L 181.0 90.0 L 184.0 90.0 L 186.0 90.0 L 188.0 90.0 L 190.0 90.0 L 192.0 90.0 L 194.0 90.0 L 195.0 90.0 L 197.0 90.0 L 198.0 90.0 L 200.0 90.0 L 202.0 90.0 L 203.0 90.0 L 205.0 90.0 L 207.0 90.0 L 208.0 90.0 L 210.0 90.0 L 211.0 90.0 L 212.0 90.0 L 214.0 90.0 L 215.0 90.0 L 216.0 90.0 L 217.0 90.0 L 218.0 90.0 L 219.0 90.0 L 220.0 91.0 L 221.0 91.0 L 222.0 91.0 L 223.0 91.0 L 224.0 91.0 L 224.0 91.0 L 225.0 91.0 L 225.0 91.0 L 226.0 91.0 L 226.0 91.0 L 226.0 91.0 L 227.0 91.0 L 227.0 91.0 L 227.0 91.0 L 227.0 92.0 L 227.0 92.0 L 227.0 93.0 L 227.0 94.0 L 226.0 96.0 L 225.0 98.0 L 223.0 101.0 L 220.0 104.0 L 217.0 108.0 L 216.0 111.0 " stroke="black" fill="none" stroke-width="5.0" stroke-linecap="round" stroke-linejoin="round" />
<path d="M 179.0 104.0 L 179.0 104.0 L 179.0 103.0 L 180.0 103.0 L 180.0 102.0 L 181.0 102.0 L 181.0 102.0 L 181.0 102.0 L 181.0 102.0 L 181.0 102.0 L 181.0 104.0 L 180.0 105.0 L 179.0 107.0 L 178.0 109.0 L 176.0 113.0 L 174.0 116.0 L 172.0 120.0 L 168.0 125.0 L 165.0 130.0 L 160.0 135.0 L 156.0 140.0 L 152.0 145.0 L 148.0 149.0 L 143.0 152.0 L 138.0 155.0 L 132.0 156.0 L 125.0 158.0 L 119.0 159.0 L 115.0 159.0 " stroke="black" fill="none" stroke-width="5.0" stroke-linecap="round" stroke-linejoin="round" />
<path d="M 180.0 120.0 L 179.0 120.0 L 178.0 119.0 L 177.0 119.0 L 176.0 118.0 L 176.0 118.0 L 176.0 118.0 L 176.0 118.0 L 176.0 118.0 L 177.0 118.0 L 179.0 120.0 L 181.0 121.0 L 184.0 123.0 L 187.0 126.0 L 190.0 129.0 L 193.0 132.0 L 197.0 137.0 L 202.0 142.0 L 208.0 147.0 L 214.0 152.0 L 220.0 155.0 L 225.0 158.0 L 229.0 161.0 L 230.0 162.0 " stroke="black" fill="none" stroke-width="5.0" stroke-linecap="round" stroke-linejoin="round" />
<path d="M 56.0 192.0 L 56.0 192.0 L 56.0 192.0 L 56.0 192.0 L 56.0 192.0 L 55.0 192.0 L 55.0 192.0 L 55.0 192.0 L 54.0 191.0 L 54.0 191.0 L 54.0 191.0 L 54.0 191.0 L 54.0 191.0 L 54.0 191.0 L 55.0 191.0 L 55.0 191.0 L 56.0 191.0 L 57.0 191.0 L 59.0 191.0 L 60.0 191.0 L 61.0 191.0 L 62.0 191.0 L 63.0 191.0 L 64.0 191.0 L 66.0 191.0 L 67.0 191.0 L 68.0 191.0 L 69.0 192.0 L 70.0 192.0 L 71.0 192.0 L 72.0 192.0 L 73.0 192.0 L 74.0 192.0 L 75.0 192.0 L 76.0 192.0 L 76.0 193.0 L 77.0 193.0 L 78.0 193.0 L 79.0 193.0 L 80.0 193.0 L 81.0 193.0 L 82.0 193.0 L 83.0 194.0 L 84.0 194.0 L 85.0 194.0 L 86.0 194.0 L 87.0 194.0 L 88.0 194.0 L 89.0 194.0 L 90.0 194.0 L 91.0 194.0 L 92.0 194.0 L 94.0 194.0 L 95.0 194.0 L 97.0 194.0 L 98.0 194.0 L 100.0 194.0 L 101.0 194.0 L 102.0 194.0 L 104.0 194.0 L 105.0 194.0 L 106.0 194.0 L 107.0 194.0 L 108.0 194.0 L 108.0 194.0 L 109.0 194.0 L 110.0 194.0 L 111.0 194.0 L 112.0 194.0 L 113.0 194.0 L 114.0 194.0 L 116.0 194.0 L 117.0 194.0 L 118.0 193.0 L 119.0 193.0 L 120.0 193.0 L 121.0 193.0 L 123.0 193.0 L 124.0 193.0 L 125.0 193.0 L 126.0 193.0 L 127.0 193.0 L 128.0 193.0 L 130.0 193.0 L 131.0 193.0 L 133.0 193.0 L 135.0 194.0 L 137.0 194.0 L 138.0 194.0 L 140.0 194.0 L 142.0 195.0 L 143.0 195.0 L 145.0 195.0 L 146.0 195.0 L 147.0 195.0 L 149.0 195.0 L 150.0 195.0 L 150.0 195.0 L 151.0 195.0 L 152.0 195.0 L 153.0 195.0 L 153.0 195.0 L 154.0 195.0 L 155.0 195.0 L 156.0 195.0 L 157.0 195.0 L 158.0 194.0 L 159.0 194.0 L 160.0 194.0 L 161.0 193.0 L 162.0 193.0 L 163.0 193.0 L 164.0 193.0 L 166.0 193.0 L 167.0 192.0 L 169.0 192.0 L 171.0 192.0 L 173.0 191.0 L 175.0 191.0 L 177.0 191.0 L 179.0 190.0 L 181.0 190.0 L 183.0 190.0 L 184.0 190.0 L 186.0 190.0 L 187.0 190.0 L 189.0 190.0 L 190.0 190.0 L 191.0 190.0 L 192.0 191.0 L 193.0 191.0 L 194.0 191.0 L 195.0 191.0 L 196.0 192.0 L 197.0 192.0 L 198.0 192.0 L 199.0 192.0 L 200.0 192.0 L 201.0 192.0 L 202.0 192.0 L 204.0 192.0 L 206.0 192.0 L 208.0 192.0 L 210.0 192.0 L 213.0 192.0 L 215.0 192.0 L 218.0 191.0 L 221.0 191.0 L 223.0 190.0 L 226.0 190.0 L 228.0 190.0 L 230.0 189.0 L 232.0 189.0 L 233.0 189.0 L 234.0 189.0 L 234.0 189.0 L 234.0 189.0 L 234.0 189.0 " stroke="black" fill="none" stroke-width="5.0" stroke-linecap="round" stroke-linejoin="round" />
<path d="M 144.0 170.0 L 144.0 170.0 L 144.0 169.0 L 144.0 168.0 L 144.0 168.0 L 144.0 168.0 L 144.0 168.0 L 144.0 168.0 L 144.0 168.0 L 144.0 168.0 L 144.0 168.0 L 144.0 170.0 L 143.0 171.0 L 142.0 173.0 L 140.0 176.0 L 137.0 180.0 L 134.0 184.0 L 131.0 188.0 L 126.0 192.0 L 122.0 196.0 L 117.0 200.0 L 114.0 202.0 L 111.0 205.0 L 108.0 206.0 L 107.0 208.0 L 106.0 208.0 L 105.0 209.0 L 105.0 209.0 L 105.0 209.0 L 105.0 209.0 L 105.0 209.0 L 105.0 209.0 L 105.0 209.0 L 105.0 210.0 L 105.0 210.0 L 105.0 210.0 L 105.0 210.0 L 105.0 210.0 L 105.0 210.0 L 105.0 210.0 L 106.0 211.0 L 107.0 211.0 L 109.0 212.0 L 111.0 212.0 L 114.0 213.0 L 118.0 215.0 L 124.0 216.0 L 132.0 219.0 L 140.0 221.0 L 147.0 224.0 L 154.0 226.0 L 160.0 229.0 L 165.0 231.0 L 171.0 233.0 L 177.0 235.0 L 183.0 237.0 L 189.0 238.0 L 194.0 238.0 L 198.0 239.0 L 202.0 239.0 L 206.0 239.0 L 210.0 239.0 L 213.0 239.0 L 217.0 240.0 L 220.0 240.0 L 223.0 241.0 L 225.0 242.0 L 226.0 243.0 L 226.0 244.0 L 227.0 245.0 L 227.0 246.0 L 225.0 247.0 L 224.0 248.0 " stroke="black" fill="none" stroke-width="5.0" stroke-linecap="round" stroke-linejoin="round" />
<path d="M 200.0 184.0 L 200.0 184.0 L 200.0 184.0 L 200.0 184.0 L 200.0 184.0 L 200.0 184.0 L 200.0 184.0 L 200.0 184.0 L 200.0 186.0 L 199.0 188.0 L 197.0 190.0 L 195.0 193.0 L 192.0 196.0 L 188.0 200.0 L 181.0 206.0 L 171.0 212.0 L 160.0 220.0 L 149.0 229.0 L 140.0 236.0 L 130.0 241.0 L 119.0 246.0 L 111.0 248.0 L 105.0 250.0 L 99.0 251.0 L 93.0 252.0 L 85.0 252.0 L 76.0 252.0 L 69.0 252.0 L 64.0 250.0 L 62.0 250.0 " stroke="black" fill="none" stroke-width="5.0" stroke-linecap="round" stroke-linejoin="round" />
</svg>