<svg xmlns="http://www.w3.org/2000/svg" width="300" height="300" viewBox="0 0 300 300">
<path d="M 74.0 128.0 L 74.0 128.0 L 74.0 128.0 L 74.0 128.0 L 74.0 129.0 L 74.0 129.0 L 74.0 130.0 L 73.0 130.0 L 73.0 130.0 L 73.0 130.0 L 73.0 130.0 L 73.0 130.0 L 73.0 130.0 L 73.0 130.0 L 73.0 130.0 L 73.0 130.0 L 73.0 130.0 L 73.0 130.0 L 73.0 130.0 " stroke="black" fill="none" stroke-width="5.0" stroke-linecap="round" stroke-linejoin="round" />
<path d="M 72.0 128.0 L 72.0 128.0 L 72.0 128.0 L 72.0 128.0 L 72.0 128.0 L 72.0 128.0 L 72.0 128.0 L 72.0 128.0 L 71.0 128.0 L 71.0 128.0 L 71.0 128.0 L 71.0 128.0 L 71.0 128.0 L 71.0 128.0 L 70.0 128.0 L 70.0 128.0 L 70.0 128.0 L 70.0 128.0 L 70.0 129.0 L 69.0 129.0 L 69.0 129.0 L 69.0 129.0 L 69.0 129.0 L 69.0 129.0 L 69.0 129.0 L 69.0 129.0 L 69.0 129.0 L 69.0 130.0 L 69.0 130.0 L 69.0 130.0 L 70.0 130.0 L 71.0 130.0 L 72.0 130.0 L 73.0 130.0 L 74.0 130.0 L 75.0 130.0 L 76.0 130.0 L 78.0 130.0 L 79.0 130.0 L 80.0 130.0 L 81.0 130.0 L 83.0 130.0 L 84.0 130.0 L 85.0 130.0 L 87.0 130.0 L 88.0 130.0 L 89.0 130.0 L 90.0 130.0 L 91.0 130.0 L 92.0 130.0 L 93.0 130.0 L 94.0 130.0 L 94.0 130.0 L 95.0 130.0 L 95.0 130.0 L 96.0 130.0 L 97.0 130.0 L 97.0 130.0 L 98.0 130.0 L 98.0 130.0 L 98.0 130.0 L 99.0 130.0 L 99.0 129.0 L 100.0 129.0 L 100.0 129.0 L 100.0 129.0 L 101.0 129.0 L 101.0 129.0 L 102.0 129.0 L 102.0 129.0 L 102.0 129.0 L 103.0 129.0 L 103.0 129.0 L 103.0 129.0 L 104.0 129.0 L 104.0 129.0 L 105.0 129.0 L 105.0 129.0 L 105.0 129.0 L 106.0 129.0 L 106.0 129.0 L 107.0 129.0 L 107.0 129.0 L 107.0 129.0 L 108.0 129.0 L 108.0 129.0 L 109.0 129.0 L 109.0 129.0 L 110.0 129.0 L 111.0 128.0 L 111.0 128.0 L 112.0 128.0 L 113.0 128.0 L 113.0 128.0 L 114.0 128.0 L 115.0 128.0 L 116.0 128.0 L 116.0 128.0 L 117.0 128.0 L 118.0 128.0 L 119.0 128.0 L 120.0 128.0 L 121.0 128.0 L 122.0 128.0 L 123.0 128.0 L 124.0 128.0 L 125.0 128.0 L 126.0 128.0 L 127.0 128.0 L 128.0 128.0 L 129.0 128.0 L 130.0 128.0 L 131.0 128.0 L 132.0 128.0 L 133.0 128.0 L 133.0 128.0 L 134.0 128.0 L 135.0 128.0 L 136.0 128.0 L 137.0 128.0 L 137.0 128.0 L 138.0 128.0 L 139.0 128.0 L 140.0 128.0 L 141.0 128.0 L 141.0 128.0 L 142.0 128.0 L 143.0 128.0 L 144.0 128.0 L 144.0 128.0 L 145.0 128.0 L 146.0 128.0 L 146.0 128.0 L 147.0 128.0 L 148.0 128.0 L 148.0 128.0 L 149.0 128.0 L 150.0 128.0 L 150.0 128.0 L 151.0 128.0 L 151.0 128.0 L 152.0 128.0 L 152.0 128.0 L 153.0 128.0 L 154.0 128.0 L 154.0 128.0 L 155.0 128.0 L 156.0 128.0 L 156.0 128.0 L 157.0 128.0 L 158.0 128.0 L 158.0 128.0 L 159.0 128.0 L 160.0 128.0 L 160.0 128.0 L 161.0 128.0 L 162.0 128.0 L 163.0 128.0 L 164.0 128.0 L 165.0 128.0 L 166.0 128.0 L 167.0 128.0 L 168.0 128.0 L 169.0 128.0 L 170.0 128.0 L 172.0 128.0 L 173.0 128.0 L 174.0 128.0 L 176.0 128.0 L 177.0 128.0 L 178.0 127.0 L 179.0 127.0 L 181.0 127.0 L 182.0 127.0 L 183.0 127.0 L 184.0 127.0 L 185.0 127.0 L 186.0 127.0 L 187.0 127.0 L 187.0 127.0 L 188.0 127.0 L 189.0 127.0 L 190.0 128.0 L 190.0 128.0 L 191.0 128.0 L 192.0 128.0 L 192.0 128.0 L 193.0 128.0 L 194.0 128.0 L 194.0 128.0 L 195.0 128.0 L 196.0 128.0 L 196.0 128.0 L 197.0 129.0 L 198.0 129.0 L 199.0 129.0 L 200.0 129.0 L 201.0 129.0 L 202.0 129.0 L 203.0 129.0 L 204.0 129.0 L 205.0 129.0 L 206.0 129.0 L 207.0 129.0 L 208.0 130.0 L 209.0 130.0 L 211.0 130.0 L 212.0 130.0 L 214.0 130.0 L 216.0 130.0 L 217.0 130.0 L 219.0 130.0 L 221.0 130.0 L 222.0 130.0 L 224.0 130.0 L 225.0 130.0 L 226.0 130.0 L 228.0 129.0 L 229.0 129.0 L 230.0 129.0 L 231.0 128.0 L 232.0 128.0 L 233.0 128.0 L 234.0 128.0 L 235.0 128.0 L 235.0 128.0 L 236.0 128.0 L 236.0 128.0 L 236.0 129.0 " stroke="black" fill="none" stroke-width="5.0" stroke-linecap="round" stroke-linejoin="round" />
<path d="M 152.0 74.0 L 152.0 74.0 L 152.0 74.0 L 151.0 74.0 L 150.0 74.0 L 150.0 74.0 L 149.0 74.0 L 149.0 74.0 L 149.0 75.0 L 149.0 75.0 L 149.0 76.0 L 149.0 77.0 L 149.0 78.0 L 150.0 79.0 L 150.0 81.0 L 150.0 84.0 L 151.0 87.0 L 151.0 89.0 L 151.0 93.0 L 151.0 96.0 L 152.0 99.0 L 152.0 102.0 L 152.0 106.0 L 152.0 108.0 L 153.0 111.0 L 153.0 113.0 L 153.0 115.0 L 153.0 117.0 L 153.0 120.0 L 153.0 121.0 L 153.0 123.0 L 153.0 125.0 L 152.0 127.0 L 151.0 128.0 L 151.0 130.0 L 150.0 132.0 L 150.0 134.0 L 149.0 135.0 L 149.0 137.0 L 149.0 138.0 L 148.0 140.0 L 148.0 141.0 L 148.0 143.0 L 148.0 145.0 L 147.0 146.0 L 147.0 148.0 L 146.0 150.0 L 146.0 151.0 L 145.0 153.0 L 145.0 155.0 L 144.0 156.0 L 144.0 158.0 L 143.0 159.0 L 143.0 161.0 L 142.0 162.0 L 142.0 164.0 L 141.0 165.0 L 141.0 166.0 L 140.0 168.0 L 140.0 169.0 L 139.0 170.0 L 138.0 171.0 L 138.0 173.0 L 137.0 174.0 L 136.0 175.0 L 135.0 177.0 L 135.0 178.0 L 134.0 180.0 L 133.0 182.0 L 132.0 184.0 L 130.0 186.0 L 129.0 188.0 L 128.0 189.0 L 127.0 191.0 L 126.0 193.0 L 124.0 195.0 L 123.0 197.0 L 122.0 199.0 L 120.0 201.0 L 118.0 203.0 L 117.0 204.0 L 115.0 206.0 L 114.0 208.0 L 112.0 210.0 L 111.0 212.0 L 110.0 214.0 L 108.0 215.0 L 107.0 217.0 L 106.0 218.0 L 105.0 220.0 L 104.0 221.0 L 103.0 223.0 L 102.0 224.0 L 101.0 226.0 L 99.0 228.0 L 97.0 230.0 L 94.0 232.0 L 91.0 234.0 L 89.0 236.0 L 85.0 237.0 L 82.0 239.0 L 80.0 239.0 L 78.0 240.0 L 76.0 240.0 L 76.0 240.0 " stroke="black" fill="none" stroke-width="5.0" stroke-linecap="round" stroke-linejoin="round" />
<path d="M 155.0 137.0 L 155.0 137.0 L 155.0 137.0 L 154.0 137.0 L 153.0 137.0 L 153.0 137.0 L 152.0 138.0 L 152.0 138.0 L 152.0 139.0 L 152.0 139.0 L 152.0 140.0 L 152.0 141.0 L 152.0 141.0 L 153.0 142.0 L 153.0 143.0 L 154.0 144.0 L 154.0 145.0 L 155.0 146.0 L 155.0 147.0 L 156.0 148.0 L 156.0 149.0 L 157.0 150.0 L 157.0 151.0 L 158.0 152.0 L 158.0 153.0 L 159.0 154.0 L 159.0 155.0 L 160.0 156.0 L 160.0 157.0 L 161.0 157.0 L 161.0 158.0 L 162.0 159.0 L 162.0 160.0 L 162.0 161.0 L 163.0 162.0 L 163.0 162.0 L 164.0 163.0 L 164.0 164.0 L 165.0 165.0 L 165.0 166.0 L 166.0 166.0 L 166.0 167.0 L 167.0 168.0 L 167.0 169.0 L 168.0 170.0 L 168.0 170.0 L 169.0 171.0 L 169.0 172.0 L 170.0 173.0 L 170.0 174.0 L 171.0 174.0 L 171.0 175.0 L 171.0 176.0 L 172.0 177.0 L 172.0 178.0 L 173.0 178.0 L 173.0 179.0 L 173.0 180.0 L 174.0 181.0 L 174.0 182.0 L 175.0 182.0 L 175.0 183.0 L 175.0 184.0 L 176.0 185.0 L 176.0 186.0 L 177.0 187.0 L 177.0 188.0 L 178.0 188.0 L 178.0 189.0 L 178.0 190.0 L 179.0 191.0 L 180.0 191.0 L 180.0 192.0 L 180.0 193.0 L 181.0 194.0 L 181.0 194.0 L 182.0 195.0 L 182.0 196.0 L 183.0 196.0 L 183.0 197.0 L 184.0 198.0 L 185.0 198.0 L 185.0 199.0 L 186.0 200.0 L 186.0 201.0 L 187.0 202.0 L 188.0 203.0 L 188.0 204.0 L 189.0 205.0 L 190.0 206.0 L 190.0 206.0 L 191.0 207.0 L 191.0 207.0 L 192.0 208.0 L 192.0 208.0 L 192.0 209.0 L 193.0 209.0 L 193.0 210.0 L 193.0 211.0 L 194.0 211.0 L 194.0 212.0 L 195.0 213.0 L 195.0 213.0 L 196.0 214.0 L 196.0 214.0 L 197.0 215.0 L 197.0 216.0 L 198.0 216.0 L 198.0 217.0 L 199.0 217.0 L 199.0 218.0 L 200.0 218.0 L 200.0 219.0 L 201.0 220.0 L 202.0 220.0 L 202.0 221.0 L 203.0 221.0 L 204.0 222.0 L 204.0 222.0 L 205.0 223.0 L 206.0 223.0 L 207.0 224.0 L 207.0 225.0 L 208.0 225.0 L 209.0 226.0 L 210.0 226.0 L 210.0 227.0 L 211.0 228.0 L 212.0 228.0 L 212.0 229.0 L 213.0 229.0 L 213.0 230.0 L 214.0 230.0 L 214.0 231.0 L 215.0 232.0 L 216.0 232.0 L 216.0 233.0 L 217.0 233.0 L 218.0 234.0 L 218.0 234.0 L 219.0 235.0 L 220.0 236.0 L 220.0 236.0 L 221.0 237.0 L 222.0 237.0 L 223.0 238.0 L 223.0 239.0 L 224.0 239.0 L 225.0 240.0 L 226.0 241.0 L 227.0 241.0 L 228.0 241.0 L 229.0 241.0 " stroke="black" fill="none" stroke-width="5.0" stroke-linecap="round" stroke-linejoin="round" />
<path d="M 129.0 213.0 L 129.0 213.0 L 129.0 213.0 L 128.0 212.0 L 128.0 212.0 L 128.0 212.0 L 128.0 211.0 L 127.0 211.0 L 127.0 211.0 L 127.0 211.0 L 127.0 211.0 L 127.0 211.0 L 128.0 211.0 L 129.0 212.0 L 130.0 213.0 L 132.0 215.0 L 134.0 216.0 L 136.0 218.0 L 139.0 220.0 L 142.0 223.0 L 145.0 225.0 L 148.0 228.0 L 151.0 230.0 L 154.0 232.0 L 157.0 234.0 L 159.0 235.0 L 160.0 236.0 L 161.0 237.0 L 162.0 237.0 L 162.0 238.0 L 162.0 238.0 L 162.0 238.0 " stroke="black" fill="none" stroke-width="5.0" stroke-linecap="round" stroke-linejoin="round" />
</svg>