<svg xmlns="http://www.w3.org/2000/svg" width="300" height="300" viewBox="0 0 300 300">
<path d="M 71.0 123.0 L 71.0 123.0 L 70.0 123.0 L 69.0 122.0 L 68.0 122.0 L 68.0 122.0 L 68.0 122.0 L 68.0 122.0 L 68.0 122.0 L 69.0 122.0 L 72.0 122.0 L 77.0 123.0 L 83.0 123.0 L 92.0 124.0 L 101.0 124.0 L 113.0 125.0 L 127.0 125.0 L 144.0 125.0 L 160.0 125.0 L 175.0 124.0 L 188.0 123.0 L 199.0 123.0 L 206.0 123.0 L 211.0 123.0 L 217.0 123.0 L 224.0 123.0 L 227.0 123.0 L 229.0 123.0 L 229.0 123.0 L 227.0 125.0 L 225.0 126.0 " stroke="black" fill="none" stroke-width="5.0" stroke-linecap="round" stroke-linejoin="round" />
<path d="M 147.0 74.0 L 147.0 74.0 L 147.0 73.0 L 147.0 73.0 L 146.0 72.0 L 146.0 72.0 L 146.0 72.0 L 146.0 72.0 L 146.0 72.0 L 145.0 73.0 L 145.0 75.0 L 145.0 76.0 L 144.0 79.0 L 142.0 82.0 L 141.0 87.0 L 138.0 93.0 L 135.0 101.0 L 130.0 110.0 L 126.0 119.0 L 121.0 127.0 L 117.0 135.0 L 114.0 141.0 L 112.0 147.0 L 111.0 153.0 L 109.0 157.0 L 108.0 161.0 L 107.0 165.0 L 106.0 168.0 L 104.0 170.0 L 103.0 173.0 L 101.0 176.0 L 100.0 178.0 L 99.0 180.0 L 98.0 181.0 L 97.0 183.0 L 96.0 184.0 L 95.0 185.0 L 95.0 186.0 L 94.0 187.0 L 93.0 187.0 L 93.0 188.0 L 92.0 188.0 L 92.0 188.0 L 92.0 188.0 L 92.0 188.0 L 92.0 188.0 L 92.0 188.0 L 93.0 188.0 L 94.0 188.0 L 95.0 188.0 L 97.0 189.0 L 100.0 189.0 L 102.0 189.0 L 105.0 190.0 L 108.0 191.0 L 112.0 193.0 L 117.0 195.0 L 123.0 196.0 L 131.0 199.0 L 140.0 201.0 L 148.0 204.0 L 155.0 208.0 L 161.0 212.0 L 166.0 217.0 L 172.0 222.0 L 179.0 227.0 L 185.0 231.0 L 190.0 234.0 L 195.0 236.0 L 198.0 237.0 L 200.0 238.0 L 202.0 239.0 L 203.0 240.0 L 205.0 241.0 L 206.0 242.0 L 206.0 243.0 L 206.0 245.0 L 207.0 245.0 L 207.0 246.0 L 207.0 246.0 " stroke="black" fill="none" stroke-width="5.0" stroke-linecap="round" stroke-linejoin="round" />
<path d="M 201.0 110.0 L 201.0 110.0 L 200.0 110.0 L 199.0 110.0 L 199.0 109.0 L 199.0 109.0 L 199.0 109.0 L 199.0 109.0 L 199.0 109.0 L 199.0 109.0 L 199.0 110.0 L 199.0 111.0 L 200.0 113.0 L 200.0 116.0 L 200.0 120.0 L 200.0 125.0 L 198.0 131.0 L 196.0 139.0 L 192.0 148.0 L 187.0 157.0 L 179.0 166.0 L 170.0 176.0 L 160.0 187.0 L 153.0 196.0 L 144.0 205.0 L 130.0 214.0 L 117.0 222.0 L 107.0 230.0 L 97.0 236.0 L 87.0 240.0 L 76.0 243.0 L 67.0 246.0 L 61.0 249.0 L 54.0 251.0 L 51.0 252.0 " stroke="black" fill="none" stroke-width="5.0" stroke-linecap="round" stroke-linejoin="round" />
</svg>