<svg xmlns="http://www.w3.org/2000/svg" width="300" height="300" viewBox="0 0 300 300">
<path d="M 109.0 72.0 L 109.0 72.0 L 108.0 71.0 L 107.0 71.0 L 107.0 70.0 L 106.0 69.0 L 106.0 69.0 L 106.0 68.0 L 106.0 68.0 L 106.0 68.0 L 106.0 68.0 L 107.0 69.0 L 108.0 70.0 L 110.0 73.0 L 114.0 76.0 L 117.0 79.0 L 121.0 82.0 L 124.0 83.0 " stroke="black" fill="none" stroke-width="5.0" stroke-linecap="round" stroke-linejoin="round" />
<path d="M 192.0 65.0 L 192.0 65.0 L 192.0 65.0 L 192.0 64.0 L 191.0 64.0 L 191.0 64.0 L 190.0 65.0 L 189.0 66.0 L 188.0 69.0 L 185.0 72.0 L 182.0 76.0 L 178.0 79.0 L 177.0 81.0 " stroke="black" fill="none" stroke-width="5.0" stroke-linecap="round" stroke-linejoin="round" />
<path d="M 76.0 93.0 L 76.0 94.0 L 74.0 94.0 L 73.0 94.0 L 72.0 94.0 L 72.0 94.0 L 72.0 94.0 L 74.0 94.0 L 77.0 94.0 L 82.0 94.0 L 88.0 94.0 L 95.0 94.0 L 102.0 94.0 L 108.0 94.0 L 115.0 94.0 L 123.0 94.0 L 133.0 93.0 L 144.0 93.0 L 154.0 93.0 L 163.0 92.0 L 174.0 92.0 L 185.0 92.0 L 194.0 92.0 L 200.0 92.0 L 205.0 92.0 L 210.0 92.0 L 215.0 92.0 L 220.0 92.0 L 223.0 92.0 L 227.0 92.0 L 229.0 92.0 " stroke="black" fill="none" stroke-width="5.0" stroke-linecap="round" stroke-linejoin="round" />
<path d="M 84.0 128.0 L 84.0 128.0 L 83.0 127.0 L 83.0 127.0 L 83.0 127.0 L 83.0 128.0 L 83.0 131.0 L 83.0 136.0 L 83.0 142.0 L 83.0 149.0 L 83.0 156.0 L 83.0 163.0 L 83.0 170.0 L 83.0 174.0 L 83.0 178.0 L 83.0 179.0 " stroke="black" fill="none" stroke-width="5.0" stroke-linecap="round" stroke-linejoin="round" />
<path d="M 86.0 123.0 L 86.0 123.0 L 86.0 123.0 L 86.0 123.0 L 85.0 123.0 L 85.0 123.0 L 85.0 123.0 L 85.0 123.0 L 85.0 123.0 L 86.0 122.0 L 88.0 122.0 L 90.0 122.0 L 92.0 121.0 L 95.0 121.0 L 97.0 121.0 L 100.0 121.0 L 102.0 121.0 L 105.0 120.0 L 107.0 120.0 L 110.0 120.0 L 112.0 120.0 L 115.0 120.0 L 118.0 119.0 L 122.0 119.0 L 125.0 119.0 L 129.0 119.0 L 133.0 119.0 L 137.0 119.0 L 142.0 119.0 L 145.0 119.0 L 149.0 119.0 L 152.0 119.0 L 155.0 119.0 L 157.0 119.0 L 159.0 120.0 L 161.0 120.0 L 163.0 120.0 L 166.0 121.0 L 168.0 121.0 L 171.0 122.0 L 174.0 122.0 L 177.0 122.0 L 180.0 122.0 L 184.0 122.0 L 187.0 122.0 L 190.0 122.0 L 193.0 122.0 L 195.0 122.0 L 197.0 122.0 L 199.0 122.0 L 200.0 122.0 L 202.0 123.0 L 203.0 123.0 L 205.0 123.0 L 207.0 123.0 L 208.0 123.0 L 210.0 123.0 L 211.0 123.0 L 213.0 123.0 L 214.0 123.0 L 215.0 124.0 L 216.0 124.0 L 216.0 124.0 L 216.0 125.0 L 217.0 125.0 L 217.0 126.0 L 217.0 127.0 L 217.0 128.0 L 217.0 129.0 L 217.0 131.0 L 217.0 134.0 L 216.0 138.0 L 216.0 144.0 L 214.0 150.0 L 213.0 156.0 L 212.0 162.0 L 210.0 168.0 L 209.0 173.0 L 209.0 177.0 L 208.0 179.0 L 207.0 181.0 L 207.0 181.0 " stroke="black" fill="none" stroke-width="5.0" stroke-linecap="round" stroke-linejoin="round" />
<path d="M 135.0 94.0 L 135.0 94.0 L 134.0 94.0 L 133.0 94.0 L 133.0 94.0 L 133.0 94.0 L 133.0 96.0 L 133.0 100.0 L 134.0 105.0 L 134.0 112.0 L 132.0 119.0 L 129.0 126.0 L 125.0 132.0 L 121.0 138.0 L 118.0 143.0 L 115.0 146.0 L 113.0 149.0 L 111.0 150.0 L 111.0 150.0 " stroke="black" fill="none" stroke-width="5.0" stroke-linecap="round" stroke-linejoin="round" />
<path d="M 166.0 104.0 L 166.0 104.0 L 165.0 105.0 L 165.0 105.0 L 165.0 106.0 L 165.0 108.0 L 165.0 109.0 L 165.0 111.0 L 165.0 114.0 L 165.0 117.0 L 165.0 120.0 L 165.0 124.0 L 165.0 127.0 L 165.0 130.0 L 166.0 133.0 L 167.0 135.0 L 170.0 137.0 L 174.0 137.0 L 180.0 137.0 L 186.0 136.0 L 192.0 134.0 L 198.0 132.0 L 204.0 130.0 L 208.0 128.0 L 209.0 128.0 " stroke="black" fill="none" stroke-width="5.0" stroke-linecap="round" stroke-linejoin="round" />
<path d="M 132.0 158.0 L 128.0 158.0 L 125.0 158.0 L 123.0 159.0 L 121.0 159.0 L 120.0 159.0 L 120.0 159.0 L 120.0 159.0 L 122.0 159.0 L 125.0 159.0 L 131.0 159.0 L 137.0 159.0 L 143.0 158.0 L 150.0 158.0 L 156.0 157.0 L 163.0 157.0 L 171.0 156.0 L 178.0 156.0 L 184.0 156.0 " stroke="black" fill="none" stroke-width="5.0" stroke-linecap="round" stroke-linejoin="round" />
<path d="M 89.0 178.0 L 89.0 178.0 L 87.0 177.0 L 86.0 177.0 L 86.0 177.0 L 85.0 177.0 L 85.0 177.0 L 87.0 177.0 L 89.0 177.0 L 93.0 177.0 L 98.0 177.0 L 103.0 177.0 L 110.0 178.0 L 119.0 178.0 L 132.0 179.0 L 146.0 179.0 L 159.0 178.0 L 173.0 177.0 L 185.0 175.0 L 194.0 174.0 L 198.0 174.0 L 201.0 175.0 L 202.0 175.0 " stroke="black" fill="none" stroke-width="5.0" stroke-linecap="round" stroke-linejoin="round" />
<path d="M 67.0 212.0 L 67.0 212.0 L 66.0 212.0 L 65.0 212.0 L 65.0 212.0 L 65.0 212.0 L 65.0 212.0 L 66.0 212.0 L 69.0 212.0 L 73.0 212.0 L 80.0 212.0 L 88.0 212.0 L 98.0 212.0 L 108.0 212.0 L 119.0 212.0 L 133.0 212.0 L 146.0 212.0 L 157.0 212.0 L 168.0 212.0 L 182.0 211.0 L 192.0 209.0 L 198.0 208.0 L 203.0 207.0 L 205.0 206.0 L 206.0 206.0 " stroke="black" fill="none" stroke-width="5.0" stroke-linecap="round" stroke-linejoin="round" />
<path d="M 152.0 189.0 L 152.0 189.0 L 151.0 189.0 L 151.0 190.0 L 151.0 190.0 L 150.0 190.0 L 150.0 191.0 L 150.0 193.0 L 150.0 195.0 L 149.0 197.0 L 146.0 201.0 L 142.0 207.0 L 135.0 214.0 L 125.0 222.0 L 114.0 230.0 L 104.0 237.0 L 96.0 242.0 L 88.0 246.0 L 81.0 248.0 L 78.0 248.0 " stroke="black" fill="none" stroke-width="5.0" stroke-linecap="round" stroke-linejoin="round" />
<path d="M 167.0 227.0 L 167.0 227.0 L 165.0 227.0 L 165.0 228.0 L 165.0 229.0 L 166.0 230.0 L 170.0 232.0 L 175.0 234.0 L 182.0 236.0 L 188.0 238.0 L 195.0 240.0 L 203.0 242.0 L 212.0 244.0 L 222.0 245.0 L 231.0 245.0 L 238.0 246.0 " stroke="black" fill="none" stroke-width="5.0" stroke-linecap="round" stroke-linejoin="round" />
</svg>