<svg xmlns="http://www.w3.org/2000/svg" width="300" height="300" viewBox="0 0 300 300">
<path d="M 100.0 80.0 L 100.0 79.0 L 100.0 78.0 L 99.0 78.0 L 99.0 77.0 L 99.0 77.0 L 99.0 77.0 L 100.0 78.0 L 100.0 80.0 L 101.0 83.0 L 102.0 87.0 L 103.0 93.0 L 103.0 99.0 L 102.0 106.0 L 100.0 115.0 L 95.0 123.0 L 89.0 131.0 L 81.0 139.0 L 74.0 146.0 L 69.0 151.0 L 65.0 154.0 L 65.0 154.0 " stroke="black" fill="none" stroke-width="5.0" stroke-linecap="round" stroke-linejoin="round" />
<path d="M 105.0 115.0 L 105.0 115.0 L 104.0 115.0 L 103.0 115.0 L 102.0 114.0 L 101.0 114.0 L 101.0 114.0 L 101.0 114.0 L 103.0 114.0 L 105.0 114.0 L 108.0 113.0 L 113.0 113.0 L 120.0 112.0 L 129.0 112.0 L 140.0 111.0 L 151.0 110.0 L 162.0 109.0 L 175.0 109.0 L 186.0 108.0 L 193.0 108.0 L 199.0 108.0 L 201.0 110.0 L 202.0 111.0 " stroke="black" fill="none" stroke-width="5.0" stroke-linecap="round" stroke-linejoin="round" />
<path d="M 80.0 164.0 L 80.0 164.0 L 78.0 164.0 L 77.0 163.0 L 77.0 163.0 L 76.0 163.0 L 76.0 163.0 L 77.0 163.0 L 79.0 164.0 L 83.0 164.0 L 89.0 164.0 L 96.0 164.0 L 102.0 164.0 L 110.0 164.0 L 121.0 164.0 L 134.0 163.0 L 147.0 161.0 L 161.0 160.0 L 175.0 158.0 L 189.0 157.0 L 200.0 156.0 L 207.0 156.0 L 213.0 156.0 L 220.0 156.0 L 224.0 157.0 L 227.0 159.0 " stroke="black" fill="none" stroke-width="5.0" stroke-linecap="round" stroke-linejoin="round" />
<path d="M 147.0 82.0 L 147.0 82.0 L 147.0 82.0 L 147.0 82.0 L 147.0 82.0 L 147.0 82.0 L 147.0 82.0 L 147.0 83.0 L 147.0 86.0 L 147.0 90.0 L 147.0 96.0 L 148.0 103.0 L 149.0 111.0 L 149.0 120.0 L 150.0 130.0 L 150.0 139.0 L 150.0 150.0 L 150.0 161.0 L 149.0 170.0 L 146.0 181.0 L 141.0 192.0 L 135.0 201.0 L 127.0 210.0 L 119.0 218.0 L 112.0 226.0 L 107.0 233.0 L 103.0 239.0 L 100.0 242.0 L 96.0 244.0 L 94.0 245.0 " stroke="black" fill="none" stroke-width="5.0" stroke-linecap="round" stroke-linejoin="round" />
<path d="M 146.0 173.0 L 146.0 172.0 L 146.0 171.0 L 146.0 170.0 L 146.0 170.0 L 146.0 170.0 L 146.0 170.0 L 147.0 172.0 L 149.0 174.0 L 151.0 178.0 L 153.0 183.0 L 156.0 189.0 L 161.0 196.0 L 168.0 204.0 L 176.0 212.0 L 185.0 221.0 L 192.0 229.0 L 197.0 235.0 L 203.0 240.0 L 208.0 242.0 L 214.0 244.0 L 221.0 246.0 L 227.0 247.0 L 231.0 247.0 L 233.0 247.0 " stroke="black" fill="none" stroke-width="5.0" stroke-linecap="round" stroke-linejoin="round" />
</svg>