<svg xmlns="http://www.w3.org/2000/svg" width="300" height="300" viewBox="0 0 300 300">
<path d="M 200.0 70.0 L 200.0 70.0 L 200.0 70.0 L 200.0 70.0 L 200.0 70.0 L 200.0 70.0 L 200.0 70.0 L 200.0 70.0 L 200.0 70.0 L 200.0 70.0 L 200.0 70.0 L 200.0 70.0 L 200.0 70.0 L 199.0 70.0 L 199.0 70.0 L 198.0 70.0 L 198.0 70.0 L 197.0 70.0 L 196.0 70.0 L 196.0 70.0 L 195.0 71.0 L 193.0 71.0 L 192.0 71.0 L 191.0 71.0 L 189.0 72.0 L 188.0 72.0 L 186.0 73.0 L 184.0 73.0 L 182.0 74.0 L 180.0 74.0 L 179.0 75.0 L 177.0 75.0 L 175.0 76.0 L 173.0 77.0 L 172.0 77.0 L 170.0 78.0 L 168.0 78.0 L 167.0 79.0 L 165.0 79.0 L 163.0 80.0 L 161.0 80.0 L 159.0 81.0 L 157.0 81.0 L 156.0 82.0 L 154.0 82.0 L 152.0 82.0 L 151.0 83.0 L 149.0 83.0 L 148.0 83.0 L 147.0 84.0 L 146.0 84.0 L 145.0 84.0 L 144.0 84.0 L 142.0 84.0 L 141.0 84.0 L 140.0 84.0 L 138.0 84.0 L 137.0 84.0 L 135.0 85.0 L 133.0 85.0 L 131.0 85.0 L 128.0 85.0 L 126.0 85.0 L 124.0 85.0 L 122.0 85.0 L 120.0 85.0 L 118.0 85.0 L 116.0 85.0 L 115.0 85.0 L 113.0 85.0 L 112.0 85.0 L 110.0 85.0 L 109.0 85.0 L 108.0 85.0 L 106.0 85.0 L 105.0 85.0 L 104.0 86.0 L 103.0 86.0 L 102.0 86.0 L 101.0 87.0 L 100.0 87.0 L 99.0 87.0 L 97.0 87.0 L 96.0 88.0 L 94.0 88.0 L 92.0 88.0 L 90.0 89.0 L 88.0 89.0 L 86.0 89.0 L 85.0 90.0 L 84.0 90.0 L 83.0 90.0 L 83.0 89.0 L 83.0 89.0 " stroke="black" fill="none" stroke-width="5.0" stroke-linecap="round" stroke-linejoin="round" />
<path d="M 69.0 116.0 L 69.0 116.0 L 69.0 116.0 L 69.0 116.0 L 69.0 116.0 L 69.0 116.0 L 69.0 116.0 L 69.0 116.0 L 69.0 116.0 L 69.0 116.0 L 69.0 116.0 L 69.0 116.0 L 69.0 116.0 L 69.0 116.0 L 69.0 116.0 L 69.0 116.0 L 70.0 115.0 L 70.0 115.0 L 71.0 115.0 L 72.0 115.0 L 73.0 115.0 L 74.0 115.0 L 76.0 115.0 L 77.0 114.0 L 79.0 114.0 L 80.0 114.0 L 82.0 114.0 L 83.0 114.0 L 85.0 114.0 L 86.0 114.0 L 87.0 114.0 L 89.0 114.0 L 91.0 114.0 L 92.0 114.0 L 94.0 115.0 L 95.0 115.0 L 97.0 115.0 L 98.0 115.0 L 100.0 115.0 L 101.0 115.0 L 102.0 115.0 L 103.0 116.0 L 104.0 116.0 L 105.0 116.0 L 106.0 116.0 L 107.0 116.0 L 108.0 116.0 L 108.0 116.0 L 109.0 116.0 L 110.0 116.0 L 110.0 116.0 L 111.0 116.0 L 111.0 116.0 L 112.0 116.0 L 112.0 116.0 L 113.0 116.0 L 114.0 116.0 L 114.0 116.0 L 115.0 116.0 L 116.0 116.0 L 116.0 116.0 L 117.0 116.0 L 118.0 116.0 L 119.0 116.0 L 119.0 116.0 L 120.0 116.0 L 121.0 116.0 L 122.0 116.0 L 123.0 116.0 L 124.0 116.0 L 125.0 116.0 L 126.0 116.0 L 127.0 116.0 L 128.0 116.0 L 129.0 116.0 L 131.0 116.0 L 132.0 116.0 L 133.0 116.0 L 135.0 116.0 L 136.0 116.0 L 137.0 116.0 L 139.0 116.0 L 140.0 116.0 L 141.0 116.0 L 143.0 116.0 L 144.0 116.0 L 145.0 116.0 L 146.0 116.0 L 148.0 116.0 L 149.0 116.0 L 150.0 116.0 L 151.0 116.0 L 152.0 116.0 L 153.0 116.0 L 153.0 116.0 L 155.0 116.0 L 155.0 116.0 L 156.0 116.0 L 157.0 115.0 L 158.0 115.0 L 159.0 115.0 L 161.0 115.0 L 162.0 114.0 L 163.0 114.0 L 164.0 114.0 L 165.0 114.0 L 166.0 114.0 L 167.0 114.0 L 168.0 114.0 L 169.0 113.0 L 170.0 113.0 L 171.0 113.0 L 171.0 113.0 L 172.0 113.0 L 173.0 113.0 L 174.0 113.0 L 175.0 113.0 L 176.0 113.0 L 176.0 113.0 L 177.0 113.0 L 178.0 113.0 L 178.0 113.0 L 179.0 113.0 L 180.0 113.0 L 180.0 113.0 L 181.0 114.0 L 182.0 114.0 L 182.0 114.0 L 183.0 114.0 L 183.0 114.0 L 184.0 114.0 L 184.0 114.0 L 185.0 114.0 L 185.0 114.0 L 185.0 114.0 L 186.0 114.0 L 186.0 114.0 L 187.0 114.0 L 187.0 114.0 L 187.0 114.0 L 188.0 114.0 L 188.0 114.0 L 189.0 114.0 L 189.0 114.0 L 190.0 115.0 L 190.0 115.0 L 191.0 115.0 L 191.0 115.0 L 191.0 115.0 L 192.0 115.0 L 192.0 115.0 L 193.0 115.0 L 193.0 115.0 L 194.0 115.0 L 194.0 115.0 L 195.0 115.0 L 195.0 115.0 L 196.0 115.0 L 196.0 115.0 L 196.0 115.0 L 197.0 115.0 L 197.0 115.0 L 198.0 116.0 L 198.0 116.0 L 199.0 116.0 L 199.0 116.0 L 200.0 116.0 L 200.0 116.0 L 201.0 116.0 L 201.0 116.0 L 202.0 116.0 L 202.0 116.0 L 203.0 116.0 L 204.0 116.0 L 204.0 116.0 L 205.0 116.0 L 205.0 116.0 L 206.0 116.0 L 206.0 116.0 L 207.0 116.0 L 208.0 116.0 L 208.0 116.0 L 209.0 116.0 L 209.0 116.0 L 210.0 116.0 L 210.0 116.0 L 211.0 116.0 L 211.0 116.0 L 212.0 116.0 L 212.0 116.0 L 213.0 116.0 L 213.0 116.0 L 214.0 116.0 L 215.0 116.0 L 215.0 116.0 L 216.0 116.0 L 216.0 116.0 L 217.0 116.0 L 218.0 116.0 L 218.0 116.0 L 219.0 116.0 L 219.0 116.0 L 219.0 116.0 L 220.0 116.0 L 220.0 116.0 L 221.0 116.0 L 221.0 116.0 L 222.0 116.0 L 222.0 116.0 L 223.0 116.0 L 224.0 116.0 L 224.0 116.0 L 225.0 117.0 L 225.0 117.0 L 226.0 117.0 L 227.0 117.0 L 227.0 117.0 L 228.0 117.0 L 228.0 117.0 L 229.0 117.0 L 229.0 117.0 L 230.0 117.0 L 230.0 117.0 L 230.0 117.0 L 231.0 117.0 L 231.0 117.0 " stroke="black" fill="none" stroke-width="5.0" stroke-linecap="round" stroke-linejoin="round" />
<path d="M 149.0 90.0 L 149.0 90.0 L 149.0 90.0 L 149.0 90.0 L 149.0 91.0 L 149.0 92.0 L 149.0 93.0 L 149.0 95.0 L 149.0 98.0 L 149.0 101.0 L 149.0 106.0 L 149.0 111.0 L 149.0 117.0 L 149.0 123.0 L 149.0 130.0 L 149.0 137.0 L 149.0 144.0 L 149.0 151.0 L 149.0 156.0 L 149.0 160.0 L 149.0 163.0 L 149.0 164.0 L 149.0 165.0 L 150.0 165.0 L 150.0 164.0 " stroke="black" fill="none" stroke-width="5.0" stroke-linecap="round" stroke-linejoin="round" />
<path d="M 139.0 117.0 L 139.0 117.0 L 139.0 117.0 L 138.0 118.0 L 137.0 118.0 L 136.0 119.0 L 134.0 120.0 L 133.0 121.0 L 131.0 122.0 L 128.0 124.0 L 124.0 126.0 L 120.0 129.0 L 116.0 132.0 L 111.0 136.0 L 107.0 140.0 L 102.0 145.0 L 97.0 149.0 L 91.0 153.0 L 83.0 157.0 L 76.0 160.0 L 70.0 162.0 L 66.0 165.0 L 63.0 166.0 L 62.0 167.0 L 62.0 167.0 " stroke="black" fill="none" stroke-width="5.0" stroke-linecap="round" stroke-linejoin="round" />
<path d="M 179.0 132.0 L 179.0 132.0 L 178.0 131.0 L 177.0 131.0 L 177.0 130.0 L 176.0 130.0 L 176.0 130.0 L 176.0 130.0 L 176.0 130.0 L 176.0 130.0 L 177.0 130.0 L 178.0 130.0 L 180.0 131.0 L 182.0 133.0 L 185.0 134.0 L 187.0 136.0 L 191.0 138.0 L 194.0 140.0 L 197.0 141.0 L 202.0 143.0 L 208.0 144.0 L 214.0 146.0 L 221.0 147.0 L 227.0 148.0 L 232.0 149.0 L 237.0 150.0 L 239.0 151.0 L 241.0 152.0 L 242.0 153.0 L 243.0 154.0 L 243.0 156.0 L 243.0 156.0 " stroke="black" fill="none" stroke-width="5.0" stroke-linecap="round" stroke-linejoin="round" />
<path d="M 65.0 184.0 L 65.0 184.0 L 65.0 184.0 L 65.0 184.0 L 64.0 184.0 L 64.0 184.0 L 64.0 184.0 L 64.0 184.0 L 64.0 184.0 L 64.0 183.0 L 64.0 183.0 L 64.0 183.0 L 63.0 183.0 L 63.0 182.0 L 63.0 182.0 L 63.0 182.0 L 63.0 181.0 L 64.0 181.0 L 65.0 181.0 L 66.0 180.0 L 67.0 180.0 L 68.0 180.0 L 69.0 180.0 L 70.0 180.0 L 72.0 180.0 L 73.0 180.0 L 75.0 180.0 L 76.0 180.0 L 78.0 181.0 L 80.0 181.0 L 82.0 181.0 L 84.0 182.0 L 86.0 182.0 L 88.0 182.0 L 90.0 183.0 L 92.0 183.0 L 94.0 183.0 L 95.0 183.0 L 97.0 183.0 L 99.0 183.0 L 100.0 183.0 L 101.0 183.0 L 103.0 183.0 L 104.0 184.0 L 105.0 184.0 L 106.0 184.0 L 107.0 184.0 L 108.0 184.0 L 109.0 184.0 L 110.0 184.0 L 111.0 184.0 L 112.0 184.0 L 113.0 184.0 L 113.0 184.0 L 114.0 184.0 L 115.0 184.0 L 116.0 184.0 L 117.0 184.0 L 118.0 184.0 L 119.0 184.0 L 120.0 184.0 L 121.0 184.0 L 122.0 184.0 L 123.0 184.0 L 124.0 184.0 L 125.0 184.0 L 126.0 184.0 L 127.0 184.0 L 128.0 184.0 L 129.0 184.0 L 130.0 184.0 L 131.0 184.0 L 132.0 185.0 L 133.0 185.0 L 134.0 185.0 L 135.0 185.0 L 137.0 185.0 L 137.0 186.0 L 139.0 186.0 L 139.0 186.0 L 140.0 186.0 L 141.0 186.0 L 143.0 186.0 L 143.0 186.0 L 145.0 186.0 L 146.0 186.0 L 147.0 186.0 L 148.0 186.0 L 149.0 186.0 L 150.0 186.0 L 151.0 186.0 L 152.0 186.0 L 153.0 186.0 L 154.0 186.0 L 155.0 186.0 L 155.0 186.0 L 156.0 186.0 L 157.0 186.0 L 158.0 186.0 L 159.0 186.0 L 160.0 186.0 L 161.0 186.0 L 162.0 186.0 L 163.0 186.0 L 164.0 186.0 L 165.0 186.0 L 166.0 187.0 L 167.0 187.0 L 168.0 187.0 L 169.0 187.0 L 170.0 187.0 L 171.0 187.0 L 173.0 187.0 L 174.0 187.0 L 175.0 187.0 L 176.0 188.0 L 177.0 188.0 L 178.0 188.0 L 178.0 188.0 L 179.0 188.0 L 179.0 188.0 L 180.0 188.0 L 182.0 188.0 L 182.0 188.0 L 183.0 188.0 L 184.0 188.0 L 185.0 188.0 L 186.0 188.0 L 187.0 188.0 L 187.0 188.0 L 188.0 188.0 L 189.0 188.0 L 189.0 188.0 L 190.0 188.0 L 191.0 188.0 L 191.0 188.0 L 192.0 188.0 L 193.0 188.0 L 193.0 188.0 L 194.0 188.0 L 194.0 188.0 L 195.0 188.0 L 196.0 188.0 L 196.0 188.0 L 197.0 188.0 L 198.0 189.0 L 199.0 189.0 L 199.0 189.0 L 200.0 189.0 L 201.0 189.0 L 201.0 189.0 L 202.0 189.0 L 203.0 189.0 L 204.0 189.0 L 204.0 189.0 L 205.0 189.0 L 206.0 189.0 L 207.0 189.0 L 208.0 189.0 L 208.0 189.0 L 209.0 189.0 L 210.0 189.0 L 210.0 189.0 L 211.0 189.0 L 212.0 189.0 L 212.0 189.0 L 213.0 189.0 L 214.0 189.0 L 215.0 189.0 L 215.0 189.0 L 216.0 189.0 L 217.0 189.0 L 218.0 189.0 L 218.0 189.0 L 219.0 189.0 L 220.0 189.0 L 220.0 189.0 L 221.0 189.0 L 222.0 189.0 L 223.0 189.0 L 223.0 189.0 L 224.0 189.0 L 225.0 189.0 L 225.0 189.0 L 226.0 189.0 L 227.0 189.0 L 227.0 189.0 L 228.0 189.0 L 229.0 189.0 L 229.0 189.0 L 230.0 189.0 L 231.0 189.0 L 231.0 189.0 L 232.0 189.0 L 233.0 189.0 L 233.0 189.0 L 233.0 189.0 L 234.0 189.0 L 234.0 189.0 L 234.0 189.0 " stroke="black" fill="none" stroke-width="5.0" stroke-linecap="round" stroke-linejoin="round" />
<path d="M 133.0 169.0 L 133.0 169.0 L 133.0 169.0 L 132.0 169.0 L 131.0 170.0 L 130.0 170.0 L 129.0 171.0 L 128.0 173.0 L 127.0 175.0 L 125.0 177.0 L 123.0 180.0 L 122.0 184.0 L 119.0 187.0 L 118.0 190.0 L 116.0 193.0 L 114.0 196.0 L 112.0 199.0 L 110.0 201.0 L 108.0 203.0 L 107.0 205.0 L 105.0 207.0 L 104.0 209.0 L 102.0 211.0 L 101.0 212.0 L 100.0 214.0 L 100.0 214.0 L 99.0 215.0 L 99.0 215.0 L 99.0 215.0 L 99.0 215.0 L 99.0 215.0 L 100.0 215.0 L 100.0 215.0 L 101.0 215.0 L 101.0 215.0 L 102.0 215.0 L 102.0 215.0 L 103.0 215.0 L 103.0 215.0 L 104.0 215.0 L 105.0 215.0 L 106.0 215.0 L 107.0 216.0 L 108.0 216.0 L 109.0 216.0 L 110.0 217.0 L 112.0 217.0 L 114.0 218.0 L 116.0 218.0 L 118.0 219.0 L 121.0 220.0 L 124.0 221.0 L 126.0 223.0 L 129.0 224.0 L 131.0 225.0 L 134.0 225.0 L 136.0 226.0 L 139.0 227.0 L 141.0 227.0 L 143.0 228.0 L 145.0 228.0 L 147.0 229.0 L 149.0 229.0 L 151.0 230.0 L 152.0 231.0 L 154.0 232.0 L 156.0 232.0 L 157.0 233.0 L 159.0 233.0 L 161.0 234.0 L 164.0 234.0 L 166.0 235.0 L 169.0 235.0 L 171.0 236.0 L 174.0 236.0 L 177.0 237.0 L 179.0 237.0 L 181.0 238.0 L 184.0 238.0 L 186.0 239.0 L 189.0 239.0 L 191.0 240.0 L 193.0 240.0 L 194.0 240.0 L 196.0 241.0 L 197.0 241.0 L 198.0 242.0 L 200.0 243.0 L 201.0 243.0 L 203.0 244.0 L 204.0 245.0 L 206.0 245.0 L 208.0 246.0 L 211.0 246.0 L 213.0 247.0 L 215.0 247.0 L 217.0 247.0 L 218.0 248.0 L 220.0 248.0 L 221.0 248.0 L 223.0 248.0 L 224.0 248.0 L 225.0 248.0 L 226.0 249.0 L 227.0 249.0 L 228.0 249.0 L 229.0 249.0 L 229.0 249.0 L 230.0 250.0 L 230.0 250.0 L 230.0 250.0 L 230.0 250.0 " stroke="black" fill="none" stroke-width="5.0" stroke-linecap="round" stroke-linejoin="round" />
<path d="M 201.0 179.0 L 201.0 179.0 L 201.0 179.0 L 201.0 179.0 L 201.0 179.0 L 201.0 179.0 L 201.0 179.0 L 201.0 180.0 L 201.0 180.0 L 201.0 180.0 L 201.0 180.0 L 201.0 180.0 L 201.0 180.0 L 201.0 181.0 L 201.0 182.0 L 201.0 183.0 L 201.0 185.0 L 201.0 187.0 L 200.0 189.0 L 199.0 192.0 L 198.0 194.0 L 197.0 196.0 L 196.0 198.0 L 195.0 200.0 L 194.0 202.0 L 193.0 204.0 L 192.0 206.0 L 191.0 208.0 L 189.0 209.0 L 188.0 211.0 L 187.0 212.0 L 186.0 213.0 L 185.0 214.0 L 183.0 216.0 L 181.0 217.0 L 180.0 218.0 L 178.0 220.0 L 175.0 222.0 L 173.0 223.0 L 170.0 225.0 L 168.0 227.0 L 166.0 228.0 L 163.0 229.0 L 161.0 231.0 L 159.0 232.0 L 157.0 232.0 L 155.0 233.0 L 153.0 234.0 L 151.0 235.0 L 149.0 235.0 L 148.0 236.0 L 146.0 236.0 L 143.0 237.0 L 141.0 238.0 L 137.0 239.0 L 134.0 240.0 L 130.0 241.0 L 126.0 241.0 L 122.0 242.0 L 118.0 243.0 L 115.0 244.0 L 111.0 244.0 L 108.0 245.0 L 105.0 246.0 L 102.0 247.0 L 99.0 248.0 L 96.0 249.0 L 93.0 250.0 L 90.0 251.0 L 86.0 252.0 L 83.0 252.0 L 81.0 252.0 L 79.0 251.0 " stroke="black" fill="none" stroke-width="5.0" stroke-linecap="round" stroke-linejoin="round" />
</svg>