<svg xmlns="http://www.w3.org/2000/svg" width="300" height="300" viewBox="0 0 300 300">
<path d="M 94.0 78.0 L 94.0 78.0 L 94.0 77.0 L 94.0 77.0 L 94.0 76.0 L 94.0 76.0 L 94.0 76.0 L 94.0 76.0 L 94.0 76.0 L 94.0 76.0 L 94.0 77.0 L 93.0 78.0 L 93.0 79.0 L 92.0 80.0 L 92.0 82.0 L 91.0 84.0 L 91.0 86.0 L 90.0 89.0 L 89.0 93.0 L 88.0 97.0 L 87.0 101.0 L 85.0 106.0 L 84.0 110.0 L 83.0 114.0 L 82.0 118.0 L 81.0 121.0 L 81.0 124.0 L 80.0 128.0 L 79.0 131.0 L 78.0 134.0 L 78.0 137.0 L 77.0 139.0 L 76.0 142.0 L 75.0 146.0 L 75.0 148.0 L 74.0 151.0 L 73.0 154.0 L 72.0 157.0 L 71.0 160.0 L 70.0 162.0 L 70.0 164.0 L 69.0 166.0 L 69.0 168.0 L 69.0 170.0 L 68.0 171.0 L 68.0 173.0 L 68.0 174.0 L 67.0 176.0 L 67.0 178.0 L 66.0 179.0 L 66.0 181.0 L 65.0 182.0 L 65.0 183.0 L 65.0 184.0 L 65.0 185.0 L 64.0 186.0 L 64.0 186.0 L 64.0 186.0 L 64.0 186.0 L 64.0 186.0 L 64.0 186.0 L 64.0 186.0 L 64.0 186.0 L 64.0 186.0 L 64.0 186.0 L 64.0 186.0 L 64.0 186.0 L 64.0 186.0 L 64.0 186.0 L 64.0 186.0 L 64.0 186.0 L 65.0 186.0 L 65.0 186.0 L 65.0 186.0 L 66.0 186.0 L 67.0 186.0 L 68.0 187.0 L 69.0 188.0 L 72.0 189.0 L 75.0 191.0 L 78.0 193.0 L 83.0 196.0 L 88.0 200.0 L 93.0 205.0 L 98.0 210.0 L 102.0 214.0 L 105.0 218.0 L 108.0 222.0 L 110.0 225.0 L 112.0 228.0 L 114.0 231.0 L 116.0 233.0 L 118.0 235.0 L 119.0 236.0 L 121.0 237.0 L 122.0 237.0 L 122.0 237.0 " stroke="black" fill="none" stroke-width="5.0" stroke-linecap="round" stroke-linejoin="round" />
<path d="M 117.0 107.0 L 117.0 107.0 L 117.0 107.0 L 117.0 107.0 L 117.0 107.0 L 117.0 107.0 L 117.0 107.0 L 117.0 107.0 L 117.0 107.0 L 117.0 107.0 L 117.0 107.0 L 117.0 107.0 L 117.0 109.0 L 117.0 112.0 L 117.0 116.0 L 117.0 121.0 L 117.0 127.0 L 117.0 135.0 L 116.0 144.0 L 115.0 152.0 L 113.0 160.0 L 111.0 168.0 L 109.0 176.0 L 107.0 186.0 L 104.0 196.0 L 101.0 204.0 L 98.0 213.0 L 94.0 221.0 L 90.0 228.0 L 84.0 234.0 L 78.0 239.0 L 73.0 241.0 L 69.0 243.0 " stroke="black" fill="none" stroke-width="5.0" stroke-linecap="round" stroke-linejoin="round" />
<path d="M 66.0 121.0 L 66.0 121.0 L 66.0 121.0 L 66.0 121.0 L 65.0 121.0 L 65.0 121.0 L 64.0 121.0 L 64.0 121.0 L 63.0 121.0 L 63.0 121.0 L 62.0 121.0 L 62.0 121.0 L 62.0 121.0 L 62.0 121.0 L 63.0 121.0 L 65.0 122.0 L 68.0 122.0 L 73.0 122.0 L 79.0 122.0 L 87.0 122.0 L 95.0 122.0 L 103.0 122.0 L 110.0 121.0 L 116.0 121.0 L 121.0 120.0 L 126.0 120.0 L 130.0 120.0 L 133.0 120.0 L 134.0 120.0 L 134.0 120.0 " stroke="black" fill="none" stroke-width="5.0" stroke-linecap="round" stroke-linejoin="round" />
<path d="M 151.0 118.0 L 151.0 118.0 L 150.0 118.0 L 149.0 119.0 L 148.0 119.0 L 147.0 120.0 L 146.0 120.0 L 146.0 120.0 L 146.0 120.0 L 146.0 120.0 L 146.0 120.0 L 147.0 120.0 L 149.0 120.0 L 151.0 120.0 L 153.0 120.0 L 156.0 119.0 L 160.0 119.0 L 164.0 119.0 L 170.0 119.0 L 177.0 119.0 L 185.0 119.0 L 192.0 119.0 L 199.0 120.0 L 207.0 120.0 L 215.0 120.0 L 222.0 120.0 L 230.0 120.0 L 235.0 120.0 L 238.0 120.0 L 240.0 120.0 L 241.0 120.0 L 241.0 121.0 L 241.0 121.0 " stroke="black" fill="none" stroke-width="5.0" stroke-linecap="round" stroke-linejoin="round" />
<path d="M 193.0 83.0 L 193.0 83.0 L 192.0 83.0 L 192.0 83.0 L 191.0 84.0 L 191.0 85.0 L 191.0 87.0 L 191.0 90.0 L 191.0 94.0 L 191.0 101.0 L 191.0 108.0 L 191.0 116.0 L 191.0 125.0 L 191.0 134.0 L 191.0 143.0 L 191.0 153.0 L 191.0 160.0 L 191.0 166.0 L 191.0 170.0 L 191.0 171.0 " stroke="black" fill="none" stroke-width="5.0" stroke-linecap="round" stroke-linejoin="round" />
<path d="M 152.0 186.0 L 152.0 186.0 L 152.0 185.0 L 152.0 184.0 L 152.0 183.0 L 152.0 182.0 L 152.0 181.0 L 152.0 180.0 L 152.0 179.0 L 152.0 178.0 L 152.0 178.0 L 153.0 178.0 L 153.0 180.0 L 153.0 182.0 L 153.0 186.0 L 154.0 190.0 L 154.0 194.0 L 154.0 199.0 L 154.0 204.0 L 154.0 209.0 L 154.0 214.0 L 154.0 219.0 L 154.0 223.0 L 154.0 225.0 L 154.0 226.0 L 155.0 226.0 " stroke="black" fill="none" stroke-width="5.0" stroke-linecap="round" stroke-linejoin="round" />
<path d="M 157.0 180.0 L 157.0 180.0 L 156.0 180.0 L 156.0 180.0 L 155.0 180.0 L 155.0 181.0 L 154.0 181.0 L 154.0 181.0 L 154.0 181.0 L 155.0 181.0 L 156.0 181.0 L 157.0 181.0 L 159.0 180.0 L 161.0 179.0 L 163.0 179.0 L 165.0 178.0 L 167.0 178.0 L 169.0 177.0 L 171.0 177.0 L 173.0 177.0 L 176.0 177.0 L 178.0 177.0 L 181.0 177.0 L 184.0 177.0 L 188.0 176.0 L 191.0 176.0 L 195.0 175.0 L 198.0 175.0 L 200.0 174.0 L 204.0 174.0 L 206.0 174.0 L 209.0 174.0 L 212.0 174.0 L 214.0 174.0 L 217.0 173.0 L 219.0 173.0 L 221.0 173.0 L 222.0 173.0 L 223.0 173.0 L 224.0 173.0 L 224.0 173.0 L 225.0 173.0 L 225.0 173.0 L 225.0 174.0 L 225.0 174.0 L 225.0 175.0 L 225.0 176.0 L 225.0 178.0 L 225.0 179.0 L 225.0 182.0 L 225.0 184.0 L 224.0 188.0 L 224.0 191.0 L 223.0 196.0 L 223.0 200.0 L 223.0 205.0 L 223.0 210.0 L 223.0 215.0 L 224.0 220.0 L 224.0 225.0 L 224.0 229.0 L 224.0 232.0 L 224.0 235.0 L 223.0 236.0 L 222.0 236.0 " stroke="black" fill="none" stroke-width="5.0" stroke-linecap="round" stroke-linejoin="round" />
<path d="M 155.0 241.0 L 155.0 241.0 L 153.0 241.0 L 152.0 241.0 L 152.0 241.0 L 151.0 241.0 L 150.0 241.0 L 150.0 241.0 L 150.0 241.0 L 150.0 241.0 L 152.0 241.0 L 155.0 241.0 L 158.0 241.0 L 164.0 241.0 L 171.0 241.0 L 178.0 240.0 L 187.0 240.0 L 195.0 239.0 L 203.0 238.0 L 211.0 238.0 L 218.0 238.0 L 222.0 238.0 L 224.0 238.0 L 224.0 239.0 L 224.0 239.0 " stroke="black" fill="none" stroke-width="5.0" stroke-linecap="round" stroke-linejoin="round" />
</svg>