<svg xmlns="http://www.w3.org/2000/svg" width="300" height="300" viewBox="0 0 300 300">
<path d="M 87.0 76.0 L 87.0 76.0 L 87.0 76.0 L 87.0 76.0 L 87.0 76.0 L 87.0 76.0 L 87.0 76.0 L 87.0 76.0 L 87.0 76.0 L 87.0 76.0 L 87.0 76.0 L 87.0 76.0 L 87.0 76.0 L 87.0 76.0 L 87.0 76.0 L 87.0 76.0 L 87.0 77.0 L 87.0 77.0 L 87.0 78.0 L 87.0 80.0 L 87.0 81.0 L 87.0 83.0 L 87.0 85.0 L 87.0 87.0 L 87.0 90.0 L 87.0 93.0 L 87.0 97.0 L 86.0 100.0 L 86.0 104.0 L 85.0 107.0 L 85.0 110.0 L 84.0 112.0 L 84.0 114.0 L 84.0 116.0 L 84.0 118.0 L 84.0 120.0 L 83.0 121.0 L 83.0 122.0 L 83.0 124.0 L 83.0 126.0 L 82.0 127.0 L 82.0 129.0 L 81.0 130.0 L 81.0 132.0 L 80.0 134.0 L 80.0 136.0 L 79.0 138.0 L 79.0 140.0 L 78.0 142.0 L 78.0 143.0 L 78.0 146.0 L 77.0 147.0 L 77.0 149.0 L 76.0 151.0 L 76.0 153.0 L 76.0 154.0 L 75.0 156.0 L 75.0 157.0 L 74.0 159.0 L 74.0 160.0 L 74.0 162.0 L 73.0 163.0 L 73.0 165.0 L 72.0 166.0 L 72.0 168.0 L 71.0 169.0 L 71.0 171.0 L 70.0 172.0 L 70.0 173.0 L 69.0 175.0 L 69.0 176.0 L 68.0 177.0 L 68.0 178.0 L 67.0 178.0 L 67.0 179.0 L 66.0 179.0 L 66.0 180.0 L 66.0 180.0 L 66.0 180.0 L 66.0 180.0 L 65.0 181.0 L 65.0 181.0 L 65.0 181.0 L 65.0 181.0 L 65.0 181.0 L 65.0 181.0 L 65.0 181.0 L 65.0 181.0 L 65.0 182.0 L 65.0 182.0 L 65.0 182.0 L 65.0 182.0 L 65.0 182.0 L 65.0 182.0 L 65.0 182.0 L 66.0 183.0 L 66.0 183.0 L 66.0 183.0 L 66.0 183.0 L 67.0 184.0 L 67.0 184.0 L 67.0 184.0 L 68.0 185.0 L 68.0 185.0 L 69.0 186.0 L 69.0 186.0 L 70.0 187.0 L 71.0 188.0 L 72.0 188.0 L 73.0 189.0 L 74.0 191.0 L 76.0 192.0 L 78.0 193.0 L 79.0 194.0 L 81.0 196.0 L 83.0 197.0 L 85.0 198.0 L 87.0 199.0 L 89.0 200.0 L 91.0 202.0 L 93.0 203.0 L 96.0 204.0 L 98.0 205.0 L 100.0 206.0 L 102.0 207.0 L 104.0 209.0 L 105.0 210.0 L 107.0 211.0 L 108.0 213.0 L 110.0 214.0 L 111.0 215.0 L 113.0 217.0 L 115.0 218.0 L 116.0 220.0 L 118.0 222.0 L 120.0 223.0 L 121.0 225.0 L 122.0 226.0 L 122.0 227.0 L 123.0 228.0 L 123.0 228.0 L 123.0 228.0 L 122.0 228.0 L 121.0 225.0 " stroke="black" fill="none" stroke-width="5.0" stroke-linecap="round" stroke-linejoin="round" />
<path d="M 112.0 106.0 L 112.0 106.0 L 112.0 105.0 L 112.0 104.0 L 112.0 104.0 L 113.0 103.0 L 113.0 102.0 L 113.0 102.0 L 113.0 102.0 L 113.0 102.0 L 113.0 101.0 L 113.0 101.0 L 113.0 101.0 L 113.0 101.0 L 113.0 102.0 L 113.0 103.0 L 113.0 104.0 L 113.0 105.0 L 113.0 107.0 L 113.0 109.0 L 113.0 111.0 L 113.0 113.0 L 113.0 114.0 L 113.0 116.0 L 113.0 119.0 L 113.0 121.0 L 113.0 123.0 L 113.0 126.0 L 113.0 128.0 L 113.0 130.0 L 113.0 132.0 L 113.0 134.0 L 113.0 136.0 L 113.0 138.0 L 113.0 140.0 L 113.0 142.0 L 112.0 144.0 L 112.0 146.0 L 112.0 148.0 L 112.0 150.0 L 112.0 152.0 L 111.0 153.0 L 111.0 155.0 L 111.0 157.0 L 111.0 158.0 L 110.0 159.0 L 110.0 161.0 L 110.0 162.0 L 110.0 163.0 L 110.0 164.0 L 109.0 165.0 L 109.0 167.0 L 109.0 168.0 L 109.0 169.0 L 108.0 170.0 L 108.0 171.0 L 108.0 173.0 L 108.0 174.0 L 107.0 175.0 L 107.0 176.0 L 107.0 178.0 L 107.0 179.0 L 107.0 180.0 L 106.0 182.0 L 106.0 183.0 L 106.0 184.0 L 105.0 186.0 L 105.0 188.0 L 105.0 189.0 L 105.0 190.0 L 104.0 192.0 L 104.0 193.0 L 104.0 194.0 L 103.0 195.0 L 103.0 196.0 L 103.0 198.0 L 102.0 199.0 L 102.0 200.0 L 101.0 201.0 L 101.0 202.0 L 100.0 203.0 L 100.0 204.0 L 99.0 205.0 L 99.0 206.0 L 98.0 207.0 L 98.0 208.0 L 97.0 209.0 L 96.0 210.0 L 96.0 211.0 L 95.0 212.0 L 95.0 213.0 L 94.0 214.0 L 93.0 215.0 L 93.0 216.0 L 92.0 217.0 L 91.0 219.0 L 90.0 220.0 L 89.0 222.0 L 89.0 223.0 L 87.0 225.0 L 87.0 227.0 L 86.0 228.0 L 85.0 230.0 L 84.0 231.0 L 83.0 233.0 L 82.0 235.0 L 81.0 236.0 L 80.0 237.0 L 78.0 239.0 L 77.0 240.0 L 76.0 241.0 L 75.0 242.0 L 74.0 243.0 L 73.0 245.0 L 71.0 246.0 L 70.0 247.0 L 68.0 248.0 L 67.0 249.0 " stroke="black" fill="none" stroke-width="5.0" stroke-linecap="round" stroke-linejoin="round" />
<path d="M 64.0 121.0 L 64.0 121.0 L 64.0 121.0 L 64.0 121.0 L 64.0 121.0 L 64.0 121.0 L 64.0 121.0 L 64.0 121.0 L 64.0 121.0 L 64.0 121.0 L 64.0 121.0 L 64.0 121.0 L 64.0 121.0 L 64.0 121.0 L 64.0 121.0 L 64.0 121.0 L 65.0 121.0 L 66.0 121.0 L 67.0 121.0 L 68.0 121.0 L 69.0 121.0 L 71.0 121.0 L 73.0 121.0 L 75.0 121.0 L 77.0 121.0 L 79.0 122.0 L 81.0 122.0 L 83.0 122.0 L 85.0 122.0 L 87.0 122.0 L 88.0 122.0 L 90.0 122.0 L 92.0 122.0 L 93.0 122.0 L 95.0 122.0 L 96.0 122.0 L 98.0 122.0 L 99.0 122.0 L 100.0 122.0 L 101.0 122.0 L 103.0 122.0 L 104.0 122.0 L 105.0 122.0 L 106.0 122.0 L 107.0 122.0 L 109.0 122.0 L 110.0 122.0 L 111.0 121.0 L 112.0 121.0 L 113.0 121.0 L 114.0 121.0 L 116.0 120.0 L 117.0 120.0 L 119.0 120.0 L 120.0 119.0 L 122.0 119.0 L 123.0 119.0 L 125.0 118.0 L 126.0 118.0 L 127.0 118.0 L 128.0 118.0 L 128.0 118.0 " stroke="black" fill="none" stroke-width="5.0" stroke-linecap="round" stroke-linejoin="round" />
<path d="M 149.0 84.0 L 149.0 84.0 L 149.0 85.0 L 149.0 86.0 L 149.0 87.0 L 149.0 89.0 L 149.0 91.0 L 149.0 95.0 L 149.0 100.0 L 149.0 105.0 L 150.0 110.0 L 150.0 114.0 L 150.0 118.0 L 150.0 120.0 L 150.0 122.0 L 150.0 122.0 L 150.0 122.0 " stroke="black" fill="none" stroke-width="5.0" stroke-linecap="round" stroke-linejoin="round" />
<path d="M 152.0 84.0 L 152.0 84.0 L 152.0 84.0 L 152.0 84.0 L 151.0 84.0 L 151.0 84.0 L 151.0 84.0 L 150.0 84.0 L 150.0 84.0 L 150.0 84.0 L 150.0 84.0 L 150.0 84.0 L 150.0 84.0 L 150.0 84.0 L 150.0 84.0 L 150.0 84.0 L 151.0 84.0 L 152.0 84.0 L 153.0 84.0 L 154.0 84.0 L 155.0 84.0 L 156.0 84.0 L 157.0 84.0 L 158.0 84.0 L 160.0 84.0 L 162.0 84.0 L 163.0 84.0 L 165.0 84.0 L 166.0 83.0 L 168.0 83.0 L 170.0 83.0 L 171.0 83.0 L 173.0 83.0 L 175.0 83.0 L 177.0 83.0 L 178.0 83.0 L 180.0 82.0 L 181.0 82.0 L 183.0 82.0 L 184.0 82.0 L 185.0 82.0 L 187.0 82.0 L 188.0 82.0 L 189.0 82.0 L 190.0 82.0 L 191.0 82.0 L 192.0 82.0 L 193.0 82.0 L 193.0 82.0 L 194.0 81.0 L 195.0 81.0 L 196.0 81.0 L 197.0 81.0 L 197.0 81.0 L 198.0 81.0 L 199.0 81.0 L 200.0 81.0 L 201.0 81.0 L 201.0 81.0 L 202.0 81.0 L 203.0 81.0 L 204.0 81.0 L 205.0 81.0 L 206.0 81.0 L 207.0 81.0 L 209.0 81.0 L 210.0 81.0 L 211.0 81.0 L 212.0 81.0 L 213.0 81.0 L 215.0 81.0 L 216.0 81.0 L 217.0 81.0 L 218.0 82.0 L 220.0 82.0 L 221.0 82.0 L 222.0 82.0 L 223.0 82.0 L 223.0 82.0 L 224.0 82.0 L 224.0 82.0 L 224.0 82.0 L 225.0 82.0 L 225.0 82.0 L 225.0 82.0 L 225.0 83.0 L 225.0 83.0 L 225.0 84.0 L 225.0 85.0 L 225.0 86.0 L 225.0 88.0 L 225.0 91.0 L 225.0 94.0 L 225.0 98.0 L 224.0 102.0 L 224.0 106.0 L 224.0 110.0 L 223.0 114.0 L 223.0 117.0 L 223.0 119.0 L 223.0 121.0 L 223.0 122.0 L 223.0 123.0 L 223.0 123.0 L 222.0 123.0 " stroke="black" fill="none" stroke-width="5.0" stroke-linecap="round" stroke-linejoin="round" />
<path d="M 150.0 121.0 L 150.0 121.0 L 150.0 121.0 L 150.0 121.0 L 150.0 121.0 L 150.0 121.0 L 150.0 121.0 L 150.0 121.0 L 150.0 121.0 L 150.0 121.0 L 151.0 121.0 L 152.0 121.0 L 154.0 121.0 L 157.0 121.0 L 161.0 121.0 L 167.0 121.0 L 173.0 121.0 L 180.0 121.0 L 186.0 121.0 L 191.0 120.0 L 195.0 120.0 L 198.0 119.0 L 201.0 118.0 L 203.0 118.0 L 205.0 117.0 L 207.0 117.0 L 208.0 117.0 L 210.0 117.0 L 211.0 117.0 L 212.0 118.0 L 214.0 118.0 L 215.0 118.0 L 216.0 118.0 " stroke="black" fill="none" stroke-width="5.0" stroke-linecap="round" stroke-linejoin="round" />
<path d="M 148.0 147.0 L 148.0 147.0 L 148.0 147.0 L 148.0 147.0 L 148.0 147.0 L 148.0 147.0 L 148.0 148.0 L 148.0 148.0 L 148.0 148.0 L 148.0 149.0 L 148.0 149.0 L 148.0 151.0 L 148.0 152.0 L 148.0 154.0 L 148.0 157.0 L 149.0 160.0 L 149.0 163.0 L 149.0 166.0 L 149.0 169.0 L 150.0 173.0 L 150.0 176.0 L 150.0 179.0 L 150.0 183.0 L 150.0 186.0 L 150.0 189.0 L 149.0 193.0 L 149.0 196.0 L 149.0 200.0 L 148.0 203.0 L 147.0 206.0 L 146.0 210.0 L 146.0 214.0 L 145.0 218.0 L 143.0 222.0 L 142.0 227.0 L 140.0 231.0 L 138.0 234.0 L 137.0 237.0 L 136.0 238.0 L 136.0 238.0 " stroke="black" fill="none" stroke-width="5.0" stroke-linecap="round" stroke-linejoin="round" />
<path d="M 154.0 149.0 L 154.0 149.0 L 154.0 149.0 L 154.0 149.0 L 154.0 149.0 L 154.0 149.0 L 154.0 149.0 L 154.0 150.0 L 154.0 150.0 L 154.0 150.0 L 154.0 150.0 L 154.0 150.0 L 154.0 150.0 L 154.0 150.0 L 154.0 150.0 L 154.0 150.0 L 155.0 150.0 L 155.0 150.0 L 156.0 149.0 L 157.0 149.0 L 159.0 149.0 L 160.0 148.0 L 162.0 148.0 L 164.0 147.0 L 166.0 147.0 L 168.0 147.0 L 170.0 146.0 L 172.0 146.0 L 174.0 146.0 L 177.0 145.0 L 179.0 145.0 L 181.0 145.0 L 184.0 145.0 L 186.0 144.0 L 188.0 144.0 L 190.0 143.0 L 192.0 143.0 L 193.0 143.0 L 194.0 143.0 L 195.0 143.0 L 196.0 142.0 L 196.0 142.0 L 197.0 142.0 L 198.0 142.0 L 199.0 142.0 L 199.0 142.0 L 200.0 142.0 L 202.0 142.0 L 203.0 142.0 L 204.0 142.0 L 205.0 142.0 L 206.0 142.0 L 208.0 143.0 L 209.0 143.0 L 210.0 143.0 L 212.0 143.0 L 213.0 143.0 L 214.0 144.0 L 216.0 144.0 L 217.0 144.0 L 219.0 144.0 L 220.0 144.0 L 222.0 144.0 L 223.0 144.0 L 224.0 144.0 L 225.0 145.0 L 226.0 145.0 L 227.0 145.0 L 228.0 145.0 L 229.0 145.0 L 229.0 146.0 L 229.0 146.0 L 230.0 146.0 L 230.0 147.0 L 230.0 148.0 L 230.0 149.0 L 230.0 150.0 L 230.0 152.0 L 230.0 155.0 L 230.0 157.0 L 230.0 161.0 L 230.0 164.0 L 230.0 168.0 L 230.0 172.0 L 230.0 176.0 L 230.0 179.0 L 229.0 184.0 L 229.0 188.0 L 229.0 191.0 L 228.0 195.0 L 228.0 198.0 L 228.0 202.0 L 227.0 205.0 L 227.0 208.0 L 227.0 211.0 L 227.0 215.0 L 226.0 218.0 L 226.0 221.0 L 226.0 224.0 L 225.0 227.0 L 225.0 229.0 L 225.0 232.0 L 225.0 233.0 L 224.0 235.0 L 224.0 236.0 L 224.0 237.0 L 223.0 238.0 L 223.0 239.0 L 223.0 239.0 L 223.0 240.0 L 222.0 241.0 L 222.0 242.0 L 221.0 243.0 L 221.0 244.0 L 221.0 245.0 L 221.0 246.0 L 220.0 247.0 L 220.0 247.0 L 220.0 248.0 L 219.0 248.0 L 219.0 248.0 L 218.0 249.0 L 217.0 249.0 L 216.0 249.0 L 215.0 249.0 L 214.0 249.0 L 212.0 249.0 L 210.0 248.0 L 207.0 247.0 L 204.0 246.0 L 201.0 244.0 L 198.0 241.0 L 195.0 239.0 " stroke="black" fill="none" stroke-width="5.0" stroke-linecap="round" stroke-linejoin="round" />
<path d="M 172.0 170.0 L 172.0 170.0 L 172.0 170.0 L 172.0 170.0 L 172.0 170.0 L 172.0 170.0 L 172.0 170.0 L 172.0 170.0 L 172.0 170.0 L 173.0 170.0 L 174.0 170.0 L 177.0 171.0 L 180.0 173.0 L 184.0 174.0 L 188.0 176.0 L 193.0 177.0 L 197.0 179.0 L 202.0 181.0 L 205.0 183.0 L 209.0 184.0 L 212.0 186.0 L 215.0 188.0 L 217.0 190.0 L 217.0 193.0 L 217.0 194.0 " stroke="black" fill="none" stroke-width="5.0" stroke-linecap="round" stroke-linejoin="round" />
<path d="M 158.0 211.0 L 158.0 211.0 L 158.0 211.0 L 158.0 211.0 L 158.0 211.0 L 158.0 211.0 L 158.0 211.0 L 158.0 211.0 L 159.0 210.0 L 160.0 210.0 L 162.0 210.0 L 165.0 209.0 L 169.0 209.0 L 174.0 208.0 L 180.0 207.0 L 186.0 206.0 L 192.0 204.0 L 197.0 203.0 L 202.0 201.0 L 207.0 199.0 L 212.0 197.0 L 216.0 196.0 L 219.0 195.0 L 222.0 195.0 L 224.0 195.0 L 225.0 195.0 L 225.0 195.0 " stroke="black" fill="none" stroke-width="5.0" stroke-linecap="round" stroke-linejoin="round" />
</svg>