<svg xmlns="http://www.w3.org/2000/svg" width="300" height="300" viewBox="0 0 300 300">
<path d="M 81.0 78.0 L 81.0 78.0 L 81.0 78.0 L 80.0 78.0 L 80.0 78.0 L 80.0 78.0 L 80.0 78.0 L 80.0 78.0 L 80.0 78.0 L 80.0 79.0 L 80.0 79.0 L 80.0 80.0 L 81.0 81.0 L 81.0 82.0 L 81.0 84.0 L 82.0 85.0 L 82.0 87.0 L 82.0 89.0 L 82.0 91.0 L 82.0 94.0 L 82.0 96.0 L 82.0 98.0 L 82.0 101.0 L 82.0 103.0 L 82.0 105.0 L 81.0 107.0 L 81.0 109.0 L 81.0 111.0 L 80.0 113.0 L 80.0 115.0 L 79.0 117.0 L 79.0 118.0 L 78.0 120.0 L 78.0 122.0 L 78.0 124.0 L 77.0 125.0 L 77.0 127.0 L 76.0 129.0 L 76.0 131.0 L 75.0 134.0 L 75.0 136.0 L 74.0 138.0 L 73.0 141.0 L 73.0 143.0 L 72.0 146.0 L 71.0 148.0 L 71.0 150.0 L 70.0 152.0 L 69.0 154.0 L 69.0 156.0 L 68.0 159.0 L 67.0 161.0 L 66.0 163.0 L 66.0 165.0 L 65.0 167.0 L 64.0 168.0 L 64.0 170.0 L 63.0 171.0 L 63.0 173.0 L 62.0 174.0 L 62.0 175.0 L 61.0 176.0 L 61.0 177.0 L 60.0 178.0 L 60.0 180.0 L 59.0 180.0 L 58.0 182.0 L 58.0 182.0 L 57.0 183.0 L 57.0 184.0 L 57.0 184.0 L 57.0 184.0 L 57.0 184.0 L 57.0 184.0 L 57.0 184.0 L 57.0 184.0 L 57.0 184.0 L 57.0 184.0 L 57.0 184.0 L 57.0 184.0 L 57.0 184.0 L 57.0 184.0 L 57.0 184.0 L 57.0 184.0 L 57.0 184.0 L 57.0 184.0 L 58.0 184.0 L 58.0 184.0 L 58.0 184.0 L 58.0 184.0 L 59.0 184.0 L 59.0 184.0 L 60.0 184.0 L 61.0 185.0 L 61.0 186.0 L 62.0 186.0 L 64.0 188.0 L 66.0 189.0 L 68.0 191.0 L 71.0 194.0 L 75.0 196.0 L 80.0 199.0 L 87.0 202.0 L 92.0 204.0 L 98.0 206.0 L 103.0 208.0 L 106.0 210.0 L 108.0 212.0 L 110.0 214.0 L 112.0 216.0 L 112.0 218.0 L 113.0 221.0 L 114.0 223.0 L 114.0 223.0 L 114.0 224.0 L 113.0 224.0 " stroke="black" fill="none" stroke-width="5.0" stroke-linecap="round" stroke-linejoin="round" />
<path d="M 103.0 105.0 L 103.0 105.0 L 103.0 105.0 L 103.0 105.0 L 103.0 105.0 L 103.0 105.0 L 103.0 105.0 L 104.0 105.0 L 104.0 106.0 L 104.0 107.0 L 104.0 108.0 L 105.0 110.0 L 105.0 113.0 L 105.0 116.0 L 105.0 120.0 L 105.0 125.0 L 105.0 129.0 L 105.0 135.0 L 105.0 139.0 L 104.0 144.0 L 104.0 150.0 L 103.0 154.0 L 103.0 159.0 L 101.0 163.0 L 101.0 168.0 L 100.0 172.0 L 99.0 176.0 L 98.0 180.0 L 97.0 184.0 L 96.0 189.0 L 96.0 193.0 L 94.0 198.0 L 93.0 203.0 L 90.0 208.0 L 87.0 214.0 L 84.0 220.0 L 80.0 226.0 L 75.0 231.0 L 71.0 236.0 L 67.0 240.0 L 64.0 242.0 L 61.0 245.0 L 59.0 246.0 " stroke="black" fill="none" stroke-width="5.0" stroke-linecap="round" stroke-linejoin="round" />
<path d="M 57.0 128.0 L 57.0 128.0 L 55.0 128.0 L 55.0 128.0 L 54.0 128.0 L 54.0 128.0 L 54.0 128.0 L 55.0 128.0 L 57.0 127.0 L 60.0 127.0 L 65.0 125.0 L 72.0 124.0 L 80.0 123.0 L 89.0 122.0 L 99.0 120.0 L 107.0 119.0 L 112.0 119.0 L 117.0 119.0 " stroke="black" fill="none" stroke-width="5.0" stroke-linecap="round" stroke-linejoin="round" />
<path d="M 133.0 85.0 L 133.0 85.0 L 133.0 85.0 L 132.0 85.0 L 132.0 85.0 L 131.0 84.0 L 131.0 84.0 L 131.0 84.0 L 131.0 84.0 L 132.0 83.0 L 134.0 83.0 L 136.0 83.0 L 138.0 83.0 L 141.0 83.0 L 143.0 83.0 L 146.0 84.0 L 149.0 84.0 L 152.0 85.0 L 154.0 86.0 L 156.0 87.0 L 158.0 89.0 L 159.0 90.0 L 159.0 92.0 L 159.0 94.0 L 159.0 97.0 L 158.0 100.0 L 156.0 102.0 L 154.0 105.0 L 152.0 108.0 L 150.0 110.0 L 148.0 112.0 L 146.0 114.0 L 144.0 115.0 L 143.0 116.0 L 142.0 117.0 L 141.0 118.0 L 141.0 118.0 L 141.0 119.0 L 141.0 119.0 L 142.0 120.0 L 143.0 121.0 L 144.0 121.0 L 145.0 122.0 L 146.0 123.0 L 147.0 124.0 L 148.0 125.0 L 150.0 127.0 L 151.0 129.0 L 152.0 131.0 L 153.0 134.0 L 154.0 136.0 L 155.0 140.0 L 156.0 144.0 L 157.0 148.0 L 157.0 152.0 L 158.0 158.0 L 158.0 163.0 L 158.0 169.0 L 158.0 176.0 L 157.0 183.0 L 155.0 189.0 L 154.0 195.0 L 152.0 198.0 L 150.0 201.0 L 149.0 202.0 L 147.0 203.0 L 145.0 203.0 L 143.0 202.0 L 141.0 201.0 L 140.0 199.0 L 139.0 196.0 " stroke="black" fill="none" stroke-width="5.0" stroke-linecap="round" stroke-linejoin="round" />
<path d="M 126.0 93.0 L 126.0 93.0 L 126.0 93.0 L 126.0 93.0 L 126.0 93.0 L 125.0 95.0 L 125.0 98.0 L 125.0 102.0 L 125.0 107.0 L 126.0 113.0 L 126.0 120.0 L 127.0 127.0 L 127.0 137.0 L 127.0 148.0 L 127.0 158.0 L 126.0 169.0 L 125.0 182.0 L 124.0 195.0 L 123.0 207.0 L 123.0 220.0 L 123.0 230.0 L 123.0 239.0 L 124.0 247.0 L 125.0 251.0 L 126.0 254.0 L 126.0 256.0 L 126.0 256.0 " stroke="black" fill="none" stroke-width="5.0" stroke-linecap="round" stroke-linejoin="round" />
<path d="M 186.0 79.0 L 186.0 79.0 L 184.0 79.0 L 183.0 79.0 L 182.0 78.0 L 181.0 78.0 L 180.0 78.0 L 179.0 77.0 L 179.0 77.0 L 179.0 77.0 L 179.0 77.0 L 179.0 77.0 L 181.0 77.0 L 183.0 77.0 L 185.0 77.0 L 188.0 78.0 L 191.0 78.0 L 194.0 79.0 L 198.0 79.0 L 203.0 79.0 L 209.0 79.0 L 216.0 79.0 L 223.0 79.0 L 229.0 78.0 L 234.0 78.0 L 239.0 78.0 L 241.0 79.0 L 243.0 80.0 L 244.0 81.0 L 244.0 82.0 L 244.0 84.0 " stroke="black" fill="none" stroke-width="5.0" stroke-linecap="round" stroke-linejoin="round" />
<path d="M 183.0 127.0 L 183.0 127.0 L 183.0 127.0 L 183.0 126.0 L 183.0 126.0 L 183.0 126.0 L 183.0 125.0 L 183.0 125.0 L 183.0 125.0 L 183.0 127.0 L 183.0 129.0 L 183.0 133.0 L 183.0 139.0 L 183.0 145.0 L 182.0 153.0 L 182.0 160.0 L 182.0 168.0 L 181.0 178.0 L 181.0 186.0 L 181.0 194.0 L 181.0 200.0 L 181.0 204.0 L 181.0 205.0 L 181.0 205.0 L 181.0 204.0 " stroke="black" fill="none" stroke-width="5.0" stroke-linecap="round" stroke-linejoin="round" />
<path d="M 185.0 125.0 L 185.0 125.0 L 184.0 125.0 L 184.0 124.0 L 184.0 124.0 L 184.0 123.0 L 184.0 123.0 L 185.0 123.0 L 186.0 122.0 L 188.0 122.0 L 190.0 122.0 L 193.0 122.0 L 195.0 122.0 L 197.0 122.0 L 200.0 122.0 L 202.0 123.0 L 204.0 123.0 L 206.0 124.0 L 207.0 125.0 L 208.0 127.0 L 209.0 129.0 L 209.0 132.0 L 209.0 136.0 L 209.0 142.0 L 208.0 148.0 L 207.0 155.0 L 206.0 163.0 L 204.0 171.0 L 204.0 178.0 L 203.0 185.0 L 203.0 190.0 L 203.0 193.0 L 203.0 195.0 L 204.0 196.0 L 204.0 196.0 " stroke="black" fill="none" stroke-width="5.0" stroke-linecap="round" stroke-linejoin="round" />
<path d="M 184.0 202.0 L 182.0 202.0 L 180.0 202.0 L 179.0 202.0 L 178.0 202.0 L 178.0 203.0 L 178.0 203.0 L 180.0 203.0 L 184.0 203.0 L 187.0 202.0 L 191.0 201.0 L 195.0 200.0 L 199.0 198.0 L 203.0 197.0 L 205.0 196.0 " stroke="black" fill="none" stroke-width="5.0" stroke-linecap="round" stroke-linejoin="round" />
<path d="M 230.0 87.0 L 230.0 87.0 L 230.0 87.0 L 230.0 87.0 L 230.0 87.0 L 230.0 87.0 L 230.0 87.0 L 230.0 87.0 L 230.0 88.0 L 230.0 89.0 L 230.0 91.0 L 230.0 93.0 L 230.0 96.0 L 230.0 100.0 L 230.0 104.0 L 231.0 109.0 L 231.0 114.0 L 232.0 119.0 L 232.0 124.0 L 232.0 130.0 L 232.0 136.0 L 233.0 141.0 L 233.0 146.0 L 233.0 151.0 L 233.0 155.0 L 233.0 159.0 L 233.0 163.0 L 232.0 166.0 L 232.0 170.0 L 232.0 174.0 L 232.0 178.0 L 232.0 182.0 L 232.0 186.0 L 232.0 190.0 L 232.0 194.0 L 232.0 198.0 L 232.0 201.0 L 232.0 204.0 L 231.0 208.0 L 231.0 211.0 L 231.0 214.0 L 231.0 217.0 L 231.0 219.0 L 231.0 222.0 L 231.0 225.0 L 231.0 228.0 L 231.0 231.0 L 231.0 234.0 L 231.0 236.0 L 231.0 238.0 L 230.0 241.0 L 230.0 243.0 L 230.0 244.0 L 229.0 246.0 L 229.0 247.0 L 229.0 248.0 L 228.0 249.0 L 228.0 250.0 L 227.0 250.0 L 227.0 251.0 L 226.0 252.0 L 226.0 252.0 L 225.0 253.0 L 224.0 253.0 L 223.0 253.0 L 221.0 253.0 L 218.0 253.0 L 215.0 252.0 L 211.0 251.0 L 207.0 248.0 L 203.0 246.0 L 200.0 243.0 L 198.0 240.0 " stroke="black" fill="none" stroke-width="5.0" stroke-linecap="round" stroke-linejoin="round" />
</svg>