<svg xmlns="http://www.w3.org/2000/svg" width="300" height="300" viewBox="0 0 300 300">
<path d="M 110.0 80.0 L 110.0 80.0 L 110.0 80.0 L 110.0 80.0 L 109.0 80.0 L 109.0 80.0 L 109.0 80.0 L 108.0 80.0 L 108.0 80.0 L 108.0 80.0 L 108.0 80.0 L 108.0 80.0 L 108.0 80.0 L 108.0 80.0 L 108.0 80.0 L 108.0 80.0 L 109.0 80.0 L 109.0 80.0 L 110.0 80.0 L 111.0 80.0 L 112.0 80.0 L 114.0 81.0 L 115.0 81.0 L 117.0 81.0 L 119.0 81.0 L 121.0 81.0 L 123.0 81.0 L 125.0 81.0 L 127.0 81.0 L 129.0 81.0 L 131.0 81.0 L 133.0 81.0 L 135.0 81.0 L 137.0 81.0 L 138.0 81.0 L 140.0 81.0 L 141.0 81.0 L 143.0 81.0 L 144.0 81.0 L 146.0 81.0 L 147.0 80.0 L 148.0 80.0 L 149.0 80.0 L 149.0 80.0 L 150.0 80.0 L 151.0 80.0 L 151.0 80.0 L 152.0 80.0 L 153.0 80.0 L 153.0 80.0 L 154.0 80.0 L 155.0 80.0 L 155.0 80.0 L 156.0 80.0 L 156.0 80.0 L 157.0 80.0 L 158.0 80.0 L 158.0 80.0 L 159.0 80.0 L 160.0 80.0 L 160.0 80.0 L 161.0 80.0 L 162.0 80.0 L 162.0 80.0 L 163.0 80.0 L 164.0 80.0 L 165.0 80.0 L 166.0 80.0 L 167.0 80.0 L 168.0 80.0 L 169.0 80.0 L 169.0 80.0 L 170.0 80.0 L 171.0 80.0 L 173.0 80.0 L 174.0 80.0 L 175.0 80.0 L 176.0 80.0 L 178.0 80.0 L 179.0 80.0 L 180.0 80.0 L 182.0 80.0 L 183.0 81.0 L 184.0 81.0 L 186.0 81.0 L 187.0 81.0 L 188.0 81.0 L 189.0 81.0 L 190.0 81.0 L 191.0 81.0 L 192.0 81.0 L 193.0 81.0 L 194.0 81.0 L 195.0 82.0 L 196.0 82.0 L 196.0 82.0 L 197.0 82.0 L 197.0 82.0 L 198.0 82.0 L 198.0 82.0 L 198.0 82.0 L 198.0 82.0 L 198.0 83.0 L 198.0 83.0 L 198.0 83.0 L 198.0 84.0 L 197.0 84.0 L 197.0 85.0 L 196.0 85.0 L 195.0 86.0 L 194.0 87.0 L 192.0 88.0 L 191.0 90.0 L 189.0 91.0 L 187.0 92.0 L 185.0 94.0 L 183.0 96.0 L 180.0 98.0 L 176.0 100.0 L 172.0 102.0 L 168.0 105.0 L 164.0 106.0 L 160.0 108.0 L 156.0 109.0 L 154.0 109.0 L 152.0 110.0 L 150.0 110.0 L 150.0 110.0 L 149.0 110.0 L 149.0 110.0 L 149.0 110.0 L 149.0 110.0 L 149.0 110.0 L 149.0 110.0 L 149.0 110.0 L 150.0 110.0 L 150.0 110.0 L 151.0 111.0 L 152.0 111.0 L 152.0 111.0 L 153.0 112.0 L 154.0 113.0 L 155.0 114.0 L 155.0 115.0 L 156.0 116.0 L 156.0 117.0 L 156.0 118.0 L 157.0 120.0 L 157.0 121.0 L 157.0 123.0 L 157.0 125.0 L 157.0 127.0 L 157.0 130.0 L 157.0 133.0 L 156.0 136.0 L 156.0 139.0 L 155.0 142.0 L 154.0 144.0 L 154.0 147.0 L 153.0 149.0 L 153.0 151.0 L 152.0 152.0 L 152.0 154.0 L 151.0 156.0 L 151.0 157.0 L 150.0 158.0 L 149.0 160.0 L 149.0 161.0 L 148.0 162.0 L 148.0 163.0 L 147.0 164.0 L 146.0 165.0 L 146.0 166.0 L 145.0 167.0 L 145.0 167.0 L 144.0 168.0 L 143.0 168.0 L 142.0 168.0 L 141.0 168.0 L 140.0 168.0 L 138.0 168.0 L 136.0 167.0 L 134.0 166.0 L 132.0 164.0 L 129.0 162.0 L 126.0 159.0 L 123.0 157.0 " stroke="black" fill="none" stroke-width="5.0" stroke-linecap="round" stroke-linejoin="round" />
<path d="M 82.0 123.0 L 82.0 123.0 L 82.0 123.0 L 82.0 123.0 L 82.0 123.0 L 82.0 123.0 L 82.0 123.0 L 82.0 123.0 L 82.0 123.0 L 83.0 122.0 L 84.0 122.0 L 85.0 122.0 L 86.0 122.0 L 88.0 122.0 L 90.0 123.0 L 92.0 123.0 L 94.0 124.0 L 97.0 125.0 L 100.0 126.0 L 103.0 126.0 L 106.0 126.0 L 109.0 126.0 L 111.0 126.0 L 114.0 126.0 L 116.0 126.0 L 118.0 126.0 L 120.0 126.0 L 122.0 126.0 L 124.0 126.0 L 126.0 126.0 L 128.0 126.0 L 130.0 126.0 L 132.0 125.0 L 134.0 125.0 L 136.0 125.0 L 138.0 125.0 L 140.0 125.0 L 142.0 124.0 L 143.0 124.0 L 144.0 124.0 L 145.0 124.0 L 147.0 124.0 L 148.0 124.0 L 149.0 124.0 L 150.0 124.0 L 150.0 124.0 L 151.0 124.0 L 152.0 125.0 L 153.0 125.0 L 154.0 125.0 L 156.0 125.0 L 157.0 125.0 L 158.0 125.0 L 159.0 125.0 L 160.0 125.0 L 162.0 125.0 L 163.0 125.0 L 165.0 125.0 L 166.0 126.0 L 168.0 126.0 L 170.0 126.0 L 171.0 126.0 L 173.0 126.0 L 175.0 127.0 L 177.0 127.0 L 179.0 127.0 L 182.0 127.0 L 184.0 127.0 L 186.0 127.0 L 188.0 127.0 L 190.0 127.0 L 192.0 127.0 L 194.0 127.0 L 196.0 127.0 L 198.0 127.0 L 201.0 127.0 L 203.0 127.0 L 205.0 127.0 L 208.0 127.0 L 211.0 127.0 L 214.0 128.0 L 218.0 128.0 L 221.0 128.0 L 224.0 128.0 L 226.0 129.0 L 227.0 130.0 L 228.0 131.0 " stroke="black" fill="none" stroke-width="5.0" stroke-linecap="round" stroke-linejoin="round" />
<path d="M 89.0 191.0 L 89.0 191.0 L 89.0 192.0 L 89.0 193.0 L 89.0 195.0 L 89.0 197.0 L 90.0 201.0 L 90.0 206.0 L 91.0 211.0 L 91.0 218.0 L 92.0 224.0 L 92.0 229.0 L 92.0 234.0 L 92.0 236.0 L 92.0 236.0 L 92.0 236.0 L 92.0 232.0 L 94.0 226.0 L 94.0 223.0 " stroke="black" fill="none" stroke-width="5.0" stroke-linecap="round" stroke-linejoin="round" />
<path d="M 96.0 194.0 L 96.0 194.0 L 95.0 194.0 L 95.0 193.0 L 95.0 193.0 L 94.0 193.0 L 94.0 193.0 L 94.0 193.0 L 95.0 192.0 L 96.0 192.0 L 98.0 192.0 L 99.0 192.0 L 101.0 192.0 L 103.0 192.0 L 104.0 192.0 L 106.0 192.0 L 108.0 192.0 L 109.0 192.0 L 111.0 192.0 L 113.0 192.0 L 115.0 192.0 L 118.0 192.0 L 121.0 192.0 L 124.0 192.0 L 127.0 192.0 L 130.0 192.0 L 133.0 192.0 L 136.0 192.0 L 139.0 192.0 L 141.0 192.0 L 143.0 192.0 L 145.0 192.0 L 148.0 192.0 L 149.0 192.0 L 151.0 192.0 L 153.0 192.0 L 154.0 192.0 L 155.0 191.0 L 157.0 191.0 L 158.0 191.0 L 160.0 191.0 L 161.0 191.0 L 163.0 191.0 L 164.0 191.0 L 166.0 191.0 L 169.0 190.0 L 171.0 190.0 L 174.0 190.0 L 176.0 190.0 L 178.0 190.0 L 181.0 189.0 L 183.0 189.0 L 185.0 189.0 L 186.0 189.0 L 188.0 189.0 L 189.0 189.0 L 191.0 189.0 L 192.0 189.0 L 193.0 189.0 L 194.0 189.0 L 195.0 189.0 L 197.0 189.0 L 198.0 189.0 L 199.0 189.0 L 200.0 189.0 L 202.0 189.0 L 203.0 189.0 L 204.0 189.0 L 205.0 189.0 L 206.0 189.0 L 207.0 189.0 L 208.0 190.0 L 209.0 190.0 L 209.0 190.0 L 210.0 190.0 L 210.0 191.0 L 210.0 191.0 L 211.0 191.0 L 211.0 192.0 L 211.0 193.0 L 211.0 193.0 L 211.0 194.0 L 211.0 195.0 L 211.0 196.0 L 210.0 197.0 L 210.0 198.0 L 209.0 200.0 L 209.0 202.0 L 208.0 206.0 L 207.0 209.0 L 207.0 214.0 L 206.0 218.0 L 206.0 223.0 L 205.0 227.0 L 205.0 230.0 L 204.0 233.0 L 204.0 235.0 L 203.0 235.0 L 202.0 235.0 " stroke="black" fill="none" stroke-width="5.0" stroke-linecap="round" stroke-linejoin="round" />
<path d="M 129.0 195.0 L 129.0 195.0 L 128.0 195.0 L 128.0 195.0 L 128.0 195.0 L 128.0 197.0 L 128.0 199.0 L 128.0 201.0 L 129.0 204.0 L 130.0 207.0 L 131.0 210.0 L 132.0 213.0 L 133.0 217.0 L 134.0 221.0 L 134.0 225.0 L 134.0 230.0 L 134.0 234.0 L 134.0 236.0 L 134.0 237.0 L 134.0 238.0 L 135.0 238.0 L 136.0 237.0 L 138.0 234.0 " stroke="black" fill="none" stroke-width="5.0" stroke-linecap="round" stroke-linejoin="round" />
<path d="M 162.0 200.0 L 162.0 200.0 L 162.0 200.0 L 162.0 200.0 L 163.0 200.0 L 164.0 200.0 L 165.0 200.0 L 167.0 200.0 L 169.0 200.0 L 171.0 202.0 L 172.0 203.0 L 173.0 205.0 L 173.0 208.0 L 173.0 213.0 L 171.0 218.0 L 169.0 224.0 L 167.0 230.0 L 165.0 235.0 L 164.0 239.0 L 163.0 241.0 L 162.0 243.0 " stroke="black" fill="none" stroke-width="5.0" stroke-linecap="round" stroke-linejoin="round" />
<path d="M 66.0 243.0 L 66.0 243.0 L 66.0 243.0 L 66.0 243.0 L 66.0 244.0 L 65.0 244.0 L 65.0 244.0 L 65.0 244.0 L 65.0 244.0 L 65.0 244.0 L 65.0 244.0 L 66.0 244.0 L 67.0 244.0 L 69.0 243.0 L 71.0 243.0 L 73.0 242.0 L 74.0 242.0 L 76.0 242.0 L 78.0 241.0 L 80.0 241.0 L 82.0 241.0 L 84.0 241.0 L 86.0 241.0 L 87.0 241.0 L 89.0 241.0 L 91.0 241.0 L 92.0 241.0 L 93.0 241.0 L 95.0 241.0 L 96.0 241.0 L 97.0 241.0 L 98.0 241.0 L 100.0 242.0 L 101.0 242.0 L 102.0 242.0 L 103.0 242.0 L 104.0 242.0 L 106.0 242.0 L 107.0 242.0 L 108.0 242.0 L 109.0 242.0 L 110.0 242.0 L 112.0 242.0 L 113.0 242.0 L 114.0 242.0 L 116.0 242.0 L 118.0 242.0 L 119.0 242.0 L 122.0 242.0 L 124.0 242.0 L 126.0 241.0 L 129.0 241.0 L 132.0 241.0 L 134.0 241.0 L 136.0 240.0 L 138.0 240.0 L 140.0 240.0 L 142.0 240.0 L 143.0 239.0 L 145.0 239.0 L 146.0 239.0 L 147.0 239.0 L 148.0 239.0 L 149.0 239.0 L 150.0 239.0 L 151.0 239.0 L 152.0 239.0 L 153.0 239.0 L 154.0 240.0 L 155.0 240.0 L 156.0 240.0 L 158.0 240.0 L 159.0 240.0 L 161.0 240.0 L 163.0 240.0 L 164.0 240.0 L 166.0 240.0 L 168.0 240.0 L 170.0 240.0 L 173.0 240.0 L 175.0 240.0 L 178.0 240.0 L 181.0 240.0 L 184.0 240.0 L 187.0 240.0 L 190.0 240.0 L 192.0 240.0 L 194.0 240.0 L 196.0 241.0 L 198.0 241.0 L 200.0 242.0 L 202.0 242.0 L 204.0 243.0 L 206.0 243.0 L 209.0 244.0 L 212.0 244.0 L 215.0 244.0 L 220.0 245.0 L 224.0 245.0 L 228.0 245.0 L 232.0 245.0 L 235.0 245.0 L 237.0 244.0 L 238.0 243.0 L 239.0 242.0 L 239.0 242.0 L 240.0 241.0 L 240.0 241.0 L 241.0 241.0 L 241.0 242.0 " stroke="black" fill="none" stroke-width="5.0" stroke-linecap="round" stroke-linejoin="round" />
</svg>