<svg xmlns="http://www.w3.org/2000/svg" width="300" height="300" viewBox="0 0 300 300">
<path d="M 150.0 72.0 L 150.0 72.0 L 149.0 72.0 L 149.0 72.0 L 149.0 72.0 L 149.0 72.0 L 149.0 72.0 L 149.0 73.0 L 149.0 75.0 L 150.0 77.0 L 152.0 79.0 L 154.0 82.0 L 156.0 84.0 L 157.0 87.0 L 158.0 88.0 " stroke="black" fill="none" stroke-width="5.0" stroke-linecap="round" stroke-linejoin="round" />
<path d="M 70.0 92.0 L 70.0 91.0 L 71.0 90.0 L 71.0 89.0 L 71.0 88.0 L 72.0 88.0 L 72.0 87.0 L 72.0 87.0 L 72.0 87.0 L 72.0 89.0 L 72.0 93.0 L 71.0 98.0 L 71.0 103.0 L 70.0 108.0 L 70.0 114.0 L 70.0 117.0 " stroke="black" fill="none" stroke-width="5.0" stroke-linecap="round" stroke-linejoin="round" />
<path d="M 79.0 89.0 L 79.0 89.0 L 78.0 89.0 L 78.0 89.0 L 77.0 89.0 L 77.0 89.0 L 76.0 89.0 L 76.0 89.0 L 76.0 89.0 L 76.0 89.0 L 76.0 89.0 L 76.0 89.0 L 76.0 89.0 L 76.0 89.0 L 77.0 88.0 L 78.0 88.0 L 79.0 88.0 L 81.0 88.0 L 83.0 88.0 L 86.0 88.0 L 89.0 88.0 L 92.0 87.0 L 95.0 87.0 L 99.0 87.0 L 102.0 87.0 L 106.0 87.0 L 108.0 87.0 L 111.0 87.0 L 114.0 87.0 L 116.0 87.0 L 119.0 87.0 L 122.0 87.0 L 125.0 88.0 L 128.0 88.0 L 131.0 89.0 L 134.0 89.0 L 137.0 89.0 L 140.0 90.0 L 143.0 90.0 L 146.0 90.0 L 149.0 90.0 L 151.0 90.0 L 153.0 90.0 L 155.0 90.0 L 156.0 90.0 L 158.0 90.0 L 160.0 90.0 L 162.0 90.0 L 164.0 90.0 L 167.0 91.0 L 169.0 91.0 L 172.0 91.0 L 175.0 91.0 L 178.0 91.0 L 181.0 91.0 L 184.0 91.0 L 187.0 92.0 L 189.0 92.0 L 191.0 92.0 L 193.0 92.0 L 194.0 92.0 L 196.0 92.0 L 197.0 92.0 L 199.0 92.0 L 200.0 92.0 L 202.0 93.0 L 204.0 93.0 L 205.0 93.0 L 207.0 93.0 L 209.0 93.0 L 211.0 93.0 L 212.0 93.0 L 214.0 93.0 L 216.0 94.0 L 217.0 94.0 L 218.0 94.0 L 220.0 95.0 L 221.0 95.0 L 222.0 95.0 L 224.0 95.0 L 225.0 96.0 L 225.0 96.0 L 226.0 96.0 L 227.0 96.0 L 228.0 97.0 L 229.0 97.0 L 229.0 97.0 L 230.0 98.0 L 231.0 98.0 L 231.0 98.0 L 232.0 98.0 L 232.0 98.0 L 233.0 98.0 L 233.0 99.0 L 234.0 99.0 L 234.0 99.0 L 234.0 99.0 L 234.0 100.0 L 234.0 100.0 L 234.0 100.0 L 234.0 101.0 L 234.0 102.0 L 234.0 102.0 L 234.0 103.0 L 234.0 104.0 L 234.0 105.0 L 233.0 106.0 L 232.0 109.0 L 231.0 111.0 L 229.0 115.0 L 227.0 119.0 L 225.0 122.0 L 223.0 125.0 L 222.0 126.0 " stroke="black" fill="none" stroke-width="5.0" stroke-linecap="round" stroke-linejoin="round" />
<path d="M 112.0 125.0 L 111.0 125.0 L 110.0 125.0 L 109.0 125.0 L 109.0 125.0 L 108.0 125.0 L 108.0 125.0 L 107.0 125.0 L 107.0 125.0 L 107.0 124.0 L 107.0 124.0 L 107.0 124.0 L 107.0 124.0 L 107.0 124.0 L 107.0 124.0 L 108.0 124.0 L 109.0 124.0 L 110.0 124.0 L 112.0 124.0 L 114.0 124.0 L 116.0 124.0 L 119.0 125.0 L 121.0 125.0 L 125.0 125.0 L 129.0 125.0 L 133.0 125.0 L 137.0 125.0 L 141.0 125.0 L 145.0 125.0 L 148.0 125.0 L 152.0 125.0 L 155.0 125.0 L 158.0 124.0 L 160.0 124.0 L 163.0 123.0 L 167.0 123.0 L 170.0 123.0 L 173.0 123.0 L 177.0 124.0 L 180.0 125.0 L 182.0 125.0 L 185.0 126.0 L 188.0 126.0 L 190.0 126.0 L 192.0 126.0 L 193.0 126.0 L 194.0 126.0 L 195.0 126.0 L 196.0 127.0 L 196.0 127.0 L 197.0 127.0 L 197.0 128.0 L 198.0 128.0 L 198.0 129.0 L 198.0 129.0 L 198.0 129.0 L 199.0 130.0 L 199.0 130.0 L 199.0 130.0 L 199.0 130.0 L 200.0 131.0 L 200.0 131.0 L 200.0 132.0 L 200.0 133.0 L 200.0 134.0 L 200.0 136.0 L 200.0 138.0 L 200.0 140.0 L 200.0 143.0 L 200.0 146.0 L 200.0 148.0 L 199.0 152.0 L 199.0 154.0 L 199.0 157.0 L 198.0 159.0 L 198.0 161.0 L 197.0 162.0 L 196.0 164.0 L 195.0 165.0 L 194.0 166.0 L 192.0 167.0 " stroke="black" fill="none" stroke-width="5.0" stroke-linecap="round" stroke-linejoin="round" />
<path d="M 108.0 166.0 L 107.0 166.0 L 106.0 166.0 L 105.0 166.0 L 104.0 166.0 L 103.0 166.0 L 103.0 166.0 L 103.0 166.0 L 102.0 166.0 L 102.0 166.0 L 102.0 166.0 L 104.0 166.0 L 106.0 166.0 L 108.0 166.0 L 113.0 166.0 L 119.0 166.0 L 127.0 166.0 L 137.0 166.0 L 147.0 166.0 L 156.0 166.0 L 164.0 166.0 L 173.0 165.0 L 180.0 165.0 L 185.0 165.0 L 190.0 165.0 L 192.0 165.0 L 194.0 165.0 L 194.0 165.0 L 194.0 164.0 L 194.0 164.0 L 194.0 164.0 L 193.0 165.0 " stroke="black" fill="none" stroke-width="5.0" stroke-linecap="round" stroke-linejoin="round" />
<path d="M 104.0 128.0 L 104.0 128.0 L 104.0 128.0 L 104.0 127.0 L 103.0 127.0 L 103.0 127.0 L 103.0 127.0 L 102.0 128.0 L 102.0 129.0 L 102.0 130.0 L 102.0 133.0 L 102.0 135.0 L 102.0 139.0 L 102.0 143.0 L 102.0 148.0 L 102.0 154.0 L 102.0 160.0 L 102.0 167.0 L 102.0 174.0 L 103.0 181.0 L 103.0 189.0 L 103.0 196.0 L 103.0 202.0 L 104.0 207.0 L 104.0 211.0 L 104.0 216.0 L 104.0 220.0 L 104.0 224.0 L 104.0 229.0 L 104.0 232.0 L 104.0 236.0 L 104.0 238.0 L 103.0 240.0 L 103.0 241.0 L 103.0 242.0 L 103.0 242.0 L 103.0 242.0 L 103.0 242.0 L 103.0 242.0 L 104.0 241.0 " stroke="black" fill="none" stroke-width="5.0" stroke-linecap="round" stroke-linejoin="round" />
<path d="M 114.0 193.0 L 114.0 193.0 L 113.0 193.0 L 112.0 193.0 L 111.0 193.0 L 111.0 193.0 L 110.0 193.0 L 109.0 193.0 L 109.0 193.0 L 108.0 193.0 L 108.0 193.0 L 108.0 193.0 L 108.0 193.0 L 108.0 194.0 L 108.0 194.0 L 110.0 194.0 L 111.0 194.0 L 113.0 194.0 L 115.0 194.0 L 118.0 194.0 L 121.0 194.0 L 125.0 194.0 L 129.0 194.0 L 133.0 194.0 L 137.0 193.0 L 141.0 193.0 L 145.0 192.0 L 148.0 192.0 L 151.0 192.0 L 153.0 191.0 L 154.0 191.0 L 156.0 191.0 L 158.0 191.0 L 160.0 191.0 L 162.0 191.0 L 164.0 191.0 L 166.0 191.0 L 168.0 191.0 L 170.0 191.0 L 173.0 191.0 L 175.0 191.0 L 178.0 191.0 L 180.0 191.0 L 182.0 191.0 L 184.0 191.0 L 186.0 191.0 L 188.0 191.0 L 189.0 191.0 L 191.0 191.0 L 192.0 191.0 L 193.0 191.0 L 193.0 191.0 L 194.0 191.0 L 195.0 191.0 L 196.0 191.0 L 196.0 191.0 L 197.0 192.0 L 198.0 192.0 L 199.0 192.0 L 200.0 192.0 L 200.0 192.0 L 201.0 192.0 L 202.0 193.0 L 203.0 193.0 L 204.0 193.0 L 204.0 194.0 L 205.0 194.0 L 205.0 195.0 L 206.0 195.0 L 206.0 196.0 L 207.0 196.0 L 207.0 197.0 L 208.0 197.0 L 208.0 198.0 L 208.0 199.0 L 208.0 200.0 L 208.0 201.0 L 208.0 202.0 L 208.0 204.0 L 207.0 206.0 L 207.0 209.0 L 207.0 212.0 L 206.0 215.0 L 206.0 219.0 L 206.0 222.0 L 206.0 226.0 L 206.0 229.0 L 205.0 231.0 L 205.0 233.0 L 205.0 234.0 L 204.0 235.0 L 203.0 236.0 L 202.0 236.0 L 201.0 236.0 L 200.0 236.0 " stroke="black" fill="none" stroke-width="5.0" stroke-linecap="round" stroke-linejoin="round" />
<path d="M 107.0 236.0 L 107.0 236.0 L 105.0 236.0 L 104.0 236.0 L 104.0 236.0 L 103.0 236.0 L 103.0 236.0 L 103.0 236.0 L 103.0 236.0 L 104.0 236.0 L 107.0 235.0 L 112.0 235.0 L 118.0 235.0 L 126.0 235.0 L 135.0 234.0 L 145.0 234.0 L 154.0 234.0 L 163.0 233.0 L 172.0 233.0 L 181.0 233.0 L 188.0 233.0 L 193.0 233.0 L 196.0 233.0 L 198.0 233.0 L 200.0 234.0 L 201.0 234.0 L 201.0 234.0 L 202.0 235.0 L 202.0 235.0 L 202.0 235.0 L 201.0 234.0 L 200.0 234.0 " stroke="black" fill="none" stroke-width="5.0" stroke-linecap="round" stroke-linejoin="round" />
</svg>