<svg xmlns="http://www.w3.org/2000/svg" width="300" height="300" viewBox="0 0 300 300">
<path d="M 145.0 73.0 L 145.0 72.0 L 145.0 71.0 L 145.0 71.0 L 145.0 70.0 L 145.0 70.0 L 145.0 69.0 L 145.0 69.0 L 145.0 69.0 L 145.0 69.0 L 146.0 71.0 L 147.0 72.0 L 148.0 75.0 L 149.0 78.0 L 150.0 81.0 L 151.0 85.0 L 153.0 88.0 L 154.0 92.0 " stroke="black" fill="none" stroke-width="5.0" stroke-linecap="round" stroke-linejoin="round" />
<path d="M 71.0 100.0 L 71.0 100.0 L 71.0 99.0 L 71.0 99.0 L 71.0 98.0 L 71.0 98.0 L 71.0 98.0 L 71.0 98.0 L 71.0 99.0 L 71.0 100.0 L 71.0 102.0 L 71.0 105.0 L 71.0 109.0 L 71.0 114.0 L 71.0 120.0 L 71.0 126.0 L 70.0 132.0 " stroke="black" fill="none" stroke-width="5.0" stroke-linecap="round" stroke-linejoin="round" />
<path d="M 75.0 103.0 L 75.0 103.0 L 75.0 103.0 L 75.0 102.0 L 75.0 102.0 L 76.0 102.0 L 76.0 102.0 L 76.0 101.0 L 76.0 101.0 L 76.0 101.0 L 77.0 101.0 L 77.0 101.0 L 77.0 101.0 L 78.0 101.0 L 78.0 101.0 L 78.0 101.0 L 79.0 101.0 L 80.0 101.0 L 80.0 101.0 L 81.0 101.0 L 82.0 101.0 L 83.0 101.0 L 84.0 101.0 L 86.0 101.0 L 87.0 101.0 L 89.0 101.0 L 90.0 101.0 L 92.0 102.0 L 93.0 102.0 L 94.0 102.0 L 96.0 102.0 L 97.0 103.0 L 98.0 103.0 L 100.0 103.0 L 101.0 103.0 L 102.0 103.0 L 104.0 103.0 L 105.0 103.0 L 106.0 103.0 L 107.0 103.0 L 108.0 103.0 L 109.0 103.0 L 110.0 103.0 L 111.0 103.0 L 112.0 102.0 L 112.0 102.0 L 113.0 102.0 L 114.0 102.0 L 115.0 102.0 L 116.0 102.0 L 116.0 102.0 L 117.0 102.0 L 118.0 102.0 L 119.0 102.0 L 120.0 102.0 L 121.0 102.0 L 122.0 102.0 L 123.0 102.0 L 124.0 102.0 L 125.0 102.0 L 125.0 102.0 L 126.0 102.0 L 127.0 102.0 L 128.0 102.0 L 129.0 103.0 L 130.0 103.0 L 131.0 103.0 L 132.0 103.0 L 133.0 103.0 L 134.0 103.0 L 135.0 103.0 L 136.0 103.0 L 137.0 103.0 L 138.0 103.0 L 139.0 103.0 L 140.0 103.0 L 141.0 103.0 L 142.0 103.0 L 143.0 103.0 L 143.0 103.0 L 144.0 103.0 L 145.0 103.0 L 146.0 103.0 L 146.0 103.0 L 147.0 103.0 L 148.0 103.0 L 148.0 103.0 L 149.0 103.0 L 149.0 103.0 L 150.0 103.0 L 150.0 103.0 L 151.0 103.0 L 151.0 103.0 L 152.0 103.0 L 152.0 103.0 L 153.0 103.0 L 153.0 103.0 L 154.0 103.0 L 155.0 103.0 L 155.0 103.0 L 156.0 103.0 L 156.0 103.0 L 157.0 103.0 L 157.0 103.0 L 158.0 103.0 L 159.0 103.0 L 159.0 103.0 L 160.0 103.0 L 161.0 103.0 L 161.0 103.0 L 162.0 103.0 L 163.0 103.0 L 163.0 103.0 L 164.0 103.0 L 165.0 103.0 L 166.0 103.0 L 166.0 103.0 L 167.0 103.0 L 168.0 103.0 L 168.0 103.0 L 169.0 103.0 L 170.0 103.0 L 171.0 103.0 L 171.0 103.0 L 172.0 103.0 L 173.0 103.0 L 174.0 103.0 L 175.0 103.0 L 175.0 103.0 L 176.0 103.0 L 177.0 103.0 L 177.0 103.0 L 178.0 103.0 L 179.0 103.0 L 179.0 103.0 L 180.0 103.0 L 180.0 103.0 L 181.0 103.0 L 182.0 103.0 L 182.0 103.0 L 183.0 103.0 L 183.0 103.0 L 184.0 103.0 L 184.0 103.0 L 185.0 103.0 L 185.0 103.0 L 186.0 103.0 L 186.0 103.0 L 187.0 103.0 L 187.0 103.0 L 188.0 103.0 L 188.0 103.0 L 189.0 103.0 L 189.0 103.0 L 189.0 103.0 L 190.0 103.0 L 190.0 103.0 L 191.0 103.0 L 191.0 103.0 L 191.0 103.0 L 192.0 103.0 L 192.0 103.0 L 192.0 103.0 L 193.0 103.0 L 193.0 103.0 L 193.0 103.0 L 194.0 103.0 L 194.0 103.0 L 194.0 103.0 L 195.0 103.0 L 195.0 103.0 L 196.0 103.0 L 196.0 103.0 L 196.0 103.0 L 197.0 103.0 L 197.0 103.0 L 197.0 103.0 L 198.0 103.0 L 198.0 103.0 L 198.0 103.0 L 199.0 103.0 L 199.0 103.0 L 200.0 103.0 L 200.0 103.0 L 200.0 103.0 L 201.0 104.0 L 201.0 104.0 L 201.0 104.0 L 202.0 104.0 L 202.0 104.0 L 203.0 104.0 L 203.0 104.0 L 204.0 104.0 L 204.0 104.0 L 204.0 104.0 L 205.0 104.0 L 205.0 104.0 L 206.0 104.0 L 206.0 104.0 L 207.0 104.0 L 207.0 104.0 L 208.0 104.0 L 208.0 105.0 L 209.0 105.0 L 209.0 105.0 L 209.0 105.0 L 210.0 105.0 L 210.0 105.0 L 211.0 105.0 L 212.0 105.0 L 212.0 105.0 L 213.0 105.0 L 213.0 106.0 L 214.0 106.0 L 214.0 106.0 L 215.0 106.0 L 216.0 106.0 L 216.0 106.0 L 217.0 106.0 L 217.0 107.0 L 218.0 107.0 L 218.0 107.0 L 218.0 107.0 L 219.0 107.0 L 219.0 107.0 L 220.0 107.0 L 220.0 107.0 L 221.0 107.0 L 221.0 107.0 L 221.0 108.0 L 222.0 108.0 L 222.0 108.0 L 223.0 108.0 L 223.0 108.0 L 224.0 108.0 L 224.0 108.0 L 225.0 108.0 L 225.0 108.0 L 225.0 108.0 L 226.0 108.0 L 226.0 108.0 L 227.0 108.0 L 227.0 108.0 L 227.0 108.0 L 228.0 108.0 L 228.0 108.0 L 228.0 108.0 L 229.0 108.0 L 229.0 108.0 L 229.0 108.0 L 229.0 108.0 L 230.0 108.0 L 230.0 108.0 L 230.0 108.0 L 230.0 108.0 L 230.0 108.0 L 230.0 108.0 L 230.0 108.0 L 230.0 108.0 L 230.0 108.0 L 230.0 109.0 L 230.0 109.0 L 231.0 109.0 L 231.0 109.0 L 231.0 110.0 L 231.0 110.0 L 231.0 111.0 L 231.0 112.0 L 231.0 114.0 L 231.0 116.0 L 231.0 118.0 L 231.0 120.0 L 231.0 122.0 L 231.0 124.0 L 231.0 125.0 L 231.0 126.0 " stroke="black" fill="none" stroke-width="5.0" stroke-linecap="round" stroke-linejoin="round" />
<path d="M 68.0 155.0 L 68.0 155.0 L 68.0 154.0 L 68.0 154.0 L 68.0 154.0 L 68.0 153.0 L 68.0 153.0 L 68.0 153.0 L 68.0 153.0 L 68.0 153.0 L 68.0 153.0 L 68.0 153.0 L 68.0 153.0 L 68.0 153.0 L 68.0 153.0 L 69.0 153.0 L 69.0 153.0 L 69.0 153.0 L 70.0 153.0 L 71.0 153.0 L 72.0 153.0 L 73.0 154.0 L 75.0 154.0 L 76.0 154.0 L 78.0 154.0 L 80.0 154.0 L 81.0 154.0 L 83.0 154.0 L 85.0 154.0 L 86.0 154.0 L 88.0 154.0 L 89.0 154.0 L 91.0 154.0 L 92.0 154.0 L 94.0 154.0 L 95.0 154.0 L 96.0 154.0 L 97.0 154.0 L 98.0 154.0 L 99.0 154.0 L 100.0 154.0 L 101.0 154.0 L 102.0 154.0 L 103.0 154.0 L 104.0 154.0 L 105.0 154.0 L 105.0 154.0 L 106.0 154.0 L 107.0 154.0 L 108.0 154.0 L 109.0 154.0 L 110.0 154.0 L 111.0 154.0 L 112.0 154.0 L 112.0 154.0 L 113.0 154.0 L 114.0 154.0 L 115.0 154.0 L 116.0 154.0 L 117.0 154.0 L 119.0 154.0 L 120.0 154.0 L 121.0 154.0 L 122.0 154.0 L 124.0 154.0 L 125.0 154.0 L 126.0 154.0 L 127.0 154.0 L 128.0 154.0 L 130.0 154.0 L 131.0 154.0 L 132.0 154.0 L 133.0 154.0 L 134.0 154.0 L 135.0 154.0 L 136.0 154.0 L 137.0 155.0 L 138.0 155.0 L 139.0 155.0 L 140.0 155.0 L 141.0 155.0 L 142.0 155.0 L 143.0 155.0 L 143.0 155.0 L 144.0 155.0 L 145.0 155.0 L 146.0 155.0 L 146.0 156.0 L 147.0 156.0 L 148.0 156.0 L 148.0 156.0 L 149.0 156.0 L 149.0 156.0 L 150.0 156.0 L 151.0 156.0 L 151.0 156.0 L 152.0 156.0 L 152.0 156.0 L 153.0 156.0 L 154.0 155.0 L 154.0 155.0 L 155.0 155.0 L 156.0 155.0 L 156.0 155.0 L 157.0 154.0 L 158.0 154.0 L 158.0 154.0 L 159.0 154.0 L 160.0 154.0 L 160.0 154.0 L 161.0 154.0 L 162.0 153.0 L 163.0 153.0 L 163.0 153.0 L 164.0 153.0 L 165.0 153.0 L 166.0 153.0 L 166.0 153.0 L 167.0 153.0 L 168.0 153.0 L 169.0 153.0 L 169.0 153.0 L 170.0 153.0 L 171.0 153.0 L 171.0 153.0 L 172.0 153.0 L 173.0 153.0 L 174.0 153.0 L 174.0 153.0 L 175.0 153.0 L 176.0 153.0 L 177.0 153.0 L 177.0 153.0 L 178.0 154.0 L 178.0 154.0 L 179.0 154.0 L 180.0 154.0 L 180.0 154.0 L 181.0 154.0 L 182.0 154.0 L 182.0 154.0 L 183.0 154.0 L 184.0 154.0 L 184.0 154.0 L 185.0 154.0 L 185.0 154.0 L 186.0 154.0 L 186.0 154.0 L 187.0 154.0 L 187.0 154.0 L 188.0 154.0 L 189.0 154.0 L 189.0 154.0 L 190.0 154.0 L 190.0 154.0 L 191.0 154.0 L 191.0 154.0 L 192.0 154.0 L 192.0 154.0 L 193.0 154.0 L 193.0 154.0 L 193.0 154.0 L 194.0 154.0 L 194.0 154.0 L 195.0 154.0 L 195.0 154.0 L 196.0 154.0 L 196.0 154.0 L 197.0 154.0 L 197.0 154.0 L 197.0 154.0 L 198.0 154.0 L 198.0 154.0 L 199.0 154.0 L 199.0 154.0 L 200.0 154.0 L 200.0 154.0 L 201.0 154.0 L 201.0 154.0 L 202.0 154.0 L 203.0 154.0 L 203.0 154.0 L 204.0 154.0 L 204.0 154.0 L 205.0 154.0 L 206.0 154.0 L 207.0 154.0 L 207.0 154.0 L 208.0 154.0 L 209.0 154.0 L 210.0 154.0 L 211.0 154.0 L 212.0 153.0 L 213.0 153.0 L 214.0 153.0 L 215.0 152.0 L 216.0 152.0 L 217.0 152.0 L 218.0 151.0 L 218.0 151.0 L 219.0 151.0 L 220.0 151.0 L 221.0 151.0 L 221.0 151.0 L 222.0 151.0 L 223.0 151.0 L 223.0 151.0 L 224.0 151.0 L 225.0 151.0 L 225.0 151.0 L 226.0 151.0 L 227.0 151.0 L 227.0 151.0 L 228.0 151.0 L 228.0 151.0 L 229.0 151.0 L 229.0 151.0 L 230.0 151.0 L 230.0 151.0 L 231.0 151.0 L 231.0 151.0 L 232.0 151.0 L 232.0 152.0 L 233.0 152.0 L 233.0 152.0 L 234.0 152.0 L 234.0 152.0 L 234.0 152.0 L 235.0 152.0 L 235.0 152.0 L 236.0 152.0 L 236.0 152.0 L 237.0 152.0 L 237.0 153.0 L 237.0 153.0 L 238.0 153.0 L 238.0 153.0 L 238.0 153.0 L 238.0 153.0 L 238.0 153.0 L 238.0 153.0 " stroke="black" fill="none" stroke-width="5.0" stroke-linecap="round" stroke-linejoin="round" />
<path d="M 177.0 126.0 L 177.0 126.0 L 177.0 126.0 L 178.0 126.0 L 178.0 126.0 L 178.0 126.0 L 178.0 126.0 L 178.0 126.0 L 178.0 127.0 L 178.0 128.0 L 178.0 130.0 L 179.0 132.0 L 179.0 135.0 L 179.0 138.0 L 180.0 141.0 L 180.0 145.0 L 181.0 148.0 L 181.0 152.0 L 181.0 155.0 L 182.0 159.0 L 182.0 161.0 L 182.0 164.0 L 182.0 167.0 L 182.0 169.0 L 181.0 171.0 L 181.0 173.0 L 181.0 175.0 L 181.0 177.0 L 181.0 179.0 L 181.0 181.0 L 181.0 183.0 L 181.0 185.0 L 181.0 188.0 L 180.0 190.0 L 180.0 192.0 L 180.0 194.0 L 180.0 196.0 L 180.0 198.0 L 179.0 200.0 L 179.0 201.0 L 179.0 202.0 L 179.0 204.0 L 179.0 205.0 L 179.0 207.0 L 178.0 208.0 L 178.0 210.0 L 178.0 211.0 L 178.0 213.0 L 178.0 214.0 L 178.0 216.0 L 178.0 217.0 L 177.0 218.0 L 177.0 220.0 L 177.0 221.0 L 177.0 223.0 L 176.0 225.0 L 176.0 227.0 L 176.0 229.0 L 175.0 230.0 L 175.0 232.0 L 175.0 233.0 L 174.0 235.0 L 174.0 236.0 L 174.0 236.0 L 173.0 237.0 L 173.0 238.0 L 173.0 239.0 L 173.0 240.0 L 172.0 241.0 L 172.0 241.0 L 172.0 242.0 L 172.0 243.0 L 172.0 243.0 L 172.0 243.0 L 172.0 244.0 L 171.0 244.0 L 171.0 244.0 L 171.0 245.0 L 171.0 245.0 L 171.0 246.0 L 171.0 246.0 L 171.0 246.0 L 170.0 246.0 L 170.0 247.0 L 170.0 247.0 L 170.0 247.0 L 170.0 247.0 L 169.0 247.0 L 169.0 247.0 L 169.0 247.0 L 169.0 247.0 L 168.0 248.0 L 168.0 248.0 L 168.0 248.0 L 167.0 248.0 L 166.0 248.0 L 166.0 248.0 L 165.0 248.0 L 164.0 248.0 L 162.0 248.0 L 161.0 248.0 L 159.0 248.0 L 157.0 248.0 L 155.0 248.0 L 153.0 248.0 L 152.0 247.0 L 150.0 246.0 L 148.0 245.0 L 146.0 244.0 L 145.0 244.0 " stroke="black" fill="none" stroke-width="5.0" stroke-linecap="round" stroke-linejoin="round" />
<path d="M 99.0 184.0 L 99.0 184.0 L 99.0 183.0 L 100.0 182.0 L 100.0 182.0 L 100.0 181.0 L 100.0 180.0 L 100.0 180.0 L 100.0 179.0 L 100.0 179.0 L 100.0 179.0 L 100.0 179.0 L 100.0 179.0 L 100.0 180.0 L 101.0 181.0 L 102.0 184.0 L 104.0 186.0 L 105.0 189.0 L 107.0 193.0 L 109.0 196.0 L 112.0 199.0 L 114.0 203.0 L 116.0 206.0 L 118.0 208.0 L 120.0 210.0 L 121.0 211.0 L 122.0 212.0 " stroke="black" fill="none" stroke-width="5.0" stroke-linecap="round" stroke-linejoin="round" />
</svg>