<svg xmlns="http://www.w3.org/2000/svg" width="300" height="300" viewBox="0 0 300 300">
<path d="M 98.0 80.0 L 97.0 80.0 L 96.0 80.0 L 96.0 80.0 L 95.0 80.0 L 94.0 80.0 L 94.0 80.0 L 94.0 80.0 L 93.0 80.0 L 93.0 80.0 L 93.0 80.0 L 93.0 80.0 L 93.0 80.0 L 94.0 80.0 L 94.0 81.0 L 95.0 81.0 L 96.0 81.0 L 96.0 81.0 L 97.0 81.0 L 98.0 81.0 L 99.0 81.0 L 100.0 81.0 L 100.0 81.0 L 101.0 81.0 L 102.0 81.0 L 103.0 81.0 L 104.0 81.0 L 105.0 81.0 L 106.0 81.0 L 107.0 81.0 L 107.0 81.0 L 108.0 81.0 L 109.0 81.0 L 109.0 81.0 L 110.0 81.0 L 111.0 81.0 L 111.0 81.0 L 112.0 81.0 L 113.0 81.0 L 114.0 81.0 L 115.0 81.0 L 116.0 81.0 L 117.0 81.0 L 118.0 81.0 L 119.0 81.0 L 120.0 81.0 L 121.0 81.0 L 122.0 81.0 L 124.0 81.0 L 126.0 82.0 L 128.0 82.0 L 129.0 82.0 L 131.0 82.0 L 132.0 82.0 L 133.0 82.0 L 135.0 82.0 L 136.0 82.0 L 137.0 82.0 L 138.0 81.0 L 139.0 81.0 L 140.0 81.0 L 142.0 81.0 L 143.0 81.0 L 144.0 81.0 L 145.0 81.0 L 147.0 81.0 L 148.0 81.0 L 149.0 80.0 L 150.0 80.0 L 151.0 80.0 L 152.0 80.0 L 152.0 80.0 L 153.0 80.0 L 154.0 80.0 L 155.0 80.0 L 155.0 80.0 L 156.0 79.0 L 157.0 79.0 L 158.0 79.0 L 159.0 79.0 L 160.0 79.0 L 161.0 79.0 L 162.0 78.0 L 163.0 78.0 L 164.0 78.0 L 165.0 78.0 L 166.0 78.0 L 167.0 78.0 L 168.0 78.0 L 169.0 78.0 L 169.0 78.0 L 170.0 78.0 L 171.0 78.0 L 172.0 78.0 L 173.0 78.0 L 174.0 78.0 L 175.0 78.0 L 176.0 78.0 L 177.0 78.0 L 178.0 78.0 L 179.0 78.0 L 180.0 78.0 L 181.0 78.0 L 181.0 78.0 L 182.0 78.0 L 183.0 78.0 L 183.0 78.0 L 184.0 78.0 L 184.0 78.0 L 185.0 78.0 L 185.0 78.0 L 185.0 78.0 L 186.0 78.0 L 186.0 78.0 L 187.0 78.0 L 187.0 78.0 L 188.0 78.0 L 188.0 78.0 L 189.0 78.0 L 189.0 78.0 L 189.0 78.0 L 190.0 78.0 L 190.0 78.0 L 191.0 78.0 L 191.0 78.0 L 192.0 78.0 L 192.0 78.0 L 193.0 78.0 L 193.0 78.0 L 194.0 78.0 L 194.0 78.0 L 195.0 78.0 L 195.0 78.0 L 196.0 79.0 L 196.0 79.0 L 196.0 79.0 L 197.0 79.0 L 197.0 79.0 L 198.0 79.0 L 198.0 79.0 L 199.0 79.0 L 199.0 80.0 L 200.0 80.0 L 200.0 80.0 L 201.0 80.0 L 201.0 80.0 L 202.0 80.0 L 202.0 80.0 L 203.0 80.0 L 204.0 80.0 L 204.0 80.0 L 205.0 80.0 L 205.0 81.0 L 205.0 81.0 L 206.0 81.0 L 206.0 81.0 L 207.0 81.0 L 207.0 81.0 L 208.0 81.0 L 208.0 81.0 L 208.0 81.0 L 208.0 81.0 L 209.0 81.0 L 209.0 81.0 L 209.0 81.0 L 209.0 81.0 L 209.0 81.0 L 209.0 82.0 L 209.0 82.0 L 209.0 82.0 L 209.0 83.0 L 209.0 84.0 L 209.0 85.0 L 209.0 87.0 L 209.0 88.0 L 208.0 90.0 L 208.0 93.0 L 208.0 95.0 L 207.0 98.0 L 207.0 102.0 L 207.0 105.0 L 206.0 109.0 L 206.0 112.0 L 206.0 114.0 L 206.0 117.0 L 206.0 119.0 L 206.0 120.0 L 206.0 121.0 L 205.0 122.0 L 205.0 123.0 L 205.0 123.0 L 205.0 124.0 L 204.0 125.0 L 204.0 125.0 L 204.0 126.0 L 204.0 127.0 L 204.0 127.0 L 204.0 128.0 L 204.0 128.0 L 203.0 128.0 L 203.0 128.0 L 203.0 128.0 " stroke="black" fill="none" stroke-width="5.0" stroke-linecap="round" stroke-linejoin="round" />
<path d="M 62.0 107.0 L 62.0 107.0 L 61.0 107.0 L 61.0 107.0 L 61.0 107.0 L 61.0 107.0 L 61.0 107.0 L 61.0 107.0 L 60.0 107.0 L 60.0 107.0 L 60.0 107.0 L 60.0 107.0 L 61.0 107.0 L 61.0 107.0 L 61.0 107.0 L 62.0 107.0 L 62.0 107.0 L 63.0 107.0 L 64.0 107.0 L 64.0 107.0 L 65.0 107.0 L 66.0 107.0 L 67.0 107.0 L 67.0 107.0 L 68.0 107.0 L 69.0 107.0 L 69.0 107.0 L 70.0 107.0 L 71.0 107.0 L 72.0 107.0 L 73.0 107.0 L 74.0 107.0 L 75.0 107.0 L 76.0 107.0 L 77.0 108.0 L 79.0 108.0 L 80.0 108.0 L 81.0 108.0 L 83.0 108.0 L 84.0 108.0 L 86.0 108.0 L 87.0 108.0 L 89.0 108.0 L 90.0 108.0 L 91.0 108.0 L 93.0 108.0 L 94.0 109.0 L 95.0 109.0 L 96.0 109.0 L 97.0 109.0 L 99.0 109.0 L 100.0 109.0 L 101.0 109.0 L 102.0 109.0 L 103.0 109.0 L 104.0 109.0 L 105.0 109.0 L 107.0 109.0 L 108.0 108.0 L 109.0 108.0 L 110.0 108.0 L 110.0 108.0 L 111.0 107.0 L 112.0 107.0 L 113.0 107.0 L 114.0 107.0 L 115.0 107.0 L 115.0 106.0 L 116.0 106.0 L 117.0 106.0 L 117.0 106.0 L 118.0 106.0 L 118.0 106.0 L 119.0 106.0 L 120.0 106.0 L 120.0 106.0 L 121.0 107.0 L 122.0 107.0 L 123.0 107.0 L 123.0 107.0 L 124.0 107.0 L 125.0 108.0 L 126.0 108.0 L 127.0 108.0 L 128.0 109.0 L 129.0 109.0 L 131.0 110.0 L 132.0 110.0 L 133.0 110.0 L 135.0 110.0 L 136.0 110.0 L 138.0 110.0 L 140.0 110.0 L 141.0 110.0 L 142.0 110.0 L 144.0 110.0 L 145.0 110.0 L 146.0 109.0 L 147.0 109.0 L 148.0 108.0 L 149.0 108.0 L 150.0 108.0 L 150.0 107.0 L 151.0 107.0 L 152.0 107.0 L 153.0 107.0 L 153.0 107.0 L 154.0 106.0 L 155.0 106.0 L 156.0 106.0 L 157.0 106.0 L 158.0 106.0 L 158.0 106.0 L 160.0 106.0 L 160.0 106.0 L 161.0 106.0 L 162.0 106.0 L 163.0 106.0 L 164.0 106.0 L 165.0 106.0 L 166.0 106.0 L 167.0 106.0 L 168.0 106.0 L 169.0 106.0 L 170.0 106.0 L 171.0 106.0 L 172.0 106.0 L 173.0 106.0 L 175.0 106.0 L 176.0 106.0 L 177.0 106.0 L 178.0 106.0 L 179.0 106.0 L 180.0 106.0 L 181.0 106.0 L 182.0 106.0 L 183.0 106.0 L 184.0 106.0 L 185.0 106.0 L 186.0 106.0 L 187.0 106.0 L 187.0 106.0 L 188.0 106.0 L 189.0 106.0 L 190.0 106.0 L 190.0 106.0 L 191.0 106.0 L 191.0 106.0 L 192.0 106.0 L 192.0 106.0 L 193.0 106.0 L 193.0 106.0 L 194.0 106.0 L 194.0 106.0 L 195.0 106.0 L 196.0 106.0 L 196.0 106.0 L 197.0 106.0 L 197.0 106.0 L 198.0 106.0 L 198.0 106.0 L 199.0 106.0 L 200.0 106.0 L 200.0 105.0 L 201.0 105.0 L 202.0 105.0 L 202.0 105.0 L 203.0 105.0 L 204.0 105.0 L 204.0 105.0 L 205.0 105.0 L 206.0 105.0 L 206.0 105.0 L 207.0 105.0 L 208.0 105.0 L 209.0 105.0 L 210.0 105.0 L 211.0 105.0 L 211.0 105.0 L 212.0 105.0 L 213.0 106.0 L 214.0 106.0 L 215.0 106.0 L 216.0 106.0 L 217.0 106.0 L 218.0 106.0 L 218.0 106.0 L 219.0 106.0 L 220.0 106.0 L 221.0 106.0 L 222.0 106.0 L 223.0 106.0 L 223.0 106.0 L 224.0 107.0 L 225.0 107.0 L 225.0 107.0 L 226.0 107.0 L 226.0 107.0 L 227.0 107.0 L 227.0 107.0 L 228.0 107.0 L 229.0 107.0 L 229.0 107.0 L 230.0 107.0 L 231.0 107.0 L 232.0 107.0 L 232.0 107.0 L 233.0 107.0 L 234.0 107.0 " stroke="black" fill="none" stroke-width="5.0" stroke-linecap="round" stroke-linejoin="round" />
<path d="M 92.0 128.0 L 92.0 128.0 L 92.0 128.0 L 92.0 128.0 L 92.0 128.0 L 92.0 128.0 L 93.0 128.0 L 93.0 128.0 L 93.0 128.0 L 94.0 128.0 L 94.0 128.0 L 95.0 128.0 L 96.0 128.0 L 97.0 128.0 L 98.0 128.0 L 99.0 128.0 L 100.0 128.0 L 101.0 128.0 L 103.0 128.0 L 104.0 128.0 L 105.0 128.0 L 106.0 128.0 L 108.0 128.0 L 109.0 129.0 L 110.0 129.0 L 111.0 129.0 L 112.0 129.0 L 113.0 129.0 L 114.0 130.0 L 115.0 130.0 L 116.0 130.0 L 117.0 130.0 L 118.0 130.0 L 119.0 130.0 L 120.0 130.0 L 121.0 130.0 L 122.0 130.0 L 123.0 130.0 L 124.0 131.0 L 125.0 131.0 L 127.0 131.0 L 128.0 131.0 L 129.0 131.0 L 130.0 131.0 L 132.0 131.0 L 133.0 131.0 L 134.0 131.0 L 135.0 131.0 L 136.0 131.0 L 137.0 131.0 L 138.0 131.0 L 138.0 131.0 L 139.0 131.0 L 140.0 131.0 L 141.0 131.0 L 141.0 131.0 L 142.0 131.0 L 143.0 131.0 L 144.0 131.0 L 144.0 131.0 L 145.0 131.0 L 145.0 131.0 L 146.0 131.0 L 146.0 131.0 L 147.0 131.0 L 148.0 130.0 L 148.0 130.0 L 149.0 130.0 L 150.0 130.0 L 150.0 130.0 L 151.0 130.0 L 152.0 130.0 L 152.0 130.0 L 153.0 130.0 L 154.0 130.0 L 154.0 129.0 L 155.0 129.0 L 156.0 129.0 L 157.0 129.0 L 158.0 129.0 L 158.0 129.0 L 159.0 129.0 L 160.0 129.0 L 161.0 129.0 L 163.0 129.0 L 164.0 129.0 L 165.0 129.0 L 167.0 129.0 L 168.0 129.0 L 170.0 129.0 L 171.0 129.0 L 173.0 129.0 L 174.0 129.0 L 175.0 129.0 L 176.0 129.0 L 177.0 129.0 L 178.0 129.0 L 180.0 129.0 L 181.0 129.0 L 182.0 129.0 L 183.0 129.0 L 184.0 129.0 L 185.0 129.0 L 186.0 129.0 L 187.0 129.0 L 188.0 129.0 L 189.0 129.0 L 191.0 129.0 L 192.0 129.0 L 193.0 129.0 L 194.0 129.0 L 195.0 129.0 L 196.0 129.0 L 197.0 129.0 L 199.0 129.0 L 200.0 128.0 L 201.0 128.0 L 202.0 128.0 L 203.0 128.0 L 204.0 127.0 L 205.0 127.0 " stroke="black" fill="none" stroke-width="5.0" stroke-linecap="round" stroke-linejoin="round" />
<path d="M 71.0 157.0 L 71.0 157.0 L 71.0 157.0 L 71.0 157.0 L 71.0 157.0 L 71.0 157.0 L 71.0 157.0 L 71.0 157.0 L 71.0 157.0 L 71.0 157.0 L 71.0 157.0 L 71.0 157.0 L 71.0 156.0 L 71.0 156.0 L 71.0 156.0 L 71.0 156.0 L 71.0 156.0 L 71.0 156.0 L 71.0 156.0 L 71.0 156.0 L 71.0 156.0 L 71.0 156.0 L 71.0 156.0 L 71.0 156.0 L 71.0 156.0 L 71.0 156.0 L 72.0 156.0 L 72.0 156.0 L 73.0 156.0 L 74.0 156.0 L 76.0 156.0 L 79.0 156.0 L 82.0 156.0 L 85.0 156.0 L 89.0 156.0 L 92.0 156.0 L 96.0 156.0 L 99.0 155.0 L 102.0 154.0 L 105.0 154.0 L 108.0 153.0 L 110.0 152.0 L 112.0 152.0 L 115.0 151.0 L 116.0 151.0 L 118.0 151.0 L 119.0 151.0 L 120.0 151.0 L 121.0 151.0 L 121.0 151.0 " stroke="black" fill="none" stroke-width="5.0" stroke-linecap="round" stroke-linejoin="round" />
<path d="M 102.0 159.0 L 102.0 159.0 L 102.0 160.0 L 102.0 161.0 L 101.0 163.0 L 101.0 165.0 L 101.0 167.0 L 101.0 170.0 L 100.0 173.0 L 100.0 177.0 L 100.0 180.0 L 100.0 182.0 L 100.0 184.0 L 100.0 186.0 " stroke="black" fill="none" stroke-width="5.0" stroke-linecap="round" stroke-linejoin="round" />
<path d="M 72.0 190.0 L 72.0 190.0 L 70.0 190.0 L 69.0 189.0 L 68.0 189.0 L 67.0 189.0 L 66.0 189.0 L 66.0 189.0 L 66.0 189.0 L 66.0 189.0 L 66.0 189.0 L 66.0 189.0 L 67.0 189.0 L 69.0 189.0 L 71.0 188.0 L 73.0 188.0 L 77.0 187.0 L 82.0 186.0 L 87.0 185.0 L 92.0 184.0 L 98.0 183.0 L 103.0 182.0 L 108.0 180.0 L 112.0 179.0 L 115.0 178.0 L 118.0 176.0 L 121.0 175.0 L 123.0 174.0 L 126.0 173.0 L 127.0 173.0 L 127.0 173.0 " stroke="black" fill="none" stroke-width="5.0" stroke-linecap="round" stroke-linejoin="round" />
<path d="M 165.0 155.0 L 165.0 155.0 L 164.0 155.0 L 164.0 156.0 L 163.0 156.0 L 163.0 157.0 L 163.0 158.0 L 163.0 159.0 L 163.0 162.0 L 163.0 165.0 L 163.0 169.0 L 163.0 173.0 L 163.0 177.0 L 163.0 181.0 L 163.0 184.0 L 164.0 186.0 L 164.0 187.0 " stroke="black" fill="none" stroke-width="5.0" stroke-linecap="round" stroke-linejoin="round" />
<path d="M 167.0 155.0 L 167.0 155.0 L 166.0 155.0 L 165.0 155.0 L 164.0 155.0 L 164.0 155.0 L 163.0 155.0 L 163.0 154.0 L 163.0 154.0 L 163.0 154.0 L 163.0 154.0 L 163.0 153.0 L 163.0 153.0 L 163.0 153.0 L 164.0 153.0 L 164.0 153.0 L 165.0 152.0 L 166.0 152.0 L 167.0 152.0 L 168.0 152.0 L 170.0 152.0 L 171.0 152.0 L 173.0 152.0 L 175.0 152.0 L 177.0 152.0 L 179.0 152.0 L 181.0 152.0 L 183.0 152.0 L 185.0 152.0 L 187.0 152.0 L 188.0 152.0 L 190.0 152.0 L 192.0 152.0 L 194.0 152.0 L 195.0 152.0 L 197.0 152.0 L 198.0 152.0 L 199.0 152.0 L 200.0 152.0 L 202.0 152.0 L 203.0 152.0 L 204.0 152.0 L 205.0 153.0 L 207.0 153.0 L 208.0 153.0 L 210.0 153.0 L 211.0 153.0 L 213.0 153.0 L 215.0 153.0 L 216.0 153.0 L 218.0 153.0 L 220.0 153.0 L 221.0 153.0 L 223.0 153.0 L 224.0 153.0 L 225.0 153.0 L 226.0 154.0 L 226.0 154.0 L 227.0 155.0 L 227.0 156.0 L 227.0 157.0 L 226.0 159.0 L 226.0 160.0 L 225.0 162.0 L 224.0 164.0 L 223.0 167.0 L 222.0 170.0 L 220.0 173.0 L 219.0 177.0 L 218.0 180.0 L 217.0 184.0 L 216.0 186.0 L 215.0 188.0 " stroke="black" fill="none" stroke-width="5.0" stroke-linecap="round" stroke-linejoin="round" />
<path d="M 167.0 188.0 L 166.0 188.0 L 166.0 188.0 L 165.0 188.0 L 164.0 188.0 L 164.0 188.0 L 164.0 188.0 L 164.0 188.0 L 166.0 188.0 L 168.0 188.0 L 171.0 188.0 L 175.0 188.0 L 179.0 188.0 L 184.0 188.0 L 190.0 188.0 L 195.0 187.0 L 201.0 186.0 L 207.0 184.0 L 212.0 182.0 L 217.0 182.0 " stroke="black" fill="none" stroke-width="5.0" stroke-linecap="round" stroke-linejoin="round" />
<path d="M 65.0 206.0 L 65.0 207.0 L 64.0 207.0 L 64.0 208.0 L 63.0 208.0 L 63.0 208.0 L 62.0 209.0 L 62.0 209.0 L 62.0 209.0 L 62.0 209.0 L 62.0 209.0 L 62.0 208.0 L 62.0 208.0 L 62.0 208.0 L 63.0 207.0 L 64.0 207.0 L 64.0 207.0 L 65.0 207.0 L 66.0 207.0 L 67.0 207.0 L 68.0 207.0 L 69.0 206.0 L 70.0 206.0 L 71.0 206.0 L 73.0 206.0 L 74.0 206.0 L 76.0 206.0 L 78.0 206.0 L 80.0 206.0 L 81.0 206.0 L 83.0 206.0 L 85.0 205.0 L 87.0 205.0 L 89.0 205.0 L 91.0 205.0 L 93.0 205.0 L 95.0 205.0 L 96.0 205.0 L 98.0 205.0 L 100.0 205.0 L 101.0 205.0 L 103.0 205.0 L 104.0 205.0 L 106.0 205.0 L 107.0 205.0 L 108.0 205.0 L 109.0 204.0 L 110.0 204.0 L 111.0 204.0 L 111.0 204.0 L 112.0 204.0 L 113.0 204.0 L 114.0 204.0 L 114.0 204.0 L 115.0 203.0 L 116.0 203.0 L 117.0 203.0 L 119.0 203.0 L 120.0 203.0 L 121.0 203.0 L 122.0 203.0 L 123.0 203.0 L 125.0 203.0 L 126.0 203.0 L 127.0 203.0 L 129.0 203.0 L 130.0 204.0 L 132.0 204.0 L 134.0 204.0 L 135.0 204.0 L 137.0 204.0 L 138.0 204.0 L 139.0 204.0 L 141.0 204.0 L 142.0 204.0 L 144.0 204.0 L 145.0 204.0 L 147.0 205.0 L 148.0 205.0 L 150.0 205.0 L 151.0 205.0 L 153.0 205.0 L 155.0 205.0 L 157.0 205.0 L 159.0 205.0 L 161.0 205.0 L 164.0 205.0 L 166.0 205.0 L 167.0 205.0 L 169.0 205.0 L 170.0 205.0 L 172.0 205.0 L 173.0 206.0 L 174.0 206.0 L 175.0 206.0 L 176.0 206.0 L 176.0 206.0 L 177.0 206.0 L 178.0 206.0 L 178.0 206.0 L 179.0 207.0 L 180.0 207.0 L 180.0 207.0 L 181.0 207.0 L 182.0 207.0 L 183.0 207.0 L 184.0 207.0 L 184.0 207.0 L 185.0 208.0 L 186.0 208.0 L 187.0 208.0 L 188.0 208.0 L 189.0 208.0 L 190.0 208.0 L 191.0 208.0 L 191.0 209.0 L 192.0 209.0 L 193.0 209.0 L 193.0 209.0 L 194.0 209.0 L 195.0 209.0 L 195.0 209.0 L 196.0 209.0 L 196.0 209.0 L 197.0 209.0 L 197.0 210.0 L 198.0 210.0 L 198.0 210.0 L 199.0 210.0 L 199.0 210.0 L 200.0 210.0 L 201.0 210.0 L 201.0 210.0 L 202.0 210.0 L 203.0 210.0 L 204.0 210.0 L 204.0 210.0 L 205.0 210.0 L 206.0 209.0 L 206.0 209.0 L 207.0 209.0 L 208.0 209.0 L 209.0 209.0 L 210.0 209.0 L 211.0 208.0 L 212.0 208.0 L 213.0 208.0 L 214.0 208.0 L 215.0 208.0 L 216.0 208.0 L 217.0 207.0 L 218.0 207.0 L 219.0 207.0 L 220.0 207.0 L 221.0 207.0 L 222.0 207.0 L 223.0 207.0 L 224.0 207.0 L 225.0 207.0 L 226.0 207.0 L 226.0 207.0 L 227.0 207.0 L 228.0 207.0 L 229.0 207.0 L 230.0 207.0 L 231.0 207.0 L 232.0 207.0 L 233.0 207.0 L 233.0 207.0 L 234.0 207.0 L 235.0 206.0 L 236.0 206.0 L 237.0 206.0 L 238.0 206.0 L 239.0 205.0 L 239.0 205.0 L 240.0 204.0 L 240.0 204.0 " stroke="black" fill="none" stroke-width="5.0" stroke-linecap="round" stroke-linejoin="round" />
<path d="M 196.0 195.0 L 196.0 195.0 L 196.0 196.0 L 196.0 197.0 L 196.0 198.0 L 196.0 199.0 L 196.0 200.0 L 197.0 200.0 L 197.0 201.0 L 197.0 202.0 L 197.0 203.0 L 197.0 205.0 L 197.0 206.0 L 197.0 208.0 L 197.0 211.0 L 197.0 213.0 L 197.0 216.0 L 197.0 220.0 L 197.0 223.0 L 197.0 227.0 L 197.0 230.0 L 198.0 232.0 L 198.0 234.0 L 198.0 236.0 L 198.0 238.0 L 198.0 239.0 L 197.0 241.0 L 197.0 243.0 L 196.0 244.0 L 196.0 245.0 L 195.0 247.0 L 195.0 247.0 L 195.0 248.0 L 195.0 248.0 L 195.0 249.0 L 195.0 249.0 L 195.0 249.0 L 194.0 249.0 L 194.0 249.0 L 194.0 249.0 L 194.0 249.0 L 193.0 249.0 L 193.0 250.0 L 192.0 250.0 L 191.0 250.0 L 191.0 250.0 L 190.0 250.0 L 188.0 250.0 L 186.0 249.0 L 184.0 249.0 L 181.0 248.0 L 177.0 248.0 L 173.0 247.0 L 169.0 247.0 L 165.0 246.0 L 162.0 245.0 " stroke="black" fill="none" stroke-width="5.0" stroke-linecap="round" stroke-linejoin="round" />
<path d="M 105.0 219.0 L 105.0 219.0 L 105.0 219.0 L 105.0 218.0 L 104.0 218.0 L 104.0 218.0 L 104.0 218.0 L 104.0 218.0 L 105.0 219.0 L 106.0 221.0 L 108.0 225.0 L 111.0 228.0 L 114.0 232.0 L 118.0 235.0 L 123.0 239.0 L 128.0 242.0 L 132.0 244.0 " stroke="black" fill="none" stroke-width="5.0" stroke-linecap="round" stroke-linejoin="round" />
</svg>