<svg xmlns="http://www.w3.org/2000/svg" width="300" height="300" viewBox="0 0 300 300">
<path d="M 66.0 113.0 L 66.0 113.0 L 66.0 113.0 L 66.0 113.0 L 66.0 113.0 L 66.0 113.0 L 66.0 112.0 L 66.0 112.0 L 66.0 112.0 L 66.0 112.0 L 66.0 112.0 L 66.0 112.0 L 66.0 113.0 L 66.0 114.0 L 66.0 116.0 L 66.0 117.0 L 66.0 120.0 L 66.0 122.0 L 66.0 125.0 L 66.0 129.0 L 67.0 132.0 L 67.0 136.0 L 67.0 141.0 L 67.0 145.0 L 67.0 149.0 L 67.0 152.0 L 67.0 155.0 L 67.0 158.0 L 66.0 161.0 L 66.0 164.0 L 66.0 168.0 L 66.0 171.0 L 66.0 174.0 L 66.0 178.0 L 66.0 181.0 L 66.0 184.0 L 66.0 187.0 L 66.0 189.0 L 66.0 190.0 L 66.0 192.0 L 66.0 193.0 L 66.0 194.0 L 66.0 196.0 L 66.0 197.0 L 66.0 199.0 L 66.0 201.0 L 66.0 203.0 L 66.0 204.0 L 66.0 206.0 L 66.0 207.0 L 66.0 208.0 L 66.0 210.0 L 66.0 211.0 L 66.0 212.0 L 66.0 213.0 L 66.0 214.0 L 67.0 215.0 L 67.0 216.0 L 67.0 216.0 L 67.0 216.0 L 67.0 217.0 L 67.0 217.0 L 67.0 217.0 L 67.0 218.0 L 67.0 218.0 L 67.0 218.0 L 67.0 218.0 L 67.0 218.0 L 67.0 218.0 L 67.0 219.0 L 67.0 219.0 L 67.0 219.0 L 67.0 219.0 L 68.0 219.0 L 68.0 219.0 L 68.0 219.0 L 68.0 219.0 L 68.0 219.0 L 69.0 219.0 L 69.0 220.0 L 69.0 220.0 L 69.0 220.0 L 70.0 220.0 L 71.0 220.0 L 71.0 220.0 L 72.0 220.0 L 73.0 220.0 L 75.0 220.0 L 77.0 220.0 L 80.0 220.0 L 83.0 220.0 L 87.0 220.0 L 91.0 220.0 L 96.0 219.0 L 100.0 219.0 L 104.0 218.0 L 107.0 217.0 L 110.0 216.0 L 112.0 216.0 L 114.0 216.0 L 115.0 216.0 L 116.0 216.0 L 117.0 216.0 L 118.0 216.0 L 118.0 216.0 " stroke="black" fill="none" stroke-width="5.0" stroke-linecap="round" stroke-linejoin="round" />
<path d="M 91.0 77.0 L 91.0 77.0 L 91.0 78.0 L 91.0 79.0 L 91.0 80.0 L 91.0 81.0 L 91.0 83.0 L 92.0 85.0 L 92.0 87.0 L 92.0 90.0 L 92.0 94.0 L 92.0 99.0 L 92.0 103.0 L 92.0 109.0 L 91.0 114.0 L 91.0 118.0 L 91.0 123.0 L 91.0 127.0 L 91.0 131.0 L 91.0 135.0 L 91.0 139.0 L 91.0 143.0 L 91.0 148.0 L 90.0 152.0 L 90.0 156.0 L 90.0 160.0 L 90.0 163.0 L 90.0 166.0 L 90.0 170.0 L 90.0 172.0 L 90.0 175.0 L 90.0 179.0 L 90.0 182.0 L 90.0 184.0 L 90.0 188.0 L 90.0 191.0 L 90.0 194.0 L 90.0 197.0 L 90.0 200.0 L 90.0 203.0 L 90.0 206.0 L 90.0 208.0 L 91.0 210.0 L 91.0 212.0 L 91.0 214.0 L 92.0 215.0 L 92.0 216.0 L 92.0 217.0 L 92.0 218.0 L 92.0 218.0 L 92.0 218.0 " stroke="black" fill="none" stroke-width="5.0" stroke-linecap="round" stroke-linejoin="round" />
<path d="M 117.0 111.0 L 117.0 111.0 L 117.0 111.0 L 117.0 111.0 L 117.0 112.0 L 117.0 113.0 L 116.0 113.0 L 116.0 114.0 L 116.0 115.0 L 116.0 117.0 L 116.0 119.0 L 116.0 121.0 L 116.0 125.0 L 116.0 128.0 L 116.0 133.0 L 116.0 139.0 L 116.0 145.0 L 116.0 152.0 L 116.0 159.0 L 116.0 164.0 L 116.0 170.0 L 116.0 175.0 L 116.0 180.0 L 116.0 185.0 L 116.0 190.0 L 116.0 195.0 L 116.0 199.0 L 116.0 203.0 L 116.0 207.0 L 116.0 210.0 L 116.0 213.0 L 116.0 216.0 L 117.0 219.0 L 117.0 221.0 L 117.0 223.0 L 118.0 225.0 L 118.0 227.0 L 118.0 229.0 L 119.0 230.0 L 119.0 231.0 L 119.0 232.0 L 119.0 232.0 L 119.0 233.0 L 119.0 233.0 L 119.0 233.0 L 119.0 234.0 L 119.0 235.0 L 119.0 235.0 L 119.0 235.0 L 119.0 236.0 L 119.0 236.0 L 119.0 236.0 L 119.0 236.0 L 119.0 235.0 " stroke="black" fill="none" stroke-width="5.0" stroke-linecap="round" stroke-linejoin="round" />
<path d="M 179.0 74.0 L 179.0 74.0 L 180.0 73.0 L 180.0 73.0 L 181.0 72.0 L 181.0 72.0 L 182.0 71.0 L 182.0 71.0 L 182.0 71.0 L 182.0 70.0 L 182.0 70.0 L 182.0 70.0 L 182.0 71.0 L 181.0 72.0 L 180.0 75.0 L 178.0 77.0 L 176.0 81.0 L 173.0 84.0 L 170.0 89.0 L 166.0 96.0 L 161.0 103.0 L 157.0 110.0 L 153.0 115.0 L 150.0 120.0 L 147.0 123.0 L 146.0 125.0 L 145.0 125.0 L 144.0 126.0 L 144.0 126.0 " stroke="black" fill="none" stroke-width="5.0" stroke-linecap="round" stroke-linejoin="round" />
<path d="M 176.0 94.0 L 176.0 94.0 L 174.0 94.0 L 173.0 94.0 L 172.0 95.0 L 171.0 95.0 L 171.0 95.0 L 171.0 95.0 L 171.0 94.0 L 171.0 94.0 L 171.0 94.0 L 171.0 93.0 L 171.0 93.0 L 171.0 93.0 L 171.0 93.0 L 171.0 93.0 L 172.0 93.0 L 172.0 93.0 L 172.0 93.0 L 173.0 93.0 L 174.0 93.0 L 175.0 93.0 L 176.0 93.0 L 177.0 93.0 L 179.0 92.0 L 180.0 92.0 L 182.0 92.0 L 184.0 92.0 L 186.0 91.0 L 189.0 91.0 L 191.0 91.0 L 193.0 91.0 L 196.0 90.0 L 198.0 90.0 L 201.0 90.0 L 203.0 90.0 L 206.0 90.0 L 209.0 90.0 L 211.0 90.0 L 213.0 90.0 L 215.0 90.0 L 217.0 90.0 L 219.0 90.0 L 219.0 91.0 L 220.0 91.0 L 221.0 91.0 L 221.0 92.0 L 221.0 92.0 L 221.0 93.0 L 221.0 93.0 L 220.0 94.0 L 219.0 95.0 L 218.0 95.0 L 217.0 96.0 L 216.0 98.0 L 214.0 99.0 L 213.0 101.0 L 211.0 102.0 L 209.0 105.0 L 207.0 107.0 L 204.0 110.0 L 201.0 113.0 L 198.0 116.0 L 194.0 120.0 L 191.0 124.0 L 186.0 128.0 L 182.0 132.0 L 177.0 136.0 L 172.0 140.0 L 167.0 143.0 L 162.0 146.0 L 157.0 148.0 L 154.0 149.0 L 150.0 150.0 L 148.0 151.0 L 145.0 151.0 L 144.0 151.0 L 142.0 151.0 L 142.0 151.0 " stroke="black" fill="none" stroke-width="5.0" stroke-linecap="round" stroke-linejoin="round" />
<path d="M 165.0 106.0 L 165.0 105.0 L 165.0 103.0 L 165.0 102.0 L 165.0 102.0 L 165.0 101.0 L 165.0 101.0 L 165.0 101.0 L 165.0 101.0 L 165.0 102.0 L 165.0 103.0 L 165.0 105.0 L 165.0 107.0 L 166.0 109.0 L 168.0 111.0 L 169.0 113.0 L 172.0 116.0 L 175.0 118.0 L 179.0 121.0 L 183.0 124.0 L 188.0 128.0 L 192.0 132.0 L 196.0 137.0 L 201.0 142.0 L 205.0 146.0 L 209.0 150.0 L 213.0 153.0 L 217.0 155.0 L 220.0 156.0 L 223.0 157.0 L 225.0 158.0 L 226.0 159.0 L 228.0 160.0 L 229.0 160.0 L 230.0 160.0 L 232.0 160.0 " stroke="black" fill="none" stroke-width="5.0" stroke-linecap="round" stroke-linejoin="round" />
<path d="M 153.0 175.0 L 153.0 175.0 L 153.0 175.0 L 153.0 175.0 L 152.0 175.0 L 152.0 175.0 L 152.0 175.0 L 152.0 175.0 L 152.0 175.0 L 153.0 175.0 L 155.0 175.0 L 158.0 176.0 L 162.0 176.0 L 167.0 177.0 L 174.0 177.0 L 181.0 178.0 L 189.0 178.0 L 195.0 178.0 L 200.0 178.0 L 205.0 178.0 L 208.0 178.0 L 211.0 177.0 L 213.0 177.0 L 214.0 177.0 L 215.0 177.0 " stroke="black" fill="none" stroke-width="5.0" stroke-linecap="round" stroke-linejoin="round" />
<path d="M 155.0 198.0 L 155.0 198.0 L 153.0 198.0 L 152.0 198.0 L 151.0 198.0 L 151.0 198.0 L 150.0 198.0 L 150.0 198.0 L 150.0 198.0 L 151.0 198.0 L 152.0 198.0 L 154.0 198.0 L 157.0 199.0 L 162.0 199.0 L 167.0 200.0 L 173.0 200.0 L 181.0 200.0 L 188.0 200.0 L 194.0 200.0 L 200.0 199.0 L 205.0 199.0 L 208.0 199.0 L 211.0 199.0 L 212.0 200.0 L 213.0 202.0 L 213.0 204.0 " stroke="black" fill="none" stroke-width="5.0" stroke-linecap="round" stroke-linejoin="round" />
<path d="M 150.0 225.0 L 150.0 225.0 L 148.0 225.0 L 147.0 225.0 L 147.0 225.0 L 146.0 225.0 L 146.0 225.0 L 146.0 225.0 L 147.0 226.0 L 149.0 226.0 L 151.0 226.0 L 155.0 227.0 L 161.0 227.0 L 168.0 228.0 L 177.0 228.0 L 186.0 228.0 L 194.0 228.0 L 202.0 228.0 L 207.0 228.0 L 212.0 228.0 L 217.0 228.0 L 219.0 228.0 L 221.0 227.0 L 222.0 227.0 L 222.0 227.0 " stroke="black" fill="none" stroke-width="5.0" stroke-linecap="round" stroke-linejoin="round" />
<path d="M 186.0 155.0 L 186.0 155.0 L 185.0 156.0 L 184.0 157.0 L 183.0 158.0 L 183.0 159.0 L 183.0 160.0 L 183.0 162.0 L 183.0 164.0 L 184.0 167.0 L 184.0 171.0 L 185.0 177.0 L 185.0 186.0 L 185.0 195.0 L 184.0 204.0 L 184.0 214.0 L 183.0 224.0 L 183.0 233.0 L 183.0 240.0 L 183.0 244.0 L 183.0 247.0 L 183.0 248.0 L 183.0 249.0 L 183.0 249.0 L 183.0 249.0 L 182.0 249.0 L 181.0 249.0 L 180.0 249.0 " stroke="black" fill="none" stroke-width="5.0" stroke-linecap="round" stroke-linejoin="round" />
</svg>