<svg xmlns="http://www.w3.org/2000/svg" width="300" height="300" viewBox="0 0 300 300">
<path d="M 104.0 90.0 L 104.0 90.0 L 104.0 90.0 L 104.0 90.0 L 104.0 90.0 L 103.0 90.0 L 103.0 90.0 L 103.0 90.0 L 103.0 90.0 L 103.0 90.0 L 103.0 90.0 L 103.0 90.0 L 103.0 90.0 L 103.0 90.0 L 103.0 90.0 L 104.0 90.0 L 105.0 90.0 L 106.0 90.0 L 107.0 90.0 L 108.0 90.0 L 109.0 90.0 L 111.0 90.0 L 112.0 90.0 L 113.0 90.0 L 115.0 90.0 L 116.0 90.0 L 118.0 90.0 L 119.0 90.0 L 120.0 90.0 L 122.0 90.0 L 123.0 90.0 L 125.0 90.0 L 127.0 90.0 L 128.0 90.0 L 130.0 90.0 L 132.0 90.0 L 134.0 90.0 L 135.0 90.0 L 137.0 90.0 L 138.0 90.0 L 139.0 90.0 L 140.0 90.0 L 141.0 90.0 L 142.0 90.0 L 143.0 90.0 L 144.0 90.0 L 145.0 90.0 L 146.0 90.0 L 147.0 90.0 L 148.0 90.0 L 148.0 89.0 L 149.0 89.0 L 150.0 89.0 L 151.0 89.0 L 151.0 89.0 L 152.0 89.0 L 153.0 89.0 L 153.0 89.0 L 154.0 89.0 L 155.0 89.0 L 155.0 89.0 L 156.0 89.0 L 156.0 89.0 L 157.0 89.0 L 158.0 89.0 L 158.0 89.0 L 159.0 89.0 L 159.0 89.0 L 160.0 89.0 L 161.0 89.0 L 161.0 89.0 L 162.0 89.0 L 163.0 88.0 L 163.0 88.0 L 164.0 88.0 L 165.0 88.0 L 166.0 88.0 L 167.0 88.0 L 167.0 88.0 L 168.0 88.0 L 169.0 88.0 L 170.0 88.0 L 170.0 88.0 L 171.0 88.0 L 172.0 88.0 L 173.0 88.0 L 173.0 88.0 L 174.0 88.0 L 175.0 88.0 L 176.0 88.0 L 176.0 88.0 L 177.0 88.0 L 178.0 88.0 L 179.0 88.0 L 179.0 88.0 L 180.0 88.0 L 180.0 88.0 L 181.0 88.0 L 182.0 88.0 L 182.0 88.0 L 183.0 88.0 L 183.0 88.0 L 184.0 88.0 L 185.0 88.0 L 185.0 88.0 L 186.0 88.0 L 187.0 88.0 L 187.0 88.0 L 188.0 88.0 L 189.0 88.0 L 189.0 88.0 L 190.0 88.0 L 190.0 88.0 L 191.0 88.0 L 191.0 88.0 L 192.0 88.0 L 192.0 88.0 L 193.0 88.0 L 193.0 88.0 L 194.0 88.0 L 195.0 88.0 L 195.0 88.0 L 196.0 88.0 L 196.0 88.0 L 197.0 88.0 L 197.0 89.0 L 198.0 89.0 L 198.0 89.0 L 199.0 89.0 L 199.0 89.0 L 199.0 89.0 L 200.0 89.0 L 200.0 89.0 L 201.0 89.0 L 201.0 89.0 L 202.0 89.0 L 202.0 89.0 L 202.0 90.0 L 203.0 90.0 L 203.0 90.0 L 204.0 90.0 L 204.0 90.0 L 204.0 90.0 L 205.0 90.0 L 205.0 90.0 L 205.0 90.0 L 206.0 90.0 L 206.0 90.0 L 206.0 90.0 L 206.0 91.0 L 207.0 91.0 L 207.0 91.0 L 207.0 91.0 L 207.0 91.0 L 207.0 91.0 L 207.0 91.0 L 207.0 91.0 L 207.0 91.0 L 208.0 91.0 L 208.0 91.0 L 208.0 92.0 L 208.0 92.0 L 208.0 92.0 L 208.0 92.0 L 208.0 92.0 L 208.0 93.0 L 208.0 93.0 L 208.0 94.0 L 208.0 95.0 L 208.0 96.0 L 208.0 97.0 L 208.0 98.0 L 208.0 100.0 L 208.0 102.0 L 208.0 104.0 L 208.0 106.0 L 208.0 109.0 L 207.0 112.0 L 207.0 115.0 L 207.0 118.0 L 207.0 121.0 L 206.0 123.0 L 206.0 126.0 L 206.0 129.0 L 206.0 131.0 L 205.0 133.0 L 205.0 134.0 L 205.0 136.0 L 205.0 137.0 L 205.0 138.0 L 204.0 139.0 L 204.0 139.0 L 204.0 140.0 L 204.0 140.0 L 204.0 140.0 L 204.0 140.0 L 204.0 140.0 L 203.0 140.0 L 203.0 140.0 L 203.0 140.0 L 203.0 139.0 " stroke="black" fill="none" stroke-width="5.0" stroke-linecap="round" stroke-linejoin="round" />
<path d="M 102.0 147.0 L 102.0 147.0 L 102.0 147.0 L 102.0 147.0 L 102.0 147.0 L 101.0 147.0 L 101.0 147.0 L 101.0 147.0 L 101.0 147.0 L 101.0 147.0 L 101.0 147.0 L 101.0 146.0 L 101.0 146.0 L 101.0 146.0 L 101.0 146.0 L 102.0 146.0 L 104.0 146.0 L 105.0 146.0 L 107.0 147.0 L 109.0 147.0 L 112.0 147.0 L 114.0 147.0 L 117.0 147.0 L 119.0 147.0 L 122.0 147.0 L 125.0 147.0 L 128.0 147.0 L 130.0 147.0 L 133.0 147.0 L 135.0 147.0 L 137.0 147.0 L 138.0 147.0 L 140.0 147.0 L 142.0 147.0 L 143.0 147.0 L 144.0 146.0 L 146.0 146.0 L 147.0 146.0 L 148.0 146.0 L 150.0 146.0 L 151.0 146.0 L 152.0 146.0 L 153.0 146.0 L 154.0 146.0 L 155.0 146.0 L 156.0 145.0 L 157.0 145.0 L 158.0 145.0 L 160.0 145.0 L 161.0 145.0 L 162.0 145.0 L 163.0 145.0 L 165.0 145.0 L 166.0 145.0 L 167.0 144.0 L 169.0 144.0 L 170.0 144.0 L 171.0 144.0 L 172.0 144.0 L 174.0 144.0 L 175.0 144.0 L 176.0 144.0 L 177.0 144.0 L 178.0 144.0 L 179.0 144.0 L 180.0 144.0 L 181.0 143.0 L 182.0 143.0 L 183.0 143.0 L 184.0 143.0 L 185.0 143.0 L 185.0 142.0 L 186.0 142.0 L 187.0 142.0 L 188.0 142.0 L 189.0 141.0 L 190.0 141.0 L 191.0 141.0 L 192.0 141.0 L 192.0 141.0 L 193.0 141.0 L 193.0 140.0 L 194.0 140.0 L 194.0 140.0 L 194.0 140.0 L 194.0 140.0 L 194.0 140.0 " stroke="black" fill="none" stroke-width="5.0" stroke-linecap="round" stroke-linejoin="round" />
<path d="M 105.0 92.0 L 105.0 92.0 L 104.0 92.0 L 104.0 93.0 L 104.0 93.0 L 104.0 94.0 L 104.0 94.0 L 103.0 95.0 L 103.0 95.0 L 103.0 96.0 L 103.0 96.0 L 103.0 96.0 L 103.0 97.0 L 103.0 97.0 " stroke="black" fill="none" stroke-width="5.0" stroke-linecap="round" stroke-linejoin="round" />
<path d="M 102.0 93.0 L 102.0 93.0 L 102.0 93.0 L 102.0 93.0 L 102.0 93.0 L 102.0 93.0 L 102.0 93.0 L 102.0 92.0 L 102.0 92.0 L 102.0 92.0 L 102.0 92.0 L 102.0 92.0 L 102.0 92.0 L 102.0 92.0 L 102.0 92.0 L 102.0 92.0 L 102.0 93.0 L 101.0 95.0 L 101.0 97.0 L 101.0 100.0 L 101.0 105.0 L 100.0 110.0 L 100.0 115.0 L 100.0 121.0 L 99.0 125.0 L 99.0 129.0 L 98.0 133.0 L 98.0 136.0 L 98.0 138.0 L 97.0 141.0 L 97.0 143.0 L 96.0 146.0 L 96.0 149.0 L 96.0 152.0 L 95.0 156.0 L 95.0 160.0 L 95.0 163.0 L 95.0 167.0 L 95.0 170.0 L 94.0 173.0 L 94.0 176.0 L 93.0 179.0 L 93.0 181.0 L 92.0 184.0 L 92.0 186.0 L 91.0 189.0 L 91.0 192.0 L 90.0 195.0 L 89.0 199.0 L 89.0 203.0 L 88.0 207.0 L 87.0 211.0 L 86.0 215.0 L 84.0 219.0 L 83.0 222.0 L 81.0 225.0 L 79.0 229.0 L 77.0 233.0 L 75.0 237.0 L 73.0 242.0 L 71.0 246.0 L 69.0 249.0 L 68.0 252.0 L 66.0 252.0 L 66.0 252.0 " stroke="black" fill="none" stroke-width="5.0" stroke-linecap="round" stroke-linejoin="round" />
<path d="M 103.0 160.0 L 103.0 160.0 L 103.0 159.0 L 103.0 159.0 L 103.0 158.0 L 103.0 158.0 L 103.0 157.0 L 103.0 157.0 L 103.0 156.0 L 103.0 156.0 L 103.0 156.0 L 103.0 156.0 L 103.0 156.0 L 103.0 156.0 L 103.0 156.0 L 103.0 157.0 L 103.0 159.0 L 104.0 160.0 L 104.0 162.0 L 105.0 164.0 L 106.0 166.0 L 106.0 168.0 L 107.0 170.0 L 108.0 172.0 L 109.0 173.0 L 111.0 175.0 L 112.0 177.0 L 113.0 178.0 L 115.0 180.0 L 117.0 181.0 L 118.0 182.0 L 120.0 183.0 L 121.0 184.0 L 123.0 185.0 L 125.0 186.0 L 126.0 187.0 L 128.0 188.0 L 130.0 189.0 L 132.0 189.0 L 134.0 190.0 L 136.0 191.0 L 137.0 192.0 L 139.0 193.0 L 140.0 194.0 L 141.0 195.0 L 143.0 196.0 L 144.0 197.0 L 145.0 199.0 L 146.0 200.0 L 147.0 202.0 L 148.0 203.0 L 148.0 204.0 L 149.0 205.0 L 150.0 206.0 L 151.0 207.0 L 152.0 209.0 L 153.0 209.0 L 154.0 211.0 L 155.0 211.0 L 156.0 212.0 L 157.0 213.0 L 158.0 214.0 L 159.0 214.0 L 160.0 215.0 L 161.0 216.0 L 162.0 217.0 L 163.0 218.0 L 164.0 218.0 L 165.0 219.0 L 166.0 220.0 L 168.0 221.0 L 169.0 222.0 L 171.0 223.0 L 172.0 224.0 L 173.0 225.0 L 175.0 225.0 L 176.0 226.0 L 177.0 227.0 L 179.0 228.0 L 180.0 228.0 L 181.0 229.0 L 182.0 230.0 L 184.0 231.0 L 185.0 232.0 L 186.0 233.0 L 188.0 235.0 L 189.0 236.0 L 190.0 237.0 L 192.0 238.0 L 193.0 239.0 L 195.0 240.0 L 197.0 241.0 L 199.0 242.0 L 201.0 242.0 L 203.0 243.0 L 205.0 244.0 L 207.0 245.0 L 210.0 246.0 L 212.0 246.0 L 215.0 247.0 L 217.0 248.0 L 219.0 248.0 L 221.0 248.0 L 223.0 248.0 L 224.0 248.0 L 225.0 248.0 L 226.0 248.0 L 226.0 248.0 L 226.0 248.0 L 226.0 248.0 L 226.0 248.0 L 226.0 248.0 L 225.0 248.0 " stroke="black" fill="none" stroke-width="5.0" stroke-linecap="round" stroke-linejoin="round" />
</svg>