<svg xmlns="http://www.w3.org/2000/svg" width="300" height="300" viewBox="0 0 300 300">
<path d="M 76.0 98.0 L 76.0 98.0 L 76.0 98.0 L 75.0 98.0 L 75.0 98.0 L 74.0 98.0 L 74.0 98.0 L 74.0 98.0 L 74.0 98.0 L 74.0 99.0 L 75.0 100.0 L 77.0 101.0 L 81.0 102.0 L 86.0 102.0 L 92.0 103.0 L 98.0 103.0 L 105.0 103.0 L 111.0 102.0 L 117.0 101.0 L 123.0 100.0 L 128.0 100.0 L 133.0 100.0 L 136.0 101.0 L 138.0 103.0 L 138.0 105.0 " stroke="black" fill="none" stroke-width="5.0" stroke-linecap="round" stroke-linejoin="round" />
<path d="M 112.0 78.0 L 112.0 78.0 L 112.0 78.0 L 111.0 78.0 L 111.0 78.0 L 110.0 78.0 L 110.0 78.0 L 109.0 80.0 L 109.0 83.0 L 109.0 88.0 L 108.0 95.0 L 108.0 103.0 L 108.0 111.0 L 107.0 120.0 L 107.0 127.0 L 106.0 134.0 L 105.0 140.0 L 105.0 144.0 L 104.0 146.0 L 104.0 147.0 " stroke="black" fill="none" stroke-width="5.0" stroke-linecap="round" stroke-linejoin="round" />
<path d="M 69.0 139.0 L 68.0 139.0 L 66.0 139.0 L 64.0 140.0 L 62.0 141.0 L 61.0 143.0 L 60.0 144.0 L 60.0 145.0 L 60.0 146.0 L 60.0 146.0 L 61.0 146.0 L 63.0 147.0 L 66.0 147.0 L 69.0 147.0 L 74.0 147.0 L 80.0 146.0 L 88.0 146.0 L 96.0 145.0 L 105.0 144.0 L 113.0 144.0 L 120.0 143.0 L 128.0 143.0 L 135.0 143.0 L 141.0 143.0 L 145.0 144.0 " stroke="black" fill="none" stroke-width="5.0" stroke-linecap="round" stroke-linejoin="round" />
<path d="M 81.0 184.0 L 80.0 184.0 L 78.0 184.0 L 75.0 184.0 L 74.0 184.0 L 73.0 184.0 L 73.0 184.0 L 73.0 184.0 L 73.0 184.0 L 75.0 184.0 L 79.0 185.0 L 84.0 185.0 L 91.0 186.0 L 97.0 186.0 L 103.0 186.0 L 109.0 186.0 L 115.0 184.0 L 121.0 183.0 L 126.0 182.0 L 131.0 181.0 L 134.0 180.0 L 135.0 180.0 L 135.0 180.0 " stroke="black" fill="none" stroke-width="5.0" stroke-linecap="round" stroke-linejoin="round" />
<path d="M 108.0 162.0 L 108.0 162.0 L 107.0 162.0 L 106.0 162.0 L 105.0 163.0 L 105.0 164.0 L 105.0 165.0 L 105.0 167.0 L 105.0 171.0 L 105.0 176.0 L 105.0 183.0 L 104.0 191.0 L 104.0 199.0 L 103.0 207.0 L 103.0 213.0 L 101.0 218.0 L 100.0 224.0 L 99.0 228.0 L 98.0 231.0 L 96.0 234.0 L 95.0 236.0 L 94.0 236.0 " stroke="black" fill="none" stroke-width="5.0" stroke-linecap="round" stroke-linejoin="round" />
<path d="M 81.0 243.0 L 79.0 243.0 L 77.0 243.0 L 76.0 243.0 L 73.0 243.0 L 72.0 243.0 L 70.0 243.0 L 69.0 243.0 L 68.0 243.0 L 67.0 243.0 L 67.0 243.0 L 67.0 243.0 L 67.0 243.0 L 67.0 243.0 L 68.0 243.0 L 70.0 243.0 L 72.0 243.0 L 76.0 243.0 L 81.0 242.0 L 87.0 241.0 L 94.0 239.0 L 101.0 237.0 L 109.0 236.0 L 116.0 234.0 L 123.0 233.0 L 129.0 233.0 L 135.0 233.0 L 140.0 233.0 L 145.0 235.0 " stroke="black" fill="none" stroke-width="5.0" stroke-linecap="round" stroke-linejoin="round" />
<path d="M 179.0 122.0 L 178.0 122.0 L 176.0 122.0 L 174.0 122.0 L 171.0 122.0 L 170.0 122.0 L 169.0 123.0 L 168.0 123.0 L 168.0 124.0 L 168.0 124.0 L 168.0 124.0 L 171.0 125.0 L 175.0 125.0 L 181.0 125.0 L 186.0 125.0 L 192.0 125.0 L 199.0 125.0 L 207.0 125.0 L 217.0 124.0 L 227.0 123.0 L 235.0 122.0 L 241.0 120.0 L 245.0 119.0 L 248.0 119.0 L 248.0 118.0 " stroke="black" fill="none" stroke-width="5.0" stroke-linecap="round" stroke-linejoin="round" />
<path d="M 217.0 85.0 L 217.0 85.0 L 216.0 86.0 L 216.0 87.0 L 216.0 88.0 L 216.0 90.0 L 216.0 92.0 L 216.0 95.0 L 216.0 98.0 L 217.0 102.0 L 218.0 106.0 L 218.0 111.0 L 219.0 116.0 L 219.0 122.0 L 219.0 128.0 L 219.0 135.0 L 219.0 142.0 L 218.0 150.0 L 218.0 157.0 L 217.0 163.0 L 217.0 169.0 L 216.0 175.0 L 216.0 181.0 L 216.0 186.0 L 215.0 192.0 L 215.0 196.0 L 215.0 199.0 L 214.0 203.0 L 214.0 206.0 L 214.0 209.0 L 213.0 213.0 L 213.0 217.0 L 212.0 221.0 L 212.0 225.0 L 212.0 229.0 L 211.0 232.0 L 211.0 236.0 L 211.0 238.0 L 211.0 241.0 L 211.0 243.0 L 211.0 245.0 L 211.0 246.0 L 210.0 247.0 L 210.0 248.0 L 210.0 249.0 L 209.0 250.0 L 209.0 251.0 L 208.0 252.0 L 208.0 252.0 L 207.0 253.0 L 207.0 254.0 L 206.0 254.0 L 205.0 255.0 L 205.0 255.0 L 204.0 255.0 L 202.0 255.0 L 201.0 254.0 L 199.0 253.0 L 197.0 251.0 L 194.0 249.0 L 191.0 247.0 L 189.0 245.0 L 186.0 243.0 L 184.0 242.0 " stroke="black" fill="none" stroke-width="5.0" stroke-linecap="round" stroke-linejoin="round" />
<path d="M 173.0 161.0 L 173.0 161.0 L 172.0 160.0 L 171.0 160.0 L 171.0 160.0 L 171.0 160.0 L 171.0 160.0 L 172.0 160.0 L 173.0 162.0 L 176.0 164.0 L 178.0 168.0 L 181.0 173.0 L 184.0 181.0 L 187.0 189.0 L 190.0 198.0 L 193.0 207.0 L 196.0 213.0 " stroke="black" fill="none" stroke-width="5.0" stroke-linecap="round" stroke-linejoin="round" />
</svg>