<svg xmlns="http://www.w3.org/2000/svg" width="300" height="300" viewBox="0 0 300 300">
<path d="M 102.0 84.0 L 102.0 84.0 L 101.0 84.0 L 100.0 84.0 L 100.0 84.0 L 99.0 84.0 L 99.0 84.0 L 99.0 83.0 L 99.0 83.0 L 99.0 83.0 L 99.0 83.0 L 99.0 83.0 L 99.0 83.0 L 99.0 83.0 L 99.0 83.0 L 100.0 84.0 L 101.0 84.0 L 101.0 84.0 L 103.0 84.0 L 104.0 84.0 L 105.0 84.0 L 106.0 84.0 L 107.0 84.0 L 108.0 85.0 L 109.0 85.0 L 111.0 85.0 L 112.0 85.0 L 113.0 85.0 L 115.0 85.0 L 116.0 85.0 L 118.0 85.0 L 120.0 85.0 L 122.0 85.0 L 124.0 85.0 L 126.0 85.0 L 127.0 85.0 L 130.0 85.0 L 131.0 85.0 L 133.0 85.0 L 135.0 85.0 L 137.0 85.0 L 139.0 85.0 L 141.0 84.0 L 142.0 84.0 L 144.0 84.0 L 145.0 84.0 L 146.0 84.0 L 147.0 83.0 L 148.0 83.0 L 148.0 83.0 L 149.0 83.0 L 149.0 83.0 L 150.0 83.0 L 151.0 83.0 L 151.0 83.0 L 152.0 83.0 L 153.0 83.0 L 153.0 83.0 L 154.0 83.0 L 155.0 83.0 L 155.0 83.0 L 156.0 83.0 L 157.0 83.0 L 158.0 83.0 L 158.0 83.0 L 159.0 83.0 L 160.0 83.0 L 161.0 83.0 L 162.0 83.0 L 163.0 83.0 L 164.0 83.0 L 165.0 83.0 L 166.0 83.0 L 168.0 83.0 L 169.0 83.0 L 170.0 83.0 L 172.0 83.0 L 173.0 83.0 L 174.0 83.0 L 176.0 83.0 L 177.0 83.0 L 179.0 83.0 L 181.0 83.0 L 182.0 83.0 L 184.0 83.0 L 186.0 83.0 L 187.0 83.0 L 189.0 83.0 L 191.0 83.0 L 192.0 83.0 L 194.0 83.0 L 195.0 82.0 L 196.0 82.0 L 198.0 82.0 L 199.0 82.0 L 201.0 82.0 L 202.0 81.0 L 204.0 81.0 L 205.0 81.0 L 206.0 81.0 L 207.0 81.0 L 208.0 81.0 L 210.0 81.0 L 210.0 82.0 L 211.0 82.0 L 212.0 82.0 L 213.0 83.0 L 214.0 83.0 L 214.0 83.0 L 215.0 84.0 L 215.0 84.0 L 216.0 84.0 L 216.0 85.0 L 216.0 85.0 L 217.0 86.0 L 217.0 87.0 L 217.0 88.0 L 217.0 90.0 L 217.0 94.0 L 217.0 98.0 L 216.0 102.0 L 215.0 106.0 L 214.0 110.0 L 214.0 114.0 L 213.0 116.0 L 213.0 119.0 L 212.0 120.0 L 212.0 121.0 " stroke="black" fill="none" stroke-width="5.0" stroke-linecap="round" stroke-linejoin="round" />
<path d="M 101.0 126.0 L 101.0 126.0 L 101.0 126.0 L 100.0 126.0 L 100.0 126.0 L 99.0 126.0 L 99.0 126.0 L 99.0 127.0 L 98.0 127.0 L 98.0 127.0 L 99.0 127.0 L 100.0 128.0 L 102.0 128.0 L 105.0 128.0 L 108.0 128.0 L 112.0 128.0 L 116.0 128.0 L 121.0 129.0 L 127.0 129.0 L 133.0 130.0 L 140.0 130.0 L 147.0 131.0 L 152.0 131.0 L 158.0 131.0 L 164.0 131.0 L 171.0 131.0 L 180.0 131.0 L 188.0 131.0 L 194.0 130.0 L 198.0 129.0 L 202.0 128.0 L 205.0 128.0 L 207.0 127.0 L 208.0 127.0 L 209.0 126.0 L 209.0 126.0 L 208.0 127.0 " stroke="black" fill="none" stroke-width="5.0" stroke-linecap="round" stroke-linejoin="round" />
<path d="M 94.0 84.0 L 94.0 84.0 L 94.0 84.0 L 94.0 84.0 L 93.0 84.0 L 93.0 85.0 L 93.0 85.0 L 93.0 87.0 L 93.0 88.0 L 93.0 90.0 L 93.0 94.0 L 93.0 98.0 L 93.0 104.0 L 93.0 110.0 L 92.0 117.0 L 91.0 124.0 L 90.0 130.0 L 89.0 137.0 L 88.0 143.0 L 88.0 149.0 L 87.0 155.0 L 86.0 160.0 L 85.0 166.0 L 84.0 170.0 L 83.0 174.0 L 82.0 179.0 L 81.0 184.0 L 80.0 189.0 L 78.0 195.0 L 76.0 200.0 L 74.0 205.0 L 71.0 211.0 L 69.0 217.0 L 66.0 223.0 L 63.0 229.0 L 61.0 233.0 L 59.0 236.0 L 57.0 238.0 L 57.0 238.0 " stroke="black" fill="none" stroke-width="5.0" stroke-linecap="round" stroke-linejoin="round" />
<path d="M 139.0 180.0 L 139.0 180.0 L 138.0 180.0 L 137.0 180.0 L 136.0 180.0 L 135.0 180.0 L 135.0 180.0 L 135.0 180.0 L 135.0 180.0 L 135.0 180.0 L 136.0 180.0 L 137.0 180.0 L 139.0 180.0 L 141.0 181.0 L 144.0 181.0 L 146.0 181.0 L 149.0 181.0 L 152.0 182.0 L 156.0 182.0 L 161.0 182.0 L 167.0 183.0 L 173.0 183.0 L 180.0 183.0 L 187.0 183.0 L 193.0 183.0 L 197.0 183.0 L 202.0 183.0 L 206.0 183.0 L 209.0 182.0 L 214.0 182.0 L 217.0 181.0 L 219.0 180.0 L 222.0 180.0 L 223.0 179.0 L 223.0 179.0 " stroke="black" fill="none" stroke-width="5.0" stroke-linecap="round" stroke-linejoin="round" />
<path d="M 135.0 157.0 L 135.0 157.0 L 135.0 157.0 L 135.0 157.0 L 135.0 157.0 L 135.0 157.0 L 135.0 157.0 L 135.0 157.0 L 135.0 157.0 L 135.0 157.0 L 135.0 157.0 L 135.0 158.0 L 135.0 159.0 L 135.0 160.0 L 135.0 161.0 L 135.0 163.0 L 135.0 165.0 L 135.0 167.0 L 135.0 169.0 L 135.0 172.0 L 135.0 176.0 L 135.0 179.0 L 135.0 183.0 L 135.0 187.0 L 135.0 190.0 L 135.0 193.0 L 135.0 196.0 L 135.0 198.0 L 135.0 200.0 L 135.0 202.0 L 135.0 204.0 L 135.0 205.0 L 135.0 207.0 L 135.0 208.0 L 135.0 210.0 L 135.0 211.0 L 135.0 212.0 L 135.0 213.0 L 135.0 215.0 L 135.0 216.0 L 135.0 217.0 L 135.0 219.0 L 135.0 220.0 L 135.0 222.0 L 135.0 223.0 L 135.0 225.0 L 135.0 226.0 L 135.0 227.0 L 135.0 228.0 L 135.0 228.0 L 136.0 229.0 L 136.0 230.0 L 136.0 230.0 L 136.0 231.0 L 136.0 231.0 L 136.0 232.0 L 136.0 233.0 L 136.0 233.0 L 136.0 234.0 L 136.0 235.0 L 136.0 235.0 L 137.0 236.0 L 137.0 237.0 L 137.0 237.0 L 137.0 237.0 L 138.0 238.0 L 138.0 238.0 L 139.0 239.0 L 140.0 239.0 L 141.0 239.0 L 142.0 240.0 L 143.0 240.0 L 144.0 241.0 L 145.0 241.0 L 146.0 241.0 L 147.0 242.0 L 148.0 242.0 L 150.0 242.0 L 152.0 242.0 L 153.0 242.0 L 155.0 242.0 L 158.0 242.0 L 160.0 241.0 L 163.0 240.0 L 166.0 240.0 L 169.0 240.0 L 173.0 240.0 L 177.0 240.0 L 180.0 240.0 L 184.0 241.0 L 187.0 241.0 L 191.0 242.0 L 194.0 242.0 L 198.0 242.0 L 201.0 242.0 L 205.0 241.0 L 209.0 241.0 L 212.0 240.0 L 216.0 240.0 L 219.0 240.0 L 221.0 240.0 L 224.0 240.0 L 225.0 240.0 L 227.0 240.0 L 228.0 240.0 L 229.0 240.0 L 229.0 239.0 L 230.0 238.0 L 231.0 237.0 L 231.0 236.0 L 232.0 235.0 L 232.0 233.0 L 232.0 232.0 L 232.0 230.0 L 232.0 227.0 L 231.0 225.0 L 231.0 221.0 L 230.0 217.0 L 230.0 212.0 L 230.0 208.0 L 230.0 204.0 L 230.0 202.0 " stroke="black" fill="none" stroke-width="5.0" stroke-linecap="round" stroke-linejoin="round" />
</svg>