<svg xmlns="http://www.w3.org/2000/svg" width="300" height="300" viewBox="0 0 300 300">
<path d="M 89.0 81.0 L 89.0 81.0 L 89.0 82.0 L 88.0 82.0 L 88.0 82.0 L 87.0 82.0 L 87.0 82.0 L 87.0 82.0 L 87.0 82.0 L 87.0 82.0 L 87.0 82.0 L 87.0 82.0 L 87.0 82.0 L 88.0 82.0 L 89.0 82.0 L 90.0 82.0 L 91.0 82.0 L 92.0 82.0 L 93.0 82.0 L 94.0 82.0 L 95.0 81.0 L 96.0 81.0 L 98.0 81.0 L 99.0 81.0 L 101.0 80.0 L 102.0 80.0 L 104.0 80.0 L 105.0 80.0 L 106.0 79.0 L 108.0 79.0 L 109.0 79.0 L 110.0 78.0 L 112.0 78.0 L 113.0 78.0 L 114.0 77.0 L 116.0 77.0 L 117.0 77.0 L 118.0 76.0 L 120.0 76.0 L 121.0 76.0 L 122.0 76.0 L 124.0 76.0 L 125.0 76.0 L 127.0 76.0 L 129.0 76.0 L 131.0 76.0 L 133.0 75.0 L 135.0 75.0 L 137.0 75.0 L 139.0 75.0 L 140.0 75.0 L 142.0 75.0 L 143.0 75.0 L 144.0 75.0 L 145.0 75.0 L 145.0 75.0 L 146.0 75.0 L 146.0 75.0 L 147.0 75.0 L 148.0 75.0 L 148.0 75.0 L 149.0 75.0 L 150.0 75.0 L 151.0 75.0 L 152.0 75.0 L 153.0 75.0 L 154.0 75.0 L 155.0 75.0 L 157.0 75.0 L 158.0 75.0 L 159.0 75.0 L 161.0 75.0 L 162.0 75.0 L 163.0 74.0 L 165.0 74.0 L 166.0 73.0 L 167.0 73.0 L 169.0 73.0 L 170.0 73.0 L 172.0 72.0 L 174.0 72.0 L 176.0 72.0 L 178.0 72.0 L 180.0 71.0 L 182.0 71.0 L 184.0 71.0 L 186.0 71.0 L 187.0 71.0 L 189.0 71.0 L 190.0 71.0 L 192.0 71.0 L 193.0 71.0 L 194.0 71.0 L 195.0 71.0 L 196.0 71.0 L 197.0 71.0 L 198.0 71.0 L 198.0 71.0 L 199.0 72.0 L 200.0 72.0 L 201.0 72.0 L 202.0 72.0 L 203.0 73.0 L 204.0 73.0 L 206.0 73.0 L 207.0 73.0 L 208.0 73.0 L 209.0 74.0 L 211.0 74.0 L 212.0 74.0 L 213.0 74.0 L 214.0 74.0 L 216.0 75.0 L 217.0 75.0 L 218.0 75.0 L 219.0 75.0 L 220.0 76.0 L 221.0 76.0 L 221.0 76.0 L 222.0 76.0 L 222.0 77.0 L 223.0 77.0 L 223.0 78.0 L 223.0 79.0 L 223.0 80.0 L 224.0 81.0 L 224.0 83.0 L 224.0 84.0 L 224.0 86.0 L 224.0 88.0 L 224.0 90.0 L 223.0 92.0 L 223.0 95.0 L 222.0 97.0 L 221.0 100.0 L 221.0 102.0 " stroke="black" fill="none" stroke-width="5.0" stroke-linecap="round" stroke-linejoin="round" />
<path d="M 94.0 107.0 L 94.0 107.0 L 93.0 107.0 L 92.0 107.0 L 92.0 106.0 L 92.0 106.0 L 92.0 106.0 L 92.0 106.0 L 93.0 106.0 L 94.0 106.0 L 97.0 105.0 L 100.0 105.0 L 104.0 105.0 L 109.0 105.0 L 114.0 105.0 L 122.0 105.0 L 132.0 105.0 L 142.0 105.0 L 151.0 104.0 L 160.0 104.0 L 169.0 103.0 L 179.0 102.0 L 187.0 102.0 L 193.0 102.0 L 197.0 102.0 L 200.0 103.0 L 202.0 104.0 L 204.0 105.0 L 207.0 106.0 L 209.0 106.0 L 210.0 106.0 " stroke="black" fill="none" stroke-width="5.0" stroke-linecap="round" stroke-linejoin="round" />
<path d="M 85.0 84.0 L 85.0 84.0 L 85.0 84.0 L 86.0 84.0 L 86.0 84.0 L 86.0 84.0 L 87.0 84.0 L 87.0 86.0 L 88.0 89.0 L 88.0 95.0 L 89.0 102.0 L 89.0 110.0 L 90.0 119.0 L 90.0 129.0 L 91.0 140.0 L 91.0 153.0 L 90.0 166.0 L 88.0 178.0 L 86.0 190.0 L 82.0 202.0 L 78.0 210.0 L 74.0 218.0 L 71.0 227.0 L 67.0 234.0 L 64.0 239.0 L 62.0 243.0 L 61.0 246.0 L 61.0 246.0 " stroke="black" fill="none" stroke-width="5.0" stroke-linecap="round" stroke-linejoin="round" />
<path d="M 121.0 125.0 L 120.0 125.0 L 120.0 125.0 L 119.0 124.0 L 119.0 124.0 L 118.0 124.0 L 118.0 124.0 L 118.0 125.0 L 118.0 127.0 L 119.0 130.0 L 119.0 133.0 L 120.0 137.0 L 120.0 142.0 L 120.0 146.0 L 120.0 150.0 L 120.0 154.0 L 120.0 156.0 L 121.0 158.0 " stroke="black" fill="none" stroke-width="5.0" stroke-linecap="round" stroke-linejoin="round" />
<path d="M 127.0 126.0 L 127.0 126.0 L 126.0 126.0 L 126.0 126.0 L 126.0 126.0 L 126.0 126.0 L 125.0 126.0 L 125.0 126.0 L 125.0 126.0 L 125.0 126.0 L 126.0 126.0 L 127.0 126.0 L 128.0 126.0 L 130.0 126.0 L 132.0 126.0 L 135.0 125.0 L 138.0 125.0 L 141.0 125.0 L 144.0 125.0 L 147.0 125.0 L 150.0 124.0 L 153.0 124.0 L 156.0 124.0 L 160.0 124.0 L 163.0 123.0 L 167.0 123.0 L 171.0 123.0 L 174.0 123.0 L 178.0 123.0 L 181.0 123.0 L 184.0 123.0 L 187.0 123.0 L 190.0 123.0 L 192.0 123.0 L 194.0 123.0 L 195.0 124.0 L 197.0 125.0 L 198.0 125.0 L 200.0 126.0 L 201.0 127.0 L 202.0 127.0 L 204.0 127.0 L 205.0 127.0 L 207.0 127.0 L 208.0 127.0 L 209.0 127.0 L 210.0 127.0 L 211.0 127.0 L 212.0 127.0 L 212.0 127.0 L 213.0 128.0 L 213.0 128.0 L 213.0 128.0 L 213.0 129.0 L 213.0 129.0 L 213.0 130.0 L 212.0 132.0 L 211.0 133.0 L 209.0 135.0 L 207.0 138.0 L 206.0 140.0 L 204.0 143.0 L 203.0 146.0 L 201.0 148.0 L 201.0 151.0 L 200.0 153.0 L 199.0 155.0 " stroke="black" fill="none" stroke-width="5.0" stroke-linecap="round" stroke-linejoin="round" />
<path d="M 113.0 155.0 L 113.0 155.0 L 112.0 154.0 L 112.0 154.0 L 112.0 154.0 L 112.0 154.0 L 113.0 154.0 L 115.0 154.0 L 119.0 154.0 L 124.0 154.0 L 131.0 154.0 L 140.0 154.0 L 149.0 155.0 L 158.0 155.0 L 169.0 155.0 L 180.0 155.0 L 189.0 154.0 L 195.0 153.0 L 198.0 153.0 L 200.0 153.0 L 200.0 153.0 L 200.0 154.0 L 200.0 154.0 " stroke="black" fill="none" stroke-width="5.0" stroke-linecap="round" stroke-linejoin="round" />
<path d="M 102.0 142.0 L 102.0 142.0 L 101.0 142.0 L 101.0 142.0 L 100.0 142.0 L 100.0 142.0 L 100.0 142.0 L 100.0 141.0 L 101.0 141.0 L 102.0 141.0 L 105.0 141.0 L 108.0 140.0 L 114.0 140.0 L 122.0 140.0 L 133.0 139.0 L 146.0 138.0 L 160.0 136.0 L 176.0 135.0 L 189.0 133.0 L 199.0 132.0 L 206.0 131.0 L 212.0 131.0 L 218.0 131.0 L 223.0 131.0 L 227.0 131.0 L 229.0 132.0 L 230.0 132.0 L 231.0 134.0 L 232.0 135.0 L 232.0 135.0 " stroke="black" fill="none" stroke-width="5.0" stroke-linecap="round" stroke-linejoin="round" />
<path d="M 112.0 171.0 L 112.0 171.0 L 111.0 170.0 L 110.0 170.0 L 110.0 170.0 L 110.0 170.0 L 110.0 170.0 L 110.0 171.0 L 110.0 173.0 L 111.0 176.0 L 112.0 178.0 L 113.0 181.0 L 114.0 184.0 L 115.0 186.0 L 116.0 188.0 L 117.0 190.0 L 117.0 191.0 " stroke="black" fill="none" stroke-width="5.0" stroke-linecap="round" stroke-linejoin="round" />
<path d="M 113.0 173.0 L 113.0 173.0 L 113.0 173.0 L 113.0 172.0 L 112.0 171.0 L 112.0 171.0 L 112.0 171.0 L 112.0 170.0 L 113.0 170.0 L 114.0 170.0 L 117.0 169.0 L 119.0 169.0 L 123.0 168.0 L 128.0 168.0 L 134.0 168.0 L 141.0 167.0 L 147.0 167.0 L 153.0 167.0 L 159.0 167.0 L 167.0 167.0 L 175.0 167.0 L 184.0 167.0 L 191.0 166.0 L 196.0 166.0 L 200.0 166.0 L 204.0 166.0 L 206.0 166.0 L 209.0 166.0 L 212.0 166.0 L 213.0 166.0 L 215.0 167.0 L 216.0 168.0 L 216.0 169.0 L 216.0 170.0 L 216.0 172.0 L 216.0 173.0 L 214.0 175.0 L 212.0 177.0 L 210.0 180.0 L 207.0 182.0 L 203.0 185.0 L 202.0 187.0 " stroke="black" fill="none" stroke-width="5.0" stroke-linecap="round" stroke-linejoin="round" />
<path d="M 122.0 196.0 L 119.0 196.0 L 117.0 195.0 L 115.0 195.0 L 114.0 195.0 L 114.0 195.0 L 114.0 195.0 L 115.0 195.0 L 117.0 195.0 L 121.0 195.0 L 127.0 195.0 L 135.0 195.0 L 143.0 194.0 L 152.0 194.0 L 162.0 192.0 L 174.0 190.0 L 186.0 188.0 L 194.0 186.0 L 199.0 184.0 L 203.0 182.0 L 204.0 181.0 L 204.0 180.0 " stroke="black" fill="none" stroke-width="5.0" stroke-linecap="round" stroke-linejoin="round" />
<path d="M 161.0 114.0 L 161.0 114.0 L 160.0 113.0 L 160.0 113.0 L 159.0 112.0 L 159.0 112.0 L 159.0 112.0 L 160.0 112.0 L 161.0 112.0 L 162.0 113.0 L 164.0 115.0 L 165.0 118.0 L 167.0 122.0 L 168.0 128.0 L 169.0 135.0 L 170.0 144.0 L 170.0 155.0 L 170.0 165.0 L 170.0 175.0 L 169.0 185.0 L 167.0 193.0 L 167.0 199.0 L 166.0 202.0 L 166.0 203.0 L 166.0 203.0 L 166.0 203.0 " stroke="black" fill="none" stroke-width="5.0" stroke-linecap="round" stroke-linejoin="round" />
<path d="M 100.0 213.0 L 100.0 213.0 L 99.0 213.0 L 98.0 214.0 L 98.0 214.0 L 97.0 214.0 L 97.0 215.0 L 97.0 215.0 L 98.0 215.0 L 100.0 215.0 L 103.0 216.0 L 106.0 216.0 L 112.0 216.0 L 119.0 216.0 L 130.0 215.0 L 142.0 213.0 L 153.0 212.0 L 164.0 210.0 L 174.0 209.0 L 183.0 209.0 L 191.0 208.0 L 196.0 208.0 L 199.0 208.0 L 202.0 208.0 L 204.0 208.0 L 206.0 208.0 L 208.0 209.0 L 209.0 209.0 L 210.0 210.0 " stroke="black" fill="none" stroke-width="5.0" stroke-linecap="round" stroke-linejoin="round" />
<path d="M 141.0 201.0 L 140.0 201.0 L 139.0 201.0 L 138.0 201.0 L 137.0 201.0 L 137.0 201.0 L 137.0 202.0 L 137.0 203.0 L 137.0 205.0 L 137.0 207.0 L 137.0 209.0 L 137.0 212.0 L 136.0 215.0 L 134.0 218.0 L 133.0 220.0 L 132.0 223.0 L 130.0 224.0 L 128.0 226.0 L 127.0 227.0 L 127.0 228.0 L 127.0 229.0 L 127.0 229.0 L 128.0 230.0 L 130.0 230.0 L 132.0 231.0 L 136.0 232.0 L 139.0 232.0 L 143.0 233.0 L 148.0 234.0 L 153.0 234.0 L 160.0 235.0 L 168.0 236.0 L 177.0 236.0 L 185.0 237.0 L 191.0 238.0 L 196.0 239.0 L 199.0 241.0 L 200.0 242.0 L 202.0 243.0 L 203.0 244.0 L 204.0 244.0 L 205.0 245.0 L 206.0 245.0 " stroke="black" fill="none" stroke-width="5.0" stroke-linecap="round" stroke-linejoin="round" />
<path d="M 202.0 195.0 L 202.0 195.0 L 201.0 195.0 L 200.0 195.0 L 200.0 195.0 L 199.0 195.0 L 199.0 196.0 L 198.0 197.0 L 198.0 200.0 L 197.0 203.0 L 195.0 207.0 L 193.0 211.0 L 189.0 217.0 L 183.0 223.0 L 174.0 229.0 L 164.0 234.0 L 154.0 239.0 L 145.0 243.0 L 137.0 247.0 L 128.0 250.0 L 119.0 252.0 " stroke="black" fill="none" stroke-width="5.0" stroke-linecap="round" stroke-linejoin="round" />
</svg>