<svg xmlns="http://www.w3.org/2000/svg" width="300" height="300" viewBox="0 0 300 300">
<path d="M 79.0 87.0 L 79.0 86.0 L 79.0 85.0 L 79.0 85.0 L 79.0 84.0 L 79.0 84.0 L 79.0 84.0 L 79.0 84.0 L 79.0 85.0 L 79.0 85.0 L 79.0 86.0 L 79.0 86.0 L 79.0 87.0 L 79.0 87.0 L 79.0 88.0 L 79.0 88.0 L 79.0 88.0 L 79.0 89.0 L 80.0 89.0 L 80.0 89.0 L 81.0 89.0 L 82.0 90.0 L 83.0 90.0 L 84.0 90.0 L 85.0 90.0 L 86.0 91.0 L 88.0 91.0 L 89.0 91.0 L 91.0 91.0 L 93.0 91.0 L 94.0 91.0 L 96.0 91.0 L 98.0 91.0 L 100.0 91.0 L 101.0 91.0 L 103.0 91.0 L 104.0 91.0 L 106.0 91.0 L 107.0 91.0 L 109.0 91.0 L 110.0 91.0 L 111.0 90.0 L 112.0 90.0 L 113.0 90.0 L 114.0 90.0 L 116.0 89.0 L 117.0 89.0 L 118.0 89.0 L 119.0 89.0 L 121.0 89.0 L 122.0 88.0 L 124.0 88.0 L 125.0 88.0 L 127.0 88.0 L 129.0 88.0 L 130.0 88.0 L 132.0 88.0 L 134.0 88.0 L 136.0 88.0 L 139.0 88.0 L 141.0 88.0 L 143.0 88.0 L 145.0 88.0 L 146.0 88.0 L 148.0 88.0 L 150.0 88.0 L 151.0 88.0 L 152.0 88.0 L 153.0 88.0 L 154.0 88.0 L 155.0 88.0 L 156.0 88.0 L 157.0 88.0 L 158.0 88.0 L 160.0 88.0 L 161.0 88.0 L 162.0 88.0 L 164.0 88.0 L 165.0 88.0 L 167.0 88.0 L 169.0 88.0 L 171.0 88.0 L 173.0 88.0 L 175.0 88.0 L 178.0 88.0 L 180.0 88.0 L 182.0 88.0 L 184.0 88.0 L 186.0 88.0 L 188.0 88.0 L 189.0 89.0 L 190.0 89.0 L 191.0 89.0 L 191.0 89.0 L 192.0 89.0 L 193.0 89.0 L 194.0 89.0 L 195.0 89.0 L 196.0 89.0 L 197.0 89.0 L 198.0 89.0 L 198.0 89.0 L 199.0 89.0 L 200.0 89.0 L 200.0 89.0 L 201.0 90.0 L 202.0 90.0 L 202.0 90.0 L 203.0 90.0 L 203.0 90.0 L 204.0 90.0 L 204.0 90.0 L 205.0 91.0 L 205.0 91.0 L 205.0 91.0 L 206.0 91.0 L 206.0 91.0 L 206.0 91.0 L 206.0 92.0 L 207.0 92.0 L 207.0 93.0 L 207.0 94.0 L 207.0 95.0 L 207.0 96.0 L 207.0 99.0 L 207.0 102.0 L 207.0 105.0 L 207.0 109.0 L 207.0 113.0 L 207.0 117.0 L 207.0 121.0 L 207.0 126.0 L 206.0 130.0 L 206.0 134.0 L 205.0 139.0 L 205.0 144.0 L 205.0 148.0 L 205.0 152.0 L 204.0 155.0 L 204.0 158.0 L 204.0 161.0 L 204.0 163.0 L 203.0 165.0 L 203.0 167.0 " stroke="black" fill="none" stroke-width="5.0" stroke-linecap="round" stroke-linejoin="round" />
<path d="M 97.0 155.0 L 97.0 155.0 L 97.0 155.0 L 97.0 155.0 L 97.0 154.0 L 97.0 154.0 L 97.0 154.0 L 97.0 154.0 L 97.0 154.0 L 97.0 154.0 L 97.0 154.0 L 97.0 154.0 L 98.0 154.0 L 99.0 154.0 L 101.0 154.0 L 103.0 154.0 L 105.0 154.0 L 108.0 154.0 L 112.0 154.0 L 117.0 155.0 L 123.0 155.0 L 131.0 155.0 L 139.0 155.0 L 147.0 155.0 L 153.0 155.0 L 158.0 155.0 L 165.0 155.0 L 171.0 155.0 L 177.0 155.0 L 184.0 156.0 L 189.0 157.0 L 193.0 157.0 L 196.0 158.0 L 198.0 159.0 L 199.0 160.0 L 200.0 161.0 " stroke="black" fill="none" stroke-width="5.0" stroke-linecap="round" stroke-linejoin="round" />
<path d="M 84.0 127.0 L 84.0 127.0 L 84.0 127.0 L 84.0 127.0 L 84.0 128.0 L 84.0 128.0 L 84.0 129.0 L 84.0 129.0 L 84.0 130.0 L 84.0 132.0 L 84.0 134.0 L 84.0 136.0 L 84.0 140.0 L 84.0 144.0 L 84.0 148.0 L 85.0 152.0 L 85.0 156.0 L 85.0 160.0 L 86.0 163.0 L 86.0 166.0 L 86.0 169.0 L 87.0 172.0 L 87.0 176.0 L 87.0 178.0 L 87.0 182.0 L 87.0 185.0 L 87.0 188.0 L 87.0 190.0 L 87.0 193.0 L 87.0 195.0 L 87.0 196.0 L 86.0 198.0 L 86.0 200.0 L 86.0 202.0 L 86.0 204.0 L 86.0 206.0 L 85.0 207.0 L 85.0 210.0 L 85.0 212.0 L 85.0 214.0 L 85.0 216.0 L 85.0 218.0 L 86.0 220.0 L 87.0 222.0 L 87.0 224.0 L 88.0 226.0 L 89.0 227.0 L 89.0 228.0 L 90.0 229.0 L 90.0 230.0 L 90.0 231.0 L 91.0 232.0 L 91.0 233.0 L 91.0 234.0 L 92.0 234.0 L 92.0 235.0 L 93.0 236.0 L 93.0 236.0 L 93.0 237.0 L 94.0 237.0 L 94.0 238.0 L 95.0 238.0 L 95.0 238.0 L 96.0 239.0 L 97.0 239.0 L 97.0 240.0 L 98.0 240.0 L 99.0 241.0 L 100.0 241.0 L 101.0 241.0 L 103.0 242.0 L 104.0 242.0 L 105.0 243.0 L 107.0 243.0 L 108.0 243.0 L 110.0 244.0 L 113.0 244.0 L 116.0 245.0 L 119.0 245.0 L 123.0 245.0 L 127.0 245.0 L 132.0 245.0 L 137.0 245.0 L 141.0 245.0 L 145.0 245.0 L 150.0 245.0 L 153.0 245.0 L 156.0 246.0 L 159.0 246.0 L 162.0 246.0 L 166.0 246.0 L 170.0 246.0 L 174.0 246.0 L 178.0 246.0 L 182.0 246.0 L 185.0 246.0 L 188.0 246.0 L 191.0 246.0 L 192.0 246.0 L 194.0 246.0 L 196.0 246.0 L 197.0 246.0 L 199.0 246.0 L 201.0 246.0 L 203.0 246.0 L 205.0 246.0 L 207.0 246.0 L 209.0 246.0 L 211.0 246.0 L 212.0 246.0 L 213.0 246.0 L 214.0 245.0 L 216.0 245.0 L 216.0 244.0 L 217.0 244.0 L 218.0 243.0 L 218.0 243.0 L 218.0 243.0 L 218.0 243.0 L 219.0 242.0 L 219.0 242.0 L 219.0 241.0 L 219.0 240.0 L 218.0 239.0 L 217.0 236.0 L 216.0 231.0 L 216.0 225.0 L 216.0 217.0 L 215.0 209.0 L 215.0 203.0 L 214.0 197.0 " stroke="black" fill="none" stroke-width="5.0" stroke-linecap="round" stroke-linejoin="round" />
</svg>