<svg xmlns="http://www.w3.org/2000/svg" width="300" height="300" viewBox="0 0 300 300">
<path d="M 84.0 75.0 L 83.0 75.0 L 83.0 76.0 L 82.0 77.0 L 81.0 77.0 L 80.0 78.0 L 80.0 80.0 L 80.0 81.0 L 80.0 83.0 L 80.0 85.0 L 80.0 87.0 L 80.0 90.0 L 80.0 92.0 L 80.0 95.0 L 80.0 97.0 L 80.0 99.0 L 80.0 102.0 L 79.0 103.0 L 79.0 104.0 L 79.0 105.0 L 79.0 106.0 L 78.0 106.0 L 78.0 106.0 L 78.0 106.0 L 78.0 106.0 L 78.0 106.0 L 78.0 105.0 L 78.0 104.0 L 79.0 104.0 L 79.0 104.0 L 80.0 104.0 L 80.0 104.0 L 81.0 104.0 L 82.0 104.0 L 83.0 105.0 L 85.0 105.0 L 87.0 105.0 L 89.0 106.0 L 91.0 106.0 L 94.0 106.0 L 97.0 106.0 L 100.0 106.0 L 103.0 106.0 L 106.0 106.0 L 110.0 106.0 L 113.0 106.0 L 118.0 106.0 L 123.0 106.0 L 130.0 105.0 L 136.0 105.0 L 143.0 104.0 L 149.0 104.0 L 153.0 104.0 L 158.0 104.0 L 164.0 104.0 L 169.0 104.0 L 175.0 104.0 L 182.0 104.0 L 187.0 104.0 L 192.0 104.0 L 196.0 104.0 L 199.0 104.0 L 202.0 104.0 L 205.0 103.0 L 207.0 103.0 L 209.0 103.0 L 210.0 103.0 L 211.0 104.0 L 211.0 104.0 L 212.0 105.0 L 212.0 105.0 " stroke="black" fill="none" stroke-width="5.0" stroke-linecap="round" stroke-linejoin="round" />
<path d="M 149.0 64.0 L 149.0 63.0 L 149.0 63.0 L 149.0 62.0 L 149.0 62.0 L 149.0 64.0 L 149.0 66.0 L 149.0 70.0 L 149.0 74.0 L 149.0 78.0 L 149.0 83.0 L 149.0 85.0 " stroke="black" fill="none" stroke-width="5.0" stroke-linecap="round" stroke-linejoin="round" />
<path d="M 148.0 98.0 L 148.0 99.0 " stroke="black" fill="none" stroke-width="5.0" stroke-linecap="round" stroke-linejoin="round" />
<path d="M 222.0 74.0 L 221.0 74.0 L 220.0 74.0 L 219.0 74.0 L 218.0 74.0 L 218.0 75.0 L 218.0 77.0 L 217.0 80.0 L 217.0 83.0 L 217.0 87.0 L 216.0 92.0 L 216.0 97.0 L 216.0 102.0 L 216.0 107.0 " stroke="black" fill="none" stroke-width="5.0" stroke-linecap="round" stroke-linejoin="round" />
<path d="M 149.0 83.0 L 149.0 83.0 L 149.0 83.0 L 149.0 83.0 L 149.0 83.0 L 149.0 83.0 L 149.0 84.0 L 149.0 85.0 L 149.0 86.0 L 149.0 87.0 L 149.0 89.0 L 149.0 91.0 L 149.0 94.0 L 149.0 97.0 L 149.0 100.0 L 149.0 102.0 L 149.0 103.0 " stroke="black" fill="none" stroke-width="5.0" stroke-linecap="round" stroke-linejoin="round" />
<path d="M 144.0 117.0 L 144.0 117.0 L 144.0 117.0 L 144.0 117.0 L 143.0 117.0 L 143.0 117.0 L 143.0 117.0 L 143.0 119.0 L 143.0 121.0 L 144.0 123.0 L 145.0 125.0 L 147.0 127.0 L 148.0 130.0 L 149.0 131.0 " stroke="black" fill="none" stroke-width="5.0" stroke-linecap="round" stroke-linejoin="round" />
<path d="M 66.0 134.0 L 66.0 134.0 L 66.0 137.0 L 66.0 138.0 L 65.0 140.0 L 65.0 142.0 L 65.0 145.0 L 64.0 148.0 L 64.0 152.0 L 63.0 155.0 L 63.0 158.0 L 63.0 161.0 L 63.0 162.0 L 63.0 163.0 " stroke="black" fill="none" stroke-width="5.0" stroke-linecap="round" stroke-linejoin="round" />
<path d="M 74.0 135.0 L 74.0 135.0 L 74.0 134.0 L 74.0 134.0 L 73.0 133.0 L 73.0 133.0 L 73.0 133.0 L 73.0 133.0 L 73.0 133.0 L 73.0 133.0 L 74.0 133.0 L 74.0 133.0 L 75.0 133.0 L 76.0 133.0 L 77.0 133.0 L 78.0 133.0 L 80.0 133.0 L 81.0 134.0 L 83.0 134.0 L 84.0 134.0 L 86.0 134.0 L 88.0 134.0 L 91.0 134.0 L 93.0 134.0 L 95.0 134.0 L 97.0 134.0 L 99.0 134.0 L 101.0 134.0 L 103.0 134.0 L 104.0 134.0 L 105.0 134.0 L 106.0 134.0 L 107.0 134.0 L 108.0 135.0 L 110.0 135.0 L 111.0 135.0 L 112.0 135.0 L 114.0 135.0 L 116.0 135.0 L 117.0 135.0 L 119.0 135.0 L 121.0 136.0 L 123.0 136.0 L 125.0 136.0 L 126.0 136.0 L 128.0 136.0 L 131.0 137.0 L 133.0 137.0 L 136.0 137.0 L 138.0 137.0 L 140.0 137.0 L 142.0 137.0 L 144.0 137.0 L 146.0 137.0 L 148.0 137.0 L 149.0 137.0 L 150.0 137.0 L 151.0 137.0 L 153.0 137.0 L 154.0 137.0 L 155.0 137.0 L 157.0 137.0 L 158.0 138.0 L 160.0 138.0 L 162.0 138.0 L 164.0 138.0 L 166.0 138.0 L 168.0 138.0 L 171.0 138.0 L 173.0 138.0 L 176.0 138.0 L 179.0 138.0 L 182.0 138.0 L 185.0 138.0 L 188.0 138.0 L 191.0 138.0 L 194.0 138.0 L 196.0 138.0 L 198.0 138.0 L 201.0 138.0 L 203.0 138.0 L 206.0 138.0 L 209.0 137.0 L 212.0 137.0 L 215.0 137.0 L 219.0 137.0 L 222.0 137.0 L 225.0 137.0 L 229.0 136.0 L 231.0 136.0 L 233.0 136.0 L 235.0 136.0 L 236.0 136.0 L 237.0 136.0 L 238.0 136.0 L 238.0 136.0 L 239.0 136.0 L 239.0 137.0 L 240.0 138.0 L 240.0 139.0 L 240.0 140.0 L 240.0 141.0 L 240.0 143.0 L 240.0 145.0 L 239.0 147.0 L 238.0 150.0 L 236.0 154.0 L 235.0 157.0 L 233.0 160.0 L 231.0 163.0 L 230.0 164.0 " stroke="black" fill="none" stroke-width="5.0" stroke-linecap="round" stroke-linejoin="round" />
<path d="M 102.0 165.0 L 101.0 164.0 L 101.0 164.0 L 101.0 164.0 L 100.0 164.0 L 100.0 164.0 L 100.0 164.0 L 102.0 164.0 L 105.0 164.0 L 109.0 164.0 L 115.0 164.0 L 123.0 164.0 L 133.0 164.0 L 144.0 164.0 L 153.0 164.0 L 162.0 164.0 L 171.0 164.0 L 179.0 164.0 L 186.0 164.0 L 192.0 164.0 L 195.0 165.0 L 196.0 165.0 " stroke="black" fill="none" stroke-width="5.0" stroke-linecap="round" stroke-linejoin="round" />
<path d="M 73.0 193.0 L 73.0 193.0 L 72.0 193.0 L 70.0 193.0 L 69.0 194.0 L 69.0 194.0 L 69.0 194.0 L 69.0 194.0 L 69.0 194.0 L 70.0 194.0 L 73.0 194.0 L 77.0 194.0 L 82.0 194.0 L 89.0 194.0 L 96.0 194.0 L 104.0 195.0 L 113.0 195.0 L 123.0 195.0 L 136.0 194.0 L 148.0 192.0 L 157.0 191.0 L 168.0 189.0 L 178.0 189.0 L 186.0 189.0 L 193.0 189.0 L 197.0 190.0 L 200.0 191.0 L 204.0 192.0 L 206.0 193.0 L 208.0 193.0 L 209.0 194.0 L 209.0 195.0 " stroke="black" fill="none" stroke-width="5.0" stroke-linecap="round" stroke-linejoin="round" />
<path d="M 142.0 203.0 L 141.0 205.0 L 140.0 206.0 L 140.0 209.0 L 140.0 211.0 L 140.0 215.0 L 141.0 220.0 L 141.0 225.0 L 142.0 231.0 L 143.0 237.0 L 144.0 243.0 L 144.0 248.0 L 144.0 253.0 L 144.0 256.0 L 144.0 257.0 " stroke="black" fill="none" stroke-width="5.0" stroke-linecap="round" stroke-linejoin="round" />
<path d="M 114.0 215.0 L 112.0 215.0 L 110.0 216.0 L 108.0 218.0 L 106.0 221.0 L 103.0 225.0 L 99.0 230.0 L 94.0 234.0 L 88.0 239.0 L 82.0 243.0 L 77.0 246.0 L 74.0 248.0 L 74.0 249.0 " stroke="black" fill="none" stroke-width="5.0" stroke-linecap="round" stroke-linejoin="round" />
<path d="M 197.0 222.0 L 196.0 222.0 L 196.0 222.0 L 195.0 222.0 L 195.0 221.0 L 194.0 221.0 L 194.0 221.0 L 194.0 221.0 L 194.0 221.0 L 196.0 222.0 L 200.0 224.0 L 205.0 227.0 L 211.0 229.0 L 219.0 231.0 L 227.0 233.0 L 234.0 235.0 L 239.0 237.0 L 243.0 240.0 L 246.0 242.0 " stroke="black" fill="none" stroke-width="5.0" stroke-linecap="round" stroke-linejoin="round" />
</svg>