<svg xmlns="http://www.w3.org/2000/svg" width="300" height="300" viewBox="0 0 300 300">
<path d="M 80.0 125.0 L 80.0 125.0 L 79.0 125.0 L 78.0 124.0 L 78.0 124.0 L 78.0 124.0 L 78.0 124.0 L 78.0 125.0 L 78.0 128.0 L 79.0 134.0 L 79.0 141.0 L 80.0 150.0 L 81.0 160.0 L 81.0 171.0 L 82.0 181.0 L 82.0 191.0 L 82.0 200.0 L 82.0 207.0 L 82.0 212.0 L 81.0 216.0 L 81.0 217.0 " stroke="black" fill="none" stroke-width="5.0" stroke-linecap="round" stroke-linejoin="round" />
<path d="M 86.0 125.0 L 85.0 125.0 L 84.0 125.0 L 83.0 125.0 L 82.0 125.0 L 82.0 125.0 L 81.0 125.0 L 81.0 125.0 L 81.0 125.0 L 81.0 125.0 L 82.0 125.0 L 84.0 125.0 L 86.0 125.0 L 88.0 125.0 L 91.0 125.0 L 93.0 124.0 L 94.0 124.0 L 96.0 124.0 L 98.0 124.0 L 99.0 123.0 L 101.0 123.0 L 102.0 123.0 L 104.0 123.0 L 106.0 124.0 L 108.0 124.0 L 110.0 124.0 L 113.0 124.0 L 116.0 125.0 L 118.0 125.0 L 121.0 125.0 L 123.0 125.0 L 126.0 125.0 L 128.0 125.0 L 131.0 125.0 L 133.0 125.0 L 136.0 125.0 L 138.0 125.0 L 141.0 125.0 L 143.0 125.0 L 145.0 125.0 L 147.0 124.0 L 149.0 124.0 L 150.0 124.0 L 152.0 123.0 L 153.0 123.0 L 154.0 123.0 L 155.0 123.0 L 157.0 122.0 L 158.0 122.0 L 159.0 122.0 L 161.0 121.0 L 163.0 121.0 L 164.0 121.0 L 166.0 120.0 L 168.0 120.0 L 169.0 120.0 L 171.0 120.0 L 172.0 120.0 L 173.0 120.0 L 174.0 120.0 L 175.0 120.0 L 177.0 120.0 L 178.0 120.0 L 179.0 120.0 L 180.0 120.0 L 181.0 120.0 L 182.0 120.0 L 183.0 120.0 L 184.0 120.0 L 185.0 120.0 L 186.0 120.0 L 187.0 120.0 L 188.0 120.0 L 189.0 120.0 L 190.0 120.0 L 191.0 120.0 L 192.0 120.0 L 194.0 120.0 L 194.0 120.0 L 196.0 120.0 L 197.0 121.0 L 198.0 121.0 L 199.0 121.0 L 200.0 121.0 L 202.0 121.0 L 203.0 121.0 L 204.0 121.0 L 206.0 121.0 L 207.0 121.0 L 209.0 121.0 L 211.0 121.0 L 212.0 121.0 L 214.0 121.0 L 215.0 121.0 L 216.0 121.0 L 217.0 121.0 L 218.0 122.0 L 219.0 122.0 L 220.0 122.0 L 220.0 122.0 L 221.0 123.0 L 222.0 123.0 L 222.0 123.0 L 222.0 123.0 L 223.0 123.0 L 223.0 124.0 L 223.0 124.0 L 223.0 124.0 L 223.0 125.0 L 223.0 125.0 L 223.0 126.0 L 223.0 127.0 L 223.0 128.0 L 223.0 128.0 L 224.0 129.0 L 224.0 130.0 L 224.0 132.0 L 224.0 133.0 L 224.0 135.0 L 224.0 137.0 L 224.0 139.0 L 224.0 142.0 L 224.0 145.0 L 223.0 148.0 L 223.0 150.0 L 223.0 153.0 L 222.0 156.0 L 222.0 159.0 L 221.0 162.0 L 221.0 165.0 L 220.0 168.0 L 220.0 172.0 L 220.0 175.0 L 219.0 179.0 L 219.0 183.0 L 219.0 186.0 L 219.0 189.0 L 218.0 193.0 L 218.0 195.0 L 218.0 197.0 L 218.0 199.0 L 217.0 200.0 L 217.0 202.0 L 217.0 203.0 L 217.0 204.0 L 216.0 206.0 L 216.0 207.0 L 216.0 208.0 L 215.0 209.0 L 215.0 210.0 L 215.0 211.0 L 214.0 212.0 L 214.0 213.0 L 213.0 214.0 L 213.0 215.0 L 212.0 216.0 L 212.0 216.0 L 211.0 217.0 L 211.0 217.0 L 210.0 217.0 L 209.0 217.0 L 207.0 217.0 L 206.0 217.0 L 204.0 216.0 L 201.0 215.0 L 199.0 213.0 L 196.0 211.0 L 195.0 209.0 " stroke="black" fill="none" stroke-width="5.0" stroke-linecap="round" stroke-linejoin="round" />
<path d="M 148.0 84.0 L 148.0 84.0 L 148.0 84.0 L 148.0 84.0 L 148.0 85.0 L 148.0 87.0 L 148.0 88.0 L 149.0 95.0 L 149.0 102.0 L 149.0 111.0 L 150.0 122.0 L 150.0 133.0 L 150.0 145.0 L 151.0 158.0 L 151.0 168.0 L 152.0 179.0 L 153.0 191.0 L 153.0 201.0 L 153.0 210.0 L 153.0 219.0 L 153.0 227.0 L 154.0 235.0 L 154.0 242.0 L 154.0 246.0 L 154.0 249.0 L 154.0 251.0 L 154.0 252.0 L 154.0 252.0 " stroke="black" fill="none" stroke-width="5.0" stroke-linecap="round" stroke-linejoin="round" />
</svg>