<svg xmlns="http://www.w3.org/2000/svg" width="300" height="300" viewBox="0 0 300 300">
<path d="M 157.0 74.0 L 157.0 74.0 L 157.0 73.0 L 156.0 72.0 L 156.0 71.0 L 156.0 70.0 L 155.0 70.0 L 155.0 69.0 L 155.0 69.0 L 155.0 69.0 L 157.0 69.0 L 158.0 70.0 L 160.0 73.0 L 161.0 75.0 L 163.0 78.0 L 164.0 81.0 L 165.0 83.0 " stroke="black" fill="none" stroke-width="5.0" stroke-linecap="round" stroke-linejoin="round" />
<path d="M 86.0 91.0 L 86.0 91.0 L 86.0 91.0 L 86.0 91.0 L 86.0 91.0 L 86.0 91.0 L 86.0 91.0 L 86.0 91.0 L 86.0 91.0 L 86.0 91.0 L 86.0 91.0 L 86.0 91.0 L 86.0 91.0 L 86.0 91.0 L 87.0 91.0 L 87.0 91.0 L 87.0 91.0 L 87.0 91.0 L 88.0 91.0 L 88.0 91.0 L 89.0 91.0 L 89.0 91.0 L 90.0 91.0 L 90.0 91.0 L 91.0 91.0 L 92.0 91.0 L 93.0 91.0 L 93.0 91.0 L 94.0 91.0 L 95.0 91.0 L 96.0 91.0 L 97.0 91.0 L 98.0 91.0 L 98.0 91.0 L 99.0 91.0 L 100.0 91.0 L 101.0 91.0 L 101.0 91.0 L 102.0 91.0 L 102.0 91.0 L 103.0 91.0 L 104.0 91.0 L 104.0 91.0 L 105.0 91.0 L 105.0 91.0 L 106.0 91.0 L 107.0 91.0 L 107.0 91.0 L 108.0 91.0 L 108.0 91.0 L 109.0 91.0 L 109.0 91.0 L 110.0 91.0 L 110.0 91.0 L 111.0 91.0 L 112.0 91.0 L 112.0 91.0 L 113.0 91.0 L 114.0 91.0 L 114.0 90.0 L 115.0 90.0 L 116.0 90.0 L 117.0 90.0 L 117.0 90.0 L 118.0 89.0 L 119.0 89.0 L 120.0 89.0 L 121.0 89.0 L 122.0 89.0 L 123.0 88.0 L 125.0 88.0 L 126.0 88.0 L 127.0 88.0 L 128.0 88.0 L 129.0 88.0 L 131.0 88.0 L 132.0 88.0 L 133.0 88.0 L 134.0 88.0 L 135.0 88.0 L 137.0 88.0 L 138.0 88.0 L 139.0 88.0 L 140.0 88.0 L 140.0 88.0 L 141.0 88.0 L 142.0 88.0 L 143.0 88.0 L 144.0 88.0 L 144.0 88.0 L 145.0 88.0 L 146.0 88.0 L 146.0 88.0 L 147.0 88.0 L 148.0 88.0 L 148.0 88.0 L 149.0 88.0 L 149.0 88.0 L 150.0 88.0 L 150.0 88.0 L 151.0 88.0 L 152.0 88.0 L 152.0 88.0 L 153.0 88.0 L 153.0 88.0 L 154.0 88.0 L 154.0 88.0 L 155.0 88.0 L 156.0 88.0 L 156.0 88.0 L 157.0 88.0 L 158.0 88.0 L 158.0 88.0 L 159.0 88.0 L 160.0 88.0 L 161.0 88.0 L 161.0 88.0 L 162.0 88.0 L 163.0 88.0 L 164.0 88.0 L 165.0 88.0 L 165.0 88.0 L 166.0 88.0 L 167.0 88.0 L 168.0 88.0 L 168.0 88.0 L 169.0 88.0 L 170.0 88.0 L 171.0 88.0 L 171.0 88.0 L 172.0 88.0 L 173.0 88.0 L 174.0 88.0 L 175.0 88.0 L 175.0 88.0 L 176.0 88.0 L 177.0 88.0 L 178.0 88.0 L 178.0 88.0 L 179.0 88.0 L 180.0 88.0 L 180.0 88.0 L 181.0 88.0 L 182.0 88.0 L 182.0 88.0 L 183.0 87.0 L 184.0 87.0 L 184.0 87.0 L 185.0 87.0 L 185.0 87.0 L 186.0 87.0 L 186.0 87.0 L 187.0 87.0 L 187.0 87.0 L 188.0 87.0 L 188.0 87.0 L 189.0 87.0 L 189.0 87.0 L 189.0 87.0 L 190.0 87.0 L 190.0 87.0 L 191.0 87.0 L 191.0 87.0 L 191.0 87.0 L 192.0 87.0 L 192.0 87.0 L 192.0 87.0 L 193.0 87.0 L 193.0 87.0 L 193.0 87.0 L 194.0 87.0 L 194.0 87.0 L 194.0 87.0 L 194.0 87.0 L 195.0 87.0 L 195.0 87.0 L 195.0 87.0 L 196.0 87.0 L 196.0 87.0 L 196.0 87.0 L 197.0 87.0 L 197.0 87.0 L 198.0 87.0 L 198.0 87.0 L 198.0 87.0 L 199.0 87.0 L 199.0 87.0 L 200.0 87.0 L 200.0 88.0 L 200.0 88.0 L 201.0 88.0 L 201.0 88.0 L 202.0 88.0 L 202.0 88.0 L 202.0 88.0 L 203.0 88.0 L 203.0 88.0 L 204.0 88.0 L 204.0 88.0 L 205.0 88.0 L 205.0 88.0 L 206.0 88.0 L 206.0 88.0 L 207.0 88.0 L 208.0 88.0 L 209.0 88.0 L 209.0 88.0 L 210.0 88.0 L 210.0 88.0 L 211.0 88.0 L 212.0 88.0 L 213.0 88.0 L 213.0 88.0 L 214.0 88.0 L 215.0 88.0 L 215.0 88.0 L 216.0 88.0 L 217.0 88.0 L 217.0 88.0 L 218.0 88.0 L 219.0 88.0 L 219.0 88.0 L 220.0 88.0 L 221.0 88.0 L 221.0 88.0 L 222.0 88.0 L 223.0 88.0 L 223.0 88.0 L 224.0 88.0 L 224.0 88.0 L 225.0 88.0 L 225.0 88.0 L 226.0 88.0 L 226.0 88.0 L 227.0 88.0 L 227.0 88.0 L 228.0 88.0 L 228.0 88.0 L 229.0 88.0 L 229.0 88.0 L 229.0 88.0 L 230.0 88.0 L 230.0 88.0 L 231.0 88.0 L 231.0 88.0 L 232.0 88.0 L 232.0 87.0 L 233.0 87.0 L 233.0 87.0 L 233.0 87.0 " stroke="black" fill="none" stroke-width="5.0" stroke-linecap="round" stroke-linejoin="round" />
<path d="M 83.0 87.0 L 83.0 87.0 L 83.0 86.0 L 84.0 86.0 L 84.0 86.0 L 84.0 85.0 L 84.0 85.0 L 84.0 85.0 L 84.0 85.0 L 84.0 85.0 L 84.0 86.0 L 84.0 86.0 L 84.0 87.0 L 84.0 88.0 L 84.0 89.0 L 84.0 90.0 L 84.0 91.0 L 84.0 93.0 L 84.0 94.0 L 84.0 96.0 L 84.0 97.0 L 84.0 99.0 L 84.0 101.0 L 84.0 103.0 L 84.0 105.0 L 84.0 106.0 L 84.0 108.0 L 84.0 109.0 L 84.0 111.0 L 84.0 112.0 L 84.0 113.0 L 84.0 115.0 L 84.0 116.0 L 84.0 118.0 L 84.0 119.0 L 84.0 121.0 L 84.0 123.0 L 84.0 124.0 L 84.0 126.0 L 84.0 127.0 L 84.0 129.0 L 84.0 130.0 L 84.0 132.0 L 83.0 133.0 L 83.0 134.0 L 83.0 136.0 L 83.0 138.0 L 83.0 139.0 L 83.0 141.0 L 82.0 143.0 L 82.0 145.0 L 82.0 147.0 L 82.0 148.0 L 82.0 150.0 L 82.0 152.0 L 81.0 154.0 L 81.0 155.0 L 81.0 157.0 L 81.0 159.0 L 81.0 160.0 L 80.0 162.0 L 80.0 163.0 L 80.0 164.0 L 80.0 166.0 L 80.0 167.0 L 80.0 169.0 L 80.0 171.0 L 80.0 172.0 L 79.0 174.0 L 79.0 175.0 L 79.0 177.0 L 79.0 178.0 L 78.0 180.0 L 78.0 182.0 L 78.0 184.0 L 78.0 185.0 L 77.0 187.0 L 77.0 188.0 L 77.0 190.0 L 76.0 191.0 L 76.0 193.0 L 76.0 194.0 L 75.0 195.0 L 75.0 196.0 L 75.0 198.0 L 74.0 199.0 L 74.0 200.0 L 74.0 201.0 L 74.0 203.0 L 74.0 204.0 L 74.0 205.0 L 73.0 206.0 L 73.0 207.0 L 73.0 208.0 L 73.0 209.0 L 72.0 210.0 L 72.0 211.0 L 72.0 213.0 L 71.0 214.0 L 71.0 215.0 L 71.0 216.0 L 71.0 218.0 L 70.0 219.0 L 70.0 220.0 L 70.0 221.0 L 69.0 223.0 L 69.0 225.0 L 69.0 226.0 L 69.0 228.0 L 68.0 229.0 L 68.0 231.0 L 67.0 232.0 L 67.0 234.0 L 66.0 235.0 L 66.0 237.0 L 65.0 238.0 L 64.0 239.0 L 64.0 241.0 L 63.0 243.0 L 62.0 244.0 L 61.0 245.0 L 59.0 247.0 L 58.0 248.0 L 58.0 249.0 " stroke="black" fill="none" stroke-width="5.0" stroke-linecap="round" stroke-linejoin="round" />
<path d="M 103.0 119.0 L 103.0 119.0 L 103.0 119.0 L 103.0 119.0 L 103.0 119.0 L 103.0 120.0 L 103.0 120.0 L 103.0 120.0 L 103.0 120.0 L 103.0 120.0 L 103.0 120.0 L 103.0 120.0 L 103.0 120.0 L 103.0 120.0 L 103.0 120.0 L 103.0 120.0 L 104.0 120.0 L 104.0 120.0 L 105.0 120.0 L 106.0 120.0 L 106.0 120.0 L 107.0 120.0 L 108.0 120.0 L 109.0 120.0 L 110.0 120.0 L 111.0 120.0 L 112.0 120.0 L 113.0 120.0 L 114.0 120.0 L 115.0 120.0 L 116.0 120.0 L 118.0 120.0 L 119.0 120.0 L 120.0 120.0 L 121.0 120.0 L 122.0 120.0 L 124.0 120.0 L 125.0 120.0 L 126.0 120.0 L 128.0 120.0 L 129.0 120.0 L 130.0 120.0 L 131.0 120.0 L 133.0 120.0 L 134.0 120.0 L 135.0 119.0 L 137.0 119.0 L 138.0 119.0 L 139.0 119.0 L 140.0 119.0 L 141.0 119.0 L 143.0 119.0 L 144.0 119.0 L 145.0 119.0 L 145.0 119.0 L 146.0 119.0 L 147.0 119.0 L 148.0 119.0 L 149.0 119.0 L 149.0 119.0 L 150.0 119.0 L 151.0 119.0 L 151.0 119.0 L 152.0 119.0 L 152.0 119.0 L 153.0 119.0 L 153.0 119.0 L 154.0 119.0 L 154.0 119.0 L 155.0 119.0 L 155.0 119.0 L 156.0 119.0 L 157.0 119.0 L 157.0 119.0 L 158.0 119.0 L 159.0 119.0 L 160.0 119.0 L 160.0 119.0 L 161.0 119.0 L 162.0 119.0 L 163.0 119.0 L 164.0 119.0 L 165.0 119.0 L 166.0 119.0 L 166.0 119.0 L 167.0 119.0 L 168.0 119.0 L 169.0 119.0 L 170.0 119.0 L 171.0 119.0 L 172.0 119.0 L 173.0 119.0 L 174.0 119.0 L 175.0 119.0 L 176.0 119.0 L 177.0 119.0 L 177.0 119.0 L 178.0 119.0 L 179.0 119.0 L 180.0 119.0 L 181.0 119.0 L 181.0 119.0 L 182.0 119.0 L 183.0 119.0 L 184.0 119.0 L 185.0 119.0 L 185.0 119.0 L 186.0 119.0 L 187.0 119.0 L 187.0 119.0 L 188.0 119.0 L 189.0 119.0 L 189.0 119.0 L 190.0 119.0 L 190.0 119.0 L 191.0 119.0 L 191.0 119.0 L 192.0 119.0 L 193.0 119.0 L 193.0 119.0 L 194.0 119.0 L 194.0 119.0 L 195.0 119.0 L 195.0 119.0 L 196.0 119.0 L 196.0 119.0 L 197.0 119.0 L 197.0 119.0 L 198.0 119.0 L 198.0 119.0 L 198.0 119.0 L 199.0 119.0 L 199.0 119.0 L 200.0 119.0 L 200.0 119.0 L 201.0 119.0 L 201.0 119.0 L 202.0 119.0 L 202.0 119.0 L 203.0 119.0 L 203.0 119.0 L 204.0 119.0 L 205.0 119.0 L 205.0 119.0 L 206.0 119.0 L 206.0 119.0 L 207.0 119.0 L 207.0 119.0 L 208.0 119.0 L 209.0 119.0 L 209.0 119.0 L 210.0 119.0 L 210.0 119.0 L 211.0 119.0 L 212.0 119.0 L 212.0 119.0 L 213.0 119.0 L 213.0 119.0 L 214.0 119.0 L 214.0 119.0 L 215.0 119.0 L 215.0 119.0 L 216.0 119.0 L 216.0 119.0 L 217.0 119.0 L 218.0 119.0 L 218.0 119.0 L 219.0 119.0 L 219.0 119.0 L 220.0 119.0 L 221.0 118.0 L 221.0 118.0 L 222.0 118.0 L 223.0 118.0 L 223.0 118.0 L 224.0 118.0 L 225.0 118.0 L 225.0 118.0 L 226.0 118.0 L 226.0 118.0 L 227.0 118.0 L 227.0 118.0 L 228.0 118.0 L 228.0 118.0 " stroke="black" fill="none" stroke-width="5.0" stroke-linecap="round" stroke-linejoin="round" />
<path d="M 133.0 110.0 L 133.0 110.0 L 134.0 109.0 L 134.0 109.0 L 134.0 109.0 L 134.0 109.0 L 134.0 109.0 L 134.0 109.0 L 133.0 109.0 L 133.0 110.0 L 133.0 112.0 L 133.0 113.0 L 133.0 116.0 L 133.0 119.0 L 133.0 122.0 L 133.0 125.0 L 133.0 129.0 L 133.0 132.0 L 133.0 136.0 L 133.0 139.0 L 133.0 141.0 L 133.0 143.0 L 133.0 144.0 L 133.0 144.0 " stroke="black" fill="none" stroke-width="5.0" stroke-linecap="round" stroke-linejoin="round" />
<path d="M 203.0 105.0 L 203.0 105.0 L 202.0 105.0 L 201.0 105.0 L 201.0 105.0 L 201.0 105.0 L 200.0 105.0 L 200.0 105.0 L 200.0 105.0 L 200.0 106.0 L 200.0 108.0 L 200.0 109.0 L 201.0 111.0 L 201.0 113.0 L 201.0 116.0 L 201.0 118.0 L 201.0 121.0 L 201.0 124.0 L 201.0 127.0 L 201.0 129.0 L 201.0 131.0 L 201.0 133.0 L 200.0 135.0 L 200.0 135.0 " stroke="black" fill="none" stroke-width="5.0" stroke-linecap="round" stroke-linejoin="round" />
<path d="M 139.0 140.0 L 139.0 140.0 L 139.0 140.0 L 139.0 140.0 L 139.0 141.0 L 138.0 141.0 L 138.0 141.0 L 138.0 142.0 L 137.0 142.0 L 137.0 142.0 L 137.0 143.0 L 137.0 143.0 L 137.0 143.0 L 137.0 143.0 L 137.0 143.0 L 137.0 143.0 L 137.0 143.0 L 137.0 143.0 L 137.0 143.0 L 136.0 143.0 L 136.0 143.0 L 136.0 143.0 L 136.0 143.0 L 136.0 143.0 L 136.0 143.0 L 136.0 143.0 L 136.0 143.0 L 136.0 143.0 L 136.0 143.0 L 136.0 143.0 L 136.0 143.0 L 136.0 143.0 L 137.0 143.0 L 137.0 143.0 L 138.0 143.0 L 139.0 143.0 L 139.0 143.0 L 140.0 143.0 L 141.0 143.0 L 142.0 143.0 L 143.0 143.0 L 144.0 143.0 L 145.0 143.0 L 147.0 143.0 L 148.0 143.0 L 149.0 143.0 L 151.0 143.0 L 152.0 143.0 L 153.0 143.0 L 154.0 143.0 L 155.0 143.0 L 157.0 143.0 L 158.0 143.0 L 159.0 142.0 L 160.0 142.0 L 162.0 142.0 L 163.0 142.0 L 164.0 142.0 L 166.0 142.0 L 167.0 142.0 L 168.0 141.0 L 170.0 141.0 L 171.0 141.0 L 172.0 141.0 L 174.0 141.0 L 175.0 141.0 L 176.0 141.0 L 178.0 141.0 L 179.0 141.0 L 180.0 141.0 L 181.0 141.0 L 182.0 141.0 L 184.0 141.0 L 185.0 141.0 L 186.0 141.0 L 187.0 141.0 L 188.0 141.0 L 189.0 141.0 L 190.0 141.0 L 191.0 141.0 L 191.0 140.0 L 192.0 140.0 L 193.0 140.0 L 194.0 140.0 L 194.0 140.0 L 195.0 140.0 L 195.0 140.0 L 196.0 140.0 L 196.0 140.0 L 197.0 140.0 L 197.0 140.0 L 198.0 140.0 L 198.0 140.0 L 199.0 140.0 L 199.0 140.0 L 200.0 140.0 L 200.0 140.0 L 200.0 140.0 " stroke="black" fill="none" stroke-width="5.0" stroke-linecap="round" stroke-linejoin="round" />
<path d="M 100.0 158.0 L 100.0 158.0 L 100.0 158.0 L 100.0 158.0 L 100.0 158.0 L 100.0 158.0 L 100.0 158.0 L 99.0 158.0 L 99.0 158.0 L 99.0 158.0 L 99.0 158.0 L 99.0 158.0 L 99.0 158.0 L 100.0 158.0 L 100.0 158.0 L 101.0 158.0 L 101.0 158.0 L 102.0 158.0 L 103.0 158.0 L 104.0 158.0 L 105.0 158.0 L 106.0 158.0 L 107.0 158.0 L 108.0 158.0 L 109.0 158.0 L 110.0 158.0 L 111.0 158.0 L 112.0 158.0 L 113.0 158.0 L 114.0 158.0 L 115.0 158.0 L 116.0 158.0 L 117.0 158.0 L 118.0 158.0 L 119.0 158.0 L 120.0 158.0 L 121.0 158.0 L 122.0 158.0 L 123.0 158.0 L 124.0 158.0 L 125.0 158.0 L 126.0 158.0 L 127.0 158.0 L 127.0 158.0 L 128.0 158.0 L 129.0 158.0 L 130.0 158.0 L 131.0 158.0 L 132.0 158.0 L 133.0 158.0 L 134.0 158.0 L 135.0 158.0 L 136.0 158.0 L 137.0 158.0 L 138.0 157.0 L 139.0 157.0 L 140.0 157.0 L 141.0 157.0 L 142.0 157.0 L 143.0 157.0 L 144.0 157.0 L 144.0 157.0 L 145.0 157.0 L 146.0 157.0 L 147.0 157.0 L 148.0 157.0 L 149.0 157.0 L 150.0 157.0 L 150.0 157.0 L 151.0 156.0 L 152.0 156.0 L 152.0 156.0 L 153.0 156.0 L 153.0 156.0 L 154.0 156.0 L 154.0 156.0 L 155.0 156.0 L 156.0 156.0 L 156.0 156.0 L 157.0 156.0 L 157.0 156.0 L 158.0 156.0 L 159.0 156.0 L 159.0 156.0 L 160.0 156.0 L 161.0 156.0 L 161.0 156.0 L 162.0 156.0 L 163.0 156.0 L 164.0 156.0 L 165.0 156.0 L 165.0 156.0 L 166.0 156.0 L 167.0 156.0 L 168.0 156.0 L 168.0 156.0 L 169.0 156.0 L 170.0 156.0 L 171.0 156.0 L 171.0 155.0 L 172.0 155.0 L 173.0 155.0 L 174.0 155.0 L 175.0 155.0 L 175.0 155.0 L 176.0 155.0 L 177.0 155.0 L 178.0 155.0 L 178.0 155.0 L 179.0 155.0 L 180.0 155.0 L 180.0 155.0 L 181.0 155.0 L 182.0 155.0 L 182.0 155.0 L 183.0 155.0 L 184.0 154.0 L 184.0 154.0 L 185.0 154.0 L 185.0 154.0 L 186.0 154.0 L 186.0 154.0 L 187.0 154.0 L 187.0 154.0 L 188.0 154.0 L 189.0 154.0 L 189.0 154.0 L 190.0 154.0 L 190.0 154.0 L 191.0 154.0 L 191.0 154.0 L 191.0 154.0 L 192.0 154.0 L 192.0 154.0 L 193.0 154.0 L 193.0 154.0 L 194.0 154.0 L 194.0 154.0 L 194.0 154.0 L 195.0 154.0 L 195.0 154.0 L 196.0 154.0 L 196.0 154.0 L 197.0 154.0 L 197.0 154.0 L 198.0 154.0 L 198.0 154.0 L 199.0 154.0 L 199.0 154.0 L 200.0 154.0 L 200.0 154.0 L 201.0 154.0 L 202.0 154.0 L 202.0 154.0 L 203.0 154.0 L 204.0 154.0 L 204.0 154.0 L 205.0 154.0 L 206.0 154.0 L 206.0 154.0 L 207.0 154.0 L 208.0 154.0 L 209.0 154.0 L 210.0 154.0 L 210.0 154.0 L 211.0 154.0 L 212.0 154.0 L 213.0 154.0 L 213.0 153.0 L 214.0 153.0 L 214.0 153.0 L 215.0 153.0 L 216.0 153.0 L 216.0 153.0 L 217.0 153.0 L 217.0 153.0 L 218.0 153.0 L 219.0 153.0 L 219.0 153.0 L 220.0 153.0 L 220.0 153.0 L 221.0 153.0 L 221.0 153.0 L 222.0 153.0 L 222.0 152.0 L 223.0 152.0 L 223.0 152.0 L 224.0 152.0 L 224.0 152.0 L 225.0 152.0 L 225.0 152.0 L 226.0 152.0 L 226.0 152.0 L 227.0 152.0 L 227.0 152.0 L 227.0 152.0 L 228.0 152.0 L 228.0 152.0 L 229.0 152.0 L 229.0 152.0 L 229.0 152.0 L 230.0 151.0 L 230.0 151.0 L 231.0 151.0 L 231.0 151.0 L 231.0 151.0 L 232.0 151.0 L 232.0 150.0 L 232.0 150.0 L 233.0 150.0 L 233.0 150.0 L 234.0 150.0 L 234.0 150.0 L 234.0 150.0 L 234.0 150.0 L 235.0 150.0 L 235.0 150.0 L 235.0 150.0 L 236.0 150.0 L 236.0 150.0 L 236.0 150.0 L 237.0 150.0 L 237.0 150.0 L 237.0 150.0 L 237.0 150.0 L 237.0 150.0 L 238.0 150.0 L 238.0 150.0 " stroke="black" fill="none" stroke-width="5.0" stroke-linecap="round" stroke-linejoin="round" />
<path d="M 109.0 172.0 L 109.0 172.0 L 109.0 172.0 L 109.0 172.0 L 109.0 172.0 L 109.0 172.0 L 109.0 172.0 L 109.0 172.0 L 109.0 172.0 L 109.0 172.0 L 109.0 172.0 L 109.0 172.0 L 109.0 172.0 L 109.0 172.0 L 109.0 172.0 L 109.0 173.0 L 109.0 174.0 L 110.0 175.0 L 110.0 177.0 L 110.0 180.0 L 110.0 182.0 L 110.0 185.0 L 110.0 188.0 L 110.0 191.0 L 110.0 194.0 L 111.0 197.0 L 111.0 199.0 L 111.0 202.0 L 111.0 204.0 L 111.0 206.0 L 111.0 208.0 L 111.0 210.0 L 111.0 211.0 L 111.0 213.0 L 111.0 214.0 L 111.0 214.0 L 111.0 215.0 L 111.0 215.0 L 111.0 215.0 L 111.0 215.0 L 111.0 215.0 L 111.0 214.0 L 111.0 213.0 " stroke="black" fill="none" stroke-width="5.0" stroke-linecap="round" stroke-linejoin="round" />
<path d="M 112.0 173.0 L 112.0 173.0 L 112.0 173.0 L 112.0 173.0 L 112.0 173.0 L 112.0 173.0 L 111.0 173.0 L 111.0 174.0 L 111.0 174.0 L 111.0 174.0 L 111.0 174.0 L 111.0 174.0 L 111.0 174.0 L 111.0 174.0 L 111.0 174.0 L 112.0 174.0 L 112.0 174.0 L 113.0 174.0 L 113.0 174.0 L 114.0 174.0 L 115.0 174.0 L 116.0 174.0 L 116.0 174.0 L 117.0 174.0 L 118.0 174.0 L 119.0 174.0 L 120.0 174.0 L 121.0 174.0 L 122.0 174.0 L 123.0 174.0 L 124.0 174.0 L 125.0 174.0 L 126.0 174.0 L 127.0 174.0 L 129.0 174.0 L 130.0 174.0 L 131.0 174.0 L 132.0 174.0 L 133.0 174.0 L 134.0 174.0 L 135.0 174.0 L 136.0 174.0 L 137.0 174.0 L 138.0 174.0 L 139.0 174.0 L 140.0 174.0 L 141.0 174.0 L 142.0 174.0 L 143.0 174.0 L 143.0 174.0 L 144.0 174.0 L 145.0 174.0 L 146.0 173.0 L 147.0 173.0 L 148.0 173.0 L 148.0 173.0 L 149.0 173.0 L 149.0 173.0 L 150.0 172.0 L 150.0 172.0 L 151.0 172.0 L 151.0 172.0 L 152.0 172.0 L 152.0 172.0 L 153.0 171.0 L 153.0 171.0 L 153.0 171.0 L 154.0 171.0 L 155.0 171.0 L 155.0 171.0 L 156.0 171.0 L 156.0 171.0 L 157.0 171.0 L 158.0 171.0 L 158.0 171.0 L 159.0 171.0 L 160.0 171.0 L 161.0 171.0 L 162.0 171.0 L 163.0 171.0 L 164.0 171.0 L 165.0 171.0 L 166.0 171.0 L 167.0 171.0 L 168.0 171.0 L 169.0 171.0 L 171.0 171.0 L 172.0 171.0 L 173.0 171.0 L 175.0 171.0 L 176.0 171.0 L 178.0 171.0 L 179.0 171.0 L 181.0 170.0 L 182.0 170.0 L 183.0 170.0 L 184.0 170.0 L 185.0 170.0 L 186.0 170.0 L 187.0 170.0 L 188.0 170.0 L 189.0 170.0 L 190.0 170.0 L 191.0 170.0 L 191.0 170.0 L 192.0 170.0 L 193.0 169.0 L 193.0 169.0 L 194.0 169.0 L 194.0 169.0 L 194.0 169.0 L 195.0 169.0 L 195.0 169.0 L 196.0 169.0 L 196.0 169.0 L 196.0 169.0 L 197.0 169.0 L 197.0 168.0 L 198.0 168.0 L 198.0 168.0 L 199.0 168.0 L 199.0 168.0 L 200.0 168.0 L 200.0 168.0 L 200.0 168.0 L 201.0 168.0 L 201.0 168.0 L 202.0 168.0 L 202.0 168.0 L 203.0 168.0 L 204.0 168.0 L 204.0 168.0 L 205.0 168.0 L 205.0 168.0 L 206.0 168.0 L 206.0 168.0 L 207.0 168.0 L 207.0 168.0 L 208.0 168.0 L 208.0 168.0 L 209.0 168.0 L 210.0 169.0 L 210.0 169.0 L 211.0 169.0 L 211.0 169.0 L 212.0 169.0 L 212.0 169.0 L 213.0 169.0 L 214.0 169.0 L 214.0 169.0 L 215.0 169.0 L 215.0 169.0 L 216.0 170.0 L 216.0 170.0 L 217.0 170.0 L 218.0 170.0 L 218.0 170.0 L 218.0 170.0 L 219.0 170.0 L 219.0 170.0 L 219.0 170.0 L 220.0 170.0 L 220.0 171.0 L 220.0 171.0 L 220.0 171.0 L 220.0 171.0 L 221.0 171.0 L 221.0 171.0 L 221.0 172.0 L 221.0 172.0 L 221.0 173.0 L 221.0 173.0 L 221.0 174.0 L 221.0 175.0 L 221.0 176.0 L 221.0 177.0 L 220.0 179.0 L 220.0 181.0 L 220.0 184.0 L 220.0 186.0 L 219.0 188.0 L 219.0 191.0 L 219.0 193.0 L 219.0 195.0 L 219.0 197.0 L 219.0 199.0 L 219.0 201.0 L 219.0 203.0 L 219.0 204.0 L 219.0 206.0 L 219.0 207.0 L 219.0 208.0 L 219.0 208.0 L 219.0 209.0 L 219.0 209.0 L 219.0 210.0 L 219.0 210.0 L 219.0 211.0 L 219.0 211.0 L 219.0 212.0 L 219.0 213.0 L 219.0 213.0 L 219.0 214.0 L 219.0 214.0 " stroke="black" fill="none" stroke-width="5.0" stroke-linecap="round" stroke-linejoin="round" />
<path d="M 114.0 193.0 L 114.0 193.0 L 114.0 192.0 L 114.0 192.0 L 114.0 191.0 L 114.0 191.0 L 113.0 191.0 L 113.0 191.0 L 113.0 191.0 L 113.0 191.0 L 113.0 191.0 L 113.0 191.0 L 113.0 191.0 L 113.0 192.0 L 114.0 192.0 L 114.0 192.0 L 115.0 193.0 L 116.0 193.0 L 118.0 193.0 L 119.0 193.0 L 120.0 194.0 L 122.0 194.0 L 123.0 194.0 L 125.0 195.0 L 126.0 195.0 L 128.0 195.0 L 130.0 196.0 L 132.0 196.0 L 133.0 196.0 L 135.0 196.0 L 137.0 196.0 L 139.0 196.0 L 140.0 196.0 L 142.0 196.0 L 143.0 196.0 L 144.0 196.0 L 145.0 196.0 L 146.0 196.0 L 148.0 196.0 L 149.0 196.0 L 150.0 196.0 L 151.0 196.0 L 152.0 196.0 L 153.0 195.0 L 154.0 195.0 L 155.0 195.0 L 156.0 195.0 L 157.0 195.0 L 159.0 195.0 L 160.0 195.0 L 161.0 195.0 L 162.0 195.0 L 164.0 195.0 L 165.0 195.0 L 166.0 195.0 L 168.0 195.0 L 169.0 195.0 L 171.0 195.0 L 173.0 195.0 L 175.0 195.0 L 176.0 195.0 L 178.0 195.0 L 179.0 194.0 L 181.0 194.0 L 183.0 194.0 L 184.0 194.0 L 185.0 194.0 L 187.0 194.0 L 188.0 194.0 L 189.0 194.0 L 191.0 194.0 L 192.0 194.0 L 193.0 193.0 L 194.0 193.0 L 194.0 193.0 L 195.0 193.0 L 196.0 193.0 L 196.0 193.0 L 197.0 193.0 L 198.0 193.0 L 199.0 193.0 L 200.0 193.0 L 200.0 193.0 L 201.0 193.0 L 202.0 193.0 L 203.0 193.0 L 204.0 193.0 L 205.0 193.0 L 205.0 192.0 L 206.0 192.0 L 207.0 192.0 L 207.0 192.0 L 208.0 192.0 L 208.0 192.0 L 209.0 192.0 L 209.0 192.0 " stroke="black" fill="none" stroke-width="5.0" stroke-linecap="round" stroke-linejoin="round" />
<path d="M 162.0 178.0 L 162.0 178.0 L 162.0 178.0 L 161.0 178.0 L 161.0 178.0 L 161.0 178.0 L 161.0 178.0 L 160.0 178.0 L 160.0 178.0 L 160.0 179.0 L 160.0 179.0 L 160.0 179.0 L 160.0 179.0 L 160.0 179.0 L 160.0 180.0 L 160.0 180.0 L 160.0 180.0 L 160.0 181.0 L 160.0 182.0 L 161.0 183.0 L 161.0 185.0 L 161.0 186.0 L 162.0 189.0 L 162.0 191.0 L 162.0 193.0 L 162.0 196.0 L 162.0 199.0 L 162.0 202.0 L 163.0 205.0 L 163.0 207.0 L 163.0 210.0 L 163.0 212.0 L 163.0 214.0 L 163.0 215.0 L 163.0 216.0 L 163.0 218.0 L 163.0 219.0 L 163.0 220.0 L 163.0 220.0 L 163.0 220.0 L 163.0 220.0 " stroke="black" fill="none" stroke-width="5.0" stroke-linecap="round" stroke-linejoin="round" />
<path d="M 112.0 218.0 L 112.0 218.0 L 112.0 218.0 L 112.0 218.0 L 112.0 218.0 L 112.0 218.0 L 112.0 218.0 L 112.0 218.0 L 112.0 218.0 L 112.0 218.0 L 112.0 218.0 L 112.0 218.0 L 112.0 218.0 L 112.0 218.0 L 112.0 218.0 L 112.0 217.0 L 112.0 217.0 L 112.0 217.0 L 112.0 217.0 L 112.0 217.0 L 112.0 217.0 L 112.0 217.0 L 112.0 217.0 L 112.0 217.0 L 112.0 217.0 L 112.0 217.0 L 113.0 217.0 L 113.0 217.0 L 114.0 217.0 L 115.0 217.0 L 116.0 217.0 L 118.0 217.0 L 119.0 217.0 L 121.0 217.0 L 122.0 217.0 L 124.0 217.0 L 125.0 217.0 L 126.0 217.0 L 128.0 217.0 L 129.0 217.0 L 131.0 217.0 L 132.0 217.0 L 133.0 217.0 L 134.0 217.0 L 136.0 217.0 L 137.0 217.0 L 138.0 217.0 L 139.0 217.0 L 140.0 217.0 L 141.0 217.0 L 142.0 217.0 L 143.0 217.0 L 144.0 218.0 L 144.0 218.0 L 146.0 218.0 L 146.0 218.0 L 147.0 218.0 L 148.0 218.0 L 149.0 218.0 L 150.0 218.0 L 151.0 218.0 L 152.0 218.0 L 152.0 218.0 L 153.0 218.0 L 154.0 218.0 L 154.0 218.0 L 155.0 218.0 L 156.0 218.0 L 156.0 218.0 L 157.0 217.0 L 158.0 217.0 L 159.0 217.0 L 160.0 217.0 L 160.0 217.0 L 162.0 217.0 L 163.0 216.0 L 164.0 216.0 L 165.0 216.0 L 166.0 216.0 L 168.0 215.0 L 169.0 215.0 L 170.0 215.0 L 172.0 215.0 L 173.0 215.0 L 175.0 215.0 L 176.0 215.0 L 177.0 215.0 L 178.0 215.0 L 180.0 215.0 L 181.0 215.0 L 182.0 215.0 L 183.0 215.0 L 184.0 215.0 L 185.0 215.0 L 186.0 215.0 L 187.0 215.0 L 188.0 215.0 L 189.0 215.0 L 189.0 215.0 L 190.0 215.0 L 191.0 215.0 L 191.0 215.0 L 192.0 216.0 L 193.0 216.0 L 193.0 216.0 L 194.0 216.0 L 194.0 216.0 L 195.0 216.0 L 196.0 216.0 L 196.0 216.0 L 197.0 217.0 L 197.0 217.0 L 198.0 217.0 L 198.0 217.0 L 199.0 217.0 L 200.0 217.0 L 200.0 217.0 L 201.0 217.0 L 202.0 217.0 L 203.0 217.0 L 204.0 217.0 L 205.0 217.0 L 206.0 217.0 L 207.0 217.0 L 208.0 217.0 L 209.0 217.0 L 210.0 217.0 L 212.0 217.0 L 213.0 217.0 L 214.0 217.0 L 215.0 217.0 L 216.0 217.0 L 217.0 217.0 L 218.0 217.0 L 219.0 217.0 L 219.0 217.0 L 220.0 217.0 L 221.0 217.0 L 221.0 217.0 L 221.0 217.0 L 221.0 217.0 L 221.0 217.0 L 221.0 217.0 " stroke="black" fill="none" stroke-width="5.0" stroke-linecap="round" stroke-linejoin="round" />
<path d="M 102.0 249.0 L 102.0 249.0 L 102.0 249.0 L 102.0 250.0 L 101.0 250.0 L 101.0 250.0 L 101.0 250.0 L 101.0 251.0 L 101.0 251.0 L 101.0 251.0 L 101.0 251.0 L 101.0 251.0 L 101.0 251.0 L 101.0 251.0 L 101.0 251.0 L 102.0 251.0 L 102.0 251.0 L 103.0 251.0 L 103.0 251.0 L 104.0 251.0 L 104.0 251.0 L 105.0 251.0 L 105.0 250.0 L 106.0 250.0 L 106.0 250.0 L 107.0 250.0 L 107.0 250.0 L 108.0 249.0 L 108.0 249.0 L 109.0 248.0 L 109.0 248.0 L 110.0 248.0 L 110.0 248.0 L 111.0 247.0 L 111.0 247.0 L 112.0 247.0 L 112.0 246.0 L 113.0 246.0 L 113.0 245.0 L 114.0 245.0 L 115.0 245.0 L 115.0 244.0 L 116.0 244.0 L 117.0 243.0 L 117.0 243.0 L 118.0 243.0 L 119.0 242.0 L 120.0 242.0 L 121.0 242.0 L 122.0 242.0 L 123.0 241.0 L 124.0 241.0 L 126.0 241.0 L 128.0 240.0 L 129.0 240.0 L 131.0 239.0 L 132.0 239.0 L 133.0 239.0 L 135.0 238.0 L 136.0 238.0 L 138.0 237.0 L 139.0 237.0 L 141.0 236.0 L 142.0 236.0 L 143.0 235.0 L 144.0 234.0 L 145.0 234.0 L 146.0 233.0 L 146.0 232.0 L 147.0 232.0 L 147.0 232.0 " stroke="black" fill="none" stroke-width="5.0" stroke-linecap="round" stroke-linejoin="round" />
<path d="M 191.0 234.0 L 191.0 234.0 L 191.0 234.0 L 191.0 234.0 L 190.0 234.0 L 190.0 234.0 L 190.0 235.0 L 190.0 235.0 L 190.0 235.0 L 190.0 235.0 L 190.0 235.0 L 190.0 235.0 L 190.0 235.0 L 190.0 235.0 L 190.0 236.0 L 190.0 236.0 L 191.0 236.0 L 191.0 237.0 L 191.0 237.0 L 192.0 238.0 L 192.0 238.0 L 193.0 238.0 L 193.0 239.0 L 194.0 239.0 L 194.0 239.0 L 195.0 239.0 L 196.0 240.0 L 196.0 240.0 L 197.0 241.0 L 197.0 241.0 L 198.0 242.0 L 199.0 242.0 L 199.0 243.0 L 200.0 243.0 L 201.0 244.0 L 202.0 245.0 L 202.0 245.0 L 203.0 246.0 L 204.0 247.0 L 205.0 247.0 L 206.0 248.0 L 207.0 249.0 L 208.0 249.0 L 209.0 250.0 L 210.0 251.0 L 211.0 252.0 L 212.0 252.0 L 213.0 253.0 L 214.0 254.0 L 215.0 254.0 L 216.0 254.0 L 217.0 255.0 L 218.0 255.0 L 219.0 255.0 L 220.0 256.0 L 221.0 256.0 L 222.0 256.0 L 223.0 257.0 L 224.0 257.0 L 225.0 257.0 L 226.0 258.0 L 227.0 258.0 L 228.0 259.0 L 229.0 259.0 L 229.0 260.0 L 230.0 260.0 L 231.0 261.0 L 231.0 261.0 L 232.0 261.0 L 232.0 261.0 L 232.0 262.0 L 233.0 262.0 L 233.0 262.0 L 233.0 262.0 L 233.0 262.0 L 233.0 262.0 L 233.0 262.0 L 233.0 261.0 L 233.0 261.0 " stroke="black" fill="none" stroke-width="5.0" stroke-linecap="round" stroke-linejoin="round" />
</svg>