<svg xmlns="http://www.w3.org/2000/svg" width="300" height="300" viewBox="0 0 300 300">
<path d="M 154.0 74.0 L 154.0 74.0 L 153.0 73.0 L 153.0 73.0 L 153.0 73.0 L 152.0 73.0 L 152.0 73.0 L 152.0 73.0 L 152.0 73.0 L 152.0 73.0 L 153.0 75.0 L 153.0 78.0 L 153.0 83.0 L 153.0 89.0 L 153.0 96.0 L 152.0 104.0 L 152.0 107.0 " stroke="black" fill="none" stroke-width="5.0" stroke-linecap="round" stroke-linejoin="round" />
<path d="M 103.0 75.0 L 103.0 75.0 L 102.0 74.0 L 101.0 74.0 L 101.0 73.0 L 101.0 73.0 L 101.0 73.0 L 101.0 73.0 L 103.0 77.0 L 106.0 79.0 L 108.0 81.0 L 111.0 84.0 L 114.0 86.0 L 118.0 89.0 L 120.0 90.0 " stroke="black" fill="none" stroke-width="5.0" stroke-linecap="round" stroke-linejoin="round" />
<path d="M 208.0 75.0 L 208.0 75.0 L 208.0 75.0 L 208.0 75.0 L 207.0 74.0 L 207.0 74.0 L 206.0 74.0 L 205.0 74.0 L 205.0 75.0 L 203.0 78.0 L 202.0 82.0 L 200.0 86.0 L 198.0 91.0 " stroke="black" fill="none" stroke-width="5.0" stroke-linecap="round" stroke-linejoin="round" />
<path d="M 79.0 105.0 L 79.0 105.0 L 79.0 103.0 L 79.0 103.0 L 79.0 102.0 L 79.0 101.0 L 79.0 101.0 L 80.0 101.0 L 80.0 102.0 L 81.0 104.0 L 81.0 108.0 L 81.0 114.0 L 81.0 120.0 L 80.0 127.0 L 79.0 134.0 L 79.0 140.0 L 79.0 144.0 " stroke="black" fill="none" stroke-width="5.0" stroke-linecap="round" stroke-linejoin="round" />
<path d="M 98.0 106.0 L 97.0 106.0 L 95.0 106.0 L 94.0 106.0 L 93.0 106.0 L 93.0 106.0 L 93.0 106.0 L 93.0 106.0 L 93.0 106.0 L 93.0 106.0 L 93.0 106.0 L 94.0 106.0 L 96.0 106.0 L 98.0 106.0 L 100.0 106.0 L 103.0 106.0 L 106.0 105.0 L 109.0 104.0 L 113.0 103.0 L 116.0 102.0 L 121.0 101.0 L 126.0 100.0 L 131.0 99.0 L 136.0 98.0 L 141.0 98.0 L 145.0 98.0 L 149.0 99.0 L 152.0 100.0 L 154.0 101.0 L 156.0 101.0 L 159.0 102.0 L 161.0 102.0 L 164.0 102.0 L 167.0 103.0 L 171.0 103.0 L 174.0 103.0 L 178.0 103.0 L 182.0 103.0 L 185.0 103.0 L 189.0 103.0 L 192.0 103.0 L 194.0 103.0 L 196.0 104.0 L 198.0 104.0 L 200.0 105.0 L 202.0 105.0 L 203.0 105.0 L 205.0 105.0 L 207.0 106.0 L 209.0 106.0 L 212.0 106.0 L 214.0 106.0 L 217.0 106.0 L 220.0 106.0 L 223.0 106.0 L 226.0 106.0 L 228.0 106.0 L 231.0 106.0 L 232.0 106.0 L 234.0 106.0 L 236.0 106.0 L 236.0 106.0 L 237.0 106.0 L 238.0 106.0 L 238.0 106.0 L 238.0 106.0 L 238.0 106.0 L 238.0 106.0 L 239.0 107.0 L 239.0 107.0 L 239.0 107.0 L 239.0 107.0 L 239.0 108.0 L 239.0 109.0 L 239.0 109.0 L 239.0 111.0 L 238.0 112.0 L 238.0 114.0 L 237.0 117.0 L 236.0 120.0 L 235.0 125.0 L 234.0 130.0 L 233.0 136.0 L 232.0 142.0 L 231.0 147.0 L 231.0 148.0 " stroke="black" fill="none" stroke-width="5.0" stroke-linecap="round" stroke-linejoin="round" />
<path d="M 104.0 136.0 L 104.0 136.0 L 104.0 136.0 L 104.0 136.0 L 103.0 136.0 L 103.0 136.0 L 103.0 137.0 L 103.0 139.0 L 104.0 142.0 L 105.0 146.0 L 106.0 150.0 L 107.0 156.0 L 108.0 161.0 L 109.0 166.0 L 109.0 170.0 L 110.0 173.0 L 110.0 174.0 L 111.0 174.0 L 111.0 173.0 L 112.0 170.0 L 112.0 169.0 " stroke="black" fill="none" stroke-width="5.0" stroke-linecap="round" stroke-linejoin="round" />
<path d="M 112.0 138.0 L 112.0 137.0 L 111.0 136.0 L 111.0 135.0 L 110.0 134.0 L 110.0 133.0 L 110.0 133.0 L 110.0 132.0 L 111.0 132.0 L 112.0 131.0 L 114.0 131.0 L 116.0 130.0 L 119.0 130.0 L 123.0 130.0 L 129.0 130.0 L 135.0 129.0 L 142.0 129.0 L 149.0 129.0 L 155.0 128.0 L 161.0 128.0 L 167.0 128.0 L 174.0 128.0 L 180.0 128.0 L 187.0 128.0 L 193.0 128.0 L 197.0 127.0 L 200.0 127.0 L 201.0 127.0 L 202.0 127.0 L 203.0 127.0 L 203.0 128.0 L 204.0 129.0 L 204.0 130.0 L 204.0 132.0 L 203.0 134.0 L 201.0 138.0 L 199.0 143.0 L 196.0 148.0 L 193.0 153.0 L 190.0 158.0 L 187.0 161.0 L 185.0 165.0 L 183.0 167.0 " stroke="black" fill="none" stroke-width="5.0" stroke-linecap="round" stroke-linejoin="round" />
<path d="M 124.0 166.0 L 123.0 166.0 L 120.0 166.0 L 118.0 167.0 L 116.0 167.0 L 115.0 167.0 L 115.0 167.0 L 115.0 167.0 L 115.0 167.0 L 116.0 167.0 L 118.0 168.0 L 121.0 168.0 L 125.0 168.0 L 132.0 168.0 L 140.0 168.0 L 148.0 168.0 L 155.0 167.0 L 163.0 166.0 L 170.0 166.0 L 177.0 165.0 L 183.0 165.0 L 187.0 165.0 " stroke="black" fill="none" stroke-width="5.0" stroke-linecap="round" stroke-linejoin="round" />
<path d="M 96.0 200.0 L 96.0 200.0 L 96.0 200.0 L 96.0 199.0 L 95.0 199.0 L 95.0 199.0 L 95.0 199.0 L 95.0 200.0 L 95.0 202.0 L 95.0 205.0 L 95.0 209.0 L 95.0 214.0 L 95.0 221.0 L 95.0 229.0 L 95.0 236.0 L 95.0 242.0 L 95.0 246.0 L 95.0 248.0 L 96.0 248.0 " stroke="black" fill="none" stroke-width="5.0" stroke-linecap="round" stroke-linejoin="round" />
<path d="M 105.0 195.0 L 105.0 195.0 L 104.0 195.0 L 103.0 195.0 L 103.0 195.0 L 102.0 195.0 L 102.0 195.0 L 102.0 195.0 L 101.0 196.0 L 101.0 196.0 L 101.0 196.0 L 102.0 196.0 L 104.0 196.0 L 105.0 196.0 L 107.0 196.0 L 110.0 196.0 L 112.0 195.0 L 115.0 195.0 L 119.0 194.0 L 124.0 193.0 L 129.0 192.0 L 135.0 192.0 L 141.0 191.0 L 146.0 190.0 L 150.0 190.0 L 153.0 189.0 L 156.0 189.0 L 158.0 189.0 L 161.0 189.0 L 164.0 189.0 L 168.0 189.0 L 173.0 188.0 L 178.0 187.0 L 183.0 187.0 L 187.0 186.0 L 190.0 186.0 L 192.0 186.0 L 194.0 186.0 L 195.0 186.0 L 196.0 186.0 L 197.0 186.0 L 198.0 186.0 L 199.0 186.0 L 200.0 186.0 L 200.0 186.0 L 201.0 186.0 L 202.0 186.0 L 203.0 186.0 L 205.0 186.0 L 206.0 186.0 L 207.0 186.0 L 208.0 186.0 L 210.0 186.0 L 212.0 186.0 L 213.0 186.0 L 215.0 187.0 L 217.0 187.0 L 219.0 187.0 L 221.0 187.0 L 223.0 188.0 L 224.0 188.0 L 226.0 189.0 L 228.0 189.0 L 229.0 190.0 L 230.0 190.0 L 231.0 191.0 L 232.0 191.0 L 233.0 191.0 L 233.0 192.0 L 234.0 192.0 L 234.0 192.0 L 234.0 192.0 L 234.0 192.0 L 234.0 193.0 L 234.0 193.0 L 234.0 193.0 L 234.0 193.0 L 235.0 194.0 L 235.0 195.0 L 235.0 195.0 L 235.0 197.0 L 235.0 198.0 L 234.0 200.0 L 234.0 203.0 L 233.0 206.0 L 232.0 210.0 L 231.0 216.0 L 229.0 222.0 L 227.0 229.0 L 224.0 235.0 L 221.0 240.0 L 218.0 244.0 L 215.0 246.0 L 212.0 248.0 L 209.0 249.0 L 208.0 249.0 L 207.0 249.0 L 205.0 250.0 L 204.0 250.0 L 203.0 249.0 L 201.0 248.0 L 199.0 247.0 L 197.0 245.0 L 196.0 244.0 L 195.0 243.0 L 194.0 242.0 L 193.0 241.0 L 190.0 238.0 " stroke="black" fill="none" stroke-width="5.0" stroke-linecap="round" stroke-linejoin="round" />
<path d="M 153.0 179.0 L 153.0 179.0 L 153.0 178.0 L 153.0 177.0 L 153.0 177.0 L 154.0 177.0 L 154.0 177.0 L 154.0 180.0 L 154.0 184.0 L 154.0 189.0 L 154.0 195.0 L 154.0 203.0 L 153.0 214.0 L 153.0 227.0 L 152.0 240.0 L 151.0 253.0 L 151.0 262.0 L 151.0 268.0 L 151.0 272.0 L 151.0 273.0 " stroke="black" fill="none" stroke-width="5.0" stroke-linecap="round" stroke-linejoin="round" />
</svg>