<svg xmlns="http://www.w3.org/2000/svg" width="300" height="300" viewBox="0 0 300 300">
<path d="M 89.0 85.0 L 88.0 85.0 L 85.0 85.0 L 83.0 85.0 L 82.0 84.0 L 81.0 84.0 L 81.0 84.0 L 81.0 84.0 L 82.0 84.0 L 85.0 84.0 L 89.0 84.0 L 93.0 84.0 L 99.0 84.0 L 105.0 84.0 L 110.0 84.0 L 118.0 84.0 L 128.0 84.0 L 139.0 84.0 L 150.0 84.0 L 158.0 84.0 L 166.0 83.0 L 173.0 83.0 L 181.0 83.0 L 187.0 83.0 L 191.0 83.0 L 195.0 83.0 L 196.0 84.0 L 198.0 84.0 L 199.0 85.0 L 199.0 85.0 " stroke="black" fill="none" stroke-width="5.0" stroke-linecap="round" stroke-linejoin="round" />
<path d="M 98.0 118.0 L 97.0 118.0 L 96.0 118.0 L 95.0 117.0 L 95.0 117.0 L 95.0 116.0 L 95.0 116.0 L 96.0 117.0 L 98.0 119.0 L 101.0 121.0 L 105.0 124.0 L 108.0 127.0 L 112.0 130.0 L 117.0 134.0 L 123.0 138.0 " stroke="black" fill="none" stroke-width="5.0" stroke-linecap="round" stroke-linejoin="round" />
<path d="M 217.0 117.0 L 217.0 117.0 L 217.0 117.0 L 217.0 117.0 L 216.0 117.0 L 215.0 117.0 L 213.0 117.0 L 210.0 119.0 L 205.0 123.0 L 199.0 128.0 L 193.0 135.0 L 189.0 139.0 L 180.0 149.0 L 178.0 152.0 " stroke="black" fill="none" stroke-width="5.0" stroke-linecap="round" stroke-linejoin="round" />
<path d="M 97.0 170.0 L 94.0 170.0 L 92.0 171.0 L 89.0 171.0 L 88.0 171.0 L 87.0 171.0 L 87.0 171.0 L 87.0 171.0 L 88.0 171.0 L 91.0 171.0 L 95.0 170.0 L 99.0 170.0 L 104.0 170.0 L 110.0 170.0 L 118.0 170.0 L 130.0 170.0 L 143.0 170.0 L 157.0 170.0 L 174.0 170.0 L 189.0 170.0 L 200.0 170.0 L 210.0 170.0 L 218.0 170.0 L 226.0 170.0 L 231.0 170.0 L 234.0 170.0 L 235.0 170.0 L 236.0 169.0 " stroke="black" fill="none" stroke-width="5.0" stroke-linecap="round" stroke-linejoin="round" />
<path d="M 153.0 95.0 L 153.0 95.0 L 153.0 95.0 L 152.0 95.0 L 152.0 96.0 L 152.0 98.0 L 151.0 101.0 L 151.0 106.0 L 151.0 112.0 L 151.0 121.0 L 150.0 131.0 L 150.0 142.0 L 150.0 154.0 L 150.0 166.0 L 150.0 177.0 L 150.0 190.0 L 150.0 204.0 L 150.0 215.0 L 150.0 227.0 L 150.0 238.0 L 150.0 247.0 L 150.0 254.0 L 149.0 260.0 L 148.0 265.0 L 147.0 270.0 L 147.0 273.0 L 146.0 274.0 L 146.0 274.0 L 146.0 271.0 L 147.0 270.0 " stroke="black" fill="none" stroke-width="5.0" stroke-linecap="round" stroke-linejoin="round" />
</svg>