<svg xmlns="http://www.w3.org/2000/svg" width="300" height="300" viewBox="0 0 300 300">
<path d="M 92.0 64.0 L 92.0 64.0 L 92.0 64.0 L 91.0 64.0 L 91.0 64.0 L 91.0 64.0 L 91.0 64.0 L 91.0 65.0 L 90.0 67.0 L 89.0 70.0 L 86.0 75.0 L 83.0 81.0 L 78.0 88.0 L 71.0 97.0 L 65.0 106.0 L 59.0 113.0 L 54.0 119.0 L 48.0 124.0 " stroke="black" fill="none" stroke-width="5.0" stroke-linecap="round" stroke-linejoin="round" />
<path d="M 94.0 112.0 L 94.0 112.0 L 94.0 112.0 L 94.0 112.0 L 94.0 112.0 L 94.0 112.0 L 94.0 112.0 L 94.0 113.0 L 94.0 114.0 L 94.0 116.0 L 93.0 119.0 L 90.0 123.0 L 87.0 128.0 L 81.0 136.0 L 75.0 144.0 L 69.0 151.0 L 63.0 158.0 L 58.0 163.0 L 53.0 168.0 L 47.0 172.0 L 41.0 175.0 L 36.0 177.0 L 32.0 179.0 " stroke="black" fill="none" stroke-width="5.0" stroke-linecap="round" stroke-linejoin="round" />
<path d="M 76.0 144.0 L 76.0 144.0 L 76.0 144.0 L 75.0 144.0 L 75.0 144.0 L 75.0 144.0 L 75.0 144.0 L 75.0 145.0 L 75.0 146.0 L 75.0 147.0 L 76.0 150.0 L 76.0 153.0 L 77.0 158.0 L 78.0 165.0 L 78.0 173.0 L 78.0 184.0 L 78.0 197.0 L 78.0 208.0 L 78.0 220.0 L 78.0 232.0 L 78.0 240.0 L 78.0 246.0 L 79.0 250.0 L 79.0 252.0 L 79.0 252.0 " stroke="black" fill="none" stroke-width="5.0" stroke-linecap="round" stroke-linejoin="round" />
<path d="M 128.0 75.0 L 128.0 75.0 L 127.0 74.0 L 127.0 73.0 L 126.0 73.0 L 126.0 73.0 L 126.0 73.0 L 126.0 74.0 L 127.0 76.0 L 127.0 79.0 L 127.0 83.0 L 126.0 87.0 L 123.0 93.0 L 118.0 100.0 L 114.0 107.0 L 109.0 113.0 L 105.0 118.0 L 102.0 121.0 L 100.0 123.0 L 98.0 124.0 L 97.0 124.0 L 97.0 124.0 " stroke="black" fill="none" stroke-width="5.0" stroke-linecap="round" stroke-linejoin="round" />
<path d="M 113.0 101.0 L 113.0 101.0 L 113.0 100.0 L 112.0 99.0 L 112.0 98.0 L 112.0 98.0 L 113.0 97.0 L 115.0 97.0 L 119.0 96.0 L 125.0 95.0 L 133.0 94.0 L 142.0 93.0 L 149.0 92.0 L 156.0 91.0 L 163.0 91.0 L 168.0 91.0 L 174.0 91.0 L 180.0 91.0 L 185.0 91.0 " stroke="black" fill="none" stroke-width="5.0" stroke-linecap="round" stroke-linejoin="round" />
<path d="M 149.0 107.0 L 149.0 107.0 L 149.0 107.0 L 149.0 106.0 L 149.0 106.0 L 149.0 106.0 L 149.0 106.0 L 148.0 109.0 L 148.0 112.0 L 148.0 117.0 L 148.0 124.0 L 148.0 133.0 L 147.0 145.0 L 146.0 157.0 L 145.0 169.0 L 144.0 181.0 L 143.0 194.0 L 142.0 202.0 L 141.0 209.0 L 141.0 215.0 L 141.0 219.0 L 141.0 221.0 L 141.0 221.0 L 142.0 220.0 " stroke="black" fill="none" stroke-width="5.0" stroke-linecap="round" stroke-linejoin="round" />
<path d="M 116.0 143.0 L 116.0 143.0 L 113.0 143.0 L 112.0 143.0 L 111.0 143.0 L 110.0 143.0 L 110.0 143.0 L 110.0 143.0 L 110.0 143.0 L 112.0 143.0 L 115.0 143.0 L 119.0 143.0 L 126.0 142.0 L 135.0 141.0 L 143.0 140.0 L 152.0 138.0 L 161.0 136.0 L 170.0 134.0 L 177.0 133.0 L 183.0 133.0 L 187.0 133.0 L 189.0 133.0 " stroke="black" fill="none" stroke-width="5.0" stroke-linecap="round" stroke-linejoin="round" />
<path d="M 147.0 189.0 L 147.0 189.0 L 146.0 189.0 L 144.0 188.0 L 144.0 187.0 L 143.0 187.0 L 143.0 186.0 L 143.0 185.0 L 145.0 184.0 L 147.0 183.0 L 150.0 182.0 L 153.0 181.0 L 158.0 180.0 L 162.0 180.0 L 168.0 180.0 L 173.0 179.0 L 176.0 179.0 " stroke="black" fill="none" stroke-width="5.0" stroke-linecap="round" stroke-linejoin="round" />
<path d="M 122.0 174.0 L 122.0 173.0 L 121.0 173.0 L 121.0 172.0 L 121.0 172.0 L 121.0 172.0 L 121.0 172.0 L 121.0 173.0 L 122.0 176.0 L 123.0 180.0 L 123.0 184.0 L 123.0 190.0 L 123.0 196.0 L 123.0 202.0 L 122.0 208.0 L 122.0 214.0 L 121.0 218.0 L 121.0 223.0 L 120.0 226.0 L 119.0 229.0 L 118.0 231.0 L 117.0 232.0 L 116.0 233.0 L 115.0 234.0 L 114.0 235.0 L 112.0 236.0 L 111.0 237.0 L 109.0 238.0 L 108.0 238.0 L 107.0 239.0 L 106.0 239.0 L 105.0 239.0 L 105.0 239.0 L 105.0 239.0 L 105.0 239.0 L 105.0 239.0 L 105.0 239.0 L 105.0 239.0 L 107.0 240.0 L 108.0 240.0 L 111.0 240.0 L 114.0 240.0 L 119.0 240.0 L 127.0 239.0 L 136.0 236.0 L 145.0 233.0 L 153.0 230.0 L 161.0 226.0 L 167.0 223.0 L 170.0 222.0 " stroke="black" fill="none" stroke-width="5.0" stroke-linecap="round" stroke-linejoin="round" />
<path d="M 194.0 100.0 L 194.0 100.0 L 193.0 99.0 L 193.0 99.0 L 193.0 98.0 L 192.0 98.0 L 192.0 97.0 L 192.0 97.0 L 192.0 97.0 L 193.0 96.0 L 194.0 96.0 L 196.0 96.0 L 199.0 96.0 L 203.0 96.0 L 209.0 96.0 L 215.0 96.0 L 221.0 96.0 L 227.0 96.0 L 231.0 96.0 L 235.0 96.0 L 237.0 96.0 L 238.0 96.0 L 239.0 96.0 L 239.0 96.0 L 239.0 96.0 L 239.0 97.0 L 239.0 97.0 L 238.0 98.0 L 238.0 98.0 L 238.0 99.0 L 238.0 100.0 L 238.0 100.0 L 238.0 102.0 L 238.0 104.0 L 238.0 106.0 L 238.0 109.0 L 238.0 113.0 L 238.0 117.0 L 238.0 122.0 L 238.0 128.0 L 238.0 135.0 L 237.0 143.0 L 237.0 151.0 L 236.0 159.0 L 236.0 167.0 L 235.0 173.0 L 235.0 179.0 L 235.0 186.0 L 235.0 191.0 L 235.0 197.0 L 234.0 203.0 L 234.0 207.0 L 234.0 211.0 L 234.0 216.0 L 234.0 219.0 L 233.0 221.0 L 233.0 223.0 L 232.0 224.0 L 232.0 224.0 L 231.0 224.0 L 230.0 224.0 L 229.0 222.0 L 227.0 220.0 L 226.0 219.0 L 224.0 217.0 L 222.0 214.0 L 219.0 212.0 L 218.0 210.0 " stroke="black" fill="none" stroke-width="5.0" stroke-linecap="round" stroke-linejoin="round" />
<path d="M 194.0 106.0 L 194.0 107.0 L 194.0 108.0 L 195.0 110.0 L 195.0 112.0 L 195.0 114.0 L 196.0 117.0 L 196.0 120.0 L 196.0 126.0 L 196.0 132.0 L 196.0 142.0 L 196.0 152.0 L 196.0 162.0 L 196.0 172.0 L 196.0 184.0 L 195.0 193.0 L 195.0 202.0 L 195.0 210.0 L 195.0 217.0 L 195.0 224.0 L 196.0 232.0 L 196.0 237.0 L 197.0 242.0 L 197.0 246.0 L 197.0 250.0 L 197.0 252.0 L 197.0 254.0 L 197.0 254.0 L 197.0 254.0 " stroke="black" fill="none" stroke-width="5.0" stroke-linecap="round" stroke-linejoin="round" />
</svg>