<svg xmlns="http://www.w3.org/2000/svg" width="300" height="300" viewBox="0 0 300 300">
<path d="M 147.0 71.0 L 147.0 70.0 L 147.0 69.0 L 146.0 68.0 L 146.0 67.0 L 146.0 67.0 L 146.0 67.0 L 146.0 67.0 L 147.0 68.0 L 147.0 70.0 L 148.0 73.0 L 149.0 77.0 L 150.0 80.0 L 151.0 83.0 L 152.0 85.0 L 153.0 87.0 L 154.0 88.0 " stroke="black" fill="none" stroke-width="5.0" stroke-linecap="round" stroke-linejoin="round" />
<path d="M 80.0 91.0 L 80.0 91.0 L 80.0 91.0 L 79.0 91.0 L 79.0 91.0 L 79.0 91.0 L 78.0 91.0 L 78.0 91.0 L 78.0 91.0 L 78.0 91.0 L 78.0 91.0 L 77.0 91.0 L 77.0 91.0 L 77.0 91.0 L 77.0 91.0 L 77.0 91.0 L 78.0 91.0 L 78.0 91.0 L 78.0 91.0 L 79.0 91.0 L 80.0 90.0 L 80.0 90.0 L 81.0 90.0 L 82.0 90.0 L 83.0 90.0 L 84.0 90.0 L 85.0 90.0 L 86.0 90.0 L 87.0 90.0 L 87.0 90.0 L 88.0 90.0 L 89.0 90.0 L 90.0 89.0 L 91.0 89.0 L 92.0 89.0 L 93.0 89.0 L 94.0 89.0 L 94.0 89.0 L 95.0 89.0 L 96.0 89.0 L 96.0 89.0 L 97.0 89.0 L 98.0 89.0 L 98.0 89.0 L 99.0 89.0 L 100.0 89.0 L 100.0 89.0 L 101.0 89.0 L 101.0 89.0 L 102.0 89.0 L 102.0 89.0 L 103.0 89.0 L 103.0 89.0 L 104.0 89.0 L 105.0 89.0 L 105.0 89.0 L 106.0 88.0 L 106.0 88.0 L 107.0 88.0 L 108.0 88.0 L 108.0 88.0 L 109.0 88.0 L 109.0 88.0 L 110.0 88.0 L 110.0 88.0 L 111.0 88.0 L 111.0 88.0 L 112.0 88.0 L 112.0 88.0 L 113.0 88.0 L 113.0 88.0 L 114.0 88.0 L 114.0 88.0 L 115.0 88.0 L 115.0 88.0 L 116.0 88.0 L 116.0 88.0 L 117.0 88.0 L 117.0 88.0 L 118.0 88.0 L 119.0 88.0 L 119.0 89.0 L 120.0 89.0 L 121.0 89.0 L 121.0 89.0 L 122.0 89.0 L 123.0 89.0 L 124.0 89.0 L 124.0 89.0 L 125.0 89.0 L 126.0 89.0 L 127.0 89.0 L 128.0 89.0 L 128.0 89.0 L 129.0 89.0 L 130.0 89.0 L 131.0 89.0 L 132.0 89.0 L 133.0 89.0 L 134.0 89.0 L 134.0 89.0 L 135.0 89.0 L 136.0 89.0 L 137.0 89.0 L 138.0 89.0 L 139.0 89.0 L 139.0 89.0 L 140.0 89.0 L 141.0 89.0 L 142.0 89.0 L 143.0 89.0 L 144.0 89.0 L 144.0 89.0 L 145.0 89.0 L 146.0 90.0 L 147.0 90.0 L 148.0 90.0 L 148.0 90.0 L 149.0 90.0 L 150.0 90.0 L 150.0 90.0 L 151.0 90.0 L 151.0 90.0 L 152.0 90.0 L 152.0 90.0 L 153.0 91.0 L 153.0 91.0 L 154.0 91.0 L 155.0 91.0 L 155.0 91.0 L 156.0 91.0 L 156.0 91.0 L 157.0 91.0 L 157.0 91.0 L 158.0 91.0 L 158.0 91.0 L 159.0 91.0 L 160.0 91.0 L 160.0 91.0 L 161.0 91.0 L 162.0 91.0 L 163.0 91.0 L 163.0 91.0 L 164.0 91.0 L 165.0 91.0 L 166.0 91.0 L 167.0 91.0 L 168.0 91.0 L 168.0 91.0 L 169.0 91.0 L 170.0 91.0 L 171.0 91.0 L 173.0 90.0 L 174.0 90.0 L 175.0 90.0 L 176.0 90.0 L 177.0 90.0 L 178.0 90.0 L 179.0 90.0 L 180.0 90.0 L 181.0 90.0 L 182.0 90.0 L 183.0 90.0 L 184.0 90.0 L 185.0 90.0 L 186.0 90.0 L 187.0 90.0 L 188.0 90.0 L 189.0 90.0 L 189.0 90.0 L 190.0 90.0 L 191.0 90.0 L 192.0 90.0 L 192.0 90.0 L 193.0 90.0 L 194.0 90.0 L 194.0 90.0 L 195.0 91.0 L 195.0 91.0 L 196.0 91.0 L 197.0 91.0 L 197.0 91.0 L 198.0 91.0 L 198.0 91.0 L 199.0 91.0 L 200.0 91.0 L 200.0 91.0 L 201.0 91.0 L 202.0 91.0 L 202.0 91.0 L 203.0 91.0 L 204.0 91.0 L 205.0 91.0 L 206.0 91.0 L 207.0 91.0 L 208.0 91.0 L 209.0 91.0 L 210.0 91.0 L 211.0 91.0 L 212.0 92.0 L 213.0 92.0 L 214.0 92.0 L 215.0 92.0 L 217.0 92.0 L 218.0 93.0 L 219.0 93.0 L 220.0 93.0 L 221.0 93.0 L 222.0 94.0 L 223.0 94.0 L 224.0 94.0 L 225.0 94.0 L 226.0 94.0 L 227.0 94.0 L 227.0 94.0 " stroke="black" fill="none" stroke-width="5.0" stroke-linecap="round" stroke-linejoin="round" />
<path d="M 101.0 136.0 L 101.0 136.0 L 101.0 136.0 L 101.0 136.0 L 101.0 136.0 L 101.0 136.0 L 101.0 136.0 L 101.0 136.0 L 101.0 136.0 L 101.0 136.0 L 101.0 136.0 L 101.0 136.0 L 101.0 136.0 L 101.0 136.0 L 101.0 136.0 L 101.0 136.0 L 101.0 136.0 L 101.0 136.0 L 101.0 136.0 L 101.0 136.0 L 101.0 136.0 L 102.0 136.0 L 102.0 136.0 L 102.0 136.0 L 103.0 136.0 L 103.0 136.0 L 104.0 136.0 L 104.0 136.0 L 105.0 136.0 L 105.0 135.0 L 106.0 135.0 L 106.0 135.0 L 107.0 134.0 L 107.0 134.0 L 108.0 134.0 L 108.0 134.0 L 109.0 133.0 L 109.0 133.0 L 110.0 133.0 L 110.0 133.0 L 110.0 133.0 L 111.0 133.0 L 111.0 133.0 L 112.0 132.0 L 112.0 132.0 L 113.0 132.0 L 113.0 132.0 L 114.0 132.0 L 114.0 132.0 L 115.0 132.0 L 115.0 132.0 L 116.0 131.0 L 117.0 131.0 L 117.0 131.0 L 118.0 131.0 L 119.0 130.0 L 120.0 130.0 L 121.0 130.0 L 121.0 130.0 L 122.0 130.0 L 123.0 130.0 L 123.0 129.0 L 124.0 129.0 L 125.0 129.0 L 126.0 128.0 L 127.0 128.0 L 128.0 128.0 L 129.0 127.0 L 130.0 127.0 L 130.0 126.0 L 131.0 126.0 L 132.0 126.0 L 133.0 125.0 L 134.0 125.0 L 135.0 125.0 L 136.0 125.0 L 137.0 125.0 L 138.0 124.0 L 139.0 124.0 L 140.0 124.0 L 141.0 124.0 L 141.0 124.0 L 142.0 123.0 L 143.0 123.0 L 143.0 123.0 L 144.0 123.0 L 145.0 123.0 L 145.0 122.0 L 146.0 122.0 L 147.0 122.0 L 147.0 122.0 L 148.0 122.0 L 148.0 121.0 L 149.0 121.0 L 150.0 121.0 L 150.0 121.0 L 151.0 121.0 L 151.0 121.0 L 152.0 121.0 L 152.0 121.0 L 153.0 120.0 L 153.0 120.0 L 154.0 120.0 L 154.0 119.0 L 155.0 119.0 L 155.0 119.0 L 156.0 119.0 L 156.0 118.0 L 157.0 118.0 L 157.0 118.0 L 158.0 118.0 L 158.0 118.0 L 159.0 117.0 L 160.0 117.0 L 160.0 117.0 L 161.0 116.0 L 162.0 116.0 L 163.0 116.0 L 163.0 116.0 L 164.0 115.0 L 165.0 115.0 L 165.0 115.0 L 166.0 115.0 L 167.0 115.0 L 168.0 114.0 L 168.0 114.0 L 169.0 114.0 L 170.0 114.0 L 171.0 114.0 L 171.0 114.0 L 172.0 114.0 L 173.0 113.0 L 174.0 113.0 L 174.0 113.0 L 175.0 113.0 L 176.0 113.0 L 176.0 113.0 L 177.0 112.0 L 177.0 112.0 L 178.0 112.0 L 178.0 112.0 L 179.0 111.0 L 179.0 111.0 L 180.0 111.0 L 180.0 111.0 L 180.0 111.0 L 181.0 111.0 L 181.0 110.0 L 182.0 110.0 L 182.0 110.0 L 183.0 109.0 L 183.0 109.0 L 184.0 109.0 L 184.0 109.0 L 184.0 109.0 L 185.0 108.0 L 185.0 108.0 L 186.0 108.0 L 186.0 108.0 L 187.0 108.0 L 187.0 107.0 L 187.0 107.0 L 188.0 107.0 L 188.0 107.0 L 189.0 106.0 L 189.0 106.0 L 189.0 106.0 L 189.0 106.0 L 190.0 105.0 L 190.0 105.0 L 190.0 105.0 L 190.0 105.0 L 191.0 105.0 L 191.0 105.0 L 191.0 105.0 L 191.0 105.0 L 191.0 105.0 L 192.0 105.0 L 192.0 104.0 L 192.0 104.0 L 192.0 104.0 L 193.0 104.0 L 193.0 104.0 L 193.0 103.0 L 193.0 103.0 L 194.0 102.0 L 194.0 102.0 L 194.0 102.0 L 194.0 101.0 L 195.0 101.0 L 195.0 100.0 L 195.0 100.0 L 195.0 99.0 L 196.0 98.0 L 196.0 98.0 L 196.0 97.0 L 197.0 97.0 L 197.0 96.0 L 198.0 95.0 " stroke="black" fill="none" stroke-width="5.0" stroke-linecap="round" stroke-linejoin="round" />
<path d="M 108.0 105.0 L 108.0 105.0 L 108.0 105.0 L 108.0 105.0 L 108.0 105.0 L 108.0 105.0 L 108.0 105.0 L 108.0 105.0 L 108.0 105.0 L 109.0 105.0 L 109.0 105.0 L 110.0 106.0 L 111.0 106.0 L 112.0 107.0 L 114.0 107.0 L 115.0 108.0 L 117.0 108.0 L 119.0 109.0 L 121.0 109.0 L 123.0 110.0 L 125.0 111.0 L 127.0 111.0 L 130.0 112.0 L 132.0 112.0 L 134.0 113.0 L 136.0 114.0 L 137.0 114.0 L 139.0 115.0 L 141.0 116.0 L 142.0 116.0 L 144.0 117.0 L 145.0 117.0 L 147.0 118.0 L 148.0 118.0 L 150.0 119.0 L 152.0 119.0 L 153.0 120.0 L 155.0 120.0 L 157.0 121.0 L 160.0 121.0 L 162.0 122.0 L 164.0 123.0 L 167.0 123.0 L 170.0 124.0 L 173.0 125.0 L 176.0 126.0 L 179.0 127.0 L 182.0 127.0 L 185.0 128.0 L 188.0 129.0 L 190.0 130.0 L 192.0 130.0 L 193.0 130.0 L 194.0 131.0 L 195.0 131.0 L 195.0 131.0 L 195.0 131.0 " stroke="black" fill="none" stroke-width="5.0" stroke-linecap="round" stroke-linejoin="round" />
<path d="M 79.0 148.0 L 79.0 148.0 L 79.0 148.0 L 79.0 148.0 L 79.0 148.0 L 79.0 148.0 L 79.0 148.0 L 79.0 148.0 L 80.0 148.0 L 80.0 148.0 L 80.0 148.0 L 80.0 147.0 L 81.0 147.0 L 81.0 147.0 L 82.0 147.0 L 82.0 147.0 L 83.0 147.0 L 84.0 147.0 L 85.0 147.0 L 86.0 147.0 L 87.0 147.0 L 88.0 147.0 L 90.0 147.0 L 91.0 147.0 L 92.0 146.0 L 93.0 146.0 L 94.0 146.0 L 95.0 146.0 L 96.0 146.0 L 97.0 146.0 L 98.0 146.0 L 99.0 146.0 L 100.0 146.0 L 101.0 146.0 L 101.0 146.0 L 102.0 146.0 L 103.0 146.0 L 104.0 146.0 L 105.0 146.0 L 105.0 146.0 L 106.0 146.0 L 107.0 146.0 L 108.0 146.0 L 108.0 146.0 L 109.0 146.0 L 110.0 146.0 L 111.0 146.0 L 111.0 146.0 L 112.0 146.0 L 113.0 146.0 L 114.0 146.0 L 114.0 146.0 L 115.0 146.0 L 116.0 146.0 L 117.0 146.0 L 119.0 146.0 L 120.0 146.0 L 121.0 146.0 L 122.0 146.0 L 124.0 146.0 L 125.0 146.0 L 127.0 146.0 L 128.0 146.0 L 130.0 146.0 L 131.0 146.0 L 133.0 146.0 L 134.0 146.0 L 136.0 146.0 L 137.0 146.0 L 139.0 146.0 L 140.0 146.0 L 142.0 146.0 L 143.0 145.0 L 145.0 145.0 L 146.0 145.0 L 148.0 145.0 L 149.0 145.0 L 150.0 145.0 L 152.0 145.0 L 153.0 145.0 L 154.0 145.0 L 155.0 145.0 L 156.0 145.0 L 157.0 145.0 L 159.0 145.0 L 160.0 146.0 L 161.0 146.0 L 162.0 146.0 L 163.0 146.0 L 164.0 147.0 L 166.0 147.0 L 167.0 147.0 L 168.0 148.0 L 169.0 148.0 L 170.0 148.0 L 172.0 148.0 L 173.0 148.0 L 174.0 148.0 L 176.0 148.0 L 177.0 148.0 L 179.0 148.0 L 180.0 148.0 L 182.0 148.0 L 184.0 148.0 L 185.0 148.0 L 188.0 147.0 L 190.0 147.0 L 192.0 147.0 L 193.0 147.0 L 195.0 147.0 L 196.0 147.0 L 198.0 147.0 L 199.0 147.0 L 200.0 147.0 L 202.0 147.0 L 203.0 147.0 L 205.0 148.0 L 206.0 148.0 L 208.0 148.0 L 210.0 148.0 L 212.0 148.0 L 214.0 148.0 L 216.0 148.0 L 219.0 148.0 L 221.0 148.0 L 223.0 148.0 L 226.0 148.0 L 228.0 148.0 L 230.0 148.0 L 231.0 148.0 L 232.0 147.0 L 233.0 147.0 L 234.0 147.0 L 234.0 147.0 L 235.0 147.0 L 235.0 147.0 L 235.0 147.0 L 235.0 147.0 " stroke="black" fill="none" stroke-width="5.0" stroke-linecap="round" stroke-linejoin="round" />
<path d="M 75.0 154.0 L 75.0 154.0 L 75.0 154.0 L 75.0 154.0 L 75.0 155.0 L 76.0 155.0 L 76.0 155.0 L 76.0 155.0 L 76.0 156.0 L 76.0 156.0 L 77.0 157.0 L 77.0 159.0 L 77.0 160.0 L 78.0 162.0 L 78.0 164.0 L 79.0 167.0 L 79.0 170.0 L 79.0 173.0 L 80.0 176.0 L 80.0 180.0 L 80.0 184.0 L 80.0 188.0 L 80.0 192.0 L 80.0 195.0 L 79.0 198.0 L 78.0 202.0 L 77.0 205.0 L 76.0 209.0 L 75.0 213.0 L 74.0 216.0 L 73.0 219.0 L 72.0 223.0 L 72.0 226.0 L 71.0 229.0 L 70.0 232.0 L 69.0 235.0 L 68.0 238.0 L 67.0 241.0 L 66.0 244.0 L 64.0 247.0 L 63.0 250.0 L 61.0 252.0 L 59.0 255.0 L 58.0 257.0 L 57.0 257.0 L 57.0 257.0 " stroke="black" fill="none" stroke-width="5.0" stroke-linecap="round" stroke-linejoin="round" />
<path d="M 119.0 180.0 L 119.0 180.0 L 118.0 180.0 L 118.0 180.0 L 117.0 180.0 L 117.0 180.0 L 116.0 180.0 L 116.0 180.0 L 116.0 180.0 L 116.0 180.0 L 116.0 180.0 L 116.0 180.0 L 118.0 180.0 L 119.0 180.0 L 121.0 180.0 L 124.0 180.0 L 128.0 179.0 L 132.0 178.0 L 137.0 176.0 L 142.0 174.0 L 148.0 172.0 L 152.0 170.0 L 157.0 168.0 L 162.0 166.0 L 166.0 165.0 L 170.0 163.0 L 174.0 162.0 L 178.0 161.0 L 181.0 161.0 L 183.0 160.0 L 184.0 160.0 " stroke="black" fill="none" stroke-width="5.0" stroke-linecap="round" stroke-linejoin="round" />
<path d="M 122.0 212.0 L 122.0 212.0 L 122.0 212.0 L 121.0 213.0 L 121.0 213.0 L 121.0 213.0 L 121.0 213.0 L 121.0 213.0 L 121.0 213.0 L 121.0 213.0 L 123.0 213.0 L 125.0 213.0 L 127.0 212.0 L 130.0 212.0 L 134.0 211.0 L 137.0 210.0 L 142.0 209.0 L 146.0 207.0 L 150.0 206.0 L 154.0 204.0 L 158.0 203.0 L 163.0 201.0 L 168.0 200.0 L 175.0 198.0 L 181.0 197.0 L 188.0 195.0 L 194.0 192.0 L 198.0 188.0 L 201.0 185.0 L 204.0 182.0 L 206.0 180.0 L 207.0 178.0 L 208.0 178.0 " stroke="black" fill="none" stroke-width="5.0" stroke-linecap="round" stroke-linejoin="round" />
<path d="M 112.0 249.0 L 112.0 249.0 L 112.0 249.0 L 112.0 249.0 L 111.0 249.0 L 111.0 249.0 L 111.0 250.0 L 111.0 250.0 L 111.0 250.0 L 111.0 250.0 L 111.0 250.0 L 111.0 250.0 L 112.0 250.0 L 112.0 250.0 L 113.0 250.0 L 115.0 250.0 L 116.0 250.0 L 117.0 250.0 L 119.0 250.0 L 121.0 249.0 L 124.0 249.0 L 126.0 248.0 L 130.0 247.0 L 133.0 245.0 L 137.0 244.0 L 141.0 243.0 L 144.0 241.0 L 147.0 240.0 L 150.0 239.0 L 152.0 239.0 L 154.0 238.0 L 156.0 237.0 L 158.0 237.0 L 161.0 237.0 L 164.0 236.0 L 167.0 236.0 L 171.0 235.0 L 175.0 234.0 L 179.0 233.0 L 184.0 231.0 L 188.0 230.0 L 192.0 228.0 L 195.0 226.0 L 199.0 224.0 L 201.0 223.0 L 203.0 221.0 L 206.0 220.0 L 208.0 218.0 L 210.0 216.0 L 212.0 214.0 L 214.0 212.0 L 216.0 210.0 L 218.0 208.0 L 220.0 206.0 L 222.0 205.0 " stroke="black" fill="none" stroke-width="5.0" stroke-linecap="round" stroke-linejoin="round" />
</svg>