<svg xmlns="http://www.w3.org/2000/svg" width="300" height="300" viewBox="0 0 300 300">
<path d="M 107.0 67.0 L 107.0 67.0 L 107.0 67.0 L 107.0 67.0 L 107.0 67.0 L 106.0 67.0 L 106.0 67.0 L 106.0 67.0 L 106.0 67.0 L 106.0 67.0 L 106.0 67.0 L 105.0 69.0 L 104.0 71.0 L 103.0 73.0 L 101.0 77.0 L 98.0 82.0 L 93.0 87.0 L 87.0 94.0 L 81.0 101.0 L 73.0 108.0 L 68.0 113.0 L 64.0 117.0 L 60.0 121.0 " stroke="black" fill="none" stroke-width="5.0" stroke-linecap="round" stroke-linejoin="round" />
<path d="M 109.0 113.0 L 109.0 113.0 L 109.0 112.0 L 109.0 111.0 L 110.0 111.0 L 110.0 110.0 L 110.0 110.0 L 111.0 110.0 L 111.0 110.0 L 111.0 110.0 L 111.0 111.0 L 111.0 113.0 L 111.0 115.0 L 109.0 118.0 L 107.0 122.0 L 105.0 126.0 L 102.0 132.0 L 97.0 138.0 L 91.0 146.0 L 84.0 153.0 L 77.0 159.0 L 70.0 164.0 L 66.0 167.0 L 62.0 170.0 L 59.0 172.0 " stroke="black" fill="none" stroke-width="5.0" stroke-linecap="round" stroke-linejoin="round" />
<path d="M 92.0 148.0 L 92.0 147.0 L 92.0 146.0 L 92.0 145.0 L 92.0 145.0 L 93.0 144.0 L 93.0 144.0 L 93.0 144.0 L 93.0 144.0 L 94.0 144.0 L 94.0 146.0 L 94.0 148.0 L 94.0 152.0 L 94.0 156.0 L 94.0 161.0 L 94.0 167.0 L 94.0 176.0 L 94.0 188.0 L 93.0 201.0 L 93.0 214.0 L 93.0 228.0 L 93.0 240.0 L 93.0 247.0 L 93.0 252.0 L 93.0 256.0 L 93.0 258.0 L 93.0 259.0 " stroke="black" fill="none" stroke-width="5.0" stroke-linecap="round" stroke-linejoin="round" />
<path d="M 177.0 71.0 L 177.0 71.0 L 176.0 71.0 L 176.0 71.0 L 175.0 72.0 L 175.0 73.0 L 174.0 73.0 L 174.0 74.0 L 173.0 75.0 L 172.0 77.0 L 171.0 79.0 L 169.0 81.0 L 166.0 84.0 L 163.0 87.0 L 162.0 89.0 " stroke="black" fill="none" stroke-width="5.0" stroke-linecap="round" stroke-linejoin="round" />
<path d="M 135.0 99.0 L 135.0 99.0 L 135.0 99.0 L 135.0 100.0 L 135.0 100.0 L 135.0 101.0 L 135.0 102.0 L 135.0 104.0 L 135.0 106.0 L 135.0 110.0 L 135.0 116.0 L 135.0 122.0 L 135.0 130.0 L 135.0 138.0 L 135.0 145.0 L 135.0 151.0 L 135.0 155.0 L 135.0 156.0 " stroke="black" fill="none" stroke-width="5.0" stroke-linecap="round" stroke-linejoin="round" />
<path d="M 138.0 97.0 L 138.0 97.0 L 138.0 97.0 L 137.0 97.0 L 137.0 97.0 L 137.0 97.0 L 136.0 97.0 L 136.0 97.0 L 136.0 96.0 L 136.0 96.0 L 136.0 96.0 L 137.0 96.0 L 137.0 96.0 L 138.0 96.0 L 139.0 96.0 L 140.0 95.0 L 141.0 95.0 L 142.0 95.0 L 143.0 95.0 L 144.0 95.0 L 145.0 95.0 L 146.0 95.0 L 147.0 95.0 L 148.0 95.0 L 149.0 95.0 L 150.0 94.0 L 151.0 94.0 L 153.0 94.0 L 154.0 94.0 L 155.0 94.0 L 156.0 94.0 L 158.0 93.0 L 159.0 93.0 L 161.0 93.0 L 163.0 93.0 L 165.0 93.0 L 168.0 92.0 L 170.0 92.0 L 172.0 92.0 L 174.0 92.0 L 176.0 92.0 L 178.0 92.0 L 181.0 92.0 L 183.0 92.0 L 184.0 92.0 L 186.0 92.0 L 188.0 92.0 L 189.0 92.0 L 191.0 92.0 L 192.0 92.0 L 193.0 92.0 L 194.0 92.0 L 195.0 92.0 L 196.0 92.0 L 197.0 92.0 L 198.0 92.0 L 199.0 92.0 L 201.0 92.0 L 202.0 93.0 L 204.0 93.0 L 205.0 93.0 L 207.0 93.0 L 208.0 93.0 L 210.0 93.0 L 211.0 93.0 L 212.0 94.0 L 213.0 94.0 L 214.0 94.0 L 215.0 94.0 L 216.0 94.0 L 216.0 95.0 L 217.0 95.0 L 218.0 95.0 L 218.0 95.0 L 219.0 96.0 L 219.0 96.0 L 220.0 96.0 L 220.0 96.0 L 220.0 97.0 L 221.0 97.0 L 221.0 98.0 L 221.0 99.0 L 222.0 99.0 L 222.0 100.0 L 222.0 101.0 L 222.0 102.0 L 222.0 103.0 L 223.0 104.0 L 223.0 106.0 L 223.0 108.0 L 223.0 110.0 L 223.0 113.0 L 223.0 116.0 L 223.0 120.0 L 223.0 124.0 L 223.0 128.0 L 223.0 133.0 L 223.0 137.0 L 223.0 140.0 L 222.0 144.0 L 221.0 147.0 L 220.0 149.0 L 219.0 150.0 L 219.0 151.0 L 218.0 151.0 L 217.0 151.0 " stroke="black" fill="none" stroke-width="5.0" stroke-linecap="round" stroke-linejoin="round" />
<path d="M 148.0 123.0 L 148.0 123.0 L 147.0 123.0 L 146.0 123.0 L 146.0 122.0 L 145.0 122.0 L 145.0 122.0 L 145.0 122.0 L 145.0 122.0 L 145.0 122.0 L 146.0 122.0 L 148.0 122.0 L 150.0 122.0 L 153.0 122.0 L 157.0 122.0 L 163.0 122.0 L 170.0 123.0 L 179.0 123.0 L 188.0 123.0 L 195.0 122.0 L 201.0 122.0 L 206.0 121.0 L 210.0 121.0 L 213.0 121.0 L 216.0 121.0 L 217.0 121.0 L 217.0 121.0 L 217.0 121.0 " stroke="black" fill="none" stroke-width="5.0" stroke-linecap="round" stroke-linejoin="round" />
<path d="M 144.0 152.0 L 144.0 152.0 L 143.0 152.0 L 141.0 152.0 L 141.0 152.0 L 140.0 152.0 L 140.0 152.0 L 140.0 152.0 L 140.0 152.0 L 141.0 152.0 L 142.0 152.0 L 144.0 152.0 L 146.0 152.0 L 149.0 152.0 L 153.0 152.0 L 158.0 153.0 L 165.0 153.0 L 174.0 153.0 L 183.0 153.0 L 190.0 152.0 L 196.0 152.0 L 200.0 152.0 L 203.0 152.0 L 205.0 152.0 L 206.0 152.0 " stroke="black" fill="none" stroke-width="5.0" stroke-linecap="round" stroke-linejoin="round" />
<path d="M 124.0 178.0 L 124.0 178.0 L 124.0 177.0 L 124.0 177.0 L 124.0 177.0 L 124.0 176.0 L 124.0 176.0 L 124.0 176.0 L 126.0 176.0 L 127.0 176.0 L 130.0 176.0 L 132.0 176.0 L 136.0 176.0 L 140.0 176.0 L 144.0 176.0 L 148.0 176.0 L 153.0 177.0 L 159.0 177.0 L 165.0 177.0 L 173.0 177.0 L 181.0 177.0 L 188.0 177.0 L 195.0 176.0 L 200.0 175.0 L 205.0 175.0 L 211.0 174.0 L 215.0 174.0 L 220.0 174.0 L 223.0 174.0 L 226.0 174.0 L 228.0 175.0 L 229.0 176.0 L 230.0 176.0 L 230.0 177.0 L 230.0 177.0 L 230.0 178.0 " stroke="black" fill="none" stroke-width="5.0" stroke-linecap="round" stroke-linejoin="round" />
<path d="M 136.0 213.0 L 136.0 213.0 L 136.0 213.0 L 135.0 213.0 L 135.0 213.0 L 135.0 213.0 L 136.0 212.0 L 138.0 211.0 L 139.0 211.0 L 141.0 211.0 L 143.0 211.0 L 145.0 211.0 L 147.0 211.0 L 149.0 211.0 L 151.0 212.0 L 155.0 212.0 L 160.0 213.0 L 167.0 213.0 L 176.0 213.0 L 184.0 213.0 L 192.0 213.0 L 198.0 212.0 L 203.0 211.0 L 208.0 210.0 L 213.0 210.0 L 217.0 210.0 L 221.0 210.0 L 224.0 210.0 L 225.0 211.0 L 226.0 211.0 " stroke="black" fill="none" stroke-width="5.0" stroke-linecap="round" stroke-linejoin="round" />
<path d="M 182.0 185.0 L 182.0 185.0 L 181.0 184.0 L 180.0 184.0 L 180.0 184.0 L 180.0 184.0 L 180.0 184.0 L 180.0 184.0 L 180.0 186.0 L 180.0 189.0 L 180.0 193.0 L 180.0 198.0 L 179.0 204.0 L 178.0 212.0 L 177.0 222.0 L 177.0 231.0 L 177.0 238.0 L 177.0 244.0 " stroke="black" fill="none" stroke-width="5.0" stroke-linecap="round" stroke-linejoin="round" />
<path d="M 125.0 244.0 L 125.0 244.0 L 124.0 244.0 L 123.0 244.0 L 122.0 244.0 L 122.0 244.0 L 122.0 243.0 L 122.0 243.0 L 122.0 243.0 L 123.0 243.0 L 124.0 243.0 L 126.0 243.0 L 129.0 243.0 L 133.0 244.0 L 136.0 244.0 L 141.0 244.0 L 145.0 244.0 L 150.0 245.0 L 157.0 245.0 L 164.0 245.0 L 173.0 246.0 L 183.0 246.0 L 192.0 247.0 L 199.0 247.0 L 206.0 248.0 L 212.0 248.0 L 219.0 249.0 L 225.0 249.0 L 230.0 250.0 L 233.0 250.0 L 235.0 251.0 L 237.0 251.0 L 238.0 251.0 L 238.0 251.0 L 238.0 251.0 L 238.0 251.0 " stroke="black" fill="none" stroke-width="5.0" stroke-linecap="round" stroke-linejoin="round" />
</svg>