<svg xmlns="http://www.w3.org/2000/svg" width="300" height="300" viewBox="0 0 300 300">
<path d="M 68.0 113.0 L 68.0 113.0 L 68.0 113.0 L 68.0 113.0 L 67.0 113.0 L 67.0 113.0 L 67.0 113.0 L 67.0 114.0 L 66.0 116.0 L 66.0 120.0 L 66.0 125.0 L 65.0 132.0 L 64.0 141.0 L 63.0 151.0 L 62.0 159.0 L 61.0 167.0 L 60.0 170.0 " stroke="black" fill="none" stroke-width="5.0" stroke-linecap="round" stroke-linejoin="round" />
<path d="M 94.0 75.0 L 94.0 75.0 L 93.0 75.0 L 93.0 76.0 L 93.0 76.0 L 93.0 76.0 L 93.0 77.0 L 93.0 77.0 L 93.0 78.0 L 93.0 79.0 L 94.0 81.0 L 94.0 83.0 L 95.0 87.0 L 95.0 93.0 L 95.0 102.0 L 95.0 111.0 L 94.0 122.0 L 93.0 135.0 L 92.0 148.0 L 92.0 161.0 L 91.0 172.0 L 91.0 183.0 L 91.0 193.0 L 91.0 203.0 L 91.0 211.0 L 91.0 220.0 L 91.0 229.0 L 91.0 237.0 L 90.0 243.0 L 90.0 248.0 L 89.0 249.0 " stroke="black" fill="none" stroke-width="5.0" stroke-linecap="round" stroke-linejoin="round" />
<path d="M 108.0 108.0 L 108.0 108.0 L 108.0 108.0 L 108.0 107.0 L 107.0 107.0 L 107.0 106.0 L 107.0 106.0 L 107.0 106.0 L 107.0 106.0 L 107.0 106.0 L 108.0 107.0 L 109.0 110.0 L 110.0 114.0 L 111.0 118.0 L 113.0 124.0 L 114.0 129.0 L 116.0 136.0 L 116.0 138.0 " stroke="black" fill="none" stroke-width="5.0" stroke-linecap="round" stroke-linejoin="round" />
<path d="M 149.0 83.0 L 149.0 83.0 L 149.0 83.0 L 149.0 83.0 L 149.0 83.0 L 148.0 83.0 L 148.0 83.0 L 148.0 84.0 L 148.0 84.0 L 148.0 85.0 L 148.0 87.0 L 148.0 91.0 L 148.0 96.0 L 147.0 103.0 L 146.0 112.0 L 145.0 121.0 L 143.0 130.0 L 141.0 138.0 L 138.0 146.0 L 135.0 151.0 L 132.0 155.0 " stroke="black" fill="none" stroke-width="5.0" stroke-linecap="round" stroke-linejoin="round" />
<path d="M 151.0 119.0 L 151.0 119.0 L 151.0 119.0 L 151.0 119.0 L 151.0 119.0 L 151.0 119.0 L 151.0 119.0 L 151.0 119.0 L 152.0 119.0 L 152.0 119.0 L 152.0 119.0 L 152.0 119.0 L 152.0 119.0 L 152.0 119.0 L 152.0 119.0 L 152.0 119.0 L 152.0 119.0 L 152.0 119.0 L 152.0 119.0 L 152.0 119.0 L 152.0 119.0 L 152.0 119.0 L 152.0 119.0 L 152.0 118.0 L 152.0 118.0 L 152.0 118.0 L 152.0 117.0 L 152.0 117.0 L 152.0 117.0 L 152.0 117.0 L 152.0 117.0 L 152.0 117.0 L 152.0 116.0 L 152.0 116.0 L 152.0 116.0 L 152.0 116.0 L 152.0 116.0 L 152.0 116.0 L 152.0 116.0 L 152.0 115.0 L 152.0 115.0 L 152.0 115.0 L 152.0 115.0 L 152.0 115.0 L 153.0 115.0 L 153.0 115.0 L 153.0 115.0 L 154.0 115.0 L 154.0 115.0 L 155.0 115.0 L 156.0 115.0 L 156.0 115.0 L 157.0 115.0 L 158.0 115.0 L 159.0 115.0 L 160.0 115.0 L 161.0 115.0 L 162.0 115.0 L 164.0 115.0 L 165.0 115.0 L 166.0 115.0 L 167.0 115.0 L 169.0 115.0 L 170.0 115.0 L 172.0 115.0 L 173.0 115.0 L 175.0 115.0 L 176.0 115.0 L 177.0 115.0 L 178.0 115.0 L 180.0 115.0 L 180.0 115.0 L 181.0 115.0 L 182.0 115.0 L 183.0 115.0 L 184.0 115.0 L 184.0 115.0 L 185.0 115.0 L 186.0 115.0 L 187.0 115.0 L 188.0 115.0 L 189.0 116.0 L 190.0 116.0 L 190.0 116.0 L 191.0 116.0 L 192.0 116.0 L 193.0 117.0 L 194.0 117.0 L 195.0 117.0 L 196.0 117.0 L 198.0 117.0 L 199.0 117.0 L 200.0 117.0 L 202.0 117.0 L 203.0 117.0 L 205.0 117.0 L 206.0 118.0 L 208.0 118.0 L 210.0 118.0 L 212.0 118.0 L 214.0 118.0 L 216.0 118.0 L 218.0 118.0 L 220.0 118.0 L 222.0 118.0 L 223.0 118.0 L 224.0 118.0 L 225.0 118.0 L 225.0 118.0 L 225.0 119.0 " stroke="black" fill="none" stroke-width="5.0" stroke-linecap="round" stroke-linejoin="round" />
<path d="M 149.0 171.0 L 149.0 171.0 L 149.0 171.0 L 149.0 171.0 L 149.0 171.0 L 149.0 171.0 L 148.0 171.0 L 148.0 172.0 L 148.0 172.0 L 148.0 172.0 L 148.0 172.0 L 149.0 172.0 L 150.0 173.0 L 151.0 173.0 L 153.0 173.0 L 155.0 173.0 L 158.0 172.0 L 162.0 171.0 L 167.0 171.0 L 172.0 170.0 L 177.0 169.0 L 182.0 169.0 L 186.0 169.0 L 189.0 169.0 L 192.0 169.0 L 195.0 170.0 L 197.0 170.0 L 199.0 171.0 L 200.0 171.0 L 203.0 172.0 L 205.0 173.0 L 207.0 173.0 L 210.0 174.0 L 213.0 174.0 L 215.0 175.0 L 217.0 175.0 L 219.0 175.0 L 220.0 175.0 " stroke="black" fill="none" stroke-width="5.0" stroke-linecap="round" stroke-linejoin="round" />
<path d="M 185.0 79.0 L 185.0 79.0 L 185.0 80.0 L 184.0 81.0 L 184.0 82.0 L 184.0 84.0 L 184.0 86.0 L 184.0 90.0 L 184.0 94.0 L 184.0 100.0 L 184.0 106.0 L 184.0 112.0 L 184.0 119.0 L 184.0 126.0 L 184.0 132.0 L 184.0 140.0 L 184.0 146.0 L 184.0 153.0 L 184.0 159.0 L 184.0 164.0 L 184.0 169.0 L 184.0 173.0 L 184.0 178.0 L 183.0 184.0 L 183.0 190.0 L 183.0 195.0 L 183.0 199.0 L 183.0 203.0 L 183.0 206.0 L 183.0 208.0 L 183.0 211.0 L 183.0 213.0 L 183.0 215.0 L 183.0 217.0 L 183.0 219.0 L 183.0 221.0 L 182.0 223.0 L 182.0 225.0 L 182.0 227.0 L 182.0 229.0 L 181.0 230.0 L 181.0 231.0 L 181.0 231.0 L 181.0 232.0 L 181.0 232.0 L 181.0 232.0 " stroke="black" fill="none" stroke-width="5.0" stroke-linecap="round" stroke-linejoin="round" />
<path d="M 125.0 240.0 L 125.0 240.0 L 125.0 240.0 L 125.0 240.0 L 125.0 240.0 L 125.0 240.0 L 124.0 240.0 L 124.0 240.0 L 124.0 240.0 L 124.0 240.0 L 124.0 241.0 L 124.0 241.0 L 125.0 241.0 L 126.0 241.0 L 127.0 241.0 L 128.0 241.0 L 129.0 241.0 L 131.0 241.0 L 132.0 241.0 L 133.0 241.0 L 135.0 241.0 L 136.0 241.0 L 138.0 242.0 L 139.0 242.0 L 141.0 242.0 L 142.0 242.0 L 144.0 242.0 L 145.0 242.0 L 147.0 242.0 L 148.0 242.0 L 149.0 242.0 L 150.0 242.0 L 151.0 242.0 L 152.0 242.0 L 153.0 242.0 L 153.0 242.0 L 154.0 243.0 L 155.0 243.0 L 155.0 243.0 L 156.0 243.0 L 157.0 243.0 L 157.0 243.0 L 157.0 243.0 L 158.0 243.0 L 158.0 243.0 L 159.0 243.0 L 159.0 243.0 L 160.0 243.0 L 160.0 243.0 L 161.0 243.0 L 161.0 243.0 L 162.0 243.0 L 163.0 243.0 L 164.0 243.0 L 164.0 243.0 L 165.0 243.0 L 166.0 243.0 L 167.0 243.0 L 168.0 243.0 L 169.0 243.0 L 170.0 243.0 L 172.0 243.0 L 173.0 243.0 L 174.0 243.0 L 175.0 243.0 L 176.0 243.0 L 177.0 243.0 L 179.0 243.0 L 180.0 243.0 L 181.0 243.0 L 182.0 243.0 L 183.0 243.0 L 184.0 243.0 L 185.0 243.0 L 185.0 243.0 L 186.0 243.0 L 187.0 243.0 L 188.0 243.0 L 189.0 243.0 L 189.0 243.0 L 190.0 243.0 L 190.0 243.0 L 191.0 243.0 L 191.0 243.0 L 192.0 243.0 L 193.0 243.0 L 193.0 243.0 L 193.0 243.0 L 194.0 244.0 L 194.0 244.0 L 195.0 244.0 L 195.0 244.0 L 196.0 244.0 L 196.0 244.0 L 197.0 244.0 L 197.0 244.0 L 198.0 244.0 L 198.0 244.0 L 199.0 244.0 L 200.0 244.0 L 200.0 244.0 L 201.0 244.0 L 202.0 243.0 L 202.0 243.0 L 203.0 243.0 L 204.0 243.0 L 205.0 243.0 L 206.0 243.0 L 206.0 242.0 L 207.0 242.0 L 208.0 242.0 L 209.0 242.0 L 210.0 242.0 L 211.0 242.0 L 212.0 242.0 L 213.0 241.0 L 214.0 241.0 L 215.0 241.0 L 216.0 241.0 L 217.0 241.0 L 218.0 241.0 L 219.0 241.0 L 220.0 241.0 L 221.0 241.0 L 221.0 241.0 L 222.0 241.0 L 223.0 241.0 L 224.0 241.0 L 225.0 241.0 L 226.0 241.0 L 227.0 241.0 L 227.0 241.0 L 228.0 241.0 L 229.0 241.0 L 230.0 241.0 L 230.0 241.0 L 231.0 241.0 L 232.0 241.0 L 232.0 241.0 L 233.0 241.0 L 234.0 241.0 L 234.0 241.0 L 235.0 241.0 L 235.0 241.0 L 236.0 241.0 L 236.0 241.0 L 237.0 241.0 L 237.0 241.0 L 238.0 241.0 L 238.0 241.0 L 238.0 241.0 L 239.0 241.0 L 239.0 241.0 L 239.0 240.0 L 240.0 240.0 L 240.0 240.0 L 240.0 240.0 L 240.0 240.0 L 240.0 240.0 L 240.0 240.0 L 240.0 240.0 L 240.0 240.0 " stroke="black" fill="none" stroke-width="5.0" stroke-linecap="round" stroke-linejoin="round" />
</svg>