<svg xmlns="http://www.w3.org/2000/svg" width="300" height="300" viewBox="0 0 300 300">
<path d="M 67.0 113.0 L 67.0 113.0 L 66.0 112.0 L 66.0 111.0 L 66.0 111.0 L 66.0 111.0 L 66.0 111.0 L 66.0 111.0 L 66.0 111.0 L 66.0 114.0 L 66.0 117.0 L 66.0 121.0 L 65.0 127.0 L 65.0 135.0 L 64.0 143.0 L 63.0 151.0 L 63.0 158.0 L 63.0 162.0 " stroke="black" fill="none" stroke-width="5.0" stroke-linecap="round" stroke-linejoin="round" />
<path d="M 87.0 85.0 L 87.0 85.0 L 86.0 85.0 L 86.0 84.0 L 86.0 84.0 L 86.0 84.0 L 86.0 84.0 L 86.0 84.0 L 86.0 84.0 L 86.0 85.0 L 86.0 86.0 L 86.0 88.0 L 86.0 92.0 L 86.0 96.0 L 86.0 102.0 L 85.0 108.0 L 85.0 116.0 L 84.0 123.0 L 84.0 131.0 L 83.0 141.0 L 83.0 149.0 L 82.0 157.0 L 82.0 166.0 L 82.0 174.0 L 82.0 183.0 L 82.0 194.0 L 82.0 203.0 L 82.0 213.0 L 83.0 224.0 L 83.0 234.0 L 84.0 243.0 L 84.0 249.0 L 84.0 252.0 L 84.0 253.0 " stroke="black" fill="none" stroke-width="5.0" stroke-linecap="round" stroke-linejoin="round" />
<path d="M 103.0 105.0 L 102.0 105.0 L 102.0 105.0 L 101.0 105.0 L 101.0 106.0 L 101.0 107.0 L 101.0 110.0 L 103.0 114.0 L 105.0 118.0 L 107.0 124.0 L 110.0 129.0 L 112.0 135.0 L 115.0 141.0 L 117.0 144.0 " stroke="black" fill="none" stroke-width="5.0" stroke-linecap="round" stroke-linejoin="round" />
<path d="M 178.0 72.0 L 178.0 72.0 L 177.0 72.0 L 177.0 73.0 L 176.0 74.0 L 176.0 75.0 L 176.0 78.0 L 176.0 81.0 L 177.0 86.0 L 178.0 92.0 L 178.0 98.0 L 178.0 105.0 L 179.0 111.0 L 179.0 116.0 L 179.0 120.0 L 179.0 122.0 " stroke="black" fill="none" stroke-width="5.0" stroke-linecap="round" stroke-linejoin="round" />
<path d="M 185.0 93.0 L 185.0 93.0 L 185.0 93.0 L 184.0 93.0 L 184.0 93.0 L 184.0 93.0 L 184.0 93.0 L 184.0 93.0 L 185.0 93.0 L 187.0 93.0 L 190.0 93.0 L 193.0 93.0 L 197.0 92.0 L 202.0 92.0 L 208.0 92.0 L 215.0 92.0 L 217.0 92.0 " stroke="black" fill="none" stroke-width="5.0" stroke-linecap="round" stroke-linejoin="round" />
<path d="M 141.0 131.0 L 141.0 130.0 L 141.0 129.0 L 141.0 128.0 L 141.0 128.0 L 141.0 127.0 L 141.0 127.0 L 141.0 127.0 L 141.0 128.0 L 141.0 132.0 L 141.0 137.0 L 141.0 143.0 L 141.0 150.0 L 141.0 158.0 L 141.0 166.0 L 141.0 174.0 L 141.0 180.0 L 141.0 185.0 L 141.0 188.0 L 141.0 188.0 L 141.0 187.0 L 143.0 183.0 L 144.0 181.0 " stroke="black" fill="none" stroke-width="5.0" stroke-linecap="round" stroke-linejoin="round" />
<path d="M 144.0 130.0 L 143.0 130.0 L 143.0 130.0 L 142.0 130.0 L 141.0 130.0 L 141.0 129.0 L 141.0 129.0 L 141.0 129.0 L 141.0 128.0 L 142.0 128.0 L 143.0 128.0 L 144.0 127.0 L 145.0 127.0 L 146.0 127.0 L 148.0 127.0 L 149.0 127.0 L 151.0 127.0 L 153.0 127.0 L 157.0 127.0 L 160.0 127.0 L 166.0 127.0 L 172.0 126.0 L 178.0 126.0 L 185.0 125.0 L 190.0 124.0 L 195.0 123.0 L 199.0 122.0 L 202.0 122.0 L 205.0 122.0 L 207.0 122.0 L 210.0 122.0 L 212.0 122.0 L 214.0 122.0 L 216.0 123.0 L 218.0 124.0 L 219.0 125.0 L 221.0 126.0 L 222.0 126.0 L 223.0 127.0 L 224.0 128.0 L 224.0 129.0 L 225.0 130.0 L 225.0 132.0 L 225.0 135.0 L 225.0 139.0 L 225.0 144.0 L 225.0 150.0 L 224.0 156.0 L 224.0 162.0 L 223.0 168.0 L 223.0 173.0 L 222.0 177.0 L 222.0 180.0 L 221.0 183.0 L 221.0 184.0 L 221.0 185.0 L 219.0 186.0 L 217.0 186.0 " stroke="black" fill="none" stroke-width="5.0" stroke-linecap="round" stroke-linejoin="round" />
<path d="M 153.0 151.0 L 153.0 151.0 L 151.0 151.0 L 149.0 151.0 L 148.0 151.0 L 148.0 151.0 L 147.0 151.0 L 147.0 151.0 L 148.0 151.0 L 150.0 151.0 L 154.0 151.0 L 158.0 151.0 L 164.0 150.0 L 171.0 149.0 L 178.0 148.0 L 185.0 147.0 L 192.0 147.0 L 197.0 146.0 L 202.0 146.0 L 206.0 146.0 L 209.0 147.0 L 210.0 147.0 " stroke="black" fill="none" stroke-width="5.0" stroke-linecap="round" stroke-linejoin="round" />
<path d="M 149.0 189.0 L 149.0 189.0 L 147.0 189.0 L 146.0 189.0 L 145.0 189.0 L 144.0 189.0 L 143.0 189.0 L 143.0 189.0 L 143.0 189.0 L 143.0 189.0 L 143.0 189.0 L 145.0 189.0 L 147.0 189.0 L 150.0 189.0 L 155.0 189.0 L 162.0 189.0 L 170.0 189.0 L 180.0 188.0 L 188.0 187.0 L 196.0 186.0 L 201.0 186.0 L 206.0 186.0 L 209.0 187.0 L 210.0 188.0 " stroke="black" fill="none" stroke-width="5.0" stroke-linecap="round" stroke-linejoin="round" />
<path d="M 116.0 219.0 L 116.0 219.0 L 115.0 219.0 L 114.0 219.0 L 113.0 219.0 L 112.0 219.0 L 112.0 219.0 L 112.0 219.0 L 113.0 219.0 L 116.0 219.0 L 120.0 218.0 L 125.0 218.0 L 132.0 218.0 L 140.0 218.0 L 148.0 218.0 L 156.0 218.0 L 167.0 217.0 L 177.0 217.0 L 187.0 217.0 L 196.0 217.0 L 201.0 217.0 L 208.0 217.0 L 215.0 217.0 L 221.0 218.0 L 226.0 219.0 L 230.0 220.0 L 232.0 220.0 L 233.0 220.0 L 233.0 220.0 L 233.0 220.0 " stroke="black" fill="none" stroke-width="5.0" stroke-linecap="round" stroke-linejoin="round" />
<path d="M 186.0 201.0 L 185.0 201.0 L 183.0 201.0 L 182.0 202.0 L 181.0 202.0 L 180.0 203.0 L 180.0 205.0 L 180.0 207.0 L 180.0 212.0 L 181.0 217.0 L 182.0 225.0 L 182.0 234.0 L 182.0 242.0 L 182.0 251.0 L 182.0 259.0 L 181.0 266.0 L 181.0 272.0 L 180.0 277.0 L 180.0 278.0 L 180.0 278.0 " stroke="black" fill="none" stroke-width="5.0" stroke-linecap="round" stroke-linejoin="round" />
</svg>