<svg xmlns="http://www.w3.org/2000/svg" width="300" height="300" viewBox="0 0 300 300">
<path d="M 106.0 101.0 L 105.0 101.0 L 103.0 101.0 L 101.0 102.0 L 99.0 102.0 L 98.0 102.0 L 98.0 102.0 L 98.0 102.0 L 98.0 102.0 L 98.0 102.0 L 100.0 102.0 L 102.0 102.0 L 105.0 102.0 L 108.0 102.0 L 111.0 102.0 L 116.0 102.0 L 121.0 102.0 L 129.0 102.0 L 139.0 101.0 L 149.0 100.0 L 159.0 99.0 L 171.0 98.0 L 182.0 97.0 L 193.0 96.0 L 201.0 95.0 L 205.0 95.0 L 208.0 95.0 L 211.0 95.0 L 213.0 96.0 L 214.0 97.0 L 215.0 97.0 L 215.0 97.0 L 215.0 97.0 " stroke="black" fill="none" stroke-width="5.0" stroke-linecap="round" stroke-linejoin="round" />
<path d="M 117.0 75.0 L 116.0 75.0 L 116.0 75.0 L 115.0 74.0 L 115.0 74.0 L 115.0 74.0 L 114.0 75.0 L 114.0 77.0 L 114.0 81.0 L 114.0 87.0 L 115.0 94.0 L 116.0 104.0 L 117.0 114.0 L 117.0 124.0 L 117.0 133.0 L 117.0 140.0 L 117.0 144.0 L 117.0 147.0 L 118.0 148.0 L 119.0 148.0 " stroke="black" fill="none" stroke-width="5.0" stroke-linecap="round" stroke-linejoin="round" />
<path d="M 186.0 77.0 L 186.0 77.0 L 186.0 77.0 L 186.0 77.0 L 185.0 77.0 L 185.0 77.0 L 185.0 77.0 L 185.0 78.0 L 185.0 81.0 L 185.0 85.0 L 185.0 93.0 L 185.0 102.0 L 184.0 112.0 L 183.0 121.0 L 183.0 128.0 L 182.0 134.0 L 182.0 136.0 " stroke="black" fill="none" stroke-width="5.0" stroke-linecap="round" stroke-linejoin="round" />
<path d="M 72.0 145.0 L 72.0 145.0 L 72.0 145.0 L 71.0 144.0 L 71.0 144.0 L 71.0 144.0 L 71.0 143.0 L 72.0 142.0 L 75.0 142.0 L 78.0 141.0 L 83.0 141.0 L 90.0 141.0 L 98.0 141.0 L 106.0 141.0 L 115.0 142.0 L 124.0 142.0 L 136.0 142.0 L 149.0 142.0 L 159.0 142.0 L 170.0 142.0 L 183.0 141.0 L 194.0 141.0 L 202.0 141.0 L 209.0 141.0 L 215.0 141.0 L 221.0 141.0 L 226.0 141.0 L 230.0 141.0 L 233.0 141.0 L 234.0 141.0 L 234.0 141.0 L 233.0 141.0 " stroke="black" fill="none" stroke-width="5.0" stroke-linecap="round" stroke-linejoin="round" />
<path d="M 130.0 146.0 L 130.0 146.0 L 130.0 144.0 L 130.0 143.0 L 130.0 142.0 L 130.0 141.0 L 130.0 141.0 L 130.0 141.0 L 130.0 141.0 L 130.0 141.0 L 129.0 142.0 L 129.0 143.0 L 127.0 145.0 L 124.0 148.0 L 121.0 152.0 L 116.0 157.0 L 110.0 164.0 L 103.0 172.0 L 95.0 181.0 L 85.0 190.0 L 77.0 196.0 L 71.0 201.0 L 67.0 204.0 L 66.0 204.0 " stroke="black" fill="none" stroke-width="5.0" stroke-linecap="round" stroke-linejoin="round" />
<path d="M 185.0 147.0 L 185.0 146.0 L 184.0 146.0 L 183.0 146.0 L 183.0 146.0 L 183.0 146.0 L 183.0 146.0 L 185.0 147.0 L 187.0 149.0 L 190.0 151.0 L 194.0 154.0 L 198.0 157.0 L 202.0 161.0 L 207.0 165.0 L 214.0 170.0 L 221.0 175.0 L 226.0 180.0 L 231.0 184.0 L 234.0 188.0 L 236.0 190.0 L 236.0 190.0 " stroke="black" fill="none" stroke-width="5.0" stroke-linecap="round" stroke-linejoin="round" />
<path d="M 137.0 180.0 L 137.0 179.0 L 137.0 177.0 L 137.0 176.0 L 137.0 175.0 L 138.0 174.0 L 138.0 173.0 L 139.0 173.0 L 139.0 173.0 L 139.0 174.0 L 139.0 176.0 L 139.0 179.0 L 139.0 182.0 L 139.0 186.0 L 139.0 191.0 L 140.0 196.0 L 140.0 201.0 L 140.0 208.0 L 140.0 215.0 L 140.0 224.0 L 140.0 233.0 L 140.0 239.0 L 140.0 244.0 L 139.0 247.0 L 137.0 248.0 L 136.0 249.0 L 134.0 249.0 L 133.0 249.0 L 131.0 249.0 L 129.0 249.0 L 127.0 248.0 L 125.0 248.0 L 122.0 247.0 L 120.0 246.0 L 117.0 246.0 L 115.0 245.0 L 113.0 244.0 " stroke="black" fill="none" stroke-width="5.0" stroke-linecap="round" stroke-linejoin="round" />
<path d="M 109.0 193.0 L 109.0 193.0 L 109.0 193.0 L 109.0 193.0 L 109.0 193.0 L 109.0 193.0 L 109.0 193.0 L 109.0 193.0 L 109.0 193.0 L 108.0 195.0 L 107.0 197.0 L 106.0 200.0 L 103.0 205.0 L 100.0 211.0 L 96.0 218.0 L 91.0 226.0 L 88.0 233.0 L 86.0 236.0 " stroke="black" fill="none" stroke-width="5.0" stroke-linecap="round" stroke-linejoin="round" />
<path d="M 164.0 189.0 L 164.0 187.0 L 163.0 186.0 L 163.0 184.0 L 163.0 184.0 L 163.0 184.0 L 163.0 184.0 L 163.0 185.0 L 163.0 188.0 L 165.0 192.0 L 166.0 196.0 L 168.0 202.0 L 170.0 207.0 L 171.0 214.0 L 173.0 220.0 L 174.0 227.0 L 175.0 231.0 " stroke="black" fill="none" stroke-width="5.0" stroke-linecap="round" stroke-linejoin="round" />
<path d="M 195.0 189.0 L 195.0 189.0 L 194.0 188.0 L 194.0 187.0 L 193.0 187.0 L 193.0 187.0 L 193.0 187.0 L 193.0 187.0 L 194.0 189.0 L 196.0 191.0 L 197.0 194.0 L 199.0 198.0 L 201.0 202.0 L 204.0 206.0 L 207.0 212.0 L 211.0 218.0 L 215.0 225.0 L 219.0 231.0 L 222.0 236.0 L 223.0 239.0 " stroke="black" fill="none" stroke-width="5.0" stroke-linecap="round" stroke-linejoin="round" />
</svg>