<svg xmlns="http://www.w3.org/2000/svg" width="300" height="300" viewBox="0 0 300 300">
<path d="M 85.0 87.0 L 85.0 87.0 L 85.0 86.0 L 85.0 86.0 L 85.0 86.0 L 85.0 85.0 L 85.0 85.0 L 85.0 85.0 L 85.0 85.0 L 85.0 85.0 L 85.0 85.0 L 85.0 87.0 L 85.0 91.0 L 85.0 97.0 L 86.0 105.0 L 86.0 115.0 L 86.0 121.0 L 86.0 137.0 L 86.0 146.0 L 86.0 153.0 L 86.0 156.0 L 87.0 157.0 L 88.0 157.0 " stroke="black" fill="none" stroke-width="5.0" stroke-linecap="round" stroke-linejoin="round" />
<path d="M 89.0 84.0 L 89.0 84.0 L 89.0 84.0 L 89.0 84.0 L 89.0 84.0 L 88.0 84.0 L 88.0 84.0 L 88.0 84.0 L 88.0 84.0 L 88.0 83.0 L 88.0 83.0 L 88.0 83.0 L 88.0 83.0 L 88.0 83.0 L 89.0 83.0 L 89.0 83.0 L 90.0 83.0 L 91.0 83.0 L 92.0 82.0 L 93.0 82.0 L 94.0 82.0 L 96.0 82.0 L 97.0 82.0 L 98.0 82.0 L 99.0 82.0 L 100.0 82.0 L 102.0 82.0 L 103.0 82.0 L 104.0 82.0 L 105.0 82.0 L 106.0 82.0 L 107.0 82.0 L 108.0 82.0 L 109.0 82.0 L 110.0 82.0 L 111.0 82.0 L 112.0 82.0 L 113.0 82.0 L 113.0 82.0 L 114.0 82.0 L 115.0 82.0 L 116.0 82.0 L 117.0 82.0 L 118.0 82.0 L 118.0 82.0 L 119.0 82.0 L 120.0 82.0 L 121.0 82.0 L 122.0 82.0 L 123.0 82.0 L 124.0 82.0 L 125.0 82.0 L 126.0 82.0 L 127.0 82.0 L 128.0 82.0 L 129.0 82.0 L 130.0 82.0 L 131.0 82.0 L 132.0 82.0 L 133.0 82.0 L 134.0 82.0 L 135.0 82.0 L 136.0 82.0 L 137.0 82.0 L 138.0 82.0 L 139.0 82.0 L 140.0 82.0 L 140.0 82.0 L 141.0 82.0 L 142.0 82.0 L 143.0 82.0 L 143.0 81.0 L 144.0 81.0 L 145.0 81.0 L 145.0 81.0 L 146.0 81.0 L 146.0 81.0 L 147.0 81.0 L 148.0 81.0 L 148.0 81.0 L 149.0 81.0 L 149.0 81.0 L 150.0 81.0 L 150.0 81.0 L 151.0 81.0 L 151.0 81.0 L 152.0 81.0 L 152.0 81.0 L 153.0 81.0 L 153.0 81.0 L 154.0 81.0 L 155.0 81.0 L 156.0 81.0 L 156.0 81.0 L 157.0 81.0 L 158.0 81.0 L 159.0 81.0 L 160.0 81.0 L 160.0 81.0 L 161.0 81.0 L 162.0 81.0 L 163.0 81.0 L 164.0 81.0 L 165.0 81.0 L 166.0 81.0 L 167.0 81.0 L 168.0 81.0 L 169.0 81.0 L 170.0 81.0 L 171.0 81.0 L 172.0 81.0 L 174.0 81.0 L 175.0 81.0 L 176.0 81.0 L 177.0 81.0 L 178.0 81.0 L 179.0 81.0 L 181.0 81.0 L 182.0 81.0 L 183.0 81.0 L 184.0 81.0 L 185.0 81.0 L 186.0 81.0 L 187.0 81.0 L 188.0 81.0 L 189.0 81.0 L 189.0 81.0 L 190.0 81.0 L 191.0 81.0 L 192.0 81.0 L 193.0 81.0 L 193.0 81.0 L 194.0 81.0 L 194.0 81.0 L 195.0 81.0 L 196.0 81.0 L 196.0 81.0 L 196.0 81.0 L 197.0 81.0 L 197.0 81.0 L 198.0 81.0 L 198.0 81.0 L 199.0 81.0 L 199.0 81.0 L 200.0 81.0 L 200.0 81.0 L 200.0 81.0 L 201.0 81.0 L 202.0 81.0 L 202.0 81.0 L 203.0 81.0 L 203.0 81.0 L 204.0 82.0 L 204.0 82.0 L 205.0 82.0 L 205.0 82.0 L 206.0 82.0 L 207.0 82.0 L 207.0 82.0 L 208.0 82.0 L 209.0 82.0 L 209.0 82.0 L 210.0 82.0 L 210.0 82.0 L 211.0 83.0 L 211.0 83.0 L 212.0 83.0 L 212.0 83.0 L 213.0 83.0 L 213.0 83.0 L 214.0 83.0 L 214.0 83.0 L 214.0 84.0 L 215.0 84.0 L 215.0 84.0 L 215.0 84.0 L 215.0 85.0 L 216.0 86.0 L 216.0 87.0 L 216.0 88.0 L 216.0 89.0 L 216.0 91.0 L 216.0 93.0 L 216.0 95.0 L 216.0 97.0 L 216.0 100.0 L 216.0 103.0 L 216.0 105.0 L 216.0 107.0 L 216.0 109.0 L 216.0 111.0 L 216.0 113.0 L 216.0 114.0 L 216.0 116.0 L 216.0 118.0 L 216.0 120.0 L 216.0 121.0 L 216.0 123.0 L 216.0 125.0 L 216.0 126.0 L 216.0 127.0 L 216.0 129.0 L 216.0 130.0 L 216.0 131.0 L 216.0 132.0 L 215.0 133.0 L 215.0 134.0 L 215.0 135.0 L 215.0 137.0 L 214.0 138.0 L 214.0 140.0 L 214.0 142.0 L 214.0 143.0 L 214.0 146.0 L 214.0 147.0 L 214.0 149.0 L 214.0 151.0 L 213.0 153.0 L 213.0 155.0 L 213.0 156.0 L 213.0 157.0 L 213.0 159.0 L 213.0 159.0 L 213.0 160.0 L 213.0 161.0 L 213.0 161.0 L 213.0 162.0 L 213.0 162.0 L 213.0 163.0 L 213.0 163.0 L 213.0 164.0 L 213.0 164.0 L 213.0 165.0 L 213.0 165.0 L 213.0 165.0 L 213.0 165.0 L 213.0 165.0 " stroke="black" fill="none" stroke-width="5.0" stroke-linecap="round" stroke-linejoin="round" />
<path d="M 94.0 123.0 L 94.0 123.0 L 94.0 123.0 L 94.0 123.0 L 94.0 123.0 L 94.0 123.0 L 94.0 123.0 L 94.0 123.0 L 94.0 123.0 L 95.0 123.0 L 95.0 123.0 L 95.0 123.0 L 95.0 123.0 L 96.0 123.0 L 96.0 123.0 L 97.0 123.0 L 98.0 124.0 L 98.0 124.0 L 99.0 124.0 L 100.0 125.0 L 101.0 125.0 L 102.0 125.0 L 103.0 125.0 L 105.0 125.0 L 106.0 125.0 L 107.0 125.0 L 108.0 125.0 L 110.0 126.0 L 111.0 126.0 L 112.0 126.0 L 113.0 126.0 L 114.0 126.0 L 115.0 126.0 L 116.0 126.0 L 117.0 126.0 L 118.0 126.0 L 120.0 126.0 L 121.0 126.0 L 122.0 126.0 L 123.0 126.0 L 125.0 126.0 L 126.0 126.0 L 128.0 126.0 L 129.0 126.0 L 131.0 126.0 L 132.0 126.0 L 133.0 125.0 L 134.0 125.0 L 136.0 125.0 L 137.0 125.0 L 138.0 124.0 L 139.0 124.0 L 140.0 124.0 L 141.0 124.0 L 142.0 124.0 L 143.0 124.0 L 143.0 124.0 L 144.0 123.0 L 145.0 123.0 L 146.0 123.0 L 147.0 123.0 L 147.0 123.0 L 148.0 123.0 L 149.0 123.0 L 149.0 123.0 L 150.0 123.0 L 150.0 123.0 L 151.0 123.0 L 151.0 123.0 L 152.0 123.0 L 153.0 123.0 L 153.0 123.0 L 154.0 123.0 L 155.0 123.0 L 155.0 123.0 L 156.0 123.0 L 157.0 123.0 L 158.0 123.0 L 159.0 123.0 L 160.0 123.0 L 161.0 123.0 L 162.0 123.0 L 164.0 123.0 L 165.0 123.0 L 166.0 123.0 L 168.0 123.0 L 169.0 123.0 L 171.0 123.0 L 172.0 123.0 L 174.0 123.0 L 175.0 123.0 L 177.0 123.0 L 178.0 123.0 L 179.0 123.0 L 180.0 123.0 L 181.0 123.0 L 182.0 123.0 L 183.0 123.0 L 184.0 123.0 L 185.0 123.0 L 186.0 123.0 L 187.0 123.0 L 189.0 123.0 L 189.0 123.0 L 190.0 124.0 L 191.0 124.0 L 192.0 124.0 L 193.0 124.0 L 194.0 124.0 L 195.0 124.0 L 196.0 124.0 L 197.0 124.0 L 197.0 124.0 L 198.0 124.0 L 199.0 124.0 L 200.0 124.0 L 200.0 124.0 L 201.0 124.0 L 202.0 124.0 L 202.0 124.0 L 202.0 124.0 " stroke="black" fill="none" stroke-width="5.0" stroke-linecap="round" stroke-linejoin="round" />
<path d="M 149.0 95.0 L 149.0 95.0 L 149.0 95.0 L 149.0 95.0 L 149.0 95.0 L 149.0 95.0 L 149.0 95.0 L 149.0 95.0 L 149.0 95.0 L 149.0 95.0 L 149.0 95.0 L 150.0 97.0 L 150.0 99.0 L 150.0 102.0 L 150.0 107.0 L 150.0 113.0 L 150.0 120.0 L 150.0 128.0 L 149.0 136.0 L 149.0 143.0 L 149.0 149.0 L 149.0 153.0 L 149.0 156.0 L 149.0 157.0 L 149.0 158.0 L 149.0 158.0 L 149.0 158.0 " stroke="black" fill="none" stroke-width="5.0" stroke-linecap="round" stroke-linejoin="round" />
<path d="M 94.0 161.0 L 94.0 161.0 L 94.0 161.0 L 94.0 161.0 L 94.0 161.0 L 94.0 161.0 L 94.0 161.0 L 94.0 161.0 L 94.0 161.0 L 94.0 161.0 L 94.0 161.0 L 94.0 161.0 L 94.0 161.0 L 94.0 161.0 L 95.0 161.0 L 95.0 161.0 L 96.0 161.0 L 97.0 161.0 L 98.0 161.0 L 100.0 161.0 L 101.0 161.0 L 103.0 161.0 L 104.0 161.0 L 106.0 161.0 L 108.0 161.0 L 110.0 161.0 L 111.0 160.0 L 113.0 160.0 L 115.0 159.0 L 117.0 159.0 L 120.0 159.0 L 122.0 158.0 L 124.0 158.0 L 126.0 158.0 L 129.0 158.0 L 131.0 158.0 L 133.0 158.0 L 135.0 157.0 L 137.0 157.0 L 139.0 157.0 L 140.0 157.0 L 142.0 157.0 L 143.0 157.0 L 144.0 157.0 L 146.0 157.0 L 147.0 157.0 L 148.0 157.0 L 149.0 157.0 L 150.0 157.0 L 151.0 157.0 L 152.0 157.0 L 153.0 157.0 L 154.0 157.0 L 156.0 157.0 L 157.0 157.0 L 158.0 157.0 L 159.0 157.0 L 160.0 157.0 L 161.0 157.0 L 163.0 157.0 L 164.0 157.0 L 165.0 157.0 L 167.0 157.0 L 168.0 157.0 L 169.0 157.0 L 171.0 157.0 L 172.0 157.0 L 173.0 157.0 L 175.0 157.0 L 176.0 158.0 L 178.0 158.0 L 179.0 158.0 L 180.0 158.0 L 182.0 158.0 L 183.0 158.0 L 184.0 158.0 L 186.0 158.0 L 187.0 158.0 L 188.0 158.0 L 189.0 158.0 L 191.0 158.0 L 192.0 158.0 L 193.0 158.0 L 194.0 158.0 L 195.0 158.0 L 196.0 158.0 L 197.0 158.0 L 198.0 158.0 L 199.0 158.0 L 200.0 159.0 L 202.0 159.0 L 203.0 159.0 L 204.0 159.0 L 206.0 159.0 L 207.0 159.0 L 208.0 159.0 L 209.0 159.0 L 210.0 159.0 L 211.0 159.0 L 211.0 159.0 L 212.0 159.0 L 212.0 159.0 " stroke="black" fill="none" stroke-width="5.0" stroke-linecap="round" stroke-linejoin="round" />
<path d="M 80.0 202.0 L 80.0 202.0 L 81.0 202.0 L 81.0 202.0 L 82.0 202.0 L 82.0 202.0 L 82.0 202.0 L 82.0 202.0 L 82.0 202.0 L 82.0 202.0 L 82.0 204.0 L 80.0 207.0 L 78.0 212.0 L 76.0 217.0 L 73.0 224.0 L 71.0 230.0 L 68.0 235.0 L 66.0 239.0 L 65.0 241.0 " stroke="black" fill="none" stroke-width="5.0" stroke-linecap="round" stroke-linejoin="round" />
<path d="M 114.0 198.0 L 114.0 198.0 L 114.0 198.0 L 114.0 198.0 L 114.0 199.0 L 114.0 199.0 L 114.0 199.0 L 114.0 200.0 L 114.0 200.0 L 114.0 200.0 L 114.0 201.0 L 114.0 201.0 L 114.0 202.0 L 114.0 203.0 L 114.0 204.0 L 114.0 205.0 L 114.0 207.0 L 114.0 208.0 L 114.0 209.0 L 114.0 211.0 L 113.0 213.0 L 113.0 214.0 L 113.0 216.0 L 113.0 218.0 L 113.0 219.0 L 113.0 221.0 L 113.0 222.0 L 113.0 224.0 L 113.0 225.0 L 113.0 226.0 L 113.0 228.0 L 113.0 229.0 L 113.0 230.0 L 113.0 231.0 L 113.0 232.0 L 113.0 233.0 L 113.0 234.0 L 113.0 235.0 L 113.0 236.0 L 113.0 237.0 L 113.0 237.0 L 113.0 238.0 L 113.0 239.0 L 113.0 239.0 L 113.0 240.0 L 113.0 240.0 L 114.0 241.0 L 114.0 241.0 L 114.0 242.0 L 114.0 242.0 L 114.0 243.0 L 114.0 243.0 L 115.0 244.0 L 115.0 244.0 L 115.0 244.0 L 115.0 245.0 L 116.0 245.0 L 116.0 245.0 L 116.0 246.0 L 117.0 246.0 L 117.0 246.0 L 118.0 246.0 L 119.0 247.0 L 119.0 247.0 L 120.0 247.0 L 121.0 247.0 L 122.0 247.0 L 123.0 247.0 L 124.0 248.0 L 126.0 248.0 L 127.0 248.0 L 128.0 248.0 L 129.0 248.0 L 131.0 249.0 L 132.0 249.0 L 133.0 249.0 L 135.0 249.0 L 136.0 249.0 L 137.0 249.0 L 139.0 249.0 L 140.0 249.0 L 141.0 249.0 L 143.0 249.0 L 144.0 249.0 L 145.0 249.0 L 146.0 249.0 L 147.0 249.0 L 148.0 249.0 L 149.0 249.0 L 150.0 249.0 L 151.0 249.0 L 152.0 249.0 L 152.0 249.0 L 153.0 249.0 L 154.0 249.0 L 155.0 249.0 L 155.0 249.0 L 156.0 249.0 L 157.0 249.0 L 158.0 249.0 L 159.0 248.0 L 160.0 248.0 L 161.0 248.0 L 162.0 248.0 L 163.0 248.0 L 164.0 248.0 L 165.0 248.0 L 166.0 248.0 L 166.0 248.0 L 167.0 248.0 L 168.0 247.0 L 169.0 247.0 L 170.0 247.0 L 171.0 247.0 L 173.0 247.0 L 174.0 247.0 L 175.0 247.0 L 176.0 247.0 L 177.0 247.0 L 178.0 247.0 L 178.0 247.0 L 179.0 247.0 L 180.0 247.0 L 181.0 247.0 L 182.0 246.0 L 183.0 246.0 L 184.0 246.0 L 184.0 246.0 L 185.0 246.0 L 186.0 246.0 L 187.0 245.0 L 187.0 245.0 L 188.0 245.0 L 189.0 245.0 L 189.0 244.0 L 190.0 244.0 L 191.0 244.0 L 191.0 244.0 L 191.0 243.0 L 192.0 243.0 L 192.0 243.0 L 192.0 243.0 L 193.0 243.0 L 193.0 242.0 L 193.0 242.0 L 193.0 242.0 L 193.0 241.0 L 193.0 241.0 L 193.0 240.0 L 193.0 239.0 L 194.0 237.0 L 194.0 235.0 L 194.0 233.0 L 194.0 230.0 L 195.0 226.0 L 195.0 222.0 L 195.0 219.0 L 195.0 217.0 " stroke="black" fill="none" stroke-width="5.0" stroke-linecap="round" stroke-linejoin="round" />
<path d="M 137.0 183.0 L 137.0 183.0 L 137.0 183.0 L 137.0 184.0 L 138.0 185.0 L 138.0 186.0 L 139.0 187.0 L 141.0 188.0 L 143.0 189.0 L 145.0 191.0 L 147.0 193.0 L 150.0 195.0 L 152.0 197.0 L 155.0 200.0 L 158.0 202.0 L 161.0 204.0 L 164.0 206.0 L 167.0 207.0 L 169.0 208.0 L 170.0 209.0 L 171.0 209.0 L 171.0 209.0 " stroke="black" fill="none" stroke-width="5.0" stroke-linecap="round" stroke-linejoin="round" />
<path d="M 214.0 194.0 L 214.0 194.0 L 214.0 194.0 L 214.0 194.0 L 214.0 194.0 L 214.0 194.0 L 214.0 194.0 L 214.0 195.0 L 214.0 196.0 L 216.0 197.0 L 218.0 200.0 L 220.0 203.0 L 223.0 206.0 L 226.0 210.0 L 228.0 215.0 L 230.0 220.0 L 232.0 225.0 L 233.0 230.0 L 234.0 233.0 L 235.0 236.0 L 236.0 237.0 L 237.0 238.0 L 237.0 238.0 L 238.0 237.0 " stroke="black" fill="none" stroke-width="5.0" stroke-linecap="round" stroke-linejoin="round" />
</svg>