<svg xmlns="http://www.w3.org/2000/svg" width="300" height="300" viewBox="0 0 300 300">
<path d="M 73.0 85.0 L 72.0 85.0 L 71.0 85.0 L 70.0 85.0 L 70.0 85.0 L 69.0 85.0 L 69.0 85.0 L 68.0 85.0 L 68.0 85.0 L 68.0 84.0 L 69.0 84.0 L 71.0 84.0 L 74.0 83.0 L 78.0 82.0 L 84.0 81.0 L 92.0 79.0 L 99.0 77.0 L 107.0 75.0 L 115.0 72.0 L 122.0 70.0 L 128.0 69.0 L 133.0 68.0 L 136.0 68.0 " stroke="black" fill="none" stroke-width="5.0" stroke-linecap="round" stroke-linejoin="round" />
<path d="M 71.0 119.0 L 71.0 119.0 L 69.0 119.0 L 68.0 119.0 L 67.0 119.0 L 66.0 119.0 L 66.0 119.0 L 66.0 119.0 L 66.0 119.0 L 68.0 119.0 L 71.0 118.0 L 76.0 117.0 L 82.0 116.0 L 90.0 115.0 L 98.0 114.0 L 105.0 113.0 L 112.0 111.0 L 119.0 110.0 L 125.0 109.0 L 130.0 109.0 L 134.0 109.0 " stroke="black" fill="none" stroke-width="5.0" stroke-linecap="round" stroke-linejoin="round" />
<path d="M 108.0 83.0 L 108.0 83.0 L 107.0 83.0 L 106.0 84.0 L 106.0 85.0 L 106.0 87.0 L 105.0 90.0 L 105.0 95.0 L 105.0 101.0 L 105.0 107.0 L 106.0 115.0 L 106.0 123.0 L 106.0 132.0 L 106.0 141.0 L 106.0 152.0 L 106.0 161.0 L 105.0 170.0 L 105.0 178.0 L 104.0 185.0 L 104.0 189.0 L 104.0 193.0 L 104.0 194.0 L 104.0 194.0 " stroke="black" fill="none" stroke-width="5.0" stroke-linecap="round" stroke-linejoin="round" />
<path d="M 106.0 125.0 L 106.0 125.0 L 105.0 125.0 L 104.0 125.0 L 104.0 125.0 L 103.0 126.0 L 102.0 128.0 L 101.0 130.0 L 100.0 133.0 L 97.0 137.0 L 95.0 142.0 L 91.0 147.0 L 86.0 153.0 L 82.0 158.0 L 77.0 161.0 L 74.0 164.0 L 73.0 165.0 " stroke="black" fill="none" stroke-width="5.0" stroke-linecap="round" stroke-linejoin="round" />
<path d="M 107.0 129.0 L 107.0 129.0 L 107.0 130.0 L 107.0 130.0 L 107.0 131.0 L 108.0 132.0 L 110.0 134.0 L 114.0 136.0 L 120.0 138.0 L 126.0 140.0 L 132.0 143.0 L 138.0 145.0 " stroke="black" fill="none" stroke-width="5.0" stroke-linecap="round" stroke-linejoin="round" />
<path d="M 153.0 102.0 L 153.0 102.0 L 152.0 102.0 L 152.0 102.0 L 151.0 103.0 L 151.0 103.0 L 151.0 104.0 L 151.0 105.0 L 152.0 107.0 L 154.0 109.0 L 157.0 111.0 L 160.0 114.0 L 164.0 117.0 L 168.0 120.0 L 170.0 121.0 " stroke="black" fill="none" stroke-width="5.0" stroke-linecap="round" stroke-linejoin="round" />
<path d="M 232.0 99.0 L 232.0 99.0 L 232.0 99.0 L 231.0 100.0 L 231.0 100.0 L 230.0 101.0 L 230.0 102.0 L 229.0 104.0 L 228.0 107.0 L 227.0 110.0 L 225.0 114.0 L 222.0 119.0 L 218.0 125.0 L 216.0 127.0 " stroke="black" fill="none" stroke-width="5.0" stroke-linecap="round" stroke-linejoin="round" />
<path d="M 191.0 81.0 L 191.0 81.0 L 191.0 81.0 L 191.0 81.0 L 190.0 81.0 L 190.0 81.0 L 190.0 81.0 L 190.0 82.0 L 190.0 83.0 L 190.0 84.0 L 190.0 85.0 L 191.0 87.0 L 191.0 91.0 L 192.0 95.0 L 193.0 100.0 L 193.0 105.0 L 193.0 112.0 L 193.0 118.0 L 193.0 124.0 L 193.0 131.0 L 192.0 136.0 L 191.0 142.0 L 188.0 148.0 L 185.0 154.0 L 181.0 159.0 L 174.0 164.0 L 167.0 168.0 L 161.0 172.0 " stroke="black" fill="none" stroke-width="5.0" stroke-linecap="round" stroke-linejoin="round" />
<path d="M 193.0 134.0 L 193.0 134.0 L 192.0 134.0 L 192.0 134.0 L 191.0 134.0 L 191.0 134.0 L 191.0 134.0 L 190.0 134.0 L 190.0 134.0 L 191.0 135.0 L 191.0 137.0 L 193.0 139.0 L 195.0 142.0 L 197.0 145.0 L 200.0 149.0 L 204.0 154.0 L 209.0 159.0 L 215.0 163.0 L 221.0 167.0 L 226.0 170.0 L 230.0 172.0 L 233.0 173.0 L 235.0 175.0 L 236.0 175.0 L 237.0 176.0 " stroke="black" fill="none" stroke-width="5.0" stroke-linecap="round" stroke-linejoin="round" />
<path d="M 87.0 204.0 L 87.0 204.0 L 87.0 203.0 L 87.0 203.0 L 87.0 203.0 L 87.0 203.0 L 87.0 204.0 L 86.0 206.0 L 85.0 211.0 L 83.0 216.0 L 81.0 224.0 L 78.0 232.0 L 76.0 239.0 L 76.0 241.0 " stroke="black" fill="none" stroke-width="5.0" stroke-linecap="round" stroke-linejoin="round" />
<path d="M 113.0 206.0 L 113.0 206.0 L 113.0 206.0 L 113.0 206.0 L 112.0 206.0 L 112.0 206.0 L 111.0 206.0 L 111.0 206.0 L 111.0 206.0 L 111.0 207.0 L 111.0 208.0 L 111.0 209.0 L 111.0 211.0 L 111.0 213.0 L 111.0 216.0 L 111.0 218.0 L 111.0 221.0 L 111.0 224.0 L 111.0 227.0 L 111.0 229.0 L 111.0 232.0 L 111.0 234.0 L 111.0 236.0 L 111.0 237.0 L 111.0 239.0 L 111.0 239.0 L 111.0 240.0 L 111.0 241.0 L 111.0 242.0 L 111.0 242.0 L 111.0 243.0 L 111.0 243.0 L 111.0 243.0 L 111.0 244.0 L 111.0 244.0 L 112.0 245.0 L 112.0 245.0 L 113.0 246.0 L 114.0 246.0 L 114.0 246.0 L 115.0 247.0 L 116.0 247.0 L 116.0 248.0 L 118.0 248.0 L 119.0 248.0 L 120.0 248.0 L 122.0 248.0 L 124.0 248.0 L 126.0 248.0 L 129.0 248.0 L 132.0 248.0 L 135.0 248.0 L 138.0 248.0 L 141.0 247.0 L 144.0 247.0 L 146.0 247.0 L 149.0 247.0 L 151.0 246.0 L 153.0 246.0 L 156.0 246.0 L 158.0 246.0 L 160.0 246.0 L 163.0 246.0 L 165.0 246.0 L 168.0 246.0 L 171.0 246.0 L 173.0 245.0 L 176.0 245.0 L 178.0 245.0 L 180.0 245.0 L 182.0 245.0 L 183.0 244.0 L 184.0 244.0 L 184.0 244.0 L 184.0 243.0 L 185.0 243.0 L 185.0 242.0 L 185.0 240.0 L 185.0 238.0 L 184.0 236.0 L 183.0 234.0 L 182.0 231.0 " stroke="black" fill="none" stroke-width="5.0" stroke-linecap="round" stroke-linejoin="round" />
<path d="M 142.0 201.0 L 142.0 201.0 L 142.0 201.0 L 141.0 200.0 L 141.0 200.0 L 141.0 200.0 L 141.0 200.0 L 141.0 201.0 L 143.0 202.0 L 145.0 205.0 L 147.0 208.0 L 150.0 211.0 L 152.0 215.0 L 155.0 219.0 L 159.0 224.0 L 160.0 226.0 " stroke="black" fill="none" stroke-width="5.0" stroke-linecap="round" stroke-linejoin="round" />
<path d="M 204.0 194.0 L 204.0 194.0 L 204.0 194.0 L 204.0 194.0 L 204.0 194.0 L 205.0 194.0 L 206.0 196.0 L 208.0 199.0 L 211.0 204.0 L 215.0 210.0 L 219.0 216.0 L 223.0 223.0 L 227.0 228.0 L 230.0 232.0 L 232.0 233.0 " stroke="black" fill="none" stroke-width="5.0" stroke-linecap="round" stroke-linejoin="round" />
</svg>