<svg xmlns="http://www.w3.org/2000/svg" width="300" height="300" viewBox="0 0 300 300">
<path d="M 106.0 68.0 L 106.0 68.0 L 106.0 68.0 L 106.0 68.0 L 106.0 67.0 L 106.0 67.0 L 105.0 67.0 L 105.0 67.0 L 105.0 67.0 L 105.0 67.0 L 105.0 67.0 L 105.0 68.0 L 104.0 69.0 L 104.0 70.0 L 103.0 71.0 L 103.0 73.0 L 102.0 75.0 L 101.0 77.0 L 100.0 80.0 L 98.0 82.0 L 97.0 84.0 L 96.0 86.0 L 94.0 88.0 L 93.0 89.0 L 91.0 92.0 L 89.0 94.0 L 87.0 96.0 L 85.0 98.0 L 83.0 100.0 L 82.0 101.0 L 80.0 103.0 L 79.0 104.0 L 78.0 105.0 L 77.0 106.0 L 76.0 107.0 L 75.0 107.0 L 74.0 107.0 L 74.0 108.0 L 73.0 108.0 L 73.0 108.0 L 73.0 109.0 L 73.0 109.0 L 73.0 109.0 L 73.0 109.0 L 73.0 109.0 L 73.0 109.0 L 73.0 109.0 L 73.0 109.0 L 74.0 109.0 L 74.0 109.0 L 75.0 109.0 L 77.0 109.0 L 78.0 109.0 L 80.0 109.0 L 82.0 108.0 L 84.0 108.0 L 87.0 108.0 L 90.0 108.0 L 94.0 107.0 L 98.0 107.0 L 103.0 106.0 L 107.0 105.0 L 110.0 105.0 L 114.0 104.0 L 118.0 104.0 L 121.0 103.0 L 123.0 103.0 L 125.0 103.0 L 127.0 102.0 L 129.0 102.0 L 130.0 102.0 L 130.0 101.0 L 131.0 101.0 " stroke="black" fill="none" stroke-width="5.0" stroke-linecap="round" stroke-linejoin="round" />
<path d="M 124.0 86.0 L 124.0 86.0 L 124.0 86.0 L 124.0 86.0 L 124.0 86.0 L 124.0 86.0 L 124.0 86.0 L 124.0 86.0 L 125.0 86.0 L 126.0 87.0 L 128.0 89.0 L 131.0 92.0 L 134.0 95.0 L 137.0 99.0 L 141.0 102.0 L 144.0 105.0 L 146.0 108.0 L 149.0 110.0 L 150.0 111.0 L 151.0 111.0 " stroke="black" fill="none" stroke-width="5.0" stroke-linecap="round" stroke-linejoin="round" />
<path d="M 81.0 127.0 L 81.0 127.0 L 81.0 127.0 L 81.0 127.0 L 81.0 127.0 L 81.0 127.0 L 81.0 127.0 L 81.0 127.0 L 81.0 127.0 L 81.0 127.0 L 81.0 127.0 L 81.0 128.0 L 81.0 129.0 L 81.0 131.0 L 81.0 134.0 L 81.0 138.0 L 80.0 142.0 L 80.0 147.0 L 79.0 151.0 L 79.0 156.0 L 78.0 160.0 L 76.0 164.0 L 75.0 168.0 L 73.0 171.0 L 72.0 174.0 L 70.0 177.0 L 68.0 180.0 L 67.0 183.0 L 66.0 185.0 L 65.0 187.0 " stroke="black" fill="none" stroke-width="5.0" stroke-linecap="round" stroke-linejoin="round" />
<path d="M 85.0 124.0 L 85.0 124.0 L 84.0 124.0 L 82.0 124.0 L 82.0 124.0 L 81.0 124.0 L 80.0 124.0 L 80.0 124.0 L 80.0 124.0 L 80.0 124.0 L 80.0 124.0 L 81.0 124.0 L 82.0 124.0 L 83.0 124.0 L 84.0 124.0 L 85.0 124.0 L 86.0 124.0 L 88.0 124.0 L 90.0 124.0 L 91.0 124.0 L 93.0 124.0 L 95.0 124.0 L 97.0 124.0 L 99.0 124.0 L 101.0 124.0 L 103.0 124.0 L 105.0 124.0 L 106.0 124.0 L 108.0 124.0 L 110.0 124.0 L 111.0 124.0 L 113.0 124.0 L 115.0 124.0 L 116.0 124.0 L 118.0 124.0 L 120.0 124.0 L 121.0 124.0 L 123.0 124.0 L 125.0 124.0 L 127.0 124.0 L 128.0 124.0 L 130.0 124.0 L 132.0 124.0 L 133.0 124.0 L 134.0 124.0 L 135.0 125.0 L 136.0 125.0 L 137.0 125.0 L 137.0 125.0 L 137.0 126.0 L 138.0 126.0 L 138.0 126.0 L 138.0 127.0 L 138.0 127.0 L 138.0 128.0 L 138.0 129.0 L 138.0 130.0 L 138.0 131.0 L 138.0 132.0 L 138.0 134.0 L 138.0 136.0 L 138.0 137.0 L 138.0 140.0 L 138.0 143.0 L 137.0 145.0 L 137.0 149.0 L 137.0 152.0 L 137.0 155.0 L 136.0 159.0 L 136.0 162.0 L 135.0 165.0 L 135.0 169.0 L 134.0 172.0 L 134.0 175.0 L 133.0 178.0 L 133.0 182.0 L 132.0 185.0 L 132.0 188.0 L 131.0 190.0 L 131.0 192.0 L 130.0 194.0 L 130.0 194.0 L 129.0 195.0 L 128.0 196.0 L 127.0 196.0 L 127.0 196.0 L 126.0 196.0 L 125.0 196.0 L 124.0 196.0 L 122.0 196.0 L 120.0 195.0 L 118.0 194.0 L 116.0 192.0 L 113.0 191.0 L 111.0 189.0 L 108.0 186.0 L 107.0 185.0 " stroke="black" fill="none" stroke-width="5.0" stroke-linecap="round" stroke-linejoin="round" />
<path d="M 92.0 150.0 L 92.0 150.0 L 92.0 149.0 L 91.0 148.0 L 91.0 148.0 L 90.0 148.0 L 90.0 147.0 L 90.0 147.0 L 90.0 147.0 L 90.0 147.0 L 91.0 147.0 L 93.0 148.0 L 95.0 148.0 L 98.0 149.0 L 101.0 150.0 L 104.0 151.0 L 107.0 152.0 L 110.0 152.0 L 114.0 153.0 L 117.0 153.0 L 119.0 154.0 L 121.0 154.0 L 123.0 154.0 L 123.0 154.0 " stroke="black" fill="none" stroke-width="5.0" stroke-linecap="round" stroke-linejoin="round" />
<path d="M 89.0 175.0 L 87.0 175.0 L 86.0 175.0 L 85.0 176.0 L 84.0 176.0 L 84.0 176.0 L 84.0 176.0 L 85.0 176.0 L 87.0 176.0 L 89.0 176.0 L 93.0 175.0 L 97.0 173.0 L 101.0 172.0 L 105.0 170.0 L 110.0 168.0 L 116.0 166.0 L 123.0 164.0 L 131.0 162.0 L 138.0 160.0 " stroke="black" fill="none" stroke-width="5.0" stroke-linecap="round" stroke-linejoin="round" />
<path d="M 179.0 91.0 L 179.0 91.0 L 179.0 90.0 L 179.0 90.0 L 179.0 90.0 L 179.0 90.0 L 179.0 89.0 L 179.0 89.0 L 180.0 89.0 L 181.0 89.0 L 182.0 89.0 L 185.0 89.0 L 187.0 90.0 L 190.0 90.0 L 194.0 91.0 L 198.0 91.0 L 202.0 91.0 L 206.0 92.0 L 209.0 92.0 L 213.0 92.0 L 215.0 93.0 " stroke="black" fill="none" stroke-width="5.0" stroke-linecap="round" stroke-linejoin="round" />
<path d="M 170.0 80.0 L 170.0 80.0 L 170.0 80.0 L 170.0 80.0 L 170.0 81.0 L 170.0 81.0 L 170.0 82.0 L 170.0 83.0 L 171.0 84.0 L 171.0 85.0 L 171.0 87.0 L 171.0 89.0 L 171.0 92.0 L 171.0 95.0 L 171.0 98.0 L 171.0 101.0 L 170.0 104.0 L 170.0 107.0 L 169.0 110.0 L 168.0 112.0 L 167.0 114.0 L 166.0 116.0 L 165.0 117.0 L 165.0 119.0 L 165.0 120.0 L 165.0 120.0 L 165.0 121.0 L 166.0 121.0 L 168.0 121.0 L 169.0 121.0 L 170.0 121.0 L 171.0 122.0 L 172.0 122.0 L 174.0 122.0 L 175.0 122.0 L 177.0 122.0 L 179.0 122.0 L 181.0 122.0 L 183.0 122.0 L 186.0 121.0 L 188.0 121.0 L 191.0 121.0 L 194.0 120.0 L 196.0 120.0 L 199.0 119.0 L 202.0 119.0 L 205.0 118.0 L 209.0 118.0 L 212.0 117.0 L 215.0 117.0 L 218.0 117.0 L 221.0 117.0 L 223.0 117.0 L 225.0 117.0 L 226.0 117.0 " stroke="black" fill="none" stroke-width="5.0" stroke-linecap="round" stroke-linejoin="round" />
<path d="M 173.0 160.0 L 173.0 160.0 L 173.0 160.0 L 173.0 160.0 L 173.0 160.0 L 173.0 160.0 L 173.0 160.0 L 174.0 160.0 L 175.0 160.0 L 177.0 160.0 L 180.0 160.0 L 184.0 160.0 L 188.0 160.0 L 192.0 159.0 L 196.0 159.0 L 202.0 159.0 L 207.0 158.0 L 211.0 157.0 L 215.0 156.0 L 218.0 155.0 L 219.0 155.0 L 219.0 155.0 " stroke="black" fill="none" stroke-width="5.0" stroke-linecap="round" stroke-linejoin="round" />
<path d="M 172.0 144.0 L 172.0 144.0 L 172.0 144.0 L 171.0 144.0 L 171.0 144.0 L 171.0 144.0 L 171.0 144.0 L 171.0 144.0 L 171.0 144.0 L 171.0 144.0 L 171.0 145.0 L 172.0 146.0 L 172.0 147.0 L 173.0 149.0 L 173.0 150.0 L 174.0 152.0 L 174.0 154.0 L 175.0 156.0 L 175.0 158.0 L 175.0 160.0 L 175.0 162.0 L 175.0 165.0 L 174.0 167.0 L 173.0 169.0 L 173.0 171.0 L 173.0 172.0 L 172.0 173.0 L 172.0 174.0 L 172.0 175.0 L 172.0 175.0 L 172.0 176.0 L 172.0 176.0 L 172.0 177.0 L 172.0 177.0 L 172.0 178.0 L 172.0 178.0 L 173.0 179.0 L 173.0 180.0 L 173.0 180.0 L 173.0 181.0 L 174.0 182.0 L 174.0 182.0 L 174.0 183.0 L 174.0 183.0 L 175.0 184.0 L 175.0 184.0 L 175.0 185.0 L 176.0 185.0 L 176.0 186.0 L 176.0 186.0 L 177.0 186.0 L 177.0 187.0 L 178.0 187.0 L 178.0 187.0 L 179.0 187.0 L 179.0 188.0 L 180.0 188.0 L 181.0 188.0 L 182.0 188.0 L 184.0 188.0 L 185.0 188.0 L 187.0 188.0 L 189.0 188.0 L 191.0 188.0 L 192.0 188.0 L 194.0 188.0 L 196.0 188.0 L 198.0 188.0 L 200.0 188.0 L 201.0 187.0 L 204.0 187.0 L 206.0 187.0 L 209.0 187.0 L 212.0 187.0 L 215.0 187.0 L 218.0 187.0 L 221.0 187.0 L 224.0 187.0 L 226.0 187.0 L 229.0 187.0 L 230.0 187.0 L 232.0 187.0 L 233.0 187.0 L 234.0 187.0 L 234.0 187.0 L 235.0 187.0 L 235.0 187.0 L 235.0 187.0 L 235.0 186.0 L 235.0 186.0 L 235.0 186.0 L 235.0 185.0 L 235.0 184.0 L 235.0 183.0 L 234.0 181.0 L 234.0 178.0 L 233.0 175.0 " stroke="black" fill="none" stroke-width="5.0" stroke-linecap="round" stroke-linejoin="round" />
<path d="M 81.0 211.0 L 81.0 211.0 L 81.0 211.0 L 81.0 211.0 L 81.0 211.0 L 81.0 211.0 L 81.0 211.0 L 81.0 211.0 L 80.0 213.0 L 80.0 217.0 L 79.0 222.0 L 77.0 228.0 L 75.0 235.0 L 73.0 241.0 L 71.0 247.0 L 70.0 250.0 L 70.0 252.0 L 70.0 252.0 " stroke="black" fill="none" stroke-width="5.0" stroke-linecap="round" stroke-linejoin="round" />
<path d="M 105.0 219.0 L 105.0 219.0 L 105.0 218.0 L 105.0 217.0 L 105.0 216.0 L 105.0 214.0 L 105.0 214.0 L 106.0 213.0 L 106.0 213.0 L 106.0 212.0 L 107.0 212.0 L 107.0 212.0 L 107.0 212.0 L 107.0 212.0 L 107.0 212.0 L 107.0 213.0 L 107.0 213.0 L 107.0 214.0 L 107.0 215.0 L 107.0 216.0 L 107.0 217.0 L 107.0 219.0 L 107.0 221.0 L 107.0 223.0 L 107.0 225.0 L 107.0 228.0 L 107.0 230.0 L 107.0 233.0 L 107.0 236.0 L 107.0 238.0 L 107.0 241.0 L 106.0 243.0 L 106.0 245.0 L 106.0 246.0 L 105.0 248.0 L 105.0 249.0 L 105.0 249.0 L 105.0 250.0 L 105.0 250.0 L 105.0 250.0 L 105.0 250.0 L 105.0 250.0 L 106.0 250.0 L 106.0 250.0 L 107.0 250.0 L 107.0 250.0 L 107.0 250.0 L 108.0 251.0 L 109.0 251.0 L 109.0 251.0 L 110.0 251.0 L 111.0 251.0 L 112.0 251.0 L 114.0 252.0 L 115.0 252.0 L 117.0 252.0 L 118.0 252.0 L 120.0 252.0 L 122.0 252.0 L 124.0 252.0 L 126.0 252.0 L 128.0 252.0 L 130.0 252.0 L 132.0 252.0 L 134.0 252.0 L 137.0 252.0 L 138.0 252.0 L 140.0 252.0 L 142.0 252.0 L 143.0 252.0 L 144.0 252.0 L 146.0 252.0 L 147.0 252.0 L 148.0 252.0 L 149.0 252.0 L 150.0 251.0 L 150.0 251.0 L 151.0 251.0 L 152.0 251.0 L 153.0 251.0 L 154.0 251.0 L 155.0 251.0 L 156.0 251.0 L 157.0 251.0 L 159.0 251.0 L 160.0 251.0 L 162.0 251.0 L 164.0 252.0 L 165.0 252.0 L 167.0 252.0 L 169.0 252.0 L 171.0 252.0 L 173.0 252.0 L 174.0 252.0 L 176.0 252.0 L 178.0 252.0 L 180.0 252.0 L 181.0 252.0 L 183.0 252.0 L 184.0 252.0 L 186.0 252.0 L 187.0 252.0 L 188.0 251.0 L 189.0 251.0 L 190.0 251.0 L 191.0 251.0 L 191.0 250.0 L 192.0 250.0 L 193.0 250.0 L 193.0 250.0 L 193.0 249.0 L 193.0 249.0 L 193.0 249.0 L 193.0 248.0 L 193.0 247.0 L 193.0 247.0 L 193.0 246.0 L 193.0 244.0 L 193.0 243.0 L 193.0 241.0 L 192.0 238.0 L 191.0 235.0 " stroke="black" fill="none" stroke-width="5.0" stroke-linecap="round" stroke-linejoin="round" />
<path d="M 145.0 208.0 L 145.0 208.0 L 145.0 208.0 L 144.0 207.0 L 144.0 207.0 L 144.0 207.0 L 144.0 206.0 L 144.0 206.0 L 144.0 206.0 L 144.0 207.0 L 146.0 209.0 L 147.0 211.0 L 149.0 213.0 L 151.0 215.0 L 153.0 218.0 L 156.0 220.0 L 158.0 222.0 L 160.0 222.0 " stroke="black" fill="none" stroke-width="5.0" stroke-linecap="round" stroke-linejoin="round" />
<path d="M 217.0 211.0 L 217.0 211.0 L 217.0 211.0 L 217.0 211.0 L 217.0 211.0 L 218.0 212.0 L 218.0 213.0 L 219.0 215.0 L 219.0 218.0 L 221.0 222.0 L 222.0 226.0 L 223.0 231.0 L 225.0 235.0 L 227.0 238.0 L 228.0 241.0 L 230.0 243.0 " stroke="black" fill="none" stroke-width="5.0" stroke-linecap="round" stroke-linejoin="round" />
</svg>