<svg xmlns="http://www.w3.org/2000/svg" width="300" height="300" viewBox="0 0 300 300">
<path d="M 67.0 115.0 L 66.0 115.0 L 65.0 115.0 L 64.0 115.0 L 63.0 115.0 L 62.0 115.0 L 62.0 115.0 L 62.0 115.0 L 62.0 115.0 L 63.0 115.0 L 66.0 115.0 L 70.0 115.0 L 76.0 114.0 L 85.0 113.0 L 93.0 112.0 L 100.0 111.0 L 106.0 111.0 L 111.0 111.0 " stroke="black" fill="none" stroke-width="5.0" stroke-linecap="round" stroke-linejoin="round" />
<path d="M 89.0 81.0 L 89.0 81.0 L 88.0 81.0 L 87.0 81.0 L 86.0 81.0 L 86.0 81.0 L 86.0 81.0 L 86.0 83.0 L 87.0 85.0 L 88.0 88.0 L 88.0 94.0 L 89.0 100.0 L 89.0 108.0 L 89.0 117.0 L 89.0 126.0 L 88.0 136.0 L 87.0 148.0 L 86.0 159.0 L 85.0 169.0 L 85.0 179.0 L 85.0 188.0 L 85.0 196.0 L 85.0 204.0 L 85.0 210.0 L 85.0 216.0 L 85.0 221.0 L 85.0 227.0 L 85.0 233.0 L 85.0 238.0 L 85.0 242.0 L 85.0 245.0 L 85.0 248.0 L 85.0 250.0 L 85.0 251.0 L 84.0 252.0 L 84.0 253.0 L 83.0 253.0 L 83.0 254.0 L 82.0 254.0 L 81.0 254.0 L 80.0 254.0 L 79.0 253.0 L 77.0 252.0 L 76.0 250.0 L 74.0 248.0 L 72.0 247.0 L 70.0 245.0 L 68.0 244.0 L 67.0 242.0 L 65.0 241.0 L 63.0 239.0 " stroke="black" fill="none" stroke-width="5.0" stroke-linecap="round" stroke-linejoin="round" />
<path d="M 59.0 186.0 L 59.0 186.0 L 58.0 185.0 L 57.0 185.0 L 57.0 184.0 L 58.0 183.0 L 59.0 182.0 L 64.0 178.0 L 70.0 174.0 L 78.0 169.0 L 89.0 164.0 L 100.0 158.0 L 108.0 154.0 L 115.0 149.0 L 121.0 144.0 " stroke="black" fill="none" stroke-width="5.0" stroke-linecap="round" stroke-linejoin="round" />
<path d="M 137.0 124.0 L 135.0 124.0 L 132.0 124.0 L 128.0 124.0 L 126.0 124.0 L 125.0 124.0 L 124.0 124.0 L 124.0 124.0 L 125.0 124.0 L 128.0 125.0 L 132.0 125.0 L 137.0 125.0 L 143.0 125.0 L 149.0 125.0 L 156.0 125.0 L 166.0 125.0 L 177.0 124.0 L 189.0 123.0 L 201.0 120.0 L 211.0 118.0 L 221.0 115.0 L 229.0 113.0 L 234.0 112.0 L 237.0 111.0 L 238.0 111.0 L 238.0 111.0 " stroke="black" fill="none" stroke-width="5.0" stroke-linecap="round" stroke-linejoin="round" />
<path d="M 160.0 87.0 L 158.0 87.0 L 156.0 87.0 L 154.0 87.0 L 153.0 88.0 L 153.0 91.0 L 153.0 94.0 L 153.0 99.0 L 153.0 106.0 L 155.0 114.0 L 156.0 123.0 L 157.0 134.0 L 158.0 147.0 L 158.0 159.0 L 158.0 169.0 L 158.0 175.0 L 158.0 179.0 L 158.0 181.0 L 160.0 181.0 L 161.0 180.0 " stroke="black" fill="none" stroke-width="5.0" stroke-linecap="round" stroke-linejoin="round" />
<path d="M 206.0 91.0 L 205.0 92.0 L 205.0 95.0 L 205.0 99.0 L 204.0 105.0 L 204.0 112.0 L 204.0 119.0 L 202.0 128.0 L 201.0 138.0 L 200.0 149.0 L 198.0 158.0 L 197.0 165.0 L 196.0 169.0 L 195.0 172.0 L 194.0 175.0 L 194.0 176.0 " stroke="black" fill="none" stroke-width="5.0" stroke-linecap="round" stroke-linejoin="round" />
<path d="M 149.0 178.0 L 148.0 178.0 L 145.0 178.0 L 141.0 179.0 L 138.0 179.0 L 135.0 180.0 L 133.0 181.0 L 132.0 181.0 L 132.0 181.0 L 133.0 181.0 L 136.0 181.0 L 140.0 181.0 L 146.0 181.0 L 152.0 180.0 L 160.0 179.0 L 169.0 178.0 L 180.0 176.0 L 190.0 175.0 L 199.0 173.0 L 207.0 171.0 L 213.0 170.0 L 218.0 170.0 L 221.0 170.0 L 223.0 170.0 L 223.0 171.0 " stroke="black" fill="none" stroke-width="5.0" stroke-linecap="round" stroke-linejoin="round" />
<path d="M 175.0 195.0 L 175.0 194.0 L 176.0 193.0 L 176.0 192.0 L 176.0 192.0 L 177.0 191.0 L 177.0 191.0 L 176.0 192.0 L 175.0 193.0 L 172.0 196.0 L 169.0 199.0 L 164.0 204.0 L 158.0 210.0 L 152.0 218.0 L 146.0 227.0 L 139.0 235.0 L 134.0 241.0 L 132.0 245.0 L 130.0 245.0 L 130.0 245.0 " stroke="black" fill="none" stroke-width="5.0" stroke-linecap="round" stroke-linejoin="round" />
<path d="M 201.0 207.0 L 200.0 207.0 L 199.0 207.0 L 198.0 207.0 L 197.0 207.0 L 197.0 207.0 L 197.0 207.0 L 198.0 208.0 L 200.0 210.0 L 204.0 213.0 L 208.0 217.0 L 213.0 222.0 L 219.0 229.0 L 225.0 235.0 L 231.0 240.0 L 235.0 245.0 L 238.0 247.0 L 240.0 248.0 L 241.0 248.0 " stroke="black" fill="none" stroke-width="5.0" stroke-linecap="round" stroke-linejoin="round" />
</svg>