<svg xmlns="http://www.w3.org/2000/svg" width="300" height="300" viewBox="0 0 300 300">
<path d="M 63.0 115.0 L 63.0 115.0 L 63.0 115.0 L 63.0 115.0 L 62.0 115.0 L 62.0 115.0 L 62.0 115.0 L 62.0 115.0 L 62.0 115.0 L 62.0 115.0 L 62.0 115.0 L 62.0 115.0 L 62.0 115.0 L 62.0 115.0 L 62.0 115.0 L 62.0 115.0 L 62.0 115.0 L 62.0 115.0 L 62.0 115.0 L 62.0 115.0 L 63.0 115.0 L 63.0 115.0 L 64.0 115.0 L 64.0 115.0 L 65.0 115.0 L 65.0 115.0 L 66.0 115.0 L 66.0 115.0 L 67.0 115.0 L 67.0 115.0 L 68.0 115.0 L 68.0 115.0 L 69.0 115.0 L 69.0 115.0 L 70.0 115.0 L 71.0 115.0 L 71.0 115.0 L 72.0 116.0 L 73.0 116.0 L 74.0 116.0 L 74.0 116.0 L 75.0 116.0 L 76.0 116.0 L 77.0 116.0 L 78.0 116.0 L 79.0 116.0 L 80.0 116.0 L 82.0 116.0 L 83.0 116.0 L 84.0 116.0 L 85.0 116.0 L 86.0 116.0 L 87.0 116.0 L 88.0 116.0 L 89.0 116.0 L 90.0 116.0 L 91.0 116.0 L 92.0 116.0 L 93.0 116.0 L 94.0 116.0 L 96.0 116.0 L 97.0 116.0 L 98.0 116.0 L 100.0 116.0 L 101.0 116.0 L 102.0 116.0 L 103.0 116.0 L 105.0 116.0 L 106.0 116.0 L 107.0 116.0 L 108.0 116.0 L 110.0 116.0 L 111.0 116.0 L 112.0 116.0 L 114.0 116.0 L 115.0 116.0 L 116.0 116.0 L 118.0 116.0 L 118.0 116.0 " stroke="black" fill="none" stroke-width="5.0" stroke-linecap="round" stroke-linejoin="round" />
<path d="M 91.0 70.0 L 91.0 70.0 L 91.0 71.0 L 91.0 71.0 L 91.0 72.0 L 92.0 73.0 L 92.0 74.0 L 92.0 75.0 L 92.0 76.0 L 92.0 77.0 L 92.0 79.0 L 92.0 81.0 L 92.0 83.0 L 92.0 85.0 L 92.0 87.0 L 92.0 90.0 L 92.0 93.0 L 92.0 96.0 L 92.0 99.0 L 92.0 102.0 L 92.0 105.0 L 92.0 108.0 L 92.0 111.0 L 92.0 114.0 L 92.0 117.0 L 92.0 120.0 L 92.0 123.0 L 92.0 126.0 L 92.0 129.0 L 92.0 131.0 L 92.0 134.0 L 92.0 137.0 L 92.0 140.0 L 92.0 143.0 L 92.0 145.0 L 92.0 148.0 L 92.0 150.0 L 92.0 153.0 L 92.0 155.0 L 92.0 157.0 L 92.0 159.0 L 92.0 161.0 L 92.0 163.0 L 92.0 165.0 L 92.0 167.0 L 92.0 169.0 L 92.0 171.0 L 92.0 173.0 L 91.0 176.0 L 91.0 178.0 L 91.0 180.0 L 91.0 182.0 L 91.0 185.0 L 91.0 187.0 L 91.0 189.0 L 91.0 192.0 L 91.0 194.0 L 91.0 196.0 L 91.0 198.0 L 91.0 200.0 L 91.0 202.0 L 91.0 205.0 L 91.0 207.0 L 91.0 209.0 L 91.0 211.0 L 91.0 213.0 L 91.0 215.0 L 91.0 217.0 L 91.0 220.0 L 91.0 222.0 L 91.0 225.0 L 91.0 228.0 L 91.0 231.0 L 91.0 234.0 L 91.0 237.0 L 91.0 239.0 L 91.0 240.0 L 91.0 242.0 L 90.0 242.0 L 90.0 243.0 L 90.0 244.0 L 89.0 244.0 L 89.0 244.0 L 88.0 244.0 L 88.0 245.0 L 87.0 245.0 L 86.0 245.0 L 85.0 245.0 L 84.0 245.0 L 82.0 244.0 L 81.0 243.0 L 79.0 242.0 L 77.0 241.0 L 75.0 240.0 L 73.0 239.0 L 71.0 238.0 L 69.0 237.0 L 67.0 236.0 L 66.0 235.0 " stroke="black" fill="none" stroke-width="5.0" stroke-linecap="round" stroke-linejoin="round" />
<path d="M 61.0 185.0 L 61.0 185.0 L 61.0 185.0 L 61.0 185.0 L 60.0 185.0 L 60.0 186.0 L 60.0 186.0 L 60.0 186.0 L 60.0 186.0 L 60.0 186.0 L 60.0 186.0 L 60.0 186.0 L 60.0 186.0 L 61.0 185.0 L 61.0 185.0 L 62.0 185.0 L 62.0 185.0 L 63.0 184.0 L 64.0 184.0 L 65.0 184.0 L 65.0 184.0 L 66.0 183.0 L 67.0 183.0 L 68.0 182.0 L 68.0 182.0 L 69.0 182.0 L 70.0 181.0 L 70.0 181.0 L 71.0 181.0 L 72.0 180.0 L 72.0 180.0 L 73.0 179.0 L 74.0 179.0 L 75.0 178.0 L 76.0 178.0 L 77.0 178.0 L 78.0 177.0 L 79.0 177.0 L 80.0 177.0 L 81.0 177.0 L 82.0 176.0 L 83.0 176.0 L 84.0 175.0 L 86.0 175.0 L 87.0 175.0 L 89.0 174.0 L 91.0 174.0 L 93.0 173.0 L 94.0 173.0 L 96.0 172.0 L 97.0 172.0 L 99.0 171.0 L 100.0 171.0 L 101.0 170.0 L 102.0 170.0 L 104.0 169.0 L 105.0 169.0 L 106.0 168.0 L 107.0 168.0 L 108.0 167.0 L 109.0 166.0 L 110.0 166.0 L 111.0 165.0 L 112.0 165.0 L 114.0 164.0 L 115.0 163.0 L 116.0 162.0 L 117.0 162.0 L 117.0 161.0 L 118.0 161.0 L 118.0 161.0 L 119.0 160.0 " stroke="black" fill="none" stroke-width="5.0" stroke-linecap="round" stroke-linejoin="round" />
<path d="M 138.0 101.0 L 138.0 101.0 L 138.0 101.0 L 138.0 101.0 L 138.0 101.0 L 138.0 101.0 L 138.0 101.0 L 139.0 101.0 L 139.0 101.0 L 139.0 101.0 L 139.0 101.0 L 139.0 101.0 L 140.0 101.0 L 140.0 101.0 L 141.0 101.0 L 142.0 101.0 L 142.0 101.0 L 143.0 101.0 L 144.0 101.0 L 145.0 101.0 L 146.0 100.0 L 147.0 100.0 L 147.0 100.0 L 148.0 100.0 L 149.0 100.0 L 150.0 99.0 L 151.0 99.0 L 152.0 99.0 L 152.0 99.0 L 153.0 98.0 L 154.0 98.0 L 155.0 98.0 L 157.0 97.0 L 158.0 97.0 L 159.0 96.0 L 161.0 96.0 L 162.0 96.0 L 164.0 95.0 L 166.0 95.0 L 168.0 95.0 L 169.0 94.0 L 171.0 94.0 L 173.0 93.0 L 175.0 93.0 L 176.0 93.0 L 178.0 92.0 L 179.0 92.0 L 181.0 92.0 L 182.0 91.0 L 184.0 91.0 L 185.0 91.0 L 187.0 90.0 L 188.0 90.0 L 189.0 89.0 L 190.0 89.0 L 191.0 88.0 L 193.0 87.0 L 194.0 87.0 L 195.0 86.0 L 196.0 85.0 L 197.0 85.0 L 198.0 84.0 L 199.0 83.0 L 200.0 83.0 L 202.0 82.0 L 204.0 81.0 L 206.0 80.0 L 208.0 79.0 L 210.0 78.0 L 212.0 78.0 L 214.0 77.0 L 217.0 76.0 L 218.0 75.0 L 220.0 75.0 L 222.0 74.0 L 224.0 73.0 " stroke="black" fill="none" stroke-width="5.0" stroke-linecap="round" stroke-linejoin="round" />
<path d="M 138.0 161.0 L 138.0 161.0 L 138.0 161.0 L 138.0 161.0 L 138.0 161.0 L 138.0 161.0 L 138.0 161.0 L 138.0 161.0 L 138.0 161.0 L 138.0 161.0 L 138.0 161.0 L 138.0 161.0 L 138.0 161.0 L 138.0 161.0 L 138.0 161.0 L 139.0 161.0 L 139.0 161.0 L 139.0 161.0 L 139.0 161.0 L 140.0 161.0 L 141.0 161.0 L 141.0 161.0 L 142.0 161.0 L 143.0 161.0 L 144.0 161.0 L 144.0 161.0 L 145.0 160.0 L 146.0 160.0 L 147.0 160.0 L 148.0 160.0 L 148.0 160.0 L 149.0 160.0 L 150.0 159.0 L 150.0 159.0 L 151.0 159.0 L 151.0 159.0 L 152.0 159.0 L 152.0 159.0 L 153.0 159.0 L 153.0 159.0 L 154.0 159.0 L 155.0 159.0 L 155.0 159.0 L 156.0 159.0 L 156.0 159.0 L 157.0 159.0 L 157.0 159.0 L 158.0 159.0 L 158.0 159.0 L 159.0 159.0 L 160.0 159.0 L 160.0 159.0 L 161.0 159.0 L 162.0 159.0 L 162.0 159.0 L 163.0 159.0 L 163.0 159.0 L 164.0 159.0 L 165.0 159.0 L 166.0 159.0 L 166.0 159.0 L 167.0 159.0 L 168.0 159.0 L 169.0 159.0 L 170.0 159.0 L 171.0 159.0 L 172.0 159.0 L 173.0 159.0 L 174.0 159.0 L 175.0 159.0 L 175.0 159.0 L 177.0 159.0 L 177.0 158.0 L 178.0 158.0 L 179.0 158.0 L 180.0 158.0 L 181.0 158.0 L 182.0 158.0 L 183.0 158.0 L 184.0 158.0 L 185.0 158.0 L 186.0 158.0 L 186.0 158.0 L 187.0 157.0 L 188.0 157.0 L 189.0 157.0 L 190.0 157.0 L 190.0 157.0 L 191.0 157.0 L 192.0 157.0 L 192.0 157.0 L 193.0 157.0 L 194.0 157.0 L 194.0 157.0 L 195.0 157.0 L 195.0 157.0 L 196.0 157.0 L 196.0 156.0 L 197.0 156.0 L 198.0 156.0 L 198.0 156.0 L 199.0 156.0 L 199.0 156.0 L 200.0 156.0 L 200.0 156.0 L 201.0 156.0 L 202.0 156.0 L 202.0 156.0 L 203.0 156.0 L 204.0 156.0 L 204.0 156.0 L 205.0 156.0 L 206.0 156.0 L 207.0 156.0 L 207.0 156.0 L 208.0 156.0 L 209.0 156.0 L 209.0 156.0 L 210.0 156.0 L 210.0 156.0 L 211.0 156.0 L 212.0 156.0 L 212.0 156.0 L 213.0 156.0 L 214.0 156.0 L 214.0 156.0 L 215.0 156.0 L 216.0 156.0 L 216.0 156.0 L 217.0 156.0 L 218.0 156.0 L 218.0 156.0 L 219.0 156.0 L 220.0 156.0 L 220.0 156.0 L 221.0 156.0 L 222.0 156.0 L 222.0 156.0 L 223.0 156.0 L 224.0 156.0 L 225.0 156.0 L 226.0 156.0 L 227.0 156.0 L 227.0 156.0 L 228.0 156.0 L 229.0 156.0 L 230.0 156.0 L 231.0 156.0 L 232.0 156.0 L 233.0 156.0 L 234.0 156.0 L 234.0 156.0 " stroke="black" fill="none" stroke-width="5.0" stroke-linecap="round" stroke-linejoin="round" />
<path d="M 173.0 104.0 L 173.0 104.0 L 173.0 105.0 L 173.0 105.0 L 173.0 106.0 L 173.0 107.0 L 173.0 108.0 L 173.0 109.0 L 173.0 110.0 L 173.0 111.0 L 173.0 112.0 L 173.0 113.0 L 173.0 115.0 L 173.0 117.0 L 173.0 119.0 L 173.0 121.0 L 173.0 123.0 L 173.0 126.0 L 172.0 128.0 L 172.0 130.0 L 172.0 133.0 L 172.0 135.0 L 172.0 137.0 L 172.0 140.0 L 172.0 142.0 L 171.0 144.0 L 171.0 147.0 L 171.0 149.0 L 171.0 151.0 L 171.0 153.0 L 171.0 154.0 L 171.0 156.0 L 171.0 158.0 L 171.0 159.0 L 171.0 160.0 L 171.0 162.0 L 171.0 163.0 L 171.0 164.0 L 171.0 165.0 L 171.0 166.0 L 171.0 167.0 L 171.0 169.0 L 171.0 170.0 L 171.0 171.0 L 171.0 173.0 L 171.0 174.0 L 171.0 176.0 L 171.0 177.0 L 171.0 179.0 L 171.0 180.0 L 171.0 182.0 L 171.0 184.0 L 171.0 185.0 L 171.0 187.0 L 171.0 189.0 L 171.0 191.0 L 171.0 193.0 L 171.0 195.0 L 171.0 197.0 L 171.0 199.0 L 171.0 201.0 L 171.0 203.0 L 171.0 205.0 L 171.0 206.0 L 171.0 208.0 L 171.0 210.0 L 171.0 212.0 L 171.0 213.0 L 171.0 215.0 L 171.0 216.0 L 171.0 218.0 L 171.0 220.0 L 171.0 221.0 L 171.0 223.0 L 171.0 224.0 L 171.0 226.0 L 171.0 227.0 L 171.0 229.0 L 171.0 230.0 L 171.0 231.0 L 171.0 232.0 L 171.0 233.0 L 172.0 234.0 L 172.0 235.0 L 172.0 236.0 L 173.0 236.0 L 173.0 237.0 L 173.0 238.0 L 173.0 238.0 L 174.0 239.0 L 174.0 240.0 L 174.0 240.0 L 174.0 241.0 L 175.0 242.0 L 175.0 242.0 L 175.0 243.0 L 175.0 243.0 L 176.0 244.0 L 176.0 245.0 L 176.0 245.0 L 177.0 245.0 L 177.0 246.0 L 177.0 246.0 L 178.0 246.0 L 178.0 246.0 L 179.0 246.0 L 180.0 246.0 L 180.0 246.0 L 181.0 246.0 L 182.0 246.0 L 183.0 246.0 L 184.0 246.0 L 185.0 246.0 L 187.0 246.0 L 188.0 246.0 L 189.0 246.0 L 190.0 246.0 L 191.0 246.0 L 193.0 246.0 L 194.0 246.0 L 195.0 246.0 L 196.0 247.0 L 198.0 247.0 L 199.0 247.0 L 200.0 247.0 L 202.0 247.0 L 203.0 247.0 L 205.0 247.0 L 206.0 247.0 L 208.0 247.0 L 210.0 247.0 L 211.0 247.0 L 213.0 247.0 L 215.0 247.0 L 217.0 247.0 L 219.0 247.0 L 220.0 247.0 L 222.0 246.0 L 223.0 246.0 L 225.0 246.0 L 226.0 246.0 L 227.0 246.0 L 228.0 246.0 L 229.0 245.0 L 229.0 245.0 L 229.0 245.0 L 230.0 245.0 L 230.0 245.0 L 231.0 245.0 L 231.0 245.0 L 231.0 245.0 L 232.0 244.0 L 232.0 244.0 L 232.0 244.0 L 232.0 243.0 L 232.0 243.0 L 232.0 242.0 L 232.0 241.0 L 233.0 239.0 L 233.0 238.0 L 233.0 235.0 L 234.0 232.0 L 234.0 228.0 L 234.0 222.0 L 235.0 216.0 L 235.0 210.0 L 235.0 204.0 " stroke="black" fill="none" stroke-width="5.0" stroke-linecap="round" stroke-linejoin="round" />
</svg>