<svg xmlns="http://www.w3.org/2000/svg" width="300" height="300" viewBox="0 0 300 300">
<path d="M 65.0 118.0 L 64.0 118.0 L 63.0 118.0 L 62.0 118.0 L 61.0 118.0 L 61.0 118.0 L 61.0 118.0 L 61.0 118.0 L 62.0 118.0 L 64.0 117.0 L 68.0 117.0 L 73.0 116.0 L 79.0 115.0 L 86.0 114.0 L 95.0 113.0 L 102.0 112.0 L 108.0 111.0 L 112.0 110.0 L 115.0 110.0 L 115.0 111.0 " stroke="black" fill="none" stroke-width="5.0" stroke-linecap="round" stroke-linejoin="round" />
<path d="M 89.0 82.0 L 89.0 81.0 L 88.0 80.0 L 88.0 79.0 L 88.0 79.0 L 88.0 79.0 L 88.0 79.0 L 88.0 79.0 L 88.0 80.0 L 89.0 81.0 L 89.0 82.0 L 90.0 85.0 L 91.0 87.0 L 91.0 91.0 L 92.0 95.0 L 92.0 100.0 L 92.0 105.0 L 93.0 111.0 L 93.0 116.0 L 93.0 122.0 L 93.0 128.0 L 93.0 133.0 L 93.0 139.0 L 93.0 146.0 L 93.0 151.0 L 92.0 157.0 L 92.0 163.0 L 92.0 168.0 L 92.0 174.0 L 91.0 181.0 L 91.0 187.0 L 91.0 193.0 L 91.0 198.0 L 91.0 202.0 L 91.0 206.0 L 91.0 211.0 L 92.0 214.0 L 92.0 218.0 L 92.0 223.0 L 92.0 226.0 L 92.0 230.0 L 92.0 234.0 L 92.0 237.0 L 92.0 239.0 L 91.0 241.0 L 90.0 242.0 L 89.0 243.0 L 88.0 243.0 L 87.0 244.0 L 87.0 244.0 L 86.0 245.0 L 85.0 245.0 L 84.0 245.0 L 83.0 245.0 L 82.0 245.0 L 80.0 244.0 L 78.0 243.0 L 77.0 241.0 L 75.0 239.0 L 73.0 238.0 L 71.0 236.0 L 69.0 234.0 L 67.0 232.0 L 66.0 231.0 L 65.0 230.0 " stroke="black" fill="none" stroke-width="5.0" stroke-linecap="round" stroke-linejoin="round" />
<path d="M 62.0 195.0 L 62.0 195.0 L 61.0 194.0 L 61.0 194.0 L 60.0 193.0 L 60.0 192.0 L 61.0 190.0 L 64.0 188.0 L 69.0 186.0 L 76.0 182.0 L 87.0 177.0 L 98.0 172.0 L 107.0 167.0 L 116.0 162.0 L 119.0 161.0 " stroke="black" fill="none" stroke-width="5.0" stroke-linecap="round" stroke-linejoin="round" />
<path d="M 135.0 82.0 L 134.0 81.0 L 133.0 80.0 L 132.0 79.0 L 131.0 78.0 L 130.0 78.0 L 130.0 77.0 L 130.0 77.0 L 130.0 77.0 L 131.0 79.0 L 134.0 80.0 L 137.0 82.0 L 140.0 85.0 L 143.0 87.0 L 146.0 89.0 L 148.0 90.0 L 149.0 91.0 " stroke="black" fill="none" stroke-width="5.0" stroke-linecap="round" stroke-linejoin="round" />
<path d="M 158.0 73.0 L 158.0 73.0 L 158.0 72.0 L 158.0 71.0 L 158.0 71.0 L 158.0 71.0 L 158.0 70.0 L 158.0 70.0 L 158.0 71.0 L 158.0 72.0 L 158.0 74.0 L 158.0 77.0 L 158.0 80.0 L 158.0 84.0 L 158.0 88.0 L 158.0 93.0 L 158.0 100.0 L 158.0 107.0 L 157.0 113.0 L 156.0 121.0 L 155.0 129.0 L 153.0 137.0 L 152.0 148.0 L 150.0 157.0 L 148.0 167.0 L 145.0 178.0 L 142.0 188.0 L 137.0 198.0 L 132.0 207.0 L 126.0 213.0 L 121.0 218.0 L 116.0 223.0 L 113.0 225.0 L 111.0 226.0 " stroke="black" fill="none" stroke-width="5.0" stroke-linecap="round" stroke-linejoin="round" />
<path d="M 141.0 106.0 L 141.0 106.0 L 140.0 106.0 L 139.0 106.0 L 138.0 106.0 L 137.0 106.0 L 136.0 106.0 L 136.0 106.0 L 135.0 106.0 L 135.0 106.0 L 136.0 106.0 L 137.0 105.0 L 139.0 105.0 L 142.0 105.0 L 144.0 105.0 L 146.0 105.0 L 149.0 105.0 L 152.0 105.0 L 155.0 105.0 L 159.0 105.0 L 164.0 105.0 L 170.0 105.0 L 177.0 105.0 L 185.0 105.0 L 191.0 105.0 L 197.0 105.0 L 201.0 105.0 L 205.0 105.0 L 209.0 105.0 L 212.0 105.0 L 215.0 106.0 L 217.0 107.0 L 218.0 108.0 L 219.0 108.0 L 220.0 109.0 L 220.0 110.0 L 220.0 111.0 L 220.0 112.0 L 219.0 114.0 L 217.0 116.0 L 214.0 118.0 L 211.0 121.0 L 208.0 123.0 L 205.0 127.0 L 201.0 130.0 L 198.0 133.0 L 195.0 136.0 L 192.0 139.0 L 190.0 142.0 L 187.0 145.0 " stroke="black" fill="none" stroke-width="5.0" stroke-linecap="round" stroke-linejoin="round" />
<path d="M 160.0 143.0 L 158.0 143.0 L 156.0 143.0 L 154.0 143.0 L 153.0 143.0 L 153.0 142.0 L 153.0 142.0 L 153.0 142.0 L 153.0 142.0 L 155.0 142.0 L 157.0 141.0 L 160.0 141.0 L 164.0 141.0 L 169.0 140.0 L 175.0 140.0 L 181.0 139.0 L 188.0 139.0 L 194.0 139.0 L 201.0 139.0 L 207.0 139.0 L 213.0 139.0 L 219.0 139.0 L 224.0 139.0 L 228.0 140.0 L 231.0 141.0 L 232.0 142.0 L 234.0 143.0 L 235.0 144.0 L 235.0 145.0 L 235.0 145.0 L 235.0 146.0 L 235.0 146.0 L 235.0 146.0 L 235.0 147.0 L 233.0 148.0 L 232.0 150.0 L 230.0 152.0 L 227.0 154.0 L 224.0 156.0 L 220.0 159.0 L 216.0 161.0 L 212.0 164.0 L 207.0 167.0 L 203.0 170.0 L 198.0 172.0 " stroke="black" fill="none" stroke-width="5.0" stroke-linecap="round" stroke-linejoin="round" />
<path d="M 156.0 175.0 L 156.0 175.0 L 155.0 175.0 L 155.0 175.0 L 154.0 175.0 L 154.0 175.0 L 154.0 175.0 L 156.0 175.0 L 159.0 175.0 L 164.0 174.0 L 171.0 173.0 L 178.0 172.0 L 186.0 171.0 L 193.0 171.0 L 200.0 171.0 L 206.0 170.0 L 212.0 170.0 L 218.0 171.0 L 222.0 172.0 L 226.0 172.0 L 230.0 173.0 L 232.0 174.0 L 235.0 175.0 L 237.0 175.0 L 238.0 176.0 L 239.0 176.0 L 240.0 177.0 L 240.0 178.0 L 241.0 179.0 L 242.0 181.0 L 242.0 182.0 L 242.0 183.0 L 243.0 185.0 L 243.0 186.0 L 243.0 188.0 L 243.0 190.0 L 243.0 192.0 L 243.0 195.0 L 243.0 199.0 L 242.0 203.0 L 241.0 207.0 L 241.0 213.0 L 240.0 220.0 L 239.0 227.0 L 238.0 234.0 L 237.0 241.0 L 236.0 247.0 L 234.0 254.0 L 233.0 258.0 L 231.0 262.0 L 228.0 265.0 L 226.0 266.0 L 223.0 266.0 L 219.0 266.0 L 215.0 264.0 L 211.0 261.0 L 207.0 257.0 L 204.0 252.0 L 202.0 250.0 " stroke="black" fill="none" stroke-width="5.0" stroke-linecap="round" stroke-linejoin="round" />
<path d="M 144.0 202.0 L 143.0 202.0 L 142.0 202.0 L 141.0 202.0 L 141.0 202.0 L 140.0 204.0 L 140.0 207.0 L 141.0 210.0 L 141.0 215.0 L 142.0 220.0 L 143.0 226.0 L 144.0 231.0 L 145.0 236.0 L 146.0 239.0 L 146.0 241.0 L 147.0 241.0 " stroke="black" fill="none" stroke-width="5.0" stroke-linecap="round" stroke-linejoin="round" />
<path d="M 161.0 204.0 L 161.0 204.0 L 161.0 204.0 L 160.0 204.0 L 160.0 204.0 L 160.0 204.0 L 160.0 206.0 L 161.0 208.0 L 162.0 212.0 L 162.0 216.0 L 163.0 220.0 L 164.0 225.0 L 164.0 228.0 L 165.0 231.0 L 166.0 233.0 L 166.0 233.0 " stroke="black" fill="none" stroke-width="5.0" stroke-linecap="round" stroke-linejoin="round" />
<path d="M 184.0 198.0 L 184.0 198.0 L 184.0 198.0 L 184.0 198.0 L 184.0 198.0 L 185.0 198.0 L 186.0 198.0 L 188.0 200.0 L 189.0 202.0 L 191.0 205.0 L 192.0 209.0 L 193.0 213.0 L 194.0 219.0 L 195.0 226.0 L 195.0 231.0 L 195.0 235.0 L 195.0 236.0 " stroke="black" fill="none" stroke-width="5.0" stroke-linecap="round" stroke-linejoin="round" />
<path d="M 206.0 197.0 L 206.0 197.0 L 205.0 197.0 L 205.0 196.0 L 205.0 196.0 L 205.0 196.0 L 205.0 196.0 L 207.0 197.0 L 210.0 199.0 L 213.0 202.0 L 217.0 206.0 L 220.0 211.0 L 224.0 217.0 L 228.0 224.0 L 230.0 230.0 L 232.0 236.0 L 233.0 240.0 " stroke="black" fill="none" stroke-width="5.0" stroke-linecap="round" stroke-linejoin="round" />
</svg>