<svg xmlns="http://www.w3.org/2000/svg" width="300" height="300" viewBox="0 0 300 300">
<path d="M 72.0 114.0 L 72.0 114.0 L 71.0 114.0 L 71.0 114.0 L 71.0 114.0 L 70.0 114.0 " stroke="black" fill="none" stroke-width="5.0" stroke-linecap="round" stroke-linejoin="round" />
<path d="M 65.0 116.0 L 65.0 116.0 L 64.0 116.0 L 64.0 116.0 L 63.0 115.0 L 63.0 115.0 L 63.0 115.0 L 62.0 115.0 L 62.0 115.0 L 62.0 115.0 L 62.0 115.0 L 62.0 115.0 L 62.0 115.0 L 63.0 114.0 L 64.0 114.0 L 66.0 114.0 L 69.0 114.0 L 73.0 113.0 L 77.0 113.0 L 83.0 112.0 L 89.0 112.0 L 94.0 111.0 L 99.0 111.0 L 103.0 110.0 L 105.0 110.0 L 107.0 110.0 " stroke="black" fill="none" stroke-width="5.0" stroke-linecap="round" stroke-linejoin="round" />
<path d="M 86.0 76.0 L 86.0 76.0 L 85.0 76.0 L 85.0 76.0 L 84.0 76.0 L 84.0 76.0 L 83.0 76.0 L 83.0 76.0 L 83.0 76.0 L 83.0 76.0 L 83.0 77.0 L 83.0 77.0 L 83.0 78.0 L 83.0 79.0 L 83.0 80.0 L 83.0 81.0 L 83.0 83.0 L 83.0 84.0 L 83.0 86.0 L 83.0 89.0 L 84.0 91.0 L 84.0 94.0 L 84.0 97.0 L 84.0 101.0 L 84.0 104.0 L 84.0 108.0 L 84.0 110.0 L 84.0 113.0 L 84.0 116.0 L 84.0 118.0 L 84.0 121.0 L 84.0 124.0 L 84.0 127.0 L 84.0 129.0 L 84.0 132.0 L 84.0 135.0 L 84.0 138.0 L 84.0 142.0 L 84.0 145.0 L 84.0 148.0 L 84.0 152.0 L 83.0 155.0 L 83.0 158.0 L 83.0 161.0 L 82.0 164.0 L 82.0 167.0 L 82.0 170.0 L 82.0 173.0 L 82.0 176.0 L 82.0 179.0 L 82.0 182.0 L 82.0 186.0 L 82.0 190.0 L 82.0 193.0 L 82.0 197.0 L 83.0 201.0 L 83.0 204.0 L 83.0 207.0 L 83.0 211.0 L 82.0 214.0 L 82.0 217.0 L 82.0 220.0 L 82.0 223.0 L 82.0 225.0 L 82.0 228.0 L 82.0 231.0 L 82.0 233.0 L 82.0 236.0 L 82.0 238.0 L 82.0 240.0 L 82.0 242.0 L 82.0 243.0 L 82.0 245.0 L 82.0 246.0 L 81.0 246.0 L 81.0 247.0 L 80.0 247.0 L 79.0 247.0 L 78.0 247.0 L 77.0 247.0 L 76.0 247.0 L 75.0 246.0 L 74.0 246.0 L 72.0 245.0 L 71.0 243.0 L 69.0 242.0 L 67.0 240.0 L 65.0 239.0 L 64.0 237.0 L 62.0 235.0 L 62.0 234.0 " stroke="black" fill="none" stroke-width="5.0" stroke-linecap="round" stroke-linejoin="round" />
<path d="M 65.0 189.0 L 65.0 189.0 L 64.0 189.0 L 63.0 189.0 L 63.0 188.0 L 62.0 188.0 L 62.0 188.0 L 62.0 188.0 L 62.0 187.0 L 65.0 185.0 L 69.0 181.0 L 76.0 176.0 L 85.0 169.0 L 96.0 161.0 L 105.0 154.0 L 111.0 148.0 L 115.0 142.0 L 116.0 138.0 " stroke="black" fill="none" stroke-width="5.0" stroke-linecap="round" stroke-linejoin="round" />
<path d="M 118.0 79.0 L 118.0 79.0 L 118.0 79.0 L 118.0 79.0 L 118.0 79.0 L 117.0 79.0 L 117.0 79.0 L 117.0 79.0 L 118.0 80.0 L 119.0 81.0 L 121.0 83.0 L 123.0 85.0 L 126.0 87.0 L 130.0 89.0 L 135.0 91.0 " stroke="black" fill="none" stroke-width="5.0" stroke-linecap="round" stroke-linejoin="round" />
<path d="M 172.0 76.0 L 171.0 76.0 L 170.0 76.0 L 168.0 76.0 L 167.0 77.0 L 166.0 78.0 L 165.0 80.0 L 163.0 82.0 L 161.0 84.0 L 160.0 87.0 L 158.0 90.0 L 156.0 93.0 L 155.0 96.0 L 153.0 99.0 L 153.0 100.0 " stroke="black" fill="none" stroke-width="5.0" stroke-linecap="round" stroke-linejoin="round" />
<path d="M 113.0 107.0 L 113.0 107.0 L 112.0 107.0 L 112.0 106.0 L 111.0 106.0 L 111.0 106.0 L 111.0 106.0 L 111.0 105.0 L 113.0 105.0 L 116.0 105.0 L 119.0 104.0 L 125.0 104.0 L 131.0 104.0 L 137.0 103.0 L 145.0 102.0 L 151.0 102.0 L 156.0 101.0 L 162.0 101.0 L 166.0 100.0 L 169.0 100.0 " stroke="black" fill="none" stroke-width="5.0" stroke-linecap="round" stroke-linejoin="round" />
<path d="M 112.0 128.0 L 112.0 128.0 L 112.0 128.0 L 112.0 127.0 L 112.0 127.0 L 111.0 127.0 L 111.0 128.0 L 111.0 129.0 L 111.0 132.0 L 111.0 137.0 L 111.0 142.0 L 111.0 147.0 L 111.0 154.0 L 111.0 161.0 L 111.0 168.0 L 111.0 175.0 L 111.0 182.0 L 111.0 188.0 L 111.0 192.0 L 111.0 194.0 L 111.0 195.0 " stroke="black" fill="none" stroke-width="5.0" stroke-linecap="round" stroke-linejoin="round" />
<path d="M 115.0 128.0 L 115.0 128.0 L 115.0 128.0 L 114.0 127.0 L 114.0 127.0 L 113.0 127.0 L 113.0 127.0 L 113.0 126.0 L 112.0 126.0 L 112.0 126.0 L 112.0 126.0 L 112.0 126.0 L 112.0 126.0 L 113.0 126.0 L 114.0 126.0 L 115.0 125.0 L 116.0 125.0 L 118.0 125.0 L 120.0 125.0 L 123.0 125.0 L 126.0 125.0 L 129.0 124.0 L 133.0 124.0 L 137.0 123.0 L 141.0 123.0 L 145.0 122.0 L 148.0 122.0 L 150.0 121.0 L 153.0 121.0 L 154.0 121.0 L 155.0 121.0 L 157.0 121.0 L 158.0 121.0 L 159.0 121.0 L 161.0 121.0 L 162.0 121.0 L 163.0 122.0 L 164.0 122.0 L 165.0 123.0 L 166.0 123.0 L 167.0 124.0 L 168.0 125.0 L 168.0 126.0 L 169.0 128.0 L 169.0 129.0 L 169.0 132.0 L 170.0 134.0 L 170.0 138.0 L 170.0 142.0 L 170.0 147.0 L 169.0 153.0 L 169.0 159.0 L 168.0 165.0 L 168.0 170.0 L 167.0 175.0 L 167.0 179.0 L 166.0 182.0 L 166.0 183.0 L 166.0 185.0 L 166.0 185.0 L 166.0 185.0 L 165.0 184.0 L 164.0 182.0 L 162.0 179.0 " stroke="black" fill="none" stroke-width="5.0" stroke-linecap="round" stroke-linejoin="round" />
<path d="M 139.0 112.0 L 138.0 112.0 L 137.0 112.0 L 137.0 113.0 L 136.0 113.0 L 135.0 115.0 L 135.0 118.0 L 134.0 121.0 L 133.0 127.0 L 131.0 133.0 L 129.0 140.0 L 127.0 147.0 L 126.0 152.0 L 126.0 156.0 L 126.0 158.0 L 126.0 158.0 " stroke="black" fill="none" stroke-width="5.0" stroke-linecap="round" stroke-linejoin="round" />
<path d="M 153.0 112.0 L 153.0 112.0 L 153.0 112.0 L 153.0 113.0 L 153.0 113.0 L 153.0 114.0 L 153.0 116.0 L 153.0 118.0 L 153.0 120.0 L 153.0 123.0 L 153.0 127.0 L 152.0 130.0 L 152.0 133.0 L 152.0 135.0 L 152.0 138.0 L 153.0 140.0 L 154.0 141.0 L 155.0 142.0 L 157.0 143.0 L 159.0 143.0 L 162.0 144.0 L 164.0 144.0 L 167.0 144.0 L 169.0 144.0 L 171.0 144.0 L 171.0 144.0 " stroke="black" fill="none" stroke-width="5.0" stroke-linecap="round" stroke-linejoin="round" />
<path d="M 135.0 163.0 L 135.0 163.0 L 134.0 163.0 L 133.0 163.0 L 132.0 163.0 L 132.0 163.0 L 132.0 163.0 L 132.0 163.0 L 133.0 162.0 L 135.0 162.0 L 138.0 162.0 L 142.0 161.0 L 145.0 161.0 L 149.0 161.0 L 152.0 161.0 L 155.0 161.0 L 158.0 161.0 L 160.0 163.0 L 162.0 164.0 L 162.0 166.0 L 162.0 167.0 " stroke="black" fill="none" stroke-width="5.0" stroke-linecap="round" stroke-linejoin="round" />
<path d="M 115.0 192.0 L 114.0 192.0 L 112.0 192.0 L 111.0 192.0 L 110.0 192.0 L 109.0 193.0 L 109.0 193.0 L 109.0 194.0 L 110.0 194.0 L 112.0 194.0 L 116.0 194.0 L 122.0 194.0 L 128.0 193.0 L 136.0 192.0 L 143.0 191.0 L 149.0 190.0 L 155.0 189.0 L 158.0 189.0 L 161.0 189.0 L 163.0 191.0 " stroke="black" fill="none" stroke-width="5.0" stroke-linecap="round" stroke-linejoin="round" />
<path d="M 108.0 218.0 L 108.0 218.0 L 106.0 218.0 L 105.0 218.0 L 105.0 218.0 L 105.0 218.0 L 105.0 218.0 L 105.0 218.0 L 108.0 218.0 L 112.0 218.0 L 117.0 217.0 L 124.0 216.0 L 132.0 215.0 L 140.0 214.0 L 147.0 213.0 L 153.0 212.0 L 157.0 211.0 L 161.0 211.0 L 164.0 211.0 L 166.0 211.0 L 168.0 211.0 L 169.0 211.0 " stroke="black" fill="none" stroke-width="5.0" stroke-linecap="round" stroke-linejoin="round" />
<path d="M 146.0 202.0 L 145.0 202.0 L 143.0 203.0 L 142.0 204.0 L 142.0 205.0 L 141.0 206.0 L 141.0 208.0 L 140.0 211.0 L 140.0 214.0 L 139.0 218.0 L 137.0 222.0 L 134.0 228.0 L 130.0 233.0 L 125.0 238.0 L 121.0 243.0 L 117.0 246.0 L 115.0 248.0 L 114.0 249.0 " stroke="black" fill="none" stroke-width="5.0" stroke-linecap="round" stroke-linejoin="round" />
<path d="M 150.0 229.0 L 149.0 229.0 L 147.0 229.0 L 147.0 229.0 L 146.0 229.0 L 146.0 229.0 L 146.0 229.0 L 146.0 230.0 L 147.0 231.0 L 149.0 232.0 L 152.0 233.0 L 155.0 235.0 L 158.0 237.0 L 162.0 238.0 L 166.0 240.0 L 170.0 242.0 L 174.0 244.0 L 178.0 245.0 " stroke="black" fill="none" stroke-width="5.0" stroke-linecap="round" stroke-linejoin="round" />
<path d="M 205.0 84.0 L 204.0 84.0 L 202.0 84.0 L 200.0 84.0 L 199.0 84.0 L 198.0 84.0 L 198.0 84.0 L 197.0 84.0 L 197.0 84.0 L 197.0 84.0 L 199.0 84.0 L 201.0 85.0 L 204.0 85.0 L 208.0 85.0 L 212.0 86.0 L 218.0 86.0 L 222.0 87.0 L 227.0 87.0 L 232.0 88.0 L 235.0 89.0 L 237.0 90.0 L 239.0 91.0 L 240.0 93.0 L 240.0 95.0 L 240.0 97.0 L 239.0 99.0 L 237.0 102.0 L 235.0 105.0 L 234.0 107.0 L 232.0 110.0 L 229.0 113.0 L 227.0 116.0 L 224.0 119.0 L 221.0 121.0 L 218.0 124.0 L 216.0 126.0 L 214.0 127.0 L 214.0 129.0 L 213.0 130.0 L 213.0 131.0 L 213.0 131.0 L 214.0 132.0 L 215.0 132.0 L 216.0 133.0 L 218.0 133.0 L 219.0 134.0 L 220.0 134.0 L 221.0 135.0 L 222.0 136.0 L 223.0 137.0 L 225.0 139.0 L 226.0 140.0 L 227.0 142.0 L 228.0 144.0 L 229.0 147.0 L 230.0 150.0 L 231.0 153.0 L 232.0 157.0 L 233.0 161.0 L 234.0 166.0 L 234.0 172.0 L 234.0 179.0 L 234.0 186.0 L 234.0 194.0 L 234.0 200.0 L 234.0 205.0 L 234.0 210.0 L 234.0 214.0 L 233.0 217.0 L 232.0 219.0 L 231.0 221.0 L 230.0 222.0 L 228.0 223.0 L 227.0 223.0 L 225.0 223.0 L 222.0 221.0 L 219.0 219.0 L 215.0 216.0 L 214.0 214.0 " stroke="black" fill="none" stroke-width="5.0" stroke-linecap="round" stroke-linejoin="round" />
<path d="M 194.0 96.0 L 194.0 96.0 L 194.0 95.0 L 194.0 95.0 L 194.0 94.0 L 194.0 94.0 L 194.0 94.0 L 195.0 95.0 L 196.0 98.0 L 197.0 103.0 L 198.0 109.0 L 198.0 116.0 L 199.0 125.0 L 200.0 139.0 L 200.0 153.0 L 200.0 167.0 L 200.0 183.0 L 199.0 196.0 L 198.0 208.0 L 198.0 219.0 L 198.0 229.0 L 198.0 238.0 L 198.0 246.0 L 198.0 252.0 L 199.0 256.0 L 199.0 260.0 L 200.0 263.0 L 200.0 265.0 L 200.0 265.0 L 199.0 266.0 L 199.0 265.0 " stroke="black" fill="none" stroke-width="5.0" stroke-linecap="round" stroke-linejoin="round" />
</svg>