<svg xmlns="http://www.w3.org/2000/svg" width="300" height="300" viewBox="0 0 300 300">
<path d="M 64.0 118.0 L 64.0 118.0 L 64.0 118.0 L 64.0 118.0 L 64.0 118.0 L 64.0 118.0 L 63.0 118.0 L 63.0 118.0 L 63.0 118.0 L 63.0 118.0 L 63.0 118.0 L 64.0 118.0 L 65.0 118.0 L 67.0 118.0 L 69.0 118.0 L 73.0 118.0 L 79.0 118.0 L 86.0 117.0 L 93.0 116.0 L 100.0 115.0 L 104.0 114.0 L 108.0 114.0 L 110.0 114.0 L 110.0 116.0 L 111.0 116.0 " stroke="black" fill="none" stroke-width="5.0" stroke-linecap="round" stroke-linejoin="round" />
<path d="M 89.0 77.0 L 89.0 77.0 L 89.0 77.0 L 89.0 77.0 L 89.0 77.0 L 89.0 77.0 L 90.0 77.0 L 90.0 77.0 L 90.0 77.0 L 90.0 77.0 L 90.0 77.0 L 90.0 78.0 L 90.0 79.0 L 90.0 80.0 L 90.0 82.0 L 90.0 84.0 L 90.0 87.0 L 90.0 90.0 L 90.0 93.0 L 89.0 96.0 L 89.0 100.0 L 89.0 103.0 L 88.0 106.0 L 88.0 110.0 L 88.0 112.0 L 88.0 115.0 L 88.0 117.0 L 88.0 119.0 L 88.0 121.0 L 88.0 123.0 L 88.0 125.0 L 88.0 127.0 L 89.0 129.0 L 89.0 131.0 L 89.0 132.0 L 90.0 135.0 L 90.0 137.0 L 90.0 139.0 L 90.0 141.0 L 90.0 143.0 L 90.0 145.0 L 90.0 147.0 L 90.0 149.0 L 91.0 151.0 L 91.0 153.0 L 91.0 155.0 L 91.0 156.0 L 91.0 158.0 L 91.0 160.0 L 91.0 161.0 L 91.0 163.0 L 91.0 165.0 L 91.0 166.0 L 91.0 168.0 L 91.0 170.0 L 91.0 171.0 L 91.0 173.0 L 91.0 175.0 L 91.0 176.0 L 91.0 178.0 L 91.0 180.0 L 91.0 182.0 L 91.0 185.0 L 91.0 187.0 L 91.0 189.0 L 91.0 191.0 L 91.0 193.0 L 91.0 195.0 L 91.0 197.0 L 91.0 198.0 L 91.0 200.0 L 91.0 202.0 L 91.0 203.0 L 91.0 205.0 L 91.0 206.0 L 91.0 208.0 L 91.0 209.0 L 91.0 211.0 L 91.0 212.0 L 91.0 213.0 L 91.0 214.0 L 91.0 216.0 L 91.0 217.0 L 91.0 218.0 L 91.0 220.0 L 91.0 221.0 L 91.0 223.0 L 91.0 224.0 L 91.0 226.0 L 91.0 227.0 L 91.0 229.0 L 91.0 230.0 L 91.0 232.0 L 91.0 233.0 L 91.0 234.0 L 91.0 235.0 L 91.0 237.0 L 91.0 238.0 L 90.0 239.0 L 90.0 240.0 L 90.0 241.0 L 90.0 242.0 L 89.0 243.0 L 89.0 244.0 L 89.0 245.0 L 89.0 246.0 L 88.0 247.0 L 88.0 247.0 L 88.0 248.0 L 87.0 249.0 L 87.0 249.0 L 87.0 250.0 L 87.0 250.0 L 87.0 250.0 L 86.0 250.0 L 86.0 251.0 L 86.0 251.0 L 85.0 251.0 L 85.0 251.0 L 85.0 251.0 L 85.0 251.0 L 84.0 251.0 L 84.0 251.0 L 84.0 252.0 L 83.0 252.0 L 83.0 252.0 L 83.0 252.0 L 82.0 252.0 L 82.0 252.0 L 81.0 252.0 L 80.0 252.0 L 78.0 251.0 L 77.0 251.0 L 75.0 250.0 L 73.0 249.0 L 71.0 248.0 " stroke="black" fill="none" stroke-width="5.0" stroke-linecap="round" stroke-linejoin="round" />
<path d="M 61.0 186.0 L 61.0 186.0 L 61.0 186.0 L 61.0 185.0 L 61.0 184.0 L 62.0 183.0 L 63.0 181.0 L 65.0 178.0 L 69.0 174.0 L 75.0 169.0 L 82.0 163.0 L 90.0 157.0 L 96.0 152.0 L 101.0 147.0 L 105.0 142.0 L 106.0 140.0 " stroke="black" fill="none" stroke-width="5.0" stroke-linecap="round" stroke-linejoin="round" />
<path d="M 130.0 81.0 L 130.0 81.0 L 130.0 81.0 L 130.0 81.0 L 129.0 81.0 L 129.0 81.0 L 128.0 81.0 L 128.0 81.0 L 128.0 81.0 L 128.0 82.0 L 128.0 82.0 L 128.0 82.0 L 128.0 82.0 L 128.0 82.0 L 129.0 82.0 L 130.0 82.0 L 131.0 82.0 L 132.0 83.0 L 134.0 83.0 L 135.0 83.0 L 137.0 83.0 L 139.0 83.0 L 141.0 83.0 L 143.0 83.0 L 144.0 83.0 L 146.0 83.0 L 147.0 83.0 L 148.0 83.0 L 150.0 82.0 L 151.0 82.0 L 152.0 82.0 L 153.0 82.0 L 154.0 82.0 L 154.0 82.0 L 155.0 82.0 L 156.0 82.0 L 157.0 82.0 L 157.0 82.0 L 158.0 82.0 L 159.0 82.0 L 160.0 82.0 L 160.0 82.0 L 161.0 81.0 L 162.0 81.0 L 163.0 81.0 L 163.0 81.0 L 164.0 81.0 L 165.0 81.0 L 166.0 81.0 L 167.0 81.0 L 168.0 81.0 L 169.0 81.0 L 170.0 81.0 L 171.0 81.0 L 172.0 81.0 L 172.0 81.0 L 173.0 81.0 L 174.0 81.0 L 175.0 81.0 L 175.0 81.0 L 176.0 82.0 L 177.0 82.0 L 177.0 82.0 L 178.0 82.0 L 179.0 82.0 L 180.0 82.0 L 181.0 82.0 L 182.0 82.0 L 183.0 82.0 L 184.0 82.0 L 185.0 82.0 L 186.0 82.0 L 187.0 82.0 L 187.0 82.0 L 188.0 82.0 L 189.0 82.0 L 189.0 82.0 L 190.0 82.0 L 190.0 82.0 L 191.0 82.0 L 192.0 82.0 L 192.0 82.0 L 193.0 82.0 L 193.0 82.0 L 194.0 82.0 L 194.0 82.0 L 195.0 82.0 L 195.0 82.0 L 196.0 82.0 L 196.0 82.0 L 197.0 82.0 L 197.0 82.0 L 198.0 82.0 L 198.0 82.0 L 199.0 82.0 L 200.0 82.0 L 200.0 82.0 L 201.0 82.0 L 202.0 82.0 L 202.0 82.0 L 203.0 82.0 L 204.0 83.0 L 204.0 83.0 L 205.0 83.0 L 206.0 83.0 L 206.0 83.0 L 207.0 83.0 L 208.0 83.0 L 209.0 83.0 L 210.0 83.0 L 211.0 83.0 L 212.0 83.0 L 213.0 83.0 L 214.0 83.0 L 215.0 83.0 L 216.0 83.0 L 218.0 83.0 L 219.0 83.0 L 220.0 83.0 L 222.0 83.0 L 223.0 83.0 L 224.0 83.0 L 225.0 83.0 L 226.0 83.0 L 227.0 83.0 L 229.0 83.0 L 230.0 82.0 L 230.0 82.0 L 231.0 82.0 L 232.0 82.0 L 233.0 81.0 L 233.0 81.0 L 233.0 81.0 " stroke="black" fill="none" stroke-width="5.0" stroke-linecap="round" stroke-linejoin="round" />
<path d="M 150.0 85.0 L 150.0 85.0 L 150.0 85.0 L 150.0 85.0 L 150.0 85.0 L 150.0 85.0 L 150.0 86.0 L 150.0 87.0 L 150.0 89.0 L 150.0 92.0 L 150.0 95.0 L 149.0 100.0 L 149.0 105.0 L 149.0 110.0 L 149.0 115.0 L 149.0 120.0 L 149.0 124.0 L 149.0 128.0 L 149.0 131.0 L 149.0 133.0 L 149.0 134.0 L 149.0 135.0 L 150.0 135.0 L 150.0 135.0 " stroke="black" fill="none" stroke-width="5.0" stroke-linecap="round" stroke-linejoin="round" />
<path d="M 212.0 87.0 L 212.0 87.0 L 212.0 87.0 L 212.0 87.0 L 212.0 87.0 L 212.0 87.0 L 212.0 87.0 L 212.0 87.0 L 212.0 88.0 L 212.0 89.0 L 212.0 91.0 L 211.0 94.0 L 211.0 98.0 L 211.0 102.0 L 211.0 105.0 L 210.0 109.0 L 210.0 114.0 L 209.0 117.0 L 209.0 121.0 L 209.0 124.0 L 209.0 127.0 L 209.0 130.0 L 209.0 133.0 L 209.0 135.0 L 209.0 137.0 L 209.0 140.0 L 209.0 142.0 L 209.0 144.0 L 208.0 145.0 L 208.0 147.0 L 208.0 148.0 L 208.0 150.0 L 208.0 151.0 L 208.0 152.0 L 208.0 153.0 L 208.0 154.0 L 208.0 155.0 L 208.0 155.0 L 208.0 156.0 L 208.0 157.0 L 208.0 157.0 L 208.0 157.0 L 208.0 158.0 L 208.0 158.0 L 208.0 158.0 L 208.0 158.0 L 208.0 158.0 " stroke="black" fill="none" stroke-width="5.0" stroke-linecap="round" stroke-linejoin="round" />
<path d="M 154.0 105.0 L 154.0 105.0 L 154.0 105.0 L 153.0 105.0 L 153.0 105.0 L 153.0 105.0 L 153.0 105.0 L 153.0 105.0 L 154.0 105.0 L 155.0 105.0 L 158.0 105.0 L 160.0 105.0 L 164.0 105.0 L 169.0 105.0 L 175.0 105.0 L 181.0 105.0 L 186.0 105.0 L 191.0 105.0 L 196.0 105.0 L 199.0 105.0 L 202.0 105.0 L 205.0 105.0 L 206.0 105.0 L 207.0 105.0 L 208.0 105.0 L 208.0 105.0 " stroke="black" fill="none" stroke-width="5.0" stroke-linecap="round" stroke-linejoin="round" />
<path d="M 157.0 121.0 L 157.0 121.0 L 156.0 121.0 L 156.0 121.0 L 156.0 121.0 L 155.0 121.0 L 155.0 121.0 L 155.0 121.0 L 156.0 121.0 L 157.0 121.0 L 159.0 121.0 L 162.0 121.0 L 167.0 121.0 L 172.0 121.0 L 178.0 122.0 L 185.0 122.0 L 191.0 122.0 L 196.0 122.0 L 200.0 122.0 L 204.0 122.0 L 205.0 121.0 L 206.0 121.0 " stroke="black" fill="none" stroke-width="5.0" stroke-linecap="round" stroke-linejoin="round" />
<path d="M 128.0 143.0 L 128.0 143.0 L 128.0 143.0 L 127.0 143.0 L 127.0 143.0 L 126.0 143.0 L 126.0 143.0 L 126.0 143.0 L 125.0 143.0 L 125.0 143.0 L 125.0 143.0 L 125.0 143.0 L 125.0 143.0 L 126.0 143.0 L 126.0 143.0 L 127.0 143.0 L 128.0 143.0 L 130.0 143.0 L 131.0 143.0 L 132.0 143.0 L 134.0 143.0 L 135.0 143.0 L 137.0 143.0 L 139.0 143.0 L 140.0 143.0 L 142.0 143.0 L 144.0 143.0 L 145.0 143.0 L 147.0 143.0 L 148.0 143.0 L 149.0 143.0 L 150.0 143.0 L 151.0 143.0 L 152.0 143.0 L 153.0 143.0 L 154.0 143.0 L 155.0 143.0 L 157.0 143.0 L 158.0 143.0 L 159.0 143.0 L 160.0 143.0 L 161.0 143.0 L 162.0 143.0 L 164.0 143.0 L 165.0 143.0 L 166.0 143.0 L 168.0 143.0 L 169.0 143.0 L 170.0 143.0 L 172.0 143.0 L 173.0 143.0 L 175.0 143.0 L 176.0 143.0 L 178.0 143.0 L 179.0 143.0 L 180.0 143.0 L 181.0 143.0 L 182.0 143.0 L 183.0 143.0 L 184.0 143.0 L 184.0 143.0 L 185.0 143.0 L 186.0 143.0 L 186.0 143.0 L 187.0 143.0 L 188.0 143.0 L 188.0 143.0 L 189.0 143.0 L 190.0 142.0 L 190.0 142.0 L 191.0 142.0 L 191.0 142.0 L 192.0 142.0 L 192.0 142.0 L 193.0 142.0 L 193.0 142.0 L 194.0 142.0 L 194.0 142.0 L 194.0 142.0 L 195.0 142.0 L 195.0 142.0 L 196.0 142.0 L 196.0 142.0 L 197.0 142.0 L 198.0 142.0 L 198.0 142.0 L 199.0 142.0 L 199.0 142.0 L 200.0 143.0 L 201.0 143.0 L 201.0 143.0 L 202.0 143.0 L 203.0 143.0 L 203.0 143.0 L 204.0 143.0 L 205.0 143.0 L 206.0 143.0 L 207.0 143.0 L 208.0 143.0 L 209.0 143.0 L 210.0 143.0 L 211.0 143.0 L 213.0 143.0 L 215.0 143.0 L 216.0 143.0 L 218.0 143.0 L 220.0 143.0 L 221.0 143.0 L 223.0 143.0 L 224.0 143.0 L 226.0 143.0 L 227.0 143.0 L 228.0 143.0 L 229.0 143.0 L 230.0 143.0 L 232.0 143.0 L 233.0 143.0 L 234.0 143.0 L 234.0 144.0 L 235.0 144.0 L 236.0 144.0 L 236.0 144.0 L 237.0 144.0 L 238.0 144.0 L 238.0 144.0 L 239.0 144.0 L 239.0 144.0 L 239.0 144.0 L 239.0 144.0 L 240.0 144.0 L 240.0 144.0 " stroke="black" fill="none" stroke-width="5.0" stroke-linecap="round" stroke-linejoin="round" />
<path d="M 115.0 168.0 L 115.0 168.0 L 115.0 168.0 L 114.0 168.0 L 114.0 168.0 L 114.0 168.0 L 114.0 168.0 L 114.0 168.0 L 114.0 168.0 L 114.0 169.0 L 115.0 169.0 L 116.0 169.0 L 118.0 170.0 L 120.0 170.0 L 123.0 170.0 L 126.0 170.0 L 129.0 170.0 L 132.0 170.0 L 136.0 170.0 L 139.0 170.0 L 142.0 170.0 L 145.0 170.0 L 147.0 170.0 L 149.0 170.0 L 151.0 170.0 L 153.0 170.0 L 154.0 170.0 L 156.0 170.0 L 157.0 170.0 L 159.0 170.0 L 161.0 170.0 L 163.0 170.0 L 164.0 170.0 L 166.0 170.0 L 167.0 170.0 L 168.0 170.0 L 168.0 170.0 " stroke="black" fill="none" stroke-width="5.0" stroke-linecap="round" stroke-linejoin="round" />
<path d="M 129.0 173.0 L 129.0 173.0 L 129.0 173.0 L 129.0 173.0 L 128.0 173.0 L 128.0 173.0 L 128.0 173.0 L 128.0 173.0 L 128.0 173.0 L 128.0 174.0 L 128.0 175.0 L 128.0 177.0 L 128.0 179.0 L 128.0 181.0 L 128.0 184.0 L 128.0 188.0 L 128.0 192.0 L 128.0 196.0 L 128.0 201.0 L 128.0 205.0 L 128.0 209.0 L 128.0 214.0 L 128.0 218.0 L 128.0 222.0 L 128.0 225.0 L 128.0 228.0 L 128.0 229.0 L 128.0 229.0 L 128.0 229.0 " stroke="black" fill="none" stroke-width="5.0" stroke-linecap="round" stroke-linejoin="round" />
<path d="M 163.0 174.0 L 163.0 174.0 L 163.0 174.0 L 162.0 174.0 L 162.0 174.0 L 162.0 174.0 L 162.0 174.0 L 162.0 174.0 L 162.0 176.0 L 162.0 177.0 L 162.0 180.0 L 162.0 184.0 L 162.0 188.0 L 162.0 193.0 L 161.0 200.0 L 161.0 206.0 L 160.0 213.0 L 160.0 221.0 L 159.0 228.0 L 159.0 234.0 L 159.0 239.0 L 159.0 242.0 L 159.0 244.0 L 159.0 245.0 L 159.0 245.0 L 160.0 245.0 L 160.0 244.0 L 160.0 244.0 L 159.0 244.0 L 159.0 244.0 " stroke="black" fill="none" stroke-width="5.0" stroke-linecap="round" stroke-linejoin="round" />
<path d="M 136.0 193.0 L 136.0 193.0 L 135.0 193.0 L 134.0 193.0 L 133.0 192.0 L 132.0 192.0 L 132.0 192.0 L 132.0 192.0 L 132.0 191.0 L 132.0 191.0 L 134.0 191.0 L 137.0 191.0 L 139.0 191.0 L 143.0 191.0 L 146.0 191.0 L 149.0 191.0 L 152.0 191.0 " stroke="black" fill="none" stroke-width="5.0" stroke-linecap="round" stroke-linejoin="round" />
<path d="M 134.0 212.0 L 134.0 212.0 L 133.0 212.0 L 131.0 212.0 L 130.0 212.0 L 130.0 213.0 L 130.0 213.0 L 130.0 213.0 L 130.0 213.0 L 132.0 213.0 L 134.0 213.0 L 137.0 213.0 L 141.0 213.0 L 145.0 212.0 L 148.0 212.0 L 151.0 211.0 L 155.0 211.0 L 157.0 211.0 " stroke="black" fill="none" stroke-width="5.0" stroke-linecap="round" stroke-linejoin="round" />
<path d="M 113.0 240.0 L 113.0 240.0 L 112.0 240.0 L 112.0 240.0 L 112.0 240.0 L 112.0 241.0 L 112.0 241.0 L 112.0 241.0 L 113.0 241.0 L 114.0 241.0 L 117.0 240.0 L 121.0 239.0 L 126.0 239.0 L 132.0 238.0 L 138.0 238.0 L 143.0 237.0 L 149.0 237.0 L 155.0 236.0 L 157.0 235.0 " stroke="black" fill="none" stroke-width="5.0" stroke-linecap="round" stroke-linejoin="round" />
<path d="M 188.0 166.0 L 188.0 166.0 L 188.0 166.0 L 188.0 166.0 L 188.0 166.0 L 187.0 165.0 L 187.0 165.0 L 187.0 165.0 L 187.0 165.0 L 188.0 165.0 L 189.0 165.0 L 192.0 166.0 L 195.0 166.0 L 200.0 166.0 L 206.0 166.0 L 214.0 166.0 L 223.0 165.0 L 230.0 165.0 L 235.0 165.0 L 240.0 165.0 L 242.0 165.0 L 244.0 166.0 L 246.0 167.0 L 246.0 168.0 " stroke="black" fill="none" stroke-width="5.0" stroke-linecap="round" stroke-linejoin="round" />
<path d="M 196.0 170.0 L 196.0 170.0 L 196.0 170.0 L 196.0 171.0 L 196.0 171.0 L 195.0 172.0 L 195.0 173.0 L 195.0 175.0 L 195.0 177.0 L 195.0 180.0 L 195.0 184.0 L 195.0 189.0 L 195.0 196.0 L 195.0 202.0 L 196.0 209.0 L 196.0 216.0 L 197.0 222.0 L 197.0 227.0 L 198.0 231.0 L 198.0 232.0 " stroke="black" fill="none" stroke-width="5.0" stroke-linecap="round" stroke-linejoin="round" />
<path d="M 234.0 172.0 L 234.0 172.0 L 234.0 172.0 L 234.0 172.0 L 233.0 171.0 L 233.0 171.0 L 233.0 171.0 L 232.0 172.0 L 232.0 174.0 L 232.0 177.0 L 232.0 181.0 L 232.0 186.0 L 232.0 193.0 L 232.0 199.0 L 232.0 206.0 L 232.0 214.0 L 232.0 222.0 L 232.0 230.0 L 232.0 239.0 L 231.0 245.0 L 231.0 251.0 L 230.0 255.0 L 230.0 258.0 L 230.0 259.0 L 230.0 259.0 L 230.0 258.0 " stroke="black" fill="none" stroke-width="5.0" stroke-linecap="round" stroke-linejoin="round" />
<path d="M 199.0 190.0 L 199.0 190.0 L 199.0 190.0 L 198.0 190.0 L 197.0 190.0 L 197.0 190.0 L 196.0 190.0 L 196.0 190.0 L 196.0 190.0 L 196.0 190.0 L 198.0 190.0 L 202.0 190.0 L 207.0 190.0 L 212.0 190.0 L 218.0 190.0 L 223.0 190.0 L 229.0 190.0 L 231.0 190.0 " stroke="black" fill="none" stroke-width="5.0" stroke-linecap="round" stroke-linejoin="round" />
<path d="M 202.0 205.0 L 202.0 205.0 L 201.0 206.0 L 200.0 206.0 L 199.0 206.0 L 199.0 206.0 L 199.0 206.0 L 199.0 206.0 L 201.0 206.0 L 204.0 206.0 L 208.0 206.0 L 213.0 206.0 L 218.0 206.0 L 224.0 206.0 L 229.0 206.0 L 231.0 206.0 " stroke="black" fill="none" stroke-width="5.0" stroke-linecap="round" stroke-linejoin="round" />
<path d="M 181.0 233.0 L 180.0 233.0 L 179.0 233.0 L 178.0 233.0 L 177.0 233.0 L 177.0 233.0 L 177.0 233.0 L 177.0 233.0 L 178.0 233.0 L 179.0 233.0 L 182.0 233.0 L 185.0 233.0 L 188.0 233.0 L 192.0 234.0 L 196.0 234.0 L 201.0 234.0 L 208.0 235.0 L 215.0 236.0 L 223.0 236.0 L 231.0 236.0 L 236.0 236.0 L 240.0 236.0 L 243.0 236.0 L 245.0 235.0 L 246.0 235.0 L 247.0 235.0 L 247.0 235.0 L 247.0 235.0 " stroke="black" fill="none" stroke-width="5.0" stroke-linecap="round" stroke-linejoin="round" />
</svg>