<svg xmlns="http://www.w3.org/2000/svg" width="300" height="300" viewBox="0 0 300 300">
<path d="M 67.0 110.0 L 67.0 110.0 L 67.0 110.0 L 66.0 110.0 L 66.0 110.0 L 66.0 110.0 L 66.0 110.0 L 66.0 110.0 L 65.0 110.0 L 65.0 110.0 L 65.0 110.0 L 65.0 110.0 L 65.0 110.0 L 65.0 110.0 L 65.0 110.0 L 66.0 110.0 L 66.0 110.0 L 66.0 110.0 L 67.0 110.0 L 68.0 110.0 L 68.0 110.0 L 69.0 110.0 L 70.0 110.0 L 71.0 110.0 L 71.0 110.0 L 72.0 110.0 L 73.0 110.0 L 73.0 110.0 L 74.0 110.0 L 74.0 110.0 L 75.0 110.0 L 76.0 110.0 L 76.0 110.0 L 77.0 110.0 L 78.0 110.0 L 78.0 110.0 L 79.0 110.0 L 79.0 110.0 L 80.0 110.0 L 80.0 110.0 L 81.0 110.0 L 82.0 110.0 L 82.0 110.0 L 83.0 110.0 L 83.0 110.0 L 84.0 110.0 L 85.0 110.0 L 86.0 110.0 L 87.0 110.0 L 88.0 110.0 L 89.0 110.0 L 90.0 110.0 L 91.0 110.0 L 91.0 110.0 L 92.0 110.0 L 93.0 110.0 L 94.0 110.0 L 95.0 109.0 L 96.0 109.0 L 97.0 109.0 L 97.0 109.0 L 98.0 109.0 L 99.0 109.0 L 100.0 109.0 L 101.0 109.0 L 101.0 109.0 L 102.0 109.0 L 103.0 109.0 L 103.0 109.0 L 104.0 109.0 L 104.0 109.0 L 105.0 109.0 L 105.0 109.0 L 105.0 109.0 L 106.0 109.0 L 106.0 109.0 L 107.0 109.0 L 107.0 109.0 L 107.0 109.0 L 108.0 108.0 L 108.0 108.0 L 109.0 108.0 L 109.0 108.0 L 110.0 108.0 L 110.0 108.0 L 111.0 108.0 L 112.0 108.0 L 112.0 108.0 L 113.0 108.0 L 113.0 108.0 L 114.0 108.0 L 114.0 108.0 L 115.0 108.0 L 116.0 108.0 L 116.0 108.0 L 117.0 108.0 L 118.0 108.0 L 118.0 108.0 L 119.0 108.0 L 119.0 108.0 L 120.0 108.0 L 120.0 108.0 L 121.0 108.0 L 121.0 108.0 L 122.0 108.0 L 123.0 108.0 L 123.0 108.0 L 124.0 108.0 L 124.0 108.0 L 125.0 108.0 L 125.0 108.0 L 126.0 108.0 L 126.0 108.0 L 127.0 108.0 L 127.0 108.0 L 128.0 108.0 L 129.0 108.0 L 129.0 108.0 L 130.0 108.0 L 131.0 108.0 L 131.0 108.0 L 132.0 108.0 L 133.0 108.0 L 134.0 108.0 L 135.0 108.0 L 135.0 108.0 L 136.0 108.0 L 137.0 108.0 L 138.0 108.0 L 139.0 108.0 L 140.0 108.0 L 141.0 108.0 L 142.0 108.0 L 143.0 108.0 L 144.0 108.0 L 145.0 108.0 L 146.0 108.0 L 147.0 108.0 L 148.0 108.0 L 149.0 108.0 L 149.0 108.0 L 150.0 108.0 " stroke="black" fill="none" stroke-width="5.0" stroke-linecap="round" stroke-linejoin="round" />
<path d="M 107.0 72.0 L 107.0 72.0 L 107.0 72.0 L 107.0 72.0 L 107.0 71.0 L 107.0 71.0 L 107.0 71.0 L 107.0 71.0 L 107.0 71.0 L 107.0 71.0 L 107.0 71.0 L 107.0 71.0 L 107.0 71.0 L 107.0 72.0 L 107.0 73.0 L 107.0 75.0 L 107.0 77.0 L 107.0 79.0 L 107.0 81.0 L 107.0 83.0 L 107.0 86.0 L 107.0 88.0 L 107.0 91.0 L 107.0 94.0 L 108.0 96.0 L 108.0 100.0 L 108.0 103.0 L 108.0 106.0 L 108.0 109.0 L 108.0 112.0 L 108.0 115.0 L 108.0 117.0 L 108.0 119.0 L 108.0 121.0 L 108.0 123.0 L 108.0 125.0 L 108.0 126.0 L 108.0 128.0 L 108.0 130.0 L 108.0 132.0 L 108.0 134.0 L 108.0 137.0 L 108.0 139.0 L 108.0 142.0 L 108.0 144.0 L 108.0 146.0 L 108.0 149.0 L 108.0 152.0 L 108.0 154.0 L 108.0 156.0 L 108.0 159.0 L 108.0 161.0 L 108.0 163.0 L 108.0 165.0 L 108.0 167.0 L 108.0 168.0 L 108.0 170.0 L 108.0 172.0 L 108.0 174.0 L 108.0 176.0 L 108.0 178.0 L 108.0 181.0 L 108.0 184.0 L 108.0 186.0 L 107.0 188.0 L 107.0 191.0 L 107.0 193.0 L 107.0 195.0 L 106.0 196.0 L 106.0 198.0 L 106.0 199.0 L 106.0 201.0 L 106.0 203.0 L 106.0 204.0 L 105.0 206.0 L 105.0 207.0 L 105.0 209.0 L 105.0 211.0 L 105.0 212.0 L 105.0 213.0 L 105.0 215.0 L 105.0 216.0 L 105.0 218.0 L 105.0 219.0 L 105.0 221.0 L 105.0 222.0 L 105.0 224.0 L 105.0 225.0 L 105.0 227.0 L 105.0 228.0 L 105.0 230.0 L 105.0 231.0 L 105.0 232.0 L 105.0 233.0 L 104.0 234.0 L 104.0 236.0 L 104.0 237.0 L 104.0 237.0 L 104.0 239.0 L 104.0 239.0 L 104.0 240.0 L 103.0 241.0 L 103.0 242.0 L 103.0 243.0 L 103.0 244.0 L 103.0 245.0 L 103.0 245.0 L 103.0 246.0 L 102.0 247.0 L 102.0 247.0 L 102.0 248.0 L 102.0 248.0 L 102.0 249.0 L 101.0 249.0 L 101.0 249.0 L 101.0 249.0 L 101.0 249.0 L 100.0 249.0 L 100.0 249.0 L 99.0 249.0 L 98.0 249.0 L 98.0 249.0 L 97.0 249.0 L 96.0 249.0 L 94.0 248.0 L 93.0 247.0 L 91.0 246.0 L 89.0 245.0 L 87.0 244.0 L 85.0 242.0 L 82.0 240.0 L 80.0 237.0 " stroke="black" fill="none" stroke-width="5.0" stroke-linecap="round" stroke-linejoin="round" />
<path d="M 70.0 147.0 L 70.0 147.0 L 70.0 147.0 L 70.0 146.0 L 69.0 146.0 L 69.0 146.0 L 69.0 146.0 L 69.0 146.0 L 70.0 146.0 L 71.0 146.0 L 72.0 148.0 L 74.0 149.0 L 76.0 151.0 L 78.0 154.0 L 80.0 157.0 L 83.0 160.0 L 85.0 163.0 L 88.0 166.0 L 90.0 169.0 L 91.0 170.0 " stroke="black" fill="none" stroke-width="5.0" stroke-linecap="round" stroke-linejoin="round" />
<path d="M 67.0 213.0 L 67.0 213.0 L 67.0 213.0 L 66.0 213.0 L 65.0 213.0 L 64.0 213.0 L 64.0 213.0 L 64.0 213.0 L 64.0 213.0 L 64.0 212.0 L 65.0 211.0 L 67.0 209.0 L 68.0 208.0 L 71.0 206.0 L 74.0 204.0 L 78.0 202.0 L 83.0 198.0 L 90.0 195.0 L 96.0 190.0 L 103.0 184.0 " stroke="black" fill="none" stroke-width="5.0" stroke-linecap="round" stroke-linejoin="round" />
<path d="M 142.0 133.0 L 142.0 133.0 L 142.0 133.0 L 142.0 133.0 L 142.0 133.0 L 142.0 133.0 L 141.0 133.0 L 141.0 134.0 L 141.0 134.0 L 140.0 135.0 L 139.0 136.0 L 138.0 137.0 L 137.0 139.0 L 134.0 142.0 L 131.0 145.0 L 128.0 148.0 L 124.0 152.0 L 120.0 155.0 L 117.0 158.0 L 115.0 161.0 L 113.0 163.0 " stroke="black" fill="none" stroke-width="5.0" stroke-linecap="round" stroke-linejoin="round" />
<path d="M 113.0 176.0 L 113.0 176.0 L 113.0 176.0 L 113.0 176.0 L 113.0 176.0 L 113.0 176.0 L 114.0 176.0 L 114.0 176.0 L 114.0 176.0 L 114.0 176.0 L 115.0 176.0 L 116.0 176.0 L 117.0 177.0 L 119.0 178.0 L 123.0 180.0 L 127.0 184.0 L 133.0 188.0 L 138.0 193.0 L 143.0 196.0 L 147.0 199.0 L 150.0 201.0 L 151.0 201.0 L 152.0 201.0 L 152.0 201.0 " stroke="black" fill="none" stroke-width="5.0" stroke-linecap="round" stroke-linejoin="round" />
<path d="M 132.0 72.0 L 131.0 72.0 L 130.0 71.0 L 129.0 71.0 L 128.0 71.0 L 128.0 71.0 L 128.0 71.0 L 130.0 71.0 L 132.0 73.0 L 135.0 75.0 L 138.0 78.0 L 141.0 81.0 L 144.0 84.0 L 147.0 86.0 L 150.0 89.0 L 152.0 91.0 L 154.0 93.0 L 155.0 93.0 " stroke="black" fill="none" stroke-width="5.0" stroke-linecap="round" stroke-linejoin="round" />
<path d="M 185.0 73.0 L 185.0 73.0 L 185.0 73.0 L 185.0 72.0 L 185.0 72.0 L 185.0 72.0 L 185.0 72.0 L 185.0 72.0 L 185.0 72.0 L 185.0 72.0 L 185.0 72.0 L 185.0 73.0 L 185.0 75.0 L 185.0 77.0 L 185.0 79.0 L 185.0 82.0 L 185.0 85.0 L 184.0 89.0 L 183.0 94.0 L 182.0 99.0 L 181.0 105.0 L 179.0 110.0 L 177.0 116.0 L 175.0 121.0 L 173.0 127.0 L 170.0 132.0 L 168.0 138.0 L 166.0 143.0 L 164.0 148.0 L 163.0 152.0 L 161.0 155.0 L 160.0 156.0 L 159.0 157.0 L 159.0 157.0 " stroke="black" fill="none" stroke-width="5.0" stroke-linecap="round" stroke-linejoin="round" />
<path d="M 187.0 115.0 L 187.0 115.0 L 186.0 115.0 L 185.0 115.0 L 185.0 115.0 L 184.0 115.0 L 184.0 115.0 L 184.0 115.0 L 184.0 116.0 L 184.0 116.0 L 184.0 116.0 L 184.0 116.0 L 184.0 116.0 L 185.0 116.0 L 186.0 116.0 L 187.0 116.0 L 189.0 116.0 L 190.0 116.0 L 192.0 116.0 L 194.0 116.0 L 196.0 116.0 L 199.0 116.0 L 202.0 116.0 L 206.0 116.0 L 211.0 116.0 L 216.0 116.0 L 221.0 116.0 L 225.0 116.0 L 230.0 116.0 L 233.0 116.0 L 236.0 116.0 L 239.0 115.0 L 240.0 115.0 L 241.0 114.0 L 241.0 114.0 L 242.0 114.0 L 242.0 114.0 L 242.0 114.0 " stroke="black" fill="none" stroke-width="5.0" stroke-linecap="round" stroke-linejoin="round" />
<path d="M 219.0 122.0 L 219.0 122.0 L 219.0 122.0 L 219.0 122.0 L 219.0 122.0 L 219.0 122.0 L 219.0 122.0 L 219.0 122.0 L 219.0 122.0 L 219.0 122.0 L 219.0 122.0 L 219.0 122.0 L 219.0 122.0 L 219.0 122.0 L 219.0 122.0 L 219.0 122.0 L 219.0 122.0 L 219.0 123.0 L 219.0 123.0 L 219.0 124.0 L 219.0 126.0 L 219.0 127.0 L 219.0 129.0 L 219.0 131.0 L 219.0 133.0 L 219.0 136.0 L 219.0 138.0 L 219.0 140.0 L 219.0 143.0 L 218.0 145.0 L 218.0 147.0 L 218.0 148.0 L 217.0 150.0 L 217.0 152.0 L 216.0 154.0 L 216.0 155.0 L 216.0 156.0 L 215.0 158.0 L 215.0 159.0 L 214.0 160.0 L 214.0 161.0 L 214.0 163.0 L 213.0 164.0 L 212.0 165.0 L 212.0 167.0 L 211.0 168.0 L 211.0 169.0 L 210.0 171.0 L 210.0 172.0 L 210.0 173.0 L 209.0 174.0 L 209.0 176.0 L 208.0 177.0 L 208.0 178.0 L 207.0 180.0 L 206.0 181.0 L 206.0 183.0 L 205.0 184.0 L 204.0 186.0 L 204.0 188.0 L 204.0 189.0 L 203.0 190.0 L 203.0 191.0 L 202.0 192.0 L 202.0 193.0 L 201.0 194.0 L 201.0 195.0 L 200.0 195.0 L 200.0 196.0 L 199.0 198.0 L 199.0 199.0 L 198.0 200.0 L 198.0 201.0 L 197.0 202.0 L 197.0 203.0 L 196.0 204.0 L 196.0 204.0 L 196.0 205.0 L 195.0 206.0 L 195.0 206.0 L 194.0 207.0 L 194.0 208.0 L 193.0 209.0 L 193.0 210.0 L 193.0 211.0 L 192.0 212.0 L 192.0 212.0 L 191.0 213.0 L 191.0 214.0 L 190.0 215.0 L 190.0 215.0 L 189.0 216.0 L 189.0 218.0 L 188.0 219.0 L 187.0 221.0 L 185.0 222.0 L 184.0 224.0 L 183.0 226.0 L 182.0 228.0 L 181.0 229.0 L 180.0 230.0 L 178.0 231.0 L 177.0 232.0 L 176.0 233.0 L 175.0 234.0 L 173.0 235.0 L 171.0 237.0 L 170.0 238.0 L 168.0 239.0 L 167.0 240.0 L 166.0 240.0 L 164.0 241.0 L 163.0 242.0 L 161.0 242.0 L 160.0 243.0 " stroke="black" fill="none" stroke-width="5.0" stroke-linecap="round" stroke-linejoin="round" />
<path d="M 178.0 126.0 L 178.0 126.0 L 178.0 126.0 L 177.0 126.0 L 177.0 127.0 L 177.0 127.0 L 176.0 127.0 L 176.0 128.0 L 176.0 128.0 L 176.0 129.0 L 176.0 130.0 L 176.0 132.0 L 177.0 134.0 L 177.0 136.0 L 178.0 138.0 L 179.0 141.0 L 179.0 144.0 L 180.0 146.0 L 180.0 149.0 L 180.0 151.0 L 181.0 154.0 L 181.0 156.0 L 182.0 158.0 L 182.0 160.0 L 183.0 162.0 L 183.0 164.0 L 184.0 165.0 L 184.0 167.0 L 184.0 169.0 L 185.0 170.0 L 185.0 171.0 L 186.0 173.0 L 186.0 174.0 L 186.0 175.0 L 187.0 176.0 L 187.0 177.0 L 187.0 179.0 L 187.0 180.0 L 187.0 182.0 L 188.0 184.0 L 188.0 185.0 L 188.0 187.0 L 188.0 188.0 L 189.0 189.0 L 189.0 191.0 L 189.0 192.0 L 190.0 193.0 L 190.0 195.0 L 191.0 196.0 L 191.0 198.0 L 192.0 199.0 L 192.0 201.0 L 193.0 202.0 L 193.0 203.0 L 194.0 204.0 L 194.0 206.0 L 195.0 206.0 L 196.0 207.0 L 196.0 208.0 L 197.0 209.0 L 197.0 211.0 L 198.0 212.0 L 198.0 213.0 L 199.0 214.0 L 200.0 215.0 L 201.0 216.0 L 202.0 217.0 L 203.0 218.0 L 205.0 219.0 L 206.0 220.0 L 208.0 222.0 L 209.0 223.0 L 211.0 224.0 L 213.0 225.0 L 214.0 227.0 L 216.0 228.0 L 218.0 229.0 L 220.0 230.0 L 221.0 231.0 L 223.0 232.0 L 224.0 233.0 L 225.0 234.0 L 227.0 235.0 L 228.0 236.0 L 229.0 237.0 L 230.0 237.0 L 231.0 238.0 L 232.0 239.0 L 233.0 239.0 L 233.0 240.0 L 234.0 240.0 L 235.0 241.0 L 236.0 241.0 L 236.0 241.0 L 237.0 241.0 L 237.0 241.0 L 237.0 241.0 L 237.0 241.0 L 237.0 239.0 L 237.0 238.0 " stroke="black" fill="none" stroke-width="5.0" stroke-linecap="round" stroke-linejoin="round" />
</svg>