<svg xmlns="http://www.w3.org/2000/svg" width="300" height="300" viewBox="0 0 300 300">
<path d="M 64.0 120.0 L 64.0 120.0 L 64.0 120.0 L 64.0 120.0 L 63.0 120.0 L 63.0 120.0 L 63.0 120.0 L 63.0 120.0 L 62.0 120.0 L 62.0 120.0 L 62.0 120.0 L 62.0 120.0 L 62.0 120.0 L 62.0 120.0 L 63.0 120.0 L 64.0 120.0 L 65.0 120.0 L 66.0 120.0 L 67.0 119.0 L 69.0 119.0 L 70.0 118.0 L 72.0 118.0 L 73.0 118.0 L 75.0 118.0 L 76.0 118.0 L 77.0 118.0 L 79.0 118.0 L 80.0 118.0 L 82.0 118.0 L 84.0 118.0 L 86.0 118.0 L 89.0 117.0 L 91.0 117.0 L 93.0 117.0 L 95.0 116.0 L 97.0 116.0 L 99.0 116.0 L 101.0 116.0 L 102.0 116.0 L 104.0 115.0 L 106.0 115.0 L 107.0 114.0 L 109.0 114.0 L 110.0 114.0 L 112.0 113.0 L 113.0 113.0 L 115.0 112.0 L 116.0 112.0 L 118.0 112.0 L 119.0 112.0 L 120.0 112.0 L 121.0 112.0 L 122.0 112.0 L 123.0 112.0 L 124.0 112.0 L 125.0 112.0 L 126.0 113.0 L 126.0 113.0 L 126.0 113.0 L 126.0 113.0 L 126.0 113.0 L 126.0 114.0 L 126.0 114.0 L 126.0 115.0 L 126.0 116.0 L 126.0 117.0 L 125.0 118.0 L 125.0 119.0 L 124.0 120.0 L 124.0 122.0 L 123.0 123.0 L 123.0 125.0 L 123.0 126.0 L 122.0 128.0 L 122.0 130.0 L 121.0 132.0 L 121.0 135.0 L 120.0 137.0 L 120.0 140.0 L 120.0 142.0 L 120.0 144.0 L 119.0 146.0 L 119.0 148.0 L 119.0 149.0 L 119.0 150.0 L 119.0 152.0 L 120.0 152.0 L 120.0 153.0 L 120.0 154.0 L 120.0 155.0 L 120.0 156.0 L 120.0 158.0 L 120.0 159.0 L 120.0 161.0 L 120.0 163.0 L 120.0 164.0 L 120.0 166.0 L 120.0 167.0 L 120.0 168.0 L 120.0 170.0 L 120.0 171.0 L 120.0 172.0 L 120.0 174.0 L 119.0 175.0 L 119.0 177.0 L 119.0 179.0 L 118.0 181.0 L 118.0 184.0 L 117.0 186.0 L 117.0 189.0 L 117.0 191.0 L 117.0 193.0 L 116.0 195.0 L 116.0 196.0 L 116.0 198.0 L 116.0 199.0 L 116.0 201.0 L 116.0 202.0 L 116.0 204.0 L 116.0 205.0 L 116.0 207.0 L 116.0 208.0 L 116.0 210.0 L 116.0 211.0 L 116.0 213.0 L 116.0 215.0 L 116.0 217.0 L 116.0 218.0 L 116.0 220.0 L 116.0 222.0 L 116.0 224.0 L 117.0 226.0 L 117.0 227.0 L 117.0 229.0 L 117.0 231.0 L 117.0 232.0 L 117.0 234.0 L 118.0 235.0 L 118.0 236.0 L 118.0 236.0 L 118.0 237.0 L 119.0 237.0 L 119.0 238.0 L 119.0 238.0 L 120.0 238.0 L 120.0 238.0 L 121.0 239.0 L 121.0 239.0 L 122.0 239.0 L 123.0 240.0 L 124.0 240.0 L 125.0 241.0 L 126.0 241.0 L 127.0 241.0 L 128.0 242.0 L 130.0 242.0 L 131.0 243.0 L 133.0 243.0 L 134.0 243.0 L 136.0 244.0 L 137.0 244.0 L 139.0 244.0 L 141.0 245.0 L 142.0 245.0 L 144.0 245.0 L 146.0 245.0 L 147.0 246.0 L 149.0 246.0 L 150.0 246.0 L 152.0 246.0 L 153.0 246.0 L 155.0 246.0 L 156.0 246.0 L 158.0 246.0 L 159.0 246.0 L 161.0 246.0 L 163.0 246.0 L 165.0 246.0 L 166.0 246.0 L 168.0 246.0 L 170.0 247.0 L 172.0 247.0 L 174.0 247.0 L 175.0 247.0 L 177.0 247.0 L 179.0 248.0 L 180.0 248.0 L 182.0 248.0 L 184.0 248.0 L 186.0 248.0 L 187.0 248.0 L 189.0 248.0 L 190.0 248.0 L 192.0 248.0 L 193.0 248.0 L 193.0 248.0 L 194.0 248.0 L 195.0 248.0 L 195.0 249.0 L 195.0 249.0 L 196.0 249.0 L 196.0 249.0 L 197.0 249.0 L 197.0 250.0 L 198.0 250.0 L 198.0 250.0 L 199.0 250.0 L 200.0 250.0 L 201.0 250.0 L 201.0 250.0 L 202.0 250.0 L 203.0 250.0 L 204.0 250.0 L 205.0 250.0 L 205.0 249.0 L 206.0 249.0 L 207.0 249.0 L 208.0 249.0 L 209.0 249.0 L 210.0 249.0 L 211.0 248.0 L 212.0 248.0 L 213.0 248.0 L 214.0 247.0 L 215.0 247.0 L 216.0 247.0 L 217.0 247.0 L 218.0 247.0 L 219.0 247.0 L 220.0 247.0 L 221.0 247.0 L 222.0 247.0 L 224.0 247.0 L 225.0 247.0 L 226.0 246.0 L 227.0 246.0 L 228.0 246.0 L 229.0 246.0 L 229.0 246.0 L 229.0 245.0 L 230.0 245.0 L 230.0 245.0 L 230.0 244.0 L 230.0 243.0 L 229.0 242.0 L 229.0 240.0 L 229.0 238.0 L 228.0 235.0 L 228.0 232.0 L 227.0 229.0 L 227.0 226.0 L 226.0 225.0 " stroke="black" fill="none" stroke-width="5.0" stroke-linecap="round" stroke-linejoin="round" />
<path d="M 87.0 77.0 L 87.0 77.0 L 87.0 77.0 L 87.0 77.0 L 86.0 77.0 L 86.0 78.0 L 86.0 78.0 L 86.0 80.0 L 86.0 81.0 L 87.0 84.0 L 87.0 87.0 L 87.0 91.0 L 87.0 96.0 L 88.0 100.0 L 88.0 106.0 L 88.0 111.0 L 88.0 115.0 L 88.0 120.0 L 88.0 124.0 L 88.0 128.0 L 88.0 132.0 L 87.0 136.0 L 87.0 141.0 L 86.0 146.0 L 86.0 151.0 L 85.0 156.0 L 84.0 161.0 L 84.0 165.0 L 83.0 170.0 L 82.0 174.0 L 82.0 179.0 L 81.0 184.0 L 80.0 190.0 L 79.0 195.0 L 78.0 200.0 L 76.0 206.0 L 74.0 210.0 L 72.0 215.0 L 69.0 220.0 L 67.0 226.0 L 65.0 231.0 L 63.0 236.0 L 62.0 240.0 L 60.0 243.0 L 58.0 246.0 L 57.0 247.0 L 56.0 248.0 L 56.0 248.0 " stroke="black" fill="none" stroke-width="5.0" stroke-linecap="round" stroke-linejoin="round" />
<path d="M 157.0 98.0 L 157.0 98.0 L 157.0 98.0 L 156.0 98.0 L 156.0 98.0 L 156.0 98.0 L 156.0 98.0 L 156.0 98.0 L 156.0 99.0 L 156.0 100.0 L 157.0 102.0 L 158.0 105.0 L 159.0 110.0 L 160.0 116.0 L 160.0 123.0 L 161.0 132.0 L 161.0 143.0 L 161.0 154.0 L 160.0 165.0 L 159.0 176.0 L 158.0 185.0 L 158.0 193.0 L 157.0 199.0 L 157.0 203.0 L 157.0 205.0 L 157.0 205.0 " stroke="black" fill="none" stroke-width="5.0" stroke-linecap="round" stroke-linejoin="round" />
<path d="M 164.0 91.0 L 164.0 91.0 L 164.0 91.0 L 163.0 91.0 L 162.0 91.0 L 162.0 91.0 L 162.0 91.0 L 161.0 91.0 L 161.0 91.0 L 161.0 91.0 L 161.0 91.0 L 161.0 91.0 L 161.0 91.0 L 161.0 91.0 L 162.0 91.0 L 164.0 90.0 L 166.0 90.0 L 169.0 90.0 L 173.0 89.0 L 176.0 89.0 L 180.0 89.0 L 184.0 88.0 L 188.0 88.0 L 192.0 88.0 L 196.0 88.0 L 199.0 88.0 L 203.0 88.0 L 206.0 89.0 L 210.0 89.0 L 214.0 90.0 L 218.0 90.0 L 221.0 91.0 L 223.0 91.0 L 225.0 93.0 L 226.0 94.0 L 227.0 96.0 L 227.0 99.0 L 227.0 102.0 L 227.0 104.0 L 227.0 107.0 L 227.0 109.0 L 227.0 113.0 L 226.0 116.0 L 226.0 120.0 L 226.0 125.0 L 225.0 131.0 L 224.0 139.0 L 223.0 148.0 L 222.0 158.0 L 222.0 168.0 L 221.0 177.0 L 221.0 184.0 L 222.0 189.0 L 223.0 193.0 L 224.0 195.0 L 225.0 196.0 L 225.0 196.0 L 225.0 196.0 L 225.0 194.0 L 223.0 192.0 " stroke="black" fill="none" stroke-width="5.0" stroke-linecap="round" stroke-linejoin="round" />
<path d="M 170.0 149.0 L 169.0 149.0 L 167.0 149.0 L 166.0 149.0 L 166.0 149.0 L 166.0 148.0 L 167.0 148.0 L 169.0 147.0 L 172.0 147.0 L 176.0 146.0 L 181.0 146.0 L 186.0 145.0 L 191.0 144.0 L 197.0 144.0 L 202.0 143.0 L 206.0 143.0 L 211.0 143.0 L 214.0 144.0 L 217.0 145.0 L 218.0 146.0 " stroke="black" fill="none" stroke-width="5.0" stroke-linecap="round" stroke-linejoin="round" />
<path d="M 164.0 204.0 L 163.0 204.0 L 162.0 204.0 L 161.0 204.0 L 161.0 204.0 L 160.0 204.0 L 161.0 203.0 L 163.0 203.0 L 167.0 203.0 L 173.0 202.0 L 179.0 202.0 L 185.0 201.0 L 192.0 200.0 L 198.0 199.0 L 203.0 198.0 L 208.0 197.0 L 213.0 197.0 L 216.0 197.0 L 220.0 197.0 L 222.0 198.0 " stroke="black" fill="none" stroke-width="5.0" stroke-linecap="round" stroke-linejoin="round" />
</svg>