<svg xmlns="http://www.w3.org/2000/svg" width="300" height="300" viewBox="0 0 300 300">
<path d="M 152.0 78.0 L 152.0 78.0 L 152.0 78.0 L 152.0 78.0 L 152.0 77.0 L 152.0 77.0 L 152.0 77.0 L 152.0 76.0 L 152.0 76.0 L 152.0 75.0 L 151.0 75.0 L 151.0 75.0 L 151.0 75.0 L 151.0 75.0 L 151.0 75.0 L 151.0 76.0 L 151.0 77.0 L 152.0 80.0 L 153.0 82.0 L 154.0 85.0 L 155.0 89.0 L 156.0 92.0 L 157.0 95.0 L 157.0 97.0 " stroke="black" fill="none" stroke-width="5.0" stroke-linecap="round" stroke-linejoin="round" />
<path d="M 89.0 112.0 L 89.0 112.0 L 91.0 112.0 L 92.0 111.0 L 92.0 111.0 L 93.0 111.0 L 93.0 111.0 L 94.0 111.0 L 96.0 111.0 L 98.0 111.0 L 101.0 111.0 L 105.0 111.0 L 109.0 111.0 L 114.0 111.0 L 121.0 111.0 L 129.0 110.0 L 139.0 109.0 L 149.0 107.0 L 157.0 106.0 L 163.0 105.0 L 171.0 105.0 L 180.0 105.0 L 189.0 105.0 L 198.0 104.0 L 204.0 104.0 L 210.0 104.0 L 218.0 104.0 L 225.0 104.0 L 231.0 105.0 L 237.0 105.0 L 240.0 106.0 L 242.0 106.0 L 244.0 106.0 L 244.0 107.0 L 244.0 107.0 " stroke="black" fill="none" stroke-width="5.0" stroke-linecap="round" stroke-linejoin="round" />
<path d="M 146.0 155.0 L 146.0 155.0 L 146.0 155.0 L 146.0 155.0 L 146.0 155.0 " stroke="black" fill="none" stroke-width="5.0" stroke-linecap="round" stroke-linejoin="round" />
<path d="M 140.0 157.0 L 140.0 157.0 L 140.0 157.0 L 139.0 157.0 L 139.0 157.0 L 138.0 157.0 L 138.0 157.0 L 137.0 158.0 L 137.0 158.0 L 136.0 158.0 L 136.0 158.0 L 135.0 158.0 L 135.0 158.0 L 135.0 158.0 L 135.0 158.0 L 134.0 158.0 L 134.0 158.0 L 134.0 158.0 L 134.0 158.0 L 134.0 158.0 L 134.0 158.0 L 134.0 158.0 L 135.0 158.0 L 136.0 158.0 L 138.0 158.0 L 139.0 158.0 L 141.0 158.0 L 143.0 158.0 L 145.0 158.0 L 146.0 157.0 L 148.0 157.0 L 150.0 157.0 L 151.0 157.0 L 153.0 157.0 L 154.0 156.0 L 155.0 156.0 L 156.0 156.0 L 158.0 156.0 L 159.0 156.0 L 160.0 156.0 L 161.0 156.0 L 162.0 156.0 L 163.0 157.0 L 164.0 157.0 L 165.0 157.0 L 166.0 157.0 L 167.0 157.0 L 168.0 157.0 L 169.0 157.0 L 170.0 157.0 L 171.0 157.0 L 173.0 157.0 L 174.0 157.0 L 176.0 157.0 L 178.0 157.0 L 179.0 157.0 L 181.0 157.0 L 183.0 157.0 L 185.0 157.0 L 186.0 157.0 L 188.0 157.0 L 189.0 157.0 L 190.0 157.0 L 192.0 157.0 L 193.0 157.0 L 194.0 157.0 L 195.0 157.0 L 196.0 157.0 L 197.0 157.0 L 198.0 157.0 L 198.0 157.0 L 199.0 157.0 L 200.0 157.0 L 200.0 157.0 L 201.0 157.0 L 201.0 157.0 L 202.0 157.0 L 203.0 157.0 L 203.0 158.0 L 204.0 158.0 L 204.0 158.0 L 205.0 158.0 L 206.0 158.0 L 206.0 158.0 L 207.0 158.0 L 207.0 158.0 L 208.0 158.0 L 209.0 158.0 L 209.0 158.0 L 210.0 159.0 L 211.0 159.0 L 211.0 159.0 L 212.0 159.0 L 212.0 159.0 L 213.0 159.0 L 214.0 159.0 L 214.0 159.0 L 215.0 159.0 L 215.0 159.0 L 215.0 159.0 L 216.0 159.0 L 216.0 160.0 L 216.0 160.0 L 216.0 160.0 L 216.0 160.0 L 216.0 161.0 L 216.0 162.0 L 216.0 163.0 L 216.0 164.0 L 215.0 165.0 L 215.0 166.0 L 214.0 168.0 L 214.0 170.0 L 213.0 172.0 L 212.0 174.0 L 212.0 176.0 L 211.0 178.0 L 210.0 181.0 L 210.0 184.0 L 209.0 187.0 L 209.0 189.0 L 208.0 192.0 L 207.0 194.0 L 207.0 197.0 L 206.0 199.0 L 206.0 201.0 L 205.0 203.0 L 205.0 205.0 L 204.0 206.0 L 204.0 208.0 L 203.0 210.0 L 203.0 211.0 L 203.0 213.0 L 202.0 214.0 L 202.0 215.0 L 202.0 217.0 L 201.0 218.0 L 201.0 220.0 L 201.0 222.0 L 200.0 224.0 L 200.0 226.0 L 200.0 228.0 L 199.0 230.0 L 199.0 232.0 L 199.0 233.0 L 199.0 234.0 L 199.0 235.0 L 199.0 236.0 L 198.0 236.0 L 198.0 237.0 L 198.0 238.0 L 198.0 239.0 L 197.0 240.0 L 197.0 240.0 L 197.0 241.0 L 197.0 242.0 L 196.0 242.0 L 196.0 242.0 L 196.0 243.0 L 196.0 243.0 L 196.0 243.0 L 196.0 243.0 L 195.0 244.0 L 195.0 244.0 L 195.0 244.0 L 195.0 244.0 L 194.0 245.0 L 194.0 245.0 L 194.0 245.0 L 194.0 245.0 L 193.0 245.0 L 193.0 245.0 L 193.0 246.0 L 193.0 246.0 L 192.0 246.0 L 192.0 246.0 L 191.0 246.0 L 191.0 246.0 L 190.0 246.0 L 190.0 246.0 L 189.0 246.0 L 188.0 246.0 L 187.0 246.0 L 185.0 246.0 L 184.0 246.0 L 182.0 247.0 L 180.0 247.0 L 178.0 247.0 L 176.0 247.0 L 174.0 247.0 L 172.0 247.0 L 170.0 247.0 L 168.0 247.0 L 166.0 247.0 L 164.0 247.0 L 162.0 247.0 L 160.0 247.0 L 158.0 247.0 L 157.0 247.0 L 156.0 247.0 L 155.0 247.0 L 154.0 247.0 L 154.0 247.0 L 154.0 247.0 L 154.0 247.0 L 154.0 247.0 L 154.0 247.0 L 154.0 247.0 L 154.0 247.0 L 154.0 247.0 L 154.0 247.0 L 154.0 247.0 L 154.0 247.0 L 154.0 247.0 " stroke="black" fill="none" stroke-width="5.0" stroke-linecap="round" stroke-linejoin="round" />
<path d="M 139.0 115.0 L 139.0 115.0 L 139.0 115.0 L 139.0 114.0 L 139.0 114.0 L 139.0 114.0 L 139.0 114.0 L 139.0 114.0 L 139.0 114.0 L 139.0 114.0 L 139.0 115.0 L 138.0 116.0 L 137.0 119.0 L 135.0 122.0 L 134.0 126.0 L 132.0 132.0 L 129.0 141.0 L 127.0 150.0 L 124.0 159.0 L 121.0 169.0 L 119.0 177.0 L 116.0 186.0 L 114.0 195.0 L 111.0 201.0 L 109.0 207.0 L 106.0 214.0 L 103.0 220.0 L 99.0 226.0 L 93.0 232.0 L 88.0 237.0 L 82.0 241.0 L 76.0 245.0 L 72.0 249.0 L 69.0 252.0 L 67.0 255.0 L 66.0 257.0 L 65.0 258.0 " stroke="black" fill="none" stroke-width="5.0" stroke-linecap="round" stroke-linejoin="round" />
</svg>