<svg xmlns="http://www.w3.org/2000/svg" width="300" height="300" viewBox="0 0 300 300">
<path d="M 92.0 71.0 L 91.0 70.0 L 90.0 69.0 L 89.0 69.0 L 89.0 68.0 L 89.0 68.0 L 89.0 68.0 L 89.0 68.0 L 90.0 69.0 L 91.0 71.0 L 93.0 74.0 L 95.0 77.0 L 96.0 80.0 L 98.0 83.0 L 100.0 86.0 L 102.0 90.0 L 103.0 94.0 L 104.0 97.0 " stroke="black" fill="none" stroke-width="5.0" stroke-linecap="round" stroke-linejoin="round" />
<path d="M 64.0 112.0 L 64.0 112.0 L 63.0 112.0 L 62.0 112.0 L 62.0 112.0 L 62.0 112.0 L 62.0 112.0 L 62.0 112.0 L 63.0 112.0 L 66.0 112.0 L 69.0 112.0 L 75.0 112.0 L 82.0 111.0 L 89.0 111.0 L 98.0 110.0 L 105.0 109.0 L 110.0 109.0 L 115.0 109.0 L 119.0 109.0 " stroke="black" fill="none" stroke-width="5.0" stroke-linecap="round" stroke-linejoin="round" />
<path d="M 86.0 153.0 L 86.0 153.0 L 85.0 153.0 L 84.0 153.0 L 84.0 153.0 L 83.0 153.0 L 83.0 153.0 L 83.0 153.0 L 83.0 153.0 L 84.0 153.0 L 85.0 153.0 L 86.0 152.0 L 88.0 152.0 L 91.0 152.0 L 93.0 152.0 L 96.0 152.0 L 99.0 152.0 L 102.0 152.0 L 105.0 151.0 L 108.0 151.0 L 110.0 150.0 L 113.0 150.0 L 115.0 150.0 L 117.0 149.0 L 119.0 149.0 L 119.0 149.0 L 120.0 149.0 L 120.0 149.0 L 120.0 150.0 L 120.0 150.0 L 120.0 151.0 L 120.0 152.0 L 120.0 152.0 L 120.0 154.0 L 119.0 155.0 L 119.0 156.0 L 118.0 158.0 L 117.0 160.0 L 117.0 162.0 L 116.0 164.0 L 115.0 167.0 L 115.0 171.0 L 114.0 174.0 L 113.0 179.0 L 112.0 185.0 L 112.0 190.0 L 111.0 195.0 L 111.0 200.0 L 110.0 204.0 L 110.0 208.0 L 110.0 212.0 L 109.0 215.0 L 109.0 219.0 L 109.0 223.0 L 108.0 227.0 L 108.0 231.0 L 108.0 236.0 L 107.0 239.0 L 107.0 242.0 L 106.0 245.0 L 106.0 247.0 L 105.0 249.0 L 104.0 251.0 L 104.0 252.0 L 103.0 253.0 L 102.0 254.0 L 102.0 254.0 L 101.0 255.0 L 100.0 255.0 L 99.0 255.0 L 98.0 255.0 L 97.0 255.0 L 95.0 254.0 L 93.0 253.0 L 91.0 251.0 L 89.0 249.0 L 87.0 247.0 L 84.0 243.0 " stroke="black" fill="none" stroke-width="5.0" stroke-linecap="round" stroke-linejoin="round" />
<path d="M 89.0 113.0 L 89.0 113.0 L 89.0 113.0 L 89.0 113.0 L 89.0 113.0 L 89.0 113.0 L 89.0 114.0 L 89.0 114.0 L 89.0 116.0 L 89.0 117.0 L 90.0 120.0 L 91.0 123.0 L 91.0 128.0 L 92.0 134.0 L 92.0 141.0 L 92.0 149.0 L 91.0 157.0 L 89.0 164.0 L 87.0 171.0 L 85.0 179.0 L 82.0 188.0 L 79.0 196.0 L 76.0 204.0 L 73.0 212.0 L 70.0 219.0 L 67.0 227.0 L 64.0 233.0 L 62.0 238.0 L 59.0 243.0 L 57.0 246.0 L 54.0 248.0 L 51.0 250.0 L 49.0 251.0 " stroke="black" fill="none" stroke-width="5.0" stroke-linecap="round" stroke-linejoin="round" />
<path d="M 155.0 68.0 L 155.0 68.0 L 155.0 68.0 L 155.0 67.0 L 155.0 67.0 L 155.0 66.0 L 155.0 66.0 L 155.0 66.0 L 155.0 66.0 L 155.0 67.0 L 155.0 68.0 L 155.0 71.0 L 155.0 75.0 L 155.0 80.0 L 154.0 86.0 L 152.0 94.0 L 148.0 104.0 L 144.0 113.0 L 140.0 120.0 L 135.0 127.0 L 130.0 131.0 L 125.0 135.0 L 121.0 138.0 L 119.0 140.0 " stroke="black" fill="none" stroke-width="5.0" stroke-linecap="round" stroke-linejoin="round" />
<path d="M 156.0 96.0 L 155.0 96.0 L 154.0 96.0 L 152.0 96.0 L 152.0 96.0 L 151.0 97.0 L 150.0 97.0 L 150.0 98.0 L 150.0 98.0 L 150.0 99.0 L 151.0 99.0 L 152.0 99.0 L 154.0 99.0 L 156.0 99.0 L 159.0 99.0 L 162.0 99.0 L 167.0 99.0 L 172.0 99.0 L 178.0 99.0 L 184.0 99.0 L 190.0 99.0 L 195.0 99.0 L 199.0 99.0 L 203.0 99.0 L 207.0 99.0 L 211.0 99.0 L 214.0 99.0 L 218.0 99.0 L 221.0 99.0 L 223.0 99.0 L 226.0 99.0 L 227.0 100.0 L 229.0 100.0 L 230.0 100.0 L 231.0 100.0 L 232.0 101.0 L 232.0 101.0 L 233.0 101.0 L 233.0 102.0 L 233.0 102.0 L 233.0 103.0 L 233.0 104.0 " stroke="black" fill="none" stroke-width="5.0" stroke-linecap="round" stroke-linejoin="round" />
<path d="M 145.0 131.0 L 145.0 131.0 L 144.0 131.0 L 143.0 131.0 L 142.0 131.0 L 142.0 131.0 L 141.0 131.0 L 141.0 131.0 L 141.0 131.0 L 141.0 131.0 L 142.0 131.0 L 144.0 131.0 L 145.0 131.0 L 147.0 131.0 L 149.0 131.0 L 152.0 131.0 L 155.0 132.0 L 159.0 132.0 L 163.0 132.0 L 170.0 132.0 L 176.0 132.0 L 183.0 132.0 L 190.0 132.0 L 194.0 131.0 L 199.0 130.0 L 203.0 130.0 L 206.0 129.0 L 210.0 129.0 L 214.0 129.0 L 217.0 129.0 L 220.0 129.0 L 223.0 129.0 L 225.0 129.0 L 227.0 128.0 L 229.0 128.0 L 231.0 128.0 L 232.0 127.0 L 234.0 127.0 L 234.0 127.0 L 234.0 126.0 L 234.0 126.0 " stroke="black" fill="none" stroke-width="5.0" stroke-linecap="round" stroke-linejoin="round" />
<path d="M 156.0 122.0 L 156.0 122.0 L 156.0 123.0 L 156.0 123.0 L 156.0 124.0 L 156.0 125.0 L 156.0 126.0 L 156.0 127.0 L 156.0 130.0 L 157.0 133.0 L 157.0 138.0 L 158.0 144.0 L 159.0 151.0 L 159.0 158.0 L 160.0 166.0 L 160.0 173.0 L 159.0 181.0 L 159.0 189.0 L 158.0 195.0 L 158.0 199.0 L 157.0 201.0 L 157.0 201.0 " stroke="black" fill="none" stroke-width="5.0" stroke-linecap="round" stroke-linejoin="round" />
<path d="M 214.0 116.0 L 214.0 116.0 L 214.0 116.0 L 214.0 115.0 L 214.0 115.0 L 214.0 115.0 L 214.0 115.0 L 214.0 115.0 L 214.0 115.0 L 214.0 116.0 L 214.0 118.0 L 214.0 121.0 L 214.0 124.0 L 214.0 129.0 L 214.0 135.0 L 214.0 143.0 L 214.0 152.0 L 214.0 161.0 L 214.0 170.0 L 214.0 178.0 L 214.0 186.0 L 215.0 191.0 L 215.0 196.0 L 215.0 199.0 L 215.0 201.0 L 215.0 202.0 L 215.0 202.0 L 215.0 202.0 L 214.0 202.0 L 212.0 202.0 " stroke="black" fill="none" stroke-width="5.0" stroke-linecap="round" stroke-linejoin="round" />
<path d="M 169.0 155.0 L 169.0 155.0 L 167.0 155.0 L 167.0 155.0 L 166.0 155.0 L 166.0 155.0 L 166.0 155.0 L 166.0 155.0 L 167.0 155.0 L 170.0 155.0 L 173.0 155.0 L 177.0 155.0 L 182.0 155.0 L 187.0 155.0 L 191.0 155.0 L 196.0 154.0 L 201.0 154.0 L 205.0 154.0 L 209.0 154.0 L 213.0 154.0 L 215.0 155.0 L 216.0 157.0 " stroke="black" fill="none" stroke-width="5.0" stroke-linecap="round" stroke-linejoin="round" />
<path d="M 175.0 176.0 L 174.0 176.0 L 173.0 176.0 L 171.0 176.0 L 170.0 176.0 L 169.0 177.0 L 168.0 177.0 L 168.0 177.0 L 168.0 177.0 L 169.0 177.0 L 171.0 177.0 L 174.0 177.0 L 177.0 177.0 L 181.0 177.0 L 185.0 177.0 L 189.0 177.0 L 193.0 176.0 L 196.0 176.0 L 200.0 176.0 L 203.0 176.0 L 206.0 176.0 L 207.0 176.0 " stroke="black" fill="none" stroke-width="5.0" stroke-linecap="round" stroke-linejoin="round" />
<path d="M 139.0 208.0 L 139.0 208.0 L 138.0 208.0 L 137.0 208.0 L 137.0 207.0 L 137.0 207.0 L 137.0 207.0 L 137.0 207.0 L 139.0 207.0 L 141.0 207.0 L 143.0 207.0 L 146.0 207.0 L 150.0 207.0 L 154.0 207.0 L 159.0 207.0 L 166.0 207.0 L 174.0 207.0 L 182.0 207.0 L 189.0 208.0 L 195.0 208.0 L 201.0 209.0 L 207.0 209.0 L 212.0 209.0 L 217.0 209.0 L 222.0 209.0 L 227.0 209.0 L 230.0 208.0 L 234.0 208.0 L 235.0 207.0 L 237.0 206.0 " stroke="black" fill="none" stroke-width="5.0" stroke-linecap="round" stroke-linejoin="round" />
<path d="M 177.0 221.0 L 177.0 221.0 L 177.0 221.0 L 177.0 221.0 L 176.0 221.0 L 176.0 221.0 L 174.0 222.0 L 172.0 223.0 L 169.0 227.0 L 164.0 231.0 L 159.0 236.0 L 154.0 241.0 L 149.0 245.0 L 144.0 249.0 L 141.0 252.0 L 140.0 253.0 " stroke="black" fill="none" stroke-width="5.0" stroke-linecap="round" stroke-linejoin="round" />
<path d="M 203.0 228.0 L 203.0 228.0 L 203.0 227.0 L 203.0 226.0 L 203.0 225.0 L 203.0 225.0 L 203.0 225.0 L 203.0 225.0 L 203.0 226.0 L 204.0 227.0 L 206.0 229.0 L 208.0 231.0 L 211.0 234.0 L 215.0 237.0 L 220.0 241.0 L 225.0 244.0 L 230.0 247.0 L 234.0 250.0 L 237.0 252.0 L 239.0 252.0 L 240.0 253.0 " stroke="black" fill="none" stroke-width="5.0" stroke-linecap="round" stroke-linejoin="round" />
</svg>