<svg xmlns="http://www.w3.org/2000/svg" width="300" height="300" viewBox="0 0 300 300">
<path d="M 77.0 84.0 L 77.0 84.0 L 77.0 84.0 L 76.0 84.0 L 76.0 84.0 L 75.0 84.0 L 75.0 84.0 L 75.0 84.0 L 75.0 84.0 L 75.0 84.0 L 75.0 84.0 L 75.0 84.0 L 75.0 84.0 L 75.0 84.0 L 75.0 84.0 L 76.0 84.0 L 76.0 84.0 L 77.0 84.0 L 78.0 84.0 L 79.0 84.0 L 80.0 84.0 L 81.0 84.0 L 82.0 84.0 L 83.0 84.0 L 84.0 84.0 L 85.0 84.0 L 86.0 84.0 L 88.0 84.0 L 89.0 84.0 L 90.0 84.0 L 91.0 84.0 L 92.0 84.0 L 93.0 84.0 L 94.0 84.0 L 95.0 84.0 L 96.0 84.0 L 98.0 84.0 L 99.0 84.0 L 99.0 84.0 L 100.0 84.0 L 101.0 84.0 L 102.0 84.0 L 103.0 84.0 L 104.0 84.0 L 105.0 84.0 L 105.0 84.0 L 106.0 84.0 L 107.0 84.0 L 108.0 84.0 L 108.0 84.0 L 109.0 84.0 L 109.0 84.0 L 110.0 84.0 L 110.0 84.0 L 111.0 84.0 L 111.0 84.0 L 112.0 84.0 L 112.0 84.0 L 113.0 84.0 L 113.0 84.0 L 113.0 84.0 L 114.0 84.0 L 114.0 84.0 L 115.0 84.0 L 115.0 84.0 L 115.0 84.0 L 116.0 84.0 L 116.0 84.0 L 117.0 84.0 L 117.0 84.0 L 117.0 84.0 L 118.0 84.0 L 118.0 84.0 L 119.0 84.0 L 119.0 84.0 L 120.0 84.0 L 120.0 84.0 L 121.0 84.0 L 121.0 84.0 L 122.0 84.0 L 123.0 84.0 L 123.0 84.0 L 124.0 84.0 L 124.0 84.0 L 125.0 84.0 L 125.0 84.0 L 126.0 84.0 L 126.0 84.0 L 127.0 84.0 L 127.0 84.0 L 128.0 84.0 L 128.0 84.0 L 128.0 84.0 L 129.0 84.0 L 129.0 84.0 L 129.0 84.0 L 129.0 84.0 L 129.0 85.0 L 129.0 85.0 L 129.0 86.0 L 129.0 86.0 L 129.0 87.0 L 129.0 89.0 L 129.0 90.0 L 129.0 92.0 L 129.0 94.0 L 129.0 96.0 L 129.0 98.0 L 129.0 101.0 L 128.0 103.0 L 128.0 106.0 L 128.0 109.0 L 128.0 111.0 L 128.0 114.0 L 127.0 116.0 L 127.0 119.0 L 127.0 121.0 L 127.0 123.0 L 127.0 125.0 L 127.0 127.0 L 126.0 128.0 L 126.0 130.0 L 126.0 132.0 L 126.0 134.0 L 125.0 135.0 L 125.0 137.0 L 125.0 139.0 L 125.0 140.0 L 125.0 142.0 L 125.0 143.0 L 125.0 144.0 L 124.0 146.0 L 124.0 147.0 L 124.0 148.0 L 124.0 150.0 L 124.0 151.0 L 124.0 152.0 L 124.0 153.0 L 124.0 154.0 L 124.0 155.0 L 124.0 156.0 L 124.0 157.0 L 124.0 158.0 L 124.0 159.0 L 124.0 160.0 L 124.0 161.0 L 124.0 162.0 L 124.0 163.0 L 124.0 163.0 L 124.0 164.0 L 124.0 165.0 L 124.0 165.0 L 124.0 166.0 L 124.0 166.0 L 124.0 167.0 L 124.0 167.0 L 124.0 167.0 L 124.0 168.0 L 124.0 168.0 L 124.0 168.0 L 124.0 168.0 L 124.0 168.0 L 124.0 168.0 L 124.0 168.0 " stroke="black" fill="none" stroke-width="5.0" stroke-linecap="round" stroke-linejoin="round" />
<path d="M 76.0 126.0 L 76.0 126.0 L 75.0 126.0 L 74.0 126.0 L 73.0 126.0 L 73.0 127.0 L 72.0 127.0 L 72.0 127.0 L 72.0 127.0 L 72.0 127.0 L 72.0 127.0 L 73.0 126.0 L 74.0 126.0 L 75.0 126.0 L 77.0 126.0 L 79.0 126.0 L 82.0 126.0 L 86.0 126.0 L 90.0 126.0 L 95.0 127.0 L 100.0 127.0 L 105.0 127.0 L 109.0 126.0 L 114.0 125.0 L 117.0 124.0 L 120.0 124.0 L 123.0 124.0 L 124.0 124.0 " stroke="black" fill="none" stroke-width="5.0" stroke-linecap="round" stroke-linejoin="round" />
<path d="M 75.0 165.0 L 74.0 165.0 L 74.0 166.0 L 73.0 166.0 L 72.0 166.0 L 71.0 166.0 L 71.0 166.0 L 71.0 166.0 L 71.0 167.0 L 71.0 167.0 L 72.0 167.0 L 74.0 167.0 L 77.0 167.0 L 80.0 167.0 L 84.0 168.0 L 89.0 168.0 L 94.0 168.0 L 99.0 168.0 L 104.0 168.0 L 109.0 168.0 L 114.0 168.0 L 117.0 167.0 L 121.0 167.0 L 123.0 166.0 " stroke="black" fill="none" stroke-width="5.0" stroke-linecap="round" stroke-linejoin="round" />
<path d="M 71.0 85.0 L 71.0 85.0 L 71.0 85.0 L 71.0 85.0 L 71.0 84.0 L 71.0 84.0 L 72.0 84.0 L 72.0 83.0 L 72.0 83.0 L 72.0 83.0 L 73.0 82.0 L 73.0 82.0 L 73.0 82.0 L 73.0 82.0 L 73.0 82.0 L 73.0 82.0 L 73.0 82.0 L 73.0 82.0 L 73.0 82.0 L 73.0 82.0 L 73.0 82.0 L 73.0 82.0 L 73.0 83.0 L 73.0 85.0 L 73.0 86.0 L 73.0 87.0 L 73.0 89.0 L 73.0 91.0 L 73.0 94.0 L 73.0 96.0 L 72.0 99.0 L 72.0 101.0 L 72.0 104.0 L 71.0 107.0 L 71.0 109.0 L 71.0 112.0 L 71.0 114.0 L 71.0 116.0 L 70.0 119.0 L 70.0 121.0 L 70.0 123.0 L 69.0 125.0 L 69.0 127.0 L 69.0 129.0 L 69.0 131.0 L 69.0 132.0 L 69.0 134.0 L 69.0 136.0 L 69.0 138.0 L 69.0 140.0 L 68.0 142.0 L 68.0 144.0 L 68.0 146.0 L 68.0 148.0 L 68.0 151.0 L 68.0 152.0 L 68.0 154.0 L 68.0 156.0 L 68.0 158.0 L 68.0 159.0 L 68.0 161.0 L 67.0 162.0 L 67.0 164.0 L 67.0 165.0 L 67.0 166.0 L 67.0 168.0 L 67.0 169.0 L 67.0 171.0 L 67.0 172.0 L 67.0 173.0 L 66.0 175.0 L 66.0 176.0 L 66.0 177.0 L 66.0 179.0 L 66.0 181.0 L 66.0 182.0 L 66.0 184.0 L 66.0 186.0 L 66.0 188.0 L 66.0 189.0 L 66.0 191.0 L 66.0 192.0 L 66.0 193.0 L 66.0 195.0 L 66.0 196.0 L 66.0 197.0 L 66.0 198.0 L 65.0 200.0 L 65.0 200.0 L 65.0 201.0 L 65.0 202.0 L 65.0 203.0 L 65.0 204.0 L 65.0 205.0 L 65.0 206.0 L 65.0 206.0 L 65.0 207.0 L 65.0 208.0 L 65.0 209.0 L 65.0 210.0 L 65.0 211.0 L 65.0 211.0 L 65.0 212.0 L 65.0 213.0 L 65.0 214.0 L 64.0 214.0 L 64.0 215.0 L 64.0 216.0 L 64.0 217.0 L 64.0 218.0 L 64.0 218.0 L 64.0 219.0 L 64.0 220.0 L 64.0 221.0 L 64.0 222.0 L 64.0 223.0 L 64.0 224.0 L 64.0 225.0 L 64.0 225.0 L 64.0 226.0 L 64.0 227.0 L 64.0 228.0 L 64.0 229.0 L 64.0 230.0 L 64.0 231.0 L 64.0 232.0 L 64.0 233.0 L 63.0 234.0 L 63.0 235.0 L 63.0 235.0 L 63.0 236.0 L 63.0 237.0 L 63.0 238.0 L 63.0 238.0 L 63.0 239.0 L 63.0 240.0 L 63.0 240.0 L 63.0 241.0 L 63.0 241.0 L 63.0 241.0 L 63.0 242.0 L 63.0 242.0 L 63.0 243.0 L 63.0 243.0 L 63.0 243.0 L 63.0 244.0 L 63.0 244.0 L 63.0 244.0 L 63.0 245.0 L 63.0 245.0 L 63.0 245.0 L 63.0 245.0 L 63.0 245.0 L 63.0 245.0 L 63.0 246.0 L 63.0 246.0 L 63.0 246.0 L 63.0 246.0 L 63.0 246.0 L 63.0 246.0 L 63.0 246.0 L 63.0 246.0 L 63.0 246.0 L 63.0 246.0 L 63.0 246.0 L 63.0 246.0 L 63.0 246.0 L 64.0 246.0 L 64.0 245.0 L 65.0 245.0 L 65.0 244.0 L 66.0 244.0 L 67.0 243.0 L 69.0 242.0 L 70.0 241.0 L 73.0 239.0 L 75.0 237.0 L 78.0 235.0 L 81.0 233.0 L 85.0 231.0 L 88.0 228.0 L 92.0 226.0 L 96.0 224.0 L 99.0 222.0 L 102.0 220.0 L 104.0 219.0 L 106.0 217.0 L 107.0 215.0 L 108.0 214.0 L 108.0 214.0 L 109.0 213.0 L 109.0 213.0 " stroke="black" fill="none" stroke-width="5.0" stroke-linecap="round" stroke-linejoin="round" />
<path d="M 108.0 194.0 L 108.0 194.0 L 108.0 194.0 L 108.0 194.0 L 108.0 194.0 L 107.0 194.0 L 107.0 194.0 L 107.0 194.0 L 107.0 194.0 L 107.0 194.0 L 107.0 194.0 L 107.0 194.0 L 107.0 195.0 L 107.0 196.0 L 108.0 198.0 L 109.0 200.0 L 110.0 203.0 L 112.0 208.0 L 114.0 212.0 L 117.0 217.0 L 119.0 223.0 L 122.0 227.0 L 124.0 231.0 L 125.0 233.0 L 126.0 234.0 L 126.0 234.0 L 126.0 234.0 " stroke="black" fill="none" stroke-width="5.0" stroke-linecap="round" stroke-linejoin="round" />
<path d="M 153.0 90.0 L 153.0 90.0 L 153.0 90.0 L 153.0 90.0 L 153.0 90.0 L 153.0 89.0 L 152.0 89.0 L 152.0 89.0 L 152.0 89.0 L 152.0 89.0 L 152.0 89.0 L 152.0 88.0 L 152.0 88.0 L 152.0 88.0 L 152.0 88.0 L 153.0 88.0 L 154.0 88.0 L 155.0 88.0 L 156.0 88.0 L 157.0 88.0 L 158.0 89.0 L 160.0 89.0 L 162.0 89.0 L 164.0 89.0 L 166.0 89.0 L 168.0 89.0 L 170.0 89.0 L 172.0 89.0 L 174.0 89.0 L 175.0 89.0 L 177.0 89.0 L 178.0 89.0 L 180.0 89.0 L 181.0 89.0 L 182.0 89.0 L 183.0 89.0 L 184.0 89.0 L 185.0 89.0 L 185.0 89.0 L 186.0 89.0 L 187.0 89.0 L 187.0 89.0 L 188.0 90.0 L 189.0 90.0 L 189.0 90.0 L 190.0 90.0 L 190.0 91.0 L 191.0 91.0 L 191.0 91.0 L 192.0 91.0 L 192.0 91.0 L 193.0 91.0 L 193.0 91.0 L 194.0 91.0 L 194.0 92.0 L 195.0 92.0 L 195.0 92.0 L 196.0 92.0 L 196.0 92.0 L 196.0 92.0 L 197.0 92.0 L 198.0 92.0 L 198.0 92.0 L 199.0 92.0 L 199.0 92.0 L 200.0 92.0 L 201.0 92.0 L 201.0 92.0 L 202.0 92.0 L 203.0 92.0 L 204.0 92.0 L 204.0 92.0 L 205.0 92.0 L 206.0 93.0 L 207.0 93.0 L 208.0 93.0 L 209.0 93.0 L 210.0 93.0 L 212.0 93.0 L 213.0 93.0 L 214.0 93.0 L 216.0 93.0 L 217.0 93.0 L 218.0 93.0 L 219.0 93.0 L 221.0 93.0 L 222.0 93.0 L 223.0 93.0 L 224.0 93.0 L 225.0 93.0 L 226.0 93.0 L 227.0 93.0 L 228.0 93.0 L 229.0 93.0 L 229.0 93.0 L 230.0 93.0 " stroke="black" fill="none" stroke-width="5.0" stroke-linecap="round" stroke-linejoin="round" />
<path d="M 166.0 94.0 L 166.0 94.0 L 166.0 94.0 L 166.0 94.0 L 166.0 94.0 L 165.0 94.0 L 165.0 94.0 L 165.0 94.0 L 165.0 94.0 L 165.0 95.0 L 165.0 95.0 L 164.0 96.0 L 164.0 98.0 L 164.0 100.0 L 163.0 103.0 L 162.0 106.0 L 162.0 109.0 L 161.0 113.0 L 160.0 116.0 L 159.0 119.0 L 158.0 121.0 L 158.0 124.0 L 157.0 126.0 L 156.0 128.0 L 156.0 130.0 L 155.0 131.0 L 155.0 133.0 L 154.0 134.0 L 154.0 136.0 L 154.0 138.0 L 153.0 140.0 L 153.0 143.0 L 152.0 145.0 L 152.0 147.0 L 152.0 148.0 L 152.0 150.0 L 151.0 151.0 L 151.0 152.0 L 151.0 152.0 L 151.0 153.0 L 151.0 154.0 L 151.0 154.0 L 151.0 155.0 L 151.0 155.0 L 151.0 155.0 L 151.0 156.0 L 151.0 156.0 L 151.0 156.0 L 151.0 156.0 L 151.0 157.0 L 151.0 157.0 L 151.0 157.0 L 151.0 157.0 L 151.0 157.0 L 151.0 157.0 L 151.0 157.0 L 151.0 158.0 L 152.0 158.0 L 152.0 158.0 L 152.0 158.0 L 153.0 158.0 L 153.0 158.0 L 153.0 158.0 L 154.0 158.0 L 154.0 158.0 L 155.0 158.0 L 155.0 158.0 L 156.0 158.0 L 157.0 158.0 L 158.0 158.0 L 158.0 158.0 L 159.0 158.0 L 160.0 158.0 L 162.0 158.0 L 163.0 158.0 L 164.0 158.0 L 165.0 158.0 L 166.0 158.0 L 167.0 158.0 L 168.0 158.0 L 169.0 158.0 L 171.0 158.0 L 172.0 158.0 L 173.0 159.0 L 175.0 159.0 L 176.0 159.0 L 177.0 159.0 L 178.0 159.0 L 179.0 159.0 L 180.0 159.0 L 182.0 159.0 L 183.0 160.0 L 184.0 160.0 L 185.0 160.0 L 186.0 160.0 L 188.0 160.0 L 189.0 160.0 L 190.0 160.0 L 191.0 160.0 L 192.0 160.0 L 193.0 160.0 L 194.0 160.0 L 196.0 160.0 L 196.0 160.0 L 197.0 160.0 L 198.0 159.0 L 199.0 159.0 L 200.0 159.0 L 201.0 159.0 L 202.0 159.0 L 203.0 159.0 L 204.0 159.0 L 206.0 159.0 L 207.0 159.0 L 208.0 159.0 L 210.0 159.0 L 211.0 159.0 L 213.0 159.0 L 214.0 159.0 L 216.0 159.0 L 217.0 160.0 L 219.0 160.0 L 220.0 160.0 L 221.0 160.0 L 222.0 160.0 L 224.0 160.0 L 225.0 160.0 L 226.0 160.0 L 227.0 160.0 L 228.0 160.0 L 229.0 160.0 L 230.0 160.0 L 231.0 160.0 L 232.0 160.0 L 232.0 159.0 L 233.0 159.0 L 233.0 159.0 L 234.0 159.0 L 234.0 158.0 L 235.0 158.0 L 235.0 158.0 L 235.0 158.0 L 235.0 158.0 L 235.0 158.0 L 235.0 158.0 " stroke="black" fill="none" stroke-width="5.0" stroke-linecap="round" stroke-linejoin="round" />
<path d="M 196.0 96.0 L 196.0 96.0 L 196.0 96.0 L 196.0 96.0 L 196.0 96.0 L 196.0 96.0 L 196.0 96.0 L 196.0 96.0 L 196.0 97.0 L 196.0 97.0 L 196.0 98.0 L 196.0 99.0 L 196.0 101.0 L 196.0 102.0 L 196.0 105.0 L 196.0 107.0 L 196.0 110.0 L 196.0 113.0 L 196.0 116.0 L 196.0 119.0 L 196.0 121.0 L 196.0 123.0 L 196.0 125.0 L 196.0 127.0 L 196.0 130.0 L 196.0 131.0 L 196.0 133.0 L 196.0 135.0 L 195.0 137.0 L 195.0 139.0 L 195.0 141.0 L 195.0 143.0 L 195.0 145.0 L 195.0 147.0 L 194.0 149.0 L 194.0 151.0 L 194.0 153.0 L 194.0 155.0 L 194.0 157.0 L 194.0 159.0 L 193.0 161.0 L 193.0 162.0 L 193.0 164.0 L 192.0 166.0 L 192.0 167.0 L 192.0 168.0 L 192.0 170.0 L 191.0 171.0 L 191.0 173.0 L 191.0 175.0 L 191.0 176.0 L 191.0 177.0 L 190.0 179.0 L 190.0 180.0 L 190.0 182.0 L 190.0 183.0 L 189.0 185.0 L 189.0 186.0 L 189.0 188.0 L 189.0 189.0 L 188.0 191.0 L 188.0 192.0 L 188.0 193.0 L 187.0 195.0 L 187.0 196.0 L 186.0 197.0 L 186.0 198.0 L 185.0 199.0 L 185.0 200.0 L 185.0 201.0 L 184.0 203.0 L 183.0 204.0 L 182.0 205.0 L 182.0 206.0 L 181.0 207.0 L 180.0 208.0 L 179.0 209.0 L 178.0 211.0 L 177.0 212.0 L 176.0 214.0 L 175.0 215.0 L 173.0 217.0 L 172.0 218.0 L 171.0 220.0 L 170.0 222.0 L 168.0 223.0 L 167.0 225.0 L 166.0 227.0 L 164.0 229.0 L 162.0 231.0 L 161.0 233.0 L 160.0 235.0 L 158.0 237.0 L 157.0 238.0 L 156.0 240.0 L 155.0 241.0 L 154.0 242.0 L 153.0 243.0 L 152.0 244.0 L 152.0 244.0 L 151.0 244.0 L 150.0 244.0 L 149.0 243.0 L 149.0 243.0 " stroke="black" fill="none" stroke-width="5.0" stroke-linecap="round" stroke-linejoin="round" />
<path d="M 195.0 174.0 L 195.0 174.0 L 195.0 174.0 L 195.0 174.0 L 195.0 174.0 L 195.0 174.0 L 194.0 174.0 L 194.0 174.0 L 194.0 174.0 L 194.0 174.0 L 194.0 175.0 L 194.0 175.0 L 194.0 175.0 L 194.0 175.0 L 194.0 176.0 L 194.0 177.0 L 194.0 177.0 L 194.0 178.0 L 194.0 180.0 L 194.0 181.0 L 194.0 183.0 L 194.0 185.0 L 194.0 187.0 L 194.0 189.0 L 194.0 191.0 L 194.0 193.0 L 194.0 195.0 L 194.0 196.0 L 194.0 197.0 L 194.0 198.0 L 194.0 200.0 L 194.0 200.0 L 194.0 201.0 L 194.0 202.0 L 194.0 203.0 L 194.0 204.0 L 194.0 206.0 L 194.0 207.0 L 194.0 208.0 L 194.0 209.0 L 194.0 210.0 L 194.0 211.0 L 194.0 212.0 L 194.0 213.0 L 194.0 215.0 L 194.0 216.0 L 194.0 217.0 L 194.0 218.0 L 194.0 219.0 L 194.0 220.0 L 194.0 221.0 L 194.0 223.0 L 194.0 224.0 L 194.0 225.0 L 194.0 227.0 L 194.0 228.0 L 194.0 229.0 L 194.0 230.0 L 194.0 231.0 L 194.0 232.0 L 194.0 233.0 L 194.0 234.0 L 194.0 235.0 L 194.0 236.0 L 194.0 237.0 L 194.0 238.0 L 194.0 238.0 L 194.0 239.0 L 194.0 240.0 L 194.0 240.0 L 194.0 241.0 L 194.0 241.0 L 194.0 242.0 L 194.0 242.0 L 194.0 243.0 L 194.0 243.0 L 194.0 243.0 L 194.0 244.0 L 194.0 245.0 L 194.0 245.0 L 194.0 246.0 L 194.0 246.0 L 194.0 246.0 L 194.0 247.0 L 194.0 247.0 L 194.0 247.0 L 194.0 248.0 L 194.0 248.0 L 195.0 248.0 L 195.0 249.0 L 196.0 249.0 L 196.0 249.0 L 196.0 250.0 L 197.0 250.0 L 198.0 250.0 L 198.0 251.0 L 199.0 251.0 L 200.0 251.0 L 200.0 251.0 L 201.0 251.0 L 202.0 252.0 L 203.0 252.0 L 204.0 252.0 L 205.0 252.0 L 206.0 252.0 L 207.0 252.0 L 209.0 252.0 L 210.0 252.0 L 211.0 252.0 L 212.0 252.0 L 214.0 252.0 L 215.0 252.0 L 216.0 252.0 L 218.0 252.0 L 219.0 252.0 L 220.0 252.0 L 221.0 252.0 L 223.0 252.0 L 224.0 252.0 L 225.0 252.0 L 227.0 252.0 L 228.0 252.0 L 229.0 251.0 L 230.0 251.0 L 231.0 251.0 L 232.0 251.0 L 233.0 251.0 L 234.0 251.0 L 235.0 250.0 L 235.0 250.0 L 236.0 250.0 L 236.0 250.0 L 237.0 250.0 L 237.0 250.0 L 238.0 249.0 L 238.0 249.0 L 239.0 249.0 L 239.0 249.0 L 239.0 249.0 L 239.0 249.0 L 239.0 248.0 L 239.0 248.0 L 239.0 248.0 L 239.0 247.0 L 239.0 247.0 L 239.0 246.0 L 239.0 246.0 L 239.0 245.0 L 239.0 244.0 L 239.0 243.0 L 239.0 242.0 L 239.0 241.0 L 239.0 239.0 L 239.0 236.0 L 239.0 233.0 L 239.0 230.0 L 239.0 226.0 L 239.0 222.0 L 239.0 219.0 L 239.0 218.0 " stroke="black" fill="none" stroke-width="5.0" stroke-linecap="round" stroke-linejoin="round" />
</svg>