<svg xmlns="http://www.w3.org/2000/svg" width="300" height="300" viewBox="0 0 300 300">
<path d="M 77.0 101.0 L 77.0 101.0 L 77.0 100.0 L 77.0 100.0 L 78.0 99.0 L 78.0 98.0 L 78.0 97.0 L 78.0 96.0 L 78.0 96.0 L 78.0 95.0 L 78.0 95.0 L 78.0 94.0 L 78.0 94.0 L 78.0 94.0 L 78.0 94.0 L 78.0 94.0 L 78.0 94.0 L 77.0 94.0 L 77.0 95.0 L 77.0 96.0 L 77.0 99.0 L 76.0 101.0 L 76.0 104.0 L 76.0 107.0 L 75.0 111.0 L 75.0 115.0 L 74.0 119.0 L 74.0 123.0 L 73.0 128.0 L 73.0 133.0 L 72.0 138.0 L 71.0 143.0 L 71.0 149.0 L 70.0 154.0 L 70.0 158.0 L 70.0 162.0 L 69.0 166.0 L 69.0 169.0 L 69.0 173.0 L 69.0 176.0 L 69.0 179.0 L 69.0 182.0 L 69.0 185.0 L 69.0 188.0 L 69.0 190.0 L 69.0 193.0 L 69.0 195.0 L 69.0 197.0 L 69.0 200.0 L 69.0 202.0 L 68.0 203.0 L 68.0 205.0 L 68.0 207.0 L 68.0 208.0 L 68.0 210.0 L 68.0 211.0 L 68.0 212.0 L 68.0 213.0 L 68.0 214.0 L 68.0 214.0 L 68.0 215.0 L 68.0 215.0 L 68.0 215.0 L 68.0 216.0 L 68.0 216.0 L 68.0 216.0 L 69.0 216.0 L 69.0 216.0 L 69.0 216.0 L 69.0 216.0 L 70.0 215.0 L 70.0 215.0 L 71.0 214.0 L 71.0 214.0 L 72.0 213.0 L 74.0 212.0 L 75.0 210.0 L 78.0 209.0 L 81.0 206.0 L 84.0 204.0 L 88.0 200.0 L 92.0 197.0 L 96.0 194.0 L 100.0 190.0 L 102.0 187.0 L 104.0 185.0 L 105.0 183.0 " stroke="black" fill="none" stroke-width="5.0" stroke-linecap="round" stroke-linejoin="round" />
<path d="M 118.0 82.0 L 118.0 82.0 L 118.0 82.0 L 118.0 82.0 L 118.0 82.0 L 118.0 82.0 L 118.0 82.0 L 118.0 82.0 L 118.0 82.0 L 118.0 84.0 L 118.0 85.0 L 118.0 88.0 L 118.0 92.0 L 117.0 98.0 L 116.0 105.0 L 115.0 114.0 L 113.0 124.0 L 112.0 136.0 L 111.0 149.0 L 110.0 162.0 L 110.0 176.0 L 110.0 190.0 L 110.0 202.0 L 110.0 212.0 L 110.0 218.0 L 110.0 225.0 L 110.0 231.0 L 110.0 237.0 L 110.0 241.0 L 109.0 245.0 L 108.0 249.0 L 108.0 251.0 L 108.0 253.0 L 108.0 254.0 L 108.0 254.0 " stroke="black" fill="none" stroke-width="5.0" stroke-linecap="round" stroke-linejoin="round" />
<path d="M 174.0 79.0 L 174.0 79.0 L 174.0 79.0 L 174.0 79.0 L 175.0 79.0 L 175.0 79.0 L 175.0 79.0 L 175.0 79.0 L 174.0 79.0 L 173.0 79.0 L 173.0 81.0 L 171.0 84.0 L 170.0 87.0 L 168.0 94.0 L 166.0 101.0 L 162.0 111.0 L 159.0 120.0 L 156.0 129.0 L 153.0 137.0 L 151.0 146.0 L 149.0 152.0 L 147.0 157.0 L 146.0 160.0 L 145.0 161.0 L 145.0 161.0 L 145.0 161.0 " stroke="black" fill="none" stroke-width="5.0" stroke-linecap="round" stroke-linejoin="round" />
<path d="M 170.0 117.0 L 170.0 117.0 L 170.0 117.0 L 169.0 117.0 L 169.0 117.0 L 168.0 118.0 L 168.0 118.0 L 168.0 118.0 L 167.0 118.0 L 167.0 119.0 L 167.0 119.0 L 167.0 119.0 L 168.0 119.0 L 170.0 119.0 L 172.0 119.0 L 175.0 119.0 L 179.0 119.0 L 183.0 119.0 L 186.0 118.0 L 190.0 118.0 L 194.0 117.0 L 197.0 117.0 L 200.0 116.0 L 204.0 116.0 L 207.0 116.0 L 210.0 115.0 L 214.0 115.0 L 218.0 115.0 L 221.0 114.0 L 224.0 114.0 L 226.0 114.0 L 228.0 114.0 L 230.0 114.0 L 232.0 114.0 L 233.0 113.0 L 234.0 113.0 L 234.0 112.0 L 235.0 112.0 L 235.0 112.0 L 236.0 111.0 L 236.0 111.0 " stroke="black" fill="none" stroke-width="5.0" stroke-linecap="round" stroke-linejoin="round" />
<path d="M 225.0 119.0 L 225.0 119.0 L 225.0 119.0 L 225.0 119.0 L 225.0 119.0 L 225.0 120.0 L 225.0 120.0 L 225.0 121.0 L 225.0 123.0 L 224.0 125.0 L 223.0 127.0 L 221.0 130.0 L 220.0 134.0 L 218.0 138.0 L 217.0 143.0 L 214.0 149.0 L 212.0 156.0 L 209.0 162.0 L 207.0 168.0 L 204.0 175.0 L 202.0 180.0 L 201.0 187.0 L 198.0 193.0 L 196.0 198.0 L 194.0 202.0 L 192.0 206.0 L 190.0 209.0 L 187.0 212.0 L 184.0 216.0 L 181.0 220.0 L 178.0 224.0 L 174.0 229.0 L 170.0 233.0 L 166.0 236.0 L 162.0 239.0 L 159.0 242.0 L 157.0 245.0 L 154.0 247.0 L 153.0 249.0 L 151.0 251.0 L 150.0 252.0 L 150.0 253.0 " stroke="black" fill="none" stroke-width="5.0" stroke-linecap="round" stroke-linejoin="round" />
<path d="M 160.0 134.0 L 160.0 134.0 L 160.0 134.0 L 160.0 134.0 L 160.0 134.0 L 160.0 134.0 L 160.0 134.0 L 160.0 134.0 L 160.0 134.0 L 160.0 135.0 L 161.0 136.0 L 161.0 138.0 L 161.0 141.0 L 161.0 144.0 L 162.0 148.0 L 163.0 152.0 L 165.0 157.0 L 167.0 162.0 L 171.0 168.0 L 175.0 174.0 L 178.0 180.0 L 182.0 186.0 L 186.0 192.0 L 189.0 197.0 L 192.0 201.0 L 194.0 205.0 L 196.0 209.0 L 198.0 213.0 L 201.0 216.0 L 204.0 220.0 L 207.0 224.0 L 210.0 228.0 L 214.0 231.0 L 218.0 235.0 L 221.0 238.0 L 224.0 241.0 L 227.0 244.0 L 229.0 246.0 L 231.0 248.0 L 232.0 250.0 L 234.0 252.0 L 235.0 254.0 L 235.0 255.0 L 236.0 256.0 L 236.0 256.0 L 237.0 256.0 " stroke="black" fill="none" stroke-width="5.0" stroke-linecap="round" stroke-linejoin="round" />
</svg>