<svg xmlns="http://www.w3.org/2000/svg" width="300" height="300" viewBox="0 0 300 300">
<path d="M 97.0 84.0 L 97.0 84.0 L 97.0 84.0 L 97.0 84.0 L 97.0 84.0 L 97.0 84.0 L 96.0 84.0 L 96.0 84.0 L 96.0 84.0 L 96.0 84.0 L 95.0 84.0 L 95.0 84.0 L 95.0 84.0 L 94.0 84.0 L 94.0 84.0 L 94.0 84.0 L 94.0 84.0 L 94.0 84.0 L 94.0 84.0 L 94.0 84.0 L 94.0 84.0 L 95.0 84.0 L 95.0 84.0 L 96.0 84.0 L 97.0 84.0 L 97.0 84.0 L 98.0 84.0 L 99.0 84.0 L 99.0 84.0 L 100.0 84.0 L 101.0 84.0 L 101.0 84.0 L 102.0 84.0 L 103.0 84.0 L 103.0 84.0 L 104.0 84.0 L 105.0 84.0 L 106.0 84.0 L 107.0 84.0 L 107.0 84.0 L 108.0 84.0 L 109.0 84.0 L 110.0 84.0 L 111.0 84.0 L 112.0 84.0 L 113.0 84.0 L 114.0 85.0 L 116.0 85.0 L 117.0 85.0 L 118.0 85.0 L 119.0 85.0 L 121.0 85.0 L 122.0 85.0 L 124.0 85.0 L 125.0 85.0 L 127.0 85.0 L 128.0 85.0 L 130.0 85.0 L 131.0 85.0 L 133.0 84.0 L 134.0 84.0 L 135.0 84.0 L 137.0 84.0 L 138.0 84.0 L 139.0 84.0 L 140.0 84.0 L 141.0 84.0 L 142.0 84.0 L 143.0 83.0 L 144.0 83.0 L 145.0 83.0 L 146.0 83.0 L 146.0 83.0 L 147.0 83.0 L 148.0 83.0 L 149.0 83.0 L 150.0 83.0 L 151.0 83.0 L 152.0 83.0 L 152.0 83.0 L 153.0 83.0 L 153.0 83.0 L 154.0 83.0 L 155.0 83.0 L 155.0 83.0 L 156.0 83.0 L 156.0 83.0 L 157.0 83.0 L 158.0 83.0 L 158.0 83.0 L 159.0 83.0 L 159.0 83.0 L 160.0 83.0 L 161.0 83.0 L 161.0 83.0 L 162.0 83.0 L 163.0 83.0 L 164.0 83.0 L 164.0 83.0 L 165.0 83.0 L 166.0 83.0 L 166.0 83.0 L 167.0 83.0 L 168.0 83.0 L 169.0 83.0 L 170.0 83.0 L 171.0 84.0 L 171.0 84.0 L 172.0 84.0 L 173.0 84.0 L 174.0 84.0 L 175.0 84.0 L 176.0 84.0 L 177.0 84.0 L 178.0 84.0 L 178.0 84.0 L 179.0 84.0 L 180.0 84.0 L 181.0 84.0 L 182.0 84.0 L 182.0 84.0 L 183.0 84.0 L 184.0 84.0 L 185.0 84.0 L 185.0 84.0 L 186.0 84.0 L 187.0 84.0 L 188.0 84.0 L 188.0 84.0 L 189.0 84.0 L 190.0 84.0 L 190.0 84.0 L 191.0 84.0 L 191.0 84.0 L 192.0 84.0 L 193.0 84.0 L 193.0 84.0 L 193.0 84.0 L 194.0 84.0 L 194.0 84.0 L 195.0 84.0 L 195.0 84.0 L 195.0 84.0 L 196.0 84.0 L 196.0 84.0 L 196.0 84.0 L 197.0 84.0 L 197.0 84.0 L 198.0 84.0 L 198.0 84.0 L 198.0 84.0 L 199.0 84.0 L 199.0 84.0 L 200.0 84.0 L 200.0 85.0 L 201.0 85.0 L 201.0 85.0 L 202.0 85.0 L 202.0 85.0 L 202.0 85.0 L 203.0 85.0 L 203.0 85.0 L 204.0 85.0 L 204.0 85.0 L 204.0 85.0 L 205.0 86.0 L 205.0 86.0 L 205.0 86.0 L 205.0 86.0 L 205.0 86.0 L 205.0 86.0 L 205.0 87.0 L 205.0 87.0 L 205.0 87.0 L 205.0 88.0 L 205.0 89.0 L 205.0 90.0 L 205.0 91.0 L 205.0 93.0 L 205.0 96.0 L 205.0 99.0 L 205.0 102.0 L 205.0 107.0 L 205.0 112.0 L 205.0 116.0 L 206.0 121.0 L 206.0 124.0 L 206.0 127.0 L 206.0 129.0 L 205.0 130.0 L 204.0 131.0 L 203.0 132.0 L 202.0 132.0 " stroke="black" fill="none" stroke-width="5.0" stroke-linecap="round" stroke-linejoin="round" />
<path d="M 68.0 111.0 L 68.0 111.0 L 68.0 111.0 L 68.0 111.0 L 68.0 111.0 L 68.0 111.0 L 68.0 111.0 L 68.0 110.0 L 68.0 110.0 L 68.0 110.0 L 68.0 110.0 L 68.0 110.0 L 68.0 110.0 L 68.0 110.0 L 69.0 110.0 L 69.0 110.0 L 69.0 110.0 L 70.0 110.0 L 70.0 110.0 L 71.0 110.0 L 71.0 110.0 L 72.0 110.0 L 73.0 110.0 L 74.0 110.0 L 75.0 111.0 L 76.0 111.0 L 78.0 111.0 L 80.0 111.0 L 82.0 111.0 L 85.0 111.0 L 88.0 111.0 L 90.0 111.0 L 93.0 111.0 L 96.0 111.0 L 98.0 111.0 L 100.0 111.0 L 102.0 111.0 L 103.0 111.0 L 105.0 111.0 L 106.0 111.0 L 108.0 111.0 L 109.0 111.0 L 110.0 111.0 L 111.0 111.0 L 112.0 111.0 L 113.0 111.0 L 114.0 111.0 L 115.0 111.0 L 116.0 111.0 L 117.0 111.0 L 118.0 112.0 L 119.0 112.0 L 120.0 112.0 L 122.0 112.0 L 123.0 112.0 L 125.0 112.0 L 126.0 112.0 L 128.0 112.0 L 130.0 112.0 L 132.0 112.0 L 134.0 112.0 L 135.0 112.0 L 137.0 112.0 L 139.0 112.0 L 141.0 112.0 L 143.0 112.0 L 144.0 112.0 L 146.0 112.0 L 148.0 112.0 L 149.0 112.0 L 150.0 112.0 L 151.0 112.0 L 153.0 112.0 L 154.0 112.0 L 155.0 112.0 L 157.0 111.0 L 158.0 111.0 L 160.0 111.0 L 161.0 111.0 L 163.0 111.0 L 164.0 111.0 L 166.0 111.0 L 168.0 111.0 L 169.0 111.0 L 171.0 111.0 L 173.0 111.0 L 175.0 111.0 L 177.0 111.0 L 178.0 111.0 L 180.0 111.0 L 182.0 111.0 L 184.0 111.0 L 185.0 111.0 L 187.0 111.0 L 188.0 111.0 L 189.0 111.0 L 191.0 111.0 L 192.0 111.0 L 193.0 111.0 L 194.0 111.0 L 195.0 111.0 L 196.0 111.0 L 196.0 111.0 L 197.0 111.0 L 198.0 111.0 L 199.0 111.0 L 201.0 111.0 L 202.0 111.0 L 204.0 111.0 L 206.0 111.0 L 207.0 111.0 L 209.0 111.0 L 212.0 111.0 L 214.0 111.0 L 216.0 111.0 L 218.0 111.0 L 219.0 111.0 L 221.0 111.0 L 223.0 111.0 L 224.0 111.0 L 225.0 111.0 L 227.0 111.0 L 228.0 111.0 L 229.0 111.0 L 230.0 111.0 L 231.0 111.0 L 231.0 111.0 L 232.0 112.0 " stroke="black" fill="none" stroke-width="5.0" stroke-linecap="round" stroke-linejoin="round" />
<path d="M 90.0 128.0 L 90.0 128.0 L 90.0 128.0 L 89.0 128.0 L 89.0 128.0 L 89.0 128.0 L 88.0 128.0 L 88.0 129.0 L 88.0 129.0 L 88.0 129.0 L 88.0 129.0 L 88.0 129.0 L 88.0 129.0 L 89.0 129.0 L 90.0 129.0 L 91.0 129.0 L 93.0 129.0 L 94.0 129.0 L 95.0 129.0 L 97.0 130.0 L 98.0 130.0 L 100.0 130.0 L 101.0 130.0 L 103.0 130.0 L 105.0 130.0 L 106.0 130.0 L 108.0 130.0 L 109.0 130.0 L 111.0 130.0 L 112.0 130.0 L 114.0 130.0 L 116.0 130.0 L 117.0 130.0 L 119.0 130.0 L 120.0 129.0 L 122.0 129.0 L 123.0 129.0 L 125.0 129.0 L 126.0 129.0 L 128.0 129.0 L 130.0 129.0 L 132.0 129.0 L 134.0 129.0 L 136.0 129.0 L 138.0 129.0 L 139.0 129.0 L 141.0 129.0 L 143.0 129.0 L 144.0 129.0 L 146.0 129.0 L 148.0 129.0 L 149.0 129.0 L 150.0 129.0 L 151.0 129.0 L 152.0 129.0 L 153.0 129.0 L 154.0 129.0 L 155.0 129.0 L 155.0 129.0 L 156.0 129.0 L 157.0 129.0 L 158.0 129.0 L 158.0 130.0 L 159.0 130.0 L 160.0 130.0 L 161.0 130.0 L 162.0 130.0 L 163.0 130.0 L 165.0 130.0 L 166.0 130.0 L 167.0 130.0 L 169.0 130.0 L 170.0 130.0 L 172.0 130.0 L 173.0 130.0 L 175.0 130.0 L 177.0 130.0 L 178.0 130.0 L 180.0 130.0 L 182.0 130.0 L 184.0 130.0 L 185.0 130.0 L 187.0 130.0 L 189.0 130.0 L 191.0 130.0 L 192.0 130.0 L 194.0 129.0 L 195.0 129.0 L 196.0 129.0 L 197.0 128.0 L 198.0 128.0 L 198.0 128.0 L 199.0 127.0 L 199.0 127.0 L 199.0 128.0 L 199.0 128.0 " stroke="black" fill="none" stroke-width="5.0" stroke-linecap="round" stroke-linejoin="round" />
<path d="M 77.0 156.0 L 77.0 156.0 L 77.0 156.0 L 77.0 156.0 L 77.0 155.0 L 77.0 155.0 L 77.0 155.0 L 78.0 155.0 L 78.0 154.0 L 78.0 154.0 L 78.0 154.0 L 79.0 154.0 L 79.0 154.0 L 80.0 154.0 L 80.0 154.0 L 81.0 154.0 L 81.0 154.0 L 82.0 154.0 L 83.0 154.0 L 84.0 154.0 L 85.0 154.0 L 85.0 154.0 L 86.0 154.0 L 87.0 154.0 L 88.0 155.0 L 89.0 155.0 L 90.0 155.0 L 91.0 155.0 L 91.0 156.0 L 92.0 156.0 L 93.0 156.0 L 94.0 156.0 L 95.0 156.0 L 95.0 156.0 L 96.0 156.0 L 97.0 156.0 L 98.0 156.0 L 98.0 157.0 L 99.0 157.0 L 100.0 157.0 L 100.0 157.0 L 101.0 157.0 L 102.0 157.0 L 102.0 157.0 L 103.0 157.0 L 104.0 157.0 L 105.0 157.0 L 105.0 157.0 L 106.0 157.0 L 107.0 157.0 L 108.0 157.0 L 108.0 157.0 L 109.0 157.0 L 110.0 157.0 L 110.0 157.0 L 111.0 157.0 L 112.0 157.0 L 112.0 157.0 L 113.0 157.0 L 113.0 157.0 L 114.0 157.0 L 115.0 157.0 L 115.0 157.0 L 116.0 157.0 L 117.0 157.0 L 118.0 157.0 L 118.0 157.0 L 119.0 157.0 L 120.0 157.0 L 121.0 157.0 L 122.0 157.0 L 123.0 157.0 L 124.0 157.0 L 125.0 157.0 L 126.0 157.0 L 126.0 157.0 L 127.0 157.0 L 128.0 157.0 L 129.0 157.0 L 130.0 157.0 L 131.0 157.0 L 132.0 157.0 L 133.0 157.0 L 134.0 157.0 L 135.0 157.0 L 136.0 157.0 L 137.0 157.0 L 137.0 157.0 L 138.0 157.0 L 139.0 157.0 L 140.0 157.0 L 141.0 157.0 L 142.0 157.0 L 143.0 157.0 L 143.0 157.0 L 144.0 157.0 L 145.0 156.0 L 146.0 156.0 L 146.0 156.0 L 147.0 156.0 L 148.0 156.0 L 148.0 156.0 L 149.0 156.0 L 149.0 156.0 L 150.0 156.0 L 150.0 156.0 L 151.0 156.0 L 151.0 156.0 L 152.0 156.0 L 152.0 156.0 L 152.0 156.0 L 153.0 155.0 L 153.0 155.0 L 153.0 155.0 L 153.0 155.0 L 154.0 155.0 L 154.0 155.0 L 155.0 155.0 L 155.0 155.0 L 156.0 155.0 L 156.0 155.0 L 157.0 155.0 L 157.0 155.0 L 158.0 155.0 L 158.0 155.0 L 159.0 155.0 L 160.0 155.0 L 160.0 155.0 L 161.0 155.0 L 162.0 155.0 L 162.0 155.0 L 163.0 155.0 L 164.0 155.0 L 165.0 155.0 L 166.0 155.0 L 167.0 155.0 L 168.0 155.0 L 169.0 155.0 L 170.0 155.0 L 171.0 155.0 L 172.0 155.0 L 173.0 155.0 L 175.0 155.0 L 176.0 155.0 L 177.0 155.0 L 178.0 155.0 L 179.0 155.0 L 180.0 155.0 L 182.0 155.0 L 183.0 155.0 L 184.0 155.0 L 186.0 156.0 L 187.0 156.0 L 188.0 156.0 L 190.0 157.0 L 191.0 157.0 L 193.0 157.0 L 194.0 157.0 L 195.0 157.0 L 197.0 157.0 L 198.0 157.0 L 200.0 157.0 L 202.0 157.0 L 204.0 157.0 L 206.0 157.0 L 208.0 157.0 L 211.0 157.0 L 214.0 157.0 L 216.0 157.0 L 218.0 157.0 " stroke="black" fill="none" stroke-width="5.0" stroke-linecap="round" stroke-linejoin="round" />
<path d="M 148.0 74.0 L 148.0 74.0 L 148.0 74.0 L 148.0 75.0 L 148.0 75.0 L 148.0 76.0 L 148.0 76.0 L 148.0 77.0 L 149.0 77.0 L 149.0 78.0 L 149.0 80.0 L 149.0 81.0 L 149.0 84.0 L 149.0 87.0 L 149.0 92.0 L 149.0 97.0 L 149.0 103.0 L 149.0 110.0 L 149.0 116.0 L 149.0 121.0 L 149.0 126.0 L 149.0 131.0 L 150.0 136.0 L 150.0 141.0 L 150.0 146.0 L 150.0 150.0 L 150.0 154.0 L 150.0 157.0 L 150.0 160.0 L 150.0 162.0 L 150.0 164.0 L 151.0 165.0 L 151.0 166.0 L 151.0 166.0 L 151.0 166.0 L 151.0 165.0 L 151.0 165.0 " stroke="black" fill="none" stroke-width="5.0" stroke-linecap="round" stroke-linejoin="round" />
<path d="M 62.0 175.0 L 62.0 175.0 L 62.0 175.0 L 62.0 175.0 L 62.0 175.0 L 62.0 175.0 L 61.0 175.0 L 61.0 175.0 L 61.0 175.0 L 61.0 175.0 L 61.0 175.0 L 61.0 175.0 L 61.0 175.0 L 61.0 175.0 L 61.0 175.0 L 62.0 175.0 L 62.0 175.0 L 64.0 175.0 L 65.0 175.0 L 66.0 175.0 L 68.0 175.0 L 69.0 175.0 L 71.0 175.0 L 72.0 175.0 L 74.0 175.0 L 76.0 175.0 L 77.0 175.0 L 79.0 175.0 L 80.0 175.0 L 82.0 175.0 L 83.0 175.0 L 85.0 175.0 L 87.0 175.0 L 89.0 175.0 L 90.0 175.0 L 92.0 175.0 L 94.0 176.0 L 95.0 176.0 L 97.0 176.0 L 98.0 176.0 L 100.0 176.0 L 101.0 176.0 L 102.0 176.0 L 103.0 176.0 L 104.0 177.0 L 105.0 177.0 L 106.0 177.0 L 107.0 177.0 L 108.0 177.0 L 109.0 177.0 L 110.0 177.0 L 110.0 177.0 L 111.0 177.0 L 112.0 177.0 L 113.0 177.0 L 114.0 177.0 L 115.0 177.0 L 116.0 177.0 L 117.0 177.0 L 118.0 177.0 L 119.0 177.0 L 120.0 177.0 L 121.0 177.0 L 123.0 177.0 L 124.0 177.0 L 126.0 177.0 L 127.0 177.0 L 129.0 177.0 L 130.0 177.0 L 132.0 177.0 L 134.0 177.0 L 136.0 177.0 L 137.0 177.0 L 139.0 177.0 L 141.0 177.0 L 142.0 177.0 L 144.0 177.0 L 145.0 177.0 L 147.0 177.0 L 148.0 176.0 L 149.0 176.0 L 150.0 176.0 L 151.0 176.0 L 152.0 176.0 L 152.0 176.0 L 153.0 176.0 L 154.0 175.0 L 155.0 175.0 L 155.0 175.0 L 156.0 175.0 L 157.0 175.0 L 158.0 175.0 L 159.0 175.0 L 160.0 175.0 L 161.0 175.0 L 162.0 174.0 L 163.0 174.0 L 165.0 174.0 L 166.0 174.0 L 167.0 174.0 L 168.0 174.0 L 169.0 174.0 L 170.0 174.0 L 171.0 174.0 L 173.0 174.0 L 174.0 174.0 L 175.0 174.0 L 176.0 174.0 L 177.0 174.0 L 178.0 174.0 L 180.0 174.0 L 181.0 174.0 L 182.0 174.0 L 183.0 174.0 L 184.0 174.0 L 185.0 174.0 L 186.0 174.0 L 187.0 174.0 L 187.0 174.0 L 188.0 174.0 L 189.0 174.0 L 190.0 174.0 L 190.0 174.0 L 191.0 175.0 L 192.0 175.0 L 193.0 175.0 L 194.0 175.0 L 194.0 175.0 L 195.0 175.0 L 196.0 176.0 L 197.0 176.0 L 198.0 176.0 L 199.0 176.0 L 200.0 176.0 L 201.0 177.0 L 202.0 177.0 L 203.0 177.0 L 204.0 177.0 L 206.0 178.0 L 207.0 178.0 L 209.0 178.0 L 211.0 178.0 L 212.0 179.0 L 215.0 179.0 L 217.0 180.0 L 219.0 180.0 L 221.0 180.0 L 223.0 180.0 L 225.0 180.0 L 227.0 181.0 L 228.0 181.0 L 230.0 181.0 L 231.0 181.0 L 233.0 181.0 L 234.0 181.0 L 234.0 181.0 L 235.0 181.0 L 235.0 181.0 L 236.0 181.0 L 236.0 181.0 " stroke="black" fill="none" stroke-width="5.0" stroke-linecap="round" stroke-linejoin="round" />
<path d="M 97.0 201.0 L 97.0 201.0 L 97.0 201.0 L 97.0 201.0 L 97.0 200.0 L 97.0 200.0 L 97.0 199.0 L 97.0 199.0 L 97.0 199.0 L 97.0 198.0 L 97.0 198.0 L 97.0 198.0 L 97.0 198.0 L 97.0 200.0 L 97.0 202.0 L 97.0 205.0 L 98.0 209.0 L 98.0 214.0 L 98.0 220.0 L 98.0 227.0 L 98.0 233.0 L 98.0 238.0 L 98.0 242.0 L 98.0 243.0 L 98.0 243.0 L 98.0 242.0 " stroke="black" fill="none" stroke-width="5.0" stroke-linecap="round" stroke-linejoin="round" />
<path d="M 98.0 200.0 L 98.0 200.0 L 98.0 200.0 L 98.0 200.0 L 98.0 200.0 L 98.0 200.0 L 97.0 200.0 L 97.0 200.0 L 97.0 200.0 L 97.0 200.0 L 97.0 200.0 L 97.0 200.0 L 97.0 200.0 L 97.0 200.0 L 97.0 200.0 L 97.0 200.0 L 97.0 200.0 L 97.0 200.0 L 97.0 200.0 L 97.0 200.0 L 97.0 200.0 L 97.0 200.0 L 98.0 200.0 L 99.0 200.0 L 99.0 200.0 L 100.0 200.0 L 101.0 200.0 L 102.0 200.0 L 103.0 200.0 L 104.0 200.0 L 105.0 200.0 L 106.0 200.0 L 107.0 200.0 L 108.0 200.0 L 110.0 200.0 L 111.0 200.0 L 112.0 200.0 L 114.0 200.0 L 115.0 200.0 L 117.0 200.0 L 118.0 200.0 L 120.0 200.0 L 121.0 200.0 L 123.0 200.0 L 124.0 200.0 L 126.0 200.0 L 128.0 200.0 L 129.0 200.0 L 131.0 200.0 L 132.0 199.0 L 134.0 199.0 L 135.0 199.0 L 137.0 199.0 L 138.0 199.0 L 140.0 199.0 L 141.0 199.0 L 143.0 199.0 L 144.0 199.0 L 145.0 199.0 L 147.0 199.0 L 148.0 199.0 L 149.0 199.0 L 150.0 199.0 L 151.0 199.0 L 152.0 199.0 L 153.0 199.0 L 154.0 199.0 L 155.0 199.0 L 156.0 199.0 L 156.0 199.0 L 157.0 199.0 L 158.0 199.0 L 159.0 199.0 L 160.0 199.0 L 161.0 199.0 L 163.0 199.0 L 164.0 199.0 L 165.0 199.0 L 166.0 199.0 L 167.0 199.0 L 168.0 200.0 L 170.0 200.0 L 171.0 200.0 L 172.0 200.0 L 174.0 200.0 L 175.0 200.0 L 177.0 200.0 L 178.0 200.0 L 179.0 200.0 L 180.0 200.0 L 182.0 201.0 L 183.0 201.0 L 184.0 201.0 L 185.0 201.0 L 186.0 201.0 L 187.0 201.0 L 188.0 201.0 L 189.0 201.0 L 190.0 201.0 L 191.0 201.0 L 191.0 201.0 L 192.0 201.0 L 193.0 202.0 L 193.0 202.0 L 194.0 202.0 L 194.0 202.0 L 195.0 202.0 L 196.0 202.0 L 196.0 202.0 L 197.0 203.0 L 197.0 203.0 L 198.0 203.0 L 199.0 203.0 L 199.0 203.0 L 200.0 203.0 L 200.0 203.0 L 201.0 203.0 L 201.0 203.0 L 202.0 203.0 L 202.0 204.0 L 203.0 204.0 L 203.0 204.0 L 203.0 204.0 L 204.0 204.0 L 204.0 204.0 L 204.0 204.0 L 205.0 204.0 L 205.0 205.0 L 205.0 205.0 L 205.0 206.0 L 205.0 206.0 L 205.0 207.0 L 205.0 209.0 L 205.0 210.0 L 205.0 213.0 L 204.0 215.0 L 204.0 219.0 L 203.0 223.0 L 203.0 228.0 L 203.0 232.0 L 202.0 237.0 L 202.0 240.0 L 202.0 244.0 L 202.0 247.0 L 201.0 248.0 L 201.0 249.0 L 201.0 250.0 L 201.0 250.0 L 201.0 250.0 L 201.0 250.0 L 201.0 250.0 L 201.0 250.0 " stroke="black" fill="none" stroke-width="5.0" stroke-linecap="round" stroke-linejoin="round" />
<path d="M 106.0 222.0 L 106.0 222.0 L 106.0 221.0 L 106.0 221.0 L 106.0 221.0 L 106.0 220.0 L 106.0 220.0 L 106.0 220.0 L 106.0 219.0 L 106.0 219.0 L 106.0 219.0 L 106.0 219.0 L 106.0 219.0 L 106.0 219.0 L 106.0 219.0 L 106.0 219.0 L 106.0 220.0 L 106.0 220.0 L 106.0 220.0 L 106.0 220.0 L 106.0 220.0 L 106.0 220.0 L 106.0 220.0 L 107.0 220.0 L 107.0 220.0 L 107.0 220.0 L 107.0 220.0 L 108.0 220.0 L 108.0 220.0 L 109.0 220.0 L 110.0 220.0 L 110.0 220.0 L 111.0 220.0 L 112.0 220.0 L 114.0 220.0 L 115.0 220.0 L 116.0 220.0 L 117.0 220.0 L 118.0 220.0 L 119.0 220.0 L 120.0 220.0 L 121.0 220.0 L 122.0 221.0 L 123.0 221.0 L 125.0 221.0 L 126.0 221.0 L 127.0 221.0 L 129.0 221.0 L 130.0 221.0 L 132.0 221.0 L 133.0 222.0 L 135.0 222.0 L 136.0 222.0 L 137.0 222.0 L 139.0 222.0 L 140.0 222.0 L 141.0 222.0 L 142.0 222.0 L 144.0 222.0 L 145.0 222.0 L 146.0 222.0 L 147.0 221.0 L 148.0 221.0 L 149.0 221.0 L 150.0 221.0 L 151.0 221.0 L 152.0 221.0 L 153.0 221.0 L 153.0 221.0 L 154.0 221.0 L 155.0 221.0 L 156.0 221.0 L 156.0 220.0 L 157.0 220.0 L 158.0 220.0 L 158.0 220.0 L 159.0 220.0 L 160.0 220.0 L 160.0 220.0 L 161.0 220.0 L 162.0 220.0 L 163.0 220.0 L 164.0 221.0 L 165.0 221.0 L 166.0 221.0 L 167.0 221.0 L 168.0 221.0 L 169.0 222.0 L 170.0 222.0 L 171.0 222.0 L 172.0 222.0 L 173.0 223.0 L 174.0 223.0 L 176.0 223.0 L 177.0 223.0 L 178.0 223.0 L 180.0 223.0 L 181.0 223.0 L 182.0 223.0 L 184.0 223.0 L 185.0 223.0 L 186.0 223.0 L 187.0 223.0 L 188.0 223.0 L 188.0 223.0 L 189.0 224.0 L 189.0 224.0 L 190.0 224.0 " stroke="black" fill="none" stroke-width="5.0" stroke-linecap="round" stroke-linejoin="round" />
<path d="M 103.0 251.0 L 103.0 251.0 L 103.0 251.0 L 102.0 251.0 L 102.0 252.0 L 101.0 252.0 L 101.0 252.0 L 101.0 252.0 L 101.0 252.0 L 102.0 252.0 L 103.0 252.0 L 104.0 251.0 L 105.0 251.0 L 106.0 250.0 L 106.0 250.0 L 107.0 250.0 L 108.0 250.0 L 109.0 250.0 L 110.0 250.0 L 111.0 250.0 L 112.0 250.0 L 114.0 250.0 L 116.0 250.0 L 117.0 250.0 L 119.0 250.0 L 121.0 250.0 L 123.0 250.0 L 124.0 250.0 L 126.0 250.0 L 128.0 250.0 L 130.0 250.0 L 132.0 250.0 L 133.0 250.0 L 135.0 250.0 L 137.0 250.0 L 138.0 250.0 L 140.0 250.0 L 142.0 250.0 L 144.0 251.0 L 145.0 251.0 L 147.0 251.0 L 148.0 251.0 L 150.0 252.0 L 151.0 252.0 L 153.0 252.0 L 154.0 253.0 L 155.0 253.0 L 157.0 253.0 L 158.0 253.0 L 160.0 253.0 L 162.0 253.0 L 164.0 253.0 L 167.0 253.0 L 169.0 253.0 L 172.0 253.0 L 175.0 253.0 L 178.0 253.0 L 180.0 253.0 L 183.0 253.0 L 186.0 252.0 L 188.0 252.0 L 190.0 252.0 L 192.0 251.0 L 194.0 251.0 L 195.0 250.0 L 196.0 250.0 L 197.0 250.0 L 197.0 249.0 L 198.0 249.0 L 198.0 249.0 L 198.0 249.0 L 198.0 249.0 L 198.0 249.0 L 198.0 249.0 L 198.0 250.0 " stroke="black" fill="none" stroke-width="5.0" stroke-linecap="round" stroke-linejoin="round" />
</svg>