<svg xmlns="http://www.w3.org/2000/svg" width="300" height="300" viewBox="0 0 300 300">
<path d="M 71.0 86.0 L 71.0 86.0 L 71.0 86.0 L 71.0 87.0 L 71.0 87.0 L 71.0 87.0 L 71.0 87.0 L 71.0 88.0 L 71.0 88.0 L 71.0 89.0 L 71.0 90.0 L 71.0 92.0 L 71.0 95.0 L 72.0 98.0 L 72.0 101.0 L 72.0 105.0 L 72.0 110.0 L 72.0 114.0 L 72.0 118.0 L 72.0 121.0 L 72.0 124.0 L 73.0 128.0 L 73.0 131.0 L 73.0 134.0 L 73.0 137.0 L 73.0 139.0 L 73.0 144.0 L 73.0 148.0 L 73.0 151.0 L 73.0 154.0 L 72.0 157.0 L 72.0 159.0 L 72.0 161.0 L 72.0 163.0 L 72.0 165.0 L 72.0 167.0 L 72.0 169.0 L 72.0 171.0 L 72.0 173.0 L 72.0 175.0 L 72.0 178.0 L 72.0 181.0 L 72.0 184.0 L 72.0 187.0 L 72.0 190.0 L 72.0 193.0 L 72.0 195.0 L 72.0 198.0 L 72.0 201.0 L 72.0 203.0 L 72.0 206.0 L 72.0 208.0 L 72.0 211.0 L 72.0 212.0 L 72.0 214.0 L 72.0 215.0 L 72.0 215.0 L 72.0 215.0 " stroke="black" fill="none" stroke-width="5.0" stroke-linecap="round" stroke-linejoin="round" />
<path d="M 79.0 85.0 L 79.0 85.0 L 77.0 85.0 L 77.0 85.0 L 76.0 86.0 L 75.0 86.0 L 75.0 86.0 L 75.0 86.0 L 75.0 86.0 L 75.0 86.0 L 75.0 86.0 L 76.0 86.0 L 76.0 86.0 L 77.0 86.0 L 77.0 86.0 L 78.0 86.0 L 78.0 86.0 L 79.0 86.0 L 80.0 86.0 L 82.0 86.0 L 84.0 86.0 L 86.0 86.0 L 88.0 86.0 L 91.0 86.0 L 94.0 86.0 L 96.0 85.0 L 99.0 85.0 L 101.0 85.0 L 103.0 85.0 L 105.0 85.0 L 106.0 85.0 L 107.0 85.0 L 108.0 85.0 L 108.0 85.0 L 109.0 86.0 L 110.0 86.0 L 110.0 86.0 L 110.0 86.0 L 111.0 87.0 L 111.0 87.0 L 111.0 87.0 L 111.0 88.0 L 111.0 89.0 L 111.0 90.0 L 111.0 91.0 L 111.0 93.0 L 111.0 95.0 L 111.0 97.0 L 111.0 100.0 L 111.0 103.0 L 111.0 107.0 L 111.0 111.0 L 111.0 116.0 L 111.0 120.0 L 111.0 125.0 L 111.0 130.0 L 111.0 135.0 L 111.0 141.0 L 111.0 147.0 L 111.0 152.0 L 111.0 157.0 L 111.0 161.0 L 111.0 164.0 L 111.0 168.0 L 110.0 171.0 L 110.0 174.0 L 110.0 176.0 L 110.0 179.0 L 110.0 181.0 L 110.0 183.0 L 109.0 186.0 L 109.0 188.0 L 109.0 190.0 L 109.0 192.0 L 109.0 193.0 L 108.0 195.0 L 108.0 196.0 L 108.0 196.0 L 108.0 197.0 L 108.0 198.0 L 108.0 199.0 L 108.0 199.0 L 108.0 200.0 L 108.0 201.0 L 108.0 202.0 L 108.0 203.0 L 108.0 204.0 L 108.0 205.0 L 108.0 206.0 L 108.0 207.0 L 108.0 207.0 L 108.0 208.0 L 108.0 208.0 L 108.0 209.0 L 108.0 209.0 L 108.0 209.0 L 108.0 210.0 L 108.0 210.0 L 108.0 211.0 L 108.0 211.0 L 108.0 211.0 " stroke="black" fill="none" stroke-width="5.0" stroke-linecap="round" stroke-linejoin="round" />
<path d="M 76.0 148.0 L 76.0 148.0 L 75.0 148.0 L 74.0 148.0 L 74.0 148.0 L 73.0 148.0 L 73.0 148.0 L 73.0 148.0 L 74.0 149.0 L 77.0 149.0 L 80.0 149.0 L 85.0 149.0 L 87.0 149.0 L 95.0 148.0 L 101.0 147.0 L 105.0 146.0 L 109.0 145.0 " stroke="black" fill="none" stroke-width="5.0" stroke-linecap="round" stroke-linejoin="round" />
<path d="M 70.0 211.0 L 70.0 211.0 L 69.0 211.0 L 69.0 211.0 L 68.0 211.0 L 68.0 211.0 L 68.0 211.0 L 68.0 211.0 L 68.0 211.0 L 68.0 211.0 L 69.0 211.0 L 72.0 211.0 L 74.0 211.0 L 78.0 211.0 L 82.0 211.0 L 88.0 211.0 L 93.0 211.0 L 99.0 211.0 L 106.0 209.0 " stroke="black" fill="none" stroke-width="5.0" stroke-linecap="round" stroke-linejoin="round" />
<path d="M 143.0 97.0 L 142.0 97.0 L 141.0 97.0 L 140.0 97.0 L 140.0 97.0 L 139.0 98.0 L 139.0 98.0 L 138.0 98.0 L 138.0 98.0 L 138.0 98.0 L 139.0 98.0 L 140.0 98.0 L 142.0 98.0 L 144.0 98.0 L 147.0 98.0 L 150.0 99.0 L 154.0 100.0 L 160.0 100.0 L 167.0 101.0 L 175.0 101.0 L 184.0 101.0 L 191.0 101.0 L 197.0 100.0 L 202.0 99.0 L 206.0 98.0 L 210.0 98.0 L 214.0 97.0 L 218.0 97.0 L 221.0 97.0 L 223.0 98.0 L 225.0 99.0 L 227.0 100.0 " stroke="black" fill="none" stroke-width="5.0" stroke-linecap="round" stroke-linejoin="round" />
<path d="M 192.0 77.0 L 192.0 77.0 L 191.0 76.0 L 191.0 75.0 L 191.0 75.0 L 190.0 74.0 L 190.0 74.0 L 190.0 74.0 L 190.0 75.0 L 190.0 78.0 L 190.0 81.0 L 190.0 85.0 L 190.0 90.0 L 189.0 96.0 L 189.0 103.0 L 189.0 111.0 L 188.0 119.0 L 187.0 125.0 L 187.0 130.0 L 186.0 135.0 L 186.0 138.0 L 185.0 141.0 L 185.0 142.0 L 185.0 142.0 " stroke="black" fill="none" stroke-width="5.0" stroke-linecap="round" stroke-linejoin="round" />
<path d="M 155.0 140.0 L 155.0 140.0 L 154.0 140.0 L 153.0 139.0 L 153.0 139.0 L 152.0 139.0 L 152.0 139.0 L 152.0 139.0 L 152.0 139.0 L 152.0 139.0 L 152.0 139.0 L 152.0 139.0 L 153.0 139.0 L 155.0 139.0 L 157.0 139.0 L 160.0 139.0 L 164.0 139.0 L 169.0 140.0 L 175.0 141.0 L 182.0 141.0 L 188.0 141.0 L 195.0 141.0 L 201.0 140.0 L 207.0 139.0 L 213.0 137.0 L 219.0 136.0 L 224.0 136.0 L 227.0 136.0 L 229.0 138.0 " stroke="black" fill="none" stroke-width="5.0" stroke-linecap="round" stroke-linejoin="round" />
<path d="M 144.0 171.0 L 144.0 171.0 L 144.0 171.0 L 144.0 171.0 L 144.0 171.0 L 143.0 171.0 L 143.0 171.0 L 143.0 171.0 L 143.0 171.0 L 143.0 171.0 L 143.0 171.0 L 143.0 171.0 L 143.0 170.0 L 144.0 170.0 L 144.0 170.0 L 145.0 170.0 L 146.0 170.0 L 147.0 170.0 L 148.0 170.0 L 150.0 170.0 L 151.0 170.0 L 152.0 170.0 L 154.0 170.0 L 156.0 170.0 L 159.0 170.0 L 161.0 170.0 L 164.0 171.0 L 167.0 171.0 L 170.0 171.0 L 174.0 171.0 L 177.0 171.0 L 181.0 171.0 L 184.0 171.0 L 187.0 171.0 L 190.0 171.0 L 193.0 171.0 L 195.0 171.0 L 197.0 171.0 L 199.0 171.0 L 201.0 171.0 L 203.0 171.0 L 205.0 171.0 L 208.0 171.0 L 211.0 171.0 L 214.0 171.0 L 217.0 171.0 L 220.0 170.0 L 223.0 170.0 L 225.0 170.0 L 228.0 170.0 L 229.0 170.0 L 231.0 170.0 L 233.0 170.0 L 234.0 170.0 L 235.0 170.0 L 237.0 170.0 L 238.0 170.0 L 239.0 171.0 L 240.0 171.0 L 241.0 171.0 L 241.0 171.0 L 242.0 171.0 L 243.0 171.0 L 243.0 171.0 L 244.0 171.0 L 244.0 171.0 " stroke="black" fill="none" stroke-width="5.0" stroke-linecap="round" stroke-linejoin="round" />
<path d="M 223.0 148.0 L 223.0 148.0 L 222.0 148.0 L 221.0 147.0 L 220.0 147.0 L 220.0 147.0 L 220.0 147.0 L 220.0 147.0 L 220.0 147.0 L 220.0 148.0 L 220.0 150.0 L 220.0 152.0 L 221.0 154.0 L 221.0 156.0 L 221.0 159.0 L 221.0 162.0 L 221.0 166.0 L 221.0 170.0 L 221.0 174.0 L 220.0 179.0 L 220.0 183.0 L 219.0 188.0 L 219.0 192.0 L 218.0 196.0 L 217.0 199.0 L 216.0 203.0 L 216.0 206.0 L 215.0 208.0 L 214.0 211.0 L 214.0 213.0 L 213.0 215.0 L 213.0 217.0 L 212.0 219.0 L 212.0 221.0 L 211.0 223.0 L 211.0 225.0 L 210.0 227.0 L 210.0 229.0 L 209.0 231.0 L 209.0 232.0 L 208.0 234.0 L 208.0 236.0 L 207.0 237.0 L 207.0 239.0 L 206.0 240.0 L 206.0 241.0 L 205.0 242.0 L 205.0 243.0 L 205.0 244.0 L 204.0 245.0 L 204.0 246.0 L 204.0 247.0 L 203.0 248.0 L 203.0 248.0 L 203.0 249.0 L 203.0 250.0 L 202.0 250.0 L 202.0 251.0 L 202.0 251.0 L 202.0 251.0 L 201.0 252.0 L 201.0 252.0 L 201.0 252.0 L 200.0 252.0 L 200.0 252.0 L 199.0 252.0 L 199.0 252.0 L 198.0 252.0 L 197.0 252.0 L 196.0 252.0 L 195.0 252.0 L 194.0 251.0 L 193.0 251.0 L 191.0 250.0 L 189.0 250.0 L 187.0 249.0 L 184.0 248.0 L 181.0 247.0 L 178.0 245.0 L 175.0 243.0 L 173.0 241.0 " stroke="black" fill="none" stroke-width="5.0" stroke-linecap="round" stroke-linejoin="round" />
<path d="M 150.0 204.0 L 150.0 204.0 L 150.0 204.0 L 149.0 203.0 L 149.0 203.0 L 148.0 202.0 L 148.0 202.0 L 148.0 201.0 L 148.0 201.0 L 148.0 201.0 L 148.0 201.0 L 149.0 201.0 L 151.0 201.0 L 152.0 203.0 L 154.0 206.0 L 157.0 209.0 L 159.0 212.0 L 162.0 215.0 L 165.0 219.0 L 168.0 223.0 L 170.0 226.0 L 171.0 227.0 " stroke="black" fill="none" stroke-width="5.0" stroke-linecap="round" stroke-linejoin="round" />
</svg>