<svg xmlns="http://www.w3.org/2000/svg" width="300" height="300" viewBox="0 0 300 300">
<path d="M 70.0 100.0 L 70.0 99.0 L 70.0 98.0 L 69.0 97.0 L 69.0 97.0 L 69.0 97.0 L 69.0 98.0 L 69.0 100.0 L 69.0 104.0 L 70.0 109.0 L 70.0 115.0 L 71.0 122.0 L 71.0 131.0 L 71.0 143.0 L 71.0 156.0 L 71.0 171.0 L 71.0 187.0 L 70.0 199.0 L 69.0 207.0 L 69.0 213.0 L 69.0 215.0 L 69.0 215.0 L 69.0 215.0 " stroke="black" fill="none" stroke-width="5.0" stroke-linecap="round" stroke-linejoin="round" />
<path d="M 74.0 93.0 L 74.0 93.0 L 72.0 93.0 L 70.0 93.0 L 69.0 93.0 L 68.0 92.0 L 68.0 92.0 L 68.0 92.0 L 68.0 91.0 L 69.0 91.0 L 71.0 90.0 L 73.0 89.0 L 76.0 88.0 L 79.0 88.0 L 83.0 87.0 L 87.0 87.0 L 91.0 87.0 L 95.0 87.0 L 99.0 87.0 L 102.0 87.0 L 105.0 88.0 L 107.0 89.0 L 109.0 90.0 L 110.0 92.0 L 111.0 95.0 L 112.0 100.0 L 112.0 106.0 L 113.0 112.0 L 113.0 119.0 L 114.0 127.0 L 115.0 135.0 L 116.0 145.0 L 117.0 155.0 L 117.0 164.0 L 117.0 174.0 L 117.0 185.0 L 117.0 194.0 L 117.0 201.0 L 116.0 207.0 L 115.0 210.0 L 114.0 212.0 L 114.0 214.0 L 113.0 214.0 L 112.0 213.0 " stroke="black" fill="none" stroke-width="5.0" stroke-linecap="round" stroke-linejoin="round" />
<path d="M 72.0 155.0 L 71.0 155.0 L 70.0 155.0 L 69.0 154.0 L 69.0 154.0 L 69.0 153.0 L 71.0 153.0 L 76.0 152.0 L 81.0 152.0 L 89.0 151.0 L 96.0 150.0 L 103.0 150.0 L 110.0 151.0 L 115.0 152.0 L 119.0 154.0 L 121.0 155.0 " stroke="black" fill="none" stroke-width="5.0" stroke-linecap="round" stroke-linejoin="round" />
<path d="M 81.0 205.0 L 76.0 207.0 L 72.0 210.0 L 69.0 212.0 L 68.0 213.0 L 68.0 214.0 L 68.0 214.0 L 71.0 214.0 L 75.0 214.0 L 80.0 214.0 L 87.0 214.0 L 95.0 213.0 L 102.0 212.0 L 109.0 210.0 L 112.0 209.0 " stroke="black" fill="none" stroke-width="5.0" stroke-linecap="round" stroke-linejoin="round" />
<path d="M 178.0 75.0 L 178.0 75.0 L 178.0 76.0 L 178.0 77.0 L 178.0 78.0 L 178.0 79.0 L 180.0 81.0 L 183.0 83.0 L 184.0 84.0 " stroke="black" fill="none" stroke-width="5.0" stroke-linecap="round" stroke-linejoin="round" />
<path d="M 150.0 103.0 L 149.0 103.0 L 146.0 103.0 L 143.0 103.0 L 140.0 103.0 L 139.0 103.0 L 138.0 103.0 L 138.0 103.0 L 140.0 103.0 L 143.0 103.0 L 147.0 103.0 L 152.0 103.0 L 159.0 103.0 L 168.0 103.0 L 177.0 103.0 L 187.0 103.0 L 196.0 103.0 L 204.0 104.0 L 212.0 104.0 L 219.0 105.0 L 222.0 105.0 " stroke="black" fill="none" stroke-width="5.0" stroke-linecap="round" stroke-linejoin="round" />
<path d="M 160.0 118.0 L 157.0 119.0 L 155.0 119.0 L 153.0 120.0 L 153.0 121.0 L 153.0 122.0 L 155.0 123.0 L 158.0 125.0 L 162.0 127.0 L 168.0 129.0 L 174.0 131.0 L 181.0 132.0 " stroke="black" fill="none" stroke-width="5.0" stroke-linecap="round" stroke-linejoin="round" />
<path d="M 213.0 114.0 L 211.0 115.0 L 208.0 116.0 L 207.0 117.0 L 205.0 118.0 L 203.0 120.0 L 202.0 123.0 L 200.0 125.0 L 198.0 128.0 L 197.0 130.0 L 196.0 133.0 L 194.0 136.0 L 192.0 138.0 L 190.0 140.0 L 186.0 143.0 " stroke="black" fill="none" stroke-width="5.0" stroke-linecap="round" stroke-linejoin="round" />
<path d="M 146.0 146.0 L 143.0 146.0 L 139.0 145.0 L 136.0 145.0 L 134.0 145.0 L 132.0 145.0 L 132.0 145.0 L 132.0 145.0 L 134.0 145.0 L 137.0 145.0 L 142.0 145.0 L 147.0 145.0 L 154.0 145.0 L 163.0 145.0 L 175.0 145.0 L 187.0 143.0 L 198.0 141.0 L 210.0 138.0 L 219.0 137.0 L 226.0 137.0 L 231.0 137.0 L 234.0 139.0 L 235.0 143.0 " stroke="black" fill="none" stroke-width="5.0" stroke-linecap="round" stroke-linejoin="round" />
<path d="M 152.0 182.0 L 151.0 182.0 L 151.0 182.0 L 150.0 182.0 L 150.0 182.0 L 150.0 184.0 L 150.0 187.0 L 150.0 192.0 L 151.0 197.0 L 151.0 203.0 L 152.0 211.0 L 152.0 218.0 L 152.0 226.0 L 152.0 234.0 L 152.0 238.0 L 152.0 240.0 L 152.0 241.0 " stroke="black" fill="none" stroke-width="5.0" stroke-linecap="round" stroke-linejoin="round" />
<path d="M 156.0 178.0 L 156.0 178.0 L 155.0 178.0 L 155.0 177.0 L 155.0 177.0 L 155.0 176.0 L 155.0 176.0 L 155.0 176.0 L 155.0 175.0 L 157.0 175.0 L 161.0 174.0 L 165.0 173.0 L 170.0 172.0 L 177.0 171.0 L 184.0 170.0 L 190.0 169.0 L 195.0 169.0 L 199.0 169.0 L 203.0 169.0 L 206.0 169.0 L 209.0 170.0 L 211.0 171.0 L 213.0 172.0 L 214.0 174.0 L 215.0 176.0 L 216.0 178.0 L 217.0 181.0 L 217.0 185.0 L 218.0 190.0 L 218.0 195.0 L 218.0 201.0 L 218.0 208.0 L 218.0 214.0 L 217.0 221.0 L 216.0 228.0 L 216.0 234.0 L 215.0 238.0 L 215.0 241.0 L 214.0 242.0 L 212.0 242.0 L 210.0 242.0 L 208.0 242.0 " stroke="black" fill="none" stroke-width="5.0" stroke-linecap="round" stroke-linejoin="round" />
<path d="M 158.0 209.0 L 157.0 209.0 L 156.0 208.0 L 155.0 208.0 L 155.0 207.0 L 155.0 207.0 L 157.0 206.0 L 162.0 206.0 L 168.0 205.0 L 175.0 204.0 L 182.0 204.0 L 189.0 203.0 L 196.0 203.0 L 202.0 202.0 L 206.0 202.0 L 211.0 202.0 L 213.0 203.0 L 214.0 204.0 " stroke="black" fill="none" stroke-width="5.0" stroke-linecap="round" stroke-linejoin="round" />
<path d="M 161.0 244.0 L 158.0 244.0 L 155.0 245.0 L 153.0 245.0 L 153.0 245.0 L 153.0 245.0 L 155.0 245.0 L 158.0 245.0 L 163.0 244.0 L 170.0 244.0 L 177.0 243.0 L 185.0 243.0 L 192.0 242.0 L 199.0 241.0 L 207.0 240.0 L 215.0 239.0 L 219.0 238.0 " stroke="black" fill="none" stroke-width="5.0" stroke-linecap="round" stroke-linejoin="round" />
</svg>