<svg xmlns="http://www.w3.org/2000/svg" width="300" height="300" viewBox="0 0 300 300">
<path d="M 71.0 116.0 L 71.0 116.0 L 70.0 116.0 L 69.0 116.0 L 68.0 115.0 L 67.0 115.0 L 67.0 115.0 L 66.0 114.0 L 66.0 114.0 L 66.0 114.0 L 66.0 114.0 L 66.0 114.0 L 67.0 114.0 L 69.0 114.0 L 71.0 115.0 L 75.0 115.0 L 80.0 115.0 L 85.0 116.0 L 91.0 116.0 L 97.0 116.0 L 102.0 116.0 L 107.0 116.0 L 111.0 116.0 L 114.0 116.0 L 116.0 116.0 L 118.0 116.0 L 119.0 116.0 " stroke="black" fill="none" stroke-width="5.0" stroke-linecap="round" stroke-linejoin="round" />
<path d="M 98.0 76.0 L 98.0 76.0 L 98.0 76.0 L 98.0 76.0 L 98.0 76.0 L 98.0 76.0 L 97.0 77.0 L 97.0 77.0 L 97.0 78.0 L 97.0 80.0 L 97.0 82.0 L 97.0 84.0 L 97.0 88.0 L 98.0 93.0 L 98.0 98.0 L 98.0 104.0 L 98.0 110.0 L 98.0 115.0 L 98.0 121.0 L 98.0 125.0 L 98.0 130.0 L 98.0 135.0 L 98.0 139.0 L 98.0 144.0 L 98.0 149.0 L 98.0 154.0 L 98.0 158.0 L 98.0 163.0 L 98.0 167.0 L 98.0 170.0 L 98.0 174.0 L 98.0 178.0 L 98.0 181.0 L 98.0 186.0 L 98.0 190.0 L 98.0 194.0 L 98.0 199.0 L 98.0 204.0 L 98.0 210.0 L 98.0 216.0 L 98.0 222.0 L 98.0 228.0 L 98.0 233.0 L 98.0 236.0 L 98.0 238.0 L 98.0 239.0 L 98.0 239.0 L 98.0 239.0 L 98.0 239.0 " stroke="black" fill="none" stroke-width="5.0" stroke-linecap="round" stroke-linejoin="round" />
<path d="M 94.0 122.0 L 94.0 122.0 L 94.0 121.0 L 94.0 121.0 L 93.0 120.0 L 93.0 120.0 L 93.0 120.0 L 93.0 120.0 L 93.0 120.0 L 93.0 122.0 L 93.0 124.0 L 92.0 127.0 L 92.0 131.0 L 91.0 136.0 L 89.0 142.0 L 87.0 149.0 L 84.0 157.0 L 80.0 165.0 L 76.0 172.0 L 72.0 181.0 L 67.0 190.0 L 64.0 197.0 L 61.0 202.0 L 59.0 204.0 L 59.0 205.0 " stroke="black" fill="none" stroke-width="5.0" stroke-linecap="round" stroke-linejoin="round" />
<path d="M 97.0 138.0 L 97.0 138.0 L 97.0 137.0 L 97.0 137.0 L 97.0 137.0 L 97.0 137.0 L 97.0 137.0 L 97.0 138.0 L 98.0 140.0 L 99.0 142.0 L 100.0 145.0 L 102.0 149.0 L 104.0 153.0 L 106.0 156.0 L 109.0 160.0 L 112.0 162.0 L 116.0 164.0 " stroke="black" fill="none" stroke-width="5.0" stroke-linecap="round" stroke-linejoin="round" />
<path d="M 141.0 116.0 L 141.0 116.0 L 141.0 116.0 L 140.0 116.0 L 140.0 116.0 L 140.0 117.0 L 140.0 118.0 L 139.0 120.0 L 139.0 123.0 L 139.0 127.0 L 139.0 132.0 L 138.0 136.0 L 138.0 141.0 " stroke="black" fill="none" stroke-width="5.0" stroke-linecap="round" stroke-linejoin="round" />
<path d="M 145.0 113.0 L 145.0 113.0 L 145.0 113.0 L 145.0 113.0 L 144.0 114.0 L 144.0 114.0 L 144.0 114.0 L 144.0 114.0 L 144.0 114.0 L 144.0 114.0 L 144.0 114.0 L 144.0 114.0 L 144.0 114.0 L 145.0 114.0 L 146.0 114.0 L 147.0 114.0 L 148.0 114.0 L 150.0 114.0 L 151.0 114.0 L 153.0 114.0 L 154.0 114.0 L 157.0 113.0 L 159.0 113.0 L 161.0 113.0 L 163.0 113.0 L 165.0 113.0 L 167.0 113.0 L 169.0 113.0 L 170.0 113.0 L 172.0 113.0 L 173.0 113.0 L 175.0 113.0 L 176.0 113.0 L 178.0 113.0 L 179.0 113.0 L 181.0 113.0 L 182.0 113.0 L 184.0 113.0 L 185.0 113.0 L 186.0 113.0 L 187.0 113.0 L 188.0 113.0 L 189.0 113.0 L 190.0 113.0 L 191.0 113.0 L 191.0 113.0 L 192.0 114.0 L 193.0 114.0 L 194.0 114.0 L 194.0 114.0 L 195.0 114.0 L 196.0 114.0 L 196.0 114.0 L 197.0 114.0 L 198.0 114.0 L 199.0 114.0 L 200.0 114.0 L 201.0 114.0 L 202.0 114.0 L 203.0 114.0 L 205.0 114.0 L 206.0 114.0 L 207.0 114.0 L 208.0 114.0 L 209.0 114.0 L 210.0 114.0 L 210.0 114.0 L 211.0 114.0 L 212.0 114.0 L 213.0 114.0 L 214.0 114.0 L 215.0 114.0 L 217.0 114.0 L 218.0 114.0 L 219.0 114.0 L 219.0 114.0 L 220.0 114.0 L 221.0 114.0 L 222.0 114.0 L 223.0 114.0 L 223.0 114.0 L 224.0 114.0 L 225.0 115.0 L 225.0 115.0 L 226.0 115.0 L 227.0 115.0 L 227.0 115.0 L 228.0 115.0 L 229.0 115.0 L 229.0 115.0 L 230.0 116.0 L 230.0 116.0 L 231.0 116.0 L 231.0 116.0 L 232.0 116.0 L 232.0 116.0 L 233.0 116.0 L 233.0 116.0 L 233.0 116.0 L 234.0 116.0 L 234.0 116.0 L 234.0 116.0 L 234.0 117.0 L 234.0 118.0 L 234.0 120.0 L 234.0 122.0 L 234.0 125.0 L 233.0 129.0 L 232.0 133.0 L 231.0 137.0 L 230.0 141.0 L 230.0 144.0 " stroke="black" fill="none" stroke-width="5.0" stroke-linecap="round" stroke-linejoin="round" />
<path d="M 179.0 73.0 L 179.0 73.0 L 179.0 73.0 L 178.0 73.0 L 178.0 73.0 L 177.0 73.0 L 177.0 73.0 L 177.0 74.0 L 177.0 74.0 L 177.0 75.0 L 178.0 76.0 L 178.0 76.0 L 179.0 77.0 L 180.0 78.0 L 180.0 78.0 L 181.0 79.0 L 182.0 80.0 L 182.0 82.0 L 182.0 83.0 L 183.0 84.0 L 183.0 85.0 L 183.0 87.0 L 184.0 88.0 L 184.0 90.0 L 184.0 92.0 L 184.0 93.0 L 184.0 96.0 L 184.0 98.0 L 184.0 100.0 L 184.0 103.0 L 184.0 106.0 L 184.0 108.0 L 184.0 111.0 L 184.0 113.0 L 184.0 115.0 L 184.0 117.0 L 184.0 119.0 L 184.0 121.0 L 184.0 123.0 L 184.0 125.0 L 184.0 127.0 L 184.0 129.0 L 183.0 131.0 L 183.0 133.0 L 183.0 135.0 L 183.0 138.0 L 182.0 140.0 L 182.0 142.0 L 182.0 145.0 L 181.0 147.0 L 181.0 150.0 L 180.0 152.0 L 179.0 154.0 L 179.0 156.0 L 178.0 159.0 L 177.0 161.0 L 176.0 163.0 L 175.0 165.0 L 174.0 167.0 L 173.0 169.0 L 172.0 171.0 L 171.0 173.0 L 171.0 175.0 L 170.0 178.0 L 169.0 180.0 L 168.0 183.0 L 167.0 186.0 L 166.0 188.0 L 164.0 191.0 L 163.0 194.0 L 162.0 196.0 L 161.0 198.0 L 160.0 201.0 L 159.0 203.0 L 158.0 204.0 L 157.0 207.0 L 156.0 209.0 L 155.0 211.0 L 153.0 214.0 L 152.0 217.0 L 151.0 220.0 L 149.0 224.0 L 147.0 228.0 L 146.0 231.0 L 143.0 235.0 L 141.0 238.0 L 138.0 241.0 L 134.0 244.0 L 131.0 246.0 L 128.0 248.0 L 124.0 250.0 L 123.0 250.0 " stroke="black" fill="none" stroke-width="5.0" stroke-linecap="round" stroke-linejoin="round" />
<path d="M 191.0 156.0 L 191.0 156.0 L 191.0 156.0 L 191.0 156.0 L 190.0 156.0 L 190.0 156.0 L 190.0 156.0 L 189.0 156.0 L 189.0 156.0 L 189.0 156.0 L 189.0 157.0 L 189.0 158.0 L 189.0 159.0 L 189.0 160.0 L 189.0 161.0 L 189.0 163.0 L 189.0 165.0 L 189.0 168.0 L 189.0 171.0 L 189.0 175.0 L 189.0 178.0 L 189.0 182.0 L 189.0 186.0 L 189.0 189.0 L 189.0 193.0 L 189.0 195.0 L 189.0 198.0 L 189.0 200.0 L 189.0 203.0 L 189.0 205.0 L 189.0 207.0 L 189.0 209.0 L 189.0 211.0 L 189.0 213.0 L 189.0 214.0 L 189.0 216.0 L 189.0 218.0 L 189.0 219.0 L 189.0 221.0 L 189.0 223.0 L 189.0 224.0 L 189.0 226.0 L 189.0 227.0 L 189.0 229.0 L 189.0 230.0 L 189.0 232.0 L 189.0 233.0 L 189.0 234.0 L 189.0 235.0 L 189.0 236.0 L 189.0 237.0 L 189.0 237.0 L 189.0 238.0 L 189.0 238.0 L 189.0 239.0 L 189.0 239.0 L 189.0 240.0 L 189.0 240.0 L 189.0 241.0 L 190.0 241.0 L 190.0 241.0 L 191.0 242.0 L 191.0 242.0 L 192.0 242.0 L 193.0 243.0 L 193.0 243.0 L 194.0 243.0 L 195.0 243.0 L 196.0 243.0 L 198.0 244.0 L 199.0 244.0 L 201.0 244.0 L 202.0 244.0 L 205.0 244.0 L 207.0 244.0 L 210.0 244.0 L 214.0 244.0 L 217.0 244.0 L 221.0 244.0 L 224.0 244.0 L 228.0 244.0 L 231.0 244.0 L 234.0 244.0 L 236.0 244.0 L 238.0 244.0 L 239.0 243.0 L 241.0 242.0 L 241.0 241.0 L 241.0 239.0 L 242.0 237.0 L 242.0 235.0 L 242.0 233.0 L 241.0 231.0 L 241.0 229.0 L 240.0 226.0 L 240.0 223.0 L 240.0 219.0 L 240.0 215.0 L 240.0 211.0 L 240.0 209.0 " stroke="black" fill="none" stroke-width="5.0" stroke-linecap="round" stroke-linejoin="round" />
</svg>