<svg xmlns="http://www.w3.org/2000/svg" width="300" height="300" viewBox="0 0 300 300">
<path d="M 162.0 60.5 L 159.5 63.5 L 154.0 69.5 L 153.5 69.5 L 152.0 70.0 L 151.5 71.0 L 149.0 73.0 L 147.5 74.5 L 145.5 75.5 L 143.5 77.0 L 141.5 79.0 L 139.5 80.0 L 137.5 81.5 L 135.5 83.0 L 133.0 84.5 L 131.0 86.0 L 128.5 87.0 L 126.5 89.0 L 124.0 90.0 L 121.5 91.5 L 119.5 93.0 L 117.0 94.5 L 115.0 96.0 L 113.0 97.0 L 110.5 98.5 L 109.0 99.5 L 107.0 101.0 L 104.5 102.0 L 102.5 103.5 L 100.5 105.0 L 98.5 106.0 L 96.5 107.5 L 94.5 108.5 L 92.5 110.0 L 90.5 110.5 L 89.5 111.5 L 87.5 112.5 L 86.0 113.0 L 85.0 114.0 L 83.5 115.0 L 82.5 115.5 L 81.0 115.5 L 80.5 116.0 L 79.5 116.5 L 79.0 117.0 L 78.0 117.5 L 78.0 118.5 " stroke="black" fill="none" stroke-width="5.0" stroke-linecap="round" stroke-linejoin="round" />
<path d="M 159.5 74.0 L 161.0 76.0 L 164.5 80.0 L 165.5 79.5 L 166.5 79.5 L 169.5 82.0 L 170.5 82.0 L 173.0 84.0 L 174.5 85.0 L 176.0 86.5 L 178.5 87.5 L 180.0 89.0 L 182.0 90.5 L 184.0 91.5 L 185.5 93.0 L 188.0 94.0 L 189.5 95.5 L 191.5 97.0 L 193.0 98.0 L 195.0 99.0 L 197.0 100.5 L 198.5 101.5 L 200.0 103.0 L 202.0 103.5 L 204.0 105.0 L 205.5 106.0 L 207.5 106.5 L 209.5 107.5 L 211.5 108.0 L 213.5 109.0 L 215.0 110.0 L 217.0 110.5 L 219.0 111.0 L 221.0 112.0 L 222.5 113.0 L 224.5 113.5 L 226.0 114.5 L 228.0 115.0 L 230.0 115.5 L 231.0 116.5 L 233.0 117.0 L 234.5 117.5 L 235.5 118.0 L 237.0 118.5 L 238.0 119.0 L 239.0 119.5 L 239.5 120.0 L 240.5 120.0 L 240.5 120.5 L 241.5 120.5 L 242.0 121.0 " stroke="black" fill="none" stroke-width="5.0" stroke-linecap="round" stroke-linejoin="round" />
<path d="M 125.0 104.0 L 128.0 105.5 L 135.0 107.5 L 135.5 107.0 L 137.5 107.0 L 140.5 107.5 L 145.0 108.0 L 149.0 108.0 L 152.5 108.5 L 157.0 108.5 L 160.5 109.0 L 164.0 109.0 L 167.5 109.0 L 170.5 109.0 L 173.0 109.5 L 175.0 109.5 L 176.5 109.5 L 178.0 110.0 L 178.5 110.5 L 179.0 110.5 L 179.5 111.0 L 180.0 111.0 L 180.0 111.5 L 180.0 112.0 L 180.0 112.5 " stroke="black" fill="none" stroke-width="5.0" stroke-linecap="round" stroke-linejoin="round" />
<path d="M 94.5 127.5 L 93.5 136.5 L 93.5 137.0 L 93.5 139.0 L 93.5 141.5 L 93.5 143.0 L 93.5 147.0 L 93.5 150.0 L 93.5 153.5 L 93.5 156.0 L 93.5 159.0 L 93.5 162.0 L 93.5 165.0 L 93.5 167.5 L 93.5 170.0 L 93.5 171.5 L 94.0 173.0 L 94.0 174.5 L 94.0 175.0 L 94.5 175.5 L 95.0 175.5 L 95.0 175.0 L 95.5 175.0 " stroke="black" fill="none" stroke-width="5.0" stroke-linecap="round" stroke-linejoin="round" />
<path d="M 99.0 123.5 L 103.5 128.5 L 104.0 128.0 L 105.0 128.0 L 106.5 128.0 L 108.0 128.0 L 109.5 128.0 L 110.5 128.0 L 113.0 128.0 L 115.0 128.0 L 117.0 128.0 L 119.0 128.0 L 121.5 128.0 L 123.5 128.0 L 125.5 128.0 L 127.5 128.0 L 129.5 128.5 L 131.0 128.5 L 133.0 129.0 L 135.0 129.0 L 136.5 129.0 L 138.5 129.5 L 140.5 129.5 L 142.5 129.5 L 144.0 129.5 L 146.0 129.5 L 147.5 129.5 L 150.0 129.5 L 151.5 129.5 L 153.0 129.5 L 155.0 129.5 L 157.0 129.5 L 158.5 129.5 L 160.0 129.5 L 161.5 129.5 L 163.5 129.5 L 165.0 129.5 L 166.5 129.5 L 168.0 129.5 L 169.5 129.5 L 171.5 129.5 L 172.5 129.5 L 173.5 129.5 L 175.0 129.5 L 176.0 129.5 L 177.5 129.5 L 179.0 129.5 L 180.5 130.0 L 182.0 130.0 L 183.5 130.0 L 185.0 130.0 L 186.5 130.0 L 188.0 130.0 L 189.5 130.0 L 191.0 130.0 L 192.5 130.0 L 193.5 130.0 L 195.0 130.0 L 196.5 130.0 L 197.5 130.0 L 199.0 130.0 L 200.0 130.0 L 201.5 130.0 L 202.5 130.0 L 204.0 130.0 L 205.0 130.0 L 206.5 130.0 L 207.5 130.0 L 208.5 130.0 L 209.5 130.0 L 210.5 130.0 L 212.0 130.0 L 212.5 130.0 L 213.5 130.0 L 214.0 130.0 L 214.5 130.0 L 215.0 130.5 L 215.5 131.0 L 216.0 131.0 L 216.5 131.5 L 216.5 132.0 L 216.5 132.5 L 216.5 133.0 L 216.5 134.0 L 216.5 134.5 L 216.5 135.0 L 216.5 135.5 L 216.5 136.5 L 216.5 137.0 L 216.5 137.5 L 216.5 138.5 L 216.5 139.0 L 216.5 139.5 L 216.0 140.5 L 215.5 141.5 L 215.5 142.5 L 215.0 143.5 L 214.5 144.5 L 214.5 145.5 L 214.5 146.5 L 214.0 148.0 L 214.0 149.0 L 213.5 150.0 L 213.0 151.0 L 213.0 152.5 L 212.5 153.5 L 212.5 154.5 L 212.0 156.0 L 212.0 156.5 L 212.0 158.0 L 212.0 159.0 L 211.5 160.0 L 211.5 161.0 L 211.0 161.5 L 211.5 162.5 L 211.5 163.0 " stroke="black" fill="none" stroke-width="5.0" stroke-linecap="round" stroke-linejoin="round" />
<path d="M 110.0 136.5 L 117.0 145.5 L 118.0 146.0 L 119.5 147.0 L 121.0 148.5 L 121.5 149.0 L 122.5 149.5 L 123.5 151.0 L 125.5 152.0 L 126.5 153.0 L 128.0 154.0 L 128.5 155.0 L 130.0 156.0 L 130.5 156.5 L 132.0 157.5 L 132.5 158.0 L 133.0 158.5 L 133.5 158.5 L 134.0 159.0 L 134.5 159.0 L 135.0 159.0 " stroke="black" fill="none" stroke-width="5.0" stroke-linecap="round" stroke-linejoin="round" />
<path d="M 195.0 137.0 L 192.5 140.0 L 186.0 146.0 L 185.5 144.5 L 184.0 145.0 L 183.0 145.0 L 182.5 145.5 L 181.0 146.0 L 179.0 146.5 L 177.5 147.5 L 176.0 148.5 L 174.5 149.5 L 173.5 151.0 L 172.0 152.0 L 171.0 153.0 L 170.0 154.0 L 169.0 155.0 L 168.5 156.0 L 168.0 156.0 L 168.0 156.5 " stroke="black" fill="none" stroke-width="5.0" stroke-linecap="round" stroke-linejoin="round" />
<path d="M 104.5 163.5 L 104.5 164.0 L 105.5 164.5 L 107.0 164.5 L 108.0 164.5 L 109.5 164.5 L 111.5 164.5 L 113.5 164.5 L 116.5 164.5 L 118.0 165.0 L 119.5 165.5 L 123.0 165.5 L 127.0 166.0 L 131.5 166.5 L 136.0 167.0 L 141.0 167.5 L 146.0 167.5 L 150.5 167.5 L 155.5 168.0 L 160.0 168.0 L 164.5 168.0 L 169.0 168.0 L 173.0 168.0 L 176.5 168.0 L 180.5 168.0 L 183.5 168.0 L 187.0 168.0 L 190.5 168.0 L 193.0 168.0 L 196.0 168.0 L 199.0 168.0 L 202.0 168.0 L 204.5 168.0 L 207.0 168.5 L 209.5 168.5 L 212.0 168.5 L 214.0 169.0 L 215.5 169.0 L 216.5 169.0 L 217.5 169.0 L 218.0 169.0 L 219.0 169.0 " stroke="black" fill="none" stroke-width="5.0" stroke-linecap="round" stroke-linejoin="round" />
<path d="M 152.0 123.5 L 151.5 127.5 L 150.0 136.0 L 150.5 136.0 L 150.5 137.0 L 150.5 139.5 L 150.5 142.0 L 150.5 145.0 L 150.5 148.0 L 150.5 151.0 L 150.5 153.5 L 150.5 156.0 L 150.5 158.5 L 150.5 160.5 L 150.5 162.0 L 150.5 163.0 L 150.5 164.0 L 150.5 165.0 L 150.5 165.5 L 150.5 166.0 L 150.5 166.5 L 151.0 166.5 " stroke="black" fill="none" stroke-width="5.0" stroke-linecap="round" stroke-linejoin="round" />
<path d="M 111.0 185.0 L 109.0 187.0 L 107.0 192.0 L 107.0 193.5 L 107.0 196.0 L 107.0 197.0 L 107.0 198.5 L 107.0 201.0 L 107.0 203.5 L 107.0 206.0 L 107.0 209.0 L 107.0 212.0 L 107.0 214.0 L 107.0 216.5 L 107.0 219.0 L 107.0 221.0 L 107.0 223.5 L 107.0 225.5 L 107.0 227.5 L 107.0 229.0 L 107.0 231.0 L 107.0 232.5 L 107.0 234.5 L 107.0 236.5 L 107.0 238.0 L 107.0 239.5 L 107.0 241.5 L 107.0 242.5 L 107.0 243.5 L 107.0 244.5 L 107.0 245.0 L 107.0 244.5 L 107.0 243.5 " stroke="black" fill="none" stroke-width="5.0" stroke-linecap="round" stroke-linejoin="round" />
<path d="M 116.0 187.5 L 116.5 187.5 L 118.5 188.0 L 119.5 188.0 L 121.0 188.0 L 122.5 188.0 L 124.0 188.0 L 126.0 188.0 L 127.5 188.0 L 128.5 188.0 L 129.5 188.0 L 132.0 188.0 L 134.5 188.0 L 137.5 188.5 L 140.5 188.5 L 143.5 189.0 L 147.0 189.5 L 150.0 189.5 L 152.0 190.0 L 155.0 190.5 L 158.0 191.0 L 160.5 191.5 L 163.5 191.5 L 166.0 192.0 L 168.5 192.5 L 171.0 192.5 L 173.5 193.0 L 176.0 193.0 L 178.0 193.0 L 180.5 193.5 L 182.0 193.5 L 184.0 194.0 L 185.5 194.0 L 187.5 194.5 L 188.5 195.0 L 190.0 195.5 L 191.0 196.0 L 192.5 196.5 L 194.0 196.5 L 195.0 197.0 L 196.0 197.5 L 197.5 198.0 L 198.0 198.5 L 199.0 199.0 L 200.0 199.5 L 200.5 200.0 L 201.5 200.5 L 202.0 201.5 L 202.5 201.5 L 202.5 202.5 L 203.0 203.0 L 203.0 203.5 L 203.5 204.5 L 203.5 205.5 L 203.5 206.0 L 204.0 207.5 L 204.0 208.5 L 204.0 209.5 L 204.0 211.0 L 204.0 212.5 L 204.0 213.5 L 204.0 215.5 L 204.0 217.0 L 204.0 219.0 L 204.0 221.0 L 204.0 223.0 L 204.0 225.5 L 204.0 227.5 L 204.0 230.0 L 204.0 232.0 L 204.0 233.5 L 203.5 235.5 L 203.5 237.0 L 203.5 238.0 L 203.5 239.0 L 203.5 239.5 L 203.5 240.0 " stroke="black" fill="none" stroke-width="5.0" stroke-linecap="round" stroke-linejoin="round" />
<path d="M 113.5 211.5 L 114.0 212.0 L 116.0 212.0 L 118.5 212.0 L 121.0 212.0 L 124.0 212.0 L 128.0 212.5 L 130.0 212.5 L 132.0 213.0 L 136.0 213.5 L 141.5 214.5 L 146.5 215.0 L 151.5 215.5 L 157.0 215.5 L 162.5 216.0 L 167.0 216.5 L 171.5 217.0 L 176.0 217.5 L 179.0 218.0 L 182.5 218.0 L 185.5 218.5 L 188.0 219.0 L 190.0 219.0 L 192.0 219.5 L 193.0 219.5 L 194.0 220.0 L 195.0 220.5 L 195.5 220.5 L 195.0 221.0 L 195.0 221.5 " stroke="black" fill="none" stroke-width="5.0" stroke-linecap="round" stroke-linejoin="round" />
<path d="M 113.0 242.5 L 117.0 244.5 L 119.0 244.5 L 121.5 244.5 L 124.5 245.0 L 126.0 245.5 L 127.5 245.5 L 130.5 246.5 L 134.5 246.5 L 138.5 247.0 L 142.5 247.0 L 147.5 247.5 L 152.0 247.5 L 156.5 247.5 L 161.5 247.5 L 166.0 247.5 L 171.0 247.5 L 175.5 247.5 L 180.5 247.5 L 184.5 247.5 L 188.5 247.5 L 192.5 247.5 L 195.0 247.5 L 197.5 247.5 L 199.5 248.0 L 201.0 248.5 L 202.5 248.5 L 203.5 249.0 L 204.0 249.0 L 204.5 249.0 L 205.0 249.0 L 205.5 249.0 L 205.5 249.5 " stroke="black" fill="none" stroke-width="5.0" stroke-linecap="round" stroke-linejoin="round" />
</svg>