<svg xmlns="http://www.w3.org/2000/svg" width="300" height="300" viewBox="0 0 300 300">
<path d="M 63.0 113.0 L 63.0 113.0 L 63.0 113.0 L 63.0 113.0 L 63.0 113.0 L 63.0 113.0 L 63.0 113.0 L 63.0 113.0 L 63.0 113.0 L 63.0 114.0 L 63.0 114.0 L 64.0 114.0 L 65.0 114.0 L 67.0 114.0 L 71.0 114.0 L 76.0 114.0 L 83.0 115.0 L 90.0 115.0 L 97.0 116.0 L 104.0 116.0 L 108.0 116.0 L 112.0 115.0 L 116.0 115.0 L 119.0 115.0 L 122.0 115.0 L 124.0 114.0 L 126.0 114.0 L 126.0 114.0 L 127.0 114.0 L 127.0 113.0 L 127.0 113.0 L 127.0 113.0 L 127.0 112.0 L 127.0 112.0 L 126.0 111.0 L 125.0 111.0 L 125.0 111.0 " stroke="black" fill="none" stroke-width="5.0" stroke-linecap="round" stroke-linejoin="round" />
<path d="M 100.0 75.0 L 100.0 75.0 L 99.0 75.0 L 99.0 75.0 L 98.0 75.0 L 98.0 75.0 L 98.0 75.0 L 97.0 75.0 L 97.0 74.0 L 97.0 74.0 L 97.0 74.0 L 97.0 74.0 L 97.0 74.0 L 97.0 74.0 L 97.0 75.0 L 97.0 76.0 L 97.0 78.0 L 97.0 79.0 L 97.0 81.0 L 97.0 83.0 L 98.0 85.0 L 98.0 87.0 L 98.0 89.0 L 98.0 92.0 L 99.0 95.0 L 99.0 97.0 L 99.0 100.0 L 99.0 103.0 L 99.0 106.0 L 99.0 109.0 L 99.0 111.0 L 99.0 114.0 L 99.0 116.0 L 99.0 118.0 L 99.0 120.0 L 98.0 123.0 L 98.0 125.0 L 98.0 127.0 L 98.0 129.0 L 97.0 132.0 L 97.0 134.0 L 97.0 137.0 L 96.0 139.0 L 96.0 142.0 L 96.0 145.0 L 95.0 148.0 L 95.0 151.0 L 95.0 154.0 L 95.0 156.0 L 95.0 159.0 L 95.0 161.0 L 95.0 163.0 L 95.0 166.0 L 95.0 168.0 L 95.0 171.0 L 95.0 173.0 L 95.0 176.0 L 95.0 178.0 L 95.0 181.0 L 95.0 184.0 L 95.0 187.0 L 95.0 190.0 L 95.0 193.0 L 95.0 196.0 L 95.0 199.0 L 94.0 202.0 L 94.0 205.0 L 94.0 207.0 L 94.0 210.0 L 94.0 213.0 L 94.0 215.0 L 93.0 218.0 L 93.0 221.0 L 93.0 223.0 L 93.0 226.0 L 92.0 229.0 L 92.0 232.0 L 92.0 234.0 L 91.0 237.0 L 91.0 239.0 L 91.0 241.0 L 91.0 242.0 L 90.0 243.0 L 90.0 244.0 L 90.0 244.0 L 90.0 244.0 L 89.0 244.0 L 89.0 244.0 L 89.0 244.0 L 89.0 244.0 L 89.0 244.0 L 89.0 244.0 L 89.0 244.0 L 89.0 242.0 L 89.0 241.0 " stroke="black" fill="none" stroke-width="5.0" stroke-linecap="round" stroke-linejoin="round" />
<path d="M 92.0 135.0 L 92.0 135.0 L 92.0 135.0 L 92.0 135.0 L 92.0 134.0 L 92.0 134.0 L 92.0 134.0 L 92.0 134.0 L 92.0 134.0 L 92.0 136.0 L 91.0 137.0 L 91.0 140.0 L 90.0 143.0 L 88.0 146.0 L 87.0 150.0 L 85.0 154.0 L 82.0 159.0 L 79.0 165.0 L 76.0 170.0 L 73.0 176.0 L 70.0 181.0 L 67.0 187.0 L 65.0 192.0 L 63.0 195.0 L 61.0 198.0 L 60.0 201.0 L 59.0 202.0 L 58.0 204.0 L 57.0 205.0 L 56.0 206.0 L 56.0 207.0 L 56.0 209.0 L 55.0 209.0 L 55.0 209.0 L 55.0 209.0 L 55.0 209.0 L 55.0 208.0 L 57.0 206.0 L 58.0 203.0 L 59.0 202.0 " stroke="black" fill="none" stroke-width="5.0" stroke-linecap="round" stroke-linejoin="round" />
<path d="M 91.0 147.0 L 91.0 146.0 L 91.0 145.0 L 92.0 144.0 L 92.0 144.0 L 92.0 143.0 L 92.0 143.0 L 93.0 143.0 L 93.0 143.0 L 94.0 143.0 L 95.0 143.0 L 96.0 144.0 L 98.0 146.0 L 100.0 149.0 L 102.0 151.0 L 105.0 155.0 L 107.0 158.0 L 110.0 161.0 L 112.0 165.0 L 115.0 168.0 L 117.0 171.0 L 119.0 174.0 L 120.0 175.0 L 121.0 176.0 L 121.0 176.0 L 121.0 176.0 L 121.0 176.0 L 121.0 176.0 L 121.0 175.0 L 119.0 173.0 " stroke="black" fill="none" stroke-width="5.0" stroke-linecap="round" stroke-linejoin="round" />
<path d="M 155.0 78.0 L 155.0 78.0 L 155.0 79.0 L 155.0 80.0 L 155.0 81.0 L 155.0 82.0 L 154.0 84.0 L 154.0 85.0 L 153.0 87.0 L 153.0 90.0 L 153.0 93.0 L 152.0 97.0 L 152.0 102.0 L 151.0 107.0 L 151.0 113.0 L 150.0 118.0 L 150.0 122.0 L 149.0 125.0 L 149.0 126.0 L 149.0 126.0 L 149.0 126.0 L 149.0 126.0 L 149.0 124.0 L 149.0 121.0 L 149.0 118.0 L 150.0 115.0 L 150.0 111.0 L 151.0 108.0 L 151.0 106.0 " stroke="black" fill="none" stroke-width="5.0" stroke-linecap="round" stroke-linejoin="round" />
<path d="M 155.0 81.0 L 155.0 81.0 L 155.0 81.0 L 155.0 81.0 L 155.0 81.0 L 156.0 81.0 L 156.0 81.0 L 156.0 81.0 L 157.0 81.0 L 157.0 80.0 L 158.0 80.0 L 159.0 79.0 L 160.0 79.0 L 162.0 78.0 L 164.0 78.0 L 168.0 78.0 L 171.0 77.0 L 176.0 77.0 L 180.0 77.0 L 184.0 77.0 L 188.0 77.0 L 190.0 77.0 L 193.0 77.0 L 195.0 76.0 L 197.0 76.0 L 198.0 76.0 L 200.0 76.0 L 201.0 75.0 L 203.0 75.0 L 205.0 75.0 L 206.0 75.0 L 208.0 75.0 L 210.0 75.0 L 212.0 76.0 L 213.0 76.0 L 215.0 76.0 L 217.0 76.0 L 218.0 77.0 L 220.0 77.0 L 221.0 77.0 L 222.0 78.0 L 223.0 78.0 L 224.0 79.0 L 224.0 79.0 L 225.0 80.0 L 226.0 80.0 L 226.0 81.0 L 227.0 81.0 L 227.0 82.0 L 227.0 83.0 L 227.0 84.0 L 228.0 85.0 L 228.0 87.0 L 228.0 90.0 L 228.0 94.0 L 228.0 99.0 L 228.0 105.0 L 228.0 110.0 L 228.0 114.0 L 228.0 119.0 L 228.0 122.0 L 228.0 125.0 L 228.0 127.0 L 227.0 128.0 L 226.0 128.0 L 224.0 128.0 L 222.0 128.0 L 221.0 127.0 " stroke="black" fill="none" stroke-width="5.0" stroke-linecap="round" stroke-linejoin="round" />
<path d="M 159.0 99.0 L 159.0 99.0 L 160.0 99.0 L 161.0 99.0 L 161.0 99.0 L 161.0 99.0 L 162.0 99.0 L 162.0 99.0 L 163.0 99.0 L 164.0 99.0 L 166.0 99.0 L 169.0 99.0 L 173.0 100.0 L 179.0 100.0 L 185.0 101.0 L 191.0 101.0 L 196.0 102.0 L 201.0 102.0 L 205.0 103.0 L 209.0 103.0 L 213.0 103.0 L 216.0 103.0 L 219.0 103.0 L 221.0 103.0 L 221.0 103.0 L 221.0 103.0 L 221.0 103.0 L 221.0 103.0 L 220.0 103.0 L 218.0 103.0 L 215.0 103.0 " stroke="black" fill="none" stroke-width="5.0" stroke-linecap="round" stroke-linejoin="round" />
<path d="M 152.0 127.0 L 152.0 127.0 L 152.0 127.0 L 152.0 128.0 L 152.0 128.0 L 152.0 129.0 L 152.0 129.0 L 152.0 129.0 L 153.0 130.0 L 155.0 130.0 L 159.0 130.0 L 165.0 130.0 L 174.0 130.0 L 183.0 130.0 L 192.0 130.0 L 198.0 130.0 L 203.0 131.0 L 207.0 131.0 L 210.0 131.0 L 213.0 131.0 L 215.0 131.0 L 216.0 131.0 L 217.0 131.0 L 218.0 131.0 L 218.0 131.0 L 218.0 131.0 L 218.0 130.0 L 216.0 130.0 " stroke="black" fill="none" stroke-width="5.0" stroke-linecap="round" stroke-linejoin="round" />
<path d="M 135.0 153.0 L 135.0 153.0 L 134.0 153.0 L 134.0 152.0 L 133.0 152.0 L 133.0 152.0 L 133.0 152.0 L 133.0 152.0 L 133.0 152.0 L 134.0 152.0 L 135.0 153.0 L 137.0 153.0 L 139.0 153.0 L 142.0 153.0 L 146.0 154.0 L 149.0 154.0 L 154.0 155.0 L 161.0 155.0 L 168.0 156.0 L 177.0 156.0 L 185.0 156.0 L 192.0 156.0 L 198.0 156.0 L 203.0 156.0 L 207.0 156.0 L 211.0 157.0 L 216.0 157.0 L 220.0 158.0 L 224.0 158.0 L 228.0 158.0 L 230.0 159.0 L 232.0 159.0 L 233.0 159.0 L 234.0 159.0 L 234.0 159.0 L 234.0 159.0 L 234.0 159.0 L 234.0 159.0 L 234.0 159.0 L 234.0 159.0 L 233.0 159.0 L 231.0 159.0 " stroke="black" fill="none" stroke-width="5.0" stroke-linecap="round" stroke-linejoin="round" />
<path d="M 156.0 159.0 L 156.0 159.0 L 156.0 159.0 L 157.0 159.0 L 157.0 159.0 L 157.0 159.0 L 157.0 159.0 L 157.0 159.0 L 157.0 160.0 L 157.0 161.0 L 157.0 163.0 L 156.0 165.0 L 154.0 168.0 L 152.0 172.0 L 150.0 178.0 L 147.0 184.0 L 143.0 192.0 L 138.0 200.0 L 134.0 206.0 L 129.0 211.0 L 126.0 214.0 L 124.0 216.0 L 122.0 217.0 L 122.0 217.0 L 121.0 217.0 L 121.0 215.0 L 121.0 213.0 L 121.0 210.0 L 122.0 209.0 " stroke="black" fill="none" stroke-width="5.0" stroke-linecap="round" stroke-linejoin="round" />
<path d="M 149.0 184.0 L 149.0 184.0 L 149.0 184.0 L 149.0 183.0 L 149.0 183.0 L 149.0 182.0 L 150.0 182.0 L 150.0 182.0 L 151.0 181.0 L 151.0 181.0 L 152.0 181.0 L 154.0 181.0 L 156.0 181.0 L 158.0 181.0 L 162.0 181.0 L 166.0 181.0 L 171.0 181.0 L 177.0 181.0 L 183.0 181.0 L 188.0 180.0 L 193.0 180.0 L 196.0 180.0 L 199.0 180.0 L 202.0 180.0 L 204.0 180.0 L 207.0 180.0 L 211.0 181.0 L 214.0 181.0 L 217.0 181.0 L 221.0 182.0 L 223.0 182.0 L 226.0 182.0 L 228.0 182.0 L 230.0 182.0 L 231.0 182.0 L 232.0 182.0 L 232.0 182.0 L 233.0 182.0 L 234.0 182.0 L 234.0 182.0 L 235.0 182.0 L 235.0 182.0 L 236.0 182.0 L 236.0 182.0 L 236.0 182.0 L 236.0 183.0 L 236.0 183.0 L 237.0 183.0 L 237.0 184.0 L 237.0 185.0 L 237.0 186.0 L 237.0 186.0 L 237.0 188.0 L 237.0 189.0 L 237.0 190.0 L 236.0 191.0 L 236.0 193.0 L 236.0 194.0 L 236.0 196.0 L 236.0 197.0 L 236.0 199.0 L 236.0 201.0 L 236.0 203.0 L 236.0 205.0 L 235.0 207.0 L 235.0 209.0 L 235.0 211.0 L 235.0 214.0 L 234.0 216.0 L 234.0 218.0 L 234.0 221.0 L 234.0 223.0 L 234.0 225.0 L 234.0 227.0 L 234.0 229.0 L 234.0 231.0 L 234.0 232.0 L 234.0 234.0 L 234.0 235.0 L 234.0 236.0 L 234.0 237.0 L 234.0 238.0 L 234.0 239.0 L 234.0 240.0 L 234.0 240.0 L 234.0 240.0 L 234.0 241.0 L 234.0 241.0 L 234.0 241.0 L 233.0 241.0 L 233.0 241.0 L 233.0 242.0 L 232.0 242.0 L 232.0 242.0 L 231.0 242.0 L 230.0 242.0 L 229.0 242.0 L 228.0 242.0 L 227.0 242.0 L 225.0 242.0 L 223.0 242.0 L 220.0 241.0 L 218.0 241.0 L 216.0 241.0 L 213.0 241.0 L 211.0 241.0 L 209.0 241.0 L 206.0 241.0 L 205.0 241.0 " stroke="black" fill="none" stroke-width="5.0" stroke-linecap="round" stroke-linejoin="round" />
<path d="M 181.0 184.0 L 181.0 184.0 L 181.0 184.0 L 181.0 184.0 L 181.0 184.0 L 181.0 184.0 L 181.0 184.0 L 181.0 184.0 L 181.0 184.0 L 182.0 184.0 L 182.0 184.0 L 182.0 184.0 L 182.0 183.0 L 182.0 183.0 L 182.0 183.0 L 182.0 183.0 L 182.0 183.0 L 182.0 183.0 L 182.0 183.0 L 182.0 183.0 L 182.0 183.0 L 182.0 184.0 L 182.0 184.0 L 182.0 185.0 L 182.0 186.0 L 181.0 187.0 L 181.0 188.0 L 180.0 189.0 L 180.0 190.0 L 179.0 191.0 L 179.0 192.0 L 178.0 193.0 L 177.0 194.0 L 177.0 195.0 L 176.0 195.0 L 175.0 197.0 L 175.0 197.0 L 174.0 198.0 L 173.0 199.0 L 172.0 200.0 L 171.0 201.0 L 170.0 203.0 L 169.0 204.0 L 167.0 205.0 L 167.0 206.0 L 166.0 206.0 L 165.0 207.0 L 164.0 208.0 L 164.0 209.0 L 162.0 210.0 L 161.0 212.0 L 160.0 214.0 L 158.0 215.0 L 158.0 216.0 L 157.0 217.0 L 156.0 219.0 L 155.0 220.0 L 154.0 221.0 L 153.0 222.0 L 152.0 224.0 L 151.0 226.0 L 149.0 228.0 L 148.0 229.0 L 147.0 230.0 L 146.0 231.0 L 144.0 232.0 L 144.0 233.0 L 143.0 233.0 L 141.0 234.0 L 141.0 235.0 L 140.0 235.0 L 138.0 236.0 L 137.0 237.0 L 135.0 238.0 L 134.0 239.0 L 134.0 240.0 L 133.0 240.0 L 132.0 241.0 L 131.0 241.0 L 131.0 241.0 L 130.0 242.0 L 129.0 242.0 L 128.0 243.0 L 128.0 243.0 L 128.0 243.0 L 128.0 243.0 L 128.0 243.0 L 128.0 243.0 L 128.0 243.0 L 129.0 242.0 L 130.0 242.0 L 132.0 241.0 " stroke="black" fill="none" stroke-width="5.0" stroke-linecap="round" stroke-linejoin="round" />
<path d="M 208.0 181.0 L 208.0 181.0 L 208.0 181.0 L 208.0 180.0 L 208.0 180.0 L 208.0 180.0 L 208.0 180.0 L 208.0 180.0 L 208.0 180.0 L 208.0 179.0 L 208.0 179.0 L 208.0 179.0 L 208.0 178.0 L 208.0 178.0 L 209.0 178.0 L 209.0 178.0 L 209.0 178.0 L 209.0 178.0 L 209.0 178.0 L 209.0 178.0 L 209.0 178.0 L 209.0 178.0 L 209.0 179.0 L 209.0 179.0 L 209.0 180.0 L 209.0 180.0 L 209.0 181.0 L 209.0 182.0 L 209.0 182.0 L 209.0 183.0 L 209.0 184.0 L 209.0 186.0 L 209.0 187.0 L 208.0 189.0 L 208.0 191.0 L 207.0 192.0 L 206.0 194.0 L 206.0 196.0 L 205.0 197.0 L 205.0 198.0 L 204.0 200.0 L 204.0 203.0 L 203.0 205.0 L 202.0 207.0 L 201.0 209.0 L 200.0 211.0 L 200.0 212.0 L 200.0 213.0 L 199.0 215.0 L 198.0 217.0 L 198.0 218.0 L 198.0 219.0 L 197.0 220.0 L 197.0 221.0 L 196.0 222.0 L 196.0 224.0 L 195.0 225.0 L 195.0 227.0 L 194.0 229.0 L 194.0 230.0 L 193.0 231.0 L 193.0 233.0 L 192.0 234.0 L 191.0 236.0 L 190.0 237.0 L 189.0 240.0 L 188.0 242.0 L 187.0 243.0 L 186.0 244.0 L 185.0 245.0 L 184.0 246.0 L 184.0 247.0 L 183.0 247.0 L 182.0 248.0 L 181.0 248.0 L 181.0 249.0 L 180.0 249.0 L 180.0 249.0 L 179.0 249.0 L 179.0 249.0 L 178.0 250.0 L 178.0 250.0 L 178.0 250.0 L 177.0 250.0 L 177.0 251.0 L 176.0 251.0 L 175.0 252.0 L 175.0 252.0 L 175.0 252.0 L 174.0 253.0 L 174.0 253.0 L 174.0 253.0 L 174.0 253.0 L 174.0 253.0 L 174.0 253.0 L 174.0 253.0 L 174.0 253.0 L 174.0 253.0 L 174.0 253.0 L 174.0 252.0 L 174.0 252.0 L 174.0 252.0 L 174.0 252.0 L 174.0 252.0 " stroke="black" fill="none" stroke-width="5.0" stroke-linecap="round" stroke-linejoin="round" />
</svg>