<svg xmlns="http://www.w3.org/2000/svg" width="300" height="300" viewBox="0 0 300 300">
<path d="M 64.0 113.0 L 64.0 113.0 L 64.0 113.0 L 62.0 112.0 L 62.0 112.0 L 61.0 112.0 L 61.0 112.0 L 60.0 112.0 L 60.0 112.0 L 60.0 112.0 L 61.0 112.0 L 63.0 113.0 L 65.0 113.0 L 68.0 113.0 L 73.0 114.0 L 78.0 114.0 L 84.0 114.0 L 90.0 114.0 L 96.0 113.0 L 101.0 113.0 L 105.0 112.0 L 108.0 112.0 L 109.0 112.0 " stroke="black" fill="none" stroke-width="5.0" stroke-linecap="round" stroke-linejoin="round" />
<path d="M 87.0 75.0 L 87.0 75.0 L 87.0 75.0 L 87.0 75.0 L 88.0 75.0 L 88.0 76.0 L 88.0 77.0 L 89.0 78.0 L 89.0 80.0 L 89.0 82.0 L 89.0 84.0 L 89.0 88.0 L 88.0 91.0 L 88.0 96.0 L 87.0 100.0 L 87.0 104.0 L 87.0 107.0 L 87.0 111.0 L 87.0 114.0 L 87.0 117.0 L 87.0 120.0 L 87.0 123.0 L 87.0 126.0 L 87.0 130.0 L 87.0 133.0 L 87.0 136.0 L 87.0 139.0 L 87.0 142.0 L 88.0 145.0 L 88.0 148.0 L 88.0 150.0 L 88.0 153.0 L 88.0 156.0 L 88.0 158.0 L 88.0 161.0 L 88.0 163.0 L 88.0 165.0 L 88.0 167.0 L 88.0 170.0 L 88.0 172.0 L 88.0 174.0 L 88.0 176.0 L 87.0 178.0 L 87.0 181.0 L 87.0 184.0 L 87.0 186.0 L 86.0 189.0 L 86.0 191.0 L 86.0 193.0 L 86.0 195.0 L 86.0 197.0 L 86.0 199.0 L 86.0 201.0 L 86.0 203.0 L 86.0 205.0 L 86.0 207.0 L 86.0 209.0 L 86.0 211.0 L 87.0 212.0 L 87.0 214.0 L 87.0 216.0 L 87.0 218.0 L 87.0 220.0 L 87.0 222.0 L 87.0 224.0 L 87.0 227.0 L 87.0 229.0 L 87.0 231.0 L 87.0 233.0 L 87.0 234.0 L 87.0 235.0 L 87.0 237.0 L 87.0 238.0 L 87.0 240.0 L 87.0 241.0 L 87.0 243.0 L 87.0 244.0 L 87.0 245.0 L 87.0 247.0 L 87.0 248.0 L 87.0 249.0 L 87.0 250.0 L 87.0 251.0 L 87.0 252.0 L 87.0 253.0 L 87.0 254.0 L 87.0 255.0 L 87.0 255.0 L 87.0 256.0 L 87.0 256.0 L 87.0 256.0 " stroke="black" fill="none" stroke-width="5.0" stroke-linecap="round" stroke-linejoin="round" />
<path d="M 86.0 123.0 L 86.0 123.0 L 86.0 123.0 L 86.0 123.0 L 86.0 123.0 L 86.0 123.0 L 86.0 123.0 L 86.0 123.0 L 86.0 124.0 L 86.0 126.0 L 85.0 128.0 L 83.0 133.0 L 80.0 140.0 L 77.0 148.0 L 73.0 158.0 L 70.0 168.0 L 66.0 177.0 L 64.0 185.0 L 62.0 192.0 L 60.0 196.0 L 59.0 200.0 L 58.0 203.0 L 57.0 205.0 L 57.0 206.0 L 56.0 206.0 " stroke="black" fill="none" stroke-width="5.0" stroke-linecap="round" stroke-linejoin="round" />
<path d="M 84.0 146.0 L 84.0 146.0 L 83.0 146.0 L 82.0 146.0 L 82.0 145.0 L 82.0 144.0 L 82.0 143.0 L 83.0 143.0 L 84.0 142.0 L 86.0 142.0 L 88.0 143.0 L 90.0 145.0 L 93.0 147.0 L 95.0 149.0 L 98.0 152.0 L 100.0 155.0 L 102.0 158.0 L 104.0 161.0 L 106.0 164.0 L 107.0 167.0 L 108.0 170.0 " stroke="black" fill="none" stroke-width="5.0" stroke-linecap="round" stroke-linejoin="round" />
<path d="M 179.0 72.0 L 179.0 72.0 L 179.0 73.0 L 179.0 74.0 L 179.0 75.0 L 179.0 75.0 L 178.0 77.0 L 178.0 78.0 L 178.0 79.0 L 177.0 80.0 L 176.0 82.0 L 174.0 84.0 L 170.0 87.0 L 166.0 92.0 L 160.0 98.0 L 154.0 104.0 L 148.0 110.0 L 143.0 115.0 L 137.0 119.0 L 133.0 121.0 L 130.0 122.0 L 128.0 123.0 L 128.0 123.0 " stroke="black" fill="none" stroke-width="5.0" stroke-linecap="round" stroke-linejoin="round" />
<path d="M 181.0 87.0 L 181.0 87.0 L 179.0 87.0 L 178.0 87.0 L 178.0 87.0 L 177.0 87.0 L 177.0 87.0 L 177.0 88.0 L 178.0 88.0 L 180.0 89.0 L 182.0 90.0 L 184.0 91.0 L 186.0 93.0 L 189.0 95.0 L 192.0 97.0 L 195.0 100.0 L 199.0 102.0 L 203.0 106.0 L 208.0 109.0 L 212.0 112.0 L 218.0 115.0 L 222.0 118.0 L 225.0 119.0 L 228.0 120.0 L 229.0 121.0 L 229.0 121.0 " stroke="black" fill="none" stroke-width="5.0" stroke-linecap="round" stroke-linejoin="round" />
<path d="M 148.0 128.0 L 148.0 128.0 L 146.0 128.0 L 145.0 128.0 L 144.0 127.0 L 144.0 127.0 L 144.0 127.0 L 144.0 127.0 L 144.0 127.0 L 144.0 127.0 L 145.0 127.0 L 147.0 127.0 L 150.0 127.0 L 153.0 127.0 L 158.0 127.0 L 164.0 127.0 L 171.0 127.0 L 179.0 126.0 L 186.0 126.0 L 192.0 125.0 L 196.0 125.0 L 198.0 125.0 L 199.0 125.0 " stroke="black" fill="none" stroke-width="5.0" stroke-linecap="round" stroke-linejoin="round" />
<path d="M 125.0 161.0 L 125.0 161.0 L 125.0 161.0 L 125.0 161.0 L 125.0 162.0 L 126.0 162.0 L 126.0 162.0 L 127.0 163.0 L 128.0 164.0 L 129.0 165.0 L 130.0 167.0 L 131.0 169.0 L 132.0 172.0 L 132.0 176.0 L 133.0 181.0 L 133.0 187.0 L 133.0 193.0 L 132.0 201.0 L 130.0 208.0 L 129.0 215.0 L 127.0 222.0 L 125.0 228.0 L 123.0 233.0 L 121.0 237.0 L 119.0 239.0 L 119.0 240.0 " stroke="black" fill="none" stroke-width="5.0" stroke-linecap="round" stroke-linejoin="round" />
<path d="M 133.0 155.0 L 133.0 155.0 L 133.0 155.0 L 133.0 155.0 L 133.0 155.0 L 133.0 155.0 L 133.0 155.0 L 133.0 155.0 L 133.0 155.0 L 133.0 155.0 L 133.0 155.0 L 133.0 155.0 L 133.0 155.0 L 133.0 155.0 L 133.0 155.0 L 133.0 155.0 L 133.0 155.0 L 132.0 155.0 L 132.0 155.0 L 132.0 155.0 L 132.0 155.0 L 132.0 155.0 L 132.0 155.0 L 131.0 155.0 L 131.0 155.0 L 131.0 155.0 L 131.0 155.0 L 131.0 155.0 L 131.0 155.0 L 131.0 155.0 L 131.0 155.0 L 131.0 155.0 L 131.0 155.0 L 132.0 155.0 L 133.0 155.0 L 134.0 155.0 L 135.0 155.0 L 136.0 155.0 L 137.0 155.0 L 139.0 155.0 L 140.0 155.0 L 141.0 155.0 L 143.0 155.0 L 144.0 154.0 L 146.0 154.0 L 147.0 154.0 L 148.0 154.0 L 150.0 154.0 L 151.0 154.0 L 152.0 154.0 L 153.0 154.0 L 154.0 154.0 L 156.0 154.0 L 157.0 154.0 L 158.0 154.0 L 159.0 154.0 L 160.0 154.0 L 162.0 154.0 L 163.0 155.0 L 164.0 155.0 L 165.0 155.0 L 166.0 155.0 L 167.0 156.0 L 167.0 156.0 L 168.0 156.0 L 168.0 156.0 L 169.0 156.0 L 169.0 156.0 L 169.0 156.0 L 169.0 156.0 L 169.0 156.0 L 169.0 156.0 L 169.0 156.0 L 169.0 156.0 L 169.0 156.0 L 169.0 157.0 L 169.0 157.0 L 169.0 157.0 L 169.0 157.0 L 169.0 157.0 L 169.0 157.0 L 170.0 158.0 L 170.0 159.0 L 170.0 159.0 L 170.0 160.0 L 170.0 161.0 L 171.0 163.0 L 171.0 164.0 L 171.0 166.0 L 171.0 167.0 L 171.0 169.0 L 171.0 171.0 L 171.0 174.0 L 171.0 177.0 L 171.0 180.0 L 171.0 183.0 L 171.0 186.0 L 171.0 189.0 L 171.0 192.0 L 171.0 195.0 L 171.0 198.0 L 171.0 200.0 L 171.0 202.0 L 171.0 204.0 L 171.0 206.0 L 170.0 209.0 L 170.0 211.0 L 169.0 213.0 L 169.0 215.0 L 168.0 218.0 L 168.0 220.0 L 168.0 222.0 L 168.0 224.0 L 168.0 226.0 L 168.0 228.0 L 169.0 229.0 L 169.0 231.0 L 169.0 233.0 L 169.0 234.0 L 169.0 236.0 L 169.0 238.0 L 169.0 239.0 L 169.0 241.0 L 169.0 242.0 L 169.0 244.0 L 169.0 245.0 L 169.0 247.0 L 169.0 248.0 L 169.0 249.0 L 169.0 251.0 L 169.0 252.0 L 169.0 253.0 L 169.0 254.0 L 169.0 255.0 L 169.0 255.0 L 169.0 256.0 L 169.0 256.0 L 169.0 257.0 L 169.0 257.0 L 168.0 257.0 L 167.0 257.0 L 166.0 257.0 L 165.0 257.0 L 164.0 257.0 L 162.0 257.0 L 161.0 256.0 L 159.0 255.0 L 158.0 254.0 L 156.0 252.0 L 155.0 250.0 L 153.0 248.0 L 152.0 246.0 L 151.0 244.0 L 150.0 243.0 " stroke="black" fill="none" stroke-width="5.0" stroke-linecap="round" stroke-linejoin="round" />
<path d="M 139.0 182.0 L 139.0 182.0 L 138.0 182.0 L 138.0 182.0 L 137.0 181.0 L 136.0 181.0 L 136.0 181.0 L 135.0 181.0 L 135.0 181.0 L 135.0 182.0 L 137.0 182.0 L 139.0 183.0 L 141.0 183.0 L 145.0 183.0 L 148.0 183.0 L 152.0 183.0 L 157.0 182.0 L 161.0 182.0 L 166.0 181.0 L 169.0 181.0 L 171.0 181.0 " stroke="black" fill="none" stroke-width="5.0" stroke-linecap="round" stroke-linejoin="round" />
<path d="M 140.0 209.0 L 139.0 209.0 L 137.0 209.0 L 135.0 209.0 L 134.0 209.0 L 133.0 210.0 L 133.0 210.0 L 133.0 210.0 L 134.0 210.0 L 136.0 210.0 L 139.0 210.0 L 142.0 210.0 L 146.0 210.0 L 150.0 209.0 L 154.0 208.0 L 158.0 207.0 L 163.0 206.0 L 167.0 205.0 " stroke="black" fill="none" stroke-width="5.0" stroke-linecap="round" stroke-linejoin="round" />
<path d="M 196.0 155.0 L 196.0 155.0 L 196.0 155.0 L 196.0 154.0 L 195.0 154.0 L 195.0 153.0 L 195.0 153.0 L 195.0 153.0 L 195.0 153.0 L 195.0 154.0 L 194.0 156.0 L 194.0 159.0 L 194.0 163.0 L 194.0 169.0 L 194.0 176.0 L 194.0 184.0 L 194.0 195.0 L 194.0 204.0 L 195.0 212.0 L 195.0 217.0 L 195.0 220.0 L 195.0 221.0 L 195.0 221.0 " stroke="black" fill="none" stroke-width="5.0" stroke-linecap="round" stroke-linejoin="round" />
<path d="M 229.0 148.0 L 229.0 148.0 L 229.0 148.0 L 229.0 148.0 L 228.0 148.0 L 228.0 148.0 L 228.0 148.0 L 228.0 148.0 L 228.0 148.0 L 228.0 148.0 L 228.0 148.0 L 228.0 149.0 L 228.0 151.0 L 228.0 152.0 L 228.0 155.0 L 228.0 157.0 L 229.0 161.0 L 229.0 165.0 L 229.0 169.0 L 229.0 174.0 L 229.0 179.0 L 229.0 184.0 L 230.0 189.0 L 230.0 193.0 L 230.0 197.0 L 230.0 200.0 L 230.0 203.0 L 230.0 206.0 L 230.0 209.0 L 230.0 212.0 L 231.0 215.0 L 231.0 218.0 L 231.0 221.0 L 231.0 225.0 L 231.0 229.0 L 231.0 232.0 L 231.0 234.0 L 231.0 237.0 L 231.0 239.0 L 231.0 240.0 L 231.0 242.0 L 231.0 244.0 L 231.0 245.0 L 231.0 247.0 L 231.0 248.0 L 231.0 250.0 L 231.0 251.0 L 231.0 252.0 L 231.0 253.0 L 230.0 254.0 L 230.0 254.0 L 230.0 255.0 L 229.0 255.0 L 229.0 255.0 L 228.0 255.0 L 227.0 255.0 L 226.0 255.0 L 225.0 254.0 L 223.0 254.0 L 222.0 254.0 L 221.0 253.0 L 219.0 252.0 L 217.0 252.0 L 215.0 251.0 L 212.0 250.0 L 210.0 250.0 L 207.0 249.0 L 205.0 248.0 L 203.0 247.0 L 201.0 247.0 L 199.0 245.0 L 198.0 244.0 L 198.0 244.0 " stroke="black" fill="none" stroke-width="5.0" stroke-linecap="round" stroke-linejoin="round" />
</svg>