<svg xmlns="http://www.w3.org/2000/svg" width="300" height="300" viewBox="0 0 300 300">
<path d="M 67.0 114.0 L 67.0 114.0 L 66.0 113.0 L 65.0 113.0 L 64.0 113.0 L 64.0 112.0 L 63.0 112.0 L 63.0 112.0 L 63.0 112.0 L 63.0 112.0 L 63.0 112.0 L 63.0 112.0 L 64.0 112.0 L 65.0 112.0 L 67.0 112.0 L 70.0 112.0 L 74.0 112.0 L 80.0 112.0 L 87.0 112.0 L 94.0 111.0 L 101.0 110.0 L 107.0 109.0 L 112.0 108.0 L 115.0 108.0 L 116.0 108.0 L 117.0 108.0 " stroke="black" fill="none" stroke-width="5.0" stroke-linecap="round" stroke-linejoin="round" />
<path d="M 90.0 77.0 L 90.0 77.0 L 90.0 77.0 L 89.0 77.0 L 89.0 77.0 L 89.0 77.0 L 88.0 78.0 L 88.0 78.0 L 88.0 79.0 L 88.0 81.0 L 88.0 83.0 L 88.0 85.0 L 88.0 88.0 L 88.0 92.0 L 88.0 97.0 L 88.0 102.0 L 88.0 107.0 L 88.0 112.0 L 88.0 117.0 L 89.0 121.0 L 89.0 126.0 L 89.0 130.0 L 89.0 134.0 L 90.0 138.0 L 90.0 142.0 L 90.0 146.0 L 90.0 150.0 L 90.0 153.0 L 90.0 156.0 L 90.0 159.0 L 90.0 162.0 L 90.0 164.0 L 90.0 167.0 L 90.0 168.0 L 90.0 170.0 L 90.0 172.0 L 90.0 173.0 L 89.0 175.0 L 89.0 177.0 L 89.0 179.0 L 88.0 182.0 L 88.0 184.0 L 88.0 187.0 L 88.0 189.0 L 88.0 191.0 L 88.0 193.0 L 88.0 195.0 L 88.0 197.0 L 88.0 198.0 L 88.0 200.0 L 88.0 202.0 L 88.0 204.0 L 88.0 206.0 L 88.0 208.0 L 88.0 210.0 L 88.0 212.0 L 88.0 214.0 L 89.0 216.0 L 89.0 219.0 L 89.0 221.0 L 89.0 224.0 L 89.0 227.0 L 89.0 230.0 L 89.0 233.0 L 90.0 235.0 L 90.0 238.0 L 90.0 239.0 L 90.0 240.0 L 90.0 241.0 L 90.0 241.0 L 90.0 241.0 " stroke="black" fill="none" stroke-width="5.0" stroke-linecap="round" stroke-linejoin="round" />
<path d="M 87.0 129.0 L 87.0 129.0 L 86.0 129.0 L 86.0 129.0 L 85.0 129.0 L 85.0 129.0 L 85.0 129.0 L 84.0 129.0 L 84.0 129.0 L 84.0 129.0 L 84.0 130.0 L 84.0 131.0 L 83.0 133.0 L 83.0 137.0 L 82.0 142.0 L 80.0 148.0 L 77.0 156.0 L 74.0 164.0 L 71.0 172.0 L 68.0 179.0 L 65.0 187.0 L 63.0 192.0 L 63.0 195.0 L 62.0 196.0 " stroke="black" fill="none" stroke-width="5.0" stroke-linecap="round" stroke-linejoin="round" />
<path d="M 99.0 133.0 L 99.0 133.0 L 99.0 133.0 L 98.0 133.0 L 98.0 133.0 L 97.0 133.0 L 97.0 133.0 L 97.0 134.0 L 98.0 137.0 L 100.0 140.0 L 102.0 144.0 L 105.0 147.0 L 107.0 150.0 L 110.0 154.0 L 114.0 156.0 L 117.0 158.0 L 120.0 160.0 L 122.0 160.0 " stroke="black" fill="none" stroke-width="5.0" stroke-linecap="round" stroke-linejoin="round" />
<path d="M 179.0 72.0 L 178.0 72.0 L 177.0 71.0 L 175.0 71.0 L 174.0 71.0 L 173.0 70.0 L 173.0 70.0 L 173.0 70.0 L 173.0 70.0 L 173.0 70.0 L 173.0 70.0 L 173.0 70.0 L 174.0 70.0 L 175.0 71.0 L 177.0 73.0 L 179.0 75.0 L 181.0 77.0 L 183.0 80.0 L 185.0 81.0 L 187.0 83.0 L 189.0 85.0 L 191.0 86.0 " stroke="black" fill="none" stroke-width="5.0" stroke-linecap="round" stroke-linejoin="round" />
<path d="M 143.0 102.0 L 143.0 102.0 L 143.0 102.0 L 143.0 101.0 L 143.0 100.0 L 143.0 99.0 L 143.0 98.0 L 143.0 98.0 L 143.0 97.0 L 143.0 97.0 L 143.0 97.0 L 143.0 99.0 L 142.0 101.0 L 142.0 104.0 L 141.0 108.0 L 140.0 112.0 L 140.0 116.0 L 139.0 120.0 L 138.0 124.0 L 138.0 125.0 " stroke="black" fill="none" stroke-width="5.0" stroke-linecap="round" stroke-linejoin="round" />
<path d="M 147.0 98.0 L 147.0 98.0 L 147.0 98.0 L 146.0 98.0 L 146.0 98.0 L 145.0 98.0 L 145.0 98.0 L 144.0 98.0 L 144.0 98.0 L 144.0 98.0 L 144.0 98.0 L 144.0 98.0 L 144.0 98.0 L 144.0 98.0 L 144.0 98.0 L 144.0 98.0 L 144.0 98.0 L 144.0 97.0 L 144.0 97.0 L 145.0 97.0 L 145.0 97.0 L 146.0 97.0 L 146.0 97.0 L 147.0 97.0 L 147.0 97.0 L 148.0 97.0 L 148.0 97.0 L 149.0 96.0 L 150.0 96.0 L 150.0 96.0 L 151.0 96.0 L 151.0 96.0 L 152.0 95.0 L 152.0 95.0 L 152.0 95.0 L 153.0 95.0 L 153.0 95.0 L 153.0 95.0 L 154.0 95.0 L 154.0 95.0 L 155.0 95.0 L 155.0 95.0 L 155.0 95.0 L 156.0 95.0 L 156.0 95.0 L 157.0 95.0 L 157.0 95.0 L 157.0 95.0 L 158.0 95.0 L 158.0 94.0 L 159.0 94.0 L 159.0 94.0 L 160.0 94.0 L 160.0 94.0 L 161.0 94.0 L 161.0 94.0 L 162.0 93.0 L 163.0 93.0 L 163.0 93.0 L 164.0 93.0 L 164.0 93.0 L 165.0 93.0 L 165.0 93.0 L 166.0 93.0 L 166.0 93.0 L 167.0 93.0 L 168.0 93.0 L 169.0 93.0 L 169.0 93.0 L 170.0 93.0 L 171.0 93.0 L 171.0 93.0 L 172.0 93.0 L 173.0 93.0 L 173.0 93.0 L 174.0 93.0 L 175.0 93.0 L 176.0 93.0 L 176.0 93.0 L 177.0 93.0 L 178.0 93.0 L 179.0 93.0 L 179.0 93.0 L 180.0 93.0 L 180.0 93.0 L 181.0 93.0 L 181.0 93.0 L 182.0 93.0 L 182.0 93.0 L 183.0 93.0 L 184.0 93.0 L 184.0 93.0 L 185.0 93.0 L 186.0 93.0 L 186.0 93.0 L 187.0 93.0 L 188.0 93.0 L 188.0 93.0 L 189.0 93.0 L 190.0 93.0 L 190.0 93.0 L 191.0 93.0 L 191.0 93.0 L 192.0 93.0 L 193.0 93.0 L 193.0 93.0 L 194.0 93.0 L 194.0 93.0 L 195.0 93.0 L 196.0 93.0 L 196.0 93.0 L 197.0 93.0 L 197.0 92.0 L 198.0 92.0 L 198.0 92.0 L 199.0 92.0 L 199.0 92.0 L 200.0 92.0 L 200.0 92.0 L 201.0 92.0 L 202.0 91.0 L 202.0 91.0 L 203.0 91.0 L 204.0 91.0 L 204.0 91.0 L 205.0 91.0 L 206.0 91.0 L 207.0 91.0 L 207.0 91.0 L 208.0 91.0 L 209.0 91.0 L 210.0 91.0 L 210.0 91.0 L 211.0 91.0 L 212.0 91.0 L 213.0 91.0 L 213.0 91.0 L 214.0 91.0 L 215.0 91.0 L 216.0 91.0 L 216.0 91.0 L 217.0 91.0 L 218.0 91.0 L 219.0 91.0 L 220.0 91.0 L 221.0 91.0 L 221.0 91.0 L 222.0 91.0 L 223.0 91.0 L 224.0 92.0 L 225.0 92.0 L 225.0 92.0 L 226.0 92.0 L 227.0 92.0 L 228.0 92.0 L 229.0 92.0 L 229.0 93.0 L 230.0 93.0 L 230.0 93.0 L 231.0 93.0 L 231.0 93.0 L 232.0 93.0 L 232.0 93.0 L 232.0 94.0 L 232.0 94.0 L 232.0 94.0 L 232.0 94.0 L 232.0 95.0 L 232.0 95.0 L 232.0 95.0 L 232.0 96.0 L 232.0 96.0 L 232.0 97.0 L 232.0 97.0 L 232.0 98.0 L 232.0 98.0 L 232.0 99.0 L 232.0 99.0 L 231.0 100.0 L 231.0 101.0 L 231.0 102.0 L 230.0 103.0 L 230.0 105.0 L 230.0 107.0 L 229.0 108.0 L 229.0 110.0 L 228.0 111.0 L 228.0 113.0 L 228.0 114.0 L 228.0 116.0 " stroke="black" fill="none" stroke-width="5.0" stroke-linecap="round" stroke-linejoin="round" />
<path d="M 161.0 120.0 L 161.0 120.0 L 161.0 120.0 L 162.0 120.0 L 162.0 120.0 L 162.0 120.0 L 163.0 120.0 L 163.0 120.0 L 163.0 121.0 L 162.0 122.0 L 160.0 124.0 L 158.0 127.0 L 155.0 131.0 L 151.0 135.0 L 147.0 139.0 L 142.0 144.0 L 138.0 148.0 L 134.0 151.0 L 131.0 153.0 " stroke="black" fill="none" stroke-width="5.0" stroke-linecap="round" stroke-linejoin="round" />
<path d="M 200.0 124.0 L 199.0 123.0 L 198.0 123.0 L 198.0 122.0 L 198.0 121.0 L 197.0 121.0 L 197.0 121.0 L 197.0 121.0 L 198.0 121.0 L 200.0 122.0 L 202.0 123.0 L 204.0 125.0 L 207.0 127.0 L 210.0 128.0 L 212.0 130.0 L 215.0 132.0 L 218.0 135.0 L 222.0 137.0 L 225.0 140.0 " stroke="black" fill="none" stroke-width="5.0" stroke-linecap="round" stroke-linejoin="round" />
<path d="M 183.0 146.0 L 183.0 146.0 L 183.0 146.0 L 183.0 146.0 L 183.0 146.0 L 183.0 146.0 L 182.0 146.0 L 182.0 146.0 L 182.0 146.0 L 182.0 146.0 L 182.0 146.0 L 182.0 146.0 L 181.0 146.0 L 180.0 146.0 L 179.0 148.0 L 176.0 151.0 L 172.0 156.0 L 167.0 161.0 L 161.0 168.0 L 155.0 174.0 L 149.0 180.0 L 143.0 186.0 L 137.0 191.0 L 130.0 194.0 L 124.0 196.0 L 120.0 197.0 L 118.0 197.0 " stroke="black" fill="none" stroke-width="5.0" stroke-linecap="round" stroke-linejoin="round" />
<path d="M 186.0 158.0 L 186.0 158.0 L 186.0 157.0 L 185.0 157.0 L 184.0 156.0 L 184.0 156.0 L 183.0 155.0 L 183.0 155.0 L 183.0 155.0 L 183.0 155.0 L 183.0 155.0 L 183.0 155.0 L 184.0 155.0 L 184.0 155.0 L 185.0 155.0 L 187.0 156.0 L 188.0 157.0 L 190.0 159.0 L 193.0 160.0 L 195.0 162.0 L 199.0 164.0 L 203.0 167.0 L 208.0 170.0 L 214.0 172.0 L 221.0 174.0 L 227.0 177.0 L 231.0 179.0 L 235.0 181.0 L 236.0 184.0 L 238.0 187.0 L 238.0 189.0 L 239.0 192.0 L 239.0 193.0 " stroke="black" fill="none" stroke-width="5.0" stroke-linecap="round" stroke-linejoin="round" />
<path d="M 153.0 203.0 L 153.0 203.0 L 153.0 203.0 L 153.0 202.0 L 152.0 202.0 L 152.0 202.0 L 152.0 202.0 L 152.0 202.0 L 152.0 202.0 L 152.0 202.0 L 152.0 204.0 L 152.0 206.0 L 153.0 210.0 L 153.0 216.0 L 153.0 222.0 L 153.0 229.0 L 153.0 235.0 L 153.0 239.0 L 154.0 240.0 " stroke="black" fill="none" stroke-width="5.0" stroke-linecap="round" stroke-linejoin="round" />
<path d="M 153.0 197.0 L 153.0 197.0 L 153.0 197.0 L 152.0 197.0 L 152.0 196.0 L 152.0 196.0 L 151.0 195.0 L 151.0 195.0 L 151.0 195.0 L 151.0 195.0 L 151.0 195.0 L 150.0 195.0 L 150.0 195.0 L 150.0 195.0 L 150.0 195.0 L 150.0 195.0 L 150.0 195.0 L 150.0 195.0 L 150.0 195.0 L 150.0 195.0 L 150.0 195.0 L 151.0 195.0 L 151.0 195.0 L 151.0 195.0 L 152.0 195.0 L 152.0 195.0 L 153.0 195.0 L 153.0 195.0 L 155.0 195.0 L 156.0 195.0 L 158.0 195.0 L 160.0 194.0 L 163.0 193.0 L 167.0 193.0 L 171.0 192.0 L 175.0 191.0 L 179.0 191.0 L 182.0 190.0 L 186.0 190.0 L 189.0 190.0 L 191.0 190.0 L 194.0 190.0 L 196.0 190.0 L 197.0 190.0 L 198.0 190.0 L 200.0 190.0 L 201.0 190.0 L 202.0 190.0 L 203.0 190.0 L 204.0 190.0 L 205.0 190.0 L 206.0 190.0 L 207.0 190.0 L 208.0 190.0 L 209.0 190.0 L 210.0 190.0 L 210.0 190.0 L 211.0 190.0 L 211.0 190.0 L 212.0 190.0 L 212.0 191.0 L 212.0 191.0 L 213.0 191.0 L 213.0 192.0 L 213.0 192.0 L 214.0 193.0 L 214.0 194.0 L 214.0 196.0 L 214.0 199.0 L 214.0 203.0 L 214.0 207.0 L 213.0 213.0 L 212.0 218.0 L 211.0 225.0 L 210.0 231.0 L 209.0 236.0 L 209.0 240.0 L 208.0 243.0 L 208.0 244.0 L 208.0 244.0 L 208.0 244.0 L 208.0 242.0 L 208.0 240.0 L 207.0 238.0 " stroke="black" fill="none" stroke-width="5.0" stroke-linecap="round" stroke-linejoin="round" />
<path d="M 153.0 248.0 L 153.0 248.0 L 152.0 248.0 L 152.0 248.0 L 151.0 248.0 L 151.0 248.0 L 151.0 248.0 L 152.0 248.0 L 155.0 248.0 L 158.0 248.0 L 163.0 248.0 L 169.0 248.0 L 176.0 247.0 L 184.0 246.0 L 191.0 245.0 L 197.0 244.0 L 201.0 244.0 L 204.0 244.0 L 207.0 244.0 L 208.0 245.0 L 209.0 246.0 L 209.0 246.0 " stroke="black" fill="none" stroke-width="5.0" stroke-linecap="round" stroke-linejoin="round" />
</svg>