<svg xmlns="http://www.w3.org/2000/svg" width="300" height="300" viewBox="0 0 300 300">
<path d="M 119.0 77.0 L 119.0 77.0 L 119.0 77.0 L 119.0 77.0 L 119.0 77.0 L 120.0 77.0 L 120.0 77.0 L 120.0 78.0 L 120.0 79.0 L 120.0 80.0 L 120.0 82.0 L 120.0 85.0 L 120.0 89.0 L 119.0 95.0 L 119.0 101.0 L 119.0 108.0 L 118.0 116.0 L 117.0 124.0 L 117.0 131.0 L 117.0 139.0 L 116.0 147.0 L 116.0 154.0 L 116.0 161.0 L 116.0 168.0 L 116.0 173.0 L 116.0 178.0 L 117.0 185.0 L 117.0 191.0 L 118.0 197.0 L 118.0 202.0 L 118.0 206.0 L 118.0 209.0 L 118.0 212.0 L 118.0 215.0 L 118.0 218.0 L 117.0 222.0 L 117.0 225.0 L 117.0 227.0 L 117.0 231.0 L 117.0 234.0 L 117.0 236.0 L 117.0 237.0 L 117.0 239.0 L 117.0 240.0 L 117.0 241.0 L 117.0 241.0 L 117.0 241.0 L 117.0 241.0 L 117.0 240.0 " stroke="black" fill="none" stroke-width="5.0" stroke-linecap="round" stroke-linejoin="round" />
<path d="M 122.0 139.0 L 121.0 139.0 L 119.0 139.0 L 118.0 140.0 L 117.0 140.0 L 117.0 140.0 L 117.0 140.0 L 117.0 140.0 L 118.0 140.0 L 120.0 141.0 L 123.0 141.0 L 127.0 141.0 L 131.0 141.0 L 136.0 140.0 L 141.0 139.0 L 145.0 138.0 L 148.0 138.0 L 152.0 137.0 L 153.0 137.0 " stroke="black" fill="none" stroke-width="5.0" stroke-linecap="round" stroke-linejoin="round" />
<path d="M 84.0 124.0 L 84.0 124.0 L 84.0 124.0 L 84.0 124.0 L 84.0 124.0 L 84.0 124.0 L 84.0 124.0 L 84.0 124.0 L 84.0 125.0 L 84.0 125.0 L 84.0 125.0 L 84.0 127.0 L 84.0 128.0 L 84.0 132.0 L 84.0 137.0 L 84.0 143.0 L 83.0 151.0 L 82.0 158.0 L 82.0 165.0 L 82.0 171.0 L 81.0 178.0 L 81.0 184.0 L 81.0 190.0 L 81.0 196.0 L 81.0 201.0 L 81.0 206.0 L 81.0 210.0 L 81.0 214.0 L 81.0 218.0 L 81.0 221.0 L 81.0 225.0 L 81.0 228.0 L 81.0 231.0 L 81.0 233.0 L 81.0 235.0 L 81.0 237.0 L 81.0 239.0 L 81.0 241.0 L 81.0 242.0 L 81.0 243.0 L 81.0 244.0 L 81.0 245.0 L 81.0 245.0 L 81.0 245.0 L 81.0 245.0 L 82.0 245.0 L 82.0 245.0 L 82.0 244.0 " stroke="black" fill="none" stroke-width="5.0" stroke-linecap="round" stroke-linejoin="round" />
<path d="M 73.0 247.0 L 72.0 247.0 L 71.0 248.0 L 70.0 249.0 L 70.0 250.0 L 69.0 251.0 L 69.0 252.0 L 69.0 252.0 L 69.0 252.0 L 69.0 252.0 L 70.0 252.0 L 71.0 252.0 L 74.0 252.0 L 76.0 251.0 L 80.0 250.0 L 85.0 248.0 L 91.0 247.0 L 99.0 245.0 L 105.0 243.0 L 112.0 240.0 L 118.0 237.0 L 124.0 235.0 L 129.0 232.0 L 134.0 229.0 L 137.0 227.0 L 140.0 226.0 L 141.0 226.0 L 142.0 226.0 L 142.0 226.0 L 142.0 226.0 L 142.0 226.0 " stroke="black" fill="none" stroke-width="5.0" stroke-linecap="round" stroke-linejoin="round" />
<path d="M 235.0 135.0 L 235.0 135.0 L 235.0 135.0 L 235.0 134.0 L 235.0 134.0 L 234.0 134.0 L 234.0 134.0 L 233.0 134.0 L 232.0 134.0 L 230.0 134.0 L 228.0 134.0 L 225.0 134.0 L 221.0 134.0 L 215.0 136.0 L 209.0 137.0 L 203.0 139.0 L 199.0 140.0 L 195.0 141.0 L 193.0 141.0 L 192.0 141.0 " stroke="black" fill="none" stroke-width="5.0" stroke-linecap="round" stroke-linejoin="round" />
<path d="M 182.0 83.0 L 182.0 83.0 L 182.0 83.0 L 181.0 82.0 L 181.0 82.0 L 180.0 82.0 L 180.0 82.0 L 180.0 82.0 L 180.0 82.0 L 180.0 82.0 L 180.0 82.0 L 180.0 84.0 L 180.0 86.0 L 180.0 89.0 L 180.0 93.0 L 179.0 98.0 L 179.0 103.0 L 179.0 109.0 L 179.0 115.0 L 179.0 120.0 L 179.0 126.0 L 179.0 131.0 L 179.0 136.0 L 179.0 142.0 L 180.0 147.0 L 180.0 152.0 L 181.0 156.0 L 181.0 160.0 L 182.0 163.0 L 182.0 166.0 L 183.0 170.0 L 183.0 172.0 L 183.0 175.0 L 183.0 179.0 L 183.0 182.0 L 183.0 185.0 L 183.0 189.0 L 183.0 192.0 L 183.0 195.0 L 183.0 198.0 L 183.0 200.0 L 183.0 202.0 L 183.0 204.0 L 183.0 206.0 L 184.0 208.0 L 184.0 211.0 L 184.0 213.0 L 184.0 214.0 L 184.0 216.0 L 184.0 218.0 L 184.0 220.0 L 184.0 223.0 L 184.0 225.0 L 184.0 227.0 L 184.0 230.0 L 184.0 232.0 L 184.0 234.0 L 184.0 235.0 L 184.0 237.0 L 184.0 238.0 L 184.0 239.0 L 185.0 240.0 L 185.0 241.0 L 185.0 243.0 L 185.0 243.0 L 185.0 244.0 L 186.0 245.0 L 186.0 246.0 L 187.0 247.0 L 187.0 247.0 L 188.0 247.0 L 189.0 247.0 L 191.0 248.0 L 192.0 248.0 L 193.0 248.0 L 195.0 248.0 L 196.0 249.0 L 198.0 249.0 L 200.0 250.0 L 202.0 250.0 L 205.0 250.0 L 208.0 250.0 L 212.0 250.0 L 216.0 250.0 L 221.0 250.0 L 225.0 249.0 L 229.0 249.0 L 233.0 248.0 L 236.0 247.0 L 239.0 246.0 L 242.0 245.0 L 243.0 244.0 L 244.0 243.0 L 245.0 241.0 L 245.0 241.0 L 245.0 240.0 L 245.0 240.0 L 245.0 239.0 L 245.0 238.0 L 245.0 237.0 L 245.0 235.0 L 245.0 232.0 L 245.0 229.0 L 245.0 225.0 L 245.0 219.0 L 245.0 214.0 L 245.0 209.0 L 245.0 205.0 L 246.0 201.0 L 246.0 198.0 L 246.0 195.0 " stroke="black" fill="none" stroke-width="5.0" stroke-linecap="round" stroke-linejoin="round" />
</svg>