<svg xmlns="http://www.w3.org/2000/svg" width="300" height="300" viewBox="0 0 300 300">
<path d="M 103.0 73.0 L 103.0 73.0 L 103.0 72.0 L 104.0 71.0 L 105.0 70.0 L 105.0 69.0 L 106.0 69.0 L 106.0 69.0 L 106.0 68.0 L 106.0 68.0 L 106.0 68.0 L 106.0 68.0 L 106.0 68.0 L 106.0 69.0 L 105.0 70.0 L 104.0 70.0 L 103.0 71.0 L 102.0 72.0 L 100.0 73.0 L 98.0 74.0 L 96.0 75.0 L 94.0 76.0 L 91.0 78.0 L 88.0 80.0 L 85.0 81.0 L 82.0 82.0 L 80.0 84.0 L 78.0 85.0 L 76.0 85.0 L 75.0 86.0 L 74.0 86.0 L 73.0 86.0 L 72.0 87.0 L 72.0 87.0 L 72.0 87.0 L 72.0 87.0 L 72.0 88.0 L 72.0 88.0 L 72.0 88.0 L 72.0 89.0 L 72.0 89.0 L 72.0 89.0 L 72.0 90.0 L 72.0 90.0 L 72.0 91.0 L 72.0 91.0 L 72.0 92.0 L 72.0 93.0 L 72.0 95.0 L 72.0 96.0 L 72.0 98.0 L 72.0 100.0 L 71.0 103.0 L 71.0 106.0 L 71.0 108.0 L 70.0 111.0 L 70.0 114.0 L 70.0 116.0 L 70.0 118.0 L 70.0 120.0 L 70.0 122.0 L 70.0 123.0 L 70.0 125.0 L 70.0 127.0 L 70.0 128.0 L 69.0 130.0 L 69.0 131.0 L 69.0 133.0 L 69.0 135.0 L 69.0 137.0 L 69.0 139.0 L 69.0 140.0 L 69.0 142.0 L 69.0 143.0 L 69.0 144.0 L 69.0 145.0 L 69.0 146.0 L 69.0 148.0 L 69.0 149.0 L 69.0 150.0 L 69.0 151.0 L 69.0 151.0 L 69.0 152.0 L 69.0 153.0 L 69.0 153.0 L 69.0 154.0 L 69.0 154.0 L 69.0 155.0 L 69.0 155.0 L 69.0 155.0 L 69.0 155.0 L 69.0 155.0 L 69.0 155.0 L 69.0 155.0 L 69.0 155.0 L 69.0 155.0 L 69.0 156.0 L 69.0 156.0 L 69.0 156.0 L 69.0 156.0 L 69.0 157.0 L 69.0 157.0 L 69.0 157.0 L 69.0 157.0 L 69.0 157.0 L 69.0 157.0 L 69.0 157.0 L 69.0 157.0 L 69.0 157.0 L 69.0 157.0 L 69.0 158.0 L 70.0 158.0 L 70.0 158.0 L 70.0 158.0 L 70.0 158.0 L 70.0 158.0 L 70.0 158.0 L 70.0 158.0 L 70.0 158.0 L 70.0 158.0 L 70.0 158.0 L 70.0 158.0 L 70.0 159.0 L 70.0 159.0 L 70.0 159.0 L 70.0 159.0 L 70.0 159.0 L 70.0 159.0 L 70.0 159.0 L 70.0 159.0 L 70.0 159.0 L 70.0 159.0 L 70.0 159.0 L 70.0 159.0 L 70.0 159.0 L 70.0 159.0 L 71.0 159.0 L 71.0 159.0 L 71.0 159.0 L 72.0 159.0 L 72.0 159.0 L 74.0 159.0 L 75.0 159.0 L 78.0 159.0 L 81.0 159.0 L 85.0 159.0 L 90.0 159.0 L 95.0 159.0 L 101.0 159.0 L 106.0 159.0 L 110.0 159.0 L 113.0 159.0 L 117.0 159.0 L 119.0 159.0 L 121.0 159.0 L 123.0 159.0 L 124.0 159.0 L 126.0 159.0 L 128.0 159.0 L 129.0 159.0 L 130.0 159.0 L 131.0 159.0 L 132.0 159.0 L 132.0 159.0 L 132.0 159.0 L 132.0 159.0 L 132.0 159.0 L 132.0 159.0 L 132.0 159.0 " stroke="black" fill="none" stroke-width="5.0" stroke-linecap="round" stroke-linejoin="round" />
<path d="M 75.0 120.0 L 74.0 120.0 L 73.0 120.0 L 72.0 120.0 L 72.0 120.0 L 71.0 120.0 L 71.0 120.0 L 71.0 120.0 L 71.0 120.0 L 71.0 120.0 L 73.0 120.0 L 76.0 120.0 L 79.0 120.0 L 83.0 120.0 L 89.0 120.0 L 92.0 120.0 " stroke="black" fill="none" stroke-width="5.0" stroke-linecap="round" stroke-linejoin="round" />
<path d="M 118.0 85.0 L 117.0 85.0 L 115.0 86.0 L 114.0 86.0 L 113.0 86.0 L 112.0 87.0 L 112.0 87.0 L 111.0 87.0 L 111.0 87.0 L 111.0 87.0 L 111.0 87.0 L 112.0 87.0 L 112.0 87.0 L 114.0 87.0 L 115.0 87.0 L 116.0 88.0 L 118.0 88.0 L 120.0 88.0 L 122.0 89.0 L 125.0 89.0 L 128.0 89.0 L 132.0 90.0 L 135.0 90.0 L 139.0 90.0 L 141.0 90.0 L 143.0 90.0 L 145.0 90.0 L 146.0 90.0 L 146.0 91.0 L 146.0 92.0 L 146.0 93.0 L 146.0 94.0 L 145.0 96.0 L 144.0 98.0 L 144.0 101.0 L 143.0 103.0 L 143.0 106.0 L 143.0 109.0 L 142.0 112.0 L 142.0 114.0 L 142.0 118.0 L 142.0 121.0 L 142.0 124.0 L 142.0 127.0 L 142.0 130.0 L 142.0 133.0 L 142.0 137.0 L 142.0 140.0 L 142.0 143.0 L 141.0 146.0 L 141.0 148.0 L 141.0 150.0 L 141.0 152.0 L 141.0 154.0 L 141.0 155.0 L 141.0 156.0 L 141.0 156.0 L 141.0 156.0 L 141.0 156.0 L 141.0 156.0 L 141.0 155.0 " stroke="black" fill="none" stroke-width="5.0" stroke-linecap="round" stroke-linejoin="round" />
<path d="M 115.0 120.0 L 115.0 120.0 L 114.0 120.0 L 114.0 120.0 L 113.0 120.0 L 113.0 120.0 L 112.0 119.0 L 112.0 119.0 L 112.0 119.0 L 112.0 119.0 L 113.0 119.0 L 114.0 119.0 L 116.0 119.0 L 119.0 119.0 L 121.0 119.0 L 125.0 120.0 L 128.0 120.0 L 133.0 121.0 L 137.0 121.0 " stroke="black" fill="none" stroke-width="5.0" stroke-linecap="round" stroke-linejoin="round" />
<path d="M 82.0 192.0 L 80.0 192.0 L 79.0 192.0 L 77.0 192.0 L 76.0 192.0 L 75.0 192.0 L 74.0 192.0 L 74.0 192.0 L 74.0 192.0 L 74.0 192.0 L 75.0 192.0 L 78.0 192.0 L 82.0 192.0 L 88.0 191.0 L 94.0 191.0 L 101.0 190.0 L 107.0 190.0 L 112.0 189.0 L 118.0 189.0 L 122.0 189.0 L 126.0 189.0 L 129.0 189.0 L 131.0 189.0 L 132.0 189.0 " stroke="black" fill="none" stroke-width="5.0" stroke-linecap="round" stroke-linejoin="round" />
<path d="M 111.0 170.0 L 110.0 170.0 L 110.0 170.0 L 109.0 170.0 L 108.0 170.0 L 108.0 170.0 L 108.0 171.0 L 107.0 172.0 L 107.0 174.0 L 107.0 176.0 L 107.0 182.0 L 107.0 188.0 L 107.0 194.0 L 106.0 200.0 L 106.0 206.0 L 106.0 211.0 L 105.0 216.0 L 105.0 219.0 L 105.0 222.0 L 104.0 225.0 L 104.0 227.0 L 103.0 229.0 L 102.0 230.0 L 100.0 232.0 L 98.0 233.0 L 96.0 234.0 L 94.0 235.0 L 92.0 236.0 L 90.0 237.0 L 89.0 237.0 L 88.0 237.0 L 87.0 237.0 L 87.0 237.0 L 87.0 237.0 L 86.0 236.0 L 86.0 236.0 L 86.0 236.0 L 86.0 235.0 L 86.0 235.0 L 86.0 235.0 L 86.0 235.0 L 86.0 235.0 L 87.0 235.0 L 88.0 235.0 L 90.0 235.0 L 93.0 235.0 L 96.0 235.0 L 101.0 235.0 L 106.0 234.0 L 112.0 233.0 L 118.0 231.0 L 126.0 229.0 L 134.0 225.0 L 138.0 224.0 " stroke="black" fill="none" stroke-width="5.0" stroke-linecap="round" stroke-linejoin="round" />
<path d="M 178.0 84.0 L 178.0 84.0 L 178.0 83.0 L 178.0 82.0 L 178.0 81.0 L 178.0 81.0 L 178.0 80.0 L 178.0 80.0 L 178.0 81.0 L 178.0 83.0 L 178.0 86.0 L 176.0 92.0 L 175.0 99.0 L 173.0 107.0 L 170.0 115.0 L 167.0 123.0 L 165.0 131.0 L 163.0 137.0 L 161.0 140.0 L 161.0 142.0 L 161.0 142.0 " stroke="black" fill="none" stroke-width="5.0" stroke-linecap="round" stroke-linejoin="round" />
<path d="M 186.0 86.0 L 185.0 86.0 L 184.0 86.0 L 182.0 86.0 L 181.0 86.0 L 180.0 85.0 L 180.0 85.0 L 180.0 84.0 L 180.0 84.0 L 180.0 83.0 L 181.0 83.0 L 183.0 82.0 L 185.0 82.0 L 188.0 82.0 L 191.0 82.0 L 195.0 82.0 L 198.0 82.0 L 202.0 83.0 L 206.0 84.0 L 210.0 86.0 L 214.0 87.0 L 218.0 89.0 L 220.0 92.0 L 222.0 95.0 L 222.0 99.0 L 222.0 103.0 L 222.0 107.0 L 220.0 111.0 L 218.0 116.0 L 216.0 120.0 L 214.0 124.0 L 212.0 128.0 L 211.0 131.0 L 210.0 135.0 L 210.0 137.0 L 210.0 139.0 L 210.0 140.0 L 210.0 141.0 L 211.0 141.0 L 213.0 142.0 L 215.0 142.0 L 217.0 142.0 L 221.0 142.0 L 225.0 143.0 L 229.0 143.0 L 233.0 143.0 L 237.0 143.0 L 240.0 143.0 L 244.0 142.0 L 246.0 141.0 L 248.0 141.0 " stroke="black" fill="none" stroke-width="5.0" stroke-linecap="round" stroke-linejoin="round" />
<path d="M 164.0 169.0 L 163.0 169.0 L 161.0 169.0 L 160.0 169.0 L 159.0 169.0 L 159.0 169.0 L 159.0 169.0 L 159.0 169.0 L 159.0 169.0 L 161.0 169.0 L 164.0 169.0 L 169.0 169.0 L 175.0 168.0 L 182.0 168.0 L 189.0 168.0 L 196.0 167.0 L 203.0 166.0 L 209.0 166.0 L 215.0 165.0 L 220.0 165.0 L 224.0 165.0 L 227.0 166.0 L 230.0 167.0 L 231.0 168.0 L 231.0 169.0 L 231.0 171.0 L 231.0 173.0 L 229.0 175.0 L 228.0 179.0 L 225.0 183.0 L 223.0 187.0 L 219.0 192.0 L 215.0 196.0 L 210.0 201.0 L 204.0 206.0 L 199.0 212.0 L 193.0 218.0 L 185.0 225.0 L 178.0 233.0 L 169.0 239.0 L 161.0 245.0 L 155.0 249.0 L 153.0 252.0 L 151.0 252.0 L 151.0 252.0 " stroke="black" fill="none" stroke-width="5.0" stroke-linecap="round" stroke-linejoin="round" />
<path d="M 170.0 176.0 L 169.0 176.0 L 168.0 176.0 L 167.0 176.0 L 166.0 176.0 L 166.0 176.0 L 166.0 176.0 L 166.0 176.0 L 166.0 176.0 L 168.0 176.0 L 171.0 177.0 L 174.0 178.0 L 178.0 181.0 L 182.0 185.0 L 187.0 190.0 L 191.0 195.0 L 197.0 202.0 L 202.0 208.0 L 207.0 215.0 L 214.0 222.0 L 221.0 229.0 L 228.0 234.0 L 235.0 239.0 L 239.0 242.0 L 242.0 244.0 L 244.0 246.0 L 246.0 246.0 L 246.0 246.0 L 246.0 246.0 " stroke="black" fill="none" stroke-width="5.0" stroke-linecap="round" stroke-linejoin="round" />
</svg>