<svg xmlns="http://www.w3.org/2000/svg" width="300" height="300" viewBox="0 0 300 300">
<path d="M 68.0 85.0 L 67.0 85.0 L 66.0 85.0 L 65.0 84.0 L 64.0 84.0 L 63.0 84.0 L 63.0 84.0 L 63.0 84.0 L 63.0 84.0 L 63.0 84.0 L 65.0 84.0 L 67.0 85.0 L 71.0 85.0 L 77.0 86.0 L 84.0 86.0 L 93.0 86.0 L 102.0 86.0 L 109.0 85.0 L 116.0 84.0 L 122.0 84.0 L 126.0 84.0 L 129.0 84.0 L 130.0 85.0 " stroke="black" fill="none" stroke-width="5.0" stroke-linecap="round" stroke-linejoin="round" />
<path d="M 97.0 91.0 L 97.0 91.0 L 96.0 92.0 L 95.0 92.0 L 94.0 93.0 L 94.0 94.0 L 93.0 96.0 L 92.0 98.0 L 92.0 101.0 L 91.0 104.0 L 90.0 108.0 L 89.0 113.0 L 88.0 117.0 L 87.0 122.0 L 85.0 128.0 L 82.0 134.0 L 79.0 141.0 L 76.0 149.0 L 72.0 155.0 L 69.0 160.0 L 65.0 165.0 L 63.0 168.0 L 60.0 171.0 L 57.0 174.0 L 55.0 175.0 " stroke="black" fill="none" stroke-width="5.0" stroke-linecap="round" stroke-linejoin="round" />
<path d="M 89.0 130.0 L 87.0 130.0 L 86.0 129.0 L 85.0 129.0 L 84.0 129.0 L 84.0 129.0 L 84.0 129.0 L 84.0 129.0 L 84.0 129.0 L 84.0 129.0 L 85.0 129.0 L 86.0 129.0 L 87.0 129.0 L 89.0 129.0 L 91.0 129.0 L 94.0 129.0 L 97.0 129.0 L 101.0 129.0 L 105.0 128.0 L 108.0 128.0 L 112.0 127.0 L 116.0 127.0 L 119.0 126.0 L 121.0 126.0 L 123.0 126.0 L 125.0 126.0 L 125.0 126.0 L 126.0 126.0 L 126.0 126.0 L 126.0 127.0 L 126.0 127.0 L 126.0 128.0 L 125.0 130.0 L 124.0 132.0 L 123.0 134.0 L 122.0 137.0 L 121.0 140.0 L 119.0 144.0 L 118.0 148.0 L 116.0 152.0 L 115.0 156.0 L 113.0 160.0 L 112.0 164.0 L 111.0 169.0 L 110.0 173.0 L 109.0 177.0 L 108.0 181.0 L 107.0 185.0 L 106.0 189.0 L 106.0 192.0 L 105.0 195.0 L 103.0 198.0 L 102.0 201.0 L 101.0 204.0 L 99.0 207.0 L 97.0 210.0 L 94.0 214.0 L 92.0 217.0 L 89.0 221.0 L 86.0 224.0 L 83.0 227.0 L 80.0 229.0 L 78.0 230.0 L 76.0 231.0 L 75.0 232.0 L 74.0 232.0 " stroke="black" fill="none" stroke-width="5.0" stroke-linecap="round" stroke-linejoin="round" />
<path d="M 76.0 157.0 L 75.0 157.0 L 74.0 157.0 L 73.0 157.0 L 73.0 158.0 L 72.0 159.0 L 73.0 160.0 L 74.0 161.0 L 78.0 164.0 L 82.0 166.0 L 88.0 169.0 L 93.0 172.0 L 98.0 175.0 L 103.0 178.0 L 107.0 181.0 L 109.0 184.0 " stroke="black" fill="none" stroke-width="5.0" stroke-linecap="round" stroke-linejoin="round" />
<path d="M 185.0 82.0 L 185.0 82.0 L 185.0 81.0 L 184.0 81.0 L 184.0 81.0 L 184.0 81.0 L 184.0 81.0 L 184.0 81.0 L 184.0 81.0 L 184.0 81.0 L 184.0 82.0 L 183.0 83.0 L 183.0 84.0 L 181.0 87.0 L 179.0 90.0 L 176.0 95.0 L 173.0 100.0 L 169.0 106.0 L 164.0 112.0 L 160.0 117.0 L 157.0 123.0 L 154.0 127.0 L 153.0 131.0 L 152.0 135.0 L 150.0 139.0 L 149.0 142.0 L 148.0 146.0 L 147.0 149.0 L 146.0 150.0 L 145.0 151.0 L 145.0 151.0 L 145.0 151.0 L 145.0 151.0 L 145.0 150.0 L 145.0 150.0 L 145.0 149.0 L 146.0 149.0 L 146.0 149.0 L 147.0 149.0 L 147.0 148.0 L 148.0 148.0 L 149.0 148.0 L 150.0 148.0 L 151.0 148.0 L 153.0 148.0 L 155.0 147.0 L 159.0 147.0 L 163.0 147.0 L 169.0 147.0 L 176.0 147.0 L 183.0 146.0 L 190.0 146.0 L 196.0 145.0 L 201.0 144.0 L 206.0 143.0 L 210.0 142.0 L 213.0 142.0 L 216.0 142.0 L 219.0 142.0 L 220.0 142.0 L 222.0 142.0 L 223.0 142.0 " stroke="black" fill="none" stroke-width="5.0" stroke-linecap="round" stroke-linejoin="round" />
<path d="M 207.0 106.0 L 207.0 106.0 L 207.0 105.0 L 207.0 104.0 L 207.0 104.0 L 206.0 103.0 L 206.0 103.0 L 206.0 103.0 L 206.0 104.0 L 207.0 106.0 L 209.0 109.0 L 211.0 113.0 L 213.0 117.0 L 216.0 121.0 L 219.0 126.0 L 223.0 132.0 L 227.0 138.0 L 231.0 144.0 L 233.0 149.0 L 235.0 153.0 L 235.0 155.0 " stroke="black" fill="none" stroke-width="5.0" stroke-linecap="round" stroke-linejoin="round" />
<path d="M 151.0 179.0 L 151.0 179.0 L 151.0 179.0 L 150.0 178.0 L 150.0 178.0 L 149.0 178.0 L 149.0 178.0 L 149.0 178.0 L 149.0 179.0 L 149.0 181.0 L 149.0 184.0 L 149.0 187.0 L 150.0 191.0 L 150.0 195.0 L 151.0 200.0 L 151.0 206.0 L 152.0 214.0 L 152.0 222.0 L 153.0 231.0 L 154.0 237.0 L 155.0 241.0 L 157.0 244.0 L 157.0 244.0 " stroke="black" fill="none" stroke-width="5.0" stroke-linecap="round" stroke-linejoin="round" />
<path d="M 157.0 173.0 L 157.0 173.0 L 156.0 173.0 L 156.0 173.0 L 155.0 173.0 L 155.0 173.0 L 154.0 173.0 L 154.0 173.0 L 154.0 173.0 L 154.0 173.0 L 154.0 173.0 L 154.0 173.0 L 154.0 173.0 L 154.0 173.0 L 155.0 173.0 L 156.0 173.0 L 157.0 173.0 L 158.0 173.0 L 159.0 174.0 L 160.0 174.0 L 161.0 174.0 L 162.0 175.0 L 164.0 175.0 L 166.0 175.0 L 168.0 175.0 L 170.0 175.0 L 172.0 175.0 L 174.0 175.0 L 176.0 175.0 L 178.0 175.0 L 179.0 175.0 L 180.0 175.0 L 181.0 175.0 L 182.0 175.0 L 183.0 175.0 L 183.0 175.0 L 184.0 175.0 L 185.0 175.0 L 186.0 175.0 L 186.0 175.0 L 187.0 175.0 L 188.0 175.0 L 189.0 174.0 L 189.0 174.0 L 190.0 174.0 L 191.0 174.0 L 191.0 174.0 L 192.0 174.0 L 193.0 174.0 L 193.0 174.0 L 194.0 173.0 L 195.0 173.0 L 196.0 173.0 L 197.0 173.0 L 197.0 173.0 L 198.0 173.0 L 199.0 173.0 L 200.0 173.0 L 200.0 173.0 L 201.0 173.0 L 201.0 173.0 L 202.0 173.0 L 203.0 173.0 L 203.0 173.0 L 204.0 173.0 L 205.0 173.0 L 205.0 173.0 L 206.0 173.0 L 207.0 173.0 L 208.0 173.0 L 209.0 173.0 L 209.0 173.0 L 210.0 173.0 L 211.0 173.0 L 212.0 173.0 L 213.0 173.0 L 214.0 173.0 L 215.0 174.0 L 216.0 174.0 L 217.0 174.0 L 218.0 174.0 L 219.0 174.0 L 219.0 175.0 L 220.0 175.0 L 221.0 175.0 L 222.0 176.0 L 222.0 176.0 L 223.0 176.0 L 224.0 176.0 L 224.0 177.0 L 225.0 177.0 L 225.0 177.0 L 226.0 178.0 L 226.0 178.0 L 226.0 179.0 L 226.0 180.0 L 226.0 181.0 L 226.0 183.0 L 226.0 186.0 L 226.0 189.0 L 226.0 192.0 L 225.0 195.0 L 225.0 198.0 L 225.0 202.0 L 225.0 206.0 L 225.0 210.0 L 225.0 215.0 L 225.0 221.0 L 225.0 226.0 L 225.0 231.0 L 225.0 234.0 L 224.0 236.0 L 224.0 238.0 L 224.0 238.0 L 224.0 238.0 L 224.0 238.0 L 224.0 238.0 L 224.0 237.0 L 223.0 237.0 L 223.0 237.0 " stroke="black" fill="none" stroke-width="5.0" stroke-linecap="round" stroke-linejoin="round" />
<path d="M 157.0 240.0 L 157.0 240.0 L 156.0 240.0 L 155.0 240.0 L 154.0 240.0 L 154.0 240.0 L 154.0 240.0 L 154.0 240.0 L 154.0 240.0 L 154.0 240.0 L 155.0 240.0 L 157.0 240.0 L 158.0 241.0 L 160.0 241.0 L 163.0 241.0 L 166.0 242.0 L 170.0 242.0 L 174.0 243.0 L 179.0 243.0 L 185.0 244.0 L 190.0 244.0 L 195.0 244.0 L 200.0 244.0 L 205.0 243.0 L 209.0 242.0 L 213.0 242.0 L 217.0 241.0 L 219.0 241.0 L 221.0 241.0 L 223.0 242.0 L 224.0 242.0 " stroke="black" fill="none" stroke-width="5.0" stroke-linecap="round" stroke-linejoin="round" />
</svg>