<svg xmlns="http://www.w3.org/2000/svg" width="300" height="300" viewBox="0 0 300 300">
<path d="M 114.0 71.0 L 114.0 71.0 L 114.0 71.0 L 113.0 71.0 L 113.0 71.0 L 112.0 71.0 L 112.0 71.0 L 112.0 70.0 L 112.0 70.0 L 112.0 70.0 L 112.0 70.0 L 113.0 70.0 L 115.0 71.0 L 117.0 72.0 L 121.0 73.0 L 125.0 75.0 L 130.0 76.0 L 135.0 78.0 L 141.0 79.0 L 147.0 81.0 L 152.0 82.0 L 156.0 83.0 L 160.0 84.0 L 163.0 85.0 L 166.0 87.0 L 169.0 88.0 L 171.0 90.0 L 173.0 91.0 L 175.0 93.0 " stroke="black" fill="none" stroke-width="5.0" stroke-linecap="round" stroke-linejoin="round" />
<path d="M 96.0 118.0 L 96.0 118.0 L 96.0 118.0 L 96.0 118.0 L 96.0 118.0 L 96.0 118.0 L 96.0 117.0 L 96.0 117.0 L 96.0 117.0 L 96.0 117.0 L 96.0 117.0 L 96.0 117.0 L 96.0 117.0 L 96.0 117.0 L 96.0 117.0 L 97.0 117.0 L 99.0 117.0 L 100.0 117.0 L 102.0 117.0 L 104.0 117.0 L 107.0 117.0 L 110.0 117.0 L 114.0 117.0 L 118.0 117.0 L 122.0 117.0 L 127.0 116.0 L 131.0 116.0 L 135.0 116.0 L 139.0 116.0 L 142.0 116.0 L 145.0 116.0 L 147.0 115.0 L 148.0 115.0 L 148.0 115.0 L 149.0 115.0 L 149.0 115.0 L 149.0 114.0 L 149.0 114.0 L 149.0 114.0 L 150.0 114.0 L 150.0 114.0 L 150.0 114.0 L 150.0 114.0 L 150.0 115.0 L 150.0 115.0 L 150.0 115.0 L 150.0 115.0 L 151.0 115.0 L 151.0 115.0 L 151.0 115.0 L 151.0 115.0 L 151.0 115.0 L 151.0 115.0 L 151.0 116.0 L 151.0 116.0 L 151.0 116.0 L 151.0 116.0 L 151.0 116.0 L 151.0 117.0 L 151.0 117.0 L 151.0 117.0 L 151.0 117.0 L 151.0 118.0 L 151.0 118.0 L 151.0 119.0 L 151.0 120.0 L 151.0 120.0 L 151.0 121.0 L 151.0 123.0 L 151.0 124.0 L 151.0 127.0 L 151.0 129.0 L 151.0 132.0 L 152.0 136.0 L 152.0 140.0 L 152.0 144.0 L 152.0 149.0 L 152.0 153.0 L 153.0 156.0 L 153.0 160.0 L 153.0 162.0 L 153.0 164.0 L 154.0 166.0 L 154.0 168.0 L 154.0 170.0 L 154.0 173.0 L 154.0 175.0 L 154.0 178.0 L 154.0 182.0 L 153.0 186.0 L 153.0 189.0 L 152.0 193.0 L 152.0 196.0 L 152.0 199.0 L 151.0 201.0 L 151.0 204.0 L 151.0 206.0 L 150.0 208.0 L 150.0 210.0 L 150.0 212.0 L 150.0 214.0 L 150.0 216.0 L 150.0 219.0 L 150.0 221.0 L 150.0 223.0 L 150.0 226.0 L 150.0 228.0 L 150.0 230.0 L 150.0 232.0 L 150.0 234.0 L 150.0 236.0 L 150.0 237.0 L 150.0 238.0 L 150.0 239.0 L 149.0 240.0 L 149.0 241.0 L 149.0 242.0 L 148.0 243.0 L 148.0 244.0 L 148.0 244.0 L 148.0 245.0 L 147.0 246.0 L 147.0 247.0 L 147.0 247.0 L 146.0 248.0 L 146.0 248.0 L 146.0 248.0 L 146.0 249.0 L 145.0 249.0 L 144.0 249.0 L 143.0 249.0 L 142.0 248.0 L 140.0 248.0 L 138.0 247.0 L 136.0 246.0 L 134.0 246.0 L 131.0 245.0 L 128.0 244.0 L 125.0 243.0 L 124.0 242.0 " stroke="black" fill="none" stroke-width="5.0" stroke-linecap="round" stroke-linejoin="round" />
<path d="M 69.0 154.0 L 68.0 154.0 L 66.0 154.0 L 65.0 154.0 L 64.0 154.0 L 63.0 154.0 L 63.0 154.0 L 62.0 154.0 L 62.0 154.0 L 62.0 154.0 L 63.0 154.0 L 64.0 154.0 L 66.0 154.0 L 68.0 154.0 L 71.0 154.0 L 75.0 154.0 L 80.0 155.0 L 85.0 155.0 L 91.0 156.0 L 97.0 157.0 L 102.0 157.0 L 106.0 158.0 L 109.0 158.0 L 111.0 158.0 L 112.0 159.0 L 112.0 159.0 L 112.0 159.0 L 112.0 159.0 L 111.0 160.0 L 110.0 160.0 L 109.0 161.0 L 108.0 162.0 L 108.0 164.0 L 107.0 165.0 L 106.0 167.0 L 105.0 169.0 L 103.0 171.0 L 102.0 173.0 L 101.0 176.0 L 99.0 180.0 L 97.0 184.0 L 94.0 188.0 L 91.0 194.0 L 88.0 199.0 L 84.0 205.0 L 80.0 211.0 L 76.0 217.0 L 72.0 223.0 L 69.0 228.0 L 66.0 232.0 L 63.0 235.0 L 60.0 237.0 " stroke="black" fill="none" stroke-width="5.0" stroke-linecap="round" stroke-linejoin="round" />
<path d="M 224.0 133.0 L 224.0 133.0 L 224.0 132.0 L 224.0 132.0 L 224.0 132.0 L 225.0 132.0 L 225.0 132.0 L 225.0 132.0 L 225.0 132.0 L 225.0 134.0 L 223.0 136.0 L 222.0 138.0 L 220.0 141.0 L 217.0 144.0 L 214.0 148.0 L 210.0 152.0 L 205.0 157.0 L 200.0 162.0 L 195.0 166.0 L 191.0 171.0 L 187.0 174.0 L 185.0 176.0 L 182.0 178.0 L 179.0 180.0 L 177.0 180.0 " stroke="black" fill="none" stroke-width="5.0" stroke-linecap="round" stroke-linejoin="round" />
<path d="M 159.0 147.0 L 159.0 147.0 L 158.0 147.0 L 158.0 147.0 L 157.0 147.0 L 157.0 147.0 L 157.0 147.0 L 157.0 147.0 L 156.0 147.0 L 156.0 147.0 L 156.0 147.0 L 156.0 148.0 L 157.0 149.0 L 157.0 150.0 L 158.0 152.0 L 159.0 154.0 L 161.0 157.0 L 162.0 159.0 L 164.0 162.0 L 166.0 166.0 L 169.0 169.0 L 171.0 173.0 L 175.0 178.0 L 178.0 183.0 L 181.0 188.0 L 185.0 193.0 L 188.0 197.0 L 191.0 201.0 L 193.0 205.0 L 196.0 207.0 L 199.0 210.0 L 202.0 213.0 L 206.0 216.0 L 210.0 218.0 L 215.0 221.0 L 219.0 224.0 L 223.0 227.0 L 226.0 230.0 L 229.0 233.0 L 232.0 235.0 L 234.0 237.0 L 235.0 239.0 L 237.0 240.0 L 238.0 241.0 L 239.0 241.0 L 240.0 241.0 L 241.0 241.0 L 242.0 241.0 " stroke="black" fill="none" stroke-width="5.0" stroke-linecap="round" stroke-linejoin="round" />
</svg>