<svg xmlns="http://www.w3.org/2000/svg" width="300" height="300" viewBox="0 0 300 300">
<path d="M 76.0 80.0 L 75.0 80.0 L 74.0 79.0 L 72.0 78.0 L 72.0 78.0 L 72.0 78.0 L 72.0 78.0 L 72.0 78.0 L 73.0 78.0 L 75.0 78.0 L 77.0 79.0 L 80.0 81.0 L 83.0 84.0 L 87.0 86.0 L 91.0 89.0 L 96.0 93.0 L 100.0 97.0 " stroke="black" fill="none" stroke-width="5.0" stroke-linecap="round" stroke-linejoin="round" />
<path d="M 67.0 131.0 L 66.0 131.0 L 65.0 131.0 L 64.0 130.0 L 64.0 130.0 L 64.0 130.0 L 64.0 131.0 L 65.0 133.0 L 68.0 135.0 L 71.0 138.0 L 75.0 141.0 L 81.0 144.0 L 87.0 147.0 L 93.0 150.0 " stroke="black" fill="none" stroke-width="5.0" stroke-linecap="round" stroke-linejoin="round" />
<path d="M 75.0 246.0 L 75.0 246.0 L 73.0 246.0 L 72.0 246.0 L 71.0 246.0 L 71.0 245.0 L 71.0 244.0 L 71.0 241.0 L 73.0 236.0 L 78.0 228.0 L 86.0 216.0 L 96.0 202.0 L 101.0 195.0 " stroke="black" fill="none" stroke-width="5.0" stroke-linecap="round" stroke-linejoin="round" />
<path d="M 122.0 86.0 L 120.0 86.0 L 119.0 86.0 L 116.0 86.0 L 114.0 86.0 L 112.0 86.0 L 111.0 86.0 L 111.0 86.0 L 111.0 87.0 L 111.0 87.0 L 111.0 87.0 L 113.0 87.0 L 117.0 87.0 L 122.0 87.0 L 130.0 87.0 L 138.0 86.0 L 146.0 86.0 L 156.0 85.0 L 167.0 85.0 L 179.0 85.0 L 191.0 85.0 L 200.0 85.0 L 208.0 85.0 L 216.0 84.0 L 224.0 84.0 L 231.0 83.0 L 236.0 83.0 L 239.0 82.0 L 241.0 82.0 L 243.0 82.0 L 244.0 82.0 L 245.0 83.0 L 246.0 84.0 L 246.0 84.0 " stroke="black" fill="none" stroke-width="5.0" stroke-linecap="round" stroke-linejoin="round" />
<path d="M 132.0 144.0 L 132.0 144.0 L 131.0 142.0 L 130.0 141.0 L 130.0 140.0 L 129.0 140.0 L 129.0 140.0 L 129.0 140.0 L 129.0 141.0 L 130.0 143.0 L 131.0 145.0 L 132.0 149.0 L 133.0 151.0 L 135.0 157.0 L 136.0 162.0 L 137.0 168.0 L 137.0 173.0 L 137.0 178.0 L 137.0 183.0 L 137.0 186.0 L 136.0 187.0 L 136.0 187.0 L 135.0 186.0 L 135.0 183.0 L 135.0 180.0 " stroke="black" fill="none" stroke-width="5.0" stroke-linecap="round" stroke-linejoin="round" />
<path d="M 141.0 132.0 L 141.0 132.0 L 140.0 132.0 L 138.0 132.0 L 136.0 132.0 L 135.0 132.0 L 134.0 133.0 L 133.0 133.0 L 133.0 133.0 L 133.0 133.0 L 133.0 133.0 L 133.0 133.0 L 133.0 132.0 L 134.0 132.0 L 136.0 132.0 L 137.0 132.0 L 139.0 132.0 L 142.0 133.0 L 144.0 134.0 L 147.0 135.0 L 150.0 135.0 L 154.0 136.0 L 157.0 136.0 L 161.0 136.0 L 165.0 136.0 L 169.0 136.0 L 172.0 136.0 L 175.0 136.0 L 177.0 136.0 L 179.0 136.0 L 180.0 136.0 L 181.0 136.0 L 182.0 137.0 L 183.0 137.0 L 183.0 138.0 L 184.0 138.0 L 184.0 139.0 L 184.0 140.0 L 184.0 141.0 L 184.0 142.0 L 184.0 144.0 L 184.0 146.0 L 184.0 148.0 L 183.0 151.0 L 182.0 154.0 L 182.0 158.0 L 181.0 162.0 L 181.0 166.0 L 180.0 170.0 L 179.0 175.0 L 178.0 180.0 L 178.0 185.0 L 177.0 189.0 L 177.0 191.0 L 176.0 193.0 L 175.0 193.0 L 173.0 193.0 L 171.0 192.0 L 168.0 191.0 L 165.0 190.0 L 162.0 190.0 L 158.0 190.0 L 155.0 190.0 L 153.0 190.0 L 150.0 191.0 L 148.0 192.0 L 146.0 193.0 L 144.0 193.0 L 142.0 193.0 L 140.0 193.0 L 139.0 193.0 L 138.0 193.0 L 137.0 193.0 L 137.0 193.0 L 137.0 193.0 L 137.0 193.0 L 138.0 193.0 L 140.0 193.0 L 142.0 193.0 L 145.0 194.0 L 149.0 194.0 L 153.0 194.0 L 158.0 194.0 L 165.0 194.0 L 172.0 194.0 L 179.0 193.0 " stroke="black" fill="none" stroke-width="5.0" stroke-linecap="round" stroke-linejoin="round" />
<path d="M 223.0 99.0 L 223.0 99.0 L 223.0 99.0 L 223.0 99.0 L 223.0 98.0 L 223.0 98.0 L 223.0 98.0 L 223.0 99.0 L 223.0 100.0 L 223.0 103.0 L 224.0 105.0 L 224.0 109.0 L 224.0 114.0 L 225.0 119.0 L 225.0 125.0 L 225.0 132.0 L 225.0 140.0 L 224.0 149.0 L 224.0 156.0 L 223.0 163.0 L 223.0 170.0 L 223.0 176.0 L 223.0 182.0 L 222.0 188.0 L 222.0 192.0 L 222.0 197.0 L 222.0 201.0 L 222.0 204.0 L 222.0 207.0 L 221.0 210.0 L 221.0 213.0 L 221.0 216.0 L 221.0 219.0 L 220.0 221.0 L 220.0 224.0 L 220.0 227.0 L 220.0 229.0 L 219.0 231.0 L 219.0 233.0 L 219.0 234.0 L 219.0 236.0 L 219.0 237.0 L 219.0 239.0 L 219.0 240.0 L 218.0 241.0 L 218.0 241.0 L 218.0 242.0 L 217.0 243.0 L 217.0 243.0 L 217.0 244.0 L 216.0 245.0 L 216.0 245.0 L 216.0 245.0 L 216.0 246.0 L 216.0 246.0 L 215.0 246.0 L 215.0 247.0 L 214.0 247.0 L 213.0 247.0 L 212.0 247.0 L 211.0 247.0 L 209.0 247.0 L 207.0 247.0 L 206.0 247.0 L 204.0 247.0 L 201.0 247.0 L 199.0 247.0 L 196.0 247.0 L 193.0 247.0 L 190.0 246.0 L 187.0 246.0 L 182.0 246.0 L 178.0 245.0 L 174.0 245.0 " stroke="black" fill="none" stroke-width="5.0" stroke-linecap="round" stroke-linejoin="round" />
</svg>