<svg xmlns="http://www.w3.org/2000/svg" width="300" height="300" viewBox="0 0 300 300">
<path d="M 107.0 71.0 L 107.0 71.0 L 107.0 71.0 L 107.0 71.0 L 107.0 71.0 L 107.0 71.0 L 107.0 71.0 L 107.0 71.0 L 107.0 71.0 L 107.0 71.0 L 107.0 71.0 L 107.0 71.0 L 107.0 71.0 L 106.0 72.0 L 106.0 74.0 L 105.0 76.0 L 105.0 78.0 L 104.0 81.0 L 103.0 84.0 L 101.0 88.0 L 99.0 91.0 L 97.0 96.0 L 94.0 100.0 L 90.0 105.0 L 86.0 109.0 L 82.0 113.0 L 77.0 118.0 L 73.0 122.0 L 68.0 126.0 L 65.0 130.0 L 63.0 133.0 L 61.0 135.0 L 60.0 136.0 " stroke="black" fill="none" stroke-width="5.0" stroke-linecap="round" stroke-linejoin="round" />
<path d="M 109.0 87.0 L 109.0 87.0 L 109.0 87.0 L 109.0 87.0 L 109.0 87.0 L 110.0 88.0 L 110.0 88.0 L 110.0 88.0 L 110.0 88.0 L 110.0 88.0 L 110.0 88.0 L 110.0 88.0 L 110.0 88.0 L 110.0 88.0 L 110.0 88.0 L 110.0 88.0 L 110.0 89.0 L 111.0 89.0 L 111.0 89.0 L 111.0 89.0 L 112.0 89.0 L 113.0 89.0 L 114.0 89.0 L 115.0 89.0 L 116.0 89.0 L 118.0 89.0 L 119.0 89.0 L 121.0 89.0 L 123.0 89.0 L 125.0 89.0 L 127.0 89.0 L 129.0 89.0 L 131.0 89.0 L 132.0 89.0 L 134.0 89.0 L 136.0 89.0 L 137.0 89.0 L 139.0 89.0 L 140.0 89.0 L 141.0 89.0 L 143.0 89.0 L 144.0 89.0 L 144.0 89.0 L 145.0 89.0 L 146.0 89.0 L 147.0 89.0 L 148.0 89.0 L 149.0 89.0 L 149.0 88.0 L 150.0 88.0 L 151.0 88.0 L 152.0 88.0 L 153.0 88.0 L 153.0 88.0 L 154.0 88.0 L 155.0 88.0 L 156.0 88.0 L 157.0 88.0 L 158.0 88.0 L 158.0 88.0 L 159.0 88.0 L 160.0 88.0 L 161.0 88.0 L 162.0 88.0 L 163.0 88.0 L 164.0 88.0 L 165.0 88.0 L 166.0 88.0 L 167.0 88.0 L 168.0 88.0 L 169.0 87.0 L 170.0 87.0 L 171.0 87.0 L 172.0 87.0 L 173.0 87.0 L 174.0 87.0 L 175.0 87.0 L 177.0 87.0 L 177.0 87.0 L 178.0 87.0 L 179.0 87.0 L 180.0 87.0 L 181.0 87.0 L 182.0 87.0 L 183.0 87.0 L 184.0 87.0 L 185.0 87.0 L 185.0 87.0 L 186.0 87.0 L 187.0 87.0 L 187.0 87.0 L 188.0 87.0 L 189.0 87.0 L 189.0 87.0 L 190.0 86.0 L 190.0 86.0 L 191.0 86.0 L 191.0 86.0 L 192.0 86.0 L 192.0 86.0 L 193.0 86.0 L 193.0 86.0 L 194.0 86.0 L 194.0 86.0 L 195.0 86.0 L 195.0 86.0 L 196.0 86.0 L 196.0 85.0 L 197.0 85.0 L 198.0 85.0 L 198.0 85.0 L 199.0 85.0 L 200.0 85.0 L 200.0 85.0 L 201.0 85.0 L 202.0 85.0 L 202.0 85.0 L 203.0 85.0 L 204.0 85.0 L 204.0 85.0 L 205.0 85.0 L 206.0 85.0 L 206.0 85.0 L 207.0 86.0 L 208.0 86.0 L 209.0 86.0 L 210.0 86.0 L 211.0 87.0 L 212.0 87.0 L 212.0 87.0 L 214.0 87.0 L 215.0 87.0 L 216.0 87.0 L 217.0 88.0 L 218.0 88.0 L 220.0 88.0 L 221.0 88.0 L 223.0 88.0 L 224.0 88.0 L 225.0 88.0 L 227.0 88.0 L 228.0 88.0 L 230.0 88.0 L 231.0 88.0 L 232.0 88.0 L 233.0 88.0 L 234.0 88.0 " stroke="black" fill="none" stroke-width="5.0" stroke-linecap="round" stroke-linejoin="round" />
<path d="M 108.0 118.0 L 108.0 118.0 L 108.0 118.0 L 108.0 118.0 L 108.0 118.0 L 108.0 118.0 L 108.0 118.0 L 109.0 118.0 L 109.0 118.0 L 109.0 118.0 L 109.0 118.0 L 109.0 118.0 L 110.0 118.0 L 110.0 118.0 L 111.0 118.0 L 111.0 118.0 L 112.0 118.0 L 112.0 117.0 L 113.0 117.0 L 114.0 117.0 L 115.0 117.0 L 117.0 117.0 L 118.0 116.0 L 120.0 116.0 L 122.0 116.0 L 124.0 116.0 L 126.0 116.0 L 128.0 116.0 L 130.0 116.0 L 132.0 116.0 L 134.0 116.0 L 135.0 116.0 L 137.0 116.0 L 139.0 117.0 L 140.0 117.0 L 141.0 117.0 L 143.0 117.0 L 144.0 117.0 L 145.0 117.0 L 146.0 117.0 L 147.0 117.0 L 148.0 117.0 L 149.0 117.0 L 150.0 117.0 L 150.0 117.0 L 152.0 117.0 L 152.0 117.0 L 153.0 117.0 L 154.0 117.0 L 155.0 117.0 L 157.0 117.0 L 158.0 117.0 L 159.0 117.0 L 160.0 117.0 L 162.0 117.0 L 163.0 117.0 L 165.0 117.0 L 166.0 117.0 L 168.0 117.0 L 169.0 116.0 L 171.0 116.0 L 173.0 116.0 L 175.0 116.0 L 177.0 116.0 L 178.0 115.0 L 180.0 115.0 L 181.0 115.0 L 182.0 115.0 L 184.0 115.0 L 185.0 115.0 L 187.0 115.0 L 188.0 115.0 L 189.0 115.0 L 190.0 115.0 L 191.0 114.0 L 192.0 114.0 L 193.0 114.0 L 194.0 114.0 L 195.0 114.0 L 196.0 114.0 L 196.0 114.0 L 197.0 114.0 L 198.0 114.0 L 199.0 114.0 L 200.0 114.0 L 202.0 113.0 L 203.0 113.0 L 204.0 113.0 L 205.0 113.0 L 206.0 112.0 L 207.0 112.0 L 208.0 112.0 L 209.0 112.0 L 210.0 111.0 L 210.0 111.0 L 211.0 111.0 L 212.0 111.0 L 213.0 111.0 L 214.0 111.0 L 215.0 111.0 L 216.0 111.0 L 217.0 111.0 L 218.0 111.0 L 218.0 111.0 L 219.0 111.0 L 219.0 111.0 L 220.0 111.0 L 220.0 111.0 L 221.0 111.0 L 221.0 111.0 " stroke="black" fill="none" stroke-width="5.0" stroke-linecap="round" stroke-linejoin="round" />
<path d="M 81.0 143.0 L 81.0 143.0 L 81.0 144.0 L 81.0 144.0 L 80.0 144.0 L 80.0 145.0 L 79.0 145.0 L 79.0 145.0 L 79.0 145.0 L 79.0 145.0 L 79.0 145.0 L 79.0 145.0 L 79.0 144.0 L 80.0 144.0 L 81.0 143.0 L 82.0 143.0 L 82.0 142.0 L 83.0 142.0 L 84.0 142.0 L 85.0 142.0 L 86.0 142.0 L 87.0 142.0 L 88.0 141.0 L 89.0 141.0 L 90.0 141.0 L 92.0 141.0 L 93.0 141.0 L 94.0 141.0 L 96.0 141.0 L 97.0 141.0 L 98.0 141.0 L 100.0 141.0 L 102.0 141.0 L 103.0 141.0 L 105.0 140.0 L 106.0 140.0 L 107.0 140.0 L 108.0 140.0 L 110.0 140.0 L 110.0 140.0 L 112.0 140.0 L 112.0 140.0 L 113.0 140.0 L 114.0 140.0 L 115.0 140.0 L 116.0 139.0 L 118.0 139.0 L 119.0 139.0 L 120.0 139.0 L 121.0 139.0 L 122.0 139.0 L 124.0 139.0 L 125.0 139.0 L 126.0 139.0 L 127.0 139.0 L 129.0 139.0 L 130.0 140.0 L 131.0 140.0 L 133.0 140.0 L 134.0 140.0 L 136.0 140.0 L 137.0 140.0 L 138.0 140.0 L 139.0 140.0 L 141.0 140.0 L 142.0 140.0 L 143.0 140.0 L 144.0 140.0 L 145.0 140.0 L 146.0 140.0 L 147.0 140.0 L 148.0 140.0 L 149.0 140.0 L 150.0 139.0 L 150.0 139.0 L 151.0 139.0 L 152.0 139.0 L 153.0 139.0 L 154.0 139.0 L 155.0 139.0 L 156.0 139.0 L 157.0 138.0 L 158.0 138.0 L 158.0 138.0 L 159.0 138.0 L 160.0 137.0 L 161.0 137.0 L 162.0 137.0 L 164.0 137.0 L 165.0 137.0 L 166.0 137.0 L 167.0 137.0 L 168.0 137.0 L 169.0 137.0 L 171.0 136.0 L 172.0 136.0 L 173.0 136.0 L 175.0 136.0 L 176.0 136.0 L 177.0 136.0 L 178.0 136.0 L 179.0 136.0 L 180.0 136.0 L 181.0 136.0 L 182.0 136.0 L 184.0 136.0 L 185.0 136.0 L 186.0 136.0 L 187.0 136.0 L 188.0 136.0 L 189.0 136.0 L 189.0 136.0 L 190.0 136.0 L 191.0 136.0 L 192.0 136.0 L 192.0 136.0 L 193.0 136.0 L 193.0 136.0 L 194.0 136.0 L 194.0 136.0 L 194.0 136.0 L 195.0 136.0 L 195.0 136.0 L 195.0 136.0 L 196.0 136.0 L 196.0 136.0 L 196.0 136.0 L 197.0 136.0 L 197.0 136.0 L 197.0 136.0 L 198.0 136.0 L 198.0 136.0 L 199.0 136.0 L 199.0 136.0 L 200.0 136.0 L 200.0 136.0 L 201.0 136.0 L 201.0 136.0 L 202.0 136.0 L 202.0 136.0 L 203.0 136.0 L 203.0 136.0 L 204.0 136.0 L 204.0 136.0 L 205.0 136.0 L 205.0 136.0 L 206.0 136.0 L 206.0 136.0 L 207.0 136.0 L 207.0 136.0 L 207.0 136.0 L 208.0 136.0 L 208.0 136.0 L 208.0 136.0 L 208.0 136.0 L 208.0 137.0 L 208.0 137.0 L 208.0 138.0 L 208.0 139.0 L 208.0 140.0 L 208.0 141.0 L 208.0 141.0 L 207.0 143.0 L 207.0 144.0 L 207.0 145.0 L 207.0 146.0 L 206.0 147.0 L 206.0 148.0 L 206.0 149.0 L 206.0 150.0 L 206.0 151.0 L 206.0 152.0 L 206.0 153.0 L 206.0 154.0 L 206.0 155.0 L 206.0 156.0 L 206.0 157.0 L 206.0 158.0 L 206.0 159.0 L 206.0 160.0 L 206.0 161.0 L 206.0 162.0 L 206.0 163.0 L 206.0 164.0 L 206.0 166.0 L 206.0 167.0 L 206.0 168.0 L 206.0 170.0 L 206.0 171.0 L 206.0 172.0 L 206.0 173.0 L 206.0 175.0 L 206.0 176.0 L 206.0 177.0 L 206.0 178.0 L 205.0 180.0 L 205.0 181.0 L 205.0 183.0 L 205.0 184.0 L 205.0 185.0 L 205.0 187.0 L 205.0 188.0 L 205.0 190.0 L 205.0 191.0 L 205.0 193.0 L 205.0 194.0 L 205.0 195.0 L 205.0 197.0 L 205.0 198.0 L 205.0 199.0 L 205.0 200.0 L 205.0 202.0 L 205.0 203.0 L 205.0 204.0 L 205.0 205.0 L 205.0 206.0 L 205.0 207.0 L 205.0 208.0 L 205.0 209.0 L 205.0 210.0 L 205.0 211.0 L 206.0 212.0 L 206.0 213.0 L 206.0 214.0 L 206.0 214.0 L 206.0 215.0 L 207.0 216.0 L 207.0 217.0 L 207.0 218.0 L 207.0 219.0 L 208.0 220.0 L 208.0 221.0 L 208.0 223.0 L 209.0 224.0 L 209.0 225.0 L 209.0 226.0 L 210.0 227.0 L 210.0 229.0 L 210.0 230.0 L 211.0 231.0 L 211.0 232.0 L 212.0 234.0 L 213.0 235.0 L 213.0 236.0 L 214.0 237.0 L 214.0 238.0 L 215.0 239.0 L 216.0 240.0 L 216.0 241.0 L 216.0 241.0 L 217.0 242.0 L 218.0 243.0 L 218.0 243.0 L 219.0 244.0 L 219.0 245.0 L 220.0 246.0 L 221.0 246.0 L 221.0 247.0 L 222.0 247.0 L 222.0 248.0 L 222.0 248.0 L 223.0 248.0 L 223.0 248.0 L 223.0 248.0 L 223.0 249.0 L 224.0 249.0 L 224.0 249.0 L 224.0 249.0 L 224.0 249.0 L 225.0 249.0 L 225.0 249.0 L 225.0 249.0 L 225.0 249.0 L 225.0 249.0 L 226.0 249.0 L 226.0 249.0 L 226.0 249.0 L 226.0 249.0 L 227.0 250.0 L 227.0 250.0 L 227.0 250.0 L 227.0 250.0 L 228.0 250.0 L 228.0 250.0 L 228.0 250.0 L 228.0 250.0 L 229.0 250.0 L 229.0 250.0 L 229.0 250.0 L 229.0 250.0 L 229.0 250.0 L 229.0 250.0 L 229.0 250.0 L 229.0 250.0 L 229.0 250.0 L 230.0 250.0 L 230.0 250.0 L 230.0 250.0 L 230.0 250.0 L 230.0 250.0 L 230.0 250.0 L 230.0 250.0 L 230.0 250.0 L 230.0 250.0 L 230.0 250.0 L 230.0 250.0 L 230.0 250.0 L 230.0 250.0 L 230.0 249.0 L 230.0 249.0 L 231.0 249.0 L 231.0 249.0 L 231.0 248.0 L 231.0 248.0 L 231.0 248.0 L 232.0 247.0 L 232.0 246.0 L 232.0 246.0 L 233.0 245.0 L 233.0 243.0 L 234.0 242.0 L 235.0 240.0 L 235.0 237.0 L 236.0 233.0 L 237.0 229.0 L 237.0 224.0 L 238.0 220.0 L 238.0 216.0 L 239.0 214.0 L 239.0 212.0 L 239.0 211.0 " stroke="black" fill="none" stroke-width="5.0" stroke-linecap="round" stroke-linejoin="round" />
<path d="M 86.0 161.0 L 86.0 161.0 L 86.0 161.0 L 86.0 160.0 L 86.0 160.0 L 85.0 159.0 L 85.0 159.0 L 85.0 158.0 L 85.0 158.0 L 84.0 158.0 L 84.0 158.0 L 84.0 158.0 L 84.0 159.0 L 85.0 160.0 L 86.0 161.0 L 88.0 163.0 L 90.0 165.0 L 92.0 168.0 L 95.0 170.0 L 97.0 173.0 L 99.0 175.0 L 101.0 178.0 L 103.0 180.0 " stroke="black" fill="none" stroke-width="5.0" stroke-linecap="round" stroke-linejoin="round" />
<path d="M 168.0 160.0 L 168.0 160.0 L 168.0 160.0 L 169.0 159.0 L 169.0 159.0 L 169.0 159.0 L 169.0 159.0 L 169.0 159.0 L 169.0 159.0 L 169.0 159.0 L 168.0 160.0 L 167.0 161.0 L 165.0 162.0 L 164.0 164.0 L 162.0 166.0 L 160.0 168.0 L 158.0 171.0 L 155.0 175.0 L 153.0 179.0 L 151.0 183.0 " stroke="black" fill="none" stroke-width="5.0" stroke-linecap="round" stroke-linejoin="round" />
<path d="M 68.0 196.0 L 68.0 196.0 L 68.0 196.0 L 69.0 195.0 L 69.0 195.0 L 69.0 195.0 L 69.0 195.0 L 69.0 195.0 L 69.0 195.0 L 69.0 195.0 L 70.0 195.0 L 70.0 195.0 L 70.0 195.0 L 70.0 195.0 L 70.0 195.0 L 71.0 195.0 L 71.0 195.0 L 72.0 195.0 L 72.0 195.0 L 73.0 195.0 L 73.0 195.0 L 74.0 195.0 L 74.0 195.0 L 75.0 195.0 L 76.0 195.0 L 77.0 195.0 L 78.0 195.0 L 79.0 195.0 L 81.0 195.0 L 82.0 195.0 L 83.0 195.0 L 85.0 195.0 L 86.0 195.0 L 88.0 195.0 L 89.0 195.0 L 90.0 195.0 L 92.0 195.0 L 93.0 195.0 L 94.0 195.0 L 96.0 195.0 L 97.0 195.0 L 98.0 195.0 L 100.0 195.0 L 101.0 195.0 L 102.0 195.0 L 103.0 195.0 L 104.0 195.0 L 105.0 195.0 L 106.0 195.0 L 107.0 195.0 L 108.0 195.0 L 109.0 195.0 L 110.0 195.0 L 111.0 195.0 L 112.0 195.0 L 113.0 195.0 L 114.0 195.0 L 116.0 195.0 L 117.0 195.0 L 119.0 195.0 L 120.0 195.0 L 121.0 195.0 L 123.0 195.0 L 124.0 195.0 L 126.0 195.0 L 127.0 195.0 L 128.0 195.0 L 130.0 195.0 L 132.0 195.0 L 133.0 195.0 L 135.0 195.0 L 137.0 195.0 L 138.0 194.0 L 140.0 194.0 L 141.0 194.0 L 142.0 194.0 L 144.0 194.0 L 144.0 194.0 L 145.0 194.0 L 146.0 194.0 L 147.0 194.0 L 148.0 194.0 L 149.0 194.0 L 150.0 194.0 L 150.0 194.0 L 151.0 194.0 L 152.0 194.0 L 152.0 194.0 L 153.0 194.0 L 154.0 194.0 L 154.0 194.0 L 155.0 194.0 L 156.0 194.0 L 157.0 194.0 L 158.0 194.0 L 159.0 194.0 L 160.0 194.0 L 161.0 194.0 L 162.0 194.0 L 164.0 194.0 L 165.0 194.0 L 167.0 194.0 L 168.0 194.0 L 170.0 194.0 L 172.0 194.0 L 174.0 194.0 L 176.0 194.0 L 177.0 194.0 L 179.0 194.0 L 180.0 194.0 L 182.0 194.0 L 184.0 194.0 L 185.0 194.0 L 187.0 194.0 L 188.0 194.0 L 190.0 194.0 L 191.0 194.0 L 192.0 194.0 L 193.0 194.0 L 193.0 194.0 " stroke="black" fill="none" stroke-width="5.0" stroke-linecap="round" stroke-linejoin="round" />
<path d="M 125.0 157.0 L 125.0 157.0 L 125.0 156.0 L 125.0 156.0 L 125.0 155.0 L 126.0 155.0 L 126.0 154.0 L 126.0 154.0 L 126.0 154.0 L 127.0 154.0 L 127.0 155.0 L 127.0 156.0 L 127.0 158.0 L 127.0 160.0 L 127.0 162.0 L 127.0 165.0 L 126.0 168.0 L 126.0 172.0 L 126.0 177.0 L 126.0 182.0 L 126.0 188.0 L 126.0 194.0 L 126.0 200.0 L 126.0 204.0 L 126.0 209.0 L 125.0 213.0 L 125.0 216.0 L 125.0 220.0 L 125.0 224.0 L 125.0 228.0 L 125.0 231.0 L 125.0 235.0 L 125.0 237.0 L 125.0 240.0 L 126.0 243.0 L 126.0 245.0 L 126.0 247.0 L 126.0 249.0 L 126.0 251.0 L 126.0 252.0 L 126.0 254.0 L 126.0 255.0 L 126.0 256.0 L 126.0 256.0 L 126.0 257.0 L 126.0 257.0 L 126.0 258.0 L 126.0 258.0 L 126.0 258.0 L 126.0 258.0 L 126.0 258.0 L 126.0 258.0 L 126.0 258.0 L 126.0 258.0 " stroke="black" fill="none" stroke-width="5.0" stroke-linecap="round" stroke-linejoin="round" />
<path d="M 107.0 209.0 L 107.0 209.0 L 107.0 209.0 L 107.0 210.0 L 107.0 211.0 L 107.0 211.0 L 107.0 212.0 L 107.0 213.0 L 106.0 214.0 L 105.0 215.0 L 105.0 216.0 L 104.0 216.0 L 103.0 218.0 L 103.0 219.0 L 101.0 220.0 L 100.0 222.0 L 98.0 225.0 L 95.0 228.0 L 91.0 232.0 L 86.0 236.0 L 80.0 239.0 L 75.0 243.0 L 71.0 246.0 L 67.0 248.0 " stroke="black" fill="none" stroke-width="5.0" stroke-linecap="round" stroke-linejoin="round" />
<path d="M 152.0 215.0 L 152.0 215.0 L 152.0 214.0 L 152.0 213.0 L 152.0 213.0 L 152.0 212.0 L 152.0 212.0 L 152.0 211.0 L 152.0 211.0 L 152.0 211.0 L 152.0 211.0 L 152.0 211.0 L 152.0 212.0 L 152.0 214.0 L 154.0 216.0 L 155.0 219.0 L 158.0 223.0 L 161.0 228.0 L 166.0 233.0 L 171.0 238.0 L 177.0 242.0 L 182.0 246.0 L 187.0 247.0 L 190.0 248.0 L 192.0 249.0 L 193.0 249.0 L 193.0 249.0 " stroke="black" fill="none" stroke-width="5.0" stroke-linecap="round" stroke-linejoin="round" />
</svg>