<svg xmlns="http://www.w3.org/2000/svg" width="300" height="300" viewBox="0 0 300 300">
<path d="M 79.0 76.0 L 79.0 76.0 L 79.0 76.0 L 78.0 75.0 L 78.0 75.0 L 78.0 75.0 L 78.0 75.0 L 78.0 75.0 L 79.0 76.0 L 82.0 78.0 L 85.0 80.0 L 88.0 83.0 L 93.0 85.0 L 97.0 87.0 L 102.0 89.0 L 107.0 91.0 L 108.0 92.0 " stroke="black" fill="none" stroke-width="5.0" stroke-linecap="round" stroke-linejoin="round" />
<path d="M 68.0 137.0 L 67.0 137.0 L 66.0 136.0 L 65.0 136.0 L 64.0 136.0 L 64.0 136.0 L 64.0 136.0 L 64.0 136.0 L 65.0 138.0 L 69.0 141.0 L 72.0 143.0 L 75.0 145.0 L 79.0 148.0 L 84.0 150.0 L 89.0 152.0 L 94.0 154.0 " stroke="black" fill="none" stroke-width="5.0" stroke-linecap="round" stroke-linejoin="round" />
<path d="M 72.0 244.0 L 72.0 244.0 L 71.0 244.0 L 71.0 244.0 L 71.0 243.0 L 71.0 241.0 L 73.0 238.0 L 76.0 234.0 L 81.0 227.0 L 87.0 219.0 L 96.0 209.0 L 104.0 198.0 " stroke="black" fill="none" stroke-width="5.0" stroke-linecap="round" stroke-linejoin="round" />
<path d="M 117.0 155.0 L 117.0 155.0 L 116.0 155.0 L 115.0 155.0 L 115.0 155.0 L 114.0 155.0 L 114.0 155.0 L 114.0 155.0 L 114.0 155.0 L 113.0 155.0 L 113.0 155.0 L 113.0 155.0 L 114.0 154.0 L 115.0 154.0 L 116.0 154.0 L 118.0 153.0 L 121.0 152.0 L 123.0 151.0 L 126.0 150.0 L 129.0 149.0 L 132.0 148.0 L 135.0 147.0 L 138.0 146.0 L 141.0 145.0 L 144.0 144.0 L 146.0 143.0 L 148.0 142.0 L 151.0 141.0 L 152.0 140.0 L 154.0 139.0 L 156.0 137.0 L 157.0 136.0 L 159.0 135.0 L 161.0 134.0 L 164.0 133.0 L 166.0 133.0 L 168.0 132.0 L 171.0 131.0 L 173.0 130.0 L 175.0 130.0 L 178.0 129.0 L 180.0 128.0 L 182.0 128.0 L 184.0 127.0 L 186.0 126.0 L 187.0 125.0 L 189.0 125.0 L 191.0 124.0 L 192.0 123.0 L 193.0 123.0 L 194.0 122.0 L 194.0 122.0 L 195.0 121.0 L 196.0 121.0 L 197.0 120.0 L 198.0 120.0 L 198.0 119.0 L 199.0 119.0 L 200.0 118.0 L 201.0 118.0 L 203.0 118.0 L 204.0 117.0 L 205.0 117.0 L 206.0 117.0 L 207.0 116.0 L 208.0 116.0 L 210.0 116.0 L 211.0 115.0 L 212.0 115.0 L 213.0 115.0 L 215.0 114.0 L 216.0 114.0 L 217.0 114.0 L 218.0 114.0 L 220.0 114.0 L 221.0 114.0 L 222.0 113.0 L 223.0 113.0 L 224.0 113.0 L 225.0 113.0 L 226.0 112.0 L 226.0 112.0 L 227.0 112.0 L 227.0 112.0 L 228.0 112.0 L 228.0 112.0 L 229.0 112.0 L 229.0 112.0 L 229.0 112.0 L 230.0 111.0 L 230.0 111.0 L 230.0 111.0 L 231.0 111.0 L 231.0 111.0 L 231.0 111.0 L 232.0 111.0 L 232.0 111.0 L 232.0 111.0 L 232.0 111.0 L 233.0 111.0 L 233.0 111.0 L 233.0 111.0 L 233.0 111.0 L 233.0 111.0 L 233.0 112.0 L 233.0 112.0 L 233.0 112.0 L 234.0 112.0 L 234.0 113.0 L 234.0 113.0 L 234.0 114.0 L 234.0 115.0 L 234.0 116.0 L 234.0 117.0 L 233.0 118.0 L 233.0 120.0 L 232.0 123.0 L 232.0 126.0 L 231.0 130.0 L 230.0 136.0 L 230.0 142.0 L 229.0 148.0 L 229.0 155.0 L 228.0 160.0 L 227.0 165.0 L 227.0 170.0 L 226.0 173.0 L 225.0 175.0 L 225.0 178.0 L 224.0 179.0 L 223.0 179.0 L 223.0 180.0 L 222.0 180.0 L 222.0 180.0 " stroke="black" fill="none" stroke-width="5.0" stroke-linecap="round" stroke-linejoin="round" />
<path d="M 182.0 84.0 L 182.0 84.0 L 182.0 84.0 L 182.0 84.0 L 182.0 85.0 L 182.0 85.0 L 182.0 86.0 L 182.0 88.0 L 182.0 90.0 L 182.0 93.0 L 183.0 96.0 L 183.0 101.0 L 183.0 106.0 L 183.0 111.0 L 183.0 116.0 L 183.0 122.0 L 183.0 127.0 L 183.0 133.0 L 182.0 139.0 L 182.0 146.0 L 181.0 152.0 L 181.0 158.0 L 181.0 164.0 L 181.0 169.0 L 180.0 175.0 L 180.0 181.0 L 180.0 187.0 L 180.0 191.0 L 180.0 195.0 L 180.0 197.0 L 180.0 197.0 L 180.0 197.0 L 180.0 196.0 " stroke="black" fill="none" stroke-width="5.0" stroke-linecap="round" stroke-linejoin="round" />
<path d="M 139.0 100.0 L 139.0 100.0 L 139.0 100.0 L 139.0 100.0 L 139.0 100.0 L 139.0 100.0 L 139.0 100.0 L 138.0 100.0 L 138.0 101.0 L 138.0 103.0 L 138.0 105.0 L 138.0 109.0 L 138.0 113.0 L 138.0 117.0 L 138.0 121.0 L 138.0 126.0 L 138.0 131.0 L 138.0 135.0 L 138.0 140.0 L 138.0 144.0 L 138.0 148.0 L 139.0 152.0 L 139.0 156.0 L 140.0 159.0 L 140.0 162.0 L 140.0 166.0 L 141.0 169.0 L 141.0 172.0 L 141.0 176.0 L 141.0 178.0 L 141.0 182.0 L 141.0 185.0 L 141.0 187.0 L 141.0 190.0 L 141.0 192.0 L 141.0 194.0 L 141.0 196.0 L 141.0 198.0 L 141.0 199.0 L 141.0 201.0 L 141.0 202.0 L 141.0 204.0 L 140.0 205.0 L 140.0 206.0 L 140.0 208.0 L 140.0 209.0 L 140.0 210.0 L 140.0 212.0 L 140.0 213.0 L 140.0 214.0 L 140.0 215.0 L 140.0 217.0 L 140.0 218.0 L 140.0 219.0 L 140.0 220.0 L 140.0 221.0 L 140.0 222.0 L 141.0 223.0 L 141.0 224.0 L 141.0 226.0 L 142.0 227.0 L 142.0 228.0 L 142.0 229.0 L 143.0 230.0 L 143.0 231.0 L 143.0 232.0 L 143.0 233.0 L 144.0 233.0 L 144.0 234.0 L 144.0 235.0 L 144.0 235.0 L 145.0 236.0 L 145.0 237.0 L 145.0 237.0 L 146.0 238.0 L 146.0 238.0 L 147.0 238.0 L 147.0 239.0 L 148.0 239.0 L 148.0 240.0 L 148.0 240.0 L 149.0 240.0 L 149.0 241.0 L 150.0 241.0 L 150.0 241.0 L 151.0 241.0 L 151.0 241.0 L 152.0 241.0 L 153.0 241.0 L 153.0 241.0 L 154.0 241.0 L 155.0 242.0 L 156.0 242.0 L 157.0 242.0 L 158.0 242.0 L 160.0 242.0 L 161.0 243.0 L 163.0 243.0 L 166.0 243.0 L 169.0 243.0 L 171.0 243.0 L 175.0 244.0 L 177.0 244.0 L 179.0 244.0 L 182.0 244.0 L 183.0 244.0 L 185.0 245.0 L 187.0 245.0 L 188.0 245.0 L 189.0 245.0 L 191.0 245.0 L 192.0 245.0 L 194.0 245.0 L 195.0 245.0 L 196.0 245.0 L 197.0 246.0 L 199.0 246.0 L 200.0 246.0 L 202.0 246.0 L 204.0 247.0 L 205.0 247.0 L 207.0 247.0 L 210.0 247.0 L 212.0 247.0 L 214.0 247.0 L 216.0 247.0 L 219.0 247.0 L 221.0 247.0 L 222.0 247.0 L 224.0 247.0 L 226.0 248.0 L 227.0 248.0 L 229.0 248.0 L 230.0 248.0 L 231.0 248.0 L 232.0 249.0 L 233.0 249.0 L 234.0 249.0 L 235.0 249.0 L 236.0 249.0 L 237.0 249.0 L 237.0 249.0 L 238.0 249.0 L 238.0 249.0 L 239.0 249.0 L 239.0 249.0 L 240.0 248.0 L 240.0 247.0 L 241.0 245.0 L 241.0 244.0 L 242.0 241.0 L 243.0 239.0 L 243.0 235.0 L 244.0 231.0 L 246.0 226.0 L 247.0 221.0 L 248.0 214.0 L 249.0 209.0 L 250.0 204.0 L 250.0 202.0 " stroke="black" fill="none" stroke-width="5.0" stroke-linecap="round" stroke-linejoin="round" />
</svg>