<svg xmlns="http://www.w3.org/2000/svg" width="300" height="300" viewBox="0 0 300 300">
<path d="M 76.0 74.0 L 75.0 74.0 L 74.0 74.0 L 74.0 73.0 L 74.0 73.0 L 74.0 73.0 L 74.0 73.0 L 75.0 74.0 L 77.0 76.0 L 81.0 79.0 L 85.0 82.0 L 90.0 84.0 L 96.0 87.0 L 101.0 90.0 L 106.0 92.0 L 108.0 94.0 " stroke="black" fill="none" stroke-width="5.0" stroke-linecap="round" stroke-linejoin="round" />
<path d="M 66.0 135.0 L 66.0 135.0 L 65.0 135.0 L 64.0 135.0 L 64.0 135.0 L 64.0 135.0 L 64.0 135.0 L 64.0 136.0 L 66.0 137.0 L 70.0 139.0 L 74.0 141.0 L 79.0 143.0 L 85.0 145.0 L 91.0 148.0 L 98.0 150.0 L 103.0 152.0 L 105.0 153.0 " stroke="black" fill="none" stroke-width="5.0" stroke-linecap="round" stroke-linejoin="round" />
<path d="M 68.0 247.0 L 68.0 247.0 L 68.0 247.0 L 68.0 247.0 L 67.0 247.0 L 67.0 246.0 L 67.0 245.0 L 68.0 243.0 L 70.0 239.0 L 75.0 232.0 L 83.0 222.0 L 92.0 210.0 L 101.0 197.0 L 107.0 186.0 L 112.0 176.0 L 115.0 168.0 L 119.0 161.0 " stroke="black" fill="none" stroke-width="5.0" stroke-linecap="round" stroke-linejoin="round" />
<path d="M 125.0 89.0 L 124.0 89.0 L 123.0 89.0 L 122.0 89.0 L 122.0 90.0 L 121.0 91.0 L 121.0 92.0 L 121.0 95.0 L 121.0 99.0 L 122.0 103.0 L 123.0 109.0 L 123.0 114.0 L 123.0 119.0 L 123.0 121.0 " stroke="black" fill="none" stroke-width="5.0" stroke-linecap="round" stroke-linejoin="round" />
<path d="M 126.0 85.0 L 126.0 85.0 L 126.0 85.0 L 125.0 85.0 L 125.0 85.0 L 124.0 85.0 L 124.0 85.0 L 124.0 85.0 L 124.0 85.0 L 124.0 86.0 L 124.0 86.0 L 124.0 86.0 L 124.0 86.0 L 124.0 86.0 L 124.0 86.0 L 124.0 86.0 L 125.0 86.0 L 126.0 86.0 L 127.0 86.0 L 128.0 86.0 L 130.0 86.0 L 131.0 86.0 L 133.0 86.0 L 135.0 86.0 L 137.0 85.0 L 139.0 85.0 L 141.0 84.0 L 143.0 84.0 L 144.0 84.0 L 146.0 83.0 L 147.0 83.0 L 148.0 83.0 L 150.0 83.0 L 150.0 83.0 L 151.0 83.0 L 152.0 83.0 L 152.0 83.0 L 152.0 83.0 L 153.0 83.0 L 153.0 83.0 L 153.0 83.0 L 154.0 83.0 L 155.0 83.0 L 155.0 83.0 L 156.0 83.0 L 157.0 83.0 L 158.0 83.0 L 158.0 84.0 L 159.0 84.0 L 160.0 84.0 L 161.0 84.0 L 162.0 84.0 L 164.0 84.0 L 165.0 84.0 L 166.0 84.0 L 168.0 84.0 L 169.0 84.0 L 171.0 84.0 L 172.0 84.0 L 173.0 84.0 L 175.0 84.0 L 176.0 84.0 L 177.0 84.0 L 178.0 84.0 L 179.0 84.0 L 181.0 84.0 L 182.0 84.0 L 183.0 83.0 L 184.0 83.0 L 185.0 83.0 L 186.0 83.0 L 187.0 83.0 L 188.0 83.0 L 189.0 83.0 L 189.0 83.0 L 190.0 83.0 L 191.0 83.0 L 192.0 83.0 L 192.0 83.0 L 193.0 83.0 L 193.0 83.0 L 194.0 83.0 L 195.0 83.0 L 195.0 83.0 L 196.0 83.0 L 196.0 83.0 L 196.0 83.0 L 197.0 83.0 L 197.0 83.0 L 198.0 83.0 L 198.0 83.0 L 199.0 83.0 L 199.0 83.0 L 200.0 83.0 L 201.0 83.0 L 201.0 83.0 L 202.0 83.0 L 202.0 83.0 L 203.0 84.0 L 204.0 84.0 L 204.0 84.0 L 205.0 84.0 L 206.0 84.0 L 206.0 84.0 L 207.0 84.0 L 208.0 84.0 L 209.0 84.0 L 209.0 84.0 L 210.0 84.0 L 211.0 84.0 L 212.0 84.0 L 212.0 84.0 L 213.0 84.0 L 214.0 84.0 L 215.0 84.0 L 215.0 84.0 L 216.0 84.0 L 217.0 84.0 L 218.0 84.0 L 218.0 84.0 L 219.0 84.0 L 219.0 84.0 L 220.0 84.0 L 221.0 84.0 L 221.0 84.0 L 222.0 84.0 L 223.0 84.0 L 223.0 84.0 L 224.0 84.0 L 224.0 84.0 L 225.0 84.0 L 225.0 84.0 L 226.0 84.0 L 227.0 84.0 L 227.0 85.0 L 228.0 85.0 L 228.0 85.0 L 229.0 85.0 L 229.0 85.0 L 230.0 85.0 L 230.0 85.0 L 231.0 85.0 L 231.0 85.0 L 232.0 85.0 L 232.0 86.0 L 233.0 86.0 L 233.0 86.0 L 233.0 86.0 L 234.0 86.0 L 234.0 86.0 L 234.0 86.0 L 234.0 86.0 L 234.0 87.0 L 235.0 87.0 L 235.0 87.0 L 235.0 87.0 L 235.0 87.0 L 235.0 87.0 L 235.0 87.0 L 235.0 87.0 L 235.0 88.0 L 235.0 88.0 L 235.0 89.0 L 235.0 89.0 L 235.0 90.0 L 234.0 92.0 L 233.0 95.0 L 232.0 98.0 L 231.0 101.0 L 229.0 105.0 L 229.0 109.0 " stroke="black" fill="none" stroke-width="5.0" stroke-linecap="round" stroke-linejoin="round" />
<path d="M 151.0 131.0 L 151.0 131.0 L 151.0 130.0 L 151.0 130.0 L 151.0 129.0 L 152.0 129.0 L 152.0 128.0 L 152.0 128.0 L 152.0 128.0 L 152.0 128.0 L 152.0 128.0 L 152.0 128.0 L 152.0 129.0 L 152.0 129.0 L 153.0 130.0 L 153.0 131.0 L 153.0 133.0 L 153.0 134.0 L 153.0 136.0 L 153.0 137.0 L 153.0 139.0 L 154.0 141.0 L 154.0 143.0 L 154.0 145.0 L 155.0 147.0 L 156.0 150.0 L 156.0 152.0 L 157.0 154.0 L 157.0 157.0 L 158.0 159.0 L 158.0 161.0 L 158.0 163.0 L 158.0 165.0 L 158.0 167.0 L 158.0 169.0 L 158.0 170.0 L 157.0 172.0 L 157.0 174.0 L 157.0 176.0 L 156.0 178.0 L 156.0 180.0 L 156.0 182.0 L 155.0 185.0 L 155.0 187.0 L 155.0 189.0 L 154.0 192.0 L 154.0 194.0 L 153.0 196.0 L 153.0 199.0 L 152.0 201.0 L 151.0 203.0 L 151.0 206.0 L 150.0 208.0 L 149.0 209.0 L 149.0 211.0 L 148.0 213.0 L 148.0 214.0 L 148.0 215.0 L 148.0 217.0 L 147.0 218.0 L 147.0 220.0 L 146.0 221.0 L 146.0 223.0 L 145.0 225.0 L 144.0 226.0 L 143.0 228.0 L 142.0 230.0 L 141.0 231.0 L 140.0 233.0 L 139.0 235.0 L 137.0 236.0 L 136.0 238.0 L 134.0 240.0 L 132.0 242.0 L 130.0 243.0 L 127.0 245.0 L 125.0 247.0 L 124.0 247.0 L 122.0 248.0 L 122.0 248.0 L 122.0 248.0 L 122.0 247.0 " stroke="black" fill="none" stroke-width="5.0" stroke-linecap="round" stroke-linejoin="round" />
<path d="M 202.0 127.0 L 202.0 127.0 L 202.0 127.0 L 202.0 128.0 L 202.0 128.0 L 201.0 129.0 L 201.0 130.0 L 201.0 130.0 L 201.0 131.0 L 201.0 132.0 L 201.0 134.0 L 201.0 136.0 L 200.0 137.0 L 200.0 140.0 L 200.0 143.0 L 200.0 146.0 L 200.0 150.0 L 199.0 154.0 L 199.0 157.0 L 199.0 161.0 L 198.0 164.0 L 198.0 167.0 L 198.0 169.0 L 198.0 171.0 L 198.0 172.0 L 198.0 174.0 L 198.0 176.0 L 198.0 177.0 L 198.0 179.0 L 197.0 181.0 L 197.0 184.0 L 197.0 186.0 L 197.0 188.0 L 197.0 190.0 L 197.0 192.0 L 197.0 194.0 L 197.0 195.0 L 197.0 197.0 L 197.0 198.0 L 197.0 200.0 L 197.0 201.0 L 197.0 202.0 L 197.0 204.0 L 197.0 205.0 L 197.0 206.0 L 197.0 207.0 L 197.0 208.0 L 197.0 209.0 L 197.0 210.0 L 197.0 212.0 L 197.0 213.0 L 196.0 215.0 L 196.0 216.0 L 196.0 218.0 L 196.0 219.0 L 196.0 220.0 L 196.0 221.0 L 196.0 222.0 L 196.0 223.0 L 196.0 225.0 L 196.0 226.0 L 196.0 228.0 L 196.0 229.0 L 196.0 231.0 L 196.0 232.0 L 196.0 233.0 L 196.0 234.0 L 197.0 235.0 L 197.0 236.0 L 197.0 237.0 L 197.0 237.0 L 198.0 238.0 L 198.0 239.0 L 198.0 239.0 L 198.0 240.0 L 199.0 241.0 L 199.0 241.0 L 200.0 242.0 L 200.0 243.0 L 201.0 243.0 L 201.0 244.0 L 202.0 244.0 L 202.0 244.0 L 203.0 245.0 L 203.0 245.0 L 204.0 245.0 L 204.0 245.0 L 204.0 246.0 L 205.0 246.0 L 205.0 246.0 L 205.0 247.0 L 206.0 247.0 L 206.0 247.0 L 207.0 248.0 L 208.0 248.0 L 209.0 248.0 L 210.0 248.0 L 211.0 249.0 L 212.0 249.0 L 214.0 249.0 L 215.0 250.0 L 217.0 250.0 L 219.0 250.0 L 221.0 250.0 L 222.0 250.0 L 224.0 250.0 L 226.0 250.0 L 227.0 250.0 L 228.0 250.0 L 229.0 249.0 L 230.0 249.0 L 231.0 249.0 L 232.0 249.0 L 233.0 248.0 L 234.0 248.0 L 235.0 248.0 L 235.0 248.0 L 236.0 248.0 L 236.0 248.0 L 236.0 248.0 L 236.0 247.0 L 236.0 247.0 L 236.0 247.0 L 236.0 246.0 L 236.0 245.0 L 236.0 245.0 L 236.0 243.0 L 236.0 242.0 L 236.0 240.0 L 235.0 238.0 L 235.0 234.0 L 235.0 230.0 L 235.0 224.0 L 235.0 217.0 L 236.0 210.0 L 237.0 204.0 L 238.0 199.0 " stroke="black" fill="none" stroke-width="5.0" stroke-linecap="round" stroke-linejoin="round" />
</svg>