<svg xmlns="http://www.w3.org/2000/svg" width="300" height="300" viewBox="0 0 300 300">
<path d="M 76.0 75.0 L 76.0 75.0 L 75.0 75.0 L 75.0 75.0 L 74.0 75.0 L 74.0 74.0 L 74.0 74.0 L 74.0 73.0 L 74.0 73.0 L 74.0 73.0 L 74.0 73.0 L 75.0 73.0 L 76.0 73.0 L 79.0 74.0 L 81.0 75.0 L 84.0 77.0 L 87.0 79.0 L 91.0 81.0 L 94.0 84.0 L 98.0 86.0 L 101.0 88.0 L 104.0 90.0 L 105.0 91.0 " stroke="black" fill="none" stroke-width="5.0" stroke-linecap="round" stroke-linejoin="round" />
<path d="M 67.0 134.0 L 67.0 134.0 L 67.0 134.0 L 66.0 133.0 L 66.0 132.0 L 66.0 132.0 L 66.0 132.0 L 66.0 132.0 L 67.0 132.0 L 68.0 132.0 L 70.0 133.0 L 73.0 135.0 L 77.0 137.0 L 81.0 139.0 L 84.0 140.0 L 91.0 143.0 L 95.0 145.0 L 99.0 148.0 " stroke="black" fill="none" stroke-width="5.0" stroke-linecap="round" stroke-linejoin="round" />
<path d="M 70.0 252.0 L 70.0 252.0 L 70.0 252.0 L 70.0 252.0 L 70.0 252.0 L 70.0 252.0 L 70.0 252.0 L 70.0 252.0 L 70.0 250.0 L 71.0 246.0 L 73.0 241.0 L 76.0 234.0 L 81.0 223.0 L 87.0 211.0 L 94.0 198.0 L 100.0 186.0 L 103.0 181.0 " stroke="black" fill="none" stroke-width="5.0" stroke-linecap="round" stroke-linejoin="round" />
<path d="M 128.0 89.0 L 128.0 89.0 L 127.0 89.0 L 127.0 89.0 L 126.0 90.0 L 126.0 90.0 L 126.0 90.0 L 126.0 90.0 L 126.0 90.0 L 126.0 90.0 L 126.0 90.0 L 126.0 90.0 L 126.0 90.0 L 127.0 90.0 L 128.0 90.0 L 129.0 90.0 L 130.0 90.0 L 131.0 90.0 L 131.0 90.0 L 132.0 90.0 L 133.0 90.0 L 135.0 90.0 L 136.0 90.0 L 137.0 90.0 L 138.0 90.0 L 140.0 90.0 L 141.0 89.0 L 142.0 89.0 L 144.0 89.0 L 145.0 88.0 L 146.0 88.0 L 147.0 88.0 L 148.0 88.0 L 148.0 87.0 L 150.0 87.0 L 150.0 87.0 L 151.0 87.0 L 152.0 87.0 L 153.0 87.0 L 154.0 87.0 L 155.0 86.0 L 155.0 86.0 L 156.0 86.0 L 157.0 86.0 L 158.0 86.0 L 158.0 86.0 L 159.0 86.0 L 160.0 86.0 L 161.0 86.0 L 162.0 86.0 L 164.0 86.0 L 165.0 86.0 L 166.0 86.0 L 167.0 86.0 L 168.0 86.0 L 169.0 86.0 L 170.0 86.0 L 171.0 86.0 L 172.0 86.0 L 173.0 86.0 L 175.0 86.0 L 176.0 86.0 L 177.0 86.0 L 178.0 86.0 L 179.0 86.0 L 180.0 85.0 L 180.0 85.0 L 181.0 85.0 L 182.0 85.0 L 183.0 85.0 L 183.0 85.0 L 184.0 85.0 L 185.0 85.0 L 185.0 85.0 L 186.0 85.0 L 187.0 85.0 L 188.0 85.0 L 188.0 85.0 L 189.0 85.0 L 190.0 85.0 L 191.0 85.0 L 191.0 85.0 L 192.0 85.0 L 193.0 85.0 L 193.0 85.0 L 194.0 85.0 L 195.0 85.0 L 195.0 85.0 L 196.0 85.0 L 197.0 85.0 L 197.0 85.0 L 198.0 84.0 L 199.0 84.0 L 200.0 84.0 L 201.0 84.0 L 202.0 84.0 L 203.0 83.0 L 204.0 83.0 L 205.0 82.0 L 207.0 82.0 L 208.0 82.0 L 210.0 81.0 L 211.0 81.0 L 213.0 80.0 L 214.0 80.0 L 215.0 79.0 L 216.0 79.0 L 218.0 78.0 L 219.0 78.0 L 220.0 77.0 L 221.0 77.0 L 221.0 77.0 L 223.0 77.0 L 223.0 76.0 L 224.0 76.0 " stroke="black" fill="none" stroke-width="5.0" stroke-linecap="round" stroke-linejoin="round" />
<path d="M 132.0 105.0 L 132.0 105.0 L 132.0 105.0 L 132.0 105.0 L 132.0 105.0 L 132.0 105.0 L 133.0 105.0 L 134.0 106.0 L 135.0 107.0 L 137.0 110.0 L 139.0 113.0 L 142.0 118.0 L 144.0 122.0 L 146.0 127.0 L 148.0 130.0 " stroke="black" fill="none" stroke-width="5.0" stroke-linecap="round" stroke-linejoin="round" />
<path d="M 167.0 98.0 L 167.0 98.0 L 167.0 98.0 L 167.0 98.0 L 166.0 98.0 L 166.0 98.0 L 166.0 99.0 L 167.0 100.0 L 168.0 102.0 L 169.0 105.0 L 171.0 108.0 L 173.0 112.0 L 175.0 116.0 L 177.0 120.0 L 179.0 123.0 L 180.0 124.0 " stroke="black" fill="none" stroke-width="5.0" stroke-linecap="round" stroke-linejoin="round" />
<path d="M 223.0 96.0 L 223.0 96.0 L 221.0 96.0 L 220.0 96.0 L 219.0 97.0 L 217.0 99.0 L 216.0 102.0 L 214.0 106.0 L 212.0 111.0 L 210.0 116.0 L 209.0 121.0 L 208.0 124.0 " stroke="black" fill="none" stroke-width="5.0" stroke-linecap="round" stroke-linejoin="round" />
<path d="M 140.0 147.0 L 140.0 147.0 L 139.0 148.0 L 138.0 148.0 L 137.0 148.0 L 137.0 148.0 L 137.0 149.0 L 136.0 149.0 L 136.0 149.0 L 136.0 149.0 L 136.0 149.0 L 136.0 149.0 L 137.0 148.0 L 137.0 148.0 L 138.0 148.0 L 138.0 148.0 L 139.0 148.0 L 139.0 148.0 L 140.0 148.0 L 140.0 148.0 L 141.0 147.0 L 142.0 147.0 L 142.0 147.0 L 143.0 147.0 L 144.0 147.0 L 145.0 147.0 L 145.0 147.0 L 146.0 147.0 L 147.0 147.0 L 148.0 147.0 L 148.0 147.0 L 149.0 146.0 L 150.0 146.0 L 151.0 146.0 L 152.0 146.0 L 153.0 146.0 L 154.0 146.0 L 155.0 146.0 L 156.0 146.0 L 157.0 146.0 L 159.0 146.0 L 160.0 146.0 L 161.0 146.0 L 163.0 146.0 L 164.0 146.0 L 166.0 146.0 L 167.0 146.0 L 168.0 146.0 L 170.0 146.0 L 171.0 146.0 L 172.0 146.0 L 173.0 146.0 L 175.0 146.0 L 176.0 146.0 L 177.0 146.0 L 178.0 146.0 L 180.0 146.0 L 181.0 145.0 L 182.0 145.0 L 184.0 145.0 L 185.0 144.0 L 186.0 144.0 L 187.0 144.0 L 188.0 144.0 L 189.0 143.0 L 190.0 143.0 L 191.0 143.0 L 192.0 143.0 L 193.0 143.0 L 194.0 143.0 L 194.0 143.0 L 195.0 143.0 L 196.0 143.0 L 197.0 143.0 L 197.0 143.0 L 198.0 143.0 L 199.0 143.0 L 200.0 143.0 L 201.0 143.0 L 202.0 143.0 L 202.0 143.0 L 203.0 143.0 L 204.0 143.0 L 205.0 143.0 L 206.0 143.0 L 206.0 144.0 L 207.0 144.0 L 208.0 144.0 L 209.0 144.0 L 210.0 144.0 L 210.0 144.0 L 211.0 144.0 L 212.0 145.0 L 213.0 145.0 L 213.0 145.0 L 214.0 145.0 L 215.0 145.0 L 215.0 145.0 L 215.0 145.0 L 216.0 146.0 L 216.0 146.0 L 216.0 146.0 L 216.0 146.0 L 216.0 146.0 L 216.0 146.0 L 216.0 147.0 L 215.0 147.0 L 214.0 148.0 L 213.0 149.0 L 212.0 149.0 L 211.0 150.0 L 210.0 151.0 L 209.0 152.0 L 208.0 152.0 L 206.0 153.0 L 205.0 154.0 L 203.0 155.0 L 202.0 157.0 L 200.0 158.0 L 198.0 160.0 L 196.0 161.0 L 194.0 163.0 L 192.0 165.0 L 190.0 167.0 L 188.0 168.0 L 186.0 170.0 L 184.0 171.0 L 182.0 173.0 L 180.0 174.0 L 177.0 175.0 L 176.0 176.0 L 174.0 176.0 L 173.0 177.0 L 172.0 177.0 L 172.0 177.0 L 171.0 177.0 L 171.0 177.0 L 171.0 177.0 L 171.0 177.0 L 171.0 177.0 L 171.0 177.0 L 171.0 177.0 L 171.0 177.0 L 172.0 177.0 L 172.0 177.0 L 173.0 178.0 L 174.0 178.0 L 175.0 179.0 L 175.0 179.0 L 176.0 180.0 L 177.0 181.0 L 178.0 182.0 L 178.0 183.0 L 179.0 184.0 L 180.0 185.0 L 180.0 186.0 L 181.0 188.0 L 181.0 189.0 L 181.0 191.0 L 181.0 193.0 L 181.0 194.0 L 181.0 196.0 L 182.0 198.0 L 182.0 199.0 L 182.0 201.0 L 182.0 202.0 L 182.0 204.0 L 182.0 205.0 L 182.0 207.0 L 181.0 208.0 L 181.0 209.0 L 181.0 211.0 L 181.0 212.0 L 181.0 213.0 L 181.0 215.0 L 181.0 216.0 L 181.0 218.0 L 180.0 219.0 L 180.0 221.0 L 180.0 225.0 L 179.0 226.0 L 179.0 228.0 L 178.0 230.0 L 178.0 232.0 L 178.0 233.0 L 177.0 234.0 L 177.0 236.0 L 177.0 237.0 L 176.0 239.0 L 176.0 240.0 L 176.0 241.0 L 175.0 243.0 L 175.0 244.0 L 175.0 245.0 L 174.0 246.0 L 174.0 247.0 L 174.0 248.0 L 173.0 249.0 L 173.0 250.0 L 173.0 251.0 L 172.0 252.0 L 172.0 253.0 L 171.0 253.0 L 171.0 254.0 L 171.0 255.0 L 170.0 255.0 L 170.0 256.0 L 170.0 256.0 L 169.0 257.0 L 169.0 257.0 L 168.0 257.0 L 168.0 257.0 L 167.0 257.0 L 167.0 257.0 L 166.0 256.0 L 165.0 256.0 L 164.0 255.0 L 163.0 255.0 L 161.0 254.0 L 160.0 253.0 L 158.0 252.0 L 156.0 251.0 L 155.0 250.0 L 153.0 249.0 L 152.0 248.0 L 151.0 246.0 L 150.0 245.0 " stroke="black" fill="none" stroke-width="5.0" stroke-linecap="round" stroke-linejoin="round" />
<path d="M 114.0 193.0 L 114.0 193.0 L 114.0 193.0 L 114.0 193.0 L 114.0 194.0 L 114.0 194.0 L 114.0 194.0 L 114.0 194.0 L 114.0 194.0 L 114.0 194.0 L 114.0 194.0 L 115.0 194.0 L 116.0 194.0 L 117.0 194.0 L 118.0 194.0 L 119.0 193.0 L 121.0 193.0 L 122.0 193.0 L 124.0 193.0 L 126.0 193.0 L 129.0 193.0 L 131.0 193.0 L 133.0 193.0 L 136.0 193.0 L 139.0 193.0 L 141.0 193.0 L 143.0 193.0 L 145.0 193.0 L 147.0 193.0 L 148.0 193.0 L 150.0 193.0 L 151.0 193.0 L 152.0 194.0 L 153.0 194.0 L 153.0 194.0 L 154.0 194.0 L 155.0 194.0 L 156.0 194.0 L 157.0 194.0 L 158.0 194.0 L 160.0 194.0 L 161.0 194.0 L 162.0 194.0 L 163.0 194.0 L 165.0 194.0 L 167.0 194.0 L 169.0 194.0 L 171.0 194.0 L 173.0 194.0 L 176.0 194.0 L 178.0 194.0 L 181.0 194.0 L 183.0 194.0 L 186.0 194.0 L 188.0 194.0 L 190.0 194.0 L 192.0 194.0 L 193.0 194.0 L 195.0 194.0 L 196.0 194.0 L 198.0 194.0 L 199.0 194.0 L 201.0 194.0 L 202.0 194.0 L 204.0 194.0 L 206.0 194.0 L 207.0 195.0 L 209.0 195.0 L 211.0 195.0 L 213.0 195.0 L 216.0 195.0 L 218.0 196.0 L 221.0 196.0 L 223.0 196.0 L 225.0 196.0 L 227.0 196.0 L 229.0 196.0 L 232.0 197.0 L 233.0 197.0 L 235.0 197.0 L 237.0 197.0 L 238.0 197.0 L 239.0 197.0 L 240.0 198.0 L 241.0 198.0 L 242.0 198.0 L 243.0 198.0 L 244.0 198.0 L 244.0 198.0 L 245.0 198.0 L 245.0 198.0 L 246.0 198.0 L 246.0 199.0 L 246.0 200.0 L 246.0 201.0 L 246.0 202.0 " stroke="black" fill="none" stroke-width="5.0" stroke-linecap="round" stroke-linejoin="round" />
</svg>