<svg xmlns="http://www.w3.org/2000/svg" width="300" height="300" viewBox="0 0 300 300">
<path d="M 72.0 77.0 L 72.0 77.0 L 72.0 77.0 L 72.0 77.0 L 71.0 76.0 L 71.0 76.0 L 71.0 76.0 L 71.0 76.0 L 71.0 76.0 L 71.0 76.0 L 71.0 76.0 L 72.0 76.0 L 73.0 76.0 L 76.0 78.0 L 80.0 80.0 L 84.0 83.0 L 88.0 85.0 L 93.0 88.0 L 98.0 90.0 L 101.0 93.0 " stroke="black" fill="none" stroke-width="5.0" stroke-linecap="round" stroke-linejoin="round" />
<path d="M 65.0 136.0 L 65.0 136.0 L 65.0 136.0 L 65.0 136.0 L 65.0 136.0 L 66.0 136.0 L 67.0 136.0 L 68.0 137.0 L 70.0 138.0 L 73.0 140.0 L 76.0 141.0 L 80.0 143.0 L 84.0 145.0 L 88.0 147.0 L 90.0 148.0 " stroke="black" fill="none" stroke-width="5.0" stroke-linecap="round" stroke-linejoin="round" />
<path d="M 65.0 249.0 L 65.0 249.0 L 65.0 249.0 L 65.0 249.0 L 65.0 249.0 L 65.0 248.0 L 65.0 247.0 L 65.0 245.0 L 66.0 241.0 L 70.0 233.0 L 75.0 222.0 L 83.0 210.0 L 92.0 197.0 L 99.0 185.0 L 102.0 179.0 " stroke="black" fill="none" stroke-width="5.0" stroke-linecap="round" stroke-linejoin="round" />
<path d="M 155.0 80.0 L 155.0 80.0 L 155.0 80.0 L 155.0 80.0 L 156.0 80.0 L 156.0 80.0 L 156.0 80.0 L 156.0 80.0 L 156.0 80.0 L 156.0 80.0 L 156.0 81.0 L 157.0 81.0 L 157.0 82.0 L 157.0 83.0 L 157.0 84.0 L 157.0 85.0 L 157.0 87.0 L 157.0 89.0 L 157.0 92.0 L 157.0 95.0 L 157.0 98.0 L 157.0 102.0 L 157.0 105.0 L 157.0 108.0 L 156.0 111.0 L 156.0 113.0 L 156.0 115.0 L 156.0 117.0 L 155.0 118.0 L 155.0 119.0 L 155.0 120.0 L 155.0 120.0 L 155.0 121.0 L 155.0 121.0 L 155.0 121.0 L 155.0 121.0 L 155.0 121.0 L 155.0 121.0 L 155.0 121.0 L 155.0 121.0 L 155.0 121.0 L 155.0 121.0 L 154.0 121.0 L 154.0 121.0 L 154.0 121.0 L 154.0 121.0 L 153.0 121.0 L 153.0 121.0 L 153.0 122.0 L 153.0 122.0 L 152.0 122.0 L 152.0 122.0 L 151.0 122.0 L 151.0 123.0 L 150.0 123.0 L 149.0 123.0 L 149.0 123.0 L 148.0 123.0 L 147.0 124.0 L 146.0 124.0 L 144.0 124.0 L 143.0 125.0 L 141.0 125.0 L 140.0 126.0 L 138.0 127.0 L 136.0 127.0 L 134.0 128.0 L 133.0 128.0 L 131.0 128.0 L 129.0 128.0 L 127.0 128.0 L 126.0 128.0 L 124.0 128.0 " stroke="black" fill="none" stroke-width="5.0" stroke-linecap="round" stroke-linejoin="round" />
<path d="M 122.0 76.0 L 122.0 76.0 L 122.0 76.0 L 122.0 76.0 L 122.0 76.0 L 122.0 76.0 L 122.0 76.0 L 122.0 76.0 L 122.0 76.0 L 122.0 76.0 L 122.0 76.0 L 122.0 76.0 L 122.0 76.0 L 122.0 77.0 L 122.0 78.0 L 122.0 79.0 L 122.0 81.0 L 122.0 83.0 L 122.0 86.0 L 123.0 89.0 L 123.0 93.0 L 123.0 96.0 L 123.0 100.0 L 123.0 103.0 L 124.0 106.0 L 124.0 109.0 L 125.0 112.0 L 125.0 114.0 L 125.0 116.0 L 125.0 118.0 L 125.0 120.0 L 125.0 122.0 L 125.0 123.0 L 125.0 125.0 L 125.0 126.0 L 125.0 127.0 L 125.0 128.0 L 124.0 129.0 L 124.0 131.0 L 124.0 132.0 L 124.0 133.0 L 124.0 135.0 L 124.0 136.0 L 124.0 138.0 L 123.0 140.0 L 123.0 141.0 L 123.0 143.0 L 123.0 145.0 L 123.0 146.0 L 123.0 148.0 L 123.0 150.0 L 123.0 151.0 L 123.0 153.0 L 122.0 154.0 L 122.0 155.0 L 122.0 157.0 L 122.0 158.0 L 122.0 159.0 L 122.0 160.0 L 122.0 162.0 L 121.0 163.0 L 121.0 164.0 L 121.0 165.0 L 121.0 166.0 L 121.0 168.0 L 120.0 169.0 L 120.0 170.0 L 120.0 172.0 L 120.0 173.0 L 120.0 174.0 L 119.0 176.0 L 119.0 177.0 L 119.0 179.0 L 119.0 180.0 L 118.0 182.0 L 118.0 183.0 L 118.0 185.0 L 118.0 187.0 L 117.0 189.0 L 117.0 191.0 L 116.0 192.0 L 116.0 194.0 L 116.0 195.0 L 115.0 197.0 L 115.0 199.0 L 114.0 200.0 L 114.0 202.0 L 114.0 203.0 L 114.0 205.0 L 113.0 206.0 L 113.0 207.0 L 112.0 209.0 L 112.0 210.0 L 112.0 212.0 L 111.0 214.0 L 111.0 215.0 L 110.0 217.0 L 110.0 220.0 L 109.0 222.0 L 109.0 224.0 L 108.0 227.0 L 107.0 229.0 L 107.0 232.0 L 106.0 234.0 L 105.0 237.0 L 104.0 239.0 L 104.0 241.0 L 103.0 243.0 L 103.0 244.0 L 102.0 246.0 L 101.0 247.0 L 101.0 248.0 L 100.0 250.0 L 100.0 250.0 L 99.0 251.0 L 98.0 252.0 L 98.0 252.0 " stroke="black" fill="none" stroke-width="5.0" stroke-linecap="round" stroke-linejoin="round" />
<path d="M 125.0 189.0 L 125.0 189.0 L 124.0 189.0 L 123.0 189.0 L 123.0 189.0 L 122.0 189.0 L 122.0 189.0 L 122.0 189.0 L 121.0 189.0 L 121.0 189.0 L 121.0 189.0 L 121.0 189.0 L 121.0 189.0 L 122.0 189.0 L 123.0 189.0 L 124.0 189.0 L 125.0 188.0 L 127.0 188.0 L 129.0 188.0 L 131.0 187.0 L 134.0 187.0 L 137.0 186.0 L 139.0 185.0 L 142.0 185.0 L 145.0 184.0 L 147.0 183.0 L 149.0 182.0 L 151.0 181.0 L 152.0 181.0 L 154.0 181.0 L 154.0 181.0 L 155.0 181.0 L 156.0 181.0 L 156.0 182.0 L 156.0 182.0 L 156.0 182.0 L 157.0 182.0 L 157.0 182.0 L 157.0 182.0 L 157.0 182.0 L 157.0 182.0 L 157.0 183.0 L 157.0 183.0 L 157.0 183.0 L 157.0 183.0 L 157.0 183.0 L 158.0 184.0 L 158.0 184.0 L 158.0 185.0 L 158.0 186.0 L 158.0 186.0 L 158.0 187.0 L 158.0 189.0 L 158.0 190.0 L 158.0 192.0 L 158.0 194.0 L 158.0 197.0 L 158.0 199.0 L 158.0 203.0 L 158.0 206.0 L 158.0 211.0 L 158.0 215.0 L 158.0 221.0 L 158.0 227.0 L 158.0 232.0 L 158.0 236.0 L 158.0 239.0 L 158.0 242.0 L 158.0 244.0 L 158.0 245.0 L 158.0 247.0 L 158.0 248.0 L 157.0 249.0 L 157.0 250.0 L 157.0 251.0 L 157.0 251.0 L 157.0 251.0 L 157.0 249.0 " stroke="black" fill="none" stroke-width="5.0" stroke-linecap="round" stroke-linejoin="round" />
<path d="M 191.0 83.0 L 191.0 83.0 L 191.0 83.0 L 191.0 83.0 L 191.0 83.0 L 191.0 83.0 L 191.0 83.0 L 191.0 83.0 L 191.0 84.0 L 190.0 86.0 L 190.0 87.0 L 190.0 90.0 L 190.0 93.0 L 190.0 96.0 L 190.0 99.0 L 190.0 102.0 L 190.0 106.0 L 190.0 109.0 L 190.0 112.0 L 190.0 114.0 L 190.0 117.0 L 190.0 119.0 L 190.0 120.0 L 190.0 121.0 L 190.0 122.0 L 190.0 123.0 L 190.0 124.0 L 190.0 125.0 L 191.0 125.0 L 191.0 126.0 L 191.0 127.0 L 191.0 128.0 L 191.0 128.0 L 191.0 129.0 L 191.0 129.0 L 191.0 130.0 L 191.0 130.0 L 191.0 130.0 L 191.0 131.0 L 191.0 131.0 L 191.0 131.0 L 191.0 131.0 L 191.0 131.0 L 192.0 131.0 L 192.0 132.0 L 192.0 132.0 L 192.0 132.0 L 192.0 132.0 L 193.0 132.0 L 193.0 132.0 L 194.0 132.0 L 194.0 132.0 L 195.0 132.0 L 196.0 132.0 L 197.0 132.0 L 198.0 132.0 L 200.0 132.0 L 201.0 131.0 L 203.0 131.0 L 204.0 131.0 L 206.0 130.0 L 208.0 130.0 L 209.0 130.0 L 211.0 130.0 L 213.0 129.0 L 215.0 129.0 L 217.0 129.0 L 218.0 128.0 L 220.0 128.0 L 221.0 128.0 L 223.0 128.0 L 224.0 127.0 L 225.0 127.0 L 226.0 127.0 L 226.0 127.0 L 227.0 127.0 L 227.0 127.0 L 227.0 127.0 " stroke="black" fill="none" stroke-width="5.0" stroke-linecap="round" stroke-linejoin="round" />
<path d="M 230.0 81.0 L 230.0 81.0 L 230.0 81.0 L 229.0 81.0 L 229.0 82.0 L 229.0 82.0 L 229.0 83.0 L 229.0 83.0 L 229.0 84.0 L 229.0 86.0 L 229.0 88.0 L 229.0 90.0 L 229.0 93.0 L 229.0 97.0 L 229.0 101.0 L 229.0 105.0 L 228.0 110.0 L 228.0 114.0 L 228.0 118.0 L 228.0 123.0 L 228.0 126.0 L 228.0 130.0 L 228.0 133.0 L 228.0 136.0 L 228.0 139.0 L 228.0 142.0 L 228.0 145.0 L 228.0 148.0 L 228.0 151.0 L 228.0 154.0 L 228.0 156.0 L 228.0 159.0 L 228.0 162.0 L 228.0 164.0 L 228.0 166.0 L 228.0 168.0 L 228.0 170.0 L 227.0 173.0 L 227.0 175.0 L 227.0 178.0 L 227.0 181.0 L 227.0 184.0 L 227.0 187.0 L 227.0 190.0 L 227.0 193.0 L 226.0 196.0 L 226.0 198.0 L 226.0 201.0 L 226.0 203.0 L 226.0 205.0 L 226.0 207.0 L 226.0 209.0 L 225.0 211.0 L 225.0 212.0 L 225.0 214.0 L 225.0 217.0 L 225.0 219.0 L 225.0 222.0 L 225.0 225.0 L 225.0 228.0 L 225.0 231.0 L 225.0 234.0 L 225.0 236.0 L 225.0 238.0 L 225.0 240.0 L 225.0 241.0 L 225.0 242.0 L 225.0 244.0 L 225.0 245.0 L 225.0 245.0 L 225.0 247.0 L 225.0 247.0 L 225.0 248.0 L 225.0 249.0 L 225.0 250.0 L 225.0 250.0 L 225.0 251.0 L 225.0 252.0 L 225.0 252.0 L 225.0 252.0 L 225.0 252.0 " stroke="black" fill="none" stroke-width="5.0" stroke-linecap="round" stroke-linejoin="round" />
<path d="M 194.0 189.0 L 194.0 189.0 L 194.0 189.0 L 194.0 190.0 L 194.0 190.0 L 194.0 190.0 L 193.0 190.0 L 193.0 190.0 L 193.0 190.0 L 193.0 190.0 L 193.0 190.0 L 194.0 190.0 L 194.0 190.0 L 196.0 190.0 L 198.0 190.0 L 200.0 190.0 L 204.0 190.0 L 208.0 190.0 L 213.0 189.0 L 218.0 188.0 L 222.0 187.0 L 226.0 186.0 L 227.0 186.0 L 228.0 186.0 L 228.0 186.0 L 228.0 187.0 L 228.0 188.0 " stroke="black" fill="none" stroke-width="5.0" stroke-linecap="round" stroke-linejoin="round" />
<path d="M 194.0 193.0 L 194.0 193.0 L 194.0 193.0 L 194.0 193.0 L 194.0 192.0 L 194.0 192.0 L 193.0 192.0 L 193.0 192.0 L 193.0 192.0 L 193.0 192.0 L 193.0 193.0 L 193.0 195.0 L 193.0 197.0 L 193.0 200.0 L 193.0 203.0 L 193.0 207.0 L 193.0 212.0 L 192.0 218.0 L 192.0 225.0 L 192.0 231.0 L 191.0 236.0 L 191.0 241.0 L 191.0 244.0 L 191.0 247.0 L 191.0 248.0 L 191.0 248.0 L 191.0 248.0 " stroke="black" fill="none" stroke-width="5.0" stroke-linecap="round" stroke-linejoin="round" />
<path d="M 123.0 157.0 L 123.0 157.0 L 123.0 157.0 L 123.0 156.0 L 123.0 156.0 L 123.0 156.0 L 123.0 156.0 L 123.0 156.0 L 123.0 156.0 L 123.0 156.0 L 123.0 156.0 L 123.0 156.0 L 123.0 156.0 L 123.0 156.0 L 123.0 156.0 L 124.0 156.0 L 124.0 156.0 L 125.0 156.0 L 125.0 156.0 L 126.0 157.0 L 127.0 157.0 L 128.0 157.0 L 129.0 157.0 L 130.0 157.0 L 131.0 157.0 L 132.0 157.0 L 133.0 157.0 L 134.0 157.0 L 135.0 157.0 L 137.0 157.0 L 138.0 157.0 L 139.0 157.0 L 141.0 157.0 L 142.0 157.0 L 143.0 157.0 L 144.0 156.0 L 145.0 156.0 L 146.0 156.0 L 147.0 156.0 L 148.0 156.0 L 148.0 156.0 L 149.0 156.0 L 149.0 156.0 L 150.0 156.0 L 150.0 156.0 L 151.0 156.0 L 151.0 156.0 L 151.0 156.0 L 152.0 156.0 L 152.0 156.0 L 153.0 155.0 L 153.0 155.0 L 153.0 155.0 L 154.0 155.0 L 154.0 155.0 L 155.0 155.0 L 155.0 155.0 L 155.0 155.0 L 156.0 155.0 L 156.0 155.0 L 157.0 155.0 L 157.0 155.0 L 157.0 155.0 L 158.0 155.0 L 158.0 155.0 L 159.0 155.0 L 159.0 155.0 L 160.0 155.0 L 160.0 155.0 L 161.0 155.0 L 161.0 155.0 L 162.0 155.0 L 162.0 155.0 L 163.0 155.0 L 164.0 155.0 L 164.0 155.0 L 165.0 155.0 L 166.0 155.0 L 166.0 155.0 L 167.0 155.0 L 168.0 155.0 L 169.0 156.0 L 170.0 156.0 L 171.0 156.0 L 172.0 156.0 L 173.0 156.0 L 175.0 156.0 L 176.0 156.0 L 177.0 156.0 L 178.0 156.0 L 179.0 156.0 L 180.0 156.0 L 181.0 156.0 L 182.0 156.0 L 183.0 156.0 L 184.0 156.0 L 185.0 156.0 L 186.0 156.0 L 187.0 156.0 L 187.0 156.0 L 188.0 156.0 L 189.0 156.0 L 190.0 157.0 L 191.0 157.0 L 191.0 157.0 L 192.0 157.0 L 192.0 157.0 L 192.0 157.0 L 193.0 157.0 L 194.0 157.0 L 194.0 157.0 L 195.0 157.0 L 196.0 157.0 L 196.0 158.0 L 197.0 158.0 L 198.0 158.0 L 198.0 158.0 L 199.0 158.0 L 200.0 158.0 L 200.0 158.0 L 201.0 158.0 L 201.0 158.0 L 202.0 158.0 L 202.0 158.0 L 203.0 158.0 L 204.0 158.0 L 205.0 158.0 L 205.0 158.0 L 207.0 158.0 L 208.0 158.0 L 209.0 158.0 L 210.0 158.0 L 211.0 157.0 L 212.0 157.0 L 214.0 157.0 L 215.0 157.0 L 216.0 157.0 L 217.0 157.0 L 218.0 157.0 L 219.0 157.0 L 220.0 157.0 L 221.0 157.0 L 222.0 157.0 L 223.0 157.0 L 224.0 157.0 L 225.0 157.0 L 225.0 157.0 L 226.0 157.0 L 226.0 157.0 L 227.0 157.0 L 227.0 157.0 L 227.0 157.0 L 227.0 157.0 L 227.0 157.0 L 228.0 157.0 L 228.0 157.0 L 228.0 157.0 L 228.0 158.0 L 228.0 158.0 " stroke="black" fill="none" stroke-width="5.0" stroke-linecap="round" stroke-linejoin="round" />
</svg>