<svg xmlns="http://www.w3.org/2000/svg" width="300" height="300" viewBox="0 0 300 300">
<path d="M 70.0 75.0 L 70.0 75.0 L 70.0 74.0 L 70.0 73.0 L 69.0 73.0 L 69.0 73.0 L 68.0 73.0 L 68.0 73.0 L 68.0 73.0 L 68.0 74.0 L 69.0 75.0 L 71.0 76.0 L 73.0 78.0 L 77.0 79.0 L 81.0 82.0 L 86.0 84.0 L 91.0 86.0 L 96.0 88.0 L 99.0 91.0 L 102.0 93.0 " stroke="black" fill="none" stroke-width="5.0" stroke-linecap="round" stroke-linejoin="round" />
<path d="M 64.0 134.0 L 64.0 134.0 L 64.0 134.0 L 64.0 134.0 L 64.0 134.0 L 64.0 135.0 L 64.0 136.0 L 65.0 136.0 L 66.0 137.0 L 67.0 139.0 L 69.0 141.0 L 72.0 144.0 L 76.0 146.0 L 80.0 150.0 L 83.0 153.0 L 85.0 155.0 " stroke="black" fill="none" stroke-width="5.0" stroke-linecap="round" stroke-linejoin="round" />
<path d="M 69.0 245.0 L 69.0 246.0 L 69.0 247.0 L 69.0 247.0 L 69.0 248.0 L 69.0 248.0 L 69.0 249.0 L 69.0 249.0 L 69.0 249.0 L 69.0 247.0 L 69.0 245.0 L 70.0 241.0 L 71.0 236.0 L 74.0 228.0 L 78.0 220.0 L 83.0 209.0 L 88.0 199.0 L 94.0 189.0 L 98.0 179.0 L 102.0 170.0 " stroke="black" fill="none" stroke-width="5.0" stroke-linecap="round" stroke-linejoin="round" />
<path d="M 113.0 89.0 L 113.0 89.0 L 113.0 89.0 L 113.0 89.0 L 113.0 89.0 L 113.0 90.0 L 113.0 90.0 L 113.0 90.0 L 113.0 90.0 L 113.0 90.0 L 113.0 91.0 L 113.0 91.0 L 113.0 91.0 L 113.0 91.0 L 113.0 91.0 L 113.0 91.0 L 113.0 91.0 L 113.0 91.0 L 114.0 91.0 L 114.0 91.0 L 114.0 91.0 L 115.0 90.0 L 115.0 90.0 L 116.0 90.0 L 117.0 90.0 L 118.0 90.0 L 119.0 90.0 L 120.0 90.0 L 121.0 90.0 L 122.0 90.0 L 123.0 90.0 L 124.0 90.0 L 125.0 90.0 L 127.0 90.0 L 128.0 90.0 L 129.0 90.0 L 131.0 91.0 L 132.0 91.0 L 133.0 91.0 L 135.0 91.0 L 136.0 91.0 L 138.0 91.0 L 139.0 91.0 L 140.0 91.0 L 142.0 91.0 L 143.0 91.0 L 144.0 91.0 L 145.0 91.0 L 146.0 91.0 L 147.0 91.0 L 148.0 91.0 L 149.0 91.0 L 150.0 91.0 L 151.0 91.0 L 151.0 91.0 L 152.0 91.0 L 153.0 91.0 L 154.0 91.0 L 154.0 91.0 L 155.0 91.0 L 156.0 91.0 L 157.0 91.0 L 158.0 91.0 L 159.0 91.0 L 160.0 91.0 L 161.0 91.0 L 162.0 91.0 L 164.0 91.0 L 165.0 91.0 L 166.0 91.0 L 168.0 91.0 L 169.0 91.0 L 170.0 91.0 L 172.0 91.0 L 173.0 91.0 L 175.0 91.0 L 176.0 91.0 L 178.0 91.0 L 179.0 91.0 L 180.0 91.0 L 181.0 91.0 L 182.0 90.0 L 184.0 90.0 L 184.0 90.0 L 185.0 90.0 L 186.0 90.0 L 187.0 90.0 L 188.0 90.0 L 188.0 90.0 L 189.0 90.0 L 190.0 90.0 L 190.0 90.0 L 191.0 90.0 L 192.0 90.0 L 192.0 90.0 L 193.0 90.0 L 194.0 90.0 L 195.0 90.0 L 195.0 90.0 L 196.0 90.0 L 197.0 90.0 L 198.0 90.0 L 199.0 90.0 L 200.0 90.0 L 200.0 90.0 L 201.0 90.0 L 202.0 90.0 L 203.0 90.0 L 204.0 90.0 L 205.0 90.0 L 206.0 90.0 L 207.0 90.0 L 208.0 89.0 L 209.0 89.0 L 210.0 89.0 L 211.0 89.0 L 212.0 89.0 L 214.0 89.0 L 215.0 88.0 L 216.0 88.0 L 217.0 88.0 L 218.0 88.0 L 219.0 88.0 L 220.0 88.0 L 221.0 88.0 L 222.0 88.0 L 223.0 88.0 L 224.0 88.0 L 225.0 88.0 L 227.0 88.0 L 228.0 88.0 L 229.0 88.0 L 230.0 88.0 L 231.0 88.0 L 232.0 88.0 L 233.0 88.0 L 234.0 88.0 L 234.0 88.0 L 235.0 88.0 L 236.0 88.0 L 237.0 88.0 L 237.0 88.0 L 237.0 88.0 " stroke="black" fill="none" stroke-width="5.0" stroke-linecap="round" stroke-linejoin="round" />
<path d="M 140.0 77.0 L 140.0 77.0 L 140.0 78.0 L 140.0 78.0 L 140.0 79.0 L 140.0 79.0 L 140.0 80.0 L 140.0 81.0 L 140.0 81.0 L 140.0 82.0 L 141.0 83.0 L 141.0 85.0 L 141.0 88.0 L 141.0 92.0 L 141.0 98.0 L 141.0 104.0 L 141.0 110.0 L 141.0 115.0 L 141.0 120.0 L 141.0 124.0 L 141.0 126.0 L 141.0 127.0 " stroke="black" fill="none" stroke-width="5.0" stroke-linecap="round" stroke-linejoin="round" />
<path d="M 202.0 73.0 L 202.0 73.0 L 202.0 73.0 L 203.0 72.0 L 203.0 72.0 L 204.0 71.0 L 204.0 71.0 L 204.0 71.0 L 204.0 71.0 L 204.0 71.0 L 204.0 72.0 L 203.0 73.0 L 203.0 75.0 L 202.0 77.0 L 202.0 81.0 L 202.0 84.0 L 202.0 89.0 L 202.0 95.0 L 202.0 102.0 L 202.0 109.0 L 202.0 116.0 L 202.0 121.0 L 201.0 123.0 " stroke="black" fill="none" stroke-width="5.0" stroke-linecap="round" stroke-linejoin="round" />
<path d="M 148.0 126.0 L 148.0 126.0 L 148.0 126.0 L 148.0 126.0 L 148.0 126.0 L 148.0 126.0 L 148.0 126.0 L 148.0 126.0 L 148.0 126.0 L 148.0 125.0 L 148.0 125.0 L 148.0 125.0 L 148.0 125.0 L 149.0 125.0 L 149.0 125.0 L 150.0 125.0 L 151.0 125.0 L 152.0 125.0 L 155.0 125.0 L 158.0 125.0 L 163.0 125.0 L 169.0 125.0 L 176.0 125.0 L 183.0 124.0 L 189.0 123.0 L 193.0 121.0 L 197.0 120.0 L 200.0 119.0 L 202.0 119.0 L 203.0 119.0 L 203.0 120.0 L 203.0 122.0 " stroke="black" fill="none" stroke-width="5.0" stroke-linecap="round" stroke-linejoin="round" />
<path d="M 114.0 158.0 L 114.0 158.0 L 114.0 158.0 L 114.0 157.0 L 114.0 157.0 L 114.0 156.0 L 115.0 155.0 L 115.0 155.0 L 115.0 155.0 L 115.0 154.0 L 115.0 154.0 L 115.0 154.0 L 115.0 154.0 L 115.0 154.0 L 115.0 155.0 L 115.0 157.0 L 115.0 160.0 L 115.0 163.0 L 115.0 167.0 L 115.0 172.0 L 115.0 179.0 L 115.0 188.0 L 115.0 196.0 L 115.0 205.0 L 115.0 214.0 L 115.0 222.0 L 115.0 229.0 L 115.0 235.0 L 115.0 238.0 L 115.0 240.0 L 115.0 242.0 L 115.0 242.0 " stroke="black" fill="none" stroke-width="5.0" stroke-linecap="round" stroke-linejoin="round" />
<path d="M 120.0 152.0 L 120.0 152.0 L 120.0 152.0 L 120.0 152.0 L 121.0 152.0 L 121.0 152.0 L 121.0 152.0 L 121.0 152.0 L 121.0 152.0 L 121.0 152.0 L 121.0 152.0 L 121.0 152.0 L 121.0 152.0 L 121.0 152.0 L 121.0 152.0 L 121.0 152.0 L 121.0 152.0 L 122.0 152.0 L 122.0 152.0 L 123.0 152.0 L 123.0 152.0 L 124.0 152.0 L 124.0 152.0 L 125.0 152.0 L 126.0 152.0 L 127.0 152.0 L 129.0 152.0 L 130.0 152.0 L 131.0 152.0 L 133.0 152.0 L 134.0 152.0 L 136.0 152.0 L 138.0 152.0 L 139.0 152.0 L 141.0 152.0 L 142.0 152.0 L 143.0 152.0 L 145.0 152.0 L 146.0 152.0 L 147.0 152.0 L 148.0 152.0 L 149.0 152.0 L 150.0 152.0 L 150.0 152.0 L 151.0 152.0 L 152.0 152.0 L 153.0 152.0 L 154.0 152.0 L 155.0 152.0 L 155.0 152.0 L 156.0 152.0 L 157.0 152.0 L 158.0 152.0 L 158.0 151.0 L 159.0 151.0 L 160.0 151.0 L 161.0 151.0 L 161.0 151.0 L 162.0 151.0 L 163.0 151.0 L 163.0 151.0 L 164.0 151.0 L 165.0 151.0 L 166.0 151.0 L 166.0 151.0 L 167.0 151.0 L 168.0 151.0 L 169.0 151.0 L 169.0 151.0 L 170.0 151.0 L 171.0 151.0 L 172.0 151.0 L 173.0 151.0 L 174.0 151.0 L 175.0 151.0 L 176.0 151.0 L 177.0 151.0 L 178.0 151.0 L 179.0 151.0 L 180.0 151.0 L 181.0 151.0 L 182.0 151.0 L 183.0 151.0 L 184.0 151.0 L 185.0 151.0 L 186.0 151.0 L 187.0 151.0 L 188.0 151.0 L 189.0 151.0 L 189.0 151.0 L 190.0 151.0 L 191.0 151.0 L 192.0 151.0 L 192.0 151.0 L 193.0 151.0 L 194.0 151.0 L 194.0 151.0 L 195.0 151.0 L 196.0 151.0 L 196.0 151.0 L 197.0 151.0 L 198.0 151.0 L 198.0 151.0 L 199.0 151.0 L 200.0 151.0 L 200.0 151.0 L 201.0 151.0 L 202.0 151.0 L 202.0 151.0 L 203.0 151.0 L 204.0 151.0 L 204.0 151.0 L 205.0 151.0 L 206.0 151.0 L 207.0 151.0 L 208.0 151.0 L 209.0 151.0 L 210.0 151.0 L 210.0 151.0 L 212.0 151.0 L 212.0 151.0 L 213.0 151.0 L 214.0 151.0 L 215.0 151.0 L 216.0 151.0 L 217.0 151.0 L 218.0 151.0 L 219.0 151.0 L 220.0 151.0 L 221.0 152.0 L 222.0 152.0 L 223.0 152.0 L 223.0 152.0 L 224.0 152.0 L 225.0 152.0 L 226.0 152.0 L 227.0 152.0 L 228.0 152.0 L 228.0 152.0 L 229.0 152.0 L 230.0 152.0 L 230.0 152.0 L 231.0 152.0 L 231.0 152.0 L 232.0 152.0 L 232.0 152.0 L 233.0 152.0 L 233.0 152.0 L 233.0 152.0 L 234.0 152.0 L 234.0 152.0 L 234.0 152.0 L 234.0 152.0 L 234.0 152.0 L 234.0 152.0 L 234.0 152.0 L 234.0 152.0 L 234.0 152.0 L 235.0 152.0 L 235.0 152.0 L 235.0 152.0 L 235.0 153.0 L 235.0 153.0 L 235.0 154.0 L 235.0 155.0 L 235.0 156.0 L 235.0 157.0 L 235.0 159.0 L 235.0 160.0 L 235.0 162.0 L 235.0 164.0 L 235.0 166.0 L 235.0 168.0 L 235.0 170.0 L 235.0 172.0 L 235.0 174.0 L 235.0 176.0 L 235.0 178.0 L 235.0 180.0 L 235.0 182.0 L 235.0 184.0 L 235.0 186.0 L 235.0 189.0 L 235.0 190.0 L 235.0 192.0 L 234.0 194.0 L 234.0 195.0 L 234.0 197.0 L 234.0 198.0 L 234.0 200.0 L 233.0 201.0 L 233.0 203.0 L 233.0 204.0 L 233.0 206.0 L 233.0 207.0 L 232.0 209.0 L 232.0 210.0 L 232.0 212.0 L 232.0 213.0 L 232.0 214.0 L 232.0 216.0 L 232.0 218.0 L 232.0 219.0 L 231.0 221.0 L 231.0 223.0 L 231.0 225.0 L 231.0 227.0 L 231.0 229.0 L 231.0 231.0 L 231.0 232.0 L 231.0 233.0 L 231.0 234.0 L 231.0 236.0 L 231.0 237.0 L 231.0 238.0 L 231.0 239.0 L 230.0 240.0 L 230.0 241.0 L 230.0 243.0 L 230.0 243.0 L 230.0 244.0 L 230.0 245.0 L 230.0 246.0 L 230.0 246.0 L 229.0 247.0 L 229.0 247.0 L 229.0 247.0 L 229.0 247.0 L 229.0 247.0 L 229.0 248.0 L 229.0 248.0 L 229.0 248.0 L 229.0 249.0 L 229.0 249.0 L 229.0 249.0 L 228.0 249.0 L 228.0 249.0 L 228.0 250.0 L 228.0 250.0 L 228.0 250.0 L 228.0 250.0 L 227.0 250.0 L 227.0 250.0 L 227.0 250.0 L 226.0 250.0 L 226.0 250.0 L 225.0 249.0 L 225.0 249.0 L 224.0 249.0 L 223.0 248.0 L 222.0 248.0 L 221.0 248.0 L 220.0 248.0 L 218.0 248.0 L 216.0 248.0 L 213.0 248.0 L 210.0 248.0 L 208.0 248.0 L 205.0 248.0 L 202.0 248.0 " stroke="black" fill="none" stroke-width="5.0" stroke-linecap="round" stroke-linejoin="round" />
<path d="M 137.0 176.0 L 137.0 176.0 L 137.0 176.0 L 137.0 176.0 L 137.0 176.0 L 137.0 176.0 L 136.0 176.0 L 136.0 176.0 L 136.0 176.0 L 136.0 176.0 L 136.0 176.0 L 136.0 176.0 L 136.0 176.0 L 136.0 176.0 L 136.0 176.0 L 137.0 176.0 L 137.0 176.0 L 138.0 176.0 L 139.0 176.0 L 140.0 176.0 L 140.0 176.0 L 141.0 176.0 L 142.0 176.0 L 142.0 176.0 L 143.0 176.0 L 143.0 176.0 L 144.0 176.0 L 144.0 176.0 L 144.0 177.0 L 145.0 177.0 L 145.0 178.0 L 145.0 179.0 L 146.0 181.0 L 146.0 182.0 L 146.0 184.0 L 147.0 187.0 L 147.0 189.0 L 147.0 192.0 L 148.0 194.0 L 148.0 197.0 L 149.0 200.0 L 149.0 203.0 L 150.0 205.0 L 150.0 208.0 L 151.0 210.0 L 151.0 212.0 L 152.0 214.0 L 152.0 216.0 L 153.0 217.0 L 153.0 218.0 L 153.0 218.0 L 153.0 218.0 L 153.0 218.0 L 153.0 218.0 " stroke="black" fill="none" stroke-width="5.0" stroke-linecap="round" stroke-linejoin="round" />
<path d="M 146.0 192.0 L 146.0 192.0 L 146.0 192.0 L 146.0 191.0 L 146.0 190.0 L 146.0 190.0 L 146.0 190.0 L 146.0 190.0 L 146.0 190.0 L 146.0 191.0 L 145.0 192.0 L 145.0 194.0 L 144.0 196.0 L 143.0 199.0 L 142.0 203.0 L 140.0 206.0 L 138.0 211.0 L 136.0 216.0 L 134.0 221.0 L 132.0 226.0 L 131.0 229.0 L 131.0 230.0 " stroke="black" fill="none" stroke-width="5.0" stroke-linecap="round" stroke-linejoin="round" />
<path d="M 191.0 173.0 L 191.0 173.0 L 191.0 174.0 L 191.0 174.0 L 190.0 175.0 L 189.0 175.0 L 189.0 176.0 L 189.0 176.0 L 189.0 176.0 L 189.0 176.0 L 189.0 176.0 L 189.0 175.0 L 189.0 175.0 L 190.0 174.0 L 191.0 173.0 L 192.0 173.0 L 193.0 172.0 L 194.0 172.0 L 195.0 172.0 L 196.0 172.0 L 197.0 172.0 L 197.0 172.0 L 198.0 172.0 L 199.0 172.0 L 199.0 172.0 L 200.0 172.0 L 201.0 173.0 L 201.0 175.0 L 202.0 176.0 L 202.0 179.0 L 203.0 182.0 L 204.0 185.0 L 205.0 189.0 L 206.0 192.0 L 208.0 196.0 L 209.0 199.0 L 211.0 202.0 L 212.0 205.0 L 214.0 208.0 L 215.0 211.0 L 215.0 214.0 L 216.0 217.0 L 216.0 220.0 L 217.0 222.0 L 217.0 223.0 L 218.0 225.0 L 218.0 225.0 L 218.0 225.0 L 219.0 225.0 L 219.0 223.0 L 219.0 220.0 " stroke="black" fill="none" stroke-width="5.0" stroke-linecap="round" stroke-linejoin="round" />
<path d="M 200.0 188.0 L 200.0 188.0 L 200.0 188.0 L 201.0 188.0 L 201.0 188.0 L 201.0 189.0 L 201.0 189.0 L 201.0 191.0 L 201.0 192.0 L 201.0 194.0 L 199.0 198.0 L 198.0 201.0 L 197.0 206.0 L 195.0 211.0 L 194.0 215.0 L 193.0 219.0 L 193.0 221.0 " stroke="black" fill="none" stroke-width="5.0" stroke-linecap="round" stroke-linejoin="round" />
<path d="M 172.0 132.0 L 172.0 132.0 L 172.0 132.0 L 172.0 132.0 L 172.0 132.0 L 173.0 132.0 L 173.0 132.0 L 173.0 132.0 L 173.0 133.0 L 173.0 135.0 L 173.0 138.0 L 173.0 141.0 L 173.0 145.0 L 173.0 151.0 L 173.0 157.0 L 173.0 163.0 L 172.0 170.0 L 172.0 178.0 L 172.0 187.0 L 172.0 195.0 L 172.0 203.0 L 172.0 210.0 L 172.0 216.0 L 172.0 223.0 L 173.0 229.0 L 173.0 235.0 L 174.0 240.0 L 174.0 244.0 L 174.0 246.0 L 175.0 248.0 L 175.0 249.0 L 175.0 249.0 L 175.0 249.0 L 175.0 248.0 " stroke="black" fill="none" stroke-width="5.0" stroke-linecap="round" stroke-linejoin="round" />
</svg>