<svg xmlns="http://www.w3.org/2000/svg" width="300" height="300" viewBox="0 0 300 300">
<path d="M 75.0 76.0 L 75.0 76.0 L 74.0 76.0 L 73.0 76.0 L 73.0 76.0 L 72.0 76.0 L 72.0 76.0 L 72.0 76.0 L 72.0 76.0 L 72.0 76.0 L 73.0 77.0 L 75.0 78.0 L 77.0 79.0 L 80.0 80.0 L 84.0 81.0 L 87.0 83.0 L 91.0 84.0 L 95.0 86.0 L 99.0 88.0 L 103.0 90.0 " stroke="black" fill="none" stroke-width="5.0" stroke-linecap="round" stroke-linejoin="round" />
<path d="M 65.0 133.0 L 65.0 133.0 L 65.0 133.0 L 65.0 133.0 L 65.0 133.0 L 65.0 133.0 L 65.0 133.0 L 65.0 134.0 L 66.0 134.0 L 68.0 135.0 L 71.0 137.0 L 75.0 139.0 L 80.0 141.0 L 86.0 143.0 L 91.0 145.0 L 96.0 147.0 " stroke="black" fill="none" stroke-width="5.0" stroke-linecap="round" stroke-linejoin="round" />
<path d="M 69.0 248.0 L 69.0 248.0 L 69.0 248.0 L 69.0 248.0 L 69.0 248.0 L 69.0 248.0 L 69.0 247.0 L 69.0 246.0 L 69.0 243.0 L 71.0 237.0 L 73.0 230.0 L 77.0 221.0 L 82.0 210.0 L 89.0 200.0 L 95.0 190.0 L 102.0 178.0 L 104.0 173.0 " stroke="black" fill="none" stroke-width="5.0" stroke-linecap="round" stroke-linejoin="round" />
<path d="M 130.0 77.0 L 130.0 77.0 L 130.0 77.0 L 130.0 77.0 L 130.0 78.0 L 130.0 78.0 L 130.0 78.0 L 130.0 79.0 L 130.0 80.0 L 130.0 80.0 L 130.0 82.0 L 130.0 83.0 L 130.0 85.0 L 130.0 87.0 L 130.0 90.0 L 130.0 93.0 L 129.0 96.0 L 129.0 100.0 L 128.0 103.0 L 127.0 107.0 L 126.0 110.0 L 125.0 113.0 L 124.0 115.0 L 124.0 117.0 L 123.0 118.0 L 123.0 118.0 L 123.0 119.0 L 123.0 119.0 L 123.0 119.0 L 123.0 119.0 L 123.0 119.0 L 123.0 119.0 L 124.0 119.0 L 124.0 119.0 L 124.0 119.0 L 124.0 119.0 L 124.0 119.0 L 125.0 119.0 L 125.0 119.0 L 125.0 119.0 L 125.0 119.0 L 125.0 119.0 L 126.0 119.0 L 126.0 119.0 L 126.0 119.0 L 127.0 119.0 L 127.0 119.0 L 128.0 119.0 L 128.0 120.0 L 129.0 120.0 L 129.0 120.0 L 130.0 120.0 L 131.0 120.0 L 132.0 120.0 L 133.0 120.0 L 134.0 120.0 L 135.0 120.0 L 137.0 120.0 L 138.0 120.0 L 139.0 120.0 L 141.0 120.0 L 142.0 120.0 L 143.0 120.0 L 145.0 120.0 L 146.0 120.0 L 147.0 120.0 L 148.0 120.0 L 150.0 120.0 L 151.0 120.0 L 152.0 120.0 L 153.0 119.0 L 155.0 119.0 L 156.0 119.0 L 157.0 119.0 L 158.0 119.0 L 160.0 119.0 L 161.0 119.0 L 162.0 119.0 L 164.0 119.0 L 166.0 119.0 L 167.0 119.0 L 169.0 119.0 L 170.0 119.0 L 172.0 119.0 L 174.0 119.0 L 175.0 119.0 L 177.0 119.0 L 178.0 119.0 L 180.0 119.0 L 181.0 119.0 L 183.0 119.0 L 184.0 119.0 L 185.0 119.0 L 187.0 119.0 L 188.0 119.0 L 190.0 119.0 L 191.0 119.0 L 192.0 119.0 L 193.0 119.0 L 194.0 119.0 L 195.0 119.0 L 196.0 119.0 L 198.0 119.0 L 199.0 118.0 L 200.0 118.0 L 202.0 118.0 L 203.0 118.0 L 205.0 118.0 L 207.0 118.0 L 208.0 118.0 L 210.0 117.0 L 212.0 117.0 L 214.0 117.0 L 215.0 117.0 L 218.0 117.0 L 219.0 117.0 L 221.0 117.0 L 222.0 117.0 L 223.0 116.0 L 224.0 116.0 L 225.0 116.0 L 225.0 116.0 " stroke="black" fill="none" stroke-width="5.0" stroke-linecap="round" stroke-linejoin="round" />
<path d="M 176.0 65.0 L 176.0 66.0 L 176.0 66.0 L 176.0 68.0 L 176.0 69.0 L 176.0 72.0 L 176.0 75.0 L 176.0 79.0 L 176.0 84.0 L 176.0 89.0 L 176.0 95.0 L 176.0 100.0 L 176.0 105.0 L 177.0 109.0 " stroke="black" fill="none" stroke-width="5.0" stroke-linecap="round" stroke-linejoin="round" />
<path d="M 230.0 78.0 L 230.0 78.0 L 230.0 79.0 L 230.0 79.0 L 230.0 80.0 L 230.0 81.0 L 230.0 83.0 L 230.0 85.0 L 230.0 88.0 L 230.0 92.0 L 230.0 97.0 L 230.0 102.0 L 231.0 107.0 L 231.0 113.0 L 231.0 117.0 L 231.0 120.0 L 231.0 123.0 L 231.0 124.0 " stroke="black" fill="none" stroke-width="5.0" stroke-linecap="round" stroke-linejoin="round" />
<path d="M 114.0 149.0 L 114.0 149.0 L 114.0 149.0 L 114.0 149.0 L 114.0 149.0 L 114.0 149.0 L 114.0 149.0 L 114.0 149.0 L 114.0 149.0 L 114.0 149.0 L 114.0 149.0 L 114.0 149.0 L 114.0 149.0 L 114.0 149.0 L 114.0 149.0 L 115.0 149.0 L 115.0 149.0 L 116.0 149.0 L 117.0 149.0 L 118.0 149.0 L 120.0 149.0 L 121.0 149.0 L 123.0 149.0 L 125.0 149.0 L 127.0 149.0 L 129.0 149.0 L 131.0 149.0 L 133.0 149.0 L 135.0 149.0 L 137.0 149.0 L 139.0 149.0 L 140.0 149.0 L 142.0 149.0 L 143.0 149.0 L 144.0 149.0 L 146.0 149.0 L 147.0 149.0 L 148.0 149.0 L 149.0 149.0 L 149.0 149.0 L 150.0 149.0 L 151.0 149.0 L 152.0 149.0 L 152.0 149.0 L 153.0 149.0 L 154.0 149.0 L 155.0 149.0 L 156.0 149.0 L 157.0 149.0 L 158.0 149.0 L 159.0 149.0 L 160.0 149.0 L 162.0 149.0 L 163.0 149.0 L 165.0 149.0 L 166.0 149.0 L 168.0 149.0 L 170.0 149.0 L 171.0 149.0 L 174.0 149.0 L 176.0 149.0 L 178.0 149.0 L 180.0 148.0 L 182.0 148.0 L 184.0 148.0 L 185.0 148.0 L 187.0 148.0 L 188.0 148.0 L 190.0 148.0 L 191.0 148.0 L 192.0 148.0 L 193.0 148.0 L 193.0 148.0 L 194.0 148.0 L 195.0 148.0 L 196.0 148.0 L 196.0 148.0 L 197.0 148.0 L 197.0 148.0 L 198.0 148.0 L 199.0 148.0 L 200.0 148.0 L 201.0 148.0 L 202.0 148.0 L 203.0 148.0 L 204.0 148.0 L 205.0 148.0 L 206.0 148.0 L 207.0 148.0 L 209.0 149.0 L 210.0 149.0 L 211.0 149.0 L 213.0 149.0 L 214.0 149.0 L 215.0 149.0 L 217.0 149.0 L 218.0 149.0 L 219.0 150.0 L 220.0 150.0 L 221.0 150.0 L 223.0 150.0 L 224.0 150.0 L 225.0 150.0 L 226.0 150.0 L 228.0 150.0 L 229.0 150.0 L 230.0 150.0 L 231.0 150.0 L 231.0 150.0 " stroke="black" fill="none" stroke-width="5.0" stroke-linecap="round" stroke-linejoin="round" />
<path d="M 179.0 152.0 L 179.0 152.0 L 179.0 152.0 L 179.0 152.0 L 179.0 152.0 L 179.0 152.0 L 179.0 152.0 L 179.0 153.0 L 178.0 154.0 L 177.0 156.0 L 175.0 158.0 L 173.0 161.0 L 171.0 164.0 L 169.0 167.0 L 168.0 169.0 " stroke="black" fill="none" stroke-width="5.0" stroke-linecap="round" stroke-linejoin="round" />
<path d="M 118.0 185.0 L 118.0 185.0 L 118.0 186.0 L 118.0 186.0 L 118.0 187.0 L 118.0 188.0 L 118.0 190.0 L 118.0 192.0 L 119.0 195.0 L 119.0 199.0 L 119.0 204.0 L 120.0 210.0 L 120.0 218.0 L 120.0 226.0 L 120.0 232.0 L 120.0 237.0 L 120.0 241.0 L 120.0 243.0 L 120.0 244.0 L 120.0 244.0 " stroke="black" fill="none" stroke-width="5.0" stroke-linecap="round" stroke-linejoin="round" />
<path d="M 123.0 181.0 L 123.0 181.0 L 122.0 181.0 L 122.0 181.0 L 121.0 181.0 L 121.0 181.0 L 120.0 181.0 L 120.0 181.0 L 120.0 181.0 L 120.0 181.0 L 120.0 181.0 L 120.0 181.0 L 120.0 181.0 L 120.0 181.0 L 120.0 182.0 L 121.0 182.0 L 121.0 182.0 L 122.0 182.0 L 122.0 182.0 L 123.0 182.0 L 123.0 182.0 L 124.0 182.0 L 124.0 183.0 L 125.0 183.0 L 126.0 183.0 L 127.0 183.0 L 128.0 183.0 L 129.0 183.0 L 131.0 183.0 L 132.0 183.0 L 133.0 183.0 L 135.0 183.0 L 136.0 183.0 L 137.0 183.0 L 138.0 183.0 L 139.0 183.0 L 140.0 183.0 L 141.0 183.0 L 142.0 183.0 L 143.0 183.0 L 144.0 182.0 L 145.0 182.0 L 146.0 182.0 L 146.0 182.0 L 147.0 182.0 L 148.0 182.0 L 148.0 182.0 L 149.0 182.0 L 150.0 182.0 L 150.0 182.0 L 151.0 182.0 L 152.0 182.0 L 152.0 182.0 L 153.0 182.0 L 154.0 182.0 L 154.0 182.0 L 155.0 182.0 L 156.0 182.0 L 157.0 182.0 L 157.0 182.0 L 158.0 182.0 L 159.0 182.0 L 160.0 182.0 L 162.0 182.0 L 163.0 182.0 L 164.0 182.0 L 165.0 182.0 L 166.0 182.0 L 168.0 182.0 L 169.0 182.0 L 171.0 181.0 L 172.0 181.0 L 174.0 181.0 L 175.0 181.0 L 177.0 181.0 L 178.0 181.0 L 179.0 181.0 L 180.0 181.0 L 182.0 180.0 L 183.0 180.0 L 184.0 180.0 L 185.0 180.0 L 186.0 180.0 L 187.0 180.0 L 188.0 180.0 L 189.0 180.0 L 190.0 180.0 L 191.0 179.0 L 191.0 179.0 L 192.0 179.0 L 193.0 179.0 L 194.0 179.0 L 195.0 179.0 L 196.0 179.0 L 196.0 179.0 L 197.0 179.0 L 198.0 179.0 L 199.0 179.0 L 200.0 179.0 L 202.0 179.0 L 203.0 179.0 L 204.0 179.0 L 205.0 179.0 L 207.0 179.0 L 208.0 179.0 L 210.0 178.0 L 211.0 178.0 L 213.0 178.0 L 214.0 178.0 L 216.0 178.0 L 218.0 178.0 L 219.0 178.0 L 221.0 178.0 L 222.0 178.0 L 223.0 178.0 L 225.0 178.0 L 226.0 178.0 L 227.0 178.0 L 227.0 178.0 L 228.0 178.0 L 229.0 178.0 L 229.0 178.0 L 229.0 178.0 L 230.0 178.0 L 230.0 178.0 L 230.0 179.0 L 230.0 179.0 L 230.0 179.0 L 230.0 180.0 L 230.0 180.0 L 230.0 180.0 L 230.0 181.0 L 230.0 182.0 L 230.0 183.0 L 230.0 184.0 L 230.0 185.0 L 230.0 186.0 L 230.0 188.0 L 230.0 189.0 L 230.0 191.0 L 230.0 192.0 L 230.0 194.0 L 230.0 196.0 L 229.0 198.0 L 229.0 201.0 L 229.0 203.0 L 229.0 205.0 L 229.0 207.0 L 229.0 209.0 L 229.0 211.0 L 229.0 214.0 L 229.0 216.0 L 229.0 218.0 L 229.0 220.0 L 229.0 222.0 L 228.0 224.0 L 228.0 227.0 L 228.0 229.0 L 227.0 231.0 L 227.0 233.0 L 227.0 235.0 L 227.0 236.0 L 227.0 238.0 L 227.0 239.0 L 226.0 240.0 L 226.0 241.0 L 226.0 243.0 L 226.0 244.0 L 226.0 245.0 L 225.0 246.0 L 225.0 247.0 L 225.0 249.0 L 225.0 250.0 L 224.0 251.0 L 224.0 252.0 L 224.0 253.0 L 223.0 253.0 L 223.0 254.0 L 223.0 255.0 L 223.0 255.0 L 222.0 256.0 L 222.0 256.0 L 222.0 256.0 L 221.0 257.0 L 221.0 257.0 L 221.0 257.0 L 221.0 257.0 L 220.0 257.0 L 220.0 257.0 L 219.0 257.0 L 218.0 256.0 L 217.0 256.0 L 216.0 255.0 L 213.0 253.0 L 211.0 252.0 L 208.0 250.0 L 205.0 248.0 L 204.0 247.0 " stroke="black" fill="none" stroke-width="5.0" stroke-linecap="round" stroke-linejoin="round" />
<path d="M 155.0 188.0 L 155.0 188.0 L 155.0 188.0 L 155.0 188.0 L 155.0 189.0 L 155.0 189.0 L 155.0 190.0 L 155.0 191.0 L 155.0 194.0 L 155.0 198.0 L 156.0 204.0 L 156.0 212.0 L 157.0 223.0 L 157.0 233.0 L 157.0 242.0 L 157.0 249.0 L 157.0 252.0 L 157.0 254.0 L 158.0 254.0 L 158.0 254.0 " stroke="black" fill="none" stroke-width="5.0" stroke-linecap="round" stroke-linejoin="round" />
<path d="M 191.0 186.0 L 191.0 186.0 L 191.0 186.0 L 190.0 186.0 L 190.0 186.0 L 190.0 187.0 L 190.0 187.0 L 190.0 188.0 L 190.0 190.0 L 190.0 192.0 L 190.0 196.0 L 190.0 200.0 L 191.0 205.0 L 191.0 213.0 L 191.0 221.0 L 191.0 229.0 L 191.0 238.0 L 191.0 244.0 L 191.0 248.0 L 191.0 250.0 L 191.0 251.0 L 191.0 251.0 L 191.0 250.0 L 191.0 248.0 " stroke="black" fill="none" stroke-width="5.0" stroke-linecap="round" stroke-linejoin="round" />
</svg>