<svg xmlns="http://www.w3.org/2000/svg" width="300" height="300" viewBox="0 0 300 300">
<path d="M 78.0 77.0 L 78.0 77.0 L 76.0 77.0 L 75.0 78.0 L 74.0 79.0 L 74.0 80.0 L 74.0 81.0 L 76.0 82.0 L 79.0 84.0 L 83.0 86.0 L 88.0 88.0 L 93.0 89.0 L 98.0 91.0 L 103.0 92.0 L 106.0 92.0 L 109.0 93.0 L 112.0 95.0 " stroke="black" fill="none" stroke-width="5.0" stroke-linecap="round" stroke-linejoin="round" />
<path d="M 69.0 133.0 L 69.0 133.0 L 69.0 133.0 L 68.0 133.0 L 68.0 133.0 L 68.0 134.0 L 68.0 135.0 L 69.0 136.0 L 71.0 138.0 L 74.0 140.0 L 77.0 143.0 L 82.0 146.0 L 86.0 149.0 L 91.0 152.0 L 95.0 154.0 L 98.0 156.0 " stroke="black" fill="none" stroke-width="5.0" stroke-linecap="round" stroke-linejoin="round" />
<path d="M 74.0 245.0 L 74.0 244.0 L 74.0 243.0 L 74.0 242.0 L 74.0 240.0 L 74.0 236.0 L 77.0 231.0 L 81.0 224.0 L 87.0 214.0 L 94.0 204.0 L 101.0 191.0 L 105.0 184.0 " stroke="black" fill="none" stroke-width="5.0" stroke-linecap="round" stroke-linejoin="round" />
<path d="M 140.0 89.0 L 140.0 89.0 L 140.0 88.0 L 141.0 86.0 L 141.0 85.0 L 141.0 85.0 L 141.0 85.0 L 141.0 85.0 L 141.0 86.0 L 141.0 89.0 L 141.0 93.0 L 141.0 98.0 L 141.0 104.0 L 141.0 109.0 L 141.0 115.0 L 140.0 120.0 L 140.0 123.0 L 140.0 125.0 L 140.0 126.0 L 140.0 126.0 " stroke="black" fill="none" stroke-width="5.0" stroke-linecap="round" stroke-linejoin="round" />
<path d="M 146.0 80.0 L 146.0 80.0 L 145.0 80.0 L 144.0 81.0 L 143.0 81.0 L 143.0 81.0 L 143.0 81.0 L 143.0 81.0 L 143.0 81.0 L 143.0 81.0 L 143.0 81.0 L 144.0 81.0 L 144.0 81.0 L 145.0 81.0 L 146.0 81.0 L 146.0 81.0 L 147.0 81.0 L 148.0 81.0 L 148.0 81.0 L 149.0 81.0 L 150.0 81.0 L 151.0 81.0 L 152.0 81.0 L 153.0 80.0 L 153.0 80.0 L 154.0 80.0 L 155.0 80.0 L 156.0 80.0 L 157.0 80.0 L 158.0 80.0 L 159.0 80.0 L 160.0 80.0 L 161.0 80.0 L 162.0 80.0 L 163.0 80.0 L 164.0 80.0 L 164.0 80.0 L 165.0 80.0 L 166.0 80.0 L 167.0 80.0 L 168.0 80.0 L 169.0 80.0 L 170.0 80.0 L 171.0 80.0 L 172.0 80.0 L 173.0 80.0 L 174.0 80.0 L 175.0 80.0 L 176.0 80.0 L 177.0 80.0 L 178.0 80.0 L 178.0 80.0 L 179.0 80.0 L 180.0 80.0 L 181.0 80.0 L 182.0 80.0 L 182.0 80.0 L 184.0 80.0 L 184.0 80.0 L 185.0 80.0 L 186.0 81.0 L 187.0 81.0 L 188.0 81.0 L 189.0 81.0 L 189.0 81.0 L 190.0 81.0 L 191.0 81.0 L 192.0 82.0 L 193.0 82.0 L 193.0 82.0 L 194.0 82.0 L 195.0 82.0 L 196.0 82.0 L 196.0 82.0 L 197.0 82.0 L 198.0 83.0 L 199.0 83.0 L 200.0 83.0 L 201.0 83.0 L 202.0 83.0 L 203.0 83.0 L 204.0 83.0 L 205.0 83.0 L 206.0 83.0 L 207.0 83.0 L 208.0 83.0 L 209.0 83.0 L 210.0 83.0 L 211.0 83.0 L 212.0 83.0 L 213.0 84.0 L 214.0 84.0 L 214.0 84.0 L 215.0 84.0 L 216.0 84.0 L 216.0 85.0 L 217.0 85.0 L 217.0 85.0 L 217.0 86.0 L 218.0 87.0 L 218.0 88.0 L 218.0 89.0 L 218.0 90.0 L 218.0 91.0 L 218.0 93.0 L 218.0 95.0 L 218.0 98.0 L 217.0 101.0 L 217.0 105.0 L 216.0 108.0 L 216.0 112.0 L 215.0 116.0 L 215.0 120.0 L 214.0 123.0 L 214.0 127.0 L 214.0 129.0 L 214.0 131.0 L 214.0 132.0 L 214.0 132.0 L 214.0 132.0 L 214.0 132.0 L 213.0 130.0 " stroke="black" fill="none" stroke-width="5.0" stroke-linecap="round" stroke-linejoin="round" />
<path d="M 183.0 108.0 L 182.0 108.0 L 181.0 109.0 L 180.0 109.0 L 179.0 110.0 L 179.0 110.0 L 179.0 110.0 L 179.0 111.0 L 180.0 111.0 L 182.0 111.0 L 184.0 111.0 L 186.0 111.0 L 189.0 110.0 L 192.0 109.0 L 194.0 109.0 L 196.0 108.0 L 198.0 108.0 L 200.0 107.0 L 201.0 107.0 L 202.0 107.0 L 202.0 108.0 L 202.0 108.0 " stroke="black" fill="none" stroke-width="5.0" stroke-linecap="round" stroke-linejoin="round" />
<path d="M 179.0 110.0 L 179.0 110.0 L 178.0 110.0 L 177.0 111.0 L 176.0 112.0 L 175.0 112.0 L 174.0 113.0 L 174.0 114.0 L 174.0 116.0 L 174.0 118.0 L 174.0 120.0 L 174.0 123.0 L 174.0 126.0 L 174.0 128.0 L 174.0 130.0 " stroke="black" fill="none" stroke-width="5.0" stroke-linecap="round" stroke-linejoin="round" />
<path d="M 119.0 134.0 L 119.0 134.0 L 118.0 134.0 L 117.0 134.0 L 117.0 135.0 L 116.0 135.0 L 116.0 136.0 L 116.0 138.0 L 115.0 141.0 L 115.0 144.0 L 115.0 148.0 L 115.0 152.0 L 115.0 156.0 L 116.0 158.0 L 116.0 160.0 L 117.0 161.0 L 118.0 161.0 " stroke="black" fill="none" stroke-width="5.0" stroke-linecap="round" stroke-linejoin="round" />
<path d="M 126.0 132.0 L 126.0 132.0 L 125.0 132.0 L 124.0 132.0 L 124.0 132.0 L 124.0 132.0 L 123.0 132.0 L 123.0 132.0 L 123.0 132.0 L 124.0 132.0 L 124.0 132.0 L 125.0 132.0 L 126.0 132.0 L 127.0 132.0 L 128.0 132.0 L 129.0 131.0 L 130.0 131.0 L 131.0 131.0 L 133.0 131.0 L 134.0 131.0 L 135.0 131.0 L 137.0 131.0 L 139.0 131.0 L 140.0 131.0 L 142.0 131.0 L 143.0 131.0 L 144.0 131.0 L 146.0 131.0 L 147.0 130.0 L 148.0 130.0 L 149.0 130.0 L 150.0 130.0 L 151.0 130.0 L 152.0 130.0 L 153.0 130.0 L 154.0 130.0 L 155.0 129.0 L 156.0 129.0 L 157.0 129.0 L 158.0 129.0 L 158.0 129.0 L 159.0 129.0 L 160.0 129.0 L 161.0 129.0 L 162.0 129.0 L 163.0 129.0 L 164.0 129.0 L 166.0 129.0 L 167.0 129.0 L 168.0 129.0 L 169.0 129.0 L 171.0 129.0 L 172.0 129.0 L 173.0 129.0 L 174.0 129.0 L 175.0 129.0 L 177.0 129.0 L 178.0 129.0 L 179.0 129.0 L 181.0 129.0 L 182.0 129.0 L 184.0 129.0 L 185.0 129.0 L 186.0 129.0 L 187.0 129.0 L 189.0 129.0 L 190.0 129.0 L 191.0 129.0 L 192.0 129.0 L 193.0 129.0 L 194.0 129.0 L 195.0 129.0 L 196.0 129.0 L 197.0 129.0 L 198.0 129.0 L 199.0 129.0 L 200.0 129.0 L 200.0 129.0 L 201.0 129.0 L 202.0 129.0 L 203.0 129.0 L 204.0 129.0 L 205.0 129.0 L 205.0 129.0 L 206.0 130.0 L 207.0 130.0 L 208.0 130.0 L 209.0 130.0 L 209.0 130.0 L 210.0 130.0 L 211.0 131.0 L 212.0 131.0 L 213.0 131.0 L 214.0 131.0 L 215.0 131.0 L 216.0 131.0 L 217.0 131.0 L 219.0 131.0 L 220.0 131.0 L 221.0 132.0 L 222.0 132.0 L 223.0 132.0 L 224.0 132.0 L 225.0 133.0 L 226.0 133.0 L 227.0 133.0 L 228.0 133.0 L 229.0 133.0 L 230.0 134.0 L 231.0 134.0 L 232.0 134.0 L 233.0 134.0 L 233.0 134.0 L 234.0 135.0 L 234.0 135.0 L 235.0 135.0 L 235.0 135.0 L 235.0 136.0 L 236.0 136.0 L 236.0 136.0 L 237.0 136.0 L 237.0 136.0 L 237.0 136.0 L 238.0 136.0 L 238.0 137.0 L 238.0 137.0 L 238.0 137.0 L 239.0 138.0 L 239.0 138.0 L 239.0 139.0 L 239.0 140.0 L 239.0 141.0 L 239.0 142.0 L 239.0 143.0 L 239.0 145.0 L 239.0 147.0 L 238.0 149.0 L 238.0 152.0 L 237.0 154.0 L 237.0 156.0 L 237.0 158.0 L 236.0 160.0 L 236.0 161.0 " stroke="black" fill="none" stroke-width="5.0" stroke-linecap="round" stroke-linejoin="round" />
<path d="M 133.0 163.0 L 133.0 163.0 L 133.0 163.0 L 133.0 163.0 L 134.0 163.0 L 134.0 163.0 L 135.0 163.0 L 135.0 163.0 L 135.0 163.0 L 136.0 163.0 L 136.0 164.0 L 136.0 165.0 L 137.0 166.0 L 137.0 168.0 L 137.0 169.0 L 137.0 171.0 L 138.0 174.0 L 138.0 176.0 L 138.0 179.0 L 139.0 182.0 L 139.0 186.0 L 139.0 189.0 L 139.0 192.0 L 139.0 195.0 L 139.0 198.0 L 139.0 200.0 L 138.0 203.0 L 138.0 205.0 L 137.0 208.0 L 137.0 210.0 L 136.0 213.0 L 136.0 215.0 L 135.0 218.0 L 135.0 221.0 L 134.0 225.0 L 133.0 228.0 L 132.0 231.0 L 131.0 234.0 L 130.0 237.0 L 128.0 239.0 L 126.0 242.0 L 125.0 244.0 L 123.0 246.0 L 121.0 247.0 L 120.0 248.0 L 119.0 248.0 L 118.0 248.0 " stroke="black" fill="none" stroke-width="5.0" stroke-linecap="round" stroke-linejoin="round" />
<path d="M 144.0 165.0 L 144.0 165.0 L 144.0 165.0 L 143.0 165.0 L 143.0 165.0 L 142.0 165.0 L 142.0 165.0 L 141.0 165.0 L 141.0 165.0 L 141.0 165.0 L 141.0 165.0 L 141.0 165.0 L 141.0 165.0 L 141.0 166.0 L 141.0 166.0 L 141.0 166.0 L 141.0 167.0 L 142.0 167.0 L 143.0 167.0 L 144.0 167.0 L 145.0 167.0 L 146.0 167.0 L 148.0 167.0 L 149.0 167.0 L 150.0 167.0 L 151.0 168.0 L 152.0 168.0 L 153.0 168.0 L 154.0 168.0 L 155.0 168.0 L 157.0 168.0 L 158.0 168.0 L 160.0 168.0 L 162.0 168.0 L 164.0 168.0 L 166.0 168.0 L 168.0 167.0 L 169.0 167.0 L 171.0 167.0 L 172.0 166.0 L 173.0 166.0 L 175.0 166.0 L 176.0 166.0 L 177.0 166.0 L 179.0 166.0 L 180.0 166.0 L 181.0 166.0 L 182.0 166.0 L 183.0 166.0 L 184.0 166.0 L 185.0 166.0 L 186.0 166.0 L 187.0 166.0 L 188.0 166.0 L 188.0 166.0 L 189.0 166.0 L 190.0 166.0 L 190.0 166.0 L 191.0 167.0 L 192.0 167.0 L 192.0 167.0 L 193.0 167.0 L 194.0 167.0 L 194.0 167.0 L 195.0 167.0 L 196.0 167.0 L 197.0 168.0 L 197.0 168.0 L 198.0 168.0 L 200.0 168.0 L 201.0 168.0 L 202.0 168.0 L 203.0 168.0 L 205.0 168.0 L 207.0 168.0 L 208.0 168.0 L 210.0 168.0 L 212.0 168.0 L 213.0 168.0 L 215.0 168.0 L 216.0 168.0 L 218.0 169.0 L 219.0 169.0 L 220.0 169.0 L 221.0 169.0 L 221.0 169.0 L 222.0 170.0 L 222.0 170.0 L 223.0 170.0 L 223.0 171.0 L 223.0 171.0 L 223.0 172.0 L 223.0 172.0 L 223.0 173.0 L 223.0 174.0 L 223.0 175.0 L 223.0 177.0 L 223.0 178.0 L 223.0 181.0 L 222.0 183.0 L 222.0 186.0 L 221.0 189.0 L 221.0 192.0 L 220.0 195.0 L 220.0 198.0 L 220.0 201.0 L 219.0 204.0 L 219.0 207.0 L 219.0 209.0 L 219.0 213.0 L 218.0 216.0 L 218.0 219.0 L 218.0 222.0 L 218.0 225.0 L 217.0 228.0 L 217.0 230.0 L 217.0 232.0 L 216.0 234.0 L 216.0 236.0 L 216.0 237.0 L 216.0 238.0 L 215.0 240.0 L 215.0 241.0 L 214.0 242.0 L 214.0 243.0 L 214.0 245.0 L 213.0 246.0 L 212.0 247.0 L 212.0 248.0 L 211.0 250.0 L 211.0 251.0 L 210.0 252.0 L 210.0 253.0 L 210.0 254.0 L 209.0 254.0 L 209.0 255.0 L 209.0 255.0 L 208.0 255.0 L 207.0 255.0 L 207.0 255.0 L 206.0 255.0 L 205.0 255.0 L 203.0 254.0 L 201.0 253.0 L 199.0 252.0 L 197.0 250.0 L 194.0 247.0 L 192.0 244.0 L 189.0 241.0 " stroke="black" fill="none" stroke-width="5.0" stroke-linecap="round" stroke-linejoin="round" />
<path d="M 155.0 189.0 L 155.0 189.0 L 155.0 188.0 L 154.0 187.0 L 154.0 187.0 L 154.0 186.0 L 154.0 185.0 L 154.0 185.0 L 154.0 184.0 L 154.0 184.0 L 154.0 184.0 L 154.0 184.0 L 156.0 185.0 L 158.0 186.0 L 160.0 188.0 L 164.0 190.0 L 169.0 191.0 L 175.0 192.0 L 182.0 193.0 L 188.0 193.0 L 192.0 193.0 L 196.0 193.0 L 199.0 193.0 L 200.0 193.0 L 201.0 194.0 L 201.0 195.0 " stroke="black" fill="none" stroke-width="5.0" stroke-linecap="round" stroke-linejoin="round" />
<path d="M 148.0 215.0 L 147.0 216.0 L 145.0 216.0 L 144.0 217.0 L 144.0 218.0 L 143.0 218.0 L 143.0 219.0 L 143.0 219.0 L 144.0 219.0 L 145.0 219.0 L 147.0 219.0 L 150.0 219.0 L 153.0 219.0 L 157.0 218.0 L 163.0 218.0 L 169.0 216.0 L 177.0 215.0 L 185.0 213.0 L 191.0 212.0 L 196.0 210.0 L 201.0 208.0 L 204.0 207.0 L 206.0 206.0 L 208.0 206.0 L 209.0 206.0 L 210.0 206.0 " stroke="black" fill="none" stroke-width="5.0" stroke-linecap="round" stroke-linejoin="round" />
</svg>