<svg xmlns="http://www.w3.org/2000/svg" width="300" height="300" viewBox="0 0 300 300">
<path d="M 78.0 80.0 L 77.0 80.0 L 75.0 79.0 L 74.0 79.0 L 73.0 78.0 L 73.0 78.0 L 73.0 78.0 L 73.0 78.0 L 74.0 78.0 L 76.0 78.0 L 78.0 80.0 L 81.0 82.0 L 84.0 84.0 L 87.0 87.0 L 91.0 89.0 L 94.0 92.0 L 97.0 95.0 L 100.0 98.0 L 103.0 101.0 " stroke="black" fill="none" stroke-width="5.0" stroke-linecap="round" stroke-linejoin="round" />
<path d="M 68.0 137.0 L 68.0 137.0 L 68.0 137.0 L 67.0 137.0 L 67.0 137.0 L 66.0 137.0 L 66.0 137.0 L 66.0 137.0 L 67.0 137.0 L 70.0 138.0 L 73.0 140.0 L 76.0 142.0 L 80.0 144.0 L 84.0 147.0 L 88.0 150.0 L 92.0 152.0 L 96.0 155.0 L 98.0 158.0 " stroke="black" fill="none" stroke-width="5.0" stroke-linecap="round" stroke-linejoin="round" />
<path d="M 73.0 245.0 L 73.0 244.0 L 72.0 243.0 L 71.0 242.0 L 70.0 241.0 L 70.0 239.0 L 70.0 236.0 L 70.0 232.0 L 72.0 227.0 L 75.0 220.0 L 80.0 211.0 L 87.0 202.0 L 94.0 191.0 L 102.0 178.0 L 108.0 167.0 L 110.0 161.0 " stroke="black" fill="none" stroke-width="5.0" stroke-linecap="round" stroke-linejoin="round" />
<path d="M 134.0 84.0 L 133.0 84.0 L 131.0 84.0 L 129.0 84.0 L 128.0 84.0 L 127.0 84.0 L 127.0 84.0 L 127.0 84.0 L 127.0 84.0 L 128.0 84.0 L 130.0 84.0 L 133.0 84.0 L 137.0 84.0 L 141.0 85.0 L 146.0 85.0 L 150.0 85.0 L 155.0 85.0 L 161.0 85.0 L 169.0 85.0 L 177.0 84.0 L 187.0 84.0 L 194.0 84.0 L 201.0 84.0 L 207.0 84.0 L 213.0 84.0 L 219.0 84.0 L 225.0 84.0 L 229.0 84.0 L 232.0 84.0 L 234.0 84.0 L 236.0 83.0 L 237.0 83.0 " stroke="black" fill="none" stroke-width="5.0" stroke-linecap="round" stroke-linejoin="round" />
<path d="M 126.0 86.0 L 126.0 86.0 L 126.0 86.0 L 126.0 86.0 L 126.0 86.0 L 126.0 86.0 L 126.0 86.0 L 126.0 86.0 L 126.0 86.0 L 126.0 87.0 L 126.0 88.0 L 126.0 90.0 L 127.0 93.0 L 128.0 96.0 L 129.0 98.0 L 129.0 102.0 L 130.0 105.0 L 130.0 108.0 L 130.0 111.0 L 130.0 113.0 L 130.0 116.0 L 130.0 119.0 L 130.0 122.0 L 130.0 125.0 L 130.0 128.0 L 130.0 130.0 L 130.0 133.0 L 130.0 136.0 L 130.0 139.0 L 130.0 142.0 L 130.0 146.0 L 130.0 149.0 L 130.0 152.0 L 130.0 155.0 L 130.0 158.0 L 130.0 160.0 L 130.0 163.0 L 130.0 166.0 L 130.0 168.0 L 130.0 171.0 L 130.0 174.0 L 130.0 176.0 L 129.0 180.0 L 128.0 182.0 L 128.0 185.0 L 127.0 188.0 L 127.0 190.0 L 126.0 192.0 L 126.0 195.0 L 125.0 197.0 L 124.0 200.0 L 123.0 202.0 L 122.0 205.0 L 121.0 208.0 L 120.0 211.0 L 118.0 214.0 L 117.0 217.0 L 116.0 220.0 L 114.0 223.0 L 112.0 227.0 L 111.0 231.0 L 109.0 235.0 L 107.0 239.0 L 106.0 242.0 L 104.0 245.0 L 103.0 246.0 L 102.0 247.0 L 102.0 247.0 L 102.0 247.0 " stroke="black" fill="none" stroke-width="5.0" stroke-linecap="round" stroke-linejoin="round" />
<path d="M 190.0 102.0 L 190.0 102.0 L 190.0 102.0 L 190.0 102.0 L 190.0 102.0 L 190.0 102.0 L 189.0 102.0 L 188.0 104.0 L 187.0 106.0 L 186.0 109.0 L 185.0 112.0 L 183.0 115.0 L 182.0 118.0 L 180.0 121.0 L 180.0 122.0 " stroke="black" fill="none" stroke-width="5.0" stroke-linecap="round" stroke-linejoin="round" />
<path d="M 153.0 126.0 L 153.0 126.0 L 153.0 126.0 L 153.0 126.0 L 153.0 126.0 L 153.0 126.0 L 153.0 126.0 L 153.0 126.0 L 153.0 126.0 L 153.0 128.0 L 154.0 130.0 L 154.0 134.0 L 155.0 139.0 L 155.0 145.0 L 155.0 153.0 L 155.0 161.0 L 155.0 168.0 L 154.0 175.0 L 153.0 182.0 L 153.0 186.0 L 152.0 187.0 L 152.0 187.0 L 152.0 186.0 " stroke="black" fill="none" stroke-width="5.0" stroke-linecap="round" stroke-linejoin="round" />
<path d="M 160.0 126.0 L 160.0 126.0 L 159.0 126.0 L 159.0 126.0 L 158.0 126.0 L 158.0 126.0 L 157.0 126.0 L 157.0 126.0 L 157.0 126.0 L 157.0 126.0 L 156.0 126.0 L 156.0 126.0 L 156.0 126.0 L 157.0 126.0 L 157.0 126.0 L 158.0 126.0 L 160.0 126.0 L 162.0 125.0 L 165.0 125.0 L 168.0 125.0 L 171.0 125.0 L 174.0 125.0 L 178.0 125.0 L 182.0 124.0 L 186.0 124.0 L 189.0 124.0 L 192.0 124.0 L 196.0 124.0 L 198.0 124.0 L 201.0 124.0 L 203.0 124.0 L 206.0 124.0 L 209.0 124.0 L 211.0 124.0 L 214.0 125.0 L 216.0 125.0 L 218.0 125.0 L 220.0 126.0 L 221.0 126.0 L 222.0 127.0 L 223.0 127.0 L 223.0 128.0 L 224.0 129.0 L 224.0 129.0 L 224.0 130.0 L 225.0 131.0 L 225.0 133.0 L 225.0 134.0 L 225.0 137.0 L 225.0 140.0 L 225.0 144.0 L 225.0 149.0 L 225.0 155.0 L 224.0 161.0 L 223.0 169.0 L 223.0 174.0 L 222.0 178.0 L 222.0 181.0 L 222.0 181.0 L 222.0 180.0 L 222.0 180.0 " stroke="black" fill="none" stroke-width="5.0" stroke-linecap="round" stroke-linejoin="round" />
<path d="M 160.0 156.0 L 160.0 156.0 L 157.0 156.0 L 156.0 156.0 L 155.0 156.0 L 155.0 156.0 L 155.0 156.0 L 155.0 155.0 L 158.0 155.0 L 161.0 155.0 L 166.0 155.0 L 172.0 154.0 L 179.0 154.0 L 186.0 153.0 L 193.0 152.0 L 199.0 152.0 L 204.0 151.0 L 209.0 151.0 L 212.0 151.0 L 214.0 152.0 L 216.0 153.0 L 216.0 154.0 " stroke="black" fill="none" stroke-width="5.0" stroke-linecap="round" stroke-linejoin="round" />
<path d="M 166.0 182.0 L 164.0 182.0 L 159.0 183.0 L 156.0 184.0 L 154.0 184.0 L 153.0 185.0 L 153.0 185.0 L 153.0 185.0 L 154.0 185.0 L 156.0 185.0 L 158.0 185.0 L 162.0 185.0 L 167.0 184.0 L 173.0 184.0 L 180.0 182.0 L 187.0 181.0 L 193.0 179.0 L 199.0 177.0 L 206.0 176.0 L 211.0 174.0 L 216.0 174.0 L 219.0 173.0 L 219.0 174.0 " stroke="black" fill="none" stroke-width="5.0" stroke-linecap="round" stroke-linejoin="round" />
<path d="M 192.0 187.0 L 192.0 187.0 L 191.0 186.0 L 191.0 186.0 L 191.0 186.0 L 190.0 185.0 L 190.0 185.0 L 190.0 186.0 L 189.0 187.0 L 189.0 190.0 L 189.0 193.0 L 188.0 197.0 L 188.0 202.0 L 188.0 209.0 L 188.0 216.0 L 188.0 224.0 L 187.0 232.0 L 186.0 238.0 L 185.0 242.0 L 184.0 244.0 L 182.0 245.0 L 180.0 245.0 L 178.0 245.0 L 176.0 243.0 L 173.0 242.0 L 171.0 240.0 L 169.0 238.0 L 167.0 236.0 L 166.0 234.0 " stroke="black" fill="none" stroke-width="5.0" stroke-linecap="round" stroke-linejoin="round" />
<path d="M 158.0 208.0 L 158.0 208.0 L 157.0 208.0 L 156.0 208.0 L 155.0 208.0 L 155.0 208.0 L 154.0 209.0 L 153.0 210.0 L 152.0 213.0 L 151.0 216.0 L 149.0 221.0 L 148.0 227.0 L 145.0 233.0 L 144.0 239.0 L 143.0 243.0 L 143.0 245.0 " stroke="black" fill="none" stroke-width="5.0" stroke-linecap="round" stroke-linejoin="round" />
<path d="M 215.0 212.0 L 214.0 212.0 L 212.0 212.0 L 212.0 213.0 L 212.0 214.0 L 213.0 216.0 L 215.0 219.0 L 218.0 222.0 L 221.0 226.0 L 224.0 229.0 L 227.0 232.0 L 230.0 235.0 L 233.0 237.0 L 235.0 239.0 L 236.0 240.0 L 237.0 241.0 " stroke="black" fill="none" stroke-width="5.0" stroke-linecap="round" stroke-linejoin="round" />
</svg>