<svg xmlns="http://www.w3.org/2000/svg" width="300" height="300" viewBox="0 0 300 300">
<path d="M 73.0 75.0 L 73.0 75.0 L 73.0 75.0 L 73.0 75.0 L 73.0 74.0 L 73.0 74.0 L 73.0 74.0 L 73.0 74.0 L 73.0 74.0 L 73.0 74.0 L 74.0 75.0 L 75.0 76.0 L 76.0 77.0 L 78.0 79.0 L 80.0 80.0 L 82.0 82.0 L 85.0 84.0 L 88.0 86.0 L 91.0 88.0 L 93.0 89.0 L 96.0 90.0 L 98.0 91.0 L 99.0 91.0 L 100.0 92.0 " stroke="black" fill="none" stroke-width="5.0" stroke-linecap="round" stroke-linejoin="round" />
<path d="M 62.0 131.0 L 62.0 131.0 L 62.0 131.0 L 61.0 131.0 L 61.0 131.0 L 61.0 131.0 L 61.0 131.0 L 61.0 132.0 L 61.0 132.0 L 63.0 134.0 L 65.0 135.0 L 67.0 137.0 L 70.0 139.0 L 73.0 141.0 L 76.0 143.0 L 80.0 145.0 L 82.0 146.0 L 84.0 148.0 L 86.0 148.0 L 87.0 149.0 " stroke="black" fill="none" stroke-width="5.0" stroke-linecap="round" stroke-linejoin="round" />
<path d="M 69.0 248.0 L 69.0 248.0 L 69.0 248.0 L 69.0 248.0 L 68.0 248.0 L 68.0 248.0 L 68.0 248.0 L 68.0 247.0 L 68.0 246.0 L 68.0 243.0 L 69.0 239.0 L 72.0 232.0 L 75.0 223.0 L 80.0 213.0 L 84.0 203.0 L 89.0 194.0 L 93.0 186.0 L 97.0 178.0 L 100.0 172.0 L 102.0 167.0 L 103.0 163.0 " stroke="black" fill="none" stroke-width="5.0" stroke-linecap="round" stroke-linejoin="round" />
<path d="M 119.0 78.0 L 119.0 78.0 L 119.0 78.0 L 119.0 78.0 L 119.0 78.0 L 119.0 78.0 L 119.0 79.0 L 119.0 81.0 L 120.0 84.0 L 120.0 88.0 L 120.0 93.0 L 120.0 99.0 L 120.0 104.0 L 120.0 109.0 L 120.0 112.0 " stroke="black" fill="none" stroke-width="5.0" stroke-linecap="round" stroke-linejoin="round" />
<path d="M 120.0 77.0 L 120.0 77.0 L 120.0 77.0 L 120.0 77.0 L 120.0 77.0 L 120.0 77.0 L 120.0 77.0 L 120.0 77.0 L 120.0 76.0 L 120.0 76.0 L 120.0 76.0 L 120.0 76.0 L 120.0 76.0 L 120.0 76.0 L 120.0 76.0 L 121.0 76.0 L 122.0 76.0 L 123.0 76.0 L 124.0 76.0 L 126.0 76.0 L 127.0 76.0 L 128.0 76.0 L 130.0 76.0 L 131.0 76.0 L 132.0 76.0 L 133.0 76.0 L 134.0 76.0 L 135.0 76.0 L 135.0 76.0 L 136.0 76.0 L 137.0 76.0 L 138.0 76.0 L 139.0 76.0 L 140.0 76.0 L 141.0 76.0 L 142.0 76.0 L 143.0 76.0 L 144.0 76.0 L 144.0 76.0 L 145.0 76.0 L 146.0 76.0 L 146.0 76.0 L 147.0 76.0 L 148.0 76.0 L 148.0 76.0 L 149.0 76.0 L 149.0 76.0 L 150.0 76.0 L 150.0 76.0 L 151.0 76.0 L 151.0 76.0 L 152.0 76.0 L 152.0 76.0 L 152.0 76.0 L 153.0 76.0 L 153.0 76.0 L 153.0 76.0 L 154.0 76.0 L 155.0 76.0 L 155.0 76.0 L 156.0 76.0 L 156.0 76.0 L 157.0 76.0 L 157.0 76.0 L 158.0 76.0 L 158.0 76.0 L 159.0 76.0 L 160.0 76.0 L 160.0 76.0 L 161.0 76.0 L 162.0 76.0 L 162.0 76.0 L 163.0 76.0 L 164.0 76.0 L 164.0 76.0 L 165.0 76.0 L 166.0 76.0 L 167.0 76.0 L 167.0 76.0 L 168.0 76.0 L 169.0 76.0 L 170.0 76.0 L 170.0 75.0 L 171.0 75.0 L 172.0 75.0 L 173.0 75.0 L 173.0 75.0 L 174.0 75.0 L 175.0 75.0 L 176.0 75.0 L 176.0 75.0 L 177.0 75.0 L 178.0 75.0 L 178.0 75.0 L 179.0 75.0 L 180.0 75.0 L 180.0 75.0 L 181.0 75.0 L 181.0 75.0 L 182.0 75.0 L 182.0 75.0 L 183.0 75.0 L 183.0 75.0 L 184.0 75.0 L 184.0 75.0 L 184.0 75.0 L 185.0 75.0 L 185.0 75.0 L 186.0 75.0 L 186.0 75.0 L 186.0 75.0 L 187.0 75.0 L 187.0 75.0 L 187.0 75.0 L 188.0 76.0 L 188.0 76.0 L 189.0 76.0 L 189.0 76.0 L 189.0 76.0 L 189.0 76.0 L 190.0 76.0 L 190.0 76.0 L 190.0 76.0 L 191.0 76.0 L 191.0 76.0 L 191.0 76.0 L 192.0 76.0 L 192.0 76.0 L 192.0 76.0 L 193.0 76.0 L 193.0 76.0 L 193.0 76.0 L 193.0 76.0 L 194.0 76.0 L 194.0 76.0 L 194.0 76.0 L 195.0 76.0 L 195.0 76.0 L 195.0 76.0 L 196.0 76.0 L 196.0 76.0 L 196.0 76.0 L 196.0 76.0 L 197.0 76.0 L 197.0 76.0 L 197.0 76.0 L 198.0 76.0 L 198.0 77.0 L 198.0 77.0 L 199.0 77.0 L 199.0 77.0 L 200.0 77.0 L 200.0 77.0 L 200.0 77.0 L 201.0 77.0 L 201.0 77.0 L 201.0 77.0 L 202.0 77.0 L 202.0 77.0 L 202.0 77.0 L 203.0 77.0 L 203.0 77.0 L 204.0 77.0 L 204.0 77.0 L 205.0 77.0 L 205.0 77.0 L 206.0 77.0 L 206.0 77.0 L 207.0 77.0 L 207.0 77.0 L 207.0 77.0 L 208.0 77.0 L 208.0 77.0 L 209.0 77.0 L 209.0 77.0 L 210.0 77.0 L 210.0 77.0 L 211.0 77.0 L 211.0 77.0 L 212.0 77.0 L 212.0 77.0 L 213.0 77.0 L 213.0 77.0 L 214.0 77.0 L 214.0 77.0 L 214.0 77.0 L 215.0 77.0 L 215.0 77.0 L 216.0 77.0 L 216.0 77.0 L 216.0 77.0 L 217.0 77.0 L 217.0 77.0 L 218.0 77.0 L 218.0 77.0 L 219.0 77.0 L 219.0 77.0 L 219.0 77.0 L 220.0 77.0 L 220.0 77.0 L 221.0 77.0 L 221.0 77.0 L 221.0 77.0 L 222.0 77.0 L 222.0 77.0 L 223.0 77.0 L 223.0 77.0 L 223.0 77.0 L 223.0 77.0 L 224.0 77.0 L 224.0 77.0 L 224.0 77.0 L 225.0 77.0 L 225.0 77.0 L 225.0 77.0 L 226.0 77.0 L 226.0 77.0 L 226.0 77.0 L 227.0 77.0 L 227.0 77.0 L 227.0 77.0 L 227.0 77.0 L 228.0 77.0 L 228.0 78.0 L 228.0 78.0 L 228.0 78.0 L 228.0 78.0 L 229.0 78.0 L 229.0 78.0 L 229.0 79.0 L 229.0 79.0 L 229.0 79.0 L 229.0 79.0 L 229.0 79.0 L 229.0 80.0 L 229.0 80.0 L 229.0 80.0 L 229.0 81.0 L 229.0 81.0 L 229.0 82.0 L 229.0 82.0 L 229.0 83.0 L 229.0 84.0 L 229.0 85.0 L 229.0 87.0 L 229.0 88.0 L 229.0 91.0 L 229.0 94.0 L 230.0 96.0 L 230.0 100.0 L 230.0 102.0 L 230.0 105.0 L 230.0 107.0 L 230.0 108.0 L 230.0 110.0 L 230.0 110.0 L 230.0 111.0 L 230.0 111.0 L 230.0 111.0 L 230.0 111.0 " stroke="black" fill="none" stroke-width="5.0" stroke-linecap="round" stroke-linejoin="round" />
<path d="M 153.0 80.0 L 153.0 80.0 L 153.0 80.0 L 152.0 79.0 L 152.0 79.0 L 151.0 79.0 L 151.0 79.0 L 151.0 79.0 L 151.0 79.0 L 151.0 80.0 L 152.0 82.0 L 152.0 85.0 L 153.0 87.0 L 153.0 91.0 L 153.0 95.0 L 154.0 100.0 L 154.0 104.0 L 154.0 108.0 L 154.0 111.0 L 154.0 114.0 L 155.0 115.0 L 155.0 116.0 L 155.0 117.0 L 155.0 117.0 " stroke="black" fill="none" stroke-width="5.0" stroke-linecap="round" stroke-linejoin="round" />
<path d="M 189.0 79.0 L 189.0 79.0 L 189.0 79.0 L 189.0 79.0 L 189.0 79.0 L 189.0 79.0 L 189.0 79.0 L 189.0 79.0 L 189.0 79.0 L 189.0 79.0 L 189.0 80.0 L 189.0 82.0 L 189.0 84.0 L 189.0 87.0 L 189.0 91.0 L 189.0 96.0 L 189.0 102.0 L 189.0 106.0 L 189.0 110.0 L 189.0 113.0 L 189.0 114.0 " stroke="black" fill="none" stroke-width="5.0" stroke-linecap="round" stroke-linejoin="round" />
<path d="M 119.0 114.0 L 119.0 114.0 L 118.0 114.0 L 117.0 115.0 L 116.0 115.0 L 116.0 115.0 L 115.0 116.0 L 114.0 116.0 L 114.0 116.0 L 114.0 116.0 L 114.0 116.0 L 114.0 116.0 L 114.0 116.0 L 114.0 116.0 L 115.0 116.0 L 115.0 116.0 L 116.0 116.0 L 117.0 116.0 L 117.0 116.0 L 118.0 116.0 L 118.0 116.0 L 119.0 116.0 L 120.0 116.0 L 120.0 117.0 L 121.0 117.0 L 122.0 117.0 L 123.0 117.0 L 124.0 118.0 L 125.0 118.0 L 126.0 118.0 L 127.0 118.0 L 128.0 118.0 L 129.0 118.0 L 130.0 118.0 L 131.0 118.0 L 132.0 118.0 L 133.0 118.0 L 134.0 117.0 L 135.0 117.0 L 136.0 116.0 L 137.0 116.0 L 138.0 116.0 L 139.0 116.0 L 139.0 116.0 L 140.0 116.0 L 140.0 116.0 L 141.0 116.0 L 141.0 116.0 L 142.0 116.0 L 142.0 116.0 L 143.0 116.0 L 143.0 116.0 L 143.0 116.0 L 144.0 116.0 L 144.0 116.0 L 144.0 116.0 L 145.0 116.0 L 145.0 116.0 L 146.0 116.0 L 146.0 117.0 L 146.0 117.0 L 147.0 117.0 L 147.0 117.0 L 148.0 117.0 L 148.0 117.0 L 149.0 117.0 L 149.0 117.0 L 150.0 117.0 L 150.0 117.0 L 151.0 117.0 L 151.0 117.0 L 152.0 117.0 L 152.0 117.0 L 153.0 117.0 L 153.0 117.0 L 154.0 117.0 L 155.0 117.0 L 155.0 117.0 L 156.0 117.0 L 157.0 117.0 L 157.0 117.0 L 158.0 117.0 L 159.0 117.0 L 159.0 117.0 L 160.0 117.0 L 161.0 117.0 L 161.0 117.0 L 162.0 117.0 L 163.0 117.0 L 164.0 117.0 L 164.0 117.0 L 165.0 117.0 L 166.0 117.0 L 167.0 117.0 L 168.0 117.0 L 168.0 117.0 L 169.0 117.0 L 170.0 117.0 L 171.0 117.0 L 172.0 117.0 L 172.0 117.0 L 173.0 117.0 L 174.0 117.0 L 175.0 117.0 L 176.0 117.0 L 176.0 117.0 L 177.0 117.0 L 178.0 117.0 L 178.0 117.0 L 179.0 117.0 L 180.0 117.0 L 181.0 117.0 L 181.0 117.0 L 182.0 117.0 L 183.0 117.0 L 183.0 117.0 L 184.0 117.0 L 185.0 117.0 L 185.0 117.0 L 186.0 117.0 L 186.0 117.0 L 187.0 117.0 L 188.0 117.0 L 188.0 117.0 L 189.0 117.0 L 189.0 117.0 L 190.0 117.0 L 190.0 117.0 L 191.0 117.0 L 191.0 117.0 L 192.0 117.0 L 192.0 117.0 L 193.0 117.0 L 193.0 117.0 L 193.0 117.0 L 194.0 117.0 L 194.0 117.0 L 194.0 117.0 L 195.0 117.0 L 195.0 117.0 L 195.0 117.0 L 196.0 118.0 L 196.0 118.0 L 196.0 118.0 L 197.0 118.0 L 197.0 118.0 L 198.0 118.0 L 198.0 118.0 L 199.0 118.0 L 199.0 118.0 L 199.0 118.0 L 200.0 118.0 L 200.0 118.0 L 201.0 118.0 L 201.0 118.0 L 202.0 118.0 L 202.0 118.0 L 203.0 118.0 L 203.0 118.0 L 204.0 118.0 L 204.0 118.0 L 205.0 118.0 L 205.0 118.0 L 206.0 118.0 L 207.0 118.0 L 207.0 118.0 L 208.0 118.0 L 209.0 118.0 L 209.0 118.0 L 210.0 118.0 L 211.0 118.0 L 212.0 118.0 L 212.0 118.0 L 213.0 118.0 L 214.0 118.0 L 214.0 118.0 L 215.0 118.0 L 215.0 118.0 L 216.0 118.0 L 217.0 118.0 L 217.0 118.0 L 218.0 118.0 L 218.0 118.0 L 219.0 118.0 L 219.0 118.0 L 220.0 118.0 L 221.0 118.0 L 221.0 118.0 L 221.0 118.0 L 222.0 118.0 L 222.0 118.0 L 223.0 118.0 L 223.0 118.0 L 224.0 118.0 L 224.0 118.0 L 224.0 118.0 L 225.0 118.0 L 225.0 118.0 L 226.0 118.0 L 226.0 118.0 L 226.0 118.0 L 227.0 118.0 L 227.0 118.0 L 227.0 118.0 L 228.0 118.0 L 228.0 118.0 L 229.0 118.0 L 229.0 118.0 L 229.0 119.0 L 230.0 119.0 L 230.0 119.0 L 230.0 119.0 L 231.0 119.0 L 231.0 119.0 L 232.0 119.0 L 232.0 119.0 L 232.0 120.0 L 233.0 120.0 L 233.0 120.0 L 233.0 120.0 L 233.0 120.0 L 234.0 120.0 L 234.0 120.0 L 234.0 120.0 " stroke="black" fill="none" stroke-width="5.0" stroke-linecap="round" stroke-linejoin="round" />
<path d="M 121.0 139.0 L 121.0 139.0 L 121.0 139.0 L 121.0 139.0 L 122.0 138.0 L 122.0 138.0 L 122.0 138.0 L 122.0 138.0 L 122.0 138.0 L 122.0 138.0 L 122.0 138.0 L 122.0 138.0 L 122.0 138.0 L 122.0 138.0 L 122.0 138.0 L 122.0 138.0 L 122.0 139.0 L 122.0 139.0 L 122.0 139.0 L 122.0 139.0 L 122.0 139.0 L 122.0 139.0 L 122.0 139.0 L 122.0 139.0 L 122.0 139.0 L 122.0 139.0 L 122.0 139.0 L 122.0 139.0 L 123.0 140.0 L 123.0 140.0 L 123.0 140.0 L 124.0 140.0 L 124.0 140.0 L 125.0 140.0 L 125.0 140.0 L 126.0 140.0 L 126.0 140.0 L 126.0 140.0 L 127.0 140.0 L 127.0 140.0 L 128.0 140.0 L 128.0 140.0 L 129.0 140.0 L 130.0 140.0 L 130.0 140.0 L 131.0 140.0 L 132.0 140.0 L 132.0 140.0 L 133.0 140.0 L 134.0 140.0 L 134.0 139.0 L 135.0 139.0 L 136.0 139.0 L 136.0 139.0 L 137.0 139.0 L 137.0 139.0 L 138.0 139.0 L 139.0 139.0 L 139.0 139.0 L 140.0 139.0 L 141.0 139.0 L 142.0 138.0 L 142.0 138.0 L 143.0 138.0 L 144.0 138.0 L 145.0 137.0 L 146.0 137.0 L 147.0 137.0 L 147.0 136.0 L 148.0 136.0 L 149.0 136.0 L 149.0 136.0 L 150.0 136.0 L 151.0 136.0 L 151.0 136.0 L 151.0 136.0 L 152.0 136.0 L 152.0 136.0 L 153.0 136.0 L 153.0 136.0 L 153.0 137.0 L 154.0 137.0 L 155.0 137.0 L 155.0 137.0 L 156.0 138.0 L 157.0 138.0 L 157.0 138.0 L 158.0 139.0 L 158.0 139.0 L 159.0 139.0 L 160.0 139.0 L 160.0 139.0 L 161.0 140.0 L 162.0 140.0 L 163.0 140.0 L 163.0 140.0 L 164.0 140.0 L 165.0 140.0 L 166.0 140.0 L 167.0 140.0 L 168.0 140.0 L 169.0 140.0 L 169.0 140.0 L 170.0 140.0 L 171.0 140.0 L 171.0 140.0 L 172.0 140.0 L 173.0 140.0 L 173.0 140.0 L 174.0 140.0 L 175.0 140.0 L 175.0 140.0 L 176.0 140.0 L 176.0 140.0 L 177.0 140.0 L 178.0 140.0 L 178.0 140.0 L 179.0 140.0 L 180.0 140.0 L 180.0 140.0 L 181.0 140.0 L 182.0 140.0 L 182.0 140.0 L 183.0 140.0 L 184.0 140.0 L 184.0 140.0 L 185.0 140.0 L 185.0 139.0 L 186.0 139.0 L 186.0 139.0 L 187.0 139.0 L 187.0 139.0 L 188.0 139.0 L 188.0 139.0 L 189.0 139.0 L 189.0 139.0 L 190.0 139.0 L 190.0 139.0 L 191.0 139.0 L 191.0 139.0 L 192.0 139.0 L 192.0 139.0 L 193.0 139.0 L 193.0 139.0 L 194.0 139.0 L 194.0 139.0 L 195.0 139.0 L 196.0 139.0 L 196.0 138.0 L 197.0 138.0 L 197.0 138.0 L 198.0 138.0 L 198.0 138.0 L 199.0 138.0 L 199.0 138.0 L 200.0 138.0 L 200.0 138.0 L 201.0 138.0 L 201.0 138.0 L 202.0 138.0 L 202.0 138.0 L 202.0 138.0 L 203.0 138.0 L 203.0 138.0 L 204.0 138.0 L 204.0 138.0 L 204.0 138.0 L 205.0 138.0 L 205.0 138.0 L 206.0 138.0 L 206.0 139.0 L 207.0 139.0 L 207.0 139.0 L 208.0 139.0 L 208.0 139.0 L 209.0 140.0 L 209.0 140.0 L 210.0 140.0 L 210.0 140.0 L 211.0 140.0 L 212.0 140.0 L 212.0 141.0 L 213.0 141.0 L 214.0 141.0 L 214.0 141.0 L 215.0 141.0 L 215.0 141.0 L 216.0 141.0 L 217.0 141.0 L 217.0 141.0 L 218.0 141.0 L 219.0 141.0 L 219.0 141.0 L 220.0 141.0 L 220.0 142.0 L 221.0 142.0 L 222.0 142.0 L 222.0 142.0 L 223.0 142.0 L 223.0 142.0 L 224.0 142.0 L 224.0 142.0 L 224.0 142.0 L 225.0 142.0 L 225.0 142.0 L 225.0 142.0 " stroke="black" fill="none" stroke-width="5.0" stroke-linecap="round" stroke-linejoin="round" />
<path d="M 175.0 124.0 L 175.0 124.0 L 175.0 124.0 L 175.0 125.0 L 175.0 125.0 L 175.0 126.0 L 175.0 126.0 L 175.0 127.0 L 175.0 128.0 L 175.0 129.0 L 175.0 131.0 L 175.0 133.0 L 175.0 136.0 L 176.0 139.0 L 176.0 142.0 L 176.0 146.0 L 176.0 150.0 L 176.0 154.0 L 176.0 158.0 L 175.0 161.0 L 175.0 164.0 L 175.0 165.0 L 175.0 165.0 " stroke="black" fill="none" stroke-width="5.0" stroke-linecap="round" stroke-linejoin="round" />
<path d="M 109.0 164.0 L 109.0 164.0 L 109.0 164.0 L 108.0 164.0 L 108.0 164.0 L 107.0 164.0 L 107.0 164.0 L 107.0 164.0 L 106.0 164.0 L 106.0 164.0 L 106.0 164.0 L 106.0 164.0 L 106.0 164.0 L 106.0 164.0 L 107.0 164.0 L 107.0 164.0 L 108.0 164.0 L 108.0 164.0 L 109.0 164.0 L 109.0 164.0 L 110.0 164.0 L 111.0 164.0 L 112.0 164.0 L 112.0 164.0 L 113.0 164.0 L 114.0 164.0 L 115.0 164.0 L 116.0 164.0 L 117.0 164.0 L 118.0 164.0 L 119.0 164.0 L 120.0 164.0 L 121.0 164.0 L 122.0 164.0 L 124.0 164.0 L 125.0 164.0 L 126.0 164.0 L 128.0 164.0 L 129.0 164.0 L 130.0 164.0 L 131.0 164.0 L 132.0 164.0 L 133.0 164.0 L 134.0 164.0 L 135.0 164.0 L 136.0 164.0 L 137.0 164.0 L 137.0 164.0 L 138.0 164.0 L 139.0 164.0 L 140.0 164.0 L 142.0 164.0 L 143.0 164.0 L 144.0 164.0 L 145.0 164.0 L 146.0 164.0 L 146.0 164.0 L 148.0 164.0 L 148.0 164.0 L 149.0 164.0 L 150.0 164.0 L 151.0 164.0 L 152.0 164.0 L 153.0 164.0 L 154.0 165.0 L 155.0 165.0 L 156.0 165.0 L 157.0 165.0 L 157.0 165.0 L 159.0 166.0 L 160.0 166.0 L 161.0 166.0 L 162.0 166.0 L 164.0 166.0 L 165.0 166.0 L 167.0 166.0 L 168.0 166.0 L 170.0 166.0 L 171.0 166.0 L 173.0 167.0 L 174.0 167.0 L 176.0 167.0 L 178.0 167.0 L 179.0 167.0 L 181.0 167.0 L 183.0 167.0 L 184.0 167.0 L 185.0 167.0 L 187.0 167.0 L 187.0 167.0 L 188.0 166.0 L 189.0 166.0 L 190.0 166.0 L 190.0 166.0 L 191.0 166.0 L 191.0 166.0 L 192.0 166.0 L 193.0 166.0 L 193.0 166.0 L 194.0 166.0 L 194.0 165.0 L 195.0 165.0 L 195.0 165.0 L 196.0 165.0 L 196.0 165.0 L 197.0 165.0 L 197.0 165.0 L 198.0 165.0 L 198.0 165.0 L 199.0 165.0 L 200.0 165.0 L 200.0 165.0 L 201.0 165.0 L 202.0 165.0 L 202.0 165.0 L 203.0 165.0 L 204.0 165.0 L 204.0 165.0 L 205.0 165.0 L 206.0 165.0 L 206.0 165.0 L 207.0 165.0 L 208.0 165.0 L 208.0 165.0 L 209.0 165.0 L 210.0 165.0 L 210.0 165.0 L 211.0 165.0 L 211.0 165.0 L 212.0 165.0 L 213.0 165.0 L 213.0 165.0 L 214.0 165.0 L 214.0 165.0 L 215.0 165.0 L 215.0 164.0 L 216.0 164.0 L 217.0 164.0 L 217.0 164.0 L 218.0 164.0 L 218.0 164.0 L 219.0 164.0 L 219.0 164.0 L 220.0 164.0 L 220.0 164.0 L 221.0 164.0 L 221.0 164.0 L 221.0 164.0 L 222.0 164.0 L 222.0 164.0 L 223.0 164.0 L 223.0 164.0 L 224.0 164.0 L 225.0 164.0 L 225.0 164.0 L 226.0 164.0 L 226.0 164.0 L 227.0 164.0 L 227.0 164.0 L 228.0 164.0 L 228.0 164.0 L 229.0 164.0 L 229.0 164.0 L 230.0 164.0 L 230.0 164.0 L 231.0 164.0 L 231.0 164.0 L 232.0 164.0 L 232.0 164.0 L 232.0 164.0 L 233.0 164.0 L 233.0 164.0 L 234.0 164.0 L 234.0 164.0 L 234.0 165.0 L 235.0 165.0 " stroke="black" fill="none" stroke-width="5.0" stroke-linecap="round" stroke-linejoin="round" />
<path d="M 142.0 168.0 L 142.0 168.0 L 142.0 168.0 L 142.0 168.0 L 141.0 168.0 L 141.0 168.0 L 141.0 168.0 L 141.0 168.0 L 141.0 168.0 L 141.0 169.0 L 141.0 170.0 L 142.0 171.0 L 143.0 173.0 L 144.0 176.0 L 145.0 178.0 L 147.0 181.0 L 148.0 184.0 L 150.0 186.0 L 151.0 188.0 L 153.0 190.0 L 154.0 191.0 L 156.0 192.0 L 157.0 193.0 " stroke="black" fill="none" stroke-width="5.0" stroke-linecap="round" stroke-linejoin="round" />
<path d="M 205.0 165.0 L 205.0 165.0 L 205.0 165.0 L 205.0 165.0 L 205.0 166.0 L 205.0 166.0 L 205.0 167.0 L 204.0 168.0 L 203.0 169.0 L 202.0 171.0 L 201.0 173.0 L 200.0 175.0 L 198.0 178.0 L 197.0 181.0 L 195.0 184.0 L 194.0 187.0 " stroke="black" fill="none" stroke-width="5.0" stroke-linecap="round" stroke-linejoin="round" />
<path d="M 121.0 197.0 L 121.0 197.0 L 121.0 197.0 L 120.0 197.0 L 120.0 198.0 L 119.0 198.0 L 119.0 198.0 L 119.0 198.0 L 119.0 198.0 L 119.0 198.0 L 119.0 198.0 L 120.0 198.0 L 121.0 198.0 L 122.0 198.0 L 123.0 198.0 L 123.0 198.0 L 124.0 198.0 L 125.0 198.0 L 126.0 198.0 L 126.0 198.0 L 127.0 198.0 L 128.0 198.0 L 129.0 198.0 L 130.0 198.0 L 131.0 198.0 L 132.0 198.0 L 133.0 198.0 L 135.0 198.0 L 136.0 197.0 L 137.0 197.0 L 138.0 197.0 L 139.0 197.0 L 140.0 197.0 L 141.0 197.0 L 142.0 197.0 L 143.0 196.0 L 144.0 196.0 L 145.0 196.0 L 146.0 196.0 L 147.0 196.0 L 148.0 196.0 L 148.0 195.0 L 149.0 195.0 L 150.0 195.0 L 151.0 195.0 L 152.0 195.0 L 153.0 195.0 L 153.0 195.0 L 154.0 195.0 L 155.0 195.0 L 156.0 195.0 L 157.0 195.0 L 157.0 195.0 L 158.0 195.0 L 159.0 195.0 L 160.0 196.0 L 161.0 196.0 L 162.0 196.0 L 163.0 196.0 L 164.0 196.0 L 165.0 196.0 L 166.0 197.0 L 167.0 197.0 L 168.0 197.0 L 169.0 197.0 L 169.0 197.0 L 171.0 197.0 L 171.0 197.0 L 173.0 197.0 L 174.0 197.0 L 175.0 197.0 L 176.0 197.0 L 177.0 197.0 L 178.0 197.0 L 179.0 197.0 L 180.0 197.0 L 181.0 197.0 L 182.0 197.0 L 183.0 197.0 L 184.0 197.0 L 184.0 197.0 L 185.0 197.0 L 186.0 197.0 L 187.0 197.0 L 188.0 197.0 L 188.0 197.0 L 189.0 197.0 L 190.0 197.0 L 191.0 197.0 L 191.0 196.0 L 192.0 196.0 L 192.0 196.0 L 193.0 196.0 L 193.0 196.0 L 194.0 196.0 L 194.0 196.0 L 195.0 196.0 L 195.0 196.0 L 196.0 196.0 L 196.0 196.0 L 197.0 196.0 L 197.0 196.0 L 198.0 196.0 L 198.0 196.0 L 199.0 196.0 L 200.0 196.0 L 200.0 196.0 L 201.0 196.0 L 202.0 196.0 L 202.0 196.0 L 203.0 196.0 L 204.0 196.0 L 205.0 196.0 L 205.0 196.0 L 206.0 196.0 L 207.0 196.0 L 208.0 196.0 L 209.0 196.0 L 210.0 196.0 L 210.0 196.0 L 211.0 196.0 L 212.0 196.0 L 213.0 196.0 L 214.0 196.0 L 214.0 196.0 L 215.0 196.0 L 216.0 196.0 L 217.0 196.0 L 218.0 196.0 L 219.0 196.0 L 219.0 196.0 L 220.0 196.0 L 221.0 195.0 L 221.0 195.0 L 222.0 195.0 L 222.0 195.0 L 222.0 195.0 L 223.0 195.0 L 223.0 195.0 L 223.0 195.0 L 224.0 195.0 L 224.0 195.0 L 224.0 195.0 L 224.0 195.0 L 224.0 195.0 L 224.0 195.0 " stroke="black" fill="none" stroke-width="5.0" stroke-linecap="round" stroke-linejoin="round" />
<path d="M 106.0 228.0 L 106.0 228.0 L 106.0 228.0 L 106.0 228.0 L 106.0 228.0 L 106.0 228.0 L 106.0 228.0 L 106.0 227.0 L 106.0 227.0 L 106.0 227.0 L 106.0 227.0 L 106.0 226.0 L 106.0 226.0 L 106.0 226.0 L 106.0 226.0 L 106.0 226.0 L 106.0 226.0 L 106.0 226.0 L 106.0 226.0 L 106.0 226.0 L 106.0 226.0 L 106.0 226.0 L 106.0 226.0 L 106.0 226.0 L 106.0 226.0 L 106.0 226.0 L 106.0 226.0 L 107.0 227.0 L 107.0 227.0 L 108.0 227.0 L 108.0 227.0 L 109.0 228.0 L 110.0 228.0 L 111.0 228.0 L 112.0 228.0 L 113.0 228.0 L 114.0 229.0 L 114.0 229.0 L 115.0 229.0 L 116.0 229.0 L 118.0 229.0 L 119.0 229.0 L 120.0 229.0 L 121.0 229.0 L 122.0 229.0 L 123.0 229.0 L 124.0 229.0 L 125.0 229.0 L 126.0 229.0 L 127.0 229.0 L 128.0 229.0 L 129.0 229.0 L 130.0 229.0 L 131.0 229.0 L 132.0 229.0 L 132.0 229.0 L 133.0 229.0 L 134.0 229.0 L 135.0 229.0 L 136.0 229.0 L 136.0 229.0 L 137.0 229.0 L 138.0 229.0 L 139.0 229.0 L 139.0 228.0 L 140.0 228.0 L 141.0 228.0 L 142.0 227.0 L 143.0 227.0 L 144.0 227.0 L 144.0 227.0 L 145.0 227.0 L 146.0 227.0 L 146.0 227.0 L 147.0 227.0 L 148.0 227.0 L 148.0 227.0 L 149.0 227.0 L 150.0 227.0 L 150.0 227.0 L 150.0 227.0 L 151.0 227.0 L 151.0 227.0 L 152.0 227.0 L 152.0 227.0 L 153.0 227.0 L 153.0 227.0 L 153.0 226.0 L 154.0 226.0 L 154.0 226.0 L 155.0 226.0 L 155.0 226.0 L 156.0 226.0 L 157.0 225.0 L 157.0 225.0 L 157.0 225.0 L 158.0 225.0 L 158.0 225.0 L 159.0 225.0 L 160.0 225.0 L 160.0 225.0 L 161.0 225.0 L 162.0 225.0 L 162.0 225.0 L 163.0 225.0 L 164.0 225.0 L 165.0 225.0 L 166.0 225.0 L 167.0 225.0 L 168.0 225.0 L 169.0 225.0 L 170.0 225.0 L 171.0 225.0 L 173.0 225.0 L 174.0 225.0 L 175.0 225.0 L 176.0 225.0 L 177.0 225.0 L 178.0 225.0 L 179.0 226.0 L 180.0 226.0 L 180.0 226.0 L 181.0 226.0 L 182.0 226.0 L 183.0 226.0 L 184.0 226.0 L 184.0 226.0 L 185.0 226.0 L 186.0 226.0 L 186.0 226.0 L 187.0 226.0 L 187.0 226.0 L 188.0 226.0 L 188.0 226.0 L 189.0 226.0 L 189.0 226.0 L 189.0 226.0 L 190.0 226.0 L 190.0 226.0 L 191.0 226.0 L 191.0 226.0 L 192.0 226.0 L 192.0 226.0 L 192.0 226.0 L 193.0 226.0 L 193.0 226.0 L 194.0 226.0 L 194.0 226.0 L 195.0 226.0 L 195.0 226.0 L 196.0 226.0 L 196.0 226.0 L 197.0 226.0 L 197.0 226.0 L 198.0 226.0 L 199.0 226.0 L 199.0 226.0 L 200.0 226.0 L 200.0 226.0 L 201.0 227.0 L 202.0 227.0 L 202.0 227.0 L 203.0 227.0 L 203.0 227.0 L 204.0 227.0 L 205.0 227.0 L 205.0 227.0 L 206.0 227.0 L 206.0 227.0 L 207.0 227.0 L 207.0 227.0 L 208.0 227.0 L 209.0 227.0 L 209.0 227.0 L 210.0 227.0 L 210.0 227.0 L 211.0 227.0 L 211.0 227.0 L 212.0 227.0 L 212.0 227.0 L 213.0 227.0 L 213.0 227.0 L 214.0 227.0 L 214.0 227.0 L 215.0 227.0 L 215.0 227.0 L 216.0 227.0 L 217.0 227.0 L 217.0 227.0 L 218.0 227.0 L 218.0 227.0 L 219.0 227.0 L 219.0 227.0 L 220.0 227.0 L 220.0 227.0 L 221.0 227.0 L 221.0 227.0 L 222.0 227.0 L 222.0 227.0 L 223.0 227.0 L 223.0 227.0 L 224.0 227.0 L 225.0 227.0 L 225.0 227.0 L 225.0 227.0 L 226.0 227.0 L 226.0 227.0 L 227.0 227.0 L 227.0 227.0 L 227.0 227.0 L 228.0 227.0 L 228.0 228.0 L 229.0 228.0 L 229.0 228.0 L 229.0 228.0 L 230.0 228.0 L 230.0 228.0 L 230.0 228.0 L 230.0 228.0 L 231.0 229.0 L 231.0 229.0 L 231.0 229.0 L 231.0 229.0 L 232.0 229.0 L 232.0 229.0 L 232.0 229.0 L 232.0 229.0 L 232.0 229.0 L 232.0 229.0 L 232.0 229.0 " stroke="black" fill="none" stroke-width="5.0" stroke-linecap="round" stroke-linejoin="round" />
<path d="M 179.0 197.0 L 179.0 197.0 L 179.0 197.0 L 178.0 197.0 L 178.0 198.0 L 177.0 199.0 L 177.0 201.0 L 176.0 202.0 L 176.0 204.0 L 175.0 205.0 L 175.0 207.0 L 175.0 208.0 L 175.0 210.0 L 175.0 211.0 L 175.0 214.0 L 175.0 216.0 L 175.0 219.0 L 175.0 223.0 L 175.0 227.0 L 175.0 231.0 L 175.0 235.0 L 175.0 239.0 L 175.0 244.0 L 175.0 248.0 L 175.0 252.0 L 174.0 256.0 L 174.0 258.0 L 174.0 260.0 L 173.0 262.0 L 173.0 263.0 L 173.0 264.0 L 173.0 264.0 L 173.0 264.0 L 173.0 264.0 L 173.0 264.0 " stroke="black" fill="none" stroke-width="5.0" stroke-linecap="round" stroke-linejoin="round" />
</svg>