<svg xmlns="http://www.w3.org/2000/svg" width="300" height="300" viewBox="0 0 300 300">
<path d="M 61.0 106.0 L 61.0 106.0 L 61.0 106.0 L 61.0 106.0 L 61.0 106.0 L 61.0 106.0 L 61.0 107.0 L 61.0 109.0 L 61.0 111.0 L 62.0 114.0 L 64.0 118.0 L 65.0 123.0 L 66.0 127.0 L 68.0 130.0 L 69.0 134.0 L 71.0 136.0 " stroke="black" fill="none" stroke-width="5.0" stroke-linecap="round" stroke-linejoin="round" />
<path d="M 117.0 112.0 L 117.0 112.0 L 117.0 112.0 L 117.0 112.0 L 117.0 112.0 L 117.0 112.0 L 117.0 113.0 L 117.0 115.0 L 117.0 117.0 L 116.0 121.0 L 116.0 123.0 L 114.0 132.0 L 113.0 138.0 L 111.0 143.0 L 109.0 148.0 " stroke="black" fill="none" stroke-width="5.0" stroke-linecap="round" stroke-linejoin="round" />
<path d="M 85.0 80.0 L 85.0 80.0 L 85.0 80.0 L 84.0 80.0 L 84.0 80.0 L 83.0 80.0 L 83.0 80.0 L 83.0 81.0 L 83.0 83.0 L 84.0 84.0 L 85.0 87.0 L 87.0 90.0 L 88.0 94.0 L 89.0 100.0 L 90.0 105.0 L 91.0 111.0 L 91.0 117.0 L 91.0 123.0 L 91.0 129.0 L 91.0 134.0 L 91.0 141.0 L 91.0 147.0 L 91.0 150.0 L 91.0 159.0 L 91.0 165.0 L 90.0 171.0 L 89.0 178.0 L 88.0 184.0 L 87.0 192.0 L 85.0 199.0 L 83.0 204.0 L 81.0 209.0 L 79.0 213.0 L 77.0 217.0 L 74.0 220.0 L 72.0 224.0 " stroke="black" fill="none" stroke-width="5.0" stroke-linecap="round" stroke-linejoin="round" />
<path d="M 87.0 177.0 L 87.0 177.0 L 86.0 176.0 L 86.0 176.0 L 85.0 175.0 L 85.0 175.0 L 86.0 176.0 L 87.0 178.0 L 88.0 180.0 L 90.0 184.0 L 93.0 187.0 L 95.0 191.0 L 98.0 196.0 L 101.0 201.0 L 104.0 206.0 L 107.0 211.0 L 110.0 215.0 L 112.0 218.0 L 114.0 220.0 L 116.0 221.0 L 117.0 221.0 " stroke="black" fill="none" stroke-width="5.0" stroke-linecap="round" stroke-linejoin="round" />
<path d="M 184.0 72.0 L 184.0 72.0 L 183.0 73.0 L 182.0 73.0 L 181.0 75.0 L 179.0 76.0 L 178.0 78.0 L 177.0 81.0 L 175.0 84.0 L 173.0 87.0 L 171.0 91.0 L 169.0 94.0 L 169.0 95.0 " stroke="black" fill="none" stroke-width="5.0" stroke-linecap="round" stroke-linejoin="round" />
<path d="M 145.0 95.0 L 145.0 95.0 L 144.0 95.0 L 144.0 95.0 L 144.0 95.0 L 143.0 96.0 L 143.0 97.0 L 143.0 99.0 L 143.0 101.0 L 143.0 105.0 L 143.0 109.0 L 143.0 114.0 L 143.0 120.0 L 143.0 126.0 L 144.0 132.0 L 144.0 138.0 L 145.0 143.0 L 145.0 147.0 L 146.0 150.0 " stroke="black" fill="none" stroke-width="5.0" stroke-linecap="round" stroke-linejoin="round" />
<path d="M 148.0 97.0 L 148.0 97.0 L 148.0 97.0 L 147.0 97.0 L 147.0 97.0 L 147.0 96.0 L 146.0 96.0 L 146.0 96.0 L 146.0 96.0 L 146.0 95.0 L 146.0 95.0 L 146.0 95.0 L 146.0 94.0 L 146.0 94.0 L 146.0 94.0 L 146.0 94.0 L 147.0 94.0 L 147.0 94.0 L 148.0 95.0 L 148.0 95.0 L 148.0 95.0 L 149.0 96.0 L 150.0 96.0 L 150.0 96.0 L 151.0 96.0 L 151.0 97.0 L 152.0 97.0 L 152.0 97.0 L 153.0 97.0 L 153.0 98.0 L 154.0 98.0 L 154.0 98.0 L 155.0 98.0 L 156.0 99.0 L 156.0 99.0 L 157.0 99.0 L 158.0 99.0 L 159.0 100.0 L 160.0 100.0 L 160.0 100.0 L 162.0 100.0 L 162.0 100.0 L 164.0 100.0 L 165.0 100.0 L 166.0 100.0 L 167.0 100.0 L 169.0 100.0 L 170.0 100.0 L 172.0 99.0 L 174.0 99.0 L 176.0 98.0 L 178.0 98.0 L 180.0 98.0 L 181.0 98.0 L 183.0 98.0 L 184.0 97.0 L 185.0 97.0 L 186.0 97.0 L 187.0 97.0 L 188.0 97.0 L 189.0 97.0 L 190.0 96.0 L 191.0 96.0 L 191.0 96.0 L 192.0 96.0 L 193.0 96.0 L 193.0 96.0 L 194.0 96.0 L 194.0 96.0 L 195.0 96.0 L 196.0 96.0 L 196.0 96.0 L 197.0 96.0 L 198.0 96.0 L 199.0 96.0 L 200.0 96.0 L 201.0 96.0 L 202.0 96.0 L 202.0 96.0 L 204.0 96.0 L 205.0 96.0 L 206.0 96.0 L 207.0 96.0 L 208.0 96.0 L 209.0 96.0 L 210.0 96.0 L 212.0 96.0 L 213.0 96.0 L 214.0 96.0 L 215.0 96.0 L 216.0 96.0 L 218.0 96.0 L 219.0 96.0 L 219.0 96.0 L 220.0 96.0 L 221.0 96.0 L 221.0 96.0 L 222.0 96.0 L 222.0 97.0 L 223.0 97.0 L 223.0 97.0 L 223.0 97.0 L 223.0 97.0 L 223.0 97.0 L 223.0 97.0 L 223.0 98.0 L 223.0 98.0 L 223.0 98.0 L 223.0 99.0 L 223.0 100.0 L 223.0 101.0 L 223.0 102.0 L 223.0 104.0 L 223.0 106.0 L 223.0 109.0 L 223.0 112.0 L 222.0 116.0 L 222.0 121.0 L 222.0 126.0 L 221.0 131.0 L 221.0 136.0 L 221.0 141.0 L 221.0 145.0 L 221.0 148.0 L 221.0 150.0 L 221.0 151.0 L 221.0 151.0 " stroke="black" fill="none" stroke-width="5.0" stroke-linecap="round" stroke-linejoin="round" />
<path d="M 154.0 123.0 L 153.0 123.0 L 153.0 123.0 L 152.0 123.0 L 152.0 123.0 L 152.0 123.0 L 152.0 123.0 L 152.0 123.0 L 152.0 123.0 L 153.0 123.0 L 156.0 123.0 L 161.0 123.0 L 167.0 123.0 L 175.0 123.0 L 183.0 123.0 L 190.0 123.0 L 198.0 123.0 L 204.0 123.0 L 209.0 123.0 L 213.0 122.0 L 216.0 122.0 L 218.0 122.0 L 220.0 122.0 L 220.0 123.0 L 220.0 124.0 " stroke="black" fill="none" stroke-width="5.0" stroke-linecap="round" stroke-linejoin="round" />
<path d="M 151.0 147.0 L 151.0 147.0 L 151.0 147.0 L 151.0 147.0 L 150.0 147.0 L 150.0 147.0 L 150.0 147.0 L 150.0 147.0 L 150.0 147.0 L 150.0 147.0 L 152.0 148.0 L 155.0 148.0 L 159.0 149.0 L 165.0 149.0 L 173.0 150.0 L 182.0 150.0 L 191.0 150.0 L 198.0 150.0 L 205.0 149.0 L 212.0 148.0 L 217.0 148.0 L 220.0 148.0 L 221.0 148.0 " stroke="black" fill="none" stroke-width="5.0" stroke-linecap="round" stroke-linejoin="round" />
<path d="M 129.0 178.0 L 129.0 178.0 L 129.0 178.0 L 129.0 178.0 L 128.0 178.0 L 128.0 178.0 L 128.0 178.0 L 128.0 178.0 L 128.0 178.0 L 128.0 178.0 L 128.0 178.0 L 128.0 178.0 L 128.0 178.0 L 128.0 178.0 L 128.0 178.0 L 128.0 178.0 L 128.0 179.0 L 129.0 179.0 L 130.0 179.0 L 131.0 179.0 L 132.0 179.0 L 133.0 179.0 L 134.0 179.0 L 135.0 180.0 L 136.0 180.0 L 137.0 180.0 L 138.0 180.0 L 139.0 180.0 L 141.0 181.0 L 142.0 181.0 L 143.0 181.0 L 144.0 181.0 L 145.0 181.0 L 146.0 181.0 L 146.0 181.0 L 147.0 181.0 L 148.0 181.0 L 148.0 181.0 L 149.0 181.0 L 150.0 181.0 L 150.0 181.0 L 151.0 181.0 L 151.0 181.0 L 152.0 181.0 L 153.0 181.0 L 153.0 180.0 L 154.0 180.0 L 155.0 180.0 L 155.0 180.0 L 156.0 180.0 L 157.0 180.0 L 157.0 180.0 L 158.0 180.0 L 158.0 180.0 L 159.0 180.0 L 160.0 180.0 L 161.0 180.0 L 162.0 180.0 L 163.0 180.0 L 164.0 180.0 L 165.0 180.0 L 166.0 180.0 L 168.0 180.0 L 169.0 180.0 L 171.0 180.0 L 173.0 180.0 L 175.0 180.0 L 178.0 180.0 L 180.0 180.0 L 182.0 180.0 L 185.0 180.0 L 187.0 180.0 L 189.0 180.0 L 191.0 180.0 L 193.0 180.0 L 195.0 180.0 L 196.0 180.0 L 197.0 180.0 L 198.0 180.0 L 200.0 180.0 L 201.0 180.0 L 202.0 180.0 L 203.0 180.0 L 204.0 180.0 L 206.0 180.0 L 208.0 180.0 L 209.0 180.0 L 211.0 180.0 L 214.0 181.0 L 216.0 181.0 L 218.0 182.0 L 220.0 182.0 L 223.0 182.0 L 225.0 182.0 L 227.0 182.0 L 229.0 182.0 L 231.0 182.0 L 233.0 182.0 L 233.0 182.0 " stroke="black" fill="none" stroke-width="5.0" stroke-linecap="round" stroke-linejoin="round" />
<path d="M 135.0 209.0 L 135.0 209.0 L 135.0 209.0 L 135.0 209.0 L 135.0 209.0 L 135.0 209.0 L 135.0 209.0 L 135.0 209.0 L 135.0 209.0 L 135.0 209.0 L 135.0 210.0 L 135.0 210.0 L 135.0 210.0 L 135.0 210.0 L 135.0 210.0 L 136.0 210.0 L 136.0 210.0 L 137.0 210.0 L 138.0 211.0 L 138.0 211.0 L 139.0 211.0 L 140.0 211.0 L 140.0 211.0 L 141.0 211.0 L 142.0 211.0 L 142.0 211.0 L 143.0 211.0 L 144.0 211.0 L 144.0 211.0 L 145.0 211.0 L 145.0 212.0 L 146.0 212.0 L 147.0 212.0 L 147.0 212.0 L 148.0 212.0 L 149.0 212.0 L 149.0 212.0 L 150.0 212.0 L 150.0 212.0 L 151.0 212.0 L 151.0 212.0 L 152.0 212.0 L 152.0 212.0 L 153.0 212.0 L 154.0 212.0 L 154.0 212.0 L 155.0 212.0 L 156.0 212.0 L 157.0 212.0 L 158.0 212.0 L 159.0 212.0 L 160.0 212.0 L 161.0 212.0 L 162.0 212.0 L 163.0 211.0 L 164.0 211.0 L 165.0 211.0 L 166.0 211.0 L 168.0 211.0 L 169.0 211.0 L 170.0 211.0 L 171.0 211.0 L 173.0 211.0 L 174.0 211.0 L 175.0 211.0 L 177.0 211.0 L 178.0 211.0 L 180.0 211.0 L 181.0 211.0 L 182.0 211.0 L 184.0 211.0 L 185.0 211.0 L 187.0 211.0 L 188.0 211.0 L 189.0 211.0 L 191.0 211.0 L 192.0 211.0 L 193.0 211.0 L 195.0 211.0 L 196.0 211.0 L 197.0 211.0 L 198.0 211.0 L 200.0 211.0 L 201.0 211.0 L 203.0 211.0 L 204.0 212.0 L 206.0 212.0 L 207.0 212.0 L 209.0 212.0 L 210.0 213.0 L 211.0 213.0 L 213.0 213.0 L 214.0 213.0 L 215.0 213.0 L 216.0 213.0 " stroke="black" fill="none" stroke-width="5.0" stroke-linecap="round" stroke-linejoin="round" />
<path d="M 184.0 189.0 L 184.0 188.0 L 183.0 188.0 L 182.0 187.0 L 182.0 186.0 L 182.0 186.0 L 182.0 185.0 L 182.0 185.0 L 182.0 185.0 L 182.0 186.0 L 183.0 188.0 L 183.0 191.0 L 183.0 194.0 L 183.0 198.0 L 183.0 203.0 L 182.0 208.0 L 181.0 213.0 L 180.0 220.0 L 180.0 225.0 L 179.0 230.0 L 179.0 235.0 L 179.0 237.0 L 179.0 238.0 " stroke="black" fill="none" stroke-width="5.0" stroke-linecap="round" stroke-linejoin="round" />
<path d="M 120.0 245.0 L 120.0 245.0 L 120.0 245.0 L 120.0 245.0 L 120.0 245.0 L 120.0 245.0 L 120.0 245.0 L 120.0 245.0 L 120.0 245.0 L 120.0 245.0 L 120.0 245.0 L 120.0 245.0 L 121.0 245.0 L 122.0 245.0 L 123.0 245.0 L 123.0 245.0 L 124.0 245.0 L 125.0 245.0 L 126.0 245.0 L 127.0 245.0 L 128.0 245.0 L 129.0 245.0 L 130.0 245.0 L 132.0 245.0 L 133.0 245.0 L 134.0 245.0 L 135.0 245.0 L 137.0 245.0 L 138.0 245.0 L 139.0 245.0 L 140.0 245.0 L 141.0 245.0 L 142.0 245.0 L 143.0 245.0 L 144.0 245.0 L 145.0 245.0 L 145.0 245.0 L 146.0 245.0 L 147.0 245.0 L 148.0 245.0 L 148.0 245.0 L 149.0 245.0 L 150.0 245.0 L 150.0 245.0 L 151.0 245.0 L 152.0 245.0 L 152.0 245.0 L 153.0 245.0 L 154.0 245.0 L 154.0 245.0 L 155.0 245.0 L 156.0 245.0 L 156.0 245.0 L 157.0 245.0 L 158.0 245.0 L 159.0 245.0 L 160.0 245.0 L 161.0 245.0 L 162.0 245.0 L 162.0 244.0 L 164.0 244.0 L 164.0 244.0 L 165.0 244.0 L 166.0 244.0 L 167.0 244.0 L 168.0 244.0 L 169.0 244.0 L 169.0 244.0 L 170.0 244.0 L 171.0 244.0 L 171.0 244.0 L 172.0 244.0 L 173.0 244.0 L 173.0 244.0 L 174.0 244.0 L 174.0 244.0 L 175.0 244.0 L 176.0 244.0 L 176.0 244.0 L 177.0 244.0 L 177.0 244.0 L 178.0 244.0 L 178.0 244.0 L 179.0 244.0 L 180.0 244.0 L 180.0 244.0 L 181.0 244.0 L 182.0 244.0 L 182.0 244.0 L 183.0 244.0 L 184.0 244.0 L 184.0 244.0 L 185.0 245.0 L 185.0 245.0 L 186.0 245.0 L 186.0 245.0 L 187.0 245.0 L 187.0 245.0 L 188.0 245.0 L 188.0 245.0 L 189.0 245.0 L 189.0 245.0 L 189.0 245.0 L 190.0 245.0 L 190.0 245.0 L 191.0 245.0 L 191.0 245.0 L 191.0 245.0 L 192.0 245.0 L 192.0 246.0 L 193.0 246.0 L 193.0 246.0 L 193.0 246.0 L 194.0 246.0 L 194.0 246.0 L 194.0 246.0 L 195.0 246.0 L 195.0 246.0 L 196.0 246.0 L 196.0 246.0 L 197.0 246.0 L 197.0 246.0 L 198.0 246.0 L 198.0 246.0 L 199.0 246.0 L 200.0 246.0 L 200.0 246.0 L 201.0 246.0 L 202.0 246.0 L 202.0 246.0 L 203.0 246.0 L 204.0 246.0 L 204.0 246.0 L 205.0 246.0 L 206.0 246.0 L 207.0 246.0 L 207.0 246.0 L 208.0 246.0 L 209.0 246.0 L 210.0 246.0 L 210.0 246.0 L 211.0 246.0 L 212.0 246.0 L 213.0 246.0 L 214.0 246.0 L 215.0 246.0 L 216.0 246.0 L 217.0 246.0 L 218.0 246.0 L 218.0 246.0 L 219.0 246.0 L 220.0 246.0 L 221.0 246.0 L 222.0 246.0 L 223.0 246.0 L 223.0 246.0 L 224.0 246.0 L 225.0 246.0 L 226.0 246.0 L 227.0 246.0 L 227.0 246.0 L 228.0 246.0 L 229.0 247.0 L 230.0 247.0 L 231.0 247.0 L 232.0 247.0 L 232.0 247.0 L 233.0 247.0 L 234.0 247.0 L 235.0 247.0 L 236.0 247.0 L 237.0 247.0 L 237.0 247.0 L 238.0 247.0 L 239.0 246.0 L 239.0 246.0 " stroke="black" fill="none" stroke-width="5.0" stroke-linecap="round" stroke-linejoin="round" />
<path d="M 71.0 218.0 L 71.0 218.0 L 71.0 218.0 L 71.0 218.0 L 71.0 218.0 L 71.0 218.0 L 71.0 218.0 L 71.0 218.0 L 71.0 218.0 L 71.0 218.0 L 71.0 218.0 L 71.0 218.0 L 71.0 218.0 L 71.0 219.0 L 71.0 220.0 L 71.0 222.0 L 70.0 224.0 L 69.0 227.0 L 68.0 230.0 L 66.0 233.0 L 65.0 236.0 L 63.0 239.0 L 61.0 241.0 L 60.0 243.0 L 58.0 245.0 L 57.0 246.0 L 57.0 247.0 " stroke="black" fill="none" stroke-width="5.0" stroke-linecap="round" stroke-linejoin="round" />
</svg>