<svg xmlns="http://www.w3.org/2000/svg" width="300" height="300" viewBox="0 0 300 300">
<path d="M 67.0 119.0 L 67.0 119.0 L 67.0 119.0 L 67.0 119.0 L 67.0 119.0 L 67.0 119.0 L 67.0 119.0 L 67.0 118.0 L 67.0 118.0 L 68.0 118.0 L 68.0 118.0 L 68.0 118.0 L 69.0 117.0 L 69.0 117.0 L 71.0 116.0 L 73.0 115.0 L 76.0 113.0 L 79.0 110.0 L 84.0 106.0 L 88.0 101.0 L 93.0 95.0 L 97.0 89.0 L 100.0 84.0 L 102.0 80.0 L 104.0 76.0 L 106.0 73.0 L 107.0 70.0 L 108.0 67.0 L 109.0 65.0 " stroke="black" fill="none" stroke-width="5.0" stroke-linecap="round" stroke-linejoin="round" />
<path d="M 98.0 96.0 L 98.0 96.0 L 98.0 96.0 L 98.0 96.0 L 97.0 96.0 L 97.0 97.0 L 97.0 97.0 L 97.0 97.0 L 97.0 97.0 L 97.0 97.0 L 97.0 97.0 L 97.0 97.0 L 97.0 97.0 L 97.0 97.0 L 97.0 97.0 L 97.0 97.0 L 97.0 97.0 L 97.0 97.0 L 98.0 97.0 L 98.0 97.0 L 99.0 97.0 L 100.0 97.0 L 101.0 97.0 L 102.0 97.0 L 103.0 97.0 L 104.0 97.0 L 105.0 97.0 L 106.0 97.0 L 107.0 98.0 L 108.0 98.0 L 109.0 98.0 L 110.0 98.0 L 111.0 98.0 L 112.0 98.0 L 113.0 98.0 L 114.0 98.0 L 115.0 98.0 L 117.0 98.0 L 118.0 98.0 L 119.0 98.0 L 120.0 98.0 L 122.0 98.0 L 123.0 98.0 L 125.0 98.0 L 126.0 98.0 L 127.0 98.0 L 129.0 98.0 L 131.0 98.0 L 132.0 98.0 L 134.0 98.0 L 135.0 98.0 L 136.0 98.0 L 137.0 98.0 L 139.0 98.0 L 140.0 98.0 L 141.0 98.0 L 142.0 98.0 L 143.0 98.0 L 144.0 98.0 L 145.0 98.0 L 146.0 98.0 L 147.0 98.0 L 148.0 98.0 L 149.0 98.0 L 150.0 98.0 L 151.0 98.0 L 151.0 98.0 L 152.0 98.0 L 152.0 98.0 L 153.0 98.0 L 153.0 98.0 L 154.0 98.0 L 154.0 98.0 L 154.0 98.0 L 155.0 98.0 L 155.0 99.0 L 156.0 99.0 L 157.0 99.0 L 157.0 99.0 L 158.0 99.0 L 158.0 99.0 L 159.0 99.0 L 160.0 99.0 L 161.0 99.0 L 162.0 100.0 L 162.0 100.0 L 163.0 100.0 L 164.0 100.0 L 165.0 100.0 L 166.0 100.0 L 167.0 100.0 L 167.0 100.0 L 168.0 100.0 L 169.0 100.0 L 170.0 100.0 L 171.0 100.0 L 172.0 100.0 L 173.0 100.0 L 175.0 100.0 L 175.0 100.0 L 177.0 100.0 L 178.0 100.0 L 178.0 100.0 L 180.0 100.0 L 180.0 100.0 L 181.0 100.0 L 182.0 100.0 L 183.0 100.0 L 184.0 100.0 L 185.0 100.0 L 186.0 100.0 L 186.0 100.0 L 187.0 100.0 L 188.0 100.0 L 189.0 100.0 L 189.0 100.0 L 190.0 100.0 L 190.0 100.0 L 191.0 100.0 L 192.0 100.0 L 192.0 100.0 L 193.0 100.0 L 193.0 100.0 L 193.0 100.0 L 194.0 100.0 L 194.0 100.0 L 195.0 100.0 L 195.0 100.0 L 195.0 100.0 L 196.0 99.0 L 196.0 99.0 L 196.0 99.0 L 197.0 99.0 L 197.0 99.0 L 198.0 99.0 L 198.0 99.0 L 199.0 99.0 L 199.0 98.0 L 200.0 98.0 L 200.0 98.0 L 201.0 98.0 L 201.0 98.0 L 202.0 98.0 L 202.0 98.0 L 203.0 98.0 L 204.0 98.0 L 204.0 98.0 L 205.0 98.0 L 205.0 98.0 L 206.0 98.0 L 207.0 98.0 L 208.0 98.0 L 209.0 98.0 L 209.0 98.0 L 210.0 98.0 L 211.0 98.0 L 212.0 98.0 L 212.0 98.0 L 213.0 98.0 L 214.0 98.0 L 215.0 98.0 L 216.0 98.0 L 216.0 98.0 L 217.0 98.0 L 218.0 98.0 L 218.0 98.0 L 219.0 98.0 L 220.0 99.0 L 220.0 99.0 " stroke="black" fill="none" stroke-width="5.0" stroke-linecap="round" stroke-linejoin="round" />
<path d="M 68.0 147.0 L 68.0 147.0 L 68.0 147.0 L 68.0 147.0 L 68.0 147.0 L 68.0 147.0 L 68.0 147.0 L 68.0 147.0 L 68.0 147.0 L 68.0 147.0 L 68.0 147.0 L 68.0 147.0 L 68.0 146.0 L 68.0 146.0 L 68.0 146.0 L 68.0 146.0 L 69.0 146.0 L 70.0 146.0 L 70.0 146.0 L 71.0 146.0 L 73.0 146.0 L 74.0 146.0 L 75.0 147.0 L 76.0 147.0 L 78.0 147.0 L 79.0 147.0 L 81.0 147.0 L 83.0 147.0 L 84.0 147.0 L 86.0 147.0 L 88.0 147.0 L 89.0 147.0 L 90.0 147.0 L 92.0 147.0 L 93.0 147.0 L 94.0 147.0 L 95.0 147.0 L 96.0 147.0 L 97.0 147.0 L 99.0 147.0 L 100.0 147.0 L 101.0 147.0 L 102.0 147.0 L 103.0 147.0 L 104.0 147.0 L 105.0 147.0 L 105.0 147.0 L 106.0 148.0 L 107.0 148.0 L 107.0 148.0 L 108.0 148.0 L 109.0 148.0 L 109.0 148.0 L 110.0 148.0 L 110.0 148.0 L 111.0 148.0 L 112.0 148.0 L 112.0 148.0 L 113.0 148.0 L 114.0 148.0 L 115.0 148.0 L 115.0 148.0 L 116.0 148.0 L 117.0 148.0 L 118.0 148.0 L 119.0 148.0 L 120.0 148.0 L 121.0 147.0 L 121.0 147.0 L 123.0 147.0 L 124.0 147.0 L 125.0 147.0 L 126.0 147.0 L 127.0 146.0 L 128.0 146.0 L 130.0 146.0 L 131.0 146.0 L 132.0 146.0 L 133.0 146.0 L 134.0 145.0 L 135.0 145.0 L 135.0 145.0 L 136.0 145.0 L 137.0 145.0 L 138.0 145.0 L 139.0 145.0 L 140.0 145.0 L 141.0 145.0 L 141.0 145.0 L 142.0 145.0 L 143.0 144.0 L 144.0 144.0 L 144.0 144.0 L 145.0 144.0 L 146.0 144.0 L 146.0 144.0 L 147.0 144.0 L 147.0 144.0 L 148.0 144.0 L 149.0 144.0 L 149.0 144.0 L 150.0 144.0 L 150.0 144.0 L 151.0 144.0 L 151.0 144.0 L 152.0 144.0 L 152.0 144.0 L 153.0 144.0 L 153.0 144.0 L 154.0 144.0 L 155.0 144.0 L 155.0 144.0 L 156.0 144.0 L 157.0 144.0 L 158.0 144.0 L 159.0 144.0 L 160.0 144.0 L 162.0 144.0 L 163.0 144.0 L 165.0 144.0 L 166.0 144.0 L 167.0 144.0 L 169.0 144.0 L 170.0 144.0 L 171.0 144.0 L 172.0 144.0 L 174.0 144.0 L 175.0 144.0 L 176.0 144.0 L 177.0 144.0 L 178.0 144.0 L 179.0 144.0 L 180.0 144.0 L 181.0 144.0 L 181.0 144.0 L 182.0 144.0 L 183.0 144.0 L 184.0 144.0 L 184.0 144.0 L 185.0 144.0 L 186.0 145.0 L 187.0 145.0 L 187.0 145.0 L 188.0 145.0 L 189.0 145.0 L 189.0 145.0 L 190.0 145.0 L 191.0 145.0 L 191.0 145.0 L 192.0 145.0 L 192.0 145.0 L 193.0 145.0 L 193.0 145.0 L 194.0 145.0 L 194.0 145.0 L 195.0 145.0 L 195.0 145.0 L 196.0 145.0 L 197.0 145.0 L 197.0 145.0 L 198.0 145.0 L 199.0 145.0 L 200.0 145.0 L 200.0 145.0 L 201.0 145.0 L 202.0 145.0 L 203.0 145.0 L 204.0 145.0 L 206.0 145.0 L 207.0 145.0 L 208.0 145.0 L 209.0 144.0 L 210.0 144.0 L 212.0 144.0 L 213.0 144.0 L 214.0 144.0 L 216.0 144.0 L 217.0 144.0 L 218.0 144.0 L 220.0 144.0 L 221.0 144.0 L 222.0 144.0 L 223.0 144.0 L 224.0 144.0 L 225.0 144.0 L 226.0 144.0 L 227.0 144.0 L 228.0 144.0 L 229.0 144.0 L 230.0 144.0 L 231.0 144.0 L 232.0 144.0 L 233.0 144.0 L 233.0 144.0 L 234.0 144.0 L 234.0 144.0 L 235.0 144.0 L 235.0 143.0 L 235.0 143.0 L 236.0 143.0 L 236.0 143.0 " stroke="black" fill="none" stroke-width="5.0" stroke-linecap="round" stroke-linejoin="round" />
<path d="M 97.0 127.0 L 97.0 127.0 L 97.0 127.0 L 97.0 128.0 L 97.0 128.0 L 97.0 129.0 L 97.0 129.0 L 97.0 130.0 L 97.0 130.0 L 97.0 131.0 L 97.0 132.0 L 98.0 134.0 L 98.0 136.0 L 98.0 139.0 L 98.0 142.0 L 98.0 145.0 L 98.0 149.0 L 98.0 152.0 L 98.0 156.0 L 98.0 159.0 L 98.0 163.0 L 98.0 166.0 L 97.0 169.0 L 97.0 172.0 L 97.0 175.0 L 97.0 178.0 L 97.0 180.0 L 98.0 183.0 L 98.0 185.0 L 98.0 187.0 L 99.0 190.0 L 99.0 192.0 L 99.0 194.0 L 99.0 195.0 L 99.0 196.0 L 99.0 196.0 L 99.0 196.0 " stroke="black" fill="none" stroke-width="5.0" stroke-linecap="round" stroke-linejoin="round" />
<path d="M 133.0 128.0 L 133.0 128.0 L 133.0 128.0 L 133.0 128.0 L 133.0 128.0 L 133.0 129.0 L 133.0 129.0 L 133.0 130.0 L 134.0 133.0 L 134.0 136.0 L 134.0 140.0 L 134.0 146.0 L 134.0 151.0 L 134.0 157.0 L 134.0 162.0 L 134.0 167.0 L 133.0 173.0 L 132.0 178.0 L 132.0 183.0 L 131.0 188.0 L 131.0 192.0 L 131.0 194.0 L 131.0 195.0 L 132.0 196.0 L 133.0 196.0 L 134.0 195.0 L 134.0 194.0 " stroke="black" fill="none" stroke-width="5.0" stroke-linecap="round" stroke-linejoin="round" />
<path d="M 169.0 122.0 L 169.0 122.0 L 169.0 122.0 L 169.0 122.0 L 169.0 122.0 L 169.0 122.0 L 169.0 122.0 L 169.0 122.0 L 169.0 123.0 L 169.0 125.0 L 169.0 127.0 L 169.0 129.0 L 169.0 132.0 L 169.0 136.0 L 169.0 141.0 L 169.0 146.0 L 169.0 150.0 L 169.0 154.0 L 169.0 159.0 L 169.0 162.0 L 169.0 166.0 L 169.0 169.0 L 169.0 172.0 L 168.0 175.0 L 168.0 178.0 L 168.0 180.0 L 168.0 182.0 L 168.0 185.0 L 168.0 187.0 L 168.0 188.0 L 168.0 190.0 L 168.0 190.0 L 168.0 191.0 L 168.0 191.0 L 168.0 191.0 L 168.0 190.0 " stroke="black" fill="none" stroke-width="5.0" stroke-linecap="round" stroke-linejoin="round" />
<path d="M 207.0 128.0 L 207.0 128.0 L 207.0 128.0 L 207.0 128.0 L 207.0 128.0 L 207.0 129.0 L 207.0 130.0 L 207.0 131.0 L 207.0 132.0 L 207.0 135.0 L 207.0 138.0 L 207.0 141.0 L 207.0 146.0 L 207.0 150.0 L 207.0 154.0 L 207.0 159.0 L 206.0 162.0 L 206.0 166.0 L 206.0 170.0 L 206.0 173.0 L 206.0 176.0 L 206.0 180.0 L 206.0 182.0 L 206.0 185.0 L 206.0 188.0 L 206.0 190.0 L 206.0 192.0 L 206.0 195.0 L 206.0 196.0 L 206.0 197.0 L 206.0 199.0 L 206.0 199.0 L 206.0 200.0 L 206.0 200.0 L 206.0 200.0 " stroke="black" fill="none" stroke-width="5.0" stroke-linecap="round" stroke-linejoin="round" />
<path d="M 65.0 199.0 L 65.0 199.0 L 65.0 199.0 L 65.0 199.0 L 65.0 198.0 L 65.0 198.0 L 65.0 198.0 L 65.0 198.0 L 65.0 198.0 L 65.0 197.0 L 65.0 197.0 L 65.0 197.0 L 65.0 197.0 L 65.0 197.0 L 66.0 197.0 L 66.0 197.0 L 67.0 197.0 L 67.0 197.0 L 68.0 197.0 L 69.0 198.0 L 70.0 198.0 L 71.0 198.0 L 72.0 199.0 L 73.0 199.0 L 74.0 199.0 L 76.0 200.0 L 77.0 200.0 L 78.0 200.0 L 80.0 200.0 L 82.0 200.0 L 83.0 200.0 L 85.0 200.0 L 87.0 200.0 L 89.0 200.0 L 90.0 200.0 L 92.0 200.0 L 93.0 200.0 L 94.0 200.0 L 96.0 200.0 L 97.0 200.0 L 98.0 200.0 L 99.0 200.0 L 100.0 200.0 L 101.0 199.0 L 103.0 199.0 L 103.0 199.0 L 104.0 199.0 L 105.0 199.0 L 106.0 199.0 L 107.0 199.0 L 107.0 199.0 L 108.0 199.0 L 109.0 199.0 L 110.0 199.0 L 110.0 199.0 L 111.0 199.0 L 112.0 199.0 L 112.0 199.0 L 113.0 199.0 L 114.0 199.0 L 115.0 199.0 L 116.0 199.0 L 117.0 199.0 L 118.0 199.0 L 119.0 199.0 L 120.0 199.0 L 121.0 199.0 L 122.0 199.0 L 123.0 199.0 L 124.0 199.0 L 126.0 199.0 L 127.0 199.0 L 128.0 199.0 L 130.0 199.0 L 131.0 199.0 L 132.0 199.0 L 133.0 199.0 L 134.0 199.0 L 135.0 200.0 L 137.0 200.0 L 138.0 200.0 L 139.0 200.0 L 140.0 200.0 L 141.0 200.0 L 142.0 200.0 L 143.0 200.0 L 144.0 200.0 L 145.0 200.0 L 145.0 200.0 L 146.0 200.0 L 147.0 200.0 L 148.0 200.0 L 149.0 200.0 L 150.0 200.0 L 150.0 200.0 L 151.0 200.0 L 152.0 200.0 L 153.0 200.0 L 153.0 200.0 L 154.0 200.0 L 155.0 200.0 L 156.0 200.0 L 156.0 200.0 L 157.0 200.0 L 158.0 200.0 L 159.0 199.0 L 160.0 199.0 L 161.0 199.0 L 162.0 199.0 L 163.0 199.0 L 164.0 199.0 L 165.0 199.0 L 166.0 199.0 L 167.0 198.0 L 168.0 198.0 L 169.0 198.0 L 171.0 198.0 L 172.0 198.0 L 173.0 198.0 L 174.0 198.0 L 175.0 198.0 L 177.0 197.0 L 178.0 197.0 L 179.0 197.0 L 180.0 197.0 L 181.0 197.0 L 182.0 197.0 L 182.0 197.0 L 183.0 197.0 L 184.0 197.0 L 185.0 197.0 L 186.0 197.0 L 187.0 197.0 L 188.0 197.0 L 188.0 197.0 L 189.0 197.0 L 190.0 197.0 L 190.0 197.0 L 191.0 197.0 L 192.0 197.0 L 192.0 197.0 L 193.0 197.0 L 193.0 197.0 L 194.0 197.0 L 194.0 197.0 L 195.0 197.0 L 195.0 197.0 L 196.0 197.0 L 196.0 197.0 L 197.0 197.0 L 197.0 197.0 L 198.0 197.0 L 199.0 197.0 L 199.0 197.0 L 200.0 197.0 L 201.0 197.0 L 201.0 197.0 L 202.0 197.0 L 203.0 197.0 L 204.0 197.0 L 205.0 197.0 L 206.0 197.0 L 208.0 197.0 L 209.0 197.0 L 210.0 197.0 L 212.0 197.0 L 214.0 197.0 L 216.0 198.0 L 217.0 198.0 L 219.0 198.0 L 221.0 198.0 L 223.0 198.0 L 224.0 198.0 L 226.0 198.0 L 227.0 198.0 L 229.0 198.0 L 230.0 198.0 L 231.0 198.0 L 231.0 198.0 L 232.0 198.0 " stroke="black" fill="none" stroke-width="5.0" stroke-linecap="round" stroke-linejoin="round" />
<path d="M 88.0 218.0 L 88.0 218.0 L 88.0 217.0 L 88.0 217.0 L 88.0 217.0 L 88.0 217.0 L 88.0 217.0 L 88.0 217.0 L 87.0 218.0 L 87.0 219.0 L 86.0 221.0 L 85.0 222.0 L 84.0 225.0 L 83.0 227.0 L 81.0 230.0 L 79.0 233.0 L 77.0 237.0 L 75.0 240.0 L 74.0 241.0 " stroke="black" fill="none" stroke-width="5.0" stroke-linecap="round" stroke-linejoin="round" />
<path d="M 127.0 222.0 L 127.0 222.0 L 127.0 221.0 L 127.0 221.0 L 127.0 221.0 L 127.0 220.0 L 127.0 220.0 L 127.0 222.0 L 127.0 224.0 L 127.0 228.0 L 127.0 232.0 L 127.0 236.0 L 127.0 240.0 L 127.0 244.0 " stroke="black" fill="none" stroke-width="5.0" stroke-linecap="round" stroke-linejoin="round" />
<path d="M 169.0 226.0 L 169.0 226.0 L 169.0 227.0 L 169.0 227.0 L 169.0 228.0 L 169.0 229.0 L 170.0 230.0 L 170.0 232.0 L 171.0 234.0 L 173.0 237.0 L 174.0 241.0 L 176.0 244.0 L 178.0 248.0 L 179.0 251.0 L 180.0 253.0 " stroke="black" fill="none" stroke-width="5.0" stroke-linecap="round" stroke-linejoin="round" />
<path d="M 212.0 218.0 L 212.0 218.0 L 212.0 218.0 L 212.0 218.0 L 212.0 218.0 L 212.0 218.0 L 212.0 218.0 L 213.0 219.0 L 215.0 221.0 L 217.0 224.0 L 219.0 228.0 L 222.0 232.0 L 225.0 236.0 L 227.0 241.0 L 229.0 245.0 L 231.0 249.0 L 232.0 252.0 L 233.0 255.0 L 233.0 257.0 L 233.0 258.0 L 233.0 258.0 " stroke="black" fill="none" stroke-width="5.0" stroke-linecap="round" stroke-linejoin="round" />
</svg>