<svg xmlns="http://www.w3.org/2000/svg" width="300" height="300" viewBox="0 0 300 300">
<path d="M 78.0 85.0 L 78.0 85.0 L 77.0 85.0 L 76.0 85.0 L 75.0 84.0 L 75.0 84.0 L 75.0 84.0 L 75.0 84.0 L 75.0 83.0 L 77.0 83.0 L 79.0 83.0 L 81.0 83.0 L 83.0 83.0 L 88.0 83.0 L 93.0 83.0 L 98.0 83.0 L 103.0 83.0 L 110.0 83.0 L 116.0 82.0 L 124.0 82.0 L 133.0 82.0 L 142.0 81.0 L 150.0 81.0 L 156.0 80.0 L 161.0 80.0 L 166.0 80.0 L 172.0 80.0 L 178.0 80.0 L 184.0 80.0 L 189.0 80.0 L 192.0 80.0 L 195.0 80.0 L 197.0 80.0 L 199.0 80.0 L 200.0 80.0 L 202.0 80.0 L 203.0 80.0 L 204.0 80.0 L 206.0 80.0 L 207.0 80.0 L 208.0 80.0 L 209.0 80.0 L 209.0 80.0 L 209.0 80.0 " stroke="black" fill="none" stroke-width="5.0" stroke-linecap="round" stroke-linejoin="round" />
<path d="M 151.0 87.0 L 151.0 87.0 L 151.0 86.0 L 150.0 85.0 L 150.0 85.0 L 150.0 84.0 L 150.0 84.0 L 150.0 84.0 L 150.0 84.0 L 150.0 86.0 L 150.0 88.0 L 150.0 92.0 L 150.0 97.0 L 150.0 102.0 L 150.0 107.0 L 150.0 113.0 L 150.0 119.0 L 150.0 124.0 L 149.0 129.0 L 149.0 133.0 L 149.0 135.0 " stroke="black" fill="none" stroke-width="5.0" stroke-linecap="round" stroke-linejoin="round" />
<path d="M 156.0 109.0 L 155.0 109.0 L 154.0 109.0 L 153.0 109.0 L 153.0 109.0 L 152.0 109.0 L 152.0 109.0 L 152.0 109.0 L 153.0 109.0 L 154.0 109.0 L 157.0 109.0 L 161.0 109.0 L 166.0 109.0 L 173.0 109.0 L 179.0 109.0 L 185.0 109.0 L 191.0 109.0 L 195.0 109.0 L 199.0 109.0 L 202.0 110.0 L 204.0 111.0 " stroke="black" fill="none" stroke-width="5.0" stroke-linecap="round" stroke-linejoin="round" />
<path d="M 106.0 114.0 L 106.0 113.0 L 106.0 113.0 L 105.0 112.0 L 105.0 111.0 L 104.0 111.0 L 104.0 111.0 L 104.0 111.0 L 104.0 111.0 L 104.0 111.0 L 104.0 113.0 L 104.0 115.0 L 104.0 117.0 L 104.0 120.0 L 105.0 123.0 L 105.0 127.0 L 105.0 130.0 L 105.0 134.0 L 105.0 136.0 " stroke="black" fill="none" stroke-width="5.0" stroke-linecap="round" stroke-linejoin="round" />
<path d="M 60.0 140.0 L 60.0 140.0 L 60.0 140.0 L 60.0 140.0 L 60.0 140.0 L 60.0 140.0 L 60.0 140.0 L 60.0 140.0 L 60.0 140.0 L 60.0 140.0 L 60.0 140.0 L 60.0 140.0 L 61.0 140.0 L 62.0 140.0 L 63.0 140.0 L 64.0 139.0 L 65.0 139.0 L 66.0 139.0 L 67.0 139.0 L 68.0 139.0 L 70.0 139.0 L 72.0 139.0 L 74.0 139.0 L 76.0 139.0 L 79.0 139.0 L 82.0 139.0 L 85.0 139.0 L 88.0 139.0 L 91.0 139.0 L 94.0 139.0 L 96.0 139.0 L 98.0 139.0 L 100.0 139.0 L 101.0 139.0 L 103.0 138.0 L 104.0 138.0 L 106.0 138.0 L 107.0 138.0 L 109.0 137.0 L 110.0 137.0 L 111.0 137.0 L 113.0 136.0 L 114.0 136.0 L 116.0 136.0 L 117.0 136.0 L 118.0 136.0 L 120.0 136.0 L 121.0 136.0 L 122.0 136.0 L 124.0 136.0 L 125.0 136.0 L 127.0 136.0 L 129.0 136.0 L 130.0 136.0 L 132.0 136.0 L 134.0 136.0 L 136.0 136.0 L 137.0 136.0 L 139.0 136.0 L 141.0 136.0 L 142.0 136.0 L 144.0 136.0 L 145.0 136.0 L 146.0 136.0 L 148.0 136.0 L 149.0 136.0 L 150.0 136.0 L 151.0 136.0 L 152.0 136.0 L 153.0 136.0 L 154.0 136.0 L 155.0 136.0 L 155.0 136.0 L 156.0 136.0 L 157.0 136.0 L 158.0 136.0 L 159.0 136.0 L 160.0 136.0 L 161.0 136.0 L 163.0 136.0 L 164.0 136.0 L 165.0 137.0 L 167.0 137.0 L 169.0 137.0 L 170.0 137.0 L 173.0 137.0 L 175.0 137.0 L 177.0 137.0 L 180.0 137.0 L 182.0 137.0 L 185.0 138.0 L 187.0 138.0 L 189.0 138.0 L 191.0 138.0 L 192.0 138.0 L 194.0 138.0 L 195.0 138.0 L 196.0 138.0 L 197.0 138.0 L 198.0 138.0 L 200.0 139.0 L 201.0 139.0 L 202.0 139.0 L 204.0 139.0 L 205.0 140.0 L 207.0 140.0 L 208.0 140.0 L 210.0 140.0 L 211.0 141.0 L 213.0 141.0 L 215.0 141.0 L 217.0 141.0 L 219.0 141.0 L 220.0 141.0 L 222.0 141.0 L 224.0 141.0 L 225.0 141.0 L 226.0 141.0 L 227.0 141.0 L 228.0 141.0 L 228.0 141.0 L 228.0 141.0 " stroke="black" fill="none" stroke-width="5.0" stroke-linecap="round" stroke-linejoin="round" />
<path d="M 110.0 165.0 L 110.0 165.0 L 110.0 165.0 L 110.0 165.0 L 110.0 164.0 L 110.0 164.0 L 110.0 164.0 L 110.0 164.0 L 110.0 164.0 L 110.0 164.0 L 111.0 163.0 L 112.0 163.0 L 113.0 163.0 L 114.0 163.0 L 116.0 163.0 L 118.0 163.0 L 121.0 163.0 L 124.0 163.0 L 128.0 163.0 L 132.0 163.0 L 136.0 162.0 L 140.0 162.0 L 143.0 162.0 L 145.0 162.0 L 147.0 162.0 L 149.0 162.0 L 151.0 162.0 L 152.0 162.0 L 153.0 163.0 L 155.0 163.0 L 157.0 163.0 L 158.0 164.0 L 160.0 164.0 L 163.0 164.0 L 165.0 164.0 L 167.0 164.0 L 169.0 164.0 L 172.0 164.0 L 175.0 164.0 L 177.0 164.0 L 180.0 165.0 L 183.0 165.0 L 185.0 165.0 L 188.0 165.0 L 190.0 165.0 L 192.0 165.0 L 194.0 165.0 L 196.0 165.0 L 197.0 165.0 L 198.0 165.0 L 200.0 165.0 L 201.0 165.0 L 203.0 165.0 L 204.0 165.0 L 206.0 164.0 L 207.0 164.0 L 208.0 164.0 L 210.0 164.0 L 210.0 164.0 L 211.0 164.0 L 212.0 164.0 L 212.0 164.0 L 212.0 164.0 L 212.0 164.0 " stroke="black" fill="none" stroke-width="5.0" stroke-linecap="round" stroke-linejoin="round" />
<path d="M 104.0 144.0 L 104.0 144.0 L 104.0 144.0 L 104.0 144.0 L 104.0 144.0 L 104.0 144.0 L 104.0 144.0 L 104.0 144.0 L 104.0 144.0 L 104.0 145.0 L 105.0 146.0 L 105.0 146.0 L 105.0 148.0 L 105.0 149.0 L 105.0 151.0 L 105.0 153.0 L 105.0 155.0 L 105.0 157.0 L 105.0 159.0 L 105.0 161.0 L 105.0 162.0 L 105.0 163.0 L 105.0 165.0 L 105.0 166.0 L 104.0 167.0 L 104.0 168.0 L 104.0 168.0 L 104.0 169.0 L 104.0 170.0 L 103.0 171.0 L 103.0 171.0 L 103.0 172.0 L 103.0 173.0 L 102.0 174.0 L 102.0 175.0 L 102.0 176.0 L 101.0 177.0 L 101.0 178.0 L 100.0 179.0 L 100.0 181.0 L 99.0 182.0 L 99.0 183.0 L 98.0 184.0 L 98.0 186.0 L 97.0 186.0 L 97.0 187.0 L 96.0 188.0 L 96.0 189.0 L 95.0 190.0 L 95.0 191.0 L 95.0 191.0 L 94.0 192.0 L 94.0 192.0 L 94.0 192.0 L 94.0 192.0 L 94.0 192.0 L 94.0 192.0 L 94.0 192.0 L 94.0 192.0 L 94.0 192.0 L 94.0 192.0 L 95.0 192.0 L 95.0 192.0 L 95.0 192.0 L 95.0 192.0 L 96.0 192.0 L 96.0 192.0 L 97.0 192.0 L 97.0 192.0 L 98.0 192.0 L 98.0 192.0 L 99.0 192.0 L 100.0 192.0 L 100.0 192.0 L 101.0 191.0 L 102.0 191.0 L 104.0 191.0 L 105.0 190.0 L 107.0 190.0 L 108.0 189.0 L 110.0 188.0 L 112.0 188.0 L 114.0 187.0 L 116.0 187.0 L 118.0 187.0 L 121.0 186.0 L 123.0 186.0 L 125.0 186.0 L 128.0 186.0 L 130.0 186.0 L 132.0 186.0 L 135.0 186.0 L 137.0 186.0 L 139.0 186.0 L 141.0 185.0 L 143.0 185.0 L 144.0 185.0 L 146.0 185.0 L 147.0 185.0 L 148.0 184.0 L 149.0 184.0 L 150.0 184.0 L 150.0 184.0 L 151.0 184.0 L 152.0 184.0 L 153.0 184.0 L 154.0 184.0 L 155.0 184.0 L 155.0 184.0 L 156.0 184.0 L 157.0 184.0 L 158.0 184.0 L 159.0 184.0 L 160.0 184.0 L 161.0 184.0 L 162.0 184.0 L 163.0 184.0 L 164.0 184.0 L 164.0 184.0 L 165.0 184.0 L 166.0 184.0 L 167.0 184.0 L 168.0 185.0 L 169.0 185.0 L 171.0 185.0 L 172.0 186.0 L 173.0 186.0 L 175.0 186.0 L 176.0 187.0 L 178.0 187.0 L 179.0 187.0 L 180.0 188.0 L 182.0 188.0 L 183.0 188.0 L 184.0 188.0 L 185.0 188.0 L 187.0 188.0 L 188.0 189.0 L 189.0 189.0 L 190.0 189.0 L 191.0 189.0 L 193.0 189.0 L 194.0 189.0 L 195.0 189.0 L 195.0 189.0 L 196.0 189.0 L 197.0 189.0 L 198.0 189.0 L 199.0 189.0 L 200.0 189.0 L 200.0 189.0 L 202.0 189.0 L 203.0 189.0 L 204.0 189.0 L 205.0 189.0 L 207.0 189.0 L 208.0 189.0 L 210.0 189.0 L 211.0 189.0 L 212.0 190.0 L 214.0 190.0 L 215.0 190.0 L 215.0 190.0 L 216.0 190.0 L 217.0 190.0 L 218.0 190.0 L 218.0 190.0 L 219.0 190.0 L 219.0 191.0 L 220.0 191.0 L 221.0 191.0 L 221.0 191.0 L 222.0 191.0 L 223.0 191.0 L 223.0 191.0 L 224.0 191.0 L 224.0 191.0 L 225.0 191.0 L 225.0 191.0 L 225.0 191.0 L 226.0 191.0 L 226.0 191.0 L 227.0 192.0 L 227.0 192.0 L 227.0 192.0 L 227.0 192.0 L 228.0 192.0 L 228.0 192.0 L 228.0 192.0 L 228.0 192.0 L 228.0 192.0 L 229.0 193.0 L 229.0 193.0 L 229.0 193.0 L 229.0 193.0 L 229.0 193.0 L 229.0 193.0 L 229.0 194.0 L 229.0 194.0 L 229.0 194.0 L 229.0 195.0 L 229.0 195.0 L 229.0 196.0 L 229.0 197.0 L 229.0 197.0 L 229.0 198.0 L 229.0 199.0 L 229.0 200.0 L 228.0 202.0 L 228.0 203.0 L 228.0 205.0 L 227.0 206.0 L 227.0 207.0 L 227.0 209.0 L 226.0 210.0 L 226.0 211.0 L 226.0 212.0 L 226.0 214.0 L 226.0 215.0 L 226.0 216.0 L 225.0 218.0 L 225.0 219.0 L 225.0 221.0 L 225.0 223.0 L 225.0 224.0 L 224.0 226.0 L 224.0 228.0 L 224.0 230.0 L 224.0 232.0 L 223.0 234.0 L 223.0 235.0 L 223.0 236.0 L 223.0 238.0 L 222.0 239.0 L 222.0 240.0 L 221.0 241.0 L 221.0 243.0 L 221.0 244.0 L 220.0 245.0 L 220.0 246.0 L 219.0 247.0 L 218.0 248.0 L 218.0 249.0 L 217.0 250.0 L 217.0 251.0 L 216.0 252.0 L 216.0 252.0 L 216.0 253.0 L 215.0 253.0 L 215.0 253.0 L 214.0 253.0 L 213.0 253.0 L 212.0 253.0 L 210.0 253.0 L 208.0 252.0 L 206.0 251.0 L 203.0 249.0 L 200.0 248.0 L 196.0 246.0 L 193.0 244.0 " stroke="black" fill="none" stroke-width="5.0" stroke-linecap="round" stroke-linejoin="round" />
<path d="M 79.0 213.0 L 79.0 213.0 L 78.0 213.0 L 78.0 213.0 L 78.0 213.0 L 77.0 213.0 L 77.0 213.0 L 77.0 213.0 L 78.0 213.0 L 79.0 215.0 L 80.0 218.0 L 80.0 221.0 L 81.0 225.0 L 81.0 230.0 L 81.0 236.0 L 79.0 241.0 L 76.0 246.0 L 74.0 250.0 L 73.0 252.0 L 73.0 253.0 " stroke="black" fill="none" stroke-width="5.0" stroke-linecap="round" stroke-linejoin="round" />
<path d="M 115.0 213.0 L 115.0 213.0 L 115.0 212.0 L 115.0 211.0 L 115.0 211.0 L 115.0 211.0 L 115.0 211.0 L 115.0 211.0 L 115.0 211.0 L 115.0 214.0 L 114.0 218.0 L 113.0 223.0 L 112.0 228.0 L 112.0 232.0 L 112.0 237.0 L 112.0 241.0 L 112.0 243.0 " stroke="black" fill="none" stroke-width="5.0" stroke-linecap="round" stroke-linejoin="round" />
<path d="M 150.0 214.0 L 149.0 214.0 L 148.0 214.0 L 148.0 214.0 L 147.0 214.0 L 147.0 214.0 L 147.0 214.0 L 147.0 215.0 L 147.0 216.0 L 147.0 218.0 L 148.0 221.0 L 149.0 224.0 L 150.0 228.0 L 151.0 232.0 L 152.0 236.0 L 152.0 239.0 " stroke="black" fill="none" stroke-width="5.0" stroke-linecap="round" stroke-linejoin="round" />
<path d="M 183.0 208.0 L 183.0 208.0 L 183.0 208.0 L 183.0 208.0 L 183.0 208.0 L 184.0 209.0 L 185.0 211.0 L 187.0 213.0 L 190.0 217.0 L 192.0 221.0 L 195.0 226.0 L 197.0 230.0 L 200.0 233.0 L 201.0 235.0 " stroke="black" fill="none" stroke-width="5.0" stroke-linecap="round" stroke-linejoin="round" />
</svg>