<svg xmlns="http://www.w3.org/2000/svg" width="300" height="300" viewBox="0 0 300 300">
<path d="M 65.0 111.0 L 65.0 111.0 L 64.0 110.0 L 64.0 110.0 L 63.0 109.0 L 63.0 109.0 L 62.0 109.0 L 62.0 108.0 L 62.0 108.0 L 62.0 108.0 L 62.0 108.0 L 62.0 108.0 L 63.0 109.0 L 63.0 110.0 L 64.0 112.0 L 65.0 115.0 L 66.0 118.0 L 67.0 121.0 L 68.0 125.0 L 69.0 129.0 L 70.0 133.0 L 72.0 137.0 L 73.0 140.0 L 74.0 143.0 L 75.0 144.0 " stroke="black" fill="none" stroke-width="5.0" stroke-linecap="round" stroke-linejoin="round" />
<path d="M 110.0 109.0 L 110.0 109.0 L 110.0 109.0 L 110.0 109.0 L 110.0 109.0 L 110.0 109.0 L 110.0 109.0 L 110.0 109.0 L 110.0 109.0 L 110.0 110.0 L 110.0 111.0 L 110.0 114.0 L 110.0 117.0 L 109.0 121.0 L 108.0 125.0 L 107.0 129.0 L 106.0 133.0 L 106.0 137.0 " stroke="black" fill="none" stroke-width="5.0" stroke-linecap="round" stroke-linejoin="round" />
<path d="M 91.0 74.0 L 91.0 74.0 L 91.0 74.0 L 90.0 74.0 L 90.0 74.0 L 90.0 74.0 L 90.0 74.0 L 90.0 74.0 L 90.0 74.0 L 90.0 74.0 L 90.0 74.0 L 90.0 74.0 L 90.0 74.0 L 90.0 74.0 L 90.0 75.0 L 90.0 75.0 L 90.0 76.0 L 91.0 77.0 L 91.0 78.0 L 91.0 79.0 L 92.0 81.0 L 92.0 82.0 L 92.0 84.0 L 93.0 85.0 L 93.0 87.0 L 93.0 89.0 L 93.0 91.0 L 93.0 93.0 L 93.0 95.0 L 93.0 98.0 L 93.0 100.0 L 93.0 102.0 L 92.0 104.0 L 92.0 106.0 L 92.0 108.0 L 91.0 110.0 L 91.0 112.0 L 91.0 113.0 L 91.0 115.0 L 91.0 116.0 L 91.0 118.0 L 91.0 120.0 L 91.0 121.0 L 91.0 122.0 L 91.0 124.0 L 91.0 125.0 L 91.0 126.0 L 91.0 128.0 L 91.0 129.0 L 91.0 130.0 L 91.0 132.0 L 91.0 134.0 L 91.0 135.0 L 90.0 137.0 L 90.0 139.0 L 90.0 140.0 L 89.0 142.0 L 89.0 144.0 L 89.0 146.0 L 88.0 148.0 L 88.0 150.0 L 88.0 151.0 L 87.0 153.0 L 87.0 154.0 L 87.0 156.0 L 86.0 157.0 L 86.0 158.0 L 86.0 159.0 L 85.0 161.0 L 85.0 162.0 L 85.0 163.0 L 85.0 164.0 L 85.0 165.0 L 85.0 166.0 L 84.0 167.0 L 84.0 168.0 L 84.0 169.0 L 84.0 170.0 L 84.0 171.0 L 84.0 172.0 L 84.0 173.0 L 84.0 174.0 L 84.0 175.0 L 84.0 176.0 L 84.0 177.0 L 84.0 178.0 L 83.0 179.0 L 83.0 180.0 L 83.0 181.0 L 83.0 182.0 L 82.0 183.0 L 82.0 184.0 L 82.0 185.0 L 82.0 186.0 L 82.0 188.0 L 81.0 189.0 L 81.0 190.0 L 81.0 191.0 L 81.0 192.0 L 80.0 193.0 L 80.0 194.0 L 80.0 195.0 L 80.0 196.0 L 79.0 197.0 L 79.0 198.0 L 79.0 200.0 L 78.0 201.0 L 78.0 202.0 L 77.0 204.0 L 77.0 205.0 L 77.0 206.0 L 76.0 208.0 L 76.0 209.0 L 75.0 211.0 L 75.0 212.0 L 74.0 214.0 L 73.0 215.0 L 73.0 217.0 L 72.0 219.0 L 71.0 221.0 L 70.0 223.0 L 69.0 226.0 L 68.0 229.0 L 67.0 231.0 L 66.0 233.0 L 65.0 235.0 L 64.0 237.0 L 64.0 237.0 L 63.0 238.0 L 63.0 238.0 " stroke="black" fill="none" stroke-width="5.0" stroke-linecap="round" stroke-linejoin="round" />
<path d="M 83.0 186.0 L 83.0 186.0 L 83.0 185.0 L 83.0 184.0 L 83.0 184.0 L 83.0 183.0 L 83.0 183.0 L 83.0 183.0 L 84.0 183.0 L 84.0 183.0 L 85.0 184.0 L 87.0 186.0 L 89.0 188.0 L 91.0 191.0 L 94.0 195.0 L 96.0 200.0 L 99.0 204.0 L 102.0 209.0 L 105.0 213.0 L 108.0 217.0 L 110.0 219.0 L 112.0 220.0 L 114.0 221.0 L 115.0 220.0 " stroke="black" fill="none" stroke-width="5.0" stroke-linecap="round" stroke-linejoin="round" />
<path d="M 141.0 78.0 L 141.0 78.0 L 141.0 78.0 L 140.0 77.0 L 140.0 77.0 L 140.0 77.0 L 139.0 76.0 L 139.0 76.0 L 139.0 76.0 L 139.0 76.0 L 139.0 76.0 L 140.0 76.0 L 141.0 76.0 L 142.0 76.0 L 144.0 77.0 L 147.0 77.0 L 149.0 77.0 L 152.0 78.0 L 155.0 78.0 L 158.0 78.0 L 161.0 78.0 L 164.0 78.0 L 166.0 79.0 L 167.0 79.0 L 168.0 79.0 L 169.0 79.0 L 169.0 79.0 L 169.0 79.0 L 169.0 80.0 L 169.0 80.0 L 168.0 81.0 L 167.0 82.0 L 166.0 83.0 L 165.0 85.0 L 163.0 87.0 L 162.0 89.0 L 160.0 92.0 L 157.0 96.0 L 155.0 100.0 L 153.0 105.0 L 151.0 110.0 L 148.0 114.0 L 146.0 119.0 L 143.0 125.0 L 139.0 129.0 L 136.0 134.0 L 133.0 138.0 L 130.0 141.0 L 127.0 144.0 L 124.0 146.0 L 123.0 147.0 L 121.0 147.0 L 121.0 147.0 " stroke="black" fill="none" stroke-width="5.0" stroke-linecap="round" stroke-linejoin="round" />
<path d="M 129.0 103.0 L 129.0 103.0 L 129.0 103.0 L 128.0 103.0 L 128.0 103.0 L 128.0 103.0 L 128.0 104.0 L 130.0 105.0 L 132.0 106.0 L 135.0 108.0 L 138.0 110.0 L 141.0 112.0 L 144.0 114.0 L 146.0 115.0 L 149.0 117.0 " stroke="black" fill="none" stroke-width="5.0" stroke-linecap="round" stroke-linejoin="round" />
<path d="M 219.0 75.0 L 219.0 75.0 L 219.0 74.0 L 219.0 74.0 L 219.0 73.0 L 219.0 73.0 L 219.0 73.0 L 219.0 73.0 L 218.0 73.0 L 218.0 73.0 L 217.0 73.0 L 215.0 75.0 L 212.0 77.0 L 209.0 80.0 L 205.0 84.0 L 201.0 87.0 L 197.0 91.0 L 195.0 93.0 L 193.0 96.0 " stroke="black" fill="none" stroke-width="5.0" stroke-linecap="round" stroke-linejoin="round" />
<path d="M 236.0 98.0 L 236.0 98.0 L 236.0 98.0 L 236.0 99.0 L 236.0 99.0 L 236.0 100.0 L 236.0 100.0 L 235.0 101.0 L 234.0 102.0 L 233.0 103.0 L 231.0 105.0 L 227.0 108.0 L 222.0 111.0 L 216.0 114.0 L 211.0 116.0 L 205.0 118.0 " stroke="black" fill="none" stroke-width="5.0" stroke-linecap="round" stroke-linejoin="round" />
<path d="M 190.0 75.0 L 190.0 75.0 L 190.0 75.0 L 190.0 75.0 L 190.0 75.0 L 190.0 75.0 L 190.0 75.0 L 190.0 75.0 L 190.0 75.0 L 190.0 76.0 L 190.0 77.0 L 190.0 79.0 L 191.0 81.0 L 192.0 84.0 L 193.0 87.0 L 194.0 92.0 L 196.0 97.0 L 197.0 102.0 L 199.0 107.0 L 201.0 112.0 L 203.0 117.0 L 206.0 121.0 L 209.0 124.0 L 212.0 127.0 L 215.0 130.0 L 219.0 133.0 L 223.0 136.0 L 226.0 139.0 L 229.0 142.0 L 231.0 144.0 L 233.0 146.0 L 234.0 147.0 L 235.0 148.0 L 236.0 148.0 " stroke="black" fill="none" stroke-width="5.0" stroke-linecap="round" stroke-linejoin="round" />
<path d="M 153.0 128.0 L 153.0 128.0 L 153.0 128.0 L 153.0 128.0 L 153.0 128.0 L 153.0 128.0 L 153.0 128.0 L 153.0 128.0 L 153.0 128.0 L 154.0 128.0 L 155.0 129.0 L 157.0 129.0 L 160.0 130.0 L 165.0 130.0 L 171.0 130.0 L 179.0 130.0 L 186.0 130.0 L 193.0 130.0 L 198.0 130.0 L 202.0 129.0 L 206.0 128.0 L 207.0 128.0 L 207.0 128.0 " stroke="black" fill="none" stroke-width="5.0" stroke-linecap="round" stroke-linejoin="round" />
<path d="M 144.0 156.0 L 144.0 156.0 L 144.0 156.0 L 144.0 156.0 L 144.0 156.0 L 144.0 156.0 L 144.0 157.0 L 144.0 159.0 L 144.0 161.0 L 144.0 165.0 L 144.0 170.0 L 144.0 176.0 L 144.0 182.0 L 143.0 188.0 L 143.0 193.0 L 143.0 196.0 L 143.0 198.0 L 143.0 198.0 L 143.0 198.0 " stroke="black" fill="none" stroke-width="5.0" stroke-linecap="round" stroke-linejoin="round" />
<path d="M 148.0 161.0 L 148.0 161.0 L 148.0 161.0 L 147.0 160.0 L 147.0 160.0 L 146.0 160.0 L 146.0 160.0 L 146.0 160.0 L 145.0 160.0 L 145.0 160.0 L 145.0 160.0 L 145.0 160.0 L 145.0 160.0 L 145.0 160.0 L 146.0 159.0 L 146.0 159.0 L 147.0 159.0 L 147.0 159.0 L 148.0 159.0 L 149.0 158.0 L 150.0 158.0 L 151.0 158.0 L 152.0 158.0 L 154.0 158.0 L 156.0 158.0 L 158.0 158.0 L 159.0 158.0 L 162.0 158.0 L 164.0 158.0 L 166.0 158.0 L 168.0 157.0 L 169.0 157.0 L 171.0 157.0 L 173.0 157.0 L 175.0 157.0 L 177.0 157.0 L 179.0 157.0 L 180.0 157.0 L 182.0 157.0 L 184.0 157.0 L 186.0 157.0 L 188.0 157.0 L 190.0 157.0 L 192.0 157.0 L 194.0 157.0 L 195.0 157.0 L 197.0 157.0 L 198.0 157.0 L 200.0 157.0 L 201.0 157.0 L 203.0 157.0 L 204.0 157.0 L 206.0 157.0 L 208.0 157.0 L 210.0 157.0 L 211.0 157.0 L 213.0 157.0 L 215.0 157.0 L 217.0 157.0 L 218.0 158.0 L 220.0 158.0 L 221.0 158.0 L 221.0 158.0 L 222.0 158.0 L 222.0 158.0 L 223.0 159.0 L 223.0 159.0 L 223.0 160.0 L 222.0 161.0 L 222.0 163.0 L 221.0 165.0 L 220.0 167.0 L 220.0 169.0 L 219.0 172.0 L 218.0 175.0 L 218.0 178.0 L 217.0 182.0 L 216.0 185.0 L 214.0 189.0 L 213.0 192.0 L 212.0 194.0 L 211.0 197.0 L 210.0 198.0 L 209.0 198.0 L 207.0 198.0 " stroke="black" fill="none" stroke-width="5.0" stroke-linecap="round" stroke-linejoin="round" />
<path d="M 143.0 197.0 L 143.0 197.0 L 143.0 197.0 L 143.0 197.0 L 143.0 197.0 L 143.0 197.0 L 143.0 197.0 L 144.0 198.0 L 145.0 198.0 L 148.0 198.0 L 151.0 198.0 L 156.0 198.0 L 162.0 198.0 L 170.0 198.0 L 178.0 198.0 L 185.0 198.0 L 192.0 197.0 L 196.0 197.0 L 198.0 197.0 L 200.0 197.0 L 201.0 197.0 L 201.0 197.0 " stroke="black" fill="none" stroke-width="5.0" stroke-linecap="round" stroke-linejoin="round" />
<path d="M 149.0 203.0 L 149.0 203.0 L 149.0 203.0 L 149.0 203.0 L 149.0 204.0 L 149.0 205.0 L 149.0 206.0 L 150.0 208.0 L 152.0 211.0 L 153.0 214.0 L 155.0 219.0 L 156.0 223.0 L 158.0 228.0 L 159.0 231.0 L 161.0 234.0 L 163.0 236.0 " stroke="black" fill="none" stroke-width="5.0" stroke-linecap="round" stroke-linejoin="round" />
<path d="M 201.0 205.0 L 202.0 205.0 L 203.0 205.0 L 204.0 204.0 L 204.0 204.0 L 205.0 204.0 L 205.0 204.0 L 205.0 204.0 L 205.0 204.0 L 205.0 204.0 L 205.0 204.0 L 204.0 205.0 L 203.0 207.0 L 201.0 208.0 L 200.0 211.0 L 198.0 214.0 L 196.0 218.0 L 194.0 221.0 L 192.0 225.0 L 191.0 229.0 L 189.0 232.0 " stroke="black" fill="none" stroke-width="5.0" stroke-linecap="round" stroke-linejoin="round" />
<path d="M 132.0 240.0 L 132.0 240.0 L 132.0 240.0 L 132.0 240.0 L 132.0 240.0 L 132.0 240.0 L 132.0 240.0 L 132.0 240.0 L 132.0 240.0 L 133.0 240.0 L 134.0 240.0 L 136.0 239.0 L 138.0 239.0 L 140.0 239.0 L 143.0 239.0 L 146.0 239.0 L 150.0 239.0 L 154.0 239.0 L 158.0 238.0 L 163.0 238.0 L 168.0 238.0 L 173.0 237.0 L 178.0 237.0 L 183.0 237.0 L 187.0 237.0 L 190.0 237.0 L 194.0 238.0 L 196.0 238.0 L 198.0 239.0 L 201.0 239.0 L 204.0 240.0 L 207.0 240.0 L 210.0 241.0 L 213.0 241.0 L 217.0 241.0 L 220.0 242.0 L 223.0 242.0 L 226.0 242.0 L 228.0 242.0 L 230.0 242.0 L 231.0 242.0 L 232.0 242.0 L 233.0 242.0 L 234.0 242.0 L 234.0 242.0 L 235.0 242.0 L 235.0 243.0 L 235.0 243.0 " stroke="black" fill="none" stroke-width="5.0" stroke-linecap="round" stroke-linejoin="round" />
</svg>