<svg xmlns="http://www.w3.org/2000/svg" width="300" height="300" viewBox="0 0 300 300">
<path d="M 71.0 82.0 L 71.0 82.0 L 71.0 82.0 L 71.0 82.0 L 71.0 82.0 L 71.0 82.0 L 71.0 82.0 L 71.0 82.0 L 71.0 82.0 L 71.0 82.0 L 71.0 82.0 L 71.0 82.0 L 71.0 82.0 L 71.0 82.0 L 71.0 82.0 L 71.0 82.0 L 71.0 82.0 L 71.0 82.0 L 71.0 82.0 L 71.0 82.0 L 71.0 82.0 L 72.0 82.0 L 72.0 82.0 L 73.0 82.0 L 73.0 82.0 L 74.0 83.0 L 74.0 83.0 L 75.0 83.0 L 75.0 83.0 L 76.0 83.0 L 76.0 83.0 L 76.0 84.0 L 77.0 84.0 L 77.0 84.0 L 77.0 84.0 L 78.0 84.0 L 78.0 84.0 L 79.0 84.0 L 79.0 84.0 L 80.0 84.0 L 80.0 84.0 L 81.0 85.0 L 81.0 85.0 L 82.0 85.0 L 82.0 85.0 L 83.0 85.0 L 84.0 85.0 L 84.0 85.0 L 85.0 85.0 L 85.0 85.0 L 86.0 85.0 L 87.0 85.0 L 87.0 85.0 L 88.0 85.0 L 88.0 85.0 L 89.0 85.0 L 89.0 85.0 L 90.0 85.0 L 90.0 85.0 L 91.0 85.0 L 91.0 85.0 L 92.0 85.0 L 92.0 85.0 L 93.0 85.0 L 93.0 85.0 L 94.0 85.0 L 94.0 85.0 L 95.0 85.0 L 95.0 85.0 L 96.0 85.0 L 96.0 85.0 L 97.0 85.0 L 97.0 85.0 L 98.0 85.0 L 98.0 85.0 L 99.0 85.0 L 100.0 85.0 L 100.0 85.0 L 100.0 85.0 L 101.0 85.0 L 101.0 85.0 L 102.0 85.0 L 102.0 85.0 L 103.0 85.0 L 103.0 85.0 L 103.0 84.0 L 104.0 84.0 L 104.0 84.0 L 105.0 84.0 L 105.0 84.0 L 106.0 84.0 L 106.0 84.0 L 107.0 84.0 L 107.0 84.0 L 108.0 84.0 L 108.0 83.0 L 109.0 83.0 L 109.0 83.0 L 110.0 83.0 L 110.0 83.0 L 111.0 83.0 L 111.0 83.0 L 112.0 83.0 L 112.0 83.0 L 112.0 83.0 L 113.0 83.0 L 113.0 83.0 L 114.0 83.0 L 114.0 83.0 L 115.0 83.0 L 116.0 83.0 L 116.0 83.0 L 117.0 83.0 L 117.0 83.0 L 118.0 83.0 L 119.0 83.0 L 119.0 83.0 L 120.0 83.0 L 121.0 82.0 L 121.0 82.0 L 122.0 82.0 L 123.0 82.0 L 124.0 82.0 L 125.0 82.0 L 126.0 82.0 L 127.0 81.0 L 128.0 81.0 L 129.0 81.0 L 130.0 81.0 L 131.0 81.0 L 132.0 80.0 L 133.0 80.0 L 133.0 80.0 L 135.0 80.0 L 135.0 80.0 L 136.0 80.0 L 137.0 80.0 L 138.0 80.0 L 139.0 80.0 L 139.0 80.0 L 140.0 80.0 L 141.0 80.0 L 141.0 80.0 L 142.0 79.0 L 143.0 79.0 L 143.0 79.0 L 144.0 79.0 L 144.0 79.0 L 144.0 79.0 L 145.0 79.0 L 145.0 79.0 L 146.0 79.0 L 146.0 79.0 L 146.0 79.0 L 147.0 79.0 L 147.0 79.0 L 147.0 79.0 L 148.0 79.0 L 148.0 79.0 L 148.0 79.0 L 149.0 79.0 L 149.0 79.0 L 149.0 79.0 L 149.0 79.0 L 150.0 79.0 L 150.0 79.0 L 150.0 79.0 L 151.0 79.0 L 151.0 79.0 L 152.0 78.0 L 152.0 78.0 L 152.0 78.0 L 152.0 78.0 L 153.0 78.0 L 153.0 78.0 L 153.0 78.0 L 154.0 78.0 L 154.0 78.0 L 154.0 78.0 L 155.0 78.0 L 155.0 78.0 L 155.0 78.0 L 156.0 78.0 L 156.0 78.0 L 157.0 78.0 L 157.0 78.0 L 157.0 78.0 L 158.0 78.0 L 158.0 78.0 L 159.0 78.0 L 159.0 78.0 L 160.0 78.0 L 160.0 78.0 L 161.0 78.0 L 162.0 78.0 L 162.0 78.0 L 163.0 78.0 L 163.0 78.0 L 164.0 78.0 L 165.0 78.0 L 165.0 78.0 L 166.0 78.0 L 167.0 78.0 L 168.0 78.0 L 168.0 78.0 L 169.0 78.0 L 170.0 78.0 L 170.0 78.0 L 171.0 78.0 L 172.0 78.0 L 173.0 78.0 L 174.0 78.0 L 175.0 78.0 L 175.0 78.0 L 176.0 78.0 L 177.0 78.0 L 178.0 78.0 L 178.0 78.0 L 179.0 78.0 L 180.0 78.0 L 180.0 78.0 L 181.0 78.0 L 182.0 77.0 L 183.0 77.0 L 183.0 77.0 L 184.0 77.0 L 184.0 77.0 L 185.0 77.0 L 185.0 77.0 L 186.0 77.0 L 187.0 77.0 L 187.0 77.0 L 188.0 77.0 L 188.0 77.0 L 189.0 76.0 L 189.0 76.0 L 189.0 76.0 L 190.0 76.0 L 190.0 76.0 L 191.0 76.0 L 191.0 76.0 L 191.0 76.0 L 192.0 76.0 L 192.0 76.0 L 192.0 75.0 L 193.0 75.0 L 193.0 75.0 L 193.0 75.0 L 193.0 75.0 L 194.0 75.0 L 194.0 75.0 L 194.0 75.0 L 195.0 75.0 L 195.0 74.0 L 195.0 74.0 L 196.0 74.0 L 196.0 74.0 L 196.0 74.0 L 196.0 74.0 L 197.0 74.0 L 197.0 74.0 L 197.0 73.0 L 198.0 73.0 L 198.0 73.0 L 198.0 73.0 L 198.0 73.0 L 199.0 73.0 L 199.0 73.0 L 199.0 73.0 L 200.0 73.0 L 200.0 73.0 L 200.0 73.0 L 200.0 73.0 L 201.0 73.0 L 201.0 73.0 L 201.0 73.0 L 201.0 73.0 L 202.0 73.0 L 202.0 73.0 L 202.0 73.0 L 203.0 73.0 L 203.0 73.0 L 203.0 73.0 L 203.0 73.0 L 204.0 73.0 L 204.0 73.0 L 204.0 73.0 L 204.0 73.0 L 204.0 73.0 L 205.0 73.0 L 205.0 73.0 L 205.0 73.0 L 205.0 73.0 L 205.0 74.0 L 205.0 74.0 L 206.0 74.0 L 206.0 74.0 L 206.0 74.0 L 206.0 74.0 L 207.0 74.0 L 207.0 74.0 L 207.0 74.0 L 207.0 74.0 L 207.0 74.0 L 208.0 74.0 L 208.0 74.0 L 208.0 74.0 L 209.0 74.0 L 209.0 74.0 L 209.0 74.0 L 209.0 74.0 L 209.0 74.0 L 210.0 74.0 L 210.0 74.0 L 210.0 74.0 L 210.0 74.0 L 211.0 74.0 L 211.0 74.0 L 211.0 74.0 L 212.0 74.0 L 212.0 74.0 L 212.0 74.0 L 213.0 74.0 L 213.0 74.0 L 213.0 74.0 L 214.0 74.0 L 214.0 74.0 L 214.0 74.0 L 215.0 74.0 L 215.0 74.0 L 216.0 73.0 L 216.0 73.0 L 216.0 73.0 L 217.0 73.0 L 217.0 73.0 L 218.0 73.0 L 218.0 73.0 " stroke="black" fill="none" stroke-width="5.0" stroke-linecap="round" stroke-linejoin="round" />
<path d="M 93.0 91.0 L 93.0 91.0 L 92.0 91.0 L 92.0 91.0 L 91.0 91.0 L 91.0 91.0 L 91.0 91.0 L 91.0 91.0 L 91.0 91.0 L 92.0 91.0 L 93.0 92.0 L 95.0 93.0 L 98.0 94.0 L 100.0 96.0 L 102.0 98.0 L 103.0 99.0 " stroke="black" fill="none" stroke-width="5.0" stroke-linecap="round" stroke-linejoin="round" />
<path d="M 140.0 83.0 L 140.0 83.0 L 139.0 83.0 L 138.0 83.0 L 138.0 83.0 L 138.0 84.0 L 138.0 85.0 L 139.0 87.0 L 140.0 89.0 L 143.0 92.0 L 145.0 96.0 L 147.0 100.0 L 149.0 104.0 L 151.0 108.0 L 152.0 111.0 L 153.0 112.0 " stroke="black" fill="none" stroke-width="5.0" stroke-linecap="round" stroke-linejoin="round" />
<path d="M 207.0 80.0 L 207.0 80.0 L 207.0 80.0 L 207.0 80.0 L 207.0 80.0 L 207.0 80.0 L 206.0 80.0 L 206.0 81.0 L 204.0 84.0 L 203.0 87.0 L 201.0 91.0 L 198.0 96.0 L 196.0 101.0 L 194.0 106.0 L 192.0 110.0 " stroke="black" fill="none" stroke-width="5.0" stroke-linecap="round" stroke-linejoin="round" />
<path d="M 78.0 116.0 L 78.0 116.0 L 78.0 116.0 L 78.0 116.0 L 77.0 115.0 L 77.0 115.0 L 76.0 115.0 L 76.0 115.0 L 76.0 116.0 L 76.0 118.0 L 76.0 121.0 L 77.0 125.0 L 77.0 130.0 L 78.0 135.0 L 78.0 141.0 L 78.0 146.0 L 79.0 151.0 L 79.0 153.0 " stroke="black" fill="none" stroke-width="5.0" stroke-linecap="round" stroke-linejoin="round" />
<path d="M 81.0 117.0 L 81.0 117.0 L 81.0 117.0 L 80.0 117.0 L 80.0 117.0 L 80.0 117.0 L 80.0 117.0 L 79.0 117.0 L 79.0 117.0 L 79.0 117.0 L 79.0 117.0 L 79.0 117.0 L 80.0 117.0 L 81.0 117.0 L 82.0 117.0 L 84.0 117.0 L 86.0 117.0 L 89.0 117.0 L 91.0 116.0 L 94.0 116.0 L 96.0 116.0 L 98.0 116.0 L 100.0 115.0 L 102.0 115.0 L 104.0 115.0 L 106.0 115.0 L 107.0 114.0 L 109.0 114.0 L 110.0 114.0 L 111.0 114.0 L 112.0 113.0 L 114.0 113.0 L 115.0 113.0 L 116.0 113.0 L 117.0 113.0 L 118.0 113.0 L 119.0 113.0 L 120.0 113.0 L 121.0 112.0 L 122.0 112.0 L 123.0 112.0 L 125.0 112.0 L 126.0 112.0 L 127.0 112.0 L 128.0 112.0 L 129.0 112.0 L 130.0 112.0 L 131.0 112.0 L 133.0 112.0 L 134.0 112.0 L 135.0 112.0 L 136.0 112.0 L 137.0 112.0 L 138.0 112.0 L 139.0 112.0 L 141.0 113.0 L 142.0 113.0 L 143.0 113.0 L 144.0 113.0 L 145.0 114.0 L 146.0 114.0 L 147.0 114.0 L 148.0 114.0 L 150.0 114.0 L 151.0 114.0 L 152.0 114.0 L 153.0 114.0 L 154.0 114.0 L 155.0 114.0 L 156.0 114.0 L 157.0 114.0 L 158.0 114.0 L 159.0 114.0 L 160.0 114.0 L 162.0 114.0 L 163.0 114.0 L 164.0 114.0 L 166.0 114.0 L 167.0 114.0 L 168.0 114.0 L 170.0 114.0 L 171.0 114.0 L 172.0 114.0 L 174.0 114.0 L 175.0 114.0 L 177.0 114.0 L 178.0 114.0 L 179.0 114.0 L 181.0 114.0 L 182.0 114.0 L 183.0 114.0 L 185.0 114.0 L 186.0 114.0 L 187.0 114.0 L 188.0 114.0 L 189.0 114.0 L 190.0 114.0 L 191.0 114.0 L 192.0 114.0 L 192.0 114.0 L 193.0 114.0 L 194.0 114.0 L 194.0 114.0 L 195.0 114.0 L 196.0 114.0 L 197.0 114.0 L 197.0 114.0 L 198.0 114.0 L 199.0 114.0 L 200.0 114.0 L 201.0 114.0 L 202.0 114.0 L 203.0 114.0 L 204.0 114.0 L 205.0 114.0 L 206.0 114.0 L 208.0 114.0 L 209.0 114.0 L 210.0 114.0 L 211.0 114.0 L 212.0 114.0 L 213.0 114.0 L 215.0 114.0 L 216.0 114.0 L 217.0 114.0 L 218.0 114.0 L 219.0 114.0 L 221.0 114.0 L 222.0 115.0 L 223.0 115.0 L 224.0 115.0 L 225.0 115.0 L 225.0 115.0 L 226.0 115.0 L 227.0 115.0 L 227.0 116.0 L 227.0 116.0 L 228.0 116.0 L 228.0 116.0 L 228.0 116.0 L 228.0 116.0 L 228.0 116.0 L 228.0 117.0 L 228.0 118.0 L 228.0 118.0 L 228.0 120.0 L 227.0 121.0 L 227.0 123.0 L 227.0 126.0 L 226.0 129.0 L 226.0 133.0 L 225.0 138.0 L 225.0 142.0 L 224.0 145.0 " stroke="black" fill="none" stroke-width="5.0" stroke-linecap="round" stroke-linejoin="round" />
<path d="M 125.0 116.0 L 125.0 116.0 L 125.0 115.0 L 125.0 115.0 L 125.0 114.0 L 125.0 114.0 L 125.0 114.0 L 125.0 114.0 L 125.0 114.0 L 126.0 114.0 L 126.0 115.0 L 126.0 118.0 L 127.0 121.0 L 127.0 126.0 L 127.0 131.0 L 128.0 136.0 L 128.0 142.0 L 128.0 147.0 L 129.0 150.0 L 130.0 152.0 " stroke="black" fill="none" stroke-width="5.0" stroke-linecap="round" stroke-linejoin="round" />
<path d="M 171.0 121.0 L 171.0 121.0 L 171.0 121.0 L 170.0 122.0 L 170.0 123.0 L 170.0 124.0 L 170.0 126.0 L 170.0 128.0 L 170.0 132.0 L 171.0 136.0 L 171.0 141.0 L 171.0 146.0 L 170.0 151.0 L 169.0 153.0 " stroke="black" fill="none" stroke-width="5.0" stroke-linecap="round" stroke-linejoin="round" />
<path d="M 82.0 147.0 L 81.0 147.0 L 79.0 147.0 L 78.0 148.0 L 77.0 148.0 L 76.0 149.0 L 75.0 149.0 L 75.0 150.0 L 75.0 150.0 L 75.0 150.0 L 76.0 150.0 L 77.0 150.0 L 78.0 150.0 L 80.0 150.0 L 81.0 150.0 L 83.0 150.0 L 84.0 150.0 L 86.0 150.0 L 87.0 150.0 L 89.0 150.0 L 91.0 150.0 L 92.0 150.0 L 94.0 151.0 L 96.0 151.0 L 98.0 151.0 L 99.0 151.0 L 101.0 151.0 L 103.0 151.0 L 105.0 151.0 L 106.0 151.0 L 107.0 151.0 L 109.0 151.0 L 110.0 151.0 L 112.0 151.0 L 113.0 151.0 L 115.0 151.0 L 116.0 151.0 L 118.0 151.0 L 120.0 151.0 L 121.0 151.0 L 123.0 151.0 L 126.0 151.0 L 128.0 151.0 L 130.0 151.0 L 132.0 151.0 L 135.0 151.0 L 137.0 151.0 L 139.0 151.0 L 141.0 151.0 L 142.0 151.0 L 144.0 152.0 L 146.0 152.0 L 147.0 152.0 L 148.0 153.0 L 150.0 153.0 L 151.0 153.0 L 152.0 153.0 L 153.0 153.0 L 154.0 153.0 L 155.0 153.0 L 156.0 153.0 L 157.0 153.0 L 158.0 153.0 L 160.0 153.0 L 161.0 153.0 L 163.0 153.0 L 164.0 153.0 L 166.0 153.0 L 168.0 153.0 L 170.0 153.0 L 173.0 153.0 L 175.0 153.0 L 177.0 153.0 L 179.0 153.0 L 182.0 153.0 L 184.0 153.0 L 186.0 153.0 L 188.0 153.0 L 190.0 153.0 L 191.0 153.0 L 193.0 153.0 L 194.0 153.0 L 195.0 153.0 L 197.0 152.0 L 198.0 152.0 L 199.0 152.0 L 201.0 152.0 L 203.0 152.0 L 205.0 152.0 L 207.0 152.0 L 209.0 152.0 L 211.0 152.0 L 213.0 152.0 L 215.0 151.0 L 217.0 151.0 L 219.0 151.0 L 221.0 151.0 L 223.0 150.0 L 225.0 150.0 L 226.0 150.0 L 227.0 150.0 L 227.0 150.0 L 228.0 150.0 L 228.0 150.0 L 228.0 150.0 " stroke="black" fill="none" stroke-width="5.0" stroke-linecap="round" stroke-linejoin="round" />
<path d="M 84.0 166.0 L 84.0 166.0 L 83.0 166.0 L 82.0 166.0 L 82.0 166.0 L 81.0 166.0 L 81.0 166.0 L 81.0 166.0 L 81.0 166.0 L 81.0 166.0 L 81.0 166.0 L 81.0 166.0 L 81.0 166.0 L 82.0 166.0 L 83.0 166.0 L 84.0 166.0 L 85.0 166.0 L 87.0 166.0 L 88.0 166.0 L 90.0 166.0 L 91.0 165.0 L 93.0 165.0 L 95.0 165.0 L 96.0 165.0 L 98.0 165.0 L 99.0 165.0 L 101.0 165.0 L 102.0 165.0 L 103.0 165.0 L 104.0 165.0 L 105.0 165.0 L 106.0 165.0 L 107.0 165.0 L 108.0 166.0 L 108.0 166.0 L 109.0 166.0 L 110.0 166.0 L 110.0 166.0 L 111.0 166.0 L 111.0 166.0 L 112.0 166.0 L 112.0 166.0 L 113.0 166.0 L 114.0 167.0 L 114.0 167.0 L 115.0 167.0 L 116.0 167.0 L 116.0 167.0 L 117.0 168.0 L 118.0 168.0 L 119.0 168.0 L 120.0 168.0 L 121.0 168.0 L 123.0 168.0 L 124.0 168.0 L 125.0 168.0 L 126.0 168.0 L 127.0 168.0 L 128.0 168.0 L 129.0 169.0 L 130.0 169.0 L 130.0 169.0 L 131.0 169.0 L 131.0 169.0 L 131.0 170.0 L 132.0 170.0 L 132.0 170.0 L 132.0 170.0 L 132.0 171.0 L 132.0 171.0 L 132.0 172.0 L 131.0 173.0 L 130.0 174.0 L 129.0 176.0 L 128.0 178.0 L 128.0 180.0 L 127.0 182.0 L 127.0 185.0 L 126.0 188.0 L 126.0 192.0 L 125.0 195.0 L 125.0 199.0 L 125.0 202.0 L 125.0 204.0 L 125.0 206.0 L 125.0 207.0 L 125.0 207.0 " stroke="black" fill="none" stroke-width="5.0" stroke-linecap="round" stroke-linejoin="round" />
<path d="M 86.0 187.0 L 85.0 187.0 L 84.0 187.0 L 83.0 187.0 L 82.0 187.0 L 82.0 187.0 L 82.0 187.0 L 82.0 187.0 L 83.0 187.0 L 86.0 187.0 L 89.0 187.0 L 93.0 187.0 L 96.0 187.0 L 100.0 187.0 L 104.0 187.0 L 107.0 187.0 L 111.0 186.0 L 114.0 186.0 L 117.0 185.0 L 119.0 184.0 L 122.0 184.0 L 122.0 183.0 " stroke="black" fill="none" stroke-width="5.0" stroke-linecap="round" stroke-linejoin="round" />
<path d="M 92.0 208.0 L 92.0 208.0 L 90.0 208.0 L 90.0 209.0 L 89.0 209.0 L 89.0 209.0 L 89.0 209.0 L 89.0 209.0 L 89.0 210.0 L 91.0 210.0 L 93.0 210.0 L 96.0 210.0 L 99.0 210.0 L 102.0 210.0 L 106.0 209.0 L 109.0 208.0 L 113.0 207.0 L 117.0 205.0 L 121.0 204.0 L 125.0 203.0 L 126.0 202.0 " stroke="black" fill="none" stroke-width="5.0" stroke-linecap="round" stroke-linejoin="round" />
<path d="M 86.0 167.0 L 86.0 167.0 L 85.0 167.0 L 84.0 168.0 L 84.0 169.0 L 84.0 169.0 L 83.0 171.0 L 83.0 172.0 L 83.0 174.0 L 83.0 177.0 L 83.0 180.0 L 83.0 184.0 L 83.0 188.0 L 83.0 193.0 L 83.0 198.0 L 82.0 202.0 L 82.0 206.0 L 81.0 211.0 L 81.0 215.0 L 80.0 218.0 L 80.0 221.0 L 80.0 224.0 L 80.0 226.0 L 80.0 228.0 L 80.0 230.0 L 80.0 232.0 L 80.0 234.0 L 80.0 236.0 L 79.0 238.0 L 79.0 240.0 L 79.0 242.0 L 78.0 243.0 L 78.0 244.0 L 78.0 245.0 L 78.0 245.0 L 78.0 245.0 L 78.0 245.0 L 78.0 245.0 L 78.0 245.0 L 78.0 245.0 L 78.0 245.0 L 78.0 245.0 L 78.0 245.0 L 78.0 245.0 L 78.0 245.0 L 79.0 245.0 L 79.0 245.0 L 79.0 245.0 L 79.0 245.0 L 79.0 245.0 L 80.0 245.0 L 80.0 245.0 L 81.0 245.0 L 82.0 245.0 L 84.0 245.0 L 86.0 245.0 L 88.0 245.0 L 91.0 245.0 L 95.0 244.0 L 99.0 244.0 L 103.0 243.0 L 106.0 242.0 L 110.0 241.0 L 114.0 240.0 L 118.0 239.0 L 121.0 237.0 L 125.0 236.0 L 128.0 236.0 L 130.0 235.0 L 132.0 235.0 L 132.0 235.0 L 133.0 236.0 L 133.0 236.0 " stroke="black" fill="none" stroke-width="5.0" stroke-linecap="round" stroke-linejoin="round" />
<path d="M 119.0 218.0 L 119.0 218.0 L 118.0 218.0 L 118.0 218.0 L 117.0 218.0 L 116.0 218.0 L 116.0 218.0 L 116.0 218.0 L 116.0 219.0 L 117.0 220.0 L 119.0 222.0 L 121.0 225.0 L 125.0 229.0 L 128.0 234.0 L 132.0 239.0 L 136.0 244.0 L 139.0 249.0 L 142.0 251.0 L 144.0 252.0 L 145.0 252.0 " stroke="black" fill="none" stroke-width="5.0" stroke-linecap="round" stroke-linejoin="round" />
<path d="M 160.0 183.0 L 160.0 183.0 L 160.0 182.0 L 160.0 181.0 L 160.0 180.0 L 159.0 180.0 L 159.0 180.0 L 159.0 180.0 L 158.0 180.0 L 158.0 180.0 L 158.0 180.0 L 158.0 180.0 L 158.0 180.0 L 158.0 181.0 L 158.0 181.0 L 158.0 181.0 L 159.0 181.0 L 160.0 181.0 L 161.0 182.0 L 163.0 182.0 L 164.0 182.0 L 166.0 182.0 L 169.0 183.0 L 171.0 183.0 L 173.0 184.0 L 175.0 184.0 L 178.0 184.0 L 180.0 184.0 L 183.0 184.0 L 185.0 184.0 L 187.0 184.0 L 190.0 184.0 L 192.0 184.0 L 193.0 183.0 L 195.0 183.0 L 197.0 183.0 L 198.0 183.0 L 200.0 182.0 L 201.0 182.0 L 203.0 182.0 L 205.0 181.0 L 206.0 181.0 L 208.0 181.0 L 210.0 180.0 L 212.0 180.0 L 214.0 180.0 L 216.0 179.0 L 218.0 179.0 L 219.0 179.0 L 221.0 179.0 L 223.0 179.0 L 224.0 179.0 L 226.0 179.0 L 227.0 179.0 L 228.0 179.0 L 229.0 180.0 L 230.0 180.0 L 231.0 180.0 L 232.0 180.0 L 233.0 180.0 L 234.0 180.0 L 235.0 180.0 L 235.0 180.0 L 235.0 180.0 L 235.0 180.0 L 236.0 180.0 L 236.0 180.0 L 236.0 180.0 " stroke="black" fill="none" stroke-width="5.0" stroke-linecap="round" stroke-linejoin="round" />
<path d="M 211.0 161.0 L 211.0 161.0 L 211.0 161.0 L 210.0 161.0 L 210.0 161.0 L 210.0 161.0 L 210.0 161.0 L 210.0 162.0 L 210.0 163.0 L 210.0 164.0 L 210.0 166.0 L 211.0 168.0 L 212.0 171.0 L 212.0 174.0 L 213.0 178.0 L 214.0 183.0 L 214.0 188.0 L 214.0 193.0 L 214.0 199.0 L 214.0 204.0 L 214.0 208.0 L 213.0 211.0 L 212.0 215.0 L 211.0 217.0 L 210.0 219.0 L 210.0 222.0 L 209.0 225.0 L 208.0 228.0 L 208.0 232.0 L 207.0 235.0 L 207.0 237.0 L 207.0 240.0 L 206.0 242.0 L 206.0 244.0 L 206.0 245.0 L 205.0 247.0 L 205.0 248.0 L 205.0 248.0 L 204.0 249.0 L 204.0 249.0 L 204.0 250.0 L 204.0 250.0 L 204.0 250.0 L 203.0 250.0 L 203.0 251.0 L 203.0 251.0 L 202.0 252.0 L 202.0 252.0 L 202.0 252.0 L 201.0 252.0 L 201.0 252.0 L 200.0 252.0 L 200.0 252.0 L 199.0 252.0 L 198.0 252.0 L 197.0 252.0 L 197.0 252.0 L 196.0 252.0 L 195.0 251.0 L 194.0 251.0 L 193.0 250.0 L 192.0 250.0 L 190.0 249.0 L 189.0 248.0 L 187.0 248.0 L 184.0 247.0 L 182.0 245.0 L 180.0 243.0 " stroke="black" fill="none" stroke-width="5.0" stroke-linecap="round" stroke-linejoin="round" />
<path d="M 169.0 199.0 L 169.0 199.0 L 168.0 198.0 L 167.0 198.0 L 166.0 197.0 L 165.0 197.0 L 164.0 197.0 L 164.0 197.0 L 164.0 197.0 L 164.0 197.0 L 165.0 198.0 L 167.0 199.0 L 170.0 202.0 L 173.0 204.0 L 177.0 208.0 L 180.0 212.0 L 183.0 217.0 L 187.0 223.0 L 189.0 229.0 L 191.0 233.0 L 193.0 237.0 L 194.0 238.0 " stroke="black" fill="none" stroke-width="5.0" stroke-linecap="round" stroke-linejoin="round" />
</svg>