<svg xmlns="http://www.w3.org/2000/svg" width="300" height="300" viewBox="0 0 300 300">
<path d="M 67.0 80.0 L 67.0 80.0 L 67.0 80.0 L 67.0 80.0 L 67.0 80.0 L 67.0 80.0 L 67.0 79.0 L 67.0 79.0 L 66.0 79.0 L 66.0 79.0 L 66.0 80.0 L 66.0 81.0 L 66.0 84.0 L 67.0 87.0 L 67.0 91.0 L 67.0 95.0 L 68.0 99.0 L 68.0 102.0 L 69.0 105.0 L 69.0 106.0 L 69.0 107.0 " stroke="black" fill="none" stroke-width="5.0" stroke-linecap="round" stroke-linejoin="round" />
<path d="M 68.0 78.0 L 68.0 78.0 L 67.0 78.0 L 67.0 78.0 L 66.0 78.0 L 66.0 78.0 L 66.0 78.0 L 66.0 78.0 L 66.0 78.0 L 66.0 78.0 L 66.0 78.0 L 68.0 78.0 L 69.0 78.0 L 72.0 78.0 L 75.0 78.0 L 78.0 77.0 L 82.0 77.0 L 87.0 77.0 L 92.0 77.0 L 97.0 77.0 L 100.0 77.0 L 103.0 77.0 L 105.0 77.0 L 106.0 77.0 L 107.0 78.0 L 107.0 79.0 L 106.0 81.0 L 105.0 83.0 L 103.0 87.0 L 102.0 90.0 L 100.0 94.0 L 98.0 98.0 L 96.0 102.0 L 94.0 105.0 L 92.0 108.0 " stroke="black" fill="none" stroke-width="5.0" stroke-linecap="round" stroke-linejoin="round" />
<path d="M 73.0 105.0 L 72.0 105.0 L 70.0 106.0 L 70.0 106.0 L 70.0 106.0 L 70.0 106.0 L 72.0 106.0 L 74.0 106.0 L 78.0 106.0 L 82.0 106.0 L 87.0 105.0 L 92.0 105.0 L 97.0 104.0 L 100.0 103.0 " stroke="black" fill="none" stroke-width="5.0" stroke-linecap="round" stroke-linejoin="round" />
<path d="M 118.0 79.0 L 118.0 79.0 L 118.0 79.0 L 118.0 79.0 L 118.0 79.0 L 118.0 79.0 L 118.0 79.0 L 118.0 79.0 L 118.0 79.0 L 118.0 80.0 L 118.0 82.0 L 118.0 85.0 L 119.0 88.0 L 119.0 92.0 L 119.0 95.0 L 119.0 98.0 L 120.0 101.0 L 121.0 102.0 L 121.0 102.0 " stroke="black" fill="none" stroke-width="5.0" stroke-linecap="round" stroke-linejoin="round" />
<path d="M 121.0 79.0 L 121.0 79.0 L 121.0 79.0 L 120.0 79.0 L 119.0 79.0 L 119.0 79.0 L 119.0 79.0 L 119.0 79.0 L 121.0 79.0 L 124.0 79.0 L 128.0 78.0 L 132.0 78.0 L 136.0 77.0 L 140.0 77.0 L 144.0 77.0 L 147.0 77.0 L 150.0 77.0 L 152.0 77.0 L 152.0 78.0 L 153.0 80.0 L 153.0 82.0 L 153.0 84.0 L 152.0 86.0 L 151.0 89.0 L 150.0 92.0 L 149.0 95.0 L 148.0 98.0 L 147.0 100.0 " stroke="black" fill="none" stroke-width="5.0" stroke-linecap="round" stroke-linejoin="round" />
<path d="M 120.0 108.0 L 120.0 108.0 L 118.0 108.0 L 117.0 108.0 L 116.0 108.0 L 116.0 108.0 L 116.0 108.0 L 116.0 108.0 L 118.0 108.0 L 121.0 108.0 L 125.0 108.0 L 129.0 107.0 L 134.0 107.0 L 138.0 106.0 L 143.0 105.0 L 146.0 104.0 L 148.0 104.0 " stroke="black" fill="none" stroke-width="5.0" stroke-linecap="round" stroke-linejoin="round" />
<path d="M 72.0 124.0 L 72.0 124.0 L 72.0 124.0 L 72.0 124.0 L 72.0 124.0 L 72.0 124.0 L 72.0 124.0 L 72.0 124.0 L 72.0 125.0 L 72.0 126.0 L 72.0 128.0 L 72.0 131.0 L 72.0 136.0 L 73.0 142.0 L 73.0 150.0 L 73.0 157.0 L 73.0 164.0 L 73.0 169.0 L 73.0 172.0 L 73.0 174.0 L 73.0 174.0 " stroke="black" fill="none" stroke-width="5.0" stroke-linecap="round" stroke-linejoin="round" />
<path d="M 79.0 122.0 L 79.0 122.0 L 78.0 122.0 L 78.0 122.0 L 77.0 122.0 L 77.0 122.0 L 76.0 122.0 L 76.0 123.0 L 76.0 123.0 L 75.0 123.0 L 75.0 123.0 L 75.0 123.0 L 75.0 123.0 L 75.0 123.0 L 76.0 123.0 L 77.0 123.0 L 79.0 123.0 L 80.0 123.0 L 82.0 123.0 L 83.0 123.0 L 85.0 122.0 L 87.0 122.0 L 89.0 122.0 L 91.0 122.0 L 93.0 122.0 L 94.0 122.0 L 96.0 122.0 L 98.0 122.0 L 99.0 122.0 L 101.0 122.0 L 102.0 122.0 L 103.0 122.0 L 105.0 122.0 L 106.0 122.0 L 107.0 122.0 L 108.0 122.0 L 109.0 122.0 L 110.0 122.0 L 111.0 122.0 L 112.0 122.0 L 114.0 122.0 L 115.0 122.0 L 116.0 122.0 L 117.0 122.0 L 119.0 122.0 L 120.0 122.0 L 122.0 122.0 L 123.0 122.0 L 125.0 122.0 L 127.0 122.0 L 129.0 122.0 L 130.0 123.0 L 132.0 123.0 L 134.0 123.0 L 136.0 123.0 L 137.0 123.0 L 139.0 123.0 L 140.0 123.0 L 141.0 123.0 L 143.0 124.0 L 144.0 124.0 L 145.0 124.0 L 146.0 124.0 L 146.0 124.0 L 147.0 124.0 L 148.0 124.0 L 148.0 124.0 L 148.0 124.0 L 149.0 124.0 L 149.0 124.0 L 149.0 124.0 L 149.0 125.0 L 149.0 125.0 L 149.0 125.0 L 149.0 125.0 L 149.0 126.0 L 149.0 127.0 L 149.0 128.0 L 149.0 129.0 L 149.0 130.0 L 149.0 132.0 L 149.0 135.0 L 148.0 138.0 L 148.0 143.0 L 148.0 147.0 L 148.0 152.0 L 147.0 156.0 L 147.0 159.0 L 147.0 161.0 L 146.0 163.0 L 146.0 164.0 L 146.0 165.0 " stroke="black" fill="none" stroke-width="5.0" stroke-linecap="round" stroke-linejoin="round" />
<path d="M 80.0 151.0 L 80.0 151.0 L 80.0 151.0 L 80.0 151.0 L 80.0 151.0 L 80.0 151.0 L 80.0 151.0 L 80.0 151.0 L 80.0 150.0 L 81.0 150.0 L 83.0 150.0 L 85.0 150.0 L 89.0 150.0 L 93.0 150.0 L 97.0 150.0 L 102.0 149.0 L 107.0 149.0 L 112.0 148.0 L 117.0 148.0 L 122.0 147.0 L 127.0 147.0 L 130.0 146.0 L 133.0 146.0 L 136.0 146.0 L 137.0 146.0 L 138.0 146.0 L 139.0 146.0 L 139.0 146.0 " stroke="black" fill="none" stroke-width="5.0" stroke-linecap="round" stroke-linejoin="round" />
<path d="M 112.0 127.0 L 112.0 127.0 L 111.0 127.0 L 110.0 127.0 L 110.0 127.0 L 109.0 128.0 L 109.0 129.0 L 109.0 131.0 L 109.0 134.0 L 109.0 139.0 L 109.0 144.0 L 109.0 149.0 L 108.0 155.0 L 108.0 160.0 L 108.0 164.0 L 107.0 167.0 L 107.0 170.0 L 106.0 172.0 " stroke="black" fill="none" stroke-width="5.0" stroke-linecap="round" stroke-linejoin="round" />
<path d="M 86.0 170.0 L 85.0 170.0 L 83.0 170.0 L 81.0 170.0 L 80.0 170.0 L 79.0 170.0 L 78.0 170.0 L 77.0 170.0 L 77.0 170.0 L 77.0 170.0 L 77.0 170.0 L 77.0 170.0 L 77.0 170.0 L 78.0 171.0 L 80.0 171.0 L 82.0 172.0 L 85.0 172.0 L 88.0 173.0 L 93.0 173.0 L 98.0 173.0 L 103.0 171.0 L 109.0 170.0 L 116.0 167.0 L 123.0 166.0 L 129.0 165.0 L 135.0 164.0 L 139.0 164.0 L 141.0 165.0 L 143.0 167.0 L 144.0 169.0 L 144.0 170.0 " stroke="black" fill="none" stroke-width="5.0" stroke-linecap="round" stroke-linejoin="round" />
<path d="M 64.0 191.0 L 64.0 191.0 L 64.0 191.0 L 64.0 191.0 L 64.0 192.0 L 64.0 192.0 L 63.0 192.0 L 63.0 192.0 L 63.0 192.0 L 63.0 192.0 L 63.0 192.0 L 63.0 192.0 L 63.0 192.0 L 64.0 192.0 L 64.0 192.0 L 65.0 192.0 L 66.0 192.0 L 67.0 192.0 L 68.0 192.0 L 69.0 192.0 L 71.0 192.0 L 73.0 192.0 L 74.0 192.0 L 76.0 192.0 L 79.0 192.0 L 81.0 192.0 L 84.0 192.0 L 86.0 192.0 L 89.0 192.0 L 91.0 192.0 L 93.0 192.0 L 95.0 192.0 L 97.0 192.0 L 99.0 192.0 L 100.0 192.0 L 102.0 192.0 L 103.0 192.0 L 105.0 192.0 L 106.0 192.0 L 107.0 192.0 L 108.0 192.0 L 110.0 192.0 L 111.0 192.0 L 112.0 192.0 L 114.0 192.0 L 115.0 191.0 L 117.0 191.0 L 119.0 191.0 L 120.0 191.0 L 122.0 190.0 L 124.0 190.0 L 126.0 190.0 L 128.0 190.0 L 130.0 190.0 L 133.0 190.0 L 135.0 190.0 L 137.0 190.0 L 140.0 190.0 L 142.0 190.0 L 145.0 190.0 L 147.0 190.0 L 149.0 190.0 L 151.0 190.0 L 152.0 190.0 L 153.0 189.0 L 154.0 189.0 L 155.0 189.0 L 156.0 189.0 L 156.0 189.0 L 156.0 189.0 " stroke="black" fill="none" stroke-width="5.0" stroke-linecap="round" stroke-linejoin="round" />
<path d="M 75.0 212.0 L 75.0 212.0 L 75.0 212.0 L 75.0 212.0 L 75.0 212.0 L 75.0 212.0 L 75.0 212.0 L 75.0 212.0 L 75.0 212.0 L 75.0 212.0 L 75.0 213.0 L 75.0 215.0 L 76.0 218.0 L 76.0 221.0 L 77.0 226.0 L 77.0 230.0 L 77.0 235.0 L 77.0 239.0 L 77.0 242.0 L 77.0 245.0 L 77.0 246.0 L 77.0 247.0 L 77.0 247.0 " stroke="black" fill="none" stroke-width="5.0" stroke-linecap="round" stroke-linejoin="round" />
<path d="M 81.0 213.0 L 81.0 213.0 L 81.0 213.0 L 81.0 213.0 L 81.0 213.0 L 81.0 213.0 L 81.0 213.0 L 81.0 213.0 L 81.0 213.0 L 81.0 213.0 L 81.0 213.0 L 81.0 213.0 L 81.0 213.0 L 81.0 213.0 L 82.0 213.0 L 83.0 213.0 L 84.0 213.0 L 86.0 213.0 L 87.0 213.0 L 89.0 213.0 L 91.0 213.0 L 93.0 213.0 L 95.0 213.0 L 97.0 213.0 L 99.0 213.0 L 101.0 213.0 L 103.0 212.0 L 104.0 212.0 L 106.0 212.0 L 107.0 212.0 L 109.0 212.0 L 110.0 212.0 L 111.0 212.0 L 112.0 212.0 L 114.0 212.0 L 115.0 212.0 L 116.0 212.0 L 117.0 212.0 L 119.0 212.0 L 120.0 212.0 L 121.0 212.0 L 123.0 212.0 L 124.0 212.0 L 126.0 212.0 L 128.0 212.0 L 129.0 212.0 L 131.0 213.0 L 132.0 213.0 L 134.0 213.0 L 135.0 213.0 L 137.0 213.0 L 137.0 213.0 L 139.0 214.0 L 139.0 214.0 L 140.0 214.0 L 141.0 214.0 L 141.0 214.0 L 141.0 214.0 L 141.0 214.0 L 141.0 214.0 L 141.0 214.0 L 141.0 214.0 L 141.0 214.0 L 141.0 214.0 L 141.0 214.0 L 141.0 215.0 L 140.0 216.0 L 140.0 218.0 L 139.0 220.0 L 139.0 222.0 L 138.0 226.0 L 137.0 230.0 L 136.0 233.0 L 136.0 237.0 L 135.0 240.0 L 135.0 242.0 L 135.0 244.0 L 135.0 245.0 " stroke="black" fill="none" stroke-width="5.0" stroke-linecap="round" stroke-linejoin="round" />
<path d="M 90.0 244.0 L 90.0 244.0 L 89.0 244.0 L 89.0 244.0 L 88.0 244.0 L 88.0 244.0 L 88.0 244.0 L 88.0 244.0 L 88.0 244.0 L 88.0 245.0 L 89.0 245.0 L 91.0 246.0 L 93.0 246.0 L 95.0 246.0 L 97.0 247.0 L 100.0 247.0 L 103.0 247.0 L 107.0 247.0 L 111.0 247.0 L 117.0 247.0 L 123.0 246.0 L 128.0 246.0 L 134.0 246.0 L 139.0 246.0 L 144.0 246.0 " stroke="black" fill="none" stroke-width="5.0" stroke-linecap="round" stroke-linejoin="round" />
<path d="M 165.0 132.0 L 165.0 132.0 L 164.0 132.0 L 164.0 132.0 L 164.0 132.0 L 163.0 132.0 L 163.0 132.0 L 163.0 133.0 L 163.0 133.0 L 163.0 133.0 L 163.0 133.0 L 164.0 133.0 L 165.0 133.0 L 166.0 133.0 L 167.0 133.0 L 169.0 133.0 L 170.0 132.0 L 172.0 132.0 L 174.0 132.0 L 176.0 132.0 L 178.0 132.0 L 181.0 132.0 L 183.0 131.0 L 185.0 131.0 L 187.0 131.0 L 189.0 131.0 L 191.0 131.0 L 192.0 131.0 L 194.0 131.0 L 195.0 131.0 L 196.0 131.0 L 198.0 131.0 L 199.0 131.0 L 200.0 132.0 L 202.0 132.0 L 204.0 132.0 L 206.0 132.0 L 208.0 132.0 L 211.0 132.0 L 214.0 132.0 L 217.0 132.0 L 220.0 132.0 L 223.0 132.0 L 226.0 132.0 L 228.0 133.0 L 231.0 133.0 L 233.0 133.0 L 235.0 134.0 L 236.0 134.0 L 237.0 134.0 L 238.0 135.0 L 239.0 135.0 L 239.0 135.0 L 239.0 135.0 " stroke="black" fill="none" stroke-width="5.0" stroke-linecap="round" stroke-linejoin="round" />
<path d="M 194.0 79.0 L 194.0 79.0 L 194.0 79.0 L 194.0 80.0 L 194.0 80.0 L 194.0 80.0 L 194.0 81.0 L 194.0 82.0 L 194.0 82.0 L 194.0 84.0 L 194.0 85.0 L 195.0 87.0 L 195.0 90.0 L 195.0 93.0 L 195.0 96.0 L 196.0 100.0 L 196.0 103.0 L 196.0 107.0 L 196.0 110.0 L 197.0 113.0 L 197.0 115.0 L 197.0 118.0 L 197.0 120.0 L 197.0 122.0 L 197.0 124.0 L 197.0 126.0 L 197.0 128.0 L 197.0 130.0 L 197.0 132.0 L 197.0 134.0 L 197.0 137.0 L 197.0 139.0 L 197.0 142.0 L 197.0 144.0 L 197.0 147.0 L 197.0 149.0 L 197.0 151.0 L 197.0 154.0 L 197.0 155.0 L 197.0 157.0 L 197.0 159.0 L 197.0 161.0 L 197.0 163.0 L 196.0 164.0 L 196.0 166.0 L 196.0 167.0 L 196.0 168.0 L 196.0 170.0 L 196.0 171.0 L 196.0 172.0 L 196.0 174.0 L 195.0 175.0 L 195.0 177.0 L 195.0 179.0 L 195.0 181.0 L 195.0 183.0 L 195.0 185.0 L 194.0 186.0 L 194.0 188.0 L 194.0 190.0 L 194.0 192.0 L 194.0 194.0 L 193.0 195.0 L 193.0 197.0 L 193.0 199.0 L 193.0 201.0 L 192.0 202.0 L 192.0 204.0 L 192.0 206.0 L 191.0 207.0 L 191.0 209.0 L 191.0 211.0 L 190.0 214.0 L 189.0 217.0 L 188.0 220.0 L 187.0 223.0 L 186.0 228.0 L 185.0 231.0 L 183.0 235.0 L 182.0 238.0 L 180.0 240.0 L 178.0 243.0 L 176.0 245.0 L 173.0 246.0 L 172.0 247.0 " stroke="black" fill="none" stroke-width="5.0" stroke-linecap="round" stroke-linejoin="round" />
<path d="M 198.0 145.0 L 198.0 145.0 L 198.0 145.0 L 198.0 144.0 L 198.0 144.0 L 197.0 144.0 L 197.0 144.0 L 197.0 144.0 L 197.0 144.0 L 197.0 144.0 L 197.0 144.0 L 197.0 146.0 L 197.0 147.0 L 198.0 149.0 L 199.0 151.0 L 199.0 153.0 L 200.0 156.0 L 201.0 159.0 L 202.0 162.0 L 203.0 165.0 L 204.0 168.0 L 205.0 172.0 L 207.0 175.0 L 208.0 179.0 L 209.0 183.0 L 210.0 187.0 L 211.0 191.0 L 212.0 195.0 L 213.0 198.0 L 214.0 201.0 L 215.0 204.0 L 216.0 206.0 L 218.0 209.0 L 219.0 211.0 L 221.0 214.0 L 223.0 217.0 L 225.0 220.0 L 227.0 225.0 L 229.0 229.0 L 232.0 234.0 L 234.0 238.0 L 235.0 242.0 L 237.0 244.0 L 237.0 245.0 L 238.0 246.0 L 239.0 247.0 L 239.0 247.0 L 240.0 247.0 L 240.0 247.0 L 241.0 247.0 " stroke="black" fill="none" stroke-width="5.0" stroke-linecap="round" stroke-linejoin="round" />
<path d="M 222.0 81.0 L 222.0 81.0 L 222.0 81.0 L 222.0 82.0 L 222.0 83.0 L 222.0 84.0 L 223.0 85.0 L 225.0 88.0 L 227.0 92.0 L 230.0 97.0 L 232.0 102.0 L 234.0 108.0 L 236.0 113.0 L 237.0 116.0 L 238.0 119.0 L 238.0 122.0 " stroke="black" fill="none" stroke-width="5.0" stroke-linecap="round" stroke-linejoin="round" />
</svg>