<svg xmlns="http://www.w3.org/2000/svg" width="300" height="300" viewBox="0 0 300 300">
<path d="M 68.0 92.0 L 67.0 92.0 L 66.0 92.0 L 66.0 91.0 L 65.0 91.0 L 64.0 91.0 L 64.0 91.0 L 64.0 90.0 L 64.0 90.0 L 64.0 90.0 L 65.0 90.0 L 67.0 91.0 L 71.0 92.0 L 75.0 92.0 L 82.0 93.0 L 89.0 93.0 L 97.0 93.0 L 105.0 93.0 L 110.0 92.0 L 114.0 92.0 L 116.0 92.0 " stroke="black" fill="none" stroke-width="5.0" stroke-linecap="round" stroke-linejoin="round" />
<path d="M 71.0 156.0 L 71.0 156.0 L 70.0 156.0 L 68.0 155.0 L 67.0 155.0 L 67.0 155.0 L 66.0 155.0 L 66.0 155.0 L 66.0 155.0 L 66.0 155.0 L 67.0 155.0 L 70.0 155.0 L 74.0 154.0 L 79.0 154.0 L 86.0 154.0 L 93.0 153.0 L 100.0 153.0 L 106.0 153.0 L 111.0 152.0 L 114.0 152.0 L 115.0 152.0 " stroke="black" fill="none" stroke-width="5.0" stroke-linecap="round" stroke-linejoin="round" />
<path d="M 96.0 107.0 L 96.0 107.0 L 95.0 107.0 L 95.0 107.0 L 94.0 107.0 L 94.0 107.0 L 94.0 109.0 L 94.0 112.0 L 94.0 116.0 L 95.0 122.0 L 96.0 129.0 L 96.0 138.0 L 96.0 148.0 L 96.0 159.0 L 96.0 169.0 L 95.0 179.0 L 94.0 189.0 L 94.0 198.0 L 93.0 205.0 L 93.0 210.0 L 94.0 214.0 L 94.0 215.0 " stroke="black" fill="none" stroke-width="5.0" stroke-linecap="round" stroke-linejoin="round" />
<path d="M 67.0 222.0 L 67.0 222.0 L 66.0 223.0 L 66.0 224.0 L 65.0 224.0 L 64.0 225.0 L 64.0 225.0 L 64.0 225.0 L 64.0 225.0 L 64.0 225.0 L 66.0 224.0 L 69.0 223.0 L 74.0 222.0 L 81.0 220.0 L 90.0 216.0 L 100.0 212.0 L 109.0 208.0 L 115.0 205.0 " stroke="black" fill="none" stroke-width="5.0" stroke-linecap="round" stroke-linejoin="round" />
<path d="M 184.0 71.0 L 184.0 71.0 L 184.0 71.0 L 184.0 71.0 L 183.0 71.0 L 183.0 72.0 L 183.0 74.0 L 182.0 77.0 L 182.0 81.0 L 182.0 87.0 L 182.0 95.0 L 183.0 102.0 L 183.0 109.0 L 184.0 115.0 L 184.0 119.0 L 184.0 122.0 L 184.0 123.0 " stroke="black" fill="none" stroke-width="5.0" stroke-linecap="round" stroke-linejoin="round" />
<path d="M 146.0 88.0 L 146.0 88.0 L 144.0 87.0 L 143.0 87.0 L 142.0 87.0 L 142.0 87.0 L 142.0 87.0 L 142.0 87.0 L 142.0 87.0 L 143.0 89.0 L 145.0 90.0 L 148.0 93.0 L 150.0 95.0 L 153.0 98.0 L 157.0 101.0 L 162.0 103.0 L 169.0 106.0 " stroke="black" fill="none" stroke-width="5.0" stroke-linecap="round" stroke-linejoin="round" />
<path d="M 219.0 84.0 L 218.0 84.0 L 217.0 84.0 L 216.0 84.0 L 215.0 84.0 L 214.0 84.0 L 213.0 85.0 L 212.0 88.0 L 211.0 92.0 L 208.0 98.0 L 205.0 104.0 L 202.0 111.0 L 199.0 118.0 L 196.0 123.0 " stroke="black" fill="none" stroke-width="5.0" stroke-linecap="round" stroke-linejoin="round" />
<path d="M 145.0 131.0 L 145.0 131.0 L 145.0 131.0 L 145.0 132.0 L 145.0 134.0 L 144.0 137.0 L 144.0 141.0 L 144.0 148.0 L 144.0 155.0 L 144.0 164.0 L 144.0 173.0 L 144.0 182.0 L 144.0 191.0 L 143.0 199.0 L 143.0 203.0 L 143.0 206.0 " stroke="black" fill="none" stroke-width="5.0" stroke-linecap="round" stroke-linejoin="round" />
<path d="M 155.0 132.0 L 155.0 132.0 L 155.0 132.0 L 155.0 133.0 L 154.0 134.0 L 154.0 134.0 L 153.0 135.0 L 153.0 135.0 L 153.0 135.0 L 153.0 135.0 L 153.0 135.0 L 153.0 135.0 L 153.0 135.0 L 153.0 135.0 L 153.0 135.0 L 153.0 135.0 L 153.0 135.0 L 152.0 134.0 L 152.0 133.0 L 152.0 133.0 L 152.0 132.0 L 151.0 132.0 L 151.0 131.0 L 151.0 131.0 L 151.0 130.0 L 150.0 130.0 L 150.0 130.0 L 150.0 130.0 L 150.0 130.0 L 150.0 130.0 L 150.0 130.0 L 151.0 130.0 L 153.0 130.0 L 156.0 130.0 L 159.0 130.0 L 164.0 130.0 L 170.0 130.0 L 176.0 130.0 L 183.0 130.0 L 189.0 130.0 L 193.0 130.0 L 197.0 130.0 L 200.0 130.0 L 203.0 130.0 L 205.0 130.0 L 208.0 130.0 L 210.0 130.0 L 212.0 129.0 L 214.0 129.0 L 216.0 129.0 L 217.0 129.0 L 217.0 129.0 L 218.0 129.0 L 218.0 129.0 L 219.0 129.0 L 219.0 129.0 L 219.0 130.0 L 219.0 132.0 L 220.0 134.0 L 220.0 137.0 L 220.0 142.0 L 219.0 148.0 L 218.0 154.0 L 217.0 162.0 L 215.0 169.0 L 214.0 177.0 L 212.0 185.0 L 211.0 191.0 L 210.0 196.0 L 210.0 201.0 L 209.0 203.0 L 209.0 205.0 L 208.0 205.0 L 208.0 205.0 L 207.0 204.0 " stroke="black" fill="none" stroke-width="5.0" stroke-linecap="round" stroke-linejoin="round" />
<path d="M 156.0 155.0 L 154.0 154.0 L 153.0 153.0 L 152.0 153.0 L 152.0 153.0 L 152.0 153.0 L 152.0 153.0 L 154.0 153.0 L 158.0 153.0 L 164.0 153.0 L 172.0 153.0 L 180.0 153.0 L 188.0 154.0 L 196.0 155.0 L 203.0 155.0 L 208.0 157.0 L 212.0 158.0 L 215.0 159.0 " stroke="black" fill="none" stroke-width="5.0" stroke-linecap="round" stroke-linejoin="round" />
<path d="M 161.0 179.0 L 158.0 179.0 L 154.0 179.0 L 152.0 179.0 L 150.0 180.0 L 150.0 180.0 L 150.0 180.0 L 151.0 181.0 L 152.0 181.0 L 156.0 182.0 L 161.0 182.0 L 168.0 183.0 L 177.0 183.0 L 185.0 183.0 L 192.0 182.0 L 198.0 182.0 L 204.0 182.0 L 209.0 182.0 L 211.0 182.0 L 212.0 183.0 " stroke="black" fill="none" stroke-width="5.0" stroke-linecap="round" stroke-linejoin="round" />
<path d="M 152.0 208.0 L 151.0 208.0 L 150.0 208.0 L 149.0 208.0 L 148.0 208.0 L 148.0 208.0 L 148.0 208.0 L 150.0 208.0 L 153.0 208.0 L 158.0 207.0 L 166.0 206.0 L 175.0 206.0 L 184.0 205.0 L 193.0 204.0 L 201.0 204.0 L 207.0 204.0 L 213.0 204.0 L 217.0 204.0 " stroke="black" fill="none" stroke-width="5.0" stroke-linecap="round" stroke-linejoin="round" />
<path d="M 187.0 213.0 L 187.0 213.0 L 186.0 213.0 L 185.0 213.0 L 184.0 213.0 L 182.0 213.0 L 180.0 213.0 L 176.0 215.0 L 170.0 219.0 L 162.0 224.0 L 155.0 230.0 L 147.0 236.0 L 140.0 242.0 L 135.0 246.0 L 133.0 248.0 L 133.0 249.0 " stroke="black" fill="none" stroke-width="5.0" stroke-linecap="round" stroke-linejoin="round" />
<path d="M 201.0 229.0 L 200.0 227.0 L 198.0 226.0 L 198.0 225.0 L 197.0 224.0 L 197.0 224.0 L 197.0 224.0 L 197.0 225.0 L 199.0 227.0 L 201.0 229.0 L 204.0 232.0 L 209.0 236.0 L 214.0 239.0 L 220.0 243.0 L 226.0 247.0 L 231.0 251.0 L 236.0 254.0 L 240.0 258.0 L 242.0 262.0 " stroke="black" fill="none" stroke-width="5.0" stroke-linecap="round" stroke-linejoin="round" />
</svg>