<svg xmlns="http://www.w3.org/2000/svg" width="300" height="300" viewBox="0 0 300 300">
<path d="M 66.0 91.0 L 65.0 91.0 L 64.0 91.0 L 64.0 92.0 L 63.0 92.0 L 62.0 93.0 L 62.0 93.0 L 62.0 93.0 L 62.0 94.0 L 62.0 94.0 L 62.0 94.0 L 63.0 94.0 L 66.0 94.0 L 69.0 94.0 L 73.0 94.0 L 79.0 93.0 L 85.0 92.0 L 92.0 91.0 L 98.0 91.0 L 103.0 90.0 L 107.0 90.0 " stroke="black" fill="none" stroke-width="5.0" stroke-linecap="round" stroke-linejoin="round" />
<path d="M 67.0 147.0 L 66.0 147.0 L 65.0 147.0 L 64.0 147.0 L 63.0 147.0 L 62.0 147.0 L 62.0 148.0 L 62.0 148.0 L 62.0 148.0 L 62.0 148.0 L 64.0 148.0 L 67.0 148.0 L 71.0 148.0 L 77.0 148.0 L 84.0 147.0 L 92.0 146.0 L 99.0 145.0 L 105.0 143.0 " stroke="black" fill="none" stroke-width="5.0" stroke-linecap="round" stroke-linejoin="round" />
<path d="M 84.0 106.0 L 84.0 106.0 L 83.0 106.0 L 83.0 106.0 L 83.0 106.0 L 82.0 106.0 L 82.0 107.0 L 82.0 108.0 L 82.0 110.0 L 82.0 112.0 L 82.0 116.0 L 82.0 119.0 L 82.0 124.0 L 82.0 129.0 L 82.0 134.0 L 82.0 140.0 L 82.0 146.0 L 82.0 152.0 L 82.0 156.0 L 82.0 161.0 L 82.0 165.0 L 82.0 169.0 L 82.0 173.0 L 82.0 177.0 L 82.0 181.0 L 82.0 186.0 L 82.0 190.0 L 82.0 193.0 L 82.0 196.0 L 82.0 199.0 L 82.0 201.0 L 82.0 203.0 L 82.0 205.0 L 82.0 207.0 L 82.0 209.0 L 81.0 211.0 L 81.0 212.0 L 81.0 214.0 L 80.0 215.0 L 80.0 216.0 L 80.0 216.0 L 80.0 216.0 L 80.0 216.0 " stroke="black" fill="none" stroke-width="5.0" stroke-linecap="round" stroke-linejoin="round" />
<path d="M 68.0 225.0 L 68.0 225.0 L 67.0 225.0 L 66.0 225.0 L 66.0 225.0 L 65.0 225.0 L 65.0 225.0 L 65.0 225.0 L 65.0 225.0 L 66.0 224.0 L 68.0 223.0 L 72.0 221.0 L 77.0 218.0 L 84.0 215.0 L 93.0 211.0 L 101.0 207.0 L 105.0 205.0 " stroke="black" fill="none" stroke-width="5.0" stroke-linecap="round" stroke-linejoin="round" />
<path d="M 136.0 78.0 L 136.0 78.0 L 136.0 78.0 L 135.0 78.0 L 135.0 78.0 L 134.0 79.0 L 134.0 80.0 L 134.0 82.0 L 134.0 84.0 L 134.0 88.0 L 134.0 93.0 L 134.0 98.0 L 134.0 102.0 L 135.0 106.0 L 136.0 109.0 " stroke="black" fill="none" stroke-width="5.0" stroke-linecap="round" stroke-linejoin="round" />
<path d="M 136.0 82.0 L 136.0 82.0 L 136.0 82.0 L 135.0 82.0 L 135.0 82.0 L 135.0 82.0 L 134.0 81.0 L 134.0 81.0 L 134.0 81.0 L 134.0 81.0 L 133.0 81.0 L 133.0 81.0 L 133.0 81.0 L 134.0 81.0 L 134.0 81.0 L 135.0 81.0 L 136.0 81.0 L 137.0 81.0 L 138.0 81.0 L 140.0 81.0 L 141.0 81.0 L 142.0 81.0 L 144.0 81.0 L 145.0 81.0 L 146.0 81.0 L 147.0 81.0 L 148.0 81.0 L 149.0 81.0 L 150.0 81.0 L 152.0 81.0 L 152.0 81.0 L 154.0 81.0 L 155.0 81.0 L 156.0 81.0 L 157.0 81.0 L 159.0 81.0 L 160.0 81.0 L 162.0 81.0 L 164.0 81.0 L 165.0 81.0 L 167.0 81.0 L 169.0 81.0 L 170.0 81.0 L 172.0 81.0 L 174.0 81.0 L 176.0 81.0 L 178.0 81.0 L 180.0 81.0 L 182.0 81.0 L 183.0 81.0 L 185.0 81.0 L 187.0 81.0 L 188.0 81.0 L 190.0 81.0 L 191.0 81.0 L 192.0 81.0 L 193.0 81.0 L 194.0 81.0 L 195.0 81.0 L 195.0 81.0 L 196.0 81.0 L 197.0 81.0 L 198.0 81.0 L 198.0 81.0 L 199.0 81.0 L 200.0 81.0 L 201.0 81.0 L 202.0 81.0 L 203.0 81.0 L 204.0 81.0 L 205.0 81.0 L 206.0 81.0 L 207.0 81.0 L 208.0 81.0 L 209.0 81.0 L 210.0 81.0 L 211.0 81.0 L 211.0 81.0 L 212.0 81.0 L 213.0 81.0 L 214.0 81.0 L 214.0 81.0 L 215.0 81.0 L 216.0 81.0 L 217.0 81.0 L 218.0 81.0 L 218.0 81.0 L 219.0 81.0 L 220.0 81.0 L 221.0 81.0 L 221.0 81.0 L 222.0 81.0 L 223.0 81.0 L 223.0 81.0 L 224.0 81.0 L 224.0 81.0 L 225.0 82.0 L 225.0 82.0 L 226.0 82.0 L 226.0 82.0 L 227.0 82.0 L 227.0 82.0 L 227.0 82.0 L 228.0 82.0 L 228.0 82.0 L 228.0 83.0 L 228.0 83.0 L 228.0 84.0 L 228.0 84.0 L 228.0 84.0 L 228.0 84.0 L 228.0 85.0 L 228.0 85.0 L 228.0 85.0 L 228.0 86.0 L 228.0 87.0 L 228.0 88.0 L 227.0 90.0 L 227.0 92.0 L 226.0 95.0 L 225.0 97.0 L 225.0 100.0 L 224.0 103.0 L 223.0 106.0 L 223.0 109.0 L 223.0 110.0 " stroke="black" fill="none" stroke-width="5.0" stroke-linecap="round" stroke-linejoin="round" />
<path d="M 157.0 86.0 L 157.0 86.0 L 157.0 86.0 L 157.0 86.0 L 157.0 87.0 L 157.0 88.0 L 157.0 90.0 L 157.0 92.0 L 157.0 95.0 L 157.0 98.0 L 158.0 102.0 L 159.0 104.0 L 160.0 107.0 " stroke="black" fill="none" stroke-width="5.0" stroke-linecap="round" stroke-linejoin="round" />
<path d="M 193.0 81.0 L 193.0 81.0 L 193.0 81.0 L 192.0 81.0 L 192.0 81.0 L 192.0 81.0 L 191.0 83.0 L 190.0 85.0 L 190.0 89.0 L 189.0 93.0 L 189.0 97.0 L 189.0 101.0 L 189.0 105.0 L 189.0 108.0 L 189.0 110.0 " stroke="black" fill="none" stroke-width="5.0" stroke-linecap="round" stroke-linejoin="round" />
<path d="M 143.0 114.0 L 143.0 114.0 L 142.0 114.0 L 141.0 114.0 L 140.0 114.0 L 140.0 114.0 L 139.0 114.0 L 139.0 113.0 L 139.0 113.0 L 139.0 113.0 L 140.0 113.0 L 141.0 112.0 L 143.0 112.0 L 144.0 112.0 L 145.0 112.0 L 146.0 111.0 L 148.0 111.0 L 149.0 111.0 L 150.0 111.0 L 151.0 111.0 L 152.0 111.0 L 153.0 111.0 L 154.0 111.0 L 155.0 111.0 L 156.0 111.0 L 157.0 111.0 L 158.0 111.0 L 160.0 111.0 L 161.0 111.0 L 162.0 111.0 L 164.0 111.0 L 165.0 111.0 L 167.0 111.0 L 168.0 111.0 L 169.0 111.0 L 170.0 111.0 L 172.0 111.0 L 173.0 111.0 L 174.0 112.0 L 175.0 112.0 L 176.0 112.0 L 177.0 112.0 L 178.0 113.0 L 180.0 113.0 L 180.0 113.0 L 181.0 113.0 L 182.0 113.0 L 183.0 113.0 L 184.0 113.0 L 185.0 113.0 L 186.0 114.0 L 187.0 114.0 L 188.0 114.0 L 188.0 114.0 L 189.0 114.0 L 190.0 114.0 L 191.0 114.0 L 192.0 114.0 L 193.0 114.0 L 193.0 114.0 L 194.0 114.0 L 195.0 114.0 L 196.0 114.0 L 197.0 114.0 L 198.0 114.0 L 199.0 114.0 L 200.0 114.0 L 201.0 114.0 L 202.0 114.0 L 204.0 114.0 L 205.0 114.0 L 207.0 114.0 L 208.0 113.0 L 210.0 113.0 L 212.0 112.0 L 213.0 112.0 L 215.0 111.0 L 216.0 111.0 L 218.0 111.0 L 219.0 111.0 L 220.0 111.0 L 220.0 111.0 L 221.0 111.0 L 221.0 111.0 " stroke="black" fill="none" stroke-width="5.0" stroke-linecap="round" stroke-linejoin="round" />
<path d="M 121.0 137.0 L 121.0 137.0 L 121.0 137.0 L 121.0 137.0 L 121.0 137.0 L 121.0 137.0 L 121.0 137.0 L 121.0 137.0 L 121.0 137.0 L 121.0 137.0 L 121.0 137.0 L 121.0 137.0 L 121.0 137.0 L 121.0 137.0 L 122.0 137.0 L 123.0 137.0 L 125.0 137.0 L 127.0 137.0 L 130.0 137.0 L 132.0 136.0 L 135.0 136.0 L 138.0 136.0 L 141.0 136.0 L 143.0 135.0 L 145.0 135.0 L 147.0 135.0 L 149.0 135.0 L 150.0 135.0 L 151.0 135.0 L 153.0 135.0 L 154.0 135.0 L 155.0 135.0 L 156.0 135.0 L 157.0 135.0 L 157.0 135.0 L 158.0 135.0 L 160.0 135.0 L 161.0 135.0 L 162.0 135.0 L 163.0 135.0 L 165.0 135.0 L 166.0 135.0 L 168.0 135.0 L 169.0 135.0 L 171.0 135.0 L 172.0 135.0 L 174.0 135.0 L 176.0 135.0 L 177.0 135.0 L 179.0 135.0 L 180.0 135.0 L 182.0 135.0 L 183.0 135.0 L 184.0 135.0 L 186.0 135.0 L 187.0 134.0 L 188.0 134.0 L 189.0 134.0 L 191.0 134.0 L 192.0 134.0 L 193.0 134.0 L 193.0 134.0 L 194.0 134.0 L 195.0 134.0 L 196.0 134.0 L 197.0 134.0 L 197.0 134.0 L 198.0 134.0 L 199.0 134.0 L 201.0 134.0 L 202.0 134.0 L 203.0 134.0 L 204.0 134.0 L 205.0 134.0 L 207.0 134.0 L 208.0 134.0 L 209.0 134.0 L 210.0 134.0 L 212.0 134.0 L 214.0 134.0 L 216.0 134.0 L 218.0 134.0 L 220.0 134.0 L 223.0 134.0 L 225.0 134.0 L 227.0 134.0 L 229.0 133.0 L 231.0 133.0 L 233.0 132.0 L 234.0 132.0 L 235.0 132.0 L 236.0 132.0 L 237.0 132.0 L 237.0 132.0 " stroke="black" fill="none" stroke-width="5.0" stroke-linecap="round" stroke-linejoin="round" />
<path d="M 147.0 158.0 L 146.0 158.0 L 146.0 158.0 L 146.0 157.0 L 145.0 157.0 L 145.0 156.0 L 144.0 156.0 L 144.0 156.0 L 144.0 155.0 L 144.0 155.0 L 144.0 155.0 L 144.0 157.0 L 145.0 159.0 L 145.0 162.0 L 145.0 166.0 L 146.0 171.0 L 146.0 177.0 L 146.0 184.0 L 146.0 191.0 L 146.0 194.0 " stroke="black" fill="none" stroke-width="5.0" stroke-linecap="round" stroke-linejoin="round" />
<path d="M 148.0 157.0 L 148.0 157.0 L 148.0 157.0 L 148.0 157.0 L 148.0 157.0 L 148.0 157.0 L 148.0 157.0 L 148.0 157.0 L 147.0 157.0 L 147.0 157.0 L 147.0 157.0 L 147.0 157.0 L 147.0 157.0 L 147.0 157.0 L 147.0 157.0 L 147.0 157.0 L 147.0 157.0 L 148.0 157.0 L 149.0 157.0 L 149.0 157.0 L 150.0 156.0 L 151.0 156.0 L 152.0 156.0 L 152.0 156.0 L 153.0 155.0 L 154.0 155.0 L 154.0 155.0 L 155.0 155.0 L 156.0 155.0 L 157.0 155.0 L 158.0 155.0 L 159.0 155.0 L 160.0 155.0 L 161.0 155.0 L 162.0 155.0 L 163.0 155.0 L 164.0 155.0 L 165.0 154.0 L 166.0 154.0 L 167.0 154.0 L 167.0 154.0 L 168.0 154.0 L 169.0 154.0 L 170.0 154.0 L 171.0 154.0 L 172.0 154.0 L 173.0 154.0 L 175.0 154.0 L 176.0 154.0 L 177.0 154.0 L 178.0 154.0 L 179.0 154.0 L 180.0 154.0 L 181.0 154.0 L 182.0 154.0 L 183.0 153.0 L 184.0 153.0 L 185.0 153.0 L 186.0 153.0 L 187.0 153.0 L 188.0 153.0 L 189.0 153.0 L 190.0 153.0 L 191.0 153.0 L 192.0 152.0 L 193.0 152.0 L 194.0 152.0 L 195.0 152.0 L 196.0 152.0 L 197.0 152.0 L 198.0 152.0 L 199.0 152.0 L 200.0 151.0 L 201.0 151.0 L 202.0 151.0 L 203.0 151.0 L 204.0 151.0 L 204.0 151.0 L 205.0 151.0 L 206.0 151.0 L 206.0 151.0 L 207.0 151.0 L 208.0 151.0 L 208.0 151.0 L 209.0 151.0 L 210.0 151.0 L 210.0 151.0 L 211.0 151.0 L 212.0 151.0 L 213.0 151.0 L 214.0 151.0 L 214.0 151.0 L 215.0 151.0 L 216.0 151.0 L 217.0 151.0 L 218.0 151.0 L 219.0 151.0 L 220.0 151.0 L 220.0 151.0 L 221.0 151.0 L 222.0 151.0 L 223.0 151.0 L 223.0 151.0 L 224.0 151.0 L 224.0 151.0 L 224.0 151.0 L 225.0 151.0 L 225.0 151.0 L 225.0 151.0 L 225.0 152.0 L 225.0 152.0 L 225.0 152.0 L 225.0 153.0 L 225.0 153.0 L 225.0 154.0 L 225.0 155.0 L 225.0 157.0 L 225.0 158.0 L 225.0 160.0 L 225.0 162.0 L 225.0 164.0 L 224.0 166.0 L 224.0 168.0 L 224.0 170.0 L 224.0 172.0 L 224.0 174.0 L 224.0 177.0 L 223.0 179.0 L 222.0 181.0 L 220.0 184.0 " stroke="black" fill="none" stroke-width="5.0" stroke-linecap="round" stroke-linejoin="round" />
<path d="M 148.0 190.0 L 148.0 190.0 L 148.0 190.0 L 148.0 190.0 L 148.0 189.0 L 148.0 189.0 L 147.0 189.0 L 147.0 189.0 L 147.0 189.0 L 147.0 188.0 L 147.0 188.0 L 147.0 188.0 L 147.0 188.0 L 148.0 188.0 L 150.0 188.0 L 152.0 189.0 L 157.0 189.0 L 162.0 189.0 L 169.0 189.0 L 176.0 189.0 L 182.0 189.0 L 188.0 188.0 L 192.0 188.0 L 195.0 188.0 L 198.0 188.0 L 200.0 188.0 L 201.0 188.0 L 203.0 188.0 L 205.0 188.0 L 207.0 188.0 L 209.0 188.0 L 211.0 188.0 L 212.0 187.0 L 214.0 187.0 L 216.0 187.0 L 217.0 187.0 L 218.0 187.0 L 218.0 187.0 L 218.0 187.0 L 218.0 188.0 " stroke="black" fill="none" stroke-width="5.0" stroke-linecap="round" stroke-linejoin="round" />
<path d="M 165.0 197.0 L 165.0 197.0 L 165.0 197.0 L 164.0 197.0 L 164.0 197.0 L 164.0 197.0 L 164.0 197.0 L 164.0 197.0 L 164.0 197.0 L 163.0 197.0 L 163.0 197.0 L 162.0 198.0 L 162.0 199.0 L 160.0 201.0 L 159.0 203.0 L 157.0 206.0 L 155.0 209.0 L 152.0 212.0 L 148.0 215.0 L 144.0 218.0 L 139.0 221.0 L 132.0 224.0 L 126.0 227.0 L 120.0 229.0 L 116.0 230.0 L 114.0 230.0 L 114.0 230.0 " stroke="black" fill="none" stroke-width="5.0" stroke-linecap="round" stroke-linejoin="round" />
<path d="M 151.0 208.0 L 151.0 208.0 L 151.0 208.0 L 151.0 208.0 L 151.0 208.0 L 151.0 208.0 L 151.0 208.0 L 151.0 208.0 L 151.0 209.0 L 151.0 210.0 L 151.0 212.0 L 151.0 215.0 L 150.0 218.0 L 150.0 222.0 L 150.0 227.0 L 149.0 231.0 L 149.0 236.0 L 149.0 239.0 L 149.0 242.0 L 149.0 244.0 L 149.0 245.0 L 149.0 245.0 L 150.0 245.0 L 152.0 244.0 L 153.0 243.0 L 156.0 241.0 L 159.0 238.0 L 162.0 236.0 L 167.0 233.0 L 171.0 230.0 L 176.0 227.0 " stroke="black" fill="none" stroke-width="5.0" stroke-linecap="round" stroke-linejoin="round" />
<path d="M 236.0 202.0 L 236.0 202.0 L 236.0 202.0 L 236.0 202.0 L 236.0 202.0 L 235.0 202.0 L 235.0 202.0 L 235.0 202.0 L 234.0 202.0 L 232.0 202.0 L 230.0 204.0 L 227.0 206.0 L 221.0 209.0 L 215.0 212.0 L 208.0 215.0 L 201.0 219.0 L 199.0 220.0 " stroke="black" fill="none" stroke-width="5.0" stroke-linecap="round" stroke-linejoin="round" />
<path d="M 190.0 199.0 L 190.0 199.0 L 189.0 199.0 L 189.0 199.0 L 188.0 198.0 L 187.0 198.0 L 187.0 198.0 L 187.0 198.0 L 186.0 199.0 L 186.0 200.0 L 186.0 202.0 L 187.0 204.0 L 188.0 206.0 L 189.0 208.0 L 191.0 211.0 L 193.0 214.0 L 195.0 218.0 L 198.0 222.0 L 201.0 225.0 L 205.0 229.0 L 209.0 233.0 L 213.0 236.0 L 218.0 239.0 L 222.0 241.0 L 226.0 243.0 L 229.0 245.0 L 232.0 247.0 L 234.0 248.0 L 236.0 249.0 L 237.0 250.0 L 238.0 252.0 L 239.0 253.0 L 240.0 254.0 L 241.0 254.0 L 241.0 255.0 " stroke="black" fill="none" stroke-width="5.0" stroke-linecap="round" stroke-linejoin="round" />
</svg>