<svg xmlns="http://www.w3.org/2000/svg" width="300" height="300" viewBox="0 0 300 300">
<path d="M 69.0 90.0 L 68.0 90.0 L 67.0 90.0 L 65.0 90.0 L 64.0 90.0 L 63.0 90.0 L 62.0 90.0 L 62.0 90.0 L 62.0 90.0 L 63.0 89.0 L 64.0 89.0 L 66.0 89.0 L 69.0 89.0 L 72.0 89.0 L 76.0 89.0 L 81.0 89.0 L 87.0 88.0 L 93.0 88.0 L 99.0 88.0 L 105.0 88.0 L 110.0 88.0 L 114.0 88.0 L 116.0 89.0 L 117.0 90.0 " stroke="black" fill="none" stroke-width="5.0" stroke-linecap="round" stroke-linejoin="round" />
<path d="M 68.0 151.0 L 67.0 150.0 L 66.0 150.0 L 66.0 149.0 L 65.0 149.0 L 65.0 149.0 L 65.0 149.0 L 66.0 149.0 L 68.0 150.0 L 70.0 150.0 L 75.0 150.0 L 80.0 150.0 L 87.0 150.0 L 95.0 150.0 L 101.0 149.0 L 107.0 148.0 L 111.0 148.0 " stroke="black" fill="none" stroke-width="5.0" stroke-linecap="round" stroke-linejoin="round" />
<path d="M 90.0 100.0 L 90.0 100.0 L 89.0 100.0 L 88.0 100.0 L 87.0 100.0 L 86.0 100.0 L 85.0 100.0 L 85.0 100.0 L 84.0 100.0 L 84.0 101.0 L 84.0 102.0 L 84.0 104.0 L 84.0 106.0 L 85.0 109.0 L 85.0 113.0 L 85.0 116.0 L 85.0 120.0 L 85.0 124.0 L 85.0 129.0 L 85.0 134.0 L 86.0 140.0 L 86.0 146.0 L 86.0 153.0 L 86.0 159.0 L 86.0 164.0 L 86.0 170.0 L 85.0 176.0 L 84.0 182.0 L 84.0 188.0 L 84.0 193.0 L 84.0 198.0 L 84.0 201.0 L 84.0 203.0 L 84.0 205.0 L 84.0 206.0 L 83.0 208.0 L 83.0 209.0 L 82.0 210.0 L 82.0 211.0 L 82.0 211.0 L 82.0 211.0 L 82.0 211.0 L 82.0 211.0 " stroke="black" fill="none" stroke-width="5.0" stroke-linecap="round" stroke-linejoin="round" />
<path d="M 67.0 228.0 L 67.0 228.0 L 65.0 228.0 L 64.0 228.0 L 63.0 228.0 L 62.0 229.0 L 62.0 229.0 L 62.0 229.0 L 62.0 229.0 L 62.0 227.0 L 65.0 225.0 L 69.0 222.0 L 74.0 218.0 L 82.0 215.0 L 91.0 211.0 L 100.0 208.0 L 108.0 204.0 L 117.0 199.0 L 121.0 197.0 " stroke="black" fill="none" stroke-width="5.0" stroke-linecap="round" stroke-linejoin="round" />
<path d="M 173.0 74.0 L 173.0 74.0 L 172.0 73.0 L 172.0 71.0 L 172.0 70.0 L 172.0 69.0 L 172.0 69.0 L 173.0 68.0 L 174.0 67.0 L 175.0 67.0 L 176.0 68.0 L 177.0 69.0 L 178.0 71.0 L 179.0 73.0 L 180.0 76.0 L 181.0 78.0 L 182.0 81.0 L 184.0 84.0 L 184.0 85.0 " stroke="black" fill="none" stroke-width="5.0" stroke-linecap="round" stroke-linejoin="round" />
<path d="M 138.0 96.0 L 138.0 96.0 L 138.0 96.0 L 138.0 96.0 L 137.0 96.0 L 137.0 98.0 L 136.0 100.0 L 135.0 104.0 L 134.0 108.0 L 133.0 113.0 L 132.0 118.0 L 132.0 121.0 L 132.0 124.0 " stroke="black" fill="none" stroke-width="5.0" stroke-linecap="round" stroke-linejoin="round" />
<path d="M 145.0 98.0 L 145.0 98.0 L 145.0 98.0 L 145.0 97.0 L 144.0 97.0 L 144.0 97.0 L 144.0 97.0 L 143.0 96.0 L 143.0 96.0 L 143.0 96.0 L 143.0 96.0 L 143.0 96.0 L 143.0 96.0 L 143.0 96.0 L 143.0 96.0 L 143.0 96.0 L 143.0 96.0 L 143.0 96.0 L 143.0 96.0 L 143.0 96.0 L 143.0 96.0 L 144.0 96.0 L 145.0 96.0 L 146.0 96.0 L 147.0 96.0 L 148.0 96.0 L 149.0 96.0 L 150.0 96.0 L 151.0 96.0 L 152.0 96.0 L 153.0 96.0 L 154.0 96.0 L 154.0 96.0 L 155.0 96.0 L 156.0 96.0 L 157.0 96.0 L 158.0 96.0 L 160.0 96.0 L 161.0 96.0 L 162.0 96.0 L 164.0 96.0 L 165.0 96.0 L 167.0 96.0 L 168.0 96.0 L 169.0 96.0 L 170.0 96.0 L 172.0 96.0 L 173.0 97.0 L 174.0 97.0 L 175.0 97.0 L 177.0 97.0 L 178.0 97.0 L 179.0 97.0 L 180.0 97.0 L 182.0 97.0 L 183.0 97.0 L 184.0 97.0 L 185.0 96.0 L 187.0 96.0 L 188.0 95.0 L 189.0 95.0 L 190.0 95.0 L 191.0 94.0 L 192.0 94.0 L 193.0 94.0 L 194.0 94.0 L 194.0 94.0 L 195.0 94.0 L 196.0 94.0 L 197.0 93.0 L 198.0 93.0 L 200.0 93.0 L 201.0 93.0 L 202.0 93.0 L 203.0 93.0 L 204.0 93.0 L 205.0 93.0 L 207.0 93.0 L 208.0 93.0 L 210.0 93.0 L 212.0 93.0 L 214.0 93.0 L 216.0 93.0 L 219.0 93.0 L 221.0 93.0 L 223.0 93.0 L 224.0 93.0 L 226.0 93.0 L 227.0 93.0 L 228.0 93.0 L 229.0 93.0 L 230.0 93.0 L 231.0 93.0 L 232.0 93.0 L 232.0 93.0 L 233.0 93.0 L 233.0 93.0 L 233.0 93.0 L 233.0 93.0 L 233.0 93.0 L 233.0 93.0 L 233.0 93.0 L 233.0 93.0 L 233.0 93.0 L 233.0 93.0 L 233.0 93.0 L 233.0 94.0 L 233.0 94.0 L 233.0 94.0 L 233.0 95.0 L 233.0 96.0 L 233.0 97.0 L 233.0 99.0 L 232.0 101.0 L 231.0 104.0 L 231.0 107.0 L 230.0 110.0 L 229.0 113.0 L 228.0 115.0 L 228.0 117.0 L 227.0 118.0 L 227.0 119.0 " stroke="black" fill="none" stroke-width="5.0" stroke-linecap="round" stroke-linejoin="round" />
<path d="M 150.0 129.0 L 149.0 129.0 L 148.0 129.0 L 147.0 129.0 L 146.0 129.0 L 145.0 129.0 L 145.0 129.0 L 145.0 129.0 L 145.0 129.0 L 147.0 129.0 L 149.0 129.0 L 153.0 128.0 L 157.0 128.0 L 164.0 127.0 L 171.0 127.0 L 179.0 126.0 L 187.0 126.0 L 194.0 126.0 L 199.0 127.0 L 203.0 128.0 L 205.0 130.0 L 205.0 131.0 " stroke="black" fill="none" stroke-width="5.0" stroke-linecap="round" stroke-linejoin="round" />
<path d="M 143.0 167.0 L 143.0 166.0 L 143.0 166.0 L 143.0 165.0 L 143.0 165.0 L 143.0 164.0 L 143.0 164.0 L 143.0 164.0 L 143.0 164.0 L 143.0 166.0 L 143.0 168.0 L 143.0 171.0 L 144.0 176.0 L 144.0 182.0 L 144.0 189.0 L 144.0 196.0 L 144.0 203.0 L 145.0 209.0 L 145.0 212.0 L 146.0 214.0 L 146.0 214.0 " stroke="black" fill="none" stroke-width="5.0" stroke-linecap="round" stroke-linejoin="round" />
<path d="M 145.0 158.0 L 145.0 158.0 L 144.0 158.0 L 143.0 158.0 L 142.0 158.0 L 141.0 158.0 L 141.0 158.0 L 141.0 158.0 L 140.0 158.0 L 140.0 158.0 L 141.0 158.0 L 141.0 158.0 L 142.0 158.0 L 144.0 158.0 L 145.0 157.0 L 147.0 157.0 L 149.0 157.0 L 151.0 157.0 L 153.0 157.0 L 155.0 157.0 L 157.0 156.0 L 160.0 156.0 L 163.0 156.0 L 166.0 155.0 L 170.0 155.0 L 173.0 155.0 L 177.0 154.0 L 181.0 154.0 L 184.0 154.0 L 187.0 154.0 L 189.0 154.0 L 191.0 154.0 L 192.0 154.0 L 193.0 154.0 L 194.0 154.0 L 196.0 154.0 L 197.0 154.0 L 198.0 154.0 L 199.0 154.0 L 200.0 154.0 L 202.0 154.0 L 204.0 154.0 L 206.0 153.0 L 208.0 153.0 L 210.0 153.0 L 212.0 153.0 L 214.0 153.0 L 216.0 153.0 L 217.0 154.0 L 218.0 155.0 L 219.0 155.0 L 219.0 156.0 L 219.0 157.0 L 220.0 158.0 L 220.0 159.0 L 220.0 160.0 L 220.0 162.0 L 220.0 164.0 L 220.0 167.0 L 220.0 171.0 L 220.0 175.0 L 219.0 180.0 L 218.0 186.0 L 218.0 191.0 L 217.0 195.0 L 216.0 199.0 L 216.0 202.0 L 215.0 204.0 L 215.0 205.0 L 215.0 205.0 L 214.0 206.0 " stroke="black" fill="none" stroke-width="5.0" stroke-linecap="round" stroke-linejoin="round" />
<path d="M 155.0 187.0 L 155.0 187.0 L 154.0 186.0 L 152.0 185.0 L 152.0 185.0 L 151.0 185.0 L 150.0 185.0 L 150.0 185.0 L 150.0 185.0 L 150.0 185.0 L 150.0 185.0 L 152.0 185.0 L 155.0 185.0 L 160.0 185.0 L 168.0 184.0 L 177.0 184.0 L 186.0 183.0 L 194.0 182.0 L 200.0 181.0 L 205.0 181.0 L 208.0 181.0 L 209.0 182.0 L 210.0 184.0 L 210.0 187.0 " stroke="black" fill="none" stroke-width="5.0" stroke-linecap="round" stroke-linejoin="round" />
<path d="M 151.0 211.0 L 148.0 211.0 L 146.0 212.0 L 144.0 212.0 L 142.0 213.0 L 141.0 213.0 L 141.0 214.0 L 141.0 214.0 L 142.0 214.0 L 144.0 214.0 L 148.0 214.0 L 153.0 213.0 L 159.0 213.0 L 168.0 212.0 L 177.0 211.0 L 186.0 210.0 L 193.0 210.0 L 199.0 210.0 L 204.0 210.0 L 208.0 210.0 L 210.0 210.0 " stroke="black" fill="none" stroke-width="5.0" stroke-linecap="round" stroke-linejoin="round" />
<path d="M 120.0 249.0 L 120.0 249.0 L 118.0 248.0 L 117.0 248.0 L 116.0 247.0 L 116.0 246.0 L 116.0 246.0 L 117.0 245.0 L 119.0 244.0 L 121.0 244.0 L 125.0 244.0 L 129.0 244.0 L 134.0 245.0 L 140.0 246.0 L 146.0 247.0 L 153.0 247.0 L 163.0 248.0 L 176.0 248.0 L 189.0 247.0 L 203.0 246.0 L 215.0 244.0 L 227.0 242.0 L 236.0 240.0 L 241.0 239.0 L 244.0 239.0 L 246.0 239.0 L 247.0 239.0 L 247.0 240.0 " stroke="black" fill="none" stroke-width="5.0" stroke-linecap="round" stroke-linejoin="round" />
</svg>