<svg xmlns="http://www.w3.org/2000/svg" width="300" height="300" viewBox="0 0 300 300">
<path d="M 68.0 89.0 L 68.0 89.0 L 67.0 89.0 L 66.0 89.0 L 66.0 89.0 L 65.0 88.0 L 64.0 88.0 L 64.0 87.0 L 64.0 87.0 L 64.0 87.0 L 64.0 86.0 L 64.0 86.0 L 64.0 86.0 L 64.0 86.0 L 66.0 86.0 L 67.0 86.0 L 69.0 86.0 L 73.0 86.0 L 78.0 86.0 L 83.0 86.0 L 90.0 86.0 L 97.0 86.0 L 103.0 86.0 L 107.0 86.0 L 110.0 86.0 " stroke="black" fill="none" stroke-width="5.0" stroke-linecap="round" stroke-linejoin="round" />
<path d="M 65.0 154.0 L 65.0 154.0 L 65.0 154.0 L 65.0 154.0 L 65.0 154.0 L 65.0 154.0 L 66.0 154.0 L 67.0 153.0 L 70.0 153.0 L 73.0 152.0 L 79.0 152.0 L 85.0 152.0 L 92.0 151.0 L 98.0 151.0 L 103.0 151.0 L 106.0 151.0 L 107.0 151.0 " stroke="black" fill="none" stroke-width="5.0" stroke-linecap="round" stroke-linejoin="round" />
<path d="M 89.0 96.0 L 89.0 96.0 L 89.0 96.0 L 88.0 96.0 L 88.0 96.0 L 87.0 97.0 L 87.0 97.0 " stroke="black" fill="none" stroke-width="5.0" stroke-linecap="round" stroke-linejoin="round" />
<path d="M 91.0 95.0 L 91.0 95.0 L 91.0 95.0 L 91.0 95.0 L 90.0 95.0 L 90.0 95.0 L 89.0 95.0 L 89.0 95.0 L 89.0 95.0 L 89.0 95.0 L 89.0 95.0 L 89.0 96.0 L 89.0 96.0 L 89.0 97.0 L 89.0 98.0 L 89.0 99.0 L 89.0 101.0 L 89.0 102.0 L 89.0 105.0 L 89.0 107.0 L 88.0 110.0 L 88.0 112.0 L 88.0 115.0 L 88.0 118.0 L 87.0 121.0 L 87.0 123.0 L 87.0 126.0 L 87.0 129.0 L 86.0 132.0 L 86.0 134.0 L 86.0 137.0 L 86.0 140.0 L 86.0 143.0 L 86.0 145.0 L 86.0 148.0 L 86.0 150.0 L 86.0 152.0 L 86.0 154.0 L 86.0 156.0 L 86.0 159.0 L 86.0 161.0 L 86.0 163.0 L 86.0 165.0 L 86.0 167.0 L 86.0 169.0 L 86.0 171.0 L 86.0 173.0 L 86.0 176.0 L 86.0 178.0 L 87.0 181.0 L 87.0 185.0 L 87.0 188.0 L 87.0 191.0 L 87.0 194.0 L 86.0 197.0 L 86.0 200.0 L 85.0 202.0 L 85.0 204.0 L 85.0 205.0 L 85.0 207.0 L 84.0 208.0 L 84.0 209.0 L 84.0 210.0 L 84.0 212.0 L 83.0 213.0 L 83.0 214.0 L 83.0 215.0 L 82.0 216.0 L 82.0 217.0 L 82.0 217.0 L 82.0 217.0 " stroke="black" fill="none" stroke-width="5.0" stroke-linecap="round" stroke-linejoin="round" />
<path d="M 67.0 225.0 L 67.0 225.0 L 66.0 225.0 L 65.0 225.0 L 64.0 226.0 L 64.0 226.0 L 63.0 226.0 L 63.0 226.0 L 63.0 226.0 L 63.0 226.0 L 63.0 226.0 L 65.0 225.0 L 66.0 224.0 L 69.0 222.0 L 72.0 221.0 L 76.0 219.0 L 81.0 216.0 L 87.0 214.0 L 94.0 211.0 L 100.0 208.0 L 106.0 206.0 L 110.0 203.0 L 113.0 201.0 L 114.0 200.0 " stroke="black" fill="none" stroke-width="5.0" stroke-linecap="round" stroke-linejoin="round" />
<path d="M 156.0 70.0 L 156.0 70.0 L 156.0 70.0 L 156.0 71.0 L 155.0 72.0 L 155.0 72.0 L 155.0 73.0 L 154.0 74.0 L 153.0 75.0 L 152.0 77.0 L 151.0 79.0 L 149.0 81.0 L 146.0 85.0 L 143.0 88.0 L 138.0 93.0 L 133.0 98.0 L 128.0 103.0 L 123.0 107.0 L 119.0 110.0 L 117.0 111.0 " stroke="black" fill="none" stroke-width="5.0" stroke-linecap="round" stroke-linejoin="round" />
<path d="M 151.0 85.0 L 151.0 85.0 L 150.0 85.0 L 149.0 85.0 L 148.0 85.0 L 148.0 86.0 L 148.0 86.0 L 147.0 86.0 L 147.0 86.0 L 147.0 86.0 L 147.0 86.0 L 147.0 86.0 L 148.0 86.0 L 148.0 86.0 L 149.0 86.0 L 150.0 86.0 L 151.0 86.0 L 152.0 86.0 L 154.0 86.0 L 155.0 85.0 L 157.0 85.0 L 160.0 85.0 L 163.0 85.0 L 166.0 84.0 L 170.0 84.0 L 174.0 84.0 L 177.0 84.0 L 180.0 83.0 L 184.0 83.0 L 186.0 83.0 L 188.0 83.0 L 190.0 83.0 L 191.0 83.0 L 192.0 83.0 L 193.0 84.0 L 194.0 84.0 L 194.0 84.0 L 194.0 84.0 L 194.0 84.0 L 194.0 84.0 L 195.0 84.0 L 195.0 84.0 L 195.0 84.0 L 195.0 85.0 L 195.0 85.0 L 194.0 86.0 L 193.0 87.0 L 192.0 89.0 L 190.0 92.0 L 188.0 95.0 L 186.0 97.0 L 184.0 100.0 L 182.0 101.0 " stroke="black" fill="none" stroke-width="5.0" stroke-linecap="round" stroke-linejoin="round" />
<path d="M 137.0 107.0 L 137.0 107.0 L 137.0 107.0 L 137.0 107.0 L 137.0 107.0 L 137.0 107.0 L 137.0 107.0 L 137.0 108.0 L 137.0 110.0 L 137.0 112.0 L 137.0 115.0 L 137.0 118.0 L 137.0 120.0 L 137.0 123.0 L 137.0 124.0 " stroke="black" fill="none" stroke-width="5.0" stroke-linecap="round" stroke-linejoin="round" />
<path d="M 141.0 108.0 L 141.0 108.0 L 141.0 108.0 L 141.0 108.0 L 141.0 108.0 L 140.0 108.0 L 140.0 108.0 L 140.0 108.0 L 140.0 108.0 L 140.0 108.0 L 140.0 108.0 L 140.0 108.0 L 140.0 108.0 L 140.0 108.0 L 140.0 108.0 L 141.0 108.0 L 141.0 108.0 L 142.0 109.0 L 142.0 109.0 L 143.0 109.0 L 144.0 109.0 L 144.0 109.0 L 145.0 109.0 L 146.0 109.0 L 147.0 109.0 L 148.0 109.0 L 149.0 109.0 L 150.0 109.0 L 151.0 109.0 L 152.0 109.0 L 152.0 109.0 L 153.0 109.0 L 154.0 109.0 L 155.0 109.0 L 156.0 109.0 L 157.0 108.0 L 158.0 108.0 L 160.0 108.0 L 161.0 108.0 L 162.0 108.0 L 163.0 108.0 L 164.0 108.0 L 165.0 108.0 L 166.0 108.0 L 167.0 108.0 L 168.0 107.0 L 169.0 107.0 L 170.0 107.0 L 171.0 107.0 L 172.0 107.0 L 173.0 107.0 L 173.0 107.0 L 174.0 107.0 L 175.0 107.0 L 176.0 107.0 L 177.0 107.0 L 178.0 107.0 L 179.0 107.0 L 180.0 107.0 L 181.0 107.0 L 182.0 107.0 L 183.0 107.0 L 184.0 107.0 L 185.0 107.0 L 186.0 107.0 L 187.0 107.0 L 188.0 107.0 L 189.0 107.0 L 189.0 107.0 L 190.0 106.0 L 191.0 106.0 L 192.0 106.0 L 193.0 106.0 L 193.0 106.0 L 194.0 106.0 L 195.0 106.0 L 195.0 106.0 L 196.0 106.0 L 197.0 105.0 L 198.0 105.0 L 199.0 105.0 L 200.0 105.0 L 201.0 105.0 L 202.0 105.0 L 202.0 105.0 L 203.0 105.0 L 204.0 105.0 L 205.0 105.0 L 206.0 105.0 L 207.0 105.0 L 208.0 104.0 L 209.0 104.0 L 210.0 104.0 L 212.0 104.0 L 213.0 104.0 L 214.0 104.0 L 215.0 104.0 L 217.0 104.0 L 218.0 104.0 L 219.0 104.0 L 220.0 104.0 L 221.0 104.0 L 222.0 104.0 L 223.0 104.0 L 224.0 104.0 L 225.0 104.0 L 226.0 104.0 L 227.0 104.0 L 227.0 104.0 L 227.0 105.0 L 228.0 105.0 L 228.0 105.0 L 228.0 106.0 L 228.0 106.0 L 228.0 106.0 L 228.0 107.0 L 228.0 107.0 L 228.0 107.0 L 228.0 108.0 L 228.0 108.0 L 228.0 109.0 L 228.0 110.0 L 228.0 112.0 L 228.0 113.0 L 228.0 115.0 L 228.0 117.0 L 228.0 120.0 L 228.0 122.0 L 228.0 124.0 L 228.0 126.0 L 228.0 127.0 L 228.0 128.0 " stroke="black" fill="none" stroke-width="5.0" stroke-linecap="round" stroke-linejoin="round" />
<path d="M 183.0 111.0 L 183.0 111.0 L 182.0 111.0 L 182.0 112.0 L 181.0 112.0 L 180.0 113.0 L 179.0 114.0 L 177.0 116.0 L 175.0 118.0 L 172.0 120.0 L 168.0 123.0 L 164.0 125.0 L 161.0 127.0 L 158.0 129.0 L 156.0 130.0 L 154.0 131.0 L 153.0 131.0 " stroke="black" fill="none" stroke-width="5.0" stroke-linecap="round" stroke-linejoin="round" />
<path d="M 179.0 120.0 L 179.0 120.0 L 179.0 120.0 L 179.0 120.0 L 179.0 121.0 L 180.0 121.0 L 181.0 121.0 L 182.0 121.0 L 184.0 122.0 L 187.0 123.0 L 190.0 124.0 L 193.0 125.0 L 195.0 126.0 L 198.0 127.0 L 201.0 129.0 L 203.0 130.0 L 204.0 131.0 L 205.0 132.0 " stroke="black" fill="none" stroke-width="5.0" stroke-linecap="round" stroke-linejoin="round" />
<path d="M 136.0 144.0 L 136.0 145.0 L 136.0 147.0 L 136.0 150.0 L 137.0 152.0 L 137.0 155.0 L 137.0 158.0 L 137.0 162.0 L 137.0 166.0 L 137.0 170.0 L 137.0 174.0 L 137.0 178.0 L 137.0 182.0 L 137.0 184.0 L 137.0 186.0 " stroke="black" fill="none" stroke-width="5.0" stroke-linecap="round" stroke-linejoin="round" />
<path d="M 143.0 142.0 L 143.0 142.0 L 143.0 142.0 L 143.0 142.0 L 143.0 142.0 L 143.0 142.0 L 143.0 142.0 L 142.0 142.0 L 142.0 142.0 L 142.0 142.0 L 142.0 142.0 L 142.0 142.0 L 142.0 142.0 L 142.0 142.0 L 142.0 142.0 L 142.0 142.0 L 143.0 141.0 L 143.0 141.0 L 144.0 141.0 L 145.0 141.0 L 146.0 141.0 L 146.0 141.0 L 147.0 141.0 L 148.0 141.0 L 149.0 141.0 L 149.0 141.0 L 150.0 141.0 L 151.0 141.0 L 152.0 141.0 L 153.0 141.0 L 154.0 141.0 L 155.0 141.0 L 156.0 140.0 L 157.0 140.0 L 159.0 140.0 L 160.0 140.0 L 161.0 140.0 L 163.0 140.0 L 164.0 140.0 L 165.0 140.0 L 166.0 140.0 L 168.0 140.0 L 169.0 140.0 L 170.0 140.0 L 171.0 140.0 L 172.0 140.0 L 173.0 140.0 L 174.0 140.0 L 176.0 140.0 L 177.0 140.0 L 178.0 140.0 L 179.0 140.0 L 181.0 140.0 L 182.0 140.0 L 183.0 140.0 L 185.0 140.0 L 186.0 140.0 L 187.0 140.0 L 189.0 140.0 L 190.0 140.0 L 191.0 139.0 L 192.0 139.0 L 193.0 139.0 L 194.0 139.0 L 195.0 139.0 L 195.0 139.0 L 196.0 139.0 L 197.0 139.0 L 197.0 139.0 L 198.0 139.0 L 199.0 139.0 L 199.0 139.0 L 200.0 139.0 L 201.0 139.0 L 202.0 139.0 L 202.0 139.0 L 203.0 139.0 L 204.0 139.0 L 205.0 139.0 L 207.0 139.0 L 208.0 139.0 L 209.0 139.0 L 210.0 139.0 L 211.0 139.0 L 212.0 139.0 L 213.0 139.0 L 215.0 139.0 L 216.0 139.0 L 217.0 139.0 L 219.0 139.0 L 220.0 139.0 L 221.0 140.0 L 222.0 140.0 L 223.0 140.0 L 224.0 140.0 L 225.0 141.0 L 225.0 141.0 L 225.0 141.0 L 226.0 142.0 L 226.0 142.0 L 226.0 143.0 L 226.0 145.0 L 226.0 146.0 L 226.0 148.0 L 226.0 151.0 L 226.0 153.0 L 226.0 156.0 L 226.0 160.0 L 225.0 163.0 L 225.0 167.0 L 225.0 171.0 L 224.0 175.0 L 224.0 178.0 L 223.0 182.0 L 223.0 185.0 L 223.0 188.0 L 223.0 189.0 L 223.0 190.0 L 223.0 190.0 L 223.0 189.0 L 223.0 188.0 " stroke="black" fill="none" stroke-width="5.0" stroke-linecap="round" stroke-linejoin="round" />
<path d="M 149.0 157.0 L 149.0 157.0 L 149.0 157.0 L 149.0 157.0 L 149.0 157.0 L 149.0 157.0 L 149.0 157.0 L 149.0 157.0 L 149.0 157.0 L 149.0 157.0 L 150.0 157.0 L 151.0 157.0 L 152.0 157.0 L 155.0 157.0 L 158.0 156.0 L 162.0 156.0 L 167.0 155.0 L 172.0 155.0 L 177.0 154.0 L 181.0 154.0 L 185.0 154.0 L 189.0 153.0 L 192.0 153.0 L 195.0 153.0 L 197.0 153.0 L 198.0 153.0 L 200.0 153.0 L 202.0 153.0 L 203.0 154.0 L 204.0 154.0 L 205.0 155.0 L 206.0 155.0 L 206.0 156.0 L 206.0 156.0 L 206.0 157.0 L 205.0 158.0 " stroke="black" fill="none" stroke-width="5.0" stroke-linecap="round" stroke-linejoin="round" />
<path d="M 147.0 171.0 L 147.0 171.0 L 147.0 171.0 L 146.0 171.0 L 146.0 171.0 L 146.0 172.0 L 146.0 172.0 L 146.0 172.0 L 147.0 172.0 L 148.0 172.0 L 151.0 172.0 L 154.0 172.0 L 159.0 172.0 L 165.0 172.0 L 173.0 172.0 L 181.0 172.0 L 189.0 172.0 L 194.0 172.0 L 198.0 171.0 L 202.0 171.0 L 204.0 170.0 L 205.0 170.0 L 205.0 170.0 L 205.0 170.0 L 204.0 171.0 L 201.0 173.0 " stroke="black" fill="none" stroke-width="5.0" stroke-linecap="round" stroke-linejoin="round" />
<path d="M 143.0 190.0 L 143.0 190.0 L 142.0 190.0 L 142.0 190.0 L 141.0 190.0 L 141.0 190.0 L 141.0 190.0 L 141.0 190.0 L 141.0 190.0 L 142.0 190.0 L 144.0 190.0 L 147.0 190.0 L 150.0 190.0 L 154.0 190.0 L 160.0 190.0 L 168.0 190.0 L 177.0 190.0 L 186.0 190.0 L 193.0 190.0 L 198.0 189.0 L 203.0 187.0 L 206.0 186.0 L 208.0 186.0 L 210.0 186.0 L 210.0 186.0 " stroke="black" fill="none" stroke-width="5.0" stroke-linecap="round" stroke-linejoin="round" />
<path d="M 163.0 198.0 L 163.0 198.0 L 163.0 198.0 L 162.0 198.0 L 162.0 198.0 L 162.0 198.0 L 161.0 199.0 L 160.0 200.0 L 158.0 201.0 L 157.0 202.0 L 155.0 204.0 L 152.0 206.0 L 150.0 209.0 L 147.0 212.0 L 144.0 215.0 L 140.0 217.0 L 137.0 219.0 L 134.0 221.0 L 132.0 221.0 " stroke="black" fill="none" stroke-width="5.0" stroke-linecap="round" stroke-linejoin="round" />
<path d="M 155.0 212.0 L 155.0 212.0 L 154.0 212.0 L 153.0 212.0 L 152.0 212.0 L 151.0 212.0 L 151.0 212.0 L 151.0 212.0 L 151.0 212.0 L 151.0 212.0 L 151.0 212.0 L 151.0 212.0 L 152.0 212.0 L 153.0 211.0 L 154.0 211.0 L 155.0 211.0 L 156.0 211.0 L 157.0 211.0 L 159.0 211.0 L 161.0 210.0 L 163.0 210.0 L 165.0 210.0 L 168.0 210.0 L 171.0 210.0 L 175.0 210.0 L 178.0 209.0 L 181.0 209.0 L 184.0 209.0 L 187.0 209.0 L 189.0 209.0 L 191.0 209.0 L 193.0 209.0 L 194.0 209.0 L 196.0 209.0 L 197.0 209.0 L 198.0 209.0 L 200.0 209.0 L 201.0 209.0 L 203.0 210.0 L 205.0 210.0 L 207.0 210.0 L 210.0 210.0 L 212.0 210.0 L 215.0 210.0 L 218.0 210.0 L 221.0 210.0 L 223.0 210.0 L 226.0 210.0 L 227.0 210.0 L 229.0 210.0 L 230.0 210.0 L 230.0 210.0 L 230.0 210.0 L 230.0 210.0 L 230.0 210.0 L 230.0 210.0 L 229.0 211.0 L 227.0 212.0 L 226.0 213.0 L 224.0 214.0 L 221.0 216.0 L 219.0 218.0 L 215.0 220.0 L 212.0 222.0 L 209.0 225.0 L 205.0 228.0 L 201.0 230.0 L 198.0 233.0 L 194.0 235.0 L 191.0 237.0 L 188.0 239.0 L 184.0 241.0 L 179.0 243.0 L 173.0 244.0 L 167.0 246.0 L 161.0 247.0 L 157.0 249.0 L 153.0 249.0 L 151.0 250.0 L 149.0 250.0 L 148.0 250.0 L 147.0 249.0 L 146.0 247.0 " stroke="black" fill="none" stroke-width="5.0" stroke-linecap="round" stroke-linejoin="round" />
<path d="M 150.0 225.0 L 150.0 225.0 L 150.0 225.0 L 149.0 225.0 L 149.0 225.0 L 149.0 225.0 L 149.0 225.0 L 149.0 225.0 L 149.0 225.0 L 149.0 225.0 L 149.0 225.0 L 149.0 225.0 L 150.0 225.0 L 152.0 226.0 L 153.0 227.0 L 155.0 228.0 L 158.0 230.0 L 162.0 231.0 L 166.0 233.0 L 172.0 235.0 L 179.0 237.0 L 186.0 239.0 L 192.0 240.0 L 197.0 241.0 L 202.0 242.0 L 207.0 242.0 L 212.0 243.0 L 218.0 244.0 L 224.0 246.0 L 228.0 247.0 L 232.0 248.0 L 234.0 249.0 L 235.0 249.0 L 236.0 249.0 L 237.0 249.0 L 237.0 249.0 L 237.0 249.0 L 237.0 248.0 L 237.0 248.0 " stroke="black" fill="none" stroke-width="5.0" stroke-linecap="round" stroke-linejoin="round" />
</svg>