<svg xmlns="http://www.w3.org/2000/svg" width="300" height="300" viewBox="0 0 300 300">
<path d="M 92.0 84.0 L 92.0 84.0 L 91.0 83.0 L 91.0 83.0 L 91.0 83.0 L 90.0 82.0 L 90.0 82.0 L 90.0 82.0 L 90.0 83.0 L 90.0 85.0 L 90.0 89.0 L 91.0 95.0 L 91.0 101.0 L 91.0 109.0 L 91.0 117.0 L 91.0 125.0 L 91.0 133.0 L 92.0 139.0 L 94.0 143.0 L 96.0 145.0 L 98.0 145.0 " stroke="black" fill="none" stroke-width="5.0" stroke-linecap="round" stroke-linejoin="round" />
<path d="M 94.0 83.0 L 94.0 83.0 L 93.0 83.0 L 92.0 83.0 L 92.0 83.0 L 91.0 83.0 L 91.0 83.0 L 91.0 83.0 L 91.0 83.0 L 91.0 83.0 L 92.0 83.0 L 92.0 82.0 L 93.0 82.0 L 94.0 82.0 L 95.0 82.0 L 97.0 82.0 L 98.0 81.0 L 100.0 81.0 L 101.0 81.0 L 103.0 80.0 L 105.0 80.0 L 107.0 80.0 L 108.0 80.0 L 110.0 79.0 L 111.0 79.0 L 112.0 79.0 L 114.0 79.0 L 115.0 80.0 L 116.0 80.0 L 118.0 80.0 L 119.0 80.0 L 121.0 80.0 L 123.0 80.0 L 124.0 80.0 L 126.0 80.0 L 128.0 80.0 L 129.0 80.0 L 130.0 80.0 L 132.0 80.0 L 133.0 80.0 L 135.0 80.0 L 136.0 80.0 L 138.0 80.0 L 139.0 80.0 L 140.0 80.0 L 142.0 80.0 L 143.0 80.0 L 144.0 80.0 L 145.0 80.0 L 145.0 80.0 L 146.0 80.0 L 146.0 80.0 L 147.0 80.0 L 147.0 80.0 L 148.0 80.0 L 148.0 80.0 L 149.0 80.0 L 150.0 80.0 L 150.0 80.0 L 151.0 80.0 L 151.0 80.0 L 152.0 80.0 L 152.0 80.0 L 153.0 80.0 L 153.0 80.0 L 154.0 80.0 L 155.0 80.0 L 155.0 80.0 L 156.0 80.0 L 157.0 80.0 L 158.0 80.0 L 158.0 80.0 L 159.0 80.0 L 160.0 80.0 L 161.0 80.0 L 162.0 80.0 L 163.0 80.0 L 165.0 80.0 L 166.0 80.0 L 167.0 80.0 L 169.0 80.0 L 170.0 80.0 L 172.0 80.0 L 173.0 80.0 L 175.0 80.0 L 176.0 81.0 L 177.0 81.0 L 178.0 81.0 L 179.0 81.0 L 180.0 81.0 L 182.0 81.0 L 183.0 81.0 L 184.0 81.0 L 185.0 81.0 L 187.0 81.0 L 188.0 81.0 L 189.0 81.0 L 190.0 81.0 L 191.0 81.0 L 192.0 81.0 L 193.0 82.0 L 194.0 82.0 L 195.0 82.0 L 197.0 82.0 L 198.0 82.0 L 199.0 82.0 L 200.0 82.0 L 202.0 82.0 L 203.0 82.0 L 205.0 82.0 L 206.0 82.0 L 208.0 82.0 L 209.0 82.0 L 211.0 83.0 L 212.0 83.0 L 214.0 83.0 L 215.0 83.0 L 216.0 83.0 L 217.0 83.0 L 218.0 83.0 L 219.0 83.0 L 219.0 84.0 L 220.0 84.0 L 220.0 84.0 L 220.0 85.0 L 220.0 85.0 L 220.0 86.0 L 220.0 87.0 L 220.0 88.0 L 220.0 90.0 L 219.0 92.0 L 219.0 94.0 L 218.0 98.0 L 217.0 101.0 L 216.0 106.0 L 215.0 111.0 L 214.0 116.0 L 213.0 121.0 L 212.0 126.0 L 211.0 130.0 L 211.0 134.0 L 210.0 137.0 L 210.0 139.0 L 210.0 140.0 L 210.0 140.0 " stroke="black" fill="none" stroke-width="5.0" stroke-linecap="round" stroke-linejoin="round" />
<path d="M 104.0 115.0 L 104.0 115.0 L 104.0 115.0 L 103.0 115.0 L 103.0 115.0 L 103.0 115.0 L 102.0 115.0 L 102.0 115.0 L 102.0 115.0 L 102.0 115.0 L 102.0 114.0 L 102.0 114.0 L 102.0 113.0 L 103.0 113.0 L 104.0 113.0 L 105.0 113.0 L 107.0 113.0 L 109.0 113.0 L 112.0 113.0 L 116.0 113.0 L 121.0 113.0 L 128.0 113.0 L 136.0 113.0 L 143.0 113.0 L 148.0 113.0 L 154.0 113.0 L 157.0 113.0 L 161.0 113.0 L 165.0 113.0 L 169.0 113.0 L 174.0 113.0 L 179.0 113.0 L 183.0 113.0 L 187.0 113.0 L 191.0 113.0 L 193.0 112.0 L 195.0 111.0 L 197.0 111.0 L 198.0 110.0 L 199.0 110.0 L 200.0 110.0 L 200.0 110.0 L 200.0 110.0 L 200.0 110.0 L 199.0 110.0 " stroke="black" fill="none" stroke-width="5.0" stroke-linecap="round" stroke-linejoin="round" />
<path d="M 151.0 86.0 L 151.0 86.0 L 151.0 85.0 L 151.0 85.0 L 151.0 84.0 L 151.0 83.0 L 151.0 83.0 L 152.0 83.0 L 152.0 83.0 L 152.0 84.0 L 153.0 86.0 L 153.0 90.0 L 153.0 96.0 L 153.0 102.0 L 153.0 109.0 L 153.0 116.0 L 153.0 123.0 L 153.0 129.0 L 153.0 133.0 L 153.0 136.0 L 152.0 137.0 L 152.0 138.0 " stroke="black" fill="none" stroke-width="5.0" stroke-linecap="round" stroke-linejoin="round" />
<path d="M 105.0 142.0 L 105.0 142.0 L 104.0 142.0 L 104.0 142.0 L 103.0 142.0 L 103.0 142.0 L 102.0 143.0 L 102.0 143.0 L 102.0 143.0 L 101.0 143.0 L 101.0 143.0 L 101.0 143.0 L 102.0 143.0 L 103.0 143.0 L 105.0 143.0 L 107.0 143.0 L 110.0 143.0 L 114.0 143.0 L 119.0 143.0 L 126.0 143.0 L 135.0 142.0 L 143.0 142.0 L 149.0 141.0 L 156.0 141.0 L 160.0 141.0 L 165.0 141.0 L 171.0 141.0 L 176.0 141.0 L 180.0 141.0 L 185.0 141.0 L 188.0 141.0 L 191.0 141.0 L 193.0 141.0 L 195.0 141.0 L 196.0 142.0 L 197.0 142.0 L 198.0 142.0 L 199.0 142.0 L 199.0 142.0 " stroke="black" fill="none" stroke-width="5.0" stroke-linecap="round" stroke-linejoin="round" />
<path d="M 61.0 174.0 L 61.0 174.0 L 61.0 174.0 L 61.0 174.0 L 61.0 174.0 L 61.0 174.0 L 60.0 174.0 L 60.0 174.0 L 60.0 174.0 L 60.0 174.0 L 60.0 174.0 L 60.0 174.0 L 60.0 174.0 L 60.0 174.0 L 60.0 174.0 L 61.0 174.0 L 62.0 174.0 L 62.0 174.0 L 63.0 174.0 L 64.0 174.0 L 66.0 174.0 L 67.0 174.0 L 68.0 174.0 L 69.0 174.0 L 71.0 175.0 L 72.0 175.0 L 73.0 175.0 L 75.0 175.0 L 76.0 175.0 L 77.0 176.0 L 79.0 176.0 L 80.0 176.0 L 82.0 176.0 L 83.0 177.0 L 85.0 177.0 L 86.0 177.0 L 88.0 177.0 L 89.0 177.0 L 90.0 177.0 L 92.0 177.0 L 93.0 177.0 L 94.0 178.0 L 96.0 178.0 L 97.0 178.0 L 98.0 178.0 L 100.0 178.0 L 101.0 178.0 L 102.0 178.0 L 103.0 178.0 L 105.0 178.0 L 106.0 178.0 L 107.0 178.0 L 108.0 178.0 L 109.0 178.0 L 110.0 177.0 L 112.0 177.0 L 113.0 177.0 L 114.0 177.0 L 115.0 176.0 L 116.0 176.0 L 117.0 176.0 L 118.0 176.0 L 119.0 176.0 L 121.0 176.0 L 122.0 176.0 L 123.0 176.0 L 124.0 176.0 L 125.0 176.0 L 127.0 176.0 L 128.0 176.0 L 130.0 176.0 L 132.0 176.0 L 134.0 176.0 L 136.0 176.0 L 138.0 176.0 L 140.0 176.0 L 142.0 176.0 L 144.0 176.0 L 146.0 176.0 L 148.0 176.0 L 149.0 176.0 L 151.0 176.0 L 152.0 176.0 L 153.0 176.0 L 154.0 176.0 L 155.0 175.0 L 156.0 175.0 L 157.0 175.0 L 158.0 175.0 L 159.0 175.0 L 160.0 175.0 L 161.0 175.0 L 162.0 175.0 L 163.0 175.0 L 165.0 175.0 L 166.0 174.0 L 167.0 174.0 L 169.0 174.0 L 170.0 174.0 L 171.0 174.0 L 173.0 174.0 L 174.0 174.0 L 175.0 174.0 L 177.0 174.0 L 178.0 174.0 L 180.0 174.0 L 182.0 174.0 L 183.0 174.0 L 185.0 174.0 L 187.0 174.0 L 188.0 174.0 L 190.0 174.0 L 191.0 174.0 L 193.0 174.0 L 194.0 174.0 L 195.0 174.0 L 196.0 174.0 L 198.0 174.0 L 199.0 174.0 L 200.0 174.0 L 202.0 174.0 L 203.0 174.0 L 204.0 174.0 L 205.0 174.0 L 206.0 174.0 L 207.0 174.0 L 208.0 174.0 L 209.0 174.0 L 210.0 175.0 L 211.0 175.0 L 212.0 175.0 L 213.0 176.0 L 214.0 176.0 L 216.0 176.0 L 217.0 176.0 L 218.0 177.0 L 219.0 177.0 L 220.0 177.0 L 220.0 178.0 L 221.0 178.0 L 221.0 178.0 " stroke="black" fill="none" stroke-width="5.0" stroke-linecap="round" stroke-linejoin="round" />
<path d="M 102.0 183.0 L 102.0 183.0 L 102.0 183.0 L 102.0 183.0 L 102.0 183.0 L 102.0 183.0 L 102.0 183.0 L 102.0 183.0 L 102.0 184.0 L 102.0 186.0 L 103.0 188.0 L 103.0 191.0 L 103.0 195.0 L 104.0 199.0 L 104.0 204.0 L 104.0 209.0 L 104.0 213.0 L 104.0 218.0 L 104.0 223.0 L 103.0 228.0 L 103.0 232.0 L 102.0 236.0 L 101.0 238.0 L 101.0 240.0 L 101.0 242.0 L 100.0 242.0 L 100.0 242.0 L 100.0 242.0 L 100.0 242.0 L 100.0 242.0 L 100.0 242.0 L 100.0 242.0 L 100.0 242.0 L 100.0 242.0 L 100.0 242.0 L 99.0 242.0 L 98.0 242.0 L 98.0 243.0 L 97.0 243.0 L 96.0 243.0 L 96.0 243.0 L 96.0 243.0 L 95.0 243.0 L 95.0 243.0 L 95.0 243.0 L 95.0 243.0 L 95.0 243.0 L 95.0 243.0 L 95.0 243.0 L 95.0 243.0 L 96.0 243.0 L 98.0 243.0 L 100.0 243.0 L 102.0 243.0 L 105.0 242.0 L 110.0 241.0 L 116.0 240.0 L 124.0 238.0 L 132.0 236.0 L 139.0 234.0 L 146.0 232.0 L 149.0 231.0 L 151.0 230.0 L 152.0 229.0 L 152.0 228.0 " stroke="black" fill="none" stroke-width="5.0" stroke-linecap="round" stroke-linejoin="round" />
<path d="M 207.0 195.0 L 207.0 195.0 L 207.0 195.0 L 207.0 195.0 L 207.0 195.0 L 207.0 195.0 L 207.0 195.0 L 207.0 195.0 L 207.0 196.0 L 207.0 196.0 L 206.0 197.0 L 204.0 199.0 L 202.0 202.0 L 198.0 205.0 L 194.0 209.0 L 190.0 212.0 L 187.0 214.0 " stroke="black" fill="none" stroke-width="5.0" stroke-linecap="round" stroke-linejoin="round" />
<path d="M 161.0 192.0 L 161.0 192.0 L 160.0 191.0 L 160.0 190.0 L 159.0 189.0 L 159.0 188.0 L 159.0 187.0 L 159.0 186.0 L 159.0 186.0 L 159.0 186.0 L 159.0 186.0 L 159.0 186.0 L 159.0 186.0 L 159.0 187.0 L 160.0 189.0 L 161.0 190.0 L 162.0 192.0 L 163.0 194.0 L 164.0 197.0 L 166.0 199.0 L 168.0 202.0 L 170.0 205.0 L 173.0 208.0 L 177.0 213.0 L 180.0 217.0 L 184.0 221.0 L 187.0 226.0 L 190.0 230.0 L 193.0 234.0 L 196.0 236.0 L 198.0 238.0 L 200.0 240.0 L 203.0 242.0 L 206.0 243.0 L 209.0 244.0 L 212.0 245.0 L 216.0 245.0 L 219.0 246.0 L 222.0 246.0 L 224.0 246.0 L 226.0 246.0 L 227.0 246.0 L 228.0 246.0 L 228.0 246.0 L 228.0 246.0 " stroke="black" fill="none" stroke-width="5.0" stroke-linecap="round" stroke-linejoin="round" />
</svg>