<svg xmlns="http://www.w3.org/2000/svg" width="300" height="300" viewBox="0 0 300 300">
<path d="M 89.0 89.0 L 88.0 89.0 L 87.0 88.0 L 86.0 87.0 L 86.0 87.0 L 85.0 87.0 L 85.0 87.0 L 85.0 87.0 L 86.0 89.0 L 87.0 92.0 L 88.0 97.0 L 89.0 103.0 L 89.0 110.0 L 89.0 119.0 L 89.0 128.0 L 89.0 137.0 L 88.0 146.0 L 88.0 151.0 " stroke="black" fill="none" stroke-width="5.0" stroke-linecap="round" stroke-linejoin="round" />
<path d="M 94.0 87.0 L 94.0 87.0 L 93.0 87.0 L 92.0 87.0 L 91.0 88.0 L 90.0 88.0 L 90.0 88.0 L 90.0 88.0 L 90.0 88.0 L 90.0 87.0 L 90.0 87.0 L 90.0 86.0 L 91.0 86.0 L 92.0 85.0 L 93.0 85.0 L 95.0 84.0 L 97.0 84.0 L 99.0 83.0 L 102.0 83.0 L 105.0 82.0 L 109.0 80.0 L 113.0 79.0 L 118.0 78.0 L 123.0 77.0 L 129.0 76.0 L 136.0 75.0 L 141.0 75.0 L 145.0 75.0 L 149.0 75.0 L 151.0 75.0 L 154.0 75.0 L 156.0 75.0 L 158.0 75.0 L 160.0 75.0 L 164.0 75.0 L 167.0 75.0 L 172.0 74.0 L 177.0 73.0 L 182.0 73.0 L 187.0 72.0 L 190.0 72.0 L 192.0 72.0 L 194.0 72.0 L 196.0 72.0 L 197.0 72.0 L 198.0 72.0 L 200.0 73.0 L 201.0 73.0 L 202.0 73.0 L 203.0 73.0 L 204.0 73.0 L 205.0 73.0 L 206.0 74.0 L 206.0 74.0 L 207.0 75.0 L 208.0 75.0 L 209.0 75.0 L 209.0 75.0 L 210.0 76.0 L 210.0 76.0 L 210.0 76.0 L 210.0 76.0 L 210.0 77.0 L 210.0 77.0 L 210.0 77.0 L 210.0 78.0 L 210.0 78.0 L 210.0 79.0 L 210.0 80.0 L 210.0 80.0 L 210.0 81.0 L 209.0 82.0 L 209.0 84.0 L 209.0 86.0 L 208.0 89.0 L 208.0 93.0 L 208.0 99.0 L 207.0 106.0 L 207.0 113.0 L 207.0 119.0 L 207.0 125.0 L 207.0 132.0 L 207.0 136.0 L 207.0 139.0 L 208.0 143.0 L 208.0 144.0 L 208.0 145.0 L 206.0 146.0 L 203.0 147.0 L 201.0 148.0 " stroke="black" fill="none" stroke-width="5.0" stroke-linecap="round" stroke-linejoin="round" />
<path d="M 105.0 117.0 L 104.0 117.0 L 103.0 117.0 L 101.0 117.0 L 100.0 117.0 L 99.0 117.0 L 99.0 117.0 L 99.0 117.0 L 98.0 117.0 L 98.0 117.0 L 98.0 117.0 L 98.0 117.0 L 99.0 117.0 L 101.0 117.0 L 103.0 117.0 L 107.0 118.0 L 113.0 118.0 L 122.0 118.0 L 133.0 117.0 L 147.0 116.0 L 160.0 114.0 L 173.0 111.0 L 185.0 109.0 L 194.0 108.0 L 198.0 107.0 " stroke="black" fill="none" stroke-width="5.0" stroke-linecap="round" stroke-linejoin="round" />
<path d="M 153.0 86.0 L 153.0 86.0 L 153.0 85.0 L 153.0 85.0 L 152.0 84.0 L 152.0 84.0 L 152.0 84.0 L 152.0 84.0 L 152.0 84.0 L 152.0 87.0 L 152.0 92.0 L 152.0 99.0 L 153.0 106.0 L 153.0 115.0 L 153.0 124.0 L 152.0 132.0 L 151.0 141.0 L 150.0 147.0 L 149.0 151.0 L 147.0 154.0 L 145.0 155.0 L 142.0 155.0 L 141.0 155.0 " stroke="black" fill="none" stroke-width="5.0" stroke-linecap="round" stroke-linejoin="round" />
<path d="M 116.0 150.0 L 115.0 150.0 L 113.0 149.0 L 111.0 149.0 L 109.0 149.0 L 107.0 149.0 L 106.0 149.0 L 104.0 149.0 L 103.0 149.0 L 103.0 149.0 L 103.0 149.0 L 103.0 149.0 L 103.0 149.0 L 104.0 149.0 L 107.0 149.0 L 110.0 149.0 L 114.0 149.0 L 119.0 148.0 L 127.0 147.0 L 137.0 146.0 L 148.0 144.0 L 159.0 143.0 L 170.0 141.0 L 183.0 140.0 L 193.0 139.0 L 200.0 139.0 L 204.0 139.0 L 206.0 139.0 L 208.0 140.0 L 209.0 141.0 L 210.0 143.0 L 210.0 144.0 L 210.0 146.0 " stroke="black" fill="none" stroke-width="5.0" stroke-linecap="round" stroke-linejoin="round" />
<path d="M 84.0 191.0 L 83.0 191.0 L 82.0 191.0 L 81.0 191.0 L 81.0 190.0 L 80.0 190.0 L 80.0 190.0 L 80.0 190.0 L 81.0 190.0 L 83.0 190.0 L 85.0 190.0 L 89.0 190.0 L 93.0 190.0 L 98.0 190.0 L 104.0 191.0 L 110.0 191.0 L 117.0 191.0 L 126.0 191.0 L 136.0 191.0 L 147.0 189.0 L 156.0 188.0 L 164.0 187.0 L 172.0 187.0 L 180.0 187.0 L 187.0 187.0 L 193.0 188.0 L 197.0 189.0 L 201.0 190.0 L 205.0 190.0 L 208.0 190.0 L 211.0 190.0 L 214.0 190.0 L 217.0 190.0 L 218.0 190.0 L 219.0 190.0 L 220.0 191.0 L 220.0 192.0 L 220.0 193.0 L 219.0 195.0 L 218.0 196.0 L 217.0 198.0 L 216.0 200.0 L 214.0 201.0 L 214.0 202.0 L 213.0 203.0 L 212.0 205.0 L 211.0 207.0 L 210.0 208.0 L 210.0 211.0 L 208.0 213.0 L 207.0 216.0 L 206.0 220.0 L 205.0 225.0 L 204.0 230.0 L 202.0 235.0 L 200.0 240.0 L 199.0 244.0 L 197.0 247.0 L 195.0 250.0 L 193.0 252.0 L 191.0 253.0 L 189.0 254.0 L 187.0 254.0 L 185.0 254.0 L 182.0 253.0 L 179.0 252.0 L 175.0 249.0 L 173.0 247.0 " stroke="black" fill="none" stroke-width="5.0" stroke-linecap="round" stroke-linejoin="round" />
<path d="M 149.0 160.0 L 149.0 160.0 L 149.0 160.0 L 149.0 160.0 L 149.0 159.0 L 149.0 159.0 L 149.0 159.0 L 148.0 159.0 L 148.0 159.0 L 148.0 159.0 L 148.0 159.0 L 148.0 160.0 L 148.0 163.0 L 148.0 166.0 L 147.0 171.0 L 144.0 178.0 L 141.0 186.0 L 135.0 194.0 L 129.0 202.0 L 122.0 209.0 L 116.0 217.0 L 111.0 224.0 L 106.0 230.0 L 99.0 236.0 L 92.0 240.0 L 84.0 243.0 L 77.0 246.0 L 74.0 248.0 L 72.0 250.0 L 71.0 250.0 " stroke="black" fill="none" stroke-width="5.0" stroke-linecap="round" stroke-linejoin="round" />
</svg>