<svg xmlns="http://www.w3.org/2000/svg" width="300" height="300" viewBox="0 0 300 300">
<path d="M 78.0 131.0 L 78.0 130.0 L 78.0 130.0 L 78.0 129.0 L 78.0 129.0 L 78.0 129.0 L 78.0 132.0 L 80.0 139.0 L 81.0 147.0 L 82.0 158.0 L 82.0 173.0 L 82.0 190.0 L 81.0 206.0 L 80.0 222.0 L 78.0 237.0 L 78.0 247.0 L 78.0 254.0 L 79.0 258.0 " stroke="black" fill="none" stroke-width="5.0" stroke-linecap="round" stroke-linejoin="round" />
<path d="M 78.0 118.0 L 76.0 117.0 L 75.0 117.0 L 74.0 117.0 L 73.0 117.0 L 72.0 117.0 L 72.0 117.0 L 72.0 117.0 L 72.0 117.0 L 73.0 117.0 L 74.0 117.0 L 76.0 117.0 L 78.0 117.0 L 81.0 116.0 L 83.0 116.0 L 86.0 116.0 L 89.0 116.0 L 93.0 115.0 L 96.0 115.0 L 99.0 115.0 L 102.0 115.0 L 105.0 115.0 L 108.0 115.0 L 110.0 115.0 L 113.0 115.0 L 117.0 115.0 L 121.0 116.0 L 126.0 116.0 L 131.0 117.0 L 137.0 117.0 L 142.0 117.0 L 146.0 118.0 L 151.0 118.0 L 154.0 119.0 L 158.0 119.0 L 162.0 119.0 L 165.0 120.0 L 168.0 120.0 L 172.0 121.0 L 176.0 121.0 L 179.0 122.0 L 182.0 123.0 L 185.0 123.0 L 188.0 124.0 L 191.0 124.0 L 193.0 124.0 L 194.0 124.0 L 196.0 124.0 L 198.0 124.0 L 200.0 124.0 L 201.0 124.0 L 203.0 124.0 L 204.0 124.0 L 205.0 125.0 L 206.0 125.0 L 207.0 125.0 L 208.0 126.0 L 209.0 126.0 L 210.0 127.0 L 211.0 127.0 L 212.0 128.0 L 213.0 128.0 L 214.0 130.0 L 215.0 131.0 L 215.0 133.0 L 216.0 136.0 L 216.0 141.0 L 216.0 146.0 L 215.0 152.0 L 215.0 159.0 L 214.0 166.0 L 213.0 174.0 L 213.0 182.0 L 213.0 191.0 L 212.0 199.0 L 212.0 206.0 L 212.0 212.0 L 212.0 219.0 L 212.0 225.0 L 212.0 230.0 L 212.0 235.0 L 212.0 239.0 L 211.0 241.0 " stroke="black" fill="none" stroke-width="5.0" stroke-linecap="round" stroke-linejoin="round" />
<path d="M 83.0 173.0 L 81.0 172.0 L 80.0 171.0 L 78.0 171.0 L 78.0 171.0 L 78.0 171.0 L 78.0 171.0 L 81.0 171.0 L 86.0 172.0 L 92.0 173.0 L 100.0 174.0 L 109.0 174.0 L 123.0 174.0 L 140.0 174.0 L 156.0 173.0 L 172.0 171.0 L 186.0 170.0 L 195.0 168.0 L 201.0 167.0 L 203.0 167.0 L 205.0 167.0 L 206.0 167.0 L 206.0 167.0 " stroke="black" fill="none" stroke-width="5.0" stroke-linecap="round" stroke-linejoin="round" />
<path d="M 149.0 91.0 L 149.0 91.0 L 149.0 91.0 L 148.0 90.0 L 148.0 90.0 L 148.0 91.0 L 148.0 95.0 L 148.0 100.0 L 149.0 108.0 L 151.0 119.0 L 152.0 131.0 L 153.0 146.0 L 154.0 161.0 L 154.0 174.0 L 154.0 189.0 L 153.0 202.0 L 152.0 212.0 L 151.0 221.0 L 151.0 229.0 L 151.0 234.0 L 151.0 236.0 L 151.0 238.0 " stroke="black" fill="none" stroke-width="5.0" stroke-linecap="round" stroke-linejoin="round" />
<path d="M 93.0 233.0 L 91.0 233.0 L 87.0 233.0 L 84.0 234.0 L 82.0 234.0 L 81.0 235.0 L 80.0 235.0 L 80.0 236.0 L 82.0 237.0 L 85.0 237.0 L 90.0 238.0 L 96.0 238.0 L 104.0 238.0 L 112.0 238.0 L 123.0 238.0 L 136.0 237.0 L 149.0 235.0 L 161.0 234.0 L 173.0 233.0 L 185.0 232.0 L 192.0 232.0 L 197.0 232.0 L 200.0 234.0 " stroke="black" fill="none" stroke-width="5.0" stroke-linecap="round" stroke-linejoin="round" />
</svg>