<svg xmlns="http://www.w3.org/2000/svg" width="300" height="300" viewBox="0 0 300 300">
<path d="M 108.0 81.0 L 108.0 81.0 L 108.0 80.0 L 108.0 79.0 L 108.0 79.0 L 108.0 78.0 L 108.0 78.0 L 108.0 77.0 L 108.0 77.0 L 108.0 77.0 L 108.0 78.0 L 108.0 81.0 L 107.0 86.0 L 105.0 94.0 L 102.0 104.0 L 97.0 115.0 L 91.0 126.0 L 84.0 136.0 L 77.0 145.0 L 71.0 151.0 L 67.0 154.0 " stroke="black" fill="none" stroke-width="5.0" stroke-linecap="round" stroke-linejoin="round" />
<path d="M 111.0 116.0 L 111.0 116.0 L 109.0 117.0 L 107.0 117.0 L 105.0 117.0 L 104.0 118.0 L 104.0 118.0 L 103.0 118.0 L 103.0 118.0 L 104.0 118.0 L 105.0 118.0 L 107.0 118.0 L 110.0 118.0 L 114.0 118.0 L 119.0 118.0 L 126.0 118.0 L 135.0 118.0 L 144.0 118.0 L 153.0 118.0 L 165.0 118.0 L 176.0 117.0 L 187.0 115.0 L 196.0 114.0 L 201.0 112.0 L 205.0 112.0 L 210.0 111.0 L 214.0 111.0 L 218.0 111.0 L 221.0 112.0 L 222.0 113.0 L 223.0 113.0 " stroke="black" fill="none" stroke-width="5.0" stroke-linecap="round" stroke-linejoin="round" />
<path d="M 106.0 173.0 L 105.0 173.0 L 103.0 172.0 L 101.0 171.0 L 99.0 171.0 L 98.0 170.0 L 96.0 170.0 L 95.0 170.0 L 95.0 170.0 L 95.0 170.0 L 95.0 170.0 L 97.0 171.0 L 100.0 171.0 L 103.0 171.0 L 108.0 171.0 L 114.0 171.0 L 122.0 171.0 L 131.0 171.0 L 142.0 171.0 L 153.0 171.0 L 165.0 171.0 L 178.0 170.0 L 188.0 169.0 L 196.0 167.0 L 202.0 166.0 L 207.0 165.0 L 212.0 165.0 L 217.0 165.0 L 220.0 165.0 L 222.0 165.0 " stroke="black" fill="none" stroke-width="5.0" stroke-linecap="round" stroke-linejoin="round" />
<path d="M 153.0 81.0 L 153.0 81.0 L 152.0 81.0 L 152.0 81.0 L 151.0 81.0 L 151.0 82.0 L 151.0 84.0 L 151.0 88.0 L 151.0 94.0 L 151.0 102.0 L 151.0 112.0 L 151.0 123.0 L 151.0 136.0 L 151.0 150.0 L 151.0 163.0 L 151.0 175.0 L 151.0 188.0 L 151.0 199.0 L 152.0 208.0 L 152.0 216.0 L 152.0 223.0 L 153.0 228.0 L 153.0 231.0 L 153.0 233.0 L 153.0 233.0 L 153.0 233.0 L 153.0 232.0 " stroke="black" fill="none" stroke-width="5.0" stroke-linecap="round" stroke-linejoin="round" />
<path d="M 79.0 241.0 L 78.0 241.0 L 74.0 241.0 L 72.0 241.0 L 69.0 241.0 L 67.0 240.0 L 67.0 240.0 L 66.0 240.0 L 66.0 239.0 L 67.0 238.0 L 68.0 237.0 L 71.0 236.0 L 75.0 236.0 L 80.0 235.0 L 86.0 235.0 L 93.0 235.0 L 101.0 235.0 L 109.0 236.0 L 119.0 237.0 L 132.0 238.0 L 146.0 239.0 L 159.0 239.0 L 175.0 239.0 L 190.0 239.0 L 200.0 239.0 L 208.0 240.0 L 217.0 241.0 L 224.0 242.0 L 231.0 243.0 L 236.0 243.0 L 240.0 243.0 L 243.0 243.0 L 248.0 243.0 L 252.0 243.0 L 256.0 242.0 L 258.0 242.0 L 259.0 242.0 L 259.0 243.0 L 258.0 245.0 " stroke="black" fill="none" stroke-width="5.0" stroke-linecap="round" stroke-linejoin="round" />
</svg>