<svg xmlns="http://www.w3.org/2000/svg" width="300" height="300" viewBox="0 0 300 300">
<path d="M 107.0 69.0 L 107.0 69.0 L 107.0 69.0 L 107.0 69.0 L 107.0 69.0 L 107.0 69.0 L 107.0 69.0 L 107.0 69.0 L 107.0 70.0 L 107.0 71.0 L 107.0 73.0 L 107.0 75.0 L 106.0 77.0 L 105.0 80.0 L 104.0 83.0 L 103.0 86.0 " stroke="black" fill="none" stroke-width="5.0" stroke-linecap="round" stroke-linejoin="round" />
<path d="M 78.0 87.0 L 78.0 87.0 L 78.0 87.0 L 78.0 87.0 L 78.0 87.0 L 78.0 87.0 L 78.0 87.0 L 78.0 87.0 L 78.0 87.0 L 78.0 87.0 L 78.0 87.0 L 78.0 87.0 L 78.0 87.0 L 78.0 88.0 L 79.0 88.0 L 79.0 88.0 L 79.0 89.0 L 79.0 90.0 L 79.0 91.0 L 79.0 93.0 L 79.0 94.0 L 79.0 96.0 L 79.0 99.0 L 79.0 101.0 L 79.0 103.0 L 79.0 106.0 L 79.0 108.0 L 79.0 110.0 L 79.0 112.0 L 79.0 114.0 L 79.0 116.0 L 79.0 118.0 L 79.0 120.0 L 79.0 122.0 L 79.0 123.0 L 79.0 125.0 L 79.0 127.0 L 79.0 129.0 L 79.0 131.0 L 79.0 134.0 L 79.0 136.0 L 79.0 138.0 L 79.0 141.0 L 79.0 144.0 L 79.0 146.0 L 78.0 149.0 L 78.0 152.0 L 77.0 155.0 L 76.0 157.0 L 76.0 160.0 L 75.0 162.0 L 74.0 165.0 L 74.0 168.0 L 73.0 170.0 L 72.0 173.0 L 71.0 175.0 L 70.0 177.0 L 69.0 179.0 L 68.0 181.0 L 68.0 181.0 " stroke="black" fill="none" stroke-width="5.0" stroke-linecap="round" stroke-linejoin="round" />
<path d="M 81.0 89.0 L 81.0 89.0 L 81.0 89.0 L 81.0 89.0 L 81.0 89.0 L 81.0 89.0 L 81.0 89.0 L 81.0 89.0 L 81.0 89.0 L 81.0 89.0 L 81.0 89.0 L 82.0 89.0 L 83.0 89.0 L 83.0 89.0 L 85.0 89.0 L 86.0 89.0 L 88.0 89.0 L 89.0 89.0 L 91.0 89.0 L 93.0 89.0 L 94.0 89.0 L 96.0 89.0 L 98.0 89.0 L 99.0 89.0 L 100.0 89.0 L 101.0 89.0 L 102.0 89.0 L 103.0 89.0 L 104.0 89.0 L 105.0 89.0 L 106.0 89.0 L 107.0 89.0 L 107.0 89.0 L 108.0 89.0 L 109.0 89.0 L 109.0 89.0 L 110.0 89.0 L 111.0 89.0 L 111.0 89.0 L 112.0 89.0 L 113.0 89.0 L 113.0 89.0 L 114.0 89.0 L 115.0 88.0 L 115.0 88.0 L 116.0 88.0 L 117.0 88.0 L 118.0 88.0 L 118.0 88.0 L 119.0 87.0 L 120.0 87.0 L 121.0 87.0 L 122.0 87.0 L 122.0 87.0 L 123.0 86.0 L 124.0 86.0 L 125.0 86.0 L 125.0 86.0 L 126.0 86.0 L 127.0 86.0 L 127.0 86.0 L 128.0 86.0 L 128.0 86.0 L 129.0 86.0 L 130.0 86.0 L 130.0 86.0 L 131.0 86.0 L 131.0 86.0 L 131.0 86.0 L 132.0 86.0 L 132.0 86.0 L 132.0 86.0 L 132.0 86.0 L 132.0 86.0 L 132.0 86.0 L 132.0 86.0 L 132.0 86.0 L 132.0 86.0 L 132.0 87.0 L 132.0 87.0 L 132.0 87.0 L 132.0 88.0 L 132.0 89.0 L 132.0 90.0 L 131.0 91.0 L 131.0 93.0 L 131.0 95.0 L 130.0 96.0 L 130.0 99.0 L 130.0 101.0 L 130.0 104.0 L 130.0 106.0 L 130.0 109.0 L 130.0 111.0 L 130.0 114.0 L 130.0 116.0 L 130.0 119.0 L 130.0 121.0 L 130.0 124.0 L 130.0 126.0 L 130.0 128.0 L 130.0 131.0 L 130.0 133.0 L 130.0 135.0 L 130.0 137.0 L 130.0 140.0 L 130.0 142.0 L 130.0 144.0 L 130.0 146.0 L 130.0 148.0 L 130.0 150.0 L 130.0 151.0 L 130.0 153.0 L 130.0 155.0 L 130.0 156.0 L 129.0 157.0 L 129.0 159.0 L 129.0 159.0 L 129.0 161.0 L 129.0 161.0 L 129.0 162.0 L 128.0 163.0 L 128.0 164.0 L 128.0 164.0 L 128.0 165.0 L 128.0 166.0 L 128.0 167.0 L 128.0 168.0 L 128.0 169.0 L 128.0 170.0 L 128.0 171.0 L 128.0 172.0 L 128.0 173.0 L 128.0 174.0 L 128.0 175.0 L 128.0 176.0 L 128.0 177.0 L 128.0 177.0 L 128.0 178.0 L 128.0 178.0 L 128.0 179.0 L 128.0 179.0 L 128.0 180.0 L 128.0 180.0 L 128.0 180.0 L 128.0 180.0 L 128.0 180.0 L 128.0 181.0 L 128.0 181.0 L 128.0 181.0 L 127.0 181.0 L 127.0 181.0 L 127.0 181.0 L 127.0 181.0 L 127.0 182.0 L 126.0 182.0 L 126.0 182.0 L 126.0 182.0 L 126.0 182.0 L 125.0 182.0 L 125.0 182.0 L 124.0 182.0 L 124.0 182.0 L 123.0 182.0 L 121.0 181.0 L 120.0 180.0 L 118.0 179.0 L 116.0 178.0 L 114.0 176.0 L 112.0 175.0 " stroke="black" fill="none" stroke-width="5.0" stroke-linecap="round" stroke-linejoin="round" />
<path d="M 102.0 104.0 L 102.0 104.0 L 102.0 104.0 L 102.0 104.0 L 102.0 104.0 L 102.0 105.0 L 102.0 105.0 L 102.0 106.0 L 102.0 106.0 L 103.0 108.0 L 103.0 109.0 L 105.0 111.0 L 106.0 114.0 L 107.0 117.0 L 108.0 118.0 " stroke="black" fill="none" stroke-width="5.0" stroke-linecap="round" stroke-linejoin="round" />
<path d="M 100.0 149.0 L 100.0 149.0 L 99.0 149.0 L 99.0 149.0 L 99.0 149.0 L 99.0 149.0 L 99.0 149.0 L 99.0 150.0 L 100.0 151.0 L 102.0 152.0 L 104.0 154.0 L 106.0 156.0 L 108.0 159.0 L 111.0 161.0 L 113.0 163.0 L 115.0 165.0 L 117.0 166.0 L 117.0 166.0 " stroke="black" fill="none" stroke-width="5.0" stroke-linecap="round" stroke-linejoin="round" />
<path d="M 65.0 131.0 L 65.0 131.0 L 65.0 131.0 L 65.0 131.0 L 65.0 131.0 L 65.0 131.0 L 65.0 131.0 L 65.0 131.0 L 64.0 131.0 L 64.0 131.0 L 64.0 131.0 L 64.0 131.0 L 64.0 131.0 L 64.0 131.0 L 64.0 131.0 L 64.0 131.0 L 64.0 131.0 L 64.0 131.0 L 64.0 131.0 L 64.0 131.0 L 65.0 131.0 L 65.0 131.0 L 66.0 131.0 L 66.0 131.0 L 67.0 131.0 L 68.0 131.0 L 69.0 131.0 L 70.0 131.0 L 71.0 131.0 L 72.0 131.0 L 73.0 131.0 L 74.0 131.0 L 75.0 131.0 L 76.0 131.0 L 77.0 131.0 L 78.0 131.0 L 78.0 131.0 L 79.0 131.0 L 80.0 131.0 L 80.0 131.0 L 81.0 131.0 L 82.0 131.0 L 83.0 131.0 L 83.0 131.0 L 84.0 131.0 L 85.0 131.0 L 86.0 131.0 L 86.0 131.0 L 87.0 130.0 L 88.0 130.0 L 89.0 130.0 L 90.0 130.0 L 90.0 130.0 L 91.0 130.0 L 92.0 130.0 L 93.0 130.0 L 93.0 130.0 L 94.0 130.0 L 95.0 130.0 L 95.0 130.0 L 96.0 130.0 L 96.0 130.0 L 97.0 130.0 L 98.0 130.0 L 98.0 130.0 L 99.0 130.0 L 99.0 130.0 L 100.0 130.0 L 100.0 130.0 L 101.0 130.0 L 101.0 130.0 L 101.0 130.0 L 102.0 130.0 L 102.0 130.0 L 103.0 130.0 L 103.0 130.0 L 104.0 130.0 L 104.0 130.0 L 104.0 130.0 L 105.0 130.0 L 105.0 130.0 L 106.0 130.0 L 106.0 130.0 L 106.0 130.0 L 107.0 130.0 L 107.0 130.0 L 107.0 129.0 L 108.0 129.0 L 108.0 129.0 L 108.0 129.0 L 108.0 129.0 L 109.0 129.0 L 109.0 129.0 L 109.0 129.0 L 110.0 129.0 L 110.0 129.0 L 110.0 129.0 L 110.0 129.0 L 111.0 129.0 L 111.0 129.0 L 111.0 129.0 L 112.0 129.0 L 112.0 129.0 L 112.0 129.0 L 113.0 129.0 L 113.0 129.0 L 113.0 129.0 L 114.0 129.0 L 114.0 129.0 L 114.0 129.0 L 115.0 129.0 L 115.0 129.0 L 116.0 129.0 L 116.0 129.0 L 116.0 129.0 L 117.0 129.0 L 117.0 129.0 L 118.0 129.0 L 118.0 129.0 L 118.0 129.0 L 119.0 129.0 L 119.0 129.0 L 120.0 129.0 L 120.0 129.0 L 121.0 129.0 L 121.0 129.0 L 121.0 129.0 L 122.0 129.0 L 123.0 129.0 L 123.0 129.0 L 123.0 129.0 L 124.0 129.0 L 125.0 129.0 L 125.0 129.0 L 126.0 129.0 L 126.0 129.0 L 127.0 129.0 L 127.0 129.0 L 128.0 129.0 L 128.0 129.0 L 129.0 129.0 L 129.0 129.0 L 130.0 129.0 L 130.0 129.0 L 131.0 129.0 L 132.0 129.0 L 132.0 129.0 L 133.0 129.0 L 133.0 129.0 L 134.0 129.0 L 134.0 129.0 L 135.0 129.0 L 135.0 129.0 L 136.0 129.0 L 136.0 129.0 L 137.0 129.0 L 137.0 129.0 L 138.0 129.0 L 138.0 129.0 L 138.0 129.0 L 139.0 129.0 L 139.0 129.0 L 140.0 129.0 L 140.0 129.0 L 140.0 129.0 L 141.0 128.0 L 141.0 128.0 L 141.0 128.0 L 142.0 128.0 L 142.0 128.0 L 142.0 128.0 L 143.0 128.0 L 143.0 128.0 L 143.0 128.0 L 143.0 128.0 L 144.0 128.0 L 144.0 128.0 L 144.0 128.0 L 144.0 128.0 " stroke="black" fill="none" stroke-width="5.0" stroke-linecap="round" stroke-linejoin="round" />
<path d="M 169.0 83.0 L 169.0 83.0 L 169.0 83.0 L 169.0 83.0 L 169.0 83.0 L 169.0 83.0 L 169.0 83.0 L 169.0 83.0 L 169.0 83.0 L 169.0 83.0 L 169.0 83.0 L 170.0 83.0 L 170.0 83.0 L 170.0 84.0 L 170.0 84.0 L 170.0 85.0 L 170.0 87.0 L 170.0 89.0 L 170.0 92.0 L 169.0 96.0 L 169.0 99.0 L 168.0 103.0 L 167.0 106.0 L 166.0 108.0 L 166.0 110.0 L 164.0 113.0 L 163.0 114.0 L 161.0 116.0 L 160.0 117.0 L 158.0 118.0 L 156.0 119.0 L 155.0 120.0 L 154.0 121.0 " stroke="black" fill="none" stroke-width="5.0" stroke-linecap="round" stroke-linejoin="round" />
<path d="M 174.0 84.0 L 174.0 84.0 L 174.0 84.0 L 173.0 84.0 L 173.0 84.0 L 173.0 84.0 L 173.0 84.0 L 173.0 84.0 L 173.0 84.0 L 173.0 84.0 L 173.0 84.0 L 173.0 84.0 L 173.0 84.0 L 174.0 84.0 L 175.0 84.0 L 175.0 84.0 L 176.0 84.0 L 177.0 84.0 L 178.0 84.0 L 179.0 84.0 L 180.0 84.0 L 182.0 84.0 L 183.0 84.0 L 184.0 84.0 L 185.0 83.0 L 186.0 83.0 L 187.0 83.0 L 188.0 83.0 L 189.0 83.0 L 189.0 83.0 L 190.0 83.0 L 191.0 83.0 L 191.0 83.0 L 192.0 83.0 L 193.0 83.0 L 193.0 83.0 L 194.0 83.0 L 194.0 83.0 L 195.0 83.0 L 195.0 83.0 L 196.0 83.0 L 196.0 83.0 L 196.0 83.0 L 196.0 83.0 L 197.0 83.0 L 197.0 83.0 L 198.0 83.0 L 198.0 84.0 L 199.0 84.0 L 199.0 84.0 L 200.0 84.0 L 200.0 84.0 L 201.0 84.0 L 201.0 84.0 L 202.0 84.0 L 202.0 84.0 L 203.0 84.0 L 203.0 84.0 L 204.0 84.0 L 204.0 84.0 L 204.0 84.0 L 205.0 85.0 L 205.0 85.0 L 206.0 85.0 L 206.0 85.0 L 206.0 85.0 L 207.0 85.0 L 207.0 85.0 L 207.0 85.0 L 208.0 86.0 L 208.0 86.0 L 208.0 86.0 L 208.0 87.0 L 208.0 87.0 L 208.0 88.0 L 208.0 89.0 L 208.0 90.0 L 208.0 91.0 L 208.0 92.0 L 208.0 94.0 L 207.0 95.0 L 207.0 96.0 L 207.0 98.0 L 206.0 99.0 L 206.0 100.0 L 206.0 102.0 L 206.0 103.0 L 206.0 104.0 L 206.0 105.0 L 206.0 106.0 L 206.0 106.0 L 206.0 107.0 L 206.0 107.0 L 206.0 108.0 L 206.0 108.0 L 206.0 109.0 L 206.0 109.0 L 207.0 109.0 L 207.0 109.0 L 207.0 109.0 L 208.0 109.0 L 208.0 109.0 L 209.0 109.0 L 209.0 109.0 L 209.0 109.0 L 210.0 110.0 L 210.0 110.0 L 211.0 110.0 L 212.0 110.0 L 212.0 110.0 L 213.0 110.0 L 214.0 110.0 L 214.0 110.0 L 215.0 110.0 L 216.0 110.0 L 217.0 110.0 L 218.0 110.0 L 218.0 110.0 L 219.0 110.0 L 220.0 110.0 L 221.0 110.0 L 222.0 110.0 L 223.0 110.0 L 224.0 110.0 L 225.0 110.0 L 226.0 110.0 L 227.0 110.0 L 228.0 110.0 L 229.0 110.0 L 229.0 110.0 L 230.0 110.0 L 231.0 110.0 L 232.0 110.0 L 232.0 110.0 L 233.0 110.0 " stroke="black" fill="none" stroke-width="5.0" stroke-linecap="round" stroke-linejoin="round" />
<path d="M 157.0 134.0 L 157.0 134.0 L 157.0 134.0 L 157.0 134.0 L 157.0 134.0 L 157.0 134.0 L 157.0 134.0 L 157.0 134.0 L 157.0 134.0 L 157.0 134.0 L 157.0 134.0 L 157.0 134.0 L 157.0 134.0 L 157.0 134.0 L 158.0 134.0 L 158.0 134.0 L 158.0 134.0 L 158.0 134.0 L 158.0 133.0 L 158.0 133.0 L 159.0 133.0 L 159.0 133.0 L 160.0 133.0 L 161.0 133.0 L 161.0 133.0 L 162.0 133.0 L 163.0 133.0 L 164.0 133.0 L 165.0 133.0 L 166.0 133.0 L 167.0 133.0 L 168.0 133.0 L 169.0 133.0 L 170.0 133.0 L 171.0 133.0 L 172.0 133.0 L 173.0 133.0 L 174.0 133.0 L 175.0 133.0 L 176.0 133.0 L 177.0 133.0 L 177.0 133.0 L 178.0 133.0 L 178.0 133.0 L 179.0 133.0 L 179.0 133.0 L 180.0 133.0 L 180.0 133.0 L 180.0 133.0 L 181.0 133.0 L 181.0 133.0 L 181.0 133.0 L 182.0 133.0 L 182.0 133.0 L 182.0 133.0 L 182.0 133.0 L 183.0 133.0 L 183.0 133.0 L 184.0 133.0 L 184.0 133.0 L 184.0 133.0 L 185.0 133.0 L 185.0 133.0 L 186.0 133.0 L 186.0 133.0 L 186.0 133.0 L 187.0 133.0 L 187.0 133.0 L 188.0 133.0 L 188.0 133.0 L 189.0 133.0 L 189.0 133.0 L 189.0 133.0 L 190.0 133.0 L 190.0 133.0 L 191.0 133.0 L 191.0 133.0 L 191.0 133.0 L 192.0 133.0 L 192.0 133.0 L 193.0 133.0 L 193.0 133.0 L 194.0 133.0 L 194.0 133.0 L 194.0 133.0 L 195.0 133.0 L 195.0 133.0 L 196.0 133.0 L 196.0 133.0 L 196.0 133.0 L 197.0 133.0 L 197.0 133.0 L 197.0 133.0 L 198.0 133.0 L 198.0 133.0 L 198.0 133.0 L 199.0 133.0 L 199.0 133.0 L 199.0 132.0 L 200.0 132.0 L 200.0 132.0 L 200.0 132.0 L 201.0 132.0 L 201.0 132.0 L 202.0 132.0 L 202.0 132.0 L 202.0 132.0 L 203.0 132.0 L 203.0 132.0 L 203.0 132.0 L 204.0 132.0 L 204.0 132.0 L 204.0 132.0 L 205.0 132.0 L 205.0 132.0 L 205.0 132.0 L 206.0 132.0 L 206.0 132.0 L 206.0 132.0 L 207.0 132.0 L 207.0 132.0 L 208.0 132.0 L 208.0 132.0 L 209.0 132.0 L 209.0 132.0 L 209.0 132.0 L 210.0 132.0 L 210.0 132.0 L 210.0 132.0 L 211.0 132.0 L 211.0 132.0 L 211.0 132.0 L 212.0 132.0 L 212.0 132.0 L 212.0 132.0 L 213.0 132.0 L 213.0 132.0 L 213.0 132.0 L 214.0 132.0 L 214.0 132.0 L 214.0 132.0 L 215.0 132.0 L 215.0 132.0 L 215.0 132.0 L 216.0 132.0 L 216.0 132.0 L 216.0 132.0 L 216.0 132.0 L 216.0 132.0 L 217.0 132.0 L 217.0 132.0 L 217.0 132.0 L 217.0 132.0 L 217.0 132.0 L 217.0 132.0 L 217.0 132.0 L 217.0 132.0 L 217.0 132.0 L 217.0 132.0 L 217.0 132.0 L 217.0 132.0 L 217.0 133.0 L 217.0 133.0 L 216.0 133.0 L 216.0 133.0 L 216.0 133.0 L 216.0 133.0 L 216.0 133.0 L 216.0 134.0 L 216.0 134.0 L 215.0 134.0 L 215.0 134.0 L 215.0 135.0 L 215.0 135.0 L 214.0 135.0 L 214.0 136.0 L 214.0 136.0 L 214.0 137.0 L 213.0 137.0 L 213.0 138.0 L 213.0 138.0 L 212.0 139.0 L 212.0 139.0 L 212.0 140.0 L 212.0 140.0 L 211.0 141.0 L 211.0 141.0 L 211.0 141.0 L 210.0 142.0 L 210.0 142.0 L 210.0 143.0 L 209.0 143.0 L 209.0 144.0 L 209.0 144.0 L 208.0 144.0 L 208.0 145.0 L 207.0 145.0 L 207.0 146.0 L 206.0 146.0 L 206.0 146.0 L 205.0 147.0 L 205.0 147.0 L 204.0 148.0 L 204.0 148.0 L 204.0 149.0 L 203.0 149.0 L 203.0 150.0 L 202.0 150.0 L 202.0 150.0 L 202.0 151.0 L 201.0 151.0 L 201.0 151.0 L 201.0 152.0 L 200.0 152.0 L 200.0 152.0 L 200.0 153.0 L 200.0 153.0 L 199.0 153.0 L 199.0 153.0 L 199.0 154.0 L 198.0 154.0 L 198.0 154.0 L 198.0 154.0 L 198.0 154.0 L 197.0 155.0 L 197.0 155.0 L 197.0 155.0 L 197.0 155.0 L 196.0 156.0 L 196.0 156.0 L 196.0 156.0 L 195.0 157.0 L 195.0 157.0 L 195.0 157.0 L 194.0 158.0 L 194.0 158.0 L 194.0 159.0 L 193.0 159.0 L 193.0 159.0 L 193.0 160.0 L 192.0 160.0 L 192.0 161.0 L 191.0 161.0 L 191.0 162.0 L 190.0 162.0 L 190.0 163.0 L 189.0 164.0 L 189.0 164.0 L 188.0 165.0 L 188.0 165.0 L 187.0 166.0 L 187.0 166.0 L 186.0 167.0 L 185.0 167.0 L 185.0 168.0 L 184.0 168.0 L 183.0 169.0 L 182.0 169.0 L 182.0 169.0 L 181.0 170.0 L 180.0 170.0 L 179.0 171.0 L 178.0 171.0 L 178.0 171.0 L 177.0 172.0 L 176.0 172.0 L 174.0 173.0 L 173.0 174.0 L 172.0 174.0 L 170.0 175.0 L 169.0 176.0 L 167.0 177.0 L 166.0 178.0 L 165.0 178.0 L 164.0 179.0 L 164.0 179.0 L 163.0 180.0 L 162.0 180.0 L 162.0 180.0 L 161.0 180.0 L 161.0 180.0 L 160.0 180.0 L 159.0 180.0 L 158.0 181.0 L 157.0 181.0 L 155.0 181.0 L 154.0 182.0 L 153.0 182.0 L 152.0 183.0 L 151.0 184.0 L 150.0 184.0 L 149.0 185.0 L 149.0 185.0 " stroke="black" fill="none" stroke-width="5.0" stroke-linecap="round" stroke-linejoin="round" />
<path d="M 157.0 142.0 L 157.0 142.0 L 157.0 142.0 L 157.0 142.0 L 157.0 142.0 L 157.0 142.0 L 157.0 142.0 L 157.0 142.0 L 157.0 142.0 L 157.0 142.0 L 157.0 142.0 L 157.0 142.0 L 157.0 142.0 L 157.0 142.0 L 157.0 142.0 L 158.0 142.0 L 158.0 142.0 L 158.0 142.0 L 158.0 143.0 L 159.0 143.0 L 160.0 143.0 L 160.0 144.0 L 161.0 144.0 L 162.0 145.0 L 163.0 145.0 L 163.0 146.0 L 164.0 147.0 L 165.0 147.0 L 166.0 148.0 L 167.0 148.0 L 168.0 149.0 L 169.0 149.0 L 169.0 150.0 L 170.0 150.0 L 171.0 150.0 L 172.0 151.0 L 173.0 151.0 L 174.0 151.0 L 175.0 152.0 L 176.0 152.0 L 177.0 152.0 L 177.0 153.0 L 178.0 153.0 L 179.0 153.0 L 179.0 153.0 L 180.0 154.0 L 180.0 154.0 L 181.0 154.0 L 182.0 154.0 L 182.0 154.0 L 183.0 155.0 L 183.0 155.0 L 184.0 155.0 L 184.0 155.0 L 185.0 156.0 L 185.0 156.0 L 186.0 156.0 L 187.0 156.0 L 187.0 157.0 L 187.0 157.0 L 188.0 157.0 L 188.0 157.0 L 189.0 158.0 L 189.0 158.0 L 190.0 158.0 L 190.0 158.0 L 190.0 159.0 L 191.0 159.0 L 191.0 159.0 L 191.0 159.0 L 192.0 159.0 L 192.0 159.0 L 192.0 160.0 L 193.0 160.0 L 193.0 160.0 L 193.0 160.0 L 194.0 160.0 L 194.0 160.0 L 194.0 161.0 L 194.0 161.0 L 195.0 161.0 L 195.0 161.0 L 195.0 161.0 L 196.0 161.0 L 196.0 162.0 L 196.0 162.0 L 197.0 162.0 L 197.0 162.0 L 198.0 163.0 L 198.0 163.0 L 198.0 163.0 L 199.0 163.0 L 200.0 164.0 L 200.0 164.0 L 201.0 164.0 L 202.0 164.0 L 202.0 165.0 L 203.0 165.0 L 204.0 165.0 L 204.0 166.0 L 205.0 166.0 L 206.0 166.0 L 207.0 166.0 L 207.0 167.0 L 208.0 167.0 L 209.0 167.0 L 210.0 167.0 L 211.0 168.0 L 211.0 168.0 L 212.0 168.0 L 213.0 169.0 L 214.0 169.0 L 215.0 169.0 L 216.0 170.0 L 216.0 170.0 L 217.0 170.0 L 218.0 171.0 L 219.0 171.0 L 220.0 171.0 L 221.0 172.0 L 222.0 173.0 L 223.0 173.0 L 224.0 174.0 L 225.0 174.0 L 226.0 175.0 L 227.0 175.0 L 228.0 176.0 L 228.0 176.0 L 229.0 177.0 L 229.0 177.0 L 230.0 177.0 L 230.0 177.0 L 230.0 177.0 " stroke="black" fill="none" stroke-width="5.0" stroke-linecap="round" stroke-linejoin="round" />
<path d="M 88.0 202.0 L 88.0 202.0 L 88.0 202.0 L 87.0 202.0 L 87.0 202.0 L 87.0 202.0 L 87.0 202.0 L 87.0 203.0 L 87.0 203.0 L 87.0 204.0 L 87.0 206.0 L 87.0 208.0 L 87.0 212.0 L 88.0 216.0 L 88.0 220.0 L 88.0 225.0 L 88.0 230.0 L 88.0 235.0 L 88.0 238.0 L 89.0 241.0 L 89.0 242.0 " stroke="black" fill="none" stroke-width="5.0" stroke-linecap="round" stroke-linejoin="round" />
<path d="M 93.0 198.0 L 93.0 198.0 L 92.0 198.0 L 92.0 198.0 L 91.0 199.0 L 91.0 199.0 L 91.0 199.0 L 91.0 199.0 L 91.0 199.0 L 91.0 199.0 L 91.0 199.0 L 91.0 199.0 L 91.0 199.0 L 91.0 199.0 L 92.0 199.0 L 92.0 199.0 L 93.0 199.0 L 93.0 199.0 L 94.0 199.0 L 94.0 199.0 L 95.0 199.0 L 96.0 199.0 L 97.0 199.0 L 97.0 199.0 L 98.0 199.0 L 99.0 199.0 L 100.0 199.0 L 101.0 199.0 L 101.0 199.0 L 102.0 199.0 L 103.0 199.0 L 104.0 199.0 L 105.0 199.0 L 106.0 199.0 L 106.0 199.0 L 107.0 199.0 L 108.0 199.0 L 109.0 199.0 L 109.0 199.0 L 110.0 199.0 L 111.0 199.0 L 111.0 199.0 L 112.0 199.0 L 112.0 199.0 L 113.0 199.0 L 114.0 199.0 L 114.0 199.0 L 115.0 199.0 L 115.0 199.0 L 116.0 199.0 L 116.0 199.0 L 117.0 199.0 L 117.0 199.0 L 118.0 199.0 L 118.0 199.0 L 119.0 199.0 L 120.0 199.0 L 120.0 199.0 L 121.0 199.0 L 121.0 199.0 L 122.0 199.0 L 123.0 199.0 L 123.0 199.0 L 124.0 199.0 L 124.0 199.0 L 125.0 199.0 L 125.0 199.0 L 126.0 199.0 L 126.0 199.0 L 127.0 199.0 L 128.0 199.0 L 128.0 199.0 L 128.0 199.0 L 129.0 199.0 L 130.0 199.0 L 130.0 199.0 L 130.0 199.0 L 131.0 199.0 L 131.0 199.0 L 132.0 199.0 L 132.0 199.0 L 133.0 199.0 L 133.0 199.0 L 134.0 199.0 L 134.0 199.0 L 135.0 199.0 L 135.0 199.0 L 135.0 199.0 L 136.0 199.0 L 136.0 199.0 L 137.0 199.0 L 137.0 199.0 L 138.0 199.0 L 138.0 199.0 L 139.0 199.0 L 139.0 199.0 L 140.0 199.0 L 140.0 199.0 L 141.0 198.0 L 141.0 198.0 L 142.0 198.0 L 142.0 198.0 L 143.0 198.0 L 143.0 198.0 L 144.0 198.0 L 144.0 198.0 L 144.0 198.0 L 145.0 198.0 L 145.0 198.0 L 146.0 198.0 L 146.0 198.0 L 146.0 198.0 L 147.0 198.0 L 147.0 198.0 L 147.0 198.0 L 148.0 198.0 L 148.0 198.0 L 148.0 198.0 L 148.0 198.0 L 149.0 198.0 L 149.0 198.0 L 149.0 198.0 L 150.0 198.0 L 150.0 198.0 L 150.0 198.0 L 150.0 198.0 L 151.0 198.0 L 151.0 198.0 L 151.0 198.0 L 152.0 198.0 L 152.0 198.0 L 152.0 198.0 L 152.0 198.0 L 153.0 198.0 L 153.0 198.0 L 153.0 198.0 L 153.0 198.0 L 154.0 198.0 L 154.0 198.0 L 154.0 198.0 L 155.0 198.0 L 155.0 198.0 L 155.0 198.0 L 155.0 198.0 L 156.0 198.0 L 156.0 198.0 L 156.0 198.0 L 157.0 198.0 L 157.0 198.0 L 157.0 198.0 L 158.0 198.0 L 158.0 198.0 L 158.0 198.0 L 159.0 198.0 L 159.0 197.0 L 160.0 197.0 L 160.0 197.0 L 161.0 197.0 L 161.0 197.0 L 162.0 197.0 L 162.0 197.0 L 163.0 197.0 L 163.0 197.0 L 163.0 197.0 L 164.0 197.0 L 164.0 197.0 L 165.0 197.0 L 165.0 197.0 L 166.0 197.0 L 166.0 197.0 L 166.0 197.0 L 167.0 197.0 L 167.0 197.0 L 168.0 197.0 L 168.0 197.0 L 168.0 197.0 L 169.0 197.0 L 169.0 197.0 L 169.0 197.0 L 170.0 197.0 L 170.0 197.0 L 171.0 197.0 L 171.0 197.0 L 171.0 197.0 L 172.0 197.0 L 172.0 197.0 L 173.0 197.0 L 173.0 197.0 L 173.0 197.0 L 174.0 197.0 L 174.0 197.0 L 175.0 197.0 L 175.0 197.0 L 175.0 197.0 L 176.0 197.0 L 176.0 197.0 L 176.0 197.0 L 177.0 197.0 L 177.0 197.0 L 177.0 197.0 L 178.0 197.0 L 178.0 197.0 L 178.0 197.0 L 179.0 197.0 L 179.0 197.0 L 179.0 197.0 L 180.0 197.0 L 180.0 197.0 L 180.0 197.0 L 180.0 197.0 L 181.0 197.0 L 181.0 197.0 L 181.0 197.0 L 182.0 197.0 L 182.0 197.0 L 182.0 197.0 L 182.0 197.0 L 183.0 197.0 L 183.0 197.0 L 183.0 197.0 L 184.0 197.0 L 184.0 197.0 L 184.0 197.0 L 184.0 197.0 L 185.0 197.0 L 185.0 197.0 L 185.0 197.0 L 185.0 197.0 L 185.0 197.0 L 186.0 197.0 L 186.0 197.0 L 186.0 197.0 L 186.0 197.0 L 187.0 197.0 L 187.0 197.0 L 187.0 197.0 L 187.0 197.0 L 188.0 197.0 L 188.0 197.0 L 188.0 197.0 L 188.0 197.0 L 189.0 197.0 L 189.0 197.0 L 189.0 197.0 L 189.0 197.0 L 190.0 197.0 L 190.0 197.0 L 190.0 197.0 L 190.0 197.0 L 190.0 197.0 L 191.0 197.0 L 191.0 197.0 L 191.0 197.0 L 191.0 197.0 L 192.0 197.0 L 192.0 197.0 L 192.0 197.0 L 192.0 197.0 L 193.0 197.0 L 193.0 197.0 L 193.0 197.0 L 193.0 197.0 L 193.0 197.0 L 194.0 197.0 L 194.0 197.0 L 194.0 197.0 L 194.0 197.0 L 194.0 197.0 L 195.0 197.0 L 195.0 197.0 L 195.0 197.0 L 195.0 197.0 L 196.0 197.0 L 196.0 197.0 L 196.0 197.0 L 196.0 197.0 L 196.0 197.0 L 197.0 197.0 L 197.0 197.0 L 197.0 197.0 L 198.0 197.0 L 198.0 197.0 L 198.0 197.0 L 198.0 197.0 L 198.0 197.0 L 199.0 197.0 L 199.0 197.0 L 199.0 197.0 L 200.0 197.0 L 200.0 197.0 L 200.0 197.0 L 200.0 197.0 L 200.0 197.0 L 201.0 197.0 L 201.0 197.0 L 201.0 197.0 L 202.0 197.0 L 202.0 197.0 L 202.0 197.0 L 202.0 197.0 L 202.0 197.0 L 203.0 197.0 L 203.0 197.0 L 203.0 197.0 L 203.0 197.0 L 204.0 197.0 L 204.0 197.0 L 204.0 197.0 L 204.0 197.0 L 204.0 197.0 L 204.0 197.0 L 205.0 197.0 L 205.0 197.0 L 205.0 197.0 L 205.0 197.0 L 205.0 197.0 L 205.0 197.0 L 205.0 197.0 L 205.0 197.0 L 205.0 197.0 L 205.0 197.0 L 205.0 198.0 L 205.0 198.0 L 205.0 198.0 L 205.0 198.0 L 205.0 198.0 L 205.0 198.0 L 205.0 198.0 L 205.0 198.0 L 205.0 198.0 L 205.0 198.0 L 205.0 198.0 L 205.0 198.0 L 205.0 198.0 L 205.0 198.0 L 205.0 198.0 L 205.0 199.0 L 205.0 199.0 L 205.0 199.0 L 205.0 199.0 L 205.0 199.0 L 205.0 199.0 L 205.0 200.0 L 205.0 200.0 L 205.0 200.0 L 206.0 201.0 L 206.0 201.0 L 206.0 202.0 L 206.0 202.0 L 206.0 203.0 L 206.0 204.0 L 206.0 205.0 L 206.0 206.0 L 206.0 208.0 L 206.0 209.0 L 206.0 210.0 L 206.0 212.0 L 207.0 213.0 L 207.0 214.0 L 207.0 216.0 L 207.0 217.0 L 207.0 218.0 L 207.0 219.0 L 207.0 220.0 L 207.0 221.0 L 207.0 222.0 L 207.0 223.0 L 207.0 225.0 L 207.0 226.0 L 207.0 227.0 L 207.0 229.0 L 207.0 230.0 L 207.0 231.0 L 207.0 232.0 L 207.0 233.0 L 207.0 233.0 L 207.0 234.0 L 207.0 235.0 L 207.0 235.0 L 207.0 235.0 L 207.0 236.0 L 207.0 236.0 L 207.0 236.0 L 207.0 237.0 L 207.0 237.0 L 207.0 237.0 L 207.0 237.0 L 207.0 237.0 L 207.0 237.0 L 207.0 237.0 L 207.0 236.0 L 207.0 236.0 " stroke="black" fill="none" stroke-width="5.0" stroke-linecap="round" stroke-linejoin="round" />
<path d="M 127.0 203.0 L 127.0 203.0 L 127.0 203.0 L 127.0 203.0 L 127.0 203.0 L 127.0 203.0 L 127.0 203.0 L 127.0 203.0 L 127.0 203.0 L 127.0 203.0 L 127.0 204.0 L 127.0 205.0 L 127.0 208.0 L 128.0 211.0 L 128.0 215.0 L 128.0 221.0 L 128.0 228.0 L 128.0 234.0 L 128.0 240.0 L 128.0 245.0 L 128.0 248.0 L 129.0 249.0 " stroke="black" fill="none" stroke-width="5.0" stroke-linecap="round" stroke-linejoin="round" />
<path d="M 164.0 201.0 L 164.0 201.0 L 164.0 201.0 L 164.0 201.0 L 164.0 201.0 L 164.0 202.0 L 164.0 202.0 L 164.0 203.0 L 164.0 205.0 L 164.0 207.0 L 164.0 211.0 L 164.0 215.0 L 165.0 220.0 L 165.0 225.0 L 165.0 230.0 L 166.0 234.0 L 166.0 238.0 L 166.0 241.0 L 166.0 243.0 L 166.0 243.0 L 166.0 243.0 " stroke="black" fill="none" stroke-width="5.0" stroke-linecap="round" stroke-linejoin="round" />
<path d="M 62.0 246.0 L 62.0 246.0 L 62.0 246.0 L 62.0 246.0 L 61.0 246.0 L 61.0 247.0 L 61.0 247.0 L 60.0 247.0 L 60.0 247.0 L 60.0 247.0 L 60.0 247.0 L 60.0 247.0 L 60.0 247.0 L 60.0 247.0 L 61.0 247.0 L 61.0 247.0 L 62.0 247.0 L 63.0 247.0 L 63.0 247.0 L 64.0 247.0 L 65.0 247.0 L 65.0 247.0 L 66.0 247.0 L 67.0 246.0 L 67.0 246.0 L 68.0 246.0 L 69.0 246.0 L 70.0 246.0 L 71.0 246.0 L 72.0 246.0 L 73.0 246.0 L 74.0 246.0 L 75.0 246.0 L 77.0 246.0 L 78.0 246.0 L 79.0 246.0 L 81.0 246.0 L 82.0 246.0 L 83.0 246.0 L 84.0 246.0 L 85.0 246.0 L 86.0 246.0 L 87.0 246.0 L 89.0 246.0 L 90.0 246.0 L 91.0 246.0 L 92.0 246.0 L 93.0 246.0 L 94.0 246.0 L 95.0 246.0 L 96.0 246.0 L 98.0 246.0 L 99.0 246.0 L 100.0 246.0 L 101.0 246.0 L 102.0 246.0 L 103.0 246.0 L 104.0 246.0 L 104.0 246.0 L 105.0 246.0 L 106.0 246.0 L 106.0 247.0 L 107.0 247.0 L 108.0 247.0 L 108.0 247.0 L 108.0 247.0 L 109.0 247.0 L 110.0 247.0 L 110.0 247.0 L 110.0 247.0 L 111.0 247.0 L 112.0 247.0 L 112.0 247.0 L 113.0 247.0 L 113.0 247.0 L 114.0 247.0 L 114.0 247.0 L 115.0 247.0 L 116.0 247.0 L 116.0 247.0 L 117.0 247.0 L 118.0 247.0 L 118.0 247.0 L 119.0 247.0 L 120.0 247.0 L 120.0 247.0 L 121.0 247.0 L 122.0 247.0 L 122.0 247.0 L 123.0 247.0 L 124.0 247.0 L 124.0 247.0 L 125.0 247.0 L 126.0 247.0 L 126.0 247.0 L 127.0 247.0 L 128.0 247.0 L 129.0 247.0 L 130.0 247.0 L 130.0 247.0 L 131.0 247.0 L 132.0 247.0 L 133.0 247.0 L 134.0 247.0 L 135.0 247.0 L 136.0 247.0 L 137.0 247.0 L 138.0 247.0 L 139.0 247.0 L 140.0 247.0 L 140.0 247.0 L 141.0 247.0 L 142.0 247.0 L 143.0 247.0 L 143.0 247.0 L 144.0 247.0 L 144.0 247.0 L 145.0 247.0 L 145.0 247.0 L 146.0 247.0 L 146.0 247.0 L 147.0 247.0 L 147.0 247.0 L 147.0 247.0 L 148.0 247.0 L 148.0 247.0 L 148.0 247.0 L 149.0 247.0 L 149.0 247.0 L 149.0 247.0 L 150.0 247.0 L 150.0 247.0 L 150.0 247.0 L 151.0 247.0 L 151.0 247.0 L 151.0 247.0 L 151.0 247.0 L 152.0 247.0 L 152.0 247.0 L 152.0 247.0 L 152.0 247.0 L 153.0 247.0 L 153.0 247.0 L 153.0 247.0 L 153.0 247.0 L 154.0 247.0 L 154.0 247.0 L 154.0 247.0 L 155.0 247.0 L 155.0 247.0 L 155.0 247.0 L 155.0 247.0 L 156.0 247.0 L 156.0 247.0 L 156.0 247.0 L 157.0 247.0 L 157.0 247.0 L 157.0 247.0 L 158.0 247.0 L 158.0 247.0 L 158.0 247.0 L 159.0 247.0 L 159.0 247.0 L 160.0 247.0 L 160.0 247.0 L 160.0 247.0 L 161.0 247.0 L 161.0 247.0 L 162.0 247.0 L 162.0 247.0 L 163.0 247.0 L 163.0 247.0 L 164.0 247.0 L 164.0 247.0 L 165.0 247.0 L 165.0 247.0 L 166.0 247.0 L 167.0 247.0 L 167.0 247.0 L 168.0 247.0 L 168.0 247.0 L 169.0 247.0 L 170.0 247.0 L 170.0 247.0 L 171.0 247.0 L 172.0 247.0 L 172.0 247.0 L 173.0 247.0 L 174.0 247.0 L 174.0 247.0 L 175.0 247.0 L 176.0 247.0 L 177.0 247.0 L 177.0 247.0 L 178.0 247.0 L 178.0 247.0 L 179.0 247.0 L 180.0 247.0 L 180.0 247.0 L 181.0 247.0 L 182.0 247.0 L 182.0 247.0 L 183.0 247.0 L 184.0 247.0 L 184.0 247.0 L 185.0 246.0 L 185.0 246.0 L 186.0 246.0 L 187.0 246.0 L 187.0 245.0 L 188.0 245.0 L 188.0 245.0 L 189.0 245.0 L 189.0 245.0 L 190.0 245.0 L 190.0 244.0 L 191.0 244.0 L 191.0 244.0 L 191.0 244.0 L 192.0 244.0 L 192.0 244.0 L 192.0 244.0 L 193.0 244.0 L 193.0 244.0 L 193.0 244.0 L 193.0 244.0 L 194.0 244.0 L 194.0 244.0 L 194.0 244.0 L 194.0 244.0 L 195.0 244.0 L 195.0 244.0 L 195.0 244.0 L 196.0 244.0 L 196.0 244.0 L 196.0 244.0 L 197.0 244.0 L 197.0 244.0 L 197.0 244.0 L 198.0 244.0 L 198.0 244.0 L 198.0 244.0 L 198.0 244.0 L 199.0 244.0 L 199.0 244.0 L 199.0 244.0 L 200.0 244.0 L 200.0 244.0 L 200.0 244.0 L 201.0 244.0 L 201.0 244.0 L 201.0 244.0 L 202.0 244.0 L 202.0 244.0 L 202.0 244.0 L 203.0 244.0 L 203.0 244.0 L 204.0 244.0 L 204.0 244.0 L 205.0 244.0 L 205.0 244.0 L 206.0 244.0 L 206.0 244.0 L 207.0 244.0 L 207.0 244.0 L 208.0 244.0 L 208.0 244.0 L 209.0 244.0 L 209.0 244.0 L 210.0 244.0 L 210.0 244.0 L 211.0 244.0 L 211.0 244.0 L 212.0 244.0 L 212.0 244.0 L 213.0 244.0 L 214.0 244.0 L 214.0 244.0 L 215.0 244.0 L 215.0 244.0 L 216.0 244.0 L 217.0 244.0 L 217.0 244.0 L 218.0 245.0 L 219.0 245.0 L 219.0 245.0 L 220.0 245.0 L 220.0 245.0 L 221.0 245.0 L 222.0 245.0 L 222.0 245.0 L 223.0 245.0 L 223.0 245.0 L 224.0 245.0 L 225.0 245.0 L 225.0 245.0 L 226.0 245.0 L 226.0 245.0 L 227.0 245.0 L 227.0 245.0 L 228.0 245.0 L 228.0 245.0 L 229.0 245.0 L 229.0 245.0 L 230.0 245.0 L 230.0 245.0 L 231.0 245.0 L 231.0 245.0 L 232.0 245.0 L 232.0 245.0 L 233.0 245.0 L 233.0 245.0 L 234.0 245.0 L 234.0 245.0 L 234.0 245.0 L 235.0 245.0 L 235.0 245.0 L 235.0 245.0 L 236.0 245.0 L 236.0 245.0 L 236.0 245.0 L 237.0 245.0 L 237.0 245.0 L 237.0 245.0 L 237.0 245.0 L 238.0 245.0 L 238.0 245.0 L 238.0 245.0 L 238.0 245.0 L 239.0 245.0 L 239.0 245.0 L 239.0 245.0 L 239.0 244.0 L 240.0 244.0 L 240.0 244.0 L 240.0 244.0 L 240.0 244.0 L 241.0 244.0 L 241.0 244.0 L 241.0 244.0 L 241.0 244.0 L 241.0 244.0 L 241.0 244.0 L 242.0 244.0 L 242.0 244.0 L 242.0 244.0 L 242.0 244.0 L 243.0 244.0 L 243.0 244.0 L 243.0 243.0 L 243.0 243.0 L 243.0 243.0 L 243.0 243.0 L 243.0 243.0 " stroke="black" fill="none" stroke-width="5.0" stroke-linecap="round" stroke-linejoin="round" />
</svg>