<svg xmlns="http://www.w3.org/2000/svg" width="300" height="300" viewBox="0 0 300 300">
<path d="M 75.0 81.0 L 75.0 81.0 L 75.0 81.0 L 75.0 81.0 L 75.0 81.0 L 75.0 81.0 L 74.0 82.0 L 74.0 82.0 L 74.0 82.0 L 74.0 82.0 L 74.0 82.0 L 74.0 82.0 L 74.0 82.0 L 74.0 82.0 L 74.0 82.0 L 74.0 82.0 L 75.0 82.0 L 75.0 82.0 L 76.0 83.0 L 77.0 83.0 L 78.0 83.0 L 79.0 83.0 L 81.0 83.0 L 82.0 83.0 L 83.0 83.0 L 85.0 83.0 L 86.0 83.0 L 88.0 83.0 L 89.0 83.0 L 91.0 83.0 L 92.0 83.0 L 94.0 83.0 L 95.0 83.0 L 97.0 83.0 L 98.0 83.0 L 99.0 83.0 L 100.0 83.0 L 101.0 83.0 L 101.0 83.0 L 102.0 83.0 L 103.0 83.0 L 103.0 83.0 L 103.0 83.0 L 104.0 83.0 L 105.0 83.0 L 105.0 83.0 L 106.0 83.0 L 107.0 82.0 L 107.0 82.0 L 108.0 82.0 L 108.0 82.0 L 109.0 82.0 L 109.0 82.0 L 110.0 82.0 L 110.0 82.0 L 110.0 82.0 L 111.0 82.0 L 111.0 82.0 L 111.0 82.0 L 112.0 82.0 L 112.0 82.0 L 113.0 82.0 L 113.0 82.0 L 114.0 82.0 L 114.0 82.0 L 115.0 82.0 L 115.0 82.0 L 116.0 82.0 L 116.0 82.0 L 117.0 82.0 L 117.0 82.0 L 117.0 82.0 L 118.0 82.0 L 119.0 82.0 L 119.0 82.0 L 120.0 82.0 L 120.0 82.0 L 121.0 82.0 L 121.0 82.0 L 122.0 82.0 L 122.0 82.0 L 123.0 82.0 L 123.0 82.0 L 124.0 82.0 L 125.0 82.0 L 125.0 82.0 L 126.0 82.0 L 126.0 82.0 L 127.0 81.0 L 128.0 81.0 L 128.0 81.0 L 129.0 81.0 L 129.0 81.0 L 130.0 81.0 L 130.0 81.0 L 131.0 81.0 L 131.0 81.0 L 132.0 81.0 L 132.0 81.0 L 132.0 81.0 L 133.0 81.0 L 133.0 81.0 L 133.0 81.0 L 133.0 81.0 L 133.0 81.0 L 133.0 81.0 L 133.0 81.0 L 133.0 81.0 L 133.0 81.0 L 133.0 81.0 L 133.0 81.0 L 133.0 81.0 L 133.0 81.0 L 133.0 81.0 L 133.0 81.0 L 133.0 81.0 L 133.0 81.0 L 133.0 81.0 L 133.0 81.0 L 133.0 82.0 L 133.0 82.0 L 133.0 82.0 L 133.0 82.0 L 133.0 82.0 L 133.0 83.0 L 132.0 83.0 L 132.0 83.0 L 132.0 84.0 L 132.0 84.0 L 131.0 84.0 L 131.0 85.0 L 130.0 85.0 L 130.0 86.0 L 129.0 87.0 L 128.0 88.0 L 128.0 89.0 L 127.0 89.0 L 126.0 90.0 L 126.0 91.0 L 125.0 92.0 L 125.0 93.0 L 124.0 94.0 L 123.0 94.0 L 122.0 95.0 L 122.0 96.0 L 121.0 97.0 L 120.0 98.0 L 119.0 99.0 L 119.0 100.0 L 118.0 101.0 L 117.0 102.0 L 117.0 103.0 L 116.0 105.0 L 115.0 106.0 L 115.0 107.0 L 114.0 108.0 L 113.0 109.0 L 112.0 110.0 L 112.0 111.0 L 111.0 112.0 L 110.0 113.0 L 110.0 114.0 L 109.0 115.0 L 108.0 116.0 L 108.0 117.0 L 107.0 118.0 L 107.0 119.0 L 106.0 120.0 L 105.0 121.0 L 105.0 122.0 L 104.0 123.0 L 103.0 124.0 L 102.0 125.0 L 101.0 126.0 L 100.0 127.0 L 99.0 128.0 L 98.0 129.0 L 96.0 130.0 L 95.0 131.0 L 93.0 132.0 L 91.0 134.0 L 89.0 135.0 L 86.0 136.0 L 84.0 138.0 L 81.0 139.0 L 79.0 141.0 L 77.0 142.0 L 75.0 143.0 L 73.0 144.0 L 71.0 145.0 L 69.0 146.0 L 67.0 147.0 L 66.0 148.0 L 64.0 149.0 L 63.0 149.0 L 62.0 149.0 L 61.0 149.0 L 60.0 149.0 " stroke="black" fill="none" stroke-width="5.0" stroke-linecap="round" stroke-linejoin="round" />
<path d="M 76.0 106.0 L 76.0 106.0 L 76.0 106.0 L 76.0 106.0 L 77.0 106.0 L 77.0 106.0 L 78.0 107.0 L 80.0 107.0 L 83.0 108.0 L 86.0 109.0 L 89.0 110.0 L 93.0 111.0 L 97.0 113.0 L 99.0 114.0 L 102.0 115.0 L 103.0 116.0 L 104.0 117.0 " stroke="black" fill="none" stroke-width="5.0" stroke-linecap="round" stroke-linejoin="round" />
<path d="M 206.0 72.0 L 206.0 72.0 L 206.0 72.0 L 206.0 72.0 L 206.0 73.0 L 206.0 73.0 L 206.0 73.0 L 206.0 73.0 L 206.0 73.0 L 206.0 73.0 L 206.0 73.0 L 206.0 73.0 L 206.0 74.0 L 205.0 75.0 L 204.0 76.0 L 203.0 78.0 L 201.0 80.0 L 199.0 83.0 L 196.0 86.0 L 194.0 90.0 L 190.0 93.0 L 187.0 97.0 L 184.0 100.0 L 180.0 103.0 L 179.0 104.0 " stroke="black" fill="none" stroke-width="5.0" stroke-linecap="round" stroke-linejoin="round" />
<path d="M 233.0 103.0 L 233.0 103.0 L 233.0 103.0 L 232.0 103.0 L 232.0 103.0 L 231.0 104.0 L 230.0 105.0 L 229.0 105.0 L 228.0 106.0 L 227.0 108.0 L 224.0 110.0 L 221.0 112.0 L 218.0 115.0 L 213.0 119.0 L 208.0 121.0 L 203.0 124.0 " stroke="black" fill="none" stroke-width="5.0" stroke-linecap="round" stroke-linejoin="round" />
<path d="M 162.0 77.0 L 162.0 77.0 L 162.0 77.0 L 162.0 77.0 L 162.0 78.0 L 162.0 78.0 L 162.0 79.0 L 162.0 80.0 L 163.0 82.0 L 164.0 83.0 L 166.0 86.0 L 169.0 89.0 L 172.0 93.0 L 175.0 97.0 L 179.0 102.0 L 183.0 107.0 L 186.0 112.0 L 190.0 118.0 L 193.0 122.0 L 196.0 126.0 L 200.0 130.0 L 204.0 134.0 L 209.0 137.0 L 215.0 141.0 L 220.0 144.0 L 225.0 147.0 L 229.0 149.0 L 232.0 151.0 L 234.0 152.0 L 236.0 152.0 L 237.0 153.0 L 237.0 154.0 " stroke="black" fill="none" stroke-width="5.0" stroke-linecap="round" stroke-linejoin="round" />
<path d="M 117.0 131.0 L 117.0 131.0 L 117.0 131.0 L 117.0 131.0 L 117.0 131.0 L 117.0 132.0 L 117.0 132.0 L 117.0 132.0 L 117.0 132.0 L 119.0 132.0 L 121.0 132.0 L 124.0 132.0 L 127.0 132.0 L 132.0 132.0 L 137.0 132.0 L 143.0 132.0 L 149.0 132.0 L 153.0 131.0 L 158.0 131.0 L 163.0 130.0 L 168.0 130.0 L 173.0 130.0 L 178.0 130.0 L 182.0 130.0 L 185.0 130.0 L 188.0 130.0 L 190.0 131.0 " stroke="black" fill="none" stroke-width="5.0" stroke-linecap="round" stroke-linejoin="round" />
<path d="M 101.0 164.0 L 101.0 164.0 L 101.0 164.0 L 101.0 164.0 L 100.0 164.0 L 100.0 164.0 L 100.0 164.0 L 100.0 164.0 L 100.0 164.0 L 100.0 165.0 L 100.0 167.0 L 100.0 170.0 L 100.0 174.0 L 101.0 179.0 L 101.0 186.0 L 101.0 192.0 L 101.0 198.0 L 101.0 202.0 L 101.0 204.0 L 102.0 204.0 " stroke="black" fill="none" stroke-width="5.0" stroke-linecap="round" stroke-linejoin="round" />
<path d="M 105.0 162.0 L 105.0 162.0 L 105.0 162.0 L 105.0 162.0 L 105.0 162.0 L 105.0 162.0 L 105.0 162.0 L 105.0 162.0 L 105.0 162.0 L 105.0 161.0 L 105.0 161.0 L 105.0 161.0 L 105.0 161.0 L 106.0 161.0 L 107.0 161.0 L 107.0 161.0 L 109.0 161.0 L 110.0 161.0 L 111.0 161.0 L 113.0 161.0 L 114.0 161.0 L 116.0 160.0 L 118.0 160.0 L 120.0 160.0 L 122.0 160.0 L 124.0 160.0 L 125.0 159.0 L 127.0 159.0 L 129.0 159.0 L 131.0 159.0 L 133.0 159.0 L 134.0 159.0 L 136.0 159.0 L 138.0 159.0 L 139.0 159.0 L 141.0 158.0 L 143.0 158.0 L 144.0 158.0 L 145.0 158.0 L 147.0 158.0 L 148.0 158.0 L 148.0 158.0 L 150.0 158.0 L 150.0 158.0 L 151.0 158.0 L 152.0 158.0 L 153.0 158.0 L 154.0 158.0 L 155.0 158.0 L 156.0 158.0 L 157.0 158.0 L 158.0 158.0 L 158.0 158.0 L 160.0 158.0 L 161.0 158.0 L 162.0 158.0 L 163.0 158.0 L 164.0 158.0 L 166.0 158.0 L 167.0 158.0 L 168.0 158.0 L 170.0 158.0 L 171.0 158.0 L 173.0 158.0 L 174.0 158.0 L 176.0 158.0 L 178.0 158.0 L 179.0 158.0 L 181.0 158.0 L 182.0 158.0 L 184.0 158.0 L 185.0 158.0 L 186.0 158.0 L 187.0 158.0 L 189.0 158.0 L 190.0 158.0 L 191.0 158.0 L 192.0 158.0 L 193.0 158.0 L 194.0 158.0 L 194.0 158.0 L 195.0 158.0 L 196.0 158.0 L 197.0 158.0 L 198.0 158.0 L 198.0 158.0 L 199.0 159.0 L 200.0 159.0 L 200.0 159.0 L 201.0 159.0 L 202.0 159.0 L 202.0 159.0 L 203.0 159.0 L 204.0 159.0 L 204.0 159.0 L 205.0 159.0 L 205.0 159.0 L 206.0 159.0 L 206.0 159.0 L 206.0 160.0 L 207.0 160.0 L 207.0 160.0 L 207.0 161.0 L 207.0 161.0 L 207.0 162.0 L 207.0 163.0 L 207.0 164.0 L 207.0 165.0 L 207.0 167.0 L 207.0 169.0 L 207.0 172.0 L 206.0 175.0 L 205.0 178.0 L 204.0 182.0 L 203.0 186.0 L 202.0 189.0 L 202.0 193.0 L 202.0 195.0 L 201.0 197.0 L 201.0 198.0 L 201.0 198.0 L 201.0 198.0 " stroke="black" fill="none" stroke-width="5.0" stroke-linecap="round" stroke-linejoin="round" />
<path d="M 103.0 202.0 L 103.0 202.0 L 103.0 202.0 L 103.0 202.0 L 103.0 202.0 L 103.0 202.0 L 103.0 202.0 L 103.0 201.0 L 103.0 201.0 L 103.0 201.0 L 103.0 201.0 L 103.0 201.0 L 103.0 201.0 L 103.0 201.0 L 104.0 201.0 L 105.0 201.0 L 106.0 201.0 L 108.0 201.0 L 110.0 200.0 L 114.0 200.0 L 117.0 200.0 L 121.0 200.0 L 125.0 199.0 L 129.0 199.0 L 134.0 199.0 L 139.0 199.0 L 143.0 199.0 L 147.0 199.0 L 151.0 199.0 L 154.0 198.0 L 157.0 198.0 L 160.0 198.0 L 164.0 198.0 L 168.0 198.0 L 172.0 198.0 L 176.0 198.0 L 179.0 198.0 L 182.0 198.0 L 185.0 198.0 L 187.0 199.0 L 189.0 199.0 L 191.0 199.0 L 192.0 199.0 L 193.0 199.0 L 194.0 199.0 L 196.0 199.0 " stroke="black" fill="none" stroke-width="5.0" stroke-linecap="round" stroke-linejoin="round" />
<path d="M 108.0 212.0 L 108.0 212.0 L 108.0 212.0 L 109.0 212.0 L 109.0 212.0 L 110.0 212.0 L 111.0 212.0 L 112.0 213.0 L 114.0 216.0 L 116.0 219.0 L 119.0 224.0 L 121.0 229.0 L 124.0 234.0 L 127.0 238.0 " stroke="black" fill="none" stroke-width="5.0" stroke-linecap="round" stroke-linejoin="round" />
<path d="M 189.0 208.0 L 189.0 208.0 L 188.0 208.0 L 188.0 208.0 L 188.0 209.0 L 187.0 209.0 L 187.0 209.0 L 187.0 210.0 L 186.0 211.0 L 185.0 212.0 L 184.0 214.0 L 183.0 218.0 L 181.0 223.0 L 178.0 229.0 L 175.0 235.0 " stroke="black" fill="none" stroke-width="5.0" stroke-linecap="round" stroke-linejoin="round" />
<path d="M 66.0 244.0 L 66.0 244.0 L 66.0 244.0 L 66.0 244.0 L 66.0 244.0 L 66.0 244.0 L 65.0 244.0 L 65.0 244.0 L 65.0 244.0 L 65.0 244.0 L 65.0 244.0 L 66.0 244.0 L 66.0 244.0 L 67.0 244.0 L 68.0 244.0 L 68.0 245.0 L 69.0 245.0 L 70.0 245.0 L 72.0 245.0 L 73.0 245.0 L 74.0 245.0 L 76.0 246.0 L 77.0 246.0 L 79.0 246.0 L 81.0 246.0 L 83.0 246.0 L 85.0 246.0 L 87.0 246.0 L 89.0 246.0 L 91.0 246.0 L 92.0 246.0 L 93.0 246.0 L 95.0 246.0 L 96.0 246.0 L 97.0 246.0 L 98.0 246.0 L 99.0 246.0 L 100.0 246.0 L 100.0 246.0 L 101.0 246.0 L 102.0 246.0 L 103.0 246.0 L 104.0 246.0 L 105.0 246.0 L 105.0 246.0 L 106.0 246.0 L 107.0 246.0 L 107.0 246.0 L 108.0 246.0 L 109.0 246.0 L 110.0 246.0 L 110.0 246.0 L 111.0 246.0 L 112.0 246.0 L 112.0 246.0 L 113.0 246.0 L 114.0 246.0 L 115.0 246.0 L 115.0 246.0 L 116.0 246.0 L 117.0 246.0 L 118.0 246.0 L 119.0 246.0 L 120.0 246.0 L 121.0 246.0 L 122.0 246.0 L 124.0 246.0 L 125.0 246.0 L 126.0 246.0 L 128.0 246.0 L 129.0 246.0 L 131.0 246.0 L 133.0 246.0 L 134.0 246.0 L 135.0 246.0 L 137.0 246.0 L 138.0 246.0 L 139.0 246.0 L 140.0 246.0 L 141.0 246.0 L 142.0 246.0 L 143.0 246.0 L 144.0 246.0 L 145.0 245.0 L 146.0 245.0 L 147.0 245.0 L 148.0 245.0 L 149.0 245.0 L 150.0 245.0 L 151.0 245.0 L 152.0 245.0 L 153.0 245.0 L 154.0 244.0 L 155.0 244.0 L 156.0 244.0 L 157.0 244.0 L 159.0 243.0 L 160.0 243.0 L 161.0 243.0 L 163.0 243.0 L 164.0 243.0 L 166.0 243.0 L 167.0 243.0 L 169.0 243.0 L 170.0 243.0 L 172.0 243.0 L 173.0 243.0 L 175.0 243.0 L 176.0 243.0 L 178.0 243.0 L 179.0 243.0 L 180.0 244.0 L 182.0 244.0 L 183.0 244.0 L 185.0 244.0 L 186.0 244.0 L 187.0 244.0 L 189.0 244.0 L 190.0 244.0 L 191.0 244.0 L 192.0 245.0 L 193.0 245.0 L 194.0 245.0 L 195.0 245.0 L 196.0 245.0 L 197.0 245.0 L 199.0 245.0 L 200.0 245.0 L 201.0 245.0 L 202.0 245.0 L 204.0 245.0 L 205.0 245.0 L 207.0 245.0 L 209.0 245.0 L 211.0 245.0 L 214.0 245.0 L 217.0 245.0 L 219.0 245.0 L 222.0 245.0 L 225.0 245.0 L 227.0 245.0 L 229.0 245.0 L 231.0 245.0 L 233.0 245.0 L 234.0 245.0 L 235.0 245.0 L 236.0 245.0 L 237.0 245.0 L 238.0 245.0 L 239.0 244.0 L 240.0 244.0 L 240.0 244.0 L 241.0 244.0 L 241.0 244.0 L 242.0 244.0 L 242.0 244.0 L 242.0 244.0 L 242.0 244.0 L 242.0 244.0 L 242.0 245.0 " stroke="black" fill="none" stroke-width="5.0" stroke-linecap="round" stroke-linejoin="round" />
</svg>