<svg xmlns="http://www.w3.org/2000/svg" width="300" height="300" viewBox="0 0 300 300">
<path d="M 151.0 71.0 L 151.0 71.0 L 151.0 70.0 L 150.0 70.0 L 150.0 69.0 L 150.0 69.0 L 150.0 69.0 L 150.0 69.0 L 150.0 69.0 L 149.0 69.0 L 149.0 69.0 L 149.0 69.0 L 149.0 70.0 L 148.0 71.0 L 148.0 72.0 L 147.0 74.0 L 146.0 76.0 L 145.0 78.0 L 143.0 81.0 L 142.0 83.0 L 141.0 84.0 " stroke="black" fill="none" stroke-width="5.0" stroke-linecap="round" stroke-linejoin="round" />
<path d="M 88.0 91.0 L 88.0 91.0 L 88.0 91.0 L 88.0 91.0 L 88.0 91.0 L 88.0 91.0 L 88.0 91.0 L 88.0 92.0 L 88.0 95.0 L 88.0 98.0 L 88.0 102.0 L 88.0 108.0 L 88.0 114.0 L 88.0 122.0 L 88.0 131.0 L 88.0 139.0 L 88.0 145.0 L 88.0 147.0 L 89.0 147.0 " stroke="black" fill="none" stroke-width="5.0" stroke-linecap="round" stroke-linejoin="round" />
<path d="M 100.0 89.0 L 100.0 89.0 L 100.0 89.0 L 100.0 89.0 L 100.0 89.0 L 100.0 89.0 L 99.0 89.0 L 99.0 88.0 L 99.0 88.0 L 98.0 88.0 L 98.0 88.0 L 98.0 88.0 L 97.0 88.0 L 97.0 88.0 L 97.0 88.0 L 97.0 88.0 L 96.0 88.0 L 96.0 88.0 L 96.0 88.0 L 96.0 88.0 L 96.0 88.0 L 96.0 89.0 L 96.0 89.0 L 96.0 89.0 L 96.0 89.0 L 96.0 89.0 L 97.0 89.0 L 98.0 89.0 L 99.0 90.0 L 100.0 90.0 L 101.0 90.0 L 102.0 90.0 L 104.0 90.0 L 105.0 90.0 L 106.0 90.0 L 107.0 90.0 L 109.0 90.0 L 110.0 90.0 L 111.0 90.0 L 112.0 90.0 L 113.0 90.0 L 115.0 90.0 L 116.0 90.0 L 117.0 90.0 L 118.0 90.0 L 119.0 90.0 L 120.0 90.0 L 122.0 90.0 L 123.0 90.0 L 124.0 90.0 L 125.0 90.0 L 126.0 90.0 L 127.0 90.0 L 129.0 90.0 L 130.0 90.0 L 131.0 90.0 L 133.0 90.0 L 134.0 90.0 L 135.0 90.0 L 136.0 90.0 L 138.0 90.0 L 139.0 90.0 L 140.0 90.0 L 141.0 90.0 L 142.0 90.0 L 143.0 90.0 L 144.0 90.0 L 144.0 90.0 L 145.0 90.0 L 146.0 90.0 L 146.0 90.0 L 147.0 90.0 L 147.0 90.0 L 148.0 90.0 L 148.0 90.0 L 149.0 90.0 L 149.0 90.0 L 150.0 90.0 L 150.0 90.0 L 150.0 90.0 L 151.0 90.0 L 151.0 90.0 L 152.0 90.0 L 152.0 90.0 L 152.0 90.0 L 153.0 90.0 L 153.0 90.0 L 154.0 90.0 L 154.0 90.0 L 155.0 90.0 L 155.0 90.0 L 155.0 90.0 L 156.0 90.0 L 156.0 90.0 L 156.0 90.0 L 157.0 90.0 L 157.0 90.0 L 157.0 90.0 L 158.0 90.0 L 158.0 90.0 L 158.0 90.0 L 159.0 90.0 L 159.0 90.0 L 160.0 90.0 L 160.0 89.0 L 160.0 89.0 L 161.0 89.0 L 161.0 89.0 L 162.0 89.0 L 162.0 89.0 L 162.0 89.0 L 163.0 89.0 L 163.0 89.0 L 164.0 89.0 L 164.0 89.0 L 165.0 89.0 L 165.0 89.0 L 166.0 89.0 L 166.0 89.0 L 167.0 89.0 L 168.0 89.0 L 168.0 89.0 L 169.0 89.0 L 169.0 89.0 L 170.0 89.0 L 171.0 89.0 L 171.0 89.0 L 172.0 89.0 L 173.0 89.0 L 174.0 89.0 L 174.0 89.0 L 175.0 89.0 L 176.0 89.0 L 177.0 89.0 L 178.0 89.0 L 179.0 89.0 L 180.0 89.0 L 181.0 89.0 L 182.0 89.0 L 183.0 89.0 L 184.0 89.0 L 185.0 89.0 L 186.0 89.0 L 187.0 89.0 L 188.0 89.0 L 189.0 90.0 L 190.0 90.0 L 190.0 90.0 L 191.0 90.0 L 192.0 90.0 L 192.0 90.0 L 193.0 90.0 L 193.0 91.0 L 194.0 91.0 L 194.0 91.0 L 195.0 91.0 L 195.0 91.0 L 196.0 91.0 L 196.0 91.0 L 197.0 92.0 L 197.0 92.0 L 198.0 92.0 L 198.0 92.0 L 199.0 92.0 L 199.0 92.0 L 200.0 92.0 L 200.0 92.0 L 201.0 92.0 L 201.0 92.0 L 202.0 92.0 L 202.0 92.0 L 203.0 92.0 L 203.0 92.0 L 204.0 92.0 L 204.0 92.0 L 205.0 92.0 L 205.0 92.0 L 206.0 92.0 L 206.0 92.0 L 207.0 92.0 L 207.0 92.0 L 207.0 92.0 L 207.0 92.0 L 208.0 92.0 L 208.0 93.0 L 208.0 93.0 L 209.0 93.0 L 209.0 93.0 L 209.0 93.0 L 209.0 93.0 L 209.0 94.0 L 209.0 94.0 L 209.0 95.0 L 209.0 95.0 L 209.0 96.0 L 209.0 97.0 L 209.0 99.0 L 209.0 100.0 L 209.0 102.0 L 208.0 105.0 L 208.0 107.0 L 207.0 110.0 L 207.0 113.0 L 207.0 116.0 L 206.0 119.0 L 206.0 122.0 L 206.0 125.0 L 206.0 128.0 L 206.0 132.0 L 206.0 136.0 L 205.0 139.0 L 205.0 142.0 L 205.0 144.0 L 205.0 146.0 L 205.0 146.0 L 205.0 147.0 L 205.0 147.0 L 205.0 146.0 L 205.0 146.0 " stroke="black" fill="none" stroke-width="5.0" stroke-linecap="round" stroke-linejoin="round" />
<path d="M 99.0 118.0 L 99.0 118.0 L 99.0 118.0 L 99.0 118.0 L 99.0 118.0 L 99.0 118.0 L 99.0 118.0 L 99.0 118.0 L 99.0 118.0 L 99.0 118.0 L 99.0 118.0 L 99.0 118.0 L 99.0 117.0 L 99.0 117.0 L 99.0 117.0 L 99.0 117.0 L 100.0 117.0 L 100.0 117.0 L 101.0 117.0 L 101.0 117.0 L 102.0 117.0 L 103.0 117.0 L 103.0 117.0 L 104.0 117.0 L 105.0 117.0 L 106.0 117.0 L 107.0 117.0 L 108.0 117.0 L 110.0 117.0 L 111.0 117.0 L 112.0 117.0 L 114.0 117.0 L 115.0 117.0 L 116.0 117.0 L 117.0 117.0 L 118.0 117.0 L 119.0 117.0 L 120.0 117.0 L 121.0 117.0 L 122.0 117.0 L 123.0 117.0 L 124.0 117.0 L 125.0 117.0 L 126.0 117.0 L 127.0 117.0 L 128.0 117.0 L 129.0 117.0 L 130.0 117.0 L 131.0 117.0 L 132.0 117.0 L 133.0 117.0 L 134.0 117.0 L 135.0 117.0 L 136.0 117.0 L 137.0 117.0 L 139.0 117.0 L 140.0 117.0 L 141.0 117.0 L 142.0 117.0 L 142.0 117.0 L 143.0 117.0 L 144.0 117.0 L 144.0 117.0 L 145.0 117.0 L 145.0 117.0 L 146.0 117.0 L 146.0 117.0 L 147.0 117.0 L 147.0 117.0 L 148.0 117.0 L 149.0 117.0 L 149.0 117.0 L 150.0 117.0 L 150.0 117.0 L 151.0 117.0 L 152.0 117.0 L 152.0 117.0 L 153.0 117.0 L 153.0 117.0 L 154.0 117.0 L 155.0 117.0 L 155.0 117.0 L 156.0 117.0 L 157.0 117.0 L 157.0 117.0 L 158.0 117.0 L 159.0 116.0 L 160.0 116.0 L 160.0 116.0 L 161.0 116.0 L 162.0 116.0 L 163.0 116.0 L 164.0 116.0 L 164.0 116.0 L 165.0 116.0 L 166.0 116.0 L 167.0 116.0 L 168.0 116.0 L 169.0 116.0 L 170.0 116.0 L 171.0 116.0 L 172.0 116.0 L 173.0 116.0 L 174.0 116.0 L 175.0 116.0 L 176.0 116.0 L 177.0 116.0 L 178.0 116.0 L 179.0 116.0 L 180.0 116.0 L 181.0 116.0 L 182.0 116.0 L 183.0 116.0 L 184.0 116.0 L 185.0 116.0 L 185.0 116.0 L 186.0 116.0 L 187.0 116.0 L 188.0 116.0 L 189.0 116.0 L 190.0 116.0 L 191.0 116.0 L 192.0 115.0 L 193.0 115.0 L 193.0 115.0 L 194.0 115.0 " stroke="black" fill="none" stroke-width="5.0" stroke-linecap="round" stroke-linejoin="round" />
<path d="M 97.0 148.0 L 97.0 148.0 L 97.0 148.0 L 97.0 147.0 L 97.0 147.0 L 97.0 147.0 L 96.0 147.0 L 96.0 147.0 L 96.0 147.0 L 96.0 147.0 L 96.0 147.0 L 96.0 147.0 L 96.0 147.0 L 96.0 147.0 L 96.0 147.0 L 97.0 147.0 L 97.0 147.0 L 98.0 147.0 L 99.0 147.0 L 99.0 147.0 L 100.0 147.0 L 101.0 147.0 L 102.0 147.0 L 103.0 147.0 L 104.0 147.0 L 106.0 148.0 L 107.0 148.0 L 108.0 148.0 L 110.0 148.0 L 112.0 148.0 L 113.0 148.0 L 115.0 148.0 L 116.0 148.0 L 118.0 148.0 L 120.0 148.0 L 121.0 148.0 L 123.0 148.0 L 125.0 148.0 L 126.0 148.0 L 128.0 148.0 L 129.0 148.0 L 130.0 148.0 L 132.0 148.0 L 133.0 148.0 L 134.0 148.0 L 135.0 148.0 L 136.0 148.0 L 137.0 148.0 L 138.0 148.0 L 139.0 148.0 L 140.0 148.0 L 141.0 148.0 L 141.0 148.0 L 142.0 148.0 L 143.0 148.0 L 143.0 148.0 L 144.0 148.0 L 145.0 148.0 L 145.0 148.0 L 146.0 148.0 L 146.0 148.0 L 147.0 148.0 L 148.0 148.0 L 148.0 148.0 L 149.0 148.0 L 150.0 148.0 L 150.0 148.0 L 151.0 148.0 L 151.0 148.0 L 152.0 148.0 L 152.0 148.0 L 153.0 148.0 L 153.0 148.0 L 154.0 149.0 L 155.0 149.0 L 156.0 149.0 L 157.0 149.0 L 158.0 149.0 L 161.0 149.0 L 163.0 149.0 L 165.0 148.0 L 168.0 148.0 L 170.0 148.0 L 172.0 148.0 L 174.0 148.0 L 175.0 147.0 L 177.0 147.0 L 178.0 147.0 L 179.0 147.0 L 180.0 147.0 L 181.0 147.0 L 182.0 147.0 L 183.0 147.0 L 184.0 147.0 L 185.0 147.0 L 186.0 147.0 L 187.0 147.0 L 188.0 148.0 L 189.0 148.0 L 191.0 148.0 L 191.0 148.0 L 192.0 148.0 L 193.0 148.0 L 194.0 148.0 L 195.0 148.0 L 195.0 148.0 L 196.0 148.0 L 197.0 148.0 L 198.0 147.0 L 198.0 147.0 L 199.0 147.0 " stroke="black" fill="none" stroke-width="5.0" stroke-linecap="round" stroke-linejoin="round" />
<path d="M 62.0 176.0 L 62.0 176.0 L 62.0 176.0 L 62.0 176.0 L 62.0 176.0 L 62.0 176.0 L 62.0 176.0 L 62.0 176.0 L 62.0 176.0 L 62.0 176.0 L 62.0 176.0 L 62.0 176.0 L 62.0 176.0 L 62.0 176.0 L 63.0 176.0 L 63.0 176.0 L 63.0 175.0 L 64.0 175.0 L 65.0 175.0 L 66.0 175.0 L 66.0 175.0 L 68.0 175.0 L 69.0 175.0 L 70.0 175.0 L 72.0 175.0 L 73.0 175.0 L 75.0 175.0 L 76.0 175.0 L 78.0 175.0 L 79.0 175.0 L 81.0 175.0 L 82.0 175.0 L 83.0 175.0 L 84.0 175.0 L 85.0 175.0 L 87.0 175.0 L 88.0 175.0 L 89.0 175.0 L 89.0 175.0 L 90.0 175.0 L 91.0 175.0 L 92.0 175.0 L 93.0 175.0 L 93.0 175.0 L 94.0 175.0 L 95.0 175.0 L 96.0 175.0 L 97.0 175.0 L 98.0 175.0 L 99.0 175.0 L 100.0 175.0 L 101.0 175.0 L 101.0 175.0 L 102.0 175.0 L 103.0 175.0 L 104.0 175.0 L 105.0 175.0 L 106.0 175.0 L 106.0 175.0 L 107.0 175.0 L 108.0 175.0 L 108.0 175.0 L 109.0 175.0 L 110.0 175.0 L 110.0 175.0 L 111.0 175.0 L 112.0 175.0 L 113.0 175.0 L 114.0 175.0 L 115.0 175.0 L 116.0 175.0 L 117.0 175.0 L 118.0 174.0 L 119.0 174.0 L 120.0 174.0 L 122.0 174.0 L 123.0 174.0 L 125.0 174.0 L 126.0 174.0 L 127.0 173.0 L 129.0 173.0 L 130.0 173.0 L 131.0 173.0 L 132.0 173.0 L 133.0 173.0 L 134.0 173.0 L 135.0 173.0 L 136.0 173.0 L 137.0 173.0 L 138.0 173.0 L 138.0 173.0 L 139.0 173.0 L 140.0 173.0 L 140.0 173.0 L 141.0 173.0 L 141.0 173.0 L 142.0 173.0 L 143.0 173.0 L 143.0 173.0 L 143.0 172.0 L 144.0 172.0 L 144.0 172.0 L 144.0 172.0 L 145.0 172.0 L 145.0 172.0 L 146.0 172.0 L 146.0 172.0 L 146.0 171.0 L 147.0 171.0 L 147.0 171.0 L 148.0 171.0 L 148.0 171.0 L 149.0 171.0 L 149.0 171.0 L 150.0 171.0 L 150.0 171.0 L 150.0 171.0 L 151.0 171.0 L 151.0 171.0 L 152.0 171.0 L 152.0 171.0 L 153.0 171.0 L 153.0 171.0 L 153.0 171.0 L 154.0 171.0 L 154.0 171.0 L 155.0 171.0 L 155.0 171.0 L 155.0 171.0 L 156.0 171.0 L 156.0 171.0 L 157.0 171.0 L 157.0 171.0 L 158.0 171.0 L 158.0 171.0 L 158.0 171.0 L 159.0 171.0 L 160.0 171.0 L 160.0 171.0 L 161.0 171.0 L 161.0 171.0 L 162.0 171.0 L 162.0 171.0 L 163.0 171.0 L 164.0 171.0 L 164.0 171.0 L 165.0 171.0 L 165.0 171.0 L 166.0 171.0 L 166.0 171.0 L 167.0 171.0 L 168.0 171.0 L 168.0 171.0 L 169.0 171.0 L 170.0 171.0 L 170.0 171.0 L 171.0 171.0 L 172.0 171.0 L 172.0 171.0 L 173.0 171.0 L 174.0 171.0 L 175.0 171.0 L 175.0 171.0 L 176.0 171.0 L 177.0 171.0 L 177.0 171.0 L 178.0 171.0 L 178.0 171.0 L 179.0 171.0 L 180.0 171.0 L 180.0 171.0 L 181.0 171.0 L 181.0 171.0 L 182.0 171.0 L 183.0 171.0 L 183.0 171.0 L 184.0 171.0 L 184.0 171.0 L 184.0 171.0 L 185.0 171.0 L 185.0 171.0 L 186.0 171.0 L 186.0 171.0 L 186.0 171.0 L 187.0 171.0 L 187.0 171.0 L 187.0 171.0 L 188.0 171.0 L 188.0 171.0 L 188.0 171.0 L 189.0 171.0 L 189.0 171.0 L 190.0 171.0 L 190.0 171.0 L 190.0 171.0 L 191.0 171.0 L 191.0 171.0 L 192.0 171.0 L 192.0 171.0 L 193.0 171.0 L 193.0 171.0 L 193.0 171.0 L 194.0 171.0 L 194.0 171.0 L 195.0 171.0 L 195.0 172.0 L 196.0 172.0 L 196.0 172.0 L 196.0 172.0 L 197.0 172.0 L 197.0 172.0 L 197.0 172.0 L 198.0 172.0 L 198.0 172.0 L 198.0 172.0 L 199.0 172.0 L 199.0 172.0 L 200.0 172.0 L 200.0 172.0 L 200.0 172.0 L 200.0 172.0 L 201.0 172.0 L 201.0 172.0 L 202.0 172.0 L 202.0 172.0 L 202.0 172.0 L 203.0 172.0 L 203.0 172.0 L 204.0 172.0 L 204.0 172.0 L 205.0 172.0 L 205.0 172.0 L 205.0 172.0 L 206.0 172.0 L 206.0 172.0 L 207.0 172.0 L 207.0 172.0 L 208.0 172.0 L 208.0 172.0 L 209.0 172.0 L 209.0 172.0 L 210.0 172.0 L 210.0 172.0 L 211.0 172.0 L 212.0 172.0 L 212.0 172.0 L 213.0 172.0 L 214.0 172.0 L 215.0 172.0 L 216.0 172.0 L 216.0 172.0 L 218.0 172.0 L 219.0 172.0 L 219.0 172.0 L 220.0 172.0 L 221.0 172.0 L 222.0 172.0 L 223.0 172.0 L 223.0 172.0 L 224.0 172.0 L 225.0 172.0 L 225.0 172.0 L 226.0 172.0 L 227.0 172.0 L 227.0 171.0 L 228.0 171.0 L 228.0 171.0 L 228.0 171.0 L 229.0 171.0 L 229.0 171.0 L 229.0 171.0 L 230.0 171.0 L 230.0 171.0 L 230.0 171.0 L 231.0 171.0 L 231.0 171.0 L 232.0 171.0 L 232.0 171.0 L 232.0 171.0 L 232.0 171.0 L 233.0 171.0 L 233.0 171.0 L 234.0 171.0 L 234.0 171.0 L 234.0 171.0 L 235.0 170.0 L 235.0 170.0 L 235.0 170.0 L 235.0 170.0 L 236.0 170.0 L 236.0 170.0 L 236.0 170.0 L 236.0 170.0 L 236.0 170.0 L 236.0 170.0 " stroke="black" fill="none" stroke-width="5.0" stroke-linecap="round" stroke-linejoin="round" />
<path d="M 134.0 154.0 L 134.0 154.0 L 134.0 154.0 L 135.0 154.0 L 135.0 154.0 L 135.0 154.0 L 135.0 154.0 L 135.0 154.0 L 135.0 154.0 L 135.0 154.0 L 135.0 154.0 L 135.0 154.0 L 135.0 154.0 L 135.0 155.0 L 135.0 155.0 L 135.0 156.0 L 134.0 156.0 L 134.0 157.0 L 133.0 158.0 L 133.0 159.0 L 132.0 160.0 L 132.0 160.0 L 132.0 161.0 L 131.0 162.0 L 130.0 163.0 L 130.0 164.0 L 129.0 165.0 L 128.0 166.0 L 128.0 167.0 L 127.0 168.0 L 126.0 169.0 L 125.0 170.0 L 124.0 171.0 L 123.0 172.0 L 123.0 173.0 L 122.0 173.0 L 121.0 174.0 L 120.0 175.0 L 119.0 176.0 L 118.0 177.0 L 117.0 179.0 L 116.0 180.0 L 115.0 181.0 L 114.0 182.0 L 114.0 184.0 L 113.0 185.0 L 112.0 186.0 L 112.0 187.0 L 111.0 188.0 L 110.0 189.0 L 109.0 189.0 L 109.0 190.0 L 108.0 191.0 L 107.0 192.0 L 107.0 193.0 L 106.0 193.0 L 105.0 194.0 L 105.0 195.0 L 104.0 195.0 L 104.0 196.0 L 103.0 197.0 L 102.0 198.0 L 102.0 198.0 L 101.0 199.0 L 100.0 200.0 L 100.0 201.0 L 99.0 202.0 L 98.0 202.0 L 97.0 203.0 L 96.0 204.0 L 95.0 204.0 L 93.0 205.0 L 92.0 206.0 L 90.0 207.0 L 88.0 207.0 L 86.0 209.0 L 84.0 210.0 L 82.0 211.0 L 79.0 212.0 L 77.0 213.0 L 75.0 214.0 L 73.0 215.0 L 71.0 216.0 L 69.0 216.0 L 67.0 217.0 " stroke="black" fill="none" stroke-width="5.0" stroke-linecap="round" stroke-linejoin="round" />
<path d="M 181.0 180.0 L 181.0 180.0 L 181.0 180.0 L 181.0 180.0 L 181.0 180.0 L 181.0 180.0 L 181.0 180.0 L 181.0 180.0 L 181.0 180.0 L 181.0 180.0 L 181.0 181.0 L 181.0 181.0 L 181.0 181.0 L 181.0 181.0 L 181.0 181.0 L 181.0 182.0 L 182.0 182.0 L 182.0 183.0 L 182.0 184.0 L 183.0 185.0 L 184.0 186.0 L 185.0 186.0 L 186.0 188.0 L 187.0 188.0 L 188.0 189.0 L 189.0 190.0 L 189.0 191.0 L 190.0 192.0 L 191.0 192.0 L 191.0 193.0 L 192.0 193.0 L 193.0 194.0 L 193.0 195.0 L 194.0 195.0 L 194.0 196.0 L 195.0 196.0 L 195.0 197.0 L 196.0 198.0 L 197.0 198.0 L 197.0 199.0 L 198.0 200.0 L 199.0 200.0 L 200.0 201.0 L 201.0 201.0 L 202.0 202.0 L 203.0 202.0 L 204.0 203.0 L 205.0 203.0 L 206.0 204.0 L 207.0 204.0 L 208.0 205.0 L 210.0 205.0 L 211.0 206.0 L 212.0 206.0 L 214.0 207.0 L 215.0 207.0 L 216.0 208.0 L 217.0 208.0 L 218.0 209.0 L 220.0 209.0 L 221.0 210.0 L 222.0 210.0 L 223.0 211.0 L 224.0 211.0 L 225.0 212.0 L 226.0 212.0 L 228.0 213.0 L 229.0 213.0 L 230.0 213.0 L 231.0 213.0 L 232.0 214.0 L 234.0 214.0 L 235.0 215.0 L 236.0 215.0 L 237.0 215.0 L 238.0 216.0 L 239.0 216.0 L 239.0 216.0 L 240.0 216.0 L 241.0 216.0 L 241.0 216.0 " stroke="black" fill="none" stroke-width="5.0" stroke-linecap="round" stroke-linejoin="round" />
<path d="M 102.0 213.0 L 102.0 213.0 L 102.0 213.0 L 101.0 212.0 L 101.0 212.0 L 101.0 212.0 L 100.0 212.0 L 100.0 212.0 L 100.0 212.0 L 99.0 212.0 L 99.0 212.0 L 99.0 212.0 L 99.0 212.0 L 98.0 212.0 L 98.0 212.0 L 98.0 213.0 L 98.0 213.0 L 98.0 213.0 L 98.0 213.0 L 98.0 213.0 L 98.0 214.0 L 98.0 214.0 L 99.0 214.0 L 99.0 214.0 L 99.0 215.0 L 100.0 215.0 L 101.0 215.0 L 101.0 216.0 L 102.0 216.0 L 103.0 216.0 L 103.0 217.0 L 104.0 217.0 L 105.0 217.0 L 106.0 218.0 L 107.0 218.0 L 108.0 218.0 L 108.0 218.0 L 109.0 218.0 L 110.0 219.0 L 111.0 219.0 L 111.0 219.0 L 112.0 219.0 L 113.0 219.0 L 114.0 219.0 L 115.0 220.0 L 116.0 220.0 L 117.0 220.0 L 118.0 220.0 L 119.0 220.0 L 121.0 220.0 L 122.0 220.0 L 123.0 220.0 L 124.0 220.0 L 126.0 220.0 L 127.0 220.0 L 128.0 220.0 L 129.0 220.0 L 131.0 220.0 L 132.0 220.0 L 133.0 220.0 L 135.0 220.0 L 136.0 220.0 L 137.0 220.0 L 138.0 220.0 L 139.0 220.0 L 140.0 220.0 L 141.0 220.0 L 142.0 220.0 L 142.0 220.0 L 143.0 219.0 L 144.0 219.0 L 144.0 219.0 L 145.0 219.0 L 145.0 219.0 L 146.0 219.0 L 146.0 219.0 L 147.0 219.0 L 147.0 219.0 L 148.0 219.0 L 148.0 219.0 L 148.0 219.0 L 149.0 219.0 L 149.0 219.0 L 150.0 219.0 L 150.0 219.0 L 150.0 219.0 L 151.0 219.0 L 151.0 219.0 L 152.0 219.0 L 152.0 219.0 L 153.0 219.0 L 154.0 219.0 L 155.0 219.0 L 155.0 219.0 L 156.0 219.0 L 157.0 219.0 L 158.0 219.0 L 159.0 219.0 L 160.0 219.0 L 161.0 219.0 L 162.0 219.0 L 163.0 219.0 L 164.0 219.0 L 165.0 219.0 L 167.0 219.0 L 168.0 219.0 L 169.0 219.0 L 171.0 219.0 L 172.0 219.0 L 174.0 219.0 L 175.0 219.0 L 176.0 219.0 L 177.0 219.0 L 179.0 219.0 L 180.0 219.0 L 181.0 219.0 L 182.0 219.0 L 183.0 219.0 L 184.0 219.0 L 185.0 219.0 L 186.0 219.0 L 187.0 219.0 L 188.0 219.0 L 188.0 219.0 L 189.0 219.0 L 190.0 219.0 L 191.0 219.0 L 192.0 219.0 L 193.0 219.0 L 193.0 220.0 L 194.0 220.0 L 195.0 220.0 L 196.0 220.0 L 197.0 220.0 L 198.0 220.0 L 199.0 220.0 L 200.0 220.0 L 201.0 220.0 L 202.0 220.0 L 203.0 220.0 L 205.0 220.0 L 206.0 220.0 L 208.0 220.0 L 209.0 220.0 " stroke="black" fill="none" stroke-width="5.0" stroke-linecap="round" stroke-linejoin="round" />
<path d="M 148.0 193.0 L 148.0 193.0 L 148.0 193.0 L 148.0 192.0 L 149.0 191.0 L 149.0 191.0 L 149.0 191.0 L 149.0 191.0 L 149.0 191.0 L 149.0 192.0 L 149.0 193.0 L 149.0 195.0 L 149.0 196.0 L 149.0 198.0 L 149.0 200.0 L 149.0 203.0 L 149.0 207.0 L 149.0 211.0 L 149.0 219.0 L 149.0 228.0 L 149.0 237.0 L 149.0 245.0 L 149.0 252.0 L 148.0 255.0 L 148.0 257.0 L 148.0 258.0 L 148.0 259.0 L 148.0 259.0 L 149.0 259.0 L 149.0 259.0 " stroke="black" fill="none" stroke-width="5.0" stroke-linecap="round" stroke-linejoin="round" />
</svg>