<svg xmlns="http://www.w3.org/2000/svg" width="300" height="300" viewBox="0 0 300 300">
<path d="M 70.0 86.0 L 70.0 86.0 L 70.0 86.0 L 70.0 87.0 L 70.0 87.0 L 70.0 88.0 L 70.0 88.0 L 71.0 88.0 L 71.0 89.0 L 71.0 89.0 L 72.0 89.0 L 72.0 89.0 L 73.0 89.0 L 74.0 89.0 L 75.0 89.0 L 76.0 89.0 L 77.0 89.0 L 78.0 89.0 L 79.0 89.0 L 81.0 89.0 L 82.0 88.0 L 84.0 88.0 L 86.0 88.0 L 87.0 88.0 L 89.0 88.0 L 91.0 88.0 L 93.0 88.0 L 94.0 88.0 L 96.0 88.0 L 97.0 88.0 L 98.0 88.0 L 99.0 88.0 L 100.0 88.0 L 101.0 89.0 L 102.0 89.0 L 103.0 89.0 L 104.0 89.0 L 105.0 89.0 L 106.0 89.0 L 106.0 89.0 L 107.0 89.0 L 108.0 89.0 L 108.0 89.0 L 109.0 89.0 L 110.0 89.0 L 110.0 89.0 L 111.0 89.0 L 112.0 89.0 L 112.0 89.0 L 113.0 89.0 L 114.0 89.0 L 115.0 89.0 L 116.0 89.0 L 117.0 89.0 L 118.0 89.0 L 119.0 89.0 L 120.0 89.0 L 121.0 89.0 L 123.0 89.0 L 125.0 89.0 L 126.0 89.0 L 128.0 89.0 L 129.0 89.0 L 131.0 89.0 L 132.0 89.0 L 134.0 89.0 L 135.0 89.0 L 137.0 89.0 L 138.0 89.0 L 140.0 89.0 L 141.0 89.0 L 142.0 89.0 L 143.0 89.0 L 144.0 89.0 L 146.0 89.0 L 147.0 89.0 L 148.0 89.0 L 149.0 89.0 L 150.0 89.0 L 150.0 89.0 L 151.0 89.0 L 152.0 89.0 L 152.0 89.0 L 153.0 89.0 L 154.0 89.0 L 155.0 89.0 L 155.0 89.0 L 156.0 89.0 L 157.0 89.0 L 158.0 89.0 L 158.0 89.0 L 159.0 89.0 L 160.0 90.0 L 161.0 90.0 L 162.0 90.0 L 164.0 90.0 L 165.0 90.0 L 166.0 90.0 L 167.0 90.0 L 169.0 90.0 L 170.0 91.0 L 171.0 91.0 L 173.0 91.0 L 174.0 91.0 L 175.0 91.0 L 177.0 91.0 L 178.0 91.0 L 179.0 92.0 L 180.0 92.0 L 181.0 92.0 L 183.0 92.0 L 184.0 92.0 L 185.0 92.0 L 186.0 92.0 L 187.0 92.0 L 188.0 92.0 L 189.0 92.0 L 189.0 92.0 L 190.0 92.0 L 191.0 92.0 L 191.0 92.0 L 192.0 92.0 L 192.0 92.0 L 193.0 92.0 L 193.0 92.0 L 194.0 92.0 L 194.0 92.0 L 195.0 92.0 L 196.0 92.0 L 196.0 92.0 L 197.0 92.0 L 198.0 92.0 L 198.0 92.0 L 199.0 92.0 L 200.0 92.0 L 201.0 92.0 L 202.0 92.0 L 203.0 92.0 L 204.0 92.0 L 205.0 92.0 L 206.0 92.0 L 207.0 92.0 L 208.0 92.0 L 209.0 92.0 L 210.0 92.0 L 212.0 92.0 L 213.0 92.0 L 215.0 92.0 L 217.0 92.0 L 219.0 92.0 L 221.0 92.0 L 222.0 91.0 L 224.0 91.0 L 226.0 91.0 L 227.0 90.0 L 228.0 90.0 L 229.0 90.0 L 230.0 90.0 L 231.0 90.0 L 231.0 90.0 " stroke="black" fill="none" stroke-width="5.0" stroke-linecap="round" stroke-linejoin="round" />
<path d="M 150.0 95.0 L 150.0 95.0 L 149.0 96.0 L 149.0 97.0 L 148.0 99.0 L 148.0 101.0 L 147.0 104.0 L 146.0 108.0 L 144.0 111.0 L 143.0 115.0 L 141.0 118.0 L 139.0 121.0 L 137.0 123.0 L 136.0 126.0 " stroke="black" fill="none" stroke-width="5.0" stroke-linecap="round" stroke-linejoin="round" />
<path d="M 95.0 133.0 L 95.0 133.0 L 95.0 133.0 L 94.0 133.0 L 94.0 133.0 L 94.0 133.0 L 94.0 133.0 L 94.0 133.0 L 94.0 133.0 L 93.0 133.0 L 93.0 133.0 L 93.0 134.0 L 93.0 135.0 L 94.0 136.0 L 94.0 138.0 L 94.0 140.0 L 95.0 143.0 L 95.0 146.0 L 96.0 148.0 L 96.0 151.0 L 96.0 154.0 L 96.0 157.0 L 97.0 160.0 L 97.0 162.0 L 97.0 165.0 L 97.0 167.0 L 97.0 169.0 L 97.0 171.0 L 97.0 173.0 L 97.0 175.0 L 96.0 177.0 L 96.0 179.0 L 95.0 182.0 L 95.0 184.0 L 95.0 186.0 L 94.0 189.0 L 94.0 191.0 L 94.0 193.0 L 94.0 195.0 L 94.0 196.0 L 94.0 198.0 L 94.0 199.0 L 94.0 201.0 L 94.0 202.0 L 94.0 204.0 L 94.0 205.0 L 94.0 207.0 L 94.0 208.0 L 94.0 210.0 L 94.0 212.0 L 94.0 214.0 L 94.0 215.0 L 95.0 217.0 L 95.0 219.0 L 95.0 220.0 L 95.0 222.0 L 96.0 225.0 L 96.0 227.0 L 96.0 229.0 L 96.0 231.0 L 96.0 233.0 L 96.0 235.0 L 96.0 236.0 L 96.0 237.0 L 96.0 238.0 L 96.0 239.0 L 95.0 240.0 L 95.0 240.0 L 95.0 240.0 L 95.0 240.0 " stroke="black" fill="none" stroke-width="5.0" stroke-linecap="round" stroke-linejoin="round" />
<path d="M 100.0 139.0 L 100.0 139.0 L 100.0 139.0 L 100.0 139.0 L 99.0 139.0 L 99.0 139.0 L 98.0 139.0 L 98.0 139.0 L 98.0 139.0 L 98.0 139.0 L 98.0 139.0 L 98.0 139.0 L 98.0 139.0 L 98.0 139.0 L 98.0 139.0 L 99.0 139.0 L 100.0 139.0 L 100.0 139.0 L 101.0 139.0 L 102.0 139.0 L 103.0 139.0 L 104.0 139.0 L 105.0 139.0 L 107.0 139.0 L 108.0 139.0 L 109.0 139.0 L 110.0 139.0 L 112.0 139.0 L 114.0 139.0 L 115.0 138.0 L 117.0 137.0 L 119.0 137.0 L 121.0 136.0 L 122.0 136.0 L 124.0 136.0 L 125.0 136.0 L 127.0 136.0 L 128.0 136.0 L 129.0 136.0 L 130.0 136.0 L 132.0 136.0 L 133.0 136.0 L 134.0 136.0 L 135.0 136.0 L 136.0 136.0 L 137.0 136.0 L 138.0 136.0 L 139.0 136.0 L 140.0 136.0 L 140.0 136.0 L 141.0 136.0 L 142.0 136.0 L 143.0 137.0 L 144.0 137.0 L 145.0 137.0 L 146.0 137.0 L 147.0 137.0 L 148.0 137.0 L 148.0 137.0 L 149.0 137.0 L 150.0 137.0 L 151.0 137.0 L 152.0 137.0 L 153.0 137.0 L 154.0 137.0 L 155.0 137.0 L 155.0 137.0 L 156.0 137.0 L 157.0 137.0 L 158.0 137.0 L 159.0 137.0 L 160.0 136.0 L 161.0 136.0 L 162.0 136.0 L 163.0 136.0 L 164.0 136.0 L 165.0 136.0 L 166.0 136.0 L 167.0 136.0 L 168.0 136.0 L 170.0 136.0 L 171.0 136.0 L 172.0 136.0 L 174.0 136.0 L 175.0 136.0 L 177.0 136.0 L 178.0 136.0 L 180.0 136.0 L 181.0 136.0 L 182.0 136.0 L 184.0 136.0 L 185.0 136.0 L 186.0 136.0 L 187.0 136.0 L 189.0 136.0 L 190.0 136.0 L 191.0 136.0 L 191.0 136.0 L 192.0 136.0 L 193.0 136.0 L 193.0 136.0 L 194.0 136.0 L 194.0 136.0 L 195.0 136.0 L 195.0 136.0 L 196.0 136.0 L 196.0 137.0 L 197.0 137.0 L 197.0 137.0 L 198.0 137.0 L 198.0 137.0 L 198.0 137.0 L 199.0 138.0 L 199.0 138.0 L 199.0 138.0 L 200.0 139.0 L 200.0 139.0 L 200.0 140.0 L 200.0 140.0 L 200.0 141.0 L 201.0 142.0 L 201.0 142.0 L 201.0 143.0 L 201.0 144.0 L 201.0 145.0 L 201.0 146.0 L 201.0 147.0 L 201.0 148.0 L 201.0 150.0 L 201.0 152.0 L 201.0 154.0 L 201.0 155.0 L 201.0 158.0 L 201.0 160.0 L 201.0 162.0 L 201.0 165.0 L 201.0 168.0 L 201.0 171.0 L 201.0 174.0 L 200.0 178.0 L 200.0 182.0 L 200.0 186.0 L 200.0 190.0 L 200.0 193.0 L 200.0 195.0 L 200.0 197.0 L 200.0 199.0 L 200.0 201.0 L 200.0 203.0 L 200.0 206.0 L 200.0 208.0 L 199.0 211.0 L 199.0 214.0 L 198.0 218.0 L 198.0 222.0 L 198.0 225.0 L 198.0 229.0 L 197.0 232.0 L 197.0 234.0 L 197.0 237.0 L 197.0 239.0 L 197.0 241.0 L 197.0 243.0 L 197.0 245.0 L 197.0 247.0 L 197.0 248.0 L 197.0 249.0 L 197.0 250.0 L 197.0 250.0 L 197.0 250.0 L 197.0 250.0 L 196.0 250.0 L 196.0 250.0 L 196.0 250.0 " stroke="black" fill="none" stroke-width="5.0" stroke-linecap="round" stroke-linejoin="round" />
<path d="M 103.0 181.0 L 103.0 181.0 L 102.0 181.0 L 102.0 181.0 L 101.0 181.0 L 101.0 181.0 L 101.0 181.0 L 101.0 181.0 L 101.0 181.0 L 101.0 181.0 L 101.0 180.0 L 102.0 180.0 L 102.0 180.0 L 103.0 179.0 L 104.0 179.0 L 105.0 179.0 L 106.0 179.0 L 108.0 179.0 L 109.0 179.0 L 110.0 180.0 L 112.0 180.0 L 113.0 180.0 L 115.0 180.0 L 117.0 181.0 L 119.0 181.0 L 121.0 181.0 L 123.0 182.0 L 125.0 182.0 L 128.0 182.0 L 130.0 183.0 L 132.0 183.0 L 134.0 183.0 L 136.0 183.0 L 138.0 183.0 L 139.0 183.0 L 141.0 183.0 L 142.0 183.0 L 144.0 183.0 L 145.0 183.0 L 146.0 183.0 L 148.0 183.0 L 149.0 183.0 L 150.0 183.0 L 151.0 183.0 L 152.0 183.0 L 152.0 183.0 L 153.0 183.0 L 154.0 183.0 L 154.0 183.0 L 155.0 183.0 L 156.0 183.0 L 157.0 183.0 L 158.0 183.0 L 159.0 183.0 L 160.0 183.0 L 161.0 183.0 L 162.0 183.0 L 164.0 183.0 L 166.0 183.0 L 167.0 183.0 L 169.0 183.0 L 171.0 183.0 L 173.0 182.0 L 174.0 182.0 L 176.0 182.0 L 178.0 182.0 L 179.0 181.0 L 181.0 181.0 L 182.0 181.0 L 184.0 181.0 L 185.0 181.0 L 187.0 181.0 L 188.0 181.0 L 190.0 180.0 L 191.0 180.0 L 192.0 180.0 L 194.0 180.0 L 195.0 180.0 L 196.0 180.0 L 196.0 180.0 L 197.0 180.0 L 198.0 180.0 L 199.0 180.0 L 200.0 180.0 L 200.0 180.0 L 201.0 180.0 L 202.0 180.0 L 202.0 180.0 L 202.0 181.0 " stroke="black" fill="none" stroke-width="5.0" stroke-linecap="round" stroke-linejoin="round" />
<path d="M 105.0 242.0 L 105.0 242.0 L 104.0 242.0 L 104.0 242.0 L 103.0 242.0 L 103.0 242.0 L 102.0 242.0 L 102.0 242.0 L 102.0 242.0 L 102.0 242.0 L 102.0 242.0 L 102.0 242.0 L 102.0 242.0 L 103.0 242.0 L 103.0 242.0 L 105.0 242.0 L 106.0 242.0 L 107.0 242.0 L 108.0 242.0 L 110.0 242.0 L 112.0 242.0 L 114.0 242.0 L 116.0 242.0 L 118.0 242.0 L 121.0 242.0 L 124.0 242.0 L 126.0 242.0 L 129.0 242.0 L 132.0 242.0 L 134.0 242.0 L 136.0 242.0 L 139.0 242.0 L 141.0 241.0 L 143.0 241.0 L 144.0 241.0 L 146.0 241.0 L 147.0 241.0 L 148.0 240.0 L 149.0 240.0 L 150.0 240.0 L 151.0 240.0 L 152.0 240.0 L 153.0 240.0 L 154.0 240.0 L 155.0 240.0 L 156.0 240.0 L 157.0 240.0 L 158.0 240.0 L 159.0 240.0 L 160.0 240.0 L 162.0 240.0 L 163.0 240.0 L 165.0 240.0 L 166.0 240.0 L 168.0 240.0 L 169.0 240.0 L 171.0 240.0 L 172.0 240.0 L 174.0 240.0 L 175.0 240.0 L 177.0 240.0 L 178.0 240.0 L 179.0 240.0 L 181.0 240.0 L 182.0 241.0 L 184.0 241.0 L 186.0 241.0 L 188.0 241.0 L 189.0 241.0 L 191.0 241.0 L 193.0 241.0 L 194.0 241.0 L 195.0 241.0 L 196.0 241.0 L 197.0 241.0 L 197.0 241.0 L 197.0 241.0 L 198.0 241.0 L 198.0 242.0 " stroke="black" fill="none" stroke-width="5.0" stroke-linecap="round" stroke-linejoin="round" />
</svg>