<svg xmlns="http://www.w3.org/2000/svg" width="300" height="300" viewBox="0 0 300 300">
<path d="M 84.0 83.0 L 84.0 83.0 L 84.0 83.0 L 84.0 83.0 L 84.0 83.0 L 84.0 83.0 L 84.0 83.0 L 84.0 83.0 L 84.0 83.0 L 84.0 83.0 L 84.0 83.0 L 84.0 83.0 L 84.0 83.0 L 84.0 83.0 L 84.0 83.0 L 84.0 83.0 L 84.0 83.0 L 84.0 83.0 L 84.0 83.0 L 85.0 83.0 L 85.0 83.0 L 85.0 83.0 L 85.0 83.0 L 85.0 83.0 L 86.0 83.0 L 86.0 83.0 L 86.0 83.0 L 87.0 83.0 L 87.0 83.0 L 88.0 83.0 L 88.0 83.0 L 89.0 83.0 L 89.0 83.0 L 90.0 83.0 L 90.0 83.0 L 91.0 83.0 L 91.0 83.0 L 92.0 83.0 L 92.0 83.0 L 93.0 83.0 L 93.0 83.0 L 94.0 83.0 L 94.0 83.0 L 95.0 83.0 L 95.0 83.0 L 96.0 83.0 L 96.0 83.0 L 97.0 83.0 L 97.0 83.0 L 98.0 83.0 L 98.0 83.0 L 99.0 83.0 L 99.0 83.0 L 100.0 83.0 L 100.0 83.0 L 101.0 83.0 L 101.0 83.0 L 102.0 83.0 L 102.0 83.0 L 103.0 83.0 L 103.0 83.0 L 104.0 83.0 L 104.0 83.0 L 105.0 83.0 L 105.0 83.0 L 105.0 83.0 L 106.0 82.0 L 106.0 82.0 L 107.0 82.0 L 107.0 82.0 L 107.0 82.0 L 108.0 82.0 L 108.0 82.0 L 108.0 82.0 L 108.0 82.0 L 109.0 82.0 L 109.0 82.0 L 109.0 82.0 L 110.0 82.0 L 110.0 82.0 L 110.0 82.0 L 111.0 82.0 L 111.0 82.0 L 111.0 81.0 L 112.0 81.0 L 112.0 81.0 L 112.0 81.0 L 113.0 81.0 L 113.0 81.0 L 113.0 81.0 L 114.0 81.0 L 114.0 81.0 L 115.0 81.0 L 115.0 81.0 L 116.0 81.0 L 116.0 81.0 L 117.0 81.0 L 117.0 81.0 L 118.0 81.0 L 119.0 81.0 L 119.0 81.0 L 120.0 81.0 L 121.0 81.0 L 122.0 81.0 L 123.0 81.0 L 124.0 81.0 L 125.0 81.0 L 126.0 81.0 L 127.0 81.0 L 128.0 81.0 L 129.0 81.0 L 130.0 81.0 L 130.0 81.0 L 131.0 81.0 L 132.0 81.0 L 133.0 81.0 L 133.0 81.0 L 134.0 81.0 L 135.0 81.0 L 135.0 81.0 L 136.0 81.0 L 136.0 81.0 L 137.0 81.0 L 137.0 81.0 L 137.0 81.0 L 138.0 81.0 L 138.0 81.0 L 139.0 81.0 L 139.0 81.0 L 140.0 81.0 L 140.0 81.0 L 141.0 81.0 L 141.0 81.0 L 142.0 81.0 L 143.0 81.0 L 143.0 81.0 L 144.0 81.0 L 144.0 81.0 L 145.0 81.0 L 145.0 81.0 L 146.0 81.0 L 146.0 81.0 L 147.0 81.0 L 147.0 81.0 L 148.0 81.0 L 148.0 81.0 L 148.0 81.0 L 149.0 81.0 L 149.0 81.0 L 149.0 81.0 L 150.0 81.0 L 150.0 80.0 L 150.0 80.0 L 151.0 80.0 L 151.0 80.0 L 151.0 80.0 L 152.0 80.0 L 152.0 80.0 L 152.0 80.0 L 153.0 80.0 L 153.0 80.0 L 153.0 80.0 L 154.0 80.0 L 154.0 80.0 L 155.0 80.0 L 155.0 80.0 L 155.0 80.0 L 156.0 80.0 L 156.0 80.0 L 157.0 80.0 L 157.0 80.0 L 157.0 80.0 L 158.0 80.0 L 158.0 80.0 L 159.0 80.0 L 159.0 80.0 L 159.0 80.0 L 160.0 80.0 L 160.0 80.0 L 161.0 80.0 L 161.0 80.0 L 162.0 80.0 L 162.0 80.0 L 163.0 80.0 L 163.0 80.0 L 164.0 80.0 L 164.0 80.0 L 165.0 80.0 L 165.0 80.0 L 166.0 80.0 L 166.0 80.0 L 167.0 80.0 L 167.0 80.0 L 168.0 80.0 L 169.0 80.0 L 169.0 80.0 L 170.0 80.0 L 170.0 80.0 L 171.0 80.0 L 172.0 80.0 L 172.0 80.0 L 173.0 79.0 L 174.0 79.0 L 174.0 79.0 L 175.0 79.0 L 176.0 79.0 L 177.0 79.0 L 177.0 79.0 L 178.0 79.0 L 179.0 79.0 L 180.0 79.0 L 181.0 79.0 L 181.0 79.0 L 182.0 79.0 L 183.0 79.0 L 184.0 79.0 L 184.0 79.0 L 185.0 79.0 L 186.0 79.0 L 186.0 79.0 L 187.0 79.0 L 187.0 79.0 L 188.0 79.0 L 188.0 79.0 L 189.0 79.0 L 189.0 79.0 L 190.0 79.0 L 190.0 79.0 L 191.0 79.0 L 191.0 79.0 L 192.0 79.0 L 192.0 79.0 L 192.0 79.0 L 193.0 79.0 L 193.0 79.0 L 193.0 79.0 L 194.0 79.0 L 194.0 79.0 L 194.0 79.0 L 194.0 79.0 L 195.0 79.0 L 195.0 79.0 L 195.0 79.0 L 195.0 79.0 L 196.0 79.0 L 196.0 79.0 L 196.0 79.0 L 196.0 79.0 L 196.0 80.0 L 197.0 80.0 L 197.0 80.0 L 197.0 80.0 L 198.0 80.0 L 198.0 80.0 L 198.0 80.0 L 198.0 80.0 L 199.0 80.0 L 199.0 80.0 L 199.0 80.0 L 200.0 80.0 L 200.0 80.0 L 200.0 80.0 L 201.0 80.0 L 201.0 80.0 L 202.0 80.0 L 202.0 80.0 L 202.0 80.0 L 203.0 80.0 L 203.0 80.0 L 203.0 80.0 L 204.0 80.0 L 204.0 80.0 L 205.0 80.0 L 205.0 80.0 L 205.0 80.0 L 206.0 80.0 L 206.0 80.0 L 206.0 80.0 L 207.0 80.0 L 207.0 80.0 L 208.0 80.0 L 208.0 80.0 L 208.0 80.0 L 209.0 80.0 L 209.0 80.0 L 209.0 80.0 L 209.0 80.0 L 210.0 80.0 L 210.0 80.0 L 210.0 80.0 L 211.0 80.0 L 211.0 80.0 L 212.0 80.0 L 212.0 80.0 L 212.0 80.0 L 212.0 80.0 L 213.0 80.0 L 213.0 80.0 L 214.0 80.0 L 214.0 80.0 L 214.0 80.0 L 215.0 80.0 L 215.0 80.0 L 215.0 80.0 L 216.0 80.0 L 216.0 80.0 L 216.0 80.0 L 216.0 80.0 L 217.0 80.0 L 217.0 80.0 L 217.0 80.0 L 218.0 80.0 L 218.0 80.0 L 218.0 80.0 L 218.0 80.0 L 218.0 80.0 L 219.0 80.0 L 219.0 80.0 L 219.0 80.0 L 219.0 80.0 L 219.0 80.0 L 219.0 80.0 L 219.0 80.0 L 219.0 80.0 L 220.0 80.0 L 220.0 80.0 L 220.0 80.0 L 220.0 81.0 L 220.0 81.0 L 220.0 81.0 L 220.0 81.0 L 220.0 81.0 L 220.0 82.0 L 220.0 82.0 L 220.0 82.0 L 220.0 83.0 L 220.0 83.0 L 220.0 84.0 L 220.0 85.0 L 220.0 86.0 L 220.0 87.0 L 220.0 88.0 L 219.0 89.0 L 219.0 91.0 L 219.0 92.0 L 219.0 94.0 L 219.0 95.0 L 219.0 97.0 L 219.0 98.0 L 219.0 100.0 L 219.0 102.0 L 219.0 104.0 L 219.0 106.0 L 219.0 108.0 L 219.0 110.0 L 219.0 111.0 L 219.0 113.0 L 219.0 114.0 L 219.0 115.0 L 219.0 116.0 L 219.0 117.0 L 218.0 118.0 L 218.0 118.0 L 218.0 119.0 L 218.0 120.0 L 218.0 120.0 L 218.0 121.0 L 218.0 121.0 L 218.0 121.0 L 218.0 121.0 L 218.0 121.0 L 218.0 121.0 L 218.0 121.0 L 218.0 121.0 L 218.0 121.0 L 218.0 120.0 L 219.0 119.0 L 219.0 118.0 " stroke="black" fill="none" stroke-width="5.0" stroke-linecap="round" stroke-linejoin="round" />
<path d="M 152.0 82.0 L 152.0 82.0 L 152.0 82.0 L 152.0 82.0 L 152.0 82.0 L 152.0 82.0 L 152.0 82.0 L 152.0 83.0 L 152.0 84.0 L 152.0 85.0 L 152.0 88.0 L 152.0 91.0 L 152.0 96.0 L 152.0 101.0 L 152.0 107.0 L 152.0 112.0 L 152.0 116.0 L 152.0 119.0 L 152.0 121.0 L 152.0 122.0 L 152.0 122.0 L 153.0 122.0 L 153.0 121.0 " stroke="black" fill="none" stroke-width="5.0" stroke-linecap="round" stroke-linejoin="round" />
<path d="M 87.0 123.0 L 87.0 123.0 L 87.0 123.0 L 87.0 123.0 L 87.0 123.0 L 87.0 123.0 L 88.0 123.0 L 88.0 123.0 L 88.0 123.0 L 88.0 123.0 L 88.0 123.0 L 89.0 123.0 L 89.0 123.0 L 89.0 123.0 L 89.0 123.0 L 90.0 123.0 L 90.0 123.0 L 90.0 123.0 L 91.0 123.0 L 91.0 123.0 L 92.0 123.0 L 93.0 123.0 L 94.0 123.0 L 95.0 123.0 L 96.0 123.0 L 96.0 123.0 L 97.0 123.0 L 98.0 123.0 L 99.0 123.0 L 100.0 123.0 L 101.0 123.0 L 102.0 124.0 L 102.0 124.0 L 103.0 124.0 L 104.0 124.0 L 105.0 124.0 L 105.0 124.0 L 106.0 124.0 L 107.0 124.0 L 107.0 124.0 L 108.0 124.0 L 109.0 124.0 L 109.0 124.0 L 110.0 124.0 L 111.0 124.0 L 112.0 124.0 L 112.0 124.0 L 113.0 124.0 L 114.0 124.0 L 115.0 124.0 L 115.0 124.0 L 116.0 124.0 L 117.0 124.0 L 118.0 125.0 L 118.0 125.0 L 119.0 125.0 L 119.0 125.0 L 120.0 125.0 L 121.0 125.0 L 122.0 125.0 L 122.0 125.0 L 123.0 125.0 L 124.0 125.0 L 125.0 125.0 L 125.0 125.0 L 126.0 125.0 L 127.0 125.0 L 127.0 125.0 L 128.0 125.0 L 128.0 125.0 L 129.0 125.0 L 129.0 125.0 L 130.0 125.0 L 131.0 125.0 L 131.0 125.0 L 132.0 125.0 L 133.0 125.0 L 134.0 125.0 L 134.0 125.0 L 135.0 125.0 L 136.0 125.0 L 136.0 125.0 L 137.0 125.0 L 138.0 125.0 L 138.0 125.0 L 139.0 125.0 L 139.0 125.0 L 140.0 125.0 L 140.0 125.0 L 141.0 125.0 L 141.0 125.0 L 142.0 125.0 L 143.0 125.0 L 143.0 125.0 L 144.0 125.0 L 144.0 125.0 L 145.0 125.0 L 145.0 125.0 L 146.0 125.0 L 146.0 125.0 L 146.0 125.0 L 147.0 125.0 L 148.0 125.0 L 148.0 125.0 L 148.0 125.0 L 149.0 124.0 L 149.0 124.0 L 149.0 124.0 L 150.0 124.0 L 150.0 124.0 L 150.0 124.0 L 151.0 124.0 L 151.0 124.0 L 152.0 124.0 L 152.0 124.0 L 152.0 124.0 L 152.0 124.0 L 153.0 124.0 L 153.0 124.0 L 153.0 124.0 L 154.0 124.0 L 154.0 124.0 L 154.0 124.0 L 155.0 124.0 L 155.0 124.0 L 155.0 124.0 L 155.0 124.0 L 156.0 124.0 L 156.0 124.0 L 157.0 124.0 L 157.0 124.0 L 157.0 124.0 L 158.0 124.0 L 158.0 124.0 L 158.0 124.0 L 159.0 124.0 L 159.0 124.0 L 160.0 124.0 L 160.0 124.0 L 161.0 124.0 L 162.0 124.0 L 162.0 124.0 L 163.0 124.0 L 164.0 124.0 L 164.0 124.0 L 165.0 124.0 L 166.0 124.0 L 167.0 124.0 L 167.0 124.0 L 168.0 124.0 L 169.0 124.0 L 169.0 124.0 L 170.0 124.0 L 171.0 124.0 L 171.0 124.0 L 172.0 124.0 L 173.0 123.0 L 173.0 123.0 L 174.0 123.0 L 175.0 123.0 L 175.0 123.0 L 176.0 123.0 L 177.0 123.0 L 177.0 123.0 L 178.0 123.0 L 178.0 123.0 L 179.0 123.0 L 179.0 123.0 L 180.0 123.0 L 180.0 123.0 L 181.0 123.0 L 181.0 123.0 L 182.0 123.0 L 182.0 123.0 L 183.0 123.0 L 183.0 123.0 L 184.0 123.0 L 184.0 123.0 L 184.0 123.0 L 185.0 123.0 L 185.0 123.0 L 185.0 123.0 L 186.0 123.0 L 186.0 123.0 L 187.0 123.0 L 187.0 123.0 L 187.0 123.0 L 188.0 123.0 L 188.0 123.0 L 189.0 123.0 L 189.0 123.0 L 189.0 123.0 L 190.0 123.0 L 190.0 123.0 L 191.0 123.0 L 191.0 123.0 L 191.0 122.0 L 192.0 122.0 L 192.0 122.0 L 192.0 122.0 L 193.0 122.0 L 193.0 122.0 L 193.0 122.0 L 194.0 122.0 L 194.0 122.0 L 195.0 122.0 L 195.0 122.0 L 195.0 122.0 L 196.0 122.0 L 196.0 122.0 L 197.0 122.0 L 197.0 122.0 L 198.0 122.0 L 198.0 122.0 L 199.0 122.0 L 200.0 122.0 L 200.0 122.0 L 201.0 122.0 L 202.0 122.0 L 204.0 122.0 L 205.0 122.0 L 206.0 122.0 L 207.0 122.0 L 208.0 122.0 L 210.0 122.0 L 211.0 122.0 L 212.0 122.0 L 213.0 122.0 L 214.0 122.0 L 216.0 122.0 L 217.0 122.0 L 218.0 121.0 L 219.0 121.0 L 219.0 121.0 L 219.0 121.0 L 220.0 121.0 L 220.0 121.0 " stroke="black" fill="none" stroke-width="5.0" stroke-linecap="round" stroke-linejoin="round" />
<path d="M 83.0 81.0 L 83.0 81.0 L 83.0 81.0 L 83.0 81.0 L 83.0 82.0 L 83.0 82.0 L 83.0 82.0 L 83.0 82.0 L 84.0 82.0 L 84.0 82.0 L 84.0 82.0 L 84.0 83.0 L 84.0 83.0 L 85.0 83.0 L 85.0 84.0 L 85.0 84.0 L 85.0 85.0 L 85.0 86.0 L 85.0 88.0 L 85.0 89.0 L 85.0 91.0 L 85.0 93.0 L 85.0 95.0 L 85.0 98.0 L 85.0 100.0 L 85.0 102.0 L 85.0 105.0 L 85.0 107.0 L 85.0 108.0 L 85.0 110.0 L 85.0 112.0 L 85.0 114.0 L 85.0 115.0 L 85.0 117.0 L 85.0 118.0 L 85.0 120.0 L 84.0 122.0 L 84.0 123.0 L 84.0 125.0 L 84.0 127.0 L 84.0 128.0 L 84.0 130.0 L 84.0 131.0 L 83.0 133.0 L 83.0 134.0 L 83.0 136.0 L 83.0 137.0 L 83.0 139.0 L 83.0 141.0 L 83.0 143.0 L 83.0 144.0 L 83.0 146.0 L 82.0 147.0 L 82.0 149.0 L 82.0 150.0 L 82.0 151.0 L 81.0 153.0 L 81.0 154.0 L 81.0 155.0 L 80.0 157.0 L 80.0 158.0 L 80.0 159.0 L 80.0 161.0 L 80.0 162.0 L 79.0 164.0 L 79.0 166.0 L 78.0 168.0 L 78.0 169.0 L 78.0 171.0 L 78.0 173.0 L 78.0 174.0 L 78.0 176.0 L 78.0 177.0 L 78.0 178.0 L 78.0 180.0 L 78.0 181.0 L 78.0 182.0 L 78.0 184.0 L 78.0 185.0 L 78.0 186.0 L 77.0 188.0 L 77.0 189.0 L 77.0 190.0 L 77.0 191.0 L 76.0 192.0 L 76.0 193.0 L 76.0 194.0 L 76.0 195.0 L 76.0 196.0 L 76.0 196.0 L 75.0 197.0 L 75.0 198.0 L 75.0 199.0 L 75.0 200.0 L 75.0 200.0 L 75.0 201.0 L 74.0 202.0 L 74.0 203.0 L 74.0 204.0 L 74.0 204.0 L 74.0 205.0 L 74.0 206.0 L 73.0 207.0 L 73.0 208.0 L 73.0 209.0 L 73.0 209.0 L 73.0 210.0 L 73.0 211.0 L 72.0 212.0 L 72.0 213.0 L 72.0 214.0 L 72.0 215.0 L 71.0 216.0 L 71.0 217.0 L 71.0 218.0 L 70.0 219.0 L 70.0 220.0 L 69.0 221.0 L 69.0 222.0 L 69.0 223.0 L 68.0 224.0 L 68.0 225.0 L 68.0 227.0 L 67.0 228.0 L 67.0 229.0 L 66.0 230.0 L 66.0 231.0 L 66.0 232.0 L 65.0 233.0 L 65.0 234.0 L 65.0 235.0 L 64.0 236.0 L 64.0 237.0 L 64.0 238.0 L 63.0 239.0 L 63.0 239.0 L 62.0 240.0 L 62.0 241.0 L 62.0 241.0 L 62.0 241.0 " stroke="black" fill="none" stroke-width="5.0" stroke-linecap="round" stroke-linejoin="round" />
<path d="M 112.0 151.0 L 112.0 151.0 L 112.0 150.0 L 112.0 150.0 L 112.0 149.0 L 112.0 149.0 L 112.0 148.0 L 113.0 148.0 L 113.0 148.0 L 113.0 148.0 L 113.0 148.0 L 113.0 148.0 L 113.0 150.0 L 113.0 151.0 L 113.0 153.0 L 113.0 155.0 L 113.0 157.0 L 113.0 159.0 L 113.0 161.0 L 113.0 164.0 L 113.0 166.0 L 113.0 168.0 L 113.0 171.0 L 113.0 173.0 L 113.0 176.0 L 113.0 178.0 L 113.0 180.0 L 113.0 183.0 L 113.0 185.0 L 113.0 187.0 L 113.0 189.0 L 113.0 191.0 L 113.0 193.0 L 113.0 194.0 L 113.0 195.0 L 113.0 196.0 L 113.0 198.0 L 113.0 198.0 L 113.0 199.0 L 113.0 200.0 L 113.0 201.0 L 113.0 202.0 L 113.0 203.0 L 113.0 204.0 L 113.0 205.0 L 113.0 207.0 L 113.0 208.0 L 113.0 209.0 L 113.0 210.0 L 113.0 211.0 L 113.0 212.0 L 114.0 213.0 L 114.0 214.0 L 114.0 215.0 L 114.0 217.0 L 114.0 218.0 L 114.0 219.0 L 114.0 221.0 L 114.0 222.0 L 114.0 223.0 L 114.0 225.0 L 114.0 226.0 L 114.0 228.0 L 114.0 229.0 L 114.0 231.0 L 114.0 232.0 L 114.0 234.0 L 114.0 236.0 L 114.0 238.0 L 114.0 240.0 L 114.0 242.0 L 114.0 244.0 L 114.0 245.0 L 114.0 247.0 L 114.0 248.0 L 114.0 250.0 L 114.0 251.0 L 114.0 252.0 L 114.0 253.0 L 114.0 253.0 " stroke="black" fill="none" stroke-width="5.0" stroke-linecap="round" stroke-linejoin="round" />
<path d="M 114.0 146.0 L 114.0 146.0 L 114.0 146.0 L 114.0 146.0 L 113.0 146.0 L 113.0 146.0 L 113.0 146.0 L 113.0 146.0 L 113.0 146.0 L 113.0 146.0 L 113.0 146.0 L 113.0 146.0 L 113.0 146.0 L 113.0 146.0 L 113.0 146.0 L 113.0 146.0 L 113.0 146.0 L 113.0 146.0 L 114.0 146.0 L 114.0 146.0 L 114.0 146.0 L 115.0 146.0 L 116.0 146.0 L 116.0 146.0 L 117.0 146.0 L 118.0 146.0 L 118.0 146.0 L 119.0 146.0 L 120.0 146.0 L 121.0 146.0 L 121.0 146.0 L 122.0 147.0 L 123.0 147.0 L 124.0 147.0 L 125.0 147.0 L 126.0 147.0 L 126.0 148.0 L 127.0 148.0 L 128.0 148.0 L 129.0 148.0 L 130.0 148.0 L 131.0 148.0 L 132.0 148.0 L 133.0 148.0 L 133.0 148.0 L 134.0 148.0 L 135.0 148.0 L 136.0 148.0 L 137.0 148.0 L 137.0 148.0 L 138.0 148.0 L 139.0 149.0 L 140.0 149.0 L 141.0 149.0 L 142.0 149.0 L 143.0 149.0 L 143.0 149.0 L 144.0 149.0 L 145.0 149.0 L 146.0 149.0 L 147.0 149.0 L 148.0 149.0 L 149.0 149.0 L 149.0 149.0 L 150.0 149.0 L 151.0 149.0 L 151.0 149.0 L 152.0 149.0 L 152.0 149.0 L 153.0 149.0 L 154.0 149.0 L 154.0 149.0 L 155.0 148.0 L 155.0 148.0 L 156.0 148.0 L 156.0 148.0 L 157.0 148.0 L 157.0 148.0 L 157.0 148.0 L 158.0 148.0 L 158.0 148.0 L 158.0 148.0 L 159.0 148.0 L 159.0 148.0 L 160.0 148.0 L 160.0 148.0 L 161.0 148.0 L 161.0 148.0 L 162.0 148.0 L 162.0 148.0 L 163.0 148.0 L 164.0 148.0 L 164.0 148.0 L 165.0 148.0 L 166.0 148.0 L 167.0 148.0 L 167.0 148.0 L 168.0 148.0 L 169.0 148.0 L 170.0 148.0 L 170.0 148.0 L 171.0 148.0 L 172.0 148.0 L 172.0 148.0 L 173.0 148.0 L 174.0 148.0 L 175.0 148.0 L 175.0 149.0 L 176.0 149.0 L 177.0 149.0 L 177.0 149.0 L 178.0 149.0 L 179.0 149.0 L 180.0 149.0 L 180.0 149.0 L 181.0 149.0 L 182.0 149.0 L 182.0 149.0 L 183.0 149.0 L 184.0 149.0 L 184.0 149.0 L 185.0 149.0 L 186.0 149.0 L 187.0 149.0 L 187.0 149.0 L 188.0 149.0 L 189.0 149.0 L 189.0 149.0 L 190.0 149.0 L 190.0 149.0 L 191.0 149.0 L 191.0 149.0 L 192.0 149.0 L 192.0 149.0 L 193.0 149.0 L 193.0 149.0 L 194.0 149.0 L 194.0 149.0 L 194.0 149.0 L 195.0 149.0 L 195.0 149.0 L 195.0 149.0 L 196.0 150.0 L 196.0 150.0 L 196.0 150.0 L 196.0 150.0 L 196.0 150.0 L 197.0 151.0 L 197.0 151.0 L 197.0 151.0 L 197.0 151.0 L 198.0 151.0 L 198.0 151.0 L 198.0 151.0 L 198.0 151.0 L 199.0 151.0 L 199.0 152.0 L 199.0 152.0 L 200.0 152.0 L 200.0 152.0 L 200.0 152.0 L 200.0 152.0 L 201.0 152.0 L 201.0 152.0 L 202.0 152.0 L 202.0 152.0 L 203.0 152.0 L 203.0 152.0 L 204.0 152.0 L 204.0 152.0 L 204.0 152.0 L 205.0 152.0 L 205.0 151.0 L 205.0 151.0 L 206.0 151.0 L 206.0 151.0 L 207.0 151.0 L 207.0 151.0 L 208.0 151.0 L 208.0 151.0 L 209.0 151.0 L 209.0 151.0 L 210.0 151.0 L 210.0 151.0 L 211.0 151.0 L 211.0 151.0 L 212.0 151.0 L 212.0 151.0 L 213.0 151.0 L 213.0 151.0 L 214.0 151.0 L 214.0 151.0 L 215.0 151.0 L 215.0 151.0 L 216.0 151.0 L 216.0 151.0 L 217.0 151.0 L 218.0 151.0 L 218.0 151.0 L 219.0 151.0 L 219.0 151.0 L 219.0 151.0 L 220.0 151.0 L 220.0 151.0 L 221.0 151.0 L 221.0 151.0 L 221.0 151.0 L 221.0 151.0 L 221.0 151.0 L 222.0 151.0 L 222.0 152.0 L 222.0 153.0 L 222.0 153.0 L 222.0 155.0 L 222.0 156.0 L 222.0 158.0 L 222.0 160.0 L 222.0 162.0 L 222.0 164.0 L 222.0 166.0 L 222.0 169.0 L 222.0 171.0 L 222.0 173.0 L 221.0 176.0 L 221.0 178.0 L 221.0 180.0 L 221.0 183.0 L 221.0 186.0 L 221.0 188.0 L 221.0 191.0 L 221.0 193.0 L 221.0 195.0 L 222.0 198.0 L 222.0 200.0 L 222.0 202.0 L 222.0 204.0 L 222.0 206.0 L 222.0 207.0 L 222.0 209.0 L 222.0 211.0 L 222.0 213.0 L 222.0 214.0 L 222.0 216.0 L 222.0 217.0 L 222.0 219.0 L 222.0 221.0 L 222.0 222.0 L 222.0 225.0 L 222.0 227.0 L 222.0 229.0 L 222.0 231.0 L 222.0 233.0 L 222.0 235.0 L 222.0 237.0 L 222.0 239.0 L 222.0 240.0 L 222.0 242.0 L 222.0 243.0 L 222.0 244.0 L 222.0 246.0 L 222.0 247.0 L 222.0 247.0 L 222.0 248.0 L 222.0 248.0 L 222.0 248.0 L 222.0 248.0 L 222.0 248.0 L 222.0 248.0 L 222.0 246.0 L 222.0 244.0 L 222.0 242.0 " stroke="black" fill="none" stroke-width="5.0" stroke-linecap="round" stroke-linejoin="round" />
<path d="M 121.0 177.0 L 121.0 177.0 L 121.0 177.0 L 121.0 177.0 L 121.0 177.0 L 120.0 177.0 L 120.0 177.0 L 120.0 178.0 L 120.0 178.0 L 120.0 178.0 L 121.0 178.0 L 121.0 178.0 L 123.0 178.0 L 124.0 178.0 L 125.0 178.0 L 127.0 178.0 L 129.0 179.0 L 130.0 179.0 L 132.0 179.0 L 134.0 179.0 L 136.0 179.0 L 138.0 179.0 L 140.0 179.0 L 141.0 179.0 L 143.0 179.0 L 144.0 179.0 L 146.0 179.0 L 147.0 179.0 L 148.0 179.0 L 149.0 179.0 L 151.0 179.0 L 152.0 179.0 L 152.0 179.0 L 153.0 179.0 L 154.0 179.0 L 155.0 179.0 L 156.0 179.0 L 157.0 179.0 L 157.0 179.0 L 158.0 179.0 L 159.0 179.0 L 160.0 179.0 L 160.0 179.0 L 161.0 179.0 L 162.0 180.0 L 164.0 180.0 L 165.0 180.0 L 166.0 180.0 L 167.0 181.0 L 168.0 181.0 L 170.0 181.0 L 171.0 182.0 L 172.0 182.0 L 174.0 183.0 L 175.0 183.0 L 176.0 183.0 L 177.0 184.0 L 178.0 184.0 L 179.0 184.0 L 181.0 184.0 L 182.0 184.0 L 183.0 184.0 L 184.0 184.0 L 185.0 184.0 L 186.0 184.0 L 187.0 184.0 L 188.0 184.0 L 189.0 184.0 L 190.0 185.0 L 191.0 185.0 L 192.0 185.0 L 193.0 185.0 L 194.0 185.0 L 194.0 185.0 L 195.0 185.0 L 196.0 185.0 L 197.0 185.0 L 198.0 185.0 L 200.0 185.0 L 201.0 185.0 L 202.0 185.0 L 203.0 185.0 L 204.0 184.0 L 205.0 184.0 L 206.0 183.0 L 207.0 182.0 L 208.0 182.0 L 208.0 181.0 L 208.0 181.0 L 208.0 181.0 L 208.0 181.0 " stroke="black" fill="none" stroke-width="5.0" stroke-linecap="round" stroke-linejoin="round" />
<path d="M 116.0 209.0 L 116.0 209.0 L 115.0 210.0 L 115.0 211.0 L 114.0 211.0 L 114.0 211.0 L 114.0 212.0 L 114.0 212.0 L 114.0 212.0 L 114.0 212.0 L 114.0 212.0 L 115.0 212.0 L 116.0 212.0 L 117.0 212.0 L 118.0 212.0 L 118.0 212.0 L 119.0 212.0 L 120.0 212.0 L 121.0 212.0 L 121.0 212.0 L 122.0 212.0 L 123.0 212.0 L 124.0 212.0 L 125.0 212.0 L 126.0 212.0 L 127.0 212.0 L 128.0 212.0 L 128.0 212.0 L 129.0 212.0 L 130.0 212.0 L 131.0 212.0 L 132.0 212.0 L 133.0 212.0 L 134.0 212.0 L 135.0 211.0 L 136.0 211.0 L 137.0 211.0 L 139.0 211.0 L 140.0 211.0 L 141.0 210.0 L 142.0 210.0 L 143.0 210.0 L 144.0 209.0 L 145.0 209.0 L 146.0 209.0 L 147.0 209.0 L 148.0 209.0 L 149.0 208.0 L 149.0 208.0 L 150.0 208.0 L 150.0 208.0 L 151.0 208.0 L 151.0 208.0 L 151.0 208.0 L 152.0 208.0 L 152.0 208.0 L 153.0 208.0 L 153.0 208.0 L 153.0 208.0 L 154.0 208.0 L 155.0 208.0 L 155.0 208.0 L 155.0 208.0 L 156.0 208.0 L 156.0 208.0 L 157.0 208.0 L 157.0 208.0 L 158.0 208.0 L 158.0 208.0 L 159.0 208.0 L 159.0 208.0 L 160.0 208.0 L 160.0 208.0 L 160.0 208.0 L 161.0 208.0 L 161.0 209.0 L 162.0 209.0 L 162.0 209.0 L 163.0 209.0 L 163.0 209.0 L 164.0 209.0 L 164.0 209.0 L 164.0 209.0 L 165.0 209.0 L 165.0 209.0 L 166.0 209.0 L 166.0 209.0 L 167.0 209.0 L 167.0 209.0 L 168.0 209.0 L 168.0 209.0 L 169.0 209.0 L 170.0 209.0 L 170.0 209.0 L 171.0 209.0 L 172.0 209.0 L 173.0 209.0 L 174.0 209.0 L 175.0 209.0 L 176.0 209.0 L 177.0 209.0 L 178.0 209.0 L 179.0 209.0 L 180.0 209.0 L 182.0 209.0 L 183.0 210.0 L 184.0 210.0 L 184.0 210.0 L 185.0 210.0 L 186.0 210.0 L 187.0 210.0 L 188.0 210.0 L 189.0 210.0 L 190.0 210.0 L 191.0 210.0 L 192.0 210.0 L 193.0 210.0 L 193.0 210.0 L 194.0 211.0 L 195.0 211.0 L 196.0 211.0 L 196.0 211.0 L 197.0 211.0 L 198.0 211.0 L 199.0 211.0 L 200.0 211.0 L 201.0 211.0 L 202.0 211.0 L 203.0 211.0 L 204.0 211.0 L 206.0 210.0 L 207.0 210.0 L 209.0 209.0 L 210.0 209.0 L 210.0 209.0 L 211.0 209.0 L 212.0 209.0 L 212.0 209.0 " stroke="black" fill="none" stroke-width="5.0" stroke-linecap="round" stroke-linejoin="round" />
<path d="M 119.0 247.0 L 119.0 247.0 L 119.0 247.0 L 119.0 247.0 L 120.0 247.0 L 120.0 247.0 L 120.0 247.0 L 120.0 246.0 L 121.0 246.0 L 121.0 246.0 L 121.0 246.0 L 122.0 246.0 L 122.0 246.0 L 123.0 246.0 L 123.0 246.0 L 125.0 246.0 L 126.0 246.0 L 127.0 247.0 L 129.0 247.0 L 130.0 247.0 L 132.0 247.0 L 134.0 247.0 L 135.0 247.0 L 137.0 247.0 L 139.0 247.0 L 140.0 247.0 L 142.0 247.0 L 143.0 247.0 L 145.0 247.0 L 146.0 247.0 L 147.0 247.0 L 148.0 247.0 L 149.0 247.0 L 150.0 247.0 L 151.0 247.0 L 152.0 247.0 L 153.0 247.0 L 153.0 247.0 L 154.0 247.0 L 155.0 247.0 L 155.0 247.0 L 156.0 247.0 L 157.0 247.0 L 157.0 247.0 L 158.0 247.0 L 159.0 247.0 L 160.0 247.0 L 161.0 247.0 L 162.0 247.0 L 164.0 247.0 L 165.0 247.0 L 166.0 247.0 L 168.0 247.0 L 169.0 247.0 L 170.0 247.0 L 171.0 247.0 L 172.0 247.0 L 173.0 247.0 L 174.0 247.0 L 175.0 247.0 L 176.0 247.0 L 177.0 247.0 L 178.0 247.0 L 179.0 247.0 L 180.0 247.0 L 181.0 247.0 L 182.0 247.0 L 183.0 247.0 L 183.0 247.0 L 184.0 247.0 L 185.0 247.0 L 186.0 247.0 L 187.0 247.0 L 188.0 247.0 L 189.0 247.0 L 190.0 247.0 L 191.0 247.0 L 191.0 247.0 L 192.0 247.0 L 193.0 247.0 L 194.0 247.0 L 194.0 247.0 L 195.0 247.0 L 196.0 247.0 L 197.0 248.0 L 197.0 248.0 L 198.0 248.0 L 199.0 248.0 L 200.0 248.0 L 201.0 248.0 L 202.0 248.0 L 204.0 248.0 L 205.0 248.0 L 206.0 248.0 L 207.0 248.0 L 208.0 248.0 L 209.0 248.0 L 210.0 248.0 L 211.0 248.0 L 212.0 248.0 L 212.0 248.0 L 213.0 248.0 L 213.0 248.0 L 213.0 248.0 L 214.0 248.0 L 214.0 248.0 " stroke="black" fill="none" stroke-width="5.0" stroke-linecap="round" stroke-linejoin="round" />
</svg>