<svg xmlns="http://www.w3.org/2000/svg" width="300" height="300" viewBox="0 0 300 300">
<path d="M 71.0 91.0 L 71.0 91.0 L 71.0 91.0 L 70.0 91.0 L 69.0 91.0 L 69.0 91.0 L 68.0 92.0 L 68.0 94.0 L 68.0 96.0 L 68.0 101.0 L 68.0 106.0 L 68.0 113.0 L 68.0 120.0 L 69.0 128.0 L 70.0 138.0 L 70.0 148.0 L 70.0 158.0 L 70.0 169.0 L 70.0 180.0 L 70.0 191.0 L 70.0 201.0 L 70.0 208.0 L 69.0 214.0 L 69.0 218.0 L 69.0 220.0 L 68.0 221.0 " stroke="black" fill="none" stroke-width="5.0" stroke-linecap="round" stroke-linejoin="round" />
<path d="M 79.0 87.0 L 78.0 87.0 L 76.0 87.0 L 75.0 87.0 L 74.0 87.0 L 74.0 87.0 L 73.0 87.0 L 73.0 87.0 L 73.0 87.0 L 73.0 86.0 L 74.0 86.0 L 76.0 86.0 L 77.0 85.0 L 79.0 85.0 L 82.0 85.0 L 85.0 85.0 L 88.0 85.0 L 91.0 85.0 L 95.0 85.0 L 98.0 85.0 L 101.0 85.0 L 104.0 85.0 L 106.0 85.0 L 108.0 85.0 L 109.0 85.0 L 110.0 85.0 L 110.0 86.0 L 110.0 87.0 L 110.0 89.0 L 110.0 90.0 L 110.0 93.0 L 110.0 95.0 L 110.0 99.0 L 110.0 103.0 L 110.0 108.0 L 110.0 113.0 L 110.0 118.0 L 110.0 124.0 L 110.0 130.0 L 110.0 137.0 L 110.0 145.0 L 110.0 153.0 L 110.0 162.0 L 110.0 169.0 L 110.0 176.0 L 110.0 183.0 L 110.0 189.0 L 110.0 194.0 L 110.0 198.0 L 110.0 201.0 L 110.0 203.0 L 110.0 205.0 L 110.0 206.0 L 109.0 207.0 L 109.0 208.0 L 109.0 208.0 " stroke="black" fill="none" stroke-width="5.0" stroke-linecap="round" stroke-linejoin="round" />
<path d="M 75.0 130.0 L 74.0 130.0 L 73.0 130.0 L 72.0 130.0 L 71.0 130.0 L 71.0 130.0 L 71.0 131.0 L 72.0 131.0 L 75.0 131.0 L 78.0 131.0 L 84.0 131.0 L 90.0 131.0 L 96.0 130.0 L 101.0 130.0 L 107.0 129.0 L 111.0 129.0 L 114.0 129.0 L 115.0 129.0 " stroke="black" fill="none" stroke-width="5.0" stroke-linecap="round" stroke-linejoin="round" />
<path d="M 78.0 179.0 L 77.0 178.0 L 76.0 178.0 L 74.0 177.0 L 74.0 177.0 L 73.0 177.0 L 73.0 177.0 L 73.0 177.0 L 74.0 177.0 L 77.0 177.0 L 80.0 176.0 L 85.0 175.0 L 91.0 174.0 L 96.0 172.0 L 102.0 171.0 L 107.0 169.0 L 110.0 169.0 L 113.0 168.0 " stroke="black" fill="none" stroke-width="5.0" stroke-linecap="round" stroke-linejoin="round" />
<path d="M 75.0 210.0 L 74.0 210.0 L 73.0 210.0 L 72.0 210.0 L 71.0 210.0 L 71.0 210.0 L 72.0 210.0 L 73.0 210.0 L 76.0 209.0 L 79.0 209.0 L 84.0 208.0 L 89.0 207.0 L 94.0 206.0 L 99.0 205.0 L 104.0 203.0 " stroke="black" fill="none" stroke-width="5.0" stroke-linecap="round" stroke-linejoin="round" />
<path d="M 162.0 76.0 L 162.0 76.0 L 162.0 76.0 L 162.0 76.0 L 162.0 76.0 L 162.0 76.0 L 162.0 77.0 L 162.0 78.0 L 162.0 80.0 L 162.0 84.0 L 162.0 89.0 L 163.0 95.0 L 163.0 103.0 L 164.0 111.0 L 165.0 118.0 L 166.0 126.0 L 167.0 134.0 L 168.0 143.0 L 168.0 151.0 L 168.0 160.0 L 167.0 168.0 L 165.0 176.0 L 162.0 186.0 L 159.0 195.0 L 156.0 203.0 L 152.0 211.0 L 150.0 218.0 L 146.0 224.0 L 143.0 230.0 L 139.0 234.0 L 135.0 238.0 L 131.0 241.0 L 129.0 242.0 L 127.0 243.0 " stroke="black" fill="none" stroke-width="5.0" stroke-linecap="round" stroke-linejoin="round" />
<path d="M 133.0 120.0 L 133.0 120.0 L 132.0 119.0 L 132.0 119.0 L 132.0 119.0 L 132.0 119.0 L 132.0 119.0 L 132.0 119.0 L 134.0 120.0 L 137.0 123.0 L 140.0 125.0 L 143.0 128.0 L 146.0 131.0 L 149.0 134.0 L 152.0 138.0 L 154.0 142.0 L 156.0 146.0 L 157.0 148.0 " stroke="black" fill="none" stroke-width="5.0" stroke-linecap="round" stroke-linejoin="round" />
<path d="M 129.0 186.0 L 128.0 186.0 L 125.0 186.0 L 123.0 185.0 L 122.0 185.0 L 122.0 184.0 L 123.0 182.0 L 125.0 181.0 L 129.0 179.0 L 134.0 176.0 L 139.0 173.0 L 145.0 169.0 L 152.0 164.0 L 159.0 159.0 L 169.0 153.0 " stroke="black" fill="none" stroke-width="5.0" stroke-linecap="round" stroke-linejoin="round" />
<path d="M 200.0 80.0 L 200.0 80.0 L 200.0 79.0 L 200.0 78.0 L 200.0 78.0 L 200.0 77.0 L 200.0 77.0 L 199.0 78.0 L 199.0 80.0 L 199.0 82.0 L 198.0 86.0 L 198.0 90.0 L 198.0 95.0 L 197.0 101.0 L 197.0 106.0 L 197.0 111.0 L 196.0 117.0 L 196.0 122.0 L 196.0 127.0 L 195.0 133.0 L 194.0 138.0 L 194.0 144.0 L 193.0 150.0 L 193.0 155.0 L 193.0 159.0 L 192.0 164.0 L 192.0 167.0 L 192.0 171.0 L 191.0 174.0 L 191.0 176.0 L 191.0 178.0 L 190.0 180.0 L 190.0 182.0 L 190.0 184.0 L 190.0 187.0 L 190.0 190.0 L 189.0 192.0 L 189.0 195.0 L 189.0 198.0 L 189.0 200.0 L 189.0 203.0 L 188.0 205.0 L 188.0 207.0 L 188.0 209.0 L 188.0 211.0 L 187.0 213.0 L 187.0 215.0 L 187.0 216.0 L 187.0 218.0 L 186.0 220.0 L 186.0 222.0 L 186.0 224.0 L 186.0 225.0 L 186.0 227.0 L 186.0 228.0 L 186.0 230.0 L 186.0 231.0 L 186.0 232.0 L 186.0 233.0 L 186.0 234.0 L 186.0 235.0 L 186.0 236.0 L 186.0 236.0 L 186.0 237.0 L 186.0 238.0 L 186.0 238.0 L 187.0 239.0 L 187.0 239.0 L 188.0 240.0 L 188.0 241.0 L 189.0 241.0 L 189.0 242.0 L 190.0 243.0 L 191.0 243.0 L 192.0 244.0 L 193.0 245.0 L 195.0 246.0 L 197.0 246.0 L 200.0 247.0 L 203.0 247.0 L 208.0 248.0 L 213.0 248.0 L 220.0 248.0 L 225.0 247.0 L 231.0 246.0 L 235.0 245.0 L 238.0 243.0 L 240.0 242.0 L 242.0 241.0 L 243.0 240.0 L 244.0 239.0 L 246.0 237.0 L 248.0 236.0 L 250.0 233.0 L 252.0 230.0 L 253.0 226.0 L 253.0 220.0 L 253.0 217.0 " stroke="black" fill="none" stroke-width="5.0" stroke-linecap="round" stroke-linejoin="round" />
<path d="M 238.0 104.0 L 238.0 102.0 L 238.0 101.0 L 238.0 99.0 L 238.0 98.0 L 238.0 97.0 L 238.0 97.0 L 238.0 97.0 L 238.0 100.0 L 236.0 103.0 L 235.0 107.0 L 233.0 111.0 L 231.0 115.0 L 228.0 120.0 L 225.0 125.0 L 221.0 129.0 L 217.0 133.0 L 213.0 137.0 L 210.0 140.0 L 207.0 143.0 L 205.0 146.0 L 204.0 147.0 " stroke="black" fill="none" stroke-width="5.0" stroke-linecap="round" stroke-linejoin="round" />
<path d="M 202.0 147.0 L 202.0 147.0 L 202.0 147.0 L 202.0 147.0 L 202.0 148.0 L 202.0 148.0 L 203.0 149.0 L 206.0 151.0 L 211.0 154.0 L 217.0 157.0 L 224.0 160.0 L 230.0 163.0 L 236.0 166.0 L 240.0 168.0 L 243.0 170.0 L 245.0 171.0 L 246.0 173.0 " stroke="black" fill="none" stroke-width="5.0" stroke-linecap="round" stroke-linejoin="round" />
</svg>