<svg xmlns="http://www.w3.org/2000/svg" width="300" height="300" viewBox="0 0 300 300">
<path d="M 74.0 84.0 L 74.0 84.0 L 74.0 83.0 L 75.0 82.0 L 75.0 82.0 L 75.0 81.0 L 76.0 81.0 L 76.0 81.0 L 76.0 81.0 L 76.0 82.0 L 76.0 83.0 L 76.0 85.0 L 76.0 87.0 L 76.0 90.0 L 76.0 93.0 L 76.0 97.0 L 76.0 101.0 L 76.0 105.0 L 76.0 109.0 L 76.0 112.0 L 76.0 113.0 L 76.0 114.0 L 76.0 114.0 " stroke="black" fill="none" stroke-width="5.0" stroke-linecap="round" stroke-linejoin="round" />
<path d="M 74.0 80.0 L 74.0 80.0 L 74.0 80.0 L 74.0 80.0 L 74.0 80.0 L 74.0 80.0 L 74.0 80.0 L 74.0 79.0 L 74.0 79.0 L 74.0 79.0 L 74.0 79.0 L 74.0 79.0 L 74.0 79.0 L 74.0 79.0 L 74.0 79.0 L 74.0 79.0 L 74.0 79.0 L 74.0 79.0 L 74.0 79.0 L 74.0 78.0 L 75.0 78.0 L 75.0 78.0 L 76.0 78.0 L 76.0 78.0 L 77.0 78.0 L 78.0 78.0 L 79.0 78.0 L 80.0 78.0 L 81.0 78.0 L 82.0 78.0 L 83.0 78.0 L 84.0 78.0 L 85.0 78.0 L 86.0 78.0 L 87.0 78.0 L 88.0 78.0 L 89.0 78.0 L 90.0 79.0 L 91.0 79.0 L 92.0 79.0 L 93.0 79.0 L 93.0 79.0 L 94.0 79.0 L 95.0 79.0 L 96.0 79.0 L 97.0 79.0 L 97.0 79.0 L 98.0 79.0 L 99.0 80.0 L 100.0 80.0 L 101.0 80.0 L 101.0 80.0 L 102.0 80.0 L 103.0 80.0 L 103.0 80.0 L 104.0 80.0 L 105.0 80.0 L 105.0 80.0 L 106.0 80.0 L 106.0 80.0 L 107.0 80.0 L 108.0 80.0 L 108.0 80.0 L 109.0 80.0 L 109.0 80.0 L 110.0 80.0 L 110.0 80.0 L 111.0 80.0 L 112.0 79.0 L 112.0 79.0 L 113.0 79.0 L 114.0 79.0 L 114.0 79.0 L 115.0 79.0 L 116.0 79.0 L 116.0 79.0 L 117.0 79.0 L 118.0 79.0 L 119.0 79.0 L 120.0 79.0 L 121.0 79.0 L 122.0 79.0 L 124.0 79.0 L 125.0 79.0 L 126.0 79.0 L 128.0 79.0 L 129.0 79.0 L 131.0 79.0 L 132.0 79.0 L 134.0 79.0 L 135.0 79.0 L 137.0 79.0 L 138.0 79.0 L 140.0 79.0 L 141.0 79.0 L 142.0 79.0 L 144.0 79.0 L 145.0 79.0 L 146.0 79.0 L 147.0 79.0 L 148.0 79.0 L 148.0 79.0 L 149.0 79.0 L 150.0 79.0 L 150.0 79.0 L 151.0 79.0 L 152.0 79.0 L 152.0 79.0 L 153.0 79.0 L 153.0 79.0 L 154.0 79.0 L 155.0 79.0 L 156.0 79.0 L 156.0 79.0 L 157.0 79.0 L 158.0 79.0 L 159.0 79.0 L 160.0 79.0 L 161.0 79.0 L 162.0 79.0 L 163.0 79.0 L 164.0 79.0 L 165.0 79.0 L 166.0 79.0 L 166.0 79.0 L 167.0 79.0 L 168.0 79.0 L 169.0 79.0 L 169.0 79.0 L 170.0 79.0 L 171.0 79.0 L 172.0 79.0 L 173.0 79.0 L 173.0 79.0 L 174.0 79.0 L 175.0 79.0 L 176.0 79.0 L 177.0 79.0 L 178.0 79.0 L 179.0 79.0 L 180.0 79.0 L 180.0 79.0 L 181.0 79.0 L 182.0 79.0 L 183.0 79.0 L 184.0 79.0 L 185.0 78.0 L 186.0 78.0 L 187.0 78.0 L 188.0 78.0 L 189.0 78.0 L 190.0 78.0 L 191.0 78.0 L 192.0 78.0 L 192.0 78.0 L 193.0 78.0 L 194.0 78.0 L 195.0 78.0 L 195.0 78.0 L 196.0 78.0 L 196.0 78.0 L 197.0 78.0 L 197.0 78.0 L 198.0 78.0 L 198.0 78.0 L 199.0 78.0 L 199.0 78.0 L 200.0 78.0 L 201.0 78.0 L 201.0 78.0 L 202.0 78.0 L 203.0 78.0 L 204.0 78.0 L 204.0 78.0 L 205.0 78.0 L 206.0 78.0 L 207.0 78.0 L 208.0 78.0 L 209.0 78.0 L 210.0 78.0 L 211.0 78.0 L 212.0 78.0 L 213.0 78.0 L 214.0 78.0 L 215.0 78.0 L 216.0 78.0 L 216.0 78.0 L 217.0 78.0 L 218.0 78.0 L 219.0 78.0 L 219.0 78.0 L 220.0 78.0 L 220.0 79.0 L 221.0 79.0 L 221.0 79.0 L 221.0 80.0 L 222.0 80.0 L 222.0 80.0 L 222.0 80.0 L 222.0 80.0 L 222.0 81.0 L 222.0 81.0 L 222.0 81.0 L 222.0 81.0 L 222.0 82.0 L 222.0 82.0 L 222.0 82.0 L 222.0 82.0 L 222.0 83.0 L 222.0 83.0 L 222.0 84.0 L 222.0 84.0 L 222.0 85.0 L 222.0 86.0 L 222.0 87.0 L 222.0 88.0 L 222.0 90.0 L 222.0 93.0 L 222.0 97.0 L 222.0 102.0 L 221.0 107.0 L 221.0 112.0 L 221.0 116.0 L 220.0 119.0 L 220.0 121.0 L 220.0 121.0 L 221.0 122.0 L 221.0 122.0 " stroke="black" fill="none" stroke-width="5.0" stroke-linecap="round" stroke-linejoin="round" />
<path d="M 118.0 83.0 L 118.0 83.0 L 120.0 82.0 L 121.0 82.0 L 122.0 82.0 L 123.0 81.0 L 123.0 81.0 L 123.0 82.0 L 123.0 84.0 L 123.0 87.0 L 122.0 92.0 L 121.0 97.0 L 121.0 103.0 L 121.0 109.0 L 121.0 114.0 L 121.0 119.0 L 121.0 122.0 L 121.0 125.0 L 121.0 126.0 L 121.0 127.0 L 121.0 127.0 " stroke="black" fill="none" stroke-width="5.0" stroke-linecap="round" stroke-linejoin="round" />
<path d="M 166.0 89.0 L 166.0 88.0 L 166.0 87.0 L 167.0 86.0 L 167.0 86.0 L 168.0 86.0 L 168.0 86.0 L 169.0 86.0 L 169.0 86.0 L 170.0 88.0 L 170.0 90.0 L 170.0 94.0 L 170.0 98.0 L 170.0 103.0 L 170.0 108.0 L 169.0 113.0 L 168.0 118.0 L 168.0 123.0 L 167.0 128.0 L 166.0 132.0 " stroke="black" fill="none" stroke-width="5.0" stroke-linecap="round" stroke-linejoin="round" />
<path d="M 71.0 126.0 L 72.0 125.0 L 72.0 125.0 L 72.0 124.0 L 72.0 124.0 L 72.0 124.0 L 72.0 124.0 L 72.0 124.0 L 72.0 124.0 L 72.0 124.0 L 72.0 124.0 L 72.0 124.0 L 73.0 124.0 L 73.0 124.0 L 74.0 124.0 L 74.0 124.0 L 75.0 124.0 L 76.0 124.0 L 77.0 124.0 L 78.0 124.0 L 79.0 124.0 L 81.0 124.0 L 82.0 124.0 L 84.0 124.0 L 86.0 125.0 L 88.0 125.0 L 90.0 125.0 L 92.0 125.0 L 94.0 125.0 L 96.0 125.0 L 98.0 125.0 L 99.0 125.0 L 101.0 125.0 L 102.0 125.0 L 104.0 125.0 L 105.0 125.0 L 106.0 125.0 L 107.0 125.0 L 108.0 125.0 L 109.0 125.0 L 110.0 125.0 L 111.0 125.0 L 112.0 125.0 L 113.0 125.0 L 114.0 125.0 L 115.0 125.0 L 116.0 125.0 L 117.0 125.0 L 118.0 125.0 L 119.0 126.0 L 121.0 126.0 L 122.0 126.0 L 124.0 126.0 L 126.0 126.0 L 128.0 126.0 L 130.0 126.0 L 132.0 126.0 L 134.0 126.0 L 136.0 126.0 L 138.0 126.0 L 140.0 126.0 L 142.0 126.0 L 144.0 126.0 L 146.0 126.0 L 148.0 126.0 L 150.0 126.0 L 152.0 126.0 L 153.0 126.0 L 155.0 126.0 L 157.0 126.0 L 159.0 126.0 L 161.0 126.0 L 164.0 126.0 L 166.0 126.0 L 168.0 126.0 L 171.0 126.0 L 173.0 126.0 L 176.0 126.0 L 179.0 126.0 L 182.0 125.0 L 185.0 125.0 L 188.0 125.0 L 190.0 125.0 L 193.0 125.0 L 195.0 125.0 L 197.0 125.0 L 199.0 125.0 L 201.0 125.0 L 204.0 125.0 L 206.0 125.0 L 209.0 124.0 L 211.0 124.0 L 213.0 124.0 L 215.0 124.0 L 217.0 124.0 L 218.0 124.0 L 218.0 124.0 L 219.0 124.0 " stroke="black" fill="none" stroke-width="5.0" stroke-linecap="round" stroke-linejoin="round" />
<path d="M 84.0 157.0 L 84.0 157.0 L 85.0 156.0 L 85.0 156.0 L 85.0 156.0 L 85.0 156.0 L 86.0 155.0 L 86.0 155.0 L 86.0 155.0 L 86.0 155.0 L 86.0 155.0 L 87.0 155.0 L 87.0 155.0 L 88.0 155.0 L 88.0 155.0 L 89.0 155.0 L 89.0 155.0 L 90.0 155.0 L 91.0 155.0 L 91.0 155.0 L 92.0 155.0 L 93.0 155.0 L 94.0 155.0 L 95.0 156.0 L 96.0 156.0 L 98.0 156.0 L 99.0 156.0 L 100.0 156.0 L 101.0 156.0 L 102.0 157.0 L 103.0 157.0 L 104.0 157.0 L 105.0 157.0 L 106.0 157.0 L 107.0 157.0 L 108.0 157.0 L 109.0 157.0 L 110.0 157.0 L 111.0 157.0 L 112.0 157.0 L 114.0 157.0 L 115.0 157.0 L 117.0 157.0 L 119.0 157.0 L 121.0 157.0 L 124.0 157.0 L 126.0 157.0 L 129.0 157.0 L 132.0 157.0 L 135.0 157.0 L 138.0 157.0 L 141.0 157.0 L 143.0 157.0 L 145.0 157.0 L 147.0 157.0 L 149.0 156.0 L 151.0 156.0 L 154.0 155.0 L 156.0 155.0 L 159.0 154.0 L 162.0 154.0 L 165.0 153.0 L 168.0 152.0 L 172.0 151.0 L 175.0 150.0 L 178.0 150.0 L 181.0 149.0 L 184.0 149.0 L 186.0 149.0 L 189.0 148.0 L 191.0 148.0 L 193.0 148.0 L 194.0 148.0 L 196.0 147.0 L 197.0 147.0 L 199.0 147.0 L 200.0 146.0 L 202.0 145.0 L 202.0 145.0 " stroke="black" fill="none" stroke-width="5.0" stroke-linecap="round" stroke-linejoin="round" />
<path d="M 149.0 161.0 L 149.0 161.0 L 149.0 161.0 L 149.0 161.0 L 149.0 161.0 L 149.0 161.0 L 149.0 161.0 L 149.0 161.0 L 149.0 161.0 L 149.0 161.0 L 149.0 162.0 L 149.0 164.0 L 149.0 165.0 L 149.0 167.0 L 149.0 170.0 L 149.0 173.0 L 148.0 177.0 L 148.0 182.0 L 148.0 186.0 L 148.0 190.0 L 147.0 194.0 L 147.0 198.0 L 147.0 202.0 L 147.0 205.0 L 147.0 209.0 L 147.0 213.0 L 147.0 216.0 L 148.0 219.0 L 148.0 222.0 L 148.0 225.0 L 148.0 228.0 L 148.0 230.0 L 148.0 233.0 L 148.0 235.0 L 148.0 238.0 L 148.0 240.0 L 148.0 243.0 L 148.0 245.0 L 148.0 247.0 L 148.0 248.0 L 148.0 250.0 L 148.0 251.0 L 148.0 252.0 L 148.0 253.0 L 148.0 253.0 L 148.0 254.0 " stroke="black" fill="none" stroke-width="5.0" stroke-linecap="round" stroke-linejoin="round" />
<path d="M 104.0 179.0 L 104.0 179.0 L 104.0 179.0 L 104.0 179.0 L 104.0 179.0 L 104.0 179.0 L 104.0 179.0 L 104.0 179.0 L 104.0 179.0 L 104.0 178.0 L 104.0 178.0 L 104.0 178.0 L 104.0 178.0 L 104.0 178.0 L 104.0 178.0 L 104.0 179.0 L 104.0 180.0 L 103.0 182.0 L 103.0 184.0 L 102.0 187.0 L 101.0 190.0 L 100.0 193.0 L 99.0 196.0 L 98.0 199.0 L 97.0 202.0 L 95.0 205.0 L 93.0 208.0 L 91.0 211.0 L 88.0 214.0 L 85.0 216.0 L 81.0 219.0 L 78.0 222.0 L 75.0 225.0 L 73.0 227.0 L 70.0 229.0 L 69.0 230.0 " stroke="black" fill="none" stroke-width="5.0" stroke-linecap="round" stroke-linejoin="round" />
<path d="M 100.0 207.0 L 100.0 207.0 L 100.0 207.0 L 100.0 207.0 L 100.0 206.0 L 100.0 206.0 L 100.0 206.0 L 101.0 206.0 L 101.0 206.0 L 102.0 206.0 L 103.0 207.0 L 104.0 208.0 L 105.0 210.0 L 107.0 212.0 L 109.0 214.0 L 112.0 217.0 L 116.0 220.0 L 120.0 222.0 L 124.0 225.0 L 127.0 227.0 L 130.0 229.0 L 132.0 230.0 L 133.0 231.0 " stroke="black" fill="none" stroke-width="5.0" stroke-linecap="round" stroke-linejoin="round" />
<path d="M 200.0 174.0 L 201.0 174.0 L 202.0 174.0 L 202.0 174.0 L 203.0 174.0 L 203.0 174.0 L 203.0 174.0 L 203.0 174.0 L 203.0 174.0 L 203.0 175.0 L 203.0 176.0 L 203.0 178.0 L 202.0 181.0 L 201.0 184.0 L 200.0 188.0 L 200.0 191.0 L 198.0 195.0 L 197.0 198.0 L 196.0 202.0 L 195.0 206.0 L 193.0 210.0 L 191.0 214.0 L 188.0 218.0 L 186.0 223.0 L 183.0 227.0 L 179.0 230.0 L 176.0 233.0 L 173.0 235.0 L 170.0 236.0 L 168.0 237.0 " stroke="black" fill="none" stroke-width="5.0" stroke-linecap="round" stroke-linejoin="round" />
<path d="M 199.0 204.0 L 199.0 204.0 L 199.0 204.0 L 199.0 205.0 L 199.0 205.0 L 199.0 205.0 L 199.0 206.0 L 199.0 206.0 L 199.0 207.0 L 199.0 208.0 L 201.0 210.0 L 204.0 211.0 L 207.0 214.0 L 211.0 216.0 L 216.0 219.0 L 220.0 222.0 L 225.0 225.0 L 229.0 228.0 L 232.0 231.0 L 234.0 233.0 L 235.0 235.0 L 236.0 236.0 L 236.0 238.0 L 236.0 238.0 L 237.0 239.0 L 237.0 239.0 " stroke="black" fill="none" stroke-width="5.0" stroke-linecap="round" stroke-linejoin="round" />
</svg>