<svg xmlns="http://www.w3.org/2000/svg" width="300" height="300" viewBox="0 0 300 300">
<path d="M 83.0 78.0 L 83.0 78.0 L 83.0 78.0 L 83.0 78.0 L 83.0 78.0 L 83.0 78.0 L 83.0 78.0 L 83.0 78.0 L 83.0 78.0 L 84.0 78.0 L 85.0 78.0 L 87.0 79.0 L 89.0 81.0 L 91.0 84.0 L 94.0 87.0 L 97.0 90.0 L 98.0 91.0 " stroke="black" fill="none" stroke-width="5.0" stroke-linecap="round" stroke-linejoin="round" />
<path d="M 67.0 113.0 L 67.0 113.0 L 68.0 113.0 L 68.0 112.0 L 69.0 112.0 L 69.0 112.0 L 70.0 112.0 L 70.0 112.0 L 70.0 112.0 L 70.0 112.0 L 71.0 112.0 L 71.0 112.0 L 71.0 112.0 L 72.0 112.0 L 73.0 112.0 L 73.0 112.0 L 74.0 112.0 L 75.0 111.0 L 76.0 111.0 L 76.0 111.0 L 78.0 111.0 L 79.0 111.0 L 80.0 111.0 L 81.0 111.0 L 82.0 110.0 L 84.0 110.0 L 85.0 110.0 L 87.0 109.0 L 89.0 109.0 L 91.0 109.0 L 92.0 108.0 L 94.0 108.0 L 95.0 107.0 L 96.0 107.0 L 97.0 107.0 L 98.0 107.0 L 98.0 107.0 L 99.0 107.0 L 99.0 107.0 L 100.0 107.0 L 100.0 107.0 L 100.0 107.0 L 101.0 107.0 L 101.0 107.0 L 101.0 107.0 L 102.0 107.0 L 102.0 107.0 L 103.0 107.0 L 103.0 107.0 L 104.0 107.0 L 104.0 107.0 L 104.0 107.0 L 105.0 107.0 L 105.0 107.0 L 105.0 107.0 L 106.0 107.0 L 106.0 107.0 L 107.0 107.0 L 107.0 107.0 L 107.0 107.0 L 107.0 107.0 L 108.0 107.0 L 108.0 107.0 L 108.0 107.0 L 108.0 107.0 L 108.0 107.0 L 109.0 107.0 L 109.0 107.0 L 109.0 107.0 L 109.0 107.0 L 109.0 107.0 L 109.0 107.0 L 109.0 107.0 L 109.0 107.0 L 109.0 107.0 L 109.0 107.0 L 109.0 107.0 L 109.0 107.0 L 109.0 107.0 L 109.0 107.0 L 109.0 107.0 L 109.0 107.0 L 109.0 107.0 L 109.0 107.0 L 109.0 107.0 L 109.0 107.0 L 109.0 107.0 L 109.0 107.0 L 109.0 107.0 L 109.0 107.0 L 110.0 107.0 L 110.0 107.0 L 110.0 107.0 L 110.0 107.0 L 110.0 107.0 L 110.0 107.0 L 110.0 107.0 L 110.0 107.0 L 111.0 108.0 L 111.0 108.0 L 111.0 108.0 L 111.0 108.0 L 111.0 108.0 L 112.0 108.0 L 112.0 108.0 L 112.0 108.0 L 112.0 108.0 L 112.0 108.0 L 113.0 108.0 L 113.0 108.0 L 113.0 108.0 L 113.0 108.0 L 113.0 108.0 L 113.0 108.0 L 114.0 108.0 L 114.0 108.0 L 114.0 108.0 L 114.0 108.0 L 114.0 108.0 L 114.0 108.0 L 114.0 108.0 L 114.0 108.0 L 114.0 108.0 L 114.0 108.0 L 114.0 108.0 L 114.0 109.0 L 114.0 109.0 L 114.0 109.0 L 114.0 109.0 L 114.0 109.0 L 114.0 110.0 L 114.0 110.0 L 114.0 111.0 L 114.0 111.0 L 114.0 111.0 L 114.0 112.0 L 114.0 113.0 L 114.0 113.0 L 113.0 113.0 L 113.0 114.0 L 113.0 114.0 L 113.0 115.0 L 112.0 115.0 L 112.0 116.0 L 112.0 116.0 L 112.0 117.0 L 112.0 117.0 L 112.0 118.0 L 111.0 118.0 L 111.0 118.0 L 111.0 119.0 L 111.0 119.0 L 110.0 120.0 L 110.0 120.0 L 110.0 121.0 L 110.0 121.0 L 110.0 122.0 L 110.0 122.0 L 109.0 122.0 L 109.0 123.0 L 109.0 123.0 L 109.0 124.0 L 108.0 125.0 L 108.0 125.0 L 108.0 126.0 L 108.0 126.0 L 107.0 127.0 L 107.0 127.0 L 107.0 128.0 L 107.0 128.0 L 107.0 129.0 L 106.0 130.0 L 106.0 130.0 L 106.0 131.0 L 105.0 131.0 L 105.0 132.0 L 105.0 133.0 L 105.0 133.0 L 104.0 134.0 L 104.0 135.0 L 104.0 136.0 L 103.0 136.0 L 103.0 137.0 L 103.0 137.0 L 102.0 138.0 L 102.0 139.0 L 102.0 139.0 L 102.0 140.0 L 101.0 141.0 L 101.0 141.0 L 101.0 142.0 L 101.0 143.0 L 100.0 143.0 L 100.0 144.0 L 100.0 145.0 L 99.0 145.0 L 99.0 146.0 L 98.0 147.0 L 98.0 147.0 L 98.0 148.0 L 97.0 149.0 L 97.0 149.0 L 97.0 150.0 L 96.0 150.0 L 96.0 151.0 L 95.0 152.0 L 95.0 152.0 L 94.0 153.0 L 94.0 153.0 L 93.0 154.0 L 93.0 154.0 L 92.0 155.0 L 92.0 155.0 L 91.0 156.0 L 91.0 157.0 L 90.0 157.0 L 89.0 158.0 L 89.0 158.0 L 88.0 159.0 L 87.0 159.0 L 86.0 160.0 L 86.0 160.0 L 85.0 161.0 L 84.0 162.0 L 83.0 162.0 L 82.0 163.0 L 82.0 164.0 L 81.0 164.0 L 80.0 165.0 L 79.0 166.0 L 78.0 166.0 L 77.0 167.0 L 77.0 168.0 L 76.0 168.0 L 75.0 169.0 L 74.0 170.0 L 73.0 170.0 L 72.0 171.0 L 71.0 172.0 L 71.0 172.0 L 70.0 173.0 L 69.0 174.0 L 68.0 175.0 L 67.0 175.0 L 66.0 176.0 L 65.0 177.0 L 64.0 178.0 L 63.0 179.0 L 63.0 180.0 L 62.0 181.0 L 61.0 182.0 L 60.0 183.0 L 59.0 184.0 " stroke="black" fill="none" stroke-width="5.0" stroke-linecap="round" stroke-linejoin="round" />
<path d="M 91.0 161.0 L 91.0 161.0 L 91.0 160.0 L 91.0 160.0 L 91.0 159.0 L 91.0 159.0 L 92.0 159.0 L 92.0 158.0 L 92.0 158.0 L 92.0 158.0 L 92.0 158.0 L 92.0 158.0 L 92.0 158.0 L 92.0 158.0 L 92.0 158.0 L 92.0 158.0 L 92.0 159.0 L 92.0 160.0 L 92.0 161.0 L 92.0 163.0 L 92.0 165.0 L 92.0 167.0 L 92.0 170.0 L 92.0 172.0 L 92.0 175.0 L 92.0 178.0 L 92.0 181.0 L 92.0 184.0 L 92.0 187.0 L 92.0 190.0 L 92.0 193.0 L 92.0 196.0 L 92.0 198.0 L 92.0 200.0 L 92.0 203.0 L 92.0 204.0 L 92.0 206.0 L 92.0 209.0 L 92.0 211.0 L 92.0 213.0 L 92.0 215.0 L 93.0 218.0 L 93.0 220.0 L 93.0 223.0 L 93.0 226.0 L 93.0 229.0 L 94.0 231.0 L 94.0 234.0 L 94.0 236.0 L 94.0 237.0 L 94.0 239.0 L 94.0 240.0 L 94.0 242.0 L 94.0 243.0 L 94.0 243.0 L 93.0 244.0 L 93.0 244.0 L 93.0 244.0 L 93.0 243.0 " stroke="black" fill="none" stroke-width="5.0" stroke-linecap="round" stroke-linejoin="round" />
<path d="M 99.0 159.0 L 99.0 159.0 L 99.0 159.0 L 99.0 158.0 L 99.0 158.0 L 99.0 158.0 L 98.0 157.0 L 98.0 157.0 L 98.0 157.0 L 98.0 157.0 L 98.0 157.0 L 98.0 157.0 L 98.0 157.0 L 98.0 158.0 L 99.0 159.0 L 100.0 160.0 L 101.0 162.0 L 102.0 163.0 L 104.0 165.0 L 105.0 167.0 L 107.0 169.0 L 109.0 172.0 L 111.0 175.0 L 113.0 178.0 L 115.0 181.0 L 116.0 183.0 L 118.0 184.0 L 119.0 185.0 L 120.0 185.0 L 120.0 185.0 " stroke="black" fill="none" stroke-width="5.0" stroke-linecap="round" stroke-linejoin="round" />
<path d="M 222.0 75.0 L 222.0 75.0 L 222.0 75.0 L 222.0 75.0 L 222.0 75.0 L 222.0 75.0 L 222.0 75.0 L 222.0 75.0 L 222.0 75.0 L 222.0 75.0 L 222.0 75.0 L 222.0 75.0 L 222.0 75.0 L 222.0 75.0 L 221.0 75.0 L 221.0 75.0 L 220.0 75.0 L 219.0 75.0 L 218.0 76.0 L 217.0 76.0 L 215.0 76.0 L 213.0 77.0 L 211.0 78.0 L 209.0 78.0 L 207.0 79.0 L 205.0 80.0 L 204.0 80.0 L 202.0 81.0 L 200.0 82.0 L 198.0 83.0 L 197.0 83.0 L 195.0 84.0 L 194.0 85.0 L 193.0 85.0 L 192.0 86.0 L 190.0 87.0 L 189.0 88.0 L 188.0 89.0 L 186.0 89.0 L 185.0 90.0 L 183.0 91.0 L 182.0 91.0 L 180.0 92.0 L 179.0 93.0 L 177.0 93.0 L 176.0 94.0 L 174.0 95.0 L 172.0 95.0 L 171.0 96.0 L 169.0 96.0 L 167.0 97.0 L 165.0 97.0 L 163.0 98.0 L 162.0 98.0 L 160.0 98.0 L 159.0 99.0 L 157.0 99.0 L 156.0 99.0 L 155.0 100.0 L 154.0 100.0 L 153.0 100.0 L 152.0 101.0 L 152.0 101.0 L 151.0 101.0 L 150.0 102.0 L 150.0 102.0 L 149.0 102.0 L 149.0 102.0 L 148.0 103.0 L 148.0 103.0 L 148.0 103.0 L 147.0 103.0 L 147.0 103.0 L 147.0 103.0 L 147.0 104.0 L 147.0 104.0 L 146.0 104.0 L 146.0 104.0 L 146.0 104.0 L 146.0 105.0 L 146.0 105.0 L 146.0 105.0 L 146.0 105.0 L 146.0 105.0 L 146.0 105.0 L 146.0 106.0 L 146.0 106.0 L 147.0 106.0 L 147.0 107.0 L 147.0 107.0 L 147.0 107.0 L 147.0 108.0 L 148.0 109.0 L 148.0 110.0 L 148.0 111.0 L 148.0 112.0 L 148.0 113.0 L 148.0 114.0 L 149.0 116.0 L 149.0 117.0 L 149.0 119.0 L 149.0 121.0 L 149.0 123.0 L 149.0 125.0 L 149.0 127.0 L 149.0 129.0 L 149.0 132.0 L 148.0 135.0 L 148.0 137.0 L 148.0 141.0 L 148.0 144.0 L 147.0 147.0 L 147.0 150.0 L 147.0 153.0 L 147.0 155.0 L 147.0 157.0 L 147.0 159.0 L 147.0 161.0 L 146.0 164.0 L 146.0 165.0 L 146.0 167.0 L 146.0 169.0 L 146.0 171.0 L 146.0 172.0 L 145.0 174.0 L 145.0 176.0 L 145.0 177.0 L 145.0 179.0 L 145.0 180.0 L 145.0 182.0 L 145.0 184.0 L 145.0 185.0 L 145.0 187.0 L 145.0 189.0 L 145.0 191.0 L 144.0 192.0 L 144.0 194.0 L 144.0 195.0 L 144.0 197.0 L 144.0 198.0 L 144.0 199.0 L 144.0 201.0 L 143.0 202.0 L 143.0 204.0 L 143.0 205.0 L 143.0 206.0 L 142.0 208.0 L 142.0 209.0 L 142.0 210.0 L 142.0 211.0 L 141.0 212.0 L 141.0 214.0 L 141.0 214.0 L 141.0 216.0 L 141.0 217.0 L 141.0 218.0 L 141.0 219.0 L 141.0 220.0 L 141.0 221.0 L 141.0 222.0 L 141.0 223.0 L 141.0 223.0 L 141.0 224.0 L 141.0 225.0 L 141.0 226.0 L 140.0 227.0 L 140.0 227.0 L 140.0 228.0 L 140.0 229.0 L 140.0 230.0 L 140.0 230.0 L 140.0 230.0 L 140.0 231.0 L 140.0 231.0 L 140.0 231.0 L 140.0 231.0 L 140.0 232.0 L 140.0 232.0 L 140.0 232.0 L 140.0 232.0 L 140.0 232.0 L 140.0 232.0 L 140.0 232.0 L 140.0 232.0 L 140.0 232.0 L 140.0 232.0 L 140.0 232.0 L 140.0 232.0 L 141.0 232.0 L 141.0 232.0 L 142.0 232.0 L 142.0 232.0 L 143.0 231.0 L 143.0 231.0 L 144.0 230.0 L 145.0 230.0 L 146.0 229.0 L 147.0 228.0 L 149.0 226.0 L 151.0 225.0 L 153.0 223.0 L 156.0 220.0 L 160.0 217.0 L 164.0 214.0 L 168.0 211.0 L 172.0 208.0 L 176.0 205.0 L 179.0 203.0 " stroke="black" fill="none" stroke-width="5.0" stroke-linecap="round" stroke-linejoin="round" />
<path d="M 153.0 145.0 L 153.0 145.0 L 153.0 145.0 L 153.0 145.0 L 152.0 145.0 L 152.0 145.0 L 152.0 145.0 L 152.0 145.0 L 152.0 145.0 L 151.0 145.0 L 151.0 145.0 L 151.0 145.0 L 151.0 145.0 L 151.0 145.0 L 151.0 145.0 L 151.0 146.0 L 151.0 146.0 L 152.0 146.0 L 152.0 146.0 L 153.0 146.0 L 154.0 146.0 L 155.0 146.0 L 157.0 146.0 L 158.0 146.0 L 159.0 146.0 L 161.0 146.0 L 163.0 146.0 L 164.0 146.0 L 166.0 146.0 L 168.0 146.0 L 169.0 146.0 L 171.0 146.0 L 172.0 146.0 L 174.0 146.0 L 175.0 146.0 L 176.0 146.0 L 177.0 146.0 L 178.0 146.0 L 179.0 146.0 L 180.0 147.0 L 181.0 147.0 L 182.0 147.0 L 183.0 147.0 L 184.0 147.0 L 185.0 147.0 L 186.0 147.0 L 187.0 147.0 L 187.0 147.0 L 188.0 147.0 L 189.0 147.0 L 190.0 147.0 L 190.0 147.0 L 191.0 147.0 L 191.0 147.0 L 192.0 147.0 L 193.0 147.0 L 193.0 147.0 L 193.0 147.0 L 194.0 146.0 L 194.0 146.0 L 195.0 146.0 L 195.0 146.0 L 195.0 146.0 L 196.0 146.0 L 196.0 146.0 L 196.0 146.0 L 197.0 146.0 L 197.0 146.0 L 197.0 146.0 L 198.0 146.0 L 198.0 146.0 L 198.0 146.0 L 199.0 146.0 L 199.0 146.0 L 199.0 146.0 L 200.0 146.0 L 200.0 145.0 L 200.0 145.0 L 201.0 145.0 L 201.0 145.0 L 202.0 145.0 L 202.0 145.0 L 202.0 145.0 L 203.0 145.0 L 203.0 145.0 L 204.0 145.0 L 204.0 145.0 L 205.0 145.0 L 205.0 144.0 L 205.0 144.0 L 206.0 144.0 L 207.0 144.0 L 207.0 144.0 L 208.0 144.0 L 208.0 144.0 L 209.0 144.0 L 209.0 144.0 L 210.0 144.0 L 210.0 144.0 L 211.0 144.0 L 211.0 144.0 L 212.0 144.0 L 213.0 144.0 L 213.0 144.0 L 214.0 144.0 L 214.0 144.0 L 215.0 144.0 L 216.0 144.0 L 216.0 144.0 L 217.0 144.0 L 218.0 144.0 L 218.0 144.0 L 219.0 144.0 L 220.0 144.0 L 220.0 144.0 L 221.0 144.0 L 221.0 144.0 L 222.0 144.0 L 223.0 145.0 L 223.0 145.0 L 224.0 145.0 L 225.0 145.0 L 226.0 145.0 L 227.0 145.0 L 227.0 145.0 L 228.0 145.0 L 229.0 145.0 L 230.0 145.0 L 230.0 145.0 L 231.0 145.0 L 232.0 144.0 L 232.0 144.0 L 233.0 144.0 L 233.0 144.0 L 234.0 144.0 L 234.0 144.0 L 235.0 144.0 L 235.0 144.0 L 235.0 144.0 " stroke="black" fill="none" stroke-width="5.0" stroke-linecap="round" stroke-linejoin="round" />
<path d="M 192.0 88.0 L 192.0 88.0 L 192.0 88.0 L 192.0 89.0 L 192.0 90.0 L 192.0 90.0 L 192.0 91.0 L 192.0 92.0 L 192.0 93.0 L 192.0 94.0 L 192.0 95.0 L 192.0 96.0 L 192.0 98.0 L 192.0 100.0 L 192.0 101.0 L 192.0 103.0 L 192.0 105.0 L 192.0 107.0 L 192.0 109.0 L 192.0 111.0 L 192.0 113.0 L 192.0 115.0 L 192.0 117.0 L 192.0 118.0 L 192.0 120.0 L 192.0 122.0 L 192.0 124.0 L 192.0 126.0 L 192.0 128.0 L 192.0 129.0 L 192.0 131.0 L 192.0 133.0 L 192.0 134.0 L 192.0 136.0 L 192.0 138.0 L 192.0 140.0 L 192.0 141.0 L 192.0 143.0 L 192.0 145.0 L 192.0 146.0 L 192.0 148.0 L 192.0 150.0 L 192.0 151.0 L 192.0 152.0 L 192.0 154.0 L 192.0 155.0 L 192.0 156.0 L 192.0 157.0 L 192.0 158.0 L 192.0 159.0 L 192.0 161.0 L 192.0 162.0 L 192.0 163.0 L 192.0 164.0 L 192.0 165.0 L 192.0 167.0 L 192.0 168.0 L 192.0 169.0 L 192.0 170.0 L 192.0 172.0 L 192.0 173.0 L 192.0 174.0 L 193.0 176.0 L 193.0 177.0 L 193.0 179.0 L 193.0 181.0 L 193.0 182.0 L 193.0 184.0 L 194.0 186.0 L 194.0 188.0 L 194.0 190.0 L 194.0 192.0 L 194.0 193.0 L 194.0 195.0 L 195.0 196.0 L 195.0 198.0 L 195.0 199.0 L 196.0 200.0 L 196.0 202.0 L 196.0 203.0 L 196.0 204.0 L 197.0 205.0 L 197.0 206.0 L 198.0 207.0 L 198.0 209.0 L 199.0 210.0 L 200.0 211.0 L 200.0 212.0 L 201.0 214.0 L 202.0 215.0 L 202.0 216.0 L 203.0 217.0 L 204.0 218.0 L 204.0 219.0 L 205.0 220.0 L 205.0 221.0 L 206.0 222.0 L 207.0 223.0 L 208.0 224.0 L 208.0 226.0 L 209.0 227.0 L 210.0 228.0 L 210.0 230.0 L 211.0 231.0 L 212.0 232.0 L 213.0 233.0 L 213.0 234.0 L 214.0 235.0 L 215.0 236.0 L 216.0 237.0 L 217.0 238.0 L 218.0 238.0 L 220.0 239.0 L 221.0 240.0 L 222.0 241.0 L 223.0 241.0 L 225.0 242.0 L 226.0 243.0 L 227.0 244.0 L 228.0 245.0 L 229.0 246.0 L 230.0 247.0 L 231.0 247.0 L 232.0 248.0 L 233.0 248.0 L 233.0 248.0 L 234.0 249.0 L 234.0 249.0 L 235.0 249.0 L 235.0 249.0 L 235.0 250.0 L 235.0 250.0 L 235.0 250.0 L 236.0 250.0 L 236.0 250.0 L 236.0 250.0 L 236.0 250.0 L 236.0 250.0 L 236.0 250.0 L 236.0 249.0 L 236.0 248.0 L 236.0 247.0 L 236.0 247.0 L 236.0 246.0 L 236.0 245.0 L 236.0 244.0 L 236.0 243.0 L 236.0 241.0 L 236.0 239.0 L 236.0 237.0 L 237.0 233.0 L 238.0 229.0 L 239.0 224.0 L 240.0 219.0 L 241.0 214.0 L 242.0 209.0 " stroke="black" fill="none" stroke-width="5.0" stroke-linecap="round" stroke-linejoin="round" />
<path d="M 151.0 241.0 L 151.0 241.0 L 151.0 241.0 L 151.0 241.0 L 151.0 241.0 L 151.0 241.0 L 151.0 241.0 L 151.0 241.0 L 151.0 241.0 L 151.0 240.0 L 151.0 240.0 L 151.0 240.0 L 151.0 240.0 L 151.0 240.0 L 151.0 240.0 L 151.0 240.0 L 151.0 240.0 L 151.0 240.0 L 151.0 240.0 L 151.0 240.0 L 151.0 240.0 L 151.0 240.0 L 151.0 240.0 L 151.0 240.0 L 151.0 240.0 L 152.0 240.0 L 152.0 241.0 L 153.0 241.0 L 153.0 241.0 L 154.0 241.0 L 155.0 242.0 L 155.0 242.0 L 156.0 242.0 L 157.0 243.0 L 158.0 243.0 L 159.0 243.0 L 160.0 243.0 L 161.0 243.0 L 162.0 243.0 L 164.0 243.0 L 165.0 243.0 L 166.0 243.0 L 168.0 243.0 L 169.0 243.0 L 170.0 243.0 L 171.0 243.0 L 172.0 243.0 L 173.0 243.0 L 175.0 243.0 L 176.0 243.0 L 177.0 243.0 L 179.0 243.0 L 180.0 243.0 L 181.0 243.0 L 183.0 242.0 L 184.0 242.0 L 186.0 242.0 L 187.0 242.0 L 188.0 241.0 L 189.0 241.0 L 190.0 241.0 L 191.0 241.0 L 192.0 241.0 L 193.0 241.0 L 193.0 241.0 L 194.0 240.0 L 195.0 240.0 L 195.0 240.0 L 195.0 240.0 L 196.0 240.0 L 196.0 240.0 L 196.0 240.0 L 196.0 240.0 L 196.0 241.0 L 196.0 241.0 L 196.0 241.0 L 196.0 241.0 " stroke="black" fill="none" stroke-width="5.0" stroke-linecap="round" stroke-linejoin="round" />
</svg>