<svg xmlns="http://www.w3.org/2000/svg" width="300" height="300" viewBox="0 0 300 300">
<path d="M 108.0 74.0 L 108.0 74.0 L 108.0 74.0 L 108.0 73.0 L 108.0 73.0 L 108.0 73.0 L 108.0 72.0 L 108.0 72.0 L 108.0 72.0 L 108.0 72.0 L 108.0 72.0 L 108.0 71.0 L 108.0 71.0 L 108.0 71.0 L 108.0 72.0 L 108.0 73.0 L 107.0 74.0 L 106.0 75.0 L 104.0 76.0 L 101.0 78.0 L 98.0 80.0 L 94.0 81.0 L 89.0 83.0 L 82.0 85.0 L 76.0 87.0 L 70.0 89.0 L 67.0 90.0 " stroke="black" fill="none" stroke-width="5.0" stroke-linecap="round" stroke-linejoin="round" />
<path d="M 68.0 133.0 L 68.0 133.0 L 67.0 133.0 L 66.0 133.0 L 65.0 133.0 L 64.0 133.0 L 64.0 133.0 L 64.0 133.0 L 63.0 133.0 L 63.0 133.0 L 64.0 133.0 L 66.0 133.0 L 68.0 132.0 L 71.0 132.0 L 75.0 132.0 L 80.0 132.0 L 85.0 132.0 L 92.0 132.0 L 98.0 132.0 L 105.0 132.0 L 111.0 132.0 L 116.0 132.0 L 121.0 131.0 L 125.0 131.0 L 128.0 130.0 L 129.0 130.0 " stroke="black" fill="none" stroke-width="5.0" stroke-linecap="round" stroke-linejoin="round" />
<path d="M 91.0 91.0 L 91.0 91.0 L 91.0 91.0 L 90.0 91.0 L 90.0 91.0 L 90.0 91.0 L 89.0 92.0 L 89.0 92.0 L 89.0 93.0 L 89.0 94.0 L 89.0 94.0 L 89.0 96.0 L 90.0 97.0 L 90.0 99.0 L 91.0 101.0 L 91.0 104.0 L 91.0 108.0 L 92.0 112.0 L 92.0 117.0 L 92.0 122.0 L 92.0 127.0 L 93.0 133.0 L 93.0 139.0 L 93.0 145.0 L 93.0 151.0 L 94.0 157.0 L 94.0 162.0 L 94.0 168.0 L 95.0 172.0 L 95.0 177.0 L 95.0 182.0 L 95.0 187.0 L 95.0 191.0 L 95.0 196.0 L 94.0 200.0 L 94.0 204.0 L 94.0 209.0 L 94.0 213.0 L 94.0 218.0 L 94.0 223.0 L 95.0 228.0 L 95.0 233.0 L 95.0 238.0 L 96.0 243.0 L 96.0 246.0 L 96.0 249.0 L 96.0 251.0 L 96.0 252.0 L 96.0 252.0 L 96.0 251.0 " stroke="black" fill="none" stroke-width="5.0" stroke-linecap="round" stroke-linejoin="round" />
<path d="M 90.0 143.0 L 90.0 143.0 L 90.0 142.0 L 90.0 141.0 L 90.0 140.0 L 90.0 139.0 L 90.0 138.0 L 90.0 138.0 L 90.0 138.0 L 90.0 138.0 L 90.0 139.0 L 90.0 141.0 L 90.0 143.0 L 89.0 147.0 L 87.0 151.0 L 85.0 155.0 L 83.0 161.0 L 80.0 167.0 L 76.0 175.0 L 72.0 184.0 L 67.0 193.0 L 63.0 200.0 L 60.0 205.0 L 58.0 209.0 L 56.0 211.0 L 54.0 211.0 L 53.0 211.0 " stroke="black" fill="none" stroke-width="5.0" stroke-linecap="round" stroke-linejoin="round" />
<path d="M 96.0 147.0 L 96.0 147.0 L 94.0 147.0 L 94.0 147.0 L 93.0 147.0 L 93.0 147.0 L 93.0 147.0 L 93.0 148.0 L 95.0 150.0 L 97.0 152.0 L 99.0 154.0 L 101.0 157.0 L 104.0 161.0 L 107.0 165.0 L 110.0 170.0 L 114.0 175.0 L 118.0 179.0 L 122.0 183.0 " stroke="black" fill="none" stroke-width="5.0" stroke-linecap="round" stroke-linejoin="round" />
<path d="M 146.0 100.0 L 146.0 100.0 L 145.0 100.0 L 144.0 100.0 L 144.0 100.0 L 143.0 100.0 L 143.0 100.0 L 143.0 99.0 L 143.0 99.0 L 143.0 99.0 L 143.0 98.0 L 143.0 98.0 L 143.0 98.0 L 143.0 97.0 L 143.0 97.0 L 143.0 97.0 L 144.0 97.0 L 144.0 97.0 L 145.0 97.0 L 147.0 97.0 L 149.0 97.0 L 152.0 97.0 L 156.0 97.0 L 161.0 97.0 L 168.0 97.0 L 175.0 97.0 L 182.0 97.0 L 189.0 97.0 L 194.0 96.0 L 199.0 96.0 L 205.0 96.0 L 210.0 96.0 L 215.0 96.0 L 219.0 96.0 L 223.0 95.0 L 227.0 95.0 L 230.0 95.0 L 231.0 94.0 " stroke="black" fill="none" stroke-width="5.0" stroke-linecap="round" stroke-linejoin="round" />
<path d="M 175.0 74.0 L 175.0 74.0 L 175.0 73.0 L 174.0 72.0 L 174.0 72.0 L 174.0 72.0 L 174.0 71.0 L 174.0 71.0 L 174.0 71.0 L 174.0 72.0 L 174.0 74.0 L 174.0 76.0 L 175.0 78.0 L 175.0 82.0 L 176.0 85.0 L 176.0 89.0 L 177.0 94.0 L 177.0 99.0 L 177.0 103.0 L 176.0 108.0 L 174.0 112.0 L 170.0 116.0 L 166.0 120.0 L 161.0 123.0 L 157.0 125.0 L 152.0 127.0 L 149.0 129.0 L 148.0 129.0 " stroke="black" fill="none" stroke-width="5.0" stroke-linecap="round" stroke-linejoin="round" />
<path d="M 190.0 100.0 L 190.0 100.0 L 189.0 100.0 L 188.0 100.0 L 187.0 100.0 L 187.0 100.0 L 186.0 100.0 L 186.0 100.0 L 186.0 100.0 L 186.0 100.0 L 186.0 101.0 L 186.0 102.0 L 186.0 103.0 L 186.0 103.0 L 186.0 105.0 L 186.0 106.0 L 186.0 107.0 L 186.0 109.0 L 186.0 110.0 L 186.0 112.0 L 187.0 113.0 L 187.0 114.0 L 187.0 116.0 L 187.0 117.0 L 188.0 118.0 L 188.0 119.0 L 189.0 120.0 L 189.0 121.0 L 189.0 121.0 L 190.0 122.0 L 190.0 123.0 L 190.0 123.0 L 191.0 124.0 L 191.0 124.0 L 192.0 124.0 L 192.0 125.0 L 193.0 125.0 L 193.0 125.0 L 194.0 125.0 L 195.0 125.0 L 195.0 126.0 L 196.0 126.0 L 197.0 126.0 L 197.0 126.0 L 198.0 127.0 L 199.0 127.0 L 200.0 127.0 L 201.0 127.0 L 202.0 127.0 L 204.0 127.0 L 205.0 128.0 L 207.0 128.0 L 208.0 128.0 L 210.0 128.0 L 212.0 128.0 L 214.0 128.0 L 217.0 128.0 L 219.0 128.0 L 221.0 128.0 L 224.0 128.0 L 226.0 128.0 L 228.0 128.0 L 230.0 128.0 L 231.0 128.0 L 233.0 128.0 L 234.0 128.0 L 235.0 128.0 L 236.0 128.0 L 236.0 128.0 L 237.0 128.0 L 237.0 127.0 L 237.0 127.0 L 237.0 127.0 L 237.0 127.0 L 237.0 127.0 L 237.0 126.0 L 237.0 126.0 L 237.0 125.0 L 237.0 125.0 L 237.0 124.0 L 237.0 123.0 L 236.0 122.0 L 236.0 120.0 L 236.0 119.0 L 236.0 118.0 " stroke="black" fill="none" stroke-width="5.0" stroke-linecap="round" stroke-linejoin="round" />
<path d="M 211.0 77.0 L 210.0 77.0 L 208.0 77.0 L 207.0 76.0 L 205.0 76.0 L 205.0 76.0 L 205.0 76.0 L 205.0 76.0 L 205.0 76.0 L 206.0 77.0 L 208.0 77.0 L 210.0 78.0 L 213.0 79.0 L 216.0 81.0 L 219.0 82.0 L 222.0 84.0 L 225.0 86.0 L 228.0 88.0 " stroke="black" fill="none" stroke-width="5.0" stroke-linecap="round" stroke-linejoin="round" />
<path d="M 153.0 151.0 L 153.0 151.0 L 153.0 151.0 L 153.0 151.0 L 153.0 151.0 L 152.0 151.0 L 152.0 151.0 L 152.0 151.0 L 152.0 151.0 L 152.0 150.0 L 152.0 150.0 L 152.0 150.0 L 152.0 150.0 L 152.0 150.0 L 152.0 149.0 L 152.0 149.0 L 153.0 149.0 L 154.0 149.0 L 155.0 148.0 L 156.0 148.0 L 158.0 148.0 L 160.0 148.0 L 162.0 148.0 L 166.0 148.0 L 170.0 148.0 L 174.0 148.0 L 178.0 148.0 L 183.0 148.0 L 186.0 148.0 L 190.0 148.0 L 193.0 148.0 L 195.0 148.0 L 197.0 148.0 L 200.0 148.0 L 202.0 148.0 L 204.0 148.0 L 207.0 148.0 L 209.0 148.0 L 212.0 147.0 L 215.0 147.0 L 217.0 147.0 L 219.0 147.0 L 221.0 147.0 L 222.0 147.0 L 223.0 146.0 L 224.0 146.0 L 225.0 146.0 L 225.0 146.0 " stroke="black" fill="none" stroke-width="5.0" stroke-linecap="round" stroke-linejoin="round" />
<path d="M 149.0 139.0 L 149.0 139.0 L 149.0 138.0 L 148.0 138.0 L 148.0 137.0 L 147.0 137.0 L 147.0 137.0 L 147.0 136.0 L 146.0 136.0 L 146.0 136.0 L 146.0 136.0 L 146.0 137.0 L 146.0 138.0 L 146.0 139.0 L 146.0 140.0 L 146.0 142.0 L 146.0 143.0 L 146.0 145.0 L 146.0 147.0 L 146.0 149.0 L 146.0 151.0 L 146.0 153.0 L 146.0 155.0 L 146.0 157.0 L 146.0 159.0 L 147.0 160.0 L 147.0 161.0 L 147.0 162.0 L 147.0 163.0 L 147.0 163.0 L 148.0 164.0 L 148.0 164.0 L 148.0 164.0 L 148.0 165.0 L 149.0 165.0 L 149.0 165.0 L 149.0 166.0 L 150.0 166.0 L 150.0 166.0 L 151.0 166.0 L 151.0 167.0 L 152.0 167.0 L 153.0 167.0 L 154.0 167.0 L 155.0 167.0 L 156.0 168.0 L 157.0 168.0 L 158.0 168.0 L 160.0 168.0 L 162.0 168.0 L 163.0 168.0 L 165.0 168.0 L 167.0 168.0 L 169.0 168.0 L 172.0 168.0 L 174.0 168.0 L 176.0 168.0 L 178.0 168.0 L 180.0 168.0 L 181.0 168.0 L 183.0 168.0 L 185.0 168.0 L 187.0 168.0 L 189.0 168.0 L 190.0 168.0 L 192.0 168.0 L 193.0 168.0 L 195.0 168.0 L 196.0 168.0 L 198.0 168.0 L 199.0 168.0 L 201.0 168.0 L 202.0 168.0 L 204.0 168.0 L 206.0 168.0 L 207.0 168.0 L 209.0 168.0 L 211.0 168.0 L 214.0 168.0 L 216.0 168.0 L 218.0 168.0 L 221.0 168.0 L 223.0 168.0 L 225.0 168.0 L 228.0 168.0 L 229.0 168.0 L 231.0 168.0 L 233.0 168.0 L 235.0 168.0 L 236.0 168.0 L 237.0 168.0 L 238.0 168.0 L 238.0 168.0 " stroke="black" fill="none" stroke-width="5.0" stroke-linecap="round" stroke-linejoin="round" />
<path d="M 145.0 197.0 L 145.0 197.0 L 144.0 197.0 L 144.0 197.0 L 143.0 196.0 L 143.0 196.0 L 142.0 196.0 L 142.0 196.0 L 142.0 196.0 L 142.0 196.0 L 142.0 196.0 L 142.0 196.0 L 142.0 196.0 L 143.0 196.0 L 143.0 196.0 L 144.0 197.0 L 144.0 198.0 L 145.0 200.0 L 145.0 202.0 L 146.0 205.0 L 146.0 209.0 L 147.0 214.0 L 147.0 221.0 L 148.0 229.0 L 148.0 237.0 L 148.0 244.0 L 148.0 250.0 L 148.0 255.0 L 148.0 259.0 L 148.0 260.0 L 148.0 260.0 L 149.0 259.0 L 149.0 257.0 " stroke="black" fill="none" stroke-width="5.0" stroke-linecap="round" stroke-linejoin="round" />
<path d="M 148.0 197.0 L 148.0 197.0 L 148.0 197.0 L 147.0 197.0 L 147.0 197.0 L 147.0 197.0 L 146.0 196.0 L 146.0 196.0 L 146.0 196.0 L 146.0 196.0 L 147.0 196.0 L 147.0 196.0 L 148.0 196.0 L 149.0 196.0 L 150.0 196.0 L 151.0 196.0 L 152.0 196.0 L 153.0 196.0 L 155.0 196.0 L 156.0 196.0 L 158.0 196.0 L 159.0 196.0 L 161.0 196.0 L 163.0 196.0 L 164.0 196.0 L 166.0 196.0 L 167.0 196.0 L 168.0 196.0 L 169.0 196.0 L 169.0 196.0 L 170.0 196.0 L 171.0 196.0 L 172.0 196.0 L 173.0 196.0 L 174.0 196.0 L 176.0 196.0 L 177.0 196.0 L 178.0 197.0 L 179.0 197.0 L 181.0 197.0 L 182.0 197.0 L 183.0 197.0 L 185.0 197.0 L 186.0 197.0 L 187.0 197.0 L 188.0 197.0 L 189.0 197.0 L 190.0 197.0 L 191.0 197.0 L 192.0 197.0 L 193.0 198.0 L 193.0 198.0 L 194.0 198.0 L 195.0 198.0 L 196.0 198.0 L 197.0 198.0 L 198.0 198.0 L 199.0 198.0 L 200.0 198.0 L 201.0 198.0 L 202.0 198.0 L 204.0 198.0 L 205.0 198.0 L 206.0 197.0 L 207.0 197.0 L 208.0 197.0 L 209.0 197.0 L 211.0 197.0 L 212.0 197.0 L 213.0 197.0 L 214.0 197.0 L 215.0 197.0 L 216.0 197.0 L 218.0 197.0 L 219.0 197.0 L 220.0 197.0 L 221.0 197.0 L 223.0 197.0 L 224.0 197.0 L 225.0 197.0 L 226.0 197.0 L 227.0 197.0 L 228.0 197.0 L 228.0 197.0 L 229.0 197.0 L 229.0 197.0 L 230.0 197.0 L 230.0 197.0 L 230.0 197.0 L 230.0 197.0 L 231.0 197.0 L 231.0 198.0 L 231.0 198.0 L 231.0 199.0 L 231.0 199.0 L 231.0 200.0 L 231.0 202.0 L 231.0 203.0 L 231.0 206.0 L 231.0 209.0 L 231.0 213.0 L 231.0 218.0 L 231.0 225.0 L 231.0 231.0 L 231.0 237.0 L 231.0 242.0 L 231.0 246.0 L 231.0 249.0 L 231.0 250.0 L 231.0 252.0 L 231.0 252.0 L 231.0 252.0 L 231.0 251.0 " stroke="black" fill="none" stroke-width="5.0" stroke-linecap="round" stroke-linejoin="round" />
<path d="M 161.0 218.0 L 161.0 218.0 L 160.0 217.0 L 159.0 217.0 L 158.0 216.0 L 158.0 216.0 L 157.0 216.0 L 157.0 216.0 L 157.0 216.0 L 157.0 216.0 L 158.0 216.0 L 159.0 217.0 L 161.0 218.0 L 164.0 218.0 L 167.0 219.0 L 171.0 219.0 L 175.0 220.0 L 180.0 220.0 L 185.0 220.0 L 191.0 220.0 L 196.0 219.0 L 200.0 219.0 L 205.0 219.0 L 210.0 218.0 L 214.0 218.0 L 218.0 218.0 L 222.0 218.0 L 225.0 218.0 L 227.0 218.0 L 228.0 218.0 L 229.0 217.0 L 229.0 217.0 " stroke="black" fill="none" stroke-width="5.0" stroke-linecap="round" stroke-linejoin="round" />
<path d="M 157.0 247.0 L 157.0 247.0 L 156.0 247.0 L 155.0 247.0 L 154.0 247.0 L 154.0 247.0 L 154.0 247.0 L 153.0 247.0 L 153.0 247.0 L 153.0 247.0 L 154.0 247.0 L 155.0 247.0 L 158.0 248.0 L 161.0 248.0 L 164.0 248.0 L 169.0 248.0 L 175.0 248.0 L 181.0 248.0 L 186.0 248.0 L 192.0 248.0 L 197.0 248.0 L 201.0 248.0 L 206.0 248.0 L 210.0 248.0 L 214.0 248.0 L 218.0 247.0 L 221.0 247.0 L 224.0 247.0 L 225.0 247.0 L 226.0 247.0 L 226.0 247.0 L 226.0 247.0 L 226.0 247.0 L 226.0 247.0 " stroke="black" fill="none" stroke-width="5.0" stroke-linecap="round" stroke-linejoin="round" />
</svg>