<svg xmlns="http://www.w3.org/2000/svg" width="300" height="300" viewBox="0 0 300 300">
<path d="M 149.0 72.0 L 149.0 72.0 L 148.0 71.0 L 147.0 71.0 L 147.0 71.0 L 147.0 71.0 L 147.0 71.0 L 147.0 72.0 L 148.0 74.0 L 148.0 76.0 L 150.0 78.0 L 151.0 81.0 " stroke="black" fill="none" stroke-width="5.0" stroke-linecap="round" stroke-linejoin="round" />
<path d="M 95.0 95.0 L 92.0 95.0 L 89.0 95.0 L 86.0 95.0 L 83.0 95.0 L 81.0 95.0 L 81.0 95.0 L 80.0 95.0 L 82.0 95.0 L 86.0 95.0 L 90.0 95.0 L 96.0 95.0 L 101.0 95.0 L 108.0 95.0 L 115.0 95.0 L 125.0 95.0 L 138.0 94.0 L 150.0 94.0 L 163.0 93.0 L 177.0 93.0 L 187.0 93.0 L 195.0 93.0 L 200.0 93.0 L 204.0 93.0 L 208.0 93.0 L 212.0 93.0 L 215.0 93.0 L 218.0 94.0 " stroke="black" fill="none" stroke-width="5.0" stroke-linecap="round" stroke-linejoin="round" />
<path d="M 115.0 108.0 L 115.0 108.0 L 113.0 108.0 L 112.0 109.0 L 112.0 110.0 L 112.0 111.0 L 113.0 113.0 L 116.0 115.0 L 119.0 117.0 L 125.0 119.0 L 132.0 121.0 " stroke="black" fill="none" stroke-width="5.0" stroke-linecap="round" stroke-linejoin="round" />
<path d="M 189.0 100.0 L 189.0 100.0 L 187.0 101.0 L 185.0 101.0 L 184.0 102.0 L 182.0 103.0 L 180.0 105.0 L 177.0 106.0 L 174.0 109.0 L 169.0 111.0 L 163.0 115.0 L 157.0 118.0 L 151.0 121.0 L 145.0 125.0 " stroke="black" fill="none" stroke-width="5.0" stroke-linecap="round" stroke-linejoin="round" />
<path d="M 71.0 134.0 L 69.0 134.0 L 67.0 134.0 L 65.0 134.0 L 64.0 134.0 L 64.0 134.0 L 64.0 133.0 L 67.0 133.0 L 72.0 131.0 L 79.0 130.0 L 88.0 129.0 L 96.0 128.0 L 105.0 127.0 L 116.0 127.0 L 129.0 127.0 L 144.0 126.0 L 158.0 126.0 L 173.0 125.0 L 188.0 123.0 L 200.0 122.0 L 209.0 121.0 L 219.0 120.0 L 227.0 120.0 L 231.0 120.0 L 234.0 121.0 L 235.0 123.0 L 235.0 125.0 " stroke="black" fill="none" stroke-width="5.0" stroke-linecap="round" stroke-linejoin="round" />
<path d="M 103.0 153.0 L 103.0 153.0 L 102.0 152.0 L 102.0 152.0 L 101.0 151.0 L 101.0 151.0 L 100.0 151.0 L 100.0 153.0 L 100.0 155.0 L 100.0 159.0 L 100.0 164.0 L 100.0 170.0 L 100.0 178.0 L 100.0 186.0 L 101.0 194.0 L 101.0 200.0 L 102.0 205.0 L 103.0 207.0 L 103.0 207.0 L 103.0 206.0 L 103.0 205.0 " stroke="black" fill="none" stroke-width="5.0" stroke-linecap="round" stroke-linejoin="round" />
<path d="M 100.0 149.0 L 100.0 149.0 L 99.0 149.0 L 98.0 148.0 L 98.0 147.0 L 98.0 147.0 L 98.0 146.0 L 99.0 146.0 L 101.0 146.0 L 104.0 145.0 L 108.0 144.0 L 113.0 144.0 L 121.0 143.0 L 131.0 142.0 L 141.0 141.0 L 151.0 141.0 L 161.0 141.0 L 171.0 141.0 L 181.0 141.0 L 191.0 141.0 L 198.0 141.0 L 205.0 141.0 L 211.0 141.0 L 216.0 141.0 L 219.0 142.0 L 222.0 143.0 L 223.0 145.0 L 223.0 148.0 L 223.0 151.0 L 223.0 154.0 L 221.0 158.0 L 218.0 163.0 L 215.0 167.0 L 212.0 173.0 L 209.0 177.0 L 207.0 182.0 L 205.0 186.0 L 203.0 189.0 L 202.0 190.0 " stroke="black" fill="none" stroke-width="5.0" stroke-linecap="round" stroke-linejoin="round" />
<path d="M 118.0 173.0 L 117.0 173.0 L 114.0 173.0 L 111.0 173.0 L 110.0 173.0 L 110.0 173.0 L 110.0 173.0 L 110.0 172.0 L 113.0 171.0 L 117.0 171.0 L 122.0 170.0 L 130.0 169.0 L 138.0 168.0 L 146.0 167.0 L 154.0 166.0 L 163.0 166.0 L 172.0 165.0 L 181.0 165.0 L 187.0 165.0 L 190.0 165.0 " stroke="black" fill="none" stroke-width="5.0" stroke-linecap="round" stroke-linejoin="round" />
<path d="M 114.0 196.0 L 110.0 196.0 L 107.0 197.0 L 104.0 198.0 L 100.0 200.0 L 99.0 200.0 L 99.0 201.0 L 99.0 201.0 L 101.0 201.0 L 105.0 201.0 L 110.0 201.0 L 118.0 201.0 L 129.0 200.0 L 141.0 198.0 L 152.0 196.0 L 165.0 194.0 L 179.0 191.0 L 190.0 189.0 L 198.0 187.0 L 204.0 186.0 L 207.0 185.0 L 209.0 185.0 L 210.0 185.0 " stroke="black" fill="none" stroke-width="5.0" stroke-linecap="round" stroke-linejoin="round" />
<path d="M 69.0 228.0 L 68.0 228.0 L 66.0 229.0 L 64.0 230.0 L 62.0 230.0 L 61.0 231.0 L 60.0 232.0 L 60.0 232.0 L 61.0 232.0 L 64.0 232.0 L 67.0 232.0 L 73.0 232.0 L 82.0 232.0 L 92.0 232.0 L 103.0 232.0 L 116.0 233.0 L 132.0 233.0 L 147.0 234.0 L 160.0 234.0 L 173.0 234.0 L 187.0 234.0 L 197.0 234.0 L 205.0 234.0 L 212.0 234.0 L 220.0 234.0 L 225.0 235.0 L 229.0 236.0 L 232.0 236.0 L 233.0 236.0 L 233.0 236.0 L 233.0 236.0 " stroke="black" fill="none" stroke-width="5.0" stroke-linecap="round" stroke-linejoin="round" />
<path d="M 153.0 201.0 L 152.0 200.0 L 151.0 199.0 L 150.0 198.0 L 150.0 198.0 L 150.0 198.0 L 150.0 198.0 L 150.0 199.0 L 150.0 201.0 L 150.0 205.0 L 150.0 211.0 L 151.0 220.0 L 152.0 231.0 L 152.0 243.0 L 153.0 256.0 L 153.0 267.0 L 153.0 276.0 L 153.0 282.0 L 153.0 283.0 " stroke="black" fill="none" stroke-width="5.0" stroke-linecap="round" stroke-linejoin="round" />
</svg>