<svg xmlns="http://www.w3.org/2000/svg" width="300" height="300" viewBox="0 0 300 300">
<path d="M 70.0 90.0 L 70.0 90.0 L 69.0 90.0 L 69.0 90.0 L 69.0 90.0 L 68.0 90.0 L 68.0 90.0 L 68.0 91.0 L 68.0 91.0 L 68.0 91.0 L 68.0 91.0 L 69.0 91.0 L 71.0 91.0 L 74.0 90.0 L 79.0 88.0 L 85.0 87.0 L 93.0 84.0 L 101.0 82.0 L 108.0 79.0 L 115.0 76.0 L 119.0 74.0 L 123.0 73.0 L 126.0 71.0 " stroke="black" fill="none" stroke-width="5.0" stroke-linecap="round" stroke-linejoin="round" />
<path d="M 68.0 131.0 L 68.0 131.0 L 68.0 131.0 L 68.0 131.0 L 68.0 131.0 L 68.0 131.0 L 67.0 131.0 L 67.0 131.0 L 67.0 131.0 L 67.0 131.0 L 68.0 132.0 L 70.0 132.0 L 74.0 132.0 L 80.0 132.0 L 87.0 132.0 L 97.0 131.0 L 106.0 129.0 L 113.0 128.0 L 118.0 126.0 L 122.0 125.0 L 124.0 124.0 " stroke="black" fill="none" stroke-width="5.0" stroke-linecap="round" stroke-linejoin="round" />
<path d="M 100.0 89.0 L 100.0 89.0 L 100.0 89.0 L 100.0 89.0 L 100.0 89.0 L 100.0 89.0 L 100.0 89.0 L 100.0 89.0 L 100.0 89.0 L 100.0 89.0 L 100.0 90.0 L 100.0 92.0 L 100.0 94.0 L 100.0 97.0 L 100.0 100.0 L 100.0 105.0 L 100.0 109.0 L 100.0 114.0 L 99.0 118.0 L 99.0 122.0 L 98.0 126.0 L 98.0 131.0 L 97.0 134.0 L 97.0 138.0 L 97.0 142.0 L 97.0 147.0 L 97.0 150.0 L 97.0 154.0 L 97.0 157.0 L 97.0 161.0 L 98.0 164.0 L 98.0 166.0 L 98.0 169.0 L 99.0 172.0 L 99.0 175.0 L 99.0 177.0 L 99.0 180.0 L 99.0 182.0 L 99.0 185.0 L 99.0 188.0 L 99.0 190.0 L 99.0 192.0 L 99.0 194.0 L 99.0 196.0 L 100.0 198.0 L 100.0 200.0 L 100.0 201.0 L 100.0 203.0 L 100.0 205.0 L 100.0 207.0 L 100.0 209.0 L 100.0 211.0 L 100.0 213.0 L 100.0 215.0 L 100.0 217.0 L 100.0 219.0 L 100.0 221.0 L 100.0 224.0 L 100.0 227.0 L 100.0 229.0 L 100.0 232.0 L 100.0 235.0 L 100.0 237.0 L 100.0 240.0 L 100.0 242.0 L 100.0 244.0 L 101.0 246.0 L 101.0 247.0 L 101.0 249.0 L 101.0 250.0 L 101.0 251.0 L 101.0 251.0 L 101.0 252.0 L 101.0 252.0 L 101.0 252.0 " stroke="black" fill="none" stroke-width="5.0" stroke-linecap="round" stroke-linejoin="round" />
<path d="M 98.0 128.0 L 98.0 128.0 L 98.0 128.0 L 98.0 127.0 L 98.0 127.0 L 98.0 127.0 L 97.0 127.0 L 97.0 127.0 L 96.0 129.0 L 95.0 133.0 L 93.0 137.0 L 91.0 143.0 L 88.0 150.0 L 85.0 157.0 L 80.0 165.0 L 76.0 172.0 L 73.0 179.0 L 69.0 186.0 L 67.0 191.0 L 66.0 195.0 L 64.0 198.0 L 63.0 199.0 L 62.0 200.0 L 61.0 200.0 L 61.0 200.0 " stroke="black" fill="none" stroke-width="5.0" stroke-linecap="round" stroke-linejoin="round" />
<path d="M 101.0 158.0 L 101.0 157.0 L 100.0 156.0 L 100.0 155.0 L 100.0 154.0 L 100.0 154.0 L 100.0 153.0 L 100.0 152.0 L 101.0 152.0 L 102.0 152.0 L 103.0 154.0 L 105.0 156.0 L 107.0 159.0 L 108.0 160.0 L 112.0 165.0 L 115.0 168.0 L 118.0 172.0 L 121.0 175.0 L 124.0 177.0 " stroke="black" fill="none" stroke-width="5.0" stroke-linecap="round" stroke-linejoin="round" />
<path d="M 151.0 85.0 L 151.0 85.0 L 151.0 85.0 L 151.0 85.0 L 150.0 85.0 L 150.0 85.0 L 150.0 85.0 L 150.0 85.0 L 150.0 85.0 L 151.0 85.0 L 153.0 85.0 L 155.0 85.0 L 158.0 85.0 L 162.0 85.0 L 167.0 85.0 L 173.0 85.0 L 179.0 85.0 L 186.0 85.0 L 193.0 85.0 L 198.0 85.0 L 202.0 85.0 L 207.0 84.0 L 210.0 84.0 L 214.0 83.0 L 217.0 83.0 L 220.0 83.0 L 222.0 83.0 L 224.0 83.0 L 226.0 84.0 L 227.0 85.0 L 228.0 85.0 " stroke="black" fill="none" stroke-width="5.0" stroke-linecap="round" stroke-linejoin="round" />
<path d="M 153.0 109.0 L 153.0 109.0 L 153.0 109.0 L 153.0 109.0 L 152.0 109.0 L 152.0 109.0 L 152.0 109.0 L 152.0 109.0 L 154.0 109.0 L 157.0 109.0 L 162.0 109.0 L 168.0 109.0 L 175.0 109.0 L 184.0 108.0 L 192.0 108.0 L 199.0 107.0 L 204.0 106.0 L 209.0 105.0 L 211.0 104.0 " stroke="black" fill="none" stroke-width="5.0" stroke-linecap="round" stroke-linejoin="round" />
<path d="M 188.0 72.0 L 188.0 72.0 L 187.0 71.0 L 186.0 71.0 L 185.0 71.0 L 185.0 71.0 L 184.0 72.0 L 184.0 74.0 L 183.0 78.0 L 182.0 83.0 L 182.0 89.0 L 181.0 98.0 L 180.0 106.0 L 179.0 115.0 L 178.0 121.0 L 178.0 126.0 L 177.0 130.0 L 176.0 132.0 L 175.0 133.0 " stroke="black" fill="none" stroke-width="5.0" stroke-linecap="round" stroke-linejoin="round" />
<path d="M 147.0 127.0 L 146.0 127.0 L 144.0 127.0 L 142.0 127.0 L 141.0 127.0 L 139.0 127.0 L 138.0 127.0 L 138.0 127.0 L 138.0 127.0 L 138.0 127.0 L 139.0 127.0 L 141.0 126.0 L 143.0 126.0 L 146.0 126.0 L 149.0 125.0 L 153.0 125.0 L 156.0 125.0 L 161.0 125.0 L 167.0 126.0 L 175.0 126.0 L 183.0 126.0 L 192.0 126.0 L 200.0 126.0 L 208.0 125.0 L 214.0 124.0 L 221.0 123.0 L 225.0 122.0 L 230.0 122.0 L 234.0 122.0 L 237.0 122.0 L 239.0 122.0 L 239.0 123.0 L 240.0 123.0 " stroke="black" fill="none" stroke-width="5.0" stroke-linecap="round" stroke-linejoin="round" />
<path d="M 147.0 154.0 L 147.0 154.0 L 147.0 154.0 L 147.0 154.0 L 147.0 154.0 L 147.0 154.0 L 147.0 155.0 L 147.0 157.0 L 147.0 160.0 L 147.0 164.0 L 147.0 170.0 L 147.0 178.0 L 147.0 187.0 L 147.0 195.0 L 147.0 202.0 L 147.0 208.0 L 147.0 212.0 L 146.0 215.0 L 146.0 216.0 L 146.0 216.0 " stroke="black" fill="none" stroke-width="5.0" stroke-linecap="round" stroke-linejoin="round" />
<path d="M 153.0 152.0 L 153.0 152.0 L 153.0 151.0 L 153.0 151.0 L 153.0 151.0 L 152.0 151.0 L 152.0 151.0 L 152.0 151.0 L 152.0 151.0 L 152.0 152.0 L 152.0 152.0 L 152.0 153.0 L 152.0 153.0 L 153.0 154.0 L 154.0 154.0 L 155.0 154.0 L 157.0 154.0 L 159.0 154.0 L 161.0 154.0 L 164.0 154.0 L 166.0 154.0 L 169.0 154.0 L 172.0 153.0 L 174.0 153.0 L 177.0 152.0 L 179.0 152.0 L 182.0 151.0 L 184.0 151.0 L 187.0 150.0 L 189.0 149.0 L 190.0 149.0 L 192.0 148.0 L 194.0 148.0 L 195.0 147.0 L 196.0 147.0 L 197.0 147.0 L 198.0 147.0 L 199.0 147.0 L 200.0 147.0 L 200.0 147.0 L 201.0 147.0 L 202.0 147.0 L 203.0 147.0 L 203.0 146.0 L 204.0 146.0 L 205.0 146.0 L 206.0 146.0 L 207.0 146.0 L 208.0 146.0 L 209.0 146.0 L 210.0 146.0 L 211.0 146.0 L 212.0 146.0 L 213.0 146.0 L 214.0 146.0 L 215.0 146.0 L 217.0 146.0 L 217.0 146.0 L 218.0 146.0 L 219.0 146.0 L 220.0 146.0 L 221.0 146.0 L 221.0 146.0 L 222.0 146.0 L 222.0 146.0 L 223.0 146.0 L 223.0 146.0 L 224.0 146.0 L 224.0 146.0 L 224.0 146.0 L 225.0 147.0 L 225.0 147.0 L 225.0 147.0 L 225.0 147.0 L 225.0 148.0 L 225.0 148.0 L 225.0 149.0 L 225.0 149.0 L 225.0 150.0 L 225.0 150.0 L 225.0 151.0 L 225.0 152.0 L 225.0 153.0 L 225.0 154.0 L 225.0 156.0 L 224.0 159.0 L 224.0 161.0 L 223.0 165.0 L 223.0 169.0 L 222.0 174.0 L 222.0 179.0 L 221.0 185.0 L 221.0 191.0 L 221.0 197.0 L 220.0 203.0 L 220.0 208.0 L 220.0 212.0 L 220.0 216.0 L 220.0 219.0 L 220.0 221.0 L 220.0 224.0 L 219.0 226.0 L 218.0 227.0 L 217.0 228.0 L 216.0 229.0 L 216.0 229.0 " stroke="black" fill="none" stroke-width="5.0" stroke-linecap="round" stroke-linejoin="round" />
<path d="M 161.0 171.0 L 161.0 171.0 L 160.0 171.0 L 159.0 171.0 L 159.0 171.0 L 158.0 171.0 L 158.0 171.0 L 158.0 171.0 L 158.0 171.0 L 160.0 171.0 L 163.0 171.0 L 167.0 171.0 L 173.0 170.0 L 180.0 170.0 L 187.0 169.0 L 194.0 168.0 L 200.0 168.0 L 205.0 167.0 L 209.0 167.0 L 210.0 167.0 " stroke="black" fill="none" stroke-width="5.0" stroke-linecap="round" stroke-linejoin="round" />
<path d="M 162.0 196.0 L 161.0 196.0 L 161.0 196.0 L 160.0 196.0 L 159.0 196.0 L 158.0 196.0 L 157.0 196.0 L 157.0 196.0 L 157.0 196.0 L 157.0 196.0 L 157.0 196.0 L 160.0 196.0 L 164.0 196.0 L 171.0 195.0 L 178.0 195.0 L 186.0 194.0 L 193.0 193.0 L 199.0 192.0 L 204.0 192.0 L 208.0 192.0 L 210.0 192.0 " stroke="black" fill="none" stroke-width="5.0" stroke-linecap="round" stroke-linejoin="round" />
<path d="M 156.0 219.0 L 155.0 219.0 L 154.0 219.0 L 152.0 219.0 L 151.0 220.0 L 151.0 220.0 L 150.0 220.0 L 150.0 221.0 L 150.0 221.0 L 151.0 221.0 L 153.0 221.0 L 157.0 221.0 L 162.0 221.0 L 169.0 220.0 L 178.0 219.0 L 187.0 218.0 L 195.0 217.0 L 201.0 216.0 L 207.0 216.0 L 211.0 215.0 L 214.0 215.0 L 216.0 215.0 " stroke="black" fill="none" stroke-width="5.0" stroke-linecap="round" stroke-linejoin="round" />
<path d="M 175.0 236.0 L 175.0 235.0 L 175.0 234.0 L 175.0 233.0 L 175.0 233.0 L 175.0 232.0 L 174.0 232.0 L 173.0 232.0 L 171.0 232.0 L 169.0 234.0 L 166.0 236.0 L 162.0 239.0 L 159.0 242.0 L 155.0 245.0 L 151.0 249.0 L 147.0 251.0 L 142.0 254.0 L 138.0 256.0 L 134.0 257.0 " stroke="black" fill="none" stroke-width="5.0" stroke-linecap="round" stroke-linejoin="round" />
<path d="M 196.0 233.0 L 196.0 233.0 L 196.0 233.0 L 195.0 234.0 L 195.0 235.0 L 195.0 235.0 L 195.0 236.0 L 197.0 238.0 L 200.0 240.0 L 205.0 243.0 L 210.0 247.0 L 216.0 251.0 L 224.0 256.0 L 230.0 261.0 L 235.0 264.0 L 240.0 266.0 L 241.0 267.0 L 242.0 267.0 " stroke="black" fill="none" stroke-width="5.0" stroke-linecap="round" stroke-linejoin="round" />
</svg>