<svg xmlns="http://www.w3.org/2000/svg" width="300" height="300" viewBox="0 0 300 300">
<path d="M 70.0 88.0 L 70.0 88.0 L 70.0 88.0 L 70.0 88.0 L 70.0 88.0 L 70.0 88.0 L 70.0 88.0 L 70.0 88.0 L 70.0 88.0 L 70.0 88.0 L 70.0 88.0 L 70.0 87.0 L 71.0 87.0 L 73.0 87.0 L 75.0 86.0 L 79.0 86.0 L 83.0 85.0 L 87.0 84.0 L 93.0 84.0 L 97.0 83.0 L 101.0 82.0 L 105.0 81.0 L 108.0 80.0 L 111.0 78.0 L 113.0 77.0 L 114.0 76.0 " stroke="black" fill="none" stroke-width="5.0" stroke-linecap="round" stroke-linejoin="round" />
<path d="M 68.0 134.0 L 68.0 134.0 L 68.0 134.0 L 67.0 134.0 L 67.0 134.0 L 66.0 134.0 L 66.0 134.0 L 66.0 134.0 L 66.0 134.0 L 66.0 134.0 L 67.0 134.0 L 69.0 134.0 L 72.0 133.0 L 76.0 133.0 L 82.0 133.0 L 88.0 133.0 L 95.0 132.0 L 102.0 131.0 L 108.0 130.0 L 112.0 129.0 L 116.0 128.0 L 118.0 127.0 " stroke="black" fill="none" stroke-width="5.0" stroke-linecap="round" stroke-linejoin="round" />
<path d="M 101.0 87.0 L 101.0 87.0 L 100.0 87.0 L 100.0 87.0 L 100.0 87.0 L 99.0 87.0 L 99.0 87.0 L 99.0 89.0 L 99.0 91.0 L 99.0 94.0 L 99.0 98.0 L 99.0 103.0 L 99.0 109.0 L 99.0 116.0 L 99.0 123.0 L 99.0 131.0 L 99.0 139.0 L 99.0 148.0 L 99.0 156.0 L 98.0 163.0 L 98.0 169.0 L 98.0 175.0 L 98.0 181.0 L 97.0 188.0 L 97.0 195.0 L 97.0 200.0 L 97.0 206.0 L 97.0 211.0 L 97.0 216.0 L 97.0 222.0 L 97.0 228.0 L 97.0 233.0 L 97.0 238.0 L 96.0 242.0 L 96.0 246.0 L 96.0 249.0 L 96.0 253.0 L 96.0 256.0 L 96.0 258.0 L 96.0 259.0 L 96.0 260.0 L 96.0 259.0 " stroke="black" fill="none" stroke-width="5.0" stroke-linecap="round" stroke-linejoin="round" />
<path d="M 94.0 141.0 L 94.0 140.0 L 94.0 139.0 L 94.0 139.0 L 94.0 139.0 L 94.0 138.0 L 94.0 138.0 L 94.0 139.0 L 94.0 140.0 L 94.0 142.0 L 94.0 143.0 L 94.0 146.0 L 93.0 148.0 L 92.0 151.0 L 91.0 155.0 L 90.0 159.0 L 87.0 164.0 L 85.0 169.0 L 82.0 175.0 L 79.0 182.0 L 76.0 189.0 L 73.0 195.0 L 70.0 200.0 L 67.0 203.0 L 65.0 205.0 L 64.0 206.0 L 62.0 207.0 L 61.0 207.0 " stroke="black" fill="none" stroke-width="5.0" stroke-linecap="round" stroke-linejoin="round" />
<path d="M 103.0 146.0 L 103.0 145.0 L 103.0 145.0 L 102.0 144.0 L 102.0 143.0 L 102.0 143.0 L 102.0 143.0 L 101.0 143.0 L 101.0 143.0 L 101.0 143.0 L 101.0 144.0 L 101.0 146.0 L 102.0 148.0 L 103.0 151.0 L 104.0 155.0 L 105.0 158.0 L 107.0 163.0 L 108.0 167.0 L 111.0 171.0 L 113.0 174.0 L 116.0 177.0 L 118.0 178.0 L 121.0 180.0 L 122.0 180.0 " stroke="black" fill="none" stroke-width="5.0" stroke-linecap="round" stroke-linejoin="round" />
<path d="M 182.0 69.0 L 182.0 69.0 L 182.0 68.0 L 181.0 67.0 L 181.0 66.0 L 181.0 66.0 L 181.0 66.0 L 181.0 66.0 L 181.0 66.0 L 181.0 68.0 L 182.0 70.0 L 184.0 73.0 L 185.0 76.0 L 186.0 79.0 L 187.0 82.0 L 188.0 85.0 " stroke="black" fill="none" stroke-width="5.0" stroke-linecap="round" stroke-linejoin="round" />
<path d="M 139.0 95.0 L 139.0 95.0 L 138.0 95.0 L 137.0 95.0 L 137.0 95.0 L 136.0 95.0 L 136.0 95.0 L 136.0 95.0 L 137.0 94.0 L 138.0 94.0 L 140.0 94.0 L 143.0 94.0 L 145.0 94.0 L 148.0 94.0 L 152.0 94.0 L 156.0 94.0 L 163.0 94.0 L 170.0 94.0 L 178.0 94.0 L 187.0 94.0 L 193.0 94.0 L 199.0 94.0 L 204.0 94.0 L 209.0 94.0 L 214.0 94.0 L 219.0 94.0 L 224.0 94.0 L 227.0 95.0 L 230.0 96.0 L 231.0 98.0 L 232.0 100.0 L 232.0 102.0 " stroke="black" fill="none" stroke-width="5.0" stroke-linecap="round" stroke-linejoin="round" />
<path d="M 153.0 122.0 L 153.0 122.0 L 153.0 122.0 L 153.0 122.0 L 153.0 121.0 L 153.0 121.0 L 153.0 121.0 L 152.0 121.0 L 152.0 122.0 L 152.0 124.0 L 152.0 127.0 L 152.0 130.0 L 152.0 134.0 L 152.0 139.0 L 152.0 143.0 L 152.0 147.0 L 152.0 149.0 L 152.0 150.0 L 152.0 150.0 " stroke="black" fill="none" stroke-width="5.0" stroke-linecap="round" stroke-linejoin="round" />
<path d="M 153.0 122.0 L 153.0 122.0 L 152.0 122.0 L 152.0 122.0 L 152.0 122.0 L 151.0 122.0 L 151.0 122.0 L 151.0 122.0 L 151.0 122.0 L 152.0 122.0 L 154.0 122.0 L 156.0 122.0 L 158.0 122.0 L 161.0 122.0 L 165.0 122.0 L 169.0 122.0 L 173.0 122.0 L 179.0 122.0 L 184.0 122.0 L 188.0 121.0 L 193.0 121.0 L 196.0 121.0 L 199.0 120.0 L 202.0 120.0 L 204.0 120.0 L 206.0 120.0 L 209.0 120.0 L 211.0 121.0 L 213.0 121.0 L 215.0 122.0 L 217.0 123.0 L 219.0 123.0 L 220.0 124.0 L 221.0 125.0 L 221.0 125.0 L 222.0 126.0 L 222.0 126.0 L 222.0 127.0 L 222.0 127.0 L 222.0 128.0 L 222.0 128.0 L 222.0 129.0 L 221.0 130.0 L 220.0 132.0 L 219.0 133.0 L 217.0 135.0 L 215.0 137.0 L 213.0 140.0 L 211.0 142.0 L 210.0 144.0 L 208.0 146.0 L 207.0 147.0 L 206.0 148.0 " stroke="black" fill="none" stroke-width="5.0" stroke-linecap="round" stroke-linejoin="round" />
<path d="M 156.0 146.0 L 155.0 146.0 L 154.0 146.0 L 154.0 146.0 L 153.0 146.0 L 152.0 147.0 L 152.0 147.0 L 152.0 147.0 L 152.0 147.0 L 152.0 147.0 L 154.0 147.0 L 157.0 148.0 L 160.0 148.0 L 165.0 148.0 L 171.0 148.0 L 178.0 148.0 L 185.0 148.0 L 192.0 148.0 L 197.0 148.0 L 203.0 147.0 L 208.0 146.0 L 212.0 146.0 L 216.0 145.0 L 217.0 145.0 " stroke="black" fill="none" stroke-width="5.0" stroke-linecap="round" stroke-linejoin="round" />
<path d="M 140.0 173.0 L 140.0 173.0 L 140.0 173.0 L 140.0 173.0 L 140.0 172.0 L 140.0 172.0 L 140.0 172.0 L 139.0 171.0 L 139.0 171.0 L 139.0 171.0 L 139.0 172.0 L 139.0 173.0 L 139.0 175.0 L 139.0 178.0 L 140.0 182.0 L 140.0 186.0 L 140.0 192.0 L 140.0 199.0 L 140.0 206.0 L 140.0 214.0 L 140.0 221.0 L 140.0 228.0 L 140.0 234.0 L 140.0 238.0 L 140.0 240.0 L 140.0 240.0 " stroke="black" fill="none" stroke-width="5.0" stroke-linecap="round" stroke-linejoin="round" />
<path d="M 147.0 175.0 L 147.0 175.0 L 147.0 175.0 L 147.0 175.0 L 146.0 175.0 L 146.0 175.0 L 145.0 175.0 L 145.0 175.0 L 145.0 175.0 L 145.0 175.0 L 145.0 175.0 L 145.0 175.0 L 145.0 175.0 L 145.0 175.0 L 145.0 175.0 L 145.0 175.0 L 145.0 175.0 L 146.0 175.0 L 147.0 175.0 L 148.0 175.0 L 149.0 175.0 L 150.0 175.0 L 151.0 175.0 L 152.0 175.0 L 154.0 175.0 L 155.0 175.0 L 157.0 175.0 L 159.0 175.0 L 161.0 174.0 L 162.0 174.0 L 164.0 174.0 L 166.0 174.0 L 167.0 174.0 L 169.0 174.0 L 171.0 174.0 L 172.0 174.0 L 174.0 174.0 L 175.0 174.0 L 177.0 174.0 L 178.0 174.0 L 180.0 174.0 L 182.0 174.0 L 183.0 174.0 L 185.0 175.0 L 187.0 175.0 L 188.0 175.0 L 190.0 175.0 L 191.0 175.0 L 192.0 175.0 L 193.0 175.0 L 193.0 175.0 L 194.0 175.0 L 195.0 175.0 L 195.0 175.0 L 196.0 175.0 L 196.0 175.0 L 197.0 175.0 L 197.0 175.0 L 198.0 175.0 L 199.0 175.0 L 200.0 175.0 L 200.0 175.0 L 201.0 175.0 L 202.0 175.0 L 203.0 175.0 L 204.0 175.0 L 205.0 175.0 L 206.0 175.0 L 207.0 175.0 L 208.0 175.0 L 209.0 175.0 L 210.0 175.0 L 211.0 175.0 L 212.0 175.0 L 214.0 175.0 L 215.0 175.0 L 216.0 175.0 L 218.0 175.0 L 219.0 175.0 L 220.0 175.0 L 222.0 175.0 L 223.0 175.0 L 224.0 175.0 L 225.0 175.0 L 226.0 176.0 L 226.0 176.0 L 227.0 176.0 L 228.0 176.0 L 229.0 176.0 L 229.0 176.0 L 230.0 177.0 L 231.0 177.0 L 231.0 177.0 L 232.0 177.0 L 232.0 177.0 L 233.0 178.0 L 233.0 178.0 L 233.0 178.0 L 233.0 178.0 L 234.0 178.0 L 234.0 179.0 L 234.0 179.0 L 234.0 179.0 L 234.0 179.0 L 234.0 180.0 L 234.0 180.0 L 234.0 181.0 L 234.0 182.0 L 234.0 183.0 L 234.0 184.0 L 234.0 185.0 L 234.0 187.0 L 233.0 188.0 L 233.0 190.0 L 233.0 192.0 L 233.0 195.0 L 232.0 197.0 L 232.0 200.0 L 232.0 202.0 L 231.0 205.0 L 231.0 207.0 L 231.0 209.0 L 230.0 212.0 L 230.0 214.0 L 230.0 216.0 L 230.0 218.0 L 230.0 220.0 L 230.0 222.0 L 230.0 225.0 L 230.0 227.0 L 230.0 229.0 L 230.0 231.0 L 230.0 233.0 L 229.0 235.0 L 229.0 236.0 L 229.0 238.0 L 229.0 239.0 L 229.0 240.0 L 228.0 241.0 L 228.0 242.0 L 228.0 243.0 L 227.0 244.0 L 227.0 245.0 L 227.0 246.0 L 226.0 247.0 L 226.0 248.0 L 225.0 249.0 L 225.0 250.0 L 225.0 251.0 L 224.0 252.0 L 224.0 253.0 L 224.0 253.0 L 223.0 254.0 L 223.0 254.0 L 223.0 255.0 L 223.0 255.0 L 223.0 255.0 L 222.0 255.0 L 222.0 255.0 L 221.0 255.0 L 221.0 255.0 L 219.0 254.0 L 218.0 254.0 L 217.0 253.0 L 215.0 253.0 L 212.0 252.0 L 210.0 251.0 L 208.0 251.0 L 205.0 250.0 L 203.0 249.0 L 202.0 249.0 " stroke="black" fill="none" stroke-width="5.0" stroke-linecap="round" stroke-linejoin="round" />
<path d="M 157.0 199.0 L 157.0 199.0 L 157.0 199.0 L 157.0 199.0 L 157.0 199.0 L 157.0 199.0 L 158.0 200.0 L 158.0 201.0 L 158.0 203.0 L 159.0 206.0 L 159.0 209.0 L 160.0 214.0 L 160.0 220.0 L 160.0 225.0 L 160.0 229.0 L 160.0 233.0 L 160.0 235.0 L 160.0 235.0 L 160.0 235.0 L 160.0 234.0 L 160.0 232.0 " stroke="black" fill="none" stroke-width="5.0" stroke-linecap="round" stroke-linejoin="round" />
<path d="M 160.0 201.0 L 160.0 201.0 L 160.0 201.0 L 160.0 201.0 L 160.0 201.0 L 160.0 202.0 L 160.0 202.0 L 161.0 202.0 L 162.0 202.0 L 164.0 202.0 L 167.0 202.0 L 170.0 202.0 L 174.0 202.0 L 178.0 201.0 L 183.0 201.0 L 188.0 201.0 L 191.0 200.0 L 195.0 200.0 L 198.0 200.0 L 200.0 200.0 L 202.0 199.0 L 204.0 199.0 L 205.0 199.0 L 206.0 200.0 L 206.0 201.0 L 206.0 202.0 L 206.0 204.0 L 205.0 207.0 L 204.0 209.0 L 203.0 213.0 L 202.0 216.0 L 201.0 220.0 L 200.0 224.0 L 199.0 227.0 L 199.0 230.0 L 198.0 232.0 L 198.0 234.0 " stroke="black" fill="none" stroke-width="5.0" stroke-linecap="round" stroke-linejoin="round" />
<path d="M 168.0 231.0 L 167.0 231.0 L 164.0 231.0 L 162.0 231.0 L 161.0 231.0 L 160.0 232.0 L 160.0 232.0 L 160.0 233.0 L 160.0 233.0 L 161.0 234.0 L 163.0 234.0 L 165.0 234.0 L 168.0 234.0 L 172.0 234.0 L 176.0 234.0 L 180.0 234.0 L 184.0 233.0 L 188.0 233.0 L 192.0 233.0 L 195.0 233.0 L 198.0 233.0 L 201.0 232.0 L 203.0 232.0 L 204.0 232.0 L 205.0 232.0 " stroke="black" fill="none" stroke-width="5.0" stroke-linecap="round" stroke-linejoin="round" />
</svg>