<svg xmlns="http://www.w3.org/2000/svg" width="300" height="300" viewBox="0 0 300 300">
<path d="M 62.0 85.0 L 62.0 85.0 L 62.0 85.0 L 62.0 85.0 L 62.0 85.0 L 62.0 85.0 L 62.0 85.0 L 62.0 85.0 L 63.0 87.0 L 64.0 91.0 L 65.0 96.0 L 67.0 102.0 L 69.0 108.0 L 71.0 113.0 L 73.0 118.0 L 74.0 120.0 L 75.0 121.0 " stroke="black" fill="none" stroke-width="5.0" stroke-linecap="round" stroke-linejoin="round" />
<path d="M 113.0 81.0 L 113.0 81.0 L 113.0 81.0 L 113.0 81.0 L 113.0 81.0 L 114.0 81.0 L 114.0 81.0 L 114.0 81.0 L 114.0 82.0 L 114.0 85.0 L 113.0 89.0 L 112.0 95.0 L 111.0 101.0 L 110.0 107.0 L 109.0 113.0 L 108.0 117.0 L 108.0 119.0 " stroke="black" fill="none" stroke-width="5.0" stroke-linecap="round" stroke-linejoin="round" />
<path d="M 62.0 154.0 L 62.0 154.0 L 61.0 154.0 L 60.0 154.0 L 59.0 154.0 L 59.0 154.0 L 58.0 154.0 L 58.0 154.0 L 58.0 155.0 L 59.0 155.0 L 61.0 155.0 L 64.0 155.0 L 68.0 155.0 L 73.0 154.0 L 80.0 154.0 L 88.0 152.0 L 96.0 151.0 L 103.0 150.0 L 109.0 149.0 L 112.0 149.0 L 115.0 148.0 L 117.0 148.0 L 118.0 148.0 L 119.0 148.0 " stroke="black" fill="none" stroke-width="5.0" stroke-linecap="round" stroke-linejoin="round" />
<path d="M 96.0 83.0 L 96.0 83.0 L 96.0 84.0 L 96.0 85.0 L 95.0 87.0 L 95.0 89.0 L 95.0 92.0 L 94.0 96.0 L 94.0 102.0 L 94.0 109.0 L 94.0 116.0 L 94.0 125.0 L 94.0 134.0 L 94.0 144.0 L 94.0 155.0 L 94.0 164.0 L 94.0 173.0 L 93.0 183.0 L 93.0 192.0 L 93.0 202.0 L 93.0 211.0 L 93.0 219.0 L 93.0 227.0 L 93.0 234.0 L 93.0 239.0 L 93.0 242.0 L 93.0 244.0 L 93.0 244.0 L 93.0 245.0 L 91.0 245.0 L 91.0 245.0 " stroke="black" fill="none" stroke-width="5.0" stroke-linecap="round" stroke-linejoin="round" />
<path d="M 76.0 166.0 L 76.0 166.0 L 76.0 166.0 L 76.0 165.0 L 75.0 164.0 L 75.0 164.0 L 75.0 164.0 L 75.0 164.0 L 74.0 165.0 L 74.0 168.0 L 73.0 171.0 L 73.0 176.0 L 72.0 182.0 L 70.0 189.0 L 68.0 197.0 L 66.0 205.0 L 63.0 213.0 L 60.0 220.0 L 58.0 226.0 L 56.0 231.0 L 55.0 232.0 L 55.0 232.0 L 55.0 230.0 " stroke="black" fill="none" stroke-width="5.0" stroke-linecap="round" stroke-linejoin="round" />
<path d="M 105.0 165.0 L 105.0 165.0 L 104.0 165.0 L 103.0 165.0 L 103.0 165.0 L 102.0 165.0 L 102.0 165.0 L 102.0 165.0 L 102.0 166.0 L 103.0 168.0 L 105.0 171.0 L 107.0 174.0 L 109.0 178.0 L 111.0 182.0 L 114.0 187.0 L 116.0 191.0 L 118.0 195.0 L 120.0 197.0 " stroke="black" fill="none" stroke-width="5.0" stroke-linecap="round" stroke-linejoin="round" />
<path d="M 185.0 71.0 L 185.0 71.0 L 185.0 72.0 L 185.0 73.0 L 185.0 74.0 L 186.0 76.0 L 186.0 78.0 L 187.0 80.0 L 188.0 83.0 L 188.0 85.0 L 189.0 87.0 " stroke="black" fill="none" stroke-width="5.0" stroke-linecap="round" stroke-linejoin="round" />
<path d="M 146.0 96.0 L 146.0 96.0 L 145.0 96.0 L 144.0 97.0 L 144.0 97.0 L 144.0 97.0 L 143.0 97.0 L 143.0 97.0 L 143.0 97.0 L 143.0 97.0 L 143.0 97.0 L 143.0 97.0 L 143.0 97.0 L 143.0 97.0 L 143.0 97.0 L 143.0 97.0 L 143.0 97.0 L 144.0 97.0 L 144.0 97.0 L 145.0 97.0 L 145.0 97.0 L 146.0 97.0 L 147.0 97.0 L 147.0 97.0 L 148.0 97.0 L 149.0 96.0 L 149.0 96.0 L 150.0 96.0 L 151.0 96.0 L 151.0 96.0 L 152.0 96.0 L 153.0 95.0 L 154.0 95.0 L 155.0 95.0 L 155.0 95.0 L 156.0 95.0 L 157.0 95.0 L 158.0 95.0 L 159.0 95.0 L 159.0 95.0 L 160.0 95.0 L 161.0 95.0 L 162.0 95.0 L 163.0 95.0 L 164.0 95.0 L 164.0 95.0 L 165.0 95.0 L 166.0 95.0 L 167.0 95.0 L 168.0 95.0 L 169.0 95.0 L 170.0 95.0 L 171.0 95.0 L 172.0 95.0 L 173.0 95.0 L 174.0 95.0 L 175.0 95.0 L 175.0 95.0 L 176.0 95.0 L 177.0 95.0 L 177.0 95.0 L 178.0 95.0 L 179.0 95.0 L 179.0 94.0 L 180.0 94.0 L 180.0 94.0 L 181.0 94.0 L 182.0 94.0 L 182.0 94.0 L 183.0 94.0 L 183.0 94.0 L 184.0 94.0 L 185.0 94.0 L 185.0 94.0 L 186.0 94.0 L 186.0 94.0 L 187.0 94.0 L 187.0 94.0 L 188.0 94.0 L 189.0 94.0 L 189.0 94.0 L 190.0 94.0 L 191.0 95.0 L 191.0 95.0 L 192.0 95.0 L 193.0 95.0 L 193.0 95.0 L 194.0 95.0 L 194.0 95.0 L 195.0 95.0 L 196.0 95.0 L 197.0 95.0 L 198.0 95.0 L 198.0 95.0 L 200.0 95.0 L 201.0 95.0 L 202.0 95.0 L 203.0 95.0 L 204.0 95.0 L 206.0 94.0 L 207.0 94.0 L 209.0 94.0 L 211.0 94.0 L 213.0 94.0 L 215.0 94.0 L 217.0 94.0 L 219.0 94.0 L 221.0 94.0 L 223.0 94.0 L 224.0 94.0 L 226.0 94.0 L 227.0 94.0 L 229.0 95.0 L 230.0 95.0 L 231.0 95.0 L 232.0 95.0 L 233.0 95.0 L 234.0 95.0 L 235.0 95.0 L 235.0 95.0 " stroke="black" fill="none" stroke-width="5.0" stroke-linecap="round" stroke-linejoin="round" />
<path d="M 140.0 96.0 L 140.0 96.0 L 140.0 96.0 L 140.0 97.0 L 139.0 97.0 L 139.0 97.0 L 139.0 98.0 L 139.0 99.0 L 139.0 99.0 L 139.0 101.0 L 139.0 102.0 L 140.0 103.0 L 140.0 105.0 L 140.0 107.0 L 141.0 109.0 L 141.0 112.0 L 141.0 114.0 L 141.0 117.0 L 141.0 120.0 L 141.0 123.0 L 141.0 126.0 L 141.0 129.0 L 142.0 132.0 L 142.0 134.0 L 142.0 137.0 L 142.0 139.0 L 143.0 141.0 L 143.0 144.0 L 143.0 147.0 L 143.0 150.0 L 143.0 153.0 L 143.0 156.0 L 142.0 159.0 L 141.0 162.0 L 141.0 164.0 L 141.0 166.0 L 140.0 169.0 L 140.0 170.0 L 139.0 172.0 L 139.0 175.0 L 139.0 177.0 L 138.0 179.0 L 138.0 182.0 L 137.0 186.0 L 137.0 189.0 L 137.0 192.0 L 136.0 195.0 L 135.0 198.0 L 135.0 201.0 L 134.0 204.0 L 133.0 207.0 L 132.0 211.0 L 131.0 214.0 L 130.0 218.0 L 128.0 224.0 L 126.0 230.0 L 124.0 236.0 L 122.0 242.0 L 120.0 247.0 L 119.0 250.0 L 117.0 253.0 L 117.0 254.0 " stroke="black" fill="none" stroke-width="5.0" stroke-linecap="round" stroke-linejoin="round" />
<path d="M 162.0 119.0 L 162.0 119.0 L 161.0 119.0 L 160.0 119.0 L 160.0 120.0 L 160.0 120.0 L 159.0 120.0 L 159.0 120.0 L 159.0 120.0 L 159.0 120.0 L 160.0 120.0 L 161.0 120.0 L 163.0 120.0 L 165.0 120.0 L 166.0 120.0 L 168.0 121.0 L 170.0 121.0 L 172.0 121.0 L 174.0 121.0 L 177.0 121.0 L 179.0 121.0 L 182.0 121.0 L 184.0 121.0 L 187.0 121.0 L 189.0 120.0 L 191.0 120.0 L 192.0 120.0 L 194.0 120.0 L 195.0 120.0 L 196.0 120.0 L 197.0 120.0 L 198.0 120.0 L 200.0 120.0 L 201.0 120.0 L 202.0 120.0 L 203.0 120.0 L 205.0 120.0 L 206.0 120.0 L 208.0 120.0 L 209.0 120.0 L 210.0 120.0 L 211.0 120.0 L 212.0 120.0 L 214.0 120.0 L 214.0 120.0 L 215.0 121.0 L 216.0 121.0 L 217.0 121.0 L 218.0 121.0 L 219.0 121.0 L 219.0 121.0 L 220.0 121.0 L 221.0 121.0 L 221.0 121.0 L 222.0 121.0 L 222.0 121.0 L 223.0 122.0 L 223.0 122.0 L 223.0 122.0 L 223.0 123.0 L 223.0 123.0 L 223.0 124.0 L 223.0 124.0 L 223.0 125.0 L 223.0 127.0 L 223.0 128.0 L 223.0 131.0 L 223.0 134.0 L 223.0 138.0 L 223.0 143.0 L 222.0 149.0 L 222.0 155.0 L 222.0 160.0 L 222.0 165.0 L 222.0 168.0 L 222.0 170.0 L 221.0 171.0 L 221.0 171.0 L 221.0 171.0 L 220.0 171.0 " stroke="black" fill="none" stroke-width="5.0" stroke-linecap="round" stroke-linejoin="round" />
<path d="M 148.0 150.0 L 148.0 150.0 L 148.0 150.0 L 148.0 150.0 L 147.0 150.0 L 147.0 150.0 L 147.0 150.0 L 147.0 150.0 L 147.0 150.0 L 147.0 150.0 L 148.0 150.0 L 150.0 150.0 L 153.0 150.0 L 157.0 150.0 L 163.0 150.0 L 170.0 149.0 L 179.0 148.0 L 187.0 147.0 L 194.0 146.0 L 199.0 145.0 L 204.0 144.0 L 208.0 143.0 L 213.0 143.0 L 217.0 143.0 L 221.0 143.0 L 225.0 143.0 L 228.0 143.0 L 230.0 144.0 L 232.0 145.0 L 233.0 146.0 L 234.0 146.0 L 235.0 147.0 L 236.0 147.0 L 236.0 147.0 " stroke="black" fill="none" stroke-width="5.0" stroke-linecap="round" stroke-linejoin="round" />
<path d="M 155.0 174.0 L 155.0 174.0 L 155.0 174.0 L 154.0 174.0 L 154.0 174.0 L 154.0 174.0 L 153.0 174.0 L 153.0 174.0 L 154.0 174.0 L 155.0 174.0 L 157.0 174.0 L 161.0 173.0 L 166.0 173.0 L 171.0 173.0 L 178.0 173.0 L 185.0 172.0 L 192.0 171.0 L 199.0 170.0 L 204.0 169.0 L 210.0 168.0 L 215.0 168.0 L 219.0 167.0 L 223.0 166.0 L 225.0 166.0 " stroke="black" fill="none" stroke-width="5.0" stroke-linecap="round" stroke-linejoin="round" />
<path d="M 191.0 113.0 L 191.0 112.0 L 191.0 111.0 L 192.0 110.0 L 192.0 110.0 L 192.0 109.0 L 192.0 109.0 L 193.0 109.0 L 193.0 109.0 L 193.0 109.0 L 193.0 111.0 L 193.0 114.0 L 193.0 117.0 L 193.0 120.0 L 193.0 125.0 L 193.0 130.0 L 193.0 135.0 L 193.0 142.0 L 194.0 149.0 L 194.0 156.0 L 194.0 163.0 L 194.0 170.0 L 194.0 176.0 L 195.0 183.0 L 195.0 189.0 L 195.0 194.0 L 195.0 200.0 L 195.0 205.0 L 195.0 210.0 L 195.0 215.0 L 195.0 220.0 L 194.0 225.0 L 194.0 231.0 L 193.0 235.0 L 193.0 238.0 L 193.0 242.0 L 193.0 245.0 L 192.0 247.0 L 191.0 250.0 L 191.0 252.0 L 190.0 254.0 L 190.0 256.0 L 189.0 257.0 L 189.0 259.0 L 189.0 260.0 L 188.0 262.0 L 188.0 263.0 L 188.0 263.0 L 188.0 264.0 L 188.0 264.0 L 188.0 264.0 L 187.0 264.0 L 187.0 264.0 L 186.0 264.0 L 185.0 264.0 L 184.0 263.0 L 182.0 262.0 L 181.0 260.0 L 179.0 258.0 L 177.0 256.0 L 174.0 253.0 L 171.0 251.0 L 168.0 248.0 " stroke="black" fill="none" stroke-width="5.0" stroke-linecap="round" stroke-linejoin="round" />
<path d="M 155.0 190.0 L 155.0 190.0 L 154.0 190.0 L 154.0 190.0 L 153.0 190.0 L 153.0 190.0 L 153.0 191.0 L 155.0 192.0 L 157.0 194.0 L 159.0 196.0 L 162.0 198.0 L 166.0 201.0 L 169.0 203.0 L 172.0 205.0 L 175.0 207.0 L 177.0 208.0 L 178.0 210.0 L 178.0 211.0 " stroke="black" fill="none" stroke-width="5.0" stroke-linecap="round" stroke-linejoin="round" />
<path d="M 151.0 237.0 L 151.0 237.0 L 149.0 237.0 L 148.0 237.0 L 147.0 237.0 L 146.0 238.0 L 146.0 238.0 L 146.0 238.0 L 146.0 237.0 L 147.0 236.0 L 150.0 234.0 L 153.0 231.0 L 157.0 228.0 L 161.0 224.0 L 167.0 219.0 L 174.0 215.0 L 177.0 213.0 " stroke="black" fill="none" stroke-width="5.0" stroke-linecap="round" stroke-linejoin="round" />
<path d="M 232.0 185.0 L 232.0 184.0 L 232.0 183.0 L 232.0 182.0 L 232.0 180.0 L 232.0 179.0 L 232.0 179.0 L 232.0 178.0 L 232.0 178.0 L 232.0 178.0 L 231.0 180.0 L 230.0 182.0 L 228.0 185.0 L 226.0 189.0 L 222.0 193.0 L 218.0 197.0 L 214.0 201.0 L 209.0 205.0 L 205.0 208.0 L 202.0 211.0 L 200.0 213.0 L 199.0 213.0 " stroke="black" fill="none" stroke-width="5.0" stroke-linecap="round" stroke-linejoin="round" />
<path d="M 202.0 217.0 L 202.0 217.0 L 201.0 217.0 L 200.0 217.0 L 200.0 217.0 L 200.0 217.0 L 200.0 217.0 L 200.0 218.0 L 201.0 219.0 L 204.0 220.0 L 208.0 221.0 L 213.0 223.0 L 219.0 225.0 L 226.0 227.0 L 232.0 230.0 L 237.0 233.0 L 241.0 237.0 L 244.0 240.0 L 246.0 243.0 L 248.0 246.0 L 250.0 247.0 L 251.0 247.0 L 251.0 247.0 " stroke="black" fill="none" stroke-width="5.0" stroke-linecap="round" stroke-linejoin="round" />
</svg>