<svg xmlns="http://www.w3.org/2000/svg" width="300" height="300" viewBox="0 0 300 300">
<path d="M 61.0 90.0 L 61.0 90.0 L 61.0 90.0 L 60.0 89.0 L 60.0 89.0 L 60.0 89.0 L 60.0 89.0 L 61.0 91.0 L 63.0 94.0 L 65.0 98.0 L 68.0 102.0 L 71.0 106.0 L 74.0 111.0 L 76.0 115.0 L 80.0 119.0 L 81.0 120.0 " stroke="black" fill="none" stroke-width="5.0" stroke-linecap="round" stroke-linejoin="round" />
<path d="M 123.0 84.0 L 122.0 84.0 L 121.0 83.0 L 120.0 83.0 L 119.0 83.0 L 118.0 83.0 L 117.0 85.0 L 116.0 88.0 L 114.0 93.0 L 113.0 99.0 L 111.0 105.0 L 110.0 113.0 L 108.0 119.0 L 106.0 124.0 L 105.0 127.0 " stroke="black" fill="none" stroke-width="5.0" stroke-linecap="round" stroke-linejoin="round" />
<path d="M 61.0 151.0 L 60.0 151.0 L 59.0 151.0 L 57.0 151.0 L 56.0 151.0 L 55.0 151.0 L 55.0 151.0 L 55.0 151.0 L 56.0 151.0 L 58.0 150.0 L 61.0 150.0 L 67.0 150.0 L 74.0 149.0 L 83.0 148.0 L 93.0 146.0 L 103.0 145.0 L 111.0 143.0 L 117.0 142.0 L 121.0 142.0 L 122.0 142.0 " stroke="black" fill="none" stroke-width="5.0" stroke-linecap="round" stroke-linejoin="round" />
<path d="M 93.0 74.0 L 92.0 74.0 L 92.0 75.0 L 91.0 77.0 L 91.0 79.0 L 91.0 82.0 L 91.0 87.0 L 91.0 93.0 L 91.0 101.0 L 91.0 109.0 L 92.0 119.0 L 92.0 129.0 L 92.0 141.0 L 92.0 155.0 L 91.0 168.0 L 91.0 183.0 L 90.0 198.0 L 90.0 211.0 L 90.0 223.0 L 90.0 235.0 L 90.0 243.0 L 90.0 249.0 L 89.0 252.0 L 89.0 253.0 " stroke="black" fill="none" stroke-width="5.0" stroke-linecap="round" stroke-linejoin="round" />
<path d="M 76.0 173.0 L 76.0 173.0 L 76.0 172.0 L 75.0 171.0 L 75.0 171.0 L 75.0 171.0 L 74.0 171.0 L 74.0 173.0 L 73.0 177.0 L 71.0 184.0 L 69.0 191.0 L 66.0 200.0 L 64.0 208.0 L 63.0 214.0 L 62.0 218.0 " stroke="black" fill="none" stroke-width="5.0" stroke-linecap="round" stroke-linejoin="round" />
<path d="M 103.0 159.0 L 103.0 159.0 L 103.0 161.0 L 103.0 162.0 L 103.0 164.0 L 103.0 167.0 L 104.0 169.0 L 106.0 173.0 L 108.0 175.0 L 110.0 179.0 L 113.0 182.0 L 115.0 184.0 " stroke="black" fill="none" stroke-width="5.0" stroke-linecap="round" stroke-linejoin="round" />
<path d="M 152.0 81.0 L 152.0 81.0 L 151.0 81.0 L 150.0 81.0 L 150.0 81.0 L 150.0 81.0 L 150.0 81.0 L 151.0 81.0 L 154.0 82.0 L 159.0 82.0 L 165.0 83.0 L 174.0 83.0 L 183.0 84.0 L 193.0 84.0 L 204.0 83.0 L 216.0 82.0 L 227.0 81.0 L 234.0 80.0 L 239.0 80.0 " stroke="black" fill="none" stroke-width="5.0" stroke-linecap="round" stroke-linejoin="round" />
<path d="M 145.0 86.0 L 145.0 86.0 L 144.0 87.0 L 144.0 87.0 L 144.0 89.0 L 143.0 91.0 L 143.0 94.0 L 143.0 98.0 L 143.0 104.0 L 143.0 111.0 L 143.0 119.0 L 143.0 128.0 L 143.0 139.0 L 143.0 150.0 L 143.0 162.0 L 142.0 173.0 L 141.0 185.0 L 139.0 196.0 L 135.0 204.0 L 131.0 212.0 L 126.0 220.0 L 120.0 228.0 L 115.0 236.0 L 110.0 244.0 L 107.0 249.0 L 104.0 253.0 " stroke="black" fill="none" stroke-width="5.0" stroke-linecap="round" stroke-linejoin="round" />
<path d="M 159.0 121.0 L 159.0 121.0 L 159.0 121.0 L 158.0 120.0 L 157.0 120.0 L 157.0 120.0 L 157.0 120.0 L 157.0 121.0 L 157.0 125.0 L 157.0 129.0 L 157.0 135.0 L 158.0 143.0 L 158.0 152.0 L 158.0 162.0 L 158.0 171.0 L 157.0 179.0 L 156.0 186.0 L 155.0 189.0 L 155.0 190.0 L 155.0 190.0 " stroke="black" fill="none" stroke-width="5.0" stroke-linecap="round" stroke-linejoin="round" />
<path d="M 163.0 117.0 L 162.0 117.0 L 162.0 117.0 L 161.0 116.0 L 160.0 116.0 L 160.0 115.0 L 160.0 115.0 L 160.0 114.0 L 162.0 113.0 L 164.0 113.0 L 166.0 112.0 L 169.0 112.0 L 173.0 111.0 L 177.0 111.0 L 181.0 111.0 L 186.0 111.0 L 191.0 111.0 L 196.0 111.0 L 201.0 111.0 L 207.0 111.0 L 212.0 111.0 L 218.0 111.0 L 222.0 111.0 L 226.0 112.0 L 228.0 114.0 L 230.0 115.0 L 231.0 117.0 L 231.0 120.0 L 232.0 123.0 L 232.0 128.0 L 231.0 133.0 L 231.0 141.0 L 230.0 148.0 L 229.0 155.0 L 228.0 162.0 L 227.0 167.0 L 227.0 170.0 L 226.0 172.0 L 225.0 173.0 L 225.0 173.0 L 224.0 173.0 L 222.0 173.0 L 221.0 173.0 " stroke="black" fill="none" stroke-width="5.0" stroke-linecap="round" stroke-linejoin="round" />
<path d="M 168.0 149.0 L 167.0 149.0 L 165.0 148.0 L 163.0 147.0 L 162.0 147.0 L 162.0 147.0 L 163.0 147.0 L 166.0 146.0 L 171.0 146.0 L 178.0 146.0 L 185.0 146.0 L 191.0 145.0 L 198.0 145.0 L 204.0 145.0 L 210.0 145.0 L 216.0 145.0 L 220.0 146.0 L 223.0 148.0 L 225.0 150.0 L 225.0 151.0 " stroke="black" fill="none" stroke-width="5.0" stroke-linecap="round" stroke-linejoin="round" />
<path d="M 163.0 184.0 L 161.0 184.0 L 157.0 184.0 L 155.0 185.0 L 154.0 185.0 L 153.0 185.0 L 153.0 185.0 L 155.0 185.0 L 159.0 185.0 L 164.0 184.0 L 171.0 184.0 L 178.0 183.0 L 185.0 182.0 L 192.0 181.0 L 198.0 180.0 L 204.0 178.0 L 210.0 178.0 L 215.0 178.0 L 219.0 178.0 L 221.0 178.0 " stroke="black" fill="none" stroke-width="5.0" stroke-linecap="round" stroke-linejoin="round" />
<path d="M 156.0 208.0 L 155.0 208.0 L 153.0 208.0 L 152.0 208.0 L 151.0 208.0 L 151.0 208.0 L 151.0 208.0 L 151.0 208.0 L 152.0 208.0 L 155.0 208.0 L 160.0 208.0 L 166.0 207.0 L 174.0 207.0 L 181.0 207.0 L 189.0 206.0 L 197.0 206.0 L 204.0 205.0 L 213.0 204.0 L 220.0 202.0 L 226.0 201.0 L 231.0 201.0 L 233.0 200.0 L 234.0 200.0 " stroke="black" fill="none" stroke-width="5.0" stroke-linecap="round" stroke-linejoin="round" />
<path d="M 195.0 129.0 L 195.0 129.0 L 194.0 129.0 L 194.0 129.0 L 193.0 129.0 L 193.0 129.0 L 193.0 132.0 L 193.0 135.0 L 194.0 140.0 L 195.0 146.0 L 196.0 154.0 L 197.0 163.0 L 197.0 173.0 L 198.0 184.0 L 198.0 195.0 L 198.0 204.0 L 197.0 211.0 L 197.0 217.0 L 197.0 221.0 L 197.0 224.0 L 197.0 226.0 " stroke="black" fill="none" stroke-width="5.0" stroke-linecap="round" stroke-linejoin="round" />
<path d="M 142.0 240.0 L 142.0 240.0 L 141.0 240.0 L 141.0 240.0 L 141.0 239.0 L 141.0 239.0 L 142.0 239.0 L 144.0 239.0 L 148.0 239.0 L 153.0 239.0 L 160.0 239.0 L 169.0 239.0 L 180.0 239.0 L 190.0 238.0 L 199.0 236.0 L 209.0 235.0 L 217.0 233.0 L 226.0 231.0 L 232.0 230.0 L 235.0 229.0 L 237.0 229.0 L 238.0 230.0 L 238.0 232.0 L 238.0 235.0 L 238.0 237.0 " stroke="black" fill="none" stroke-width="5.0" stroke-linecap="round" stroke-linejoin="round" />
</svg>