<svg xmlns="http://www.w3.org/2000/svg" width="300" height="300" viewBox="0 0 300 300">
<path d="M 62.0 84.0 L 62.0 84.0 L 62.0 83.0 L 61.0 83.0 L 61.0 82.0 L 61.0 82.0 L 60.0 82.0 L 60.0 82.0 L 60.0 82.0 L 61.0 84.0 L 62.0 87.0 L 63.0 91.0 L 65.0 96.0 L 66.0 101.0 L 68.0 107.0 L 71.0 113.0 L 73.0 118.0 L 75.0 122.0 L 77.0 126.0 L 77.0 127.0 " stroke="black" fill="none" stroke-width="5.0" stroke-linecap="round" stroke-linejoin="round" />
<path d="M 128.0 83.0 L 128.0 83.0 L 128.0 83.0 L 128.0 83.0 L 128.0 83.0 L 128.0 83.0 L 128.0 84.0 L 128.0 84.0 L 127.0 87.0 L 126.0 90.0 L 124.0 96.0 L 122.0 102.0 L 119.0 109.0 L 117.0 116.0 L 116.0 118.0 " stroke="black" fill="none" stroke-width="5.0" stroke-linecap="round" stroke-linejoin="round" />
<path d="M 59.0 146.0 L 59.0 146.0 L 59.0 146.0 L 59.0 146.0 L 59.0 146.0 L 59.0 145.0 L 59.0 145.0 L 59.0 145.0 L 59.0 145.0 L 60.0 145.0 L 60.0 145.0 L 62.0 145.0 L 63.0 145.0 L 65.0 145.0 L 68.0 145.0 L 72.0 145.0 L 77.0 145.0 L 84.0 145.0 L 91.0 145.0 L 98.0 145.0 L 105.0 145.0 L 110.0 145.0 L 115.0 145.0 L 120.0 144.0 L 123.0 143.0 L 126.0 143.0 L 129.0 143.0 L 130.0 143.0 L 130.0 143.0 " stroke="black" fill="none" stroke-width="5.0" stroke-linecap="round" stroke-linejoin="round" />
<path d="M 98.0 77.0 L 98.0 77.0 L 98.0 78.0 L 98.0 80.0 L 98.0 81.0 L 98.0 83.0 L 98.0 85.0 L 98.0 87.0 L 98.0 90.0 L 98.0 94.0 L 98.0 98.0 L 98.0 103.0 L 98.0 108.0 L 98.0 112.0 L 98.0 116.0 L 98.0 120.0 L 98.0 123.0 L 98.0 126.0 L 98.0 129.0 L 98.0 132.0 L 98.0 135.0 L 98.0 138.0 L 97.0 142.0 L 97.0 145.0 L 97.0 148.0 L 97.0 151.0 L 97.0 154.0 L 97.0 156.0 L 97.0 158.0 L 97.0 161.0 L 97.0 162.0 L 97.0 164.0 L 97.0 166.0 L 97.0 168.0 L 96.0 170.0 L 96.0 173.0 L 96.0 175.0 L 96.0 177.0 L 96.0 179.0 L 96.0 181.0 L 96.0 184.0 L 96.0 186.0 L 96.0 188.0 L 96.0 190.0 L 96.0 193.0 L 95.0 195.0 L 95.0 196.0 L 95.0 198.0 L 95.0 200.0 L 95.0 201.0 L 95.0 203.0 L 95.0 204.0 L 95.0 206.0 L 95.0 207.0 L 95.0 209.0 L 95.0 211.0 L 95.0 213.0 L 94.0 214.0 L 94.0 216.0 L 94.0 219.0 L 94.0 221.0 L 94.0 223.0 L 94.0 225.0 L 94.0 227.0 L 94.0 229.0 L 94.0 232.0 L 94.0 234.0 L 94.0 235.0 L 94.0 237.0 L 94.0 239.0 L 94.0 241.0 L 94.0 243.0 L 94.0 244.0 L 94.0 245.0 L 94.0 247.0 L 94.0 248.0 L 94.0 249.0 L 94.0 251.0 L 94.0 252.0 L 94.0 253.0 L 94.0 254.0 L 93.0 255.0 L 93.0 256.0 L 93.0 256.0 L 93.0 256.0 L 93.0 256.0 " stroke="black" fill="none" stroke-width="5.0" stroke-linecap="round" stroke-linejoin="round" />
<path d="M 82.0 168.0 L 82.0 168.0 L 81.0 169.0 L 80.0 170.0 L 80.0 170.0 L 79.0 171.0 L 79.0 172.0 L 79.0 173.0 L 78.0 174.0 L 78.0 176.0 L 76.0 178.0 L 75.0 182.0 L 73.0 187.0 L 71.0 193.0 L 68.0 199.0 L 66.0 205.0 L 64.0 210.0 L 63.0 214.0 " stroke="black" fill="none" stroke-width="5.0" stroke-linecap="round" stroke-linejoin="round" />
<path d="M 112.0 170.0 L 112.0 170.0 L 112.0 170.0 L 111.0 170.0 L 111.0 170.0 L 110.0 170.0 L 110.0 170.0 L 110.0 170.0 L 110.0 170.0 L 110.0 170.0 L 111.0 171.0 L 113.0 173.0 L 115.0 176.0 L 118.0 179.0 L 121.0 184.0 L 124.0 189.0 L 127.0 195.0 L 130.0 200.0 L 131.0 203.0 " stroke="black" fill="none" stroke-width="5.0" stroke-linecap="round" stroke-linejoin="round" />
<path d="M 160.0 90.0 L 160.0 90.0 L 160.0 90.0 L 160.0 90.0 L 160.0 89.0 L 160.0 89.0 L 160.0 89.0 L 160.0 89.0 L 160.0 89.0 L 160.0 90.0 L 160.0 92.0 L 159.0 96.0 L 158.0 101.0 L 157.0 107.0 L 155.0 115.0 L 153.0 123.0 L 151.0 130.0 L 149.0 137.0 L 148.0 142.0 L 147.0 146.0 " stroke="black" fill="none" stroke-width="5.0" stroke-linecap="round" stroke-linejoin="round" />
<path d="M 187.0 80.0 L 187.0 80.0 L 187.0 80.0 L 186.0 81.0 L 186.0 81.0 L 186.0 81.0 L 185.0 81.0 L 185.0 81.0 L 185.0 81.0 L 185.0 81.0 L 185.0 81.0 L 185.0 80.0 L 185.0 80.0 L 185.0 80.0 L 185.0 80.0 L 186.0 80.0 L 186.0 79.0 L 187.0 79.0 L 187.0 79.0 L 188.0 79.0 L 188.0 79.0 L 189.0 79.0 L 190.0 79.0 L 191.0 79.0 L 191.0 79.0 L 192.0 79.0 L 193.0 79.0 L 194.0 79.0 L 194.0 80.0 L 195.0 80.0 L 196.0 80.0 L 197.0 80.0 L 198.0 80.0 L 199.0 80.0 L 200.0 80.0 L 200.0 80.0 L 201.0 80.0 L 202.0 80.0 L 203.0 80.0 L 203.0 80.0 L 204.0 80.0 L 205.0 80.0 L 205.0 80.0 L 206.0 80.0 L 206.0 80.0 L 207.0 80.0 L 208.0 80.0 L 208.0 80.0 L 209.0 80.0 L 209.0 80.0 L 209.0 81.0 L 210.0 81.0 L 210.0 81.0 L 210.0 81.0 L 211.0 81.0 L 211.0 82.0 L 211.0 82.0 L 211.0 82.0 L 211.0 82.0 L 211.0 83.0 L 211.0 83.0 L 211.0 84.0 L 211.0 84.0 L 211.0 85.0 L 211.0 86.0 L 211.0 87.0 L 211.0 89.0 L 212.0 90.0 L 212.0 92.0 L 212.0 94.0 L 213.0 96.0 L 213.0 98.0 L 214.0 100.0 L 214.0 102.0 L 215.0 104.0 L 216.0 106.0 L 217.0 108.0 L 218.0 111.0 L 219.0 113.0 L 220.0 115.0 L 221.0 118.0 L 223.0 120.0 L 224.0 122.0 L 225.0 123.0 L 226.0 125.0 L 227.0 126.0 L 228.0 127.0 L 229.0 129.0 L 230.0 130.0 L 230.0 131.0 L 231.0 132.0 L 232.0 133.0 L 233.0 134.0 L 234.0 136.0 L 235.0 137.0 L 235.0 138.0 L 236.0 139.0 L 237.0 140.0 L 237.0 141.0 L 238.0 142.0 L 238.0 142.0 L 238.0 143.0 L 238.0 143.0 L 239.0 143.0 L 239.0 144.0 " stroke="black" fill="none" stroke-width="5.0" stroke-linecap="round" stroke-linejoin="round" />
<path d="M 153.0 157.0 L 153.0 157.0 L 153.0 157.0 L 153.0 157.0 L 153.0 157.0 L 153.0 158.0 L 153.0 158.0 L 153.0 158.0 L 153.0 158.0 L 153.0 158.0 L 153.0 159.0 L 153.0 159.0 L 154.0 159.0 L 155.0 159.0 L 156.0 159.0 L 157.0 159.0 L 158.0 160.0 L 160.0 160.0 L 161.0 160.0 L 163.0 160.0 L 164.0 161.0 L 166.0 161.0 L 168.0 161.0 L 170.0 161.0 L 173.0 161.0 L 175.0 161.0 L 177.0 162.0 L 179.0 162.0 L 181.0 162.0 L 183.0 162.0 L 184.0 162.0 L 185.0 162.0 L 186.0 162.0 L 187.0 162.0 L 188.0 162.0 L 189.0 162.0 L 190.0 162.0 L 190.0 162.0 L 191.0 162.0 L 191.0 162.0 L 192.0 162.0 L 192.0 162.0 L 193.0 162.0 L 193.0 162.0 L 194.0 163.0 L 194.0 163.0 L 195.0 163.0 L 196.0 163.0 L 196.0 163.0 L 197.0 163.0 L 197.0 163.0 L 198.0 164.0 L 199.0 164.0 L 200.0 164.0 L 200.0 164.0 L 201.0 164.0 L 202.0 164.0 L 203.0 164.0 L 203.0 164.0 L 204.0 164.0 L 205.0 164.0 L 206.0 164.0 L 207.0 164.0 L 208.0 164.0 L 209.0 164.0 L 211.0 165.0 L 212.0 165.0 L 213.0 165.0 L 214.0 165.0 L 215.0 165.0 L 217.0 165.0 L 218.0 165.0 L 219.0 165.0 L 220.0 165.0 L 221.0 165.0 L 222.0 165.0 L 223.0 165.0 L 224.0 165.0 L 224.0 165.0 L 225.0 165.0 L 225.0 165.0 L 225.0 165.0 L 226.0 165.0 L 226.0 165.0 L 226.0 165.0 L 226.0 166.0 L 226.0 166.0 L 226.0 166.0 L 226.0 166.0 L 226.0 167.0 L 226.0 168.0 L 226.0 168.0 L 226.0 169.0 L 226.0 170.0 L 226.0 171.0 L 226.0 173.0 L 225.0 174.0 L 225.0 175.0 L 225.0 177.0 L 225.0 179.0 L 224.0 182.0 L 224.0 184.0 L 223.0 187.0 L 223.0 190.0 L 222.0 193.0 L 221.0 196.0 L 221.0 198.0 L 220.0 201.0 L 220.0 203.0 L 219.0 205.0 L 219.0 207.0 L 218.0 209.0 L 218.0 211.0 L 218.0 213.0 L 217.0 214.0 L 217.0 216.0 L 216.0 217.0 L 216.0 219.0 L 215.0 221.0 L 215.0 223.0 L 214.0 225.0 L 214.0 227.0 L 213.0 229.0 L 213.0 231.0 L 213.0 233.0 L 212.0 234.0 L 212.0 236.0 L 211.0 237.0 L 211.0 238.0 L 211.0 239.0 L 210.0 240.0 L 210.0 241.0 L 210.0 241.0 L 209.0 242.0 L 209.0 243.0 L 209.0 244.0 L 209.0 244.0 L 208.0 245.0 L 208.0 245.0 L 208.0 245.0 L 207.0 246.0 L 207.0 246.0 L 207.0 247.0 L 206.0 247.0 L 206.0 248.0 L 206.0 248.0 L 206.0 248.0 L 205.0 249.0 L 205.0 249.0 L 205.0 249.0 L 205.0 250.0 L 205.0 250.0 L 204.0 250.0 L 204.0 250.0 L 204.0 250.0 L 204.0 250.0 L 204.0 250.0 L 203.0 250.0 L 203.0 251.0 L 203.0 251.0 L 203.0 251.0 L 202.0 251.0 L 202.0 251.0 L 202.0 251.0 L 202.0 251.0 L 202.0 251.0 L 201.0 251.0 L 201.0 251.0 L 200.0 251.0 L 200.0 251.0 L 199.0 251.0 L 198.0 251.0 L 197.0 250.0 L 196.0 250.0 L 194.0 249.0 L 193.0 248.0 L 192.0 246.0 L 190.0 244.0 " stroke="black" fill="none" stroke-width="5.0" stroke-linecap="round" stroke-linejoin="round" />
<path d="M 177.0 168.0 L 177.0 168.0 L 177.0 168.0 L 177.0 167.0 L 177.0 167.0 L 178.0 167.0 L 178.0 167.0 L 178.0 167.0 L 178.0 167.0 L 178.0 167.0 L 178.0 168.0 L 178.0 170.0 L 178.0 172.0 L 178.0 175.0 L 177.0 179.0 L 177.0 183.0 L 177.0 188.0 L 176.0 192.0 L 175.0 196.0 L 175.0 200.0 L 174.0 204.0 L 173.0 207.0 L 172.0 210.0 L 171.0 213.0 L 170.0 216.0 L 169.0 218.0 L 168.0 221.0 L 166.0 224.0 L 164.0 227.0 L 162.0 231.0 L 160.0 234.0 L 158.0 237.0 L 156.0 239.0 L 154.0 241.0 L 153.0 243.0 L 151.0 245.0 L 150.0 246.0 L 148.0 247.0 L 146.0 248.0 L 145.0 249.0 L 143.0 250.0 L 141.0 251.0 " stroke="black" fill="none" stroke-width="5.0" stroke-linecap="round" stroke-linejoin="round" />
</svg>