<svg xmlns="http://www.w3.org/2000/svg" width="300" height="300" viewBox="0 0 300 300">
<path d="M 116.0 67.0 L 116.0 67.0 L 116.0 66.0 L 116.0 66.0 L 116.0 66.0 L 116.0 66.0 L 116.0 66.0 L 116.0 67.0 L 116.0 69.0 L 116.0 73.0 L 116.0 77.0 L 116.0 82.0 L 116.0 88.0 L 115.0 94.0 L 115.0 101.0 L 115.0 105.0 L 115.0 108.0 L 115.0 110.0 L 115.0 111.0 " stroke="black" fill="none" stroke-width="5.0" stroke-linecap="round" stroke-linejoin="round" />
<path d="M 120.0 87.0 L 120.0 87.0 L 120.0 87.0 L 120.0 87.0 L 120.0 87.0 L 120.0 87.0 L 120.0 87.0 L 121.0 87.0 L 124.0 87.0 L 127.0 87.0 L 130.0 87.0 L 134.0 87.0 L 138.0 87.0 L 141.0 87.0 " stroke="black" fill="none" stroke-width="5.0" stroke-linecap="round" stroke-linejoin="round" />
<path d="M 94.0 96.0 L 94.0 96.0 L 94.0 96.0 L 94.0 96.0 L 94.0 96.0 L 94.0 96.0 L 94.0 96.0 L 94.0 97.0 L 94.0 98.0 L 94.0 100.0 L 93.0 102.0 L 90.0 106.0 L 87.0 111.0 L 82.0 116.0 L 77.0 122.0 L 72.0 127.0 L 68.0 132.0 L 66.0 134.0 L 65.0 134.0 L 65.0 134.0 " stroke="black" fill="none" stroke-width="5.0" stroke-linecap="round" stroke-linejoin="round" />
<path d="M 79.0 117.0 L 79.0 117.0 L 79.0 117.0 L 79.0 116.0 L 79.0 116.0 L 79.0 116.0 L 80.0 115.0 L 80.0 115.0 L 81.0 115.0 L 82.0 114.0 L 83.0 114.0 L 85.0 114.0 L 87.0 114.0 L 89.0 114.0 L 91.0 114.0 L 94.0 114.0 L 96.0 113.0 L 99.0 113.0 L 102.0 113.0 L 105.0 112.0 L 107.0 112.0 L 110.0 111.0 L 112.0 111.0 L 114.0 111.0 L 116.0 111.0 L 119.0 110.0 L 122.0 110.0 L 125.0 110.0 L 127.0 110.0 L 130.0 110.0 L 133.0 110.0 L 136.0 110.0 L 138.0 110.0 L 139.0 110.0 L 141.0 110.0 L 142.0 110.0 L 142.0 110.0 L 143.0 110.0 L 143.0 110.0 L 143.0 110.0 L 143.0 111.0 L 143.0 111.0 L 143.0 112.0 L 143.0 112.0 L 142.0 113.0 L 142.0 113.0 L 141.0 114.0 L 140.0 115.0 L 139.0 116.0 L 139.0 118.0 L 137.0 119.0 L 136.0 121.0 L 134.0 123.0 L 132.0 125.0 L 129.0 127.0 L 126.0 130.0 L 122.0 133.0 L 118.0 136.0 L 114.0 140.0 L 109.0 144.0 L 105.0 148.0 L 101.0 152.0 L 98.0 155.0 L 93.0 157.0 L 87.0 160.0 L 82.0 162.0 L 75.0 164.0 L 70.0 165.0 L 66.0 165.0 " stroke="black" fill="none" stroke-width="5.0" stroke-linecap="round" stroke-linejoin="round" />
<path d="M 85.0 127.0 L 85.0 127.0 L 85.0 127.0 L 85.0 127.0 L 85.0 127.0 L 85.0 128.0 L 85.0 128.0 L 87.0 128.0 L 89.0 129.0 L 92.0 130.0 L 95.0 132.0 L 99.0 135.0 L 104.0 138.0 L 107.0 140.0 L 111.0 143.0 " stroke="black" fill="none" stroke-width="5.0" stroke-linecap="round" stroke-linejoin="round" />
<path d="M 166.0 94.0 L 166.0 94.0 L 166.0 94.0 L 166.0 93.0 L 166.0 93.0 L 166.0 93.0 L 166.0 93.0 L 166.0 92.0 L 166.0 92.0 L 167.0 92.0 L 168.0 92.0 L 170.0 92.0 L 173.0 92.0 L 176.0 92.0 L 180.0 92.0 L 184.0 93.0 L 188.0 93.0 L 192.0 93.0 L 197.0 93.0 L 201.0 93.0 L 205.0 93.0 L 210.0 93.0 L 215.0 93.0 L 218.0 93.0 L 222.0 93.0 L 224.0 93.0 L 225.0 93.0 L 226.0 93.0 L 226.0 93.0 L 226.0 93.0 L 226.0 93.0 L 226.0 93.0 L 226.0 93.0 L 226.0 93.0 L 225.0 93.0 L 225.0 94.0 L 224.0 95.0 L 224.0 95.0 L 223.0 96.0 L 222.0 98.0 L 221.0 99.0 L 220.0 101.0 L 218.0 104.0 L 216.0 106.0 L 214.0 109.0 L 211.0 111.0 L 209.0 114.0 L 205.0 118.0 L 201.0 121.0 L 198.0 125.0 L 194.0 129.0 L 191.0 132.0 L 188.0 136.0 L 185.0 139.0 L 181.0 142.0 L 178.0 144.0 L 174.0 146.0 L 170.0 148.0 L 166.0 149.0 L 162.0 149.0 L 159.0 149.0 L 156.0 148.0 " stroke="black" fill="none" stroke-width="5.0" stroke-linecap="round" stroke-linejoin="round" />
<path d="M 168.0 98.0 L 167.0 98.0 L 167.0 98.0 L 167.0 98.0 L 166.0 98.0 L 166.0 98.0 L 166.0 98.0 L 166.0 99.0 L 167.0 100.0 L 169.0 102.0 L 171.0 104.0 L 173.0 106.0 L 175.0 108.0 L 178.0 111.0 L 182.0 114.0 L 185.0 117.0 L 189.0 120.0 L 193.0 123.0 L 196.0 126.0 L 201.0 128.0 L 206.0 131.0 L 211.0 133.0 L 217.0 135.0 L 223.0 137.0 L 229.0 140.0 L 233.0 143.0 L 237.0 145.0 L 240.0 148.0 L 242.0 150.0 L 244.0 152.0 L 246.0 153.0 L 248.0 154.0 L 250.0 155.0 L 250.0 155.0 L 250.0 156.0 " stroke="black" fill="none" stroke-width="5.0" stroke-linecap="round" stroke-linejoin="round" />
<path d="M 101.0 172.0 L 101.0 172.0 L 101.0 172.0 L 101.0 173.0 L 102.0 173.0 L 102.0 174.0 L 103.0 175.0 L 105.0 177.0 L 108.0 180.0 L 111.0 183.0 L 115.0 186.0 L 120.0 189.0 L 123.0 190.0 " stroke="black" fill="none" stroke-width="5.0" stroke-linecap="round" stroke-linejoin="round" />
<path d="M 202.0 167.0 L 202.0 167.0 L 202.0 167.0 L 202.0 167.0 L 202.0 167.0 L 202.0 168.0 L 201.0 168.0 L 200.0 169.0 L 198.0 171.0 L 195.0 174.0 L 191.0 178.0 L 187.0 183.0 L 182.0 189.0 L 179.0 191.0 " stroke="black" fill="none" stroke-width="5.0" stroke-linecap="round" stroke-linejoin="round" />
<path d="M 65.0 201.0 L 65.0 201.0 L 65.0 201.0 L 65.0 201.0 L 65.0 201.0 L 65.0 201.0 L 65.0 201.0 L 65.0 201.0 L 65.0 201.0 L 65.0 201.0 L 65.0 201.0 L 65.0 201.0 L 65.0 201.0 L 65.0 201.0 L 66.0 201.0 L 67.0 201.0 L 68.0 201.0 L 69.0 201.0 L 70.0 201.0 L 72.0 201.0 L 74.0 201.0 L 75.0 201.0 L 77.0 201.0 L 79.0 201.0 L 81.0 201.0 L 83.0 201.0 L 85.0 201.0 L 87.0 201.0 L 88.0 201.0 L 90.0 202.0 L 92.0 202.0 L 93.0 202.0 L 94.0 202.0 L 95.0 202.0 L 97.0 202.0 L 98.0 202.0 L 99.0 202.0 L 100.0 202.0 L 101.0 202.0 L 102.0 202.0 L 103.0 202.0 L 104.0 202.0 L 105.0 202.0 L 107.0 202.0 L 107.0 202.0 L 108.0 202.0 L 109.0 202.0 L 110.0 202.0 L 111.0 202.0 L 112.0 202.0 L 113.0 202.0 L 115.0 202.0 L 116.0 202.0 L 117.0 202.0 L 119.0 202.0 L 121.0 202.0 L 123.0 201.0 L 125.0 201.0 L 127.0 200.0 L 129.0 200.0 L 131.0 200.0 L 134.0 200.0 L 136.0 199.0 L 138.0 199.0 L 141.0 199.0 L 143.0 199.0 L 145.0 199.0 L 147.0 199.0 L 148.0 199.0 L 150.0 199.0 L 151.0 199.0 L 152.0 199.0 L 154.0 199.0 L 155.0 199.0 L 156.0 199.0 L 158.0 199.0 L 159.0 199.0 L 161.0 199.0 L 162.0 199.0 L 164.0 199.0 L 166.0 199.0 L 169.0 199.0 L 171.0 199.0 L 173.0 199.0 L 176.0 199.0 L 179.0 199.0 L 181.0 199.0 L 184.0 199.0 L 187.0 199.0 L 189.0 199.0 L 192.0 199.0 L 194.0 199.0 L 196.0 199.0 L 199.0 199.0 L 201.0 199.0 L 203.0 199.0 L 205.0 200.0 L 207.0 200.0 L 208.0 200.0 L 210.0 201.0 L 212.0 201.0 L 214.0 202.0 L 216.0 202.0 L 218.0 202.0 L 220.0 202.0 L 222.0 202.0 L 224.0 202.0 L 226.0 202.0 L 227.0 202.0 " stroke="black" fill="none" stroke-width="5.0" stroke-linecap="round" stroke-linejoin="round" />
<path d="M 151.0 170.0 L 151.0 170.0 L 151.0 170.0 L 151.0 170.0 L 151.0 170.0 L 151.0 170.0 L 151.0 170.0 L 151.0 170.0 L 151.0 172.0 L 151.0 176.0 L 151.0 181.0 L 151.0 188.0 L 151.0 196.0 L 151.0 204.0 L 152.0 214.0 L 152.0 222.0 L 152.0 231.0 L 152.0 239.0 L 152.0 244.0 L 152.0 248.0 L 152.0 251.0 L 152.0 252.0 L 152.0 253.0 L 152.0 253.0 L 152.0 252.0 " stroke="black" fill="none" stroke-width="5.0" stroke-linecap="round" stroke-linejoin="round" />
<path d="M 118.0 212.0 L 118.0 212.0 L 118.0 212.0 L 118.0 212.0 L 118.0 212.0 L 118.0 213.0 L 117.0 214.0 L 115.0 216.0 L 112.0 219.0 L 109.0 223.0 L 104.0 228.0 L 97.0 233.0 L 90.0 238.0 L 82.0 243.0 L 74.0 247.0 L 69.0 250.0 " stroke="black" fill="none" stroke-width="5.0" stroke-linecap="round" stroke-linejoin="round" />
<path d="M 183.0 223.0 L 183.0 223.0 L 182.0 223.0 L 181.0 223.0 L 180.0 224.0 L 180.0 224.0 L 180.0 225.0 L 182.0 225.0 L 185.0 226.0 L 188.0 227.0 L 192.0 228.0 L 197.0 229.0 L 202.0 230.0 L 208.0 232.0 L 215.0 234.0 L 221.0 236.0 L 227.0 239.0 L 232.0 241.0 L 234.0 243.0 L 236.0 246.0 L 237.0 247.0 " stroke="black" fill="none" stroke-width="5.0" stroke-linecap="round" stroke-linejoin="round" />
</svg>