<svg xmlns="http://www.w3.org/2000/svg" width="300" height="300" viewBox="0 0 300 300">
<path d="M 100.0 76.0 L 100.0 76.0 L 99.0 76.0 L 98.0 76.0 L 97.0 76.0 L 96.0 76.0 L 96.0 76.0 L 95.0 77.0 L 95.0 79.0 L 95.0 81.0 L 94.0 83.0 L 94.0 86.0 L 94.0 89.0 L 93.0 92.0 L 92.0 96.0 L 90.0 100.0 L 87.0 105.0 L 85.0 109.0 L 82.0 113.0 L 79.0 117.0 L 76.0 121.0 L 73.0 126.0 L 70.0 129.0 L 68.0 132.0 L 66.0 135.0 L 65.0 136.0 L 64.0 137.0 L 63.0 138.0 L 63.0 138.0 L 63.0 138.0 L 63.0 138.0 L 63.0 138.0 L 63.0 137.0 L 64.0 137.0 L 64.0 137.0 L 64.0 137.0 L 64.0 137.0 L 65.0 137.0 L 66.0 137.0 L 67.0 136.0 L 68.0 136.0 L 70.0 135.0 L 73.0 134.0 L 76.0 134.0 L 80.0 133.0 L 85.0 132.0 L 89.0 131.0 L 94.0 130.0 L 98.0 129.0 L 101.0 128.0 L 103.0 127.0 " stroke="black" fill="none" stroke-width="5.0" stroke-linecap="round" stroke-linejoin="round" />
<path d="M 114.0 109.0 L 114.0 109.0 L 114.0 109.0 L 114.0 109.0 L 114.0 109.0 L 114.0 109.0 L 114.0 109.0 L 114.0 109.0 L 114.0 109.0 L 114.0 109.0 L 114.0 110.0 L 113.0 112.0 L 111.0 114.0 L 109.0 118.0 L 107.0 122.0 L 104.0 127.0 L 101.0 133.0 L 97.0 139.0 L 94.0 145.0 L 91.0 150.0 L 87.0 156.0 L 84.0 160.0 L 80.0 164.0 L 77.0 168.0 L 74.0 171.0 L 72.0 173.0 L 71.0 175.0 L 70.0 175.0 L 70.0 176.0 L 69.0 176.0 L 69.0 176.0 L 69.0 176.0 L 69.0 176.0 L 70.0 175.0 L 70.0 175.0 L 71.0 175.0 L 71.0 175.0 L 71.0 175.0 L 72.0 175.0 L 73.0 175.0 L 73.0 175.0 L 74.0 174.0 L 75.0 174.0 L 77.0 174.0 L 79.0 173.0 L 82.0 173.0 L 85.0 172.0 L 90.0 171.0 L 95.0 170.0 L 100.0 169.0 L 104.0 167.0 L 108.0 166.0 L 111.0 164.0 L 114.0 163.0 L 116.0 162.0 L 116.0 162.0 " stroke="black" fill="none" stroke-width="5.0" stroke-linecap="round" stroke-linejoin="round" />
<path d="M 114.0 154.0 L 114.0 154.0 L 113.0 154.0 L 113.0 153.0 L 112.0 152.0 L 112.0 151.0 L 112.0 151.0 L 112.0 151.0 L 112.0 150.0 L 112.0 150.0 L 112.0 150.0 L 112.0 151.0 L 113.0 153.0 L 114.0 155.0 L 115.0 158.0 L 117.0 161.0 L 119.0 165.0 L 121.0 170.0 L 123.0 174.0 L 126.0 179.0 L 128.0 181.0 " stroke="black" fill="none" stroke-width="5.0" stroke-linecap="round" stroke-linejoin="round" />
<path d="M 70.0 204.0 L 70.0 204.0 L 70.0 204.0 L 70.0 203.0 L 70.0 203.0 L 70.0 203.0 L 70.0 203.0 L 70.0 203.0 L 70.0 206.0 L 70.0 209.0 L 69.0 214.0 L 69.0 220.0 L 69.0 226.0 L 68.0 233.0 L 68.0 238.0 L 67.0 242.0 L 67.0 245.0 L 67.0 245.0 " stroke="black" fill="none" stroke-width="5.0" stroke-linecap="round" stroke-linejoin="round" />
<path d="M 95.0 198.0 L 95.0 197.0 L 95.0 196.0 L 94.0 195.0 L 94.0 195.0 L 94.0 195.0 L 94.0 195.0 L 94.0 196.0 L 94.0 198.0 L 94.0 202.0 L 95.0 206.0 L 95.0 212.0 L 95.0 219.0 L 96.0 226.0 L 96.0 233.0 L 96.0 239.0 L 97.0 244.0 L 98.0 246.0 L 98.0 247.0 L 100.0 246.0 " stroke="black" fill="none" stroke-width="5.0" stroke-linecap="round" stroke-linejoin="round" />
<path d="M 109.0 193.0 L 109.0 193.0 L 109.0 193.0 L 109.0 192.0 L 109.0 192.0 L 109.0 192.0 L 110.0 193.0 L 111.0 196.0 L 112.0 199.0 L 114.0 204.0 L 115.0 209.0 L 117.0 214.0 L 118.0 220.0 L 120.0 225.0 " stroke="black" fill="none" stroke-width="5.0" stroke-linecap="round" stroke-linejoin="round" />
<path d="M 148.0 87.0 L 148.0 87.0 L 148.0 87.0 L 147.0 87.0 L 147.0 87.0 L 147.0 87.0 L 147.0 87.0 L 147.0 87.0 L 147.0 87.0 L 147.0 87.0 L 147.0 87.0 L 148.0 87.0 L 150.0 87.0 L 152.0 87.0 L 154.0 87.0 L 158.0 87.0 L 163.0 87.0 L 169.0 87.0 L 176.0 86.0 L 183.0 85.0 L 189.0 84.0 L 195.0 83.0 L 199.0 82.0 L 203.0 81.0 L 208.0 79.0 L 212.0 78.0 L 216.0 77.0 L 221.0 75.0 L 225.0 74.0 L 228.0 74.0 L 231.0 73.0 L 233.0 73.0 L 235.0 73.0 L 236.0 72.0 " stroke="black" fill="none" stroke-width="5.0" stroke-linecap="round" stroke-linejoin="round" />
<path d="M 151.0 111.0 L 151.0 111.0 L 150.0 110.0 L 150.0 109.0 L 149.0 109.0 L 149.0 109.0 L 149.0 109.0 L 149.0 109.0 L 149.0 110.0 L 149.0 112.0 L 150.0 114.0 L 151.0 117.0 L 152.0 120.0 L 153.0 122.0 L 154.0 125.0 L 155.0 128.0 L 156.0 130.0 L 156.0 132.0 " stroke="black" fill="none" stroke-width="5.0" stroke-linecap="round" stroke-linejoin="round" />
<path d="M 184.0 102.0 L 184.0 102.0 L 183.0 102.0 L 183.0 102.0 L 183.0 103.0 L 183.0 104.0 L 184.0 107.0 L 186.0 109.0 L 187.0 112.0 L 189.0 115.0 L 190.0 118.0 L 192.0 121.0 L 192.0 123.0 L 193.0 125.0 " stroke="black" fill="none" stroke-width="5.0" stroke-linecap="round" stroke-linejoin="round" />
<path d="M 234.0 101.0 L 234.0 101.0 L 234.0 100.0 L 234.0 100.0 L 233.0 99.0 L 233.0 99.0 L 232.0 100.0 L 231.0 102.0 L 230.0 105.0 L 228.0 109.0 L 226.0 114.0 L 223.0 119.0 L 221.0 124.0 " stroke="black" fill="none" stroke-width="5.0" stroke-linecap="round" stroke-linejoin="round" />
<path d="M 142.0 164.0 L 142.0 164.0 L 142.0 163.0 L 142.0 163.0 L 142.0 162.0 L 142.0 162.0 L 142.0 162.0 L 142.0 161.0 L 142.0 161.0 L 142.0 161.0 L 142.0 161.0 L 142.0 161.0 L 142.0 161.0 L 142.0 161.0 L 142.0 161.0 L 142.0 162.0 L 143.0 162.0 L 144.0 163.0 L 146.0 163.0 L 147.0 164.0 L 150.0 164.0 L 152.0 164.0 L 155.0 164.0 L 158.0 164.0 L 162.0 165.0 L 165.0 165.0 L 169.0 165.0 L 173.0 165.0 L 178.0 165.0 L 181.0 165.0 L 185.0 166.0 L 188.0 166.0 L 191.0 166.0 L 193.0 166.0 L 196.0 166.0 L 197.0 166.0 L 199.0 166.0 L 200.0 166.0 L 202.0 166.0 L 203.0 166.0 L 205.0 166.0 L 207.0 166.0 L 209.0 166.0 L 212.0 166.0 L 214.0 167.0 L 217.0 167.0 L 219.0 167.0 L 221.0 167.0 L 224.0 168.0 L 226.0 168.0 L 228.0 168.0 L 230.0 168.0 L 232.0 169.0 L 234.0 169.0 L 236.0 169.0 L 237.0 168.0 L 239.0 168.0 L 241.0 167.0 L 242.0 166.0 L 243.0 166.0 L 243.0 165.0 L 244.0 165.0 L 244.0 165.0 L 243.0 165.0 " stroke="black" fill="none" stroke-width="5.0" stroke-linecap="round" stroke-linejoin="round" />
<path d="M 184.0 148.0 L 184.0 148.0 L 183.0 148.0 L 182.0 147.0 L 182.0 146.0 L 182.0 146.0 L 181.0 146.0 L 181.0 146.0 L 181.0 146.0 L 181.0 146.0 L 181.0 146.0 L 181.0 147.0 L 180.0 149.0 L 179.0 151.0 L 178.0 153.0 L 176.0 157.0 L 174.0 160.0 L 171.0 165.0 L 167.0 170.0 L 164.0 175.0 L 160.0 181.0 L 158.0 185.0 L 155.0 189.0 L 154.0 191.0 L 153.0 193.0 L 153.0 193.0 L 153.0 193.0 L 153.0 193.0 L 153.0 193.0 L 153.0 193.0 L 153.0 193.0 L 153.0 193.0 L 153.0 193.0 L 153.0 193.0 L 153.0 193.0 L 153.0 193.0 L 153.0 193.0 L 153.0 193.0 L 153.0 193.0 L 153.0 194.0 L 153.0 194.0 L 153.0 194.0 L 153.0 195.0 L 154.0 195.0 L 155.0 196.0 L 155.0 196.0 L 156.0 197.0 L 157.0 198.0 L 158.0 199.0 L 160.0 200.0 L 162.0 201.0 L 164.0 202.0 L 167.0 203.0 L 171.0 204.0 L 175.0 206.0 L 180.0 207.0 L 184.0 208.0 L 188.0 210.0 L 192.0 212.0 L 196.0 213.0 L 199.0 215.0 L 202.0 217.0 L 205.0 218.0 L 207.0 220.0 L 211.0 221.0 L 213.0 222.0 L 216.0 224.0 L 220.0 226.0 L 223.0 227.0 L 225.0 229.0 L 228.0 230.0 L 230.0 232.0 L 232.0 233.0 L 234.0 234.0 L 236.0 235.0 L 237.0 237.0 L 238.0 238.0 L 239.0 239.0 L 240.0 240.0 L 241.0 241.0 L 242.0 242.0 L 242.0 242.0 L 243.0 243.0 L 244.0 243.0 L 244.0 243.0 L 244.0 242.0 L 244.0 241.0 " stroke="black" fill="none" stroke-width="5.0" stroke-linecap="round" stroke-linejoin="round" />
<path d="M 221.0 158.0 L 221.0 158.0 L 220.0 158.0 L 220.0 158.0 L 220.0 158.0 L 219.0 158.0 L 219.0 158.0 L 219.0 158.0 L 219.0 158.0 L 219.0 158.0 L 220.0 159.0 L 220.0 160.0 L 221.0 161.0 L 221.0 163.0 L 222.0 166.0 L 222.0 169.0 L 222.0 173.0 L 222.0 178.0 L 221.0 185.0 L 219.0 191.0 L 216.0 198.0 L 213.0 204.0 L 209.0 209.0 L 205.0 213.0 L 200.0 218.0 L 196.0 223.0 L 191.0 228.0 L 186.0 233.0 L 180.0 237.0 L 173.0 240.0 L 167.0 242.0 L 161.0 243.0 L 157.0 243.0 L 154.0 243.0 L 152.0 243.0 " stroke="black" fill="none" stroke-width="5.0" stroke-linecap="round" stroke-linejoin="round" />
</svg>