<svg xmlns="http://www.w3.org/2000/svg" width="300" height="300" viewBox="0 0 300 300">
<path d="M 69.0 92.0 L 69.0 92.0 L 69.0 92.0 L 69.0 92.0 L 69.0 93.0 L 69.0 93.0 L 69.0 93.0 L 69.0 94.0 L 69.0 94.0 L 69.0 94.0 L 69.0 94.0 L 70.0 94.0 L 70.0 94.0 L 71.0 94.0 L 72.0 93.0 L 73.0 93.0 L 74.0 93.0 L 76.0 93.0 L 77.0 93.0 L 79.0 92.0 L 81.0 92.0 L 83.0 92.0 L 86.0 92.0 L 88.0 92.0 L 90.0 92.0 L 92.0 92.0 L 94.0 92.0 L 96.0 92.0 L 98.0 92.0 L 99.0 92.0 L 100.0 92.0 L 101.0 92.0 L 102.0 92.0 L 103.0 92.0 L 104.0 92.0 L 105.0 92.0 L 105.0 92.0 L 106.0 92.0 L 107.0 92.0 L 107.0 92.0 L 107.0 93.0 L 108.0 93.0 L 108.0 93.0 L 109.0 93.0 L 110.0 93.0 L 110.0 93.0 L 111.0 93.0 L 112.0 94.0 L 112.0 94.0 L 113.0 94.0 L 114.0 94.0 L 114.0 94.0 L 115.0 94.0 L 116.0 94.0 L 117.0 95.0 L 118.0 95.0 L 119.0 95.0 L 120.0 95.0 L 121.0 95.0 L 122.0 95.0 L 123.0 95.0 L 124.0 95.0 L 126.0 95.0 L 127.0 95.0 L 128.0 95.0 L 129.0 95.0 L 131.0 95.0 L 132.0 95.0 L 133.0 95.0 L 135.0 95.0 L 136.0 95.0 L 137.0 95.0 L 139.0 95.0 L 140.0 95.0 L 141.0 95.0 L 142.0 95.0 L 143.0 95.0 L 144.0 95.0 L 145.0 95.0 L 146.0 95.0 L 146.0 95.0 L 147.0 95.0 L 148.0 95.0 L 148.0 95.0 L 149.0 95.0 L 149.0 95.0 L 150.0 95.0 L 150.0 95.0 L 151.0 95.0 L 152.0 95.0 L 152.0 95.0 L 153.0 95.0 L 153.0 95.0 L 154.0 95.0 L 154.0 95.0 L 155.0 95.0 L 155.0 95.0 L 156.0 95.0 L 156.0 95.0 L 157.0 95.0 L 157.0 95.0 L 158.0 95.0 L 158.0 95.0 L 159.0 95.0 L 159.0 95.0 L 160.0 95.0 L 160.0 95.0 L 161.0 95.0 L 162.0 95.0 L 162.0 95.0 L 163.0 95.0 L 163.0 95.0 L 164.0 95.0 L 164.0 95.0 L 165.0 95.0 L 165.0 95.0 L 166.0 96.0 L 166.0 96.0 L 166.0 96.0 L 167.0 96.0 L 167.0 96.0 L 168.0 96.0 L 168.0 96.0 L 169.0 96.0 L 169.0 96.0 L 170.0 96.0 L 171.0 96.0 L 171.0 96.0 L 172.0 96.0 L 172.0 96.0 L 173.0 96.0 L 174.0 96.0 L 174.0 96.0 L 175.0 96.0 L 176.0 96.0 L 176.0 96.0 L 177.0 96.0 L 178.0 96.0 L 178.0 96.0 L 179.0 96.0 L 180.0 96.0 L 181.0 96.0 L 181.0 96.0 L 182.0 96.0 L 183.0 96.0 L 184.0 96.0 L 184.0 96.0 L 185.0 96.0 L 186.0 96.0 L 186.0 96.0 L 187.0 96.0 L 188.0 96.0 L 188.0 96.0 L 189.0 96.0 L 189.0 96.0 L 190.0 96.0 L 191.0 96.0 L 191.0 96.0 L 192.0 96.0 L 192.0 96.0 L 193.0 96.0 L 193.0 95.0 L 193.0 95.0 L 194.0 95.0 L 194.0 95.0 L 194.0 95.0 L 195.0 95.0 L 195.0 95.0 L 196.0 95.0 L 196.0 95.0 L 196.0 95.0 L 197.0 95.0 L 197.0 95.0 L 197.0 95.0 L 198.0 95.0 L 198.0 95.0 L 199.0 95.0 L 199.0 95.0 L 200.0 95.0 L 200.0 95.0 L 200.0 95.0 L 201.0 95.0 L 202.0 95.0 L 202.0 95.0 L 203.0 95.0 L 203.0 95.0 L 204.0 95.0 L 205.0 95.0 L 205.0 95.0 L 206.0 95.0 L 207.0 95.0 L 207.0 95.0 L 208.0 95.0 L 209.0 95.0 L 210.0 95.0 L 211.0 95.0 L 212.0 95.0 L 213.0 95.0 L 214.0 95.0 L 215.0 95.0 L 216.0 95.0 L 217.0 95.0 L 218.0 95.0 L 219.0 95.0 L 220.0 95.0 L 221.0 95.0 L 222.0 95.0 L 223.0 94.0 L 224.0 94.0 L 225.0 94.0 L 225.0 94.0 L 226.0 94.0 L 227.0 94.0 L 227.0 93.0 L 228.0 93.0 L 228.0 93.0 L 229.0 93.0 L 229.0 93.0 L 230.0 93.0 L 231.0 93.0 L 231.0 93.0 L 232.0 93.0 L 232.0 93.0 L 233.0 93.0 L 233.0 93.0 L 233.0 93.0 L 234.0 93.0 L 234.0 93.0 L 234.0 93.0 L 235.0 93.0 " stroke="black" fill="none" stroke-width="5.0" stroke-linecap="round" stroke-linejoin="round" />
<path d="M 149.0 81.0 L 149.0 81.0 L 149.0 81.0 L 149.0 81.0 L 149.0 81.0 L 150.0 81.0 L 150.0 81.0 L 150.0 81.0 L 150.0 82.0 L 150.0 83.0 L 150.0 85.0 L 150.0 88.0 L 150.0 91.0 L 150.0 95.0 L 150.0 100.0 L 150.0 105.0 L 150.0 111.0 L 149.0 115.0 L 148.0 119.0 L 148.0 122.0 L 148.0 125.0 L 148.0 126.0 " stroke="black" fill="none" stroke-width="5.0" stroke-linecap="round" stroke-linejoin="round" />
<path d="M 65.0 127.0 L 65.0 127.0 L 65.0 127.0 L 65.0 126.0 L 65.0 126.0 L 65.0 125.0 L 65.0 125.0 L 65.0 125.0 L 65.0 125.0 L 65.0 127.0 L 64.0 129.0 L 64.0 132.0 L 64.0 136.0 L 64.0 140.0 L 64.0 144.0 L 64.0 147.0 L 64.0 149.0 L 64.0 152.0 L 64.0 153.0 L 64.0 153.0 L 64.0 153.0 L 64.0 153.0 " stroke="black" fill="none" stroke-width="5.0" stroke-linecap="round" stroke-linejoin="round" />
<path d="M 65.0 132.0 L 65.0 132.0 L 65.0 131.0 L 65.0 131.0 L 65.0 130.0 L 65.0 130.0 L 65.0 129.0 L 65.0 129.0 L 65.0 129.0 L 65.0 129.0 L 66.0 129.0 L 67.0 129.0 L 69.0 129.0 L 70.0 129.0 L 71.0 129.0 L 73.0 130.0 L 74.0 130.0 L 76.0 130.0 L 78.0 130.0 L 79.0 130.0 L 81.0 131.0 L 82.0 131.0 L 84.0 131.0 L 85.0 131.0 L 87.0 131.0 L 88.0 131.0 L 89.0 131.0 L 91.0 131.0 L 92.0 130.0 L 94.0 130.0 L 95.0 130.0 L 97.0 130.0 L 98.0 130.0 L 99.0 130.0 L 100.0 129.0 L 101.0 129.0 L 102.0 129.0 L 103.0 129.0 L 104.0 129.0 L 104.0 129.0 L 105.0 129.0 L 105.0 129.0 L 106.0 129.0 L 107.0 129.0 L 107.0 129.0 L 108.0 129.0 L 108.0 129.0 L 109.0 129.0 L 110.0 129.0 L 110.0 129.0 L 111.0 129.0 L 112.0 130.0 L 112.0 130.0 L 113.0 130.0 L 114.0 130.0 L 115.0 130.0 L 116.0 130.0 L 117.0 130.0 L 118.0 130.0 L 119.0 130.0 L 120.0 130.0 L 122.0 130.0 L 123.0 130.0 L 125.0 130.0 L 126.0 130.0 L 128.0 130.0 L 129.0 129.0 L 131.0 129.0 L 133.0 129.0 L 134.0 129.0 L 136.0 129.0 L 138.0 128.0 L 139.0 128.0 L 141.0 128.0 L 142.0 128.0 L 143.0 128.0 L 144.0 128.0 L 145.0 128.0 L 146.0 128.0 L 147.0 128.0 L 148.0 128.0 L 149.0 127.0 L 150.0 127.0 L 151.0 127.0 L 151.0 127.0 L 152.0 127.0 L 152.0 127.0 L 153.0 127.0 L 153.0 127.0 L 154.0 127.0 L 154.0 127.0 L 155.0 127.0 L 155.0 127.0 L 156.0 127.0 L 157.0 127.0 L 158.0 127.0 L 158.0 127.0 L 159.0 127.0 L 159.0 127.0 L 160.0 127.0 L 161.0 127.0 L 161.0 127.0 L 162.0 127.0 L 163.0 127.0 L 163.0 127.0 L 164.0 127.0 L 165.0 127.0 L 166.0 127.0 L 166.0 127.0 L 167.0 127.0 L 168.0 127.0 L 168.0 127.0 L 169.0 128.0 L 170.0 128.0 L 171.0 128.0 L 171.0 128.0 L 173.0 128.0 L 174.0 128.0 L 175.0 128.0 L 177.0 128.0 L 178.0 128.0 L 179.0 128.0 L 181.0 128.0 L 182.0 128.0 L 184.0 128.0 L 185.0 128.0 L 186.0 128.0 L 187.0 128.0 L 189.0 128.0 L 190.0 128.0 L 191.0 128.0 L 192.0 128.0 L 193.0 128.0 L 194.0 128.0 L 195.0 128.0 L 196.0 128.0 L 197.0 128.0 L 198.0 128.0 L 199.0 128.0 L 200.0 128.0 L 200.0 128.0 L 201.0 128.0 L 202.0 128.0 L 203.0 128.0 L 204.0 128.0 L 205.0 128.0 L 206.0 128.0 L 207.0 128.0 L 208.0 128.0 L 209.0 128.0 L 210.0 128.0 L 210.0 128.0 L 211.0 128.0 L 212.0 128.0 L 213.0 128.0 L 214.0 128.0 L 215.0 128.0 L 216.0 128.0 L 217.0 128.0 L 218.0 128.0 L 219.0 128.0 L 220.0 128.0 L 221.0 127.0 L 222.0 127.0 L 223.0 127.0 L 223.0 127.0 L 224.0 127.0 L 225.0 127.0 L 225.0 127.0 L 226.0 127.0 L 226.0 127.0 L 227.0 127.0 L 227.0 127.0 L 227.0 127.0 L 228.0 127.0 L 228.0 127.0 L 229.0 127.0 L 229.0 127.0 L 229.0 127.0 L 230.0 127.0 L 230.0 127.0 L 231.0 127.0 L 231.0 128.0 L 231.0 128.0 L 232.0 128.0 L 232.0 128.0 L 233.0 128.0 L 233.0 128.0 L 233.0 128.0 L 234.0 128.0 L 234.0 128.0 L 234.0 128.0 L 235.0 128.0 L 235.0 128.0 L 235.0 129.0 L 235.0 129.0 L 235.0 129.0 L 236.0 129.0 L 236.0 129.0 L 236.0 129.0 L 236.0 130.0 L 236.0 130.0 L 236.0 130.0 L 236.0 130.0 L 236.0 131.0 L 236.0 131.0 L 236.0 131.0 L 236.0 132.0 L 236.0 132.0 L 236.0 133.0 L 236.0 133.0 L 236.0 134.0 L 236.0 135.0 L 235.0 136.0 L 235.0 137.0 L 235.0 139.0 L 234.0 140.0 L 234.0 141.0 L 233.0 143.0 L 233.0 145.0 L 232.0 146.0 L 232.0 149.0 L 231.0 150.0 L 231.0 152.0 L 231.0 154.0 L 231.0 155.0 L 231.0 156.0 L 231.0 156.0 " stroke="black" fill="none" stroke-width="5.0" stroke-linecap="round" stroke-linejoin="round" />
<path d="M 135.0 134.0 L 135.0 134.0 L 135.0 134.0 L 135.0 134.0 L 135.0 134.0 L 136.0 135.0 L 136.0 135.0 L 136.0 135.0 L 136.0 135.0 L 136.0 136.0 L 136.0 136.0 L 136.0 137.0 L 135.0 137.0 L 134.0 139.0 L 132.0 140.0 L 130.0 142.0 L 128.0 144.0 L 125.0 146.0 L 122.0 149.0 L 119.0 151.0 L 117.0 153.0 L 114.0 155.0 L 112.0 156.0 L 110.0 158.0 L 109.0 159.0 L 107.0 160.0 L 106.0 162.0 L 105.0 163.0 L 104.0 163.0 L 103.0 164.0 L 102.0 165.0 L 102.0 166.0 L 101.0 166.0 L 101.0 167.0 L 101.0 167.0 L 101.0 167.0 L 101.0 167.0 L 101.0 167.0 L 101.0 167.0 L 101.0 167.0 L 102.0 167.0 L 102.0 167.0 L 103.0 167.0 L 103.0 167.0 L 104.0 167.0 L 104.0 167.0 L 105.0 167.0 L 106.0 167.0 L 107.0 167.0 L 108.0 167.0 L 109.0 167.0 L 111.0 167.0 L 113.0 167.0 L 116.0 167.0 L 119.0 166.0 L 123.0 166.0 L 128.0 165.0 L 132.0 164.0 L 135.0 164.0 L 138.0 164.0 L 140.0 163.0 L 142.0 163.0 L 143.0 163.0 L 143.0 163.0 L 144.0 163.0 " stroke="black" fill="none" stroke-width="5.0" stroke-linecap="round" stroke-linejoin="round" />
<path d="M 175.0 152.0 L 175.0 152.0 L 175.0 152.0 L 175.0 152.0 L 175.0 152.0 L 175.0 152.0 L 175.0 152.0 L 174.0 152.0 L 174.0 152.0 L 174.0 152.0 L 173.0 152.0 L 172.0 153.0 L 171.0 154.0 L 169.0 155.0 L 167.0 156.0 L 164.0 157.0 L 162.0 159.0 L 159.0 161.0 L 156.0 163.0 L 154.0 166.0 L 151.0 168.0 L 149.0 170.0 L 147.0 172.0 L 145.0 174.0 L 142.0 176.0 L 140.0 178.0 L 137.0 179.0 L 135.0 181.0 L 132.0 183.0 L 129.0 184.0 L 126.0 186.0 L 123.0 188.0 L 120.0 189.0 L 118.0 190.0 L 116.0 191.0 L 114.0 191.0 L 113.0 192.0 L 111.0 192.0 L 110.0 193.0 L 109.0 194.0 L 108.0 194.0 L 107.0 195.0 L 105.0 196.0 L 104.0 196.0 L 103.0 197.0 L 101.0 198.0 L 101.0 198.0 L 100.0 199.0 L 100.0 199.0 L 100.0 199.0 L 100.0 199.0 L 100.0 199.0 L 100.0 199.0 L 100.0 199.0 L 101.0 199.0 L 102.0 200.0 L 103.0 200.0 L 104.0 200.0 L 104.0 200.0 L 105.0 200.0 L 106.0 200.0 L 107.0 200.0 L 108.0 200.0 L 109.0 200.0 L 111.0 200.0 L 112.0 200.0 L 114.0 200.0 L 117.0 200.0 L 120.0 200.0 L 123.0 200.0 L 127.0 200.0 L 132.0 199.0 L 136.0 199.0 L 140.0 198.0 L 143.0 198.0 L 146.0 197.0 L 149.0 196.0 L 151.0 196.0 L 153.0 195.0 L 155.0 195.0 L 157.0 194.0 L 160.0 193.0 L 162.0 193.0 L 165.0 192.0 L 167.0 191.0 L 169.0 191.0 L 171.0 191.0 L 174.0 191.0 L 175.0 191.0 L 177.0 191.0 L 178.0 191.0 L 179.0 191.0 L 180.0 192.0 L 182.0 193.0 L 183.0 193.0 L 184.0 193.0 L 185.0 194.0 L 186.0 194.0 L 187.0 194.0 L 188.0 194.0 L 189.0 194.0 L 190.0 194.0 L 191.0 194.0 L 192.0 194.0 L 193.0 194.0 L 194.0 194.0 L 195.0 193.0 L 196.0 193.0 L 196.0 193.0 L 197.0 193.0 L 197.0 192.0 L 198.0 192.0 L 198.0 192.0 L 198.0 192.0 " stroke="black" fill="none" stroke-width="5.0" stroke-linecap="round" stroke-linejoin="round" />
<path d="M 194.0 175.0 L 194.0 175.0 L 193.0 175.0 L 193.0 175.0 L 192.0 175.0 L 192.0 175.0 L 192.0 176.0 L 192.0 176.0 L 192.0 177.0 L 193.0 179.0 L 194.0 181.0 L 195.0 184.0 L 197.0 188.0 L 199.0 191.0 L 201.0 195.0 L 203.0 199.0 L 205.0 202.0 L 207.0 206.0 L 209.0 209.0 L 211.0 211.0 L 211.0 212.0 " stroke="black" fill="none" stroke-width="5.0" stroke-linecap="round" stroke-linejoin="round" />
<path d="M 151.0 201.0 L 151.0 201.0 L 151.0 201.0 L 151.0 201.0 L 151.0 201.0 L 151.0 201.0 L 151.0 201.0 L 151.0 201.0 L 151.0 201.0 L 151.0 202.0 L 151.0 202.0 L 152.0 203.0 L 152.0 205.0 L 153.0 206.0 L 153.0 209.0 L 153.0 212.0 L 153.0 215.0 L 153.0 220.0 L 153.0 224.0 L 153.0 229.0 L 153.0 233.0 L 153.0 237.0 L 153.0 239.0 L 153.0 242.0 L 153.0 243.0 L 153.0 243.0 L 153.0 244.0 L 153.0 244.0 L 152.0 244.0 L 152.0 245.0 L 152.0 245.0 L 151.0 245.0 L 150.0 245.0 L 150.0 246.0 L 149.0 247.0 L 148.0 247.0 L 148.0 248.0 L 147.0 248.0 L 146.0 249.0 L 146.0 249.0 L 145.0 249.0 L 143.0 250.0 L 142.0 250.0 L 140.0 250.0 L 138.0 249.0 L 135.0 249.0 L 132.0 249.0 L 129.0 248.0 L 128.0 248.0 " stroke="black" fill="none" stroke-width="5.0" stroke-linecap="round" stroke-linejoin="round" />
<path d="M 114.0 222.0 L 114.0 221.0 L 114.0 219.0 L 115.0 218.0 L 115.0 217.0 L 115.0 216.0 L 115.0 216.0 L 114.0 216.0 L 114.0 216.0 L 112.0 217.0 L 111.0 218.0 L 110.0 220.0 L 109.0 221.0 L 107.0 223.0 L 105.0 225.0 L 103.0 228.0 L 101.0 230.0 L 97.0 233.0 L 92.0 237.0 L 85.0 241.0 L 78.0 246.0 L 71.0 250.0 L 66.0 254.0 L 63.0 256.0 " stroke="black" fill="none" stroke-width="5.0" stroke-linecap="round" stroke-linejoin="round" />
<path d="M 187.0 221.0 L 187.0 221.0 L 186.0 221.0 L 186.0 221.0 L 186.0 221.0 L 186.0 221.0 L 186.0 221.0 L 186.0 221.0 L 188.0 221.0 L 190.0 222.0 L 193.0 224.0 L 196.0 225.0 L 200.0 227.0 L 204.0 229.0 L 210.0 232.0 L 216.0 235.0 L 222.0 237.0 L 227.0 240.0 L 231.0 242.0 L 234.0 243.0 L 237.0 244.0 L 237.0 244.0 L 238.0 244.0 L 238.0 245.0 L 238.0 245.0 " stroke="black" fill="none" stroke-width="5.0" stroke-linecap="round" stroke-linejoin="round" />
</svg>