<svg xmlns="http://www.w3.org/2000/svg" width="300" height="300" viewBox="0 0 300 300">
<path d="M 103.0 74.0 L 103.0 74.0 L 103.0 74.0 L 103.0 73.0 L 103.0 73.0 L 103.0 73.0 L 103.0 73.0 L 103.0 73.0 L 103.0 73.0 L 103.0 73.0 L 102.0 74.0 L 102.0 75.0 L 101.0 77.0 L 101.0 78.0 L 100.0 81.0 L 98.0 84.0 L 96.0 87.0 L 94.0 91.0 L 92.0 96.0 L 89.0 101.0 L 87.0 107.0 L 84.0 111.0 L 82.0 114.0 L 81.0 117.0 L 79.0 119.0 L 78.0 121.0 L 76.0 122.0 L 74.0 124.0 L 73.0 125.0 L 71.0 127.0 L 70.0 129.0 L 69.0 131.0 L 68.0 132.0 L 67.0 134.0 L 67.0 135.0 L 66.0 136.0 L 66.0 136.0 L 66.0 137.0 L 66.0 137.0 L 66.0 137.0 L 66.0 137.0 L 66.0 137.0 L 66.0 137.0 L 66.0 137.0 L 66.0 137.0 L 66.0 137.0 L 66.0 137.0 L 66.0 137.0 L 66.0 137.0 L 67.0 137.0 L 68.0 137.0 L 69.0 137.0 L 71.0 137.0 L 74.0 137.0 L 78.0 137.0 L 83.0 136.0 L 89.0 135.0 L 95.0 133.0 L 100.0 131.0 L 103.0 130.0 L 106.0 129.0 " stroke="black" fill="none" stroke-width="5.0" stroke-linecap="round" stroke-linejoin="round" />
<path d="M 113.0 108.0 L 113.0 108.0 L 112.0 109.0 L 112.0 110.0 L 112.0 111.0 L 111.0 112.0 L 110.0 113.0 L 110.0 115.0 L 109.0 117.0 L 108.0 120.0 L 107.0 123.0 L 105.0 127.0 L 103.0 131.0 L 100.0 136.0 L 98.0 141.0 L 95.0 147.0 L 93.0 151.0 L 91.0 154.0 L 89.0 157.0 L 86.0 159.0 L 84.0 161.0 L 82.0 162.0 L 80.0 164.0 L 78.0 165.0 L 76.0 167.0 L 74.0 168.0 L 73.0 170.0 L 72.0 171.0 L 70.0 171.0 L 70.0 172.0 L 69.0 173.0 L 69.0 173.0 L 68.0 173.0 L 68.0 174.0 L 68.0 174.0 L 68.0 174.0 L 68.0 175.0 L 68.0 175.0 L 68.0 175.0 L 68.0 175.0 L 68.0 176.0 L 68.0 177.0 L 68.0 177.0 L 68.0 177.0 L 69.0 178.0 L 69.0 178.0 L 70.0 178.0 L 71.0 178.0 L 73.0 178.0 L 75.0 178.0 L 78.0 178.0 L 82.0 177.0 L 86.0 176.0 L 91.0 175.0 L 96.0 175.0 L 101.0 174.0 L 105.0 173.0 L 108.0 173.0 L 111.0 172.0 L 113.0 172.0 " stroke="black" fill="none" stroke-width="5.0" stroke-linecap="round" stroke-linejoin="round" />
<path d="M 112.0 148.0 L 112.0 148.0 L 112.0 148.0 L 112.0 149.0 L 112.0 149.0 L 112.0 150.0 L 112.0 151.0 L 112.0 152.0 L 112.0 154.0 L 113.0 158.0 L 114.0 162.0 L 115.0 168.0 L 116.0 175.0 L 118.0 181.0 L 119.0 186.0 L 119.0 188.0 " stroke="black" fill="none" stroke-width="5.0" stroke-linecap="round" stroke-linejoin="round" />
<path d="M 71.0 204.0 L 71.0 204.0 L 71.0 203.0 L 71.0 202.0 L 70.0 202.0 L 70.0 202.0 L 70.0 202.0 L 69.0 202.0 L 69.0 202.0 L 69.0 204.0 L 69.0 207.0 L 68.0 211.0 L 68.0 216.0 L 67.0 222.0 L 66.0 229.0 L 66.0 235.0 L 66.0 241.0 L 65.0 245.0 L 65.0 247.0 L 65.0 247.0 " stroke="black" fill="none" stroke-width="5.0" stroke-linecap="round" stroke-linejoin="round" />
<path d="M 92.0 202.0 L 92.0 202.0 L 92.0 202.0 L 92.0 202.0 L 92.0 202.0 L 92.0 202.0 L 92.0 201.0 L 92.0 201.0 L 92.0 201.0 L 92.0 202.0 L 92.0 203.0 L 92.0 206.0 L 93.0 209.0 L 93.0 214.0 L 93.0 219.0 L 93.0 225.0 L 93.0 231.0 L 94.0 236.0 L 94.0 239.0 L 95.0 241.0 L 96.0 241.0 " stroke="black" fill="none" stroke-width="5.0" stroke-linecap="round" stroke-linejoin="round" />
<path d="M 108.0 197.0 L 108.0 197.0 L 108.0 197.0 L 108.0 197.0 L 108.0 197.0 L 108.0 197.0 L 108.0 197.0 L 108.0 198.0 L 108.0 199.0 L 109.0 202.0 L 110.0 206.0 L 111.0 210.0 L 113.0 215.0 L 114.0 221.0 L 116.0 226.0 L 116.0 228.0 " stroke="black" fill="none" stroke-width="5.0" stroke-linecap="round" stroke-linejoin="round" />
<path d="M 152.0 92.0 L 152.0 92.0 L 151.0 92.0 L 151.0 92.0 L 150.0 92.0 L 150.0 92.0 L 149.0 92.0 L 149.0 93.0 L 149.0 93.0 L 150.0 93.0 L 151.0 93.0 L 153.0 93.0 L 156.0 94.0 L 161.0 94.0 L 166.0 94.0 L 173.0 94.0 L 182.0 94.0 L 189.0 94.0 L 196.0 94.0 L 202.0 94.0 L 207.0 93.0 L 212.0 93.0 L 216.0 92.0 L 220.0 91.0 L 222.0 91.0 L 224.0 91.0 " stroke="black" fill="none" stroke-width="5.0" stroke-linecap="round" stroke-linejoin="round" />
<path d="M 194.0 76.0 L 194.0 76.0 L 194.0 76.0 L 193.0 76.0 L 193.0 76.0 L 193.0 77.0 L 193.0 77.0 L 193.0 78.0 L 193.0 79.0 L 193.0 81.0 L 193.0 83.0 L 193.0 86.0 L 192.0 90.0 L 191.0 95.0 L 190.0 101.0 L 187.0 107.0 L 184.0 113.0 L 179.0 119.0 L 173.0 124.0 L 167.0 129.0 L 161.0 133.0 L 156.0 136.0 L 152.0 138.0 L 150.0 140.0 L 149.0 140.0 " stroke="black" fill="none" stroke-width="5.0" stroke-linecap="round" stroke-linejoin="round" />
<path d="M 193.0 117.0 L 193.0 117.0 L 192.0 117.0 L 191.0 117.0 L 190.0 117.0 L 190.0 116.0 L 189.0 116.0 L 189.0 116.0 L 189.0 116.0 L 189.0 116.0 L 190.0 116.0 L 192.0 117.0 L 194.0 118.0 L 197.0 120.0 L 201.0 122.0 L 206.0 124.0 L 211.0 127.0 L 217.0 129.0 L 223.0 132.0 L 228.0 134.0 L 232.0 135.0 L 234.0 137.0 " stroke="black" fill="none" stroke-width="5.0" stroke-linecap="round" stroke-linejoin="round" />
<path d="M 146.0 157.0 L 145.0 157.0 L 144.0 157.0 L 143.0 157.0 L 142.0 157.0 L 141.0 157.0 L 141.0 157.0 L 140.0 157.0 L 140.0 157.0 L 140.0 157.0 L 141.0 157.0 L 142.0 157.0 L 144.0 157.0 L 147.0 157.0 L 151.0 157.0 L 156.0 157.0 L 163.0 157.0 L 172.0 156.0 L 182.0 156.0 L 192.0 155.0 L 200.0 155.0 L 208.0 155.0 L 216.0 155.0 L 225.0 155.0 L 232.0 155.0 L 236.0 155.0 L 240.0 156.0 L 242.0 157.0 L 243.0 157.0 L 244.0 157.0 L 244.0 157.0 " stroke="black" fill="none" stroke-width="5.0" stroke-linecap="round" stroke-linejoin="round" />
<path d="M 150.0 191.0 L 150.0 191.0 L 148.0 190.0 L 148.0 190.0 L 147.0 190.0 L 147.0 190.0 L 147.0 190.0 L 147.0 190.0 L 147.0 190.0 L 147.0 192.0 L 148.0 194.0 L 149.0 197.0 L 149.0 201.0 L 150.0 205.0 L 151.0 210.0 L 152.0 214.0 L 152.0 217.0 L 152.0 220.0 L 153.0 221.0 L 153.0 221.0 L 153.0 220.0 " stroke="black" fill="none" stroke-width="5.0" stroke-linecap="round" stroke-linejoin="round" />
<path d="M 150.0 192.0 L 150.0 192.0 L 150.0 192.0 L 150.0 191.0 L 150.0 191.0 L 150.0 190.0 L 150.0 190.0 L 150.0 189.0 L 150.0 189.0 L 152.0 188.0 L 155.0 188.0 L 160.0 188.0 L 167.0 188.0 L 175.0 188.0 L 184.0 188.0 L 191.0 188.0 L 196.0 189.0 L 199.0 189.0 L 201.0 191.0 L 201.0 192.0 L 201.0 193.0 L 200.0 195.0 L 199.0 198.0 L 196.0 200.0 L 194.0 203.0 L 192.0 206.0 L 189.0 210.0 L 186.0 213.0 L 184.0 216.0 L 180.0 218.0 L 177.0 221.0 L 174.0 222.0 L 172.0 223.0 " stroke="black" fill="none" stroke-width="5.0" stroke-linecap="round" stroke-linejoin="round" />
<path d="M 159.0 220.0 L 157.0 220.0 L 155.0 220.0 L 152.0 220.0 L 151.0 221.0 L 150.0 221.0 L 150.0 221.0 L 150.0 221.0 L 150.0 221.0 L 152.0 221.0 L 154.0 221.0 L 158.0 220.0 L 164.0 218.0 L 171.0 217.0 L 178.0 215.0 L 184.0 214.0 L 190.0 213.0 L 195.0 212.0 " stroke="black" fill="none" stroke-width="5.0" stroke-linecap="round" stroke-linejoin="round" />
<path d="M 218.0 160.0 L 218.0 160.0 L 218.0 160.0 L 218.0 160.0 L 217.0 160.0 L 217.0 160.0 L 217.0 160.0 L 217.0 160.0 L 218.0 160.0 L 218.0 161.0 L 219.0 162.0 L 219.0 164.0 L 220.0 167.0 L 221.0 171.0 L 221.0 175.0 L 222.0 182.0 L 222.0 189.0 L 222.0 196.0 L 221.0 203.0 L 221.0 211.0 L 220.0 217.0 L 220.0 222.0 L 220.0 228.0 L 219.0 233.0 L 219.0 237.0 L 218.0 240.0 L 217.0 243.0 L 217.0 246.0 L 216.0 248.0 L 215.0 250.0 L 214.0 251.0 L 213.0 252.0 L 213.0 252.0 L 212.0 253.0 L 212.0 253.0 L 211.0 253.0 L 210.0 253.0 L 209.0 254.0 L 208.0 254.0 L 207.0 254.0 L 207.0 254.0 L 206.0 254.0 L 205.0 254.0 L 203.0 254.0 L 202.0 254.0 L 200.0 254.0 L 198.0 253.0 L 196.0 252.0 L 194.0 251.0 L 191.0 250.0 L 189.0 248.0 " stroke="black" fill="none" stroke-width="5.0" stroke-linecap="round" stroke-linejoin="round" />
</svg>