<svg xmlns="http://www.w3.org/2000/svg" width="300" height="300" viewBox="0 0 300 300">
<path d="M 101.0 75.0 L 101.0 75.0 L 101.0 74.0 L 101.0 74.0 L 101.0 73.0 L 100.0 73.0 L 100.0 73.0 L 100.0 72.0 L 100.0 72.0 L 99.0 72.0 L 99.0 72.0 L 98.0 72.0 L 98.0 73.0 L 98.0 74.0 L 97.0 75.0 L 96.0 76.0 L 96.0 78.0 L 95.0 80.0 L 95.0 82.0 L 94.0 84.0 L 93.0 87.0 L 92.0 90.0 L 90.0 94.0 L 88.0 98.0 L 86.0 103.0 L 84.0 107.0 L 81.0 111.0 L 79.0 114.0 L 78.0 117.0 L 76.0 119.0 L 74.0 121.0 L 73.0 123.0 L 71.0 125.0 L 70.0 127.0 L 69.0 129.0 L 67.0 132.0 L 66.0 134.0 L 65.0 135.0 L 63.0 137.0 L 62.0 139.0 L 61.0 141.0 L 60.0 143.0 L 59.0 144.0 L 58.0 145.0 L 58.0 146.0 L 58.0 146.0 L 57.0 146.0 L 57.0 147.0 L 57.0 147.0 L 57.0 147.0 L 57.0 147.0 L 57.0 147.0 L 57.0 147.0 L 58.0 147.0 L 58.0 147.0 L 59.0 147.0 L 60.0 147.0 L 61.0 147.0 L 62.0 146.0 L 63.0 146.0 L 64.0 146.0 L 65.0 146.0 L 67.0 146.0 L 68.0 146.0 L 70.0 146.0 L 73.0 145.0 L 76.0 145.0 L 79.0 144.0 L 82.0 144.0 L 85.0 143.0 L 88.0 143.0 L 91.0 142.0 L 93.0 141.0 L 95.0 140.0 L 98.0 139.0 L 100.0 138.0 L 102.0 136.0 L 103.0 135.0 L 105.0 134.0 L 105.0 133.0 " stroke="black" fill="none" stroke-width="5.0" stroke-linecap="round" stroke-linejoin="round" />
<path d="M 113.0 113.0 L 113.0 113.0 L 113.0 113.0 L 114.0 112.0 L 114.0 112.0 L 114.0 111.0 L 114.0 111.0 L 114.0 111.0 L 114.0 111.0 L 114.0 111.0 L 114.0 111.0 L 114.0 111.0 L 114.0 113.0 L 113.0 114.0 L 112.0 117.0 L 111.0 119.0 L 110.0 122.0 L 109.0 124.0 L 108.0 127.0 L 106.0 131.0 L 105.0 134.0 L 103.0 138.0 L 102.0 142.0 L 100.0 146.0 L 98.0 150.0 L 96.0 153.0 L 94.0 156.0 L 91.0 158.0 L 89.0 161.0 L 88.0 162.0 L 85.0 165.0 L 83.0 167.0 L 81.0 169.0 L 80.0 170.0 L 78.0 172.0 L 76.0 173.0 L 74.0 175.0 L 73.0 176.0 L 72.0 177.0 L 71.0 178.0 L 70.0 179.0 L 69.0 180.0 L 69.0 181.0 L 68.0 182.0 L 68.0 182.0 L 68.0 183.0 L 68.0 184.0 L 67.0 184.0 L 67.0 185.0 L 67.0 185.0 L 66.0 186.0 L 66.0 186.0 L 66.0 186.0 L 66.0 187.0 L 66.0 187.0 L 66.0 187.0 L 66.0 187.0 L 66.0 187.0 L 66.0 187.0 L 66.0 187.0 L 66.0 187.0 L 66.0 186.0 L 67.0 186.0 L 68.0 185.0 L 70.0 185.0 L 72.0 184.0 L 75.0 183.0 L 79.0 182.0 L 83.0 180.0 L 89.0 179.0 L 94.0 177.0 L 99.0 176.0 L 103.0 175.0 L 107.0 173.0 L 109.0 173.0 L 110.0 172.0 L 111.0 172.0 L 112.0 171.0 L 112.0 171.0 L 112.0 171.0 L 112.0 171.0 L 112.0 171.0 L 112.0 170.0 L 112.0 169.0 L 112.0 168.0 L 112.0 168.0 " stroke="black" fill="none" stroke-width="5.0" stroke-linecap="round" stroke-linejoin="round" />
<path d="M 110.0 157.0 L 110.0 157.0 L 109.0 157.0 L 108.0 157.0 L 108.0 156.0 L 107.0 156.0 L 107.0 156.0 L 107.0 156.0 L 107.0 156.0 L 107.0 156.0 L 107.0 156.0 L 107.0 156.0 L 107.0 157.0 L 108.0 158.0 L 109.0 159.0 L 109.0 160.0 L 110.0 161.0 L 110.0 162.0 L 111.0 164.0 L 111.0 165.0 L 112.0 167.0 L 112.0 168.0 L 113.0 170.0 L 113.0 173.0 L 114.0 175.0 L 114.0 178.0 L 115.0 181.0 L 116.0 184.0 L 116.0 187.0 L 117.0 189.0 L 118.0 190.0 L 118.0 191.0 " stroke="black" fill="none" stroke-width="5.0" stroke-linecap="round" stroke-linejoin="round" />
<path d="M 71.0 203.0 L 71.0 203.0 L 71.0 202.0 L 71.0 202.0 L 71.0 201.0 L 71.0 201.0 L 71.0 200.0 L 70.0 200.0 L 70.0 200.0 L 70.0 202.0 L 69.0 204.0 L 69.0 208.0 L 68.0 213.0 L 68.0 219.0 L 67.0 225.0 L 66.0 233.0 L 65.0 241.0 L 65.0 247.0 L 65.0 252.0 L 65.0 255.0 " stroke="black" fill="none" stroke-width="5.0" stroke-linecap="round" stroke-linejoin="round" />
<path d="M 92.0 201.0 L 92.0 201.0 L 91.0 201.0 L 90.0 201.0 L 89.0 201.0 L 89.0 201.0 L 89.0 202.0 L 89.0 203.0 L 89.0 205.0 L 89.0 208.0 L 89.0 212.0 L 90.0 218.0 L 90.0 225.0 L 90.0 233.0 L 90.0 239.0 L 91.0 245.0 L 91.0 248.0 L 92.0 250.0 " stroke="black" fill="none" stroke-width="5.0" stroke-linecap="round" stroke-linejoin="round" />
<path d="M 104.0 192.0 L 104.0 192.0 L 104.0 192.0 L 104.0 192.0 L 103.0 192.0 L 103.0 192.0 L 103.0 192.0 L 103.0 193.0 L 103.0 194.0 L 104.0 196.0 L 105.0 199.0 L 106.0 203.0 L 108.0 207.0 L 110.0 213.0 L 111.0 218.0 L 113.0 224.0 L 114.0 229.0 L 115.0 232.0 L 116.0 235.0 L 116.0 236.0 " stroke="black" fill="none" stroke-width="5.0" stroke-linecap="round" stroke-linejoin="round" />
<path d="M 135.0 80.0 L 135.0 80.0 L 135.0 80.0 L 135.0 80.0 L 134.0 80.0 L 134.0 79.0 L 134.0 79.0 L 133.0 79.0 L 133.0 79.0 L 133.0 79.0 L 133.0 79.0 L 133.0 79.0 L 133.0 79.0 L 134.0 79.0 L 135.0 79.0 L 136.0 79.0 L 137.0 79.0 L 138.0 79.0 L 139.0 79.0 L 140.0 80.0 L 141.0 80.0 L 142.0 80.0 L 143.0 80.0 L 144.0 80.0 L 145.0 80.0 L 146.0 80.0 L 147.0 80.0 L 148.0 80.0 L 149.0 80.0 L 150.0 80.0 L 151.0 80.0 L 152.0 80.0 L 153.0 80.0 L 154.0 80.0 L 155.0 80.0 L 156.0 80.0 L 157.0 80.0 L 158.0 80.0 L 159.0 80.0 L 160.0 80.0 L 161.0 80.0 L 162.0 80.0 L 164.0 80.0 L 165.0 80.0 L 166.0 80.0 L 167.0 80.0 L 169.0 80.0 L 170.0 80.0 L 171.0 80.0 L 172.0 80.0 L 173.0 80.0 L 175.0 80.0 L 176.0 80.0 L 177.0 80.0 L 178.0 80.0 L 179.0 80.0 L 180.0 80.0 L 181.0 80.0 L 181.0 80.0 L 182.0 80.0 L 183.0 80.0 L 184.0 80.0 L 185.0 80.0 L 185.0 80.0 L 186.0 80.0 L 186.0 80.0 L 187.0 80.0 L 187.0 80.0 L 188.0 80.0 L 188.0 80.0 L 188.0 80.0 L 188.0 80.0 L 189.0 80.0 L 189.0 80.0 L 189.0 80.0 L 189.0 80.0 L 190.0 80.0 L 190.0 80.0 L 190.0 80.0 L 190.0 80.0 L 191.0 80.0 L 191.0 80.0 L 191.0 80.0 L 191.0 80.0 L 191.0 80.0 L 192.0 80.0 L 192.0 80.0 L 192.0 80.0 L 193.0 80.0 L 193.0 80.0 L 193.0 80.0 L 193.0 80.0 L 194.0 80.0 L 194.0 80.0 L 194.0 80.0 L 195.0 80.0 L 195.0 80.0 L 196.0 80.0 L 196.0 80.0 L 197.0 80.0 L 198.0 80.0 L 198.0 80.0 L 199.0 80.0 L 200.0 80.0 L 201.0 80.0 L 202.0 80.0 L 203.0 81.0 L 204.0 81.0 L 205.0 81.0 L 205.0 81.0 L 206.0 81.0 L 207.0 81.0 L 208.0 81.0 L 209.0 81.0 L 210.0 81.0 L 211.0 81.0 L 212.0 81.0 L 213.0 81.0 L 214.0 81.0 L 214.0 81.0 L 215.0 81.0 L 216.0 81.0 L 217.0 81.0 L 218.0 81.0 L 218.0 81.0 L 219.0 81.0 L 220.0 81.0 L 220.0 81.0 L 221.0 81.0 L 221.0 81.0 L 222.0 81.0 L 223.0 81.0 L 223.0 81.0 L 224.0 81.0 L 225.0 81.0 L 225.0 81.0 L 226.0 81.0 L 227.0 81.0 L 227.0 81.0 L 228.0 81.0 L 229.0 82.0 L 229.0 82.0 L 230.0 82.0 L 231.0 82.0 L 231.0 82.0 L 232.0 82.0 L 233.0 82.0 L 233.0 82.0 L 234.0 82.0 L 234.0 82.0 L 235.0 82.0 L 235.0 82.0 L 235.0 82.0 L 235.0 82.0 " stroke="black" fill="none" stroke-width="5.0" stroke-linecap="round" stroke-linejoin="round" />
<path d="M 185.0 71.0 L 185.0 71.0 L 185.0 71.0 L 184.0 71.0 L 184.0 71.0 L 184.0 71.0 L 183.0 71.0 L 183.0 72.0 L 183.0 73.0 L 183.0 74.0 L 183.0 75.0 L 183.0 77.0 L 183.0 78.0 L 183.0 81.0 L 183.0 84.0 L 183.0 87.0 L 184.0 91.0 L 184.0 94.0 L 184.0 98.0 L 184.0 102.0 L 184.0 105.0 L 184.0 108.0 L 184.0 110.0 L 184.0 111.0 " stroke="black" fill="none" stroke-width="5.0" stroke-linecap="round" stroke-linejoin="round" />
<path d="M 146.0 110.0 L 146.0 110.0 L 145.0 110.0 L 145.0 110.0 L 144.0 110.0 L 144.0 110.0 L 144.0 110.0 L 144.0 110.0 L 144.0 110.0 L 144.0 109.0 L 144.0 109.0 L 144.0 109.0 L 144.0 109.0 L 145.0 108.0 L 145.0 108.0 L 146.0 108.0 L 146.0 108.0 L 147.0 108.0 L 148.0 108.0 L 148.0 108.0 L 149.0 108.0 L 150.0 108.0 L 151.0 108.0 L 152.0 108.0 L 153.0 108.0 L 154.0 108.0 L 155.0 108.0 L 157.0 108.0 L 158.0 108.0 L 160.0 108.0 L 161.0 108.0 L 163.0 108.0 L 164.0 108.0 L 166.0 109.0 L 167.0 109.0 L 168.0 109.0 L 170.0 109.0 L 171.0 109.0 L 173.0 110.0 L 174.0 110.0 L 175.0 110.0 L 176.0 110.0 L 177.0 110.0 L 178.0 110.0 L 179.0 110.0 L 180.0 110.0 L 181.0 110.0 L 182.0 110.0 L 183.0 110.0 L 184.0 110.0 L 184.0 110.0 L 185.0 110.0 L 185.0 110.0 L 186.0 110.0 L 186.0 110.0 L 187.0 110.0 L 187.0 110.0 L 187.0 110.0 L 188.0 110.0 L 188.0 110.0 L 189.0 110.0 L 189.0 110.0 L 189.0 110.0 L 190.0 110.0 L 190.0 110.0 L 190.0 110.0 L 191.0 110.0 L 191.0 110.0 L 191.0 110.0 L 191.0 110.0 L 192.0 110.0 L 192.0 110.0 L 192.0 110.0 L 193.0 110.0 L 193.0 110.0 L 193.0 110.0 L 194.0 110.0 L 194.0 110.0 L 195.0 110.0 L 195.0 110.0 L 195.0 110.0 L 196.0 110.0 L 196.0 111.0 L 196.0 111.0 L 197.0 111.0 L 197.0 111.0 L 198.0 111.0 L 198.0 111.0 L 198.0 111.0 L 199.0 111.0 L 200.0 111.0 L 200.0 111.0 L 201.0 111.0 L 201.0 111.0 L 202.0 111.0 L 202.0 111.0 L 203.0 111.0 L 203.0 111.0 L 204.0 111.0 L 204.0 111.0 L 205.0 111.0 L 205.0 111.0 L 206.0 111.0 L 206.0 111.0 L 207.0 111.0 L 207.0 111.0 L 208.0 111.0 L 208.0 111.0 L 209.0 111.0 L 209.0 111.0 L 209.0 111.0 L 210.0 111.0 L 210.0 111.0 L 210.0 111.0 L 211.0 110.0 L 211.0 110.0 L 212.0 110.0 L 212.0 110.0 L 213.0 110.0 L 213.0 110.0 L 214.0 110.0 L 214.0 110.0 L 215.0 110.0 L 215.0 110.0 L 216.0 110.0 L 217.0 110.0 L 217.0 110.0 L 218.0 110.0 L 218.0 110.0 L 219.0 110.0 L 219.0 110.0 L 219.0 110.0 L 220.0 110.0 L 220.0 110.0 L 220.0 110.0 " stroke="black" fill="none" stroke-width="5.0" stroke-linecap="round" stroke-linejoin="round" />
<path d="M 129.0 130.0 L 129.0 130.0 L 128.0 130.0 L 127.0 130.0 L 127.0 130.0 L 127.0 131.0 L 126.0 132.0 L 126.0 134.0 L 126.0 137.0 L 127.0 141.0 L 127.0 144.0 L 128.0 148.0 L 129.0 152.0 L 129.0 155.0 L 130.0 156.0 " stroke="black" fill="none" stroke-width="5.0" stroke-linecap="round" stroke-linejoin="round" />
<path d="M 132.0 129.0 L 132.0 129.0 L 132.0 129.0 L 132.0 129.0 L 132.0 129.0 L 132.0 129.0 L 132.0 129.0 L 132.0 129.0 L 131.0 129.0 L 131.0 129.0 L 131.0 129.0 L 131.0 129.0 L 131.0 129.0 L 131.0 129.0 L 131.0 129.0 L 131.0 129.0 L 131.0 129.0 L 131.0 129.0 L 131.0 129.0 L 131.0 129.0 L 131.0 129.0 L 131.0 129.0 L 132.0 129.0 L 132.0 129.0 L 133.0 129.0 L 133.0 129.0 L 134.0 129.0 L 135.0 129.0 L 136.0 129.0 L 137.0 129.0 L 138.0 129.0 L 139.0 129.0 L 140.0 129.0 L 141.0 129.0 L 143.0 129.0 L 144.0 129.0 L 144.0 129.0 L 145.0 129.0 L 146.0 129.0 L 147.0 129.0 L 148.0 129.0 L 148.0 129.0 L 149.0 129.0 L 150.0 129.0 L 150.0 129.0 L 150.0 129.0 L 151.0 129.0 L 152.0 129.0 L 152.0 129.0 L 152.0 129.0 L 153.0 129.0 L 153.0 130.0 L 153.0 130.0 L 154.0 130.0 L 154.0 130.0 L 155.0 130.0 L 155.0 130.0 L 155.0 130.0 L 156.0 130.0 L 156.0 130.0 L 157.0 130.0 L 157.0 130.0 L 158.0 130.0 L 158.0 130.0 L 159.0 130.0 L 159.0 130.0 L 160.0 130.0 L 160.0 130.0 L 161.0 130.0 L 162.0 130.0 L 163.0 130.0 L 163.0 130.0 L 164.0 130.0 L 165.0 129.0 L 165.0 129.0 L 166.0 129.0 L 166.0 129.0 L 167.0 129.0 L 167.0 129.0 L 168.0 129.0 L 168.0 129.0 L 169.0 129.0 L 170.0 129.0 L 170.0 129.0 L 171.0 129.0 L 171.0 128.0 L 172.0 128.0 L 173.0 128.0 L 173.0 128.0 L 174.0 128.0 L 175.0 128.0 L 175.0 128.0 L 176.0 128.0 L 177.0 128.0 L 177.0 128.0 L 178.0 128.0 L 179.0 128.0 L 179.0 128.0 L 180.0 128.0 L 181.0 128.0 L 182.0 128.0 L 182.0 128.0 L 183.0 128.0 L 184.0 128.0 L 184.0 128.0 L 185.0 128.0 L 185.0 128.0 L 186.0 128.0 L 187.0 128.0 L 187.0 128.0 L 188.0 128.0 L 188.0 128.0 L 189.0 128.0 L 189.0 128.0 L 190.0 128.0 L 190.0 128.0 L 191.0 128.0 L 191.0 128.0 L 191.0 128.0 L 192.0 127.0 L 192.0 127.0 L 192.0 127.0 L 193.0 127.0 L 193.0 127.0 L 193.0 127.0 L 193.0 127.0 L 194.0 127.0 L 194.0 127.0 L 194.0 127.0 L 195.0 127.0 L 195.0 127.0 L 195.0 127.0 L 196.0 127.0 L 196.0 127.0 L 196.0 127.0 L 197.0 127.0 L 197.0 127.0 L 198.0 127.0 L 198.0 127.0 L 199.0 127.0 L 199.0 127.0 L 200.0 127.0 L 200.0 127.0 L 201.0 127.0 L 202.0 127.0 L 202.0 127.0 L 203.0 127.0 L 203.0 127.0 L 204.0 127.0 L 204.0 127.0 L 205.0 127.0 L 206.0 127.0 L 206.0 127.0 L 207.0 127.0 L 207.0 127.0 L 208.0 127.0 L 209.0 127.0 L 209.0 127.0 L 210.0 127.0 L 210.0 127.0 L 211.0 127.0 L 212.0 127.0 L 212.0 127.0 L 213.0 127.0 L 213.0 127.0 L 214.0 127.0 L 214.0 127.0 L 215.0 127.0 L 215.0 127.0 L 216.0 127.0 L 216.0 127.0 L 217.0 127.0 L 218.0 127.0 L 218.0 127.0 L 218.0 127.0 L 219.0 127.0 L 219.0 127.0 L 220.0 127.0 L 221.0 127.0 L 221.0 127.0 L 221.0 127.0 L 222.0 127.0 L 223.0 127.0 L 223.0 127.0 L 223.0 127.0 L 224.0 127.0 L 225.0 127.0 L 225.0 127.0 L 225.0 127.0 L 226.0 128.0 L 227.0 128.0 L 227.0 128.0 L 227.0 128.0 L 228.0 128.0 L 228.0 128.0 L 229.0 128.0 L 229.0 128.0 L 229.0 128.0 L 230.0 128.0 L 230.0 128.0 L 230.0 128.0 L 231.0 128.0 L 231.0 128.0 L 231.0 128.0 L 231.0 128.0 L 232.0 128.0 L 232.0 128.0 L 232.0 128.0 L 232.0 128.0 L 232.0 128.0 L 232.0 128.0 L 232.0 128.0 L 232.0 128.0 L 232.0 128.0 L 233.0 128.0 L 233.0 128.0 L 233.0 128.0 L 233.0 128.0 L 233.0 128.0 L 233.0 128.0 L 233.0 128.0 L 234.0 128.0 L 234.0 128.0 L 234.0 128.0 L 234.0 128.0 L 234.0 128.0 L 234.0 128.0 L 234.0 128.0 L 234.0 128.0 L 234.0 129.0 L 234.0 129.0 L 234.0 129.0 L 234.0 129.0 L 234.0 129.0 L 234.0 130.0 L 234.0 131.0 L 234.0 132.0 L 234.0 134.0 L 234.0 136.0 L 233.0 138.0 L 233.0 140.0 L 233.0 143.0 L 232.0 145.0 L 232.0 147.0 L 232.0 149.0 L 232.0 150.0 L 232.0 151.0 " stroke="black" fill="none" stroke-width="5.0" stroke-linecap="round" stroke-linejoin="round" />
<path d="M 168.0 129.0 L 168.0 129.0 L 168.0 129.0 L 168.0 129.0 L 168.0 129.0 L 168.0 129.0 L 168.0 129.0 L 168.0 129.0 L 168.0 129.0 L 168.0 129.0 L 168.0 130.0 L 168.0 131.0 L 168.0 133.0 L 168.0 135.0 L 168.0 138.0 L 168.0 142.0 L 168.0 146.0 L 168.0 149.0 L 168.0 152.0 L 169.0 154.0 L 169.0 156.0 " stroke="black" fill="none" stroke-width="5.0" stroke-linecap="round" stroke-linejoin="round" />
<path d="M 197.0 131.0 L 197.0 131.0 L 197.0 131.0 L 197.0 131.0 L 197.0 131.0 L 196.0 131.0 L 196.0 131.0 L 196.0 131.0 L 196.0 130.0 L 196.0 130.0 L 196.0 130.0 L 196.0 131.0 L 196.0 133.0 L 196.0 135.0 L 196.0 138.0 L 196.0 141.0 L 196.0 144.0 L 196.0 147.0 L 196.0 150.0 L 196.0 152.0 " stroke="black" fill="none" stroke-width="5.0" stroke-linecap="round" stroke-linejoin="round" />
<path d="M 135.0 159.0 L 135.0 159.0 L 134.0 159.0 L 134.0 159.0 L 133.0 159.0 L 133.0 159.0 L 132.0 159.0 L 132.0 159.0 L 132.0 159.0 L 132.0 159.0 L 131.0 159.0 L 131.0 159.0 L 131.0 159.0 L 131.0 159.0 L 131.0 159.0 L 132.0 159.0 L 132.0 159.0 L 133.0 159.0 L 134.0 159.0 L 135.0 159.0 L 136.0 159.0 L 137.0 159.0 L 139.0 159.0 L 140.0 159.0 L 142.0 159.0 L 143.0 159.0 L 145.0 159.0 L 147.0 159.0 L 148.0 159.0 L 150.0 159.0 L 151.0 159.0 L 153.0 159.0 L 154.0 159.0 L 156.0 159.0 L 157.0 159.0 L 158.0 159.0 L 160.0 159.0 L 161.0 159.0 L 162.0 159.0 L 163.0 159.0 L 165.0 159.0 L 166.0 159.0 L 168.0 159.0 L 169.0 159.0 L 171.0 159.0 L 172.0 159.0 L 174.0 159.0 L 176.0 159.0 L 177.0 159.0 L 179.0 159.0 L 180.0 159.0 L 181.0 159.0 L 183.0 159.0 L 184.0 159.0 L 185.0 159.0 L 186.0 159.0 L 187.0 159.0 L 188.0 159.0 L 189.0 159.0 L 190.0 159.0 L 191.0 159.0 L 192.0 158.0 L 193.0 158.0 L 193.0 158.0 L 194.0 158.0 L 194.0 158.0 L 195.0 158.0 L 196.0 158.0 L 196.0 158.0 L 197.0 158.0 L 197.0 158.0 L 198.0 158.0 L 199.0 158.0 L 199.0 158.0 L 200.0 158.0 L 200.0 158.0 L 201.0 158.0 L 202.0 158.0 L 203.0 158.0 L 203.0 158.0 L 204.0 158.0 L 205.0 158.0 L 206.0 158.0 L 207.0 158.0 L 207.0 158.0 L 209.0 157.0 L 209.0 157.0 L 210.0 157.0 L 211.0 157.0 L 212.0 157.0 L 213.0 157.0 L 214.0 157.0 L 215.0 157.0 L 216.0 157.0 L 217.0 157.0 L 218.0 157.0 L 218.0 157.0 L 219.0 157.0 L 220.0 157.0 L 221.0 157.0 L 222.0 157.0 L 223.0 157.0 L 224.0 157.0 L 225.0 157.0 L 225.0 157.0 L 226.0 157.0 L 227.0 157.0 L 228.0 156.0 L 229.0 156.0 L 229.0 156.0 L 230.0 156.0 L 230.0 156.0 L 231.0 156.0 L 231.0 156.0 L 231.0 156.0 L 231.0 156.0 " stroke="black" fill="none" stroke-width="5.0" stroke-linecap="round" stroke-linejoin="round" />
<path d="M 142.0 174.0 L 142.0 174.0 L 141.0 174.0 L 141.0 174.0 L 141.0 174.0 L 140.0 174.0 L 140.0 174.0 L 140.0 174.0 L 140.0 174.0 L 140.0 175.0 L 140.0 175.0 L 140.0 176.0 L 140.0 178.0 L 140.0 180.0 L 141.0 183.0 L 141.0 186.0 L 141.0 189.0 L 142.0 194.0 L 142.0 198.0 L 142.0 204.0 L 142.0 209.0 L 142.0 213.0 L 142.0 217.0 L 142.0 220.0 L 142.0 221.0 L 143.0 222.0 L 143.0 222.0 " stroke="black" fill="none" stroke-width="5.0" stroke-linecap="round" stroke-linejoin="round" />
<path d="M 145.0 175.0 L 145.0 175.0 L 146.0 174.0 L 146.0 173.0 L 146.0 173.0 L 147.0 172.0 L 147.0 172.0 L 147.0 172.0 L 147.0 172.0 L 147.0 172.0 L 147.0 172.0 L 147.0 172.0 L 147.0 172.0 L 146.0 172.0 L 146.0 173.0 L 146.0 173.0 L 146.0 173.0 L 146.0 173.0 L 146.0 173.0 L 146.0 173.0 L 146.0 173.0 L 146.0 173.0 L 146.0 173.0 L 145.0 173.0 L 145.0 173.0 L 145.0 173.0 L 145.0 173.0 L 145.0 173.0 L 145.0 173.0 L 145.0 173.0 L 145.0 173.0 L 146.0 173.0 L 146.0 173.0 L 147.0 173.0 L 148.0 172.0 L 148.0 172.0 L 149.0 172.0 L 150.0 172.0 L 152.0 172.0 L 153.0 172.0 L 154.0 172.0 L 156.0 172.0 L 157.0 172.0 L 158.0 172.0 L 160.0 171.0 L 161.0 171.0 L 162.0 171.0 L 163.0 171.0 L 164.0 171.0 L 165.0 171.0 L 166.0 171.0 L 167.0 171.0 L 167.0 171.0 L 168.0 171.0 L 169.0 171.0 L 169.0 171.0 L 170.0 171.0 L 170.0 171.0 L 171.0 171.0 L 172.0 171.0 L 173.0 171.0 L 174.0 171.0 L 175.0 171.0 L 176.0 171.0 L 177.0 171.0 L 178.0 171.0 L 179.0 171.0 L 180.0 171.0 L 181.0 171.0 L 182.0 171.0 L 182.0 171.0 L 183.0 171.0 L 184.0 171.0 L 185.0 170.0 L 186.0 170.0 L 187.0 170.0 L 187.0 170.0 L 188.0 170.0 L 189.0 170.0 L 190.0 170.0 L 190.0 170.0 L 191.0 170.0 L 192.0 170.0 L 192.0 170.0 L 193.0 169.0 L 193.0 169.0 L 194.0 169.0 L 194.0 169.0 L 195.0 169.0 L 195.0 169.0 L 196.0 169.0 L 196.0 169.0 L 197.0 169.0 L 197.0 169.0 L 197.0 169.0 L 198.0 169.0 L 198.0 169.0 L 199.0 169.0 L 199.0 169.0 L 200.0 169.0 L 200.0 169.0 L 201.0 169.0 L 201.0 169.0 L 202.0 169.0 L 203.0 169.0 L 203.0 169.0 L 204.0 169.0 L 204.0 169.0 L 205.0 169.0 L 205.0 169.0 L 206.0 169.0 L 207.0 169.0 L 207.0 169.0 L 208.0 169.0 L 209.0 169.0 L 209.0 169.0 L 210.0 169.0 L 210.0 169.0 L 211.0 169.0 L 212.0 169.0 L 212.0 169.0 L 213.0 169.0 L 214.0 169.0 L 214.0 169.0 L 215.0 169.0 L 215.0 169.0 L 216.0 169.0 L 217.0 169.0 L 217.0 169.0 L 218.0 169.0 L 218.0 169.0 L 219.0 169.0 L 219.0 168.0 L 220.0 168.0 L 220.0 168.0 L 221.0 168.0 L 221.0 168.0 L 222.0 168.0 L 222.0 168.0 L 222.0 168.0 L 223.0 168.0 L 223.0 168.0 L 224.0 168.0 L 224.0 168.0 L 224.0 168.0 L 225.0 168.0 L 225.0 168.0 L 225.0 168.0 L 225.0 168.0 L 226.0 168.0 L 226.0 168.0 L 226.0 168.0 L 226.0 168.0 L 226.0 168.0 L 226.0 168.0 L 226.0 169.0 L 227.0 169.0 L 227.0 170.0 L 227.0 170.0 L 227.0 171.0 L 227.0 172.0 L 227.0 173.0 L 227.0 175.0 L 227.0 177.0 L 227.0 179.0 L 227.0 182.0 L 227.0 185.0 L 227.0 188.0 L 227.0 191.0 L 227.0 193.0 L 226.0 196.0 L 226.0 198.0 L 226.0 200.0 L 226.0 202.0 L 226.0 203.0 L 226.0 205.0 L 226.0 206.0 L 226.0 208.0 L 226.0 209.0 L 226.0 211.0 L 226.0 212.0 L 226.0 213.0 L 226.0 214.0 L 226.0 215.0 L 226.0 216.0 L 226.0 217.0 L 226.0 218.0 L 225.0 219.0 L 225.0 220.0 L 224.0 220.0 L 224.0 220.0 L 223.0 220.0 " stroke="black" fill="none" stroke-width="5.0" stroke-linecap="round" stroke-linejoin="round" />
<path d="M 148.0 192.0 L 148.0 192.0 L 148.0 192.0 L 148.0 192.0 L 148.0 192.0 L 147.0 192.0 L 147.0 192.0 L 147.0 192.0 L 147.0 192.0 L 147.0 192.0 L 147.0 192.0 L 147.0 192.0 L 147.0 192.0 L 148.0 192.0 L 148.0 192.0 L 149.0 191.0 L 150.0 191.0 L 151.0 191.0 L 152.0 191.0 L 153.0 191.0 L 154.0 191.0 L 155.0 191.0 L 156.0 191.0 L 157.0 191.0 L 159.0 191.0 L 160.0 191.0 L 162.0 191.0 L 163.0 191.0 L 165.0 191.0 L 167.0 190.0 L 169.0 190.0 L 171.0 190.0 L 173.0 190.0 L 174.0 190.0 L 176.0 190.0 L 178.0 190.0 L 180.0 190.0 L 182.0 189.0 L 183.0 189.0 L 185.0 189.0 L 186.0 189.0 L 188.0 188.0 L 189.0 188.0 L 191.0 188.0 L 192.0 188.0 L 193.0 188.0 L 193.0 188.0 L 194.0 188.0 L 195.0 188.0 L 195.0 188.0 L 196.0 188.0 L 197.0 188.0 L 198.0 188.0 L 199.0 188.0 L 200.0 188.0 L 202.0 187.0 L 203.0 187.0 L 204.0 187.0 L 205.0 187.0 L 206.0 187.0 L 207.0 187.0 L 208.0 187.0 L 209.0 187.0 L 210.0 187.0 L 212.0 187.0 L 213.0 187.0 L 214.0 187.0 L 215.0 187.0 L 216.0 187.0 L 216.0 187.0 L 217.0 187.0 " stroke="black" fill="none" stroke-width="5.0" stroke-linecap="round" stroke-linejoin="round" />
<path d="M 151.0 202.0 L 151.0 202.0 L 151.0 202.0 L 151.0 202.0 L 150.0 202.0 L 150.0 202.0 L 150.0 202.0 L 149.0 202.0 L 149.0 202.0 L 149.0 202.0 L 149.0 202.0 L 149.0 202.0 L 149.0 202.0 L 150.0 202.0 L 150.0 202.0 L 151.0 202.0 L 152.0 202.0 L 153.0 202.0 L 154.0 202.0 L 155.0 202.0 L 156.0 202.0 L 157.0 202.0 L 157.0 202.0 L 159.0 202.0 L 160.0 202.0 L 161.0 202.0 L 162.0 203.0 L 164.0 203.0 L 165.0 203.0 L 167.0 203.0 L 169.0 203.0 L 170.0 203.0 L 172.0 204.0 L 174.0 204.0 L 175.0 204.0 L 177.0 204.0 L 179.0 204.0 L 181.0 204.0 L 182.0 204.0 L 184.0 204.0 L 185.0 204.0 L 187.0 204.0 L 188.0 204.0 L 189.0 204.0 L 191.0 204.0 L 192.0 204.0 L 193.0 204.0 L 194.0 204.0 L 195.0 204.0 L 197.0 204.0 L 198.0 204.0 L 200.0 204.0 L 201.0 204.0 L 203.0 204.0 L 204.0 204.0 L 206.0 204.0 L 207.0 204.0 L 209.0 204.0 L 210.0 204.0 L 211.0 204.0 L 212.0 204.0 L 213.0 203.0 L 214.0 203.0 L 215.0 203.0 L 216.0 203.0 L 216.0 203.0 L 216.0 203.0 L 216.0 203.0 L 216.0 203.0 " stroke="black" fill="none" stroke-width="5.0" stroke-linecap="round" stroke-linejoin="round" />
<path d="M 149.0 223.0 L 149.0 223.0 L 149.0 223.0 L 149.0 223.0 L 148.0 223.0 L 148.0 223.0 L 148.0 223.0 L 148.0 223.0 L 148.0 223.0 L 148.0 223.0 L 148.0 222.0 L 148.0 222.0 L 148.0 222.0 L 148.0 222.0 L 148.0 222.0 L 149.0 221.0 L 151.0 221.0 L 152.0 221.0 L 153.0 221.0 L 155.0 221.0 L 157.0 220.0 L 159.0 220.0 L 161.0 220.0 L 164.0 220.0 L 167.0 220.0 L 169.0 220.0 L 172.0 220.0 L 175.0 220.0 L 177.0 220.0 L 180.0 220.0 L 182.0 220.0 L 184.0 220.0 L 186.0 220.0 L 188.0 220.0 L 190.0 220.0 L 191.0 220.0 L 193.0 220.0 L 194.0 220.0 L 196.0 219.0 L 197.0 219.0 L 198.0 219.0 L 199.0 218.0 L 200.0 218.0 L 201.0 218.0 L 202.0 218.0 L 203.0 218.0 L 204.0 218.0 L 205.0 218.0 L 206.0 218.0 L 207.0 218.0 L 209.0 218.0 L 210.0 218.0 L 211.0 217.0 L 212.0 217.0 L 213.0 217.0 L 213.0 217.0 L 214.0 217.0 L 214.0 217.0 L 214.0 217.0 L 213.0 218.0 " stroke="black" fill="none" stroke-width="5.0" stroke-linecap="round" stroke-linejoin="round" />
<path d="M 173.0 230.0 L 173.0 230.0 L 173.0 230.0 L 173.0 230.0 L 172.0 230.0 L 172.0 230.0 L 171.0 230.0 L 169.0 230.0 L 168.0 231.0 L 166.0 233.0 L 164.0 234.0 L 161.0 236.0 L 158.0 238.0 L 155.0 240.0 L 151.0 242.0 L 147.0 244.0 L 143.0 247.0 L 138.0 249.0 L 134.0 251.0 L 130.0 252.0 " stroke="black" fill="none" stroke-width="5.0" stroke-linecap="round" stroke-linejoin="round" />
<path d="M 199.0 236.0 L 199.0 236.0 L 199.0 236.0 L 199.0 236.0 L 199.0 236.0 L 199.0 235.0 L 199.0 235.0 L 199.0 235.0 L 199.0 235.0 L 199.0 235.0 L 200.0 235.0 L 202.0 237.0 L 204.0 238.0 L 207.0 239.0 L 211.0 241.0 L 216.0 242.0 L 221.0 244.0 L 227.0 245.0 L 231.0 245.0 L 235.0 246.0 L 237.0 247.0 L 238.0 249.0 L 238.0 249.0 " stroke="black" fill="none" stroke-width="5.0" stroke-linecap="round" stroke-linejoin="round" />
</svg>