<svg xmlns="http://www.w3.org/2000/svg" width="300" height="300" viewBox="0 0 300 300">
<path d="M 88.0 73.0 L 88.0 73.0 L 88.0 72.0 L 88.0 72.0 L 88.0 71.0 L 88.0 71.0 L 88.0 70.0 L 88.0 70.0 L 88.0 70.0 L 87.0 70.0 L 87.0 70.0 L 87.0 71.0 L 86.0 72.0 L 85.0 74.0 L 85.0 76.0 L 84.0 79.0 L 84.0 81.0 L 83.0 83.0 L 83.0 86.0 L 82.0 88.0 L 81.0 91.0 L 79.0 94.0 L 78.0 98.0 L 76.0 102.0 L 74.0 106.0 L 73.0 110.0 L 71.0 114.0 L 69.0 118.0 L 68.0 122.0 L 67.0 125.0 L 66.0 128.0 L 65.0 130.0 L 64.0 132.0 L 63.0 135.0 L 62.0 137.0 L 62.0 139.0 L 61.0 141.0 L 60.0 143.0 L 59.0 144.0 L 59.0 145.0 L 58.0 146.0 L 58.0 146.0 L 58.0 146.0 L 58.0 146.0 L 58.0 146.0 L 58.0 146.0 L 58.0 146.0 L 58.0 146.0 L 58.0 146.0 L 58.0 146.0 L 59.0 146.0 L 59.0 146.0 L 60.0 146.0 L 61.0 146.0 L 62.0 145.0 L 63.0 145.0 L 65.0 144.0 L 67.0 143.0 L 69.0 142.0 L 72.0 141.0 L 75.0 139.0 L 79.0 137.0 L 82.0 135.0 L 86.0 133.0 " stroke="black" fill="none" stroke-width="5.0" stroke-linecap="round" stroke-linejoin="round" />
<path d="M 105.0 110.0 L 105.0 110.0 L 105.0 111.0 L 104.0 112.0 L 103.0 113.0 L 102.0 114.0 L 101.0 115.0 L 100.0 117.0 L 99.0 119.0 L 98.0 122.0 L 97.0 125.0 L 95.0 128.0 L 93.0 132.0 L 91.0 136.0 L 88.0 141.0 L 85.0 147.0 L 82.0 152.0 L 79.0 156.0 L 76.0 161.0 L 74.0 164.0 L 73.0 167.0 L 71.0 170.0 L 70.0 172.0 L 69.0 173.0 L 68.0 175.0 L 67.0 176.0 L 66.0 177.0 L 66.0 178.0 L 65.0 178.0 L 65.0 180.0 L 64.0 181.0 L 63.0 182.0 L 63.0 184.0 L 62.0 185.0 L 62.0 186.0 L 62.0 187.0 L 62.0 187.0 L 62.0 187.0 L 62.0 187.0 L 62.0 187.0 L 63.0 187.0 L 64.0 187.0 L 64.0 187.0 L 65.0 187.0 L 66.0 186.0 L 68.0 186.0 L 69.0 185.0 L 71.0 185.0 L 74.0 184.0 L 77.0 183.0 L 81.0 181.0 L 86.0 179.0 L 92.0 177.0 L 96.0 175.0 L 101.0 174.0 L 105.0 172.0 L 107.0 172.0 L 109.0 171.0 L 109.0 171.0 " stroke="black" fill="none" stroke-width="5.0" stroke-linecap="round" stroke-linejoin="round" />
<path d="M 105.0 156.0 L 105.0 156.0 L 104.0 156.0 L 104.0 155.0 L 103.0 155.0 L 103.0 155.0 L 102.0 154.0 L 102.0 154.0 L 102.0 154.0 L 102.0 154.0 L 102.0 155.0 L 103.0 156.0 L 103.0 158.0 L 104.0 161.0 L 105.0 164.0 L 106.0 168.0 L 107.0 173.0 L 109.0 177.0 L 110.0 182.0 L 111.0 186.0 L 112.0 189.0 L 112.0 192.0 " stroke="black" fill="none" stroke-width="5.0" stroke-linecap="round" stroke-linejoin="round" />
<path d="M 65.0 201.0 L 65.0 201.0 L 65.0 201.0 L 65.0 202.0 L 65.0 202.0 L 65.0 202.0 L 65.0 204.0 L 64.0 205.0 L 64.0 209.0 L 64.0 214.0 L 63.0 221.0 L 63.0 229.0 L 62.0 237.0 L 62.0 244.0 L 61.0 250.0 L 61.0 254.0 L 61.0 255.0 " stroke="black" fill="none" stroke-width="5.0" stroke-linecap="round" stroke-linejoin="round" />
<path d="M 84.0 201.0 L 84.0 201.0 L 84.0 200.0 L 84.0 200.0 L 84.0 200.0 L 84.0 199.0 L 84.0 199.0 L 84.0 198.0 L 84.0 198.0 L 84.0 198.0 L 85.0 198.0 L 85.0 199.0 L 85.0 201.0 L 86.0 204.0 L 86.0 209.0 L 86.0 214.0 L 86.0 221.0 L 85.0 227.0 L 85.0 233.0 L 85.0 237.0 L 86.0 240.0 L 86.0 242.0 L 88.0 243.0 L 89.0 243.0 " stroke="black" fill="none" stroke-width="5.0" stroke-linecap="round" stroke-linejoin="round" />
<path d="M 103.0 199.0 L 103.0 199.0 L 103.0 199.0 L 102.0 199.0 L 102.0 198.0 L 102.0 198.0 L 102.0 198.0 L 102.0 198.0 L 102.0 198.0 L 102.0 198.0 L 102.0 199.0 L 103.0 200.0 L 104.0 202.0 L 105.0 205.0 L 106.0 209.0 L 107.0 214.0 L 108.0 219.0 L 109.0 224.0 " stroke="black" fill="none" stroke-width="5.0" stroke-linecap="round" stroke-linejoin="round" />
<path d="M 142.0 73.0 L 142.0 73.0 L 142.0 73.0 L 142.0 73.0 L 142.0 73.0 L 142.0 73.0 L 142.0 74.0 L 141.0 75.0 L 141.0 76.0 L 141.0 77.0 L 141.0 79.0 L 140.0 82.0 L 139.0 85.0 L 138.0 89.0 L 136.0 94.0 L 133.0 100.0 L 130.0 105.0 L 127.0 109.0 L 125.0 113.0 L 123.0 114.0 " stroke="black" fill="none" stroke-width="5.0" stroke-linecap="round" stroke-linejoin="round" />
<path d="M 135.0 96.0 L 135.0 96.0 L 135.0 96.0 L 135.0 96.0 L 135.0 96.0 L 135.0 96.0 L 136.0 96.0 L 137.0 96.0 L 139.0 96.0 L 141.0 97.0 L 143.0 98.0 L 145.0 99.0 L 148.0 101.0 L 150.0 102.0 L 152.0 103.0 L 154.0 104.0 L 155.0 105.0 " stroke="black" fill="none" stroke-width="5.0" stroke-linecap="round" stroke-linejoin="round" />
<path d="M 176.0 74.0 L 176.0 74.0 L 176.0 74.0 L 176.0 74.0 L 175.0 74.0 L 175.0 75.0 L 174.0 76.0 L 173.0 77.0 L 172.0 79.0 L 171.0 82.0 L 169.0 86.0 L 167.0 91.0 L 164.0 97.0 L 161.0 102.0 L 158.0 107.0 L 156.0 111.0 L 154.0 114.0 L 154.0 115.0 L 153.0 115.0 L 153.0 114.0 L 154.0 113.0 " stroke="black" fill="none" stroke-width="5.0" stroke-linecap="round" stroke-linejoin="round" />
<path d="M 169.0 93.0 L 169.0 94.0 L 169.0 95.0 L 169.0 95.0 L 169.0 96.0 L 170.0 97.0 L 170.0 98.0 L 171.0 99.0 L 173.0 100.0 L 175.0 100.0 L 178.0 101.0 L 181.0 102.0 L 185.0 103.0 L 188.0 105.0 L 191.0 106.0 L 193.0 108.0 " stroke="black" fill="none" stroke-width="5.0" stroke-linecap="round" stroke-linejoin="round" />
<path d="M 114.0 131.0 L 114.0 131.0 L 114.0 131.0 L 114.0 131.0 L 114.0 131.0 L 114.0 131.0 L 114.0 131.0 L 113.0 131.0 L 113.0 131.0 L 113.0 131.0 L 113.0 131.0 L 113.0 131.0 L 113.0 131.0 L 113.0 131.0 L 113.0 131.0 L 113.0 131.0 L 113.0 131.0 L 114.0 131.0 L 115.0 131.0 L 116.0 131.0 L 117.0 131.0 L 118.0 131.0 L 119.0 132.0 L 120.0 132.0 L 121.0 132.0 L 123.0 132.0 L 124.0 132.0 L 125.0 132.0 L 127.0 132.0 L 128.0 132.0 L 130.0 132.0 L 132.0 132.0 L 133.0 132.0 L 134.0 132.0 L 136.0 132.0 L 137.0 132.0 L 139.0 132.0 L 140.0 131.0 L 141.0 131.0 L 142.0 131.0 L 143.0 131.0 L 144.0 131.0 L 145.0 131.0 L 146.0 131.0 L 146.0 130.0 L 147.0 130.0 L 148.0 130.0 L 148.0 130.0 L 149.0 130.0 L 150.0 130.0 L 150.0 130.0 L 151.0 130.0 L 151.0 130.0 L 152.0 130.0 L 152.0 130.0 L 153.0 130.0 L 153.0 130.0 L 154.0 130.0 L 154.0 130.0 L 155.0 130.0 L 155.0 130.0 L 156.0 130.0 L 157.0 130.0 L 157.0 129.0 L 158.0 129.0 L 158.0 129.0 L 159.0 129.0 L 160.0 129.0 L 161.0 129.0 L 161.0 129.0 L 162.0 129.0 L 163.0 129.0 L 164.0 129.0 L 165.0 129.0 L 166.0 129.0 L 167.0 129.0 L 168.0 129.0 L 168.0 129.0 L 169.0 129.0 L 171.0 129.0 L 172.0 129.0 L 173.0 129.0 L 174.0 129.0 L 175.0 129.0 L 176.0 129.0 L 177.0 129.0 L 178.0 129.0 L 179.0 129.0 L 180.0 129.0 L 181.0 129.0 L 182.0 129.0 L 183.0 129.0 L 184.0 129.0 L 185.0 129.0 L 186.0 129.0 L 187.0 129.0 L 188.0 129.0 L 189.0 129.0 L 189.0 129.0 L 190.0 129.0 L 191.0 129.0 L 192.0 129.0 L 193.0 129.0 L 194.0 129.0 L 194.0 129.0 L 195.0 129.0 L 196.0 129.0 L 197.0 129.0 L 197.0 129.0 L 198.0 129.0 L 199.0 129.0 L 200.0 129.0 L 201.0 129.0 L 202.0 129.0 L 202.0 129.0 L 203.0 129.0 L 204.0 129.0 L 205.0 130.0 L 206.0 130.0 L 207.0 130.0 L 208.0 130.0 L 209.0 130.0 L 210.0 130.0 L 212.0 130.0 L 213.0 130.0 L 215.0 130.0 L 216.0 130.0 L 218.0 129.0 L 219.0 129.0 L 221.0 129.0 L 222.0 129.0 L 224.0 129.0 L 225.0 129.0 L 227.0 129.0 L 228.0 129.0 L 229.0 129.0 L 231.0 129.0 L 232.0 129.0 L 233.0 129.0 L 235.0 129.0 L 236.0 129.0 L 237.0 129.0 L 238.0 129.0 L 239.0 129.0 L 240.0 129.0 L 241.0 129.0 L 242.0 129.0 L 243.0 129.0 L 244.0 129.0 L 244.0 129.0 " stroke="black" fill="none" stroke-width="5.0" stroke-linecap="round" stroke-linejoin="round" />
<path d="M 146.0 137.0 L 146.0 137.0 L 146.0 137.0 L 146.0 137.0 L 146.0 137.0 L 146.0 137.0 L 146.0 137.0 L 146.0 137.0 L 146.0 137.0 L 146.0 137.0 L 146.0 137.0 L 146.0 137.0 L 146.0 138.0 L 146.0 139.0 L 147.0 141.0 L 147.0 142.0 L 147.0 144.0 L 147.0 146.0 L 147.0 149.0 L 147.0 151.0 L 147.0 154.0 L 147.0 156.0 L 147.0 159.0 L 147.0 161.0 L 147.0 164.0 L 147.0 166.0 L 147.0 168.0 L 147.0 171.0 L 147.0 173.0 L 147.0 175.0 L 147.0 177.0 L 147.0 179.0 L 147.0 182.0 L 147.0 185.0 L 148.0 187.0 L 148.0 190.0 L 148.0 193.0 L 148.0 195.0 L 148.0 198.0 L 148.0 200.0 L 148.0 202.0 L 148.0 204.0 L 148.0 206.0 L 148.0 208.0 L 148.0 209.0 L 148.0 211.0 L 148.0 213.0 L 148.0 215.0 L 148.0 217.0 L 148.0 219.0 L 148.0 220.0 L 148.0 222.0 L 148.0 223.0 L 148.0 224.0 L 148.0 224.0 L 148.0 225.0 L 148.0 225.0 L 148.0 225.0 " stroke="black" fill="none" stroke-width="5.0" stroke-linecap="round" stroke-linejoin="round" />
<path d="M 121.0 163.0 L 120.0 163.0 L 119.0 163.0 L 118.0 163.0 L 118.0 163.0 L 117.0 163.0 L 117.0 163.0 L 117.0 163.0 L 117.0 163.0 L 117.0 163.0 L 117.0 163.0 L 118.0 163.0 L 120.0 164.0 L 122.0 164.0 L 125.0 164.0 L 129.0 164.0 L 133.0 164.0 L 137.0 164.0 L 142.0 164.0 L 146.0 163.0 L 150.0 163.0 L 153.0 162.0 L 155.0 162.0 L 155.0 162.0 " stroke="black" fill="none" stroke-width="5.0" stroke-linecap="round" stroke-linejoin="round" />
<path d="M 127.0 185.0 L 126.0 185.0 L 125.0 185.0 L 124.0 185.0 L 123.0 185.0 L 122.0 185.0 L 121.0 185.0 L 121.0 185.0 L 121.0 185.0 L 121.0 185.0 L 121.0 185.0 L 123.0 185.0 L 124.0 185.0 L 126.0 185.0 L 128.0 185.0 L 131.0 184.0 L 134.0 184.0 L 137.0 184.0 L 140.0 184.0 L 143.0 185.0 L 145.0 185.0 L 146.0 186.0 " stroke="black" fill="none" stroke-width="5.0" stroke-linecap="round" stroke-linejoin="round" />
<path d="M 122.0 207.0 L 121.0 207.0 L 119.0 207.0 L 118.0 207.0 L 118.0 208.0 L 117.0 208.0 L 117.0 208.0 L 117.0 208.0 L 117.0 208.0 L 118.0 208.0 L 119.0 208.0 L 121.0 208.0 L 124.0 207.0 L 128.0 206.0 L 132.0 205.0 L 137.0 204.0 L 142.0 202.0 L 147.0 200.0 L 152.0 198.0 L 154.0 197.0 " stroke="black" fill="none" stroke-width="5.0" stroke-linecap="round" stroke-linejoin="round" />
<path d="M 166.0 139.0 L 166.0 139.0 L 165.0 140.0 L 165.0 141.0 L 165.0 141.0 L 165.0 143.0 L 164.0 144.0 L 164.0 145.0 L 164.0 148.0 L 164.0 150.0 L 164.0 153.0 L 164.0 157.0 L 163.0 161.0 L 163.0 165.0 L 163.0 169.0 L 163.0 174.0 L 163.0 180.0 L 163.0 186.0 L 162.0 192.0 L 162.0 197.0 L 162.0 203.0 L 162.0 207.0 L 161.0 211.0 L 161.0 214.0 L 160.0 217.0 L 160.0 218.0 L 160.0 220.0 L 160.0 220.0 L 160.0 220.0 L 160.0 219.0 L 161.0 218.0 " stroke="black" fill="none" stroke-width="5.0" stroke-linecap="round" stroke-linejoin="round" />
<path d="M 172.0 163.0 L 171.0 163.0 L 170.0 163.0 L 168.0 163.0 L 168.0 163.0 L 167.0 163.0 L 167.0 163.0 L 167.0 163.0 L 167.0 163.0 L 168.0 163.0 L 170.0 163.0 L 172.0 163.0 L 175.0 162.0 L 178.0 162.0 L 181.0 162.0 L 184.0 161.0 L 187.0 161.0 " stroke="black" fill="none" stroke-width="5.0" stroke-linecap="round" stroke-linejoin="round" />
<path d="M 168.0 189.0 L 167.0 189.0 L 166.0 189.0 L 165.0 189.0 L 165.0 189.0 L 165.0 189.0 L 165.0 189.0 L 165.0 189.0 L 166.0 189.0 L 167.0 189.0 L 169.0 188.0 L 172.0 188.0 L 175.0 188.0 L 178.0 187.0 L 181.0 187.0 L 184.0 186.0 L 187.0 186.0 L 188.0 186.0 " stroke="black" fill="none" stroke-width="5.0" stroke-linecap="round" stroke-linejoin="round" />
<path d="M 170.0 204.0 L 170.0 204.0 L 168.0 204.0 L 166.0 204.0 L 165.0 205.0 L 164.0 205.0 L 164.0 205.0 L 164.0 205.0 L 164.0 205.0 L 165.0 206.0 L 166.0 206.0 L 168.0 206.0 L 171.0 206.0 L 174.0 206.0 L 178.0 206.0 L 182.0 206.0 L 186.0 206.0 L 189.0 206.0 L 193.0 206.0 " stroke="black" fill="none" stroke-width="5.0" stroke-linecap="round" stroke-linejoin="round" />
<path d="M 127.0 241.0 L 127.0 241.0 L 127.0 241.0 L 126.0 241.0 L 126.0 241.0 L 126.0 241.0 L 126.0 241.0 L 126.0 241.0 L 127.0 241.0 L 129.0 241.0 L 131.0 240.0 L 135.0 239.0 L 139.0 238.0 L 143.0 237.0 L 148.0 236.0 L 153.0 234.0 L 159.0 232.0 L 166.0 230.0 L 172.0 228.0 L 179.0 227.0 L 184.0 225.0 L 188.0 224.0 " stroke="black" fill="none" stroke-width="5.0" stroke-linecap="round" stroke-linejoin="round" />
<path d="M 201.0 74.0 L 201.0 74.0 L 201.0 74.0 L 201.0 74.0 L 201.0 75.0 L 201.0 75.0 L 201.0 76.0 L 201.0 76.0 L 201.0 78.0 L 201.0 79.0 L 201.0 81.0 L 200.0 84.0 L 200.0 87.0 L 200.0 90.0 L 199.0 94.0 L 199.0 98.0 L 198.0 102.0 L 198.0 106.0 L 197.0 110.0 L 197.0 113.0 L 197.0 116.0 L 196.0 118.0 L 196.0 120.0 L 196.0 122.0 L 196.0 124.0 L 196.0 126.0 L 196.0 127.0 L 196.0 129.0 L 196.0 131.0 L 196.0 133.0 L 196.0 135.0 L 196.0 137.0 L 196.0 139.0 L 196.0 141.0 L 195.0 143.0 L 195.0 146.0 L 195.0 148.0 L 195.0 150.0 L 195.0 152.0 L 195.0 153.0 L 195.0 155.0 L 195.0 156.0 L 195.0 158.0 L 195.0 160.0 L 195.0 161.0 L 195.0 163.0 L 195.0 165.0 L 195.0 166.0 L 195.0 168.0 L 195.0 169.0 L 195.0 171.0 L 195.0 172.0 L 195.0 174.0 L 195.0 175.0 L 195.0 177.0 L 195.0 179.0 L 195.0 180.0 L 195.0 182.0 L 195.0 184.0 L 195.0 186.0 L 196.0 187.0 L 196.0 189.0 L 196.0 190.0 L 196.0 192.0 L 196.0 193.0 L 196.0 195.0 L 197.0 196.0 L 197.0 198.0 L 197.0 199.0 L 198.0 200.0 L 198.0 202.0 L 198.0 203.0 L 199.0 204.0 L 199.0 206.0 L 200.0 207.0 L 200.0 208.0 L 201.0 209.0 L 201.0 210.0 L 202.0 211.0 L 202.0 212.0 L 202.0 213.0 L 203.0 214.0 L 203.0 215.0 L 204.0 216.0 L 204.0 216.0 L 205.0 218.0 L 205.0 219.0 L 206.0 220.0 L 207.0 221.0 L 207.0 222.0 L 208.0 223.0 L 209.0 224.0 L 209.0 226.0 L 210.0 227.0 L 211.0 228.0 L 212.0 230.0 L 212.0 231.0 L 213.0 233.0 L 214.0 234.0 L 216.0 235.0 L 217.0 237.0 L 218.0 238.0 L 219.0 239.0 L 221.0 240.0 L 222.0 241.0 L 223.0 242.0 L 224.0 243.0 L 225.0 244.0 L 226.0 245.0 L 227.0 246.0 L 227.0 247.0 L 228.0 247.0 L 229.0 248.0 L 229.0 249.0 L 230.0 250.0 L 230.0 251.0 L 231.0 252.0 L 231.0 253.0 L 232.0 253.0 L 232.0 253.0 L 233.0 253.0 L 233.0 253.0 L 233.0 253.0 L 234.0 253.0 L 234.0 252.0 L 234.0 251.0 L 235.0 249.0 L 235.0 247.0 L 236.0 244.0 L 237.0 240.0 L 238.0 234.0 L 239.0 228.0 L 240.0 220.0 L 242.0 210.0 L 243.0 206.0 " stroke="black" fill="none" stroke-width="5.0" stroke-linecap="round" stroke-linejoin="round" />
<path d="M 219.0 86.0 L 219.0 86.0 L 219.0 86.0 L 219.0 86.0 L 219.0 86.0 L 219.0 87.0 L 219.0 87.0 L 219.0 89.0 L 221.0 91.0 L 223.0 94.0 L 226.0 97.0 L 229.0 100.0 L 233.0 104.0 L 236.0 107.0 L 239.0 110.0 L 241.0 113.0 L 242.0 115.0 " stroke="black" fill="none" stroke-width="5.0" stroke-linecap="round" stroke-linejoin="round" />
<path d="M 231.0 158.0 L 231.0 158.0 L 231.0 158.0 L 231.0 158.0 L 231.0 158.0 L 231.0 158.0 L 231.0 158.0 L 231.0 158.0 L 231.0 158.0 L 231.0 158.0 L 230.0 158.0 L 230.0 158.0 L 230.0 158.0 L 230.0 159.0 L 230.0 160.0 L 229.0 162.0 L 229.0 164.0 L 228.0 166.0 L 227.0 169.0 L 227.0 172.0 L 225.0 176.0 L 225.0 180.0 L 223.0 184.0 L 222.0 188.0 L 221.0 191.0 L 220.0 193.0 L 219.0 196.0 L 218.0 198.0 L 217.0 200.0 L 216.0 202.0 L 215.0 203.0 L 214.0 205.0 L 213.0 207.0 L 212.0 209.0 L 211.0 211.0 L 210.0 213.0 L 209.0 215.0 L 208.0 217.0 L 207.0 220.0 L 205.0 222.0 L 204.0 224.0 L 203.0 226.0 L 202.0 228.0 L 201.0 230.0 L 200.0 232.0 L 199.0 234.0 L 198.0 235.0 L 198.0 236.0 L 197.0 237.0 L 196.0 239.0 L 196.0 240.0 L 195.0 241.0 L 194.0 242.0 L 193.0 244.0 L 192.0 245.0 L 191.0 247.0 L 190.0 248.0 L 189.0 249.0 L 188.0 250.0 L 187.0 251.0 L 186.0 252.0 L 185.0 253.0 L 184.0 253.0 L 183.0 254.0 L 183.0 254.0 " stroke="black" fill="none" stroke-width="5.0" stroke-linecap="round" stroke-linejoin="round" />
</svg>