<svg xmlns="http://www.w3.org/2000/svg" width="300" height="300" viewBox="0 0 300 300">
<path d="M 78.0 82.0 L 78.0 82.0 L 78.0 82.0 L 78.0 82.0 L 78.0 82.0 L 78.0 82.0 L 78.0 82.0 L 78.0 82.0 L 78.0 81.0 L 78.0 81.0 L 79.0 81.0 L 79.0 81.0 L 80.0 81.0 L 80.0 81.0 L 81.0 81.0 L 82.0 81.0 L 83.0 81.0 L 85.0 81.0 L 86.0 81.0 L 88.0 81.0 L 90.0 81.0 L 92.0 81.0 L 95.0 81.0 L 97.0 81.0 L 98.0 81.0 L 100.0 81.0 L 102.0 81.0 L 103.0 81.0 L 104.0 81.0 L 105.0 81.0 L 106.0 81.0 L 107.0 81.0 L 108.0 81.0 L 108.0 81.0 L 109.0 81.0 L 110.0 81.0 L 110.0 81.0 L 111.0 80.0 L 112.0 80.0 L 113.0 80.0 L 115.0 80.0 L 116.0 80.0 L 117.0 79.0 L 119.0 79.0 L 120.0 79.0 L 121.0 79.0 L 122.0 79.0 L 123.0 79.0 L 124.0 79.0 L 125.0 79.0 L 126.0 79.0 L 127.0 79.0 L 128.0 79.0 L 129.0 79.0 L 130.0 80.0 L 130.0 80.0 L 131.0 80.0 L 132.0 80.0 L 133.0 80.0 L 133.0 80.0 L 134.0 80.0 L 135.0 80.0 L 135.0 80.0 L 135.0 80.0 L 135.0 81.0 L 136.0 81.0 L 136.0 81.0 L 136.0 81.0 L 136.0 81.0 L 136.0 81.0 L 136.0 81.0 L 136.0 81.0 L 136.0 82.0 L 136.0 82.0 L 136.0 82.0 L 136.0 83.0 L 136.0 83.0 L 136.0 84.0 L 136.0 85.0 L 135.0 86.0 L 135.0 88.0 L 135.0 90.0 L 134.0 93.0 L 134.0 96.0 L 133.0 99.0 L 133.0 102.0 L 132.0 105.0 L 132.0 107.0 L 132.0 110.0 L 132.0 112.0 L 131.0 113.0 L 131.0 115.0 L 131.0 117.0 L 131.0 119.0 L 131.0 120.0 L 131.0 122.0 L 130.0 124.0 L 130.0 125.0 L 130.0 127.0 L 130.0 128.0 L 130.0 129.0 L 129.0 129.0 L 129.0 130.0 L 129.0 130.0 L 128.0 131.0 L 128.0 131.0 L 128.0 131.0 L 127.0 132.0 L 127.0 132.0 L 127.0 132.0 L 126.0 132.0 L 126.0 133.0 L 126.0 133.0 L 125.0 133.0 L 124.0 133.0 L 123.0 133.0 L 123.0 133.0 L 121.0 133.0 L 120.0 133.0 L 118.0 133.0 L 117.0 133.0 L 115.0 132.0 L 113.0 131.0 L 112.0 130.0 " stroke="black" fill="none" stroke-width="5.0" stroke-linecap="round" stroke-linejoin="round" />
<path d="M 85.0 94.0 L 85.0 94.0 L 85.0 94.0 L 84.0 94.0 L 84.0 94.0 L 84.0 94.0 L 84.0 94.0 L 84.0 94.0 L 85.0 95.0 L 87.0 95.0 L 89.0 96.0 L 92.0 98.0 L 96.0 99.0 L 100.0 101.0 L 104.0 102.0 L 107.0 104.0 L 110.0 105.0 " stroke="black" fill="none" stroke-width="5.0" stroke-linecap="round" stroke-linejoin="round" />
<path d="M 85.0 120.0 L 84.0 120.0 L 82.0 120.0 L 81.0 120.0 L 80.0 120.0 L 80.0 120.0 L 80.0 120.0 L 80.0 120.0 L 82.0 119.0 L 84.0 118.0 L 87.0 117.0 L 90.0 116.0 L 95.0 115.0 L 99.0 113.0 L 104.0 111.0 L 109.0 108.0 L 115.0 105.0 L 121.0 102.0 " stroke="black" fill="none" stroke-width="5.0" stroke-linecap="round" stroke-linejoin="round" />
<path d="M 158.0 83.0 L 158.0 83.0 L 157.0 83.0 L 157.0 83.0 L 157.0 83.0 L 156.0 83.0 L 156.0 83.0 L 156.0 83.0 L 156.0 83.0 L 156.0 83.0 L 156.0 83.0 L 157.0 82.0 L 158.0 82.0 L 159.0 82.0 L 161.0 82.0 L 162.0 82.0 L 164.0 82.0 L 166.0 82.0 L 168.0 82.0 L 171.0 82.0 L 173.0 82.0 L 175.0 82.0 L 177.0 83.0 L 179.0 83.0 L 181.0 83.0 L 183.0 83.0 L 185.0 83.0 L 186.0 83.0 L 188.0 83.0 L 189.0 83.0 L 191.0 83.0 L 192.0 83.0 L 193.0 83.0 L 194.0 83.0 L 196.0 83.0 L 197.0 83.0 L 198.0 83.0 L 199.0 83.0 L 200.0 83.0 L 201.0 83.0 L 203.0 83.0 L 204.0 83.0 L 205.0 83.0 L 207.0 83.0 L 208.0 83.0 L 209.0 83.0 L 210.0 83.0 L 211.0 83.0 L 212.0 83.0 L 213.0 83.0 L 213.0 84.0 L 214.0 84.0 L 214.0 85.0 L 215.0 85.0 L 215.0 86.0 L 216.0 86.0 L 216.0 87.0 L 216.0 88.0 L 216.0 88.0 L 216.0 89.0 L 217.0 90.0 L 217.0 91.0 L 217.0 91.0 L 217.0 92.0 L 217.0 93.0 L 217.0 95.0 L 217.0 96.0 L 217.0 98.0 L 217.0 100.0 L 217.0 102.0 L 216.0 105.0 L 216.0 107.0 L 216.0 110.0 L 215.0 113.0 L 215.0 115.0 L 214.0 118.0 L 214.0 120.0 L 214.0 123.0 L 214.0 125.0 L 214.0 127.0 L 213.0 129.0 L 213.0 131.0 L 213.0 133.0 L 213.0 135.0 L 213.0 137.0 L 212.0 139.0 L 212.0 140.0 L 212.0 142.0 L 212.0 143.0 L 211.0 144.0 L 211.0 145.0 L 210.0 146.0 L 210.0 147.0 L 210.0 147.0 L 209.0 148.0 L 208.0 148.0 L 207.0 148.0 L 206.0 148.0 L 205.0 147.0 L 203.0 145.0 L 201.0 143.0 L 199.0 141.0 L 197.0 138.0 L 196.0 137.0 " stroke="black" fill="none" stroke-width="5.0" stroke-linecap="round" stroke-linejoin="round" />
<path d="M 170.0 96.0 L 170.0 96.0 L 169.0 96.0 L 169.0 96.0 L 169.0 96.0 L 169.0 96.0 L 169.0 96.0 L 169.0 95.0 L 171.0 95.0 L 173.0 95.0 L 177.0 95.0 L 180.0 96.0 L 184.0 96.0 L 188.0 97.0 L 191.0 98.0 L 194.0 99.0 L 197.0 100.0 " stroke="black" fill="none" stroke-width="5.0" stroke-linecap="round" stroke-linejoin="round" />
<path d="M 166.0 129.0 L 166.0 129.0 L 165.0 129.0 L 164.0 128.0 L 164.0 128.0 L 164.0 128.0 L 164.0 127.0 L 165.0 127.0 L 167.0 126.0 L 170.0 125.0 L 173.0 124.0 L 178.0 123.0 L 182.0 122.0 L 188.0 121.0 L 193.0 120.0 L 198.0 117.0 L 205.0 114.0 L 208.0 113.0 " stroke="black" fill="none" stroke-width="5.0" stroke-linecap="round" stroke-linejoin="round" />
<path d="M 146.0 141.0 L 145.0 141.0 L 145.0 141.0 L 144.0 141.0 L 143.0 141.0 L 143.0 141.0 L 143.0 141.0 L 143.0 142.0 L 143.0 144.0 L 144.0 146.0 L 145.0 148.0 L 147.0 150.0 L 149.0 152.0 " stroke="black" fill="none" stroke-width="5.0" stroke-linecap="round" stroke-linejoin="round" />
<path d="M 75.0 162.0 L 75.0 162.0 L 75.0 162.0 L 75.0 162.0 L 75.0 162.0 L 75.0 162.0 L 75.0 162.0 L 75.0 162.0 L 75.0 162.0 L 75.0 162.0 L 75.0 162.0 L 75.0 162.0 L 75.0 162.0 L 75.0 162.0 L 75.0 162.0 L 76.0 162.0 L 77.0 162.0 L 78.0 162.0 L 80.0 162.0 L 82.0 162.0 L 83.0 161.0 L 85.0 161.0 L 87.0 161.0 L 89.0 161.0 L 90.0 161.0 L 92.0 161.0 L 93.0 161.0 L 95.0 161.0 L 96.0 161.0 L 97.0 161.0 L 99.0 161.0 L 100.0 161.0 L 102.0 161.0 L 103.0 161.0 L 104.0 161.0 L 105.0 161.0 L 106.0 161.0 L 107.0 162.0 L 108.0 162.0 L 108.0 162.0 L 109.0 163.0 L 110.0 163.0 L 111.0 163.0 L 112.0 163.0 L 113.0 163.0 L 115.0 164.0 L 116.0 164.0 L 117.0 164.0 L 118.0 164.0 L 119.0 164.0 L 121.0 164.0 L 122.0 164.0 L 123.0 164.0 L 124.0 164.0 L 125.0 164.0 L 127.0 164.0 L 128.0 164.0 L 130.0 164.0 L 132.0 164.0 L 133.0 164.0 L 135.0 164.0 L 136.0 164.0 L 137.0 164.0 L 139.0 164.0 L 140.0 164.0 L 141.0 163.0 L 142.0 163.0 L 143.0 163.0 L 143.0 163.0 L 144.0 163.0 L 145.0 163.0 L 145.0 163.0 L 146.0 163.0 L 146.0 163.0 L 147.0 163.0 L 148.0 163.0 L 148.0 163.0 L 149.0 163.0 L 149.0 162.0 L 150.0 162.0 L 151.0 162.0 L 151.0 162.0 L 152.0 162.0 L 153.0 162.0 L 153.0 162.0 L 154.0 162.0 L 155.0 162.0 L 156.0 162.0 L 157.0 162.0 L 157.0 162.0 L 158.0 162.0 L 160.0 161.0 L 161.0 161.0 L 162.0 161.0 L 163.0 161.0 L 164.0 161.0 L 166.0 161.0 L 167.0 161.0 L 169.0 161.0 L 170.0 161.0 L 172.0 161.0 L 173.0 161.0 L 175.0 161.0 L 176.0 161.0 L 178.0 161.0 L 179.0 161.0 L 180.0 161.0 L 181.0 161.0 L 183.0 161.0 L 184.0 161.0 L 185.0 161.0 L 186.0 161.0 L 187.0 161.0 L 188.0 161.0 L 189.0 161.0 L 190.0 161.0 L 191.0 161.0 L 193.0 161.0 L 194.0 161.0 L 194.0 161.0 L 196.0 161.0 L 197.0 161.0 L 198.0 161.0 L 199.0 161.0 L 200.0 161.0 L 201.0 161.0 L 203.0 161.0 L 204.0 161.0 L 205.0 161.0 L 207.0 161.0 L 208.0 161.0 L 210.0 161.0 L 212.0 161.0 L 214.0 161.0 L 216.0 161.0 L 218.0 161.0 L 221.0 161.0 L 223.0 161.0 L 225.0 161.0 L 227.0 161.0 L 228.0 161.0 L 230.0 161.0 L 230.0 161.0 L 231.0 161.0 " stroke="black" fill="none" stroke-width="5.0" stroke-linecap="round" stroke-linejoin="round" />
<path d="M 114.0 171.0 L 114.0 171.0 L 114.0 171.0 L 114.0 171.0 L 115.0 172.0 L 115.0 172.0 L 115.0 173.0 L 115.0 174.0 L 114.0 176.0 L 114.0 177.0 L 112.0 180.0 L 110.0 183.0 L 108.0 187.0 L 105.0 191.0 L 102.0 196.0 L 98.0 200.0 L 93.0 204.0 L 89.0 206.0 L 85.0 207.0 L 83.0 207.0 " stroke="black" fill="none" stroke-width="5.0" stroke-linecap="round" stroke-linejoin="round" />
<path d="M 110.0 186.0 L 110.0 186.0 L 110.0 186.0 L 110.0 185.0 L 110.0 185.0 L 110.0 184.0 L 110.0 184.0 L 110.0 184.0 L 110.0 184.0 L 111.0 185.0 L 113.0 187.0 L 115.0 188.0 L 118.0 190.0 L 123.0 192.0 L 127.0 194.0 L 132.0 196.0 L 137.0 197.0 L 141.0 198.0 L 143.0 199.0 " stroke="black" fill="none" stroke-width="5.0" stroke-linecap="round" stroke-linejoin="round" />
<path d="M 189.0 170.0 L 189.0 170.0 L 189.0 170.0 L 189.0 170.0 L 189.0 170.0 L 188.0 171.0 L 188.0 171.0 L 187.0 173.0 L 186.0 174.0 L 184.0 177.0 L 181.0 181.0 L 178.0 186.0 L 173.0 191.0 L 167.0 196.0 L 162.0 200.0 L 158.0 202.0 L 155.0 204.0 L 154.0 204.0 " stroke="black" fill="none" stroke-width="5.0" stroke-linecap="round" stroke-linejoin="round" />
<path d="M 188.0 185.0 L 187.0 185.0 L 186.0 186.0 L 186.0 187.0 L 186.0 187.0 L 186.0 188.0 L 186.0 188.0 L 186.0 189.0 L 187.0 189.0 L 189.0 191.0 L 191.0 192.0 L 192.0 193.0 L 194.0 195.0 L 196.0 197.0 L 198.0 200.0 L 201.0 202.0 L 203.0 204.0 L 205.0 206.0 L 207.0 207.0 " stroke="black" fill="none" stroke-width="5.0" stroke-linecap="round" stroke-linejoin="round" />
<path d="M 67.0 215.0 L 67.0 215.0 L 67.0 215.0 L 67.0 215.0 L 67.0 215.0 L 67.0 215.0 L 67.0 215.0 L 67.0 215.0 L 67.0 215.0 L 67.0 215.0 L 67.0 215.0 L 67.0 215.0 L 67.0 215.0 L 67.0 215.0 L 67.0 215.0 L 67.0 215.0 L 67.0 215.0 L 67.0 215.0 L 68.0 215.0 L 68.0 215.0 L 68.0 215.0 L 69.0 215.0 L 70.0 215.0 L 70.0 216.0 L 71.0 216.0 L 72.0 216.0 L 73.0 216.0 L 74.0 216.0 L 75.0 216.0 L 76.0 216.0 L 77.0 216.0 L 78.0 216.0 L 79.0 216.0 L 80.0 216.0 L 81.0 216.0 L 83.0 216.0 L 84.0 216.0 L 86.0 216.0 L 87.0 216.0 L 88.0 216.0 L 90.0 216.0 L 91.0 216.0 L 92.0 216.0 L 93.0 216.0 L 94.0 217.0 L 96.0 217.0 L 97.0 217.0 L 98.0 217.0 L 99.0 217.0 L 100.0 217.0 L 101.0 217.0 L 102.0 217.0 L 103.0 217.0 L 104.0 217.0 L 105.0 217.0 L 106.0 217.0 L 107.0 217.0 L 107.0 217.0 L 108.0 217.0 L 108.0 217.0 L 109.0 217.0 L 109.0 217.0 L 110.0 217.0 L 110.0 217.0 L 111.0 217.0 L 111.0 217.0 L 112.0 217.0 L 112.0 217.0 L 113.0 217.0 L 114.0 217.0 L 114.0 218.0 L 115.0 218.0 L 116.0 218.0 L 116.0 218.0 L 117.0 218.0 L 118.0 218.0 L 119.0 218.0 L 120.0 218.0 L 121.0 218.0 L 123.0 218.0 L 124.0 218.0 L 125.0 218.0 L 126.0 218.0 L 128.0 218.0 L 129.0 218.0 L 130.0 218.0 L 132.0 218.0 L 133.0 218.0 L 134.0 218.0 L 136.0 218.0 L 137.0 218.0 L 138.0 218.0 L 139.0 218.0 L 140.0 218.0 L 141.0 218.0 L 142.0 218.0 L 143.0 218.0 L 143.0 218.0 L 144.0 218.0 L 145.0 218.0 L 146.0 218.0 L 146.0 218.0 L 147.0 218.0 L 148.0 218.0 L 149.0 218.0 L 149.0 218.0 L 150.0 218.0 L 150.0 218.0 L 151.0 218.0 L 151.0 218.0 L 152.0 218.0 L 152.0 218.0 L 153.0 218.0 L 153.0 218.0 L 154.0 218.0 L 154.0 218.0 L 155.0 218.0 L 155.0 219.0 L 156.0 219.0 L 156.0 219.0 L 157.0 219.0 L 157.0 220.0 L 158.0 220.0 L 159.0 220.0 L 159.0 220.0 L 160.0 220.0 L 161.0 220.0 L 162.0 220.0 L 163.0 220.0 L 164.0 220.0 L 165.0 220.0 L 166.0 221.0 L 167.0 221.0 L 168.0 221.0 L 169.0 221.0 L 170.0 222.0 L 172.0 222.0 L 173.0 222.0 L 174.0 222.0 L 176.0 222.0 L 177.0 222.0 L 178.0 222.0 L 179.0 222.0 L 180.0 222.0 L 181.0 222.0 L 182.0 222.0 L 183.0 222.0 L 183.0 222.0 L 184.0 222.0 L 185.0 222.0 L 186.0 222.0 L 187.0 222.0 L 188.0 222.0 L 189.0 222.0 L 189.0 222.0 L 190.0 222.0 L 191.0 222.0 L 191.0 222.0 L 192.0 222.0 L 193.0 222.0 L 194.0 222.0 L 194.0 222.0 L 195.0 222.0 L 196.0 222.0 L 196.0 222.0 L 197.0 221.0 L 198.0 221.0 L 198.0 221.0 L 199.0 221.0 L 200.0 221.0 L 200.0 221.0 L 201.0 221.0 L 201.0 221.0 L 202.0 220.0 L 202.0 220.0 L 203.0 220.0 L 203.0 220.0 L 204.0 220.0 L 205.0 220.0 L 205.0 220.0 L 206.0 220.0 L 207.0 220.0 L 207.0 220.0 L 208.0 220.0 L 209.0 220.0 L 210.0 220.0 L 211.0 220.0 L 212.0 221.0 L 212.0 221.0 L 214.0 221.0 L 215.0 221.0 L 216.0 222.0 L 217.0 222.0 L 218.0 222.0 L 219.0 222.0 L 220.0 222.0 L 221.0 222.0 L 222.0 222.0 L 223.0 222.0 L 225.0 222.0 L 226.0 222.0 L 227.0 222.0 L 228.0 222.0 L 230.0 221.0 L 231.0 221.0 L 233.0 220.0 L 234.0 220.0 L 236.0 219.0 L 237.0 218.0 L 239.0 217.0 L 240.0 216.0 L 240.0 216.0 " stroke="black" fill="none" stroke-width="5.0" stroke-linecap="round" stroke-linejoin="round" />
<path d="M 148.0 205.0 L 148.0 205.0 L 148.0 205.0 L 148.0 205.0 L 148.0 205.0 L 148.0 205.0 L 148.0 206.0 L 148.0 207.0 L 148.0 208.0 L 148.0 211.0 L 148.0 216.0 L 149.0 221.0 L 149.0 228.0 L 149.0 236.0 L 149.0 242.0 L 149.0 248.0 L 148.0 253.0 L 148.0 256.0 L 148.0 258.0 L 148.0 258.0 " stroke="black" fill="none" stroke-width="5.0" stroke-linecap="round" stroke-linejoin="round" />
</svg>