<svg xmlns="http://www.w3.org/2000/svg" width="300" height="300" viewBox="0 0 300 300">
<path d="M 133.0 77.0 L 133.0 77.0 L 133.0 77.0 L 133.0 77.0 L 133.0 76.0 L 133.0 76.0 L 133.0 76.0 L 133.0 76.0 L 134.0 76.0 L 134.0 76.0 L 134.0 76.0 L 134.0 76.0 L 134.0 76.0 L 134.0 76.0 L 133.0 76.0 L 132.0 76.0 L 131.0 76.0 L 130.0 76.0 L 129.0 76.0 L 128.0 76.0 L 126.0 76.0 L 125.0 76.0 L 124.0 76.0 L 122.0 76.0 L 121.0 77.0 L 119.0 77.0 L 117.0 77.0 L 115.0 78.0 L 113.0 78.0 L 111.0 79.0 L 109.0 80.0 L 107.0 80.0 L 106.0 81.0 L 104.0 81.0 L 103.0 82.0 L 101.0 82.0 L 100.0 83.0 L 99.0 83.0 L 97.0 84.0 L 96.0 85.0 L 94.0 85.0 L 93.0 86.0 L 91.0 86.0 L 90.0 87.0 L 88.0 87.0 L 87.0 88.0 L 85.0 88.0 L 84.0 89.0 L 83.0 89.0 L 81.0 89.0 L 80.0 89.0 L 79.0 90.0 L 78.0 90.0 L 78.0 90.0 L 77.0 90.0 L 76.0 90.0 L 76.0 90.0 L 76.0 90.0 L 76.0 91.0 L 76.0 91.0 L 76.0 91.0 L 76.0 91.0 L 76.0 91.0 L 76.0 91.0 L 76.0 91.0 L 76.0 91.0 L 76.0 91.0 L 76.0 92.0 L 76.0 92.0 L 76.0 92.0 L 77.0 92.0 L 77.0 93.0 L 77.0 93.0 L 78.0 93.0 L 78.0 94.0 L 78.0 94.0 L 79.0 95.0 L 79.0 96.0 L 79.0 96.0 L 79.0 97.0 L 80.0 98.0 L 80.0 98.0 L 80.0 99.0 L 80.0 100.0 L 80.0 101.0 L 80.0 103.0 L 80.0 104.0 L 81.0 105.0 L 81.0 106.0 L 81.0 108.0 L 81.0 109.0 L 81.0 111.0 L 81.0 112.0 L 81.0 113.0 L 81.0 114.0 L 81.0 116.0 L 81.0 117.0 L 81.0 118.0 L 81.0 120.0 L 81.0 121.0 L 81.0 122.0 L 81.0 123.0 L 81.0 124.0 L 81.0 125.0 L 81.0 127.0 L 81.0 128.0 L 81.0 129.0 L 81.0 130.0 L 81.0 132.0 L 81.0 133.0 L 81.0 135.0 L 81.0 136.0 L 80.0 138.0 L 80.0 140.0 L 80.0 141.0 L 80.0 143.0 L 79.0 145.0 L 79.0 147.0 L 79.0 149.0 L 79.0 151.0 L 78.0 153.0 L 78.0 154.0 L 78.0 156.0 L 77.0 158.0 L 77.0 159.0 L 77.0 161.0 L 76.0 162.0 L 76.0 164.0 L 76.0 165.0 L 75.0 166.0 L 75.0 168.0 L 75.0 169.0 L 74.0 171.0 L 74.0 172.0 L 73.0 173.0 L 73.0 175.0 L 73.0 177.0 L 72.0 178.0 L 72.0 179.0 L 71.0 180.0 L 71.0 182.0 L 71.0 183.0 L 70.0 184.0 L 70.0 185.0 L 70.0 186.0 L 69.0 188.0 L 69.0 189.0 L 69.0 190.0 L 68.0 191.0 L 68.0 193.0 L 68.0 194.0 L 68.0 195.0 L 67.0 196.0 L 67.0 197.0 L 67.0 198.0 L 66.0 199.0 L 66.0 200.0 L 66.0 201.0 L 66.0 202.0 L 65.0 203.0 L 65.0 204.0 L 65.0 206.0 L 64.0 207.0 L 64.0 208.0 L 64.0 209.0 L 63.0 210.0 L 63.0 212.0 L 62.0 213.0 L 62.0 214.0 L 61.0 216.0 L 60.0 217.0 L 59.0 219.0 L 58.0 220.0 L 57.0 222.0 L 56.0 223.0 L 55.0 224.0 L 53.0 225.0 L 53.0 226.0 L 51.0 227.0 L 51.0 227.0 " stroke="black" fill="none" stroke-width="5.0" stroke-linecap="round" stroke-linejoin="round" />
<path d="M 95.0 110.0 L 95.0 110.0 L 94.0 110.0 L 93.0 110.0 L 92.0 110.0 L 91.0 110.0 L 90.0 110.0 L 90.0 110.0 L 89.0 110.0 L 89.0 110.0 L 89.0 110.0 L 89.0 110.0 L 89.0 110.0 L 90.0 110.0 L 91.0 110.0 L 92.0 110.0 L 94.0 111.0 L 96.0 111.0 L 99.0 111.0 L 101.0 111.0 L 104.0 111.0 L 106.0 111.0 L 109.0 111.0 L 112.0 111.0 L 115.0 111.0 L 119.0 111.0 L 122.0 111.0 L 125.0 111.0 L 128.0 111.0 L 130.0 111.0 L 132.0 111.0 L 134.0 112.0 L 135.0 112.0 L 135.0 113.0 L 136.0 113.0 L 136.0 114.0 L 136.0 114.0 L 136.0 115.0 L 136.0 116.0 L 136.0 117.0 L 136.0 119.0 L 135.0 120.0 L 135.0 121.0 L 134.0 123.0 L 134.0 125.0 L 133.0 126.0 L 133.0 128.0 L 133.0 129.0 L 132.0 131.0 L 132.0 133.0 " stroke="black" fill="none" stroke-width="5.0" stroke-linecap="round" stroke-linejoin="round" />
<path d="M 90.0 147.0 L 88.0 147.0 L 86.0 147.0 L 84.0 147.0 L 83.0 147.0 L 83.0 148.0 L 82.0 148.0 L 82.0 148.0 L 82.0 148.0 L 83.0 148.0 L 85.0 148.0 L 87.0 148.0 L 89.0 149.0 L 93.0 149.0 L 96.0 149.0 L 100.0 149.0 L 104.0 148.0 L 108.0 148.0 L 113.0 147.0 L 119.0 146.0 L 124.0 145.0 L 130.0 144.0 L 132.0 144.0 " stroke="black" fill="none" stroke-width="5.0" stroke-linecap="round" stroke-linejoin="round" />
<path d="M 76.0 176.0 L 76.0 176.0 L 76.0 176.0 L 76.0 176.0 L 76.0 176.0 L 77.0 177.0 L 77.0 178.0 L 77.0 179.0 L 77.0 182.0 L 77.0 185.0 L 77.0 189.0 L 77.0 194.0 L 77.0 199.0 L 77.0 205.0 L 77.0 211.0 L 77.0 216.0 L 77.0 222.0 L 77.0 229.0 L 77.0 233.0 L 77.0 237.0 L 77.0 241.0 L 77.0 242.0 L 77.0 242.0 L 77.0 242.0 " stroke="black" fill="none" stroke-width="5.0" stroke-linecap="round" stroke-linejoin="round" />
<path d="M 82.0 171.0 L 82.0 171.0 L 81.0 171.0 L 80.0 171.0 L 79.0 170.0 L 78.0 170.0 L 78.0 170.0 L 77.0 170.0 L 77.0 170.0 L 77.0 170.0 L 77.0 170.0 L 77.0 170.0 L 77.0 170.0 L 77.0 170.0 L 77.0 171.0 L 78.0 171.0 L 78.0 171.0 L 79.0 171.0 L 79.0 171.0 L 80.0 171.0 L 81.0 171.0 L 82.0 171.0 L 83.0 171.0 L 84.0 171.0 L 85.0 171.0 L 86.0 171.0 L 87.0 171.0 L 89.0 171.0 L 91.0 171.0 L 92.0 171.0 L 94.0 171.0 L 96.0 171.0 L 97.0 171.0 L 99.0 171.0 L 101.0 171.0 L 102.0 171.0 L 104.0 171.0 L 105.0 171.0 L 106.0 171.0 L 107.0 171.0 L 108.0 171.0 L 110.0 171.0 L 111.0 171.0 L 112.0 171.0 L 113.0 171.0 L 115.0 171.0 L 116.0 171.0 L 117.0 171.0 L 119.0 171.0 L 120.0 171.0 L 121.0 171.0 L 123.0 171.0 L 124.0 172.0 L 126.0 172.0 L 128.0 172.0 L 129.0 172.0 L 131.0 172.0 L 132.0 172.0 L 134.0 172.0 L 135.0 172.0 L 136.0 172.0 L 137.0 172.0 L 138.0 173.0 L 139.0 173.0 L 139.0 173.0 L 140.0 174.0 L 141.0 174.0 L 141.0 175.0 L 141.0 176.0 L 141.0 177.0 L 142.0 178.0 L 142.0 179.0 L 142.0 181.0 L 142.0 183.0 L 142.0 186.0 L 142.0 189.0 L 142.0 193.0 L 142.0 196.0 L 142.0 200.0 L 142.0 204.0 L 142.0 207.0 L 142.0 211.0 L 142.0 214.0 L 142.0 218.0 L 142.0 223.0 L 142.0 228.0 L 142.0 232.0 L 142.0 237.0 L 142.0 240.0 L 142.0 243.0 L 142.0 246.0 L 142.0 247.0 L 141.0 249.0 L 141.0 251.0 L 140.0 252.0 L 140.0 253.0 L 139.0 254.0 L 139.0 254.0 L 138.0 254.0 L 136.0 253.0 L 135.0 252.0 L 133.0 250.0 L 130.0 247.0 L 127.0 244.0 L 124.0 242.0 L 121.0 239.0 L 119.0 238.0 L 116.0 236.0 L 115.0 236.0 " stroke="black" fill="none" stroke-width="5.0" stroke-linecap="round" stroke-linejoin="round" />
<path d="M 82.0 204.0 L 81.0 204.0 L 79.0 204.0 L 77.0 205.0 L 76.0 205.0 L 76.0 205.0 L 76.0 205.0 L 76.0 205.0 L 77.0 205.0 L 79.0 205.0 L 82.0 205.0 L 85.0 205.0 L 89.0 205.0 L 93.0 205.0 L 98.0 205.0 L 102.0 205.0 L 106.0 205.0 L 111.0 206.0 L 116.0 206.0 L 121.0 206.0 L 127.0 205.0 L 131.0 204.0 L 135.0 203.0 L 139.0 202.0 L 140.0 202.0 " stroke="black" fill="none" stroke-width="5.0" stroke-linecap="round" stroke-linejoin="round" />
<path d="M 101.0 180.0 L 101.0 180.0 L 101.0 181.0 L 100.0 182.0 L 100.0 184.0 L 100.0 186.0 L 100.0 188.0 L 100.0 192.0 L 100.0 196.0 L 100.0 202.0 L 100.0 209.0 L 100.0 215.0 L 100.0 223.0 L 100.0 232.0 L 100.0 238.0 L 100.0 243.0 L 99.0 247.0 L 99.0 249.0 L 99.0 249.0 " stroke="black" fill="none" stroke-width="5.0" stroke-linecap="round" stroke-linejoin="round" />
<path d="M 118.0 191.0 L 118.0 191.0 L 118.0 190.0 L 118.0 190.0 L 118.0 189.0 L 118.0 189.0 L 118.0 189.0 L 118.0 189.0 L 118.0 189.0 L 118.0 191.0 L 118.0 193.0 L 118.0 195.0 L 118.0 199.0 L 118.0 203.0 L 118.0 209.0 L 117.0 215.0 L 116.0 223.0 L 116.0 230.0 L 115.0 236.0 L 115.0 241.0 L 115.0 244.0 L 115.0 246.0 L 115.0 246.0 " stroke="black" fill="none" stroke-width="5.0" stroke-linecap="round" stroke-linejoin="round" />
<path d="M 155.0 83.0 L 155.0 83.0 L 155.0 83.0 L 155.0 83.0 L 154.0 83.0 L 154.0 83.0 L 154.0 83.0 L 154.0 83.0 L 154.0 83.0 L 154.0 83.0 L 154.0 83.0 L 154.0 83.0 L 155.0 83.0 L 156.0 84.0 L 157.0 84.0 L 158.0 84.0 L 159.0 84.0 L 161.0 84.0 L 163.0 84.0 L 164.0 84.0 L 166.0 84.0 L 168.0 84.0 L 170.0 84.0 L 172.0 84.0 L 174.0 84.0 L 177.0 84.0 L 179.0 84.0 L 181.0 85.0 L 183.0 85.0 L 185.0 85.0 L 186.0 85.0 L 187.0 85.0 L 189.0 85.0 L 190.0 85.0 L 190.0 86.0 L 191.0 86.0 L 191.0 87.0 L 191.0 87.0 L 191.0 88.0 L 191.0 88.0 L 192.0 89.0 L 192.0 90.0 L 192.0 91.0 L 192.0 92.0 L 192.0 93.0 L 192.0 95.0 L 192.0 97.0 L 192.0 99.0 L 192.0 101.0 L 192.0 104.0 L 192.0 107.0 L 191.0 110.0 L 191.0 112.0 L 191.0 116.0 L 191.0 118.0 L 190.0 121.0 L 190.0 124.0 L 190.0 127.0 L 190.0 130.0 L 190.0 132.0 L 190.0 135.0 L 190.0 137.0 L 190.0 139.0 L 190.0 142.0 L 190.0 144.0 L 190.0 146.0 L 190.0 149.0 L 190.0 151.0 L 190.0 153.0 L 190.0 155.0 L 190.0 158.0 L 190.0 160.0 L 190.0 162.0 L 190.0 165.0 L 190.0 167.0 L 190.0 169.0 L 190.0 171.0 L 190.0 174.0 L 190.0 176.0 L 190.0 178.0 L 190.0 180.0 L 190.0 183.0 L 190.0 185.0 L 190.0 188.0 L 190.0 190.0 L 190.0 193.0 L 190.0 195.0 L 190.0 197.0 L 190.0 199.0 L 190.0 201.0 L 190.0 202.0 L 190.0 204.0 L 190.0 206.0 L 190.0 208.0 L 190.0 210.0 L 190.0 212.0 L 190.0 214.0 L 190.0 216.0 L 190.0 219.0 L 190.0 221.0 L 190.0 223.0 L 190.0 225.0 L 190.0 227.0 L 190.0 229.0 L 189.0 231.0 L 189.0 233.0 L 189.0 235.0 L 189.0 237.0 L 188.0 239.0 L 188.0 240.0 L 188.0 242.0 L 188.0 243.0 L 188.0 245.0 L 188.0 246.0 L 188.0 248.0 L 188.0 249.0 L 188.0 250.0 L 188.0 251.0 L 187.0 252.0 L 187.0 253.0 L 187.0 254.0 L 187.0 254.0 L 186.0 255.0 L 186.0 255.0 L 185.0 255.0 L 184.0 255.0 L 183.0 254.0 L 182.0 253.0 L 180.0 251.0 L 178.0 249.0 L 176.0 247.0 L 173.0 244.0 L 169.0 241.0 L 166.0 238.0 L 163.0 234.0 " stroke="black" fill="none" stroke-width="5.0" stroke-linecap="round" stroke-linejoin="round" />
<path d="M 157.0 128.0 L 157.0 128.0 L 157.0 128.0 L 157.0 128.0 L 157.0 128.0 L 157.0 128.0 L 157.0 128.0 L 158.0 129.0 L 159.0 130.0 L 160.0 132.0 L 162.0 134.0 L 165.0 137.0 L 167.0 141.0 L 170.0 145.0 L 173.0 149.0 L 176.0 153.0 L 178.0 156.0 L 179.0 159.0 " stroke="black" fill="none" stroke-width="5.0" stroke-linecap="round" stroke-linejoin="round" />
<path d="M 161.0 210.0 L 161.0 210.0 L 160.0 210.0 L 159.0 211.0 L 159.0 211.0 L 158.0 211.0 L 158.0 211.0 L 158.0 210.0 L 158.0 208.0 L 160.0 205.0 L 163.0 201.0 L 167.0 196.0 L 173.0 189.0 L 179.0 181.0 L 186.0 173.0 L 193.0 163.0 " stroke="black" fill="none" stroke-width="5.0" stroke-linecap="round" stroke-linejoin="round" />
<path d="M 202.0 81.0 L 202.0 81.0 L 202.0 81.0 L 201.0 81.0 L 201.0 81.0 L 201.0 81.0 L 201.0 81.0 L 201.0 81.0 L 201.0 81.0 L 201.0 81.0 L 201.0 81.0 L 201.0 81.0 L 201.0 81.0 L 202.0 81.0 L 203.0 81.0 L 204.0 81.0 L 206.0 81.0 L 209.0 81.0 L 211.0 82.0 L 214.0 82.0 L 217.0 82.0 L 220.0 82.0 L 223.0 83.0 L 226.0 83.0 L 228.0 83.0 L 230.0 83.0 L 232.0 83.0 L 233.0 83.0 L 235.0 83.0 L 235.0 83.0 L 236.0 83.0 L 236.0 83.0 L 236.0 83.0 L 236.0 84.0 L 236.0 84.0 L 236.0 85.0 L 236.0 86.0 L 236.0 87.0 L 236.0 88.0 L 236.0 90.0 L 236.0 92.0 L 236.0 94.0 L 236.0 97.0 L 236.0 100.0 L 236.0 103.0 L 236.0 107.0 L 236.0 110.0 L 235.0 113.0 L 235.0 116.0 L 235.0 120.0 L 235.0 123.0 L 235.0 127.0 L 235.0 131.0 L 235.0 135.0 L 235.0 139.0 L 235.0 143.0 L 235.0 147.0 L 235.0 151.0 L 235.0 155.0 L 235.0 159.0 L 235.0 162.0 L 236.0 164.0 L 236.0 166.0 L 236.0 168.0 L 236.0 171.0 L 236.0 173.0 L 235.0 175.0 L 235.0 177.0 L 235.0 180.0 L 234.0 182.0 L 234.0 185.0 L 234.0 187.0 L 234.0 189.0 L 234.0 192.0 L 234.0 194.0 L 234.0 197.0 L 234.0 199.0 L 234.0 202.0 L 234.0 204.0 L 234.0 206.0 L 234.0 209.0 L 234.0 211.0 L 234.0 213.0 L 233.0 215.0 L 233.0 217.0 L 233.0 218.0 L 233.0 220.0 L 233.0 221.0 L 232.0 223.0 L 232.0 225.0 L 232.0 227.0 L 232.0 229.0 L 232.0 230.0 L 232.0 232.0 L 232.0 234.0 L 231.0 236.0 L 231.0 238.0 L 231.0 239.0 L 231.0 241.0 L 231.0 243.0 L 231.0 244.0 L 231.0 246.0 L 231.0 247.0 L 231.0 248.0 L 231.0 249.0 L 231.0 250.0 L 231.0 251.0 L 231.0 252.0 L 230.0 252.0 L 230.0 253.0 L 230.0 253.0 L 230.0 253.0 L 230.0 253.0 L 229.0 253.0 L 229.0 253.0 L 228.0 253.0 L 227.0 253.0 L 225.0 252.0 L 224.0 251.0 L 222.0 250.0 L 219.0 248.0 L 216.0 245.0 L 214.0 243.0 " stroke="black" fill="none" stroke-width="5.0" stroke-linecap="round" stroke-linejoin="round" />
<path d="M 202.0 122.0 L 202.0 122.0 L 202.0 122.0 L 203.0 122.0 L 204.0 123.0 L 205.0 125.0 L 208.0 127.0 L 211.0 130.0 L 214.0 135.0 L 217.0 139.0 L 221.0 145.0 L 223.0 149.0 L 226.0 154.0 " stroke="black" fill="none" stroke-width="5.0" stroke-linecap="round" stroke-linejoin="round" />
<path d="M 201.0 201.0 L 201.0 201.0 L 201.0 200.0 L 201.0 199.0 L 202.0 197.0 L 203.0 195.0 L 205.0 192.0 L 207.0 188.0 L 212.0 182.0 L 217.0 175.0 L 224.0 167.0 L 230.0 159.0 L 236.0 151.0 " stroke="black" fill="none" stroke-width="5.0" stroke-linecap="round" stroke-linejoin="round" />
</svg>