<svg xmlns="http://www.w3.org/2000/svg" width="300" height="300" viewBox="0 0 300 300">
<path d="M 83.0 93.0 L 82.0 93.0 L 81.0 93.0 L 79.0 93.0 L 77.0 93.0 L 76.0 93.0 L 74.0 93.0 L 73.0 93.0 L 72.0 93.0 L 72.0 93.0 L 72.0 93.0 L 72.0 93.0 L 72.0 93.0 L 75.0 92.0 L 79.0 91.0 L 84.0 90.0 L 91.0 89.0 L 99.0 89.0 L 106.0 88.0 L 114.0 88.0 L 124.0 88.0 L 136.0 88.0 L 147.0 88.0 L 158.0 88.0 L 167.0 88.0 L 178.0 88.0 L 187.0 88.0 L 193.0 88.0 L 197.0 89.0 L 201.0 91.0 L 204.0 92.0 L 207.0 93.0 L 211.0 94.0 L 215.0 94.0 L 219.0 94.0 L 222.0 94.0 L 225.0 92.0 L 227.0 90.0 " stroke="black" fill="none" stroke-width="5.0" stroke-linecap="round" stroke-linejoin="round" />
<path d="M 152.0 74.0 L 152.0 73.0 L 151.0 73.0 L 150.0 73.0 L 150.0 73.0 L 149.0 73.0 L 148.0 73.0 L 148.0 74.0 L 146.0 76.0 L 144.0 79.0 L 142.0 84.0 L 138.0 89.0 L 132.0 97.0 L 126.0 104.0 L 119.0 112.0 L 113.0 117.0 L 108.0 121.0 L 105.0 123.0 L 104.0 124.0 L 102.0 125.0 L 101.0 126.0 L 100.0 126.0 L 100.0 126.0 L 99.0 127.0 L 99.0 127.0 L 99.0 127.0 L 99.0 127.0 L 100.0 128.0 L 101.0 128.0 L 103.0 128.0 L 105.0 128.0 L 108.0 128.0 L 112.0 128.0 L 117.0 128.0 L 125.0 128.0 L 136.0 128.0 L 146.0 128.0 L 156.0 127.0 L 167.0 126.0 L 177.0 125.0 L 186.0 124.0 L 193.0 123.0 L 197.0 121.0 L 199.0 120.0 L 200.0 119.0 L 200.0 119.0 L 200.0 118.0 L 200.0 118.0 L 199.0 117.0 L 199.0 116.0 L 198.0 116.0 L 196.0 115.0 L 195.0 115.0 L 194.0 114.0 L 194.0 113.0 L 193.0 113.0 L 192.0 112.0 L 191.0 111.0 L 191.0 109.0 L 190.0 108.0 L 190.0 107.0 L 189.0 106.0 L 188.0 105.0 L 188.0 104.0 L 187.0 103.0 L 186.0 102.0 L 186.0 102.0 L 185.0 101.0 L 185.0 101.0 L 185.0 101.0 L 185.0 102.0 L 187.0 103.0 L 188.0 105.0 L 191.0 108.0 L 193.0 111.0 L 196.0 115.0 L 200.0 119.0 L 204.0 123.0 L 207.0 127.0 L 211.0 131.0 L 214.0 134.0 L 216.0 136.0 L 217.0 137.0 " stroke="black" fill="none" stroke-width="5.0" stroke-linecap="round" stroke-linejoin="round" />
<path d="M 93.0 167.0 L 93.0 166.0 L 92.0 165.0 L 92.0 164.0 L 92.0 163.0 L 92.0 163.0 L 93.0 162.0 L 94.0 162.0 L 97.0 162.0 L 99.0 163.0 L 101.0 165.0 L 104.0 167.0 L 105.0 171.0 L 107.0 178.0 L 107.0 186.0 L 107.0 195.0 L 106.0 206.0 L 104.0 217.0 L 100.0 229.0 L 96.0 239.0 L 91.0 246.0 L 85.0 251.0 L 80.0 253.0 L 77.0 253.0 " stroke="black" fill="none" stroke-width="5.0" stroke-linecap="round" stroke-linejoin="round" />
<path d="M 113.0 161.0 L 112.0 161.0 L 110.0 161.0 L 108.0 161.0 L 108.0 161.0 L 107.0 161.0 L 107.0 161.0 L 107.0 161.0 L 107.0 160.0 L 108.0 160.0 L 110.0 159.0 L 112.0 159.0 L 114.0 158.0 L 117.0 158.0 L 120.0 158.0 L 124.0 158.0 L 129.0 158.0 L 134.0 158.0 L 141.0 158.0 L 147.0 157.0 L 153.0 157.0 L 160.0 157.0 L 167.0 156.0 L 174.0 156.0 L 181.0 156.0 L 187.0 157.0 L 191.0 157.0 L 195.0 158.0 L 197.0 159.0 L 200.0 160.0 L 202.0 160.0 L 205.0 160.0 L 208.0 160.0 L 211.0 161.0 L 213.0 161.0 L 215.0 161.0 L 217.0 162.0 L 217.0 163.0 L 218.0 165.0 L 218.0 166.0 L 218.0 168.0 L 218.0 170.0 L 219.0 173.0 L 219.0 176.0 L 219.0 180.0 L 219.0 185.0 L 219.0 189.0 L 219.0 195.0 L 219.0 201.0 L 218.0 207.0 L 218.0 213.0 L 216.0 221.0 L 214.0 230.0 L 212.0 237.0 L 210.0 244.0 L 207.0 248.0 L 205.0 252.0 L 203.0 255.0 L 201.0 257.0 L 199.0 258.0 L 198.0 258.0 L 196.0 258.0 L 194.0 258.0 L 193.0 257.0 L 191.0 256.0 L 189.0 253.0 L 188.0 251.0 " stroke="black" fill="none" stroke-width="5.0" stroke-linecap="round" stroke-linejoin="round" />
<path d="M 122.0 189.0 L 121.0 189.0 L 118.0 188.0 L 116.0 188.0 L 115.0 187.0 L 114.0 186.0 L 114.0 185.0 L 115.0 184.0 L 117.0 184.0 L 119.0 184.0 L 123.0 184.0 L 128.0 184.0 L 134.0 186.0 L 140.0 187.0 L 146.0 189.0 L 152.0 191.0 L 158.0 193.0 L 165.0 195.0 L 172.0 196.0 L 179.0 197.0 L 184.0 197.0 " stroke="black" fill="none" stroke-width="5.0" stroke-linecap="round" stroke-linejoin="round" />
<path d="M 138.0 213.0 L 136.0 213.0 L 130.0 214.0 L 126.0 215.0 L 122.0 216.0 L 119.0 217.0 L 117.0 217.0 L 117.0 218.0 L 117.0 218.0 L 117.0 218.0 L 119.0 218.0 L 122.0 218.0 L 126.0 218.0 L 133.0 218.0 L 141.0 217.0 L 149.0 215.0 L 157.0 213.0 L 168.0 211.0 L 181.0 208.0 L 192.0 205.0 L 202.0 202.0 L 208.0 200.0 L 211.0 200.0 " stroke="black" fill="none" stroke-width="5.0" stroke-linecap="round" stroke-linejoin="round" />
</svg>