<svg xmlns="http://www.w3.org/2000/svg" width="300" height="300" viewBox="0 0 300 300">
<path d="M 108.0 76.0 L 108.0 76.0 L 108.0 76.0 L 108.0 76.0 L 108.0 76.0 L 108.0 75.0 L 108.0 75.0 L 109.0 75.0 L 109.0 74.0 L 109.0 74.0 L 109.0 74.0 L 109.0 73.0 L 109.0 73.0 L 110.0 73.0 L 110.0 73.0 L 110.0 73.0 L 110.0 73.0 L 110.0 73.0 L 109.0 74.0 L 109.0 75.0 L 108.0 76.0 L 106.0 78.0 L 105.0 81.0 L 103.0 83.0 L 101.0 86.0 L 98.0 90.0 L 95.0 94.0 L 93.0 98.0 L 90.0 102.0 L 87.0 105.0 L 84.0 108.0 L 82.0 110.0 L 80.0 112.0 L 78.0 114.0 L 77.0 115.0 L 76.0 116.0 L 75.0 116.0 L 74.0 117.0 L 73.0 118.0 L 72.0 118.0 L 72.0 118.0 L 72.0 119.0 L 71.0 119.0 L 71.0 119.0 L 71.0 119.0 L 71.0 119.0 L 71.0 119.0 L 71.0 119.0 L 71.0 119.0 L 71.0 119.0 L 71.0 119.0 L 72.0 119.0 L 73.0 119.0 L 74.0 119.0 L 75.0 119.0 L 77.0 119.0 L 80.0 120.0 L 83.0 120.0 L 88.0 120.0 L 93.0 120.0 L 99.0 120.0 L 105.0 119.0 L 110.0 118.0 L 116.0 118.0 L 120.0 118.0 L 124.0 117.0 L 129.0 117.0 L 133.0 117.0 L 136.0 117.0 L 139.0 117.0 L 140.0 117.0 L 140.0 117.0 L 140.0 117.0 L 140.0 117.0 " stroke="black" fill="none" stroke-width="5.0" stroke-linecap="round" stroke-linejoin="round" />
<path d="M 125.0 90.0 L 125.0 90.0 L 124.0 90.0 L 124.0 90.0 L 124.0 90.0 L 124.0 90.0 L 124.0 90.0 L 124.0 90.0 L 124.0 90.0 L 125.0 91.0 L 126.0 93.0 L 128.0 95.0 L 130.0 99.0 L 133.0 103.0 L 136.0 107.0 L 139.0 111.0 L 142.0 116.0 L 145.0 119.0 L 147.0 123.0 L 149.0 125.0 L 149.0 127.0 " stroke="black" fill="none" stroke-width="5.0" stroke-linecap="round" stroke-linejoin="round" />
<path d="M 76.0 151.0 L 76.0 151.0 L 76.0 151.0 L 76.0 151.0 L 77.0 151.0 L 77.0 151.0 L 77.0 151.0 L 78.0 150.0 L 78.0 150.0 L 78.0 150.0 L 79.0 150.0 L 80.0 150.0 L 80.0 151.0 L 81.0 153.0 L 82.0 155.0 L 83.0 158.0 L 84.0 162.0 L 85.0 167.0 L 85.0 173.0 L 86.0 179.0 L 86.0 187.0 L 86.0 194.0 L 85.0 201.0 L 83.0 207.0 L 82.0 212.0 L 80.0 217.0 L 78.0 223.0 L 75.0 229.0 L 73.0 235.0 L 70.0 241.0 L 68.0 246.0 L 65.0 251.0 L 63.0 255.0 " stroke="black" fill="none" stroke-width="5.0" stroke-linecap="round" stroke-linejoin="round" />
<path d="M 80.0 149.0 L 80.0 149.0 L 79.0 149.0 L 78.0 149.0 L 78.0 150.0 L 77.0 150.0 L 77.0 151.0 L 77.0 151.0 L 77.0 151.0 L 77.0 151.0 L 79.0 151.0 L 81.0 151.0 L 83.0 150.0 L 86.0 150.0 L 89.0 149.0 L 92.0 148.0 L 95.0 148.0 L 99.0 147.0 L 103.0 147.0 L 107.0 146.0 L 111.0 146.0 L 114.0 146.0 L 118.0 145.0 L 120.0 145.0 L 123.0 145.0 L 125.0 145.0 L 127.0 145.0 L 129.0 145.0 L 131.0 146.0 L 132.0 146.0 L 133.0 146.0 L 135.0 147.0 L 136.0 148.0 L 137.0 148.0 L 137.0 148.0 L 138.0 149.0 L 138.0 149.0 L 138.0 150.0 L 138.0 150.0 L 138.0 151.0 L 138.0 151.0 L 138.0 152.0 L 138.0 154.0 L 138.0 155.0 L 138.0 157.0 L 138.0 159.0 L 138.0 161.0 L 138.0 164.0 L 138.0 166.0 L 138.0 169.0 L 138.0 172.0 L 138.0 176.0 L 139.0 179.0 L 139.0 182.0 L 139.0 186.0 L 139.0 190.0 L 139.0 194.0 L 139.0 198.0 L 139.0 201.0 L 139.0 204.0 L 139.0 207.0 L 139.0 210.0 L 140.0 213.0 L 140.0 216.0 L 140.0 219.0 L 140.0 221.0 L 140.0 224.0 L 140.0 226.0 L 140.0 229.0 L 139.0 231.0 L 139.0 234.0 L 139.0 236.0 L 138.0 238.0 L 138.0 240.0 L 138.0 241.0 L 137.0 243.0 L 137.0 244.0 L 137.0 246.0 L 136.0 247.0 L 136.0 248.0 L 136.0 249.0 L 135.0 250.0 L 135.0 251.0 L 135.0 252.0 L 134.0 252.0 L 134.0 252.0 L 133.0 253.0 L 133.0 253.0 L 132.0 253.0 L 131.0 253.0 L 131.0 253.0 L 129.0 253.0 L 128.0 253.0 L 127.0 253.0 L 125.0 253.0 L 123.0 253.0 L 121.0 253.0 L 119.0 252.0 L 117.0 252.0 L 114.0 252.0 L 112.0 252.0 L 110.0 252.0 L 108.0 252.0 L 106.0 252.0 " stroke="black" fill="none" stroke-width="5.0" stroke-linecap="round" stroke-linejoin="round" />
<path d="M 93.0 175.0 L 93.0 175.0 L 93.0 175.0 L 92.0 175.0 L 92.0 176.0 L 92.0 176.0 L 93.0 177.0 L 95.0 178.0 L 98.0 180.0 L 102.0 182.0 L 105.0 184.0 L 108.0 186.0 L 111.0 188.0 L 114.0 190.0 L 116.0 192.0 L 118.0 194.0 L 119.0 196.0 L 120.0 197.0 " stroke="black" fill="none" stroke-width="5.0" stroke-linecap="round" stroke-linejoin="round" />
<path d="M 98.0 215.0 L 98.0 215.0 L 97.0 215.0 L 96.0 216.0 L 95.0 216.0 L 95.0 216.0 L 95.0 216.0 L 95.0 216.0 L 95.0 216.0 L 97.0 216.0 L 100.0 214.0 L 104.0 212.0 L 108.0 208.0 L 114.0 204.0 L 120.0 200.0 L 127.0 195.0 L 136.0 189.0 " stroke="black" fill="none" stroke-width="5.0" stroke-linecap="round" stroke-linejoin="round" />
<path d="M 227.0 103.0 L 227.0 103.0 L 226.0 103.0 L 226.0 103.0 L 225.0 103.0 L 224.0 103.0 L 224.0 104.0 L 223.0 104.0 L 222.0 104.0 L 221.0 104.0 L 219.0 104.0 L 217.0 104.0 L 215.0 104.0 L 212.0 104.0 L 209.0 104.0 L 205.0 104.0 L 201.0 104.0 L 197.0 104.0 L 193.0 104.0 L 190.0 104.0 L 186.0 105.0 L 183.0 105.0 L 181.0 105.0 L 179.0 105.0 L 177.0 106.0 L 175.0 106.0 L 174.0 106.0 L 173.0 107.0 " stroke="black" fill="none" stroke-width="5.0" stroke-linecap="round" stroke-linejoin="round" />
<path d="M 175.0 78.0 L 175.0 78.0 L 174.0 78.0 L 174.0 78.0 L 174.0 78.0 L 173.0 78.0 L 173.0 78.0 L 173.0 78.0 L 172.0 78.0 L 172.0 78.0 L 172.0 78.0 L 172.0 78.0 L 172.0 80.0 L 172.0 81.0 L 172.0 83.0 L 171.0 86.0 L 171.0 89.0 L 171.0 92.0 L 171.0 97.0 L 171.0 101.0 L 171.0 105.0 L 171.0 109.0 L 171.0 112.0 L 171.0 115.0 L 171.0 117.0 L 171.0 119.0 L 171.0 121.0 L 171.0 123.0 L 171.0 124.0 L 171.0 126.0 L 171.0 127.0 L 171.0 128.0 L 171.0 130.0 L 171.0 131.0 L 171.0 132.0 L 171.0 133.0 L 171.0 134.0 L 171.0 136.0 L 171.0 137.0 L 171.0 138.0 L 171.0 139.0 L 171.0 140.0 L 171.0 141.0 L 171.0 142.0 L 171.0 143.0 L 171.0 144.0 L 171.0 145.0 L 171.0 146.0 L 171.0 147.0 L 171.0 148.0 L 171.0 149.0 L 171.0 149.0 L 172.0 150.0 L 172.0 150.0 L 173.0 151.0 L 174.0 151.0 L 175.0 151.0 L 176.0 152.0 L 177.0 152.0 L 179.0 152.0 L 181.0 152.0 L 184.0 152.0 L 187.0 152.0 L 191.0 152.0 L 194.0 152.0 L 197.0 152.0 L 200.0 152.0 L 203.0 152.0 L 205.0 152.0 L 208.0 152.0 L 211.0 152.0 L 214.0 152.0 L 217.0 152.0 L 220.0 152.0 L 223.0 152.0 L 227.0 152.0 L 230.0 153.0 L 232.0 153.0 L 235.0 153.0 L 236.0 153.0 L 238.0 154.0 L 239.0 154.0 L 239.0 154.0 " stroke="black" fill="none" stroke-width="5.0" stroke-linecap="round" stroke-linejoin="round" />
<path d="M 224.0 196.0 L 224.0 196.0 L 224.0 196.0 L 224.0 196.0 L 224.0 196.0 L 224.0 196.0 L 224.0 196.0 L 224.0 196.0 L 224.0 196.0 L 224.0 195.0 L 224.0 195.0 L 223.0 195.0 L 222.0 194.0 L 220.0 194.0 L 217.0 194.0 L 213.0 193.0 L 209.0 193.0 L 205.0 193.0 L 200.0 193.0 L 196.0 193.0 L 192.0 192.0 L 189.0 192.0 L 185.0 192.0 L 182.0 192.0 L 178.0 192.0 L 175.0 192.0 L 172.0 192.0 L 171.0 192.0 " stroke="black" fill="none" stroke-width="5.0" stroke-linecap="round" stroke-linejoin="round" />
<path d="M 172.0 167.0 L 172.0 167.0 L 172.0 167.0 L 172.0 167.0 L 171.0 167.0 L 171.0 167.0 L 171.0 167.0 L 171.0 167.0 L 170.0 168.0 L 170.0 169.0 L 170.0 170.0 L 170.0 172.0 L 170.0 174.0 L 170.0 176.0 L 170.0 179.0 L 169.0 182.0 L 169.0 185.0 L 169.0 188.0 L 169.0 191.0 L 169.0 194.0 L 169.0 196.0 L 169.0 198.0 L 168.0 200.0 L 168.0 202.0 L 168.0 204.0 L 168.0 205.0 L 168.0 207.0 L 168.0 208.0 L 168.0 209.0 L 168.0 211.0 L 168.0 212.0 L 167.0 213.0 L 167.0 214.0 L 167.0 216.0 L 167.0 217.0 L 167.0 218.0 L 167.0 219.0 L 167.0 221.0 L 167.0 222.0 L 167.0 223.0 L 167.0 225.0 L 167.0 226.0 L 167.0 227.0 L 167.0 228.0 L 167.0 229.0 L 167.0 230.0 L 167.0 231.0 L 167.0 232.0 L 167.0 233.0 L 167.0 234.0 L 167.0 235.0 L 167.0 236.0 L 167.0 236.0 L 168.0 237.0 L 168.0 238.0 L 168.0 238.0 L 168.0 239.0 L 169.0 239.0 L 169.0 240.0 L 169.0 240.0 L 170.0 241.0 L 170.0 241.0 L 170.0 241.0 L 171.0 242.0 L 171.0 242.0 L 172.0 243.0 L 172.0 243.0 L 173.0 243.0 L 174.0 243.0 L 175.0 244.0 L 176.0 244.0 L 177.0 244.0 L 179.0 245.0 L 181.0 245.0 L 183.0 245.0 L 185.0 246.0 L 187.0 246.0 L 189.0 246.0 L 192.0 247.0 L 194.0 247.0 L 196.0 247.0 L 198.0 248.0 L 200.0 248.0 L 201.0 248.0 L 203.0 249.0 L 205.0 249.0 L 206.0 250.0 L 208.0 250.0 L 210.0 250.0 L 213.0 251.0 L 215.0 251.0 L 218.0 251.0 L 221.0 251.0 L 223.0 251.0 L 226.0 252.0 L 229.0 252.0 L 231.0 252.0 L 233.0 252.0 L 235.0 252.0 L 237.0 252.0 L 239.0 252.0 L 240.0 252.0 L 240.0 252.0 L 241.0 252.0 L 242.0 252.0 L 242.0 252.0 L 242.0 252.0 L 242.0 252.0 L 242.0 251.0 L 242.0 251.0 L 242.0 250.0 L 242.0 249.0 L 242.0 247.0 L 242.0 245.0 L 242.0 243.0 L 241.0 241.0 L 241.0 239.0 L 241.0 237.0 L 240.0 235.0 L 240.0 232.0 " stroke="black" fill="none" stroke-width="5.0" stroke-linecap="round" stroke-linejoin="round" />
</svg>