<svg xmlns="http://www.w3.org/2000/svg" width="300" height="300" viewBox="0 0 300 300">
<path d="M 66.0 82.0 L 66.0 82.0 L 66.0 82.0 L 65.0 82.0 L 64.0 82.0 L 64.0 82.0 L 64.0 82.0 L 63.0 82.0 L 63.0 82.0 L 63.0 82.0 L 64.0 82.0 L 66.0 82.0 L 69.0 82.0 L 74.0 82.0 L 82.0 82.0 L 90.0 82.0 L 100.0 82.0 L 109.0 81.0 L 117.0 80.0 L 124.0 79.0 L 130.0 79.0 L 133.0 79.0 " stroke="black" fill="none" stroke-width="5.0" stroke-linecap="round" stroke-linejoin="round" />
<path d="M 78.0 90.0 L 78.0 90.0 L 78.0 89.0 L 77.0 89.0 L 77.0 88.0 L 77.0 88.0 L 77.0 88.0 L 77.0 88.0 L 77.0 88.0 L 77.0 89.0 L 77.0 96.0 L 77.0 101.0 L 77.0 106.0 L 76.0 111.0 L 76.0 117.0 L 76.0 123.0 L 75.0 130.0 L 75.0 136.0 L 75.0 143.0 L 75.0 150.0 L 75.0 156.0 L 75.0 162.0 L 75.0 168.0 L 74.0 172.0 L 74.0 177.0 L 74.0 183.0 L 74.0 188.0 L 74.0 193.0 L 73.0 198.0 L 73.0 201.0 L 73.0 203.0 L 73.0 205.0 L 72.0 206.0 L 72.0 206.0 L 72.0 206.0 L 72.0 206.0 " stroke="black" fill="none" stroke-width="5.0" stroke-linecap="round" stroke-linejoin="round" />
<path d="M 116.0 89.0 L 116.0 91.0 L 115.0 93.0 L 114.0 96.0 L 114.0 98.0 L 114.0 102.0 L 114.0 106.0 L 114.0 110.0 L 114.0 114.0 L 114.0 120.0 L 114.0 123.0 L 114.0 132.0 L 115.0 140.0 L 115.0 148.0 L 115.0 155.0 L 115.0 164.0 L 115.0 172.0 L 114.0 180.0 L 114.0 191.0 L 114.0 200.0 L 114.0 209.0 L 114.0 217.0 L 114.0 225.0 L 114.0 233.0 L 113.0 240.0 L 113.0 244.0 L 113.0 247.0 L 113.0 248.0 L 112.0 248.0 " stroke="black" fill="none" stroke-width="5.0" stroke-linecap="round" stroke-linejoin="round" />
<path d="M 81.0 131.0 L 80.0 131.0 L 80.0 131.0 L 79.0 131.0 L 79.0 131.0 L 80.0 131.0 L 82.0 131.0 L 86.0 131.0 L 91.0 131.0 L 96.0 130.0 L 101.0 130.0 L 106.0 130.0 L 110.0 130.0 " stroke="black" fill="none" stroke-width="5.0" stroke-linecap="round" stroke-linejoin="round" />
<path d="M 83.0 167.0 L 83.0 167.0 L 81.0 167.0 L 80.0 167.0 L 79.0 167.0 L 79.0 167.0 L 80.0 167.0 L 83.0 167.0 L 87.0 167.0 L 92.0 167.0 L 97.0 167.0 L 102.0 166.0 L 107.0 165.0 L 111.0 165.0 " stroke="black" fill="none" stroke-width="5.0" stroke-linecap="round" stroke-linejoin="round" />
<path d="M 66.0 214.0 L 65.0 214.0 L 64.0 214.0 L 63.0 214.0 L 62.0 214.0 L 62.0 213.0 L 62.0 213.0 L 62.0 213.0 L 63.0 212.0 L 66.0 212.0 L 71.0 211.0 L 77.0 209.0 L 85.0 208.0 L 94.0 206.0 L 102.0 203.0 L 109.0 200.0 L 116.0 197.0 " stroke="black" fill="none" stroke-width="5.0" stroke-linecap="round" stroke-linejoin="round" />
<path d="M 191.0 76.0 L 191.0 76.0 L 191.0 76.0 L 191.0 75.0 L 191.0 75.0 L 191.0 75.0 L 191.0 74.0 L 191.0 74.0 L 191.0 74.0 L 191.0 74.0 L 191.0 74.0 L 191.0 74.0 L 191.0 75.0 L 191.0 77.0 L 191.0 80.0 L 190.0 85.0 L 188.0 91.0 L 185.0 98.0 L 181.0 106.0 L 176.0 114.0 L 170.0 121.0 L 163.0 126.0 L 157.0 132.0 L 153.0 136.0 L 149.0 140.0 L 146.0 144.0 L 143.0 147.0 L 139.0 149.0 L 137.0 150.0 L 136.0 150.0 " stroke="black" fill="none" stroke-width="5.0" stroke-linecap="round" stroke-linejoin="round" />
<path d="M 193.0 93.0 L 193.0 93.0 L 192.0 93.0 L 192.0 93.0 L 192.0 93.0 L 191.0 93.0 L 191.0 94.0 L 191.0 95.0 L 192.0 97.0 L 193.0 100.0 L 196.0 104.0 L 199.0 109.0 L 203.0 114.0 L 208.0 118.0 L 215.0 123.0 L 221.0 126.0 L 227.0 128.0 L 232.0 130.0 L 235.0 130.0 L 238.0 130.0 " stroke="black" fill="none" stroke-width="5.0" stroke-linecap="round" stroke-linejoin="round" />
<path d="M 168.0 143.0 L 167.0 143.0 L 165.0 142.0 L 163.0 142.0 L 162.0 142.0 L 162.0 142.0 L 162.0 141.0 L 162.0 141.0 L 164.0 141.0 L 168.0 140.0 L 172.0 140.0 L 178.0 140.0 L 184.0 139.0 L 189.0 139.0 L 194.0 139.0 L 199.0 139.0 L 204.0 139.0 L 208.0 139.0 L 212.0 139.0 " stroke="black" fill="none" stroke-width="5.0" stroke-linecap="round" stroke-linejoin="round" />
<path d="M 157.0 167.0 L 156.0 167.0 L 155.0 167.0 L 153.0 168.0 L 152.0 168.0 L 151.0 168.0 L 151.0 168.0 L 150.0 168.0 L 150.0 168.0 L 150.0 168.0 L 150.0 168.0 L 152.0 168.0 L 153.0 168.0 L 155.0 167.0 L 158.0 167.0 L 160.0 166.0 L 163.0 166.0 L 165.0 166.0 L 168.0 166.0 L 173.0 166.0 L 177.0 166.0 L 182.0 165.0 L 188.0 165.0 L 192.0 165.0 L 196.0 164.0 L 201.0 164.0 L 205.0 164.0 L 209.0 164.0 L 214.0 164.0 L 218.0 164.0 L 221.0 164.0 L 225.0 165.0 L 227.0 165.0 L 229.0 166.0 L 230.0 166.0 L 231.0 167.0 L 231.0 167.0 L 232.0 168.0 L 232.0 168.0 L 232.0 169.0 L 232.0 169.0 L 232.0 170.0 L 231.0 170.0 L 230.0 171.0 L 229.0 172.0 L 228.0 173.0 L 227.0 175.0 L 225.0 176.0 L 224.0 178.0 L 222.0 180.0 L 220.0 182.0 L 217.0 185.0 L 214.0 188.0 L 210.0 191.0 L 206.0 195.0 L 202.0 198.0 L 197.0 202.0 L 194.0 205.0 L 190.0 208.0 L 187.0 210.0 L 185.0 212.0 L 184.0 213.0 L 182.0 213.0 " stroke="black" fill="none" stroke-width="5.0" stroke-linecap="round" stroke-linejoin="round" />
<path d="M 159.0 207.0 L 158.0 207.0 L 158.0 207.0 L 157.0 207.0 L 156.0 206.0 L 156.0 206.0 L 155.0 206.0 L 155.0 206.0 L 155.0 206.0 L 155.0 206.0 L 156.0 206.0 L 158.0 206.0 L 160.0 208.0 L 164.0 210.0 L 169.0 212.0 L 175.0 215.0 L 181.0 219.0 L 188.0 223.0 L 194.0 228.0 L 199.0 232.0 L 202.0 236.0 L 205.0 239.0 L 206.0 242.0 L 206.0 244.0 L 206.0 245.0 L 206.0 246.0 L 206.0 247.0 " stroke="black" fill="none" stroke-width="5.0" stroke-linecap="round" stroke-linejoin="round" />
</svg>