<svg xmlns="http://www.w3.org/2000/svg" width="300" height="300" viewBox="0 0 300 300">
<path d="M 66.0 84.0 L 66.0 84.0 L 66.0 84.0 L 65.0 84.0 L 65.0 84.0 L 64.0 84.0 L 64.0 84.0 L 64.0 84.0 L 64.0 84.0 L 63.0 84.0 L 63.0 84.0 L 63.0 84.0 L 63.0 84.0 L 64.0 84.0 L 65.0 84.0 L 66.0 84.0 L 68.0 85.0 L 71.0 85.0 L 74.0 85.0 L 79.0 84.0 L 84.0 83.0 L 89.0 82.0 L 94.0 81.0 L 98.0 81.0 L 101.0 80.0 L 104.0 80.0 L 106.0 80.0 L 108.0 80.0 L 109.0 80.0 L 110.0 80.0 L 111.0 80.0 L 112.0 79.0 " stroke="black" fill="none" stroke-width="5.0" stroke-linecap="round" stroke-linejoin="round" />
<path d="M 74.0 89.0 L 74.0 89.0 L 74.0 89.0 L 74.0 89.0 L 74.0 89.0 L 74.0 89.0 L 74.0 89.0 L 74.0 90.0 L 74.0 90.0 L 74.0 90.0 L 74.0 91.0 L 74.0 91.0 L 74.0 93.0 L 74.0 95.0 L 74.0 98.0 L 74.0 101.0 L 74.0 105.0 L 74.0 108.0 L 74.0 112.0 L 74.0 115.0 L 73.0 118.0 L 73.0 120.0 L 73.0 123.0 L 73.0 126.0 L 73.0 128.0 L 73.0 130.0 L 72.0 133.0 L 72.0 135.0 L 72.0 137.0 L 72.0 139.0 L 72.0 141.0 L 72.0 143.0 L 72.0 145.0 L 72.0 147.0 L 72.0 149.0 L 71.0 151.0 L 71.0 152.0 L 71.0 154.0 L 71.0 156.0 L 71.0 157.0 L 71.0 158.0 L 71.0 160.0 L 71.0 161.0 L 71.0 163.0 L 71.0 164.0 L 71.0 166.0 L 71.0 168.0 L 71.0 170.0 L 71.0 172.0 L 71.0 173.0 L 71.0 175.0 L 71.0 177.0 L 71.0 178.0 L 71.0 180.0 L 71.0 182.0 L 71.0 183.0 L 71.0 186.0 L 71.0 188.0 L 71.0 189.0 L 71.0 192.0 L 71.0 194.0 L 71.0 196.0 L 71.0 198.0 L 71.0 199.0 L 71.0 201.0 L 71.0 203.0 L 71.0 204.0 L 71.0 206.0 L 72.0 208.0 L 72.0 209.0 L 72.0 211.0 L 72.0 212.0 L 72.0 212.0 " stroke="black" fill="none" stroke-width="5.0" stroke-linecap="round" stroke-linejoin="round" />
<path d="M 110.0 85.0 L 110.0 85.0 L 110.0 85.0 L 110.0 84.0 L 110.0 84.0 L 110.0 84.0 L 110.0 84.0 L 110.0 84.0 L 110.0 84.0 L 110.0 85.0 L 110.0 86.0 L 110.0 87.0 L 110.0 89.0 L 110.0 92.0 L 109.0 95.0 L 109.0 98.0 L 109.0 102.0 L 109.0 106.0 L 109.0 109.0 L 108.0 113.0 L 108.0 117.0 L 108.0 121.0 L 108.0 124.0 L 108.0 128.0 L 108.0 131.0 L 108.0 134.0 L 108.0 138.0 L 108.0 141.0 L 108.0 145.0 L 108.0 148.0 L 108.0 151.0 L 108.0 153.0 L 108.0 156.0 L 108.0 158.0 L 108.0 161.0 L 108.0 163.0 L 107.0 166.0 L 107.0 168.0 L 107.0 170.0 L 107.0 173.0 L 107.0 175.0 L 107.0 178.0 L 107.0 180.0 L 107.0 183.0 L 107.0 186.0 L 107.0 189.0 L 107.0 191.0 L 107.0 194.0 L 107.0 197.0 L 107.0 200.0 L 107.0 204.0 L 107.0 207.0 L 107.0 209.0 L 107.0 212.0 L 107.0 215.0 L 107.0 217.0 L 107.0 219.0 L 107.0 221.0 L 107.0 224.0 L 107.0 227.0 L 107.0 229.0 L 107.0 231.0 L 107.0 234.0 L 107.0 236.0 L 107.0 238.0 L 107.0 241.0 L 107.0 242.0 L 107.0 244.0 L 107.0 245.0 L 107.0 246.0 L 107.0 247.0 L 107.0 248.0 L 107.0 249.0 L 107.0 250.0 L 107.0 252.0 L 107.0 253.0 L 107.0 254.0 L 107.0 255.0 L 107.0 255.0 L 107.0 256.0 L 107.0 257.0 L 107.0 257.0 L 107.0 258.0 L 106.0 258.0 L 106.0 258.0 L 106.0 258.0 " stroke="black" fill="none" stroke-width="5.0" stroke-linecap="round" stroke-linejoin="round" />
<path d="M 78.0 124.0 L 78.0 124.0 L 77.0 124.0 L 77.0 124.0 L 76.0 123.0 L 76.0 123.0 L 75.0 123.0 L 75.0 123.0 L 75.0 123.0 L 75.0 123.0 L 76.0 123.0 L 78.0 124.0 L 81.0 124.0 L 85.0 124.0 L 89.0 124.0 L 94.0 123.0 L 96.0 123.0 " stroke="black" fill="none" stroke-width="5.0" stroke-linecap="round" stroke-linejoin="round" />
<path d="M 76.0 167.0 L 76.0 167.0 L 76.0 167.0 L 75.0 167.0 L 75.0 167.0 L 75.0 167.0 L 75.0 167.0 L 75.0 167.0 L 75.0 167.0 L 75.0 167.0 L 77.0 167.0 L 80.0 167.0 L 83.0 167.0 L 88.0 167.0 L 93.0 167.0 L 98.0 167.0 L 101.0 167.0 " stroke="black" fill="none" stroke-width="5.0" stroke-linecap="round" stroke-linejoin="round" />
<path d="M 64.0 221.0 L 64.0 221.0 L 64.0 221.0 L 64.0 221.0 L 64.0 221.0 L 64.0 221.0 L 64.0 221.0 L 64.0 221.0 L 64.0 221.0 L 64.0 221.0 L 64.0 221.0 L 65.0 220.0 L 66.0 219.0 L 69.0 217.0 L 73.0 214.0 L 78.0 211.0 L 84.0 208.0 L 90.0 204.0 L 96.0 200.0 L 99.0 198.0 " stroke="black" fill="none" stroke-width="5.0" stroke-linecap="round" stroke-linejoin="round" />
<path d="M 153.0 78.0 L 153.0 78.0 L 153.0 77.0 L 153.0 76.0 L 153.0 75.0 L 153.0 75.0 L 153.0 75.0 L 153.0 74.0 L 153.0 74.0 L 153.0 74.0 L 153.0 75.0 L 153.0 76.0 L 153.0 77.0 L 153.0 79.0 L 154.0 81.0 L 155.0 83.0 L 156.0 84.0 L 157.0 86.0 L 158.0 87.0 L 158.0 87.0 " stroke="black" fill="none" stroke-width="5.0" stroke-linecap="round" stroke-linejoin="round" />
<path d="M 142.0 97.0 L 142.0 97.0 L 140.0 97.0 L 138.0 96.0 L 136.0 96.0 L 135.0 95.0 L 133.0 95.0 L 132.0 95.0 L 132.0 94.0 L 131.0 94.0 L 131.0 94.0 L 131.0 94.0 L 131.0 94.0 L 132.0 95.0 L 134.0 95.0 L 136.0 96.0 L 139.0 96.0 L 142.0 97.0 L 145.0 97.0 L 149.0 97.0 L 153.0 97.0 L 157.0 97.0 L 162.0 97.0 L 168.0 96.0 L 174.0 95.0 L 179.0 94.0 L 183.0 94.0 L 184.0 93.0 " stroke="black" fill="none" stroke-width="5.0" stroke-linecap="round" stroke-linejoin="round" />
<path d="M 141.0 106.0 L 141.0 106.0 L 140.0 106.0 L 140.0 106.0 L 139.0 106.0 L 139.0 106.0 L 139.0 107.0 L 139.0 108.0 L 139.0 109.0 L 140.0 111.0 L 141.0 114.0 L 143.0 116.0 L 144.0 119.0 L 146.0 122.0 L 147.0 124.0 L 148.0 126.0 " stroke="black" fill="none" stroke-width="5.0" stroke-linecap="round" stroke-linejoin="round" />
<path d="M 169.0 101.0 L 169.0 101.0 L 170.0 101.0 L 170.0 101.0 L 171.0 101.0 L 171.0 101.0 L 172.0 101.0 L 172.0 101.0 L 172.0 102.0 L 172.0 103.0 L 171.0 104.0 L 170.0 107.0 L 168.0 110.0 L 166.0 113.0 L 164.0 118.0 L 162.0 122.0 L 161.0 126.0 L 159.0 129.0 L 158.0 132.0 L 158.0 133.0 " stroke="black" fill="none" stroke-width="5.0" stroke-linecap="round" stroke-linejoin="round" />
<path d="M 123.0 136.0 L 123.0 136.0 L 123.0 136.0 L 123.0 136.0 L 123.0 136.0 L 123.0 136.0 L 123.0 136.0 L 123.0 137.0 L 123.0 137.0 L 123.0 137.0 L 123.0 137.0 L 124.0 137.0 L 125.0 137.0 L 126.0 137.0 L 128.0 136.0 L 129.0 136.0 L 131.0 136.0 L 133.0 136.0 L 135.0 136.0 L 137.0 136.0 L 140.0 136.0 L 142.0 136.0 L 144.0 136.0 L 146.0 135.0 L 148.0 135.0 L 151.0 135.0 L 152.0 135.0 L 154.0 135.0 L 155.0 135.0 L 157.0 135.0 L 158.0 135.0 L 160.0 135.0 L 161.0 135.0 L 162.0 135.0 L 164.0 135.0 L 165.0 135.0 L 167.0 135.0 L 169.0 135.0 L 170.0 136.0 L 173.0 136.0 L 175.0 136.0 L 177.0 136.0 L 180.0 136.0 L 182.0 136.0 L 184.0 137.0 L 186.0 137.0 L 188.0 137.0 L 190.0 137.0 L 192.0 137.0 L 194.0 137.0 L 196.0 137.0 L 197.0 137.0 L 199.0 137.0 L 200.0 137.0 L 202.0 137.0 L 204.0 137.0 L 206.0 137.0 L 208.0 137.0 L 210.0 137.0 L 213.0 137.0 L 215.0 137.0 L 218.0 137.0 L 221.0 137.0 L 223.0 137.0 L 226.0 137.0 L 229.0 137.0 L 231.0 138.0 L 233.0 138.0 L 234.0 138.0 L 236.0 138.0 L 237.0 138.0 L 238.0 138.0 L 239.0 138.0 L 240.0 138.0 L 240.0 139.0 L 240.0 140.0 L 240.0 141.0 " stroke="black" fill="none" stroke-width="5.0" stroke-linecap="round" stroke-linejoin="round" />
<path d="M 140.0 162.0 L 140.0 162.0 L 140.0 162.0 L 139.0 162.0 L 139.0 161.0 L 139.0 161.0 L 139.0 161.0 L 138.0 161.0 L 138.0 161.0 L 138.0 161.0 L 138.0 161.0 L 138.0 162.0 L 138.0 164.0 L 138.0 166.0 L 138.0 169.0 L 138.0 172.0 L 138.0 175.0 L 138.0 180.0 L 138.0 186.0 L 138.0 191.0 L 138.0 197.0 L 138.0 202.0 L 139.0 206.0 L 139.0 211.0 L 139.0 214.0 L 139.0 218.0 L 139.0 222.0 L 139.0 225.0 L 139.0 227.0 L 139.0 228.0 L 139.0 228.0 " stroke="black" fill="none" stroke-width="5.0" stroke-linecap="round" stroke-linejoin="round" />
<path d="M 141.0 161.0 L 141.0 161.0 L 141.0 161.0 L 140.0 161.0 L 139.0 161.0 L 139.0 161.0 L 138.0 161.0 L 138.0 161.0 L 138.0 161.0 L 138.0 161.0 L 138.0 161.0 L 138.0 161.0 L 139.0 161.0 L 140.0 161.0 L 141.0 161.0 L 143.0 161.0 L 144.0 161.0 L 146.0 161.0 L 148.0 161.0 L 149.0 161.0 L 151.0 161.0 L 153.0 160.0 L 156.0 160.0 L 158.0 160.0 L 161.0 160.0 L 163.0 160.0 L 166.0 160.0 L 168.0 160.0 L 170.0 160.0 L 171.0 160.0 L 173.0 160.0 L 174.0 160.0 L 174.0 160.0 L 175.0 161.0 L 175.0 162.0 L 175.0 163.0 L 175.0 165.0 L 174.0 166.0 L 174.0 168.0 L 173.0 170.0 L 173.0 172.0 L 173.0 174.0 L 173.0 178.0 L 172.0 181.0 L 172.0 185.0 L 172.0 190.0 L 172.0 195.0 L 172.0 200.0 L 172.0 205.0 L 171.0 209.0 L 171.0 213.0 L 170.0 216.0 L 170.0 219.0 L 169.0 222.0 L 169.0 224.0 L 169.0 225.0 L 169.0 225.0 L 169.0 225.0 L 170.0 225.0 L 170.0 224.0 L 171.0 222.0 L 171.0 221.0 " stroke="black" fill="none" stroke-width="5.0" stroke-linecap="round" stroke-linejoin="round" />
<path d="M 141.0 192.0 L 140.0 192.0 L 138.0 192.0 L 137.0 192.0 L 136.0 192.0 L 136.0 192.0 L 136.0 192.0 L 137.0 192.0 L 140.0 192.0 L 143.0 191.0 L 146.0 191.0 L 149.0 190.0 L 152.0 190.0 L 155.0 190.0 L 159.0 189.0 L 162.0 189.0 L 165.0 189.0 L 168.0 189.0 L 170.0 190.0 " stroke="black" fill="none" stroke-width="5.0" stroke-linecap="round" stroke-linejoin="round" />
<path d="M 141.0 227.0 L 141.0 227.0 L 140.0 227.0 L 139.0 228.0 L 138.0 228.0 L 137.0 229.0 L 136.0 229.0 L 136.0 229.0 L 136.0 229.0 L 136.0 229.0 L 136.0 229.0 L 138.0 229.0 L 140.0 228.0 L 142.0 228.0 L 145.0 228.0 L 147.0 227.0 L 151.0 227.0 L 154.0 227.0 L 158.0 227.0 L 164.0 227.0 L 169.0 226.0 L 174.0 226.0 L 180.0 226.0 L 184.0 225.0 " stroke="black" fill="none" stroke-width="5.0" stroke-linecap="round" stroke-linejoin="round" />
<path d="M 197.0 74.0 L 197.0 74.0 L 197.0 74.0 L 197.0 73.0 L 197.0 73.0 L 197.0 73.0 L 197.0 72.0 L 197.0 72.0 L 197.0 72.0 L 197.0 72.0 L 197.0 72.0 L 197.0 73.0 L 197.0 74.0 L 197.0 75.0 L 197.0 77.0 L 197.0 79.0 L 197.0 81.0 L 197.0 83.0 L 197.0 85.0 L 197.0 88.0 L 197.0 90.0 L 197.0 93.0 L 196.0 96.0 L 196.0 99.0 L 196.0 102.0 L 196.0 105.0 L 196.0 108.0 L 196.0 110.0 L 196.0 112.0 L 196.0 114.0 L 196.0 116.0 L 196.0 118.0 L 196.0 120.0 L 196.0 122.0 L 196.0 124.0 L 196.0 125.0 L 196.0 127.0 L 196.0 129.0 L 196.0 131.0 L 196.0 133.0 L 196.0 135.0 L 196.0 136.0 L 196.0 138.0 L 196.0 141.0 L 196.0 143.0 L 197.0 145.0 L 197.0 147.0 L 197.0 149.0 L 197.0 151.0 L 197.0 153.0 L 197.0 155.0 L 197.0 157.0 L 198.0 159.0 L 198.0 161.0 L 198.0 162.0 L 199.0 164.0 L 199.0 166.0 L 199.0 167.0 L 200.0 169.0 L 200.0 171.0 L 200.0 172.0 L 200.0 174.0 L 201.0 176.0 L 201.0 177.0 L 201.0 180.0 L 201.0 182.0 L 201.0 184.0 L 202.0 186.0 L 202.0 188.0 L 202.0 190.0 L 202.0 192.0 L 203.0 194.0 L 203.0 195.0 L 203.0 197.0 L 204.0 199.0 L 204.0 200.0 L 204.0 202.0 L 205.0 204.0 L 205.0 206.0 L 206.0 207.0 L 206.0 209.0 L 207.0 210.0 L 207.0 211.0 L 208.0 213.0 L 208.0 214.0 L 209.0 215.0 L 209.0 217.0 L 210.0 218.0 L 211.0 220.0 L 211.0 221.0 L 212.0 223.0 L 212.0 224.0 L 213.0 226.0 L 213.0 227.0 L 214.0 229.0 L 214.0 230.0 L 215.0 232.0 L 215.0 233.0 L 216.0 234.0 L 216.0 235.0 L 217.0 237.0 L 218.0 238.0 L 218.0 239.0 L 219.0 240.0 L 220.0 241.0 L 220.0 242.0 L 221.0 243.0 L 222.0 244.0 L 222.0 245.0 L 223.0 245.0 L 224.0 246.0 L 224.0 247.0 L 225.0 248.0 L 225.0 248.0 L 225.0 249.0 L 226.0 249.0 L 226.0 250.0 L 226.0 250.0 L 227.0 250.0 L 227.0 250.0 L 227.0 250.0 L 227.0 250.0 L 228.0 251.0 L 228.0 251.0 L 228.0 251.0 L 228.0 251.0 L 228.0 251.0 L 228.0 251.0 L 228.0 251.0 L 228.0 251.0 L 228.0 251.0 L 228.0 251.0 L 228.0 251.0 L 229.0 251.0 L 229.0 251.0 L 229.0 251.0 L 229.0 251.0 L 229.0 251.0 L 229.0 250.0 L 229.0 250.0 L 229.0 250.0 L 230.0 249.0 L 230.0 248.0 L 231.0 246.0 L 231.0 244.0 L 232.0 241.0 L 234.0 237.0 L 235.0 232.0 L 236.0 225.0 L 238.0 218.0 L 239.0 212.0 " stroke="black" fill="none" stroke-width="5.0" stroke-linecap="round" stroke-linejoin="round" />
<path d="M 217.0 84.0 L 217.0 84.0 L 217.0 84.0 L 217.0 84.0 L 217.0 84.0 L 217.0 85.0 L 217.0 85.0 L 218.0 86.0 L 219.0 88.0 L 221.0 91.0 L 223.0 95.0 L 225.0 99.0 L 228.0 104.0 L 230.0 109.0 L 232.0 113.0 L 233.0 116.0 L 234.0 117.0 " stroke="black" fill="none" stroke-width="5.0" stroke-linecap="round" stroke-linejoin="round" />
<path d="M 234.0 159.0 L 234.0 159.0 L 234.0 159.0 L 234.0 159.0 L 234.0 159.0 L 234.0 159.0 L 234.0 159.0 L 234.0 159.0 L 234.0 159.0 L 234.0 160.0 L 234.0 161.0 L 234.0 162.0 L 234.0 165.0 L 234.0 168.0 L 233.0 173.0 L 232.0 178.0 L 230.0 184.0 L 229.0 189.0 L 227.0 194.0 L 225.0 198.0 L 222.0 203.0 L 219.0 207.0 L 216.0 212.0 L 211.0 217.0 L 207.0 223.0 L 203.0 229.0 L 199.0 234.0 L 195.0 238.0 L 192.0 241.0 L 189.0 244.0 L 187.0 245.0 L 185.0 246.0 " stroke="black" fill="none" stroke-width="5.0" stroke-linecap="round" stroke-linejoin="round" />
</svg>