<svg xmlns="http://www.w3.org/2000/svg" width="300" height="300" viewBox="0 0 300 300">
<path d="M 105.0 72.0 L 105.0 72.0 L 105.0 72.0 L 105.0 72.0 L 105.0 72.0 L 104.0 72.0 L 104.0 72.0 L 104.0 72.0 L 104.0 72.0 L 104.0 72.0 L 104.0 74.0 L 104.0 76.0 L 104.0 79.0 L 104.0 84.0 L 104.0 89.0 L 104.0 97.0 L 104.0 104.0 L 104.0 110.0 L 104.0 116.0 L 104.0 119.0 L 103.0 121.0 L 103.0 121.0 " stroke="black" fill="none" stroke-width="5.0" stroke-linecap="round" stroke-linejoin="round" />
<path d="M 64.0 95.0 L 64.0 95.0 L 64.0 95.0 L 64.0 95.0 L 64.0 95.0 L 64.0 95.0 L 64.0 95.0 L 64.0 95.0 L 63.0 95.0 L 63.0 95.0 L 63.0 95.0 L 63.0 95.0 L 63.0 95.0 L 63.0 95.0 L 63.0 95.0 L 63.0 94.0 L 64.0 94.0 L 64.0 94.0 L 65.0 94.0 L 66.0 94.0 L 66.0 94.0 L 67.0 94.0 L 68.0 94.0 L 69.0 94.0 L 71.0 94.0 L 72.0 94.0 L 74.0 94.0 L 75.0 94.0 L 77.0 93.0 L 79.0 93.0 L 81.0 93.0 L 82.0 93.0 L 84.0 93.0 L 85.0 93.0 L 87.0 93.0 L 88.0 93.0 L 89.0 93.0 L 91.0 93.0 L 91.0 93.0 L 92.0 93.0 L 93.0 93.0 L 94.0 93.0 L 95.0 93.0 L 95.0 93.0 L 96.0 93.0 L 96.0 93.0 L 97.0 93.0 L 97.0 93.0 L 98.0 93.0 L 98.0 93.0 L 99.0 93.0 L 100.0 93.0 L 100.0 93.0 L 100.0 93.0 L 101.0 93.0 L 101.0 93.0 L 102.0 93.0 L 102.0 93.0 L 103.0 93.0 L 103.0 93.0 L 104.0 93.0 L 105.0 93.0 L 105.0 93.0 L 106.0 93.0 L 106.0 93.0 L 107.0 93.0 L 107.0 93.0 L 107.0 93.0 L 108.0 93.0 L 108.0 93.0 L 109.0 93.0 L 109.0 93.0 L 110.0 93.0 L 110.0 93.0 L 111.0 93.0 L 111.0 93.0 L 111.0 93.0 L 112.0 93.0 L 112.0 93.0 L 113.0 93.0 L 113.0 93.0 L 113.0 93.0 L 114.0 93.0 L 114.0 93.0 L 114.0 93.0 L 115.0 93.0 L 115.0 93.0 L 115.0 93.0 L 116.0 93.0 L 116.0 93.0 L 117.0 93.0 L 117.0 93.0 L 117.0 93.0 L 118.0 93.0 L 119.0 93.0 L 119.0 93.0 L 120.0 93.0 L 121.0 93.0 L 121.0 93.0 L 122.0 93.0 L 123.0 93.0 L 124.0 93.0 L 125.0 93.0 L 126.0 93.0 L 126.0 93.0 L 128.0 93.0 L 128.0 93.0 L 129.0 93.0 L 130.0 93.0 L 131.0 93.0 L 132.0 93.0 L 133.0 93.0 L 134.0 93.0 L 135.0 93.0 L 136.0 93.0 L 136.0 92.0 L 137.0 92.0 L 138.0 92.0 L 139.0 92.0 L 140.0 92.0 L 140.0 92.0 L 141.0 92.0 L 142.0 92.0 L 143.0 91.0 L 143.0 91.0 L 144.0 91.0 L 144.0 91.0 L 144.0 91.0 L 144.0 91.0 L 144.0 91.0 L 144.0 91.0 L 144.0 91.0 " stroke="black" fill="none" stroke-width="5.0" stroke-linecap="round" stroke-linejoin="round" />
<path d="M 154.0 94.0 L 154.0 94.0 L 154.0 94.0 L 154.0 94.0 L 154.0 94.0 L 154.0 94.0 L 154.0 94.0 L 154.0 94.0 L 154.0 94.0 L 154.0 94.0 L 154.0 94.0 L 154.0 94.0 L 154.0 94.0 L 154.0 94.0 L 154.0 94.0 L 154.0 94.0 L 155.0 94.0 L 156.0 94.0 L 157.0 94.0 L 158.0 94.0 L 159.0 94.0 L 160.0 94.0 L 162.0 94.0 L 163.0 94.0 L 165.0 94.0 L 167.0 94.0 L 168.0 94.0 L 170.0 94.0 L 172.0 94.0 L 173.0 94.0 L 175.0 94.0 L 177.0 94.0 L 178.0 93.0 L 179.0 93.0 L 180.0 93.0 L 181.0 93.0 L 182.0 93.0 L 183.0 93.0 L 183.0 93.0 L 184.0 93.0 L 185.0 93.0 L 185.0 93.0 L 186.0 93.0 L 186.0 93.0 L 187.0 93.0 L 188.0 93.0 L 188.0 93.0 L 189.0 93.0 L 190.0 93.0 L 190.0 93.0 L 191.0 93.0 L 192.0 93.0 L 192.0 93.0 L 193.0 93.0 L 194.0 93.0 L 194.0 93.0 L 195.0 93.0 L 195.0 93.0 L 196.0 93.0 L 196.0 93.0 L 197.0 93.0 L 197.0 93.0 L 198.0 93.0 L 198.0 93.0 L 199.0 93.0 L 199.0 93.0 L 200.0 93.0 L 200.0 93.0 L 201.0 93.0 L 201.0 93.0 L 202.0 93.0 L 203.0 93.0 L 203.0 93.0 L 204.0 93.0 L 205.0 93.0 L 205.0 93.0 L 206.0 93.0 L 206.0 93.0 L 207.0 93.0 L 208.0 93.0 L 208.0 93.0 L 209.0 93.0 L 210.0 93.0 L 210.0 93.0 L 211.0 93.0 L 212.0 93.0 L 213.0 93.0 L 214.0 93.0 L 214.0 93.0 L 215.0 93.0 L 216.0 93.0 L 217.0 93.0 L 218.0 93.0 L 218.0 93.0 L 219.0 93.0 L 220.0 93.0 L 221.0 93.0 L 221.0 93.0 L 222.0 93.0 L 223.0 93.0 L 223.0 93.0 L 224.0 93.0 L 224.0 93.0 L 225.0 93.0 L 225.0 93.0 L 226.0 93.0 L 227.0 93.0 L 227.0 93.0 L 227.0 93.0 L 228.0 93.0 L 229.0 93.0 L 229.0 93.0 L 229.0 93.0 L 230.0 93.0 L 230.0 93.0 L 231.0 93.0 L 231.0 93.0 L 231.0 93.0 L 232.0 93.0 L 232.0 93.0 L 232.0 93.0 L 233.0 93.0 L 233.0 93.0 L 234.0 92.0 L 234.0 92.0 L 234.0 92.0 L 235.0 92.0 L 235.0 92.0 L 235.0 92.0 L 235.0 92.0 L 236.0 92.0 L 236.0 92.0 L 236.0 92.0 L 236.0 92.0 L 236.0 92.0 L 236.0 92.0 " stroke="black" fill="none" stroke-width="5.0" stroke-linecap="round" stroke-linejoin="round" />
<path d="M 194.0 75.0 L 194.0 75.0 L 194.0 75.0 L 194.0 75.0 L 194.0 75.0 L 194.0 75.0 L 194.0 75.0 L 194.0 76.0 L 194.0 77.0 L 194.0 77.0 L 194.0 79.0 L 194.0 80.0 L 194.0 82.0 L 194.0 84.0 L 194.0 87.0 L 194.0 91.0 L 194.0 95.0 L 194.0 100.0 L 194.0 104.0 L 194.0 107.0 L 194.0 110.0 L 194.0 112.0 L 194.0 114.0 L 194.0 114.0 L 194.0 115.0 L 194.0 115.0 L 194.0 115.0 L 194.0 115.0 L 194.0 115.0 L 194.0 115.0 " stroke="black" fill="none" stroke-width="5.0" stroke-linecap="round" stroke-linejoin="round" />
<path d="M 64.0 146.0 L 64.0 146.0 L 64.0 146.0 L 64.0 146.0 L 64.0 146.0 L 64.0 146.0 L 64.0 146.0 L 64.0 146.0 L 64.0 146.0 L 64.0 146.0 L 64.0 146.0 L 64.0 146.0 L 64.0 146.0 L 65.0 146.0 L 65.0 146.0 L 66.0 146.0 L 67.0 146.0 L 68.0 146.0 L 69.0 146.0 L 71.0 146.0 L 71.0 146.0 L 73.0 147.0 L 75.0 147.0 L 76.0 147.0 L 78.0 147.0 L 79.0 147.0 L 81.0 147.0 L 82.0 147.0 L 84.0 147.0 L 85.0 147.0 L 87.0 147.0 L 88.0 147.0 L 89.0 147.0 L 90.0 147.0 L 91.0 147.0 L 93.0 146.0 L 94.0 146.0 L 95.0 146.0 L 96.0 146.0 L 97.0 146.0 L 98.0 145.0 L 99.0 145.0 L 100.0 145.0 L 101.0 145.0 L 102.0 144.0 L 103.0 144.0 L 104.0 144.0 L 104.0 144.0 L 105.0 144.0 L 106.0 144.0 L 107.0 144.0 L 108.0 143.0 L 108.0 143.0 L 109.0 143.0 L 110.0 143.0 L 110.0 143.0 L 111.0 143.0 L 111.0 143.0 L 112.0 143.0 L 112.0 143.0 L 113.0 143.0 L 114.0 143.0 L 114.0 143.0 L 115.0 143.0 L 116.0 143.0 L 116.0 143.0 L 117.0 143.0 L 118.0 143.0 L 119.0 143.0 L 119.0 143.0 L 120.0 143.0 L 121.0 143.0 L 122.0 143.0 L 123.0 143.0 L 123.0 143.0 L 124.0 143.0 L 125.0 143.0 L 126.0 143.0 L 128.0 143.0 L 129.0 143.0 L 130.0 143.0 L 132.0 143.0 L 133.0 143.0 L 134.0 143.0 L 135.0 143.0 L 136.0 143.0 L 137.0 142.0 L 138.0 142.0 L 139.0 142.0 L 140.0 142.0 L 141.0 142.0 L 141.0 142.0 L 142.0 142.0 L 143.0 142.0 L 144.0 142.0 L 144.0 142.0 L 145.0 142.0 L 145.0 142.0 L 146.0 142.0 L 146.0 142.0 L 147.0 142.0 L 148.0 142.0 L 148.0 142.0 L 149.0 142.0 L 149.0 142.0 L 150.0 142.0 L 150.0 142.0 L 151.0 142.0 L 152.0 142.0 L 152.0 142.0 L 153.0 142.0 L 153.0 142.0 L 154.0 142.0 L 155.0 142.0 L 156.0 142.0 L 156.0 142.0 L 157.0 142.0 L 158.0 142.0 L 159.0 142.0 L 159.0 142.0 L 160.0 142.0 L 161.0 142.0 L 162.0 142.0 L 162.0 142.0 L 163.0 142.0 L 164.0 142.0 L 165.0 142.0 L 165.0 142.0 L 166.0 142.0 L 167.0 142.0 L 168.0 142.0 L 168.0 142.0 L 169.0 142.0 L 170.0 142.0 L 170.0 142.0 L 171.0 143.0 L 172.0 143.0 L 173.0 143.0 L 173.0 143.0 L 174.0 143.0 L 175.0 143.0 L 176.0 143.0 L 177.0 143.0 L 177.0 143.0 L 178.0 143.0 L 179.0 143.0 L 180.0 144.0 L 181.0 144.0 L 182.0 144.0 L 183.0 144.0 L 183.0 144.0 L 184.0 144.0 L 185.0 144.0 L 186.0 144.0 L 186.0 144.0 L 187.0 144.0 L 188.0 144.0 L 188.0 144.0 L 189.0 144.0 L 190.0 144.0 L 190.0 144.0 L 191.0 144.0 L 191.0 144.0 L 192.0 144.0 L 192.0 144.0 L 193.0 144.0 L 193.0 144.0 L 193.0 144.0 L 194.0 144.0 L 194.0 144.0 L 194.0 143.0 L 195.0 143.0 L 195.0 143.0 L 195.0 143.0 L 196.0 143.0 L 196.0 143.0 L 196.0 143.0 L 197.0 143.0 L 197.0 143.0 L 198.0 143.0 L 198.0 143.0 L 198.0 143.0 L 199.0 143.0 L 199.0 143.0 L 200.0 143.0 L 200.0 143.0 L 201.0 143.0 L 201.0 143.0 L 202.0 143.0 L 202.0 143.0 L 202.0 143.0 L 203.0 143.0 L 204.0 143.0 L 204.0 143.0 L 205.0 143.0 L 205.0 143.0 L 206.0 143.0 L 206.0 143.0 L 207.0 143.0 L 208.0 143.0 L 208.0 143.0 L 209.0 143.0 L 210.0 143.0 L 210.0 143.0 L 211.0 143.0 L 212.0 143.0 L 212.0 143.0 L 213.0 143.0 L 214.0 143.0 L 214.0 143.0 L 215.0 143.0 L 216.0 143.0 L 216.0 143.0 L 217.0 143.0 L 218.0 143.0 L 218.0 143.0 L 219.0 143.0 L 220.0 143.0 L 220.0 143.0 L 221.0 143.0 L 222.0 143.0 L 222.0 143.0 L 223.0 143.0 L 224.0 143.0 L 224.0 143.0 L 225.0 143.0 L 225.0 143.0 L 226.0 143.0 L 227.0 143.0 L 227.0 143.0 L 228.0 143.0 L 228.0 143.0 L 229.0 143.0 L 229.0 143.0 L 230.0 143.0 L 231.0 143.0 L 231.0 143.0 L 232.0 143.0 L 233.0 143.0 L 233.0 143.0 L 234.0 143.0 L 235.0 143.0 L 235.0 143.0 L 236.0 143.0 L 237.0 143.0 L 237.0 143.0 L 238.0 143.0 L 239.0 143.0 L 239.0 143.0 L 240.0 143.0 L 240.0 143.0 L 241.0 143.0 L 241.0 143.0 L 241.0 143.0 L 241.0 143.0 " stroke="black" fill="none" stroke-width="5.0" stroke-linecap="round" stroke-linejoin="round" />
<path d="M 143.0 120.0 L 143.0 120.0 L 143.0 120.0 L 143.0 119.0 L 143.0 119.0 L 143.0 119.0 L 143.0 119.0 L 143.0 119.0 L 143.0 118.0 L 143.0 118.0 L 143.0 118.0 L 143.0 118.0 L 143.0 118.0 L 143.0 118.0 L 143.0 118.0 L 143.0 118.0 L 143.0 118.0 L 143.0 118.0 L 143.0 118.0 L 143.0 118.0 L 143.0 119.0 L 143.0 120.0 L 142.0 121.0 L 142.0 122.0 L 142.0 123.0 L 141.0 124.0 L 141.0 125.0 L 140.0 126.0 L 140.0 128.0 L 139.0 129.0 L 139.0 130.0 L 138.0 131.0 L 138.0 132.0 L 137.0 134.0 L 137.0 135.0 L 136.0 136.0 L 136.0 137.0 L 135.0 138.0 L 134.0 139.0 L 134.0 140.0 L 133.0 142.0 L 133.0 143.0 L 132.0 144.0 L 131.0 145.0 L 130.0 147.0 L 129.0 148.0 L 129.0 149.0 L 128.0 150.0 L 127.0 151.0 L 126.0 152.0 L 126.0 153.0 L 125.0 154.0 L 124.0 155.0 L 123.0 156.0 L 122.0 157.0 L 121.0 158.0 L 120.0 159.0 L 119.0 160.0 L 119.0 161.0 L 118.0 162.0 L 117.0 163.0 L 116.0 164.0 L 116.0 165.0 L 115.0 166.0 L 114.0 167.0 L 114.0 168.0 L 114.0 169.0 L 113.0 170.0 L 113.0 171.0 L 112.0 172.0 L 112.0 173.0 L 112.0 174.0 L 111.0 175.0 L 111.0 175.0 L 110.0 176.0 L 110.0 177.0 L 109.0 178.0 L 109.0 179.0 L 108.0 180.0 L 108.0 181.0 L 107.0 182.0 L 107.0 182.0 L 107.0 183.0 L 106.0 184.0 L 106.0 185.0 L 105.0 186.0 L 105.0 187.0 L 104.0 188.0 L 103.0 189.0 L 102.0 191.0 L 101.0 192.0 L 100.0 193.0 L 99.0 194.0 L 98.0 195.0 L 97.0 196.0 L 96.0 198.0 L 94.0 198.0 L 94.0 199.0 L 93.0 200.0 L 92.0 201.0 L 91.0 202.0 L 90.0 203.0 L 89.0 204.0 L 88.0 205.0 L 87.0 206.0 L 86.0 206.0 L 84.0 207.0 L 83.0 208.0 L 81.0 209.0 L 80.0 209.0 L 78.0 210.0 L 76.0 211.0 L 75.0 212.0 L 73.0 212.0 L 72.0 213.0 L 71.0 213.0 L 70.0 213.0 " stroke="black" fill="none" stroke-width="5.0" stroke-linecap="round" stroke-linejoin="round" />
<path d="M 109.0 187.0 L 109.0 187.0 L 109.0 187.0 L 109.0 187.0 L 109.0 187.0 L 109.0 187.0 L 109.0 187.0 L 109.0 188.0 L 109.0 188.0 L 108.0 190.0 L 108.0 191.0 L 108.0 194.0 L 108.0 198.0 L 108.0 203.0 L 108.0 209.0 L 108.0 215.0 L 108.0 222.0 L 107.0 228.0 L 107.0 234.0 L 107.0 238.0 L 107.0 242.0 L 107.0 244.0 L 107.0 245.0 L 107.0 245.0 L 107.0 245.0 L 107.0 245.0 L 107.0 245.0 L 107.0 244.0 " stroke="black" fill="none" stroke-width="5.0" stroke-linecap="round" stroke-linejoin="round" />
<path d="M 110.0 186.0 L 110.0 186.0 L 110.0 186.0 L 110.0 186.0 L 110.0 185.0 L 110.0 185.0 L 110.0 185.0 L 110.0 185.0 L 110.0 184.0 L 111.0 184.0 L 111.0 184.0 L 111.0 184.0 L 111.0 184.0 L 111.0 184.0 L 112.0 184.0 L 112.0 183.0 L 112.0 183.0 L 113.0 183.0 L 113.0 183.0 L 114.0 183.0 L 114.0 183.0 L 115.0 183.0 L 116.0 183.0 L 116.0 183.0 L 117.0 183.0 L 118.0 183.0 L 119.0 183.0 L 119.0 183.0 L 120.0 183.0 L 121.0 183.0 L 122.0 183.0 L 123.0 184.0 L 123.0 184.0 L 124.0 184.0 L 125.0 184.0 L 126.0 184.0 L 127.0 184.0 L 128.0 184.0 L 128.0 185.0 L 129.0 185.0 L 130.0 185.0 L 131.0 185.0 L 132.0 185.0 L 132.0 185.0 L 133.0 185.0 L 134.0 185.0 L 134.0 185.0 L 135.0 185.0 L 136.0 185.0 L 136.0 185.0 L 137.0 185.0 L 138.0 185.0 L 139.0 185.0 L 139.0 185.0 L 140.0 185.0 L 141.0 185.0 L 142.0 185.0 L 142.0 185.0 L 143.0 185.0 L 144.0 185.0 L 144.0 185.0 L 145.0 185.0 L 146.0 185.0 L 146.0 185.0 L 147.0 185.0 L 148.0 185.0 L 148.0 185.0 L 149.0 185.0 L 149.0 185.0 L 150.0 185.0 L 150.0 185.0 L 151.0 185.0 L 152.0 185.0 L 152.0 185.0 L 153.0 185.0 L 153.0 185.0 L 154.0 185.0 L 155.0 185.0 L 155.0 185.0 L 156.0 185.0 L 157.0 185.0 L 157.0 185.0 L 158.0 185.0 L 159.0 185.0 L 160.0 185.0 L 160.0 185.0 L 161.0 185.0 L 162.0 185.0 L 163.0 185.0 L 164.0 185.0 L 165.0 185.0 L 166.0 185.0 L 167.0 185.0 L 168.0 185.0 L 169.0 185.0 L 170.0 185.0 L 171.0 185.0 L 172.0 185.0 L 173.0 185.0 L 174.0 185.0 L 175.0 184.0 L 176.0 184.0 L 176.0 184.0 L 177.0 184.0 L 178.0 184.0 L 179.0 184.0 L 180.0 184.0 L 180.0 184.0 L 181.0 183.0 L 182.0 183.0 L 182.0 183.0 L 183.0 183.0 L 184.0 183.0 L 184.0 183.0 L 185.0 183.0 L 185.0 183.0 L 186.0 183.0 L 187.0 183.0 L 187.0 183.0 L 188.0 183.0 L 188.0 183.0 L 189.0 183.0 L 189.0 183.0 L 190.0 182.0 L 190.0 182.0 L 191.0 182.0 L 191.0 182.0 L 192.0 182.0 L 192.0 182.0 L 193.0 182.0 L 193.0 182.0 L 193.0 182.0 L 194.0 182.0 L 194.0 182.0 L 194.0 182.0 L 194.0 182.0 L 195.0 182.0 L 195.0 182.0 L 195.0 182.0 L 196.0 182.0 L 196.0 182.0 L 196.0 182.0 L 197.0 182.0 L 197.0 182.0 L 197.0 182.0 L 198.0 182.0 L 198.0 182.0 L 198.0 182.0 L 198.0 182.0 L 199.0 182.0 L 199.0 182.0 L 200.0 182.0 L 200.0 182.0 L 200.0 182.0 L 201.0 182.0 L 201.0 182.0 L 201.0 182.0 L 202.0 182.0 L 202.0 182.0 L 203.0 182.0 L 203.0 182.0 L 204.0 182.0 L 204.0 182.0 L 204.0 182.0 L 205.0 182.0 L 205.0 182.0 L 206.0 182.0 L 207.0 182.0 L 207.0 182.0 L 208.0 182.0 L 208.0 182.0 L 209.0 182.0 L 209.0 182.0 L 210.0 182.0 L 210.0 182.0 L 211.0 182.0 L 211.0 182.0 L 212.0 182.0 L 212.0 182.0 L 212.0 182.0 L 213.0 182.0 L 213.0 182.0 L 214.0 182.0 L 214.0 182.0 L 214.0 182.0 L 215.0 182.0 L 215.0 182.0 L 215.0 182.0 L 215.0 182.0 L 216.0 182.0 L 216.0 182.0 L 216.0 183.0 L 216.0 183.0 L 216.0 183.0 L 216.0 184.0 L 216.0 184.0 L 216.0 185.0 L 216.0 186.0 L 216.0 188.0 L 216.0 189.0 L 216.0 191.0 L 216.0 192.0 L 215.0 194.0 L 215.0 196.0 L 215.0 198.0 L 214.0 200.0 L 214.0 201.0 L 214.0 203.0 L 214.0 205.0 L 214.0 207.0 L 214.0 208.0 L 213.0 210.0 L 213.0 211.0 L 213.0 213.0 L 213.0 214.0 L 213.0 215.0 L 213.0 216.0 L 213.0 218.0 L 213.0 219.0 L 213.0 220.0 L 213.0 221.0 L 213.0 222.0 L 213.0 224.0 L 213.0 225.0 L 213.0 226.0 L 213.0 228.0 L 213.0 229.0 L 213.0 230.0 L 213.0 231.0 L 213.0 233.0 L 213.0 234.0 L 213.0 234.0 L 213.0 236.0 L 213.0 236.0 L 213.0 237.0 L 213.0 237.0 L 213.0 238.0 L 213.0 239.0 L 213.0 239.0 L 213.0 239.0 L 213.0 240.0 L 213.0 240.0 L 213.0 240.0 L 213.0 241.0 L 213.0 241.0 L 212.0 241.0 L 212.0 241.0 L 212.0 241.0 L 212.0 241.0 L 212.0 241.0 " stroke="black" fill="none" stroke-width="5.0" stroke-linecap="round" stroke-linejoin="round" />
<path d="M 111.0 246.0 L 111.0 246.0 L 111.0 246.0 L 111.0 246.0 L 111.0 246.0 L 111.0 246.0 L 111.0 246.0 L 111.0 246.0 L 111.0 246.0 L 111.0 246.0 L 111.0 245.0 L 111.0 245.0 L 111.0 245.0 L 112.0 245.0 L 113.0 245.0 L 114.0 244.0 L 115.0 244.0 L 116.0 244.0 L 118.0 244.0 L 120.0 243.0 L 121.0 243.0 L 123.0 243.0 L 125.0 243.0 L 127.0 243.0 L 129.0 242.0 L 130.0 242.0 L 132.0 242.0 L 134.0 242.0 L 135.0 242.0 L 137.0 242.0 L 138.0 242.0 L 139.0 242.0 L 140.0 242.0 L 141.0 242.0 L 142.0 242.0 L 143.0 242.0 L 144.0 242.0 L 145.0 242.0 L 145.0 242.0 L 146.0 242.0 L 147.0 242.0 L 147.0 242.0 L 148.0 242.0 L 149.0 242.0 L 150.0 241.0 L 150.0 241.0 L 151.0 241.0 L 151.0 241.0 L 152.0 241.0 L 153.0 241.0 L 153.0 241.0 L 154.0 241.0 L 154.0 241.0 L 155.0 241.0 L 156.0 241.0 L 157.0 241.0 L 158.0 241.0 L 158.0 241.0 L 159.0 240.0 L 160.0 240.0 L 161.0 240.0 L 162.0 240.0 L 163.0 240.0 L 164.0 240.0 L 164.0 240.0 L 165.0 240.0 L 166.0 240.0 L 167.0 240.0 L 168.0 240.0 L 169.0 240.0 L 171.0 240.0 L 172.0 240.0 L 173.0 240.0 L 174.0 240.0 L 176.0 240.0 L 177.0 240.0 L 178.0 240.0 L 180.0 240.0 L 181.0 240.0 L 183.0 240.0 L 184.0 240.0 L 185.0 240.0 L 186.0 240.0 L 187.0 241.0 L 189.0 241.0 L 189.0 241.0 L 191.0 241.0 L 191.0 241.0 L 192.0 241.0 L 193.0 241.0 L 194.0 241.0 L 195.0 241.0 L 195.0 241.0 L 196.0 241.0 L 197.0 241.0 L 197.0 241.0 L 198.0 241.0 L 198.0 241.0 L 199.0 241.0 L 200.0 241.0 L 200.0 241.0 L 201.0 241.0 L 202.0 241.0 L 203.0 241.0 L 204.0 241.0 L 204.0 241.0 L 205.0 241.0 L 206.0 241.0 L 207.0 241.0 L 208.0 241.0 L 209.0 241.0 L 210.0 241.0 L 210.0 242.0 L 211.0 242.0 L 211.0 242.0 L 212.0 242.0 L 212.0 242.0 L 212.0 242.0 L 212.0 242.0 L 212.0 242.0 L 212.0 242.0 " stroke="black" fill="none" stroke-width="5.0" stroke-linecap="round" stroke-linejoin="round" />
</svg>