<svg xmlns="http://www.w3.org/2000/svg" width="300" height="300" viewBox="0 0 300 300">
<path d="M 110.0 68.0 L 110.0 68.0 L 109.0 68.0 L 109.0 68.0 L 109.0 67.0 L 109.0 67.0 L 108.0 68.0 L 108.0 69.0 L 108.0 73.0 L 108.0 77.0 L 108.0 79.0 L 108.0 87.0 L 108.0 94.0 L 108.0 101.0 L 108.0 107.0 L 108.0 111.0 L 108.0 114.0 L 108.0 115.0 " stroke="black" fill="none" stroke-width="5.0" stroke-linecap="round" stroke-linejoin="round" />
<path d="M 74.0 96.0 L 73.0 96.0 L 72.0 96.0 L 71.0 95.0 L 71.0 95.0 L 70.0 95.0 L 70.0 95.0 L 70.0 95.0 L 71.0 94.0 L 73.0 94.0 L 77.0 94.0 L 83.0 94.0 L 90.0 94.0 L 97.0 94.0 L 105.0 94.0 L 114.0 93.0 L 122.0 92.0 L 132.0 91.0 " stroke="black" fill="none" stroke-width="5.0" stroke-linecap="round" stroke-linejoin="round" />
<path d="M 168.0 90.0 L 168.0 90.0 L 166.0 90.0 L 165.0 90.0 L 164.0 90.0 L 162.0 90.0 L 161.0 90.0 L 160.0 90.0 L 160.0 90.0 L 160.0 90.0 L 160.0 89.0 L 160.0 89.0 L 163.0 89.0 L 166.0 89.0 L 170.0 89.0 L 175.0 89.0 L 181.0 89.0 L 186.0 90.0 L 192.0 90.0 L 198.0 91.0 L 203.0 91.0 L 209.0 91.0 L 215.0 92.0 L 220.0 92.0 L 225.0 92.0 L 229.0 92.0 L 231.0 92.0 L 232.0 92.0 " stroke="black" fill="none" stroke-width="5.0" stroke-linecap="round" stroke-linejoin="round" />
<path d="M 195.0 73.0 L 195.0 73.0 L 194.0 72.0 L 194.0 72.0 L 193.0 72.0 L 193.0 73.0 L 193.0 75.0 L 193.0 79.0 L 193.0 83.0 L 193.0 89.0 L 194.0 97.0 L 194.0 104.0 L 194.0 112.0 L 194.0 119.0 " stroke="black" fill="none" stroke-width="5.0" stroke-linecap="round" stroke-linejoin="round" />
<path d="M 159.0 113.0 L 159.0 113.0 L 158.0 113.0 L 157.0 113.0 L 156.0 113.0 L 155.0 113.0 L 154.0 114.0 L 153.0 115.0 L 152.0 117.0 L 150.0 120.0 L 148.0 124.0 L 145.0 129.0 L 140.0 136.0 L 133.0 142.0 L 124.0 149.0 L 114.0 156.0 L 107.0 161.0 L 100.0 166.0 L 91.0 172.0 L 84.0 176.0 L 77.0 180.0 L 74.0 182.0 " stroke="black" fill="none" stroke-width="5.0" stroke-linecap="round" stroke-linejoin="round" />
<path d="M 151.0 127.0 L 151.0 127.0 L 150.0 127.0 L 149.0 126.0 L 148.0 126.0 L 148.0 126.0 L 147.0 125.0 L 147.0 125.0 L 147.0 125.0 L 147.0 126.0 L 148.0 127.0 L 150.0 128.0 L 152.0 130.0 L 155.0 132.0 L 160.0 135.0 L 165.0 138.0 L 172.0 141.0 L 180.0 144.0 L 189.0 147.0 L 196.0 149.0 L 202.0 151.0 L 208.0 153.0 L 212.0 155.0 L 216.0 158.0 " stroke="black" fill="none" stroke-width="5.0" stroke-linecap="round" stroke-linejoin="round" />
<path d="M 103.0 187.0 L 103.0 187.0 L 101.0 187.0 L 99.0 187.0 L 98.0 187.0 L 97.0 187.0 L 96.0 188.0 L 96.0 188.0 L 96.0 189.0 L 98.0 189.0 L 102.0 189.0 L 107.0 189.0 L 115.0 189.0 L 125.0 189.0 L 137.0 189.0 L 147.0 189.0 L 157.0 189.0 L 168.0 189.0 L 178.0 189.0 L 187.0 189.0 L 195.0 189.0 L 200.0 188.0 L 204.0 187.0 " stroke="black" fill="none" stroke-width="5.0" stroke-linecap="round" stroke-linejoin="round" />
<path d="M 152.0 161.0 L 152.0 161.0 L 151.0 161.0 L 150.0 161.0 L 150.0 161.0 L 149.0 161.0 L 149.0 163.0 L 149.0 167.0 L 149.0 172.0 L 150.0 180.0 L 151.0 189.0 L 152.0 200.0 L 152.0 212.0 L 152.0 224.0 L 152.0 236.0 L 151.0 247.0 L 150.0 254.0 L 149.0 258.0 L 148.0 262.0 L 148.0 263.0 L 148.0 263.0 " stroke="black" fill="none" stroke-width="5.0" stroke-linecap="round" stroke-linejoin="round" />
<path d="M 123.0 203.0 L 122.0 204.0 L 121.0 206.0 L 119.0 207.0 L 117.0 210.0 L 114.0 213.0 L 111.0 217.0 L 107.0 222.0 L 102.0 228.0 L 97.0 233.0 L 91.0 238.0 L 84.0 242.0 L 79.0 244.0 L 77.0 245.0 L 76.0 245.0 " stroke="black" fill="none" stroke-width="5.0" stroke-linecap="round" stroke-linejoin="round" />
<path d="M 190.0 211.0 L 189.0 211.0 L 188.0 210.0 L 187.0 210.0 L 187.0 210.0 L 187.0 210.0 L 187.0 210.0 L 188.0 210.0 L 190.0 212.0 L 193.0 214.0 L 196.0 218.0 L 201.0 222.0 L 207.0 227.0 L 214.0 232.0 L 221.0 236.0 L 229.0 240.0 L 235.0 242.0 L 239.0 243.0 L 243.0 244.0 " stroke="black" fill="none" stroke-width="5.0" stroke-linecap="round" stroke-linejoin="round" />
</svg>