<svg xmlns="http://www.w3.org/2000/svg" width="300" height="300" viewBox="0 0 300 300">
<path d="M 107.0 72.0 L 107.0 72.0 L 106.0 72.0 L 105.0 72.0 L 105.0 71.0 L 105.0 71.0 L 105.0 71.0 L 105.0 72.0 L 105.0 73.0 L 105.0 74.0 L 106.0 76.0 L 107.0 79.0 L 107.0 82.0 L 108.0 86.0 L 108.0 91.0 L 109.0 96.0 L 109.0 102.0 L 109.0 104.0 " stroke="black" fill="none" stroke-width="5.0" stroke-linecap="round" stroke-linejoin="round" />
<path d="M 70.0 89.0 L 70.0 89.0 L 70.0 89.0 L 70.0 89.0 L 69.0 89.0 L 69.0 89.0 L 69.0 89.0 L 69.0 89.0 L 68.0 90.0 L 68.0 90.0 L 68.0 90.0 L 68.0 90.0 L 68.0 90.0 L 68.0 90.0 L 69.0 90.0 L 70.0 90.0 L 72.0 91.0 L 74.0 91.0 L 77.0 91.0 L 80.0 91.0 L 84.0 91.0 L 89.0 91.0 L 93.0 91.0 L 97.0 90.0 L 102.0 90.0 L 105.0 89.0 L 109.0 89.0 L 112.0 89.0 L 115.0 89.0 L 117.0 89.0 L 120.0 89.0 L 121.0 89.0 L 123.0 89.0 L 125.0 89.0 L 127.0 89.0 L 128.0 89.0 " stroke="black" fill="none" stroke-width="5.0" stroke-linecap="round" stroke-linejoin="round" />
<path d="M 154.0 91.0 L 154.0 91.0 L 154.0 91.0 L 154.0 91.0 L 154.0 90.0 L 154.0 90.0 L 154.0 90.0 L 154.0 89.0 L 154.0 89.0 L 154.0 89.0 L 154.0 89.0 L 154.0 89.0 L 154.0 89.0 L 154.0 89.0 L 155.0 89.0 L 155.0 89.0 L 155.0 89.0 L 156.0 89.0 L 156.0 89.0 L 157.0 90.0 L 158.0 90.0 L 159.0 91.0 L 160.0 91.0 L 161.0 91.0 L 162.0 91.0 L 163.0 92.0 L 164.0 92.0 L 165.0 92.0 L 166.0 92.0 L 167.0 92.0 L 168.0 92.0 L 169.0 92.0 L 170.0 92.0 L 171.0 92.0 L 172.0 92.0 L 173.0 92.0 L 175.0 92.0 L 176.0 92.0 L 177.0 92.0 L 178.0 92.0 L 179.0 92.0 L 180.0 92.0 L 181.0 92.0 L 182.0 92.0 L 184.0 92.0 L 185.0 91.0 L 186.0 91.0 L 187.0 91.0 L 188.0 91.0 L 189.0 91.0 L 190.0 91.0 L 191.0 91.0 L 191.0 91.0 L 192.0 91.0 L 193.0 91.0 L 194.0 91.0 L 195.0 91.0 L 196.0 91.0 L 196.0 91.0 L 197.0 91.0 L 198.0 91.0 L 199.0 91.0 L 200.0 91.0 L 200.0 91.0 L 202.0 91.0 L 203.0 91.0 L 204.0 91.0 L 205.0 92.0 L 207.0 92.0 L 209.0 92.0 L 211.0 92.0 L 213.0 92.0 L 215.0 92.0 L 218.0 92.0 L 220.0 93.0 L 221.0 93.0 L 223.0 93.0 L 225.0 93.0 L 226.0 93.0 L 227.0 93.0 L 228.0 93.0 L 229.0 93.0 L 230.0 93.0 L 230.0 93.0 " stroke="black" fill="none" stroke-width="5.0" stroke-linecap="round" stroke-linejoin="round" />
<path d="M 195.0 72.0 L 195.0 72.0 L 195.0 72.0 L 195.0 72.0 L 195.0 72.0 L 195.0 72.0 L 195.0 73.0 L 195.0 74.0 L 195.0 76.0 L 195.0 78.0 L 195.0 81.0 L 195.0 85.0 L 195.0 89.0 L 194.0 93.0 L 194.0 97.0 L 193.0 100.0 L 193.0 103.0 L 193.0 106.0 L 192.0 107.0 L 192.0 108.0 " stroke="black" fill="none" stroke-width="5.0" stroke-linecap="round" stroke-linejoin="round" />
<path d="M 102.0 118.0 L 102.0 118.0 L 102.0 118.0 L 102.0 118.0 L 102.0 118.0 L 102.0 118.0 L 102.0 118.0 L 102.0 118.0 L 102.0 118.0 L 102.0 118.0 L 102.0 118.0 L 102.0 118.0 L 102.0 118.0 L 102.0 118.0 L 102.0 118.0 L 101.0 119.0 L 101.0 119.0 L 101.0 120.0 L 101.0 122.0 L 100.0 123.0 L 99.0 125.0 L 99.0 128.0 L 98.0 130.0 L 97.0 133.0 L 96.0 135.0 L 95.0 138.0 L 93.0 141.0 L 92.0 144.0 L 90.0 146.0 L 88.0 149.0 L 86.0 151.0 L 84.0 153.0 L 81.0 155.0 L 79.0 156.0 L 76.0 158.0 L 74.0 160.0 L 71.0 161.0 L 70.0 163.0 L 68.0 165.0 L 66.0 166.0 " stroke="black" fill="none" stroke-width="5.0" stroke-linecap="round" stroke-linejoin="round" />
<path d="M 100.0 131.0 L 100.0 131.0 L 100.0 131.0 L 100.0 131.0 L 99.0 131.0 L 99.0 131.0 L 98.0 131.0 L 98.0 131.0 L 98.0 131.0 L 97.0 131.0 L 97.0 131.0 L 97.0 131.0 L 97.0 131.0 L 97.0 131.0 L 97.0 131.0 L 97.0 131.0 L 98.0 131.0 L 98.0 131.0 L 98.0 131.0 L 99.0 131.0 L 99.0 131.0 L 100.0 131.0 L 100.0 131.0 L 101.0 131.0 L 101.0 131.0 L 102.0 131.0 L 102.0 131.0 L 103.0 131.0 L 103.0 131.0 L 104.0 131.0 L 104.0 131.0 L 105.0 131.0 L 105.0 131.0 L 106.0 131.0 L 107.0 131.0 L 107.0 131.0 L 108.0 131.0 L 108.0 131.0 L 108.0 131.0 L 109.0 131.0 L 110.0 131.0 L 110.0 131.0 L 111.0 131.0 L 111.0 131.0 L 112.0 131.0 L 112.0 131.0 L 113.0 131.0 L 114.0 131.0 L 114.0 131.0 L 115.0 131.0 L 116.0 131.0 L 117.0 131.0 L 118.0 131.0 L 119.0 131.0 L 120.0 131.0 L 122.0 131.0 L 124.0 131.0 L 125.0 131.0 L 127.0 131.0 L 129.0 131.0 L 131.0 131.0 L 133.0 131.0 L 135.0 131.0 L 136.0 131.0 L 138.0 131.0 L 139.0 131.0 L 140.0 130.0 L 141.0 130.0 L 142.0 130.0 L 143.0 130.0 L 144.0 130.0 L 145.0 130.0 L 146.0 130.0 L 147.0 130.0 L 148.0 130.0 L 148.0 130.0 L 149.0 130.0 L 150.0 130.0 L 150.0 130.0 L 151.0 130.0 L 151.0 130.0 L 152.0 130.0 L 152.0 130.0 L 152.0 130.0 L 153.0 130.0 L 153.0 130.0 L 154.0 130.0 L 155.0 130.0 L 155.0 130.0 L 156.0 130.0 L 156.0 130.0 L 157.0 130.0 L 158.0 130.0 L 158.0 130.0 L 159.0 130.0 L 160.0 130.0 L 161.0 130.0 L 162.0 130.0 L 163.0 130.0 L 164.0 130.0 L 165.0 130.0 L 166.0 130.0 L 167.0 130.0 L 168.0 129.0 L 169.0 129.0 L 170.0 129.0 L 171.0 129.0 L 172.0 129.0 L 173.0 129.0 L 174.0 129.0 L 175.0 129.0 L 177.0 129.0 L 178.0 129.0 L 179.0 129.0 L 180.0 129.0 L 181.0 129.0 L 182.0 129.0 L 183.0 129.0 L 184.0 129.0 L 185.0 129.0 L 185.0 129.0 L 186.0 129.0 L 187.0 129.0 L 188.0 129.0 L 188.0 129.0 L 189.0 129.0 L 189.0 129.0 L 190.0 129.0 L 190.0 129.0 L 191.0 129.0 L 191.0 129.0 L 192.0 129.0 L 192.0 129.0 L 193.0 129.0 L 193.0 129.0 L 193.0 129.0 L 194.0 129.0 L 194.0 129.0 L 195.0 129.0 L 196.0 129.0 L 196.0 129.0 L 197.0 129.0 L 198.0 129.0 L 198.0 129.0 L 199.0 129.0 L 200.0 129.0 L 201.0 129.0 L 202.0 129.0 L 204.0 129.0 L 205.0 129.0 L 206.0 129.0 L 207.0 129.0 L 208.0 129.0 L 209.0 129.0 L 210.0 129.0 L 211.0 129.0 L 212.0 129.0 L 213.0 129.0 L 214.0 129.0 L 215.0 129.0 L 216.0 129.0 L 216.0 129.0 L 217.0 129.0 L 218.0 129.0 L 219.0 129.0 L 220.0 129.0 L 220.0 129.0 L 221.0 129.0 L 221.0 129.0 L 222.0 129.0 L 222.0 129.0 L 223.0 129.0 L 223.0 129.0 L 224.0 129.0 L 225.0 129.0 L 225.0 129.0 L 225.0 129.0 L 226.0 129.0 L 226.0 129.0 L 226.0 129.0 L 226.0 129.0 L 227.0 130.0 L 227.0 130.0 L 227.0 130.0 L 227.0 130.0 L 227.0 131.0 L 227.0 132.0 L 227.0 132.0 L 227.0 134.0 L 227.0 135.0 L 227.0 137.0 L 227.0 139.0 L 227.0 142.0 L 226.0 144.0 L 226.0 146.0 L 226.0 148.0 L 226.0 150.0 L 225.0 152.0 L 225.0 154.0 L 225.0 156.0 L 224.0 157.0 L 224.0 159.0 L 224.0 161.0 L 224.0 162.0 L 223.0 164.0 L 223.0 165.0 L 223.0 167.0 L 223.0 169.0 L 223.0 170.0 L 222.0 171.0 L 222.0 173.0 L 222.0 174.0 L 221.0 176.0 L 221.0 177.0 L 220.0 179.0 L 220.0 181.0 L 220.0 182.0 L 219.0 184.0 L 219.0 186.0 L 219.0 188.0 L 219.0 189.0 L 218.0 191.0 L 218.0 193.0 L 218.0 194.0 L 218.0 196.0 L 217.0 198.0 L 217.0 199.0 L 217.0 201.0 L 216.0 203.0 L 216.0 204.0 L 216.0 206.0 L 216.0 208.0 L 216.0 209.0 L 215.0 211.0 L 215.0 213.0 L 215.0 215.0 L 215.0 217.0 L 215.0 219.0 L 214.0 221.0 L 214.0 223.0 L 214.0 226.0 L 214.0 227.0 L 214.0 229.0 L 213.0 231.0 L 213.0 233.0 L 213.0 235.0 L 213.0 237.0 L 212.0 238.0 L 212.0 240.0 L 212.0 241.0 L 212.0 242.0 L 212.0 243.0 L 212.0 244.0 L 211.0 245.0 L 211.0 246.0 L 211.0 247.0 L 211.0 248.0 L 210.0 249.0 L 210.0 250.0 L 210.0 250.0 L 210.0 251.0 L 209.0 252.0 L 209.0 252.0 L 209.0 253.0 L 209.0 253.0 L 208.0 254.0 L 208.0 254.0 L 208.0 255.0 L 208.0 256.0 L 207.0 256.0 L 207.0 257.0 L 207.0 257.0 L 207.0 257.0 L 206.0 257.0 L 206.0 258.0 L 206.0 258.0 L 205.0 258.0 L 205.0 258.0 L 204.0 258.0 L 203.0 258.0 L 202.0 257.0 L 201.0 257.0 L 200.0 256.0 L 198.0 256.0 L 197.0 255.0 L 195.0 254.0 L 193.0 254.0 L 190.0 253.0 L 187.0 252.0 L 184.0 251.0 L 180.0 250.0 L 177.0 249.0 " stroke="black" fill="none" stroke-width="5.0" stroke-linecap="round" stroke-linejoin="round" />
<path d="M 101.0 154.0 L 101.0 154.0 L 101.0 154.0 L 101.0 154.0 L 101.0 154.0 L 101.0 154.0 L 102.0 155.0 L 102.0 155.0 L 104.0 157.0 L 105.0 159.0 L 107.0 162.0 L 108.0 166.0 L 110.0 169.0 L 111.0 173.0 L 113.0 176.0 L 114.0 177.0 " stroke="black" fill="none" stroke-width="5.0" stroke-linecap="round" stroke-linejoin="round" />
<path d="M 186.0 146.0 L 186.0 146.0 L 186.0 146.0 L 185.0 147.0 L 185.0 147.0 L 185.0 148.0 L 184.0 149.0 L 184.0 150.0 L 183.0 152.0 L 182.0 153.0 L 181.0 155.0 L 180.0 157.0 L 178.0 160.0 L 176.0 162.0 L 173.0 165.0 L 169.0 168.0 L 165.0 171.0 L 160.0 173.0 L 159.0 174.0 " stroke="black" fill="none" stroke-width="5.0" stroke-linecap="round" stroke-linejoin="round" />
<path d="M 77.0 190.0 L 77.0 190.0 L 77.0 190.0 L 77.0 190.0 L 76.0 190.0 L 76.0 190.0 L 76.0 190.0 L 76.0 190.0 L 76.0 190.0 L 76.0 190.0 L 76.0 190.0 L 76.0 190.0 L 76.0 190.0 L 76.0 190.0 L 76.0 190.0 L 76.0 190.0 L 76.0 190.0 L 76.0 190.0 L 76.0 190.0 L 76.0 190.0 L 76.0 190.0 L 76.0 190.0 L 76.0 190.0 L 76.0 190.0 L 76.0 190.0 L 76.0 190.0 L 76.0 190.0 L 76.0 190.0 L 76.0 190.0 L 77.0 190.0 L 77.0 190.0 L 77.0 190.0 L 78.0 190.0 L 78.0 190.0 L 78.0 190.0 L 79.0 190.0 L 79.0 190.0 L 79.0 190.0 L 80.0 190.0 L 80.0 190.0 L 81.0 190.0 L 81.0 190.0 L 82.0 190.0 L 82.0 190.0 L 83.0 190.0 L 83.0 190.0 L 84.0 190.0 L 85.0 190.0 L 85.0 190.0 L 86.0 190.0 L 87.0 190.0 L 87.0 190.0 L 88.0 190.0 L 89.0 190.0 L 90.0 190.0 L 90.0 190.0 L 91.0 190.0 L 92.0 190.0 L 92.0 190.0 L 93.0 190.0 L 94.0 190.0 L 94.0 190.0 L 95.0 190.0 L 96.0 190.0 L 96.0 190.0 L 97.0 190.0 L 98.0 190.0 L 98.0 190.0 L 99.0 190.0 L 100.0 190.0 L 100.0 190.0 L 101.0 189.0 L 101.0 189.0 L 102.0 189.0 L 102.0 189.0 L 103.0 189.0 L 103.0 189.0 L 104.0 189.0 L 104.0 189.0 L 105.0 189.0 L 105.0 189.0 L 106.0 189.0 L 106.0 189.0 L 106.0 189.0 L 107.0 189.0 L 107.0 189.0 L 108.0 189.0 L 108.0 189.0 L 108.0 189.0 L 109.0 189.0 L 109.0 189.0 L 109.0 189.0 L 110.0 189.0 L 110.0 189.0 L 110.0 189.0 L 111.0 189.0 L 111.0 189.0 L 112.0 189.0 L 112.0 189.0 L 112.0 189.0 L 113.0 189.0 L 113.0 189.0 L 114.0 189.0 L 114.0 189.0 L 115.0 189.0 L 116.0 189.0 L 116.0 189.0 L 117.0 189.0 L 118.0 189.0 L 118.0 189.0 L 119.0 189.0 L 120.0 189.0 L 120.0 189.0 L 121.0 189.0 L 122.0 189.0 L 122.0 189.0 L 123.0 189.0 L 124.0 189.0 L 125.0 189.0 L 125.0 189.0 L 126.0 189.0 L 127.0 189.0 L 127.0 189.0 L 128.0 189.0 L 129.0 189.0 L 130.0 189.0 L 130.0 189.0 L 131.0 189.0 L 132.0 189.0 L 132.0 189.0 L 133.0 189.0 L 133.0 189.0 L 134.0 189.0 L 135.0 190.0 L 135.0 190.0 L 136.0 190.0 L 136.0 190.0 L 137.0 190.0 L 138.0 190.0 L 138.0 190.0 L 139.0 190.0 L 139.0 190.0 L 140.0 190.0 L 140.0 190.0 L 141.0 190.0 L 141.0 190.0 L 142.0 190.0 L 142.0 190.0 L 143.0 190.0 L 143.0 190.0 L 144.0 190.0 L 144.0 190.0 L 144.0 190.0 L 145.0 190.0 L 145.0 190.0 L 146.0 190.0 L 146.0 190.0 L 146.0 190.0 L 147.0 190.0 L 147.0 190.0 L 148.0 190.0 L 148.0 190.0 L 148.0 190.0 L 149.0 190.0 L 149.0 190.0 L 149.0 190.0 L 150.0 190.0 L 150.0 190.0 L 150.0 190.0 L 151.0 190.0 L 151.0 190.0 L 151.0 190.0 L 151.0 190.0 L 152.0 190.0 L 152.0 190.0 L 152.0 190.0 L 153.0 190.0 L 153.0 190.0 L 153.0 190.0 L 153.0 190.0 L 154.0 190.0 L 154.0 190.0 L 154.0 190.0 L 155.0 190.0 L 155.0 190.0 L 155.0 190.0 L 156.0 190.0 L 156.0 190.0 L 157.0 190.0 L 157.0 190.0 L 157.0 190.0 L 158.0 190.0 L 158.0 190.0 L 159.0 190.0 L 159.0 190.0 L 160.0 190.0 L 160.0 190.0 L 161.0 190.0 L 161.0 190.0 L 162.0 190.0 L 162.0 190.0 L 163.0 190.0 L 163.0 190.0 L 164.0 190.0 L 164.0 190.0 L 165.0 190.0 L 165.0 190.0 L 166.0 190.0 L 166.0 190.0 L 167.0 191.0 L 167.0 191.0 L 168.0 191.0 L 168.0 191.0 L 168.0 191.0 L 169.0 191.0 L 169.0 191.0 L 170.0 191.0 L 170.0 191.0 L 171.0 191.0 L 171.0 191.0 L 172.0 191.0 L 172.0 191.0 L 173.0 191.0 L 174.0 191.0 L 174.0 191.0 L 175.0 191.0 L 176.0 191.0 L 176.0 191.0 L 177.0 191.0 L 178.0 191.0 L 178.0 191.0 L 179.0 191.0 L 179.0 191.0 L 180.0 191.0 L 180.0 191.0 L 181.0 191.0 L 182.0 191.0 L 182.0 191.0 L 183.0 191.0 L 183.0 191.0 L 184.0 191.0 L 185.0 191.0 L 185.0 191.0 L 186.0 192.0 L 187.0 192.0 L 187.0 192.0 L 188.0 192.0 L 189.0 192.0 L 189.0 192.0 L 190.0 192.0 L 191.0 192.0 L 191.0 192.0 L 192.0 192.0 L 193.0 192.0 L 194.0 192.0 L 195.0 192.0 L 195.0 192.0 L 196.0 192.0 L 197.0 192.0 L 198.0 191.0 L 198.0 191.0 L 199.0 191.0 L 200.0 191.0 L 200.0 191.0 L 201.0 191.0 L 201.0 191.0 " stroke="black" fill="none" stroke-width="5.0" stroke-linecap="round" stroke-linejoin="round" />
<path d="M 140.0 153.0 L 140.0 153.0 L 140.0 154.0 L 140.0 154.0 L 140.0 154.0 L 140.0 155.0 L 140.0 155.0 L 140.0 156.0 L 140.0 157.0 L 140.0 158.0 L 140.0 160.0 L 140.0 162.0 L 140.0 165.0 L 140.0 168.0 L 140.0 172.0 L 140.0 176.0 L 140.0 180.0 L 140.0 185.0 L 139.0 189.0 L 139.0 192.0 L 139.0 196.0 L 139.0 199.0 L 139.0 202.0 L 139.0 205.0 L 138.0 207.0 L 138.0 210.0 L 138.0 214.0 L 138.0 216.0 L 138.0 219.0 L 138.0 223.0 L 138.0 226.0 L 138.0 229.0 L 138.0 232.0 L 138.0 235.0 L 138.0 238.0 L 138.0 241.0 L 138.0 243.0 L 138.0 245.0 L 138.0 247.0 L 138.0 248.0 L 138.0 248.0 L 138.0 249.0 L 138.0 249.0 " stroke="black" fill="none" stroke-width="5.0" stroke-linecap="round" stroke-linejoin="round" />
<path d="M 112.0 205.0 L 112.0 205.0 L 112.0 205.0 L 112.0 205.0 L 112.0 206.0 L 112.0 206.0 L 112.0 206.0 L 112.0 207.0 L 112.0 208.0 L 111.0 209.0 L 110.0 211.0 L 108.0 213.0 L 106.0 217.0 L 103.0 221.0 L 100.0 226.0 L 96.0 231.0 L 92.0 237.0 L 88.0 241.0 L 84.0 244.0 L 81.0 247.0 L 79.0 248.0 L 79.0 248.0 " stroke="black" fill="none" stroke-width="5.0" stroke-linecap="round" stroke-linejoin="round" />
<path d="M 161.0 211.0 L 161.0 211.0 L 161.0 210.0 L 161.0 210.0 L 161.0 209.0 L 161.0 209.0 L 161.0 209.0 L 161.0 208.0 L 162.0 208.0 L 163.0 208.0 L 164.0 209.0 L 165.0 211.0 L 167.0 213.0 L 169.0 215.0 L 173.0 218.0 L 176.0 221.0 L 180.0 223.0 L 184.0 226.0 L 187.0 228.0 L 189.0 230.0 L 191.0 232.0 L 192.0 233.0 L 193.0 234.0 " stroke="black" fill="none" stroke-width="5.0" stroke-linecap="round" stroke-linejoin="round" />
</svg>