<svg xmlns="http://www.w3.org/2000/svg" width="300" height="300" viewBox="0 0 300 300">
<path d="M 109.0 78.0 L 109.0 78.0 L 109.0 77.0 L 109.0 77.0 L 109.0 76.0 L 109.0 76.0 L 109.0 76.0 L 109.0 75.0 L 109.0 75.0 L 109.0 75.0 L 109.0 75.0 L 109.0 75.0 L 109.0 76.0 L 110.0 79.0 L 110.0 83.0 L 110.0 88.0 L 109.0 94.0 L 108.0 101.0 L 107.0 106.0 L 107.0 109.0 " stroke="black" fill="none" stroke-width="5.0" stroke-linecap="round" stroke-linejoin="round" />
<path d="M 74.0 86.0 L 74.0 86.0 L 74.0 87.0 L 73.0 87.0 L 71.0 87.0 L 70.0 87.0 L 69.0 87.0 L 69.0 88.0 L 68.0 88.0 L 68.0 88.0 L 68.0 88.0 L 69.0 88.0 L 71.0 88.0 L 75.0 88.0 L 80.0 88.0 L 87.0 88.0 L 96.0 88.0 L 105.0 88.0 L 114.0 88.0 L 133.0 88.0 L 141.0 87.0 L 146.0 87.0 L 149.0 87.0 L 150.0 88.0 L 150.0 88.0 " stroke="black" fill="none" stroke-width="5.0" stroke-linecap="round" stroke-linejoin="round" />
<path d="M 169.0 91.0 L 169.0 91.0 L 168.0 91.0 L 166.0 91.0 L 164.0 91.0 L 162.0 91.0 L 161.0 91.0 L 159.0 91.0 L 158.0 90.0 L 158.0 90.0 L 158.0 90.0 L 158.0 90.0 L 159.0 90.0 L 162.0 90.0 L 165.0 89.0 L 169.0 89.0 L 174.0 89.0 L 179.0 89.0 L 185.0 89.0 L 191.0 89.0 L 198.0 88.0 L 205.0 88.0 L 213.0 87.0 L 220.0 87.0 L 226.0 87.0 L 230.0 87.0 L 233.0 87.0 L 234.0 87.0 L 234.0 87.0 " stroke="black" fill="none" stroke-width="5.0" stroke-linecap="round" stroke-linejoin="round" />
<path d="M 196.0 73.0 L 196.0 73.0 L 196.0 73.0 L 196.0 73.0 L 196.0 73.0 L 195.0 73.0 L 195.0 74.0 L 195.0 76.0 L 194.0 81.0 L 193.0 87.0 L 192.0 95.0 L 191.0 103.0 L 190.0 110.0 L 190.0 114.0 " stroke="black" fill="none" stroke-width="5.0" stroke-linecap="round" stroke-linejoin="round" />
<path d="M 93.0 127.0 L 93.0 126.0 L 93.0 125.0 L 93.0 123.0 L 93.0 122.0 L 93.0 121.0 L 93.0 121.0 L 92.0 120.0 L 92.0 120.0 L 92.0 120.0 L 92.0 120.0 L 92.0 122.0 L 92.0 125.0 L 92.0 130.0 L 92.0 136.0 L 93.0 144.0 L 93.0 151.0 L 94.0 159.0 L 94.0 166.0 L 95.0 171.0 L 96.0 174.0 L 97.0 175.0 " stroke="black" fill="none" stroke-width="5.0" stroke-linecap="round" stroke-linejoin="round" />
<path d="M 99.0 121.0 L 99.0 121.0 L 98.0 121.0 L 97.0 120.0 L 96.0 120.0 L 96.0 120.0 L 95.0 120.0 L 94.0 120.0 L 94.0 120.0 L 93.0 120.0 L 93.0 120.0 L 93.0 120.0 L 93.0 120.0 L 94.0 120.0 L 95.0 120.0 L 97.0 120.0 L 98.0 120.0 L 100.0 120.0 L 102.0 120.0 L 105.0 120.0 L 107.0 120.0 L 110.0 120.0 L 113.0 120.0 L 117.0 119.0 L 121.0 119.0 L 126.0 119.0 L 131.0 118.0 L 135.0 118.0 L 139.0 118.0 L 143.0 118.0 L 146.0 118.0 L 148.0 118.0 L 150.0 118.0 L 152.0 118.0 L 153.0 118.0 L 155.0 118.0 L 157.0 118.0 L 159.0 118.0 L 160.0 118.0 L 162.0 119.0 L 164.0 119.0 L 166.0 119.0 L 168.0 119.0 L 170.0 119.0 L 172.0 119.0 L 174.0 119.0 L 176.0 119.0 L 178.0 119.0 L 179.0 119.0 L 181.0 119.0 L 183.0 119.0 L 184.0 119.0 L 186.0 119.0 L 187.0 119.0 L 189.0 119.0 L 190.0 119.0 L 191.0 119.0 L 192.0 120.0 L 193.0 120.0 L 194.0 120.0 L 195.0 120.0 L 196.0 120.0 L 196.0 120.0 L 197.0 120.0 L 198.0 120.0 L 199.0 120.0 L 199.0 120.0 L 200.0 121.0 L 201.0 121.0 L 202.0 121.0 L 203.0 121.0 L 204.0 121.0 L 205.0 121.0 L 205.0 122.0 L 206.0 122.0 L 207.0 122.0 L 207.0 122.0 L 208.0 122.0 L 208.0 122.0 L 209.0 123.0 L 209.0 123.0 L 210.0 123.0 L 210.0 123.0 L 210.0 123.0 L 210.0 124.0 L 210.0 124.0 L 210.0 125.0 L 210.0 126.0 L 210.0 127.0 L 210.0 128.0 L 210.0 130.0 L 210.0 134.0 L 210.0 138.0 L 209.0 144.0 L 208.0 150.0 L 208.0 157.0 L 207.0 164.0 L 207.0 170.0 L 206.0 174.0 L 206.0 177.0 L 205.0 179.0 L 205.0 180.0 L 204.0 182.0 L 202.0 182.0 L 202.0 183.0 " stroke="black" fill="none" stroke-width="5.0" stroke-linecap="round" stroke-linejoin="round" />
<path d="M 108.0 154.0 L 107.0 154.0 L 107.0 155.0 L 106.0 155.0 L 105.0 156.0 L 103.0 156.0 L 102.0 157.0 L 102.0 157.0 L 101.0 157.0 L 101.0 157.0 L 101.0 157.0 L 101.0 157.0 L 102.0 157.0 L 104.0 156.0 L 106.0 156.0 L 109.0 156.0 L 113.0 156.0 L 119.0 157.0 L 128.0 157.0 L 140.0 157.0 L 151.0 157.0 L 163.0 157.0 L 175.0 156.0 L 185.0 154.0 L 193.0 154.0 L 198.0 153.0 L 201.0 153.0 L 203.0 153.0 L 205.0 154.0 L 206.0 155.0 L 206.0 156.0 L 206.0 156.0 L 206.0 157.0 L 204.0 158.0 " stroke="black" fill="none" stroke-width="5.0" stroke-linecap="round" stroke-linejoin="round" />
<path d="M 106.0 179.0 L 106.0 179.0 L 105.0 179.0 L 105.0 180.0 L 104.0 180.0 L 103.0 180.0 L 103.0 181.0 L 102.0 181.0 L 102.0 182.0 L 101.0 182.0 L 101.0 182.0 L 101.0 182.0 L 102.0 183.0 L 104.0 183.0 L 108.0 183.0 L 112.0 184.0 L 119.0 184.0 L 129.0 185.0 L 140.0 185.0 L 150.0 185.0 L 160.0 186.0 L 170.0 186.0 L 181.0 186.0 L 189.0 186.0 L 194.0 185.0 L 197.0 185.0 L 198.0 186.0 L 198.0 187.0 L 198.0 188.0 L 197.0 190.0 L 196.0 190.0 " stroke="black" fill="none" stroke-width="5.0" stroke-linecap="round" stroke-linejoin="round" />
<path d="M 69.0 214.0 L 69.0 214.0 L 69.0 214.0 L 69.0 214.0 L 68.0 215.0 L 68.0 215.0 L 68.0 215.0 L 67.0 215.0 L 67.0 215.0 L 67.0 215.0 L 68.0 215.0 L 69.0 215.0 L 72.0 215.0 L 75.0 215.0 L 80.0 215.0 L 87.0 215.0 L 95.0 215.0 L 104.0 215.0 L 114.0 216.0 L 126.0 216.0 L 141.0 216.0 L 153.0 216.0 L 163.0 216.0 L 174.0 215.0 L 184.0 214.0 L 192.0 213.0 L 198.0 213.0 L 201.0 213.0 L 204.0 213.0 L 208.0 214.0 L 212.0 215.0 L 215.0 216.0 L 219.0 216.0 L 222.0 217.0 L 224.0 217.0 L 226.0 217.0 L 227.0 216.0 L 227.0 216.0 L 227.0 216.0 L 226.0 216.0 L 223.0 216.0 " stroke="black" fill="none" stroke-width="5.0" stroke-linecap="round" stroke-linejoin="round" />
<path d="M 151.0 193.0 L 151.0 193.0 L 152.0 193.0 L 152.0 193.0 L 152.0 193.0 L 152.0 193.0 L 152.0 193.0 L 152.0 194.0 L 152.0 196.0 L 152.0 199.0 L 152.0 202.0 L 151.0 207.0 L 151.0 214.0 L 150.0 224.0 L 149.0 234.0 L 149.0 245.0 L 149.0 255.0 L 149.0 263.0 L 149.0 271.0 L 149.0 276.0 L 150.0 277.0 L 150.0 277.0 " stroke="black" fill="none" stroke-width="5.0" stroke-linecap="round" stroke-linejoin="round" />
</svg>