<svg xmlns="http://www.w3.org/2000/svg" width="300" height="300" viewBox="0 0 300 300">
<path d="M 72.0 87.0 L 72.0 87.0 L 71.0 87.0 L 71.0 87.0 L 70.0 87.0 L 70.0 87.0 L 70.0 87.0 L 70.0 87.0 L 70.0 87.0 L 71.0 87.0 L 72.0 87.0 L 75.0 87.0 L 78.0 87.0 L 83.0 87.0 L 88.0 87.0 L 94.0 87.0 L 100.0 87.0 L 105.0 87.0 L 111.0 87.0 L 116.0 87.0 L 121.0 87.0 L 125.0 87.0 L 130.0 87.0 L 133.0 87.0 L 135.0 87.0 " stroke="black" fill="none" stroke-width="5.0" stroke-linecap="round" stroke-linejoin="round" />
<path d="M 109.0 75.0 L 109.0 75.0 L 109.0 75.0 L 109.0 74.0 L 109.0 74.0 L 109.0 74.0 L 109.0 74.0 L 109.0 74.0 L 109.0 75.0 L 109.0 77.0 L 109.0 81.0 L 109.0 86.0 L 109.0 93.0 L 109.0 101.0 L 109.0 107.0 " stroke="black" fill="none" stroke-width="5.0" stroke-linecap="round" stroke-linejoin="round" />
<path d="M 167.0 88.0 L 167.0 88.0 L 165.0 88.0 L 164.0 87.0 L 163.0 87.0 L 162.0 87.0 L 161.0 87.0 L 161.0 88.0 L 161.0 88.0 L 161.0 88.0 L 161.0 89.0 L 162.0 89.0 L 163.0 89.0 L 166.0 89.0 L 169.0 89.0 L 173.0 89.0 L 177.0 89.0 L 181.0 89.0 L 185.0 89.0 L 190.0 89.0 L 194.0 88.0 L 199.0 88.0 L 203.0 88.0 L 208.0 88.0 L 213.0 88.0 L 218.0 89.0 L 222.0 90.0 L 224.0 90.0 " stroke="black" fill="none" stroke-width="5.0" stroke-linecap="round" stroke-linejoin="round" />
<path d="M 187.0 75.0 L 187.0 75.0 L 187.0 75.0 L 186.0 74.0 L 186.0 74.0 L 185.0 74.0 L 185.0 74.0 L 184.0 75.0 L 184.0 77.0 L 184.0 80.0 L 184.0 85.0 L 184.0 90.0 L 184.0 97.0 L 184.0 104.0 L 184.0 110.0 L 184.0 112.0 " stroke="black" fill="none" stroke-width="5.0" stroke-linecap="round" stroke-linejoin="round" />
<path d="M 68.0 125.0 L 68.0 125.0 L 68.0 125.0 L 68.0 125.0 L 68.0 125.0 L 68.0 124.0 L 68.0 124.0 L 68.0 124.0 L 68.0 124.0 L 69.0 124.0 L 69.0 124.0 L 69.0 124.0 L 69.0 124.0 L 70.0 124.0 L 70.0 124.0 L 71.0 124.0 L 72.0 124.0 L 73.0 124.0 L 74.0 125.0 L 75.0 125.0 L 77.0 125.0 L 78.0 126.0 L 80.0 126.0 L 82.0 126.0 L 84.0 127.0 L 86.0 127.0 L 88.0 127.0 L 91.0 127.0 L 93.0 127.0 L 96.0 127.0 L 98.0 127.0 L 100.0 127.0 L 103.0 127.0 L 105.0 127.0 L 106.0 127.0 L 108.0 126.0 L 109.0 126.0 L 111.0 126.0 L 112.0 126.0 L 113.0 126.0 L 115.0 126.0 L 116.0 126.0 L 118.0 125.0 L 119.0 125.0 L 121.0 125.0 L 123.0 125.0 L 124.0 125.0 L 126.0 125.0 L 127.0 125.0 L 129.0 125.0 L 130.0 125.0 L 132.0 125.0 L 134.0 126.0 L 135.0 126.0 L 137.0 126.0 L 138.0 126.0 L 140.0 126.0 L 141.0 126.0 L 142.0 126.0 L 143.0 126.0 L 144.0 126.0 L 146.0 126.0 L 147.0 126.0 L 148.0 126.0 L 149.0 126.0 L 150.0 126.0 L 150.0 126.0 L 151.0 126.0 L 152.0 126.0 L 153.0 126.0 L 153.0 126.0 L 154.0 126.0 L 155.0 126.0 L 156.0 126.0 L 157.0 126.0 L 157.0 126.0 L 158.0 126.0 L 159.0 126.0 L 160.0 126.0 L 161.0 126.0 L 162.0 126.0 L 162.0 126.0 L 164.0 126.0 L 165.0 126.0 L 166.0 126.0 L 167.0 126.0 L 168.0 127.0 L 169.0 127.0 L 171.0 127.0 L 172.0 127.0 L 173.0 127.0 L 175.0 127.0 L 176.0 127.0 L 177.0 127.0 L 178.0 127.0 L 179.0 127.0 L 180.0 127.0 L 182.0 127.0 L 183.0 127.0 L 184.0 127.0 L 185.0 127.0 L 186.0 126.0 L 187.0 126.0 L 188.0 126.0 L 189.0 126.0 L 189.0 126.0 L 190.0 126.0 L 191.0 126.0 L 192.0 125.0 L 192.0 125.0 L 193.0 125.0 L 194.0 125.0 L 194.0 125.0 L 195.0 125.0 L 196.0 125.0 L 196.0 125.0 L 197.0 125.0 L 198.0 125.0 L 199.0 125.0 L 200.0 126.0 L 201.0 126.0 L 202.0 126.0 L 203.0 126.0 L 204.0 126.0 L 205.0 126.0 L 207.0 126.0 L 208.0 126.0 L 209.0 126.0 L 210.0 126.0 L 211.0 126.0 L 212.0 126.0 L 214.0 126.0 L 215.0 126.0 L 216.0 126.0 L 218.0 126.0 L 219.0 126.0 L 220.0 126.0 L 221.0 126.0 L 223.0 126.0 L 224.0 125.0 L 225.0 125.0 L 225.0 125.0 L 226.0 125.0 L 227.0 124.0 L 227.0 124.0 L 228.0 124.0 L 228.0 124.0 " stroke="black" fill="none" stroke-width="5.0" stroke-linecap="round" stroke-linejoin="round" />
<path d="M 68.0 157.0 L 67.0 157.0 L 66.0 157.0 L 64.0 157.0 L 63.0 157.0 L 63.0 157.0 L 62.0 157.0 L 62.0 157.0 L 62.0 157.0 L 62.0 157.0 L 62.0 157.0 L 63.0 157.0 L 64.0 157.0 L 66.0 157.0 L 68.0 157.0 L 71.0 157.0 L 76.0 157.0 L 81.0 157.0 L 88.0 157.0 L 95.0 156.0 L 102.0 155.0 L 108.0 154.0 L 112.0 154.0 L 116.0 153.0 L 119.0 153.0 L 121.0 153.0 L 123.0 153.0 " stroke="black" fill="none" stroke-width="5.0" stroke-linecap="round" stroke-linejoin="round" />
<path d="M 101.0 138.0 L 101.0 138.0 L 100.0 138.0 L 100.0 138.0 L 99.0 138.0 L 99.0 138.0 L 99.0 138.0 L 99.0 139.0 L 99.0 142.0 L 99.0 145.0 L 99.0 150.0 L 99.0 155.0 L 99.0 161.0 L 99.0 166.0 L 99.0 170.0 L 99.0 175.0 " stroke="black" fill="none" stroke-width="5.0" stroke-linecap="round" stroke-linejoin="round" />
<path d="M 187.0 157.0 L 186.0 157.0 L 184.0 157.0 L 182.0 157.0 L 180.0 157.0 L 178.0 157.0 L 177.0 158.0 L 176.0 158.0 L 176.0 158.0 L 176.0 158.0 L 177.0 158.0 L 178.0 158.0 L 180.0 158.0 L 183.0 158.0 L 185.0 158.0 L 188.0 158.0 L 191.0 158.0 L 194.0 158.0 L 197.0 158.0 L 200.0 158.0 L 204.0 158.0 L 208.0 158.0 L 212.0 158.0 L 216.0 158.0 L 220.0 157.0 L 223.0 157.0 L 225.0 157.0 L 225.0 157.0 " stroke="black" fill="none" stroke-width="5.0" stroke-linecap="round" stroke-linejoin="round" />
<path d="M 201.0 143.0 L 201.0 143.0 L 200.0 143.0 L 200.0 143.0 L 199.0 143.0 L 199.0 144.0 L 199.0 146.0 L 199.0 148.0 L 199.0 151.0 L 199.0 155.0 L 199.0 160.0 L 199.0 165.0 L 199.0 170.0 L 199.0 174.0 " stroke="black" fill="none" stroke-width="5.0" stroke-linecap="round" stroke-linejoin="round" />
<path d="M 64.0 192.0 L 64.0 192.0 L 63.0 192.0 L 62.0 192.0 L 62.0 192.0 L 61.0 192.0 L 61.0 192.0 L 61.0 192.0 L 61.0 192.0 L 60.0 192.0 L 60.0 192.0 L 60.0 192.0 L 61.0 192.0 L 62.0 192.0 L 63.0 192.0 L 64.0 192.0 L 66.0 192.0 L 67.0 192.0 L 69.0 192.0 L 71.0 192.0 L 73.0 192.0 L 75.0 192.0 L 78.0 192.0 L 81.0 192.0 L 84.0 192.0 L 88.0 192.0 L 92.0 192.0 L 96.0 192.0 L 99.0 192.0 L 101.0 192.0 L 104.0 193.0 L 106.0 193.0 L 107.0 193.0 L 108.0 193.0 L 109.0 193.0 L 110.0 193.0 L 112.0 193.0 L 113.0 193.0 L 114.0 193.0 L 116.0 193.0 L 118.0 193.0 L 119.0 193.0 L 121.0 193.0 L 123.0 193.0 L 125.0 193.0 L 127.0 193.0 L 129.0 193.0 L 131.0 193.0 L 133.0 193.0 L 135.0 193.0 L 137.0 193.0 L 139.0 193.0 L 140.0 193.0 L 142.0 193.0 L 144.0 194.0 L 145.0 194.0 L 147.0 194.0 L 148.0 194.0 L 149.0 194.0 L 151.0 194.0 L 152.0 194.0 L 153.0 194.0 L 154.0 194.0 L 155.0 193.0 L 156.0 193.0 L 157.0 193.0 L 158.0 193.0 L 160.0 193.0 L 161.0 192.0 L 162.0 192.0 L 163.0 192.0 L 165.0 192.0 L 166.0 191.0 L 168.0 191.0 L 170.0 191.0 L 171.0 191.0 L 173.0 191.0 L 175.0 190.0 L 177.0 190.0 L 178.0 190.0 L 180.0 190.0 L 182.0 190.0 L 184.0 190.0 L 185.0 190.0 L 187.0 190.0 L 189.0 190.0 L 190.0 190.0 L 192.0 190.0 L 193.0 190.0 L 194.0 190.0 L 195.0 190.0 L 196.0 190.0 L 197.0 190.0 L 198.0 190.0 L 199.0 190.0 L 200.0 190.0 L 202.0 190.0 L 203.0 190.0 L 204.0 190.0 L 205.0 190.0 L 206.0 190.0 L 208.0 190.0 L 209.0 190.0 L 210.0 190.0 L 212.0 190.0 L 213.0 190.0 L 214.0 191.0 L 216.0 191.0 L 217.0 191.0 L 218.0 191.0 L 220.0 191.0 L 221.0 191.0 L 222.0 191.0 L 224.0 191.0 L 225.0 191.0 L 226.0 191.0 L 228.0 191.0 L 229.0 191.0 L 230.0 191.0 L 231.0 192.0 L 232.0 192.0 L 233.0 192.0 L 234.0 192.0 L 235.0 192.0 L 236.0 192.0 L 237.0 192.0 L 238.0 192.0 L 239.0 192.0 L 240.0 192.0 L 241.0 192.0 L 241.0 192.0 L 241.0 192.0 " stroke="black" fill="none" stroke-width="5.0" stroke-linecap="round" stroke-linejoin="round" />
<path d="M 81.0 224.0 L 80.0 224.0 L 80.0 224.0 L 80.0 224.0 L 79.0 224.0 L 79.0 224.0 L 78.0 224.0 L 78.0 224.0 L 78.0 224.0 L 78.0 224.0 L 78.0 223.0 L 78.0 223.0 L 78.0 223.0 L 79.0 223.0 L 80.0 223.0 L 81.0 223.0 L 83.0 223.0 L 85.0 223.0 L 87.0 223.0 L 89.0 224.0 L 92.0 224.0 L 94.0 224.0 L 97.0 224.0 L 99.0 224.0 L 101.0 224.0 L 104.0 224.0 L 105.0 225.0 L 107.0 225.0 L 109.0 225.0 L 110.0 226.0 L 112.0 226.0 L 114.0 226.0 L 115.0 227.0 L 117.0 227.0 L 120.0 227.0 L 122.0 227.0 L 125.0 227.0 L 129.0 227.0 L 132.0 227.0 L 135.0 227.0 L 139.0 227.0 L 142.0 227.0 L 145.0 227.0 L 148.0 227.0 L 151.0 227.0 L 153.0 227.0 L 155.0 227.0 L 158.0 227.0 L 160.0 227.0 L 164.0 227.0 L 166.0 227.0 L 170.0 227.0 L 173.0 227.0 L 177.0 227.0 L 180.0 227.0 L 183.0 227.0 L 185.0 227.0 L 188.0 227.0 L 190.0 226.0 L 192.0 225.0 L 193.0 225.0 L 195.0 225.0 L 196.0 224.0 L 197.0 224.0 L 199.0 223.0 L 200.0 223.0 L 201.0 223.0 L 203.0 222.0 L 204.0 222.0 L 206.0 222.0 L 207.0 222.0 L 209.0 222.0 L 210.0 222.0 L 212.0 222.0 L 213.0 222.0 L 215.0 222.0 L 216.0 222.0 L 217.0 222.0 L 218.0 222.0 L 219.0 222.0 L 220.0 222.0 L 220.0 221.0 " stroke="black" fill="none" stroke-width="5.0" stroke-linecap="round" stroke-linejoin="round" />
<path d="M 148.0 136.0 L 148.0 136.0 L 148.0 136.0 L 148.0 135.0 L 147.0 135.0 L 147.0 134.0 L 147.0 134.0 L 147.0 134.0 L 147.0 134.0 L 147.0 134.0 L 147.0 135.0 L 147.0 137.0 L 147.0 141.0 L 147.0 145.0 L 147.0 150.0 L 147.0 156.0 L 148.0 162.0 L 148.0 168.0 L 148.0 175.0 L 148.0 182.0 L 148.0 190.0 L 148.0 196.0 L 148.0 203.0 L 148.0 209.0 L 148.0 215.0 L 148.0 220.0 L 148.0 227.0 L 148.0 232.0 L 148.0 236.0 L 148.0 240.0 L 148.0 243.0 L 148.0 244.0 L 148.0 246.0 L 148.0 247.0 L 148.0 248.0 L 148.0 249.0 L 148.0 249.0 L 148.0 250.0 L 148.0 250.0 L 148.0 250.0 L 148.0 250.0 L 148.0 250.0 L 149.0 249.0 L 149.0 248.0 " stroke="black" fill="none" stroke-width="5.0" stroke-linecap="round" stroke-linejoin="round" />
</svg>