<svg xmlns="http://www.w3.org/2000/svg" width="300" height="300" viewBox="0 0 300 300">
<path d="M 107.0 72.0 L 107.0 72.0 L 107.0 71.0 L 107.0 70.0 L 107.0 70.0 L 107.0 70.0 L 107.0 70.0 L 107.0 70.0 L 107.0 72.0 L 107.0 75.0 L 107.0 78.0 L 107.0 83.0 L 107.0 87.0 L 107.0 91.0 L 108.0 96.0 L 108.0 100.0 L 108.0 103.0 " stroke="black" fill="none" stroke-width="5.0" stroke-linecap="round" stroke-linejoin="round" />
<path d="M 81.0 84.0 L 79.0 84.0 L 77.0 84.0 L 76.0 84.0 L 76.0 84.0 L 75.0 84.0 L 75.0 84.0 L 77.0 84.0 L 81.0 84.0 L 85.0 84.0 L 91.0 83.0 L 97.0 83.0 L 103.0 82.0 L 109.0 82.0 L 117.0 81.0 L 125.0 81.0 " stroke="black" fill="none" stroke-width="5.0" stroke-linecap="round" stroke-linejoin="round" />
<path d="M 162.0 86.0 L 161.0 86.0 L 159.0 86.0 L 158.0 85.0 L 157.0 85.0 L 157.0 85.0 L 157.0 85.0 L 157.0 85.0 L 159.0 85.0 L 163.0 85.0 L 167.0 85.0 L 174.0 86.0 L 180.0 86.0 L 187.0 86.0 L 194.0 86.0 L 200.0 86.0 L 207.0 85.0 L 214.0 85.0 L 219.0 84.0 L 223.0 83.0 " stroke="black" fill="none" stroke-width="5.0" stroke-linecap="round" stroke-linejoin="round" />
<path d="M 196.0 71.0 L 196.0 71.0 L 194.0 71.0 L 193.0 71.0 L 192.0 72.0 L 191.0 73.0 L 191.0 76.0 L 191.0 78.0 L 191.0 82.0 L 191.0 86.0 L 191.0 91.0 L 191.0 96.0 L 190.0 102.0 L 190.0 105.0 " stroke="black" fill="none" stroke-width="5.0" stroke-linecap="round" stroke-linejoin="round" />
<path d="M 101.0 127.0 L 101.0 127.0 L 100.0 127.0 L 100.0 127.0 L 99.0 127.0 L 98.0 127.0 L 98.0 127.0 L 98.0 127.0 L 98.0 127.0 L 100.0 127.0 L 102.0 127.0 L 106.0 127.0 L 111.0 127.0 L 119.0 127.0 L 130.0 127.0 L 141.0 127.0 L 152.0 127.0 L 160.0 127.0 L 167.0 126.0 L 174.0 125.0 L 179.0 124.0 L 181.0 123.0 " stroke="black" fill="none" stroke-width="5.0" stroke-linecap="round" stroke-linejoin="round" />
<path d="M 138.0 114.0 L 137.0 114.0 L 136.0 114.0 L 135.0 114.0 L 135.0 114.0 L 135.0 114.0 L 135.0 115.0 L 135.0 117.0 L 135.0 119.0 L 135.0 123.0 L 136.0 127.0 L 136.0 132.0 L 136.0 139.0 L 135.0 146.0 L 134.0 152.0 L 133.0 158.0 L 133.0 160.0 " stroke="black" fill="none" stroke-width="5.0" stroke-linecap="round" stroke-linejoin="round" />
<path d="M 65.0 162.0 L 65.0 162.0 L 65.0 162.0 L 65.0 162.0 L 65.0 162.0 L 65.0 162.0 L 65.0 162.0 L 65.0 162.0 L 67.0 162.0 L 69.0 162.0 L 73.0 162.0 L 79.0 162.0 L 85.0 162.0 L 93.0 162.0 L 101.0 162.0 L 107.0 162.0 L 114.0 161.0 L 122.0 160.0 L 129.0 159.0 L 137.0 158.0 L 145.0 158.0 L 151.0 157.0 L 156.0 157.0 L 161.0 157.0 L 167.0 157.0 L 173.0 157.0 L 181.0 157.0 L 188.0 157.0 L 194.0 157.0 L 200.0 157.0 L 205.0 157.0 L 212.0 157.0 L 220.0 156.0 L 227.0 156.0 L 233.0 156.0 L 239.0 156.0 L 242.0 156.0 L 246.0 155.0 L 250.0 155.0 L 254.0 154.0 L 258.0 154.0 L 260.0 153.0 " stroke="black" fill="none" stroke-width="5.0" stroke-linecap="round" stroke-linejoin="round" />
<path d="M 214.0 125.0 L 213.0 125.0 L 210.0 127.0 L 208.0 128.0 L 205.0 130.0 L 203.0 132.0 L 200.0 134.0 L 196.0 137.0 L 193.0 140.0 L 190.0 144.0 L 185.0 148.0 L 179.0 152.0 L 171.0 155.0 L 162.0 159.0 L 154.0 163.0 L 148.0 167.0 L 140.0 171.0 L 131.0 176.0 L 121.0 181.0 L 111.0 186.0 L 104.0 191.0 L 98.0 194.0 L 90.0 198.0 L 81.0 200.0 L 73.0 203.0 L 66.0 205.0 L 62.0 206.0 L 60.0 206.0 L 60.0 206.0 " stroke="black" fill="none" stroke-width="5.0" stroke-linecap="round" stroke-linejoin="round" />
<path d="M 118.0 183.0 L 118.0 183.0 L 117.0 183.0 L 117.0 182.0 L 116.0 182.0 L 115.0 184.0 L 115.0 187.0 L 114.0 191.0 L 113.0 196.0 L 112.0 202.0 L 112.0 210.0 L 111.0 218.0 L 110.0 226.0 L 110.0 232.0 L 109.0 237.0 L 109.0 241.0 L 108.0 243.0 L 108.0 244.0 L 108.0 244.0 L 108.0 244.0 " stroke="black" fill="none" stroke-width="5.0" stroke-linecap="round" stroke-linejoin="round" />
<path d="M 116.0 191.0 L 116.0 191.0 L 115.0 190.0 L 113.0 189.0 L 113.0 189.0 L 112.0 189.0 L 112.0 189.0 L 111.0 189.0 L 111.0 189.0 L 111.0 189.0 L 112.0 189.0 L 113.0 189.0 L 114.0 189.0 L 116.0 188.0 L 118.0 188.0 L 120.0 188.0 L 123.0 188.0 L 127.0 188.0 L 131.0 187.0 L 136.0 187.0 L 141.0 187.0 L 147.0 186.0 L 151.0 186.0 L 155.0 186.0 L 159.0 185.0 L 164.0 185.0 L 168.0 185.0 L 173.0 185.0 L 178.0 185.0 L 182.0 185.0 L 187.0 186.0 L 190.0 186.0 L 193.0 186.0 L 196.0 186.0 L 198.0 186.0 L 199.0 186.0 L 201.0 186.0 L 203.0 186.0 L 204.0 186.0 L 205.0 186.0 L 206.0 186.0 L 207.0 186.0 L 208.0 186.0 L 208.0 187.0 L 209.0 188.0 L 209.0 188.0 L 210.0 189.0 L 210.0 190.0 L 210.0 191.0 L 210.0 193.0 L 210.0 195.0 L 210.0 199.0 L 210.0 203.0 L 209.0 209.0 L 207.0 216.0 L 206.0 224.0 L 204.0 231.0 L 203.0 238.0 L 202.0 242.0 L 201.0 245.0 L 201.0 247.0 L 201.0 247.0 L 200.0 247.0 L 200.0 246.0 " stroke="black" fill="none" stroke-width="5.0" stroke-linecap="round" stroke-linejoin="round" />
<path d="M 120.0 220.0 L 117.0 220.0 L 115.0 219.0 L 113.0 218.0 L 112.0 218.0 L 112.0 218.0 L 114.0 218.0 L 117.0 217.0 L 122.0 216.0 L 130.0 216.0 L 138.0 215.0 L 146.0 214.0 L 155.0 213.0 L 164.0 213.0 L 174.0 212.0 L 185.0 211.0 L 189.0 210.0 L 197.0 209.0 L 201.0 209.0 L 203.0 209.0 " stroke="black" fill="none" stroke-width="5.0" stroke-linecap="round" stroke-linejoin="round" />
<path d="M 124.0 249.0 L 123.0 249.0 L 120.0 250.0 L 119.0 250.0 L 118.0 250.0 L 118.0 250.0 L 118.0 250.0 L 119.0 250.0 L 122.0 250.0 L 126.0 250.0 L 131.0 250.0 L 138.0 249.0 L 145.0 249.0 L 153.0 248.0 L 163.0 247.0 L 173.0 245.0 L 185.0 244.0 L 194.0 242.0 L 201.0 241.0 L 206.0 241.0 L 211.0 240.0 " stroke="black" fill="none" stroke-width="5.0" stroke-linecap="round" stroke-linejoin="round" />
</svg>