<svg xmlns="http://www.w3.org/2000/svg" width="300" height="300" viewBox="0 0 300 300">
<path d="M 106.0 68.0 L 106.0 68.0 L 105.0 68.0 L 104.0 68.0 L 103.0 68.0 L 102.0 68.0 L 102.0 68.0 L 102.0 69.0 L 102.0 70.0 L 102.0 71.0 L 103.0 74.0 L 103.0 78.0 L 104.0 83.0 L 105.0 88.0 L 105.0 93.0 L 106.0 98.0 L 106.0 102.0 L 107.0 105.0 L 107.0 105.0 " stroke="black" fill="none" stroke-width="5.0" stroke-linecap="round" stroke-linejoin="round" />
<path d="M 70.0 88.0 L 70.0 88.0 L 70.0 88.0 L 69.0 88.0 L 69.0 88.0 L 69.0 88.0 L 69.0 87.0 L 69.0 87.0 L 72.0 87.0 L 75.0 87.0 L 81.0 87.0 L 87.0 86.0 L 94.0 85.0 L 101.0 84.0 L 108.0 82.0 L 114.0 80.0 L 120.0 78.0 L 124.0 76.0 " stroke="black" fill="none" stroke-width="5.0" stroke-linecap="round" stroke-linejoin="round" />
<path d="M 166.0 88.0 L 166.0 88.0 L 164.0 88.0 L 163.0 88.0 L 162.0 89.0 L 161.0 89.0 L 161.0 89.0 L 161.0 89.0 L 163.0 89.0 L 166.0 89.0 L 170.0 89.0 L 175.0 89.0 L 180.0 89.0 L 186.0 89.0 L 191.0 89.0 L 196.0 89.0 L 202.0 89.0 L 208.0 89.0 L 213.0 89.0 L 218.0 89.0 L 223.0 89.0 L 227.0 89.0 L 228.0 89.0 L 229.0 89.0 " stroke="black" fill="none" stroke-width="5.0" stroke-linecap="round" stroke-linejoin="round" />
<path d="M 197.0 74.0 L 196.0 74.0 L 195.0 74.0 L 194.0 75.0 L 193.0 76.0 L 193.0 78.0 L 193.0 80.0 L 192.0 84.0 L 192.0 88.0 L 192.0 92.0 L 192.0 96.0 L 192.0 100.0 L 191.0 104.0 L 191.0 105.0 " stroke="black" fill="none" stroke-width="5.0" stroke-linecap="round" stroke-linejoin="round" />
<path d="M 74.0 120.0 L 74.0 120.0 L 74.0 120.0 L 74.0 119.0 L 74.0 119.0 L 74.0 119.0 L 74.0 119.0 L 74.0 118.0 L 73.0 118.0 L 73.0 118.0 L 73.0 118.0 L 73.0 118.0 L 73.0 118.0 L 73.0 118.0 L 73.0 118.0 L 73.0 118.0 L 73.0 118.0 L 73.0 118.0 L 74.0 118.0 L 74.0 118.0 L 75.0 118.0 L 76.0 118.0 L 76.0 118.0 L 77.0 118.0 L 78.0 118.0 L 78.0 118.0 L 79.0 118.0 L 80.0 119.0 L 81.0 119.0 L 82.0 119.0 L 83.0 119.0 L 84.0 119.0 L 84.0 119.0 L 85.0 120.0 L 86.0 120.0 L 87.0 120.0 L 88.0 120.0 L 88.0 120.0 L 89.0 120.0 L 90.0 120.0 L 91.0 120.0 L 92.0 120.0 L 92.0 120.0 L 93.0 121.0 L 94.0 121.0 L 95.0 121.0 L 96.0 121.0 L 96.0 121.0 L 97.0 121.0 L 98.0 121.0 L 98.0 121.0 L 99.0 121.0 L 100.0 121.0 L 101.0 121.0 L 101.0 121.0 L 102.0 121.0 L 103.0 121.0 L 103.0 121.0 L 104.0 121.0 L 105.0 121.0 L 106.0 121.0 L 106.0 121.0 L 107.0 121.0 L 107.0 121.0 L 108.0 121.0 L 108.0 121.0 L 109.0 121.0 L 109.0 121.0 L 110.0 121.0 L 110.0 121.0 L 111.0 121.0 L 112.0 121.0 L 112.0 121.0 L 113.0 121.0 L 114.0 121.0 L 115.0 121.0 L 116.0 121.0 L 117.0 121.0 L 118.0 121.0 L 119.0 121.0 L 120.0 121.0 L 121.0 120.0 L 123.0 120.0 L 125.0 120.0 L 126.0 120.0 L 128.0 120.0 L 130.0 120.0 L 131.0 119.0 L 132.0 119.0 L 134.0 119.0 L 135.0 119.0 L 136.0 119.0 L 137.0 119.0 L 138.0 119.0 L 140.0 119.0 L 141.0 119.0 L 142.0 119.0 L 143.0 119.0 L 144.0 119.0 L 145.0 119.0 L 146.0 119.0 L 147.0 118.0 L 148.0 118.0 L 150.0 118.0 L 150.0 118.0 L 151.0 118.0 L 152.0 118.0 L 153.0 118.0 L 154.0 118.0 L 155.0 118.0 L 156.0 118.0 L 156.0 118.0 L 157.0 118.0 L 158.0 118.0 L 159.0 118.0 L 160.0 118.0 L 162.0 118.0 L 163.0 118.0 L 164.0 118.0 L 165.0 118.0 L 166.0 118.0 L 167.0 118.0 L 168.0 118.0 L 169.0 118.0 L 171.0 118.0 L 172.0 118.0 L 173.0 118.0 L 174.0 118.0 L 175.0 119.0 L 176.0 119.0 L 177.0 119.0 L 178.0 119.0 L 179.0 119.0 L 180.0 119.0 L 181.0 119.0 L 182.0 119.0 L 184.0 120.0 L 185.0 120.0 L 186.0 120.0 L 187.0 120.0 L 188.0 120.0 L 189.0 120.0 L 190.0 120.0 L 191.0 120.0 L 193.0 120.0 L 194.0 120.0 L 195.0 120.0 L 196.0 120.0 L 197.0 120.0 L 199.0 120.0 L 200.0 120.0 L 202.0 120.0 L 204.0 120.0 L 206.0 120.0 L 209.0 119.0 L 211.0 119.0 L 214.0 118.0 L 217.0 118.0 L 219.0 118.0 L 222.0 117.0 L 224.0 117.0 L 226.0 117.0 " stroke="black" fill="none" stroke-width="5.0" stroke-linecap="round" stroke-linejoin="round" />
<path d="M 82.0 145.0 L 82.0 145.0 L 82.0 145.0 L 81.0 145.0 L 81.0 145.0 L 80.0 145.0 L 80.0 145.0 L 80.0 145.0 L 80.0 145.0 L 80.0 145.0 L 80.0 145.0 L 80.0 145.0 L 80.0 145.0 L 81.0 145.0 L 82.0 145.0 L 83.0 145.0 L 84.0 145.0 L 85.0 145.0 L 86.0 145.0 L 88.0 145.0 L 89.0 145.0 L 90.0 145.0 L 91.0 145.0 L 93.0 145.0 L 94.0 145.0 L 96.0 145.0 L 97.0 145.0 L 99.0 145.0 L 100.0 145.0 L 101.0 145.0 L 102.0 145.0 L 103.0 145.0 L 104.0 145.0 L 105.0 145.0 L 106.0 145.0 L 107.0 145.0 L 108.0 145.0 L 108.0 145.0 L 109.0 146.0 L 110.0 146.0 L 111.0 146.0 L 111.0 146.0 L 112.0 146.0 L 113.0 146.0 L 114.0 146.0 L 115.0 146.0 L 116.0 146.0 L 117.0 146.0 L 118.0 146.0 L 119.0 146.0 L 120.0 146.0 L 121.0 146.0 L 123.0 146.0 L 124.0 146.0 L 126.0 146.0 L 128.0 146.0 L 129.0 145.0 L 131.0 145.0 L 134.0 145.0 L 136.0 145.0 L 138.0 144.0 L 140.0 144.0 L 143.0 144.0 L 144.0 144.0 L 146.0 143.0 L 148.0 143.0 L 150.0 143.0 L 151.0 143.0 L 152.0 143.0 L 154.0 143.0 L 155.0 143.0 L 156.0 143.0 L 158.0 143.0 L 159.0 143.0 L 161.0 143.0 L 162.0 143.0 L 164.0 143.0 L 166.0 143.0 L 168.0 143.0 L 170.0 143.0 L 173.0 143.0 L 175.0 143.0 L 178.0 143.0 L 180.0 143.0 L 182.0 143.0 L 185.0 143.0 L 187.0 143.0 L 189.0 143.0 L 191.0 143.0 L 193.0 142.0 L 195.0 142.0 L 197.0 142.0 L 199.0 141.0 L 201.0 141.0 L 202.0 140.0 L 204.0 140.0 L 205.0 140.0 L 206.0 140.0 L 206.0 140.0 L 206.0 140.0 L 206.0 140.0 " stroke="black" fill="none" stroke-width="5.0" stroke-linecap="round" stroke-linejoin="round" />
<path d="M 64.0 167.0 L 64.0 167.0 L 64.0 167.0 L 64.0 167.0 L 64.0 167.0 L 64.0 167.0 L 64.0 167.0 L 63.0 167.0 L 63.0 167.0 L 63.0 167.0 L 63.0 167.0 L 63.0 167.0 L 63.0 167.0 L 63.0 167.0 L 63.0 167.0 L 64.0 167.0 L 64.0 167.0 L 65.0 167.0 L 65.0 167.0 L 66.0 167.0 L 67.0 167.0 L 68.0 167.0 L 69.0 167.0 L 70.0 167.0 L 71.0 167.0 L 72.0 167.0 L 73.0 167.0 L 74.0 167.0 L 75.0 167.0 L 77.0 167.0 L 78.0 168.0 L 79.0 168.0 L 80.0 168.0 L 81.0 168.0 L 82.0 168.0 L 83.0 168.0 L 84.0 168.0 L 85.0 168.0 L 87.0 168.0 L 88.0 168.0 L 89.0 168.0 L 90.0 168.0 L 90.0 168.0 L 91.0 168.0 L 92.0 168.0 L 93.0 168.0 L 93.0 168.0 L 94.0 168.0 L 95.0 168.0 L 96.0 168.0 L 97.0 168.0 L 98.0 168.0 L 98.0 168.0 L 99.0 168.0 L 100.0 168.0 L 101.0 168.0 L 102.0 168.0 L 102.0 168.0 L 103.0 168.0 L 104.0 168.0 L 105.0 168.0 L 105.0 169.0 L 106.0 169.0 L 107.0 169.0 L 107.0 169.0 L 108.0 169.0 L 109.0 169.0 L 109.0 169.0 L 110.0 170.0 L 111.0 170.0 L 111.0 170.0 L 112.0 170.0 L 113.0 170.0 L 113.0 170.0 L 114.0 170.0 L 115.0 170.0 L 116.0 170.0 L 117.0 170.0 L 118.0 170.0 L 118.0 170.0 L 119.0 171.0 L 120.0 171.0 L 121.0 171.0 L 123.0 171.0 L 124.0 171.0 L 125.0 171.0 L 126.0 171.0 L 127.0 171.0 L 128.0 171.0 L 129.0 171.0 L 131.0 171.0 L 132.0 171.0 L 133.0 171.0 L 135.0 171.0 L 136.0 171.0 L 138.0 171.0 L 140.0 171.0 L 141.0 170.0 L 143.0 170.0 L 145.0 170.0 L 146.0 170.0 L 148.0 170.0 L 149.0 170.0 L 150.0 169.0 L 151.0 169.0 L 152.0 169.0 L 153.0 169.0 L 154.0 169.0 L 155.0 169.0 L 156.0 169.0 L 157.0 169.0 L 158.0 169.0 L 159.0 169.0 L 160.0 169.0 L 161.0 169.0 L 162.0 169.0 L 164.0 169.0 L 165.0 169.0 L 167.0 169.0 L 169.0 170.0 L 171.0 170.0 L 173.0 170.0 L 175.0 170.0 L 177.0 170.0 L 180.0 170.0 L 182.0 170.0 L 185.0 170.0 L 188.0 170.0 L 190.0 170.0 L 193.0 170.0 L 195.0 170.0 L 198.0 170.0 L 200.0 170.0 L 202.0 170.0 L 205.0 170.0 L 207.0 170.0 L 210.0 170.0 L 212.0 170.0 L 215.0 170.0 L 217.0 169.0 L 220.0 169.0 L 222.0 169.0 L 224.0 168.0 L 226.0 168.0 L 228.0 167.0 L 229.0 166.0 L 230.0 166.0 L 230.0 166.0 L 230.0 165.0 " stroke="black" fill="none" stroke-width="5.0" stroke-linecap="round" stroke-linejoin="round" />
<path d="M 150.0 109.0 L 150.0 109.0 L 150.0 109.0 L 150.0 109.0 L 150.0 109.0 L 150.0 109.0 L 150.0 109.0 L 150.0 109.0 L 150.0 109.0 L 150.0 109.0 L 150.0 109.0 L 150.0 110.0 L 150.0 112.0 L 149.0 114.0 L 148.0 116.0 L 147.0 119.0 L 146.0 123.0 L 145.0 126.0 L 143.0 129.0 L 142.0 133.0 L 140.0 136.0 L 138.0 139.0 L 137.0 142.0 L 135.0 145.0 L 133.0 148.0 L 132.0 150.0 L 130.0 153.0 L 128.0 155.0 L 126.0 156.0 L 125.0 158.0 L 123.0 159.0 L 122.0 161.0 L 120.0 162.0 L 118.0 164.0 L 117.0 165.0 L 115.0 167.0 L 114.0 169.0 L 112.0 171.0 L 110.0 173.0 L 109.0 175.0 L 108.0 178.0 L 106.0 180.0 L 104.0 182.0 L 102.0 185.0 L 99.0 187.0 L 96.0 189.0 L 92.0 191.0 L 88.0 193.0 L 84.0 195.0 L 80.0 197.0 L 76.0 199.0 L 73.0 200.0 L 71.0 201.0 L 69.0 202.0 L 69.0 202.0 L 69.0 202.0 L 69.0 201.0 " stroke="black" fill="none" stroke-width="5.0" stroke-linecap="round" stroke-linejoin="round" />
<path d="M 196.0 171.0 L 196.0 171.0 L 195.0 171.0 L 195.0 171.0 L 194.0 171.0 L 194.0 170.0 L 194.0 170.0 L 194.0 170.0 L 194.0 170.0 L 194.0 171.0 L 194.0 172.0 L 196.0 173.0 L 197.0 175.0 L 200.0 178.0 L 202.0 180.0 L 206.0 183.0 L 210.0 186.0 L 214.0 189.0 L 219.0 192.0 L 223.0 194.0 L 227.0 196.0 L 230.0 197.0 L 232.0 198.0 L 233.0 199.0 L 233.0 200.0 L 233.0 200.0 " stroke="black" fill="none" stroke-width="5.0" stroke-linecap="round" stroke-linejoin="round" />
<path d="M 122.0 186.0 L 121.0 186.0 L 120.0 186.0 L 118.0 186.0 L 117.0 186.0 L 116.0 186.0 L 116.0 186.0 L 116.0 186.0 L 116.0 186.0 L 116.0 185.0 L 117.0 185.0 L 119.0 185.0 L 122.0 185.0 L 126.0 185.0 L 130.0 185.0 L 135.0 185.0 L 140.0 185.0 L 146.0 185.0 L 152.0 183.0 L 158.0 181.0 L 165.0 178.0 L 171.0 176.0 L 176.0 173.0 L 181.0 172.0 L 184.0 171.0 L 185.0 171.0 L 185.0 172.0 " stroke="black" fill="none" stroke-width="5.0" stroke-linecap="round" stroke-linejoin="round" />
<path d="M 102.0 213.0 L 102.0 213.0 L 101.0 213.0 L 100.0 213.0 L 100.0 213.0 L 99.0 213.0 L 99.0 214.0 L 99.0 214.0 L 99.0 214.0 L 99.0 214.0 L 101.0 214.0 L 104.0 214.0 L 107.0 214.0 L 111.0 213.0 L 117.0 213.0 L 123.0 212.0 L 130.0 211.0 L 138.0 210.0 L 145.0 210.0 L 152.0 209.0 L 158.0 209.0 L 163.0 209.0 L 169.0 209.0 L 175.0 209.0 L 180.0 209.0 L 185.0 209.0 L 189.0 209.0 L 191.0 210.0 L 193.0 211.0 L 194.0 211.0 L 195.0 211.0 L 195.0 211.0 " stroke="black" fill="none" stroke-width="5.0" stroke-linecap="round" stroke-linejoin="round" />
<path d="M 152.0 193.0 L 152.0 193.0 L 152.0 193.0 L 152.0 192.0 L 152.0 192.0 L 151.0 191.0 L 151.0 191.0 L 151.0 191.0 L 151.0 191.0 L 151.0 191.0 L 151.0 191.0 L 151.0 194.0 L 151.0 197.0 L 151.0 201.0 L 151.0 207.0 L 151.0 214.0 L 151.0 223.0 L 151.0 234.0 L 150.0 245.0 L 150.0 255.0 L 150.0 262.0 L 150.0 264.0 " stroke="black" fill="none" stroke-width="5.0" stroke-linecap="round" stroke-linejoin="round" />
<path d="M 130.0 224.0 L 130.0 224.0 L 130.0 224.0 L 129.0 225.0 L 128.0 226.0 L 126.0 227.0 L 124.0 228.0 L 121.0 230.0 L 117.0 232.0 L 113.0 235.0 L 108.0 238.0 L 104.0 241.0 L 100.0 244.0 L 95.0 247.0 L 91.0 248.0 L 88.0 249.0 L 85.0 249.0 " stroke="black" fill="none" stroke-width="5.0" stroke-linecap="round" stroke-linejoin="round" />
<path d="M 184.0 229.0 L 183.0 229.0 L 180.0 229.0 L 178.0 229.0 L 177.0 229.0 L 176.0 229.0 L 176.0 229.0 L 176.0 229.0 L 177.0 229.0 L 179.0 230.0 L 182.0 230.0 L 185.0 231.0 L 189.0 232.0 L 192.0 234.0 L 196.0 236.0 L 200.0 238.0 L 204.0 240.0 L 210.0 243.0 L 215.0 245.0 L 220.0 247.0 L 224.0 248.0 L 227.0 249.0 L 227.0 250.0 " stroke="black" fill="none" stroke-width="5.0" stroke-linecap="round" stroke-linejoin="round" />
</svg>