<svg xmlns="http://www.w3.org/2000/svg" width="300" height="300" viewBox="0 0 300 300">
<path d="M 111.0 73.0 L 111.0 73.0 L 110.0 73.0 L 110.0 73.0 L 109.0 73.0 L 109.0 73.0 L 109.0 73.0 L 109.0 73.0 L 109.0 74.0 L 109.0 77.0 L 109.0 80.0 L 109.0 84.0 L 109.0 88.0 L 109.0 93.0 L 109.0 97.0 L 110.0 101.0 " stroke="black" fill="none" stroke-width="5.0" stroke-linecap="round" stroke-linejoin="round" />
<path d="M 70.0 86.0 L 70.0 86.0 L 69.0 86.0 L 68.0 86.0 L 67.0 86.0 L 67.0 86.0 L 67.0 86.0 L 67.0 86.0 L 67.0 86.0 L 69.0 86.0 L 71.0 86.0 L 74.0 86.0 L 78.0 86.0 L 83.0 86.0 L 89.0 86.0 L 95.0 87.0 L 101.0 87.0 L 107.0 87.0 L 112.0 87.0 L 119.0 87.0 L 125.0 86.0 L 132.0 85.0 L 135.0 84.0 " stroke="black" fill="none" stroke-width="5.0" stroke-linecap="round" stroke-linejoin="round" />
<path d="M 160.0 85.0 L 160.0 85.0 L 160.0 85.0 L 160.0 85.0 L 159.0 85.0 L 159.0 85.0 L 158.0 84.0 L 158.0 84.0 L 157.0 84.0 L 157.0 84.0 L 157.0 83.0 L 157.0 83.0 L 158.0 83.0 L 158.0 83.0 L 160.0 83.0 L 161.0 83.0 L 163.0 84.0 L 165.0 84.0 L 168.0 84.0 L 172.0 84.0 L 176.0 84.0 L 181.0 84.0 L 186.0 84.0 L 190.0 84.0 L 194.0 84.0 L 198.0 84.0 L 201.0 84.0 L 205.0 84.0 L 208.0 84.0 L 212.0 84.0 L 216.0 84.0 L 220.0 84.0 L 223.0 84.0 L 226.0 84.0 L 228.0 83.0 L 229.0 83.0 L 230.0 83.0 L 231.0 83.0 L 231.0 84.0 L 231.0 84.0 L 231.0 85.0 L 231.0 85.0 " stroke="black" fill="none" stroke-width="5.0" stroke-linecap="round" stroke-linejoin="round" />
<path d="M 193.0 73.0 L 193.0 73.0 L 193.0 72.0 L 193.0 71.0 L 192.0 71.0 L 192.0 70.0 L 192.0 70.0 L 192.0 70.0 L 192.0 70.0 L 192.0 71.0 L 192.0 72.0 L 192.0 76.0 L 192.0 80.0 L 191.0 84.0 L 191.0 89.0 L 190.0 95.0 L 189.0 101.0 L 189.0 103.0 " stroke="black" fill="none" stroke-width="5.0" stroke-linecap="round" stroke-linejoin="round" />
<path d="M 103.0 112.0 L 103.0 112.0 L 102.0 112.0 L 101.0 112.0 L 101.0 112.0 L 100.0 112.0 L 100.0 113.0 L 100.0 114.0 L 100.0 115.0 L 100.0 116.0 L 101.0 117.0 L 102.0 118.0 L 104.0 119.0 L 105.0 119.0 L 107.0 120.0 " stroke="black" fill="none" stroke-width="5.0" stroke-linecap="round" stroke-linejoin="round" />
<path d="M 73.0 126.0 L 72.0 126.0 L 71.0 126.0 L 71.0 126.0 L 70.0 126.0 L 69.0 126.0 L 69.0 126.0 L 69.0 126.0 L 69.0 126.0 L 70.0 126.0 L 71.0 126.0 L 74.0 126.0 L 77.0 127.0 L 81.0 127.0 L 86.0 127.0 L 91.0 128.0 L 97.0 128.0 L 104.0 128.0 L 110.0 128.0 L 117.0 127.0 L 123.0 126.0 L 130.0 126.0 L 135.0 126.0 L 138.0 126.0 L 140.0 128.0 L 140.0 131.0 " stroke="black" fill="none" stroke-width="5.0" stroke-linecap="round" stroke-linejoin="round" />
<path d="M 91.0 134.0 L 91.0 134.0 L 89.0 134.0 L 88.0 134.0 L 87.0 134.0 L 86.0 134.0 L 86.0 134.0 L 86.0 135.0 L 86.0 136.0 L 87.0 139.0 L 88.0 141.0 L 90.0 145.0 L 92.0 148.0 L 94.0 151.0 L 96.0 154.0 L 98.0 155.0 L 99.0 156.0 " stroke="black" fill="none" stroke-width="5.0" stroke-linecap="round" stroke-linejoin="round" />
<path d="M 126.0 133.0 L 126.0 133.0 L 126.0 133.0 L 126.0 133.0 L 126.0 133.0 L 126.0 133.0 L 126.0 133.0 L 126.0 133.0 L 127.0 134.0 L 127.0 135.0 L 127.0 136.0 L 126.0 139.0 L 124.0 141.0 L 121.0 145.0 L 118.0 148.0 L 115.0 152.0 L 112.0 155.0 L 110.0 158.0 L 108.0 159.0 " stroke="black" fill="none" stroke-width="5.0" stroke-linecap="round" stroke-linejoin="round" />
<path d="M 71.0 165.0 L 69.0 165.0 L 68.0 166.0 L 66.0 166.0 L 65.0 166.0 L 64.0 167.0 L 63.0 167.0 L 63.0 167.0 L 62.0 167.0 L 62.0 167.0 L 62.0 167.0 L 63.0 167.0 L 64.0 167.0 L 65.0 166.0 L 67.0 166.0 L 69.0 166.0 L 72.0 166.0 L 76.0 166.0 L 81.0 165.0 L 87.0 165.0 L 95.0 164.0 L 102.0 163.0 L 110.0 161.0 L 116.0 160.0 L 123.0 160.0 L 130.0 159.0 L 135.0 159.0 L 139.0 159.0 L 143.0 159.0 L 145.0 159.0 L 147.0 159.0 L 148.0 160.0 " stroke="black" fill="none" stroke-width="5.0" stroke-linecap="round" stroke-linejoin="round" />
<path d="M 79.0 191.0 L 77.0 191.0 L 75.0 191.0 L 74.0 191.0 L 72.0 191.0 L 71.0 191.0 L 70.0 191.0 L 70.0 191.0 L 70.0 191.0 L 72.0 191.0 L 74.0 191.0 L 77.0 191.0 L 82.0 191.0 L 87.0 191.0 L 93.0 190.0 L 98.0 190.0 L 104.0 189.0 L 110.0 188.0 L 116.0 187.0 L 123.0 185.0 L 129.0 182.0 L 134.0 180.0 L 137.0 178.0 L 139.0 177.0 L 139.0 176.0 " stroke="black" fill="none" stroke-width="5.0" stroke-linecap="round" stroke-linejoin="round" />
<path d="M 114.0 166.0 L 113.0 166.0 L 112.0 166.0 L 110.0 166.0 L 109.0 166.0 L 109.0 167.0 L 108.0 168.0 L 108.0 169.0 L 108.0 172.0 L 108.0 175.0 L 108.0 180.0 L 108.0 186.0 L 108.0 192.0 L 108.0 198.0 L 108.0 205.0 L 109.0 213.0 L 109.0 221.0 L 109.0 230.0 L 109.0 238.0 L 109.0 244.0 L 109.0 249.0 L 109.0 252.0 L 109.0 254.0 L 109.0 255.0 L 108.0 255.0 L 108.0 255.0 L 108.0 254.0 L 107.0 252.0 " stroke="black" fill="none" stroke-width="5.0" stroke-linecap="round" stroke-linejoin="round" />
<path d="M 100.0 208.0 L 100.0 208.0 L 99.0 207.0 L 98.0 206.0 L 98.0 206.0 L 97.0 206.0 L 96.0 206.0 L 96.0 206.0 L 95.0 206.0 L 94.0 208.0 L 92.0 210.0 L 90.0 213.0 L 88.0 217.0 L 85.0 221.0 L 81.0 226.0 L 78.0 231.0 L 74.0 236.0 L 71.0 240.0 L 69.0 242.0 " stroke="black" fill="none" stroke-width="5.0" stroke-linecap="round" stroke-linejoin="round" />
<path d="M 132.0 205.0 L 132.0 205.0 L 132.0 204.0 L 131.0 204.0 L 130.0 204.0 L 130.0 203.0 L 130.0 203.0 L 130.0 203.0 L 130.0 203.0 L 132.0 204.0 L 133.0 205.0 L 136.0 207.0 L 138.0 209.0 L 140.0 211.0 L 143.0 213.0 L 145.0 215.0 L 148.0 218.0 " stroke="black" fill="none" stroke-width="5.0" stroke-linecap="round" stroke-linejoin="round" />
<path d="M 230.0 113.0 L 230.0 113.0 L 230.0 113.0 L 229.0 113.0 L 229.0 114.0 L 229.0 114.0 L 228.0 114.0 L 227.0 115.0 L 226.0 115.0 L 224.0 116.0 L 222.0 117.0 L 219.0 118.0 L 215.0 119.0 L 211.0 120.0 L 206.0 122.0 L 201.0 124.0 L 196.0 126.0 L 193.0 128.0 L 189.0 130.0 L 185.0 131.0 L 182.0 132.0 L 179.0 133.0 L 176.0 133.0 L 174.0 133.0 L 172.0 134.0 L 171.0 134.0 L 170.0 134.0 L 169.0 134.0 L 169.0 134.0 L 168.0 134.0 L 168.0 134.0 L 168.0 134.0 L 168.0 135.0 L 168.0 135.0 L 169.0 135.0 L 169.0 136.0 L 170.0 136.0 L 171.0 137.0 L 171.0 138.0 L 172.0 139.0 L 172.0 140.0 L 172.0 141.0 L 173.0 142.0 L 173.0 143.0 L 173.0 145.0 L 173.0 147.0 L 173.0 150.0 L 174.0 152.0 L 174.0 156.0 L 174.0 159.0 L 174.0 163.0 L 174.0 167.0 L 174.0 171.0 L 174.0 175.0 L 174.0 180.0 L 174.0 184.0 L 173.0 189.0 L 173.0 193.0 L 173.0 197.0 L 173.0 200.0 L 173.0 204.0 L 173.0 207.0 L 173.0 209.0 L 173.0 213.0 L 173.0 216.0 L 173.0 220.0 L 173.0 224.0 L 173.0 229.0 L 172.0 232.0 L 171.0 236.0 L 169.0 239.0 L 168.0 241.0 L 166.0 243.0 L 164.0 244.0 L 162.0 245.0 L 160.0 246.0 L 158.0 247.0 L 157.0 247.0 " stroke="black" fill="none" stroke-width="5.0" stroke-linecap="round" stroke-linejoin="round" />
<path d="M 183.0 170.0 L 183.0 170.0 L 181.0 170.0 L 179.0 170.0 L 178.0 170.0 L 178.0 170.0 L 178.0 170.0 L 178.0 170.0 L 178.0 170.0 L 180.0 170.0 L 183.0 170.0 L 186.0 170.0 L 189.0 170.0 L 192.0 169.0 L 195.0 169.0 L 198.0 168.0 L 201.0 168.0 L 204.0 168.0 L 208.0 168.0 L 212.0 168.0 L 217.0 168.0 L 222.0 168.0 L 227.0 167.0 L 231.0 167.0 L 234.0 167.0 L 237.0 166.0 L 238.0 166.0 L 240.0 166.0 L 240.0 166.0 L 240.0 166.0 L 240.0 166.0 L 240.0 166.0 L 239.0 166.0 " stroke="black" fill="none" stroke-width="5.0" stroke-linecap="round" stroke-linejoin="round" />
<path d="M 210.0 172.0 L 209.0 173.0 L 207.0 173.0 L 206.0 174.0 L 206.0 175.0 L 206.0 177.0 L 206.0 178.0 L 206.0 180.0 L 207.0 182.0 L 208.0 186.0 L 209.0 189.0 L 210.0 194.0 L 210.0 198.0 L 210.0 203.0 L 211.0 209.0 L 211.0 214.0 L 211.0 220.0 L 211.0 226.0 L 211.0 230.0 L 211.0 234.0 L 211.0 238.0 L 210.0 240.0 L 210.0 242.0 L 210.0 243.0 L 210.0 245.0 L 210.0 246.0 L 210.0 247.0 L 210.0 247.0 L 210.0 248.0 L 210.0 248.0 L 210.0 248.0 L 210.0 249.0 L 210.0 249.0 L 210.0 249.0 L 210.0 248.0 L 211.0 247.0 L 212.0 246.0 " stroke="black" fill="none" stroke-width="5.0" stroke-linecap="round" stroke-linejoin="round" />
</svg>