<svg xmlns="http://www.w3.org/2000/svg" width="300" height="300" viewBox="0 0 300 300">
<path d="M 75.0 77.0 L 75.0 77.0 L 75.0 77.0 L 74.0 77.0 L 74.0 77.0 L 73.0 77.0 L 73.0 78.0 L 73.0 80.0 L 73.0 83.0 L 73.0 87.0 L 74.0 93.0 L 75.0 99.0 L 76.0 105.0 L 77.0 110.0 L 78.0 114.0 L 79.0 114.0 " stroke="black" fill="none" stroke-width="5.0" stroke-linecap="round" stroke-linejoin="round" />
<path d="M 79.0 77.0 L 79.0 77.0 L 79.0 77.0 L 79.0 77.0 L 78.0 77.0 L 78.0 77.0 L 78.0 77.0 L 78.0 77.0 L 78.0 76.0 L 78.0 76.0 L 78.0 76.0 L 78.0 76.0 L 78.0 76.0 L 79.0 76.0 L 79.0 76.0 L 80.0 76.0 L 81.0 76.0 L 82.0 76.0 L 83.0 76.0 L 85.0 76.0 L 88.0 76.0 L 90.0 76.0 L 93.0 76.0 L 95.0 76.0 L 97.0 76.0 L 99.0 76.0 L 100.0 76.0 L 101.0 76.0 L 103.0 76.0 L 104.0 76.0 L 105.0 76.0 L 106.0 76.0 L 107.0 76.0 L 107.0 76.0 L 108.0 76.0 L 108.0 76.0 L 109.0 76.0 L 110.0 76.0 L 110.0 77.0 L 111.0 77.0 L 111.0 77.0 L 112.0 77.0 L 113.0 77.0 L 114.0 77.0 L 115.0 77.0 L 116.0 77.0 L 116.0 77.0 L 117.0 77.0 L 118.0 77.0 L 119.0 77.0 L 120.0 78.0 L 121.0 78.0 L 122.0 78.0 L 124.0 78.0 L 125.0 78.0 L 126.0 78.0 L 128.0 78.0 L 129.0 78.0 L 131.0 78.0 L 132.0 77.0 L 134.0 77.0 L 135.0 77.0 L 137.0 77.0 L 138.0 77.0 L 139.0 77.0 L 141.0 77.0 L 142.0 76.0 L 144.0 76.0 L 145.0 76.0 L 146.0 76.0 L 148.0 76.0 L 149.0 76.0 L 150.0 76.0 L 151.0 76.0 L 152.0 76.0 L 152.0 76.0 L 153.0 76.0 L 154.0 76.0 L 155.0 76.0 L 156.0 76.0 L 157.0 76.0 L 158.0 77.0 L 158.0 77.0 L 159.0 77.0 L 160.0 77.0 L 161.0 77.0 L 162.0 77.0 L 164.0 77.0 L 165.0 78.0 L 166.0 78.0 L 167.0 78.0 L 169.0 78.0 L 170.0 78.0 L 171.0 78.0 L 173.0 78.0 L 174.0 78.0 L 175.0 78.0 L 177.0 78.0 L 178.0 79.0 L 180.0 79.0 L 181.0 79.0 L 183.0 80.0 L 185.0 80.0 L 187.0 80.0 L 188.0 80.0 L 190.0 80.0 L 191.0 80.0 L 193.0 80.0 L 194.0 80.0 L 195.0 80.0 L 196.0 81.0 L 196.0 81.0 L 197.0 81.0 L 198.0 81.0 L 199.0 81.0 L 200.0 81.0 L 201.0 81.0 L 202.0 81.0 L 203.0 81.0 L 205.0 82.0 L 206.0 82.0 L 207.0 82.0 L 208.0 82.0 L 209.0 82.0 L 210.0 82.0 L 212.0 83.0 L 213.0 83.0 L 214.0 83.0 L 215.0 83.0 L 217.0 83.0 L 218.0 83.0 L 219.0 83.0 L 220.0 83.0 L 221.0 83.0 L 222.0 84.0 L 223.0 84.0 L 224.0 84.0 L 225.0 84.0 L 225.0 84.0 L 226.0 84.0 L 226.0 84.0 L 227.0 85.0 L 227.0 85.0 L 227.0 85.0 L 227.0 86.0 L 227.0 87.0 L 227.0 88.0 L 227.0 89.0 L 227.0 91.0 L 227.0 93.0 L 226.0 96.0 L 226.0 99.0 L 226.0 103.0 L 225.0 106.0 L 225.0 110.0 L 225.0 114.0 L 224.0 116.0 L 224.0 118.0 L 223.0 120.0 " stroke="black" fill="none" stroke-width="5.0" stroke-linecap="round" stroke-linejoin="round" />
<path d="M 130.0 80.0 L 130.0 80.0 L 130.0 80.0 L 130.0 80.0 L 130.0 80.0 L 130.0 80.0 L 130.0 81.0 L 130.0 83.0 L 130.0 86.0 L 130.0 91.0 L 130.0 98.0 L 131.0 105.0 L 132.0 111.0 L 133.0 116.0 L 134.0 118.0 " stroke="black" fill="none" stroke-width="5.0" stroke-linecap="round" stroke-linejoin="round" />
<path d="M 169.0 80.0 L 169.0 80.0 L 167.0 81.0 L 166.0 82.0 L 165.0 84.0 L 164.0 87.0 L 164.0 90.0 L 164.0 94.0 L 164.0 99.0 L 164.0 103.0 L 165.0 108.0 L 165.0 111.0 L 166.0 114.0 L 166.0 116.0 " stroke="black" fill="none" stroke-width="5.0" stroke-linecap="round" stroke-linejoin="round" />
<path d="M 76.0 121.0 L 76.0 121.0 L 76.0 121.0 L 76.0 121.0 L 76.0 121.0 L 76.0 121.0 L 75.0 121.0 L 75.0 121.0 L 75.0 121.0 L 75.0 121.0 L 75.0 121.0 L 75.0 121.0 L 75.0 121.0 L 75.0 121.0 L 76.0 122.0 L 76.0 122.0 L 77.0 122.0 L 78.0 122.0 L 79.0 122.0 L 81.0 123.0 L 82.0 123.0 L 84.0 123.0 L 86.0 123.0 L 87.0 123.0 L 89.0 123.0 L 91.0 124.0 L 93.0 124.0 L 95.0 124.0 L 96.0 124.0 L 98.0 124.0 L 100.0 124.0 L 102.0 124.0 L 104.0 124.0 L 105.0 124.0 L 107.0 123.0 L 108.0 123.0 L 110.0 123.0 L 112.0 123.0 L 113.0 123.0 L 115.0 123.0 L 117.0 123.0 L 119.0 123.0 L 122.0 122.0 L 125.0 122.0 L 129.0 122.0 L 132.0 121.0 L 136.0 121.0 L 139.0 121.0 L 142.0 120.0 L 144.0 120.0 L 147.0 120.0 L 148.0 120.0 L 150.0 120.0 L 151.0 120.0 L 152.0 120.0 L 154.0 120.0 L 155.0 120.0 L 157.0 120.0 L 159.0 120.0 L 161.0 120.0 L 164.0 120.0 L 166.0 120.0 L 168.0 120.0 L 171.0 120.0 L 173.0 120.0 L 175.0 120.0 L 178.0 120.0 L 181.0 120.0 L 183.0 120.0 L 185.0 120.0 L 188.0 120.0 L 190.0 120.0 L 192.0 120.0 L 194.0 120.0 L 196.0 120.0 L 199.0 120.0 L 201.0 120.0 L 204.0 120.0 L 206.0 120.0 L 209.0 119.0 L 212.0 119.0 L 214.0 119.0 L 217.0 118.0 L 219.0 118.0 L 221.0 118.0 L 222.0 118.0 L 223.0 118.0 " stroke="black" fill="none" stroke-width="5.0" stroke-linecap="round" stroke-linejoin="round" />
<path d="M 110.0 124.0 L 110.0 124.0 L 110.0 124.0 L 110.0 124.0 L 110.0 123.0 L 110.0 123.0 L 110.0 123.0 L 110.0 123.0 L 110.0 123.0 L 110.0 123.0 L 109.0 124.0 L 109.0 126.0 L 108.0 128.0 L 106.0 132.0 L 104.0 137.0 L 101.0 142.0 L 97.0 148.0 L 91.0 155.0 L 85.0 160.0 L 77.0 165.0 L 70.0 169.0 L 65.0 172.0 L 61.0 174.0 L 59.0 175.0 L 58.0 176.0 " stroke="black" fill="none" stroke-width="5.0" stroke-linecap="round" stroke-linejoin="round" />
<path d="M 102.0 145.0 L 102.0 145.0 L 101.0 145.0 L 101.0 145.0 L 100.0 145.0 L 100.0 146.0 L 100.0 146.0 L 99.0 146.0 L 99.0 146.0 L 99.0 146.0 L 99.0 146.0 L 99.0 146.0 L 100.0 147.0 L 101.0 147.0 L 102.0 147.0 L 103.0 147.0 L 105.0 147.0 L 107.0 147.0 L 108.0 147.0 L 111.0 147.0 L 113.0 146.0 L 115.0 146.0 L 118.0 146.0 L 120.0 146.0 L 123.0 146.0 L 125.0 146.0 L 128.0 146.0 L 130.0 146.0 L 132.0 146.0 L 133.0 146.0 L 135.0 146.0 L 137.0 146.0 L 138.0 146.0 L 139.0 146.0 L 140.0 146.0 L 141.0 146.0 L 141.0 146.0 L 142.0 146.0 L 143.0 147.0 L 143.0 147.0 L 144.0 147.0 L 145.0 147.0 L 146.0 147.0 L 147.0 147.0 L 148.0 147.0 L 148.0 147.0 L 149.0 147.0 L 150.0 147.0 L 151.0 147.0 L 152.0 147.0 L 153.0 147.0 L 154.0 147.0 L 155.0 147.0 L 156.0 147.0 L 158.0 147.0 L 159.0 147.0 L 160.0 147.0 L 161.0 147.0 L 163.0 147.0 L 164.0 147.0 L 165.0 147.0 L 167.0 147.0 L 168.0 147.0 L 170.0 147.0 L 172.0 146.0 L 173.0 146.0 L 175.0 146.0 L 177.0 146.0 L 178.0 146.0 L 180.0 146.0 L 181.0 146.0 L 182.0 146.0 L 183.0 146.0 L 185.0 146.0 L 185.0 146.0 L 186.0 146.0 L 187.0 146.0 L 189.0 146.0 L 189.0 146.0 L 190.0 146.0 L 191.0 146.0 L 192.0 146.0 L 193.0 146.0 L 194.0 146.0 L 194.0 146.0 L 195.0 146.0 L 196.0 146.0 L 196.0 146.0 L 197.0 146.0 L 198.0 146.0 L 199.0 146.0 L 200.0 146.0 L 201.0 146.0 L 202.0 146.0 L 203.0 146.0 L 204.0 146.0 L 205.0 146.0 L 206.0 146.0 L 207.0 146.0 L 208.0 146.0 L 209.0 146.0 L 210.0 147.0 L 211.0 147.0 L 212.0 147.0 L 213.0 147.0 L 213.0 147.0 L 214.0 147.0 L 215.0 147.0 L 216.0 147.0 L 217.0 147.0 L 218.0 147.0 L 219.0 147.0 L 219.0 147.0 L 220.0 147.0 L 221.0 148.0 L 221.0 148.0 L 222.0 148.0 L 222.0 148.0 L 222.0 148.0 L 223.0 148.0 L 223.0 149.0 L 223.0 149.0 L 223.0 149.0 L 224.0 150.0 L 224.0 151.0 L 224.0 151.0 L 224.0 152.0 L 224.0 153.0 L 224.0 154.0 L 224.0 155.0 L 224.0 156.0 L 224.0 158.0 L 223.0 160.0 L 223.0 161.0 L 222.0 163.0 L 221.0 166.0 L 220.0 168.0 L 219.0 170.0 L 218.0 172.0 L 218.0 174.0 L 217.0 176.0 L 217.0 178.0 L 217.0 179.0 L 216.0 181.0 L 216.0 183.0 L 216.0 185.0 L 216.0 186.0 L 216.0 188.0 L 216.0 190.0 L 216.0 192.0 L 215.0 194.0 L 215.0 196.0 L 215.0 198.0 L 215.0 200.0 L 215.0 201.0 L 215.0 203.0 L 215.0 204.0 L 215.0 206.0 L 215.0 207.0 L 215.0 208.0 L 215.0 210.0 L 214.0 211.0 L 214.0 212.0 L 214.0 214.0 L 214.0 215.0 L 214.0 217.0 L 214.0 218.0 L 214.0 220.0 L 214.0 222.0 L 214.0 224.0 L 213.0 226.0 L 213.0 228.0 L 213.0 230.0 L 213.0 231.0 L 213.0 233.0 L 213.0 235.0 L 213.0 237.0 L 213.0 238.0 L 212.0 240.0 L 212.0 242.0 L 212.0 244.0 L 211.0 246.0 L 211.0 247.0 L 210.0 249.0 L 210.0 250.0 L 210.0 252.0 L 209.0 254.0 L 209.0 255.0 L 209.0 256.0 L 209.0 258.0 L 209.0 259.0 L 208.0 260.0 L 208.0 260.0 L 208.0 261.0 L 208.0 262.0 L 208.0 262.0 L 207.0 262.0 L 207.0 263.0 L 207.0 263.0 L 207.0 263.0 L 206.0 263.0 L 206.0 263.0 L 205.0 263.0 L 205.0 263.0 L 204.0 263.0 L 203.0 262.0 L 201.0 261.0 L 200.0 259.0 L 198.0 258.0 L 196.0 256.0 L 194.0 253.0 L 192.0 251.0 L 190.0 249.0 " stroke="black" fill="none" stroke-width="5.0" stroke-linecap="round" stroke-linejoin="round" />
<path d="M 96.0 173.0 L 96.0 172.0 L 95.0 172.0 L 95.0 171.0 L 94.0 171.0 L 94.0 171.0 L 94.0 171.0 L 93.0 171.0 L 93.0 173.0 L 93.0 177.0 L 93.0 182.0 L 93.0 188.0 L 93.0 193.0 L 93.0 199.0 L 93.0 203.0 L 93.0 206.0 L 94.0 208.0 L 95.0 208.0 " stroke="black" fill="none" stroke-width="5.0" stroke-linecap="round" stroke-linejoin="round" />
<path d="M 96.0 174.0 L 96.0 174.0 L 96.0 174.0 L 96.0 174.0 L 95.0 174.0 L 95.0 174.0 L 95.0 174.0 L 95.0 174.0 L 95.0 175.0 L 95.0 175.0 L 95.0 175.0 L 95.0 175.0 L 95.0 175.0 L 96.0 175.0 L 97.0 175.0 L 98.0 176.0 L 99.0 176.0 L 100.0 176.0 L 101.0 176.0 L 102.0 176.0 L 103.0 177.0 L 105.0 177.0 L 106.0 177.0 L 107.0 177.0 L 109.0 177.0 L 110.0 177.0 L 112.0 177.0 L 113.0 177.0 L 115.0 177.0 L 116.0 177.0 L 118.0 177.0 L 119.0 177.0 L 120.0 177.0 L 122.0 177.0 L 123.0 177.0 L 125.0 176.0 L 127.0 176.0 L 128.0 176.0 L 130.0 176.0 L 132.0 175.0 L 134.0 175.0 L 135.0 175.0 L 137.0 175.0 L 139.0 175.0 L 140.0 175.0 L 142.0 174.0 L 144.0 174.0 L 145.0 174.0 L 147.0 174.0 L 148.0 174.0 L 150.0 174.0 L 151.0 174.0 L 152.0 174.0 L 153.0 174.0 L 154.0 174.0 L 155.0 174.0 L 156.0 174.0 L 157.0 174.0 L 158.0 174.0 L 159.0 174.0 L 160.0 174.0 L 161.0 174.0 L 163.0 175.0 L 164.0 175.0 L 166.0 175.0 L 168.0 175.0 L 169.0 175.0 L 171.0 176.0 L 173.0 176.0 L 175.0 176.0 L 177.0 176.0 L 179.0 176.0 L 180.0 176.0 L 182.0 176.0 L 183.0 176.0 L 184.0 176.0 L 185.0 176.0 L 185.0 177.0 L 186.0 177.0 L 186.0 177.0 L 186.0 178.0 L 186.0 179.0 L 186.0 180.0 L 186.0 181.0 L 186.0 183.0 L 186.0 184.0 L 186.0 186.0 L 186.0 188.0 L 185.0 191.0 L 185.0 193.0 L 185.0 195.0 L 184.0 196.0 L 184.0 198.0 L 184.0 200.0 L 183.0 202.0 L 181.0 203.0 L 179.0 205.0 " stroke="black" fill="none" stroke-width="5.0" stroke-linecap="round" stroke-linejoin="round" />
<path d="M 99.0 212.0 L 98.0 212.0 L 98.0 212.0 L 97.0 212.0 L 96.0 212.0 L 96.0 212.0 L 96.0 212.0 L 96.0 212.0 L 97.0 212.0 L 98.0 212.0 L 100.0 211.0 L 102.0 211.0 L 105.0 210.0 L 108.0 210.0 L 112.0 209.0 L 118.0 209.0 L 126.0 208.0 L 135.0 207.0 L 144.0 207.0 L 151.0 206.0 L 157.0 205.0 L 162.0 205.0 L 167.0 204.0 L 171.0 203.0 L 174.0 203.0 L 177.0 203.0 L 178.0 203.0 L 178.0 203.0 L 178.0 203.0 L 176.0 203.0 L 172.0 204.0 " stroke="black" fill="none" stroke-width="5.0" stroke-linecap="round" stroke-linejoin="round" />
<path d="M 142.0 160.0 L 142.0 160.0 L 142.0 160.0 L 142.0 160.0 L 141.0 161.0 L 141.0 162.0 L 141.0 163.0 L 141.0 166.0 L 141.0 169.0 L 141.0 173.0 L 141.0 179.0 L 141.0 186.0 L 140.0 193.0 L 139.0 200.0 L 139.0 207.0 L 138.0 214.0 L 137.0 220.0 L 137.0 225.0 L 137.0 228.0 " stroke="black" fill="none" stroke-width="5.0" stroke-linecap="round" stroke-linejoin="round" />
<path d="M 96.0 239.0 L 96.0 239.0 L 95.0 239.0 L 95.0 239.0 L 94.0 239.0 L 94.0 239.0 L 93.0 239.0 L 93.0 239.0 L 93.0 239.0 L 93.0 239.0 L 95.0 239.0 L 97.0 238.0 L 100.0 237.0 L 103.0 236.0 L 107.0 236.0 L 111.0 235.0 L 116.0 234.0 L 123.0 233.0 L 131.0 232.0 L 139.0 230.0 L 147.0 229.0 L 152.0 227.0 L 157.0 225.0 L 160.0 224.0 L 163.0 224.0 L 166.0 224.0 L 168.0 224.0 L 169.0 224.0 L 169.0 224.0 L 171.0 224.0 L 171.0 224.0 " stroke="black" fill="none" stroke-width="5.0" stroke-linecap="round" stroke-linejoin="round" />
<path d="M 169.0 211.0 L 169.0 211.0 L 168.0 211.0 L 167.0 211.0 L 166.0 211.0 L 166.0 211.0 L 165.0 211.0 L 165.0 211.0 L 165.0 211.0 L 165.0 212.0 L 165.0 213.0 L 167.0 214.0 L 169.0 217.0 L 172.0 220.0 L 175.0 223.0 L 177.0 227.0 L 180.0 231.0 L 183.0 236.0 L 185.0 239.0 L 186.0 242.0 L 187.0 243.0 L 188.0 244.0 L 188.0 244.0 " stroke="black" fill="none" stroke-width="5.0" stroke-linecap="round" stroke-linejoin="round" />
</svg>