<svg xmlns="http://www.w3.org/2000/svg" width="300" height="300" viewBox="0 0 300 300">
<path d="M 110.0 75.0 L 110.0 75.0 L 111.0 74.0 L 111.0 74.0 L 112.0 74.0 L 112.0 73.0 L 113.0 73.0 L 113.0 73.0 L 113.0 73.0 L 113.0 73.0 L 111.0 75.0 L 109.0 77.0 L 107.0 80.0 L 103.0 84.0 L 98.0 89.0 L 92.0 95.0 L 85.0 101.0 L 78.0 106.0 L 72.0 112.0 L 69.0 114.0 " stroke="black" fill="none" stroke-width="5.0" stroke-linecap="round" stroke-linejoin="round" />
<path d="M 112.0 119.0 L 112.0 119.0 L 112.0 119.0 L 112.0 119.0 L 112.0 119.0 L 112.0 119.0 L 111.0 119.0 L 111.0 120.0 L 111.0 120.0 L 110.0 121.0 L 110.0 123.0 L 109.0 125.0 L 107.0 127.0 L 105.0 131.0 L 101.0 136.0 L 95.0 141.0 L 89.0 148.0 L 82.0 154.0 L 75.0 159.0 L 69.0 165.0 L 65.0 170.0 L 62.0 174.0 L 60.0 176.0 " stroke="black" fill="none" stroke-width="5.0" stroke-linecap="round" stroke-linejoin="round" />
<path d="M 96.0 152.0 L 96.0 151.0 L 95.0 149.0 L 95.0 148.0 L 95.0 147.0 L 95.0 146.0 L 95.0 145.0 L 96.0 144.0 L 96.0 144.0 L 97.0 144.0 L 97.0 144.0 L 97.0 144.0 L 98.0 147.0 L 98.0 150.0 L 97.0 154.0 L 96.0 159.0 L 95.0 166.0 L 94.0 175.0 L 93.0 185.0 L 92.0 196.0 L 92.0 207.0 L 92.0 215.0 L 93.0 222.0 L 93.0 228.0 L 93.0 233.0 L 93.0 237.0 L 92.0 240.0 " stroke="black" fill="none" stroke-width="5.0" stroke-linecap="round" stroke-linejoin="round" />
<path d="M 147.0 89.0 L 146.0 89.0 L 145.0 89.0 L 145.0 89.0 L 144.0 89.0 L 144.0 89.0 L 144.0 89.0 L 144.0 89.0 L 145.0 89.0 L 148.0 89.0 L 151.0 88.0 L 154.0 88.0 L 159.0 88.0 L 164.0 88.0 L 172.0 87.0 L 181.0 87.0 L 191.0 87.0 L 199.0 87.0 L 207.0 87.0 L 215.0 86.0 L 223.0 85.0 L 230.0 85.0 L 235.0 84.0 L 238.0 84.0 L 239.0 85.0 L 240.0 87.0 " stroke="black" fill="none" stroke-width="5.0" stroke-linecap="round" stroke-linejoin="round" />
<path d="M 137.0 146.0 L 137.0 146.0 L 136.0 146.0 L 135.0 146.0 L 133.0 146.0 L 133.0 146.0 L 132.0 146.0 L 132.0 146.0 L 132.0 145.0 L 133.0 145.0 L 135.0 144.0 L 138.0 144.0 L 142.0 143.0 L 146.0 142.0 L 149.0 141.0 L 153.0 141.0 L 156.0 140.0 L 164.0 138.0 L 172.0 137.0 L 182.0 136.0 L 191.0 135.0 L 198.0 134.0 L 205.0 133.0 L 210.0 133.0 L 214.0 133.0 L 220.0 133.0 L 224.0 134.0 L 228.0 134.0 L 232.0 135.0 L 236.0 135.0 L 238.0 135.0 L 240.0 135.0 L 241.0 135.0 L 242.0 135.0 L 243.0 134.0 L 243.0 134.0 " stroke="black" fill="none" stroke-width="5.0" stroke-linecap="round" stroke-linejoin="round" />
<path d="M 205.0 142.0 L 205.0 142.0 L 205.0 142.0 L 204.0 142.0 L 204.0 142.0 L 204.0 142.0 L 204.0 142.0 L 204.0 142.0 L 204.0 142.0 L 204.0 143.0 L 204.0 143.0 L 204.0 144.0 L 204.0 145.0 L 204.0 146.0 L 204.0 148.0 L 205.0 150.0 L 205.0 152.0 L 205.0 155.0 L 205.0 157.0 L 205.0 160.0 L 205.0 163.0 L 205.0 166.0 L 205.0 168.0 L 205.0 171.0 L 205.0 174.0 L 205.0 177.0 L 205.0 180.0 L 205.0 184.0 L 205.0 187.0 L 205.0 191.0 L 205.0 194.0 L 205.0 197.0 L 205.0 199.0 L 205.0 201.0 L 205.0 203.0 L 205.0 205.0 L 205.0 206.0 L 205.0 207.0 L 205.0 209.0 L 205.0 211.0 L 205.0 213.0 L 205.0 215.0 L 205.0 217.0 L 205.0 219.0 L 205.0 221.0 L 204.0 223.0 L 204.0 225.0 L 204.0 227.0 L 203.0 229.0 L 203.0 231.0 L 203.0 233.0 L 203.0 234.0 L 202.0 235.0 L 202.0 236.0 L 202.0 237.0 L 202.0 239.0 L 202.0 240.0 L 201.0 241.0 L 201.0 242.0 L 201.0 243.0 L 201.0 244.0 L 201.0 245.0 L 200.0 246.0 L 200.0 247.0 L 200.0 247.0 L 200.0 248.0 L 200.0 249.0 L 199.0 250.0 L 199.0 250.0 L 199.0 251.0 L 199.0 251.0 L 199.0 252.0 L 199.0 252.0 L 198.0 252.0 L 198.0 253.0 L 198.0 253.0 L 198.0 253.0 L 198.0 254.0 L 197.0 254.0 L 197.0 254.0 L 197.0 254.0 L 196.0 254.0 L 196.0 254.0 L 195.0 254.0 L 194.0 254.0 L 193.0 254.0 L 191.0 254.0 L 189.0 254.0 L 187.0 254.0 L 184.0 254.0 L 180.0 254.0 L 176.0 253.0 L 171.0 251.0 L 166.0 250.0 L 162.0 249.0 " stroke="black" fill="none" stroke-width="5.0" stroke-linecap="round" stroke-linejoin="round" />
</svg>