<svg xmlns="http://www.w3.org/2000/svg" width="300" height="300" viewBox="0 0 300 300">
<path d="M 117.0 65.0 L 117.0 64.0 L 117.0 62.0 L 117.0 61.0 L 118.0 60.0 L 118.0 60.0 L 119.0 59.0 L 119.0 59.0 L 120.0 59.0 L 120.0 59.0 L 120.0 59.0 L 120.0 61.0 L 119.0 63.0 L 117.0 66.0 L 115.0 69.0 L 113.0 73.0 L 110.0 78.0 L 107.0 82.0 L 103.0 88.0 L 99.0 94.0 L 93.0 100.0 L 86.0 106.0 L 79.0 110.0 L 74.0 113.0 L 69.0 116.0 L 67.0 117.0 L 65.0 118.0 " stroke="black" fill="none" stroke-width="5.0" stroke-linecap="round" stroke-linejoin="round" />
<path d="M 98.0 99.0 L 98.0 99.0 L 98.0 99.0 L 98.0 98.0 L 98.0 98.0 L 99.0 98.0 L 99.0 98.0 L 99.0 99.0 L 99.0 102.0 L 99.0 107.0 L 99.0 113.0 L 99.0 120.0 L 98.0 127.0 L 97.0 136.0 L 97.0 143.0 L 97.0 149.0 " stroke="black" fill="none" stroke-width="5.0" stroke-linecap="round" stroke-linejoin="round" />
<path d="M 123.0 107.0 L 123.0 107.0 L 123.0 107.0 L 123.0 107.0 L 123.0 107.0 L 123.0 106.0 L 124.0 106.0 L 124.0 106.0 L 125.0 106.0 L 126.0 106.0 L 128.0 106.0 L 130.0 106.0 L 132.0 106.0 L 135.0 106.0 L 139.0 105.0 L 143.0 105.0 L 147.0 104.0 L 152.0 103.0 L 159.0 103.0 L 167.0 101.0 L 176.0 100.0 L 185.0 99.0 L 193.0 98.0 L 198.0 97.0 L 202.0 96.0 L 206.0 96.0 L 210.0 95.0 L 213.0 95.0 L 217.0 95.0 L 219.0 94.0 " stroke="black" fill="none" stroke-width="5.0" stroke-linecap="round" stroke-linejoin="round" />
<path d="M 159.0 77.0 L 159.0 77.0 L 159.0 76.0 L 158.0 76.0 L 158.0 75.0 L 158.0 75.0 L 158.0 75.0 L 157.0 75.0 L 157.0 75.0 L 157.0 76.0 L 158.0 78.0 L 158.0 80.0 L 159.0 82.0 L 159.0 85.0 L 160.0 88.0 L 161.0 91.0 L 161.0 94.0 L 162.0 98.0 L 164.0 102.0 L 165.0 106.0 L 166.0 109.0 L 168.0 113.0 L 170.0 116.0 L 172.0 119.0 L 174.0 122.0 L 176.0 124.0 L 178.0 126.0 L 179.0 128.0 L 181.0 130.0 L 182.0 131.0 L 184.0 133.0 L 186.0 134.0 L 187.0 136.0 L 189.0 137.0 L 190.0 138.0 L 192.0 139.0 L 193.0 141.0 L 194.0 142.0 L 196.0 143.0 L 197.0 144.0 L 199.0 145.0 L 200.0 147.0 L 202.0 148.0 L 204.0 149.0 L 206.0 150.0 L 208.0 150.0 L 210.0 151.0 L 211.0 151.0 L 213.0 151.0 L 215.0 151.0 L 217.0 151.0 L 219.0 151.0 L 221.0 151.0 L 223.0 151.0 L 225.0 151.0 L 227.0 150.0 L 228.0 150.0 L 229.0 149.0 L 230.0 147.0 L 230.0 146.0 L 231.0 144.0 L 231.0 142.0 L 231.0 138.0 L 231.0 135.0 L 230.0 130.0 " stroke="black" fill="none" stroke-width="5.0" stroke-linecap="round" stroke-linejoin="round" />
<path d="M 203.0 74.0 L 203.0 74.0 L 202.0 74.0 L 202.0 74.0 L 201.0 74.0 L 201.0 74.0 L 201.0 74.0 L 202.0 75.0 L 204.0 77.0 L 206.0 78.0 L 209.0 80.0 L 213.0 82.0 L 217.0 85.0 L 221.0 87.0 L 224.0 89.0 L 227.0 91.0 " stroke="black" fill="none" stroke-width="5.0" stroke-linecap="round" stroke-linejoin="round" />
<path d="M 144.0 151.0 L 144.0 151.0 L 143.0 150.0 L 143.0 150.0 L 142.0 150.0 L 142.0 149.0 L 142.0 149.0 L 142.0 150.0 L 143.0 151.0 L 144.0 153.0 L 146.0 156.0 L 148.0 158.0 L 149.0 160.0 L 152.0 164.0 " stroke="black" fill="none" stroke-width="5.0" stroke-linecap="round" stroke-linejoin="round" />
<path d="M 74.0 180.0 L 74.0 180.0 L 74.0 180.0 L 74.0 180.0 L 74.0 180.0 L 75.0 179.0 L 77.0 179.0 L 81.0 179.0 L 87.0 179.0 L 96.0 179.0 L 105.0 178.0 L 116.0 176.0 L 128.0 175.0 L 142.0 173.0 L 153.0 172.0 L 163.0 171.0 L 173.0 171.0 L 184.0 170.0 L 193.0 170.0 L 198.0 169.0 L 202.0 169.0 L 205.0 169.0 L 208.0 170.0 L 210.0 172.0 L 210.0 173.0 " stroke="black" fill="none" stroke-width="5.0" stroke-linecap="round" stroke-linejoin="round" />
<path d="M 150.0 175.0 L 150.0 175.0 L 150.0 175.0 L 150.0 174.0 L 149.0 174.0 L 149.0 174.0 L 148.0 174.0 L 147.0 175.0 L 145.0 177.0 L 142.0 179.0 L 139.0 183.0 L 134.0 187.0 L 127.0 192.0 L 120.0 197.0 L 113.0 203.0 L 106.0 208.0 L 100.0 212.0 L 95.0 216.0 L 89.0 219.0 L 84.0 222.0 L 80.0 223.0 L 78.0 224.0 L 78.0 224.0 " stroke="black" fill="none" stroke-width="5.0" stroke-linecap="round" stroke-linejoin="round" />
<path d="M 107.0 206.0 L 107.0 206.0 L 107.0 206.0 L 107.0 206.0 L 107.0 206.0 L 107.0 206.0 L 108.0 207.0 L 109.0 208.0 L 110.0 211.0 L 111.0 215.0 L 112.0 220.0 L 112.0 227.0 L 112.0 234.0 L 112.0 240.0 L 111.0 246.0 L 111.0 250.0 L 111.0 253.0 L 111.0 254.0 L 111.0 255.0 L 112.0 255.0 L 114.0 255.0 L 116.0 254.0 L 120.0 252.0 L 125.0 249.0 L 132.0 246.0 L 139.0 243.0 L 147.0 239.0 L 154.0 235.0 L 158.0 233.0 " stroke="black" fill="none" stroke-width="5.0" stroke-linecap="round" stroke-linejoin="round" />
<path d="M 219.0 198.0 L 218.0 198.0 L 216.0 198.0 L 214.0 199.0 L 211.0 200.0 L 207.0 201.0 L 204.0 203.0 L 199.0 206.0 L 195.0 208.0 L 191.0 211.0 L 187.0 214.0 L 183.0 216.0 L 180.0 218.0 L 177.0 218.0 " stroke="black" fill="none" stroke-width="5.0" stroke-linecap="round" stroke-linejoin="round" />
<path d="M 152.0 195.0 L 151.0 195.0 L 150.0 195.0 L 150.0 195.0 L 150.0 195.0 L 150.0 195.0 L 150.0 197.0 L 151.0 199.0 L 153.0 202.0 L 157.0 206.0 L 162.0 210.0 L 169.0 214.0 L 176.0 220.0 L 185.0 225.0 L 193.0 231.0 L 200.0 236.0 L 208.0 239.0 L 215.0 242.0 L 222.0 244.0 L 228.0 246.0 L 232.0 247.0 " stroke="black" fill="none" stroke-width="5.0" stroke-linecap="round" stroke-linejoin="round" />
</svg>