<svg xmlns="http://www.w3.org/2000/svg" width="300" height="300" viewBox="0 0 300 300">
<path d="M 146.0 75.0 L 146.0 75.0 L 146.0 75.0 L 145.0 75.0 L 145.0 75.0 L 145.0 75.0 L 144.0 76.0 L 144.0 76.0 L 144.0 76.0 L 143.0 77.0 L 143.0 78.0 L 143.0 79.0 L 142.0 81.0 L 141.0 83.0 L 139.0 86.0 L 138.0 90.0 L 136.0 94.0 L 133.0 99.0 L 131.0 104.0 L 130.0 106.0 " stroke="black" fill="none" stroke-width="5.0" stroke-linecap="round" stroke-linejoin="round" />
<path d="M 82.0 120.0 L 82.0 120.0 L 82.0 120.0 L 82.0 120.0 L 82.0 120.0 L 82.0 121.0 L 82.0 122.0 L 82.0 123.0 L 82.0 124.0 L 82.0 126.0 L 82.0 128.0 L 82.0 130.0 L 82.0 133.0 L 82.0 135.0 L 82.0 138.0 L 82.0 141.0 L 82.0 144.0 L 81.0 148.0 L 81.0 151.0 L 81.0 153.0 L 81.0 156.0 L 81.0 158.0 L 81.0 161.0 L 81.0 163.0 L 81.0 165.0 L 81.0 167.0 L 81.0 169.0 L 81.0 171.0 L 81.0 173.0 L 81.0 175.0 L 81.0 177.0 L 81.0 179.0 L 81.0 181.0 L 81.0 184.0 L 81.0 186.0 L 81.0 188.0 L 81.0 191.0 L 81.0 193.0 L 81.0 195.0 L 81.0 196.0 L 81.0 198.0 L 82.0 200.0 L 82.0 201.0 L 82.0 203.0 L 82.0 205.0 L 82.0 206.0 L 82.0 208.0 L 82.0 210.0 L 82.0 212.0 L 82.0 214.0 L 82.0 216.0 L 82.0 218.0 L 82.0 220.0 L 82.0 222.0 L 83.0 224.0 L 83.0 225.0 L 83.0 227.0 L 83.0 228.0 L 84.0 228.0 L 84.0 228.0 " stroke="black" fill="none" stroke-width="5.0" stroke-linecap="round" stroke-linejoin="round" />
<path d="M 82.0 119.0 L 82.0 119.0 L 82.0 119.0 L 82.0 119.0 L 82.0 119.0 L 81.0 119.0 L 81.0 120.0 L 81.0 120.0 L 81.0 120.0 L 81.0 120.0 L 81.0 120.0 L 80.0 120.0 L 80.0 120.0 L 80.0 120.0 L 80.0 120.0 L 80.0 120.0 L 80.0 120.0 L 80.0 121.0 L 80.0 121.0 L 81.0 121.0 L 81.0 121.0 L 82.0 121.0 L 83.0 121.0 L 83.0 121.0 L 84.0 121.0 L 85.0 121.0 L 86.0 121.0 L 87.0 121.0 L 88.0 121.0 L 89.0 121.0 L 90.0 121.0 L 91.0 121.0 L 93.0 121.0 L 94.0 121.0 L 95.0 121.0 L 96.0 121.0 L 97.0 121.0 L 99.0 121.0 L 100.0 121.0 L 101.0 121.0 L 102.0 121.0 L 103.0 121.0 L 104.0 121.0 L 104.0 121.0 L 105.0 121.0 L 106.0 121.0 L 107.0 121.0 L 107.0 121.0 L 108.0 121.0 L 108.0 121.0 L 109.0 121.0 L 110.0 121.0 L 110.0 121.0 L 111.0 121.0 L 111.0 121.0 L 112.0 121.0 L 113.0 121.0 L 113.0 121.0 L 114.0 121.0 L 114.0 121.0 L 115.0 121.0 L 116.0 121.0 L 116.0 121.0 L 117.0 121.0 L 118.0 121.0 L 119.0 121.0 L 119.0 121.0 L 120.0 121.0 L 121.0 121.0 L 122.0 121.0 L 123.0 121.0 L 124.0 121.0 L 125.0 121.0 L 126.0 121.0 L 128.0 121.0 L 128.0 121.0 L 130.0 121.0 L 131.0 120.0 L 132.0 120.0 L 132.0 120.0 L 133.0 120.0 L 134.0 120.0 L 135.0 120.0 L 136.0 120.0 L 137.0 120.0 L 137.0 120.0 L 138.0 120.0 L 139.0 120.0 L 140.0 120.0 L 141.0 120.0 L 141.0 120.0 L 142.0 120.0 L 143.0 120.0 L 144.0 120.0 L 145.0 120.0 L 146.0 120.0 L 147.0 120.0 L 148.0 120.0 L 149.0 120.0 L 149.0 120.0 L 150.0 120.0 L 151.0 120.0 L 152.0 120.0 L 153.0 120.0 L 154.0 120.0 L 155.0 120.0 L 156.0 120.0 L 157.0 121.0 L 158.0 121.0 L 159.0 121.0 L 160.0 121.0 L 162.0 121.0 L 163.0 121.0 L 164.0 121.0 L 165.0 121.0 L 167.0 121.0 L 168.0 121.0 L 169.0 121.0 L 171.0 121.0 L 173.0 121.0 L 174.0 121.0 L 176.0 121.0 L 177.0 121.0 L 179.0 121.0 L 180.0 121.0 L 182.0 121.0 L 184.0 121.0 L 185.0 121.0 L 187.0 121.0 L 188.0 121.0 L 189.0 121.0 L 190.0 121.0 L 191.0 121.0 L 193.0 121.0 L 194.0 121.0 L 194.0 121.0 L 195.0 121.0 L 196.0 121.0 L 197.0 121.0 L 197.0 121.0 L 198.0 121.0 L 199.0 121.0 L 199.0 121.0 L 200.0 121.0 L 200.0 121.0 L 201.0 121.0 L 202.0 121.0 L 203.0 121.0 L 204.0 121.0 L 205.0 121.0 L 205.0 121.0 L 206.0 121.0 L 207.0 121.0 L 208.0 121.0 L 209.0 121.0 L 209.0 121.0 L 210.0 121.0 L 211.0 121.0 L 212.0 121.0 L 212.0 121.0 L 213.0 121.0 L 214.0 121.0 L 215.0 121.0 L 215.0 121.0 L 216.0 121.0 L 217.0 121.0 L 218.0 121.0 L 218.0 121.0 L 219.0 121.0 L 219.0 121.0 L 220.0 121.0 L 221.0 121.0 L 221.0 121.0 L 221.0 121.0 L 222.0 121.0 L 222.0 121.0 L 223.0 121.0 L 223.0 122.0 L 223.0 122.0 L 223.0 122.0 L 223.0 122.0 L 223.0 123.0 L 223.0 123.0 L 223.0 124.0 L 223.0 124.0 L 223.0 125.0 L 223.0 126.0 L 223.0 127.0 L 222.0 128.0 L 222.0 130.0 L 221.0 131.0 L 221.0 133.0 L 221.0 136.0 L 220.0 138.0 L 220.0 141.0 L 220.0 143.0 L 219.0 146.0 L 219.0 148.0 L 219.0 150.0 L 219.0 152.0 L 219.0 154.0 L 219.0 155.0 L 219.0 157.0 L 219.0 158.0 L 219.0 160.0 L 219.0 162.0 L 219.0 163.0 L 219.0 164.0 L 219.0 166.0 L 220.0 167.0 L 220.0 169.0 L 220.0 170.0 L 220.0 171.0 L 220.0 172.0 L 220.0 173.0 L 220.0 174.0 L 221.0 176.0 L 221.0 177.0 L 221.0 179.0 L 221.0 180.0 L 221.0 182.0 L 221.0 183.0 L 221.0 185.0 L 221.0 186.0 L 221.0 188.0 L 221.0 189.0 L 221.0 191.0 L 221.0 192.0 L 221.0 193.0 L 221.0 195.0 L 221.0 196.0 L 221.0 197.0 L 221.0 198.0 L 221.0 200.0 L 221.0 201.0 L 221.0 202.0 L 221.0 203.0 L 221.0 205.0 L 221.0 206.0 L 221.0 207.0 L 221.0 209.0 L 221.0 211.0 L 221.0 212.0 L 221.0 214.0 L 221.0 216.0 L 221.0 217.0 L 221.0 219.0 L 221.0 221.0 L 221.0 223.0 L 221.0 225.0 L 221.0 227.0 L 220.0 229.0 L 220.0 231.0 L 220.0 232.0 L 220.0 234.0 L 220.0 235.0 L 219.0 236.0 L 219.0 236.0 L 219.0 237.0 L 219.0 237.0 L 218.0 237.0 L 218.0 236.0 L 218.0 234.0 L 217.0 232.0 " stroke="black" fill="none" stroke-width="5.0" stroke-linecap="round" stroke-linejoin="round" />
<path d="M 131.0 125.0 L 131.0 125.0 L 131.0 125.0 L 131.0 125.0 L 131.0 125.0 L 131.0 125.0 L 131.0 125.0 L 131.0 125.0 L 131.0 125.0 L 131.0 126.0 L 131.0 127.0 L 131.0 128.0 L 131.0 130.0 L 131.0 132.0 L 131.0 135.0 L 131.0 138.0 L 131.0 142.0 L 131.0 147.0 L 131.0 151.0 L 131.0 155.0 L 131.0 159.0 L 131.0 162.0 L 131.0 165.0 L 131.0 169.0 L 131.0 171.0 L 131.0 174.0 L 131.0 177.0 L 131.0 179.0 L 131.0 182.0 L 131.0 185.0 L 131.0 188.0 L 132.0 190.0 L 132.0 193.0 L 132.0 195.0 L 132.0 197.0 L 132.0 200.0 L 132.0 202.0 L 132.0 204.0 L 132.0 207.0 L 132.0 209.0 L 132.0 211.0 L 133.0 213.0 L 133.0 215.0 L 133.0 216.0 L 133.0 218.0 L 133.0 219.0 L 134.0 221.0 L 134.0 223.0 L 134.0 224.0 L 134.0 226.0 L 134.0 228.0 L 134.0 230.0 L 134.0 231.0 L 134.0 233.0 L 134.0 234.0 L 134.0 234.0 L 135.0 234.0 L 135.0 234.0 " stroke="black" fill="none" stroke-width="5.0" stroke-linecap="round" stroke-linejoin="round" />
<path d="M 174.0 126.0 L 174.0 126.0 L 174.0 126.0 L 174.0 126.0 L 174.0 126.0 L 174.0 127.0 L 174.0 127.0 L 174.0 127.0 L 174.0 127.0 L 174.0 128.0 L 174.0 128.0 L 174.0 129.0 L 174.0 130.0 L 174.0 132.0 L 174.0 133.0 L 174.0 135.0 L 174.0 137.0 L 174.0 140.0 L 174.0 143.0 L 174.0 146.0 L 174.0 149.0 L 174.0 152.0 L 174.0 155.0 L 174.0 158.0 L 174.0 161.0 L 174.0 164.0 L 174.0 166.0 L 174.0 169.0 L 174.0 171.0 L 174.0 173.0 L 174.0 175.0 L 174.0 177.0 L 174.0 179.0 L 174.0 182.0 L 174.0 184.0 L 173.0 187.0 L 173.0 189.0 L 173.0 191.0 L 173.0 194.0 L 173.0 196.0 L 172.0 198.0 L 172.0 199.0 L 172.0 201.0 L 172.0 203.0 L 171.0 205.0 L 171.0 207.0 L 171.0 208.0 L 171.0 210.0 L 171.0 212.0 L 171.0 214.0 L 171.0 216.0 L 171.0 218.0 L 171.0 219.0 L 171.0 221.0 L 171.0 224.0 L 171.0 226.0 L 171.0 228.0 L 171.0 230.0 L 171.0 231.0 L 171.0 233.0 L 171.0 234.0 L 171.0 236.0 L 171.0 237.0 L 171.0 238.0 L 171.0 238.0 L 171.0 239.0 L 171.0 240.0 L 171.0 240.0 L 171.0 240.0 L 171.0 240.0 L 171.0 240.0 L 171.0 240.0 " stroke="black" fill="none" stroke-width="5.0" stroke-linecap="round" stroke-linejoin="round" />
<path d="M 60.0 236.0 L 60.0 236.0 L 60.0 236.0 L 60.0 236.0 L 60.0 236.0 L 60.0 236.0 L 60.0 236.0 L 60.0 236.0 L 60.0 237.0 L 60.0 237.0 L 60.0 237.0 L 60.0 238.0 L 60.0 238.0 L 60.0 239.0 L 60.0 239.0 L 60.0 239.0 L 61.0 239.0 L 61.0 240.0 L 62.0 240.0 L 62.0 240.0 L 63.0 241.0 L 63.0 241.0 L 64.0 241.0 L 65.0 241.0 L 66.0 241.0 L 67.0 241.0 L 68.0 241.0 L 68.0 241.0 L 69.0 241.0 L 70.0 241.0 L 71.0 241.0 L 73.0 241.0 L 73.0 241.0 L 74.0 241.0 L 76.0 241.0 L 77.0 241.0 L 78.0 241.0 L 79.0 240.0 L 81.0 240.0 L 82.0 240.0 L 84.0 240.0 L 85.0 240.0 L 87.0 240.0 L 88.0 240.0 L 89.0 240.0 L 91.0 240.0 L 92.0 240.0 L 93.0 240.0 L 94.0 240.0 L 95.0 240.0 L 96.0 240.0 L 98.0 240.0 L 99.0 240.0 L 100.0 240.0 L 101.0 240.0 L 102.0 240.0 L 103.0 240.0 L 104.0 240.0 L 105.0 240.0 L 106.0 240.0 L 107.0 240.0 L 108.0 240.0 L 109.0 240.0 L 110.0 240.0 L 111.0 240.0 L 112.0 240.0 L 114.0 241.0 L 115.0 241.0 L 116.0 241.0 L 117.0 241.0 L 118.0 242.0 L 119.0 242.0 L 121.0 242.0 L 122.0 242.0 L 124.0 242.0 L 125.0 242.0 L 127.0 242.0 L 128.0 242.0 L 130.0 242.0 L 132.0 242.0 L 133.0 242.0 L 135.0 242.0 L 136.0 242.0 L 137.0 242.0 L 139.0 242.0 L 141.0 242.0 L 142.0 242.0 L 143.0 242.0 L 145.0 242.0 L 146.0 242.0 L 148.0 242.0 L 149.0 242.0 L 150.0 242.0 L 151.0 242.0 L 152.0 242.0 L 154.0 242.0 L 155.0 242.0 L 157.0 241.0 L 158.0 241.0 L 160.0 241.0 L 162.0 241.0 L 163.0 241.0 L 165.0 241.0 L 167.0 241.0 L 168.0 241.0 L 169.0 241.0 L 171.0 242.0 L 172.0 242.0 L 174.0 242.0 L 175.0 242.0 L 177.0 242.0 L 178.0 242.0 L 180.0 242.0 L 181.0 242.0 L 183.0 241.0 L 184.0 241.0 L 185.0 241.0 L 186.0 241.0 L 187.0 241.0 L 187.0 241.0 L 188.0 241.0 L 189.0 241.0 L 190.0 240.0 L 190.0 240.0 L 191.0 240.0 L 192.0 240.0 L 193.0 240.0 L 193.0 240.0 L 194.0 240.0 L 194.0 240.0 L 195.0 240.0 L 196.0 240.0 L 196.0 240.0 L 197.0 240.0 L 198.0 240.0 L 199.0 240.0 L 200.0 240.0 L 200.0 240.0 L 201.0 240.0 L 202.0 240.0 L 203.0 240.0 L 204.0 240.0 L 205.0 240.0 L 206.0 240.0 L 207.0 240.0 L 209.0 240.0 L 210.0 240.0 L 212.0 240.0 L 214.0 240.0 L 215.0 240.0 L 217.0 240.0 L 219.0 240.0 L 220.0 240.0 L 222.0 240.0 L 224.0 240.0 L 225.0 240.0 L 226.0 240.0 L 228.0 240.0 L 229.0 240.0 L 230.0 240.0 L 232.0 240.0 L 233.0 240.0 L 234.0 240.0 L 235.0 240.0 L 236.0 240.0 L 237.0 240.0 L 238.0 240.0 L 239.0 239.0 L 240.0 239.0 L 241.0 239.0 L 241.0 239.0 L 242.0 239.0 L 242.0 239.0 L 242.0 239.0 L 242.0 239.0 " stroke="black" fill="none" stroke-width="5.0" stroke-linecap="round" stroke-linejoin="round" />
</svg>