<svg xmlns="http://www.w3.org/2000/svg" width="300" height="300" viewBox="0 0 300 300">
<path d="M 77.0 110.0 L 77.0 110.0 L 76.0 111.0 L 75.0 112.0 L 74.0 113.0 L 73.0 113.0 L 73.0 114.0 L 73.0 114.0 L 73.0 114.0 L 73.0 114.0 L 74.0 114.0 L 76.0 113.0 L 78.0 113.0 L 81.0 112.0 L 84.0 111.0 L 88.0 111.0 L 92.0 110.0 L 96.0 110.0 L 101.0 109.0 L 105.0 109.0 L 109.0 109.0 L 113.0 109.0 L 117.0 109.0 L 121.0 109.0 L 123.0 109.0 " stroke="black" fill="none" stroke-width="5.0" stroke-linecap="round" stroke-linejoin="round" />
<path d="M 72.0 155.0 L 72.0 155.0 L 71.0 155.0 L 71.0 155.0 L 70.0 155.0 L 69.0 155.0 L 68.0 155.0 L 68.0 155.0 L 68.0 155.0 L 68.0 156.0 L 68.0 156.0 L 68.0 156.0 L 68.0 156.0 L 70.0 156.0 L 73.0 156.0 L 78.0 156.0 L 84.0 156.0 L 91.0 155.0 L 98.0 154.0 L 105.0 152.0 L 111.0 150.0 L 116.0 148.0 L 122.0 147.0 L 126.0 146.0 L 129.0 146.0 " stroke="black" fill="none" stroke-width="5.0" stroke-linecap="round" stroke-linejoin="round" />
<path d="M 100.0 83.0 L 100.0 83.0 L 99.0 83.0 L 99.0 83.0 L 98.0 83.0 L 98.0 83.0 L 98.0 83.0 L 98.0 84.0 L 98.0 84.0 L 98.0 85.0 L 99.0 87.0 L 99.0 89.0 L 100.0 93.0 L 100.0 99.0 L 100.0 105.0 L 100.0 113.0 L 100.0 121.0 L 100.0 128.0 L 99.0 137.0 L 98.0 146.0 L 96.0 154.0 L 95.0 161.0 L 95.0 168.0 L 94.0 174.0 L 93.0 182.0 L 92.0 190.0 L 90.0 197.0 L 88.0 203.0 L 85.0 210.0 L 82.0 215.0 L 79.0 221.0 L 75.0 227.0 L 72.0 234.0 L 69.0 239.0 L 66.0 244.0 L 64.0 247.0 " stroke="black" fill="none" stroke-width="5.0" stroke-linecap="round" stroke-linejoin="round" />
<path d="M 102.0 176.0 L 102.0 176.0 L 102.0 175.0 L 101.0 175.0 L 101.0 175.0 L 100.0 174.0 L 100.0 174.0 L 100.0 174.0 L 100.0 174.0 L 100.0 174.0 L 100.0 174.0 L 100.0 174.0 L 101.0 175.0 L 103.0 177.0 L 105.0 181.0 L 106.0 185.0 L 108.0 191.0 L 111.0 197.0 L 114.0 204.0 L 118.0 210.0 L 121.0 215.0 L 123.0 218.0 L 124.0 219.0 " stroke="black" fill="none" stroke-width="5.0" stroke-linecap="round" stroke-linejoin="round" />
<path d="M 154.0 84.0 L 154.0 84.0 L 154.0 84.0 L 154.0 84.0 L 153.0 84.0 L 153.0 84.0 L 153.0 84.0 L 153.0 85.0 L 153.0 86.0 L 153.0 87.0 L 153.0 90.0 L 153.0 94.0 L 153.0 99.0 L 153.0 104.0 L 154.0 111.0 L 154.0 118.0 L 154.0 125.0 L 154.0 133.0 L 154.0 140.0 L 154.0 148.0 L 155.0 154.0 L 155.0 159.0 L 155.0 164.0 L 155.0 167.0 L 155.0 170.0 L 155.0 173.0 L 156.0 175.0 L 156.0 177.0 L 156.0 178.0 L 156.0 178.0 " stroke="black" fill="none" stroke-width="5.0" stroke-linecap="round" stroke-linejoin="round" />
<path d="M 155.0 81.0 L 155.0 81.0 L 154.0 82.0 L 154.0 82.0 L 153.0 82.0 L 153.0 83.0 L 152.0 83.0 L 152.0 83.0 L 152.0 83.0 L 152.0 83.0 L 152.0 83.0 L 153.0 83.0 L 154.0 83.0 L 155.0 83.0 L 157.0 83.0 L 158.0 83.0 L 159.0 83.0 L 161.0 83.0 L 162.0 83.0 L 164.0 83.0 L 166.0 83.0 L 168.0 83.0 L 170.0 83.0 L 172.0 83.0 L 174.0 83.0 L 176.0 83.0 L 177.0 83.0 L 179.0 83.0 L 181.0 83.0 L 182.0 83.0 L 184.0 83.0 L 185.0 83.0 L 186.0 83.0 L 187.0 83.0 L 188.0 83.0 L 189.0 83.0 L 191.0 83.0 L 192.0 83.0 L 193.0 83.0 L 194.0 84.0 L 195.0 84.0 L 196.0 84.0 L 196.0 84.0 L 197.0 85.0 L 198.0 85.0 L 199.0 85.0 L 200.0 85.0 L 200.0 85.0 L 201.0 85.0 L 202.0 85.0 L 203.0 85.0 L 204.0 85.0 L 205.0 85.0 L 205.0 85.0 L 206.0 85.0 L 207.0 85.0 L 208.0 85.0 L 209.0 85.0 L 211.0 85.0 L 212.0 85.0 L 213.0 85.0 L 214.0 85.0 L 215.0 85.0 L 216.0 85.0 L 217.0 85.0 L 218.0 85.0 L 219.0 85.0 L 221.0 85.0 L 221.0 85.0 L 222.0 85.0 L 223.0 85.0 L 223.0 85.0 L 224.0 86.0 L 224.0 86.0 L 225.0 86.0 L 225.0 86.0 L 225.0 87.0 L 225.0 87.0 L 225.0 87.0 L 226.0 88.0 L 226.0 89.0 L 226.0 89.0 L 226.0 91.0 L 226.0 92.0 L 226.0 93.0 L 226.0 95.0 L 226.0 97.0 L 226.0 100.0 L 226.0 102.0 L 226.0 105.0 L 226.0 107.0 L 226.0 110.0 L 226.0 111.0 L 226.0 113.0 L 226.0 115.0 L 226.0 116.0 L 226.0 117.0 L 226.0 119.0 L 226.0 120.0 L 226.0 122.0 L 226.0 124.0 L 226.0 125.0 L 226.0 127.0 L 226.0 128.0 L 226.0 129.0 L 226.0 131.0 L 226.0 132.0 L 226.0 133.0 L 226.0 135.0 L 225.0 137.0 L 225.0 139.0 L 225.0 141.0 L 224.0 144.0 L 224.0 147.0 L 224.0 151.0 L 223.0 154.0 L 223.0 157.0 L 223.0 159.0 L 223.0 162.0 L 223.0 163.0 L 223.0 165.0 L 223.0 167.0 L 222.0 168.0 L 222.0 170.0 L 222.0 173.0 L 222.0 175.0 L 221.0 177.0 L 221.0 179.0 L 221.0 181.0 L 221.0 183.0 L 221.0 185.0 L 221.0 186.0 L 221.0 187.0 L 221.0 187.0 L 221.0 186.0 L 221.0 185.0 " stroke="black" fill="none" stroke-width="5.0" stroke-linecap="round" stroke-linejoin="round" />
<path d="M 164.0 115.0 L 164.0 115.0 L 163.0 115.0 L 163.0 116.0 L 162.0 116.0 L 162.0 117.0 L 162.0 117.0 L 162.0 117.0 L 162.0 117.0 L 163.0 117.0 L 165.0 117.0 L 168.0 117.0 L 171.0 117.0 L 175.0 117.0 L 179.0 117.0 L 184.0 117.0 L 189.0 116.0 L 194.0 116.0 L 198.0 115.0 L 202.0 114.0 L 206.0 113.0 L 210.0 113.0 L 214.0 113.0 L 218.0 112.0 L 221.0 112.0 L 223.0 113.0 L 224.0 114.0 " stroke="black" fill="none" stroke-width="5.0" stroke-linecap="round" stroke-linejoin="round" />
<path d="M 165.0 147.0 L 165.0 147.0 L 164.0 148.0 L 163.0 148.0 L 163.0 148.0 L 162.0 148.0 L 162.0 148.0 L 163.0 148.0 L 164.0 148.0 L 166.0 148.0 L 168.0 148.0 L 171.0 148.0 L 175.0 148.0 L 179.0 148.0 L 184.0 149.0 L 189.0 150.0 L 194.0 150.0 L 200.0 150.0 L 208.0 148.0 L 214.0 146.0 " stroke="black" fill="none" stroke-width="5.0" stroke-linecap="round" stroke-linejoin="round" />
<path d="M 160.0 185.0 L 160.0 185.0 L 160.0 185.0 L 159.0 186.0 L 159.0 186.0 L 159.0 186.0 L 158.0 186.0 L 158.0 186.0 L 158.0 186.0 L 158.0 186.0 L 159.0 186.0 L 160.0 186.0 L 162.0 186.0 L 165.0 186.0 L 169.0 186.0 L 175.0 186.0 L 181.0 187.0 L 188.0 187.0 L 194.0 187.0 L 201.0 186.0 L 207.0 186.0 L 212.0 185.0 L 218.0 184.0 L 221.0 184.0 L 223.0 184.0 L 223.0 184.0 " stroke="black" fill="none" stroke-width="5.0" stroke-linecap="round" stroke-linejoin="round" />
<path d="M 172.0 192.0 L 172.0 192.0 L 172.0 192.0 L 171.0 192.0 L 171.0 192.0 L 170.0 192.0 L 170.0 192.0 L 169.0 192.0 L 169.0 192.0 L 169.0 193.0 L 169.0 193.0 L 169.0 193.0 L 168.0 194.0 L 168.0 195.0 L 168.0 196.0 L 168.0 198.0 L 168.0 201.0 L 167.0 204.0 L 166.0 207.0 L 165.0 210.0 L 164.0 214.0 L 162.0 218.0 L 160.0 222.0 L 158.0 226.0 L 156.0 231.0 L 153.0 234.0 L 151.0 238.0 L 149.0 242.0 L 147.0 246.0 L 144.0 249.0 L 142.0 253.0 L 140.0 255.0 L 139.0 257.0 L 138.0 258.0 " stroke="black" fill="none" stroke-width="5.0" stroke-linecap="round" stroke-linejoin="round" />
<path d="M 198.0 192.0 L 198.0 192.0 L 198.0 192.0 L 198.0 192.0 L 198.0 191.0 L 198.0 191.0 L 198.0 191.0 L 198.0 191.0 L 198.0 193.0 L 198.0 194.0 L 197.0 196.0 L 197.0 198.0 L 197.0 200.0 L 197.0 202.0 L 197.0 204.0 L 196.0 206.0 L 196.0 209.0 L 196.0 211.0 L 196.0 214.0 L 196.0 216.0 L 196.0 219.0 L 195.0 222.0 L 195.0 224.0 L 195.0 227.0 L 194.0 229.0 L 194.0 231.0 L 194.0 233.0 L 194.0 234.0 L 194.0 235.0 L 194.0 236.0 L 194.0 237.0 L 194.0 237.0 L 194.0 238.0 L 194.0 238.0 L 194.0 239.0 L 194.0 240.0 L 194.0 240.0 L 194.0 241.0 L 195.0 241.0 L 195.0 242.0 L 196.0 242.0 L 196.0 242.0 L 197.0 243.0 L 198.0 243.0 L 199.0 243.0 L 200.0 243.0 L 201.0 243.0 L 202.0 243.0 L 204.0 243.0 L 205.0 244.0 L 207.0 244.0 L 209.0 244.0 L 211.0 244.0 L 214.0 244.0 L 216.0 245.0 L 218.0 245.0 L 221.0 245.0 L 223.0 245.0 L 225.0 245.0 L 228.0 245.0 L 230.0 245.0 L 232.0 245.0 L 235.0 245.0 L 236.0 245.0 L 238.0 245.0 L 239.0 245.0 L 240.0 245.0 L 240.0 244.0 L 241.0 244.0 L 241.0 244.0 L 241.0 243.0 L 241.0 243.0 L 241.0 242.0 L 241.0 241.0 L 241.0 239.0 L 241.0 237.0 L 241.0 234.0 L 241.0 230.0 L 241.0 226.0 L 241.0 221.0 L 241.0 216.0 L 241.0 212.0 " stroke="black" fill="none" stroke-width="5.0" stroke-linecap="round" stroke-linejoin="round" />
</svg>