<svg xmlns="http://www.w3.org/2000/svg" width="300" height="300" viewBox="0 0 300 300">
<path d="M 89.0 74.0 L 89.0 74.0 L 89.0 75.0 L 89.0 75.0 L 89.0 76.0 L 89.0 77.0 L 89.0 78.0 L 89.0 79.0 L 89.0 82.0 L 89.0 85.0 L 87.0 90.0 L 85.0 96.0 L 82.0 102.0 L 78.0 109.0 L 74.0 116.0 L 70.0 121.0 L 66.0 126.0 L 64.0 129.0 L 62.0 130.0 L 61.0 131.0 " stroke="black" fill="none" stroke-width="5.0" stroke-linecap="round" stroke-linejoin="round" />
<path d="M 91.0 94.0 L 90.0 94.0 L 89.0 94.0 L 87.0 94.0 L 87.0 94.0 L 86.0 94.0 L 85.0 94.0 L 85.0 95.0 L 85.0 95.0 L 85.0 95.0 L 85.0 95.0 L 86.0 95.0 L 88.0 95.0 L 89.0 95.0 L 91.0 95.0 L 94.0 95.0 L 96.0 94.0 L 99.0 94.0 L 101.0 94.0 L 104.0 94.0 L 106.0 93.0 L 109.0 93.0 L 111.0 93.0 L 114.0 93.0 L 114.0 93.0 L 115.0 93.0 L 115.0 93.0 L 115.0 93.0 L 115.0 93.0 L 115.0 93.0 L 115.0 94.0 L 115.0 94.0 L 115.0 95.0 L 115.0 96.0 L 115.0 97.0 L 114.0 100.0 L 113.0 102.0 L 112.0 106.0 L 110.0 110.0 L 108.0 114.0 L 106.0 117.0 L 105.0 121.0 L 103.0 124.0 L 103.0 125.0 " stroke="black" fill="none" stroke-width="5.0" stroke-linecap="round" stroke-linejoin="round" />
<path d="M 76.0 126.0 L 76.0 126.0 L 76.0 126.0 L 76.0 126.0 L 76.0 126.0 L 76.0 125.0 L 76.0 125.0 L 76.0 125.0 L 76.0 125.0 L 76.0 125.0 L 76.0 126.0 L 76.0 127.0 L 76.0 129.0 L 76.0 131.0 L 76.0 133.0 L 76.0 136.0 L 76.0 139.0 L 76.0 143.0 L 76.0 147.0 L 76.0 151.0 L 76.0 156.0 L 76.0 160.0 L 76.0 164.0 L 76.0 169.0 L 75.0 174.0 L 74.0 180.0 L 74.0 186.0 L 73.0 192.0 L 71.0 197.0 L 70.0 202.0 L 69.0 207.0 L 68.0 211.0 L 66.0 215.0 L 65.0 219.0 L 64.0 224.0 L 62.0 228.0 L 62.0 231.0 L 61.0 234.0 L 60.0 235.0 " stroke="black" fill="none" stroke-width="5.0" stroke-linecap="round" stroke-linejoin="round" />
<path d="M 83.0 128.0 L 83.0 128.0 L 82.0 128.0 L 81.0 128.0 L 80.0 128.0 L 79.0 128.0 L 78.0 128.0 L 78.0 129.0 L 78.0 129.0 L 78.0 129.0 L 78.0 129.0 L 78.0 129.0 L 79.0 129.0 L 81.0 129.0 L 83.0 129.0 L 85.0 129.0 L 87.0 129.0 L 89.0 129.0 L 92.0 129.0 L 95.0 129.0 L 98.0 128.0 L 101.0 128.0 L 103.0 127.0 L 106.0 126.0 L 109.0 125.0 L 110.0 124.0 L 112.0 124.0 L 114.0 123.0 L 115.0 123.0 L 116.0 123.0 L 117.0 123.0 L 117.0 123.0 L 118.0 123.0 L 118.0 123.0 L 119.0 123.0 L 119.0 124.0 L 120.0 124.0 L 121.0 125.0 L 121.0 125.0 L 121.0 126.0 L 122.0 126.0 L 122.0 127.0 L 122.0 128.0 L 122.0 129.0 L 123.0 131.0 L 123.0 132.0 L 123.0 134.0 L 123.0 137.0 L 123.0 140.0 L 123.0 144.0 L 123.0 147.0 L 123.0 150.0 L 123.0 153.0 L 123.0 156.0 L 123.0 159.0 L 124.0 162.0 L 124.0 165.0 L 124.0 168.0 L 124.0 170.0 L 124.0 173.0 L 124.0 177.0 L 124.0 180.0 L 124.0 184.0 L 124.0 188.0 L 125.0 191.0 L 125.0 195.0 L 125.0 199.0 L 125.0 202.0 L 125.0 205.0 L 125.0 208.0 L 124.0 210.0 L 124.0 213.0 L 124.0 216.0 L 123.0 218.0 L 123.0 221.0 L 122.0 225.0 L 122.0 228.0 L 122.0 231.0 L 122.0 234.0 L 121.0 236.0 L 121.0 239.0 L 121.0 241.0 L 121.0 243.0 L 121.0 244.0 L 120.0 246.0 L 120.0 247.0 L 120.0 248.0 L 120.0 250.0 L 119.0 251.0 L 119.0 252.0 L 119.0 252.0 L 119.0 252.0 L 118.0 252.0 L 118.0 252.0 L 117.0 252.0 L 116.0 252.0 L 115.0 252.0 L 114.0 251.0 L 113.0 250.0 L 111.0 248.0 L 109.0 247.0 L 108.0 245.0 L 106.0 242.0 " stroke="black" fill="none" stroke-width="5.0" stroke-linecap="round" stroke-linejoin="round" />
<path d="M 85.0 165.0 L 85.0 165.0 L 84.0 165.0 L 82.0 165.0 L 81.0 165.0 L 81.0 165.0 L 81.0 165.0 L 81.0 165.0 L 82.0 165.0 L 83.0 165.0 L 86.0 164.0 L 90.0 164.0 L 94.0 163.0 L 99.0 163.0 L 103.0 162.0 L 107.0 161.0 L 111.0 160.0 L 115.0 159.0 L 118.0 158.0 L 121.0 158.0 L 124.0 157.0 L 125.0 157.0 " stroke="black" fill="none" stroke-width="5.0" stroke-linecap="round" stroke-linejoin="round" />
<path d="M 107.0 136.0 L 107.0 136.0 L 106.0 136.0 L 105.0 136.0 L 105.0 136.0 L 105.0 137.0 L 104.0 137.0 L 104.0 139.0 L 104.0 141.0 L 104.0 144.0 L 104.0 148.0 L 104.0 153.0 L 104.0 159.0 L 104.0 165.0 L 104.0 171.0 L 103.0 178.0 L 103.0 183.0 L 102.0 188.0 L 101.0 192.0 L 100.0 194.0 L 100.0 195.0 " stroke="black" fill="none" stroke-width="5.0" stroke-linecap="round" stroke-linejoin="round" />
<path d="M 89.0 195.0 L 88.0 195.0 L 86.0 195.0 L 85.0 194.0 L 83.0 194.0 L 81.0 194.0 L 80.0 194.0 L 79.0 194.0 L 79.0 193.0 L 79.0 193.0 L 79.0 193.0 L 79.0 193.0 L 81.0 193.0 L 83.0 193.0 L 87.0 193.0 L 90.0 193.0 L 95.0 192.0 L 99.0 192.0 L 103.0 191.0 L 108.0 190.0 L 113.0 189.0 L 118.0 188.0 L 120.0 187.0 " stroke="black" fill="none" stroke-width="5.0" stroke-linecap="round" stroke-linejoin="round" />
<path d="M 168.0 73.0 L 168.0 73.0 L 169.0 73.0 L 169.0 73.0 L 170.0 72.0 L 171.0 72.0 L 171.0 72.0 L 171.0 73.0 L 171.0 76.0 L 170.0 79.0 L 168.0 84.0 L 165.0 89.0 L 162.0 96.0 L 158.0 102.0 L 155.0 109.0 L 152.0 115.0 L 149.0 119.0 L 147.0 121.0 L 146.0 123.0 L 146.0 123.0 " stroke="black" fill="none" stroke-width="5.0" stroke-linecap="round" stroke-linejoin="round" />
<path d="M 169.0 93.0 L 168.0 93.0 L 166.0 93.0 L 165.0 93.0 L 164.0 93.0 L 163.0 93.0 L 163.0 93.0 L 163.0 93.0 L 163.0 93.0 L 164.0 93.0 L 165.0 93.0 L 167.0 93.0 L 169.0 93.0 L 173.0 93.0 L 176.0 93.0 L 180.0 93.0 L 185.0 93.0 L 189.0 93.0 L 193.0 93.0 L 197.0 93.0 L 201.0 93.0 L 206.0 93.0 L 211.0 92.0 L 215.0 92.0 L 220.0 92.0 L 224.0 92.0 L 227.0 92.0 L 230.0 92.0 L 233.0 92.0 L 235.0 92.0 L 236.0 92.0 L 236.0 93.0 " stroke="black" fill="none" stroke-width="5.0" stroke-linecap="round" stroke-linejoin="round" />
<path d="M 165.0 117.0 L 165.0 117.0 L 165.0 117.0 L 166.0 116.0 L 166.0 116.0 L 166.0 116.0 L 167.0 116.0 L 167.0 116.0 L 167.0 117.0 L 167.0 119.0 L 167.0 122.0 L 167.0 126.0 L 167.0 130.0 L 166.0 136.0 L 166.0 141.0 L 166.0 145.0 L 166.0 149.0 L 166.0 152.0 L 166.0 152.0 L 166.0 153.0 " stroke="black" fill="none" stroke-width="5.0" stroke-linecap="round" stroke-linejoin="round" />
<path d="M 169.0 115.0 L 169.0 115.0 L 168.0 115.0 L 168.0 115.0 L 167.0 115.0 L 167.0 115.0 L 166.0 115.0 L 166.0 115.0 L 166.0 115.0 L 166.0 115.0 L 166.0 115.0 L 167.0 115.0 L 168.0 115.0 L 169.0 115.0 L 171.0 115.0 L 173.0 115.0 L 175.0 115.0 L 177.0 115.0 L 180.0 115.0 L 183.0 114.0 L 187.0 114.0 L 190.0 113.0 L 193.0 113.0 L 196.0 112.0 L 198.0 112.0 L 200.0 112.0 L 203.0 112.0 L 205.0 112.0 L 207.0 112.0 L 209.0 112.0 L 211.0 112.0 L 212.0 112.0 L 214.0 113.0 L 216.0 113.0 L 217.0 113.0 L 219.0 113.0 L 220.0 113.0 L 221.0 113.0 L 222.0 114.0 L 223.0 114.0 L 224.0 114.0 L 225.0 114.0 L 225.0 114.0 L 226.0 114.0 L 226.0 114.0 L 226.0 115.0 L 227.0 115.0 L 227.0 115.0 L 227.0 116.0 L 227.0 117.0 L 227.0 118.0 L 227.0 119.0 L 227.0 121.0 L 227.0 123.0 L 227.0 126.0 L 226.0 130.0 L 225.0 135.0 L 224.0 140.0 L 223.0 145.0 L 223.0 150.0 L 222.0 154.0 L 222.0 156.0 L 221.0 158.0 L 221.0 159.0 L 221.0 159.0 " stroke="black" fill="none" stroke-width="5.0" stroke-linecap="round" stroke-linejoin="round" />
<path d="M 168.0 135.0 L 167.0 135.0 L 166.0 135.0 L 165.0 135.0 L 164.0 135.0 L 164.0 135.0 L 165.0 135.0 L 167.0 135.0 L 171.0 134.0 L 176.0 134.0 L 182.0 133.0 L 187.0 133.0 L 191.0 133.0 L 196.0 132.0 L 200.0 132.0 L 203.0 132.0 L 207.0 131.0 L 210.0 131.0 " stroke="black" fill="none" stroke-width="5.0" stroke-linecap="round" stroke-linejoin="round" />
<path d="M 173.0 155.0 L 173.0 155.0 L 170.0 155.0 L 168.0 155.0 L 166.0 156.0 L 165.0 156.0 L 165.0 156.0 L 165.0 156.0 L 165.0 156.0 L 167.0 156.0 L 169.0 156.0 L 172.0 155.0 L 176.0 155.0 L 180.0 155.0 L 185.0 155.0 L 189.0 154.0 L 193.0 154.0 L 198.0 153.0 L 202.0 152.0 L 206.0 152.0 L 207.0 151.0 " stroke="black" fill="none" stroke-width="5.0" stroke-linecap="round" stroke-linejoin="round" />
<path d="M 145.0 174.0 L 144.0 174.0 L 143.0 174.0 L 142.0 174.0 L 141.0 174.0 L 140.0 175.0 L 140.0 175.0 L 140.0 175.0 L 140.0 175.0 L 141.0 175.0 L 143.0 175.0 L 145.0 175.0 L 148.0 175.0 L 151.0 176.0 L 155.0 176.0 L 160.0 176.0 L 167.0 176.0 L 175.0 176.0 L 183.0 176.0 L 190.0 175.0 L 197.0 173.0 L 201.0 172.0 L 206.0 171.0 L 211.0 171.0 L 214.0 170.0 L 218.0 170.0 L 221.0 170.0 L 223.0 170.0 L 224.0 170.0 L 224.0 171.0 L 224.0 173.0 " stroke="black" fill="none" stroke-width="5.0" stroke-linecap="round" stroke-linejoin="round" />
<path d="M 176.0 177.0 L 176.0 176.0 L 176.0 175.0 L 176.0 175.0 L 176.0 174.0 L 176.0 174.0 L 176.0 173.0 L 176.0 173.0 L 175.0 173.0 L 175.0 175.0 L 174.0 177.0 L 173.0 179.0 L 171.0 182.0 L 168.0 186.0 L 165.0 191.0 L 162.0 195.0 L 158.0 199.0 L 154.0 204.0 L 151.0 208.0 L 147.0 211.0 L 143.0 214.0 L 141.0 215.0 L 140.0 216.0 " stroke="black" fill="none" stroke-width="5.0" stroke-linecap="round" stroke-linejoin="round" />
<path d="M 164.0 199.0 L 164.0 199.0 L 163.0 199.0 L 162.0 200.0 L 161.0 200.0 L 161.0 200.0 L 161.0 200.0 L 161.0 200.0 L 161.0 200.0 L 162.0 200.0 L 163.0 200.0 L 165.0 199.0 L 166.0 199.0 L 167.0 199.0 L 168.0 199.0 L 169.0 199.0 L 170.0 199.0 L 172.0 200.0 L 173.0 200.0 L 175.0 200.0 L 176.0 200.0 L 178.0 200.0 L 181.0 200.0 L 183.0 200.0 L 185.0 200.0 L 187.0 200.0 L 189.0 200.0 L 191.0 200.0 L 193.0 200.0 L 194.0 200.0 L 196.0 200.0 L 197.0 200.0 L 199.0 200.0 L 201.0 200.0 L 202.0 199.0 L 204.0 199.0 L 206.0 199.0 L 207.0 198.0 L 209.0 198.0 L 211.0 198.0 L 212.0 197.0 L 214.0 197.0 L 216.0 197.0 L 218.0 197.0 L 219.0 197.0 L 221.0 197.0 L 223.0 197.0 L 224.0 197.0 L 225.0 197.0 L 227.0 197.0 L 228.0 197.0 L 229.0 197.0 L 230.0 197.0 L 230.0 197.0 L 231.0 198.0 L 232.0 198.0 L 232.0 198.0 L 233.0 198.0 L 233.0 198.0 L 234.0 198.0 L 234.0 198.0 L 234.0 198.0 L 234.0 198.0 L 234.0 198.0 L 234.0 198.0 L 234.0 198.0 L 234.0 199.0 L 234.0 200.0 L 234.0 201.0 L 234.0 202.0 L 234.0 203.0 L 234.0 205.0 L 234.0 206.0 L 234.0 209.0 L 233.0 211.0 L 233.0 215.0 L 232.0 220.0 L 231.0 226.0 L 230.0 232.0 L 229.0 237.0 L 228.0 242.0 L 227.0 246.0 L 226.0 248.0 L 225.0 249.0 L 225.0 250.0 L 224.0 250.0 L 223.0 250.0 L 223.0 251.0 L 222.0 251.0 L 220.0 251.0 L 218.0 251.0 L 216.0 251.0 L 214.0 251.0 L 212.0 251.0 L 209.0 250.0 L 207.0 248.0 " stroke="black" fill="none" stroke-width="5.0" stroke-linecap="round" stroke-linejoin="round" />
<path d="M 185.0 201.0 L 185.0 201.0 L 185.0 201.0 L 185.0 201.0 L 184.0 201.0 L 184.0 201.0 L 184.0 201.0 L 184.0 201.0 L 184.0 201.0 L 183.0 201.0 L 183.0 202.0 L 183.0 203.0 L 182.0 205.0 L 180.0 208.0 L 178.0 212.0 L 175.0 218.0 L 170.0 224.0 L 164.0 230.0 L 159.0 235.0 L 154.0 239.0 L 150.0 242.0 L 148.0 243.0 L 147.0 243.0 L 147.0 243.0 " stroke="black" fill="none" stroke-width="5.0" stroke-linecap="round" stroke-linejoin="round" />
<path d="M 210.0 207.0 L 210.0 207.0 L 209.0 207.0 L 209.0 207.0 L 209.0 207.0 L 208.0 207.0 L 208.0 208.0 L 208.0 208.0 L 208.0 209.0 L 207.0 210.0 L 207.0 211.0 L 206.0 213.0 L 205.0 215.0 L 204.0 216.0 L 203.0 218.0 L 201.0 223.0 L 198.0 229.0 L 196.0 232.0 L 194.0 235.0 L 189.0 242.0 L 182.0 250.0 L 173.0 257.0 L 163.0 264.0 L 155.0 271.0 " stroke="black" fill="none" stroke-width="5.0" stroke-linecap="round" stroke-linejoin="round" />
</svg>