<svg xmlns="http://www.w3.org/2000/svg" width="300" height="300" viewBox="0 0 300 300">
<path d="M 77.0 88.0 L 77.0 88.0 L 77.0 88.0 L 77.0 88.0 L 77.0 87.0 L 77.0 87.0 L 77.0 87.0 L 76.0 87.0 L 76.0 87.0 L 76.0 87.0 L 76.0 87.0 L 76.0 87.0 L 76.0 87.0 L 76.0 87.0 L 76.0 87.0 L 77.0 87.0 L 77.0 87.0 L 78.0 87.0 L 78.0 87.0 L 79.0 87.0 L 79.0 87.0 L 80.0 87.0 L 80.0 87.0 L 81.0 87.0 L 82.0 87.0 L 83.0 87.0 L 84.0 87.0 L 85.0 87.0 L 86.0 87.0 L 87.0 87.0 L 88.0 86.0 L 89.0 86.0 L 90.0 86.0 L 91.0 86.0 L 93.0 86.0 L 94.0 86.0 L 94.0 86.0 L 96.0 86.0 L 96.0 86.0 L 97.0 86.0 L 98.0 86.0 L 99.0 86.0 L 100.0 86.0 L 100.0 86.0 L 101.0 86.0 L 102.0 86.0 L 102.0 86.0 L 103.0 86.0 L 103.0 86.0 L 104.0 86.0 L 105.0 86.0 L 105.0 86.0 L 106.0 86.0 L 106.0 85.0 L 107.0 85.0 L 108.0 85.0 L 108.0 85.0 L 109.0 85.0 L 109.0 85.0 L 110.0 85.0 L 111.0 85.0 L 111.0 84.0 L 112.0 84.0 L 113.0 84.0 L 114.0 84.0 L 115.0 84.0 L 116.0 84.0 L 117.0 83.0 L 118.0 83.0 L 119.0 83.0 L 120.0 83.0 L 121.0 83.0 L 123.0 83.0 L 124.0 82.0 L 125.0 82.0 L 126.0 82.0 L 128.0 82.0 L 129.0 82.0 L 131.0 82.0 L 132.0 82.0 L 133.0 82.0 L 135.0 82.0 L 136.0 82.0 L 138.0 81.0 L 139.0 81.0 L 141.0 81.0 L 142.0 81.0 L 144.0 81.0 L 145.0 81.0 L 147.0 81.0 L 148.0 80.0 L 149.0 80.0 L 150.0 80.0 L 152.0 80.0 L 153.0 80.0 L 154.0 79.0 L 155.0 79.0 L 156.0 79.0 L 157.0 79.0 L 158.0 79.0 L 160.0 78.0 L 161.0 78.0 L 162.0 78.0 L 164.0 78.0 L 165.0 78.0 L 166.0 78.0 L 168.0 78.0 L 170.0 78.0 L 171.0 77.0 L 173.0 77.0 L 175.0 77.0 L 177.0 76.0 L 179.0 76.0 L 181.0 75.0 L 183.0 75.0 L 186.0 74.0 L 188.0 74.0 L 190.0 73.0 L 192.0 73.0 L 193.0 72.0 L 195.0 72.0 L 197.0 71.0 L 199.0 71.0 L 200.0 70.0 L 202.0 69.0 L 204.0 69.0 L 205.0 68.0 L 207.0 68.0 L 207.0 68.0 " stroke="black" fill="none" stroke-width="5.0" stroke-linecap="round" stroke-linejoin="round" />
<path d="M 95.0 97.0 L 95.0 97.0 L 95.0 97.0 L 95.0 97.0 L 95.0 97.0 L 95.0 97.0 L 95.0 97.0 L 95.0 98.0 L 95.0 100.0 L 96.0 102.0 L 97.0 104.0 L 99.0 107.0 L 100.0 111.0 L 102.0 114.0 L 104.0 116.0 L 105.0 119.0 L 106.0 120.0 " stroke="black" fill="none" stroke-width="5.0" stroke-linecap="round" stroke-linejoin="round" />
<path d="M 140.0 91.0 L 140.0 91.0 L 139.0 90.0 L 139.0 89.0 L 139.0 89.0 L 139.0 89.0 L 139.0 89.0 L 139.0 89.0 L 139.0 91.0 L 141.0 93.0 L 142.0 96.0 L 143.0 99.0 L 145.0 102.0 L 146.0 105.0 L 148.0 108.0 L 149.0 111.0 L 151.0 114.0 " stroke="black" fill="none" stroke-width="5.0" stroke-linecap="round" stroke-linejoin="round" />
<path d="M 208.0 94.0 L 208.0 94.0 L 208.0 93.0 L 208.0 93.0 L 208.0 92.0 L 208.0 92.0 L 208.0 92.0 L 207.0 92.0 L 207.0 93.0 L 205.0 95.0 L 204.0 98.0 L 202.0 102.0 L 199.0 107.0 L 197.0 112.0 L 194.0 117.0 " stroke="black" fill="none" stroke-width="5.0" stroke-linecap="round" stroke-linejoin="round" />
<path d="M 99.0 136.0 L 99.0 136.0 L 98.0 136.0 L 98.0 136.0 L 97.0 135.0 L 97.0 135.0 L 97.0 135.0 L 97.0 135.0 L 97.0 135.0 L 97.0 135.0 L 97.0 136.0 L 97.0 137.0 L 97.0 140.0 L 97.0 143.0 L 98.0 146.0 L 98.0 150.0 L 98.0 155.0 L 98.0 161.0 L 98.0 168.0 L 98.0 175.0 L 97.0 184.0 L 97.0 192.0 L 96.0 199.0 L 96.0 203.0 L 96.0 206.0 L 96.0 207.0 L 96.0 207.0 L 96.0 207.0 L 97.0 206.0 " stroke="black" fill="none" stroke-width="5.0" stroke-linecap="round" stroke-linejoin="round" />
<path d="M 100.0 133.0 L 100.0 133.0 L 100.0 133.0 L 100.0 133.0 L 100.0 133.0 L 99.0 132.0 L 99.0 132.0 L 99.0 132.0 L 99.0 132.0 L 99.0 132.0 L 98.0 132.0 L 98.0 132.0 L 98.0 132.0 L 98.0 132.0 L 98.0 132.0 L 99.0 132.0 L 99.0 132.0 L 100.0 132.0 L 101.0 132.0 L 101.0 132.0 L 103.0 132.0 L 104.0 132.0 L 105.0 132.0 L 106.0 132.0 L 107.0 132.0 L 108.0 132.0 L 109.0 132.0 L 111.0 132.0 L 112.0 132.0 L 113.0 132.0 L 114.0 132.0 L 116.0 132.0 L 117.0 132.0 L 118.0 132.0 L 120.0 132.0 L 121.0 132.0 L 123.0 132.0 L 125.0 132.0 L 126.0 132.0 L 128.0 132.0 L 129.0 132.0 L 131.0 132.0 L 132.0 132.0 L 134.0 131.0 L 135.0 131.0 L 137.0 131.0 L 139.0 131.0 L 140.0 131.0 L 141.0 131.0 L 142.0 131.0 L 143.0 131.0 L 144.0 131.0 L 145.0 131.0 L 146.0 131.0 L 147.0 131.0 L 148.0 131.0 L 148.0 130.0 L 149.0 130.0 L 149.0 130.0 L 150.0 130.0 L 151.0 130.0 L 151.0 130.0 L 152.0 130.0 L 152.0 130.0 L 153.0 130.0 L 154.0 130.0 L 154.0 130.0 L 155.0 130.0 L 156.0 130.0 L 156.0 130.0 L 157.0 130.0 L 158.0 130.0 L 159.0 130.0 L 160.0 130.0 L 161.0 130.0 L 162.0 130.0 L 163.0 130.0 L 165.0 130.0 L 166.0 130.0 L 168.0 130.0 L 169.0 130.0 L 171.0 130.0 L 173.0 130.0 L 174.0 130.0 L 176.0 130.0 L 177.0 130.0 L 178.0 130.0 L 180.0 130.0 L 181.0 130.0 L 182.0 130.0 L 183.0 130.0 L 184.0 130.0 L 185.0 130.0 L 186.0 130.0 L 187.0 130.0 L 188.0 130.0 L 189.0 130.0 L 190.0 130.0 L 190.0 130.0 L 191.0 130.0 L 191.0 130.0 L 192.0 130.0 L 192.0 130.0 L 193.0 130.0 L 193.0 130.0 L 193.0 130.0 L 194.0 130.0 L 194.0 130.0 L 194.0 130.0 L 194.0 130.0 L 194.0 130.0 L 195.0 131.0 L 195.0 131.0 L 195.0 131.0 L 195.0 132.0 L 195.0 132.0 L 195.0 133.0 L 195.0 134.0 L 195.0 134.0 L 195.0 136.0 L 195.0 137.0 L 195.0 139.0 L 195.0 140.0 L 195.0 142.0 L 195.0 145.0 L 194.0 147.0 L 194.0 150.0 L 194.0 153.0 L 194.0 156.0 L 194.0 159.0 L 193.0 162.0 L 193.0 166.0 L 193.0 169.0 L 192.0 173.0 L 191.0 177.0 L 191.0 181.0 L 190.0 186.0 L 190.0 189.0 L 190.0 192.0 L 190.0 195.0 L 189.0 196.0 L 189.0 198.0 L 189.0 200.0 L 189.0 201.0 L 189.0 203.0 L 189.0 204.0 L 189.0 206.0 L 189.0 207.0 L 189.0 208.0 L 189.0 208.0 L 188.0 209.0 " stroke="black" fill="none" stroke-width="5.0" stroke-linecap="round" stroke-linejoin="round" />
<path d="M 106.0 157.0 L 106.0 157.0 L 105.0 157.0 L 105.0 157.0 L 105.0 156.0 L 104.0 156.0 L 104.0 156.0 L 104.0 156.0 L 104.0 155.0 L 104.0 155.0 L 105.0 155.0 L 105.0 155.0 L 107.0 155.0 L 108.0 155.0 L 111.0 155.0 L 113.0 155.0 L 117.0 155.0 L 121.0 155.0 L 126.0 155.0 L 131.0 155.0 L 137.0 155.0 L 142.0 155.0 L 147.0 155.0 L 150.0 155.0 L 153.0 155.0 L 156.0 155.0 L 159.0 156.0 L 162.0 156.0 L 166.0 156.0 L 170.0 156.0 L 174.0 156.0 L 179.0 156.0 L 183.0 156.0 L 187.0 156.0 L 190.0 156.0 L 192.0 155.0 L 193.0 155.0 L 194.0 155.0 L 194.0 155.0 L 194.0 155.0 " stroke="black" fill="none" stroke-width="5.0" stroke-linecap="round" stroke-linejoin="round" />
<path d="M 103.0 187.0 L 103.0 187.0 L 102.0 187.0 L 102.0 186.0 L 101.0 186.0 L 101.0 186.0 L 101.0 186.0 L 101.0 186.0 L 101.0 185.0 L 101.0 185.0 L 101.0 185.0 L 103.0 185.0 L 104.0 185.0 L 106.0 185.0 L 109.0 185.0 L 112.0 185.0 L 116.0 185.0 L 122.0 185.0 L 128.0 185.0 L 135.0 185.0 L 141.0 185.0 L 146.0 185.0 L 151.0 185.0 L 155.0 185.0 L 158.0 184.0 L 161.0 184.0 L 165.0 184.0 L 168.0 183.0 L 172.0 183.0 L 176.0 183.0 L 179.0 183.0 L 182.0 182.0 L 184.0 182.0 L 185.0 182.0 " stroke="black" fill="none" stroke-width="5.0" stroke-linecap="round" stroke-linejoin="round" />
<path d="M 97.0 209.0 L 97.0 209.0 L 97.0 209.0 L 97.0 209.0 L 96.0 209.0 L 96.0 209.0 L 96.0 209.0 L 96.0 209.0 L 96.0 209.0 L 96.0 209.0 L 96.0 209.0 L 97.0 209.0 L 99.0 209.0 L 101.0 209.0 L 103.0 209.0 L 105.0 209.0 L 107.0 209.0 L 110.0 209.0 L 114.0 209.0 L 118.0 209.0 L 122.0 209.0 L 127.0 209.0 L 132.0 209.0 L 137.0 209.0 L 142.0 209.0 L 146.0 209.0 L 150.0 209.0 L 153.0 209.0 L 157.0 209.0 L 160.0 209.0 L 164.0 209.0 L 167.0 209.0 L 170.0 209.0 L 173.0 209.0 L 176.0 209.0 L 178.0 209.0 L 179.0 209.0 L 180.0 209.0 L 181.0 210.0 " stroke="black" fill="none" stroke-width="5.0" stroke-linecap="round" stroke-linejoin="round" />
<path d="M 122.0 213.0 L 123.0 213.0 L 123.0 212.0 L 124.0 212.0 L 125.0 211.0 L 125.0 211.0 L 125.0 211.0 L 125.0 210.0 L 125.0 210.0 L 125.0 210.0 L 124.0 210.0 L 124.0 211.0 L 123.0 212.0 L 122.0 213.0 L 121.0 214.0 L 121.0 216.0 L 120.0 218.0 L 119.0 220.0 L 117.0 222.0 L 116.0 224.0 L 115.0 226.0 L 113.0 229.0 L 111.0 231.0 L 108.0 234.0 L 105.0 236.0 L 102.0 238.0 L 98.0 239.0 L 93.0 241.0 L 87.0 242.0 L 81.0 243.0 L 75.0 244.0 L 71.0 244.0 " stroke="black" fill="none" stroke-width="5.0" stroke-linecap="round" stroke-linejoin="round" />
<path d="M 173.0 213.0 L 173.0 213.0 L 173.0 213.0 L 173.0 213.0 L 173.0 213.0 L 172.0 213.0 L 172.0 212.0 L 172.0 212.0 L 172.0 212.0 L 172.0 212.0 L 172.0 212.0 L 172.0 212.0 L 172.0 213.0 L 172.0 214.0 L 172.0 215.0 L 171.0 217.0 L 171.0 219.0 L 171.0 221.0 L 171.0 223.0 L 171.0 225.0 L 170.0 228.0 L 170.0 230.0 L 170.0 232.0 L 170.0 234.0 L 170.0 236.0 L 170.0 238.0 L 169.0 239.0 L 169.0 240.0 L 169.0 242.0 L 169.0 242.0 L 169.0 243.0 L 169.0 244.0 L 169.0 244.0 L 169.0 245.0 L 169.0 245.0 L 170.0 246.0 L 170.0 246.0 L 170.0 247.0 L 170.0 247.0 L 171.0 247.0 L 171.0 248.0 L 171.0 248.0 L 172.0 249.0 L 172.0 249.0 L 173.0 250.0 L 174.0 250.0 L 174.0 250.0 L 175.0 251.0 L 176.0 251.0 L 177.0 251.0 L 178.0 252.0 L 179.0 252.0 L 180.0 252.0 L 182.0 252.0 L 183.0 253.0 L 185.0 253.0 L 187.0 253.0 L 188.0 253.0 L 190.0 253.0 L 191.0 253.0 L 193.0 253.0 L 195.0 253.0 L 196.0 253.0 L 198.0 253.0 L 200.0 253.0 L 202.0 254.0 L 204.0 254.0 L 207.0 254.0 L 209.0 254.0 L 213.0 254.0 L 216.0 254.0 L 219.0 254.0 L 223.0 254.0 L 226.0 253.0 L 229.0 252.0 L 231.0 252.0 L 233.0 251.0 L 234.0 250.0 L 235.0 250.0 L 236.0 249.0 L 236.0 248.0 L 236.0 247.0 L 236.0 246.0 L 236.0 245.0 L 236.0 244.0 L 237.0 243.0 L 237.0 241.0 L 237.0 240.0 L 237.0 238.0 L 237.0 236.0 L 237.0 234.0 L 237.0 231.0 L 237.0 228.0 L 237.0 224.0 L 237.0 221.0 L 237.0 218.0 " stroke="black" fill="none" stroke-width="5.0" stroke-linecap="round" stroke-linejoin="round" />
</svg>