<svg xmlns="http://www.w3.org/2000/svg" width="300" height="300" viewBox="0 0 300 300">
<path d="M 88.0 74.0 L 87.0 74.0 L 85.0 73.0 L 83.0 72.0 L 82.0 71.0 L 81.0 71.0 L 80.0 71.0 L 80.0 71.0 L 80.0 71.0 L 81.0 72.0 L 83.0 73.0 L 85.0 75.0 L 88.0 78.0 L 91.0 80.0 L 94.0 82.0 L 98.0 85.0 L 101.0 87.0 L 104.0 89.0 L 107.0 92.0 " stroke="black" fill="none" stroke-width="5.0" stroke-linecap="round" stroke-linejoin="round" />
<path d="M 67.0 112.0 L 67.0 112.0 L 66.0 112.0 L 65.0 112.0 L 64.0 112.0 L 64.0 112.0 L 64.0 112.0 L 64.0 112.0 L 64.0 112.0 L 64.0 112.0 L 66.0 112.0 L 69.0 112.0 L 73.0 112.0 L 78.0 113.0 L 85.0 113.0 L 92.0 114.0 L 101.0 114.0 L 110.0 114.0 L 119.0 114.0 " stroke="black" fill="none" stroke-width="5.0" stroke-linecap="round" stroke-linejoin="round" />
<path d="M 73.0 137.0 L 73.0 137.0 L 72.0 137.0 L 71.0 137.0 L 70.0 137.0 L 70.0 137.0 L 70.0 137.0 L 71.0 137.0 L 73.0 137.0 L 78.0 137.0 L 83.0 137.0 L 90.0 137.0 L 97.0 137.0 L 104.0 137.0 L 110.0 137.0 L 116.0 137.0 L 122.0 137.0 L 127.0 137.0 L 129.0 137.0 " stroke="black" fill="none" stroke-width="5.0" stroke-linecap="round" stroke-linejoin="round" />
<path d="M 75.0 159.0 L 74.0 159.0 L 72.0 159.0 L 70.0 159.0 L 69.0 159.0 L 69.0 159.0 L 68.0 159.0 L 69.0 159.0 L 71.0 159.0 L 73.0 159.0 L 78.0 159.0 L 83.0 159.0 L 90.0 160.0 L 97.0 160.0 L 103.0 160.0 L 110.0 160.0 L 116.0 159.0 " stroke="black" fill="none" stroke-width="5.0" stroke-linecap="round" stroke-linejoin="round" />
<path d="M 69.0 193.0 L 69.0 193.0 L 69.0 193.0 L 69.0 193.0 L 68.0 193.0 L 68.0 193.0 L 68.0 193.0 L 68.0 193.0 L 68.0 194.0 L 68.0 196.0 L 68.0 199.0 L 68.0 203.0 L 69.0 207.0 L 69.0 212.0 L 69.0 217.0 L 70.0 222.0 L 70.0 228.0 L 70.0 231.0 L 71.0 234.0 L 71.0 236.0 L 71.0 236.0 " stroke="black" fill="none" stroke-width="5.0" stroke-linecap="round" stroke-linejoin="round" />
<path d="M 70.0 193.0 L 70.0 193.0 L 69.0 192.0 L 69.0 191.0 L 68.0 191.0 L 68.0 190.0 L 68.0 190.0 L 69.0 189.0 L 71.0 188.0 L 73.0 188.0 L 76.0 188.0 L 81.0 187.0 L 87.0 187.0 L 93.0 187.0 L 99.0 187.0 L 105.0 187.0 L 110.0 187.0 L 113.0 187.0 L 117.0 187.0 L 119.0 187.0 L 121.0 187.0 L 122.0 188.0 L 123.0 190.0 L 123.0 192.0 L 123.0 195.0 L 121.0 199.0 L 120.0 203.0 L 118.0 208.0 L 116.0 213.0 L 115.0 217.0 L 114.0 222.0 L 113.0 227.0 L 112.0 231.0 L 111.0 234.0 " stroke="black" fill="none" stroke-width="5.0" stroke-linecap="round" stroke-linejoin="round" />
<path d="M 80.0 241.0 L 77.0 241.0 L 74.0 241.0 L 72.0 241.0 L 71.0 241.0 L 71.0 241.0 L 71.0 241.0 L 73.0 241.0 L 76.0 240.0 L 80.0 239.0 L 85.0 239.0 L 90.0 237.0 L 96.0 236.0 L 102.0 234.0 L 108.0 231.0 L 115.0 228.0 " stroke="black" fill="none" stroke-width="5.0" stroke-linecap="round" stroke-linejoin="round" />
<path d="M 152.0 83.0 L 152.0 83.0 L 151.0 83.0 L 150.0 83.0 L 149.0 83.0 L 149.0 83.0 L 149.0 83.0 L 149.0 83.0 L 149.0 83.0 L 149.0 83.0 L 149.0 83.0 L 151.0 83.0 L 152.0 83.0 L 154.0 83.0 L 156.0 83.0 L 159.0 83.0 L 162.0 83.0 L 166.0 83.0 L 171.0 84.0 L 176.0 84.0 L 181.0 84.0 L 186.0 84.0 L 190.0 84.0 L 193.0 84.0 L 196.0 84.0 L 198.0 85.0 L 200.0 85.0 L 202.0 85.0 L 204.0 85.0 L 207.0 85.0 L 209.0 85.0 L 211.0 85.0 L 214.0 85.0 L 217.0 86.0 L 219.0 86.0 L 222.0 86.0 L 224.0 86.0 L 226.0 86.0 L 228.0 86.0 L 230.0 86.0 L 231.0 86.0 L 232.0 87.0 L 233.0 87.0 L 234.0 87.0 L 234.0 87.0 L 235.0 87.0 L 235.0 88.0 L 236.0 88.0 L 236.0 89.0 L 236.0 90.0 L 236.0 91.0 L 236.0 92.0 L 236.0 94.0 L 236.0 96.0 L 236.0 98.0 L 236.0 101.0 L 236.0 104.0 L 236.0 107.0 L 236.0 111.0 L 236.0 115.0 L 236.0 119.0 L 236.0 123.0 L 235.0 127.0 L 235.0 130.0 L 235.0 134.0 L 235.0 137.0 L 235.0 141.0 L 235.0 144.0 L 235.0 147.0 L 235.0 151.0 L 235.0 154.0 L 235.0 156.0 L 235.0 159.0 L 235.0 162.0 L 235.0 165.0 L 235.0 168.0 L 235.0 170.0 L 235.0 173.0 L 235.0 176.0 L 235.0 179.0 L 234.0 182.0 L 234.0 186.0 L 234.0 189.0 L 234.0 192.0 L 234.0 195.0 L 234.0 198.0 L 234.0 201.0 L 234.0 204.0 L 233.0 207.0 L 233.0 210.0 L 233.0 213.0 L 233.0 215.0 L 233.0 218.0 L 233.0 221.0 L 233.0 223.0 L 233.0 226.0 L 233.0 229.0 L 232.0 231.0 L 232.0 234.0 L 232.0 236.0 L 232.0 238.0 L 232.0 240.0 L 231.0 243.0 L 231.0 244.0 L 231.0 246.0 L 230.0 247.0 L 230.0 249.0 L 230.0 250.0 L 229.0 252.0 L 229.0 253.0 L 228.0 254.0 L 227.0 256.0 L 226.0 256.0 L 224.0 257.0 L 223.0 258.0 L 221.0 259.0 L 219.0 259.0 L 217.0 260.0 L 216.0 260.0 L 215.0 260.0 L 212.0 260.0 L 211.0 260.0 L 210.0 260.0 L 208.0 260.0 L 205.0 258.0 L 202.0 255.0 L 200.0 252.0 " stroke="black" fill="none" stroke-width="5.0" stroke-linecap="round" stroke-linejoin="round" />
<path d="M 147.0 121.0 L 147.0 121.0 L 146.0 121.0 L 145.0 121.0 L 145.0 121.0 L 144.0 121.0 L 144.0 121.0 L 144.0 121.0 L 144.0 121.0 L 145.0 120.0 L 148.0 120.0 L 151.0 120.0 L 157.0 120.0 L 164.0 120.0 L 173.0 120.0 L 182.0 119.0 L 191.0 118.0 L 198.0 118.0 L 203.0 118.0 L 207.0 118.0 " stroke="black" fill="none" stroke-width="5.0" stroke-linecap="round" stroke-linejoin="round" />
<path d="M 152.0 151.0 L 152.0 151.0 L 152.0 151.0 L 152.0 151.0 L 152.0 151.0 L 152.0 151.0 L 152.0 151.0 L 152.0 152.0 L 152.0 154.0 L 152.0 157.0 L 152.0 162.0 L 152.0 168.0 L 153.0 175.0 L 153.0 182.0 L 153.0 189.0 L 154.0 195.0 L 154.0 199.0 L 154.0 201.0 L 154.0 202.0 L 154.0 202.0 L 155.0 201.0 L 155.0 199.0 L 155.0 197.0 L 155.0 194.0 L 155.0 191.0 L 155.0 190.0 " stroke="black" fill="none" stroke-width="5.0" stroke-linecap="round" stroke-linejoin="round" />
<path d="M 153.0 155.0 L 152.0 154.0 L 152.0 153.0 L 151.0 152.0 L 150.0 152.0 L 150.0 151.0 L 150.0 150.0 L 150.0 150.0 L 151.0 150.0 L 153.0 149.0 L 156.0 149.0 L 161.0 148.0 L 166.0 148.0 L 173.0 147.0 L 180.0 147.0 L 186.0 146.0 L 192.0 146.0 L 195.0 146.0 L 198.0 147.0 L 199.0 148.0 L 199.0 150.0 L 200.0 152.0 L 200.0 155.0 L 200.0 157.0 L 199.0 161.0 L 198.0 165.0 L 197.0 169.0 L 196.0 173.0 L 194.0 178.0 L 193.0 183.0 L 192.0 188.0 L 191.0 193.0 L 190.0 197.0 L 189.0 199.0 " stroke="black" fill="none" stroke-width="5.0" stroke-linecap="round" stroke-linejoin="round" />
<path d="M 161.0 206.0 L 160.0 206.0 L 157.0 206.0 L 155.0 206.0 L 153.0 205.0 L 151.0 205.0 L 150.0 205.0 L 149.0 204.0 L 149.0 204.0 L 149.0 204.0 L 150.0 204.0 L 152.0 203.0 L 154.0 203.0 L 157.0 202.0 L 161.0 202.0 L 166.0 201.0 L 172.0 201.0 L 178.0 200.0 L 183.0 200.0 L 189.0 199.0 L 194.0 199.0 L 198.0 199.0 L 199.0 199.0 " stroke="black" fill="none" stroke-width="5.0" stroke-linecap="round" stroke-linejoin="round" />
</svg>