<svg xmlns="http://www.w3.org/2000/svg" width="300" height="300" viewBox="0 0 300 300">
<path d="M 84.0 81.0 L 84.0 81.0 L 84.0 81.0 L 84.0 81.0 L 85.0 81.0 L 85.0 81.0 L 86.0 81.0 L 87.0 82.0 L 88.0 83.0 L 90.0 85.0 L 92.0 86.0 L 94.0 88.0 L 96.0 90.0 " stroke="black" fill="none" stroke-width="5.0" stroke-linecap="round" stroke-linejoin="round" />
<path d="M 66.0 113.0 L 66.0 113.0 L 66.0 113.0 L 65.0 113.0 L 65.0 113.0 L 65.0 113.0 L 65.0 113.0 L 65.0 113.0 L 65.0 112.0 L 65.0 112.0 L 65.0 112.0 L 66.0 112.0 L 67.0 112.0 L 69.0 112.0 L 72.0 111.0 L 76.0 111.0 L 80.0 110.0 L 85.0 110.0 L 90.0 109.0 L 94.0 109.0 L 99.0 108.0 L 103.0 108.0 L 105.0 108.0 L 108.0 108.0 L 109.0 108.0 " stroke="black" fill="none" stroke-width="5.0" stroke-linecap="round" stroke-linejoin="round" />
<path d="M 72.0 141.0 L 72.0 141.0 L 72.0 141.0 L 72.0 141.0 L 72.0 141.0 L 72.0 141.0 L 72.0 141.0 L 72.0 141.0 L 72.0 141.0 L 73.0 141.0 L 74.0 141.0 L 77.0 140.0 L 80.0 140.0 L 84.0 140.0 L 89.0 139.0 L 93.0 139.0 L 98.0 138.0 L 103.0 138.0 L 106.0 137.0 " stroke="black" fill="none" stroke-width="5.0" stroke-linecap="round" stroke-linejoin="round" />
<path d="M 74.0 162.0 L 74.0 162.0 L 74.0 162.0 L 73.0 162.0 L 73.0 162.0 L 73.0 162.0 L 73.0 162.0 L 73.0 162.0 L 73.0 162.0 L 73.0 162.0 L 73.0 162.0 L 75.0 161.0 L 77.0 161.0 L 79.0 161.0 L 83.0 161.0 L 87.0 160.0 L 91.0 160.0 L 96.0 159.0 L 100.0 159.0 L 104.0 158.0 L 107.0 157.0 L 109.0 157.0 " stroke="black" fill="none" stroke-width="5.0" stroke-linecap="round" stroke-linejoin="round" />
<path d="M 70.0 193.0 L 70.0 193.0 L 70.0 193.0 L 69.0 193.0 L 69.0 193.0 L 69.0 193.0 L 69.0 193.0 L 69.0 193.0 L 69.0 194.0 L 69.0 195.0 L 69.0 197.0 L 69.0 200.0 L 69.0 204.0 L 69.0 208.0 L 69.0 214.0 L 69.0 220.0 L 69.0 227.0 L 70.0 233.0 L 70.0 237.0 L 70.0 240.0 L 70.0 242.0 L 70.0 242.0 L 70.0 242.0 " stroke="black" fill="none" stroke-width="5.0" stroke-linecap="round" stroke-linejoin="round" />
<path d="M 73.0 199.0 L 73.0 199.0 L 73.0 199.0 L 72.0 198.0 L 72.0 198.0 L 72.0 197.0 L 72.0 197.0 L 72.0 196.0 L 72.0 196.0 L 73.0 196.0 L 73.0 195.0 L 74.0 195.0 L 75.0 195.0 L 76.0 195.0 L 77.0 194.0 L 78.0 194.0 L 79.0 194.0 L 80.0 194.0 L 81.0 194.0 L 83.0 193.0 L 84.0 193.0 L 86.0 193.0 L 88.0 193.0 L 89.0 192.0 L 91.0 192.0 L 92.0 192.0 L 94.0 192.0 L 96.0 191.0 L 97.0 191.0 L 99.0 191.0 L 100.0 190.0 L 102.0 190.0 L 103.0 189.0 L 104.0 189.0 L 105.0 189.0 L 105.0 189.0 L 106.0 189.0 L 107.0 189.0 L 107.0 189.0 L 107.0 189.0 L 107.0 189.0 L 108.0 189.0 L 108.0 189.0 L 108.0 189.0 L 108.0 189.0 L 108.0 190.0 L 108.0 190.0 L 108.0 190.0 L 108.0 191.0 L 108.0 192.0 L 108.0 193.0 L 108.0 194.0 L 108.0 196.0 L 108.0 199.0 L 108.0 202.0 L 108.0 206.0 L 108.0 210.0 L 107.0 214.0 L 107.0 219.0 L 107.0 223.0 L 106.0 226.0 L 106.0 230.0 L 106.0 232.0 L 106.0 234.0 L 106.0 236.0 L 106.0 236.0 L 106.0 237.0 " stroke="black" fill="none" stroke-width="5.0" stroke-linecap="round" stroke-linejoin="round" />
<path d="M 76.0 240.0 L 75.0 240.0 L 73.0 240.0 L 72.0 241.0 L 72.0 241.0 L 72.0 241.0 L 72.0 242.0 L 72.0 242.0 L 73.0 242.0 L 75.0 242.0 L 78.0 242.0 L 81.0 241.0 L 85.0 241.0 L 89.0 240.0 L 92.0 240.0 L 96.0 240.0 L 100.0 239.0 L 103.0 238.0 L 106.0 237.0 L 108.0 236.0 " stroke="black" fill="none" stroke-width="5.0" stroke-linecap="round" stroke-linejoin="round" />
<path d="M 148.0 87.0 L 148.0 87.0 L 148.0 87.0 L 148.0 87.0 L 148.0 87.0 L 148.0 87.0 L 148.0 86.0 L 148.0 86.0 L 148.0 86.0 L 148.0 86.0 L 148.0 86.0 L 148.0 86.0 L 148.0 86.0 L 149.0 86.0 L 149.0 85.0 L 150.0 85.0 L 150.0 85.0 L 151.0 85.0 L 153.0 85.0 L 154.0 85.0 L 156.0 85.0 L 159.0 85.0 L 162.0 85.0 L 166.0 84.0 L 169.0 84.0 L 172.0 84.0 L 175.0 84.0 L 178.0 84.0 L 180.0 84.0 L 182.0 83.0 L 184.0 83.0 L 185.0 83.0 L 186.0 83.0 L 187.0 83.0 L 188.0 83.0 L 189.0 83.0 L 190.0 83.0 L 191.0 83.0 L 191.0 83.0 L 191.0 83.0 L 191.0 83.0 L 192.0 83.0 L 192.0 83.0 L 192.0 83.0 L 193.0 83.0 L 193.0 83.0 L 193.0 83.0 L 194.0 83.0 L 194.0 83.0 L 194.0 83.0 L 195.0 83.0 L 195.0 83.0 L 196.0 84.0 L 196.0 84.0 L 197.0 84.0 L 197.0 84.0 L 198.0 84.0 L 198.0 84.0 L 199.0 84.0 L 200.0 84.0 L 201.0 84.0 L 202.0 84.0 L 202.0 84.0 L 203.0 84.0 L 204.0 84.0 L 205.0 84.0 L 206.0 84.0 L 207.0 84.0 L 208.0 84.0 L 209.0 84.0 L 210.0 84.0 L 211.0 84.0 L 212.0 84.0 L 213.0 84.0 L 214.0 84.0 L 215.0 84.0 L 216.0 84.0 L 217.0 84.0 L 218.0 84.0 L 219.0 84.0 L 220.0 84.0 L 221.0 84.0 L 222.0 84.0 L 222.0 85.0 L 223.0 85.0 L 224.0 85.0 L 225.0 85.0 L 226.0 85.0 L 226.0 85.0 L 227.0 85.0 L 228.0 85.0 L 229.0 86.0 L 229.0 86.0 L 230.0 86.0 L 230.0 86.0 L 231.0 86.0 L 231.0 86.0 L 232.0 86.0 L 232.0 86.0 " stroke="black" fill="none" stroke-width="5.0" stroke-linecap="round" stroke-linejoin="round" />
<path d="M 189.0 76.0 L 189.0 76.0 L 189.0 76.0 L 189.0 77.0 L 189.0 77.0 L 188.0 78.0 L 188.0 79.0 L 188.0 80.0 L 188.0 82.0 L 188.0 84.0 L 188.0 87.0 L 188.0 90.0 L 187.0 94.0 L 187.0 97.0 L 186.0 101.0 L 186.0 104.0 L 185.0 106.0 " stroke="black" fill="none" stroke-width="5.0" stroke-linecap="round" stroke-linejoin="round" />
<path d="M 153.0 110.0 L 153.0 110.0 L 153.0 110.0 L 153.0 110.0 L 152.0 110.0 L 152.0 110.0 L 152.0 110.0 L 152.0 110.0 L 152.0 110.0 L 152.0 110.0 L 152.0 110.0 L 152.0 110.0 L 152.0 110.0 L 152.0 110.0 L 152.0 110.0 L 152.0 110.0 L 152.0 110.0 L 152.0 110.0 L 153.0 110.0 L 153.0 110.0 L 154.0 110.0 L 154.0 110.0 L 155.0 110.0 L 155.0 110.0 L 156.0 110.0 L 156.0 110.0 L 157.0 110.0 L 157.0 110.0 L 158.0 111.0 L 159.0 111.0 L 160.0 111.0 L 160.0 111.0 L 161.0 111.0 L 162.0 111.0 L 162.0 111.0 L 163.0 111.0 L 164.0 111.0 L 164.0 111.0 L 165.0 111.0 L 166.0 111.0 L 166.0 111.0 L 167.0 111.0 L 168.0 111.0 L 169.0 111.0 L 169.0 111.0 L 170.0 111.0 L 171.0 111.0 L 171.0 111.0 L 172.0 111.0 L 173.0 111.0 L 173.0 111.0 L 174.0 111.0 L 175.0 111.0 L 175.0 111.0 L 176.0 111.0 L 177.0 111.0 L 177.0 111.0 L 178.0 111.0 L 179.0 111.0 L 180.0 111.0 L 180.0 111.0 L 181.0 111.0 L 182.0 111.0 L 183.0 111.0 L 184.0 111.0 L 184.0 111.0 L 185.0 111.0 L 186.0 111.0 L 187.0 111.0 L 187.0 111.0 L 188.0 110.0 L 189.0 110.0 L 189.0 110.0 L 190.0 110.0 L 190.0 110.0 L 191.0 110.0 L 191.0 110.0 L 192.0 109.0 L 193.0 109.0 L 193.0 109.0 L 193.0 109.0 L 194.0 109.0 L 194.0 109.0 L 195.0 109.0 L 195.0 109.0 L 196.0 109.0 L 196.0 109.0 L 197.0 109.0 L 197.0 109.0 L 198.0 109.0 L 198.0 109.0 L 199.0 109.0 L 199.0 109.0 L 200.0 109.0 L 200.0 109.0 L 201.0 109.0 L 202.0 109.0 L 202.0 109.0 L 203.0 109.0 L 204.0 109.0 L 205.0 109.0 L 206.0 109.0 L 207.0 108.0 L 209.0 108.0 L 210.0 108.0 L 211.0 108.0 L 212.0 108.0 L 214.0 108.0 L 215.0 108.0 L 216.0 108.0 L 218.0 108.0 L 219.0 108.0 L 220.0 108.0 L 221.0 108.0 L 222.0 108.0 L 223.0 108.0 L 223.0 108.0 L 224.0 108.0 " stroke="black" fill="none" stroke-width="5.0" stroke-linecap="round" stroke-linejoin="round" />
<path d="M 142.0 128.0 L 142.0 128.0 L 142.0 128.0 L 142.0 128.0 L 142.0 128.0 L 142.0 128.0 L 142.0 128.0 L 142.0 128.0 L 142.0 128.0 L 142.0 129.0 L 142.0 130.0 L 142.0 133.0 L 142.0 136.0 L 142.0 139.0 L 142.0 142.0 L 142.0 146.0 L 142.0 149.0 L 142.0 151.0 L 142.0 153.0 L 142.0 154.0 " stroke="black" fill="none" stroke-width="5.0" stroke-linecap="round" stroke-linejoin="round" />
<path d="M 145.0 130.0 L 145.0 130.0 L 145.0 130.0 L 145.0 130.0 L 145.0 130.0 L 145.0 130.0 L 145.0 130.0 L 145.0 130.0 L 145.0 130.0 L 145.0 130.0 L 145.0 130.0 L 145.0 130.0 L 145.0 130.0 L 145.0 130.0 L 145.0 130.0 L 145.0 129.0 L 145.0 129.0 L 145.0 129.0 L 145.0 129.0 L 145.0 129.0 L 145.0 129.0 L 145.0 129.0 L 145.0 129.0 L 145.0 129.0 L 145.0 129.0 L 145.0 129.0 L 145.0 129.0 L 145.0 129.0 L 145.0 129.0 L 145.0 129.0 L 146.0 129.0 L 146.0 129.0 L 146.0 129.0 L 146.0 129.0 L 146.0 129.0 L 147.0 129.0 L 147.0 129.0 L 148.0 129.0 L 148.0 129.0 L 148.0 129.0 L 149.0 129.0 L 150.0 129.0 L 150.0 129.0 L 151.0 129.0 L 151.0 129.0 L 152.0 129.0 L 152.0 129.0 L 153.0 129.0 L 153.0 129.0 L 154.0 129.0 L 155.0 129.0 L 155.0 129.0 L 156.0 129.0 L 156.0 129.0 L 157.0 129.0 L 157.0 129.0 L 158.0 129.0 L 158.0 129.0 L 159.0 129.0 L 159.0 129.0 L 160.0 129.0 L 160.0 129.0 L 160.0 129.0 L 161.0 129.0 L 161.0 129.0 L 161.0 129.0 L 162.0 129.0 L 162.0 129.0 L 162.0 129.0 L 163.0 129.0 L 163.0 129.0 L 163.0 129.0 L 164.0 129.0 L 164.0 129.0 L 164.0 129.0 L 164.0 129.0 L 165.0 129.0 L 165.0 129.0 L 165.0 129.0 L 165.0 129.0 L 166.0 129.0 L 166.0 129.0 L 166.0 129.0 L 167.0 129.0 L 167.0 129.0 L 167.0 129.0 L 168.0 129.0 L 168.0 129.0 L 169.0 129.0 L 169.0 129.0 L 170.0 129.0 L 170.0 129.0 L 171.0 129.0 L 171.0 129.0 L 172.0 129.0 L 173.0 129.0 L 173.0 129.0 L 174.0 128.0 L 174.0 128.0 L 175.0 128.0 L 175.0 128.0 L 176.0 128.0 L 177.0 128.0 L 177.0 128.0 L 178.0 128.0 L 178.0 128.0 L 179.0 127.0 L 179.0 127.0 L 180.0 127.0 L 180.0 127.0 L 181.0 127.0 L 181.0 127.0 L 182.0 127.0 L 182.0 127.0 L 183.0 127.0 L 183.0 127.0 L 184.0 126.0 L 184.0 126.0 L 185.0 126.0 L 185.0 126.0 L 186.0 126.0 L 186.0 126.0 L 186.0 126.0 L 187.0 126.0 L 187.0 125.0 L 187.0 125.0 L 188.0 125.0 L 188.0 125.0 L 188.0 125.0 L 188.0 125.0 L 189.0 125.0 L 189.0 125.0 L 189.0 125.0 L 189.0 125.0 L 189.0 125.0 L 190.0 125.0 L 190.0 125.0 L 190.0 125.0 L 190.0 125.0 L 190.0 125.0 L 190.0 125.0 L 191.0 125.0 L 191.0 125.0 L 191.0 125.0 L 191.0 125.0 L 191.0 125.0 L 191.0 125.0 L 192.0 125.0 L 192.0 125.0 L 192.0 125.0 L 192.0 125.0 L 192.0 125.0 L 192.0 125.0 L 193.0 125.0 L 193.0 125.0 L 193.0 125.0 L 193.0 125.0 L 193.0 125.0 L 194.0 125.0 L 194.0 125.0 L 194.0 125.0 L 194.0 125.0 L 194.0 125.0 L 195.0 125.0 L 195.0 125.0 L 195.0 125.0 L 195.0 125.0 L 196.0 125.0 L 196.0 125.0 L 196.0 125.0 L 196.0 125.0 L 196.0 125.0 L 197.0 125.0 L 197.0 125.0 L 197.0 125.0 L 197.0 125.0 L 198.0 125.0 L 198.0 125.0 L 198.0 125.0 L 198.0 125.0 L 199.0 125.0 L 199.0 125.0 L 199.0 125.0 L 199.0 125.0 L 200.0 125.0 L 200.0 125.0 L 200.0 125.0 L 200.0 125.0 L 200.0 125.0 L 201.0 125.0 L 201.0 125.0 L 201.0 125.0 L 202.0 125.0 L 202.0 125.0 L 202.0 125.0 L 202.0 125.0 L 203.0 125.0 L 203.0 125.0 L 203.0 125.0 L 203.0 125.0 L 204.0 125.0 L 204.0 125.0 L 204.0 125.0 L 205.0 125.0 L 205.0 125.0 L 205.0 125.0 L 205.0 125.0 L 206.0 125.0 L 206.0 125.0 L 207.0 125.0 L 207.0 125.0 L 207.0 125.0 L 208.0 125.0 L 208.0 125.0 L 208.0 125.0 L 209.0 125.0 L 209.0 125.0 L 209.0 125.0 L 210.0 125.0 L 210.0 125.0 L 210.0 125.0 L 211.0 125.0 L 211.0 125.0 L 212.0 125.0 L 212.0 125.0 L 212.0 125.0 L 213.0 125.0 L 213.0 125.0 L 214.0 125.0 L 214.0 125.0 L 214.0 125.0 L 215.0 125.0 L 215.0 125.0 L 216.0 125.0 L 216.0 125.0 L 217.0 125.0 L 217.0 125.0 L 217.0 125.0 L 218.0 125.0 L 218.0 125.0 L 219.0 125.0 L 219.0 125.0 L 219.0 125.0 L 220.0 125.0 L 220.0 125.0 L 220.0 125.0 L 221.0 125.0 L 221.0 125.0 L 221.0 125.0 L 221.0 125.0 L 222.0 125.0 L 222.0 125.0 L 222.0 125.0 L 223.0 125.0 L 223.0 125.0 L 223.0 125.0 L 223.0 125.0 L 224.0 125.0 L 224.0 125.0 L 224.0 125.0 L 224.0 125.0 L 224.0 125.0 L 225.0 125.0 L 225.0 125.0 L 225.0 125.0 L 225.0 125.0 L 225.0 125.0 L 226.0 125.0 L 226.0 125.0 L 226.0 125.0 L 226.0 125.0 L 226.0 125.0 L 226.0 125.0 L 227.0 125.0 L 227.0 125.0 L 227.0 125.0 L 227.0 126.0 L 227.0 126.0 L 227.0 127.0 L 227.0 128.0 L 227.0 128.0 L 227.0 130.0 L 227.0 131.0 L 227.0 133.0 L 227.0 134.0 L 227.0 137.0 L 227.0 139.0 L 227.0 141.0 L 227.0 143.0 L 227.0 144.0 L 227.0 146.0 L 227.0 147.0 L 227.0 147.0 L 227.0 148.0 L 227.0 148.0 " stroke="black" fill="none" stroke-width="5.0" stroke-linecap="round" stroke-linejoin="round" />
<path d="M 167.0 133.0 L 167.0 133.0 L 167.0 132.0 L 167.0 132.0 L 167.0 131.0 L 167.0 131.0 L 167.0 130.0 L 167.0 130.0 L 168.0 130.0 L 168.0 130.0 L 169.0 130.0 L 169.0 133.0 L 170.0 136.0 L 170.0 139.0 L 171.0 143.0 L 171.0 146.0 L 172.0 149.0 L 173.0 152.0 L 174.0 154.0 L 175.0 155.0 L 175.0 155.0 " stroke="black" fill="none" stroke-width="5.0" stroke-linecap="round" stroke-linejoin="round" />
<path d="M 193.0 130.0 L 193.0 130.0 L 193.0 130.0 L 193.0 130.0 L 193.0 130.0 L 193.0 130.0 L 193.0 130.0 L 193.0 131.0 L 193.0 132.0 L 193.0 134.0 L 193.0 137.0 L 193.0 140.0 L 193.0 143.0 L 193.0 146.0 L 193.0 148.0 L 193.0 150.0 L 192.0 152.0 " stroke="black" fill="none" stroke-width="5.0" stroke-linecap="round" stroke-linejoin="round" />
<path d="M 147.0 155.0 L 147.0 155.0 L 147.0 155.0 L 146.0 155.0 L 146.0 155.0 L 146.0 155.0 L 145.0 155.0 L 145.0 155.0 L 145.0 155.0 L 145.0 155.0 L 145.0 155.0 L 145.0 155.0 L 145.0 155.0 L 146.0 155.0 L 147.0 155.0 L 148.0 155.0 L 149.0 155.0 L 150.0 155.0 L 152.0 155.0 L 154.0 155.0 L 156.0 155.0 L 158.0 155.0 L 161.0 155.0 L 164.0 155.0 L 166.0 155.0 L 169.0 155.0 L 172.0 154.0 L 174.0 154.0 L 176.0 154.0 L 178.0 154.0 L 180.0 154.0 L 181.0 154.0 L 183.0 154.0 L 184.0 154.0 L 185.0 154.0 L 186.0 154.0 L 187.0 154.0 L 188.0 154.0 L 189.0 154.0 L 190.0 154.0 L 191.0 154.0 L 191.0 154.0 L 192.0 154.0 L 193.0 154.0 L 193.0 154.0 L 194.0 154.0 L 194.0 154.0 L 195.0 154.0 L 195.0 154.0 L 196.0 154.0 L 196.0 154.0 L 197.0 154.0 L 198.0 154.0 L 198.0 154.0 L 199.0 154.0 L 200.0 154.0 L 200.0 154.0 L 201.0 154.0 L 202.0 154.0 L 203.0 154.0 L 204.0 154.0 L 205.0 154.0 L 206.0 154.0 L 207.0 154.0 L 208.0 154.0 L 209.0 154.0 L 210.0 154.0 L 210.0 154.0 L 211.0 154.0 L 212.0 154.0 L 213.0 154.0 L 214.0 154.0 L 215.0 154.0 L 216.0 154.0 L 217.0 154.0 L 218.0 154.0 L 219.0 154.0 L 220.0 154.0 L 221.0 154.0 L 223.0 154.0 L 224.0 154.0 L 225.0 154.0 L 226.0 154.0 L 226.0 154.0 L 227.0 154.0 L 227.0 154.0 L 228.0 155.0 L 228.0 155.0 " stroke="black" fill="none" stroke-width="5.0" stroke-linecap="round" stroke-linejoin="round" />
<path d="M 146.0 176.0 L 146.0 176.0 L 146.0 176.0 L 146.0 176.0 L 146.0 176.0 L 146.0 176.0 L 146.0 177.0 L 146.0 177.0 L 146.0 178.0 L 146.0 180.0 L 146.0 182.0 L 146.0 185.0 L 146.0 188.0 L 146.0 192.0 L 146.0 195.0 L 145.0 201.0 L 145.0 205.0 L 145.0 209.0 L 145.0 212.0 L 145.0 214.0 L 145.0 217.0 L 145.0 219.0 L 145.0 220.0 L 145.0 221.0 L 145.0 223.0 L 146.0 223.0 L 146.0 223.0 " stroke="black" fill="none" stroke-width="5.0" stroke-linecap="round" stroke-linejoin="round" />
<path d="M 151.0 177.0 L 151.0 177.0 L 151.0 177.0 L 151.0 177.0 L 151.0 177.0 L 151.0 177.0 L 151.0 177.0 L 151.0 177.0 L 151.0 177.0 L 151.0 177.0 L 151.0 177.0 L 151.0 177.0 L 151.0 177.0 L 151.0 177.0 L 151.0 177.0 L 151.0 176.0 L 151.0 176.0 L 152.0 176.0 L 152.0 176.0 L 153.0 176.0 L 153.0 175.0 L 153.0 175.0 L 154.0 175.0 L 154.0 175.0 L 155.0 175.0 L 155.0 175.0 L 155.0 175.0 L 156.0 175.0 L 156.0 175.0 L 156.0 175.0 L 157.0 175.0 L 157.0 175.0 L 158.0 175.0 L 158.0 175.0 L 158.0 175.0 L 159.0 175.0 L 159.0 175.0 L 160.0 175.0 L 161.0 175.0 L 161.0 175.0 L 162.0 175.0 L 162.0 175.0 L 163.0 175.0 L 164.0 175.0 L 164.0 175.0 L 165.0 175.0 L 166.0 175.0 L 167.0 175.0 L 168.0 175.0 L 169.0 175.0 L 170.0 175.0 L 171.0 175.0 L 172.0 175.0 L 173.0 175.0 L 174.0 175.0 L 176.0 175.0 L 177.0 175.0 L 177.0 175.0 L 178.0 175.0 L 179.0 175.0 L 180.0 175.0 L 181.0 175.0 L 182.0 175.0 L 183.0 175.0 L 184.0 174.0 L 185.0 174.0 L 185.0 174.0 L 186.0 174.0 L 187.0 174.0 L 188.0 174.0 L 189.0 174.0 L 189.0 174.0 L 190.0 174.0 L 191.0 174.0 L 191.0 174.0 L 192.0 174.0 L 192.0 174.0 L 193.0 174.0 L 193.0 174.0 L 194.0 174.0 L 194.0 174.0 L 195.0 174.0 L 195.0 174.0 L 196.0 174.0 L 196.0 174.0 L 197.0 174.0 L 197.0 174.0 L 198.0 174.0 L 198.0 174.0 L 199.0 174.0 L 200.0 174.0 L 200.0 174.0 L 201.0 174.0 L 201.0 174.0 L 202.0 174.0 L 203.0 174.0 L 203.0 174.0 L 204.0 174.0 L 205.0 174.0 L 206.0 174.0 L 207.0 174.0 L 207.0 174.0 L 208.0 174.0 L 209.0 174.0 L 210.0 174.0 L 211.0 174.0 L 212.0 175.0 L 212.0 175.0 L 213.0 175.0 L 214.0 175.0 L 214.0 175.0 L 215.0 175.0 L 216.0 175.0 L 217.0 175.0 L 217.0 175.0 L 218.0 175.0 L 219.0 175.0 L 219.0 175.0 L 220.0 175.0 L 220.0 175.0 L 221.0 175.0 L 221.0 175.0 L 222.0 175.0 L 222.0 176.0 L 223.0 176.0 L 223.0 176.0 L 224.0 176.0 L 224.0 176.0 L 225.0 177.0 L 225.0 177.0 L 225.0 178.0 L 225.0 179.0 L 226.0 180.0 L 226.0 181.0 L 226.0 182.0 L 226.0 184.0 L 226.0 186.0 L 226.0 189.0 L 226.0 191.0 L 226.0 194.0 L 226.0 196.0 L 226.0 199.0 L 226.0 201.0 L 226.0 203.0 L 226.0 205.0 L 226.0 206.0 L 226.0 208.0 L 226.0 209.0 L 226.0 209.0 " stroke="black" fill="none" stroke-width="5.0" stroke-linecap="round" stroke-linejoin="round" />
<path d="M 161.0 191.0 L 161.0 191.0 L 161.0 191.0 L 161.0 191.0 L 161.0 191.0 L 162.0 191.0 L 162.0 191.0 L 162.0 191.0 L 162.0 191.0 " stroke="black" fill="none" stroke-width="5.0" stroke-linecap="round" stroke-linejoin="round" />
<path d="M 156.0 192.0 L 156.0 192.0 L 156.0 192.0 L 156.0 192.0 L 156.0 192.0 L 156.0 192.0 L 156.0 192.0 L 156.0 192.0 L 156.0 192.0 L 156.0 192.0 L 156.0 192.0 L 156.0 192.0 L 156.0 192.0 L 156.0 192.0 L 156.0 192.0 L 156.0 192.0 L 156.0 192.0 L 156.0 192.0 L 156.0 192.0 L 157.0 192.0 L 158.0 192.0 L 159.0 192.0 L 160.0 192.0 L 162.0 192.0 L 165.0 192.0 L 167.0 192.0 L 170.0 192.0 L 173.0 192.0 L 175.0 192.0 L 178.0 192.0 L 180.0 192.0 L 182.0 192.0 L 184.0 192.0 L 185.0 192.0 L 187.0 192.0 L 188.0 192.0 L 190.0 192.0 L 191.0 192.0 L 192.0 192.0 L 193.0 192.0 L 194.0 192.0 L 195.0 192.0 L 196.0 192.0 L 196.0 192.0 L 197.0 192.0 L 198.0 193.0 L 199.0 193.0 L 200.0 193.0 L 201.0 193.0 L 201.0 193.0 L 202.0 193.0 L 203.0 193.0 L 204.0 193.0 L 205.0 193.0 L 206.0 193.0 L 207.0 193.0 L 209.0 193.0 L 210.0 193.0 L 211.0 193.0 L 212.0 193.0 L 214.0 193.0 L 215.0 194.0 L 216.0 194.0 L 217.0 194.0 L 218.0 194.0 L 219.0 194.0 L 220.0 194.0 L 221.0 194.0 L 221.0 194.0 " stroke="black" fill="none" stroke-width="5.0" stroke-linecap="round" stroke-linejoin="round" />
<path d="M 156.0 206.0 L 156.0 206.0 L 156.0 206.0 L 156.0 206.0 L 156.0 206.0 L 156.0 206.0 L 156.0 206.0 L 156.0 206.0 L 156.0 206.0 L 156.0 206.0 L 157.0 206.0 L 158.0 205.0 L 159.0 205.0 L 160.0 205.0 L 162.0 205.0 L 165.0 205.0 L 168.0 205.0 L 171.0 205.0 L 174.0 205.0 L 177.0 205.0 L 180.0 205.0 L 183.0 205.0 L 185.0 204.0 L 188.0 204.0 L 190.0 204.0 L 192.0 204.0 L 194.0 204.0 L 195.0 203.0 L 197.0 203.0 L 198.0 203.0 L 199.0 203.0 L 201.0 203.0 L 202.0 202.0 L 204.0 202.0 L 205.0 202.0 L 207.0 202.0 L 208.0 202.0 L 209.0 202.0 L 211.0 202.0 L 212.0 202.0 " stroke="black" fill="none" stroke-width="5.0" stroke-linecap="round" stroke-linejoin="round" />
<path d="M 153.0 219.0 L 153.0 219.0 L 153.0 219.0 L 153.0 219.0 L 152.0 219.0 L 152.0 219.0 L 152.0 219.0 L 152.0 219.0 L 152.0 220.0 L 152.0 220.0 L 153.0 220.0 L 154.0 220.0 L 156.0 220.0 L 159.0 220.0 L 163.0 220.0 L 168.0 220.0 L 173.0 219.0 L 180.0 218.0 L 185.0 218.0 L 190.0 217.0 L 194.0 216.0 L 198.0 215.0 L 200.0 214.0 L 203.0 214.0 L 205.0 213.0 L 207.0 213.0 L 208.0 213.0 L 209.0 213.0 L 210.0 213.0 L 212.0 213.0 L 212.0 213.0 " stroke="black" fill="none" stroke-width="5.0" stroke-linecap="round" stroke-linejoin="round" />
<path d="M 173.0 234.0 L 173.0 234.0 L 173.0 234.0 L 173.0 234.0 L 173.0 234.0 L 173.0 234.0 L 173.0 234.0 L 173.0 233.0 L 173.0 233.0 L 173.0 233.0 L 172.0 233.0 L 171.0 234.0 L 169.0 235.0 L 166.0 237.0 L 162.0 239.0 L 158.0 241.0 L 155.0 244.0 L 151.0 246.0 L 148.0 248.0 L 145.0 250.0 L 144.0 251.0 L 144.0 251.0 " stroke="black" fill="none" stroke-width="5.0" stroke-linecap="round" stroke-linejoin="round" />
<path d="M 196.0 231.0 L 196.0 231.0 L 196.0 231.0 L 196.0 231.0 L 196.0 231.0 L 196.0 231.0 L 196.0 231.0 L 196.0 231.0 L 196.0 231.0 L 197.0 231.0 L 200.0 232.0 L 202.0 232.0 L 206.0 233.0 L 210.0 234.0 L 214.0 235.0 L 219.0 235.0 L 224.0 236.0 L 229.0 237.0 L 233.0 237.0 L 236.0 238.0 L 238.0 239.0 L 240.0 240.0 L 241.0 240.0 L 241.0 241.0 L 241.0 241.0 L 241.0 241.0 " stroke="black" fill="none" stroke-width="5.0" stroke-linecap="round" stroke-linejoin="round" />
</svg>