<svg xmlns="http://www.w3.org/2000/svg" width="300" height="300" viewBox="0 0 300 300">
<path d="M 71.0 83.0 L 71.0 83.0 L 71.0 83.0 L 71.0 83.0 L 71.0 82.0 L 71.0 82.0 L 71.0 82.0 L 71.0 82.0 L 71.0 83.0 L 71.0 85.0 L 71.0 88.0 L 71.0 92.0 L 71.0 97.0 L 71.0 104.0 L 70.0 112.0 L 70.0 120.0 L 70.0 128.0 L 70.0 137.0 L 70.0 146.0 L 70.0 154.0 L 69.0 162.0 L 69.0 169.0 L 69.0 176.0 L 69.0 182.0 L 70.0 187.0 L 70.0 191.0 L 71.0 193.0 L 71.0 194.0 L 71.0 194.0 L 71.0 194.0 L 71.0 194.0 L 71.0 193.0 L 71.0 193.0 " stroke="black" fill="none" stroke-width="5.0" stroke-linecap="round" stroke-linejoin="round" />
<path d="M 76.0 80.0 L 75.0 80.0 L 74.0 80.0 L 73.0 80.0 L 72.0 80.0 L 72.0 80.0 L 71.0 80.0 L 71.0 80.0 L 70.0 80.0 L 70.0 80.0 L 70.0 80.0 L 70.0 80.0 L 70.0 80.0 L 71.0 80.0 L 72.0 80.0 L 73.0 80.0 L 75.0 80.0 L 76.0 80.0 L 78.0 80.0 L 80.0 80.0 L 82.0 81.0 L 85.0 81.0 L 88.0 81.0 L 91.0 81.0 L 94.0 81.0 L 97.0 81.0 L 100.0 81.0 L 103.0 81.0 L 105.0 81.0 L 107.0 81.0 L 108.0 81.0 L 110.0 81.0 L 111.0 81.0 L 112.0 81.0 L 112.0 81.0 L 113.0 81.0 L 113.0 81.0 L 114.0 81.0 L 114.0 81.0 L 114.0 81.0 L 114.0 82.0 L 114.0 83.0 L 114.0 84.0 L 114.0 84.0 L 114.0 85.0 L 114.0 87.0 L 114.0 88.0 L 114.0 89.0 L 114.0 91.0 L 114.0 93.0 L 115.0 96.0 L 115.0 100.0 L 115.0 104.0 L 115.0 108.0 L 115.0 113.0 L 115.0 118.0 L 115.0 123.0 L 115.0 128.0 L 115.0 133.0 L 115.0 138.0 L 115.0 143.0 L 115.0 147.0 L 115.0 150.0 L 115.0 154.0 L 115.0 157.0 L 116.0 159.0 L 116.0 162.0 L 116.0 165.0 L 116.0 167.0 L 116.0 170.0 L 116.0 172.0 L 116.0 175.0 L 116.0 177.0 L 116.0 179.0 L 116.0 181.0 L 116.0 183.0 L 115.0 185.0 L 115.0 187.0 L 115.0 189.0 L 115.0 191.0 L 115.0 193.0 L 115.0 194.0 L 115.0 195.0 L 115.0 196.0 L 115.0 197.0 L 115.0 199.0 L 115.0 200.0 L 115.0 201.0 L 115.0 203.0 L 115.0 204.0 L 115.0 205.0 L 115.0 206.0 L 115.0 207.0 L 115.0 207.0 L 115.0 207.0 L 115.0 207.0 L 115.0 207.0 L 115.0 205.0 " stroke="black" fill="none" stroke-width="5.0" stroke-linecap="round" stroke-linejoin="round" />
<path d="M 73.0 125.0 L 72.0 125.0 L 71.0 125.0 L 70.0 125.0 L 70.0 125.0 L 70.0 125.0 L 70.0 125.0 L 71.0 125.0 L 73.0 125.0 L 75.0 124.0 L 79.0 124.0 L 81.0 124.0 L 87.0 124.0 L 93.0 124.0 L 98.0 124.0 L 103.0 124.0 L 108.0 124.0 L 112.0 124.0 L 115.0 124.0 " stroke="black" fill="none" stroke-width="5.0" stroke-linecap="round" stroke-linejoin="round" />
<path d="M 75.0 155.0 L 75.0 155.0 L 74.0 155.0 L 73.0 155.0 L 73.0 155.0 L 73.0 155.0 L 73.0 155.0 L 75.0 155.0 L 77.0 155.0 L 81.0 155.0 L 86.0 156.0 L 91.0 156.0 L 97.0 156.0 L 102.0 156.0 L 107.0 156.0 L 112.0 155.0 L 115.0 155.0 L 117.0 155.0 " stroke="black" fill="none" stroke-width="5.0" stroke-linecap="round" stroke-linejoin="round" />
<path d="M 72.0 197.0 L 72.0 197.0 L 72.0 197.0 L 71.0 197.0 L 71.0 197.0 L 71.0 197.0 L 71.0 198.0 L 71.0 198.0 L 73.0 198.0 L 76.0 198.0 L 80.0 198.0 L 86.0 198.0 L 92.0 198.0 L 98.0 198.0 L 103.0 198.0 L 108.0 198.0 L 113.0 198.0 L 116.0 198.0 L 118.0 199.0 " stroke="black" fill="none" stroke-width="5.0" stroke-linecap="round" stroke-linejoin="round" />
<path d="M 87.0 211.0 L 87.0 211.0 L 87.0 211.0 L 87.0 211.0 L 87.0 211.0 L 86.0 211.0 L 85.0 213.0 L 83.0 216.0 L 82.0 219.0 L 80.0 225.0 L 77.0 231.0 L 74.0 237.0 L 72.0 242.0 L 69.0 246.0 L 67.0 249.0 L 67.0 249.0 " stroke="black" fill="none" stroke-width="5.0" stroke-linecap="round" stroke-linejoin="round" />
<path d="M 107.0 209.0 L 107.0 209.0 L 107.0 210.0 L 107.0 210.0 L 106.0 211.0 L 106.0 211.0 L 106.0 212.0 L 106.0 214.0 L 107.0 216.0 L 109.0 219.0 L 112.0 223.0 L 114.0 228.0 L 118.0 233.0 L 121.0 237.0 L 125.0 242.0 L 126.0 244.0 " stroke="black" fill="none" stroke-width="5.0" stroke-linecap="round" stroke-linejoin="round" />
<path d="M 153.0 83.0 L 153.0 83.0 L 153.0 83.0 L 153.0 83.0 L 153.0 84.0 L 152.0 84.0 L 152.0 85.0 L 152.0 88.0 L 152.0 91.0 L 152.0 96.0 L 152.0 103.0 L 153.0 111.0 L 153.0 118.0 L 153.0 125.0 L 154.0 132.0 L 154.0 138.0 L 154.0 144.0 L 154.0 147.0 L 154.0 148.0 L 154.0 148.0 " stroke="black" fill="none" stroke-width="5.0" stroke-linecap="round" stroke-linejoin="round" />
<path d="M 156.0 82.0 L 156.0 82.0 L 156.0 82.0 L 155.0 82.0 L 155.0 82.0 L 154.0 82.0 L 154.0 82.0 L 154.0 83.0 L 153.0 83.0 L 153.0 83.0 L 153.0 83.0 L 153.0 83.0 L 153.0 83.0 L 153.0 83.0 L 154.0 83.0 L 154.0 83.0 L 154.0 83.0 L 155.0 82.0 L 155.0 82.0 L 156.0 82.0 L 157.0 82.0 L 158.0 82.0 L 159.0 82.0 L 160.0 81.0 L 162.0 81.0 L 163.0 81.0 L 164.0 80.0 L 166.0 80.0 L 168.0 80.0 L 169.0 80.0 L 171.0 79.0 L 172.0 79.0 L 173.0 79.0 L 175.0 79.0 L 176.0 79.0 L 177.0 79.0 L 178.0 79.0 L 179.0 79.0 L 180.0 79.0 L 180.0 79.0 L 181.0 79.0 L 182.0 79.0 L 183.0 79.0 L 183.0 79.0 L 184.0 79.0 L 185.0 79.0 L 185.0 79.0 L 186.0 79.0 L 187.0 79.0 L 187.0 79.0 L 188.0 79.0 L 188.0 80.0 L 189.0 80.0 L 189.0 80.0 L 189.0 80.0 L 190.0 80.0 L 190.0 80.0 L 191.0 80.0 L 191.0 80.0 L 192.0 80.0 L 192.0 80.0 L 193.0 80.0 L 193.0 80.0 L 193.0 80.0 L 194.0 80.0 L 194.0 80.0 L 195.0 80.0 L 195.0 80.0 L 196.0 80.0 L 196.0 80.0 L 197.0 80.0 L 197.0 80.0 L 198.0 80.0 L 198.0 80.0 L 199.0 80.0 L 200.0 80.0 L 200.0 80.0 L 201.0 80.0 L 202.0 80.0 L 202.0 80.0 L 203.0 80.0 L 204.0 81.0 L 204.0 81.0 L 205.0 81.0 L 206.0 81.0 L 207.0 81.0 L 207.0 81.0 L 208.0 81.0 L 209.0 81.0 L 210.0 82.0 L 211.0 82.0 L 212.0 82.0 L 212.0 82.0 L 213.0 82.0 L 214.0 82.0 L 215.0 82.0 L 216.0 82.0 L 217.0 82.0 L 217.0 82.0 L 218.0 82.0 L 219.0 83.0 L 220.0 83.0 L 221.0 83.0 L 222.0 83.0 L 223.0 83.0 L 223.0 83.0 L 224.0 83.0 L 225.0 84.0 L 226.0 84.0 L 226.0 84.0 L 227.0 84.0 L 228.0 84.0 L 228.0 85.0 L 229.0 85.0 L 229.0 85.0 L 229.0 85.0 L 230.0 85.0 L 230.0 86.0 L 230.0 86.0 L 230.0 87.0 L 230.0 87.0 L 230.0 88.0 L 230.0 89.0 L 230.0 91.0 L 230.0 92.0 L 230.0 95.0 L 230.0 98.0 L 230.0 101.0 L 230.0 105.0 L 230.0 109.0 L 230.0 112.0 L 230.0 116.0 L 230.0 120.0 L 229.0 123.0 L 229.0 126.0 L 229.0 128.0 L 229.0 130.0 L 229.0 132.0 L 229.0 134.0 L 229.0 136.0 L 229.0 138.0 L 229.0 140.0 L 229.0 142.0 L 229.0 143.0 L 229.0 145.0 L 229.0 145.0 L 229.0 146.0 L 229.0 146.0 " stroke="black" fill="none" stroke-width="5.0" stroke-linecap="round" stroke-linejoin="round" />
<path d="M 158.0 112.0 L 158.0 112.0 L 158.0 112.0 L 158.0 112.0 L 158.0 112.0 L 158.0 112.0 L 158.0 112.0 L 158.0 112.0 L 158.0 112.0 L 158.0 112.0 L 159.0 112.0 L 161.0 112.0 L 164.0 112.0 L 168.0 112.0 L 173.0 112.0 L 179.0 113.0 L 186.0 113.0 L 192.0 113.0 L 198.0 112.0 L 204.0 110.0 L 209.0 109.0 L 214.0 107.0 L 218.0 107.0 L 220.0 107.0 L 221.0 108.0 " stroke="black" fill="none" stroke-width="5.0" stroke-linecap="round" stroke-linejoin="round" />
<path d="M 159.0 143.0 L 159.0 143.0 L 158.0 143.0 L 157.0 144.0 L 157.0 144.0 L 156.0 144.0 L 156.0 144.0 L 156.0 144.0 L 156.0 144.0 L 156.0 144.0 L 156.0 144.0 L 157.0 144.0 L 159.0 144.0 L 161.0 144.0 L 164.0 144.0 L 168.0 144.0 L 173.0 144.0 L 178.0 144.0 L 184.0 144.0 L 190.0 144.0 L 196.0 144.0 L 202.0 143.0 L 209.0 143.0 L 215.0 142.0 L 220.0 142.0 L 224.0 142.0 L 227.0 143.0 L 229.0 144.0 L 229.0 146.0 " stroke="black" fill="none" stroke-width="5.0" stroke-linecap="round" stroke-linejoin="round" />
<path d="M 166.0 155.0 L 166.0 154.0 L 166.0 154.0 L 166.0 153.0 L 166.0 152.0 L 165.0 151.0 L 165.0 151.0 L 165.0 151.0 L 165.0 151.0 L 165.0 151.0 L 165.0 151.0 L 165.0 152.0 L 165.0 154.0 L 164.0 155.0 L 164.0 157.0 L 163.0 159.0 L 162.0 162.0 L 160.0 164.0 L 158.0 167.0 L 156.0 171.0 L 154.0 174.0 L 152.0 178.0 L 150.0 182.0 L 147.0 185.0 L 144.0 189.0 L 142.0 191.0 L 139.0 194.0 L 139.0 194.0 " stroke="black" fill="none" stroke-width="5.0" stroke-linecap="round" stroke-linejoin="round" />
<path d="M 161.0 172.0 L 161.0 172.0 L 161.0 172.0 L 161.0 172.0 L 161.0 172.0 L 161.0 172.0 L 160.0 172.0 L 160.0 172.0 L 160.0 172.0 L 160.0 172.0 L 159.0 172.0 L 159.0 172.0 L 159.0 172.0 L 159.0 172.0 L 158.0 172.0 L 158.0 172.0 L 158.0 172.0 L 158.0 172.0 L 158.0 172.0 L 158.0 172.0 L 158.0 172.0 L 159.0 172.0 L 159.0 172.0 L 160.0 172.0 L 162.0 172.0 L 163.0 172.0 L 164.0 172.0 L 165.0 172.0 L 167.0 172.0 L 168.0 172.0 L 170.0 172.0 L 172.0 172.0 L 174.0 172.0 L 175.0 172.0 L 177.0 172.0 L 179.0 172.0 L 180.0 172.0 L 182.0 172.0 L 183.0 172.0 L 184.0 172.0 L 185.0 172.0 L 186.0 172.0 L 187.0 172.0 L 189.0 172.0 L 190.0 172.0 L 191.0 172.0 L 191.0 172.0 L 192.0 172.0 L 193.0 172.0 L 194.0 172.0 L 194.0 172.0 L 194.0 172.0 L 195.0 172.0 L 195.0 172.0 L 196.0 172.0 L 196.0 172.0 L 197.0 172.0 L 198.0 172.0 L 198.0 172.0 L 199.0 172.0 L 199.0 172.0 L 200.0 172.0 L 201.0 172.0 L 202.0 172.0 L 202.0 172.0 L 203.0 172.0 L 204.0 172.0 L 204.0 172.0 L 205.0 172.0 L 206.0 172.0 L 207.0 172.0 L 208.0 172.0 L 209.0 172.0 L 209.0 172.0 L 210.0 172.0 L 211.0 172.0 L 212.0 172.0 L 213.0 172.0 L 213.0 171.0 L 214.0 171.0 L 215.0 171.0 L 216.0 171.0 L 216.0 171.0 L 217.0 171.0 L 218.0 171.0 L 219.0 171.0 L 219.0 171.0 L 220.0 171.0 L 221.0 171.0 L 221.0 171.0 L 222.0 171.0 L 223.0 171.0 L 223.0 171.0 L 224.0 171.0 L 225.0 171.0 L 226.0 171.0 L 226.0 171.0 L 227.0 171.0 L 228.0 171.0 L 229.0 171.0 L 229.0 171.0 L 230.0 172.0 L 231.0 172.0 L 231.0 172.0 L 232.0 172.0 L 233.0 172.0 L 234.0 172.0 L 234.0 172.0 L 235.0 172.0 L 236.0 173.0 L 236.0 173.0 L 237.0 173.0 L 237.0 173.0 L 238.0 173.0 L 238.0 173.0 L 239.0 173.0 L 239.0 173.0 L 239.0 173.0 L 240.0 174.0 L 240.0 174.0 L 240.0 174.0 L 240.0 175.0 L 240.0 175.0 L 240.0 176.0 L 240.0 177.0 L 240.0 178.0 L 240.0 180.0 L 240.0 181.0 L 240.0 183.0 L 240.0 185.0 L 239.0 187.0 L 239.0 189.0 L 239.0 192.0 L 239.0 195.0 L 238.0 197.0 L 238.0 200.0 L 238.0 202.0 L 238.0 205.0 L 237.0 207.0 L 237.0 210.0 L 237.0 212.0 L 237.0 214.0 L 236.0 216.0 L 236.0 217.0 L 236.0 219.0 L 235.0 221.0 L 235.0 223.0 L 234.0 225.0 L 234.0 227.0 L 233.0 229.0 L 233.0 231.0 L 232.0 233.0 L 232.0 234.0 L 232.0 235.0 L 231.0 237.0 L 231.0 237.0 L 231.0 238.0 L 230.0 239.0 L 230.0 240.0 L 229.0 241.0 L 229.0 242.0 L 229.0 243.0 L 228.0 244.0 L 228.0 245.0 L 227.0 246.0 L 227.0 247.0 L 227.0 247.0 L 226.0 248.0 L 226.0 249.0 L 226.0 250.0 L 225.0 250.0 L 225.0 251.0 L 225.0 251.0 L 224.0 252.0 L 224.0 252.0 L 223.0 253.0 L 223.0 253.0 L 223.0 254.0 L 222.0 254.0 L 222.0 254.0 L 221.0 254.0 L 221.0 254.0 L 220.0 254.0 L 219.0 254.0 L 217.0 254.0 L 216.0 254.0 L 214.0 254.0 L 212.0 254.0 L 209.0 254.0 L 207.0 253.0 L 204.0 252.0 L 202.0 251.0 L 199.0 250.0 L 197.0 248.0 L 196.0 247.0 " stroke="black" fill="none" stroke-width="5.0" stroke-linecap="round" stroke-linejoin="round" />
<path d="M 183.0 175.0 L 183.0 175.0 L 183.0 175.0 L 183.0 175.0 L 184.0 175.0 L 184.0 174.0 L 184.0 174.0 L 184.0 174.0 L 184.0 174.0 L 184.0 175.0 L 184.0 177.0 L 183.0 179.0 L 182.0 183.0 L 180.0 186.0 L 179.0 190.0 L 176.0 195.0 L 174.0 198.0 L 171.0 202.0 L 168.0 206.0 L 165.0 209.0 L 162.0 211.0 L 159.0 214.0 L 156.0 216.0 L 153.0 218.0 L 151.0 220.0 L 149.0 222.0 L 147.0 223.0 L 146.0 224.0 L 145.0 225.0 L 145.0 225.0 " stroke="black" fill="none" stroke-width="5.0" stroke-linecap="round" stroke-linejoin="round" />
<path d="M 208.0 179.0 L 208.0 179.0 L 209.0 178.0 L 209.0 178.0 L 210.0 177.0 L 210.0 177.0 L 211.0 176.0 L 211.0 176.0 L 211.0 176.0 L 211.0 176.0 L 211.0 177.0 L 210.0 179.0 L 209.0 181.0 L 208.0 183.0 L 207.0 185.0 L 207.0 188.0 L 206.0 190.0 L 205.0 192.0 L 204.0 195.0 L 202.0 198.0 L 201.0 201.0 L 199.0 204.0 L 198.0 208.0 L 196.0 212.0 L 194.0 216.0 L 193.0 220.0 L 191.0 224.0 L 189.0 229.0 L 188.0 232.0 L 186.0 235.0 L 183.0 239.0 L 181.0 242.0 L 178.0 245.0 L 175.0 248.0 L 172.0 250.0 L 169.0 252.0 L 167.0 253.0 L 165.0 254.0 L 163.0 254.0 L 161.0 255.0 L 160.0 255.0 " stroke="black" fill="none" stroke-width="5.0" stroke-linecap="round" stroke-linejoin="round" />
</svg>