<svg xmlns="http://www.w3.org/2000/svg" width="300" height="300" viewBox="0 0 300 300">
<path d="M 113.0 78.0 L 113.0 78.0 L 113.0 78.0 L 113.0 78.0 L 112.0 78.0 L 112.0 78.0 L 112.0 78.0 L 112.0 78.0 L 111.0 78.0 L 111.0 78.0 L 110.0 78.0 L 110.0 79.0 L 109.0 80.0 L 107.0 81.0 L 105.0 83.0 L 102.0 86.0 L 97.0 89.0 L 91.0 93.0 L 84.0 97.0 L 77.0 100.0 L 72.0 102.0 L 67.0 104.0 " stroke="black" fill="none" stroke-width="5.0" stroke-linecap="round" stroke-linejoin="round" />
<path d="M 70.0 115.0 L 70.0 115.0 L 70.0 115.0 L 69.0 114.0 L 69.0 114.0 L 69.0 114.0 L 69.0 114.0 L 69.0 114.0 L 69.0 114.0 L 70.0 115.0 L 72.0 116.0 L 74.0 118.0 L 77.0 121.0 L 80.0 123.0 L 84.0 125.0 L 88.0 127.0 " stroke="black" fill="none" stroke-width="5.0" stroke-linecap="round" stroke-linejoin="round" />
<path d="M 102.0 107.0 L 102.0 107.0 L 101.0 107.0 L 101.0 107.0 L 100.0 107.0 L 100.0 107.0 L 101.0 108.0 L 102.0 108.0 L 104.0 109.0 L 106.0 110.0 L 108.0 111.0 L 110.0 112.0 L 111.0 113.0 " stroke="black" fill="none" stroke-width="5.0" stroke-linecap="round" stroke-linejoin="round" />
<path d="M 121.0 109.0 L 122.0 109.0 L 124.0 108.0 L 125.0 108.0 L 126.0 107.0 L 126.0 107.0 L 126.0 107.0 L 126.0 107.0 L 126.0 108.0 L 125.0 109.0 L 124.0 111.0 L 122.0 113.0 L 120.0 115.0 L 118.0 117.0 L 116.0 119.0 L 113.0 122.0 L 109.0 125.0 L 105.0 129.0 L 100.0 133.0 L 93.0 137.0 L 84.0 141.0 L 75.0 145.0 L 68.0 148.0 L 63.0 150.0 L 60.0 152.0 L 59.0 152.0 " stroke="black" fill="none" stroke-width="5.0" stroke-linecap="round" stroke-linejoin="round" />
<path d="M 103.0 130.0 L 103.0 130.0 L 103.0 130.0 L 103.0 130.0 L 103.0 130.0 L 103.0 130.0 L 103.0 130.0 L 103.0 131.0 L 103.0 131.0 L 103.0 132.0 L 103.0 133.0 L 103.0 134.0 L 104.0 135.0 L 105.0 137.0 L 106.0 139.0 L 106.0 141.0 L 107.0 144.0 L 108.0 146.0 L 109.0 149.0 L 110.0 152.0 L 111.0 154.0 L 112.0 157.0 L 114.0 160.0 L 115.0 163.0 L 117.0 166.0 L 118.0 169.0 L 120.0 172.0 L 121.0 175.0 L 122.0 179.0 L 123.0 183.0 L 123.0 187.0 L 123.0 190.0 L 123.0 193.0 L 123.0 196.0 L 123.0 198.0 L 123.0 201.0 L 122.0 203.0 L 121.0 206.0 L 121.0 209.0 L 120.0 213.0 L 119.0 217.0 L 118.0 220.0 L 116.0 224.0 L 115.0 228.0 L 114.0 232.0 L 113.0 235.0 L 112.0 237.0 L 111.0 239.0 L 110.0 241.0 L 110.0 242.0 L 109.0 242.0 L 108.0 243.0 L 107.0 243.0 L 106.0 244.0 L 104.0 244.0 L 103.0 245.0 L 101.0 245.0 L 99.0 245.0 L 97.0 245.0 L 95.0 244.0 L 93.0 242.0 L 92.0 240.0 " stroke="black" fill="none" stroke-width="5.0" stroke-linecap="round" stroke-linejoin="round" />
<path d="M 112.0 154.0 L 112.0 154.0 L 112.0 154.0 L 112.0 154.0 L 112.0 154.0 L 112.0 154.0 L 111.0 154.0 L 110.0 154.0 L 109.0 156.0 L 107.0 158.0 L 105.0 161.0 L 101.0 164.0 L 95.0 169.0 L 87.0 174.0 L 80.0 179.0 L 74.0 183.0 L 70.0 186.0 L 68.0 186.0 L 68.0 186.0 " stroke="black" fill="none" stroke-width="5.0" stroke-linecap="round" stroke-linejoin="round" />
<path d="M 123.0 173.0 L 123.0 174.0 L 122.0 175.0 L 121.0 175.0 L 121.0 176.0 L 121.0 177.0 L 120.0 178.0 L 120.0 180.0 L 118.0 182.0 L 117.0 184.0 L 114.0 187.0 L 110.0 190.0 L 105.0 195.0 L 98.0 200.0 L 88.0 206.0 L 77.0 211.0 L 68.0 216.0 L 63.0 219.0 " stroke="black" fill="none" stroke-width="5.0" stroke-linecap="round" stroke-linejoin="round" />
<path d="M 193.0 78.0 L 193.0 78.0 L 193.0 78.0 L 193.0 78.0 L 193.0 78.0 L 193.0 78.0 L 192.0 78.0 L 192.0 78.0 L 191.0 80.0 L 190.0 82.0 L 189.0 85.0 L 187.0 90.0 L 184.0 95.0 L 183.0 98.0 " stroke="black" fill="none" stroke-width="5.0" stroke-linecap="round" stroke-linejoin="round" />
<path d="M 154.0 103.0 L 154.0 103.0 L 154.0 103.0 L 153.0 103.0 L 153.0 103.0 L 153.0 103.0 L 152.0 104.0 L 152.0 104.0 L 152.0 105.0 L 152.0 107.0 L 152.0 109.0 L 152.0 112.0 L 152.0 115.0 L 153.0 119.0 L 153.0 124.0 L 153.0 130.0 L 153.0 136.0 L 154.0 143.0 L 154.0 150.0 L 154.0 156.0 L 154.0 162.0 L 154.0 166.0 L 153.0 169.0 L 153.0 171.0 L 153.0 172.0 L 153.0 172.0 L 153.0 171.0 " stroke="black" fill="none" stroke-width="5.0" stroke-linecap="round" stroke-linejoin="round" />
<path d="M 166.0 107.0 L 166.0 107.0 L 165.0 107.0 L 164.0 106.0 L 164.0 106.0 L 163.0 106.0 L 163.0 106.0 L 163.0 106.0 L 163.0 105.0 L 164.0 105.0 L 165.0 104.0 L 166.0 104.0 L 167.0 104.0 L 169.0 103.0 L 171.0 103.0 L 173.0 103.0 L 176.0 103.0 L 178.0 102.0 L 182.0 102.0 L 185.0 102.0 L 189.0 101.0 L 193.0 101.0 L 196.0 101.0 L 199.0 101.0 L 203.0 101.0 L 206.0 101.0 L 209.0 101.0 L 213.0 101.0 L 216.0 101.0 L 218.0 102.0 L 221.0 102.0 L 222.0 102.0 L 223.0 103.0 L 224.0 103.0 L 224.0 105.0 L 224.0 106.0 L 224.0 109.0 L 224.0 112.0 L 223.0 115.0 L 222.0 120.0 L 221.0 125.0 L 221.0 131.0 L 220.0 138.0 L 219.0 145.0 L 219.0 151.0 L 219.0 157.0 L 218.0 161.0 L 218.0 163.0 L 217.0 164.0 L 216.0 164.0 L 216.0 164.0 " stroke="black" fill="none" stroke-width="5.0" stroke-linecap="round" stroke-linejoin="round" />
<path d="M 165.0 130.0 L 164.0 130.0 L 162.0 130.0 L 160.0 130.0 L 159.0 130.0 L 159.0 130.0 L 159.0 130.0 L 159.0 130.0 L 164.0 130.0 L 169.0 130.0 L 175.0 130.0 L 182.0 130.0 L 188.0 130.0 L 194.0 129.0 L 201.0 129.0 L 207.0 128.0 L 213.0 127.0 " stroke="black" fill="none" stroke-width="5.0" stroke-linecap="round" stroke-linejoin="round" />
<path d="M 163.0 171.0 L 163.0 171.0 L 161.0 171.0 L 159.0 171.0 L 158.0 171.0 L 157.0 171.0 L 156.0 171.0 L 156.0 171.0 L 156.0 170.0 L 156.0 170.0 L 158.0 170.0 L 160.0 170.0 L 164.0 170.0 L 169.0 170.0 L 175.0 170.0 L 182.0 169.0 L 188.0 168.0 L 194.0 168.0 L 201.0 167.0 L 207.0 166.0 L 213.0 166.0 L 219.0 166.0 " stroke="black" fill="none" stroke-width="5.0" stroke-linecap="round" stroke-linejoin="round" />
<path d="M 177.0 182.0 L 176.0 182.0 L 176.0 182.0 L 175.0 182.0 L 175.0 182.0 L 174.0 182.0 L 174.0 182.0 L 174.0 183.0 L 174.0 185.0 L 174.0 187.0 L 174.0 189.0 L 174.0 193.0 L 173.0 197.0 L 171.0 202.0 L 169.0 207.0 L 166.0 213.0 L 162.0 220.0 L 159.0 226.0 L 156.0 232.0 L 153.0 238.0 L 151.0 241.0 L 149.0 243.0 L 147.0 244.0 L 145.0 244.0 " stroke="black" fill="none" stroke-width="5.0" stroke-linecap="round" stroke-linejoin="round" />
<path d="M 200.0 177.0 L 200.0 177.0 L 200.0 177.0 L 200.0 177.0 L 199.0 178.0 L 199.0 178.0 L 199.0 178.0 L 199.0 179.0 L 199.0 180.0 L 199.0 181.0 L 199.0 183.0 L 199.0 185.0 L 199.0 188.0 L 199.0 191.0 L 199.0 196.0 L 199.0 200.0 L 199.0 204.0 L 199.0 209.0 L 198.0 213.0 L 198.0 217.0 L 198.0 222.0 L 197.0 225.0 L 197.0 229.0 L 197.0 232.0 L 197.0 234.0 L 197.0 236.0 L 197.0 237.0 L 197.0 238.0 L 197.0 239.0 L 197.0 240.0 L 198.0 240.0 L 198.0 241.0 L 198.0 241.0 L 198.0 242.0 L 198.0 242.0 L 198.0 243.0 L 199.0 243.0 L 199.0 244.0 L 199.0 244.0 L 200.0 244.0 L 200.0 245.0 L 200.0 245.0 L 201.0 245.0 L 201.0 245.0 L 202.0 246.0 L 203.0 246.0 L 204.0 246.0 L 205.0 247.0 L 207.0 247.0 L 209.0 247.0 L 211.0 247.0 L 214.0 248.0 L 217.0 248.0 L 220.0 249.0 L 224.0 249.0 L 227.0 249.0 L 230.0 249.0 L 232.0 249.0 L 234.0 249.0 L 235.0 249.0 L 236.0 249.0 L 237.0 248.0 L 237.0 248.0 L 237.0 247.0 L 237.0 247.0 L 237.0 245.0 L 237.0 244.0 L 237.0 241.0 L 236.0 237.0 L 236.0 231.0 L 236.0 224.0 L 236.0 216.0 L 236.0 209.0 " stroke="black" fill="none" stroke-width="5.0" stroke-linecap="round" stroke-linejoin="round" />
</svg>