<svg xmlns="http://www.w3.org/2000/svg" width="300" height="300" viewBox="0 0 300 300">
<path d="M 136.0 71.0 L 136.0 71.0 L 136.0 71.0 L 136.0 71.0 L 136.0 70.0 L 137.0 70.0 L 137.0 70.0 L 137.0 70.0 L 137.0 70.0 L 137.0 70.0 L 137.0 70.0 L 136.0 70.0 L 135.0 70.0 L 134.0 70.0 L 133.0 71.0 L 132.0 71.0 L 131.0 72.0 L 129.0 72.0 L 128.0 73.0 L 126.0 74.0 L 125.0 74.0 L 124.0 75.0 L 122.0 76.0 L 121.0 76.0 L 120.0 77.0 L 118.0 77.0 L 117.0 78.0 L 116.0 78.0 L 114.0 78.0 L 113.0 79.0 L 112.0 79.0 L 110.0 79.0 L 109.0 80.0 L 108.0 80.0 L 107.0 80.0 L 106.0 81.0 L 105.0 81.0 L 104.0 81.0 L 103.0 81.0 L 102.0 81.0 L 101.0 81.0 L 99.0 81.0 L 98.0 81.0 L 96.0 81.0 L 95.0 81.0 L 93.0 82.0 L 92.0 82.0 L 90.0 82.0 L 89.0 82.0 L 87.0 83.0 L 86.0 83.0 L 85.0 83.0 L 84.0 83.0 L 83.0 83.0 L 83.0 83.0 L 82.0 83.0 L 81.0 83.0 L 81.0 84.0 L 81.0 84.0 L 80.0 84.0 L 80.0 84.0 L 80.0 85.0 L 80.0 85.0 L 80.0 85.0 L 80.0 85.0 L 80.0 85.0 L 80.0 85.0 L 80.0 85.0 L 81.0 86.0 L 81.0 86.0 L 81.0 87.0 L 82.0 87.0 L 82.0 88.0 L 82.0 89.0 L 83.0 89.0 L 83.0 90.0 L 83.0 91.0 L 84.0 93.0 L 84.0 94.0 L 84.0 96.0 L 84.0 98.0 L 84.0 100.0 L 84.0 103.0 L 84.0 105.0 L 84.0 108.0 L 84.0 110.0 L 84.0 112.0 L 84.0 114.0 L 84.0 116.0 L 83.0 118.0 L 82.0 121.0 L 81.0 123.0 L 79.0 125.0 L 78.0 127.0 L 76.0 129.0 L 74.0 130.0 L 74.0 131.0 L 71.0 133.0 L 70.0 134.0 L 69.0 134.0 " stroke="black" fill="none" stroke-width="5.0" stroke-linecap="round" stroke-linejoin="round" />
<path d="M 91.0 105.0 L 90.0 105.0 L 88.0 105.0 L 86.0 105.0 L 85.0 105.0 L 85.0 105.0 L 85.0 105.0 L 85.0 105.0 L 85.0 105.0 L 86.0 105.0 L 87.0 105.0 L 88.0 105.0 L 89.0 105.0 L 91.0 105.0 L 93.0 105.0 L 95.0 105.0 L 98.0 105.0 L 101.0 105.0 L 104.0 105.0 L 108.0 104.0 L 113.0 103.0 L 119.0 102.0 L 124.0 101.0 L 129.0 100.0 L 134.0 99.0 L 137.0 98.0 L 139.0 97.0 L 140.0 96.0 L 140.0 96.0 L 140.0 96.0 " stroke="black" fill="none" stroke-width="5.0" stroke-linecap="round" stroke-linejoin="round" />
<path d="M 117.0 104.0 L 117.0 104.0 L 117.0 104.0 L 116.0 105.0 L 116.0 105.0 L 116.0 106.0 L 116.0 108.0 L 115.0 110.0 L 115.0 113.0 L 115.0 117.0 L 114.0 121.0 L 113.0 125.0 L 113.0 129.0 L 112.0 132.0 L 112.0 135.0 L 112.0 136.0 " stroke="black" fill="none" stroke-width="5.0" stroke-linecap="round" stroke-linejoin="round" />
<path d="M 213.0 73.0 L 213.0 73.0 L 214.0 73.0 L 214.0 73.0 L 215.0 72.0 L 216.0 72.0 L 216.0 71.0 L 217.0 71.0 L 217.0 71.0 L 217.0 70.0 L 217.0 70.0 L 217.0 70.0 L 217.0 70.0 L 216.0 71.0 L 216.0 71.0 L 215.0 71.0 L 214.0 72.0 L 213.0 72.0 L 212.0 72.0 L 211.0 73.0 L 210.0 73.0 L 209.0 73.0 L 207.0 74.0 L 206.0 75.0 L 204.0 76.0 L 202.0 77.0 L 200.0 78.0 L 197.0 79.0 L 195.0 80.0 L 192.0 81.0 L 190.0 82.0 L 187.0 83.0 L 184.0 84.0 L 182.0 85.0 L 179.0 85.0 L 176.0 86.0 L 173.0 87.0 L 170.0 87.0 L 168.0 88.0 L 166.0 88.0 L 164.0 89.0 L 163.0 89.0 L 163.0 89.0 L 162.0 89.0 L 162.0 89.0 L 162.0 89.0 L 162.0 89.0 L 162.0 89.0 L 163.0 89.0 L 163.0 89.0 L 164.0 89.0 L 164.0 89.0 L 164.0 89.0 L 165.0 89.0 L 165.0 90.0 L 166.0 90.0 L 166.0 90.0 L 166.0 90.0 L 167.0 90.0 L 167.0 90.0 L 168.0 91.0 L 168.0 91.0 L 169.0 91.0 L 169.0 91.0 L 170.0 92.0 L 170.0 93.0 L 170.0 93.0 L 171.0 95.0 L 171.0 96.0 L 171.0 98.0 L 171.0 101.0 L 170.0 104.0 L 169.0 107.0 L 168.0 110.0 L 166.0 113.0 L 165.0 115.0 L 163.0 118.0 L 162.0 120.0 L 160.0 122.0 L 158.0 123.0 L 158.0 124.0 L 157.0 124.0 L 157.0 124.0 L 157.0 123.0 " stroke="black" fill="none" stroke-width="5.0" stroke-linecap="round" stroke-linejoin="round" />
<path d="M 178.0 103.0 L 177.0 103.0 L 175.0 104.0 L 175.0 104.0 L 174.0 105.0 L 174.0 105.0 L 174.0 105.0 L 174.0 105.0 L 174.0 105.0 L 175.0 105.0 L 175.0 105.0 L 177.0 105.0 L 178.0 105.0 L 179.0 105.0 L 181.0 105.0 L 183.0 105.0 L 185.0 105.0 L 187.0 105.0 L 189.0 105.0 L 192.0 105.0 L 195.0 105.0 L 198.0 105.0 L 202.0 104.0 L 206.0 104.0 L 210.0 103.0 L 214.0 103.0 L 218.0 102.0 L 221.0 102.0 L 224.0 102.0 L 227.0 101.0 L 228.0 101.0 L 229.0 101.0 L 229.0 101.0 L 229.0 101.0 L 229.0 101.0 L 229.0 102.0 L 229.0 102.0 " stroke="black" fill="none" stroke-width="5.0" stroke-linecap="round" stroke-linejoin="round" />
<path d="M 206.0 107.0 L 206.0 107.0 L 206.0 107.0 L 206.0 107.0 L 206.0 107.0 L 206.0 107.0 L 206.0 107.0 L 206.0 108.0 L 205.0 109.0 L 205.0 112.0 L 204.0 114.0 L 204.0 118.0 L 203.0 121.0 L 203.0 125.0 L 202.0 128.0 " stroke="black" fill="none" stroke-width="5.0" stroke-linecap="round" stroke-linejoin="round" />
<path d="M 97.0 146.0 L 97.0 146.0 L 97.0 146.0 L 96.0 146.0 L 96.0 146.0 L 96.0 146.0 L 95.0 146.0 L 95.0 147.0 L 95.0 148.0 L 95.0 150.0 L 95.0 152.0 L 95.0 156.0 L 95.0 161.0 L 95.0 167.0 L 94.0 175.0 L 94.0 184.0 L 93.0 192.0 L 93.0 199.0 L 93.0 204.0 L 93.0 206.0 L 93.0 206.0 " stroke="black" fill="none" stroke-width="5.0" stroke-linecap="round" stroke-linejoin="round" />
<path d="M 102.0 149.0 L 102.0 149.0 L 102.0 149.0 L 102.0 150.0 L 102.0 150.0 L 102.0 150.0 L 102.0 150.0 L 102.0 150.0 L 101.0 150.0 L 101.0 150.0 L 101.0 150.0 L 101.0 150.0 L 101.0 150.0 L 101.0 150.0 L 101.0 150.0 L 101.0 150.0 L 101.0 150.0 L 101.0 150.0 L 101.0 150.0 L 101.0 150.0 L 101.0 150.0 L 101.0 150.0 L 101.0 150.0 L 101.0 150.0 L 101.0 150.0 L 101.0 150.0 L 101.0 150.0 L 101.0 150.0 L 101.0 150.0 L 102.0 150.0 L 102.0 150.0 L 102.0 150.0 L 103.0 150.0 L 103.0 150.0 L 104.0 150.0 L 104.0 150.0 L 105.0 150.0 L 105.0 150.0 L 106.0 150.0 L 106.0 150.0 L 107.0 150.0 L 107.0 150.0 L 108.0 150.0 L 109.0 150.0 L 109.0 150.0 L 110.0 150.0 L 110.0 150.0 L 111.0 150.0 L 111.0 150.0 L 112.0 150.0 L 112.0 150.0 L 113.0 150.0 L 113.0 150.0 L 114.0 150.0 L 114.0 150.0 L 115.0 150.0 L 116.0 150.0 L 116.0 150.0 L 117.0 150.0 L 117.0 150.0 L 118.0 150.0 L 118.0 150.0 L 119.0 150.0 L 120.0 150.0 L 120.0 150.0 L 121.0 150.0 L 122.0 149.0 L 123.0 149.0 L 123.0 149.0 L 124.0 149.0 L 125.0 149.0 L 126.0 149.0 L 126.0 149.0 L 127.0 149.0 L 128.0 149.0 L 129.0 149.0 L 130.0 149.0 L 130.0 148.0 L 131.0 148.0 L 132.0 148.0 L 133.0 148.0 L 134.0 148.0 L 135.0 148.0 L 136.0 148.0 L 137.0 148.0 L 137.0 147.0 L 138.0 147.0 L 139.0 147.0 L 140.0 147.0 L 140.0 147.0 L 141.0 147.0 L 142.0 147.0 L 142.0 147.0 L 143.0 147.0 L 143.0 147.0 L 143.0 147.0 L 144.0 147.0 L 144.0 147.0 L 145.0 147.0 L 145.0 147.0 L 146.0 147.0 L 146.0 148.0 L 147.0 148.0 L 147.0 148.0 L 148.0 148.0 L 148.0 148.0 L 149.0 148.0 L 150.0 148.0 L 150.0 148.0 L 151.0 148.0 L 151.0 148.0 L 152.0 148.0 L 152.0 148.0 L 152.0 148.0 L 153.0 148.0 L 153.0 148.0 L 153.0 148.0 L 154.0 148.0 L 154.0 148.0 L 154.0 148.0 L 155.0 148.0 L 155.0 148.0 L 155.0 148.0 L 156.0 149.0 L 156.0 149.0 L 157.0 149.0 L 157.0 149.0 L 157.0 149.0 L 158.0 149.0 L 158.0 149.0 L 159.0 149.0 L 159.0 149.0 L 160.0 149.0 L 160.0 149.0 L 161.0 149.0 L 161.0 149.0 L 162.0 149.0 L 162.0 149.0 L 163.0 149.0 L 163.0 149.0 L 164.0 149.0 L 165.0 149.0 L 166.0 149.0 L 167.0 149.0 L 168.0 149.0 L 169.0 149.0 L 170.0 149.0 L 171.0 149.0 L 172.0 149.0 L 173.0 149.0 L 174.0 149.0 L 175.0 149.0 L 176.0 149.0 L 177.0 149.0 L 178.0 149.0 L 178.0 149.0 L 179.0 149.0 L 180.0 149.0 L 181.0 149.0 L 182.0 149.0 L 182.0 149.0 L 183.0 149.0 L 184.0 149.0 L 185.0 149.0 L 185.0 149.0 L 186.0 149.0 L 186.0 149.0 L 187.0 149.0 L 187.0 149.0 L 188.0 149.0 L 188.0 149.0 L 189.0 149.0 L 189.0 149.0 L 189.0 149.0 L 190.0 149.0 L 190.0 149.0 L 191.0 149.0 L 191.0 149.0 L 191.0 149.0 L 192.0 149.0 L 192.0 149.0 L 192.0 149.0 L 193.0 149.0 L 193.0 149.0 L 193.0 149.0 L 193.0 149.0 L 194.0 149.0 L 194.0 149.0 L 194.0 149.0 L 195.0 149.0 L 195.0 149.0 L 195.0 149.0 L 196.0 149.0 L 196.0 149.0 L 196.0 149.0 L 196.0 149.0 L 197.0 149.0 L 197.0 149.0 L 198.0 149.0 L 198.0 149.0 L 198.0 149.0 L 199.0 149.0 L 199.0 149.0 L 199.0 149.0 L 200.0 149.0 L 200.0 149.0 L 200.0 149.0 L 200.0 149.0 L 201.0 149.0 L 201.0 149.0 L 201.0 150.0 L 202.0 150.0 L 202.0 150.0 L 202.0 150.0 L 202.0 151.0 L 202.0 151.0 L 202.0 152.0 L 202.0 153.0 L 202.0 155.0 L 202.0 157.0 L 202.0 159.0 L 202.0 161.0 L 202.0 163.0 L 202.0 166.0 L 202.0 168.0 L 202.0 171.0 L 202.0 173.0 L 202.0 176.0 L 201.0 178.0 L 201.0 181.0 L 201.0 184.0 L 201.0 186.0 L 201.0 189.0 L 201.0 192.0 L 202.0 194.0 L 202.0 197.0 L 203.0 198.0 L 204.0 200.0 L 204.0 202.0 L 204.0 203.0 L 204.0 204.0 L 204.0 205.0 L 204.0 206.0 L 204.0 207.0 L 203.0 208.0 L 203.0 209.0 L 203.0 210.0 L 202.0 211.0 L 202.0 211.0 L 202.0 211.0 L 202.0 212.0 L 202.0 212.0 L 202.0 212.0 L 202.0 212.0 L 202.0 212.0 L 202.0 212.0 L 202.0 212.0 L 202.0 213.0 L 202.0 213.0 L 202.0 213.0 L 202.0 213.0 L 202.0 214.0 L 202.0 214.0 L 201.0 214.0 L 201.0 213.0 L 201.0 213.0 " stroke="black" fill="none" stroke-width="5.0" stroke-linecap="round" stroke-linejoin="round" />
<path d="M 105.0 168.0 L 105.0 168.0 L 104.0 168.0 L 104.0 168.0 L 104.0 168.0 L 103.0 168.0 L 103.0 168.0 L 103.0 168.0 L 103.0 168.0 L 102.0 168.0 L 102.0 168.0 L 102.0 168.0 L 101.0 168.0 L 101.0 168.0 L 101.0 168.0 L 101.0 169.0 L 100.0 169.0 L 100.0 169.0 L 100.0 169.0 L 100.0 169.0 L 100.0 169.0 L 100.0 169.0 L 100.0 169.0 L 100.0 169.0 L 101.0 169.0 L 102.0 169.0 L 102.0 169.0 L 103.0 169.0 L 104.0 169.0 L 105.0 168.0 L 106.0 168.0 L 107.0 168.0 L 109.0 168.0 L 110.0 168.0 L 111.0 168.0 L 113.0 167.0 L 114.0 167.0 L 116.0 167.0 L 117.0 167.0 L 118.0 167.0 L 119.0 167.0 L 121.0 167.0 L 122.0 167.0 L 123.0 167.0 L 124.0 167.0 L 126.0 167.0 L 127.0 167.0 L 128.0 167.0 L 129.0 167.0 L 130.0 167.0 L 131.0 167.0 L 131.0 167.0 L 132.0 167.0 L 133.0 167.0 L 134.0 167.0 L 135.0 167.0 L 135.0 168.0 L 136.0 168.0 L 137.0 168.0 L 138.0 168.0 L 139.0 168.0 L 140.0 168.0 L 141.0 168.0 L 142.0 168.0 L 143.0 168.0 L 144.0 168.0 L 145.0 168.0 L 146.0 168.0 L 147.0 169.0 L 147.0 169.0 L 148.0 169.0 L 149.0 169.0 L 150.0 169.0 L 150.0 170.0 L 151.0 170.0 L 152.0 170.0 L 152.0 171.0 L 152.0 171.0 L 153.0 171.0 L 153.0 171.0 L 154.0 171.0 L 154.0 171.0 L 154.0 171.0 L 155.0 171.0 L 155.0 172.0 L 156.0 172.0 L 156.0 172.0 L 157.0 172.0 L 157.0 172.0 L 158.0 172.0 L 158.0 172.0 L 159.0 172.0 L 160.0 172.0 L 160.0 172.0 L 161.0 172.0 L 161.0 172.0 L 162.0 172.0 L 163.0 172.0 L 164.0 172.0 L 164.0 172.0 L 165.0 172.0 L 166.0 172.0 L 166.0 172.0 L 167.0 172.0 L 168.0 172.0 L 169.0 172.0 L 170.0 172.0 L 171.0 172.0 L 172.0 172.0 L 174.0 172.0 L 175.0 172.0 L 176.0 172.0 L 177.0 172.0 L 178.0 172.0 L 180.0 172.0 L 181.0 172.0 L 183.0 172.0 L 184.0 172.0 L 185.0 172.0 L 187.0 172.0 L 188.0 172.0 L 189.0 172.0 L 191.0 172.0 L 191.0 172.0 L 192.0 172.0 L 193.0 172.0 L 194.0 172.0 L 195.0 172.0 L 196.0 172.0 L 196.0 172.0 L 196.0 172.0 L 196.0 172.0 " stroke="black" fill="none" stroke-width="5.0" stroke-linecap="round" stroke-linejoin="round" />
<path d="M 102.0 195.0 L 102.0 195.0 L 102.0 194.0 L 102.0 194.0 L 102.0 193.0 L 102.0 193.0 L 103.0 193.0 L 103.0 193.0 L 103.0 193.0 L 104.0 193.0 L 104.0 193.0 L 105.0 193.0 L 106.0 193.0 L 108.0 194.0 L 109.0 194.0 L 112.0 194.0 L 116.0 194.0 L 120.0 194.0 L 126.0 194.0 L 131.0 194.0 L 137.0 194.0 L 142.0 194.0 L 146.0 194.0 L 150.0 194.0 L 153.0 194.0 L 156.0 194.0 L 159.0 194.0 L 164.0 193.0 L 168.0 192.0 L 172.0 191.0 L 177.0 190.0 L 181.0 189.0 L 184.0 188.0 L 187.0 187.0 L 189.0 187.0 L 189.0 187.0 L 190.0 187.0 L 190.0 188.0 " stroke="black" fill="none" stroke-width="5.0" stroke-linecap="round" stroke-linejoin="round" />
<path d="M 96.0 216.0 L 96.0 216.0 L 96.0 216.0 L 96.0 216.0 L 95.0 217.0 L 95.0 217.0 L 95.0 217.0 L 95.0 217.0 L 95.0 217.0 L 95.0 217.0 L 95.0 217.0 L 95.0 217.0 L 96.0 217.0 L 97.0 217.0 L 98.0 217.0 L 98.0 217.0 L 99.0 217.0 L 100.0 217.0 L 101.0 217.0 L 101.0 217.0 L 102.0 217.0 L 103.0 217.0 L 103.0 217.0 L 104.0 217.0 L 105.0 217.0 L 105.0 217.0 L 106.0 217.0 L 107.0 217.0 L 107.0 218.0 L 108.0 218.0 L 108.0 218.0 L 109.0 218.0 L 109.0 218.0 L 110.0 218.0 L 110.0 218.0 L 111.0 219.0 L 111.0 219.0 L 112.0 219.0 L 112.0 219.0 L 113.0 219.0 L 113.0 220.0 L 114.0 220.0 L 114.0 220.0 L 115.0 220.0 L 115.0 220.0 L 116.0 220.0 L 116.0 220.0 L 117.0 220.0 L 117.0 220.0 L 118.0 221.0 L 118.0 221.0 L 119.0 221.0 L 120.0 221.0 L 120.0 221.0 L 121.0 221.0 L 122.0 221.0 L 123.0 221.0 L 123.0 221.0 L 124.0 221.0 L 125.0 221.0 L 126.0 221.0 L 127.0 221.0 L 128.0 221.0 L 129.0 221.0 L 129.0 221.0 L 130.0 221.0 L 131.0 221.0 L 132.0 220.0 L 133.0 220.0 L 134.0 220.0 L 135.0 220.0 L 136.0 220.0 L 137.0 220.0 L 137.0 220.0 L 138.0 220.0 L 138.0 220.0 L 139.0 220.0 L 139.0 220.0 L 140.0 220.0 L 141.0 220.0 L 141.0 220.0 L 142.0 220.0 L 142.0 220.0 L 143.0 220.0 L 144.0 220.0 L 144.0 220.0 L 144.0 220.0 L 145.0 220.0 L 146.0 220.0 L 146.0 220.0 L 146.0 220.0 L 147.0 220.0 L 147.0 220.0 L 148.0 220.0 L 148.0 220.0 L 148.0 220.0 L 149.0 220.0 L 149.0 220.0 L 149.0 220.0 L 150.0 220.0 L 150.0 220.0 L 150.0 220.0 L 151.0 220.0 L 151.0 220.0 L 151.0 220.0 L 152.0 220.0 L 152.0 220.0 L 153.0 220.0 L 153.0 220.0 L 153.0 220.0 L 154.0 220.0 L 155.0 220.0 L 155.0 220.0 L 155.0 220.0 L 156.0 220.0 L 157.0 220.0 L 157.0 220.0 L 158.0 220.0 L 159.0 220.0 L 160.0 220.0 L 161.0 220.0 L 162.0 220.0 L 163.0 220.0 L 164.0 220.0 L 165.0 220.0 L 166.0 220.0 L 167.0 220.0 L 168.0 220.0 L 169.0 220.0 L 169.0 220.0 L 170.0 220.0 L 171.0 220.0 L 172.0 220.0 L 172.0 220.0 L 173.0 220.0 L 174.0 220.0 L 175.0 220.0 L 176.0 220.0 L 176.0 220.0 L 177.0 220.0 L 178.0 220.0 L 179.0 220.0 L 179.0 220.0 L 180.0 220.0 L 181.0 220.0 L 182.0 220.0 L 182.0 220.0 L 183.0 220.0 L 184.0 220.0 L 185.0 220.0 L 185.0 220.0 L 186.0 220.0 L 187.0 220.0 L 187.0 221.0 L 188.0 221.0 L 189.0 221.0 L 190.0 221.0 L 190.0 221.0 L 191.0 221.0 L 192.0 221.0 L 193.0 221.0 L 193.0 222.0 L 194.0 222.0 L 194.0 222.0 L 195.0 222.0 L 195.0 222.0 L 195.0 222.0 " stroke="black" fill="none" stroke-width="5.0" stroke-linecap="round" stroke-linejoin="round" />
<path d="M 117.0 233.0 L 117.0 234.0 L 116.0 234.0 L 114.0 235.0 L 113.0 235.0 L 112.0 236.0 L 110.0 237.0 L 109.0 238.0 L 107.0 239.0 L 104.0 241.0 L 100.0 243.0 L 96.0 245.0 L 90.0 248.0 L 84.0 250.0 L 78.0 253.0 L 73.0 256.0 " stroke="black" fill="none" stroke-width="5.0" stroke-linecap="round" stroke-linejoin="round" />
<path d="M 182.0 237.0 L 181.0 237.0 L 179.0 237.0 L 178.0 237.0 L 177.0 237.0 L 177.0 237.0 L 176.0 237.0 L 176.0 237.0 L 176.0 237.0 L 176.0 237.0 L 177.0 238.0 L 178.0 238.0 L 180.0 239.0 L 182.0 241.0 L 185.0 242.0 L 187.0 244.0 L 190.0 245.0 L 193.0 247.0 L 198.0 249.0 L 202.0 250.0 L 208.0 252.0 L 215.0 253.0 L 220.0 254.0 L 225.0 254.0 L 229.0 255.0 L 230.0 255.0 L 231.0 256.0 L 232.0 257.0 L 232.0 257.0 L 232.0 258.0 " stroke="black" fill="none" stroke-width="5.0" stroke-linecap="round" stroke-linejoin="round" />
</svg>