<svg xmlns="http://www.w3.org/2000/svg" width="300" height="300" viewBox="0 0 300 300">
<path d="M 77.0 86.0 L 76.0 85.0 L 74.0 84.0 L 74.0 84.0 L 73.0 84.0 L 73.0 84.0 L 73.0 84.0 L 75.0 86.0 L 78.0 89.0 L 80.0 92.0 L 84.0 96.0 L 87.0 100.0 L 90.0 104.0 L 93.0 108.0 L 95.0 111.0 L 97.0 113.0 " stroke="black" fill="none" stroke-width="5.0" stroke-linecap="round" stroke-linejoin="round" />
<path d="M 83.0 80.0 L 82.0 80.0 L 80.0 79.0 L 79.0 79.0 L 79.0 79.0 L 79.0 79.0 L 79.0 79.0 L 80.0 79.0 L 82.0 79.0 L 85.0 79.0 L 89.0 79.0 L 92.0 79.0 L 96.0 79.0 L 101.0 79.0 L 105.0 79.0 L 110.0 79.0 L 116.0 80.0 L 124.0 80.0 L 134.0 80.0 L 143.0 80.0 L 151.0 80.0 L 159.0 80.0 L 165.0 80.0 L 172.0 80.0 L 180.0 80.0 L 185.0 81.0 L 190.0 82.0 L 195.0 82.0 L 197.0 83.0 L 200.0 84.0 L 203.0 84.0 L 205.0 85.0 L 208.0 85.0 L 210.0 85.0 L 211.0 86.0 L 211.0 87.0 L 211.0 87.0 L 211.0 88.0 L 211.0 89.0 L 210.0 90.0 L 209.0 91.0 L 208.0 93.0 L 206.0 96.0 L 204.0 100.0 L 201.0 103.0 L 199.0 107.0 L 197.0 111.0 L 196.0 112.0 " stroke="black" fill="none" stroke-width="5.0" stroke-linecap="round" stroke-linejoin="round" />
<path d="M 132.0 85.0 L 132.0 85.0 L 129.0 85.0 L 128.0 85.0 L 126.0 85.0 L 125.0 86.0 L 125.0 87.0 L 124.0 90.0 L 124.0 93.0 L 124.0 98.0 L 125.0 102.0 L 127.0 106.0 L 129.0 109.0 L 133.0 111.0 L 135.0 112.0 " stroke="black" fill="none" stroke-width="5.0" stroke-linecap="round" stroke-linejoin="round" />
<path d="M 166.0 87.0 L 165.0 87.0 L 164.0 88.0 L 163.0 89.0 L 162.0 90.0 L 160.0 92.0 L 159.0 95.0 L 157.0 98.0 L 155.0 102.0 L 153.0 107.0 L 152.0 111.0 L 150.0 115.0 L 148.0 119.0 L 147.0 120.0 " stroke="black" fill="none" stroke-width="5.0" stroke-linecap="round" stroke-linejoin="round" />
<path d="M 107.0 113.0 L 107.0 113.0 L 105.0 113.0 L 103.0 113.0 L 101.0 113.0 L 99.0 113.0 L 98.0 113.0 L 98.0 114.0 L 98.0 114.0 L 98.0 114.0 L 101.0 114.0 L 104.0 115.0 L 110.0 116.0 L 117.0 116.0 L 128.0 116.0 L 139.0 117.0 L 151.0 117.0 L 163.0 116.0 L 175.0 116.0 L 185.0 115.0 L 193.0 115.0 L 198.0 115.0 L 200.0 116.0 " stroke="black" fill="none" stroke-width="5.0" stroke-linecap="round" stroke-linejoin="round" />
<path d="M 102.0 146.0 L 102.0 146.0 L 102.0 147.0 L 101.0 148.0 L 101.0 150.0 L 101.0 153.0 L 101.0 157.0 L 101.0 163.0 L 101.0 170.0 L 102.0 179.0 L 102.0 189.0 L 102.0 198.0 L 102.0 205.0 L 102.0 210.0 L 102.0 212.0 L 102.0 212.0 " stroke="black" fill="none" stroke-width="5.0" stroke-linecap="round" stroke-linejoin="round" />
<path d="M 111.0 142.0 L 111.0 142.0 L 111.0 141.0 L 110.0 141.0 L 110.0 140.0 L 109.0 139.0 L 109.0 139.0 L 109.0 138.0 L 110.0 137.0 L 111.0 137.0 L 113.0 137.0 L 116.0 136.0 L 120.0 136.0 L 125.0 137.0 L 131.0 137.0 L 138.0 138.0 L 146.0 139.0 L 152.0 139.0 L 159.0 139.0 L 167.0 139.0 L 175.0 139.0 L 183.0 139.0 L 190.0 138.0 L 195.0 138.0 L 198.0 138.0 L 200.0 140.0 L 201.0 141.0 L 202.0 143.0 L 202.0 145.0 L 202.0 147.0 L 202.0 149.0 L 202.0 151.0 L 201.0 153.0 L 200.0 156.0 L 199.0 159.0 L 198.0 164.0 L 196.0 169.0 L 195.0 175.0 L 194.0 182.0 L 193.0 188.0 L 193.0 195.0 L 192.0 200.0 L 192.0 204.0 L 192.0 206.0 L 191.0 207.0 " stroke="black" fill="none" stroke-width="5.0" stroke-linecap="round" stroke-linejoin="round" />
<path d="M 109.0 171.0 L 108.0 170.0 L 106.0 170.0 L 106.0 169.0 L 105.0 169.0 L 105.0 168.0 L 106.0 168.0 L 109.0 168.0 L 113.0 168.0 L 120.0 168.0 L 129.0 168.0 L 140.0 168.0 L 149.0 166.0 L 159.0 165.0 L 169.0 163.0 L 178.0 162.0 L 185.0 161.0 L 191.0 161.0 " stroke="black" fill="none" stroke-width="5.0" stroke-linecap="round" stroke-linejoin="round" />
<path d="M 117.0 196.0 L 116.0 196.0 L 112.0 197.0 L 109.0 197.0 L 108.0 198.0 L 107.0 199.0 L 107.0 199.0 L 108.0 199.0 L 111.0 200.0 L 116.0 200.0 L 123.0 200.0 L 131.0 200.0 L 140.0 200.0 L 149.0 200.0 L 157.0 199.0 L 164.0 197.0 L 173.0 196.0 L 180.0 195.0 L 183.0 194.0 " stroke="black" fill="none" stroke-width="5.0" stroke-linecap="round" stroke-linejoin="round" />
<path d="M 114.0 217.0 L 112.0 217.0 L 108.0 217.0 L 105.0 218.0 L 104.0 218.0 L 103.0 219.0 L 103.0 220.0 L 103.0 220.0 L 105.0 220.0 L 108.0 220.0 L 113.0 220.0 L 120.0 220.0 L 130.0 219.0 L 140.0 217.0 L 149.0 216.0 L 158.0 214.0 L 166.0 213.0 L 174.0 212.0 L 181.0 212.0 L 185.0 213.0 L 186.0 214.0 " stroke="black" fill="none" stroke-width="5.0" stroke-linecap="round" stroke-linejoin="round" />
<path d="M 147.0 223.0 L 146.0 223.0 L 144.0 223.0 L 142.0 223.0 L 139.0 223.0 L 137.0 224.0 L 133.0 226.0 L 128.0 228.0 L 123.0 230.0 L 116.0 234.0 L 109.0 238.0 L 103.0 242.0 L 98.0 245.0 L 91.0 249.0 L 87.0 252.0 " stroke="black" fill="none" stroke-width="5.0" stroke-linecap="round" stroke-linejoin="round" />
<path d="M 173.0 236.0 L 173.0 236.0 L 172.0 236.0 L 172.0 236.0 L 172.0 236.0 L 175.0 237.0 L 179.0 239.0 L 185.0 241.0 L 191.0 243.0 L 199.0 245.0 L 207.0 246.0 L 215.0 247.0 L 222.0 248.0 L 228.0 249.0 L 231.0 250.0 " stroke="black" fill="none" stroke-width="5.0" stroke-linecap="round" stroke-linejoin="round" />
</svg>