<svg xmlns="http://www.w3.org/2000/svg" width="300" height="300" viewBox="0 0 300 300">
<path d="M 115.0 82.0 L 115.0 82.0 L 115.0 81.0 L 114.0 81.0 L 114.0 81.0 L 114.0 81.0 L 114.0 81.0 L 114.0 82.0 L 114.0 85.0 L 114.0 90.0 L 114.0 95.0 L 114.0 101.0 L 114.0 107.0 L 114.0 109.0 " stroke="black" fill="none" stroke-width="5.0" stroke-linecap="round" stroke-linejoin="round" />
<path d="M 120.0 80.0 L 120.0 80.0 L 120.0 80.0 L 119.0 80.0 L 119.0 80.0 L 119.0 80.0 L 119.0 80.0 L 118.0 80.0 L 118.0 80.0 L 118.0 80.0 L 118.0 80.0 L 118.0 80.0 L 118.0 80.0 L 118.0 80.0 L 118.0 80.0 L 118.0 80.0 L 118.0 80.0 L 118.0 80.0 L 119.0 79.0 L 119.0 79.0 L 120.0 79.0 L 121.0 79.0 L 122.0 79.0 L 122.0 79.0 L 123.0 79.0 L 124.0 79.0 L 125.0 79.0 L 126.0 79.0 L 127.0 79.0 L 128.0 79.0 L 129.0 79.0 L 130.0 79.0 L 131.0 79.0 L 132.0 79.0 L 133.0 79.0 L 134.0 79.0 L 135.0 79.0 L 135.0 79.0 L 136.0 79.0 L 137.0 79.0 L 138.0 79.0 L 139.0 79.0 L 140.0 79.0 L 141.0 79.0 L 141.0 79.0 L 142.0 79.0 L 143.0 79.0 L 143.0 79.0 L 144.0 79.0 L 145.0 79.0 L 146.0 79.0 L 146.0 79.0 L 147.0 79.0 L 148.0 79.0 L 148.0 79.0 L 149.0 79.0 L 150.0 79.0 L 150.0 79.0 L 151.0 79.0 L 151.0 79.0 L 152.0 79.0 L 152.0 79.0 L 152.0 79.0 L 153.0 79.0 L 153.0 79.0 L 154.0 79.0 L 154.0 79.0 L 155.0 79.0 L 155.0 79.0 L 156.0 79.0 L 156.0 79.0 L 157.0 79.0 L 157.0 79.0 L 158.0 79.0 L 159.0 79.0 L 159.0 79.0 L 160.0 79.0 L 161.0 79.0 L 161.0 79.0 L 162.0 79.0 L 163.0 79.0 L 164.0 79.0 L 164.0 79.0 L 165.0 79.0 L 166.0 79.0 L 166.0 79.0 L 167.0 79.0 L 168.0 79.0 L 169.0 79.0 L 169.0 79.0 L 170.0 79.0 L 171.0 79.0 L 171.0 79.0 L 172.0 79.0 L 173.0 79.0 L 174.0 79.0 L 174.0 79.0 L 175.0 79.0 L 176.0 79.0 L 177.0 79.0 L 177.0 79.0 L 178.0 79.0 L 179.0 79.0 L 180.0 79.0 L 180.0 79.0 L 181.0 79.0 L 182.0 79.0 L 182.0 79.0 L 183.0 79.0 L 184.0 79.0 L 185.0 79.0 L 185.0 79.0 L 186.0 79.0 L 187.0 79.0 L 188.0 79.0 L 188.0 79.0 L 189.0 79.0 L 190.0 79.0 L 190.0 79.0 L 191.0 79.0 L 191.0 79.0 L 192.0 79.0 L 192.0 79.0 L 192.0 79.0 L 193.0 79.0 L 193.0 79.0 L 194.0 79.0 L 194.0 79.0 L 194.0 79.0 L 195.0 79.0 L 195.0 79.0 L 195.0 79.0 L 196.0 79.0 L 196.0 79.0 L 196.0 79.0 L 197.0 79.0 L 197.0 79.0 L 197.0 79.0 L 198.0 79.0 L 198.0 79.0 L 198.0 79.0 L 199.0 79.0 L 199.0 79.0 L 199.0 79.0 L 200.0 79.0 L 200.0 79.0 L 201.0 79.0 L 201.0 79.0 L 202.0 79.0 L 202.0 79.0 L 203.0 79.0 L 204.0 79.0 L 204.0 79.0 L 205.0 79.0 L 205.0 79.0 L 206.0 79.0 L 207.0 79.0 L 207.0 79.0 L 208.0 79.0 L 209.0 79.0 L 209.0 79.0 L 210.0 79.0 L 211.0 79.0 L 212.0 79.0 L 212.0 79.0 L 213.0 79.0 L 214.0 79.0 L 215.0 79.0 L 216.0 79.0 L 216.0 79.0 L 217.0 79.0 L 218.0 79.0 L 218.0 79.0 L 219.0 79.0 L 220.0 79.0 L 220.0 79.0 L 221.0 79.0 L 221.0 79.0 L 222.0 79.0 L 222.0 79.0 L 223.0 79.0 L 223.0 79.0 L 224.0 79.0 L 225.0 79.0 L 225.0 79.0 L 226.0 79.0 L 226.0 79.0 L 227.0 79.0 L 227.0 79.0 L 228.0 79.0 L 228.0 79.0 L 229.0 79.0 L 229.0 79.0 L 230.0 79.0 L 230.0 79.0 L 231.0 79.0 L 231.0 79.0 L 232.0 79.0 L 232.0 79.0 L 232.0 79.0 L 233.0 79.0 L 233.0 79.0 L 234.0 79.0 L 234.0 79.0 L 234.0 79.0 L 235.0 79.0 L 235.0 79.0 L 235.0 79.0 L 235.0 79.0 L 235.0 79.0 L 235.0 79.0 L 235.0 79.0 L 235.0 79.0 L 235.0 79.0 L 235.0 80.0 L 235.0 81.0 L 235.0 82.0 L 234.0 83.0 L 234.0 85.0 L 234.0 87.0 L 233.0 90.0 L 232.0 93.0 L 232.0 96.0 L 231.0 100.0 L 231.0 103.0 L 230.0 106.0 L 230.0 108.0 L 230.0 110.0 L 230.0 111.0 " stroke="black" fill="none" stroke-width="5.0" stroke-linecap="round" stroke-linejoin="round" />
<path d="M 142.0 113.0 L 142.0 113.0 L 141.0 113.0 L 140.0 113.0 L 140.0 113.0 L 139.0 113.0 L 139.0 113.0 L 139.0 113.0 L 139.0 113.0 L 139.0 113.0 L 140.0 113.0 L 141.0 113.0 L 143.0 113.0 L 146.0 112.0 L 148.0 112.0 L 152.0 112.0 L 155.0 112.0 L 160.0 112.0 L 166.0 111.0 L 172.0 111.0 L 178.0 110.0 L 185.0 110.0 L 190.0 109.0 L 193.0 109.0 L 197.0 109.0 L 199.0 109.0 L 200.0 109.0 L 202.0 109.0 L 203.0 109.0 L 205.0 109.0 L 206.0 109.0 " stroke="black" fill="none" stroke-width="5.0" stroke-linecap="round" stroke-linejoin="round" />
<path d="M 135.0 139.0 L 135.0 139.0 L 134.0 139.0 L 134.0 139.0 L 134.0 139.0 L 134.0 139.0 L 134.0 139.0 L 134.0 141.0 L 134.0 144.0 L 134.0 148.0 L 135.0 153.0 L 136.0 158.0 L 137.0 164.0 L 138.0 168.0 L 138.0 173.0 L 139.0 176.0 L 139.0 178.0 L 139.0 180.0 L 139.0 180.0 " stroke="black" fill="none" stroke-width="5.0" stroke-linecap="round" stroke-linejoin="round" />
<path d="M 141.0 138.0 L 141.0 138.0 L 141.0 138.0 L 140.0 138.0 L 140.0 138.0 L 139.0 138.0 L 139.0 138.0 L 139.0 138.0 L 138.0 138.0 L 138.0 138.0 L 138.0 137.0 L 138.0 137.0 L 139.0 137.0 L 139.0 137.0 L 140.0 136.0 L 141.0 136.0 L 142.0 136.0 L 143.0 136.0 L 144.0 136.0 L 145.0 136.0 L 146.0 136.0 L 147.0 136.0 L 148.0 136.0 L 148.0 136.0 L 149.0 136.0 L 150.0 136.0 L 151.0 136.0 L 152.0 136.0 L 153.0 136.0 L 153.0 136.0 L 154.0 136.0 L 155.0 136.0 L 156.0 136.0 L 156.0 136.0 L 157.0 136.0 L 158.0 136.0 L 159.0 136.0 L 160.0 136.0 L 161.0 136.0 L 162.0 136.0 L 164.0 136.0 L 165.0 136.0 L 167.0 136.0 L 168.0 136.0 L 170.0 136.0 L 171.0 136.0 L 173.0 136.0 L 174.0 136.0 L 175.0 136.0 L 177.0 136.0 L 178.0 136.0 L 179.0 136.0 L 181.0 136.0 L 182.0 136.0 L 183.0 136.0 L 185.0 136.0 L 186.0 136.0 L 187.0 136.0 L 188.0 136.0 L 190.0 136.0 L 191.0 136.0 L 192.0 136.0 L 193.0 136.0 L 193.0 136.0 L 194.0 136.0 L 195.0 136.0 L 196.0 136.0 L 196.0 136.0 L 197.0 136.0 L 198.0 136.0 L 199.0 136.0 L 200.0 136.0 L 201.0 136.0 L 202.0 136.0 L 204.0 136.0 L 205.0 136.0 L 207.0 136.0 L 208.0 136.0 L 210.0 136.0 L 211.0 136.0 L 212.0 136.0 L 214.0 136.0 L 215.0 135.0 L 216.0 135.0 L 217.0 135.0 L 218.0 135.0 L 219.0 135.0 L 220.0 135.0 L 221.0 135.0 L 221.0 135.0 L 222.0 135.0 L 222.0 136.0 L 222.0 136.0 L 222.0 137.0 L 222.0 138.0 L 222.0 139.0 L 222.0 140.0 L 222.0 142.0 L 222.0 144.0 L 222.0 146.0 L 221.0 149.0 L 221.0 152.0 L 221.0 155.0 L 221.0 158.0 L 220.0 162.0 L 220.0 166.0 L 220.0 169.0 L 220.0 172.0 L 219.0 175.0 L 219.0 177.0 L 219.0 178.0 L 219.0 178.0 L 218.0 178.0 L 218.0 178.0 " stroke="black" fill="none" stroke-width="5.0" stroke-linecap="round" stroke-linejoin="round" />
<path d="M 146.0 159.0 L 146.0 159.0 L 146.0 159.0 L 146.0 159.0 L 146.0 159.0 L 146.0 159.0 L 146.0 159.0 L 146.0 159.0 L 146.0 158.0 L 146.0 158.0 L 147.0 158.0 L 149.0 158.0 L 152.0 158.0 L 157.0 158.0 L 162.0 158.0 L 170.0 158.0 L 177.0 158.0 L 185.0 158.0 L 191.0 158.0 L 195.0 157.0 L 199.0 157.0 L 201.0 156.0 L 203.0 156.0 L 204.0 156.0 L 204.0 156.0 " stroke="black" fill="none" stroke-width="5.0" stroke-linecap="round" stroke-linejoin="round" />
<path d="M 143.0 179.0 L 143.0 179.0 L 143.0 179.0 L 142.0 179.0 L 142.0 179.0 L 142.0 179.0 L 142.0 179.0 L 142.0 179.0 L 143.0 179.0 L 144.0 180.0 L 147.0 180.0 L 150.0 181.0 L 155.0 181.0 L 162.0 181.0 L 170.0 181.0 L 179.0 181.0 L 188.0 181.0 L 195.0 179.0 L 201.0 177.0 L 206.0 176.0 L 208.0 175.0 " stroke="black" fill="none" stroke-width="5.0" stroke-linecap="round" stroke-linejoin="round" />
<path d="M 126.0 206.0 L 126.0 206.0 L 126.0 206.0 L 126.0 206.0 L 126.0 206.0 L 126.0 206.0 L 128.0 206.0 L 130.0 206.0 L 133.0 206.0 L 138.0 206.0 L 143.0 206.0 L 148.0 206.0 L 154.0 207.0 L 161.0 208.0 L 170.0 208.0 L 180.0 208.0 L 189.0 208.0 L 195.0 207.0 L 200.0 207.0 L 204.0 206.0 L 207.0 205.0 L 211.0 205.0 L 214.0 205.0 L 216.0 205.0 L 218.0 205.0 L 219.0 206.0 L 219.0 208.0 " stroke="black" fill="none" stroke-width="5.0" stroke-linecap="round" stroke-linejoin="round" />
<path d="M 178.0 92.0 L 177.0 92.0 L 176.0 91.0 L 176.0 91.0 L 176.0 91.0 L 175.0 91.0 L 175.0 91.0 L 175.0 91.0 L 176.0 94.0 L 177.0 97.0 L 177.0 102.0 L 178.0 108.0 L 178.0 115.0 L 179.0 123.0 L 179.0 132.0 L 179.0 141.0 L 179.0 151.0 L 178.0 161.0 L 178.0 169.0 L 178.0 177.0 L 178.0 187.0 L 178.0 195.0 L 178.0 204.0 L 179.0 211.0 L 179.0 216.0 L 180.0 219.0 L 181.0 222.0 L 181.0 224.0 L 181.0 224.0 L 181.0 224.0 L 181.0 224.0 " stroke="black" fill="none" stroke-width="5.0" stroke-linecap="round" stroke-linejoin="round" />
<path d="M 76.0 76.0 L 75.0 76.0 L 74.0 75.0 L 73.0 75.0 L 72.0 75.0 L 72.0 75.0 L 72.0 75.0 L 72.0 75.0 L 74.0 78.0 L 76.0 81.0 L 78.0 84.0 L 81.0 87.0 L 84.0 91.0 L 87.0 94.0 L 90.0 96.0 L 93.0 98.0 " stroke="black" fill="none" stroke-width="5.0" stroke-linecap="round" stroke-linejoin="round" />
<path d="M 64.0 124.0 L 64.0 124.0 L 63.0 124.0 L 63.0 124.0 L 62.0 124.0 L 62.0 124.0 L 61.0 124.0 L 61.0 123.0 L 61.0 123.0 L 61.0 123.0 L 62.0 123.0 L 63.0 123.0 L 64.0 123.0 L 65.0 123.0 L 67.0 124.0 L 70.0 124.0 L 73.0 124.0 L 76.0 125.0 L 81.0 125.0 L 86.0 125.0 L 92.0 124.0 L 97.0 124.0 L 100.0 123.0 L 103.0 123.0 L 104.0 122.0 L 104.0 122.0 L 104.0 122.0 L 103.0 123.0 L 101.0 124.0 L 99.0 126.0 L 98.0 127.0 L 96.0 129.0 L 94.0 131.0 L 93.0 132.0 L 91.0 135.0 L 89.0 137.0 L 87.0 140.0 L 84.0 143.0 L 82.0 146.0 L 79.0 149.0 L 76.0 152.0 L 73.0 154.0 L 71.0 156.0 L 70.0 157.0 L 68.0 158.0 L 68.0 158.0 L 67.0 159.0 L 67.0 159.0 L 67.0 160.0 L 67.0 160.0 L 67.0 161.0 L 67.0 161.0 L 67.0 161.0 L 67.0 161.0 L 67.0 161.0 L 67.0 161.0 L 68.0 161.0 L 68.0 161.0 L 69.0 161.0 L 70.0 161.0 L 71.0 161.0 L 72.0 161.0 L 74.0 161.0 L 75.0 161.0 L 77.0 161.0 L 79.0 161.0 L 81.0 161.0 L 83.0 161.0 L 86.0 161.0 L 89.0 162.0 L 91.0 162.0 L 94.0 162.0 L 96.0 162.0 L 99.0 163.0 L 100.0 163.0 L 102.0 164.0 L 102.0 164.0 L 103.0 165.0 L 103.0 166.0 L 103.0 167.0 L 103.0 168.0 L 103.0 169.0 L 103.0 170.0 L 103.0 171.0 L 103.0 172.0 L 103.0 173.0 L 103.0 174.0 L 103.0 176.0 L 103.0 177.0 L 103.0 179.0 L 103.0 181.0 L 102.0 184.0 L 101.0 187.0 L 99.0 191.0 L 98.0 195.0 L 96.0 199.0 L 93.0 203.0 L 91.0 207.0 L 87.0 212.0 L 82.0 217.0 L 78.0 222.0 L 72.0 228.0 L 68.0 233.0 L 64.0 237.0 L 60.0 241.0 L 58.0 244.0 L 56.0 246.0 L 55.0 247.0 " stroke="black" fill="none" stroke-width="5.0" stroke-linecap="round" stroke-linejoin="round" />
<path d="M 95.0 211.0 L 95.0 211.0 L 94.0 211.0 L 93.0 212.0 L 92.0 212.0 L 91.0 213.0 L 91.0 213.0 L 91.0 213.0 L 90.0 213.0 L 90.0 213.0 L 90.0 213.0 L 90.0 213.0 L 90.0 213.0 L 90.0 213.0 L 91.0 213.0 L 91.0 213.0 L 91.0 213.0 L 92.0 213.0 L 93.0 213.0 L 94.0 213.0 L 95.0 214.0 L 96.0 214.0 L 97.0 215.0 L 98.0 216.0 L 99.0 216.0 L 100.0 217.0 L 101.0 218.0 L 102.0 219.0 L 103.0 220.0 L 104.0 221.0 L 105.0 223.0 L 106.0 224.0 L 107.0 225.0 L 108.0 226.0 L 108.0 227.0 L 109.0 228.0 L 110.0 229.0 L 111.0 230.0 L 112.0 230.0 L 113.0 231.0 L 114.0 231.0 L 115.0 232.0 L 116.0 232.0 L 117.0 233.0 L 118.0 233.0 L 119.0 234.0 L 120.0 234.0 L 121.0 235.0 L 123.0 235.0 L 124.0 236.0 L 125.0 236.0 L 126.0 236.0 L 127.0 237.0 L 129.0 237.0 L 130.0 238.0 L 131.0 238.0 L 132.0 239.0 L 134.0 239.0 L 135.0 240.0 L 136.0 240.0 L 137.0 241.0 L 139.0 241.0 L 140.0 242.0 L 141.0 242.0 L 142.0 243.0 L 143.0 243.0 L 145.0 244.0 L 146.0 244.0 L 147.0 244.0 L 148.0 245.0 L 149.0 245.0 L 150.0 245.0 L 151.0 245.0 L 151.0 246.0 L 152.0 246.0 L 153.0 246.0 L 153.0 246.0 L 154.0 246.0 L 155.0 247.0 L 156.0 247.0 L 156.0 247.0 L 157.0 247.0 L 158.0 247.0 L 159.0 248.0 L 160.0 248.0 L 161.0 248.0 L 162.0 248.0 L 164.0 248.0 L 165.0 248.0 L 166.0 248.0 L 167.0 248.0 L 169.0 248.0 L 170.0 249.0 L 171.0 249.0 L 172.0 249.0 L 174.0 249.0 L 175.0 249.0 L 177.0 249.0 L 178.0 249.0 L 179.0 249.0 L 180.0 249.0 L 182.0 249.0 L 183.0 249.0 L 184.0 249.0 L 184.0 249.0 L 185.0 249.0 L 187.0 250.0 L 188.0 250.0 L 189.0 250.0 L 190.0 250.0 L 191.0 250.0 L 191.0 250.0 L 193.0 250.0 L 193.0 250.0 L 194.0 250.0 L 195.0 250.0 L 196.0 251.0 L 196.0 251.0 L 197.0 251.0 L 198.0 251.0 L 199.0 251.0 L 200.0 251.0 L 201.0 251.0 L 202.0 251.0 L 203.0 251.0 L 204.0 251.0 L 205.0 251.0 L 207.0 251.0 L 209.0 251.0 L 210.0 251.0 L 212.0 251.0 L 214.0 251.0 L 216.0 250.0 L 217.0 250.0 L 219.0 250.0 L 221.0 250.0 L 223.0 250.0 L 225.0 250.0 L 227.0 250.0 L 229.0 250.0 L 231.0 250.0 L 233.0 250.0 L 235.0 249.0 L 236.0 249.0 L 238.0 248.0 L 239.0 248.0 L 239.0 247.0 L 240.0 247.0 L 240.0 247.0 L 240.0 247.0 L 240.0 247.0 L 240.0 247.0 L 239.0 247.0 " stroke="black" fill="none" stroke-width="5.0" stroke-linecap="round" stroke-linejoin="round" />
</svg>