<svg xmlns="http://www.w3.org/2000/svg" width="300" height="300" viewBox="0 0 300 300">
<path d="M 121.0 114.0 L 121.0 114.0 L 120.0 114.0 L 119.0 114.0 L 117.0 113.0 L 116.0 113.0 L 115.0 113.0 L 114.0 112.0 L 114.0 112.0 L 113.0 112.0 L 113.0 112.0 L 113.0 112.0 L 113.0 111.0 L 114.0 111.0 L 116.0 111.0 L 119.0 111.0 L 123.0 111.0 L 129.0 111.0 L 135.0 111.0 L 141.0 111.0 L 147.0 110.0 L 152.0 109.0 L 157.0 109.0 L 161.0 108.0 L 163.0 108.0 L 165.0 108.0 " stroke="black" fill="none" stroke-width="5.0" stroke-linecap="round" stroke-linejoin="round" />
<path d="M 135.0 76.0 L 135.0 76.0 L 135.0 76.0 L 135.0 76.0 L 135.0 76.0 L 135.0 76.0 L 135.0 77.0 L 135.0 78.0 L 136.0 80.0 L 136.0 83.0 L 136.0 86.0 L 137.0 91.0 L 137.0 96.0 L 137.0 101.0 L 138.0 107.0 L 138.0 112.0 L 139.0 116.0 L 139.0 121.0 L 139.0 125.0 L 139.0 129.0 L 140.0 133.0 L 140.0 137.0 L 140.0 141.0 L 140.0 145.0 L 140.0 149.0 L 139.0 152.0 L 139.0 156.0 L 139.0 159.0 L 139.0 161.0 L 139.0 164.0 L 139.0 167.0 L 139.0 170.0 L 139.0 173.0 L 139.0 176.0 L 139.0 179.0 L 139.0 182.0 L 139.0 185.0 L 139.0 188.0 L 139.0 192.0 L 139.0 195.0 L 138.0 197.0 L 138.0 200.0 L 138.0 203.0 L 138.0 205.0 L 138.0 208.0 L 138.0 210.0 L 137.0 212.0 L 137.0 214.0 L 137.0 217.0 L 137.0 219.0 L 137.0 221.0 L 136.0 223.0 L 136.0 224.0 L 135.0 225.0 L 135.0 226.0 L 134.0 226.0 L 134.0 227.0 L 133.0 227.0 L 133.0 227.0 L 132.0 227.0 L 131.0 226.0 L 130.0 225.0 L 128.0 224.0 L 127.0 223.0 L 126.0 222.0 L 124.0 221.0 L 123.0 220.0 L 121.0 219.0 L 120.0 218.0 L 119.0 216.0 L 118.0 214.0 L 117.0 211.0 L 116.0 209.0 L 116.0 207.0 " stroke="black" fill="none" stroke-width="5.0" stroke-linecap="round" stroke-linejoin="round" />
<path d="M 112.0 168.0 L 112.0 168.0 L 112.0 168.0 L 112.0 167.0 L 112.0 167.0 L 113.0 166.0 L 114.0 165.0 L 117.0 164.0 L 122.0 163.0 L 130.0 160.0 L 140.0 155.0 L 150.0 149.0 L 159.0 142.0 L 163.0 138.0 " stroke="black" fill="none" stroke-width="5.0" stroke-linecap="round" stroke-linejoin="round" />
<path d="M 221.0 82.0 L 220.0 82.0 L 219.0 82.0 L 218.0 82.0 L 217.0 82.0 L 216.0 83.0 L 214.0 83.0 L 212.0 84.0 L 210.0 84.0 L 207.0 85.0 L 203.0 86.0 L 199.0 88.0 L 195.0 90.0 L 191.0 93.0 L 187.0 96.0 L 183.0 99.0 L 179.0 102.0 L 176.0 105.0 L 174.0 106.0 L 172.0 107.0 L 172.0 108.0 L 172.0 108.0 L 172.0 108.0 L 173.0 108.0 L 174.0 108.0 L 175.0 109.0 L 176.0 109.0 L 176.0 109.0 L 177.0 110.0 L 177.0 111.0 L 177.0 111.0 L 178.0 112.0 L 178.0 113.0 L 178.0 114.0 L 179.0 116.0 L 179.0 117.0 L 179.0 118.0 L 179.0 121.0 L 179.0 123.0 L 179.0 125.0 L 179.0 129.0 L 179.0 133.0 L 178.0 137.0 L 177.0 143.0 L 176.0 149.0 L 175.0 155.0 L 174.0 162.0 L 172.0 168.0 L 171.0 174.0 L 169.0 181.0 L 168.0 188.0 L 166.0 194.0 L 165.0 199.0 L 163.0 203.0 L 162.0 206.0 L 160.0 207.0 L 158.0 208.0 L 158.0 208.0 " stroke="black" fill="none" stroke-width="5.0" stroke-linecap="round" stroke-linejoin="round" />
<path d="M 188.0 134.0 L 188.0 134.0 L 187.0 134.0 L 186.0 134.0 L 185.0 134.0 L 185.0 134.0 L 184.0 134.0 L 184.0 134.0 L 184.0 134.0 L 185.0 135.0 L 187.0 135.0 L 189.0 135.0 L 193.0 135.0 L 197.0 134.0 L 201.0 133.0 L 207.0 133.0 L 213.0 132.0 L 219.0 131.0 L 224.0 130.0 L 230.0 130.0 L 233.0 130.0 L 235.0 129.0 L 237.0 129.0 L 237.0 129.0 " stroke="black" fill="none" stroke-width="5.0" stroke-linecap="round" stroke-linejoin="round" />
<path d="M 214.0 135.0 L 213.0 136.0 L 213.0 138.0 L 212.0 140.0 L 212.0 142.0 L 212.0 145.0 L 212.0 150.0 L 213.0 155.0 L 214.0 162.0 L 214.0 170.0 L 214.0 180.0 L 214.0 190.0 L 213.0 199.0 L 211.0 206.0 L 210.0 212.0 L 209.0 216.0 L 209.0 218.0 L 208.0 219.0 L 208.0 218.0 L 208.0 216.0 L 208.0 214.0 " stroke="black" fill="none" stroke-width="5.0" stroke-linecap="round" stroke-linejoin="round" />
<path d="M 75.0 77.0 L 75.0 77.0 L 75.0 77.0 L 74.0 77.0 L 74.0 77.0 L 74.0 78.0 L 74.0 79.0 L 76.0 81.0 L 79.0 83.0 L 82.0 85.0 L 86.0 88.0 L 91.0 91.0 L 93.0 93.0 " stroke="black" fill="none" stroke-width="5.0" stroke-linecap="round" stroke-linejoin="round" />
<path d="M 68.0 122.0 L 68.0 122.0 L 68.0 122.0 L 67.0 123.0 L 67.0 123.0 L 66.0 123.0 L 66.0 123.0 L 66.0 124.0 L 66.0 124.0 L 66.0 124.0 L 67.0 124.0 L 69.0 124.0 L 71.0 124.0 L 74.0 124.0 L 78.0 124.0 L 82.0 124.0 L 87.0 124.0 L 92.0 124.0 L 96.0 124.0 L 100.0 124.0 L 102.0 124.0 L 104.0 124.0 L 104.0 125.0 L 104.0 125.0 L 104.0 126.0 L 103.0 127.0 L 101.0 129.0 L 99.0 131.0 L 97.0 133.0 L 94.0 135.0 L 92.0 138.0 L 90.0 141.0 L 88.0 143.0 L 86.0 147.0 L 84.0 149.0 L 83.0 152.0 L 81.0 155.0 L 80.0 157.0 L 78.0 159.0 L 77.0 161.0 L 76.0 163.0 L 75.0 164.0 L 74.0 165.0 L 74.0 166.0 L 73.0 167.0 L 72.0 168.0 L 72.0 168.0 L 72.0 169.0 L 72.0 169.0 L 72.0 169.0 L 72.0 169.0 L 72.0 169.0 L 72.0 169.0 L 73.0 169.0 L 74.0 169.0 L 75.0 169.0 L 76.0 169.0 L 78.0 169.0 L 80.0 169.0 L 82.0 169.0 L 84.0 169.0 L 87.0 169.0 L 89.0 169.0 L 92.0 169.0 L 94.0 169.0 L 96.0 169.0 L 98.0 169.0 L 99.0 170.0 L 100.0 170.0 L 101.0 171.0 L 102.0 172.0 L 102.0 173.0 L 103.0 175.0 L 103.0 176.0 L 103.0 178.0 L 102.0 180.0 L 101.0 182.0 L 101.0 184.0 L 99.0 187.0 L 98.0 190.0 L 97.0 193.0 L 96.0 196.0 L 95.0 199.0 L 94.0 202.0 L 93.0 205.0 L 92.0 208.0 L 91.0 211.0 L 89.0 214.0 L 87.0 218.0 L 84.0 221.0 L 80.0 226.0 L 76.0 230.0 L 72.0 234.0 L 68.0 239.0 L 65.0 242.0 L 63.0 244.0 L 60.0 246.0 L 60.0 247.0 " stroke="black" fill="none" stroke-width="5.0" stroke-linecap="round" stroke-linejoin="round" />
<path d="M 87.0 219.0 L 87.0 219.0 L 87.0 219.0 L 87.0 219.0 L 87.0 219.0 L 87.0 219.0 L 87.0 219.0 L 87.0 219.0 L 87.0 219.0 L 87.0 220.0 L 87.0 220.0 L 87.0 220.0 L 87.0 221.0 L 88.0 221.0 L 89.0 222.0 L 89.0 222.0 L 90.0 223.0 L 91.0 224.0 L 92.0 225.0 L 93.0 226.0 L 94.0 227.0 L 95.0 228.0 L 96.0 229.0 L 97.0 230.0 L 98.0 231.0 L 99.0 231.0 L 100.0 232.0 L 101.0 233.0 L 102.0 234.0 L 103.0 235.0 L 104.0 235.0 L 104.0 236.0 L 105.0 237.0 L 106.0 237.0 L 107.0 238.0 L 107.0 239.0 L 108.0 239.0 L 109.0 240.0 L 110.0 240.0 L 110.0 241.0 L 111.0 241.0 L 112.0 241.0 L 113.0 242.0 L 114.0 242.0 L 116.0 242.0 L 117.0 243.0 L 118.0 243.0 L 119.0 243.0 L 121.0 243.0 L 122.0 243.0 L 124.0 243.0 L 126.0 243.0 L 128.0 244.0 L 130.0 244.0 L 132.0 244.0 L 134.0 244.0 L 136.0 244.0 L 138.0 244.0 L 140.0 244.0 L 142.0 245.0 L 144.0 245.0 L 146.0 245.0 L 148.0 245.0 L 149.0 245.0 L 150.0 246.0 L 152.0 246.0 L 153.0 246.0 L 154.0 246.0 L 155.0 246.0 L 156.0 246.0 L 157.0 246.0 L 158.0 246.0 L 160.0 246.0 L 161.0 245.0 L 163.0 245.0 L 165.0 245.0 L 167.0 245.0 L 169.0 245.0 L 171.0 245.0 L 173.0 245.0 L 175.0 245.0 L 177.0 245.0 L 179.0 245.0 L 181.0 245.0 L 183.0 245.0 L 185.0 245.0 L 187.0 245.0 L 188.0 245.0 L 189.0 245.0 L 191.0 245.0 L 192.0 246.0 L 193.0 246.0 L 194.0 246.0 L 195.0 246.0 L 196.0 246.0 L 197.0 247.0 L 198.0 247.0 L 199.0 247.0 L 201.0 247.0 L 202.0 247.0 L 203.0 248.0 L 204.0 248.0 L 205.0 248.0 L 206.0 249.0 L 207.0 249.0 L 208.0 249.0 L 209.0 249.0 L 210.0 249.0 L 211.0 249.0 L 212.0 249.0 L 213.0 249.0 L 214.0 250.0 L 215.0 250.0 L 216.0 250.0 L 216.0 250.0 L 217.0 250.0 L 218.0 250.0 L 220.0 250.0 L 221.0 250.0 L 223.0 250.0 L 224.0 250.0 L 226.0 250.0 L 228.0 250.0 L 229.0 250.0 L 231.0 249.0 L 232.0 249.0 L 233.0 249.0 L 234.0 248.0 L 235.0 248.0 L 236.0 248.0 L 236.0 248.0 L 237.0 248.0 " stroke="black" fill="none" stroke-width="5.0" stroke-linecap="round" stroke-linejoin="round" />
</svg>