<svg xmlns="http://www.w3.org/2000/svg" width="300" height="300" viewBox="0 0 300 300">
<path d="M 143.0 75.0 L 143.0 75.0 L 143.0 75.0 L 143.0 75.0 L 143.0 74.0 L 143.0 74.0 L 143.0 74.0 L 143.0 74.0 L 143.0 73.0 L 143.0 73.0 L 143.0 73.0 L 143.0 73.0 L 142.0 73.0 L 142.0 73.0 L 141.0 73.0 L 140.0 73.0 L 139.0 73.0 L 137.0 73.0 L 135.0 74.0 L 132.0 75.0 L 129.0 75.0 L 125.0 76.0 L 121.0 77.0 L 117.0 78.0 L 113.0 79.0 L 109.0 80.0 L 105.0 81.0 L 102.0 83.0 L 100.0 84.0 L 97.0 85.0 L 95.0 86.0 L 93.0 87.0 L 91.0 87.0 L 90.0 88.0 L 89.0 88.0 L 87.0 88.0 L 86.0 88.0 L 85.0 88.0 L 84.0 88.0 L 83.0 88.0 L 83.0 88.0 L 82.0 89.0 L 82.0 89.0 L 81.0 89.0 L 80.0 90.0 L 80.0 90.0 L 80.0 90.0 L 80.0 90.0 L 80.0 90.0 L 80.0 91.0 L 80.0 91.0 L 79.0 91.0 L 79.0 91.0 L 79.0 91.0 L 79.0 92.0 L 79.0 92.0 L 79.0 92.0 L 79.0 93.0 L 79.0 93.0 L 79.0 94.0 L 79.0 94.0 L 79.0 95.0 L 79.0 96.0 L 79.0 97.0 L 79.0 98.0 L 79.0 100.0 L 79.0 102.0 L 79.0 103.0 L 79.0 106.0 L 80.0 108.0 L 80.0 111.0 L 80.0 113.0 L 80.0 116.0 L 80.0 119.0 L 80.0 122.0 L 80.0 125.0 L 80.0 129.0 L 80.0 132.0 L 80.0 136.0 L 79.0 140.0 L 79.0 144.0 L 79.0 147.0 L 79.0 150.0 L 79.0 153.0 L 79.0 155.0 L 79.0 158.0 L 79.0 161.0 L 79.0 164.0 L 79.0 166.0 L 78.0 170.0 L 78.0 172.0 L 77.0 176.0 L 77.0 179.0 L 76.0 183.0 L 76.0 187.0 L 76.0 192.0 L 76.0 196.0 L 77.0 201.0 L 78.0 206.0 L 78.0 211.0 L 78.0 215.0 L 79.0 219.0 L 79.0 222.0 L 79.0 224.0 L 79.0 225.0 L 79.0 226.0 L 79.0 226.0 L 79.0 226.0 L 79.0 226.0 L 79.0 225.0 " stroke="black" fill="none" stroke-width="5.0" stroke-linecap="round" stroke-linejoin="round" />
<path d="M 90.0 143.0 L 90.0 143.0 L 88.0 143.0 L 87.0 143.0 L 86.0 142.0 L 86.0 142.0 L 85.0 142.0 L 85.0 142.0 L 85.0 142.0 L 85.0 142.0 L 87.0 142.0 L 88.0 142.0 L 90.0 142.0 L 92.0 142.0 L 95.0 142.0 L 98.0 141.0 L 101.0 141.0 L 105.0 141.0 L 109.0 141.0 L 114.0 141.0 L 119.0 140.0 L 125.0 139.0 L 131.0 138.0 L 137.0 137.0 L 142.0 136.0 L 145.0 135.0 L 147.0 135.0 L 149.0 135.0 L 150.0 135.0 L 150.0 136.0 L 150.0 138.0 L 151.0 139.0 " stroke="black" fill="none" stroke-width="5.0" stroke-linecap="round" stroke-linejoin="round" />
<path d="M 135.0 146.0 L 135.0 146.0 L 134.0 146.0 L 133.0 146.0 L 133.0 146.0 L 132.0 147.0 L 132.0 147.0 L 132.0 148.0 L 133.0 150.0 L 133.0 152.0 L 134.0 155.0 L 134.0 159.0 L 134.0 164.0 L 134.0 170.0 L 134.0 178.0 L 133.0 186.0 L 131.0 195.0 L 129.0 203.0 L 128.0 209.0 L 127.0 214.0 L 127.0 217.0 L 127.0 218.0 L 128.0 219.0 L 129.0 219.0 " stroke="black" fill="none" stroke-width="5.0" stroke-linecap="round" stroke-linejoin="round" />
<path d="M 59.0 241.0 L 59.0 241.0 L 58.0 241.0 L 58.0 240.0 L 58.0 240.0 L 57.0 240.0 L 57.0 239.0 L 58.0 239.0 L 60.0 238.0 L 63.0 237.0 L 67.0 236.0 L 73.0 234.0 L 82.0 232.0 L 92.0 229.0 L 104.0 225.0 L 114.0 221.0 L 123.0 218.0 L 134.0 214.0 L 143.0 211.0 L 149.0 208.0 L 154.0 205.0 L 157.0 203.0 L 158.0 201.0 " stroke="black" fill="none" stroke-width="5.0" stroke-linecap="round" stroke-linejoin="round" />
<path d="M 192.0 86.0 L 191.0 86.0 L 189.0 86.0 L 187.0 86.0 L 185.0 86.0 L 184.0 86.0 L 182.0 86.0 L 181.0 86.0 L 180.0 86.0 L 180.0 86.0 L 180.0 86.0 L 180.0 87.0 L 182.0 87.0 L 184.0 87.0 L 187.0 87.0 L 190.0 87.0 L 194.0 87.0 L 197.0 87.0 L 201.0 87.0 L 206.0 88.0 L 211.0 88.0 L 216.0 88.0 L 222.0 88.0 L 226.0 88.0 L 230.0 88.0 L 233.0 89.0 L 235.0 89.0 L 236.0 90.0 L 236.0 91.0 L 236.0 93.0 L 236.0 95.0 L 235.0 96.0 L 234.0 99.0 L 232.0 101.0 L 231.0 104.0 L 229.0 107.0 L 227.0 109.0 L 225.0 112.0 L 222.0 115.0 L 219.0 118.0 L 216.0 122.0 L 213.0 125.0 L 210.0 128.0 L 207.0 131.0 L 205.0 134.0 L 204.0 135.0 L 203.0 137.0 L 203.0 137.0 L 203.0 138.0 L 204.0 138.0 L 204.0 139.0 L 205.0 139.0 L 205.0 139.0 L 206.0 140.0 L 207.0 140.0 L 207.0 141.0 L 208.0 141.0 L 209.0 142.0 L 210.0 143.0 L 211.0 144.0 L 212.0 145.0 L 213.0 146.0 L 215.0 147.0 L 216.0 148.0 L 218.0 150.0 L 219.0 151.0 L 221.0 153.0 L 222.0 155.0 L 223.0 156.0 L 224.0 158.0 L 225.0 160.0 L 227.0 162.0 L 228.0 164.0 L 230.0 166.0 L 232.0 169.0 L 233.0 171.0 L 235.0 173.0 L 237.0 175.0 L 238.0 177.0 L 239.0 179.0 L 240.0 181.0 L 241.0 182.0 L 242.0 185.0 L 242.0 187.0 L 243.0 190.0 L 243.0 193.0 L 243.0 196.0 L 243.0 200.0 L 243.0 204.0 L 243.0 207.0 L 242.0 211.0 L 240.0 216.0 L 238.0 220.0 L 236.0 224.0 L 233.0 227.0 L 230.0 230.0 L 226.0 231.0 L 222.0 231.0 L 217.0 231.0 L 213.0 229.0 L 209.0 225.0 L 205.0 221.0 L 203.0 217.0 L 201.0 212.0 L 200.0 210.0 " stroke="black" fill="none" stroke-width="5.0" stroke-linecap="round" stroke-linejoin="round" />
<path d="M 182.0 86.0 L 182.0 86.0 L 183.0 86.0 L 183.0 86.0 L 183.0 87.0 L 184.0 88.0 L 184.0 91.0 L 185.0 94.0 L 185.0 99.0 L 185.0 106.0 L 185.0 114.0 L 184.0 124.0 L 184.0 134.0 L 183.0 146.0 L 182.0 158.0 L 182.0 170.0 L 182.0 184.0 L 182.0 197.0 L 182.0 209.0 L 182.0 220.0 L 183.0 230.0 L 184.0 239.0 L 185.0 247.0 L 185.0 252.0 L 186.0 256.0 L 186.0 259.0 L 186.0 261.0 " stroke="black" fill="none" stroke-width="5.0" stroke-linecap="round" stroke-linejoin="round" />
</svg>