<svg xmlns="http://www.w3.org/2000/svg" width="300" height="300" viewBox="0 0 300 300">
<path d="M 153.0 72.0 L 153.0 72.0 L 153.0 72.0 L 153.0 72.0 L 152.0 72.0 L 152.0 72.0 L 151.0 72.0 L 150.0 73.0 L 148.0 75.0 L 146.0 77.0 L 142.0 81.0 L 136.0 86.0 L 130.0 91.0 L 123.0 96.0 L 117.0 101.0 L 112.0 103.0 " stroke="black" fill="none" stroke-width="5.0" stroke-linecap="round" stroke-linejoin="round" />
<path d="M 111.0 109.0 L 111.0 109.0 L 111.0 108.0 L 110.0 108.0 L 110.0 108.0 L 110.0 107.0 L 110.0 107.0 L 110.0 107.0 L 110.0 108.0 L 111.0 109.0 L 112.0 111.0 L 114.0 114.0 L 117.0 116.0 L 120.0 118.0 L 123.0 120.0 L 126.0 121.0 " stroke="black" fill="none" stroke-width="5.0" stroke-linecap="round" stroke-linejoin="round" />
<path d="M 136.0 98.0 L 136.0 98.0 L 135.0 97.0 L 135.0 97.0 L 135.0 97.0 L 135.0 97.0 L 136.0 98.0 L 138.0 100.0 L 140.0 102.0 L 143.0 104.0 L 145.0 105.0 L 147.0 107.0 L 149.0 109.0 " stroke="black" fill="none" stroke-width="5.0" stroke-linecap="round" stroke-linejoin="round" />
<path d="M 154.0 105.0 L 154.0 105.0 L 154.0 105.0 L 154.0 105.0 L 154.0 105.0 L 154.0 106.0 L 154.0 106.0 L 153.0 108.0 L 152.0 110.0 L 149.0 113.0 L 145.0 116.0 L 140.0 120.0 L 131.0 126.0 L 121.0 131.0 L 112.0 137.0 L 104.0 143.0 L 100.0 147.0 L 97.0 150.0 L 95.0 151.0 L 95.0 151.0 " stroke="black" fill="none" stroke-width="5.0" stroke-linecap="round" stroke-linejoin="round" />
<path d="M 136.0 125.0 L 136.0 125.0 L 135.0 125.0 L 135.0 125.0 L 135.0 125.0 L 135.0 125.0 L 135.0 125.0 L 135.0 125.0 L 135.0 125.0 L 136.0 126.0 L 137.0 128.0 L 139.0 130.0 L 140.0 132.0 L 143.0 136.0 L 145.0 140.0 L 147.0 144.0 L 150.0 150.0 L 152.0 155.0 L 155.0 161.0 L 157.0 168.0 L 159.0 174.0 L 160.0 181.0 L 160.0 187.0 L 160.0 192.0 L 160.0 196.0 L 158.0 200.0 L 156.0 203.0 L 154.0 206.0 L 151.0 210.0 L 149.0 213.0 L 146.0 215.0 L 144.0 218.0 L 142.0 220.0 L 140.0 221.0 L 138.0 222.0 L 137.0 222.0 L 136.0 222.0 L 135.0 221.0 L 135.0 219.0 L 134.0 216.0 L 134.0 215.0 " stroke="black" fill="none" stroke-width="5.0" stroke-linecap="round" stroke-linejoin="round" />
<path d="M 147.0 142.0 L 147.0 142.0 L 146.0 142.0 L 146.0 142.0 L 145.0 141.0 L 144.0 141.0 L 143.0 142.0 L 142.0 143.0 L 141.0 146.0 L 138.0 149.0 L 135.0 153.0 L 131.0 157.0 L 125.0 162.0 L 119.0 166.0 L 114.0 170.0 L 111.0 172.0 L 109.0 172.0 L 109.0 172.0 " stroke="black" fill="none" stroke-width="5.0" stroke-linecap="round" stroke-linejoin="round" />
<path d="M 157.0 159.0 L 157.0 159.0 L 155.0 160.0 L 154.0 161.0 L 153.0 163.0 L 151.0 166.0 L 149.0 169.0 L 147.0 173.0 L 144.0 178.0 L 139.0 183.0 L 133.0 189.0 L 126.0 194.0 L 119.0 196.0 L 114.0 198.0 " stroke="black" fill="none" stroke-width="5.0" stroke-linecap="round" stroke-linejoin="round" />
<path d="M 197.0 82.0 L 196.0 82.0 L 196.0 82.0 L 195.0 82.0 L 195.0 81.0 L 195.0 81.0 L 195.0 81.0 L 195.0 81.0 L 195.0 81.0 L 194.0 81.0 L 194.0 82.0 L 193.0 84.0 L 191.0 87.0 L 188.0 91.0 L 184.0 96.0 L 180.0 101.0 L 176.0 105.0 L 173.0 109.0 L 171.0 110.0 L 170.0 111.0 L 169.0 111.0 L 169.0 111.0 L 170.0 111.0 L 171.0 110.0 L 172.0 110.0 L 173.0 110.0 L 174.0 109.0 L 174.0 109.0 L 175.0 109.0 L 176.0 109.0 L 176.0 109.0 L 177.0 109.0 L 177.0 108.0 L 178.0 108.0 L 178.0 108.0 L 178.0 108.0 L 179.0 108.0 L 179.0 108.0 L 179.0 108.0 L 179.0 108.0 L 179.0 108.0 L 179.0 108.0 L 179.0 108.0 L 179.0 108.0 L 179.0 108.0 L 179.0 109.0 L 179.0 110.0 L 179.0 111.0 L 179.0 113.0 L 179.0 116.0 L 179.0 119.0 L 179.0 124.0 L 179.0 130.0 L 179.0 137.0 L 179.0 144.0 L 180.0 150.0 L 180.0 157.0 L 181.0 160.0 L 181.0 163.0 L 181.0 164.0 L 181.0 164.0 L 181.0 163.0 " stroke="black" fill="none" stroke-width="5.0" stroke-linecap="round" stroke-linejoin="round" />
<path d="M 181.0 105.0 L 181.0 105.0 L 179.0 105.0 L 178.0 104.0 L 178.0 104.0 L 177.0 103.0 L 177.0 103.0 L 178.0 102.0 L 179.0 101.0 L 182.0 99.0 L 184.0 98.0 L 188.0 97.0 L 191.0 96.0 L 195.0 95.0 L 199.0 95.0 L 203.0 95.0 L 208.0 95.0 L 213.0 95.0 L 217.0 95.0 L 220.0 97.0 L 223.0 99.0 L 225.0 101.0 L 227.0 105.0 L 228.0 109.0 L 228.0 114.0 L 228.0 119.0 L 228.0 126.0 L 228.0 134.0 L 228.0 142.0 L 228.0 151.0 L 228.0 157.0 L 227.0 162.0 L 227.0 164.0 L 226.0 164.0 L 226.0 164.0 L 225.0 163.0 " stroke="black" fill="none" stroke-width="5.0" stroke-linecap="round" stroke-linejoin="round" />
<path d="M 189.0 131.0 L 187.0 131.0 L 185.0 130.0 L 184.0 130.0 L 182.0 130.0 L 182.0 129.0 L 182.0 129.0 L 183.0 129.0 L 185.0 128.0 L 189.0 128.0 L 193.0 128.0 L 198.0 128.0 L 203.0 127.0 L 210.0 127.0 L 216.0 127.0 L 218.0 127.0 " stroke="black" fill="none" stroke-width="5.0" stroke-linecap="round" stroke-linejoin="round" />
<path d="M 184.0 166.0 L 180.0 166.0 L 177.0 166.0 L 174.0 166.0 L 172.0 167.0 L 171.0 167.0 L 171.0 167.0 L 171.0 167.0 L 175.0 166.0 L 179.0 166.0 L 184.0 164.0 L 189.0 163.0 L 195.0 162.0 L 201.0 160.0 L 207.0 159.0 L 213.0 158.0 L 219.0 157.0 L 224.0 157.0 L 228.0 157.0 " stroke="black" fill="none" stroke-width="5.0" stroke-linecap="round" stroke-linejoin="round" />
<path d="M 202.0 156.0 L 201.0 156.0 L 201.0 156.0 L 200.0 156.0 L 200.0 156.0 L 199.0 156.0 L 199.0 157.0 L 198.0 159.0 L 198.0 161.0 L 197.0 164.0 L 197.0 168.0 L 196.0 172.0 L 195.0 178.0 L 193.0 184.0 L 190.0 190.0 L 187.0 196.0 L 182.0 201.0 L 177.0 205.0 L 171.0 207.0 L 166.0 210.0 L 162.0 210.0 L 160.0 210.0 L 160.0 210.0 " stroke="black" fill="none" stroke-width="5.0" stroke-linecap="round" stroke-linejoin="round" />
<path d="M 210.0 164.0 L 210.0 164.0 L 208.0 165.0 L 207.0 166.0 L 206.0 167.0 L 205.0 168.0 L 204.0 170.0 L 204.0 172.0 L 204.0 175.0 L 204.0 176.0 L 203.0 181.0 L 203.0 186.0 L 203.0 190.0 L 203.0 194.0 L 203.0 198.0 L 203.0 202.0 L 203.0 206.0 L 203.0 210.0 L 203.0 214.0 L 203.0 216.0 L 203.0 219.0 L 203.0 221.0 L 203.0 222.0 L 204.0 223.0 L 205.0 224.0 L 206.0 225.0 L 208.0 226.0 L 209.0 226.0 L 211.0 227.0 L 214.0 227.0 L 217.0 227.0 L 220.0 227.0 L 224.0 227.0 L 228.0 227.0 L 232.0 228.0 L 236.0 228.0 L 239.0 228.0 L 242.0 228.0 L 244.0 227.0 L 247.0 227.0 L 248.0 225.0 L 249.0 224.0 L 250.0 223.0 L 250.0 222.0 L 249.0 220.0 L 248.0 217.0 L 247.0 213.0 L 245.0 209.0 L 243.0 204.0 L 243.0 202.0 " stroke="black" fill="none" stroke-width="5.0" stroke-linecap="round" stroke-linejoin="round" />
<path d="M 78.0 78.0 L 76.0 77.0 L 74.0 75.0 L 72.0 74.0 L 71.0 74.0 L 70.0 74.0 L 69.0 74.0 L 69.0 74.0 L 69.0 76.0 L 69.0 77.0 L 71.0 81.0 L 74.0 84.0 L 76.0 88.0 L 80.0 92.0 L 83.0 97.0 L 87.0 101.0 L 88.0 103.0 " stroke="black" fill="none" stroke-width="5.0" stroke-linecap="round" stroke-linejoin="round" />
<path d="M 62.0 130.0 L 62.0 130.0 L 60.0 130.0 L 59.0 130.0 L 58.0 129.0 L 57.0 129.0 L 57.0 129.0 L 57.0 129.0 L 57.0 129.0 L 58.0 128.0 L 59.0 128.0 L 61.0 128.0 L 63.0 128.0 L 66.0 128.0 L 71.0 128.0 L 76.0 128.0 L 82.0 128.0 L 89.0 128.0 L 96.0 128.0 L 101.0 128.0 L 104.0 128.0 L 105.0 129.0 L 105.0 130.0 L 105.0 131.0 L 103.0 133.0 L 101.0 135.0 L 98.0 138.0 L 96.0 141.0 L 93.0 144.0 L 90.0 147.0 L 86.0 150.0 L 82.0 153.0 L 78.0 156.0 L 74.0 159.0 L 70.0 161.0 L 68.0 163.0 L 65.0 165.0 L 64.0 166.0 L 63.0 167.0 L 63.0 168.0 L 63.0 168.0 L 63.0 168.0 L 63.0 169.0 L 63.0 169.0 L 64.0 169.0 L 65.0 169.0 L 67.0 169.0 L 69.0 169.0 L 72.0 169.0 L 76.0 169.0 L 80.0 169.0 L 84.0 168.0 L 89.0 168.0 L 94.0 168.0 L 99.0 168.0 L 103.0 168.0 L 105.0 168.0 L 107.0 168.0 L 107.0 168.0 L 108.0 169.0 L 108.0 170.0 L 108.0 171.0 L 108.0 173.0 L 107.0 174.0 L 107.0 175.0 L 106.0 177.0 L 105.0 179.0 L 104.0 182.0 L 103.0 185.0 L 102.0 188.0 L 101.0 191.0 L 100.0 195.0 L 99.0 198.0 L 97.0 201.0 L 96.0 205.0 L 94.0 209.0 L 91.0 213.0 L 88.0 218.0 L 84.0 223.0 L 80.0 229.0 L 75.0 234.0 L 70.0 239.0 L 66.0 243.0 L 63.0 245.0 L 61.0 246.0 L 60.0 246.0 L 60.0 244.0 " stroke="black" fill="none" stroke-width="5.0" stroke-linecap="round" stroke-linejoin="round" />
<path d="M 94.0 213.0 L 94.0 213.0 L 94.0 213.0 L 94.0 213.0 L 93.0 213.0 L 93.0 213.0 L 93.0 213.0 L 93.0 214.0 L 93.0 214.0 L 93.0 214.0 L 93.0 214.0 L 93.0 215.0 L 93.0 216.0 L 93.0 216.0 L 93.0 217.0 L 94.0 218.0 L 95.0 220.0 L 95.0 221.0 L 96.0 222.0 L 97.0 223.0 L 98.0 225.0 L 99.0 226.0 L 100.0 228.0 L 101.0 229.0 L 102.0 230.0 L 103.0 232.0 L 104.0 233.0 L 105.0 234.0 L 106.0 235.0 L 107.0 236.0 L 108.0 236.0 L 109.0 237.0 L 110.0 238.0 L 111.0 238.0 L 112.0 239.0 L 113.0 239.0 L 114.0 240.0 L 116.0 240.0 L 117.0 241.0 L 119.0 241.0 L 121.0 241.0 L 123.0 242.0 L 125.0 242.0 L 127.0 242.0 L 129.0 242.0 L 131.0 242.0 L 134.0 242.0 L 136.0 243.0 L 137.0 243.0 L 139.0 243.0 L 141.0 243.0 L 143.0 244.0 L 144.0 244.0 L 146.0 244.0 L 148.0 244.0 L 149.0 245.0 L 151.0 245.0 L 152.0 245.0 L 154.0 245.0 L 155.0 246.0 L 157.0 246.0 L 158.0 247.0 L 160.0 247.0 L 162.0 247.0 L 164.0 247.0 L 166.0 248.0 L 168.0 248.0 L 170.0 248.0 L 173.0 248.0 L 176.0 249.0 L 178.0 249.0 L 181.0 249.0 L 183.0 250.0 L 186.0 250.0 L 188.0 250.0 L 191.0 250.0 L 193.0 251.0 L 195.0 251.0 L 197.0 251.0 L 200.0 251.0 L 202.0 251.0 L 204.0 251.0 L 208.0 251.0 L 211.0 251.0 L 215.0 251.0 L 219.0 251.0 L 223.0 251.0 L 227.0 250.0 L 230.0 249.0 L 233.0 249.0 L 235.0 249.0 L 235.0 249.0 " stroke="black" fill="none" stroke-width="5.0" stroke-linecap="round" stroke-linejoin="round" />
</svg>