<svg xmlns="http://www.w3.org/2000/svg" width="300" height="300" viewBox="0 0 300 300">
<path d="M 76.0 80.0 L 75.0 80.0 L 74.0 80.0 L 72.0 79.0 L 72.0 79.0 L 71.0 79.0 L 71.0 79.0 L 71.0 79.0 L 71.0 79.0 L 72.0 80.0 L 74.0 81.0 L 76.0 83.0 L 79.0 84.0 L 82.0 86.0 L 85.0 89.0 L 89.0 91.0 L 92.0 93.0 L 96.0 96.0 " stroke="black" fill="none" stroke-width="5.0" stroke-linecap="round" stroke-linejoin="round" />
<path d="M 69.0 141.0 L 68.0 141.0 L 67.0 139.0 L 67.0 139.0 L 66.0 138.0 L 66.0 137.0 L 66.0 137.0 L 66.0 137.0 L 66.0 137.0 L 66.0 137.0 L 67.0 139.0 L 69.0 140.0 L 71.0 142.0 L 74.0 145.0 L 77.0 147.0 L 81.0 149.0 L 85.0 152.0 L 91.0 154.0 L 95.0 156.0 " stroke="black" fill="none" stroke-width="5.0" stroke-linecap="round" stroke-linejoin="round" />
<path d="M 95.0 192.0 L 95.0 192.0 L 95.0 192.0 L 95.0 192.0 L 95.0 192.0 L 95.0 192.0 L 96.0 192.0 L 96.0 192.0 L 96.0 192.0 L 96.0 192.0 L 96.0 192.0 L 96.0 192.0 L 96.0 192.0 L 96.0 194.0 L 95.0 196.0 L 94.0 198.0 L 92.0 201.0 L 90.0 204.0 L 88.0 208.0 L 85.0 212.0 L 83.0 217.0 L 80.0 221.0 L 77.0 227.0 L 75.0 231.0 L 73.0 235.0 L 71.0 238.0 L 70.0 240.0 L 70.0 241.0 L 70.0 241.0 " stroke="black" fill="none" stroke-width="5.0" stroke-linecap="round" stroke-linejoin="round" />
<path d="M 118.0 86.0 L 118.0 86.0 L 118.0 86.0 L 117.0 85.0 L 117.0 85.0 L 116.0 85.0 L 116.0 85.0 L 116.0 85.0 L 115.0 85.0 L 115.0 85.0 L 115.0 85.0 L 114.0 85.0 L 114.0 85.0 L 114.0 85.0 L 114.0 85.0 L 114.0 85.0 L 114.0 85.0 L 114.0 85.0 L 114.0 85.0 L 114.0 85.0 L 114.0 85.0 L 115.0 85.0 L 116.0 85.0 L 116.0 85.0 L 117.0 85.0 L 118.0 85.0 L 119.0 85.0 L 120.0 85.0 L 120.0 85.0 L 121.0 85.0 L 122.0 85.0 L 123.0 85.0 L 124.0 85.0 L 125.0 84.0 L 126.0 84.0 L 127.0 84.0 L 128.0 84.0 L 129.0 84.0 L 130.0 84.0 L 131.0 84.0 L 133.0 84.0 L 134.0 84.0 L 135.0 84.0 L 136.0 84.0 L 136.0 84.0 L 137.0 84.0 L 138.0 84.0 L 139.0 84.0 L 139.0 85.0 L 140.0 85.0 L 141.0 85.0 L 141.0 85.0 L 142.0 85.0 L 143.0 85.0 L 143.0 85.0 L 144.0 86.0 L 144.0 86.0 L 144.0 86.0 L 145.0 86.0 L 145.0 86.0 L 146.0 86.0 L 146.0 86.0 L 147.0 86.0 L 147.0 86.0 L 148.0 86.0 L 148.0 86.0 L 149.0 86.0 L 149.0 86.0 L 149.0 86.0 L 150.0 86.0 L 150.0 86.0 L 151.0 87.0 L 151.0 87.0 L 152.0 87.0 L 152.0 87.0 L 153.0 87.0 L 153.0 87.0 L 154.0 87.0 L 154.0 87.0 L 155.0 87.0 L 156.0 87.0 L 157.0 87.0 L 157.0 87.0 L 158.0 87.0 L 159.0 87.0 L 160.0 87.0 L 161.0 87.0 L 162.0 87.0 L 163.0 87.0 L 164.0 87.0 L 165.0 87.0 L 166.0 86.0 L 167.0 86.0 L 168.0 86.0 L 169.0 86.0 L 170.0 86.0 L 171.0 86.0 L 172.0 86.0 L 173.0 86.0 L 174.0 86.0 L 175.0 85.0 L 175.0 85.0 L 176.0 85.0 L 177.0 85.0 L 178.0 85.0 L 179.0 85.0 L 180.0 85.0 L 180.0 85.0 L 181.0 85.0 L 182.0 85.0 L 183.0 84.0 L 184.0 84.0 L 185.0 84.0 L 185.0 84.0 L 186.0 84.0 L 187.0 84.0 L 187.0 84.0 L 188.0 84.0 L 189.0 84.0 L 189.0 84.0 L 190.0 84.0 L 190.0 84.0 L 191.0 84.0 L 191.0 84.0 L 192.0 84.0 L 192.0 83.0 L 192.0 83.0 L 193.0 83.0 L 193.0 83.0 L 194.0 83.0 L 194.0 83.0 L 195.0 83.0 L 195.0 83.0 L 196.0 83.0 L 196.0 83.0 L 196.0 83.0 L 197.0 83.0 L 197.0 83.0 L 198.0 83.0 L 198.0 83.0 L 199.0 83.0 L 199.0 83.0 L 200.0 83.0 L 200.0 83.0 L 201.0 83.0 L 202.0 83.0 L 202.0 83.0 L 203.0 83.0 L 204.0 83.0 L 205.0 83.0 L 205.0 83.0 L 206.0 83.0 L 207.0 83.0 L 208.0 83.0 L 209.0 83.0 L 210.0 83.0 L 211.0 83.0 L 212.0 83.0 L 213.0 83.0 L 214.0 83.0 L 216.0 83.0 L 217.0 83.0 L 218.0 83.0 L 219.0 83.0 L 220.0 83.0 L 222.0 83.0 L 223.0 83.0 L 224.0 83.0 L 225.0 84.0 L 226.0 84.0 L 227.0 84.0 L 228.0 84.0 L 229.0 84.0 L 230.0 84.0 L 230.0 84.0 " stroke="black" fill="none" stroke-width="5.0" stroke-linecap="round" stroke-linejoin="round" />
<path d="M 122.0 130.0 L 122.0 130.0 L 122.0 130.0 L 122.0 130.0 L 122.0 130.0 L 121.0 130.0 L 121.0 130.0 L 121.0 130.0 L 121.0 130.0 L 121.0 130.0 L 121.0 130.0 L 121.0 130.0 L 121.0 131.0 L 121.0 133.0 L 121.0 135.0 L 121.0 138.0 L 121.0 141.0 L 121.0 144.0 L 121.0 148.0 L 121.0 151.0 L 121.0 155.0 L 121.0 158.0 L 121.0 161.0 L 121.0 164.0 L 122.0 167.0 L 122.0 170.0 L 122.0 173.0 L 123.0 176.0 L 123.0 179.0 L 123.0 182.0 L 124.0 185.0 L 124.0 189.0 L 124.0 192.0 L 124.0 195.0 L 124.0 197.0 L 125.0 200.0 L 125.0 202.0 L 125.0 204.0 L 125.0 206.0 L 125.0 208.0 L 125.0 210.0 L 125.0 212.0 L 125.0 213.0 L 125.0 215.0 L 125.0 216.0 L 125.0 218.0 L 125.0 221.0 L 125.0 223.0 L 124.0 226.0 L 124.0 229.0 L 124.0 231.0 L 124.0 234.0 L 124.0 236.0 L 124.0 238.0 L 124.0 239.0 L 124.0 241.0 L 124.0 242.0 L 124.0 243.0 L 124.0 244.0 L 124.0 245.0 L 124.0 246.0 L 124.0 246.0 L 124.0 246.0 L 124.0 246.0 L 124.0 246.0 L 124.0 246.0 " stroke="black" fill="none" stroke-width="5.0" stroke-linecap="round" stroke-linejoin="round" />
<path d="M 123.0 129.0 L 123.0 129.0 L 122.0 129.0 L 121.0 129.0 L 121.0 129.0 L 120.0 129.0 L 120.0 129.0 L 119.0 129.0 L 119.0 130.0 L 119.0 130.0 L 119.0 130.0 L 119.0 130.0 L 120.0 130.0 L 121.0 130.0 L 122.0 130.0 L 123.0 130.0 L 124.0 130.0 L 125.0 130.0 L 126.0 130.0 L 128.0 130.0 L 129.0 130.0 L 130.0 130.0 L 132.0 130.0 L 133.0 130.0 L 135.0 130.0 L 136.0 130.0 L 138.0 130.0 L 139.0 130.0 L 141.0 130.0 L 142.0 130.0 L 143.0 130.0 L 145.0 130.0 L 146.0 130.0 L 147.0 130.0 L 148.0 130.0 L 148.0 130.0 L 149.0 130.0 L 150.0 130.0 L 151.0 130.0 L 151.0 130.0 L 152.0 130.0 L 153.0 130.0 L 154.0 130.0 L 154.0 130.0 L 155.0 130.0 L 156.0 130.0 L 157.0 130.0 L 158.0 130.0 L 159.0 130.0 L 160.0 130.0 L 161.0 130.0 L 162.0 130.0 L 163.0 130.0 L 164.0 130.0 L 164.0 130.0 L 165.0 129.0 L 166.0 129.0 L 167.0 129.0 L 168.0 129.0 L 169.0 129.0 L 170.0 129.0 L 172.0 128.0 L 173.0 128.0 L 174.0 128.0 L 175.0 128.0 L 176.0 128.0 L 177.0 128.0 L 178.0 128.0 L 180.0 128.0 L 181.0 127.0 L 182.0 127.0 L 183.0 127.0 L 183.0 127.0 L 184.0 127.0 L 185.0 127.0 L 186.0 127.0 L 187.0 127.0 L 187.0 127.0 L 188.0 127.0 L 189.0 127.0 L 189.0 127.0 L 190.0 127.0 L 191.0 127.0 L 191.0 127.0 L 192.0 127.0 L 192.0 127.0 L 193.0 127.0 L 193.0 127.0 L 194.0 127.0 L 194.0 127.0 L 194.0 127.0 L 195.0 127.0 L 195.0 127.0 L 196.0 127.0 L 196.0 127.0 L 196.0 127.0 L 197.0 127.0 L 197.0 127.0 L 197.0 127.0 L 198.0 127.0 L 198.0 127.0 L 199.0 127.0 L 199.0 126.0 L 200.0 126.0 L 200.0 126.0 L 201.0 126.0 L 201.0 126.0 L 202.0 126.0 L 202.0 126.0 L 203.0 126.0 L 204.0 126.0 L 204.0 126.0 L 205.0 125.0 L 206.0 125.0 L 206.0 125.0 L 207.0 125.0 L 208.0 125.0 L 209.0 125.0 L 209.0 125.0 L 210.0 125.0 L 211.0 125.0 L 212.0 125.0 L 212.0 125.0 L 213.0 125.0 L 214.0 125.0 L 215.0 125.0 L 216.0 125.0 L 216.0 125.0 L 217.0 125.0 L 218.0 125.0 L 218.0 125.0 L 219.0 125.0 L 219.0 125.0 L 220.0 125.0 L 220.0 125.0 L 221.0 125.0 L 221.0 125.0 L 222.0 125.0 L 222.0 125.0 L 223.0 125.0 L 223.0 125.0 L 223.0 125.0 L 224.0 125.0 L 224.0 125.0 L 224.0 125.0 L 224.0 125.0 L 225.0 125.0 L 225.0 125.0 L 225.0 125.0 L 225.0 125.0 L 225.0 125.0 L 226.0 125.0 L 226.0 125.0 L 226.0 125.0 L 227.0 125.0 L 227.0 125.0 L 227.0 125.0 L 227.0 125.0 L 228.0 125.0 L 228.0 125.0 L 228.0 125.0 L 228.0 125.0 L 229.0 125.0 L 229.0 125.0 L 229.0 125.0 L 229.0 126.0 L 229.0 126.0 L 229.0 126.0 L 229.0 127.0 L 230.0 127.0 L 230.0 128.0 L 230.0 129.0 L 230.0 130.0 L 230.0 132.0 L 230.0 134.0 L 230.0 137.0 L 230.0 141.0 L 230.0 144.0 L 230.0 148.0 L 230.0 152.0 L 230.0 156.0 L 229.0 161.0 L 229.0 164.0 L 229.0 168.0 L 229.0 171.0 L 229.0 174.0 L 229.0 177.0 L 229.0 181.0 L 229.0 184.0 L 229.0 187.0 L 229.0 190.0 L 229.0 193.0 L 229.0 196.0 L 229.0 199.0 L 228.0 202.0 L 228.0 204.0 L 228.0 207.0 L 228.0 209.0 L 227.0 212.0 L 227.0 214.0 L 227.0 216.0 L 227.0 218.0 L 227.0 219.0 L 227.0 221.0 L 227.0 223.0 L 227.0 225.0 L 227.0 226.0 L 227.0 228.0 L 227.0 230.0 L 227.0 232.0 L 227.0 234.0 L 227.0 236.0 L 227.0 238.0 L 227.0 240.0 L 227.0 241.0 L 227.0 242.0 L 227.0 243.0 L 227.0 245.0 L 227.0 246.0 L 227.0 247.0 L 227.0 248.0 L 227.0 248.0 L 227.0 248.0 L 227.0 248.0 L 227.0 245.0 L 228.0 244.0 " stroke="black" fill="none" stroke-width="5.0" stroke-linecap="round" stroke-linejoin="round" />
<path d="M 157.0 97.0 L 157.0 97.0 L 157.0 97.0 L 157.0 96.0 L 157.0 96.0 L 157.0 96.0 L 157.0 95.0 L 157.0 95.0 L 157.0 95.0 L 157.0 96.0 L 157.0 97.0 L 157.0 99.0 L 157.0 101.0 L 157.0 103.0 L 157.0 105.0 L 157.0 109.0 L 157.0 112.0 L 157.0 116.0 L 157.0 120.0 L 157.0 125.0 L 157.0 130.0 L 157.0 135.0 L 157.0 140.0 L 157.0 145.0 L 157.0 150.0 L 156.0 154.0 L 155.0 157.0 L 154.0 161.0 L 153.0 164.0 L 152.0 168.0 L 150.0 172.0 L 148.0 175.0 L 146.0 178.0 L 144.0 181.0 " stroke="black" fill="none" stroke-width="5.0" stroke-linecap="round" stroke-linejoin="round" />
<path d="M 190.0 94.0 L 190.0 94.0 L 190.0 95.0 L 190.0 95.0 L 189.0 96.0 L 189.0 97.0 L 189.0 99.0 L 189.0 101.0 L 189.0 103.0 L 189.0 105.0 L 189.0 108.0 L 189.0 111.0 L 189.0 115.0 L 188.0 119.0 L 188.0 123.0 L 188.0 127.0 L 187.0 131.0 L 186.0 135.0 L 186.0 139.0 L 185.0 143.0 L 184.0 147.0 L 184.0 150.0 L 184.0 153.0 L 184.0 154.0 L 184.0 155.0 L 184.0 156.0 L 185.0 156.0 L 185.0 157.0 L 186.0 157.0 L 186.0 158.0 L 186.0 158.0 L 186.0 159.0 L 187.0 160.0 L 187.0 161.0 L 187.0 162.0 L 187.0 162.0 L 187.0 163.0 L 188.0 163.0 L 188.0 164.0 L 189.0 164.0 L 189.0 164.0 L 189.0 165.0 L 190.0 165.0 L 191.0 165.0 L 192.0 165.0 L 193.0 165.0 L 194.0 166.0 L 195.0 166.0 L 197.0 166.0 L 199.0 166.0 L 201.0 166.0 L 203.0 166.0 L 206.0 166.0 L 209.0 166.0 L 212.0 166.0 " stroke="black" fill="none" stroke-width="5.0" stroke-linecap="round" stroke-linejoin="round" />
<path d="M 149.0 196.0 L 149.0 196.0 L 149.0 196.0 L 148.0 196.0 L 148.0 196.0 L 148.0 195.0 L 147.0 195.0 L 147.0 195.0 L 147.0 195.0 L 147.0 195.0 L 148.0 195.0 L 149.0 196.0 L 151.0 196.0 L 154.0 197.0 L 157.0 198.0 L 162.0 198.0 L 168.0 199.0 L 176.0 199.0 L 183.0 199.0 L 190.0 199.0 L 195.0 199.0 L 199.0 198.0 " stroke="black" fill="none" stroke-width="5.0" stroke-linecap="round" stroke-linejoin="round" />
<path d="M 132.0 245.0 L 132.0 245.0 L 132.0 245.0 L 132.0 245.0 L 132.0 245.0 L 133.0 245.0 L 133.0 244.0 L 135.0 244.0 L 137.0 244.0 L 139.0 244.0 L 143.0 244.0 L 147.0 244.0 L 151.0 244.0 L 155.0 244.0 L 161.0 244.0 L 167.0 244.0 L 173.0 245.0 L 180.0 245.0 L 185.0 245.0 L 190.0 245.0 L 194.0 245.0 L 197.0 245.0 L 199.0 245.0 L 201.0 245.0 L 203.0 245.0 L 205.0 245.0 L 207.0 245.0 L 209.0 245.0 L 210.0 245.0 " stroke="black" fill="none" stroke-width="5.0" stroke-linecap="round" stroke-linejoin="round" />
</svg>