<svg xmlns="http://www.w3.org/2000/svg" width="300" height="300" viewBox="0 0 300 300">
<path d="M 69.0 86.0 L 69.0 86.0 L 69.0 87.0 L 69.0 87.0 L 69.0 87.0 L 69.0 87.0 L 69.0 88.0 L 69.0 89.0 L 69.0 90.0 L 69.0 91.0 L 69.0 92.0 L 69.0 94.0 L 69.0 96.0 L 69.0 99.0 L 69.0 101.0 L 69.0 104.0 L 69.0 107.0 L 69.0 110.0 L 69.0 112.0 L 69.0 115.0 L 69.0 118.0 L 69.0 120.0 L 69.0 123.0 L 69.0 125.0 L 69.0 127.0 L 69.0 129.0 L 69.0 130.0 L 70.0 133.0 L 70.0 136.0 L 70.0 138.0 L 70.0 141.0 L 71.0 143.0 L 71.0 146.0 L 71.0 149.0 L 71.0 151.0 L 71.0 154.0 L 71.0 156.0 L 71.0 158.0 L 71.0 160.0 L 71.0 162.0 L 71.0 164.0 L 71.0 166.0 L 71.0 168.0 L 71.0 170.0 L 71.0 172.0 L 71.0 174.0 L 71.0 176.0 L 71.0 178.0 L 71.0 180.0 L 71.0 182.0 L 71.0 185.0 L 71.0 187.0 L 71.0 189.0 L 71.0 191.0 L 71.0 193.0 L 72.0 195.0 L 72.0 197.0 L 72.0 199.0 L 72.0 201.0 L 72.0 203.0 L 72.0 204.0 L 72.0 206.0 L 72.0 208.0 L 72.0 210.0 L 72.0 211.0 L 73.0 213.0 L 73.0 214.0 L 73.0 215.0 L 73.0 217.0 L 73.0 219.0 L 74.0 221.0 L 74.0 224.0 L 74.0 226.0 L 74.0 229.0 L 75.0 232.0 L 75.0 234.0 L 75.0 236.0 L 75.0 237.0 L 75.0 238.0 L 75.0 239.0 L 75.0 239.0 L 75.0 239.0 " stroke="black" fill="none" stroke-width="5.0" stroke-linecap="round" stroke-linejoin="round" />
<path d="M 78.0 81.0 L 77.0 81.0 L 77.0 81.0 L 76.0 81.0 L 75.0 81.0 L 75.0 81.0 L 75.0 81.0 L 74.0 81.0 L 74.0 81.0 L 74.0 81.0 L 74.0 81.0 L 75.0 81.0 L 75.0 81.0 L 76.0 81.0 L 78.0 81.0 L 80.0 81.0 L 82.0 81.0 L 84.0 81.0 L 86.0 80.0 L 89.0 80.0 L 92.0 80.0 L 95.0 80.0 L 98.0 80.0 L 102.0 80.0 L 105.0 80.0 L 108.0 80.0 L 111.0 80.0 L 114.0 80.0 L 117.0 80.0 L 119.0 80.0 L 123.0 80.0 L 125.0 80.0 L 128.0 80.0 L 130.0 80.0 L 131.0 80.0 L 132.0 80.0 L 133.0 81.0 L 133.0 83.0 L 133.0 85.0 L 133.0 88.0 L 132.0 91.0 L 132.0 95.0 L 131.0 100.0 L 131.0 105.0 L 131.0 110.0 L 131.0 114.0 L 131.0 118.0 L 131.0 122.0 L 131.0 125.0 L 131.0 127.0 L 131.0 129.0 L 130.0 130.0 L 128.0 130.0 " stroke="black" fill="none" stroke-width="5.0" stroke-linecap="round" stroke-linejoin="round" />
<path d="M 85.0 108.0 L 83.0 108.0 L 81.0 108.0 L 79.0 108.0 L 79.0 108.0 L 79.0 108.0 L 79.0 108.0 L 81.0 108.0 L 84.0 107.0 L 87.0 107.0 L 91.0 107.0 L 96.0 107.0 L 101.0 107.0 L 105.0 107.0 L 109.0 106.0 L 114.0 106.0 L 118.0 105.0 L 121.0 105.0 L 125.0 105.0 L 127.0 105.0 L 128.0 105.0 " stroke="black" fill="none" stroke-width="5.0" stroke-linecap="round" stroke-linejoin="round" />
<path d="M 91.0 132.0 L 88.0 132.0 L 85.0 133.0 L 83.0 134.0 L 83.0 134.0 L 83.0 134.0 L 83.0 134.0 L 86.0 134.0 L 89.0 134.0 L 93.0 134.0 L 97.0 133.0 L 101.0 133.0 L 105.0 132.0 L 109.0 131.0 L 114.0 130.0 L 119.0 129.0 L 124.0 127.0 " stroke="black" fill="none" stroke-width="5.0" stroke-linecap="round" stroke-linejoin="round" />
<path d="M 164.0 86.0 L 164.0 86.0 L 164.0 86.0 L 163.0 86.0 L 162.0 86.0 L 162.0 86.0 L 162.0 86.0 L 162.0 88.0 L 162.0 90.0 L 162.0 94.0 L 162.0 99.0 L 163.0 105.0 L 163.0 111.0 L 163.0 117.0 L 163.0 121.0 L 163.0 125.0 L 163.0 128.0 L 163.0 128.0 " stroke="black" fill="none" stroke-width="5.0" stroke-linecap="round" stroke-linejoin="round" />
<path d="M 169.0 82.0 L 168.0 82.0 L 168.0 82.0 L 167.0 82.0 L 167.0 82.0 L 166.0 82.0 L 166.0 82.0 L 166.0 82.0 L 166.0 82.0 L 165.0 82.0 L 165.0 82.0 L 165.0 82.0 L 165.0 82.0 L 165.0 82.0 L 165.0 82.0 L 166.0 82.0 L 166.0 82.0 L 167.0 82.0 L 168.0 82.0 L 169.0 82.0 L 171.0 82.0 L 172.0 82.0 L 174.0 82.0 L 176.0 82.0 L 177.0 82.0 L 179.0 82.0 L 180.0 82.0 L 182.0 82.0 L 184.0 82.0 L 185.0 82.0 L 187.0 82.0 L 188.0 82.0 L 189.0 82.0 L 191.0 82.0 L 192.0 82.0 L 193.0 82.0 L 195.0 82.0 L 196.0 82.0 L 197.0 82.0 L 198.0 82.0 L 199.0 81.0 L 200.0 81.0 L 201.0 81.0 L 202.0 81.0 L 204.0 81.0 L 205.0 81.0 L 206.0 81.0 L 207.0 81.0 L 209.0 81.0 L 210.0 81.0 L 212.0 81.0 L 213.0 81.0 L 215.0 81.0 L 216.0 81.0 L 218.0 81.0 L 219.0 81.0 L 220.0 81.0 L 222.0 81.0 L 223.0 81.0 L 224.0 81.0 L 226.0 81.0 L 227.0 81.0 L 228.0 81.0 L 229.0 81.0 L 230.0 81.0 L 231.0 81.0 L 231.0 81.0 L 232.0 81.0 L 232.0 81.0 L 232.0 81.0 L 233.0 82.0 L 233.0 82.0 L 233.0 83.0 L 233.0 83.0 L 233.0 84.0 L 233.0 85.0 L 233.0 87.0 L 232.0 88.0 L 232.0 90.0 L 232.0 93.0 L 232.0 95.0 L 231.0 99.0 L 231.0 102.0 L 231.0 106.0 L 230.0 110.0 L 230.0 113.0 L 230.0 117.0 L 230.0 120.0 L 230.0 123.0 L 230.0 126.0 L 230.0 129.0 L 230.0 132.0 L 230.0 134.0 L 230.0 137.0 L 231.0 139.0 L 231.0 141.0 L 231.0 144.0 L 231.0 147.0 L 231.0 150.0 L 231.0 154.0 L 230.0 156.0 L 230.0 159.0 L 230.0 161.0 L 229.0 163.0 L 229.0 165.0 L 229.0 168.0 L 229.0 169.0 L 229.0 171.0 L 229.0 173.0 L 229.0 175.0 L 229.0 177.0 L 229.0 179.0 L 229.0 181.0 L 229.0 183.0 L 229.0 185.0 L 229.0 187.0 L 229.0 189.0 L 229.0 192.0 L 229.0 194.0 L 229.0 196.0 L 229.0 198.0 L 229.0 200.0 L 229.0 202.0 L 229.0 203.0 L 229.0 205.0 L 229.0 207.0 L 229.0 208.0 L 229.0 210.0 L 229.0 212.0 L 229.0 214.0 L 228.0 216.0 L 228.0 218.0 L 228.0 220.0 L 228.0 222.0 L 228.0 224.0 L 228.0 227.0 L 228.0 229.0 L 228.0 231.0 L 228.0 234.0 L 228.0 236.0 L 228.0 237.0 L 228.0 239.0 L 228.0 241.0 L 228.0 242.0 L 228.0 244.0 L 228.0 245.0 L 228.0 246.0 L 228.0 247.0 L 228.0 248.0 L 228.0 248.0 L 227.0 249.0 L 227.0 249.0 L 227.0 249.0 L 226.0 250.0 L 226.0 250.0 L 225.0 250.0 L 224.0 250.0 L 223.0 250.0 L 221.0 249.0 L 219.0 248.0 L 216.0 247.0 L 213.0 245.0 L 209.0 242.0 L 207.0 240.0 " stroke="black" fill="none" stroke-width="5.0" stroke-linecap="round" stroke-linejoin="round" />
<path d="M 172.0 108.0 L 172.0 108.0 L 170.0 108.0 L 169.0 108.0 L 168.0 107.0 L 167.0 107.0 L 167.0 107.0 L 168.0 106.0 L 170.0 106.0 L 173.0 106.0 L 176.0 106.0 L 179.0 106.0 L 183.0 107.0 L 187.0 107.0 L 190.0 107.0 L 194.0 107.0 L 198.0 107.0 L 202.0 107.0 L 207.0 106.0 L 212.0 105.0 L 216.0 104.0 L 220.0 103.0 L 223.0 102.0 L 224.0 102.0 " stroke="black" fill="none" stroke-width="5.0" stroke-linecap="round" stroke-linejoin="round" />
<path d="M 178.0 131.0 L 178.0 131.0 L 175.0 131.0 L 173.0 130.0 L 170.0 130.0 L 169.0 130.0 L 168.0 129.0 L 167.0 129.0 L 167.0 129.0 L 167.0 129.0 L 169.0 129.0 L 171.0 129.0 L 175.0 129.0 L 178.0 129.0 L 182.0 130.0 L 186.0 130.0 L 190.0 131.0 L 194.0 131.0 L 198.0 131.0 L 203.0 131.0 L 207.0 131.0 L 211.0 130.0 L 215.0 130.0 L 219.0 130.0 " stroke="black" fill="none" stroke-width="5.0" stroke-linecap="round" stroke-linejoin="round" />
<path d="M 105.0 164.0 L 105.0 164.0 L 105.0 164.0 L 105.0 164.0 L 104.0 164.0 L 104.0 164.0 L 103.0 164.0 L 103.0 164.0 L 103.0 164.0 L 103.0 164.0 L 103.0 164.0 L 104.0 164.0 L 106.0 164.0 L 108.0 164.0 L 111.0 163.0 L 116.0 163.0 L 122.0 163.0 L 130.0 163.0 L 138.0 163.0 L 146.0 163.0 L 153.0 163.0 L 158.0 163.0 L 163.0 163.0 L 169.0 163.0 L 173.0 163.0 L 177.0 163.0 L 181.0 163.0 L 182.0 163.0 L 183.0 163.0 L 183.0 163.0 " stroke="black" fill="none" stroke-width="5.0" stroke-linecap="round" stroke-linejoin="round" />
<path d="M 146.0 144.0 L 146.0 144.0 L 146.0 144.0 L 146.0 144.0 L 146.0 144.0 L 146.0 144.0 L 145.0 144.0 L 145.0 144.0 L 145.0 144.0 L 145.0 145.0 L 145.0 146.0 L 144.0 147.0 L 144.0 150.0 L 143.0 153.0 L 142.0 159.0 L 140.0 165.0 L 136.0 173.0 L 132.0 182.0 L 126.0 191.0 L 121.0 198.0 L 115.0 204.0 L 111.0 208.0 L 108.0 211.0 L 106.0 213.0 L 105.0 214.0 L 104.0 213.0 " stroke="black" fill="none" stroke-width="5.0" stroke-linecap="round" stroke-linejoin="round" />
<path d="M 156.0 187.0 L 156.0 187.0 L 156.0 186.0 L 157.0 186.0 L 158.0 185.0 L 158.0 185.0 L 159.0 184.0 L 159.0 184.0 L 159.0 183.0 L 160.0 183.0 L 160.0 183.0 L 160.0 184.0 L 160.0 186.0 L 159.0 189.0 L 158.0 192.0 L 156.0 195.0 L 154.0 199.0 L 152.0 204.0 L 150.0 209.0 L 147.0 214.0 L 144.0 219.0 L 141.0 225.0 L 138.0 228.0 L 136.0 231.0 L 134.0 233.0 L 134.0 233.0 L 133.0 233.0 L 133.0 233.0 L 134.0 233.0 L 134.0 233.0 L 135.0 233.0 L 136.0 233.0 L 137.0 233.0 L 139.0 233.0 L 140.0 233.0 L 142.0 233.0 L 143.0 233.0 L 145.0 233.0 L 147.0 232.0 L 150.0 232.0 L 153.0 231.0 L 156.0 229.0 L 159.0 228.0 L 162.0 227.0 L 166.0 225.0 L 169.0 224.0 L 171.0 224.0 L 174.0 224.0 L 176.0 223.0 L 178.0 223.0 " stroke="black" fill="none" stroke-width="5.0" stroke-linecap="round" stroke-linejoin="round" />
<path d="M 178.0 203.0 L 177.0 203.0 L 176.0 203.0 L 176.0 203.0 L 175.0 203.0 L 175.0 203.0 L 175.0 203.0 L 176.0 204.0 L 178.0 205.0 L 179.0 208.0 L 181.0 211.0 L 183.0 216.0 L 185.0 221.0 L 186.0 227.0 L 188.0 232.0 L 189.0 236.0 L 191.0 239.0 L 192.0 241.0 " stroke="black" fill="none" stroke-width="5.0" stroke-linecap="round" stroke-linejoin="round" />
</svg>