<svg xmlns="http://www.w3.org/2000/svg" width="300" height="300" viewBox="0 0 300 300">
<path d="M 92.0 77.0 L 91.0 77.0 L 87.0 77.0 L 85.0 76.0 L 84.0 76.0 L 83.0 76.0 L 83.0 76.0 L 83.0 75.0 L 83.0 75.0 L 83.0 75.0 L 84.0 74.0 L 85.0 74.0 L 87.0 74.0 L 88.0 74.0 L 90.0 74.0 L 93.0 75.0 L 96.0 75.0 L 99.0 75.0 L 102.0 75.0 L 106.0 76.0 L 110.0 76.0 L 115.0 76.0 L 120.0 76.0 L 126.0 76.0 L 133.0 76.0 L 138.0 77.0 L 143.0 77.0 L 147.0 78.0 L 150.0 78.0 L 153.0 78.0 L 155.0 78.0 L 158.0 78.0 L 161.0 78.0 L 164.0 78.0 L 167.0 78.0 L 170.0 78.0 L 174.0 78.0 L 177.0 77.0 L 179.0 77.0 L 182.0 77.0 L 185.0 77.0 L 188.0 77.0 L 190.0 77.0 L 192.0 77.0 L 194.0 77.0 L 196.0 77.0 L 197.0 77.0 L 198.0 77.0 L 200.0 77.0 L 201.0 76.0 L 203.0 76.0 L 204.0 76.0 L 205.0 76.0 L 207.0 76.0 L 208.0 76.0 L 209.0 76.0 L 210.0 76.0 L 210.0 76.0 L 210.0 76.0 L 210.0 77.0 L 208.0 79.0 " stroke="black" fill="none" stroke-width="5.0" stroke-linecap="round" stroke-linejoin="round" />
<path d="M 73.0 105.0 L 73.0 105.0 L 73.0 105.0 L 72.0 105.0 L 71.0 105.0 L 71.0 105.0 L 70.0 106.0 L 70.0 107.0 L 69.0 110.0 L 69.0 113.0 L 68.0 117.0 L 68.0 121.0 L 68.0 126.0 L 68.0 130.0 L 68.0 133.0 " stroke="black" fill="none" stroke-width="5.0" stroke-linecap="round" stroke-linejoin="round" />
<path d="M 73.0 105.0 L 73.0 105.0 L 73.0 105.0 L 73.0 105.0 L 73.0 105.0 L 73.0 104.0 L 73.0 104.0 L 73.0 104.0 L 73.0 104.0 L 73.0 104.0 L 74.0 104.0 L 76.0 104.0 L 78.0 103.0 L 80.0 103.0 L 84.0 103.0 L 88.0 103.0 L 93.0 102.0 L 97.0 102.0 L 102.0 102.0 L 105.0 102.0 L 109.0 102.0 L 112.0 102.0 L 115.0 102.0 L 118.0 102.0 L 122.0 102.0 L 126.0 101.0 L 130.0 101.0 L 134.0 101.0 L 137.0 101.0 L 141.0 101.0 L 144.0 101.0 L 147.0 102.0 L 150.0 102.0 L 152.0 102.0 L 154.0 103.0 L 155.0 103.0 L 157.0 103.0 L 159.0 103.0 L 161.0 103.0 L 163.0 104.0 L 165.0 104.0 L 167.0 104.0 L 169.0 105.0 L 172.0 105.0 L 175.0 105.0 L 177.0 106.0 L 180.0 106.0 L 182.0 106.0 L 185.0 106.0 L 187.0 106.0 L 189.0 106.0 L 191.0 106.0 L 193.0 106.0 L 195.0 106.0 L 196.0 106.0 L 198.0 106.0 L 200.0 106.0 L 201.0 106.0 L 203.0 106.0 L 206.0 106.0 L 208.0 106.0 L 211.0 106.0 L 214.0 105.0 L 217.0 105.0 L 219.0 104.0 L 222.0 104.0 L 225.0 103.0 L 227.0 103.0 L 229.0 102.0 L 230.0 102.0 L 231.0 102.0 L 232.0 102.0 L 233.0 102.0 L 234.0 102.0 L 235.0 102.0 L 236.0 102.0 L 237.0 102.0 L 237.0 102.0 L 238.0 102.0 L 238.0 102.0 L 238.0 102.0 L 239.0 102.0 L 239.0 102.0 L 239.0 103.0 L 239.0 104.0 L 239.0 105.0 L 239.0 106.0 L 239.0 108.0 L 239.0 110.0 L 238.0 112.0 L 238.0 115.0 L 237.0 118.0 L 237.0 122.0 L 237.0 125.0 L 236.0 129.0 L 235.0 132.0 L 235.0 134.0 L 234.0 136.0 L 234.0 136.0 " stroke="black" fill="none" stroke-width="5.0" stroke-linecap="round" stroke-linejoin="round" />
<path d="M 149.0 83.0 L 149.0 83.0 L 149.0 83.0 L 149.0 83.0 L 149.0 83.0 L 149.0 83.0 L 149.0 83.0 L 149.0 84.0 L 149.0 85.0 L 149.0 87.0 L 149.0 91.0 L 150.0 96.0 L 150.0 103.0 L 151.0 112.0 L 152.0 121.0 L 152.0 132.0 L 152.0 143.0 L 152.0 152.0 L 152.0 159.0 L 152.0 163.0 L 152.0 164.0 L 152.0 164.0 L 152.0 164.0 " stroke="black" fill="none" stroke-width="5.0" stroke-linecap="round" stroke-linejoin="round" />
<path d="M 105.0 121.0 L 105.0 121.0 L 104.0 121.0 L 103.0 120.0 L 102.0 120.0 L 101.0 119.0 L 101.0 119.0 L 101.0 119.0 L 101.0 119.0 L 102.0 119.0 L 103.0 120.0 L 106.0 121.0 L 108.0 121.0 L 112.0 123.0 L 116.0 124.0 L 120.0 125.0 L 124.0 127.0 L 127.0 129.0 L 129.0 131.0 " stroke="black" fill="none" stroke-width="5.0" stroke-linecap="round" stroke-linejoin="round" />
<path d="M 106.0 154.0 L 105.0 154.0 L 103.0 154.0 L 101.0 155.0 L 98.0 156.0 L 95.0 157.0 L 94.0 158.0 L 93.0 158.0 L 92.0 158.0 L 92.0 158.0 L 94.0 158.0 L 97.0 157.0 L 101.0 155.0 L 106.0 152.0 L 112.0 149.0 L 119.0 146.0 L 127.0 142.0 L 132.0 140.0 " stroke="black" fill="none" stroke-width="5.0" stroke-linecap="round" stroke-linejoin="round" />
<path d="M 202.0 118.0 L 202.0 118.0 L 203.0 119.0 L 203.0 119.0 L 203.0 120.0 L 204.0 120.0 L 204.0 120.0 L 204.0 120.0 L 205.0 120.0 L 205.0 120.0 L 205.0 120.0 L 205.0 120.0 L 205.0 120.0 L 205.0 120.0 L 203.0 120.0 L 201.0 121.0 L 198.0 123.0 L 195.0 126.0 L 191.0 128.0 L 187.0 132.0 L 183.0 135.0 L 179.0 138.0 L 175.0 141.0 L 172.0 142.0 L 169.0 143.0 " stroke="black" fill="none" stroke-width="5.0" stroke-linecap="round" stroke-linejoin="round" />
<path d="M 166.0 144.0 L 166.0 144.0 L 166.0 143.0 L 166.0 143.0 L 167.0 143.0 L 167.0 143.0 L 169.0 143.0 L 171.0 143.0 L 174.0 143.0 L 178.0 144.0 L 183.0 146.0 L 188.0 149.0 L 193.0 151.0 L 198.0 155.0 L 202.0 158.0 L 206.0 161.0 L 210.0 164.0 L 213.0 166.0 L 216.0 167.0 L 217.0 168.0 " stroke="black" fill="none" stroke-width="5.0" stroke-linecap="round" stroke-linejoin="round" />
<path d="M 109.0 181.0 L 109.0 181.0 L 108.0 181.0 L 106.0 181.0 L 105.0 181.0 L 103.0 181.0 L 102.0 181.0 L 101.0 182.0 L 100.0 182.0 L 100.0 182.0 L 100.0 182.0 L 100.0 182.0 L 101.0 182.0 L 103.0 182.0 L 106.0 182.0 L 110.0 183.0 L 116.0 183.0 L 124.0 184.0 L 133.0 184.0 L 143.0 184.0 L 152.0 184.0 L 161.0 182.0 L 170.0 180.0 L 179.0 178.0 L 186.0 177.0 L 191.0 176.0 L 193.0 176.0 L 194.0 176.0 L 195.0 178.0 L 195.0 180.0 L 195.0 182.0 " stroke="black" fill="none" stroke-width="5.0" stroke-linecap="round" stroke-linejoin="round" />
<path d="M 78.0 208.0 L 78.0 208.0 L 77.0 208.0 L 76.0 208.0 L 75.0 208.0 L 74.0 208.0 L 73.0 209.0 L 73.0 209.0 L 72.0 209.0 L 72.0 209.0 L 72.0 209.0 L 73.0 209.0 L 74.0 209.0 L 77.0 209.0 L 82.0 210.0 L 88.0 210.0 L 96.0 211.0 L 104.0 211.0 L 114.0 211.0 L 126.0 211.0 L 138.0 210.0 L 148.0 209.0 L 155.0 208.0 L 162.0 208.0 L 168.0 208.0 L 176.0 208.0 L 184.0 208.0 L 190.0 208.0 L 195.0 208.0 L 201.0 208.0 L 206.0 206.0 L 212.0 204.0 L 218.0 202.0 L 223.0 200.0 L 225.0 199.0 L 226.0 199.0 L 226.0 199.0 L 225.0 199.0 L 224.0 199.0 L 222.0 200.0 L 219.0 202.0 L 216.0 203.0 " stroke="black" fill="none" stroke-width="5.0" stroke-linecap="round" stroke-linejoin="round" />
<path d="M 135.0 213.0 L 134.0 213.0 L 133.0 213.0 L 132.0 213.0 L 131.0 213.0 L 130.0 213.0 L 129.0 213.0 L 128.0 213.0 L 127.0 214.0 L 126.0 214.0 L 124.0 215.0 L 122.0 217.0 L 120.0 220.0 L 117.0 223.0 L 114.0 227.0 L 111.0 232.0 L 108.0 236.0 L 106.0 240.0 L 104.0 242.0 L 102.0 244.0 L 100.0 246.0 L 99.0 246.0 L 98.0 247.0 L 98.0 247.0 L 98.0 247.0 L 98.0 247.0 L 98.0 246.0 L 100.0 246.0 L 101.0 246.0 L 103.0 245.0 L 105.0 245.0 L 107.0 245.0 L 109.0 245.0 L 112.0 245.0 L 115.0 245.0 L 120.0 245.0 L 126.0 245.0 L 134.0 245.0 L 143.0 244.0 L 150.0 244.0 L 157.0 243.0 L 164.0 243.0 L 171.0 243.0 L 179.0 243.0 L 185.0 243.0 L 191.0 243.0 L 195.0 242.0 L 198.0 241.0 L 200.0 240.0 L 201.0 239.0 L 203.0 238.0 L 204.0 237.0 L 204.0 236.0 L 205.0 236.0 L 205.0 236.0 L 204.0 236.0 L 204.0 236.0 L 203.0 236.0 " stroke="black" fill="none" stroke-width="5.0" stroke-linecap="round" stroke-linejoin="round" />
<path d="M 194.0 219.0 L 194.0 219.0 L 193.0 219.0 L 192.0 219.0 L 191.0 219.0 L 190.0 219.0 L 189.0 218.0 L 189.0 218.0 L 189.0 218.0 L 189.0 218.0 L 189.0 218.0 L 189.0 218.0 L 190.0 220.0 L 191.0 222.0 L 193.0 224.0 L 195.0 228.0 L 199.0 232.0 L 203.0 237.0 L 208.0 243.0 L 213.0 248.0 L 218.0 252.0 L 222.0 256.0 L 225.0 258.0 L 227.0 259.0 L 228.0 260.0 L 228.0 259.0 L 228.0 257.0 L 226.0 253.0 " stroke="black" fill="none" stroke-width="5.0" stroke-linecap="round" stroke-linejoin="round" />
</svg>