<svg xmlns="http://www.w3.org/2000/svg" width="300" height="300" viewBox="0 0 300 300">
<path d="M 75.0 80.0 L 75.0 80.0 L 74.0 80.0 L 73.0 80.0 L 73.0 80.0 L 72.0 80.0 L 72.0 80.0 L 71.0 80.0 L 71.0 80.0 L 71.0 80.0 L 71.0 80.0 L 71.0 80.0 L 71.0 80.0 L 71.0 80.0 L 71.0 80.0 L 71.0 81.0 L 72.0 81.0 L 73.0 81.0 L 74.0 81.0 L 74.0 81.0 L 75.0 81.0 L 76.0 81.0 L 77.0 81.0 L 78.0 81.0 L 80.0 82.0 L 81.0 82.0 L 82.0 82.0 L 84.0 82.0 L 86.0 82.0 L 87.0 82.0 L 89.0 82.0 L 90.0 82.0 L 92.0 82.0 L 93.0 82.0 L 94.0 82.0 L 95.0 82.0 L 96.0 82.0 L 98.0 82.0 L 98.0 82.0 L 99.0 82.0 L 100.0 82.0 L 101.0 82.0 L 102.0 82.0 L 102.0 82.0 L 103.0 82.0 L 103.0 82.0 L 104.0 82.0 L 104.0 82.0 L 104.0 82.0 L 105.0 82.0 L 105.0 82.0 L 105.0 82.0 L 106.0 82.0 L 106.0 82.0 L 106.0 82.0 L 107.0 82.0 L 107.0 82.0 L 107.0 82.0 L 108.0 82.0 L 108.0 82.0 L 109.0 82.0 L 110.0 82.0 L 110.0 82.0 L 111.0 82.0 L 112.0 82.0 L 112.0 82.0 L 113.0 82.0 L 113.0 82.0 L 114.0 82.0 L 114.0 82.0 L 115.0 82.0 L 115.0 82.0 L 115.0 82.0 L 115.0 82.0 L 115.0 82.0 L 115.0 82.0 L 115.0 82.0 L 115.0 83.0 L 115.0 83.0 L 115.0 83.0 L 115.0 84.0 L 114.0 84.0 L 113.0 85.0 L 113.0 86.0 L 112.0 87.0 L 111.0 88.0 L 110.0 89.0 L 109.0 90.0 L 108.0 92.0 L 107.0 94.0 L 106.0 96.0 L 105.0 99.0 L 104.0 101.0 L 102.0 104.0 L 101.0 106.0 L 100.0 109.0 L 99.0 110.0 L 98.0 112.0 L 97.0 114.0 L 96.0 115.0 L 95.0 116.0 L 94.0 117.0 L 93.0 118.0 L 92.0 119.0 L 91.0 120.0 L 91.0 120.0 L 90.0 121.0 L 90.0 121.0 L 89.0 122.0 L 89.0 122.0 L 89.0 122.0 L 89.0 123.0 L 89.0 123.0 L 89.0 123.0 L 89.0 124.0 L 89.0 124.0 L 89.0 124.0 L 89.0 124.0 L 89.0 125.0 L 90.0 125.0 L 90.0 125.0 L 90.0 126.0 L 91.0 126.0 L 91.0 127.0 L 91.0 127.0 L 92.0 128.0 L 92.0 128.0 L 93.0 129.0 L 93.0 130.0 L 94.0 130.0 L 94.0 131.0 L 95.0 132.0 L 96.0 133.0 L 96.0 134.0 L 96.0 135.0 L 97.0 136.0 L 98.0 138.0 L 98.0 139.0 L 98.0 141.0 L 99.0 142.0 L 100.0 144.0 L 100.0 145.0 L 100.0 146.0 L 101.0 147.0 L 101.0 148.0 L 101.0 149.0 L 102.0 150.0 L 102.0 151.0 L 102.0 152.0 L 102.0 153.0 L 102.0 154.0 L 103.0 154.0 L 103.0 155.0 L 103.0 156.0 L 103.0 157.0 L 103.0 158.0 L 104.0 159.0 L 104.0 160.0 L 104.0 161.0 L 105.0 162.0 L 105.0 162.0 L 105.0 163.0 L 105.0 164.0 L 105.0 165.0 L 105.0 166.0 L 106.0 167.0 L 106.0 168.0 L 106.0 169.0 L 106.0 170.0 L 106.0 171.0 L 106.0 171.0 L 107.0 172.0 L 107.0 173.0 L 107.0 175.0 L 107.0 176.0 L 107.0 177.0 L 107.0 178.0 L 107.0 180.0 L 107.0 181.0 L 107.0 183.0 L 107.0 185.0 L 107.0 187.0 L 107.0 188.0 L 107.0 190.0 L 107.0 191.0 L 107.0 192.0 L 107.0 193.0 L 106.0 194.0 L 106.0 195.0 L 106.0 196.0 L 106.0 197.0 L 105.0 198.0 L 105.0 199.0 L 105.0 200.0 L 105.0 200.0 L 104.0 201.0 L 104.0 201.0 L 104.0 202.0 L 103.0 202.0 L 103.0 202.0 L 102.0 202.0 L 102.0 203.0 L 101.0 203.0 L 101.0 203.0 L 100.0 203.0 L 99.0 203.0 L 99.0 203.0 L 98.0 203.0 L 98.0 203.0 L 97.0 203.0 L 96.0 203.0 L 96.0 202.0 L 95.0 202.0 L 94.0 201.0 L 94.0 201.0 L 94.0 200.0 L 93.0 200.0 L 93.0 199.0 L 92.0 199.0 L 91.0 198.0 L 91.0 198.0 L 90.0 197.0 L 89.0 197.0 L 89.0 196.0 L 88.0 195.0 L 87.0 195.0 L 87.0 194.0 " stroke="black" fill="none" stroke-width="5.0" stroke-linecap="round" stroke-linejoin="round" />
<path d="M 70.0 82.0 L 70.0 82.0 L 70.0 83.0 L 70.0 83.0 L 70.0 84.0 L 70.0 85.0 L 70.0 86.0 L 70.0 87.0 L 70.0 88.0 L 70.0 89.0 L 70.0 91.0 L 70.0 93.0 L 70.0 94.0 L 70.0 96.0 L 70.0 99.0 L 70.0 101.0 L 70.0 103.0 L 70.0 106.0 L 70.0 108.0 L 70.0 111.0 L 70.0 113.0 L 70.0 115.0 L 70.0 117.0 L 70.0 119.0 L 70.0 121.0 L 70.0 123.0 L 70.0 124.0 L 70.0 126.0 L 70.0 128.0 L 70.0 130.0 L 70.0 132.0 L 70.0 134.0 L 69.0 136.0 L 69.0 138.0 L 69.0 141.0 L 69.0 143.0 L 69.0 145.0 L 69.0 147.0 L 69.0 150.0 L 69.0 152.0 L 69.0 154.0 L 69.0 156.0 L 69.0 158.0 L 69.0 160.0 L 69.0 163.0 L 69.0 164.0 L 69.0 166.0 L 69.0 168.0 L 69.0 169.0 L 69.0 171.0 L 69.0 172.0 L 69.0 174.0 L 69.0 175.0 L 69.0 177.0 L 69.0 178.0 L 69.0 180.0 L 69.0 181.0 L 69.0 183.0 L 69.0 184.0 L 69.0 186.0 L 69.0 188.0 L 69.0 190.0 L 69.0 192.0 L 69.0 194.0 L 69.0 196.0 L 69.0 198.0 L 69.0 199.0 L 69.0 201.0 L 69.0 202.0 L 69.0 204.0 L 69.0 205.0 L 69.0 207.0 L 69.0 208.0 L 69.0 209.0 L 69.0 211.0 L 69.0 212.0 L 69.0 214.0 L 69.0 215.0 L 69.0 217.0 L 69.0 218.0 L 69.0 220.0 L 69.0 222.0 L 69.0 223.0 L 69.0 225.0 L 69.0 227.0 L 69.0 228.0 L 69.0 230.0 L 69.0 231.0 L 69.0 233.0 L 69.0 234.0 L 69.0 236.0 L 69.0 237.0 L 69.0 238.0 L 69.0 239.0 L 69.0 240.0 L 69.0 242.0 L 69.0 243.0 L 69.0 244.0 L 69.0 245.0 L 69.0 246.0 L 69.0 248.0 L 69.0 249.0 L 69.0 250.0 L 69.0 252.0 L 69.0 253.0 L 69.0 254.0 L 70.0 254.0 L 70.0 254.0 L 70.0 254.0 " stroke="black" fill="none" stroke-width="5.0" stroke-linecap="round" stroke-linejoin="round" />
<path d="M 143.0 92.0 L 143.0 92.0 L 143.0 92.0 L 142.0 92.0 L 142.0 91.0 L 142.0 91.0 L 141.0 91.0 L 141.0 90.0 L 141.0 90.0 L 141.0 90.0 L 141.0 90.0 L 141.0 90.0 L 141.0 90.0 L 141.0 90.0 L 141.0 90.0 L 141.0 90.0 L 141.0 90.0 L 141.0 90.0 L 141.0 90.0 L 142.0 90.0 L 142.0 90.0 L 142.0 90.0 L 143.0 90.0 L 143.0 90.0 L 143.0 90.0 L 144.0 90.0 L 144.0 90.0 L 145.0 91.0 L 145.0 91.0 L 146.0 91.0 L 146.0 91.0 L 146.0 91.0 L 147.0 91.0 L 148.0 92.0 L 148.0 92.0 L 149.0 92.0 L 149.0 92.0 L 150.0 93.0 L 150.0 93.0 L 151.0 93.0 L 152.0 93.0 L 152.0 93.0 L 153.0 93.0 L 153.0 93.0 L 154.0 93.0 L 155.0 93.0 L 155.0 93.0 L 156.0 93.0 L 156.0 93.0 L 157.0 93.0 L 158.0 93.0 L 158.0 93.0 L 159.0 93.0 L 160.0 93.0 L 161.0 93.0 L 162.0 93.0 L 163.0 93.0 L 164.0 93.0 L 164.0 93.0 L 165.0 93.0 L 166.0 93.0 L 167.0 93.0 L 168.0 94.0 L 168.0 94.0 L 169.0 94.0 L 170.0 94.0 L 171.0 94.0 L 172.0 94.0 L 173.0 94.0 L 173.0 94.0 L 174.0 94.0 L 175.0 94.0 L 176.0 94.0 L 177.0 94.0 L 178.0 94.0 L 178.0 94.0 L 179.0 94.0 L 180.0 95.0 L 181.0 95.0 L 182.0 95.0 L 182.0 95.0 L 183.0 95.0 L 184.0 95.0 L 185.0 95.0 L 186.0 95.0 L 187.0 95.0 L 187.0 95.0 L 188.0 95.0 L 189.0 95.0 L 190.0 95.0 L 190.0 95.0 L 191.0 95.0 L 192.0 95.0 L 193.0 95.0 L 193.0 95.0 L 194.0 95.0 L 194.0 95.0 L 195.0 95.0 L 196.0 95.0 L 196.0 95.0 L 197.0 95.0 L 198.0 95.0 L 198.0 95.0 L 199.0 95.0 L 200.0 95.0 L 200.0 95.0 L 201.0 95.0 L 201.0 95.0 L 202.0 95.0 L 203.0 95.0 L 204.0 94.0 L 204.0 94.0 L 205.0 94.0 L 205.0 94.0 L 206.0 94.0 L 207.0 94.0 L 207.0 94.0 L 208.0 94.0 L 209.0 94.0 L 209.0 94.0 L 210.0 94.0 L 210.0 94.0 L 211.0 94.0 L 212.0 94.0 L 212.0 94.0 L 213.0 94.0 L 214.0 94.0 " stroke="black" fill="none" stroke-width="5.0" stroke-linecap="round" stroke-linejoin="round" />
<path d="M 181.0 72.0 L 181.0 72.0 L 181.0 72.0 L 181.0 72.0 L 181.0 72.0 L 181.0 72.0 L 181.0 72.0 L 181.0 72.0 L 181.0 73.0 L 181.0 74.0 L 181.0 76.0 L 181.0 79.0 L 181.0 82.0 L 181.0 86.0 L 181.0 91.0 L 182.0 97.0 L 182.0 103.0 L 182.0 109.0 L 182.0 114.0 L 183.0 118.0 L 183.0 120.0 L 183.0 122.0 L 183.0 122.0 L 183.0 123.0 L 183.0 123.0 " stroke="black" fill="none" stroke-width="5.0" stroke-linecap="round" stroke-linejoin="round" />
<path d="M 121.0 127.0 L 121.0 127.0 L 121.0 127.0 L 121.0 127.0 L 121.0 127.0 L 121.0 127.0 L 121.0 127.0 L 121.0 127.0 L 121.0 127.0 L 121.0 127.0 L 121.0 127.0 L 121.0 127.0 L 121.0 127.0 L 121.0 127.0 L 121.0 127.0 L 121.0 127.0 L 121.0 127.0 L 121.0 127.0 L 121.0 127.0 L 121.0 127.0 L 122.0 127.0 L 122.0 127.0 L 123.0 127.0 L 124.0 127.0 L 125.0 126.0 L 126.0 126.0 L 127.0 126.0 L 128.0 126.0 L 129.0 126.0 L 131.0 126.0 L 132.0 126.0 L 134.0 126.0 L 135.0 126.0 L 136.0 126.0 L 138.0 126.0 L 139.0 126.0 L 140.0 126.0 L 141.0 126.0 L 142.0 127.0 L 143.0 127.0 L 144.0 127.0 L 146.0 127.0 L 146.0 127.0 L 148.0 127.0 L 149.0 127.0 L 149.0 127.0 L 150.0 127.0 L 151.0 127.0 L 152.0 127.0 L 152.0 128.0 L 153.0 128.0 L 154.0 128.0 L 154.0 128.0 L 155.0 128.0 L 156.0 128.0 L 157.0 128.0 L 157.0 128.0 L 158.0 128.0 L 159.0 128.0 L 160.0 128.0 L 160.0 128.0 L 161.0 128.0 L 162.0 128.0 L 163.0 128.0 L 163.0 128.0 L 164.0 128.0 L 165.0 128.0 L 166.0 128.0 L 167.0 128.0 L 168.0 127.0 L 168.0 127.0 L 169.0 127.0 L 170.0 127.0 L 171.0 127.0 L 172.0 127.0 L 173.0 127.0 L 174.0 127.0 L 175.0 127.0 L 176.0 127.0 L 177.0 127.0 L 178.0 127.0 L 179.0 127.0 L 180.0 127.0 L 181.0 127.0 L 182.0 127.0 L 183.0 127.0 L 184.0 127.0 L 184.0 127.0 L 185.0 127.0 L 186.0 127.0 L 186.0 127.0 L 187.0 127.0 L 188.0 127.0 L 188.0 127.0 L 189.0 127.0 L 190.0 127.0 L 190.0 127.0 L 191.0 127.0 L 191.0 127.0 L 192.0 127.0 L 192.0 127.0 L 193.0 127.0 L 193.0 127.0 L 194.0 127.0 L 194.0 127.0 L 195.0 127.0 L 195.0 127.0 L 196.0 127.0 L 196.0 127.0 L 197.0 127.0 L 197.0 127.0 L 198.0 127.0 L 198.0 127.0 L 199.0 127.0 L 200.0 127.0 L 200.0 127.0 L 201.0 127.0 L 201.0 127.0 L 202.0 127.0 L 203.0 127.0 L 203.0 127.0 L 204.0 127.0 L 205.0 127.0 L 205.0 127.0 L 206.0 127.0 L 207.0 127.0 L 208.0 127.0 L 209.0 127.0 L 210.0 127.0 L 211.0 127.0 L 212.0 127.0 L 213.0 127.0 L 215.0 127.0 L 216.0 127.0 L 218.0 127.0 L 220.0 127.0 L 221.0 127.0 L 223.0 127.0 L 225.0 127.0 L 227.0 127.0 L 229.0 127.0 L 231.0 127.0 L 232.0 127.0 L 234.0 127.0 L 235.0 126.0 L 235.0 126.0 L 236.0 126.0 L 236.0 126.0 " stroke="black" fill="none" stroke-width="5.0" stroke-linecap="round" stroke-linejoin="round" />
<path d="M 158.0 127.0 L 158.0 127.0 L 158.0 127.0 L 158.0 127.0 L 158.0 127.0 L 158.0 127.0 L 158.0 127.0 L 158.0 127.0 L 158.0 127.0 L 158.0 127.0 L 158.0 128.0 L 158.0 129.0 L 158.0 130.0 L 157.0 131.0 L 157.0 133.0 L 156.0 135.0 L 155.0 138.0 L 154.0 141.0 L 153.0 144.0 L 152.0 148.0 L 151.0 152.0 L 150.0 155.0 L 148.0 157.0 L 147.0 160.0 L 145.0 162.0 L 144.0 164.0 L 142.0 166.0 L 140.0 167.0 L 138.0 168.0 L 137.0 168.0 L 135.0 168.0 L 135.0 168.0 " stroke="black" fill="none" stroke-width="5.0" stroke-linecap="round" stroke-linejoin="round" />
<path d="M 195.0 133.0 L 195.0 133.0 L 195.0 133.0 L 195.0 133.0 L 195.0 133.0 L 195.0 133.0 L 195.0 133.0 L 195.0 133.0 L 195.0 133.0 L 195.0 133.0 L 195.0 133.0 L 195.0 133.0 L 195.0 134.0 L 196.0 134.0 L 196.0 136.0 L 196.0 137.0 L 196.0 139.0 L 196.0 142.0 L 196.0 144.0 L 196.0 146.0 L 196.0 149.0 L 196.0 151.0 L 196.0 153.0 L 196.0 154.0 L 196.0 155.0 L 196.0 157.0 L 196.0 157.0 L 196.0 158.0 L 196.0 159.0 L 196.0 159.0 L 196.0 159.0 L 196.0 160.0 L 196.0 160.0 L 197.0 160.0 L 198.0 160.0 L 198.0 160.0 L 199.0 160.0 L 200.0 160.0 L 202.0 160.0 L 203.0 160.0 L 205.0 160.0 L 206.0 161.0 L 208.0 161.0 L 210.0 161.0 L 212.0 161.0 L 215.0 162.0 L 217.0 162.0 L 219.0 162.0 L 222.0 163.0 L 224.0 163.0 L 226.0 163.0 L 228.0 163.0 L 230.0 163.0 L 231.0 163.0 L 232.0 163.0 L 234.0 163.0 " stroke="black" fill="none" stroke-width="5.0" stroke-linecap="round" stroke-linejoin="round" />
<path d="M 165.0 166.0 L 165.0 166.0 L 165.0 167.0 L 165.0 167.0 L 164.0 168.0 L 164.0 168.0 L 164.0 169.0 L 164.0 169.0 L 164.0 170.0 L 164.0 170.0 L 164.0 171.0 L 164.0 171.0 L 163.0 172.0 L 163.0 173.0 L 162.0 174.0 L 161.0 175.0 L 159.0 177.0 L 158.0 179.0 L 157.0 182.0 L 155.0 184.0 L 154.0 186.0 L 152.0 189.0 L 151.0 191.0 L 149.0 193.0 L 148.0 195.0 L 146.0 197.0 L 144.0 198.0 L 143.0 200.0 L 141.0 201.0 L 140.0 203.0 L 138.0 204.0 L 137.0 205.0 L 135.0 206.0 L 135.0 206.0 " stroke="black" fill="none" stroke-width="5.0" stroke-linecap="round" stroke-linejoin="round" />
<path d="M 157.0 186.0 L 157.0 186.0 L 156.0 186.0 L 155.0 186.0 L 155.0 186.0 L 154.0 187.0 L 154.0 187.0 L 154.0 187.0 L 154.0 187.0 L 154.0 187.0 L 154.0 187.0 L 154.0 187.0 L 154.0 187.0 L 154.0 187.0 L 155.0 187.0 L 155.0 187.0 L 156.0 187.0 L 156.0 187.0 L 157.0 187.0 L 157.0 187.0 L 158.0 187.0 L 159.0 187.0 L 160.0 187.0 L 161.0 187.0 L 162.0 187.0 L 163.0 187.0 L 164.0 187.0 L 165.0 187.0 L 166.0 187.0 L 168.0 187.0 L 169.0 187.0 L 171.0 187.0 L 172.0 187.0 L 173.0 186.0 L 175.0 186.0 L 176.0 186.0 L 177.0 186.0 L 178.0 186.0 L 179.0 186.0 L 180.0 186.0 L 181.0 186.0 L 182.0 186.0 L 184.0 186.0 L 185.0 186.0 L 185.0 186.0 L 187.0 186.0 L 187.0 186.0 L 188.0 186.0 L 189.0 186.0 L 190.0 186.0 L 191.0 186.0 L 192.0 186.0 L 192.0 186.0 L 193.0 186.0 L 193.0 186.0 L 194.0 186.0 L 194.0 186.0 L 195.0 185.0 L 196.0 185.0 L 196.0 185.0 L 197.0 185.0 L 197.0 185.0 L 198.0 185.0 L 198.0 185.0 L 199.0 185.0 L 199.0 185.0 L 200.0 185.0 L 201.0 185.0 L 201.0 185.0 L 202.0 185.0 L 202.0 185.0 L 203.0 185.0 L 204.0 185.0 L 204.0 185.0 L 205.0 185.0 L 206.0 185.0 L 206.0 185.0 L 207.0 185.0 L 208.0 185.0 L 208.0 185.0 L 209.0 185.0 L 210.0 185.0 L 210.0 185.0 L 211.0 185.0 L 212.0 184.0 L 213.0 184.0 L 214.0 184.0 L 215.0 184.0 L 216.0 184.0 L 217.0 183.0 L 218.0 183.0 L 218.0 183.0 L 219.0 183.0 L 220.0 182.0 L 221.0 182.0 L 221.0 182.0 L 222.0 182.0 L 222.0 182.0 L 222.0 182.0 L 223.0 182.0 L 223.0 182.0 L 223.0 182.0 L 223.0 182.0 L 223.0 182.0 L 223.0 182.0 L 223.0 183.0 L 222.0 183.0 L 222.0 184.0 L 221.0 185.0 L 221.0 185.0 L 220.0 186.0 L 220.0 187.0 L 219.0 188.0 L 219.0 188.0 L 218.0 189.0 L 218.0 190.0 L 217.0 191.0 L 216.0 192.0 L 215.0 193.0 L 215.0 194.0 L 214.0 195.0 L 213.0 196.0 L 212.0 196.0 L 211.0 197.0 L 211.0 198.0 L 210.0 198.0 L 209.0 199.0 L 209.0 200.0 L 208.0 200.0 L 207.0 201.0 L 207.0 201.0 L 206.0 202.0 L 206.0 202.0 L 205.0 203.0 L 205.0 203.0 L 204.0 204.0 L 204.0 204.0 L 203.0 205.0 L 203.0 206.0 L 202.0 206.0 L 201.0 207.0 L 201.0 208.0 L 200.0 208.0 L 199.0 209.0 L 199.0 210.0 L 198.0 210.0 L 197.0 211.0 L 197.0 212.0 L 196.0 213.0 L 196.0 213.0 L 195.0 214.0 L 194.0 215.0 L 193.0 216.0 L 193.0 217.0 L 192.0 218.0 L 191.0 219.0 L 191.0 220.0 L 190.0 221.0 L 189.0 222.0 L 188.0 223.0 L 187.0 224.0 L 186.0 225.0 L 185.0 226.0 L 184.0 227.0 L 183.0 227.0 L 182.0 228.0 L 181.0 229.0 L 180.0 230.0 L 180.0 230.0 L 179.0 231.0 L 178.0 231.0 L 177.0 232.0 L 176.0 232.0 L 175.0 232.0 L 175.0 233.0 L 174.0 233.0 L 173.0 234.0 L 172.0 234.0 L 171.0 234.0 L 170.0 235.0 L 169.0 235.0 L 168.0 236.0 L 167.0 236.0 L 166.0 237.0 L 166.0 237.0 L 165.0 238.0 L 164.0 238.0 L 163.0 239.0 L 162.0 239.0 L 161.0 240.0 L 160.0 240.0 L 159.0 241.0 L 158.0 241.0 L 157.0 242.0 L 157.0 242.0 L 156.0 242.0 L 155.0 243.0 L 155.0 243.0 L 154.0 243.0 L 153.0 244.0 L 153.0 244.0 L 152.0 244.0 L 152.0 245.0 L 151.0 245.0 L 151.0 245.0 L 151.0 245.0 L 150.0 245.0 L 150.0 245.0 L 150.0 246.0 L 149.0 246.0 L 149.0 246.0 L 148.0 246.0 L 148.0 246.0 L 148.0 247.0 L 147.0 247.0 L 147.0 247.0 L 146.0 247.0 L 146.0 247.0 L 145.0 247.0 L 145.0 248.0 L 144.0 248.0 L 144.0 248.0 L 143.0 248.0 L 143.0 248.0 L 142.0 249.0 L 141.0 249.0 L 141.0 249.0 L 141.0 249.0 L 140.0 249.0 L 140.0 249.0 L 139.0 249.0 L 139.0 249.0 L 139.0 249.0 L 138.0 249.0 L 138.0 250.0 L 138.0 250.0 L 137.0 250.0 L 137.0 250.0 L 137.0 250.0 L 136.0 250.0 L 136.0 250.0 L 136.0 250.0 L 135.0 250.0 L 135.0 250.0 L 134.0 250.0 L 134.0 250.0 L 133.0 250.0 L 133.0 250.0 L 132.0 250.0 L 132.0 250.0 L 131.0 250.0 L 130.0 250.0 L 130.0 250.0 L 129.0 250.0 L 129.0 250.0 L 128.0 250.0 L 128.0 250.0 L 127.0 250.0 L 126.0 250.0 L 126.0 250.0 L 125.0 250.0 L 125.0 250.0 L 125.0 250.0 " stroke="black" fill="none" stroke-width="5.0" stroke-linecap="round" stroke-linejoin="round" />
<path d="M 134.0 185.0 L 134.0 185.0 L 134.0 185.0 L 134.0 185.0 L 134.0 185.0 L 134.0 185.0 L 134.0 185.0 L 134.0 185.0 L 134.0 185.0 L 134.0 186.0 L 134.0 186.0 L 134.0 186.0 L 134.0 186.0 L 134.0 187.0 L 134.0 187.0 L 134.0 188.0 L 134.0 188.0 L 135.0 189.0 L 136.0 189.0 L 137.0 190.0 L 137.0 191.0 L 139.0 192.0 L 140.0 193.0 L 141.0 194.0 L 142.0 195.0 L 143.0 196.0 L 144.0 197.0 L 144.0 198.0 L 145.0 198.0 L 146.0 199.0 L 146.0 200.0 L 147.0 200.0 L 148.0 201.0 L 148.0 202.0 L 148.0 202.0 L 149.0 203.0 L 149.0 204.0 L 150.0 204.0 L 150.0 205.0 L 150.0 206.0 L 151.0 206.0 L 151.0 207.0 L 152.0 208.0 L 152.0 208.0 L 152.0 209.0 L 153.0 209.0 L 153.0 210.0 L 154.0 211.0 L 154.0 211.0 L 155.0 212.0 L 155.0 213.0 L 156.0 213.0 L 156.0 214.0 L 157.0 214.0 L 157.0 215.0 L 158.0 215.0 L 159.0 216.0 L 159.0 217.0 L 160.0 217.0 L 161.0 218.0 L 161.0 218.0 L 162.0 219.0 L 163.0 220.0 L 164.0 221.0 L 165.0 221.0 L 166.0 222.0 L 167.0 223.0 L 168.0 224.0 L 169.0 225.0 L 170.0 226.0 L 171.0 226.0 L 172.0 227.0 L 173.0 228.0 L 175.0 228.0 L 176.0 229.0 L 177.0 229.0 L 178.0 230.0 L 180.0 230.0 L 181.0 231.0 L 182.0 231.0 L 183.0 232.0 L 184.0 232.0 L 185.0 232.0 L 185.0 233.0 L 186.0 233.0 L 187.0 234.0 L 188.0 234.0 L 189.0 235.0 L 190.0 236.0 L 191.0 236.0 L 191.0 237.0 L 192.0 237.0 L 193.0 238.0 L 194.0 238.0 L 194.0 239.0 L 195.0 239.0 L 196.0 239.0 L 197.0 240.0 L 198.0 240.0 L 199.0 241.0 L 200.0 241.0 L 201.0 242.0 L 203.0 243.0 L 204.0 243.0 L 205.0 243.0 L 207.0 244.0 L 208.0 244.0 L 210.0 245.0 L 211.0 245.0 L 213.0 246.0 L 215.0 246.0 L 216.0 246.0 L 218.0 247.0 L 220.0 247.0 L 222.0 247.0 L 224.0 248.0 L 226.0 248.0 L 228.0 248.0 L 230.0 249.0 L 231.0 250.0 L 233.0 250.0 L 234.0 251.0 L 235.0 251.0 L 236.0 252.0 L 237.0 252.0 L 237.0 252.0 L 237.0 252.0 L 237.0 252.0 L 237.0 252.0 L 237.0 252.0 L 237.0 252.0 " stroke="black" fill="none" stroke-width="5.0" stroke-linecap="round" stroke-linejoin="round" />
</svg>