<svg xmlns="http://www.w3.org/2000/svg" width="300" height="300" viewBox="0 0 300 300">
<path d="M 94.0 81.0 L 94.0 81.0 L 93.0 81.0 L 93.0 80.0 L 92.0 80.0 L 92.0 80.0 L 91.0 80.0 L 91.0 79.0 L 91.0 79.0 L 91.0 79.0 L 91.0 79.0 L 91.0 78.0 L 91.0 78.0 L 91.0 78.0 L 91.0 78.0 L 91.0 78.0 L 92.0 78.0 L 93.0 78.0 L 94.0 78.0 L 95.0 78.0 L 96.0 78.0 L 97.0 78.0 L 98.0 78.0 L 99.0 78.0 L 100.0 78.0 L 101.0 78.0 L 102.0 78.0 L 103.0 78.0 L 104.0 78.0 L 105.0 78.0 L 107.0 78.0 L 108.0 78.0 L 109.0 77.0 L 111.0 77.0 L 112.0 77.0 L 114.0 77.0 L 115.0 77.0 L 116.0 77.0 L 118.0 77.0 L 119.0 77.0 L 120.0 77.0 L 122.0 77.0 L 124.0 77.0 L 125.0 77.0 L 127.0 77.0 L 128.0 77.0 L 130.0 77.0 L 132.0 77.0 L 133.0 77.0 L 135.0 77.0 L 136.0 77.0 L 137.0 77.0 L 138.0 77.0 L 139.0 77.0 L 141.0 77.0 L 142.0 77.0 L 143.0 77.0 L 144.0 77.0 L 146.0 77.0 L 147.0 76.0 L 148.0 76.0 L 149.0 76.0 L 150.0 76.0 L 151.0 76.0 L 152.0 76.0 L 153.0 76.0 L 154.0 76.0 L 155.0 76.0 L 156.0 76.0 L 157.0 76.0 L 158.0 76.0 L 159.0 76.0 L 160.0 76.0 L 161.0 76.0 L 163.0 76.0 L 164.0 76.0 L 165.0 76.0 L 166.0 76.0 L 168.0 76.0 L 169.0 76.0 L 171.0 76.0 L 172.0 76.0 L 173.0 76.0 L 174.0 76.0 L 175.0 76.0 L 177.0 76.0 L 177.0 76.0 L 178.0 77.0 L 179.0 77.0 L 180.0 77.0 L 181.0 77.0 L 182.0 77.0 L 183.0 77.0 L 184.0 77.0 L 185.0 77.0 L 187.0 77.0 L 188.0 77.0 L 189.0 77.0 L 190.0 77.0 L 191.0 77.0 L 192.0 77.0 L 193.0 77.0 L 194.0 77.0 L 196.0 77.0 L 197.0 77.0 L 198.0 77.0 L 199.0 76.0 L 201.0 76.0 L 202.0 76.0 L 203.0 76.0 L 204.0 76.0 L 204.0 76.0 L 205.0 76.0 L 205.0 76.0 L 206.0 76.0 L 206.0 76.0 " stroke="black" fill="none" stroke-width="5.0" stroke-linecap="round" stroke-linejoin="round" />
<path d="M 70.0 109.0 L 70.0 109.0 L 70.0 109.0 L 70.0 109.0 L 70.0 108.0 L 70.0 108.0 L 70.0 108.0 L 70.0 108.0 L 70.0 109.0 L 70.0 111.0 L 70.0 114.0 L 70.0 117.0 L 70.0 120.0 L 70.0 123.0 L 70.0 126.0 L 70.0 127.0 " stroke="black" fill="none" stroke-width="5.0" stroke-linecap="round" stroke-linejoin="round" />
<path d="M 81.0 102.0 L 81.0 102.0 L 80.0 102.0 L 80.0 102.0 L 79.0 102.0 L 79.0 102.0 L 78.0 102.0 L 78.0 102.0 L 78.0 102.0 L 78.0 102.0 L 78.0 102.0 L 78.0 102.0 L 78.0 102.0 L 78.0 102.0 L 78.0 102.0 L 78.0 102.0 L 78.0 102.0 L 78.0 102.0 L 79.0 102.0 L 79.0 102.0 L 80.0 102.0 L 80.0 102.0 L 81.0 102.0 L 82.0 101.0 L 83.0 101.0 L 83.0 101.0 L 84.0 101.0 L 85.0 101.0 L 86.0 101.0 L 87.0 101.0 L 88.0 101.0 L 89.0 101.0 L 90.0 101.0 L 91.0 101.0 L 92.0 101.0 L 93.0 101.0 L 94.0 101.0 L 95.0 101.0 L 96.0 101.0 L 97.0 101.0 L 98.0 101.0 L 99.0 101.0 L 100.0 101.0 L 101.0 101.0 L 102.0 101.0 L 103.0 101.0 L 103.0 101.0 L 104.0 101.0 L 105.0 101.0 L 105.0 101.0 L 106.0 101.0 L 106.0 101.0 L 107.0 101.0 L 107.0 101.0 L 108.0 101.0 L 108.0 101.0 L 109.0 101.0 L 109.0 101.0 L 109.0 101.0 L 110.0 101.0 L 110.0 101.0 L 110.0 101.0 L 111.0 101.0 L 111.0 101.0 L 112.0 101.0 L 112.0 101.0 L 113.0 101.0 L 113.0 101.0 L 114.0 101.0 L 114.0 101.0 L 115.0 101.0 L 115.0 101.0 L 116.0 101.0 L 116.0 101.0 L 117.0 101.0 L 117.0 101.0 L 118.0 101.0 L 118.0 101.0 L 119.0 101.0 L 119.0 101.0 L 120.0 101.0 L 121.0 101.0 L 121.0 101.0 L 122.0 101.0 L 123.0 101.0 L 124.0 101.0 L 125.0 101.0 L 125.0 101.0 L 126.0 101.0 L 127.0 101.0 L 128.0 101.0 L 129.0 101.0 L 130.0 101.0 L 131.0 101.0 L 132.0 101.0 L 133.0 101.0 L 134.0 101.0 L 134.0 101.0 L 135.0 101.0 L 136.0 101.0 L 137.0 101.0 L 137.0 101.0 L 138.0 101.0 L 139.0 101.0 L 139.0 101.0 L 140.0 101.0 L 140.0 101.0 L 141.0 101.0 L 141.0 101.0 L 142.0 101.0 L 142.0 101.0 L 143.0 101.0 L 143.0 101.0 L 144.0 101.0 L 144.0 101.0 L 144.0 101.0 L 145.0 101.0 L 146.0 101.0 L 146.0 101.0 L 147.0 101.0 L 147.0 101.0 L 148.0 101.0 L 148.0 101.0 L 149.0 101.0 L 150.0 101.0 L 150.0 101.0 L 151.0 101.0 L 151.0 101.0 L 152.0 101.0 L 153.0 101.0 L 153.0 101.0 L 154.0 101.0 L 155.0 101.0 L 155.0 101.0 L 156.0 101.0 L 157.0 101.0 L 158.0 101.0 L 159.0 101.0 L 160.0 101.0 L 160.0 101.0 L 162.0 101.0 L 163.0 101.0 L 164.0 101.0 L 165.0 101.0 L 166.0 101.0 L 167.0 101.0 L 168.0 101.0 L 169.0 101.0 L 170.0 101.0 L 171.0 101.0 L 172.0 101.0 L 173.0 101.0 L 173.0 101.0 L 174.0 101.0 L 175.0 101.0 L 176.0 101.0 L 177.0 100.0 L 177.0 100.0 L 178.0 100.0 L 179.0 100.0 L 179.0 100.0 L 180.0 100.0 L 181.0 100.0 L 181.0 100.0 L 182.0 100.0 L 182.0 100.0 L 182.0 100.0 L 183.0 100.0 L 183.0 100.0 L 184.0 100.0 L 184.0 100.0 L 185.0 100.0 L 185.0 100.0 L 185.0 100.0 L 186.0 101.0 L 186.0 101.0 L 187.0 101.0 L 187.0 101.0 L 187.0 101.0 L 188.0 101.0 L 188.0 101.0 L 189.0 101.0 L 189.0 101.0 L 190.0 101.0 L 190.0 102.0 L 191.0 102.0 L 191.0 102.0 L 192.0 102.0 L 192.0 102.0 L 193.0 102.0 L 193.0 102.0 L 194.0 102.0 L 194.0 103.0 L 195.0 103.0 L 196.0 103.0 L 196.0 103.0 L 196.0 103.0 L 197.0 103.0 L 198.0 103.0 L 198.0 103.0 L 199.0 103.0 L 199.0 103.0 L 200.0 103.0 L 200.0 103.0 L 201.0 103.0 L 201.0 103.0 L 202.0 103.0 L 202.0 103.0 L 202.0 103.0 L 203.0 103.0 L 204.0 103.0 L 204.0 103.0 L 205.0 103.0 L 205.0 103.0 L 206.0 103.0 L 207.0 103.0 L 207.0 103.0 L 208.0 103.0 L 209.0 103.0 L 209.0 103.0 L 210.0 103.0 L 211.0 102.0 L 211.0 102.0 L 212.0 102.0 L 213.0 102.0 L 213.0 102.0 L 214.0 102.0 L 215.0 102.0 L 215.0 102.0 L 216.0 102.0 L 216.0 102.0 L 217.0 102.0 L 218.0 102.0 L 218.0 102.0 L 219.0 102.0 L 219.0 102.0 L 220.0 102.0 L 220.0 102.0 L 221.0 102.0 L 221.0 102.0 L 221.0 102.0 L 222.0 102.0 L 222.0 102.0 L 223.0 102.0 L 223.0 102.0 L 223.0 103.0 L 224.0 103.0 L 224.0 103.0 L 225.0 103.0 L 225.0 103.0 L 225.0 103.0 L 226.0 104.0 L 226.0 104.0 L 226.0 104.0 L 227.0 104.0 L 227.0 104.0 L 227.0 104.0 L 227.0 104.0 L 227.0 104.0 L 228.0 105.0 L 228.0 105.0 L 228.0 105.0 L 228.0 105.0 L 228.0 105.0 L 229.0 105.0 L 229.0 105.0 L 229.0 105.0 L 229.0 105.0 L 229.0 105.0 L 229.0 105.0 L 230.0 105.0 L 230.0 105.0 L 230.0 105.0 L 230.0 105.0 L 230.0 105.0 L 230.0 105.0 L 231.0 105.0 L 231.0 105.0 L 231.0 105.0 L 231.0 105.0 L 231.0 106.0 L 231.0 106.0 L 231.0 106.0 L 231.0 106.0 L 231.0 106.0 L 231.0 107.0 L 231.0 107.0 L 231.0 108.0 L 231.0 110.0 L 231.0 113.0 L 230.0 116.0 L 228.0 121.0 L 227.0 125.0 L 225.0 129.0 L 225.0 131.0 " stroke="black" fill="none" stroke-width="5.0" stroke-linecap="round" stroke-linejoin="round" />
<path d="M 149.0 85.0 L 149.0 85.0 L 149.0 85.0 L 149.0 85.0 L 149.0 85.0 L 149.0 85.0 L 149.0 86.0 L 150.0 88.0 L 150.0 91.0 L 150.0 96.0 L 151.0 103.0 L 151.0 110.0 L 151.0 119.0 L 151.0 126.0 L 151.0 132.0 L 151.0 137.0 L 151.0 140.0 L 151.0 141.0 " stroke="black" fill="none" stroke-width="5.0" stroke-linecap="round" stroke-linejoin="round" />
<path d="M 104.0 115.0 L 104.0 115.0 L 104.0 115.0 L 103.0 115.0 L 103.0 115.0 L 102.0 115.0 L 102.0 115.0 L 102.0 115.0 L 102.0 115.0 L 102.0 115.0 L 102.0 116.0 L 104.0 117.0 L 105.0 118.0 L 108.0 119.0 L 111.0 120.0 L 114.0 120.0 L 118.0 121.0 L 123.0 122.0 L 126.0 124.0 " stroke="black" fill="none" stroke-width="5.0" stroke-linecap="round" stroke-linejoin="round" />
<path d="M 104.0 139.0 L 103.0 139.0 L 103.0 139.0 L 102.0 139.0 L 102.0 139.0 L 102.0 139.0 L 102.0 139.0 L 102.0 138.0 L 105.0 137.0 L 108.0 136.0 L 114.0 134.0 L 123.0 131.0 L 133.0 128.0 L 144.0 124.0 " stroke="black" fill="none" stroke-width="5.0" stroke-linecap="round" stroke-linejoin="round" />
<path d="M 202.0 113.0 L 202.0 113.0 L 202.0 113.0 L 202.0 113.0 L 202.0 113.0 L 202.0 113.0 L 202.0 113.0 L 201.0 113.0 L 200.0 114.0 L 198.0 115.0 L 196.0 117.0 L 192.0 119.0 L 188.0 121.0 L 182.0 124.0 L 178.0 126.0 " stroke="black" fill="none" stroke-width="5.0" stroke-linecap="round" stroke-linejoin="round" />
<path d="M 177.0 133.0 L 175.0 133.0 L 174.0 133.0 L 173.0 134.0 L 172.0 134.0 L 172.0 134.0 L 172.0 134.0 L 173.0 134.0 L 175.0 134.0 L 177.0 134.0 L 180.0 134.0 L 183.0 134.0 L 186.0 135.0 L 190.0 136.0 L 193.0 138.0 L 196.0 139.0 L 200.0 141.0 L 204.0 143.0 L 207.0 144.0 " stroke="black" fill="none" stroke-width="5.0" stroke-linecap="round" stroke-linejoin="round" />
<path d="M 146.0 150.0 L 146.0 150.0 L 145.0 150.0 L 145.0 149.0 L 145.0 148.0 L 144.0 147.0 L 144.0 147.0 L 144.0 147.0 L 144.0 147.0 L 144.0 147.0 L 145.0 148.0 L 145.0 151.0 L 146.0 154.0 L 146.0 157.0 L 147.0 161.0 L 147.0 164.0 L 147.0 167.0 L 147.0 168.0 " stroke="black" fill="none" stroke-width="5.0" stroke-linecap="round" stroke-linejoin="round" />
<path d="M 106.0 156.0 L 105.0 156.0 L 104.0 156.0 L 103.0 156.0 L 103.0 156.0 L 102.0 157.0 L 102.0 157.0 L 102.0 157.0 L 104.0 158.0 L 107.0 159.0 L 111.0 160.0 L 116.0 161.0 L 121.0 161.0 L 128.0 162.0 L 131.0 162.0 " stroke="black" fill="none" stroke-width="5.0" stroke-linecap="round" stroke-linejoin="round" />
<path d="M 201.0 152.0 L 201.0 152.0 L 201.0 152.0 L 202.0 152.0 L 202.0 152.0 L 202.0 152.0 L 202.0 152.0 L 202.0 152.0 L 202.0 152.0 L 202.0 152.0 L 201.0 153.0 L 199.0 154.0 L 195.0 156.0 L 191.0 159.0 L 185.0 163.0 L 181.0 166.0 " stroke="black" fill="none" stroke-width="5.0" stroke-linecap="round" stroke-linejoin="round" />
<path d="M 96.0 180.0 L 96.0 180.0 L 96.0 180.0 L 96.0 179.0 L 96.0 178.0 L 97.0 178.0 L 97.0 177.0 L 97.0 177.0 L 97.0 177.0 L 98.0 178.0 L 98.0 179.0 L 98.0 181.0 L 99.0 184.0 L 100.0 188.0 L 100.0 191.0 L 100.0 195.0 L 101.0 199.0 L 101.0 203.0 L 101.0 208.0 L 100.0 213.0 L 99.0 217.0 L 98.0 223.0 L 96.0 228.0 L 95.0 233.0 L 93.0 238.0 L 90.0 241.0 L 87.0 244.0 L 83.0 247.0 L 82.0 248.0 " stroke="black" fill="none" stroke-width="5.0" stroke-linecap="round" stroke-linejoin="round" />
<path d="M 107.0 181.0 L 106.0 181.0 L 105.0 181.0 L 104.0 181.0 L 103.0 181.0 L 103.0 181.0 L 102.0 181.0 L 102.0 181.0 L 101.0 181.0 L 101.0 181.0 L 101.0 181.0 L 101.0 182.0 L 101.0 182.0 L 101.0 182.0 L 101.0 183.0 L 102.0 183.0 L 102.0 183.0 L 103.0 183.0 L 104.0 183.0 L 105.0 183.0 L 105.0 183.0 L 106.0 183.0 L 107.0 183.0 L 108.0 183.0 L 109.0 183.0 L 110.0 182.0 L 111.0 182.0 L 112.0 182.0 L 114.0 182.0 L 116.0 181.0 L 118.0 181.0 L 120.0 180.0 L 123.0 180.0 L 126.0 179.0 L 129.0 179.0 L 131.0 178.0 L 134.0 178.0 L 136.0 178.0 L 138.0 178.0 L 140.0 178.0 L 142.0 178.0 L 144.0 178.0 L 145.0 178.0 L 146.0 178.0 L 147.0 178.0 L 148.0 178.0 L 149.0 178.0 L 150.0 178.0 L 151.0 178.0 L 152.0 178.0 L 153.0 178.0 L 153.0 178.0 L 154.0 178.0 L 155.0 178.0 L 156.0 178.0 L 157.0 178.0 L 158.0 178.0 L 160.0 178.0 L 161.0 178.0 L 163.0 177.0 L 164.0 177.0 L 166.0 177.0 L 168.0 177.0 L 170.0 176.0 L 172.0 176.0 L 174.0 176.0 L 175.0 176.0 L 177.0 175.0 L 178.0 175.0 L 180.0 175.0 L 181.0 175.0 L 182.0 175.0 L 184.0 175.0 L 185.0 175.0 L 187.0 175.0 L 188.0 175.0 L 189.0 175.0 L 191.0 175.0 L 192.0 175.0 L 193.0 175.0 L 194.0 175.0 L 194.0 175.0 L 195.0 175.0 L 196.0 175.0 L 196.0 175.0 L 197.0 174.0 L 198.0 174.0 L 198.0 174.0 L 199.0 174.0 L 199.0 174.0 L 200.0 174.0 L 200.0 174.0 L 201.0 174.0 L 201.0 174.0 L 202.0 174.0 L 202.0 174.0 L 203.0 174.0 L 203.0 174.0 L 204.0 174.0 L 204.0 174.0 L 204.0 174.0 L 205.0 174.0 L 205.0 174.0 L 205.0 175.0 L 206.0 175.0 L 206.0 175.0 L 206.0 176.0 L 206.0 177.0 L 206.0 178.0 L 206.0 179.0 L 206.0 180.0 L 206.0 181.0 L 206.0 183.0 L 206.0 185.0 L 206.0 187.0 L 206.0 190.0 L 206.0 192.0 L 205.0 195.0 L 205.0 199.0 L 205.0 202.0 L 205.0 206.0 L 205.0 210.0 L 205.0 213.0 L 205.0 216.0 L 205.0 220.0 L 205.0 223.0 L 205.0 226.0 L 205.0 229.0 L 204.0 232.0 L 204.0 234.0 L 204.0 236.0 L 203.0 237.0 L 203.0 238.0 L 203.0 239.0 L 203.0 239.0 L 203.0 240.0 L 203.0 241.0 L 203.0 243.0 L 202.0 244.0 L 202.0 246.0 L 202.0 247.0 L 202.0 247.0 L 201.0 248.0 L 201.0 248.0 L 201.0 250.0 L 200.0 251.0 L 200.0 252.0 L 200.0 252.0 L 199.0 253.0 L 199.0 254.0 L 199.0 254.0 L 199.0 255.0 L 198.0 255.0 L 198.0 256.0 L 198.0 256.0 L 198.0 257.0 L 197.0 257.0 L 197.0 257.0 L 197.0 258.0 L 196.0 258.0 L 195.0 258.0 L 194.0 258.0 L 193.0 257.0 L 191.0 256.0 L 188.0 253.0 L 185.0 250.0 L 181.0 246.0 " stroke="black" fill="none" stroke-width="5.0" stroke-linecap="round" stroke-linejoin="round" />
<path d="M 114.0 201.0 L 114.0 201.0 L 114.0 201.0 L 114.0 201.0 L 114.0 201.0 L 114.0 201.0 L 114.0 201.0 L 114.0 201.0 L 117.0 201.0 L 121.0 200.0 L 126.0 200.0 L 133.0 200.0 L 140.0 200.0 L 147.0 201.0 L 153.0 202.0 L 159.0 203.0 L 164.0 203.0 L 169.0 204.0 L 175.0 205.0 L 178.0 206.0 L 178.0 206.0 " stroke="black" fill="none" stroke-width="5.0" stroke-linecap="round" stroke-linejoin="round" />
<path d="M 110.0 228.0 L 110.0 228.0 L 109.0 229.0 L 107.0 229.0 L 106.0 230.0 L 106.0 230.0 L 106.0 230.0 L 106.0 231.0 L 106.0 231.0 L 106.0 231.0 L 107.0 231.0 L 109.0 230.0 L 111.0 230.0 L 114.0 230.0 L 118.0 229.0 L 123.0 229.0 L 130.0 228.0 L 137.0 226.0 L 146.0 224.0 L 155.0 221.0 L 163.0 219.0 L 171.0 217.0 L 179.0 216.0 L 185.0 215.0 L 190.0 214.0 L 193.0 214.0 L 194.0 214.0 L 194.0 215.0 L 194.0 216.0 L 194.0 218.0 " stroke="black" fill="none" stroke-width="5.0" stroke-linecap="round" stroke-linejoin="round" />
</svg>