<svg xmlns="http://www.w3.org/2000/svg" width="300" height="300" viewBox="0 0 300 300">
<path d="M 83.0 86.0 L 83.0 86.0 L 83.0 86.0 L 83.0 86.0 L 83.0 86.0 L 83.0 86.0 L 83.0 86.0 L 83.0 86.0 L 83.0 86.0 L 83.0 86.0 L 83.0 86.0 L 83.0 86.0 L 83.0 86.0 L 84.0 86.0 L 85.0 86.0 L 86.0 86.0 L 88.0 86.0 L 89.0 86.0 L 90.0 86.0 L 92.0 86.0 L 93.0 86.0 L 95.0 85.0 L 96.0 85.0 L 98.0 85.0 L 99.0 85.0 L 100.0 85.0 L 101.0 85.0 L 103.0 85.0 L 104.0 85.0 L 105.0 85.0 L 106.0 84.0 L 107.0 84.0 L 108.0 84.0 L 109.0 84.0 L 109.0 84.0 L 110.0 84.0 L 111.0 84.0 L 112.0 84.0 L 112.0 84.0 L 113.0 84.0 L 114.0 84.0 L 115.0 84.0 L 116.0 84.0 L 116.0 84.0 L 117.0 84.0 L 118.0 84.0 L 119.0 84.0 L 119.0 84.0 L 120.0 84.0 L 121.0 84.0 L 122.0 84.0 L 123.0 84.0 L 123.0 84.0 L 124.0 84.0 L 125.0 84.0 L 126.0 85.0 L 127.0 85.0 L 128.0 85.0 L 129.0 85.0 L 130.0 85.0 L 131.0 85.0 L 132.0 85.0 L 133.0 85.0 L 135.0 86.0 L 136.0 86.0 L 137.0 86.0 L 138.0 86.0 L 139.0 86.0 L 140.0 86.0 L 141.0 86.0 L 143.0 86.0 L 144.0 86.0 L 144.0 87.0 L 146.0 87.0 L 146.0 87.0 L 147.0 87.0 L 148.0 87.0 L 149.0 87.0 L 150.0 87.0 L 151.0 88.0 L 152.0 88.0 L 152.0 88.0 L 153.0 88.0 L 154.0 88.0 L 155.0 89.0 L 156.0 89.0 L 157.0 89.0 L 157.0 89.0 L 158.0 89.0 L 159.0 89.0 L 160.0 89.0 L 161.0 89.0 L 162.0 89.0 L 162.0 89.0 L 163.0 89.0 L 164.0 89.0 L 165.0 89.0 L 166.0 89.0 L 167.0 89.0 L 168.0 89.0 L 168.0 89.0 L 169.0 89.0 L 170.0 89.0 L 171.0 89.0 L 172.0 89.0 L 172.0 89.0 L 173.0 89.0 L 174.0 89.0 L 175.0 89.0 L 176.0 89.0 L 177.0 89.0 L 178.0 89.0 L 178.0 89.0 L 179.0 89.0 L 180.0 89.0 L 181.0 89.0 L 182.0 89.0 L 183.0 89.0 L 184.0 89.0 L 184.0 89.0 L 185.0 89.0 L 186.0 89.0 L 187.0 89.0 L 187.0 89.0 L 188.0 89.0 L 189.0 88.0 L 190.0 88.0 L 191.0 88.0 L 192.0 88.0 L 193.0 88.0 L 193.0 88.0 L 194.0 88.0 L 195.0 88.0 L 196.0 88.0 L 197.0 88.0 L 198.0 88.0 L 198.0 87.0 L 199.0 87.0 L 200.0 87.0 L 201.0 87.0 L 201.0 87.0 L 202.0 87.0 L 203.0 87.0 L 204.0 87.0 L 204.0 87.0 L 205.0 87.0 L 206.0 87.0 L 207.0 87.0 L 208.0 87.0 L 209.0 87.0 L 209.0 86.0 L 210.0 86.0 L 210.0 86.0 L 211.0 86.0 " stroke="black" fill="none" stroke-width="5.0" stroke-linecap="round" stroke-linejoin="round" />
<path d="M 93.0 114.0 L 93.0 114.0 L 93.0 114.0 L 92.0 114.0 L 92.0 114.0 L 92.0 114.0 L 91.0 114.0 L 91.0 114.0 L 91.0 114.0 L 91.0 114.0 L 91.0 114.0 L 92.0 114.0 L 92.0 114.0 L 94.0 114.0 L 95.0 113.0 L 96.0 113.0 L 98.0 113.0 L 99.0 113.0 L 101.0 113.0 L 102.0 113.0 L 103.0 113.0 L 105.0 113.0 L 106.0 113.0 L 108.0 113.0 L 110.0 113.0 L 111.0 113.0 L 113.0 112.0 L 115.0 112.0 L 116.0 112.0 L 118.0 112.0 L 119.0 112.0 L 121.0 112.0 L 123.0 112.0 L 124.0 112.0 L 126.0 112.0 L 128.0 112.0 L 129.0 112.0 L 131.0 112.0 L 132.0 112.0 L 134.0 112.0 L 136.0 113.0 L 137.0 113.0 L 139.0 113.0 L 140.0 113.0 L 141.0 113.0 L 143.0 114.0 L 144.0 114.0 L 144.0 114.0 L 146.0 114.0 L 146.0 114.0 L 147.0 114.0 L 148.0 115.0 L 149.0 115.0 L 150.0 115.0 L 151.0 115.0 L 152.0 115.0 L 153.0 115.0 L 154.0 116.0 L 155.0 116.0 L 156.0 116.0 L 157.0 116.0 L 159.0 116.0 L 160.0 116.0 L 161.0 116.0 L 163.0 116.0 L 164.0 116.0 L 166.0 116.0 L 168.0 116.0 L 170.0 116.0 L 172.0 116.0 L 173.0 116.0 L 175.0 116.0 L 177.0 116.0 L 178.0 116.0 L 180.0 115.0 L 181.0 115.0 L 182.0 115.0 L 183.0 115.0 L 185.0 115.0 L 186.0 114.0 L 187.0 114.0 L 189.0 114.0 L 190.0 114.0 L 191.0 114.0 L 192.0 113.0 L 193.0 113.0 L 194.0 113.0 L 194.0 113.0 L 195.0 113.0 L 196.0 112.0 L 197.0 112.0 L 197.0 112.0 L 198.0 112.0 L 199.0 112.0 L 199.0 112.0 L 200.0 112.0 L 200.0 112.0 L 201.0 112.0 L 201.0 112.0 L 202.0 112.0 L 203.0 112.0 L 203.0 112.0 L 204.0 112.0 L 204.0 112.0 L 205.0 111.0 L 205.0 111.0 L 206.0 111.0 L 206.0 111.0 L 207.0 110.0 L 207.0 110.0 " stroke="black" fill="none" stroke-width="5.0" stroke-linecap="round" stroke-linejoin="round" />
<path d="M 149.0 72.0 L 149.0 72.0 L 149.0 72.0 L 149.0 72.0 L 149.0 72.0 L 149.0 73.0 L 149.0 73.0 L 148.0 73.0 L 148.0 74.0 L 148.0 76.0 L 148.0 78.0 L 148.0 82.0 L 148.0 87.0 L 148.0 94.0 L 148.0 102.0 L 148.0 110.0 L 148.0 118.0 L 147.0 125.0 L 147.0 130.0 L 147.0 135.0 L 147.0 137.0 L 147.0 139.0 L 147.0 140.0 L 147.0 140.0 L 147.0 140.0 L 147.0 140.0 " stroke="black" fill="none" stroke-width="5.0" stroke-linecap="round" stroke-linejoin="round" />
<path d="M 62.0 144.0 L 62.0 144.0 L 62.0 144.0 L 62.0 144.0 L 62.0 144.0 L 62.0 144.0 L 62.0 144.0 L 62.0 144.0 L 62.0 144.0 L 62.0 144.0 L 62.0 144.0 L 62.0 144.0 L 62.0 144.0 L 63.0 144.0 L 64.0 144.0 L 65.0 144.0 L 66.0 144.0 L 67.0 143.0 L 69.0 143.0 L 70.0 143.0 L 72.0 143.0 L 73.0 143.0 L 75.0 143.0 L 77.0 143.0 L 79.0 143.0 L 80.0 143.0 L 82.0 143.0 L 84.0 143.0 L 86.0 143.0 L 88.0 143.0 L 89.0 143.0 L 91.0 143.0 L 92.0 143.0 L 94.0 143.0 L 95.0 143.0 L 97.0 143.0 L 98.0 143.0 L 99.0 143.0 L 100.0 143.0 L 101.0 143.0 L 103.0 143.0 L 104.0 143.0 L 105.0 143.0 L 106.0 143.0 L 107.0 142.0 L 108.0 142.0 L 109.0 142.0 L 110.0 142.0 L 110.0 142.0 L 111.0 142.0 L 112.0 142.0 L 113.0 142.0 L 114.0 142.0 L 115.0 142.0 L 116.0 142.0 L 117.0 141.0 L 118.0 141.0 L 120.0 141.0 L 121.0 141.0 L 122.0 141.0 L 123.0 141.0 L 125.0 141.0 L 126.0 141.0 L 127.0 141.0 L 128.0 141.0 L 130.0 141.0 L 131.0 141.0 L 132.0 140.0 L 134.0 140.0 L 135.0 140.0 L 136.0 140.0 L 137.0 140.0 L 138.0 140.0 L 139.0 140.0 L 140.0 140.0 L 141.0 140.0 L 142.0 140.0 L 143.0 140.0 L 144.0 139.0 L 145.0 139.0 L 146.0 139.0 L 146.0 139.0 L 147.0 139.0 L 148.0 139.0 L 149.0 139.0 L 150.0 139.0 L 150.0 139.0 L 151.0 139.0 L 151.0 139.0 L 152.0 139.0 L 152.0 139.0 L 153.0 139.0 L 153.0 139.0 L 153.0 139.0 L 154.0 139.0 L 155.0 139.0 L 155.0 139.0 L 156.0 139.0 L 157.0 139.0 L 157.0 139.0 L 158.0 139.0 L 159.0 139.0 L 159.0 139.0 L 160.0 139.0 L 161.0 139.0 L 162.0 139.0 L 163.0 139.0 L 164.0 139.0 L 165.0 139.0 L 166.0 139.0 L 166.0 139.0 L 167.0 139.0 L 168.0 139.0 L 169.0 139.0 L 170.0 139.0 L 171.0 139.0 L 172.0 139.0 L 173.0 139.0 L 174.0 139.0 L 175.0 139.0 L 175.0 139.0 L 176.0 139.0 L 177.0 139.0 L 178.0 139.0 L 179.0 139.0 L 180.0 139.0 L 181.0 140.0 L 182.0 140.0 L 182.0 140.0 L 183.0 140.0 L 184.0 140.0 L 185.0 140.0 L 186.0 141.0 L 187.0 141.0 L 188.0 141.0 L 188.0 141.0 L 189.0 141.0 L 190.0 142.0 L 190.0 142.0 L 191.0 142.0 L 192.0 142.0 L 192.0 142.0 L 193.0 142.0 L 193.0 142.0 L 194.0 142.0 L 194.0 142.0 L 195.0 142.0 L 195.0 142.0 L 196.0 142.0 L 196.0 142.0 L 197.0 142.0 L 198.0 142.0 L 198.0 142.0 L 199.0 142.0 L 200.0 142.0 L 201.0 142.0 L 202.0 142.0 L 202.0 141.0 L 203.0 141.0 L 204.0 141.0 L 205.0 141.0 L 205.0 141.0 L 206.0 141.0 L 207.0 141.0 L 208.0 141.0 L 209.0 141.0 L 209.0 141.0 L 210.0 141.0 L 211.0 141.0 L 212.0 141.0 L 213.0 141.0 L 214.0 141.0 L 215.0 141.0 L 216.0 141.0 L 217.0 141.0 L 218.0 141.0 L 220.0 141.0 L 221.0 142.0 L 222.0 142.0 L 224.0 142.0 L 225.0 142.0 L 226.0 143.0 L 227.0 143.0 L 229.0 143.0 L 230.0 143.0 L 231.0 143.0 L 232.0 143.0 L 233.0 143.0 L 233.0 143.0 L 234.0 143.0 L 235.0 143.0 L 235.0 143.0 " stroke="black" fill="none" stroke-width="5.0" stroke-linecap="round" stroke-linejoin="round" />
<path d="M 95.0 166.0 L 95.0 166.0 L 95.0 166.0 L 95.0 166.0 L 95.0 166.0 L 95.0 166.0 L 95.0 166.0 L 96.0 166.0 L 96.0 167.0 L 97.0 168.0 L 98.0 170.0 L 99.0 172.0 L 100.0 175.0 L 101.0 178.0 L 102.0 182.0 L 103.0 186.0 L 103.0 192.0 L 103.0 197.0 L 103.0 203.0 L 102.0 209.0 L 101.0 214.0 L 99.0 220.0 L 98.0 227.0 L 96.0 232.0 L 94.0 236.0 L 92.0 240.0 L 90.0 241.0 L 87.0 242.0 L 85.0 243.0 " stroke="black" fill="none" stroke-width="5.0" stroke-linecap="round" stroke-linejoin="round" />
<path d="M 104.0 173.0 L 104.0 173.0 L 104.0 173.0 L 104.0 173.0 L 104.0 173.0 L 104.0 173.0 L 104.0 173.0 L 104.0 173.0 L 104.0 173.0 L 104.0 172.0 L 104.0 172.0 L 105.0 172.0 L 106.0 172.0 L 107.0 171.0 L 108.0 171.0 L 109.0 171.0 L 110.0 171.0 L 112.0 170.0 L 114.0 170.0 L 116.0 170.0 L 119.0 169.0 L 121.0 169.0 L 124.0 169.0 L 127.0 168.0 L 130.0 168.0 L 132.0 168.0 L 135.0 167.0 L 137.0 167.0 L 138.0 167.0 L 140.0 167.0 L 141.0 167.0 L 142.0 167.0 L 144.0 167.0 L 145.0 167.0 L 146.0 167.0 L 147.0 167.0 L 148.0 167.0 L 149.0 167.0 L 150.0 167.0 L 150.0 168.0 L 151.0 168.0 L 152.0 168.0 L 152.0 168.0 L 153.0 168.0 L 153.0 169.0 L 154.0 169.0 L 155.0 169.0 L 156.0 169.0 L 157.0 169.0 L 157.0 169.0 L 158.0 169.0 L 159.0 169.0 L 160.0 169.0 L 162.0 169.0 L 163.0 169.0 L 164.0 169.0 L 165.0 169.0 L 166.0 169.0 L 167.0 169.0 L 169.0 169.0 L 170.0 169.0 L 171.0 169.0 L 173.0 169.0 L 174.0 169.0 L 175.0 169.0 L 176.0 169.0 L 177.0 169.0 L 179.0 169.0 L 180.0 169.0 L 181.0 169.0 L 182.0 169.0 L 184.0 169.0 L 185.0 169.0 L 185.0 169.0 L 187.0 169.0 L 187.0 169.0 L 188.0 169.0 L 189.0 169.0 L 190.0 169.0 L 191.0 169.0 L 191.0 169.0 L 192.0 169.0 L 192.0 169.0 L 193.0 169.0 L 193.0 169.0 L 194.0 169.0 L 194.0 169.0 L 195.0 169.0 L 196.0 169.0 L 196.0 169.0 L 197.0 170.0 L 197.0 170.0 L 198.0 170.0 L 198.0 170.0 L 199.0 170.0 L 200.0 170.0 L 200.0 171.0 L 201.0 171.0 L 201.0 171.0 L 202.0 171.0 L 202.0 171.0 L 203.0 171.0 L 203.0 172.0 L 203.0 172.0 L 204.0 172.0 L 204.0 173.0 L 204.0 173.0 L 204.0 173.0 L 204.0 174.0 L 204.0 175.0 L 204.0 177.0 L 204.0 178.0 L 204.0 180.0 L 204.0 182.0 L 204.0 184.0 L 204.0 187.0 L 203.0 190.0 L 203.0 193.0 L 203.0 197.0 L 203.0 200.0 L 203.0 205.0 L 203.0 208.0 L 203.0 212.0 L 202.0 215.0 L 202.0 218.0 L 202.0 221.0 L 202.0 224.0 L 202.0 226.0 L 201.0 228.0 L 201.0 231.0 L 201.0 233.0 L 200.0 236.0 L 200.0 238.0 L 199.0 240.0 L 199.0 242.0 L 198.0 244.0 L 198.0 245.0 L 198.0 246.0 L 197.0 247.0 L 197.0 248.0 L 196.0 249.0 L 196.0 249.0 L 195.0 250.0 L 194.0 251.0 L 194.0 252.0 L 193.0 252.0 L 193.0 253.0 L 192.0 254.0 L 192.0 254.0 L 191.0 254.0 L 191.0 254.0 L 190.0 254.0 L 189.0 254.0 L 188.0 254.0 L 186.0 254.0 L 184.0 254.0 L 182.0 254.0 L 180.0 253.0 L 177.0 253.0 L 175.0 252.0 L 172.0 252.0 L 170.0 251.0 " stroke="black" fill="none" stroke-width="5.0" stroke-linecap="round" stroke-linejoin="round" />
<path d="M 108.0 195.0 L 108.0 195.0 L 108.0 195.0 L 108.0 195.0 L 108.0 195.0 L 108.0 195.0 L 108.0 195.0 L 108.0 195.0 L 109.0 195.0 L 110.0 194.0 L 111.0 194.0 L 112.0 194.0 L 114.0 194.0 L 116.0 194.0 L 119.0 194.0 L 123.0 194.0 L 128.0 194.0 L 133.0 194.0 L 137.0 194.0 L 141.0 194.0 L 145.0 194.0 L 149.0 194.0 L 152.0 194.0 L 154.0 194.0 L 157.0 194.0 L 159.0 194.0 L 162.0 194.0 L 165.0 194.0 L 168.0 195.0 L 171.0 196.0 L 175.0 196.0 L 178.0 197.0 L 182.0 198.0 L 186.0 198.0 L 189.0 199.0 L 192.0 199.0 L 194.0 200.0 " stroke="black" fill="none" stroke-width="5.0" stroke-linecap="round" stroke-linejoin="round" />
<path d="M 102.0 219.0 L 102.0 219.0 L 102.0 219.0 L 102.0 218.0 L 102.0 218.0 L 103.0 218.0 L 104.0 218.0 L 105.0 218.0 L 108.0 218.0 L 113.0 218.0 L 119.0 218.0 L 129.0 218.0 L 139.0 218.0 L 148.0 218.0 L 155.0 217.0 L 163.0 216.0 L 171.0 214.0 L 178.0 213.0 L 184.0 212.0 L 189.0 212.0 L 192.0 212.0 L 194.0 212.0 L 195.0 212.0 L 195.0 213.0 L 196.0 214.0 L 196.0 215.0 " stroke="black" fill="none" stroke-width="5.0" stroke-linecap="round" stroke-linejoin="round" />
</svg>