<svg xmlns="http://www.w3.org/2000/svg" width="300" height="300" viewBox="0 0 300 300">
<path d="M 72.0 78.0 L 72.0 78.0 L 72.0 78.0 L 71.0 78.0 L 71.0 79.0 L 71.0 79.0 L 70.0 79.0 L 70.0 79.0 L 70.0 79.0 L 70.0 79.0 L 70.0 79.0 L 70.0 79.0 L 70.0 79.0 L 70.0 79.0 L 70.0 79.0 L 70.0 79.0 L 70.0 79.0 L 71.0 79.0 L 71.0 78.0 L 71.0 78.0 L 72.0 78.0 L 72.0 78.0 L 73.0 78.0 L 73.0 78.0 L 74.0 78.0 L 74.0 78.0 L 75.0 78.0 L 75.0 78.0 L 76.0 77.0 L 76.0 77.0 L 77.0 77.0 L 77.0 77.0 L 78.0 77.0 L 79.0 77.0 L 79.0 77.0 L 80.0 77.0 L 80.0 77.0 L 81.0 77.0 L 82.0 77.0 L 82.0 77.0 L 83.0 77.0 L 83.0 77.0 L 84.0 77.0 L 85.0 77.0 L 85.0 77.0 L 86.0 77.0 L 86.0 77.0 L 87.0 77.0 L 87.0 77.0 L 88.0 77.0 L 88.0 77.0 L 89.0 77.0 L 89.0 77.0 L 90.0 77.0 L 91.0 77.0 L 91.0 77.0 L 92.0 77.0 L 92.0 77.0 L 93.0 77.0 L 93.0 77.0 L 94.0 77.0 L 94.0 77.0 L 95.0 77.0 L 96.0 77.0 L 96.0 77.0 L 97.0 77.0 L 98.0 77.0 L 98.0 77.0 L 99.0 77.0 L 100.0 77.0 L 100.0 77.0 L 101.0 77.0 L 102.0 77.0 L 102.0 77.0 L 103.0 77.0 L 104.0 77.0 L 105.0 76.0 L 105.0 76.0 L 106.0 76.0 L 107.0 76.0 L 108.0 76.0 L 108.0 76.0 L 109.0 76.0 L 110.0 76.0 L 111.0 76.0 L 111.0 76.0 L 113.0 76.0 L 114.0 76.0 L 115.0 76.0 L 116.0 76.0 L 117.0 76.0 L 118.0 76.0 L 119.0 76.0 L 120.0 76.0 L 121.0 76.0 L 122.0 76.0 L 123.0 76.0 L 125.0 76.0 L 126.0 76.0 L 127.0 76.0 L 128.0 76.0 L 130.0 76.0 L 131.0 76.0 L 132.0 76.0 L 133.0 76.0 L 135.0 76.0 L 136.0 76.0 L 137.0 76.0 L 138.0 76.0 L 139.0 76.0 L 140.0 76.0 L 141.0 76.0 L 142.0 76.0 L 143.0 76.0 L 144.0 76.0 L 145.0 76.0 L 146.0 76.0 L 147.0 76.0 L 148.0 76.0 L 149.0 76.0 L 150.0 77.0 L 151.0 77.0 L 152.0 77.0 L 153.0 77.0 L 154.0 77.0 L 155.0 77.0 L 156.0 77.0 L 157.0 77.0 L 158.0 77.0 L 159.0 77.0 L 161.0 77.0 L 162.0 77.0 L 164.0 77.0 L 165.0 77.0 L 167.0 77.0 L 169.0 77.0 L 171.0 77.0 L 173.0 77.0 L 175.0 77.0 L 177.0 77.0 L 179.0 77.0 L 181.0 77.0 L 183.0 77.0 L 185.0 77.0 L 186.0 77.0 L 188.0 77.0 L 190.0 77.0 L 191.0 77.0 L 193.0 77.0 L 194.0 77.0 L 196.0 77.0 L 197.0 77.0 L 198.0 77.0 L 200.0 77.0 L 201.0 77.0 L 203.0 77.0 L 204.0 77.0 L 206.0 77.0 L 208.0 77.0 L 210.0 77.0 L 212.0 77.0 L 215.0 77.0 L 217.0 77.0 L 219.0 77.0 L 221.0 77.0 L 222.0 77.0 L 223.0 77.0 " stroke="black" fill="none" stroke-width="5.0" stroke-linecap="round" stroke-linejoin="round" />
<path d="M 71.0 82.0 L 71.0 82.0 L 71.0 82.0 L 71.0 82.0 L 71.0 82.0 L 71.0 82.0 L 71.0 82.0 L 71.0 82.0 L 71.0 82.0 L 72.0 82.0 L 72.0 82.0 L 72.0 83.0 L 72.0 83.0 L 72.0 84.0 L 73.0 86.0 L 73.0 87.0 L 73.0 89.0 L 73.0 92.0 L 74.0 95.0 L 74.0 98.0 L 74.0 101.0 L 74.0 104.0 L 74.0 108.0 L 74.0 111.0 L 74.0 113.0 L 74.0 116.0 L 74.0 119.0 L 74.0 121.0 L 74.0 124.0 L 74.0 126.0 L 74.0 128.0 L 74.0 131.0 L 74.0 133.0 L 74.0 136.0 L 74.0 138.0 L 74.0 141.0 L 74.0 144.0 L 74.0 146.0 L 74.0 149.0 L 73.0 152.0 L 73.0 154.0 L 73.0 156.0 L 73.0 159.0 L 72.0 161.0 L 72.0 163.0 L 72.0 165.0 L 72.0 167.0 L 72.0 169.0 L 72.0 171.0 L 72.0 173.0 L 72.0 175.0 L 72.0 177.0 L 71.0 179.0 L 71.0 181.0 L 71.0 184.0 L 71.0 186.0 L 71.0 189.0 L 71.0 191.0 L 71.0 194.0 L 71.0 196.0 L 71.0 198.0 L 70.0 201.0 L 70.0 203.0 L 70.0 205.0 L 69.0 207.0 L 69.0 209.0 L 69.0 212.0 L 68.0 214.0 L 68.0 217.0 L 67.0 220.0 L 67.0 223.0 L 67.0 226.0 L 66.0 230.0 L 65.0 234.0 L 65.0 237.0 L 64.0 241.0 L 63.0 245.0 L 62.0 248.0 L 62.0 251.0 L 60.0 253.0 L 60.0 255.0 L 59.0 255.0 " stroke="black" fill="none" stroke-width="5.0" stroke-linecap="round" stroke-linejoin="round" />
<path d="M 104.0 92.0 L 104.0 92.0 L 104.0 92.0 L 104.0 92.0 L 104.0 92.0 L 104.0 92.0 L 104.0 91.0 L 104.0 91.0 L 104.0 91.0 L 104.0 91.0 L 104.0 92.0 L 104.0 94.0 L 104.0 97.0 L 104.0 100.0 L 104.0 104.0 L 104.0 108.0 L 104.0 112.0 L 104.0 115.0 L 104.0 117.0 L 104.0 119.0 L 104.0 120.0 L 104.0 120.0 " stroke="black" fill="none" stroke-width="5.0" stroke-linecap="round" stroke-linejoin="round" />
<path d="M 108.0 87.0 L 108.0 87.0 L 108.0 87.0 L 107.0 88.0 L 107.0 88.0 L 106.0 88.0 L 106.0 88.0 L 106.0 88.0 L 105.0 89.0 L 105.0 89.0 L 105.0 89.0 L 105.0 89.0 L 105.0 89.0 L 105.0 89.0 L 105.0 89.0 L 105.0 89.0 L 105.0 89.0 L 105.0 89.0 L 106.0 89.0 L 106.0 89.0 L 106.0 89.0 L 107.0 89.0 L 107.0 89.0 L 107.0 89.0 L 107.0 89.0 L 108.0 89.0 L 108.0 89.0 L 109.0 89.0 L 109.0 89.0 L 109.0 89.0 L 110.0 89.0 L 110.0 89.0 L 111.0 89.0 L 111.0 89.0 L 112.0 89.0 L 112.0 89.0 L 113.0 89.0 L 114.0 88.0 L 115.0 88.0 L 116.0 88.0 L 117.0 88.0 L 119.0 88.0 L 120.0 88.0 L 121.0 88.0 L 123.0 88.0 L 124.0 88.0 L 126.0 88.0 L 128.0 88.0 L 130.0 88.0 L 132.0 88.0 L 134.0 88.0 L 137.0 88.0 L 138.0 88.0 L 140.0 88.0 L 142.0 88.0 L 143.0 88.0 L 144.0 88.0 L 146.0 89.0 L 147.0 89.0 L 148.0 89.0 L 149.0 89.0 L 150.0 90.0 L 150.0 90.0 L 151.0 91.0 L 151.0 91.0 L 152.0 91.0 L 152.0 92.0 L 152.0 93.0 L 152.0 94.0 L 152.0 96.0 L 152.0 98.0 L 152.0 100.0 L 152.0 103.0 L 152.0 105.0 L 152.0 108.0 L 151.0 111.0 L 151.0 113.0 L 151.0 114.0 L 151.0 116.0 L 151.0 117.0 " stroke="black" fill="none" stroke-width="5.0" stroke-linecap="round" stroke-linejoin="round" />
<path d="M 110.0 108.0 L 109.0 108.0 L 109.0 108.0 L 109.0 107.0 L 108.0 107.0 L 108.0 107.0 L 108.0 107.0 L 107.0 106.0 L 107.0 106.0 L 107.0 106.0 L 107.0 106.0 L 108.0 106.0 L 110.0 106.0 L 112.0 106.0 L 115.0 106.0 L 119.0 106.0 L 124.0 106.0 L 130.0 106.0 L 135.0 106.0 L 141.0 105.0 L 144.0 105.0 L 146.0 105.0 L 147.0 105.0 L 147.0 106.0 L 147.0 107.0 " stroke="black" fill="none" stroke-width="5.0" stroke-linecap="round" stroke-linejoin="round" />
<path d="M 111.0 116.0 L 110.0 116.0 L 109.0 116.0 L 108.0 116.0 L 107.0 116.0 L 107.0 116.0 L 106.0 116.0 L 106.0 117.0 L 106.0 117.0 L 106.0 117.0 L 106.0 117.0 L 107.0 117.0 L 108.0 117.0 L 111.0 117.0 L 114.0 117.0 L 119.0 117.0 L 125.0 116.0 L 131.0 116.0 L 137.0 115.0 L 143.0 115.0 L 148.0 115.0 L 149.0 115.0 " stroke="black" fill="none" stroke-width="5.0" stroke-linecap="round" stroke-linejoin="round" />
<path d="M 101.0 131.0 L 101.0 131.0 L 101.0 131.0 L 101.0 131.0 L 101.0 131.0 L 101.0 132.0 L 101.0 132.0 L 101.0 132.0 L 101.0 133.0 L 102.0 134.0 L 102.0 136.0 L 102.0 139.0 L 102.0 143.0 L 102.0 147.0 L 102.0 152.0 L 102.0 157.0 L 101.0 161.0 L 100.0 165.0 L 98.0 167.0 L 96.0 169.0 L 95.0 170.0 " stroke="black" fill="none" stroke-width="5.0" stroke-linecap="round" stroke-linejoin="round" />
<path d="M 105.0 135.0 L 105.0 135.0 L 105.0 135.0 L 104.0 135.0 L 104.0 136.0 L 104.0 136.0 L 103.0 136.0 L 103.0 136.0 L 103.0 136.0 L 103.0 136.0 L 103.0 136.0 L 103.0 136.0 L 103.0 136.0 L 103.0 136.0 L 104.0 135.0 L 105.0 135.0 L 106.0 135.0 L 107.0 134.0 L 109.0 134.0 L 110.0 133.0 L 112.0 133.0 L 115.0 132.0 L 117.0 132.0 L 119.0 132.0 L 122.0 131.0 L 125.0 131.0 L 127.0 131.0 L 130.0 131.0 L 132.0 131.0 L 134.0 131.0 L 136.0 131.0 L 138.0 131.0 L 140.0 131.0 L 141.0 131.0 L 143.0 131.0 L 144.0 131.0 L 145.0 131.0 L 146.0 131.0 L 147.0 131.0 L 148.0 131.0 L 148.0 131.0 L 148.0 132.0 L 149.0 132.0 L 149.0 132.0 L 150.0 132.0 L 150.0 133.0 L 150.0 133.0 L 150.0 133.0 L 150.0 134.0 L 151.0 134.0 L 151.0 135.0 L 151.0 136.0 L 151.0 136.0 L 151.0 137.0 L 151.0 138.0 L 151.0 140.0 L 151.0 142.0 L 151.0 144.0 L 151.0 146.0 L 151.0 149.0 L 151.0 153.0 L 151.0 156.0 L 151.0 160.0 L 151.0 164.0 L 151.0 166.0 L 150.0 168.0 L 150.0 170.0 L 150.0 171.0 L 149.0 172.0 L 149.0 172.0 L 148.0 172.0 L 147.0 172.0 L 146.0 172.0 L 144.0 172.0 L 142.0 172.0 " stroke="black" fill="none" stroke-width="5.0" stroke-linecap="round" stroke-linejoin="round" />
<path d="M 111.0 147.0 L 111.0 147.0 L 111.0 147.0 L 111.0 147.0 L 110.0 147.0 L 110.0 147.0 L 110.0 147.0 L 110.0 147.0 L 110.0 147.0 L 112.0 147.0 L 114.0 147.0 L 117.0 148.0 L 120.0 148.0 L 124.0 148.0 L 128.0 149.0 L 132.0 149.0 L 136.0 150.0 L 138.0 151.0 L 140.0 152.0 " stroke="black" fill="none" stroke-width="5.0" stroke-linecap="round" stroke-linejoin="round" />
<path d="M 114.0 165.0 L 112.0 165.0 L 111.0 165.0 L 110.0 165.0 L 109.0 165.0 L 109.0 165.0 L 109.0 164.0 L 109.0 164.0 L 109.0 163.0 L 110.0 162.0 L 113.0 161.0 L 116.0 160.0 L 120.0 159.0 L 126.0 157.0 L 132.0 155.0 L 138.0 154.0 L 144.0 152.0 " stroke="black" fill="none" stroke-width="5.0" stroke-linecap="round" stroke-linejoin="round" />
<path d="M 175.0 119.0 L 175.0 119.0 L 174.0 119.0 L 173.0 119.0 L 173.0 119.0 L 172.0 119.0 L 171.0 119.0 L 171.0 119.0 L 171.0 119.0 L 171.0 118.0 L 171.0 118.0 L 171.0 118.0 L 171.0 118.0 L 173.0 118.0 L 175.0 118.0 L 177.0 118.0 L 181.0 119.0 L 185.0 119.0 L 189.0 119.0 L 194.0 119.0 L 200.0 119.0 L 206.0 118.0 L 212.0 117.0 L 218.0 116.0 L 223.0 115.0 L 226.0 115.0 L 228.0 114.0 L 230.0 114.0 L 230.0 114.0 L 231.0 114.0 " stroke="black" fill="none" stroke-width="5.0" stroke-linecap="round" stroke-linejoin="round" />
<path d="M 197.0 96.0 L 197.0 96.0 L 197.0 96.0 L 197.0 96.0 L 197.0 96.0 L 197.0 96.0 L 197.0 97.0 L 197.0 98.0 L 197.0 100.0 L 198.0 102.0 L 198.0 105.0 L 198.0 109.0 L 198.0 113.0 L 198.0 117.0 L 198.0 122.0 L 196.0 127.0 L 195.0 132.0 L 193.0 137.0 L 191.0 143.0 L 189.0 148.0 L 187.0 152.0 L 185.0 155.0 L 182.0 156.0 L 179.0 157.0 L 178.0 158.0 L 176.0 158.0 L 175.0 157.0 L 175.0 155.0 L 175.0 154.0 " stroke="black" fill="none" stroke-width="5.0" stroke-linecap="round" stroke-linejoin="round" />
<path d="M 198.0 123.0 L 198.0 123.0 L 198.0 123.0 L 197.0 123.0 L 197.0 123.0 L 196.0 123.0 L 196.0 123.0 L 196.0 123.0 L 196.0 124.0 L 196.0 124.0 L 196.0 125.0 L 196.0 127.0 L 198.0 128.0 L 199.0 130.0 L 201.0 134.0 L 203.0 138.0 L 206.0 142.0 L 209.0 147.0 L 212.0 152.0 L 215.0 156.0 L 218.0 160.0 L 221.0 162.0 L 224.0 163.0 L 226.0 165.0 L 228.0 165.0 L 230.0 166.0 L 232.0 166.0 L 233.0 166.0 L 233.0 166.0 " stroke="black" fill="none" stroke-width="5.0" stroke-linecap="round" stroke-linejoin="round" />
<path d="M 215.0 97.0 L 215.0 97.0 L 215.0 98.0 L 215.0 98.0 L 216.0 99.0 L 217.0 101.0 L 218.0 102.0 L 221.0 104.0 L 224.0 106.0 L 227.0 108.0 L 231.0 111.0 L 233.0 112.0 L 235.0 114.0 " stroke="black" fill="none" stroke-width="5.0" stroke-linecap="round" stroke-linejoin="round" />
<path d="M 91.0 187.0 L 91.0 187.0 L 91.0 187.0 L 91.0 187.0 L 90.0 187.0 L 90.0 187.0 L 90.0 186.0 L 90.0 186.0 L 89.0 186.0 L 89.0 186.0 L 89.0 186.0 L 89.0 186.0 L 89.0 186.0 L 89.0 186.0 L 89.0 186.0 L 90.0 186.0 L 90.0 186.0 L 91.0 186.0 L 91.0 186.0 L 92.0 186.0 L 93.0 186.0 L 94.0 186.0 L 94.0 186.0 L 95.0 186.0 L 96.0 186.0 L 97.0 186.0 L 98.0 186.0 L 98.0 186.0 L 99.0 186.0 L 100.0 186.0 L 101.0 186.0 L 102.0 187.0 L 103.0 187.0 L 103.0 187.0 L 104.0 187.0 L 105.0 187.0 L 106.0 187.0 L 106.0 187.0 L 107.0 188.0 L 108.0 188.0 L 108.0 188.0 L 109.0 188.0 L 110.0 188.0 L 110.0 188.0 L 111.0 188.0 L 112.0 188.0 L 112.0 188.0 L 113.0 188.0 L 114.0 188.0 L 115.0 188.0 L 116.0 188.0 L 117.0 188.0 L 118.0 188.0 L 119.0 187.0 L 120.0 187.0 L 121.0 187.0 L 122.0 187.0 L 124.0 187.0 L 125.0 187.0 L 127.0 187.0 L 128.0 187.0 L 130.0 187.0 L 132.0 187.0 L 133.0 187.0 L 135.0 187.0 L 136.0 187.0 L 138.0 187.0 L 140.0 187.0 L 141.0 187.0 L 143.0 187.0 L 144.0 187.0 L 146.0 187.0 L 147.0 187.0 L 148.0 187.0 L 149.0 187.0 L 150.0 187.0 L 151.0 187.0 L 152.0 187.0 L 153.0 187.0 L 153.0 187.0 L 154.0 187.0 L 155.0 187.0 L 156.0 187.0 L 157.0 187.0 L 159.0 187.0 L 160.0 187.0 L 162.0 187.0 L 163.0 187.0 L 165.0 187.0 L 167.0 187.0 L 169.0 186.0 L 171.0 186.0 L 173.0 186.0 L 175.0 186.0 L 177.0 186.0 L 179.0 185.0 L 181.0 185.0 L 183.0 185.0 L 184.0 185.0 L 186.0 185.0 L 188.0 185.0 L 189.0 185.0 L 191.0 185.0 L 192.0 185.0 L 193.0 185.0 L 195.0 185.0 L 196.0 185.0 L 197.0 185.0 L 198.0 185.0 L 200.0 185.0 L 201.0 185.0 L 203.0 185.0 L 204.0 184.0 L 206.0 184.0 L 208.0 184.0 L 210.0 184.0 L 213.0 184.0 L 215.0 184.0 L 218.0 184.0 L 221.0 184.0 L 224.0 184.0 L 226.0 184.0 L 229.0 184.0 L 232.0 184.0 L 234.0 184.0 L 236.0 184.0 L 237.0 184.0 " stroke="black" fill="none" stroke-width="5.0" stroke-linecap="round" stroke-linejoin="round" />
<path d="M 105.0 203.0 L 105.0 203.0 L 105.0 203.0 L 105.0 203.0 L 105.0 202.0 L 105.0 202.0 L 105.0 202.0 L 105.0 203.0 L 105.0 204.0 L 105.0 207.0 L 105.0 211.0 L 105.0 216.0 L 105.0 222.0 L 105.0 229.0 L 105.0 235.0 L 105.0 241.0 L 105.0 245.0 L 105.0 247.0 L 105.0 247.0 " stroke="black" fill="none" stroke-width="5.0" stroke-linecap="round" stroke-linejoin="round" />
<path d="M 108.0 206.0 L 108.0 206.0 L 108.0 205.0 L 108.0 205.0 L 108.0 205.0 L 107.0 205.0 L 107.0 204.0 L 107.0 204.0 L 107.0 204.0 L 107.0 204.0 L 106.0 204.0 L 106.0 204.0 L 106.0 204.0 L 106.0 204.0 L 106.0 204.0 L 106.0 204.0 L 106.0 204.0 L 106.0 204.0 L 106.0 204.0 L 106.0 204.0 L 106.0 204.0 L 106.0 204.0 L 106.0 205.0 L 107.0 205.0 L 107.0 205.0 L 107.0 205.0 L 107.0 205.0 L 108.0 205.0 L 108.0 205.0 L 108.0 206.0 L 109.0 206.0 L 109.0 206.0 L 110.0 206.0 L 110.0 206.0 L 111.0 206.0 L 112.0 206.0 L 113.0 206.0 L 113.0 206.0 L 114.0 206.0 L 115.0 206.0 L 116.0 206.0 L 117.0 206.0 L 117.0 206.0 L 118.0 206.0 L 119.0 206.0 L 120.0 206.0 L 121.0 205.0 L 121.0 205.0 L 122.0 205.0 L 123.0 205.0 L 124.0 205.0 L 125.0 205.0 L 126.0 205.0 L 126.0 205.0 L 127.0 205.0 L 128.0 205.0 L 129.0 205.0 L 130.0 205.0 L 130.0 205.0 L 131.0 205.0 L 132.0 205.0 L 133.0 205.0 L 133.0 205.0 L 134.0 205.0 L 135.0 205.0 L 136.0 205.0 L 137.0 205.0 L 138.0 205.0 L 138.0 205.0 L 139.0 205.0 L 140.0 205.0 L 141.0 205.0 L 142.0 205.0 L 142.0 205.0 L 143.0 204.0 L 144.0 204.0 L 144.0 204.0 L 145.0 204.0 L 146.0 204.0 L 147.0 204.0 L 147.0 204.0 L 148.0 204.0 L 149.0 204.0 L 149.0 204.0 L 150.0 204.0 L 150.0 204.0 L 151.0 204.0 L 152.0 204.0 L 152.0 204.0 L 153.0 204.0 L 153.0 204.0 L 154.0 204.0 L 154.0 204.0 L 155.0 204.0 L 156.0 204.0 L 156.0 204.0 L 157.0 204.0 L 158.0 204.0 L 158.0 204.0 L 159.0 204.0 L 160.0 204.0 L 160.0 204.0 L 161.0 204.0 L 162.0 204.0 L 163.0 204.0 L 164.0 204.0 L 165.0 204.0 L 166.0 204.0 L 167.0 204.0 L 168.0 204.0 L 169.0 203.0 L 170.0 203.0 L 171.0 203.0 L 172.0 203.0 L 173.0 203.0 L 174.0 203.0 L 175.0 203.0 L 177.0 203.0 L 178.0 203.0 L 179.0 203.0 L 180.0 203.0 L 181.0 203.0 L 182.0 203.0 L 183.0 203.0 L 184.0 203.0 L 185.0 203.0 L 186.0 203.0 L 187.0 203.0 L 188.0 203.0 L 189.0 203.0 L 190.0 203.0 L 190.0 203.0 L 191.0 203.0 L 192.0 203.0 L 193.0 203.0 L 194.0 203.0 L 194.0 203.0 L 195.0 203.0 L 196.0 203.0 L 196.0 203.0 L 197.0 203.0 L 198.0 203.0 L 198.0 203.0 L 199.0 203.0 L 199.0 203.0 L 200.0 203.0 L 201.0 203.0 L 202.0 203.0 L 202.0 203.0 L 203.0 203.0 L 204.0 203.0 L 205.0 204.0 L 205.0 204.0 L 206.0 204.0 L 207.0 204.0 L 208.0 204.0 L 209.0 204.0 L 210.0 204.0 L 211.0 204.0 L 212.0 205.0 L 213.0 205.0 L 214.0 205.0 L 215.0 205.0 L 216.0 205.0 L 217.0 205.0 L 219.0 206.0 L 219.0 206.0 L 220.0 206.0 L 221.0 206.0 L 222.0 206.0 L 223.0 207.0 L 223.0 207.0 L 224.0 207.0 L 225.0 207.0 L 225.0 207.0 L 226.0 207.0 L 226.0 208.0 L 226.0 208.0 L 226.0 209.0 L 227.0 209.0 L 227.0 210.0 L 227.0 211.0 L 227.0 211.0 L 227.0 212.0 L 227.0 213.0 L 227.0 215.0 L 227.0 216.0 L 227.0 218.0 L 227.0 220.0 L 227.0 223.0 L 227.0 226.0 L 226.0 229.0 L 226.0 232.0 L 226.0 234.0 L 226.0 237.0 L 226.0 239.0 L 226.0 241.0 L 226.0 242.0 L 226.0 244.0 L 226.0 245.0 L 226.0 246.0 L 226.0 246.0 L 226.0 247.0 L 226.0 247.0 L 226.0 247.0 " stroke="black" fill="none" stroke-width="5.0" stroke-linecap="round" stroke-linejoin="round" />
<path d="M 163.0 189.0 L 162.0 189.0 L 162.0 190.0 L 161.0 190.0 L 160.0 191.0 L 159.0 192.0 L 158.0 193.0 L 158.0 195.0 L 157.0 196.0 L 156.0 198.0 L 155.0 200.0 L 154.0 202.0 L 153.0 204.0 " stroke="black" fill="none" stroke-width="5.0" stroke-linecap="round" stroke-linejoin="round" />
<path d="M 141.0 211.0 L 141.0 211.0 L 141.0 210.0 L 141.0 210.0 L 140.0 209.0 L 140.0 209.0 L 140.0 208.0 L 140.0 208.0 L 140.0 208.0 L 140.0 208.0 L 140.0 210.0 L 141.0 212.0 L 141.0 215.0 L 141.0 218.0 L 141.0 222.0 L 141.0 227.0 L 141.0 231.0 L 141.0 236.0 L 142.0 240.0 L 142.0 243.0 L 142.0 246.0 L 143.0 248.0 L 144.0 248.0 L 144.0 248.0 " stroke="black" fill="none" stroke-width="5.0" stroke-linecap="round" stroke-linejoin="round" />
<path d="M 185.0 207.0 L 185.0 207.0 L 185.0 207.0 L 185.0 207.0 L 185.0 207.0 L 185.0 207.0 L 185.0 207.0 L 185.0 207.0 L 185.0 207.0 L 185.0 208.0 L 185.0 209.0 L 185.0 210.0 L 186.0 213.0 L 187.0 216.0 L 187.0 220.0 L 187.0 225.0 L 188.0 230.0 L 188.0 235.0 L 188.0 239.0 L 188.0 242.0 L 188.0 243.0 L 188.0 243.0 " stroke="black" fill="none" stroke-width="5.0" stroke-linecap="round" stroke-linejoin="round" />
<path d="M 151.0 219.0 L 150.0 219.0 L 150.0 219.0 L 149.0 219.0 L 148.0 219.0 L 148.0 219.0 L 147.0 219.0 L 147.0 219.0 L 147.0 219.0 L 147.0 219.0 L 147.0 219.0 L 149.0 219.0 L 151.0 219.0 L 154.0 219.0 L 159.0 218.0 L 164.0 217.0 L 171.0 216.0 L 177.0 215.0 L 184.0 214.0 L 189.0 213.0 " stroke="black" fill="none" stroke-width="5.0" stroke-linecap="round" stroke-linejoin="round" />
<path d="M 151.0 234.0 L 150.0 234.0 L 150.0 234.0 L 149.0 235.0 L 149.0 235.0 L 149.0 235.0 L 149.0 235.0 L 150.0 235.0 L 152.0 235.0 L 155.0 235.0 L 158.0 235.0 L 162.0 234.0 L 167.0 233.0 L 172.0 233.0 L 177.0 232.0 L 182.0 232.0 L 183.0 232.0 " stroke="black" fill="none" stroke-width="5.0" stroke-linecap="round" stroke-linejoin="round" />
<path d="M 112.0 251.0 L 112.0 251.0 L 112.0 251.0 L 111.0 251.0 L 111.0 251.0 L 111.0 251.0 L 111.0 251.0 L 111.0 251.0 L 111.0 251.0 L 111.0 251.0 L 111.0 251.0 L 111.0 251.0 L 112.0 251.0 L 113.0 251.0 L 114.0 251.0 L 115.0 251.0 L 117.0 251.0 L 119.0 251.0 L 121.0 251.0 L 124.0 251.0 L 128.0 251.0 L 132.0 251.0 L 137.0 250.0 L 142.0 250.0 L 146.0 250.0 L 150.0 250.0 L 154.0 249.0 L 158.0 249.0 L 161.0 249.0 L 165.0 248.0 L 169.0 248.0 L 173.0 248.0 L 178.0 248.0 L 182.0 248.0 L 186.0 249.0 L 190.0 249.0 L 193.0 249.0 L 195.0 249.0 L 198.0 249.0 L 200.0 249.0 L 202.0 249.0 L 205.0 249.0 L 207.0 249.0 L 209.0 249.0 L 212.0 249.0 L 213.0 249.0 L 215.0 249.0 L 217.0 249.0 L 217.0 249.0 " stroke="black" fill="none" stroke-width="5.0" stroke-linecap="round" stroke-linejoin="round" />
</svg>