<svg xmlns="http://www.w3.org/2000/svg" width="300" height="300" viewBox="0 0 300 300">
<path d="M 109.0 69.0 L 109.0 68.0 L 109.0 67.0 L 109.0 66.0 L 109.0 65.0 L 109.0 64.0 L 109.0 64.0 L 109.0 63.0 L 109.0 63.0 L 109.0 63.0 L 109.0 63.0 L 109.0 64.0 L 109.0 66.0 L 109.0 70.0 L 108.0 73.0 L 108.0 78.0 L 108.0 82.0 L 107.0 87.0 L 107.0 91.0 L 107.0 96.0 L 107.0 98.0 L 107.0 100.0 L 107.0 103.0 " stroke="black" fill="none" stroke-width="5.0" stroke-linecap="round" stroke-linejoin="round" />
<path d="M 109.0 86.0 L 109.0 86.0 L 109.0 86.0 L 108.0 85.0 L 108.0 85.0 L 108.0 85.0 L 108.0 84.0 L 108.0 84.0 L 109.0 84.0 L 110.0 84.0 L 111.0 84.0 L 113.0 84.0 L 116.0 84.0 L 119.0 84.0 L 123.0 84.0 L 128.0 84.0 L 130.0 84.0 " stroke="black" fill="none" stroke-width="5.0" stroke-linecap="round" stroke-linejoin="round" />
<path d="M 79.0 85.0 L 79.0 85.0 L 78.0 85.0 L 78.0 84.0 L 77.0 84.0 L 77.0 84.0 L 76.0 84.0 L 76.0 84.0 L 76.0 84.0 L 76.0 84.0 L 76.0 86.0 L 76.0 88.0 L 76.0 91.0 L 77.0 94.0 L 77.0 98.0 L 78.0 102.0 L 78.0 105.0 L 78.0 108.0 L 78.0 111.0 L 78.0 113.0 L 78.0 114.0 " stroke="black" fill="none" stroke-width="5.0" stroke-linecap="round" stroke-linejoin="round" />
<path d="M 68.0 111.0 L 68.0 111.0 L 66.0 111.0 L 65.0 111.0 L 64.0 111.0 L 63.0 111.0 L 62.0 111.0 L 62.0 111.0 L 61.0 111.0 L 61.0 111.0 L 61.0 111.0 L 62.0 111.0 L 63.0 111.0 L 64.0 111.0 L 66.0 111.0 L 69.0 111.0 L 73.0 111.0 L 77.0 111.0 L 83.0 111.0 L 90.0 111.0 L 98.0 111.0 L 105.0 110.0 L 112.0 110.0 L 118.0 109.0 L 124.0 109.0 L 129.0 108.0 L 135.0 108.0 L 138.0 109.0 L 140.0 110.0 L 142.0 112.0 L 142.0 114.0 " stroke="black" fill="none" stroke-width="5.0" stroke-linecap="round" stroke-linejoin="round" />
<path d="M 107.0 114.0 L 107.0 114.0 L 107.0 114.0 L 107.0 114.0 L 107.0 114.0 L 106.0 113.0 L 106.0 113.0 L 106.0 113.0 L 106.0 113.0 L 106.0 114.0 L 106.0 115.0 L 106.0 117.0 L 106.0 120.0 L 106.0 123.0 L 106.0 127.0 L 106.0 130.0 L 106.0 134.0 L 106.0 137.0 L 106.0 139.0 L 106.0 140.0 " stroke="black" fill="none" stroke-width="5.0" stroke-linecap="round" stroke-linejoin="round" />
<path d="M 98.0 120.0 L 98.0 120.0 L 97.0 120.0 L 96.0 120.0 L 96.0 120.0 L 95.0 120.0 L 94.0 120.0 L 93.0 120.0 L 92.0 122.0 L 91.0 123.0 L 87.0 127.0 L 84.0 130.0 L 80.0 134.0 L 75.0 139.0 L 71.0 143.0 L 68.0 146.0 L 65.0 148.0 L 64.0 148.0 " stroke="black" fill="none" stroke-width="5.0" stroke-linecap="round" stroke-linejoin="round" />
<path d="M 140.0 119.0 L 140.0 119.0 L 139.0 119.0 L 139.0 119.0 L 139.0 119.0 L 139.0 119.0 L 138.0 120.0 L 138.0 120.0 L 137.0 121.0 L 137.0 122.0 L 136.0 123.0 L 134.0 125.0 L 132.0 127.0 L 128.0 131.0 L 124.0 135.0 L 118.0 140.0 L 112.0 145.0 L 107.0 150.0 L 102.0 153.0 L 97.0 156.0 L 91.0 158.0 L 86.0 159.0 L 81.0 159.0 L 79.0 159.0 " stroke="black" fill="none" stroke-width="5.0" stroke-linecap="round" stroke-linejoin="round" />
<path d="M 164.0 81.0 L 162.0 81.0 L 161.0 81.0 L 160.0 80.0 L 159.0 80.0 L 158.0 80.0 L 157.0 80.0 L 157.0 80.0 L 157.0 80.0 L 157.0 80.0 L 157.0 80.0 L 159.0 80.0 L 161.0 80.0 L 165.0 80.0 L 169.0 80.0 L 175.0 80.0 L 181.0 80.0 L 187.0 80.0 L 193.0 80.0 L 200.0 80.0 L 206.0 80.0 L 212.0 80.0 L 218.0 79.0 L 222.0 79.0 L 226.0 79.0 L 228.0 79.0 L 229.0 79.0 L 229.0 80.0 L 229.0 80.0 " stroke="black" fill="none" stroke-width="5.0" stroke-linecap="round" stroke-linejoin="round" />
<path d="M 205.0 82.0 L 204.0 82.0 L 203.0 82.0 L 202.0 82.0 L 201.0 82.0 L 200.0 83.0 L 198.0 84.0 L 196.0 86.0 L 195.0 89.0 L 193.0 92.0 L 191.0 96.0 L 189.0 99.0 " stroke="black" fill="none" stroke-width="5.0" stroke-linecap="round" stroke-linejoin="round" />
<path d="M 163.0 101.0 L 163.0 100.0 L 163.0 100.0 L 162.0 99.0 L 162.0 98.0 L 162.0 98.0 L 162.0 98.0 L 162.0 98.0 L 162.0 98.0 L 162.0 100.0 L 162.0 101.0 L 162.0 104.0 L 162.0 107.0 L 162.0 111.0 L 162.0 114.0 L 162.0 119.0 L 162.0 124.0 L 162.0 129.0 L 162.0 134.0 L 162.0 139.0 L 162.0 143.0 L 162.0 146.0 L 162.0 146.0 " stroke="black" fill="none" stroke-width="5.0" stroke-linecap="round" stroke-linejoin="round" />
<path d="M 167.0 98.0 L 166.0 98.0 L 165.0 98.0 L 164.0 98.0 L 164.0 98.0 L 163.0 98.0 L 163.0 98.0 L 163.0 98.0 L 163.0 98.0 L 163.0 98.0 L 164.0 97.0 L 166.0 97.0 L 168.0 97.0 L 169.0 96.0 L 172.0 96.0 L 175.0 96.0 L 178.0 96.0 L 181.0 96.0 L 184.0 95.0 L 188.0 95.0 L 191.0 94.0 L 194.0 94.0 L 197.0 94.0 L 200.0 93.0 L 204.0 93.0 L 207.0 93.0 L 210.0 93.0 L 213.0 93.0 L 217.0 93.0 L 220.0 93.0 L 223.0 93.0 L 225.0 93.0 L 227.0 94.0 L 228.0 94.0 L 229.0 95.0 L 230.0 96.0 L 230.0 97.0 L 230.0 98.0 L 231.0 100.0 L 231.0 102.0 L 231.0 104.0 L 231.0 107.0 L 231.0 109.0 L 231.0 113.0 L 230.0 116.0 L 230.0 120.0 L 229.0 124.0 L 228.0 128.0 L 228.0 132.0 L 227.0 135.0 L 227.0 137.0 L 226.0 137.0 " stroke="black" fill="none" stroke-width="5.0" stroke-linecap="round" stroke-linejoin="round" />
<path d="M 180.0 114.0 L 179.0 114.0 L 177.0 114.0 L 175.0 113.0 L 173.0 113.0 L 172.0 112.0 L 172.0 112.0 L 172.0 112.0 L 172.0 112.0 L 173.0 112.0 L 175.0 112.0 L 178.0 112.0 L 182.0 112.0 L 186.0 112.0 L 191.0 112.0 L 195.0 112.0 L 200.0 111.0 L 205.0 110.0 L 211.0 110.0 L 216.0 109.0 L 219.0 109.0 L 223.0 109.0 L 223.0 109.0 " stroke="black" fill="none" stroke-width="5.0" stroke-linecap="round" stroke-linejoin="round" />
<path d="M 178.0 128.0 L 175.0 128.0 L 172.0 128.0 L 170.0 128.0 L 169.0 129.0 L 169.0 129.0 L 169.0 129.0 L 170.0 129.0 L 173.0 129.0 L 177.0 129.0 L 182.0 128.0 L 188.0 127.0 L 194.0 126.0 L 199.0 125.0 L 204.0 124.0 L 209.0 123.0 L 213.0 122.0 L 217.0 122.0 " stroke="black" fill="none" stroke-width="5.0" stroke-linecap="round" stroke-linejoin="round" />
<path d="M 171.0 145.0 L 169.0 145.0 L 166.0 145.0 L 165.0 145.0 L 164.0 145.0 L 164.0 145.0 L 164.0 145.0 L 165.0 145.0 L 167.0 146.0 L 170.0 146.0 L 174.0 146.0 L 179.0 146.0 L 184.0 146.0 L 189.0 145.0 L 195.0 144.0 L 200.0 142.0 L 206.0 141.0 L 211.0 139.0 L 215.0 138.0 L 219.0 138.0 L 221.0 137.0 L 222.0 138.0 " stroke="black" fill="none" stroke-width="5.0" stroke-linecap="round" stroke-linejoin="round" />
<path d="M 197.0 143.0 L 196.0 143.0 L 195.0 143.0 L 194.0 143.0 L 193.0 143.0 L 191.0 144.0 L 190.0 145.0 L 188.0 147.0 L 185.0 149.0 L 180.0 151.0 L 175.0 154.0 L 169.0 157.0 L 162.0 159.0 L 157.0 161.0 L 154.0 163.0 L 153.0 164.0 " stroke="black" fill="none" stroke-width="5.0" stroke-linecap="round" stroke-linejoin="round" />
<path d="M 219.0 143.0 L 219.0 143.0 L 219.0 143.0 L 218.0 143.0 L 218.0 143.0 L 219.0 144.0 L 221.0 146.0 L 223.0 147.0 L 226.0 149.0 L 229.0 152.0 L 232.0 154.0 L 235.0 157.0 L 238.0 160.0 L 240.0 162.0 L 242.0 164.0 L 243.0 165.0 " stroke="black" fill="none" stroke-width="5.0" stroke-linecap="round" stroke-linejoin="round" />
<path d="M 138.0 151.0 L 138.0 151.0 L 138.0 150.0 L 139.0 150.0 L 139.0 149.0 L 140.0 149.0 L 140.0 149.0 L 140.0 149.0 L 140.0 150.0 L 138.0 152.0 L 137.0 154.0 L 134.0 157.0 L 132.0 159.0 L 130.0 161.0 " stroke="black" fill="none" stroke-width="5.0" stroke-linecap="round" stroke-linejoin="round" />
<path d="M 96.0 172.0 L 96.0 172.0 L 95.0 172.0 L 95.0 172.0 L 94.0 171.0 L 94.0 171.0 L 94.0 171.0 L 94.0 171.0 L 94.0 171.0 L 94.0 171.0 L 94.0 173.0 L 94.0 174.0 L 94.0 177.0 L 95.0 181.0 L 95.0 186.0 L 96.0 191.0 L 96.0 196.0 L 96.0 202.0 L 96.0 206.0 L 96.0 209.0 L 96.0 210.0 " stroke="black" fill="none" stroke-width="5.0" stroke-linecap="round" stroke-linejoin="round" />
<path d="M 100.0 175.0 L 100.0 175.0 L 99.0 175.0 L 98.0 175.0 L 98.0 175.0 L 97.0 175.0 L 97.0 175.0 L 96.0 175.0 L 96.0 175.0 L 96.0 175.0 L 96.0 175.0 L 97.0 175.0 L 97.0 175.0 L 98.0 175.0 L 99.0 174.0 L 100.0 174.0 L 101.0 174.0 L 102.0 174.0 L 103.0 174.0 L 104.0 174.0 L 106.0 173.0 L 107.0 173.0 L 108.0 173.0 L 109.0 173.0 L 110.0 172.0 L 111.0 172.0 L 112.0 172.0 L 113.0 171.0 L 114.0 171.0 L 114.0 171.0 L 115.0 171.0 L 116.0 171.0 L 117.0 171.0 L 117.0 171.0 L 118.0 171.0 L 119.0 171.0 L 120.0 171.0 L 121.0 171.0 L 122.0 171.0 L 123.0 171.0 L 124.0 171.0 L 125.0 171.0 L 126.0 171.0 L 127.0 171.0 L 128.0 171.0 L 129.0 171.0 L 130.0 171.0 L 131.0 171.0 L 132.0 171.0 L 133.0 171.0 L 134.0 171.0 L 135.0 171.0 L 136.0 171.0 L 137.0 171.0 L 138.0 171.0 L 139.0 171.0 L 140.0 171.0 L 141.0 171.0 L 141.0 171.0 L 142.0 171.0 L 143.0 171.0 L 144.0 171.0 L 145.0 171.0 L 146.0 171.0 L 147.0 171.0 L 147.0 171.0 L 148.0 171.0 L 149.0 171.0 L 149.0 171.0 L 150.0 171.0 L 150.0 171.0 L 150.0 171.0 L 151.0 171.0 L 151.0 171.0 L 152.0 171.0 L 152.0 171.0 L 153.0 171.0 L 153.0 171.0 L 154.0 171.0 L 155.0 171.0 L 155.0 171.0 L 156.0 171.0 L 157.0 171.0 L 157.0 171.0 L 158.0 171.0 L 159.0 171.0 L 160.0 171.0 L 161.0 171.0 L 161.0 170.0 L 162.0 170.0 L 163.0 170.0 L 164.0 170.0 L 165.0 170.0 L 166.0 170.0 L 168.0 170.0 L 169.0 170.0 L 170.0 169.0 L 171.0 169.0 L 172.0 169.0 L 174.0 169.0 L 175.0 169.0 L 176.0 169.0 L 177.0 168.0 L 178.0 168.0 L 179.0 168.0 L 180.0 168.0 L 181.0 168.0 L 182.0 168.0 L 183.0 168.0 L 184.0 168.0 L 185.0 168.0 L 186.0 168.0 L 187.0 168.0 L 188.0 168.0 L 188.0 168.0 L 189.0 168.0 L 190.0 168.0 L 190.0 168.0 L 191.0 168.0 L 192.0 168.0 L 192.0 168.0 L 193.0 168.0 L 193.0 168.0 L 194.0 168.0 L 194.0 168.0 L 195.0 168.0 L 195.0 168.0 L 196.0 168.0 L 196.0 169.0 L 197.0 169.0 L 197.0 169.0 L 198.0 169.0 L 198.0 169.0 L 199.0 169.0 L 199.0 169.0 L 200.0 169.0 L 201.0 170.0 L 201.0 170.0 L 202.0 170.0 L 202.0 170.0 L 203.0 170.0 L 203.0 171.0 L 204.0 171.0 L 204.0 172.0 L 205.0 173.0 L 205.0 175.0 L 205.0 178.0 L 205.0 182.0 L 205.0 186.0 L 205.0 191.0 L 205.0 195.0 L 205.0 200.0 L 205.0 204.0 L 204.0 207.0 L 203.0 209.0 L 202.0 211.0 " stroke="black" fill="none" stroke-width="5.0" stroke-linecap="round" stroke-linejoin="round" />
<path d="M 105.0 187.0 L 105.0 187.0 L 105.0 187.0 L 104.0 187.0 L 104.0 187.0 L 103.0 187.0 L 103.0 187.0 L 103.0 187.0 L 103.0 187.0 L 103.0 187.0 L 104.0 187.0 L 105.0 187.0 L 107.0 187.0 L 110.0 187.0 L 115.0 187.0 L 121.0 187.0 L 128.0 186.0 L 136.0 186.0 L 145.0 186.0 L 153.0 185.0 L 160.0 184.0 L 167.0 183.0 L 175.0 182.0 L 181.0 181.0 L 185.0 180.0 L 188.0 180.0 L 189.0 180.0 L 189.0 181.0 L 189.0 181.0 " stroke="black" fill="none" stroke-width="5.0" stroke-linecap="round" stroke-linejoin="round" />
<path d="M 97.0 205.0 L 96.0 205.0 L 95.0 205.0 L 94.0 205.0 L 93.0 205.0 L 92.0 205.0 L 92.0 205.0 L 92.0 205.0 L 94.0 205.0 L 96.0 206.0 L 98.0 206.0 L 102.0 206.0 L 105.0 206.0 L 110.0 207.0 L 117.0 207.0 L 126.0 207.0 L 137.0 207.0 L 148.0 206.0 L 156.0 204.0 L 164.0 203.0 L 173.0 202.0 L 181.0 201.0 L 187.0 200.0 L 191.0 199.0 L 192.0 199.0 L 193.0 199.0 L 193.0 199.0 L 193.0 200.0 L 193.0 200.0 L 193.0 201.0 " stroke="black" fill="none" stroke-width="5.0" stroke-linecap="round" stroke-linejoin="round" />
<path d="M 151.0 177.0 L 151.0 177.0 L 151.0 176.0 L 151.0 175.0 L 151.0 175.0 L 151.0 174.0 L 152.0 174.0 L 152.0 174.0 L 152.0 174.0 L 152.0 174.0 L 152.0 175.0 L 151.0 177.0 L 149.0 180.0 L 146.0 184.0 L 143.0 189.0 L 137.0 195.0 L 131.0 201.0 L 124.0 207.0 L 117.0 213.0 L 112.0 216.0 " stroke="black" fill="none" stroke-width="5.0" stroke-linecap="round" stroke-linejoin="round" />
<path d="M 121.0 206.0 L 121.0 206.0 L 121.0 206.0 L 121.0 206.0 L 120.0 206.0 L 120.0 206.0 L 120.0 207.0 L 120.0 207.0 L 119.0 207.0 L 119.0 207.0 L 119.0 208.0 L 119.0 208.0 L 118.0 208.0 L 118.0 209.0 L 117.0 209.0 L 116.0 210.0 L 115.0 211.0 L 114.0 212.0 L 112.0 214.0 L 111.0 215.0 L 109.0 216.0 L 107.0 218.0 L 105.0 219.0 L 103.0 220.0 L 102.0 221.0 L 101.0 221.0 L 100.0 221.0 " stroke="black" fill="none" stroke-width="5.0" stroke-linecap="round" stroke-linejoin="round" />
<path d="M 71.0 229.0 L 71.0 229.0 L 71.0 229.0 L 70.0 229.0 L 70.0 229.0 L 70.0 228.0 L 70.0 228.0 L 69.0 228.0 L 69.0 228.0 L 69.0 228.0 L 69.0 228.0 L 69.0 228.0 L 69.0 228.0 L 69.0 228.0 L 69.0 228.0 L 69.0 228.0 L 69.0 228.0 L 69.0 228.0 L 69.0 229.0 L 69.0 229.0 L 69.0 229.0 L 70.0 229.0 L 71.0 229.0 L 72.0 229.0 L 73.0 229.0 L 75.0 229.0 L 77.0 229.0 L 79.0 229.0 L 81.0 229.0 L 84.0 229.0 L 88.0 229.0 L 92.0 228.0 L 95.0 228.0 L 99.0 227.0 L 101.0 227.0 L 104.0 227.0 L 106.0 226.0 L 107.0 226.0 L 108.0 226.0 L 110.0 226.0 L 111.0 226.0 L 112.0 225.0 L 114.0 225.0 L 116.0 225.0 L 118.0 225.0 L 120.0 225.0 L 122.0 225.0 L 124.0 224.0 L 126.0 224.0 L 127.0 224.0 L 128.0 224.0 L 130.0 224.0 L 131.0 224.0 L 132.0 224.0 L 133.0 224.0 L 134.0 224.0 L 134.0 224.0 L 135.0 224.0 L 136.0 224.0 L 137.0 224.0 L 138.0 224.0 L 139.0 224.0 L 140.0 225.0 L 141.0 225.0 L 142.0 225.0 L 143.0 225.0 L 144.0 225.0 L 146.0 225.0 L 147.0 225.0 L 148.0 225.0 L 149.0 225.0 L 150.0 225.0 L 151.0 225.0 L 152.0 225.0 L 153.0 225.0 L 154.0 225.0 L 155.0 225.0 L 157.0 225.0 L 158.0 225.0 L 159.0 225.0 L 160.0 225.0 L 162.0 225.0 L 163.0 225.0 L 165.0 225.0 L 166.0 225.0 L 167.0 225.0 L 169.0 225.0 L 171.0 225.0 L 172.0 225.0 L 174.0 225.0 L 176.0 225.0 L 178.0 225.0 L 180.0 225.0 L 182.0 225.0 L 184.0 225.0 L 186.0 225.0 L 188.0 226.0 L 190.0 226.0 L 191.0 226.0 L 193.0 227.0 L 194.0 227.0 L 196.0 227.0 L 197.0 227.0 L 198.0 227.0 L 200.0 227.0 L 201.0 227.0 L 203.0 228.0 L 205.0 228.0 L 207.0 228.0 L 209.0 229.0 L 211.0 229.0 L 214.0 229.0 L 216.0 229.0 L 218.0 229.0 L 221.0 229.0 L 222.0 229.0 L 224.0 229.0 L 225.0 229.0 L 225.0 229.0 L 226.0 229.0 L 226.0 230.0 L 226.0 230.0 L 226.0 231.0 L 226.0 231.0 L 225.0 231.0 L 223.0 232.0 " stroke="black" fill="none" stroke-width="5.0" stroke-linecap="round" stroke-linejoin="round" />
<path d="M 169.0 206.0 L 169.0 206.0 L 169.0 206.0 L 168.0 205.0 L 168.0 205.0 L 168.0 204.0 L 168.0 204.0 L 168.0 204.0 L 168.0 205.0 L 168.0 207.0 L 169.0 209.0 L 169.0 212.0 L 169.0 216.0 L 169.0 221.0 L 169.0 227.0 L 169.0 230.0 L 169.0 234.0 L 169.0 237.0 L 169.0 239.0 L 169.0 244.0 L 169.0 248.0 L 169.0 249.0 L 169.0 250.0 " stroke="black" fill="none" stroke-width="5.0" stroke-linecap="round" stroke-linejoin="round" />
</svg>