<svg xmlns="http://www.w3.org/2000/svg" width="300" height="300" viewBox="0 0 300 300">
<path d="M 105.0 67.0 L 105.0 67.0 L 105.0 67.0 L 105.0 66.0 L 105.0 66.0 L 105.0 66.0 L 105.0 66.0 L 105.0 66.0 L 105.0 66.0 L 105.0 66.0 L 104.0 66.0 L 103.0 68.0 L 100.0 71.0 L 97.0 75.0 L 93.0 79.0 L 86.0 84.0 L 79.0 90.0 L 72.0 96.0 L 66.0 102.0 L 63.0 105.0 L 62.0 107.0 " stroke="black" fill="none" stroke-width="5.0" stroke-linecap="round" stroke-linejoin="round" />
<path d="M 94.0 85.0 L 93.0 85.0 L 93.0 85.0 L 92.0 85.0 L 91.0 85.0 L 91.0 85.0 L 90.0 85.0 L 90.0 85.0 L 89.0 85.0 L 89.0 85.0 L 89.0 85.0 L 89.0 85.0 L 89.0 85.0 L 90.0 85.0 L 91.0 85.0 L 92.0 85.0 L 94.0 85.0 L 95.0 85.0 L 97.0 85.0 L 99.0 85.0 L 101.0 85.0 L 103.0 85.0 L 105.0 84.0 L 108.0 84.0 L 110.0 84.0 L 112.0 84.0 L 114.0 84.0 L 116.0 84.0 L 119.0 85.0 L 121.0 85.0 L 123.0 85.0 L 126.0 85.0 L 128.0 85.0 L 130.0 85.0 L 132.0 85.0 L 134.0 85.0 L 136.0 85.0 L 137.0 85.0 L 138.0 85.0 L 138.0 85.0 L 138.0 85.0 L 139.0 86.0 L 139.0 86.0 L 139.0 86.0 L 139.0 86.0 L 139.0 87.0 L 139.0 87.0 L 139.0 87.0 L 139.0 87.0 L 138.0 88.0 L 138.0 89.0 L 137.0 90.0 L 136.0 91.0 L 135.0 92.0 L 134.0 94.0 L 132.0 96.0 L 130.0 99.0 L 128.0 102.0 L 125.0 105.0 L 121.0 109.0 L 117.0 113.0 L 113.0 118.0 L 108.0 122.0 L 103.0 127.0 L 98.0 131.0 L 91.0 135.0 L 84.0 138.0 L 76.0 141.0 L 70.0 144.0 L 65.0 146.0 L 62.0 146.0 L 61.0 146.0 " stroke="black" fill="none" stroke-width="5.0" stroke-linecap="round" stroke-linejoin="round" />
<path d="M 91.0 97.0 L 91.0 97.0 L 91.0 97.0 L 91.0 96.0 L 91.0 96.0 L 91.0 96.0 L 91.0 96.0 L 91.0 96.0 L 92.0 97.0 L 93.0 99.0 L 95.0 101.0 L 97.0 104.0 L 99.0 107.0 L 101.0 110.0 L 103.0 113.0 L 104.0 116.0 L 105.0 119.0 " stroke="black" fill="none" stroke-width="5.0" stroke-linecap="round" stroke-linejoin="round" />
<path d="M 63.0 123.0 L 63.0 123.0 L 62.0 123.0 L 60.0 122.0 L 60.0 122.0 L 60.0 121.0 L 60.0 121.0 L 60.0 120.0 L 63.0 120.0 L 66.0 119.0 L 70.0 118.0 L 77.0 118.0 L 85.0 117.0 L 93.0 116.0 " stroke="black" fill="none" stroke-width="5.0" stroke-linecap="round" stroke-linejoin="round" />
<path d="M 89.0 135.0 L 89.0 135.0 L 89.0 135.0 L 89.0 135.0 L 89.0 135.0 L 89.0 135.0 L 88.0 135.0 L 88.0 135.0 L 88.0 135.0 L 88.0 137.0 L 87.0 139.0 L 85.0 142.0 L 83.0 146.0 L 80.0 151.0 L 76.0 156.0 L 72.0 161.0 L 68.0 166.0 L 65.0 170.0 L 62.0 174.0 L 60.0 176.0 L 58.0 177.0 L 58.0 178.0 " stroke="black" fill="none" stroke-width="5.0" stroke-linecap="round" stroke-linejoin="round" />
<path d="M 76.0 157.0 L 75.0 157.0 L 74.0 157.0 L 73.0 157.0 L 72.0 157.0 L 72.0 157.0 L 72.0 157.0 L 74.0 157.0 L 77.0 156.0 L 81.0 156.0 L 86.0 155.0 L 92.0 154.0 L 98.0 154.0 L 103.0 153.0 L 108.0 153.0 L 112.0 153.0 L 116.0 153.0 L 119.0 153.0 L 122.0 153.0 L 125.0 154.0 L 126.0 154.0 " stroke="black" fill="none" stroke-width="5.0" stroke-linecap="round" stroke-linejoin="round" />
<path d="M 62.0 189.0 L 61.0 189.0 L 60.0 188.0 L 60.0 188.0 L 59.0 188.0 L 59.0 187.0 L 58.0 187.0 L 58.0 187.0 L 58.0 187.0 L 58.0 187.0 L 59.0 187.0 L 60.0 187.0 L 62.0 187.0 L 64.0 187.0 L 67.0 188.0 L 71.0 188.0 L 76.0 188.0 L 82.0 189.0 L 89.0 189.0 L 97.0 189.0 L 104.0 188.0 L 109.0 187.0 L 113.0 186.0 L 117.0 185.0 L 120.0 185.0 L 122.0 184.0 L 124.0 184.0 L 125.0 184.0 " stroke="black" fill="none" stroke-width="5.0" stroke-linecap="round" stroke-linejoin="round" />
<path d="M 103.0 163.0 L 103.0 163.0 L 102.0 163.0 L 101.0 162.0 L 101.0 162.0 L 100.0 162.0 L 100.0 162.0 L 100.0 162.0 L 100.0 164.0 L 100.0 166.0 L 100.0 169.0 L 100.0 173.0 L 100.0 177.0 L 100.0 184.0 L 100.0 192.0 L 100.0 200.0 L 99.0 209.0 L 98.0 218.0 L 97.0 225.0 L 96.0 231.0 L 96.0 236.0 L 96.0 237.0 " stroke="black" fill="none" stroke-width="5.0" stroke-linecap="round" stroke-linejoin="round" />
<path d="M 71.0 207.0 L 71.0 207.0 L 71.0 207.0 L 71.0 207.0 L 71.0 208.0 L 71.0 208.0 L 71.0 209.0 L 71.0 209.0 L 71.0 211.0 L 71.0 212.0 L 71.0 214.0 L 71.0 217.0 L 71.0 220.0 L 71.0 223.0 L 71.0 227.0 L 71.0 230.0 L 71.0 233.0 L 71.0 236.0 L 71.0 237.0 L 71.0 238.0 L 71.0 238.0 L 71.0 238.0 L 71.0 238.0 L 72.0 238.0 L 73.0 238.0 L 74.0 238.0 L 76.0 238.0 L 77.0 238.0 L 80.0 238.0 L 82.0 238.0 L 86.0 238.0 L 90.0 237.0 L 94.0 236.0 L 99.0 235.0 L 103.0 234.0 L 107.0 233.0 L 111.0 231.0 L 114.0 230.0 L 116.0 228.0 L 118.0 227.0 L 120.0 227.0 L 121.0 226.0 L 121.0 226.0 L 121.0 225.0 L 120.0 225.0 " stroke="black" fill="none" stroke-width="5.0" stroke-linecap="round" stroke-linejoin="round" />
<path d="M 118.0 206.0 L 118.0 206.0 L 119.0 205.0 L 119.0 204.0 L 119.0 204.0 L 119.0 203.0 L 119.0 203.0 L 119.0 203.0 L 119.0 204.0 L 119.0 206.0 L 119.0 208.0 L 119.0 212.0 L 119.0 216.0 L 119.0 221.0 L 119.0 227.0 L 119.0 232.0 L 120.0 237.0 L 121.0 241.0 L 121.0 245.0 L 122.0 247.0 " stroke="black" fill="none" stroke-width="5.0" stroke-linecap="round" stroke-linejoin="round" />
<path d="M 149.0 77.0 L 149.0 77.0 L 149.0 77.0 L 149.0 76.0 L 149.0 76.0 L 149.0 75.0 L 149.0 75.0 L 149.0 75.0 L 149.0 75.0 L 149.0 75.0 L 149.0 75.0 L 149.0 75.0 L 149.0 77.0 L 149.0 78.0 L 149.0 79.0 L 149.0 81.0 L 150.0 82.0 L 150.0 84.0 L 150.0 86.0 L 150.0 88.0 L 150.0 91.0 L 150.0 94.0 L 150.0 97.0 L 150.0 100.0 L 150.0 104.0 L 150.0 107.0 L 150.0 110.0 L 150.0 113.0 L 150.0 115.0 L 150.0 118.0 L 150.0 120.0 L 150.0 123.0 L 150.0 125.0 L 150.0 128.0 L 150.0 130.0 L 150.0 132.0 L 150.0 135.0 L 150.0 137.0 L 150.0 140.0 L 150.0 143.0 L 150.0 145.0 L 150.0 147.0 L 150.0 150.0 L 150.0 152.0 L 150.0 155.0 L 150.0 157.0 L 150.0 160.0 L 149.0 162.0 L 149.0 165.0 L 149.0 167.0 L 149.0 169.0 L 149.0 172.0 L 149.0 175.0 L 148.0 178.0 L 148.0 181.0 L 148.0 184.0 L 148.0 188.0 L 147.0 191.0 L 147.0 195.0 L 146.0 199.0 L 146.0 203.0 L 145.0 207.0 L 145.0 211.0 L 144.0 214.0 L 143.0 218.0 L 143.0 222.0 L 142.0 226.0 L 141.0 230.0 L 140.0 234.0 L 139.0 237.0 L 138.0 240.0 L 137.0 243.0 L 136.0 245.0 L 135.0 246.0 L 134.0 246.0 " stroke="black" fill="none" stroke-width="5.0" stroke-linecap="round" stroke-linejoin="round" />
<path d="M 157.0 79.0 L 157.0 79.0 L 156.0 79.0 L 156.0 79.0 L 155.0 79.0 L 155.0 79.0 L 154.0 78.0 L 154.0 78.0 L 154.0 78.0 L 154.0 78.0 L 154.0 78.0 L 154.0 78.0 L 154.0 78.0 L 155.0 78.0 L 156.0 78.0 L 158.0 78.0 L 159.0 78.0 L 162.0 78.0 L 164.0 78.0 L 167.0 79.0 L 171.0 79.0 L 175.0 79.0 L 179.0 79.0 L 183.0 79.0 L 186.0 79.0 L 189.0 79.0 L 192.0 79.0 L 194.0 79.0 L 196.0 79.0 L 199.0 79.0 L 201.0 79.0 L 203.0 79.0 L 205.0 79.0 L 207.0 79.0 L 209.0 79.0 L 212.0 79.0 L 214.0 79.0 L 216.0 79.0 L 218.0 79.0 L 220.0 79.0 L 222.0 79.0 L 223.0 78.0 L 224.0 78.0 L 224.0 78.0 L 225.0 78.0 L 225.0 78.0 L 225.0 78.0 L 225.0 78.0 L 225.0 78.0 L 225.0 78.0 L 225.0 79.0 L 225.0 79.0 L 225.0 79.0 L 225.0 79.0 L 225.0 79.0 L 225.0 80.0 L 225.0 80.0 L 225.0 81.0 L 225.0 82.0 L 225.0 82.0 L 225.0 83.0 L 225.0 84.0 L 225.0 86.0 L 225.0 87.0 L 225.0 89.0 L 225.0 91.0 L 225.0 94.0 L 225.0 97.0 L 225.0 100.0 L 225.0 104.0 L 225.0 107.0 L 224.0 110.0 L 224.0 113.0 L 224.0 116.0 L 224.0 120.0 L 224.0 122.0 L 224.0 125.0 L 224.0 127.0 L 224.0 130.0 L 224.0 132.0 L 224.0 134.0 L 224.0 136.0 L 224.0 139.0 L 224.0 141.0 L 224.0 143.0 L 224.0 145.0 L 224.0 148.0 L 224.0 150.0 L 223.0 152.0 L 223.0 155.0 L 223.0 158.0 L 223.0 161.0 L 222.0 164.0 L 222.0 166.0 L 221.0 169.0 L 221.0 172.0 L 221.0 174.0 L 221.0 177.0 L 221.0 179.0 L 221.0 181.0 L 221.0 184.0 L 221.0 186.0 L 221.0 189.0 L 221.0 191.0 L 221.0 194.0 L 221.0 196.0 L 221.0 198.0 L 222.0 201.0 L 222.0 203.0 L 222.0 205.0 L 222.0 207.0 L 223.0 209.0 L 223.0 211.0 L 223.0 213.0 L 224.0 215.0 L 225.0 217.0 L 225.0 219.0 L 225.0 221.0 L 226.0 223.0 L 226.0 226.0 L 227.0 229.0 L 227.0 231.0 L 228.0 233.0 L 228.0 235.0 L 229.0 236.0 L 230.0 237.0 L 230.0 238.0 L 231.0 239.0 L 232.0 240.0 L 232.0 241.0 L 232.0 241.0 L 233.0 242.0 L 233.0 243.0 L 233.0 244.0 L 234.0 245.0 L 234.0 245.0 L 234.0 246.0 L 234.0 247.0 L 234.0 247.0 L 234.0 248.0 L 234.0 249.0 L 235.0 249.0 L 235.0 249.0 L 235.0 250.0 L 235.0 250.0 L 235.0 250.0 L 235.0 250.0 L 235.0 249.0 L 235.0 247.0 L 236.0 245.0 L 237.0 242.0 L 237.0 237.0 L 239.0 231.0 L 240.0 225.0 L 242.0 217.0 L 245.0 209.0 L 247.0 203.0 L 248.0 197.0 " stroke="black" fill="none" stroke-width="5.0" stroke-linecap="round" stroke-linejoin="round" />
<path d="M 166.0 105.0 L 166.0 105.0 L 166.0 105.0 L 166.0 105.0 L 166.0 105.0 L 166.0 105.0 L 166.0 105.0 L 166.0 105.0 L 168.0 105.0 L 171.0 105.0 L 175.0 105.0 L 181.0 105.0 L 186.0 105.0 L 192.0 105.0 L 197.0 105.0 L 203.0 105.0 L 205.0 105.0 " stroke="black" fill="none" stroke-width="5.0" stroke-linecap="round" stroke-linejoin="round" />
<path d="M 169.0 139.0 L 169.0 139.0 L 169.0 139.0 L 168.0 139.0 L 168.0 140.0 L 168.0 140.0 L 167.0 141.0 L 167.0 143.0 L 167.0 146.0 L 167.0 151.0 L 167.0 156.0 L 167.0 161.0 L 167.0 168.0 L 167.0 174.0 L 167.0 180.0 L 167.0 185.0 L 167.0 188.0 L 168.0 189.0 " stroke="black" fill="none" stroke-width="5.0" stroke-linecap="round" stroke-linejoin="round" />
<path d="M 167.0 148.0 L 167.0 148.0 L 167.0 148.0 L 166.0 147.0 L 166.0 147.0 L 166.0 146.0 L 166.0 146.0 L 166.0 145.0 L 166.0 145.0 L 167.0 145.0 L 169.0 145.0 L 171.0 144.0 L 174.0 144.0 L 177.0 144.0 L 181.0 143.0 L 185.0 143.0 L 189.0 142.0 L 193.0 142.0 L 196.0 141.0 L 199.0 141.0 L 201.0 141.0 L 203.0 141.0 L 204.0 141.0 L 205.0 142.0 L 205.0 144.0 L 205.0 146.0 L 205.0 148.0 L 205.0 150.0 L 205.0 153.0 L 205.0 156.0 L 205.0 159.0 L 205.0 162.0 L 205.0 166.0 L 205.0 169.0 L 205.0 172.0 L 205.0 175.0 L 204.0 178.0 L 203.0 181.0 L 202.0 183.0 L 201.0 186.0 L 200.0 187.0 " stroke="black" fill="none" stroke-width="5.0" stroke-linecap="round" stroke-linejoin="round" />
<path d="M 180.0 190.0 L 177.0 190.0 L 175.0 189.0 L 172.0 188.0 L 169.0 188.0 L 168.0 187.0 L 167.0 186.0 L 167.0 185.0 L 167.0 185.0 L 168.0 185.0 L 170.0 185.0 L 173.0 185.0 L 176.0 185.0 L 180.0 185.0 L 184.0 184.0 L 189.0 183.0 L 193.0 182.0 L 197.0 180.0 L 201.0 178.0 L 205.0 176.0 L 208.0 173.0 L 210.0 170.0 " stroke="black" fill="none" stroke-width="5.0" stroke-linecap="round" stroke-linejoin="round" />
<path d="M 190.0 108.0 L 190.0 108.0 L 190.0 108.0 L 190.0 107.0 L 190.0 107.0 L 190.0 107.0 L 190.0 107.0 L 190.0 107.0 L 190.0 107.0 L 189.0 109.0 L 189.0 112.0 L 189.0 116.0 L 189.0 121.0 L 188.0 126.0 L 188.0 133.0 L 187.0 141.0 L 187.0 149.0 L 187.0 157.0 L 186.0 165.0 L 186.0 172.0 L 186.0 181.0 L 185.0 189.0 L 185.0 197.0 L 184.0 203.0 L 184.0 208.0 L 184.0 212.0 L 184.0 216.0 L 184.0 218.0 L 184.0 221.0 L 184.0 223.0 L 184.0 224.0 L 184.0 224.0 L 184.0 224.0 L 184.0 224.0 " stroke="black" fill="none" stroke-width="5.0" stroke-linecap="round" stroke-linejoin="round" />
<path d="M 160.0 237.0 L 160.0 237.0 L 159.0 237.0 L 158.0 237.0 L 158.0 237.0 L 157.0 237.0 L 156.0 238.0 L 156.0 238.0 L 156.0 238.0 L 156.0 238.0 L 156.0 238.0 L 157.0 237.0 L 159.0 236.0 L 161.0 235.0 L 165.0 233.0 L 169.0 231.0 L 175.0 229.0 L 180.0 227.0 L 186.0 224.0 L 191.0 222.0 L 195.0 219.0 L 199.0 216.0 L 203.0 214.0 L 206.0 211.0 L 207.0 209.0 " stroke="black" fill="none" stroke-width="5.0" stroke-linecap="round" stroke-linejoin="round" />
<path d="M 202.0 197.0 L 202.0 197.0 L 201.0 197.0 L 200.0 197.0 L 200.0 197.0 L 200.0 197.0 L 199.0 198.0 L 199.0 199.0 L 199.0 200.0 L 199.0 202.0 L 199.0 204.0 L 200.0 207.0 L 201.0 211.0 L 202.0 216.0 L 204.0 222.0 L 206.0 229.0 L 208.0 235.0 L 210.0 241.0 L 212.0 245.0 L 214.0 248.0 L 216.0 250.0 L 218.0 250.0 " stroke="black" fill="none" stroke-width="5.0" stroke-linecap="round" stroke-linejoin="round" />
</svg>