<svg xmlns="http://www.w3.org/2000/svg" width="300" height="300" viewBox="0 0 300 300">
<path d="M 62.0 84.0 L 62.0 84.0 L 62.0 84.0 L 62.0 84.0 L 61.0 84.0 L 61.0 84.0 L 61.0 84.0 L 61.0 84.0 L 60.0 84.0 L 60.0 84.0 L 60.0 84.0 L 60.0 84.0 L 60.0 84.0 L 60.0 84.0 L 60.0 84.0 L 60.0 84.0 L 60.0 84.0 L 60.0 84.0 L 60.0 84.0 L 61.0 84.0 L 62.0 84.0 L 62.0 84.0 L 63.0 84.0 L 64.0 84.0 L 64.0 84.0 L 65.0 84.0 L 66.0 84.0 L 67.0 84.0 L 68.0 84.0 L 68.0 84.0 L 69.0 84.0 L 70.0 84.0 L 71.0 84.0 L 71.0 84.0 L 72.0 84.0 L 73.0 84.0 L 74.0 84.0 L 75.0 84.0 L 76.0 84.0 L 76.0 84.0 L 78.0 84.0 L 78.0 84.0 L 79.0 84.0 L 80.0 84.0 L 81.0 84.0 L 83.0 84.0 L 84.0 84.0 L 85.0 84.0 L 86.0 84.0 L 88.0 84.0 L 89.0 84.0 L 90.0 84.0 L 92.0 84.0 L 93.0 84.0 L 95.0 84.0 L 96.0 84.0 L 98.0 84.0 L 99.0 84.0 L 100.0 84.0 L 102.0 84.0 L 103.0 84.0 L 104.0 84.0 L 105.0 84.0 L 107.0 84.0 L 108.0 84.0 L 109.0 84.0 L 110.0 84.0 L 112.0 84.0 L 113.0 84.0 L 115.0 84.0 L 117.0 83.0 L 119.0 83.0 L 121.0 83.0 L 123.0 83.0 L 126.0 83.0 L 128.0 83.0 L 131.0 83.0 L 133.0 83.0 L 135.0 83.0 L 137.0 83.0 L 138.0 83.0 L 139.0 83.0 L 140.0 83.0 L 140.0 83.0 L 140.0 83.0 " stroke="black" fill="none" stroke-width="5.0" stroke-linecap="round" stroke-linejoin="round" />
<path d="M 74.0 103.0 L 74.0 103.0 L 74.0 103.0 L 74.0 103.0 L 74.0 103.0 L 74.0 103.0 L 74.0 104.0 L 74.0 104.0 L 74.0 105.0 L 74.0 107.0 L 73.0 109.0 L 72.0 111.0 L 71.0 114.0 L 69.0 117.0 L 68.0 121.0 L 66.0 124.0 L 65.0 126.0 L 64.0 129.0 L 62.0 130.0 L 62.0 132.0 L 61.0 133.0 L 60.0 133.0 L 60.0 133.0 L 60.0 134.0 L 60.0 134.0 L 60.0 134.0 L 60.0 134.0 L 60.0 134.0 L 60.0 134.0 L 60.0 134.0 L 60.0 134.0 L 60.0 134.0 L 61.0 135.0 L 62.0 136.0 L 63.0 137.0 L 64.0 139.0 L 66.0 141.0 L 67.0 143.0 L 69.0 146.0 L 72.0 148.0 L 74.0 151.0 L 76.0 154.0 L 78.0 157.0 L 80.0 159.0 L 82.0 161.0 L 83.0 162.0 L 84.0 162.0 L 86.0 162.0 L 87.0 161.0 " stroke="black" fill="none" stroke-width="5.0" stroke-linecap="round" stroke-linejoin="round" />
<path d="M 98.0 100.0 L 98.0 100.0 L 98.0 100.0 L 98.0 100.0 L 98.0 100.0 L 98.0 101.0 L 98.0 102.0 L 98.0 103.0 L 97.0 105.0 L 96.0 108.0 L 96.0 111.0 L 95.0 113.0 L 93.0 117.0 L 92.0 120.0 L 91.0 122.0 L 89.0 125.0 L 88.0 127.0 L 87.0 129.0 L 85.0 131.0 L 85.0 131.0 L 84.0 132.0 L 84.0 132.0 L 83.0 132.0 L 83.0 132.0 L 83.0 132.0 L 83.0 132.0 L 84.0 132.0 L 85.0 133.0 L 86.0 133.0 L 87.0 134.0 L 89.0 136.0 L 91.0 137.0 L 93.0 140.0 L 95.0 142.0 L 98.0 144.0 L 100.0 147.0 L 103.0 150.0 L 105.0 153.0 L 107.0 155.0 L 108.0 158.0 L 108.0 160.0 L 109.0 161.0 " stroke="black" fill="none" stroke-width="5.0" stroke-linecap="round" stroke-linejoin="round" />
<path d="M 128.0 103.0 L 128.0 103.0 L 128.0 103.0 L 129.0 103.0 L 129.0 103.0 L 129.0 103.0 L 129.0 103.0 L 129.0 103.0 L 129.0 103.0 L 128.0 104.0 L 127.0 105.0 L 126.0 107.0 L 125.0 108.0 L 124.0 110.0 L 122.0 112.0 L 121.0 114.0 L 120.0 116.0 L 118.0 118.0 L 117.0 120.0 L 116.0 122.0 L 115.0 124.0 L 114.0 125.0 L 114.0 126.0 L 114.0 127.0 L 114.0 128.0 L 114.0 128.0 L 114.0 129.0 L 114.0 130.0 L 114.0 130.0 L 114.0 131.0 L 115.0 132.0 L 116.0 133.0 L 117.0 135.0 L 119.0 136.0 L 120.0 138.0 L 122.0 141.0 L 124.0 143.0 L 126.0 146.0 L 128.0 149.0 L 130.0 151.0 L 132.0 153.0 L 135.0 155.0 L 136.0 156.0 L 137.0 156.0 L 138.0 156.0 L 139.0 156.0 L 140.0 156.0 L 140.0 155.0 L 140.0 155.0 " stroke="black" fill="none" stroke-width="5.0" stroke-linecap="round" stroke-linejoin="round" />
<path d="M 62.0 181.0 L 62.0 181.0 L 62.0 181.0 L 62.0 181.0 L 62.0 181.0 L 61.0 181.0 L 61.0 181.0 L 61.0 181.0 L 61.0 181.0 L 61.0 181.0 L 61.0 181.0 L 61.0 181.0 L 61.0 181.0 L 61.0 181.0 L 61.0 181.0 L 61.0 181.0 L 62.0 181.0 L 62.0 181.0 L 63.0 181.0 L 64.0 181.0 L 65.0 181.0 L 66.0 181.0 L 68.0 181.0 L 69.0 181.0 L 72.0 181.0 L 74.0 181.0 L 77.0 181.0 L 81.0 181.0 L 85.0 181.0 L 89.0 181.0 L 93.0 181.0 L 97.0 182.0 L 101.0 182.0 L 105.0 182.0 L 108.0 182.0 L 110.0 182.0 L 113.0 182.0 L 116.0 182.0 L 118.0 182.0 L 121.0 182.0 L 123.0 182.0 L 125.0 182.0 L 127.0 182.0 L 128.0 182.0 L 129.0 182.0 L 130.0 182.0 L 130.0 183.0 L 130.0 184.0 " stroke="black" fill="none" stroke-width="5.0" stroke-linecap="round" stroke-linejoin="round" />
<path d="M 100.0 185.0 L 100.0 185.0 L 100.0 185.0 L 100.0 185.0 L 100.0 185.0 L 100.0 185.0 L 100.0 185.0 L 100.0 186.0 L 100.0 187.0 L 100.0 190.0 L 100.0 193.0 L 100.0 197.0 L 99.0 203.0 L 99.0 209.0 L 99.0 214.0 L 99.0 221.0 L 99.0 225.0 L 99.0 229.0 L 99.0 231.0 L 99.0 232.0 " stroke="black" fill="none" stroke-width="5.0" stroke-linecap="round" stroke-linejoin="round" />
<path d="M 61.0 244.0 L 61.0 244.0 L 61.0 244.0 L 61.0 245.0 L 61.0 245.0 L 61.0 245.0 L 61.0 245.0 L 61.0 245.0 L 61.0 245.0 L 61.0 245.0 L 61.0 245.0 L 61.0 245.0 L 61.0 245.0 L 61.0 245.0 L 61.0 245.0 L 61.0 245.0 L 61.0 245.0 L 61.0 245.0 L 61.0 245.0 L 62.0 245.0 L 62.0 245.0 L 63.0 245.0 L 63.0 245.0 L 64.0 245.0 L 64.0 245.0 L 65.0 245.0 L 65.0 245.0 L 66.0 245.0 L 66.0 244.0 L 67.0 244.0 L 67.0 244.0 L 68.0 244.0 L 68.0 244.0 L 69.0 244.0 L 70.0 243.0 L 70.0 243.0 L 71.0 243.0 L 72.0 243.0 L 73.0 243.0 L 74.0 242.0 L 75.0 242.0 L 76.0 242.0 L 77.0 242.0 L 79.0 241.0 L 80.0 241.0 L 82.0 241.0 L 83.0 240.0 L 85.0 240.0 L 86.0 240.0 L 88.0 239.0 L 90.0 239.0 L 91.0 239.0 L 93.0 239.0 L 94.0 238.0 L 96.0 238.0 L 98.0 237.0 L 99.0 237.0 L 101.0 236.0 L 102.0 236.0 L 104.0 236.0 L 105.0 235.0 L 107.0 235.0 L 108.0 235.0 L 109.0 235.0 L 110.0 235.0 L 112.0 234.0 L 113.0 234.0 L 114.0 234.0 L 116.0 234.0 L 118.0 233.0 L 119.0 233.0 L 121.0 232.0 L 123.0 232.0 L 125.0 231.0 L 128.0 231.0 L 130.0 230.0 L 132.0 230.0 L 134.0 229.0 L 136.0 228.0 L 139.0 227.0 L 140.0 226.0 " stroke="black" fill="none" stroke-width="5.0" stroke-linecap="round" stroke-linejoin="round" />
<path d="M 152.0 82.0 L 152.0 82.0 L 152.0 82.0 L 152.0 82.0 L 152.0 82.0 L 152.0 82.0 L 152.0 82.0 L 152.0 82.0 L 152.0 83.0 L 152.0 83.0 L 152.0 83.0 L 152.0 83.0 L 152.0 83.0 L 152.0 83.0 L 152.0 83.0 L 152.0 83.0 L 152.0 83.0 L 152.0 83.0 L 153.0 83.0 L 153.0 83.0 L 154.0 83.0 L 155.0 83.0 L 155.0 83.0 L 156.0 83.0 L 157.0 83.0 L 158.0 83.0 L 160.0 83.0 L 161.0 83.0 L 162.0 83.0 L 163.0 83.0 L 164.0 83.0 L 166.0 83.0 L 167.0 83.0 L 169.0 83.0 L 170.0 83.0 L 172.0 83.0 L 174.0 83.0 L 175.0 83.0 L 177.0 83.0 L 179.0 83.0 L 181.0 83.0 L 183.0 83.0 L 184.0 83.0 L 186.0 83.0 L 188.0 83.0 L 190.0 83.0 L 191.0 83.0 L 193.0 83.0 L 194.0 83.0 L 196.0 83.0 L 198.0 83.0 L 199.0 83.0 L 201.0 83.0 L 202.0 83.0 L 204.0 83.0 L 206.0 83.0 L 208.0 83.0 L 210.0 83.0 L 212.0 83.0 L 214.0 83.0 L 217.0 83.0 L 219.0 83.0 L 222.0 83.0 L 224.0 83.0 L 227.0 82.0 L 229.0 82.0 L 232.0 82.0 L 233.0 82.0 L 235.0 81.0 L 236.0 81.0 L 237.0 81.0 L 238.0 80.0 L 238.0 80.0 " stroke="black" fill="none" stroke-width="5.0" stroke-linecap="round" stroke-linejoin="round" />
<path d="M 197.0 87.0 L 197.0 87.0 L 197.0 87.0 L 197.0 87.0 L 197.0 87.0 L 197.0 87.0 L 197.0 87.0 L 196.0 87.0 L 196.0 89.0 L 196.0 91.0 L 195.0 95.0 L 194.0 100.0 L 192.0 105.0 L 191.0 109.0 L 191.0 111.0 " stroke="black" fill="none" stroke-width="5.0" stroke-linecap="round" stroke-linejoin="round" />
<path d="M 159.0 114.0 L 159.0 114.0 L 159.0 114.0 L 159.0 114.0 L 159.0 115.0 L 159.0 115.0 L 159.0 115.0 L 159.0 116.0 L 159.0 116.0 L 159.0 117.0 L 159.0 118.0 L 159.0 120.0 L 159.0 121.0 L 159.0 124.0 L 159.0 126.0 L 159.0 128.0 L 159.0 131.0 L 159.0 134.0 L 159.0 137.0 L 159.0 140.0 L 159.0 142.0 L 159.0 145.0 L 159.0 147.0 L 158.0 150.0 L 158.0 152.0 L 158.0 154.0 L 158.0 156.0 L 158.0 158.0 L 158.0 160.0 L 158.0 161.0 L 158.0 163.0 L 158.0 164.0 L 158.0 166.0 L 158.0 167.0 L 158.0 169.0 L 158.0 171.0 L 158.0 172.0 L 158.0 174.0 L 158.0 176.0 L 158.0 178.0 L 158.0 179.0 L 158.0 181.0 L 158.0 183.0 L 158.0 185.0 L 158.0 186.0 L 158.0 188.0 L 158.0 190.0 L 158.0 191.0 L 158.0 193.0 L 158.0 195.0 L 158.0 196.0 L 158.0 198.0 L 158.0 199.0 L 158.0 201.0 L 158.0 202.0 L 158.0 204.0 L 158.0 206.0 L 158.0 207.0 L 158.0 208.0 L 158.0 209.0 L 158.0 210.0 L 158.0 211.0 L 158.0 211.0 " stroke="black" fill="none" stroke-width="5.0" stroke-linecap="round" stroke-linejoin="round" />
<path d="M 162.0 117.0 L 161.0 117.0 L 160.0 117.0 L 160.0 117.0 L 159.0 117.0 L 159.0 117.0 L 158.0 117.0 L 158.0 117.0 L 158.0 117.0 L 158.0 117.0 L 158.0 117.0 L 158.0 117.0 L 158.0 117.0 L 159.0 117.0 L 160.0 117.0 L 160.0 117.0 L 161.0 117.0 L 162.0 117.0 L 163.0 117.0 L 164.0 117.0 L 165.0 117.0 L 166.0 117.0 L 167.0 117.0 L 168.0 117.0 L 169.0 117.0 L 170.0 117.0 L 171.0 117.0 L 172.0 117.0 L 173.0 117.0 L 174.0 117.0 L 176.0 117.0 L 177.0 116.0 L 178.0 116.0 L 180.0 116.0 L 181.0 116.0 L 183.0 116.0 L 184.0 116.0 L 185.0 115.0 L 186.0 115.0 L 187.0 115.0 L 188.0 115.0 L 189.0 115.0 L 190.0 115.0 L 191.0 115.0 L 191.0 115.0 L 192.0 115.0 L 192.0 115.0 L 193.0 114.0 L 193.0 114.0 L 194.0 114.0 L 194.0 114.0 L 195.0 114.0 L 195.0 114.0 L 196.0 114.0 L 196.0 114.0 L 197.0 114.0 L 198.0 114.0 L 198.0 114.0 L 199.0 114.0 L 200.0 114.0 L 200.0 114.0 L 201.0 114.0 L 202.0 114.0 L 203.0 114.0 L 204.0 114.0 L 204.0 114.0 L 205.0 114.0 L 206.0 114.0 L 207.0 114.0 L 208.0 114.0 L 209.0 114.0 L 210.0 114.0 L 211.0 114.0 L 213.0 114.0 L 214.0 114.0 L 215.0 114.0 L 217.0 114.0 L 218.0 114.0 L 219.0 114.0 L 221.0 114.0 L 222.0 114.0 L 223.0 114.0 L 224.0 114.0 L 225.0 114.0 L 226.0 114.0 L 228.0 114.0 L 229.0 114.0 L 229.0 114.0 L 230.0 114.0 L 231.0 114.0 L 232.0 114.0 L 233.0 114.0 L 233.0 114.0 L 234.0 114.0 L 234.0 114.0 L 234.0 114.0 L 234.0 114.0 L 234.0 115.0 L 234.0 115.0 L 234.0 116.0 L 234.0 117.0 L 234.0 118.0 L 234.0 119.0 L 234.0 121.0 L 234.0 123.0 L 234.0 125.0 L 234.0 128.0 L 233.0 131.0 L 233.0 134.0 L 233.0 138.0 L 233.0 142.0 L 232.0 146.0 L 232.0 150.0 L 232.0 154.0 L 232.0 158.0 L 232.0 163.0 L 232.0 166.0 L 232.0 170.0 L 232.0 173.0 L 232.0 176.0 L 232.0 179.0 L 232.0 182.0 L 232.0 185.0 L 232.0 188.0 L 232.0 191.0 L 232.0 193.0 L 232.0 195.0 L 232.0 198.0 L 232.0 200.0 L 232.0 202.0 L 231.0 204.0 L 231.0 206.0 L 231.0 207.0 L 231.0 209.0 L 231.0 211.0 L 231.0 212.0 L 231.0 213.0 L 230.0 214.0 L 230.0 214.0 L 230.0 214.0 " stroke="black" fill="none" stroke-width="5.0" stroke-linecap="round" stroke-linejoin="round" />
<path d="M 165.0 149.0 L 165.0 149.0 L 164.0 148.0 L 163.0 148.0 L 163.0 148.0 L 162.0 147.0 L 162.0 147.0 L 162.0 147.0 L 162.0 147.0 L 162.0 147.0 L 162.0 147.0 L 164.0 147.0 L 165.0 147.0 L 167.0 147.0 L 170.0 147.0 L 173.0 147.0 L 177.0 147.0 L 181.0 147.0 L 186.0 147.0 L 190.0 147.0 L 195.0 147.0 L 200.0 147.0 L 204.0 147.0 L 208.0 147.0 L 213.0 147.0 L 217.0 147.0 L 220.0 147.0 L 223.0 147.0 L 225.0 147.0 L 225.0 147.0 L 226.0 148.0 " stroke="black" fill="none" stroke-width="5.0" stroke-linecap="round" stroke-linejoin="round" />
<path d="M 163.0 179.0 L 163.0 179.0 L 163.0 179.0 L 163.0 179.0 L 163.0 179.0 L 163.0 179.0 L 163.0 179.0 L 163.0 179.0 L 165.0 179.0 L 168.0 179.0 L 172.0 179.0 L 178.0 180.0 L 184.0 180.0 L 191.0 181.0 L 198.0 181.0 L 205.0 181.0 L 212.0 181.0 L 218.0 181.0 L 224.0 181.0 L 226.0 181.0 " stroke="black" fill="none" stroke-width="5.0" stroke-linecap="round" stroke-linejoin="round" />
<path d="M 159.0 215.0 L 159.0 215.0 L 159.0 215.0 L 159.0 215.0 L 159.0 215.0 L 159.0 215.0 L 160.0 215.0 L 161.0 214.0 L 163.0 214.0 L 166.0 214.0 L 170.0 213.0 L 175.0 213.0 L 182.0 213.0 L 188.0 213.0 L 193.0 213.0 L 200.0 213.0 L 205.0 212.0 L 211.0 212.0 L 217.0 211.0 L 222.0 211.0 L 225.0 211.0 L 228.0 211.0 L 228.0 211.0 " stroke="black" fill="none" stroke-width="5.0" stroke-linecap="round" stroke-linejoin="round" />
<path d="M 178.0 230.0 L 178.0 230.0 L 176.0 231.0 L 175.0 232.0 L 173.0 233.0 L 171.0 234.0 L 168.0 236.0 L 166.0 237.0 L 163.0 239.0 L 159.0 242.0 L 156.0 244.0 L 153.0 247.0 L 151.0 249.0 L 150.0 250.0 " stroke="black" fill="none" stroke-width="5.0" stroke-linecap="round" stroke-linejoin="round" />
<path d="M 211.0 231.0 L 210.0 231.0 L 209.0 231.0 L 208.0 231.0 L 207.0 231.0 L 207.0 231.0 L 207.0 231.0 L 207.0 232.0 L 208.0 232.0 L 210.0 234.0 L 213.0 235.0 L 216.0 237.0 L 221.0 239.0 L 225.0 242.0 L 228.0 244.0 L 232.0 246.0 L 235.0 248.0 L 237.0 250.0 L 239.0 252.0 L 240.0 253.0 L 241.0 255.0 L 241.0 256.0 " stroke="black" fill="none" stroke-width="5.0" stroke-linecap="round" stroke-linejoin="round" />
</svg>