<svg xmlns="http://www.w3.org/2000/svg" width="300" height="300" viewBox="0 0 300 300">
<path d="M 152.0 77.0 L 152.0 77.0 L 152.0 77.0 L 153.0 77.0 L 153.0 77.0 L 153.0 77.0 L 154.0 77.0 L 154.0 77.0 L 155.0 76.0 L 155.0 76.0 L 155.0 76.0 L 156.0 76.0 L 156.0 76.0 L 156.0 76.0 L 156.0 76.0 L 154.0 78.0 L 151.0 81.0 L 146.0 86.0 L 137.0 92.0 L 125.0 100.0 L 112.0 108.0 L 100.0 116.0 L 90.0 121.0 L 79.0 126.0 L 70.0 130.0 L 66.0 132.0 L 64.0 134.0 " stroke="black" fill="none" stroke-width="5.0" stroke-linecap="round" stroke-linejoin="round" />
<path d="M 154.0 81.0 L 154.0 81.0 L 154.0 80.0 L 154.0 80.0 L 154.0 80.0 L 154.0 79.0 L 153.0 79.0 L 153.0 79.0 L 153.0 79.0 L 153.0 79.0 L 153.0 79.0 L 153.0 79.0 L 154.0 79.0 L 156.0 80.0 L 159.0 82.0 L 164.0 85.0 L 171.0 88.0 L 178.0 92.0 L 187.0 96.0 L 194.0 100.0 L 200.0 104.0 L 206.0 107.0 L 212.0 110.0 L 218.0 113.0 L 224.0 115.0 L 230.0 117.0 L 234.0 119.0 L 237.0 121.0 L 239.0 122.0 L 240.0 124.0 L 241.0 125.0 L 241.0 127.0 L 241.0 128.0 L 241.0 128.0 L 241.0 128.0 " stroke="black" fill="none" stroke-width="5.0" stroke-linecap="round" stroke-linejoin="round" />
<path d="M 130.0 119.0 L 130.0 118.0 L 129.0 118.0 L 128.0 117.0 L 127.0 117.0 L 127.0 116.0 L 127.0 116.0 L 127.0 116.0 L 128.0 116.0 L 130.0 116.0 L 134.0 116.0 L 139.0 116.0 L 144.0 117.0 L 150.0 117.0 L 156.0 117.0 L 165.0 117.0 L 174.0 116.0 " stroke="black" fill="none" stroke-width="5.0" stroke-linecap="round" stroke-linejoin="round" />
<path d="M 108.0 140.0 L 108.0 140.0 L 108.0 140.0 L 108.0 140.0 L 108.0 140.0 L 108.0 140.0 L 108.0 140.0 L 108.0 140.0 L 108.0 140.0 L 107.0 140.0 L 107.0 140.0 L 107.0 140.0 L 107.0 140.0 L 107.0 140.0 L 107.0 139.0 L 107.0 139.0 L 107.0 139.0 L 108.0 138.0 L 110.0 138.0 L 112.0 138.0 L 115.0 137.0 L 119.0 137.0 L 124.0 137.0 L 130.0 137.0 L 137.0 136.0 L 143.0 136.0 L 148.0 135.0 L 152.0 135.0 L 156.0 135.0 L 158.0 135.0 L 161.0 135.0 L 164.0 136.0 L 167.0 136.0 L 171.0 137.0 L 175.0 137.0 L 178.0 137.0 L 182.0 137.0 L 185.0 137.0 L 187.0 137.0 L 189.0 137.0 L 191.0 137.0 L 192.0 138.0 L 193.0 138.0 L 194.0 138.0 L 195.0 138.0 L 196.0 139.0 L 197.0 139.0 L 198.0 139.0 L 198.0 139.0 L 198.0 140.0 L 199.0 140.0 L 199.0 141.0 L 199.0 141.0 L 200.0 142.0 L 200.0 142.0 L 200.0 143.0 L 200.0 143.0 L 200.0 144.0 L 201.0 144.0 L 201.0 145.0 L 201.0 145.0 L 201.0 145.0 L 201.0 146.0 L 201.0 146.0 L 201.0 147.0 L 201.0 148.0 L 201.0 149.0 L 201.0 150.0 L 200.0 153.0 L 199.0 156.0 L 198.0 160.0 L 197.0 164.0 L 196.0 169.0 L 195.0 174.0 L 195.0 178.0 L 194.0 182.0 L 194.0 186.0 L 193.0 188.0 L 193.0 189.0 " stroke="black" fill="none" stroke-width="5.0" stroke-linecap="round" stroke-linejoin="round" />
<path d="M 117.0 163.0 L 117.0 163.0 L 117.0 163.0 L 117.0 163.0 L 116.0 163.0 L 116.0 163.0 L 115.0 163.0 L 114.0 163.0 L 114.0 163.0 L 114.0 164.0 L 114.0 164.0 L 115.0 164.0 L 118.0 165.0 L 125.0 165.0 L 134.0 165.0 L 145.0 165.0 L 156.0 165.0 L 167.0 165.0 L 178.0 165.0 L 187.0 165.0 L 192.0 165.0 L 195.0 165.0 L 197.0 165.0 L 197.0 165.0 L 197.0 165.0 L 197.0 167.0 L 196.0 167.0 " stroke="black" fill="none" stroke-width="5.0" stroke-linecap="round" stroke-linejoin="round" />
<path d="M 118.0 186.0 L 118.0 186.0 L 117.0 186.0 L 116.0 186.0 L 114.0 186.0 L 113.0 186.0 L 112.0 186.0 L 111.0 186.0 L 110.0 186.0 L 110.0 186.0 L 110.0 186.0 L 112.0 186.0 L 115.0 186.0 L 119.0 186.0 L 126.0 187.0 L 134.0 187.0 L 142.0 188.0 L 151.0 189.0 L 161.0 189.0 L 171.0 190.0 L 181.0 190.0 L 189.0 191.0 " stroke="black" fill="none" stroke-width="5.0" stroke-linecap="round" stroke-linejoin="round" />
<path d="M 109.0 145.0 L 109.0 145.0 L 109.0 144.0 L 109.0 144.0 L 109.0 144.0 L 109.0 144.0 L 109.0 145.0 L 109.0 146.0 L 109.0 149.0 L 109.0 151.0 L 109.0 154.0 L 109.0 157.0 L 108.0 161.0 L 108.0 166.0 L 107.0 172.0 L 106.0 179.0 L 105.0 187.0 L 104.0 195.0 L 103.0 201.0 L 103.0 208.0 L 103.0 213.0 L 103.0 218.0 L 103.0 224.0 L 102.0 229.0 L 102.0 234.0 L 102.0 239.0 L 101.0 242.0 L 100.0 244.0 L 99.0 246.0 L 99.0 247.0 L 99.0 248.0 L 99.0 248.0 L 99.0 248.0 L 99.0 248.0 L 99.0 248.0 L 99.0 248.0 L 99.0 248.0 L 99.0 248.0 L 99.0 248.0 L 99.0 248.0 L 99.0 248.0 L 99.0 248.0 L 99.0 248.0 L 99.0 247.0 L 99.0 247.0 L 99.0 247.0 L 99.0 247.0 L 100.0 246.0 L 100.0 246.0 L 100.0 246.0 L 101.0 245.0 L 101.0 245.0 L 101.0 245.0 L 101.0 245.0 L 101.0 245.0 L 101.0 245.0 L 101.0 245.0 L 101.0 245.0 L 101.0 245.0 L 102.0 245.0 L 102.0 245.0 L 102.0 245.0 L 103.0 245.0 L 104.0 245.0 L 105.0 245.0 L 107.0 245.0 L 110.0 245.0 L 115.0 245.0 L 123.0 243.0 L 133.0 241.0 L 142.0 239.0 L 148.0 237.0 L 153.0 236.0 L 155.0 236.0 L 156.0 236.0 " stroke="black" fill="none" stroke-width="5.0" stroke-linecap="round" stroke-linejoin="round" />
<path d="M 213.0 202.0 L 214.0 202.0 L 215.0 201.0 L 215.0 201.0 L 215.0 201.0 L 215.0 201.0 L 215.0 201.0 L 213.0 202.0 L 210.0 204.0 L 206.0 206.0 L 202.0 208.0 L 198.0 211.0 L 193.0 215.0 L 187.0 219.0 L 180.0 223.0 L 175.0 227.0 L 170.0 229.0 " stroke="black" fill="none" stroke-width="5.0" stroke-linecap="round" stroke-linejoin="round" />
<path d="M 150.0 212.0 L 150.0 212.0 L 149.0 211.0 L 149.0 211.0 L 148.0 210.0 L 148.0 210.0 L 147.0 209.0 L 147.0 209.0 L 147.0 209.0 L 147.0 209.0 L 147.0 209.0 L 147.0 209.0 L 149.0 209.0 L 151.0 212.0 L 155.0 215.0 L 161.0 220.0 L 170.0 226.0 L 181.0 232.0 L 191.0 238.0 L 200.0 242.0 L 206.0 244.0 L 212.0 245.0 L 217.0 246.0 L 221.0 247.0 L 223.0 247.0 L 225.0 247.0 L 225.0 247.0 L 225.0 247.0 L 224.0 247.0 " stroke="black" fill="none" stroke-width="5.0" stroke-linecap="round" stroke-linejoin="round" />
</svg>