<svg xmlns="http://www.w3.org/2000/svg" width="300" height="300" viewBox="0 0 300 300">
<path d="M 69.0 84.0 L 69.0 84.0 L 68.0 83.0 L 67.0 83.0 L 67.0 83.0 L 66.0 83.0 L 66.0 83.0 L 66.0 85.0 L 66.0 88.0 L 66.0 92.0 L 66.0 99.0 L 66.0 107.0 L 66.0 116.0 L 66.0 126.0 L 66.0 138.0 L 66.0 148.0 L 66.0 157.0 L 66.0 164.0 L 66.0 167.0 L 66.0 168.0 " stroke="black" fill="none" stroke-width="5.0" stroke-linecap="round" stroke-linejoin="round" />
<path d="M 74.0 83.0 L 73.0 83.0 L 71.0 83.0 L 70.0 83.0 L 69.0 83.0 L 68.0 84.0 L 68.0 84.0 L 68.0 84.0 L 70.0 84.0 L 72.0 84.0 L 76.0 83.0 L 81.0 83.0 L 87.0 82.0 L 93.0 82.0 L 99.0 82.0 L 106.0 82.0 L 112.0 82.0 L 117.0 82.0 L 123.0 82.0 " stroke="black" fill="none" stroke-width="5.0" stroke-linecap="round" stroke-linejoin="round" />
<path d="M 77.0 113.0 L 76.0 113.0 L 75.0 113.0 L 73.0 113.0 L 72.0 113.0 L 71.0 113.0 L 71.0 113.0 L 71.0 113.0 L 71.0 113.0 L 73.0 113.0 L 77.0 113.0 L 82.0 113.0 L 89.0 113.0 L 93.0 113.0 L 102.0 111.0 L 109.0 110.0 L 114.0 109.0 L 119.0 109.0 L 124.0 108.0 " stroke="black" fill="none" stroke-width="5.0" stroke-linecap="round" stroke-linejoin="round" />
<path d="M 85.0 136.0 L 83.0 136.0 L 79.0 136.0 L 75.0 137.0 L 73.0 137.0 L 72.0 137.0 L 71.0 137.0 L 71.0 137.0 L 72.0 137.0 L 74.0 137.0 L 78.0 137.0 L 83.0 137.0 L 90.0 136.0 L 97.0 135.0 L 104.0 134.0 L 110.0 132.0 L 116.0 131.0 L 123.0 130.0 L 130.0 128.0 L 132.0 127.0 " stroke="black" fill="none" stroke-width="5.0" stroke-linecap="round" stroke-linejoin="round" />
<path d="M 109.0 88.0 L 109.0 88.0 L 107.0 88.0 L 106.0 88.0 L 105.0 89.0 L 105.0 90.0 L 104.0 93.0 L 104.0 97.0 L 104.0 102.0 L 105.0 109.0 L 105.0 116.0 L 105.0 124.0 L 105.0 132.0 L 105.0 142.0 L 105.0 151.0 L 104.0 159.0 L 103.0 164.0 L 103.0 168.0 L 103.0 171.0 L 102.0 172.0 L 102.0 172.0 " stroke="black" fill="none" stroke-width="5.0" stroke-linecap="round" stroke-linejoin="round" />
<path d="M 79.0 173.0 L 78.0 173.0 L 75.0 174.0 L 72.0 175.0 L 70.0 175.0 L 68.0 176.0 L 68.0 176.0 L 68.0 176.0 L 68.0 175.0 L 68.0 175.0 L 69.0 174.0 L 70.0 173.0 L 72.0 173.0 L 73.0 173.0 L 75.0 173.0 L 78.0 173.0 L 81.0 173.0 L 85.0 173.0 L 90.0 173.0 L 95.0 173.0 L 100.0 173.0 L 106.0 172.0 L 111.0 172.0 L 115.0 172.0 L 120.0 171.0 L 124.0 171.0 L 128.0 170.0 L 132.0 170.0 L 135.0 169.0 L 137.0 169.0 L 138.0 169.0 L 139.0 169.0 L 139.0 170.0 L 139.0 171.0 L 139.0 171.0 L 139.0 172.0 L 139.0 173.0 L 139.0 173.0 L 139.0 174.0 L 139.0 175.0 L 139.0 176.0 L 139.0 177.0 L 139.0 178.0 L 139.0 181.0 L 139.0 183.0 L 139.0 187.0 L 139.0 190.0 L 138.0 195.0 L 138.0 200.0 L 137.0 206.0 L 136.0 212.0 L 136.0 220.0 L 136.0 228.0 L 136.0 235.0 L 135.0 241.0 L 135.0 246.0 L 134.0 248.0 L 132.0 250.0 L 130.0 251.0 L 127.0 251.0 L 124.0 251.0 L 122.0 251.0 L 119.0 250.0 L 117.0 250.0 L 115.0 249.0 L 113.0 248.0 L 112.0 247.0 L 110.0 245.0 " stroke="black" fill="none" stroke-width="5.0" stroke-linecap="round" stroke-linejoin="round" />
<path d="M 69.0 194.0 L 69.0 194.0 L 69.0 193.0 L 69.0 193.0 L 68.0 192.0 L 68.0 192.0 L 68.0 192.0 L 68.0 192.0 L 68.0 192.0 L 68.0 192.0 L 68.0 194.0 L 68.0 196.0 L 68.0 200.0 L 69.0 204.0 L 69.0 209.0 L 69.0 215.0 L 69.0 221.0 L 69.0 228.0 L 68.0 233.0 L 68.0 237.0 L 68.0 238.0 " stroke="black" fill="none" stroke-width="5.0" stroke-linecap="round" stroke-linejoin="round" />
<path d="M 87.0 197.0 L 87.0 197.0 L 86.0 197.0 L 85.0 197.0 L 85.0 197.0 L 85.0 197.0 L 84.0 197.0 L 84.0 197.0 L 84.0 199.0 L 84.0 201.0 L 84.0 203.0 L 84.0 206.0 L 83.0 210.0 L 83.0 214.0 L 83.0 218.0 L 83.0 222.0 L 83.0 225.0 L 83.0 226.0 L 84.0 227.0 " stroke="black" fill="none" stroke-width="5.0" stroke-linecap="round" stroke-linejoin="round" />
<path d="M 101.0 189.0 L 101.0 189.0 L 101.0 189.0 L 101.0 188.0 L 101.0 188.0 L 101.0 188.0 L 101.0 188.0 L 101.0 189.0 L 101.0 191.0 L 101.0 194.0 L 101.0 199.0 L 101.0 204.0 L 101.0 211.0 L 102.0 218.0 L 102.0 226.0 L 102.0 231.0 L 102.0 236.0 L 102.0 237.0 L 103.0 237.0 L 103.0 237.0 " stroke="black" fill="none" stroke-width="5.0" stroke-linecap="round" stroke-linejoin="round" />
<path d="M 113.0 185.0 L 113.0 185.0 L 113.0 185.0 L 113.0 185.0 L 113.0 186.0 L 113.0 188.0 L 113.0 191.0 L 113.0 195.0 L 115.0 199.0 L 116.0 204.0 L 116.0 207.0 L 117.0 209.0 L 118.0 214.0 L 119.0 218.0 L 120.0 221.0 L 121.0 223.0 L 122.0 224.0 " stroke="black" fill="none" stroke-width="5.0" stroke-linecap="round" stroke-linejoin="round" />
<path d="M 189.0 76.0 L 189.0 76.0 L 188.0 76.0 L 187.0 76.0 L 187.0 76.0 L 186.0 76.0 L 186.0 76.0 L 186.0 77.0 L 187.0 79.0 L 188.0 82.0 L 189.0 84.0 L 190.0 87.0 L 191.0 91.0 L 193.0 94.0 L 194.0 98.0 L 194.0 99.0 " stroke="black" fill="none" stroke-width="5.0" stroke-linecap="round" stroke-linejoin="round" />
<path d="M 158.0 109.0 L 156.0 109.0 L 153.0 109.0 L 150.0 109.0 L 148.0 109.0 L 146.0 109.0 L 145.0 109.0 L 145.0 109.0 L 145.0 109.0 L 146.0 109.0 L 148.0 109.0 L 151.0 109.0 L 156.0 110.0 L 162.0 110.0 L 169.0 110.0 L 178.0 111.0 L 186.0 111.0 L 194.0 111.0 L 203.0 111.0 L 210.0 111.0 L 217.0 111.0 L 223.0 111.0 L 227.0 111.0 " stroke="black" fill="none" stroke-width="5.0" stroke-linecap="round" stroke-linejoin="round" />
<path d="M 189.0 115.0 L 189.0 115.0 L 189.0 115.0 L 188.0 115.0 L 188.0 115.0 L 188.0 114.0 L 187.0 114.0 L 187.0 115.0 L 186.0 117.0 L 185.0 120.0 L 184.0 123.0 L 183.0 127.0 L 180.0 131.0 L 178.0 136.0 L 174.0 142.0 L 170.0 147.0 L 167.0 152.0 L 164.0 155.0 L 162.0 157.0 L 161.0 158.0 L 161.0 159.0 L 161.0 159.0 L 162.0 159.0 L 163.0 159.0 L 165.0 159.0 L 166.0 159.0 L 168.0 159.0 L 171.0 159.0 L 174.0 159.0 L 177.0 158.0 L 181.0 157.0 L 186.0 156.0 L 191.0 155.0 L 195.0 153.0 " stroke="black" fill="none" stroke-width="5.0" stroke-linecap="round" stroke-linejoin="round" />
<path d="M 220.0 126.0 L 220.0 126.0 L 220.0 125.0 L 220.0 124.0 L 220.0 123.0 L 220.0 123.0 L 220.0 123.0 L 219.0 123.0 L 219.0 123.0 L 219.0 123.0 L 218.0 125.0 L 216.0 127.0 L 215.0 131.0 L 212.0 136.0 L 210.0 141.0 L 206.0 148.0 L 202.0 155.0 L 198.0 163.0 L 194.0 170.0 L 189.0 177.0 L 184.0 185.0 L 177.0 191.0 L 169.0 197.0 L 161.0 200.0 L 154.0 203.0 L 149.0 205.0 L 147.0 205.0 " stroke="black" fill="none" stroke-width="5.0" stroke-linecap="round" stroke-linejoin="round" />
<path d="M 230.0 170.0 L 230.0 170.0 L 230.0 170.0 L 230.0 170.0 L 229.0 170.0 L 229.0 170.0 L 229.0 170.0 L 229.0 170.0 L 229.0 171.0 L 228.0 174.0 L 226.0 177.0 L 224.0 181.0 L 221.0 186.0 L 217.0 192.0 L 213.0 198.0 L 207.0 204.0 L 201.0 211.0 L 196.0 218.0 L 191.0 225.0 L 185.0 232.0 L 179.0 237.0 L 173.0 240.0 L 168.0 242.0 L 163.0 243.0 L 160.0 243.0 L 159.0 243.0 " stroke="black" fill="none" stroke-width="5.0" stroke-linecap="round" stroke-linejoin="round" />
<path d="M 207.0 217.0 L 207.0 217.0 L 206.0 217.0 L 205.0 217.0 L 205.0 217.0 L 205.0 217.0 L 205.0 218.0 L 206.0 219.0 L 208.0 221.0 L 210.0 223.0 L 213.0 226.0 L 217.0 230.0 L 221.0 234.0 L 225.0 237.0 L 230.0 242.0 L 235.0 246.0 L 240.0 249.0 L 244.0 252.0 L 248.0 254.0 L 253.0 255.0 L 256.0 255.0 L 257.0 255.0 " stroke="black" fill="none" stroke-width="5.0" stroke-linecap="round" stroke-linejoin="round" />
</svg>