<svg xmlns="http://www.w3.org/2000/svg" width="300" height="300" viewBox="0 0 300 300">
<path d="M 67.0 83.0 L 67.0 83.0 L 67.0 83.0 L 67.0 83.0 L 67.0 83.0 L 67.0 83.0 L 67.0 83.0 L 67.0 83.0 L 67.0 83.0 L 67.0 83.0 L 67.0 83.0 L 67.0 83.0 L 68.0 83.0 L 69.0 83.0 L 70.0 83.0 L 72.0 83.0 L 74.0 83.0 L 77.0 83.0 L 80.0 83.0 L 83.0 83.0 L 87.0 82.0 L 91.0 82.0 L 94.0 81.0 L 97.0 81.0 L 100.0 81.0 L 101.0 81.0 L 103.0 81.0 L 105.0 81.0 L 106.0 81.0 L 107.0 81.0 L 108.0 81.0 L 110.0 81.0 L 111.0 80.0 L 113.0 80.0 L 115.0 80.0 L 116.0 79.0 L 118.0 79.0 L 119.0 79.0 L 121.0 79.0 L 123.0 79.0 L 124.0 79.0 L 125.0 79.0 L 127.0 79.0 L 129.0 79.0 L 131.0 79.0 L 133.0 79.0 L 134.0 78.0 L 136.0 78.0 L 138.0 78.0 L 140.0 78.0 L 141.0 78.0 L 143.0 78.0 L 144.0 78.0 L 145.0 78.0 L 146.0 78.0 L 146.0 78.0 " stroke="black" fill="none" stroke-width="5.0" stroke-linecap="round" stroke-linejoin="round" />
<path d="M 108.0 72.0 L 108.0 72.0 L 108.0 72.0 L 108.0 72.0 L 108.0 71.0 L 108.0 71.0 L 107.0 71.0 L 107.0 71.0 L 107.0 71.0 L 107.0 71.0 L 107.0 72.0 L 107.0 73.0 L 107.0 75.0 L 107.0 78.0 L 107.0 81.0 L 107.0 86.0 L 107.0 90.0 L 107.0 95.0 L 107.0 100.0 L 107.0 103.0 L 107.0 104.0 " stroke="black" fill="none" stroke-width="5.0" stroke-linecap="round" stroke-linejoin="round" />
<path d="M 79.0 100.0 L 78.0 100.0 L 78.0 100.0 L 77.0 100.0 L 76.0 100.0 L 76.0 100.0 L 75.0 100.0 L 75.0 100.0 L 75.0 100.0 L 75.0 100.0 L 76.0 100.0 L 78.0 100.0 L 82.0 100.0 L 86.0 100.0 L 91.0 100.0 L 96.0 100.0 L 101.0 99.0 L 106.0 99.0 L 111.0 98.0 L 117.0 97.0 L 122.0 96.0 L 127.0 95.0 L 132.0 94.0 L 136.0 93.0 L 139.0 93.0 L 141.0 93.0 L 142.0 93.0 " stroke="black" fill="none" stroke-width="5.0" stroke-linecap="round" stroke-linejoin="round" />
<path d="M 79.0 121.0 L 79.0 121.0 L 79.0 121.0 L 79.0 121.0 L 79.0 121.0 L 79.0 121.0 L 79.0 121.0 L 79.0 121.0 L 79.0 121.0 L 80.0 121.0 L 80.0 121.0 L 80.0 121.0 L 80.0 121.0 L 81.0 121.0 L 81.0 121.0 L 82.0 121.0 L 83.0 121.0 L 84.0 121.0 L 86.0 121.0 L 87.0 120.0 L 89.0 120.0 L 91.0 120.0 L 93.0 119.0 L 95.0 119.0 L 96.0 119.0 L 98.0 118.0 L 99.0 118.0 L 100.0 118.0 L 101.0 118.0 L 102.0 118.0 L 102.0 118.0 L 103.0 118.0 L 104.0 117.0 L 105.0 117.0 L 106.0 117.0 L 107.0 117.0 L 107.0 116.0 L 108.0 116.0 L 109.0 116.0 L 109.0 116.0 L 110.0 116.0 L 110.0 116.0 L 111.0 116.0 L 112.0 116.0 L 112.0 116.0 L 113.0 116.0 L 114.0 116.0 L 115.0 116.0 L 116.0 116.0 L 117.0 116.0 L 119.0 116.0 L 120.0 116.0 L 122.0 116.0 L 124.0 117.0 L 125.0 117.0 L 127.0 117.0 L 129.0 117.0 L 131.0 117.0 L 132.0 117.0 L 134.0 117.0 L 135.0 117.0 L 137.0 117.0 L 138.0 117.0 L 139.0 117.0 L 140.0 117.0 L 141.0 117.0 L 141.0 117.0 L 141.0 117.0 L 141.0 117.0 L 141.0 118.0 L 141.0 118.0 L 141.0 119.0 L 141.0 119.0 L 140.0 120.0 L 140.0 121.0 L 139.0 123.0 L 139.0 124.0 L 138.0 125.0 L 138.0 127.0 L 137.0 130.0 L 136.0 132.0 L 136.0 135.0 L 135.0 138.0 L 135.0 141.0 L 134.0 142.0 L 134.0 143.0 L 134.0 143.0 " stroke="black" fill="none" stroke-width="5.0" stroke-linecap="round" stroke-linejoin="round" />
<path d="M 109.0 120.0 L 109.0 120.0 L 109.0 120.0 L 108.0 120.0 L 108.0 120.0 L 108.0 120.0 L 108.0 120.0 L 108.0 121.0 L 107.0 122.0 L 107.0 123.0 L 107.0 125.0 L 107.0 126.0 L 107.0 128.0 L 107.0 129.0 L 107.0 131.0 L 107.0 133.0 L 106.0 135.0 L 105.0 137.0 " stroke="black" fill="none" stroke-width="5.0" stroke-linecap="round" stroke-linejoin="round" />
<path d="M 88.0 139.0 L 87.0 139.0 L 85.0 140.0 L 84.0 141.0 L 83.0 141.0 L 82.0 142.0 L 82.0 142.0 L 82.0 142.0 L 82.0 143.0 L 84.0 143.0 L 86.0 143.0 L 88.0 143.0 L 91.0 142.0 L 94.0 142.0 L 97.0 141.0 L 101.0 141.0 L 105.0 141.0 L 109.0 140.0 L 114.0 139.0 L 119.0 139.0 L 124.0 138.0 L 129.0 138.0 L 134.0 137.0 L 137.0 137.0 L 139.0 137.0 L 141.0 136.0 L 141.0 136.0 " stroke="black" fill="none" stroke-width="5.0" stroke-linecap="round" stroke-linejoin="round" />
<path d="M 79.0 127.0 L 79.0 127.0 L 79.0 127.0 L 78.0 127.0 L 78.0 127.0 L 78.0 127.0 L 78.0 127.0 L 78.0 127.0 L 78.0 127.0 L 78.0 128.0 L 78.0 130.0 L 78.0 133.0 L 78.0 137.0 L 78.0 142.0 L 77.0 148.0 L 75.0 155.0 L 72.0 162.0 L 69.0 168.0 L 66.0 173.0 L 64.0 176.0 L 62.0 178.0 " stroke="black" fill="none" stroke-width="5.0" stroke-linecap="round" stroke-linejoin="round" />
<path d="M 180.0 76.0 L 180.0 76.0 L 180.0 76.0 L 179.0 76.0 L 179.0 76.0 L 178.0 76.0 L 178.0 76.0 L 178.0 76.0 L 178.0 77.0 L 177.0 78.0 L 176.0 80.0 L 175.0 83.0 L 173.0 86.0 L 171.0 90.0 L 169.0 95.0 L 167.0 98.0 L 165.0 102.0 L 164.0 104.0 " stroke="black" fill="none" stroke-width="5.0" stroke-linecap="round" stroke-linejoin="round" />
<path d="M 179.0 79.0 L 179.0 79.0 L 179.0 79.0 L 179.0 79.0 L 178.0 79.0 L 178.0 79.0 L 178.0 79.0 L 178.0 79.0 L 178.0 79.0 L 178.0 79.0 L 178.0 79.0 L 178.0 79.0 L 179.0 79.0 L 180.0 79.0 L 181.0 78.0 L 182.0 78.0 L 183.0 78.0 L 185.0 78.0 L 186.0 77.0 L 188.0 77.0 L 189.0 77.0 L 191.0 77.0 L 193.0 77.0 L 195.0 77.0 L 197.0 76.0 L 199.0 76.0 L 200.0 76.0 L 202.0 76.0 L 204.0 76.0 L 205.0 76.0 L 207.0 76.0 L 208.0 76.0 L 209.0 77.0 L 210.0 77.0 L 211.0 78.0 L 212.0 78.0 L 213.0 79.0 L 214.0 80.0 L 214.0 80.0 L 215.0 81.0 L 215.0 82.0 L 216.0 82.0 L 216.0 83.0 L 216.0 84.0 L 216.0 85.0 L 216.0 86.0 L 216.0 87.0 L 215.0 88.0 L 215.0 89.0 L 215.0 91.0 L 214.0 92.0 L 214.0 93.0 L 214.0 94.0 L 213.0 95.0 L 213.0 96.0 L 213.0 97.0 L 213.0 98.0 L 213.0 98.0 L 213.0 99.0 L 213.0 99.0 L 214.0 100.0 L 215.0 100.0 L 216.0 101.0 L 218.0 101.0 L 220.0 101.0 L 223.0 101.0 L 226.0 101.0 L 229.0 100.0 L 231.0 100.0 L 234.0 100.0 L 236.0 99.0 L 238.0 99.0 L 239.0 98.0 " stroke="black" fill="none" stroke-width="5.0" stroke-linecap="round" stroke-linejoin="round" />
<path d="M 168.0 117.0 L 168.0 117.0 L 167.0 117.0 L 166.0 117.0 L 165.0 117.0 L 164.0 117.0 L 164.0 117.0 L 164.0 117.0 L 164.0 117.0 L 165.0 117.0 L 167.0 117.0 L 169.0 116.0 L 172.0 116.0 L 175.0 116.0 L 179.0 116.0 L 183.0 116.0 L 187.0 116.0 L 191.0 116.0 L 195.0 115.0 L 200.0 115.0 L 205.0 115.0 L 209.0 114.0 L 214.0 114.0 L 218.0 114.0 L 221.0 114.0 L 224.0 114.0 L 225.0 114.0 L 226.0 114.0 L 227.0 114.0 L 227.0 115.0 L 227.0 116.0 L 226.0 117.0 L 224.0 118.0 L 222.0 120.0 L 219.0 122.0 L 216.0 124.0 L 212.0 126.0 L 208.0 129.0 L 204.0 133.0 L 200.0 136.0 L 195.0 140.0 L 191.0 144.0 L 187.0 147.0 L 183.0 150.0 L 179.0 151.0 L 174.0 152.0 L 170.0 152.0 L 166.0 151.0 " stroke="black" fill="none" stroke-width="5.0" stroke-linecap="round" stroke-linejoin="round" />
<path d="M 181.0 118.0 L 181.0 118.0 L 180.0 118.0 L 180.0 118.0 L 179.0 118.0 L 179.0 118.0 L 178.0 118.0 L 178.0 118.0 L 178.0 118.0 L 178.0 118.0 L 179.0 118.0 L 180.0 119.0 L 182.0 120.0 L 184.0 121.0 L 187.0 123.0 L 190.0 125.0 L 194.0 129.0 L 199.0 133.0 L 206.0 137.0 L 213.0 142.0 L 220.0 147.0 L 227.0 151.0 L 232.0 153.0 L 236.0 155.0 L 239.0 155.0 L 240.0 155.0 L 241.0 153.0 L 242.0 152.0 " stroke="black" fill="none" stroke-width="5.0" stroke-linecap="round" stroke-linejoin="round" />
<path d="M 100.0 164.0 L 100.0 164.0 L 100.0 164.0 L 100.0 164.0 L 100.0 164.0 L 99.0 164.0 L 99.0 164.0 L 99.0 164.0 L 99.0 164.0 L 98.0 164.0 L 98.0 164.0 L 98.0 164.0 L 98.0 164.0 L 98.0 164.0 L 98.0 164.0 L 98.0 164.0 L 98.0 164.0 L 98.0 164.0 L 98.0 164.0 L 99.0 164.0 L 100.0 164.0 L 100.0 165.0 L 101.0 165.0 L 102.0 165.0 L 103.0 165.0 L 104.0 166.0 L 105.0 166.0 L 107.0 166.0 L 108.0 166.0 L 109.0 166.0 L 110.0 167.0 L 112.0 167.0 L 113.0 167.0 L 114.0 167.0 L 116.0 167.0 L 117.0 167.0 L 118.0 167.0 L 119.0 167.0 L 121.0 166.0 L 122.0 166.0 L 123.0 166.0 L 124.0 166.0 L 125.0 166.0 L 126.0 166.0 L 127.0 166.0 L 128.0 166.0 L 129.0 166.0 L 130.0 166.0 L 131.0 166.0 L 132.0 166.0 L 132.0 166.0 L 133.0 166.0 L 134.0 166.0 L 135.0 166.0 L 136.0 166.0 L 137.0 166.0 L 137.0 166.0 L 138.0 166.0 L 139.0 166.0 L 139.0 166.0 L 140.0 166.0 L 141.0 166.0 L 141.0 166.0 L 142.0 166.0 L 142.0 166.0 L 143.0 166.0 L 144.0 166.0 L 144.0 166.0 L 145.0 165.0 L 146.0 165.0 L 147.0 165.0 L 147.0 165.0 L 148.0 165.0 L 149.0 165.0 L 149.0 165.0 L 150.0 165.0 L 150.0 165.0 L 151.0 165.0 L 152.0 165.0 L 153.0 165.0 L 153.0 165.0 L 154.0 165.0 L 155.0 164.0 L 156.0 164.0 L 157.0 164.0 L 158.0 164.0 L 159.0 164.0 L 160.0 164.0 L 161.0 164.0 L 162.0 164.0 L 164.0 163.0 L 166.0 163.0 L 168.0 163.0 L 170.0 163.0 L 172.0 162.0 L 174.0 162.0 L 176.0 162.0 L 179.0 162.0 L 181.0 162.0 L 184.0 162.0 L 186.0 162.0 L 188.0 161.0 L 191.0 161.0 L 193.0 160.0 L 195.0 159.0 L 197.0 159.0 L 198.0 158.0 L 200.0 158.0 L 201.0 157.0 " stroke="black" fill="none" stroke-width="5.0" stroke-linecap="round" stroke-linejoin="round" />
<path d="M 73.0 186.0 L 73.0 186.0 L 73.0 186.0 L 72.0 186.0 L 72.0 187.0 L 72.0 187.0 L 72.0 187.0 L 72.0 188.0 L 72.0 188.0 L 72.0 188.0 L 73.0 188.0 L 74.0 187.0 L 75.0 187.0 L 77.0 186.0 L 78.0 186.0 L 80.0 186.0 L 82.0 186.0 L 84.0 185.0 L 86.0 185.0 L 89.0 185.0 L 91.0 185.0 L 94.0 185.0 L 96.0 185.0 L 98.0 186.0 L 100.0 186.0 L 101.0 186.0 L 103.0 187.0 L 104.0 187.0 L 105.0 187.0 L 106.0 187.0 L 108.0 187.0 L 109.0 187.0 L 110.0 187.0 L 111.0 187.0 L 113.0 187.0 L 114.0 187.0 L 116.0 187.0 L 118.0 186.0 L 119.0 186.0 L 121.0 186.0 L 123.0 186.0 L 124.0 186.0 L 125.0 186.0 L 127.0 186.0 L 128.0 186.0 L 130.0 186.0 L 132.0 186.0 L 133.0 186.0 L 136.0 186.0 L 138.0 185.0 L 140.0 185.0 L 142.0 185.0 L 144.0 185.0 L 145.0 185.0 L 147.0 184.0 L 148.0 184.0 L 149.0 184.0 L 150.0 183.0 L 151.0 183.0 L 152.0 183.0 L 153.0 183.0 L 154.0 183.0 L 155.0 183.0 L 156.0 183.0 L 157.0 183.0 L 158.0 183.0 L 159.0 183.0 L 160.0 183.0 L 161.0 183.0 L 163.0 183.0 L 164.0 183.0 L 166.0 183.0 L 167.0 183.0 L 169.0 183.0 L 171.0 183.0 L 173.0 183.0 L 175.0 183.0 L 177.0 183.0 L 178.0 183.0 L 180.0 183.0 L 182.0 183.0 L 183.0 182.0 L 185.0 182.0 L 186.0 182.0 L 188.0 182.0 L 189.0 182.0 L 190.0 182.0 L 191.0 182.0 L 192.0 182.0 L 193.0 182.0 L 194.0 182.0 L 195.0 182.0 L 196.0 182.0 L 197.0 182.0 L 198.0 182.0 L 199.0 182.0 L 200.0 182.0 L 202.0 182.0 L 203.0 182.0 L 204.0 181.0 L 206.0 181.0 L 207.0 181.0 L 209.0 181.0 L 210.0 181.0 L 212.0 180.0 L 214.0 180.0 L 216.0 180.0 L 217.0 180.0 L 219.0 180.0 L 221.0 180.0 L 222.0 180.0 L 224.0 180.0 L 225.0 179.0 L 227.0 179.0 L 228.0 179.0 L 229.0 179.0 L 229.0 179.0 L 229.0 179.0 L 229.0 179.0 " stroke="black" fill="none" stroke-width="5.0" stroke-linecap="round" stroke-linejoin="round" />
<path d="M 151.0 171.0 L 151.0 171.0 L 151.0 171.0 L 151.0 171.0 L 151.0 172.0 L 151.0 172.0 L 150.0 173.0 L 150.0 174.0 L 150.0 175.0 L 150.0 177.0 L 150.0 180.0 L 150.0 184.0 L 150.0 188.0 L 150.0 194.0 L 150.0 199.0 L 150.0 203.0 L 150.0 208.0 L 150.0 211.0 L 150.0 212.0 L 150.0 213.0 L 150.0 213.0 " stroke="black" fill="none" stroke-width="5.0" stroke-linecap="round" stroke-linejoin="round" />
<path d="M 149.0 178.0 L 149.0 178.0 L 149.0 178.0 L 149.0 178.0 L 149.0 178.0 L 149.0 178.0 L 149.0 178.0 L 149.0 178.0 L 148.0 178.0 L 148.0 179.0 L 147.0 180.0 L 146.0 181.0 L 144.0 183.0 L 141.0 186.0 L 138.0 188.0 L 134.0 191.0 L 128.0 194.0 L 122.0 197.0 L 116.0 199.0 L 110.0 202.0 L 104.0 204.0 L 99.0 206.0 L 94.0 208.0 L 89.0 209.0 L 84.0 210.0 L 79.0 211.0 L 76.0 212.0 L 74.0 212.0 " stroke="black" fill="none" stroke-width="5.0" stroke-linecap="round" stroke-linejoin="round" />
<path d="M 162.0 181.0 L 162.0 181.0 L 162.0 180.0 L 162.0 180.0 L 162.0 180.0 L 162.0 179.0 L 162.0 179.0 L 162.0 179.0 L 162.0 178.0 L 162.0 178.0 L 161.0 178.0 L 161.0 178.0 L 161.0 178.0 L 161.0 178.0 L 161.0 178.0 L 161.0 178.0 L 160.0 178.0 L 160.0 178.0 L 160.0 178.0 L 160.0 178.0 L 160.0 178.0 L 160.0 178.0 L 160.0 178.0 L 160.0 179.0 L 160.0 180.0 L 161.0 181.0 L 163.0 182.0 L 165.0 184.0 L 168.0 186.0 L 171.0 188.0 L 175.0 190.0 L 180.0 193.0 L 184.0 196.0 L 189.0 198.0 L 193.0 201.0 L 196.0 203.0 L 200.0 204.0 L 203.0 206.0 L 207.0 207.0 L 210.0 209.0 L 213.0 210.0 L 216.0 211.0 L 219.0 211.0 L 222.0 211.0 L 224.0 211.0 L 225.0 211.0 L 227.0 210.0 L 228.0 209.0 " stroke="black" fill="none" stroke-width="5.0" stroke-linecap="round" stroke-linejoin="round" />
<path d="M 108.0 214.0 L 108.0 213.0 L 107.0 212.0 L 107.0 212.0 L 107.0 211.0 L 107.0 210.0 L 106.0 209.0 L 106.0 208.0 L 106.0 208.0 L 106.0 207.0 L 106.0 207.0 L 106.0 207.0 L 106.0 207.0 L 106.0 208.0 L 106.0 210.0 L 106.0 214.0 L 106.0 219.0 L 106.0 225.0 L 106.0 230.0 L 106.0 235.0 L 106.0 239.0 L 106.0 242.0 L 106.0 244.0 L 106.0 245.0 " stroke="black" fill="none" stroke-width="5.0" stroke-linecap="round" stroke-linejoin="round" />
<path d="M 109.0 213.0 L 109.0 213.0 L 109.0 213.0 L 109.0 213.0 L 109.0 213.0 L 109.0 213.0 L 109.0 213.0 L 109.0 213.0 L 109.0 213.0 L 109.0 213.0 L 109.0 213.0 L 109.0 213.0 L 109.0 213.0 L 109.0 213.0 L 110.0 213.0 L 111.0 213.0 L 112.0 213.0 L 113.0 213.0 L 114.0 213.0 L 115.0 213.0 L 117.0 213.0 L 118.0 213.0 L 119.0 212.0 L 121.0 212.0 L 122.0 212.0 L 124.0 212.0 L 126.0 212.0 L 127.0 212.0 L 129.0 211.0 L 131.0 211.0 L 133.0 211.0 L 134.0 211.0 L 136.0 211.0 L 137.0 211.0 L 139.0 211.0 L 140.0 211.0 L 142.0 211.0 L 143.0 211.0 L 144.0 211.0 L 145.0 211.0 L 146.0 211.0 L 147.0 210.0 L 148.0 210.0 L 148.0 210.0 L 149.0 210.0 L 150.0 209.0 L 150.0 209.0 L 151.0 209.0 L 151.0 209.0 L 152.0 209.0 L 152.0 209.0 L 153.0 208.0 L 153.0 208.0 L 153.0 208.0 L 154.0 208.0 L 154.0 208.0 L 155.0 208.0 L 155.0 208.0 L 156.0 208.0 L 156.0 208.0 L 157.0 208.0 L 157.0 208.0 L 157.0 208.0 L 158.0 208.0 L 158.0 208.0 L 159.0 208.0 L 160.0 208.0 L 160.0 208.0 L 161.0 208.0 L 161.0 208.0 L 162.0 208.0 L 162.0 208.0 L 163.0 208.0 L 164.0 208.0 L 164.0 208.0 L 165.0 208.0 L 165.0 208.0 L 166.0 208.0 L 167.0 208.0 L 167.0 208.0 L 168.0 208.0 L 169.0 208.0 L 169.0 208.0 L 170.0 208.0 L 171.0 208.0 L 171.0 208.0 L 172.0 209.0 L 173.0 209.0 L 174.0 209.0 L 174.0 209.0 L 175.0 209.0 L 176.0 209.0 L 177.0 209.0 L 177.0 209.0 L 178.0 209.0 L 179.0 209.0 L 179.0 209.0 L 180.0 209.0 L 180.0 209.0 L 181.0 209.0 L 181.0 209.0 L 182.0 209.0 L 182.0 209.0 L 182.0 209.0 L 183.0 209.0 L 183.0 209.0 L 183.0 209.0 L 183.0 209.0 L 184.0 209.0 L 184.0 209.0 L 184.0 209.0 L 185.0 209.0 L 185.0 209.0 L 185.0 210.0 L 186.0 210.0 L 186.0 210.0 L 186.0 210.0 L 187.0 210.0 L 187.0 210.0 L 187.0 210.0 L 188.0 210.0 L 188.0 210.0 L 189.0 210.0 L 189.0 210.0 L 189.0 210.0 L 190.0 210.0 L 190.0 210.0 L 191.0 210.0 L 191.0 210.0 L 192.0 210.0 L 192.0 211.0 L 192.0 211.0 L 193.0 211.0 L 193.0 211.0 L 194.0 211.0 L 194.0 211.0 L 195.0 211.0 L 195.0 211.0 L 195.0 211.0 L 196.0 211.0 L 196.0 211.0 L 197.0 212.0 L 197.0 212.0 L 198.0 212.0 L 198.0 212.0 L 198.0 212.0 L 199.0 213.0 L 199.0 213.0 L 199.0 213.0 L 200.0 214.0 L 200.0 214.0 L 200.0 215.0 L 200.0 216.0 L 200.0 218.0 L 200.0 220.0 L 200.0 222.0 L 200.0 225.0 L 200.0 228.0 L 200.0 231.0 L 200.0 235.0 L 200.0 238.0 L 200.0 241.0 L 200.0 244.0 L 200.0 247.0 L 200.0 249.0 L 200.0 250.0 L 199.0 251.0 L 199.0 251.0 L 199.0 250.0 " stroke="black" fill="none" stroke-width="5.0" stroke-linecap="round" stroke-linejoin="round" />
<path d="M 111.0 230.0 L 111.0 230.0 L 111.0 230.0 L 111.0 230.0 L 111.0 230.0 L 111.0 230.0 L 111.0 230.0 L 111.0 230.0 L 111.0 230.0 L 111.0 230.0 L 112.0 230.0 L 112.0 230.0 L 112.0 230.0 L 112.0 230.0 L 112.0 230.0 L 112.0 230.0 L 112.0 230.0 L 112.0 229.0 L 113.0 229.0 L 113.0 229.0 L 113.0 229.0 L 114.0 229.0 L 114.0 229.0 L 114.0 229.0 L 115.0 229.0 L 115.0 229.0 L 115.0 229.0 L 116.0 229.0 L 117.0 229.0 L 117.0 229.0 L 118.0 229.0 L 119.0 229.0 L 120.0 230.0 L 121.0 230.0 L 122.0 230.0 L 123.0 230.0 L 124.0 230.0 L 125.0 231.0 L 126.0 231.0 L 126.0 231.0 L 127.0 231.0 L 128.0 231.0 L 129.0 231.0 L 130.0 231.0 L 131.0 231.0 L 132.0 231.0 L 133.0 231.0 L 134.0 231.0 L 135.0 231.0 L 136.0 231.0 L 137.0 230.0 L 138.0 230.0 L 138.0 230.0 L 139.0 230.0 L 140.0 230.0 L 141.0 229.0 L 141.0 229.0 L 142.0 229.0 L 142.0 229.0 L 143.0 229.0 L 143.0 229.0 L 143.0 229.0 L 144.0 229.0 L 144.0 229.0 L 145.0 229.0 L 145.0 229.0 L 145.0 229.0 L 146.0 229.0 L 146.0 229.0 L 146.0 229.0 L 147.0 229.0 L 147.0 229.0 L 147.0 229.0 L 147.0 229.0 L 148.0 229.0 L 148.0 229.0 L 148.0 229.0 L 149.0 229.0 L 149.0 229.0 L 149.0 229.0 L 150.0 229.0 L 150.0 229.0 L 150.0 229.0 L 150.0 229.0 L 151.0 229.0 L 151.0 229.0 L 152.0 229.0 L 152.0 229.0 L 152.0 229.0 L 153.0 229.0 L 153.0 229.0 L 153.0 229.0 L 154.0 229.0 L 154.0 229.0 L 154.0 229.0 L 155.0 229.0 L 155.0 229.0 L 155.0 229.0 L 156.0 229.0 L 156.0 229.0 L 157.0 229.0 L 157.0 229.0 L 158.0 229.0 L 158.0 229.0 L 159.0 229.0 L 159.0 229.0 L 160.0 229.0 L 160.0 229.0 L 161.0 229.0 L 162.0 229.0 L 163.0 229.0 L 163.0 229.0 L 164.0 229.0 L 165.0 229.0 L 165.0 229.0 L 166.0 229.0 L 167.0 229.0 L 168.0 229.0 L 168.0 229.0 L 169.0 229.0 L 170.0 229.0 L 170.0 229.0 L 171.0 229.0 L 172.0 229.0 L 172.0 229.0 L 173.0 229.0 L 174.0 229.0 L 174.0 229.0 L 175.0 229.0 L 176.0 229.0 L 176.0 229.0 L 177.0 229.0 L 177.0 229.0 L 178.0 229.0 L 178.0 229.0 L 179.0 229.0 L 179.0 229.0 L 180.0 229.0 L 180.0 229.0 L 181.0 229.0 L 181.0 229.0 L 182.0 229.0 L 182.0 229.0 L 183.0 229.0 L 183.0 229.0 L 184.0 229.0 L 184.0 229.0 L 185.0 229.0 L 185.0 229.0 L 186.0 229.0 L 187.0 229.0 L 187.0 229.0 L 188.0 229.0 L 189.0 229.0 L 189.0 229.0 L 190.0 229.0 L 190.0 229.0 L 191.0 229.0 L 192.0 229.0 L 192.0 229.0 L 193.0 229.0 L 193.0 229.0 L 194.0 229.0 L 194.0 229.0 L 194.0 229.0 L 195.0 229.0 L 195.0 229.0 L 196.0 229.0 " stroke="black" fill="none" stroke-width="5.0" stroke-linecap="round" stroke-linejoin="round" />
<path d="M 112.0 250.0 L 112.0 250.0 L 112.0 250.0 L 112.0 250.0 L 112.0 250.0 L 112.0 250.0 L 111.0 250.0 L 111.0 250.0 L 111.0 250.0 L 111.0 250.0 L 112.0 250.0 L 113.0 250.0 L 116.0 250.0 L 119.0 250.0 L 123.0 250.0 L 129.0 250.0 L 135.0 250.0 L 142.0 249.0 L 148.0 249.0 L 153.0 248.0 L 157.0 248.0 L 162.0 247.0 L 166.0 247.0 L 170.0 247.0 L 174.0 247.0 L 178.0 247.0 L 181.0 247.0 L 184.0 247.0 L 186.0 248.0 L 188.0 248.0 L 190.0 248.0 L 191.0 249.0 L 192.0 249.0 L 193.0 249.0 L 193.0 249.0 L 194.0 249.0 L 194.0 249.0 L 194.0 249.0 L 195.0 249.0 L 195.0 249.0 L 195.0 249.0 L 195.0 249.0 " stroke="black" fill="none" stroke-width="5.0" stroke-linecap="round" stroke-linejoin="round" />
</svg>