<svg xmlns="http://www.w3.org/2000/svg" width="300" height="300" viewBox="0 0 300 300">
<path d="M 69.0 85.0 L 69.0 85.0 L 69.0 84.0 L 69.0 83.0 L 69.0 82.0 L 69.0 81.0 L 69.0 80.0 L 69.0 80.0 L 69.0 79.0 L 69.0 79.0 L 69.0 80.0 L 69.0 82.0 L 69.0 85.0 L 69.0 89.0 L 69.0 96.0 L 69.0 103.0 L 69.0 111.0 L 69.0 120.0 L 69.0 129.0 L 69.0 139.0 L 69.0 149.0 L 69.0 156.0 L 69.0 161.0 L 69.0 164.0 L 69.0 165.0 L 69.0 165.0 L 69.0 164.0 " stroke="black" fill="none" stroke-width="5.0" stroke-linecap="round" stroke-linejoin="round" />
<path d="M 76.0 84.0 L 75.0 84.0 L 73.0 84.0 L 72.0 84.0 L 71.0 84.0 L 71.0 84.0 L 71.0 83.0 L 71.0 83.0 L 72.0 83.0 L 73.0 83.0 L 74.0 83.0 L 77.0 83.0 L 80.0 83.0 L 83.0 84.0 L 88.0 84.0 L 93.0 84.0 L 98.0 84.0 L 104.0 84.0 L 109.0 84.0 L 115.0 84.0 L 117.0 83.0 " stroke="black" fill="none" stroke-width="5.0" stroke-linecap="round" stroke-linejoin="round" />
<path d="M 87.0 121.0 L 83.0 121.0 L 80.0 121.0 L 78.0 121.0 L 76.0 121.0 L 76.0 121.0 L 76.0 121.0 L 76.0 120.0 L 77.0 120.0 L 79.0 120.0 L 81.0 119.0 L 85.0 119.0 L 89.0 119.0 L 94.0 119.0 L 100.0 119.0 L 104.0 119.0 L 109.0 119.0 L 114.0 118.0 L 119.0 117.0 L 124.0 116.0 " stroke="black" fill="none" stroke-width="5.0" stroke-linecap="round" stroke-linejoin="round" />
<path d="M 88.0 148.0 L 84.0 148.0 L 80.0 148.0 L 77.0 148.0 L 75.0 148.0 L 74.0 148.0 L 74.0 148.0 L 74.0 148.0 L 76.0 148.0 L 81.0 148.0 L 87.0 147.0 L 94.0 146.0 L 101.0 143.0 L 108.0 141.0 L 114.0 139.0 L 119.0 137.0 L 124.0 135.0 L 127.0 133.0 " stroke="black" fill="none" stroke-width="5.0" stroke-linecap="round" stroke-linejoin="round" />
<path d="M 109.0 93.0 L 108.0 93.0 L 107.0 93.0 L 106.0 93.0 L 105.0 95.0 L 105.0 97.0 L 104.0 101.0 L 104.0 105.0 L 104.0 111.0 L 104.0 118.0 L 104.0 125.0 L 104.0 132.0 L 105.0 140.0 L 105.0 148.0 L 105.0 154.0 L 104.0 159.0 L 104.0 162.0 L 103.0 164.0 L 102.0 165.0 L 100.0 166.0 L 98.0 167.0 L 96.0 169.0 L 93.0 170.0 L 90.0 170.0 L 88.0 171.0 L 85.0 172.0 L 83.0 173.0 L 81.0 173.0 L 80.0 173.0 L 79.0 173.0 L 79.0 173.0 L 79.0 173.0 L 79.0 172.0 L 79.0 172.0 L 79.0 171.0 L 80.0 171.0 L 81.0 171.0 L 82.0 170.0 L 83.0 170.0 L 85.0 170.0 L 87.0 169.0 L 90.0 169.0 L 93.0 168.0 L 95.0 168.0 L 98.0 168.0 L 101.0 168.0 L 105.0 167.0 L 108.0 167.0 L 111.0 167.0 L 115.0 167.0 L 118.0 167.0 L 121.0 167.0 L 124.0 167.0 L 126.0 167.0 L 129.0 167.0 L 131.0 168.0 L 132.0 168.0 L 133.0 169.0 L 133.0 169.0 L 133.0 170.0 L 133.0 170.0 L 133.0 171.0 L 133.0 172.0 L 133.0 173.0 L 132.0 174.0 L 132.0 176.0 L 131.0 178.0 L 130.0 180.0 L 130.0 183.0 L 129.0 187.0 L 129.0 191.0 L 128.0 195.0 L 128.0 199.0 L 128.0 204.0 L 127.0 209.0 L 127.0 214.0 L 126.0 220.0 L 126.0 225.0 L 125.0 231.0 L 125.0 236.0 L 124.0 240.0 L 123.0 243.0 L 122.0 245.0 L 121.0 247.0 L 119.0 247.0 L 118.0 247.0 L 117.0 247.0 L 115.0 247.0 L 113.0 246.0 L 111.0 245.0 L 108.0 243.0 L 106.0 241.0 L 103.0 239.0 L 99.0 235.0 " stroke="black" fill="none" stroke-width="5.0" stroke-linecap="round" stroke-linejoin="round" />
<path d="M 65.0 192.0 L 65.0 192.0 L 64.0 192.0 L 64.0 192.0 L 63.0 192.0 L 63.0 193.0 L 63.0 194.0 L 63.0 196.0 L 63.0 201.0 L 63.0 205.0 L 64.0 210.0 L 64.0 215.0 L 64.0 220.0 L 64.0 224.0 L 64.0 227.0 L 64.0 229.0 L 64.0 229.0 L 64.0 229.0 " stroke="black" fill="none" stroke-width="5.0" stroke-linecap="round" stroke-linejoin="round" />
<path d="M 78.0 194.0 L 78.0 193.0 L 78.0 193.0 L 78.0 192.0 L 77.0 192.0 L 77.0 192.0 L 77.0 193.0 L 78.0 194.0 L 78.0 197.0 L 79.0 200.0 L 80.0 204.0 L 80.0 208.0 L 81.0 213.0 L 81.0 217.0 L 82.0 220.0 L 82.0 223.0 L 83.0 224.0 L 83.0 225.0 L 84.0 223.0 L 85.0 221.0 L 86.0 219.0 " stroke="black" fill="none" stroke-width="5.0" stroke-linecap="round" stroke-linejoin="round" />
<path d="M 94.0 186.0 L 94.0 186.0 L 94.0 186.0 L 93.0 187.0 L 93.0 189.0 L 93.0 191.0 L 93.0 193.0 L 93.0 197.0 L 94.0 202.0 L 95.0 207.0 L 95.0 212.0 L 96.0 218.0 L 96.0 223.0 L 97.0 226.0 L 98.0 228.0 L 98.0 228.0 L 99.0 226.0 L 99.0 225.0 " stroke="black" fill="none" stroke-width="5.0" stroke-linecap="round" stroke-linejoin="round" />
<path d="M 108.0 181.0 L 108.0 181.0 L 108.0 181.0 L 108.0 181.0 L 108.0 181.0 L 108.0 182.0 L 109.0 183.0 L 110.0 186.0 L 111.0 189.0 L 113.0 193.0 L 115.0 198.0 L 116.0 203.0 L 117.0 208.0 L 118.0 213.0 L 118.0 218.0 L 119.0 220.0 L 119.0 222.0 L 119.0 222.0 " stroke="black" fill="none" stroke-width="5.0" stroke-linecap="round" stroke-linejoin="round" />
<path d="M 157.0 80.0 L 157.0 80.0 L 157.0 80.0 L 156.0 79.0 L 156.0 79.0 L 156.0 79.0 L 156.0 79.0 L 156.0 82.0 L 156.0 85.0 L 156.0 89.0 L 157.0 95.0 L 157.0 102.0 L 157.0 109.0 L 156.0 117.0 L 156.0 123.0 L 156.0 128.0 L 155.0 132.0 L 155.0 133.0 L 156.0 133.0 L 156.0 133.0 " stroke="black" fill="none" stroke-width="5.0" stroke-linecap="round" stroke-linejoin="round" />
<path d="M 155.0 82.0 L 155.0 82.0 L 154.0 82.0 L 153.0 82.0 L 152.0 82.0 L 152.0 82.0 L 151.0 82.0 L 151.0 82.0 L 151.0 81.0 L 151.0 81.0 L 151.0 80.0 L 151.0 80.0 L 152.0 79.0 L 154.0 79.0 L 156.0 78.0 L 158.0 78.0 L 162.0 78.0 L 166.0 77.0 L 170.0 77.0 L 176.0 76.0 L 182.0 76.0 L 188.0 76.0 L 194.0 76.0 L 198.0 76.0 L 202.0 76.0 L 205.0 76.0 L 208.0 76.0 L 211.0 76.0 L 214.0 77.0 L 216.0 77.0 L 219.0 77.0 L 221.0 77.0 L 222.0 77.0 L 223.0 77.0 L 224.0 78.0 L 224.0 78.0 L 224.0 79.0 L 224.0 80.0 L 224.0 81.0 L 224.0 83.0 L 225.0 85.0 L 225.0 88.0 L 225.0 92.0 L 225.0 97.0 L 225.0 103.0 L 225.0 110.0 L 224.0 117.0 L 224.0 124.0 L 223.0 130.0 L 223.0 134.0 L 223.0 136.0 L 223.0 137.0 L 224.0 137.0 L 224.0 136.0 L 224.0 134.0 L 222.0 132.0 L 220.0 129.0 L 217.0 127.0 " stroke="black" fill="none" stroke-width="5.0" stroke-linecap="round" stroke-linejoin="round" />
<path d="M 173.0 112.0 L 169.0 112.0 L 164.0 111.0 L 161.0 111.0 L 159.0 111.0 L 158.0 111.0 L 158.0 111.0 L 158.0 110.0 L 160.0 110.0 L 162.0 110.0 L 166.0 109.0 L 171.0 109.0 L 176.0 108.0 L 182.0 108.0 L 188.0 107.0 L 194.0 106.0 L 199.0 105.0 L 204.0 104.0 L 208.0 103.0 L 211.0 102.0 L 213.0 101.0 " stroke="black" fill="none" stroke-width="5.0" stroke-linecap="round" stroke-linejoin="round" />
<path d="M 194.0 85.0 L 193.0 84.0 L 191.0 82.0 L 190.0 82.0 L 189.0 82.0 L 189.0 82.0 L 189.0 83.0 L 188.0 86.0 L 188.0 91.0 L 188.0 97.0 L 188.0 104.0 L 188.0 111.0 L 188.0 117.0 L 188.0 122.0 L 188.0 127.0 L 188.0 131.0 L 187.0 133.0 L 185.0 134.0 L 184.0 135.0 L 181.0 135.0 L 178.0 135.0 L 175.0 135.0 L 172.0 135.0 L 168.0 135.0 L 164.0 135.0 L 160.0 135.0 L 157.0 135.0 L 155.0 135.0 L 154.0 136.0 L 153.0 136.0 L 153.0 136.0 L 154.0 136.0 L 155.0 136.0 L 158.0 136.0 L 161.0 136.0 L 166.0 135.0 L 171.0 135.0 L 177.0 135.0 L 184.0 134.0 L 190.0 133.0 L 196.0 132.0 L 202.0 131.0 L 208.0 130.0 L 213.0 129.0 " stroke="black" fill="none" stroke-width="5.0" stroke-linecap="round" stroke-linejoin="round" />
<path d="M 191.0 142.0 L 191.0 142.0 L 190.0 141.0 L 190.0 140.0 L 189.0 139.0 L 189.0 138.0 L 188.0 138.0 L 188.0 137.0 L 187.0 137.0 L 187.0 138.0 L 186.0 140.0 L 184.0 143.0 L 182.0 147.0 L 180.0 151.0 L 177.0 155.0 L 174.0 159.0 L 171.0 162.0 L 167.0 165.0 L 163.0 167.0 L 160.0 169.0 L 157.0 170.0 L 155.0 170.0 L 153.0 171.0 L 153.0 171.0 L 153.0 171.0 L 153.0 171.0 L 153.0 171.0 L 153.0 171.0 L 154.0 171.0 L 155.0 171.0 L 157.0 171.0 L 159.0 171.0 L 162.0 171.0 L 167.0 170.0 L 172.0 170.0 L 177.0 169.0 L 182.0 167.0 L 188.0 166.0 L 192.0 165.0 L 195.0 164.0 L 198.0 162.0 " stroke="black" fill="none" stroke-width="5.0" stroke-linecap="round" stroke-linejoin="round" />
<path d="M 212.0 153.0 L 212.0 153.0 L 211.0 153.0 L 210.0 153.0 L 209.0 153.0 L 208.0 153.0 L 207.0 153.0 L 206.0 153.0 L 205.0 153.0 L 203.0 154.0 L 201.0 156.0 L 199.0 158.0 L 196.0 161.0 L 193.0 164.0 L 190.0 169.0 L 186.0 173.0 L 182.0 178.0 L 178.0 184.0 L 174.0 188.0 L 170.0 191.0 L 166.0 194.0 L 164.0 196.0 L 161.0 197.0 L 159.0 199.0 L 158.0 200.0 L 156.0 201.0 L 155.0 202.0 L 155.0 203.0 L 155.0 204.0 L 155.0 204.0 L 156.0 205.0 L 158.0 205.0 L 161.0 205.0 L 164.0 204.0 L 168.0 204.0 L 173.0 203.0 L 178.0 201.0 L 184.0 200.0 L 189.0 198.0 L 194.0 196.0 L 199.0 195.0 L 204.0 193.0 L 208.0 191.0 L 212.0 189.0 L 217.0 188.0 L 220.0 187.0 L 223.0 185.0 L 225.0 184.0 L 225.0 183.0 L 225.0 182.0 L 226.0 181.0 L 226.0 180.0 L 226.0 179.0 L 226.0 177.0 L 226.0 176.0 L 226.0 175.0 L 225.0 174.0 L 225.0 174.0 L 225.0 174.0 L 224.0 173.0 L 224.0 173.0 L 224.0 173.0 L 223.0 173.0 L 223.0 173.0 L 223.0 174.0 L 223.0 175.0 L 223.0 176.0 L 223.0 178.0 L 224.0 180.0 L 225.0 183.0 L 227.0 186.0 L 228.0 189.0 L 230.0 193.0 L 232.0 196.0 L 234.0 199.0 L 235.0 202.0 L 237.0 204.0 L 238.0 205.0 " stroke="black" fill="none" stroke-width="5.0" stroke-linecap="round" stroke-linejoin="round" />
<path d="M 200.0 202.0 L 200.0 201.0 L 200.0 199.0 L 200.0 198.0 L 200.0 197.0 L 200.0 196.0 L 200.0 196.0 L 200.0 196.0 L 200.0 197.0 L 200.0 199.0 L 200.0 201.0 L 200.0 205.0 L 200.0 209.0 L 201.0 214.0 L 201.0 219.0 L 202.0 225.0 L 202.0 232.0 L 202.0 239.0 L 202.0 245.0 L 201.0 251.0 L 200.0 256.0 L 198.0 259.0 L 197.0 261.0 L 195.0 261.0 L 193.0 261.0 L 192.0 261.0 L 190.0 259.0 L 188.0 257.0 L 187.0 254.0 L 184.0 251.0 L 182.0 248.0 L 180.0 245.0 L 177.0 242.0 L 174.0 240.0 L 171.0 239.0 " stroke="black" fill="none" stroke-width="5.0" stroke-linecap="round" stroke-linejoin="round" />
<path d="M 173.0 221.0 L 173.0 221.0 L 172.0 221.0 L 171.0 220.0 L 170.0 220.0 L 170.0 220.0 L 170.0 220.0 L 169.0 221.0 L 169.0 223.0 L 168.0 225.0 L 166.0 229.0 L 164.0 232.0 L 161.0 237.0 L 157.0 242.0 L 153.0 247.0 L 149.0 253.0 L 145.0 258.0 L 143.0 261.0 L 142.0 262.0 " stroke="black" fill="none" stroke-width="5.0" stroke-linecap="round" stroke-linejoin="round" />
<path d="M 221.0 218.0 L 221.0 218.0 L 220.0 218.0 L 219.0 218.0 L 219.0 218.0 L 219.0 218.0 L 219.0 219.0 L 220.0 220.0 L 223.0 222.0 L 225.0 225.0 L 229.0 229.0 L 232.0 232.0 L 235.0 237.0 L 238.0 240.0 L 241.0 244.0 L 244.0 248.0 L 246.0 250.0 L 249.0 251.0 L 251.0 252.0 " stroke="black" fill="none" stroke-width="5.0" stroke-linecap="round" stroke-linejoin="round" />
</svg>