<svg xmlns="http://www.w3.org/2000/svg" width="300" height="300" viewBox="0 0 300 300">
<path d="M 84.0 62.0 L 84.0 62.0 L 84.0 62.0 L 84.0 62.0 L 84.0 62.0 L 85.0 62.0 L 85.0 62.0 L 85.0 62.0 L 85.0 62.0 L 85.0 62.0 L 85.0 62.0 L 85.0 63.0 L 86.0 65.0 L 86.0 70.0 L 86.0 75.0 L 86.0 81.0 L 85.0 88.0 L 84.0 94.0 L 83.0 100.0 L 83.0 104.0 L 83.0 106.0 " stroke="black" fill="none" stroke-width="5.0" stroke-linecap="round" stroke-linejoin="round" />
<path d="M 90.0 64.0 L 90.0 64.0 L 89.0 64.0 L 88.0 64.0 L 87.0 64.0 L 87.0 64.0 L 86.0 64.0 L 86.0 64.0 L 86.0 64.0 L 87.0 64.0 L 88.0 64.0 L 90.0 63.0 L 92.0 63.0 L 95.0 62.0 L 98.0 62.0 L 101.0 62.0 L 104.0 62.0 L 106.0 62.0 L 110.0 62.0 L 113.0 62.0 L 116.0 62.0 L 120.0 62.0 L 124.0 62.0 L 128.0 62.0 L 133.0 62.0 L 137.0 61.0 L 141.0 61.0 L 144.0 61.0 L 146.0 61.0 L 148.0 61.0 L 149.0 61.0 L 150.0 61.0 L 151.0 61.0 L 152.0 61.0 L 152.0 61.0 " stroke="black" fill="none" stroke-width="5.0" stroke-linecap="round" stroke-linejoin="round" />
<path d="M 96.0 80.0 L 96.0 80.0 L 95.0 81.0 L 94.0 81.0 L 93.0 81.0 L 92.0 81.0 L 92.0 81.0 L 92.0 81.0 L 92.0 81.0 L 92.0 81.0 L 93.0 81.0 L 95.0 81.0 L 97.0 81.0 L 101.0 80.0 L 104.0 80.0 L 108.0 80.0 L 111.0 80.0 L 115.0 79.0 L 119.0 79.0 L 123.0 79.0 L 128.0 79.0 L 132.0 78.0 L 136.0 78.0 L 138.0 78.0 " stroke="black" fill="none" stroke-width="5.0" stroke-linecap="round" stroke-linejoin="round" />
<path d="M 99.0 93.0 L 98.0 93.0 L 96.0 93.0 L 95.0 93.0 L 93.0 93.0 L 92.0 93.0 L 91.0 93.0 L 90.0 93.0 L 90.0 93.0 L 90.0 93.0 L 90.0 93.0 L 92.0 93.0 L 94.0 93.0 L 97.0 93.0 L 100.0 93.0 L 104.0 93.0 L 109.0 93.0 L 113.0 92.0 L 117.0 92.0 L 122.0 91.0 L 127.0 90.0 L 131.0 90.0 L 133.0 90.0 " stroke="black" fill="none" stroke-width="5.0" stroke-linecap="round" stroke-linejoin="round" />
<path d="M 64.0 116.0 L 64.0 116.0 L 63.0 116.0 L 62.0 116.0 L 62.0 116.0 L 61.0 116.0 L 60.0 116.0 L 60.0 116.0 L 60.0 116.0 L 60.0 116.0 L 61.0 116.0 L 62.0 116.0 L 64.0 116.0 L 66.0 116.0 L 69.0 115.0 L 74.0 114.0 L 80.0 113.0 L 88.0 112.0 L 97.0 111.0 L 105.0 109.0 L 112.0 108.0 L 117.0 107.0 L 121.0 107.0 L 127.0 107.0 L 132.0 107.0 L 138.0 107.0 L 143.0 107.0 L 146.0 107.0 L 149.0 107.0 L 150.0 106.0 L 151.0 106.0 L 151.0 106.0 L 151.0 106.0 L 151.0 106.0 " stroke="black" fill="none" stroke-width="5.0" stroke-linecap="round" stroke-linejoin="round" />
<path d="M 104.0 113.0 L 103.0 113.0 L 103.0 112.0 L 102.0 111.0 L 101.0 111.0 L 101.0 111.0 L 100.0 111.0 L 99.0 111.0 L 98.0 111.0 L 97.0 112.0 L 95.0 114.0 L 94.0 116.0 L 92.0 118.0 L 90.0 120.0 L 87.0 122.0 L 85.0 125.0 L 83.0 127.0 L 80.0 129.0 L 78.0 131.0 L 76.0 132.0 L 75.0 133.0 L 74.0 134.0 L 73.0 134.0 L 73.0 135.0 L 73.0 135.0 L 73.0 135.0 L 73.0 135.0 L 74.0 135.0 L 75.0 135.0 L 76.0 135.0 L 78.0 135.0 L 79.0 135.0 L 82.0 135.0 L 85.0 135.0 L 89.0 135.0 L 93.0 135.0 L 99.0 134.0 L 104.0 133.0 L 110.0 132.0 L 115.0 132.0 L 120.0 131.0 L 125.0 130.0 L 130.0 130.0 L 135.0 129.0 L 140.0 128.0 L 143.0 128.0 L 145.0 128.0 L 147.0 127.0 L 148.0 127.0 L 148.0 127.0 L 148.0 126.0 L 148.0 126.0 L 148.0 126.0 L 148.0 126.0 L 148.0 126.0 L 147.0 126.0 L 147.0 125.0 L 147.0 125.0 L 147.0 124.0 L 147.0 123.0 L 147.0 123.0 L 147.0 122.0 L 146.0 122.0 L 146.0 121.0 L 146.0 121.0 L 145.0 121.0 L 145.0 120.0 L 145.0 120.0 L 144.0 120.0 L 144.0 119.0 L 143.0 119.0 L 143.0 119.0 L 143.0 118.0 L 142.0 118.0 L 142.0 118.0 L 142.0 118.0 L 142.0 118.0 L 142.0 119.0 L 142.0 120.0 L 142.0 121.0 L 142.0 123.0 L 143.0 125.0 L 144.0 128.0 L 146.0 131.0 L 148.0 133.0 L 149.0 136.0 L 151.0 138.0 L 152.0 140.0 L 153.0 141.0 L 153.0 141.0 " stroke="black" fill="none" stroke-width="5.0" stroke-linecap="round" stroke-linejoin="round" />
<path d="M 223.0 57.0 L 223.0 57.0 L 223.0 57.0 L 223.0 57.0 L 223.0 57.0 L 223.0 57.0 L 223.0 57.0 L 223.0 57.0 L 222.0 57.0 L 220.0 57.0 L 218.0 58.0 L 214.0 59.0 L 210.0 62.0 L 205.0 64.0 L 200.0 67.0 L 195.0 70.0 L 189.0 73.0 L 182.0 76.0 L 175.0 78.0 L 168.0 81.0 L 163.0 83.0 L 160.0 85.0 " stroke="black" fill="none" stroke-width="5.0" stroke-linecap="round" stroke-linejoin="round" />
<path d="M 230.0 84.0 L 230.0 84.0 L 230.0 84.0 L 230.0 84.0 L 230.0 84.0 L 230.0 84.0 L 230.0 84.0 L 229.0 84.0 L 229.0 84.0 L 228.0 84.0 L 227.0 84.0 L 225.0 84.0 L 222.0 84.0 L 216.0 87.0 L 210.0 90.0 L 203.0 94.0 L 196.0 99.0 L 188.0 103.0 L 181.0 107.0 L 174.0 110.0 L 167.0 112.0 L 162.0 112.0 L 159.0 112.0 " stroke="black" fill="none" stroke-width="5.0" stroke-linecap="round" stroke-linejoin="round" />
<path d="M 239.0 111.0 L 239.0 111.0 L 239.0 111.0 L 239.0 111.0 L 239.0 110.0 L 239.0 110.0 L 239.0 110.0 L 239.0 110.0 L 237.0 110.0 L 234.0 111.0 L 230.0 113.0 L 224.0 115.0 L 217.0 118.0 L 209.0 122.0 L 201.0 125.0 L 194.0 130.0 L 187.0 133.0 L 181.0 135.0 L 175.0 137.0 " stroke="black" fill="none" stroke-width="5.0" stroke-linecap="round" stroke-linejoin="round" />
<path d="M 73.0 162.0 L 73.0 162.0 L 73.0 162.0 L 73.0 162.0 L 73.0 162.0 L 73.0 162.0 L 73.0 162.0 L 73.0 162.0 L 73.0 161.0 L 73.0 161.0 L 74.0 161.0 L 75.0 161.0 L 76.0 161.0 L 77.0 161.0 L 79.0 161.0 L 82.0 161.0 L 85.0 160.0 L 89.0 160.0 L 94.0 160.0 L 99.0 159.0 L 104.0 159.0 L 108.0 158.0 L 112.0 157.0 L 116.0 156.0 L 119.0 155.0 L 122.0 155.0 L 126.0 154.0 L 130.0 154.0 L 134.0 154.0 L 137.0 154.0 L 141.0 154.0 L 145.0 154.0 L 148.0 154.0 L 151.0 154.0 L 154.0 154.0 L 157.0 154.0 L 159.0 154.0 L 162.0 154.0 L 165.0 154.0 L 168.0 154.0 L 172.0 154.0 L 176.0 154.0 L 180.0 155.0 L 185.0 155.0 L 189.0 155.0 L 193.0 155.0 L 196.0 155.0 L 199.0 155.0 L 201.0 155.0 L 203.0 154.0 L 205.0 154.0 L 208.0 154.0 L 211.0 154.0 L 214.0 153.0 L 217.0 153.0 L 221.0 153.0 L 224.0 153.0 L 228.0 153.0 L 231.0 153.0 L 234.0 152.0 L 236.0 152.0 L 238.0 152.0 L 240.0 152.0 L 241.0 152.0 L 243.0 151.0 L 244.0 151.0 L 244.0 151.0 L 245.0 151.0 L 245.0 151.0 L 245.0 151.0 L 245.0 151.0 L 244.0 151.0 L 244.0 151.0 " stroke="black" fill="none" stroke-width="5.0" stroke-linecap="round" stroke-linejoin="round" />
<path d="M 130.0 143.0 L 130.0 143.0 L 131.0 143.0 L 132.0 143.0 L 133.0 143.0 L 133.0 143.0 L 134.0 143.0 L 134.0 143.0 L 134.0 143.0 L 134.0 145.0 L 134.0 146.0 L 133.0 148.0 L 131.0 151.0 L 129.0 154.0 L 127.0 157.0 L 125.0 161.0 L 123.0 164.0 L 120.0 168.0 L 118.0 173.0 L 114.0 178.0 L 112.0 184.0 L 110.0 187.0 L 105.0 197.0 L 101.0 202.0 L 96.0 206.0 L 91.0 211.0 L 86.0 215.0 L 81.0 219.0 L 76.0 224.0 L 73.0 227.0 L 70.0 231.0 L 68.0 234.0 L 67.0 236.0 L 65.0 237.0 L 64.0 238.0 " stroke="black" fill="none" stroke-width="5.0" stroke-linecap="round" stroke-linejoin="round" />
<path d="M 126.0 188.0 L 125.0 188.0 L 124.0 188.0 L 123.0 188.0 L 122.0 188.0 L 121.0 188.0 L 120.0 188.0 L 120.0 188.0 L 120.0 188.0 L 120.0 188.0 L 120.0 188.0 L 120.0 187.0 L 120.0 187.0 L 121.0 187.0 L 121.0 187.0 L 123.0 187.0 L 124.0 187.0 L 126.0 187.0 L 128.0 187.0 L 130.0 187.0 L 133.0 187.0 L 136.0 187.0 L 140.0 187.0 L 144.0 187.0 L 148.0 187.0 L 152.0 187.0 L 155.0 187.0 L 158.0 187.0 L 161.0 187.0 L 163.0 187.0 L 166.0 187.0 L 169.0 187.0 L 172.0 187.0 L 175.0 187.0 L 178.0 187.0 L 181.0 186.0 L 184.0 186.0 L 187.0 186.0 L 189.0 186.0 L 191.0 186.0 L 194.0 186.0 L 196.0 186.0 L 198.0 186.0 L 199.0 186.0 L 201.0 186.0 L 202.0 186.0 L 204.0 185.0 L 206.0 185.0 L 207.0 185.0 L 209.0 185.0 L 211.0 185.0 L 213.0 185.0 L 216.0 185.0 L 218.0 185.0 L 220.0 185.0 L 222.0 185.0 L 224.0 185.0 L 226.0 185.0 L 228.0 185.0 L 229.0 185.0 L 230.0 185.0 L 231.0 185.0 L 231.0 185.0 L 232.0 185.0 L 232.0 185.0 L 231.0 185.0 L 230.0 185.0 L 227.0 186.0 L 224.0 188.0 L 221.0 189.0 L 217.0 191.0 L 214.0 192.0 L 211.0 194.0 L 207.0 196.0 L 204.0 199.0 L 201.0 201.0 L 198.0 204.0 L 195.0 207.0 L 192.0 209.0 L 189.0 211.0 L 185.0 213.0 L 181.0 215.0 L 176.0 217.0 L 172.0 219.0 L 167.0 222.0 L 162.0 225.0 L 159.0 228.0 L 155.0 230.0 L 153.0 233.0 L 150.0 235.0 L 147.0 236.0 L 143.0 238.0 L 138.0 239.0 L 133.0 240.0 L 126.0 241.0 L 121.0 242.0 L 117.0 242.0 L 114.0 243.0 L 111.0 243.0 L 110.0 242.0 L 108.0 241.0 L 108.0 238.0 L 108.0 237.0 " stroke="black" fill="none" stroke-width="5.0" stroke-linecap="round" stroke-linejoin="round" />
<path d="M 128.0 191.0 L 128.0 191.0 L 127.0 191.0 L 126.0 190.0 L 126.0 190.0 L 125.0 190.0 L 125.0 190.0 L 125.0 190.0 L 125.0 190.0 L 126.0 190.0 L 127.0 190.0 L 129.0 191.0 L 131.0 192.0 L 134.0 194.0 L 137.0 196.0 L 141.0 200.0 L 146.0 204.0 L 151.0 209.0 L 158.0 214.0 L 166.0 220.0 L 176.0 226.0 L 187.0 231.0 L 196.0 234.0 L 202.0 235.0 L 209.0 236.0 L 216.0 237.0 L 225.0 237.0 L 234.0 238.0 L 240.0 239.0 L 244.0 240.0 L 247.0 241.0 L 249.0 242.0 L 251.0 243.0 L 254.0 243.0 L 255.0 243.0 L 255.0 242.0 L 255.0 240.0 L 253.0 237.0 " stroke="black" fill="none" stroke-width="5.0" stroke-linecap="round" stroke-linejoin="round" />
</svg>