<svg xmlns="http://www.w3.org/2000/svg" width="300" height="300" viewBox="0 0 300 300">
<path d="M 66.0 93.0 L 66.0 93.0 L 66.0 92.0 L 66.0 92.0 L 66.0 92.0 L 66.0 92.0 L 66.0 92.0 L 66.0 92.0 L 66.0 94.0 L 66.0 95.0 L 66.0 98.0 L 66.0 100.0 L 66.0 102.0 L 66.0 104.0 L 66.0 106.0 L 66.0 107.0 L 66.0 109.0 L 66.0 110.0 " stroke="black" fill="none" stroke-width="5.0" stroke-linecap="round" stroke-linejoin="round" />
<path d="M 69.0 93.0 L 69.0 93.0 L 69.0 93.0 L 68.0 93.0 L 68.0 94.0 L 67.0 94.0 L 67.0 94.0 L 67.0 95.0 L 67.0 95.0 L 67.0 95.0 L 67.0 95.0 L 68.0 95.0 L 69.0 95.0 L 69.0 95.0 L 70.0 95.0 L 71.0 95.0 L 72.0 95.0 L 73.0 95.0 L 73.0 95.0 L 74.0 95.0 L 75.0 95.0 L 76.0 95.0 L 78.0 95.0 L 79.0 95.0 L 80.0 95.0 L 82.0 95.0 L 83.0 95.0 L 85.0 95.0 L 86.0 95.0 L 88.0 95.0 L 90.0 95.0 L 91.0 95.0 L 93.0 95.0 L 95.0 95.0 L 97.0 95.0 L 98.0 95.0 L 100.0 95.0 L 101.0 95.0 L 103.0 95.0 L 104.0 95.0 L 105.0 95.0 L 106.0 95.0 L 107.0 95.0 L 109.0 95.0 L 110.0 95.0 L 111.0 95.0 L 113.0 95.0 L 114.0 95.0 L 116.0 95.0 L 117.0 95.0 L 119.0 95.0 L 120.0 95.0 L 122.0 96.0 L 123.0 96.0 L 125.0 97.0 L 127.0 97.0 L 128.0 97.0 L 130.0 98.0 L 131.0 98.0 L 133.0 98.0 L 134.0 98.0 L 135.0 98.0 L 137.0 98.0 L 138.0 99.0 L 139.0 99.0 L 140.0 99.0 L 141.0 99.0 L 141.0 99.0 L 142.0 99.0 L 142.0 99.0 L 143.0 99.0 L 143.0 99.0 L 143.0 99.0 L 143.0 99.0 L 143.0 99.0 L 143.0 100.0 L 143.0 100.0 L 143.0 101.0 L 143.0 101.0 L 143.0 102.0 L 143.0 103.0 L 142.0 104.0 L 141.0 105.0 L 140.0 107.0 L 139.0 109.0 L 138.0 111.0 L 136.0 113.0 L 135.0 115.0 L 135.0 117.0 L 134.0 118.0 " stroke="black" fill="none" stroke-width="5.0" stroke-linecap="round" stroke-linejoin="round" />
<path d="M 105.0 70.0 L 105.0 70.0 L 105.0 70.0 L 105.0 70.0 L 105.0 70.0 L 105.0 70.0 L 105.0 70.0 L 105.0 70.0 L 105.0 70.0 L 105.0 70.0 L 105.0 71.0 L 105.0 73.0 L 104.0 74.0 L 104.0 76.0 L 104.0 79.0 L 103.0 83.0 L 102.0 87.0 L 101.0 92.0 L 99.0 97.0 L 97.0 103.0 L 95.0 108.0 L 93.0 113.0 L 90.0 117.0 L 88.0 121.0 L 85.0 125.0 L 82.0 129.0 L 78.0 134.0 L 75.0 139.0 L 71.0 144.0 L 68.0 149.0 L 65.0 153.0 L 62.0 157.0 L 60.0 160.0 L 58.0 162.0 L 57.0 164.0 L 55.0 166.0 L 55.0 167.0 " stroke="black" fill="none" stroke-width="5.0" stroke-linecap="round" stroke-linejoin="round" />
<path d="M 78.0 142.0 L 78.0 141.0 L 78.0 140.0 L 78.0 139.0 L 78.0 138.0 L 78.0 137.0 L 78.0 137.0 L 78.0 137.0 L 78.0 137.0 L 78.0 137.0 L 78.0 139.0 L 78.0 142.0 L 78.0 145.0 L 78.0 150.0 L 78.0 154.0 L 77.0 160.0 L 77.0 167.0 L 77.0 175.0 L 77.0 185.0 L 77.0 196.0 L 77.0 206.0 L 76.0 215.0 L 76.0 225.0 L 75.0 233.0 L 74.0 239.0 L 73.0 243.0 L 73.0 245.0 L 72.0 245.0 " stroke="black" fill="none" stroke-width="5.0" stroke-linecap="round" stroke-linejoin="round" />
<path d="M 107.0 122.0 L 107.0 122.0 L 107.0 122.0 L 106.0 122.0 L 106.0 122.0 L 106.0 122.0 L 106.0 122.0 L 106.0 122.0 L 106.0 123.0 L 106.0 125.0 L 106.0 127.0 L 107.0 129.0 L 108.0 132.0 L 109.0 134.0 L 110.0 137.0 L 112.0 140.0 L 114.0 142.0 L 115.0 144.0 L 116.0 144.0 " stroke="black" fill="none" stroke-width="5.0" stroke-linecap="round" stroke-linejoin="round" />
<path d="M 88.0 149.0 L 86.0 149.0 L 84.0 149.0 L 83.0 149.0 L 82.0 149.0 L 81.0 149.0 L 81.0 149.0 L 81.0 149.0 L 82.0 149.0 L 83.0 149.0 L 85.0 149.0 L 88.0 149.0 L 91.0 149.0 L 94.0 149.0 L 98.0 150.0 L 101.0 150.0 L 105.0 150.0 L 109.0 151.0 L 113.0 151.0 L 118.0 151.0 L 122.0 151.0 L 127.0 151.0 L 131.0 151.0 L 134.0 151.0 " stroke="black" fill="none" stroke-width="5.0" stroke-linecap="round" stroke-linejoin="round" />
<path d="M 92.0 169.0 L 92.0 169.0 L 90.0 169.0 L 88.0 169.0 L 87.0 169.0 L 86.0 169.0 L 85.0 169.0 L 84.0 169.0 L 83.0 169.0 L 83.0 169.0 L 83.0 169.0 L 84.0 169.0 L 86.0 170.0 L 89.0 170.0 L 93.0 170.0 L 98.0 170.0 L 102.0 170.0 L 106.0 170.0 L 111.0 170.0 L 115.0 170.0 L 119.0 169.0 L 124.0 169.0 L 128.0 169.0 " stroke="black" fill="none" stroke-width="5.0" stroke-linecap="round" stroke-linejoin="round" />
<path d="M 93.0 194.0 L 92.0 194.0 L 89.0 194.0 L 87.0 195.0 L 85.0 195.0 L 83.0 196.0 L 83.0 196.0 L 82.0 197.0 L 82.0 197.0 L 83.0 198.0 L 85.0 198.0 L 87.0 198.0 L 91.0 199.0 L 95.0 199.0 L 99.0 199.0 L 104.0 200.0 L 109.0 200.0 L 114.0 200.0 L 119.0 200.0 L 125.0 199.0 L 130.0 199.0 L 135.0 198.0 " stroke="black" fill="none" stroke-width="5.0" stroke-linecap="round" stroke-linejoin="round" />
<path d="M 113.0 154.0 L 112.0 154.0 L 112.0 154.0 L 111.0 155.0 L 111.0 156.0 L 111.0 157.0 L 111.0 159.0 L 111.0 161.0 L 111.0 165.0 L 111.0 170.0 L 111.0 177.0 L 112.0 184.0 L 112.0 193.0 L 112.0 202.0 L 112.0 209.0 L 111.0 216.0 L 111.0 222.0 L 111.0 227.0 L 111.0 230.0 L 110.0 232.0 L 110.0 233.0 L 110.0 233.0 L 109.0 233.0 L 109.0 233.0 L 108.0 233.0 L 106.0 233.0 L 105.0 233.0 L 103.0 234.0 L 101.0 236.0 L 99.0 237.0 L 97.0 238.0 L 95.0 239.0 L 93.0 239.0 L 91.0 239.0 L 89.0 239.0 L 88.0 239.0 L 86.0 239.0 L 84.0 239.0 L 83.0 238.0 L 82.0 238.0 L 81.0 237.0 L 80.0 237.0 L 80.0 237.0 L 80.0 237.0 L 80.0 237.0 L 82.0 237.0 L 84.0 237.0 L 88.0 236.0 L 92.0 236.0 L 97.0 235.0 L 101.0 234.0 L 106.0 234.0 L 111.0 233.0 L 117.0 233.0 L 122.0 233.0 L 128.0 233.0 L 134.0 233.0 L 136.0 233.0 " stroke="black" fill="none" stroke-width="5.0" stroke-linecap="round" stroke-linejoin="round" />
<path d="M 197.0 71.0 L 197.0 71.0 L 197.0 70.0 L 197.0 69.0 L 198.0 68.0 L 198.0 68.0 L 198.0 68.0 L 198.0 68.0 L 198.0 68.0 L 198.0 68.0 L 197.0 70.0 L 196.0 73.0 L 195.0 76.0 L 193.0 79.0 L 192.0 82.0 L 191.0 86.0 " stroke="black" fill="none" stroke-width="5.0" stroke-linecap="round" stroke-linejoin="round" />
<path d="M 164.0 96.0 L 164.0 96.0 L 162.0 96.0 L 161.0 96.0 L 159.0 96.0 L 158.0 96.0 L 158.0 96.0 L 157.0 96.0 L 157.0 96.0 L 157.0 96.0 L 157.0 96.0 L 157.0 96.0 L 158.0 96.0 L 160.0 96.0 L 162.0 96.0 L 164.0 96.0 L 166.0 96.0 L 169.0 96.0 L 172.0 96.0 L 175.0 96.0 L 178.0 96.0 L 181.0 96.0 L 185.0 96.0 L 188.0 96.0 L 191.0 95.0 L 193.0 95.0 L 196.0 95.0 L 198.0 95.0 L 200.0 95.0 L 202.0 95.0 L 204.0 95.0 L 206.0 95.0 L 207.0 95.0 L 209.0 95.0 L 211.0 95.0 L 212.0 95.0 L 214.0 95.0 L 215.0 95.0 L 216.0 95.0 L 217.0 96.0 L 218.0 96.0 L 219.0 96.0 L 219.0 97.0 L 220.0 98.0 L 220.0 98.0 L 221.0 99.0 L 221.0 100.0 L 222.0 101.0 L 222.0 102.0 L 222.0 104.0 L 222.0 106.0 L 222.0 108.0 L 222.0 111.0 L 222.0 115.0 L 222.0 119.0 L 222.0 123.0 L 221.0 127.0 L 220.0 132.0 L 219.0 135.0 L 219.0 138.0 L 218.0 139.0 L 218.0 139.0 " stroke="black" fill="none" stroke-width="5.0" stroke-linecap="round" stroke-linejoin="round" />
<path d="M 176.0 118.0 L 175.0 118.0 L 173.0 118.0 L 170.0 118.0 L 169.0 118.0 L 168.0 118.0 L 168.0 119.0 L 168.0 119.0 L 170.0 119.0 L 172.0 118.0 L 175.0 118.0 L 179.0 117.0 L 182.0 117.0 L 186.0 117.0 L 190.0 117.0 L 194.0 117.0 L 197.0 117.0 L 202.0 117.0 L 207.0 117.0 L 211.0 117.0 L 216.0 116.0 L 218.0 116.0 " stroke="black" fill="none" stroke-width="5.0" stroke-linecap="round" stroke-linejoin="round" />
<path d="M 172.0 137.0 L 169.0 137.0 L 166.0 138.0 L 163.0 139.0 L 161.0 140.0 L 160.0 141.0 L 160.0 141.0 L 160.0 141.0 L 162.0 142.0 L 165.0 142.0 L 169.0 142.0 L 175.0 142.0 L 181.0 142.0 L 187.0 142.0 L 193.0 142.0 L 199.0 141.0 L 206.0 139.0 L 210.0 138.0 " stroke="black" fill="none" stroke-width="5.0" stroke-linecap="round" stroke-linejoin="round" />
<path d="M 160.0 103.0 L 160.0 103.0 L 160.0 103.0 L 160.0 104.0 L 160.0 104.0 L 159.0 104.0 L 159.0 105.0 L 159.0 106.0 L 159.0 108.0 L 160.0 111.0 L 160.0 114.0 L 161.0 119.0 L 162.0 126.0 L 162.0 134.0 L 162.0 143.0 L 162.0 153.0 L 162.0 162.0 L 162.0 170.0 L 162.0 177.0 L 162.0 184.0 L 162.0 188.0 L 162.0 191.0 L 162.0 193.0 L 162.0 193.0 L 163.0 193.0 " stroke="black" fill="none" stroke-width="5.0" stroke-linecap="round" stroke-linejoin="round" />
<path d="M 169.0 162.0 L 168.0 162.0 L 166.0 162.0 L 165.0 162.0 L 165.0 162.0 L 165.0 162.0 L 165.0 162.0 L 166.0 162.0 L 168.0 162.0 L 171.0 161.0 L 174.0 161.0 L 177.0 161.0 L 181.0 161.0 L 185.0 161.0 L 190.0 161.0 L 194.0 161.0 L 199.0 161.0 L 205.0 161.0 L 211.0 161.0 L 217.0 162.0 L 222.0 162.0 L 227.0 162.0 L 230.0 163.0 L 232.0 163.0 L 233.0 164.0 " stroke="black" fill="none" stroke-width="5.0" stroke-linecap="round" stroke-linejoin="round" />
<path d="M 168.0 192.0 L 168.0 192.0 L 167.0 192.0 L 166.0 192.0 L 165.0 191.0 L 165.0 191.0 L 164.0 191.0 L 164.0 191.0 L 164.0 191.0 L 164.0 191.0 L 165.0 191.0 L 166.0 191.0 L 168.0 191.0 L 170.0 191.0 L 172.0 191.0 L 175.0 191.0 L 178.0 191.0 L 181.0 191.0 L 184.0 191.0 L 188.0 191.0 L 191.0 190.0 L 195.0 190.0 L 198.0 190.0 L 201.0 190.0 L 205.0 190.0 L 208.0 190.0 L 211.0 190.0 L 215.0 190.0 L 218.0 190.0 L 221.0 190.0 L 224.0 190.0 L 226.0 190.0 L 228.0 190.0 L 230.0 190.0 L 232.0 191.0 L 233.0 191.0 L 234.0 191.0 L 235.0 191.0 L 235.0 192.0 L 236.0 192.0 L 236.0 193.0 L 236.0 194.0 L 236.0 194.0 L 236.0 195.0 L 236.0 195.0 L 236.0 196.0 L 236.0 197.0 L 236.0 198.0 L 236.0 199.0 L 236.0 200.0 L 235.0 202.0 L 235.0 204.0 L 234.0 206.0 L 233.0 209.0 L 233.0 212.0 L 232.0 216.0 L 231.0 220.0 L 230.0 225.0 L 229.0 231.0 L 228.0 236.0 L 227.0 241.0 L 226.0 246.0 L 225.0 251.0 L 223.0 255.0 L 222.0 259.0 L 221.0 262.0 L 220.0 265.0 L 219.0 266.0 L 218.0 266.0 L 218.0 267.0 L 217.0 266.0 L 216.0 264.0 L 214.0 262.0 L 212.0 259.0 L 209.0 256.0 L 206.0 254.0 L 203.0 252.0 L 199.0 250.0 L 195.0 249.0 " stroke="black" fill="none" stroke-width="5.0" stroke-linecap="round" stroke-linejoin="round" />
<path d="M 157.0 209.0 L 157.0 209.0 L 157.0 207.0 L 157.0 207.0 L 157.0 206.0 L 157.0 206.0 L 157.0 206.0 L 158.0 206.0 L 158.0 208.0 L 158.0 212.0 L 158.0 217.0 L 158.0 223.0 L 157.0 229.0 L 157.0 236.0 L 156.0 242.0 L 156.0 246.0 L 156.0 249.0 " stroke="black" fill="none" stroke-width="5.0" stroke-linecap="round" stroke-linejoin="round" />
<path d="M 180.0 206.0 L 180.0 206.0 L 179.0 206.0 L 179.0 207.0 L 179.0 208.0 L 179.0 209.0 L 179.0 211.0 L 179.0 214.0 L 178.0 217.0 L 178.0 221.0 L 178.0 226.0 L 178.0 231.0 L 178.0 235.0 L 178.0 239.0 L 179.0 241.0 L 179.0 242.0 " stroke="black" fill="none" stroke-width="5.0" stroke-linecap="round" stroke-linejoin="round" />
<path d="M 194.0 203.0 L 194.0 203.0 L 194.0 203.0 L 194.0 203.0 L 195.0 203.0 L 196.0 203.0 L 196.0 203.0 L 196.0 205.0 L 197.0 207.0 L 197.0 212.0 L 197.0 218.0 L 197.0 225.0 L 197.0 232.0 L 197.0 238.0 " stroke="black" fill="none" stroke-width="5.0" stroke-linecap="round" stroke-linejoin="round" />
<path d="M 209.0 200.0 L 209.0 200.0 L 209.0 201.0 L 209.0 202.0 L 209.0 203.0 L 209.0 204.0 L 209.0 206.0 L 211.0 208.0 L 213.0 211.0 L 216.0 214.0 L 218.0 218.0 L 221.0 223.0 L 223.0 227.0 L 224.0 230.0 L 226.0 233.0 " stroke="black" fill="none" stroke-width="5.0" stroke-linecap="round" stroke-linejoin="round" />
</svg>