<svg xmlns="http://www.w3.org/2000/svg" width="300" height="300" viewBox="0 0 300 300">
<path d="M 109.0 70.0 L 109.0 70.0 L 109.0 70.0 L 109.0 69.0 L 110.0 69.0 L 110.0 68.0 L 110.0 68.0 L 110.0 68.0 L 110.0 68.0 L 110.0 68.0 L 110.0 68.0 L 110.0 69.0 L 110.0 69.0 L 110.0 71.0 L 109.0 72.0 L 109.0 73.0 L 108.0 75.0 L 107.0 76.0 L 105.0 78.0 L 103.0 81.0 L 100.0 83.0 L 96.0 87.0 L 89.0 91.0 L 83.0 96.0 L 76.0 101.0 L 71.0 105.0 L 67.0 107.0 L 66.0 107.0 " stroke="black" fill="none" stroke-width="5.0" stroke-linecap="round" stroke-linejoin="round" />
<path d="M 100.0 86.0 L 100.0 86.0 L 100.0 86.0 L 100.0 87.0 L 100.0 87.0 L 99.0 88.0 L 99.0 90.0 L 99.0 92.0 L 99.0 95.0 L 99.0 99.0 L 99.0 103.0 L 99.0 109.0 L 99.0 114.0 L 99.0 119.0 L 99.0 124.0 L 99.0 127.0 L 99.0 128.0 " stroke="black" fill="none" stroke-width="5.0" stroke-linecap="round" stroke-linejoin="round" />
<path d="M 118.0 100.0 L 118.0 100.0 L 118.0 100.0 L 118.0 100.0 L 118.0 100.0 L 118.0 100.0 L 118.0 100.0 L 118.0 100.0 L 118.0 100.0 L 118.0 100.0 L 118.0 100.0 L 118.0 100.0 L 118.0 100.0 L 118.0 99.0 L 119.0 99.0 L 119.0 99.0 L 120.0 99.0 L 121.0 98.0 L 122.0 98.0 L 123.0 98.0 L 125.0 98.0 L 126.0 98.0 L 128.0 98.0 L 130.0 98.0 L 131.0 98.0 L 132.0 98.0 L 134.0 98.0 L 135.0 98.0 L 136.0 98.0 L 137.0 98.0 L 137.0 98.0 L 138.0 98.0 L 139.0 98.0 L 140.0 98.0 L 140.0 99.0 L 141.0 99.0 L 142.0 99.0 L 143.0 99.0 L 143.0 99.0 L 144.0 99.0 L 145.0 99.0 L 145.0 99.0 L 146.0 99.0 L 146.0 99.0 L 147.0 99.0 L 148.0 99.0 L 148.0 99.0 L 149.0 99.0 L 149.0 99.0 L 150.0 99.0 L 150.0 99.0 L 150.0 99.0 L 151.0 99.0 L 151.0 99.0 L 152.0 99.0 L 152.0 99.0 L 153.0 99.0 L 153.0 99.0 L 153.0 99.0 L 154.0 99.0 L 154.0 98.0 L 155.0 98.0 L 155.0 98.0 L 156.0 98.0 L 156.0 98.0 L 157.0 98.0 L 157.0 98.0 L 158.0 98.0 L 158.0 98.0 L 158.0 98.0 L 159.0 98.0 L 160.0 97.0 L 160.0 97.0 L 161.0 97.0 L 161.0 97.0 L 162.0 97.0 L 162.0 97.0 L 163.0 97.0 L 163.0 97.0 L 164.0 97.0 L 164.0 96.0 L 164.0 96.0 L 165.0 96.0 L 165.0 96.0 L 166.0 96.0 L 166.0 96.0 L 167.0 96.0 L 167.0 96.0 L 168.0 96.0 L 168.0 96.0 L 169.0 96.0 L 169.0 96.0 L 170.0 96.0 L 170.0 96.0 L 171.0 96.0 L 171.0 96.0 L 172.0 96.0 L 173.0 96.0 L 173.0 96.0 L 174.0 96.0 L 174.0 96.0 L 175.0 97.0 L 176.0 97.0 L 176.0 97.0 L 177.0 97.0 L 177.0 97.0 L 178.0 97.0 L 178.0 97.0 L 179.0 97.0 L 180.0 97.0 L 180.0 97.0 L 181.0 97.0 L 181.0 97.0 L 182.0 97.0 L 182.0 97.0 L 183.0 97.0 L 183.0 97.0 L 183.0 97.0 L 184.0 97.0 L 184.0 97.0 L 185.0 97.0 L 185.0 97.0 L 185.0 97.0 L 186.0 97.0 L 186.0 97.0 L 187.0 97.0 L 187.0 97.0 L 188.0 97.0 L 188.0 97.0 L 188.0 97.0 L 189.0 97.0 L 189.0 97.0 L 189.0 97.0 L 190.0 97.0 L 190.0 97.0 L 191.0 96.0 L 191.0 96.0 L 191.0 96.0 L 192.0 96.0 L 192.0 96.0 L 192.0 96.0 L 193.0 96.0 L 193.0 96.0 L 193.0 96.0 L 194.0 96.0 L 194.0 96.0 L 194.0 96.0 L 195.0 96.0 L 195.0 96.0 L 196.0 96.0 L 196.0 96.0 L 197.0 96.0 L 197.0 96.0 L 197.0 96.0 L 198.0 96.0 L 198.0 96.0 L 199.0 96.0 L 199.0 96.0 L 200.0 96.0 L 200.0 96.0 L 200.0 96.0 L 201.0 96.0 L 201.0 96.0 L 202.0 96.0 L 202.0 96.0 L 202.0 96.0 L 203.0 96.0 L 203.0 96.0 L 204.0 96.0 L 204.0 96.0 L 204.0 96.0 L 205.0 96.0 L 205.0 96.0 L 206.0 96.0 L 206.0 96.0 L 207.0 95.0 L 207.0 95.0 L 208.0 95.0 L 208.0 95.0 L 209.0 95.0 L 209.0 95.0 L 210.0 95.0 L 211.0 95.0 L 211.0 95.0 L 212.0 95.0 L 213.0 95.0 L 214.0 95.0 L 215.0 95.0 L 216.0 95.0 L 217.0 95.0 L 218.0 95.0 L 219.0 95.0 L 220.0 95.0 L 221.0 95.0 L 222.0 95.0 L 223.0 95.0 L 224.0 95.0 L 224.0 95.0 L 225.0 95.0 L 226.0 95.0 L 227.0 95.0 L 228.0 95.0 L 229.0 95.0 L 230.0 95.0 L 230.0 95.0 L 231.0 95.0 L 232.0 95.0 L 233.0 95.0 L 234.0 95.0 L 234.0 95.0 L 234.0 95.0 L 234.0 95.0 " stroke="black" fill="none" stroke-width="5.0" stroke-linecap="round" stroke-linejoin="round" />
<path d="M 149.0 73.0 L 149.0 73.0 L 149.0 73.0 L 149.0 73.0 L 150.0 73.0 L 150.0 73.0 L 150.0 73.0 L 150.0 74.0 L 150.0 74.0 L 151.0 75.0 L 151.0 76.0 L 151.0 77.0 L 152.0 78.0 L 152.0 80.0 L 153.0 81.0 L 153.0 83.0 L 154.0 85.0 L 155.0 86.0 L 155.0 88.0 L 156.0 90.0 L 157.0 91.0 L 158.0 93.0 L 159.0 95.0 L 160.0 97.0 L 161.0 99.0 L 162.0 100.0 L 162.0 102.0 L 163.0 103.0 L 164.0 104.0 L 165.0 105.0 L 166.0 106.0 L 167.0 107.0 L 168.0 108.0 L 168.0 109.0 L 169.0 109.0 L 170.0 110.0 L 171.0 111.0 L 172.0 111.0 L 173.0 112.0 L 174.0 113.0 L 175.0 114.0 L 177.0 114.0 L 178.0 115.0 L 179.0 116.0 L 180.0 117.0 L 182.0 117.0 L 183.0 118.0 L 184.0 119.0 L 186.0 119.0 L 187.0 120.0 L 188.0 120.0 L 189.0 121.0 L 190.0 121.0 L 191.0 122.0 L 192.0 123.0 L 193.0 123.0 L 194.0 123.0 L 195.0 124.0 L 195.0 125.0 L 196.0 125.0 L 197.0 125.0 L 198.0 126.0 L 198.0 126.0 L 199.0 126.0 L 200.0 127.0 L 201.0 127.0 L 202.0 128.0 L 203.0 128.0 L 204.0 129.0 L 205.0 129.0 L 206.0 129.0 L 207.0 130.0 L 209.0 130.0 L 210.0 130.0 L 211.0 130.0 L 212.0 130.0 L 213.0 130.0 L 215.0 130.0 L 216.0 130.0 L 217.0 130.0 L 218.0 130.0 L 220.0 130.0 L 221.0 130.0 L 222.0 130.0 L 223.0 130.0 L 224.0 130.0 L 226.0 130.0 L 227.0 130.0 L 228.0 130.0 L 229.0 130.0 L 230.0 130.0 L 230.0 130.0 L 231.0 130.0 L 232.0 130.0 L 232.0 130.0 L 233.0 130.0 L 233.0 130.0 L 234.0 130.0 L 234.0 130.0 L 234.0 129.0 L 234.0 129.0 L 234.0 128.0 L 234.0 128.0 L 234.0 128.0 L 234.0 128.0 L 234.0 127.0 L 234.0 127.0 L 234.0 126.0 L 234.0 125.0 L 234.0 124.0 L 234.0 121.0 L 234.0 119.0 L 234.0 117.0 " stroke="black" fill="none" stroke-width="5.0" stroke-linecap="round" stroke-linejoin="round" />
<path d="M 189.0 70.0 L 189.0 70.0 L 189.0 70.0 L 189.0 70.0 L 189.0 71.0 L 190.0 71.0 L 191.0 72.0 L 192.0 73.0 L 194.0 74.0 L 196.0 76.0 L 199.0 78.0 L 203.0 80.0 L 207.0 81.0 L 211.0 83.0 L 214.0 84.0 " stroke="black" fill="none" stroke-width="5.0" stroke-linecap="round" stroke-linejoin="round" />
<path d="M 88.0 139.0 L 88.0 139.0 L 88.0 139.0 L 88.0 139.0 L 88.0 139.0 L 88.0 139.0 L 88.0 139.0 L 88.0 140.0 L 88.0 141.0 L 88.0 144.0 L 89.0 147.0 L 90.0 151.0 L 90.0 155.0 L 91.0 160.0 L 91.0 166.0 L 91.0 171.0 L 91.0 176.0 L 91.0 179.0 " stroke="black" fill="none" stroke-width="5.0" stroke-linecap="round" stroke-linejoin="round" />
<path d="M 92.0 139.0 L 91.0 139.0 L 91.0 139.0 L 91.0 140.0 L 90.0 140.0 L 90.0 140.0 L 90.0 141.0 L 90.0 141.0 L 90.0 141.0 L 90.0 141.0 L 90.0 141.0 L 91.0 141.0 L 91.0 141.0 L 92.0 140.0 L 93.0 140.0 L 93.0 140.0 L 94.0 140.0 L 94.0 140.0 L 95.0 140.0 L 95.0 140.0 L 96.0 140.0 L 97.0 140.0 L 98.0 140.0 L 99.0 140.0 L 100.0 139.0 L 100.0 139.0 L 101.0 139.0 L 102.0 139.0 L 103.0 139.0 L 104.0 139.0 L 105.0 139.0 L 105.0 139.0 L 106.0 139.0 L 107.0 139.0 L 107.0 139.0 L 108.0 139.0 L 108.0 138.0 L 109.0 138.0 L 109.0 138.0 L 110.0 138.0 L 110.0 138.0 L 111.0 138.0 L 111.0 138.0 L 111.0 137.0 L 112.0 137.0 L 112.0 137.0 L 113.0 137.0 L 113.0 137.0 L 114.0 137.0 L 114.0 137.0 L 115.0 137.0 L 115.0 137.0 L 116.0 137.0 L 117.0 137.0 L 117.0 137.0 L 118.0 137.0 L 119.0 137.0 L 119.0 137.0 L 120.0 137.0 L 121.0 137.0 L 122.0 137.0 L 122.0 137.0 L 123.0 137.0 L 124.0 137.0 L 125.0 137.0 L 126.0 137.0 L 126.0 137.0 L 127.0 137.0 L 128.0 137.0 L 129.0 137.0 L 130.0 137.0 L 131.0 137.0 L 132.0 137.0 L 132.0 137.0 L 133.0 137.0 L 134.0 137.0 L 135.0 137.0 L 135.0 137.0 L 136.0 137.0 L 137.0 137.0 L 137.0 137.0 L 138.0 137.0 L 139.0 137.0 L 140.0 137.0 L 140.0 137.0 L 141.0 137.0 L 142.0 137.0 L 142.0 137.0 L 143.0 137.0 L 144.0 137.0 L 144.0 137.0 L 145.0 137.0 L 146.0 137.0 L 146.0 137.0 L 147.0 137.0 L 148.0 137.0 L 148.0 137.0 L 149.0 137.0 L 149.0 137.0 L 150.0 137.0 L 151.0 137.0 L 151.0 137.0 L 152.0 137.0 L 152.0 137.0 L 153.0 137.0 L 153.0 137.0 L 154.0 137.0 L 155.0 137.0 L 155.0 137.0 L 156.0 137.0 L 156.0 137.0 L 157.0 137.0 L 157.0 137.0 L 158.0 137.0 L 158.0 137.0 L 159.0 137.0 L 159.0 137.0 L 160.0 137.0 L 160.0 137.0 L 161.0 137.0 L 161.0 137.0 L 162.0 137.0 L 162.0 137.0 L 162.0 137.0 L 163.0 137.0 L 163.0 137.0 L 164.0 137.0 L 164.0 137.0 L 165.0 137.0 L 166.0 137.0 L 166.0 137.0 L 167.0 137.0 L 168.0 137.0 L 169.0 137.0 L 169.0 137.0 L 170.0 137.0 L 171.0 137.0 L 171.0 137.0 L 172.0 137.0 L 173.0 137.0 L 174.0 137.0 L 174.0 137.0 L 175.0 137.0 L 176.0 137.0 L 177.0 137.0 L 177.0 137.0 L 178.0 137.0 L 178.0 138.0 L 179.0 138.0 L 180.0 138.0 L 180.0 138.0 L 181.0 138.0 L 181.0 138.0 L 182.0 138.0 L 182.0 138.0 L 183.0 138.0 L 183.0 138.0 L 184.0 138.0 L 184.0 138.0 L 185.0 138.0 L 185.0 139.0 L 185.0 139.0 L 186.0 139.0 L 186.0 139.0 L 187.0 139.0 L 187.0 139.0 L 188.0 139.0 L 188.0 139.0 L 189.0 139.0 L 189.0 139.0 L 189.0 139.0 L 190.0 139.0 L 190.0 139.0 L 190.0 139.0 L 191.0 139.0 L 191.0 139.0 L 191.0 139.0 L 192.0 139.0 L 192.0 139.0 L 193.0 139.0 L 193.0 139.0 L 194.0 139.0 L 194.0 139.0 L 194.0 139.0 L 195.0 139.0 L 195.0 139.0 L 195.0 139.0 L 196.0 139.0 L 196.0 139.0 L 196.0 139.0 L 197.0 139.0 L 197.0 139.0 L 197.0 139.0 L 198.0 139.0 L 198.0 139.0 L 198.0 139.0 L 199.0 140.0 L 199.0 140.0 L 199.0 140.0 L 200.0 140.0 L 200.0 140.0 L 200.0 140.0 L 201.0 140.0 L 201.0 140.0 L 202.0 140.0 L 202.0 140.0 L 202.0 140.0 L 203.0 140.0 L 203.0 140.0 L 204.0 140.0 L 204.0 140.0 L 204.0 140.0 L 205.0 140.0 L 205.0 140.0 L 206.0 140.0 L 206.0 140.0 L 206.0 140.0 L 207.0 140.0 L 207.0 140.0 L 207.0 140.0 L 208.0 140.0 L 208.0 141.0 L 209.0 141.0 L 209.0 141.0 L 209.0 141.0 L 210.0 141.0 L 210.0 141.0 L 210.0 142.0 L 211.0 142.0 L 211.0 142.0 L 211.0 142.0 L 212.0 143.0 L 212.0 143.0 L 212.0 143.0 L 212.0 144.0 L 212.0 145.0 L 212.0 146.0 L 212.0 146.0 L 212.0 148.0 L 212.0 149.0 L 212.0 151.0 L 212.0 153.0 L 212.0 155.0 L 211.0 157.0 L 211.0 159.0 L 211.0 162.0 L 210.0 165.0 L 210.0 167.0 L 210.0 170.0 L 210.0 172.0 L 210.0 173.0 L 210.0 175.0 L 210.0 175.0 L 210.0 176.0 L 210.0 177.0 L 210.0 177.0 L 210.0 177.0 L 210.0 177.0 L 211.0 176.0 " stroke="black" fill="none" stroke-width="5.0" stroke-linecap="round" stroke-linejoin="round" />
<path d="M 108.0 151.0 L 108.0 151.0 L 108.0 151.0 L 108.0 151.0 L 107.0 152.0 L 107.0 152.0 L 107.0 153.0 L 107.0 154.0 L 108.0 155.0 L 110.0 156.0 L 112.0 157.0 L 115.0 159.0 L 117.0 161.0 L 119.0 162.0 L 121.0 164.0 L 123.0 166.0 L 124.0 167.0 " stroke="black" fill="none" stroke-width="5.0" stroke-linecap="round" stroke-linejoin="round" />
<path d="M 190.0 151.0 L 190.0 151.0 L 190.0 151.0 L 190.0 151.0 L 189.0 151.0 L 189.0 150.0 L 189.0 150.0 L 189.0 150.0 L 188.0 150.0 L 187.0 151.0 L 186.0 152.0 L 185.0 154.0 L 183.0 156.0 L 181.0 159.0 L 178.0 162.0 L 174.0 165.0 L 172.0 166.0 " stroke="black" fill="none" stroke-width="5.0" stroke-linecap="round" stroke-linejoin="round" />
<path d="M 94.0 180.0 L 94.0 180.0 L 94.0 180.0 L 94.0 180.0 L 94.0 180.0 L 94.0 180.0 L 95.0 180.0 L 96.0 180.0 L 96.0 179.0 L 97.0 178.0 L 98.0 178.0 L 99.0 177.0 L 99.0 177.0 L 100.0 177.0 L 100.0 177.0 L 101.0 177.0 L 102.0 177.0 L 103.0 177.0 L 103.0 177.0 L 104.0 177.0 L 105.0 177.0 L 106.0 177.0 L 107.0 177.0 L 108.0 177.0 L 109.0 177.0 L 110.0 177.0 L 111.0 177.0 L 112.0 177.0 L 114.0 177.0 L 115.0 177.0 L 116.0 177.0 L 117.0 177.0 L 118.0 177.0 L 119.0 177.0 L 121.0 177.0 L 122.0 177.0 L 123.0 176.0 L 124.0 176.0 L 125.0 176.0 L 127.0 176.0 L 128.0 176.0 L 129.0 176.0 L 130.0 176.0 L 131.0 176.0 L 133.0 176.0 L 134.0 176.0 L 135.0 176.0 L 136.0 176.0 L 137.0 176.0 L 138.0 176.0 L 139.0 176.0 L 140.0 176.0 L 140.0 175.0 L 141.0 175.0 L 142.0 175.0 L 143.0 175.0 L 143.0 175.0 L 144.0 175.0 L 144.0 175.0 L 145.0 175.0 L 146.0 175.0 L 146.0 175.0 L 147.0 175.0 L 148.0 175.0 L 148.0 175.0 L 149.0 175.0 L 149.0 175.0 L 150.0 175.0 L 150.0 175.0 L 151.0 175.0 L 152.0 175.0 L 152.0 175.0 L 153.0 175.0 L 154.0 175.0 L 154.0 175.0 L 155.0 175.0 L 156.0 175.0 L 157.0 175.0 L 158.0 175.0 L 158.0 175.0 L 159.0 175.0 L 160.0 175.0 L 162.0 175.0 L 163.0 175.0 L 164.0 175.0 L 165.0 175.0 L 166.0 175.0 L 168.0 175.0 L 169.0 175.0 L 170.0 175.0 L 171.0 175.0 L 172.0 175.0 L 173.0 175.0 L 175.0 175.0 L 176.0 175.0 L 177.0 175.0 L 178.0 175.0 L 178.0 175.0 L 179.0 175.0 L 180.0 175.0 L 181.0 175.0 L 182.0 175.0 L 183.0 175.0 L 184.0 175.0 L 185.0 175.0 L 186.0 175.0 L 187.0 175.0 L 188.0 175.0 L 189.0 175.0 L 190.0 175.0 L 191.0 175.0 L 192.0 175.0 L 193.0 175.0 L 194.0 175.0 L 194.0 175.0 L 195.0 175.0 L 196.0 175.0 L 197.0 175.0 L 198.0 175.0 L 199.0 175.0 L 199.0 175.0 L 200.0 175.0 L 200.0 175.0 " stroke="black" fill="none" stroke-width="5.0" stroke-linecap="round" stroke-linejoin="round" />
<path d="M 74.0 199.0 L 74.0 199.0 L 74.0 199.0 L 74.0 199.0 L 75.0 199.0 L 75.0 199.0 L 76.0 199.0 L 77.0 199.0 L 78.0 198.0 L 78.0 198.0 L 79.0 198.0 L 80.0 197.0 L 81.0 197.0 L 82.0 197.0 L 83.0 197.0 L 84.0 197.0 L 85.0 197.0 L 87.0 197.0 L 88.0 197.0 L 90.0 197.0 L 91.0 197.0 L 93.0 197.0 L 94.0 197.0 L 96.0 197.0 L 97.0 197.0 L 98.0 197.0 L 99.0 197.0 L 100.0 197.0 L 101.0 197.0 L 101.0 197.0 L 102.0 197.0 L 103.0 197.0 L 104.0 197.0 L 105.0 197.0 L 106.0 197.0 L 107.0 197.0 L 107.0 197.0 L 108.0 197.0 L 109.0 197.0 L 109.0 197.0 L 110.0 197.0 L 110.0 197.0 L 111.0 197.0 L 112.0 197.0 L 112.0 197.0 L 113.0 197.0 L 114.0 197.0 L 115.0 197.0 L 116.0 197.0 L 117.0 197.0 L 118.0 197.0 L 118.0 197.0 L 119.0 197.0 L 120.0 197.0 L 121.0 197.0 L 122.0 197.0 L 123.0 197.0 L 124.0 197.0 L 125.0 197.0 L 126.0 197.0 L 127.0 197.0 L 129.0 197.0 L 130.0 197.0 L 131.0 197.0 L 132.0 197.0 L 133.0 197.0 L 134.0 196.0 L 135.0 196.0 L 136.0 196.0 L 137.0 196.0 L 138.0 196.0 L 139.0 196.0 L 140.0 196.0 L 141.0 196.0 L 141.0 195.0 L 142.0 195.0 L 143.0 195.0 L 144.0 195.0 L 145.0 195.0 L 145.0 195.0 L 146.0 195.0 L 147.0 195.0 L 148.0 195.0 L 148.0 195.0 L 149.0 195.0 L 149.0 195.0 L 150.0 195.0 L 150.0 195.0 L 151.0 195.0 L 152.0 195.0 L 152.0 195.0 L 153.0 195.0 L 153.0 195.0 L 154.0 195.0 L 154.0 195.0 L 155.0 195.0 L 155.0 195.0 L 155.0 195.0 L 156.0 195.0 L 156.0 195.0 L 157.0 195.0 L 157.0 195.0 L 158.0 195.0 L 159.0 196.0 L 159.0 196.0 L 160.0 196.0 L 160.0 196.0 L 161.0 196.0 L 162.0 196.0 L 162.0 196.0 L 163.0 196.0 L 163.0 196.0 L 164.0 196.0 L 165.0 196.0 L 165.0 196.0 L 166.0 196.0 L 167.0 196.0 L 167.0 196.0 L 168.0 196.0 L 169.0 196.0 L 169.0 196.0 L 170.0 196.0 L 171.0 196.0 L 172.0 196.0 L 173.0 196.0 L 174.0 196.0 L 175.0 196.0 L 175.0 196.0 L 176.0 196.0 L 177.0 196.0 L 178.0 196.0 L 179.0 196.0 L 179.0 196.0 L 180.0 196.0 L 181.0 196.0 L 181.0 196.0 L 182.0 196.0 L 183.0 196.0 L 183.0 196.0 L 184.0 196.0 L 184.0 196.0 L 185.0 196.0 L 185.0 196.0 L 186.0 196.0 L 187.0 197.0 L 187.0 197.0 L 188.0 197.0 L 188.0 197.0 L 189.0 197.0 L 189.0 197.0 L 190.0 197.0 L 191.0 197.0 L 192.0 197.0 L 192.0 197.0 L 193.0 197.0 L 194.0 198.0 L 194.0 198.0 L 195.0 198.0 L 195.0 198.0 L 196.0 198.0 L 197.0 198.0 L 198.0 198.0 L 198.0 198.0 L 199.0 198.0 L 200.0 198.0 L 201.0 198.0 L 202.0 198.0 L 203.0 198.0 L 204.0 199.0 L 205.0 199.0 L 206.0 199.0 L 207.0 200.0 L 208.0 200.0 L 208.0 200.0 L 209.0 200.0 L 210.0 200.0 L 211.0 200.0 L 212.0 200.0 L 213.0 200.0 L 214.0 200.0 L 215.0 200.0 L 215.0 200.0 L 216.0 200.0 L 216.0 200.0 L 216.0 200.0 " stroke="black" fill="none" stroke-width="5.0" stroke-linecap="round" stroke-linejoin="round" />
<path d="M 149.0 141.0 L 149.0 142.0 L 149.0 143.0 L 149.0 144.0 L 149.0 145.0 L 149.0 146.0 L 149.0 148.0 L 149.0 150.0 L 150.0 152.0 L 150.0 155.0 L 150.0 157.0 L 150.0 161.0 L 150.0 164.0 L 150.0 168.0 L 150.0 172.0 L 150.0 176.0 L 150.0 180.0 L 150.0 184.0 L 150.0 187.0 L 150.0 190.0 L 150.0 193.0 L 150.0 196.0 L 150.0 198.0 L 150.0 200.0 L 150.0 201.0 L 150.0 203.0 L 149.0 204.0 L 149.0 204.0 L 149.0 205.0 L 149.0 205.0 L 149.0 205.0 L 149.0 205.0 L 149.0 204.0 L 149.0 204.0 L 149.0 203.0 L 149.0 203.0 L 149.0 203.0 L 149.0 203.0 L 149.0 203.0 L 149.0 204.0 L 149.0 204.0 L 149.0 205.0 L 149.0 205.0 L 149.0 206.0 L 149.0 207.0 L 149.0 207.0 L 149.0 208.0 L 149.0 208.0 L 149.0 209.0 L 149.0 209.0 L 149.0 210.0 L 148.0 210.0 L 148.0 210.0 L 148.0 211.0 L 148.0 211.0 L 148.0 212.0 L 148.0 212.0 L 148.0 213.0 L 148.0 213.0 L 148.0 213.0 L 148.0 214.0 L 148.0 214.0 L 148.0 214.0 L 148.0 214.0 L 148.0 214.0 " stroke="black" fill="none" stroke-width="5.0" stroke-linecap="round" stroke-linejoin="round" />
<path d="M 61.0 217.0 L 61.0 217.0 L 60.0 217.0 L 60.0 217.0 L 60.0 218.0 L 60.0 218.0 L 60.0 218.0 L 60.0 219.0 L 60.0 219.0 L 60.0 219.0 L 60.0 219.0 L 60.0 219.0 L 60.0 219.0 L 61.0 219.0 L 61.0 219.0 L 62.0 218.0 L 63.0 218.0 L 64.0 217.0 L 64.0 217.0 L 65.0 216.0 L 66.0 216.0 L 67.0 216.0 L 68.0 215.0 L 69.0 215.0 L 69.0 214.0 L 71.0 214.0 L 72.0 214.0 L 73.0 214.0 L 74.0 214.0 L 75.0 214.0 L 76.0 214.0 L 77.0 214.0 L 78.0 214.0 L 79.0 214.0 L 80.0 214.0 L 81.0 214.0 L 81.0 214.0 L 82.0 214.0 L 83.0 215.0 L 83.0 215.0 L 84.0 216.0 L 85.0 216.0 L 85.0 216.0 L 86.0 217.0 L 86.0 217.0 L 87.0 218.0 L 87.0 218.0 L 88.0 218.0 L 89.0 218.0 L 89.0 219.0 L 90.0 219.0 L 91.0 219.0 L 91.0 219.0 L 92.0 219.0 L 93.0 219.0 L 93.0 219.0 L 94.0 219.0 L 95.0 219.0 L 96.0 219.0 L 97.0 219.0 L 98.0 219.0 L 99.0 219.0 L 100.0 219.0 L 101.0 219.0 L 102.0 219.0 L 103.0 219.0 L 104.0 219.0 L 105.0 219.0 L 105.0 218.0 L 106.0 218.0 L 107.0 218.0 L 108.0 218.0 L 109.0 218.0 L 110.0 218.0 L 110.0 218.0 L 111.0 218.0 L 112.0 218.0 L 112.0 218.0 L 113.0 218.0 L 114.0 218.0 L 115.0 218.0 L 115.0 218.0 L 116.0 218.0 L 117.0 218.0 L 118.0 218.0 L 119.0 218.0 L 119.0 218.0 L 120.0 218.0 L 121.0 218.0 L 122.0 218.0 L 123.0 218.0 L 124.0 218.0 L 125.0 218.0 L 126.0 218.0 L 127.0 218.0 L 128.0 218.0 L 128.0 218.0 L 129.0 218.0 L 130.0 218.0 L 131.0 217.0 L 132.0 217.0 L 133.0 217.0 L 133.0 217.0 L 134.0 217.0 L 135.0 217.0 L 136.0 217.0 L 137.0 217.0 L 138.0 217.0 L 138.0 217.0 L 139.0 217.0 L 140.0 217.0 L 141.0 217.0 L 142.0 217.0 L 143.0 217.0 L 143.0 217.0 L 144.0 217.0 L 145.0 217.0 L 145.0 217.0 L 146.0 217.0 L 147.0 217.0 L 147.0 217.0 L 148.0 217.0 L 148.0 217.0 L 149.0 217.0 L 149.0 217.0 L 150.0 217.0 L 150.0 217.0 L 151.0 217.0 L 151.0 217.0 L 152.0 217.0 L 152.0 217.0 L 152.0 217.0 L 153.0 216.0 L 153.0 216.0 L 153.0 216.0 L 154.0 216.0 L 154.0 216.0 L 155.0 216.0 L 155.0 216.0 L 155.0 216.0 L 156.0 216.0 L 156.0 216.0 L 157.0 216.0 L 157.0 216.0 L 157.0 216.0 L 158.0 216.0 L 158.0 216.0 L 159.0 216.0 L 159.0 216.0 L 160.0 216.0 L 160.0 216.0 L 161.0 216.0 L 161.0 216.0 L 162.0 216.0 L 162.0 216.0 L 163.0 216.0 L 163.0 216.0 L 164.0 216.0 L 165.0 216.0 L 165.0 216.0 L 166.0 216.0 L 167.0 216.0 L 168.0 216.0 L 168.0 216.0 L 169.0 216.0 L 170.0 216.0 L 171.0 216.0 L 171.0 216.0 L 172.0 217.0 L 173.0 217.0 L 173.0 217.0 L 174.0 217.0 L 175.0 217.0 L 175.0 217.0 L 176.0 217.0 L 177.0 217.0 L 177.0 217.0 L 178.0 217.0 L 179.0 217.0 L 179.0 217.0 L 180.0 217.0 L 180.0 217.0 L 181.0 217.0 L 182.0 217.0 L 182.0 217.0 L 183.0 218.0 L 184.0 218.0 L 184.0 218.0 L 185.0 218.0 L 185.0 218.0 L 186.0 218.0 L 187.0 218.0 L 187.0 218.0 L 188.0 218.0 L 188.0 218.0 L 189.0 218.0 L 189.0 218.0 L 189.0 218.0 L 190.0 218.0 L 190.0 218.0 L 190.0 218.0 L 191.0 218.0 L 191.0 219.0 L 191.0 219.0 L 192.0 219.0 L 192.0 219.0 L 192.0 219.0 L 193.0 219.0 L 193.0 219.0 L 193.0 219.0 L 193.0 219.0 L 194.0 219.0 L 194.0 219.0 L 194.0 219.0 L 195.0 219.0 L 195.0 219.0 L 195.0 219.0 L 196.0 219.0 L 196.0 219.0 L 196.0 219.0 L 196.0 219.0 L 197.0 219.0 L 197.0 219.0 L 197.0 219.0 L 198.0 219.0 L 198.0 219.0 L 198.0 220.0 L 199.0 220.0 L 199.0 220.0 L 199.0 220.0 L 200.0 220.0 L 200.0 220.0 L 201.0 220.0 L 201.0 220.0 L 201.0 220.0 L 202.0 220.0 L 202.0 220.0 L 203.0 220.0 L 203.0 220.0 L 204.0 220.0 L 204.0 220.0 L 205.0 220.0 L 205.0 220.0 L 206.0 220.0 L 206.0 220.0 L 207.0 220.0 L 207.0 220.0 L 208.0 220.0 L 209.0 221.0 L 209.0 221.0 L 210.0 221.0 L 210.0 221.0 L 211.0 221.0 L 211.0 221.0 L 212.0 221.0 L 212.0 221.0 L 213.0 221.0 L 214.0 221.0 L 214.0 221.0 L 215.0 221.0 L 216.0 221.0 L 216.0 221.0 L 217.0 222.0 L 218.0 222.0 L 219.0 222.0 L 220.0 222.0 L 220.0 222.0 L 221.0 222.0 L 222.0 222.0 L 223.0 222.0 L 223.0 222.0 L 224.0 222.0 L 225.0 222.0 L 226.0 222.0 L 227.0 222.0 L 227.0 222.0 L 228.0 222.0 L 229.0 222.0 L 230.0 222.0 L 230.0 222.0 L 231.0 222.0 L 232.0 221.0 L 232.0 221.0 L 233.0 221.0 L 233.0 221.0 L 234.0 220.0 L 234.0 220.0 L 234.0 220.0 L 235.0 220.0 L 235.0 220.0 L 235.0 220.0 L 235.0 220.0 L 235.0 220.0 L 235.0 220.0 L 235.0 220.0 " stroke="black" fill="none" stroke-width="5.0" stroke-linecap="round" stroke-linejoin="round" />
<path d="M 92.0 229.0 L 92.0 229.0 L 92.0 229.0 L 91.0 229.0 L 91.0 229.0 L 90.0 230.0 L 89.0 231.0 L 87.0 233.0 L 85.0 235.0 L 82.0 239.0 L 80.0 243.0 L 77.0 247.0 L 74.0 250.0 L 73.0 253.0 L 72.0 254.0 " stroke="black" fill="none" stroke-width="5.0" stroke-linecap="round" stroke-linejoin="round" />
<path d="M 125.0 235.0 L 125.0 235.0 L 124.0 235.0 L 124.0 234.0 L 123.0 234.0 L 123.0 234.0 L 123.0 234.0 L 123.0 234.0 L 123.0 234.0 L 123.0 234.0 L 124.0 235.0 L 125.0 236.0 L 126.0 239.0 L 126.0 241.0 L 127.0 244.0 L 127.0 248.0 L 127.0 251.0 L 128.0 254.0 L 128.0 256.0 " stroke="black" fill="none" stroke-width="5.0" stroke-linecap="round" stroke-linejoin="round" />
<path d="M 172.0 236.0 L 171.0 236.0 L 171.0 236.0 L 170.0 235.0 L 170.0 235.0 L 170.0 235.0 L 170.0 235.0 L 170.0 235.0 L 170.0 235.0 L 170.0 236.0 L 171.0 238.0 L 172.0 240.0 L 173.0 243.0 L 174.0 246.0 L 175.0 248.0 L 177.0 251.0 " stroke="black" fill="none" stroke-width="5.0" stroke-linecap="round" stroke-linejoin="round" />
<path d="M 216.0 236.0 L 216.0 236.0 L 216.0 236.0 L 216.0 236.0 L 216.0 236.0 L 216.0 236.0 L 216.0 236.0 L 216.0 236.0 L 217.0 236.0 L 219.0 237.0 L 221.0 239.0 L 224.0 241.0 L 227.0 244.0 L 229.0 247.0 L 232.0 250.0 L 234.0 253.0 L 236.0 255.0 L 237.0 256.0 " stroke="black" fill="none" stroke-width="5.0" stroke-linecap="round" stroke-linejoin="round" />
</svg>