<svg xmlns="http://www.w3.org/2000/svg" width="300" height="300" viewBox="0 0 300 300">
<path d="M 147.0 70.0 L 147.0 70.0 L 147.0 69.0 L 147.0 69.0 L 146.0 69.0 L 146.0 69.0 L 146.0 69.0 L 146.0 69.0 L 146.0 71.0 L 148.0 73.0 L 149.0 76.0 L 151.0 79.0 L 152.0 81.0 L 154.0 84.0 " stroke="black" fill="none" stroke-width="5.0" stroke-linecap="round" stroke-linejoin="round" />
<path d="M 64.0 91.0 L 64.0 91.0 L 64.0 91.0 L 64.0 91.0 L 64.0 91.0 L 63.0 92.0 L 63.0 92.0 L 63.0 92.0 L 63.0 92.0 L 63.0 92.0 L 63.0 92.0 L 63.0 92.0 L 63.0 92.0 L 63.0 92.0 L 63.0 92.0 L 64.0 92.0 L 64.0 92.0 L 65.0 92.0 L 66.0 92.0 L 67.0 92.0 L 68.0 92.0 L 69.0 92.0 L 70.0 92.0 L 71.0 92.0 L 72.0 91.0 L 74.0 91.0 L 75.0 91.0 L 76.0 91.0 L 77.0 91.0 L 79.0 91.0 L 80.0 91.0 L 81.0 91.0 L 83.0 90.0 L 84.0 90.0 L 86.0 90.0 L 88.0 90.0 L 89.0 90.0 L 90.0 90.0 L 92.0 90.0 L 93.0 90.0 L 94.0 90.0 L 95.0 90.0 L 96.0 90.0 L 97.0 90.0 L 99.0 90.0 L 100.0 90.0 L 101.0 90.0 L 102.0 89.0 L 103.0 89.0 L 103.0 89.0 L 104.0 89.0 L 105.0 89.0 L 106.0 89.0 L 107.0 89.0 L 107.0 89.0 L 108.0 89.0 L 108.0 89.0 L 109.0 89.0 L 110.0 89.0 L 110.0 89.0 L 111.0 89.0 L 112.0 89.0 L 112.0 89.0 L 113.0 89.0 L 114.0 89.0 L 115.0 89.0 L 116.0 89.0 L 118.0 89.0 L 120.0 89.0 L 122.0 89.0 L 124.0 89.0 L 126.0 89.0 L 129.0 89.0 L 131.0 89.0 L 133.0 89.0 L 136.0 89.0 L 138.0 89.0 L 140.0 89.0 L 142.0 89.0 L 144.0 88.0 L 146.0 88.0 L 148.0 88.0 L 150.0 88.0 L 151.0 87.0 L 153.0 87.0 L 154.0 87.0 L 155.0 87.0 L 156.0 87.0 L 157.0 87.0 L 158.0 87.0 L 159.0 87.0 L 160.0 87.0 L 162.0 87.0 L 164.0 87.0 L 166.0 87.0 L 169.0 87.0 L 172.0 87.0 L 175.0 87.0 L 179.0 87.0 L 183.0 88.0 L 186.0 88.0 L 190.0 88.0 L 193.0 88.0 L 195.0 88.0 L 198.0 88.0 L 200.0 88.0 L 202.0 88.0 L 205.0 88.0 L 207.0 87.0 L 209.0 87.0 L 211.0 86.0 L 212.0 86.0 L 214.0 86.0 L 216.0 86.0 L 218.0 86.0 L 220.0 86.0 L 221.0 86.0 " stroke="black" fill="none" stroke-width="5.0" stroke-linecap="round" stroke-linejoin="round" />
<path d="M 130.0 108.0 L 130.0 108.0 L 130.0 108.0 L 130.0 108.0 L 130.0 108.0 L 131.0 108.0 L 131.0 109.0 L 133.0 110.0 L 135.0 111.0 L 138.0 113.0 L 141.0 115.0 L 145.0 118.0 L 147.0 120.0 L 149.0 122.0 L 151.0 124.0 L 152.0 125.0 " stroke="black" fill="none" stroke-width="5.0" stroke-linecap="round" stroke-linejoin="round" />
<path d="M 166.0 110.0 L 166.0 110.0 L 166.0 110.0 L 165.0 110.0 L 164.0 110.0 L 164.0 111.0 L 163.0 112.0 L 162.0 112.0 L 161.0 113.0 L 159.0 115.0 L 158.0 116.0 L 156.0 118.0 L 154.0 121.0 L 152.0 123.0 L 151.0 124.0 L 149.0 126.0 L 148.0 127.0 L 148.0 128.0 L 147.0 128.0 L 147.0 128.0 L 147.0 128.0 L 147.0 128.0 L 147.0 128.0 L 148.0 128.0 L 148.0 128.0 L 148.0 128.0 L 149.0 128.0 L 149.0 128.0 L 149.0 129.0 L 150.0 130.0 L 150.0 131.0 L 150.0 133.0 L 150.0 135.0 L 150.0 138.0 L 150.0 142.0 L 150.0 146.0 L 150.0 150.0 L 150.0 154.0 L 150.0 158.0 L 150.0 162.0 " stroke="black" fill="none" stroke-width="5.0" stroke-linecap="round" stroke-linejoin="round" />
<path d="M 72.0 120.0 L 72.0 120.0 L 72.0 120.0 L 72.0 120.0 L 72.0 119.0 L 72.0 119.0 L 72.0 119.0 L 73.0 119.0 L 75.0 119.0 L 79.0 119.0 L 84.0 119.0 L 90.0 119.0 L 96.0 119.0 L 102.0 119.0 L 106.0 118.0 L 109.0 118.0 L 112.0 118.0 L 113.0 118.0 L 114.0 118.0 L 115.0 118.0 L 115.0 118.0 L 115.0 118.0 L 115.0 118.0 L 115.0 118.0 L 115.0 118.0 L 115.0 118.0 L 115.0 120.0 L 115.0 121.0 L 115.0 123.0 L 115.0 125.0 L 115.0 128.0 L 114.0 132.0 L 114.0 137.0 L 113.0 142.0 L 112.0 148.0 L 112.0 152.0 L 111.0 156.0 L 111.0 159.0 L 111.0 161.0 L 110.0 161.0 L 110.0 161.0 L 109.0 161.0 L 108.0 161.0 L 108.0 161.0 L 107.0 160.0 L 105.0 159.0 L 104.0 158.0 L 103.0 157.0 L 101.0 156.0 L 101.0 155.0 " stroke="black" fill="none" stroke-width="5.0" stroke-linecap="round" stroke-linejoin="round" />
<path d="M 100.0 123.0 L 100.0 123.0 L 100.0 123.0 L 100.0 123.0 L 99.0 123.0 L 99.0 123.0 L 98.0 123.0 L 98.0 123.0 L 97.0 125.0 L 96.0 128.0 L 94.0 132.0 L 90.0 137.0 L 86.0 143.0 L 81.0 150.0 L 75.0 156.0 L 71.0 160.0 L 67.0 164.0 L 63.0 167.0 L 61.0 169.0 L 60.0 170.0 " stroke="black" fill="none" stroke-width="5.0" stroke-linecap="round" stroke-linejoin="round" />
<path d="M 215.0 113.0 L 215.0 113.0 L 213.0 113.0 L 212.0 113.0 L 210.0 113.0 L 209.0 114.0 L 208.0 114.0 L 207.0 114.0 L 206.0 115.0 L 204.0 115.0 L 202.0 116.0 L 200.0 117.0 L 198.0 118.0 L 196.0 119.0 L 194.0 121.0 L 192.0 122.0 L 189.0 123.0 L 187.0 124.0 L 186.0 125.0 L 184.0 126.0 L 182.0 127.0 L 181.0 128.0 L 181.0 128.0 L 180.0 128.0 L 180.0 128.0 L 180.0 129.0 L 180.0 129.0 L 180.0 129.0 L 180.0 129.0 L 180.0 130.0 L 181.0 130.0 L 181.0 131.0 L 182.0 132.0 L 182.0 133.0 L 183.0 134.0 L 184.0 135.0 L 184.0 136.0 L 184.0 138.0 L 185.0 140.0 L 185.0 142.0 L 185.0 144.0 L 185.0 147.0 L 185.0 150.0 L 185.0 153.0 L 185.0 155.0 L 184.0 158.0 L 184.0 160.0 L 184.0 162.0 L 184.0 163.0 L 184.0 164.0 L 184.0 164.0 L 184.0 164.0 L 184.0 164.0 L 184.0 164.0 L 185.0 163.0 L 186.0 162.0 L 188.0 161.0 L 190.0 160.0 L 192.0 159.0 L 195.0 157.0 L 199.0 155.0 L 203.0 152.0 L 207.0 150.0 L 212.0 147.0 " stroke="black" fill="none" stroke-width="5.0" stroke-linecap="round" stroke-linejoin="round" />
<path d="M 209.0 124.0 L 209.0 124.0 L 209.0 124.0 L 209.0 125.0 L 209.0 126.0 L 210.0 127.0 L 211.0 128.0 L 213.0 130.0 L 216.0 133.0 L 219.0 137.0 L 223.0 141.0 L 228.0 145.0 L 232.0 149.0 L 235.0 152.0 L 237.0 155.0 L 239.0 157.0 L 239.0 157.0 " stroke="black" fill="none" stroke-width="5.0" stroke-linecap="round" stroke-linejoin="round" />
<path d="M 98.0 174.0 L 98.0 174.0 L 98.0 174.0 L 98.0 174.0 L 98.0 175.0 L 98.0 175.0 L 98.0 177.0 L 98.0 178.0 L 98.0 181.0 L 98.0 184.0 L 98.0 188.0 L 98.0 192.0 L 98.0 198.0 L 98.0 203.0 L 98.0 209.0 L 97.0 216.0 L 96.0 221.0 L 94.0 227.0 L 92.0 232.0 L 89.0 236.0 L 86.0 239.0 L 83.0 241.0 L 80.0 243.0 L 76.0 244.0 " stroke="black" fill="none" stroke-width="5.0" stroke-linecap="round" stroke-linejoin="round" />
<path d="M 204.0 172.0 L 204.0 172.0 L 204.0 173.0 L 204.0 173.0 L 204.0 174.0 L 204.0 176.0 L 204.0 178.0 L 204.0 181.0 L 204.0 185.0 L 205.0 191.0 L 206.0 197.0 L 207.0 204.0 L 208.0 212.0 L 208.0 220.0 L 209.0 228.0 L 209.0 237.0 L 209.0 243.0 L 210.0 248.0 L 210.0 251.0 L 210.0 252.0 " stroke="black" fill="none" stroke-width="5.0" stroke-linecap="round" stroke-linejoin="round" />
<path d="M 111.0 188.0 L 111.0 188.0 L 110.0 188.0 L 110.0 188.0 L 110.0 188.0 L 110.0 189.0 L 110.0 189.0 L 111.0 189.0 L 113.0 190.0 L 117.0 190.0 L 122.0 190.0 L 130.0 191.0 L 138.0 191.0 L 147.0 191.0 L 154.0 191.0 L 162.0 191.0 L 170.0 191.0 L 177.0 191.0 L 183.0 191.0 L 189.0 191.0 L 191.0 191.0 L 193.0 192.0 L 194.0 193.0 L 194.0 193.0 " stroke="black" fill="none" stroke-width="5.0" stroke-linecap="round" stroke-linejoin="round" />
<path d="M 113.0 221.0 L 112.0 221.0 L 112.0 221.0 L 111.0 221.0 L 110.0 221.0 L 110.0 221.0 L 110.0 221.0 L 112.0 221.0 L 116.0 220.0 L 121.0 220.0 L 129.0 220.0 L 137.0 219.0 L 145.0 219.0 L 152.0 219.0 L 158.0 220.0 L 166.0 221.0 L 173.0 221.0 L 180.0 221.0 L 187.0 221.0 L 192.0 220.0 L 196.0 219.0 " stroke="black" fill="none" stroke-width="5.0" stroke-linecap="round" stroke-linejoin="round" />
</svg>