<svg xmlns="http://www.w3.org/2000/svg" width="300" height="300" viewBox="0 0 300 300">
<path d="M 184.0 139.0 L 184.0 139.0 L 184.0 139.0 L 184.0 139.0 L 184.0 139.0 L 184.0 139.0 L 184.0 139.0 L 184.0 139.0 L 184.0 139.0 L 184.0 139.0 L 184.0 139.0 L 184.0 139.0 L 184.0 139.0 L 184.0 139.0 L 184.0 139.0 L 184.0 139.0 L 183.0 139.0 L 183.0 138.0 L 183.0 138.0 L 182.0 138.0 L 181.0 137.0 L 181.0 137.0 L 180.0 136.0 L 179.0 136.0 L 178.0 136.0 L 177.0 135.0 L 176.0 135.0 L 175.0 134.0 L 174.0 134.0 L 173.0 133.0 L 172.0 133.0 L 171.0 132.0 L 170.0 132.0 L 169.0 132.0 L 169.0 131.0 L 168.0 131.0 L 167.0 130.0 L 166.0 130.0 L 165.0 130.0 L 164.0 130.0 L 163.0 130.0 L 163.0 130.0 L 162.0 130.0 L 161.0 130.0 L 160.0 130.0 L 159.0 129.0 L 159.0 129.0 L 158.0 129.0 L 157.0 129.0 L 157.0 129.0 L 156.0 129.0 L 155.0 129.0 L 155.0 129.0 L 154.0 129.0 L 153.0 129.0 L 153.0 129.0 L 152.0 129.0 L 152.0 129.0 L 151.0 129.0 L 150.0 129.0 L 150.0 129.0 L 149.0 129.0 L 148.0 129.0 L 147.0 129.0 L 146.0 129.0 L 146.0 129.0 L 145.0 129.0 L 144.0 129.0 L 143.0 129.0 L 143.0 129.0 L 141.0 130.0 L 141.0 130.0 L 139.0 130.0 L 138.0 131.0 L 137.0 131.0 L 136.0 132.0 L 134.0 132.0 L 132.0 133.0 L 131.0 134.0 L 129.0 135.0 L 128.0 136.0 L 126.0 137.0 L 125.0 138.0 L 124.0 139.0 L 123.0 140.0 L 122.0 142.0 L 121.0 143.0 L 120.0 144.0 L 119.0 146.0 L 119.0 147.0 L 118.0 148.0 L 118.0 150.0 L 118.0 151.0 L 117.0 152.0 L 117.0 153.0 L 117.0 154.0 L 117.0 155.0 L 117.0 156.0 L 117.0 157.0 L 117.0 157.0 L 117.0 158.0 L 117.0 159.0 L 117.0 160.0 L 117.0 160.0 L 117.0 161.0 L 118.0 162.0 L 118.0 163.0 L 118.0 163.0 L 119.0 164.0 L 119.0 165.0 L 120.0 165.0 L 120.0 166.0 L 121.0 167.0 L 122.0 167.0 L 122.0 168.0 L 123.0 168.0 L 124.0 169.0 L 125.0 169.0 L 126.0 170.0 L 127.0 170.0 L 128.0 171.0 L 130.0 171.0 L 131.0 171.0 L 133.0 172.0 L 134.0 172.0 L 136.0 173.0 L 137.0 173.0 L 139.0 174.0 L 140.0 174.0 L 141.0 175.0 L 143.0 175.0 L 144.0 175.0 L 145.0 176.0 L 146.0 176.0 L 147.0 176.0 L 148.0 177.0 L 150.0 177.0 L 151.0 177.0 L 152.0 178.0 L 152.0 178.0 L 153.0 179.0 L 154.0 179.0 L 155.0 180.0 L 156.0 180.0 L 157.0 180.0 L 158.0 181.0 L 159.0 182.0 L 160.0 182.0 L 161.0 183.0 L 162.0 184.0 L 164.0 185.0 L 165.0 186.0 L 167.0 186.0 L 168.0 187.0 L 169.0 188.0 L 171.0 189.0 L 172.0 190.0 L 173.0 190.0 L 174.0 191.0 L 175.0 192.0 L 177.0 193.0 L 178.0 194.0 L 179.0 195.0 L 180.0 196.0 L 181.0 198.0 L 182.0 199.0 L 183.0 200.0 L 184.0 201.0 L 184.0 202.0 L 185.0 203.0 L 185.0 204.0 L 185.0 205.0 L 186.0 206.0 L 186.0 206.0 L 186.0 207.0 L 187.0 208.0 L 187.0 209.0 L 187.0 210.0 L 187.0 211.0 L 187.0 212.0 L 187.0 213.0 L 187.0 214.0 L 187.0 215.0 L 187.0 216.0 L 187.0 217.0 L 187.0 218.0 L 187.0 219.0 L 187.0 221.0 L 186.0 222.0 L 186.0 223.0 L 186.0 223.0 L 185.0 224.0 L 185.0 225.0 L 184.0 226.0 L 183.0 227.0 L 183.0 227.0 L 182.0 228.0 L 181.0 229.0 L 181.0 229.0 L 180.0 230.0 L 179.0 230.0 L 178.0 231.0 L 177.0 232.0 L 176.0 232.0 L 176.0 233.0 L 175.0 233.0 L 173.0 234.0 L 172.0 234.0 L 171.0 235.0 L 170.0 235.0 L 169.0 236.0 L 168.0 236.0 L 166.0 236.0 L 165.0 236.0 L 164.0 237.0 L 163.0 237.0 L 161.0 237.0 L 160.0 238.0 L 159.0 238.0 L 158.0 238.0 L 157.0 239.0 L 156.0 239.0 L 155.0 239.0 L 154.0 239.0 L 153.0 239.0 L 152.0 239.0 L 151.0 239.0 L 150.0 239.0 L 150.0 240.0 L 149.0 240.0 L 148.0 240.0 L 148.0 240.0 L 147.0 240.0 L 146.0 241.0 L 145.0 241.0 L 144.0 241.0 L 143.0 241.0 L 142.0 241.0 L 141.0 241.0 L 140.0 241.0 L 138.0 241.0 L 137.0 241.0 L 135.0 240.0 L 133.0 240.0 L 132.0 240.0 L 130.0 239.0 L 128.0 239.0 L 126.0 238.0 L 125.0 237.0 L 123.0 237.0 L 122.0 236.0 L 121.0 236.0 L 120.0 235.0 L 119.0 234.0 L 118.0 234.0 L 118.0 233.0 L 117.0 232.0 L 116.0 231.0 L 116.0 230.0 L 116.0 229.0 L 116.0 227.0 L 116.0 225.0 L 116.0 223.0 " stroke="black" fill="none" stroke-width="5.0" stroke-linecap="round" stroke-linejoin="round" />
<path d="M 152.0 110.0 L 152.0 110.0 L 152.0 110.0 L 152.0 110.0 L 152.0 111.0 L 152.0 111.0 L 153.0 112.0 L 153.0 113.0 L 153.0 115.0 L 153.0 117.0 L 154.0 119.0 L 154.0 122.0 L 154.0 124.0 L 154.0 126.0 L 154.0 127.0 " stroke="black" fill="none" stroke-width="5.0" stroke-linecap="round" stroke-linejoin="round" />
<path d="M 152.0 242.0 L 152.0 241.0 L 152.0 240.0 L 152.0 239.0 L 152.0 238.0 L 152.0 238.0 L 152.0 237.0 L 152.0 237.0 L 152.0 237.0 L 152.0 238.0 L 152.0 240.0 L 152.0 242.0 L 152.0 244.0 L 152.0 247.0 L 152.0 250.0 L 152.0 254.0 L 152.0 257.0 L 152.0 261.0 L 152.0 263.0 L 152.0 265.0 L 152.0 265.0 " stroke="black" fill="none" stroke-width="5.0" stroke-linecap="round" stroke-linejoin="round" />
</svg>