<svg xmlns="http://www.w3.org/2000/svg" width="300" height="300" viewBox="0 0 300 300">
<path d="M 151.0 225.0 L 151.0 225.0 L 151.0 225.0 L 151.0 225.0 L 151.0 225.0 L 151.0 225.0 L 151.0 225.0 L 150.0 225.0 L 150.0 225.0 L 150.0 225.0 L 150.0 225.0 L 150.0 225.0 L 150.0 225.0 L 150.0 225.0 L 150.0 226.0 L 150.0 226.0 L 150.0 226.0 L 150.0 226.0 L 150.0 226.0 L 151.0 226.0 L 152.0 226.0 L 152.0 225.0 L 153.0 225.0 L 153.0 224.0 L 153.0 224.0 L 153.0 224.0 L 153.0 223.0 L 153.0 223.0 L 153.0 223.0 L 153.0 223.0 L 152.0 223.0 L 152.0 223.0 L 151.0 224.0 L 151.0 225.0 L 151.0 226.0 L 151.0 227.0 L 151.0 228.0 L 151.0 229.0 L 151.0 230.0 L 151.0 230.0 L 152.0 231.0 L 153.0 231.0 L 154.0 231.0 L 155.0 231.0 L 156.0 230.0 L 157.0 229.0 L 157.0 228.0 L 157.0 227.0 L 157.0 225.0 L 157.0 224.0 L 157.0 223.0 L 156.0 222.0 L 155.0 221.0 L 154.0 221.0 L 153.0 221.0 L 152.0 221.0 L 152.0 221.0 L 151.0 221.0 L 151.0 223.0 L 150.0 225.0 L 150.0 227.0 L 150.0 228.0 L 150.0 230.0 L 150.0 231.0 L 150.0 232.0 L 151.0 233.0 L 151.0 233.0 L 152.0 233.0 L 153.0 233.0 L 153.0 232.0 L 153.0 231.0 L 153.0 230.0 L 153.0 229.0 L 153.0 227.0 L 153.0 226.0 L 153.0 225.0 L 152.0 224.0 L 152.0 223.0 L 151.0 222.0 L 150.0 222.0 L 149.0 222.0 L 149.0 222.0 L 148.0 222.0 L 148.0 224.0 L 148.0 225.0 L 148.0 227.0 L 148.0 229.0 L 148.0 230.0 L 148.0 231.0 L 149.0 232.0 L 150.0 232.0 L 151.0 232.0 L 152.0 232.0 L 153.0 232.0 L 153.0 232.0 L 154.0 230.0 L 154.0 229.0 L 155.0 228.0 L 155.0 227.0 L 155.0 226.0 L 154.0 225.0 L 153.0 224.0 L 152.0 223.0 L 151.0 222.0 L 150.0 222.0 L 149.0 222.0 L 148.0 222.0 L 148.0 222.0 L 147.0 224.0 L 147.0 225.0 L 147.0 228.0 L 147.0 230.0 L 147.0 231.0 L 147.0 233.0 L 148.0 234.0 L 149.0 235.0 L 150.0 235.0 L 151.0 235.0 L 152.0 235.0 L 153.0 235.0 L 154.0 233.0 L 155.0 232.0 L 155.0 230.0 L 156.0 229.0 L 156.0 227.0 L 156.0 226.0 L 155.0 225.0 L 154.0 224.0 L 153.0 224.0 L 152.0 223.0 L 150.0 223.0 L 149.0 223.0 L 149.0 223.0 L 148.0 224.0 L 148.0 225.0 L 148.0 227.0 L 148.0 229.0 L 148.0 231.0 L 148.0 233.0 L 149.0 234.0 L 149.0 235.0 L 150.0 236.0 L 151.0 236.0 L 152.0 236.0 L 153.0 236.0 L 153.0 234.0 L 154.0 233.0 L 154.0 231.0 L 154.0 229.0 L 154.0 228.0 L 154.0 226.0 L 154.0 225.0 L 154.0 224.0 L 153.0 223.0 L 153.0 222.0 L 152.0 222.0 L 151.0 222.0 L 151.0 222.0 L 151.0 224.0 L 150.0 225.0 L 150.0 227.0 L 150.0 229.0 L 150.0 230.0 L 150.0 231.0 L 150.0 231.0 L 151.0 232.0 L 152.0 232.0 L 152.0 232.0 L 153.0 232.0 L 154.0 232.0 L 155.0 232.0 L 155.0 231.0 L 156.0 230.0 L 156.0 230.0 L 157.0 229.0 L 157.0 228.0 L 157.0 228.0 L 157.0 227.0 L 157.0 227.0 L 157.0 227.0 L 157.0 227.0 L 157.0 227.0 L 157.0 226.0 L 157.0 226.0 L 157.0 226.0 L 157.0 226.0 L 157.0 226.0 L 157.0 226.0 L 157.0 226.0 L 157.0 227.0 L 157.0 227.0 L 157.0 227.0 L 157.0 228.0 L 157.0 229.0 L 157.0 229.0 L 157.0 230.0 L 157.0 230.0 L 157.0 231.0 L 157.0 232.0 L 157.0 233.0 L 157.0 234.0 L 157.0 235.0 L 157.0 236.0 L 157.0 237.0 L 157.0 239.0 L 157.0 240.0 L 157.0 242.0 L 157.0 244.0 L 156.0 246.0 L 155.0 248.0 L 154.0 249.0 L 153.0 251.0 L 152.0 253.0 L 151.0 255.0 L 149.0 257.0 L 148.0 259.0 L 146.0 261.0 L 145.0 262.0 L 144.0 264.0 L 143.0 265.0 L 142.0 266.0 L 142.0 267.0 L 141.0 267.0 L 141.0 267.0 " stroke="black" fill="none" stroke-width="5.0" stroke-linecap="round" stroke-linejoin="round" />
</svg>