<svg xmlns="http://www.w3.org/2000/svg" width="300" height="300" viewBox="0 0 300 300">
<path d="M 117.0 163.0 L 117.0 163.0 L 117.0 163.0 L 117.0 163.0 L 117.0 163.0 L 117.0 163.0 L 117.0 163.0 L 117.0 163.0 L 117.0 163.0 L 117.0 163.0 L 117.0 163.0 L 117.0 163.0 L 117.0 163.0 L 117.0 163.0 L 118.0 163.0 L 119.0 164.0 L 121.0 164.0 L 122.0 165.0 L 123.0 165.0 L 125.0 166.0 L 126.0 166.0 L 128.0 167.0 L 130.0 168.0 L 132.0 168.0 L 134.0 169.0 L 136.0 169.0 L 138.0 170.0 L 139.0 170.0 L 141.0 171.0 L 142.0 172.0 L 144.0 172.0 L 145.0 173.0 L 146.0 173.0 L 147.0 174.0 L 148.0 174.0 L 150.0 175.0 L 150.0 175.0 L 152.0 175.0 L 152.0 176.0 L 153.0 176.0 L 155.0 176.0 L 155.0 177.0 L 157.0 177.0 L 158.0 178.0 L 159.0 178.0 L 160.0 178.0 L 161.0 179.0 L 162.0 180.0 L 164.0 180.0 L 165.0 181.0 L 167.0 182.0 L 168.0 183.0 L 170.0 184.0 L 172.0 184.0 L 174.0 185.0 L 176.0 186.0 L 177.0 186.0 L 179.0 187.0 L 180.0 187.0 L 182.0 188.0 L 183.0 188.0 L 184.0 189.0 L 185.0 189.0 L 186.0 190.0 L 187.0 190.0 L 188.0 191.0 L 188.0 191.0 L 189.0 192.0 L 189.0 192.0 L 189.0 192.0 L 189.0 192.0 L 189.0 193.0 L 189.0 193.0 L 189.0 193.0 L 189.0 193.0 L 189.0 193.0 L 189.0 193.0 L 189.0 193.0 L 188.0 193.0 L 188.0 193.0 L 187.0 193.0 L 186.0 194.0 L 185.0 194.0 L 184.0 195.0 L 182.0 196.0 L 180.0 196.0 L 178.0 198.0 L 175.0 199.0 L 172.0 200.0 L 168.0 202.0 L 165.0 204.0 L 162.0 206.0 L 159.0 207.0 L 156.0 209.0 L 153.0 210.0 L 151.0 212.0 L 148.0 213.0 L 146.0 214.0 L 143.0 216.0 L 140.0 217.0 L 136.0 218.0 L 133.0 219.0 L 130.0 220.0 L 126.0 221.0 L 124.0 221.0 L 122.0 222.0 L 120.0 223.0 L 119.0 224.0 L 119.0 224.0 L 118.0 224.0 L 118.0 224.0 L 118.0 224.0 L 118.0 224.0 L 118.0 224.0 L 118.0 224.0 L 118.0 224.0 L 118.0 224.0 L 119.0 224.0 L 120.0 224.0 L 121.0 224.0 " stroke="black" fill="none" stroke-width="5.0" stroke-linecap="round" stroke-linejoin="round" />
</svg>