<svg xmlns="http://www.w3.org/2000/svg" width="300" height="300" viewBox="0 0 300 300">
<path d="M 179.0 165.0 L 179.0 165.0 L 178.0 165.0 L 178.0 165.0 L 178.0 166.0 L 177.0 166.0 L 176.0 167.0 L 175.0 167.0 L 174.0 168.0 L 173.0 168.0 L 171.0 169.0 L 169.0 171.0 L 166.0 172.0 L 164.0 173.0 L 161.0 174.0 L 159.0 175.0 L 156.0 177.0 L 154.0 178.0 L 152.0 179.0 L 150.0 180.0 L 148.0 181.0 L 146.0 182.0 L 144.0 183.0 L 142.0 185.0 L 139.0 186.0 L 137.0 187.0 L 135.0 188.0 L 132.0 188.0 L 130.0 189.0 L 127.0 189.0 L 125.0 190.0 L 123.0 190.0 L 121.0 191.0 L 120.0 191.0 L 118.0 192.0 L 117.0 193.0 L 116.0 193.0 L 115.0 194.0 L 115.0 194.0 L 114.0 194.0 L 114.0 195.0 L 114.0 195.0 L 114.0 195.0 L 114.0 195.0 L 114.0 195.0 L 114.0 195.0 L 114.0 195.0 L 114.0 196.0 L 114.0 196.0 L 114.0 196.0 L 114.0 196.0 L 114.0 197.0 L 115.0 197.0 L 115.0 197.0 L 116.0 198.0 L 116.0 198.0 L 117.0 198.0 L 118.0 199.0 L 119.0 199.0 L 121.0 200.0 L 122.0 201.0 L 125.0 202.0 L 127.0 203.0 L 130.0 204.0 L 134.0 205.0 L 138.0 206.0 L 142.0 207.0 L 146.0 209.0 L 149.0 210.0 L 152.0 211.0 L 155.0 213.0 L 159.0 214.0 L 162.0 215.0 L 165.0 216.0 L 168.0 217.0 L 170.0 218.0 L 172.0 218.0 L 174.0 219.0 L 175.0 219.0 L 176.0 219.0 L 177.0 219.0 L 177.0 220.0 L 178.0 220.0 L 178.0 220.0 L 178.0 220.0 L 178.0 220.0 " stroke="black" fill="none" stroke-width="5.0" stroke-linecap="round" stroke-linejoin="round" />
</svg>