<svg xmlns="http://www.w3.org/2000/svg" width="300" height="300" viewBox="0 0 300 300">
<path d="M 108.0 110.0 L 108.0 110.0 L 108.0 110.0 L 108.0 110.0 L 107.0 110.0 L 107.0 109.0 L 107.0 109.0 L 107.0 109.0 L 107.0 108.0 L 107.0 108.0 L 107.0 108.0 L 107.0 107.0 L 107.0 107.0 L 107.0 107.0 L 107.0 106.0 L 107.0 106.0 L 107.0 105.0 L 108.0 105.0 L 109.0 104.0 L 109.0 104.0 L 110.0 103.0 L 111.0 103.0 L 112.0 102.0 L 114.0 101.0 L 115.0 101.0 L 116.0 100.0 L 118.0 99.0 L 120.0 99.0 L 122.0 98.0 L 123.0 98.0 L 125.0 98.0 L 127.0 97.0 L 129.0 97.0 L 131.0 96.0 L 133.0 96.0 L 135.0 95.0 L 136.0 95.0 L 138.0 94.0 L 139.0 94.0 L 140.0 94.0 L 141.0 94.0 L 142.0 94.0 L 143.0 94.0 L 144.0 94.0 L 145.0 94.0 L 146.0 94.0 L 148.0 94.0 L 149.0 94.0 L 150.0 94.0 L 152.0 94.0 L 153.0 94.0 L 154.0 94.0 L 155.0 94.0 L 156.0 95.0 L 157.0 95.0 L 159.0 95.0 L 159.0 95.0 L 162.0 96.0 L 163.0 96.0 L 165.0 97.0 L 167.0 98.0 L 169.0 99.0 L 171.0 100.0 L 174.0 101.0 L 176.0 103.0 L 179.0 104.0 L 181.0 105.0 L 183.0 106.0 L 185.0 107.0 L 186.0 108.0 L 187.0 109.0 L 188.0 111.0 L 189.0 112.0 L 189.0 113.0 L 189.0 114.0 L 189.0 116.0 L 189.0 118.0 L 189.0 119.0 L 189.0 121.0 L 189.0 123.0 L 189.0 125.0 L 188.0 126.0 L 187.0 128.0 L 187.0 130.0 L 186.0 132.0 L 185.0 133.0 L 184.0 135.0 L 183.0 137.0 L 181.0 138.0 L 180.0 140.0 L 178.0 142.0 L 176.0 144.0 L 173.0 146.0 L 171.0 147.0 L 168.0 149.0 L 165.0 150.0 L 162.0 151.0 L 160.0 152.0 L 157.0 153.0 L 155.0 154.0 L 153.0 155.0 L 151.0 156.0 L 149.0 156.0 L 148.0 157.0 L 146.0 158.0 L 145.0 158.0 L 144.0 159.0 L 142.0 159.0 L 141.0 160.0 L 140.0 160.0 L 138.0 160.0 L 137.0 161.0 L 136.0 161.0 L 135.0 161.0 L 135.0 161.0 L 135.0 161.0 L 134.0 162.0 L 134.0 162.0 L 134.0 162.0 L 134.0 162.0 L 134.0 162.0 L 134.0 162.0 L 134.0 162.0 L 134.0 162.0 L 134.0 162.0 L 134.0 162.0 L 135.0 162.0 L 135.0 162.0 L 136.0 162.0 L 137.0 162.0 L 138.0 162.0 L 139.0 162.0 L 140.0 162.0 L 142.0 162.0 L 143.0 162.0 L 144.0 162.0 L 145.0 162.0 L 147.0 162.0 L 148.0 162.0 L 149.0 162.0 L 150.0 162.0 L 152.0 162.0 L 153.0 162.0 L 154.0 162.0 L 155.0 163.0 L 157.0 163.0 L 158.0 163.0 L 160.0 164.0 L 161.0 164.0 L 163.0 164.0 L 164.0 165.0 L 166.0 165.0 L 168.0 166.0 L 169.0 166.0 L 170.0 166.0 L 172.0 167.0 L 173.0 167.0 L 175.0 168.0 L 177.0 168.0 L 178.0 168.0 L 179.0 169.0 L 181.0 170.0 L 182.0 171.0 L 183.0 171.0 L 184.0 172.0 L 185.0 173.0 L 185.0 175.0 L 186.0 176.0 L 187.0 177.0 L 187.0 179.0 L 188.0 180.0 L 188.0 182.0 L 189.0 184.0 L 189.0 185.0 L 190.0 187.0 L 190.0 188.0 L 191.0 190.0 L 191.0 191.0 L 191.0 193.0 L 192.0 194.0 L 192.0 195.0 L 192.0 197.0 L 192.0 198.0 L 192.0 200.0 L 192.0 202.0 L 192.0 203.0 L 192.0 205.0 L 192.0 206.0 L 191.0 208.0 L 191.0 209.0 L 191.0 211.0 L 190.0 212.0 L 190.0 213.0 L 189.0 214.0 L 188.0 216.0 L 187.0 217.0 L 186.0 219.0 L 185.0 221.0 L 184.0 222.0 L 183.0 224.0 L 181.0 226.0 L 180.0 227.0 L 178.0 229.0 L 176.0 230.0 L 175.0 231.0 L 172.0 232.0 L 170.0 233.0 L 168.0 234.0 L 165.0 235.0 L 163.0 236.0 L 160.0 236.0 L 158.0 237.0 L 156.0 238.0 L 155.0 238.0 L 153.0 238.0 L 151.0 239.0 L 150.0 239.0 L 148.0 239.0 L 145.0 239.0 L 143.0 239.0 L 141.0 238.0 L 137.0 238.0 L 134.0 237.0 L 131.0 237.0 L 128.0 236.0 L 124.0 235.0 L 121.0 234.0 L 117.0 233.0 L 113.0 231.0 L 110.0 229.0 L 107.0 227.0 L 104.0 225.0 L 102.0 223.0 L 101.0 222.0 L 100.0 221.0 L 99.0 219.0 L 98.0 218.0 L 98.0 217.0 L 98.0 216.0 L 98.0 214.0 L 98.0 213.0 " stroke="black" fill="none" stroke-width="5.0" stroke-linecap="round" stroke-linejoin="round" />
</svg>