<svg xmlns="http://www.w3.org/2000/svg" width="300" height="300" viewBox="0 0 300 300">
<path d="M 115.0 128.0 L 115.0 128.0 L 115.0 128.0 L 115.0 127.0 L 115.0 127.0 L 115.0 127.0 L 115.0 127.0 L 115.0 127.0 L 115.0 127.0 L 115.0 127.0 L 115.0 126.0 L 115.0 126.0 L 115.0 126.0 L 115.0 126.0 L 115.0 126.0 L 115.0 127.0 L 115.0 127.0 L 115.0 128.0 L 116.0 129.0 L 116.0 131.0 L 116.0 132.0 L 116.0 134.0 L 116.0 137.0 L 116.0 140.0 L 116.0 143.0 L 116.0 146.0 L 116.0 148.0 L 116.0 151.0 L 116.0 153.0 L 116.0 155.0 L 116.0 157.0 L 116.0 159.0 L 116.0 160.0 L 116.0 162.0 L 116.0 163.0 L 116.0 165.0 L 116.0 166.0 L 116.0 168.0 L 116.0 169.0 L 115.0 170.0 L 115.0 172.0 L 115.0 173.0 L 115.0 174.0 L 115.0 175.0 L 115.0 176.0 L 115.0 178.0 L 115.0 179.0 L 115.0 180.0 L 115.0 181.0 L 115.0 182.0 L 115.0 183.0 L 115.0 185.0 L 115.0 186.0 L 115.0 187.0 L 115.0 188.0 L 115.0 189.0 L 115.0 190.0 L 115.0 191.0 L 115.0 192.0 L 115.0 193.0 L 115.0 193.0 L 115.0 194.0 L 115.0 194.0 L 115.0 194.0 L 116.0 194.0 L 116.0 194.0 L 116.0 194.0 L 116.0 194.0 L 116.0 194.0 L 116.0 194.0 L 116.0 194.0 L 116.0 194.0 L 116.0 194.0 L 116.0 194.0 L 116.0 194.0 L 116.0 194.0 L 116.0 194.0 L 116.0 194.0 L 116.0 194.0 L 116.0 194.0 L 116.0 194.0 L 116.0 194.0 L 116.0 195.0 L 116.0 195.0 L 116.0 195.0 L 116.0 195.0 L 116.0 195.0 L 116.0 195.0 L 116.0 195.0 L 116.0 195.0 L 116.0 195.0 L 116.0 195.0 L 116.0 195.0 L 117.0 195.0 L 117.0 195.0 L 117.0 195.0 L 117.0 195.0 L 118.0 195.0 L 118.0 196.0 L 118.0 196.0 L 119.0 196.0 L 119.0 196.0 L 120.0 196.0 L 121.0 196.0 L 121.0 196.0 L 122.0 196.0 L 122.0 196.0 L 123.0 196.0 L 124.0 196.0 L 124.0 196.0 L 125.0 196.0 L 126.0 196.0 L 126.0 196.0 L 127.0 196.0 L 128.0 196.0 L 129.0 196.0 L 129.0 196.0 L 130.0 196.0 L 131.0 196.0 L 132.0 196.0 L 132.0 196.0 L 133.0 196.0 L 134.0 196.0 L 135.0 196.0 L 135.0 196.0 L 136.0 196.0 L 137.0 196.0 L 138.0 196.0 L 138.0 196.0 L 139.0 196.0 L 140.0 196.0 L 141.0 196.0 L 141.0 196.0 L 142.0 196.0 L 143.0 196.0 L 143.0 196.0 L 144.0 196.0 L 145.0 196.0 L 146.0 196.0 L 146.0 195.0 L 147.0 195.0 L 148.0 195.0 L 148.0 195.0 L 149.0 195.0 L 150.0 195.0 L 150.0 195.0 L 151.0 195.0 L 151.0 195.0 L 152.0 195.0 L 153.0 195.0 L 153.0 195.0 L 154.0 194.0 L 154.0 194.0 L 155.0 194.0 L 156.0 194.0 L 157.0 194.0 L 157.0 194.0 L 158.0 194.0 L 159.0 194.0 L 160.0 194.0 L 160.0 194.0 L 161.0 194.0 L 162.0 194.0 L 163.0 194.0 L 164.0 194.0 L 165.0 194.0 L 167.0 194.0 L 168.0 194.0 L 169.0 194.0 L 170.0 194.0 L 172.0 194.0 L 173.0 194.0 L 174.0 194.0 L 175.0 194.0 L 176.0 194.0 L 177.0 194.0 L 178.0 194.0 L 179.0 194.0 L 180.0 194.0 L 180.0 194.0 L 181.0 194.0 " stroke="black" fill="none" stroke-width="5.0" stroke-linecap="round" stroke-linejoin="round" />
<path d="M 116.0 125.0 L 116.0 125.0 L 116.0 125.0 L 115.0 125.0 L 115.0 125.0 L 115.0 125.0 L 115.0 125.0 L 115.0 125.0 L 115.0 125.0 L 115.0 125.0 L 115.0 125.0 L 115.0 125.0 L 115.0 125.0 L 115.0 125.0 L 115.0 125.0 L 115.0 125.0 L 116.0 125.0 L 116.0 125.0 L 117.0 125.0 L 118.0 125.0 L 119.0 125.0 L 120.0 125.0 L 121.0 125.0 L 123.0 125.0 L 124.0 125.0 L 125.0 125.0 L 126.0 125.0 L 126.0 125.0 L 127.0 126.0 L 128.0 126.0 L 129.0 126.0 L 130.0 126.0 L 130.0 126.0 L 131.0 126.0 L 132.0 126.0 L 132.0 126.0 L 133.0 127.0 L 133.0 127.0 L 134.0 127.0 L 135.0 127.0 L 135.0 127.0 L 136.0 127.0 L 137.0 127.0 L 137.0 127.0 L 138.0 127.0 L 139.0 127.0 L 139.0 127.0 L 140.0 128.0 L 141.0 128.0 L 142.0 128.0 L 143.0 128.0 L 143.0 128.0 L 144.0 128.0 L 145.0 128.0 L 145.0 128.0 L 146.0 128.0 L 147.0 128.0 L 148.0 128.0 L 148.0 128.0 L 149.0 128.0 L 150.0 128.0 L 150.0 128.0 L 151.0 128.0 L 152.0 128.0 L 153.0 128.0 L 153.0 128.0 L 154.0 128.0 L 155.0 128.0 L 156.0 128.0 L 156.0 128.0 L 157.0 128.0 L 158.0 128.0 L 159.0 128.0 L 160.0 127.0 L 161.0 127.0 L 162.0 127.0 L 162.0 127.0 L 163.0 127.0 L 164.0 127.0 L 165.0 127.0 L 166.0 127.0 L 167.0 127.0 L 168.0 127.0 L 169.0 127.0 L 170.0 127.0 L 171.0 127.0 L 172.0 127.0 L 173.0 127.0 L 174.0 127.0 L 175.0 127.0 L 175.0 127.0 L 176.0 127.0 L 177.0 127.0 L 178.0 127.0 L 178.0 127.0 L 179.0 127.0 L 180.0 127.0 L 180.0 127.0 L 181.0 127.0 L 181.0 127.0 L 181.0 127.0 L 182.0 127.0 L 182.0 127.0 L 182.0 127.0 L 182.0 127.0 L 182.0 127.0 L 182.0 127.0 L 182.0 127.0 L 182.0 128.0 L 182.0 128.0 L 182.0 128.0 L 182.0 128.0 L 182.0 129.0 L 182.0 130.0 L 182.0 131.0 L 182.0 132.0 L 182.0 133.0 L 182.0 135.0 L 182.0 137.0 L 182.0 139.0 L 182.0 141.0 L 182.0 144.0 L 182.0 146.0 L 182.0 149.0 L 182.0 151.0 L 182.0 154.0 L 182.0 157.0 L 182.0 159.0 L 183.0 162.0 L 183.0 164.0 L 183.0 167.0 L 183.0 169.0 L 184.0 171.0 L 184.0 173.0 L 184.0 176.0 L 184.0 178.0 L 184.0 180.0 L 184.0 182.0 L 184.0 184.0 L 184.0 186.0 L 184.0 188.0 L 184.0 189.0 L 184.0 190.0 L 184.0 190.0 L 184.0 191.0 L 184.0 191.0 L 184.0 192.0 L 184.0 192.0 L 183.0 193.0 L 183.0 193.0 L 183.0 194.0 L 183.0 194.0 L 183.0 194.0 L 183.0 194.0 L 183.0 194.0 L 183.0 194.0 L 183.0 194.0 L 183.0 193.0 " stroke="black" fill="none" stroke-width="5.0" stroke-linecap="round" stroke-linejoin="round" />
<path d="M 120.0 137.0 L 120.0 137.0 L 120.0 138.0 L 119.0 139.0 L 119.0 140.0 L 119.0 142.0 L 119.0 144.0 L 119.0 148.0 L 119.0 152.0 L 119.0 156.0 L 120.0 160.0 L 120.0 164.0 L 120.0 167.0 L 120.0 170.0 L 120.0 172.0 L 120.0 173.0 L 120.0 173.0 L 120.0 172.0 L 120.0 170.0 L 120.0 168.0 L 121.0 164.0 L 121.0 161.0 L 121.0 158.0 L 121.0 155.0 L 121.0 153.0 L 121.0 150.0 L 121.0 147.0 L 121.0 145.0 L 121.0 143.0 L 121.0 142.0 L 121.0 141.0 L 121.0 141.0 L 121.0 141.0 L 121.0 142.0 L 121.0 144.0 L 122.0 147.0 L 122.0 151.0 L 122.0 155.0 L 122.0 160.0 L 122.0 165.0 L 122.0 169.0 L 122.0 173.0 L 122.0 175.0 L 122.0 176.0 L 122.0 176.0 L 122.0 175.0 L 122.0 173.0 L 122.0 169.0 L 122.0 165.0 L 123.0 161.0 L 124.0 156.0 L 124.0 152.0 L 125.0 148.0 L 125.0 145.0 L 126.0 143.0 L 126.0 142.0 L 126.0 141.0 L 126.0 142.0 L 126.0 144.0 L 125.0 148.0 L 125.0 152.0 L 124.0 157.0 L 124.0 162.0 L 123.0 167.0 L 123.0 173.0 L 123.0 178.0 L 122.0 182.0 L 122.0 185.0 L 122.0 187.0 L 122.0 187.0 L 122.0 187.0 L 122.0 186.0 L 122.0 183.0 L 122.0 180.0 L 122.0 177.0 L 123.0 173.0 L 123.0 170.0 L 123.0 166.0 L 123.0 163.0 L 123.0 160.0 L 123.0 158.0 L 123.0 156.0 L 123.0 154.0 L 123.0 154.0 L 123.0 154.0 L 123.0 156.0 L 123.0 159.0 L 123.0 163.0 L 122.0 167.0 L 122.0 172.0 L 121.0 177.0 L 121.0 181.0 L 120.0 185.0 L 120.0 187.0 L 119.0 188.0 L 119.0 188.0 L 119.0 188.0 L 119.0 184.0 L 119.0 180.0 L 120.0 176.0 L 121.0 172.0 L 121.0 169.0 L 121.0 166.0 L 121.0 163.0 L 121.0 160.0 L 121.0 159.0 L 121.0 157.0 L 121.0 157.0 L 121.0 157.0 L 121.0 157.0 L 121.0 159.0 L 121.0 162.0 L 121.0 166.0 L 121.0 170.0 L 121.0 175.0 L 121.0 179.0 L 121.0 184.0 L 121.0 187.0 L 121.0 190.0 L 121.0 191.0 L 121.0 191.0 L 121.0 191.0 L 121.0 189.0 L 121.0 186.0 L 121.0 183.0 L 122.0 179.0 L 122.0 176.0 L 123.0 172.0 L 123.0 169.0 L 123.0 166.0 L 123.0 163.0 L 123.0 160.0 L 123.0 159.0 L 123.0 158.0 L 123.0 157.0 L 123.0 157.0 L 123.0 159.0 L 123.0 162.0 L 123.0 166.0 L 123.0 170.0 L 123.0 175.0 L 122.0 179.0 L 122.0 182.0 L 122.0 186.0 L 122.0 188.0 L 122.0 188.0 L 122.0 188.0 L 122.0 186.0 L 122.0 183.0 L 123.0 179.0 L 123.0 175.0 L 123.0 171.0 L 124.0 167.0 L 124.0 164.0 L 124.0 161.0 L 125.0 158.0 L 125.0 156.0 L 125.0 155.0 L 125.0 155.0 L 125.0 155.0 L 125.0 157.0 L 125.0 160.0 L 124.0 164.0 L 124.0 168.0 L 124.0 173.0 L 123.0 178.0 L 123.0 183.0 L 123.0 187.0 L 123.0 189.0 L 123.0 190.0 L 123.0 191.0 L 123.0 191.0 L 123.0 189.0 L 123.0 186.0 L 123.0 183.0 L 123.0 180.0 L 123.0 177.0 L 123.0 174.0 L 123.0 171.0 L 123.0 169.0 L 123.0 167.0 L 123.0 165.0 L 123.0 163.0 L 123.0 162.0 L 123.0 162.0 L 122.0 162.0 L 122.0 164.0 L 121.0 166.0 L 120.0 170.0 L 120.0 173.0 L 120.0 177.0 L 119.0 180.0 L 119.0 183.0 L 119.0 185.0 L 119.0 187.0 L 119.0 187.0 L 119.0 187.0 L 120.0 185.0 L 120.0 182.0 L 121.0 178.0 L 121.0 175.0 L 122.0 171.0 L 122.0 168.0 L 122.0 166.0 L 122.0 164.0 L 122.0 162.0 L 122.0 161.0 L 122.0 161.0 L 122.0 161.0 L 122.0 163.0 L 121.0 166.0 L 121.0 170.0 L 120.0 175.0 L 119.0 180.0 L 118.0 184.0 L 117.0 189.0 L 117.0 191.0 L 117.0 193.0 L 116.0 194.0 L 116.0 194.0 L 116.0 192.0 L 117.0 190.0 L 117.0 188.0 L 117.0 186.0 L 117.0 184.0 L 118.0 183.0 L 118.0 181.0 L 118.0 180.0 L 118.0 178.0 L 118.0 177.0 L 118.0 176.0 L 118.0 175.0 L 118.0 174.0 L 118.0 174.0 L 119.0 174.0 L 119.0 174.0 L 119.0 174.0 L 119.0 175.0 L 119.0 178.0 L 120.0 180.0 L 120.0 183.0 L 120.0 185.0 L 120.0 187.0 L 120.0 188.0 L 120.0 189.0 L 121.0 189.0 L 121.0 189.0 L 121.0 188.0 L 122.0 186.0 L 122.0 183.0 L 123.0 180.0 L 124.0 176.0 L 124.0 173.0 L 125.0 169.0 L 125.0 165.0 L 126.0 162.0 L 126.0 159.0 L 126.0 156.0 L 126.0 154.0 L 126.0 153.0 L 127.0 152.0 L 127.0 153.0 L 127.0 156.0 L 127.0 160.0 L 126.0 164.0 L 126.0 169.0 L 126.0 174.0 L 125.0 179.0 L 125.0 184.0 L 125.0 188.0 L 125.0 191.0 L 125.0 193.0 L 125.0 193.0 L 125.0 193.0 L 125.0 190.0 L 125.0 186.0 L 126.0 180.0 L 127.0 175.0 L 128.0 169.0 L 130.0 164.0 L 131.0 160.0 L 132.0 155.0 L 132.0 152.0 L 133.0 150.0 L 133.0 148.0 L 133.0 148.0 L 133.0 149.0 L 133.0 151.0 L 132.0 154.0 L 131.0 158.0 L 130.0 162.0 L 129.0 167.0 L 128.0 171.0 L 128.0 177.0 L 127.0 181.0 L 127.0 186.0 L 126.0 189.0 L 126.0 190.0 L 126.0 190.0 L 126.0 190.0 L 127.0 188.0 L 127.0 185.0 L 128.0 182.0 L 129.0 178.0 L 129.0 175.0 L 130.0 171.0 L 131.0 168.0 L 132.0 165.0 L 132.0 161.0 L 133.0 158.0 L 134.0 154.0 L 134.0 151.0 L 135.0 150.0 L 135.0 149.0 L 135.0 148.0 L 135.0 150.0 L 135.0 153.0 L 135.0 157.0 L 134.0 162.0 L 133.0 168.0 L 133.0 174.0 L 132.0 179.0 L 132.0 184.0 L 131.0 189.0 L 131.0 191.0 L 131.0 192.0 L 131.0 193.0 L 131.0 192.0 L 131.0 190.0 L 131.0 188.0 L 132.0 184.0 L 132.0 181.0 L 132.0 178.0 L 132.0 175.0 L 133.0 171.0 L 133.0 168.0 L 133.0 164.0 L 133.0 160.0 L 134.0 156.0 L 134.0 153.0 L 135.0 151.0 L 135.0 150.0 L 136.0 150.0 L 136.0 152.0 L 136.0 156.0 L 136.0 161.0 L 135.0 167.0 L 135.0 172.0 L 134.0 177.0 L 134.0 181.0 L 133.0 185.0 L 133.0 188.0 L 133.0 189.0 L 133.0 190.0 L 133.0 190.0 L 133.0 189.0 L 133.0 187.0 L 133.0 185.0 L 134.0 183.0 L 134.0 180.0 L 135.0 177.0 L 136.0 174.0 L 137.0 170.0 L 137.0 167.0 L 138.0 163.0 L 139.0 159.0 L 140.0 156.0 L 140.0 154.0 L 141.0 152.0 L 141.0 152.0 L 141.0 152.0 L 141.0 152.0 L 141.0 155.0 L 141.0 159.0 L 140.0 163.0 L 140.0 167.0 L 140.0 172.0 L 139.0 177.0 L 139.0 181.0 L 139.0 185.0 L 139.0 189.0 L 139.0 191.0 L 139.0 192.0 L 139.0 192.0 L 139.0 192.0 L 139.0 190.0 L 139.0 188.0 L 139.0 184.0 L 139.0 180.0 L 140.0 177.0 L 140.0 173.0 L 141.0 169.0 L 141.0 165.0 L 142.0 161.0 L 142.0 158.0 L 142.0 155.0 L 143.0 152.0 L 143.0 151.0 L 143.0 150.0 L 143.0 150.0 L 143.0 152.0 L 143.0 154.0 L 143.0 158.0 L 143.0 163.0 L 143.0 168.0 L 142.0 173.0 L 142.0 177.0 L 142.0 182.0 L 141.0 185.0 L 141.0 187.0 L 141.0 188.0 L 141.0 188.0 L 141.0 187.0 L 142.0 184.0 L 142.0 180.0 L 143.0 176.0 L 144.0 172.0 L 144.0 168.0 L 145.0 164.0 L 146.0 160.0 L 147.0 156.0 L 147.0 152.0 L 148.0 149.0 L 148.0 146.0 L 148.0 145.0 L 148.0 144.0 L 148.0 144.0 L 148.0 145.0 L 148.0 148.0 L 147.0 153.0 L 146.0 158.0 L 146.0 163.0 L 145.0 169.0 L 144.0 173.0 L 144.0 178.0 L 144.0 181.0 L 144.0 182.0 L 143.0 183.0 L 143.0 183.0 L 143.0 182.0 L 144.0 180.0 L 144.0 177.0 L 144.0 173.0 L 145.0 170.0 L 146.0 166.0 L 147.0 163.0 L 147.0 159.0 L 148.0 156.0 L 148.0 153.0 L 149.0 150.0 L 149.0 148.0 L 150.0 147.0 L 150.0 147.0 L 150.0 147.0 L 150.0 149.0 L 150.0 152.0 L 150.0 157.0 L 150.0 162.0 L 149.0 168.0 L 148.0 172.0 L 148.0 176.0 L 148.0 179.0 L 148.0 180.0 L 148.0 180.0 L 148.0 180.0 L 148.0 178.0 L 148.0 176.0 L 149.0 173.0 L 149.0 170.0 L 150.0 166.0 L 150.0 163.0 L 151.0 159.0 L 152.0 156.0 L 152.0 153.0 L 152.0 150.0 L 153.0 148.0 L 153.0 146.0 L 153.0 145.0 L 153.0 144.0 L 153.0 145.0 L 153.0 148.0 L 153.0 152.0 L 152.0 157.0 L 152.0 163.0 L 151.0 169.0 L 151.0 174.0 L 150.0 179.0 L 150.0 183.0 L 150.0 186.0 L 150.0 186.0 L 150.0 186.0 L 150.0 184.0 L 150.0 181.0 L 151.0 177.0 L 152.0 172.0 L 153.0 167.0 L 154.0 162.0 L 155.0 156.0 L 156.0 151.0 L 157.0 146.0 L 158.0 141.0 L 159.0 138.0 L 159.0 137.0 L 159.0 136.0 L 159.0 137.0 L 159.0 141.0 L 159.0 145.0 L 158.0 150.0 L 157.0 155.0 L 157.0 161.0 L 156.0 167.0 L 155.0 173.0 L 155.0 179.0 L 155.0 184.0 L 155.0 187.0 L 155.0 189.0 L 155.0 189.0 L 155.0 189.0 L 156.0 188.0 L 156.0 185.0 L 157.0 181.0 L 158.0 177.0 L 158.0 172.0 L 159.0 168.0 L 160.0 164.0 L 161.0 161.0 L 161.0 157.0 L 162.0 153.0 L 162.0 150.0 L 163.0 148.0 L 163.0 147.0 L 163.0 146.0 L 163.0 146.0 L 163.0 148.0 L 163.0 152.0 L 163.0 157.0 L 163.0 162.0 L 162.0 168.0 L 162.0 173.0 L 161.0 179.0 L 161.0 182.0 L 161.0 184.0 L 161.0 185.0 L 161.0 184.0 L 162.0 182.0 L 163.0 178.0 L 164.0 173.0 L 166.0 169.0 L 167.0 164.0 L 168.0 160.0 L 169.0 156.0 L 169.0 152.0 L 170.0 149.0 L 170.0 146.0 L 171.0 144.0 L 171.0 143.0 L 171.0 143.0 L 171.0 143.0 L 171.0 144.0 L 171.0 147.0 L 171.0 150.0 L 171.0 154.0 L 170.0 159.0 L 169.0 163.0 L 169.0 168.0 L 169.0 172.0 L 168.0 175.0 L 168.0 178.0 L 168.0 179.0 L 168.0 179.0 L 168.0 179.0 L 169.0 177.0 L 170.0 174.0 L 170.0 171.0 L 171.0 167.0 L 172.0 164.0 L 173.0 160.0 L 174.0 157.0 L 175.0 153.0 L 175.0 151.0 L 176.0 148.0 L 176.0 146.0 L 177.0 146.0 L 177.0 145.0 L 177.0 146.0 L 177.0 149.0 L 177.0 152.0 L 176.0 157.0 L 176.0 162.0 L 175.0 167.0 L 175.0 172.0 L 175.0 177.0 L 174.0 181.0 L 174.0 184.0 L 174.0 186.0 L 174.0 186.0 L 174.0 186.0 L 175.0 184.0 L 176.0 180.0 L 176.0 176.0 L 177.0 171.0 L 177.0 167.0 L 178.0 163.0 L 178.0 160.0 L 178.0 157.0 L 178.0 154.0 L 178.0 152.0 L 178.0 152.0 L 178.0 151.0 L 178.0 151.0 L 178.0 153.0 L 178.0 156.0 L 177.0 160.0 L 177.0 164.0 L 176.0 169.0 L 175.0 174.0 L 175.0 179.0 L 175.0 183.0 L 175.0 186.0 L 175.0 187.0 L 175.0 187.0 L 175.0 187.0 L 175.0 185.0 L 175.0 182.0 L 175.0 179.0 L 175.0 176.0 L 175.0 173.0 L 175.0 171.0 L 175.0 170.0 L 175.0 168.0 L 175.0 167.0 L 174.0 166.0 L 173.0 165.0 L 172.0 165.0 L 171.0 165.0 L 170.0 165.0 L 169.0 165.0 L 168.0 165.0 L 166.0 166.0 L 165.0 167.0 L 163.0 168.0 L 161.0 170.0 L 159.0 171.0 L 157.0 172.0 L 156.0 173.0 L 154.0 174.0 L 153.0 174.0 L 151.0 175.0 L 150.0 175.0 L 149.0 175.0 L 148.0 176.0 L 148.0 176.0 L 148.0 176.0 L 148.0 177.0 L 148.0 178.0 L 148.0 179.0 L 149.0 180.0 L 151.0 181.0 L 152.0 181.0 L 154.0 182.0 L 156.0 182.0 L 158.0 182.0 L 160.0 181.0 L 161.0 181.0 L 162.0 180.0 L 163.0 180.0 L 163.0 179.0 L 163.0 179.0 L 163.0 179.0 L 161.0 178.0 L 159.0 178.0 L 156.0 178.0 L 154.0 178.0 L 151.0 178.0 L 148.0 178.0 L 146.0 178.0 L 144.0 178.0 L 143.0 178.0 L 142.0 178.0 L 141.0 179.0 L 141.0 180.0 L 141.0 181.0 L 142.0 182.0 L 144.0 184.0 L 146.0 185.0 L 149.0 185.0 L 152.0 186.0 L 154.0 186.0 L 157.0 186.0 L 160.0 186.0 L 163.0 185.0 L 165.0 184.0 L 166.0 183.0 L 167.0 183.0 L 167.0 182.0 L 166.0 182.0 L 163.0 182.0 L 160.0 182.0 L 157.0 183.0 L 154.0 183.0 L 151.0 184.0 L 148.0 184.0 L 146.0 184.0 L 143.0 184.0 L 141.0 185.0 L 139.0 185.0 L 139.0 186.0 L 138.0 186.0 L 138.0 187.0 L 140.0 188.0 L 142.0 189.0 L 145.0 190.0 L 148.0 190.0 L 151.0 190.0 L 153.0 190.0 L 156.0 189.0 L 159.0 188.0 L 161.0 186.0 L 162.0 185.0 L 163.0 184.0 L 163.0 183.0 L 162.0 183.0 L 160.0 183.0 L 157.0 183.0 L 154.0 184.0 L 152.0 185.0 L 149.0 185.0 L 146.0 186.0 L 143.0 186.0 L 140.0 186.0 L 138.0 186.0 L 136.0 186.0 L 135.0 186.0 L 134.0 186.0 L 134.0 187.0 L 135.0 188.0 L 137.0 189.0 L 140.0 190.0 L 143.0 191.0 L 146.0 191.0 L 149.0 191.0 L 152.0 191.0 L 154.0 191.0 L 155.0 190.0 L 157.0 189.0 L 157.0 188.0 L 157.0 188.0 L 157.0 188.0 L 155.0 188.0 L 153.0 188.0 L 151.0 188.0 L 148.0 188.0 L 145.0 189.0 L 142.0 189.0 L 139.0 189.0 L 136.0 189.0 L 134.0 189.0 L 132.0 189.0 L 131.0 189.0 L 130.0 189.0 L 130.0 189.0 L 130.0 189.0 L 131.0 189.0 L 133.0 190.0 L 135.0 191.0 L 138.0 191.0 L 141.0 191.0 L 144.0 191.0 L 146.0 191.0 L 149.0 191.0 L 151.0 191.0 L 153.0 190.0 L 154.0 189.0 L 155.0 189.0 L 155.0 188.0 L 155.0 188.0 L 154.0 188.0 L 152.0 188.0 L 149.0 188.0 L 146.0 189.0 L 143.0 189.0 L 140.0 189.0 L 137.0 190.0 L 135.0 190.0 L 133.0 190.0 L 132.0 191.0 L 131.0 191.0 L 131.0 191.0 L 131.0 191.0 L 131.0 192.0 L 132.0 192.0 L 133.0 192.0 L 135.0 192.0 L 137.0 192.0 L 139.0 192.0 L 141.0 192.0 L 143.0 191.0 L 145.0 191.0 L 146.0 190.0 L 147.0 189.0 L 148.0 188.0 L 149.0 188.0 L 149.0 188.0 L 150.0 187.0 L 150.0 187.0 L 150.0 187.0 L 150.0 187.0 L 149.0 187.0 L 148.0 187.0 L 147.0 187.0 L 146.0 188.0 L 144.0 188.0 L 142.0 188.0 L 140.0 188.0 L 139.0 188.0 L 137.0 188.0 L 135.0 188.0 L 134.0 188.0 L 132.0 188.0 L 131.0 188.0 L 130.0 188.0 " stroke="black" fill="none" stroke-width="5.0" stroke-linecap="round" stroke-linejoin="round" />
<path d="M 157.0 188.0 L 158.0 188.0 L 159.0 189.0 L 160.0 189.0 L 162.0 190.0 L 164.0 190.0 L 165.0 190.0 L 167.0 190.0 L 169.0 189.0 L 171.0 188.0 L 172.0 186.0 L 173.0 185.0 L 174.0 184.0 L 174.0 183.0 L 174.0 182.0 L 173.0 182.0 L 171.0 182.0 L 169.0 182.0 L 167.0 182.0 L 164.0 182.0 L 162.0 182.0 L 160.0 183.0 L 158.0 183.0 L 157.0 184.0 L 157.0 184.0 L 156.0 185.0 L 156.0 186.0 L 156.0 187.0 L 157.0 188.0 L 158.0 189.0 L 160.0 190.0 L 162.0 190.0 L 165.0 191.0 L 168.0 191.0 L 170.0 191.0 L 173.0 191.0 L 175.0 190.0 L 177.0 188.0 L 179.0 187.0 L 180.0 186.0 L 180.0 185.0 L 180.0 184.0 L 180.0 183.0 L 178.0 182.0 L 176.0 181.0 L 175.0 181.0 " stroke="black" fill="none" stroke-width="5.0" stroke-linecap="round" stroke-linejoin="round" />
<path d="M 145.0 145.0 L 144.0 145.0 L 143.0 145.0 L 141.0 145.0 L 140.0 145.0 L 140.0 145.0 L 140.0 146.0 L 140.0 146.0 L 141.0 147.0 L 142.0 147.0 L 144.0 148.0 L 147.0 148.0 L 149.0 148.0 L 151.0 148.0 L 154.0 148.0 L 156.0 148.0 L 158.0 148.0 L 160.0 147.0 L 161.0 147.0 L 162.0 146.0 L 163.0 146.0 L 163.0 145.0 L 163.0 145.0 L 162.0 145.0 L 160.0 144.0 L 158.0 144.0 L 156.0 144.0 L 154.0 144.0 L 152.0 144.0 L 150.0 143.0 L 149.0 143.0 L 148.0 143.0 L 147.0 144.0 L 147.0 145.0 L 147.0 146.0 L 147.0 147.0 L 148.0 148.0 L 149.0 150.0 L 151.0 150.0 L 153.0 150.0 L 155.0 150.0 L 157.0 150.0 L 159.0 148.0 " stroke="black" fill="none" stroke-width="5.0" stroke-linecap="round" stroke-linejoin="round" />
<path d="M 149.0 153.0 L 148.0 154.0 L 146.0 155.0 L 145.0 155.0 L 144.0 156.0 L 144.0 156.0 L 144.0 156.0 L 144.0 156.0 L 144.0 156.0 L 144.0 155.0 L 146.0 154.0 L 147.0 152.0 L 148.0 151.0 L 149.0 151.0 L 150.0 150.0 L 150.0 149.0 L 151.0 149.0 L 152.0 148.0 L 152.0 147.0 L 152.0 146.0 L 152.0 145.0 L 152.0 144.0 L 150.0 143.0 L 148.0 142.0 L 146.0 141.0 L 144.0 141.0 L 141.0 141.0 L 139.0 142.0 L 138.0 144.0 L 137.0 145.0 L 137.0 147.0 L 137.0 149.0 L 139.0 151.0 L 141.0 152.0 L 143.0 153.0 L 145.0 154.0 L 147.0 154.0 L 149.0 154.0 L 151.0 153.0 L 152.0 152.0 L 153.0 150.0 L 154.0 148.0 L 154.0 147.0 L 154.0 145.0 L 153.0 144.0 L 152.0 143.0 L 150.0 142.0 L 147.0 141.0 L 145.0 140.0 L 142.0 140.0 L 140.0 140.0 L 138.0 140.0 L 137.0 141.0 L 136.0 142.0 L 136.0 144.0 L 137.0 147.0 L 138.0 149.0 L 140.0 151.0 L 142.0 152.0 L 144.0 153.0 L 146.0 153.0 L 147.0 153.0 L 149.0 152.0 L 150.0 151.0 L 150.0 149.0 L 151.0 146.0 L 151.0 144.0 L 151.0 142.0 L 150.0 140.0 L 148.0 138.0 L 146.0 137.0 L 143.0 136.0 L 140.0 135.0 L 137.0 135.0 L 134.0 134.0 L 132.0 134.0 L 130.0 134.0 L 130.0 136.0 L 130.0 138.0 L 131.0 141.0 L 133.0 144.0 L 135.0 146.0 L 137.0 148.0 L 139.0 149.0 L 142.0 150.0 L 144.0 150.0 L 146.0 150.0 L 148.0 150.0 L 150.0 149.0 L 151.0 148.0 L 151.0 146.0 L 151.0 145.0 L 150.0 143.0 L 149.0 142.0 L 147.0 141.0 L 145.0 140.0 L 143.0 139.0 L 140.0 138.0 L 137.0 138.0 L 135.0 137.0 L 133.0 137.0 L 132.0 137.0 L 131.0 138.0 L 131.0 140.0 L 132.0 142.0 L 133.0 144.0 L 135.0 145.0 L 137.0 147.0 L 138.0 148.0 L 140.0 148.0 L 142.0 148.0 L 143.0 148.0 L 144.0 147.0 L 145.0 145.0 L 145.0 144.0 L 145.0 142.0 L 145.0 141.0 L 145.0 140.0 L 143.0 139.0 L 141.0 138.0 L 139.0 138.0 L 137.0 138.0 L 135.0 137.0 L 133.0 137.0 L 131.0 137.0 L 129.0 137.0 L 128.0 138.0 L 128.0 140.0 L 128.0 142.0 L 128.0 144.0 L 129.0 147.0 L 131.0 149.0 L 133.0 151.0 L 135.0 153.0 L 137.0 154.0 L 138.0 154.0 L 139.0 155.0 L 140.0 155.0 L 140.0 155.0 L 140.0 154.0 L 140.0 153.0 L 139.0 151.0 L 138.0 150.0 L 136.0 149.0 L 135.0 147.0 L 133.0 146.0 L 132.0 145.0 L 130.0 144.0 L 129.0 144.0 L 128.0 143.0 L 127.0 143.0 L 127.0 143.0 L 127.0 143.0 L 127.0 143.0 L 128.0 145.0 L 128.0 146.0 L 129.0 148.0 L 130.0 149.0 L 131.0 150.0 L 132.0 151.0 L 132.0 151.0 L 133.0 152.0 L 134.0 152.0 L 134.0 152.0 L 135.0 150.0 L 135.0 148.0 L 135.0 147.0 L 135.0 145.0 L 135.0 143.0 L 135.0 142.0 L 135.0 141.0 L 135.0 140.0 L 134.0 139.0 L 134.0 139.0 L 133.0 139.0 L 133.0 139.0 L 132.0 140.0 L 132.0 142.0 L 132.0 143.0 L 132.0 145.0 L 133.0 146.0 L 134.0 147.0 L 135.0 148.0 L 136.0 148.0 L 136.0 148.0 L 137.0 148.0 L 137.0 147.0 L 137.0 146.0 L 137.0 145.0 L 136.0 144.0 L 135.0 143.0 L 135.0 142.0 L 134.0 142.0 L 134.0 141.0 L 133.0 141.0 L 133.0 141.0 L 133.0 141.0 L 133.0 141.0 L 134.0 141.0 L 135.0 141.0 L 136.0 141.0 L 136.0 141.0 L 137.0 141.0 L 137.0 141.0 L 138.0 141.0 L 138.0 141.0 L 138.0 141.0 L 138.0 141.0 L 138.0 140.0 L 137.0 140.0 L 136.0 139.0 L 134.0 138.0 L 133.0 137.0 L 131.0 136.0 L 129.0 135.0 L 127.0 135.0 L 126.0 134.0 L 125.0 134.0 L 124.0 134.0 L 124.0 135.0 L 124.0 136.0 L 124.0 137.0 L 126.0 138.0 L 128.0 139.0 L 130.0 140.0 L 132.0 140.0 L 134.0 140.0 L 136.0 140.0 L 137.0 140.0 L 138.0 140.0 L 139.0 140.0 L 139.0 140.0 L 139.0 139.0 L 139.0 139.0 L 138.0 138.0 L 136.0 137.0 L 135.0 137.0 L 134.0 136.0 L 133.0 136.0 L 132.0 135.0 L 131.0 135.0 L 130.0 134.0 L 129.0 134.0 L 128.0 134.0 L 128.0 133.0 L 128.0 133.0 L 128.0 134.0 L 128.0 135.0 L 129.0 136.0 L 130.0 138.0 L 132.0 139.0 L 133.0 140.0 L 135.0 141.0 L 136.0 141.0 L 137.0 141.0 L 138.0 141.0 L 138.0 141.0 L 138.0 139.0 L 138.0 138.0 L 137.0 136.0 L 135.0 135.0 L 134.0 134.0 L 132.0 133.0 L 131.0 132.0 L 129.0 132.0 L 128.0 131.0 L 128.0 131.0 L 128.0 131.0 L 128.0 132.0 L 128.0 132.0 L 128.0 133.0 L 128.0 134.0 L 129.0 135.0 L 130.0 135.0 L 131.0 135.0 L 132.0 135.0 L 133.0 135.0 L 133.0 135.0 L 133.0 135.0 L 134.0 135.0 L 134.0 135.0 L 134.0 135.0 L 134.0 135.0 L 133.0 134.0 L 132.0 133.0 L 131.0 132.0 L 130.0 132.0 L 129.0 131.0 L 128.0 131.0 L 127.0 131.0 L 126.0 130.0 L 126.0 130.0 L 125.0 130.0 L 125.0 130.0 L 125.0 130.0 L 125.0 131.0 L 125.0 131.0 L 126.0 132.0 L 128.0 133.0 L 129.0 133.0 L 130.0 134.0 L 131.0 134.0 L 132.0 135.0 L 133.0 135.0 L 133.0 135.0 L 134.0 135.0 L 134.0 135.0 L 134.0 135.0 L 134.0 135.0 L 133.0 135.0 L 132.0 134.0 L 131.0 134.0 L 130.0 134.0 L 129.0 133.0 L 128.0 133.0 L 127.0 133.0 L 126.0 133.0 L 126.0 133.0 L 125.0 133.0 L 125.0 133.0 L 125.0 133.0 L 124.0 133.0 L 124.0 133.0 L 124.0 133.0 L 124.0 133.0 L 124.0 133.0 L 124.0 133.0 L 124.0 133.0 L 124.0 133.0 L 124.0 133.0 L 124.0 132.0 L 124.0 132.0 L 124.0 132.0 L 124.0 131.0 L 123.0 131.0 L 123.0 130.0 L 122.0 130.0 L 121.0 130.0 L 120.0 130.0 L 120.0 130.0 L 119.0 130.0 L 119.0 130.0 L 119.0 130.0 L 119.0 130.0 L 119.0 130.0 L 120.0 130.0 L 121.0 131.0 L 122.0 131.0 L 123.0 132.0 L 124.0 132.0 L 125.0 133.0 L 125.0 133.0 L 126.0 133.0 L 127.0 133.0 L 127.0 133.0 L 127.0 133.0 L 127.0 133.0 L 127.0 133.0 L 127.0 133.0 L 126.0 133.0 L 125.0 133.0 L 124.0 133.0 L 123.0 133.0 L 123.0 133.0 L 122.0 133.0 L 121.0 133.0 L 121.0 133.0 L 120.0 133.0 L 120.0 133.0 L 120.0 133.0 L 120.0 133.0 L 120.0 133.0 L 120.0 134.0 L 120.0 134.0 L 120.0 134.0 L 120.0 134.0 L 120.0 134.0 L 120.0 134.0 L 121.0 133.0 L 121.0 132.0 L 121.0 132.0 L 121.0 131.0 L 121.0 130.0 L 121.0 130.0 L 121.0 129.0 L 120.0 129.0 L 120.0 129.0 L 119.0 129.0 L 119.0 129.0 L 119.0 130.0 L 119.0 131.0 L 119.0 132.0 L 119.0 134.0 L 119.0 135.0 L 120.0 136.0 L 120.0 137.0 L 121.0 137.0 L 121.0 138.0 L 122.0 138.0 L 122.0 138.0 L 123.0 138.0 L 123.0 138.0 L 123.0 138.0 L 124.0 137.0 L 124.0 137.0 L 125.0 136.0 L 125.0 136.0 L 126.0 135.0 L 126.0 134.0 L 126.0 134.0 L 126.0 134.0 L 126.0 133.0 L 127.0 133.0 L 127.0 133.0 L 127.0 132.0 L 127.0 132.0 L 127.0 132.0 L 127.0 132.0 L 127.0 132.0 L 127.0 132.0 L 127.0 132.0 L 128.0 132.0 L 129.0 133.0 L 130.0 134.0 L 132.0 135.0 L 133.0 136.0 L 135.0 137.0 L 138.0 138.0 L 141.0 138.0 L 143.0 139.0 L 145.0 139.0 L 147.0 139.0 L 148.0 139.0 L 149.0 139.0 L 150.0 138.0 L 150.0 138.0 L 150.0 138.0 L 150.0 137.0 L 148.0 137.0 L 147.0 137.0 L 145.0 137.0 L 142.0 137.0 L 140.0 137.0 L 137.0 136.0 L 135.0 136.0 L 133.0 136.0 L 131.0 136.0 L 130.0 135.0 L 130.0 135.0 L 129.0 135.0 L 129.0 135.0 L 130.0 135.0 L 131.0 135.0 L 133.0 136.0 L 136.0 136.0 L 138.0 137.0 L 141.0 138.0 L 143.0 138.0 L 145.0 139.0 L 147.0 139.0 L 149.0 139.0 L 151.0 139.0 L 152.0 139.0 L 152.0 138.0 L 152.0 138.0 L 152.0 138.0 L 152.0 138.0 L 152.0 137.0 L 151.0 137.0 L 149.0 137.0 L 148.0 137.0 L 146.0 136.0 L 144.0 136.0 L 142.0 135.0 L 141.0 135.0 L 139.0 134.0 L 138.0 134.0 L 138.0 134.0 L 137.0 134.0 L 137.0 134.0 L 137.0 134.0 L 138.0 135.0 L 139.0 136.0 L 140.0 136.0 L 142.0 137.0 L 144.0 137.0 L 145.0 138.0 L 147.0 138.0 L 149.0 138.0 L 150.0 138.0 L 152.0 138.0 L 153.0 138.0 L 154.0 138.0 L 154.0 138.0 L 155.0 138.0 L 155.0 137.0 L 155.0 137.0 L 154.0 137.0 L 153.0 136.0 L 152.0 136.0 L 150.0 135.0 L 149.0 135.0 L 147.0 134.0 L 145.0 134.0 L 144.0 133.0 L 143.0 133.0 L 142.0 133.0 L 141.0 133.0 L 141.0 133.0 L 141.0 133.0 L 141.0 134.0 L 141.0 135.0 L 143.0 136.0 L 144.0 136.0 L 146.0 136.0 L 148.0 137.0 L 149.0 137.0 L 151.0 137.0 L 152.0 137.0 L 153.0 137.0 L 154.0 137.0 L 155.0 137.0 L 155.0 137.0 L 155.0 137.0 L 155.0 136.0 L 155.0 136.0 L 155.0 136.0 L 153.0 135.0 L 152.0 135.0 L 150.0 134.0 L 148.0 134.0 L 146.0 134.0 L 145.0 134.0 L 143.0 133.0 L 141.0 133.0 L 139.0 133.0 L 138.0 133.0 L 137.0 133.0 L 136.0 133.0 L 136.0 133.0 L 136.0 133.0 L 136.0 133.0 L 137.0 133.0 L 139.0 134.0 L 141.0 134.0 L 142.0 134.0 L 144.0 135.0 L 146.0 135.0 L 148.0 135.0 L 150.0 135.0 L 151.0 135.0 L 153.0 135.0 L 154.0 134.0 L 155.0 134.0 L 155.0 134.0 L 155.0 133.0 L 155.0 133.0 L 155.0 133.0 L 155.0 132.0 L 153.0 132.0 L 152.0 132.0 L 150.0 132.0 L 149.0 131.0 L 147.0 131.0 L 145.0 131.0 L 144.0 131.0 L 143.0 131.0 L 141.0 131.0 L 141.0 131.0 L 139.0 131.0 L 139.0 131.0 L 138.0 131.0 L 138.0 131.0 L 138.0 131.0 L 138.0 132.0 L 138.0 132.0 L 138.0 133.0 L 139.0 133.0 L 140.0 134.0 L 141.0 135.0 L 143.0 135.0 L 144.0 136.0 L 145.0 136.0 L 146.0 136.0 L 146.0 136.0 L 147.0 136.0 L 147.0 136.0 L 148.0 136.0 L 148.0 136.0 L 148.0 136.0 L 147.0 136.0 L 146.0 135.0 L 145.0 135.0 L 144.0 134.0 L 143.0 134.0 L 141.0 133.0 L 140.0 133.0 L 139.0 132.0 L 137.0 132.0 L 136.0 132.0 L 136.0 132.0 L 135.0 131.0 L 135.0 131.0 L 135.0 131.0 L 135.0 131.0 L 135.0 131.0 L 135.0 131.0 L 137.0 131.0 L 138.0 132.0 L 139.0 132.0 L 141.0 133.0 L 142.0 133.0 L 143.0 133.0 L 144.0 133.0 L 145.0 133.0 L 145.0 133.0 L 145.0 133.0 L 145.0 133.0 L 145.0 133.0 L 144.0 133.0 L 143.0 132.0 L 141.0 132.0 L 139.0 132.0 L 137.0 132.0 L 136.0 132.0 L 135.0 131.0 L 133.0 131.0 L 132.0 131.0 L 132.0 131.0 L 131.0 131.0 L 131.0 131.0 L 131.0 131.0 L 131.0 131.0 L 133.0 132.0 L 134.0 132.0 L 136.0 133.0 L 137.0 134.0 L 139.0 134.0 L 141.0 135.0 L 143.0 135.0 L 144.0 135.0 L 146.0 135.0 L 147.0 135.0 L 148.0 135.0 L 149.0 135.0 L 150.0 135.0 L 150.0 135.0 L 150.0 135.0 L 150.0 135.0 L 150.0 135.0 L 149.0 135.0 L 148.0 135.0 L 147.0 134.0 L 146.0 134.0 L 145.0 134.0 L 144.0 133.0 L 143.0 133.0 L 142.0 133.0 L 141.0 133.0 L 141.0 133.0 L 140.0 133.0 L 139.0 133.0 L 139.0 133.0 L 139.0 133.0 L 139.0 133.0 L 139.0 133.0 L 139.0 133.0 L 139.0 134.0 L 139.0 134.0 L 139.0 134.0 L 140.0 134.0 L 140.0 134.0 L 140.0 134.0 L 140.0 134.0 L 141.0 134.0 L 141.0 134.0 L 141.0 134.0 L 141.0 134.0 L 141.0 134.0 L 141.0 134.0 L 141.0 134.0 L 141.0 134.0 L 141.0 134.0 L 141.0 134.0 L 141.0 134.0 L 142.0 135.0 L 142.0 136.0 L 143.0 136.0 L 145.0 137.0 L 147.0 139.0 L 149.0 140.0 L 152.0 142.0 L 155.0 144.0 L 158.0 146.0 L 161.0 147.0 L 164.0 147.0 L 165.0 148.0 L 167.0 148.0 L 167.0 148.0 L 168.0 147.0 L 168.0 147.0 L 166.0 146.0 L 165.0 145.0 L 163.0 144.0 L 161.0 144.0 L 159.0 143.0 L 157.0 142.0 L 155.0 142.0 L 154.0 141.0 L 153.0 141.0 L 152.0 140.0 L 152.0 140.0 L 152.0 140.0 L 152.0 140.0 L 152.0 141.0 L 153.0 143.0 L 154.0 144.0 L 156.0 146.0 L 158.0 148.0 L 160.0 149.0 L 162.0 150.0 L 163.0 151.0 L 165.0 151.0 L 166.0 151.0 L 167.0 151.0 L 167.0 151.0 L 167.0 150.0 L 167.0 149.0 L 166.0 148.0 L 165.0 147.0 L 164.0 145.0 L 162.0 144.0 L 161.0 143.0 L 160.0 142.0 L 159.0 141.0 L 158.0 140.0 L 158.0 140.0 L 158.0 140.0 L 158.0 140.0 L 158.0 141.0 L 159.0 143.0 L 160.0 145.0 L 161.0 147.0 L 162.0 150.0 L 163.0 152.0 L 164.0 154.0 L 165.0 155.0 L 166.0 157.0 L 167.0 158.0 L 167.0 158.0 L 168.0 158.0 L 168.0 158.0 L 168.0 158.0 L 168.0 157.0 L 168.0 155.0 L 168.0 153.0 L 169.0 151.0 L 169.0 149.0 L 169.0 147.0 L 169.0 145.0 L 169.0 144.0 L 169.0 143.0 L 170.0 143.0 L 170.0 143.0 L 170.0 143.0 L 170.0 143.0 L 170.0 145.0 L 170.0 147.0 L 170.0 149.0 L 171.0 152.0 L 171.0 156.0 L 171.0 159.0 L 171.0 162.0 L 172.0 165.0 L 172.0 167.0 L 172.0 168.0 L 172.0 168.0 L 173.0 168.0 L 173.0 165.0 L 173.0 163.0 L 173.0 160.0 L 173.0 157.0 L 173.0 154.0 L 173.0 151.0 L 173.0 149.0 L 174.0 147.0 L 174.0 146.0 L 174.0 145.0 L 174.0 145.0 L 174.0 145.0 L 174.0 145.0 L 174.0 145.0 L 174.0 146.0 L 174.0 148.0 L 174.0 151.0 L 174.0 153.0 L 174.0 156.0 L 174.0 159.0 L 174.0 162.0 L 174.0 165.0 L 174.0 168.0 L 174.0 170.0 L 174.0 172.0 L 174.0 173.0 L 174.0 173.0 L 174.0 173.0 L 174.0 173.0 L 174.0 171.0 L 175.0 169.0 L 175.0 166.0 L 175.0 163.0 L 176.0 161.0 L 176.0 159.0 L 177.0 157.0 L 177.0 156.0 L 177.0 155.0 L 177.0 155.0 L 178.0 155.0 L 178.0 155.0 L 178.0 157.0 L 178.0 159.0 L 178.0 161.0 L 178.0 164.0 L 178.0 167.0 L 178.0 170.0 L 178.0 174.0 L 178.0 178.0 L 178.0 182.0 L 178.0 184.0 L 178.0 186.0 L 178.0 187.0 L 178.0 187.0 L 178.0 185.0 L 178.0 182.0 L 178.0 179.0 L 178.0 175.0 L 177.0 172.0 L 177.0 169.0 L 177.0 167.0 L 177.0 164.0 L 177.0 163.0 L 177.0 162.0 L 177.0 161.0 L 177.0 161.0 L 177.0 161.0 L 177.0 162.0 L 177.0 163.0 L 177.0 165.0 L 177.0 167.0 L 177.0 170.0 L 178.0 172.0 L 178.0 175.0 L 178.0 178.0 L 179.0 181.0 L 179.0 184.0 L 179.0 186.0 L 180.0 187.0 L 180.0 188.0 L 180.0 188.0 L 180.0 187.0 L 180.0 184.0 L 180.0 181.0 L 180.0 177.0 L 180.0 174.0 L 180.0 171.0 L 180.0 168.0 L 180.0 165.0 L 180.0 163.0 L 180.0 162.0 L 180.0 161.0 L 180.0 161.0 L 180.0 161.0 L 180.0 161.0 L 180.0 163.0 L 180.0 165.0 L 180.0 168.0 L 180.0 171.0 L 180.0 174.0 L 180.0 178.0 L 180.0 181.0 L 180.0 184.0 L 180.0 186.0 L 180.0 187.0 L 180.0 187.0 L 180.0 188.0 L 180.0 187.0 L 180.0 185.0 L 180.0 183.0 L 180.0 180.0 L 180.0 177.0 L 180.0 175.0 L 180.0 173.0 L 180.0 171.0 L 180.0 169.0 L 180.0 168.0 L 180.0 168.0 L 180.0 167.0 L 180.0 167.0 L 180.0 167.0 L 180.0 168.0 L 180.0 169.0 L 180.0 171.0 L 180.0 173.0 L 180.0 174.0 L 180.0 176.0 L 179.0 177.0 L 178.0 179.0 L 178.0 180.0 L 177.0 181.0 L 176.0 182.0 L 174.0 183.0 L 173.0 183.0 L 171.0 183.0 L 169.0 183.0 L 168.0 183.0 L 166.0 183.0 L 165.0 182.0 L 164.0 181.0 L 164.0 181.0 L 163.0 180.0 L 163.0 180.0 L 163.0 180.0 L 163.0 180.0 L 164.0 181.0 L 165.0 182.0 L 166.0 183.0 L 168.0 184.0 L 169.0 185.0 L 171.0 186.0 L 173.0 187.0 L 174.0 187.0 L 175.0 188.0 L 176.0 188.0 L 177.0 188.0 L 177.0 188.0 L 177.0 188.0 L 177.0 188.0 L 175.0 188.0 L 174.0 188.0 L 172.0 188.0 L 170.0 187.0 L 168.0 186.0 L 167.0 186.0 L 165.0 186.0 L 163.0 185.0 L 162.0 185.0 L 161.0 185.0 L 161.0 185.0 L 161.0 185.0 L 161.0 186.0 L 161.0 187.0 L 163.0 188.0 L 165.0 189.0 L 166.0 189.0 L 168.0 189.0 L 170.0 190.0 L 172.0 190.0 L 173.0 190.0 L 174.0 190.0 L 175.0 190.0 L 176.0 190.0 L 176.0 190.0 L 176.0 190.0 L 176.0 190.0 L 175.0 190.0 L 173.0 190.0 L 172.0 189.0 L 170.0 189.0 L 168.0 188.0 L 167.0 188.0 L 166.0 188.0 L 165.0 187.0 L 164.0 187.0 L 164.0 187.0 L 164.0 187.0 L 164.0 187.0 L 164.0 187.0 L 165.0 188.0 L 167.0 189.0 L 168.0 189.0 L 170.0 190.0 L 172.0 190.0 L 173.0 190.0 L 175.0 190.0 L 176.0 190.0 L 177.0 190.0 L 177.0 189.0 L 178.0 189.0 L 178.0 189.0 L 178.0 188.0 L 177.0 188.0 L 176.0 188.0 L 174.0 187.0 L 173.0 187.0 L 172.0 187.0 L 171.0 187.0 L 170.0 187.0 L 170.0 187.0 L 169.0 187.0 L 169.0 187.0 L 169.0 187.0 L 170.0 187.0 L 172.0 188.0 L 173.0 189.0 L 174.0 189.0 L 176.0 190.0 L 177.0 190.0 L 178.0 191.0 L 180.0 191.0 L 181.0 191.0 L 182.0 191.0 L 183.0 192.0 L 184.0 192.0 L 185.0 192.0 L 185.0 192.0 L 185.0 192.0 L 186.0 192.0 L 186.0 192.0 L 186.0 192.0 L 186.0 191.0 L 186.0 190.0 L 185.0 189.0 L 185.0 189.0 L 184.0 188.0 L 184.0 188.0 L 183.0 187.0 L 183.0 187.0 L 183.0 187.0 L 183.0 187.0 L 183.0 187.0 L 183.0 188.0 L 183.0 188.0 L 183.0 188.0 L 183.0 189.0 L 183.0 189.0 L 183.0 189.0 L 183.0 189.0 L 183.0 190.0 L 183.0 190.0 L 183.0 190.0 L 183.0 190.0 L 183.0 191.0 L 182.0 191.0 L 182.0 191.0 L 181.0 191.0 L 180.0 191.0 L 180.0 192.0 L 179.0 192.0 L 179.0 192.0 L 179.0 192.0 L 179.0 192.0 L 179.0 192.0 L 179.0 193.0 L 179.0 193.0 L 179.0 193.0 L 179.0 193.0 L 180.0 194.0 L 181.0 194.0 L 181.0 194.0 L 182.0 194.0 L 182.0 194.0 L 183.0 194.0 L 183.0 193.0 L 183.0 193.0 L 183.0 192.0 L 183.0 192.0 L 183.0 191.0 L 183.0 191.0 L 183.0 190.0 L 182.0 189.0 L 182.0 188.0 L 180.0 187.0 L 179.0 186.0 L 177.0 184.0 L 176.0 182.0 L 174.0 180.0 L 173.0 178.0 L 171.0 177.0 L 171.0 176.0 L 170.0 176.0 L 170.0 175.0 L 169.0 175.0 L 169.0 175.0 L 169.0 175.0 L 170.0 176.0 L 170.0 177.0 L 171.0 179.0 L 173.0 181.0 L 174.0 182.0 L 175.0 184.0 L 176.0 186.0 L 177.0 187.0 L 178.0 188.0 L 178.0 189.0 L 178.0 189.0 L 179.0 189.0 L 179.0 187.0 L 179.0 185.0 L 178.0 182.0 L 176.0 178.0 L 175.0 175.0 L 173.0 172.0 L 171.0 169.0 L 170.0 167.0 L 168.0 165.0 L 168.0 165.0 L 167.0 164.0 L 167.0 164.0 L 167.0 166.0 L 168.0 168.0 L 169.0 170.0 L 170.0 173.0 L 171.0 175.0 L 172.0 178.0 L 173.0 180.0 L 174.0 182.0 L 175.0 183.0 L 175.0 184.0 L 176.0 185.0 L 176.0 186.0 L 177.0 186.0 L 177.0 185.0 L 177.0 184.0 L 177.0 182.0 L 176.0 180.0 L 175.0 178.0 L 174.0 176.0 L 173.0 174.0 L 173.0 173.0 L 172.0 172.0 L 172.0 171.0 L 172.0 171.0 L 172.0 171.0 L 172.0 171.0 L 172.0 171.0 L 173.0 171.0 L 173.0 172.0 L 173.0 172.0 L 174.0 173.0 L 174.0 174.0 L 174.0 175.0 L 173.0 175.0 L 172.0 176.0 L 171.0 176.0 L 169.0 176.0 L 166.0 176.0 L 163.0 176.0 L 160.0 176.0 L 157.0 176.0 L 155.0 176.0 L 152.0 175.0 L 150.0 175.0 L 148.0 175.0 L 146.0 175.0 L 144.0 175.0 L 143.0 175.0 L 141.0 175.0 L 139.0 176.0 L 137.0 176.0 L 136.0 177.0 L 134.0 177.0 L 133.0 178.0 L 132.0 178.0 L 132.0 179.0 L 131.0 180.0 L 131.0 180.0 L 130.0 181.0 L 130.0 182.0 L 130.0 183.0 L 130.0 184.0 L 130.0 186.0 L 130.0 187.0 L 131.0 188.0 L 131.0 188.0 L 132.0 189.0 L 132.0 190.0 L 133.0 190.0 L 134.0 191.0 L 135.0 191.0 L 135.0 191.0 L 136.0 191.0 L 136.0 192.0 L 137.0 192.0 L 137.0 192.0 L 137.0 192.0 L 137.0 192.0 L 136.0 192.0 L 135.0 192.0 L 133.0 192.0 L 132.0 192.0 L 130.0 192.0 L 128.0 191.0 L 126.0 191.0 L 125.0 190.0 L 123.0 190.0 L 122.0 190.0 L 121.0 190.0 L 121.0 190.0 L 121.0 190.0 L 121.0 190.0 L 121.0 190.0 L 122.0 190.0 L 124.0 191.0 L 125.0 191.0 L 126.0 191.0 L 128.0 191.0 L 129.0 192.0 L 130.0 192.0 L 130.0 192.0 L 131.0 192.0 L 132.0 192.0 L 132.0 192.0 L 133.0 192.0 L 133.0 192.0 L 133.0 192.0 L 133.0 192.0 L 133.0 192.0 L 133.0 192.0 L 132.0 193.0 L 132.0 193.0 L 130.0 193.0 L 130.0 193.0 L 129.0 193.0 L 128.0 193.0 L 127.0 193.0 L 127.0 193.0 L 126.0 193.0 L 126.0 193.0 L 126.0 193.0 L 126.0 193.0 L 126.0 193.0 L 127.0 193.0 L 129.0 194.0 L 131.0 194.0 L 133.0 194.0 L 136.0 194.0 L 138.0 194.0 L 139.0 194.0 L 141.0 194.0 L 141.0 193.0 L 142.0 193.0 L 142.0 192.0 L 142.0 192.0 L 141.0 191.0 L 140.0 190.0 L 138.0 189.0 L 137.0 189.0 L 135.0 187.0 L 133.0 186.0 L 132.0 185.0 L 130.0 184.0 L 128.0 183.0 L 126.0 182.0 L 124.0 182.0 L 122.0 182.0 L 121.0 182.0 L 120.0 182.0 L 120.0 182.0 L 121.0 183.0 L 123.0 183.0 L 125.0 183.0 L 128.0 183.0 L 130.0 183.0 L 132.0 182.0 L 134.0 182.0 L 137.0 181.0 L 138.0 179.0 L 140.0 178.0 L 142.0 175.0 L 144.0 173.0 L 145.0 171.0 L 147.0 168.0 L 147.0 166.0 L 147.0 164.0 L 147.0 163.0 L 147.0 162.0 L 147.0 161.0 L 146.0 160.0 L 145.0 159.0 L 143.0 158.0 L 142.0 158.0 L 141.0 157.0 L 141.0 157.0 L 141.0 157.0 L 140.0 157.0 L 140.0 157.0 L 140.0 157.0 L 141.0 158.0 L 142.0 158.0 L 144.0 159.0 L 145.0 159.0 L 146.0 159.0 L 148.0 159.0 L 150.0 159.0 L 151.0 159.0 L 153.0 159.0 L 155.0 158.0 L 157.0 156.0 L 158.0 155.0 L 160.0 153.0 L 161.0 152.0 L 162.0 151.0 L 162.0 149.0 L 162.0 148.0 L 162.0 147.0 L 161.0 146.0 L 160.0 146.0 L 158.0 145.0 L 157.0 144.0 L 156.0 143.0 L 155.0 142.0 L 154.0 141.0 L 153.0 141.0 L 153.0 140.0 L 153.0 140.0 L 153.0 140.0 L 153.0 140.0 L 153.0 141.0 L 154.0 142.0 L 156.0 143.0 L 157.0 144.0 L 159.0 145.0 L 161.0 145.0 L 163.0 145.0 L 165.0 145.0 L 167.0 145.0 L 168.0 145.0 L 170.0 145.0 L 171.0 144.0 L 171.0 144.0 L 171.0 143.0 L 171.0 143.0 L 171.0 142.0 L 169.0 141.0 L 168.0 141.0 L 166.0 140.0 L 164.0 140.0 L 162.0 139.0 L 160.0 138.0 L 159.0 137.0 L 157.0 137.0 L 156.0 137.0 L 156.0 137.0 L 155.0 137.0 L 155.0 137.0 L 155.0 137.0 L 155.0 138.0 L 157.0 139.0 L 158.0 140.0 L 159.0 141.0 L 161.0 141.0 L 162.0 141.0 L 163.0 141.0 L 164.0 141.0 L 165.0 141.0 L 166.0 141.0 L 167.0 141.0 L 167.0 141.0 L 167.0 141.0 L 167.0 141.0 L 167.0 141.0 L 167.0 141.0 L 166.0 140.0 L 165.0 140.0 L 163.0 139.0 L 162.0 138.0 L 161.0 138.0 L 160.0 138.0 L 159.0 137.0 L 158.0 137.0 L 158.0 137.0 L 157.0 137.0 L 157.0 137.0 L 157.0 137.0 L 157.0 137.0 L 157.0 137.0 L 157.0 138.0 L 158.0 139.0 L 159.0 139.0 L 160.0 140.0 L 161.0 141.0 L 162.0 141.0 L 163.0 142.0 L 164.0 143.0 L 165.0 143.0 L 165.0 143.0 L 166.0 143.0 L 166.0 143.0 L 166.0 144.0 L 166.0 144.0 L 166.0 144.0 L 166.0 144.0 L 166.0 144.0 L 166.0 143.0 L 165.0 143.0 L 164.0 142.0 L 163.0 142.0 L 162.0 141.0 L 162.0 141.0 L 162.0 141.0 L 161.0 141.0 L 161.0 141.0 L 161.0 140.0 L 161.0 140.0 L 162.0 140.0 L 162.0 140.0 L 163.0 140.0 L 164.0 141.0 L 166.0 141.0 L 167.0 142.0 L 168.0 142.0 L 169.0 142.0 L 170.0 143.0 L 171.0 143.0 L 171.0 143.0 L 172.0 143.0 L 172.0 143.0 L 172.0 143.0 L 172.0 143.0 L 172.0 142.0 L 171.0 142.0 L 170.0 141.0 L 169.0 141.0 L 168.0 140.0 L 168.0 140.0 L 167.0 140.0 L 167.0 140.0 L 166.0 139.0 L 166.0 139.0 L 166.0 139.0 L 166.0 139.0 L 166.0 139.0 L 166.0 139.0 L 166.0 139.0 L 167.0 140.0 L 167.0 140.0 L 168.0 141.0 L 168.0 141.0 L 169.0 141.0 L 169.0 142.0 L 170.0 142.0 L 170.0 142.0 L 170.0 142.0 L 170.0 142.0 L 170.0 142.0 L 170.0 142.0 L 170.0 142.0 L 170.0 141.0 L 170.0 141.0 L 170.0 140.0 L 169.0 140.0 L 168.0 139.0 L 168.0 139.0 L 167.0 138.0 L 167.0 138.0 L 166.0 138.0 L 166.0 137.0 L 165.0 137.0 L 165.0 137.0 L 164.0 137.0 L 164.0 137.0 L 164.0 137.0 L 164.0 137.0 L 164.0 138.0 L 164.0 138.0 L 164.0 138.0 L 164.0 138.0 L 164.0 139.0 L 164.0 139.0 L 164.0 139.0 L 164.0 139.0 L 164.0 139.0 L 164.0 139.0 L 165.0 139.0 L 165.0 139.0 L 165.0 139.0 L 165.0 139.0 L 165.0 139.0 L 165.0 139.0 L 165.0 139.0 L 165.0 139.0 L 165.0 139.0 L 165.0 139.0 L 165.0 139.0 L 165.0 139.0 L 164.0 139.0 L 164.0 139.0 L 163.0 139.0 L 162.0 139.0 L 162.0 139.0 L 161.0 139.0 L 160.0 139.0 L 159.0 139.0 L 158.0 139.0 L 157.0 139.0 L 156.0 139.0 L 156.0 139.0 L 155.0 139.0 L 155.0 139.0 L 154.0 138.0 L 154.0 138.0 L 154.0 138.0 L 153.0 138.0 L 153.0 138.0 L 153.0 138.0 L 153.0 138.0 L 153.0 138.0 L 153.0 138.0 L 153.0 138.0 L 154.0 138.0 L 154.0 139.0 L 155.0 139.0 L 156.0 139.0 L 158.0 140.0 L 159.0 140.0 L 161.0 140.0 L 162.0 141.0 L 164.0 141.0 L 166.0 141.0 L 167.0 141.0 L 168.0 141.0 L 168.0 141.0 L 169.0 141.0 L 169.0 140.0 L 169.0 139.0 L 167.0 139.0 L 166.0 138.0 L 164.0 138.0 L 162.0 137.0 L 160.0 137.0 L 158.0 136.0 L 156.0 136.0 L 155.0 136.0 L 153.0 136.0 L 152.0 136.0 L 151.0 136.0 L 151.0 136.0 L 151.0 136.0 L 150.0 136.0 L 150.0 136.0 L 150.0 137.0 L 151.0 137.0 L 152.0 138.0 L 153.0 139.0 L 154.0 140.0 L 156.0 141.0 L 158.0 141.0 L 160.0 141.0 L 161.0 141.0 L 163.0 141.0 L 164.0 141.0 L 164.0 141.0 L 165.0 140.0 L 165.0 139.0 L 165.0 139.0 L 165.0 139.0 L 164.0 138.0 L 163.0 138.0 L 162.0 137.0 L 160.0 137.0 L 159.0 137.0 L 157.0 137.0 L 156.0 137.0 L 155.0 136.0 L 153.0 136.0 L 152.0 136.0 L 152.0 136.0 L 151.0 136.0 L 151.0 136.0 L 151.0 136.0 L 151.0 137.0 L 152.0 137.0 L 153.0 138.0 L 154.0 138.0 L 156.0 139.0 L 158.0 139.0 L 160.0 139.0 L 162.0 139.0 L 164.0 139.0 L 166.0 139.0 L 168.0 138.0 L 169.0 138.0 L 169.0 138.0 L 170.0 138.0 L 170.0 138.0 L 170.0 138.0 L 170.0 138.0 L 170.0 137.0 L 169.0 137.0 L 168.0 137.0 L 167.0 137.0 L 165.0 137.0 L 163.0 137.0 L 162.0 137.0 L 160.0 137.0 L 159.0 136.0 L 158.0 136.0 L 157.0 136.0 L 156.0 136.0 L 155.0 136.0 L 155.0 136.0 L 155.0 136.0 L 155.0 136.0 L 155.0 136.0 L 156.0 137.0 L 157.0 138.0 L 158.0 138.0 L 160.0 139.0 L 161.0 139.0 L 163.0 140.0 L 164.0 140.0 L 166.0 140.0 L 167.0 140.0 L 168.0 140.0 L 168.0 140.0 L 168.0 140.0 L 169.0 140.0 L 169.0 140.0 L 169.0 140.0 L 168.0 140.0 L 167.0 140.0 L 166.0 140.0 L 164.0 140.0 L 162.0 140.0 L 161.0 140.0 L 159.0 140.0 L 158.0 140.0 L 157.0 140.0 L 155.0 140.0 L 155.0 140.0 L 154.0 140.0 L 154.0 140.0 L 154.0 140.0 L 154.0 140.0 L 154.0 140.0 L 154.0 141.0 L 154.0 141.0 L 155.0 141.0 L 156.0 142.0 L 158.0 142.0 L 159.0 142.0 L 160.0 143.0 L 161.0 143.0 L 162.0 143.0 L 163.0 143.0 L 163.0 143.0 L 164.0 143.0 L 164.0 143.0 L 164.0 143.0 L 164.0 143.0 L 164.0 143.0 L 163.0 143.0 L 162.0 143.0 L 160.0 143.0 L 159.0 143.0 L 157.0 143.0 L 156.0 143.0 L 154.0 143.0 L 153.0 143.0 L 152.0 143.0 L 151.0 143.0 L 151.0 143.0 L 151.0 143.0 L 151.0 143.0 L 151.0 144.0 L 152.0 145.0 L 153.0 146.0 L 154.0 146.0 L 155.0 147.0 L 156.0 147.0 L 158.0 147.0 L 159.0 147.0 L 160.0 147.0 L 162.0 147.0 L 162.0 147.0 L 163.0 147.0 L 163.0 146.0 L 164.0 146.0 L 164.0 146.0 L 163.0 145.0 L 162.0 145.0 L 161.0 144.0 L 160.0 144.0 L 158.0 143.0 L 156.0 143.0 L 154.0 142.0 L 153.0 142.0 L 151.0 141.0 L 150.0 141.0 L 149.0 140.0 L 148.0 140.0 L 148.0 140.0 L 148.0 140.0 L 148.0 141.0 L 148.0 142.0 L 150.0 143.0 L 151.0 144.0 L 153.0 145.0 L 154.0 145.0 L 156.0 146.0 L 158.0 146.0 L 160.0 146.0 L 162.0 146.0 L 163.0 146.0 L 165.0 145.0 L 166.0 145.0 L 166.0 144.0 L 166.0 144.0 L 166.0 143.0 L 166.0 143.0 L 166.0 142.0 L 165.0 142.0 L 163.0 141.0 L 162.0 141.0 L 161.0 140.0 L 159.0 140.0 L 158.0 139.0 L 157.0 139.0 L 156.0 139.0 L 155.0 139.0 L 155.0 139.0 L 155.0 139.0 L 155.0 139.0 L 155.0 139.0 L 155.0 140.0 L 156.0 141.0 L 158.0 142.0 L 159.0 143.0 L 161.0 143.0 L 163.0 143.0 L 165.0 144.0 L 166.0 144.0 L 168.0 143.0 L 169.0 143.0 L 170.0 142.0 L 170.0 141.0 L 170.0 141.0 L 170.0 140.0 L 170.0 139.0 L 170.0 139.0 L 169.0 138.0 L 168.0 138.0 L 166.0 137.0 L 164.0 137.0 L 163.0 137.0 L 161.0 136.0 L 159.0 135.0 L 158.0 135.0 L 156.0 134.0 L 155.0 134.0 L 155.0 134.0 L 154.0 133.0 L 154.0 133.0 L 154.0 133.0 L 154.0 133.0 L 154.0 133.0 L 155.0 134.0 L 157.0 134.0 L 158.0 134.0 L 160.0 135.0 L 162.0 135.0 L 164.0 135.0 L 167.0 136.0 L 169.0 136.0 L 171.0 136.0 L 173.0 136.0 L 174.0 136.0 L 175.0 136.0 L 176.0 136.0 L 177.0 136.0 L 177.0 136.0 L 177.0 136.0 L 177.0 135.0 L 176.0 135.0 L 175.0 134.0 L 173.0 134.0 L 172.0 134.0 L 170.0 133.0 L 169.0 133.0 L 167.0 132.0 L 166.0 132.0 L 165.0 132.0 L 164.0 132.0 L 163.0 131.0 L 163.0 131.0 L 162.0 131.0 L 162.0 131.0 L 162.0 131.0 L 162.0 131.0 L 162.0 131.0 L 163.0 132.0 L 164.0 133.0 L 165.0 133.0 L 166.0 133.0 L 167.0 133.0 L 168.0 133.0 L 169.0 133.0 L 170.0 133.0 L 171.0 133.0 L 171.0 133.0 L 171.0 133.0 L 171.0 133.0 L 171.0 133.0 L 171.0 132.0 L 170.0 132.0 L 169.0 132.0 L 167.0 132.0 L 166.0 132.0 L 164.0 132.0 L 163.0 132.0 L 162.0 132.0 L 160.0 131.0 L 159.0 131.0 L 158.0 131.0 L 158.0 131.0 L 157.0 131.0 L 157.0 131.0 L 157.0 132.0 L 158.0 133.0 L 160.0 133.0 L 161.0 134.0 L 163.0 134.0 L 165.0 134.0 L 167.0 135.0 L 169.0 135.0 L 171.0 135.0 L 173.0 134.0 L 174.0 134.0 L 175.0 134.0 L 176.0 134.0 L 177.0 134.0 L 177.0 133.0 L 177.0 133.0 L 176.0 133.0 L 175.0 133.0 L 173.0 133.0 L 171.0 134.0 L 169.0 134.0 L 167.0 134.0 L 166.0 134.0 L 164.0 134.0 L 162.0 134.0 L 161.0 134.0 L 160.0 134.0 L 160.0 134.0 L 159.0 134.0 L 159.0 134.0 L 159.0 134.0 L 159.0 134.0 L 159.0 134.0 L 160.0 134.0 L 161.0 134.0 L 162.0 134.0 L 164.0 134.0 L 165.0 134.0 L 167.0 134.0 L 168.0 134.0 L 170.0 134.0 L 171.0 134.0 L 173.0 134.0 L 174.0 134.0 L 176.0 134.0 L 177.0 133.0 L 177.0 133.0 L 178.0 133.0 L 178.0 133.0 L 178.0 133.0 L 178.0 133.0 L 179.0 132.0 L 179.0 132.0 L 179.0 132.0 L 179.0 132.0 L 179.0 132.0 L 179.0 132.0 L 180.0 132.0 L 180.0 132.0 L 180.0 132.0 L 180.0 132.0 L 180.0 132.0 L 180.0 132.0 L 180.0 132.0 L 181.0 132.0 L 181.0 132.0 L 181.0 132.0 L 181.0 132.0 L 181.0 132.0 L 181.0 132.0 L 181.0 132.0 L 181.0 132.0 L 181.0 132.0 L 181.0 132.0 L 181.0 133.0 L 181.0 134.0 L 181.0 135.0 L 180.0 136.0 L 180.0 137.0 L 179.0 139.0 L 179.0 141.0 L 179.0 143.0 L 178.0 145.0 L 178.0 147.0 L 178.0 148.0 L 178.0 150.0 L 178.0 150.0 L 178.0 151.0 L 178.0 151.0 L 178.0 151.0 L 178.0 151.0 L 178.0 150.0 L 178.0 148.0 L 178.0 146.0 L 178.0 144.0 L 178.0 143.0 L 178.0 141.0 L 178.0 139.0 L 178.0 138.0 L 178.0 137.0 L 178.0 136.0 L 178.0 135.0 L 178.0 134.0 L 178.0 134.0 L 177.0 134.0 L 177.0 134.0 L 177.0 134.0 L 177.0 134.0 L 177.0 136.0 L 177.0 138.0 L 177.0 141.0 L 177.0 143.0 L 177.0 144.0 L 176.0 146.0 L 176.0 147.0 L 176.0 148.0 L 176.0 148.0 L 176.0 149.0 L 176.0 149.0 L 176.0 149.0 L 176.0 148.0 L 176.0 146.0 L 176.0 145.0 L 176.0 143.0 L 175.0 142.0 L 175.0 140.0 L 174.0 139.0 L 174.0 138.0 L 173.0 138.0 L 173.0 137.0 L 173.0 137.0 L 172.0 137.0 L 172.0 137.0 L 172.0 137.0 L 171.0 138.0 L 171.0 139.0 L 171.0 140.0 L 171.0 142.0 L 171.0 143.0 L 172.0 145.0 L 172.0 146.0 L 173.0 147.0 L 174.0 148.0 L 174.0 148.0 L 175.0 148.0 L 175.0 148.0 L 175.0 148.0 L 176.0 147.0 L 176.0 146.0 L 176.0 144.0 L 176.0 143.0 L 176.0 142.0 L 176.0 141.0 L 176.0 140.0 L 176.0 140.0 L 175.0 139.0 L 175.0 139.0 L 175.0 139.0 L 175.0 139.0 L 175.0 139.0 L 174.0 139.0 L 174.0 139.0 L 174.0 140.0 L 174.0 141.0 L 174.0 143.0 L 174.0 144.0 L 174.0 145.0 L 174.0 146.0 L 175.0 146.0 L 175.0 146.0 L 175.0 147.0 L 176.0 147.0 L 176.0 147.0 L 176.0 147.0 L 177.0 147.0 L 177.0 147.0 L 177.0 146.0 L 177.0 146.0 L 177.0 145.0 L 177.0 145.0 L 177.0 144.0 L 177.0 143.0 " stroke="black" fill="none" stroke-width="5.0" stroke-linecap="round" stroke-linejoin="round" />
<path d="M 177.0 135.0 L 177.0 135.0 L 177.0 135.0 L 177.0 136.0 L 177.0 136.0 L 177.0 136.0 L 177.0 136.0 L 176.0 136.0 L 176.0 136.0 L 176.0 136.0 L 176.0 136.0 L 176.0 136.0 L 176.0 136.0 L 176.0 135.0 L 176.0 135.0 L 175.0 134.0 L 175.0 134.0 L 174.0 134.0 L 174.0 133.0 L 174.0 133.0 L 173.0 133.0 L 173.0 132.0 L 173.0 132.0 L 173.0 132.0 L 173.0 132.0 L 173.0 132.0 L 173.0 132.0 L 173.0 132.0 L 173.0 132.0 L 173.0 132.0 L 174.0 132.0 L 175.0 132.0 L 176.0 132.0 L 177.0 133.0 L 178.0 133.0 L 179.0 133.0 L 180.0 134.0 L 180.0 134.0 L 181.0 134.0 L 181.0 134.0 L 181.0 134.0 L 181.0 134.0 L 181.0 134.0 L 180.0 134.0 L 179.0 134.0 L 178.0 134.0 L 177.0 133.0 L 177.0 133.0 L 176.0 133.0 L 175.0 133.0 L 175.0 133.0 L 175.0 133.0 L 174.0 133.0 L 174.0 133.0 L 174.0 133.0 L 173.0 133.0 L 173.0 133.0 L 173.0 133.0 L 173.0 133.0 L 173.0 133.0 L 173.0 133.0 L 173.0 133.0 L 173.0 133.0 L 173.0 133.0 L 173.0 133.0 L 173.0 133.0 L 173.0 133.0 L 173.0 133.0 L 173.0 133.0 L 173.0 134.0 L 173.0 134.0 L 173.0 134.0 " stroke="black" fill="none" stroke-width="5.0" stroke-linecap="round" stroke-linejoin="round" />
</svg>