<svg xmlns="http://www.w3.org/2000/svg" width="300" height="300" viewBox="0 0 300 300">
<path d="M 28.0 109.0 L 28.0 109.0 L 27.0 108.0 L 26.0 107.0 L 26.0 107.0 L 25.0 107.0 L 25.0 107.0 L 27.0 110.0 L 29.0 113.0 L 33.0 116.0 L 37.0 119.0 L 41.0 123.0 L 46.0 126.0 L 50.0 129.0 L 54.0 132.0 L 56.0 133.0 " stroke="black" fill="none" stroke-width="5.0" stroke-linecap="round" stroke-linejoin="round" />
<path d="M 76.0 137.0 L 76.0 137.0 L 76.0 137.0 L 75.0 137.0 L 75.0 137.0 L 75.0 137.0 L 75.0 137.0 L 75.0 138.0 L 75.0 141.0 L 76.0 144.0 L 77.0 148.0 L 78.0 152.0 L 79.0 157.0 L 79.0 163.0 L 79.0 170.0 L 78.0 177.0 L 74.0 186.0 L 71.0 193.0 L 67.0 200.0 L 63.0 207.0 L 59.0 212.0 L 54.0 217.0 L 49.0 223.0 L 44.0 227.0 L 38.0 231.0 L 34.0 233.0 L 32.0 234.0 " stroke="black" fill="none" stroke-width="5.0" stroke-linecap="round" stroke-linejoin="round" />
<path d="M 103.0 89.0 L 103.0 89.0 L 102.0 88.0 L 102.0 88.0 L 102.0 88.0 L 102.0 88.0 L 102.0 88.0 L 103.0 90.0 L 104.0 92.0 L 106.0 95.0 L 108.0 98.0 L 110.0 101.0 L 112.0 105.0 L 114.0 108.0 L 116.0 111.0 L 116.0 112.0 " stroke="black" fill="none" stroke-width="5.0" stroke-linecap="round" stroke-linejoin="round" />
<path d="M 130.0 76.0 L 130.0 76.0 L 130.0 77.0 L 130.0 78.0 L 130.0 80.0 L 132.0 82.0 L 133.0 86.0 L 135.0 90.0 L 138.0 95.0 L 141.0 100.0 " stroke="black" fill="none" stroke-width="5.0" stroke-linecap="round" stroke-linejoin="round" />
<path d="M 214.0 79.0 L 214.0 79.0 L 213.0 79.0 L 212.0 79.0 L 211.0 79.0 L 210.0 79.0 L 209.0 79.0 L 209.0 79.0 L 208.0 81.0 L 208.0 82.0 L 208.0 85.0 L 208.0 89.0 L 208.0 93.0 L 208.0 98.0 L 208.0 103.0 L 210.0 107.0 L 212.0 110.0 L 215.0 112.0 L 219.0 113.0 L 223.0 113.0 L 228.0 111.0 L 233.0 107.0 L 236.0 103.0 L 239.0 99.0 L 241.0 94.0 L 241.0 90.0 L 241.0 87.0 L 240.0 84.0 L 237.0 81.0 L 235.0 79.0 L 231.0 77.0 L 228.0 75.0 L 225.0 74.0 L 221.0 73.0 L 219.0 73.0 L 217.0 73.0 L 215.0 74.0 L 214.0 76.0 " stroke="black" fill="none" stroke-width="5.0" stroke-linecap="round" stroke-linejoin="round" />
</svg>