<svg xmlns="http://www.w3.org/2000/svg" width="300" height="300" viewBox="0 0 300 300">
<path d="M 151.0 92.0 L 151.0 92.0 L 151.0 92.0 L 151.0 92.0 L 150.0 92.0 L 150.0 93.0 L 150.0 93.0 L 150.0 95.0 L 149.0 97.0 L 149.0 100.0 L 148.0 105.0 L 147.0 110.0 L 145.0 117.0 L 143.0 124.0 L 140.0 132.0 L 135.0 141.0 L 131.0 148.0 L 126.0 155.0 L 122.0 160.0 L 119.0 163.0 L 117.0 166.0 L 116.0 166.0 " stroke="black" fill="none" stroke-width="5.0" stroke-linecap="round" stroke-linejoin="round" />
<path d="M 145.0 128.0 L 145.0 128.0 L 145.0 128.0 L 145.0 128.0 L 145.0 128.0 L 145.0 128.0 L 145.0 127.0 L 146.0 127.0 L 148.0 126.0 L 150.0 125.0 L 153.0 124.0 L 156.0 123.0 L 160.0 122.0 L 164.0 122.0 L 168.0 121.0 L 172.0 120.0 L 176.0 120.0 L 178.0 120.0 L 180.0 120.0 L 182.0 120.0 L 182.0 120.0 L 182.0 121.0 L 183.0 121.0 L 183.0 122.0 L 183.0 123.0 L 183.0 125.0 L 183.0 126.0 L 182.0 128.0 L 181.0 130.0 L 181.0 132.0 L 180.0 136.0 L 179.0 139.0 L 178.0 144.0 L 177.0 148.0 L 175.0 153.0 L 174.0 158.0 L 172.0 164.0 L 170.0 170.0 L 168.0 177.0 L 165.0 185.0 L 163.0 193.0 L 160.0 200.0 L 158.0 207.0 L 155.0 214.0 L 152.0 221.0 L 149.0 229.0 L 146.0 236.0 L 143.0 242.0 L 139.0 247.0 L 135.0 251.0 L 132.0 254.0 L 129.0 256.0 L 127.0 257.0 " stroke="black" fill="none" stroke-width="5.0" stroke-linecap="round" stroke-linejoin="round" />
</svg>