<svg xmlns="http://www.w3.org/2000/svg" width="300" height="300" viewBox="0 0 300 300">
<path d="M 117.0 128.0 L 117.0 128.0 L 117.0 127.0 L 117.0 127.0 L 117.0 126.0 L 117.0 126.0 L 117.0 125.0 L 117.0 125.0 L 117.0 124.0 L 117.0 124.0 L 117.0 124.0 L 117.0 124.0 L 118.0 124.0 L 118.0 124.0 L 118.0 126.0 L 119.0 130.0 L 119.0 136.0 L 120.0 142.0 L 120.0 149.0 L 120.0 155.0 L 120.0 159.0 L 120.0 162.0 L 121.0 162.0 " stroke="black" fill="none" stroke-width="5.0" stroke-linecap="round" stroke-linejoin="round" />
<path d="M 119.0 119.0 L 119.0 119.0 L 118.0 119.0 L 118.0 119.0 L 117.0 119.0 L 117.0 119.0 L 116.0 119.0 L 116.0 119.0 L 116.0 119.0 L 116.0 119.0 L 116.0 119.0 L 116.0 119.0 L 117.0 119.0 L 118.0 119.0 L 119.0 119.0 L 121.0 119.0 L 122.0 119.0 L 124.0 119.0 L 126.0 119.0 L 128.0 119.0 L 130.0 119.0 L 132.0 119.0 L 134.0 119.0 L 136.0 119.0 L 138.0 119.0 L 140.0 119.0 L 142.0 119.0 L 143.0 119.0 L 145.0 119.0 L 146.0 119.0 L 148.0 119.0 L 149.0 119.0 L 150.0 119.0 L 152.0 120.0 L 153.0 120.0 L 154.0 120.0 L 155.0 120.0 L 156.0 120.0 L 157.0 120.0 L 159.0 120.0 L 160.0 120.0 L 161.0 120.0 L 162.0 120.0 L 164.0 121.0 L 165.0 121.0 L 167.0 121.0 L 168.0 121.0 L 170.0 121.0 L 172.0 122.0 L 174.0 122.0 L 176.0 122.0 L 177.0 122.0 L 179.0 122.0 L 180.0 123.0 L 181.0 123.0 L 182.0 123.0 L 183.0 123.0 L 183.0 124.0 L 183.0 124.0 L 183.0 125.0 L 183.0 125.0 L 184.0 126.0 L 184.0 126.0 L 184.0 127.0 L 184.0 128.0 L 184.0 128.0 L 184.0 129.0 L 184.0 130.0 L 184.0 132.0 L 183.0 133.0 L 183.0 135.0 L 183.0 137.0 L 183.0 139.0 L 183.0 141.0 L 183.0 144.0 L 183.0 146.0 L 182.0 149.0 L 182.0 151.0 L 182.0 154.0 L 182.0 156.0 L 181.0 158.0 L 181.0 160.0 L 181.0 162.0 L 180.0 163.0 L 180.0 165.0 L 180.0 167.0 L 179.0 168.0 L 179.0 170.0 L 179.0 171.0 L 178.0 173.0 L 178.0 175.0 L 177.0 177.0 L 177.0 178.0 L 176.0 180.0 L 176.0 182.0 L 175.0 184.0 L 175.0 186.0 L 174.0 188.0 L 174.0 190.0 L 173.0 192.0 L 173.0 194.0 L 172.0 196.0 L 171.0 198.0 L 170.0 200.0 L 169.0 202.0 L 168.0 204.0 L 167.0 206.0 L 166.0 208.0 L 165.0 210.0 L 163.0 213.0 L 161.0 215.0 L 160.0 218.0 L 158.0 221.0 L 156.0 224.0 L 154.0 228.0 L 152.0 231.0 L 150.0 234.0 L 149.0 237.0 L 147.0 239.0 L 145.0 241.0 L 143.0 243.0 L 140.0 245.0 L 138.0 246.0 L 136.0 247.0 L 136.0 247.0 " stroke="black" fill="none" stroke-width="5.0" stroke-linecap="round" stroke-linejoin="round" />
<path d="M 147.0 84.0 L 147.0 84.0 L 147.0 84.0 L 147.0 84.0 L 147.0 84.0 L 147.0 84.0 L 147.0 84.0 L 147.0 86.0 L 147.0 90.0 L 147.0 94.0 L 148.0 100.0 L 148.0 107.0 L 148.0 112.0 L 148.0 118.0 L 148.0 123.0 L 148.0 126.0 L 148.0 127.0 " stroke="black" fill="none" stroke-width="5.0" stroke-linecap="round" stroke-linejoin="round" />
</svg>