<svg xmlns="http://www.w3.org/2000/svg" width="300" height="300" viewBox="0 0 300 300">
<path d="M 123.0 120.0 L 123.0 120.0 L 122.0 120.0 L 121.0 121.0 L 121.0 121.0 L 121.0 122.0 L 120.0 122.0 L 120.0 122.0 L 120.0 122.0 L 120.0 122.0 L 120.0 121.0 L 121.0 119.0 L 122.0 118.0 L 123.0 116.0 L 124.0 115.0 L 125.0 114.0 L 126.0 112.0 L 128.0 111.0 L 130.0 109.0 L 132.0 107.0 L 134.0 105.0 L 137.0 102.0 L 140.0 99.0 L 143.0 95.0 L 146.0 91.0 L 148.0 88.0 L 149.0 85.0 L 150.0 83.0 L 150.0 81.0 L 150.0 80.0 L 151.0 79.0 L 151.0 78.0 L 151.0 78.0 L 151.0 78.0 L 151.0 77.0 L 151.0 77.0 L 151.0 77.0 L 151.0 77.0 L 151.0 77.0 L 151.0 77.0 L 151.0 77.0 L 151.0 77.0 L 151.0 77.0 L 151.0 77.0 L 151.0 78.0 L 151.0 79.0 L 152.0 81.0 L 152.0 82.0 L 152.0 84.0 L 153.0 86.0 L 153.0 88.0 L 154.0 90.0 L 156.0 93.0 L 157.0 96.0 L 160.0 101.0 L 162.0 105.0 L 165.0 108.0 L 168.0 112.0 L 171.0 115.0 L 174.0 118.0 L 176.0 120.0 L 178.0 121.0 L 179.0 122.0 L 180.0 123.0 L 181.0 123.0 L 181.0 123.0 L 181.0 123.0 L 180.0 123.0 " stroke="black" fill="none" stroke-width="5.0" stroke-linecap="round" stroke-linejoin="round" />
<path d="M 149.0 87.0 L 149.0 87.0 L 149.0 87.0 L 149.0 87.0 L 149.0 88.0 L 149.0 88.0 L 148.0 89.0 L 148.0 89.0 L 148.0 90.0 L 148.0 92.0 L 148.0 93.0 L 148.0 96.0 L 148.0 99.0 L 148.0 102.0 L 148.0 106.0 L 148.0 110.0 L 148.0 115.0 L 148.0 119.0 L 148.0 123.0 L 148.0 127.0 L 148.0 130.0 L 148.0 134.0 L 148.0 137.0 L 148.0 140.0 L 148.0 144.0 L 148.0 148.0 L 148.0 151.0 L 148.0 155.0 L 148.0 157.0 L 148.0 160.0 L 148.0 163.0 L 148.0 165.0 L 148.0 167.0 L 148.0 169.0 L 148.0 171.0 L 148.0 174.0 L 148.0 176.0 L 149.0 179.0 L 149.0 181.0 L 149.0 184.0 L 149.0 186.0 L 149.0 188.0 L 149.0 190.0 L 149.0 192.0 L 149.0 194.0 L 149.0 196.0 L 149.0 198.0 L 149.0 200.0 L 150.0 201.0 L 150.0 203.0 L 150.0 205.0 L 150.0 207.0 L 150.0 209.0 L 150.0 211.0 L 150.0 213.0 L 150.0 215.0 L 150.0 216.0 L 150.0 219.0 L 150.0 221.0 L 150.0 223.0 L 150.0 225.0 L 150.0 228.0 L 150.0 230.0 L 151.0 233.0 L 151.0 236.0 L 151.0 238.0 L 151.0 241.0 L 151.0 243.0 L 151.0 245.0 L 151.0 247.0 L 151.0 248.0 L 151.0 249.0 L 151.0 250.0 L 151.0 251.0 L 151.0 252.0 L 151.0 253.0 L 151.0 254.0 L 151.0 254.0 L 151.0 255.0 L 151.0 255.0 L 151.0 255.0 L 151.0 255.0 L 151.0 255.0 L 151.0 254.0 L 151.0 252.0 " stroke="black" fill="none" stroke-width="5.0" stroke-linecap="round" stroke-linejoin="round" />
</svg>