<svg xmlns="http://www.w3.org/2000/svg" width="300" height="300" viewBox="0 0 300 300">
<path d="M 142.0 89.0 L 142.0 89.0 L 142.0 89.0 L 142.0 89.0 L 141.0 89.0 L 141.0 89.0 L 141.0 90.0 L 141.0 92.0 L 141.0 95.0 L 140.0 100.0 L 138.0 106.0 L 136.0 113.0 L 133.0 120.0 L 129.0 128.0 L 125.0 136.0 L 120.0 145.0 L 115.0 154.0 L 112.0 159.0 L 109.0 164.0 L 107.0 168.0 L 105.0 170.0 L 104.0 171.0 L 104.0 172.0 " stroke="black" fill="none" stroke-width="5.0" stroke-linecap="round" stroke-linejoin="round" />
<path d="M 131.0 133.0 L 131.0 133.0 L 130.0 133.0 L 130.0 133.0 L 130.0 133.0 L 131.0 133.0 L 134.0 133.0 L 139.0 132.0 L 144.0 131.0 L 150.0 130.0 L 157.0 128.0 L 165.0 127.0 L 172.0 125.0 L 180.0 124.0 L 185.0 124.0 L 189.0 123.0 L 191.0 123.0 L 192.0 123.0 L 192.0 123.0 L 192.0 124.0 L 191.0 124.0 " stroke="black" fill="none" stroke-width="5.0" stroke-linecap="round" stroke-linejoin="round" />
<path d="M 159.0 137.0 L 159.0 137.0 L 158.0 137.0 L 158.0 137.0 L 157.0 137.0 L 157.0 139.0 L 157.0 140.0 L 157.0 142.0 L 158.0 145.0 L 159.0 148.0 L 159.0 152.0 L 160.0 157.0 L 160.0 161.0 L 160.0 167.0 L 160.0 173.0 L 159.0 181.0 L 158.0 190.0 L 155.0 199.0 L 153.0 207.0 L 150.0 215.0 L 148.0 222.0 L 145.0 229.0 L 141.0 235.0 L 136.0 240.0 L 131.0 243.0 L 126.0 245.0 L 124.0 246.0 " stroke="black" fill="none" stroke-width="5.0" stroke-linecap="round" stroke-linejoin="round" />
</svg>