<svg xmlns="http://www.w3.org/2000/svg" width="300" height="300" viewBox="0 0 300 300">
<path d="M 120.0 113.0 L 120.0 113.0 L 119.0 113.0 L 118.0 113.0 L 118.0 113.0 L 117.0 114.0 L 117.0 115.0 L 117.0 118.0 L 117.0 123.0 L 117.0 128.0 L 118.0 135.0 L 118.0 142.0 L 119.0 147.0 L 119.0 151.0 L 119.0 154.0 L 119.0 154.0 L 119.0 154.0 " stroke="black" fill="none" stroke-width="5.0" stroke-linecap="round" stroke-linejoin="round" />
<path d="M 120.0 110.0 L 120.0 110.0 L 120.0 110.0 L 120.0 110.0 L 119.0 109.0 L 119.0 109.0 L 119.0 109.0 L 119.0 109.0 L 118.0 109.0 L 118.0 109.0 L 118.0 109.0 L 118.0 109.0 L 119.0 109.0 L 119.0 109.0 L 120.0 109.0 L 121.0 109.0 L 123.0 109.0 L 125.0 109.0 L 127.0 108.0 L 129.0 108.0 L 132.0 108.0 L 135.0 108.0 L 138.0 107.0 L 142.0 107.0 L 145.0 106.0 L 148.0 106.0 L 151.0 106.0 L 153.0 106.0 L 155.0 106.0 L 158.0 106.0 L 161.0 106.0 L 163.0 106.0 L 166.0 106.0 L 169.0 106.0 L 172.0 107.0 L 174.0 107.0 L 177.0 108.0 L 178.0 108.0 L 180.0 109.0 L 181.0 109.0 L 182.0 109.0 L 182.0 110.0 L 182.0 110.0 L 182.0 111.0 L 182.0 111.0 L 182.0 112.0 L 182.0 112.0 L 182.0 113.0 L 182.0 113.0 L 182.0 114.0 L 182.0 115.0 L 182.0 115.0 L 182.0 116.0 L 182.0 118.0 L 182.0 120.0 L 182.0 121.0 L 182.0 124.0 L 181.0 127.0 L 181.0 130.0 L 180.0 135.0 L 180.0 140.0 L 179.0 146.0 L 178.0 153.0 L 177.0 159.0 L 176.0 166.0 L 174.0 173.0 L 172.0 181.0 L 169.0 189.0 L 166.0 197.0 L 163.0 203.0 L 160.0 209.0 L 156.0 216.0 L 153.0 221.0 L 150.0 226.0 L 147.0 232.0 L 145.0 235.0 L 142.0 239.0 L 140.0 242.0 L 139.0 243.0 " stroke="black" fill="none" stroke-width="5.0" stroke-linecap="round" stroke-linejoin="round" />
</svg>