<svg xmlns="http://www.w3.org/2000/svg" width="300" height="300" viewBox="0 0 300 300">
<path d="M 149.0 90.0 L 149.0 90.0 L 148.0 90.0 L 147.0 90.0 L 147.0 90.0 L 146.0 91.0 L 146.0 91.0 L 146.0 93.0 L 146.0 94.0 L 146.0 96.0 L 146.0 99.0 L 146.0 102.0 L 145.0 106.0 L 145.0 111.0 L 145.0 117.0 L 144.0 123.0 L 143.0 129.0 L 142.0 136.0 L 142.0 141.0 L 141.0 147.0 L 140.0 154.0 L 139.0 159.0 L 139.0 163.0 L 138.0 168.0 L 138.0 173.0 L 137.0 177.0 L 136.0 182.0 L 135.0 187.0 L 134.0 191.0 L 133.0 195.0 L 131.0 198.0 L 130.0 201.0 L 128.0 204.0 L 127.0 207.0 L 125.0 209.0 L 124.0 211.0 L 123.0 213.0 L 122.0 214.0 L 121.0 217.0 L 120.0 219.0 L 119.0 220.0 L 119.0 222.0 L 119.0 223.0 L 119.0 224.0 L 119.0 225.0 L 119.0 225.0 L 119.0 226.0 L 119.0 226.0 L 119.0 226.0 L 119.0 226.0 L 119.0 226.0 L 119.0 226.0 L 119.0 226.0 L 119.0 226.0 L 120.0 226.0 L 121.0 226.0 L 122.0 225.0 L 124.0 225.0 L 126.0 224.0 L 130.0 222.0 L 134.0 221.0 L 139.0 218.0 L 144.0 215.0 L 149.0 212.0 L 154.0 209.0 L 159.0 206.0 L 163.0 204.0 L 167.0 202.0 L 171.0 200.0 L 173.0 199.0 L 175.0 199.0 L 175.0 199.0 " stroke="black" fill="none" stroke-width="5.0" stroke-linecap="round" stroke-linejoin="round" />
<path d="M 171.0 167.0 L 170.0 167.0 L 169.0 167.0 L 168.0 167.0 L 168.0 168.0 L 168.0 169.0 L 168.0 171.0 L 168.0 174.0 L 170.0 177.0 L 173.0 182.0 L 175.0 188.0 L 178.0 194.0 L 181.0 201.0 L 182.0 208.0 L 184.0 216.0 L 185.0 225.0 L 185.0 232.0 L 185.0 238.0 L 186.0 242.0 L 187.0 243.0 L 187.0 243.0 " stroke="black" fill="none" stroke-width="5.0" stroke-linecap="round" stroke-linejoin="round" />
</svg>