<svg xmlns="http://www.w3.org/2000/svg" width="300" height="300" viewBox="0 0 300 300">
<path d="M 100.0 95.0 L 99.0 95.0 L 98.0 95.0 L 97.0 95.0 L 96.0 95.0 L 96.0 95.0 L 96.0 95.0 L 96.0 95.0 L 97.0 95.0 L 99.0 95.0 L 102.0 95.0 L 105.0 95.0 L 110.0 95.0 L 116.0 95.0 L 125.0 95.0 L 135.0 95.0 L 146.0 96.0 L 156.0 96.0 L 167.0 96.0 L 178.0 97.0 L 188.0 97.0 L 197.0 98.0 L 202.0 98.0 L 208.0 99.0 L 214.0 99.0 L 218.0 99.0 L 221.0 100.0 L 223.0 101.0 L 223.0 103.0 " stroke="black" fill="none" stroke-width="5.0" stroke-linecap="round" stroke-linejoin="round" />
<path d="M 149.0 102.0 L 149.0 102.0 L 149.0 102.0 L 148.0 102.0 L 148.0 102.0 L 148.0 102.0 L 147.0 103.0 L 147.0 105.0 L 147.0 108.0 L 147.0 112.0 L 148.0 117.0 L 148.0 123.0 L 149.0 131.0 L 150.0 140.0 L 150.0 150.0 L 151.0 160.0 L 151.0 170.0 L 151.0 181.0 L 151.0 194.0 L 151.0 204.0 L 150.0 213.0 L 150.0 221.0 L 150.0 227.0 L 149.0 232.0 L 149.0 235.0 L 149.0 236.0 L 149.0 236.0 L 149.0 236.0 L 149.0 234.0 L 149.0 233.0 " stroke="black" fill="none" stroke-width="5.0" stroke-linecap="round" stroke-linejoin="round" />
</svg>