<svg xmlns="http://www.w3.org/2000/svg" width="300" height="300" viewBox="0 0 300 300">
<path d="M 115.0 103.0 L 114.0 103.0 L 114.0 103.0 L 113.0 103.0 L 113.0 104.0 L 112.0 106.0 L 112.0 107.0 L 112.0 110.0 L 113.0 113.0 L 113.0 116.0 L 114.0 120.0 L 114.0 125.0 L 114.0 129.0 L 115.0 135.0 L 115.0 141.0 L 115.0 147.0 L 115.0 153.0 L 115.0 160.0 L 114.0 166.0 L 114.0 172.0 L 114.0 179.0 L 114.0 185.0 L 114.0 191.0 L 113.0 196.0 L 113.0 201.0 L 113.0 204.0 L 113.0 207.0 L 113.0 209.0 L 114.0 211.0 L 114.0 214.0 L 115.0 215.0 L 115.0 217.0 L 116.0 219.0 L 116.0 221.0 L 116.0 223.0 L 116.0 225.0 L 116.0 226.0 L 116.0 227.0 L 115.0 229.0 L 115.0 230.0 L 115.0 230.0 L 114.0 231.0 L 114.0 231.0 L 114.0 232.0 L 114.0 232.0 L 114.0 232.0 L 114.0 232.0 L 114.0 232.0 L 114.0 232.0 L 114.0 232.0 L 114.0 232.0 L 114.0 232.0 L 114.0 232.0 L 114.0 232.0 L 116.0 232.0 L 117.0 232.0 L 120.0 232.0 L 123.0 232.0 L 128.0 232.0 L 134.0 231.0 L 140.0 231.0 L 146.0 230.0 L 152.0 230.0 L 158.0 229.0 L 163.0 229.0 L 170.0 228.0 L 176.0 228.0 L 182.0 228.0 L 187.0 228.0 L 190.0 228.0 L 193.0 228.0 L 194.0 229.0 L 195.0 229.0 " stroke="black" fill="none" stroke-width="5.0" stroke-linecap="round" stroke-linejoin="round" />
</svg>