<svg xmlns="http://www.w3.org/2000/svg" width="300" height="300" viewBox="0 0 300 300">
<path d="M 200.0 88.0 L 200.0 88.0 L 200.0 87.0 L 200.0 87.0 L 199.0 87.0 L 199.0 86.0 L 199.0 86.0 L 198.0 85.0 L 198.0 84.0 L 198.0 83.0 L 197.0 83.0 L 197.0 82.0 L 196.0 81.0 L 195.0 80.0 L 194.0 80.0 L 193.0 80.0 L 192.0 79.0 L 191.0 79.0 L 189.0 79.0 L 188.0 78.0 L 186.0 78.0 L 184.0 78.0 L 182.0 78.0 L 180.0 78.0 L 177.0 79.0 L 175.0 80.0 L 172.0 81.0 L 169.0 83.0 L 166.0 84.0 L 164.0 86.0 L 161.0 87.0 L 160.0 89.0 L 158.0 91.0 L 156.0 92.0 L 155.0 94.0 L 154.0 96.0 L 153.0 99.0 L 152.0 101.0 L 151.0 104.0 L 150.0 107.0 L 149.0 109.0 L 149.0 112.0 L 148.0 115.0 L 147.0 117.0 L 147.0 119.0 L 146.0 121.0 L 146.0 124.0 L 145.0 126.0 L 144.0 129.0 L 144.0 132.0 L 143.0 135.0 L 143.0 139.0 L 142.0 143.0 L 142.0 147.0 L 142.0 150.0 L 142.0 154.0 L 142.0 157.0 L 142.0 161.0 L 142.0 165.0 L 142.0 169.0 L 142.0 174.0 L 142.0 178.0 L 142.0 183.0 L 142.0 188.0 L 142.0 193.0 L 142.0 197.0 L 143.0 202.0 L 143.0 207.0 L 143.0 211.0 L 143.0 216.0 L 143.0 221.0 L 144.0 226.0 L 144.0 230.0 L 144.0 233.0 L 145.0 235.0 L 145.0 236.0 L 145.0 235.0 L 146.0 234.0 " stroke="black" fill="none" stroke-width="5.0" stroke-linecap="round" stroke-linejoin="round" />
<path d="M 116.0 134.0 L 116.0 134.0 L 115.0 134.0 L 114.0 134.0 L 113.0 134.0 L 113.0 134.0 L 113.0 134.0 L 114.0 133.0 L 117.0 132.0 L 121.0 131.0 L 127.0 130.0 L 133.0 129.0 L 141.0 128.0 L 149.0 127.0 L 157.0 126.0 L 166.0 126.0 L 177.0 125.0 L 185.0 124.0 L 192.0 124.0 L 198.0 124.0 L 201.0 124.0 L 202.0 125.0 " stroke="black" fill="none" stroke-width="5.0" stroke-linecap="round" stroke-linejoin="round" />
</svg>