<svg xmlns="http://www.w3.org/2000/svg" width="300" height="300" viewBox="0 0 300 300">
<path d="M 106.0 93.0 L 106.0 93.0 L 106.0 92.0 L 106.0 92.0 L 105.0 92.0 L 105.0 92.0 L 105.0 93.0 L 105.0 96.0 L 105.0 100.0 L 105.0 105.0 L 106.0 112.0 L 107.0 120.0 L 107.0 130.0 L 107.0 142.0 L 108.0 154.0 L 108.0 166.0 L 108.0 179.0 L 109.0 192.0 L 109.0 203.0 L 110.0 213.0 L 110.0 221.0 L 111.0 228.0 L 111.0 234.0 L 111.0 237.0 L 111.0 238.0 L 111.0 238.0 L 111.0 237.0 " stroke="black" fill="none" stroke-width="5.0" stroke-linecap="round" stroke-linejoin="round" />
<path d="M 190.0 93.0 L 190.0 93.0 L 190.0 93.0 L 189.0 93.0 L 188.0 94.0 L 188.0 94.0 L 187.0 95.0 L 186.0 96.0 L 185.0 98.0 L 184.0 100.0 L 182.0 103.0 L 179.0 107.0 L 175.0 112.0 L 171.0 117.0 L 166.0 122.0 L 159.0 128.0 L 154.0 134.0 L 148.0 141.0 L 142.0 150.0 L 136.0 157.0 L 128.0 164.0 L 119.0 171.0 L 114.0 176.0 L 110.0 180.0 L 108.0 184.0 L 108.0 184.0 L 108.0 184.0 " stroke="black" fill="none" stroke-width="5.0" stroke-linecap="round" stroke-linejoin="round" />
<path d="M 154.0 148.0 L 154.0 148.0 L 154.0 148.0 L 153.0 148.0 L 153.0 148.0 L 153.0 148.0 L 153.0 148.0 L 154.0 150.0 L 157.0 152.0 L 160.0 156.0 L 164.0 162.0 L 169.0 168.0 L 175.0 177.0 L 180.0 186.0 L 185.0 194.0 L 189.0 202.0 L 191.0 206.0 L 193.0 210.0 L 194.0 214.0 L 195.0 216.0 L 196.0 217.0 L 196.0 218.0 L 196.0 218.0 L 197.0 219.0 " stroke="black" fill="none" stroke-width="5.0" stroke-linecap="round" stroke-linejoin="round" />
</svg>