<svg xmlns="http://www.w3.org/2000/svg" width="300" height="300" viewBox="0 0 300 300">
<path d="M 125.0 96.0 L 125.0 96.0 L 125.0 95.0 L 125.0 95.0 L 125.0 94.0 L 125.0 94.0 L 125.0 94.0 L 125.0 94.0 L 125.0 97.0 L 125.0 101.0 L 125.0 106.0 L 126.0 114.0 L 126.0 122.0 L 126.0 133.0 L 126.0 147.0 L 124.0 158.0 L 123.0 167.0 L 122.0 175.0 L 122.0 178.0 " stroke="black" fill="none" stroke-width="5.0" stroke-linecap="round" stroke-linejoin="round" />
<path d="M 167.0 95.0 L 167.0 95.0 L 167.0 94.0 L 167.0 94.0 L 167.0 93.0 L 168.0 93.0 L 168.0 93.0 L 169.0 93.0 L 170.0 94.0 L 171.0 97.0 L 172.0 100.0 L 173.0 104.0 L 173.0 109.0 L 174.0 115.0 L 175.0 122.0 L 175.0 130.0 L 175.0 140.0 L 175.0 151.0 L 174.0 160.0 L 173.0 170.0 L 170.0 181.0 L 168.0 191.0 L 164.0 200.0 L 160.0 210.0 L 157.0 217.0 L 153.0 224.0 L 150.0 232.0 L 146.0 238.0 L 143.0 243.0 L 140.0 247.0 " stroke="black" fill="none" stroke-width="5.0" stroke-linecap="round" stroke-linejoin="round" />
</svg>