<svg xmlns="http://www.w3.org/2000/svg" width="300" height="300" viewBox="0 0 300 300">
<path d="M 111.0 113.0 L 111.0 113.0 L 111.0 113.0 L 110.0 112.0 L 110.0 112.0 L 110.0 112.0 L 110.0 112.0 L 110.0 114.0 L 111.0 118.0 L 113.0 122.0 L 114.0 127.0 L 116.0 133.0 L 118.0 140.0 L 119.0 146.0 L 121.0 152.0 L 122.0 156.0 L 122.0 157.0 " stroke="black" fill="none" stroke-width="5.0" stroke-linecap="round" stroke-linejoin="round" />
<path d="M 138.0 103.0 L 138.0 103.0 L 138.0 103.0 L 138.0 104.0 L 139.0 105.0 L 140.0 106.0 L 141.0 109.0 L 143.0 113.0 L 145.0 117.0 L 147.0 123.0 L 148.0 128.0 L 150.0 133.0 L 151.0 139.0 " stroke="black" fill="none" stroke-width="5.0" stroke-linecap="round" stroke-linejoin="round" />
<path d="M 175.0 112.0 L 175.0 112.0 L 175.0 112.0 L 175.0 112.0 L 175.0 112.0 L 175.0 112.0 L 175.0 113.0 L 175.0 114.0 L 175.0 116.0 L 175.0 118.0 L 175.0 121.0 L 176.0 126.0 L 177.0 132.0 L 177.0 138.0 L 177.0 146.0 L 177.0 154.0 L 176.0 161.0 L 174.0 169.0 L 172.0 176.0 L 168.0 186.0 L 164.0 196.0 L 159.0 204.0 L 154.0 211.0 L 150.0 219.0 L 146.0 226.0 L 141.0 233.0 L 135.0 240.0 " stroke="black" fill="none" stroke-width="5.0" stroke-linecap="round" stroke-linejoin="round" />
</svg>