<svg xmlns="http://www.w3.org/2000/svg" width="300" height="300" viewBox="0 0 300 300">
<path d="M 129.0 107.0 L 128.0 107.0 L 126.0 107.0 L 125.0 107.0 L 124.0 107.0 L 123.0 107.0 L 123.0 107.0 L 122.0 107.0 L 122.0 107.0 L 122.0 107.0 L 123.0 107.0 L 125.0 107.0 L 127.0 107.0 L 130.0 107.0 L 134.0 107.0 L 138.0 107.0 L 142.0 107.0 L 146.0 107.0 L 150.0 107.0 L 153.0 107.0 L 158.0 107.0 L 162.0 107.0 L 166.0 107.0 L 170.0 107.0 L 174.0 107.0 L 177.0 107.0 L 180.0 108.0 L 181.0 108.0 L 183.0 109.0 L 184.0 109.0 L 184.0 109.0 L 184.0 110.0 L 184.0 110.0 L 184.0 110.0 L 184.0 111.0 L 184.0 111.0 L 184.0 112.0 L 184.0 112.0 L 184.0 113.0 L 184.0 114.0 L 183.0 115.0 L 182.0 117.0 L 182.0 118.0 L 181.0 121.0 L 180.0 123.0 L 179.0 125.0 L 178.0 128.0 L 177.0 131.0 L 175.0 135.0 L 174.0 139.0 L 172.0 144.0 L 170.0 149.0 L 168.0 155.0 L 164.0 161.0 L 161.0 166.0 L 158.0 173.0 L 154.0 180.0 L 151.0 187.0 L 149.0 193.0 L 146.0 199.0 L 143.0 204.0 L 139.0 209.0 L 134.0 214.0 L 129.0 218.0 L 123.0 224.0 L 118.0 229.0 L 114.0 233.0 L 111.0 236.0 L 109.0 237.0 " stroke="black" fill="none" stroke-width="5.0" stroke-linecap="round" stroke-linejoin="round" />
<path d="M 160.0 181.0 L 160.0 181.0 L 160.0 181.0 L 160.0 181.0 L 160.0 181.0 L 160.0 181.0 L 160.0 181.0 L 160.0 182.0 L 161.0 184.0 L 163.0 187.0 L 166.0 191.0 L 169.0 196.0 L 173.0 202.0 L 177.0 209.0 L 181.0 216.0 L 185.0 223.0 L 187.0 229.0 L 189.0 233.0 L 190.0 235.0 " stroke="black" fill="none" stroke-width="5.0" stroke-linecap="round" stroke-linejoin="round" />
</svg>