<svg xmlns="http://www.w3.org/2000/svg" width="300" height="300" viewBox="0 0 300 300">
<path d="M 104.0 98.0 L 104.0 98.0 L 103.0 98.0 L 102.0 97.0 L 102.0 97.0 L 101.0 97.0 L 101.0 97.0 L 101.0 97.0 L 101.0 98.0 L 101.0 100.0 L 103.0 103.0 L 105.0 107.0 L 107.0 111.0 L 109.0 116.0 L 113.0 122.0 L 117.0 127.0 L 122.0 133.0 L 129.0 140.0 L 134.0 145.0 L 139.0 149.0 L 143.0 152.0 L 145.0 154.0 L 146.0 155.0 L 146.0 157.0 L 146.0 158.0 L 146.0 158.0 L 146.0 158.0 L 146.0 158.0 " stroke="black" fill="none" stroke-width="5.0" stroke-linecap="round" stroke-linejoin="round" />
<path d="M 197.0 95.0 L 197.0 95.0 L 197.0 95.0 L 197.0 95.0 L 197.0 95.0 L 197.0 95.0 L 196.0 95.0 L 196.0 95.0 L 196.0 96.0 L 196.0 97.0 L 195.0 99.0 L 194.0 102.0 L 192.0 105.0 L 190.0 109.0 L 187.0 113.0 L 183.0 118.0 L 179.0 123.0 L 174.0 127.0 L 169.0 131.0 L 164.0 135.0 L 160.0 138.0 L 156.0 141.0 L 153.0 144.0 L 152.0 146.0 L 151.0 148.0 L 150.0 150.0 L 149.0 151.0 L 149.0 152.0 L 148.0 152.0 L 148.0 152.0 L 148.0 152.0 L 148.0 152.0 L 148.0 152.0 L 148.0 152.0 L 148.0 152.0 L 148.0 152.0 L 148.0 152.0 L 148.0 152.0 L 148.0 152.0 L 148.0 152.0 L 149.0 153.0 L 149.0 153.0 L 149.0 154.0 L 149.0 154.0 L 149.0 155.0 L 149.0 156.0 L 149.0 157.0 L 150.0 159.0 L 150.0 162.0 L 150.0 165.0 L 150.0 168.0 L 151.0 173.0 L 151.0 178.0 L 151.0 184.0 L 152.0 191.0 L 152.0 198.0 L 152.0 204.0 L 152.0 210.0 L 152.0 215.0 L 152.0 218.0 L 152.0 221.0 L 152.0 225.0 L 152.0 227.0 L 151.0 229.0 L 151.0 230.0 L 151.0 231.0 L 151.0 231.0 L 151.0 232.0 L 151.0 232.0 L 151.0 232.0 L 151.0 232.0 L 151.0 231.0 L 151.0 230.0 L 151.0 230.0 " stroke="black" fill="none" stroke-width="5.0" stroke-linecap="round" stroke-linejoin="round" />
</svg>