<svg xmlns="http://www.w3.org/2000/svg" width="300" height="300" viewBox="0 0 300 300">
<path d="M 113.0 103.0 L 113.0 102.0 L 112.0 102.0 L 112.0 101.0 L 111.0 101.0 L 111.0 101.0 L 111.0 101.0 L 111.0 102.0 L 112.0 104.0 L 114.0 107.0 L 116.0 110.0 L 119.0 114.0 L 121.0 119.0 L 124.0 124.0 L 126.0 130.0 L 129.0 136.0 L 130.0 140.0 L 131.0 144.0 " stroke="black" fill="none" stroke-width="5.0" stroke-linecap="round" stroke-linejoin="round" />
<path d="M 178.0 98.0 L 178.0 98.0 L 178.0 98.0 L 178.0 98.0 L 178.0 99.0 L 178.0 99.0 L 178.0 101.0 L 179.0 102.0 L 179.0 105.0 L 179.0 109.0 L 180.0 113.0 L 180.0 118.0 L 180.0 124.0 L 180.0 130.0 L 180.0 137.0 L 179.0 145.0 L 178.0 153.0 L 176.0 160.0 L 174.0 167.0 L 172.0 174.0 L 169.0 180.0 L 166.0 188.0 L 163.0 194.0 L 159.0 201.0 L 156.0 208.0 L 153.0 214.0 L 150.0 220.0 L 146.0 227.0 L 143.0 233.0 L 140.0 238.0 L 136.0 242.0 L 133.0 244.0 L 130.0 245.0 L 129.0 245.0 " stroke="black" fill="none" stroke-width="5.0" stroke-linecap="round" stroke-linejoin="round" />
</svg>