<svg xmlns="http://www.w3.org/2000/svg" width="300" height="300" viewBox="0 0 300 300">
<path d="M 65.0 73.0 L 65.0 73.0 L 65.0 73.0 L 65.0 73.0 L 64.0 73.0 L 64.0 73.0 L 64.0 73.0 L 64.0 72.0 L 64.0 72.0 L 64.0 72.0 L 63.0 72.0 L 63.0 72.0 L 63.0 72.0 L 63.0 71.0 L 63.0 71.0 L 63.0 71.0 L 63.0 71.0 L 63.0 71.0 L 63.0 72.0 L 63.0 72.0 L 64.0 73.0 L 64.0 74.0 L 65.0 75.0 L 65.0 75.0 L 66.0 76.0 L 66.0 77.0 L 66.0 77.0 L 67.0 78.0 L 68.0 78.0 L 68.0 79.0 L 69.0 79.0 L 69.0 80.0 L 70.0 80.0 L 70.0 81.0 L 71.0 81.0 L 71.0 82.0 L 72.0 83.0 L 73.0 83.0 L 73.0 84.0 L 74.0 84.0 L 75.0 85.0 L 75.0 86.0 L 76.0 86.0 L 76.0 87.0 L 77.0 87.0 L 78.0 88.0 L 78.0 89.0 L 78.0 89.0 L 79.0 90.0 L 79.0 91.0 L 80.0 91.0 L 80.0 92.0 L 81.0 93.0 L 82.0 94.0 L 83.0 95.0 L 83.0 96.0 L 84.0 97.0 L 85.0 98.0 L 86.0 100.0 L 86.0 101.0 L 87.0 102.0 L 88.0 103.0 L 89.0 104.0 L 89.0 105.0 L 90.0 106.0 L 90.0 107.0 L 91.0 108.0 L 91.0 109.0 L 91.0 110.0 L 92.0 111.0 L 92.0 112.0 L 92.0 112.0 L 93.0 113.0 L 93.0 114.0 L 93.0 115.0 L 94.0 116.0 L 94.0 117.0 L 94.0 118.0 L 95.0 120.0 L 95.0 121.0 L 95.0 122.0 L 96.0 123.0 L 96.0 125.0 L 96.0 126.0 L 96.0 127.0 L 97.0 129.0 L 97.0 130.0 L 97.0 131.0 L 97.0 132.0 L 97.0 134.0 L 98.0 135.0 L 98.0 136.0 L 98.0 137.0 L 98.0 139.0 L 98.0 141.0 L 98.0 142.0 L 98.0 144.0 L 98.0 146.0 L 98.0 147.0 L 98.0 149.0 L 98.0 150.0 L 98.0 151.0 L 98.0 152.0 L 98.0 154.0 L 98.0 155.0 L 98.0 156.0 L 98.0 157.0 L 98.0 159.0 L 98.0 160.0 L 98.0 162.0 L 98.0 163.0 L 98.0 164.0 L 98.0 166.0 L 98.0 167.0 L 98.0 169.0 L 98.0 170.0 L 98.0 171.0 L 98.0 172.0 L 98.0 174.0 L 98.0 175.0 L 98.0 177.0 L 98.0 178.0 L 98.0 180.0 L 98.0 182.0 L 97.0 183.0 L 97.0 185.0 L 97.0 186.0 L 97.0 188.0 L 97.0 189.0 L 97.0 191.0 L 97.0 192.0 L 96.0 194.0 L 96.0 195.0 L 96.0 196.0 L 96.0 198.0 L 96.0 199.0 L 95.0 200.0 L 95.0 201.0 L 95.0 202.0 L 95.0 202.0 L 94.0 203.0 L 94.0 204.0 L 94.0 205.0 L 94.0 206.0 L 94.0 207.0 L 93.0 208.0 L 93.0 209.0 L 92.0 210.0 L 92.0 211.0 L 91.0 212.0 L 91.0 213.0 L 90.0 214.0 L 89.0 215.0 L 89.0 216.0 L 88.0 217.0 L 87.0 218.0 L 86.0 219.0 L 85.0 220.0 L 85.0 220.0 L 84.0 221.0 L 83.0 223.0 L 83.0 224.0 L 82.0 225.0 L 81.0 226.0 L 81.0 227.0 L 80.0 228.0 L 80.0 230.0 L 79.0 231.0 L 78.0 232.0 L 78.0 233.0 L 77.0 234.0 L 77.0 235.0 L 76.0 236.0 L 76.0 237.0 L 75.0 238.0 L 74.0 239.0 L 74.0 240.0 L 73.0 241.0 L 73.0 242.0 L 72.0 243.0 L 72.0 243.0 L 71.0 244.0 L 71.0 245.0 L 70.0 245.0 L 69.0 246.0 L 69.0 246.0 L 68.0 247.0 L 67.0 247.0 L 67.0 247.0 L 66.0 248.0 L 66.0 248.0 L 65.0 248.0 L 65.0 248.0 L 64.0 249.0 L 64.0 249.0 L 64.0 249.0 L 64.0 249.0 L 63.0 249.0 L 63.0 249.0 L 63.0 249.0 L 63.0 249.0 L 63.0 249.0 " stroke="black" fill="none" stroke-width="5.0" stroke-linecap="round" stroke-linejoin="round" />
</svg>