<svg xmlns="http://www.w3.org/2000/svg" width="300" height="300" viewBox="0 0 300 300">
<path d="M 97.0 100.0 L 97.0 100.0 L 97.0 100.0 L 96.0 100.0 L 96.0 100.0 L 96.0 100.0 L 95.0 100.0 L 95.0 101.0 L 95.0 102.0 L 95.0 103.0 L 96.0 103.0 L 96.0 105.0 L 97.0 106.0 L 98.0 107.0 L 99.0 109.0 L 100.0 111.0 L 101.0 113.0 L 102.0 116.0 L 103.0 119.0 L 104.0 122.0 L 105.0 125.0 L 106.0 128.0 L 107.0 130.0 L 109.0 133.0 L 110.0 135.0 L 111.0 137.0 L 112.0 139.0 L 114.0 142.0 L 115.0 144.0 L 116.0 147.0 L 117.0 150.0 L 118.0 153.0 L 119.0 156.0 L 120.0 159.0 L 121.0 162.0 L 122.0 164.0 L 123.0 167.0 L 124.0 169.0 L 126.0 171.0 L 127.0 174.0 L 128.0 176.0 L 130.0 178.0 L 131.0 180.0 L 132.0 183.0 L 133.0 186.0 L 133.0 189.0 L 134.0 191.0 L 135.0 194.0 L 136.0 197.0 L 137.0 200.0 L 138.0 202.0 L 139.0 205.0 L 140.0 207.0 L 141.0 208.0 L 142.0 210.0 L 143.0 212.0 L 143.0 214.0 L 144.0 216.0 L 144.0 217.0 L 145.0 219.0 L 145.0 221.0 L 146.0 223.0 L 146.0 225.0 L 146.0 226.0 L 146.0 228.0 L 147.0 228.0 L 147.0 229.0 L 147.0 230.0 L 147.0 230.0 L 147.0 230.0 L 147.0 231.0 L 147.0 231.0 L 147.0 231.0 L 147.0 232.0 L 147.0 232.0 L 147.0 232.0 L 147.0 232.0 L 147.0 232.0 L 147.0 232.0 L 147.0 232.0 L 148.0 232.0 L 148.0 232.0 L 148.0 232.0 L 148.0 232.0 L 148.0 232.0 L 148.0 232.0 L 148.0 232.0 L 148.0 232.0 L 148.0 232.0 L 148.0 232.0 L 148.0 232.0 L 148.0 232.0 L 148.0 232.0 L 148.0 231.0 L 148.0 231.0 L 149.0 231.0 L 149.0 230.0 L 149.0 229.0 L 149.0 228.0 L 149.0 227.0 L 149.0 225.0 L 150.0 222.0 L 150.0 219.0 L 150.0 216.0 L 151.0 211.0 L 152.0 207.0 L 153.0 202.0 L 155.0 196.0 L 157.0 190.0 L 159.0 182.0 L 162.0 175.0 L 165.0 166.0 L 168.0 159.0 L 171.0 153.0 L 174.0 147.0 L 177.0 143.0 L 179.0 137.0 L 182.0 132.0 L 184.0 128.0 L 185.0 123.0 L 187.0 119.0 L 189.0 115.0 L 191.0 111.0 L 192.0 106.0 L 194.0 103.0 L 195.0 99.0 L 196.0 96.0 L 197.0 93.0 L 198.0 91.0 L 199.0 90.0 L 199.0 89.0 L 200.0 88.0 L 200.0 88.0 L 200.0 87.0 L 200.0 87.0 L 200.0 87.0 L 200.0 87.0 L 200.0 87.0 " stroke="black" fill="none" stroke-width="5.0" stroke-linecap="round" stroke-linejoin="round" />
</svg>