<svg xmlns="http://www.w3.org/2000/svg" width="300" height="300" viewBox="0 0 300 300">
<path d="M 116.0 126.0 L 116.0 126.0 L 114.0 126.0 L 113.0 126.0 L 112.0 126.0 L 112.0 126.0 L 112.0 126.0 L 111.0 126.0 L 111.0 126.0 L 111.0 126.0 L 112.0 126.0 L 113.0 126.0 L 115.0 126.0 L 116.0 126.0 L 118.0 126.0 L 120.0 126.0 L 123.0 126.0 L 125.0 126.0 L 128.0 126.0 L 131.0 126.0 L 134.0 126.0 L 138.0 126.0 L 141.0 126.0 L 144.0 126.0 L 147.0 126.0 L 150.0 126.0 L 152.0 126.0 L 154.0 126.0 L 156.0 126.0 L 157.0 126.0 L 159.0 126.0 L 161.0 126.0 L 164.0 127.0 L 166.0 127.0 L 169.0 128.0 L 172.0 128.0 L 175.0 128.0 L 177.0 129.0 L 180.0 129.0 L 182.0 130.0 L 183.0 130.0 L 184.0 130.0 L 184.0 131.0 L 184.0 131.0 L 184.0 132.0 L 184.0 132.0 L 184.0 133.0 L 184.0 133.0 L 184.0 134.0 L 184.0 136.0 L 184.0 137.0 L 184.0 139.0 L 184.0 141.0 L 184.0 143.0 L 184.0 146.0 L 184.0 149.0 L 184.0 153.0 L 184.0 157.0 L 184.0 161.0 L 183.0 166.0 L 182.0 170.0 L 182.0 175.0 L 181.0 180.0 L 181.0 185.0 L 180.0 190.0 L 180.0 194.0 L 179.0 199.0 L 179.0 203.0 L 178.0 206.0 L 177.0 210.0 L 177.0 213.0 L 176.0 215.0 L 175.0 218.0 L 174.0 221.0 L 174.0 224.0 L 173.0 228.0 L 172.0 230.0 L 171.0 232.0 L 170.0 234.0 L 169.0 235.0 L 168.0 236.0 L 167.0 236.0 L 166.0 236.0 L 164.0 236.0 L 163.0 235.0 L 161.0 234.0 L 159.0 233.0 L 157.0 231.0 L 155.0 229.0 L 153.0 227.0 L 151.0 223.0 L 149.0 219.0 " stroke="black" fill="none" stroke-width="5.0" stroke-linecap="round" stroke-linejoin="round" />
<path d="M 145.0 87.0 L 145.0 87.0 L 145.0 87.0 L 145.0 87.0 L 145.0 87.0 L 145.0 87.0 L 145.0 87.0 L 145.0 87.0 L 145.0 88.0 L 145.0 89.0 L 146.0 92.0 L 147.0 96.0 L 147.0 101.0 L 148.0 107.0 L 149.0 113.0 L 149.0 120.0 L 150.0 127.0 L 150.0 134.0 L 150.0 142.0 L 149.0 150.0 L 147.0 158.0 L 145.0 166.0 L 142.0 173.0 L 140.0 181.0 L 137.0 189.0 L 134.0 197.0 L 131.0 203.0 L 128.0 209.0 L 124.0 214.0 L 120.0 219.0 L 117.0 224.0 L 114.0 229.0 L 111.0 233.0 L 109.0 235.0 L 108.0 237.0 " stroke="black" fill="none" stroke-width="5.0" stroke-linecap="round" stroke-linejoin="round" />
</svg>