<svg xmlns="http://www.w3.org/2000/svg" width="300" height="300" viewBox="0 0 300 300">
<path d="M 111.0 126.0 L 111.0 126.0 L 111.0 126.0 L 111.0 127.0 L 111.0 127.0 L 111.0 128.0 L 111.0 129.0 L 111.0 130.0 L 111.0 132.0 L 111.0 134.0 L 112.0 137.0 L 112.0 141.0 L 112.0 145.0 L 112.0 151.0 L 112.0 156.0 L 112.0 162.0 L 112.0 167.0 L 112.0 172.0 L 112.0 176.0 L 112.0 180.0 L 112.0 185.0 L 112.0 188.0 L 112.0 192.0 L 112.0 196.0 L 112.0 199.0 L 112.0 202.0 L 112.0 205.0 L 113.0 207.0 L 113.0 210.0 L 113.0 212.0 L 113.0 214.0 L 113.0 216.0 L 114.0 218.0 L 114.0 220.0 L 114.0 222.0 L 114.0 224.0 L 114.0 226.0 L 114.0 229.0 L 114.0 231.0 L 114.0 234.0 L 114.0 236.0 L 114.0 238.0 L 114.0 239.0 L 114.0 241.0 L 114.0 242.0 L 114.0 242.0 L 114.0 243.0 L 114.0 243.0 L 114.0 244.0 L 114.0 244.0 L 114.0 244.0 L 114.0 244.0 L 114.0 244.0 L 114.0 244.0 L 114.0 244.0 L 114.0 244.0 L 113.0 244.0 L 113.0 245.0 L 113.0 245.0 L 113.0 245.0 L 113.0 245.0 L 112.0 245.0 L 112.0 245.0 L 112.0 246.0 L 112.0 246.0 L 112.0 246.0 L 112.0 246.0 L 112.0 247.0 L 112.0 247.0 L 112.0 247.0 L 112.0 247.0 L 111.0 248.0 L 111.0 248.0 L 111.0 248.0 L 111.0 248.0 L 111.0 248.0 L 111.0 248.0 L 111.0 248.0 L 111.0 249.0 L 111.0 249.0 L 110.0 249.0 L 110.0 249.0 L 110.0 249.0 L 110.0 249.0 L 109.0 249.0 L 109.0 249.0 L 109.0 249.0 L 108.0 249.0 L 108.0 249.0 L 107.0 249.0 L 106.0 249.0 L 105.0 249.0 L 104.0 249.0 L 103.0 249.0 L 101.0 250.0 L 100.0 250.0 L 98.0 250.0 L 96.0 250.0 L 93.0 250.0 L 91.0 250.0 L 87.0 249.0 L 84.0 249.0 L 81.0 249.0 L 78.0 249.0 L 75.0 249.0 L 73.0 249.0 L 71.0 249.0 L 69.0 249.0 L 67.0 249.0 L 65.0 249.0 L 64.0 249.0 L 63.0 249.0 L 62.0 249.0 L 61.0 249.0 L 61.0 249.0 L 60.0 249.0 L 60.0 249.0 L 60.0 249.0 L 59.0 249.0 L 59.0 249.0 L 59.0 249.0 L 59.0 249.0 L 59.0 249.0 L 58.0 250.0 L 58.0 250.0 L 58.0 250.0 L 58.0 250.0 L 58.0 250.0 L 58.0 251.0 L 58.0 251.0 " stroke="black" fill="none" stroke-width="6.0" stroke-linecap="round" stroke-linejoin="round" />
</svg>