<svg xmlns="http://www.w3.org/2000/svg" width="300" height="300" viewBox="0 0 300 300">
<path d="M 110.0 131.0 L 110.0 131.0 L 110.0 130.0 L 110.0 129.0 L 110.0 129.0 L 110.0 129.0 L 110.0 129.0 L 110.0 129.0 L 110.0 130.0 L 110.0 131.0 L 110.0 132.0 L 110.0 134.0 L 110.0 136.0 L 110.0 138.0 L 110.0 140.0 L 110.0 142.0 L 110.0 145.0 L 110.0 148.0 L 110.0 151.0 L 110.0 154.0 L 110.0 157.0 L 110.0 160.0 L 110.0 163.0 L 110.0 167.0 L 110.0 170.0 L 110.0 173.0 L 109.0 176.0 L 109.0 179.0 L 109.0 182.0 L 109.0 186.0 L 109.0 189.0 L 109.0 192.0 L 109.0 195.0 L 108.0 198.0 L 108.0 200.0 L 108.0 203.0 L 108.0 205.0 L 108.0 207.0 L 108.0 209.0 L 108.0 211.0 L 108.0 212.0 L 108.0 214.0 L 108.0 216.0 L 108.0 218.0 L 108.0 221.0 L 108.0 224.0 L 108.0 227.0 L 108.0 230.0 L 108.0 234.0 L 108.0 236.0 L 108.0 239.0 L 108.0 241.0 L 108.0 243.0 L 108.0 245.0 L 108.0 246.0 L 108.0 246.0 L 108.0 246.0 L 108.0 246.0 " stroke="black" fill="none" stroke-width="5.0" stroke-linecap="round" stroke-linejoin="round" />
<path d="M 61.0 250.0 L 61.0 250.0 L 61.0 250.0 L 61.0 249.0 L 60.0 249.0 L 60.0 249.0 L 60.0 249.0 L 59.0 249.0 L 59.0 249.0 L 59.0 249.0 L 58.0 249.0 L 58.0 249.0 L 58.0 249.0 L 58.0 249.0 L 58.0 249.0 L 58.0 249.0 L 59.0 249.0 L 60.0 250.0 L 62.0 250.0 L 63.0 250.0 L 66.0 250.0 L 69.0 250.0 L 73.0 250.0 L 77.0 250.0 L 82.0 250.0 L 86.0 250.0 L 91.0 250.0 L 96.0 250.0 L 99.0 250.0 L 102.0 250.0 L 105.0 250.0 L 106.0 250.0 L 107.0 250.0 L 108.0 250.0 L 109.0 250.0 L 109.0 250.0 L 109.0 250.0 L 110.0 250.0 " stroke="black" fill="none" stroke-width="5.0" stroke-linecap="round" stroke-linejoin="round" />
</svg>