<svg xmlns="http://www.w3.org/2000/svg" width="300" height="300" viewBox="0 0 300 300">
<path d="M 87.0 109.0 L 87.0 109.0 L 87.0 109.0 L 87.0 109.0 L 87.0 109.0 L 87.0 109.0 L 87.0 109.0 L 87.0 109.0 L 88.0 109.0 L 88.0 109.0 L 88.0 109.0 L 88.0 109.0 L 89.0 109.0 L 89.0 109.0 L 90.0 109.0 L 90.0 109.0 L 91.0 109.0 L 92.0 109.0 L 93.0 109.0 L 94.0 109.0 L 96.0 109.0 L 97.0 109.0 L 98.0 109.0 L 100.0 108.0 L 101.0 108.0 L 102.0 108.0 L 103.0 108.0 L 104.0 108.0 L 105.0 108.0 L 106.0 108.0 L 107.0 108.0 L 107.0 108.0 L 108.0 108.0 L 109.0 108.0 L 110.0 108.0 L 110.0 107.0 L 111.0 107.0 L 112.0 107.0 L 113.0 107.0 L 114.0 107.0 L 114.0 107.0 L 115.0 107.0 L 116.0 107.0 L 117.0 107.0 L 118.0 107.0 L 119.0 107.0 L 120.0 107.0 L 121.0 107.0 L 122.0 107.0 L 124.0 107.0 L 125.0 107.0 L 126.0 106.0 L 127.0 106.0 L 128.0 106.0 L 129.0 106.0 L 130.0 106.0 L 131.0 106.0 L 132.0 106.0 L 133.0 106.0 L 134.0 106.0 L 135.0 106.0 L 136.0 106.0 L 137.0 106.0 L 138.0 106.0 L 139.0 106.0 L 140.0 106.0 L 141.0 106.0 L 142.0 106.0 L 143.0 106.0 L 144.0 106.0 L 144.0 106.0 L 145.0 106.0 L 146.0 106.0 L 147.0 106.0 L 148.0 106.0 L 148.0 106.0 L 149.0 106.0 L 150.0 106.0 L 150.0 106.0 L 151.0 106.0 L 151.0 106.0 L 152.0 106.0 L 153.0 106.0 L 153.0 106.0 L 154.0 106.0 L 155.0 106.0 L 156.0 106.0 L 156.0 106.0 L 157.0 106.0 L 157.0 106.0 L 158.0 106.0 L 160.0 107.0 L 161.0 107.0 L 162.0 107.0 L 163.0 107.0 L 164.0 107.0 L 166.0 107.0 L 167.0 107.0 L 169.0 107.0 L 170.0 107.0 L 172.0 107.0 L 173.0 107.0 L 175.0 107.0 L 176.0 107.0 L 178.0 107.0 L 179.0 107.0 L 181.0 107.0 L 182.0 107.0 L 184.0 106.0 L 185.0 106.0 L 187.0 106.0 L 188.0 106.0 L 189.0 106.0 L 190.0 106.0 L 191.0 106.0 L 192.0 106.0 L 193.0 106.0 L 194.0 107.0 L 195.0 107.0 L 196.0 107.0 L 197.0 107.0 L 198.0 107.0 L 199.0 107.0 L 201.0 107.0 L 202.0 107.0 L 204.0 107.0 L 205.0 107.0 L 207.0 107.0 L 209.0 107.0 L 210.0 107.0 L 211.0 107.0 L 211.0 107.0 " stroke="black" fill="none" stroke-width="5.0" stroke-linecap="round" stroke-linejoin="round" />
<path d="M 151.0 75.0 L 151.0 75.0 L 151.0 75.0 L 151.0 76.0 L 151.0 76.0 L 150.0 77.0 L 150.0 79.0 L 150.0 80.0 L 150.0 82.0 L 150.0 85.0 L 150.0 88.0 L 150.0 93.0 L 150.0 99.0 L 151.0 106.0 L 151.0 112.0 L 152.0 119.0 L 152.0 125.0 L 152.0 130.0 L 152.0 136.0 L 152.0 140.0 L 151.0 144.0 L 151.0 149.0 L 151.0 152.0 L 151.0 155.0 L 151.0 158.0 L 151.0 160.0 L 151.0 161.0 L 151.0 163.0 L 151.0 163.0 L 151.0 164.0 L 151.0 164.0 L 151.0 164.0 " stroke="black" fill="none" stroke-width="5.0" stroke-linecap="round" stroke-linejoin="round" />
<path d="M 66.0 161.0 L 66.0 161.0 L 66.0 161.0 L 66.0 161.0 L 66.0 161.0 L 66.0 161.0 L 66.0 162.0 L 66.0 162.0 L 66.0 162.0 L 66.0 162.0 L 66.0 162.0 L 66.0 162.0 L 67.0 162.0 L 69.0 162.0 L 70.0 161.0 L 72.0 161.0 L 74.0 161.0 L 75.0 160.0 L 78.0 160.0 L 79.0 160.0 L 81.0 160.0 L 83.0 160.0 L 85.0 160.0 L 87.0 160.0 L 89.0 160.0 L 91.0 160.0 L 93.0 160.0 L 95.0 160.0 L 96.0 160.0 L 98.0 161.0 L 100.0 161.0 L 101.0 161.0 L 102.0 161.0 L 104.0 161.0 L 105.0 161.0 L 106.0 161.0 L 107.0 161.0 L 108.0 161.0 L 109.0 161.0 L 110.0 161.0 L 112.0 161.0 L 113.0 161.0 L 114.0 161.0 L 116.0 161.0 L 117.0 161.0 L 119.0 161.0 L 121.0 161.0 L 123.0 161.0 L 125.0 160.0 L 128.0 160.0 L 130.0 160.0 L 132.0 160.0 L 135.0 159.0 L 137.0 159.0 L 140.0 159.0 L 142.0 159.0 L 144.0 159.0 L 146.0 159.0 L 148.0 159.0 L 150.0 159.0 L 151.0 159.0 L 152.0 158.0 L 153.0 158.0 L 155.0 158.0 L 156.0 158.0 L 157.0 158.0 L 159.0 157.0 L 160.0 157.0 L 161.0 157.0 L 162.0 157.0 L 164.0 157.0 L 166.0 156.0 L 168.0 156.0 L 170.0 156.0 L 173.0 155.0 L 175.0 155.0 L 178.0 155.0 L 181.0 154.0 L 183.0 154.0 L 185.0 153.0 L 187.0 153.0 L 189.0 153.0 L 191.0 152.0 L 192.0 152.0 L 193.0 152.0 L 195.0 152.0 L 196.0 152.0 L 197.0 152.0 L 199.0 152.0 L 201.0 152.0 L 202.0 152.0 L 205.0 152.0 L 207.0 152.0 L 210.0 152.0 L 213.0 152.0 L 216.0 152.0 L 219.0 152.0 L 223.0 152.0 L 225.0 152.0 L 228.0 152.0 L 230.0 152.0 L 232.0 152.0 L 234.0 152.0 L 236.0 153.0 L 237.0 154.0 L 238.0 154.0 L 239.0 155.0 L 240.0 155.0 L 240.0 155.0 L 241.0 155.0 L 241.0 155.0 " stroke="black" fill="none" stroke-width="5.0" stroke-linecap="round" stroke-linejoin="round" />
<path d="M 151.0 161.0 L 151.0 161.0 L 151.0 161.0 L 150.0 161.0 L 150.0 161.0 L 150.0 161.0 L 149.0 161.0 L 149.0 161.0 L 148.0 162.0 L 148.0 162.0 L 147.0 163.0 L 146.0 165.0 L 145.0 166.0 L 144.0 168.0 L 143.0 170.0 L 141.0 172.0 L 139.0 175.0 L 138.0 177.0 L 137.0 179.0 L 135.0 182.0 L 132.0 185.0 L 129.0 189.0 L 127.0 191.0 L 124.0 194.0 L 122.0 196.0 L 120.0 198.0 L 118.0 200.0 L 116.0 202.0 L 115.0 204.0 L 114.0 205.0 L 112.0 207.0 L 112.0 208.0 L 111.0 209.0 L 110.0 211.0 L 109.0 212.0 L 108.0 213.0 L 107.0 215.0 L 106.0 216.0 L 106.0 218.0 L 105.0 219.0 L 104.0 221.0 L 103.0 222.0 L 102.0 223.0 L 101.0 224.0 L 101.0 225.0 L 100.0 227.0 L 99.0 228.0 L 99.0 229.0 L 98.0 230.0 L 97.0 230.0 L 97.0 231.0 L 96.0 232.0 L 96.0 233.0 L 95.0 234.0 L 94.0 234.0 L 94.0 235.0 L 93.0 235.0 L 93.0 236.0 L 93.0 236.0 L 93.0 236.0 L 93.0 237.0 L 93.0 237.0 L 93.0 237.0 L 93.0 237.0 L 93.0 237.0 L 93.0 237.0 L 93.0 237.0 L 93.0 237.0 L 93.0 237.0 L 93.0 237.0 L 94.0 237.0 L 94.0 237.0 L 95.0 237.0 L 95.0 237.0 L 96.0 237.0 L 97.0 237.0 L 98.0 237.0 L 99.0 237.0 L 100.0 237.0 L 101.0 236.0 L 103.0 236.0 L 104.0 236.0 L 106.0 236.0 L 107.0 235.0 L 109.0 235.0 L 110.0 235.0 L 112.0 235.0 L 114.0 234.0 L 116.0 234.0 L 118.0 234.0 L 121.0 234.0 L 124.0 233.0 L 127.0 233.0 L 130.0 233.0 L 134.0 233.0 L 135.0 233.0 L 137.0 233.0 L 141.0 233.0 L 144.0 232.0 L 147.0 232.0 L 150.0 232.0 L 152.0 231.0 L 154.0 231.0 L 157.0 230.0 L 159.0 230.0 L 161.0 229.0 L 163.0 229.0 L 166.0 229.0 L 168.0 228.0 L 170.0 228.0 L 173.0 228.0 L 175.0 227.0 L 178.0 227.0 L 181.0 227.0 L 183.0 227.0 L 185.0 227.0 L 188.0 227.0 L 189.0 227.0 L 191.0 227.0 L 193.0 227.0 L 194.0 227.0 L 196.0 227.0 L 197.0 227.0 L 199.0 227.0 L 200.0 227.0 L 202.0 226.0 L 203.0 226.0 L 204.0 225.0 L 205.0 225.0 L 206.0 225.0 L 206.0 224.0 L 206.0 224.0 L 205.0 224.0 " stroke="black" fill="none" stroke-width="5.0" stroke-linecap="round" stroke-linejoin="round" />
<path d="M 186.0 193.0 L 186.0 193.0 L 186.0 193.0 L 186.0 193.0 L 186.0 193.0 L 186.0 193.0 L 186.0 193.0 L 186.0 193.0 L 186.0 195.0 L 188.0 196.0 L 189.0 199.0 L 191.0 202.0 L 194.0 206.0 L 197.0 210.0 L 200.0 215.0 L 203.0 221.0 L 207.0 227.0 L 210.0 231.0 L 213.0 235.0 L 216.0 239.0 L 218.0 241.0 L 220.0 243.0 L 221.0 244.0 L 222.0 245.0 L 223.0 245.0 L 223.0 245.0 L 223.0 245.0 " stroke="black" fill="none" stroke-width="5.0" stroke-linecap="round" stroke-linejoin="round" />
</svg>