<svg xmlns="http://www.w3.org/2000/svg" width="300" height="300" viewBox="0 0 300 300">
<path d="M 74.0 96.0 L 74.0 96.0 L 74.0 96.0 L 73.0 97.0 L 73.0 97.0 L 73.0 97.0 L 73.0 97.0 L 72.0 97.0 L 72.0 97.0 L 72.0 97.0 L 72.0 96.0 L 72.0 96.0 L 72.0 96.0 L 71.0 96.0 L 71.0 96.0 L 71.0 96.0 L 71.0 96.0 L 70.0 95.0 L 70.0 95.0 L 70.0 95.0 L 70.0 95.0 L 69.0 95.0 L 69.0 95.0 L 69.0 95.0 L 69.0 95.0 L 69.0 95.0 L 69.0 95.0 L 69.0 95.0 L 68.0 95.0 L 68.0 95.0 L 68.0 96.0 L 68.0 96.0 L 68.0 96.0 L 68.0 96.0 L 68.0 96.0 L 69.0 96.0 L 69.0 96.0 L 70.0 96.0 L 71.0 96.0 L 71.0 96.0 L 72.0 97.0 L 72.0 97.0 L 73.0 97.0 L 74.0 97.0 L 75.0 97.0 L 76.0 97.0 L 78.0 96.0 L 79.0 96.0 L 80.0 96.0 L 82.0 96.0 L 83.0 96.0 L 84.0 96.0 L 85.0 96.0 L 86.0 96.0 L 87.0 96.0 L 88.0 96.0 L 89.0 95.0 L 90.0 95.0 L 91.0 95.0 L 92.0 95.0 L 92.0 95.0 L 93.0 95.0 L 94.0 95.0 L 94.0 95.0 L 95.0 96.0 L 95.0 96.0 L 96.0 96.0 L 96.0 96.0 L 96.0 96.0 L 97.0 96.0 L 97.0 96.0 L 97.0 96.0 L 98.0 97.0 L 98.0 97.0 L 98.0 97.0 L 99.0 97.0 L 99.0 97.0 L 100.0 97.0 L 100.0 97.0 L 100.0 97.0 L 101.0 97.0 L 101.0 97.0 L 101.0 97.0 L 102.0 97.0 L 102.0 97.0 L 103.0 97.0 L 103.0 97.0 L 104.0 97.0 L 105.0 97.0 L 105.0 97.0 L 106.0 97.0 L 107.0 97.0 L 107.0 97.0 L 108.0 97.0 L 108.0 97.0 L 109.0 97.0 L 109.0 97.0 L 110.0 97.0 L 110.0 97.0 L 111.0 97.0 L 112.0 97.0 L 112.0 97.0 L 113.0 97.0 L 113.0 97.0 L 114.0 97.0 L 114.0 97.0 L 115.0 97.0 L 116.0 97.0 L 116.0 97.0 L 116.0 97.0 L 117.0 98.0 L 118.0 98.0 L 118.0 98.0 L 119.0 98.0 L 119.0 98.0 L 120.0 98.0 L 120.0 98.0 L 121.0 98.0 L 121.0 98.0 L 122.0 98.0 L 122.0 98.0 L 123.0 98.0 L 124.0 98.0 L 124.0 98.0 L 125.0 98.0 L 125.0 98.0 L 126.0 98.0 L 126.0 98.0 L 127.0 98.0 L 127.0 98.0 L 128.0 98.0 L 128.0 98.0 L 129.0 98.0 L 130.0 98.0 L 131.0 98.0 L 132.0 98.0 L 133.0 98.0 L 134.0 98.0 L 135.0 97.0 L 136.0 97.0 L 137.0 96.0 L 138.0 95.0 L 138.0 95.0 L 139.0 95.0 L 139.0 94.0 " stroke="black" fill="none" stroke-width="5.0" stroke-linecap="round" stroke-linejoin="round" />
<path d="M 105.0 77.0 L 105.0 77.0 L 105.0 77.0 L 105.0 77.0 L 105.0 77.0 L 105.0 77.0 L 105.0 77.0 L 105.0 77.0 L 105.0 77.0 L 105.0 77.0 L 105.0 77.0 L 105.0 78.0 L 105.0 80.0 L 105.0 82.0 L 105.0 84.0 L 106.0 88.0 L 106.0 92.0 L 106.0 96.0 L 106.0 102.0 L 106.0 107.0 L 106.0 112.0 L 105.0 116.0 L 105.0 119.0 L 105.0 121.0 L 105.0 124.0 L 105.0 125.0 L 105.0 127.0 L 105.0 128.0 L 105.0 128.0 L 105.0 128.0 L 106.0 128.0 L 106.0 128.0 L 106.0 128.0 L 106.0 128.0 " stroke="black" fill="none" stroke-width="5.0" stroke-linecap="round" stroke-linejoin="round" />
<path d="M 66.0 134.0 L 66.0 134.0 L 66.0 134.0 L 66.0 134.0 L 66.0 134.0 L 66.0 134.0 L 65.0 134.0 L 65.0 134.0 L 65.0 134.0 L 65.0 134.0 L 65.0 134.0 L 65.0 134.0 L 65.0 134.0 L 65.0 134.0 L 65.0 134.0 L 65.0 134.0 L 65.0 134.0 L 65.0 134.0 L 66.0 134.0 L 66.0 134.0 L 67.0 134.0 L 69.0 134.0 L 70.0 134.0 L 72.0 134.0 L 73.0 134.0 L 76.0 134.0 L 78.0 133.0 L 80.0 133.0 L 82.0 133.0 L 84.0 133.0 L 85.0 133.0 L 86.0 133.0 L 87.0 133.0 L 88.0 133.0 L 89.0 133.0 L 90.0 133.0 L 91.0 133.0 L 91.0 133.0 L 92.0 133.0 L 93.0 133.0 L 93.0 133.0 L 94.0 133.0 L 95.0 133.0 L 95.0 133.0 L 96.0 133.0 L 96.0 133.0 L 97.0 133.0 L 97.0 133.0 L 98.0 133.0 L 98.0 133.0 L 99.0 133.0 L 100.0 133.0 L 100.0 133.0 L 101.0 133.0 L 102.0 133.0 L 102.0 133.0 L 103.0 134.0 L 103.0 134.0 L 104.0 134.0 L 104.0 134.0 L 105.0 134.0 L 105.0 134.0 L 106.0 134.0 L 107.0 134.0 L 107.0 134.0 L 108.0 134.0 L 108.0 134.0 L 109.0 134.0 L 110.0 134.0 L 110.0 134.0 L 111.0 134.0 L 112.0 134.0 L 113.0 134.0 L 114.0 134.0 L 115.0 134.0 L 115.0 134.0 L 116.0 134.0 L 117.0 134.0 L 118.0 134.0 L 119.0 134.0 L 120.0 134.0 L 121.0 134.0 L 123.0 134.0 L 124.0 134.0 L 125.0 134.0 L 127.0 134.0 L 128.0 134.0 L 130.0 134.0 L 131.0 134.0 L 132.0 134.0 L 133.0 134.0 L 134.0 134.0 L 135.0 134.0 L 136.0 133.0 L 136.0 133.0 L 137.0 133.0 L 137.0 133.0 L 137.0 133.0 L 137.0 133.0 L 137.0 133.0 " stroke="black" fill="none" stroke-width="5.0" stroke-linecap="round" stroke-linejoin="round" />
<path d="M 104.0 136.0 L 104.0 136.0 L 104.0 135.0 L 104.0 135.0 L 104.0 134.0 L 104.0 134.0 L 104.0 134.0 L 104.0 133.0 L 104.0 133.0 L 104.0 133.0 L 104.0 134.0 L 104.0 135.0 L 104.0 136.0 L 104.0 137.0 L 104.0 139.0 L 104.0 141.0 L 104.0 144.0 L 104.0 146.0 L 104.0 148.0 L 104.0 151.0 L 104.0 153.0 L 104.0 156.0 L 104.0 158.0 L 104.0 161.0 L 104.0 163.0 L 104.0 166.0 L 104.0 168.0 L 104.0 170.0 L 104.0 172.0 L 104.0 175.0 L 104.0 177.0 L 104.0 179.0 L 104.0 182.0 L 104.0 184.0 L 104.0 186.0 L 104.0 188.0 L 104.0 190.0 L 104.0 191.0 L 104.0 193.0 L 104.0 195.0 L 104.0 196.0 L 104.0 198.0 L 104.0 199.0 L 104.0 200.0 L 105.0 202.0 L 105.0 203.0 L 105.0 205.0 L 105.0 207.0 L 105.0 208.0 L 105.0 209.0 L 105.0 211.0 L 105.0 212.0 L 105.0 213.0 L 105.0 214.0 L 105.0 216.0 L 105.0 217.0 L 105.0 218.0 L 105.0 220.0 L 105.0 220.0 L 105.0 221.0 L 105.0 222.0 L 105.0 223.0 L 105.0 223.0 L 105.0 224.0 L 105.0 224.0 L 105.0 224.0 L 105.0 224.0 L 105.0 224.0 L 105.0 223.0 " stroke="black" fill="none" stroke-width="5.0" stroke-linecap="round" stroke-linejoin="round" />
<path d="M 107.0 183.0 L 107.0 183.0 L 107.0 183.0 L 107.0 183.0 L 107.0 183.0 L 107.0 183.0 L 107.0 183.0 L 107.0 183.0 L 107.0 183.0 L 107.0 183.0 L 107.0 183.0 L 107.0 183.0 L 107.0 183.0 L 107.0 183.0 L 107.0 183.0 L 107.0 183.0 L 107.0 183.0 L 107.0 183.0 L 107.0 183.0 L 107.0 183.0 L 107.0 183.0 L 107.0 183.0 L 107.0 183.0 L 107.0 183.0 L 107.0 183.0 L 107.0 183.0 L 107.0 183.0 L 107.0 183.0 L 107.0 183.0 L 107.0 183.0 L 107.0 183.0 L 107.0 183.0 L 107.0 183.0 L 108.0 183.0 L 108.0 183.0 L 108.0 183.0 L 108.0 183.0 L 109.0 183.0 L 109.0 183.0 L 109.0 183.0 L 110.0 183.0 L 110.0 183.0 L 111.0 183.0 L 111.0 183.0 L 112.0 183.0 L 112.0 183.0 L 112.0 183.0 L 113.0 183.0 L 113.0 183.0 L 114.0 183.0 L 114.0 183.0 L 115.0 183.0 L 116.0 183.0 L 116.0 183.0 L 117.0 183.0 L 117.0 183.0 L 118.0 183.0 L 118.0 183.0 L 119.0 183.0 L 119.0 183.0 L 120.0 183.0 L 120.0 183.0 L 121.0 183.0 L 121.0 183.0 L 121.0 183.0 L 122.0 183.0 L 122.0 183.0 L 123.0 183.0 L 123.0 183.0 L 124.0 184.0 L 124.0 184.0 L 125.0 184.0 L 125.0 184.0 L 125.0 184.0 L 126.0 184.0 L 126.0 184.0 L 126.0 184.0 L 127.0 184.0 L 127.0 184.0 L 128.0 184.0 L 128.0 184.0 L 128.0 184.0 L 128.0 184.0 L 129.0 184.0 L 129.0 184.0 L 130.0 184.0 L 130.0 184.0 L 130.0 184.0 L 131.0 184.0 L 131.0 184.0 L 132.0 184.0 L 132.0 184.0 L 132.0 184.0 L 133.0 184.0 L 133.0 184.0 L 133.0 184.0 L 134.0 184.0 L 134.0 184.0 L 135.0 184.0 L 135.0 184.0 L 135.0 184.0 L 136.0 184.0 L 137.0 183.0 L 137.0 183.0 L 137.0 183.0 L 137.0 182.0 L 138.0 182.0 L 138.0 182.0 " stroke="black" fill="none" stroke-width="5.0" stroke-linecap="round" stroke-linejoin="round" />
<path d="M 76.0 164.0 L 76.0 164.0 L 76.0 164.0 L 76.0 164.0 L 76.0 164.0 L 77.0 164.0 L 77.0 164.0 L 77.0 164.0 L 77.0 165.0 L 77.0 165.0 L 77.0 165.0 L 77.0 165.0 L 77.0 166.0 L 77.0 167.0 L 77.0 168.0 L 77.0 170.0 L 77.0 171.0 L 77.0 174.0 L 77.0 177.0 L 77.0 180.0 L 77.0 184.0 L 76.0 188.0 L 75.0 192.0 L 74.0 196.0 L 74.0 201.0 L 73.0 205.0 L 72.0 209.0 L 71.0 213.0 L 70.0 216.0 L 69.0 220.0 L 68.0 224.0 L 66.0 229.0 L 65.0 233.0 L 64.0 238.0 L 63.0 242.0 L 61.0 245.0 L 60.0 248.0 L 59.0 248.0 " stroke="black" fill="none" stroke-width="5.0" stroke-linecap="round" stroke-linejoin="round" />
<path d="M 76.0 201.0 L 76.0 201.0 L 76.0 201.0 L 76.0 201.0 L 76.0 201.0 L 77.0 201.0 L 77.0 201.0 L 77.0 201.0 L 77.0 201.0 L 77.0 202.0 L 77.0 202.0 L 77.0 202.0 L 77.0 202.0 L 77.0 203.0 L 77.0 203.0 L 77.0 203.0 L 77.0 204.0 L 77.0 204.0 L 77.0 205.0 L 77.0 206.0 L 78.0 207.0 L 78.0 208.0 L 78.0 209.0 L 79.0 210.0 L 79.0 211.0 L 80.0 212.0 L 81.0 213.0 L 82.0 214.0 L 82.0 215.0 L 83.0 217.0 L 84.0 218.0 L 85.0 219.0 L 85.0 221.0 L 86.0 222.0 L 87.0 223.0 L 88.0 224.0 L 89.0 225.0 L 89.0 227.0 L 90.0 228.0 L 91.0 229.0 L 92.0 230.0 L 92.0 231.0 L 93.0 231.0 L 93.0 232.0 L 94.0 233.0 L 94.0 233.0 L 95.0 234.0 L 96.0 234.0 L 96.0 235.0 L 97.0 235.0 L 98.0 236.0 L 98.0 236.0 L 99.0 236.0 L 100.0 236.0 L 100.0 237.0 L 101.0 237.0 L 102.0 237.0 L 102.0 237.0 L 103.0 238.0 L 104.0 238.0 L 105.0 238.0 L 106.0 239.0 L 106.0 239.0 L 107.0 239.0 L 108.0 239.0 L 109.0 239.0 L 109.0 239.0 L 110.0 239.0 L 111.0 239.0 L 112.0 240.0 L 113.0 240.0 L 114.0 240.0 L 115.0 240.0 L 116.0 240.0 L 117.0 241.0 L 118.0 241.0 L 119.0 241.0 L 120.0 241.0 L 121.0 241.0 L 121.0 242.0 L 122.0 242.0 L 123.0 242.0 L 124.0 242.0 L 125.0 242.0 L 126.0 242.0 L 127.0 242.0 L 128.0 243.0 L 128.0 243.0 L 129.0 243.0 L 130.0 243.0 L 131.0 243.0 L 132.0 243.0 L 133.0 243.0 L 134.0 243.0 L 134.0 243.0 L 135.0 243.0 L 136.0 243.0 L 137.0 243.0 L 138.0 244.0 L 139.0 244.0 L 140.0 244.0 L 141.0 244.0 L 141.0 244.0 L 142.0 244.0 L 143.0 244.0 L 143.0 244.0 L 144.0 245.0 L 145.0 245.0 L 145.0 245.0 L 146.0 245.0 L 146.0 245.0 L 147.0 245.0 L 147.0 245.0 L 148.0 245.0 L 148.0 245.0 L 149.0 245.0 L 150.0 245.0 L 150.0 246.0 L 150.0 246.0 L 151.0 246.0 L 152.0 246.0 L 152.0 246.0 L 152.0 246.0 L 153.0 246.0 L 153.0 246.0 L 154.0 246.0 L 155.0 246.0 L 155.0 246.0 L 156.0 246.0 L 156.0 246.0 L 157.0 246.0 L 158.0 246.0 L 158.0 246.0 L 159.0 246.0 L 160.0 246.0 L 160.0 246.0 L 161.0 246.0 L 162.0 246.0 L 163.0 246.0 L 164.0 245.0 L 164.0 245.0 L 165.0 245.0 L 166.0 245.0 L 167.0 245.0 L 168.0 245.0 L 169.0 245.0 L 170.0 245.0 L 170.0 245.0 L 171.0 244.0 L 172.0 244.0 L 173.0 244.0 L 174.0 244.0 L 174.0 244.0 L 175.0 244.0 L 176.0 244.0 L 176.0 244.0 L 177.0 244.0 L 177.0 244.0 L 178.0 244.0 L 178.0 244.0 L 179.0 244.0 L 179.0 244.0 L 180.0 244.0 L 180.0 244.0 L 180.0 244.0 L 181.0 244.0 L 181.0 244.0 L 182.0 244.0 L 182.0 244.0 L 182.0 244.0 L 183.0 244.0 L 183.0 244.0 L 184.0 244.0 L 184.0 244.0 L 185.0 244.0 L 185.0 244.0 L 186.0 244.0 L 186.0 244.0 L 187.0 245.0 L 187.0 245.0 L 188.0 245.0 L 188.0 245.0 L 189.0 245.0 L 189.0 245.0 L 189.0 245.0 L 190.0 245.0 L 190.0 245.0 L 191.0 245.0 L 191.0 245.0 L 192.0 245.0 L 192.0 245.0 L 193.0 245.0 L 193.0 245.0 L 194.0 245.0 L 194.0 245.0 L 194.0 245.0 L 195.0 245.0 L 195.0 245.0 L 196.0 245.0 L 196.0 245.0 L 197.0 245.0 L 197.0 245.0 L 198.0 245.0 L 198.0 245.0 L 199.0 245.0 L 199.0 245.0 L 200.0 245.0 L 200.0 245.0 L 201.0 244.0 L 202.0 244.0 L 202.0 244.0 L 202.0 244.0 L 203.0 244.0 L 204.0 244.0 L 204.0 244.0 L 205.0 244.0 L 205.0 244.0 L 206.0 244.0 L 206.0 244.0 L 207.0 244.0 L 207.0 244.0 L 208.0 244.0 L 208.0 244.0 L 209.0 244.0 L 209.0 244.0 L 209.0 244.0 L 210.0 244.0 L 210.0 244.0 L 211.0 244.0 L 211.0 244.0 L 212.0 244.0 L 212.0 244.0 L 212.0 244.0 L 213.0 244.0 L 213.0 244.0 L 214.0 244.0 L 214.0 244.0 L 215.0 244.0 L 215.0 244.0 L 216.0 244.0 L 217.0 245.0 L 217.0 245.0 L 218.0 245.0 L 218.0 245.0 L 219.0 245.0 L 220.0 245.0 L 221.0 245.0 L 221.0 245.0 L 222.0 245.0 L 223.0 245.0 L 223.0 245.0 L 224.0 245.0 L 225.0 245.0 L 226.0 245.0 L 227.0 245.0 L 228.0 245.0 L 229.0 245.0 L 229.0 245.0 L 230.0 245.0 L 231.0 245.0 L 232.0 245.0 L 232.0 245.0 L 233.0 245.0 L 234.0 245.0 L 234.0 245.0 L 235.0 245.0 L 236.0 245.0 L 236.0 245.0 L 237.0 245.0 L 237.0 245.0 L 238.0 245.0 L 238.0 245.0 L 239.0 245.0 L 239.0 245.0 L 240.0 245.0 L 240.0 245.0 L 240.0 245.0 " stroke="black" fill="none" stroke-width="5.0" stroke-linecap="round" stroke-linejoin="round" />
<path d="M 171.0 85.0 L 171.0 85.0 L 171.0 85.0 L 170.0 85.0 L 170.0 85.0 L 170.0 85.0 L 170.0 85.0 L 170.0 85.0 L 170.0 85.0 L 170.0 85.0 L 170.0 85.0 L 170.0 85.0 L 170.0 85.0 L 170.0 85.0 L 170.0 85.0 L 170.0 85.0 L 170.0 85.0 L 170.0 85.0 L 170.0 85.0 L 170.0 85.0 L 170.0 85.0 L 171.0 85.0 L 172.0 85.0 L 172.0 85.0 L 173.0 85.0 L 173.0 85.0 L 174.0 85.0 L 174.0 85.0 L 175.0 85.0 L 175.0 85.0 L 176.0 85.0 L 176.0 85.0 L 177.0 85.0 L 178.0 85.0 L 178.0 85.0 L 179.0 85.0 L 180.0 85.0 L 180.0 85.0 L 181.0 85.0 L 182.0 85.0 L 182.0 85.0 L 183.0 85.0 L 184.0 85.0 L 184.0 85.0 L 185.0 85.0 L 186.0 85.0 L 186.0 85.0 L 187.0 85.0 L 188.0 85.0 L 188.0 85.0 L 189.0 85.0 L 190.0 85.0 L 190.0 85.0 L 191.0 85.0 L 191.0 85.0 L 192.0 85.0 L 192.0 85.0 L 193.0 85.0 L 193.0 85.0 L 194.0 85.0 L 194.0 85.0 L 195.0 85.0 L 195.0 85.0 L 195.0 86.0 L 196.0 86.0 L 196.0 86.0 L 197.0 86.0 L 197.0 86.0 L 197.0 86.0 L 198.0 86.0 L 198.0 86.0 L 199.0 86.0 L 199.0 86.0 L 200.0 86.0 L 200.0 86.0 L 201.0 86.0 L 201.0 86.0 L 202.0 86.0 L 202.0 86.0 L 203.0 86.0 L 203.0 86.0 L 204.0 86.0 L 204.0 86.0 L 204.0 86.0 L 205.0 86.0 L 205.0 86.0 L 206.0 86.0 L 206.0 86.0 L 206.0 86.0 L 207.0 86.0 L 207.0 86.0 L 208.0 86.0 L 208.0 86.0 L 209.0 86.0 L 209.0 86.0 L 210.0 86.0 L 210.0 86.0 L 211.0 86.0 L 211.0 86.0 L 212.0 86.0 L 212.0 86.0 L 212.0 86.0 L 213.0 86.0 L 213.0 86.0 L 214.0 86.0 L 214.0 86.0 L 215.0 86.0 L 215.0 86.0 L 216.0 86.0 L 216.0 86.0 L 217.0 86.0 L 217.0 86.0 L 218.0 86.0 L 218.0 86.0 L 218.0 86.0 L 219.0 86.0 L 219.0 86.0 L 219.0 86.0 L 220.0 86.0 L 220.0 86.0 L 220.0 86.0 L 221.0 86.0 L 221.0 86.0 L 221.0 87.0 L 222.0 87.0 L 222.0 87.0 L 223.0 87.0 L 223.0 87.0 L 223.0 87.0 L 223.0 87.0 L 224.0 87.0 L 224.0 87.0 L 224.0 87.0 L 225.0 88.0 L 225.0 88.0 L 225.0 88.0 L 225.0 88.0 L 226.0 88.0 L 226.0 88.0 L 226.0 88.0 L 227.0 88.0 L 227.0 89.0 L 227.0 89.0 L 227.0 89.0 L 228.0 89.0 L 228.0 89.0 L 228.0 90.0 L 228.0 90.0 L 228.0 90.0 L 228.0 91.0 L 228.0 91.0 L 228.0 92.0 L 228.0 93.0 L 228.0 94.0 L 228.0 95.0 L 228.0 96.0 L 228.0 98.0 L 228.0 99.0 L 228.0 100.0 L 228.0 101.0 L 228.0 103.0 L 228.0 104.0 L 228.0 105.0 L 228.0 107.0 L 228.0 108.0 L 228.0 109.0 L 228.0 111.0 L 228.0 112.0 L 228.0 113.0 L 228.0 114.0 L 228.0 116.0 L 228.0 117.0 L 228.0 118.0 L 228.0 119.0 L 228.0 120.0 L 228.0 121.0 L 228.0 122.0 L 228.0 123.0 L 228.0 125.0 L 228.0 126.0 L 228.0 127.0 L 228.0 128.0 L 228.0 129.0 L 228.0 130.0 L 228.0 131.0 L 228.0 132.0 L 228.0 133.0 L 228.0 134.0 L 228.0 135.0 L 228.0 136.0 L 228.0 137.0 L 228.0 137.0 L 228.0 138.0 L 228.0 139.0 L 228.0 140.0 L 228.0 141.0 L 228.0 141.0 L 228.0 142.0 L 228.0 143.0 L 228.0 143.0 L 228.0 144.0 L 228.0 144.0 L 228.0 144.0 L 228.0 145.0 L 228.0 145.0 L 228.0 145.0 L 228.0 144.0 " stroke="black" fill="none" stroke-width="5.0" stroke-linecap="round" stroke-linejoin="round" />
<path d="M 170.0 147.0 L 170.0 147.0 L 170.0 147.0 L 170.0 147.0 L 169.0 147.0 L 169.0 147.0 L 169.0 147.0 L 169.0 147.0 L 169.0 147.0 L 169.0 147.0 L 169.0 147.0 L 169.0 147.0 L 169.0 147.0 L 169.0 147.0 L 169.0 147.0 L 169.0 147.0 L 169.0 146.0 L 169.0 146.0 L 169.0 146.0 L 169.0 146.0 L 169.0 146.0 L 169.0 146.0 L 170.0 146.0 L 171.0 146.0 L 171.0 146.0 L 172.0 146.0 L 173.0 146.0 L 174.0 146.0 L 174.0 146.0 L 175.0 145.0 L 176.0 145.0 L 178.0 145.0 L 179.0 145.0 L 180.0 145.0 L 181.0 145.0 L 182.0 145.0 L 183.0 145.0 L 184.0 145.0 L 185.0 145.0 L 186.0 145.0 L 187.0 145.0 L 188.0 145.0 L 189.0 145.0 L 189.0 145.0 L 190.0 145.0 L 191.0 145.0 L 191.0 145.0 L 192.0 145.0 L 192.0 145.0 L 193.0 145.0 L 193.0 145.0 L 194.0 145.0 L 194.0 145.0 L 194.0 145.0 L 195.0 145.0 L 195.0 145.0 L 195.0 145.0 L 196.0 145.0 L 196.0 145.0 L 196.0 146.0 L 197.0 146.0 L 197.0 146.0 L 198.0 146.0 L 198.0 146.0 L 198.0 146.0 L 199.0 146.0 L 199.0 146.0 L 200.0 146.0 L 200.0 146.0 L 201.0 146.0 L 201.0 146.0 L 202.0 146.0 L 202.0 146.0 L 202.0 146.0 L 203.0 146.0 L 203.0 146.0 L 204.0 146.0 L 204.0 146.0 L 205.0 146.0 L 206.0 146.0 L 206.0 146.0 L 207.0 146.0 L 207.0 146.0 L 208.0 146.0 L 209.0 146.0 L 209.0 146.0 L 210.0 146.0 L 210.0 146.0 L 211.0 146.0 L 211.0 146.0 L 212.0 146.0 L 212.0 146.0 L 213.0 146.0 L 214.0 147.0 L 214.0 147.0 L 215.0 147.0 L 216.0 147.0 L 216.0 147.0 L 217.0 147.0 L 218.0 147.0 L 218.0 147.0 L 219.0 147.0 L 220.0 147.0 L 220.0 147.0 L 221.0 147.0 L 222.0 147.0 L 223.0 147.0 L 223.0 147.0 L 224.0 147.0 L 224.0 147.0 L 225.0 147.0 L 225.0 147.0 L 226.0 147.0 L 226.0 147.0 L 226.0 147.0 L 227.0 147.0 " stroke="black" fill="none" stroke-width="5.0" stroke-linecap="round" stroke-linejoin="round" />
<path d="M 168.0 86.0 L 168.0 86.0 L 168.0 86.0 L 168.0 86.0 L 168.0 87.0 L 168.0 87.0 L 168.0 87.0 L 168.0 88.0 L 168.0 88.0 L 168.0 88.0 L 168.0 88.0 L 168.0 89.0 L 168.0 89.0 L 168.0 90.0 L 168.0 91.0 L 168.0 92.0 L 168.0 93.0 L 168.0 95.0 L 168.0 97.0 L 168.0 100.0 L 169.0 102.0 L 169.0 106.0 L 169.0 109.0 L 169.0 112.0 L 169.0 115.0 L 169.0 118.0 L 169.0 121.0 L 169.0 123.0 L 169.0 126.0 L 169.0 128.0 L 169.0 130.0 L 169.0 132.0 L 170.0 133.0 L 170.0 135.0 L 170.0 137.0 L 170.0 139.0 L 170.0 141.0 L 170.0 143.0 L 170.0 144.0 L 171.0 146.0 L 171.0 147.0 L 171.0 148.0 L 171.0 149.0 L 172.0 151.0 L 172.0 152.0 L 172.0 153.0 L 172.0 154.0 L 172.0 156.0 L 172.0 157.0 L 172.0 159.0 L 172.0 160.0 L 172.0 162.0 L 172.0 163.0 L 172.0 164.0 L 173.0 165.0 L 173.0 166.0 L 173.0 167.0 L 173.0 168.0 L 173.0 169.0 L 173.0 170.0 L 173.0 171.0 L 173.0 172.0 L 173.0 173.0 L 173.0 174.0 L 172.0 176.0 L 172.0 177.0 L 172.0 178.0 L 172.0 179.0 L 172.0 180.0 L 172.0 182.0 L 172.0 183.0 L 172.0 184.0 L 172.0 185.0 L 172.0 186.0 L 172.0 188.0 L 172.0 189.0 L 172.0 190.0 L 172.0 191.0 L 172.0 192.0 L 172.0 193.0 L 172.0 193.0 L 172.0 194.0 L 172.0 195.0 L 172.0 196.0 L 172.0 197.0 L 172.0 198.0 L 172.0 198.0 L 172.0 199.0 L 172.0 200.0 L 172.0 200.0 L 172.0 201.0 L 172.0 201.0 L 172.0 202.0 L 172.0 202.0 L 172.0 203.0 L 172.0 203.0 L 173.0 204.0 L 173.0 204.0 L 173.0 204.0 L 173.0 205.0 L 174.0 205.0 L 174.0 206.0 L 174.0 206.0 L 175.0 206.0 L 175.0 207.0 L 175.0 207.0 L 176.0 208.0 L 176.0 208.0 L 176.0 208.0 L 177.0 208.0 L 177.0 209.0 L 178.0 209.0 L 178.0 209.0 L 179.0 209.0 L 180.0 209.0 L 180.0 210.0 L 181.0 210.0 L 182.0 210.0 L 182.0 211.0 L 183.0 211.0 L 184.0 211.0 L 185.0 211.0 L 185.0 211.0 L 186.0 212.0 L 187.0 212.0 L 188.0 212.0 L 189.0 212.0 L 189.0 212.0 L 190.0 212.0 L 191.0 213.0 L 192.0 213.0 L 192.0 213.0 L 193.0 213.0 L 194.0 214.0 L 195.0 214.0 L 195.0 214.0 L 196.0 214.0 L 197.0 214.0 L 198.0 214.0 L 199.0 214.0 L 200.0 214.0 L 201.0 214.0 L 202.0 214.0 L 203.0 214.0 L 204.0 214.0 L 205.0 214.0 L 206.0 214.0 L 207.0 214.0 L 208.0 214.0 L 209.0 214.0 L 210.0 214.0 L 212.0 214.0 L 213.0 214.0 L 214.0 214.0 L 215.0 214.0 L 216.0 214.0 L 217.0 214.0 L 218.0 214.0 L 219.0 214.0 L 220.0 214.0 L 221.0 214.0 L 222.0 214.0 L 223.0 214.0 L 224.0 214.0 L 225.0 214.0 L 226.0 214.0 L 227.0 214.0 L 228.0 214.0 L 229.0 214.0 L 230.0 214.0 L 230.0 214.0 L 231.0 214.0 L 232.0 214.0 L 232.0 214.0 L 233.0 214.0 L 233.0 214.0 L 234.0 214.0 L 234.0 214.0 L 234.0 214.0 L 235.0 214.0 L 235.0 214.0 L 235.0 214.0 L 235.0 214.0 L 235.0 214.0 L 236.0 214.0 L 236.0 214.0 L 236.0 214.0 L 236.0 214.0 L 236.0 214.0 L 237.0 214.0 L 237.0 214.0 L 237.0 214.0 L 237.0 214.0 L 237.0 213.0 L 237.0 213.0 L 237.0 213.0 L 237.0 212.0 L 237.0 212.0 L 237.0 211.0 L 238.0 211.0 L 238.0 210.0 L 238.0 208.0 L 238.0 205.0 L 239.0 201.0 L 240.0 197.0 L 240.0 191.0 L 241.0 187.0 L 241.0 183.0 L 241.0 182.0 " stroke="black" fill="none" stroke-width="5.0" stroke-linecap="round" stroke-linejoin="round" />
</svg>