<svg xmlns="http://www.w3.org/2000/svg" width="300" height="300" viewBox="0 0 300 300">
<path d="M 76.0 86.0 L 76.0 86.0 L 76.0 86.0 L 75.0 85.0 L 75.0 85.0 L 75.0 85.0 L 75.0 84.0 L 75.0 84.0 L 74.0 84.0 L 74.0 84.0 L 74.0 83.0 L 74.0 83.0 L 74.0 83.0 L 74.0 83.0 L 74.0 83.0 L 74.0 83.0 L 74.0 83.0 L 74.0 83.0 L 74.0 83.0 L 74.0 83.0 L 75.0 83.0 L 75.0 83.0 L 76.0 83.0 L 77.0 83.0 L 78.0 83.0 L 80.0 83.0 L 81.0 84.0 L 83.0 84.0 L 85.0 84.0 L 87.0 84.0 L 90.0 84.0 L 92.0 85.0 L 94.0 85.0 L 97.0 85.0 L 99.0 85.0 L 102.0 85.0 L 104.0 85.0 L 106.0 85.0 L 107.0 84.0 L 109.0 84.0 L 110.0 84.0 L 110.0 84.0 L 111.0 84.0 L 111.0 84.0 L 111.0 84.0 L 111.0 84.0 L 111.0 84.0 L 111.0 85.0 L 111.0 85.0 L 111.0 85.0 L 111.0 86.0 L 111.0 86.0 L 111.0 86.0 L 111.0 86.0 L 111.0 86.0 L 111.0 86.0 L 111.0 87.0 L 111.0 87.0 L 111.0 88.0 L 110.0 88.0 L 110.0 89.0 L 110.0 90.0 L 110.0 91.0 L 109.0 92.0 L 109.0 93.0 L 108.0 95.0 L 108.0 96.0 L 107.0 99.0 L 106.0 101.0 L 105.0 104.0 L 104.0 107.0 L 103.0 110.0 L 102.0 113.0 L 101.0 115.0 L 100.0 117.0 L 99.0 119.0 L 98.0 121.0 L 98.0 123.0 L 97.0 124.0 L 97.0 125.0 L 96.0 127.0 L 96.0 127.0 L 95.0 128.0 L 95.0 129.0 L 95.0 129.0 L 95.0 130.0 L 95.0 130.0 L 95.0 130.0 L 95.0 131.0 L 95.0 131.0 L 95.0 132.0 L 95.0 132.0 L 95.0 133.0 L 95.0 133.0 L 96.0 134.0 L 96.0 135.0 L 97.0 135.0 L 97.0 136.0 L 98.0 137.0 L 98.0 138.0 L 99.0 139.0 L 100.0 140.0 L 100.0 142.0 L 101.0 143.0 L 102.0 144.0 L 103.0 146.0 L 103.0 147.0 L 104.0 149.0 L 105.0 150.0 L 105.0 152.0 L 106.0 153.0 L 106.0 155.0 L 107.0 156.0 L 107.0 158.0 L 107.0 160.0 L 108.0 161.0 L 108.0 163.0 L 108.0 165.0 L 108.0 167.0 L 108.0 168.0 L 109.0 170.0 L 109.0 172.0 L 109.0 173.0 L 109.0 175.0 L 110.0 177.0 L 110.0 178.0 L 110.0 180.0 L 110.0 181.0 L 110.0 183.0 L 110.0 184.0 L 110.0 186.0 L 110.0 187.0 L 110.0 189.0 L 110.0 190.0 L 110.0 192.0 L 110.0 193.0 L 110.0 194.0 L 109.0 195.0 L 109.0 196.0 L 108.0 197.0 L 108.0 197.0 L 107.0 198.0 L 107.0 198.0 L 106.0 199.0 L 105.0 199.0 L 105.0 199.0 L 104.0 200.0 L 103.0 200.0 L 102.0 200.0 L 100.0 200.0 L 99.0 200.0 L 97.0 200.0 L 95.0 199.0 L 93.0 198.0 L 92.0 197.0 " stroke="black" fill="none" stroke-width="5.0" stroke-linecap="round" stroke-linejoin="round" />
<path d="M 73.0 81.0 L 73.0 81.0 L 73.0 81.0 L 73.0 81.0 L 73.0 81.0 L 73.0 81.0 L 73.0 81.0 L 73.0 81.0 L 73.0 81.0 L 73.0 82.0 L 73.0 82.0 L 73.0 83.0 L 74.0 84.0 L 74.0 86.0 L 74.0 88.0 L 74.0 91.0 L 74.0 95.0 L 74.0 100.0 L 74.0 104.0 L 74.0 109.0 L 75.0 113.0 L 75.0 116.0 L 75.0 120.0 L 75.0 123.0 L 76.0 125.0 L 76.0 128.0 L 76.0 130.0 L 76.0 133.0 L 76.0 135.0 L 76.0 138.0 L 76.0 141.0 L 76.0 144.0 L 76.0 147.0 L 76.0 150.0 L 76.0 152.0 L 76.0 155.0 L 76.0 157.0 L 76.0 159.0 L 76.0 161.0 L 76.0 162.0 L 76.0 164.0 L 76.0 166.0 L 76.0 168.0 L 77.0 170.0 L 77.0 173.0 L 77.0 175.0 L 77.0 177.0 L 78.0 180.0 L 78.0 183.0 L 78.0 185.0 L 78.0 188.0 L 78.0 190.0 L 78.0 193.0 L 78.0 195.0 L 78.0 197.0 L 78.0 199.0 L 78.0 201.0 L 78.0 203.0 L 78.0 204.0 L 78.0 206.0 L 78.0 208.0 L 78.0 210.0 L 78.0 212.0 L 78.0 214.0 L 78.0 216.0 L 78.0 219.0 L 78.0 221.0 L 78.0 223.0 L 78.0 226.0 L 78.0 228.0 L 78.0 231.0 L 78.0 234.0 L 78.0 236.0 L 78.0 239.0 L 78.0 242.0 L 78.0 245.0 L 78.0 247.0 L 78.0 250.0 L 78.0 252.0 L 78.0 253.0 L 78.0 255.0 L 78.0 256.0 L 78.0 256.0 L 78.0 257.0 L 78.0 257.0 L 78.0 257.0 L 77.0 256.0 " stroke="black" fill="none" stroke-width="5.0" stroke-linecap="round" stroke-linejoin="round" />
<path d="M 183.0 66.0 L 183.0 66.0 L 183.0 66.0 L 182.0 66.0 L 182.0 66.0 L 182.0 66.0 L 181.0 66.0 L 181.0 67.0 L 181.0 67.0 L 180.0 68.0 L 180.0 69.0 L 180.0 69.0 L 179.0 71.0 L 178.0 72.0 L 177.0 75.0 L 174.0 77.0 L 171.0 81.0 L 168.0 85.0 L 163.0 90.0 L 159.0 95.0 L 155.0 100.0 L 152.0 105.0 L 149.0 108.0 L 146.0 111.0 L 143.0 114.0 L 140.0 116.0 L 135.0 118.0 L 130.0 119.0 " stroke="black" fill="none" stroke-width="5.0" stroke-linecap="round" stroke-linejoin="round" />
<path d="M 173.0 80.0 L 173.0 80.0 L 172.0 80.0 L 172.0 81.0 L 171.0 81.0 L 171.0 81.0 L 171.0 82.0 L 172.0 82.0 L 173.0 83.0 L 175.0 84.0 L 178.0 85.0 L 180.0 87.0 L 183.0 89.0 L 186.0 92.0 L 189.0 95.0 L 192.0 98.0 L 195.0 102.0 L 198.0 105.0 L 201.0 108.0 L 204.0 111.0 L 207.0 113.0 L 210.0 115.0 L 214.0 117.0 L 217.0 119.0 L 220.0 121.0 L 224.0 122.0 L 226.0 123.0 L 228.0 124.0 L 230.0 125.0 L 231.0 126.0 L 232.0 126.0 L 232.0 126.0 " stroke="black" fill="none" stroke-width="5.0" stroke-linecap="round" stroke-linejoin="round" />
<path d="M 153.0 117.0 L 153.0 117.0 L 152.0 117.0 L 151.0 117.0 L 151.0 117.0 L 150.0 117.0 L 150.0 117.0 L 150.0 117.0 L 150.0 117.0 L 151.0 117.0 L 153.0 117.0 L 157.0 117.0 L 161.0 118.0 L 167.0 118.0 L 174.0 118.0 L 182.0 119.0 L 189.0 119.0 L 195.0 119.0 L 200.0 119.0 L 203.0 119.0 L 206.0 119.0 " stroke="black" fill="none" stroke-width="5.0" stroke-linecap="round" stroke-linejoin="round" />
<path d="M 148.0 140.0 L 148.0 140.0 L 147.0 140.0 L 147.0 140.0 L 147.0 140.0 L 146.0 140.0 L 146.0 139.0 L 146.0 139.0 L 146.0 139.0 L 146.0 138.0 L 146.0 138.0 L 146.0 138.0 L 146.0 137.0 L 147.0 137.0 L 148.0 137.0 L 149.0 137.0 L 150.0 137.0 L 151.0 137.0 L 153.0 137.0 L 154.0 137.0 L 156.0 137.0 L 159.0 137.0 L 162.0 137.0 L 166.0 137.0 L 170.0 137.0 L 175.0 136.0 L 179.0 136.0 L 184.0 136.0 L 187.0 136.0 L 191.0 136.0 L 194.0 136.0 L 197.0 136.0 L 199.0 136.0 L 202.0 136.0 L 204.0 137.0 L 207.0 137.0 L 209.0 138.0 L 211.0 138.0 L 213.0 139.0 L 215.0 140.0 L 217.0 140.0 L 218.0 140.0 L 219.0 141.0 L 220.0 141.0 L 220.0 141.0 L 221.0 141.0 L 221.0 141.0 L 220.0 142.0 L 219.0 143.0 L 217.0 144.0 L 214.0 146.0 L 211.0 149.0 L 209.0 152.0 L 206.0 155.0 L 203.0 159.0 L 200.0 162.0 L 198.0 165.0 L 197.0 166.0 " stroke="black" fill="none" stroke-width="5.0" stroke-linecap="round" stroke-linejoin="round" />
<path d="M 147.0 171.0 L 147.0 171.0 L 147.0 171.0 L 147.0 170.0 L 146.0 170.0 L 146.0 169.0 L 146.0 169.0 L 146.0 169.0 L 146.0 169.0 L 146.0 168.0 L 146.0 168.0 L 146.0 168.0 L 146.0 168.0 L 146.0 168.0 L 146.0 168.0 L 148.0 168.0 L 150.0 168.0 L 152.0 168.0 L 155.0 168.0 L 160.0 168.0 L 166.0 168.0 L 173.0 168.0 L 181.0 168.0 L 188.0 168.0 L 194.0 168.0 L 198.0 168.0 L 202.0 168.0 L 206.0 168.0 L 210.0 168.0 L 213.0 168.0 L 217.0 168.0 L 219.0 169.0 L 222.0 170.0 L 223.0 171.0 " stroke="black" fill="none" stroke-width="5.0" stroke-linecap="round" stroke-linejoin="round" />
<path d="M 129.0 200.0 L 129.0 200.0 L 128.0 200.0 L 127.0 200.0 L 126.0 200.0 L 126.0 201.0 L 126.0 201.0 L 126.0 201.0 L 126.0 201.0 L 126.0 201.0 L 128.0 201.0 L 129.0 201.0 L 131.0 201.0 L 133.0 201.0 L 135.0 201.0 L 137.0 201.0 L 139.0 202.0 L 141.0 202.0 L 144.0 202.0 L 146.0 203.0 L 148.0 203.0 L 150.0 203.0 L 153.0 203.0 L 155.0 203.0 L 157.0 203.0 L 160.0 203.0 L 163.0 203.0 L 165.0 203.0 L 168.0 203.0 L 171.0 203.0 L 175.0 203.0 L 178.0 203.0 L 181.0 203.0 L 184.0 202.0 L 187.0 202.0 L 190.0 202.0 L 192.0 202.0 L 194.0 202.0 L 196.0 202.0 L 197.0 202.0 L 199.0 203.0 L 201.0 203.0 L 202.0 204.0 L 205.0 204.0 L 207.0 205.0 L 210.0 206.0 L 213.0 206.0 L 216.0 206.0 L 220.0 206.0 L 223.0 206.0 L 226.0 206.0 L 228.0 206.0 L 230.0 206.0 L 231.0 206.0 L 232.0 206.0 L 233.0 206.0 L 233.0 206.0 L 234.0 206.0 L 234.0 206.0 L 234.0 206.0 " stroke="black" fill="none" stroke-width="5.0" stroke-linecap="round" stroke-linejoin="round" />
<path d="M 173.0 205.0 L 173.0 205.0 L 172.0 205.0 L 171.0 205.0 L 171.0 205.0 L 170.0 205.0 L 170.0 205.0 L 170.0 205.0 L 169.0 205.0 L 169.0 205.0 L 168.0 206.0 L 167.0 207.0 L 166.0 208.0 L 164.0 210.0 L 163.0 212.0 L 161.0 215.0 L 158.0 218.0 L 156.0 221.0 L 154.0 225.0 L 151.0 229.0 L 149.0 232.0 L 148.0 235.0 L 146.0 238.0 L 144.0 240.0 L 142.0 242.0 L 141.0 244.0 L 139.0 245.0 L 138.0 246.0 L 138.0 247.0 L 138.0 247.0 L 138.0 247.0 L 138.0 247.0 L 138.0 247.0 L 139.0 247.0 L 140.0 247.0 L 141.0 247.0 L 142.0 247.0 L 143.0 247.0 L 145.0 247.0 L 146.0 247.0 L 147.0 247.0 L 149.0 247.0 L 151.0 247.0 L 154.0 246.0 L 157.0 246.0 L 161.0 245.0 L 167.0 245.0 L 173.0 244.0 L 179.0 243.0 L 185.0 243.0 L 189.0 242.0 L 193.0 242.0 L 197.0 241.0 L 200.0 241.0 L 202.0 240.0 L 205.0 240.0 L 207.0 239.0 L 209.0 239.0 L 211.0 239.0 L 212.0 238.0 L 213.0 238.0 L 214.0 238.0 L 214.0 238.0 " stroke="black" fill="none" stroke-width="5.0" stroke-linecap="round" stroke-linejoin="round" />
<path d="M 202.0 214.0 L 201.0 214.0 L 200.0 214.0 L 200.0 214.0 L 200.0 214.0 L 200.0 214.0 L 200.0 214.0 L 202.0 216.0 L 204.0 218.0 L 207.0 221.0 L 210.0 226.0 L 215.0 231.0 L 219.0 236.0 L 223.0 242.0 L 227.0 247.0 L 230.0 250.0 L 232.0 252.0 L 233.0 253.0 " stroke="black" fill="none" stroke-width="5.0" stroke-linecap="round" stroke-linejoin="round" />
</svg>