<svg xmlns="http://www.w3.org/2000/svg" width="300" height="300" viewBox="0 0 300 300">
<path d="M 145.0 96.0 L 145.0 96.0 L 145.0 96.0 L 145.0 96.0 L 145.0 96.0 L 145.0 96.0 L 145.0 96.0 L 145.0 95.0 L 145.0 95.0 L 145.0 95.0 L 145.0 95.0 L 145.0 95.0 L 145.0 95.0 L 144.0 95.0 L 144.0 95.0 L 143.0 95.0 L 143.0 95.0 L 142.0 95.0 L 142.0 95.0 L 142.0 95.0 L 141.0 95.0 L 141.0 95.0 L 141.0 95.0 L 141.0 95.0 L 141.0 95.0 L 141.0 95.0 L 141.0 95.0 L 141.0 95.0 L 143.0 95.0 L 144.0 95.0 L 146.0 96.0 L 149.0 96.0 L 152.0 96.0 L 156.0 96.0 L 160.0 95.0 L 165.0 94.0 L 168.0 94.0 L 171.0 93.0 L 173.0 93.0 L 174.0 93.0 L 174.0 93.0 L 174.0 93.0 L 174.0 93.0 " stroke="black" fill="none" stroke-width="5.0" stroke-linecap="round" stroke-linejoin="round" />
<path d="M 138.0 77.0 L 138.0 77.0 L 138.0 76.0 L 138.0 76.0 L 138.0 75.0 L 138.0 75.0 L 138.0 75.0 L 138.0 74.0 L 138.0 74.0 L 138.0 74.0 L 138.0 74.0 L 138.0 74.0 L 139.0 75.0 L 139.0 77.0 L 139.0 78.0 L 139.0 80.0 L 139.0 82.0 L 139.0 84.0 L 139.0 86.0 L 139.0 88.0 L 139.0 90.0 L 139.0 93.0 L 139.0 95.0 L 139.0 98.0 L 138.0 101.0 L 138.0 103.0 L 137.0 105.0 L 137.0 107.0 L 137.0 109.0 L 137.0 111.0 L 136.0 113.0 L 136.0 114.0 L 136.0 115.0 L 136.0 117.0 L 136.0 118.0 L 136.0 119.0 L 136.0 120.0 L 136.0 121.0 L 136.0 121.0 L 136.0 122.0 L 136.0 123.0 L 136.0 124.0 L 136.0 125.0 L 136.0 125.0 L 136.0 126.0 L 136.0 127.0 L 136.0 128.0 L 136.0 128.0 L 136.0 128.0 L 136.0 129.0 L 136.0 129.0 L 136.0 129.0 L 136.0 129.0 L 137.0 129.0 L 137.0 129.0 L 137.0 129.0 L 137.0 129.0 L 138.0 129.0 L 138.0 129.0 L 138.0 129.0 L 139.0 129.0 L 139.0 129.0 L 140.0 129.0 L 141.0 129.0 L 141.0 129.0 L 142.0 129.0 L 144.0 128.0 L 145.0 128.0 L 146.0 128.0 L 148.0 128.0 L 150.0 128.0 L 151.0 127.0 L 153.0 127.0 L 155.0 127.0 L 157.0 127.0 L 159.0 127.0 L 161.0 127.0 L 163.0 127.0 L 165.0 127.0 L 167.0 127.0 L 168.0 127.0 L 170.0 127.0 L 171.0 127.0 L 173.0 127.0 L 174.0 127.0 L 175.0 127.0 L 175.0 127.0 L 176.0 127.0 L 176.0 127.0 L 176.0 128.0 L 176.0 128.0 L 176.0 128.0 L 176.0 129.0 L 176.0 130.0 L 175.0 131.0 L 175.0 132.0 L 174.0 134.0 L 174.0 135.0 L 173.0 137.0 L 173.0 139.0 L 172.0 141.0 L 171.0 144.0 L 171.0 146.0 L 171.0 149.0 L 170.0 152.0 L 170.0 154.0 L 169.0 157.0 L 169.0 160.0 L 169.0 163.0 L 169.0 165.0 L 168.0 168.0 L 168.0 170.0 L 168.0 172.0 L 167.0 174.0 L 167.0 175.0 L 167.0 177.0 L 166.0 179.0 L 166.0 180.0 L 165.0 182.0 L 165.0 183.0 L 164.0 185.0 L 164.0 186.0 L 163.0 187.0 L 163.0 188.0 L 162.0 188.0 L 162.0 188.0 L 162.0 188.0 L 161.0 188.0 L 160.0 188.0 L 159.0 188.0 L 158.0 186.0 L 157.0 184.0 L 155.0 182.0 L 154.0 180.0 L 153.0 179.0 " stroke="black" fill="none" stroke-width="5.0" stroke-linecap="round" stroke-linejoin="round" />
<path d="M 148.0 138.0 L 148.0 138.0 L 148.0 138.0 L 148.0 138.0 L 148.0 137.0 L 148.0 137.0 L 148.0 137.0 L 148.0 137.0 L 148.0 137.0 L 148.0 138.0 L 148.0 139.0 L 148.0 141.0 L 147.0 144.0 L 146.0 148.0 L 145.0 153.0 L 143.0 158.0 L 140.0 164.0 L 137.0 169.0 L 134.0 174.0 " stroke="black" fill="none" stroke-width="5.0" stroke-linecap="round" stroke-linejoin="round" />
<path d="M 108.0 74.0 L 108.0 74.0 L 108.0 74.0 L 108.0 74.0 L 108.0 73.0 L 108.0 73.0 L 108.0 73.0 L 108.0 73.0 L 108.0 73.0 L 108.0 73.0 L 108.0 73.0 L 108.0 73.0 L 107.0 74.0 L 107.0 75.0 L 106.0 75.0 L 105.0 76.0 L 104.0 77.0 L 103.0 78.0 L 102.0 80.0 L 100.0 81.0 L 98.0 82.0 L 96.0 84.0 L 93.0 86.0 L 91.0 88.0 L 88.0 90.0 L 85.0 91.0 L 83.0 92.0 L 82.0 93.0 L 81.0 94.0 L 80.0 94.0 L 80.0 94.0 L 80.0 94.0 L 80.0 95.0 L 80.0 95.0 L 80.0 95.0 L 80.0 95.0 L 80.0 96.0 L 80.0 96.0 L 81.0 97.0 L 81.0 98.0 L 81.0 99.0 L 82.0 101.0 L 82.0 102.0 L 82.0 103.0 L 82.0 105.0 L 83.0 107.0 L 83.0 108.0 L 83.0 110.0 L 83.0 112.0 L 83.0 115.0 L 83.0 117.0 L 83.0 120.0 L 83.0 123.0 L 83.0 126.0 L 83.0 129.0 L 83.0 132.0 L 83.0 135.0 L 83.0 138.0 L 83.0 141.0 L 83.0 145.0 L 83.0 148.0 L 83.0 151.0 L 82.0 154.0 L 82.0 157.0 L 82.0 159.0 L 82.0 161.0 L 82.0 163.0 L 82.0 164.0 L 82.0 166.0 L 82.0 167.0 L 82.0 168.0 L 82.0 170.0 L 82.0 171.0 L 82.0 173.0 L 82.0 175.0 L 82.0 177.0 L 82.0 180.0 L 82.0 182.0 L 82.0 185.0 L 82.0 187.0 L 82.0 189.0 L 83.0 191.0 L 83.0 192.0 L 83.0 192.0 L 83.0 193.0 L 83.0 193.0 L 83.0 193.0 L 83.0 194.0 L 83.0 194.0 L 83.0 194.0 " stroke="black" fill="none" stroke-width="5.0" stroke-linecap="round" stroke-linejoin="round" />
<path d="M 94.0 125.0 L 93.0 125.0 L 91.0 125.0 L 90.0 126.0 L 89.0 126.0 L 88.0 127.0 L 88.0 127.0 L 88.0 127.0 L 88.0 127.0 L 89.0 127.0 L 90.0 127.0 L 92.0 127.0 L 94.0 127.0 L 97.0 127.0 L 99.0 126.0 L 102.0 126.0 L 104.0 126.0 L 107.0 126.0 L 109.0 126.0 L 111.0 126.0 L 114.0 126.0 L 116.0 126.0 L 118.0 126.0 " stroke="black" fill="none" stroke-width="5.0" stroke-linecap="round" stroke-linejoin="round" />
<path d="M 92.0 158.0 L 92.0 158.0 L 91.0 158.0 L 90.0 158.0 L 89.0 158.0 L 89.0 158.0 L 89.0 158.0 L 89.0 158.0 L 91.0 158.0 L 93.0 158.0 L 95.0 158.0 L 98.0 158.0 L 101.0 158.0 L 104.0 157.0 L 108.0 157.0 L 111.0 156.0 L 115.0 156.0 L 117.0 156.0 " stroke="black" fill="none" stroke-width="5.0" stroke-linecap="round" stroke-linejoin="round" />
<path d="M 190.0 86.0 L 190.0 86.0 L 189.0 86.0 L 188.0 86.0 L 188.0 86.0 L 187.0 86.0 L 187.0 86.0 L 187.0 86.0 L 186.0 86.0 L 186.0 86.0 L 186.0 86.0 L 186.0 86.0 L 186.0 86.0 L 186.0 86.0 L 187.0 86.0 L 188.0 86.0 L 189.0 86.0 L 190.0 86.0 L 191.0 86.0 L 193.0 86.0 L 195.0 86.0 L 197.0 86.0 L 199.0 86.0 L 202.0 86.0 L 205.0 85.0 L 208.0 85.0 L 211.0 85.0 L 214.0 84.0 L 216.0 84.0 L 219.0 84.0 L 221.0 84.0 L 223.0 84.0 L 224.0 84.0 L 225.0 84.0 L 225.0 84.0 L 225.0 84.0 L 225.0 84.0 L 225.0 84.0 L 225.0 84.0 L 225.0 84.0 L 225.0 84.0 L 225.0 84.0 L 225.0 85.0 L 225.0 85.0 L 225.0 85.0 L 225.0 86.0 L 224.0 87.0 L 224.0 88.0 L 224.0 90.0 L 224.0 92.0 L 224.0 94.0 L 224.0 97.0 L 224.0 100.0 L 224.0 103.0 L 224.0 107.0 L 224.0 110.0 L 225.0 114.0 L 225.0 118.0 L 225.0 122.0 L 225.0 126.0 L 225.0 130.0 L 226.0 133.0 L 226.0 137.0 L 226.0 140.0 L 226.0 144.0 L 226.0 148.0 L 226.0 150.0 L 226.0 153.0 L 226.0 157.0 L 226.0 160.0 L 226.0 163.0 L 226.0 166.0 L 226.0 169.0 L 226.0 171.0 L 226.0 174.0 L 226.0 176.0 L 226.0 178.0 L 225.0 181.0 L 225.0 183.0 L 225.0 185.0 L 225.0 187.0 L 225.0 188.0 L 225.0 190.0 L 225.0 192.0 L 225.0 193.0 L 225.0 194.0 L 225.0 195.0 L 225.0 195.0 L 225.0 195.0 L 225.0 195.0 L 225.0 194.0 L 224.0 192.0 L 224.0 190.0 " stroke="black" fill="none" stroke-width="5.0" stroke-linecap="round" stroke-linejoin="round" />
<path d="M 194.0 128.0 L 194.0 128.0 L 193.0 128.0 L 191.0 129.0 L 191.0 129.0 L 190.0 130.0 L 189.0 130.0 L 189.0 130.0 L 189.0 130.0 L 189.0 130.0 L 190.0 130.0 L 191.0 130.0 L 193.0 129.0 L 195.0 129.0 L 198.0 129.0 L 201.0 129.0 L 205.0 129.0 L 208.0 128.0 L 213.0 128.0 L 218.0 128.0 L 222.0 128.0 L 223.0 128.0 " stroke="black" fill="none" stroke-width="5.0" stroke-linecap="round" stroke-linejoin="round" />
<path d="M 194.0 159.0 L 194.0 159.0 L 193.0 159.0 L 191.0 160.0 L 190.0 160.0 L 189.0 161.0 L 188.0 161.0 L 188.0 162.0 L 188.0 162.0 L 188.0 162.0 L 188.0 162.0 L 190.0 162.0 L 192.0 162.0 L 194.0 162.0 L 197.0 162.0 L 200.0 162.0 L 204.0 162.0 L 209.0 161.0 L 214.0 161.0 L 219.0 160.0 L 224.0 160.0 " stroke="black" fill="none" stroke-width="5.0" stroke-linecap="round" stroke-linejoin="round" />
<path d="M 61.0 202.0 L 61.0 202.0 L 61.0 202.0 L 60.0 202.0 L 60.0 202.0 L 59.0 202.0 L 59.0 202.0 L 59.0 202.0 L 58.0 202.0 L 58.0 202.0 L 58.0 202.0 L 58.0 202.0 L 58.0 202.0 L 58.0 202.0 L 58.0 202.0 L 58.0 202.0 L 58.0 202.0 L 59.0 202.0 L 59.0 202.0 L 59.0 202.0 L 59.0 202.0 L 60.0 202.0 L 60.0 202.0 L 60.0 202.0 L 61.0 202.0 L 61.0 202.0 L 62.0 202.0 L 62.0 202.0 L 62.0 202.0 L 63.0 202.0 L 63.0 202.0 L 64.0 202.0 L 64.0 202.0 L 65.0 202.0 L 66.0 202.0 L 66.0 202.0 L 67.0 202.0 L 68.0 202.0 L 68.0 202.0 L 69.0 202.0 L 70.0 202.0 L 71.0 203.0 L 71.0 203.0 L 72.0 203.0 L 73.0 203.0 L 74.0 203.0 L 74.0 203.0 L 75.0 203.0 L 75.0 203.0 L 76.0 203.0 L 77.0 203.0 L 77.0 203.0 L 78.0 203.0 L 79.0 203.0 L 80.0 203.0 L 80.0 203.0 L 81.0 203.0 L 82.0 203.0 L 82.0 203.0 L 83.0 203.0 L 84.0 203.0 L 84.0 203.0 L 85.0 202.0 L 86.0 202.0 L 86.0 202.0 L 87.0 202.0 L 88.0 202.0 L 88.0 202.0 L 89.0 202.0 L 90.0 202.0 L 90.0 202.0 L 91.0 202.0 L 92.0 202.0 L 93.0 202.0 L 93.0 202.0 L 94.0 202.0 L 95.0 202.0 L 96.0 202.0 L 96.0 202.0 L 97.0 202.0 L 98.0 202.0 L 98.0 202.0 L 99.0 202.0 L 99.0 202.0 L 100.0 202.0 L 101.0 202.0 L 101.0 202.0 L 102.0 202.0 L 102.0 202.0 L 103.0 202.0 L 104.0 202.0 L 104.0 202.0 L 105.0 202.0 L 105.0 202.0 L 106.0 202.0 L 107.0 202.0 L 107.0 202.0 L 108.0 202.0 L 108.0 202.0 L 109.0 202.0 L 110.0 202.0 L 110.0 202.0 L 111.0 202.0 L 111.0 202.0 L 112.0 202.0 L 112.0 202.0 L 113.0 202.0 L 114.0 202.0 L 114.0 202.0 L 114.0 202.0 L 115.0 202.0 L 116.0 202.0 L 116.0 202.0 L 117.0 202.0 L 117.0 201.0 L 118.0 201.0 L 118.0 201.0 L 119.0 201.0 L 119.0 201.0 L 120.0 201.0 L 120.0 201.0 L 121.0 201.0 L 122.0 201.0 L 122.0 201.0 L 123.0 201.0 L 124.0 201.0 L 124.0 201.0 L 125.0 201.0 L 126.0 200.0 L 126.0 200.0 L 127.0 200.0 L 128.0 200.0 L 128.0 200.0 L 129.0 200.0 L 130.0 200.0 L 131.0 200.0 L 132.0 200.0 L 133.0 200.0 L 134.0 200.0 L 134.0 200.0 L 135.0 200.0 L 136.0 200.0 L 137.0 200.0 L 138.0 200.0 L 139.0 200.0 L 140.0 200.0 L 141.0 200.0 L 141.0 200.0 L 142.0 200.0 L 143.0 200.0 L 144.0 200.0 L 144.0 200.0 L 145.0 200.0 L 146.0 200.0 L 146.0 200.0 L 147.0 200.0 L 147.0 200.0 L 148.0 200.0 L 148.0 200.0 L 149.0 200.0 L 149.0 200.0 L 150.0 200.0 L 150.0 200.0 L 151.0 200.0 L 151.0 200.0 L 152.0 200.0 L 152.0 200.0 L 153.0 200.0 L 153.0 200.0 L 154.0 200.0 L 155.0 200.0 L 155.0 200.0 L 156.0 200.0 L 157.0 200.0 L 158.0 200.0 L 159.0 200.0 L 160.0 200.0 L 160.0 200.0 L 161.0 200.0 L 162.0 200.0 L 163.0 200.0 L 164.0 200.0 L 165.0 200.0 L 166.0 200.0 L 168.0 200.0 L 169.0 200.0 L 170.0 200.0 L 171.0 200.0 L 172.0 200.0 L 174.0 200.0 L 175.0 200.0 L 176.0 200.0 L 177.0 200.0 L 178.0 200.0 L 179.0 199.0 L 180.0 199.0 L 181.0 199.0 L 182.0 199.0 L 183.0 199.0 L 184.0 199.0 L 184.0 199.0 L 185.0 199.0 L 186.0 199.0 L 187.0 199.0 L 188.0 199.0 L 188.0 199.0 L 189.0 199.0 L 190.0 199.0 L 191.0 199.0 L 192.0 199.0 L 192.0 199.0 L 193.0 199.0 L 194.0 199.0 L 195.0 199.0 L 196.0 199.0 L 197.0 199.0 L 198.0 199.0 L 198.0 199.0 L 199.0 199.0 L 200.0 199.0 L 201.0 199.0 L 202.0 199.0 L 203.0 200.0 L 204.0 200.0 L 206.0 200.0 L 207.0 200.0 L 208.0 200.0 L 210.0 201.0 L 211.0 201.0 L 213.0 201.0 L 215.0 201.0 L 216.0 202.0 L 218.0 202.0 L 221.0 202.0 L 223.0 202.0 L 225.0 202.0 L 227.0 202.0 L 229.0 203.0 L 231.0 203.0 L 233.0 204.0 L 235.0 204.0 L 236.0 205.0 L 237.0 205.0 L 238.0 206.0 L 239.0 206.0 L 239.0 206.0 L 239.0 206.0 " stroke="black" fill="none" stroke-width="5.0" stroke-linecap="round" stroke-linejoin="round" />
<path d="M 124.0 213.0 L 124.0 213.0 L 124.0 213.0 L 124.0 213.0 L 124.0 213.0 L 124.0 213.0 L 124.0 214.0 L 123.0 214.0 L 122.0 215.0 L 121.0 216.0 L 119.0 217.0 L 117.0 219.0 L 115.0 220.0 L 113.0 223.0 L 110.0 225.0 L 108.0 228.0 L 105.0 231.0 L 101.0 234.0 L 96.0 238.0 L 91.0 241.0 L 86.0 244.0 L 82.0 248.0 " stroke="black" fill="none" stroke-width="5.0" stroke-linecap="round" stroke-linejoin="round" />
<path d="M 179.0 219.0 L 179.0 219.0 L 178.0 219.0 L 177.0 218.0 L 176.0 218.0 L 176.0 218.0 L 176.0 218.0 L 175.0 218.0 L 175.0 218.0 L 175.0 218.0 L 176.0 218.0 L 177.0 219.0 L 179.0 220.0 L 181.0 221.0 L 183.0 223.0 L 185.0 224.0 L 188.0 226.0 L 190.0 227.0 L 193.0 229.0 L 197.0 231.0 L 201.0 233.0 L 206.0 236.0 L 211.0 237.0 L 215.0 239.0 L 220.0 241.0 L 223.0 243.0 L 226.0 244.0 L 228.0 246.0 L 229.0 247.0 L 230.0 248.0 L 230.0 249.0 L 230.0 249.0 L 230.0 249.0 " stroke="black" fill="none" stroke-width="5.0" stroke-linecap="round" stroke-linejoin="round" />
</svg>