<svg xmlns="http://www.w3.org/2000/svg" width="300" height="300" viewBox="0 0 300 300">
<path d="M 93.0 66.0 L 93.0 66.0 L 92.0 66.0 L 92.0 66.0 L 91.0 66.0 L 91.0 66.0 L 91.0 66.0 L 90.0 66.0 L 90.0 66.0 L 90.0 67.0 L 89.0 68.0 L 88.0 69.0 L 88.0 72.0 L 86.0 74.0 L 84.0 77.0 L 82.0 81.0 L 79.0 86.0 L 75.0 91.0 L 72.0 97.0 L 69.0 103.0 L 67.0 106.0 L 63.0 114.0 L 62.0 117.0 L 60.0 120.0 L 59.0 121.0 L 59.0 121.0 " stroke="black" fill="none" stroke-width="5.0" stroke-linecap="round" stroke-linejoin="round" />
<path d="M 97.0 113.0 L 97.0 113.0 L 97.0 113.0 L 96.0 113.0 L 96.0 113.0 L 95.0 114.0 L 95.0 114.0 L 94.0 115.0 L 94.0 115.0 L 93.0 116.0 L 93.0 117.0 L 92.0 119.0 L 90.0 121.0 L 88.0 124.0 L 86.0 128.0 L 83.0 132.0 L 79.0 138.0 L 75.0 144.0 L 71.0 150.0 L 67.0 155.0 L 64.0 160.0 L 62.0 164.0 L 59.0 167.0 L 58.0 170.0 L 57.0 171.0 L 56.0 172.0 L 56.0 172.0 " stroke="black" fill="none" stroke-width="5.0" stroke-linecap="round" stroke-linejoin="round" />
<path d="M 81.0 140.0 L 81.0 140.0 L 81.0 139.0 L 80.0 139.0 L 80.0 139.0 L 80.0 139.0 L 80.0 139.0 L 80.0 139.0 L 79.0 140.0 L 79.0 141.0 L 79.0 142.0 L 78.0 144.0 L 78.0 147.0 L 78.0 150.0 L 78.0 153.0 L 77.0 157.0 L 77.0 161.0 L 77.0 166.0 L 77.0 171.0 L 77.0 177.0 L 77.0 183.0 L 77.0 191.0 L 78.0 197.0 L 78.0 202.0 L 79.0 208.0 L 79.0 213.0 L 80.0 217.0 L 80.0 221.0 L 80.0 225.0 L 80.0 229.0 L 80.0 233.0 L 80.0 237.0 L 80.0 240.0 L 80.0 243.0 L 80.0 246.0 L 80.0 248.0 L 80.0 251.0 L 79.0 253.0 L 79.0 254.0 L 79.0 255.0 L 78.0 255.0 " stroke="black" fill="none" stroke-width="5.0" stroke-linecap="round" stroke-linejoin="round" />
<path d="M 130.0 71.0 L 130.0 71.0 L 129.0 71.0 L 128.0 71.0 L 128.0 72.0 L 127.0 72.0 L 126.0 73.0 L 126.0 74.0 L 125.0 76.0 L 124.0 78.0 L 123.0 81.0 L 121.0 85.0 L 120.0 90.0 L 117.0 95.0 L 115.0 102.0 L 112.0 108.0 L 109.0 114.0 L 106.0 119.0 L 103.0 122.0 L 102.0 125.0 L 101.0 125.0 L 101.0 125.0 " stroke="black" fill="none" stroke-width="5.0" stroke-linecap="round" stroke-linejoin="round" />
<path d="M 121.0 97.0 L 121.0 97.0 L 120.0 97.0 L 119.0 97.0 L 118.0 97.0 L 117.0 97.0 L 116.0 97.0 L 116.0 98.0 L 116.0 98.0 L 116.0 98.0 L 116.0 98.0 L 116.0 98.0 L 116.0 98.0 L 117.0 98.0 L 118.0 98.0 L 120.0 98.0 L 121.0 98.0 L 123.0 98.0 L 125.0 99.0 L 127.0 99.0 L 129.0 99.0 L 131.0 99.0 L 133.0 99.0 L 136.0 99.0 L 138.0 99.0 L 140.0 99.0 L 142.0 99.0 L 144.0 99.0 L 145.0 99.0 L 147.0 99.0 L 149.0 99.0 L 150.0 99.0 L 152.0 99.0 L 153.0 99.0 L 154.0 99.0 L 156.0 99.0 L 157.0 99.0 L 158.0 99.0 L 160.0 100.0 L 161.0 100.0 L 163.0 100.0 L 164.0 100.0 L 166.0 101.0 L 167.0 101.0 L 168.0 101.0 L 170.0 101.0 L 171.0 101.0 L 171.0 102.0 " stroke="black" fill="none" stroke-width="5.0" stroke-linecap="round" stroke-linejoin="round" />
<path d="M 109.0 142.0 L 109.0 142.0 L 109.0 142.0 L 108.0 142.0 L 108.0 142.0 L 108.0 142.0 L 108.0 142.0 L 108.0 142.0 L 108.0 142.0 L 108.0 142.0 L 109.0 142.0 L 110.0 142.0 L 112.0 142.0 L 115.0 142.0 L 118.0 141.0 L 122.0 141.0 L 127.0 140.0 L 132.0 140.0 L 137.0 139.0 L 142.0 139.0 L 146.0 139.0 L 150.0 138.0 L 153.0 138.0 L 155.0 138.0 L 157.0 137.0 L 159.0 137.0 L 161.0 137.0 L 163.0 137.0 L 164.0 137.0 L 166.0 137.0 L 168.0 137.0 L 169.0 137.0 " stroke="black" fill="none" stroke-width="5.0" stroke-linecap="round" stroke-linejoin="round" />
<path d="M 150.0 103.0 L 150.0 105.0 L 150.0 107.0 L 150.0 109.0 L 150.0 111.0 L 150.0 113.0 L 150.0 116.0 L 150.0 119.0 L 150.0 122.0 L 149.0 126.0 L 149.0 130.0 L 149.0 134.0 L 149.0 139.0 L 149.0 145.0 L 149.0 150.0 L 148.0 155.0 L 148.0 161.0 L 148.0 166.0 L 148.0 170.0 L 148.0 175.0 L 148.0 179.0 L 148.0 184.0 L 148.0 188.0 L 148.0 192.0 L 148.0 196.0 L 148.0 199.0 L 148.0 202.0 L 148.0 204.0 L 147.0 207.0 L 147.0 209.0 L 147.0 211.0 L 147.0 214.0 L 147.0 215.0 L 147.0 217.0 L 147.0 219.0 L 146.0 220.0 L 146.0 221.0 L 146.0 221.0 L 146.0 221.0 L 146.0 221.0 L 146.0 221.0 L 146.0 221.0 L 146.0 219.0 " stroke="black" fill="none" stroke-width="5.0" stroke-linecap="round" stroke-linejoin="round" />
<path d="M 151.0 185.0 L 151.0 185.0 L 151.0 185.0 L 150.0 186.0 L 150.0 186.0 L 150.0 186.0 L 150.0 186.0 L 150.0 186.0 L 150.0 186.0 L 151.0 186.0 L 152.0 186.0 L 153.0 186.0 L 155.0 185.0 L 158.0 184.0 L 161.0 184.0 L 163.0 183.0 L 166.0 183.0 L 168.0 182.0 L 170.0 182.0 L 170.0 182.0 " stroke="black" fill="none" stroke-width="5.0" stroke-linecap="round" stroke-linejoin="round" />
<path d="M 117.0 170.0 L 117.0 170.0 L 117.0 170.0 L 117.0 171.0 L 117.0 171.0 L 117.0 171.0 L 117.0 172.0 L 117.0 173.0 L 117.0 174.0 L 117.0 176.0 L 117.0 178.0 L 117.0 181.0 L 117.0 185.0 L 117.0 190.0 L 118.0 196.0 L 118.0 201.0 L 118.0 207.0 L 118.0 213.0 L 118.0 217.0 L 118.0 222.0 L 117.0 225.0 L 117.0 228.0 L 117.0 229.0 L 117.0 230.0 L 117.0 230.0 L 117.0 230.0 L 117.0 230.0 L 117.0 230.0 L 117.0 230.0 L 117.0 229.0 L 117.0 229.0 L 117.0 229.0 L 117.0 229.0 L 117.0 229.0 L 117.0 229.0 L 117.0 229.0 L 117.0 229.0 " stroke="black" fill="none" stroke-width="5.0" stroke-linecap="round" stroke-linejoin="round" />
<path d="M 110.0 236.0 L 110.0 236.0 L 110.0 236.0 L 109.0 236.0 L 109.0 236.0 L 109.0 236.0 L 109.0 236.0 L 108.0 236.0 L 108.0 236.0 L 108.0 236.0 L 108.0 236.0 L 108.0 236.0 L 108.0 236.0 L 108.0 236.0 L 108.0 236.0 L 108.0 236.0 L 109.0 236.0 L 110.0 236.0 L 110.0 236.0 L 111.0 236.0 L 112.0 236.0 L 113.0 236.0 L 114.0 235.0 L 115.0 235.0 L 116.0 235.0 L 117.0 234.0 L 118.0 234.0 L 120.0 234.0 L 121.0 234.0 L 122.0 233.0 L 123.0 233.0 L 125.0 233.0 L 126.0 233.0 L 127.0 232.0 L 129.0 232.0 L 130.0 232.0 L 131.0 232.0 L 132.0 232.0 L 134.0 232.0 L 135.0 232.0 L 136.0 232.0 L 137.0 232.0 L 138.0 232.0 L 139.0 232.0 L 139.0 232.0 L 140.0 232.0 L 141.0 232.0 L 142.0 232.0 L 143.0 232.0 L 144.0 232.0 L 145.0 232.0 L 146.0 232.0 L 147.0 232.0 L 148.0 232.0 L 148.0 232.0 L 149.0 232.0 L 150.0 232.0 L 151.0 232.0 L 152.0 232.0 L 153.0 231.0 L 154.0 231.0 L 155.0 231.0 L 156.0 231.0 L 157.0 231.0 L 158.0 231.0 L 159.0 231.0 L 161.0 231.0 L 162.0 231.0 L 164.0 231.0 L 166.0 230.0 L 168.0 230.0 L 170.0 230.0 L 171.0 230.0 L 173.0 229.0 " stroke="black" fill="none" stroke-width="5.0" stroke-linecap="round" stroke-linejoin="round" />
<path d="M 196.0 89.0 L 196.0 89.0 L 196.0 89.0 L 196.0 89.0 L 196.0 89.0 L 196.0 89.0 L 196.0 89.0 L 196.0 89.0 L 196.0 89.0 L 196.0 89.0 L 196.0 89.0 L 196.0 89.0 L 196.0 89.0 L 196.0 89.0 L 196.0 89.0 L 196.0 89.0 L 197.0 89.0 L 197.0 89.0 L 198.0 89.0 L 199.0 89.0 L 201.0 89.0 L 202.0 89.0 L 203.0 89.0 L 204.0 89.0 L 205.0 89.0 L 207.0 89.0 L 208.0 89.0 L 210.0 89.0 L 211.0 89.0 L 213.0 89.0 L 214.0 89.0 L 216.0 89.0 L 218.0 89.0 L 219.0 89.0 L 221.0 89.0 L 223.0 89.0 L 224.0 89.0 L 226.0 89.0 L 227.0 89.0 L 228.0 89.0 L 230.0 89.0 L 231.0 89.0 L 232.0 89.0 L 233.0 89.0 L 233.0 89.0 L 234.0 89.0 L 235.0 89.0 L 235.0 89.0 L 235.0 90.0 L 236.0 90.0 L 236.0 90.0 L 236.0 90.0 L 236.0 91.0 L 236.0 91.0 L 237.0 91.0 L 237.0 91.0 L 237.0 92.0 L 237.0 92.0 L 237.0 92.0 L 237.0 92.0 L 237.0 92.0 L 237.0 93.0 L 237.0 93.0 L 237.0 94.0 L 237.0 95.0 L 237.0 97.0 L 237.0 99.0 L 237.0 101.0 L 237.0 103.0 L 237.0 106.0 L 237.0 109.0 L 237.0 112.0 L 236.0 114.0 L 236.0 118.0 L 236.0 121.0 L 236.0 124.0 L 235.0 128.0 L 235.0 131.0 L 235.0 134.0 L 235.0 137.0 L 235.0 141.0 L 235.0 144.0 L 235.0 147.0 L 235.0 150.0 L 235.0 152.0 L 235.0 155.0 L 235.0 157.0 L 235.0 159.0 L 235.0 161.0 L 235.0 163.0 L 235.0 165.0 L 235.0 166.0 L 235.0 168.0 L 235.0 170.0 L 234.0 171.0 L 234.0 173.0 L 234.0 175.0 L 234.0 176.0 L 234.0 178.0 L 234.0 180.0 L 234.0 181.0 L 234.0 183.0 L 234.0 185.0 L 234.0 187.0 L 233.0 189.0 L 233.0 190.0 L 233.0 192.0 L 233.0 194.0 L 233.0 196.0 L 232.0 197.0 L 232.0 199.0 L 232.0 200.0 L 232.0 202.0 L 232.0 203.0 L 232.0 204.0 L 232.0 205.0 L 232.0 206.0 L 232.0 207.0 L 232.0 208.0 L 232.0 210.0 L 232.0 211.0 L 232.0 212.0 L 232.0 213.0 L 232.0 214.0 L 232.0 214.0 L 232.0 215.0 L 232.0 216.0 L 232.0 216.0 L 232.0 217.0 L 232.0 217.0 L 231.0 217.0 L 231.0 217.0 L 231.0 217.0 L 231.0 217.0 L 230.0 217.0 L 230.0 217.0 L 229.0 217.0 L 228.0 217.0 L 227.0 216.0 L 225.0 215.0 L 224.0 214.0 L 221.0 213.0 L 219.0 211.0 L 216.0 209.0 L 213.0 206.0 " stroke="black" fill="none" stroke-width="5.0" stroke-linecap="round" stroke-linejoin="round" />
<path d="M 196.0 90.0 L 196.0 90.0 L 196.0 91.0 L 196.0 91.0 L 196.0 92.0 L 196.0 93.0 L 196.0 95.0 L 196.0 97.0 L 196.0 100.0 L 196.0 103.0 L 196.0 107.0 L 196.0 111.0 L 196.0 115.0 L 195.0 120.0 L 195.0 123.0 L 195.0 127.0 L 195.0 131.0 L 195.0 134.0 L 195.0 138.0 L 195.0 142.0 L 195.0 145.0 L 195.0 149.0 L 195.0 152.0 L 196.0 155.0 L 196.0 158.0 L 196.0 161.0 L 196.0 163.0 L 196.0 166.0 L 196.0 168.0 L 196.0 170.0 L 196.0 173.0 L 196.0 175.0 L 196.0 177.0 L 196.0 180.0 L 196.0 182.0 L 196.0 185.0 L 196.0 187.0 L 196.0 190.0 L 196.0 192.0 L 196.0 194.0 L 196.0 196.0 L 196.0 198.0 L 196.0 199.0 L 196.0 201.0 L 196.0 203.0 L 196.0 205.0 L 196.0 207.0 L 196.0 209.0 L 196.0 210.0 L 196.0 212.0 L 196.0 214.0 L 196.0 215.0 L 196.0 217.0 L 196.0 219.0 L 196.0 220.0 L 196.0 222.0 L 196.0 224.0 L 196.0 226.0 L 196.0 227.0 L 196.0 229.0 L 196.0 231.0 L 196.0 232.0 L 196.0 234.0 L 196.0 235.0 L 196.0 236.0 L 196.0 237.0 L 196.0 239.0 L 196.0 240.0 L 196.0 241.0 L 196.0 242.0 L 196.0 243.0 L 196.0 244.0 L 196.0 245.0 L 196.0 246.0 L 196.0 246.0 L 196.0 246.0 L 196.0 247.0 L 196.0 247.0 L 196.0 247.0 L 196.0 247.0 L 196.0 248.0 L 196.0 248.0 L 196.0 248.0 L 196.0 249.0 L 196.0 249.0 L 196.0 249.0 L 196.0 249.0 L 196.0 250.0 L 196.0 250.0 L 196.0 250.0 L 196.0 250.0 L 196.0 250.0 L 196.0 250.0 L 195.0 250.0 L 195.0 250.0 L 195.0 249.0 L 195.0 249.0 L 195.0 248.0 " stroke="black" fill="none" stroke-width="5.0" stroke-linecap="round" stroke-linejoin="round" />
</svg>