<svg xmlns="http://www.w3.org/2000/svg" width="300" height="300" viewBox="0 0 300 300">
<path d="M 96.0 65.0 L 96.0 65.0 L 96.0 65.0 L 96.0 64.0 L 96.0 64.0 L 96.0 63.0 L 96.0 63.0 L 96.0 63.0 L 96.0 63.0 L 96.0 63.0 L 96.0 64.0 L 95.0 65.0 L 94.0 67.0 L 93.0 70.0 L 91.0 73.0 L 89.0 76.0 L 86.0 80.0 L 82.0 85.0 L 78.0 91.0 L 74.0 96.0 L 70.0 102.0 L 66.0 108.0 L 63.0 113.0 L 61.0 116.0 L 58.0 120.0 L 57.0 121.0 L 56.0 123.0 " stroke="black" fill="none" stroke-width="5.0" stroke-linecap="round" stroke-linejoin="round" />
<path d="M 99.0 111.0 L 99.0 111.0 L 99.0 111.0 L 99.0 111.0 L 99.0 111.0 L 99.0 110.0 L 99.0 110.0 L 99.0 110.0 L 98.0 111.0 L 98.0 111.0 L 97.0 113.0 L 96.0 115.0 L 95.0 117.0 L 93.0 120.0 L 91.0 123.0 L 88.0 127.0 L 84.0 133.0 L 80.0 139.0 L 76.0 146.0 L 71.0 153.0 L 67.0 158.0 L 63.0 163.0 L 61.0 167.0 L 59.0 169.0 L 58.0 170.0 L 58.0 170.0 " stroke="black" fill="none" stroke-width="5.0" stroke-linecap="round" stroke-linejoin="round" />
<path d="M 82.0 139.0 L 82.0 139.0 L 82.0 139.0 L 82.0 139.0 L 81.0 139.0 L 81.0 139.0 L 81.0 139.0 L 81.0 139.0 L 81.0 139.0 L 81.0 140.0 L 81.0 141.0 L 81.0 143.0 L 81.0 145.0 L 81.0 148.0 L 81.0 151.0 L 81.0 156.0 L 81.0 161.0 L 81.0 167.0 L 81.0 174.0 L 81.0 182.0 L 81.0 191.0 L 81.0 200.0 L 81.0 208.0 L 80.0 217.0 L 80.0 225.0 L 79.0 232.0 L 79.0 238.0 L 79.0 240.0 L 80.0 241.0 " stroke="black" fill="none" stroke-width="5.0" stroke-linecap="round" stroke-linejoin="round" />
<path d="M 133.0 70.0 L 133.0 69.0 L 133.0 68.0 L 133.0 68.0 L 133.0 67.0 L 133.0 67.0 L 133.0 67.0 L 133.0 67.0 L 133.0 69.0 L 132.0 72.0 L 130.0 76.0 L 128.0 81.0 L 125.0 88.0 L 121.0 96.0 L 118.0 104.0 L 114.0 113.0 L 110.0 120.0 L 108.0 125.0 L 105.0 129.0 L 104.0 131.0 L 103.0 132.0 " stroke="black" fill="none" stroke-width="5.0" stroke-linecap="round" stroke-linejoin="round" />
<path d="M 124.0 99.0 L 123.0 99.0 L 122.0 99.0 L 120.0 99.0 L 119.0 99.0 L 119.0 99.0 L 118.0 99.0 L 118.0 100.0 L 118.0 100.0 L 118.0 100.0 L 118.0 100.0 L 119.0 100.0 L 120.0 100.0 L 122.0 100.0 L 125.0 100.0 L 127.0 100.0 L 130.0 100.0 L 134.0 100.0 L 138.0 100.0 L 141.0 100.0 L 145.0 100.0 L 149.0 100.0 L 152.0 100.0 L 156.0 99.0 L 159.0 99.0 L 163.0 98.0 L 166.0 98.0 L 169.0 98.0 L 172.0 97.0 L 175.0 97.0 L 178.0 97.0 L 179.0 96.0 L 180.0 96.0 " stroke="black" fill="none" stroke-width="5.0" stroke-linecap="round" stroke-linejoin="round" />
<path d="M 149.0 107.0 L 149.0 107.0 L 149.0 108.0 L 149.0 109.0 L 149.0 110.0 L 149.0 111.0 L 149.0 112.0 L 149.0 114.0 L 149.0 116.0 L 149.0 118.0 L 149.0 120.0 L 149.0 123.0 L 149.0 126.0 L 149.0 130.0 L 149.0 134.0 L 149.0 138.0 L 149.0 143.0 L 149.0 148.0 L 149.0 153.0 L 149.0 157.0 L 149.0 162.0 L 148.0 167.0 L 148.0 170.0 L 148.0 174.0 L 147.0 178.0 L 147.0 182.0 L 146.0 186.0 L 146.0 190.0 L 146.0 194.0 L 145.0 197.0 L 145.0 201.0 L 145.0 203.0 L 145.0 204.0 L 145.0 204.0 L 145.0 204.0 L 145.0 204.0 " stroke="black" fill="none" stroke-width="5.0" stroke-linecap="round" stroke-linejoin="round" />
<path d="M 118.0 142.0 L 118.0 142.0 L 117.0 142.0 L 116.0 142.0 L 115.0 142.0 L 115.0 142.0 L 115.0 142.0 L 115.0 142.0 L 115.0 142.0 L 117.0 142.0 L 119.0 142.0 L 123.0 142.0 L 127.0 142.0 L 132.0 142.0 L 137.0 142.0 L 142.0 142.0 L 147.0 142.0 L 151.0 142.0 L 156.0 141.0 L 159.0 141.0 L 163.0 140.0 L 166.0 139.0 L 169.0 139.0 L 170.0 139.0 " stroke="black" fill="none" stroke-width="5.0" stroke-linecap="round" stroke-linejoin="round" />
<path d="M 147.0 184.0 L 147.0 184.0 L 147.0 184.0 L 147.0 184.0 L 147.0 184.0 L 147.0 184.0 L 147.0 185.0 L 147.0 186.0 L 147.0 187.0 L 147.0 188.0 L 147.0 191.0 L 147.0 193.0 L 146.0 195.0 L 146.0 198.0 L 146.0 201.0 L 145.0 204.0 L 145.0 206.0 L 145.0 209.0 L 144.0 211.0 L 144.0 214.0 L 144.0 215.0 L 143.0 217.0 L 143.0 218.0 L 143.0 218.0 L 143.0 219.0 L 143.0 219.0 L 143.0 219.0 L 143.0 218.0 " stroke="black" fill="none" stroke-width="5.0" stroke-linecap="round" stroke-linejoin="round" />
<path d="M 151.0 188.0 L 151.0 188.0 L 150.0 188.0 L 149.0 188.0 L 149.0 189.0 L 148.0 189.0 L 148.0 189.0 L 148.0 189.0 L 148.0 189.0 L 148.0 189.0 L 149.0 189.0 L 151.0 189.0 L 153.0 188.0 L 155.0 187.0 L 158.0 186.0 L 161.0 185.0 L 164.0 184.0 L 167.0 183.0 L 169.0 182.0 L 172.0 181.0 L 173.0 181.0 " stroke="black" fill="none" stroke-width="5.0" stroke-linecap="round" stroke-linejoin="round" />
<path d="M 119.0 171.0 L 119.0 171.0 L 118.0 172.0 L 118.0 173.0 L 117.0 174.0 L 117.0 175.0 L 117.0 176.0 L 117.0 178.0 L 117.0 181.0 L 117.0 184.0 L 117.0 188.0 L 117.0 193.0 L 117.0 198.0 L 117.0 203.0 L 117.0 209.0 L 117.0 214.0 L 117.0 220.0 L 117.0 225.0 L 117.0 229.0 L 117.0 232.0 L 117.0 234.0 L 116.0 236.0 L 116.0 237.0 L 116.0 237.0 " stroke="black" fill="none" stroke-width="5.0" stroke-linecap="round" stroke-linejoin="round" />
<path d="M 111.0 236.0 L 110.0 236.0 L 110.0 235.0 L 109.0 235.0 L 108.0 235.0 L 108.0 234.0 L 107.0 234.0 L 107.0 234.0 L 107.0 234.0 L 107.0 234.0 L 107.0 234.0 L 107.0 234.0 L 107.0 234.0 L 108.0 234.0 L 110.0 234.0 L 112.0 234.0 L 115.0 234.0 L 119.0 234.0 L 124.0 234.0 L 130.0 233.0 L 137.0 232.0 L 144.0 229.0 L 151.0 227.0 L 155.0 224.0 L 159.0 221.0 L 164.0 218.0 L 166.0 216.0 L 169.0 215.0 L 171.0 214.0 L 173.0 214.0 L 173.0 214.0 " stroke="black" fill="none" stroke-width="5.0" stroke-linecap="round" stroke-linejoin="round" />
<path d="M 196.0 99.0 L 196.0 99.0 L 195.0 99.0 L 195.0 99.0 L 195.0 99.0 L 194.0 99.0 L 194.0 99.0 L 194.0 99.0 L 194.0 99.0 L 194.0 99.0 L 194.0 99.0 L 195.0 99.0 L 196.0 99.0 L 198.0 99.0 L 201.0 99.0 L 204.0 99.0 L 207.0 99.0 L 212.0 98.0 L 217.0 98.0 L 223.0 98.0 L 227.0 97.0 L 232.0 97.0 L 235.0 97.0 L 238.0 96.0 L 240.0 96.0 L 241.0 96.0 L 242.0 96.0 L 242.0 96.0 L 242.0 97.0 L 242.0 97.0 L 242.0 98.0 L 242.0 100.0 L 242.0 101.0 L 242.0 103.0 L 242.0 105.0 L 242.0 107.0 L 241.0 109.0 L 241.0 112.0 L 241.0 115.0 L 240.0 119.0 L 240.0 123.0 L 239.0 127.0 L 239.0 132.0 L 238.0 137.0 L 238.0 142.0 L 238.0 148.0 L 237.0 153.0 L 237.0 158.0 L 237.0 162.0 L 237.0 167.0 L 237.0 171.0 L 237.0 175.0 L 237.0 179.0 L 237.0 183.0 L 237.0 188.0 L 237.0 192.0 L 237.0 195.0 L 236.0 197.0 L 235.0 200.0 L 235.0 203.0 L 234.0 205.0 L 233.0 208.0 L 233.0 210.0 L 232.0 212.0 L 232.0 213.0 L 232.0 214.0 L 232.0 215.0 L 231.0 215.0 L 231.0 215.0 L 231.0 215.0 L 230.0 215.0 L 228.0 214.0 L 226.0 212.0 L 224.0 210.0 L 221.0 208.0 L 217.0 205.0 L 212.0 203.0 L 211.0 201.0 " stroke="black" fill="none" stroke-width="5.0" stroke-linecap="round" stroke-linejoin="round" />
<path d="M 196.0 94.0 L 196.0 94.0 L 196.0 94.0 L 196.0 94.0 L 196.0 94.0 L 196.0 95.0 L 196.0 96.0 L 196.0 99.0 L 196.0 102.0 L 197.0 107.0 L 197.0 112.0 L 197.0 118.0 L 197.0 125.0 L 197.0 132.0 L 197.0 141.0 L 196.0 149.0 L 196.0 157.0 L 196.0 165.0 L 196.0 171.0 L 196.0 179.0 L 197.0 186.0 L 197.0 192.0 L 198.0 199.0 L 198.0 205.0 L 198.0 210.0 L 198.0 217.0 L 198.0 223.0 L 198.0 230.0 L 198.0 237.0 L 198.0 241.0 L 198.0 245.0 L 198.0 248.0 L 198.0 249.0 " stroke="black" fill="none" stroke-width="5.0" stroke-linecap="round" stroke-linejoin="round" />
</svg>