<svg xmlns="http://www.w3.org/2000/svg" width="300" height="300" viewBox="0 0 300 300">
<path d="M 94.0 103.0 L 94.0 103.0 L 94.0 102.0 L 94.0 102.0 L 93.0 101.0 L 93.0 101.0 L 93.0 102.0 L 93.0 103.0 L 93.0 107.0 L 94.0 111.0 L 95.0 118.0 L 95.0 126.0 L 96.0 137.0 L 96.0 151.0 L 96.0 165.0 L 96.0 179.0 L 96.0 194.0 L 97.0 206.0 L 98.0 215.0 L 99.0 222.0 L 99.0 228.0 L 100.0 231.0 L 100.0 232.0 " stroke="black" fill="none" stroke-width="5.0" stroke-linecap="round" stroke-linejoin="round" />
<path d="M 92.0 87.0 L 92.0 87.0 L 91.0 87.0 L 90.0 87.0 L 89.0 87.0 L 88.0 87.0 L 88.0 87.0 L 88.0 87.0 L 88.0 87.0 L 88.0 87.0 L 88.0 87.0 L 89.0 87.0 L 90.0 87.0 L 90.0 86.0 L 91.0 86.0 L 92.0 86.0 L 93.0 86.0 L 94.0 86.0 L 95.0 86.0 L 96.0 86.0 L 98.0 86.0 L 100.0 86.0 L 101.0 86.0 L 103.0 86.0 L 105.0 86.0 L 107.0 86.0 L 108.0 86.0 L 110.0 86.0 L 112.0 86.0 L 114.0 86.0 L 116.0 86.0 L 118.0 86.0 L 121.0 86.0 L 123.0 85.0 L 126.0 85.0 L 129.0 85.0 L 132.0 84.0 L 136.0 84.0 L 139.0 83.0 L 141.0 83.0 L 144.0 83.0 L 147.0 82.0 L 149.0 82.0 L 150.0 81.0 L 152.0 81.0 L 154.0 80.0 L 155.0 80.0 L 157.0 80.0 L 158.0 80.0 L 160.0 80.0 L 162.0 80.0 L 164.0 80.0 L 166.0 80.0 L 169.0 80.0 L 172.0 80.0 L 175.0 79.0 L 178.0 79.0 L 181.0 79.0 L 184.0 78.0 L 186.0 78.0 L 188.0 78.0 L 189.0 78.0 L 191.0 78.0 L 192.0 78.0 L 193.0 78.0 L 194.0 78.0 L 195.0 78.0 L 196.0 78.0 L 198.0 77.0 L 199.0 77.0 L 200.0 77.0 L 201.0 77.0 L 202.0 77.0 L 202.0 77.0 L 203.0 77.0 L 204.0 77.0 L 205.0 77.0 L 205.0 77.0 L 206.0 77.0 L 206.0 78.0 L 207.0 78.0 L 207.0 78.0 L 208.0 79.0 L 208.0 80.0 L 208.0 80.0 L 209.0 81.0 L 209.0 82.0 L 209.0 83.0 L 210.0 84.0 L 210.0 86.0 L 210.0 89.0 L 210.0 92.0 L 210.0 96.0 L 210.0 101.0 L 210.0 107.0 L 210.0 113.0 L 210.0 119.0 L 210.0 125.0 L 210.0 132.0 L 210.0 139.0 L 210.0 147.0 L 210.0 156.0 L 209.0 164.0 L 209.0 172.0 L 209.0 182.0 L 208.0 190.0 L 208.0 198.0 L 208.0 206.0 L 208.0 212.0 L 208.0 218.0 L 208.0 224.0 L 208.0 229.0 L 208.0 232.0 L 208.0 236.0 L 208.0 237.0 L 208.0 239.0 L 208.0 239.0 L 208.0 239.0 " stroke="black" fill="none" stroke-width="5.0" stroke-linecap="round" stroke-linejoin="round" />
<path d="M 104.0 160.0 L 104.0 160.0 L 103.0 160.0 L 102.0 160.0 L 102.0 160.0 L 101.0 160.0 L 101.0 160.0 L 103.0 160.0 L 105.0 159.0 L 109.0 159.0 L 115.0 159.0 L 124.0 159.0 L 134.0 159.0 L 145.0 158.0 L 157.0 157.0 L 168.0 157.0 L 180.0 156.0 L 190.0 155.0 L 196.0 155.0 L 200.0 155.0 L 203.0 155.0 L 205.0 156.0 " stroke="black" fill="none" stroke-width="5.0" stroke-linecap="round" stroke-linejoin="round" />
<path d="M 103.0 234.0 L 102.0 234.0 L 101.0 234.0 L 100.0 235.0 L 99.0 235.0 L 99.0 235.0 L 99.0 235.0 L 101.0 235.0 L 104.0 235.0 L 109.0 235.0 L 116.0 234.0 L 125.0 233.0 L 137.0 232.0 L 148.0 231.0 L 160.0 230.0 L 172.0 229.0 L 182.0 229.0 L 190.0 229.0 L 195.0 229.0 L 198.0 229.0 L 200.0 229.0 L 201.0 230.0 " stroke="black" fill="none" stroke-width="5.0" stroke-linecap="round" stroke-linejoin="round" />
</svg>