<svg xmlns="http://www.w3.org/2000/svg" width="300" height="300" viewBox="0 0 300 300">
<path d="M 96.0 93.0 L 96.0 93.0 L 96.0 93.0 L 96.0 92.0 L 96.0 91.0 L 96.0 91.0 L 96.0 91.0 L 96.0 91.0 L 96.0 91.0 L 96.0 92.0 L 96.0 95.0 L 96.0 99.0 L 96.0 105.0 L 96.0 111.0 L 96.0 120.0 L 96.0 131.0 L 96.0 145.0 L 95.0 160.0 L 95.0 174.0 L 95.0 189.0 L 96.0 202.0 L 97.0 212.0 L 97.0 219.0 L 98.0 226.0 L 98.0 231.0 L 98.0 233.0 " stroke="black" fill="none" stroke-width="5.0" stroke-linecap="round" stroke-linejoin="round" />
<path d="M 101.0 88.0 L 101.0 88.0 L 101.0 88.0 L 101.0 87.0 L 101.0 87.0 L 100.0 87.0 L 100.0 87.0 L 100.0 87.0 L 100.0 87.0 L 100.0 87.0 L 100.0 87.0 L 100.0 87.0 L 100.0 87.0 L 100.0 87.0 L 101.0 87.0 L 101.0 87.0 L 101.0 87.0 L 102.0 88.0 L 102.0 88.0 L 103.0 88.0 L 104.0 88.0 L 105.0 88.0 L 106.0 89.0 L 107.0 89.0 L 108.0 89.0 L 110.0 89.0 L 112.0 89.0 L 113.0 89.0 L 115.0 89.0 L 117.0 90.0 L 119.0 90.0 L 121.0 90.0 L 123.0 90.0 L 125.0 90.0 L 128.0 91.0 L 130.0 91.0 L 132.0 91.0 L 135.0 91.0 L 137.0 91.0 L 139.0 91.0 L 142.0 91.0 L 144.0 91.0 L 145.0 91.0 L 147.0 91.0 L 148.0 91.0 L 149.0 91.0 L 151.0 91.0 L 152.0 91.0 L 153.0 91.0 L 154.0 91.0 L 156.0 91.0 L 157.0 91.0 L 159.0 91.0 L 160.0 91.0 L 162.0 91.0 L 164.0 91.0 L 166.0 91.0 L 168.0 91.0 L 170.0 91.0 L 173.0 91.0 L 175.0 91.0 L 177.0 91.0 L 179.0 91.0 L 181.0 91.0 L 183.0 91.0 L 185.0 91.0 L 186.0 91.0 L 188.0 92.0 L 189.0 92.0 L 191.0 92.0 L 192.0 92.0 L 194.0 92.0 L 195.0 92.0 L 196.0 92.0 L 197.0 92.0 L 198.0 92.0 L 199.0 92.0 L 201.0 92.0 L 202.0 92.0 L 203.0 92.0 L 204.0 92.0 L 205.0 92.0 L 206.0 92.0 L 207.0 93.0 L 208.0 93.0 L 209.0 93.0 L 209.0 93.0 L 210.0 93.0 L 210.0 93.0 L 211.0 93.0 L 211.0 93.0 L 211.0 94.0 L 211.0 94.0 L 211.0 94.0 L 211.0 95.0 L 212.0 95.0 L 212.0 96.0 L 212.0 97.0 L 212.0 98.0 L 212.0 100.0 L 212.0 101.0 L 212.0 103.0 L 212.0 105.0 L 212.0 108.0 L 212.0 111.0 L 212.0 114.0 L 212.0 118.0 L 212.0 122.0 L 212.0 127.0 L 212.0 132.0 L 212.0 140.0 L 211.0 147.0 L 210.0 155.0 L 209.0 164.0 L 209.0 172.0 L 208.0 180.0 L 208.0 189.0 L 208.0 196.0 L 208.0 203.0 L 208.0 210.0 L 208.0 215.0 L 208.0 221.0 L 208.0 227.0 L 208.0 231.0 L 207.0 235.0 L 205.0 238.0 L 202.0 239.0 " stroke="black" fill="none" stroke-width="5.0" stroke-linecap="round" stroke-linejoin="round" />
<path d="M 110.0 156.0 L 110.0 156.0 L 110.0 156.0 L 110.0 156.0 L 110.0 155.0 L 110.0 155.0 L 110.0 155.0 L 110.0 154.0 L 110.0 154.0 L 113.0 154.0 L 117.0 154.0 L 122.0 154.0 L 131.0 154.0 L 141.0 154.0 L 150.0 154.0 L 160.0 154.0 L 171.0 152.0 L 181.0 152.0 L 189.0 151.0 L 196.0 150.0 L 199.0 150.0 L 201.0 150.0 L 202.0 151.0 L 203.0 153.0 L 203.0 155.0 L 200.0 159.0 " stroke="black" fill="none" stroke-width="5.0" stroke-linecap="round" stroke-linejoin="round" />
<path d="M 105.0 230.0 L 105.0 230.0 L 104.0 230.0 L 103.0 230.0 L 103.0 230.0 L 102.0 230.0 L 102.0 230.0 L 102.0 230.0 L 104.0 230.0 L 107.0 230.0 L 112.0 230.0 L 119.0 230.0 L 129.0 230.0 L 140.0 230.0 L 151.0 230.0 L 162.0 231.0 L 175.0 232.0 L 187.0 232.0 L 196.0 232.0 L 204.0 231.0 " stroke="black" fill="none" stroke-width="5.0" stroke-linecap="round" stroke-linejoin="round" />
</svg>