<svg xmlns="http://www.w3.org/2000/svg" width="300" height="300" viewBox="0 0 300 300">
<path d="M 71.0 79.0 L 71.0 79.0 L 71.0 79.0 L 71.0 79.0 L 70.0 79.0 L 70.0 79.0 L 70.0 80.0 L 70.0 80.0 L 70.0 81.0 L 70.0 82.0 L 70.0 84.0 L 70.0 85.0 L 70.0 88.0 L 70.0 91.0 L 70.0 95.0 L 70.0 100.0 L 70.0 106.0 L 70.0 112.0 L 70.0 118.0 L 70.0 123.0 L 70.0 128.0 L 70.0 132.0 L 70.0 137.0 L 70.0 143.0 L 70.0 148.0 L 70.0 155.0 L 70.0 160.0 L 70.0 165.0 L 70.0 170.0 L 70.0 173.0 L 70.0 175.0 L 70.0 176.0 L 71.0 177.0 L 71.0 177.0 L 71.0 176.0 " stroke="black" fill="none" stroke-width="5.0" stroke-linecap="round" stroke-linejoin="round" />
<path d="M 74.0 81.0 L 73.0 81.0 L 72.0 82.0 L 72.0 82.0 L 71.0 82.0 L 71.0 83.0 L 70.0 83.0 L 70.0 83.0 L 71.0 83.0 L 72.0 83.0 L 73.0 83.0 L 75.0 83.0 L 76.0 83.0 L 79.0 83.0 L 82.0 83.0 L 85.0 83.0 L 88.0 84.0 L 91.0 84.0 L 95.0 85.0 L 100.0 85.0 L 104.0 85.0 L 109.0 85.0 L 114.0 85.0 L 119.0 85.0 L 123.0 84.0 L 128.0 84.0 L 131.0 84.0 L 134.0 85.0 L 136.0 86.0 " stroke="black" fill="none" stroke-width="5.0" stroke-linecap="round" stroke-linejoin="round" />
<path d="M 83.0 113.0 L 83.0 113.0 L 82.0 113.0 L 81.0 113.0 L 80.0 113.0 L 79.0 113.0 L 78.0 113.0 L 78.0 113.0 L 78.0 113.0 L 78.0 113.0 L 78.0 113.0 L 78.0 113.0 L 79.0 113.0 L 82.0 113.0 L 84.0 113.0 L 88.0 113.0 L 92.0 114.0 L 96.0 114.0 L 100.0 114.0 L 105.0 114.0 L 109.0 114.0 L 113.0 115.0 L 118.0 115.0 L 122.0 115.0 L 126.0 115.0 " stroke="black" fill="none" stroke-width="5.0" stroke-linecap="round" stroke-linejoin="round" />
<path d="M 84.0 139.0 L 83.0 139.0 L 82.0 139.0 L 81.0 139.0 L 81.0 138.0 L 80.0 138.0 L 80.0 138.0 L 80.0 138.0 L 80.0 138.0 L 81.0 138.0 L 82.0 138.0 L 83.0 138.0 L 86.0 138.0 L 89.0 139.0 L 92.0 139.0 L 97.0 139.0 L 101.0 138.0 L 106.0 137.0 L 112.0 136.0 L 118.0 134.0 L 123.0 133.0 L 127.0 132.0 L 130.0 132.0 L 131.0 132.0 " stroke="black" fill="none" stroke-width="5.0" stroke-linecap="round" stroke-linejoin="round" />
<path d="M 108.0 96.0 L 108.0 96.0 L 108.0 97.0 L 107.0 98.0 L 107.0 99.0 L 107.0 100.0 L 107.0 101.0 L 107.0 103.0 L 107.0 106.0 L 107.0 109.0 L 106.0 112.0 L 106.0 117.0 L 106.0 123.0 L 106.0 130.0 L 106.0 138.0 L 105.0 149.0 L 104.0 157.0 L 104.0 164.0 L 104.0 169.0 L 104.0 172.0 L 103.0 174.0 L 103.0 174.0 " stroke="black" fill="none" stroke-width="5.0" stroke-linecap="round" stroke-linejoin="round" />
<path d="M 80.0 172.0 L 80.0 172.0 L 79.0 172.0 L 79.0 172.0 L 78.0 172.0 L 78.0 172.0 L 77.0 172.0 L 77.0 172.0 L 76.0 172.0 L 76.0 172.0 L 76.0 172.0 L 76.0 172.0 L 76.0 172.0 L 77.0 172.0 L 78.0 172.0 L 79.0 172.0 L 81.0 172.0 L 83.0 172.0 L 85.0 172.0 L 88.0 172.0 L 91.0 172.0 L 94.0 172.0 L 98.0 171.0 L 101.0 171.0 L 104.0 171.0 L 106.0 170.0 L 109.0 170.0 L 111.0 170.0 L 113.0 170.0 L 115.0 170.0 L 116.0 170.0 L 118.0 170.0 L 120.0 170.0 L 122.0 169.0 L 124.0 169.0 L 126.0 169.0 L 127.0 169.0 L 129.0 169.0 L 130.0 169.0 L 132.0 169.0 L 133.0 169.0 L 135.0 169.0 L 136.0 169.0 L 137.0 169.0 L 138.0 169.0 L 139.0 169.0 L 140.0 169.0 L 140.0 169.0 L 141.0 170.0 L 141.0 170.0 L 141.0 170.0 L 142.0 171.0 L 142.0 171.0 L 142.0 171.0 L 142.0 172.0 L 142.0 172.0 L 142.0 172.0 L 142.0 172.0 L 142.0 173.0 L 141.0 173.0 L 141.0 174.0 L 141.0 175.0 L 140.0 175.0 L 140.0 176.0 L 139.0 178.0 L 139.0 179.0 L 139.0 181.0 L 138.0 183.0 L 138.0 185.0 L 137.0 188.0 L 137.0 190.0 L 136.0 193.0 L 136.0 196.0 L 135.0 199.0 L 135.0 202.0 L 135.0 205.0 L 134.0 208.0 L 133.0 212.0 L 133.0 215.0 L 132.0 218.0 L 132.0 221.0 L 131.0 224.0 L 131.0 227.0 L 130.0 229.0 L 130.0 231.0 L 130.0 232.0 L 130.0 232.0 L 130.0 233.0 L 129.0 234.0 L 129.0 235.0 L 129.0 236.0 L 128.0 237.0 L 128.0 239.0 L 127.0 241.0 L 127.0 242.0 L 126.0 244.0 L 126.0 245.0 L 125.0 247.0 L 125.0 248.0 L 124.0 249.0 L 124.0 250.0 L 123.0 251.0 L 123.0 252.0 L 122.0 253.0 L 121.0 254.0 L 121.0 254.0 L 120.0 255.0 L 119.0 255.0 L 118.0 256.0 L 117.0 256.0 L 116.0 256.0 L 114.0 256.0 L 113.0 255.0 L 111.0 254.0 L 109.0 252.0 L 107.0 250.0 " stroke="black" fill="none" stroke-width="5.0" stroke-linecap="round" stroke-linejoin="round" />
<path d="M 67.0 193.0 L 67.0 193.0 L 67.0 193.0 L 67.0 193.0 L 67.0 193.0 L 66.0 194.0 L 66.0 195.0 L 66.0 198.0 L 66.0 201.0 L 65.0 206.0 L 65.0 211.0 L 65.0 219.0 L 64.0 226.0 L 64.0 232.0 L 64.0 237.0 L 64.0 239.0 " stroke="black" fill="none" stroke-width="5.0" stroke-linecap="round" stroke-linejoin="round" />
<path d="M 83.0 195.0 L 83.0 195.0 L 83.0 195.0 L 83.0 194.0 L 83.0 194.0 L 83.0 194.0 L 84.0 194.0 L 84.0 194.0 L 84.0 194.0 L 84.0 196.0 L 84.0 198.0 L 84.0 202.0 L 84.0 206.0 L 84.0 212.0 L 84.0 218.0 L 84.0 225.0 L 84.0 231.0 L 84.0 236.0 L 83.0 239.0 " stroke="black" fill="none" stroke-width="5.0" stroke-linecap="round" stroke-linejoin="round" />
<path d="M 97.0 195.0 L 97.0 195.0 L 97.0 195.0 L 97.0 194.0 L 97.0 194.0 L 97.0 193.0 L 97.0 193.0 L 97.0 193.0 L 98.0 195.0 L 98.0 197.0 L 98.0 200.0 L 98.0 203.0 L 99.0 207.0 L 100.0 213.0 L 100.0 219.0 L 101.0 226.0 L 101.0 231.0 " stroke="black" fill="none" stroke-width="5.0" stroke-linecap="round" stroke-linejoin="round" />
<path d="M 105.0 194.0 L 105.0 194.0 L 105.0 194.0 L 105.0 194.0 L 105.0 194.0 L 105.0 194.0 L 105.0 194.0 L 105.0 195.0 L 106.0 196.0 L 107.0 198.0 L 109.0 201.0 L 110.0 205.0 L 112.0 209.0 L 114.0 214.0 L 115.0 219.0 L 116.0 223.0 L 116.0 225.0 " stroke="black" fill="none" stroke-width="5.0" stroke-linecap="round" stroke-linejoin="round" />
<path d="M 188.0 75.0 L 188.0 74.0 L 188.0 74.0 L 188.0 74.0 L 188.0 73.0 L 188.0 73.0 L 188.0 73.0 L 188.0 74.0 L 189.0 75.0 L 189.0 77.0 L 191.0 79.0 L 192.0 81.0 L 193.0 84.0 L 194.0 86.0 L 195.0 89.0 L 196.0 92.0 L 196.0 95.0 " stroke="black" fill="none" stroke-width="5.0" stroke-linecap="round" stroke-linejoin="round" />
<path d="M 153.0 104.0 L 153.0 104.0 L 152.0 104.0 L 152.0 104.0 L 151.0 104.0 L 151.0 104.0 L 151.0 104.0 L 150.0 104.0 L 150.0 104.0 L 150.0 104.0 L 151.0 104.0 L 152.0 104.0 L 153.0 104.0 L 156.0 104.0 L 158.0 105.0 L 162.0 105.0 L 167.0 105.0 L 172.0 105.0 L 178.0 105.0 L 184.0 105.0 L 190.0 105.0 L 194.0 104.0 L 199.0 104.0 L 203.0 104.0 L 207.0 104.0 L 211.0 104.0 L 215.0 104.0 L 219.0 104.0 L 223.0 104.0 L 225.0 104.0 L 227.0 104.0 L 229.0 104.0 L 230.0 104.0 L 231.0 104.0 L 231.0 104.0 L 232.0 104.0 " stroke="black" fill="none" stroke-width="5.0" stroke-linecap="round" stroke-linejoin="round" />
<path d="M 191.0 108.0 L 191.0 108.0 L 191.0 108.0 L 191.0 109.0 L 190.0 110.0 L 189.0 111.0 L 189.0 112.0 L 188.0 113.0 L 188.0 115.0 L 187.0 117.0 L 185.0 119.0 L 184.0 123.0 L 182.0 127.0 L 179.0 131.0 L 177.0 136.0 L 173.0 141.0 L 170.0 145.0 L 166.0 149.0 L 163.0 152.0 L 161.0 154.0 L 159.0 154.0 L 158.0 154.0 L 158.0 154.0 L 158.0 154.0 L 158.0 154.0 L 158.0 153.0 L 158.0 153.0 L 158.0 153.0 L 158.0 153.0 L 158.0 153.0 L 159.0 153.0 L 160.0 153.0 L 161.0 153.0 L 163.0 153.0 L 166.0 153.0 L 170.0 153.0 L 175.0 152.0 L 180.0 152.0 L 185.0 151.0 L 191.0 150.0 L 194.0 149.0 L 198.0 148.0 L 201.0 148.0 L 203.0 148.0 L 204.0 148.0 L 205.0 148.0 L 205.0 148.0 " stroke="black" fill="none" stroke-width="5.0" stroke-linecap="round" stroke-linejoin="round" />
<path d="M 218.0 124.0 L 218.0 124.0 L 218.0 124.0 L 218.0 124.0 L 218.0 124.0 L 218.0 124.0 L 218.0 124.0 L 218.0 124.0 L 218.0 124.0 L 218.0 125.0 L 218.0 127.0 L 217.0 128.0 L 216.0 131.0 L 215.0 134.0 L 213.0 137.0 L 211.0 141.0 L 209.0 146.0 L 206.0 150.0 L 204.0 154.0 L 200.0 159.0 L 198.0 162.0 L 196.0 166.0 L 193.0 169.0 L 191.0 172.0 L 189.0 175.0 L 186.0 179.0 L 183.0 182.0 L 179.0 186.0 L 175.0 190.0 L 170.0 193.0 L 165.0 196.0 L 160.0 199.0 L 157.0 201.0 L 154.0 203.0 L 152.0 204.0 L 151.0 205.0 L 150.0 205.0 " stroke="black" fill="none" stroke-width="5.0" stroke-linecap="round" stroke-linejoin="round" />
<path d="M 234.0 168.0 L 234.0 168.0 L 233.0 168.0 L 233.0 169.0 L 232.0 170.0 L 232.0 170.0 L 231.0 171.0 L 230.0 172.0 L 230.0 173.0 L 229.0 174.0 L 228.0 175.0 L 227.0 177.0 L 225.0 178.0 L 223.0 180.0 L 221.0 184.0 L 218.0 187.0 L 215.0 190.0 L 211.0 194.0 L 207.0 198.0 L 204.0 201.0 L 201.0 204.0 L 199.0 207.0 L 197.0 209.0 L 195.0 212.0 L 193.0 214.0 L 192.0 216.0 L 190.0 219.0 L 188.0 221.0 L 186.0 224.0 L 183.0 227.0 L 180.0 230.0 L 178.0 232.0 L 175.0 235.0 L 172.0 236.0 L 169.0 238.0 L 165.0 240.0 L 162.0 241.0 L 159.0 241.0 L 156.0 242.0 L 154.0 243.0 L 153.0 243.0 L 151.0 243.0 " stroke="black" fill="none" stroke-width="5.0" stroke-linecap="round" stroke-linejoin="round" />
<path d="M 205.0 204.0 L 205.0 204.0 L 205.0 204.0 L 204.0 204.0 L 204.0 204.0 L 204.0 204.0 L 203.0 205.0 L 203.0 205.0 L 203.0 206.0 L 204.0 207.0 L 205.0 208.0 L 206.0 210.0 L 208.0 213.0 L 211.0 216.0 L 214.0 219.0 L 217.0 223.0 L 221.0 228.0 L 225.0 233.0 L 229.0 238.0 L 232.0 242.0 L 235.0 246.0 L 238.0 248.0 L 240.0 250.0 L 242.0 251.0 L 243.0 252.0 L 245.0 252.0 L 246.0 252.0 L 247.0 253.0 L 248.0 253.0 L 248.0 253.0 L 248.0 253.0 " stroke="black" fill="none" stroke-width="5.0" stroke-linecap="round" stroke-linejoin="round" />
</svg>