<svg xmlns="http://www.w3.org/2000/svg" width="300" height="300" viewBox="0 0 300 300">
<path d="M 69.0 117.0 L 69.0 117.0 L 68.0 116.0 L 67.0 116.0 L 67.0 116.0 L 66.0 116.0 L 66.0 116.0 L 66.0 118.0 L 66.0 121.0 L 66.0 126.0 L 66.0 133.0 L 67.0 141.0 L 67.0 151.0 L 67.0 160.0 L 67.0 165.0 " stroke="black" fill="none" stroke-width="5.0" stroke-linecap="round" stroke-linejoin="round" />
<path d="M 97.0 73.0 L 97.0 73.0 L 96.0 73.0 L 95.0 73.0 L 95.0 73.0 L 94.0 73.0 L 94.0 75.0 L 94.0 77.0 L 94.0 81.0 L 94.0 87.0 L 94.0 95.0 L 94.0 104.0 L 94.0 113.0 L 94.0 122.0 L 94.0 132.0 L 94.0 143.0 L 94.0 156.0 L 94.0 170.0 L 94.0 186.0 L 94.0 202.0 L 93.0 217.0 L 92.0 231.0 L 91.0 242.0 L 90.0 250.0 L 90.0 255.0 L 90.0 257.0 " stroke="black" fill="none" stroke-width="5.0" stroke-linecap="round" stroke-linejoin="round" />
<path d="M 109.0 107.0 L 109.0 107.0 L 109.0 107.0 L 108.0 107.0 L 108.0 108.0 L 108.0 110.0 L 109.0 113.0 L 111.0 117.0 L 114.0 121.0 L 117.0 125.0 L 118.0 127.0 " stroke="black" fill="none" stroke-width="5.0" stroke-linecap="round" stroke-linejoin="round" />
<path d="M 141.0 86.0 L 141.0 86.0 L 141.0 86.0 L 141.0 86.0 L 141.0 86.0 L 141.0 86.0 L 141.0 86.0 L 142.0 86.0 L 143.0 86.0 L 146.0 86.0 L 149.0 85.0 L 154.0 85.0 L 162.0 85.0 L 172.0 85.0 L 183.0 85.0 L 192.0 85.0 L 199.0 85.0 L 206.0 85.0 L 211.0 85.0 L 216.0 85.0 L 221.0 85.0 L 222.0 85.0 " stroke="black" fill="none" stroke-width="5.0" stroke-linecap="round" stroke-linejoin="round" />
<path d="M 146.0 115.0 L 146.0 115.0 L 145.0 115.0 L 144.0 115.0 L 143.0 115.0 L 143.0 115.0 L 143.0 115.0 L 144.0 115.0 L 147.0 115.0 L 151.0 115.0 L 157.0 115.0 L 164.0 115.0 L 174.0 115.0 L 183.0 114.0 L 192.0 114.0 L 200.0 113.0 L 206.0 113.0 L 211.0 112.0 " stroke="black" fill="none" stroke-width="5.0" stroke-linecap="round" stroke-linejoin="round" />
<path d="M 187.0 71.0 L 187.0 71.0 L 187.0 71.0 L 187.0 71.0 L 187.0 71.0 L 187.0 72.0 L 187.0 74.0 L 187.0 78.0 L 187.0 84.0 L 187.0 92.0 L 187.0 102.0 L 185.0 112.0 L 183.0 121.0 L 181.0 127.0 L 179.0 133.0 L 177.0 136.0 " stroke="black" fill="none" stroke-width="5.0" stroke-linecap="round" stroke-linejoin="round" />
<path d="M 141.0 139.0 L 141.0 139.0 L 139.0 139.0 L 137.0 139.0 L 136.0 139.0 L 135.0 139.0 L 134.0 139.0 L 133.0 139.0 L 133.0 139.0 L 133.0 139.0 L 134.0 139.0 L 137.0 139.0 L 140.0 139.0 L 144.0 139.0 L 148.0 140.0 L 154.0 140.0 L 161.0 140.0 L 172.0 139.0 L 183.0 138.0 L 194.0 137.0 L 204.0 135.0 L 213.0 134.0 L 221.0 134.0 L 228.0 133.0 L 232.0 133.0 L 235.0 133.0 L 236.0 134.0 " stroke="black" fill="none" stroke-width="5.0" stroke-linecap="round" stroke-linejoin="round" />
<path d="M 145.0 166.0 L 145.0 166.0 L 145.0 166.0 L 145.0 166.0 L 145.0 166.0 L 145.0 166.0 L 145.0 166.0 L 145.0 166.0 L 145.0 168.0 L 145.0 172.0 L 144.0 177.0 L 144.0 183.0 L 143.0 191.0 L 142.0 200.0 L 139.0 210.0 L 136.0 220.0 L 132.0 230.0 L 127.0 239.0 L 123.0 245.0 L 121.0 247.0 " stroke="black" fill="none" stroke-width="5.0" stroke-linecap="round" stroke-linejoin="round" />
<path d="M 150.0 166.0 L 150.0 166.0 L 150.0 166.0 L 150.0 165.0 L 150.0 165.0 L 150.0 164.0 L 150.0 164.0 L 150.0 164.0 L 150.0 163.0 L 150.0 163.0 L 151.0 163.0 L 152.0 162.0 L 154.0 162.0 L 156.0 162.0 L 158.0 162.0 L 160.0 162.0 L 164.0 162.0 L 167.0 162.0 L 172.0 162.0 L 176.0 162.0 L 180.0 162.0 L 184.0 162.0 L 188.0 162.0 L 190.0 162.0 L 193.0 162.0 L 195.0 162.0 L 197.0 162.0 L 198.0 162.0 L 200.0 162.0 L 202.0 162.0 L 204.0 161.0 L 207.0 161.0 L 209.0 161.0 L 211.0 160.0 L 214.0 160.0 L 216.0 160.0 L 218.0 159.0 L 219.0 159.0 L 221.0 159.0 L 223.0 159.0 L 224.0 159.0 L 225.0 159.0 L 225.0 160.0 L 226.0 160.0 L 227.0 161.0 L 227.0 161.0 L 227.0 162.0 L 228.0 163.0 L 228.0 164.0 L 228.0 166.0 L 228.0 168.0 L 228.0 171.0 L 228.0 174.0 L 228.0 179.0 L 228.0 184.0 L 227.0 190.0 L 227.0 196.0 L 227.0 203.0 L 226.0 209.0 L 226.0 216.0 L 225.0 224.0 L 224.0 232.0 L 224.0 239.0 L 223.0 246.0 L 222.0 250.0 L 220.0 253.0 L 218.0 256.0 L 216.0 257.0 L 213.0 257.0 L 210.0 257.0 L 207.0 255.0 L 204.0 253.0 L 201.0 249.0 L 198.0 245.0 " stroke="black" fill="none" stroke-width="5.0" stroke-linecap="round" stroke-linejoin="round" />
<path d="M 151.0 190.0 L 151.0 190.0 L 150.0 190.0 L 149.0 190.0 L 149.0 190.0 L 149.0 190.0 L 149.0 190.0 L 152.0 190.0 L 157.0 190.0 L 164.0 189.0 L 172.0 189.0 L 182.0 188.0 L 191.0 187.0 L 198.0 185.0 L 203.0 185.0 L 209.0 184.0 L 213.0 184.0 L 216.0 184.0 L 217.0 184.0 " stroke="black" fill="none" stroke-width="5.0" stroke-linecap="round" stroke-linejoin="round" />
<path d="M 154.0 213.0 L 153.0 213.0 L 152.0 213.0 L 151.0 214.0 L 150.0 214.0 L 150.0 214.0 L 150.0 214.0 L 152.0 214.0 L 155.0 214.0 L 160.0 214.0 L 168.0 214.0 L 177.0 214.0 L 185.0 213.0 L 194.0 212.0 L 202.0 210.0 L 209.0 209.0 L 217.0 208.0 L 220.0 208.0 " stroke="black" fill="none" stroke-width="5.0" stroke-linecap="round" stroke-linejoin="round" />
</svg>