<svg xmlns="http://www.w3.org/2000/svg" width="300" height="300" viewBox="0 0 300 300">
<path d="M 113.0 74.0 L 113.0 74.0 L 114.0 74.0 L 114.0 73.0 L 114.0 73.0 L 114.0 73.0 L 114.0 73.0 L 114.0 73.0 L 114.0 72.0 L 114.0 72.0 L 114.0 72.0 L 114.0 72.0 L 114.0 72.0 L 114.0 72.0 L 114.0 73.0 L 114.0 73.0 L 114.0 75.0 L 114.0 76.0 L 114.0 77.0 L 113.0 80.0 L 112.0 82.0 L 110.0 85.0 L 108.0 89.0 L 106.0 94.0 L 104.0 99.0 L 101.0 104.0 L 97.0 109.0 L 93.0 113.0 L 88.0 118.0 L 82.0 122.0 L 76.0 126.0 L 70.0 129.0 L 65.0 132.0 L 62.0 134.0 L 60.0 135.0 L 60.0 136.0 " stroke="black" fill="none" stroke-width="5.0" stroke-linecap="round" stroke-linejoin="round" />
<path d="M 72.0 76.0 L 72.0 76.0 L 72.0 76.0 L 72.0 76.0 L 72.0 76.0 L 71.0 75.0 L 71.0 75.0 L 71.0 75.0 L 71.0 75.0 L 71.0 75.0 L 71.0 75.0 L 71.0 75.0 L 71.0 75.0 L 71.0 75.0 L 71.0 75.0 L 71.0 75.0 L 71.0 75.0 L 71.0 75.0 L 72.0 75.0 L 72.0 76.0 L 73.0 77.0 L 74.0 77.0 L 75.0 78.0 L 76.0 79.0 L 77.0 80.0 L 78.0 81.0 L 80.0 83.0 L 81.0 84.0 L 82.0 85.0 L 84.0 86.0 L 85.0 88.0 L 86.0 89.0 L 88.0 90.0 L 89.0 91.0 L 90.0 93.0 L 91.0 94.0 L 92.0 95.0 L 94.0 97.0 L 95.0 98.0 L 96.0 100.0 L 97.0 101.0 L 98.0 103.0 L 99.0 104.0 L 99.0 106.0 L 100.0 107.0 L 101.0 108.0 L 101.0 110.0 L 102.0 111.0 L 102.0 112.0 L 103.0 113.0 L 103.0 114.0 L 103.0 116.0 L 104.0 117.0 L 104.0 119.0 L 105.0 120.0 L 105.0 122.0 L 105.0 124.0 L 106.0 126.0 L 106.0 128.0 L 106.0 129.0 L 107.0 131.0 L 107.0 134.0 L 107.0 136.0 L 107.0 139.0 L 108.0 141.0 L 108.0 144.0 L 108.0 147.0 L 108.0 150.0 L 108.0 152.0 L 108.0 154.0 L 108.0 157.0 L 108.0 159.0 L 108.0 161.0 L 108.0 164.0 L 108.0 166.0 L 108.0 169.0 L 108.0 171.0 L 108.0 174.0 L 108.0 178.0 L 108.0 181.0 L 108.0 185.0 L 108.0 189.0 L 108.0 193.0 L 108.0 197.0 L 107.0 200.0 L 107.0 204.0 L 107.0 207.0 L 106.0 210.0 L 106.0 213.0 L 105.0 216.0 L 105.0 219.0 L 104.0 223.0 L 103.0 226.0 L 103.0 230.0 L 102.0 233.0 L 101.0 236.0 L 101.0 239.0 L 100.0 242.0 L 99.0 245.0 L 98.0 246.0 L 98.0 248.0 L 97.0 249.0 L 96.0 250.0 L 95.0 251.0 L 94.0 251.0 L 92.0 251.0 L 90.0 251.0 L 88.0 250.0 L 86.0 249.0 L 83.0 248.0 L 81.0 246.0 L 78.0 244.0 L 75.0 242.0 L 73.0 240.0 L 71.0 237.0 " stroke="black" fill="none" stroke-width="5.0" stroke-linecap="round" stroke-linejoin="round" />
<path d="M 105.0 134.0 L 105.0 133.0 L 105.0 132.0 L 106.0 131.0 L 106.0 130.0 L 107.0 129.0 L 107.0 128.0 L 108.0 128.0 L 108.0 128.0 L 108.0 128.0 L 108.0 130.0 L 108.0 133.0 L 108.0 138.0 L 107.0 143.0 L 104.0 149.0 L 102.0 155.0 L 98.0 162.0 L 93.0 169.0 L 86.0 176.0 L 80.0 182.0 L 73.0 188.0 L 68.0 192.0 L 64.0 195.0 " stroke="black" fill="none" stroke-width="5.0" stroke-linecap="round" stroke-linejoin="round" />
<path d="M 155.0 72.0 L 155.0 72.0 L 154.0 71.0 L 154.0 70.0 L 153.0 70.0 L 153.0 70.0 L 153.0 70.0 L 153.0 70.0 L 153.0 72.0 L 154.0 74.0 L 155.0 75.0 L 157.0 78.0 L 159.0 80.0 L 161.0 82.0 L 164.0 84.0 L 166.0 86.0 L 169.0 88.0 L 172.0 90.0 L 174.0 91.0 " stroke="black" fill="none" stroke-width="5.0" stroke-linecap="round" stroke-linejoin="round" />
<path d="M 208.0 73.0 L 208.0 73.0 L 208.0 73.0 L 208.0 73.0 L 208.0 73.0 L 208.0 73.0 L 208.0 73.0 L 207.0 73.0 L 206.0 74.0 L 204.0 76.0 L 202.0 79.0 L 200.0 82.0 L 197.0 86.0 L 194.0 90.0 L 191.0 94.0 L 189.0 98.0 L 187.0 102.0 " stroke="black" fill="none" stroke-width="5.0" stroke-linecap="round" stroke-linejoin="round" />
<path d="M 135.0 102.0 L 134.0 102.0 L 132.0 102.0 L 131.0 102.0 L 130.0 102.0 L 129.0 102.0 L 129.0 102.0 L 129.0 102.0 L 130.0 102.0 L 132.0 102.0 L 134.0 102.0 L 137.0 101.0 L 141.0 101.0 L 144.0 101.0 L 148.0 100.0 L 153.0 100.0 L 158.0 100.0 L 166.0 99.0 L 175.0 99.0 L 185.0 98.0 L 193.0 98.0 L 200.0 97.0 L 207.0 96.0 L 213.0 95.0 L 220.0 95.0 L 225.0 94.0 L 230.0 94.0 L 234.0 94.0 L 236.0 95.0 L 237.0 96.0 " stroke="black" fill="none" stroke-width="5.0" stroke-linecap="round" stroke-linejoin="round" />
<path d="M 137.0 135.0 L 137.0 135.0 L 137.0 135.0 L 137.0 135.0 L 137.0 135.0 L 137.0 135.0 L 137.0 135.0 L 137.0 135.0 L 137.0 136.0 L 137.0 138.0 L 138.0 141.0 L 138.0 144.0 L 139.0 150.0 L 139.0 156.0 L 139.0 164.0 L 139.0 174.0 L 139.0 185.0 L 139.0 196.0 L 138.0 205.0 L 138.0 213.0 L 137.0 220.0 L 136.0 226.0 L 135.0 231.0 L 135.0 235.0 L 134.0 238.0 L 134.0 241.0 L 133.0 243.0 L 133.0 244.0 L 133.0 245.0 " stroke="black" fill="none" stroke-width="5.0" stroke-linecap="round" stroke-linejoin="round" />
<path d="M 144.0 130.0 L 143.0 130.0 L 142.0 130.0 L 141.0 129.0 L 140.0 129.0 L 140.0 129.0 L 139.0 129.0 L 139.0 129.0 L 139.0 129.0 L 139.0 129.0 L 139.0 129.0 L 139.0 129.0 L 139.0 129.0 L 140.0 129.0 L 141.0 129.0 L 142.0 129.0 L 144.0 129.0 L 145.0 129.0 L 147.0 129.0 L 149.0 129.0 L 152.0 129.0 L 154.0 129.0 L 157.0 129.0 L 161.0 129.0 L 165.0 128.0 L 169.0 128.0 L 173.0 128.0 L 178.0 128.0 L 182.0 128.0 L 185.0 128.0 L 188.0 128.0 L 191.0 128.0 L 193.0 128.0 L 194.0 128.0 L 195.0 128.0 L 196.0 128.0 L 197.0 128.0 L 198.0 128.0 L 199.0 128.0 L 201.0 128.0 L 202.0 128.0 L 204.0 128.0 L 205.0 128.0 L 207.0 128.0 L 210.0 128.0 L 212.0 128.0 L 214.0 128.0 L 216.0 128.0 L 219.0 127.0 L 221.0 127.0 L 223.0 127.0 L 224.0 127.0 L 225.0 127.0 L 227.0 127.0 L 228.0 126.0 L 228.0 126.0 L 229.0 126.0 L 230.0 126.0 L 230.0 126.0 L 231.0 126.0 L 231.0 126.0 L 231.0 126.0 L 231.0 127.0 L 232.0 127.0 L 232.0 127.0 L 232.0 128.0 L 232.0 128.0 L 232.0 129.0 L 232.0 129.0 L 232.0 130.0 L 232.0 131.0 L 232.0 132.0 L 232.0 133.0 L 232.0 134.0 L 232.0 136.0 L 232.0 138.0 L 232.0 140.0 L 232.0 143.0 L 232.0 146.0 L 232.0 148.0 L 231.0 151.0 L 231.0 155.0 L 231.0 158.0 L 230.0 162.0 L 230.0 165.0 L 230.0 169.0 L 229.0 173.0 L 229.0 176.0 L 229.0 180.0 L 229.0 184.0 L 229.0 188.0 L 229.0 192.0 L 228.0 196.0 L 228.0 200.0 L 228.0 205.0 L 227.0 210.0 L 227.0 214.0 L 227.0 218.0 L 227.0 223.0 L 227.0 228.0 L 226.0 232.0 L 226.0 236.0 L 226.0 239.0 L 226.0 242.0 L 226.0 245.0 L 226.0 247.0 L 226.0 249.0 L 226.0 251.0 L 226.0 253.0 L 226.0 254.0 L 226.0 256.0 L 226.0 257.0 L 226.0 258.0 L 226.0 259.0 L 225.0 259.0 L 225.0 259.0 L 224.0 257.0 L 223.0 252.0 L 222.0 249.0 " stroke="black" fill="none" stroke-width="5.0" stroke-linecap="round" stroke-linejoin="round" />
<path d="M 167.0 106.0 L 167.0 106.0 L 168.0 106.0 L 169.0 106.0 L 169.0 106.0 L 170.0 106.0 L 171.0 107.0 L 171.0 109.0 L 171.0 111.0 L 172.0 115.0 L 172.0 119.0 L 172.0 123.0 L 172.0 129.0 L 171.0 134.0 L 170.0 140.0 L 169.0 147.0 L 167.0 154.0 L 165.0 160.0 L 162.0 167.0 L 160.0 172.0 L 157.0 177.0 L 155.0 182.0 L 153.0 184.0 L 152.0 186.0 L 151.0 187.0 " stroke="black" fill="none" stroke-width="5.0" stroke-linecap="round" stroke-linejoin="round" />
<path d="M 196.0 114.0 L 196.0 114.0 L 196.0 114.0 L 196.0 113.0 L 196.0 113.0 L 196.0 113.0 L 196.0 113.0 L 196.0 113.0 L 196.0 113.0 L 196.0 113.0 L 196.0 113.0 L 196.0 114.0 L 196.0 116.0 L 196.0 118.0 L 196.0 121.0 L 196.0 125.0 L 196.0 130.0 L 196.0 136.0 L 196.0 143.0 L 196.0 151.0 L 196.0 158.0 L 195.0 164.0 L 195.0 170.0 L 194.0 175.0 L 194.0 179.0 L 193.0 183.0 L 193.0 187.0 L 193.0 189.0 L 192.0 191.0 L 192.0 192.0 L 192.0 192.0 L 192.0 192.0 L 192.0 192.0 L 193.0 192.0 L 194.0 192.0 L 195.0 192.0 L 196.0 192.0 L 198.0 192.0 L 200.0 191.0 L 203.0 191.0 L 207.0 190.0 L 211.0 189.0 L 216.0 188.0 L 221.0 187.0 L 225.0 185.0 L 229.0 184.0 L 233.0 183.0 L 236.0 182.0 L 237.0 182.0 " stroke="black" fill="none" stroke-width="5.0" stroke-linecap="round" stroke-linejoin="round" />
<path d="M 156.0 206.0 L 156.0 206.0 L 155.0 206.0 L 154.0 206.0 L 154.0 206.0 L 153.0 206.0 L 153.0 206.0 L 154.0 205.0 L 157.0 205.0 L 160.0 205.0 L 166.0 204.0 L 173.0 203.0 L 180.0 203.0 L 187.0 202.0 L 194.0 201.0 L 200.0 201.0 L 205.0 201.0 L 210.0 201.0 L 215.0 201.0 " stroke="black" fill="none" stroke-width="5.0" stroke-linecap="round" stroke-linejoin="round" />
<path d="M 145.0 256.0 L 145.0 256.0 L 144.0 255.0 L 144.0 255.0 L 143.0 255.0 L 143.0 254.0 L 143.0 254.0 L 144.0 254.0 L 146.0 254.0 L 148.0 253.0 L 151.0 253.0 L 156.0 253.0 L 162.0 252.0 L 170.0 251.0 L 179.0 249.0 L 187.0 248.0 L 194.0 247.0 L 200.0 246.0 L 204.0 245.0 L 208.0 244.0 L 211.0 244.0 L 215.0 243.0 " stroke="black" fill="none" stroke-width="5.0" stroke-linecap="round" stroke-linejoin="round" />
</svg>