<svg xmlns="http://www.w3.org/2000/svg" width="300" height="300" viewBox="0 0 300 300">
<path d="M 146.0 134.0 L 146.0 134.0 L 145.0 134.0 L 145.0 134.0 L 144.0 134.0 L 144.0 134.0 L 143.0 134.0 L 143.0 134.0 L 142.0 134.0 L 141.0 134.0 L 141.0 135.0 L 141.0 135.0 L 140.0 135.0 L 139.0 136.0 L 139.0 137.0 L 138.0 138.0 L 137.0 139.0 L 137.0 140.0 L 136.0 142.0 L 135.0 143.0 L 134.0 145.0 L 133.0 147.0 L 132.0 148.0 L 131.0 150.0 L 130.0 151.0 L 130.0 153.0 L 129.0 154.0 L 128.0 155.0 L 128.0 156.0 L 127.0 158.0 L 127.0 159.0 L 127.0 160.0 L 127.0 162.0 L 127.0 163.0 L 127.0 164.0 L 127.0 165.0 L 128.0 166.0 L 128.0 167.0 L 129.0 169.0 L 130.0 170.0 L 131.0 170.0 L 132.0 172.0 L 133.0 173.0 L 134.0 174.0 L 135.0 175.0 L 136.0 176.0 L 137.0 177.0 L 138.0 178.0 L 139.0 179.0 L 140.0 180.0 L 141.0 180.0 L 142.0 181.0 L 143.0 181.0 L 144.0 182.0 L 145.0 182.0 L 147.0 182.0 L 148.0 182.0 L 149.0 182.0 L 151.0 182.0 L 152.0 181.0 L 153.0 181.0 L 155.0 180.0 L 156.0 179.0 L 158.0 179.0 L 159.0 178.0 L 161.0 177.0 L 162.0 177.0 L 164.0 176.0 L 166.0 175.0 L 167.0 173.0 L 168.0 172.0 L 170.0 170.0 L 171.0 169.0 L 172.0 167.0 L 173.0 165.0 L 173.0 163.0 L 173.0 161.0 L 174.0 159.0 L 174.0 156.0 L 174.0 154.0 L 174.0 152.0 L 174.0 150.0 L 174.0 147.0 L 174.0 145.0 L 174.0 144.0 L 174.0 142.0 L 173.0 140.0 L 172.0 139.0 L 171.0 137.0 L 170.0 136.0 L 169.0 135.0 L 167.0 134.0 L 166.0 133.0 L 164.0 132.0 L 162.0 132.0 L 160.0 131.0 L 157.0 131.0 L 155.0 131.0 L 152.0 131.0 L 150.0 131.0 L 149.0 131.0 L 147.0 131.0 L 145.0 132.0 L 144.0 133.0 L 143.0 134.0 L 142.0 134.0 L 142.0 135.0 L 141.0 136.0 L 141.0 137.0 " stroke="black" fill="none" stroke-width="5.0" stroke-linecap="round" stroke-linejoin="round" />
</svg>