<svg xmlns="http://www.w3.org/2000/svg" width="300" height="300" viewBox="0 0 300 300">
<path d="M 146.0 134.0 L 146.0 134.0 L 145.0 133.0 L 144.0 132.0 L 142.0 132.0 L 141.0 133.0 L 139.0 134.0 L 137.0 136.0 L 136.0 139.0 L 134.0 142.0 L 132.0 146.0 L 130.0 149.0 L 128.0 153.0 L 126.0 157.0 L 125.0 161.0 L 124.0 165.0 L 124.0 169.0 L 124.0 174.0 L 124.0 178.0 L 126.0 182.0 L 129.0 185.0 L 133.0 188.0 L 138.0 190.0 L 143.0 190.0 L 149.0 190.0 L 155.0 188.0 L 161.0 184.0 L 169.0 179.0 L 176.0 174.0 L 182.0 169.0 L 185.0 164.0 L 187.0 161.0 L 187.0 157.0 L 185.0 154.0 L 183.0 151.0 L 179.0 148.0 L 175.0 145.0 L 171.0 142.0 L 166.0 139.0 L 161.0 136.0 L 157.0 133.0 L 153.0 132.0 L 150.0 131.0 L 147.0 132.0 L 144.0 134.0 L 142.0 136.0 L 141.0 139.0 " stroke="black" fill="none" stroke-width="5.0" stroke-linecap="round" stroke-linejoin="round" />
</svg>