<svg xmlns="http://www.w3.org/2000/svg" width="300" height="300" viewBox="0 0 300 300">
<path d="M 143.0 140.0 L 143.0 140.0 L 142.0 140.0 L 142.0 139.0 L 141.0 139.0 L 141.0 139.0 L 140.0 138.0 L 139.0 138.0 L 139.0 138.0 L 138.0 138.0 L 137.0 138.0 L 137.0 138.0 L 136.0 139.0 L 135.0 141.0 L 134.0 143.0 L 132.0 146.0 L 131.0 149.0 L 130.0 152.0 L 129.0 156.0 L 128.0 160.0 L 127.0 163.0 L 127.0 167.0 L 128.0 170.0 L 129.0 173.0 L 131.0 176.0 L 133.0 179.0 L 135.0 182.0 L 138.0 184.0 L 141.0 186.0 L 144.0 187.0 L 147.0 188.0 L 150.0 188.0 L 152.0 188.0 L 155.0 186.0 L 157.0 184.0 L 160.0 182.0 L 163.0 179.0 L 165.0 176.0 L 168.0 173.0 L 170.0 169.0 L 172.0 166.0 L 174.0 162.0 L 176.0 158.0 L 178.0 154.0 L 179.0 151.0 L 179.0 147.0 L 180.0 144.0 L 180.0 142.0 L 180.0 140.0 L 179.0 138.0 L 177.0 137.0 L 174.0 135.0 L 170.0 134.0 L 166.0 133.0 L 162.0 132.0 L 158.0 132.0 L 154.0 131.0 L 151.0 131.0 L 147.0 131.0 L 144.0 131.0 L 141.0 131.0 L 138.0 133.0 L 135.0 134.0 L 133.0 136.0 L 133.0 137.0 " stroke="black" fill="none" stroke-width="5.0" stroke-linecap="round" stroke-linejoin="round" />
</svg>