<svg xmlns="http://www.w3.org/2000/svg" width="300" height="300" viewBox="0 0 300 300">
<path d="M 144.0 139.0 L 144.0 139.0 L 144.0 139.0 L 143.0 139.0 L 143.0 139.0 L 142.0 139.0 L 141.0 139.0 L 141.0 139.0 L 140.0 139.0 L 140.0 139.0 L 139.0 139.0 L 139.0 139.0 L 138.0 139.0 L 137.0 140.0 L 137.0 141.0 L 136.0 142.0 L 135.0 143.0 L 135.0 146.0 L 134.0 148.0 L 133.0 151.0 L 132.0 155.0 L 132.0 158.0 L 132.0 162.0 L 132.0 166.0 L 133.0 169.0 L 134.0 173.0 L 135.0 176.0 L 137.0 180.0 L 139.0 182.0 L 141.0 185.0 L 144.0 186.0 L 147.0 187.0 L 151.0 187.0 L 154.0 187.0 L 159.0 185.0 L 165.0 181.0 L 170.0 177.0 L 175.0 173.0 L 178.0 168.0 L 180.0 165.0 L 181.0 161.0 L 181.0 158.0 L 180.0 155.0 L 178.0 152.0 L 175.0 149.0 L 172.0 146.0 L 169.0 143.0 L 165.0 139.0 L 162.0 135.0 L 159.0 133.0 L 155.0 130.0 L 153.0 129.0 L 150.0 129.0 L 148.0 129.0 L 146.0 130.0 L 144.0 131.0 L 142.0 133.0 L 140.0 134.0 L 139.0 136.0 L 139.0 137.0 " stroke="black" fill="none" stroke-width="5.0" stroke-linecap="round" stroke-linejoin="round" />
</svg>