<svg xmlns="http://www.w3.org/2000/svg" width="300" height="300" viewBox="0 0 300 300">
<path d="M 139.0 138.0 L 139.0 138.0 L 139.0 138.0 L 139.0 138.0 L 139.0 138.0 L 138.0 138.0 L 138.0 138.0 L 138.0 138.0 L 138.0 138.0 L 137.0 138.0 L 137.0 138.0 L 137.0 138.0 L 137.0 138.0 L 136.0 138.0 L 136.0 138.0 L 136.0 138.0 L 135.0 138.0 L 135.0 138.0 L 135.0 138.0 L 134.0 138.0 L 134.0 138.0 L 134.0 139.0 L 133.0 139.0 L 133.0 139.0 L 133.0 140.0 L 132.0 141.0 L 132.0 141.0 L 131.0 141.0 L 131.0 142.0 L 131.0 143.0 L 130.0 143.0 L 130.0 143.0 L 129.0 144.0 L 129.0 144.0 L 129.0 145.0 L 128.0 145.0 L 128.0 146.0 L 128.0 146.0 L 127.0 147.0 L 127.0 147.0 L 127.0 148.0 L 126.0 148.0 L 126.0 149.0 L 126.0 150.0 L 125.0 150.0 L 125.0 151.0 L 125.0 151.0 L 125.0 152.0 L 124.0 152.0 L 124.0 153.0 L 124.0 153.0 L 124.0 154.0 L 123.0 154.0 L 123.0 155.0 L 123.0 155.0 L 123.0 156.0 L 123.0 156.0 L 122.0 157.0 L 122.0 157.0 L 122.0 158.0 L 122.0 159.0 L 122.0 159.0 L 122.0 160.0 L 122.0 161.0 L 122.0 161.0 L 122.0 162.0 L 122.0 162.0 L 122.0 163.0 L 122.0 164.0 L 122.0 164.0 L 122.0 165.0 L 122.0 165.0 L 122.0 166.0 L 122.0 167.0 L 122.0 167.0 L 122.0 168.0 L 122.0 168.0 L 123.0 169.0 L 123.0 170.0 L 123.0 171.0 L 124.0 171.0 L 124.0 172.0 L 124.0 172.0 L 125.0 173.0 L 125.0 173.0 L 126.0 174.0 L 126.0 174.0 L 127.0 175.0 L 127.0 175.0 L 128.0 175.0 L 129.0 176.0 L 130.0 176.0 L 130.0 176.0 L 131.0 177.0 L 132.0 177.0 L 133.0 177.0 L 134.0 178.0 L 135.0 178.0 L 135.0 178.0 L 136.0 179.0 L 137.0 179.0 L 137.0 179.0 L 138.0 180.0 L 139.0 180.0 L 139.0 180.0 L 140.0 181.0 L 140.0 181.0 L 141.0 181.0 L 142.0 181.0 L 142.0 181.0 L 143.0 182.0 L 143.0 182.0 L 144.0 182.0 L 144.0 182.0 L 145.0 182.0 L 145.0 182.0 L 146.0 182.0 L 146.0 182.0 L 147.0 182.0 L 147.0 183.0 L 148.0 183.0 L 148.0 183.0 L 149.0 183.0 L 149.0 183.0 L 150.0 184.0 L 150.0 184.0 L 151.0 184.0 L 151.0 184.0 L 151.0 184.0 L 152.0 184.0 L 152.0 184.0 L 153.0 184.0 L 153.0 184.0 L 153.0 184.0 L 154.0 184.0 L 154.0 184.0 L 155.0 184.0 L 155.0 184.0 L 155.0 184.0 L 156.0 184.0 L 156.0 184.0 L 157.0 184.0 L 157.0 184.0 L 158.0 184.0 L 158.0 183.0 L 159.0 183.0 L 159.0 183.0 L 160.0 183.0 L 160.0 182.0 L 161.0 182.0 L 161.0 182.0 L 162.0 181.0 L 162.0 181.0 L 163.0 180.0 L 163.0 180.0 L 164.0 180.0 L 164.0 179.0 L 165.0 179.0 L 165.0 178.0 L 166.0 178.0 L 166.0 177.0 L 166.0 177.0 L 167.0 176.0 L 167.0 176.0 L 168.0 175.0 L 168.0 175.0 L 169.0 174.0 L 169.0 174.0 L 169.0 173.0 L 170.0 173.0 L 170.0 173.0 L 171.0 172.0 L 171.0 171.0 L 171.0 171.0 L 171.0 171.0 L 172.0 170.0 L 172.0 170.0 L 173.0 169.0 L 173.0 169.0 L 173.0 168.0 L 173.0 168.0 L 174.0 167.0 L 174.0 166.0 L 174.0 166.0 L 174.0 166.0 L 174.0 165.0 L 174.0 164.0 L 174.0 164.0 L 175.0 164.0 L 175.0 163.0 L 175.0 163.0 L 175.0 162.0 L 175.0 162.0 L 175.0 161.0 L 175.0 161.0 L 175.0 160.0 L 175.0 160.0 L 175.0 159.0 L 175.0 159.0 L 175.0 158.0 L 175.0 158.0 L 175.0 157.0 L 175.0 157.0 L 175.0 157.0 L 176.0 156.0 L 176.0 155.0 L 176.0 155.0 L 176.0 154.0 L 176.0 154.0 L 176.0 154.0 L 176.0 153.0 L 176.0 152.0 L 176.0 152.0 L 176.0 151.0 L 176.0 151.0 L 176.0 150.0 L 176.0 150.0 L 175.0 149.0 L 175.0 149.0 L 175.0 148.0 L 175.0 148.0 L 174.0 147.0 L 174.0 147.0 L 173.0 146.0 L 173.0 146.0 L 173.0 145.0 L 172.0 145.0 L 171.0 144.0 L 171.0 144.0 L 170.0 144.0 L 170.0 143.0 L 169.0 143.0 L 168.0 143.0 L 168.0 142.0 L 167.0 142.0 L 167.0 142.0 L 166.0 141.0 L 165.0 141.0 L 165.0 141.0 L 164.0 140.0 L 164.0 140.0 L 163.0 140.0 L 163.0 140.0 L 162.0 139.0 L 162.0 139.0 L 161.0 139.0 L 161.0 139.0 L 160.0 139.0 L 160.0 139.0 L 160.0 139.0 L 159.0 139.0 L 159.0 139.0 L 159.0 139.0 L 158.0 139.0 L 158.0 139.0 L 157.0 139.0 L 157.0 139.0 L 156.0 139.0 L 156.0 139.0 L 155.0 138.0 L 155.0 138.0 L 154.0 138.0 L 154.0 138.0 L 153.0 138.0 L 153.0 138.0 L 153.0 138.0 L 152.0 138.0 L 152.0 138.0 L 151.0 138.0 L 151.0 138.0 L 151.0 138.0 L 150.0 138.0 L 150.0 137.0 L 150.0 137.0 L 149.0 137.0 L 149.0 137.0 L 149.0 137.0 L 148.0 137.0 L 148.0 137.0 L 148.0 137.0 L 147.0 137.0 L 147.0 137.0 L 147.0 137.0 L 147.0 137.0 L 146.0 137.0 L 146.0 137.0 L 146.0 137.0 L 146.0 137.0 L 146.0 137.0 L 145.0 137.0 L 145.0 137.0 L 145.0 137.0 L 145.0 137.0 L 144.0 137.0 L 144.0 138.0 L 144.0 138.0 L 143.0 138.0 L 143.0 138.0 L 143.0 138.0 L 142.0 138.0 L 141.0 139.0 L 141.0 139.0 L 140.0 139.0 L 140.0 139.0 L 139.0 139.0 L 138.0 139.0 L 137.0 139.0 L 137.0 139.0 L 136.0 139.0 L 135.0 139.0 L 134.0 140.0 L 133.0 140.0 L 132.0 140.0 L 131.0 140.0 L 130.0 140.0 L 129.0 141.0 L 128.0 141.0 L 127.0 142.0 " stroke="black" fill="none" stroke-width="5.0" stroke-linecap="round" stroke-linejoin="round" />
</svg>