<svg xmlns="http://www.w3.org/2000/svg" width="300" height="300" viewBox="0 0 300 300">
<path d="M 146.0 134.0 L 146.0 134.0 L 145.0 134.0 L 145.0 134.0 L 144.0 133.0 L 143.0 133.0 L 143.0 133.0 L 141.0 133.0 L 140.0 133.0 L 139.0 134.0 L 138.0 136.0 L 136.0 137.0 L 135.0 140.0 L 133.0 143.0 L 132.0 146.0 L 130.0 150.0 L 128.0 154.0 L 127.0 158.0 L 126.0 163.0 L 125.0 168.0 L 125.0 172.0 L 126.0 176.0 L 128.0 179.0 L 131.0 182.0 L 134.0 184.0 L 138.0 186.0 L 142.0 186.0 L 146.0 186.0 L 151.0 184.0 L 155.0 182.0 L 159.0 178.0 L 163.0 175.0 L 167.0 171.0 L 171.0 168.0 L 174.0 165.0 L 176.0 162.0 L 177.0 158.0 L 178.0 155.0 L 178.0 151.0 L 178.0 147.0 L 177.0 143.0 L 175.0 139.0 L 173.0 135.0 L 169.0 133.0 L 165.0 132.0 L 159.0 131.0 L 154.0 132.0 L 149.0 134.0 L 144.0 137.0 L 140.0 140.0 L 137.0 143.0 L 134.0 144.0 L 133.0 145.0 " stroke="black" fill="none" stroke-width="5.0" stroke-linecap="round" stroke-linejoin="round" />
</svg>