<svg xmlns="http://www.w3.org/2000/svg" width="300" height="300" viewBox="0 0 300 300">
<path d="M 144.0 137.0 L 144.0 136.0 L 144.0 135.0 L 144.0 134.0 L 143.0 134.0 L 143.0 133.0 L 143.0 133.0 L 142.0 133.0 L 142.0 133.0 L 141.0 133.0 L 141.0 134.0 L 140.0 134.0 L 140.0 135.0 L 139.0 137.0 L 138.0 138.0 L 137.0 140.0 L 135.0 142.0 L 134.0 145.0 L 133.0 147.0 L 132.0 150.0 L 131.0 153.0 L 130.0 157.0 L 129.0 160.0 L 129.0 164.0 L 128.0 168.0 L 128.0 171.0 L 130.0 175.0 L 131.0 179.0 L 133.0 182.0 L 136.0 185.0 L 139.0 187.0 L 142.0 189.0 L 145.0 190.0 L 148.0 191.0 L 152.0 191.0 L 155.0 191.0 L 159.0 189.0 L 163.0 187.0 L 168.0 183.0 L 172.0 178.0 L 176.0 173.0 L 178.0 168.0 L 180.0 163.0 L 180.0 159.0 L 180.0 155.0 L 178.0 151.0 L 175.0 147.0 L 172.0 144.0 L 169.0 141.0 L 166.0 139.0 L 163.0 136.0 L 159.0 134.0 L 156.0 133.0 L 153.0 132.0 L 150.0 132.0 L 147.0 132.0 L 141.0 135.0 L 139.0 138.0 L 136.0 140.0 L 134.0 143.0 L 132.0 146.0 L 132.0 148.0 " stroke="black" fill="none" stroke-width="5.0" stroke-linecap="round" stroke-linejoin="round" />
</svg>