<svg xmlns="http://www.w3.org/2000/svg" width="300" height="300" viewBox="0 0 300 300">
<path d="M 145.0 144.0 L 145.0 142.0 L 145.0 139.0 L 145.0 138.0 L 145.0 138.0 L 145.0 138.0 L 145.0 138.0 L 145.0 138.0 L 145.0 138.0 L 145.0 138.0 L 145.0 138.0 L 145.0 138.0 L 144.0 138.0 L 142.0 138.0 L 140.0 140.0 L 137.0 143.0 L 134.0 146.0 L 131.0 150.0 L 129.0 154.0 L 126.0 158.0 L 125.0 162.0 L 124.0 167.0 L 124.0 172.0 L 126.0 177.0 L 130.0 181.0 L 134.0 185.0 L 139.0 188.0 L 144.0 189.0 L 150.0 189.0 L 155.0 187.0 L 160.0 182.0 L 167.0 177.0 L 172.0 172.0 L 176.0 168.0 L 179.0 164.0 L 181.0 161.0 L 181.0 158.0 L 179.0 154.0 L 175.0 150.0 L 170.0 147.0 L 165.0 142.0 L 160.0 139.0 L 155.0 137.0 L 151.0 136.0 L 148.0 136.0 L 145.0 137.0 L 141.0 140.0 L 139.0 143.0 L 136.0 147.0 L 136.0 148.0 " stroke="black" fill="none" stroke-width="5.0" stroke-linecap="round" stroke-linejoin="round" />
</svg>