<svg xmlns="http://www.w3.org/2000/svg" width="300" height="300" viewBox="0 0 300 300">
<path d="M 146.0 140.0 L 146.0 140.0 L 145.0 140.0 L 143.0 140.0 L 142.0 140.0 L 140.0 140.0 L 139.0 142.0 L 137.0 145.0 L 135.0 149.0 L 134.0 154.0 L 133.0 158.0 L 133.0 163.0 L 133.0 169.0 L 135.0 173.0 L 138.0 176.0 L 142.0 179.0 L 147.0 180.0 L 152.0 180.0 L 158.0 179.0 L 164.0 176.0 L 171.0 172.0 L 177.0 168.0 L 180.0 164.0 L 181.0 161.0 L 181.0 157.0 L 180.0 154.0 L 177.0 151.0 L 172.0 148.0 L 167.0 146.0 L 162.0 143.0 L 157.0 141.0 L 153.0 139.0 L 149.0 138.0 L 144.0 138.0 L 140.0 139.0 L 135.0 142.0 L 129.0 146.0 L 125.0 150.0 " stroke="black" fill="none" stroke-width="5.0" stroke-linecap="round" stroke-linejoin="round" />
</svg>