<svg xmlns="http://www.w3.org/2000/svg" width="300" height="300" viewBox="0 0 300 300">
<path d="M 146.0 140.0 L 146.0 140.0 L 145.0 140.0 L 144.0 140.0 L 144.0 140.0 L 143.0 140.0 L 142.0 140.0 L 142.0 140.0 L 141.0 140.0 L 140.0 140.0 L 139.0 140.0 L 137.0 141.0 L 136.0 143.0 L 135.0 144.0 L 133.0 146.0 L 132.0 149.0 L 130.0 152.0 L 128.0 155.0 L 127.0 159.0 L 126.0 164.0 L 125.0 168.0 L 125.0 173.0 L 126.0 178.0 L 128.0 182.0 L 131.0 186.0 L 135.0 190.0 L 139.0 192.0 L 143.0 193.0 L 148.0 193.0 L 152.0 193.0 L 157.0 191.0 L 162.0 189.0 L 168.0 186.0 L 173.0 182.0 L 179.0 178.0 L 182.0 174.0 L 185.0 171.0 L 187.0 167.0 L 187.0 163.0 L 187.0 160.0 L 185.0 156.0 L 183.0 152.0 L 179.0 149.0 L 175.0 145.0 L 171.0 142.0 L 166.0 139.0 L 160.0 138.0 L 155.0 137.0 L 151.0 137.0 L 147.0 137.0 L 145.0 139.0 L 143.0 141.0 L 142.0 142.0 " stroke="black" fill="none" stroke-width="5.0" stroke-linecap="round" stroke-linejoin="round" />
</svg>