<svg xmlns="http://www.w3.org/2000/svg" width="300" height="300" viewBox="0 0 300 300">
<path d="M 145.0 142.0 L 145.0 142.0 L 144.0 142.0 L 143.0 141.0 L 142.0 141.0 L 142.0 141.0 L 141.0 141.0 L 141.0 141.0 L 140.0 141.0 L 140.0 141.0 L 139.0 141.0 L 139.0 141.0 L 138.0 142.0 L 138.0 144.0 L 137.0 146.0 L 136.0 149.0 L 134.0 152.0 L 133.0 157.0 L 132.0 162.0 L 131.0 167.0 L 131.0 171.0 L 131.0 175.0 L 132.0 178.0 L 133.0 181.0 L 135.0 183.0 L 138.0 185.0 L 141.0 186.0 L 144.0 187.0 L 148.0 187.0 L 151.0 187.0 L 155.0 186.0 L 159.0 183.0 L 164.0 180.0 L 168.0 176.0 L 171.0 172.0 L 173.0 168.0 L 175.0 164.0 L 175.0 160.0 L 175.0 157.0 L 173.0 153.0 L 170.0 149.0 L 168.0 146.0 L 165.0 142.0 L 161.0 139.0 L 158.0 137.0 L 154.0 135.0 L 151.0 135.0 L 148.0 135.0 L 145.0 137.0 L 143.0 139.0 L 141.0 142.0 L 139.0 145.0 L 138.0 146.0 " stroke="black" fill="none" stroke-width="5.0" stroke-linecap="round" stroke-linejoin="round" />
</svg>