<svg xmlns="http://www.w3.org/2000/svg" width="300" height="300" viewBox="0 0 300 300">
<path d="M 77.0 116.0 L 77.0 116.0 L 77.0 116.0 L 77.0 116.0 L 77.0 116.0 L 77.0 116.0 L 77.0 116.0 L 77.0 116.0 L 77.0 116.0 L 77.0 116.0 L 77.0 117.0 L 77.0 118.0 L 77.0 119.0 L 77.0 120.0 L 77.0 122.0 L 77.0 124.0 L 77.0 127.0 L 77.0 129.0 L 78.0 132.0 L 78.0 135.0 L 78.0 138.0 L 78.0 141.0 L 79.0 144.0 L 79.0 147.0 L 79.0 150.0 L 79.0 153.0 L 79.0 155.0 L 79.0 157.0 L 79.0 159.0 L 79.0 161.0 L 79.0 163.0 L 79.0 165.0 L 79.0 167.0 L 79.0 169.0 L 79.0 171.0 L 79.0 173.0 L 79.0 175.0 L 79.0 177.0 L 79.0 179.0 L 79.0 181.0 L 79.0 184.0 L 79.0 186.0 L 79.0 188.0 L 79.0 190.0 L 79.0 192.0 L 79.0 193.0 L 79.0 195.0 L 79.0 197.0 L 79.0 198.0 L 79.0 200.0 L 79.0 201.0 L 79.0 202.0 L 79.0 204.0 L 79.0 205.0 L 79.0 206.0 L 78.0 207.0 L 78.0 209.0 L 78.0 210.0 L 78.0 211.0 L 78.0 212.0 L 78.0 213.0 L 78.0 214.0 L 78.0 215.0 L 78.0 216.0 L 78.0 217.0 L 78.0 219.0 L 78.0 220.0 L 78.0 221.0 L 78.0 222.0 L 78.0 223.0 L 78.0 224.0 L 78.0 225.0 L 78.0 226.0 L 78.0 227.0 L 78.0 228.0 L 78.0 229.0 L 78.0 230.0 L 78.0 230.0 L 78.0 231.0 L 78.0 232.0 L 78.0 232.0 L 78.0 232.0 L 78.0 233.0 L 78.0 233.0 L 78.0 233.0 L 78.0 233.0 L 78.0 233.0 L 78.0 233.0 L 78.0 233.0 L 78.0 233.0 L 78.0 233.0 L 78.0 233.0 L 78.0 233.0 L 78.0 233.0 L 78.0 233.0 L 78.0 233.0 L 78.0 233.0 L 78.0 233.0 L 78.0 233.0 L 78.0 233.0 L 78.0 233.0 L 78.0 233.0 L 78.0 233.0 L 78.0 233.0 L 78.0 233.0 L 78.0 233.0 L 78.0 233.0 L 78.0 233.0 L 78.0 233.0 L 78.0 233.0 L 78.0 233.0 L 78.0 233.0 L 78.0 233.0 L 78.0 233.0 L 78.0 233.0 L 78.0 233.0 L 78.0 233.0 L 79.0 233.0 L 79.0 233.0 L 79.0 233.0 L 79.0 233.0 L 79.0 233.0 L 80.0 233.0 L 80.0 233.0 L 81.0 233.0 L 81.0 233.0 L 82.0 233.0 L 83.0 233.0 L 83.0 234.0 L 84.0 234.0 L 85.0 234.0 L 86.0 234.0 L 86.0 234.0 L 87.0 234.0 L 88.0 234.0 L 89.0 234.0 L 90.0 234.0 L 91.0 234.0 L 91.0 235.0 L 92.0 235.0 L 93.0 235.0 L 94.0 235.0 L 94.0 235.0 L 95.0 235.0 L 96.0 235.0 L 96.0 235.0 L 97.0 235.0 L 98.0 235.0 L 99.0 235.0 L 99.0 235.0 L 100.0 235.0 L 101.0 235.0 L 101.0 235.0 L 102.0 235.0 L 103.0 235.0 L 103.0 235.0 L 104.0 235.0 L 105.0 235.0 L 105.0 235.0 L 106.0 235.0 L 106.0 235.0 L 107.0 235.0 L 107.0 235.0 L 108.0 235.0 L 108.0 236.0 L 109.0 236.0 L 109.0 236.0 L 110.0 236.0 L 110.0 236.0 L 111.0 236.0 L 112.0 236.0 L 112.0 236.0 L 113.0 236.0 L 114.0 236.0 L 114.0 236.0 L 115.0 236.0 L 116.0 236.0 L 116.0 236.0 L 117.0 236.0 L 118.0 236.0 L 118.0 236.0 L 119.0 236.0 L 120.0 236.0 L 121.0 236.0 L 122.0 236.0 L 122.0 236.0 L 123.0 236.0 L 124.0 236.0 L 125.0 236.0 L 125.0 236.0 L 126.0 236.0 L 127.0 236.0 L 128.0 237.0 L 128.0 237.0 L 129.0 237.0 L 130.0 237.0 L 130.0 237.0 L 131.0 237.0 L 131.0 237.0 L 132.0 237.0 L 133.0 237.0 L 133.0 237.0 L 134.0 237.0 L 134.0 237.0 L 135.0 237.0 L 135.0 237.0 L 136.0 237.0 L 136.0 237.0 L 137.0 237.0 L 137.0 237.0 L 138.0 237.0 L 139.0 237.0 L 139.0 237.0 L 140.0 237.0 L 140.0 237.0 L 141.0 237.0 L 141.0 237.0 L 142.0 237.0 L 143.0 237.0 L 143.0 237.0 L 144.0 237.0 L 144.0 237.0 L 145.0 237.0 L 145.0 237.0 L 146.0 237.0 L 146.0 237.0 L 146.0 237.0 L 147.0 237.0 L 147.0 237.0 L 148.0 237.0 L 148.0 237.0 L 149.0 237.0 L 149.0 237.0 L 150.0 237.0 L 150.0 237.0 L 150.0 237.0 L 151.0 237.0 L 151.0 237.0 L 152.0 237.0 L 152.0 237.0 L 152.0 237.0 L 153.0 237.0 L 153.0 237.0 L 153.0 237.0 L 154.0 237.0 L 154.0 237.0 L 155.0 237.0 L 155.0 237.0 L 156.0 237.0 L 156.0 237.0 L 157.0 237.0 L 157.0 237.0 L 157.0 237.0 L 158.0 237.0 L 158.0 237.0 L 159.0 237.0 L 159.0 237.0 L 160.0 237.0 L 160.0 237.0 L 161.0 237.0 L 162.0 237.0 L 162.0 237.0 L 163.0 237.0 L 164.0 237.0 L 165.0 237.0 L 165.0 238.0 L 166.0 238.0 L 167.0 238.0 L 168.0 238.0 L 169.0 238.0 L 169.0 238.0 L 170.0 238.0 L 171.0 238.0 L 172.0 238.0 L 173.0 238.0 L 174.0 238.0 L 175.0 238.0 L 175.0 238.0 L 176.0 238.0 L 177.0 238.0 L 178.0 238.0 L 178.0 238.0 L 179.0 238.0 L 180.0 238.0 L 180.0 238.0 L 181.0 238.0 L 182.0 238.0 L 182.0 238.0 L 183.0 238.0 L 183.0 238.0 L 184.0 238.0 L 184.0 238.0 L 184.0 238.0 L 185.0 238.0 L 185.0 238.0 L 186.0 238.0 L 186.0 238.0 L 187.0 238.0 L 187.0 238.0 L 187.0 238.0 L 188.0 238.0 L 188.0 238.0 L 188.0 238.0 L 189.0 238.0 L 189.0 238.0 L 189.0 238.0 L 190.0 238.0 L 190.0 238.0 L 191.0 238.0 L 191.0 238.0 L 191.0 238.0 L 192.0 238.0 L 192.0 238.0 L 192.0 238.0 L 193.0 237.0 L 193.0 237.0 L 193.0 237.0 L 194.0 237.0 L 194.0 237.0 L 194.0 237.0 L 195.0 237.0 L 195.0 237.0 L 196.0 237.0 L 196.0 237.0 L 196.0 237.0 L 197.0 237.0 L 197.0 237.0 L 197.0 237.0 L 198.0 237.0 L 198.0 237.0 L 199.0 237.0 L 199.0 237.0 L 199.0 237.0 L 200.0 237.0 L 200.0 237.0 L 201.0 237.0 L 201.0 237.0 L 202.0 237.0 L 202.0 237.0 L 203.0 237.0 L 203.0 237.0 L 204.0 237.0 L 205.0 237.0 L 205.0 237.0 L 206.0 237.0 L 206.0 237.0 L 207.0 237.0 L 207.0 237.0 L 208.0 237.0 L 209.0 237.0 L 209.0 237.0 L 210.0 236.0 L 211.0 236.0 L 211.0 236.0 L 211.0 236.0 L 212.0 236.0 " stroke="black" fill="none" stroke-width="5.0" stroke-linecap="round" stroke-linejoin="round" />
<path d="M 148.0 73.0 L 148.0 73.0 L 148.0 74.0 L 148.0 74.0 L 148.0 75.0 L 148.0 75.0 L 148.0 76.0 L 148.0 77.0 L 148.0 78.0 L 148.0 79.0 L 148.0 80.0 L 148.0 81.0 L 148.0 83.0 L 148.0 85.0 L 148.0 87.0 L 148.0 90.0 L 148.0 93.0 L 147.0 96.0 L 147.0 100.0 L 147.0 103.0 L 147.0 106.0 L 147.0 109.0 L 147.0 112.0 L 146.0 115.0 L 146.0 117.0 L 146.0 120.0 L 146.0 122.0 L 146.0 124.0 L 146.0 127.0 L 146.0 129.0 L 146.0 131.0 L 146.0 133.0 L 146.0 135.0 L 146.0 137.0 L 146.0 140.0 L 146.0 142.0 L 146.0 144.0 L 146.0 147.0 L 146.0 149.0 L 146.0 150.0 L 146.0 152.0 L 146.0 154.0 L 146.0 155.0 L 146.0 157.0 L 146.0 158.0 L 146.0 160.0 L 146.0 162.0 L 145.0 164.0 L 145.0 165.0 L 145.0 167.0 L 145.0 168.0 L 145.0 170.0 L 145.0 172.0 L 145.0 173.0 L 145.0 174.0 L 145.0 176.0 L 145.0 177.0 L 145.0 179.0 L 145.0 180.0 L 145.0 182.0 L 145.0 184.0 L 145.0 185.0 L 146.0 187.0 L 146.0 188.0 L 146.0 190.0 L 146.0 191.0 L 146.0 193.0 L 146.0 194.0 L 146.0 195.0 L 146.0 197.0 L 146.0 198.0 L 146.0 199.0 L 146.0 201.0 L 146.0 202.0 L 146.0 203.0 L 146.0 204.0 L 146.0 206.0 L 146.0 207.0 L 146.0 208.0 L 146.0 209.0 L 146.0 211.0 L 146.0 212.0 L 146.0 213.0 L 146.0 214.0 L 146.0 216.0 L 146.0 217.0 L 146.0 219.0 L 146.0 220.0 L 146.0 221.0 L 146.0 223.0 L 146.0 224.0 L 146.0 225.0 L 146.0 227.0 L 146.0 228.0 L 146.0 229.0 L 146.0 230.0 L 146.0 231.0 L 146.0 232.0 L 146.0 232.0 L 146.0 232.0 " stroke="black" fill="none" stroke-width="5.0" stroke-linecap="round" stroke-linejoin="round" />
<path d="M 221.0 125.0 L 221.0 125.0 L 221.0 125.0 L 221.0 125.0 L 221.0 125.0 L 221.0 125.0 L 221.0 125.0 L 221.0 125.0 L 221.0 127.0 L 221.0 128.0 L 221.0 130.0 L 221.0 133.0 L 221.0 136.0 L 221.0 139.0 L 221.0 142.0 L 220.0 146.0 L 220.0 149.0 L 220.0 151.0 L 220.0 154.0 L 220.0 156.0 L 220.0 159.0 L 219.0 161.0 L 219.0 163.0 L 219.0 165.0 L 219.0 167.0 L 219.0 169.0 L 219.0 171.0 L 219.0 173.0 L 219.0 174.0 L 219.0 176.0 L 219.0 178.0 L 219.0 179.0 L 219.0 181.0 L 219.0 183.0 L 218.0 185.0 L 218.0 187.0 L 218.0 189.0 L 218.0 190.0 L 218.0 192.0 L 218.0 194.0 L 218.0 196.0 L 218.0 197.0 L 218.0 199.0 L 218.0 200.0 L 217.0 202.0 L 217.0 203.0 L 217.0 205.0 L 217.0 206.0 L 217.0 207.0 L 217.0 209.0 L 217.0 210.0 L 217.0 211.0 L 217.0 213.0 L 218.0 214.0 L 218.0 215.0 L 218.0 216.0 L 218.0 217.0 L 218.0 219.0 L 218.0 220.0 L 218.0 221.0 L 218.0 222.0 L 218.0 223.0 L 218.0 224.0 L 218.0 225.0 L 218.0 226.0 L 218.0 227.0 L 218.0 229.0 L 218.0 230.0 L 218.0 231.0 L 219.0 233.0 L 219.0 234.0 L 219.0 235.0 L 219.0 236.0 L 219.0 237.0 L 219.0 239.0 L 219.0 240.0 L 219.0 241.0 L 219.0 241.0 L 219.0 243.0 L 219.0 243.0 L 219.0 244.0 L 219.0 245.0 L 219.0 246.0 L 219.0 246.0 L 219.0 247.0 L 219.0 247.0 L 219.0 248.0 L 219.0 248.0 L 219.0 248.0 L 218.0 249.0 L 218.0 249.0 L 218.0 249.0 L 218.0 249.0 L 218.0 249.0 L 218.0 249.0 L 218.0 249.0 L 218.0 249.0 " stroke="black" fill="none" stroke-width="5.0" stroke-linecap="round" stroke-linejoin="round" />
</svg>