<svg xmlns="http://www.w3.org/2000/svg" width="300" height="300" viewBox="0 0 300 300">
<path d="M 66.0 116.0 L 65.0 116.0 L 64.0 116.0 L 64.0 115.0 L 63.0 115.0 L 63.0 115.0 L 62.0 114.0 L 62.0 114.0 L 62.0 114.0 L 62.0 114.0 L 63.0 114.0 L 65.0 114.0 L 68.0 114.0 L 73.0 113.0 L 79.0 113.0 L 87.0 112.0 L 96.0 111.0 L 104.0 111.0 L 111.0 110.0 L 116.0 110.0 L 119.0 110.0 L 122.0 111.0 L 122.0 112.0 " stroke="black" fill="none" stroke-width="5.0" stroke-linecap="round" stroke-linejoin="round" />
<path d="M 95.0 74.0 L 94.0 74.0 L 94.0 74.0 L 93.0 74.0 L 93.0 74.0 L 93.0 74.0 L 93.0 75.0 L 93.0 78.0 L 93.0 81.0 L 93.0 86.0 L 94.0 94.0 L 94.0 104.0 L 94.0 114.0 L 94.0 125.0 L 94.0 140.0 L 93.0 154.0 L 92.0 168.0 L 91.0 182.0 L 91.0 195.0 L 91.0 207.0 L 91.0 217.0 L 91.0 225.0 L 92.0 233.0 L 92.0 240.0 L 92.0 243.0 L 92.0 245.0 L 92.0 246.0 " stroke="black" fill="none" stroke-width="5.0" stroke-linecap="round" stroke-linejoin="round" />
<path d="M 89.0 129.0 L 89.0 128.0 L 89.0 127.0 L 89.0 126.0 L 89.0 125.0 L 89.0 125.0 L 89.0 125.0 L 89.0 125.0 L 88.0 127.0 L 88.0 129.0 L 87.0 134.0 L 85.0 139.0 L 83.0 146.0 L 81.0 153.0 L 76.0 161.0 L 72.0 170.0 L 67.0 181.0 L 62.0 191.0 L 59.0 199.0 L 57.0 203.0 L 55.0 205.0 L 55.0 205.0 L 55.0 204.0 " stroke="black" fill="none" stroke-width="5.0" stroke-linecap="round" stroke-linejoin="round" />
<path d="M 94.0 140.0 L 94.0 140.0 L 93.0 140.0 L 93.0 140.0 L 93.0 140.0 L 93.0 141.0 L 94.0 143.0 L 96.0 146.0 L 99.0 149.0 L 103.0 153.0 L 106.0 156.0 L 110.0 159.0 L 115.0 162.0 L 120.0 164.0 L 122.0 165.0 " stroke="black" fill="none" stroke-width="5.0" stroke-linecap="round" stroke-linejoin="round" />
<path d="M 154.0 80.0 L 154.0 80.0 L 154.0 79.0 L 153.0 79.0 L 153.0 78.0 L 153.0 78.0 L 153.0 78.0 L 153.0 78.0 L 153.0 78.0 L 153.0 78.0 L 154.0 80.0 L 155.0 83.0 L 156.0 86.0 L 157.0 90.0 L 158.0 96.0 L 159.0 102.0 L 160.0 109.0 L 161.0 118.0 L 162.0 127.0 L 162.0 136.0 L 162.0 148.0 L 162.0 158.0 L 161.0 167.0 L 160.0 178.0 L 158.0 188.0 L 155.0 198.0 L 153.0 207.0 L 150.0 214.0 L 148.0 221.0 L 144.0 228.0 L 141.0 234.0 L 136.0 239.0 L 130.0 243.0 L 128.0 244.0 " stroke="black" fill="none" stroke-width="5.0" stroke-linecap="round" stroke-linejoin="round" />
<path d="M 129.0 120.0 L 129.0 120.0 L 127.0 120.0 L 125.0 120.0 L 124.0 120.0 L 124.0 120.0 L 124.0 121.0 L 124.0 122.0 L 126.0 124.0 L 130.0 126.0 L 133.0 129.0 L 137.0 132.0 L 141.0 136.0 L 144.0 140.0 L 147.0 144.0 L 150.0 148.0 L 151.0 152.0 L 152.0 156.0 " stroke="black" fill="none" stroke-width="5.0" stroke-linecap="round" stroke-linejoin="round" />
<path d="M 125.0 192.0 L 124.0 192.0 L 121.0 192.0 L 119.0 192.0 L 119.0 192.0 L 119.0 192.0 L 119.0 192.0 L 121.0 192.0 L 124.0 191.0 L 129.0 189.0 L 136.0 186.0 L 143.0 181.0 L 150.0 176.0 L 158.0 170.0 L 167.0 163.0 " stroke="black" fill="none" stroke-width="5.0" stroke-linecap="round" stroke-linejoin="round" />
<path d="M 199.0 74.0 L 199.0 74.0 L 199.0 74.0 L 199.0 74.0 L 199.0 74.0 L 199.0 74.0 L 199.0 74.0 L 199.0 75.0 L 199.0 76.0 L 199.0 79.0 L 199.0 82.0 L 199.0 86.0 L 199.0 92.0 L 199.0 97.0 L 199.0 102.0 L 199.0 108.0 L 199.0 112.0 L 199.0 116.0 L 200.0 120.0 L 200.0 124.0 L 200.0 128.0 L 199.0 134.0 L 198.0 138.0 L 197.0 144.0 L 196.0 150.0 L 196.0 154.0 L 195.0 158.0 L 195.0 162.0 L 195.0 165.0 L 195.0 169.0 L 195.0 172.0 L 195.0 176.0 L 195.0 180.0 L 195.0 185.0 L 195.0 189.0 L 195.0 193.0 L 194.0 198.0 L 194.0 202.0 L 193.0 205.0 L 193.0 209.0 L 192.0 213.0 L 192.0 216.0 L 192.0 220.0 L 191.0 223.0 L 191.0 226.0 L 191.0 230.0 L 191.0 233.0 L 191.0 235.0 L 191.0 238.0 L 191.0 240.0 L 191.0 242.0 L 191.0 244.0 L 191.0 245.0 L 191.0 246.0 L 191.0 247.0 L 192.0 248.0 L 192.0 248.0 L 192.0 249.0 L 193.0 249.0 L 193.0 249.0 L 194.0 249.0 L 195.0 249.0 L 196.0 250.0 L 197.0 250.0 L 198.0 250.0 L 200.0 250.0 L 202.0 251.0 L 205.0 251.0 L 208.0 251.0 L 212.0 251.0 L 216.0 250.0 L 220.0 249.0 L 225.0 248.0 L 228.0 247.0 L 231.0 246.0 L 234.0 244.0 L 235.0 243.0 L 236.0 241.0 L 236.0 238.0 L 236.0 236.0 L 236.0 233.0 L 235.0 230.0 L 234.0 226.0 " stroke="black" fill="none" stroke-width="5.0" stroke-linecap="round" stroke-linejoin="round" />
<path d="M 244.0 100.0 L 243.0 99.0 L 243.0 98.0 L 242.0 97.0 L 241.0 97.0 L 241.0 97.0 L 240.0 98.0 L 239.0 100.0 L 238.0 104.0 L 236.0 109.0 L 234.0 115.0 L 231.0 122.0 L 227.0 129.0 L 223.0 137.0 L 218.0 144.0 L 212.0 150.0 L 208.0 154.0 L 205.0 156.0 L 202.0 157.0 L 201.0 158.0 L 201.0 158.0 L 201.0 157.0 L 201.0 155.0 L 202.0 154.0 L 203.0 152.0 L 204.0 152.0 L 204.0 151.0 L 205.0 151.0 L 205.0 151.0 L 205.0 151.0 L 205.0 152.0 L 206.0 153.0 L 207.0 155.0 L 209.0 156.0 L 211.0 159.0 L 214.0 161.0 L 219.0 165.0 L 223.0 168.0 L 228.0 172.0 L 233.0 176.0 L 236.0 180.0 L 239.0 184.0 L 241.0 187.0 L 243.0 190.0 L 244.0 193.0 L 244.0 195.0 L 245.0 197.0 L 245.0 198.0 L 245.0 198.0 " stroke="black" fill="none" stroke-width="5.0" stroke-linecap="round" stroke-linejoin="round" />
</svg>