<svg xmlns="http://www.w3.org/2000/svg" width="300" height="300" viewBox="0 0 300 300">
<path d="M 70.0 83.0 L 70.0 83.0 L 70.0 83.0 L 69.0 83.0 L 69.0 83.0 L 69.0 83.0 L 68.0 83.0 L 68.0 83.0 L 68.0 83.0 L 68.0 84.0 L 68.0 85.0 L 68.0 87.0 L 69.0 90.0 L 69.0 94.0 L 69.0 98.0 L 69.0 103.0 L 69.0 109.0 L 70.0 114.0 L 70.0 120.0 L 70.0 127.0 L 70.0 134.0 L 70.0 141.0 L 70.0 148.0 L 70.0 155.0 L 70.0 162.0 L 71.0 169.0 L 71.0 176.0 L 71.0 184.0 L 72.0 191.0 L 72.0 198.0 L 72.0 205.0 L 72.0 211.0 L 72.0 217.0 L 72.0 222.0 L 71.0 228.0 L 71.0 232.0 L 71.0 235.0 L 70.0 237.0 L 70.0 237.0 L 70.0 237.0 " stroke="black" fill="none" stroke-width="5.0" stroke-linecap="round" stroke-linejoin="round" />
<path d="M 77.0 82.0 L 77.0 82.0 L 77.0 82.0 L 76.0 82.0 L 76.0 82.0 L 76.0 82.0 L 75.0 82.0 L 75.0 82.0 L 75.0 82.0 L 75.0 82.0 L 75.0 82.0 L 75.0 81.0 L 76.0 81.0 L 76.0 81.0 L 77.0 81.0 L 78.0 81.0 L 80.0 81.0 L 82.0 81.0 L 83.0 81.0 L 85.0 81.0 L 87.0 81.0 L 89.0 81.0 L 91.0 81.0 L 93.0 81.0 L 95.0 81.0 L 97.0 81.0 L 98.0 82.0 L 100.0 82.0 L 102.0 82.0 L 103.0 82.0 L 105.0 82.0 L 106.0 82.0 L 107.0 82.0 L 108.0 82.0 L 109.0 82.0 L 110.0 82.0 L 111.0 82.0 L 112.0 82.0 L 114.0 82.0 L 115.0 82.0 L 116.0 82.0 L 117.0 82.0 L 119.0 82.0 L 120.0 82.0 L 122.0 83.0 L 123.0 83.0 L 125.0 83.0 L 127.0 83.0 L 128.0 83.0 L 130.0 83.0 L 132.0 83.0 L 133.0 83.0 L 135.0 83.0 L 136.0 83.0 L 138.0 83.0 L 139.0 83.0 L 141.0 83.0 L 142.0 83.0 L 143.0 83.0 L 144.0 83.0 L 146.0 83.0 L 147.0 82.0 L 148.0 82.0 L 149.0 82.0 L 150.0 82.0 L 150.0 82.0 L 151.0 82.0 L 152.0 82.0 L 153.0 82.0 L 153.0 82.0 L 154.0 82.0 L 155.0 82.0 L 156.0 82.0 L 157.0 82.0 L 158.0 82.0 L 159.0 82.0 L 160.0 82.0 L 161.0 82.0 L 163.0 82.0 L 164.0 82.0 L 165.0 82.0 L 166.0 82.0 L 168.0 82.0 L 169.0 82.0 L 170.0 82.0 L 172.0 82.0 L 173.0 82.0 L 175.0 82.0 L 176.0 82.0 L 177.0 82.0 L 179.0 82.0 L 180.0 82.0 L 181.0 82.0 L 183.0 82.0 L 184.0 82.0 L 185.0 82.0 L 186.0 82.0 L 187.0 82.0 L 188.0 82.0 L 189.0 82.0 L 190.0 82.0 L 191.0 82.0 L 192.0 82.0 L 193.0 82.0 L 194.0 82.0 L 195.0 82.0 L 195.0 82.0 L 196.0 82.0 L 197.0 82.0 L 197.0 82.0 L 198.0 82.0 L 199.0 82.0 L 199.0 82.0 L 200.0 82.0 L 201.0 82.0 L 201.0 82.0 L 202.0 82.0 L 203.0 82.0 L 203.0 82.0 L 204.0 82.0 L 205.0 82.0 L 205.0 82.0 L 206.0 82.0 L 207.0 82.0 L 208.0 82.0 L 208.0 82.0 L 209.0 82.0 L 210.0 82.0 L 210.0 82.0 L 211.0 82.0 L 212.0 82.0 L 212.0 82.0 L 213.0 82.0 L 214.0 82.0 L 214.0 82.0 L 215.0 82.0 L 216.0 82.0 L 216.0 82.0 L 217.0 82.0 L 218.0 83.0 L 219.0 83.0 L 219.0 83.0 L 220.0 83.0 L 221.0 83.0 L 221.0 83.0 L 222.0 83.0 L 223.0 83.0 L 223.0 83.0 L 224.0 84.0 L 225.0 84.0 L 225.0 84.0 L 226.0 84.0 L 226.0 84.0 L 227.0 84.0 L 228.0 84.0 L 228.0 84.0 L 229.0 84.0 L 229.0 84.0 L 229.0 84.0 L 230.0 85.0 L 230.0 85.0 L 230.0 85.0 L 230.0 86.0 L 230.0 87.0 L 230.0 88.0 L 230.0 89.0 L 230.0 91.0 L 230.0 93.0 L 230.0 96.0 L 230.0 99.0 L 230.0 102.0 L 230.0 105.0 L 229.0 108.0 L 229.0 112.0 L 229.0 115.0 L 228.0 118.0 L 228.0 121.0 L 228.0 124.0 L 228.0 127.0 L 227.0 129.0 L 227.0 132.0 L 227.0 134.0 L 227.0 137.0 L 227.0 139.0 L 227.0 142.0 L 227.0 145.0 L 227.0 148.0 L 227.0 150.0 L 227.0 153.0 L 227.0 156.0 L 227.0 159.0 L 227.0 161.0 L 227.0 164.0 L 227.0 167.0 L 227.0 170.0 L 227.0 173.0 L 227.0 175.0 L 227.0 178.0 L 227.0 181.0 L 226.0 184.0 L 226.0 186.0 L 226.0 189.0 L 226.0 192.0 L 226.0 194.0 L 226.0 196.0 L 226.0 199.0 L 226.0 201.0 L 226.0 203.0 L 226.0 206.0 L 226.0 208.0 L 226.0 210.0 L 226.0 212.0 L 226.0 214.0 L 226.0 216.0 L 226.0 219.0 L 226.0 221.0 L 226.0 224.0 L 226.0 226.0 L 226.0 229.0 L 226.0 231.0 L 226.0 233.0 L 226.0 235.0 L 226.0 237.0 L 226.0 239.0 L 226.0 240.0 L 226.0 241.0 L 226.0 242.0 L 226.0 243.0 L 226.0 244.0 L 226.0 244.0 L 226.0 245.0 L 226.0 245.0 " stroke="black" fill="none" stroke-width="5.0" stroke-linecap="round" stroke-linejoin="round" />
<path d="M 120.0 130.0 L 120.0 130.0 L 120.0 130.0 L 120.0 130.0 L 120.0 130.0 L 120.0 130.0 L 120.0 131.0 L 120.0 133.0 L 120.0 137.0 L 120.0 143.0 L 120.0 149.0 L 121.0 156.0 L 121.0 162.0 L 121.0 168.0 L 122.0 173.0 L 122.0 175.0 L 123.0 177.0 L 124.0 177.0 L 125.0 177.0 L 125.0 175.0 L 126.0 174.0 " stroke="black" fill="none" stroke-width="5.0" stroke-linecap="round" stroke-linejoin="round" />
<path d="M 122.0 132.0 L 121.0 132.0 L 121.0 132.0 L 120.0 132.0 L 119.0 131.0 L 119.0 131.0 L 119.0 131.0 L 119.0 131.0 L 119.0 131.0 L 119.0 130.0 L 120.0 130.0 L 121.0 130.0 L 123.0 130.0 L 125.0 130.0 L 128.0 130.0 L 131.0 130.0 L 135.0 130.0 L 139.0 130.0 L 144.0 130.0 L 149.0 130.0 L 153.0 130.0 L 158.0 130.0 L 163.0 130.0 L 167.0 130.0 L 172.0 130.0 L 176.0 130.0 L 180.0 129.0 L 182.0 129.0 L 184.0 129.0 L 185.0 129.0 L 186.0 129.0 L 186.0 130.0 L 186.0 131.0 L 186.0 132.0 L 186.0 134.0 L 186.0 137.0 L 186.0 140.0 L 186.0 144.0 L 186.0 148.0 L 186.0 153.0 L 185.0 157.0 L 185.0 162.0 L 184.0 168.0 L 183.0 173.0 L 182.0 178.0 L 181.0 183.0 L 180.0 186.0 L 180.0 189.0 L 179.0 191.0 L 177.0 191.0 L 175.0 192.0 L 173.0 192.0 L 170.0 192.0 L 166.0 192.0 L 162.0 192.0 L 158.0 192.0 L 156.0 192.0 " stroke="black" fill="none" stroke-width="5.0" stroke-linecap="round" stroke-linejoin="round" />
<path d="M 123.0 185.0 L 122.0 185.0 L 119.0 184.0 L 117.0 184.0 L 116.0 183.0 L 115.0 183.0 L 114.0 183.0 L 114.0 182.0 L 114.0 182.0 L 115.0 182.0 L 116.0 182.0 L 118.0 182.0 L 119.0 182.0 L 122.0 182.0 L 126.0 182.0 L 130.0 182.0 L 135.0 182.0 L 141.0 182.0 L 146.0 182.0 L 152.0 182.0 L 158.0 182.0 L 163.0 182.0 L 169.0 182.0 L 175.0 182.0 L 180.0 182.0 " stroke="black" fill="none" stroke-width="5.0" stroke-linecap="round" stroke-linejoin="round" />
<path d="M 78.0 245.0 L 78.0 245.0 L 78.0 245.0 L 78.0 244.0 L 78.0 244.0 L 78.0 244.0 L 78.0 244.0 L 78.0 243.0 L 78.0 243.0 L 79.0 243.0 L 81.0 243.0 L 83.0 243.0 L 85.0 243.0 L 88.0 243.0 L 91.0 243.0 L 95.0 243.0 L 99.0 244.0 L 103.0 244.0 L 107.0 244.0 L 110.0 244.0 L 114.0 245.0 L 118.0 245.0 L 122.0 245.0 L 127.0 245.0 L 132.0 245.0 L 137.0 245.0 L 143.0 245.0 L 148.0 245.0 L 152.0 245.0 L 156.0 245.0 L 160.0 245.0 L 164.0 244.0 L 168.0 244.0 L 173.0 244.0 L 177.0 244.0 L 182.0 244.0 L 187.0 244.0 L 191.0 244.0 L 194.0 244.0 L 197.0 244.0 L 200.0 244.0 L 203.0 244.0 L 206.0 244.0 L 209.0 244.0 L 212.0 244.0 L 215.0 243.0 L 218.0 243.0 L 221.0 243.0 L 223.0 242.0 L 225.0 242.0 L 227.0 242.0 L 228.0 242.0 L 229.0 242.0 L 229.0 243.0 " stroke="black" fill="none" stroke-width="5.0" stroke-linecap="round" stroke-linejoin="round" />
</svg>