<svg xmlns="http://www.w3.org/2000/svg" width="300" height="300" viewBox="0 0 300 300">
<path d="M 97.0 102.0 L 97.0 102.0 L 95.0 102.0 L 93.0 102.0 L 92.0 102.0 L 91.0 101.0 L 91.0 101.0 L 91.0 101.0 L 91.0 101.0 L 92.0 101.0 L 94.0 101.0 L 97.0 101.0 L 101.0 101.0 L 106.0 101.0 L 111.0 101.0 L 119.0 100.0 L 128.0 100.0 L 139.0 100.0 L 150.0 100.0 L 158.0 99.0 L 167.0 99.0 L 175.0 100.0 L 181.0 101.0 L 186.0 102.0 L 189.0 104.0 L 190.0 106.0 " stroke="black" fill="none" stroke-width="5.0" stroke-linecap="round" stroke-linejoin="round" />
<path d="M 141.0 79.0 L 140.0 78.0 L 139.0 77.0 L 139.0 77.0 L 139.0 77.0 L 139.0 77.0 L 139.0 77.0 L 139.0 80.0 L 139.0 83.0 L 139.0 89.0 L 139.0 95.0 L 138.0 104.0 L 137.0 113.0 L 135.0 121.0 L 133.0 129.0 L 131.0 135.0 L 129.0 140.0 L 128.0 143.0 L 126.0 149.0 " stroke="black" fill="none" stroke-width="5.0" stroke-linecap="round" stroke-linejoin="round" />
<path d="M 68.0 154.0 L 68.0 154.0 L 66.0 154.0 L 65.0 153.0 L 64.0 153.0 L 63.0 153.0 L 63.0 152.0 L 63.0 152.0 L 63.0 152.0 L 65.0 152.0 L 68.0 151.0 L 72.0 151.0 L 78.0 150.0 L 86.0 150.0 L 96.0 149.0 L 106.0 148.0 L 118.0 148.0 L 134.0 148.0 L 148.0 148.0 L 161.0 148.0 L 174.0 149.0 L 186.0 149.0 L 195.0 149.0 L 203.0 150.0 L 210.0 150.0 L 218.0 150.0 L 226.0 150.0 L 233.0 150.0 L 238.0 150.0 L 241.0 150.0 L 243.0 150.0 L 244.0 150.0 " stroke="black" fill="none" stroke-width="5.0" stroke-linecap="round" stroke-linejoin="round" />
<path d="M 215.0 85.0 L 215.0 85.0 L 215.0 85.0 L 216.0 85.0 L 216.0 85.0 L 216.0 85.0 L 216.0 85.0 L 216.0 85.0 L 216.0 86.0 L 215.0 88.0 L 212.0 92.0 L 208.0 98.0 L 202.0 105.0 L 194.0 114.0 L 185.0 123.0 L 174.0 131.0 L 161.0 140.0 L 149.0 150.0 L 139.0 157.0 L 125.0 165.0 L 110.0 173.0 L 100.0 181.0 L 88.0 189.0 L 74.0 196.0 L 65.0 200.0 L 60.0 203.0 L 55.0 205.0 " stroke="black" fill="none" stroke-width="5.0" stroke-linecap="round" stroke-linejoin="round" />
<path d="M 135.0 191.0 L 133.0 191.0 L 130.0 191.0 L 127.0 192.0 L 126.0 193.0 L 125.0 193.0 L 125.0 193.0 L 125.0 194.0 L 126.0 194.0 L 129.0 194.0 L 134.0 194.0 L 140.0 194.0 L 147.0 194.0 L 153.0 194.0 L 160.0 194.0 L 168.0 194.0 L 176.0 194.0 L 184.0 194.0 L 191.0 194.0 L 195.0 194.0 L 197.0 194.0 L 198.0 194.0 " stroke="black" fill="none" stroke-width="5.0" stroke-linecap="round" stroke-linejoin="round" />
<path d="M 119.0 175.0 L 119.0 175.0 L 118.0 174.0 L 118.0 174.0 L 117.0 174.0 L 117.0 174.0 L 116.0 174.0 L 116.0 174.0 L 116.0 175.0 L 116.0 177.0 L 116.0 179.0 L 116.0 181.0 L 116.0 184.0 L 116.0 188.0 L 115.0 191.0 L 115.0 195.0 L 114.0 199.0 L 113.0 203.0 L 112.0 207.0 L 112.0 210.0 L 111.0 213.0 L 110.0 216.0 L 110.0 219.0 L 110.0 221.0 L 109.0 224.0 L 109.0 226.0 L 109.0 228.0 L 109.0 229.0 L 110.0 231.0 L 110.0 232.0 L 111.0 233.0 L 112.0 234.0 L 112.0 234.0 L 113.0 235.0 L 114.0 236.0 L 114.0 236.0 L 115.0 237.0 L 116.0 238.0 L 117.0 239.0 L 118.0 240.0 L 119.0 241.0 L 120.0 242.0 L 121.0 242.0 L 123.0 243.0 L 125.0 244.0 L 126.0 244.0 L 129.0 245.0 L 131.0 245.0 L 134.0 246.0 L 137.0 247.0 L 140.0 247.0 L 143.0 247.0 L 146.0 247.0 L 148.0 248.0 L 151.0 248.0 L 154.0 248.0 L 158.0 248.0 L 162.0 248.0 L 168.0 248.0 L 174.0 248.0 L 181.0 248.0 L 187.0 248.0 L 192.0 248.0 L 197.0 248.0 L 201.0 247.0 L 205.0 247.0 L 210.0 247.0 L 215.0 246.0 L 219.0 245.0 L 223.0 244.0 L 227.0 243.0 L 230.0 242.0 L 232.0 241.0 L 233.0 240.0 L 234.0 239.0 L 234.0 238.0 L 234.0 237.0 L 234.0 237.0 L 234.0 236.0 L 234.0 235.0 L 234.0 234.0 L 234.0 233.0 L 234.0 232.0 L 234.0 232.0 L 234.0 230.0 L 234.0 229.0 L 234.0 227.0 L 234.0 225.0 L 233.0 221.0 L 233.0 219.0 " stroke="black" fill="none" stroke-width="5.0" stroke-linecap="round" stroke-linejoin="round" />
</svg>