<svg xmlns="http://www.w3.org/2000/svg" width="300" height="300" viewBox="0 0 300 300">
<path d="M 77.0 113.0 L 77.0 113.0 L 76.0 113.0 L 75.0 112.0 L 74.0 112.0 L 74.0 112.0 L 74.0 112.0 L 74.0 113.0 L 74.0 115.0 L 74.0 118.0 L 74.0 121.0 L 75.0 126.0 L 75.0 132.0 L 76.0 140.0 L 76.0 149.0 L 76.0 157.0 L 76.0 165.0 L 76.0 172.0 L 76.0 177.0 L 76.0 182.0 L 75.0 183.0 " stroke="black" fill="none" stroke-width="5.0" stroke-linecap="round" stroke-linejoin="round" />
<path d="M 75.0 111.0 L 75.0 111.0 L 74.0 111.0 L 74.0 111.0 L 74.0 111.0 L 74.0 110.0 L 74.0 110.0 L 74.0 110.0 L 74.0 110.0 L 74.0 110.0 L 74.0 110.0 L 74.0 110.0 L 74.0 110.0 L 75.0 110.0 L 76.0 110.0 L 76.0 110.0 L 78.0 109.0 L 79.0 109.0 L 81.0 109.0 L 82.0 109.0 L 84.0 109.0 L 86.0 109.0 L 88.0 109.0 L 90.0 109.0 L 92.0 109.0 L 94.0 109.0 L 95.0 109.0 L 97.0 109.0 L 98.0 109.0 L 100.0 109.0 L 101.0 109.0 L 103.0 109.0 L 104.0 109.0 L 106.0 109.0 L 107.0 109.0 L 108.0 109.0 L 109.0 109.0 L 109.0 109.0 L 110.0 109.0 L 111.0 109.0 L 112.0 109.0 L 113.0 109.0 L 114.0 109.0 L 115.0 109.0 L 116.0 109.0 L 117.0 109.0 L 118.0 109.0 L 119.0 109.0 L 120.0 109.0 L 122.0 109.0 L 123.0 109.0 L 124.0 109.0 L 126.0 109.0 L 127.0 109.0 L 129.0 109.0 L 130.0 109.0 L 132.0 109.0 L 134.0 109.0 L 135.0 109.0 L 137.0 109.0 L 138.0 109.0 L 140.0 109.0 L 141.0 109.0 L 143.0 109.0 L 144.0 109.0 L 146.0 109.0 L 147.0 109.0 L 148.0 109.0 L 149.0 109.0 L 151.0 109.0 L 152.0 109.0 L 153.0 109.0 L 154.0 109.0 L 155.0 109.0 L 156.0 109.0 L 157.0 109.0 L 158.0 109.0 L 159.0 109.0 L 160.0 109.0 L 161.0 108.0 L 162.0 108.0 L 163.0 108.0 L 164.0 108.0 L 165.0 108.0 L 167.0 108.0 L 168.0 108.0 L 169.0 108.0 L 171.0 108.0 L 173.0 108.0 L 175.0 108.0 L 177.0 108.0 L 179.0 108.0 L 180.0 108.0 L 182.0 108.0 L 184.0 108.0 L 185.0 108.0 L 187.0 108.0 L 188.0 108.0 L 190.0 108.0 L 190.0 108.0 L 191.0 108.0 L 192.0 108.0 L 193.0 108.0 L 195.0 108.0 L 196.0 108.0 L 197.0 108.0 L 198.0 108.0 L 199.0 108.0 L 201.0 108.0 L 202.0 108.0 L 202.0 108.0 L 203.0 108.0 L 205.0 108.0 L 206.0 108.0 L 207.0 108.0 L 208.0 108.0 L 210.0 108.0 L 211.0 108.0 L 212.0 108.0 L 213.0 108.0 L 214.0 108.0 L 215.0 108.0 L 217.0 108.0 L 218.0 108.0 L 219.0 108.0 L 220.0 108.0 L 221.0 108.0 L 221.0 108.0 L 222.0 109.0 L 223.0 109.0 L 224.0 109.0 L 224.0 109.0 L 225.0 109.0 L 225.0 109.0 L 226.0 109.0 L 226.0 110.0 L 226.0 110.0 L 227.0 110.0 L 227.0 111.0 L 227.0 111.0 L 227.0 111.0 L 227.0 112.0 L 228.0 113.0 L 228.0 114.0 L 228.0 115.0 L 228.0 116.0 L 228.0 118.0 L 228.0 120.0 L 228.0 123.0 L 228.0 126.0 L 228.0 129.0 L 228.0 133.0 L 228.0 137.0 L 228.0 141.0 L 228.0 145.0 L 228.0 149.0 L 228.0 152.0 L 228.0 155.0 L 228.0 157.0 L 228.0 160.0 L 228.0 162.0 L 228.0 164.0 L 228.0 166.0 L 228.0 168.0 L 228.0 170.0 L 228.0 171.0 L 227.0 173.0 L 227.0 175.0 L 227.0 176.0 L 227.0 177.0 L 226.0 177.0 L 226.0 177.0 " stroke="black" fill="none" stroke-width="5.0" stroke-linecap="round" stroke-linejoin="round" />
<path d="M 82.0 180.0 L 82.0 180.0 L 83.0 180.0 L 83.0 180.0 L 84.0 180.0 L 85.0 180.0 L 86.0 179.0 L 87.0 179.0 L 89.0 179.0 L 91.0 178.0 L 93.0 178.0 L 95.0 178.0 L 97.0 178.0 L 100.0 178.0 L 102.0 177.0 L 104.0 177.0 L 106.0 177.0 L 109.0 177.0 L 111.0 177.0 L 114.0 177.0 L 117.0 177.0 L 121.0 177.0 L 125.0 177.0 L 130.0 177.0 L 134.0 177.0 L 138.0 176.0 L 143.0 176.0 L 146.0 176.0 L 150.0 176.0 L 153.0 176.0 L 156.0 176.0 L 159.0 177.0 L 163.0 177.0 L 167.0 178.0 L 171.0 178.0 L 176.0 179.0 L 181.0 179.0 L 185.0 179.0 L 189.0 180.0 L 192.0 180.0 L 194.0 180.0 L 197.0 180.0 L 199.0 180.0 L 201.0 180.0 L 203.0 180.0 L 206.0 180.0 L 208.0 180.0 L 211.0 180.0 L 212.0 180.0 " stroke="black" fill="none" stroke-width="5.0" stroke-linecap="round" stroke-linejoin="round" />
<path d="M 151.0 67.0 L 151.0 67.0 L 151.0 67.0 L 151.0 67.0 L 151.0 68.0 L 151.0 68.0 L 151.0 69.0 L 151.0 71.0 L 151.0 73.0 L 151.0 76.0 L 152.0 80.0 L 152.0 85.0 L 153.0 92.0 L 153.0 99.0 L 153.0 108.0 L 154.0 116.0 L 154.0 124.0 L 154.0 132.0 L 154.0 141.0 L 154.0 150.0 L 155.0 158.0 L 155.0 165.0 L 155.0 172.0 L 155.0 180.0 L 156.0 188.0 L 156.0 195.0 L 156.0 202.0 L 157.0 208.0 L 157.0 214.0 L 157.0 220.0 L 157.0 227.0 L 157.0 233.0 L 157.0 238.0 L 156.0 243.0 L 156.0 247.0 L 155.0 251.0 L 155.0 255.0 L 155.0 258.0 L 154.0 260.0 L 154.0 262.0 L 154.0 263.0 L 154.0 263.0 L 154.0 263.0 L 154.0 263.0 L 154.0 262.0 " stroke="black" fill="none" stroke-width="5.0" stroke-linecap="round" stroke-linejoin="round" />
</svg>