<svg xmlns="http://www.w3.org/2000/svg" width="300" height="300" viewBox="0 0 300 300">
<path d="M 71.0 120.0 L 71.0 120.0 L 71.0 120.0 L 71.0 120.0 L 71.0 120.0 L 71.0 120.0 L 71.0 120.0 L 71.0 120.0 L 71.0 120.0 L 71.0 120.0 L 71.0 120.0 L 71.0 120.0 L 71.0 120.0 L 71.0 120.0 L 72.0 120.0 L 72.0 120.0 L 73.0 120.0 L 73.0 120.0 L 74.0 120.0 L 75.0 120.0 L 76.0 120.0 L 77.0 120.0 L 78.0 120.0 L 79.0 120.0 L 80.0 120.0 L 82.0 120.0 L 83.0 120.0 L 84.0 120.0 L 85.0 120.0 L 86.0 120.0 L 87.0 120.0 L 88.0 120.0 L 89.0 120.0 L 90.0 120.0 L 91.0 120.0 L 92.0 120.0 L 93.0 120.0 L 93.0 120.0 L 94.0 120.0 L 95.0 120.0 L 96.0 120.0 L 97.0 120.0 L 98.0 120.0 L 99.0 120.0 L 100.0 120.0 L 101.0 120.0 L 102.0 120.0 L 103.0 120.0 L 104.0 120.0 L 104.0 120.0 L 105.0 120.0 L 106.0 120.0 L 106.0 120.0 L 107.0 120.0 L 107.0 120.0 L 108.0 120.0 L 108.0 120.0 L 108.0 120.0 L 109.0 120.0 L 109.0 120.0 L 109.0 120.0 L 110.0 120.0 L 110.0 120.0 L 111.0 120.0 L 111.0 120.0 L 112.0 120.0 L 112.0 120.0 L 112.0 120.0 L 113.0 120.0 L 113.0 120.0 L 114.0 120.0 L 114.0 120.0 L 115.0 120.0 L 115.0 120.0 L 116.0 120.0 L 117.0 120.0 L 117.0 120.0 L 118.0 120.0 L 118.0 120.0 L 119.0 120.0 L 119.0 120.0 L 120.0 120.0 L 121.0 120.0 L 121.0 120.0 L 122.0 120.0 L 123.0 120.0 L 123.0 120.0 L 124.0 120.0 L 124.0 120.0 L 125.0 120.0 L 126.0 120.0 L 126.0 120.0 L 127.0 120.0 L 127.0 120.0 L 128.0 120.0 L 129.0 119.0 L 129.0 119.0 L 130.0 119.0 L 131.0 119.0 L 132.0 119.0 L 132.0 119.0 L 133.0 119.0 L 133.0 119.0 L 134.0 119.0 L 135.0 119.0 L 135.0 119.0 L 136.0 119.0 L 136.0 119.0 L 137.0 119.0 L 137.0 119.0 L 138.0 119.0 L 139.0 119.0 L 139.0 119.0 L 140.0 119.0 L 140.0 119.0 L 141.0 119.0 L 141.0 119.0 L 142.0 119.0 L 143.0 119.0 L 143.0 119.0 L 144.0 119.0 L 144.0 119.0 L 145.0 119.0 L 145.0 119.0 L 145.0 119.0 L 146.0 119.0 L 146.0 119.0 L 147.0 119.0 L 147.0 119.0 L 147.0 119.0 L 148.0 119.0 L 148.0 119.0 L 148.0 119.0 L 149.0 119.0 L 149.0 120.0 L 150.0 120.0 L 150.0 120.0 L 150.0 120.0 L 151.0 120.0 L 151.0 120.0 L 152.0 120.0 L 152.0 120.0 L 152.0 120.0 L 153.0 120.0 L 153.0 121.0 L 153.0 121.0 L 154.0 121.0 L 154.0 121.0 L 155.0 121.0 L 155.0 121.0 L 156.0 121.0 L 156.0 121.0 L 157.0 121.0 L 157.0 121.0 L 157.0 121.0 L 158.0 121.0 L 158.0 121.0 L 159.0 121.0 L 159.0 121.0 L 160.0 121.0 L 160.0 121.0 L 161.0 121.0 L 161.0 121.0 L 162.0 121.0 L 162.0 121.0 L 163.0 121.0 L 163.0 121.0 L 164.0 121.0 L 164.0 121.0 L 164.0 121.0 L 165.0 121.0 L 165.0 121.0 L 166.0 121.0 L 166.0 121.0 L 166.0 121.0 L 167.0 121.0 L 167.0 121.0 L 168.0 121.0 L 168.0 121.0 L 168.0 121.0 L 169.0 121.0 L 169.0 121.0 L 170.0 121.0 L 170.0 121.0 L 171.0 121.0 L 171.0 121.0 L 171.0 120.0 L 172.0 120.0 L 172.0 120.0 L 173.0 120.0 L 173.0 120.0 L 174.0 120.0 L 175.0 120.0 L 175.0 120.0 L 176.0 120.0 L 176.0 120.0 L 177.0 120.0 L 178.0 120.0 L 178.0 120.0 L 179.0 120.0 L 180.0 120.0 L 180.0 120.0 L 181.0 120.0 L 181.0 120.0 L 182.0 120.0 L 183.0 120.0 L 183.0 120.0 L 184.0 120.0 L 184.0 120.0 L 185.0 120.0 L 186.0 120.0 L 186.0 120.0 L 187.0 120.0 L 187.0 120.0 L 188.0 120.0 L 188.0 120.0 L 189.0 120.0 L 189.0 119.0 L 190.0 119.0 L 190.0 119.0 L 191.0 119.0 L 191.0 119.0 L 192.0 119.0 L 192.0 118.0 L 192.0 118.0 L 193.0 118.0 L 193.0 118.0 L 193.0 118.0 L 194.0 118.0 L 194.0 118.0 L 195.0 118.0 L 195.0 118.0 L 195.0 118.0 L 196.0 118.0 L 196.0 118.0 L 196.0 118.0 L 197.0 118.0 L 197.0 118.0 L 197.0 118.0 L 198.0 117.0 L 198.0 117.0 L 198.0 117.0 L 199.0 117.0 L 199.0 117.0 L 200.0 117.0 L 200.0 117.0 L 200.0 117.0 L 201.0 117.0 L 201.0 117.0 L 202.0 117.0 L 202.0 117.0 L 202.0 117.0 L 203.0 117.0 L 203.0 117.0 L 204.0 117.0 L 204.0 117.0 L 204.0 117.0 L 205.0 117.0 L 205.0 117.0 L 206.0 117.0 L 206.0 117.0 L 207.0 117.0 L 207.0 117.0 L 208.0 117.0 L 208.0 117.0 L 209.0 117.0 L 209.0 117.0 L 210.0 117.0 L 210.0 117.0 L 211.0 117.0 L 212.0 116.0 L 212.0 116.0 L 212.0 116.0 L 213.0 116.0 L 213.0 116.0 L 214.0 116.0 L 214.0 116.0 L 215.0 116.0 L 215.0 116.0 L 216.0 116.0 L 216.0 116.0 L 216.0 116.0 L 217.0 116.0 L 217.0 116.0 L 218.0 116.0 L 218.0 116.0 L 219.0 116.0 L 219.0 116.0 L 219.0 116.0 L 220.0 116.0 L 220.0 116.0 L 221.0 116.0 L 221.0 116.0 L 222.0 116.0 L 222.0 117.0 L 222.0 117.0 L 223.0 117.0 L 223.0 117.0 L 223.0 117.0 L 224.0 117.0 L 224.0 117.0 L 224.0 117.0 L 225.0 117.0 L 225.0 117.0 L 225.0 117.0 L 225.0 117.0 L 226.0 117.0 L 226.0 118.0 L 226.0 118.0 L 227.0 118.0 L 227.0 118.0 L 227.0 118.0 L 227.0 118.0 L 227.0 118.0 L 227.0 118.0 L 228.0 118.0 L 228.0 118.0 L 228.0 118.0 L 228.0 118.0 L 228.0 118.0 L 228.0 118.0 L 229.0 118.0 L 229.0 118.0 L 229.0 118.0 L 229.0 118.0 L 229.0 118.0 L 229.0 118.0 L 229.0 118.0 L 229.0 118.0 L 229.0 118.0 L 229.0 119.0 L 229.0 119.0 L 229.0 119.0 L 229.0 119.0 L 229.0 120.0 L 229.0 120.0 L 229.0 120.0 L 229.0 121.0 L 230.0 121.0 L 230.0 122.0 L 230.0 123.0 L 230.0 123.0 L 230.0 124.0 L 230.0 125.0 L 230.0 126.0 L 230.0 127.0 L 230.0 128.0 L 230.0 129.0 L 230.0 130.0 L 230.0 131.0 L 230.0 132.0 L 230.0 133.0 L 230.0 134.0 L 230.0 136.0 L 230.0 137.0 L 230.0 138.0 L 230.0 140.0 L 230.0 141.0 L 230.0 143.0 L 229.0 144.0 L 229.0 146.0 L 229.0 148.0 L 229.0 149.0 L 228.0 151.0 L 228.0 153.0 L 227.0 154.0 L 227.0 156.0 L 227.0 157.0 L 226.0 159.0 L 226.0 161.0 L 225.0 162.0 L 225.0 164.0 L 225.0 165.0 L 224.0 167.0 L 224.0 168.0 L 224.0 169.0 L 224.0 171.0 L 223.0 172.0 L 223.0 173.0 L 223.0 175.0 L 223.0 176.0 L 223.0 178.0 L 223.0 180.0 L 223.0 182.0 L 223.0 184.0 L 222.0 185.0 L 222.0 187.0 L 222.0 189.0 L 222.0 191.0 L 222.0 192.0 L 221.0 194.0 L 221.0 195.0 L 221.0 197.0 L 221.0 199.0 L 220.0 200.0 L 220.0 202.0 L 220.0 203.0 L 219.0 205.0 L 219.0 206.0 L 219.0 208.0 L 219.0 209.0 L 218.0 211.0 L 218.0 212.0 L 218.0 214.0 L 217.0 215.0 L 217.0 216.0 L 216.0 218.0 L 216.0 219.0 L 215.0 221.0 L 215.0 223.0 L 215.0 224.0 L 214.0 226.0 L 214.0 228.0 L 214.0 229.0 L 213.0 231.0 L 213.0 232.0 L 213.0 233.0 L 212.0 234.0 L 212.0 235.0 L 212.0 236.0 L 212.0 237.0 L 211.0 237.0 L 211.0 238.0 L 211.0 239.0 L 210.0 239.0 L 210.0 240.0 L 210.0 241.0 L 210.0 241.0 L 210.0 242.0 L 209.0 243.0 L 209.0 243.0 L 209.0 244.0 L 209.0 244.0 L 208.0 245.0 L 208.0 246.0 L 208.0 246.0 L 208.0 247.0 L 208.0 247.0 L 207.0 248.0 L 207.0 248.0 L 207.0 248.0 L 207.0 248.0 L 207.0 249.0 L 207.0 249.0 L 206.0 249.0 L 206.0 249.0 L 206.0 250.0 L 206.0 250.0 L 205.0 250.0 L 205.0 250.0 L 205.0 250.0 L 204.0 250.0 L 204.0 250.0 L 203.0 250.0 L 202.0 250.0 L 201.0 250.0 L 200.0 250.0 L 200.0 250.0 L 199.0 249.0 L 198.0 249.0 L 196.0 249.0 L 195.0 249.0 L 194.0 248.0 L 192.0 248.0 L 191.0 248.0 L 189.0 248.0 L 188.0 248.0 L 186.0 248.0 L 184.0 247.0 L 183.0 247.0 L 181.0 247.0 L 179.0 247.0 L 177.0 247.0 L 174.0 246.0 " stroke="black" fill="none" stroke-width="5.0" stroke-linecap="round" stroke-linejoin="round" />
<path d="M 139.0 77.0 L 139.0 77.0 L 139.0 77.0 L 139.0 77.0 L 139.0 77.0 L 139.0 77.0 L 139.0 77.0 L 139.0 78.0 L 139.0 78.0 L 139.0 79.0 L 139.0 80.0 L 139.0 82.0 L 139.0 83.0 L 139.0 85.0 L 140.0 87.0 L 140.0 89.0 L 141.0 92.0 L 141.0 95.0 L 141.0 97.0 L 142.0 100.0 L 142.0 103.0 L 143.0 105.0 L 143.0 108.0 L 143.0 110.0 L 143.0 112.0 L 143.0 114.0 L 143.0 115.0 L 143.0 117.0 L 143.0 118.0 L 143.0 120.0 L 143.0 121.0 L 143.0 123.0 L 143.0 125.0 L 143.0 126.0 L 142.0 128.0 L 142.0 130.0 L 142.0 131.0 L 142.0 133.0 L 141.0 135.0 L 141.0 137.0 L 141.0 139.0 L 141.0 141.0 L 141.0 143.0 L 141.0 144.0 L 141.0 146.0 L 141.0 147.0 L 141.0 149.0 L 141.0 150.0 L 141.0 152.0 L 141.0 153.0 L 141.0 154.0 L 140.0 155.0 L 140.0 157.0 L 140.0 158.0 L 139.0 159.0 L 139.0 161.0 L 139.0 162.0 L 138.0 163.0 L 138.0 165.0 L 137.0 167.0 L 136.0 168.0 L 136.0 170.0 L 135.0 172.0 L 134.0 174.0 L 134.0 175.0 L 133.0 177.0 L 132.0 178.0 L 132.0 180.0 L 131.0 182.0 L 130.0 183.0 L 130.0 185.0 L 129.0 187.0 L 128.0 188.0 L 127.0 190.0 L 127.0 191.0 L 126.0 192.0 L 125.0 194.0 L 125.0 195.0 L 124.0 196.0 L 123.0 197.0 L 122.0 199.0 L 121.0 200.0 L 120.0 202.0 L 120.0 203.0 L 119.0 204.0 L 118.0 205.0 L 117.0 206.0 L 116.0 207.0 L 116.0 207.0 L 115.0 208.0 L 114.0 209.0 L 114.0 210.0 L 113.0 211.0 L 113.0 212.0 L 112.0 213.0 L 111.0 214.0 L 110.0 215.0 L 110.0 216.0 L 109.0 217.0 L 108.0 218.0 L 108.0 219.0 L 107.0 220.0 L 106.0 221.0 L 105.0 223.0 L 104.0 225.0 L 103.0 227.0 L 102.0 229.0 L 101.0 230.0 L 100.0 232.0 L 98.0 233.0 L 97.0 234.0 L 95.0 236.0 L 94.0 237.0 L 92.0 238.0 L 89.0 240.0 L 87.0 241.0 L 84.0 243.0 L 82.0 244.0 L 78.0 246.0 L 76.0 247.0 L 73.0 249.0 L 71.0 250.0 L 69.0 251.0 L 68.0 252.0 L 66.0 252.0 L 65.0 253.0 " stroke="black" fill="none" stroke-width="5.0" stroke-linecap="round" stroke-linejoin="round" />
</svg>