<svg xmlns="http://www.w3.org/2000/svg" width="300" height="300" viewBox="0 0 300 300">
<path d="M 65.0 84.0 L 65.0 84.0 L 65.0 84.0 L 64.0 84.0 L 64.0 83.0 L 64.0 83.0 L 63.0 83.0 L 63.0 83.0 L 63.0 83.0 L 63.0 83.0 L 63.0 83.0 L 63.0 83.0 L 64.0 83.0 L 66.0 83.0 L 68.0 83.0 L 71.0 83.0 L 77.0 84.0 L 85.0 84.0 L 94.0 84.0 L 104.0 83.0 L 113.0 82.0 L 120.0 81.0 L 128.0 81.0 L 134.0 81.0 L 139.0 81.0 L 143.0 82.0 L 145.0 83.0 L 147.0 84.0 L 148.0 85.0 L 149.0 85.0 L 149.0 85.0 " stroke="black" fill="none" stroke-width="5.0" stroke-linecap="round" stroke-linejoin="round" />
<path d="M 76.0 106.0 L 76.0 106.0 L 76.0 106.0 L 76.0 106.0 L 76.0 106.0 L 76.0 107.0 L 76.0 108.0 L 76.0 110.0 L 76.0 113.0 L 77.0 116.0 L 77.0 121.0 L 77.0 125.0 L 77.0 130.0 L 77.0 133.0 L 76.0 137.0 L 76.0 139.0 L 75.0 141.0 L 75.0 141.0 " stroke="black" fill="none" stroke-width="5.0" stroke-linecap="round" stroke-linejoin="round" />
<path d="M 78.0 113.0 L 78.0 113.0 L 77.0 112.0 L 76.0 112.0 L 75.0 111.0 L 74.0 110.0 L 74.0 110.0 L 74.0 109.0 L 74.0 109.0 L 74.0 109.0 L 75.0 108.0 L 77.0 108.0 L 79.0 108.0 L 82.0 107.0 L 86.0 107.0 L 89.0 107.0 L 93.0 107.0 L 97.0 107.0 L 101.0 107.0 L 104.0 107.0 L 108.0 107.0 L 110.0 108.0 L 112.0 108.0 L 113.0 108.0 L 113.0 109.0 L 113.0 110.0 L 113.0 112.0 L 112.0 115.0 L 111.0 118.0 L 109.0 121.0 L 108.0 125.0 L 107.0 128.0 L 105.0 132.0 L 105.0 136.0 L 104.0 139.0 L 103.0 142.0 " stroke="black" fill="none" stroke-width="5.0" stroke-linecap="round" stroke-linejoin="round" />
<path d="M 80.0 142.0 L 78.0 142.0 L 76.0 142.0 L 75.0 142.0 L 75.0 142.0 L 75.0 141.0 L 76.0 141.0 L 79.0 140.0 L 83.0 140.0 L 87.0 139.0 L 92.0 138.0 L 97.0 137.0 L 102.0 137.0 L 106.0 136.0 L 109.0 136.0 " stroke="black" fill="none" stroke-width="5.0" stroke-linecap="round" stroke-linejoin="round" />
<path d="M 136.0 89.0 L 136.0 89.0 L 136.0 89.0 L 135.0 90.0 L 135.0 92.0 L 135.0 93.0 L 135.0 95.0 L 135.0 97.0 L 135.0 100.0 L 136.0 104.0 L 136.0 108.0 L 136.0 112.0 L 136.0 116.0 L 136.0 122.0 L 136.0 127.0 L 136.0 134.0 L 136.0 140.0 L 136.0 145.0 L 136.0 149.0 L 137.0 151.0 " stroke="black" fill="none" stroke-width="5.0" stroke-linecap="round" stroke-linejoin="round" />
<path d="M 62.0 158.0 L 62.0 158.0 L 62.0 158.0 L 61.0 158.0 L 61.0 158.0 L 61.0 158.0 L 60.0 158.0 L 60.0 158.0 L 60.0 158.0 L 60.0 158.0 L 60.0 158.0 L 61.0 158.0 L 62.0 158.0 L 64.0 159.0 L 67.0 159.0 L 71.0 159.0 L 77.0 159.0 L 84.0 160.0 L 93.0 160.0 L 100.0 160.0 L 107.0 160.0 L 114.0 159.0 L 120.0 159.0 L 126.0 158.0 L 132.0 157.0 L 137.0 157.0 L 141.0 156.0 L 145.0 156.0 L 147.0 156.0 L 148.0 156.0 L 150.0 156.0 L 150.0 156.0 L 151.0 157.0 L 151.0 157.0 L 152.0 157.0 L 152.0 157.0 " stroke="black" fill="none" stroke-width="5.0" stroke-linecap="round" stroke-linejoin="round" />
<path d="M 77.0 190.0 L 77.0 190.0 L 77.0 190.0 L 77.0 190.0 L 76.0 191.0 L 76.0 193.0 L 76.0 195.0 L 75.0 198.0 L 75.0 201.0 L 75.0 205.0 L 75.0 209.0 L 74.0 212.0 L 74.0 214.0 L 74.0 216.0 L 74.0 217.0 L 74.0 217.0 L 74.0 217.0 L 74.0 216.0 L 75.0 214.0 L 75.0 211.0 L 75.0 210.0 " stroke="black" fill="none" stroke-width="5.0" stroke-linecap="round" stroke-linejoin="round" />
<path d="M 75.0 200.0 L 75.0 199.0 L 75.0 197.0 L 74.0 195.0 L 74.0 193.0 L 74.0 192.0 L 74.0 190.0 L 74.0 190.0 L 74.0 189.0 L 74.0 188.0 L 74.0 188.0 L 76.0 188.0 L 78.0 187.0 L 81.0 187.0 L 84.0 187.0 L 88.0 187.0 L 93.0 187.0 L 98.0 187.0 L 102.0 188.0 L 106.0 188.0 L 109.0 189.0 L 111.0 189.0 L 113.0 190.0 L 113.0 191.0 L 113.0 193.0 L 113.0 194.0 L 113.0 195.0 L 112.0 197.0 L 111.0 198.0 L 110.0 200.0 L 108.0 202.0 L 107.0 204.0 L 105.0 206.0 L 104.0 207.0 " stroke="black" fill="none" stroke-width="5.0" stroke-linecap="round" stroke-linejoin="round" />
<path d="M 84.0 216.0 L 84.0 216.0 L 82.0 216.0 L 80.0 216.0 L 78.0 217.0 L 77.0 218.0 L 77.0 218.0 L 76.0 219.0 L 76.0 219.0 L 76.0 219.0 L 78.0 219.0 L 80.0 219.0 L 84.0 219.0 L 88.0 219.0 L 92.0 218.0 L 97.0 218.0 L 102.0 216.0 L 106.0 215.0 L 111.0 214.0 L 115.0 213.0 " stroke="black" fill="none" stroke-width="5.0" stroke-linecap="round" stroke-linejoin="round" />
<path d="M 134.0 164.0 L 134.0 164.0 L 134.0 164.0 L 134.0 164.0 L 133.0 165.0 L 133.0 165.0 L 133.0 166.0 L 133.0 166.0 L 133.0 167.0 L 133.0 169.0 L 133.0 170.0 L 133.0 173.0 L 133.0 176.0 L 133.0 180.0 L 133.0 185.0 L 133.0 190.0 L 133.0 194.0 L 133.0 199.0 L 133.0 202.0 L 133.0 206.0 L 133.0 209.0 L 133.0 212.0 L 133.0 215.0 L 133.0 218.0 L 133.0 220.0 L 133.0 223.0 L 133.0 226.0 L 133.0 229.0 L 132.0 233.0 L 132.0 235.0 L 132.0 238.0 L 132.0 241.0 L 131.0 243.0 L 131.0 245.0 L 130.0 248.0 L 130.0 249.0 L 129.0 250.0 L 129.0 251.0 L 128.0 252.0 L 128.0 252.0 L 127.0 252.0 L 126.0 252.0 L 125.0 251.0 L 124.0 251.0 L 123.0 250.0 L 121.0 250.0 L 119.0 249.0 L 118.0 248.0 L 116.0 248.0 L 114.0 246.0 L 112.0 244.0 L 111.0 243.0 " stroke="black" fill="none" stroke-width="5.0" stroke-linecap="round" stroke-linejoin="round" />
<path d="M 187.0 73.0 L 187.0 73.0 L 187.0 73.0 L 187.0 74.0 L 187.0 74.0 L 187.0 75.0 L 187.0 75.0 L 187.0 77.0 L 186.0 79.0 L 186.0 82.0 L 185.0 87.0 L 183.0 93.0 L 180.0 102.0 L 177.0 110.0 L 173.0 119.0 L 169.0 127.0 L 165.0 133.0 L 161.0 139.0 " stroke="black" fill="none" stroke-width="5.0" stroke-linecap="round" stroke-linejoin="round" />
<path d="M 183.0 111.0 L 183.0 111.0 L 183.0 111.0 L 183.0 111.0 L 183.0 110.0 L 183.0 110.0 L 183.0 109.0 L 183.0 109.0 L 183.0 109.0 L 183.0 109.0 L 183.0 108.0 L 183.0 108.0 L 183.0 108.0 L 183.0 108.0 L 183.0 108.0 L 183.0 108.0 L 183.0 108.0 L 183.0 108.0 L 183.0 108.0 L 183.0 108.0 L 183.0 108.0 L 183.0 109.0 L 184.0 109.0 L 184.0 109.0 L 185.0 110.0 L 186.0 110.0 L 187.0 110.0 L 188.0 111.0 L 189.0 111.0 L 191.0 111.0 L 192.0 111.0 L 193.0 111.0 L 195.0 111.0 L 196.0 111.0 L 197.0 111.0 L 198.0 111.0 L 199.0 111.0 L 200.0 111.0 L 202.0 111.0 L 203.0 111.0 L 204.0 111.0 L 205.0 111.0 L 206.0 111.0 L 208.0 111.0 L 209.0 111.0 L 210.0 112.0 L 211.0 112.0 L 213.0 112.0 L 214.0 112.0 L 215.0 112.0 L 217.0 112.0 L 218.0 112.0 L 219.0 112.0 L 221.0 112.0 L 222.0 112.0 L 223.0 112.0 L 223.0 112.0 L 224.0 112.0 L 225.0 112.0 L 226.0 112.0 L 226.0 112.0 L 227.0 112.0 L 228.0 112.0 L 228.0 112.0 L 229.0 112.0 L 229.0 112.0 L 230.0 112.0 L 230.0 112.0 L 231.0 112.0 L 231.0 112.0 L 232.0 112.0 L 232.0 112.0 L 232.0 112.0 L 233.0 112.0 L 233.0 112.0 L 233.0 112.0 L 233.0 112.0 L 234.0 112.0 L 234.0 112.0 L 234.0 112.0 L 234.0 112.0 L 235.0 112.0 L 235.0 112.0 L 235.0 112.0 L 235.0 112.0 L 236.0 113.0 L 236.0 113.0 L 236.0 113.0 L 236.0 113.0 L 237.0 113.0 L 237.0 113.0 L 237.0 113.0 L 237.0 113.0 L 237.0 113.0 L 237.0 113.0 L 237.0 114.0 L 237.0 114.0 L 237.0 115.0 L 237.0 116.0 L 237.0 117.0 L 237.0 120.0 L 236.0 123.0 L 235.0 127.0 L 234.0 132.0 L 232.0 137.0 L 231.0 141.0 L 231.0 143.0 " stroke="black" fill="none" stroke-width="5.0" stroke-linecap="round" stroke-linejoin="round" />
<path d="M 194.0 130.0 L 194.0 130.0 L 194.0 130.0 L 194.0 130.0 L 194.0 130.0 L 194.0 130.0 L 194.0 130.0 L 194.0 130.0 L 194.0 130.0 L 194.0 130.0 L 194.0 131.0 L 194.0 132.0 L 194.0 134.0 L 194.0 136.0 L 194.0 139.0 L 194.0 141.0 L 194.0 144.0 L 194.0 147.0 L 194.0 150.0 L 194.0 152.0 L 194.0 155.0 L 194.0 157.0 L 194.0 159.0 L 194.0 161.0 L 194.0 162.0 L 194.0 164.0 L 194.0 166.0 L 194.0 168.0 L 193.0 170.0 L 193.0 172.0 L 193.0 174.0 L 193.0 176.0 L 192.0 179.0 L 192.0 181.0 L 192.0 183.0 L 191.0 186.0 L 191.0 188.0 L 191.0 190.0 L 191.0 193.0 L 190.0 195.0 L 190.0 196.0 L 190.0 198.0 L 189.0 200.0 L 189.0 202.0 L 188.0 204.0 L 188.0 206.0 L 187.0 208.0 L 186.0 210.0 L 185.0 212.0 L 184.0 215.0 L 182.0 218.0 L 180.0 221.0 L 177.0 225.0 L 174.0 230.0 L 170.0 235.0 L 166.0 239.0 L 161.0 243.0 L 157.0 246.0 L 154.0 248.0 L 153.0 248.0 L 152.0 248.0 " stroke="black" fill="none" stroke-width="5.0" stroke-linecap="round" stroke-linejoin="round" />
<path d="M 194.0 170.0 L 194.0 170.0 L 194.0 170.0 L 194.0 170.0 L 194.0 171.0 L 194.0 171.0 L 194.0 171.0 L 194.0 171.0 L 194.0 171.0 L 194.0 172.0 L 194.0 172.0 L 194.0 173.0 L 194.0 174.0 L 194.0 175.0 L 195.0 176.0 L 195.0 178.0 L 196.0 180.0 L 196.0 182.0 L 197.0 184.0 L 197.0 186.0 L 198.0 188.0 L 198.0 190.0 L 199.0 192.0 L 199.0 194.0 L 199.0 195.0 L 200.0 196.0 L 200.0 198.0 L 200.0 199.0 L 200.0 200.0 L 201.0 200.0 L 201.0 201.0 L 202.0 202.0 L 202.0 202.0 L 202.0 203.0 L 203.0 203.0 L 203.0 204.0 L 204.0 204.0 L 204.0 204.0 L 205.0 205.0 L 205.0 206.0 L 205.0 206.0 L 206.0 207.0 L 206.0 207.0 L 207.0 208.0 L 207.0 209.0 L 207.0 210.0 L 207.0 211.0 L 208.0 211.0 L 208.0 212.0 L 208.0 213.0 L 209.0 214.0 L 209.0 215.0 L 209.0 216.0 L 209.0 218.0 L 210.0 219.0 L 210.0 220.0 L 210.0 222.0 L 211.0 223.0 L 211.0 225.0 L 212.0 227.0 L 213.0 229.0 L 213.0 230.0 L 214.0 232.0 L 215.0 233.0 L 217.0 234.0 L 218.0 235.0 L 220.0 236.0 L 221.0 237.0 L 223.0 239.0 L 225.0 240.0 L 227.0 241.0 L 228.0 242.0 L 230.0 243.0 L 231.0 243.0 L 233.0 244.0 L 234.0 245.0 L 235.0 245.0 L 236.0 246.0 L 237.0 246.0 L 237.0 247.0 L 238.0 248.0 L 238.0 248.0 L 239.0 249.0 L 239.0 249.0 L 239.0 250.0 L 239.0 250.0 L 239.0 250.0 L 239.0 250.0 L 239.0 250.0 " stroke="black" fill="none" stroke-width="5.0" stroke-linecap="round" stroke-linejoin="round" />
</svg>