<svg xmlns="http://www.w3.org/2000/svg" width="300" height="300" viewBox="0 0 300 300">
<path d="M 62.0 100.0 L 61.0 99.0 L 60.0 98.0 L 59.0 98.0 L 59.0 98.0 L 58.0 98.0 L 58.0 98.0 L 59.0 98.0 L 60.0 98.0 L 63.0 98.0 L 67.0 97.0 L 71.0 96.0 L 77.0 95.0 L 84.0 93.0 L 91.0 92.0 L 94.0 92.0 " stroke="black" fill="none" stroke-width="5.0" stroke-linecap="round" stroke-linejoin="round" />
<path d="M 91.0 77.0 L 91.0 77.0 L 89.0 77.0 L 88.0 77.0 L 88.0 77.0 L 88.0 77.0 L 88.0 77.0 L 88.0 78.0 L 89.0 80.0 L 90.0 83.0 L 92.0 86.0 L 93.0 90.0 L 94.0 96.0 L 95.0 101.0 L 96.0 107.0 L 97.0 112.0 " stroke="black" fill="none" stroke-width="5.0" stroke-linecap="round" stroke-linejoin="round" />
<path d="M 121.0 95.0 L 119.0 95.0 L 117.0 95.0 L 116.0 95.0 L 116.0 95.0 L 118.0 95.0 L 121.0 95.0 L 127.0 94.0 L 133.0 93.0 L 140.0 92.0 L 145.0 90.0 L 148.0 90.0 " stroke="black" fill="none" stroke-width="5.0" stroke-linecap="round" stroke-linejoin="round" />
<path d="M 128.0 74.0 L 127.0 74.0 L 125.0 75.0 L 124.0 76.0 L 123.0 78.0 L 123.0 81.0 L 123.0 85.0 L 123.0 89.0 L 122.0 95.0 L 122.0 100.0 L 121.0 106.0 L 120.0 112.0 L 119.0 117.0 L 117.0 121.0 L 116.0 123.0 " stroke="black" fill="none" stroke-width="5.0" stroke-linecap="round" stroke-linejoin="round" />
<path d="M 85.0 127.0 L 85.0 127.0 L 84.0 127.0 L 83.0 126.0 L 83.0 126.0 L 82.0 126.0 L 81.0 126.0 L 80.0 128.0 L 79.0 130.0 L 78.0 134.0 L 76.0 138.0 L 74.0 144.0 L 71.0 149.0 L 69.0 154.0 L 67.0 159.0 L 66.0 162.0 L 65.0 164.0 L 65.0 165.0 L 65.0 165.0 " stroke="black" fill="none" stroke-width="5.0" stroke-linecap="round" stroke-linejoin="round" />
<path d="M 78.0 145.0 L 78.0 144.0 L 78.0 143.0 L 78.0 141.0 L 78.0 141.0 L 79.0 140.0 L 80.0 139.0 L 81.0 138.0 L 84.0 137.0 L 87.0 136.0 L 91.0 135.0 L 95.0 135.0 L 99.0 134.0 L 103.0 134.0 L 107.0 134.0 L 110.0 134.0 L 114.0 134.0 L 118.0 134.0 L 121.0 134.0 L 125.0 134.0 L 128.0 134.0 L 132.0 134.0 L 134.0 134.0 L 136.0 134.0 L 138.0 135.0 L 138.0 136.0 L 139.0 137.0 L 140.0 139.0 L 140.0 141.0 L 141.0 143.0 L 141.0 145.0 L 141.0 148.0 L 141.0 152.0 L 141.0 156.0 L 141.0 160.0 L 141.0 165.0 L 141.0 171.0 L 141.0 178.0 L 140.0 186.0 L 140.0 194.0 L 139.0 202.0 L 139.0 210.0 L 138.0 217.0 L 137.0 224.0 L 136.0 230.0 L 135.0 235.0 L 133.0 238.0 L 132.0 240.0 L 130.0 240.0 L 128.0 240.0 L 125.0 238.0 L 122.0 235.0 L 118.0 232.0 L 114.0 228.0 L 111.0 223.0 " stroke="black" fill="none" stroke-width="5.0" stroke-linecap="round" stroke-linejoin="round" />
<path d="M 77.0 169.0 L 77.0 169.0 L 77.0 168.0 L 77.0 168.0 L 77.0 168.0 L 77.0 168.0 L 77.0 169.0 L 77.0 172.0 L 77.0 177.0 L 77.0 183.0 L 77.0 190.0 L 76.0 197.0 L 76.0 203.0 L 76.0 207.0 L 76.0 210.0 L 76.0 211.0 L 76.0 211.0 " stroke="black" fill="none" stroke-width="5.0" stroke-linecap="round" stroke-linejoin="round" />
<path d="M 76.0 186.0 L 76.0 185.0 L 75.0 182.0 L 74.0 181.0 L 74.0 180.0 L 74.0 179.0 L 75.0 178.0 L 77.0 177.0 L 80.0 176.0 L 83.0 175.0 L 88.0 174.0 L 93.0 173.0 L 99.0 173.0 L 104.0 172.0 L 108.0 171.0 L 112.0 171.0 L 114.0 171.0 L 116.0 171.0 L 117.0 172.0 L 117.0 174.0 L 117.0 176.0 L 117.0 178.0 L 117.0 180.0 L 116.0 183.0 L 115.0 186.0 L 114.0 190.0 L 112.0 194.0 L 109.0 198.0 L 107.0 203.0 L 104.0 208.0 L 101.0 213.0 L 100.0 215.0 " stroke="black" fill="none" stroke-width="5.0" stroke-linecap="round" stroke-linejoin="round" />
<path d="M 94.0 218.0 L 94.0 218.0 L 92.0 218.0 L 91.0 218.0 L 90.0 218.0 L 89.0 218.0 L 88.0 218.0 L 87.0 218.0 L 87.0 218.0 L 87.0 218.0 L 89.0 218.0 L 92.0 216.0 L 96.0 215.0 L 101.0 213.0 L 106.0 211.0 L 113.0 208.0 L 121.0 205.0 L 126.0 203.0 " stroke="black" fill="none" stroke-width="5.0" stroke-linecap="round" stroke-linejoin="round" />
<path d="M 184.0 87.0 L 184.0 87.0 L 183.0 86.0 L 183.0 85.0 L 183.0 85.0 L 183.0 84.0 L 183.0 84.0 L 182.0 86.0 L 182.0 90.0 L 181.0 95.0 L 179.0 103.0 L 177.0 112.0 L 173.0 121.0 L 168.0 131.0 L 163.0 141.0 L 159.0 149.0 L 157.0 153.0 L 155.0 155.0 L 155.0 155.0 L 155.0 155.0 " stroke="black" fill="none" stroke-width="5.0" stroke-linecap="round" stroke-linejoin="round" />
<path d="M 180.0 119.0 L 180.0 119.0 L 180.0 119.0 L 182.0 118.0 L 183.0 118.0 L 186.0 118.0 L 189.0 117.0 L 194.0 116.0 L 201.0 115.0 L 210.0 114.0 L 219.0 112.0 L 228.0 111.0 L 235.0 110.0 L 239.0 109.0 L 241.0 109.0 L 241.0 109.0 L 241.0 110.0 L 240.0 112.0 L 239.0 113.0 " stroke="black" fill="none" stroke-width="5.0" stroke-linecap="round" stroke-linejoin="round" />
<path d="M 219.0 122.0 L 218.0 123.0 L 217.0 124.0 L 216.0 125.0 L 215.0 126.0 L 214.0 128.0 L 214.0 131.0 L 214.0 134.0 L 214.0 139.0 L 214.0 144.0 L 213.0 150.0 L 212.0 158.0 L 209.0 166.0 L 205.0 175.0 L 201.0 187.0 L 196.0 198.0 L 192.0 208.0 L 187.0 217.0 L 181.0 225.0 L 175.0 233.0 L 167.0 238.0 L 162.0 241.0 L 158.0 243.0 L 155.0 243.0 L 153.0 242.0 " stroke="black" fill="none" stroke-width="5.0" stroke-linecap="round" stroke-linejoin="round" />
<path d="M 175.0 125.0 L 175.0 125.0 L 175.0 125.0 L 175.0 124.0 L 175.0 124.0 L 175.0 124.0 L 175.0 123.0 L 175.0 123.0 L 175.0 123.0 L 175.0 123.0 L 175.0 124.0 L 175.0 126.0 L 175.0 128.0 L 175.0 130.0 L 176.0 134.0 L 177.0 138.0 L 178.0 143.0 L 180.0 150.0 L 181.0 157.0 L 183.0 164.0 L 185.0 172.0 L 187.0 182.0 L 189.0 190.0 L 191.0 198.0 L 194.0 206.0 L 197.0 211.0 L 200.0 216.0 L 205.0 221.0 L 210.0 226.0 L 216.0 230.0 L 222.0 234.0 L 226.0 237.0 L 230.0 239.0 L 233.0 242.0 L 234.0 245.0 L 236.0 247.0 L 237.0 248.0 " stroke="black" fill="none" stroke-width="5.0" stroke-linecap="round" stroke-linejoin="round" />
</svg>