<svg xmlns="http://www.w3.org/2000/svg" width="300" height="300" viewBox="0 0 300 300">
<path d="M 105.0 69.0 L 105.0 69.0 L 105.0 69.0 L 105.0 68.0 L 105.0 68.0 L 104.0 67.0 L 104.0 67.0 L 104.0 66.0 L 104.0 66.0 L 104.0 66.0 L 104.0 66.0 L 104.0 66.0 L 104.0 68.0 L 104.0 69.0 L 104.0 71.0 L 105.0 74.0 L 105.0 78.0 L 105.0 81.0 L 105.0 85.0 L 105.0 90.0 L 105.0 94.0 L 105.0 97.0 L 105.0 100.0 L 105.0 101.0 L 106.0 102.0 " stroke="black" fill="none" stroke-width="5.0" stroke-linecap="round" stroke-linejoin="round" />
<path d="M 79.0 82.0 L 79.0 82.0 L 78.0 82.0 L 78.0 82.0 L 78.0 82.0 L 77.0 82.0 L 77.0 82.0 L 77.0 82.0 L 76.0 82.0 L 76.0 82.0 L 76.0 82.0 L 76.0 82.0 L 76.0 82.0 L 78.0 82.0 L 79.0 83.0 L 82.0 83.0 L 85.0 83.0 L 89.0 84.0 L 93.0 84.0 L 98.0 84.0 L 102.0 84.0 L 107.0 84.0 L 111.0 84.0 L 115.0 84.0 L 119.0 84.0 L 122.0 84.0 L 124.0 84.0 L 126.0 85.0 " stroke="black" fill="none" stroke-width="5.0" stroke-linecap="round" stroke-linejoin="round" />
<path d="M 162.0 87.0 L 162.0 87.0 L 162.0 87.0 L 162.0 87.0 L 161.0 87.0 L 161.0 87.0 L 160.0 87.0 L 160.0 87.0 L 160.0 87.0 L 159.0 87.0 L 159.0 87.0 L 159.0 87.0 L 159.0 87.0 L 159.0 87.0 L 159.0 87.0 L 160.0 87.0 L 162.0 87.0 L 163.0 87.0 L 165.0 87.0 L 168.0 88.0 L 170.0 88.0 L 173.0 88.0 L 176.0 88.0 L 179.0 88.0 L 182.0 88.0 L 184.0 88.0 L 187.0 88.0 L 189.0 88.0 L 191.0 88.0 L 193.0 88.0 L 194.0 88.0 L 196.0 88.0 L 197.0 88.0 L 198.0 88.0 L 200.0 88.0 L 202.0 88.0 L 203.0 88.0 L 205.0 88.0 L 207.0 88.0 L 208.0 88.0 L 210.0 88.0 L 212.0 88.0 L 214.0 88.0 L 215.0 88.0 L 217.0 88.0 L 219.0 88.0 L 220.0 88.0 L 221.0 88.0 L 222.0 88.0 L 223.0 88.0 L 224.0 88.0 L 225.0 88.0 L 225.0 88.0 L 226.0 88.0 L 226.0 88.0 L 226.0 88.0 " stroke="black" fill="none" stroke-width="5.0" stroke-linecap="round" stroke-linejoin="round" />
<path d="M 193.0 75.0 L 193.0 75.0 L 193.0 74.0 L 193.0 73.0 L 193.0 73.0 L 193.0 72.0 L 193.0 72.0 L 193.0 72.0 L 193.0 72.0 L 193.0 72.0 L 193.0 72.0 L 193.0 73.0 L 194.0 75.0 L 194.0 77.0 L 194.0 80.0 L 194.0 83.0 L 194.0 86.0 L 194.0 89.0 L 194.0 91.0 L 194.0 94.0 L 194.0 96.0 " stroke="black" fill="none" stroke-width="5.0" stroke-linecap="round" stroke-linejoin="round" />
<path d="M 145.0 107.0 L 145.0 107.0 L 145.0 107.0 L 144.0 107.0 L 144.0 107.0 L 144.0 107.0 L 144.0 107.0 L 144.0 107.0 L 144.0 107.0 L 144.0 107.0 L 144.0 108.0 L 144.0 109.0 L 144.0 111.0 L 145.0 112.0 L 146.0 113.0 L 148.0 114.0 L 149.0 116.0 L 150.0 117.0 " stroke="black" fill="none" stroke-width="5.0" stroke-linecap="round" stroke-linejoin="round" />
<path d="M 77.0 123.0 L 77.0 123.0 L 77.0 123.0 L 77.0 123.0 L 77.0 122.0 L 77.0 122.0 L 77.0 122.0 L 77.0 121.0 L 77.0 121.0 L 77.0 121.0 L 77.0 121.0 L 77.0 121.0 L 77.0 122.0 L 77.0 124.0 L 77.0 126.0 L 77.0 129.0 L 77.0 132.0 L 77.0 135.0 L 77.0 139.0 L 77.0 141.0 L 77.0 144.0 L 77.0 145.0 L 77.0 146.0 " stroke="black" fill="none" stroke-width="5.0" stroke-linecap="round" stroke-linejoin="round" />
<path d="M 81.0 123.0 L 81.0 123.0 L 81.0 123.0 L 81.0 123.0 L 81.0 123.0 L 81.0 123.0 L 81.0 123.0 L 81.0 123.0 L 81.0 123.0 L 81.0 123.0 L 81.0 123.0 L 80.0 123.0 L 80.0 123.0 L 80.0 123.0 L 80.0 123.0 L 80.0 123.0 L 80.0 123.0 L 80.0 123.0 L 81.0 123.0 L 81.0 123.0 L 82.0 123.0 L 82.0 123.0 L 83.0 123.0 L 84.0 123.0 L 85.0 123.0 L 87.0 123.0 L 88.0 122.0 L 89.0 122.0 L 91.0 122.0 L 92.0 122.0 L 94.0 122.0 L 95.0 121.0 L 96.0 121.0 L 97.0 121.0 L 99.0 121.0 L 100.0 121.0 L 100.0 121.0 L 101.0 121.0 L 102.0 121.0 L 103.0 121.0 L 104.0 121.0 L 104.0 121.0 L 105.0 121.0 L 105.0 121.0 L 106.0 121.0 L 107.0 121.0 L 107.0 121.0 L 107.0 121.0 L 108.0 121.0 L 108.0 121.0 L 109.0 121.0 L 110.0 121.0 L 110.0 121.0 L 111.0 121.0 L 111.0 121.0 L 112.0 121.0 L 113.0 121.0 L 113.0 121.0 L 114.0 121.0 L 115.0 121.0 L 116.0 121.0 L 116.0 121.0 L 117.0 121.0 L 118.0 121.0 L 118.0 121.0 L 119.0 121.0 L 120.0 121.0 L 121.0 121.0 L 121.0 121.0 L 122.0 121.0 L 123.0 121.0 L 124.0 121.0 L 124.0 120.0 L 125.0 120.0 L 126.0 120.0 L 127.0 120.0 L 128.0 120.0 L 129.0 120.0 L 130.0 120.0 L 131.0 120.0 L 132.0 120.0 L 133.0 120.0 L 135.0 120.0 L 136.0 120.0 L 137.0 120.0 L 138.0 120.0 L 139.0 120.0 L 140.0 120.0 L 141.0 120.0 L 142.0 120.0 L 143.0 120.0 L 144.0 120.0 L 145.0 120.0 L 146.0 120.0 L 146.0 120.0 L 147.0 120.0 L 148.0 120.0 L 148.0 120.0 L 149.0 120.0 L 149.0 120.0 L 150.0 120.0 L 150.0 120.0 L 151.0 120.0 L 152.0 120.0 L 152.0 120.0 L 153.0 120.0 L 153.0 120.0 L 154.0 120.0 L 155.0 120.0 L 155.0 120.0 L 156.0 120.0 L 157.0 120.0 L 157.0 119.0 L 158.0 119.0 L 159.0 119.0 L 160.0 119.0 L 161.0 119.0 L 162.0 119.0 L 163.0 119.0 L 164.0 119.0 L 165.0 119.0 L 166.0 119.0 L 167.0 118.0 L 169.0 118.0 L 170.0 118.0 L 171.0 118.0 L 172.0 118.0 L 174.0 118.0 L 175.0 117.0 L 177.0 117.0 L 178.0 117.0 L 179.0 117.0 L 180.0 117.0 L 182.0 117.0 L 183.0 117.0 L 184.0 117.0 L 185.0 117.0 L 186.0 117.0 L 187.0 117.0 L 188.0 117.0 L 189.0 117.0 L 190.0 117.0 L 191.0 117.0 L 191.0 117.0 L 192.0 117.0 L 193.0 117.0 L 193.0 117.0 L 194.0 117.0 L 195.0 117.0 L 195.0 117.0 L 196.0 117.0 L 197.0 117.0 L 198.0 117.0 L 198.0 117.0 L 199.0 117.0 L 200.0 117.0 L 200.0 117.0 L 201.0 117.0 L 202.0 117.0 L 203.0 117.0 L 203.0 117.0 L 204.0 117.0 L 205.0 117.0 L 206.0 117.0 L 207.0 117.0 L 208.0 117.0 L 209.0 117.0 L 210.0 117.0 L 211.0 117.0 L 212.0 117.0 L 213.0 117.0 L 214.0 117.0 L 215.0 117.0 L 216.0 117.0 L 217.0 117.0 L 218.0 117.0 L 219.0 117.0 L 220.0 117.0 L 221.0 117.0 L 221.0 117.0 L 222.0 117.0 L 223.0 117.0 L 224.0 117.0 L 225.0 117.0 L 225.0 117.0 L 226.0 118.0 L 227.0 118.0 L 227.0 118.0 L 228.0 118.0 L 229.0 118.0 L 229.0 118.0 L 230.0 118.0 L 230.0 118.0 L 231.0 118.0 L 231.0 119.0 L 231.0 119.0 L 232.0 119.0 L 232.0 119.0 L 232.0 119.0 L 232.0 119.0 L 232.0 119.0 L 233.0 119.0 L 233.0 119.0 L 233.0 119.0 L 233.0 120.0 L 233.0 120.0 L 233.0 120.0 L 233.0 120.0 L 233.0 121.0 L 233.0 121.0 L 233.0 122.0 L 233.0 123.0 L 233.0 124.0 L 232.0 125.0 L 232.0 127.0 L 231.0 128.0 L 231.0 130.0 L 230.0 132.0 L 230.0 134.0 L 229.0 136.0 L 229.0 138.0 L 228.0 140.0 L 228.0 142.0 L 227.0 143.0 " stroke="black" fill="none" stroke-width="5.0" stroke-linecap="round" stroke-linejoin="round" />
<path d="M 108.0 137.0 L 108.0 137.0 L 108.0 137.0 L 108.0 137.0 L 109.0 137.0 L 109.0 137.0 L 109.0 137.0 L 109.0 137.0 L 110.0 137.0 L 110.0 137.0 L 110.0 137.0 L 110.0 137.0 L 110.0 137.0 L 110.0 137.0 L 110.0 137.0 L 111.0 137.0 L 111.0 137.0 L 111.0 137.0 L 111.0 137.0 L 111.0 137.0 L 111.0 137.0 L 111.0 137.0 L 111.0 137.0 L 111.0 138.0 L 111.0 139.0 L 110.0 140.0 L 109.0 141.0 L 109.0 143.0 L 108.0 144.0 L 107.0 146.0 L 105.0 149.0 L 104.0 151.0 L 102.0 153.0 L 100.0 156.0 L 97.0 158.0 L 95.0 160.0 L 92.0 162.0 L 89.0 164.0 L 87.0 165.0 L 84.0 166.0 L 82.0 166.0 L 81.0 166.0 " stroke="black" fill="none" stroke-width="5.0" stroke-linecap="round" stroke-linejoin="round" />
<path d="M 189.0 143.0 L 189.0 143.0 L 189.0 142.0 L 189.0 142.0 L 188.0 141.0 L 188.0 141.0 L 187.0 141.0 L 187.0 141.0 L 187.0 141.0 L 187.0 141.0 L 187.0 141.0 L 187.0 142.0 L 188.0 143.0 L 188.0 144.0 L 189.0 145.0 L 191.0 146.0 L 192.0 147.0 L 193.0 148.0 L 195.0 150.0 L 197.0 151.0 L 199.0 153.0 L 202.0 154.0 L 205.0 156.0 L 207.0 157.0 L 210.0 159.0 L 212.0 160.0 L 214.0 160.0 L 216.0 161.0 L 217.0 161.0 L 217.0 161.0 L 217.0 162.0 " stroke="black" fill="none" stroke-width="5.0" stroke-linecap="round" stroke-linejoin="round" />
<path d="M 150.0 151.0 L 150.0 151.0 L 150.0 151.0 L 150.0 151.0 L 150.0 151.0 L 150.0 151.0 L 150.0 151.0 L 150.0 151.0 L 150.0 151.0 L 150.0 151.0 L 150.0 151.0 L 150.0 151.0 L 150.0 151.0 L 150.0 151.0 L 149.0 151.0 L 149.0 151.0 L 149.0 152.0 L 148.0 152.0 L 148.0 153.0 L 147.0 154.0 L 147.0 155.0 L 146.0 156.0 L 146.0 157.0 L 145.0 158.0 L 144.0 159.0 L 144.0 160.0 L 143.0 161.0 L 143.0 162.0 L 143.0 163.0 L 142.0 164.0 L 142.0 165.0 L 141.0 166.0 L 141.0 166.0 L 140.0 167.0 L 140.0 168.0 L 139.0 168.0 L 138.0 169.0 L 137.0 170.0 L 137.0 170.0 L 136.0 171.0 L 135.0 172.0 L 134.0 172.0 L 133.0 173.0 L 132.0 174.0 L 131.0 175.0 L 130.0 175.0 L 128.0 176.0 L 127.0 177.0 L 126.0 178.0 L 124.0 179.0 L 123.0 179.0 L 121.0 180.0 L 120.0 181.0 L 118.0 182.0 L 117.0 183.0 L 116.0 184.0 L 114.0 184.0 L 113.0 185.0 L 112.0 186.0 L 110.0 186.0 L 109.0 187.0 L 108.0 188.0 L 107.0 189.0 L 106.0 189.0 L 105.0 190.0 L 104.0 191.0 L 103.0 191.0 L 102.0 192.0 L 101.0 193.0 L 100.0 194.0 L 99.0 194.0 L 98.0 195.0 L 96.0 195.0 L 95.0 196.0 L 94.0 196.0 L 92.0 197.0 L 91.0 198.0 L 89.0 198.0 L 88.0 199.0 L 87.0 200.0 L 85.0 201.0 L 83.0 201.0 L 81.0 202.0 L 79.0 203.0 L 77.0 204.0 L 74.0 205.0 L 71.0 206.0 L 68.0 208.0 L 65.0 209.0 L 63.0 210.0 " stroke="black" fill="none" stroke-width="5.0" stroke-linecap="round" stroke-linejoin="round" />
<path d="M 149.0 161.0 L 149.0 161.0 L 149.0 161.0 L 149.0 161.0 L 149.0 160.0 L 149.0 160.0 L 149.0 160.0 L 149.0 160.0 L 149.0 160.0 L 149.0 160.0 L 149.0 160.0 L 149.0 160.0 L 149.0 159.0 L 149.0 159.0 L 149.0 159.0 L 149.0 159.0 L 149.0 159.0 L 149.0 159.0 L 149.0 159.0 L 149.0 159.0 L 149.0 159.0 L 149.0 160.0 L 150.0 160.0 L 151.0 161.0 L 151.0 161.0 L 152.0 162.0 L 153.0 162.0 L 154.0 163.0 L 155.0 164.0 L 156.0 165.0 L 157.0 165.0 L 158.0 166.0 L 159.0 167.0 L 160.0 168.0 L 161.0 169.0 L 162.0 169.0 L 163.0 170.0 L 164.0 171.0 L 164.0 171.0 L 165.0 172.0 L 166.0 173.0 L 167.0 173.0 L 168.0 173.0 L 168.0 174.0 L 169.0 175.0 L 170.0 175.0 L 171.0 176.0 L 171.0 176.0 L 172.0 177.0 L 173.0 177.0 L 174.0 178.0 L 175.0 178.0 L 176.0 179.0 L 177.0 179.0 L 178.0 180.0 L 178.0 180.0 L 179.0 181.0 L 180.0 181.0 L 180.0 182.0 L 181.0 182.0 L 182.0 183.0 L 182.0 183.0 L 183.0 184.0 L 184.0 184.0 L 184.0 185.0 L 185.0 185.0 L 185.0 185.0 L 186.0 186.0 L 187.0 186.0 L 187.0 186.0 L 188.0 187.0 L 188.0 187.0 L 189.0 188.0 L 189.0 188.0 L 190.0 188.0 L 190.0 188.0 L 191.0 189.0 L 191.0 189.0 L 192.0 189.0 L 192.0 189.0 L 193.0 190.0 L 193.0 190.0 L 194.0 190.0 L 194.0 191.0 L 195.0 191.0 L 196.0 191.0 L 196.0 191.0 L 197.0 192.0 L 198.0 192.0 L 198.0 192.0 L 199.0 193.0 L 200.0 193.0 L 200.0 194.0 L 201.0 194.0 L 202.0 195.0 L 203.0 195.0 L 204.0 195.0 L 205.0 196.0 L 206.0 196.0 L 207.0 197.0 L 209.0 197.0 L 210.0 198.0 L 211.0 198.0 L 213.0 199.0 L 214.0 199.0 L 215.0 200.0 L 217.0 200.0 L 218.0 201.0 L 219.0 201.0 L 221.0 202.0 L 222.0 202.0 L 223.0 203.0 L 225.0 203.0 L 226.0 204.0 L 227.0 204.0 L 229.0 205.0 L 230.0 205.0 L 231.0 205.0 L 232.0 206.0 L 233.0 206.0 L 234.0 206.0 L 234.0 207.0 L 235.0 207.0 L 236.0 208.0 L 236.0 208.0 L 237.0 208.0 L 237.0 209.0 L 238.0 209.0 L 239.0 209.0 " stroke="black" fill="none" stroke-width="5.0" stroke-linecap="round" stroke-linejoin="round" />
<path d="M 104.0 202.0 L 104.0 202.0 L 104.0 202.0 L 104.0 201.0 L 104.0 201.0 L 104.0 201.0 L 104.0 201.0 L 104.0 201.0 L 104.0 201.0 L 104.0 201.0 L 104.0 201.0 L 104.0 201.0 L 104.0 201.0 L 104.0 201.0 L 104.0 202.0 L 104.0 203.0 L 104.0 205.0 L 104.0 207.0 L 104.0 210.0 L 104.0 214.0 L 104.0 218.0 L 104.0 222.0 L 104.0 227.0 L 104.0 231.0 L 104.0 234.0 L 105.0 237.0 L 105.0 240.0 L 105.0 241.0 L 105.0 243.0 L 105.0 243.0 L 105.0 244.0 L 105.0 244.0 L 105.0 244.0 " stroke="black" fill="none" stroke-width="5.0" stroke-linecap="round" stroke-linejoin="round" />
<path d="M 107.0 198.0 L 107.0 198.0 L 107.0 198.0 L 107.0 198.0 L 107.0 198.0 L 107.0 197.0 L 107.0 197.0 L 107.0 197.0 L 107.0 197.0 L 107.0 197.0 L 107.0 197.0 L 107.0 197.0 L 107.0 196.0 L 107.0 196.0 L 107.0 196.0 L 107.0 196.0 L 107.0 196.0 L 107.0 196.0 L 107.0 196.0 L 107.0 196.0 L 108.0 196.0 L 108.0 196.0 L 109.0 196.0 L 110.0 196.0 L 111.0 197.0 L 112.0 197.0 L 114.0 197.0 L 115.0 197.0 L 117.0 197.0 L 118.0 197.0 L 120.0 197.0 L 122.0 197.0 L 123.0 197.0 L 125.0 197.0 L 126.0 197.0 L 127.0 197.0 L 129.0 197.0 L 130.0 197.0 L 131.0 197.0 L 132.0 197.0 L 133.0 197.0 L 134.0 197.0 L 135.0 197.0 L 136.0 197.0 L 137.0 197.0 L 138.0 197.0 L 139.0 197.0 L 139.0 197.0 L 140.0 197.0 L 141.0 197.0 L 141.0 197.0 L 142.0 197.0 L 143.0 197.0 L 143.0 197.0 L 144.0 197.0 L 145.0 197.0 L 145.0 197.0 L 146.0 197.0 L 147.0 197.0 L 147.0 197.0 L 148.0 197.0 L 148.0 197.0 L 149.0 197.0 L 150.0 197.0 L 150.0 197.0 L 151.0 197.0 L 151.0 197.0 L 152.0 197.0 L 152.0 198.0 L 153.0 198.0 L 153.0 198.0 L 154.0 198.0 L 155.0 198.0 L 155.0 198.0 L 156.0 198.0 L 157.0 198.0 L 157.0 198.0 L 158.0 198.0 L 158.0 198.0 L 159.0 198.0 L 160.0 198.0 L 161.0 198.0 L 162.0 198.0 L 163.0 198.0 L 164.0 198.0 L 164.0 198.0 L 165.0 198.0 L 167.0 198.0 L 168.0 198.0 L 169.0 198.0 L 170.0 198.0 L 171.0 198.0 L 173.0 197.0 L 174.0 197.0 L 176.0 197.0 L 177.0 197.0 L 178.0 197.0 L 179.0 197.0 L 180.0 196.0 L 181.0 196.0 L 182.0 196.0 L 184.0 196.0 L 185.0 196.0 L 185.0 196.0 L 186.0 196.0 L 187.0 196.0 L 188.0 195.0 L 189.0 195.0 L 189.0 195.0 L 190.0 195.0 L 191.0 195.0 L 191.0 195.0 L 192.0 195.0 L 192.0 195.0 L 193.0 195.0 L 193.0 195.0 L 194.0 195.0 L 194.0 195.0 L 194.0 195.0 L 194.0 195.0 L 194.0 195.0 L 195.0 195.0 L 195.0 195.0 L 195.0 195.0 L 195.0 195.0 L 195.0 195.0 L 195.0 195.0 L 196.0 195.0 L 196.0 195.0 L 196.0 196.0 L 196.0 196.0 L 196.0 196.0 L 196.0 196.0 L 196.0 196.0 L 196.0 196.0 L 197.0 196.0 L 197.0 196.0 L 197.0 196.0 L 197.0 196.0 L 197.0 196.0 L 197.0 196.0 L 197.0 196.0 L 197.0 196.0 L 197.0 196.0 L 198.0 196.0 L 198.0 196.0 L 198.0 196.0 L 198.0 196.0 L 198.0 196.0 L 198.0 196.0 L 198.0 197.0 L 198.0 197.0 L 198.0 197.0 L 198.0 197.0 L 198.0 197.0 L 198.0 198.0 L 198.0 198.0 L 198.0 199.0 L 199.0 200.0 L 199.0 201.0 L 199.0 203.0 L 199.0 205.0 L 199.0 207.0 L 199.0 210.0 L 199.0 213.0 L 199.0 216.0 L 199.0 219.0 L 199.0 222.0 L 199.0 225.0 L 199.0 227.0 L 199.0 230.0 L 199.0 232.0 L 199.0 234.0 L 199.0 236.0 L 199.0 238.0 L 198.0 240.0 L 198.0 241.0 L 198.0 243.0 L 198.0 243.0 L 198.0 244.0 L 198.0 245.0 L 198.0 245.0 L 198.0 245.0 L 198.0 245.0 L 198.0 245.0 L 198.0 245.0 L 198.0 245.0 L 198.0 245.0 L 198.0 245.0 L 198.0 245.0 L 198.0 244.0 L 198.0 244.0 L 198.0 244.0 " stroke="black" fill="none" stroke-width="5.0" stroke-linecap="round" stroke-linejoin="round" />
<path d="M 109.0 243.0 L 109.0 243.0 L 109.0 243.0 L 109.0 243.0 L 109.0 243.0 L 108.0 243.0 L 108.0 243.0 L 108.0 243.0 L 108.0 243.0 L 108.0 243.0 L 108.0 243.0 L 108.0 243.0 L 108.0 243.0 L 108.0 243.0 L 108.0 242.0 L 108.0 242.0 L 109.0 242.0 L 109.0 242.0 L 110.0 242.0 L 110.0 241.0 L 110.0 241.0 L 111.0 241.0 L 112.0 241.0 L 112.0 241.0 L 113.0 241.0 L 114.0 240.0 L 115.0 240.0 L 116.0 240.0 L 117.0 240.0 L 118.0 240.0 L 119.0 240.0 L 120.0 240.0 L 122.0 240.0 L 123.0 240.0 L 125.0 240.0 L 126.0 240.0 L 128.0 240.0 L 130.0 240.0 L 131.0 240.0 L 133.0 240.0 L 134.0 240.0 L 135.0 240.0 L 137.0 240.0 L 138.0 240.0 L 139.0 240.0 L 140.0 240.0 L 141.0 240.0 L 142.0 240.0 L 143.0 240.0 L 144.0 240.0 L 145.0 240.0 L 146.0 240.0 L 148.0 240.0 L 148.0 240.0 L 150.0 240.0 L 150.0 240.0 L 151.0 240.0 L 152.0 240.0 L 153.0 240.0 L 154.0 240.0 L 155.0 240.0 L 156.0 239.0 L 157.0 239.0 L 158.0 239.0 L 159.0 239.0 L 160.0 239.0 L 161.0 239.0 L 162.0 239.0 L 164.0 239.0 L 165.0 239.0 L 166.0 239.0 L 168.0 239.0 L 170.0 239.0 L 172.0 239.0 L 174.0 239.0 L 176.0 239.0 L 178.0 239.0 L 180.0 239.0 L 182.0 239.0 L 183.0 238.0 L 185.0 238.0 L 187.0 238.0 L 188.0 238.0 L 189.0 237.0 L 191.0 237.0 L 192.0 237.0 L 193.0 237.0 L 194.0 236.0 L 194.0 236.0 L 195.0 236.0 L 196.0 236.0 L 196.0 236.0 L 196.0 236.0 L 196.0 236.0 L 197.0 236.0 L 197.0 236.0 L 197.0 236.0 L 197.0 236.0 L 198.0 236.0 L 198.0 235.0 L 198.0 235.0 " stroke="black" fill="none" stroke-width="5.0" stroke-linecap="round" stroke-linejoin="round" />
</svg>