<svg xmlns="http://www.w3.org/2000/svg" width="300" height="300" viewBox="0 0 300 300">
<path d="M 143.0 73.0 L 142.0 73.0 L 142.0 73.0 L 141.0 73.0 L 141.0 73.0 L 141.0 73.0 L 141.0 74.0 L 141.0 75.0 L 142.0 76.0 L 144.0 78.0 L 146.0 79.0 L 148.0 81.0 L 150.0 82.0 L 152.0 84.0 L 154.0 86.0 L 156.0 88.0 L 158.0 90.0 L 159.0 91.0 " stroke="black" fill="none" stroke-width="5.0" stroke-linecap="round" stroke-linejoin="round" />
<path d="M 61.0 107.0 L 61.0 107.0 L 61.0 107.0 L 61.0 107.0 L 61.0 107.0 L 60.0 107.0 L 60.0 107.0 L 60.0 106.0 L 60.0 106.0 L 60.0 106.0 L 60.0 105.0 L 60.0 105.0 L 60.0 105.0 L 60.0 105.0 L 60.0 105.0 L 60.0 105.0 L 60.0 104.0 L 60.0 104.0 L 60.0 104.0 L 60.0 104.0 L 60.0 104.0 L 60.0 104.0 L 60.0 104.0 L 60.0 104.0 L 60.0 104.0 L 61.0 104.0 L 61.0 104.0 L 61.0 104.0 L 62.0 104.0 L 62.0 104.0 L 62.0 105.0 L 62.0 105.0 L 63.0 105.0 L 63.0 105.0 L 64.0 105.0 L 64.0 105.0 L 64.0 106.0 L 64.0 106.0 L 65.0 106.0 L 65.0 106.0 L 65.0 106.0 L 65.0 106.0 L 66.0 107.0 L 66.0 107.0 L 66.0 107.0 L 67.0 107.0 L 67.0 107.0 L 67.0 107.0 L 68.0 107.0 L 68.0 107.0 L 69.0 107.0 L 69.0 107.0 L 69.0 108.0 L 70.0 108.0 L 70.0 108.0 L 71.0 108.0 L 71.0 108.0 L 72.0 108.0 L 72.0 108.0 L 73.0 108.0 L 74.0 108.0 L 74.0 108.0 L 75.0 108.0 L 75.0 108.0 L 76.0 108.0 L 77.0 108.0 L 77.0 108.0 L 78.0 108.0 L 79.0 108.0 L 79.0 108.0 L 80.0 108.0 L 81.0 108.0 L 81.0 108.0 L 82.0 108.0 L 83.0 108.0 L 83.0 108.0 L 84.0 108.0 L 85.0 108.0 L 85.0 108.0 L 86.0 108.0 L 87.0 108.0 L 87.0 108.0 L 88.0 108.0 L 88.0 108.0 L 89.0 108.0 L 90.0 108.0 L 90.0 108.0 L 91.0 108.0 L 92.0 108.0 L 92.0 108.0 L 93.0 108.0 L 94.0 108.0 L 94.0 108.0 L 95.0 108.0 L 96.0 108.0 L 96.0 108.0 L 97.0 108.0 L 98.0 108.0 L 98.0 108.0 L 99.0 108.0 L 100.0 108.0 L 100.0 108.0 L 101.0 108.0 L 101.0 108.0 L 102.0 108.0 L 102.0 108.0 L 103.0 108.0 L 103.0 108.0 L 104.0 108.0 L 104.0 108.0 L 104.0 108.0 L 105.0 108.0 L 105.0 108.0 L 105.0 108.0 L 106.0 108.0 L 106.0 108.0 L 107.0 108.0 L 107.0 108.0 L 107.0 108.0 L 108.0 108.0 L 108.0 108.0 L 108.0 108.0 L 109.0 108.0 L 109.0 108.0 L 110.0 108.0 L 110.0 108.0 L 110.0 108.0 L 111.0 108.0 L 111.0 108.0 L 112.0 108.0 L 112.0 108.0 L 113.0 108.0 L 113.0 108.0 L 114.0 108.0 L 114.0 108.0 L 115.0 108.0 L 115.0 108.0 L 116.0 108.0 L 116.0 108.0 L 117.0 108.0 L 118.0 108.0 L 118.0 108.0 L 119.0 108.0 L 119.0 108.0 L 120.0 108.0 L 121.0 108.0 L 121.0 108.0 L 122.0 108.0 L 123.0 108.0 L 123.0 108.0 L 124.0 108.0 L 124.0 108.0 L 125.0 108.0 L 126.0 108.0 L 126.0 108.0 L 127.0 108.0 L 128.0 108.0 L 129.0 108.0 L 130.0 109.0 L 130.0 109.0 L 131.0 109.0 L 132.0 109.0 L 132.0 109.0 L 133.0 109.0 L 134.0 109.0 L 134.0 109.0 L 135.0 109.0 L 135.0 109.0 L 136.0 109.0 L 137.0 109.0 L 137.0 109.0 L 138.0 109.0 L 138.0 109.0 L 139.0 109.0 L 139.0 109.0 L 140.0 109.0 L 140.0 109.0 L 141.0 109.0 L 141.0 109.0 L 142.0 109.0 L 143.0 109.0 L 143.0 109.0 L 144.0 109.0 L 144.0 109.0 L 145.0 109.0 L 145.0 109.0 L 145.0 109.0 L 146.0 109.0 L 146.0 109.0 L 147.0 109.0 L 147.0 109.0 L 147.0 109.0 L 148.0 109.0 L 148.0 109.0 L 148.0 109.0 L 149.0 109.0 L 149.0 109.0 L 150.0 109.0 L 150.0 109.0 L 150.0 109.0 L 150.0 109.0 L 151.0 109.0 L 151.0 109.0 L 152.0 109.0 L 152.0 109.0 L 152.0 109.0 L 152.0 109.0 L 153.0 109.0 L 153.0 109.0 L 153.0 109.0 L 154.0 109.0 L 154.0 109.0 L 155.0 109.0 L 155.0 109.0 L 155.0 109.0 L 156.0 109.0 L 156.0 109.0 L 157.0 109.0 L 157.0 109.0 L 157.0 109.0 L 158.0 109.0 L 158.0 109.0 L 159.0 109.0 L 159.0 109.0 L 160.0 109.0 L 160.0 109.0 L 161.0 109.0 L 162.0 109.0 L 162.0 109.0 L 163.0 109.0 L 163.0 109.0 L 164.0 109.0 L 165.0 109.0 L 165.0 109.0 L 166.0 109.0 L 166.0 109.0 L 167.0 109.0 L 168.0 109.0 L 168.0 109.0 L 169.0 109.0 L 170.0 109.0 L 170.0 109.0 L 171.0 109.0 L 172.0 109.0 L 173.0 109.0 L 173.0 109.0 L 174.0 109.0 L 175.0 109.0 L 175.0 109.0 L 176.0 109.0 L 177.0 109.0 L 178.0 109.0 L 178.0 109.0 L 179.0 109.0 L 180.0 109.0 L 180.0 109.0 L 181.0 109.0 L 181.0 109.0 L 182.0 109.0 L 183.0 109.0 L 183.0 109.0 L 184.0 109.0 L 184.0 109.0 L 184.0 109.0 L 185.0 109.0 L 185.0 109.0 L 186.0 109.0 L 186.0 109.0 L 187.0 109.0 L 187.0 109.0 L 187.0 109.0 L 188.0 109.0 L 188.0 109.0 L 189.0 109.0 L 189.0 109.0 L 189.0 109.0 L 189.0 109.0 L 190.0 109.0 L 190.0 109.0 L 190.0 109.0 L 191.0 109.0 L 191.0 109.0 L 191.0 109.0 L 191.0 109.0 L 192.0 110.0 L 192.0 110.0 L 192.0 110.0 L 192.0 110.0 L 193.0 110.0 L 193.0 110.0 L 193.0 110.0 L 193.0 110.0 L 194.0 110.0 L 194.0 110.0 L 194.0 110.0 L 194.0 110.0 L 195.0 111.0 L 195.0 111.0 L 195.0 111.0 L 196.0 111.0 L 196.0 111.0 L 196.0 111.0 L 197.0 111.0 L 197.0 111.0 L 197.0 111.0 L 198.0 111.0 L 198.0 111.0 L 198.0 111.0 L 198.0 111.0 L 199.0 111.0 L 199.0 111.0 L 200.0 111.0 L 200.0 111.0 L 200.0 111.0 L 201.0 111.0 L 201.0 111.0 L 201.0 111.0 L 202.0 111.0 L 202.0 111.0 L 202.0 111.0 L 203.0 111.0 L 203.0 111.0 L 204.0 111.0 L 204.0 111.0 L 205.0 111.0 L 205.0 111.0 L 205.0 111.0 L 206.0 111.0 L 207.0 111.0 L 207.0 111.0 L 207.0 111.0 L 208.0 111.0 L 209.0 111.0 L 209.0 111.0 L 209.0 111.0 L 210.0 111.0 L 210.0 111.0 L 211.0 111.0 L 212.0 111.0 L 212.0 111.0 L 213.0 111.0 L 213.0 111.0 L 214.0 111.0 L 214.0 111.0 L 215.0 111.0 L 215.0 111.0 L 216.0 111.0 L 216.0 111.0 L 217.0 111.0 L 218.0 111.0 L 218.0 111.0 L 219.0 111.0 L 219.0 111.0 L 220.0 111.0 L 220.0 111.0 L 221.0 111.0 L 221.0 111.0 L 222.0 111.0 L 223.0 111.0 L 223.0 111.0 L 224.0 111.0 L 224.0 111.0 L 225.0 111.0 L 226.0 111.0 L 226.0 111.0 L 227.0 111.0 L 227.0 111.0 L 228.0 111.0 L 228.0 111.0 L 229.0 111.0 L 230.0 111.0 L 230.0 111.0 L 230.0 111.0 L 231.0 111.0 L 232.0 111.0 L 232.0 111.0 L 233.0 111.0 L 233.0 111.0 L 234.0 111.0 L 235.0 111.0 L 235.0 111.0 L 236.0 111.0 L 236.0 111.0 L 237.0 111.0 L 238.0 111.0 L 238.0 111.0 L 239.0 111.0 L 239.0 111.0 L 240.0 111.0 " stroke="black" fill="none" stroke-width="5.0" stroke-linecap="round" stroke-linejoin="round" />
<path d="M 99.0 134.0 L 99.0 134.0 L 99.0 134.0 L 98.0 134.0 L 98.0 134.0 L 98.0 134.0 L 97.0 134.0 L 97.0 134.0 L 97.0 134.0 L 97.0 134.0 L 97.0 134.0 L 97.0 134.0 L 98.0 134.0 L 98.0 134.0 L 99.0 134.0 L 100.0 134.0 L 101.0 134.0 L 102.0 134.0 L 103.0 134.0 L 104.0 134.0 L 104.0 134.0 L 105.0 134.0 L 106.0 134.0 L 107.0 134.0 L 108.0 134.0 L 109.0 134.0 L 110.0 134.0 L 111.0 134.0 L 112.0 134.0 L 113.0 134.0 L 115.0 134.0 L 116.0 134.0 L 117.0 134.0 L 119.0 134.0 L 120.0 134.0 L 122.0 134.0 L 123.0 134.0 L 125.0 134.0 L 126.0 134.0 L 128.0 134.0 L 129.0 134.0 L 131.0 134.0 L 132.0 134.0 L 134.0 134.0 L 135.0 134.0 L 136.0 134.0 L 138.0 134.0 L 139.0 134.0 L 141.0 134.0 L 142.0 134.0 L 143.0 134.0 L 144.0 134.0 L 145.0 134.0 L 146.0 134.0 L 147.0 134.0 L 148.0 134.0 L 149.0 134.0 L 150.0 134.0 L 150.0 134.0 L 151.0 134.0 L 152.0 134.0 L 153.0 134.0 L 153.0 134.0 L 154.0 134.0 L 155.0 135.0 L 156.0 135.0 L 157.0 135.0 L 158.0 135.0 L 159.0 135.0 L 160.0 135.0 L 161.0 135.0 L 162.0 135.0 L 163.0 135.0 L 164.0 135.0 L 166.0 135.0 L 167.0 135.0 L 168.0 135.0 L 169.0 135.0 L 171.0 135.0 L 173.0 135.0 L 175.0 135.0 L 177.0 135.0 L 179.0 135.0 L 181.0 135.0 L 183.0 135.0 L 185.0 135.0 L 187.0 135.0 L 189.0 135.0 L 191.0 136.0 L 193.0 136.0 L 194.0 136.0 L 196.0 136.0 L 197.0 136.0 L 198.0 136.0 L 199.0 137.0 L 200.0 137.0 L 200.0 138.0 L 200.0 139.0 " stroke="black" fill="none" stroke-width="5.0" stroke-linecap="round" stroke-linejoin="round" />
<path d="M 95.0 170.0 L 95.0 170.0 L 95.0 170.0 L 95.0 170.0 L 95.0 170.0 L 95.0 170.0 L 95.0 170.0 L 95.0 170.0 L 95.0 170.0 L 96.0 170.0 L 96.0 170.0 L 96.0 170.0 L 96.0 170.0 L 96.0 170.0 L 97.0 170.0 L 97.0 170.0 L 97.0 170.0 L 98.0 170.0 L 98.0 170.0 L 99.0 170.0 L 99.0 170.0 L 100.0 170.0 L 101.0 170.0 L 102.0 170.0 L 103.0 170.0 L 104.0 170.0 L 105.0 170.0 L 106.0 170.0 L 107.0 170.0 L 108.0 170.0 L 108.0 170.0 L 110.0 170.0 L 110.0 170.0 L 111.0 170.0 L 112.0 170.0 L 113.0 170.0 L 114.0 170.0 L 115.0 170.0 L 116.0 170.0 L 116.0 170.0 L 118.0 170.0 L 118.0 170.0 L 119.0 170.0 L 120.0 170.0 L 121.0 170.0 L 123.0 170.0 L 124.0 170.0 L 125.0 170.0 L 126.0 170.0 L 128.0 170.0 L 129.0 170.0 L 130.0 170.0 L 132.0 170.0 L 133.0 170.0 L 135.0 170.0 L 137.0 170.0 L 138.0 170.0 L 140.0 170.0 L 142.0 170.0 L 143.0 170.0 L 144.0 170.0 L 146.0 170.0 L 147.0 170.0 L 148.0 170.0 L 149.0 170.0 L 150.0 170.0 L 151.0 170.0 L 152.0 170.0 L 153.0 170.0 L 154.0 170.0 L 156.0 170.0 L 157.0 170.0 L 158.0 170.0 L 160.0 170.0 L 161.0 170.0 L 163.0 169.0 L 165.0 169.0 L 167.0 169.0 L 168.0 169.0 L 170.0 169.0 L 172.0 169.0 L 174.0 169.0 L 176.0 169.0 L 178.0 169.0 L 179.0 169.0 L 181.0 169.0 L 183.0 169.0 L 184.0 169.0 L 186.0 169.0 L 187.0 169.0 L 189.0 169.0 L 190.0 169.0 L 192.0 169.0 L 193.0 169.0 L 194.0 169.0 L 195.0 169.0 L 196.0 169.0 L 196.0 169.0 L 197.0 169.0 L 198.0 168.0 L 198.0 168.0 L 199.0 168.0 L 199.0 168.0 L 200.0 168.0 L 201.0 168.0 L 202.0 167.0 L 204.0 167.0 L 205.0 166.0 L 207.0 166.0 L 207.0 166.0 " stroke="black" fill="none" stroke-width="5.0" stroke-linecap="round" stroke-linejoin="round" />
<path d="M 96.0 203.0 L 96.0 203.0 L 96.0 203.0 L 96.0 203.0 L 96.0 203.0 L 96.0 203.0 L 96.0 204.0 L 96.0 205.0 L 96.0 207.0 L 96.0 211.0 L 96.0 217.0 L 96.0 224.0 L 96.0 232.0 L 96.0 240.0 L 96.0 245.0 L 96.0 249.0 " stroke="black" fill="none" stroke-width="5.0" stroke-linecap="round" stroke-linejoin="round" />
<path d="M 100.0 200.0 L 100.0 200.0 L 99.0 200.0 L 99.0 200.0 L 99.0 200.0 L 98.0 200.0 L 98.0 200.0 L 98.0 200.0 L 98.0 200.0 L 98.0 200.0 L 98.0 200.0 L 98.0 200.0 L 98.0 200.0 L 98.0 200.0 L 99.0 200.0 L 99.0 200.0 L 100.0 200.0 L 101.0 200.0 L 101.0 200.0 L 102.0 200.0 L 103.0 200.0 L 104.0 200.0 L 105.0 200.0 L 105.0 200.0 L 106.0 200.0 L 107.0 200.0 L 108.0 200.0 L 109.0 200.0 L 110.0 200.0 L 111.0 200.0 L 112.0 200.0 L 113.0 200.0 L 115.0 200.0 L 116.0 200.0 L 118.0 200.0 L 119.0 200.0 L 120.0 200.0 L 121.0 199.0 L 122.0 199.0 L 123.0 199.0 L 124.0 199.0 L 125.0 199.0 L 126.0 199.0 L 127.0 199.0 L 128.0 198.0 L 128.0 198.0 L 129.0 198.0 L 130.0 198.0 L 131.0 198.0 L 131.0 198.0 L 132.0 198.0 L 133.0 198.0 L 134.0 198.0 L 135.0 198.0 L 135.0 198.0 L 136.0 198.0 L 137.0 198.0 L 138.0 198.0 L 138.0 198.0 L 139.0 198.0 L 140.0 198.0 L 141.0 198.0 L 142.0 198.0 L 143.0 198.0 L 144.0 198.0 L 144.0 198.0 L 145.0 199.0 L 146.0 199.0 L 147.0 199.0 L 148.0 199.0 L 149.0 200.0 L 150.0 200.0 L 150.0 200.0 L 151.0 200.0 L 152.0 201.0 L 153.0 201.0 L 153.0 201.0 L 154.0 201.0 L 155.0 201.0 L 156.0 201.0 L 157.0 201.0 L 158.0 201.0 L 158.0 201.0 L 159.0 201.0 L 160.0 201.0 L 161.0 201.0 L 162.0 201.0 L 164.0 201.0 L 165.0 201.0 L 166.0 201.0 L 167.0 201.0 L 169.0 201.0 L 171.0 201.0 L 172.0 201.0 L 174.0 202.0 L 176.0 202.0 L 178.0 202.0 L 179.0 202.0 L 181.0 202.0 L 183.0 202.0 L 184.0 202.0 L 186.0 202.0 L 187.0 202.0 L 188.0 202.0 L 189.0 202.0 L 190.0 202.0 L 191.0 202.0 L 192.0 202.0 L 192.0 202.0 L 193.0 202.0 L 194.0 202.0 L 194.0 203.0 L 195.0 203.0 L 196.0 203.0 L 196.0 203.0 L 197.0 203.0 L 198.0 203.0 L 199.0 203.0 L 199.0 203.0 L 200.0 203.0 L 201.0 203.0 L 201.0 203.0 L 202.0 203.0 L 202.0 203.0 L 202.0 203.0 L 202.0 203.0 L 202.0 203.0 L 202.0 203.0 L 203.0 203.0 L 203.0 203.0 L 203.0 203.0 L 203.0 204.0 L 203.0 204.0 L 203.0 205.0 L 203.0 206.0 L 203.0 208.0 L 203.0 210.0 L 203.0 213.0 L 203.0 216.0 L 203.0 220.0 L 203.0 225.0 L 203.0 229.0 L 203.0 233.0 L 203.0 236.0 L 203.0 239.0 L 203.0 240.0 L 203.0 242.0 L 203.0 243.0 L 204.0 243.0 L 204.0 243.0 L 204.0 244.0 L 204.0 244.0 L 203.0 244.0 " stroke="black" fill="none" stroke-width="5.0" stroke-linecap="round" stroke-linejoin="round" />
<path d="M 99.0 247.0 L 99.0 247.0 L 99.0 247.0 L 98.0 247.0 L 98.0 247.0 L 98.0 247.0 L 98.0 247.0 L 98.0 247.0 L 98.0 247.0 L 98.0 247.0 L 99.0 247.0 L 100.0 247.0 L 101.0 247.0 L 102.0 247.0 L 103.0 247.0 L 105.0 247.0 L 106.0 247.0 L 107.0 247.0 L 108.0 247.0 L 110.0 247.0 L 112.0 246.0 L 114.0 246.0 L 116.0 246.0 L 117.0 245.0 L 119.0 245.0 L 121.0 245.0 L 122.0 244.0 L 124.0 244.0 L 125.0 244.0 L 126.0 244.0 L 127.0 244.0 L 129.0 244.0 L 130.0 244.0 L 132.0 244.0 L 133.0 244.0 L 135.0 244.0 L 136.0 244.0 L 138.0 244.0 L 140.0 244.0 L 142.0 244.0 L 144.0 244.0 L 146.0 244.0 L 148.0 244.0 L 150.0 245.0 L 152.0 245.0 L 154.0 245.0 L 156.0 245.0 L 158.0 245.0 L 160.0 245.0 L 163.0 245.0 L 165.0 245.0 L 168.0 246.0 L 171.0 246.0 L 174.0 247.0 L 177.0 247.0 L 180.0 247.0 L 184.0 247.0 L 186.0 247.0 L 189.0 247.0 L 191.0 247.0 L 193.0 247.0 L 195.0 247.0 L 196.0 247.0 L 198.0 247.0 L 199.0 247.0 L 200.0 247.0 L 201.0 246.0 L 202.0 246.0 L 203.0 246.0 L 203.0 245.0 L 204.0 245.0 L 204.0 245.0 L 204.0 245.0 " stroke="black" fill="none" stroke-width="5.0" stroke-linecap="round" stroke-linejoin="round" />
</svg>