<svg xmlns="http://www.w3.org/2000/svg" width="300" height="300" viewBox="0 0 300 300">
<path d="M 64.0 86.0 L 64.0 86.0 L 64.0 86.0 L 63.0 85.0 L 63.0 85.0 L 62.0 85.0 L 62.0 85.0 L 62.0 85.0 L 62.0 85.0 L 63.0 85.0 L 65.0 84.0 L 68.0 84.0 L 73.0 83.0 L 78.0 82.0 L 81.0 81.0 " stroke="black" fill="none" stroke-width="5.0" stroke-linecap="round" stroke-linejoin="round" />
<path d="M 92.0 71.0 L 92.0 71.0 L 91.0 71.0 L 90.0 71.0 L 90.0 72.0 L 89.0 72.0 L 89.0 73.0 L 89.0 74.0 L 90.0 76.0 L 91.0 80.0 L 92.0 83.0 L 93.0 89.0 L 93.0 95.0 L 94.0 101.0 L 95.0 107.0 " stroke="black" fill="none" stroke-width="5.0" stroke-linecap="round" stroke-linejoin="round" />
<path d="M 127.0 84.0 L 125.0 84.0 L 122.0 83.0 L 120.0 83.0 L 119.0 83.0 L 119.0 83.0 L 119.0 83.0 L 119.0 82.0 L 120.0 82.0 L 122.0 82.0 L 125.0 82.0 L 129.0 82.0 L 133.0 81.0 L 137.0 81.0 L 141.0 80.0 L 145.0 80.0 L 147.0 80.0 L 149.0 80.0 " stroke="black" fill="none" stroke-width="5.0" stroke-linecap="round" stroke-linejoin="round" />
<path d="M 125.0 70.0 L 123.0 71.0 L 122.0 72.0 L 121.0 73.0 L 119.0 76.0 L 118.0 78.0 L 118.0 82.0 L 117.0 86.0 L 116.0 90.0 L 116.0 94.0 L 115.0 99.0 " stroke="black" fill="none" stroke-width="5.0" stroke-linecap="round" stroke-linejoin="round" />
<path d="M 64.0 121.0 L 64.0 121.0 L 63.0 121.0 L 63.0 121.0 L 63.0 121.0 L 63.0 121.0 L 63.0 122.0 L 63.0 124.0 L 63.0 127.0 L 64.0 130.0 L 65.0 133.0 L 65.0 137.0 L 66.0 140.0 L 67.0 142.0 L 67.0 144.0 L 68.0 144.0 L 68.0 143.0 " stroke="black" fill="none" stroke-width="5.0" stroke-linecap="round" stroke-linejoin="round" />
<path d="M 68.0 121.0 L 68.0 121.0 L 67.0 120.0 L 67.0 120.0 L 66.0 119.0 L 66.0 119.0 L 66.0 118.0 L 67.0 118.0 L 68.0 118.0 L 71.0 117.0 L 74.0 117.0 L 79.0 117.0 L 84.0 117.0 L 91.0 117.0 L 97.0 118.0 L 101.0 119.0 L 104.0 120.0 L 106.0 122.0 L 106.0 124.0 L 105.0 126.0 L 102.0 128.0 L 99.0 130.0 L 95.0 133.0 L 91.0 135.0 L 87.0 137.0 L 83.0 138.0 L 79.0 140.0 L 76.0 141.0 L 73.0 141.0 L 71.0 141.0 L 70.0 141.0 L 69.0 141.0 L 69.0 141.0 L 69.0 141.0 L 70.0 141.0 L 72.0 140.0 L 75.0 140.0 L 80.0 139.0 L 86.0 138.0 L 93.0 137.0 L 100.0 135.0 L 103.0 134.0 " stroke="black" fill="none" stroke-width="5.0" stroke-linecap="round" stroke-linejoin="round" />
<path d="M 118.0 114.0 L 117.0 114.0 L 116.0 115.0 L 115.0 115.0 L 115.0 116.0 L 115.0 118.0 L 115.0 120.0 L 115.0 122.0 L 115.0 125.0 L 116.0 128.0 L 116.0 130.0 L 116.0 133.0 L 116.0 134.0 L 116.0 135.0 L 116.0 135.0 L 116.0 134.0 " stroke="black" fill="none" stroke-width="5.0" stroke-linecap="round" stroke-linejoin="round" />
<path d="M 115.0 117.0 L 115.0 116.0 L 115.0 115.0 L 115.0 114.0 L 115.0 113.0 L 116.0 113.0 L 118.0 112.0 L 120.0 111.0 L 124.0 111.0 L 128.0 111.0 L 133.0 111.0 L 137.0 112.0 L 141.0 114.0 L 144.0 116.0 L 146.0 118.0 L 146.0 120.0 L 146.0 123.0 L 145.0 125.0 L 141.0 128.0 L 137.0 130.0 L 132.0 131.0 L 127.0 133.0 L 122.0 134.0 L 117.0 135.0 L 113.0 135.0 L 110.0 136.0 L 109.0 137.0 L 109.0 138.0 L 109.0 138.0 L 111.0 139.0 L 115.0 139.0 L 119.0 139.0 L 125.0 139.0 L 131.0 138.0 L 136.0 137.0 " stroke="black" fill="none" stroke-width="5.0" stroke-linecap="round" stroke-linejoin="round" />
<path d="M 85.0 157.0 L 85.0 156.0 L 85.0 154.0 L 86.0 153.0 L 86.0 152.0 L 86.0 152.0 L 86.0 152.0 L 85.0 152.0 L 84.0 153.0 L 82.0 156.0 L 80.0 159.0 L 77.0 163.0 L 74.0 168.0 L 71.0 174.0 L 67.0 180.0 L 63.0 188.0 L 59.0 194.0 L 56.0 199.0 L 52.0 203.0 L 51.0 204.0 L 50.0 204.0 L 52.0 200.0 L 55.0 198.0 L 58.0 195.0 L 61.0 191.0 L 63.0 188.0 L 65.0 186.0 L 68.0 183.0 L 69.0 182.0 L 71.0 181.0 L 73.0 181.0 L 74.0 181.0 L 75.0 181.0 L 76.0 183.0 L 77.0 185.0 L 79.0 188.0 L 80.0 191.0 L 81.0 195.0 L 82.0 200.0 L 82.0 205.0 L 82.0 212.0 L 82.0 219.0 L 81.0 229.0 L 80.0 236.0 L 80.0 242.0 L 80.0 247.0 L 81.0 247.0 " stroke="black" fill="none" stroke-width="5.0" stroke-linecap="round" stroke-linejoin="round" />
<path d="M 110.0 158.0 L 110.0 158.0 L 109.0 158.0 L 109.0 158.0 L 109.0 158.0 L 109.0 159.0 L 110.0 160.0 L 111.0 162.0 L 113.0 163.0 L 115.0 165.0 L 118.0 166.0 L 121.0 167.0 " stroke="black" fill="none" stroke-width="5.0" stroke-linecap="round" stroke-linejoin="round" />
<path d="M 90.0 170.0 L 86.0 170.0 L 83.0 170.0 L 81.0 171.0 L 81.0 171.0 L 82.0 172.0 L 86.0 172.0 L 93.0 172.0 L 99.0 172.0 L 105.0 171.0 L 111.0 170.0 L 117.0 169.0 L 122.0 168.0 L 128.0 167.0 L 132.0 167.0 L 136.0 167.0 " stroke="black" fill="none" stroke-width="5.0" stroke-linecap="round" stroke-linejoin="round" />
<path d="M 98.0 187.0 L 95.0 187.0 L 91.0 188.0 L 88.0 189.0 L 87.0 189.0 L 87.0 190.0 L 87.0 190.0 L 88.0 190.0 L 91.0 190.0 L 96.0 190.0 L 101.0 190.0 L 106.0 190.0 L 111.0 189.0 L 116.0 189.0 L 121.0 188.0 L 127.0 188.0 L 130.0 188.0 " stroke="black" fill="none" stroke-width="5.0" stroke-linecap="round" stroke-linejoin="round" />
<path d="M 95.0 211.0 L 93.0 211.0 L 90.0 211.0 L 87.0 212.0 L 85.0 213.0 L 85.0 213.0 L 85.0 213.0 L 87.0 213.0 L 91.0 213.0 L 97.0 213.0 L 103.0 213.0 L 108.0 212.0 L 113.0 211.0 L 119.0 211.0 L 125.0 210.0 L 132.0 209.0 L 135.0 208.0 " stroke="black" fill="none" stroke-width="5.0" stroke-linecap="round" stroke-linejoin="round" />
<path d="M 118.0 177.0 L 117.0 177.0 L 115.0 179.0 L 114.0 181.0 L 113.0 185.0 L 112.0 189.0 L 112.0 195.0 L 112.0 202.0 L 112.0 208.0 L 112.0 214.0 L 112.0 222.0 L 111.0 228.0 L 110.0 234.0 L 110.0 239.0 L 109.0 241.0 L 107.0 243.0 L 106.0 245.0 L 104.0 245.0 L 102.0 246.0 L 100.0 246.0 L 97.0 246.0 L 94.0 246.0 L 91.0 246.0 L 89.0 246.0 L 88.0 245.0 L 87.0 245.0 L 87.0 245.0 L 87.0 245.0 L 89.0 245.0 L 92.0 245.0 L 96.0 245.0 L 101.0 245.0 L 107.0 245.0 L 113.0 244.0 L 121.0 242.0 L 126.0 241.0 " stroke="black" fill="none" stroke-width="5.0" stroke-linecap="round" stroke-linejoin="round" />
<path d="M 192.0 84.0 L 192.0 84.0 L 191.0 84.0 L 191.0 84.0 L 191.0 84.0 L 191.0 84.0 L 190.0 87.0 L 189.0 92.0 L 187.0 99.0 L 185.0 107.0 L 181.0 117.0 L 176.0 126.0 L 172.0 133.0 L 168.0 139.0 L 166.0 143.0 L 165.0 144.0 L 165.0 144.0 L 165.0 142.0 L 165.0 140.0 " stroke="black" fill="none" stroke-width="5.0" stroke-linecap="round" stroke-linejoin="round" />
<path d="M 179.0 120.0 L 179.0 120.0 L 179.0 119.0 L 179.0 118.0 L 179.0 118.0 L 180.0 118.0 L 181.0 118.0 L 183.0 118.0 L 185.0 118.0 L 188.0 118.0 L 191.0 118.0 L 196.0 118.0 L 201.0 118.0 L 207.0 117.0 L 214.0 116.0 L 221.0 115.0 L 227.0 115.0 L 232.0 115.0 L 235.0 115.0 L 236.0 115.0 L 238.0 115.0 L 238.0 115.0 L 239.0 116.0 L 239.0 117.0 L 239.0 117.0 L 239.0 119.0 L 239.0 120.0 L 238.0 122.0 L 237.0 125.0 L 236.0 128.0 L 235.0 131.0 L 233.0 135.0 L 231.0 141.0 L 230.0 146.0 L 228.0 152.0 L 226.0 157.0 L 224.0 161.0 L 223.0 164.0 L 222.0 165.0 " stroke="black" fill="none" stroke-width="5.0" stroke-linecap="round" stroke-linejoin="round" />
<path d="M 197.0 130.0 L 197.0 130.0 L 197.0 130.0 L 197.0 130.0 L 197.0 130.0 L 197.0 131.0 L 197.0 132.0 L 197.0 134.0 L 197.0 137.0 L 197.0 142.0 L 198.0 148.0 L 198.0 155.0 L 198.0 163.0 L 198.0 172.0 L 197.0 182.0 L 194.0 192.0 L 191.0 202.0 L 187.0 212.0 L 182.0 222.0 L 175.0 234.0 L 168.0 243.0 L 162.0 250.0 L 156.0 256.0 L 153.0 259.0 L 151.0 260.0 L 151.0 260.0 " stroke="black" fill="none" stroke-width="5.0" stroke-linecap="round" stroke-linejoin="round" />
<path d="M 198.0 177.0 L 198.0 177.0 L 197.0 177.0 L 197.0 178.0 L 196.0 178.0 L 196.0 179.0 L 196.0 181.0 L 196.0 183.0 L 198.0 187.0 L 201.0 191.0 L 204.0 195.0 L 208.0 200.0 L 214.0 205.0 L 219.0 211.0 L 225.0 216.0 L 231.0 222.0 L 235.0 228.0 L 238.0 233.0 L 241.0 238.0 L 243.0 241.0 L 245.0 244.0 L 247.0 246.0 L 249.0 247.0 L 249.0 247.0 " stroke="black" fill="none" stroke-width="5.0" stroke-linecap="round" stroke-linejoin="round" />
</svg>