<svg xmlns="http://www.w3.org/2000/svg" width="300" height="300" viewBox="0 0 300 300">
<path d="M 58.0 82.0 L 58.0 82.0 L 57.0 82.0 L 56.0 82.0 L 56.0 82.0 L 55.0 82.0 L 55.0 82.0 L 55.0 82.0 L 55.0 82.0 L 55.0 82.0 L 56.0 82.0 L 57.0 83.0 L 59.0 83.0 L 61.0 83.0 L 63.0 83.0 L 66.0 83.0 L 68.0 83.0 L 71.0 83.0 L 75.0 83.0 L 79.0 83.0 " stroke="black" fill="none" stroke-width="5.0" stroke-linecap="round" stroke-linejoin="round" />
<path d="M 89.0 67.0 L 89.0 67.0 L 89.0 67.0 L 88.0 67.0 L 88.0 67.0 L 87.0 67.0 L 87.0 67.0 L 87.0 68.0 L 87.0 70.0 L 87.0 72.0 L 87.0 75.0 L 88.0 78.0 L 88.0 82.0 L 88.0 87.0 L 88.0 91.0 L 88.0 96.0 L 88.0 99.0 " stroke="black" fill="none" stroke-width="5.0" stroke-linecap="round" stroke-linejoin="round" />
<path d="M 120.0 81.0 L 120.0 81.0 L 120.0 81.0 L 119.0 81.0 L 119.0 81.0 L 118.0 81.0 L 118.0 81.0 L 118.0 81.0 L 118.0 81.0 L 118.0 81.0 L 119.0 81.0 L 120.0 81.0 L 122.0 81.0 L 124.0 81.0 L 127.0 82.0 L 130.0 82.0 L 134.0 82.0 L 138.0 82.0 L 141.0 82.0 L 145.0 82.0 L 148.0 82.0 L 150.0 82.0 L 151.0 82.0 " stroke="black" fill="none" stroke-width="5.0" stroke-linecap="round" stroke-linejoin="round" />
<path d="M 123.0 71.0 L 123.0 71.0 L 123.0 71.0 L 123.0 71.0 L 123.0 71.0 L 123.0 72.0 L 122.0 73.0 L 122.0 74.0 L 122.0 75.0 L 121.0 78.0 L 121.0 81.0 L 120.0 85.0 L 119.0 91.0 L 119.0 96.0 L 118.0 101.0 " stroke="black" fill="none" stroke-width="5.0" stroke-linecap="round" stroke-linejoin="round" />
<path d="M 66.0 115.0 L 66.0 115.0 L 66.0 115.0 L 66.0 115.0 L 65.0 115.0 L 65.0 115.0 L 65.0 115.0 L 65.0 115.0 L 65.0 115.0 L 65.0 116.0 L 65.0 118.0 L 65.0 121.0 L 66.0 125.0 L 66.0 128.0 L 66.0 130.0 L 66.0 132.0 L 67.0 136.0 L 67.0 138.0 L 67.0 140.0 L 67.0 140.0 L 68.0 140.0 L 68.0 137.0 " stroke="black" fill="none" stroke-width="5.0" stroke-linecap="round" stroke-linejoin="round" />
<path d="M 69.0 115.0 L 68.0 114.0 L 68.0 113.0 L 67.0 113.0 L 67.0 112.0 L 67.0 112.0 L 67.0 111.0 L 67.0 111.0 L 67.0 111.0 L 67.0 111.0 L 68.0 111.0 L 69.0 111.0 L 71.0 111.0 L 73.0 110.0 L 76.0 110.0 L 79.0 109.0 L 83.0 109.0 L 87.0 108.0 L 91.0 108.0 L 95.0 108.0 L 98.0 108.0 L 100.0 108.0 L 102.0 108.0 L 103.0 108.0 L 103.0 109.0 L 103.0 110.0 L 103.0 112.0 L 102.0 114.0 L 100.0 116.0 L 99.0 120.0 L 97.0 123.0 L 95.0 126.0 L 93.0 129.0 L 91.0 131.0 L 89.0 133.0 L 88.0 134.0 " stroke="black" fill="none" stroke-width="5.0" stroke-linecap="round" stroke-linejoin="round" />
<path d="M 77.0 137.0 L 77.0 137.0 L 75.0 138.0 L 74.0 139.0 L 73.0 139.0 L 72.0 140.0 L 71.0 140.0 L 71.0 140.0 L 71.0 140.0 L 71.0 140.0 L 71.0 140.0 L 71.0 140.0 L 72.0 140.0 L 73.0 140.0 L 75.0 139.0 L 77.0 139.0 L 80.0 138.0 L 84.0 137.0 L 89.0 136.0 L 94.0 134.0 " stroke="black" fill="none" stroke-width="5.0" stroke-linecap="round" stroke-linejoin="round" />
<path d="M 114.0 113.0 L 114.0 113.0 L 114.0 113.0 L 114.0 113.0 L 114.0 114.0 L 114.0 115.0 L 114.0 116.0 L 114.0 118.0 L 115.0 121.0 L 115.0 124.0 L 116.0 127.0 L 116.0 130.0 L 116.0 133.0 L 116.0 135.0 L 116.0 136.0 L 117.0 136.0 " stroke="black" fill="none" stroke-width="5.0" stroke-linecap="round" stroke-linejoin="round" />
<path d="M 116.0 115.0 L 116.0 115.0 L 116.0 115.0 L 116.0 114.0 L 115.0 114.0 L 115.0 114.0 L 115.0 113.0 L 116.0 113.0 L 117.0 113.0 L 119.0 113.0 L 122.0 112.0 L 125.0 112.0 L 129.0 112.0 L 133.0 112.0 L 137.0 112.0 L 140.0 112.0 L 143.0 112.0 L 145.0 113.0 L 147.0 114.0 L 148.0 115.0 L 148.0 116.0 L 148.0 118.0 L 148.0 120.0 L 148.0 122.0 L 148.0 125.0 L 146.0 127.0 L 145.0 129.0 L 143.0 131.0 L 141.0 133.0 L 138.0 135.0 L 135.0 137.0 " stroke="black" fill="none" stroke-width="5.0" stroke-linecap="round" stroke-linejoin="round" />
<path d="M 119.0 140.0 L 119.0 140.0 L 118.0 140.0 L 117.0 140.0 L 116.0 140.0 L 115.0 140.0 L 115.0 140.0 L 115.0 140.0 L 115.0 140.0 L 116.0 140.0 L 117.0 140.0 L 120.0 139.0 L 123.0 139.0 L 127.0 139.0 L 132.0 138.0 L 137.0 138.0 L 141.0 137.0 L 144.0 137.0 " stroke="black" fill="none" stroke-width="5.0" stroke-linecap="round" stroke-linejoin="round" />
<path d="M 89.0 150.0 L 89.0 150.0 L 89.0 150.0 L 89.0 150.0 L 89.0 150.0 L 89.0 150.0 L 89.0 150.0 L 89.0 150.0 L 90.0 151.0 L 90.0 151.0 L 90.0 152.0 L 90.0 152.0 L 90.0 154.0 L 90.0 155.0 L 90.0 157.0 L 89.0 159.0 L 87.0 162.0 L 85.0 165.0 L 83.0 169.0 L 79.0 174.0 L 75.0 179.0 L 71.0 185.0 L 66.0 191.0 L 62.0 196.0 L 59.0 199.0 L 57.0 202.0 L 54.0 204.0 L 52.0 205.0 L 51.0 205.0 " stroke="black" fill="none" stroke-width="5.0" stroke-linecap="round" stroke-linejoin="round" />
<path d="M 78.0 174.0 L 78.0 174.0 L 78.0 174.0 L 78.0 174.0 L 78.0 174.0 L 78.0 175.0 L 78.0 175.0 L 78.0 176.0 L 78.0 177.0 L 78.0 179.0 L 78.0 181.0 L 78.0 184.0 L 78.0 188.0 L 78.0 193.0 L 78.0 198.0 L 78.0 204.0 L 77.0 211.0 L 76.0 218.0 L 76.0 226.0 L 75.0 234.0 L 75.0 241.0 L 75.0 245.0 L 75.0 249.0 L 75.0 252.0 L 75.0 253.0 L 75.0 253.0 " stroke="black" fill="none" stroke-width="5.0" stroke-linecap="round" stroke-linejoin="round" />
<path d="M 110.0 153.0 L 110.0 153.0 L 109.0 153.0 L 109.0 153.0 L 109.0 153.0 L 109.0 153.0 L 109.0 153.0 L 109.0 153.0 L 109.0 153.0 L 109.0 153.0 L 109.0 153.0 L 110.0 154.0 L 112.0 155.0 L 113.0 157.0 L 114.0 158.0 L 116.0 160.0 L 117.0 161.0 L 119.0 162.0 L 119.0 164.0 " stroke="black" fill="none" stroke-width="5.0" stroke-linecap="round" stroke-linejoin="round" />
<path d="M 96.0 170.0 L 94.0 170.0 L 92.0 170.0 L 91.0 170.0 L 89.0 170.0 L 88.0 170.0 L 87.0 170.0 L 87.0 170.0 L 87.0 170.0 L 87.0 170.0 L 87.0 170.0 L 88.0 170.0 L 90.0 170.0 L 93.0 170.0 L 96.0 170.0 L 100.0 170.0 L 104.0 170.0 L 108.0 170.0 L 112.0 170.0 L 116.0 170.0 L 121.0 170.0 L 126.0 170.0 L 131.0 170.0 L 135.0 170.0 L 138.0 170.0 L 139.0 171.0 " stroke="black" fill="none" stroke-width="5.0" stroke-linecap="round" stroke-linejoin="round" />
<path d="M 89.0 190.0 L 88.0 190.0 L 86.0 190.0 L 85.0 190.0 L 83.0 190.0 L 83.0 190.0 L 82.0 190.0 L 82.0 190.0 L 83.0 190.0 L 84.0 190.0 L 85.0 190.0 L 87.0 190.0 L 90.0 190.0 L 93.0 190.0 L 97.0 190.0 L 101.0 190.0 L 105.0 190.0 L 109.0 190.0 L 115.0 190.0 L 121.0 190.0 L 127.0 190.0 L 133.0 189.0 L 138.0 189.0 L 141.0 189.0 " stroke="black" fill="none" stroke-width="5.0" stroke-linecap="round" stroke-linejoin="round" />
<path d="M 91.0 215.0 L 91.0 215.0 L 90.0 215.0 L 89.0 214.0 L 88.0 214.0 L 88.0 214.0 L 87.0 214.0 L 87.0 213.0 L 87.0 213.0 L 88.0 213.0 L 89.0 212.0 L 90.0 212.0 L 92.0 212.0 L 95.0 212.0 L 98.0 212.0 L 102.0 212.0 L 106.0 212.0 L 110.0 212.0 L 115.0 211.0 L 121.0 211.0 L 126.0 210.0 L 132.0 210.0 L 137.0 209.0 L 139.0 208.0 " stroke="black" fill="none" stroke-width="5.0" stroke-linecap="round" stroke-linejoin="round" />
<path d="M 119.0 174.0 L 119.0 174.0 L 119.0 174.0 L 118.0 174.0 L 118.0 174.0 L 118.0 174.0 L 117.0 174.0 L 117.0 175.0 L 117.0 176.0 L 117.0 179.0 L 117.0 182.0 L 116.0 187.0 L 116.0 194.0 L 116.0 201.0 L 115.0 209.0 L 114.0 217.0 L 114.0 224.0 L 113.0 230.0 L 113.0 235.0 L 113.0 237.0 L 112.0 238.0 " stroke="black" fill="none" stroke-width="5.0" stroke-linecap="round" stroke-linejoin="round" />
<path d="M 90.0 237.0 L 89.0 237.0 L 87.0 237.0 L 86.0 237.0 L 85.0 237.0 L 85.0 237.0 L 84.0 237.0 L 84.0 237.0 L 84.0 237.0 L 85.0 237.0 L 87.0 237.0 L 89.0 237.0 L 91.0 237.0 L 95.0 237.0 L 99.0 237.0 L 103.0 237.0 L 107.0 237.0 L 111.0 237.0 L 117.0 236.0 L 123.0 236.0 L 130.0 235.0 L 136.0 234.0 L 142.0 233.0 L 145.0 232.0 " stroke="black" fill="none" stroke-width="5.0" stroke-linecap="round" stroke-linejoin="round" />
<path d="M 188.0 77.0 L 188.0 77.0 L 188.0 77.0 L 188.0 77.0 L 188.0 77.0 L 188.0 78.0 L 188.0 78.0 L 187.0 80.0 L 187.0 82.0 L 186.0 85.0 L 185.0 90.0 L 182.0 96.0 L 180.0 104.0 L 176.0 113.0 L 172.0 121.0 L 169.0 128.0 L 166.0 134.0 L 163.0 139.0 L 162.0 142.0 L 161.0 143.0 " stroke="black" fill="none" stroke-width="5.0" stroke-linecap="round" stroke-linejoin="round" />
<path d="M 184.0 111.0 L 184.0 111.0 L 183.0 111.0 L 182.0 111.0 L 182.0 111.0 L 181.0 111.0 L 181.0 111.0 L 181.0 111.0 L 180.0 111.0 L 180.0 111.0 L 180.0 111.0 L 180.0 111.0 L 180.0 111.0 L 181.0 111.0 L 181.0 111.0 L 182.0 111.0 L 182.0 111.0 L 183.0 112.0 L 184.0 112.0 L 185.0 112.0 L 187.0 112.0 L 188.0 112.0 L 189.0 112.0 L 191.0 112.0 L 192.0 112.0 L 194.0 112.0 L 195.0 112.0 L 197.0 112.0 L 198.0 112.0 L 200.0 112.0 L 202.0 112.0 L 204.0 112.0 L 206.0 111.0 L 208.0 111.0 L 210.0 111.0 L 212.0 111.0 L 215.0 111.0 L 217.0 111.0 L 219.0 111.0 L 221.0 110.0 L 223.0 110.0 L 225.0 110.0 L 226.0 110.0 L 228.0 110.0 L 230.0 110.0 L 231.0 110.0 L 232.0 110.0 L 234.0 110.0 L 235.0 110.0 L 236.0 110.0 L 237.0 110.0 L 238.0 110.0 L 239.0 110.0 L 240.0 110.0 L 241.0 110.0 L 241.0 110.0 L 242.0 110.0 L 242.0 110.0 L 243.0 109.0 L 243.0 109.0 L 243.0 109.0 L 243.0 109.0 L 243.0 109.0 L 243.0 109.0 L 243.0 109.0 L 243.0 109.0 L 243.0 109.0 L 243.0 110.0 L 243.0 110.0 L 243.0 111.0 L 242.0 113.0 L 241.0 115.0 L 240.0 118.0 L 239.0 120.0 L 238.0 124.0 L 237.0 127.0 L 236.0 131.0 L 235.0 134.0 L 235.0 137.0 " stroke="black" fill="none" stroke-width="5.0" stroke-linecap="round" stroke-linejoin="round" />
<path d="M 196.0 124.0 L 196.0 124.0 L 196.0 124.0 L 196.0 124.0 L 196.0 124.0 L 196.0 124.0 L 196.0 124.0 L 196.0 124.0 L 196.0 124.0 L 196.0 124.0 L 197.0 124.0 L 197.0 124.0 L 197.0 125.0 L 197.0 126.0 L 197.0 128.0 L 197.0 130.0 L 197.0 132.0 L 197.0 134.0 L 197.0 137.0 L 197.0 141.0 L 197.0 144.0 L 197.0 147.0 L 197.0 150.0 L 197.0 153.0 L 197.0 156.0 L 197.0 158.0 L 197.0 161.0 L 197.0 163.0 L 196.0 165.0 L 196.0 167.0 L 196.0 168.0 L 196.0 170.0 L 196.0 172.0 L 196.0 173.0 L 196.0 175.0 L 195.0 177.0 L 195.0 180.0 L 194.0 182.0 L 194.0 184.0 L 193.0 186.0 L 193.0 188.0 L 193.0 190.0 L 192.0 192.0 L 192.0 194.0 L 191.0 196.0 L 191.0 198.0 L 190.0 199.0 L 190.0 201.0 L 189.0 203.0 L 189.0 206.0 L 188.0 208.0 L 187.0 210.0 L 186.0 212.0 L 185.0 214.0 L 184.0 216.0 L 183.0 218.0 L 182.0 221.0 L 181.0 224.0 L 180.0 227.0 L 178.0 230.0 L 176.0 233.0 L 174.0 236.0 L 172.0 239.0 L 169.0 241.0 L 167.0 242.0 L 165.0 244.0 L 164.0 244.0 " stroke="black" fill="none" stroke-width="5.0" stroke-linecap="round" stroke-linejoin="round" />
<path d="M 197.0 170.0 L 197.0 170.0 L 197.0 170.0 L 197.0 170.0 L 197.0 170.0 L 196.0 170.0 L 196.0 170.0 L 196.0 170.0 L 196.0 170.0 L 196.0 170.0 L 196.0 171.0 L 196.0 172.0 L 197.0 173.0 L 198.0 175.0 L 199.0 177.0 L 200.0 180.0 L 202.0 184.0 L 203.0 187.0 L 205.0 191.0 L 207.0 195.0 L 208.0 199.0 L 210.0 202.0 L 211.0 206.0 L 213.0 209.0 L 215.0 212.0 L 217.0 214.0 L 219.0 217.0 L 221.0 219.0 L 224.0 222.0 L 226.0 225.0 L 228.0 227.0 L 229.0 230.0 L 231.0 233.0 L 232.0 235.0 L 234.0 237.0 L 235.0 240.0 L 236.0 241.0 L 236.0 243.0 L 237.0 245.0 L 238.0 246.0 L 239.0 246.0 L 240.0 247.0 L 240.0 247.0 L 241.0 247.0 L 241.0 247.0 L 241.0 247.0 L 241.0 247.0 L 241.0 247.0 " stroke="black" fill="none" stroke-width="5.0" stroke-linecap="round" stroke-linejoin="round" />
</svg>