<svg xmlns="http://www.w3.org/2000/svg" width="300" height="300" viewBox="0 0 300 300">
<path d="M 83.0 107.0 L 83.0 107.0 L 83.0 107.0 L 83.0 107.0 L 83.0 107.0 L 83.0 106.0 L 83.0 106.0 L 83.0 107.0 L 83.0 109.0 L 84.0 114.0 L 85.0 121.0 L 85.0 132.0 L 85.0 147.0 L 85.0 154.0 L 85.0 175.0 L 85.0 186.0 L 85.0 193.0 L 85.0 195.0 " stroke="black" fill="none" stroke-width="5.0" stroke-linecap="round" stroke-linejoin="round" />
<path d="M 82.0 104.0 L 82.0 104.0 L 81.0 103.0 L 81.0 103.0 L 80.0 103.0 L 80.0 103.0 L 80.0 103.0 L 80.0 103.0 L 80.0 103.0 L 81.0 103.0 L 82.0 102.0 L 83.0 102.0 L 84.0 102.0 L 85.0 102.0 L 86.0 102.0 L 87.0 102.0 L 88.0 101.0 L 90.0 101.0 L 91.0 101.0 L 92.0 101.0 L 94.0 100.0 L 95.0 100.0 L 97.0 100.0 L 98.0 100.0 L 100.0 100.0 L 101.0 99.0 L 103.0 99.0 L 104.0 99.0 L 105.0 99.0 L 107.0 99.0 L 108.0 98.0 L 109.0 98.0 L 110.0 98.0 L 111.0 98.0 L 113.0 98.0 L 114.0 97.0 L 115.0 97.0 L 116.0 97.0 L 117.0 96.0 L 118.0 96.0 L 119.0 96.0 L 121.0 96.0 L 121.0 95.0 L 123.0 95.0 L 124.0 95.0 L 125.0 95.0 L 126.0 95.0 L 127.0 95.0 L 128.0 94.0 L 129.0 94.0 L 131.0 94.0 L 132.0 94.0 L 133.0 94.0 L 135.0 94.0 L 136.0 93.0 L 138.0 93.0 L 139.0 93.0 L 140.0 93.0 L 142.0 93.0 L 143.0 93.0 L 144.0 93.0 L 145.0 93.0 L 147.0 93.0 L 148.0 93.0 L 149.0 93.0 L 150.0 93.0 L 151.0 93.0 L 151.0 93.0 L 152.0 93.0 L 153.0 93.0 L 154.0 93.0 L 155.0 93.0 L 156.0 93.0 L 157.0 93.0 L 158.0 93.0 L 159.0 93.0 L 160.0 93.0 L 161.0 93.0 L 162.0 93.0 L 163.0 93.0 L 165.0 93.0 L 166.0 93.0 L 167.0 93.0 L 169.0 93.0 L 170.0 93.0 L 172.0 93.0 L 173.0 93.0 L 175.0 93.0 L 177.0 93.0 L 179.0 93.0 L 181.0 93.0 L 182.0 93.0 L 184.0 93.0 L 186.0 93.0 L 187.0 94.0 L 189.0 94.0 L 191.0 94.0 L 192.0 95.0 L 193.0 95.0 L 194.0 96.0 L 195.0 96.0 L 196.0 97.0 L 197.0 97.0 L 198.0 98.0 L 199.0 98.0 L 200.0 98.0 L 201.0 98.0 L 202.0 99.0 L 203.0 99.0 L 204.0 99.0 L 204.0 99.0 L 205.0 99.0 L 206.0 100.0 L 206.0 100.0 L 207.0 100.0 L 207.0 100.0 L 208.0 101.0 L 209.0 101.0 L 209.0 102.0 L 209.0 103.0 L 210.0 103.0 L 210.0 104.0 L 210.0 105.0 L 211.0 106.0 L 211.0 107.0 L 211.0 108.0 L 211.0 110.0 L 211.0 111.0 L 211.0 114.0 L 211.0 116.0 L 211.0 120.0 L 211.0 124.0 L 210.0 130.0 L 210.0 138.0 L 209.0 147.0 L 208.0 157.0 L 208.0 166.0 L 207.0 173.0 L 207.0 178.0 L 207.0 182.0 L 207.0 184.0 L 207.0 185.0 L 207.0 185.0 L 206.0 185.0 L 204.0 185.0 L 203.0 185.0 " stroke="black" fill="none" stroke-width="5.0" stroke-linecap="round" stroke-linejoin="round" />
<path d="M 98.0 146.0 L 98.0 146.0 L 96.0 145.0 L 94.0 145.0 L 93.0 144.0 L 93.0 144.0 L 93.0 144.0 L 93.0 144.0 L 93.0 144.0 L 94.0 145.0 L 97.0 145.0 L 101.0 145.0 L 105.0 145.0 L 112.0 145.0 L 120.0 145.0 L 131.0 144.0 L 144.0 143.0 L 154.0 142.0 L 165.0 141.0 L 176.0 139.0 L 185.0 137.0 L 193.0 136.0 L 198.0 134.0 L 201.0 133.0 L 203.0 133.0 L 205.0 133.0 L 206.0 133.0 L 206.0 133.0 " stroke="black" fill="none" stroke-width="5.0" stroke-linecap="round" stroke-linejoin="round" />
<path d="M 123.0 80.0 L 123.0 80.0 L 121.0 79.0 L 120.0 79.0 L 120.0 78.0 L 119.0 78.0 L 119.0 78.0 L 119.0 79.0 L 120.0 80.0 L 121.0 83.0 L 123.0 87.0 L 124.0 93.0 L 126.0 100.0 L 128.0 109.0 L 130.0 120.0 L 130.0 133.0 L 131.0 148.0 L 131.0 161.0 L 131.0 171.0 L 131.0 179.0 L 131.0 184.0 L 131.0 187.0 L 133.0 188.0 L 133.0 188.0 " stroke="black" fill="none" stroke-width="5.0" stroke-linecap="round" stroke-linejoin="round" />
<path d="M 174.0 76.0 L 174.0 76.0 L 174.0 75.0 L 173.0 75.0 L 173.0 75.0 L 173.0 74.0 L 173.0 75.0 L 173.0 76.0 L 172.0 80.0 L 172.0 85.0 L 172.0 92.0 L 172.0 101.0 L 172.0 112.0 L 172.0 125.0 L 173.0 139.0 L 174.0 151.0 L 174.0 162.0 L 174.0 171.0 L 174.0 177.0 L 174.0 182.0 L 174.0 187.0 L 174.0 188.0 " stroke="black" fill="none" stroke-width="5.0" stroke-linecap="round" stroke-linejoin="round" />
<path d="M 63.0 198.0 L 62.0 198.0 L 62.0 198.0 L 61.0 198.0 L 60.0 198.0 L 60.0 198.0 L 60.0 197.0 L 59.0 197.0 L 59.0 197.0 L 59.0 196.0 L 60.0 196.0 L 61.0 195.0 L 62.0 195.0 L 64.0 194.0 L 67.0 194.0 L 70.0 194.0 L 74.0 193.0 L 78.0 193.0 L 85.0 193.0 L 92.0 193.0 L 99.0 193.0 L 106.0 193.0 L 112.0 193.0 L 118.0 193.0 L 125.0 193.0 L 132.0 194.0 L 140.0 194.0 L 146.0 194.0 L 152.0 194.0 L 156.0 194.0 L 161.0 194.0 L 167.0 193.0 L 173.0 191.0 L 180.0 190.0 L 186.0 189.0 L 190.0 188.0 L 193.0 188.0 L 196.0 187.0 L 197.0 187.0 L 198.0 187.0 L 200.0 188.0 L 201.0 189.0 L 203.0 189.0 L 204.0 190.0 L 206.0 191.0 L 208.0 191.0 L 210.0 192.0 L 212.0 192.0 L 213.0 192.0 L 215.0 192.0 L 217.0 192.0 L 219.0 192.0 L 220.0 192.0 L 221.0 192.0 " stroke="black" fill="none" stroke-width="5.0" stroke-linecap="round" stroke-linejoin="round" />
<path d="M 137.0 206.0 L 137.0 206.0 L 136.0 206.0 L 135.0 206.0 L 134.0 206.0 L 132.0 206.0 L 130.0 207.0 L 128.0 209.0 L 125.0 212.0 L 120.0 215.0 L 115.0 220.0 L 109.0 226.0 L 104.0 231.0 L 99.0 236.0 L 95.0 239.0 L 93.0 240.0 L 92.0 240.0 " stroke="black" fill="none" stroke-width="5.0" stroke-linecap="round" stroke-linejoin="round" />
<path d="M 178.0 223.0 L 177.0 223.0 L 175.0 223.0 L 175.0 224.0 L 175.0 225.0 L 177.0 225.0 L 180.0 226.0 L 184.0 228.0 L 187.0 229.0 L 191.0 230.0 L 195.0 232.0 L 199.0 235.0 L 203.0 237.0 L 207.0 240.0 L 211.0 242.0 L 214.0 245.0 L 217.0 248.0 " stroke="black" fill="none" stroke-width="5.0" stroke-linecap="round" stroke-linejoin="round" />
</svg>