<svg xmlns="http://www.w3.org/2000/svg" width="300" height="300" viewBox="0 0 300 300">
<path d="M 150.0 68.0 L 150.0 68.0 L 149.0 67.0 L 148.0 66.0 L 148.0 65.0 L 148.0 65.0 L 148.0 65.0 L 148.0 65.0 L 148.0 65.0 L 148.0 67.0 L 148.0 69.0 L 149.0 72.0 L 150.0 75.0 L 151.0 78.0 L 152.0 81.0 L 152.0 82.0 " stroke="black" fill="none" stroke-width="5.0" stroke-linecap="round" stroke-linejoin="round" />
<path d="M 86.0 94.0 L 86.0 94.0 L 85.0 94.0 L 85.0 94.0 L 85.0 94.0 L 84.0 94.0 L 84.0 94.0 L 84.0 94.0 L 84.0 94.0 L 85.0 94.0 L 86.0 94.0 L 87.0 94.0 L 88.0 94.0 L 90.0 94.0 L 92.0 94.0 L 94.0 94.0 L 96.0 94.0 L 98.0 94.0 L 101.0 94.0 L 103.0 94.0 L 105.0 94.0 L 106.0 94.0 L 108.0 94.0 L 110.0 94.0 L 112.0 94.0 L 113.0 94.0 L 115.0 94.0 L 117.0 93.0 L 118.0 93.0 L 120.0 93.0 L 122.0 93.0 L 123.0 92.0 L 125.0 92.0 L 126.0 92.0 L 128.0 92.0 L 130.0 91.0 L 132.0 91.0 L 134.0 91.0 L 136.0 91.0 L 138.0 91.0 L 140.0 91.0 L 142.0 90.0 L 143.0 90.0 L 145.0 90.0 L 146.0 90.0 L 148.0 90.0 L 149.0 90.0 L 150.0 90.0 L 151.0 90.0 L 152.0 90.0 L 152.0 90.0 L 153.0 90.0 L 154.0 90.0 L 155.0 90.0 L 156.0 90.0 L 157.0 90.0 L 158.0 90.0 L 160.0 90.0 L 161.0 90.0 L 163.0 90.0 L 164.0 90.0 L 166.0 90.0 L 169.0 90.0 L 171.0 90.0 L 173.0 90.0 L 176.0 90.0 L 178.0 90.0 L 181.0 89.0 L 183.0 89.0 L 185.0 89.0 L 188.0 89.0 L 190.0 89.0 L 192.0 89.0 L 194.0 89.0 L 195.0 89.0 L 197.0 90.0 L 199.0 90.0 L 201.0 90.0 L 202.0 90.0 L 204.0 90.0 L 206.0 90.0 L 208.0 90.0 L 210.0 90.0 L 211.0 90.0 L 211.0 91.0 " stroke="black" fill="none" stroke-width="5.0" stroke-linecap="round" stroke-linejoin="round" />
<path d="M 113.0 105.0 L 113.0 105.0 L 113.0 105.0 L 113.0 105.0 L 113.0 105.0 L 113.0 105.0 L 113.0 106.0 L 113.0 108.0 L 114.0 110.0 L 116.0 114.0 L 118.0 118.0 L 121.0 123.0 L 124.0 127.0 L 127.0 132.0 L 129.0 134.0 " stroke="black" fill="none" stroke-width="5.0" stroke-linecap="round" stroke-linejoin="round" />
<path d="M 193.0 101.0 L 193.0 101.0 L 193.0 101.0 L 193.0 101.0 L 192.0 101.0 L 192.0 101.0 L 192.0 102.0 L 191.0 103.0 L 191.0 104.0 L 190.0 107.0 L 189.0 110.0 L 187.0 115.0 L 185.0 120.0 L 183.0 125.0 L 180.0 130.0 L 177.0 135.0 L 176.0 138.0 " stroke="black" fill="none" stroke-width="5.0" stroke-linecap="round" stroke-linejoin="round" />
<path d="M 67.0 139.0 L 67.0 139.0 L 67.0 139.0 L 67.0 139.0 L 67.0 139.0 L 66.0 139.0 L 66.0 139.0 L 66.0 139.0 L 66.0 139.0 L 66.0 139.0 L 66.0 139.0 L 66.0 139.0 L 66.0 139.0 L 66.0 139.0 L 67.0 139.0 L 68.0 139.0 L 69.0 139.0 L 71.0 139.0 L 73.0 139.0 L 75.0 139.0 L 78.0 139.0 L 80.0 139.0 L 84.0 139.0 L 87.0 139.0 L 90.0 139.0 L 93.0 139.0 L 96.0 139.0 L 99.0 140.0 L 101.0 140.0 L 104.0 140.0 L 106.0 140.0 L 109.0 140.0 L 111.0 139.0 L 114.0 139.0 L 116.0 139.0 L 119.0 138.0 L 122.0 138.0 L 125.0 138.0 L 128.0 138.0 L 131.0 138.0 L 134.0 138.0 L 136.0 138.0 L 139.0 138.0 L 141.0 138.0 L 143.0 138.0 L 146.0 138.0 L 148.0 138.0 L 149.0 138.0 L 151.0 138.0 L 152.0 138.0 L 154.0 138.0 L 156.0 138.0 L 157.0 138.0 L 159.0 138.0 L 162.0 138.0 L 165.0 138.0 L 168.0 138.0 L 171.0 138.0 L 174.0 138.0 L 177.0 138.0 L 181.0 138.0 L 184.0 138.0 L 187.0 138.0 L 191.0 138.0 L 193.0 139.0 L 196.0 139.0 L 199.0 139.0 L 201.0 140.0 L 204.0 140.0 L 207.0 141.0 L 210.0 141.0 L 214.0 141.0 L 218.0 141.0 L 221.0 141.0 L 224.0 141.0 L 227.0 141.0 L 229.0 141.0 L 231.0 141.0 L 232.0 141.0 L 232.0 141.0 " stroke="black" fill="none" stroke-width="5.0" stroke-linecap="round" stroke-linejoin="round" />
<path d="M 94.0 177.0 L 94.0 177.0 L 94.0 177.0 L 94.0 176.0 L 94.0 176.0 L 94.0 176.0 L 94.0 176.0 L 94.0 176.0 L 94.0 176.0 L 94.0 176.0 L 95.0 178.0 L 95.0 180.0 L 95.0 183.0 L 96.0 187.0 L 96.0 191.0 L 96.0 196.0 L 96.0 202.0 L 96.0 208.0 L 96.0 215.0 L 96.0 222.0 L 96.0 228.0 L 95.0 233.0 L 94.0 237.0 L 94.0 238.0 L 94.0 238.0 L 94.0 238.0 L 95.0 236.0 L 96.0 234.0 " stroke="black" fill="none" stroke-width="5.0" stroke-linecap="round" stroke-linejoin="round" />
<path d="M 100.0 177.0 L 100.0 177.0 L 99.0 177.0 L 98.0 177.0 L 98.0 177.0 L 97.0 177.0 L 97.0 177.0 L 97.0 177.0 L 97.0 177.0 L 97.0 177.0 L 97.0 177.0 L 98.0 177.0 L 99.0 176.0 L 100.0 176.0 L 101.0 176.0 L 103.0 176.0 L 104.0 176.0 L 106.0 176.0 L 108.0 175.0 L 110.0 175.0 L 112.0 175.0 L 114.0 175.0 L 117.0 174.0 L 120.0 174.0 L 122.0 174.0 L 125.0 173.0 L 128.0 173.0 L 130.0 173.0 L 133.0 173.0 L 135.0 173.0 L 136.0 173.0 L 138.0 173.0 L 140.0 173.0 L 141.0 173.0 L 143.0 173.0 L 144.0 173.0 L 146.0 173.0 L 147.0 173.0 L 149.0 173.0 L 150.0 173.0 L 152.0 173.0 L 153.0 173.0 L 154.0 173.0 L 155.0 173.0 L 156.0 173.0 L 157.0 173.0 L 158.0 174.0 L 159.0 174.0 L 160.0 174.0 L 162.0 175.0 L 163.0 175.0 L 164.0 175.0 L 165.0 175.0 L 166.0 175.0 L 168.0 175.0 L 169.0 175.0 L 170.0 175.0 L 171.0 175.0 L 172.0 175.0 L 173.0 176.0 L 174.0 176.0 L 176.0 176.0 L 177.0 176.0 L 179.0 176.0 L 180.0 176.0 L 182.0 176.0 L 183.0 176.0 L 185.0 176.0 L 186.0 176.0 L 187.0 176.0 L 189.0 176.0 L 190.0 176.0 L 191.0 176.0 L 192.0 176.0 L 193.0 176.0 L 194.0 176.0 L 195.0 176.0 L 195.0 176.0 L 196.0 176.0 L 197.0 176.0 L 197.0 176.0 L 198.0 176.0 L 198.0 176.0 L 199.0 176.0 L 199.0 176.0 L 200.0 176.0 L 200.0 176.0 L 201.0 176.0 L 202.0 176.0 L 202.0 176.0 L 202.0 176.0 L 203.0 176.0 L 203.0 176.0 L 204.0 176.0 L 204.0 176.0 L 204.0 176.0 L 204.0 176.0 L 205.0 176.0 L 205.0 177.0 L 205.0 177.0 L 205.0 177.0 L 205.0 178.0 L 206.0 179.0 L 206.0 181.0 L 206.0 182.0 L 206.0 185.0 L 206.0 188.0 L 207.0 191.0 L 207.0 194.0 L 207.0 198.0 L 207.0 202.0 L 207.0 205.0 L 207.0 210.0 L 208.0 214.0 L 208.0 218.0 L 208.0 223.0 L 208.0 229.0 L 208.0 233.0 L 208.0 237.0 L 208.0 240.0 L 208.0 242.0 L 208.0 244.0 L 208.0 244.0 L 208.0 244.0 L 208.0 244.0 L 207.0 243.0 L 207.0 242.0 " stroke="black" fill="none" stroke-width="5.0" stroke-linecap="round" stroke-linejoin="round" />
<path d="M 109.0 204.0 L 108.0 204.0 L 107.0 204.0 L 107.0 204.0 L 106.0 204.0 L 105.0 204.0 L 105.0 204.0 L 105.0 204.0 L 105.0 204.0 L 105.0 204.0 L 106.0 204.0 L 108.0 204.0 L 111.0 204.0 L 115.0 204.0 L 120.0 204.0 L 127.0 204.0 L 135.0 204.0 L 143.0 204.0 L 151.0 204.0 L 159.0 204.0 L 167.0 204.0 L 175.0 203.0 L 182.0 203.0 L 187.0 202.0 L 191.0 202.0 L 194.0 202.0 L 195.0 202.0 L 196.0 202.0 L 196.0 204.0 " stroke="black" fill="none" stroke-width="5.0" stroke-linecap="round" stroke-linejoin="round" />
<path d="M 103.0 246.0 L 102.0 246.0 L 101.0 246.0 L 100.0 246.0 L 100.0 246.0 L 99.0 246.0 L 99.0 246.0 L 99.0 246.0 L 99.0 246.0 L 100.0 246.0 L 101.0 245.0 L 103.0 245.0 L 106.0 245.0 L 109.0 245.0 L 113.0 245.0 L 118.0 245.0 L 124.0 245.0 L 132.0 245.0 L 139.0 245.0 L 146.0 245.0 L 151.0 245.0 L 156.0 245.0 L 160.0 245.0 L 164.0 245.0 L 167.0 245.0 L 171.0 245.0 L 175.0 245.0 L 179.0 245.0 L 182.0 245.0 L 186.0 245.0 L 189.0 245.0 L 191.0 245.0 L 193.0 245.0 L 195.0 245.0 L 196.0 244.0 L 198.0 243.0 L 199.0 243.0 L 200.0 242.0 L 201.0 241.0 L 202.0 241.0 L 202.0 241.0 " stroke="black" fill="none" stroke-width="5.0" stroke-linecap="round" stroke-linejoin="round" />
</svg>