<svg xmlns="http://www.w3.org/2000/svg" width="300" height="300" viewBox="0 0 300 300">
<path d="M 73.0 96.0 L 73.0 96.0 L 73.0 96.0 L 73.0 96.0 L 73.0 96.0 L 73.0 96.0 L 73.0 96.0 L 73.0 96.0 L 74.0 97.0 L 74.0 97.0 L 74.0 98.0 L 74.0 99.0 L 74.0 100.0 L 74.0 101.0 L 74.0 103.0 L 74.0 104.0 L 74.0 107.0 L 74.0 109.0 L 74.0 111.0 L 74.0 114.0 L 74.0 116.0 L 74.0 118.0 L 74.0 120.0 L 74.0 122.0 L 74.0 124.0 L 74.0 125.0 L 74.0 126.0 L 74.0 128.0 L 74.0 129.0 L 74.0 131.0 L 74.0 132.0 L 74.0 134.0 L 74.0 135.0 L 74.0 137.0 L 74.0 139.0 L 74.0 140.0 L 74.0 142.0 L 74.0 144.0 L 74.0 145.0 L 74.0 147.0 L 74.0 149.0 L 74.0 151.0 L 74.0 153.0 L 74.0 154.0 L 73.0 156.0 L 73.0 158.0 L 73.0 159.0 L 73.0 160.0 L 73.0 162.0 L 73.0 163.0 L 73.0 164.0 L 72.0 165.0 L 72.0 167.0 L 72.0 168.0 L 72.0 170.0 L 72.0 171.0 L 72.0 172.0 L 72.0 174.0 L 72.0 175.0 L 72.0 177.0 L 71.0 178.0 L 71.0 180.0 L 71.0 181.0 L 71.0 183.0 L 71.0 184.0 L 71.0 186.0 L 71.0 188.0 L 71.0 189.0 L 71.0 191.0 L 71.0 192.0 L 70.0 193.0 L 70.0 194.0 L 70.0 195.0 L 70.0 196.0 L 70.0 197.0 L 70.0 198.0 L 70.0 199.0 L 70.0 200.0 L 70.0 201.0 L 70.0 202.0 L 70.0 202.0 L 70.0 203.0 L 70.0 204.0 L 70.0 205.0 L 70.0 205.0 L 70.0 206.0 L 70.0 206.0 L 70.0 207.0 L 70.0 207.0 L 70.0 208.0 L 70.0 208.0 L 70.0 208.0 L 70.0 209.0 L 70.0 209.0 L 70.0 209.0 L 70.0 209.0 L 70.0 209.0 L 70.0 209.0 L 70.0 209.0 L 70.0 209.0 L 70.0 209.0 L 70.0 209.0 L 70.0 209.0 L 70.0 209.0 L 70.0 209.0 L 70.0 209.0 L 70.0 209.0 L 70.0 209.0 L 70.0 209.0 L 70.0 209.0 L 70.0 209.0 L 71.0 208.0 L 71.0 208.0 L 71.0 208.0 L 71.0 208.0 L 72.0 208.0 L 72.0 207.0 L 72.0 207.0 L 73.0 207.0 L 73.0 207.0 L 74.0 207.0 L 74.0 206.0 L 75.0 206.0 L 76.0 206.0 L 76.0 206.0 L 77.0 205.0 L 78.0 205.0 L 78.0 205.0 L 79.0 204.0 L 80.0 204.0 L 81.0 204.0 L 82.0 204.0 L 83.0 203.0 L 83.0 203.0 L 84.0 203.0 L 85.0 203.0 L 86.0 202.0 L 86.0 202.0 L 87.0 202.0 L 88.0 202.0 L 88.0 201.0 L 89.0 201.0 L 90.0 201.0 L 91.0 200.0 L 92.0 200.0 L 93.0 200.0 L 94.0 199.0 L 94.0 199.0 L 95.0 199.0 L 96.0 198.0 L 97.0 198.0 L 98.0 198.0 L 98.0 197.0 L 99.0 197.0 L 100.0 196.0 L 100.0 196.0 L 101.0 195.0 L 101.0 195.0 L 102.0 194.0 L 102.0 194.0 L 103.0 193.0 L 103.0 193.0 L 104.0 192.0 L 104.0 192.0 L 105.0 192.0 L 105.0 191.0 L 105.0 191.0 L 106.0 191.0 L 106.0 190.0 L 106.0 190.0 L 107.0 190.0 L 107.0 189.0 L 107.0 189.0 L 108.0 189.0 L 108.0 189.0 L 108.0 189.0 L 108.0 188.0 L 109.0 188.0 L 109.0 188.0 L 109.0 188.0 L 110.0 187.0 L 110.0 187.0 L 111.0 187.0 L 111.0 187.0 L 111.0 186.0 L 112.0 186.0 L 112.0 186.0 L 113.0 185.0 L 113.0 185.0 L 113.0 184.0 L 114.0 184.0 L 114.0 184.0 L 115.0 183.0 " stroke="black" fill="none" stroke-width="5.0" stroke-linecap="round" stroke-linejoin="round" />
<path d="M 120.0 80.0 L 120.0 80.0 L 120.0 80.0 L 120.0 82.0 L 120.0 83.0 L 120.0 84.0 L 120.0 85.0 L 120.0 87.0 L 120.0 89.0 L 120.0 91.0 L 120.0 93.0 L 120.0 96.0 L 120.0 99.0 L 120.0 102.0 L 119.0 105.0 L 119.0 108.0 L 119.0 110.0 L 119.0 113.0 L 119.0 115.0 L 119.0 117.0 L 119.0 118.0 L 119.0 120.0 L 119.0 122.0 L 119.0 124.0 L 119.0 126.0 L 119.0 128.0 L 119.0 130.0 L 119.0 132.0 L 119.0 134.0 L 118.0 136.0 L 118.0 139.0 L 118.0 141.0 L 118.0 143.0 L 118.0 145.0 L 118.0 147.0 L 118.0 149.0 L 118.0 151.0 L 118.0 153.0 L 118.0 155.0 L 118.0 156.0 L 118.0 158.0 L 118.0 160.0 L 118.0 161.0 L 118.0 163.0 L 118.0 164.0 L 118.0 166.0 L 118.0 168.0 L 118.0 170.0 L 118.0 171.0 L 118.0 173.0 L 118.0 175.0 L 118.0 177.0 L 118.0 178.0 L 118.0 180.0 L 118.0 182.0 L 118.0 184.0 L 118.0 186.0 L 117.0 188.0 L 117.0 190.0 L 117.0 192.0 L 117.0 194.0 L 117.0 196.0 L 117.0 198.0 L 117.0 200.0 L 117.0 201.0 L 117.0 203.0 L 117.0 205.0 L 117.0 207.0 L 116.0 208.0 L 116.0 210.0 L 116.0 212.0 L 116.0 214.0 L 116.0 216.0 L 116.0 218.0 L 116.0 220.0 L 116.0 223.0 L 115.0 225.0 L 115.0 227.0 L 115.0 230.0 L 115.0 232.0 L 115.0 234.0 L 115.0 237.0 L 115.0 239.0 L 114.0 241.0 L 114.0 243.0 L 114.0 245.0 L 114.0 247.0 L 114.0 250.0 L 114.0 251.0 L 114.0 253.0 L 114.0 255.0 L 114.0 256.0 L 114.0 257.0 L 114.0 259.0 L 113.0 259.0 L 113.0 260.0 L 113.0 260.0 L 113.0 260.0 L 113.0 260.0 " stroke="black" fill="none" stroke-width="5.0" stroke-linecap="round" stroke-linejoin="round" />
<path d="M 174.0 73.0 L 174.0 73.0 L 174.0 73.0 L 174.0 73.0 L 174.0 73.0 L 174.0 73.0 L 174.0 73.0 L 174.0 73.0 L 174.0 73.0 L 174.0 73.0 L 173.0 73.0 L 173.0 73.0 L 173.0 74.0 L 173.0 75.0 L 173.0 75.0 L 173.0 76.0 L 172.0 77.0 L 172.0 79.0 L 171.0 82.0 L 170.0 84.0 L 169.0 87.0 L 168.0 90.0 L 167.0 94.0 L 166.0 98.0 L 165.0 101.0 L 163.0 105.0 L 162.0 109.0 L 161.0 113.0 L 160.0 116.0 L 159.0 119.0 L 158.0 122.0 L 157.0 125.0 L 156.0 127.0 L 155.0 130.0 L 154.0 133.0 L 153.0 136.0 L 152.0 139.0 L 151.0 142.0 L 149.0 145.0 L 148.0 148.0 L 147.0 152.0 L 145.0 154.0 L 143.0 157.0 L 141.0 159.0 L 139.0 161.0 L 138.0 163.0 L 136.0 164.0 L 135.0 165.0 " stroke="black" fill="none" stroke-width="5.0" stroke-linecap="round" stroke-linejoin="round" />
<path d="M 161.0 116.0 L 161.0 116.0 L 161.0 116.0 L 161.0 116.0 L 161.0 116.0 L 161.0 116.0 L 161.0 116.0 L 161.0 116.0 L 161.0 116.0 L 161.0 116.0 L 161.0 116.0 L 161.0 116.0 L 161.0 116.0 L 161.0 116.0 L 161.0 116.0 L 161.0 116.0 L 162.0 116.0 L 162.0 116.0 L 163.0 116.0 L 164.0 116.0 L 164.0 116.0 L 165.0 116.0 L 166.0 116.0 L 167.0 116.0 L 168.0 116.0 L 169.0 116.0 L 170.0 116.0 L 171.0 116.0 L 172.0 116.0 L 173.0 116.0 L 174.0 116.0 L 175.0 116.0 L 176.0 116.0 L 177.0 116.0 L 178.0 116.0 L 179.0 116.0 L 180.0 116.0 L 181.0 116.0 L 182.0 116.0 L 182.0 116.0 L 183.0 116.0 L 184.0 116.0 L 185.0 116.0 L 186.0 116.0 L 186.0 116.0 L 187.0 116.0 L 188.0 116.0 L 189.0 116.0 L 189.0 116.0 L 190.0 115.0 L 191.0 115.0 L 191.0 115.0 L 192.0 115.0 L 192.0 115.0 L 193.0 115.0 L 194.0 115.0 L 194.0 115.0 L 195.0 115.0 L 195.0 115.0 L 196.0 115.0 L 196.0 115.0 L 197.0 115.0 L 198.0 115.0 L 198.0 115.0 L 199.0 115.0 L 199.0 115.0 L 200.0 115.0 L 201.0 115.0 L 202.0 115.0 L 202.0 115.0 L 203.0 115.0 L 204.0 115.0 L 205.0 115.0 L 205.0 115.0 L 206.0 115.0 L 207.0 115.0 L 208.0 115.0 L 208.0 115.0 L 209.0 115.0 L 210.0 115.0 L 211.0 115.0 L 212.0 115.0 L 212.0 115.0 L 213.0 115.0 L 214.0 115.0 L 215.0 114.0 L 216.0 114.0 L 217.0 114.0 L 218.0 114.0 L 219.0 114.0 L 220.0 114.0 L 221.0 114.0 L 222.0 114.0 L 223.0 114.0 L 225.0 114.0 L 226.0 114.0 L 227.0 114.0 L 229.0 114.0 L 230.0 114.0 L 231.0 114.0 L 233.0 114.0 L 234.0 114.0 L 235.0 114.0 L 236.0 115.0 L 237.0 115.0 L 237.0 115.0 L 238.0 116.0 L 239.0 116.0 L 239.0 116.0 " stroke="black" fill="none" stroke-width="5.0" stroke-linecap="round" stroke-linejoin="round" />
<path d="M 221.0 118.0 L 221.0 118.0 L 221.0 118.0 L 221.0 118.0 L 222.0 118.0 L 222.0 118.0 L 222.0 118.0 L 222.0 118.0 L 222.0 118.0 L 222.0 118.0 L 223.0 118.0 L 223.0 118.0 L 223.0 119.0 L 223.0 119.0 L 223.0 120.0 L 223.0 121.0 L 223.0 122.0 L 222.0 123.0 L 222.0 125.0 L 222.0 126.0 L 221.0 128.0 L 221.0 130.0 L 220.0 131.0 L 220.0 133.0 L 219.0 134.0 L 219.0 136.0 L 218.0 137.0 L 218.0 139.0 L 217.0 141.0 L 217.0 143.0 L 217.0 144.0 L 216.0 146.0 L 216.0 147.0 L 216.0 148.0 L 215.0 150.0 L 215.0 151.0 L 215.0 152.0 L 214.0 153.0 L 214.0 154.0 L 214.0 155.0 L 213.0 156.0 L 213.0 156.0 L 212.0 157.0 L 212.0 158.0 L 212.0 159.0 L 211.0 160.0 L 211.0 161.0 L 210.0 162.0 L 210.0 163.0 L 210.0 164.0 L 209.0 165.0 L 209.0 166.0 L 208.0 167.0 L 208.0 168.0 L 207.0 169.0 L 207.0 170.0 L 206.0 171.0 L 206.0 172.0 L 205.0 173.0 L 205.0 175.0 L 204.0 176.0 L 204.0 177.0 L 204.0 178.0 L 203.0 179.0 L 202.0 180.0 L 202.0 182.0 L 201.0 183.0 L 201.0 184.0 L 200.0 186.0 L 200.0 187.0 L 199.0 188.0 L 198.0 189.0 L 198.0 190.0 L 197.0 191.0 L 197.0 192.0 L 196.0 192.0 L 196.0 193.0 L 195.0 194.0 L 195.0 195.0 L 194.0 196.0 L 194.0 196.0 L 193.0 197.0 L 193.0 198.0 L 192.0 199.0 L 192.0 199.0 L 191.0 200.0 L 191.0 201.0 L 190.0 202.0 L 190.0 203.0 L 189.0 203.0 L 189.0 204.0 L 188.0 205.0 L 187.0 206.0 L 187.0 207.0 L 186.0 207.0 L 186.0 208.0 L 185.0 209.0 L 184.0 210.0 L 184.0 211.0 L 183.0 212.0 L 182.0 213.0 L 181.0 214.0 L 180.0 215.0 L 179.0 216.0 L 178.0 217.0 L 178.0 217.0 L 177.0 218.0 L 176.0 219.0 L 175.0 220.0 L 174.0 220.0 L 173.0 221.0 L 172.0 222.0 L 171.0 223.0 L 170.0 223.0 L 169.0 224.0 L 167.0 225.0 L 166.0 226.0 L 165.0 227.0 L 164.0 227.0 L 163.0 228.0 L 161.0 229.0 L 160.0 230.0 L 158.0 231.0 L 157.0 232.0 L 156.0 234.0 L 154.0 235.0 L 153.0 236.0 L 152.0 237.0 L 150.0 238.0 L 149.0 239.0 L 148.0 240.0 L 147.0 241.0 L 146.0 241.0 L 145.0 242.0 " stroke="black" fill="none" stroke-width="5.0" stroke-linecap="round" stroke-linejoin="round" />
<path d="M 164.0 122.0 L 164.0 122.0 L 164.0 122.0 L 164.0 122.0 L 164.0 123.0 L 164.0 123.0 L 164.0 123.0 L 164.0 123.0 L 164.0 124.0 L 164.0 124.0 L 164.0 125.0 L 164.0 125.0 L 164.0 126.0 L 164.0 127.0 L 164.0 129.0 L 164.0 130.0 L 164.0 132.0 L 164.0 134.0 L 165.0 136.0 L 165.0 138.0 L 165.0 140.0 L 166.0 143.0 L 166.0 145.0 L 166.0 146.0 L 167.0 148.0 L 167.0 150.0 L 168.0 152.0 L 168.0 153.0 L 168.0 154.0 L 168.0 156.0 L 169.0 157.0 L 169.0 158.0 L 169.0 159.0 L 170.0 161.0 L 170.0 162.0 L 171.0 163.0 L 171.0 164.0 L 172.0 165.0 L 172.0 166.0 L 173.0 168.0 L 173.0 169.0 L 174.0 170.0 L 174.0 171.0 L 175.0 171.0 L 175.0 172.0 L 175.0 173.0 L 176.0 173.0 L 176.0 173.0 L 176.0 174.0 L 177.0 175.0 L 177.0 176.0 L 177.0 177.0 L 178.0 178.0 L 178.0 179.0 L 179.0 180.0 L 179.0 182.0 L 180.0 183.0 L 180.0 184.0 L 180.0 185.0 L 181.0 186.0 L 181.0 187.0 L 182.0 188.0 L 182.0 189.0 L 183.0 190.0 L 183.0 191.0 L 183.0 192.0 L 184.0 194.0 L 184.0 195.0 L 185.0 196.0 L 185.0 196.0 L 186.0 197.0 L 186.0 198.0 L 187.0 199.0 L 187.0 200.0 L 188.0 200.0 L 188.0 201.0 L 189.0 202.0 L 189.0 203.0 L 190.0 204.0 L 191.0 205.0 L 191.0 206.0 L 192.0 206.0 L 193.0 207.0 L 193.0 208.0 L 194.0 209.0 L 194.0 210.0 L 195.0 211.0 L 196.0 212.0 L 196.0 213.0 L 197.0 214.0 L 198.0 214.0 L 198.0 215.0 L 199.0 216.0 L 200.0 217.0 L 200.0 218.0 L 201.0 219.0 L 202.0 220.0 L 203.0 221.0 L 204.0 222.0 L 205.0 223.0 L 206.0 224.0 L 207.0 225.0 L 208.0 226.0 L 209.0 227.0 L 210.0 228.0 L 211.0 229.0 L 212.0 230.0 L 213.0 231.0 L 214.0 232.0 L 215.0 233.0 L 216.0 234.0 L 218.0 235.0 L 219.0 236.0 L 220.0 236.0 L 221.0 237.0 L 223.0 238.0 L 224.0 239.0 L 226.0 240.0 L 227.0 241.0 L 229.0 242.0 L 230.0 243.0 L 231.0 244.0 L 232.0 245.0 L 234.0 246.0 L 235.0 247.0 L 236.0 248.0 L 237.0 248.0 L 237.0 249.0 L 238.0 249.0 L 239.0 249.0 L 239.0 249.0 L 239.0 249.0 L 239.0 249.0 L 239.0 249.0 L 239.0 248.0 " stroke="black" fill="none" stroke-width="5.0" stroke-linecap="round" stroke-linejoin="round" />
</svg>