<svg xmlns="http://www.w3.org/2000/svg" width="300" height="300" viewBox="0 0 300 300">
<path d="M 73.0 105.0 L 73.0 105.0 L 73.0 106.0 L 73.0 107.0 L 74.0 108.0 L 74.0 109.0 L 74.0 110.0 L 75.0 111.0 L 75.0 112.0 L 75.0 113.0 L 76.0 115.0 L 76.0 117.0 L 76.0 121.0 L 76.0 125.0 L 76.0 129.0 L 76.0 135.0 L 76.0 141.0 L 76.0 146.0 L 76.0 151.0 L 76.0 154.0 L 76.0 157.0 L 76.0 160.0 L 76.0 163.0 L 76.0 165.0 L 76.0 168.0 L 75.0 171.0 L 74.0 173.0 L 74.0 177.0 L 73.0 180.0 L 73.0 184.0 L 73.0 187.0 L 73.0 190.0 L 73.0 193.0 L 73.0 195.0 L 73.0 197.0 L 73.0 199.0 L 73.0 201.0 L 73.0 203.0 L 73.0 204.0 L 73.0 205.0 L 73.0 205.0 L 73.0 206.0 L 73.0 206.0 L 73.0 206.0 L 73.0 206.0 L 73.0 206.0 L 73.0 206.0 L 73.0 206.0 L 74.0 205.0 L 75.0 204.0 L 76.0 203.0 L 79.0 202.0 L 82.0 199.0 L 87.0 196.0 L 92.0 191.0 L 98.0 186.0 L 104.0 179.0 L 106.0 175.0 " stroke="black" fill="none" stroke-width="5.0" stroke-linecap="round" stroke-linejoin="round" />
<path d="M 124.0 80.0 L 124.0 80.0 L 124.0 81.0 L 124.0 83.0 L 124.0 84.0 L 124.0 87.0 L 124.0 90.0 L 124.0 94.0 L 124.0 100.0 L 123.0 107.0 L 121.0 114.0 L 120.0 122.0 L 118.0 129.0 L 117.0 137.0 L 116.0 147.0 L 116.0 156.0 L 115.0 164.0 L 115.0 174.0 L 114.0 184.0 L 114.0 194.0 L 114.0 204.0 L 114.0 212.0 L 114.0 220.0 L 113.0 229.0 L 113.0 237.0 L 113.0 243.0 L 113.0 249.0 L 113.0 254.0 L 113.0 257.0 L 113.0 260.0 L 113.0 261.0 " stroke="black" fill="none" stroke-width="5.0" stroke-linecap="round" stroke-linejoin="round" />
<path d="M 168.0 73.0 L 168.0 73.0 L 168.0 73.0 L 168.0 73.0 L 168.0 73.0 L 168.0 73.0 L 168.0 73.0 L 168.0 73.0 L 168.0 73.0 L 168.0 75.0 L 168.0 77.0 L 167.0 81.0 L 166.0 86.0 L 164.0 93.0 L 161.0 101.0 L 158.0 110.0 L 155.0 119.0 L 151.0 128.0 L 148.0 137.0 L 144.0 145.0 L 141.0 153.0 L 138.0 158.0 L 135.0 161.0 L 132.0 162.0 L 131.0 162.0 " stroke="black" fill="none" stroke-width="5.0" stroke-linecap="round" stroke-linejoin="round" />
<path d="M 164.0 114.0 L 164.0 114.0 L 163.0 114.0 L 162.0 114.0 L 162.0 115.0 L 161.0 115.0 L 160.0 115.0 L 160.0 115.0 L 160.0 115.0 L 159.0 115.0 L 159.0 115.0 L 159.0 115.0 L 159.0 115.0 L 159.0 115.0 L 160.0 115.0 L 161.0 115.0 L 163.0 115.0 L 165.0 115.0 L 167.0 115.0 L 169.0 115.0 L 172.0 115.0 L 175.0 114.0 L 178.0 114.0 L 181.0 114.0 L 184.0 114.0 L 187.0 113.0 L 189.0 113.0 L 192.0 113.0 L 194.0 113.0 L 196.0 113.0 L 198.0 113.0 L 200.0 113.0 L 202.0 113.0 L 204.0 113.0 L 206.0 113.0 L 208.0 114.0 L 210.0 114.0 L 213.0 114.0 L 216.0 114.0 L 218.0 114.0 L 221.0 114.0 L 224.0 114.0 L 226.0 114.0 L 228.0 114.0 L 230.0 114.0 L 232.0 114.0 L 234.0 114.0 L 236.0 114.0 L 237.0 114.0 L 238.0 114.0 L 239.0 113.0 L 240.0 113.0 L 240.0 113.0 L 241.0 113.0 L 241.0 113.0 " stroke="black" fill="none" stroke-width="5.0" stroke-linecap="round" stroke-linejoin="round" />
<path d="M 222.0 129.0 L 222.0 130.0 L 221.0 133.0 L 221.0 135.0 L 220.0 137.0 L 219.0 140.0 L 219.0 143.0 L 218.0 146.0 L 216.0 149.0 L 215.0 152.0 L 213.0 154.0 L 212.0 157.0 L 210.0 159.0 L 209.0 161.0 L 207.0 164.0 L 206.0 166.0 L 204.0 168.0 L 202.0 171.0 L 201.0 173.0 L 199.0 175.0 L 198.0 178.0 L 196.0 181.0 L 195.0 184.0 L 194.0 188.0 L 193.0 191.0 L 191.0 194.0 L 190.0 196.0 L 189.0 199.0 L 187.0 201.0 L 185.0 204.0 L 183.0 207.0 L 181.0 209.0 L 179.0 212.0 L 176.0 214.0 L 173.0 217.0 L 169.0 221.0 L 165.0 225.0 L 161.0 228.0 L 157.0 232.0 L 154.0 234.0 L 151.0 236.0 L 148.0 238.0 L 146.0 239.0 L 145.0 240.0 L 143.0 240.0 " stroke="black" fill="none" stroke-width="5.0" stroke-linecap="round" stroke-linejoin="round" />
<path d="M 158.0 136.0 L 158.0 136.0 L 158.0 136.0 L 158.0 136.0 L 158.0 136.0 L 158.0 136.0 L 158.0 136.0 L 159.0 136.0 L 160.0 137.0 L 161.0 140.0 L 162.0 143.0 L 164.0 147.0 L 166.0 152.0 L 168.0 157.0 L 171.0 163.0 L 175.0 170.0 L 178.0 178.0 L 181.0 186.0 L 185.0 192.0 L 188.0 198.0 L 190.0 202.0 L 193.0 206.0 L 195.0 210.0 L 197.0 213.0 L 199.0 217.0 L 202.0 221.0 L 205.0 226.0 L 209.0 231.0 L 213.0 236.0 L 216.0 239.0 L 218.0 242.0 L 221.0 244.0 L 223.0 245.0 L 225.0 246.0 L 226.0 246.0 L 227.0 246.0 L 227.0 246.0 L 227.0 245.0 L 227.0 244.0 " stroke="black" fill="none" stroke-width="5.0" stroke-linecap="round" stroke-linejoin="round" />
</svg>