<svg xmlns="http://www.w3.org/2000/svg" width="300" height="300" viewBox="0 0 300 300">
<path d="M 71.0 85.0 L 71.0 85.0 L 71.0 85.0 L 71.0 85.0 L 71.0 84.0 L 71.0 84.0 L 71.0 84.0 L 70.0 84.0 L 70.0 84.0 L 70.0 84.0 L 70.0 84.0 L 70.0 84.0 L 70.0 85.0 L 70.0 85.0 L 70.0 85.0 L 70.0 85.0 L 71.0 85.0 L 71.0 85.0 L 72.0 86.0 L 73.0 86.0 L 74.0 86.0 L 74.0 86.0 L 76.0 86.0 L 77.0 87.0 L 78.0 87.0 L 79.0 87.0 L 80.0 87.0 L 81.0 87.0 L 82.0 87.0 L 83.0 87.0 L 84.0 87.0 L 85.0 87.0 L 87.0 88.0 L 87.0 88.0 L 89.0 88.0 L 89.0 88.0 L 90.0 88.0 L 91.0 88.0 L 92.0 88.0 L 93.0 88.0 L 94.0 88.0 L 95.0 88.0 L 96.0 88.0 L 97.0 88.0 L 98.0 88.0 L 99.0 88.0 L 100.0 88.0 L 100.0 88.0 L 101.0 88.0 L 102.0 88.0 L 103.0 88.0 L 103.0 88.0 L 104.0 88.0 L 105.0 88.0 L 105.0 88.0 L 106.0 88.0 L 107.0 88.0 L 107.0 87.0 L 108.0 87.0 L 109.0 87.0 L 109.0 87.0 L 110.0 87.0 L 110.0 87.0 L 111.0 87.0 L 111.0 87.0 L 112.0 87.0 L 112.0 87.0 L 113.0 87.0 L 114.0 86.0 L 114.0 86.0 L 115.0 86.0 L 116.0 86.0 L 116.0 86.0 L 117.0 86.0 L 118.0 86.0 L 119.0 86.0 L 119.0 86.0 L 120.0 86.0 L 121.0 86.0 L 122.0 86.0 L 123.0 86.0 L 124.0 86.0 L 125.0 86.0 L 126.0 86.0 L 126.0 86.0 L 127.0 86.0 L 128.0 86.0 L 129.0 86.0 L 130.0 86.0 L 131.0 86.0 L 132.0 86.0 L 133.0 86.0 L 133.0 86.0 L 134.0 86.0 L 135.0 86.0 L 136.0 86.0 L 136.0 86.0 L 137.0 86.0 L 138.0 86.0 L 139.0 86.0 L 140.0 86.0 L 140.0 86.0 L 141.0 86.0 L 142.0 86.0 L 143.0 86.0 L 143.0 86.0 L 144.0 86.0 L 144.0 86.0 L 145.0 86.0 L 146.0 86.0 L 146.0 86.0 L 147.0 86.0 L 147.0 86.0 L 148.0 86.0 L 148.0 86.0 L 149.0 86.0 L 150.0 86.0 L 150.0 86.0 L 151.0 86.0 L 151.0 86.0 L 152.0 86.0 L 152.0 86.0 L 153.0 86.0 L 153.0 86.0 L 154.0 86.0 L 154.0 86.0 L 155.0 86.0 L 156.0 86.0 L 156.0 86.0 L 157.0 86.0 L 158.0 86.0 L 159.0 86.0 L 160.0 86.0 L 161.0 87.0 L 162.0 87.0 L 163.0 87.0 L 164.0 87.0 L 166.0 87.0 L 167.0 87.0 L 169.0 87.0 L 170.0 87.0 L 172.0 87.0 L 174.0 87.0 L 176.0 87.0 L 178.0 87.0 L 180.0 87.0 L 181.0 87.0 L 183.0 87.0 L 185.0 87.0 L 186.0 87.0 L 188.0 87.0 L 189.0 86.0 L 190.0 86.0 L 192.0 86.0 L 193.0 86.0 L 194.0 86.0 L 195.0 86.0 L 196.0 85.0 L 196.0 85.0 L 197.0 85.0 L 198.0 85.0 L 199.0 85.0 L 200.0 85.0 L 202.0 85.0 L 203.0 85.0 L 204.0 85.0 L 206.0 85.0 L 208.0 85.0 L 210.0 85.0 L 212.0 85.0 L 213.0 85.0 L 215.0 85.0 L 216.0 85.0 L 218.0 86.0 L 219.0 86.0 L 220.0 86.0 L 221.0 86.0 L 222.0 86.0 " stroke="black" fill="none" stroke-width="5.0" stroke-linecap="round" stroke-linejoin="round" />
<path d="M 113.0 73.0 L 113.0 73.0 L 112.0 73.0 L 112.0 73.0 L 112.0 73.0 L 112.0 73.0 L 112.0 73.0 L 112.0 75.0 L 112.0 77.0 L 112.0 81.0 L 112.0 86.0 L 112.0 92.0 L 112.0 98.0 L 112.0 103.0 L 113.0 109.0 L 113.0 112.0 L 113.0 115.0 L 114.0 117.0 L 114.0 118.0 " stroke="black" fill="none" stroke-width="5.0" stroke-linecap="round" stroke-linejoin="round" />
<path d="M 186.0 73.0 L 186.0 73.0 L 186.0 72.0 L 186.0 72.0 L 185.0 71.0 L 185.0 71.0 L 185.0 71.0 L 185.0 71.0 L 185.0 73.0 L 185.0 75.0 L 185.0 78.0 L 185.0 82.0 L 185.0 87.0 L 186.0 92.0 L 186.0 97.0 L 186.0 102.0 L 186.0 106.0 L 186.0 109.0 L 186.0 111.0 L 186.0 111.0 " stroke="black" fill="none" stroke-width="5.0" stroke-linecap="round" stroke-linejoin="round" />
<path d="M 117.0 117.0 L 117.0 117.0 L 116.0 117.0 L 116.0 117.0 L 115.0 117.0 L 115.0 117.0 L 115.0 117.0 L 115.0 117.0 L 116.0 117.0 L 118.0 117.0 L 121.0 116.0 L 125.0 116.0 L 131.0 115.0 L 137.0 115.0 L 144.0 114.0 L 150.0 114.0 L 157.0 114.0 L 163.0 114.0 L 169.0 114.0 L 175.0 114.0 L 179.0 114.0 L 183.0 114.0 L 184.0 114.0 " stroke="black" fill="none" stroke-width="5.0" stroke-linecap="round" stroke-linejoin="round" />
<path d="M 64.0 140.0 L 64.0 140.0 L 64.0 139.0 L 64.0 138.0 L 64.0 138.0 L 64.0 138.0 L 64.0 138.0 L 64.0 138.0 L 64.0 138.0 L 64.0 138.0 L 64.0 138.0 L 64.0 138.0 L 64.0 138.0 L 65.0 138.0 L 65.0 138.0 L 66.0 138.0 L 66.0 138.0 L 67.0 138.0 L 68.0 138.0 L 68.0 138.0 L 69.0 138.0 L 70.0 138.0 L 71.0 138.0 L 72.0 138.0 L 73.0 138.0 L 74.0 138.0 L 74.0 138.0 L 76.0 138.0 L 77.0 138.0 L 78.0 138.0 L 79.0 138.0 L 80.0 138.0 L 81.0 138.0 L 82.0 138.0 L 83.0 138.0 L 84.0 139.0 L 85.0 139.0 L 87.0 139.0 L 88.0 139.0 L 89.0 139.0 L 90.0 139.0 L 92.0 139.0 L 93.0 139.0 L 94.0 139.0 L 95.0 139.0 L 97.0 139.0 L 98.0 139.0 L 99.0 139.0 L 100.0 139.0 L 101.0 139.0 L 102.0 139.0 L 103.0 139.0 L 104.0 139.0 L 105.0 139.0 L 106.0 139.0 L 107.0 139.0 L 107.0 139.0 L 108.0 139.0 L 109.0 139.0 L 109.0 139.0 L 110.0 139.0 L 111.0 139.0 L 111.0 139.0 L 112.0 139.0 L 113.0 139.0 L 113.0 139.0 L 114.0 139.0 L 115.0 139.0 L 116.0 139.0 L 117.0 139.0 L 117.0 139.0 L 118.0 139.0 L 119.0 139.0 L 120.0 139.0 L 121.0 139.0 L 123.0 139.0 L 124.0 139.0 L 125.0 139.0 L 126.0 139.0 L 127.0 139.0 L 128.0 139.0 L 130.0 139.0 L 131.0 139.0 L 132.0 139.0 L 134.0 139.0 L 135.0 139.0 L 136.0 139.0 L 138.0 139.0 L 139.0 139.0 L 140.0 139.0 L 142.0 139.0 L 143.0 138.0 L 144.0 138.0 L 145.0 138.0 L 146.0 138.0 L 148.0 138.0 L 149.0 138.0 L 150.0 138.0 L 150.0 138.0 L 151.0 137.0 L 152.0 137.0 L 152.0 137.0 L 153.0 137.0 L 154.0 137.0 L 154.0 137.0 L 155.0 137.0 L 156.0 137.0 L 157.0 137.0 L 157.0 137.0 L 158.0 137.0 L 159.0 137.0 L 160.0 137.0 L 161.0 137.0 L 162.0 137.0 L 163.0 137.0 L 164.0 137.0 L 165.0 137.0 L 166.0 137.0 L 167.0 137.0 L 168.0 137.0 L 170.0 137.0 L 171.0 137.0 L 172.0 137.0 L 173.0 137.0 L 174.0 137.0 L 175.0 137.0 L 176.0 137.0 L 177.0 137.0 L 178.0 137.0 L 180.0 137.0 L 180.0 137.0 L 181.0 137.0 L 182.0 137.0 L 183.0 137.0 L 184.0 137.0 L 185.0 137.0 L 186.0 137.0 L 187.0 137.0 L 188.0 137.0 L 189.0 137.0 L 189.0 137.0 L 190.0 137.0 L 191.0 137.0 L 192.0 137.0 L 193.0 137.0 L 193.0 137.0 L 194.0 137.0 L 195.0 137.0 L 195.0 137.0 L 196.0 137.0 L 197.0 137.0 L 197.0 137.0 L 198.0 137.0 L 199.0 137.0 L 200.0 137.0 L 200.0 137.0 L 201.0 137.0 L 202.0 137.0 L 203.0 137.0 L 204.0 137.0 L 205.0 137.0 L 207.0 137.0 L 208.0 137.0 L 210.0 137.0 L 212.0 137.0 L 214.0 137.0 L 216.0 137.0 L 218.0 137.0 L 220.0 136.0 L 222.0 136.0 L 224.0 136.0 L 226.0 136.0 L 228.0 136.0 L 229.0 136.0 L 231.0 136.0 L 232.0 136.0 L 233.0 136.0 L 234.0 136.0 L 235.0 136.0 " stroke="black" fill="none" stroke-width="5.0" stroke-linecap="round" stroke-linejoin="round" />
<path d="M 92.0 160.0 L 92.0 160.0 L 92.0 160.0 L 92.0 160.0 L 92.0 160.0 L 92.0 160.0 L 92.0 160.0 L 92.0 160.0 L 92.0 160.0 L 92.0 160.0 L 92.0 161.0 L 92.0 162.0 L 92.0 165.0 L 92.0 168.0 L 92.0 174.0 L 91.0 180.0 L 90.0 188.0 L 90.0 194.0 L 89.0 200.0 L 88.0 204.0 L 88.0 206.0 L 88.0 206.0 L 88.0 206.0 L 88.0 206.0 L 88.0 205.0 " stroke="black" fill="none" stroke-width="5.0" stroke-linecap="round" stroke-linejoin="round" />
<path d="M 94.0 161.0 L 94.0 161.0 L 93.0 161.0 L 92.0 161.0 L 92.0 161.0 L 91.0 160.0 L 91.0 160.0 L 91.0 160.0 L 91.0 160.0 L 91.0 160.0 L 91.0 160.0 L 92.0 160.0 L 92.0 160.0 L 93.0 160.0 L 94.0 160.0 L 94.0 160.0 L 95.0 160.0 L 96.0 160.0 L 96.0 160.0 L 97.0 160.0 L 98.0 160.0 L 99.0 160.0 L 100.0 160.0 L 101.0 160.0 L 101.0 160.0 L 102.0 159.0 L 103.0 159.0 L 104.0 159.0 L 105.0 159.0 L 105.0 159.0 L 106.0 159.0 L 107.0 159.0 L 108.0 159.0 L 108.0 159.0 L 109.0 159.0 L 110.0 159.0 L 110.0 159.0 L 111.0 159.0 L 112.0 159.0 L 112.0 159.0 L 113.0 159.0 L 113.0 159.0 L 114.0 159.0 L 115.0 159.0 L 115.0 159.0 L 116.0 159.0 L 117.0 159.0 L 117.0 160.0 L 118.0 160.0 L 119.0 160.0 L 120.0 160.0 L 121.0 160.0 L 121.0 160.0 L 122.0 160.0 L 123.0 160.0 L 124.0 160.0 L 125.0 160.0 L 126.0 160.0 L 127.0 160.0 L 129.0 160.0 L 130.0 160.0 L 131.0 160.0 L 132.0 160.0 L 133.0 160.0 L 134.0 160.0 L 135.0 160.0 L 136.0 160.0 L 137.0 160.0 L 138.0 160.0 L 139.0 160.0 L 140.0 160.0 L 141.0 160.0 L 142.0 160.0 L 143.0 160.0 L 144.0 160.0 L 145.0 159.0 L 146.0 159.0 L 147.0 159.0 L 148.0 159.0 L 148.0 159.0 L 149.0 159.0 L 150.0 159.0 L 151.0 159.0 L 151.0 159.0 L 152.0 159.0 L 153.0 159.0 L 153.0 159.0 L 154.0 158.0 L 155.0 158.0 L 155.0 158.0 L 156.0 158.0 L 156.0 158.0 L 157.0 158.0 L 158.0 158.0 L 158.0 158.0 L 159.0 158.0 L 160.0 158.0 L 160.0 158.0 L 161.0 158.0 L 162.0 158.0 L 163.0 158.0 L 164.0 158.0 L 165.0 158.0 L 166.0 158.0 L 167.0 157.0 L 168.0 157.0 L 168.0 157.0 L 169.0 157.0 L 171.0 157.0 L 172.0 157.0 L 173.0 157.0 L 174.0 157.0 L 175.0 157.0 L 176.0 157.0 L 177.0 157.0 L 178.0 157.0 L 180.0 157.0 L 181.0 157.0 L 182.0 157.0 L 183.0 157.0 L 184.0 156.0 L 185.0 156.0 L 186.0 156.0 L 187.0 156.0 L 189.0 156.0 L 190.0 156.0 L 191.0 156.0 L 191.0 156.0 L 192.0 156.0 L 193.0 156.0 L 194.0 156.0 L 194.0 156.0 L 195.0 156.0 L 196.0 156.0 L 196.0 155.0 L 197.0 155.0 L 197.0 155.0 L 198.0 155.0 L 198.0 155.0 L 199.0 155.0 L 199.0 155.0 L 200.0 155.0 L 200.0 155.0 L 201.0 155.0 L 201.0 155.0 L 202.0 155.0 L 202.0 155.0 L 203.0 155.0 L 203.0 155.0 L 204.0 155.0 L 204.0 155.0 L 205.0 155.0 L 205.0 156.0 L 206.0 156.0 L 207.0 156.0 L 207.0 156.0 L 208.0 156.0 L 208.0 157.0 L 209.0 157.0 L 209.0 157.0 L 209.0 157.0 L 210.0 157.0 L 210.0 158.0 L 210.0 158.0 L 210.0 159.0 L 210.0 160.0 L 211.0 161.0 L 211.0 162.0 L 211.0 164.0 L 211.0 166.0 L 211.0 168.0 L 211.0 171.0 L 211.0 175.0 L 211.0 180.0 L 211.0 184.0 L 210.0 190.0 L 210.0 195.0 L 210.0 200.0 L 210.0 204.0 L 210.0 207.0 L 210.0 209.0 L 210.0 210.0 L 210.0 211.0 L 210.0 211.0 L 210.0 211.0 L 210.0 211.0 L 210.0 211.0 L 208.0 211.0 L 207.0 211.0 " stroke="black" fill="none" stroke-width="5.0" stroke-linecap="round" stroke-linejoin="round" />
<path d="M 107.0 187.0 L 107.0 187.0 L 106.0 187.0 L 106.0 187.0 L 105.0 186.0 L 105.0 186.0 L 105.0 186.0 L 105.0 186.0 L 105.0 186.0 L 105.0 186.0 L 105.0 186.0 L 106.0 185.0 L 107.0 185.0 L 108.0 185.0 L 110.0 185.0 L 112.0 185.0 L 115.0 185.0 L 118.0 185.0 L 122.0 185.0 L 128.0 185.0 L 134.0 185.0 L 140.0 185.0 L 147.0 185.0 L 152.0 184.0 L 157.0 184.0 L 162.0 184.0 L 166.0 183.0 L 170.0 183.0 L 174.0 183.0 L 177.0 183.0 L 180.0 183.0 L 183.0 183.0 L 184.0 182.0 L 185.0 182.0 L 186.0 182.0 L 186.0 182.0 " stroke="black" fill="none" stroke-width="5.0" stroke-linecap="round" stroke-linejoin="round" />
<path d="M 152.0 167.0 L 152.0 166.0 L 151.0 165.0 L 151.0 165.0 L 150.0 164.0 L 150.0 164.0 L 150.0 164.0 L 150.0 164.0 L 150.0 164.0 L 150.0 164.0 L 150.0 166.0 L 151.0 168.0 L 151.0 171.0 L 151.0 175.0 L 151.0 180.0 L 151.0 185.0 L 151.0 191.0 L 151.0 196.0 L 150.0 201.0 L 150.0 206.0 L 149.0 209.0 L 149.0 210.0 L 149.0 211.0 " stroke="black" fill="none" stroke-width="5.0" stroke-linecap="round" stroke-linejoin="round" />
<path d="M 98.0 213.0 L 98.0 213.0 L 98.0 213.0 L 97.0 213.0 L 97.0 213.0 L 97.0 213.0 L 96.0 213.0 L 96.0 213.0 L 96.0 213.0 L 96.0 213.0 L 96.0 213.0 L 96.0 213.0 L 97.0 213.0 L 98.0 213.0 L 100.0 213.0 L 101.0 213.0 L 102.0 213.0 L 104.0 213.0 L 105.0 212.0 L 107.0 212.0 L 109.0 212.0 L 111.0 212.0 L 114.0 211.0 L 117.0 211.0 L 120.0 210.0 L 124.0 210.0 L 128.0 209.0 L 132.0 209.0 L 136.0 209.0 L 141.0 209.0 L 144.0 209.0 L 148.0 209.0 L 151.0 209.0 L 154.0 209.0 L 156.0 209.0 L 159.0 209.0 L 162.0 209.0 L 165.0 209.0 L 168.0 209.0 L 172.0 209.0 L 175.0 209.0 L 179.0 209.0 L 182.0 209.0 L 186.0 210.0 L 189.0 210.0 L 192.0 211.0 L 194.0 211.0 L 196.0 211.0 L 198.0 212.0 L 199.0 212.0 L 200.0 212.0 L 201.0 212.0 L 201.0 212.0 " stroke="black" fill="none" stroke-width="5.0" stroke-linecap="round" stroke-linejoin="round" />
<path d="M 118.0 229.0 L 118.0 229.0 L 118.0 229.0 L 118.0 229.0 L 118.0 229.0 L 118.0 229.0 L 118.0 229.0 L 118.0 229.0 L 117.0 230.0 L 115.0 231.0 L 113.0 233.0 L 110.0 235.0 L 106.0 238.0 L 101.0 241.0 L 95.0 244.0 L 90.0 247.0 L 85.0 248.0 L 81.0 250.0 L 78.0 250.0 " stroke="black" fill="none" stroke-width="5.0" stroke-linecap="round" stroke-linejoin="round" />
<path d="M 179.0 235.0 L 179.0 235.0 L 179.0 235.0 L 179.0 234.0 L 179.0 234.0 L 179.0 233.0 L 179.0 233.0 L 180.0 233.0 L 181.0 233.0 L 184.0 234.0 L 186.0 236.0 L 189.0 237.0 L 192.0 240.0 L 197.0 242.0 L 201.0 245.0 L 206.0 248.0 L 212.0 250.0 L 218.0 253.0 L 223.0 255.0 L 228.0 257.0 L 230.0 257.0 L 231.0 258.0 " stroke="black" fill="none" stroke-width="5.0" stroke-linecap="round" stroke-linejoin="round" />
</svg>