<svg xmlns="http://www.w3.org/2000/svg" width="300" height="300" viewBox="0 0 300 300">
<path d="M 92.0 83.0 L 92.0 83.0 L 91.0 83.0 L 91.0 83.0 L 91.0 83.0 L 91.0 83.0 L 90.0 83.0 L 90.0 83.0 L 89.0 83.0 L 89.0 83.0 L 89.0 83.0 L 88.0 84.0 L 88.0 84.0 L 88.0 85.0 L 88.0 87.0 L 88.0 88.0 L 88.0 90.0 L 88.0 91.0 L 88.0 93.0 L 89.0 96.0 L 89.0 99.0 L 89.0 102.0 L 89.0 105.0 L 89.0 108.0 L 89.0 111.0 L 89.0 114.0 L 89.0 116.0 L 89.0 119.0 L 89.0 121.0 L 89.0 124.0 L 89.0 126.0 L 89.0 128.0 L 89.0 131.0 L 89.0 133.0 L 89.0 135.0 L 89.0 138.0 L 89.0 140.0 L 89.0 142.0 L 89.0 143.0 L 89.0 145.0 L 89.0 147.0 L 89.0 148.0 L 89.0 150.0 L 89.0 152.0 L 89.0 153.0 L 89.0 155.0 L 89.0 157.0 L 89.0 159.0 L 88.0 161.0 L 88.0 162.0 L 88.0 164.0 L 88.0 165.0 L 88.0 167.0 L 88.0 168.0 L 87.0 170.0 L 87.0 172.0 L 87.0 174.0 L 87.0 176.0 L 87.0 178.0 L 87.0 181.0 L 87.0 183.0 L 87.0 185.0 L 87.0 188.0 L 87.0 189.0 L 87.0 192.0 L 87.0 193.0 L 87.0 195.0 L 87.0 197.0 L 87.0 198.0 L 87.0 199.0 L 87.0 200.0 L 87.0 201.0 L 87.0 202.0 L 87.0 203.0 L 87.0 204.0 L 87.0 204.0 L 87.0 205.0 L 87.0 206.0 L 86.0 207.0 L 86.0 207.0 L 86.0 208.0 L 86.0 208.0 L 86.0 208.0 L 86.0 208.0 L 86.0 207.0 " stroke="black" fill="none" stroke-width="5.0" stroke-linecap="round" stroke-linejoin="round" />
<path d="M 64.0 217.0 L 64.0 217.0 L 64.0 217.0 L 64.0 217.0 L 64.0 216.0 L 64.0 216.0 L 64.0 216.0 L 64.0 216.0 L 64.0 215.0 L 64.0 215.0 L 64.0 215.0 L 64.0 214.0 L 65.0 214.0 L 65.0 214.0 L 66.0 213.0 L 67.0 213.0 L 68.0 212.0 L 69.0 212.0 L 71.0 211.0 L 73.0 210.0 L 75.0 209.0 L 78.0 208.0 L 81.0 207.0 L 85.0 206.0 L 89.0 205.0 L 93.0 204.0 L 97.0 202.0 L 101.0 201.0 L 104.0 200.0 L 107.0 198.0 L 110.0 197.0 L 113.0 195.0 L 116.0 194.0 L 119.0 192.0 L 123.0 190.0 L 126.0 189.0 L 130.0 188.0 L 133.0 187.0 L 135.0 186.0 L 137.0 186.0 L 138.0 186.0 L 139.0 186.0 L 140.0 186.0 " stroke="black" fill="none" stroke-width="5.0" stroke-linecap="round" stroke-linejoin="round" />
<path d="M 128.0 105.0 L 128.0 105.0 L 129.0 105.0 L 129.0 104.0 L 130.0 104.0 L 130.0 104.0 L 131.0 104.0 L 132.0 104.0 L 132.0 104.0 L 133.0 104.0 L 135.0 105.0 L 136.0 106.0 L 138.0 108.0 L 139.0 111.0 L 142.0 114.0 L 144.0 117.0 L 147.0 121.0 L 150.0 124.0 L 153.0 128.0 L 156.0 131.0 L 159.0 133.0 L 161.0 136.0 L 162.0 138.0 L 163.0 139.0 L 163.0 141.0 " stroke="black" fill="none" stroke-width="5.0" stroke-linecap="round" stroke-linejoin="round" />
<path d="M 206.0 83.0 L 206.0 83.0 L 206.0 83.0 L 206.0 84.0 L 206.0 84.0 L 206.0 85.0 L 206.0 85.0 L 207.0 86.0 L 207.0 87.0 L 207.0 87.0 L 207.0 88.0 L 207.0 89.0 L 207.0 90.0 L 207.0 91.0 L 208.0 92.0 L 208.0 93.0 L 208.0 95.0 L 208.0 98.0 L 208.0 100.0 L 208.0 103.0 L 208.0 105.0 L 208.0 108.0 L 208.0 110.0 L 208.0 112.0 L 208.0 114.0 L 207.0 116.0 L 207.0 118.0 L 207.0 119.0 L 206.0 121.0 L 206.0 123.0 L 205.0 124.0 L 205.0 126.0 L 205.0 127.0 L 204.0 129.0 L 204.0 131.0 L 203.0 132.0 L 203.0 134.0 L 202.0 136.0 L 202.0 138.0 L 201.0 140.0 L 201.0 142.0 L 200.0 144.0 L 200.0 145.0 L 199.0 147.0 L 199.0 149.0 L 198.0 150.0 L 198.0 152.0 L 197.0 154.0 L 197.0 155.0 L 196.0 156.0 L 196.0 158.0 L 195.0 159.0 L 195.0 160.0 L 195.0 161.0 L 194.0 162.0 L 194.0 163.0 L 194.0 164.0 L 193.0 165.0 L 193.0 166.0 L 193.0 167.0 L 192.0 168.0 L 192.0 170.0 L 191.0 171.0 L 191.0 172.0 L 190.0 174.0 L 190.0 175.0 L 189.0 177.0 L 188.0 178.0 L 188.0 180.0 L 187.0 181.0 L 187.0 182.0 L 186.0 184.0 L 185.0 185.0 L 185.0 186.0 L 184.0 188.0 L 184.0 189.0 L 183.0 190.0 L 182.0 191.0 L 181.0 192.0 L 181.0 193.0 L 180.0 194.0 L 179.0 195.0 L 178.0 196.0 L 177.0 198.0 L 176.0 199.0 L 175.0 200.0 L 173.0 202.0 L 172.0 203.0 L 170.0 204.0 L 169.0 206.0 L 168.0 207.0 L 166.0 208.0 L 165.0 209.0 L 163.0 211.0 L 162.0 212.0 L 160.0 213.0 L 159.0 215.0 L 157.0 216.0 L 156.0 217.0 L 155.0 219.0 L 153.0 220.0 L 152.0 222.0 L 151.0 223.0 L 150.0 225.0 L 148.0 227.0 L 147.0 229.0 L 145.0 231.0 L 144.0 232.0 L 142.0 234.0 L 140.0 236.0 L 138.0 237.0 L 135.0 238.0 L 133.0 239.0 L 132.0 239.0 L 131.0 239.0 " stroke="black" fill="none" stroke-width="5.0" stroke-linecap="round" stroke-linejoin="round" />
<path d="M 189.0 188.0 L 189.0 188.0 L 189.0 188.0 L 188.0 188.0 L 188.0 188.0 L 187.0 189.0 L 187.0 189.0 L 187.0 189.0 L 187.0 189.0 L 187.0 190.0 L 187.0 191.0 L 188.0 192.0 L 189.0 193.0 L 191.0 195.0 L 192.0 197.0 L 194.0 200.0 L 197.0 203.0 L 199.0 207.0 L 202.0 211.0 L 205.0 215.0 L 208.0 219.0 L 212.0 223.0 L 216.0 228.0 L 219.0 231.0 L 223.0 235.0 L 226.0 238.0 L 228.0 240.0 L 231.0 242.0 L 233.0 244.0 L 235.0 246.0 L 236.0 247.0 L 238.0 249.0 L 238.0 250.0 L 239.0 250.0 L 239.0 251.0 L 239.0 251.0 L 239.0 252.0 L 239.0 252.0 L 239.0 252.0 " stroke="black" fill="none" stroke-width="5.0" stroke-linecap="round" stroke-linejoin="round" />
</svg>