<svg xmlns="http://www.w3.org/2000/svg" width="300" height="300" viewBox="0 0 300 300">
<path d="M 64.0 104.0 L 64.0 103.0 L 64.0 103.0 L 64.0 102.0 L 64.0 101.0 L 64.0 101.0 L 64.0 100.0 L 64.0 100.0 L 64.0 100.0 L 64.0 100.0 L 64.0 100.0 L 64.0 100.0 L 64.0 101.0 L 64.0 103.0 L 64.0 105.0 L 65.0 108.0 L 65.0 111.0 L 65.0 115.0 L 65.0 120.0 L 65.0 126.0 L 66.0 133.0 L 66.0 143.0 L 66.0 153.0 L 66.0 163.0 L 66.0 174.0 L 66.0 183.0 L 66.0 190.0 L 66.0 196.0 L 66.0 199.0 L 66.0 202.0 L 66.0 203.0 L 66.0 204.0 L 66.0 204.0 L 66.0 204.0 L 66.0 204.0 L 66.0 202.0 " stroke="black" fill="none" stroke-width="5.0" stroke-linecap="round" stroke-linejoin="round" />
<path d="M 75.0 93.0 L 74.0 93.0 L 73.0 93.0 L 72.0 92.0 L 71.0 92.0 L 70.0 92.0 L 69.0 91.0 L 69.0 91.0 L 69.0 91.0 L 69.0 91.0 L 69.0 91.0 L 69.0 91.0 L 69.0 91.0 L 70.0 91.0 L 72.0 91.0 L 74.0 91.0 L 77.0 91.0 L 80.0 91.0 L 84.0 92.0 L 88.0 92.0 L 92.0 92.0 L 96.0 92.0 L 100.0 92.0 L 103.0 92.0 L 106.0 92.0 L 108.0 92.0 L 110.0 92.0 L 111.0 92.0 L 112.0 92.0 L 113.0 92.0 L 113.0 92.0 L 113.0 92.0 L 113.0 93.0 L 113.0 95.0 L 114.0 97.0 L 114.0 99.0 L 114.0 102.0 L 114.0 106.0 L 114.0 111.0 L 114.0 116.0 L 114.0 121.0 L 114.0 127.0 L 114.0 133.0 L 113.0 140.0 L 113.0 147.0 L 113.0 153.0 L 112.0 160.0 L 112.0 165.0 L 112.0 171.0 L 111.0 176.0 L 111.0 180.0 L 110.0 184.0 L 110.0 187.0 L 110.0 190.0 L 110.0 192.0 L 110.0 193.0 L 110.0 194.0 L 109.0 195.0 L 109.0 195.0 L 109.0 196.0 L 109.0 196.0 " stroke="black" fill="none" stroke-width="5.0" stroke-linecap="round" stroke-linejoin="round" />
<path d="M 74.0 200.0 L 72.0 200.0 L 70.0 200.0 L 69.0 200.0 L 68.0 200.0 L 68.0 200.0 L 68.0 200.0 L 68.0 200.0 L 70.0 200.0 L 72.0 199.0 L 75.0 199.0 L 79.0 198.0 L 84.0 197.0 L 90.0 196.0 L 96.0 194.0 L 101.0 193.0 L 107.0 192.0 " stroke="black" fill="none" stroke-width="5.0" stroke-linecap="round" stroke-linejoin="round" />
<path d="M 166.0 65.0 L 166.0 65.0 L 166.0 65.0 L 166.0 66.0 L 166.0 66.0 L 165.0 67.0 L 165.0 68.0 L 164.0 70.0 L 163.0 72.0 L 162.0 77.0 L 161.0 82.0 L 158.0 90.0 L 155.0 99.0 L 152.0 109.0 L 149.0 119.0 L 146.0 128.0 L 144.0 135.0 L 142.0 141.0 L 141.0 142.0 " stroke="black" fill="none" stroke-width="5.0" stroke-linecap="round" stroke-linejoin="round" />
<path d="M 163.0 107.0 L 162.0 107.0 L 162.0 107.0 L 161.0 107.0 L 160.0 107.0 L 159.0 108.0 L 158.0 108.0 L 157.0 108.0 L 156.0 108.0 L 155.0 109.0 L 154.0 109.0 L 154.0 109.0 L 153.0 109.0 L 153.0 109.0 L 153.0 109.0 L 153.0 109.0 L 153.0 109.0 L 153.0 109.0 L 153.0 109.0 L 154.0 109.0 L 155.0 109.0 L 156.0 109.0 L 157.0 109.0 L 159.0 109.0 L 161.0 109.0 L 163.0 109.0 L 165.0 109.0 L 168.0 109.0 L 171.0 109.0 L 173.0 109.0 L 176.0 109.0 L 179.0 109.0 L 182.0 109.0 L 185.0 109.0 L 188.0 109.0 L 190.0 109.0 L 192.0 108.0 L 194.0 108.0 L 196.0 108.0 L 198.0 108.0 L 200.0 108.0 L 201.0 108.0 L 203.0 108.0 L 205.0 108.0 L 207.0 108.0 L 209.0 108.0 L 211.0 108.0 L 212.0 108.0 L 214.0 108.0 L 216.0 108.0 L 218.0 108.0 L 220.0 108.0 L 222.0 108.0 L 224.0 109.0 L 225.0 109.0 L 227.0 109.0 L 228.0 109.0 L 230.0 109.0 L 231.0 110.0 L 232.0 110.0 L 233.0 110.0 L 234.0 110.0 L 235.0 111.0 L 235.0 111.0 L 236.0 111.0 L 236.0 111.0 L 237.0 112.0 L 237.0 112.0 L 237.0 112.0 L 238.0 112.0 L 238.0 112.0 L 238.0 112.0 L 238.0 112.0 L 239.0 112.0 L 239.0 112.0 L 239.0 113.0 L 239.0 113.0 L 239.0 113.0 L 239.0 114.0 L 239.0 115.0 L 239.0 116.0 L 239.0 119.0 L 238.0 121.0 L 237.0 125.0 L 236.0 128.0 L 235.0 133.0 L 234.0 137.0 L 233.0 142.0 " stroke="black" fill="none" stroke-width="5.0" stroke-linecap="round" stroke-linejoin="round" />
<path d="M 180.0 137.0 L 180.0 137.0 L 180.0 137.0 L 180.0 136.0 L 180.0 136.0 L 180.0 136.0 L 180.0 136.0 L 180.0 136.0 L 180.0 137.0 L 180.0 139.0 L 180.0 141.0 L 180.0 144.0 L 180.0 147.0 L 180.0 150.0 L 180.0 154.0 L 180.0 158.0 L 180.0 162.0 L 180.0 167.0 L 180.0 173.0 L 179.0 179.0 L 178.0 185.0 L 177.0 191.0 L 175.0 196.0 L 173.0 201.0 L 171.0 205.0 L 169.0 209.0 L 166.0 214.0 L 163.0 219.0 L 160.0 225.0 L 157.0 232.0 L 154.0 237.0 L 151.0 242.0 L 148.0 246.0 L 146.0 249.0 L 143.0 251.0 L 139.0 253.0 L 135.0 253.0 L 134.0 253.0 " stroke="black" fill="none" stroke-width="5.0" stroke-linecap="round" stroke-linejoin="round" />
<path d="M 188.0 178.0 L 187.0 177.0 L 186.0 175.0 L 185.0 174.0 L 184.0 174.0 L 184.0 173.0 L 184.0 173.0 L 184.0 173.0 L 184.0 173.0 L 184.0 174.0 L 184.0 176.0 L 185.0 178.0 L 187.0 181.0 L 188.0 185.0 L 190.0 190.0 L 192.0 194.0 L 195.0 199.0 L 198.0 205.0 L 202.0 211.0 L 206.0 218.0 L 212.0 226.0 L 217.0 232.0 L 223.0 238.0 L 227.0 243.0 L 231.0 246.0 L 234.0 249.0 L 236.0 252.0 L 238.0 254.0 L 239.0 256.0 L 241.0 258.0 L 244.0 259.0 L 246.0 259.0 " stroke="black" fill="none" stroke-width="5.0" stroke-linecap="round" stroke-linejoin="round" />
</svg>