<svg xmlns="http://www.w3.org/2000/svg" width="300" height="300" viewBox="0 0 300 300">
<path d="M 150.0 92.0 L 150.0 92.0 L 150.0 92.0 L 149.0 92.0 L 149.0 92.0 L 149.0 92.0 L 149.0 92.0 L 148.0 92.0 L 148.0 92.0 L 148.0 92.0 L 148.0 92.0 L 148.0 92.0 L 148.0 93.0 L 148.0 94.0 L 148.0 96.0 L 148.0 98.0 L 148.0 100.0 L 148.0 102.0 L 148.0 104.0 L 148.0 107.0 L 148.0 110.0 L 148.0 112.0 L 148.0 115.0 L 148.0 118.0 L 148.0 120.0 L 149.0 123.0 L 149.0 125.0 L 149.0 128.0 L 149.0 130.0 L 149.0 133.0 L 149.0 135.0 L 149.0 138.0 L 149.0 141.0 L 149.0 143.0 L 149.0 146.0 L 149.0 149.0 L 149.0 151.0 L 149.0 154.0 L 148.0 157.0 L 148.0 159.0 L 148.0 162.0 L 148.0 164.0 L 148.0 166.0 L 148.0 168.0 L 148.0 170.0 L 147.0 172.0 L 147.0 174.0 L 147.0 176.0 L 147.0 178.0 L 147.0 181.0 L 147.0 183.0 L 147.0 185.0 L 146.0 188.0 L 146.0 190.0 L 146.0 192.0 L 146.0 194.0 L 146.0 195.0 L 146.0 196.0 L 146.0 197.0 L 146.0 197.0 L 146.0 197.0 " stroke="black" fill="none" stroke-width="5.0" stroke-linecap="round" stroke-linejoin="round" />
<path d="M 148.0 226.0 L 148.0 226.0 L 148.0 226.0 L 148.0 226.0 L 148.0 225.0 L 148.0 225.0 L 148.0 225.0 L 148.0 225.0 L 148.0 225.0 L 148.0 225.0 L 147.0 225.0 L 147.0 225.0 L 147.0 225.0 L 147.0 225.0 L 146.0 225.0 L 146.0 226.0 L 146.0 227.0 L 146.0 228.0 L 146.0 229.0 L 146.0 230.0 L 146.0 231.0 L 147.0 232.0 L 148.0 232.0 L 149.0 232.0 L 150.0 232.0 L 150.0 230.0 L 151.0 229.0 L 151.0 226.0 L 151.0 224.0 L 151.0 222.0 L 151.0 220.0 L 150.0 218.0 L 149.0 217.0 L 148.0 217.0 L 147.0 217.0 L 145.0 217.0 L 144.0 218.0 L 143.0 221.0 L 143.0 223.0 L 143.0 226.0 L 143.0 229.0 L 143.0 231.0 L 143.0 233.0 L 144.0 234.0 L 145.0 234.0 L 146.0 235.0 L 148.0 235.0 L 149.0 235.0 L 150.0 234.0 L 151.0 232.0 L 151.0 231.0 L 152.0 229.0 L 152.0 227.0 L 152.0 225.0 L 152.0 223.0 L 151.0 221.0 L 150.0 220.0 L 149.0 219.0 L 148.0 218.0 L 147.0 218.0 L 146.0 218.0 L 145.0 218.0 L 145.0 220.0 L 144.0 223.0 L 144.0 225.0 L 144.0 228.0 L 145.0 230.0 L 146.0 232.0 L 147.0 233.0 L 148.0 234.0 L 149.0 234.0 L 151.0 234.0 L 152.0 233.0 L 153.0 232.0 L 154.0 230.0 L 155.0 228.0 L 155.0 226.0 L 155.0 225.0 L 155.0 223.0 L 154.0 221.0 L 153.0 220.0 L 152.0 219.0 L 150.0 219.0 L 149.0 219.0 L 148.0 219.0 L 147.0 220.0 L 146.0 222.0 L 146.0 224.0 L 146.0 227.0 L 146.0 229.0 L 147.0 231.0 L 148.0 232.0 L 149.0 233.0 L 150.0 234.0 L 151.0 234.0 L 152.0 234.0 L 154.0 233.0 L 154.0 231.0 L 155.0 230.0 L 155.0 228.0 L 155.0 226.0 L 155.0 225.0 L 154.0 223.0 L 153.0 221.0 L 151.0 220.0 L 150.0 220.0 L 149.0 220.0 L 147.0 220.0 L 146.0 221.0 L 145.0 222.0 L 145.0 225.0 L 145.0 227.0 L 145.0 229.0 L 145.0 230.0 L 146.0 231.0 L 147.0 231.0 L 148.0 231.0 L 149.0 231.0 L 150.0 231.0 L 151.0 229.0 L 152.0 228.0 L 153.0 226.0 L 153.0 225.0 L 153.0 223.0 L 153.0 222.0 L 153.0 221.0 L 152.0 220.0 L 151.0 220.0 L 150.0 219.0 L 149.0 219.0 L 148.0 219.0 L 148.0 220.0 L 147.0 222.0 L 147.0 225.0 L 147.0 227.0 L 147.0 230.0 L 148.0 231.0 L 148.0 233.0 L 149.0 234.0 L 150.0 234.0 L 150.0 234.0 L 151.0 234.0 L 151.0 233.0 L 151.0 232.0 L 151.0 230.0 L 150.0 229.0 L 149.0 227.0 L 149.0 226.0 L 148.0 225.0 L 147.0 224.0 L 147.0 223.0 L 146.0 223.0 L 146.0 223.0 L 146.0 223.0 L 146.0 224.0 L 146.0 225.0 L 146.0 227.0 L 147.0 228.0 L 147.0 229.0 L 148.0 229.0 L 148.0 230.0 L 149.0 230.0 " stroke="black" fill="none" stroke-width="5.0" stroke-linecap="round" stroke-linejoin="round" />
</svg>