<svg xmlns="http://www.w3.org/2000/svg" width="300" height="300" viewBox="0 0 300 300">
<path d="M 147.0 72.0 L 147.0 72.0 L 146.0 71.0 L 145.0 70.0 L 145.0 70.0 L 145.0 70.0 L 145.0 70.0 L 145.0 71.0 L 146.0 73.0 L 148.0 75.0 L 150.0 78.0 L 152.0 81.0 L 154.0 84.0 L 156.0 87.0 L 158.0 89.0 " stroke="black" fill="none" stroke-width="5.0" stroke-linecap="round" stroke-linejoin="round" />
<path d="M 79.0 100.0 L 78.0 100.0 L 77.0 100.0 L 76.0 100.0 L 75.0 100.0 L 75.0 100.0 L 75.0 100.0 L 75.0 100.0 L 76.0 100.0 L 78.0 100.0 L 82.0 100.0 L 86.0 100.0 L 90.0 100.0 L 95.0 100.0 L 101.0 100.0 L 107.0 101.0 L 114.0 102.0 L 125.0 102.0 L 137.0 102.0 L 149.0 102.0 L 162.0 100.0 L 174.0 99.0 L 187.0 98.0 L 196.0 97.0 L 201.0 98.0 L 205.0 100.0 L 209.0 102.0 L 211.0 105.0 L 213.0 107.0 L 214.0 108.0 " stroke="black" fill="none" stroke-width="5.0" stroke-linecap="round" stroke-linejoin="round" />
<path d="M 118.0 121.0 L 118.0 120.0 L 118.0 120.0 L 118.0 119.0 L 118.0 118.0 L 118.0 118.0 L 118.0 117.0 L 118.0 117.0 L 118.0 117.0 L 117.0 119.0 L 115.0 122.0 L 112.0 126.0 L 108.0 131.0 L 103.0 137.0 L 97.0 143.0 L 90.0 148.0 L 82.0 153.0 L 76.0 155.0 L 73.0 157.0 " stroke="black" fill="none" stroke-width="5.0" stroke-linecap="round" stroke-linejoin="round" />
<path d="M 189.0 126.0 L 188.0 125.0 L 187.0 124.0 L 185.0 124.0 L 185.0 123.0 L 185.0 123.0 L 185.0 123.0 L 186.0 123.0 L 188.0 123.0 L 190.0 124.0 L 193.0 126.0 L 196.0 128.0 L 200.0 130.0 L 204.0 133.0 L 208.0 136.0 L 213.0 139.0 L 218.0 142.0 L 223.0 145.0 L 227.0 148.0 L 229.0 149.0 " stroke="black" fill="none" stroke-width="5.0" stroke-linecap="round" stroke-linejoin="round" />
<path d="M 190.0 161.0 L 190.0 161.0 L 190.0 161.0 L 190.0 161.0 L 190.0 161.0 L 190.0 161.0 L 190.0 161.0 L 190.0 162.0 L 190.0 162.0 L 190.0 164.0 L 188.0 166.0 L 187.0 168.0 L 184.0 171.0 L 181.0 175.0 L 177.0 180.0 L 173.0 185.0 L 168.0 190.0 L 163.0 195.0 L 159.0 200.0 L 155.0 203.0 L 152.0 207.0 L 149.0 209.0 L 146.0 212.0 L 143.0 215.0 L 138.0 217.0 L 133.0 219.0 L 127.0 222.0 L 122.0 224.0 L 117.0 226.0 L 112.0 228.0 L 109.0 230.0 L 106.0 232.0 L 102.0 234.0 L 99.0 236.0 L 94.0 238.0 L 90.0 240.0 L 86.0 240.0 " stroke="black" fill="none" stroke-width="5.0" stroke-linecap="round" stroke-linejoin="round" />
<path d="M 114.0 161.0 L 114.0 161.0 L 113.0 161.0 L 112.0 161.0 L 111.0 161.0 L 111.0 161.0 L 111.0 162.0 L 111.0 164.0 L 111.0 166.0 L 113.0 169.0 L 116.0 172.0 L 119.0 176.0 L 123.0 181.0 L 128.0 187.0 L 135.0 195.0 L 142.0 202.0 L 149.0 211.0 L 157.0 220.0 L 165.0 228.0 L 175.0 234.0 L 185.0 238.0 L 192.0 239.0 L 198.0 240.0 L 204.0 241.0 L 210.0 241.0 L 217.0 241.0 L 223.0 242.0 L 227.0 243.0 L 230.0 243.0 L 232.0 243.0 " stroke="black" fill="none" stroke-width="5.0" stroke-linecap="round" stroke-linejoin="round" />
</svg>