<svg xmlns="http://www.w3.org/2000/svg" width="300" height="300" viewBox="0 0 300 300">
<path d="M 57.0 76.0 L 57.0 76.0 L 57.0 76.0 L 56.0 76.0 L 55.0 76.0 L 55.0 76.0 L 55.0 76.0 L 55.0 76.0 L 55.0 76.0 L 55.0 76.0 L 56.0 77.0 L 57.0 77.0 L 58.0 78.0 L 59.0 80.0 L 60.0 81.0 L 61.0 82.0 L 62.0 84.0 L 63.0 85.0 L 64.0 86.0 L 65.0 88.0 L 66.0 89.0 L 68.0 91.0 L 69.0 93.0 L 70.0 95.0 L 72.0 98.0 L 74.0 101.0 L 76.0 104.0 L 78.0 107.0 L 80.0 110.0 L 82.0 112.0 L 85.0 114.0 L 87.0 116.0 L 89.0 118.0 L 91.0 120.0 L 93.0 123.0 L 95.0 125.0 L 96.0 127.0 L 98.0 129.0 L 99.0 131.0 L 100.0 132.0 L 101.0 134.0 L 101.0 135.0 L 101.0 136.0 L 102.0 136.0 L 102.0 137.0 L 102.0 137.0 L 102.0 138.0 L 102.0 138.0 L 102.0 138.0 L 102.0 138.0 L 102.0 138.0 L 102.0 138.0 L 102.0 138.0 L 102.0 138.0 L 102.0 138.0 L 102.0 138.0 L 102.0 138.0 L 102.0 138.0 L 102.0 139.0 L 102.0 139.0 L 102.0 139.0 L 102.0 139.0 L 102.0 140.0 L 102.0 140.0 L 102.0 141.0 L 102.0 141.0 L 102.0 143.0 L 102.0 144.0 L 101.0 147.0 L 100.0 151.0 L 99.0 156.0 L 97.0 162.0 L 94.0 171.0 L 90.0 182.0 L 86.0 193.0 L 81.0 204.0 L 77.0 215.0 L 74.0 224.0 L 72.0 232.0 L 70.0 240.0 L 69.0 245.0 L 68.0 249.0 L 67.0 252.0 L 67.0 253.0 " stroke="black" fill="none" stroke-width="5.0" stroke-linecap="round" stroke-linejoin="round" />
<path d="M 94.0 89.0 L 94.0 89.0 L 94.0 89.0 L 94.0 89.0 L 94.0 89.0 L 94.0 89.0 L 94.0 89.0 L 94.0 89.0 L 94.0 90.0 L 95.0 91.0 L 96.0 92.0 L 98.0 95.0 L 101.0 98.0 L 103.0 101.0 L 105.0 105.0 L 108.0 109.0 L 111.0 113.0 L 113.0 117.0 L 116.0 121.0 L 118.0 124.0 L 119.0 128.0 L 121.0 132.0 L 122.0 135.0 L 123.0 138.0 L 124.0 141.0 L 125.0 143.0 L 125.0 144.0 L 126.0 146.0 L 127.0 146.0 L 127.0 146.0 L 127.0 147.0 L 128.0 147.0 L 128.0 147.0 L 128.0 147.0 L 128.0 147.0 L 128.0 147.0 L 128.0 148.0 L 128.0 148.0 L 128.0 148.0 L 128.0 148.0 L 128.0 148.0 L 128.0 148.0 L 128.0 148.0 L 128.0 148.0 L 128.0 148.0 L 128.0 148.0 L 128.0 148.0 L 128.0 148.0 L 128.0 148.0 L 129.0 148.0 L 129.0 149.0 L 129.0 150.0 L 129.0 151.0 L 129.0 152.0 L 129.0 155.0 L 129.0 158.0 L 129.0 163.0 L 129.0 171.0 L 127.0 181.0 L 124.0 192.0 L 120.0 204.0 L 116.0 216.0 L 112.0 227.0 L 108.0 239.0 L 105.0 247.0 L 103.0 253.0 L 100.0 259.0 L 99.0 263.0 L 98.0 266.0 L 98.0 267.0 L 98.0 267.0 " stroke="black" fill="none" stroke-width="5.0" stroke-linecap="round" stroke-linejoin="round" />
</svg>