<svg xmlns="http://www.w3.org/2000/svg" width="300" height="300" viewBox="0 0 300 300">
<path d="M 112.0 72.0 L 112.0 72.0 L 111.0 72.0 L 111.0 72.0 L 110.0 72.0 L 110.0 72.0 L 110.0 74.0 L 110.0 76.0 L 110.0 79.0 L 110.0 82.0 L 110.0 86.0 L 110.0 91.0 L 110.0 94.0 L 110.0 97.0 L 111.0 100.0 L 111.0 101.0 L 111.0 102.0 L 111.0 102.0 " stroke="black" fill="none" stroke-width="5.0" stroke-linecap="round" stroke-linejoin="round" />
<path d="M 117.0 86.0 L 117.0 86.0 L 117.0 86.0 L 118.0 86.0 L 119.0 86.0 L 120.0 86.0 L 121.0 86.0 L 122.0 86.0 L 123.0 86.0 L 125.0 85.0 L 127.0 85.0 L 130.0 85.0 L 133.0 85.0 L 137.0 85.0 L 140.0 84.0 L 143.0 84.0 L 146.0 84.0 " stroke="black" fill="none" stroke-width="5.0" stroke-linecap="round" stroke-linejoin="round" />
<path d="M 77.0 108.0 L 77.0 108.0 L 76.0 108.0 L 76.0 107.0 L 76.0 107.0 L 75.0 107.0 L 75.0 107.0 L 75.0 107.0 L 75.0 107.0 L 75.0 107.0 L 76.0 107.0 L 77.0 107.0 L 79.0 107.0 L 81.0 107.0 L 83.0 107.0 L 85.0 107.0 L 88.0 107.0 L 91.0 107.0 L 94.0 107.0 L 97.0 107.0 L 100.0 107.0 L 103.0 107.0 L 107.0 107.0 L 109.0 107.0 L 112.0 107.0 L 116.0 106.0 L 119.0 106.0 L 123.0 105.0 L 127.0 105.0 L 130.0 105.0 L 134.0 105.0 L 138.0 105.0 L 141.0 105.0 L 144.0 106.0 L 147.0 107.0 L 149.0 107.0 L 150.0 108.0 L 152.0 108.0 L 153.0 108.0 L 153.0 108.0 L 154.0 108.0 L 155.0 108.0 L 155.0 108.0 L 155.0 107.0 L 156.0 107.0 L 156.0 107.0 L 156.0 107.0 L 156.0 107.0 L 156.0 107.0 L 156.0 107.0 L 155.0 108.0 L 155.0 110.0 L 154.0 112.0 L 153.0 114.0 L 152.0 116.0 L 150.0 119.0 L 149.0 122.0 L 148.0 125.0 L 147.0 127.0 " stroke="black" fill="none" stroke-width="5.0" stroke-linecap="round" stroke-linejoin="round" />
<path d="M 73.0 114.0 L 73.0 114.0 L 73.0 114.0 L 73.0 114.0 L 73.0 114.0 L 73.0 115.0 L 74.0 116.0 L 74.0 117.0 L 75.0 119.0 L 76.0 122.0 L 77.0 126.0 L 78.0 131.0 L 78.0 137.0 L 79.0 143.0 L 79.0 151.0 L 79.0 159.0 L 78.0 166.0 L 76.0 175.0 L 74.0 184.0 L 72.0 193.0 L 68.0 202.0 L 66.0 210.0 L 63.0 217.0 L 60.0 225.0 L 57.0 231.0 L 54.0 236.0 " stroke="black" fill="none" stroke-width="5.0" stroke-linecap="round" stroke-linejoin="round" />
<path d="M 99.0 131.0 L 98.0 131.0 L 97.0 130.0 L 95.0 130.0 L 95.0 130.0 L 94.0 130.0 L 94.0 130.0 L 94.0 130.0 L 95.0 130.0 L 97.0 130.0 L 100.0 131.0 L 102.0 131.0 L 106.0 131.0 L 109.0 131.0 L 113.0 131.0 L 117.0 131.0 L 122.0 130.0 L 126.0 129.0 L 130.0 128.0 L 133.0 128.0 L 134.0 127.0 " stroke="black" fill="none" stroke-width="5.0" stroke-linecap="round" stroke-linejoin="round" />
<path d="M 118.0 119.0 L 118.0 119.0 L 116.0 119.0 L 115.0 120.0 L 114.0 121.0 L 114.0 122.0 L 113.0 124.0 L 113.0 126.0 L 113.0 130.0 L 113.0 134.0 L 113.0 139.0 L 113.0 143.0 L 113.0 148.0 L 113.0 152.0 L 113.0 154.0 L 113.0 156.0 L 113.0 156.0 L 114.0 157.0 L 116.0 157.0 L 118.0 157.0 L 121.0 156.0 L 124.0 155.0 L 128.0 154.0 L 133.0 153.0 L 137.0 152.0 L 141.0 151.0 L 144.0 151.0 L 147.0 151.0 L 148.0 151.0 L 149.0 151.0 L 149.0 152.0 " stroke="black" fill="none" stroke-width="5.0" stroke-linecap="round" stroke-linejoin="round" />
<path d="M 91.0 169.0 L 91.0 169.0 L 89.0 169.0 L 87.0 170.0 L 86.0 170.0 L 86.0 171.0 L 86.0 171.0 L 88.0 172.0 L 91.0 172.0 L 95.0 172.0 L 99.0 172.0 L 104.0 172.0 L 110.0 172.0 L 116.0 170.0 L 124.0 169.0 L 133.0 167.0 L 141.0 166.0 L 147.0 166.0 L 151.0 165.0 L 153.0 165.0 L 155.0 166.0 L 155.0 167.0 " stroke="black" fill="none" stroke-width="5.0" stroke-linecap="round" stroke-linejoin="round" />
<path d="M 94.0 195.0 L 94.0 195.0 L 93.0 194.0 L 92.0 194.0 L 92.0 194.0 L 92.0 194.0 L 92.0 194.0 L 93.0 196.0 L 94.0 198.0 L 95.0 200.0 L 96.0 203.0 L 97.0 207.0 L 98.0 210.0 L 98.0 212.0 L 98.0 214.0 L 98.0 216.0 L 98.0 216.0 L 98.0 216.0 L 98.0 216.0 L 98.0 214.0 L 98.0 211.0 L 98.0 209.0 L 98.0 207.0 L 98.0 205.0 L 98.0 203.0 L 97.0 202.0 L 97.0 200.0 L 97.0 199.0 L 98.0 198.0 L 99.0 198.0 L 101.0 197.0 L 104.0 196.0 L 108.0 195.0 L 114.0 193.0 L 120.0 192.0 L 128.0 191.0 L 135.0 190.0 L 141.0 190.0 L 146.0 190.0 L 148.0 190.0 L 150.0 191.0 L 151.0 192.0 L 151.0 193.0 L 151.0 195.0 L 151.0 197.0 L 150.0 199.0 L 148.0 201.0 L 145.0 204.0 L 142.0 207.0 L 138.0 210.0 L 132.0 213.0 L 127.0 215.0 L 121.0 217.0 L 115.0 218.0 L 111.0 219.0 L 108.0 220.0 L 106.0 220.0 L 105.0 220.0 L 104.0 220.0 L 104.0 219.0 L 104.0 218.0 L 104.0 218.0 L 105.0 218.0 L 106.0 217.0 L 108.0 217.0 L 110.0 217.0 L 114.0 216.0 L 118.0 215.0 L 123.0 214.0 L 128.0 213.0 L 133.0 212.0 L 138.0 212.0 L 142.0 211.0 " stroke="black" fill="none" stroke-width="5.0" stroke-linecap="round" stroke-linejoin="round" />
<path d="M 103.0 223.0 L 102.0 223.0 L 101.0 224.0 L 100.0 225.0 L 100.0 226.0 L 100.0 228.0 L 100.0 231.0 L 102.0 234.0 L 104.0 236.0 L 106.0 238.0 L 109.0 239.0 L 112.0 240.0 L 116.0 240.0 L 121.0 240.0 " stroke="black" fill="none" stroke-width="5.0" stroke-linecap="round" stroke-linejoin="round" />
<path d="M 146.0 218.0 L 146.0 218.0 L 145.0 218.0 L 144.0 218.0 L 143.0 218.0 L 141.0 219.0 L 140.0 221.0 L 138.0 223.0 L 136.0 226.0 L 133.0 230.0 L 131.0 233.0 L 128.0 236.0 L 124.0 239.0 L 120.0 242.0 L 116.0 244.0 L 112.0 246.0 L 109.0 247.0 L 106.0 248.0 L 103.0 249.0 L 101.0 249.0 L 100.0 250.0 L 98.0 250.0 L 97.0 250.0 L 97.0 250.0 L 97.0 250.0 L 97.0 250.0 L 98.0 250.0 L 99.0 250.0 L 101.0 250.0 L 103.0 249.0 L 106.0 248.0 L 110.0 248.0 L 114.0 247.0 L 120.0 245.0 L 128.0 244.0 L 136.0 243.0 L 144.0 242.0 L 151.0 241.0 L 157.0 240.0 L 160.0 240.0 " stroke="black" fill="none" stroke-width="5.0" stroke-linecap="round" stroke-linejoin="round" />
<path d="M 172.0 143.0 L 171.0 142.0 L 170.0 142.0 L 169.0 142.0 L 169.0 141.0 L 169.0 141.0 L 172.0 141.0 L 175.0 141.0 L 181.0 141.0 L 186.0 141.0 L 193.0 141.0 L 200.0 140.0 L 209.0 139.0 L 219.0 137.0 L 228.0 136.0 L 235.0 135.0 L 240.0 133.0 L 241.0 133.0 " stroke="black" fill="none" stroke-width="5.0" stroke-linecap="round" stroke-linejoin="round" />
<path d="M 196.0 84.0 L 196.0 84.0 L 196.0 85.0 L 196.0 85.0 L 196.0 87.0 L 196.0 88.0 L 196.0 90.0 L 196.0 92.0 L 196.0 95.0 L 196.0 99.0 L 196.0 103.0 L 196.0 108.0 L 196.0 113.0 L 196.0 118.0 L 195.0 123.0 L 195.0 128.0 L 195.0 133.0 L 195.0 138.0 L 195.0 144.0 L 195.0 150.0 L 195.0 155.0 L 196.0 159.0 L 196.0 164.0 L 196.0 168.0 L 197.0 172.0 L 198.0 177.0 L 199.0 182.0 L 199.0 188.0 L 200.0 194.0 L 201.0 199.0 L 202.0 204.0 L 203.0 209.0 L 204.0 213.0 L 205.0 217.0 L 206.0 221.0 L 206.0 225.0 L 207.0 228.0 L 208.0 232.0 L 209.0 235.0 L 211.0 238.0 L 213.0 241.0 L 215.0 244.0 L 217.0 247.0 L 219.0 249.0 L 222.0 251.0 L 224.0 252.0 L 227.0 253.0 L 229.0 253.0 L 230.0 254.0 L 232.0 254.0 L 234.0 253.0 L 235.0 251.0 L 237.0 248.0 L 239.0 244.0 L 240.0 240.0 L 242.0 234.0 L 244.0 227.0 L 246.0 220.0 L 248.0 211.0 L 249.0 204.0 " stroke="black" fill="none" stroke-width="5.0" stroke-linecap="round" stroke-linejoin="round" />
<path d="M 219.0 79.0 L 219.0 79.0 L 219.0 79.0 L 219.0 79.0 L 219.0 79.0 L 219.0 80.0 L 219.0 81.0 L 221.0 84.0 L 223.0 88.0 L 226.0 94.0 L 230.0 100.0 L 233.0 106.0 L 236.0 112.0 L 239.0 117.0 L 242.0 122.0 L 243.0 127.0 L 243.0 130.0 " stroke="black" fill="none" stroke-width="5.0" stroke-linecap="round" stroke-linejoin="round" />
<path d="M 234.0 159.0 L 234.0 159.0 L 234.0 159.0 L 234.0 159.0 L 234.0 159.0 L 234.0 158.0 L 234.0 158.0 L 234.0 158.0 L 234.0 159.0 L 233.0 162.0 L 231.0 165.0 L 229.0 170.0 L 226.0 177.0 L 221.0 186.0 L 214.0 196.0 L 207.0 206.0 L 200.0 215.0 L 194.0 226.0 L 189.0 234.0 L 184.0 242.0 L 177.0 249.0 L 170.0 253.0 L 165.0 256.0 " stroke="black" fill="none" stroke-width="5.0" stroke-linecap="round" stroke-linejoin="round" />
</svg>