<svg xmlns="http://www.w3.org/2000/svg" width="300" height="300" viewBox="0 0 300 300">
<path d="M 153.75 72.5 L 153.75 72.5 L 154.375 72.5 L 155.0 72.5 L 155.0 72.5 L 155.0 73.125 L 155.0 73.125 L 155.0 73.125 L 154.375 73.75 L 153.75 74.375 L 153.125 74.375 L 152.5 75.0 L 151.875 75.625 L 151.25 76.25 L 150.625 76.25 L 149.375 76.875 L 148.125 77.5 L 146.25 78.75 L 145.0 79.375 L 142.5 80.0 L 140.0 80.625 L 136.875 81.25 L 134.375 81.875 L 131.25 82.5 L 128.75 83.125 L 126.25 83.75 L 124.375 85.0 L 122.5 85.625 L 120.625 86.875 L 119.375 88.125 L 118.125 89.375 L 116.25 90.0 L 114.375 90.625 L 112.5 90.625 L 110.0 91.25 L 106.875 91.875 L 104.375 91.875 L 102.5 93.125 L 100.625 93.75 L 100.0 93.75 L 98.75 94.375 L 98.75 95.0 L 98.125 95.0 L 98.125 95.0 L 98.125 95.625 L 98.125 95.625 L 98.125 95.625 L 97.5 95.625 L 97.5 95.625 L 97.5 96.25 L 97.5 96.25 L 97.5 96.25 L 97.5 96.25 L 97.5 96.25 L 97.5 96.25 L 97.5 96.25 L 97.5 96.25 L 97.5 96.25 L 97.5 96.875 L 97.5 96.875 L 97.5 97.5 L 97.5 97.5 L 97.5 98.125 L 97.5 98.125 L 97.5 98.75 L 97.5 99.375 L 98.125 100.0 L 98.125 100.625 L 98.125 101.875 L 98.125 102.5 L 98.125 103.125 L 98.125 104.375 L 98.125 105.625 L 98.125 106.25 L 98.125 107.5 L 98.125 108.75 L 98.125 110.0 L 98.125 111.25 L 98.125 111.875 L 98.125 113.125 L 98.125 114.375 L 98.125 115.0 L 98.125 116.25 L 98.125 117.5 L 98.125 118.75 L 98.125 120.625 L 98.125 121.875 L 98.125 123.125 L 97.5 125.0 L 97.5 126.25 L 97.5 127.5 L 97.5 128.75 L 96.875 130.625 L 96.875 131.875 L 96.875 133.125 L 96.25 134.375 L 96.25 135.625 L 96.25 136.25 L 96.25 137.5 L 96.25 138.125 L 96.25 139.375 L 95.625 140.0 L 95.625 141.25 L 95.625 141.875 L 95.625 143.125 L 95.625 143.125 L 95.625 143.75 L 95.625 144.375 L 95.625 144.375 L 95.625 144.375 L 95.625 144.375 L 95.625 143.125 L 95.625 141.875 " stroke="black" fill="none" stroke-width="5.0" stroke-linecap="round" stroke-linejoin="round" />
<path d="M 106.875 96.25 L 106.875 96.25 L 106.25 95.625 L 105.0 95.0 L 104.375 95.0 L 104.375 95.0 L 103.75 95.0 L 103.75 95.0 L 103.75 95.0 L 104.375 95.0 L 105.0 95.0 L 106.25 95.0 L 107.5 95.0 L 109.375 95.0 L 110.625 95.0 L 113.125 95.0 L 115.0 95.0 L 116.875 95.0 L 119.375 95.0 L 121.875 95.0 L 124.375 94.375 L 126.875 94.375 L 130.0 94.375 L 132.5 94.375 L 136.25 94.375 L 139.375 94.375 L 142.5 94.375 L 145.625 94.375 L 148.125 93.75 L 150.0 93.75 L 151.875 93.75 L 153.75 93.75 L 155.625 93.125 L 158.125 93.125 L 160.625 93.125 L 163.125 93.125 L 165.625 93.125 L 168.75 93.75 L 170.625 93.75 L 173.125 94.375 L 175.0 94.375 L 176.875 94.375 L 177.5 94.375 L 180.0 94.375 L 181.875 94.375 L 183.75 94.375 L 186.25 94.375 L 188.125 93.75 L 191.25 93.75 L 193.125 93.75 L 195.625 93.75 L 198.125 93.75 L 200.0 93.125 L 201.25 93.125 L 203.125 93.125 L 204.375 93.125 L 205.0 92.5 L 206.25 92.5 L 206.875 92.5 L 207.5 92.5 L 208.125 92.5 L 208.125 92.5 L 208.75 92.5 L 210.0 93.125 L 210.625 93.125 L 211.25 93.125 L 211.875 93.125 L 212.5 93.75 L 213.125 93.75 L 214.375 93.75 L 215.0 93.75 L 215.0 93.75 L 215.625 93.75 L 215.625 93.75 L 216.25 94.375 L 216.25 94.375 L 216.875 94.375 L 216.875 95.0 L 216.875 95.0 L 216.875 96.25 L 216.875 96.875 L 216.875 97.5 L 216.875 98.125 L 216.875 99.375 L 216.875 100.625 L 216.875 101.25 L 216.875 102.5 L 216.875 103.75 L 216.25 105.0 L 216.25 106.25 L 215.625 107.5 L 215.625 109.375 L 215.0 110.625 L 214.375 112.5 L 213.75 113.75 L 213.75 116.25 L 212.5 118.125 L 212.5 120.625 L 211.875 123.125 L 211.25 125.625 L 210.625 127.5 L 210.0 129.375 L 210.0 131.25 L 209.375 133.125 L 208.75 135.0 L 208.75 136.25 L 208.125 138.125 L 208.125 139.375 L 207.5 141.25 L 207.5 142.5 L 206.875 143.75 L 206.875 145.0 L 206.25 146.25 L 206.25 147.5 L 205.625 148.125 L 205.625 148.75 L 205.625 149.375 L 205.0 149.375 L 205.0 149.375 L 205.0 149.375 L 204.375 149.375 " stroke="black" fill="none" stroke-width="5.0" stroke-linecap="round" stroke-linejoin="round" />
<path d="M 105.625 122.5 L 105.625 122.5 L 105.625 121.875 L 106.25 121.875 L 106.25 121.25 L 106.875 121.25 L 107.5 121.25 L 108.75 121.25 L 110.0 121.25 L 112.5 121.25 L 115.0 121.25 L 118.125 121.25 L 121.25 121.25 L 124.375 121.25 L 128.125 121.875 L 132.5 121.875 L 138.125 122.5 L 143.125 122.5 L 147.5 122.5 L 151.875 122.5 L 155.625 122.5 L 160.0 123.125 L 164.375 123.125 L 168.75 123.75 L 171.875 124.375 L 175.625 124.375 L 178.125 125.0 L 180.0 125.0 L 182.5 125.0 L 185.0 125.0 L 188.125 125.0 L 191.25 125.0 L 194.375 125.0 L 196.875 125.0 L 198.75 125.0 L 200.0 125.0 L 201.25 125.0 L 201.875 125.0 L 202.5 125.0 L 202.5 125.0 L 203.125 125.0 L 203.125 125.0 L 203.75 125.625 L 203.75 125.625 L 203.75 125.625 L 203.75 126.25 L 203.75 126.25 L 203.75 126.25 L 202.5 126.875 L 201.875 126.875 " stroke="black" fill="none" stroke-width="5.0" stroke-linecap="round" stroke-linejoin="round" />
<path d="M 100.0 144.375 L 100.0 144.375 L 100.0 144.375 L 100.0 144.375 L 100.625 144.375 L 100.625 145.0 L 100.625 145.0 L 101.25 145.0 L 101.875 145.625 L 102.5 145.625 L 105.0 145.625 L 108.125 145.625 L 111.875 145.625 L 117.5 145.625 L 123.125 145.625 L 128.75 145.625 L 136.25 146.25 L 143.125 146.25 L 148.75 146.875 L 153.125 147.5 L 156.25 148.125 L 159.375 148.75 L 163.75 148.75 L 167.5 148.75 L 171.25 148.75 L 174.375 148.75 L 176.875 148.75 L 179.375 148.75 L 181.875 148.75 L 184.375 148.75 L 186.875 148.75 L 190.0 148.75 L 192.5 148.75 L 195.0 149.375 L 196.875 149.375 L 198.75 149.375 L 200.0 149.375 L 201.25 149.375 L 201.875 149.375 L 202.5 150.0 L 203.125 150.0 L 203.125 150.625 L 203.125 150.625 L 203.75 150.625 L 203.75 150.625 L 203.75 150.625 L 203.75 150.625 L 203.125 150.625 L 202.5 150.625 " stroke="black" fill="none" stroke-width="5.0" stroke-linecap="round" stroke-linejoin="round" />
<path d="M 82.5 182.5 L 82.5 182.5 L 83.125 182.5 L 83.125 182.5 L 83.75 182.5 L 83.75 182.5 L 83.75 181.875 L 84.375 181.875 L 85.625 181.875 L 86.875 181.875 L 88.125 181.875 L 90.0 181.25 L 92.5 181.25 L 95.0 180.625 L 98.125 180.625 L 101.875 180.0 L 106.25 180.0 L 111.25 179.375 L 116.875 179.375 L 121.25 179.375 L 125.625 179.375 L 129.375 180.0 L 133.125 180.625 L 137.5 181.25 L 142.5 181.875 L 146.875 181.875 L 150.0 182.5 L 153.75 182.5 L 156.875 182.5 L 160.625 182.5 L 165.0 182.5 L 170.0 182.5 L 174.375 182.5 L 178.125 182.5 L 181.25 182.5 L 184.375 182.5 L 188.125 183.125 L 191.875 183.75 L 196.25 185.0 L 200.0 185.625 L 203.125 185.625 L 205.625 185.625 L 207.5 185.625 L 209.375 185.625 L 211.875 185.625 L 213.75 185.625 L 215.625 185.0 L 217.5 185.0 L 218.75 185.0 L 220.0 185.0 L 220.625 185.0 L 221.25 185.0 L 221.25 185.0 L 221.875 185.0 L 221.875 185.0 L 221.875 184.375 L 221.875 184.375 L 221.25 184.375 L 220.625 184.375 " stroke="black" fill="none" stroke-width="5.0" stroke-linecap="round" stroke-linejoin="round" />
<path d="M 156.25 186.25 L 156.875 186.25 L 157.5 186.25 L 157.5 186.25 L 157.5 186.25 L 157.5 186.25 L 156.875 186.25 L 156.875 186.875 L 156.25 187.5 L 155.625 188.125 L 155.625 189.375 L 155.0 190.0 L 155.0 191.875 L 154.375 193.75 L 153.75 196.875 L 153.125 200.0 L 153.125 203.125 L 151.875 206.875 L 151.25 210.625 L 150.625 213.75 L 150.0 217.5 L 149.375 221.25 L 148.75 224.375 L 148.75 228.125 L 148.125 231.25 L 148.125 233.75 L 147.5 236.25 L 146.875 238.125 L 146.875 240.0 L 146.875 241.25 L 146.25 241.875 L 146.25 242.5 L 146.25 243.125 L 146.25 243.125 L 146.25 243.125 L 146.25 242.5 L 146.25 241.25 L 146.25 239.375 L 146.25 238.75 " stroke="black" fill="none" stroke-width="5.0" stroke-linecap="round" stroke-linejoin="round" />
<path d="M 93.125 213.125 L 93.125 213.125 L 93.125 213.125 L 92.5 213.125 L 91.875 213.125 L 91.875 213.125 L 91.875 213.125 L 91.875 213.125 L 92.5 213.125 L 93.75 213.125 L 95.0 212.5 L 96.25 212.5 L 98.75 212.5 L 101.875 212.5 L 106.25 212.5 L 111.25 212.5 L 116.875 211.875 L 122.5 211.875 L 128.75 211.875 L 134.375 211.875 L 141.25 211.875 L 146.875 211.875 L 151.25 211.875 L 154.375 211.875 L 157.5 211.875 L 161.25 211.875 L 165.625 211.875 L 170.0 211.875 L 173.75 211.875 L 176.875 211.875 L 179.375 211.875 L 181.875 211.875 L 184.375 211.875 L 187.5 211.875 L 191.25 211.875 L 194.375 211.875 L 198.75 211.875 L 201.875 211.875 L 203.75 211.25 L 206.25 210.625 L 206.875 210.625 L 208.125 210.625 L 208.75 210.625 L 209.375 210.625 L 210.0 210.625 L 210.0 211.25 L 210.0 211.25 L 210.0 211.875 L 210.0 211.875 L 210.0 212.5 L 208.75 212.5 L 208.125 213.125 L 206.25 213.125 L 205.0 213.75 " stroke="black" fill="none" stroke-width="5.0" stroke-linecap="round" stroke-linejoin="round" />
<path d="M 69.375 248.75 L 69.375 248.75 L 70.0 248.125 L 70.0 248.125 L 70.625 247.5 L 71.25 247.5 L 71.25 247.5 L 71.875 247.5 L 72.5 247.5 L 73.125 247.5 L 74.375 247.5 L 75.625 247.5 L 77.5 247.5 L 81.25 247.5 L 85.0 247.5 L 89.375 246.875 L 94.375 246.875 L 98.75 246.875 L 103.75 246.875 L 109.375 247.5 L 114.375 248.125 L 119.375 248.125 L 123.75 248.125 L 126.25 248.75 L 129.375 248.75 L 133.75 248.75 L 137.5 248.75 L 141.875 248.75 L 146.25 248.75 L 149.375 248.75 L 151.875 248.75 L 154.375 248.75 L 156.875 248.75 L 159.375 248.75 L 162.5 248.75 L 165.625 248.75 L 168.75 248.75 L 171.25 248.75 L 173.75 248.75 L 175.625 248.75 L 177.5 248.75 L 178.75 248.75 L 180.0 248.75 L 181.25 248.75 L 182.5 248.75 L 184.375 248.75 L 185.625 248.75 L 186.875 248.75 L 188.75 248.75 L 190.625 248.75 L 191.875 248.75 L 193.75 248.75 L 195.625 248.75 L 196.875 249.375 L 198.75 249.375 L 200.0 249.375 L 201.25 250.0 L 202.5 250.0 L 203.125 250.0 L 203.75 250.0 L 204.375 250.0 L 205.0 250.0 L 205.625 250.0 L 205.625 249.375 L 206.25 249.375 L 206.875 249.375 L 208.125 249.375 L 208.75 249.375 L 210.0 248.75 L 211.25 248.75 L 212.5 248.125 L 214.375 247.5 L 215.625 247.5 L 217.5 246.875 L 218.75 246.875 L 220.0 246.25 L 221.25 246.25 L 221.875 246.25 L 222.5 246.25 L 223.125 246.25 L 223.75 246.25 L 224.375 246.25 L 225.0 246.25 L 226.25 245.625 L 226.875 245.625 L 228.125 245.625 L 228.75 245.0 L 229.375 245.0 L 229.375 245.0 L 230.0 245.0 L 230.0 245.0 L 230.625 245.0 L 230.625 245.0 L 230.625 245.0 L 230.625 245.0 L 230.625 245.0 L 230.625 245.0 L 230.0 245.0 " stroke="black" fill="none" stroke-width="5.0" stroke-linecap="round" stroke-linejoin="round" />
</svg>