<svg xmlns="http://www.w3.org/2000/svg" width="300" height="300" viewBox="0 0 300 300">
<path d="M 76.0 78.0 L 76.0 78.0 L 74.0 78.0 L 72.0 78.0 L 72.0 78.0 L 72.0 78.0 L 72.0 78.0 L 73.0 79.0 L 76.0 80.0 L 80.0 82.0 L 84.0 84.0 L 90.0 86.0 L 95.0 88.0 L 100.0 90.0 L 106.0 93.0 L 110.0 97.0 " stroke="black" fill="none" stroke-width="5.0" stroke-linecap="round" stroke-linejoin="round" />
<path d="M 72.0 135.0 L 72.0 135.0 L 70.0 135.0 L 69.0 135.0 L 68.0 135.0 L 68.0 135.0 L 68.0 135.0 L 69.0 136.0 L 71.0 137.0 L 74.0 139.0 L 78.0 141.0 L 84.0 143.0 L 91.0 146.0 L 98.0 148.0 L 101.0 149.0 " stroke="black" fill="none" stroke-width="5.0" stroke-linecap="round" stroke-linejoin="round" />
<path d="M 67.0 241.0 L 66.0 241.0 L 64.0 242.0 L 63.0 242.0 L 62.0 242.0 L 62.0 242.0 L 62.0 239.0 L 65.0 235.0 L 69.0 229.0 L 75.0 219.0 L 84.0 209.0 L 95.0 197.0 L 106.0 184.0 L 110.0 177.0 " stroke="black" fill="none" stroke-width="5.0" stroke-linecap="round" stroke-linejoin="round" />
<path d="M 119.0 93.0 L 119.0 93.0 L 118.0 93.0 L 118.0 93.0 L 117.0 93.0 L 117.0 95.0 L 117.0 97.0 L 117.0 101.0 L 117.0 105.0 L 118.0 111.0 L 118.0 116.0 L 118.0 121.0 L 118.0 126.0 L 118.0 127.0 " stroke="black" fill="none" stroke-width="5.0" stroke-linecap="round" stroke-linejoin="round" />
<path d="M 132.0 90.0 L 132.0 90.0 L 131.0 90.0 L 130.0 90.0 L 129.0 90.0 L 129.0 90.0 L 129.0 90.0 L 129.0 90.0 L 129.0 90.0 L 130.0 90.0 L 131.0 90.0 L 133.0 90.0 L 135.0 90.0 L 137.0 90.0 L 139.0 90.0 L 142.0 90.0 L 145.0 90.0 L 148.0 90.0 L 152.0 90.0 L 157.0 90.0 L 162.0 90.0 L 168.0 89.0 L 174.0 89.0 L 180.0 88.0 L 186.0 87.0 L 190.0 87.0 L 193.0 87.0 L 196.0 87.0 L 198.0 87.0 L 200.0 88.0 L 203.0 88.0 L 206.0 89.0 L 210.0 89.0 L 214.0 89.0 L 219.0 89.0 L 223.0 89.0 L 228.0 89.0 L 231.0 89.0 L 234.0 89.0 L 237.0 89.0 L 239.0 90.0 L 241.0 90.0 L 243.0 90.0 L 244.0 90.0 L 246.0 90.0 L 248.0 91.0 L 249.0 91.0 L 250.0 91.0 L 251.0 92.0 L 251.0 93.0 L 252.0 93.0 L 252.0 95.0 L 251.0 96.0 L 250.0 98.0 L 249.0 100.0 L 247.0 102.0 L 245.0 105.0 L 243.0 108.0 L 241.0 111.0 L 240.0 113.0 " stroke="black" fill="none" stroke-width="5.0" stroke-linecap="round" stroke-linejoin="round" />
<path d="M 157.0 130.0 L 157.0 130.0 L 157.0 129.0 L 157.0 129.0 L 158.0 129.0 L 158.0 129.0 L 160.0 130.0 L 161.0 134.0 L 162.0 139.0 L 163.0 145.0 L 164.0 152.0 L 163.0 161.0 L 161.0 170.0 L 158.0 181.0 L 154.0 192.0 L 151.0 202.0 L 148.0 211.0 L 145.0 219.0 L 142.0 226.0 L 140.0 230.0 " stroke="black" fill="none" stroke-width="5.0" stroke-linecap="round" stroke-linejoin="round" />
<path d="M 195.0 139.0 L 195.0 139.0 L 195.0 138.0 L 195.0 137.0 L 194.0 137.0 L 194.0 137.0 L 194.0 137.0 L 194.0 137.0 L 194.0 137.0 L 195.0 139.0 L 195.0 142.0 L 196.0 145.0 L 196.0 149.0 L 196.0 153.0 L 196.0 157.0 L 196.0 163.0 L 196.0 169.0 L 196.0 175.0 L 196.0 182.0 L 196.0 188.0 L 196.0 193.0 L 195.0 198.0 L 195.0 202.0 L 195.0 205.0 L 195.0 208.0 L 195.0 211.0 L 195.0 214.0 L 195.0 218.0 L 195.0 222.0 L 194.0 226.0 L 194.0 231.0 L 194.0 235.0 L 194.0 239.0 L 194.0 243.0 L 194.0 246.0 L 194.0 248.0 L 194.0 250.0 L 194.0 252.0 L 194.0 253.0 L 194.0 254.0 L 194.0 255.0 L 194.0 255.0 L 194.0 255.0 L 194.0 255.0 L 194.0 255.0 L 195.0 255.0 L 195.0 255.0 L 196.0 255.0 L 197.0 255.0 L 198.0 255.0 L 199.0 255.0 L 201.0 255.0 L 204.0 255.0 L 207.0 255.0 L 212.0 255.0 L 217.0 255.0 L 223.0 255.0 L 229.0 255.0 L 233.0 254.0 L 236.0 253.0 L 238.0 252.0 L 239.0 250.0 L 239.0 248.0 L 239.0 245.0 L 239.0 241.0 L 238.0 237.0 L 237.0 231.0 L 237.0 224.0 L 237.0 217.0 L 237.0 209.0 L 237.0 204.0 " stroke="black" fill="none" stroke-width="5.0" stroke-linecap="round" stroke-linejoin="round" />
</svg>