<svg xmlns="http://www.w3.org/2000/svg" width="300" height="300" viewBox="0 0 300 300">
<path d="M 116.0 73.0 L 116.0 73.0 L 116.0 73.0 L 116.0 73.0 L 116.0 73.0 L 116.0 73.0 L 117.0 73.0 L 117.0 73.0 L 117.0 73.0 L 117.0 74.0 L 117.0 75.0 L 117.0 76.0 L 117.0 77.0 L 117.0 79.0 L 118.0 82.0 L 118.0 84.0 L 118.0 87.0 L 118.0 89.0 L 118.0 92.0 L 118.0 95.0 L 118.0 97.0 L 118.0 100.0 L 118.0 102.0 L 118.0 105.0 L 118.0 107.0 L 118.0 109.0 L 119.0 110.0 L 119.0 112.0 L 119.0 114.0 L 119.0 115.0 L 119.0 117.0 L 119.0 119.0 L 119.0 120.0 L 119.0 122.0 L 119.0 124.0 L 119.0 125.0 L 119.0 127.0 L 119.0 128.0 L 119.0 130.0 L 119.0 131.0 L 119.0 133.0 L 119.0 134.0 L 119.0 136.0 L 119.0 137.0 L 119.0 139.0 L 119.0 141.0 L 119.0 143.0 L 119.0 144.0 L 119.0 146.0 L 119.0 148.0 L 118.0 149.0 L 118.0 151.0 L 118.0 153.0 L 118.0 155.0 L 118.0 156.0 L 117.0 158.0 L 117.0 159.0 L 117.0 161.0 L 117.0 162.0 L 117.0 164.0 L 117.0 165.0 L 117.0 167.0 L 117.0 168.0 L 117.0 169.0 L 117.0 170.0 L 117.0 171.0 L 117.0 173.0 L 117.0 174.0 L 117.0 175.0 L 116.0 176.0 L 116.0 177.0 L 116.0 178.0 L 116.0 180.0 L 116.0 181.0 L 116.0 182.0 L 116.0 184.0 L 116.0 185.0 L 116.0 186.0 L 116.0 188.0 L 116.0 189.0 L 115.0 191.0 L 115.0 192.0 L 115.0 194.0 L 115.0 195.0 L 115.0 196.0 L 115.0 198.0 L 115.0 199.0 L 115.0 201.0 L 115.0 202.0 L 115.0 203.0 L 115.0 205.0 L 115.0 206.0 L 115.0 208.0 L 115.0 210.0 L 115.0 211.0 L 115.0 213.0 L 115.0 215.0 L 115.0 217.0 L 115.0 219.0 L 115.0 221.0 L 114.0 223.0 L 114.0 224.0 L 114.0 225.0 L 114.0 226.0 L 114.0 226.0 L 114.0 226.0 " stroke="black" fill="none" stroke-width="5.0" stroke-linecap="round" stroke-linejoin="round" />
<path d="M 117.0 139.0 L 117.0 139.0 L 116.0 139.0 L 116.0 139.0 L 115.0 139.0 L 115.0 139.0 L 115.0 139.0 L 115.0 140.0 L 115.0 140.0 L 115.0 140.0 L 116.0 140.0 L 117.0 140.0 L 119.0 140.0 L 121.0 140.0 L 124.0 140.0 L 126.0 140.0 L 129.0 140.0 L 132.0 140.0 L 136.0 139.0 L 139.0 139.0 L 142.0 138.0 L 146.0 138.0 L 148.0 137.0 L 150.0 136.0 L 152.0 136.0 L 153.0 136.0 L 154.0 136.0 L 154.0 136.0 L 154.0 136.0 L 154.0 136.0 " stroke="black" fill="none" stroke-width="5.0" stroke-linecap="round" stroke-linejoin="round" />
<path d="M 82.0 116.0 L 82.0 116.0 L 82.0 116.0 L 82.0 116.0 L 83.0 116.0 L 83.0 116.0 L 83.0 116.0 L 83.0 116.0 L 84.0 115.0 L 84.0 115.0 L 84.0 115.0 L 85.0 115.0 L 85.0 115.0 L 85.0 116.0 L 85.0 117.0 L 86.0 119.0 L 86.0 121.0 L 86.0 124.0 L 86.0 127.0 L 86.0 131.0 L 86.0 135.0 L 86.0 140.0 L 85.0 144.0 L 85.0 149.0 L 84.0 152.0 L 84.0 155.0 L 84.0 159.0 L 83.0 161.0 L 83.0 163.0 L 83.0 165.0 L 83.0 167.0 L 83.0 169.0 L 83.0 172.0 L 83.0 174.0 L 83.0 176.0 L 83.0 178.0 L 83.0 181.0 L 83.0 183.0 L 83.0 186.0 L 83.0 188.0 L 83.0 190.0 L 83.0 193.0 L 83.0 195.0 L 83.0 196.0 L 83.0 198.0 L 83.0 200.0 L 83.0 202.0 L 83.0 204.0 L 83.0 206.0 L 83.0 207.0 L 82.0 209.0 L 82.0 211.0 L 82.0 213.0 L 82.0 215.0 L 82.0 217.0 L 82.0 218.0 L 82.0 220.0 L 82.0 222.0 L 82.0 223.0 L 82.0 225.0 L 82.0 227.0 L 82.0 228.0 L 82.0 230.0 L 82.0 232.0 L 82.0 233.0 L 83.0 234.0 L 83.0 235.0 L 83.0 236.0 L 83.0 237.0 L 83.0 237.0 L 83.0 237.0 L 83.0 237.0 L 83.0 237.0 L 83.0 237.0 " stroke="black" fill="none" stroke-width="5.0" stroke-linecap="round" stroke-linejoin="round" />
<path d="M 64.0 238.0 L 64.0 238.0 L 64.0 238.0 L 64.0 238.0 L 64.0 239.0 L 64.0 239.0 L 63.0 239.0 L 63.0 239.0 L 63.0 239.0 L 63.0 239.0 L 63.0 239.0 L 63.0 239.0 L 63.0 239.0 L 63.0 239.0 L 63.0 239.0 L 63.0 239.0 L 63.0 239.0 L 63.0 239.0 L 63.0 239.0 L 63.0 239.0 L 64.0 239.0 L 64.0 239.0 L 64.0 239.0 L 65.0 239.0 L 65.0 239.0 L 66.0 239.0 L 66.0 239.0 L 67.0 239.0 L 67.0 239.0 L 68.0 239.0 L 69.0 239.0 L 70.0 239.0 L 71.0 239.0 L 72.0 239.0 L 73.0 239.0 L 75.0 238.0 L 76.0 238.0 L 77.0 238.0 L 78.0 238.0 L 80.0 237.0 L 81.0 237.0 L 82.0 237.0 L 84.0 237.0 L 86.0 237.0 L 87.0 237.0 L 89.0 236.0 L 91.0 236.0 L 93.0 236.0 L 96.0 235.0 L 98.0 235.0 L 99.0 234.0 L 101.0 234.0 L 103.0 234.0 L 104.0 234.0 L 106.0 233.0 L 107.0 233.0 L 108.0 233.0 L 109.0 232.0 L 111.0 232.0 L 112.0 232.0 L 113.0 231.0 L 115.0 231.0 L 116.0 230.0 L 118.0 230.0 L 120.0 229.0 L 122.0 229.0 L 125.0 228.0 L 127.0 228.0 L 129.0 228.0 L 132.0 227.0 L 134.0 227.0 L 136.0 227.0 L 139.0 226.0 L 141.0 226.0 L 142.0 226.0 L 144.0 226.0 L 146.0 226.0 L 147.0 226.0 L 148.0 226.0 L 149.0 226.0 L 149.0 225.0 L 150.0 225.0 L 150.0 225.0 L 150.0 225.0 L 150.0 225.0 " stroke="black" fill="none" stroke-width="5.0" stroke-linecap="round" stroke-linejoin="round" />
<path d="M 174.0 140.0 L 174.0 140.0 L 174.0 140.0 L 174.0 140.0 L 174.0 140.0 L 174.0 140.0 L 173.0 140.0 L 173.0 140.0 L 173.0 140.0 L 173.0 140.0 L 174.0 140.0 L 175.0 141.0 L 177.0 141.0 L 179.0 141.0 L 181.0 141.0 L 183.0 141.0 L 186.0 141.0 L 189.0 141.0 L 191.0 141.0 L 194.0 141.0 L 197.0 141.0 L 199.0 141.0 L 201.0 141.0 L 203.0 141.0 L 205.0 141.0 L 207.0 141.0 L 209.0 141.0 L 210.0 141.0 L 211.0 141.0 L 213.0 141.0 L 214.0 141.0 L 215.0 141.0 L 217.0 141.0 L 218.0 141.0 L 220.0 141.0 L 221.0 141.0 L 223.0 141.0 L 224.0 141.0 L 225.0 141.0 L 225.0 142.0 L 226.0 142.0 L 227.0 142.0 L 227.0 142.0 L 228.0 142.0 L 229.0 142.0 L 229.0 141.0 " stroke="black" fill="none" stroke-width="5.0" stroke-linecap="round" stroke-linejoin="round" />
<path d="M 175.0 76.0 L 175.0 76.0 L 175.0 76.0 L 175.0 76.0 L 175.0 76.0 L 175.0 76.0 L 175.0 76.0 L 175.0 76.0 L 175.0 76.0 L 176.0 77.0 L 176.0 78.0 L 176.0 80.0 L 176.0 83.0 L 177.0 86.0 L 177.0 89.0 L 177.0 94.0 L 177.0 98.0 L 177.0 102.0 L 177.0 107.0 L 177.0 110.0 L 177.0 113.0 L 177.0 117.0 L 177.0 119.0 L 177.0 122.0 L 177.0 125.0 L 177.0 127.0 L 177.0 129.0 L 177.0 132.0 L 177.0 134.0 L 177.0 136.0 L 176.0 139.0 L 176.0 141.0 L 175.0 144.0 L 175.0 146.0 L 174.0 149.0 L 174.0 151.0 L 173.0 154.0 L 173.0 156.0 L 173.0 158.0 L 173.0 160.0 L 173.0 162.0 L 173.0 164.0 L 173.0 166.0 L 173.0 167.0 L 173.0 169.0 L 173.0 171.0 L 173.0 172.0 L 173.0 174.0 L 173.0 176.0 L 173.0 178.0 L 173.0 180.0 L 173.0 182.0 L 173.0 184.0 L 173.0 185.0 L 173.0 188.0 L 172.0 189.0 L 172.0 191.0 L 172.0 193.0 L 172.0 194.0 L 172.0 196.0 L 172.0 198.0 L 172.0 199.0 L 172.0 200.0 L 172.0 202.0 L 172.0 203.0 L 172.0 204.0 L 172.0 206.0 L 172.0 207.0 L 172.0 208.0 L 172.0 210.0 L 172.0 211.0 L 172.0 212.0 L 172.0 213.0 L 172.0 214.0 L 172.0 216.0 L 172.0 217.0 L 173.0 218.0 L 173.0 220.0 L 173.0 221.0 L 173.0 223.0 L 173.0 224.0 L 173.0 226.0 L 174.0 227.0 L 174.0 228.0 L 174.0 230.0 L 174.0 231.0 L 174.0 232.0 L 174.0 233.0 L 175.0 234.0 L 175.0 235.0 L 175.0 237.0 L 175.0 237.0 L 176.0 238.0 L 176.0 239.0 L 176.0 240.0 L 176.0 241.0 L 176.0 242.0 L 177.0 243.0 L 177.0 243.0 L 177.0 244.0 L 177.0 245.0 L 178.0 245.0 L 178.0 246.0 L 178.0 246.0 L 179.0 246.0 L 179.0 247.0 L 180.0 247.0 L 181.0 247.0 L 181.0 248.0 L 182.0 248.0 L 183.0 248.0 L 186.0 248.0 L 187.0 249.0 L 189.0 249.0 L 190.0 249.0 L 192.0 249.0 L 194.0 249.0 L 196.0 249.0 L 198.0 249.0 L 200.0 249.0 L 202.0 249.0 L 205.0 249.0 L 208.0 249.0 L 211.0 249.0 L 214.0 249.0 L 218.0 249.0 L 221.0 249.0 L 224.0 249.0 L 227.0 249.0 L 229.0 249.0 L 230.0 249.0 L 232.0 249.0 L 233.0 248.0 L 233.0 248.0 L 234.0 247.0 L 234.0 247.0 L 234.0 246.0 L 234.0 246.0 L 234.0 245.0 L 234.0 245.0 L 234.0 244.0 L 234.0 243.0 L 234.0 241.0 L 234.0 239.0 L 234.0 237.0 L 234.0 234.0 L 234.0 230.0 L 234.0 226.0 L 235.0 221.0 L 235.0 215.0 L 236.0 211.0 L 237.0 208.0 " stroke="black" fill="none" stroke-width="5.0" stroke-linecap="round" stroke-linejoin="round" />
</svg>