<svg xmlns="http://www.w3.org/2000/svg" width="300" height="300" viewBox="0 0 300 300">
<path d="M 105.0 69.0 L 105.0 68.0 L 105.0 67.0 L 105.0 66.0 L 105.0 66.0 L 105.0 66.0 L 105.0 66.0 L 105.0 67.0 L 105.0 69.0 L 105.0 72.0 L 104.0 76.0 L 103.0 80.0 L 101.0 84.0 L 98.0 90.0 L 94.0 98.0 L 89.0 106.0 L 82.0 114.0 L 75.0 122.0 L 69.0 128.0 L 65.0 134.0 L 61.0 139.0 L 58.0 142.0 L 56.0 144.0 L 54.0 144.0 L 54.0 144.0 " stroke="black" fill="none" stroke-width="5.0" stroke-linecap="round" stroke-linejoin="round" />
<path d="M 85.0 111.0 L 85.0 111.0 L 83.0 110.0 L 83.0 110.0 L 82.0 110.0 L 82.0 111.0 L 82.0 112.0 L 83.0 115.0 L 84.0 118.0 L 85.0 123.0 L 87.0 130.0 L 87.0 140.0 L 87.0 150.0 L 87.0 161.0 L 86.0 173.0 L 85.0 182.0 L 84.0 189.0 L 83.0 195.0 " stroke="black" fill="none" stroke-width="5.0" stroke-linecap="round" stroke-linejoin="round" />
<path d="M 124.0 104.0 L 124.0 104.0 L 124.0 104.0 L 123.0 104.0 L 122.0 104.0 L 122.0 104.0 L 122.0 106.0 L 122.0 109.0 L 122.0 113.0 L 122.0 120.0 L 121.0 128.0 L 120.0 138.0 L 119.0 149.0 L 118.0 158.0 L 118.0 165.0 L 118.0 170.0 " stroke="black" fill="none" stroke-width="5.0" stroke-linecap="round" stroke-linejoin="round" />
<path d="M 169.0 78.0 L 169.0 78.0 L 169.0 78.0 L 169.0 78.0 L 169.0 78.0 L 169.0 78.0 L 169.0 80.0 L 169.0 83.0 L 167.0 87.0 L 164.0 93.0 L 160.0 100.0 L 156.0 107.0 L 152.0 113.0 L 149.0 117.0 L 146.0 119.0 L 145.0 120.0 L 145.0 120.0 L 145.0 119.0 " stroke="black" fill="none" stroke-width="5.0" stroke-linecap="round" stroke-linejoin="round" />
<path d="M 164.0 100.0 L 164.0 100.0 L 164.0 100.0 L 164.0 100.0 L 165.0 100.0 L 168.0 100.0 L 172.0 100.0 L 177.0 99.0 L 184.0 99.0 L 189.0 99.0 L 195.0 98.0 L 201.0 98.0 L 207.0 98.0 L 212.0 98.0 L 218.0 98.0 L 223.0 99.0 L 226.0 99.0 L 229.0 100.0 L 230.0 100.0 " stroke="black" fill="none" stroke-width="5.0" stroke-linecap="round" stroke-linejoin="round" />
<path d="M 215.0 107.0 L 214.0 107.0 L 213.0 107.0 L 212.0 107.0 L 211.0 107.0 L 211.0 107.0 L 210.0 108.0 L 209.0 110.0 L 208.0 112.0 L 207.0 115.0 L 206.0 119.0 L 203.0 123.0 L 200.0 128.0 L 196.0 133.0 L 192.0 139.0 L 186.0 146.0 L 177.0 153.0 L 168.0 158.0 L 159.0 162.0 L 151.0 166.0 L 147.0 168.0 L 144.0 170.0 L 141.0 170.0 L 141.0 170.0 L 141.0 169.0 " stroke="black" fill="none" stroke-width="5.0" stroke-linecap="round" stroke-linejoin="round" />
<path d="M 160.0 121.0 L 160.0 121.0 L 159.0 121.0 L 158.0 121.0 L 158.0 121.0 L 158.0 122.0 L 160.0 123.0 L 163.0 125.0 L 167.0 127.0 L 173.0 130.0 L 180.0 134.0 L 187.0 139.0 L 193.0 146.0 L 198.0 152.0 L 202.0 157.0 L 207.0 161.0 L 212.0 165.0 L 217.0 167.0 L 222.0 168.0 L 224.0 169.0 " stroke="black" fill="none" stroke-width="5.0" stroke-linecap="round" stroke-linejoin="round" />
<path d="M 86.0 207.0 L 86.0 207.0 L 86.0 207.0 L 87.0 207.0 L 87.0 209.0 L 87.0 211.0 L 87.0 216.0 L 85.0 223.0 L 81.0 232.0 L 78.0 239.0 L 75.0 246.0 L 73.0 251.0 L 73.0 253.0 L 73.0 253.0 " stroke="black" fill="none" stroke-width="5.0" stroke-linecap="round" stroke-linejoin="round" />
<path d="M 110.0 206.0 L 110.0 206.0 L 110.0 206.0 L 109.0 206.0 L 109.0 206.0 L 109.0 206.0 L 108.0 207.0 L 108.0 207.0 L 108.0 208.0 L 109.0 209.0 L 109.0 211.0 L 110.0 213.0 L 111.0 215.0 L 112.0 218.0 L 112.0 221.0 L 113.0 224.0 L 113.0 228.0 L 113.0 231.0 L 113.0 234.0 L 113.0 237.0 L 113.0 240.0 L 113.0 242.0 L 113.0 244.0 L 114.0 245.0 L 114.0 246.0 L 115.0 247.0 L 116.0 248.0 L 117.0 248.0 L 118.0 249.0 L 120.0 249.0 L 122.0 250.0 L 124.0 250.0 L 126.0 250.0 L 129.0 251.0 L 132.0 251.0 L 136.0 251.0 L 140.0 251.0 L 144.0 251.0 L 147.0 251.0 L 151.0 251.0 L 155.0 251.0 L 159.0 251.0 L 164.0 251.0 L 169.0 251.0 L 176.0 251.0 L 182.0 251.0 L 188.0 251.0 L 192.0 251.0 L 195.0 250.0 L 197.0 250.0 L 197.0 249.0 L 197.0 248.0 L 197.0 247.0 L 197.0 245.0 L 196.0 243.0 L 195.0 241.0 L 194.0 239.0 L 193.0 237.0 " stroke="black" fill="none" stroke-width="5.0" stroke-linecap="round" stroke-linejoin="round" />
<path d="M 140.0 199.0 L 139.0 199.0 L 138.0 199.0 L 137.0 199.0 L 137.0 199.0 L 138.0 200.0 L 140.0 201.0 L 143.0 204.0 L 146.0 206.0 L 150.0 210.0 L 154.0 214.0 L 159.0 218.0 L 165.0 222.0 L 168.0 225.0 " stroke="black" fill="none" stroke-width="5.0" stroke-linecap="round" stroke-linejoin="round" />
<path d="M 206.0 201.0 L 206.0 201.0 L 206.0 201.0 L 206.0 201.0 L 207.0 202.0 L 208.0 204.0 L 211.0 206.0 L 215.0 211.0 L 220.0 216.0 L 225.0 223.0 L 231.0 231.0 L 234.0 236.0 L 237.0 241.0 " stroke="black" fill="none" stroke-width="5.0" stroke-linecap="round" stroke-linejoin="round" />
</svg>